<?xml version="1.0" encoding="utf-8"?>
<!-- Generator: Adobe Illustrator 24.1.2, SVG Export Plug-In . SVG Version: 6.00 Build 0)  -->
<svg version="1.1" id="Layer_1" xmlns="http://www.w3.org/2000/svg" xmlns:xlink="http://www.w3.org/1999/xlink" x="0px" y="0px"
	 viewBox="0 0 128 128" style="enable-background:new 0 0 128 128;" xml:space="preserve">
<style type="text/css">
	.st0{fill:#2D2D2D;}
</style>
<g>
	<rect x="94.23" y="15.06" class="st0" width="3.57" height="3.54"/>
	<path class="st0" d="M106.74,19c1.92,0,3.49-0.55,4.7-1.65c1.21-1.1,1.81-2.53,1.81-4.28c0-1.1-0.3-2.03-0.89-2.79
		c-0.59-0.76-1.41-1.27-2.44-1.54c0.79-0.26,1.41-0.73,1.88-1.4c0.46-0.67,0.7-1.46,0.7-2.35c0-1.47-0.53-2.66-1.58-3.57
		c-1.05-0.91-2.42-1.36-4.12-1.36c-1.8,0-3.24,0.54-4.3,1.63c-1.07,1.08-1.63,2.57-1.68,4.46h2.86c0.09-2.41,1.11-3.62,3.07-3.62
		c0.86,0,1.54,0.24,2.05,0.73c0.51,0.49,0.76,1.14,0.76,1.94c0,0.56-0.1,1.03-0.32,1.4c-0.21,0.38-0.51,0.65-0.91,0.81
		c-0.39,0.17-0.78,0.28-1.17,0.34c-0.39,0.06-0.85,0.09-1.39,0.09h-0.26v2.26c0.3-0.02,0.61-0.03,0.95-0.03
		c1.08,0,1.97,0.24,2.65,0.73c0.68,0.49,1.02,1.27,1.02,2.34c0,1.01-0.3,1.82-0.89,2.4c-0.59,0.59-1.4,0.88-2.41,0.88
		c-2.29,0-3.48-1.29-3.57-3.86h-2.89v0.39c0,1.82,0.59,3.28,1.76,4.38C103.3,18.45,104.84,19,106.74,19z"/>
	<path class="st0" d="M115.97,10.41c-0.59,0.8-0.88,1.76-0.88,2.9c0,1.68,0.59,3.04,1.77,4.07c1.18,1.03,2.73,1.55,4.66,1.55
		c1.94,0,3.51-0.53,4.7-1.59c1.19-1.06,1.78-2.45,1.78-4.19c0-1.17-0.28-2.11-0.84-2.81c-0.56-0.7-1.4-1.24-2.52-1.63
		c1.73-0.74,2.6-2.04,2.6-3.91c0-1.4-0.52-2.55-1.57-3.45c-1.05-0.9-2.4-1.35-4.04-1.35c-1.71,0-3.11,0.46-4.19,1.36
		c-1.08,0.91-1.61,2.08-1.61,3.52c0,0.91,0.23,1.7,0.7,2.37s1.11,1.16,1.93,1.46C117.38,9.05,116.55,9.61,115.97,10.41z
		 M119.43,3.14c0.53-0.48,1.25-0.72,2.16-0.72c0.87,0,1.57,0.24,2.09,0.72c0.52,0.48,0.77,1.12,0.77,1.93
		c0,0.82-0.26,1.47-0.79,1.95c-0.53,0.48-1.22,0.72-2.1,0.72c-0.88,0-1.58-0.24-2.13-0.73c-0.54-0.49-0.81-1.14-0.81-1.94
		C118.63,4.26,118.9,3.62,119.43,3.14z M119.05,10.8c0.63-0.6,1.45-0.9,2.47-0.9c1.05,0,1.89,0.3,2.52,0.9
		c0.63,0.6,0.95,1.41,0.95,2.43c0,1.05-0.3,1.87-0.89,2.45c-0.59,0.59-1.42,0.88-2.47,0.88c-1.08,0-1.94-0.31-2.57-0.92
		c-0.63-0.61-0.94-1.44-0.94-2.49C118.11,12.19,118.42,11.4,119.05,10.8z"/>
	<path class="st0" d="M26.76,51.42c0.27-0.25,0.4-0.5,0.5-0.74c0.09-0.25,0.14-0.5,0.14-0.75c0-0.25-0.04-0.5-0.14-0.75
		c-0.1-0.25-0.23-0.5-0.5-0.75c-0.26,0.25-0.4,0.5-0.5,0.75c-0.09,0.25-0.14,0.5-0.14,0.75c0,0.25,0.04,0.5,0.14,0.75
		C26.37,50.92,26.5,51.17,26.76,51.42z"/>
	<path class="st0" d="M30.94,51.42c0.27-0.25,0.4-0.5,0.5-0.74c0.09-0.25,0.14-0.5,0.14-0.75c0-0.25-0.04-0.5-0.14-0.75
		c-0.1-0.25-0.23-0.5-0.5-0.75c-0.26,0.25-0.4,0.5-0.5,0.75c-0.09,0.25-0.14,0.5-0.14,0.75c0,0.25,0.04,0.5,0.14,0.75
		C30.54,50.92,30.67,51.17,30.94,51.42z"/>
	<path class="st0" d="M35.11,51.42c0.27-0.25,0.4-0.5,0.5-0.74c0.09-0.25,0.14-0.5,0.14-0.75c0-0.25-0.04-0.5-0.14-0.75
		c-0.1-0.25-0.23-0.5-0.5-0.75c-0.26,0.25-0.4,0.5-0.5,0.75c-0.09,0.25-0.14,0.5-0.14,0.75c0,0.25,0.04,0.5,0.14,0.75
		C34.71,50.92,34.84,51.17,35.11,51.42z"/>
	<path class="st0" d="M39.28,51.42c0.27-0.25,0.4-0.5,0.5-0.74c0.09-0.25,0.14-0.5,0.14-0.75c0-0.25-0.04-0.5-0.14-0.75
		c-0.1-0.25-0.23-0.5-0.5-0.75c-0.26,0.25-0.4,0.5-0.5,0.75c-0.09,0.25-0.14,0.5-0.14,0.75c0,0.25,0.04,0.5,0.14,0.75
		C38.88,50.92,39.02,51.17,39.28,51.42z"/>
	<path class="st0" d="M43.45,51.42c0.27-0.25,0.4-0.5,0.5-0.74c0.09-0.25,0.14-0.5,0.14-0.75c0-0.25-0.04-0.5-0.14-0.75
		c-0.1-0.25-0.23-0.5-0.5-0.75c-0.26,0.25-0.4,0.5-0.5,0.75c-0.09,0.25-0.14,0.5-0.14,0.75c0,0.25,0.04,0.5,0.14,0.75
		C43.05,50.92,43.19,51.17,43.45,51.42z"/>
	<path class="st0" d="M47.62,51.42c0.27-0.25,0.4-0.5,0.5-0.74c0.09-0.25,0.14-0.5,0.14-0.75c0-0.25-0.04-0.5-0.14-0.75
		c-0.1-0.25-0.23-0.5-0.5-0.75c-0.26,0.25-0.4,0.5-0.5,0.75c-0.09,0.25-0.14,0.5-0.14,0.75c0,0.25,0.04,0.5,0.14,0.75
		C47.23,50.92,47.36,51.17,47.62,51.42z"/>
	<path class="st0" d="M78.29,86.19c-0.25,0-0.49,0.04-0.74,0.14c-0.25,0.1-0.49,0.23-0.74,0.5c0.25,0.27,0.49,0.4,0.74,0.5
		c0.25,0.09,0.49,0.14,0.74,0.14c0.25,0,0.49-0.04,0.74-0.14c0.25-0.1,0.49-0.23,0.74-0.5c-0.25-0.26-0.49-0.4-0.74-0.5
		C78.78,86.24,78.54,86.19,78.29,86.19z"/>
	<path class="st0" d="M78.29,90.38c-0.25,0-0.49,0.04-0.74,0.14c-0.25,0.1-0.49,0.23-0.74,0.5c0.25,0.27,0.49,0.4,0.74,0.5
		c0.25,0.09,0.49,0.14,0.74,0.14c0.25,0,0.49-0.04,0.74-0.14c0.25-0.1,0.49-0.23,0.74-0.5c-0.25-0.27-0.49-0.4-0.74-0.5
		C78.78,90.43,78.54,90.38,78.29,90.38z"/>
	<path class="st0" d="M78.29,94.57c-0.25,0-0.49,0.04-0.74,0.14c-0.25,0.1-0.49,0.23-0.74,0.5c0.25,0.27,0.49,0.4,0.74,0.5
		c0.25,0.09,0.49,0.14,0.74,0.14c0.25,0,0.49-0.04,0.74-0.14c0.25-0.1,0.49-0.23,0.74-0.5c-0.25-0.27-0.49-0.4-0.74-0.5
		C78.78,94.62,78.54,94.57,78.29,94.57z"/>
	<path class="st0" d="M78.29,98.76c-0.25,0-0.49,0.04-0.74,0.14c-0.25,0.1-0.49,0.23-0.74,0.5c0.25,0.27,0.49,0.4,0.74,0.5
		c0.25,0.09,0.49,0.14,0.74,0.14c0.25,0,0.49-0.04,0.74-0.14c0.25-0.1,0.49-0.23,0.74-0.5c-0.25-0.26-0.49-0.4-0.74-0.5
		C78.78,98.81,78.54,98.76,78.29,98.76z"/>
	<path class="st0" d="M78.29,102.95c-0.25,0-0.49,0.04-0.74,0.14c-0.25,0.1-0.49,0.23-0.74,0.5c0.25,0.27,0.49,0.4,0.74,0.5
		c0.25,0.09,0.49,0.14,0.74,0.14c0.25,0,0.49-0.04,0.74-0.14c0.25-0.1,0.49-0.23,0.74-0.5c-0.25-0.26-0.49-0.4-0.74-0.5
		C78.78,103,78.54,102.95,78.29,102.95z"/>
	<path class="st0" d="M78.29,107.14c-0.25,0-0.49,0.04-0.74,0.14c-0.25,0.1-0.49,0.23-0.74,0.5c0.25,0.27,0.49,0.4,0.74,0.5
		c0.25,0.09,0.49,0.14,0.74,0.14c0.25,0,0.49-0.04,0.74-0.14c0.25-0.1,0.49-0.23,0.74-0.5c-0.25-0.26-0.49-0.4-0.74-0.5
		C78.78,107.19,78.54,107.14,78.29,107.14z"/>
	<path class="st0" d="M116.49,83.68c-0.75-0.26-1.56-0.39-2.33-0.52c-0.75-0.13-1.5-0.22-2.26-0.33c-1.51-0.2-3.02-0.37-4.53-0.54
		c-3.02-0.32-6.06-0.58-9.1-0.74l-0.04,0c-0.7,0.06-2.74,0.01-2.86,0.01l-0.46-0.01l-1.84-0.05l-3.67-0.14l-7.35-0.26
		c-4.9-0.11-9.8-0.05-14.69,0.05c-4.67,0.1-9.34,0.29-14.01,0.6c0.14-7.16,0.18-14.31,0.21-21.47c0-4.83,0.01-9.67-0.02-14.5
		l-0.05-7.25l-0.02-3.62l-0.01-1.81l0-0.45l-0.01-0.19c-0.01-0.08-0.02-0.16-0.04-0.23c-0.03-0.15-0.95-8.48-1.22-11.52
		c-0.15-1.52-0.29-3.04-0.46-4.56l-0.26-2.28c-0.1-0.78-0.19-1.61-0.42-2.39c-0.81-3.16-2.59-6.02-5.01-8.15
		c-1.21-1.06-2.59-1.96-4.1-2.54c-1.5-0.59-3.13-0.85-4.73-0.78c-3.22,0.18-6.13,1.69-8.43,3.75c-2.3,2.07-4.17,4.73-5.13,7.79
		c-0.26,0.76-0.39,1.57-0.52,2.34c-0.13,0.75-0.22,1.51-0.33,2.27c-0.2,1.51-0.37,3.03-0.54,4.55c-0.32,3.04-0.58,6.08-0.74,9.14
		l0,0.04c0.05,0.61-0.12,2.3-0.15,2.54c-0.01,0.06-0.01,0.12-0.01,0.18l0,0.11l0,0.23l0.03,1.81l0.06,3.62
		c0.05,2.42,0.07,4.83,0.07,7.25c0.03,4.83,0.06,9.67,0.03,14.5c-0.03,4.83-0.12,9.67-0.22,14.5l-0.12,6.69
		c-1.96-0.27-3.93-0.05-5.89-0.18c-1.08-0.07-2.16-0.13-3.24-0.17l-0.2-0.01l-0.11,0l-0.2,0.01c-0.26,0.02-0.53,0.1-0.76,0.23
		c-0.47,0.26-0.82,0.72-0.95,1.25c-0.03,0.13-0.05,0.27-0.05,0.4l0,0.1H6.99c-0.05-1.13-0.1-2.26-0.16-3.39
		c0-0.27-0.14-0.54-0.36-0.69c-0.2-0.17-0.57-0.16-0.61-0.15l-0.64,0.03l-1.29,0.06c-0.86,0.04-1.72,0.06-2.57,0.08l-0.16,0
		c-0.1,0-0.21,0.03-0.3,0.07c-0.18,0.09-0.32,0.28-0.35,0.48c-0.01,0.12,0,0.16-0.01,0.21l0,0.16l0,0.32l0.01,1.29
		c0.01,0.86-0.01,1.72-0.02,2.59c-0.05,3.45-0.36,6.89-0.48,10.34c-0.06,1.72-0.08,3.45-0.05,5.17c0.03,1.72,0.12,3.45,0.24,5.17
		c0.25,3.45,0.53,6.89,0.51,10.34c0,0.14,0.07,0.28,0.18,0.36c0.11,0.09,0.27,0.09,0.37,0.09l0.64,0.01l1.29,0.03
		c0.86,0.04,1.72,0.06,2.57,0.12l0.16,0.01c0.09,0,0.19-0.02,0.28-0.06c0.18-0.08,0.31-0.25,0.35-0.45
		c0.02-0.12,0.01-0.15,0.02-0.21l0.01-0.16l0.02-0.32l0.1-1.29l0.11-1.52c0.02,0,0.03,0,0.05,0h3.04c0,0.13,0,0.35,0.06,0.55
		c0.12,0.5,0.47,0.92,0.92,1.15c0.22,0.12,0.48,0.19,0.73,0.2c0.15,0.01,0.18,0,0.26,0l0.2,0c1.08-0.02,2.16-0.05,3.24-0.11
		c1.93-0.11,3.86,0,5.78-0.29l0.03,1.34l0.04,1.81l0.01,0.48c0.01,0.25,0.08,0.49,0.2,0.71c0.24,0.43,0.68,0.73,1.17,0.8
		c0.14,0.01,0.23,0.02,0.31,0.01v3.22c-1.13,0.05-2.25,0.1-3.38,0.16c-0.27,0-0.53,0.15-0.68,0.36c-0.17,0.2-0.16,0.58-0.15,0.61
		l0.03,0.65l0.06,1.29c0.04,0.86,0.06,1.72,0.08,2.59l0,0.16c0,0.1,0.03,0.21,0.07,0.3c0.09,0.18,0.28,0.32,0.48,0.35
		c0.12,0.01,0.15,0,0.21,0.01l0.16,0l0.32,0c0,0,31.32-0.23,34.75-0.21c0.14,0,0.27-0.07,0.36-0.18c0.09-0.11,0.09-0.28,0.09-0.37
		l0.01-0.65l0.03-1.29c0.04-0.86,0.06-1.72,0.12-2.59l0.01-0.16c0-0.09-0.02-0.19-0.06-0.28c-0.08-0.18-0.25-0.32-0.45-0.35
		c-0.12-0.02-0.15-0.01-0.21-0.02l-0.16-0.01l-0.32-0.02l-1.29-0.1l-1.51-0.11c0-0.02,0-0.03,0-0.05v-3.59
		c0-0.07-0.01-0.14-0.03-0.21c0.03,0,0.06,0,0.1,0c0.33,0,0.66-0.16,0.86-0.42c0.1-0.13,0.17-0.29,0.2-0.45
		c0.03-0.17,0.02-0.32,0.02-0.47l0.01-1.81l0.02-1.36c9.74,0.59,19.48,0.35,29.22,0.43c2.45,0,4.9,0.01,7.35-0.02l3.67-0.05
		l1.84-0.02l0.46-0.01l0.23,0l0.13,0c0.08,0,0.16-0.01,0.24-0.02c0.44-0.07,8.55-0.97,11.58-1.25c1.51-0.15,3.03-0.3,4.54-0.46
		l2.27-0.26c0.77-0.1,1.6-0.19,2.38-0.42c3.14-0.82,6-2.6,8.12-5.03c1.06-1.21,1.95-2.6,2.53-4.12c0.59-1.51,0.85-3.15,0.78-4.75
		c-0.18-3.23-1.68-6.16-3.74-8.47C122.19,86.52,119.54,84.65,116.49,83.68z M6,115.11c-0.01,0.01-0.01,0.01-0.03,0.02l-0.16,0.01
		c-0.86,0.06-1.72,0.08-2.57,0.12l-1.29,0.03l-0.64,0.01c-0.21,0.03-0.34-0.08-0.35-0.24c-0.02-3.45,0.26-6.89,0.51-10.34
		c0.11-1.72,0.21-3.45,0.24-5.17c0.03-1.72,0.01-3.45-0.05-5.17c-0.12-3.45-0.43-6.89-0.48-10.34c0-0.86-0.03-1.72-0.02-2.59
		l0.01-1.29l0-0.32l0-0.16c0-0.05,0-0.13,0-0.11c0-0.01,0.01-0.02,0.02-0.02l0.17,0c0.86,0.02,1.72,0.04,2.57,0.08l1.29,0.06
		l0.57,0.03c-0.18,3.4-0.32,6.8-0.37,10.2c-0.08,3.45-0.13,6.89-0.12,10.34c0.04,3.45,0.1,6.89,0.39,10.34l0.19,2.59l0.1,1.29
		l0.04,0.6C6.02,115.07,6.01,115.09,6,115.11z M10.48,103.84c-0.05,1.97-0.3,3.94-0.44,5.91H6.99c0.23-3.17,0.29-6.34,0.33-9.51
		c0.02-3.45-0.04-6.89-0.12-10.34c-0.03-1.68-0.07-3.36-0.13-5.04h2.7c0,1.98,0.04,3.97,0.11,5.95c0.05,2.17,0.19,4.34,0.38,6.52
		C10.44,99.5,10.54,101.67,10.48,103.84z M21.06,89.13c-0.05,4.83-0.08,9.67-0.04,14.5c0.01,2.42,0.04,4.83,0.08,7.25l0.03,1.26
		c-1.93-0.29-3.85-0.06-5.78-0.17c-1.08-0.06-2.16-0.09-3.24-0.11l-0.2,0c-0.06,0-0.16,0-0.15-0.01c-0.02,0-0.03-0.01-0.05-0.02
		c-0.03-0.01-0.05-0.05-0.07-0.08c-0.01,0.07-0.01-0.35-0.03-0.59l-0.04-0.81c-0.12-2.17-0.43-4.34-0.48-6.52
		c-0.06-2.17,0.03-4.34,0.21-6.52c0.19-2.17,0.33-4.34,0.38-6.52c0.08-2.17,0.13-4.34,0.12-6.52l-0.01-0.81l-0.01-0.41l-0.01-0.19
		l-0.01,0c-0.01,0-0.01-0.01-0.01-0.02c0,0,0-0.01,0.01-0.02c0,0,0,0,0.01-0.01l0.1,0l0.2-0.01c1.08-0.04,2.16-0.1,3.24-0.17
		c1.96-0.14,3.91-0.02,5.87-0.3L21.06,89.13z M23.82,20.91c0.23-1.51,0.45-3.02,0.65-4.54c0.09-0.76,0.2-1.52,0.27-2.28
		c0.09-0.74,0.15-1.45,0.31-2.17c0.57-2.84,1.92-5.67,4.12-7.72c2.15-2.06,5.11-3.32,8.02-3.15c2.91,0.18,5.57,1.61,7.63,3.58
		c2.08,1.99,3.51,4.61,4.24,7.36c0.19,0.69,0.29,1.38,0.41,2.12l0.33,2.27c0.23,1.51,0.48,3.02,0.72,4.53
		c0.41,2.44,0.77,4.49,1.26,6.92c-2.41,0-4.61-0.05-6.96-0.13c-2.55-0.09-5.1,0.07-7.65,0.13l-7.65,0.19l-7,0.23
		C23.02,25.81,23.44,23.36,23.82,20.91z M52.99,122.65l1.29-0.1l0.59-0.04c0.01-0.01,0.03,0,0.05,0.02
		c0.01,0.01,0.01,0.01,0.02,0.03l0.01,0.16c0.06,0.86,0.08,1.72,0.12,2.59l0.03,1.29l0.01,0.65c0.03,0.21-0.08,0.34-0.24,0.35
		c-3.43,0.02-6.86-0.26-10.3-0.51c-1.72-0.11-3.43-0.21-5.15-0.24c-1.72-0.03-3.43-0.01-5.15,0.05c-3.43,0.12-6.87,0.43-10.3,0.48
		c-0.86,0.01-1.72,0.03-2.57,0.02l-1.29-0.01l-0.32,0l-0.16,0c-0.05,0-0.13,0-0.11,0c-0.01,0-0.02-0.01-0.02-0.02l0-0.18
		c0.02-0.86,0.04-1.72,0.08-2.59l0.05-1.29l0.03-0.57c3.38,0.18,6.77,0.32,10.15,0.37c3.43,0.08,6.86,0.13,10.3,0.12
		c3.43-0.04,6.86-0.1,10.3-0.39L52.99,122.65z M24.1,121.49l0.29-3.07l1.9-0.19l3.61-0.09l7.22-0.17c4.16-0.1,8.33-0.13,12.49-0.14
		c-0.01,0.07,0.36,0.7,0.36,0.77l0.81,2.98c-3.16-0.23-7.5-0.34-10.66-0.38c-3.43-0.02-6.87,0.04-10.3,0.12
		C28.15,121.34,25.78,121.43,24.1,121.49z M51.76,116.79c-0.16,0.22-0.43,0.35-0.7,0.35c-0.05,0-9.75,0.43-13.94,0.32l-14.35-0.36
		c-0.11-0.02-0.21-0.11-0.26-0.21c-0.02-0.05-0.03-0.1-0.03-0.16l0.01-0.43l0.04-1.81l0.07-3.62c0.05-2.42,0.07-4.83,0.08-7.25
		c0.04-4.83,0.01-9.67-0.04-14.5l-0.26-14.5c-0.1-4.83,0.04-9.32,0.01-14.16c-0.01-1.45-0.05-2.75-0.05-4.2
		c2.48,0.14,4.77-0.25,7.25-0.13l7.86,0.29c2.62,0.08,12-0.07,14.08-0.39c0,1.41,0,2.82,0,4.23c0.04,9.67,0.1,19.33,0.39,29
		l0.01,24.9l0.01,1.81C51.95,116.3,51.94,116.57,51.76,116.79z M22.26,38.39l0.06-3.62l0.03-1.81l0-0.23l0-0.11
		c0-0.02,0-0.03,0.01-0.05c0.01-0.06,0.04-0.12,0.08-0.16c0.04-0.05,0.09-0.08,0.15-0.1c0.07-0.02,0.07-0.02,0.26-0.02
		c9.6,0.18,19.22,0.32,28.8,0.37l0,0.44l-0.01,1.81l-0.02,3.62l-0.05,7.25c-0.02,3.17-0.03,6.34-0.02,9.51
		c-2.07-0.32-11.46-0.47-14.08-0.39l-7.86,0.29c-2.48,0.12-4.55,0.08-7.03,0.22C22.56,52.1,22.21,40.8,22.26,38.39z M51.72,30.86
		c-9.65,0.05-19.26,0.19-28.89,0.37c-0.11,0-0.42,0-0.63,0.1c-0.06,0.02-0.11,0.06-0.16,0.09c0.05-0.51,0.11-1.02,0.15-1.53l0,0.04
		c0.11-0.5,0.1-0.55,0.21-1.05l7.13-0.23l7.65,0.19c2.55,0.06,5.1,0.22,7.65,0.13c2.37-0.08,4.74-0.21,7.1-0.51
		c0.1,0.49,0.19,0.98,0.29,1.47l0-0.04c0.03,0.36,0.06,0.73,0.09,1.09C52.12,30.91,51.92,30.86,51.72,30.86z M71.62,105.45
		c0.1,2.13,0.27,4.26,0.6,6.39c-6.52,0.14-13.02-0.1-19.54,0.3l0-1.11c0.04-2.42,0.05-4.83,0.12-7.25l0.36-14.5
		c0.07-2.42,0.13-4.83,0.18-7.25c4.67,0.31,9.34,0.5,14.02,0.6c1.69,0.04,3.38,0.06,5.07,0.08c-0.12,2.32-0.22,4.63-0.33,6.95
		l-0.29,7.89C71.72,100.19,71.48,102.82,71.62,105.45z M96.05,90.01c-0.03,2.46-0.13,4.92-0.2,7.38c-0.08,2.46-0.19,4.92-0.23,7.38
		l-0.08,3.69l-0.05,3.35l-0.74-0.01l-1.84-0.02l-3.67-0.05c-2.45-0.04-4.9-0.02-7.35-0.02c-2.99,0.02-5.98,0.07-8.97,0.13
		c0.33-2.13,0.49-4.25,0.6-6.38c0.14-2.63-0.11-5.26-0.19-7.89l-0.28-7.89c-0.11-2.32-0.21-4.63-0.33-6.95
		c3.11,0.04,6.23,0.04,9.34-0.03l7.35-0.26l3.67-0.14l1.84-0.05c0.29,0,0.67-0.04,0.8,0.01c0.18,0.05,0.33,0.22,0.35,0.42
		c0.01,0.02,0,0.05,0.01,0.07l0,0.12l0,0.23l0,0.46l0.01,0.92l0,1.84C96.08,87.55,96.08,88.78,96.05,90.01z M99.15,104.97
		c0.08,2.38,0.21,4.76,0.51,7.13c-0.49,0.1-0.97,0.19-1.46,0.29l0.04,0c-0.36,0.03-0.72,0.06-1.08,0.09
		c0.01-0.02,0.02-0.04,0.03-0.06c0.05-0.15,0.08-0.31,0.09-0.47l0-0.16l0-0.12l-0.01-0.46l-0.01-0.92l-0.03-1.84l-0.08-3.69
		c-0.04-2.46-0.16-4.92-0.23-7.38c-0.06-2.46-0.17-4.92-0.2-7.38c-0.03-1.23-0.02-2.46-0.03-3.69l0.01-3.73
		c-0.02-0.19-0.1-0.37-0.21-0.52c0.59,0.06,1.18,0.12,1.77,0.17l-0.04,0c0.5,0.11,1,0.21,1.51,0.31l-0.23,7.06l-0.19,7.69
		C99.22,99.85,99.05,102.41,99.15,104.97z M123.38,104.97c-1.98,2.09-4.59,3.53-7.33,4.26c-0.69,0.19-1.38,0.29-2.11,0.41
		l-2.26,0.34c-1.51,0.23-3.01,0.48-4.51,0.73c-2.43,0.42-4.85,0.87-7.27,1.36c0.29-2.36,0.42-4.72,0.5-7.08
		c0.09-2.56-0.07-5.12-0.13-7.69l-0.19-7.69l-0.23-7.03c2.43,0.49,4.87,0.92,7.32,1.3c1.51,0.23,3.01,0.46,4.52,0.65
		c0.76,0.09,1.51,0.2,2.27,0.27c0.74,0.09,1.45,0.15,2.16,0.31c2.82,0.58,5.65,1.93,7.68,4.13c2.05,2.16,3.31,5.13,3.14,8.06
		C126.77,100.23,125.35,102.9,123.38,104.97z"/>
</g>
</svg>
