<?xml version="1.0" encoding="utf-8"?>
<!-- Generator: Adobe Illustrator 24.1.2, SVG Export Plug-In . SVG Version: 6.00 Build 0)  -->
<svg version="1.1" id="Layer_1" xmlns="http://www.w3.org/2000/svg" xmlns:xlink="http://www.w3.org/1999/xlink" x="0px" y="0px"
	 viewBox="0 0 128 128" style="enable-background:new 0 0 128 128;" xml:space="preserve">
<style type="text/css">
	.st0{fill:#2D2D2D;}
</style>
<g>
	<path class="st0" d="M128,91.8l0-0.6l0-1.2c-0.1-1.7-0.2-3.4-0.2-5c-0.1-1.7-0.2-3.4-0.2-5c0-0.8,0-1.7-0.1-2.5
		c-0.1-0.9-0.3-1.7-0.7-2.5c-0.4-0.8-1-1.5-1.7-2c-0.4-0.3-0.7-0.5-1.1-0.7l-1.2-0.5c-1.5-0.7-3-1.4-4.6-2.1
		c-1.5-0.7-3.1-1.3-4.7-1.9c-1.6-0.6-3.1-1.2-4.8-1.7c-1.7-0.4-3.4-0.7-5.1-0.6c-1.3,0-4.7-0.9-4.7-0.9c-2.6,0-5.2,0-7.8,0l-3.9,0.1
		l-3.9,0.1c-0.6,0-1.1-0.1-1.8-0.2L79.5,64l-3.9-0.7c-0.7-0.1-1.3-0.2-2-0.3c-0.7-0.1-1.4,0-2,0c-0.9,0-1.9,0.1-2.8,0.2v-0.3l0-5.6
		l0-1.4c0-0.5,0-1-0.1-1.5l-0.6-2.8L67,45.9c-0.1-0.4-0.1-0.8-0.1-1.2l0-1.4l0-2.8l0-11.3v-1c0,0-1.1-7.1-1.5-8.8
		c-0.4-1.7-1.1-3.2-1.6-4.8c-0.6-1.6-1.2-3.1-1.7-4.7c-0.6-1.6-1.2-3.1-1.8-4.7c-0.2-0.4-0.3-0.8-0.5-1.2C59.6,3.5,59.3,3,59,2.7
		c-0.6-0.8-1.3-1.5-2.2-1.9C56,0.3,55,0,54,0l-0.4,0l-0.3,0l-0.6,0l-1.2,0c-1.7,0.1-3.4,0.2-5,0.2c-1.7,0.1-3.4,0.2-5,0.2
		c-0.8,0-1.7,0-2.5,0c-0.9,0.1-1.7,0.3-2.5,0.7c-0.8,0.4-1.5,1-2,1.7c-0.3,0.3-0.5,0.7-0.7,1.2l-0.5,1.2c-0.7,1.5-1.4,3.1-2.1,4.6
		c-0.6,1.6-1.3,3.1-1.9,4.7c-0.6,1.6-1.2,3.1-1.7,4.8c-0.4,1.7-0.6,3.4-0.6,5.1c0.1,1.4-0.4,4.7-0.4,4.7l0.3,13.4l0,1.7
		c0,0.6-1.7,8.1-1.7,8.1s-0.5,2.9-0.5,3.4c0,2.3,0.2,4.2,0.2,6.5c-1.2,0-2.3,0.1-3.5,0c-0.6-0.1-1.2-0.1-1.9-0.2L18.5,62L18,62h-0.2
		c-0.1,0-0.2,0-0.2,0c-0.2,0-0.3,0.1-0.4,0.2c-0.3,0.1-0.5,0.4-0.6,0.7c0,0.1-0.1,0.2-0.1,0.3c-0.6,0.3-1.1,0.5-1.7,0.8
		c-0.8,0.4-1.5,0.7-2.3,1.1c-0.4,0-0.9-0.1-1.4-0.1c-0.5-0.1-1,0-1.5,0c-0.5,0.1-1,0.1-1.5,0.3c-0.2,0.1-0.5,0.1-0.7,0.2
		c0-1.1-0.1-2.2-0.1-3.3l0-0.5l-0.5,0c-2,0.1-4,0.2-5.9,0.2l-0.3,0v0.3c0.1,3.8,0.1,7.6-0.1,11.5l-0.2,5.8C0,81.3,0,83.3,0,85.2
		c0,3.9,0.1,7.7,0.2,11.5c0.1,3.8,0.3,7.5,0.5,11.1l2.9,0.2c1,0.1,2,0.1,3.1,0.2l0.4,0l0-0.5l0.1-3.4c0.3,0.1,0.6,0.2,0.8,0.3
		c0.5,0.1,1,0.2,1.5,0.3c0.5,0.1,1,0.1,1.5,0c0.4,0,0.9-0.1,1.3-0.1c0.8,0.4,1.5,0.8,2.3,1.1c0.6,0.3,1.1,0.5,1.7,0.8
		c0,0.1,0.1,0.3,0.1,0.4c0.1,0.3,0.4,0.5,0.6,0.7c0.1,0.1,0.3,0.1,0.4,0.2c0.1,0,0.3,0,0.4,0l0.5,0l0.9-0.1c0.6-0.1,1.2-0.1,1.9-0.2
		c0.7-0.1,1.5-0.2,2.2-0.2l0,2.1v0.7c0,0.5,0.3,1,0.7,1.3c0.2,0.1,0.4,0.2,0.6,0.3c0.2,0.5,0.5,1.1,0.7,1.6c0.4,0.8,0.7,1.5,1.1,2.3
		c0,0.4-0.1,0.9-0.1,1.3c0,0.5,0,1,0,1.5c0.1,0.5,0.1,1,0.3,1.5c0.1,0.3,0.2,0.5,0.3,0.8c-1.1,0-2.2,0.1-3.4,0.1l-0.5,0l0,0.5
		c0.1,2,0.2,4,0.2,5.9l0,0.3h0.3c3.8-0.1,7.6-0.1,11.5,0.1l5.8,0.2c1.9,0.1,3.9,0.1,5.8,0.1c3.9,0,7.7-0.1,11.5-0.2
		c3.8-0.1,7.5-0.3,11.1-0.5l0.2-2.9c0.1-1,0.1-2,0.2-3.1l0-0.4l-0.5,0l-3.4-0.1c0.1-0.3,0.5-4.7,0.4-5.2c0.4-0.8,0.8-1.5,1.1-2.3
		c0.3-0.8,1.5-2.8,1.5-3.1v-0.7l0-1.4l0-1.5c1.2,0.1,2.3,0.1,3.5,0.2c0.7,0,1.3,0,2-0.1l1.9-0.3l3.7-0.7c0.6-0.1,1.3-0.2,1.9-0.4
		c0.6-0.1,1.1-0.1,1.7-0.1c2.5,0,5.1,0.1,7.6,0.1c2.5,0,5.1-0.2,7.6-0.3c0,0,3.8-0.5,4.7-0.5c1.7,0,3.5-0.2,5.1-0.6
		c1.7-0.4,3.2-1.1,4.8-1.6c1.6-0.6,3.1-1.2,4.7-1.7c1.6-0.6,3.1-1.2,4.7-1.8c0.4-0.2,0.8-0.3,1.2-0.5c0.4-0.2,0.9-0.5,1.3-0.7
		c0.8-0.6,1.4-1.3,1.9-2.2c0.5-0.9,0.7-1.8,0.8-2.8l0-0.4L128,91.8z M3.9,107.4l-3,0.2c0.2-4,0.4-7.9,0.5-11.7
		c0.1-3.8,0.2-7.6,0.2-11.3c0-1.9,0-3.7-0.1-5.6l-0.2-5.6c-0.2-3.6-0.2-7.3-0.1-11c1.7,0,3.4,0.1,5.1,0.2C6,66.2,5.9,69.9,5.8,73.5
		c-0.1,3.8-0.2,7.6-0.2,11.4c0,1.9,0,3.8,0,5.7c0,1.9,0.1,3.8,0.1,5.7c0,1.9,0.1,3.8,0.2,5.7l0.2,5.3C5.5,107.3,4.7,107.3,3.9,107.4
		z M11.4,94.3c0.1,2.9,0.3,5.8,0.8,8.7c-0.3,0-0.7-0.1-1.1-0.1c-0.5-0.1-1,0-1.5,0s-1,0.2-1.5,0.3c-0.3,0.1-0.5,0.1-0.8,0.2l0.1-1.5
		c0.1-1.9,0.1-3.8,0.2-5.7c0-1.9,0.1-3.8,0.1-5.7c0-1.9,0-3.8,0-5.7c0-3.8-0.1-7.6-0.1-11.4c0-2.4-0.1-4.8-0.2-7.2
		c0.2,0.1,0.5,0.2,0.7,0.2c0.5,0.1,1,0.2,1.5,0.3c0.5,0.1,1,0.1,1.5,0c0.4,0,0.8-0.1,1.1-0.1c-0.1,3-0.2,6-0.4,9L11.6,85
		C11.5,88.1,11.3,91.2,11.4,94.3z M16.7,84.9c-0.2,2.5-0.3,4.9-0.4,7.4c-0.1,2.5-0.1,4.9-0.1,7.4c0,1.2,0,2.5,0.1,3.7l0.1,1.8l0,0.6
		c-0.4-0.3-0.7-0.6-1.1-0.9c-0.7-0.6-1.5-1.2-2.3-1.8c0,0,0.2-6,0.3-8.9c0.1-3.1-0.1-6.2-0.2-9.3l-0.3-9.3c-0.1-3,0.1-9,0.1-9
		l0.1-0.1c0.8-0.6,1.5-1.2,2.3-1.8c0.4-0.3,0.7-0.6,1.1-0.9l0,0.7l0,1.9c0,1.2,0,2.5,0,3.7c0.1,2.5,0.4,4.9,0.5,7.4
		C16.9,79.9,16.8,82.4,16.7,84.9z M17.9,106.3L17.9,106.3C17.9,106.3,17.9,106.3,17.9,106.3C18,106.3,18,106.3,17.9,106.3
		C17.9,106.3,17.9,106.3,17.9,106.3z M23.5,100.9c0,1.9-0.1,3.6-0.1,5.4v0.1c-0.7-0.1-1.5,0.1-2.2,0c-0.6,0-1.2-0.1-1.9-0.1
		l-0.9-0.1l-0.5,0c0,0,0,0,0,0v-0.1l0-0.1l0.1-0.9l0.1-1.8c0.1-1.2,0.1-2.5,0.1-3.7c0-2.5,0-4.9-0.1-7.4c-0.1-2.5-0.2-4.9-0.4-7.4
		c-0.2-2.5-0.3-4.9-0.2-7.4c0-2.5,0.4-4.9,0.5-7.4c0.1-1.2,0.1-2.5,0-3.7l0-1.9l0-0.9v-0.1c0,0,0-0.1,0-0.1s0,0,0,0c0,0,0,0,0,0v0
		c0,0,0,0,0,0h0h0l0.5,0l0.9-0.1c0.6,0,1.2-0.1,1.8-0.1c1.2-0.1,2.3-0.2,3.5-0.3C24.4,75.6,23.8,88.2,23.5,100.9z M27.9,24.5
		c0.2-1.6,0.5-3.2,1-4.8c0.2-0.8,0.6-1.5,0.9-2.3l0.9-2.3c0.6-1.6,1.2-3.1,1.8-4.7c0.5-1.6,1.1-3.2,1.6-4.8c0.1-0.4,0.3-0.8,0.4-1.2
		c0.1-0.4,0.3-0.7,0.5-1c0.4-0.7,1-1.2,1.7-1.6c0.7-0.4,1.5-0.6,2.3-0.7c0.8,0,1.7,0,2.5,0c1.7,0,3.4,0.1,5,0.2
		c1.7,0.1,3.4,0.2,5,0.2l1.2,0.1l0.6,0l0.3,0l0.3,0c0.7,0.1,1.4,0.3,2,0.6c0.6,0.4,1.1,0.9,1.5,1.4C57.7,4,57.8,4.3,58,4.7l0.4,1.1
		c0.6,1.6,1.2,3.1,1.8,4.7c0.6,1.6,1.2,3.1,1.9,4.7l1,2.3c0.3,0.8,0.6,1.5,0.9,2.3c0.5,1.5,0.9,3.1,1,4.8c0.1,1.2,0.2,2.4,0.3,3.7
		l-9.1,0l-9.7,0.1c-6.3,0.1-12.6,0.2-18.9,0.4C27.7,27.3,27.8,25.9,27.9,24.5z M27.2,42.6l0.3-12.8c6.3,0.2,12.6,0.3,18.9,0.4
		l9.7,0.1l8.7,0l0,10.3l0,2.8l0,0.9c0,0.1,0,0.2,0,0.3c-3.1-0.5-6.2-0.2-9.3-0.3c-3.2-0.1-6.4,0.1-9.5,0.2l-9.5,0.3
		c-3.2,0.1-9.4-0.2-9.4-0.4L27.2,42.6z M25.6,52.5l0.7-3.3L27,46c0-0.2,6.4-0.4,9.6-0.3l9.5,0.3c3.2,0.1,6.4,0.3,9.5,0.2
		c3.1-0.1,9.4-0.2,9.5,0.2l1.2,5.6l0.3,1.4c-3.5,0-6.7,0.1-10.2,0c-3.5-0.1-7,0.1-10.5,0.2l-10.5,0.3c-3.4,0.1-6.8,0.2-10.2,0.4
		L25.6,52.5z M68.8,121.8c0.1,0.8,0.1,1.6,0.2,2.4l0.2,3c-4-0.2-7.9-0.4-11.7-0.5c-3.8-0.1-7.6-0.2-11.3-0.2c-1.9,0-3.7,0-5.6,0.1
		l-5.6,0.2c-3.6,0.2-7.3,0.2-11,0.1c0-1.7,0.1-3.4,0.2-5.1c3.6,0.2,7.3,0.3,10.9,0.3c3.8,0,7.6,0.1,11.4,0.1c1.9,0,3.8,0,5.7,0
		c1.9,0,3.8-0.1,5.7-0.1c1.9,0,3.8-0.1,5.7-0.2L68.8,121.8z M28.4,116.9c0-0.4-0.1-0.7-0.1-1.1c3,0.1,6,0.2,9,0.4l9.3,0.3
		c3.1,0.1,6.2,0.3,9.3,0.2c2.9-0.1,5.8-0.3,8.7-0.8c0,0.4-0.1,0.7-0.1,1.1c0,0.5,0,1,0,1.5c0.1,0.5,0.1,1,0.3,1.5
		c0.1,0.3,0.1,0.5,0.2,0.7l-1.5-0.1c-1.9-0.1-3.8-0.1-5.7-0.2c-1.9,0-3.8-0.1-5.7-0.1c-1.9,0-3.8-0.1-5.7,0c-3.8,0-7.6,0.1-11.4,0.2
		c-2.4,0-4.8,0.1-7.2,0.2c0.1-0.3,0.2-0.5,0.2-0.8c0.1-0.5,0.2-1,0.3-1.5C28.4,117.9,28.4,117.4,28.4,116.9z M66.5,112.7
		c-0.6,0.7-1.2,1.5-1.8,2.3c0,0-6-0.2-8.9-0.3c-3.1-0.1-6.2,0.1-9.3,0.2l-9.3,0.3c-3,0.1-9.1-0.2-9.1-0.2c-0.6-0.8-1.2-1.5-1.8-2.3
		c-0.3-0.3-0.6-0.7-0.9-1.1H26c3.8,0,7.5-0.1,11.3-0.2c7.5-0.1,15.1-0.3,22.6-0.4l5.6,0h2.1l0.3,0C67.4,111.6,67,112.2,66.5,112.7z
		 M68.1,110.5c-0.1,0-0.1,0.1-0.2,0.1h-2.4l-5.6,0c-7.5-0.1-15-0.3-22.6-0.4c-3.8-0.1-7.5-0.1-11.3-0.2h-0.9l0-0.6l0-2.8
		c0-1.9,0-3.8,0-5.6c0.1-12.7,0.4-44.4,0.5-44.9c3.3-0.8,41.4-0.7,41.4-0.2l0,1.4l0.1,5.6l0.3,11.3l0.6,22.6l0.2,11.3l0,1.4l0,0.7
		C68.3,110.2,68.2,110.4,68.1,110.5z M72.9,95.6c0.1,3.4,0.3,6.8,0.8,10.2c-0.4,0.1-0.9,0.2-1.3,0.2c-1.1,0.1-2.3,0.2-3.5,0.3
		l-0.1-9.6l0.1-22.6l0-10.6c0.9,0.1,1.9,0.2,2.8,0.2c0.7,0,1.3,0.1,1.9,0.2c0.1,0,0.1,0,0.2,0l-0.4,10.1l-0.3,10.7
		C73,88.5,72.7,92,72.9,95.6z M81.9,94.9c0.1,2.9,0.3,5.8,0.7,8.7c-0.4,0.1-0.7,0.1-1,0.2c-0.6,0.2-1.2,0.3-1.9,0.5l-3.7,0.9
		l-1.8,0.5c0,0-0.1,0-0.1,0c0.5-3.4,0.6-6.7,0.8-10.1c0.1-3.6-0.1-7.2-0.2-10.7l-0.3-10.7L73.9,64c0.5,0.1,1,0.3,1.5,0.4l3.8,1
		l1.9,0.5c0.5,0.1,1.1,0.3,1.6,0.3c-0.1,3-0.2,6.1-0.3,9.1l-0.3,9.8C82,88.4,81.7,91.7,81.9,94.9z M98.3,103.7
		c-2.4-0.1-4.7-0.2-7.1-0.2c-2.5,0-5.1,0-7.6,0c-0.2,0-0.3,0-0.5,0c0.4-2.9,0.6-5.7,0.7-8.6c0.1-3.3-0.1-6.5-0.2-9.8l-0.3-9.8
		c-0.1-3-0.2-6.1-0.4-9.1c0.1,0,0.1,0,0.2,0c2.7,0.1,5.2,0.1,7.8,0.2c2.3,0,4.6,0,6.8,0l0.1,8.7l0.1,4.9l0.2,4.9
		c0.1,3.2,0.2,6.5,0.2,9.7C98.5,97.7,98.4,100.7,98.3,103.7z M126.8,79.8c0,1.7-0.1,3.4-0.2,5c-0.1,1.7-0.2,3.4-0.2,5l0,1.2l0,0.6
		v0.3l0,0.3c-0.1,0.7-0.3,1.4-0.7,2c-0.3,0.6-0.8,1.1-1.4,1.5c-0.3,0.2-0.6,0.4-0.9,0.5l-1.2,0.4c-1.6,0.6-3.1,1.2-4.7,1.8
		c-1.6,0.6-3.1,1.2-4.7,1.9l-2.3,1c-0.8,0.3-1.5,0.7-2.3,0.9c-1.5,0.5-3.1,0.9-4.8,1.1c-1.3,0.1-2.7,0.2-4.1,0.3
		c-0.1-3.1-0.3-6.1-0.3-9.2c0-3.2,0.1-6.5,0.2-9.7l0.2-4.9l0.1-4.9l0.1-9.1c1.2,0.1,2.5,0.2,3.7,0.3c1.6,0.2,3.2,0.5,4.8,1
		c0.8,0.2,1.5,0.6,2.3,0.9l2.3,0.9c1.5,0.6,3.1,1.2,4.7,1.8c1.6,0.5,3.2,1.1,4.8,1.6c0.4,0.1,0.8,0.2,1.2,0.4
		c0.4,0.1,0.7,0.3,1.1,0.5c0.7,0.4,1.2,1,1.6,1.7c0.4,0.7,0.6,1.5,0.7,2.3C126.9,78.2,126.9,79,126.8,79.8z"/>
	<rect x="94.2" y="15.1" class="st0" width="3.6" height="3.5"/>
	<path class="st0" d="M106.7,19c1.9,0,3.5-0.6,4.7-1.7c1.2-1.1,1.8-2.5,1.8-4.3c0-1.1-0.3-2-0.9-2.8c-0.6-0.8-1.4-1.3-2.4-1.5
		c0.8-0.3,1.4-0.7,1.9-1.4c0.5-0.7,0.7-1.5,0.7-2.3c0-1.5-0.5-2.7-1.6-3.6c-1-0.9-2.4-1.4-4.1-1.4c-1.8,0-3.2,0.5-4.3,1.6
		c-1.1,1.1-1.6,2.6-1.7,4.5h2.9c0.1-2.4,1.1-3.6,3.1-3.6c0.9,0,1.5,0.2,2,0.7c0.5,0.5,0.8,1.1,0.8,1.9c0,0.6-0.1,1-0.3,1.4
		c-0.2,0.4-0.5,0.6-0.9,0.8c-0.4,0.2-0.8,0.3-1.2,0.3c-0.4,0.1-0.8,0.1-1.4,0.1h-0.3v2.3c0.3,0,0.6,0,0.9,0c1.1,0,2,0.2,2.7,0.7
		c0.7,0.5,1,1.3,1,2.3c0,1-0.3,1.8-0.9,2.4c-0.6,0.6-1.4,0.9-2.4,0.9c-2.3,0-3.5-1.3-3.6-3.9h-2.9V13c0,1.8,0.6,3.3,1.8,4.4
		C103.3,18.5,104.8,19,106.7,19z"/>
	<path class="st0" d="M116,10.4c-0.6,0.8-0.9,1.8-0.9,2.9c0,1.7,0.6,3,1.8,4.1c1.2,1,2.7,1.5,4.7,1.5c1.9,0,3.5-0.5,4.7-1.6
		c1.2-1.1,1.8-2.5,1.8-4.2c0-1.2-0.3-2.1-0.8-2.8c-0.6-0.7-1.4-1.2-2.5-1.6c1.7-0.7,2.6-2,2.6-3.9c0-1.4-0.5-2.5-1.6-3.5
		c-1-0.9-2.4-1.4-4-1.4c-1.7,0-3.1,0.5-4.2,1.4c-1.1,0.9-1.6,2.1-1.6,3.5c0,0.9,0.2,1.7,0.7,2.4c0.5,0.7,1.1,1.2,1.9,1.5
		C117.4,9,116.5,9.6,116,10.4z M119.4,3.1c0.5-0.5,1.3-0.7,2.2-0.7c0.9,0,1.6,0.2,2.1,0.7c0.5,0.5,0.8,1.1,0.8,1.9
		c0,0.8-0.3,1.5-0.8,2c-0.5,0.5-1.2,0.7-2.1,0.7c-0.9,0-1.6-0.2-2.1-0.7c-0.5-0.5-0.8-1.1-0.8-1.9S118.9,3.6,119.4,3.1z M119,10.8
		c0.6-0.6,1.5-0.9,2.5-0.9c1,0,1.9,0.3,2.5,0.9c0.6,0.6,0.9,1.4,0.9,2.4c0,1-0.3,1.9-0.9,2.5c-0.6,0.6-1.4,0.9-2.5,0.9
		c-1.1,0-1.9-0.3-2.6-0.9c-0.6-0.6-0.9-1.4-0.9-2.5C118.1,12.2,118.4,11.4,119,10.8z"/>
</g>
</svg>
