<?xml version="1.0" encoding="utf-8"?>
<!-- Generator: Adobe Illustrator 24.1.2, SVG Export Plug-In . SVG Version: 6.00 Build 0)  -->
<svg version="1.1" id="Layer_1" xmlns="http://www.w3.org/2000/svg" xmlns:xlink="http://www.w3.org/1999/xlink" x="0px" y="0px"
	 viewBox="0 0 128 128" style="enable-background:new 0 0 128 128;" xml:space="preserve">
<style type="text/css">
	.st0{fill:#EDBF7E;}
	.st1{fill:#2D2D2D;}
</style>
<g>
	<path class="st0" d="M71.29,69.54c-0.04-0.02-0.09-0.05-0.14-0.07c0.03,0.05,0.07,0.1,0.1,0.12
		C71.36,69.66,71.36,69.58,71.29,69.54z"/>
	<path class="st0" d="M71.1,69.27c0.01-0.04,0.01-0.07,0-0.06c0-0.01-0.01,0-0.02,0.01c-0.01,0.02-0.01,0.07,0,0.13L71.1,69.27z"/>
	<path class="st0" d="M67.31,53.94c0.01-0.02-0.04-0.01-0.1,0.01c0,0,0.01,0,0.01,0.01C67.26,53.97,67.31,53.96,67.31,53.94z"/>
	<path class="st0" d="M73.8,61.14c0-0.02,0-0.04,0-0.03c0-0.02,0-0.04,0-0.04C73.79,61.05,73.78,61.08,73.8,61.14
		C73.8,61.13,73.8,61.14,73.8,61.14z"/>
	<path class="st0" d="M73.89,61.25c0.05,0.01,0.01-0.05-0.08-0.1C73.83,61.19,73.87,61.24,73.89,61.25z"/>
	<path class="st0" d="M35.08,105.57C35.09,105.57,35.12,105.58,35.08,105.57C35.08,105.57,35.08,105.57,35.08,105.57z"/>
	<path class="st0" d="M46.12,100.68l0.02,0l0.04,0l0.07,0.01l-0.09-0.01C46.15,100.68,46.12,100.68,46.12,100.68z"/>
	<path class="st0" d="M84.41,82.15c0.01-0.05-0.01,0.01-0.01,0.01c-0.01,0.02-0.01,0.06-0.01,0.08c0,0,0,0.01,0,0.01L84.41,82.15z"
		/>
	<path class="st0" d="M49.04,71.55c0.02-0.02-0.04-0.02-0.12,0.02c0,0,0,0,0,0C48.97,71.58,49.03,71.57,49.04,71.55z"/>
	<path class="st0" d="M59.02,60.59c0.02-0.02-0.04-0.02-0.12,0.02c0,0,0,0,0,0C58.95,60.61,59.01,60.6,59.02,60.59z"/>
	<path class="st0" d="M58.86,60.59c-0.02,0-0.01,0.01,0.03,0.02c0,0,0,0,0,0C58.89,60.6,58.87,60.59,58.86,60.59z"/>
	<path class="st0" d="M48.88,71.55c-0.02,0-0.01,0.01,0.03,0.02c0,0,0,0,0,0C48.91,71.56,48.89,71.55,48.88,71.55z"/>
	<path class="st0" d="M67.2,53.95C67.18,53.95,67.18,53.95,67.2,53.95c0.01,0.01,0.01,0.01,0.01,0.01
		C67.21,53.96,67.21,53.95,67.2,53.95z"/>
	<path class="st1" d="M92.84,65.08c0.49-0.05,0.54-3.33,0.1-7.31s-0.67-0.7-1.67-7.12c-0.55-3.53-0.85,3.28-0.42,7.27
		C91.29,61.9,92.35,65.13,92.84,65.08z"/>
	<path class="st1" d="M41.77,60.09c-0.48-0.99-1.2,0.35-2.55-0.98c-0.74-0.73-1.89,1.89-1.41,2.88c0.48,0.99,2.21,1.17,3.14,0.72
		C41.89,62.26,42.25,61.08,41.77,60.09z"/>
	<path class="st1" d="M66.03,66.7c-0.54-0.53-0.43,1.54-1.02,2.08c-0.84,0.78,1.6,0.84,2.27,0.52c0.67-0.33,0.93-1.17,0.59-1.89
		C67.52,66.7,67.01,67.66,66.03,66.7z"/>
	<path class="st1" d="M38.42,68.63c-0.56-0.75-0.81,1.3-0.36,2.23c0.45,0.93,1.51,1.37,1.98,1.14c0.48-0.23,0.5-1.17,0.05-2.1
		C39.65,68.96,39.45,69.99,38.42,68.63z"/>
	<path class="st1" d="M58.96,56.95c1.08-0.52,1.5-1.88,0.95-3.04c-0.56-1.15-1.39,0.4-2.96-1.14c-0.86-0.85-2.19,2.19-1.64,3.34
		C55.87,57.27,57.88,57.47,58.96,56.95z"/>
	<path class="st1" d="M92.45,70.17c0.36,0.75,1.67,0.88,2.38,0.54c0.7-0.34,0.98-1.23,0.62-1.98c-0.36-0.75-2.01,2.38-1.93-0.74
		C93.54,67.2,92.09,69.42,92.45,70.17z"/>
	<path class="st1" d="M49.81,60.86c1.19-0.06,2.11-1.72,2.05-2.84c-0.05-1.12-1.06-1.99-2.25-1.93c-1.19,0.06,2,4.01-2.06,2.14
		C46.52,57.75,48.62,60.92,49.81,60.86z"/>
	<path class="st1" d="M43.5,64.36c-0.79,0.04-0.04,1.25-1.36,1.41c-0.74,0.09,0.91,1.21,1.5,1.74c0.39,0.36,1.39-1.14,1.36-1.88
		C44.96,64.89,44.29,64.32,43.5,64.36z"/>
	<path class="st1" d="M60.26,66.99c0.71-0.88-2.87,0.37-3.11,1.55c-0.24,1.17,1.14,2.47,2.24,2.7c1.1,0.23,2.18-0.54,2.42-1.71
		C62.05,68.35,57.45,70.48,60.26,66.99z"/>
	<path class="st1" d="M49.15,61.73c-0.63-0.94-1.45,2.51-0.67,3.42c0.78,0.91,2.65,0.6,3.5-0.14c0.85-0.74,0.9-2.07,0.12-2.97
		C51.32,61.13,50.72,64.09,49.15,61.73z"/>
	<path class="st1" d="M28.9,62.29c-1.68,1.37-5.68,3.27-5.28,4.21c0.39,0.94,4.86-0.83,6.71-0.82c2.42,0.02,4.13-2.64,3.73-3.57
		C33.66,61.17,31.89,59.85,28.9,62.29z"/>
	<path class="st1" d="M88.52,73.57c0.58-0.13,0.87-1.03,0.75-1.57c-0.13-0.54-0.69-0.87-1.27-0.74c-0.58,0.13,0.04,0.67-0.81,1.22
		C86.72,72.8,87.95,73.71,88.52,73.57z"/>
	<path class="st1" d="M74.99,52.93c-0.98,0.23,0.07,1.15-1.39,2.09c-0.8,0.52,1.3,2.08,2.29,1.85s1.49-1.75,1.28-2.68
		C76.94,53.27,75.97,52.7,74.99,52.93z"/>
	<path class="st1" d="M67.65,60.17c-0.33-0.9-2.31,0.81-2.31,1.82s1.37,1.85,2.32,1.85c0.95,0,1.71-0.83,1.71-1.84
		C69.37,60.99,68.24,61.81,67.65,60.17z"/>
	<path class="st1" d="M87.8,65.76c0.52,0.2,0.75,1.2,1.32,1.07s0.86-1.02,0.74-1.55c-0.12-0.54-0.69-0.86-1.26-0.73
		C88.04,64.68,86.89,65.42,87.8,65.76z"/>
	<path class="st1" d="M84.34,64.27c0.03,0.02,0.07,0.01,0.1-0.02l0,0c0.61-0.89,1.26-1.63,1.77-2.6c0.25-0.48,0.43-1.01,0.55-1.57
		c0.13-0.56,0.14-1.18-0.04-1.76c-0.18-0.59-0.45-1.01-0.49-1.54c-0.06-0.51,0.08-1.05,0.11-1.56c0.03-0.51-0.05-1.02-0.13-1.53
		c-0.1-0.51-0.21-1.03-0.44-1.55c-0.01-0.01-0.02-0.03-0.03-0.04c-0.03-0.02-0.08,0-0.1,0.03c-0.26,0.52-0.37,1.05-0.44,1.59
		c-0.05,0.53-0.07,1.07,0.06,1.6c0.14,0.53,0.41,1.03,0.55,1.54c0.13,0.51,0.28,1.07,0.2,1.52c-0.09,0.47-0.26,0.89-0.42,1.34
		c-0.18,0.44-0.43,0.87-0.62,1.34c-0.19,0.47-0.38,0.96-0.52,1.49c-0.13,0.53-0.25,1.1-0.13,1.68
		C84.31,64.24,84.32,64.26,84.34,64.27z"/>
	<path class="st1" d="M80.53,64.33c-0.06-0.37-0.1-0.74-0.09-1.12c0-0.75,0.2-1.5,0.3-2.24c0.09-0.74,0.07-1.49,0.05-2.24
		c-0.04-0.75-0.09-1.51-0.26-2.28c0-0.02-0.02-0.04-0.04-0.05c-0.03-0.01-0.07,0-0.09,0.04c-0.32,0.73-0.48,1.48-0.61,2.23
		c-0.11,0.76-0.19,1.52-0.12,2.28c0.07,0.77,0.28,1.52,0.36,2.28c0.04,0.38,0.06,0.76,0.07,1.14c0.02,0.39,0.01,0.77-0.03,1.12
		c-0.1,0.72-0.29,1.39-0.5,2.07c-0.22,0.68-0.52,1.33-0.79,2.02c-0.26,0.69-0.53,1.39-0.74,2.14c-0.21,0.74-0.39,1.53-0.33,2.33
		c0,0.02,0.02,0.04,0.04,0.05c0.03,0.02,0.07,0,0.09-0.03c0.73-1.35,1.56-2.53,2.21-3.95c0.32-0.7,0.55-1.47,0.7-2.25
		c0.16-0.78,0.18-1.61,0.02-2.41C80.69,65.06,80.59,64.69,80.53,64.33z"/>
	<path class="st1" d="M1,102.36c0.43,2.24,1.01,4.47,1.82,6.62c0.8,2.16,1.83,4.25,3.16,6.17c0.66,0.96,1.37,1.89,2.15,2.76
		c0.79,0.86,1.64,1.67,2.54,2.42c1.79,1.51,3.81,2.75,5.94,3.73c2.15,0.93,4.39,1.64,6.69,2.02c4.48,0.76,8.96,1.38,13.5,1.73
		c2.27,0.16,4.54,0.25,6.84,0.15c1.15-0.06,2.3-0.18,3.43-0.53c0.28-0.09,0.56-0.21,0.83-0.38c0.26-0.17,0.54-0.4,0.64-0.76
		c0.1-0.36-0.04-0.71-0.21-0.95c-0.15-0.22-0.32-0.39-0.52-0.55c0,0,0,0,0,0c0.01-0.05-0.03-0.1-0.08-0.11l0,0
		c-6.69-1.04-13.23-2.58-19.51-4.81c-0.78-0.29-1.57-0.56-2.34-0.86l-2.31-0.94l-2.27-1.03c-0.72-0.37-1.45-0.74-2.13-1.18
		c-2.76-1.71-5.19-4-7.02-6.77c-1.85-2.76-3.02-6-3.49-9.32c-0.48-3.33-0.23-6.74,0.49-9.95c0.19-0.8,0.38-1.6,0.65-2.35
		c0.13-0.38,0.27-0.75,0.42-1.09c0.07-0.18,0.16-0.33,0.25-0.49c0.08-0.16,0.21-0.35,0.32-0.53L13.37,81L16,76.67
		c0.45-0.71,0.9-1.43,1.36-2.13c0.24-0.35,0.47-0.7,0.71-1.04l0.38-0.5c0.05-0.06,0.11-0.13,0.16-0.19c0.04,0.43,0.1,0.85,0.16,1.28
		c0.19,1.33,0.48,2.66,0.88,3.96c0.41,1.3,0.9,2.59,1.62,3.8c0.67,1.16,1.56,2.25,2.72,3.09c0.57,0.71,1.01,1.52,1.35,2.39
		c0.36,0.88,0.57,1.81,0.71,2.76c0.12,0.94,0.13,1.9-0.03,2.81c-0.16,0.9-0.51,1.78-1.15,2.22l-0.47,0.33l0.25,0.43
		c1.05,1.81,2.69,2.94,4.12,4.14c0.36,0.3,0.71,0.6,1.01,0.94c0.15,0.17,0.29,0.34,0.41,0.52c0.06,0.09,0.11,0.18,0.16,0.27
		l0.13,0.32c0.45,0.94,1.13,1.65,1.83,2.31c0.72,0.66,1.43,1.27,2.31,1.79c0.06,0.03,0.12,0.07,0.2,0.1
		c0.05,0.02,0.07,0.03,0.17,0.05c0.1,0.01,0.08,0.01,0.12,0.01l0.35,0.02l0.71,0.04l1.42,0.09l5.66,0.37l1.32,0.09l-0.68-1.19
		c-0.32-0.56-0.65-1.05-1.02-1.54c-0.37-0.49-0.78-0.96-1.24-1.4c-0.46-0.44-0.97-0.85-1.59-1.17c-0.52-0.27-1.15-0.46-1.82-0.46
		c-1.1-0.62-2.2-1.46-3.19-2.32c-0.52-0.46-1-0.94-1.41-1.44c-0.2-0.25-0.38-0.51-0.52-0.74c-0.14-0.23-0.21-0.47-0.2-0.54
		c0-0.01,0,0,0-0.01l0.16-0.15c0.24-0.23,0.51-0.46,0.78-0.69l1.64-1.42c0.46-0.4,0.92-0.81,1.37-1.22c0.75,1.19,1.8,2.19,2.73,3.11
		c0.32,0.33,0.65,0.65,0.91,0.98c0.13,0.16,0.25,0.32,0.33,0.48c0.04,0.08,0.08,0.15,0.11,0.23l0.04,0.1l0.08,0.21
		c0.24,0.57,0.55,1,0.88,1.41c0.33,0.4,0.68,0.77,1.05,1.11c0.37,0.34,0.76,0.65,1.17,0.93c0.42,0.28,0.81,0.56,1.34,0.79
		c0.07,0.03,0.15,0.06,0.25,0.1c0.08,0.02,0.09,0.04,0.26,0.06l0.09,0.01l0.02,0l0.04,0l0.35-0.02l0.71-0.05l1.42-0.1
		c1.89-0.13,3.78-0.19,5.67-0.1l0.56,0.03l-0.3-0.49c-0.63-1.02-1.31-1.99-2.15-2.88c-0.42-0.44-0.9-0.86-1.47-1.19
		c-0.48-0.28-1.07-0.49-1.71-0.52c-1.48-0.95-2.98-2.13-4.17-3.42c-0.3-0.33-0.58-0.67-0.79-1c-0.22-0.32-0.35-0.69-0.35-0.81
		c0-0.01,0-0.01,0-0.01l0.13-0.13l0.25-0.23l1.06-0.97c1.42-1.32,2.8-2.71,4.07-4.23c0.62-0.77,1.23-1.56,1.74-2.42
		c0.46-0.78,0.89-1.62,1.03-2.53c0.68-0.13,1.35-0.27,2.03-0.41c1.71-0.35,3.4-0.74,5.09-1.04c0.85-0.15,1.69-0.28,2.53-0.35
		c0.83-0.07,1.68-0.09,2.42,0.05c1.71,0.37,3.46,0.65,5.18,0.92c1.73,0.28,3.47,0.52,5.22,0.61c1.75,0.1,3.51,0.09,5.27-0.01
		c0.88-0.06,1.76-0.14,2.64-0.28c0.41-0.07,0.82-0.15,1.22-0.25l0.33,1.07c0.05,0.15,0.09,0.29,0.13,0.43
		c0.05,0.15,0.07,0.27,0.09,0.38c0,0.01,0,0.01,0,0.02c0-0.02-0.01-0.06,0.01-0.08c0,0,0.02-0.06,0.01-0.01l-0.01,0.1c0,0,0,0,0,0
		l0,0.02c-0.01,0.08-0.02,0.16-0.02,0.24c0,0.2,0.01,0.41,0.03,0.57c0.14,1.37,0.41,2.61,0.75,3.88c0.17,0.63,0.36,1.26,0.59,1.89
		c0.24,0.63,0.47,1.26,0.92,1.93c0.05,0.09,0.09,0.17,0.14,0.25l0.14,0.36c0.09,0.26,0.17,0.53,0.24,0.82
		c0.15,0.57,0.27,1.18,0.39,1.79l0.72,3.72c0.13,0.63,0.27,1.26,0.45,1.91c0.08,0.32,0.2,0.65,0.32,0.99
		c0.06,0.17,0.16,0.36,0.25,0.54c0.01,0.04,0.04,0.08,0.07,0.12c-0.01,0.05-0.01,0.09-0.02,0.15c-0.03,0.2-0.04,0.38-0.05,0.56
		c-0.02,0.35-0.03,0.69-0.03,1.02c0,0.67,0.03,1.32,0.07,1.98l0.05,0.79l0.75,0c2.98-0.02,5.97-0.12,8.96-0.18l0.54-0.01l-0.09-0.5
		c-0.11-0.63-0.41-1.22-0.82-1.69c-0.3-0.33-0.64-0.6-1.01-0.82c0.24,0.03,0.48,0.05,0.72,0.08c1.33,0.12,2.66,0.21,3.97,0.28
		l1.17,0.06l-0.15-1.23c-0.09-0.73-0.41-1.46-0.88-2.02c-0.47-0.57-1.06-0.97-1.66-1.24c-0.98-0.45-1.99-0.62-2.98-0.66l-0.08-0.58
		l-0.19-1.37c-0.13-0.92-0.25-1.85-0.33-2.78c-0.07-0.93-0.11-1.86-0.09-2.79c0.02-0.93,0.09-1.86,0.18-2.81
		c0.05-0.45,0.03-1.03,0.1-1.33c0.08-0.37,0.21-0.77,0.34-1.18c0.27-0.82,0.57-1.67,0.89-2.53c0.3-0.87,0.62-1.75,0.88-2.66
		c0.16-0.59,0.31-1.2,0.4-1.82c1.22-0.51,2.37-1.09,3.5-2.03c1.2-1.07,2.04-2.44,2.6-3.84c0.57-1.39,0.92-2.85,1.38-4.1
		c0.48-1.17,1.32-2.37,2.12-3.53c0.4-0.57,0.85-1.17,1.22-1.81c0.38-0.63,0.72-1.3,1.01-1.97c0.58-1.36,0.94-2.8,1.16-4.23
		l0.73-3.99c0.88,0.12,1.72,0.13,2.57,0.13c0.52-0.01,1.05-0.03,1.57-0.08c0.26-0.02,0.53-0.06,0.79-0.1
		c0.22-0.05,0.42-0.08,0.66-0.16c0.28,0.2,0.57,0.36,0.86,0.51c0.36,0.17,0.72,0.32,1.09,0.46c0.19,0.07,0.37,0.13,0.57,0.18
		c0.05,0.01,0.1,0.03,0.16,0.03c0.04,0.02,0.19,0.01,0.22-0.01c0.1-0.04,0.19-0.08,0.28-0.13c0.29-0.15,0.56-0.31,0.84-0.47
		c0.16,0.07,0.31,0.14,0.48,0.2c0.19,0.07,0.36,0.15,0.69,0.19c0.33,0.03,0.62-0.01,0.87-0.08c0.51-0.13,0.92-0.35,1.3-0.61
		c0.38-0.26,0.71-0.58,1-0.95l0.05-0.07c0.03-0.04,0.09-0.13,0.12-0.2c0.08-0.15,0.13-0.31,0.15-0.48c0.04-0.33-0.03-0.67-0.22-0.96
		c-0.09-0.14-0.22-0.28-0.36-0.38c-0.04-0.03-0.07-0.05-0.11-0.07l-0.07-0.04l-0.04-0.03l-0.17-0.1c-0.96-0.57-1.8-1.76-2.56-2.95
		c-0.79-1.2-1.63-2.44-2.29-3.77c-0.38-1.23-0.85-2.39-1.39-3.57c-0.55-1.19-1.29-2.29-2.24-3.16c-0.46-0.45-0.95-0.86-1.46-1.25
		c-0.56-0.46-1.21-0.75-1.83-0.98c-1.23-0.41-2.52-0.55-3.76-0.36c0,0-0.01-0.01-0.01-0.01c-0.77-0.68-1.73-1.16-2.93-1.23
		c-0.15-0.01-0.32,0.03-0.47,0.05c-0.16,0.05-0.33,0.1-0.48,0.19c-0.15,0.11-0.31,0.22-0.39,0.36l-0.14,0.21l-0.09,0.21
		c-0.11,0.3-0.16,0.6-0.17,0.88c-2.58,0.59-4.82,2.67-6.01,5.05c-0.63,1.14-1.16,2.34-1.72,3.5l-0.85,1.72
		c-0.28,0.57-0.56,1.15-0.88,1.68c-0.32,0.54-0.69,1.05-1.17,1.44c-0.47,0.4-1.04,0.66-1.65,0.76c-1.23,0.18-2.5-0.28-3.76-0.54
		c-1.27-0.27-2.59-0.37-3.93-0.36c-1.29,0.04-9.33-0.19-11.99-0.75c-2.82-0.63-5.66-1.2-8.54-1.66c-2.88-0.42-5.81-0.7-8.78-0.64
		c-3,0.03-5.88,0.67-8.7,1.41c-1.37,0.37-2.72,0.76-4.07,1.15c-1.4,0.37-2.78,0.78-4.15,1.23c-0.05,0.01-0.1,0.03-0.15,0.04
		c-2.78,0.83-5.61,1.58-8.33,2.68c-2.71,1.12-5.28,2.55-7.7,4.22c-2.14,1.5-4.16,3.19-5.88,5.15c-1.74,1.5-3.46,3.01-5.11,4.61
		c-1.84,1.74-3.61,3.58-5.27,5.51c-1.49,1.73-2.88,3.55-4.15,5.48c-0.32,0.48-0.64,0.96-0.92,1.47c-0.28,0.51-0.58,0.99-0.85,1.54
		c-0.53,1.08-0.89,2.2-1.2,3.32c-1.15,4.53-1.2,9.15-0.93,13.69C0.28,97.86,0.57,100.12,1,102.36z M12.48,111.73
		c0.02,0,0.03-0.01,0.04-0.01c0.52,0.77,1.08,1.5,1.69,2.2c1.17,1.31,2.52,2.45,3.97,3.44c0.72,0.51,1.49,0.94,2.25,1.37
		c0.77,0.4,1.54,0.77,2.32,1.15c0.78,0.36,1.57,0.7,2.37,1.03c0.8,0.32,1.61,0.6,2.42,0.91c0.51,0.17,1.03,0.33,1.54,0.48
		c-2.46-0.15-4.92-0.19-7.34-0.63c-1.65-0.29-3.26-0.77-4.82-1.39c-0.78-0.32-1.54-0.65-2.3-1.02c-0.76-0.34-1.43-0.83-2.04-1.4
		c-1.06-0.97-1.97-2.1-2.81-3.28c0.52,0.14,0.76-0.23,0.84-1.19C10.7,112.28,11.4,111.79,12.48,111.73z M11.25,109.62
		c-0.7,0.64-1.6,1.55-3.51,1.75c-0.31-0.55-0.63-1.11-0.91-1.68c-1.05-2.1-1.96-4.28-2.64-6.53c0.62,0.51,1.02,0.26,1.41-0.85
		c0.41-1.14,1.27-1.45,2.41-1.21c0.11,0.02,0.2,0.01,0.27-0.03C8.88,104.02,9.82,106.92,11.25,109.62z M7.48,94.74
		c0.06,1.21,0.18,2.4,0.34,3.59c-0.96,0.38-2.16,1.41-4.5,1.08c-0.08-0.54-0.15-1.09-0.2-1.64c-0.03-0.41-0.04-0.83-0.04-1.25
		c-0.01-0.42-0.02-0.84,0-1.26c0.02-1.46,0.13-2.91,0.3-4.36c0.22,0.13,0.54,0.34,0.87,0.65c0.61,0.56,1.03,1.36,1.95,0.75
		c0.41-0.27,0.87-0.39,1.26-0.45C7.42,92.82,7.43,93.78,7.48,94.74z M9.3,84.44c-0.11,0.19-0.21,0.35-0.33,0.56
		c-0.11,0.22-0.24,0.43-0.32,0.65c-0.19,0.43-0.34,0.86-0.46,1.29c-0.22,0.76-0.37,1.51-0.48,2.28c-0.18-0.05-0.39-0.06-0.61-0.01
		c-0.91,0.2-1.32-0.51-2.38-0.81c-0.6-0.17-0.83-0.21-0.96-0.17c0.42-2.64,1.02-5.26,1.85-7.79c0.03-0.09,0.06-0.17,0.09-0.26
		c0.23,0.36,0.6,0.82,1.1,1.05c0.86,0.41,1.01,0.36,2.03,1.02c0.49,0.32,0.89,0.74,1.18,1.09C9.76,83.7,9.53,84.07,9.3,84.44z
		 M12.07,80.15c-0.16,0.23-0.31,0.46-0.46,0.69c-0.19-0.21-0.41-0.43-0.62-0.59c-0.56-0.41-1.01-1.07-2.28-0.76
		c-1.11,0.27-1.79-1.1-2.11-1.62c0.31-0.68,0.65-1.34,1.05-1.95c0.93-1.35,2.09-2.58,3.22-3.82c0.34-0.36,0.68-0.71,1.02-1.07
		c0.05,0.24,0.09,0.63-0.05,0.82c-0.22,0.3,0.89,1.04,1.86,2.09c0.7,0.76,0.77,2.22,0.76,2.96C13.63,77.97,12.83,79.05,12.07,80.15z
		 M35.08,105.57C35.08,105.57,35.08,105.57,35.08,105.57C35.12,105.58,35.09,105.57,35.08,105.57z M34.17,92.32
		c-0.56,0.46-1.13,0.91-1.68,1.4c-0.28,0.24-0.56,0.49-0.85,0.76c-0.08,0.08-0.12,0.11-0.24,0.23c-0.12,0.12-0.23,0.27-0.32,0.43
		c-0.18,0.33-0.26,0.72-0.25,1.05c0.03,0.67,0.26,1.12,0.48,1.52c0.23,0.4,0.48,0.72,0.75,1.03c0.53,0.61,1.1,1.14,1.69,1.63
		c1.19,0.98,2.39,1.82,3.82,2.54l0.26,0.13l0.25-0.04c0.71-0.12,1.65,0.37,2.44,1.06c0.4,0.34,0.78,0.74,1.14,1.15
		c0.06,0.07,0.12,0.15,0.19,0.23l-4.22,0.1l-1.42,0.03l-0.71,0.01l-0.35,0c-0.01,0-0.04,0-0.05,0c-0.03-0.01-0.08-0.03-0.12-0.05
		c-0.77-0.41-1.54-0.99-2.23-1.59c-0.67-0.62-1.35-1.3-1.7-2.09l-0.13-0.34c-0.06-0.12-0.12-0.24-0.19-0.35
		c-0.14-0.22-0.29-0.42-0.46-0.6c-0.33-0.37-0.68-0.7-1.03-1.03c-1.26-1.15-2.55-2.31-3.31-3.7c0.35-0.28,0.64-0.62,0.86-0.99
		c0.31-0.51,0.53-1.05,0.68-1.6c0.14-0.51,0.22-1.02,0.26-1.53c0.31,0.12,0.64,0.21,0.99,0.2c0.47-0.02,0.91-0.19,1.3-0.37
		c0.4-0.17,0.78-0.38,1.17-0.56c0.39-0.2,0.74-0.39,1.13-0.5c0.76-0.26,1.6-0.34,2.44-0.36c0.62,0,1.24,0.03,1.87,0.08
		C35.83,90.92,35.02,91.63,34.17,92.32z M46.19,100.68l-0.04,0l-0.02,0c0,0,0.03,0,0.05,0l0.09,0.01L46.19,100.68z M46.05,96.71
		c0.83,0.57,1.67,1.09,2.64,1.51l0.24,0.11l0.16-0.04c0.4-0.09,0.86-0.03,1.33,0.15c0.47,0.18,0.94,0.47,1.37,0.81
		c0.44,0.34,0.84,0.73,1.22,1.15c0.24,0.28,0.48,0.58,0.7,0.88c-1.69-0.02-3.38-0.14-5.07-0.33l-1.41-0.16l-0.71-0.08l-0.28-0.03
		c-0.01-0.01-0.04-0.03-0.08-0.05c-0.66-0.44-1.39-1.07-2.03-1.66c-0.64-0.59-1.3-1.25-1.6-1.88l-0.16-0.35
		c-0.07-0.14-0.15-0.27-0.24-0.4c-0.17-0.24-0.35-0.45-0.53-0.64c-0.37-0.38-0.75-0.7-1.13-0.99c-1.1-0.85-2.2-1.6-3.16-2.51
		c0.47-0.44,0.94-0.89,1.39-1.37c0.52-0.55,1.02-1.13,1.49-1.76c0.04-0.06,0.08-0.12,0.12-0.18c0.23,0.14,0.48,0.26,0.74,0.33
		c0.49,0.14,1.01,0.14,1.5,0.07c0.4-0.06,0.77-0.16,1.14-0.27c-0.26,0.23-0.52,0.45-0.78,0.69l-0.28,0.26l-0.14,0.14
		c-0.07,0.07-0.15,0.16-0.22,0.25c-0.3,0.38-0.44,0.93-0.41,1.36c0.07,0.86,0.43,1.37,0.75,1.84c0.33,0.46,0.69,0.85,1.06,1.22
		C44.44,95.51,45.23,96.13,46.05,96.71z M50.44,83.06c-0.65,0.69-1.34,1.34-2.04,1.97c-1.28,1.16-2.62,2.26-3.96,3.39
		c-0.67,0.02-1.33,0.16-1.95,0.24c-0.45,0.07-0.88,0.1-1.32,0.07c-0.22-0.02-0.43-0.05-0.65-0.09c0.12-0.19,0.24-0.38,0.35-0.59
		c0.17-0.33,0.32-0.61,0.5-0.93c0.71-1.23,1.5-2.49,2.19-3.8c0.25-0.48,0.49-0.98,0.72-1.48c1.61,0.19,3.24,0.03,4.84-0.2
		c0.93-0.13,1.85-0.3,2.77-0.48C51.49,81.87,50.98,82.48,50.44,83.06z M98.14,103.89c0.18,0.24,0.31,0.5,0.41,0.77
		c-2.52-0.16-5.04-0.34-7.55-0.48c0-0.38,0-0.77,0.02-1.14c0.01-0.31,0.03-0.62,0.06-0.91c0.01-0.15,0.03-0.28,0.05-0.4
		c0.01-0.04,0.02-0.13,0.03-0.13c0-0.01,0.01-0.02,0-0.02c-0.02,0.06-0.06,0.12-0.11,0.16l-0.03-1.26
		c-0.01-0.03-0.02-0.05-0.03-0.07c-0.01-0.02-0.03-0.03-0.06-0.1c-0.04-0.11-0.09-0.2-0.14-0.33c-0.08-0.26-0.17-0.53-0.23-0.82
		c-0.14-0.57-0.25-1.18-0.36-1.79l-0.61-3.74c-0.12-0.63-0.24-1.27-0.41-1.92c-0.08-0.32-0.18-0.66-0.29-1l-0.2-0.52
		c-0.1-0.19-0.21-0.39-0.32-0.58c-0.25-0.38-0.51-0.93-0.72-1.48c-0.21-0.55-0.41-1.13-0.59-1.71c-0.34-1.16-0.66-2.39-0.84-3.53
		c-0.02-0.15-0.03-0.26-0.04-0.37c0,0,0,0,0,0l-0.01,0c-0.01,0.02,0.01-0.09,0.01-0.13c0.02-0.21-0.02-0.48-0.05-0.53
		c-0.05-0.2-0.11-0.39-0.16-0.54c-0.05-0.16-0.11-0.32-0.17-0.47l-0.07-0.18c0.71-0.22,1.41-0.49,2.08-0.81
		c0.5-0.22,0.98-0.51,1.45-0.74c0.48-0.23,0.96-0.44,1.46-0.63c0.99-0.38,2.02-0.67,3.07-0.86c0.51-0.09,1.08-0.12,1.62-0.3
		c0.13-0.05,0.26-0.09,0.38-0.15c-0.33,0.49-0.7,0.93-1.1,1.26l-0.2,0.17l-0.07,0.27c-0.46,1.86-0.94,3.74-1.27,5.65
		c-0.19,0.95-0.31,1.92-0.41,2.91c-0.04,0.49-0.07,0.99-0.06,1.51c0,0.26,0.01,0.52,0.04,0.8c0.02,0.28,0.06,0.46,0.09,0.7
		c0.2,1.87,0.31,3.81,0.43,5.72l0.14,2.88l0.07,1.44c0.04,0.5,0.04,0.93,0.17,1.51l0.04,0.19l0.23,0.01
		c1.07,0.04,2.16,0.23,3.08,0.72C97.43,103.18,97.84,103.5,98.14,103.89z M97.22,81.84c-0.4,0.86-0.78,1.73-1.02,2.71
		c-0.12,0.49-0.18,1-0.17,1.56c0,0.27,0.07,0.61,0.11,0.79l0.13,0.67c0.17,0.91,0.28,1.84,0.34,2.77c0.05,0.93,0.04,1.86,0,2.79
		c-0.05,0.93-0.14,1.86-0.21,2.8c-0.04,0.47-0.07,0.94-0.08,1.42c-0.01,0.24-0.02,0.48-0.01,0.73l0.02,0.39
		c0.01,0.14,0.02,0.27,0.08,0.51l0.15,0.53l0.65,0.05c1.01,0.08,2.01,0.32,2.8,0.75c0.35,0.2,0.63,0.42,0.85,0.67
		c-0.81,0.05-1.62,0.12-2.42,0.21c-1.1,0.14-2.19,0.31-3.29,0.55c-0.33-0.05-0.67-0.08-1.01-0.09c-0.06-0.34-0.08-0.78-0.1-1.16
		L94,99.04c-0.01-0.96,0.01-1.92,0.02-2.87c0.04-1.92,0.15-3.83,0.15-5.79l-0.02-0.73c-0.01-0.2,0-0.42,0.02-0.64
		c0.03-0.44,0.1-0.9,0.17-1.36c0.13-0.92,0.33-1.85,0.5-2.78c0.36-1.78,0.73-3.58,1.14-5.37c0.19-0.2,0.37-0.4,0.54-0.6
		c0.89-0.05,1.77-0.28,2.6-0.56C98.46,79.48,97.79,80.61,97.22,81.84z M124.13,49.15c0.31,0.46,0.66,0.91,1.09,1.33
		c-0.1,0.11-0.24,0.19-0.47,0.19c-0.5-0.01-0.25,0.37,0.16,0.68c-0.03,0.02-0.06,0.04-0.09,0.05c-0.1,0.05-0.18,0.07-0.22,0.08
		c-0.03,0.01-0.23-0.01-0.39-0.03c-1.4-0.23-2.88-0.53-4.38-0.65c-0.04,0-0.07,0.01-0.09,0.05c-0.03,0.05-0.02,0.11,0.03,0.14
		c1.08,0.7,2.17,1.28,3.35,1.78c-0.25,0.1-0.5,0.2-0.75,0.29c-0.09,0.03-0.18,0.07-0.26,0.09c-0.05,0.01,0,0-0.06-0.01
		c-0.03-0.01-0.08-0.03-0.12-0.04c-0.17-0.07-0.34-0.15-0.51-0.23c-0.34-0.17-0.67-0.36-0.98-0.56c-0.31-0.2-0.62-0.42-0.86-0.66
		l-0.14-0.14l-0.25,0.08c-0.34,0.11-0.9,0.13-1.38,0.13c-0.49,0-0.98-0.02-1.47-0.06c0.21-0.73,0.46-1.44,0.79-2.07
		c0.2-0.35,0.42-0.68,0.71-0.89c0.26-0.2,0.64-0.29,1.04-0.34c0.79-0.11,1.63-0.08,2.47-0.05c0.79,0.05,1.6,0.08,2.4,0.2
		C123.89,48.73,124,48.94,124.13,49.15z M123.03,47.08c0.2,0.47,0.44,0.94,0.7,1.4c-0.74-0.33-1.53-0.52-2.32-0.66
		c-0.85-0.13-1.72-0.2-2.61-0.09c-0.44,0.07-0.92,0.16-1.33,0.5c-0.37,0.33-0.61,0.74-0.78,1.15c-0.3,0.74-0.41,1.51-0.41,2.28
		c-0.98-0.08-1.99-0.23-2.84-0.52c-0.75-0.3-1.59-0.84-2.34-1.45c-0.14-0.12-0.29-0.24-0.43-0.36c0.27,0.07,0.55,0.11,0.83,0.08
		c0.68-0.05,1.31-0.36,1.85-0.73c0.28-0.18,0.57-0.51,0.7-0.82c0.15-0.32,0.24-0.62,0.34-0.91c0.19-0.58,0.41-1.12,0.76-1.6
		c0.36-0.47,0.87-0.85,1.43-1.09c0.05-0.02,0.1-0.04,0.15-0.05c0.16,0.27,0.39,0.53,0.69,0.65c0.8,0.33,1.85-0.38,1.85-0.38
		s-0.06-0.29-0.21-0.62c0.05,0,0.11,0,0.17,0c0.32,0,0.64-0.03,0.96-0.08c0.54-0.08,1.07-0.25,1.56-0.5
		C122.21,44.52,122.52,45.82,123.03,47.08z M87.89,48.84c0.89,0.13,1.78,0.24,2.72,0.26c1.33-0.01,2.69-0.16,4.05-0.45
		c1.37-0.3,2.56-1.15,3.55-2.1c1.01-0.95,1.8-2.07,2.49-3.21c0.7-1.13,1.37-2.27,1.92-3.47l0.4-0.85c0.14-0.27,0.27-0.54,0.42-0.8
		c0.3-0.52,0.64-1.03,1.01-1.52c0.66-0.88,1.45-1.66,2.35-2.41c0,0.1,0,0.2,0.01,0.3c0.09,1,0.31,1.95,0.63,2.87
		c0.01,0.03,0.04,0.05,0.07,0.04c0.04-0.01,0.06-0.04,0.05-0.07c-0.11-0.95-0.19-1.91-0.11-2.83c0.04-0.45,0.11-0.91,0.29-1.24
		l0.06-0.12l0.08-0.08c0.04-0.07,0.11-0.07,0.15-0.1c0.06-0.02,0.13-0.03,0.2-0.04c0.08,0.01,0.15-0.01,0.24,0.02
		c0.35,0.06,0.74,0.25,1.09,0.49l1.1,0.73c0.75,0.5,1.5,1,2.26,1.63l0,0c0.01,0.01,0.03,0.02,0.05,0.02
		c0.04-0.01,0.06-0.04,0.06-0.08c-0.07-0.52-0.31-1-0.59-1.43c-0.2-0.31-0.44-0.58-0.69-0.84c1.07,0.27,2.07,0.65,2.97,1.16
		c0.51,0.28,0.97,0.6,1.32,0.99l1.24,1.33c0.79,0.91,1.67,1.72,2.52,2.59c0.41,0.44,0.8,0.92,1.11,1.44c0.3,0.53,0.5,1.1,0.63,1.68
		l0,0.02l0.01,0.04c0.04,0.11,0.08,0.21,0.11,0.32c-0.52,0.08-1.04,0.13-1.55,0.15c-0.3,0.01-0.6,0.01-0.9,0
		c-0.15-0.01-0.33-0.01-0.52,0c-0.14-0.16-0.3-0.3-0.5-0.38c-0.8-0.33-1.86,0.38-1.86,0.38s0.07,0.35,0.26,0.72
		c-0.04,0.02-0.09,0.04-0.13,0.07c-0.56,0.29-1.12,0.6-1.6,1.04c-0.49,0.44-0.85,1.03-1.07,1.63c-0.25,0.6-0.43,1.11-0.87,1.39
		c-0.47,0.36-0.97,0.65-1.52,0.78c-0.39,0.1-0.8,0.09-1.22,0c-0.43-0.4-0.83-0.83-1.15-1.35l0-0.01c-0.01-0.02-0.03-0.03-0.06-0.03
		c-0.04,0-0.07,0.03-0.06,0.07c0.01,0.55,0.22,1.09,0.47,1.57c0.26,0.48,0.57,0.93,0.93,1.34c0.72,0.8,1.56,1.56,2.76,1.89
		c0.14,0.03,0.28,0.05,0.42,0.07l-1.09,3.88c-0.28,0.05-0.8,0.14-1.67-0.47c-1.18-0.84-2.06-4.17-2.21-4.52
		c-0.16-0.35-0.71-0.63-0.71-0.63c-0.08,1.05-0.63,2.02,0.4,3.49c1.03,1.47,1.26,2.09,1.74,3.28c0.38,0.95,1.06,1.85,1.31,2.17
		c-0.1,0.22-0.2,0.43-0.31,0.65c-0.32,0.62-0.67,1.22-1.07,1.78c-0.05,0.08-0.12,0.15-0.17,0.23c-0.59-0.9-1.85-2.71-2.93-3.19
		c-1.46-0.65-0.81-2.76-0.65-4.06c0.16-1.3-0.32-2.11-1.13-3.9c-0.81-1.79,1.62-6.34,1.62-6.34s-2.1,3.25-3.08,4.06
		c-0.97,0.81,0.32,4.06,0.32,5.36c0,1.3,0.65,2.92,0,4.22c-0.65,1.3-0.44,3.08,1.83,4.71c1,0.72,1.32,1.71,1.37,2.58
		c-0.36,0.51-0.7,1.05-1,1.65c-0.33,0.71-0.57,1.37-0.84,2.03c-0.27,0.65-0.55,1.28-0.86,1.89c-0.61,1.21-1.31,2.31-2.19,3.22
		c-0.44,0.46-0.92,0.83-1.51,1.25c-0.56,0.41-1.14,0.78-1.72,1.15c-0.58,0.35-1.17,0.69-1.79,0.98c0.29-0.49,0.53-1,0.76-1.5
		c0.5-1.15,0.9-2.33,1.23-3.51c0.64-2.38,1.09-4.78,1.3-7.22c0-0.05-0.03-0.09-0.07-0.1c-0.05-0.01-0.1,0.02-0.12,0.07
		c-0.67,2.33-1.38,4.64-2.24,6.88c-0.41,1.12-0.89,2.21-1.43,3.24c-0.19,0.38-0.4,0.74-0.62,1.09c-0.21,0.06-0.43,0.11-0.65,0.15
		c-0.52,0.1-1.04,0.06-1.61,0.1c-1.11,0.09-2.19,0.37-3.23,0.75c-0.52,0.2-1.03,0.42-1.52,0.69c-0.5,0.28-0.94,0.56-1.4,0.83
		c-0.63,0.36-1.28,0.71-1.93,1.05l-0.53-1.39c-0.43-1.16-0.82-2.33-1.07-3.51c-0.24-1.17-0.33-2.4,0.14-3.35l0.1-0.2l-0.04-0.13
		c-0.22-0.8-0.48-1.59-0.77-2.36c-0.29-0.77-0.62-1.53-1.03-2.25c-0.02-0.04-0.07-0.06-0.12-0.04c-0.05,0.02-0.08,0.07-0.06,0.12
		l0,0c0.26,0.76,0.47,1.55,0.66,2.34c0.17,0.73,0.3,1.47,0.41,2.21c-0.34,0.58-0.53,1.22-0.6,1.85c-0.05,0.34-0.04,0.68-0.05,1.02
		c0.02,0.33,0.03,0.67,0.07,1c0.15,1.32,0.47,2.59,0.83,3.82l0.03,0.1c-0.36-0.02-0.71-0.04-1.07-0.06
		c-0.86-0.07-1.72-0.14-2.57-0.24l-5.15-0.52c-1.72-0.17-3.44-0.24-5.17-0.36c-1.73-0.13-3.43-0.29-5.15-0.55
		c-0.98-0.13-1.89-0.05-2.79,0.07c-0.89,0.12-1.76,0.3-2.62,0.49c-1.72,0.39-3.4,0.85-5.07,1.32c-1.68,0.46-3.35,0.92-5.04,1.27
		c-1.53,0.31-3.09,0.58-4.64,0.52c0.35-0.79,0.65-1.6,0.88-2.45c0.36-1.45,0.5-3.07-0.14-4.45c-0.02-0.04-0.07-0.07-0.11-0.05
		c-0.05,0.01-0.08,0.07-0.07,0.12c0.35,1.4,0.06,2.83-0.47,4.13c-0.52,1.31-1.25,2.54-2.02,3.74c-0.78,1.2-1.63,2.36-2.46,3.59
		c-0.21,0.3-0.42,0.65-0.61,0.96c-0.16,0.26-0.35,0.53-0.56,0.79c-0.43,0.52-0.91,1.02-1.41,1.5c-0.2,0.19-0.41,0.37-0.61,0.55
		c-0.65-0.23-1.32-0.38-2.01-0.44c-0.88-0.08-1.79-0.04-2.66,0.25c-0.89,0.32-1.58,0.81-2.33,1.23c-0.37,0.21-0.73,0.42-1.11,0.51
		c-0.3,0.08-0.62,0.06-0.95,0.02c0.04-0.47,0.03-0.93,0-1.39c1.08-0.41,4.35-1.72,5.15-2.7c0.96-1.17,2.2-0.69,3.58-1.79
		c1.38-1.1,1.05-4.46,0.29-4.46c-0.76,0-5.11,1.78-6.49,3.44c-1.09,1.32-2.22,1.98-3.26,2.1c-0.01-0.04-0.03-0.08-0.04-0.11
		c-0.36-0.91-0.86-1.76-1.46-2.54c0.43,0,0.92,0.01,1.36,0.05c1.14,0.12,1.66,0,1.35-1.73s3.15-3.2,6.73-4.26
		c1.19-0.35-1.55-1.73-3.11-1.61c-1.52,0.11-4.46,2.37-9.17,4.6c-0.03-0.05-0.06-0.09-0.09-0.13c-0.48-0.74-0.91-1.53-1.28-2.35
		c0.77-0.02,1.93-0.12,3.1-0.51c1.99-0.67,1.99-1.5,3.65-4.16c1.66-2.66,2.99-2,5.47-2.33c2.49-0.33-2.99-2.16-5.31-2.33
		c-2.32-0.17-2.65,1.17-4.48,4.16c-1.67,2.75-1.82,2.28-3.75,1.66c-0.13-0.42-0.27-0.84-0.39-1.27c-0.35-1.27-0.66-2.56-0.91-3.86
		c-0.01-0.04-0.05-0.08-0.1-0.08c-0.05,0-0.1,0.04-0.1,0.1c0,0.81,0.04,1.62,0.12,2.43c-0.03,0.02-0.07,0.04-0.1,0.06
		c-0.09,0.06-0.18,0.13-0.27,0.2c-0.17,0.13-0.33,0.28-0.49,0.43c-0.31,0.3-0.62,0.6-0.91,0.91c-0.17,0.18-0.34,0.37-0.5,0.56
		c-1.3-1.08-2.33-4.88-2.51-5.58c1.38-1.39,2.78-2.76,4.18-4.13c1.2-1.18,2.41-2.36,3.59-3.56c1.17-1.19,2.47-2.25,3.82-3.23
		c2.72-1.95,5.71-3.53,8.77-4.88c3.07-1.35,6.24-2.51,9.47-3.43c3.23-0.91,6.59-1.26,9.93-1.46c3.35-0.18,6.71-0.18,10.05,0.07
		c3.34,0.28,6.69,0.62,10.06,0.81c3.36,0.2,6.74,0.3,10.11-0.02C85.14,49.11,86.52,48.96,87.89,48.84z M1.1,88.83
		c0.31-2.21,0.78-4.41,1.5-6.49c0.33-1.05,0.75-2.06,1.21-3.01c0.51-0.94,1.07-1.91,1.67-2.84c1.19-1.88,2.5-3.68,3.87-5.46
		c1.38-1.77,2.81-3.5,4.28-5.21l2.22-2.56l1.55-1.72c0.5-0.43,1.01-0.85,1.51-1.28c0.12-0.1,0.23-0.19,0.35-0.29
		c0.78-0.56,1.57-1.11,2.36-1.64c1.2-0.79,2.41-1.54,3.64-2.27c1.23-0.72,2.48-1.4,3.74-2.07l3.82-1.94c2.18-1.09,4.37-2.2,6.66-3.1
		c1.92-0.66,3.87-1.26,5.84-1.77c1.24-0.28,2.49-0.51,3.74-0.69c1.42-0.21,2.85-0.35,4.27-0.47c0.71-0.06,1.42-0.1,2.12-0.14
		c0.7,0,1.4-0.04,2.1,0c2.81,0.1,5.65,0.48,8.48,0.88c2.84,0.36,5.7,0.81,8.58,1.12c2.84,0.31,5.73,0.61,8.62,0.32
		c1.15,0.06,2.26,0.23,3.38,0.41c-0.95,0.07-1.91,0.14-2.86,0.23c-3.34,0.24-6.7,0.1-10.04-0.12c-3.35-0.22-6.69-0.6-10.05-0.84
		c-3.37-0.25-6.75-0.15-10.11,0.1c-1.68,0.13-3.36,0.32-5.02,0.58c-1.66,0.26-3.33,0.57-4.95,1.06c-3.22,0.98-6.42,2.05-9.52,3.38
		c-3.1,1.33-6.11,2.88-8.9,4.8c-1.39,0.96-2.73,2.02-3.94,3.21c-1.19,1.19-2.42,2.33-3.64,3.5c-2.43,2.34-4.86,4.67-7.18,7.13
		c-1.15,1.24-2.32,2.46-3.3,3.89c-0.95,1.47-1.57,3.07-2.12,4.68c-1.05,3.24-1.74,6.58-2.09,9.95c-0.18,1.69-0.29,3.38-0.29,5.08
		c-0.01,0.42,0.01,0.85,0.02,1.27c0.01,0.42,0.02,0.85,0.06,1.28c0.07,0.85,0.19,1.7,0.36,2.53c0.69,3.34,1.94,6.51,3.48,9.53
		c0.78,1.5,1.64,2.96,2.6,4.36c0.97,1.38,2.02,2.73,3.29,3.87c0.63,0.57,1.35,1.07,2.13,1.41c0.76,0.36,1.54,0.69,2.32,1
		c1.57,0.61,3.21,1.07,4.87,1.35c2.56,0.44,5.15,0.43,7.73,0.57c2.65,0.8,5.35,1.42,8.08,1.82c3.34,0.51,6.72,0.78,10.09,0.63
		c0.36,0.36,0.69,0.9,0.53,1.29c-0.17,0.38-0.73,0.57-1.23,0.68c-1.05,0.21-2.18,0.18-3.28,0.16c-2.22-0.07-4.45-0.36-6.67-0.67
		c-4.44-0.62-8.88-1.43-13.28-2.25c-1.07-0.21-2.13-0.49-3.18-0.79c-1.04-0.31-2.06-0.69-3.06-1.12c-2-0.85-3.9-1.94-5.6-3.29
		c-3.43-2.69-6.1-6.31-7.98-10.34c-1.88-4.04-2.92-8.51-3.11-13C0.65,93.3,0.78,91.05,1.1,88.83z"/>
	<path class="st1" d="M84.4,82.24c0,0.01,0,0.01,0,0.01c0,0,0,0,0,0C84.4,82.25,84.4,82.24,84.4,82.24z"/>
	<path class="st1" d="M67.22,53.96c0,0-0.01,0-0.01-0.01c0,0,0,0,0,0C67.21,53.96,67.21,53.96,67.22,53.96
		C67.22,53.96,67.22,53.96,67.22,53.96z"/>
	<path class="st1" d="M65.49,55.99c0.2,0.29,0.43,0.52,0.67,0.74c0.47,0.41,1.02,0.92,1.75,1.09c0.71,0.17,1.53-0.08,1.99-0.71
		c0.23-0.3,0.37-0.67,0.45-1c0.08-0.33,0.11-0.64,0.12-0.94c0-0.15,0-0.32-0.07-0.48c-0.06-0.16-0.18-0.32-0.3-0.44
		c-0.24-0.25-0.47-0.47-0.65-0.7c-0.18-0.22-0.31-0.43-0.44-0.6l-0.19-0.25l-0.05-0.06c-0.01-0.02-0.03-0.04-0.08-0.09
		c-0.07-0.08-0.16-0.17-0.26-0.25c-0.2-0.16-0.47-0.3-0.78-0.38c-0.31-0.07-0.66-0.04-0.94,0.06c-0.56,0.21-0.86,0.56-1.09,0.87
		c-0.45,0.64-0.64,1.32-0.55,2.09C65.13,55.35,65.29,55.7,65.49,55.99z M66.23,55.06c0.11-0.18,0.25-0.37,0.4-0.55
		c0.14-0.17,0.27-0.34,0.42-0.45c0.06-0.05,0.12-0.08,0.17-0.1c-0.02-0.01-0.03-0.01-0.01-0.01c0,0,0.01,0.01,0.01,0.01
		c0.06-0.03,0.11-0.03,0.1-0.01c0,0.01-0.05,0.02-0.09,0.02c0.01,0.01,0.02,0.01,0.03,0.02c0,0,0.04,0.03,0.08,0.06l0.11,0.09
		c0.14,0.12,0.3,0.22,0.46,0.31c0.33,0.17,0.7,0.24,1.03,0.25c0.34,0.01,0.66-0.04,0.9,0c0.26,0.02,0.44,0.2,0.44,0.48
		c0.01,0.27-0.14,0.53-0.35,0.68c-0.22,0.15-0.49,0.2-0.73,0.21c-0.49,0.01-0.82,0.04-1.24,0.18c-0.41,0.15-1,0.3-1.42,0.01
		c-0.21-0.13-0.36-0.35-0.41-0.57C66.06,55.45,66.12,55.23,66.23,55.06z"/>
	<polygon class="st1" points="58.91,60.61 58.9,60.61 58.9,60.61 58.9,60.61 	"/>
	<path class="st1" d="M61.64,60.81c-0.23-0.24-0.45-0.46-0.61-0.68c-0.17-0.21-0.29-0.41-0.4-0.57l-0.17-0.24l-0.04-0.06
		c-0.01-0.02-0.02-0.04-0.07-0.09c-0.07-0.08-0.16-0.16-0.25-0.24c-0.19-0.16-0.45-0.3-0.76-0.37c-0.31-0.06-0.65-0.04-0.91,0.06
		c-0.54,0.2-0.83,0.54-1.05,0.85c-0.43,0.62-0.61,1.27-0.51,2c0.05,0.39,0.21,0.73,0.4,1c0.19,0.27,0.41,0.49,0.64,0.7
		c0.45,0.39,0.97,0.89,1.67,1.06c0.67,0.17,1.47-0.07,1.9-0.69c0.22-0.3,0.35-0.65,0.42-0.97c0.07-0.32,0.1-0.61,0.11-0.9
		c0-0.15,0-0.3-0.07-0.46C61.87,61.08,61.75,60.93,61.64,60.81z M61.46,62.33c-0.21,0.14-0.47,0.17-0.7,0.18
		c-0.46-0.01-0.76,0.02-1.16,0.16c-0.38,0.15-0.93,0.31-1.34,0.04c-0.2-0.12-0.34-0.32-0.38-0.54c-0.05-0.21,0.02-0.42,0.12-0.57
		c0.23-0.33,0.53-0.71,0.78-0.92c0.04-0.03,0.08-0.06,0.12-0.07c-0.04-0.01-0.06-0.02-0.03-0.02c0.01,0,0.02,0.01,0.04,0.02
		c0.08-0.04,0.14-0.04,0.12-0.02c-0.01,0.02-0.07,0.03-0.11,0.02c0,0,0,0,0.01,0c0,0,0.04,0.02,0.07,0.06l0.1,0.08
		c0.13,0.11,0.29,0.21,0.44,0.29c0.32,0.16,0.67,0.22,0.99,0.23c0.32,0.01,0.63-0.05,0.86-0.02c0.24,0.01,0.41,0.18,0.42,0.44
		C61.81,61.94,61.67,62.19,61.46,62.33z"/>
	<path class="st1" d="M51.66,71.77c-0.23-0.24-0.45-0.46-0.61-0.68c-0.17-0.21-0.29-0.41-0.4-0.57l-0.17-0.24l-0.04-0.06
		c-0.01-0.02-0.02-0.04-0.07-0.09c-0.07-0.08-0.16-0.16-0.25-0.24c-0.19-0.16-0.45-0.3-0.76-0.37c-0.31-0.07-0.65-0.04-0.91,0.06
		c-0.54,0.2-0.83,0.54-1.05,0.85c-0.43,0.62-0.61,1.27-0.51,2c0.05,0.38,0.21,0.73,0.4,1c0.19,0.27,0.41,0.49,0.64,0.7
		c0.45,0.39,0.97,0.89,1.67,1.06c0.67,0.17,1.47-0.07,1.9-0.69c0.22-0.3,0.35-0.65,0.42-0.97c0.07-0.32,0.1-0.61,0.11-0.9
		c0-0.15,0-0.3-0.07-0.46C51.89,72.04,51.78,71.89,51.66,71.77z M51.48,73.29c-0.21,0.14-0.47,0.17-0.7,0.18
		c-0.46-0.01-0.76,0.02-1.16,0.16c-0.38,0.15-0.93,0.31-1.34,0.04c-0.2-0.12-0.34-0.32-0.38-0.54c-0.05-0.21,0.02-0.42,0.12-0.57
		c0.23-0.33,0.53-0.71,0.78-0.92c0.04-0.03,0.08-0.06,0.11-0.07c-0.04-0.01-0.06-0.02-0.03-0.02c0.01,0,0.02,0.01,0.04,0.02
		c0.08-0.04,0.14-0.04,0.12-0.02c-0.01,0.02-0.07,0.03-0.11,0.02c0,0,0,0,0.01,0c0,0,0.04,0.02,0.07,0.06l0.1,0.08
		c0.13,0.11,0.29,0.21,0.44,0.29c0.31,0.16,0.67,0.22,0.99,0.23c0.32,0.01,0.63-0.05,0.86-0.02c0.24,0.01,0.41,0.18,0.42,0.44
		C51.83,72.91,51.69,73.15,51.48,73.29z"/>
	<polygon class="st1" points="48.93,71.57 48.92,71.57 48.92,71.57 48.92,71.57 	"/>
	<path class="st1" d="M75.28,59.74c-0.43-0.36-0.86-0.43-1.21-0.46c-0.71-0.05-1.32,0.11-1.87,0.55c-0.29,0.23-0.49,0.53-0.62,0.82
		c-0.13,0.29-0.2,0.57-0.27,0.85c-0.11,0.55-0.29,1.21-0.1,1.87c0.18,0.64,0.75,1.18,1.47,1.23c0.35,0.04,0.7-0.03,0.99-0.14
		c0.29-0.1,0.54-0.22,0.77-0.35c0.12-0.07,0.24-0.14,0.34-0.27c0.1-0.12,0.17-0.28,0.22-0.43c0.09-0.3,0.18-0.58,0.29-0.82
		c0.1-0.23,0.21-0.42,0.29-0.58c0.04-0.08,0.07-0.16,0.11-0.24l0.03-0.06c0.01-0.02,0.02-0.03,0.04-0.1
		c0.03-0.1,0.06-0.21,0.08-0.33c0.04-0.24,0.03-0.52-0.06-0.82C75.68,60.19,75.49,59.92,75.28,59.74z M73.89,61.25
		c-0.03-0.01-0.06-0.05-0.08-0.1C73.9,61.2,73.94,61.26,73.89,61.25z M73.8,61.06c0,0.01,0.01,0.02,0,0.04c0,0,0,0.01,0,0.03
		c0,0,0,0,0,0C73.78,61.08,73.79,61.05,73.8,61.06z M74.35,63.95c-0.2,0.12-0.46,0.12-0.67,0.01c-0.21-0.11-0.35-0.32-0.45-0.5
		c-0.19-0.39-0.33-0.61-0.64-0.85c-0.3-0.22-0.71-0.58-0.69-1.03c0-0.21,0.1-0.42,0.25-0.55c0.15-0.13,0.35-0.17,0.51-0.15
		c0.37,0.05,0.8,0.12,1.07,0.23c0.02,0.01,0.04,0.02,0.06,0.03c0,0.01,0,0.03-0.01,0.05l-0.02,0.12c-0.03,0.16-0.03,0.33-0.03,0.5
		c0.02,0.34,0.15,0.66,0.3,0.92c0.16,0.27,0.35,0.48,0.45,0.68C74.61,63.61,74.56,63.83,74.35,63.95z"/>
	<path class="st1" d="M72.63,68.09c-0.38-0.31-0.74-0.36-1.02-0.38c-0.58-0.03-1.05,0.12-1.47,0.51c-0.23,0.2-0.38,0.46-0.46,0.69
		c-0.09,0.23-0.14,0.45-0.2,0.66c-0.09,0.41-0.3,0.94-0.18,1.48c0.11,0.52,0.59,0.96,1.19,0.95c0.29,0.01,0.57-0.09,0.8-0.18
		c0.23-0.11,0.4-0.21,0.58-0.3c0.18-0.08,0.38-0.29,0.46-0.53c0.09-0.24,0.19-0.45,0.3-0.61c0.12-0.17,0.23-0.28,0.3-0.38
		c0.04-0.05,0.06-0.09,0.09-0.14l0.02-0.03c0.01-0.01,0.01-0.02,0.03-0.07c0.03-0.08,0.05-0.18,0.07-0.28
		c0.03-0.2,0.03-0.46-0.06-0.72C72.99,68.48,72.82,68.24,72.63,68.09z M71.29,69.54c0.07,0.04,0.07,0.12-0.04,0.05
		c-0.04-0.02-0.07-0.07-0.1-0.12C71.2,69.49,71.25,69.52,71.29,69.54z M71.11,69.21c0.01-0.01,0,0.02,0,0.06l-0.01,0.08
		c-0.01-0.06-0.01-0.12,0-0.13C71.1,69.21,71.1,69.21,71.11,69.21z M71.76,71.34c-0.14,0.09-0.33,0.08-0.47-0.04
		c-0.14-0.1-0.22-0.3-0.26-0.45c-0.07-0.33-0.11-0.45-0.35-0.57c-0.23-0.1-0.62-0.32-0.61-0.64c0-0.15,0.07-0.29,0.18-0.36
		c0.11-0.08,0.26-0.07,0.36-0.02c0.16,0.07,0.34,0.13,0.48,0.18c-0.01,0.11-0.02,0.22-0.01,0.32c0.03,0.27,0.15,0.52,0.31,0.72
		C71.68,70.88,72.09,71.11,71.76,71.34z"/>
	<path class="st1" d="M67.91,50.77c0.01-0.33-0.11-0.62-0.44-0.84c-1.16-0.15-1.96-0.89-3.3-0.71c-0.34,0.04-0.76-0.23-1,0.16
		c-0.19,0.32-0.13,0.65,0.14,0.91c0.22,0.21,0.68,0.3,0.73,0.62c0,0,0.08,0.01,0.08,0.01c0.06,0.05,0.11,0.1,0.17,0.15l0.05,0.04
		c0.43,0.5,1.29,0.15,1.84,0.32C67.19,51.73,67.3,50.92,67.91,50.77z"/>
	<path class="st1" d="M56.48,49.93c-0.16,0.01-0.32,0.02-0.49,0.03c-0.33,0.43-0.18,0.82,0.09,1.16c0.38,0.47,0.53,0.99,0.52,1.55
		c0.19,0.25,0.38,0.51,0.57,0.76c0.55,0.3,1.18,0.35,1.86,0.06c0.77-0.33,0.25-0.72,0.33-1.09c0.12-0.57,0.31-1.05-0.67-1.23
		c-0.2-0.04-0.13-0.18,0-0.29c0.25-0.21,0.56-0.24,0.8-0.11c0.35,0.18,0.6,0.45,0.97,0.62c0.49,0.22,1.2,0.65,1.64,0.26
		c0.49-0.42,0.49-1.17-0.16-1.52c-0.98-0.53-2.15-0.86-3.55-0.57c-0.09,0.25,0.08,0.33,0.21,0.44c0.18,0.16,0.36,0.34,0.02,0.53
		c-0.28,0.16-0.58,0.1-0.83-0.02c-0.36-0.17-0.71-0.35-1.06-0.53l-0.01-0.01C56.65,49.96,56.56,49.94,56.48,49.93z"/>
	<path class="st1" d="M54.41,53.41c0.62-0.08,0.85-0.32,0.7-0.72c-0.42-0.4-0.37-0.99-0.98-1.34c-0.14-0.08-0.07-0.32,0.15-0.47
		c-0.72-0.59-1.85-0.68-2.82-0.96c-0.82,0.79-1.85,0.38-2.79,0.45c-0.76,0.16-1.39-0.2-2.14-0.08c-0.22,0.13-0.57,0.15-0.63,0.4
		c0.04,0.05,0.09,0.1,0.13,0.16c-0.1,0-0.19,0.01-0.29,0.01c-0.71,0.12-1.22-0.1-1.7-0.36c-0.17,0.01-0.34,0.02-0.52,0.03
		c0.03,0.61-0.43,0.43-0.85,0.31c-0.34-0.03-0.68-0.05-1.02-0.08c-0.77,0.21-1.42,0.62-2.29,0.68c-0.41,0.03-0.75,0.29-0.92,0.62
		c-0.44,0.87-1.46,1.05-2.5,0.99c-0.64-0.04-1.08,0-1.59,0.35c-0.33,0.23-0.83,0.37-1.29,0.47c-0.72,0.15-1.22,0.41-1.62,0.89
		c-0.57,0.68-1.43,1.2-2.48,1.53c-0.16,0.1-0.32,0.19-0.48,0.29c0,0.81-0.64,1.17-1.76,1.29c-0.46,0.05-1.11,0.12-1.21,0.59
		c-0.09,0.4,0.23,0.66,0.75,0.78c0.34,0.08,0.6,0.2,0.52,0.49c-0.28,0.96,0.43,0.68,1.18,0.39c0.28-0.11,0.52-0.4,0.9-0.2
		c0.13-0.06,0.25-0.11,0.38-0.17c0.41-0.39,0.85-0.62,1.38-0.22c0.16-0.05,0.32-0.11,0.48-0.16c0.32-0.21,0.63-0.41,0.95-0.62
		c0.47-0.33,0.94-0.67,1.41-1c0.71-0.52,0.87-1.18,1.26-1.78c0.06-0.1,0.2-0.15,0.16-0.31c-0.19-0.69,0.15-1.01,0.99-0.81
		c0.87,0.2,1.47-0.09,2.18-0.32c2.29-0.27,4.23-1.52,6.58-1.63c0.2-0.22-0.69-0.43,0.03-0.61c0.47-0.12,0.39,0.26,0.43,0.48
		c0.02,0.08-0.01,0.18-0.02,0.26c0,0,0.07,0.04,0.07,0.04c0.62-0.11,1.3-0.05,1.78-0.49c0.17-0.19,0.26-0.49,0.7-0.24
		c0.3,0.17,0.63,0.32,0.94,0.48c0.49-0.02,0.96,0.48,1.48-0.21c0.23-0.3,1.01-0.29,1.41-0.08C52.32,53,53.51,53.01,54.41,53.41z"/>
</g>
</svg>
