<?xml version="1.0" encoding="utf-8"?>
<!-- Generator: Adobe Illustrator 24.1.2, SVG Export Plug-In . SVG Version: 6.00 Build 0)  -->
<svg version="1.1" id="Layer_1" xmlns="http://www.w3.org/2000/svg" xmlns:xlink="http://www.w3.org/1999/xlink" x="0px" y="0px"
	 viewBox="0 0 128 128" style="enable-background:new 0 0 128 128;" xml:space="preserve">
<style type="text/css">
	.st0{fill:#2D2D2D;}
</style>
<path class="st0" d="M126.5,38h-2.8c-0.8,0-1.5,0.7-1.5,1.5v6.4c-9.5-0.7-19.1-1-28.6-1.1c-5,0-9.9,0.1-14.9,0.1
	c-5,0.1-9.9,0.2-14.9,0.5c-5,0.2-9.9,0.3-14.9,0.3c-2.5,0-5-0.2-7.4-0.3l-7.4-0.3c-5-0.1-9.9-0.1-14.9,0.1
	c-4.6,0.1-9.1,0.3-13.7,0.7v-6.4C5.7,38.7,5,38,4.2,38H1.5C0.7,38,0,38.7,0,39.5v87c0,0.8,0.7,1.5,1.5,1.5h2.8c0.6,0,1.2-0.4,1.4-1
	c9,0.4,18,0.6,27,0.7c5.2,0.1,10.5,0.1,15.7,0.2L64,128l15.7-0.1c5.2-0.1,10.5-0.1,15.7-0.2c9-0.1,18-0.4,27-0.7
	c0.2,0.6,0.7,1,1.4,1h2.8c0.8,0,1.5-0.7,1.5-1.5v-87C128,38.7,127.3,38,126.5,38z M3.3,125.6h-1V40.3h1V125.6z M122.3,46.3v1.9
	c-0.8,0.7-1.6,1.5-2.3,2.2c-0.1-0.1-0.2-0.2-0.2-0.3c-0.8-0.8-1.7-1.6-2.5-2.3c-0.5-0.4-1-0.8-1.5-1.1
	C117.9,46.6,120.1,46.5,122.3,46.3z M121,118.7c-0.7,0.5-1.3,1.1-1.9,1.7c-1.3-1.4-2.7-2.8-4-4.2c0.6-0.5,1.1-1,1.7-1.5
	c1-1,2.1-2.1,3.1-3.1c0.8,0.8,1.7,1.6,2.5,2.3v3.8C121.9,118.1,121.5,118.4,121,118.7z M122.3,119v4.7c-0.7-0.8-1.4-1.5-2.2-2.3
	c0.6-0.6,1.2-1.3,1.7-1.9C122.1,119.4,122.2,119.2,122.3,119z M88.2,81.1c-1.3,1.3-2.6,2.6-4,3.9c-1.3-1.3-2.7-2.6-4-3.9
	c1.3-1.3,2.6-2.6,4-3.9C85.5,78.4,86.8,79.7,88.2,81.1z M85.3,76c1.3-1.3,2.6-2.6,3.9-4c1.3,1.3,2.7,2.7,4,4c-1.3,1.3-2.6,2.6-4,3.9
	C87.9,78.6,86.6,77.3,85.3,76z M83.1,86c-0.1,0.1-0.1,0.1-0.2,0.2c-1.3,1.3-2.6,2.6-3.8,3.8c-1.3-1.3-2.6-2.6-3.9-4
	c1.3-1.3,2.6-2.6,4-4C80.5,83.4,81.8,84.7,83.1,86z M79.2,80c-1.3-1.3-2.7-2.6-4-4c1.3-1.3,2.6-2.7,4-4c1.3,1.3,2.7,2.7,4,4
	C81.8,77.4,80.5,78.7,79.2,80z M78.1,81c-1.3,1.3-2.7,2.6-4,3.9c-1.3-1.3-2.6-2.6-3.9-3.9c1.3-1.3,2.6-2.6,4-4
	C75.4,78.4,76.8,79.7,78.1,81z M73,86C73,86,73,86,73,86c-1.3,1.3-2.6,2.6-3.9,3.9c-1.3-1.3-2.6-2.6-3.9-3.9
	c1.3-1.3,2.6-2.6,3.9-3.9C70.4,83.4,71.7,84.7,73,86z M69.1,80c-0.6-0.6-1.1-1.1-1.7-1.7c-0.8-0.7-1.5-1.5-2.3-2.2
	c1.3-1.3,2.7-2.7,4-4c1.3,1.3,2.7,2.7,4,4C71.7,77.3,70.4,78.7,69.1,80z M66.3,79.3c0.6,0.6,1.2,1.1,1.7,1.7
	c-1.3,1.3-2.6,2.6-3.9,3.8c-1.2-1.2-2.5-2.5-3.7-3.7c-0.1-0.1-0.2-0.2-0.3-0.3c1.3-1.3,2.6-2.6,3.9-3.8
	C64.8,77.8,65.5,78.6,66.3,79.3z M63,86c0,0-0.1,0.1-0.1,0.1c-1.3,1.3-2.7,2.6-4,4c-1.3-1.3-2.6-2.6-3.9-3.9
	c1.4-1.4,2.7-2.7,4.1-4.1c0.1,0.1,0.2,0.2,0.3,0.3L63,86z M59.1,79.9c-1.3-1.3-2.7-2.6-4-3.9c1.3-1.3,2.6-2.6,3.9-3.9
	c1.3,1.3,2.7,2.7,4,4C61.7,77.3,60.4,78.6,59.1,79.9z M58,81c-1.4,1.3-2.7,2.7-4.1,4c-1.1-1.1-2.1-2.1-3.2-3.2
	c-0.3-0.3-0.5-0.5-0.8-0.8c1.4-1.4,2.7-2.7,4.1-4.1C55.3,78.3,56.6,79.7,58,81z M52.8,86.1c-1.3,1.3-2.6,2.6-3.9,3.9
	c-1.3-1.3-2.5-2.5-3.8-3.8C45,86.2,45,86.1,44.9,86c1.3-1.3,2.6-2.6,3.9-3.9c0.3,0.3,0.5,0.5,0.8,0.8C50.6,84,51.7,85,52.8,86.1z
	 M48.8,80c-1.3-1.3-2.7-2.6-4-3.9c1.4-1.4,2.7-2.7,4.1-4.1c1.3,1.3,2.7,2.7,4,4C51.6,77.3,50.2,78.7,48.8,80z M47.7,81.1
	c-1.3,1.3-2.6,2.6-3.9,3.8c-1.3-1.3-2.6-2.6-4-3.9c1.3-1.3,2.6-2.6,3.9-3.9C45.1,78.5,46.4,79.8,47.7,81.1z M42.7,86
	c-1.3,1.3-2.6,2.6-3.9,3.9c-1.3-1.3-2.7-2.6-4-3.9c1.3-1.3,2.7-2.6,4-3.9C40.1,83.4,41.4,84.7,42.7,86z M38.8,80
	c-1.3-1.3-2.6-2.6-4-3.9c1.3-1.3,2.6-2.6,4-4c1.3,1.3,2.6,2.6,3.9,4C41.4,77.4,40.1,78.7,38.8,80z M37.7,81c-1.3,1.3-2.6,2.6-4,4
	c-1.3-1.3-2.7-2.6-4-3.9c1.3-1.3,2.7-2.6,4-4C35.1,78.4,36.4,79.7,37.7,81z M32.7,86c-1.3,1.3-2.6,2.6-4,4c-1.4-1.3-2.7-2.6-4.1-4
	c1.4-1.3,2.7-2.6,4.1-4C30,83.4,31.3,84.7,32.7,86z M28.6,80c-1.3-1.3-2.7-2.6-4-3.9c1.4-1.4,2.8-2.7,4.1-4.1
	c1.3,1.3,2.6,2.6,3.9,3.9C31.3,77.3,30,78.7,28.6,80z M27.7,81c-1.3,1.4-2.7,2.7-4,4.1c-1.3-1.3-2.7-2.6-4-3.9c0,0-0.1-0.1-0.1-0.1
	c1.4-1.4,2.8-2.7,4.2-4.1C25,78.3,26.3,79.7,27.7,81z M23.6,87c1.3,1.4,2.7,2.7,4,4.1c-1.3,1.3-2.6,2.7-4,4
	c-1.4-1.4-2.8-2.7-4.2-4.1c0,0,0.1-0.1,0.1-0.1C21,89.6,22.3,88.3,23.6,87z M28.6,92.1c1.3,1.3,2.7,2.7,4,4c-1.3,1.3-2.6,2.6-3.9,4
	c-1.4-1.4-2.8-2.7-4.1-4.1C26,94.7,27.3,93.4,28.6,92.1z M29.7,91c1.3-1.3,2.7-2.6,4-3.9c1.3,1.3,2.6,2.6,4,4
	c-1.3,1.3-2.6,2.6-3.9,3.9C32.4,93.7,31.1,92.3,29.7,91z M38.8,92.1c0,0,0.1,0.1,0.1,0.1c1.3,1.3,2.6,2.5,3.9,3.8
	c-1.3,1.3-2.6,2.6-3.9,4c-1.3-1.3-2.6-2.6-3.9-3.9c0,0-0.1-0.1-0.1-0.1C36.1,94.7,37.4,93.4,38.8,92.1z M40,91.2
	c0,0-0.1-0.1-0.1-0.1c1.3-1.3,2.6-2.6,4-3.9c0.1,0.1,0.1,0.1,0.2,0.2c1.3,1.3,2.5,2.5,3.8,3.7c-1.3,1.3-2.6,2.6-4,3.9
	C42.6,93.7,41.3,92.4,40,91.2z M48.9,92.1c1.3,1.3,2.7,2.6,4,3.9c-1.3,1.3-2.6,2.7-4,4c-1.3-1.3-2.7-2.7-4-4
	C46.2,94.7,47.5,93.4,48.9,92.1z M50,91.1c1.3-1.3,2.6-2.6,3.9-3.9c1.3,1.3,2.6,2.6,4,3.9c-1.3,1.3-2.6,2.6-3.9,3.9
	C52.6,93.7,51.3,92.4,50,91.1z M58.9,92.2c1.3,1.3,2.7,2.6,4,3.9c-1.3,1.3-2.6,2.7-4,4c-1.3-1.3-2.7-2.7-4-4
	C56.3,94.8,57.6,93.5,58.9,92.2z M60,91.1c1.3-1.3,2.7-2.6,4-4c0,0,0.1-0.1,0.1-0.1l4,3.9c-1.4,1.4-2.8,2.8-4.2,4.2
	C62.6,93.8,61.3,92.5,60,91.1z M69.2,92l4,3.9c-1.4,1.4-2.9,2.9-4.3,4.3c-0.1-0.1-0.2-0.2-0.3-0.3c-1.2-1.3-2.5-2.5-3.7-3.8
	C66.4,94.8,67.8,93.4,69.2,92z M70.2,91c1.3-1.3,2.6-2.6,3.9-3.8c0,0,0,0,0,0c1.3,1.3,2.7,2.6,4,3.9c-1.3,1.3-2.7,2.6-4,4
	C72.8,93.6,71.5,92.3,70.2,91z M79.2,92.1c1.2,1.2,2.4,2.3,3.6,3.5c0.1,0.1,0.3,0.3,0.4,0.4c-1.4,1.4-2.7,2.7-4.1,4.1
	c-0.3-0.4-0.7-0.7-1-1.1c-1-1-1.9-2-2.9-2.9C76.5,94.7,77.9,93.4,79.2,92.1z M80.2,91.1c1.3-1.3,2.6-2.5,3.9-3.8
	c0.1-0.1,0.1-0.1,0.2-0.2c1.3,1.3,2.6,2.6,4,3.9c0,0-0.1,0.1-0.1,0.1c-1.3,1.3-2.6,2.6-3.9,3.9c-0.1-0.1-0.3-0.3-0.4-0.4
	C82.5,93.5,81.4,92.3,80.2,91.1z M85.3,86c1.3-1.3,2.6-2.6,3.9-3.9c1.3,1.3,2.7,2.6,4,3.9c-1.3,1.3-2.7,2.6-4,3.9
	C87.9,88.7,86.6,87.3,85.3,86z M90.3,81c1.3-1.3,2.6-2.6,3.9-3.9c1.3,1.3,2.7,2.6,4,4c-1.3,1.3-2.7,2.6-4,3.9
	C93,83.7,91.7,82.3,90.3,81z M95.4,76c1.3-1.3,2.6-2.6,3.9-3.9c1.4,1.4,2.8,2.7,4.1,4.1c-1.3,1.3-2.7,2.6-4,3.9
	C98.1,78.7,96.7,77.3,95.4,76z M99.3,82.1c1.4,1.3,2.7,2.7,4.1,4c-1.4,1.3-2.7,2.6-4.1,4c-1.3-1.3-2.6-2.7-4-4
	C96.7,84.7,98,83.4,99.3,82.1z M100.4,81c1.3-1.3,2.6-2.7,4-4c1.4,1.4,2.8,2.7,4.2,4.1c0,0-0.1,0.1-0.1,0.1c-1.3,1.3-2.7,2.6-4,3.9
	C103.1,83.7,101.7,82.4,100.4,81z M109.3,82.1c0,0,0.1-0.1,0.1-0.2c0.5,0.5,1,1,1.6,1.5c0.9,0.9,1.9,1.7,2.8,2.6
	c-0.9,0.9-1.9,1.8-2.8,2.7c-0.5,0.5-1,1-1.5,1.4c-0.1-0.1-0.1-0.1-0.2-0.2c-1.3-1.3-2.6-2.6-3.9-4C106.7,84.7,108,83.4,109.3,82.1z
	 M105.4,76c0.4-0.4,0.9-0.9,1.3-1.3c0.9-0.9,1.7-1.8,2.6-2.7c1.4,1.4,2.8,2.7,4.3,4.1c0.1,0,0.1,0.1,0.2,0.1c-1.4,1.3-2.8,2.7-4.2,4
	C108.1,78.8,106.8,77.4,105.4,76z M105.4,65.9c1.3-1.3,2.6-2.7,3.9-4c1.5,1.4,3,2.9,4.5,4.3c-1.4,1.3-2.7,2.6-4.1,3.9
	C108.2,68.7,106.8,67.3,105.4,65.9z M108.5,71.2c-0.9,0.9-1.8,1.7-2.7,2.6c-0.5,0.4-0.9,0.9-1.3,1.3c-1.4-1.4-2.7-2.7-4.1-4.1
	c1.3-1.3,2.5-2.5,3.8-3.8c0-0.1,0.1-0.1,0.1-0.2C105.7,68.4,107.1,69.8,108.5,71.2z M103.3,66.3c-1.3,1.2-2.6,2.5-3.8,3.7
	c-1.4-1.4-2.8-2.7-4.2-4.1c1.3-1.3,2.6-2.7,3.9-4c1.4,1.4,2.8,2.8,4.2,4.3C103.4,66.2,103.3,66.2,103.3,66.3z M98.3,71.1
	c-1.3,1.3-2.7,2.6-4,3.9c-1.4-1.3-2.7-2.7-4.1-4c1.3-1.3,2.6-2.6,3.9-4C95.6,68.4,97,69.7,98.3,71.1z M89.3,70
	c-1.4-1.4-2.8-2.7-4.2-4.1c1.3-1.4,2.7-2.7,4-4.1c1.4,1.4,2.8,2.9,4.2,4.3C92,67.4,90.7,68.7,89.3,70z M88.2,71.1
	c-1.3,1.3-2.7,2.6-4,3.9c-1.4-1.3-2.7-2.7-4.1-4c1.3-1.3,2.6-2.6,3.9-4c0,0,0,0,0.1-0.1C85.5,68.3,86.9,69.7,88.2,71.1z M83.2,66.1
	c-1.3,1.3-2.7,2.6-4,3.9c-1.4-1.4-2.8-2.7-4.2-4.1c1.4-1.4,2.7-2.8,4.1-4.2C80.5,63.2,81.9,64.7,83.2,66.1
	C83.3,66.1,83.2,66.1,83.2,66.1z M78.2,71.1c-1.4,1.3-2.7,2.6-4.1,4c-1.4-1.3-2.7-2.7-4.1-4c1.4-1.4,2.7-2.7,4.1-4.1
	C75.4,68.3,76.8,69.7,78.2,71.1z M69.1,70.1c-1.4-1.4-2.8-2.7-4.2-4.1c1.4-1.4,2.8-2.8,4.1-4.3c0.7,0.7,1.4,1.4,2.1,2.1
	c0.7,0.7,1.4,1.4,2.1,2.1C71.8,67.4,70.5,68.7,69.1,70.1z M68.1,71c-1.4,1.3-2.7,2.6-4.1,4c-1.4-1.3-2.7-2.7-4.1-4
	c1.3-1.4,2.7-2.7,4-4.1C65.4,68.3,66.7,69.6,68.1,71z M59,70c-1.4-1.4-2.8-2.7-4.2-4c0.7-0.7,1.4-1.4,2.1-2.1
	c0.7-0.7,1.4-1.4,2.1-2.1c1.4,1.4,2.8,2.8,4.1,4.3C61.8,67.3,60.4,68.7,59,70z M58,71.1c-1.3,1.3-2.6,2.6-4,3.9
	c-1.3-1.3-2.7-2.6-4.1-4c1.3-1.3,2.6-2.7,4-4C55.3,68.3,56.6,69.7,58,71.1z M48.9,70c-1.4-1.3-2.7-2.7-4.1-4
	c1.4-1.4,2.7-2.8,4.1-4.1c0.3,0.3,0.7,0.7,1,1c1,1,2.1,2.1,3.1,3.1C51.6,67.3,50.3,68.7,48.9,70z M47.9,71c-1.4,1.4-2.8,2.7-4.1,4.1
	c-1.3-1.3-2.7-2.6-4-3.9c1.4-1.4,2.8-2.8,4.1-4.2C45.3,68.3,46.6,69.6,47.9,71z M38.7,70c-1.3-1.3-2.7-2.6-4-3.9
	c1.4-1.4,2.8-2.9,4.2-4.3c1.3,1.4,2.7,2.7,4,4.1C41.5,67.3,40.1,68.7,38.7,70z M37.7,71c-1.3,1.3-2.7,2.6-4,4
	c-1.3-1.3-2.7-2.6-4-3.9c1.4-1.4,2.7-2.7,4.1-4.1C35.1,68.4,36.4,69.7,37.7,71z M28.6,70c-1.3-1.2-2.5-2.5-3.8-3.7
	c-0.1,0-0.1-0.1-0.2-0.1c1.4-1.4,2.8-2.8,4.2-4.2c0.9,1,1.9,1.9,2.8,2.9c0.4,0.4,0.8,0.8,1.1,1.2C31.3,67.3,30,68.7,28.6,70z
	 M27.7,70.9c-1.4,1.4-2.7,2.7-4.1,4.1c-0.5-0.4-0.9-0.9-1.3-1.3c-0.9-0.9-1.8-1.7-2.7-2.6c1.4-1.4,2.8-2.8,4.3-4.2
	c0,0.1,0.1,0.1,0.1,0.2C25.2,68.4,26.4,69.7,27.7,70.9z M18.4,70.1c-1.4-1.3-2.7-2.6-4.1-3.9c1.5-1.4,3-2.9,4.5-4.3
	c1.3,1.3,2.6,2.7,3.9,4C21.3,67.3,19.8,68.7,18.4,70.1z M18.7,71.9c0.9,0.9,1.7,1.8,2.6,2.7c0.4,0.4,0.9,0.9,1.3,1.3
	c-1.4,1.4-2.8,2.8-4.1,4.2c-1.4-1.3-2.8-2.7-4.2-4c0.1,0,0.1-0.1,0.2-0.1C15.9,74.6,17.3,73.3,18.7,71.9z M18.6,81.9
	c0,0,0.1,0.1,0.1,0.2c1.3,1.3,2.6,2.7,3.9,4c-1.3,1.3-2.6,2.6-3.9,4c-0.1,0.1-0.1,0.1-0.2,0.2c-0.5-0.5-1-1-1.5-1.4
	c-0.9-0.9-1.9-1.8-2.8-2.7c0.9-0.9,1.9-1.7,2.8-2.6C17.6,82.9,18.1,82.4,18.6,81.9z M22.7,96.1c-0.4,0.4-0.9,0.9-1.3,1.3
	c-0.9,0.9-1.8,1.8-2.6,2.7c-1.3-1.3-2.7-2.6-4.1-3.9c-0.1-0.1-0.2-0.2-0.4-0.3c1.4-1.3,2.8-2.7,4.3-4C19.9,93.3,21.3,94.7,22.7,96.1
	z M22.7,106.2c-1.3,1.3-2.6,2.7-3.9,4c-1.5-1.5-3-2.9-4.5-4.3c1.4-1.3,2.8-2.6,4.1-3.9C19.8,103.4,21.3,104.8,22.7,106.2z
	 M19.5,100.9c0.9-0.9,1.8-1.7,2.7-2.6c0.4-0.4,0.9-0.9,1.3-1.3c1.4,1.4,2.7,2.8,4.1,4.1c-1.2,1.2-2.4,2.4-3.6,3.6
	c-0.1,0.1-0.2,0.2-0.4,0.4C22.3,103.7,20.9,102.3,19.5,100.9z M25,105.6c1.2-1.2,2.4-2.4,3.6-3.5c0.1,0.1,0.1,0.1,0.2,0.2
	c1.3,1.3,2.7,2.6,4,3.9c0,0,0,0,0,0c-1.3,1.3-2.6,2.7-3.9,4c-1.3-1.3-2.7-2.7-4-4c-0.1-0.1-0.2-0.2-0.2-0.2
	C24.7,105.8,24.9,105.7,25,105.6z M29.9,101.1c0,0-0.1-0.1-0.1-0.1c1.3-1.3,2.7-2.6,4-3.9c0,0,0.1,0.1,0.1,0.1
	c1.3,1.3,2.6,2.6,4,3.9c-1.3,1.3-2.6,2.6-3.9,4C32.5,103.8,31.2,102.4,29.9,101.1z M38.7,102.1c1.4,1.4,2.8,2.7,4.2,4.1
	c0,0-0.1,0.1-0.1,0.1c-1.3,1.3-2.6,2.6-3.9,3.9c-1.4-1.4-2.8-2.8-4.2-4.2C36,104.7,37.4,103.4,38.7,102.1z M39.8,101
	c1.3-1.3,2.7-2.6,4-3.9c1.4,1.3,2.7,2.7,4.1,4c-1.3,1.3-2.7,2.7-4,4C42.5,103.8,41.2,102.4,39.8,101z M48.8,102
	c1.4,1.4,2.8,2.7,4.2,4.1c-0.1,0.1-0.1,0.1-0.2,0.2c-1.3,1.3-2.6,2.7-3.9,4c-1.4-1.4-2.8-2.8-4.2-4.3
	C46.1,104.7,47.5,103.4,48.8,102z M49.9,101c1.3-1.3,2.7-2.6,4-3.9c1.4,1.3,2.7,2.7,4.1,4c-1.4,1.4-2.7,2.7-4.1,4.1
	C52.6,103.8,51.2,102.4,49.9,101z M59,102c1.4,1.4,2.8,2.7,4.2,4.1c-0.1,0.1-0.2,0.2-0.3,0.3c-1.3,1.3-2.6,2.6-3.8,3.9
	c-0.5-0.5-1-1-1.4-1.5c-0.9-0.9-1.8-1.8-2.7-2.8C56.2,104.7,57.6,103.4,59,102z M59.9,101.1c1.3-1.3,2.7-2.6,4.1-3.9
	c1.3,1.2,2.5,2.5,3.8,3.7c0.1,0.1,0.2,0.2,0.3,0.3c-1.4,1.4-2.7,2.7-4.1,4.1C62.7,103.8,61.3,102.4,59.9,101.1z M69,102
	c1.4,1.3,2.8,2.7,4.2,4c-0.9,0.9-1.8,1.8-2.7,2.8c-0.5,0.5-1,1-1.4,1.5c-1.3-1.3-2.6-2.6-3.8-3.9c-0.1-0.1-0.2-0.2-0.3-0.3
	C66.3,104.7,67.7,103.4,69,102z M69.9,101.2c1.5-1.4,2.9-2.8,4.4-4.3l3,2.9l1.1,1c-1.5,1.5-3,3-4.4,4.5
	C72.6,104,71.2,102.6,69.9,101.2z M79.4,101.9l4.1,3.9c-1.5,1.6-3.1,3.1-4.6,4.7c-1.3-1.4-2.7-2.8-4-4.2
	C76.3,104.8,77.8,103.4,79.4,101.9z M80.2,101.1c1.4-1.4,2.8-2.7,4.2-4.1c1.3,1.3,2.7,2.6,4.1,3.9c-1.4,1.4-2.8,2.9-4.3,4.3
	C82.8,103.8,81.5,102.4,80.2,101.1z M85.2,96.2c1.3-1.3,2.7-2.6,4-3.9c0,0,0.1-0.1,0.1-0.1c1.3,1.3,2.6,2.6,4,3.9
	c0,0-0.1,0.1-0.1,0.1c-1.4,1.4-2.7,2.7-4.1,4.1C87.8,98.9,86.5,97.5,85.2,96.2z M90.3,91.1c1.3-1.3,2.6-2.6,4-4
	c1.3,1.3,2.7,2.6,4,3.9c-1.3,1.3-2.7,2.6-4,4C93,93.7,91.7,92.4,90.3,91.1z M99.4,92.1c1.3,1.3,2.7,2.6,4,3.9
	c-1.4,1.3-2.8,2.7-4.1,4.1c-1.3-1.3-2.6-2.6-3.9-4C96.7,94.8,98.1,93.4,99.4,92.1z M100.4,91.1c1.3-1.4,2.7-2.7,4-4.1
	c1.3,1.3,2.7,2.6,4,3.9c0,0,0.1,0.1,0.1,0.1c-1.4,1.4-2.8,2.7-4.2,4.1C103,93.7,101.7,92.4,100.4,91.1z M109.5,91.9
	c1.4,1.3,2.7,2.6,4.1,3.9c-1.2,1.1-2.3,2.2-3.4,3.3c-0.3,0.3-0.6,0.6-0.9,0.9c-0.8-0.9-1.7-1.7-2.5-2.6c-0.4-0.4-0.9-0.9-1.3-1.3
	C106.8,94.7,108.1,93.3,109.5,91.9z M111.3,100.2c1.1-1.1,2.3-2.3,3.4-3.4c1.4,1.3,2.8,2.6,4.2,3.9c-0.4,0.3-0.8,0.6-1.1,0.9
	c-1.3,1.1-2.5,2.2-3.8,3.3c-1.2-1.2-2.4-2.5-3.6-3.7C110.6,100.9,111,100.6,111.3,100.2z M114.3,95.2c-1.3-1.4-2.6-2.7-4-4.1
	c0.5-0.5,1-1,1.5-1.5c0.9-0.9,1.8-1.9,2.7-2.8c1.5,1.4,3,2.8,4.5,4.2c-0.7,0.6-1.4,1.2-2.1,1.9C116,93.6,115.1,94.4,114.3,95.2z
	 M111.9,82.6c-0.5-0.5-1-1-1.5-1.6c1.4-1.4,2.7-2.8,4.1-4.2c1.5,1.5,3.1,2.9,4.7,4.3c-1.5,1.4-3.1,2.8-4.6,4.3
	C113.6,84.4,112.8,83.5,111.9,82.6z M114.5,75.1c-1.4-1.4-2.7-2.8-4.1-4.3c1.3-1.4,2.7-2.7,4-4.1c0.6,0.5,1.1,1.1,1.7,1.6
	c1,0.9,2.1,1.9,3.1,2.8c-1.5,1.4-3,2.8-4.4,4.1C114.6,75.3,114.5,75.2,114.5,75.1z M110.3,60.8c1.3-1.3,2.6-2.7,3.9-4
	c1.4,1.3,2.8,2.7,4.2,3.9c0.2,0.2,0.4,0.3,0.6,0.5c-1.4,1.3-2.9,2.7-4.3,4C113.3,63.8,111.8,62.3,110.3,60.8z M109.7,60.1
	c0,0-0.1-0.1-0.1-0.1c-1.5-1.4-2.9-2.9-4.4-4.3c1.3-1.4,2.7-2.8,4-4.2c1.4,1.5,2.8,3,4.3,4.5c0.1,0.1,0.2,0.2,0.2,0.2
	C112.3,57.6,111,58.9,109.7,60.1z M108.5,61.1C108.5,61.2,108.5,61.2,108.5,61.1c-1.2,1.4-2.6,2.6-3.9,3.9c-1.4-1.4-2.9-2.8-4.3-4.2
	c1.3-1.4,2.6-2.7,4-4C105.6,58.2,107,59.7,108.5,61.1z M99.5,60.2c-1.5-1.4-3-2.9-4.5-4.3c0,0,0,0-0.1-0.1c1.4-1.4,2.8-2.9,4.2-4.4
	c0.7,0.7,1.3,1.5,2,2.2c0.8,0.9,1.6,1.7,2.5,2.6C102.3,57.5,100.9,58.9,99.5,60.2z M98.5,61.2c-1.4,1.3-2.7,2.6-4.1,3.9
	c-1.4-1.4-2.9-2.8-4.4-4.2c1.4-1.4,2.7-2.8,4.1-4.2c0,0,0,0,0,0C95.6,58.2,97,59.7,98.5,61.2z M89.4,60.2c-0.7-0.6-1.3-1.3-2-1.9
	c-0.8-0.8-1.7-1.6-2.5-2.4c1.4-1.5,2.9-3,4.3-4.5c1.5,1.6,3,3.2,4.5,4.8C92.2,57.5,90.8,58.9,89.4,60.2z M86.5,59.1
	c0.6,0.7,1.3,1.3,1.9,2c-1.4,1.3-2.8,2.7-4.2,4c-1.4-1.4-2.9-2.8-4.3-4.2c1.4-1.4,2.8-2.8,4.2-4.3C84.9,57.5,85.7,58.3,86.5,59.1z
	 M79.2,60.3c-1.5-1.4-3-2.9-4.5-4.3c1.5-1.5,2.9-3.1,4.4-4.6c1.5,1.6,3,3.2,4.5,4.7C82.1,57.5,80.7,58.9,79.2,60.3z M78.4,61.1
	c-1.4,1.4-2.8,2.7-4.2,4.1c-0.7-0.7-1.4-1.4-2.2-2.1c-0.7-0.7-1.4-1.4-2.2-2.1c1.4-1.5,2.8-2.9,4.3-4.4
	C75.5,58.1,76.9,59.6,78.4,61.1z M69.1,60.3c-1.5-1.4-3-2.9-4.5-4.3c1.5-1.5,3-3.1,4.4-4.7c1.5,1.6,3,3.2,4.5,4.7
	C72,57.5,70.6,58.9,69.1,60.3z M68.3,61c-1.4,1.4-2.9,2.8-4.3,4.1c-1.4-1.4-2.9-2.8-4.3-4.1c1.4-1.5,2.9-3,4.3-4.4
	C65.5,58.1,66.9,59.6,68.3,61z M58.9,60.3c-1.5-1.4-2.9-2.8-4.4-4.2c1.5-1.6,3-3.1,4.5-4.7c1.5,1.6,3,3.1,4.4,4.7
	C61.9,57.4,60.4,58.9,58.9,60.3z M58.2,61c-0.7,0.7-1.4,1.4-2.2,2.1c-0.7,0.7-1.4,1.4-2.1,2.1c-1.1-1-2.1-2-3.2-3.1
	c-0.4-0.3-0.7-0.7-1.1-1c1.4-1.5,2.8-2.9,4.3-4.4C55.4,58.1,56.8,59.5,58.2,61z M48.8,60.2c-1.4-1.4-2.9-2.8-4.4-4.2
	c1.5-1.6,3-3.1,4.5-4.7c1.5,1.5,2.9,3.1,4.4,4.6C51.8,57.4,50.3,58.8,48.8,60.2z M48,61c-1.4,1.4-2.8,2.7-4.2,4.1
	c-0.5-0.5-0.9-0.9-1.4-1.4c-0.9-0.9-1.8-1.8-2.8-2.6c0.6-0.6,1.3-1.3,1.9-1.9c0.8-0.8,1.6-1.6,2.3-2.5C45.3,58.1,46.7,59.6,48,61z
	 M40.7,58.3c-0.7,0.6-1.3,1.3-2,1.9c-1.4-1.4-2.8-2.7-4.3-4.1c1.5-1.5,3-3.1,4.4-4.7c1.4,1.5,2.9,3,4.3,4.5
	C42.3,56.7,41.5,57.5,40.7,58.3z M38,60.9c-1.5,1.4-2.9,2.8-4.4,4.2c-0.4-0.4-0.8-0.8-1.2-1.1c-1-0.9-1.9-1.9-2.9-2.8
	c1.4-1.5,2.9-2.9,4.3-4.4c0,0,0,0,0,0C35.3,58.1,36.6,59.5,38,60.9z M33,55.9c-1.5,1.4-3,2.8-4.5,4.3c-1.4-1.3-2.7-2.6-4.1-3.9
	c0.8-0.9,1.7-1.7,2.5-2.6c0.7-0.7,1.3-1.5,2-2.2C30.3,52.9,31.7,54.4,33,55.9C33,55.9,33,55.9,33,55.9z M27.8,60.9
	c-1.4,1.4-2.9,2.8-4.3,4.2c-1.3-1.3-2.7-2.6-4-3.8c0,0,0.1-0.1,0.1-0.1c1.4-1.4,2.8-2.9,4.3-4.3C25.1,58.2,26.5,59.5,27.8,60.9z
	 M18.5,60c0,0-0.1,0.1-0.1,0.1c-1.3-1.3-2.7-2.6-4-3.8c0.1-0.1,0.2-0.2,0.2-0.2c1.4-1.5,2.9-2.9,4.3-4.4c1.3,1.4,2.6,2.8,4,4.2
	C21.4,57.2,19.9,58.6,18.5,60z M17.7,60.8c-1.5,1.5-2.9,3-4.4,4.5c-1.4-1.3-2.9-2.7-4.3-4c0.2-0.2,0.4-0.3,0.6-0.5
	c1.4-1.3,2.8-2.6,4.2-3.9C15.1,58.2,16.4,59.5,17.7,60.8z M13.7,66.8c1.3,1.4,2.7,2.7,4,4.1c-1.4,1.4-2.8,2.8-4.1,4.3
	c-0.1,0.1-0.1,0.1-0.2,0.2c-1.5-1.4-3-2.8-4.4-4.1c1-0.9,2.1-1.9,3.1-2.8C12.6,67.8,13.2,67.3,13.7,66.8z M13.6,76.8
	c1.4,1.4,2.7,2.8,4.1,4.2c-0.5,0.5-1,1-1.5,1.6c-0.9,0.9-1.8,1.9-2.7,2.8c-1.5-1.4-3-2.9-4.6-4.3C10.5,79.7,12.1,78.2,13.6,76.8z
	 M13.5,86.7c0.9,0.9,1.8,1.9,2.7,2.8c0.5,0.5,1,1,1.5,1.5c-1.4,1.4-2.7,2.8-4.1,4.3c-1.6-1.5-3.1-2.9-4.7-4.3
	C10.5,89.6,12,88.2,13.5,86.7z M13.8,97.2c1.3,1.4,2.6,2.7,3.9,4c-1.3,1.4-2.7,2.7-4,4.1c-0.5-0.5-1-0.9-1.4-1.4c-1.1-1-2.2-2-3.3-3
	c1.5-1.4,3-2.8,4.5-4.2C13.5,96.9,13.7,97,13.8,97.2z M17.7,111.3c-1.3,1.3-2.6,2.7-3.9,4c-1.4-1.3-2.8-2.7-4.2-4
	c-0.2-0.2-0.4-0.3-0.6-0.5c1.4-1.3,2.9-2.7,4.3-4C14.8,108.3,16.2,109.8,17.7,111.3z M18.4,111.9c0.2,0.2,0.3,0.3,0.5,0.5
	c1.3,1.3,2.7,2.6,4,3.9c-1.3,1.4-2.6,2.8-4,4.1c-1.3-1.5-2.7-2.9-4.1-4.3c-0.1-0.1-0.3-0.3-0.4-0.4C15.7,114.5,17,113.2,18.4,111.9z
	 M19.9,111.3c-0.2-0.2-0.3-0.3-0.5-0.4c1.3-1.3,2.7-2.6,4-3.8c0.1,0.1,0.2,0.2,0.3,0.3c1.3,1.3,2.7,2.7,4.1,4
	c-1.3,1.3-2.6,2.7-3.9,4C22.6,113.9,21.3,112.6,19.9,111.3z M28.5,111.9c1.5,1.4,3,2.9,4.5,4.3c-1.4,1.4-2.7,2.9-4.1,4.3
	c-0.5-0.5-1-1.1-1.5-1.6c-1-1-2-2-2.9-3.1C25.8,114.6,27.1,113.2,28.5,111.9z M29.6,110.9c1.3-1.3,2.7-2.6,4-3.9c0,0,0,0,0,0
	c1.4,1.4,2.9,2.8,4.3,4.2c-1.3,1.4-2.7,2.8-4,4.1C32.5,113.9,31,112.4,29.6,110.9z M38.7,111.9c0.9,0.9,1.9,1.8,2.8,2.7
	c0.6,0.5,1.1,1,1.7,1.6c-1.4,1.5-2.8,3-4.2,4.4c-1.4-1.5-2.7-2.9-4.1-4.3c-0.1-0.1-0.2-0.2-0.4-0.4
	C35.9,114.6,37.3,113.2,38.7,111.9z M42.4,113.8c-0.9-0.9-1.8-1.9-2.7-2.8c1.3-1.3,2.7-2.5,4-3.8c0.1-0.1,0.1-0.1,0.2-0.2
	c1.4,1.4,2.9,2.8,4.3,4.2c-1.4,1.4-2.8,2.8-4.1,4.2C43.4,114.9,42.9,114.3,42.4,113.8z M48.8,111.9c0.1,0.1,0.2,0.2,0.3,0.3
	c1.4,1.3,2.8,2.7,4.2,4c-1.5,1.5-2.9,3-4.3,4.5c-1.5-1.6-3-3.1-4.5-4.7C45.9,114.6,47.4,113.2,48.8,111.9z M50,111.3
	c-0.1-0.1-0.2-0.2-0.3-0.3c1.3-1.3,2.7-2.6,4-3.9c0.1-0.1,0.1-0.1,0.2-0.2c0.9,0.9,1.9,1.8,2.8,2.7c0.5,0.5,1,1,1.5,1.4
	c-1.4,1.4-2.8,2.9-4.2,4.3C52.6,114.1,51.3,112.7,50,111.3z M58.9,111.8c1.5,1.4,3,2.9,4.5,4.3c-1.5,1.5-2.9,3.1-4.4,4.6
	c-1.5-1.6-3-3.1-4.5-4.7C56,114.6,57.5,113.2,58.9,111.8z M59.7,111c1.3-1.3,2.7-2.5,4-3.8c0.1-0.1,0.2-0.2,0.3-0.3
	c0.1,0.1,0.2,0.2,0.3,0.3c1.3,1.3,2.7,2.5,4,3.8c-1.4,1.5-2.9,2.9-4.3,4.4C62.6,114,61.2,112.5,59.7,111z M69.1,111.8
	c1.5,1.4,2.9,2.8,4.4,4.2c-1.5,1.5-3,3.1-4.5,4.7c-1.5-1.5-2.9-3.1-4.4-4.6C66.1,114.7,67.6,113.2,69.1,111.8z M69.8,111.1
	c0.5-0.5,1-1,1.5-1.4c0.9-0.9,1.9-1.8,2.8-2.7c1.4,1.3,2.8,2.7,4.2,4c-0.1,0.1-0.2,0.2-0.3,0.3c-1.4,1.4-2.7,2.8-4,4.2
	C72.7,114,71.2,112.6,69.8,111.1z M79,112.1c0.1-0.1,0.2-0.2,0.3-0.3c1.4,1.4,2.9,2.7,4.4,4.1c-1.5,1.6-3.1,3.2-4.6,4.8
	c-1.4-1.5-2.9-3-4.3-4.5C76.1,114.8,77.6,113.5,79,112.1z M79.7,111.4c1.6-1.5,3.2-3.1,4.8-4.6l1.8,1.7l2.3,2.2c-1,1-2,2-2.9,3
	c-0.6,0.7-1.3,1.3-1.9,2C82.4,114.3,81.1,112.8,79.7,111.4z M86.9,108c-0.6-0.6-1.2-1.2-1.7-1.8c1.5-1.4,2.9-2.8,4.4-4.3
	c1.4,1.3,2.7,2.6,4.1,3.8c-1.5,1.5-3,3-4.5,4.6L86.9,108z M90.1,101.3c1.4-1.4,2.8-2.7,4.1-4.1c0,0,0.1-0.1,0.1-0.1
	c1.3,1.3,2.7,2.6,4,3.9c0,0-0.1,0.1-0.1,0.1c-1.4,1.4-2.8,2.8-4.2,4.2C92.7,104,91.4,102.6,90.1,101.3z M99.3,102.2
	c0.1-0.1,0.1-0.1,0.2-0.2c1.2,1.2,2.4,2.4,3.6,3.5c0.1,0.1,0.3,0.3,0.4,0.4c-1.5,1.6-2.9,3.2-4.3,4.8c-1.4-1.5-2.7-2.9-4.1-4.4
	C96.4,105,97.9,103.6,99.3,102.2z M100.4,101.1c1.4-1.4,2.7-2.7,4.1-4.1c0.4,0.4,0.9,0.9,1.3,1.3c0.9,0.8,1.8,1.7,2.6,2.5
	c-1.4,1.4-2.8,2.8-4.2,4.3c-0.1-0.1-0.2-0.3-0.4-0.4C102.7,103.5,101.6,102.3,100.4,101.1z M109.6,101.9c1.2,1.2,2.5,2.4,3.7,3.6
	c-0.5,0.4-0.9,0.8-1.4,1.2c-1.1,1-2.1,2-3.2,3c-1.2-1.2-2.4-2.4-3.6-3.7C106.7,104.7,108.1,103.3,109.6,101.9z M113,107.8
	c0.5-0.4,0.9-0.9,1.4-1.3c1.5,1.4,3,2.8,4.5,4.2c-1.1,0.9-2.1,1.9-3.2,2.9c-0.5,0.5-1.1,1.1-1.6,1.6c-1.4-1.5-2.9-3-4.3-4.5
	C110.8,109.8,111.9,108.8,113,107.8z M120.1,111.3c0.1-0.2,0.3-0.3,0.4-0.5c0.6-0.7,1.2-1.4,1.8-2.1v5
	C121.6,112.9,120.8,112.1,120.1,111.3z M119.7,110c-0.2,0.1-0.3,0.3-0.5,0.4c-1.4-1.5-2.8-3-4.2-4.4c1.2-1.1,2.4-2.3,3.6-3.5
	c0.4-0.4,0.7-0.7,1.1-1.1c0.9,0.8,1.8,1.7,2.7,2.5v4C121.4,108.6,120.5,109.3,119.7,110z M119.9,101.1c0.8-0.9,1.7-1.7,2.5-2.6v5.2
	C121.5,102.8,120.7,102,119.9,101.1z M119.2,100.4c-1.3-1.4-2.6-2.8-3.9-4.2c0.8-0.9,1.7-1.7,2.5-2.6c0.7-0.7,1.3-1.4,1.9-2.1
	c0.9,0.8,1.8,1.6,2.6,2.4v4C121.3,98.7,120.2,99.6,119.2,100.4z M120,91.2c0.8-0.9,1.6-1.7,2.3-2.6v5.1
	C121.6,92.8,120.8,92,120,91.2z M119.4,90.5c-1.4-1.5-2.8-3-4.2-4.5c1.5-1.5,2.9-3,4.3-4.6c0.9,0.8,1.9,1.7,2.8,2.5V88
	C121.4,88.9,120.4,89.7,119.4,90.5z M120,81c0.8-0.9,1.6-1.7,2.4-2.6v5.2C121.5,82.8,120.8,81.9,120,81z M119.6,80.6
	c-1.5-1.6-2.9-3.1-4.4-4.7c1.4-1.5,2.8-3,4.2-4.4c1,0.9,1.9,1.7,2.9,2.5v4.1C121.4,79,120.5,79.8,119.6,80.6z M120,70.9
	c0.8-0.8,1.6-1.7,2.3-2.5v5.2C121.6,72.7,120.8,71.8,120,70.9z M119.7,70.6c-0.9-1-1.9-2.1-2.9-3.1c-0.5-0.6-1.1-1.1-1.6-1.7
	c1.4-1.4,2.7-2.9,4.1-4.3c1,0.9,2,1.7,3,2.5v4.1C121.5,69,120.6,69.8,119.7,70.6z M120.1,60.8c0.8-0.8,1.5-1.6,2.3-2.4v5.1
	C121.6,62.5,120.8,61.6,120.1,60.8z M119.8,60.5c-0.2-0.2-0.4-0.4-0.5-0.6c-1.3-1.4-2.6-2.8-4-4.2c1.3-1.3,2.6-2.7,3.9-4
	c0.7,0.6,1.3,1.2,2,1.8c0.4,0.3,0.8,0.6,1.2,0.9v3.8C121.5,58.9,120.7,59.7,119.8,60.5z M122,52.6c-0.6-0.7-1.2-1.4-1.8-2.1
	c0.7-0.7,1.4-1.5,2.1-2.2V53C122.2,52.9,122.1,52.7,122,52.6z M114.9,46.8c0.4,0.7,0.9,1.3,1.4,1.9c0.7,0.9,1.5,1.7,2.3,2.5
	c0.1,0.1,0.2,0.1,0.2,0.2c-1.4,1.3-2.7,2.5-4.1,3.8c-0.1-0.1-0.2-0.2-0.3-0.3c-1.5-1.5-3-2.9-4.5-4.3c1.2-1.3,2.5-2.6,3.7-3.9
	C114.1,46.8,114.5,46.8,114.9,46.8z M113.7,46.8c-1.3,1.2-2.6,2.4-3.9,3.7c-0.1-0.1-0.1-0.1-0.2-0.2c-1.2-1.1-2.5-2.1-3.7-3.1
	C108.4,47,111.1,46.9,113.7,46.8z M105.3,47.1c1.1,1.4,2.2,2.7,3.4,4c0.1,0.1,0.1,0.1,0.2,0.2c-1.4,1.3-2.8,2.6-4.2,4
	c-0.9-0.8-1.7-1.7-2.6-2.5c-0.7-0.7-1.5-1.4-2.2-2c1.1-1.2,2.3-2.4,3.4-3.6C103.9,47.2,104.6,47.1,105.3,47.1z M103.2,47.2
	c-1.2,1.1-2.4,2.3-3.6,3.4c-1.2-1.1-2.5-2.2-3.7-3.2C98.3,47.3,100.7,47.2,103.2,47.2z M93.8,47.4c0.6,0,1.1,0,1.7,0
	c1.1,1.3,2.3,2.6,3.4,3.9c-1.5,1.4-3,2.8-4.4,4.2c-1.6-1.5-3.2-3-4.8-4.5c1.1-1.2,2.3-2.3,3.4-3.5C93.3,47.4,93.5,47.4,93.8,47.4z
	 M92.9,47.4c-1.2,1.1-2.3,2.2-3.5,3.3c-1.2-1.1-2.5-2.2-3.8-3.3C88,47.3,90.5,47.4,92.9,47.4z M85.5,47.3c1.1,1.3,2.3,2.5,3.4,3.8
	c-1.5,1.4-3.1,2.9-4.6,4.3c-1.6-1.5-3.2-3-4.8-4.5c1.2-1.2,2.3-2.4,3.5-3.7C83.8,47.3,84.6,47.3,85.5,47.3z M78.9,47.2
	c1.3,0,2.7,0,4,0.1c-1.2,1.1-2.4,2.3-3.6,3.4c-1.3-1.2-2.6-2.4-3.9-3.6C76.5,47.2,77.7,47.2,78.9,47.2z M75.2,47.1
	c1.2,1.3,2.4,2.6,3.6,3.9c-1.6,1.5-3.1,2.9-4.7,4.4c-1.6-1.5-3.2-3-4.8-4.5c1.2-1.3,2.5-2.6,3.7-3.9C73.8,47.1,74.5,47.1,75.2,47.1z
	 M73,47.1c-1.3,1.2-2.6,2.4-3.9,3.6c-1.4-1.3-2.8-2.6-4.3-3.9C67.6,46.9,70.3,47,73,47.1z M64,46.8c0.3,0,0.5,0,0.8,0
	c1.3,1.4,2.6,2.8,4,4.2c-1.6,1.5-3.2,2.9-4.7,4.4c-1.6-1.5-3.2-3-4.7-4.4c1.3-1.4,2.7-2.9,4-4.3C63.5,46.7,63.8,46.7,64,46.8z
	 M63.3,46.7c-1.4,1.3-2.9,2.7-4.3,4c-1.5-1.4-3-2.8-4.5-4.2C57.4,46.5,60.3,46.6,63.3,46.7z M49.1,46.5c1.8,0,3.5,0,5.3,0
	c1.4,1.5,2.8,3,4.3,4.5c-1.6,1.5-3.2,3-4.8,4.5c-1.5-1.5-3.1-2.9-4.7-4.4c1.4-1.5,2.8-3,4.1-4.5c-1.5,1.4-3,2.7-4.5,4.1
	c-1.4-1.4-2.9-2.7-4.3-4.1C46,46.6,47.6,46.5,49.1,46.5z M44.4,46.6c1.4,1.4,2.7,2.9,4.1,4.3c-1.6,1.5-3.2,3-4.8,4.4
	c-1.5-1.4-3.1-2.9-4.6-4.3c1.3-1.4,2.6-2.9,4-4.4C43.6,46.7,44,46.7,44.4,46.6z M41.7,46.8c0.5,0,1,0,1.4-0.1
	c-1.5,1.3-3,2.6-4.4,3.9c-1.3-1.2-2.6-2.4-3.8-3.6L41.7,46.8z M34.2,47.1l0.5,0c1.2,1.3,2.4,2.6,3.6,3.8c-1.6,1.5-3.2,2.9-4.8,4.4
	c-1.5-1.4-3-2.8-4.4-4.1c1.2-1.3,2.4-2.7,3.6-4.1C33.3,47.1,33.8,47.1,34.2,47.1z M32.4,47.1c-1.3,1.1-2.6,2.3-3.9,3.4
	c-1.2-1.1-2.5-2.3-3.7-3.4C27.3,47.2,29.9,47.2,32.4,47.1z M24.7,47.1c1.2,1.2,2.3,2.4,3.5,3.7c-0.7,0.7-1.5,1.3-2.2,2
	c-0.9,0.8-1.7,1.6-2.6,2.5c-1.4-1.3-2.8-2.6-4.2-4c0.1-0.1,0.1-0.1,0.2-0.2c1.2-1.3,2.3-2.6,3.4-4C23.4,47.1,24.1,47.1,24.7,47.1z
	 M19.4,47c1,0,1.9,0,2.9,0.1c-1.3,1-2.5,2.1-3.8,3.2c-0.1,0.1-0.1,0.1-0.2,0.2c-1.3-1.2-2.6-2.4-3.9-3.6C16.1,46.9,17.7,47,19.4,47z
	 M14.4,46.8c1.2,1.3,2.4,2.6,3.7,3.9c-1.5,1.4-3,2.8-4.5,4.3c-0.1,0.1-0.2,0.2-0.3,0.3c-1.3-1.3-2.7-2.5-4.1-3.8
	c0.1-0.1,0.2-0.1,0.2-0.2c0.8-0.8,1.6-1.6,2.3-2.5c0.5-0.6,1-1.2,1.4-1.9C13.5,46.8,13.9,46.8,14.4,46.8z M5.7,46.3
	c2.2,0.2,4.4,0.3,6.6,0.4c-0.5,0.3-1,0.7-1.4,1.1c-0.9,0.7-1.7,1.5-2.5,2.3c-0.1,0.1-0.2,0.2-0.2,0.3c-0.8-0.7-1.6-1.5-2.4-2.2V46.3
	z M5.7,48.3c0.7,0.8,1.5,1.5,2.2,2.3c-0.6,0.7-1.3,1.3-1.8,2.1c-0.1,0.1-0.2,0.3-0.3,0.4V48.3z M5.7,54.4c0.4-0.3,0.8-0.6,1.2-0.9
	c0.7-0.6,1.4-1.2,2-1.8c1.3,1.3,2.6,2.7,3.9,4c-1.4,1.4-2.7,2.8-4,4.2c-0.2,0.2-0.4,0.4-0.5,0.6c-0.9-0.8-1.7-1.6-2.6-2.4V54.4z
	 M5.7,58.3c0.8,0.8,1.6,1.6,2.3,2.5c-0.8,0.9-1.6,1.8-2.3,2.7V58.3z M5.7,64.1c1-0.8,2.1-1.7,3.1-2.6c1.4,1.4,2.7,2.9,4.1,4.3
	c-0.5,0.6-1.1,1.1-1.6,1.7c-1,1-1.9,2-2.9,3.1c-0.9-0.8-1.8-1.6-2.7-2.5V64.1z M5.7,68.3c0.8,0.9,1.6,1.7,2.4,2.5
	c-0.8,0.9-1.6,1.8-2.4,2.7V68.3z M5.7,74c1-0.8,2-1.7,2.9-2.5c1.4,1.5,2.8,3,4.2,4.4c-1.5,1.5-3,3.1-4.4,4.7
	c-0.9-0.8-1.8-1.7-2.8-2.5V74z M5.7,78.4c0.8,0.9,1.6,1.7,2.4,2.6c-0.8,0.9-1.6,1.8-2.4,2.7V78.4z M5.7,84c1-0.8,1.9-1.7,2.9-2.5
	c1.4,1.5,2.9,3.1,4.3,4.6c-1.5,1.5-2.9,3.1-4.3,4.6c-0.9-0.9-1.9-1.7-2.9-2.5V84z M5.7,88.4c0.8,0.9,1.6,1.8,2.4,2.7
	c-0.8,0.9-1.6,1.8-2.4,2.6V88.4z M5.7,94c0.9-0.8,1.8-1.7,2.8-2.5c1.5,1.6,2.9,3.1,4.4,4.7c-1.4,1.5-2.8,3-4.2,4.5
	c-1-0.9-2-1.7-2.9-2.5V94z M5.7,98.5c0.8,0.9,1.6,1.8,2.4,2.7c-0.8,0.9-1.6,1.7-2.4,2.6V98.5z M5.7,104c0.9-0.8,1.8-1.6,2.7-2.5
	c1,1.1,2,2.2,3.1,3.3c0.5,0.5,0.9,1,1.4,1.5c-1.4,1.4-2.7,2.9-4.1,4.3c-1-0.9-2-1.7-3.1-2.6V104z M5.7,108.6
	c0.8,0.9,1.5,1.8,2.3,2.7c-0.8,0.8-1.6,1.6-2.3,2.5V108.6z M5.7,113.9c0.9-0.8,1.7-1.6,2.5-2.4c0.2,0.2,0.3,0.4,0.5,0.6
	c1.3,1.4,2.7,2.8,4,4.2c-1.3,1.3-2.6,2.7-3.9,4c-0.6-0.6-1.2-1.1-1.9-1.7c-0.4-0.4-0.9-0.7-1.3-1V113.9z M5.7,119
	c0.2,0.2,0.3,0.4,0.5,0.6c0.6,0.7,1.1,1.3,1.7,1.9c-0.7,0.8-1.5,1.5-2.2,2.3V119z M5.6,126.7c0-0.1,0-0.1,0-0.2v-2.6
	c0.8-0.7,1.6-1.5,2.4-2.2c0.2,0.2,0.4,0.4,0.5,0.6c0.8,0.8,1.7,1.6,2.7,2.4c0.7,0.5,1.4,1.1,2.1,1.5c-0.1,0.1-0.1,0.1-0.2,0.2
	C10.7,126.5,8.2,126.6,5.6,126.7z M13.2,126.4c0.1-0.1,0.1-0.1,0.2-0.2c0.1,0,0.1,0.1,0.2,0.1C13.5,126.4,13.4,126.4,13.2,126.4z
	 M12.1,123.8c-0.8-0.9-1.6-1.8-2.4-2.7c-0.2-0.2-0.4-0.3-0.5-0.5c1.4-1.3,2.7-2.5,4.1-3.8c0.1,0.1,0.3,0.3,0.4,0.4
	c1.4,1.4,2.9,2.8,4.3,4.1c-1.4,1.5-2.9,3-4.3,4.5C13.2,125.2,12.7,124.5,12.1,123.8z M14,126.4c-0.1-0.1-0.2-0.3-0.3-0.4
	c1.5-1.4,3-2.9,4.6-4.3c0.2,0.2,0.4,0.3,0.5,0.5c1.5,1.4,3.1,2.7,4.7,4C20.3,126.2,17.2,126.3,14,126.4z M19.7,121.3
	c-0.2-0.2-0.3-0.3-0.5-0.5c1.4-1.3,2.8-2.6,4.2-4c1,1,2.1,2,3.1,2.9c0.6,0.5,1.1,1,1.7,1.5c-1.5,1.6-3,3.1-4.5,4.7
	C22.4,124.4,21.1,122.8,19.7,121.3z M32.6,125.9c-2.9,0-5.9,0.1-8.8,0.2c0,0,0-0.1-0.1-0.1c1.6-1.5,3.2-3,4.7-4.5
	c1.6,1.5,3.3,2.9,4.9,4.3C33.1,125.9,32.9,125.9,32.6,125.9z M33.7,125.9c-1.5-1.7-3-3.4-4.5-5c1.5-1.4,2.9-2.7,4.4-4.1
	c0.1,0.1,0.3,0.2,0.4,0.4c1.4,1.4,2.9,2.7,4.4,4.1c-1.5,1.6-3,3.1-4.5,4.7C33.8,125.9,33.7,125.9,33.7,125.9z M34,125.9
	c1.6-1.5,3.1-2.9,4.7-4.4c1.6,1.4,3.2,2.9,4.8,4.3C40.3,125.8,37.1,125.8,34,125.9z M43.6,125.8c-1.4-1.6-2.9-3.2-4.4-4.8
	c1.5-1.4,3-2.8,4.5-4.2c1.6,1.5,3.2,3,4.8,4.5c-1.5,1.5-2.9,3.1-4.4,4.6C43.9,125.8,43.8,125.8,43.6,125.8z M48.3,125.7
	c-1.4,0-2.7,0-4.1,0c1.5-1.4,3.1-2.9,4.6-4.3c1.5,1.4,3.1,2.8,4.7,4.2L48.3,125.7z M53.6,125.7c-1.4-1.6-2.9-3.1-4.4-4.7
	c1.5-1.4,3.1-2.9,4.6-4.3c1.6,1.5,3.1,3,4.7,4.4c-1.5,1.5-2.9,3.1-4.4,4.6L53.6,125.7z M54.4,125.7c1.5-1.4,3-2.8,4.6-4.3
	c1.5,1.4,3,2.8,4.6,4.2L54.4,125.7z M64,125.7l-0.3,0c-1.4-1.5-2.9-3.1-4.3-4.6c1.6-1.5,3.1-2.9,4.7-4.4c1.6,1.5,3.1,2.9,4.7,4.4
	c-1.4,1.5-2.9,3.1-4.3,4.6L64,125.7z M64.5,125.7c1.5-1.4,3.1-2.8,4.6-4.2c1.5,1.4,3,2.8,4.6,4.3L64.5,125.7z M73.8,125.7
	c-1.4-1.5-2.9-3.1-4.4-4.6c1.6-1.5,3.2-3,4.7-4.4c1.5,1.4,3.1,2.9,4.6,4.3c-1.5,1.6-2.9,3.1-4.4,4.7L73.8,125.7z M79.7,125.7l-5.1,0
	c1.6-1.4,3.1-2.8,4.7-4.2c1.5,1.4,3,2.9,4.6,4.3C82.5,125.8,81.1,125.7,79.7,125.7z M114.1,126.4c-6.2-0.2-12.4-0.3-18.7-0.4
	c-3.8-0.1-7.6-0.1-11.5-0.2c-1.5-1.5-2.9-3.1-4.4-4.6c1.6-1.5,3.2-3,4.9-4.6c0.6,0.6,1.3,1.2,1.9,1.8c-0.6-0.6-1.2-1.3-1.8-1.9
	c0.7-0.6,1.3-1.3,2-1.9c1-1,2-2,3.1-2.9l1.2,1.2l1.1,1.1c0.4,0.4,0.8,0.7,1,1.1c0.5,0.9,0.2,2-0.4,2.8c0.4-0.4,0.7-0.8,0.8-1.3
	c0.1-0.5,0.1-1.1-0.1-1.6c-0.1-0.3-0.3-0.5-0.4-0.7l-0.5-0.6l-1.1-1.2l-1.2-1.2c1.6-1.5,3.1-3,4.7-4.5c1.5,1.4,2.9,2.7,4.4,4.1
	c-0.5,0.6-1,1.2-1.5,1.8c0.6-0.5,1.2-1,1.8-1.5c0.1,0.1,0.2,0.2,0.3,0.3c-0.1-0.1-0.2-0.2-0.3-0.3c1.7-1.4,3.3-2.8,4.9-4.3
	c1.2,1.2,2.5,2.4,3.7,3.6c-0.5,0.5-1.1,1.1-1.6,1.6l-1.3,1.4c-0.5,0.5-0.9,1-1.2,1.6c-0.7,1.1-1.3,2.3-1.7,3.5
	c0.7-1.1,1.4-2.1,2.3-3c0.4-0.5,0.8-0.9,1.3-1.3l1.5-1.2c0.6-0.5,1.2-1,1.8-1.5c1.5,1.5,3,2.9,4.6,4.4c-0.6,0.6-1.1,1.1-1.6,1.7
	c-0.6,0.7-1.2,1.3-1.7,2c0,0-0.1,0-0.1-0.1c-0.9-0.5-2-0.9-3-0.9c0.9,0.6,1.7,1.1,2.3,1.8c0,0,0,0,0.1,0.1c-0.3,0.4-0.7,0.8-1,1.2
	c0.4-0.3,0.9-0.6,1.3-0.9c0.5,0.5,1,1.1,1.3,1.8c0.2,0.4,0.3,0.8,0.6,1.3c0.2,0.5,0.5,0.9,0.9,1.4C113,125.5,113.5,126,114.1,126.4
	C114.1,126.3,114.1,126.3,114.1,126.4z M113.7,124.3c-0.2-0.4-0.4-0.8-0.6-1.3c-0.2-0.4-0.4-1-0.7-1.4c-0.4-0.7-1-1.3-1.6-1.8
	c0.7-0.5,1.3-1,1.9-1.6c0.6-0.5,1.2-1.1,1.8-1.6c1.4,1.3,2.8,2.7,4.2,4c-0.2,0.2-0.4,0.3-0.5,0.5c-0.9,0.8-1.7,1.7-2.4,2.7
	c-0.5,0.6-1,1.2-1.4,1.9C114.2,125.2,113.9,124.8,113.7,124.3z M114.9,126.4c-0.1-0.1-0.1-0.2-0.2-0.2c0.7-0.5,1.4-1,2-1.5
	c0.9-0.8,1.8-1.6,2.7-2.4c0.2-0.2,0.4-0.4,0.5-0.6c0.8,0.7,1.6,1.5,2.3,2.2v2.6c0,0,0,0.1,0,0.1
	C119.9,126.6,117.4,126.5,114.9,126.4z M125.6,125.6h-1V40.3h1V125.6z"/>
</svg>
