<?xml version="1.0" encoding="utf-8"?>
<!-- Generator: Adobe Illustrator 18.1.0, SVG Export Plug-In . SVG Version: 6.00 Build 0)  -->
<svg version="1.1" id="Layer_1" xmlns="http://www.w3.org/2000/svg" xmlns:xlink="http://www.w3.org/1999/xlink" x="0px" y="0px"
	 viewBox="0 0 128 128" 
width="128" height="128"
enable-background="new 0 0 128 128" xml:space="preserve">
<g>
	<path fill="#2D2D2D" d="M33.3,58.7c0,2.6,2.1,4.7,4.7,4.7c2.6,0,4.7-2.1,4.7-4.7c0-2.6-2.1-4.7-4.7-4.7
		C35.4,54.1,33.3,56.2,33.3,58.7z M40.7,58.7c0,1.5-1.2,2.7-2.7,2.7c-1.5,0-2.7-1.2-2.7-2.7S36.5,56,38,56
		C39.5,56,40.7,57.3,40.7,58.7z"/>
	<path fill="#2D2D2D" d="M127.8,39.7c-1-8.1-5.1-15.2-11.5-20.2c-6.5-5.1-14.6-7.2-22.8-6.1L80.5,6.8c-2.3-1.2-5.1-0.6-6.6,1.5
		l-2.8,3.6l-2.7-2.1c-0.8-0.7-2.1-0.5-2.7,0.3L64,12.3C53,8,42.3,10.6,33.8,19.7c-7.5,8.1-8,18.4-7.8,22.3h-2.5
		c-1.1,0-1.9,0.9-1.9,1.9v3.4h-4.6c-2.6,0-4.7,1.8-5.2,4.3L9.2,66C3.3,71.8,0,79.5,0,87.8c0,16.8,13.6,30.4,30.3,30.4
		s30.3-13.6,30.3-30.4c0-8.3-3.3-16-9.2-21.8l-2.7-14.3c-0.5-2.5-2.7-4.3-5.2-4.3h-4.6v-3.4c0-1.1-0.9-1.9-1.9-1.9h-3.8
		c-0.1-7.7,2.8-14.4,8.2-18.9c7.7-6.5,14.9-5.6,17.8-4.6l-1.8,2.4c-0.7,0.8-0.5,2.1,0.3,2.7l2.7,2.1l-2.8,3.6
		c-1.6,2-1.5,4.9,0.2,6.8l9.7,10.9c0.9,8.2,5,15.5,11.5,20.6c5.4,4.2,11.8,6.4,18.5,6.4c1.3,0,2.6-0.1,3.9-0.2
		c8-1,15.2-5.1,20.2-11.5C126.6,55.8,128.8,47.8,127.8,39.7z M49.7,87.8c0,10.7-8.7,19.4-19.3,19.4S11,98.5,11,87.8
		c0-10.7,8.7-19.4,19.3-19.4S49.7,77.1,49.7,87.8z M30.9,116.2c0.6-1.1,1-2.3,1-3.6c0-1.2-0.3-2.4-0.9-3.4
		c11.5-0.3,20.7-9.8,20.7-21.3c0-3.9-1.1-7.5-2.9-10.7c1.3-0.2,2.5-0.7,3.5-1.6c0.9-0.8,1.6-1.7,2.1-2.8c2.8,4.5,4.3,9.6,4.3,15.1
		C58.7,103.3,46.3,115.9,30.9,116.2z M46.9,52l2.7,14.6c0,0,0,0.1,0,0.1c0,0.1,0,0.1,0.1,0.2c0,0.1,0.1,0.1,0.1,0.2
		c0,0,0,0.1,0.1,0.1c1.1,1.1,2.1,2.2,3,3.4c-0.2,1.3-0.8,2.6-1.9,3.4c-1,0.8-2.2,1.2-3.5,1.2c-3.9-5.3-10.1-8.8-17.2-8.8
		C18.6,66.4,9,76,9,87.8c0,11.2,8.6,20.4,19.5,21.3c0.9,1,1.3,2.2,1.3,3.5c0,1.3-0.5,2.6-1.4,3.6C13.7,115.2,2,102.8,2,87.8
		c0-7.8,3.1-15.2,8.8-20.6c0,0,0-0.1,0.1-0.1c0-0.1,0.1-0.1,0.1-0.2c0-0.1,0.1-0.1,0.1-0.2c0,0,0-0.1,0-0.1L13.8,52
		c0.3-1.6,1.7-2.7,3.3-2.7h26.6C45.2,49.3,46.6,50.5,46.9,52z M37.1,47.3H23.6l0-3.4l13.5,0V47.3z M40.2,21.5
		c-5.8,4.9-8.9,12.1-8.9,20.5H28c-0.1-3.6,0.2-13.3,7.3-20.9C43,12.7,52.7,10.2,62.7,14l-2.2,2.9C57.4,15.4,49,14.1,40.2,21.5z
		 M59,22l8.3-10.7l2.7,2.1l-8.3,10.7L59,22z M101.2,71.7c-7.5,1-15-1.1-20.9-5.7c-4.3-3.3-7.4-7.7-9.2-12.7c0.6,0.2,1.3,0.3,1.9,0.3
		c0.5,0,1.1-0.1,1.6-0.2c1.3-0.3,2.5-0.9,3.4-1.8c1.4,3.4,3.6,6.5,6.7,8.8c3.8,2.9,8.3,4.5,13.1,4.5c6.4,0,12.4-2.8,16.4-7.8
		c0.5,1.1,1.2,2,2.2,2.8c1,0.8,2.2,1.3,3.5,1.4C115.1,67.1,108.6,70.8,101.2,71.7z M113,55.4c-3.7,4.8-9.3,7.5-15.3,7.5
		c-4.3,0-8.4-1.4-11.8-4.1c-8.4-6.6-10-18.8-3.4-27.2c3.7-4.8,9.3-7.5,15.3-7.5c4.3,0,8.4,1.4,11.8,4.1c4.1,3.2,6.7,7.8,7.3,12.9
		C117.5,46.3,116.1,51.3,113,55.4z M121.2,59.4c-1.3,0.1-2.6-0.2-3.7-1.1c-1-0.8-1.7-1.9-1.9-3.2c2.7-4.2,3.9-9.2,3.3-14.3
		c-0.7-5.7-3.6-10.7-8.1-14.2c-3.8-2.9-8.3-4.5-13.1-4.5c-6.6,0-12.8,3-16.9,8.3c-4.3,5.6-5.4,12.6-3.6,19c-0.8,1.1-1.8,1.8-3.1,2.1
		c-1.3,0.3-2.7,0.1-3.8-0.6c-0.4-1.4-0.7-2.9-0.8-4.5c0,0,0-0.1,0-0.1c0-0.1,0-0.1-0.1-0.2c0-0.1-0.1-0.1-0.1-0.2c0,0,0-0.1,0-0.1
		l-9.9-11.1c-1.1-1.2-1.1-3-0.1-4.3l16.3-21c1-1.3,2.7-1.7,4.2-0.9l13.2,6.8c0,0,0.1,0,0.1,0c0.1,0,0.1,0,0.2,0.1c0.1,0,0.1,0,0.2,0
		c0,0,0.1,0,0.1,0c7.7-1.2,15.4,0.8,21.6,5.7c6,4.7,9.8,11.4,10.7,18.9C126.7,46.9,125,53.7,121.2,59.4z"/>
	<path fill="#2D2D2D" d="M72.9,28.1c-0.8-0.6-1.8-1-2.9-1c-1.5,0-2.8,0.7-3.7,1.8c-0.8,1-1.1,2.2-0.9,3.4c0.2,1.2,0.8,2.3,1.8,3.1
		c0.8,0.6,1.8,1,2.9,1c0,0,0,0,0,0c1.5,0,2.8-0.7,3.7-1.8c0.8-1,1.1-2.2,0.9-3.4C74.5,30,73.9,28.9,72.9,28.1z M72.2,33.4
		c-0.5,0.7-1.3,1-2.1,1h0c-0.6,0-1.2-0.2-1.6-0.6c-0.6-0.4-0.9-1.1-1-1.8c-0.1-0.7,0.1-1.4,0.5-2c0.5-0.7,1.3-1,2.1-1
		c0.6,0,1.2,0.2,1.6,0.6c0.6,0.4,0.9,1.1,1,1.8C72.8,32.2,72.6,32.9,72.2,33.4z"/>
</g>
</svg>
