<?xml version="1.0" encoding="utf-8"?>
<!-- Generator: Adobe Illustrator 24.1.2, SVG Export Plug-In . SVG Version: 6.00 Build 0)  -->
<svg version="1.1" id="Layer_1" xmlns="http://www.w3.org/2000/svg" xmlns:xlink="http://www.w3.org/1999/xlink" x="0px" y="0px"
	 viewBox="0 0 128 128" style="enable-background:new 0 0 128 128;" xml:space="preserve">
<style type="text/css">
	.st0{fill:#2D2D2D;}
</style>
<g>
	<path class="st0" d="M88.1,7.2c0,0,0.1-0.1,0.1-0.1c-0.2-0.8-0.9-1.4-1.7-1.7c-0.4-0.2-0.9-0.2-1.3-0.1c-0.4,0.1-0.8,0.2-1.2,0.4
		c-0.4,0.2-0.7,0.4-1,0.6c-0.3,0.2-0.6,0.5-0.8,0.6c-0.5,0.3-1.2,0.3-1.8-0.1l0,0c0,0-0.1,0-0.1,0c0,0,0,0.1,0,0.1
		c0.5,0.6,1.3,0.9,2.2,0.7c0.4-0.1,0.6-0.3,0.9-0.4c0,0.1,0,0.2,0,0.4c0,0.9,0.8,1.7,1.7,1.7c0.9,0,1.7-0.7,1.7-1.7
		c0-0.2-0.1-0.5-0.1-0.7C87,7,87.5,7.1,88.1,7.2C88.1,7.2,88.1,7.2,88.1,7.2z"/>
	<path class="st0" d="M111,126.7c0-1.7-0.3-3.1-0.6-4.6c-0.3-1.5-0.8-3-1.4-4.4c-0.6-1.4-1.3-2.8-2.4-4.1c-0.5-0.6-1.2-1.2-2-1.7
		c-0.4-0.2-0.8-0.4-1.3-0.5c-0.2-0.1-0.4-0.1-0.7-0.1l-0.6-0.1c-1.2-0.1-2.4-0.8-3.6-1.7c-1.1-0.8-2.2-1.8-3.2-2.8
		c-1-1.1-2-2.2-3-3.3c0.1,0,0.2,0,0.3,0c0.1,0,0.2-0.1,0.2-0.1l0,0c0.3-0.2,0.5-0.3,0.7-0.4c0.8-0.5,1.5-1,2.2-1.6l0.2-0.1l0.1-0.2
		c0.1-0.3,0.1-0.4,0.1-0.6c0-0.2,0-0.3,0-0.5c0-0.3-0.1-0.7-0.3-0.9c-0.3-0.6-0.8-0.9-1.2-1.2c-0.2-0.1-0.4-0.2-0.5-0.3l-0.5-0.2
		c-0.3-0.2-0.7-0.3-1-0.5c-0.7-0.3-1.4-0.6-2.1-0.8c-0.1,0-0.3-0.1-0.4-0.1c-0.2-0.2-0.3-0.4-0.5-0.5c-0.3-0.2-0.7-0.3-1-0.3
		c-0.1,0-0.2,0-0.3,0l-0.1,0l-0.2,0c-0.3,0-0.6,0-0.8-0.1c-0.1,0-0.2-0.1-0.2-0.1c0,0-0.1,0-0.1-0.1c0,0-0.1-0.1-0.1-0.1
		c-0.2-0.2-0.4-0.5-0.6-0.8c-0.6-1-1.2-2.1-1.8-3.2l0.5,0l0.3-0.6c0.4-0.8,0.7-1.5,0.9-2.3c0.2-0.8,0.4-1.5,0.6-2.3
		c0.3-1.5,0.5-2.9,0.6-4.4c0.4-0.6,0.6-1.2,0.8-1.8c0.2-0.7,0.4-1.3,0.5-2c0.1-0.6,0.2-1.2,0.3-1.9c1.7-0.2,3.3-0.6,4.9-1.1
		c0.9-0.3,1.8-0.7,2.7-1.2c0.9-0.5,1.6-1.2,2.3-1.8c1.4-1.3,2.6-2.9,3.7-4.4c1.1-1.5,2.1-3.1,3-4.8c1.3-1.4,2.5-2.9,3.5-4.5
		c1-1.7,1.8-3.5,2-5.6c0.1-1,0.1-2,0-3c-0.1-1-0.3-1.9-0.5-2.9c-0.2-1-0.6-2-1.3-2.8c-0.3-0.4-0.7-0.8-1.2-1
		c-0.2-0.1-0.5-0.2-0.8-0.3c0,0-0.1,0-0.1,0c-0.1-0.5-0.1-1.1-0.3-1.6c-0.3-1.1-0.6-2.1-1.2-3.1l1.4,1.3l-0.9-2.8
		c-0.2-0.7-0.4-1.5-0.5-2.3c-0.1-0.8-0.3-1.6-0.4-2.5c-0.2-1.5-0.4-2.9-0.6-4.4c0.1,0,0.1,0.1,0.2,0.1c0.4,0.3,0.8,0.6,1.2,0.7
		c0.5,0.2,1,0.3,1.5,0.4l1,0l-0.5-1c-0.5-1.1-0.9-2.1-1.3-3.2c-0.4-1.1-0.8-2.2-1.1-3.3c-0.5-1.8-1-3.6-1.4-5.4l2.2,2l-1-3.3
		c-0.8-2.8-2.3-5.5-4.4-7.5c-1.1-1-2.2-2-3.5-2.7c-1.3-0.7-2.7-1.2-4.1-1.7c-1.4-0.5-2.8-0.8-4.2-1.3c-1.4-0.4-3.1-0.6-4.6-0.3
		c-1.5,0.4-2.9,1.1-4.1,2c-1.2,0.9-2.2,2-2.9,3.3c-1.4-0.1-2.8,0.2-4.1,0.8C72,6.9,70.8,7.8,69.8,9c-0.5,0.6-0.9,1.3-1.1,2.1
		c-0.2,0.8-0.3,1.6-0.1,2.4c0.1,0.8,0.5,1.6,0.9,2.3c0.4,0.7,0.9,1.3,1.5,1.9l1.9,1.8L72.2,17c-0.1-0.6-0.2-1.3-0.2-1.9
		c0-0.4,0.1-0.8,0.2-1.1c0.6,0.1,1.1,0.2,1.7,0.1c0.7,0,1.3-0.2,1.9-0.4c0.4,0,0.9,0.1,1.4,0.2c0.5,0.1,1.1,0.2,1.7,0
		c0.1,0,0.3-0.1,0.4-0.1c0.3,0.5,0.7,1,1.1,1.5c0.3,0.3,0.5,0.6,0.8,0.9c0.1,0.1,0.2,0.2,0.3,0.3c-2,1.7-3.8,3.6-5.4,5.7
		c-0.4,0.6-0.9,1.2-1.2,1.8c-0.3,0.6-0.7,1.2-1,1.9c-0.3,0.6-0.6,1.3-0.9,1.9l-0.4,1c-0.1,0.3-0.2,0.6-0.4,0.8
		c-0.3,0.5-0.7,1-1.2,1.4c-0.3,0.2-0.5,0.3-0.8,0.5c-0.3,0.1-0.7,0.3-1,0.4c-0.7,0.3-1.3,0.5-2,0.8c-0.7,0.3-1.3,0.5-2,0.8
		c-1.3,0.5-2.6,1-4,1.6c-1.3,0.6-2.6,1.3-3.8,2.1c-2.4,1.5-4.6,3.3-6.8,5.1c-2.2,1.8-4.3,3.6-6.4,5.4c-2.1,1.7-4.4,3.5-6.4,5.5
		c-1,1-2,2.1-2.7,3.4c-0.4,0.6-0.6,1.4-0.7,2.2c0,0.5,0.1,0.9,0.3,1.4c-0.5,0.4-0.9,0.8-1.3,1.3c-0.8,0.8-1.4,1.9-1.7,3
		c-0.3,1.1-0.2,2.4,0.3,3.4c-0.9,1.2-1.7,2.4-2.6,3.6c-0.9,1.3-1.7,2.6-2.4,4.1c-0.6,1.4-1.2,2.9-1.5,4.6c-0.1,0.8-0.2,1.7,0,2.7
		c0.2,0.9,0.8,2.1,1.8,2.6l0.8,0.4l0.6-0.5c0.1-0.1,0.3-0.2,0.4-0.4c0,0,0,0,0,0c-0.9,1.3-1.6,2.8-2.2,4.3c-0.3,0.8-0.6,1.5-0.8,2.3
		c-0.2,0.7-0.5,1.5-0.6,2.3c-0.6,0.8-1.1,1.5-1.7,2.3c-0.6,0.8-1.1,1.7-1.6,2.5c-0.4,0.9-0.8,1.8-1.2,2.8c-0.2,0.5-0.3,1-0.4,1.5
		c-0.1,0.5-0.2,1.1-0.1,1.8l0.4,2.6l1.8-1.9c0.4-0.4,0.9-0.8,1.4-1.3c0.3-0.3,0.7-0.6,1-0.9c-0.8,1.1-1.6,2.4-2.4,3.4l-0.1,0.1
		l-0.1,0.2l-2.2,4.8l-1.1,2.4c-0.3,0.8-0.7,1.6-1,2.2l-1.3,2.5l2.6-0.7c2.2-0.6,4-1.7,5.6-3c0.3-0.3,0.6-0.6,0.9-0.9
		c0.1,0.7,0.7,1.8,1.3,2.2c0.2,0.1,0.4,0.1,0.6,0.2c0.2,0,0.4,0,0.6,0c0.4,0,0.8-0.1,1-0.3c0.2-0.1,0.3-0.1,0.5-0.2l0.4-0.3
		c0.3-0.2,0.5-0.4,0.7-0.6c0.5-0.4,0.8-0.8,1.1-1.3c0.3-0.5,0.5-1,0.7-1.5c0.2-0.5,0.4-1,0.6-1.5c0.5-1,1.1-1.8,1.8-2.6
		c0.7-0.8,1.4-1.7,2-2.6c0.3-0.4,0.5-0.8,0.7-1.2c0.1,0.3,0.1,0.6,0.2,0.8c0.2,0.4,0.4,0.9,0.9,1.3c0.2,0.2,0.5,0.4,1,0.5
		c0.2,0,0.4,0,0.6,0c0.2,0,0.4-0.1,0.6-0.2c0.2-0.1,0.3-0.2,0.4-0.3c0.1-0.1,0.2-0.2,0.3-0.3c0.1-0.1,0.2-0.2,0.3-0.3l0.2-0.3
		c0.5-0.7,1-1.3,1.4-2.1c0.4-0.8,0.8-1.6,1.2-2.3c0.8-1.6,2-2.8,3.3-4.1c0.6-0.6,1.3-1.2,1.8-2c0.3-0.4,0.5-0.7,0.8-1.1
		c0.5,0.3,1.1,0.4,1.7,0.5c1.1,0.1,2.1-0.2,3-0.6c0.9-0.5,1.6-1.1,2.1-1.9c0.5-0.7,0.8-1.8,0.9-2.6c0,0,0,0,0.1,0
		c0.4,0.1,0.8,0.1,1.2,0.1c0,0,0.1,0,0.1,0c0.2,0.3,0.4,0.6,0.6,0.9c0.5,0.6,1,1.1,1.6,1.4c0.6,0.4,1.1,0.7,1.7,0.9l1.6,0.8l0.8-0.2
		c0.1,0.6,0.2,1.3,0.1,1.9c-0.1,0.6-0.2,1.1-0.6,1.5c-0.4,0.4-0.9,0.7-1.4,1l-1.6,1c-0.6,0.3-1.1,0.7-1.5,1.1
		c-1,0.8-1.9,1.6-2.8,2.5l-0.7,0.6l0.8,0.6l0.8,0.6c-0.5,0.6-0.9,1.4-1.2,2.1c-0.4,1-0.8,2.1-1.2,3.1c-0.4,1-0.8,2.1-1.3,3
		c-0.5,0.9-1.1,1.8-1.8,2.5c-0.3,0.3-0.9,0.7-1.3,1.1c-0.4,0.4-0.8,0.8-1.2,1.3c-0.8,0.9-1.5,1.8-2.1,2.8c-1.3,1.9-2.4,3.9-3.4,6
		l-0.7,1.5l1.7,0c5.2,0,10.5-0.3,15.7-0.5c5.2-0.2,10.5-0.2,15.7,0c5.2,0.2,10.5,0.4,15.7,0.5c5.2,0.1,10.5,0.2,15.7,0.2l1.3,0
		L111,126.7z M92.5,102.3c0,0-0.1,0-0.1,0l-0.1,0c0.1,0,0.1,0,0.1,0C92.5,102.2,92.5,102.3,92.5,102.3L92.5,102.3z M89.9,100.3
		l0.2-0.2l0.1-0.1l0-0.1c0,0,0.1-0.1,0.1-0.2c0-0.1,0.1-0.1,0.1-0.2c0-0.1,0-0.1,0-0.2l0-0.1l0-0.1l0-0.2l0-0.3l0-0.6l0-0.3
		c0.3,0.2,0.6,0.5,0.9,0.7c0.3,0.2,0.6,0.4,0.9,0.6l0.5,0.3c0.1,0.1,0.4,0.2,0.4,0.3c0.2,0.1,0.3,0.2,0.4,0.3l0,0.1
		c-0.5,0.5-0.9,1.1-1.3,1.7c-0.1,0.1-0.2,0.2-0.2,0.3c-0.4-0.2-0.8-0.3-1.2-0.5C90.5,101.2,90.2,100.8,89.9,100.3
		C89.9,100.4,89.9,100.3,89.9,100.3z M84.7,94.4c0.1,0.4,0.3,0.7,0.5,1.1c0,0.1,0.1,0.2,0.2,0.3c0.1,0.1,0.1,0.2,0.3,0.3
		c0.3,0.3,0.5,0.4,0.7,0.5c0.5,0.2,0.9,0.3,1.4,0.3l0.3,0l0.2,0c0,0,0,0,0,0c0,0,0,0,0,0c0,0,0,0,0,0c0,0,0,0,0,0l0,0l0,0.1l0,1.1
		l0,0.5c-0.1,0-0.1,0.1-0.2,0.1c-0.2,0.1-0.3,0.1-0.5,0.1c-0.2,0-0.4,0-0.6-0.1c-0.4-0.2-0.9-0.6-1.3-1.1L85,97.2l-0.6,0.2
		c-0.5,0.2-1.2,0.3-1.8,0.3c-0.6,0-1.2-0.1-1.7-0.4L80.7,97l-0.1,0c-0.8-0.1-1.4,0.1-2.1,0.3c-0.4,0.1-0.9,0.3-1.3,0.5
		c-0.2-0.1-0.4-0.2-0.6-0.3c-0.8-0.3-1.5-0.7-2.3-1.2c0.7,0.1,1.5,0.1,2.2,0.1c1,0,2-0.2,3-0.5c0.3-0.1,0.5-0.2,0.8-0.3
		c0,0,0.2-0.1,0.3-0.2c0.1-0.1,0.3-0.2,0.4-0.3c0.2-0.2,0.4-0.4,0.4-0.6c0.4-0.8,0.3-1.4,0.2-2c-0.2-0.9-0.6-1.7-1.1-2.4
		c0.2,0.1,0.4,0.1,0.6,0.1c1,0.1,1.9,0.1,2.7,0.1C84,91.9,84.2,93.2,84.7,94.4z M70.9,85.8c0-0.3,0-0.6,0-0.9c0-0.6,0.1-1.3,0.2-1.9
		c0-0.2,0.1-0.5,0.1-0.7c0.9-0.2,1.8-0.4,2.6-0.6c0,0.5,0.1,1.1,0.3,1.6c0.2,0.8,0.5,1.6,0.9,2.4c0.4,0.8,0.8,1.5,1.4,2.2
		c0.3,0.3,0.6,0.7,1,1c0.2,0.2,0.4,0.3,0.7,0.5c0.1,0.1,0.3,0.1,0.5,0.1c0.3,0.3,0.6,0.5,0.9,0.7c0.2,0.1,0.4,0.1,0.5,0.2
		c-0.2,0.9-0.2,1.8-0.4,2.6c0,0.3-0.1,0.6-0.2,0.7c0,0,0,0,0,0c-0.2,0.1-0.4,0.1-0.6,0.2c-0.9,0.2-1.8,0.5-2.7,0.9
		c-0.8,0.3-1.6,0.7-2.4,1.3c-0.8-0.6-1.5-1.2-2.1-1.9c-0.6-0.8-1.1-1.6-1.5-2.5l0.3-0.1l0.1-0.4c0.1-0.3,0.1-0.4,0.2-0.7
		c0-0.2,0.1-0.4,0.1-0.5c0-0.4,0.1-0.7,0.1-1c0-0.7,0.1-1.4,0.1-2L70.9,85.8z M79.5,93.6c0,0.1-0.1,0.1-0.1,0.1
		C79.4,93.8,79.4,93.7,79.5,93.6C79.5,93.7,79.5,93.6,79.5,93.6C79.5,93.6,79.5,93.6,79.5,93.6z M87.9,75.1l-0.2,0.4c0,0,0,0,0,0
		l0,0l-0.7,1.5c-0.3,0.6-0.6,1.2-0.9,1.8c-0.3,0.6-0.6,1.2-0.9,1.5l-0.1,0.1l-0.1,0.3c-0.3,1.4-0.6,2.9-1,4.3
		c-0.2,0.7-0.4,1.4-0.6,2.1c-0.1,0.5-0.3,0.9-0.5,1.3l-0.5,0c-0.4,0-0.8,0-1.1,0c-0.4,0-0.7-0.1-0.9-0.2c-0.2-0.1-0.4-0.2-0.5-0.4
		l-1.8-0.1c0.1-0.1,0.4-0.3,0.5-0.3c0,0,0.1,0,0.1,0c-0.1,0-0.2-0.1-0.2-0.1c-0.3-0.2-0.6-0.4-0.8-0.7c-0.5-0.5-1.1-1.1-1.6-1.7
		c-0.5-0.6-0.9-1.3-1.3-2c-0.3-0.4-0.5-0.9-0.7-1.4c0.7-0.2,1.4-0.5,2.2-0.7c1.9-0.7,3.7-1.6,5.5-2.5c2.3-1.2,4.4-2.5,6.5-4
		C88.2,74.5,88.1,74.8,87.9,75.1z M106.3,47.8c0.4-1.2,0.6-2.5,0.7-3.7c0-0.6,0-1.1,0-1.7c0.2,0.1,0.3,0.2,0.4,0.3
		c0.3,0.3,0.6,0.7,0.8,1.1c0.4,0.8,0.6,1.7,0.7,2.6c0.3,1.9,0.6,3.7,0.6,5.6c0.1,1.8-0.3,3.7-1.2,5.4c-0.9,1.7-2.4,3-3.9,4.1l0,0
		l-0.1,0.1c-1.1,1.5-2.2,3-3.3,4.4c-0.6,0.7-1.2,1.4-1.8,2.1c-0.6,0.7-1.2,1.4-1.9,2c-0.6,0.7-1.3,1.3-2,1.8
		c-0.7,0.5-1.5,0.9-2.3,1.3c-1.4,0.7-2.9,1.3-4.4,1.9l0.1-0.8c0-0.1,0-0.2,0-0.3c1.1-0.8,2.1-1.6,3.1-2.5c1.6-1.4,2.9-3,4-4.7
		c1.1-1.7,2.1-3.5,3-5.2c0.9-1.8,1.9-3.5,2.9-5.2c1-1.7,1.9-3.4,2.8-5.2C105.3,50.1,105.9,49,106.3,47.8z M78.5,12.3
		c-0.4,0.1-0.8,0.2-1.3,0.2c-0.5,0.1-1,0-1.6,0.1l-0.1,0l-0.1,0c-0.3,0.2-0.5,0.3-0.8,0.5c-0.3,0.1-0.6,0.2-0.9,0.3
		c-0.5,0.1-1,0.2-1.4,0.2c0,0,0-0.1,0.1-0.1c0.4-0.4,0.9-0.7,1.5-1c0.6-0.3,1.3-0.5,1.9-0.6c0.7-0.2,1.3-0.3,2-0.3
		c0.7-0.1,1.4-0.1,2.1-0.2c0.2,0,0.4,0,0.6,0c-0.3,0.2-0.6,0.5-0.9,0.6C79.3,12.2,78.9,12.3,78.5,12.3z M76.7,25.1
		c0.3-0.5,0.7-1.1,1.1-1.7c1.6-2.2,3.3-4.4,5.1-6.5l0-0.1c0.4,0.1,0.9,0.2,1.3,0.2c1.1,0.2,2.1,0.3,3.2,0.3c0,0,0,0,0,0c0,0,0,0,0,0
		c-1-0.3-2.1-0.5-3.1-0.8c-0.5-0.1-0.9-0.3-1.4-0.4L82.8,16c-0.3-0.2-0.6-0.4-0.9-0.6c-0.3-0.2-0.6-0.4-0.9-0.7
		c-0.4-0.3-0.9-0.7-1.3-1.1c0.3-0.2,0.6-0.4,0.8-0.6c0.4-0.5,0.5-1,0.5-1.5c1.1-0.1,2.2-0.2,3.3-0.3c-1.4-0.2-2.8-0.3-4.3-0.4
		c-0.7,0-1.4-0.1-2.2-0.1c-0.7,0-1.5,0-2.2,0.1c-0.7,0.1-1.5,0.3-2.2,0.5c-0.7,0.3-1.4,0.6-2.1,1.2c-0.4,0.3-0.6,0.8-0.7,1.2
		c-0.1,0.2-0.1,0.4-0.1,0.7c-0.2-0.4-0.3-0.8-0.4-1.2c-0.3-1.2,0-2.5,0.8-3.6c0.8-1.1,1.8-2.1,3-2.8c1-0.6,3.5-1.1,3.8-1.2
		c0,0,0,0,0,0c0,0,0,0,0,0c0,0,0,0,0,0l0,0c2.5-1.5,4.8-2.8,7.3-3.4c1.2-0.3,2.5-0.7,3.9-0.7c1.4,0,2.8,0.3,4,0.9
		c1.2,0.6,2.3,1.5,3.3,2.4c1,0.9,2,1.8,2.8,2.8c1.1,1.4,2.1,2.8,3.1,4.2c-0.3-0.1-0.6-0.2-0.9-0.3c-0.4-0.1-0.9-0.2-1.4-0.2
		c0,0-0.1,0-0.1,0.1c0,0.1,0,0.1,0.1,0.2l0,0c0.4,0.2,0.7,0.4,1.1,0.6c0.3,0.2,0.7,0.5,1,0.8c0.6,0.4,1.1,0.9,1.7,1.4
		c-0.1,0.9-0.1,1.7-0.1,2.6c0.1,1.2,0.2,2.4,0.5,3.6c0.2,1.2,0.6,2.3,1,3.5c0.3,0.7,0.6,1.5,1,2.2c-0.3-0.1-0.7-0.2-1-0.4
		c-0.4-0.2-0.8-0.4-1.1-0.6c-0.4-0.2-0.7-0.5-1.1-0.7c0.3,0.4,0.5,0.7,0.8,1.1c0.2,0.2,0.4,0.4,0.6,0.6c-0.4,1.5-0.5,3.1-0.5,4.7
		c0,0.9,0.1,1.9,0.2,2.8c-0.3-0.3-0.6-0.6-0.9-0.9c-0.4-0.4-0.9-0.9-1.3-1.4c-0.4-0.5-0.8-1-1-1.6c0,0.6,0.2,1.3,0.4,1.9
		c0,0.1,0.1,0.2,0.1,0.3c-0.5,0.8-0.9,1.5-1.2,2.4c-0.2,0.4-0.3,0.9-0.5,1.4c0,0.1,0,0.1,0,0.2c-0.1-0.1-0.3-0.2-0.4-0.4l-1.3-1.3
		c-0.4-0.4-0.9-0.9-1.3-1.3c-0.4-0.4-0.9-0.9-1.3-1.4c0,0.7,0.2,1.3,0.5,1.9c0.1,0.1,0.1,0.2,0.2,0.4c-0.1,0.4-0.3,0.8-0.5,1.2
		c-0.3,0.6-0.6,1.1-1,1.6c-0.4,0.5-0.8,0.9-1.3,1.3c-0.2,0.1-0.3,0.2-0.5,0.3c0-0.1-0.1-0.3-0.1-0.4c-0.2-0.5-0.4-1-0.7-1.5
		c-0.3-0.5-0.6-0.9-1-1.3c-0.4-0.4-0.7-0.8-1.2-1.1c0.1,0.4,0.3,0.8,0.4,1.2c0,0-0.6,0.5-1.8,1.1c-0.6-1.8-2.3-3.3-2.9-3.6
		c0.1-0.1,0.2-0.3,0.2-0.4c0.3-0.4,0.6-0.9,1.2-1.1c-0.6,0-1.2,0.3-1.6,0.7c-0.5,0.4-0.8,0.8-1.2,1.3c-0.4,0.4-0.7,0.9-1.1,1.2
		c-0.2,0.2-0.4,0.4-0.7,0.6c-0.2-0.3-0.4-0.6-0.5-0.9c-0.2-0.5-0.4-1-0.5-1.6c-0.1-0.6-0.2-1.2-0.3-1.8c-0.1-0.6-0.2-1.2-0.2-1.9
		c-0.4,0.5-0.6,1.2-0.7,1.8c0,0.1,0,0.2,0,0.2c-0.2,0.1-0.4,0.2-0.6,0.3l-1,0.5c-0.4,0.2-0.7,0.4-1.1,0.6c-0.1,0.1-0.2,0.2-0.3,0.2
		c-0.2-0.3-0.3-0.7-0.5-1.1c-0.2-0.7-0.3-1.4-0.4-2.1c-0.1-0.7-0.1-1.5-0.2-2.2c0-0.2,0-0.4,0-0.5C76.1,26.2,76.4,25.6,76.7,25.1z
		 M28.1,82.7c-0.1-0.2-0.1-0.3-0.2-0.5c-0.1-0.5-0.1-1.2-0.1-1.9c0.1-1.4,0.5-2.8,0.9-4.2c0.4-1.4,0.9-2.9,1.4-4.3
		c0.6-1.4,1.3-2.8,2.4-3.8l0.2-0.2l-0.1-0.3c-0.4-0.9,0-1.8,0.5-2.6c0.5-0.8,1.1-1.5,1.8-2.4c0.6-0.8,1.3-1.6,2-2.4
		c0.7-0.8,1.4-1.6,2-2.5l0,0c0,0,0-0.1,0-0.1c0-0.1-0.1-0.1-0.2-0.1c-1.1,0.4-2.1,0.9-3,1.6c-0.3,0.2-0.5,0.4-0.8,0.6
		c0-0.3,0-0.6,0.1-1c0.2-0.6,0.5-1.1,0.9-1.6c0.8-1,1.9-1.9,3-2.7c1.4-1,2.8-2,4.2-3c0,0.1-0.1,0.2-0.1,0.2
		c-0.4,0.7-0.7,1.4-1.1,2.1c-0.6,1.4-1.2,2.8-1.6,4.2c-0.4,1.4-0.6,3-1.2,4.3c-0.2,0.3-0.3,0.6-0.6,0.9c-0.3,0.3-0.5,0.6-0.7,0.9
		c-0.5,0.6-0.9,1.2-1.4,1.9c-1,1.2-1.8,2.6-2.5,4c-0.7,1.4-1.4,2.8-1.7,4.5c-0.1,0.8-0.3,1.7,0.1,2.9c0.1,0.1,0.1,0.3,0.2,0.4
		c0.1,0.1,0.2,0.3,0.4,0.4c0.1,0.1,0.3,0.2,0.5,0.3c0.2,0.1,0.3,0.1,0.5,0.2c-0.2,0.2-0.3,0.3-0.5,0.5c-0.3,0.3-0.5,0.6-0.8,0.9
		c-0.8,0.4-1.7,0.8-2.5,1.3C29.6,81.8,28.8,82.2,28.1,82.7z M24.6,101.4c-0.4,0.2-0.9,0.5-1.3,0.7c0.2-0.9,0.4-1.8,0.7-2.7
		c0.3-0.9,0.5-1.8,0.8-2.7c0.3-0.9,0.7-1.8,1.3-2.5l0.1-0.1l0-0.1c0-0.7,0.3-1.4,0.7-2.1c0.4-0.7,0.8-1.3,1.3-2
		c0.9-1.3,1.9-2.5,2.7-3.9c0.8-1.3,1.7-2.7,2.5-4.1c0.6-1,1.2-2.1,1.7-3.2c0,0,0.1,0,0.1,0c0.2,0,0.3-0.1,0.4-0.2
		c0.1-0.1,0.3-0.1,0.4-0.2c0.8-0.6,1.2-1.3,1.6-2c0.2-0.3,0.3-0.6,0.4-0.9c0.9,0.5,2,0.8,3.2,0.6c0.6-0.1,1.3-0.4,1.8-0.8
		c0.3-0.2,0.5-0.4,0.8-0.6c0,0,0,0,0,0c0.1,0,0.1,0.1,0.2,0.1c0.3,0.2,0.7,0.3,1.1,0.4c0.8,0.1,1.5,0,2.2-0.3
		c0.3-0.1,0.6-0.3,0.9-0.5c0.3-0.2,0.5-0.4,0.8-0.6c0.2-0.2,0.4-0.3,0.5-0.5c0.5,0.3,1,0.5,1.5,0.6c0.9,0.2,1.8,0.2,2.6,0.1
		c1.3-0.2,2.6-0.7,3.6-1.6c0,0,0,0.1,0.1,0.1c0.4,0.3,0.9,0.5,1.4,0.6c0.2,0,0.5,0.1,0.7,0c-0.5,0.5-1.1,1-1.7,1.5
		c-1.2,1.1-2.4,2.1-3.6,3c-1.3,1-2.5,1.9-3.9,2.6c-1.4,0.8-2.8,1.4-4.4,1.6l0,0c0,0,0,0,0,0c-1.4,0.1-2.7,0.3-4,0.7
		c-1.5,0.5-2.9,1.1-4.3,1.8c-0.3,0.2-0.7,0.4-1,0.6l-0.3,0.2l-0.2,0.2c-0.2,0.2-0.3,0.3-0.4,0.5c-0.5,0.6-1,1.2-1.4,1.9
		c-0.9,1.3-1.5,2.6-2.2,3.9c-0.6,1.4-1.2,2.7-1.9,4c-0.7,1.3-1.4,2.6-2.2,3.9c-0.1,0.1-0.2,0.2-0.2,0.4c-0.3,0.2-0.6,0.4-1,0.5
		L24.6,101.4z M56.7,91.5c-0.6,0.4-1.2,0.7-1.9,0.9c-0.6,0.2-1.3,0.2-1.9,0.1c-0.6-0.1-1.1-0.3-1.5-0.6L50,90.8l-0.5,1.5
		c-0.2,0.6-0.6,1.4-1.1,2.1c-0.4,0.7-0.8,1.5-1.2,2.3c-0.8,1.6-1.7,3.1-2.9,4.3c-0.6,0.6-1.3,1.2-1.9,1.8c-0.6,0.6-1.1,1.3-1.6,2.1
		l-0.3,0.5c0,0.1-0.1,0.1-0.1,0.2c0,0-0.1,0.1-0.1,0.1c0,0,0,0,0,0.1c0,0,0,0,0,0c0,0-0.1,0-0.2,0c-0.3-0.1-0.6-0.3-0.9-0.6
		c-0.3-0.2-0.5-0.5-0.8-0.8c0.2-0.4,0.4-0.7,0.6-1.1c0.8-2,1.5-4,1.6-6.3c0,0,0-0.1,0-0.1c-0.1,0-0.1,0-0.2,0l0,0
		c-1.5,1.7-2.6,3.4-3.7,5.2c-0.5,0.9-0.9,1.9-1.3,2.8c-0.2,0.5-0.4,1-0.6,1.5c-0.2,0.5-0.3,1-0.5,1.5c-0.3,1-0.7,2-1.4,2.9
		c-0.3,0.4-0.7,0.8-1.1,1.2c-0.4,0.3-0.8,0.7-1.2,1c-0.7,0.7-1.3,1.5-2,2c-0.3,0.2-0.6,0.4-0.9,0.4c-0.3,0-1-0.9-1.4-1.3
		c1-1.1,1.9-2.4,2.5-3.8c0,0,0-0.1,0-0.1c-0.1,0-0.1,0-0.2,0c-1.4,1.5-2.8,2.7-4.4,3.7c-0.8,0.5-1.6,0.9-2.5,1.3
		c0.4-0.8,0.7-1.6,1-2.3c0.6-1.6,1.3-3.3,1.8-4.9c0.8-1.3,1.4-2.5,2-3.8c0.6-1.4,1.2-2.7,1.9-4s1.4-2.6,2.2-3.9
		c0.8-1.3,1.7-2.4,2.6-3.6c0.9-1.2,1.8-2.4,2.6-3.6c0.4-0.6,0.8-1.2,1.2-1.7c0.2-0.2,0.4-0.5,0.6-0.6c0.3-0.2,0.6-0.4,0.9-0.6
		c2.3-1.6,4.9-2.9,7.7-3.9c1.5,0.1,3-0.4,4.5-0.9c0.3-0.1,0.4-0.2,0.7-0.3c-0.3,1.1,0,2.3,0.7,3.3c0.6,0.8,1.6,1.5,2.7,1.6
		c0,0.5,0.2,1.1,0.4,1.5c0.4,0.7,0.9,1.2,1.5,1.6c0.5,0.3,1,0.6,1.6,0.8C57.8,90.4,57.3,91.1,56.7,91.5z M66.1,91.3
		c-0.1,0.1-0.1,0.1-0.2,0.2c-0.8-0.4-1.6-0.8-2.3-1.2c-0.9-0.5-1.5-1.2-1.9-2.1l-0.9-2L60,87.7c0,0.1-0.4,0.2-0.9,0.1
		c-0.4-0.1-0.9-0.2-1.4-0.5c-0.9-0.5-1.5-1.3-1.5-2.1l0-1l-0.9,0.2c-0.9,0.2-1.9-0.1-2.7-0.8c-0.4-0.4-0.7-0.8-0.9-1.3
		c-0.2-0.5-0.3-1-0.3-1.5c1.2-0.5,2.4-1.2,3.5-1.9c1.4-0.9,2.7-1.8,4-2.8c1.2-1,2.4-2,3.6-3c0.9-0.4,1.7-0.8,2.5-1.3
		c0.8-0.5,1.6-1.1,2.4-1.7c0.7-0.6,1.5-1.2,2.2-1.9c0.6-0.6,1.2-1.2,1.8-2c0.6-0.4,1.1-0.7,1.6-1.1c0.5-0.4,1.1-0.9,1.6-1.4l3-2.7
		l0.7-0.7l0.8-0.7c0.5-0.5,1-1,1.5-1.5c0.9-1,1.8-2.1,2.6-3.1c1.6-2.2,3.2-4.4,4.4-6.8l0.5-0.9l0.4-0.9c0.1-0.3,0.2-0.6,0.4-1L89,45
		l0.1-0.5c0.1-0.3,0.2-0.7,0.2-1.1l0-0.5c0-0.2,0-0.4-0.1-0.5c-0.1-0.7-0.5-1.4-0.9-2c-1-1.2-2.3-1.8-3.7-2.3c-1.3-0.5-2.8-0.8-4-1
		c-1.5-0.2-2.8-0.3-4.2-0.4c-1.4-0.1-2.7-0.1-4.1-0.1c-1.4,0-2.7,0.1-4.1,0.1c-1.4,0.1-2.7,0.2-4.2,0.5c-0.8,0.2-1.4,0.6-2,1
		c-0.6,0.4-1.1,0.9-1.6,1.5c-0.9,1.1-1.6,2.2-2.2,3.5c0,0,0,0.1,0,0.1c0.1,0,0.1,0,0.2,0l0,0c0.8-1.1,1.7-2.1,2.7-2.9
		c1-0.8,2.1-1.5,3.2-1.7c1.2-0.2,2.6-0.1,3.9-0.2c1.3,0,2.7,0,4,0.1l4,0.1c1.3,0.1,2.7,0.1,3.9,0.2c1.4,0.1,2.7,0.2,3.9,0.5
		c1.2,0.3,2.5,0.7,3.3,1.6c0.8,0.8,1.1,2.1,0.8,3.4c-0.3,1.2-0.8,2.5-1.4,3.6c-1.3,2.3-3,4.4-4.8,6.3c-0.9,1-1.9,1.9-2.9,2.8
		c-0.5,0.4-1,0.9-1.5,1.3L77,58.8l-0.8,0.6l-3.1,2.6c-0.5,0.4-1,0.8-1.5,1.2c-0.5,0.4-1.1,0.8-1.5,1l-0.3,0.1l-0.2,0.3
		c-0.4,0.5-1.1,1.2-1.7,1.8c-0.6,0.6-1.3,1.2-2,1.7c-0.7,0.5-1.4,1.1-2.1,1.6c-0.7,0.5-1.5,0.9-2.2,1.2l-0.3,0.1l-0.1,0.1
		c0,0,0,0,0,0c-0.1,0-0.3,0.1-0.4,0.1c-0.6,0.1-1.3,0.1-1.8,0c-0.2-0.1-0.4-0.2-0.6-0.3c-0.1-0.1-0.1-0.3-0.2-0.4l-0.2-1.8l-1.5,1.4
		c-0.9,0.8-2.1,1.3-3.3,1.5c-0.6,0.1-1.2,0-1.8-0.1c-0.6-0.1-1.1-0.4-1.3-0.6l-1-1l-0.9,1c-0.3,0.4-0.7,0.8-1,1.1
		c-0.2,0.2-0.4,0.3-0.5,0.5c-0.2,0.1-0.4,0.3-0.6,0.3C46,72.9,45.6,73,45.3,73c-0.2,0-0.3,0-0.5-0.1c-0.2,0-0.4-0.2-0.4-0.2l-1-0.5
		l-0.4,0.6c-0.3,0.4-0.5,0.9-0.9,1.2c-0.3,0.4-0.8,0.6-1.2,0.9c-0.8,0.4-1.8,0.5-2.8,0.3c0.2-0.4,0.3-0.8,0.4-1.2c0,0,0-0.1,0-0.1
		c0,0-0.1,0-0.2,0l0,0c-0.6,0.6-1.1,1.1-1.6,1.6c-0.5,0.5-1.1,1-1.6,1.2c-0.2,0.1-0.4,0-0.3,0c0-0.1,0,0,0-0.2c0-0.3,0-1,0.2-1.6
		c0.3-1.3,0.7-2.7,1.2-4.1c0.5-1.4,1-2.8,1.5-4.2c0.3-0.7,0.6-1.4,0.9-2.1c0.2-0.3,0.4-0.6,0.6-0.9c0.2-0.3,0.5-0.7,0.7-1
		c0.5-0.7,0.9-1.5,1.4-2.2c1,0.7,2.3,1.2,3.7,1.2c0.8,0,1.6-0.1,2.3-0.4c0.5-0.2,1-0.4,1.4-0.7c0.1,0.1,0.3,0.2,0.4,0.3
		c0.4,0.2,0.7,0.4,1.1,0.5c0.8,0.2,1.6,0.3,2.4,0.2c0.8-0.1,1.5-0.3,2.2-0.6c0.3-0.2,0.7-0.3,1-0.5l0.1-0.1c0.7,0.5,1.4,0.8,2.1,1.1
		c1,0.3,2,0.5,3,0.6c1,0.1,2,0,3-0.3c0.7-0.2,1.3-0.4,1.9-0.7c0.1,0.2,0.3,0.3,0.4,0.4c0.5,0.4,1,0.5,1.5,0.7c1,0.3,2,0.2,2.9,0.1
		c0.9-0.2,1.8-0.5,2.6-0.9c0.8-0.4,1.5-1,2.2-1.5c-0.8,0.3-1.6,0.7-2.4,0.9c-0.8,0.2-1.6,0.3-2.5,0.3c-0.8,0-1.6-0.1-2.3-0.4
		c-0.3-0.1-0.6-0.3-0.8-0.5c-0.2-0.2-0.3-0.4-0.3-0.5l0.1-1.6l-1.6,0.8c-0.7,0.4-1.5,0.6-2.2,0.7c-0.8,0.1-1.6,0.1-2.4,0.1
		c-0.8-0.1-1.6-0.2-2.4-0.5c-0.7-0.2-1.5-0.6-1.8-1l-0.7-0.8L55.5,58l-0.8,0.5l-0.8,0.4c-0.5,0.2-1.1,0.5-1.6,0.6
		c-0.5,0.1-1.1,0.1-1.6,0c-0.3-0.1-0.5-0.1-0.7-0.2c-0.2-0.1-0.5-0.3-0.6-0.4l-0.7-0.6l-0.5,0.5c-0.5,0.4-0.9,0.8-1.5,1.1
		c-0.5,0.3-1.2,0.5-1.8,0.6c-1.1,0.2-2.3,0.1-3.5-0.3c0.3-0.6,0.7-1.1,1-1.7c1.2-2.6,1.8-5.4,2.3-8.2c0.4-0.3,0.9-0.6,1.3-0.9
		c2.3-1.7,4.3-3.6,6.4-5.5c2.1-1.9,4.1-3.8,6.2-5.6c1-0.9,2.1-1.7,3.3-2.4c1.2-0.7,2.5-1.3,3.7-1.9c0.6-0.3,1.3-0.5,2-0.8
		c0.7-0.2,1.3-0.5,2-0.7l1-0.3c0.4-0.1,0.7-0.3,1.1-0.4c0.7-0.4,1.3-0.8,1.8-1.5c0.3-0.3,0.5-0.7,0.7-1l0.6-0.9
		c0-0.1,0.1-0.1,0.1-0.2c0,0.3-0.1,0.7-0.1,1c0,0.8,0,1.6,0.3,2.4c0.2,0.8,0.6,1.7,1.5,2.3l1,0.7l0.1-1c0-0.1,0.3-0.4,0.5-0.6
		c0.3-0.3,0.6-0.5,0.8-0.8c0.3-0.3,0.6-0.5,0.8-0.9c0,0,0-0.1,0.1-0.1c0,0,0,0,0,0.1c0,0.3,0,0.7,0,1c0,0.7,0.1,1.4,0.4,2
		c0.3,0.7,0.7,1.4,1.4,1.8l0.4,0.2l0.3-0.1c0.7-0.3,1.2-0.8,1.6-1.3c0.4-0.5,0.7-1,0.9-1.5c0.1-0.1,0.1-0.2,0.2-0.4c0,0,0,0,0.1,0
		c0.4,0.2,2.2,1.8,2.6,3.6l0.1,0.5l0.5-0.2c1.1-0.6,1.8-1,2.2-1.3c0.1,0.3,0.2,0.6,0.3,0.9c0.1,0.5,0.3,0.9,0.4,1.4
		c0.1,0.4,0.1,0.9,0,1.1l-0.6,1.6l1.6-0.7c1.4-0.6,2.6-1.6,3.3-2.9c0.4-0.6,0.6-1.3,0.7-2c0-0.3,0.1-0.5,0.1-0.8
		c0.1,0.2,0.3,0.4,0.4,0.7c0.4,0.5,0.8,1,1.3,1.5c0.5,0.4,1,0.9,1.7,1.2l1.2,0.5l-0.2-1.3c-0.1-0.3,0-0.8,0-1.2
		c0-0.4,0.1-0.9,0.2-1.4c0.1-0.8,0.2-1.6,0.4-2.5c0.2,0.5,0.5,0.9,0.8,1.3c0.7,1.1,1.6,2,2.6,2.9l0.4,0.3c0,0,0,0.1,0,0.1l0,0
		c0.5,2.3,0.5,4.7,0.2,6.9c-0.2,1.1-0.5,2.2-0.9,3.2c-0.4,1-1,2-1.5,3l-0.1,0.1c-0.7,1.8-1.3,3.7-1.9,5.6c-0.7,1.9-1.5,3.7-2.5,5.3
		c-2,3.4-4.9,6.2-7.8,8.6c-3.2,2.3-6.5,4.4-9.8,6.5c-3,1.9-6.1,3.8-9.3,5.4c0.1-0.8,0.3-1.7,0.4-2.5l0.4-1.9
		c0.2-0.6,0.2-1.3,0.5-1.9c-0.3,0.2-0.4,0.5-0.6,0.8c-0.2,0.3-0.3,0.6-0.4,0.9c-0.3,0.6-0.6,1.2-0.8,1.8c-0.5,1.2-0.9,2.5-1.3,3.8
		c-0.2,0.7-0.3,1.3-0.4,2c-0.1,0.3-0.1,0.7-0.1,1.1l-0.1,1c0,0.6-0.1,1.3-0.2,1.9c0,0.3-0.1,0.6-0.1,0.9l-0.1,0.3
		c-0.2,0.1-0.3,0.2-0.5,0.2c-0.3,0.2-0.7,0.3-1,0.5C66.7,90.8,66.4,91.1,66.1,91.3z M62.2,101.2c0.4-0.4,0.9-0.8,1.3-1.2l1.5-1.1
		c0.5-0.4,1-0.8,1.4-1.3c0.2-0.3,0.4-0.6,0.5-0.9c0.1-0.3,0.1-0.6,0.1-1c0-0.7-0.2-1.4-0.4-2l0.7-0.2c0,0,0.2-0.2,0.4-0.4
		c0.2-0.2,0.5-0.3,0.7-0.5c0.3-0.2,0.5-0.3,0.8-0.5c0.3-0.1,0.6-0.3,0.9-0.4l0.2-0.1c0.3,1,0.6,1.9,1.1,2.8c0.5,0.9,1.3,1.8,2.1,2.5
		c0.8,0.7,1.7,1.4,2.7,1.9c0.6,0.4,1.3,0.7,1.9,1c0,0.1-0.1,0.1-0.1,0.2c-0.1,0.4-0.2,0.7-0.3,1.1c0,0.1,0,0.1,0,0.2l-2.4-1.6
		L74.3,99l-1-0.7c-0.3-0.2-0.7-0.4-1.2-0.3c-0.6,0-1,0.4-1.3,0.7c-0.5,0.6-0.5,1-0.7,1.6l0,0.1l0,0.2l0.7,4.6c-0.1,0-0.3,0-0.4,0.1
		c-0.1-1.2-0.2-2.3-0.4-3.5l-0.2-1.2l-0.1-0.3c0-0.1-0.1-0.4-0.2-0.6c-0.1-0.2-0.3-0.5-0.5-0.6c-0.2-0.2-0.5-0.3-0.7-0.3
		c-0.9-0.1-1.3,0.1-1.8,0.3c-0.5,0.2-0.8,0.4-1.2,0.6l-0.1,0l0,0c-1.5,1.2-3,2.5-4.4,3.7l-0.4-0.3C61,102.5,61.6,101.8,62.2,101.2z
		 M94,125.7c-5.2,0.1-10.5,0.4-15.7,0.5c-5.2,0.2-10.5,0.2-15.7,0c-4.7-0.2-9.3-0.5-14-0.5c0.7-1.5,1.5-2.9,2.4-4.3
		c0.6-0.9,1.2-1.8,1.8-2.7l0.5-0.6l0.5-0.6c0.4-0.4,0.7-0.7,1.2-1.2c0.9-0.9,1.5-2,1.9-3.1c0.4-1.1,0.8-2.2,1.1-3.3
		c0.3-1.1,0.5-2.2,0.8-3.2c0.2-0.5,0.3-1,0.6-1.5c0.1-0.2,0.2-0.4,0.3-0.6l0.6,0.5l0.5,0.4l0.6-0.4c1.7-1.2,3.4-2.5,5.1-3.8
		c0.3-0.1,0.6-0.3,0.9-0.4c0.1,0,0.2-0.1,0.2-0.1l0.1,1.1c0.2,1.5,0.3,3.1,0.5,4.6l0.1,1.2l1.2-0.2c0.9-0.1,1.9-0.2,2.8-0.4l1.2-0.2
		l-0.2-1.2l-0.9-5.6c0,0,0,0,0-0.1l0.6,0.4l1,0.6c1.3,0.8,2.6,1.6,4,2.4l1.7,1l-0.2-1.8c0-0.3-0.1-0.6-0.1-0.8c0-0.3,0-0.6,0-0.8
		c0-0.3,0.1-0.5,0.1-0.7c0.1-0.2,0.2-0.3,0-0.2l0.1-1.4c-0.6-0.3-1.2-0.5-1.7-0.7c0.3,0,0.5,0,0.8,0c0.5,0,1.1,0.1,1.5,0.2
		c0.6,0.6,1.4,0.9,2.2,1.1c0.6,0.1,1.2,0.2,1.8,0.1c0.4,0.5,0.9,1,1.6,1.3c0.8,0.5,2.1,0.6,3.1,0.2c0.2-0.1,0.5-0.2,0.7-0.4
		c0,0,0,0,0,0c0.6,1.2,1.3,2.3,2,3.4c0.8,1.2,1.7,2.5,2.6,3.6c1,1.2,2,2.3,3.2,3.3c1.2,1,2.5,2,4.3,2.3c2.5,0.3,4,2.9,5,5.4
		c0.5,1.3,0.9,2.7,1.2,4c0.2,0.9,0.4,1.9,0.4,2.9C103.5,125.5,98.8,125.6,94,125.7z"/>
</g>
</svg>
