<?xml version="1.0" encoding="utf-8"?>
<!-- Generator: Adobe Illustrator 18.1.0, SVG Export Plug-In . SVG Version: 6.00 Build 0)  -->
<svg version="1.1" baseProfile="tiny" id="Layer_1" xmlns="http://www.w3.org/2000/svg" xmlns:xlink="http://www.w3.org/1999/xlink"
	 x="0px" y="0px" viewBox="0 0 128 165" xml:space="preserve">
<g>
	<circle fill="#2D2D2D" cx="80.8" cy="111.7" r="2.5"/>
	<circle fill="#2D2D2D" cx="45.9" cy="111.7" r="2.5"/>
	<path fill="#2D2D2D" d="M63.6,165c-0.5,0-1-0.4-1-1s0.4-1,1-1c4.7,0,10.4-4.1,13.9-8.1c2.4-2.7,3.8-6.3,3.9-10.2
		c0.2-5.3,1.5-13.9,3.2-20.7c1.3-5.3,3.2-12.1,4.5-16.9c0.6-2,1.1-4.2,1.6-7.1c0.4-2.3,1.6-5.7,5.1-9.3c3.4-3.5,6.4-5.2,9.5-6.9
		c2-1.1,4.1-2.3,6.5-4.1c6.4-4.7,8.3-8.4,9.6-11.5l0.1-0.1c6.4-11.1,4.3-20.1,3.5-22.5c0-0.1-0.1-0.1-0.2-0.2c0,0-0.1,0-0.2,0
		C106,59,93.3,71.6,85.8,84.1c-0.3,0.4-0.7,0.7-1.2,0.8c-0.5,0.1-1-0.1-1.4-0.4c-4.2-3.8-9.4-3.2-14.3-2.5c-1.8,0.2-3.6,0.5-5.3,0.5
		c-0.5,0-1-0.4-1-1s0.4-1,1-1c1.6,0,3.2-0.2,5-0.4c5.1-0.6,10.8-1.4,15.7,2.9c7.6-12.6,20.4-25.4,39.2-39.1c0.6-0.4,1.3-0.5,2-0.3
		c0.7,0.2,1.2,0.8,1.4,1.4c0.9,2.7,3.1,12.3-3.7,24.1c-1.8,4.1-4.2,7.8-10.3,12.3c-2.5,1.9-4.7,3.1-6.8,4.2
		c-3.1,1.8-5.8,3.3-9.1,6.6c-3.1,3.2-4.2,6.3-4.6,8.3c-0.4,2-0.9,4.6-1.6,7.3c-1.4,4.8-3.2,11.6-4.5,16.9
		c-1.6,6.7-2.9,15.2-3.1,20.3c-0.1,4.3-1.7,8.4-4.4,11.5C75.4,160.3,69.2,165,63.6,165z"/>
	<path fill="#2D2D2D" d="M99.5,81.2c-0.1,0-0.3,0-0.4-0.1c-0.5-0.2-0.7-0.8-0.5-1.3c1.9-4.3,4.4-8.2,7.6-11.6
		c3.1-3.3,6.6-6.1,10.6-8.3c0.5-0.3,1.1-0.1,1.3,0.4c0.3,0.5,0.1,1.1-0.4,1.3c-3.8,2.1-7.2,4.7-10.1,7.9c-3,3.3-5.5,7-7.2,11.1
		C100.3,80.9,99.9,81.2,99.5,81.2z"/>
	<path fill="#2D2D2D" d="M106,78.1c-0.3,0-0.6-0.1-0.8-0.4c-0.3-0.4-0.2-1.1,0.2-1.4c0.7-0.5,2.4-2,2.7-4.5c0.2-1.7-0.2-3.1-0.6-3.9
		c-0.2-0.5,0-1.1,0.5-1.3c0.5-0.2,1.1,0,1.3,0.5c0.5,1.1,1.1,2.9,0.8,5.1c-0.5,3.2-2.6,5.1-3.5,5.8C106.4,78.1,106.2,78.1,106,78.1z
		"/>
	<path fill="#2D2D2D" d="M81.5,82.4c-0.1,0-0.2,0-0.3,0c-0.5-0.1-0.8-0.7-0.7-1.2l0.6-2.4c2.4-9,8.2-30.2,11.5-50
		c0.6-3.7,1.9-11.3-2-18.3c-2.5-4.5-6.3-7.5-7.9-8.2c0.3,0.6,0.7,1.4,1.1,2.2c1.7,3.1,4.2,7.8,5,13.8c1.4,9.8-3,20.5-6.2,28.4
		l-0.2,0.6c-0.6,1.6-1.3,3.1-2,4.8c-3.1,7.3-6.5,15.6-10.1,28.7c-0.1,0.5-0.7,0.8-1.2,0.7c-0.5-0.1-0.8-0.7-0.7-1.2
		c3.6-13.2,7.1-21.6,10.1-29c0.7-1.6,1.3-3.2,2-4.7l0.2-0.6c3.3-8.1,7.3-18.1,6-27.4c-0.8-5.7-3.2-10.2-4.8-13.2
		c-1.4-2.6-2.2-4.1-1-5C81.5,0,82-0.1,82.7,0.1c2.5,0.5,7.1,4.5,9.7,9.4c4.2,7.7,2.9,15.7,2.2,19.6c-3.3,20-9.1,41.2-11.5,50.2
		l-0.6,2.4C82.3,82.1,81.9,82.4,81.5,82.4z"/>
	<path fill="#2D2D2D" d="M64.2,165c-5.4,0-12.2-4.4-16-8.7c-2.7-3-4.2-7.1-4.4-11.4c-0.2-5.1-1.5-13.7-3.1-20.3
		c-1.3-5.2-3.2-12.1-4.5-16.9c-0.6-2.1-1.1-4.3-1.6-7.3l0-0.1c-0.4-2-0.9-5.1-3.9-8.2c-3.2-3.3-5.9-4.8-9.1-6.6
		c-2.1-1.2-4.2-2.4-6.8-4.2C8.8,76.7,6.3,73,4.6,68.9c-6.8-11.8-4.5-21.4-3.7-24.1c0.2-0.7,0.7-1.2,1.4-1.4c0.7-0.2,1.4-0.1,2,0.3
		c18.7,13.8,31.5,26.6,39.2,39.1c4.9-4.2,10.6-3.5,15.7-2.9c1.8,0.2,3.5,0.4,5,0.4c0.5,0,1,0.4,1,1s-0.4,1-1,1
		c-1.7,0-3.4-0.2-5.3-0.5c-5-0.6-10.1-1.3-14.3,2.5c-0.4,0.4-0.9,0.5-1.4,0.4c-0.5-0.1-1-0.4-1.2-0.8C34.5,71.6,21.8,59,3.2,45.3
		c-0.1-0.1-0.2,0-0.2,0c-0.1,0-0.1,0.1-0.2,0.2C2,47.9-0.1,56.8,6.3,67.9L6.4,68c1.3,3.1,3.3,6.8,9.6,11.5c2.4,1.8,4.5,3,6.5,4.1
		c3.1,1.8,6.1,3.4,9.5,6.9c3.5,3.6,4.1,7.1,4.5,9.2l0,0.1c0.5,2.9,1,5.1,1.6,7.1c1.4,4.8,3.3,11.7,4.5,16.9c1.7,6.9,3,15.4,3.2,20.7
		c0.1,3.9,1.5,7.5,3.9,10.2c4.1,4.6,10.3,8.1,14.5,8.1c0.5,0,1,0.4,1,1S64.7,165,64.2,165z"/>
	<path fill="#2D2D2D" d="M28.2,81.2c-0.4,0-0.7-0.2-0.9-0.6c-1.8-4.1-4.2-7.8-7.2-11.1c-2.9-3.2-6.3-5.8-10.1-7.9
		c-0.5-0.3-0.7-0.9-0.4-1.3c0.3-0.5,0.9-0.7,1.3-0.4c4,2.2,7.5,5,10.6,8.3c3.2,3.4,5.7,7.3,7.6,11.6c0.2,0.5,0,1.1-0.5,1.3
		C28.5,81.1,28.4,81.2,28.2,81.2z"/>
	<path fill="#2D2D2D" d="M21.8,78.1c-0.2,0-0.4-0.1-0.6-0.2c-0.9-0.7-3-2.6-3.5-5.8c-0.3-2.2,0.2-3.9,0.8-5.1
		c0.2-0.5,0.8-0.7,1.3-0.5c0.5,0.2,0.7,0.8,0.5,1.3c-0.4,0.9-0.8,2.3-0.6,3.9c0.4,2.5,2,4,2.7,4.5c0.4,0.3,0.5,0.9,0.2,1.4
		C22.4,78,22.1,78.1,21.8,78.1z"/>
	<path fill="#2D2D2D" d="M46.3,82.4c-0.4,0-0.8-0.3-1-0.7l-0.6-2.4c-2.5-9-8.2-30.2-11.5-50.2c-0.6-3.9-2-11.9,2.2-19.6
		c2.7-4.9,7.3-8.8,9.7-9.4c0.6-0.1,1.1,0,1.5,0.3c1.2,0.9,0.4,2.4-1,5c-1.6,3-4,7.5-4.8,13.2c-1.1,7.6,3.1,17.8,6.4,26l0.8,2
		c3.8,9.3,7,18.2,11.1,33.7c0.1,0.5-0.2,1.1-0.7,1.2c-0.5,0.1-1.1-0.2-1.2-0.7c-4.1-15.4-7.3-24.2-11-33.5l-0.8-2
		c-3.4-8.4-7.7-18.9-6.6-27c0.9-6,3.4-10.7,5-13.8c0.4-0.8,0.9-1.6,1.1-2.2c-1.7,0.7-5.5,3.7-7.9,8.2c-3.9,7.1-2.6,14.7-2,18.3
		c3.3,19.9,9,41,11.5,50l0.6,2.4c0.1,0.5-0.2,1.1-0.7,1.2C46.5,82.3,46.4,82.4,46.3,82.4z"/>
	<path fill="#2D2D2D" d="M70.3,152.1L70.3,152.1c-2.4-0.2-3.4-0.4-4.3-0.6c-0.8-0.2-1.4-0.3-2.7-0.3c-0.5,0-1-0.4-1-1
		c0-0.5,0.4-1,1-1c1.5,0,2.2,0.1,3,0.3c0.8,0.2,1.8,0.4,3.9,0.5c1.7-0.3,3-2.7,3.8-4.6c1.1-2.7,1-5.6-0.1-8.3
		c-1.9-4.9-6.7-20.1-3.6-26.3c0.1-0.2,6.4-10.6,8.3-15.1c1.9-4.6,5.2-12.4,5.3-12.5c0.2-0.5,0.8-0.7,1.3-0.5
		c0.5,0.2,0.7,0.8,0.5,1.3c0,0.1-3.4,7.9-5.3,12.5c-1.9,4.7-8.1,14.9-8.4,15.3c-2.3,4.6,0.8,17.4,3.7,24.6c1.3,3.2,1.3,6.7,0.1,9.8
		C74.5,149.9,72.6,151.8,70.3,152.1L70.3,152.1z"/>
	<path fill="#2D2D2D" d="M56.5,152.1L56.5,152.1c-2.3-0.2-4.1-2.2-5.6-5.9c-1.2-3.1-1.2-6.6,0.1-9.8c2.9-7.2,6-20.1,3.7-24.7
		c-0.2-0.4-6.4-10.6-8.4-15.3C44.3,91.8,42.1,84.3,42,84c-0.2-0.5,0.1-1.1,0.7-1.2c0.5-0.2,1.1,0.1,1.2,0.7c0,0.1,2.3,7.7,4.2,12.2
		c1.9,4.5,8.2,15,8.2,15.1c3.2,6.3-1.6,21.5-3.5,26.4c-1.1,2.7-1.1,5.7-0.1,8.3c0.8,2,2.1,4.4,3.8,4.6c2.1-0.2,3.1-0.4,3.9-0.5
		c0.9-0.2,1.6-0.3,3-0.3c0.5,0,1,0.4,1,1c0,0.5-0.4,1-1,1c-1.3,0-1.8,0.1-2.7,0.3C59.9,151.7,58.8,151.9,56.5,152.1L56.5,152.1z"/>
	<path fill="#2D2D2D" d="M63.8,156.1c-2.8,0-4.5-0.3-5.5-0.8c-1-0.6-2.2-2.8-2.7-3.7c-0.3-0.5-0.1-1.1,0.4-1.3
		c0.5-0.3,1.1-0.1,1.3,0.4c0.7,1.3,1.6,2.7,2,2.9c0.4,0.2,1.4,0.6,4.5,0.6c1.7,0,3.5-0.3,4.2-0.6c0.4-0.2,1.4-1.5,2.1-2.7
		c0.3-0.5,0.9-0.6,1.4-0.3c0.5,0.3,0.6,0.9,0.3,1.4c-0.4,0.7-1.9,2.9-2.9,3.5C67.6,155.9,65.1,156.1,63.8,156.1z"/>
	<path fill="#2D2D2D" d="M63.7,145.4c-0.7,0-1.3-0.3-1.7-0.9l-5-6.9c-0.5-0.7-0.6-1.5-0.2-2.3c0.4-0.7,1.1-1.2,1.9-1.2h10.1
		c0.8,0,1.5,0.5,1.9,1.2c0.4,0.7,0.3,1.6-0.2,2.3l-5,6.9C65,145.1,64.4,145.4,63.7,145.4z M58.7,136.1c0,0-0.1,0-0.1,0.1
		c0,0,0,0.1,0,0.2l5,6.9c0,0,0.2,0,0.2,0l5-6.9c0.1-0.1,0-0.2,0-0.2c0-0.1-0.1-0.1-0.1-0.1H58.7z"/>
	<path fill="#2D2D2D" d="M63.7,151.1c-0.5,0-1-0.4-1-1v-5c0-0.5,0.4-1,1-1c0.5,0,1,0.4,1,1v5C64.7,150.6,64.2,151.1,63.7,151.1z"/>
</g>
</svg>
