<?xml version="1.0" encoding="utf-8"?>
<!-- Generator: Adobe Illustrator 23.0.0, SVG Export Plug-In . SVG Version: 6.00 Build 0)  -->
<svg version="1.1" id="Layer_1" xmlns="http://www.w3.org/2000/svg" xmlns:xlink="http://www.w3.org/1999/xlink" x="0px" y="0px"
	 viewBox="0 0 128 128" 
width="128" height="128"
style="enable-background:new 0 0 128 128;" xml:space="preserve">
<style type="text/css">
	.st0{fill:#2D2D2D;}
</style>
<g>
	<path class="st0" d="M109.3,33.2c-0.5-0.1-1.3-0.2-1.8,0.1c-0.5,0.4-0.7,1.1-0.8,1.6c0,0.4,0.2,0.7,0.5,0.8
		c0.5,0.1,1.3,0.2,1.8-0.1c0.5-0.4,0.7-1.1,0.8-1.6C109.9,33.6,109.7,33.3,109.3,33.2z"/>
	<path class="st0" d="M128,34.9c-0.1-0.5-0.4-0.9-0.9-1.1c-0.2-0.1-0.4-0.2-0.7-0.2c-0.2,0-0.5,0.1-0.7,0.1l-0.6,0.2l-1.2,0.4
		c-0.8,0.3-1.6,0.6-2.3,0.8l-0.6,0.2c0.2-0.3,0.5-0.6,0.7-0.9l0.7-1.1c0.2-0.4,0.4-0.7,0.7-1.1c0.8-1.5,1.5-3.1,1.8-4.8
		c0.3-1.7,0-3.5-0.8-5.1c-0.1-0.2-0.2-0.4-0.3-0.6c-0.1-0.2-0.2-0.3-0.4-0.6c-0.2-0.2-0.6-0.4-0.9-0.3c-0.2,0-0.3,0.1-0.5,0.2
		l-0.3,0.2l-2.1,1.4c-1.4,0.9-2.8,1.8-4.2,2.8l-1,0.7c-0.3,0.2-0.6,0.4-0.9,0.6c-0.3,0.2-0.7,0.3-1,0.4c-0.3,0.1-0.7,0.1-1.1,0.2
		c-1.7,0.3-3.4,0.7-5,1.5c-0.8,0.4-1.6,0.9-2.2,1.5c-0.7,0.6-1.2,1.2-1.8,1.9c-1,1.4-1.8,3-2.2,4.6c0,0,0,0,0,0.1
		c-1.1,0-2.2-0.1-3.3-0.3c-1.1-0.2-2.1-0.5-3.1-0.9c-1-0.4-2.1-0.7-3.2-1c-0.6-0.1-1.1-0.3-1.8-0.4l-0.2,0c-0.1,0-0.1,0-0.3,0
		c-0.4,0-0.8,0.2-1.1,0.6c-0.1,0.2-0.3,0.4-0.3,0.7c0,0.3,0.1,0.6,0.2,0.7l0.1,0.1l0,0.1l0.1,0.1l0.1,0.2c1.5,1.8,3.2,3.4,5.2,4.6
		c0.7,0.4,1.4,0.8,2.2,1.1c0,0.8-0.2,1.5-0.5,2.2c-0.3,0.8-0.8,1.5-1.3,2.2c-1,1.4-2.2,2.6-3.5,3.8c-0.3,0.3-0.6,0.6-1,0.8
		c-0.2,0.1-0.3,0.2-0.5,0.4c-0.2,0.1-0.3,0.2-0.5,0.3c-0.7,0.4-1.5,0.7-2.3,1.1c-1.6,0.6-3.2,1.1-4.9,1.4c-1.7,0.4-3.4,0.6-5.1,0.7
		c-1.7,0.2-3.4,0.2-5.1,0.2c-3.4-0.1-6.9-0.6-10.4-1c-3.5-0.4-7-0.7-10.5-1.2c-3.5-0.4-7-1-10.6-1c-0.9,0-1.8,0.1-2.7,0.2
		c-0.9,0.2-1.8,0.4-2.6,0.6c-1.7,0.5-3.4,1.1-5,2c-1.6,0.9-3.1,2-4.3,3.4c-0.9,0.9-1.5,2-2.1,3.2c-1.1,0.1-2.2,0.4-3.1,1
		c-1,0.6-1.9,1.3-2.7,2.2c-1.5,1.8-2.5,4-3,6.2c-0.5,2.2-0.8,4.5-0.8,6.8l0,1.6L12,81.4c-0.1,1.1-0.2,2.2-0.3,3.3
		c-0.3,2.2-0.6,4.3-1.2,6.4c-0.6,2.1-1.3,4.2-2.3,6.1c-0.5,1-1.1,1.9-1.7,2.8c-0.3,0.4-0.7,0.9-1,1.3c-0.4,0.4-0.8,0.8-1.2,1.1
		c-0.9,0.7-1.7,1.4-2.6,2.2c-0.8,0.8-1.5,1.9-1.6,3.1l-0.1,1l0.7-0.8c0.5-0.6,1.2-1.1,1.9-1.5c0.3-0.2,0.6-0.3,0.9-0.5
		c-0.2,0.3-0.3,0.6-0.5,0.8c-0.4,0.7-0.8,1.4-1.1,2.2c-0.3,0.7-0.6,1.5-0.8,2.3c-0.2,0.8-0.4,1.6-0.4,2.4l-0.2,2.2l1.5-1.6
		c0.6-0.7,1.3-1.3,2-1.9c0,0,0,0,0,0c0,0.1,0,0.2-0.1,0.3c-0.2,1-0.2,2.1-0.1,3.1c0.1,1,0.3,2,0.6,3c0.1,0.5,0.3,1,0.5,1.4l0.6,1.4
		l0.7,1.6l1-1.5c0.3-0.5,0.7-1,1-1.5c0.3-0.5,0.6-1.1,0.8-1.6c0.1-0.4,0.3-0.8,0.4-1.2c0.3,0.5,0.6,0.9,1,1.4l1.5,2.3l0.1-2.7
		c0-0.6,0.1-1.3,0.3-1.9c0.1-0.6,0.3-1.3,0.6-1.8c0.3-0.6,0.6-1.2,0.9-1.8c0.1-0.2,0.2-0.4,0.4-0.6l0.9,3.6l0.2,0.8l0.6-0.6
		c0.5-0.5,0.8-1,1.2-1.6c0.1-0.2,0.2-0.3,0.3-0.5c0.3-0.5,1.1-0.4,1.2,0.2c0.6,3.1,1.5,9.6,2.2,11.7c0.4,1.2,1.5,2,2.7,2h6.1
		c0.4,0,0.9-0.1,1.2-0.4c0.6-0.6,0.7-1.5,0.2-2.2c-0.8-1.2-2.2-2.7-4.5-3c0,0-0.1,0-0.1-0.1c-0.1-0.6-0.3-1.4-0.4-2.1
		c-0.5-2.3-1-4.8-0.8-6.9c0.1-1.2,3.1-3.3,5.7-5c0.6-0.4,0.4-0.3,1-0.7c0.1,0.1,0.2,1.4,0.5,2.4l0,0.1c0.9,2.3,1.9,4.6,3,6.9
		c0.5,1.1,1,2.3,1.6,3.4c0.5,1.1,1,2.2,1.6,3.4c0.3,0.9,1,1.6,1.9,1.9c0.2,0.1,0.4,0.1,0.7,0.2c0.1,0,0.2,0,0.3,0h0.3l1,0l3.8-0.1
		l1,0l0.2,0c0.1,0,0.3,0,0.5-0.1c0.4-0.1,0.7-0.4,0.8-0.7c0.2-0.3,0.3-0.7,0.2-1.1c0-0.2-0.1-0.4-0.2-0.5l-0.2-0.3
		c-0.2-0.3-0.5-0.6-0.8-0.9c-0.6-0.5-1.3-0.8-1.9-1l-0.9-0.3l-0.4-0.2c-0.1-0.1-0.2-0.1-0.3-0.1c-0.2-0.1-0.3-0.3-0.4-0.5l-0.2-0.5
		c-0.1-0.2-0.1-0.3-0.2-0.5c-0.3-0.6-0.5-1.2-0.8-1.8l-1.7-3.4c-0.5-1.1-1.1-2.3-1.5-3.5c-0.2-0.6-0.4-1.2-0.5-1.8
		c-0.1-0.5,0.2-1,0.6-1.2l0,0l0.1,0c1.5-1.3,2.9-2.8,4.1-4.4c1.2-1.6,2.2-3.4,3-5.3c0.8-1.9,2.9-6.5,2.4-11.2
		c2.4,0.1,4.3,0.1,7.8,1.7c2.9,1.3,10.1,2.5,16.6,2.5c1.5,0,2.2,0,3.5-0.1c-0.1,0.6,0,1.2,0.4,1.9c0.3,0.7,0.8,1.4,1.2,2.1
		c0.2,0.3,0.4,0.6,0.5,0.9c0.1,0.3,0.2,0.5,0.3,0.8c0.1,0.6,0.1,1.1,0,1.7c-0.3,1.4-0.4,2.8-0.6,4.3c-0.1,1.4-0.3,2.9-0.3,4.3
		c-0.1,1.4-0.1,2.9-0.2,4.3c0,0.4,0,0.8,0.1,1.2c0.1,0.4,0.2,0.7,0.2,1.1c0.1,0.7,0.2,1.4,0.3,2.1c0.2,1.4,0.4,2.9,0.8,4.2
		c0.2,0.7,0.4,1.4,0.6,2.1l0.2,0.5c0.1,0.2,0.2,0.5,0.4,0.7c0.3,0.4,0.8,0.7,1.3,0.8c0,0,1.4,0,2.1,0l0.2,0.8
		c0.2,0.8,0.9,1.5,1.7,1.6l8.2,0.2c0.1,0,0.2,0,0.3,0c0.4,0,0.9-0.2,1.2-0.5c0.4-0.4,0.6-0.9,0.5-1.5c-0.3-2.2-2.5-2.5-3.8-2.7
		c-0.4-0.1-0.8-0.1-1.1-0.2c-0.2-0.1-0.4-0.3-0.5-0.6l-1-3.9c-0.1-0.4-0.1-0.9,0-1.3c0.3-0.9,0.7-3,1.1-5.3c0.3-1.4,0.6-2.9,0.9-4.2
		c0.2-0.9,0.6-1.7,1.1-2.3c0.8-1,1.3-2.2,1.4-3.4c0.2-2.4,1.4-4.7,3.3-6.6c2.2-2.2,4.8-6.2,6-8.9c0.1,0.1,0.2,0.2,0.3,0.3
		c0.2,0.2,0.5,0.5,0.7,0.7l1.2,1.1l-0.1-1.7c0-0.5-0.1-1-0.1-1.5c0-0.5,0-0.9,0.1-1.4c0.1-0.4,0.2-0.9,0.3-1.4
		c0-0.2,0.1-0.4,0.1-0.5c0.4,0.4,0.8,0.7,1.2,1c0.7,0.5,1.5,0.9,2.2,1.3l0.7,0.4l-0.3-0.9c-0.3-1-0.3-2.1-0.2-3.1
		c0-0.5,0.1-1,0.2-1.5c0.3,0.2,0.7,0.4,1,0.5c0.9,0.2,1.8,0.2,2.6,0l1.5-0.4l-1-1c-0.6-0.6-1.1-1.4-1.5-2.3
		c-0.4-0.9-0.9-5.1-0.9-6.2c0-1.3,0-2.7,0.1-4c0.1-1.3,0.3-2.6,0.6-3.9c0.3-1.2,0.8-2,1.3-3.3c0.3,0.9,0.7,1.4,1.4,2.2l0.4,0.5
		l0.1-0.7c0.6-3.2,1.8-6.4,3.1-9.4c0.3-0.8,0.7-1.5,1-2.2c0.4-0.7,0.7-1.4,1.2-2.1c0.9-1.3,1.9-2.4,3.2-3.5c0.6-0.6,1.3-1.1,1.9-1.8
		c0.7-0.8,1.2-1.7,1.4-2.6c0.1-0.5,0.2-0.9,0.2-1.4l0-0.4v-0.2C128,35.2,128,35.1,128,34.9z M17.8,108.7c0,1.1-0.4,2.9-0.8,3.9
		c-0.2,0.6-0.5,1.1-0.8,1.6c-0.2,0.2-0.4,0.5-0.6,0.7l-0.7-4l-0.2-1.1l-0.8,0.8c-0.6,0.6-1,1.1-1.5,1.7c-0.4,0.6-0.8,1.2-1.1,1.9
		c-0.3,0.6-0.5,1.2-0.7,1.9c-0.3-0.5-0.6-0.9-0.9-1.4l-1.3-2.1L7.9,115c-0.1,0.5-0.2,1-0.4,1.5c-0.2,0.5-0.3,1-0.5,1.5
		c-0.2,0.3-0.3,0.7-0.5,1c-0.1-0.2-0.2-0.5-0.2-0.7c-0.3-0.9-0.5-1.7-0.6-2.6c-0.1-0.9-0.1-1.8,0.1-2.6c0.1-0.4,0.2-0.9,0.3-1.3
		c0.1-0.4,0.3-0.8,0.5-1.1l1.4-2.5l-2.5,1.1c-0.3,0.1-0.5,0.3-0.8,0.4c-0.2,0.1-0.4,0.3-0.6,0.4c-0.4,0.3-0.8,0.6-1.2,1
		c-0.2,0.1-0.3,0.3-0.4,0.4c0.1-0.7,0.3-1.5,0.6-2.2c0.2-0.7,0.5-1.4,0.9-2.1c0.3-0.7,0.7-1.4,1.1-2l0.8-1.2l-1.3,0.5
		c-0.8,0.4-1.6,0.8-2.3,1.2c-0.4,0.3-0.8,0.5-1.2,0.9c0.3-0.6,0.7-1.1,1.1-1.6c0.7-0.8,1.7-1.4,2.5-2.1c0.4-0.4,0.9-0.7,1.3-1.1
		c0.4-0.4,0.7-0.9,1.1-1.3c0.3-0.4,0.7-0.9,1-1.4c0.3-0.5,0.6-0.9,0.9-1.4c1.2-1.9,2.1-4,2.9-6.1c0.7-2.1,1.3-4.4,1.6-6.6
		c0.3-2.2,0.4-4.5,0.4-6.8c0-2.2,0.1-4.4,0.5-6.5c0.4-2.1,1.1-4.2,2.4-5.9c1-1.4,1.6-1.7,3.4-2c0.4-0.1,0.7,0.3,0.6,0.6
		c-1.6,3.7-1.2,11.2-0.7,13.2c0.1,0.2,0.1,0.4,0.1,0.6c2.1,9.5,3.1,16.2,2.7,18c-0.6,2.9-2.6,7.1-4.2,9.3
		C18,106.4,17.8,107.5,17.8,108.7z M47.4,91.6c-0.4,1.9-1.1,3.7-1.9,5.4c-0.8,1.7-1.8,3.4-2.8,5c-1,1.6-2.2,3.2-3.4,4.6l0.1,0
		c-0.7,0.5-1,1.4-0.8,2.1c0.1,0.7,0.4,1.3,0.7,1.9c0.2,0.6,0.5,1.2,0.8,1.8l0.8,1.8c0.5,1.2,1,2.3,1.5,3.5c0.2,0.6,0.4,1.2,0.6,1.8
		c0,0.1,0.1,0.3,0.1,0.4l0.1,0.5c0.1,0.4,0.3,0.8,0.7,1.1c0.2,0.1,0.4,0.3,0.5,0.4l0.4,0.2l0.9,0.4c0.6,0.3,1.1,0.6,1.4,0.9
		c0.1,0.1,0.2,0.2,0.3,0.4l-0.8,0l-3.8-0.1l-1,0l-0.2,0c0,0-0.1,0-0.1,0c-0.1,0-0.2,0-0.2-0.1c-0.3-0.1-0.6-0.4-0.7-0.7l0-0.1l0-0.1
		c-0.6-1.1-1.1-2.2-1.7-3.3c-0.6-1.1-1.2-2.2-1.8-3.3c-1.2-2.2-2.4-4.4-3.7-6.5c-0.2-0.6-0.3-1.3-0.1-2l0-0.1v0
		c0-0.3,0.2-0.9,0.6-1.3c2.2-1.5,3.7-2.8,5.2-4.6c2.4-3,6.6-8.1,6.3-14.5c0.6-0.2,1.5-0.4,2.7-0.5C47.9,88.2,47.8,89.9,47.4,91.6z
		 M82.6,122.2c-0.2-0.1-0.3-0.2-0.4-0.4c0-0.1,0-0.2-0.1-0.3L82,121c-0.1-0.7-0.3-1.4-0.4-2.1c-0.3-1.4-0.8-2.8-1.4-4.1
		c-0.3-0.7-0.5-1.3-0.8-2c-0.1-0.3-0.2-0.7-0.3-1c-0.1-0.3-0.1-0.6-0.1-1c0.2-1.4,0.6-2.8,1-4.2c0.4-1.4,0.6-2.8,0.9-4.2
		c0.3-1.4,0.5-2.8,0.7-4.2c0.1-0.8,0-1.7-0.2-2.5c-0.1-0.4-0.4-0.9-0.6-1.2c-0.3-0.3-0.5-0.6-0.8-0.8c-0.5-0.5-0.8-1-1.1-1.6
		c-0.2-0.5-0.3-1-0.3-1.6c1-0.1,1.8-0.3,2.7-0.5c0.2,3.1,1.2,5.5,2,7.2c0.2,0.5,0.4,0.9,0.6,1.3c0.2,0.5,0.2,1.1,0.2,1.6l-1.7,13.8
		c-0.1,0.5-0.1,1.1,0.1,1.6l1.8,6.9C83.7,122.3,83.2,122.3,82.6,122.2z M126.1,35.7c0,0.4-0.1,0.7-0.2,1.1c-0.2,0.7-0.5,1.3-1,1.7
		c-0.5,0.5-1.2,1.1-1.8,1.6c-1.3,1.1-2.6,2.5-3.5,4c-0.5,0.8-0.9,1.6-1.2,2.4c-0.3,0.8-0.6,1.6-0.9,2.4c-1,3-1.9,6.1-2.1,9.3
		c-0.5-0.5-0.9-1.2-1.3-1.8c0,0-0.1-0.1-0.1,0c-0.5,0.1-1.7,2.3-2.2,3.6c-0.5,1.3-0.8,2.7-1,4.1c-0.1,1.4-0.1,2.8,0.2,4.2
		c0.2,1.2-0.1,2.3,0.3,3.5c-0.2,0.9,0.4,1.9,0.5,2.9c0.1,0.6,0.3,1.1,0.5,1.6c0,0.1,0.1,0.1,0.1,0.2c-0.2,0-0.4-0.1-0.5-0.1
		c-0.5-0.2-0.9-0.4-1-0.8l-0.9-2.2l-0.7,2.2c-0.4,1.2-0.5,2.3-0.5,3.5c0,0.9,0.2,1.8,0.6,2.6c-0.5-0.2-1-0.5-1.4-0.8
		c-0.7-0.5-1.1-1.2-1.3-1.9l-0.3-1.2l-0.5,1.3c-0.2,0.5-0.4,0.9-0.6,1.4c-0.2,0.5-0.4,1-0.5,1.5c-0.1,0.6-0.1,1.1-0.1,1.7
		c0,0.1,0,0.1,0,0.2c-0.1-0.1-1.2-0.3-2.2-1.3v0c0,0,0-0.1-0.1,0c0,0-0.1,0-0.1,0.1c0,0.2,0,0.4,0.1,0.6c0.1,0.2-0.1,0.3-0.1,0.4
		c-0.9,2.5-3.6,6.5-5.7,8.6c-1.9,1.9-3.1,4.1-3.6,6.4c-0.4,1.7-0.9,3.2-1.8,4.8c-0.4,0.6-0.6,1.4-0.8,2.1c-0.3,1.3-0.6,2.8-0.9,4.3
		c-0.4,2.2-0.9,4.3-1.1,5.1c-0.2,0.8-0.3,1.6-0.1,2.3l1,3.9c0.2,0.9,0.8,1.6,1.7,1.9c0.4,0.2,0.9,0.2,1.5,0.3
		c1.2,0.2,1.9,0.4,2.1,0.8l-7.9-0.2c-0.1,0-0.1-0.1-0.2-0.2l-2.3-8.8c-0.1-0.3-0.1-0.5,0-0.8l1.7-13.8c0.1-0.9,0-1.7-0.3-2.6
		c-0.2-0.4-0.4-0.9-0.6-1.4c-1.3-2.8-3.2-6.9-0.6-13.3c0.1-0.3,0.1-0.6,0-0.8c-0.4-1-0.7-2.1-0.9-3.1c-0.3-1.1-0.4-2.2-0.6-3.4
		c-0.1-1.1-0.2-2.3-0.1-3.4c0.1-1.1,0.3-2.3,0.6-3.4c-0.5,1-0.8,2.2-1.1,3.3c-0.2,1.2-0.3,2.3-0.4,3.5c0,1.2,0,2.4,0.1,3.5
		c0.1,1.1,0.2,2.2,0.5,3.3c-0.7,1.9-1.1,3.7-1.2,5.3c-6.5,1.9-19.5,0.2-23.4-1.5C52,83.8,47.1,84.5,45,85c-0.1-0.4-0.2-0.9-0.3-1.4
		c0.3-0.5,0.6-1,0.8-1.5c0.3-0.6,0.6-1.3,0.7-2c0.2-0.7,0.3-1.4,0.4-2.1c0.1-0.7,0-1.4,0-2.1c-0.1,0.7-0.2,1.3-0.5,2
		c-0.2,0.6-0.5,1.2-0.8,1.8c-0.3,0.6-0.7,1.1-1.1,1.6c-0.4,0.5-0.9,1-1.3,1.3l0,0c-0.1,0.1-0.1,0.1-0.2,0.2
		c-0.2,0.3-0.2,0.8-0.1,1.1c0.2,0.7,0.4,1.5,0.4,2.2c0,0.1,0,0.2,0,0.3c0.4,5.4-2.7,9.9-5.9,13.8c-1.8,2.3-5,4.4-7.7,6.3
		c-3.6,2.4-6.4,4.3-6.6,6.5c-0.2,2.4,0.3,5.1,0.8,7.5c0.1,0.7,0.3,1.4,0.4,2c0.2,0.9,0.9,1.6,1.8,1.7c1.3,0.2,2.2,1,2.8,1.8h-5.6
		c-0.4,0-0.7-0.2-0.8-0.6c-0.9-2.7-1.8-8.4-2.6-17c-0.1-0.7,0.1-1.3,0.5-1.9c1.4-2,3.7-6.5,4.4-10c0.6-2.8-1.1-11.8-2.7-18.9
		c0-0.2-0.1-0.4-0.1-0.6c-0.5-2-1.9-7.4,0-12.4c1.1-2.8,4-6.4,7-7.9c1.5-0.7,3.1-1.3,4.8-1.7c0.8-0.2,1.7-0.4,2.5-0.6
		c0.8-0.2,1.7-0.3,2.5-0.4c3.4-0.4,6.9-0.3,10.4,0.1c3.5,0.4,6.9,1.2,10.3,1.9c1.7,0.4,3.5,0.7,5.2,1c1.7,0.3,3.5,0.5,5.3,0.6
		c3.6,0.2,7.2-0.2,10.7-1.1c1.7-0.5,3.5-1.1,5.1-1.9c0.8-0.4,1.6-0.8,2.4-1.4c0.2-0.1,0.4-0.3,0.6-0.4c0.2-0.1,0.4-0.3,0.5-0.5
		l1-0.9c1.1-1.1,2.1-2.3,3-3.6c0.3-0.2,0.6-0.3,1-0.5c0.3-0.1,0.7-0.3,1.1-0.4c0.4-0.1,0.7-0.2,1.1-0.3c0.1,0,0.2,0,0.3-0.1
		c0,0.3-0.1,0.5-0.1,0.8c-0.1,0.5-0.2,0.9-0.3,1.4c-0.3,0.9-0.7,1.7-1.3,2.4l-1,1.2l1.5,0.3c0.8,0.2,1.7,0.1,2.6-0.1
		c0.4-0.1,0.8-0.3,1.2-0.6c0.2,0.6,0.3,1.1,0.4,1.7c0.1,1.1,0.1,2.2-0.4,3.1l-0.3,0.6l0.6-0.3c0.8-0.4,1.6-0.7,2.3-1.1
		c0.4-0.2,0.7-0.5,1.1-0.8c0,0.1,0,0.2,0.1,0.3c0.1,0.5,0.2,0.9,0.3,1.4c0.2,0.9,0.1,1.8,0,2.8l-0.1,1.7l1.1-1.1
		c0.5-0.5,0.9-0.9,1.5-1.3c0.3-0.2,0.5-0.4,0.8-0.7c0.1-0.1,0.3-0.3,0.3-0.5c0.1-0.2,0.1-0.4,0.1-0.6c0,0,0-0.1-0.1-0.1
		c0,0-0.1,0-0.1,0v0c-0.1,0.3-0.4,0.5-0.6,0.6c-0.3,0.1-0.6,0.3-0.9,0.4c-0.2,0.1-0.4,0.2-0.6,0.3c0.1-0.6,0.1-1.3,0-1.9
		c-0.1-0.6-0.2-1.1-0.4-1.6l-0.5-1.4l-0.6-1.7l-0.5,1.6c-0.2,0.7-0.6,1.4-1.2,1.9c-0.5,0.4-1,0.7-1.6,1c0.3-0.9,0.5-1.8,0.6-2.8
		c0.1-1.2,0-2.3-0.3-3.5l-0.6-1.9l-0.8,1.9c-0.2,0.4-0.6,0.7-1.1,0.8c-0.1,0-0.3,0-0.4,0.1c0,0,0.1-0.1,0.1-0.1
		c0.3-0.5,0.5-1.1,0.6-1.6c0.1-0.6,0.2-1.1,0.2-1.7c0-0.6,0-1.1-0.1-1.7l-0.1-0.7l-0.6,0.1c-0.4,0.1-0.8,0.2-1.2,0.4
		c-0.4,0.2-0.7,0.3-1.1,0.5c-0.4,0.3-0.9,0.6-1.2,0.9c0.4-0.7,0.8-1.5,1.1-2.3c0.2-0.7,0.4-1.5,0.3-2.3c0.3,0.1,0.5,0.2,0.8,0.2
		c1.1,0.3,2.4,0.4,3.5,0c-1.1,0-2.2-0.4-3.1-0.9c-1-0.5-1.8-1.1-2.7-1.8c-0.9-0.7-1.7-1.5-2.5-2.3c0,0,0.1,0.1,0.1,0.1
		c1,0.6,2,1.1,3.1,1.5c1.1,0.4,2.3,0.7,3.5,0.7c1.2,0.1,2.4-0.1,3.5-0.7c-1.2,0.1-2.3-0.1-3.3-0.3c-1.1-0.2-2.1-0.6-3.2-0.9
		c-1-0.4-2.1-0.8-3.1-1.2c-0.4-0.2-0.8-0.3-1.3-0.5c1,0.2,2,0.4,3.1,0.6c2.2,0.5,4.7,0.5,6.8-0.4c0,0,0,0,0,0c0,0,0.1,0,0.1,0v0
		c0.7-1.5,1.7-2.9,2.8-4c0.6-0.6,1.2-1.1,1.8-1.6c0.6-0.5,1.3-0.8,2-1.1c1.5-0.6,3-0.9,4.6-1.1c0.4-0.1,0.9-0.1,1.3-0.2
		c0.5-0.1,0.9-0.3,1.3-0.5c0.4-0.2,0.8-0.5,1.2-0.7l1-0.8c1.3-1,2.6-2.1,3.9-3.2l0.3-0.3c0,0.1,0,0.2,0,0.3c0,0.8,0.8,1.4,1.9,1.4
		c1,0,1-0.8,1-1.6c0-0.3,0-0.5,0-0.8c0,0,0,0,0,0.1c0.4,0.7,0.7,1.4,0.8,2.2c0.1,0.4,0.1,0.8,0.1,1.2c0,0.4,0,0.8-0.1,1.2
		c-0.3,1.6-1,3.1-1.9,4.4c-0.2,0.3-0.5,0.7-0.7,1l-0.8,0.9c-0.3,0.3-0.6,0.6-0.8,0.9l-0.4,0.4l-0.2,0.2c0,0-0.1,0.1-0.2,0.3
		c-0.1,0.1-0.1,0.3-0.1,0.4c0,0.3,0.1,0.6,0.3,0.8c0.2,0.2,0.5,0.4,0.9,0.3c0.1,0,0.1,0,0.2,0l0.1,0l0.2,0l0.3-0.1l1.2-0.3
		c0.8-0.2,1.6-0.5,2.4-0.7l1.2-0.4l0.3-0.1L126.1,35.7z M120.4,36.3C120.3,36.4,120.3,36.4,120.4,36.3L120.4,36.3z M126.3,35.5
		L126.3,35.5C126.4,35.5,126.4,35.5,126.3,35.5z"/>
</g>
</svg>
