<?xml version="1.0" encoding="utf-8"?>
<!-- Generator: Adobe Illustrator 23.0.0, SVG Export Plug-In . SVG Version: 6.00 Build 0)  -->
<svg version="1.1" id="Layer_1" xmlns="http://www.w3.org/2000/svg" xmlns:xlink="http://www.w3.org/1999/xlink" x="0px" y="0px"
	 viewBox="0 0 128 128" style="enable-background:new 0 0 128 128;" xml:space="preserve">
<style type="text/css">
	.st0{fill:#2D2D2D;}
</style>
<g>
	<path class="st0" d="M116.4,42.9c-0.1-0.1-0.1-0.1-0.2-0.2c0-0.5-0.3-0.9-0.7-1.2c-0.7-0.5-1.7-0.3-2.1,0.4c-0.4,0.7-0.2,1.6,0.5,2
		c0.5,0.3,1.1,0.3,1.6,0.1c0.2,0.1,0.4,0.2,0.7,0.3c0.5,0.2,0.9,0.6,1.3,0.9c-0.2-0.5-0.4-1-0.6-1.5
		C116.7,43.4,116.6,43.1,116.4,42.9z"/>
	<path class="st0" d="M128,54.1c0-0.2-0.1-0.3-0.1-0.5c-0.2-0.6-0.4-1-0.6-1.5c-0.2-0.4-0.5-0.9-0.9-1.3l-0.2-0.2l-0.2-0.3l-0.4-0.6
		l-0.9-1.2c-0.6-0.8-1.2-1.6-1.8-2.3c-1.3-1.5-2.6-3-3.8-4.6c-0.6-0.8-1.1-1.6-1.5-2.5c-0.2-0.4-0.4-0.9-0.6-1.3l-0.1-0.3
		c0-0.1-0.1-0.2-0.1-0.4c-0.1-0.3-0.2-0.5-0.3-0.8c-0.6-1-1.5-1.6-2.5-2.1c-0.3-0.2-0.7-0.3-1-0.4c0.4-0.3,0.7-0.7,1-1.1
		c0.3-0.5,0.6-1,0.9-1.5c0.1-0.1,0.1-0.3,0.2-0.4c0-0.1,0-0.2,0.1-0.3l0-0.2c0-0.3,0.1-0.5,0.2-0.8c0.1-0.5,0.3-1,0.5-1.5
		c0.1-0.1,0.1-0.2,0.2-0.3l0-0.1c0.1-0.1,0.1-0.3,0.1-0.5c-0.1-0.4-0.4-0.6-0.7-0.7c-0.1,0-0.2,0-0.3,0l-0.1,0l0,0l0,0l-0.1,0
		l-0.2,0.1c-0.1,0.1-0.3,0.1-0.4,0.2c-0.5,0.3-1,0.7-1.4,1.1c-0.6,0.5-1.1,1.1-1.5,1.8c-0.3-0.7-0.8-1.4-1.4-1.9
		c-0.5-0.4-1-0.7-1.5-1c-0.3-0.1-0.5-0.3-0.8-0.4l-0.4-0.2l-0.2-0.1l0,0c0,0-0.1,0-0.2-0.1c-0.1,0-0.3,0-0.4,0.1
		c-0.3,0.1-0.4,0.5-0.3,0.8c0,0.1,0.1,0.2,0.1,0.2c0,0,0,0.1,0.1,0.1l0,0l0,0l0.1,0.1l0.1,0.1c0.1,0.1,0.2,0.2,0.3,0.3
		c0.2,0.2,0.4,0.4,0.5,0.6c0,0,0,0,0,0c-0.1,0-0.1-0.1-0.2-0.1c-0.5-0.4-1.1-0.7-1.6-0.9c-0.3-0.1-0.6-0.2-0.9-0.3
		c-0.1-0.1-0.3-0.1-0.4-0.1l-0.2-0.1l-0.1,0l-0.1,0l0,0c0,0-0.1,0-0.1,0c-0.1,0-0.2,0-0.3,0.1c-0.2,0.1-0.3,0.2-0.4,0.4
		c0,0.1,0,0.1,0,0.2c-0.1,0-0.1-0.1-0.2-0.1c-0.3-0.2-0.6-0.4-1-0.6c-0.4-0.2-0.7-0.3-1.2-0.4c-0.2,0-0.5-0.1-1,0
		c-0.1,0-0.2,0.1-0.3,0.1c-0.1,0.1-0.1,0.1-0.2,0.1c-0.1,0.1-0.2,0.2-0.3,0.3c-0.4,0.4-0.6,1-0.7,1.4c-0.1,0.9,0,1.6,0,2.2
		c0,0.6,0,1.4,0.1,2.1c0.2,1.5,0.9,2.9,1.7,4.1c0.2,0.3,0.4,0.6,0.7,0.9c0.3,0.3,0.6,0.5,0.9,0.7c0.2,0.1,0.5,0.3,0.7,0.3
		c-1,1.2-2.2,2.5-3.3,3.4c-1.2,1-2.3,2-3.4,2.9c-0.6,0.4-1.1,0.7-1.8,1c-0.7,0.2-1.5,0.4-2.2,0.5c-1,0.2-2,0.4-3,0.5
		c-0.8,0.1-1.6,0-2.3-0.3c-1.2-0.5-2.4-1-3.7-1.4c-1.7-0.4-3.4-0.7-5.2-0.7c-1.8-0.1-3.5,0.1-5.2,0.4c-1.7,0.3-3.3,0.8-4.9,1.5
		c-6.5,0.5-13.1,1.4-19.6,1.1c-3.3-0.1-6.6-0.5-9.8-1.1c-3.3-0.6-6.6-1.1-9.9-1.4c-1.7-0.1-3.3-0.2-5-0.2c-1.7,0-3.4,0.1-5.1,0.4
		c-0.9,0.2-1.7,0.4-2.6,0.7c-0.4,0.2-0.9,0.4-1.3,0.6c-0.4,0.2-0.7,0.5-1.1,0.7c-1.4,1-2.8,2-4,3.3c-1.2,1.3-2.2,2.7-3,4.3
		c-0.4,0.9-0.8,1.9-1,2.9c-1,0.6-1.9,1.5-2.6,2.6c-0.4,0.6-0.8,1.3-1,2c-0.3,0.7-0.4,1.4-0.5,2.2c0,0.8,0.1,1.5,0.2,2.2
		c0.1,0.7,0.3,1.4,0.3,2.1c0.2,1.4,0.3,2.7,0,4c-0.1,0.6-0.3,1.2-0.6,1.8c-0.1,0.3-0.3,0.5-0.4,0.8l-0.1,0.1l0,0l0,0l0,0.1
		c0,0.1-0.1,0.1-0.1,0.2c-0.1,0.3,0,0.6,0.1,0.8c0.1,0.2,0.3,0.4,0.6,0.4c0.2,0.1,0.6,0,0.8-0.1l0.2-0.1L2,76.5
		c1.2-0.8,2.4-1.7,3.2-3.2c0.4-0.7,0.6-1.5,0.6-2.4c0-0.2,0-0.4,0-0.6l-0.1-0.5l-0.1-1l-0.3-2c0-0.1,0-0.2,0-0.3
		c0.4,1.1,0.8,2.1,1.3,3.1c0,0,1.2,1.6,1.2,1.6c0.3,0.6,0.7,1.1,1,1.7l0.4,0.9l0.2,0.4l0.2,0.5l0.3,0.9l0.2,0.9
		c0.3,1.2,0.3,2.5,0.1,3.7C10.1,80.4,10,80.7,10,81c-0.1,0.3-0.2,0.6-0.3,0.8c-0.1,0.3-0.2,0.5-0.4,0.8c-0.1,0.2-0.3,0.5-0.4,0.7
		l0,0c0,0,0,0.1-0.1,0.1c0,0,0,0.1-0.1,0.1c-1.4,1.4-3.5,3.5-5,5.1l-0.8,0.8C2,90.4,1.7,91.7,2.1,93c0.3,1,0.8,2.4,1.2,3.6
		c0.6,1.7,1,3.2,1.2,3.6c0.3,1,1.9,13.7,2.9,22l0.1,1l1.9-0.3l0.8,2.1c0,0.1,0,0.3,0.1,0.4l0.9,2.1c0.1,0.4,0.5,0.6,0.9,0.6h8.9
		c0.4,0,0.7-0.2,0.9-0.6c0.1-0.4,0.1-0.8-0.2-1l-4.4-4.5l0-0.1c0-0.1-4-8.5-4.9-11.9c-1.2-4.8-2-10.7-0.9-12.4
		c0.5-0.8,1.8-2.3,3.3-3.9c0.2,0.8,0.5,1.6,0.7,2.2c0.2,0.8,0.4,1.4,0.5,1.7c0.3,1,1.7,14,2.5,21.9l0.1,1l2-0.3l0.8,2.1
		c0,0.1,0,0.3,0.1,0.4l0.9,2.1c0.1,0.4,0.5,0.6,0.9,0.6h8.8c0.4,0,0.7-0.2,0.9-0.6c0.1-0.4,0.1-0.8-0.2-1l-4.4-4.5l0,0
		c0-0.1-3.6-8.5-4.5-11.9c-1.2-4.8-2-10.7-0.9-12.4c0.5-0.8,2.1-2.2,3.7-3.7c2.9-2.7,6.5-6,8.2-9.1c1.4,0.6,2.8,1.2,4.3,1.5
		c2,0.4,4,0.6,6,0.8c2,0.2,4,0.4,6,0.3c1,0,2,0,3-0.1c1,0,2-0.1,2.9-0.1c0.9,0,1.8,0.1,2.7,0.4c0.4,0.1,0.8,0.3,1.4,0.4
		c0.5,0.1,1.1,0.2,1.6,0.3c2.1,0.2,4.2,0,6.2-0.6c1-0.3,2-0.6,2.9-1.1c0.4-0.2,0.7-0.2,1-0.5c0.1,2.8,0.3,6.8,1.1,9.9
		c0.3,1.2,0.5,2.4,0.5,3.6c0,6.5-0.6,24.8-0.6,25l0,1.5l2.8-1.2l1.1,2.7c0,0.1,0,0.3,0.1,0.4l0.8,2.1c0.1,0.4,0.5,0.6,0.9,0.6h9
		c0.4,0,0.7-0.2,0.9-0.6c0.1-0.4,0.1-0.8-0.2-1l-4.7-4.7l-3.6-4.7c-0.1-0.1-0.1-0.1-0.1-0.2c0.1-3.4,0.3-7.7,0.7-9
		c0.8-1.8,2.4-12.7,2-16c0-0.9,0.1-2.1,0.2-3.4c0.3,1.5,0.6,2.9,1.1,4.3c0,0.9,0,2-0.1,3c0,1.1-0.1,2.1-0.1,3.2c0,1.1,0,2.1,0.1,3.2
		c0.1,1,0.3,2.1,0.6,3.2c0.1,1.1,0.2,2.2,0.2,3.3c0,1.1,0.1,2.2,0,3.3l-0.3,3.4c-0.1,1.1-0.2,2.3-0.3,3.4l-0.1,0.5l0.1-0.1l1.5-0.7
		c0.4,1.1,1,3.7,1.2,4.2l0.9,2.2c0.1,0.4,0.5,0.6,0.9,0.6h8.8c0.4,0,0.7-0.2,0.9-0.6c0.1-0.4,0.1-0.8-0.2-1l-4.9-4.9
		c-0.1-0.1-0.1-0.1-0.2-0.1l-0.5-0.7l-1.1-1.7l-0.5-0.8c-0.2-0.3-0.3-0.5-0.4-0.8c-0.1-0.2-0.1-0.5-0.1-0.8l0-1c0-1.3,0.1-2.6,0.1-4
		c0-0.7,0.1-1.3,0.1-2c0.1-0.6,0.1-1.3,0.3-1.8c0.1-0.1,0.1-0.3,0.1-0.4l0.1-0.4c0.1-0.3,0.1-0.6,0.2-0.9c0.1-0.6,0.2-1.1,0.3-1.7
		c0.2-1.1,0.3-2.2,0.4-3.4c0.1-1.1,0.2-2.2,0.2-3.4c0-1.1,0-2.3-0.2-3.5l0,0.1c0-0.9,0.1-2,0.2-3.1l0.5-3.3c0.1-1.1,0.3-2.3,0.3-3.5
		c0-0.7,0-1,0.1-1.5c0.1-0.5,0.3-0.9,0.5-1.4c0.2-0.5,0.5-0.9,0.8-1.5c0.3-0.5,0.5-1.1,0.7-1.6c0.4-1.1,0.7-2.2,0.9-3.4
		c0.2-1.1,0.3-2.3,0.3-3.4c0-0.9,0-1.8-0.1-2.7c0.2-0.2,0.3-0.4,0.4-0.7c0.7-0.2,1.3-0.5,1.8-0.9c0.6-0.4,1.2-0.9,1.7-1.5
		c1-1.1,1.9-2.2,2.7-3.3c0.8-1.1,1.6-2.3,2.4-3.4c0.5-0.7,1.1-1.4,1.7-2c0.2-0.1,0.5-0.2,0.7-0.3c1.2-0.4,2.4-0.5,3.6-0.3
		c1.4,0.6,2.7,1.2,4.1,1.9c0.7,0.3,1.4,0.7,2,1.1c0.3,0.2,0.7,0.4,1,0.6c0.3,0.2,0.6,0.4,0.8,0.6l0.1,0.1c0.3,0.2,0.6,0.4,1,0.4
		c0.4,0,0.7-0.1,0.9-0.2c0.5-0.2,0.8-0.5,1.1-0.9c0.1,0.1,0.3,0.1,0.4,0.2l0.1,0c0,0,0,0,0.2,0c0,0,0.1,0,0.1,0l0,0l0.1,0
		c0.1,0,0.2-0.1,0.2-0.1c0.1-0.1,0.2-0.1,0.4-0.2c0.5-0.3,0.9-0.5,1.3-0.8c0.4-0.3,0.8-0.6,1.2-0.9c0.1-0.1,0.2-0.2,0.3-0.3
		c0.1-0.1,0.2-0.2,0.4-0.5l0.1-0.1c0-0.1,0.1-0.2,0.1-0.3c0-0.1,0-0.2,0-0.3C128,54.3,128,54.2,128,54.1z M4.5,65.7
		c-0.1,0.3-0.2,0.7-0.2,1c-0.1,0.7-0.2,1.4-0.3,2.1l-0.1,1l0,0.5c0,0.2,0,0.3,0,0.4c-0.1,0.5-0.3,1-0.6,1.5
		c-0.3,0.5-0.6,0.9-1.1,1.4c0-0.4,0-0.7,0-1.1c-0.1-1.4-0.4-2.8-0.4-4.1c-0.1-1.3,0.2-2.8,0.4-4c0.3-1.2,0.6-2.4,1.2-3.6
		c0.3-0.7,0.7-1.4,1.1-2c0,0.3-0.1,0.6-0.1,0.9c-0.1,1.7,0,3.4,0.4,5.1c0,0,0,0.1,0,0.1C4.7,65.2,4.6,65.5,4.5,65.7z M113.2,28.6
		c0.3-0.2,0.6-0.4,1-0.6c-0.1,0.4-0.2,0.8-0.3,1.2c0,0.3-0.1,0.6-0.1,0.9l0,0.2l0,0.2c0,0.1,0,0.2-0.1,0.4c-0.1,0.5-0.3,1-0.5,1.6
		c-0.2,0.5-0.3,0.9-0.6,1.3c-0.1,0-0.2-0.1-0.3-0.1c-0.2,0-0.4-0.1-0.6-0.1c0-0.9,0-1.8-0.2-2.7c-0.1-0.3-0.1-0.5-0.2-0.8
		C111.9,29.6,112.5,29.1,113.2,28.6z M108.9,28.7c0.4,0.3,0.8,0.7,1.1,1.1c0.3,0.4,0.6,0.9,0.8,1.4c0.3,0.8,0.6,1.6,0.8,2.4
		c-0.2,0-0.4,0-0.7,0c-0.4-0.9-0.9-1.8-1.5-2.7c-0.3-0.5-0.7-1-1.1-1.4c-0.1-0.1-0.1-0.1-0.2-0.2c0-0.4-0.1-0.8-0.2-1.2
		C108.2,28.2,108.5,28.4,108.9,28.7z M69,47.8c0.4-0.2,0.7-0.5,1.1-0.7c0.7-0.2,1.4-0.4,2.1-0.6c1.6-0.4,3.3-0.6,4.9-0.7
		c1.7-0.1,3.3,0,5,0.3c1.5,0.2,4.5,1.2,4.5,1.2c1.6,0.1,3.2,0.2,4.8,0.1c0.8,0,1.6-0.1,2.4-0.2c0.4-0.1,0.8-0.2,1.3-0.3
		c0.2-0.1,0.4-0.2,0.6-0.2c-0.7,0.6-1.4,1.1-2.2,1.6c-0.8,0.5-1.6,1-2.5,1.4c-0.6,0.3-1.2,0.6-1.8,0.8l-0.4-1.2l-0.3-1.1l-1.1,0.6
		l0,0c-0.7,0.4-1.3,0.9-2,1.3l-1,0.6l-0.5,0.3l-0.5,0.3c-0.7,0.3-1.4,0.7-2,1.1l0.3-0.7l0,0.1c0.1-0.2,0.2-0.4,0.1-0.6
		c0-0.2-0.1-0.5-0.3-0.6c-0.2-0.3-0.5-0.3-0.7-0.4c-0.2,0-0.4,0-0.5,0l-0.1,0l-0.1,0l-0.2,0c-0.4,0.1-0.7,0.2-1.1,0.4
		c-0.7,0.3-1.3,0.6-1.9,0.9c-0.6,0.3-1.1,0.5-1.7,0.7c0.1-0.1,0.2-0.2,0.3-0.4c0.3-0.4,0.6-0.8,0.8-1.2c0.2-0.4,0.5-0.8,0.7-1.1
		l0.3-0.5l-0.6,0c-1.3,0-2.6,0.1-3.9,0.3c-1.3,0.2-2.6,0.5-3.8,0.9c-1.7,0.6-3.2,1.5-4.6,2.5c0.1-0.1,0.1-0.3,0.2-0.4
		c0.5-0.9,1.1-1.7,1.8-2.5C67.3,49.1,68.1,48.4,69,47.8z M18.7,126.1h-6l-0.4-1l3.7-1.7L18.7,126.1z M29.5,123.4h-5.9l-0.4-1
		l3.7-1.7L29.5,123.4z M25,89.8c-1.9,1.7-3.4,3.1-4,4.1c-1.9,2.9,0,11.4,0.7,13.9c0.8,3,3.3,9.1,4.2,11.4l-3.3,1.6l-1-2.7l-1.5,0.3
		c-0.7-6.9-2.1-20.5-2.5-21.4c-0.1-0.3-0.3-0.9-0.5-1.6c-0.3-0.9-0.6-2.1-1-3.3c2.6-2.8,5.3-5.5,5.9-6c2.3-1.2,5.8-4.8,6.7-7.3
		c1.3,1,2.7,1.9,4.1,2.6C31.2,84.1,27.8,87.2,25,89.8z M85.8,126.1h-6.1l-0.4-1.1l3.8-1.7L85.8,126.1z M93.3,120.8l3,3h-5.9
		l-0.6-1.5c-0.1-0.3-0.2-0.4-0.4-0.7C90.9,121.3,91.9,121.1,93.3,120.8z M96.3,69c-0.1,1.1-0.4,2.2-0.6,3.2
		c-0.3,1.1-0.7,2.1-1.1,3.1c-0.5,1-1.1,1.8-1.7,2.9c-0.3,0.5-0.6,1.1-0.8,1.7c-0.1,0.3-0.2,0.6-0.2,1l0,0.9
		c-0.1,1.1-0.2,2.1-0.4,3.2l-0.6,3.3c-0.2,1.1-0.4,2.3-0.3,3.6l0,0l0,0.1c0.2,0.9,0.2,2,0.2,3.1c0,1.1,0,2.2-0.1,3.3
		c-0.1,1.1-0.2,2.2-0.3,3.3c-0.1,0.5-0.1,1.1-0.2,1.6c0,0.3-0.1,0.5-0.1,0.8l-0.1,0.4c0,0.1-0.1,0.2-0.1,0.3l0,0.1
		c-0.2,0.8-0.2,1.5-0.3,2.2c0,0.7,0,1.4,0,2c0,1.3,0,2.7,0.1,4l0.1,1c0,0.4,0.1,0.8,0.3,1.2c0.1,0.4,0.4,0.7,0.6,1l0.6,0.8l1.2,1.6
		c0,0,0.4,0.7,0.7,1c-1.3,0.3-3.5,0.9-4.8,1.2c-0.4-1-0.9-2.5-1.3-3.6l-0.1-0.3l-0.3,0.1l-1.3,0.5c0.1-0.9,0.2-1.3,0.4-2.3l0.6-3.4
		c0.2-1.2,0.2-2.3,0.3-3.5c0-1.1,0.1-2.3,0-3.4l0-0.1l0-0.1c-0.2-0.9-0.4-1.9-0.5-3c-0.1-1-0.1-2-0.1-3.1c0-1,0-2.1,0-3.1l0-1.6
		c0-0.5,0-1.1-0.1-1.7l0-0.1l0-0.1c-0.4-0.9-0.7-1.8-1-2.8c-0.3-1-0.5-1.9-0.8-2.9c-0.1-0.6-0.3-1.2-0.4-1.8
		c0.3-2.3,0.5-4.4,0.4-5.8c0-0.1,0-0.1,0-0.2c0.6,0,1.3-0.1,1.9-0.3c0.8-0.2,1.6-0.6,2.4-1c1.5-0.8,2.9-1.9,4-3.2
		c1.1-1.3,1.9-2.8,2.7-4.3c0.5-0.9,0.8-1.4,1.3-2.4C96.2,68.2,96.4,68.4,96.3,69z M125,55.6c-0.3,0.3-0.7,0.7-1,1l-0.3,0.2l-0.1,0.1
		c-0.2,0-0.3-0.1-0.5-0.1c-0.9-0.3-1.8-0.7-2.5-1.3l0,0c0,0-0.1,0-0.1,0c0,0-0.1,0.1,0,0.1c0.5,0.8,1.2,1.4,2,1.9
		c0.1,0-0.3,0.5-0.7,0.6c-0.2,0-0.5,0-0.6-0.1c-0.1-0.1-0.3-0.2-0.4-0.3c-0.3-0.5-0.5-0.7-0.8-1c-0.3-0.3-0.6-0.6-1-0.8
		c-0.7-0.5-1.3-0.9-2-1.4c-1.4-0.8-2.9-1.5-4.4-2.1c-0.1-0.1-0.1-0.1-0.2-0.2l-5.5-3l-0.1,0c-0.1,0-0.1-0.1-0.2-0.1l0,0.1l-0.5-3.4
		l-0.3,3.5l0,0l0,0.1c0,0.3,0.3,0.6,0.6,0.8l-0.1,0l3.3,2.5c-0.6,0.2-1.3,0.4-1.8,0.8c-0.6,0.4-1.2,0.8-1.6,1.4
		c-0.5,0.3-0.9,0.7-1.4,1c-1.1,1-2.1,2.1-2.9,3.2c-0.9,1.1-1.6,2.3-2.5,3.3c-0.4,0.5-0.9,1-1.3,1.5c-0.5,0.4-1,0.9-1.5,1.2L96.4,65
		l0,0.2c-0.3,1.6-1,3.1-1.9,4.5c-0.9,1.4-2.2,2.4-3.4,3.5c-1.2,1.1-2.3,2.2-3.6,3.1C86.3,77.1,83.3,78,83,78c-0.5,0-0.9,0.5-0.9,1
		c0.1,1.4-0.2,3.9-0.5,6.3c-0.3,2.4-0.5,4.9-0.5,6.5l0,0.1c0.5,3.1-1.2,13.9-1.8,15l-0.1,0.1c-0.6,1.7-0.8,7.3-0.9,9.6
		c0,0.5,0.2,1,0.5,1.4l2.8,3.7l-3.2,1.4l-1.4-3.6l-1.9,0.8c0.1-4.5,0.6-18,0.6-23.5c0-1.4-0.2-2.7-0.5-4.1c-1.3-5-1-12.8-1-12.9
		l0-0.2l0-0.2c0-0.1-0.6-1.8-1.4-3.6c-0.1-0.3-0.2-0.5-0.3-0.8c0-0.1-0.1-0.2-0.1-0.3c-0.3-1.3-0.4-2.7-0.5-4
		c-0.1-1.4,0-2.8,0.1-4.2c0.2-1.4,0.5-2.7,1-4.1c0.5-1.3,1.3-2.5,2.2-3.6c-1.1,1-2,2.1-2.6,3.4c-0.7,1.3-1.2,2.7-1.5,4.1
		c-0.3,1.4-0.5,2.9-0.6,4.3c-0.1,1.5-0.1,2.9,0.1,4.4c0,0,0,0.1,0,0.1c0,0.1,0.1,0.2,0.1,0.3c0.1,0.4,0.2,0.7,0.4,1.1
		c0.7,1.4,1.1,2.7,1.3,3.2c0,0.4,0,0.9,0,2.1c-1.3,0.6-2.8,1.2-4.2,1.4c-1.9,0.2-3.8,0.3-5.6,0c-0.5-0.1-0.9-0.1-1.3-0.2
		c-0.2-0.1-0.4-0.1-0.7-0.2c-0.2-0.1-0.5-0.2-0.8-0.2c-1-0.3-2.2-0.3-3.2-0.3c-2.1,0.1-4,0.5-5.9,0.9c-1.9,0.4-3.9,0.4-5.8,0.1
		c-1.9-0.3-3.8-1-5.6-1.7c-0.9-0.3-1.8-0.7-2.7-1c-0.7-0.3-1.5-0.5-2.2-0.8c0,0-0.1,0-0.1,0c-0.1-0.1-0.3-0.1-0.4-0.2
		c-1.6-0.6-3.1-1.4-4.5-2.3c0.6-0.9,0.7-1.4,1-2.3c0.4-1.1,0.7-2.3,0.8-3.5c0.1-1.2,0.2-2.4,0-3.5c-0.1-1.2-0.4-2.3-0.7-3.4
		c0.2,1.1,0.3,2.3,0.2,3.4c0,1.1-0.2,2.2-0.5,3.3c-0.3,1.1-0.7,2.1-1.2,3.1c-0.3,0.5-0.5,0.9-0.8,1.4c-0.3,0.4-0.7,0.9-1,1.2l0,0
		c0,0-0.1,0.1-0.1,0.1C27.1,77.7,27,77.9,27,78c-0.7,2-4,5.4-5.9,6.3L21,84.4c-1.2,0.9-9.7,9.7-11.3,12.1c-1.9,2.9,0,11.4,0.7,13.9
		c0.8,3,3.6,9.1,4.6,11.4l-3.4,1.5l-1-2.7l-1.5,0.3c-0.8-6.9-2.5-20.5-2.8-21.4c-0.1-0.4-0.6-1.9-1.2-3.5c-0.4-1.2-0.8-2.6-1.2-3.6
		c-0.2-0.6,0-1.2,0.4-1.6L5.1,90c1.6-1.6,3.7-3.7,5.1-5.2c0.1-0.1,0.2-0.2,0.2-0.3c0,0,0,0,0,0c0.2-0.4,0.4-0.7,0.5-1.1
		c0.1-0.3,0.2-0.7,0.3-1c0.1-0.3,0.2-0.7,0.2-1c0.1-0.3,0.1-0.7,0.1-1c0-1.4-0.8-6.4-0.8-6.4s-1.3-2.2-2.7-4.3
		c-0.4-0.6-0.8-1.3-1-2.1c-0.9-2.6-1.8-4.8-1.4-7.6c0.5-3.1,2.1-6,4.4-8.1c1.1-1.1,2.4-2.1,3.7-2.9c0.3-0.2,0.7-0.4,1-0.6
		c0.3-0.2,0.6-0.3,1-0.5c0.7-0.3,1.4-0.5,2.2-0.6c3.1-0.6,6.4-0.5,9.6-0.4c3.3,0.1,6.5,0.5,9.8,0.8c3.3,0.4,6.6,0.4,9.9,0.5l9.9,0.3
		c3.1,0.1,6.2,0.1,9.3-0.2c-0.3,0.2-0.6,0.5-1,0.7c-0.9,0.7-1.7,1.6-2.3,2.6c-0.6,1-1.1,2.2-1.2,3.4L61.9,57l1.6-1.3
		c1-0.8,2-1.6,3-2.3c1-0.7,2-1.4,3.1-2c1.1-0.6,2.3-1,3.5-1.3c1-0.2,2.1-0.4,3.2-0.4c-0.1,0.2-0.3,0.5-0.4,0.7
		c-0.2,0.4-0.5,0.7-0.8,1.1c-0.6,0.7-1.3,1.2-2.1,1.5l-2.2,1l2.5-0.1c0.8,0,1.5-0.2,2.2-0.4c0.7-0.2,1.4-0.4,2-0.6l2.2-0.8
		c0,0,0,0,0,0l-1,2.2l-1.1,2.4l2.4-1.3c0.7-0.4,1.4-0.8,2.1-1.1c0.7-0.4,1.4-0.8,2.1-1.1l0.6-0.3l0.6-0.3c0.4-0.2,0.7-0.4,1.1-0.6
		c0.4-0.2,0.8-0.5,1.2-0.8l0.4,0.9l0.4,0.8l0.7-0.3c1-0.5,1.8-1,2.6-1.5c0.8-0.6,1.6-1.2,2.4-1.8c0.8-0.6,1.5-1.3,2.2-2
		c0.4-0.4,0.8-0.9,1.2-1.3c1-0.7,1.9-1.5,2.6-2.5c0.5-0.6,1-1.3,1.4-2c0.3-0.6,1.7-2.3,2.1-2.2c0.7,0,1.5,0,2.1-0.2
		c0.2,0,0.3-0.1,0.5-0.2l0.2-0.1c0,0,0.1,0,0.1,0l1,0.3c-0.3-0.2-0.6-0.4-0.9-0.6c0,0-0.1,0-0.1-0.1c0,0-0.1,0-0.2,0l-0.3,0
		c-0.2,0-0.3,0-0.5,0c-0.7,0-1.3,0-1.9-0.2c-0.6-0.1-1.2-0.4-1.6-0.8c-0.2-0.2-0.4-0.4-0.6-0.6c-0.2-0.2-0.3-0.5-0.5-0.8
		c-0.6-1.1-1.1-2.3-1.2-3.5c0-0.3,0-0.6,0-0.9c0-0.3,0-0.6,0-1.1c0,0,0,0,0-0.1c0.5,0.2,1.1,0.5,1.6,0.8l0,0
		c-0.2,0.6-0.2,1.2-0.1,1.7c0.1,0.5,0.2,1,0.5,1.5c0.2,0.5,0.5,0.9,0.9,1.2c0.2,0.2,0.4,0.3,0.5,0.5l0.6,0.5l-0.5-0.6
		c-0.1-0.2-0.3-0.4-0.4-0.6c-0.2-0.4-0.4-0.8-0.5-1.3c-0.1-0.4-0.2-0.9-0.1-1.3c0-0.2,0.1-0.4,0.1-0.6c0-0.1,0.1-0.3,0.1-0.4
		c0.6,0.4,1.3,0.9,1.9,1.4c0.7,0.6,1.4,1.4,1.9,2.2c0.6,0.8,1,1.7,1.3,2.6c-0.3-1-0.6-1.9-1.1-2.8c-0.5-0.9-1.1-1.7-1.8-2.5
		c-0.7-0.8-1.4-1.4-2.2-2.1c-0.8-0.6-1.7-1.2-2.6-1.6c0,0,0,0-0.1,0c0,0-0.1,0-0.1,0c0-0.2,0-0.3,0-0.4c0-0.2,0.1-0.3,0.2-0.4
		c0,0,0,0,0,0c0,0,0,0,0,0c0.2,0,0.5,0.1,0.7,0.2c0.3,0.1,0.5,0.3,0.8,0.4c1.1,0.6,2.2,1.5,3.1,2.3l2.6,3c0.9,1,1.8,2,2.8,3
		c-0.6-1.2-1.4-2.4-2.1-3.6l-1.1-1.7c-0.2-0.3-0.4-0.6-0.6-0.9l-0.3-0.4l-0.2-0.2l-0.2-0.2c-0.1-0.1-0.1-0.1-0.2-0.2c0,0,0,0,0,0
		c-0.2-0.4-0.3-0.8-0.5-1.2c0.4,0.2,0.7,0.4,1.1,0.6c1.7,1.1,3.1,2.8,4.5,4.4c0,0,0,0,0,0c0,0,0,0.1,0,0.1l0,0
		c0.1,0,0.2,0.1,0.2,0.2c0,0,0.1,0.1,0.1,0.1c0,0,0,0,0-0.1c2.4,0.8,3.2,1.4,4.2,2.6c0.5,0.7,0.4,1.2,0.5,1.3l0.2,0.3
		c0.3,0.4,0.6,0.8,0.9,1.2c0.6,0.8,1.2,1.6,1.7,2.4c1.1,1.6,2,3.4,3,5.2c0.5,0.8,1,1.7,1.6,2.5l1.5,2.4l0.1,0.1l0.1,0.1
		c0,0,0.1,0.1,0.1,0.1c-1,0.2,0,1.4-0.1,1.9c-0.1,0.5-0.2,1,0.4,1.1C125.2,55.4,125.1,55.5,125,55.6z"/>
</g>
</svg>
