<?xml version="1.0" encoding="utf-8"?>
<!-- Generator: Adobe Illustrator 18.1.0, SVG Export Plug-In . SVG Version: 6.00 Build 0)  -->
<svg version="1.2" baseProfile="tiny" id="Layer_1" xmlns="http://www.w3.org/2000/svg" xmlns:xlink="http://www.w3.org/1999/xlink"
	 x="0px" y="0px" viewBox="0 0 128 128" 
width="128" height="128"
xml:space="preserve">
<g>
	<path fill="#2D2D2D" d="M105.2,18.6l-0.9-0.5l0.5-0.9c0.2-0.5,0.1-1.1-0.4-1.3c-0.5-0.3-1.1-0.1-1.3,0.4l-0.5,0.9l-0.9-0.5
		c-0.5-0.3-1.1-0.1-1.3,0.4c-0.2,0.5-0.1,1.1,0.4,1.3l0.9,0.5l-0.5,0.9c-0.2,0.5-0.1,1.1,0.4,1.3c0.1,0.1,0.3,0.1,0.4,0.1
		c0.4,0,0.7-0.2,0.9-0.5l0.5-0.9l0.9,0.5c0.1,0.1,0.3,0.1,0.4,0.1c0.4,0,0.7-0.2,0.9-0.5C105.9,19.5,105.7,18.9,105.2,18.6z"/>
	<path fill="#2D2D2D" d="M107.1,12.6c-0.1,0-0.2,0-0.3,0c-1.4-0.7-6.2-2.7-10,0.3c0,0,0,0-0.1,0.1c-2.9-2.6-5.8-3.5-7.8-3.9
		c-1.1-0.2-1.8-0.4-2.6-0.5c-1.3-0.2-2.3-0.4-4.7-1.1c-2.2-0.7-2.8-1.2-4-2.9c-0.4-0.7-1.4-2.6-1.7-3.7C75.7,0.4,75.3,0,74.8,0
		c-0.5,0-1,0.2-1.2,0.7c-1.3,2.8-0.8,6,1.3,8.3c0.7,0.7,2,1.9,6.3,3.6c2.8,1.1,3.6,1.4,5,1.8c0.4,0.1,0.8,0.2,1.1,0.4
		c0.8,0.3,2.5,1.2,3.9,2.1c-3.3-0.3-6.9,1.3-7.1,1.4l-1.1,0.5l0.7,1c0.1,0.2,3.3,4.4,7,5c0.3,0,0.5,0.1,0.8,0.1
		c0.1,3.1,0.8,6.5,2.2,10.6c0.5,1.5-0.1,3-0.8,4.7l-0.3,0.6c-0.1,0.2-1.8,4-6.1,3.3l-0.9-0.3c-4.1-1.6-10.3-2-14-1.5
		c-1.7,0.2-2.7,2.9-3.2,5.1c-1.2-1.2-2.8-3-3.7-3.9c-0.5-0.5-1.1-0.8-1.8-0.9c-8.9-1.2-14.3-1.2-19.6-0.8c-2.2,0.2-3.2,3-3.6,5.1
		c-1.2-1.1-2.9-2.7-3.8-3.7c-0.7-0.7-1.7-1.1-2.7-1c-8,0.6-11.9,4.3-13.8,7.2c-1.9,2.9-2.6,6.5-2.1,10.1c-0.2,1.5-0.3,3.3-0.7,4.8
		c0,0,0,0.2,0,0.1l-0.1,0.2l-0.1,0.4l-0.2,0.6c-0.2,0.4-0.3,0.8-0.5,1.2c-0.3,0.8-0.8,1.5-1.2,2.2c-0.4,0.7-0.7,1.3-0.9,1.7
		c-0.2,0.5-0.3,0.7-0.3,0.7s0.3-0.1,0.7-0.3c0.4-0.2,1-0.5,1.8-1c0.7-0.5,1.5-1.1,2.2-2c0.3-0.4,0.6-1,0.9-1.5
		c0.1-0.3,0.3-0.6,0.3-0.9l0.1-0.2c0.7,1.5,1.5,3,2.1,4.1c0.4,0.8,1.3,3.4,2.4,7.2c0.3,1.2,0,2.4-0.8,3.2c-2,1.8-3.3,2.6-5.1,3.3
		c-1.4,0.5-2.1,2-2,4.2c0,0-0.3,6.3-0.4,7.3l-1.4,23.8c0,0,0,0,0,0l-0.9,3.1c-0.2,0.7,0,1.5,0.6,2l4.7,3.9c0.3,0.3,0.7,0.4,1,0.4
		c0.3,0,0.6-0.1,0.9-0.3c0.6-0.4,0.8-1,0.7-1.7l-0.1-2.3l0,0l-0.1-1.8v0l0-0.1c0-0.2-1-19.4,1.7-26c1.1-2.7,3.4-6.5,5.6-9.1L27.7,91
		c-0.1,0.7,0.1,1.4,0.6,2c1.2,1.5,3.5,6.3,6.9,20.4l0.1,0.5l-0.4,2.2c-0.2,0.8,0.3,1.7,1,2.1l5.3,2.6c0.2,0.1,0.5,0.2,0.7,0.2
		c0.4,0,0.9-0.2,1.2-0.5c0.5-0.5,0.6-1.2,0.3-1.8l-0.8-3.6c0-0.1,0-0.3-0.1-0.4c-1-2.7-4.2-12.1-5.9-17.8c-1.4-4.9-1.7-8.8-0.8-11.8
		c0.4-1.3,0.6-2.5,0.7-3.6c0.2-1.3,0.4-2.3,0.8-3.1c0,0,0,0,0-0.1c1.3-1.3,2.5-2.6,3.4-3.8c0.3-0.3,0.5-0.6,0.8-0.9
		c1.4,1,5.2,3.2,12.3,3.6c0.8,0,1.5-0.5,1.6-1.3c0-0.3,0.1-0.9,0.2-1.4c1.9,2.8,2.2,2.8,2.6,2.8c0,0,0,0,0,0c6.8,0,9.3-0.6,10.4-1.1
		c2.5,4,6,10.1,8.1,16.7c2.8,8.8,3.8,18.7,4.2,22.9c0.1,0.6,0.1,1.1,0.2,1.5c0,0.1,0,0.1,0,0.2l0.3,3.1c0.1,0.8,0.6,1.5,1.4,1.7
		l5.7,1.6c0.2,0,0.3,0.1,0.5,0.1c0.5,0,1-0.3,1.4-0.7c0.4-0.6,0.4-1.3,0-1.8l-1.7-3.7c0,0,0,0-0.1-0.1c-0.4-1.8-3.7-15.1-3.9-20.2
		c-0.1-2.1-0.4-4.2-1-6.6c-0.1-0.3-0.2-0.7-0.3-1.1c0.3,0.6,0.6,1.3,0.9,1.9c0.3,0.7,0.6,1.5,1,2.4c2.1,5.1,5.3,12.7,5.8,16.1
		l-0.3,2.4c-0.1,0.9,0.4,1.7,1.2,2.1l5.4,2.6c0.2,0.1,0.5,0.2,0.7,0.2c0.4,0,0.9-0.2,1.2-0.5c0.5-0.5,0.6-1.2,0.3-1.8l-1.1-3.8
		c0-0.1-0.1-0.1-0.1-0.2c0,0,0-0.1,0-0.1c-1.1-2.8-4.8-12.4-6.5-18.2C90,86.9,87.4,80,86.9,78.7c-0.3-4.6,5.4-8.6,7.3-9.9
		c0.3-0.2,0.6-0.4,0.7-0.5c1-0.8,2.1-1.7,3.2-2.5l0.6-0.5c2.8-2.2,5-5,6.4-8.1c0.5-1.1,1-2.3,1.4-3.5c0.4-1.2-0.2-2.5-1.4-2.9
		c-1.1-0.4-2.7-1-4-1.5c3-1,6.4-2.3,7.1-3.3c1-1.5,0.8-3.3,0.5-5.1c-0.1-0.6-0.1-1.1-0.2-1.7c0-1,0-2.1,0.1-3.3
		c0.5-5.2,0.8-6.4,0.9-6.6c0.7-2,4.1-4.3,6.2-5.8c0.7-0.5,1.3-0.9,1.7-1.2c3.7-2.9,4.8-6.1,3-8.4C118.4,11.4,112,11.8,107.1,12.6z
		 M88,12.9c-0.5-0.2-0.9-0.3-1.2-0.4c-1.3-0.4-2.2-0.7-4.8-1.7c-2.9-1.1-4.7-2.2-5.6-3.1c-1-1.1-1.6-2.6-1.5-4.1c0.5,1,1,1.9,1,1.9
		l0.1,0.1c1.4,2,2.4,2.8,5.1,3.6c2.5,0.8,3.6,1,4.9,1.2c0.7,0.1,1.4,0.2,2.5,0.5c1.7,0.4,4.3,1.2,6.8,3.4c-0.6,0.6-1.1,1.3-1.5,2
		C91.8,14.5,88.5,13.1,88,12.9z M15.3,122.3l0.6-2l3.3,2.2l0.1,3.2L15.3,122.3z M40.9,116.4l0.5,2.3l-4.6-2.2l0.3-1.3L40.9,116.4
		C40.9,116.4,40.9,116.4,40.9,116.4z M40.3,114.2l-3.1-1l0-0.2c-2.8-11.6-5.3-18.8-7.3-21.2c-0.1-0.1-0.2-0.3-0.1-0.4l1.3-7
		c1-0.9,2.3-2,3.6-3.3c0,0.1,0,0.2,0,0.3c-0.2,1.1-0.3,2.2-0.7,3.3c-1,3.4-0.8,7.7,0.8,13C36.2,102.5,39,110.5,40.3,114.2z
		 M88.4,121.9l-4.9-1.4l-0.2-1.9l3.8,0.5L88.4,121.9z M96.7,112.8l0.8,2.6l-4.7-2.2c-0.1,0-0.1-0.1-0.1-0.1l0.2-1.5
		c1.3,0.3,2.9,0.7,3.6,1.1C96.6,112.8,96.7,112.8,96.7,112.8z M116.3,20.9c-0.4,0.3-0.9,0.7-1.6,1.1c-2.6,1.8-6.1,4.2-7,6.8
		c-0.3,0.8-0.6,3.1-1,7c-0.1,1.4-0.2,2.5-0.1,3.6c0,0.6,0.1,1.2,0.2,1.8c0.2,1.5,0.3,2.9-0.2,3.7c-0.6,0.7-5,2.3-8.7,3.4l-2.8,0.8
		l2.7,1c0,0,4.3,1.6,6.7,2.5c0.1,0.1,0.2,0.2,0.2,0.4c-0.4,1.1-0.8,2.2-1.3,3.3c-1.3,2.9-3.3,5.4-5.8,7.4l-0.6,0.5
		c-1.1,0.9-2.3,1.8-3.3,2.6c-0.1,0.1-0.3,0.2-0.6,0.4c-2.3,1.6-8.4,5.9-8.1,11.4c0,0.2,0,0.3,0,0.5c0,0.1,3,7.7,4.9,14.5
		c1.5,5,4.4,12.7,5.9,16.7c-0.9-0.3-1.9-0.5-2.8-0.7h0c-0.7-3.8-3.8-11.1-5.8-16c-0.4-0.9-0.7-1.7-1-2.4c-1.5-3.7-4.1-7.9-4.6-8.7
		c-0.4-1.7-0.8-3.2-1.1-4.2C80.1,77,80,75.7,80,74.4c0-1.5,0.1-2.8,0.4-4c0.1-0.5-0.2-1.1-0.8-1.2c-0.5-0.1-1.1,0.2-1.2,0.8
		c-0.3,1.3-0.4,2.8-0.4,4.4c0,1.4,0.2,2.9,0.5,4.3c0.3,1.1,0.7,2.6,1.1,4.3c0,0,0,0,0,0c0.7,2.8,1.5,6,2.2,8.6
		c0.6,2.2,0.9,4.2,0.9,6.2c0.2,4.6,2.7,15.4,3.7,19.3l-3.4-0.5c0-0.2,0-0.5-0.1-0.8c-0.4-4.3-1.5-14.4-4.3-23.3
		c-3.7-11.7-11.3-21.6-11.6-22c-0.3-0.4-1-0.5-1.4-0.2c-0.4,0.3-0.5,1-0.2,1.4c0,0,0.9,1.1,2.1,3c-0.6,0.2-2.6,0.8-8.9,0.8
		c-0.5-0.7-1.8-2.6-2.9-4.3l-1.6-2.4L54,71.7c0,0-0.2,2.4-0.4,3.7c-6-0.4-9.4-2.2-10.7-3.1c0.2-0.2,0.3-0.3,0.5-0.5
		c2.1-1.9,5.3-6.7,4.4-12.2c-0.1-0.5-0.6-0.9-1.1-0.8c-0.5,0.1-0.9,0.6-0.8,1.1c0.8,4.7-2,8.8-3.8,10.5c-1.1,1-2,2-2.9,3.1
		c-2.7,3.3-7.6,7.9-10.1,10c-3,2.5-6.4,7.9-8,11.7c-2.4,5.8-2.1,19.8-2,24.9l-2.8-1.8l1.3-23.2c0.1-1,0.4-7.3,0.4-7.4
		c0-1.3,0.2-2.2,0.7-2.4c2.4-0.8,3.9-2,5.8-3.6c1.4-1.3,2-3.3,1.4-5.2c-1.2-4.1-2.1-6.7-2.6-7.6c-1-1.9-2.4-4.6-3.1-6.6
		c-0.2-0.5-0.3-1-0.5-1.5c0-0.2-0.1-0.4-0.1-0.7c-0.7-3.4-0.1-6.8,1.7-9.6c2.4-3.7,6.6-5.9,12.3-6.3c0.4,0,0.8,0.1,1.1,0.4
		c1.6,1.7,5.1,4.9,5.2,5l1.4,1.3l0.2-2c0.2-2.4,1.2-5.1,2.1-5.2c5.2-0.4,10.4-0.4,19.2,0.8c0.2,0,0.5,0.2,0.7,0.3
		c1.5,1.5,5,5.3,5,5.3l1.4,1.5l0.3-2c0.4-2.6,1.3-5.2,1.9-5.4c3.5-0.5,9.4-0.1,13,1.4l1,0.4l0.2,0.1c4.7,0.8,7.5-2.5,8.3-4.5
		l0.3-0.6c0.8-1.9,1.6-3.9,0.8-6.1c-1.3-3.7-2-7-2.1-9.8c2.1,0,3.5-0.5,3.6-0.5c0.5-0.2,0.8-0.7,0.6-1.3c-0.2-0.5-0.7-0.8-1.3-0.6
		c0,0-2.3,0.8-5.4,0.3c-2-0.3-3.9-2.1-4.9-3.2c1.5-0.5,4.1-1.2,6.1-0.5c3.1,1,4.5,2.7,4.6,2.7c0.3,0.4,1,0.5,1.4,0.1
		c0.4-0.4,0.5-1,0.1-1.4c-0.1-0.1-1.2-1.3-3.4-2.5c0,0,0.1-0.1,0.1-0.1c0.7-1.3,1.7-2.5,2.9-3.5c2.9-2.3,6.8-0.7,7.9-0.1
		c0.5,0.2,1,0.3,1.6,0.2c6-1,10.4-0.7,11.5,0.7C120.5,17.2,117.3,20.1,116.3,20.9z"/>
	<path fill="#FEDBAB" d="M92.1,67.9c0.2-0.1,0.4-0.3,0.5-0.4C92.5,67.7,92.3,67.8,92.1,67.9C92.1,68,92.1,68,92.1,67.9
		C92.1,67.9,92.1,67.9,92.1,67.9z"/>
	<path fill="#FEDBAB" d="M93.1,67.2c0.1,0,0.1-0.1,0.2-0.1c-0.1,0.1-0.3,0.2-0.4,0.3C93,67.3,93,67.3,93.1,67.2z"/>
</g>
</svg>
