<?xml version="1.0" encoding="utf-8"?>
<!-- Generator: Adobe Illustrator 18.1.0, SVG Export Plug-In . SVG Version: 6.00 Build 0)  -->
<svg version="1.1" id="Layer_1" xmlns="http://www.w3.org/2000/svg" xmlns:xlink="http://www.w3.org/1999/xlink" x="0px" y="0px"
	 viewBox="0 0 128 128" enable-background="new 0 0 128 128" xml:space="preserve">
<g>
	<path fill="#2D2D2D" d="M51.9,78.2c-1.1-0.3-2.2-0.5-3.3-0.5c-5,0-9.6,3.4-11,8.2c-0.9,2.9-0.6,6,0.9,8.7c1.5,2.7,3.9,4.7,6.8,5.5
		c1.1,0.3,2.2,0.5,3.3,0.5c5,0,9.6-3.4,11-8.2c0.9-2.9,0.6-6-0.9-8.7S54.8,79.1,51.9,78.2z M57.8,91.9c-1.2,4-4.9,6.8-9.1,6.8
		c-0.9,0-1.8-0.1-2.7-0.4c-2.4-0.7-4.5-2.4-5.7-4.6c-1.2-2.2-1.5-4.8-0.8-7.2c1.2-4,5-6.8,9.1-6.8c0.9,0,1.8,0.1,2.7,0.4
		c2.4,0.7,4.5,2.4,5.7,4.6C58.2,86.9,58.5,89.5,57.8,91.9z"/>
	<path fill="#2D2D2D" d="M126.4,104.1l-2-0.9c-1.2-0.6-2.6-0.1-3.3,0.9L105.6,97l0.7-1.6c0.5-1.1,0-2.3-1-2.8l-0.3-0.1l14.6-31.7
		l0.9,0.4c0.3,0.1,0.5,0.2,0.8,0.2c0.8,0,1.5-0.4,1.8-1.1l2.5-5.4c0.2-0.5,0.2-1,0.1-1.5c-0.2-0.5-0.5-0.9-1-1.1L27.3,7.5
		c-1-0.4-2.2,0-2.6,1l-2.5,5.4c-0.5,1,0,2.2,1,2.6l0.7,0.3L9.3,48.4l-1.1-0.5c-1.1-0.5-2.3,0-2.8,1L0.2,60.1c-0.5,1.1,0,2.3,1,2.8
		L29.8,76c-1.4,2-2.5,4.2-3.3,6.7c-3.6,12.2,3.3,25,15.5,28.6c2.1,0.6,4.4,1,6.6,1c10.1,0,19.2-6.8,22.1-16.5
		c0.1-0.3,0.2-0.6,0.2-0.9l27.4,12.6c0.3,0.1,0.6,0.2,0.9,0.2c0.2,0,0.5,0,0.7-0.1c0.5-0.2,0.9-0.6,1.2-1.1l0.7-1.6l15.5,7.1
		c-0.3,1.2,0.2,2.6,1.5,3.1l2,0.9c0.4,0.2,0.7,0.2,1.1,0.2c0.3,0,0.6-0.1,0.9-0.2c0.7-0.2,1.2-0.7,1.5-1.4l3.3-7.1
		c0.3-0.6,0.3-1.4,0.1-2C127.6,104.9,127.1,104.4,126.4,104.1z M103.3,91.6l-17-7.8l14.6-31.7l17,7.8L103.3,91.6z M63.3,34.8l17,7.8
		L65.9,73.9c-2.8-3.2-6.5-5.5-10.7-6.8c-2.1-0.6-4.2-0.9-6.4-1L63.3,34.8z M46.9,65.7l-17-7.8l14.6-31.7l17,7.8L46.9,65.7z
		 M82.1,43.5l17,7.8L84.5,83l-17-7.8L82.1,43.5z M26.5,9.3L123.9,54l-2.5,5.4l0,0L24,14.6L26.5,9.3z M25.7,17.5l17,7.8L28.1,57.1
		l-17-7.8L25.7,17.5z M2.1,61.1C2,61,2,61,2,60.9l5.1-11.1c0-0.1,0.1-0.1,0.2-0.1l36.9,16.9c-5.2,1-9.9,3.8-13.2,7.8
		c-0.1-0.1-0.2-0.2-0.3-0.2L2.1,61.1z M68.8,95.2c-2.6,8.9-11,15.1-20.2,15.1c-2,0-4.1-0.3-6-0.9c-11.2-3.3-17.5-15.1-14.2-26.2
		c2.6-8.9,11-15.1,20.2-15.1c2,0,4.1,0.3,6,0.9c5.4,1.6,9.9,5.2,12.5,10.2C69.9,84.1,70.5,89.8,68.8,95.2z M99.4,105.7
		c0,0.1-0.1,0.1-0.2,0.1L71.5,93c0,0-0.1,0-0.1,0c0.8-5,0-10.2-2.5-14.7c-0.1-0.1-0.1-0.2-0.2-0.4l35.8,16.4c0.1,0,0.1,0.1,0.1,0.2
		L99.4,105.7z M126,106.8l-3.3,7.1c-0.2,0.4-0.6,0.5-0.9,0.3l-2-0.9c-0.4-0.2-0.5-0.6-0.3-0.9c0.2-0.4,0.2-0.8,0-1.2
		c-0.1-0.4-0.4-0.7-0.8-0.9l-15.8-7.3l2-4.3l15.8,7.3c0.4,0.2,0.8,0.2,1.2,0c0.4-0.1,0.7-0.4,0.9-0.8c0.2-0.4,0.6-0.5,0.9-0.3l2,0.9
		c0.2,0.1,0.3,0.2,0.4,0.4C126.1,106.4,126,106.6,126,106.8z"/>
</g>
</svg>
