<?xml version="1.0" encoding="utf-8"?>
<!-- Generator: Adobe Illustrator 24.1.2, SVG Export Plug-In . SVG Version: 6.00 Build 0)  -->
<svg version="1.1" id="Layer_1" xmlns="http://www.w3.org/2000/svg" xmlns:xlink="http://www.w3.org/1999/xlink" x="0px" y="0px"
	 viewBox="0 0 128 128" style="enable-background:new 0 0 128 128;" xml:space="preserve">
<style type="text/css">
	.st0{fill:#2D2D2D;}
</style>
<g>
	<path class="st0" d="M125.9,7.2c-1.5-2.5-3.7-4.6-6.4-5.8c-1.3-0.6-2.7-1-4.2-1.2c-1.5-0.2-2.7-0.1-4.1-0.2
		c-2.9-0.1-5.8,0.9-8.1,2.5c-4.6,3.1-7.7,8.5-7,14.1c2.9,0.3,6.2,0.6,9.6,0.7l0.7,0l0.1-0.8c0.4-2.3,1.6-4.8,3.5-5.5
		c0.9-0.4,2.1-0.4,2.9,0c0.8,0.3,1.5,1.1,1.9,2c0.4,0.9,0.5,2,0.2,3c-0.1,0.5-0.3,1-0.6,1.4c-0.3,0.5-0.6,0.8-1,1.3
		c-0.9,1-1.7,2-2.6,3c-0.8,1-1.7,1.9-2.5,3.2c-1.4,2.4-2,5.1-2.4,7.7c-0.2,1.3-0.3,2.6-0.3,4c0,0.2,0,0.5,0.2,0.7
		c0.2,0.2,0.4,0.4,0.7,0.5c0.3,0.1,0.4,0,0.6,0l0.5,0l2,0c1.3,0,2.6,0,3.9,0.1l1,0c0.2,0,0.3,0,0.5,0c0.3,0,0.6-0.2,0.8-0.4
		c0.2-0.2,0.4-0.5,0.4-0.8l0-0.5c0-0.3,0-0.6,0-0.9c0.1-1.2,0.3-2.5,0.9-3.3c0.3-0.4,0.8-0.8,1.3-1.2l1.5-1.3c2-1.7,3.9-3.7,5.4-6
		c1.6-2.3,2.6-5.2,2.7-8C128.1,12.7,127.5,9.7,125.9,7.2z M123.1,22.2c-1.3,2.1-2.9,4.1-4.7,5.9l-1.4,1.4c-0.5,0.5-0.9,0.9-1.4,1.7
		c-0.8,1.5-0.8,2.9-0.8,4.2c0,0.3,0,0.7,0.1,1l0,0.4c0,0,0,0,0,0c0,0,0,0-0.1,0c-0.1,0-0.3,0-0.4,0l-1,0c-1.3,0-2.6,0.1-3.9,0.1
		l-2,0l-0.5,0c-0.2,0-0.4,0-0.4,0c-0.1-0.1-0.2-0.1-0.2-0.3c0.1-1.3,0.2-2.6,0.4-3.8c0.5-2.5,1.4-5,2.9-6.9c0.7-0.9,1.7-1.8,2.6-2.7
		c0.9-0.9,1.8-1.8,2.7-2.8c0.4-0.4,1-1,1.4-1.7c0.4-0.7,0.7-1.4,0.9-2.2c0.4-1.5,0.3-3.2-0.4-4.7c-0.3-0.7-0.8-1.4-1.4-2
		c-0.6-0.6-1.3-1.1-2.1-1.4c-0.8-0.3-1.6-0.4-2.4-0.3c-0.8,0.1-1.6,0.2-2.3,0.6c-0.8,0.3-1.4,0.9-1.9,1.4c-0.5,0.6-0.9,1.2-1.2,1.9
		c-0.5,1.1-0.8,2.2-1,3.4c-2.7,0.2-5.5,0.5-8.6,0.7c0-0.2,0.1-0.3,0.1-0.4l0.1-0.5c0-0.3,0.1-0.6,0.2-0.9c0.1-0.6,0.3-1.2,0.5-1.8
		c0.4-1.2,1-2.3,1.7-3.3c1.4-2.1,3.3-3.8,5.4-5c2.1-1.2,4.5-1.8,6.8-1.6c1.3,0.1,2.6,0.2,3.7,0.4c1.1,0.2,2.3,0.6,3.3,1.1
		c2.1,1,3.8,2.6,5,4.6c1.2,2,1.8,4.3,1.8,6.6C125,17.8,124.4,20.1,123.1,22.2z"/>
	<path class="st0" d="M113.1,40.7c-0.7-0.4-1.5-0.6-2.3-0.6c-1.6-0.1-3.2,0.7-4.2,1.9c-0.5,0.6-0.9,1.3-1.1,2
		c-0.2,0.7-0.2,1.5-0.1,2.2c0.3,1.4,1,2.6,1.8,3.6c0.8,1,2,2,3.6,2.2c1.5,0.2,3.2-0.6,3.9-1.9c0.4-0.6,0.6-1.4,0.7-2
		c0.1-0.7,0.1-1.3,0.2-1.9c0-1.2-0.1-2.6-0.8-3.9C114.4,41.7,113.8,41.1,113.1,40.7z M114.7,47.9c-0.4,0.5-0.8,0.8-1.3,1
		c-1,0.4-1.7,0.6-2.6,0.8c-0.4,0.1-0.9,0.2-1.4,0.1c-0.5,0-1-0.2-1.5-0.6c-0.9-0.7-1.2-1.9-0.9-2.9c0.3-1,0.9-1.7,1.5-2.2
		c0.7-0.5,1.5-0.7,2.2-0.7c0.4,0,0.8,0,1.2,0.1c0.4,0.1,0.9,0.2,1.3,0.4c0.5,0.2,1,0.5,1.3,0.9c0.4,0.4,0.6,1,0.6,1.6
		C115.2,46.8,115,47.4,114.7,47.9z"/>
	<path class="st0" d="M73.6,78.4c-0.4,0.1-0.8,0.4-0.8,0.9c0,2-1.6,5.1-3.9,8c1.3-12.2-4.5-33.1-11.3-44.9c-0.2-0.4-0.7-0.6-1.2-0.4
		c-0.4,0.2-0.6,0.7-0.5,1.1c2.2,6-1.4,17.8-4.1,21.1C37,46,37.9,13.4,37.9,13.1c0-0.4-0.2-0.7-0.6-0.9c-0.4-0.1-0.8,0-1,0.3
		c-2,2.5-5.7,15.7-7.4,31.5C27.2,60.2,18,69.9,14.5,73c-0.3-3.7-1.3-11.6-2.8-14c-0.2-0.3-0.6-0.5-1-0.4c-0.4,0.1-0.6,0.5-0.6,0.9
		c0.3,4.8-1.6,8.7-3.9,13.2C3.3,78.5,0,85.2,0,96.1c0,9.8,3.9,17.8,11.6,23.6c7.2,5.4,15.8,8.3,24.9,8.3c0,0,0,0,0,0
		c11,0,21.4-4.2,29.2-11.9c4-4,6-7.4,6-7.5c5.4-8.5,4.8-23.8,2.9-29.6C74.5,78.6,74.1,78.3,73.6,78.4z M73.7,97.1
		C73.7,97.1,73.7,97.1,73.7,97.1c-0.1,0.5-0.2,1.1-0.3,1.6c0,0.1,0,0.1,0,0.2c-0.1,0.5-0.2,1-0.3,1.5c0,0,0,0,0,0.1
		c-0.2,1-0.5,2.1-0.9,3c0,0.1-0.1,0.2-0.1,0.3c-0.1,0.4-0.3,0.7-0.4,1.1c-0.1,0.1-0.1,0.3-0.2,0.4c-0.1,0.3-0.3,0.6-0.5,1
		c-0.1,0.1-0.1,0.2-0.2,0.4c-0.2,0.4-0.4,0.8-0.6,1.1c0,0,0,0.1,0,0.1c0,0-1.9,3.3-5.8,7.1c-0.1,0.1-0.3,0.3-0.4,0.4
		c-3.6,3.5-7.8,6.2-12.3,8c-0.1,0-0.1,0-0.2,0.1c-0.7,0.3-1.5,0.6-2.2,0.8c-0.2,0.1-0.4,0.1-0.6,0.2c-0.8,0.2-1.6,0.5-2.4,0.7
		c0,0-0.1,0-0.1,0c-0.8,0.2-1.6,0.4-2.4,0.5c-0.3,0-0.5,0.1-0.8,0.1c-0.6,0.1-1.3,0.2-1.9,0.3c-0.2,0-0.3,0.1-0.5,0.1c0,0,0,0,0,0
		c-1.3,0.1-2.7,0.2-4,0.2c0,0,0,0,0,0c-3.3,0-6.5-0.4-9.6-1.1c-0.1,0-0.2-0.1-0.4-0.1c-0.4-0.1-0.8-0.2-1.2-0.3c0,0-0.1,0-0.1,0
		c-4.5-1.3-8.8-3.5-12.6-6.4c-0.4-0.3-0.9-0.7-1.3-1c-6.3-5.3-9.5-12.4-9.5-21.1c0-10.5,3.2-17,6.1-22.6C8,73.2,8.1,73,8.2,72.8
		c0.2-0.4,0.4-0.8,0.6-1.1c0.1-0.2,0.2-0.3,0.2-0.5c0.3-0.7,0.7-1.4,1-2.2c0,0,0,0,0,0c0,0,0-0.1,0-0.1c0.7-1.6,1.2-3.2,1.6-4.8
		c0.7,3.7,1.2,8.5,1.4,10.8c0,0.3,0.2,0.6,0.5,0.7c0,0,0.1,0,0.1,0c0,0,0.1,0,0.1,0c0,0,0,0,0.1,0c0.2,0,0.4,0,0.6-0.2
		c0.2-0.2,2.4-1.8,5.2-5c4.3-5,9.9-13.7,11.2-26.3c0.3-3.1,0.7-6.1,1.2-8.9c0,0,0,0,0,0c0.1-0.6,0.2-1.3,0.3-1.9
		c0-0.2,0.1-0.4,0.1-0.6c0.1-0.4,0.2-0.8,0.2-1.3c0.1-0.3,0.1-0.7,0.2-1c0.1-0.3,0.1-0.5,0.2-0.8c0.1-0.4,0.2-0.8,0.3-1.2
		c0-0.2,0.1-0.3,0.1-0.5c0-0.2,0.1-0.3,0.1-0.5c0,0,0,0,0,0c0.1-0.3,0.1-0.6,0.2-0.9c0-0.1,0.1-0.2,0.1-0.4c0.1-0.4,0.2-0.7,0.2-1.1
		c0-0.2,0.1-0.4,0.1-0.6c0.1-0.3,0.1-0.5,0.2-0.8c0.1-0.3,0.1-0.5,0.2-0.8c0-0.2,0.1-0.4,0.1-0.6c0.1-0.3,0.1-0.6,0.2-0.8
		c0-0.2,0.1-0.3,0.1-0.5c0.1-0.3,0.2-0.6,0.2-0.8c0.1-0.2,0.1-0.4,0.2-0.6c0.1-0.2,0.1-0.4,0.2-0.6c0.2-0.8,0.5-1.5,0.7-2.1
		c0,0,0,0,0,0c0,0,0,0,0,0c0,1.7,0.1,3.7,0.3,6.1c0.7,8.5,2.6,20.9,7.8,31.8c1.9,3.9,4.2,7.7,7,11c0.3,0.4,0.8,0.4,1.2,0.1
		c0.2-0.1,0.3-0.3,0.5-0.5c0,0,0,0,0,0c0,0,0,0,0,0c0.1-0.1,0.1-0.1,0.2-0.2c0.1-0.1,0.2-0.3,0.4-0.4c0,0,0,0,0,0c0,0,0,0,0,0
		c0.2-0.2,0.4-0.5,0.6-0.8c0.1-0.1,0.1-0.2,0.2-0.3c0.1-0.2,0.3-0.4,0.4-0.7c0.1-0.1,0.1-0.3,0.2-0.4c0.1-0.2,0.2-0.4,0.3-0.7
		c0.1-0.2,0.2-0.3,0.2-0.5c0.1-0.2,0.2-0.4,0.3-0.7c0.1-0.2,0.2-0.4,0.2-0.6c0.1-0.2,0.2-0.4,0.3-0.6c0.1-0.2,0.2-0.5,0.3-0.7
		c0.1-0.2,0.1-0.4,0.2-0.6c0.1-0.3,0.2-0.5,0.3-0.8c0-0.2,0.1-0.3,0.1-0.5c0.3-1.1,0.6-2.3,0.8-3.5c0-0.1,0-0.2,0.1-0.3
		c0.1-0.3,0.1-0.7,0.2-1c0-0.2,0.1-0.4,0.1-0.6c0-0.3,0.1-0.6,0.1-0.9c0-0.3,0.1-0.5,0.1-0.8c0-0.2,0-0.5,0.1-0.7
		c0-0.5,0.1-1,0.1-1.5c0,0,0,0,0,0c0,0,0,0,0,0c1,2.2,2,4.7,3,7.2c0,0,0,0,0,0.1c0.3,0.8,0.6,1.7,0.9,2.5c0,0,0,0,0,0.1
		c0.3,0.9,0.6,1.7,0.8,2.6c0,0,0,0,0,0c1.1,3.5,2,7.2,2.7,10.7c0,0.1,0,0.1,0,0.2c0.2,0.8,0.3,1.6,0.4,2.4c0,0.1,0,0.2,0,0.3
		c0.1,0.8,0.2,1.6,0.3,2.3c0,0.1,0,0.2,0,0.3c0.1,0.8,0.2,1.5,0.3,2.2c0,0.1,0,0.2,0,0.3c0.1,0.7,0.1,1.5,0.2,2.2c0,0.1,0,0.1,0,0.2
		c0,0.7,0.1,1.4,0.1,2.1c0,0,0,0,0,0.1c0,0.7,0,1.3-0.1,2c0,0.1,0,0.1,0,0.2c0,0.6-0.1,1.2-0.2,1.8c0,0.1,0,0.1,0,0.2
		c0,0,0,0.1,0,0.1c-0.1,0.4-0.1,0.8-0.2,1.2c0,0,0,0.1,0,0.1c0,0.2-0.1,0.5-0.2,0.7c-0.1,0.4,0.1,0.8,0.4,1c0.3,0.2,0.6,0.2,0.9,0
		c0,0,0,0,0.1,0c0,0,0.1,0,0.1-0.1c0.1-0.1,0.2-0.2,0.3-0.4c0.2-0.2,0.4-0.4,0.6-0.7c0.1-0.1,0.2-0.3,0.4-0.4c0.3-0.3,0.6-0.7,0.8-1
		c0,0,0,0,0,0c0.1-0.2,0.3-0.3,0.4-0.5c0.1-0.1,0.1-0.2,0.2-0.3c1-1.4,2-3,2.6-4.4v0c0.1,0.5,0.2,1,0.2,1.6c0,0.2,0,0.3,0,0.5
		c0,0.5,0.1,1,0.1,1.5c0,0.1,0,0.3,0,0.4c0,0.1,0,0.3,0,0.4C74.3,90.5,74.2,93.8,73.7,97.1z"/>
	<path class="st0" d="M53.7,83.1c-0.2-0.1-0.4-0.2-0.6-0.2c-0.2,0-0.4,0.1-0.6,0.3c-0.1,0.1-0.2,0.2-0.2,0.4
		c-1.4,5.7-5.4,9-7.9,10.6c-0.5,0.3-0.9,0.6-1.2,0.7c-0.7-1.2-2.3-3.9-3.6-7.9c-1.7-5-3-11.9-1.5-19.8c0.1-0.3-0.1-0.7-0.3-0.9
		c-0.1-0.1-0.2-0.1-0.3-0.2c-0.1,0-0.2,0-0.3,0c-0.1,0-0.2,0-0.3,0c-0.2,0.1-0.4,0.2-0.6,0.5c-0.3,0.7-6.7,14.3-9.3,27
		c-0.4,2.1-0.7,4.1-0.9,6c-6-1.1-7-8.7-7-9c0-0.2-0.1-0.4-0.3-0.5c0,0,0,0,0,0c-0.1-0.1-0.3-0.2-0.5-0.2c-0.1,0-0.2,0-0.3,0
		c-0.2,0.1-0.4,0.2-0.5,0.4c0,0.1-0.1,0.1-0.1,0.2c-0.1,0.3-0.6,2.9-0.8,6.5c0,0,0,0.1,0,0.1c0,0.1,0,0.1,0,0.2
		c-0.1,2.2,0,4.8,0.4,7.5c0.6,3.7,1.9,7.6,4.4,10.7c2.2,2.7,5.1,4.6,8.7,5.6c2.1,0.6,4.4,0.9,6.9,0.9c6,0,12.3-3.6,16.2-9.3
		c1.6-2.3,3.1-5.5,3.7-9.5c0.9-5.1,0.4-11.7-2.9-19.9C54,83.3,53.8,83.2,53.7,83.1z M51.7,111.8c-0.1,0.2-0.3,0.4-0.5,0.6
		c-0.1,0.1-0.2,0.3-0.3,0.4c-0.1,0.1-0.2,0.3-0.3,0.4c-0.2,0.2-0.3,0.4-0.5,0.6c-0.1,0.1-0.2,0.2-0.3,0.3c-0.2,0.2-0.4,0.4-0.5,0.6
		c-0.1,0.1-0.2,0.2-0.3,0.3c-0.2,0.2-0.4,0.4-0.6,0.5c-0.1,0.1-0.2,0.2-0.3,0.3c-0.2,0.2-0.4,0.3-0.6,0.5c-0.1,0.1-0.2,0.2-0.4,0.3
		c-0.2,0.1-0.4,0.3-0.6,0.4c-0.1,0.1-0.3,0.2-0.4,0.3c-0.2,0.1-0.3,0.2-0.5,0.3c-0.1,0.1-0.3,0.2-0.4,0.3c-0.1,0-0.1,0.1-0.2,0.1
		c0,0,0,0,0,0c-0.1,0-0.2,0.1-0.2,0.1c-0.2,0.1-0.4,0.2-0.6,0.3c-0.1,0.1-0.2,0.1-0.4,0.2c-0.2,0.1-0.5,0.2-0.7,0.3
		c-0.1,0.1-0.2,0.1-0.3,0.1c-0.2,0.1-0.5,0.2-0.7,0.3c-0.1,0-0.2,0.1-0.3,0.1c-0.2,0.1-0.5,0.2-0.7,0.2c-0.1,0-0.2,0.1-0.3,0.1
		c-0.3,0.1-0.5,0.1-0.8,0.2c-0.1,0-0.2,0-0.2,0.1c-0.3,0.1-0.6,0.1-0.8,0.2c0,0-0.1,0-0.1,0c-0.6,0.1-1.3,0.1-1.9,0.1
		c-0.8,0-1.6,0-2.4-0.1c-0.1,0-0.3,0-0.4-0.1c-0.6-0.1-1.2-0.1-1.8-0.3c-0.2,0-0.4-0.1-0.5-0.1c-0.5-0.1-1.1-0.2-1.6-0.4
		c-0.2-0.1-0.3-0.1-0.5-0.2c-0.5-0.2-1-0.4-1.5-0.6c0,0-0.1,0-0.2-0.1c0,0,0,0,0,0c-0.1-0.1-0.2-0.1-0.3-0.2c-0.3-0.2-0.7-0.3-1-0.5
		c-0.3-0.1-0.5-0.3-0.7-0.5c-0.2-0.2-0.5-0.3-0.7-0.5c-0.3-0.2-0.6-0.5-0.9-0.8c-0.1-0.1-0.3-0.2-0.4-0.3c-0.4-0.4-0.8-0.8-1.2-1.3
		c-1.2-1.4-2-3-2.7-4.7c-1.8-4.6-1.9-9.8-1.6-13.5c0-0.1,0-0.1,0-0.2c0,0,0,0,0,0c0-0.3,0-0.6,0.1-0.9c0,0,0,0,0,0
		c0.3,0.6,0.6,1.3,1,1.9c1.4,2.3,3.7,4.4,7.4,4.6c0.2,0,0.4-0.1,0.6-0.2c0,0,0.1,0,0.1-0.1c0,0,0,0,0,0c0.2-0.1,0.3-0.4,0.3-0.6
		c0.6-9.3,5-21.2,7.8-28c0,0,0,0,0,0c-0.4,12.2,4.8,21.1,6.2,23.2c0.2,0.3,0.3,0.4,0.3,0.5c0.2,0.2,0.4,0.3,0.6,0.4
		c0.1,0,0.3,0,0.4-0.1c0.3-0.1,5.4-2.4,8.7-7.8c0.2-0.4,0.4-0.8,0.7-1.2c0,0,0,0,0,0c0.2-0.4,0.4-0.9,0.6-1.3c0,0,0,0,0,0
		c1,2.9,1.6,5.5,2,7.9C56.4,102.5,54.2,108.2,51.7,111.8z"/>
</g>
</svg>
