<?xml version="1.0" encoding="utf-8"?>
<!-- Generator: Adobe Illustrator 23.0.0, SVG Export Plug-In . SVG Version: 6.00 Build 0)  -->
<svg version="1.1" id="Layer_1" xmlns="http://www.w3.org/2000/svg" xmlns:xlink="http://www.w3.org/1999/xlink" x="0px" y="0px"
	 viewBox="0 0 128 128" 
width="128" height="128"
style="enable-background:new 0 0 128 128;" xml:space="preserve">
<style type="text/css">
	.st0{fill:#2D2D2D;}
</style>
<g>
	<path class="st0" d="M99,105.8c-0.6,0-1.2,0.5-1.2,1.1c0,0.6,0.5,1.2,1.2,1.2c0.6,0,1.2-0.5,1.2-1.2
		C100.1,106.4,99.6,105.8,99,105.8z"/>
	<path class="st0" d="M101.4,104.7c-0.4-0.4-0.9-0.5-1.4-0.6c-0.5,0-0.9,0.1-1.3,0.1l-1.2,0.2c-0.3,0-0.5,0-0.7-0.2
		c-0.2-0.1-0.4-0.4-0.6-0.7c-0.3-0.6-0.4-1.2-0.5-1.9c0,0,0,0,0,0c0,0,0,0,0,0c-0.1,0.7,0,1.4,0.2,2.1c0.1,0.3,0.3,0.7,0.6,1
		c0.3,0.3,0.7,0.4,1.1,0.4l0,0l1.2-0.1c0.4,0,0.8,0,1.1,0c0.3,0.1,0.6,0.2,0.8,0.3c0.2,0.2,0.3,0.4,0.4,0.8l0,0
		c0.1,0.3,0.2,0.5,0.2,0.8c0,0.3,0,0.6-0.1,0.9v0c0,0,0,0,0,0c0,0,0,0,0.1,0c0.3-0.2,0.4-0.6,0.5-0.9c0.1-0.3,0.1-0.7,0.1-1
		C101.9,105.7,101.8,105.2,101.4,104.7z"/>
	<path class="st0" d="M99.5,109.8c-0.3-0.1-0.5-0.1-0.8-0.2c-0.2-0.1-0.5-0.1-0.7-0.2c-0.1,0-0.2-0.1-0.3-0.1
		c-0.1,0-0.2-0.1-0.3-0.1c-0.1,0-0.2-0.1-0.3-0.1l-0.2-0.1l-0.1-0.1c-0.4-0.2-0.7-0.6-0.9-1c-0.2-0.4-0.4-0.9-0.5-1.4l0-0.1
		c0,0,0,0,0,0c0,0,0,0,0,0c-0.1,0.3,0,0.5,0,0.8c0,0.3,0.1,0.5,0.2,0.8c0.2,0.5,0.5,1,0.9,1.4c0.4,0.4,1,0.8,1.6,0.7
		c0.3,0,0.6-0.1,0.9-0.1C99,110.3,99.3,110.1,99.5,109.8C99.5,109.9,99.5,109.9,99.5,109.8C99.5,109.9,99.5,109.9,99.5,109.8
		L99.5,109.8z"/>
	<path class="st0" d="M95.4,90.3c0.1,0.2,0.1,0.5,0.2,0.8c0,0.2,0,0.3,0,0.5c0,0.2,0,0.3-0.1,0.5c0.1-0.1,0.2-0.3,0.2-0.4
		c0-0.2,0.1-0.3,0.1-0.5c0-0.3,0-0.7,0-1l0-0.1l-0.2-0.1c0,0-0.1,0-0.2,0l-0.2-0.1l-0.4-0.1c-0.3-0.1-0.5-0.2-0.8-0.3
		c-0.1,0-0.1-0.1-0.2-0.1c-0.2-0.4-0.2-0.8-0.2-1.1c0-0.5,0.1-1,0.2-1.5c0.1-1,0.1-2.1-0.1-3.1c0-0.2-0.1-0.4-0.2-0.7
		c0.7,1.1,1.4,2.1,2.1,3.2c0.5,0.8,1,1.7,1.5,2.5c0.4,0.9,0.8,1.7,1.2,2.8c0.3-1,0.2-2.2-0.1-3.2c-0.3-1-0.8-2-1.3-2.9
		c-0.6-0.9-1.2-1.7-2-2.4c-0.7-0.7-1.5-1.4-2.4-1.8c-0.2-0.1-0.3-0.3-0.5-0.4c-0.5-0.3-1.1-0.5-1.7-0.5c-0.6-0.1-1.2,0-1.6,0l-0.7,0
		l0,0.7c0,1.1,0.1,2.2,0.2,3.3c0.1,0.6,0.1,1.1,0.3,1.7c0.1,0.3,0.2,0.6,0.3,0.9l0.3,0.4c0.1,0.1,0.2,0.3,0.3,0.4
		c0.2,0.3,0.4,0.5,0.7,0.7c0.2,0.2,0.5,0.4,0.7,0.5c0.5,0.3,1,0.6,1.6,0.8c0.5,0.2,1.1,0.4,1.6,0.5c0.3,0.1,0.6,0.1,0.8,0.2l0.4,0.1
		L95.4,90.3C95.3,90.3,95.3,90.3,95.4,90.3z M92.6,88.6c-0.9-0.5-1.8-1.1-2.4-1.9c-0.3-0.4-0.4-0.7-0.5-1.2c-0.1-0.5-0.2-1-0.2-1.5
		c0-0.5-0.1-1.1-0.1-1.6l0-1c0.2,0,0.5,0,0.7,0c0.4,0,0.8,0.1,1.2,0.3c0.7,0.4,1.1,1.1,1.4,2c0.1,0.5,0.3,0.9,0.3,1.4
		c0.1,0.5,0.1,1,0.2,1.5c0,0.5,0,1,0.1,1.5c0,0.4,0.2,0.8,0.4,1.1C93.3,88.9,92.9,88.8,92.6,88.6z"/>
	<path class="st0" d="M127.8,100.8c-0.1-0.1-0.2-0.2-0.4-0.2c-0.1,0-0.3,0.1-0.4,0.2c-0.1,0.1,0,0.1-0.1,0.1L127,101l-0.4,0.6
		c-0.6,0.8-1.3,1.5-2,2.2c-1.5,1.3-3.3,2.2-5.1,3l-1.4,0.6c-0.2,0.1-0.4,0.2-0.6,0.2c-0.2,0.1-0.4,0.1-0.6,0.2c0,0,0,0,0,0
		c-0.9,0.2-1.9,0.3-2.9,0.4c-2,0.1-3.4,0.1-5.4,0.1c-0.3,0-0.7-0.3-0.4-0.6c0.4-0.5,0.5-0.5,0.9-0.9c0.4-0.4,0.8-0.9,1.2-1.3
		c0.4-0.4,0.7-0.9,1.1-1.4c0.2-0.2,0.4-0.5,0.5-0.7c0,0,0.2-0.2,0.2-0.4c0.1-0.2,0-0.4,0-0.5c-0.1-0.3-0.4-0.6-0.7-0.6
		c-0.1,0-0.2,0-0.2,0c-0.1,0-0.1,0-0.1,0c-0.1,0-0.1,0-0.2,0.1c-0.1,0-0.3,0.1-0.4,0.1c-0.3,0-0.6,0.1-0.9,0.1
		c-0.6,0-1.2-0.2-1.8-0.3c-0.6-0.1-1.2,0-1.8,0.1c-0.4,0.1-0.9,0.2-1.3,0.3c0-0.1-0.1-0.3-0.2-0.3l0,0c-0.7-0.5-1.1-1.3-1.3-2.2
		c-0.2-0.9-0.3-1.9-0.3-2.9c0-1,0.1-2,0.2-3c0.1-0.7,0.2-1.4,0.3-2c0,0,0-0.1,0.1-0.1c0.6-0.4,1.2-0.6,1.9-0.7
		c0.5-0.1,0.9-0.3,1.4-0.5c0.5-0.2,0.9-0.5,1.3-0.9c0.4-0.4,0.6-0.8,0.9-1.3c0.3-0.4,0.6-0.8,0.8-1.3c0.2-0.4,0.3-0.9,0.4-1.4
		c0-0.3,0.1-0.7,0-1c0,0,0,0,0-0.1l0.1-0.1l0.1-0.1c0-0.1,0-0.2,0-0.3c0-0.2-0.1-0.3-0.3-0.4c-0.1,0-0.2,0-0.2,0
		c-0.1,0-0.1,0-0.1,0.1c-0.7,0.4-1.5,0.8-2.2,1.1c-0.8,0.3-1.6,0.3-2.5,0.3c-0.8,0.1-1.6,0.2-2.5,0.4c-0.7,0.1-1.4,0.3-2.1,0.5
		c-0.1-0.1-0.1-0.1-0.2-0.2c-0.6-0.7-1.2-1.4-1.8-2.1c-0.6-0.6-1.2-1.2-1.8-1.8c-0.1-0.1-0.2-0.2-0.2-0.3c-0.3-1.1-0.6-2.4-0.8-3.4
		c0-0.5-0.2-0.9-0.4-1.3c-0.2-0.4-0.5-0.8-0.8-1.2c-0.6-0.7-1.3-1.2-1.8-1.8c0,0,0,0,0,0c-0.3-0.5-0.6-1-1-1.4
		c-0.4-0.4-0.8-0.8-1.3-1.1c-0.5-0.3-1-0.6-1.6-0.8c-0.5-0.1-1-0.3-1.5-0.5c-1-0.4-1.9-0.9-2.9-1.5c-0.9-0.5-1.8-1.1-2.7-1.7
		c-0.4-0.3-0.8-0.6-1.3-1c-0.5-0.3-1-0.6-1.6-0.8c-1.1-0.4-2.3-0.7-3.4-0.8c-1.1-0.1-2.3-0.1-3.4,0c-1.1,0.1-2.2,0.3-3.4,0.5
		c0,0,0,0-0.1,0l0,0c-2.5,1-5.2,1.7-8,2.2c-1.4,0.3-2.7,0.4-4.1,0.6c-1.4,0.1-2.8,0.2-4.1,0.2c-2.8,0-5.6-0.2-8.3-0.6
		c-1.4-0.2-2.8-0.3-4.2-0.5c-0.7-0.1-1.4-0.2-2.2-0.1c-0.7,0.1-1.4,0.4-2.1,0.7c-1.3,0.6-2.5,1.3-3.8,1.8c-0.6,0.3-1.3,0.5-2,0.6
		c-0.7,0.1-1.3,0.2-2,0.2c-2.8,0-5.5-0.5-8.4-0.8c-0.4,0-0.7-0.1-1.1-0.1c-0.4,0-0.8,0-1.1,0c-0.8,0.1-1.5,0.3-2.2,0.7
		c-0.4,0.2-0.6,0.4-0.9,0.6c-0.3,0.2-0.6,0.4-0.9,0.6c-0.6,0.4-1.1,0.9-1.7,1.3c-1.1,0.9-2.1,1.9-3.1,2.9c-1,1-2,2-2.9,3.2
		C4.5,79,3.9,79.9,3.4,81c0,0,0,0,0,0c-0.6,0.8-1.2,1.7-1.7,2.7c-0.8,1.5-1.4,3.2-1.6,5c-0.2,1.8,0,3.7,0.9,5.3c0.7,1.3,2,2.4,3.3,3
		c0.4,0.2,0.6,0.7,0.5,1.1c-0.1,0.3-0.1,0.6-0.1,0.9c0,0.8,0,1.6,0.1,2.3c0.2,0.8,0.4,1.5,0.7,2.2c0.3,0.6,0.6,1.2,0.9,1.8
		c0,0,0,0.1,0,0.1c0,0.7,0,1.4-0.1,2.1l-0.2,2.4c-0.1,0.8-0.2,1.6-0.4,2.4c-0.2,0.8-0.6,1.5-1.1,2.1c0,0,0,0,0,0.1l0,0
		c-0.2,0.4-0.2,0.8-0.3,1.3c0,0.4,0,0.9,0.1,1.3c0.1,0.4,0.3,0.9,0.5,1.3c0.2,0.4,0.6,0.7,1,0.9c0.1,0.1,0.1,0.2,0.2,0.3
		c0.1,0.2,0.2,0.3,0.3,0.5l0.6,1.1c0.3,0.5,0.6,1.3,0.6,1.9c0,0,0,0,0,0.1l-1.1,3.7c-0.1,0.2,0,0.5,0.1,0.6c0.1,0.2,0.4,0.3,0.6,0.3
		l11.2,0c0.2,0,0.4-0.1,0.6-0.3c0.1-0.2,0.2-0.4,0.2-0.6c-0.2-1.2-1.4-3.4-4-3.7c0,0-0.1,0-0.1-0.1c-0.4-0.9-1.1-2.8-0.8-4.6
		c0.2-1.4,1.5-4.3,2.8-6.8c0.1-0.1,0.2-0.1,0.3,0c0.2,0.8,0.3,1.8,0.2,2.6c-0.4,2.1,0.4,4.9,2.2,5.7c1.3,0.6,3.5,2.2,3.9,2.8
		c0,0,0,0.1,0,0.1c0,0.4-0.1,0.8-0.2,1.3c-0.1,0.3-0.2,0.7-0.2,1c0,0.5,0.4,0.9,0.9,0.9l10.5,0c0.4,0,0.7-0.3,0.7-0.6
		c0-0.1,0.2-1.5-0.7-2.6c-0.6-0.8-1.6-1.3-2.9-1.4c0,0,0,0-0.1,0c-1-0.8-2.9-2.9-3.2-4.3c-0.4-1.5-1-7.8-1-9.1
		c-0.1-1.1,0.6-2.7,2.6-3.7c0.1,0,0.1,0,0.2,0c0.2,0.2,0.4,0.4,0.6,0.6c0,0.1,0.1,0.1,0.2,0.2c2.1,1.4,9.1,4.4,15.9,4.4
		c4.7,0,8.5-1.3,11-2.2c1-0.4,1.9-0.7,2.3-0.7c0.5,0,1.3-0.1,2-0.2c0,0.1,0,0.1,0,0.2c0,0,0,0.1,0,0.2c-0.6,3.1-1.2,4.6-1.6,5.3
		c-0.4,0.7-0.6,1.6-0.4,2.4c0.1,0.6,0.2,1.2,0.4,1.9c0.2,1.2,0.7,3.2,0.4,3.6c-0.6,0.9-1.1,2.6-1.2,3.8c-0.1,0.7,0.2,1.4,0.8,1.8
		c0.3,0.2,0.7,0.3,1.1,0.3l6.4,0c0.1,0,0.2,0.1,0.1,0.2c-0.1,0.5,0,0.9,0.2,1.2c0.2,0.3,0.6,0.5,1,0.5l10.7,0c0.3,0,0.6-0.2,0.7-0.5
		c0-0.1,0.8-2.2-1.9-4.1c-1.3-1.1-2-2.4-1.9-3.4c0.1-1.4,0.8-9.1,1.1-10.6c0-0.3,0.2-0.9,0.4-1.5c0.2-0.9,0.5-2.1,0.8-3.3
		c0.1,0.2,0.1,0.4,0.2,0.5c0.3,0.5,0.8,1,1.4,1.2c0.3,0.1,0.7,0.1,1,0.1c0.1,0,0.2-0.1,0.4-0.1c0,0,0,0,0,0l0,0
		c0,0.1,0.1,0.1,0.1,0.2c0.1,0.2,0.3,0.5,0.5,0.6c0.4,0.4,0.9,0.7,1.5,0.7c0.3,0,0.6-0.1,0.9-0.2c0.1,0,0.2,0,0.2,0.1
		c0,0.5,0.1,0.9,0.2,1.4c0.1,0.6,0.3,1.2,0.6,1.8c0.2,0.5,0.6,0.9,1.1,1.3c0,0,0,0,0.1,0.1c0.2,0.7,0.4,1.4,0.7,2.1
		c0.3,0.8,0.8,1.6,1.3,2.3c0.5,0.7,1.2,1.4,1.9,1.9c0.7,0.5,1.4,0.9,2.2,1.2c0,0,0,0,0,0c0.5,0.5,1,1,1.6,1.5
		c0.3,0.3,0.7,0.5,1.2,0.7c0.4,0.1,0.8,0.2,1.3,0.2c0.5,0.3,1.1,0.4,1.6,0.5c0.4,0.1,0.9,0.1,1.3,0.1c0.1,0,0.2,0,0.3,0l0.2,0
		c1.2,0,2.3,0,3.6-0.2c0.3-0.1,0.6-0.1,1-0.3c0.1,0,0.2-0.1,0.3-0.2c0.1,0,0.1-0.1,0.1-0.1l0.1-0.1l0.3-0.3c0.4-0.4,0.9-0.8,1.3-1.2
		c0.4-0.4,0.8-0.9,1.1-1.5c0.2-0.3,0.3-0.6,0.4-1c0.1-0.5,0.5-1,1-1.2c0.4-0.2,0.8-0.4,1.2-0.5c0.4-0.2,0.9-0.4,1.2-0.5l0,0
		c0.1,0,0.1,0,0.2,0c0.1,0,0.2,0,0.3,0c0.3,0,0.6,0,0.9-0.2c0.3-0.1,0.6-0.3,0.8-0.5c0.5-0.4,0.8-0.9,1-1.4l0.2-0.4l0,0l0.5-0.2
		c0.9-0.4,1.8-0.9,2.8-1.4c0.5-0.2,0.9-0.5,1.4-0.7c0.4-0.3,0.9-0.5,1.3-0.8c0.9-0.6,1.7-1.3,2.4-2c0.7-0.7,1.4-1.5,2-2.4
		c0.6-0.9,1-1.9,1.3-2.9c0.1-0.5,0.2-1,0.3-1.6C128,101.1,128,100.9,127.8,100.8z M111,102.5c0,0,0.1,0,0.1,0c0,0,0,0,0,0
		C111.1,102.6,111.1,102.6,111,102.5C111,102.6,111,102.6,111,102.5C111,102.5,111,102.5,111,102.5z M105.7,103
		c0.6,0.1,1.2,0.1,1.9,0c0.6-0.1,1.2-0.4,1.8-0.4c0.3,0,0.6-0.1,0.9,0c0.2,0,0.3,0,0.5,0c0,0,0.1,0,0.1,0c-0.2,0.2-0.5,0.4-0.7,0.6
		c-0.5,0.4-0.9,0.9-1.3,1.4c-0.4,0.5-0.7,1.1-1,1.7c-0.2,0.5-0.4,1.2-0.3,1.8c-0.6-0.1-1.1-0.4-1.6-0.7c-0.4-0.4-0.8-0.9-1-1.4
		c-0.3-0.5-0.4-1.1-0.5-1.7c-0.1-0.5-0.1-0.9-0.1-1.4C104.8,102.8,105.3,102.9,105.7,103z M108.7,86.6c-0.1,0.5-0.1,1-0.3,1.4
		c-0.2,0.4-0.5,0.8-0.9,1c-0.4,0.2-0.8,0.3-1.3,0.4c-0.4,0.1-0.9,0.2-1.4,0.3c-0.5,0.2-1,0.4-1.4,0.7c0,0-0.1,0.1-0.1,0.1
		c0-0.1,0-0.1,0-0.2c-0.1-0.4-0.3-0.7-0.4-1c0.2-0.2,0.4-0.4,0.6-0.5c0.1-0.1,0.2-0.1,0.2-0.1c0.1,0,0.1,0,0.2-0.1
		c0.2,0,0.4,0,0.6-0.1c0.4,0,0.9-0.1,1.3-0.2c0.2-0.1,0.4-0.1,0.6-0.2c0.1,0,0.2-0.1,0.3-0.2c0.1-0.1,0.2-0.1,0.3-0.2
		c0.7-0.5,1.3-1.2,1.8-1.9C108.8,86.3,108.8,86.4,108.7,86.6z M101.2,86.2c0.4,0,0.8,0,1.3,0c0.8,0,1.7-0.1,2.5-0.3
		c0.8-0.2,1.6-0.5,2.4-0.9c0.6-0.3,1.2-0.5,1.8-0.7l-0.2,0.2l-0.8,0.9c-0.6,0.6-1.1,1.2-1.7,1.7c-0.1,0-0.1,0.1-0.2,0.2
		c-0.1,0-0.1,0.1-0.2,0.1c-0.2,0.1-0.4,0.2-0.5,0.2c-0.4,0.1-0.7,0.3-1.1,0.4c-0.2,0-0.4,0.1-0.7,0.2c-0.1,0-0.3,0.1-0.4,0.2
		c-0.1,0.1-0.2,0.2-0.2,0.3c-0.2,0.2-0.3,0.4-0.4,0.6c0-0.1-0.1-0.1-0.1-0.2c-0.3-0.4-0.5-0.8-0.8-1.2c-0.4-0.6-0.9-1.1-1.3-1.7
		C100.7,86.2,101,86.2,101.2,86.2z M4.9,97.1c-1.2-1.1-2.3-2.3-2.9-3.7c-0.6-1.4-0.7-3-0.5-4.6c0.1-1.2,0.5-2.5,0.9-3.7
		c-0.1,0.8-0.1,1.6,0,2.4c0.1,1.6,0.4,3.3,0.9,4.8C3.7,93.6,4.8,96.3,4.9,97.1C5,97.1,5,97.1,4.9,97.1z M26.3,108.3
		c0,1.1,0.6,7.6,1,9.3c0.4,1.8,2.7,4.5,4,5.3c0.1,0.1,0.2,0.1,0.3,0.1c1,0.1,1.6,0.4,2,0.9c0.2,0.3,0.3,0.6,0.4,0.9l-9,0
		c0,0,0,0,0-0.1c0.1-0.5,0.3-1.2,0.2-1.9c-0.1-1.3-4.4-3.8-4.8-3.9c-1-0.5-1.7-2.5-1.4-4.1c0.3-2-0.6-4.7-0.7-5.1
		c0.2-0.3,0.4-0.6,0.5-0.8c1.1-1.9,2.2-3.2,3-3.6c1.1-0.6,2.2-3,2.7-5.7c1.1,0.9,3.1,2.5,4.7,4C27,104.8,26.2,106.8,26.3,108.3z
		 M68.8,124.7C68.7,124.7,68.7,124.7,68.8,124.7l-7.1,0c-0.1,0-0.2-0.1-0.2-0.1c0,0-0.1-0.1-0.1-0.2c0.2-1.3,0.6-2.6,1-3.2
		c0.6-0.9,0.3-2.4-0.2-4.8c-0.1-0.6-0.2-1.2-0.3-1.8c-0.1-0.5,0-1,0.2-1.4c0.7-1.2,1.3-3.1,1.7-5.7l0-0.2c0.1-0.3,0.1-0.4,0.1-0.7
		c0.5-0.1,0.7-0.1,1-0.1c0.2,1.3,0.7,3,1.9,4.2c0.2,0.7,0.5,1.8,0.9,3.2c0.2,0.5,0.3,1.1,0.5,1.7c-0.4,0.6-2.1,3.2-2.1,5
		c0,1.7,2.1,3.1,2.8,3.5C68.9,124.2,68.8,124.4,68.8,124.7z M69.6,122.5c-0.9-0.5-1.9-1.4-1.9-2.1c0-0.8,0.7-2.1,1.2-3.1
		c0.5,1.9,1,3.7,0.9,4.6C69.7,122.1,69.6,122.3,69.6,122.5z M108.1,118.8c-0.1-0.2-0.4-0.4-0.6-0.6c-0.4-0.4-0.4-1.9-1.1-1.4
		c-0.6,0.5-0.8,2.3-0.4,2.7c0.2,0.3,0.7,0.4,1.1,0.2c-0.4,0.4-0.8,0.7-1.3,1l-0.4,0.3l-0.1,0.1c0,0-0.1,0.1-0.1,0.1c0,0,0,0-0.1,0
		c-0.2,0.1-0.4,0.1-0.7,0.2c-1,0.1-2.1,0.1-3.2,0.1c0,0-0.1-0.1-0.1-0.1l-0.8-0.6c-0.2-0.2-0.4-0.4-0.7-0.7
		c-0.2-0.2-0.4-0.5-0.7-0.7l-0.3-0.4c-0.1-0.1-0.2-0.2-0.4-0.3c0,0.2,0.1,0.4,0.1,0.5l0.2,0.4c0.1,0.3,0.3,0.6,0.5,0.9
		c0.1,0.3,0.3,0.5,0.4,0.8c0,0-0.1,0-0.1,0c-0.5-0.1-1-0.3-1.3-0.5c-0.1-0.1-0.3-0.1-0.5-0.1l0,0c-0.3,0-0.5,0-0.8-0.1
		c-0.3-0.1-0.5-0.3-0.8-0.5c-0.5-0.4-1-1-1.6-1.6c-0.1-0.1-0.2-0.1-0.3-0.2l0,0c-0.7-0.3-1.3-0.6-1.9-1.1c-0.6-0.4-1.1-1-1.5-1.6
		c-0.4-0.6-0.8-1.3-1.1-2c-0.3-0.7-0.6-1.4-0.8-2.2l0,0c-0.1-0.2-0.2-0.3-0.4-0.4c-0.3-0.1-0.6-0.4-0.8-0.8
		c-0.2-0.4-0.4-0.9-0.5-1.4c-0.1-0.5-0.2-1-0.3-1.6c0-0.3,0-0.5,0-0.8l0-0.3c0,0,0.1-0.1,0.1-0.2c0.5-1.5,1-3,1.3-4.5
		c0.3-1.5,0.6-3,0.8-4.5c0.2-1.5,0.2-3.1,0.2-4.6c-0.1-1.5-0.3-3.1-0.7-4.5c0.3,1.5,0.4,3,0.3,4.5c-0.1,1.5-0.2,3-0.5,4.5
		c-0.3,1.5-0.7,2.9-1.1,4.4c-0.5,1.4-1,2.9-1.6,4.2l0,0c0,0,0,0,0,0.1c-0.1,0.1-0.1,0.3,0,0.5c-0.1,0.2-0.2,0.3-0.3,0.5
		c-0.2,0.2-0.4,0.4-0.7,0.4c-0.3,0-0.6-0.1-0.9-0.3c-0.1-0.1-0.2-0.2-0.3-0.4c0,0,0.1-0.1,0.1-0.2c1-2.4,1.7-4.9,2.3-7.4
		c0.5-2.5,0.9-5.1,0.9-7.7c0-2.6-0.2-5.2-0.9-7.6c-0.6-2.5-1.7-4.9-3.1-7c1.3,2.2,2.2,4.6,2.7,7.1c0.5,2.5,0.6,5,0.5,7.5
		c-0.2,2.5-0.6,5-1.2,7.4c-0.6,2.4-1.5,4.8-2.5,7.1l0,0c0,0,0,0,0,0c0,0.1,0,0.2,0,0.3c0,0-0.1,0-0.1,0c-0.2,0.1-0.4,0.1-0.6,0
		c-0.4-0.1-0.8-0.4-1.1-0.8c-0.2-0.3-0.4-0.7-0.5-1.1c0.3-1.6,0.4-3.3,0.2-4.7c0.1-0.1,0.2-0.2,0.2-0.3l0,0c0.2-0.4,0.3-0.6,0.4-1
		c0.1-0.3,0.2-0.6,0.3-0.9c0.1-0.6,0.2-1.2,0.3-1.9c0.1-0.6,0.1-1.2,0-1.8c0-0.6-0.1-1.2-0.2-1.8c-0.1,0.6-0.1,1.2-0.3,1.8
		c-0.1,0.6-0.3,1.1-0.5,1.7c-0.2,0.5-0.4,1.1-0.7,1.5c-0.2,0.3-0.3,0.6-0.5,0.8c0,0,0,0,0,0c-0.3-0.1-0.6-0.2-1-0.3
		c-0.4-0.1-0.9-0.2-1.3-0.3c-0.9-0.1-1.8-0.2-2.7-0.2c-0.9,0-1.8,0.1-2.7,0.2c-0.9,0.1-1.7,0.3-2.6,0.6c0.9-0.1,1.7-0.1,2.6-0.1
		c0.9,0,1.7,0.1,2.5,0.3c0.8,0.2,1.6,0.4,2.4,0.7c0.4,0.1,0.8,0.3,1.2,0.5c0.4,0.2,0.8,0.4,1,0.5c0,0,0,0,0,0
		c0.5,2.5-0.5,6.3-1.1,8.4c-0.2,0.7-0.3,1.3-0.4,1.7c-0.2,1.5-1,9.3-1.1,10.7c-0.1,2.1,1.7,3.9,2.5,4.6c0,0,0,0,0.1,0.1
		c1.1,0.7,1.4,1.4,1.4,1.9l-9.8,0c0.1-0.6,0.6-1.9,0.9-2.6c0.2-0.6,0.4-1.1,0.6-1.6c0,0,0-0.1,0-0.1c0.2-1.5-0.8-4.7-2-8.8
		c-0.4-1.4-0.8-2.7-0.9-3.3c0-0.1-0.1-0.3-0.2-0.4c-1-1-1.7-4.8-1.7-4.9c-0.2-1.4-3.9-8.1-4.8-9.5c0,0,0-0.1,0-0.1l0,0
		c-0.3-0.8-0.6-1.8-0.7-2.7c-0.1-0.9-0.2-1.9,0-2.8c0.1-1,0.4-1.9,0.8-2.8c0.4-0.9,1-1.7,1.6-2.5c-0.7,0.7-1.4,1.4-1.9,2.3
		c-0.5,0.9-0.9,1.8-1.2,2.8c-0.2,1-0.3,2-0.3,3c0,0.5,0,1,0.1,1.5c0.1,0.5,0.2,1,0.3,1.6c0,0,0,0.1,0,0.1c0,0,0,0,0,0
		c0,0.1,0,0.1,0.1,0.2c2.1,3.7,4.4,8,4.6,8.9c-1.2,0.2-3.3,0.5-4.5,0.5c-0.6,0-1.5,0.3-2.7,0.8c-2.4,0.9-6.1,2.2-10.5,2.1
		c-6.4,0-13.1-3-14.9-4.1c-1.7-2.1-6.3-5.7-7.3-6.5c0.1-0.7,0.1-1.3,0.1-2c0-0.1,0-0.1,0-0.2c0-0.1,0-0.1-0.1-0.2c0,0,0,0,0,0
		c0,0,0,0,0-0.1l-0.1-0.2c0-0.1-0.1-0.2-0.1-0.3c-0.1-0.2-0.1-0.5-0.2-0.7c-0.1-0.5-0.2-1-0.3-1.5c-0.1-0.5-0.1-1-0.2-1.6
		c0-0.5-0.1-1-0.1-1.6c-0.1-0.6-0.2-1.1-0.4-1.6c-0.2-0.5-0.5-1-0.7-1.4c-0.4-0.9-0.5-2-0.4-3.1c-0.2,1-0.3,2.2,0.1,3.2
		c0.2,0.5,0.4,1,0.5,1.5c0.1,0.5,0.2,1,0.2,1.5c0,0.5,0,1-0.1,1.6c0,0.5,0,1.1,0,1.6c0,0.5,0,1.1,0.1,1.6c0,0.3,0.1,0.6,0.1,0.8
		c0,0.1,0,0.3,0.1,0.4c0,0.1,0,0.1,0.1,0.2c0,0,0,0.1,0,0.1c0,3.9-1.6,7.6-2.4,8c-1.3,0.7-2.6,2.6-3.5,4.1c-1.4,2.1-4.3,8-4.7,10.4
		c-0.4,2.5,0.6,5,1.2,6c0.1,0.2,0.4,0.4,0.6,0.4c1.5,0,2.3,0.9,2.7,1.7l-9.2,0l0.8-2.8c0.1-0.4-0.8-1.3-0.8-1.5
		c-0.1-0.4-0.2-0.8-0.3-1.2c-0.1-0.4-0.3-0.8-0.4-1.2c-0.1-0.2-0.2-0.4-0.2-0.6c-0.1-0.2-0.2-0.4-0.4-0.6c0-0.1-0.1-0.1-0.2-0.2
		l-0.1,0c-0.4-0.2-0.8-0.8-1.1-1.4c-0.1-0.3-0.2-0.7-0.3-1c-0.1-0.3-0.1-0.7-0.1-1c0.1-0.2,0.2-0.3,0.3-0.5c0.1-0.2,0.2-0.4,0.3-0.6
		c0.2-0.4,0.3-0.8,0.5-1.2c0.3-0.8,0.6-1.6,0.8-2.4c0.3-0.8,0.5-1.6,0.6-2.5c0.1-0.6,0.2-1.2,0.2-1.8c0.1,0,0.2,0,0.4-0.1
		c0,0,0,0,0.1,0c0,0,0.1,0,0.1-0.1c0.1,0,0.2-0.1,0.3-0.1c0.2-0.1,0.4-0.1,0.7-0.1c0.5-0.1,0.9-0.1,1.4-0.1c0.5,0,1,0.1,1.5,0.1
		c0.5,0.1,1,0.1,1.5,0.2c-0.5-0.2-0.9-0.4-1.4-0.6c-0.5-0.2-0.9-0.3-1.4-0.5c-0.5-0.1-1-0.2-1.5-0.3c-0.3,0-0.5,0-0.8,0
		c-0.1,0-0.3,0-0.4,0c-0.1,0-0.2,0-0.2,0c-0.1,0-0.1,0-0.2,0c-0.3-0.5-0.6-1-0.8-1.6c-0.3-0.6-0.6-1.3-0.8-1.9
		c-0.2-0.7-0.4-1.3-0.5-2c-0.1-0.7-0.2-1.4-0.2-2.2c0,0-1.2-3-1.6-4.6c-0.4-1.5-0.6-3.1-0.6-4.7c0-1.6,0.2-3.1,0.6-4.6
		c0.5-1.5,1.2-2.8,2.3-3.9l0,0l0,0c0.8-1,1.8-2,2.8-3c1-1,2-1.9,3.1-2.8c0.5-0.5,1.1-0.9,1.6-1.3c0.3-0.2,0.5-0.4,0.8-0.6
		c0.3-0.2,0.5-0.4,0.8-0.6c0.5-0.3,1.1-0.6,1.7-0.6c0.6-0.1,1.3,0,2,0c2.8,0.2,5.6,0.5,8.4,0.4c0.7,0,1.4-0.1,2.1-0.2
		c0.7-0.2,1.4-0.4,2-0.6c1.3-0.5,2.5-1.3,3.8-1.9c0.6-0.3,1.3-0.5,1.9-0.6c0.6-0.1,1.3,0.1,2,0.1c1.4,0.2,2.8,0.5,4.2,0.7
		c2.8,0.5,5.6,0.9,8.4,1c2.8,0.1,5.7-0.1,8.5-0.5c2.8-0.5,5.5-1.1,8.2-2.1c2-0.5,4.2-0.6,6.2-0.5c1,0.1,2.1,0.3,3,0.6
		c0.5,0.2,0.9,0.4,1.3,0.7c0.4,0.2,0.9,0.6,1.3,0.9c1.9,1.2,3.8,2.3,5.9,3.1c0.5,0.2,1.1,0.4,1.6,0.5c0.4,0.1,0.9,0.3,1.3,0.6
		c0.4,0.3,0.8,0.6,1.2,0.9c0.4,0.4,0.7,0.8,0.9,1.1l0,0c0,0,0,0,0.1,0.1c0.7,0.7,1.4,1.2,2,1.7c0.3,0.3,0.6,0.6,0.8,0.9
		c0.2,0.3,0.3,0.7,0.4,1.1l0,0v0c0.4,1.1,0.6,3.6,0.6,3.7c1.1,1.4,2.8,2.9,3.9,4.3c0.5,0.8,1,1.5,1.5,2.3c0.2,0.4,0.5,0.8,0.7,1.2
		c0.2,0.3,0.3,0.7,0.4,1c-0.2,1-0.4,1.9-0.6,2.9c-0.2,1-0.3,2.1-0.3,3.1c0,1.1,0,2.1,0.3,3.2c0.2,0.5,0.4,1.1,0.7,1.6
		c0.3,0.4,0.6,0.8,1,1.1c0,0.6,0.1,1.1,0.3,1.7c0.2,0.7,0.4,1.3,0.7,1.9c0.3,0.6,0.8,1.1,1.4,1.5c0.5,0.4,1.1,0.6,1.7,0.7
		c-0.1,0.7-0.2,1.4-0.3,2.1c-0.1,0.8-0.1,1.6,0,2.4c0.1,0.8,0.3,1.6,0.6,2.3c0.3,0.7,0.6,1.4,1,2
		C108.7,117.8,108.4,118.3,108.1,118.8z M115.9,113.3C115.9,113.3,115.9,113.3,115.9,113.3L115.9,113.3
		C116,113.2,116,113.3,115.9,113.3z M126.9,102.5c-0.8,1.8-2,3.3-3.4,4.5c-1.4,1.3-3.1,2.3-4.8,3.2c-0.9,0.5-1.7,0.9-2.6,1.4
		l-0.6,0.4l0,0c0,0-0.1,0-0.1,0c0,0-0.1,0-0.1,0.1c-0.2,0.2-0.1,0.2-0.2,0.2c-0.1,0.1-0.1,0.1-0.1,0.2l-0.1,0.2l-0.1,0.3
		c-0.2,0.4-0.4,0.8-0.6,1.1c-0.1,0.2-0.3,0.3-0.4,0.4c-0.1,0.1-0.3,0.1-0.5,0.2c-0.1,0-0.3,0-0.4,0.1c-0.2,0-0.4,0.1-0.5,0.2l0,0
		c-0.2-0.2-0.5-0.4-0.7-0.7c-0.3-0.3-0.5-0.6-0.7-1c-0.4-0.7-0.7-1.5-0.8-2.3c-0.1,0.8-0.1,1.7,0.1,2.6c0.1,0.4,0.3,0.9,0.4,1.3
		c0.1,0.3,0.3,0.6,0.5,0.9c-0.3,0.2-0.7,0.5-1,0.7c-0.4,0.3-1.1,0.2-1.3-0.3c-0.2-0.4-0.4-0.7-0.6-1.1c-0.3-0.7-0.5-1.4-0.6-2.2
		c-0.1-0.8-0.1-1.5,0-2.3c0.1-0.7,0.2-1.3,0.3-2.1c0,0,4,0.8,6.1,0.8c1,0,2.1,0,3.1-0.2c0.3-0.1,0.5-0.1,0.8-0.2
		c0.3-0.1,0.5-0.2,0.8-0.3c0.5-0.2,0.9-0.4,1.4-0.7c1.8-1,3.4-2.3,4.9-3.7c0.7-0.7,1.4-1.4,2.1-2.2l0.4-0.5
		C127.2,101.8,127.1,102.2,126.9,102.5z"/>
</g>
</svg>
