<?xml version="1.0" encoding="utf-8"?>
<!-- Generator: Adobe Illustrator 23.0.0, SVG Export Plug-In . SVG Version: 6.00 Build 0)  -->
<svg version="1.1" id="Layer_1" xmlns="http://www.w3.org/2000/svg" xmlns:xlink="http://www.w3.org/1999/xlink" x="0px" y="0px"
	 viewBox="0 0 128 128" style="enable-background:new 0 0 128 128;" xml:space="preserve">
<style type="text/css">
	.st0{fill:#2D2D2D;}
</style>
<path class="st0" d="M127.5,77.1c-0.1-0.2-0.3-0.4-0.4-0.5l-0.7-1.2l-0.7-1.2c-0.1-0.2-0.3-0.4-0.4-0.6v0l0.5-0.5l0.8-0.8
	c0.4-0.4,0.5-1,0.2-1.5c-0.6-0.9-1.4-2.3-2-2.9c-0.9-1-1.9-1.9-3.1-2.4c-1.2-0.6-2.5-0.9-3.7-1.1c-0.3,0-0.6-0.1-0.9-0.1l-0.9-0.1
	c-0.6,0-1.3-0.1-1.9-0.1c-1.3,0-2.6,0.1-3.9,0.6c-1.3,0.5-2.4,1.3-3.3,2.3c-0.5,0.5-0.9,1-1.2,1.4c-0.2,0.2-0.4,0.5-0.6,0.7
	c-0.2,0.2-0.4,0.4-0.7,0.6c-0.9,0.7-1.9,1.3-2.9,1.9c-1.7,0.3-3.5,0.3-5.2,0.2c-1.9-0.1-3.8-0.4-5.8-0.7c-1.9-0.3-3.8-0.7-5.8-1
	c-1.9-0.3-3.9-0.7-5.8-1c-2-0.3-4-0.5-5.9-0.7c-2-0.2-3.9-0.6-5.9-0.8c-2-0.2-4-0.1-6,0c-1.5,0.1-5,0.1-5.4,0.1
	c-0.2,0-5.9-0.2-8.7-7.1c-0.7-1.5-1.5-3.6-2.4-6.1c-2.4-6.4-5.4-14.5-8.3-18c-3.4-4.2-12.5-10.2-22.4-2.9
	c-3.1,2.1-13.1,10.2-13.2,25c0,0.2-0.1,0.5-0.1,0.9c-0.4,3.1-1.4,9.5,1.3,15.6l0.6,1.4l0.9-1.4c1.6-2.4,4-6.1,3.2-16.3
	c0.7-5.1,3.7-14.3,9.4-18.9c1-0.8,4.5-3.3,8.7-2.7c2.8,0.4,5.3,2.2,7.4,5.2c3.4,4.9,5.8,10.7,7.1,17.3l0.1,0.6
	c1.2,6.3,2.3,11.8,5,15.1c0,2.5-0.2,5-0.2,5c0,0.3-1.6,3.3-1.9,5c-0.1,0.8-0.1,1.7,0.2,2.6c0.3,0.7,0.8,1.3,1.4,1.7c0,0,0,0,0,0
	l-0.8,4.1c-3.2,2.2-8.5,7-11.3,10.3c-1.2,1.5-3.6,1.6-5.6,1.8c-1.8,0.1-3.2,0.2-3.5,1.4c-0.3,1.4-0.4,2.4-0.4,3.5
	c0,1.3,0,2.8-0.5,5.5c-0.4,2.3-1.2,5.4-2.3,9.1c-0.2,0.6,0,1.3,0.4,1.7c0.3,0.3,0.6,0.4,1,0.4c0.3,0,0.6-0.1,0.8-0.2
	c3.5-2.3,5.1-5.5,5.4-7.7c0.2-1.6,1.9-4.2,3.1-4.8c5.7-1.1,17.7-8.7,20.4-10.7l0.1,0c1.8-1.6,3-3.3,3.7-5.2c0.3,0.4,0.7,0.8,1,1.2
	c-0.7,3.5-3.9,17.2-4.9,21.4c-0.3,1.2-0.3,2.5,0,3.6c0,0.1,0.1,0.3,0.1,0.4c0.4,1.7,2,2.8,3.7,2.8h16.2c0.4,0,0.9-0.2,1.1-0.5
	c0.4-0.4,0.4-1,0.2-1.5c-0.6-1.1-2.3-3.8-5.9-3.8c-1,0-2,0.1-2.9,0.1c-1,0-1.8,0-2.6-0.1c-0.2,0-0.5-0.1-0.6-0.4
	c-0.1-0.2-0.2-0.5-0.1-0.7c0.4-0.9,0.8-1.9,1.3-3.1c1-2.2,2.2-4.8,2.9-6.9c1.3-3.8,2.5-8.6,3.3-11.9l0-0.2l0-0.2
	c-0.7-4.3-0.8-5-1-5.6c0,0,0,0,0-0.1c0,0,0,0,0,0c0,0,0,0,0,0c0,0,0,0,0,0c-0.2-0.4-0.4-0.8-0.6-1.3c2.7,1.9,7.7,4.8,14.1,5.8l0,0.1
	c-0.1,1.6,1.7,15.5,3.6,19.7c-0.1,0.2-0.1,0.4-0.2,0.6c-0.4,1.4-0.9,2.9-1.7,3.9c0,0,0,0-0.1,0c0,0-0.1,0-0.1-0.1
	c-0.3-0.6-0.7-1.3-1.1-1.9c-0.2-0.4-0.6-0.6-1-0.7c-0.7-0.1-1.3,0.3-1.4,1c-0.6,2.2-1.1,5.1,0.1,6.6c0.3,0.4,1,1,2.1,1
	c1.5,0,2.7,0,3.5,0c0.7,0,1.4-0.3,1.9-0.8c0.9-0.8,2.5-2.3,3.9-4c1.2-1.6,1.9-3.6,2-5.7c0.1-2.3,0-5.2,0-7.9
	c1.8,2.2,4.8,5.9,6.2,7.6c1,1.2,2.3,2.6,3.6,3.9c1.3,1.5,2.7,3,3.2,3.6c0.2,0.3,0.3,0.5,0.5,0.8c0.8,1.2,2.1,2,3.6,2l11.2,0
	c0,0,0,0,0,0c0.9,0,1.8-0.6,1.9-1.6c0.1-0.4,0-0.7-0.1-1.1c-0.8-2-2.5-3.2-4.7-3.2c-3.1,0-5-0.2-5.7-0.2c-1.5-1.6-5.7-8.9-8.9-14.9
	c-0.4-0.7-0.5-1.6-0.3-2.4c0.2-0.8,0.4-1.7,0.6-2.7c0.2-1.1,0.5-2.3,0.7-3.3c0.3-1.2,0.8-2.3,1.5-3.3c1.9-2.5,5.1-6.1,11.3-8.6
	c2.1-0.8,4.3-1.6,5.1-1.8c0.3,0,1.2,0.5,1.6,0.7c0.7,0.4,1.1,0.6,1.5,0.6c0.8,0.1,1.6-0.7,2.3-2.3c0-0.1,0.1-0.2,0.1-0.3l0.1-0.1
	c0.5-0.2,0.8-0.6,1.1-1c0.2-0.4,0.4-0.8,0.5-1.3c0.1-0.4,0.2-0.9,0.2-1.3c0-0.1,0-0.2,0-0.4C128,78.4,127.9,77.7,127.5,77.1z
	 M43.5,85.3c0-0.6,0.2-1.3,0.5-1.9c0.3-0.6,0.6-1.3,1-1.9c0.1-0.1,0.5-0.7,0.9-1.3c0.5-0.7,1.2-1.6,1.5-1.9
	c-0.2,0.7-0.4,1.4-0.5,2.2c0,0.1,0,0.1,0,0.2c-0.1,1.4-0.1,2.8,0.2,4.1c0.2,1,0.4,2.1,0.8,3.1c-0.5,0.3-1,0.6-1.5,0.7
	c-0.3,0.1-0.6,0.1-0.8,0.1c-0.1,0-0.2-0.1-0.2-0.1c0,0-0.1,0-0.1-0.1L45,88.4c-0.5-0.4-0.8-0.9-1.1-1.4
	C43.6,86.5,43.5,85.9,43.5,85.3z M49.6,102.5c-3.5,2.5-14.8,9.5-19.8,10.4l-0.2,0c-1.8,0.8-3.9,4.1-4.2,6.1
	c-0.1,0.6-0.7,3.8-4.4,6.3c0.8-2.6,1.8-6.1,2.3-9c0.5-2.8,0.5-4.5,0.6-5.8c0-1.1,0-1.9,0.3-3.1c0.3-0.1,1.3-0.2,2-0.3
	c2.1-0.1,5-0.4,6.7-2.3c2.8-3.3,8.1-8.1,11.2-10.2l0.3-0.2l0.9-4.5c0.1,0,0.1,0,0.2,0c0.5,0,1-0.2,1.3-0.5c0.5-0.3,0.8-0.7,1.1-1.2
	c0,0.1,0.1,0.3,0.2,0.4c0.5,1.3,1,2.6,1.8,3.8c0,0,0,0,0,0.1c0.1,0.1,0.1,0.1,0.2,0.2c0.4,0.5,1.6,2.3,2.9,4
	C52.7,98.9,51.5,100.8,49.6,102.5z M102.9,93.8c-0.9,1.2-1.5,2.5-1.8,3.9c-0.2,1-0.5,2.2-0.7,3.3c-0.2,1-0.4,1.9-0.6,2.6
	c-0.3,1.2-0.1,2.4,0.5,3.5c2.2,4.1,7.6,13.8,9.4,15.5l0.2,0.2l0.2,0c0.1,0,2.1,0.3,6.2,0.3c1.5,0,2.6,0.7,3.2,2.2
	c0.1,0.1,0,0.3,0,0.3c0,0-0.1,0.1-0.3,0.1l-11.2,0c-0.9,0-1.7-0.5-2.2-1.2c-0.2-0.3-0.3-0.5-0.5-0.8c-0.5-0.7-1.8-2.1-3.3-3.8
	c-1.3-1.4-2.6-2.8-3.5-3.9c-2-2.4-7.1-8.7-7.6-9.3c0-0.1,0-0.1,0-0.2c0-1.6-0.1-3-0.1-4c1.1-0.9,2.1-1.7,3.1-2.6
	c1.1-1,2.1-2,3.1-3.1c1-1.1,2-2.2,2.8-3.4c0.9-1.2,1.6-2.4,2.1-3.8c-0.6,1.3-1.5,2.5-2.5,3.6c-0.9,1.1-2,2.1-3.1,3
	c-1.1,1-2.2,1.9-3.4,2.7c-1.2,0.9-2.3,1.7-3.5,2.5l0,0c0,0,0,0-0.1,0c-0.1,0.1-0.2,0.3-0.3,0.4c0,0.1-0.1,0.2-0.1,0.3
	c0,1,0,2.5,0.1,4.3c0.1,3.4,0.2,7.7,0.1,10.7c0,1.7-0.6,3.4-1.7,4.7c-1.2,1.6-2.8,3.1-3.6,3.8c-0.3,0.2-0.6,0.3-0.9,0.4
	c-0.5,0-1.6,0-3.4,0c-0.5,0-0.7-0.2-0.8-0.3c-0.5-0.7-0.5-2.3,0-4.4c0.2,0.4,0.4,0.8,0.7,1.2c0.2,0.4,0.6,0.7,1,0.9
	c0.7,0.2,1.5,0,2-0.6c1-1.3,1.6-3,2-4.5c0.1-0.3,0.2-0.6,0.3-0.8l0.1-0.3l-0.2-0.3c-1.7-3.3-3.5-17-3.5-19c0.1-0.2,0.2-0.3,0.3-0.5
	c0-0.1,0.1-0.1,0.1-0.2c0.6-1.2,1.4-2.5,1.4-2.5c0,0,0-0.1,0.1-0.1c0-0.1,0.1-0.1,0.1-0.2l0,0c0.4-1,1-2,1.5-3c0.6-1,1.3-1.9,2-2.8
	c0.5-0.7,1.1-1.3,1.7-1.9c0,0,0.1-0.1,0.1-0.1c0.2-0.2,0.4-0.4,0.5-0.5c0.7-0.7,1.4-1.3,2.1-1.8c0.2-0.1,0.4-0.3,0.6-0.4
	c-0.1,0-0.1,0.1-0.2,0.1c-1,0.6-1.9,1.1-2.8,1.8c-0.9,0.7-1.8,1.5-2.7,2.3c-0.9,0.8-1.6,1.7-2.4,2.7c-0.1,0.1-0.1,0.2-0.2,0.3
	c-0.7,0.9-1.3,1.7-1.8,2.7c0,0,0,0.1,0,0.1c0,0,0,0,0,0c0,0,0,0,0,0.1c0,0.1-0.6,1.1-1.2,2.2c-9.2-1.3-14.8-5.4-17.5-9.8
	c-0.7-1.1-1.2-2.3-1.8-3.4c-0.6-1.1-1.3-2.2-2-3.2c-0.2-0.5-0.4-1.1-0.3-1.7c0-0.6,0.3-1.2,0.6-1.7c-0.2,0.2-0.3,0.5-0.4,0.8
	c0,0,0,0.1,0,0.1c-0.1,0.3-0.2,0.5-0.2,0.8c-0.1,0.6,0,1.3,0.2,1.8l0,0l0,0c0.6,1.1,1.2,2.2,1.7,3.4c0.5,1.1,1,2.3,1.5,3.5
	c0.3,0.8,0.6,1.6,0.9,2.4c0.6,1.5,1.1,3.1,1.7,4.6c0,0,0,0,0,0c0.2,0.4,0.3,1.1,0.9,5.2c-1.1,4.6-2.2,8.6-3.2,11.6
	c-0.7,2-1.8,4.5-2.8,6.7c-0.5,1.1-1,2.1-1.3,3c-0.3,0.7-0.3,1.5,0,2.1c0.4,0.8,1.1,1.2,2,1.3c1.4,0.1,3.3,0.1,5.6,0
	c2.3,0,3.6,1.4,4.2,2.5H54.3c-1,0-1.9-0.7-2.1-1.6c0-0.1-0.1-0.2-0.1-0.4c-0.2-0.9-0.2-1.9,0-2.8c1.3-5.7,4.5-19.1,5-21.9l0.1-0.4
	l-0.3-0.3c-1.5-1.6-5.4-7-5.4-7c-0.1-0.1-0.1-0.1-0.2-0.2c-0.7-1-1.4-2.1-1.9-3.3c-0.6-1.2-1.1-2.4-1.4-3.7
	c-0.3-1.3-0.5-2.6-0.6-3.9c0,0,0-0.1,0-0.1c0-1,0.5-3.5,0.7-3.8c-0.2,0.4-0.5,1.2-0.5,1.2c-0.6,0.4-1.1,0.9-1.6,1.4
	c0.1-1,0.2-2.8,0.2-4.5v-0.3l-0.2-0.2c-1.2-1.4-2.1-3.3-2.8-5.7c-0.8-2.6-1.4-5.6-2-8.9l-0.1-0.6c-1.3-6.7-3.8-12.8-7.4-17.9
	c-2.4-3.5-5.3-5.4-8.6-5.9c-4.8-0.7-8.8,2.2-10,3.1c-6.1,4.9-9.4,14.7-10.1,20l0,0.1l0,0.1c0.7,8-0.8,11.7-2.1,14
	c-1.8-5.2-1-10.5-0.6-13.2c0-0.4,0.1-0.7,0.1-0.9l0-0.1c0.1-14,9.6-21.6,12.5-23.7c8.9-6.5,17.1-1.1,20.1,2.6
	c2.7,3.3,5.8,11.5,8.1,17.5c0.9,2.5,1.7,4.7,2.4,6.2c1.1,2.8,2.7,4.6,4.3,5.8c2.9,2.2,5.8,2.3,6,2.3c0.4,0,3.9-0.4,5.4-0.4
	c2,0,3.9,0.1,5.9,0c2-0.1,3.9-0.2,5.9,0c0.4,0,0.7,0.1,1.1,0.1c0,0,0,0,0,0c0.7,0.1,1.4,0.2,2.1,0.4c0.9,0.2,1.7,0.5,2.5,0.7
	c1.9,0.6,3.8,1.1,5.7,1.6c1.9,0.5,3.9,0.9,5.9,1.1c2,0.3,4,0.4,6,0.3c1.9-0.1,3.9-0.4,5.6-1.3c1.1-0.2,2.1-0.6,3.1-1.2
	c0.6-0.3,1.1-0.8,1.6-1.2l1.3-1.3c0.9-0.8,1.8-1.5,2.8-2c1-0.5,2.2-0.9,3.4-1.1c1.2-0.2,2.5-0.2,3.7,0c1.2,0.2,2.4,0.6,3.4,1.3
	c1,0.7,1.8,1.6,2.5,2.5c0.3,0.4,0.6,0.9,0.9,1.4c0,0-0.1,0-0.1,0c-0.6-0.2-1.3-0.3-2-0.3c-0.7,0-1.4,0.1-2,0.3
	c-0.5,0.2-1.4,0.8-1.8,1.1c-0.1,0.1-0.1,0.2-0.1,0.3c0.1,0.3,0.2,0.9,0.5,1.4c0.3,0.4,0.6,0.8,0.8,1.1c0.3,0.4,0.5,0.8,0.5,1.2
	c0.1,0.4,0,0.8-0.1,1.2c-0.1,0.2-0.2,0.3-0.4,0.4c-0.8-0.8-1.9-1.4-3-1.7c-1.3-0.4-2.8-0.3-4.1,0.3c-0.4,0.2-0.7,0.4-1,0.7l-0.1,0
	c-0.3-0.2-0.5-0.3-0.7-0.5c-0.2-0.2-0.3-0.4-0.3-0.6c-0.1-0.4,0-1,0.2-1.5c0.2-0.3,0.3-0.5,0.3-0.8c0.1-0.3,0.1-0.6,0.1-0.9
	c0-0.3,0-0.5,0-0.8c0-0.3,0.2-0.5,0.4-0.6c0.2-0.1,0.3-0.1,0.4-0.1c0.4-0.1,0.8-0.1,1.1,0.1c0.3,0.1,0.6,0.4,0.8,0.8
	c0.2,0.4,0.3,0.8,0.4,1.2l0,0.1l0.1,0l1.2,0.5c0,0,0.1,0,0.1,0c0,0,0-0.1,0-0.1l-1-0.6c0-0.4-0.1-0.9-0.2-1.3
	c-0.2-0.4-0.5-0.9-1-1.2c-0.5-0.3-1-0.3-1.5-0.3c-0.1,0-0.7,0.2-1.2,0.3c-0.3,0.1-0.5,0.3-0.5,0.6c0,0.4-0.1,0.9-0.2,1.3
	c-0.2,0.4-0.5,1.2-0.5,1.2c-0.2,0.4-0.3,0.8-0.3,1.2c0,0.4,0,0.9,0.2,1.3c0.2,0.4,0.5,0.8,0.9,1c0.3,0.2,0.5,0.3,0.8,0.3
	c-0.4,0.4-0.9,0.8-1.4,1c-0.5,0.3-1.1,0.5-1.7,0.6c-0.6,0.1-1.2,0-1.7-0.2l-1.2-0.5l0.7,1.2c0.2,0.4,0.4,1,0.7,1.6
	c0.3,0.6,0.5,1.1,0.9,1.7c0.3,0.5,0.7,1.1,1.2,1.6c0.2,0.2,0.5,0.5,0.9,0.7c0.2,0.1,0.3,0.2,0.5,0.3c0.2,0.1,0.4,0.1,0.5,0.2
	c0.9,0.2,1.9,0.4,2.8,0.4C107.1,88.2,104,92.4,102.9,93.8z M116.7,82.3c0.2,0.5,0.6,0.9,1,1.2c-0.4,0.1-0.8,0.3-1.3,0.5
	c-0.7,0-1.3,0-2-0.1c-1.1-0.2-2.2-0.5-3.3-0.8c-0.2,0-0.2-0.1-0.3-0.1c-0.1,0-0.2-0.1-0.3-0.1c-0.2-0.1-0.4-0.3-0.6-0.4
	c-0.4-0.3-0.8-0.7-1.1-1.2c-0.3-0.4-0.7-0.9-1-1.4c-0.2-0.3-0.3-0.5-0.5-0.8c1-0.1,1.9-0.5,2.8-0.8c0.6-0.3,1.2-0.5,1.7-0.8
	c0.6-0.3,1.1-0.5,1.6-0.7c0.5-0.2,1.1-0.3,1.6-0.3c0.5-0.1,1.1-0.1,1.7,0c0.9,0.1,1.9,0.3,2.8,0.7c-0.3,0.1-0.6,0.2-1,0.3
	c-0.2,0.1-0.5,0.1-0.7,0.3c-0.3,0.1-0.5,0.3-0.7,0.5c-0.4,0.4-0.6,0.9-0.8,1.4C116.1,80.5,116.3,81.5,116.7,82.3z M126.6,80.5
	c-0.1,0.7-0.2,1.4-0.7,1.8c-0.8-0.1-1.6-0.3-2.3-0.6c-0.8-0.3-1.6-0.7-2.3-1.1l0,0c0,0-0.1,0-0.1,0c0,0,0,0.1,0,0.1
	c0.7,0.6,1.4,1,2.2,1.4c0.4,0.2,0.7,0.3,1.1,0.4c0,0,0,0.1-0.1,0.1c-0.2,0.5-0.5,1-0.7,1.3c-0.2-0.1-0.5-0.2-0.7-0.4
	c-1-0.5-2-1.1-2.8-0.9c-0.4,0.1-1.2,0.4-2.1,0.7c-0.4-0.4-0.6-0.9-0.8-1.4c-0.2-0.8-0.2-1.6,0-2.3c0.1-0.3,0.3-0.6,0.5-0.9
	c0.1-0.1,0.2-0.2,0.4-0.3c0.1-0.1,0.3-0.1,0.5-0.2c0.4-0.1,0.8-0.3,1.3-0.5c0.2-0.1,0.5-0.3,0.7-0.5c0.2-0.2,0.3-0.5,0.4-0.8l0,0
	c0-0.5,0-1.1-0.2-1.5c-0.2-0.5-0.5-0.9-0.8-1.3c-0.3-0.4-0.6-0.7-0.8-1.1c-0.1-0.2-0.2-0.5-0.2-0.7c0-0.2,0.1-0.4,0.2-0.4
	c0.4-0.2,0.8-0.4,1.2-0.5c0.5-0.2,1.1-0.3,1.7-0.3c0.8-0.1,1.7,0,2.6,0.2c0.1,0.2,0.1,0.3,0.1,0.5l-0.5,0.5
	c-0.2,0.2-0.4,0.4-0.5,0.5l-0.2,0.2c0,0-0.1,0-0.1,0c-0.5,0-1,0.5-1.3,0.9c-0.2,0.2-0.2,0.4,0,0.6c0.3,0.4,0.9,0.9,1.3,0.9
	c0.1,0,0.2,0,0.3,0c0,0,0,0,0,0c0,0.1,0.1,0.2,0.2,0.3l0.8,1.2c0.3,0.4,0.5,0.8,0.8,1.2c0.1,0.1,0.2,0.3,0.4,0.4
	c0.3,0.4,0.5,0.8,0.5,1.3v0.1C126.7,79.8,126.7,80.2,126.6,80.5z"/>
</svg>
