<?xml version="1.0" encoding="utf-8"?>
<!-- Generator: Adobe Illustrator 24.1.2, SVG Export Plug-In . SVG Version: 6.00 Build 0)  -->
<svg version="1.1" id="Layer_1" xmlns="http://www.w3.org/2000/svg" xmlns:xlink="http://www.w3.org/1999/xlink" x="0px" y="0px"
	 viewBox="0 0 128 128" style="enable-background:new 0 0 128 128;" xml:space="preserve">
<style type="text/css">
	.st0{fill:#2D2D2D;}
</style>
<g>
	<path class="st0" d="M115.6,47.4c0.8,0,1.5-0.7,1.5-1.5c0-0.8-0.7-1.5-1.5-1.5s-1.5,0.7-1.5,1.5C114.1,46.7,114.7,47.4,115.6,47.4z
		"/>
	<path class="st0" d="M127.5,104.4c-2-1.9-5.4-3-10.1-3.1c-0.5,0-1-0.3-1.1-0.8c-2.1-5.7-8.1-16-11.1-20.4c-0.6-0.9-0.8-1.9-0.7-3
		c0.6-4.1,0-9.6-0.3-12.2c0-0.2,0-0.3-0.1-0.5c1.9,0.3,3.9,0.1,5.7-0.6c1.1-0.4,2-1,2.9-1.8c0.9-0.7,1.6-1.6,2.2-2.6
		c0.2-0.4,0.4-0.7,0.6-1.1c2.8-0.1,5.3-1.3,6.9-2.4c1.2-0.7,1.6-2.2,1.1-3.4c-0.5-1.2-1.4-2.9-2.8-4.2c-1.4-1.6-0.3-4.1,0.2-4.8
		l0.1-0.1c0.3,0.1,0.6,0,0.9-0.2c0.4-0.4,0.4-1,0-1.3c-0.1-0.1-0.1-0.1-0.2-0.2c-0.1,0-0.1,0-0.1-0.1c-0.1,0-0.1,0-0.2-0.1
		c-0.1,0-0.1,0-0.2,0c-0.1-3.9-2.1-6.9-5.8-8.3c-9.2-3.2-15.4,2.4-17.8,4.5c-0.3,0.2-0.6,0.5-0.6,0.6c-1,0.4-12,2.4-26.7,0.7
		c-1-0.1-2.6-0.4-4.7-0.8c-8.6-1.6-23.1-4.2-32.4-0.6c-2.8,1.1-5.3,2.6-7.3,4.4c-0.5,0.4-5.7,4-5.7,4c-0.7,0.5-1,0.7-1.5,0.8
		c-5.8,2-10.8,6.7-14.1,13.2C2.1,66-5.6,93.7,7,112.1c7.3,10.6,19.8,15.9,37.3,15.9c1.3,0,2.7,0,4.1-0.1c0.2,0,16.2,0.2,29.6-1.4
		c14.2-1.7,23.9-3.6,24.7-3.8c1-0.1,1.8-0.5,2.4-1.2c0.6-0.7,0.9-1.7,0.9-2.7c-0.2-1.9-1.9-3.4-3.8-3.3l-0.2,0
		c-0.1,0-6.8,1.7-24.8,3.8c-11.5,1.4-21.2,1.3-25.3,1.2l-0.5,0c-1.5,0-3.1,0-5.1,0c-14.7,0.2-25.2-3.8-31.2-12
		c-11-14.8-4.1-38.5-2.6-43.1c1.5-4.8,4.4-7.7,7.9-7.9c0.5,6.8,2.7,15.6,9.5,23.6c0.7,0.8,0.6,1.9-0.1,2.7
		c-3.8,4.2-8.9,11.5-11.1,16.7c-0.8,1.8-0.4,3.9,0.9,5.4c1.5,1.7,3.6,3.5,5.1,4.7c1,0.8,2.2,1.2,3.4,1.2h15.1c0.8,0,1.5-0.5,1.7-1.2
		c0.3-0.7,0.1-1.5-0.4-2c-1.9-1.9-5.7-2.8-11.1-2.8c-1.6,0-3.4-0.3-4.7-0.6c4.5-4.7,14.7-16,16-22l0-0.1c0-0.2,0.1-2.1,0.2-4.6
		c2.5,2,5.2,2.8,7.6,3.6c0.3,0.1,0.6,0.2,0.9,0.3c0.2,0.1,0.4,0.4,0.3,0.6c-2,7.8-2.2,17.4-2.1,22.4c0,2,1.7,3.6,3.7,3.6h2
		c4.9,0,11.9,0,16.7,0c0.8,0,1.5-0.5,1.7-1.2c0.3-0.7,0.1-1.5-0.5-2.1c-4-3.5-10-3.3-13.3-3.2c-0.1,0-0.2,0-0.2-0.1
		c0,0-0.1-0.1,0-0.2c4.3-8.4,3.8-18.4,3.2-23.6c-0.3-2.3-1.1-4.4-2.4-6.3c-1.7-2.5-3.4-4.6-4.6-6c0.5,0.2,1.1,0.3,1.6,0.5
		c2,0.7,3.6,1.5,5.1,2.2c3.5,1.7,6.6,3.2,13.4,3.3c-0.6,1.6-1.1,3-1.4,4.2c-0.1,0.4-0.2,0.8-0.4,1.2c-0.3,1.1-0.5,2.1-0.6,3.1
		c-0.3,7.8,1.5,22.4,2.3,28.3c0.2,1.8,1.8,3.2,3.6,3.2h15.6c0.8,0,1.4-0.5,1.7-1.2c0.3-0.7,0-1.5-0.6-2c-3.1-2.4-7.7-3.3-11-3.1
		c-0.2,0-0.3-0.1-0.4-0.2c-0.1-0.1-0.1-0.2-0.1-0.4c1.3-5.2,1.8-13.4,2.2-18.9c0.1-1.2,0.1-2.2,0.2-3c0.1-0.8,0.4-1.5,1-1.9
		c0.3-0.2,0.5-0.5,0.8-0.7c2.6,9.4,16.4,21.9,20.8,25.6c0.7,0.6,1.6,1,2.6,1h12c0.7,0,1.3-0.4,1.6-1.1
		C128.1,105.6,128,104.8,127.5,104.4z M114.8,35.1c1.4,0.5,4.5,2.2,4.5,6.5c-0.2,0-0.4,0-0.7,0.1c-0.6,0.1-1.3,0.2-1.9,0.4
		c0,0,0,0,0,0c-3.1-7.1-13-5-16.2-4.1C103.3,35.7,108.2,32.8,114.8,35.1z M20.2,54.4c0,0.4,0,0.8,0,1.3c-4.3,0.3-7.8,3.6-9.6,9.3
		c-1.5,4.7-8.6,29.2,2.9,44.8c6.4,8.7,17.4,13,32.8,12.8c2,0,3.6,0,5.1,0l0.5,0c4.1,0.1,13.8,0.2,25.5-1.2c17.2-2.1,24.1-3.6,25-3.8
		c0.9,0,1.7,0.7,1.7,1.6c0,0.5-0.1,0.9-0.4,1.3c-0.3,0.3-0.7,0.6-1.2,0.6l-0.1,0c-0.1,0-9.9,2-24.6,3.8c-13.3,1.6-29.2,1.4-29.4,1.4
		c-19,0.8-32.4-4.2-39.8-15C-3.6,93.2,4.3,65.7,6.4,61c3-6.1,7.6-10.4,13-12.2c0.7-0.2,1.3-0.6,2-1.1l0.6-0.5
		C20.8,49.4,20.2,51.8,20.2,54.4z M61.1,73.3c1.1,1.6,1.8,3.5,2,5.5c0.6,5,1.1,14.6-3,22.5c-0.4,0.7-0.3,1.5,0.1,2.1
		c0.4,0.6,1.1,1,1.9,1c3-0.1,8.5-0.3,11.9,2.7c-4.8,0-11.7,0-16.6,0h-2c-0.5,0-0.9-0.2-1.2-0.5c-0.3-0.3-0.5-0.7-0.5-1.2
		c-0.1-4.9,0-14.3,2-21.9c0.3-1.3-0.4-2.5-1.6-2.9c-0.3-0.1-0.6-0.2-0.9-0.3c-2.6-0.8-5.6-1.7-8.1-4.3c0-4-0.1-8.8-0.8-11.7
		c1.4-0.1,5.1-0.3,10.6,1.1c0,0.2,0.1,0.3,0.2,0.4C55,65.7,58.1,69,61.1,73.3z M88.9,79.9c-1,0.8-1.6,2-1.7,3.2
		c-0.1,0.8-0.1,1.9-0.2,3.1c-0.3,5.4-0.9,13.6-2.1,18.6c-0.2,0.7,0,1.5,0.4,2c0.5,0.6,1.2,0.9,1.9,0.9c2.8-0.1,6.8,0.7,9.5,2.6H81.6
		c-0.9,0-1.6-0.6-1.7-1.5c-0.8-5.8-2.6-20.3-2.3-28c0-0.8,0.2-1.7,0.5-2.6c0.1-0.4,0.2-0.8,0.4-1.2c0.5-1.6,1-3.3,1.9-5.2
		c0-0.1,0.1-0.2,0.1-0.2c0.3-1,0.8-2,1.3-3c0.6-1.1,1.2-2.1,1.9-3c0.7-1,1.5-1.9,2.3-2.8c0.8-0.9,1.8-1.7,2.7-2.4
		c-1,0.6-2.1,1.3-3.1,2.1c-1,0.8-1.9,1.6-2.7,2.5c-0.9,0.9-1.6,1.9-2.4,2.9c-0.6,0.8-1.1,1.6-1.6,2.5c-6.9,0-9.9-1.5-13.4-3.1
		c-1.6-0.8-3.2-1.5-5.3-2.3c-9.1-3.2-14.8-2.9-16.5-2.7c-0.2-0.8-0.4-1.6-0.7-2.4c-0.4-1.1-0.9-2.1-1.5-3c-0.6-0.9-1.3-1.8-2-2.6
		c-0.7-0.8-1.6-1.5-2.5-2.2c0.8,0.8,1.5,1.6,2.1,2.5c0.6,0.9,1.1,1.8,1.6,2.8c0.4,1,0.8,2,1,3c0.1,0.5,0.2,1,0.3,1.5
		c0,0.4,0.1,0.7,0.1,1.1c-0.1,0.2-0.1,0.5,0,0.7c1.4,3.4,1.1,14.9,0.8,19.2C41.7,87.4,34,96.7,27.1,104c-0.5,0.5-0.6,1.2-0.4,1.8
		c0.2,0.6,0.7,1.1,1.4,1.3c1.4,0.3,3.4,0.7,5.2,0.7c6.3,0,8.8,1.3,9.7,2.2H28.1c-0.8,0-1.6-0.3-2.2-0.8c-1.4-1.2-3.4-2.9-4.9-4.5
		c-0.8-0.9-1-2.2-0.5-3.4c2.1-4.9,7.2-12.2,10.8-16.1c1.3-1.5,1.4-3.7,0.1-5.2c-7.6-8.9-9.2-18.8-9.2-25.5c0-2.8,0.8-5.4,2.4-7.8
		c0,0,0-0.1,0.1-0.1c2-3,5.2-5.5,9.3-7.1c8.8-3.4,23.5-0.7,31.4,0.7c2.1,0.4,3.7,0.7,4.8,0.8c11.6,1.3,21.3,0.5,25.6-0.3
		c0,0.1,0,0.1,0,0.2l0,0.2l0,0.2c0,0.2,0,0.4,0,0.6c0.1,0.8,0.3,1.6,0.7,2.2c0.3,0.7,0.8,1.3,1.3,1.8c0.3,0.2,0.6,0.5,0.9,0.7
		c0.3,0.2,0.6,0.4,1.1,0.5c0,0,0.1,0,0.1,0c0,0,0-0.1,0-0.1l0,0c0-0.1-0.2-0.2-0.3-0.3c-0.1-0.1-0.2-0.2-0.3-0.4
		c-0.2-0.3-0.4-0.5-0.5-0.8c-0.3-0.6-0.6-1.1-0.8-1.7c-0.2-0.6-0.3-1.2-0.3-1.9c0-0.3,0-0.6,0.1-0.9c0.1-0.3,0.2-0.5,0.5-0.7
		c0.2-0.2,0.5-0.3,0.8-0.3c0.1,0,0.3,0,0.4,0.1l0.5,0.2c0.6,0.2,1.2,0.5,1.8,0.7c1.1,0.6,2.2,1.4,2.7,2.6c0,0,0,0.1,0.1,0.1
		c0.1,0,0.1,0,0.1-0.1l0,0c0.1-0.7-0.2-1.5-0.6-2.2c-0.4-0.7-1-1.2-1.6-1.6c0,0,0,0,0,0c3.5-0.8,10.7-1.8,13,3.3c0,0,0,0,0,0
		c-0.1,0-0.1,0.1-0.2,0.1c-0.4,0.1-0.8,0.2-1.2,0.2c-0.8,0-1.7-0.2-2.5-0.6c0.7,0.5,1.5,0.9,2.4,1.1c0.5,0.1,0.9,0.1,1.4,0
		c0.2,0,0.5-0.1,0.7-0.2c0,0,0.1,0,0.2,0c0,0,0,0,0,0c0.1,0,0.3,0,0.4-0.1c0,0,0.1,0,0.1-0.1c0.8-0.2,1.6-0.2,2.3-0.1
		c0.1,0,0.2,0,0.3,0c-0.8,1.6-1.6,4.5,0.3,6.6l0.1,0.1c1.2,1,1.9,2.5,2.4,3.6c0.2,0.4,0,0.9-0.3,1.1c-1,0.7-3,1.7-5.3,2
		c0,0,0,0,0-0.1c0.3-1.1,0.3-2.2,0.2-3.3c-0.1-1.1-0.4-2.2-0.9-3.2c-0.5-1-1.1-1.9-1.8-2.7c-1.5-1.5-3.4-2.5-5.4-2.7l0,0
		c0,0-0.1,0-0.1,0.1c0,0.1,0,0.1,0.1,0.1c1.8,0.5,3.5,1.7,4.7,3.2c1.2,1.5,1.9,3.4,2,5.3c0.1,1.9-0.4,3.8-1.5,5.4
		c-0.5,0.8-1.2,1.5-1.9,2.1c-0.7,0.6-1.6,1.1-2.4,1.4c-1.7,0.7-3.7,0.9-5.6,0.4c-0.9-0.2-1.8-0.6-2.6-1.1c-0.8-0.5-1.6-1.1-2.2-1.8
		c-0.6-0.7-1.1-1.5-1.5-2.4c-0.4-0.9-0.6-1.8-0.7-2.7c-0.2-1.9,0.2-3.8,1.1-5.5c0,0,0-0.1,0-0.1c0,0-0.1,0-0.1,0l0,0
		c-1.1,1.4-1.8,3.3-1.9,5.2c0,0,0,0.1,0,0.1c0,0.1,0,0.3,0,0.4c0,1.1,0.2,2.1,0.5,3.2c0.3,1,0.9,2,1.6,2.9c0.7,0.9,1.5,1.6,2.4,2.3
		c0.2,0.1,0.5,0.3,0.7,0.4C100.2,64.6,95.9,74.3,88.9,79.9z M114.3,105.4c-0.5,0-1-0.2-1.4-0.5c-3.1-2.7-18.9-16.6-20.4-25.7
		c5.2-5.3,8.6-12.1,9.7-14.5c0,0.1,0,0.3,0.1,0.5c0.3,2.5,0.9,7.8,0.3,11.7c-0.2,1.5,0.1,3.1,1,4.3c3,4.3,8.9,14.4,10.9,19.9
		c0.4,1.2,1.6,2,2.8,2c3.8,0.1,6.6,0.9,8.4,2.2H114.3z"/>
</g>
</svg>
