<?xml version="1.0" encoding="utf-8"?>
<!-- Generator: Adobe Illustrator 24.1.2, SVG Export Plug-In . SVG Version: 6.00 Build 0)  -->
<svg version="1.1" id="Layer_1" xmlns="http://www.w3.org/2000/svg" xmlns:xlink="http://www.w3.org/1999/xlink" x="0px" y="0px"
	 viewBox="0 0 128 128" style="enable-background:new 0 0 128 128;" xml:space="preserve">
<style type="text/css">
	.st0{fill:#2D2D2D;}
</style>
<g>
	<ellipse class="st0" cx="53.1" cy="18" rx="1.3" ry="1.3"/>
	<ellipse class="st0" cx="63.7" cy="18" rx="1.3" ry="1.3"/>
	<path class="st0" d="M57.1,30.4c0.4-0.3,0.1-0.7-0.3-1.1c-0.3-0.4-0.7-1.9-1.1-1.5c-0.4,0.3-0.3,2.1,0,2.5
		C56.1,30.7,56.7,30.8,57.1,30.4z"/>
	<path class="st0" d="M61.3,30.3c0.3-0.4,0.4-2.2,0-2.5c-0.4-0.3-0.7,1.2-1.1,1.5c-0.3,0.4-0.7,0.8-0.3,1.1
		C60.4,30.8,61,30.7,61.3,30.3z"/>
	<path class="st0" d="M119.6,99.7c-0.3-1.5-0.7-3.1-1-4.5c-0.2-0.8-0.7-1.5-1.4-1.9c-0.7-0.4-1.6-0.5-2.4-0.2
		c-1.5,0.5-4.7,0.8-7.4,1.1c1-2.8,0-6.2-0.1-6.6c4.8-11.2,2.2-22.1,0-29.8c-0.7-2.5-1.6-5-2.6-7.2C96.3,31.2,82.7,23.8,78.1,22
		c0-0.5,0.1-0.9,0.1-1.4c0-1.2-0.3-2.4-0.6-3.5c-0.3-1.1-0.8-2.2-1.4-3.2c-0.3-0.5-0.6-1-0.9-1.4c-0.2-0.2-0.3-0.5-0.5-0.7
		c-0.1-0.1-0.2-0.2-0.3-0.3c0,0,0,0-0.1-0.1c0.1-0.1,0.2-0.1,0.2-0.2c0.9-0.8,1.6-1.9,1.9-3.1c0.1-0.6,0.2-1.2,0.1-1.8l0-0.5
		c0-0.1,0-0.3-0.1-0.5c-0.2-0.3-0.7-0.4-1-0.1c-0.5,0.3-1,0.5-1.6,0.3c-0.6-0.1-1.1-0.4-1.6-0.7c-2-1.3-4.1-2.5-6.4-3.4
		C63.5,0.5,61.1,0,58.6,0c-2.4,0-4.9,0.5-7.1,1.4c-2.3,0.9-4.4,2.1-6.4,3.4c-0.5,0.3-1,0.6-1.6,0.7c-0.6,0.1-1.1,0.1-1.6-0.2
		C41.8,5.2,41.6,5,41.4,5c-0.2,0-0.4,0-0.5,0.2c-0.1,0.1-0.2,0.3-0.3,0.5l0,0.5c-0.1,0.6,0,1.2,0.1,1.8c0.2,1.2,0.9,2.3,1.8,3.2
		c0.1,0.1,0.2,0.2,0.3,0.3c-0.1,0.1-0.2,0.2-0.3,0.3c-0.2,0.2-0.3,0.5-0.5,0.7c-0.3,0.5-0.6,1-0.9,1.5c-0.6,1-1,2.1-1.4,3.2
		c-0.4,1.1-0.6,2.3-0.6,3.5c0,1.2,0.1,2.4,0.4,3.5c0.5,2,1.5,3.9,2.7,5.5c-0.3,0.6-0.6,1.4-0.6,1.6c-1.3,3.6-3.9,15.6-2.3,30.1
		c-1.2,1.9-7.5,12.8-4.9,25.6c-1.2,0.5-2.6,1.4-2.8,1.5c-4.2,2.1-6.3,5.9-7.4,8.5c-3.7,0.1-6.7-1-7.3-1.3c-1.2-0.6-2-1.6-2.5-2.3
		c-0.3-0.5-0.8-0.8-1.4-0.8c-0.6,0-1.1,0.2-1.5,0.6l-2,2.2c-1,1.1-1.5,2.7-1.3,4.2c0.2,1.5,1.1,2.9,2.5,3.7l3.4,2
		c1.2,0.7,5.3,1.3,8.4,1.5c-0.2,4.5-0.1,9.7,1.2,12.8c0.9,2.1,2.9,5.1,5.8,6.8c0.8,0.4,3,1.6,5.4,1.6c0.6,0,1.1-0.1,1.7-0.2
		c1.3-0.4,2.4-1.2,3-2.4c0.6-1,0.7-2.2,0.3-3.2c-0.4-0.9-1.1-1.6-2.2-1.9c-1-0.3-2.2-1-3-3.4c-0.8-2.4-0.7-6.1-0.3-9.5
		c0.9,0.1,1.9,0.2,3,0.4c10.7,1.7,14.9,3,15.5,3.2c0.6,0.7,1.3,1.2,2.3,1.4c0.9,0.2,1.6,0.3,2.3,0.3c1,0,1.8-0.2,2.3-0.7
		c0.4-0.3,0.6-0.7,0.8-1c3,0.2,6.1,0.3,9.4,0.3c4.1,0,8.3-0.1,12.4-0.3L85,111c2.2-0.1,4.3-0.4,6.1-1c7.8-2.6,19.8-4.7,24.2-4.8
		c1.4,0,2.6-0.7,3.4-1.8C119.6,102.3,119.9,101,119.6,99.7z M23.5,99.2c-0.2,1-0.5,2.9-0.8,5.4c-3.2-0.1-6.8-0.9-7.4-1.2l-3.4-2
		c-0.8-0.4-1.3-1.2-1.4-2.1c-0.1-0.9,0.1-1.7,0.7-2.4l1.6-1.8c0.6,0.9,1.6,1.9,3.1,2.6C16.9,98.1,19.8,99.1,23.5,99.2
		C23.5,99.2,23.5,99.2,23.5,99.2z M75,14.5c0.4,1,0.8,2,1,3c0.3,1,0.4,2.1,0.4,3.1c-0.1,1-0.2,2.1-0.5,3.1c-0.5,2-1.7,3.8-3.1,5.3
		c-0.7,0.8-1.5,1.5-2.3,2.1c-0.4,0.3-0.8,0.7-1.3,1c-0.2,0.2-0.4,0.3-0.7,0.4c0,0,0,0,0,0c-0.1-0.4-0.3-0.8-0.6-1.1
		c-0.4-0.5-0.8-0.9-1.4-1.2c-0.3-0.2-0.7-0.3-1-0.3c-0.6-2.2-1.6-4.3-2.4-5.5c0.7-0.3,1.4-0.7,2-1.1c0.8-0.6,1.6-1.3,2.2-2.1
		c0.6-0.8,1.2-1.6,1.6-2.5c0.4-0.8,0.7-1.6,1-2.5l2.3,1.5c0.1,0.1,0.3,0.1,0.5,0.1c0.3,0,0.6-0.1,0.7-0.3c0.3-0.3,0.3-0.8,0-1.2
		c-0.1-0.2-0.4-0.7-0.7-1.2c-0.3-0.6-0.7-1.3-1.2-2.1c0.7-0.2,1.4-0.6,2.1-1c0,0,0,0.1,0.1,0.1c0.1,0.1,0.1,0.2,0.2,0.3
		c0.1,0.2,0.3,0.5,0.4,0.7C74.6,13.5,74.8,14,75,14.5z M51.1,32.9c0.3,2.5,2.2,7,7.5,7c5.2,0,7-4.4,7.3-7l0-0.3c0,0,0,0,0,0s0,0,0,0
		v-0.1c0-0.8-0.1-1.6-0.3-2.4c0.8,0.3,1.4,1,1.8,1.7c0.2,0.5,0.4,1,0.5,1.5c0,0.3,0,0.5,0,0.8l0,0.4c0,0.1-0.1,0.2-0.1,0.3
		c-0.2,0.4-0.4,1-0.7,1.5c-0.3,0.5-0.6,1-0.8,1.5l-1.7,3l-6,10.3l-6-10.3l-1.7-3c-0.3-0.5-0.6-1-0.8-1.5c-0.3-0.5-0.5-1-0.7-1.5
		c0-0.1-0.1-0.2-0.1-0.3l0-0.4c0-0.3,0-0.5,0-0.8c0.1-0.5,0.2-1,0.5-1.5c0.4-0.7,1-1.4,1.8-1.7c-0.2,0.8-0.3,1.6-0.3,2.4L51.1,32.9z
		 M60.5,19.7c0-1.1,1.2-3.3,2-4.5c1.4-0.3,2.5-0.6,3.3-0.9c0.6-0.2,1.2-0.1,1.7,0.2l2.4,1.5c-0.9,1.7-1.9,3.2-3.2,4.5
		c-0.7,0.7-1.4,1.2-2.1,1.7c-0.6,0.4-1.3,0.7-2,1c-0.1-0.2-0.3-0.4-0.5-0.6C61,21.4,60.5,20.3,60.5,19.7z M61.2,23.9
		c-0.3,0.3-0.7,0.5-1.1,0.7c-0.5,0.3-1.1,0.4-1.5,0.4c-0.5,0-1-0.1-1.5-0.4c-0.4-0.2-0.8-0.4-1.1-0.7c0.1-0.2,0.2-0.3,0.4-0.5
		c0.9-1,1.9-2.5,1.9-3.9c0-1.2-0.9-3-1.5-4.2c0.6,0.1,1.2,0.1,1.8,0.1c0.7,0,1.4-0.1,2.1-0.1c-0.7,1.2-1.5,2.9-1.5,4.2
		c0,1.3,1,2.8,1.9,3.9C61,23.7,61.1,23.8,61.2,23.9z M68.2,13.2c-0.6-0.4-1.2-0.5-1.9-0.5c-0.4,0-0.7,0.1-1.1,0.2
		c-1.4,0.5-4.1,1.3-6.8,1.3c-2.5,0-5.2-0.8-6.6-1.3c-1-0.3-2-0.2-2.9,0.3l-3.1,1.9c1.8-3.2,5.4-9.5,12.6-9.5c7.2,0,11,6.4,12.8,9.6
		L68.2,13.2z M49.7,14.4c0.5-0.3,1.1-0.4,1.6-0.2c0.8,0.3,2,0.6,3.4,0.9c0.8,1.2,2,3.4,2,4.5c0,0.7-0.6,1.8-1.5,2.9
		c-0.2,0.2-0.4,0.5-0.5,0.7c-0.7-0.2-1.4-0.5-2.1-1c-0.8-0.5-1.5-1-2.2-1.7c-0.7-0.7-1.3-1.4-1.9-2.2c-0.5-0.7-0.9-1.5-1.3-2.3
		L49.7,14.4z M55.1,25.2c0.4,0.3,0.8,0.6,1.3,0.8c0.7,0.3,1.4,0.6,2.2,0.6c0.8,0,1.5-0.3,2.2-0.6c0.4-0.2,0.8-0.5,1.2-0.8
		c0.9,1.5,2.4,4.3,2.5,6.8c-2.2,0.9-4.3,1.4-6.1,1.4c-2,0-4.1-0.7-5.7-1.4C52.8,29.4,54.2,26.7,55.1,25.2z M64.3,33.6
		c-0.4,1.7-1.7,4.8-5.7,4.8c-1.7,0-3.1-0.6-4.1-1.6c-1-1-1.5-2.3-1.7-3.2c1.6,0.6,3.7,1.2,5.6,1.2C60.2,34.8,62.2,34.4,64.3,33.6z
		 M42,5.8C42,5.8,42,5.8,42,5.8C42,5.8,42,5.9,42,5.8C42,5.9,42,5.9,42,5.8L42,5.8z M41.8,7.7c0-0.3,0-0.5,0-0.8
		C42,7,42.2,7.1,42.4,7.1c0.5,0.1,1,0.1,1.4,0c0.9-0.2,1.5-0.5,2.1-0.8c1.1-0.6,2.1-1.1,3.2-1.6c1-0.5,2.1-0.9,3.1-1.3
		c2.1-0.7,4.2-1.2,6.4-1.1c1.1,0,2.1,0,3.2,0.3C62.9,2.7,64,3,65,3.4c1.1,0.4,2.1,0.8,3.1,1.3c1,0.5,2,1.1,3.2,1.7
		c0.6,0.3,1.3,0.6,2.2,0.8c0.4,0.1,1,0.1,1.5-0.1C75.1,7,75.2,7,75.3,7c0,0.3,0,0.6,0,0.9c-0.1,1-0.5,2-1.2,2.8
		c-0.7,0.8-1.6,1.4-2.6,2c-2.2-3.6-6.2-8.6-13-8.6c-6.9,0-10.7,4.9-12.9,8.6c-1-0.6-1.9-1.2-2.6-2C42.2,9.7,41.9,8.7,41.8,7.7z
		 M41.3,23.6c-0.3-1-0.4-2-0.5-3.1c0-1,0.1-2,0.4-3.1c0.2-1,0.6-2,1-3c0.2-0.5,0.5-1,0.7-1.4c0.1-0.2,0.3-0.5,0.4-0.7
		c0.1-0.1,0.2-0.2,0.2-0.4c0.6,0.3,1.1,0.6,1.8,0.8c-0.4,0.6-0.7,1.2-1,1.7c-0.3,0.6-0.7,1.2-0.9,1.4c-0.3,0.3-0.3,0.9-0.1,1.2
		c0.3,0.4,0.8,0.5,1.3,0.2l2.1-1.3c0.2,0.9,0.6,1.7,1,2.5c0.5,0.9,1,1.8,1.7,2.6c0.6,0.8,1.4,1.5,2.3,2.1c0.6,0.5,1.3,0.8,2,1.1
		c-0.8,1.3-1.8,3.3-2.3,5.4c-0.3,0.1-0.7,0.2-1,0.3c-0.5,0.3-1,0.7-1.4,1.2c-0.2,0.3-0.4,0.6-0.5,1c-0.2-0.1-0.4-0.2-0.6-0.4
		c-0.4-0.3-0.8-0.6-1.3-1c-0.8-0.7-1.6-1.4-2.3-2.1C43,27.4,41.9,25.6,41.3,23.6z M39.8,65.1c0.2,1.3,0.4,2.7,0.7,4
		c0.1,1,0.6,3.8,1.5,8.5c1,5.1,2.1,11.5,2.5,14.7c0.1,0.7-0.4,1.4-1.2,1.6c-0.9,0.2-2.2,0.6-3.4,1.1C32.8,82.7,37.2,70.4,39.8,65.1z
		 M32.8,117.6c0.8,2.6,2.3,4.1,4.5,4.8c0.4,0.1,0.6,0.3,0.8,0.6c0.1,0.4,0.1,0.8-0.1,1.3c-0.4,0.7-0.9,1.1-1.7,1.3
		c-1.7,0.5-4-0.4-5.4-1.2c-2.3-1.3-4.1-3.8-4.9-5.7c-2-4.8-1-16-0.2-19c0.5-2,2.2-6.9,7-9.3c0.4-0.3,1.4-0.8,2.3-1.2
		c0.6,2.3,1.6,4.6,2.9,6.9c-0.5,0.3-1,0.6-1.5,1c-0.1,0-0.2,0.1-0.3,0.1c-0.3,0.2-0.6,0.5-0.8,0.9c-0.1,0.1-0.1,0.1-0.2,0.2
		c-0.1,0.2-0.2,0.4-0.3,0.6C32.4,103.2,31.2,112.8,32.8,117.6z M38,105.6c-1-0.2-2-0.3-2.9-0.4c0.3-1.5,0.7-2.8,1.1-3.9
		c0.2,0,0.3,0.1,0.5,0.1c0.2,0,0.4,0,0.5-0.1c3.7-1,9.1-1.5,12.8-1.7c0,0,0,0.1,0,0.1c0,0.6,0.2,1.3,0.7,1.7l0.3,0.3
		c0,1.2,0,4.1,0.8,6.5C49.3,107.7,45.1,106.7,38,105.6z M58.8,110.1c0,0.1,0,0.1-0.1,0.2c-0.1,0.1-0.8,0.4-2.7-0.1
		c-2.8-0.7-3-6.8-2.9-8.9l0-0.5l-1-1c0.7-0.5,1.7-1.2,3-1.7c2-0.8,3.2-4,4.7-7.9c0.9-2.2,1.8-4.7,3-6.9c0.7-1.3,1.2-3.1,1.6-5.6
		c0-0.1,0.1-0.2,0.1-0.3v0c0.1-2,0.3-4,0.5-6c0.2-2,0.4-4,0.7-6c0.3-2,0.6-4,1-5.9c0.3-1.3,0.6-2.6,1-3.9c0.2-0.6,0.4-1.3,0.7-1.9
		c-0.9,1.8-1.6,3.7-2.2,5.6c-0.6,1.9-1.1,3.9-1.6,5.9c-0.5,2-0.9,3.9-1.3,5.9c-0.4,2-0.7,3.9-1,5.9c0,0.1,0,0.1-0.1,0.2
		c-0.4,2.3-0.9,4-1.4,5.1c-1.2,2.3-2.2,4.9-3.1,7.2c-0.2,0.5-0.4,1-0.6,1.4c0-1.5-0.2-3.3-0.9-5.5c-1-3.1-1.8-6.6-2.1-10.2v0
		c0,0,0-0.1,0-0.1c0-0.1,0-0.2-0.1-0.3c-0.3-1.1-0.5-2.4-0.6-3.6c-0.1-1.3-0.2-2.6-0.2-3.9c0-1.3,0.1-2.6,0.3-3.9
		c0.2-1.3,0.4-2.6,0.8-3.9c0,0.1-0.1,0.2-0.1,0.4c0,0,0,0,0,0c-0.4,1.1-0.9,2.2-1.2,3.4c-0.4,1.3-0.6,2.6-0.9,3.9
		c-0.2,1.3-0.3,2.7-0.4,4c0,1.4,0,2.7,0.1,4.1c0,0,0,0,0,0.1c0.4,3.8,1.2,7.4,2.2,10.6c1.9,5.8,0.1,8.2-1.4,10.2
		c-0.3,0.4-0.5,0.7-0.8,1c0,0-0.1,0.1-0.2,0.1c-3.2,0.1-9.6,0.5-14.2,1.6c1.8-1.6,4.5-2.3,6.2-2.7c1.9-0.5,3.1-2.2,2.9-4
		c-0.4-3.3-1.6-9.7-2.5-14.9c-0.7-3.9-1.4-7.6-1.4-8.3l0-0.2C39,51.4,42.3,36,43.7,32c0.1-0.2,0.1-0.4,0.2-0.6
		c0.5,0.5,1,0.9,1.6,1.3c0.5,0.3,1,0.6,1.5,0.9c0.4,0.1,0.7,0.5,1.2,0.4v0l0,0.5c0,0.2,0.1,0.3,0.1,0.5c0.2,0.7,0.4,1.2,0.6,1.7
		c0.2,0.6,0.5,1.1,0.7,1.6c0.5,1.1,1,2.1,1.5,3.2c1,2.1,2.1,4.1,3.2,6.2c1.1,2,2.3,4.1,3.4,6.1l1,1.7l1-1.7c1.1-2,2.3-4,3.4-6.1
		c1.1-2.1,2.2-4.1,3.2-6.2c0.5-1,1-2.1,1.5-3.2c0.2-0.5,0.5-1.1,0.7-1.6s0.4-1.1,0.6-1.7c0.1-0.4,0.1-0.7,0.1-1c0,0,0,0,0,0
		c0.2,0.1,0.4,0,0.5-0.1c0.3-0.1,0.5-0.3,0.8-0.4c0.5-0.3,1-0.6,1.5-0.9c1-0.7,1.8-1.5,2.6-2.3c0.8-0.9,1.5-1.9,2-2.9
		c0.6-1,1-2.1,1.3-3.2c4.8,2,17.2,9.2,25,27.1c0.9,2.1,1.8,4.5,2.5,6.9c2.3,8.1,4.9,19.9-1.5,31.6c-0.3-6.7-2.5-15.2-8.3-18.6
		c-3.9-2.3-8.1-1.9-12.7,1.2c0.3-0.7,0.7-1.3,1-2c1-2.2,2-4.3,2.8-6.6c0.8-2.2,1.5-4.5,2-6.9c0.4-2.3,0.6-4.8,0.1-7.1
		c0.4,2.4-0.1,4.7-0.6,7c-0.6,2.3-1.5,4.5-2.5,6.6c-1,2.1-2.1,4.2-3.3,6.2c-1.1,1.9-2.4,3.9-3.6,5.7c-0.3,0.2-0.5,0.5-0.5,0.8
		c-0.2,2.7-1.8,8.5-8.3,21.1c-0.7,1.4-1.7,2.1-3,2.2c-1.2,0.1-2.3,0.6-3.1,1.3c-0.4,0.4-1,0.8-1.8,1.3
		C58.5,104.3,58.7,109.4,58.8,110.1z M104.8,94.2c-0.5,0-0.9,0.1-1.2,0.1c0.7-1.1,1.4-2.2,2-3.3C105.6,92.2,105.5,93.4,104.8,94.2z
		 M71.3,99.5C71.3,99.5,71.3,99.6,71.3,99.5c-0.1,0.1-0.1,0.1-0.1,0.1C71.2,99.6,71.3,99.5,71.3,99.5z M71,99.7
		C71,99.7,70.9,99.7,71,99.7L71,99.7C70.9,99.7,71,99.7,71,99.7z M63.1,104.1c0.9-0.6,1.6-1.1,2.1-1.5c0.5-0.4,1.1-0.7,1.8-0.7
		c1-0.1,2.4-0.5,3.6-1.7c0.3,0.2,0.6,0.5,0.9,0.7c0.6,0.4,1.2,0.8,1.8,1.1c1.3,0.7,2.6,1.2,4,1.4c-1.3-0.6-2.4-1.4-3.3-2.3
		c-0.5-0.5-0.9-1-1.4-1.5c-0.2-0.3-0.4-0.5-0.6-0.8c-0.1-0.1-0.2-0.2-0.2-0.3c0,0,0,0,0-0.1c4.9-9.6,7.7-16.6,8.4-20.9
		c0.1-0.1,0.2-0.2,0.4-0.3c1.9-1.8,7.8-7.4,13.7-3.9c6,3.6,7.8,14.6,7.1,21.3c-0.2,1.9-0.6,3.4-1.9,4.5c-3.4,2.8-9.9,5.3-16.8,4.6
		c0-0.2-0.1-0.3-0.1-0.5c-0.1-0.4-0.1-0.8-0.2-1.2c-0.1-0.9-0.1-1.7-0.1-2.6c0-1.7,0.1-3.5,0.4-5.2c0.6-3.5,1.7-6.9,3.4-10
		c-2.1,2.9-3.6,6.3-4.5,9.8c-0.5,1.8-0.8,3.6-1,5.4c-0.1,0.9-0.1,1.8-0.1,2.8c0,0.5,0,0.9,0.1,1.4c0,0.2,0.1,0.5,0.1,0.8
		c0,0.1,0,0.1,0,0.2c-2.7,1.5-9.1,2.3-11.5,1.8l-0.2,0c-3.2-0.1-6.1,0.8-7.7,1.5C61.4,106.3,61.9,104.8,63.1,104.1z M117,102
		c-0.4,0.5-1.1,0.9-1.8,0.9c-4.5,0.1-16.9,2.3-24.8,4.9c-1.7,0.6-3.5,0.9-5.5,0.9l-2.4,0.1c-6.4,0.2-12.9,0.4-18.8,0.1
		c1.4-0.4,3.1-0.8,4.9-0.7c2.8,0.5,10.5-0.3,13.6-2.4c8.1,0.9,15-2.2,18.5-5.1c1.4-1.2,2.1-2.7,2.4-4.1c2.1-0.1,9.5-0.6,12.3-1.4
		c0.3-0.1,0.5,0,0.6,0.1c0.1,0.1,0.3,0.2,0.3,0.5c0.3,1.4,0.7,3,1,4.5C117.6,100.8,117.4,101.5,117,102z"/>
</g>
</svg>
