<?xml version="1.0" encoding="utf-8"?>
<!-- Generator: Adobe Illustrator 23.0.0, SVG Export Plug-In . SVG Version: 6.00 Build 0)  -->
<svg version="1.1" id="Layer_1" xmlns="http://www.w3.org/2000/svg" xmlns:xlink="http://www.w3.org/1999/xlink" x="0px" y="0px"
	 viewBox="0 0 128 128" style="enable-background:new 0 0 128 128;" xml:space="preserve">
<style type="text/css">
	.st0{fill:#2D2D2D;}
</style>
<g>
	<path class="st0" d="M107.7,95.3c1.2,0.2,2.3-0.4,2.6-1.5c0.2-1-0.5-2.1-1.7-2.3c-1.2-0.2-2.3,0.4-2.6,1.5
		C105.7,94,106.5,95.1,107.7,95.3z"/>
	<path class="st0" d="M126.8,103.8c-0.3-0.1-0.6-0.1-0.9-0.1c-0.6,0-1.2,0.2-1.7,0.4c-0.1,0.1-0.3,0.1-0.4,0.2
		c-0.1,0.1-0.2,0-0.3,0.1c-0.2,0-0.4,0.1-0.7,0.1c-0.5,0.1-1,0.1-1.5,0.2c-1,0.1-2.1,0.2-3.1,0.3l-1.2,0.2c0.8-0.5,1.5-0.9,2.3-1.3
		c1.2-0.6,2.6-1,3.9-1.4c1.3-0.5,2.5-1.2,3.7-2.3c0.1-0.2,0.3-0.3,0.4-0.5c0.1-0.2,0.2-0.5,0.2-0.8c0-0.1,0-0.2,0-0.3l0-0.2
		c0-0.1,0-0.2-0.1-0.3c-0.1-0.2-0.2-0.4-0.4-0.6c-0.3-0.4-0.8-0.6-1.2-0.6c-0.3,0-0.6,0.1-0.8,0.1c-2.3-1.6-4.7-3.2-7.2-4.6
		c-1.5-0.9-3-1.7-4.6-2.4c-0.4-0.2-0.8-0.4-1.2-0.5l-0.6-0.2l-0.3-0.1l-0.2-0.1c-0.7-0.3-1.5-0.8-2.3-1.2c-3.2-1.6-6.6-2.5-9.9-3.3
		c-3.4-0.8-6.8-1.4-10.1-2.1l0,0l0,0c-0.5,0-1.1,0.1-1.6,0.1c-0.5-1-1-2-1.6-3c-0.6-1-1.1-2.1-1.7-3.1l-0.7-1.3l-0.3,1.5
		c-0.1,0.5-0.2,1-0.4,1.3c0-0.1-0.1-0.1-0.1-0.2c-0.2-0.5-0.4-1-0.5-1.5c-0.1-0.5-0.3-1.1-0.4-1.6L80,70l-0.3,4.6
		c0,0.4-0.1,0.8-0.1,1.1c-0.1,0.3-0.2,0.7-0.3,0.8c0,0,0,0,0,0c0,0,0,0,0,0c0,0-0.1,0-0.2-0.1c-0.2-0.1-0.5-0.4-0.7-0.7
		c-0.5-0.6-0.9-1.3-1.4-2c-0.5-0.7-1-1.3-1.6-1.9l-0.9-0.9l0.1,1.2c0,0.4,0.1,0.8,0,1.1c-0.1,0.3-0.2,0.6-0.5,0.6
		c-0.3,0.1-0.7-0.1-1-0.2c-0.3-0.2-0.7-0.4-1-0.7l-0.3-0.2l-0.1,0.3c-0.1,0.4-0.3,0.8-0.6,1.1c-0.3,0.3-0.7,0.5-1.1,0.6
		c-0.8,0.2-1.7,0-2.5-0.5l-0.3-0.2l-0.2,0.3c-0.3,0.6-0.7,1.2-1.1,1.5c-0.2,0.2-0.4,0.2-0.6,0.2c-0.2,0-0.5-0.1-0.7-0.2l-0.7-0.3
		l0,0.8c0,0.4-0.3,0.8-0.7,1.1c-0.4,0.3-0.9,0.4-1.2,0.3l-0.7-0.2l0,0.8c0,0.4-0.2,0.8-0.6,1.2c-0.2,0.1-0.4,0.3-0.7,0.3
		c-0.2,0.1-0.5,0.1-0.6,0L59,79.7l0,0.6c0,0.4-0.1,0.7-0.3,0.9c-0.2,0.2-0.5,0.4-0.9,0.4l-0.2,0c-0.1,0-0.1,0-0.2,0.1l-0.1,0
		c0,0-0.1,0.1-0.1,0.1c-0.1,0.1-0.1,0.2-0.2,0.3c-0.1,0.2-0.2,0.4-0.3,0.6c-0.2,0.4-0.4,0.8-0.5,1.1c-1,0.1-1.9,0.2-2.9,0.4
		c-0.9-1-1.9-2-2.9-2.9c-0.6-0.5-1.1-1.1-1.7-1.6l-0.2-0.2c0,0-0.1-0.1-0.1-0.1c-0.1,0-0.1-0.1-0.2-0.1c-0.3-0.1-0.6-0.2-0.9-0.2
		c-0.2,0-0.3,0-0.5,0.1l-0.3,0.1l-0.5,0.2c-0.2,0.1-0.4,0.1-0.5,0.2c-0.1,0-0.1,0-0.2,0l-1-0.3L43.3,79l-0.1,0c-0.1,0-0.1,0-0.2,0
		c-0.2,0-0.3,0-0.5,0c-0.3,0-0.6,0.2-0.8,0.4c-0.1,0-0.1,0.1-0.2,0.2l-0.1,0.1l-0.2,0.2l-0.4,0.4l-0.2,0.2c0,0,0,0.1-0.1,0.1
		c-0.1,0-0.1,0.1-0.2,0.1c-0.4-0.1-0.8-0.1-1.1-0.1l-0.3,0c-0.1,0-0.3,0-0.4,0c-0.3,0-0.5,0.2-0.7,0.4c-0.2,0.2-0.2,0.4-0.4,0.5
		l-0.3,0.5c-0.1,0.2-0.2,0.4-0.3,0.4c-0.1,0.1-0.2,0.2-0.4,0.2c-0.1,0-0.3,0-0.5-0.1l-0.6-0.1c-0.2,0-0.3-0.1-0.6-0.1
		c-0.2,0-0.5,0.1-0.7,0.2c-0.2,0.1-0.3,0.4-0.4,0.6c-0.1,0.2-0.2,0.4-0.2,0.5c-0.2,0.3-0.4,0.4-0.7,0.5c-0.2,0-0.2,0-0.5,0l-0.3,0
		c0,0,0,0-0.1,0c-0.1,0-0.1,0-0.2,0c0,0-0.1,0-0.1,0l0,0l0,0c-0.1,0-0.1,0.1-0.2,0.1c-0.4,0.3-0.6,0.5-0.9,0.8c-0.5,0.6-1,1.3-1.4,2
		c-0.1,0.2-0.2,0.4-0.2,0.6c-0.1,0.3-0.1,0.5-0.1,0.7c0,0.4,0.1,0.9,0.2,1.2c0.2,0.8,0.5,1.5,0.8,2.2c0.3,0.6,0.6,1.2,1,1.8l-1.5,0
		c-1.4,0-2.8,0-4.1,0c-0.4,0-0.7-0.1-1-0.4c-1.3-1.2-2.6-2.4-3.9-3.5l-2.2-1.9l-1.1-1l-0.6-0.5c-0.2-0.2-0.4-0.3-0.6-0.5
		c-1.7-1.2-3.5-2.1-5.3-2.8c-1.8-0.8-3.7-1.5-5.6-2c-0.5-0.1-1-0.3-1.5-0.4c-0.5-0.1-1-0.2-1.7-0.2c-0.2,0-0.4,0-0.8,0.2
		c-0.1,0-0.1,0.1-0.2,0.1c-0.1,0-0.1,0.1-0.2,0.2c-0.1,0.1-0.1,0.1-0.1,0.1l-0.1,0.1L0.4,81l0,0.1l-0.1,0.2
		c-0.1,0.4-0.2,0.7-0.2,0.9C0,82.8,0,83.3,0,83.8c0,2,0.2,4,0.5,6c0.1,0.5,0.2,1,0.3,1.5c0,0.1,0.1,0.3,0.1,0.4
		c0,0.1,0.1,0.3,0.2,0.4l0.3,0.7c0.4,0.9,0.8,1.8,1.2,2.7c0.4,0.9,0.8,1.8,1.3,2.7c0.4,0.8,0.8,1.6,1.4,2.3c0,0.1-0.1,0.2-0.1,0.3
		l-0.2,0.6l-0.4,1.3c-0.3,0.8-0.5,1.7-0.8,2.5c-0.3,1-1.3,4.5-1.5,5.1c-0.2,0.9-0.3,1.8-0.4,2.7l-0.3,2.6l-0.6,5.3l-0.1,0.7l0.8-0.1
		c2.5-0.3,4.9-0.7,7.3-1.4c1.2-0.3,2.4-0.7,3.6-1.1c1.2-0.4,2.4-0.9,3.5-1.6c2.2-1.4,4-3.2,5.5-5.2c0.8-1,1.5-2,2.3-2.9
		c0.4-0.5,0.7-1,1.1-1.4c0.2-0.2,0.4-0.4,0.6-0.7c0.2-0.2,0.4-0.3,0.6-0.4c0,0,0,0,0.1,0l0,0c0.5-0.1,1-0.1,1.6,0
		c0.5,0.1,1.1,0.1,1.6,0.2c0.7,0.1,1.5,0.3,2.2,0.4c-0.8,0.9-1.4,2-2,3c-0.3,0.6-0.6,1.2-0.9,1.9c-0.1,0.1-0.1,0.4-0.2,0.6
		c0,0.2-0.1,0.3-0.1,0.5c0,0.4,0,0.7,0,1.1c0.1,0.7,0.3,1.5,0.8,2.2c0.5,0.6,1.3,0.9,2,1c1.3,0.3,2.5,0.9,3.8,1.4
		c0.6,0.2,1.3,0.5,2.2,0.5c0.8,0,1.4-0.2,2.1-0.3c1.3-0.3,2.6-0.6,3.7-0.5c0.1,0,0.3,0,0.4,0l0.3-0.1c0.2,0,0.4-0.1,0.6-0.2
		c0.4-0.1,0.7-0.3,1-0.4c0.6-0.3,1.2-0.7,1.8-1.1c0.6-0.4,1.1-0.8,1.6-1.2c0.3-0.2,0.5-0.5,0.8-0.7c0.2-0.2,0.3-0.3,0.5-0.6
		c0.2,0.1,0.4,0.2,0.6,0.3l0.2,0.1l0.2,0l0.9,0.1c0.3,0,0.6,0,0.9,0c0.6,0,1.2,0,1.7,0c1.2,0,2.3,0,3.4-0.1c1.1-0.1,2.3-0.2,3.4-0.3
		c1.1-0.1,2.3-0.1,3.4,0c1.1,0.1,2.3,0.3,3.4,0.4c1.1,0.1,2.3,0.2,3.4,0.1c1.4,0,2.7-0.1,4.1-0.3c0,0.1,0,0.1,0,0.2
		c0,0.1,0,0.3,0,0.4c0,0.2,0,0.5,0.1,0.7c0.1,0.5,0.1,1,0.3,1.5c0.1,0.5,0.2,1,0.4,1.4c0.1,0.2,0.2,0.5,0.2,0.6
		c0,0.2,0.1,0.4,0.1,0.6c0.1,0.9,0.1,1.8,0.1,2.7l-0.1,2.8l-0.1,1.8l1.2-1.1c1.2-1,2.3-2.1,3.5-3.2c1.2-1,2.4-2.1,3.5-3.2
		c1.1-1.1,2.2-2.3,3.1-3.7c0.3-0.6,0.6-1.1,0.9-1.7c0.1,0,1.3-1.1,3.6-0.7l-0.1,0c2.2,0.3,4.3,0.7,6.5,1c1.1,0.2,2.2,0.3,3.3,0.4
		c0.6,0.1,1.1,0.1,1.7,0.1c0.6,0,1.2,0,1.7-0.1c2.3-0.2,4.4-0.8,6.5-1.4c1.1-0.3,2.1-0.6,3.2-1c0.5-0.2,1-0.4,1.6-0.6
		c0.3-0.1,0.5-0.2,0.8-0.4c0.2-0.1,0.4-0.2,0.7-0.4l1.3-0.3l1.5-0.4c1-0.3,1.9-0.7,2.8-1.2c0.9-0.5,1.8-1.1,2.5-1.8
		c0.7-0.7,1.7-1.3,1.6-3.1C128,105.3,127.9,104.1,126.8,103.8z M125.1,97.3c1.2,0.4,0.9,1.6,0.7,1.8c-0.4,0.4-1,0.7-1.5,1
		c-0.6,0.3-1.1,0.7-1.7,1.1c-1.1,0.8-2.2,1.6-3.5,2.1c-1.3,0.6-2.6,0.9-3.9,1.3l0,0l-0.1,0.1c-0.2,0.2-0.4,0.4-0.5,0.7
		c-0.1,0.2-0.1,0.3-0.1,0.5c0,0.2,0,0.3,0.1,0.5l0.2,0.5l0.6,0c1.1,0,2.1,0,3.2-0.1c1.1,0,2.1-0.2,3.2-0.4c0.5-0.1,1.1-0.3,1.6-0.4
		c0.3-0.1,0.6-0.2,0.8-0.3c0.2-0.1,0.4-0.2,0.5-0.3l0.3-0.2c0.4-0.3,0.8-0.6,1.2-0.8c0.2-0.1,0.6,0,0.9,0.2c0.4,0.2,0.4,0.8,0,1
		c-0.7,0.4-1.5,0.6-2.3,0.9c-1.1,0.3-2.2,0.6-3.4,0.8c-1.1,0.2-2.3,0.4-3.4,0.6c-0.6,0.1-1.1,0.2-1.7,0.3c-0.3,0-0.6,0.1-0.8,0.1
		c-0.1,0-0.3,0-0.4,0c-0.1,0-0.2,0-0.2,0l-0.7,0.1c-0.6,0.4-1.5,0.5-2.4,0.5c-0.8,0-1.7-0.2-2.4-0.4c0-0.4,0.1-0.8,0.2-1.2
		c0.2-0.5,0.5-1,0.8-1.4c0.4-0.4,0.8-0.7,1.3-0.9c0.5-0.2,1.1-0.3,1.6-0.3l0,0l0,0c0.4-0.1,0.6-0.2,0.9-0.3l0.8-0.4
		c0.5-0.2,1-0.5,1.5-0.8c1-0.6,1.9-1.2,2.8-1.8c0.9-0.7,1.8-1.3,2.7-2c0.7-0.6,1.3-1.1,2-1.7C124.1,97.3,124.6,97.2,125.1,97.3z
		 M118.8,95.1c0,0.2,0,0.4,0,0.6c0,0.1,0,0.2,0,0.3c0,0,0,0.1,0,0.1c0,0,0,0-0.1,0c-0.1,0-0.2-0.1-0.3-0.1c-0.2-0.1-0.4-0.2-0.6-0.3
		c-0.8-0.4-1.6-0.8-2.3-1.2c-0.8-0.4-1.5-0.9-2.2-1.3c-0.7-0.5-1.4-1-1.7-1.6c-0.1-0.2-0.1-0.4,0-0.5c0.3,0.1,0.7,0.3,1,0.4
		c1.6,0.7,3.1,1.4,4.6,2.1c0.4,0.2,0.8,0.4,1.3,0.6C118.7,94.5,118.8,94.8,118.8,95.1z M118.8,96.1
		C118.8,96.1,118.8,96.1,118.8,96.1C118.8,96.1,118.8,96.1,118.8,96.1z M96.1,85c0.7,0.2,1.5,0.5,2.2,0.7c0.1,0,0.2,0.1,0.2,0.1
		c0.1,0,0.1,0.1,0.2,0.1c0.3,0.1,0.5,0.2,0.8,0.2c1.2,0.4,2.4,0.8,3.6,1.3c0.7,0.3,1.5,0.6,2.2,0.8c-0.3,0.1-0.5,0.2-0.8,0.2
		c-0.5,0.1-1.2,0-1.7,0.3c-0.5,0.2-1,0.5-1.6,0.6l-0.8,0.3c-0.3,0.1-0.5,0.1-0.8,0.1c-0.6,0-1.1,0.1-1.7,0.1c-0.3,0-0.5,0-0.7-0.1
		c-0.2-0.1-0.2-0.3-0.3-0.5c-0.1-0.5-0.2-1.1-0.3-1.7c-0.2-0.6-0.4-1.1-0.5-1.6c0-0.1,0-0.3,0-0.4c0-0.1,0-0.2,0-0.4
		C96.1,85.1,96.1,85.1,96.1,85z M80.2,77.4c0.1-0.1,0.1-0.1,0.1-0.2c0.1,0.3,0.2,0.7,0.4,1c0.1,0.1,0.1,0.3,0.2,0.4
		c0.1,0.2,0.2,0.3,0.5,0.5c0.1,0.1,0.4,0.2,0.7,0.1c0.1,0,0.1,0,0.1,0l0.1,0c0.1,0,0.1-0.1,0.2-0.1c0.2-0.2,0.3-0.3,0.4-0.5
		c0.1-0.2,0.2-0.4,0.3-0.6c0.4,0.6,0.9,1.2,1.3,1.9c0.6,0.9,1.3,1.8,2,2.7c-1.5,0.1-3,0.2-4.5,0.2c0.1-0.6,0-1.2-0.1-1.7
		c-0.2-0.6-0.6-1.1-1-1.6c-0.5-0.6-1-1.1-1.5-1.6C79.6,77.9,79.9,77.7,80.2,77.4z M82.7,83.4c0.2,0.7,0.4,1.3,0.4,1.9
		c0,0.3,0,0.6,0,0.9c0,0.1-0.1,0.2-0.1,0.3c0,0-0.1,0.1-0.1,0.1c0,0.1-0.1,0.1-0.2,0.2c-0.4,0.6-0.7,1.3-0.9,1.9
		c-0.2,0.7-0.3,1.3-0.5,2c-0.2,0.6-0.5,1.2-0.8,1.9c-0.3,0.6-0.5,1.3-0.7,1.9c-0.1,0.3-0.2,0.7-0.3,1.1c0,0.2,0,0.4,0,0.6
		c0,0.3,0.1,0.4,0.1,0.6c0.2,0.6,0.3,1.3,0.5,1.9c-0.2,0.6-0.4,1.2-0.6,1.9c-0.4-0.1-0.7-0.3-1.1-0.4c-1.1-0.4-2.2-0.7-3.3-1
		c0,0,0,0,0-0.1c0-0.1,0.1-0.2,0.1-0.3c0-0.2,0.1-0.3,0.1-0.5c0-0.3,0-0.7,0-1.1c0-0.4-0.1-0.7-0.3-1.1c-0.1-0.2-0.3-0.4-0.2-0.4
		c0-0.1-0.1-0.2-0.1-0.3c-0.1-0.5-0.1-1.2,0-1.8c0-0.3,0.1-0.6,0.1-0.9c0-0.1,0-0.1,0.1-0.2c0,0,0-0.1,0.1-0.1
		c0-0.1,0.1-0.1,0.1-0.2c0.1-0.2,0.1-0.4,0.1-0.6c0-0.7,0-1.4,0.2-2c0-0.2,0.1-0.3,0.2-0.4l0.1-0.1l0.1-0.1c0.1-0.1,0.1-0.2,0.1-0.3
		c0.1-0.4,0.1-0.7,0.1-1.1c0-0.7-0.1-1.4-0.3-2c-0.2-0.6-0.4-1.2-0.7-1.8l6.5-0.5L82.7,83.4C82.7,83.4,82.7,83.4,82.7,83.4
		L82.7,83.4z M65.6,94.8c-0.1-0.7-0.1-1.3-0.2-2c-0.1-0.6-0.2-1.3-0.3-1.9c0.3-1.1,0.5-2.2,0.7-3.2c0.1-0.6,0.2-1.1,0.3-1.7
		c0.1-0.4,0.1-0.8,0.1-1.2c2.7-0.2,5.4-0.4,8.1-0.7l0.4,0c-0.1,1.3,0.1,2.6,0.3,3.9c0.1,0.3,0.1,0.6,0.2,0.9c0,0.1,0,0.2,0,0.2
		l0,0.1l0,0.1c-0.1,0.2-0.1,0.4-0.1,0.5c-0.1,0.7-0.2,1.3-0.4,1.9c-0.1,0.1-0.1,0.3-0.2,0.4c0,0,0,0,0,0.1c0,0,0,0-0.1,0.1
		c-0.1,0.1-0.1,0.2-0.2,0.3c-0.2,0.4-0.3,0.7-0.3,1c-0.1,0.7-0.2,1.4-0.1,2.2c0,0.2,0.1,0.4,0.2,0.6c0.2,0.3,0.2,0.3,0.3,0.4
		c0.1,0.2,0.3,0.5,0.4,0.8c0.1,0.3,0.2,0.6,0.3,0.9c0,0.2,0.1,0.3,0.1,0.5c0,0.1,0,0.2,0,0.3c-0.8-0.2-1.6-0.3-2.3-0.4
		c-2-0.2-4-0.3-6-0.5c-1-0.1-2-0.2-3-0.2c-0.1,0-0.3,0-0.4,0c0,0,0,0-0.1,0c0.1-0.7,0.4-1.3,0.8-1.8c0.4-0.5,0.9-0.9,1.4-1.1
		l0.3-0.1L65.6,94.8z M74.2,74.5c0.1,0,0.3-0.1,0.4-0.1c0.1-0.1,0.3-0.2,0.3-0.3c0.1-0.1,0.2-0.2,0.2-0.3c0.1-0.1,0.1-0.2,0.1-0.3
		c0,0,0-0.1,0-0.1c0.2,0.3,0.5,0.7,0.7,1.1c0.4,0.7,0.8,1.4,1.3,2.1c0.2,0.4,0.5,0.7,0.9,1.1c0.1,0.1,0.3,0.2,0.5,0.3
		c0.2,0.2,0.3,0.4,0.5,0.7c0.3,0.5,0.7,1,1,1.5c0.3,0.5,0.5,1,0.8,1.5c0.3,0.4,0.5,0.8,0.8,1.3c-0.8,0-1.6,0-2.4,0.1
		c-0.1-0.9-0.4-1.8-0.8-2.6c-0.5-1-1.2-1.8-1.8-2.6c-0.7-0.8-1.4-1.5-2.2-2.2c-0.5-0.4-1-0.8-1.5-1.2C73.4,74.4,73.8,74.5,74.2,74.5
		z M70.2,75.2c0.5-0.1,0.9-0.4,1.3-0.7c0.3-0.2,0.4-0.5,0.6-0.9c1.5,1.4,2.8,2.9,4,4.5c0.6,0.8,1,1.7,1.6,2.6
		c0.5,0.7,0.9,1.4,1.3,2.2c-0.8,0-1.6,0-2.4,0c-0.4-1-0.9-1.9-1.6-2.7c-0.7-0.8-1.5-1.5-2.3-2.2c-1.2-1-2.6-1.9-3.9-2.7
		C69.3,75.4,69.8,75.4,70.2,75.2z M66.7,76.6c0.3-0.3,0.5-0.6,0.6-0.9c0.1-0.2,0.2-0.4,0.3-0.7c0.1,0.1,0.3,0.1,0.4,0.1
		c0.6,0.4,1.3,0.9,1.9,1.4c0.8,0.6,1.6,1.3,2.3,2c0.7,0.7,1.4,1.5,2.1,2.2c0.7,0.7,1.3,1.4,2.1,2.1c-0.7,0-1.5,0-2.2,0
		c-0.6,0-1.3,0-1.9,0c-0.2-0.7-0.6-1.3-1-1.9c-0.5-0.7-1.3-1.3-2-1.8c-1.1-0.8-2.4-1.5-3.7-2.1C66.1,77.1,66.5,76.9,66.7,76.6z
		 M64.1,78.5c0.3-0.2,0.5-0.5,0.7-0.9c0.1-0.1,0.1-0.3,0.2-0.5c0.1,0,0.1,0,0.2,0c1.3,0.8,2.5,1.7,3.7,2.7c0.6,0.6,1.2,1.3,1.8,1.8
		c0.4,0.4,0.8,0.8,1.2,1.2c-1.2,0-2.3,0.1-3.5,0.1c-0.2-0.4-0.4-0.8-0.7-1.2c-0.5-0.7-1.1-1.1-1.8-1.6c-0.8-0.5-1.5-1-2.4-1.4
		C63.7,78.7,63.9,78.6,64.1,78.5z M61.5,80.4c0.3-0.2,0.6-0.5,0.8-0.8c0.1-0.2,0.2-0.3,0.2-0.5c0.2,0,0.3,0,0.5-0.1
		c0.8,0.6,1.6,1.2,2.4,1.9c0.6,0.5,1,1.1,1.5,1.6c0.2,0.2,0.4,0.4,0.6,0.6c-1.1,0-2.3,0.1-3.4,0.2c0-0.1-0.1-0.1-0.1-0.2
		c-0.4-0.5-0.9-0.9-1.4-1.2c-0.6-0.4-1.2-0.8-1.9-1.1C60.9,80.7,61.2,80.6,61.5,80.4z M57.2,82.9c0.1-0.2,0.2-0.3,0.4-0.5
		c0.1-0.1,0.1-0.1,0.2-0.2l0.1,0c0.5,0.1,1-0.1,1.4-0.5c0.3-0.2,0.4-0.6,0.5-0.9c0.1,0,0.3,0,0.4,0c0.7,0.5,1.3,1,1.9,1.6
		c0.3,0.3,0.5,0.6,0.8,0.8c-0.9,0.1-1.8,0.1-2.7,0.2c-1.2,0.1-2.4,0.2-3.6,0.3L57.2,82.9z M46.1,80.9c0.2-0.1,0.4-0.1,0.5-0.2
		l0.5-0.2l0.3-0.1c0,0,0.1,0,0.1,0c0.1,0,0.1,0,0.2,0l0.1,0c0,0,0,0,0.1,0.1l0.2,0.2c0.6,0.5,1.2,0.9,1.8,1.4c1,0.8,2.1,1.5,3.1,2.2
		c0,0,0,0-0.1,0c-1.1,0.2-2.1,0.4-3.2,0.6c-0.1-0.5-0.3-1-0.6-1.4c-0.4-0.5-0.9-0.9-1.4-1.2c-0.7-0.5-1.4-0.9-2.2-1.2
		C45.8,81,45.9,80.9,46.1,80.9z M47.6,94.8c0,0.2,0,0.5-0.1,0.7c-0.1,0.2-0.1,0.5-0.2,0.8c-0.1,0.5-0.2,1.1-0.3,1.5
		c-0.1,0.5-0.2,1-0.4,1.4c-0.2,0.4-0.4,1-0.5,1.6c-0.1,0.6-0.1,1.2,0.1,1.8c0.1,0.3,0.2,0.6,0.3,0.8c0.1,0.1,0.1,0.2,0.2,0.3
		c0,0,0,0,0,0.1c-0.2,0.5-0.3,1.1-0.2,1.8c0.1,0.3,0.2,0.6,0.3,0.9c0.2,0.3,0.3,0.4,0.4,0.6c0.3,0.8,0.2,1.8,0,2.6
		c-0.7-0.3-1.4-0.8-1.9-1.4c-0.5-0.7-0.8-1.6-0.9-2.5c0-0.2-0.1-0.4-0.1-0.7c0-0.1,0-0.2,0-0.3c0-0.1,0-0.3,0-0.4
		c0-0.5-0.1-0.9-0.1-1.4c-0.1-0.9-0.2-1.8-0.2-2.7l0,0c-0.1-1,0-2,0.1-3c0.1-1,0.2-2.1,0.3-3.1c0.1-1,0.3-2.1,0.4-3.1l0.2-1.6
		c0-0.3,0.1-0.5,0.1-0.8l0-0.1c0.6-0.3,1.1-0.5,1.7-0.7c1.1-0.4,2.2-0.8,3.2-1.1c0.3-0.1,0.6-0.1,0.9-0.2c-0.3,0.7-0.8,1.4-1.3,2.1
		c-0.3,0.4-0.6,0.9-0.9,1.2c-0.1,0.1-0.2,0.2-0.3,0.3c-0.1,0.1-0.2,0.2-0.3,0.4c-0.2,0.3-0.3,0.6-0.3,0.9
		C47.6,92.7,47.7,93.8,47.6,94.8z M41,81.4c0.1-0.1,0.3-0.2,0.4-0.3l0.2-0.2l0.4-0.4l0.2-0.2l0.1-0.1c0,0,0,0,0,0
		c0.1,0,0.1-0.1,0.2-0.1c0,0,0.1,0,0.1,0c0,0,0,0,0.1,0l0.1,0l1.1,0.4l0.5,0.2l0.3,0.1c0,0,0.1,0,0.3,0.1c0.8,0.6,1.6,1.2,2.3,1.8
		c0.4,0.4,0.7,0.9,1.1,1.2c0.3,0.3,0.6,0.6,0.9,0.9c0,0,0,0,0,0c-0.6,0.1-1.2,0.3-1.8,0.6c-0.3,0.1-0.5,0.2-0.8,0.3
		c-0.2-0.3-0.4-0.6-0.6-0.8c-0.6-0.6-1.3-1.1-2-1.5c-1.1-0.7-2.3-1.4-3.5-2C40.9,81.5,41,81.5,41,81.4z M37.2,82.6
		c0.2-0.2,0.3-0.3,0.4-0.5l0.3-0.5c0.1-0.1,0.2-0.3,0.3-0.4c0.1-0.1,0.2-0.1,0.3-0.1c0.1,0,0.3,0.1,0.5,0.1c0.4,0.1,0.7,0.2,1.1,0.3
		c0.1,0,0.2,0,0.4,0c0.5,0.3,1,0.7,1.4,1c0.7,0.5,1.3,1,1.9,1.5c0.6,0.5,1.1,1.1,1.8,1.6c0.2,0.1,0.3,0.3,0.5,0.4c0,0-0.1,0-0.1,0
		c-0.8,0.3-1.6,0.7-2.3,1.1c-0.2-0.3-0.4-0.7-0.7-0.9c-0.6-0.6-1.3-1.1-2-1.5C39.7,83.9,38.4,83.2,37.2,82.6
		C37.1,82.6,37.1,82.6,37.2,82.6z M34,83.6l0.2-0.6c0.1-0.2,0.1-0.3,0.2-0.4c0.1-0.1,0.3-0.1,0.4-0.1c0.1,0,0.3,0.1,0.5,0.1l0.6,0.1
		c0.2,0,0.4,0.1,0.6,0.1c0.2,0,0.3-0.1,0.4-0.1c0.6,0.4,1.2,0.8,1.7,1.2c0.7,0.5,1.3,1,1.9,1.5c0.6,0.5,1.1,1.1,1.8,1.6
		c0.2,0.2,0.5,0.4,0.7,0.6c-0.1,0-0.2,0.1-0.3,0.1c-0.7,0.4-1.3,0.7-2,1.1c-0.2-0.4-0.5-0.9-0.9-1.2c-0.6-0.6-1.3-1.1-2-1.5
		c-1.3-0.9-2.7-1.6-4.1-2.2C33.9,83.7,33.9,83.7,34,83.6z M31.4,85.5c0.2-0.3,0.5-0.6,0.7-0.8l0.1-0.1l0.2,0c0.1,0,0.5,0,0.7-0.1
		c0.3-0.1,0.6-0.3,0.8-0.6c0.6,0.4,1.2,0.8,1.8,1.3c0.7,0.5,1.3,1,1.9,1.5c0.6,0.5,1.1,1.1,1.8,1.6c0.3,0.3,0.7,0.6,1,0.9
		c-0.2,0.1-0.4,0.2-0.6,0.4c-0.7,0.4-1.4,0.9-2.1,1.3c-0.2-0.4-0.5-0.7-0.7-1c-0.6-0.6-1.3-1.1-2-1.5c-1.3-0.8-2.6-1.6-3.9-2.2
		C31.1,85.9,31.2,85.7,31.4,85.5z M30.1,89.2c-0.1-0.4-0.1-0.7-0.1-1c0-0.2,0-0.3,0.1-0.4c0-0.1,0.1-0.3,0.2-0.4
		c0.2-0.3,0.4-0.7,0.6-1c0.6,0.4,1.1,0.8,1.7,1.2c0.7,0.5,1.3,1,1.9,1.5c0.6,0.5,1.1,1.1,1.8,1.6c0.3,0.2,0.6,0.5,0.8,0.7
		c-0.1,0.1-0.2,0.2-0.4,0.3c-0.9,0.7-1.8,1.3-2.7,2l-2.7-0.1C30.7,92.1,30.3,90.6,30.1,89.2z M49,115.1c-0.3,0.2-0.6,0.3-0.9,0.4
		c-0.6,0.3-1.2,0.6-1.8,0.8c-0.6,0.3-1.2,0.5-1.8,0.7c-0.3,0.1-0.6,0.2-0.9,0.3c-0.1,0-0.3,0.1-0.4,0.1l-0.2,0c-0.1,0-0.1,0-0.1,0
		l-0.1,0l-0.2,0c-0.1,0-0.2,0-0.3,0c-0.2,0-0.4,0-0.6,0c-0.4,0-0.7,0.1-1.1,0.2c-0.7,0.2-1.3,0.4-2,0.6c-0.6,0.2-1.3,0.4-1.8,0.5
		c-0.5,0.1-1.2,0.1-1.8,0c-1.3-0.2-2.6-0.6-3.9-1.1c-0.3-0.1-0.6-0.2-0.9-0.4c-0.2-0.2-0.4-0.4-0.5-0.6c-0.2-0.5-0.3-1.1-0.2-1.7
		c0-0.3,0.1-0.6,0.1-0.9l0.1-0.5c0-0.2,0-0.2,0.1-0.4c0.2-0.6,0.4-1.2,0.7-1.8c0.4-1.1,0.9-2.3,1.2-3.5c0.2,0,0.4,0.1,0.7,0.1
		l0.8,0.2c0.3,0.1,0.5,0.1,0.7,0.2c0.5,0.2,1,0.4,1.5,0.6c1,0.4,2,0.9,3,1.3c2,0.9,3.9,1.9,5.9,2.8c1.1,0.6,2.2,0.8,3.3,1.1
		c0.5,0.1,1,0.3,1.5,0.4c0.1,0,0.2,0.1,0.4,0.1C49.4,114.9,49.2,115,49,115.1z M86.4,116.1c-0.6,1.3-1.4,2.7-2.3,3.9
		c-0.9,1.2-2,2.3-3.3,3.3c-0.8,0.6-1.7,1.1-2.5,1.6c0.1-0.5,0.1-0.9,0.1-1.4c0-1,0-2-0.3-3c-0.1-0.3-0.1-0.5-0.2-0.8
		c-0.1-0.3-0.2-0.5-0.3-0.7c-0.2-0.4-0.4-0.8-0.6-1.3l-0.6-1.3l-0.3-0.7l-0.1-0.3c0-0.1,0-0.1-0.1-0.2c0.6-0.1,1.2-0.2,1.9-0.3
		c0.5-0.1,0.9-0.1,1.4-0.2c1.1-0.2,2.2-0.4,3.3-0.7c0.6-0.1,1.1-0.3,1.7-0.4c0,0,0.2-0.1,0.4-0.1l0,0l0,0c0,0,0,0,0,0l0,0
		c0.1,0,0.2-0.1,0.3-0.1c0.2-0.1,0.5-0.1,0.8-0.2c0.5-0.1,1-0.2,1.5-0.3c0.1,0,0.2,0,0.3,0C87.3,114,86.9,115.1,86.4,116.1z
		 M126,108c-0.8,0.6-1.7,1-2.5,1.4c-0.9,0.4-1.8,0.6-2.8,0.9l-1.4,0.3l-1.4,0.2l-0.2,0l-0.2,0.1c-0.1,0.1-0.3,0.2-0.6,0.3
		c-0.2,0.1-0.5,0.2-0.7,0.3c-0.5,0.2-1,0.4-1.5,0.5c-1,0.3-2.1,0.6-3.1,0.9c-2.1,0.5-4.2,1-6.3,1.3c-0.5,0.1-1,0.1-1.5,0.1
		c-0.5,0-1.1,0-1.6,0c-1.1,0-2.2-0.1-3.3-0.2c-2.2-0.1-7.4-0.4-7.8-0.6c-0.4-0.2-0.8-0.3-1.2-0.3c-0.2,0-0.3,0-0.5,0
		c0.1-0.3,0.2-0.6,0.3-1l0.1-0.4l-0.2-0.4c-0.2-0.3-0.4-0.4-0.6-0.5c-0.1,0-0.2-0.1-0.2-0.1c-0.1,0-0.1,0-0.2-0.1
		c-0.2-0.1-0.4-0.1-0.6-0.1c-0.4,0-0.7,0-1,0c-0.6,0.1-1.2,0.2-1.8,0.3c-0.3,0.1-0.6,0.2-0.9,0.3c-0.1,0.1-0.3,0.1-0.5,0.2l-0.2,0.1
		l-0.1,0.1l-0.1,0c0,0,0,0,0,0c0,0,0,0,0,0c0,0,0,0,0,0c-0.5,0.2-1,0.4-1.5,0.6c-1.1,0.4-2.1,0.8-3.2,1.2c-0.6,0.2-1.2,0.5-1.8,0.7
		c0,0,0,0,0,0c-1.8-0.3-3.7-0.4-5.5-0.5c-1.1,0-2.3,0-3.4,0.1c-1.1,0.1-2.3,0.3-3.4,0.4c-1.1,0.1-2.3,0-3.4,0
		c-1.1-0.1-2.3-0.3-3.4-0.4c-1.1-0.1-2.3-0.2-3.4-0.3c-0.6-0.1-1.1-0.1-1.7-0.2l-0.8-0.1l-0.6-0.1c-0.5-0.3-1-0.5-1.5-0.6
		c-0.6-0.2-1.1-0.3-1.6-0.4c-1.1-0.3-2.1-0.5-3-0.9c-2-0.9-4-1.8-6.1-2.6c-1-0.4-2.1-0.8-3.1-1.2c-0.5-0.2-1.1-0.4-1.6-0.5
		c-0.3-0.1-0.6-0.1-0.9-0.2l-0.8-0.1c-1.1-0.1-2.2-0.2-3.3-0.2c-0.6,0-1.1,0-1.7,0c-0.5,0-1,0.1-1.5,0.3c0,0,0,0,0,0
		c-0.4,0-0.7,0.2-0.9,0.3c-0.3,0.2-0.5,0.4-0.7,0.6c-0.5,0.4-0.9,0.9-1.3,1.3l-2.5,2.7c-1.7,1.7-3.5,3.4-5.5,4.5
		c-2,1.1-4.4,1.7-6.7,2.4c-2.1,0.6-4.2,1.1-6.4,1.7c0-1.5,0-3.1,0.1-4.6c0,0,0,0,0,0c3-1.3,5.9-2.7,8.8-4.3c1.5-0.8,3-1.5,4.3-2.5
		c1.3-1,2.7-2.1,3.7-3.4c0,0,0,0,0-0.1c0,0-0.1,0-0.1,0c-1.5,0.8-2.9,1.6-4.3,2.4c-1.4,0.8-2.7,1.8-4.1,2.7
		c-1.4,0.9-2.8,1.7-4.2,2.6c-1.3,0.8-2.7,1.6-4.1,2.4c0-0.8,0.1-1.6,0.2-2.4c0.1-0.9,0.2-1.7,0.4-2.6c0.2-0.7,0.4-1.4,0.6-2.1
		c1.1-0.1,2.3-0.3,3.4-0.5c1.3-0.3,2.6-0.6,3.9-0.9c1.3-0.4,2.6-0.7,3.8-1.4c1.2-0.7,2.3-1.5,3.1-2.7c0,0,0,0,0-0.1c0,0-0.1,0-0.1,0
		c-1.2,0.6-2.4,1.1-3.6,1.6c-1.2,0.5-2.4,1.1-3.6,1.6c-1.2,0.5-2.5,0.9-3.8,1.3c-1,0.3-2.1,0.6-3.2,0.9c0.3-0.9,0.6-1.8,0.9-2.6
		c0.3-0.8,0.6-1.6,1-2.5c0.2-0.4,0.3-0.8,0.5-1.2l0.3-0.6c0.1-0.2,0.2-0.4,0.3-0.5l0.2-0.3l-0.2-0.4c-0.5-0.7-0.9-1.6-1.2-2.5
		C4.7,96.8,4.3,95.9,4,95l-0.1-0.3c0.5,0.1,1,0.2,1.5,0.4c1,0.3,2,0.6,3,0.9c1,0.3,0.8,0.4,1.8,0.6c0.5,0.1,1,0.2,1.5,0.3
		c0.5,0.1,1,0.1,1.6,0.1c0,0,0,0,0.1,0c0,0,0-0.1,0-0.1c-0.9-0.7-1.8-1.1-2.8-1.5c-1-0.4-0.9-0.1-1.9-0.3c-1-0.2-2.1-0.4-3.1-0.5
		c-0.6-0.1-1.2-0.1-1.7-0.2L3,92.2l-0.3-0.7c-0.1-0.1-0.1-0.1-0.1-0.3c0-0.1,0-0.2-0.1-0.3c-0.1-0.4-0.2-0.9-0.2-1.4
		C2.1,87.7,2,85.7,2,83.8c0-0.5,0-1.1,0.1-1.5c0,0,0,0,0,0c0.3,0,0.6,0.1,0.9,0.1c0.5,0.1,0.9,0.2,1.4,0.3c1.8,0.5,3.7,1.1,5.5,1.7
		c1.8,0.7,3.6,1.4,5.2,2.4c0.2,0.1,0.4,0.2,0.6,0.4l0.6,0.4l1.2,0.9l2.4,1.7c1.6,1.1,3.2,2.3,4.8,3.4c0.2,0.2,3.2,0.5,4.7,0.7
		l4.7,0.6l0.2,0l0.2-0.2c3.2-2.2,6.6-4.3,10.1-5.9c-0.1,0.2-0.1,0.4-0.2,0.6c-0.2,0.5-0.3,1-0.4,1.5c-0.3,1-0.5,2.1-0.6,3.1
		c-0.2,1-0.3,2.1-0.4,3.2c-0.1,1.1-0.2,2.1,0,3.2c0.1,0.9,0.3,1.8,0.5,2.7c0.1,0.5,0.2,0.9,0.3,1.3c0,0.1,0,0.2,0,0.3
		c0,0.1,0,0.2,0,0.4c0,0.2,0.1,0.5,0.1,0.7c0.2,0.9,0.5,1.8,1,2.6c0.3,0.4,0.6,0.7,1,1c0.4,0.3,0.8,0.6,1.3,0.7l0.2,0.1l0.1-0.2
		c0.2-0.5,0.4-1,0.5-1.6c0.1-0.6,0.1-1.2-0.1-1.7c0-0.1-0.1-0.3-0.2-0.4l-0.2-0.3c-0.1-0.2-0.2-0.4-0.2-0.6c0-0.4,0.1-0.9,0.3-1.4
		c0-0.1,0-0.1,0.1-0.3c0,0,0-0.1,0-0.2c0,0,0-0.1-0.1-0.2c0,0-0.1-0.1-0.1-0.1l0,0c0,0-0.1-0.1-0.1-0.2c-0.1-0.2-0.2-0.4-0.2-0.7
		c-0.1-0.5-0.1-0.9,0-1.4c0.1-0.5,0.3-0.8,0.5-1.4c0.2-0.5,0.4-1.1,0.5-1.6c0.1-0.5,0.2-1.1,0.3-1.6c0-0.3,0.1-0.5,0.2-0.8
		c0.1-0.3,0.1-0.6,0.1-0.9c0-1.1-0.2-2.2-0.1-3.1c0-0.2,0.1-0.5,0.2-0.6c0-0.1,0.1-0.2,0.2-0.3c0.1-0.1,0.2-0.2,0.3-0.3
		c0.3-0.5,0.6-0.9,0.8-1.4c0.3-0.5,0.5-1,0.7-1.5c0.1-0.3,0.3-0.7,0.4-1c0.7-0.2,1.5-0.3,2.2-0.4c2-0.3,3.9-0.6,5.9-0.8
		c-0.1,0.8,0,1.5,0,2.3c0,1,0.1,1.9,0.1,2.9c0.1,1,0.2,1.9,0.3,2.9c0.1,0.9,0.2,1.8,0.5,2.8c-0.2,0.5-0.3,0.9-0.4,1.3
		c-0.1,0.5-0.2,1-0.3,1.5c-0.1,0.7-0.1,1.4-0.1,2.1c0,0.5,0,1,0.2,1.6c-0.2,0.6-0.2,1-0.3,1.5c0,0.6-0.1,1.1-0.1,1.6
		c0,1.1,0.1,2.1,0.2,3.2c-0.1,1.1,0.3,2.1,0.8,2.9c0.3,0.4,0.7,0.8,1.1,1.1c0.2,0.2,0.4,0.3,0.7,0.4c0.3,0.1,0.6,0.1,0.9,0.1
		c0.6,0,1.1-0.2,1.5-0.5c0.1-0.1,0.2-0.2,0.4-0.4c0-0.1,0.1-0.1,0.1-0.4c0-0.2-0.1-0.3-0.2-0.4c0,0,0,0,0,0c0,0,0,0,0,0
		c0,0,0,0,0-0.1c-0.1-0.2-0.2-0.4-0.3-0.6c-0.4-0.8-0.8-1.6-1.3-2.4c0.1-0.4,0.1-0.7,0.2-1.1c0.1-0.4,0.1-0.8,0.1-1.2
		c0.1-0.8,0.2-1.6,0.2-2.4c0-0.8,0.1-1.6,0.1-2.4c0-0.8,0-1.6-0.3-2.4c0.1,0.8,0.1,1.6,0,2.4c-0.1,0.8-0.1,1.6-0.3,2.4
		c-0.1,0.8-0.2,1.6-0.3,2.4c-0.1,0.4-0.1,0.8-0.2,1.2c-0.1,0.4-0.2,0.8-0.3,1.1l-0.1,0.2l0.1,0.2c0.4,0.7,0.8,1.6,1.2,2.5
		c0.1,0.2,0.2,0.4,0.3,0.6c-0.3,0.2-0.7,0.3-1.1,0.3c-0.7,0.1-1.4-0.6-1.9-1.3c-0.5-0.7-0.8-1.5-0.6-2.3l0-0.1l0-0.1
		c-0.1-1-0.2-2.1-0.2-3.1c0-0.5,0-1,0-1.6c0-0.5,0.1-1,0.2-1.4l0.1-0.2l-0.1-0.2c-0.1-0.4-0.2-1-0.2-1.5c0-0.6,0-1.3,0.1-2
		c0-0.5,0.1-0.9,0.2-1.3c0.1-0.5,0.2-1,0.4-1.4l0.1-0.2l0-0.1c-0.3-0.9-0.4-1.8-0.6-2.8c-0.2-0.9-0.3-1.9-0.4-2.9
		c-0.1-1-0.3-1.9-0.4-2.9l-0.1-1.4c0-0.3-0.1-0.6-0.1-0.8c0.3,0,0.6-0.1,1-0.1c1.9-0.2,3.9-0.4,5.8-0.5c-0.1,0.4-0.3,0.7-0.4,1.1
		c-0.2,0.5-0.4,1.1-0.6,1.6c-0.4,1.1-0.7,2.2-1,3.3l0,0.1l0,0.1c0.1,0.7,0.2,1.3,0.3,2c0.1,0.6,0.2,1.1,0.3,1.7
		c-0.5,0.4-1,0.8-1.2,1.4c-0.3,0.6-0.5,1.4-0.3,2c0,0-0.1,0-0.1,0c-0.1,0-0.1,0-0.3,0.1l-0.1,0c-0.1,0-0.1,0.2-0.1,0.2
		c0,0.1,0,0.2,0.1,0.2c0,0.1,0.1,0.1,0.1,0.2c0.1,0.1,0.2,0.2,0.3,0.3c0.4,0.4,0.7,0.7,1.1,1.1c1.5,1.4,3,2.6,4.7,3.8
		c0.4,0.3,0.9,0.6,1.3,0.8c0.4,0.3,0.8,0.5,1.2,0.8c0.8,0.6,1.5,1.2,2.3,1.9c0.2,0.1,0.3,0.3,0.5,0.4c-0.3,0.5-0.5,1.1-0.6,1.6
		c-0.1,0.6,0,1.3,0.4,1.9c0.1,0.1,0.2,0.3,0.3,0.4c0.1,0.1,0.2,0.2,0.4,0.3l0.7,0.6c0.5,0.4,1,0.8,1.6,1.1l0.6,0.2l0-0.7l0-1.1
		c0-0.4,0-0.7,0-1c0-0.3,0-0.7,0-1c0-0.2,0-0.3,0-0.5c0.1,0,0.3,0,0.4,0c0.5,0,1-0.1,1.5-0.2c2-0.3,3.9-0.8,5.8-1.5l0-0.1
		c-2,0.2-3.9,0.5-5.9,0.6c-0.5,0-1,0-1.4,0c-0.2,0-0.5,0-0.6-0.1c-0.1,0-0.2,0-0.2-0.1c-0.1,0-0.1,0-0.2-0.1
		c-0.7-0.5-1.5-1.2-2.2-1.9c-0.8-0.6-1.5-1.3-2.3-1.9c-0.4-0.3-0.8-0.6-1.3-0.9c-0.5-0.3-0.9-0.5-1.3-0.7c-1.7-1-3.3-2.1-4.9-3.3
		c-0.4-0.3-0.8-0.6-1.1-0.9c-0.1-0.1-0.1-0.1-0.2-0.2c0,0,0,0,0.1,0c0.1,0,0.2,0,0.4,0c1,0,2,0.1,2.9,0.2c1,0.1,2,0.3,2.9,0.5
		c1,0.2,1.9,0.4,2.9,0.6c3.8,0.8,7.6,1.8,11.4,3.1l0.1-0.1c-1.3-0.8-2.7-1.5-4.2-2.1c0.4-0.6,0.8-1.2,1.2-1.8l0-0.1l0-0.2
		c-0.1-0.7-0.2-1.3-0.3-2c0-0.2-0.1-0.3-0.1-0.4c0-0.1,0-0.3,0-0.4c0-0.3,0.1-0.6,0.2-0.9c0.1-0.6,0.3-1.3,0.5-2l0.4-2
		c0.1-0.7,0.3-1.3,0.7-1.9c0.3-0.6,0.7-1.1,1.1-1.6c0.1-0.1,0.1-0.1,0.2-0.2c0.1-0.1,0.1-0.2,0.2-0.3c0.1-0.2,0.2-0.4,0.2-0.6
		c0-0.4,0-0.8-0.1-1.2c-0.2-0.7-0.6-1.3-1-1.8l5.6-0.4c2.5,0.6,5,1.2,7.5,2c0,0.1,0.1,0.2,0.1,0.2c0,0.1-0.1,0.3-0.1,0.4
		c0,0.2,0,0.3,0,0.5c0.1,0.6,0.3,1.1,0.4,1.7c0.1,0.5,0.2,1.1,0.3,1.7c0.1,0.3,0.2,0.7,0.6,0.9c0.3,0.2,0.7,0.2,1,0.2
		c0.6-0.1,1.1-0.2,1.7-0.3c0.3,0,0.6-0.1,0.8-0.3c0.3-0.1,0.5-0.2,0.8-0.3c0.5-0.2,1.1-0.4,1.6-0.6c0.5-0.3,1-0.1,1.6-0.2
		c0.5,0,0.9-0.1,1.4-0.3c0.6,0.3,1.3,0.5,1.9,0.8c0.8,0.4,1.5,0.8,2.3,1.2l0.6,0.3l0.5,0.2c-0.1,0.2-0.2,0.5-0.1,0.7
		c0.1,0.5,0.4,0.9,0.7,1.2c0.3,0.3,0.7,0.6,1.1,0.8c0.8,0.4,1.6,0.7,2.4,1.1c0.8,0.4,1.5,0.8,2.3,1.3c0.2,0.1,0.4,0.2,0.6,0.3
		c0.1,0.1,0.2,0.1,0.3,0.2c0.1,0,0.1,0,0.2,0.1c0.1,0,0.2,0,0.3-0.1c0.1-0.1,0.2-0.2,0.2-0.3c0-0.1,0-0.1,0.1-0.2
		c0-0.1,0-0.2,0.1-0.3c0-0.2,0-0.5,0-0.7c0-0.1,0-0.2,0-0.4c1.6,0.8,3.1,1.6,4.6,2.4c-1,0.4-1.9,0.9-2.9,1.4c-1,0.5-1.9,1.1-2.9,1.7
		c-0.9,0.6-1.9,1.2-2.8,1.8c-0.5,0.3-0.9,0.7-1.3,1l-0.7,0.5c-0.2,0.2-0.5,0.3-0.6,0.4l0.1,0c-1.2,0.3-2.3,0.9-3.2,1.8
		c-0.4,0.4-0.8,1-1.1,1.5c-0.3,0.6-0.5,1.2-0.6,1.8l-0.1,0.3l0.3,0.2c0.7,0.5,1.4,0.8,2.1,1c-1.1,0.5-2.2,0.9-3.3,1.3
		c-0.7,0.2-1.3,0.4-2,0.6c-0.7,0.2-1.4,0.3-2,0.4c-1.3,0.2-2.7,0-4.1-0.3c-1.4-0.3-2.7-0.6-4.1-1.1c-0.7-0.2-1.3-0.5-2-0.7
		c-0.6-0.3-1.3-0.5-1.8-0.9c-1-0.7-1.8-1.9-2.2-3.1c-0.2-0.6-0.4-1.3-0.5-2c-0.1-0.8-0.3-1.5-0.6-2.2c-0.3-0.7-0.5-1.3-0.9-2
		c-0.2-0.3-0.3-0.6-0.5-1c-0.2-0.3-0.3-0.6-0.6-0.9c0.2,0.3,0.3,0.6,0.4,1c0.1,0.1,0.1,0.3,0.1,0.4c0.3,0.9,0.6,1.8,0.8,2.7
		c0.2,0.7,0.3,1.4,0.4,2c0,0.8,0.2,1.5,0.4,2.2c0.2,0.7,0.5,1.4,0.9,2.1c0.4,0.7,0.9,1.3,1.6,1.7c0.7,0.5,1.3,0.7,2,1
		c0.7,0.3,1.4,0.5,2,0.8c1.4,0.4,2.8,0.8,4.2,1c1.4,0.2,2.9,0.3,4.4,0.1c1.5-0.3,2.8-0.8,4.1-1.4c1.1-0.5,2.2-1.1,3.2-1.8
		c0.3,0.1,0.5,0.1,0.8,0.2c0.6,0.1,1.1,0.1,1.7,0.1c0.5,0,1-0.2,1.5-0.4c0.1,0,0.2,0,0.3,0c0.2,0,0.3,0,0.5,0c0.3,0,0.6,0,0.9-0.1
		c0.6-0.1,1.2-0.1,1.8-0.2c1.2-0.2,2.4-0.5,3.6-0.9c1.2-0.4,2.3-0.8,3.4-1.4c0.9-0.5,1.8-1.1,2.5-1.9c-0.1,0.5-0.3,1-0.5,1.2
		C126.7,107.4,126.4,107.7,126,108z M76.4,112.8c0,0-0.1,0-0.1,0c-0.3-0.1-0.6-0.2-0.8-0.3c-0.5-0.2-1.1-0.6-1.1-1.2
		c0-0.3,0-0.6,0-0.8c0-0.3,0-0.6,0-0.8c0-0.5,0-1-0.1-1.5c0.5,0.5,1.1,0.9,1.8,1.3c0.1,0.1,0.3,0.1,0.5,0.2c0.2,0.1,0.3,0.1,0.4,0.1
		c-0.1,0.1-0.1,0.3-0.2,0.4c-0.1,0.4-0.2,0.7-0.3,1.1C76.3,111.8,76.3,112.3,76.4,112.8z"/>
	<path class="st0" d="M19.1,92.7c-0.5-0.2-0.9-0.3-1.4-0.4c-0.5-0.1-1-0.1-1.5,0c-0.5,0.1-0.9,0.5-1.1,1c-0.2,0.5-0.2,1-0.3,1.4
		c-0.1,1-0.1,1.9,0.1,2.9c0.1,0.3,0.1,0.5,0.3,0.8c0.2,0.3,0.4,0.4,0.7,0.5c0.4,0.3,0.9,0.5,1.3,0.6c0.5,0.2,0.9,0.3,1.5,0.3
		c0.3,0,0.5,0,0.8,0c0.3-0.1,0.5-0.2,0.7-0.4c0.8-0.7,1.3-1.4,1.8-2.3c0.3-1,0-2.1-0.7-2.8C20.8,93.6,20,93.1,19.1,92.7z M20,99
		c-0.4,0.3-0.7,0.3-1.1,0.2c-0.4-0.1-0.9-0.2-1.3-0.4c-0.2-0.1-0.4-0.1-0.5-0.2c0.3,0.1,0.6,0.1,1,0.1c1.9-0.1,3.5-1.2,3.4-2.1
		c-0.1-0.9,0.2-1.5-1.7-2.5c-0.6-0.3-1.2-0.6-1.6-0.8c-0.9-0.3-1.9,0.1-2.3,1c-0.4,1-0.6,2-0.2,2.6c0.4,0.6,0.5,1.3,1.1,1.6
		c-0.2-0.1-0.3-0.1-0.5-0.2c-0.2-0.1-0.4-0.2-0.5-0.3c-0.1-0.1-0.2-0.3-0.2-0.5c-0.2-0.9-0.3-1.8-0.4-2.7c0-0.5,0-0.9,0.1-1.4
		c0.1-0.4,0.5-0.8,0.9-0.9c0.4-0.1,0.9,0,1.3,0.2c0.4,0.1,0.8,0.4,1.3,0.6c0.8,0.4,1.6,0.9,2.2,1.5c0.6,0.6,1,1.5,1,2.4
		C21.4,97.9,20.7,98.6,20,99z"/>
	<path class="st0" d="M43.1,100.6C43.1,100.6,43.1,100.5,43.1,100.6C43.1,100.5,43.1,100.5,43.1,100.6L43.1,100.6z"/>
	<path class="st0" d="M88.1,95.6c-0.2,0.8-0.5,2.9,0.7,2.7s1.5-1.3,2.1-1.2c0.6,0.1,0.6,1.1,1,0.9c0.4-0.2,0-0.7,0.6-0.7
		s0.8,0.7,1.3,0.7c0.5,0,0.5-0.6,0.9-0.5c0.5,0,0.7,0.2,1.1,0.4c0.4,0.2,0.2-0.4,0.8-0.3c0.6,0.1,1.3,0.4,1.6,0
		c0.3-0.4,0.2-0.5,0.9-0.2c0.8,0.4,1.3,0.4,1.4,0.9c0.2,0.5,0.5,1.1,0,1.5s-1,0.5-1.1,1.2c0.2,0.5,0.5,0.2,1-0.1
		c0.5-0.2,1.9-0.8,2.2-1.2c-0.6-0.4-0.8-0.3-1-0.8c-0.2-0.5-0.6-1.3-0.2-1.7c0.4-0.4,0.9-0.7,1-0.1c0.1,0.6-0.7,1.1,0.3,1.3
		c1,0.2,1.4,0.4,1.7,0.2c0.2-0.3,0.4-0.3,0.6,0.2c0.2,0.5,0.5,0.6,0.4,0c-0.2-0.7,0.9-1.1-0.4-1.3c-1.3-0.2-1.7,0-1.9-0.8
		c-0.1-0.8-0.2-1.2-0.5-1.9c-0.2-0.7,0.7-0.8-0.7-1c-1.4-0.2-1.4-1.2-1.9-0.3c-0.5,1-1,0.8-1.8,1c-0.8,0.2-1.1-0.3-1.6,0.3
		c-0.5,0.5-1,0.7-1.4,1.2c-0.4,0.5-0.5,0.5-1,0.1c-0.5-0.4-0.9-0.4-0.8-1c0.1-0.5,1-0.4,1.4-0.6c0.4-0.2,1.6-0.3,0.9-0.7
		c-0.7-0.4-1.2-0.2-1.8-0.6c-0.6-0.4-0.1-1.1-0.8-0.5c-0.7,0.6-0.7,0.9-0.7,1.1c0,0.2-0.3,0.4-0.3,0.4c-0.2,0-1.2-0.1-1.7,1.1
		c-0.6,0.2-0.9,0-1.1-0.3C89,95.3,88.7,95.8,88.1,95.6z"/>
	<path class="st0" d="M96.4,99.7c-1.2-0.1-1,0-1,0c-0.7,0.3-0.9,0.1-0.7,0.5c0.3,0.4,0.2,0.6,0.9,0.5c0.7-0.2,1.1,0,1-0.3
		C96.5,99.9,97.6,99.7,96.4,99.7z"/>
	<path class="st0" d="M4.7,89.9c-0.3,0-0.5,0.4-0.5,0.4c-0.4,0.3-0.5,0.5-0.1,0.6c0.4,0.1,0.5,0.2,0.8,0c0.3-0.1,0.7-0.2,0.4-0.6
		C4.9,90,5.1,89.9,4.7,89.9z"/>
	<path class="st0" d="M11.4,92.3c-0.7-0.2-0.6-0.6-0.8-0.2c-0.2,0.3,0,0.6,0,0.6c-0.2,0.3-0.4,0.5,0.1,0.6c0.5,0.1,0.7,0.2,0.8-0.2
		C11.5,92.7,12,92.5,11.4,92.3z"/>
	<path class="st0" d="M8,90.8c-0.5,0.2-0.5,0.5-0.5,0.5c-0.4,0.2-0.6,0.4-0.2,0.6c0.4,0.2,0.8,0.3,0.9,0.1c0.2-0.2,0.7-0.3,0.4-0.7
		C8.2,91,8.4,90.6,8,90.8z"/>
	<path class="st0" d="M13.6,93.4c-0.4,0.1-0.4,0.4-0.4,0.4c-0.3,0.2-0.5,0.4-0.2,0.5c0.3,0.1,0.6,0.3,0.7,0.1
		c0.1-0.1,0.5-0.2,0.3-0.5S13.9,93.2,13.6,93.4z"/>
	<path class="st0" d="M13.1,88.8c-0.3-0.3-0.1-0.5-0.4-0.4c-0.3,0-0.5,0.4-0.5,0.4c-0.4,0.2-0.5,0.4-0.1,0.6c0.3,0.1,0.4,0.2,0.7,0
		C13,89.2,13.4,89.1,13.1,88.8z"/>
	<path class="st0" d="M4.6,86.2C4.9,86.1,5.3,86,5,85.7c-0.3-0.3-0.1-0.5-0.4-0.4c-0.3,0-0.5,0.4-0.5,0.4C3.7,85.9,3.6,86,4,86.2
		C4.3,86.3,4.4,86.3,4.6,86.2z"/>
	<path class="st0" d="M10.3,87.4c-0.6-0.2-0.6-0.5-0.8-0.2s0,0.6,0,0.6c-0.2,0.3-0.4,0.5,0.1,0.6c0.4,0.1,0.7,0.2,0.8-0.2
		C10.4,87.8,10.9,87.6,10.3,87.4z"/>
	<path class="st0" d="M7.3,86.2c-0.3-0.4-0.1-0.7-0.5-0.5c-0.4,0.2-0.5,0.5-0.5,0.5c-0.4,0.2-0.6,0.4-0.2,0.6
		c0.4,0.2,0.7,0.3,0.9,0.1C7.1,86.6,7.6,86.5,7.3,86.2z"/>
	<path class="st0" d="M15.6,90.6c0.2-0.2,0.6-0.2,0.3-0.6c-0.3-0.4-0.1-0.7-0.5-0.5c-0.4,0.2-0.5,0.5-0.5,0.5
		c-0.4,0.2-0.6,0.4-0.2,0.6C15.1,90.6,15.4,90.8,15.6,90.6z"/>
	<path class="st0" d="M51.7,106.3c-0.3,0-0.5,0.4-0.5,0.4c-0.4,0.3-0.5,0.5-0.1,0.6c0.4,0.1,0.5,0.2,0.8,0c0.3-0.1,0.7-0.2,0.4-0.6
		S52.1,106.3,51.7,106.3z"/>
	<path class="st0" d="M65.8,107.3c-0.3,0-0.5,0.4-0.5,0.4c-0.4,0.3-0.5,0.5-0.1,0.6c0.4,0.1,0.5,0.2,0.8,0c0.3-0.1,0.7-0.2,0.4-0.6
		C65.9,107.4,66.1,107.2,65.8,107.3z"/>
	<path class="st0" d="M96.1,104.9c-0.3,0-0.5,0.4-0.5,0.4c-0.4,0.3-0.5,0.5-0.1,0.6c0.4,0.1,0.5,0.2,0.8,0c0.3-0.1,0.7-0.2,0.4-0.6
		C96.3,105,96.4,104.9,96.1,104.9z"/>
	<path class="st0" d="M101.3,103.5c-0.5,0.1-0.7,0.6-0.7,0.6c-0.5,0.4-0.7,0.6-0.2,0.8c0.5,0.2,0.7,0.2,1,0c0.4-0.2,0.9-0.3,0.5-0.8
		C101.6,103.6,101.8,103.4,101.3,103.5z"/>
	<path class="st0" d="M57,90.8c0.4,0.1,0.5,0.2,0.8,0c0.3-0.1,0.7-0.2,0.4-0.6c-0.3-0.3-0.1-0.5-0.5-0.5c-0.3,0-0.5,0.4-0.5,0.4
		C56.7,90.5,56.6,90.7,57,90.8z"/>
	<path class="st0" d="M65.9,89.1c0.4,0.1,0.5,0.2,0.8,0c0.3-0.1,0.7-0.2,0.4-0.6c-0.3-0.3-0.1-0.5-0.5-0.5c-0.3,0-0.5,0.4-0.5,0.4
		C65.6,88.8,65.5,89,65.9,89.1z"/>
	<path class="st0" d="M48.5,100.1c-0.7-0.2-0.6-0.6-0.8-0.2c-0.2,0.3,0,0.6,0,0.6c-0.2,0.3-0.4,0.5,0.1,0.6c0.5,0.1,0.7,0.2,0.8-0.2
		C48.6,100.6,49.2,100.4,48.5,100.1z"/>
	<path class="st0" d="M72.6,97.7c-0.7-0.2-0.6-0.6-0.8-0.2c-0.2,0.3,0,0.6,0,0.6c-0.2,0.3-0.4,0.5,0.1,0.6c0.5,0.1,0.7,0.2,0.8-0.2
		C72.7,98.1,73.3,97.9,72.6,97.7z"/>
	<path class="st0" d="M53.6,91.8c0.3-0.1,0.8,0.2,0.7-0.5c-0.1-0.7,0.2-0.9-0.2-0.8s-0.7,0.1-0.7,0.1c-0.4,0-0.6,0.2-0.4,0.6
		C53.2,91.7,53.3,91.9,53.6,91.8z"/>
	<path class="st0" d="M50.8,92.6c0.1-0.3,0.6-0.6,0-0.8c-0.7-0.2-0.6-0.6-0.8-0.2c-0.2,0.3,0,0.6,0,0.6c-0.2,0.3-0.4,0.5,0.1,0.6
		C50.4,92.9,50.7,92.9,50.8,92.6z"/>
	<path class="st0" d="M28.1,102c-0.5,0.2-0.5,0.5-0.5,0.5c-0.4,0.2-0.6,0.4-0.2,0.6c0.4,0.2,0.8,0.3,0.9,0.1
		c0.2-0.2,0.7-0.3,0.4-0.7C28.3,102.2,28.5,101.8,28.1,102z"/>
	<path class="st0" d="M33.2,103c-0.5,0.2-0.5,0.5-0.5,0.5c-0.4,0.2-0.6,0.4-0.2,0.6c0.4,0.2,0.8,0.3,0.9,0.1
		c0.2-0.2,0.7-0.3,0.4-0.7C33.5,103.2,33.7,102.9,33.2,103z"/>
	<path class="st0" d="M29.3,97c-0.4,0.2-0.5,0.4-0.5,0.4c-0.3,0.2-0.6,0.4-0.2,0.5c0.4,0.2,0.7,0.3,0.8,0.1c0.2-0.2,0.6-0.2,0.3-0.6
		C29.6,97.2,29.7,96.9,29.3,97z"/>
	<path class="st0" d="M57.9,99.4c-0.4,0.1-0.4,0.4-0.4,0.4c-0.3,0.2-0.5,0.4-0.2,0.5c0.3,0.1,0.6,0.3,0.7,0.1
		c0.1-0.1,0.5-0.2,0.3-0.5C58.1,99.5,58.3,99.3,57.9,99.4z"/>
	<path class="st0" d="M33,97.6c0.4,0.2,0.7,0.3,0.9,0.1c0.2-0.2,0.6-0.2,0.3-0.6c-0.3-0.4-0.1-0.7-0.5-0.5c-0.4,0.2-0.5,0.5-0.5,0.5
		C32.8,97.3,32.6,97.4,33,97.6z"/>
	<path class="st0" d="M104.2,95.1c0.4,0.2,0.7,0.3,0.9,0.1c0.2-0.2,0.6-0.2,0.3-0.6c-0.3-0.4-0.1-0.7-0.5-0.5
		c-0.4,0.2-0.5,0.5-0.5,0.5C104,94.8,103.8,95,104.2,95.1z"/>
	<path class="st0" d="M97.7,92.8c0.2,0,0.6,0.3,0.7-0.2s0.4-0.5,0-0.8c-0.4-0.2-0.7,0-0.7,0c-0.4-0.1-0.7-0.1-0.5,0.3
		C97.4,92.5,97.5,92.8,97.7,92.8z"/>
	<path class="st0" d="M37,96.5L37,96.5c0.7-0.1,1.4-0.3,2-0.4c0.7-0.1,1.3-0.3,2-0.5c0,0,0,0,0,0c0.3-0.1,0.5-0.4,0.4-0.7
		c-0.1-0.3-0.4-0.5-0.7-0.4l0,0c-1.3,0.4-2.6,0.8-3.9,1.1c-0.2,0.1-0.4,0.3-0.3,0.5C36.5,96.4,36.8,96.6,37,96.5z"/>
	<path class="st0" d="M68.9,89.2L68.9,89.2c0.7,0,1.4,0,2.1-0.1l2-0.1l0,0c0.4,0,0.7-0.3,0.6-0.7c0-0.4-0.3-0.7-0.7-0.7l-2.1,0.1
		c-0.7,0-1.4,0.1-2.1,0.1c-0.4,0-0.6,0.3-0.6,0.7C68.2,88.9,68.5,89.2,68.9,89.2z"/>
	<path class="st0" d="M71.5,106.5c-0.7,0.1-1.3,0.3-2,0.4c-0.7,0.1-1.3,0.2-2,0.4c-0.2,0-0.3,0.2-0.3,0.3c0,0.2,0.2,0.3,0.3,0.3
		c0.7,0,1.4-0.1,2.1-0.1c0.7-0.1,1.4-0.1,2-0.2l0,0c0,0,0,0,0,0c0.3-0.1,0.5-0.3,0.4-0.6C72.1,106.6,71.8,106.4,71.5,106.5z"/>
	<path class="st0" d="M58.2,107L58.2,107c-0.7-0.1-1.4-0.1-2-0.2l-2-0.2l0,0c0,0,0,0,0,0c-0.3,0-0.6,0.2-0.6,0.6
		c0,0.3,0.2,0.6,0.6,0.6l2.1,0.1c0.7,0,1.4,0,2.1,0c0.2,0,0.4-0.2,0.5-0.4C58.6,107.3,58.4,107,58.2,107z"/>
	<path class="st0" d="M40.2,105L40.2,105l-2-0.3c-0.7-0.1-1.3-0.2-2-0.3l0,0c-0.2,0-0.4,0.1-0.5,0.3c-0.1,0.2,0.1,0.5,0.3,0.6
		c0.7,0.2,1.3,0.3,2,0.5l2,0.5c0,0,0,0,0,0c0.3,0.1,0.6-0.2,0.7-0.5C40.7,105.3,40.5,105,40.2,105z"/>
	<path class="st0" d="M54.9,100.2c0-0.2-0.2-0.5-0.4-0.5c-1.3,0-2.5,0-3.8,0c0,0,0,0,0,0c-0.3,0-0.6,0.3-0.5,0.6
		c0,0.3,0.3,0.6,0.6,0.6c1.3-0.1,2.5-0.2,3.8-0.3C54.7,100.7,54.9,100.5,54.9,100.2z"/>
	<path class="st0" d="M41.6,100L41.6,100c-1.3,0-2.5,0.1-3.8,0.2l0,0c-0.2,0-0.4,0.2-0.4,0.4c0,0.3,0.2,0.5,0.4,0.5
		c1.3,0.1,2.5,0.1,3.8,0.1c0,0,0,0,0,0c0.3,0,0.6-0.3,0.6-0.6C42.2,100.2,41.9,100,41.6,100z"/>
	<path class="st0" d="M33.6,99.8c-0.4,0-0.7,0.3-0.7,0.7c0,0.4,0.3,0.7,0.7,0.7c0.4,0,1-0.5,0.7-0.7C33.9,100.3,33.9,99.8,33.6,99.8
		z"/>
	<path class="st0" d="M28.7,99.4c-0.3,0-0.6,0.3-0.6,0.6s0.3,0.6,0.6,0.6s0.8-0.4,0.6-0.6C29.1,99.8,29.1,99.4,28.7,99.4z"/>
	<path class="st0" d="M24.7,102.6c-0.3,0-0.6,0.3-0.6,0.6c0,0.3,0.3,0.6,0.6,0.6c0.3,0,0.8-0.4,0.6-0.6C25,103,25,102.6,24.7,102.6z
		"/>
	<path class="st0" d="M85.1,87.6c-0.3,0-0.6,0.3-0.6,0.6s0.3,0.6,0.6,0.6s0.8-0.4,0.6-0.6C85.4,88,85.4,87.6,85.1,87.6z"/>
	<path class="st0" d="M90,98.5c-0.3,0-0.6,0.3-0.6,0.6c0,0.3,0.3,0.6,0.6,0.6s0.8-0.4,0.6-0.6C90.3,98.9,90.3,98.5,90,98.5z"/>
	<path class="st0" d="M91.2,89.3c0.3-0.1,0.7-0.6,0.4-0.7c-0.3-0.1-0.4-0.5-0.7-0.4c-0.3,0.1-0.5,0.4-0.4,0.7
		C90.6,89.3,90.9,89.4,91.2,89.3z"/>
	<path class="st0" d="M96.7,102.3c-0.3-0.1-0.4-0.5-0.7-0.4c-0.3,0.1-0.5,0.4-0.4,0.7c0.1,0.3,0.4,0.5,0.7,0.4
		C96.6,102.9,97,102.4,96.7,102.3z"/>
	<path class="st0" d="M99.8,107.2c-0.4-0.1-0.6-0.7-1.1-0.6c-0.5,0.1-0.7,0.6-0.6,1.1c0.1,0.5,0.6,0.7,1.1,0.6
		C99.7,108.1,100.3,107.3,99.8,107.2z"/>
	<path class="st0" d="M88.8,89.2c-0.2-0.4,0.2-0.9-0.2-1.2c-0.4-0.3-0.9-0.2-1.2,0.2c-0.3,0.4-0.2,0.9,0.2,1.2
		C88,89.7,89,89.6,88.8,89.2z"/>
	<path class="st0" d="M92.7,104.7c-0.4-0.3-0.9-0.2-1.2,0.2c-0.3,0.4-0.2,0.9,0.2,1.2c0.4,0.3,1.4,0.2,1.2-0.2
		C92.7,105.4,93.1,104.9,92.7,104.7z"/>
	<path class="st0" d="M84.5,97.1c-0.3-0.2-0.7-0.1-0.9,0.2c-0.2,0.3-0.1,0.7,0.2,0.9c0.3,0.2,1,0.1,0.9-0.2
		C84.5,97.7,84.8,97.3,84.5,97.1z"/>
	<path class="st0" d="M26.3,96.8c-0.2-0.2-0.6-0.1-0.8,0.1c-0.2,0.3-0.1,0.6,0.1,0.8c0.2,0.2,0.9,0.2,0.8-0.1S26.6,97,26.3,96.8z"/>
	<path class="st0" d="M24.8,100.5c-0.1-0.3,0.1-0.6-0.1-0.8c-0.2-0.2-0.6-0.1-0.8,0.1c-0.2,0.3-0.1,0.6,0.1,0.8
		C24.2,100.8,24.9,100.7,24.8,100.5z"/>
</g>
</svg>
