<?xml version="1.0" encoding="utf-8"?>
<!-- Generator: Adobe Illustrator 23.0.0, SVG Export Plug-In . SVG Version: 6.00 Build 0)  -->
<svg version="1.1" id="Layer_1" xmlns="http://www.w3.org/2000/svg" xmlns:xlink="http://www.w3.org/1999/xlink" x="0px" y="0px"
	 viewBox="0 0 128 128" 
width="128" height="128"
style="enable-background:new 0 0 128 128;" xml:space="preserve">
<style type="text/css">
	.st0{fill:#2D2D2D;}
</style>
<g>
	<path class="st0" d="M100.4,9.1c0.9,0,1.5-0.7,1.5-1.5c0-0.8-0.7-1.5-1.5-1.5c-0.9,0-1.5,0.7-1.5,1.5C98.8,8.4,99.5,9.1,100.4,9.1z
		"/>
	<path class="st0" d="M128,31.3L128,31.3c-0.1-0.1-0.1-0.1-0.1-0.2l-0.1-0.1l-0.1-0.2l-0.3-0.4l-1.2-1.6c-1.6-2.1-3.2-4.1-5-6.1
		c-1.7-2-3.4-4-5.4-5.8c-2-1.8-4-3.4-6.2-4.8c-0.3-0.5-0.7-0.9-1.1-1.3c-0.4-0.4-0.8-0.9-1.3-1.3l-0.3-0.3c0-0.7-0.1-1.5-0.3-2.2
		c-0.2-1-0.6-2-1.2-2.8c-1.1-1.8-2.9-3.2-4.9-3.8c-2-0.6-4.1-0.6-6.1-0.1c-1,0.2-1.9,0.6-2.8,1.1c-0.6,0.3-1.1,0.7-1.5,1.2
		c0,0,0,0,0,0c-0.3,0.2-0.5,0.5-0.7,0.7c-1.3,1.5-2.5,3.2-3,5.3c-0.2,1-0.3,2.1-0.3,3.1c0,1.1,0.2,2.1,0.5,3.1
		c0.2,0.5,0.3,1,0.6,1.4c0.2,0.5,0.4,0.9,0.7,1.4l0.8,1.3c0.3,0.4,0.6,0.8,0.8,1.2c1.1,1.6,2.3,3.1,3,4.8c0.1,0.8-0.4,1.7-0.6,2.5
		c-0.4-0.4-0.8-0.5-1.2-0.8L89,25.9c-0.7-0.2-1.3-0.4-1.8-0.6c-0.6-0.1-1.2-0.3-1.8-0.4c-2.4-0.5-4.9-0.6-7.4-0.6
		c-5,0.2-9.9,1-14.7,2.1c-9.6,2.4-19,5.7-27.6,10.7c-4.3,2.5-8.3,5.4-12,8.8c-3.7,3.4-6.9,7.1-9.8,11.1c-1.3,2.1-2.5,4.2-3.7,6.4
		c-1.2,2.1-2.4,4.3-3.5,6.5c-1.1,2.2-2.2,4.4-3.3,6.6c-1.1,2.2-2.1,4.4-2.9,6.8l-0.3,1l1-0.4c4.8-1.8,9.9-2.6,15-3.5
		c5.1-0.9,10.2-1.7,15.3-2.7c4.3-0.9,8.7-1.9,13-3.2l-0.9,1.6c-0.1,0.2-0.2,0.3-0.3,0.4c-0.9,0.7-3.8,3.3-3.3,7.5c0,0.3,0,0.5,0,0.7
		c-0.8,3.9-5.5,31.6-6.2,35.9l-5.3,0.6c-0.5,0.1-0.9,0.3-1.2,0.7c-0.3,0.4-0.4,0.9-0.3,1.4l0.1,0.4c0.2,0.9,1,1.5,1.8,1.4
		c1.6-0.1,5.3-0.5,6.8-0.5c1.3,0.3,6.3,2,10.3,3.4c0.1,0,0.2,0.1,0.4,0.1c0.3,0,0.7-0.2,0.9-0.5c0.5-0.7,0.6-1.7,0.2-2.5
		c-0.3-0.7-0.9-1.2-1.6-1.4c-4.1-1.3-6.9-2.3-8.2-2.8c0.8-4.2,6.3-32.2,6.8-34.7c0.1-0.3,0.2-0.5,0.4-0.7c0.8-0.8,3.4-3.6,3.2-6.8
		c0-0.2,0-0.5,0.2-0.7c1-1.7,2.7-4.7,3.3-5.8c2.6-1,5.1-2.2,7.5-3.5c-0.4,2.9-1.4,9.2-1.8,11.7c0,0.1-0.1,0.3-0.1,0.4
		c-0.8,2-1.1,5.3,0.9,7.9c1.6,2.9,18.3,28.9,20.9,32.9l-4,2.5c-0.4,0.3-0.7,0.7-0.8,1.2c-0.1,0.5,0.1,1,0.4,1.4l0.6,0.7
		c0.3,0.4,0.7,0.5,1.1,0.5c0.3,0,0.6-0.1,0.8-0.2c1.1-0.7,4.7-3.1,6.1-3.8c1.4-0.2,7.4-0.3,11.1-0.3l0.7,0l0.1-0.8
		c0.1-0.8-0.1-1.7-0.7-2.3c-0.6-0.6-1.3-1-2.2-1c-2.7,0-6.8,0.1-8.3,0.1c-2.4-2.4-19.4-28.5-21-31.6c-0.2-0.4-0.3-0.8-0.2-1.2
		c0.3-1.7,0.1-3.7-0.6-5.6c-0.1-0.3-0.1-0.6,0-1c0.8-3.4,2.1-13.1,2.4-15.2c0.3-0.2,0.5-0.4,0.8-0.6c0.8-0.6,1.5-1.1,2.2-1.7
		c0.3-0.3,0.8-0.5,1.2-0.5c0.5,0,1-0.1,1.4-0.1c1-0.1,2-0.4,2.9-0.6c1-0.3,1.9-0.6,2.9-0.9c0.1,0,0.1-0.1,0.2-0.1
		c-0.5,0.5-1,1-1.5,1.4l-2,1.6l2.6-0.1c1.4,0,2.7-0.3,4.1-0.7l-1.7,1.2l3.9-0.4c0.9-0.1,1.9-0.3,2.8-0.5c0.9-0.3,1.8-0.7,2.6-1.2
		c0.4-0.2,0.8-0.5,1.1-0.8l-0.7,1.2l1.9-0.7c2.4-0.9,4.8-2,7-3.5c1.1-0.7,2.1-1.5,3.1-2.4c0.9-0.9,1.8-1.9,2.6-2.9
		c1.5-2.1,2.6-4.6,3-7.2c0.2-1.3,0.3-2.6,0.2-4c0-0.7-0.1-1.3-0.2-2c-0.1-0.5-0.2-0.9-0.3-1.4c0.5-0.5,1.1-1,1.6-1.6
		c0.6-0.7,1.2-1.6,1.5-2.5c0.4-0.9,0.6-1.9,0.7-2.8c0.1-0.5,0.1-0.9,0.1-1.4l0-0.7c0-0.2,0-0.5,0-0.7c-0.1-1.9-0.7-3.7-1.5-5.4
		c-0.4-0.8-0.9-1.6-1.4-2.4c-0.3-0.4-0.5-0.8-0.8-1.1c1.7,0.8,3.5,1.4,5.3,2c0.3,0.1,0.6,0.2,0.9,0.3l0.4,0.2l0.4,0.2l1.7,1l3.5,1.9
		c2.3,1.2,4.6,2.5,6.8,3.9c1.1,0.7,2.2,1.4,3.3,2.1l0.4,0.3l0.2,0.1l0.1,0.1l0.1,0c0,0,0,0,0.2,0.1c0.1,0,0.2,0,0.2,0
		C127.8,31.9,128.1,31.4,128,31.3z M107.1,10.9c0.5,0.7,1,1.4,1.4,2.1l0.1,0.1l0.1,0.1c2,1.6,4,3.3,5.9,5c1.9,1.7,3.7,3.6,5.4,5.5
		l2.9,3.2c-0.8-0.7-1.6-1.4-2.4-2.1c-0.9-0.7-1.8-1.3-2.7-2c-0.9-0.7-1.9-1.3-2.8-1.8c-1-0.6-1.9-1.2-2.8-1.9
		c-0.9-0.7-1.6-1.6-2.4-2.4c-0.8-0.8-1.7-1.4-2.7-2c-0.9-0.6-1.8-1.2-2.8-1.6c0,0,0.1,0,0.1,0c0.8,0,1.5-0.4,2-1
		C106.8,11.7,107,11.3,107.1,10.9z M94.7,1.1c1.9-0.2,3.7,0.3,5.4,0.9c0.2,0.1,0.4,0.2,0.6,0.2l0.6,0.3c0.4,0.2,0.8,0.4,1.1,0.7
		c0.7,0.5,1.4,1.1,1.9,1.8c0.6,0.7,1,1.5,1.4,2.3c0.3,0.6,0.5,1.3,0.7,2l0,0.5c0,0.6-0.2,1.3-0.5,1.8c-0.3,0.6-0.9,0.9-1.5,1
		c-0.3,0-0.7,0-1,0c-0.3,0-0.7-0.1-1-0.2c-0.4-0.1-0.9-0.3-1.3-0.5c-1-0.4-3.2-1.2-4.4-1.5c-1.1-0.3-2.2-0.9-3.1-1.7
		C92.9,8,92.2,7,91.6,5.9c-0.5-0.8-0.8-1.7-1.1-2.6C91.5,2.1,93,1.2,94.7,1.1z M46.5,77.1c-0.3,0.5-0.4,1-0.4,1.6
		c0.2,2.6-2.2,5.1-2.7,5.6c-0.4,0.4-0.7,1-0.8,1.6c-0.5,2.7-6.9,34.9-6.9,35.2c0,0.2,0,0.3,0.1,0.4c0,0.3,0.2,0.5,0.5,0.6
		c1.1,0.5,5.5,1.9,8.9,3.1c0.4,0.1,0.6,0.4,0.6,0.6c0.1,0.2,0.1,0.4,0,0.5c-2.5-0.9-8.7-3.1-10.2-3.3l-0.1,0l-0.1,0
		c-1.4,0-4.9,0.3-6.9,0.5c-0.1,0-0.1,0-0.1-0.1l-0.1-0.4c0-0.1,0-0.1,0-0.1c0,0,0.1-0.1,0.1-0.1l5.8-0.7c0.2,0,0.4-0.1,0.5-0.2
		c0.2-0.1,0.3-0.3,0.3-0.5C35,121,40.5,89.1,41.3,85c0.1-0.4,0.1-0.7,0-1.2c-0.4-3.3,1.8-5.3,2.7-6.1c0.3-0.2,0.6-0.5,0.7-0.9
		l1.7-3.1c0,0,0,0,0.1,0c0.8-0.3,1.6-0.5,2.3-0.8C48.1,74.3,47.2,76,46.5,77.1z M60.1,80c-0.2,0.7-0.1,1.3,0.1,1.9
		c0.6,1.6,0.8,3.4,0.5,4.8c-0.1,0.8,0,1.5,0.3,2.2c1.8,3.4,19.3,30.2,21.5,32.2c0.1,0.1,0.2,0.1,0.3,0.2c0.1,0.1,0.3,0.2,0.5,0.2
		c0,0,0,0,0,0c1.2,0,5.6-0.1,8.5-0.1c0.4,0,0.7,0.1,1,0.4c0.1,0.1,0.2,0.3,0.3,0.5c-2.5,0-9.3,0-10.8,0.3l-0.2,0.1
		c-1.3,0.6-4.7,2.8-6.2,3.8l-0.5-0.6c-0.1-0.1-0.1-0.1,0-0.2c0,0,0-0.1,0.1-0.2l4.6-2.9c0.3-0.2,0.4-0.6,0.3-1
		c0-0.1-0.1-0.2-0.1-0.3C80,120.9,60.4,90.4,59,87.8l-0.1-0.1c-1.6-2.1-1.4-4.8-0.7-6.5c0.1-0.3,0.2-0.5,0.2-0.8
		c0.5-3,1.8-11.2,2-13c0.1-0.1,0.3-0.2,0.4-0.3l0.1,0l0.1-0.1c0.2-0.1,0.5-0.4,0.9-0.6l0.3-0.2C61.8,69.8,60.7,77.2,60.1,80z
		 M63.6,63c-0.6,0.4-1.2,0.9-1.9,1.3l-1,0.6c-0.3,0.2-0.6,0.4-0.9,0.7c-4.3,2.6-9.1,4.7-13.9,6.3c-4.9,1.7-9.9,2.9-14.9,4
		c-5.1,1.1-10.2,2-15.3,3c-2.6,0.5-5.1,1-7.6,1.7l-1.9,0.5c-0.6,0.2-1.3,0.4-1.9,0.6c-0.9,0.3-1.8,0.6-2.7,0.9
		c0.6-2,2.4-3.4,3.2-5.3c1-2.2,2.1-4.4,3.2-6.6c2.2-4.3,4.6-8.7,7.1-12.8c0.3-0.5,0.7-1,1.1-1.4c0.4-0.5,0.8-0.9,1.2-1.4
		c0.8-0.9,1.6-1.8,2.4-2.7c1.7-1.8,2.9-3.6,4.8-5.2c3.7-3.2,7.5-6.2,11.7-8.6c4.3-2.4,8.7-4.4,13.2-6.2c1.1-0.4,2.3-0.8,3.4-1.3
		c1.1-0.4,2.3-0.8,3.5-1.2c2.3-0.8,4.7-1.4,7-2.1c1.5-0.4,3.1-0.8,4.6-1.1c0.5,0,1,0,1.5,0.1c1.6,0.2,3.2,0.7,4.6,1.5
		c1.4,0.8,2.6,2,3.4,3.4c0.8,1.4,1.1,3,1,4.5l0,0l0,0.1c0.1,3-0.3,6.1-1.2,9c-0.9,2.9-2.3,5.6-4,8.1c-1.8,2.5-3.9,4.7-6.2,6.7
		C66,61.1,64.8,62.1,63.6,63z M105.6,23.6c0.3,0.8,0.5,1.7,0.7,2.5c0.1,0.4,0.1,0.8,0.2,1.3c0,0.4,0.1,0.8,0,1.3
		c-0.1,1.7-0.3,3.5-1,5c-0.6,1.5-1.8,2.6-3.2,3.8l-0.4,0.4l0.2,0.5c0.4,1.1,0.6,2.3,0.8,3.5c0.2,1.2,0.2,2.5,0.1,3.7
		c-0.1,1.2-0.3,2.5-0.7,3.6c-0.4,1.2-0.9,2.3-1.7,3.4c-0.7,1-1.6,2-2.5,2.8c-0.5,0.4-1,0.8-1.5,1.2L96,57.1l-0.8,0.5
		c-1.6,0.9-3.4,1.7-5.1,2.3c0.1-0.2,0.3-0.5,0.4-0.7c0.1-0.1,0.1-0.3,0.2-0.4c0.1-0.2,0.1-0.3,0.2-0.6l0.4-2.2l-1.7,1.4
		c-0.7,0.6-1.4,1.1-2,1.6c-0.7,0.5-1.4,1-2.1,1.4C85,60.6,84.5,60.8,84,61c0-0.1,0.1-0.1,0.1-0.2c0.1-0.2,0.2-0.3,0.3-0.6l1.3-2.8
		L83,59c-0.6,0.3-1.3,0.7-2,1c-0.7,0.3-1.4,0.6-2.1,0.8c-0.6,0.2-1.2,0.4-1.9,0.5c0.3-0.3,0.5-0.7,0.7-1c0.2-0.4,0.5-0.7,0.7-1.1
		l1.2-2.2l-2.2,1.1c-0.8,0.4-1.7,0.9-2.6,1.3c-0.9,0.4-1.8,0.8-2.7,1.1c-0.9,0.3-1.8,0.7-2.8,0.9c-0.5,0.1-1,0.3-1.5,0.3
		c0.1-0.1,0.3-0.3,0.5-0.4c2.4-2.1,4.5-4.5,6.3-7.1c1.8-2.6,3.2-5.5,4.1-8.6c0.9-3.1,1.2-6.3,1-9.4c0.1-1.8-0.4-3.6-1.3-5.1
		c-0.9-1.5-2.3-2.7-3.8-3.5c-1.5-0.8-3.1-1.2-4.8-1.4c2.6-0.5,5.3-0.9,8-1.1c2.4-0.1,4.9-0.2,7.3,0.2c0.6,0.1,1.2,0.2,1.8,0.3
		c0.6,0.2,1.2,0.3,1.7,0.5c1.1,0.4,2.3,0.9,3.2,1.7l0,0c0,0,0,0,0,0c0,0,0,0,0,0c0,0,0,0,0,0c0,0,0,0,0.1,0c0,0,0,0,0,0c0,0,0,0,0,0
		c0,0,0,0,0,0c0,0,0,0,0,0c0.3-0.4,0.8-1.3,1-1.7c0.2-0.5,0.3-1,0.4-1.5l0,0l0-0.1c-0.4-2-1.4-3.8-2.3-5.5c-0.2-0.4-0.5-0.8-0.7-1.2
		l-0.6-1.3c-0.2-0.4-0.4-0.8-0.6-1.2c-0.2-0.4-0.3-0.8-0.5-1.3c-0.1-0.4-0.3-0.9-0.4-1.3c-0.1-0.4-0.2-0.9-0.2-1.3
		c-0.1-0.9-0.1-1.8,0-2.7c0.2-1.8,0.9-3.5,2-5.1c0.1-0.1,0.1-0.2,0.2-0.3c0.1,0.9,0.3,1.8,0.7,2.6c0.4,1.2,1.1,2.4,2,3.4
		c0.9,1,2.1,1.8,3.4,2.3c1.2,0.4,1.7,0.6,2.9,0.6c0,0.2,0,0.5-0.1,0.7c0,0.7,0,1.3,0.1,2c0.1,0.7,0.3,1.3,0.7,1.9
		c0.4,0.6,1.6,1.1,2.2,1.4c0.4,0.3,0.9,0.5,1.3,0.8C104.4,20.7,105.1,22.1,105.6,23.6z M123.5,28.8c-2.3-1.3-4.5-2.7-6.6-4.2
		c-1.1-0.7-2.2-1.5-3.3-2.2c-0.5-0.4-1.1-0.7-1.7-1.1l-0.4-0.3c-0.2-0.1-0.3-0.2-0.5-0.3c-0.3-0.1-0.6-0.3-1-0.4
		c-2.5-0.9-5.1-1.4-7.4-2.5c-0.6-0.3-1.1-0.6-1.5-1.1c-0.4-0.5-0.7-1-0.8-1.7c-0.2-0.6-0.2-1.3-0.2-1.9c0-0.2,0-0.5,0-0.7
		c0.2-0.5,0.4-0.4,0.9-0.2c0.5,0.2,0.8,0.3,1.3,0.4c0.6,0.2,1.1,0.3,1.7,0.3c0,0,0.1,0.1,0.1,0.1c0.7,0.9,1.5,1.7,2.3,2.5
		c0.8,0.8,1.7,1.5,2.6,2.1c0.9,0.6,2,1.1,2.9,1.7c0.9,0.6,1.7,1.4,2.5,2.2c0.8,0.8,1.6,1.6,2.4,2.3c0.8,0.7,1.7,1.5,2.6,2.1
		c1.8,1.3,3.7,2.6,5.8,3.5c0,0,0.1,0,0.1,0c0,0,0,0,0,0l0.6,0.6C125.1,29.7,124.3,29.3,123.5,28.8z"/>
	<path class="st0" d="M72.5,44.8c0-0.2,0-0.3-0.1-0.5l0-0.1l-0.1-0.5c-0.1-0.3-0.2-0.6-0.3-0.9c-0.2-0.6-0.5-1.2-0.8-1.8
		c-0.3-0.6-0.7-1.1-1.1-1.6c-0.4-0.5-0.9-0.9-1.3-1.3c0.4,0.5,0.7,1,0.9,1.5c0.3,0.5,0.4,1.1,0.6,1.6c0.1,0.6,0.2,1.1,0.2,1.7
		c0,0.3,0,0.6,0,0.8l0,0.4l0,0.2l0,0.1l0,0c-0.2,3.5-3.1,6.4-5.9,7.1c-0.6,0.2-2,0.4-2.6-0.4c0,0,0-0.1-0.1-0.1L62,51.2
		c-0.1-0.3-0.2-0.7-0.3-1c-0.2-0.7-0.5-1.4-0.8-2c-0.3-0.6-0.7-1.3-1.1-1.8c-0.4-0.6-0.9-1.1-1.5-1.5c0.9,1.1,1.4,2.4,1.7,3.7
		c0.1,0.7,0.2,1.3,0.3,2c0,0.3,0,0.7,0,1l0,0.5l0,0.2c-0.2,3.5-3.1,6.3-5.9,7.1c-0.5,0.1-1.6,0.4-2.3-0.1l0-0.2l0.1-0.6
		c0.1-0.4,0.2-0.8,0.2-1.2c0.1-0.8,0.2-1.6,0.2-2.3c0-0.8,0-1.6-0.2-2.3c-0.2-0.8-0.4-1.5-0.8-2.1c0.2,0.7,0.4,1.5,0.4,2.2
		c0,0.7-0.1,1.5-0.3,2.2c-0.2,0.7-0.4,1.4-0.7,2.1c-0.1,0.3-0.3,0.7-0.4,1l-0.2,0.5l-0.1,0.2l-0.2,0.3c-2.8,4.3-6.6,5.8-8.6,5.7
		c-0.4,0-0.7-0.1-0.8-0.2l0,0l0.2-0.5c0.1-0.4,0.2-0.7,0.3-1.1c0.2-0.7,0.3-1.5,0.4-2.2c0-0.8,0-1.5-0.1-2.2
		c-0.1-0.7-0.4-1.4-0.7-2.1c0.2,0.7,0.3,1.4,0.3,2.1c0,0.7-0.2,1.4-0.4,2c-0.1,0.5-0.3,1-0.5,1.4l-1.2,2.2c-1.5,2.6-5.9,5.5-8.8,5.6
		c-0.7,0-1.2-0.1-1.5-0.4c0.1-0.2,0.2-0.4,0.2-0.6c0.2-0.7,0.3-1.3,0.3-2c0-0.7,0-1.3-0.2-1.9c-0.1-0.6-0.3-1.2-0.5-1.8
		c0,0.6,0.1,1.2,0,1.8c0,0.6-0.2,1.2-0.3,1.8c-0.1,0.5-0.4,1-0.6,1.4l0,0l-0.8,1c-3.3,4.3-8.6,5-10.4,4c-0.5-0.3-0.4-0.5-0.3-0.7
		c0,0,0-0.1,0-0.1c0,0,0,0,0,0c0-0.2,0-0.3,0-0.3c0,0,0,0,0-0.1c0,0,0-0.1,0-0.2c0-0.2,0.1-0.4,0.2-0.5c0.2-0.4,0.4-0.8,0.6-1.2
		c0.5-0.8,1-1.5,1.5-2.3c-0.8,0.5-1.5,1.1-2.2,1.7c-0.4,0.3-0.7,0.6-1.1,1c-0.2,0.2-0.3,0.4-0.5,0.6c-0.1,0.1-0.2,0.3-0.2,0.4
		c0,0.1-0.1,0.2-0.1,0.2c0,0,0,0,0,0.1c0,0,0,0,0,0c0,0,0,0,0,0c0,0,0,0,0,0c-0.4,1.2,0,2.3,1.2,3c0.7,0.4,1.7,0.6,2.9,0.6
		c2.8,0,6.5-1.3,9.3-4.3c0.6,0.4,1.4,0.7,2.6,0.6c3.1-0.1,7.4-2.7,9.6-5.5c0.3,0.1,0.6,0.3,0.9,0.3c2.3,0.5,6.9-0.9,10.4-5.6
		c1,0.6,2.3,0.7,3.7,0.3c2.9-0.8,6.1-3.6,7-7.3c0.5,0.2,1,0.3,1.5,0.3c0.5,0,1.1-0.1,1.7-0.2C68.6,52.8,72.3,49.4,72.5,44.8z"/>
</g>
</svg>
