<?xml version="1.0" encoding="utf-8"?>
<!-- Generator: Adobe Illustrator 24.1.2, SVG Export Plug-In . SVG Version: 6.00 Build 0)  -->
<svg version="1.1" id="Layer_1" xmlns="http://www.w3.org/2000/svg" xmlns:xlink="http://www.w3.org/1999/xlink" x="0px" y="0px"
	 viewBox="0 0 128 128" style="enable-background:new 0 0 128 128;" xml:space="preserve">
<style type="text/css">
	.st0{fill:#2D2D2D;}
</style>
<g>
	<path class="st0" d="M108.3,18.4c1-0.1,1.9-0.6,2.4-1.3c0.6-0.7,0.8-1.6,0.7-2.4c-0.1-0.8-0.4-1.5-1-2.1c-0.5-0.6-1.3-0.9-2.1-1
		c-0.8-0.1-1.7,0.1-2.4,0.7c-0.7,0.5-1.2,1.4-1.3,2.4c-0.1,1,0.3,2,1,2.7C106.3,18.1,107.3,18.5,108.3,18.4z M106.3,12.7
		c0.5-0.5,1.3-0.8,2-0.8c0.8,0,1.5,0.3,2,0.8c0.5,0.5,0.8,1.3,0.8,2c0,0.7-0.3,1.5-0.8,2c-0.5,0.5-1.3,0.8-2,0.8
		c-0.7,0-1.5-0.3-2-0.8c-0.5-0.5-0.8-1.2-0.9-2C105.5,14,105.7,13.2,106.3,12.7z"/>
	<path class="st0" d="M110.3,15.4c0.7-0.7,0.7-1.9,0-2.7c-0.7-0.7-1.9-0.7-2.7,0c-0.7,0.7-0.7,1.9,0,2.7
		C108.4,16.1,109.6,16.1,110.3,15.4z"/>
	<path class="st0" d="M81,42.7l-2.8,1.9l-0.7,0.5c-0.2,0.2-0.5,0.3-0.7,0.6c-0.2,0.3-0.2,0.6-0.1,1c0.1,0.3,0.4,0.5,0.6,0.7
		c0.9,0.8,2,1.3,3.2,1.6c1,0.2,2.1,0.4,3.2,0.1c0.3,0.4,0.7,0.6,1.1,0.8c0.5,0.2,1,0.2,1.5,0.2c0.9,0,1.8-0.2,2.6-0.7
		c0.6,0.2,1.4,0.2,2-0.1c0.7-0.3,1.2-0.9,1.6-1.5c0.7-1,1.5-2,2.2-3c1.5-2,3-4,4.4-6.1c0,0,0,0,0-0.1c0,0-0.1,0-0.1,0
		c-1.7,1.8-3.4,3.7-5,5.6c-0.8,1-1.6,1.9-2.4,3c-0.3,0.5-0.7,0.9-1.1,1.1c-0.4,0.2-0.9,0.2-1.4,0l-0.3-0.1l-0.2,0.2
		c-0.6,0.4-1.4,0.7-2.2,0.7c-0.4,0-0.8,0-1.2-0.2c-0.4-0.1-0.7-0.3-0.7-0.5l-0.2-0.4l-0.4,0.2c-0.9,0.4-2.1,0.4-3.2,0.2
		c-1.1-0.2-2.2-0.6-3.1-1.3c-0.2-0.2-0.4-0.4-0.5-0.6c-0.1-0.2-0.1-0.5,0-0.7c0.1-0.2,0.3-0.3,0.6-0.5c0.2-0.2,0.5-0.3,0.7-0.4
		c1-0.6,2-1.1,3-1.6c2-1,4-2.2,5.9-3.4c1.9-1.2,3.9-2.4,5.8-3.7c0,0,0,0,0-0.1c0,0,0,0-0.1,0c-2.1,1-4.1,2-6.1,3.1
		C84.9,40.3,82.9,41.4,81,42.7z"/>
	<path class="st0" d="M70.1,53.8c0.4-0.9,1.2-1.4,0.3-1.5c-0.9,0-0.7-0.6-1.1,0.2c-0.4,0.8-0.5,2.1-0.5,2.1
		C69.7,54.5,69.8,54.7,70.1,53.8z"/>
	<path class="st0" d="M68.5,57.6c-1.1,0.4-1.1,0.1-1.4,0.8c-0.3,0.8,0.3,1.2,0.3,1.2c0.2,1.2,0.3,1.4,0.9,0.9
		c0.6-0.4,0.8-0.2,0.6-1.1C68.7,58.5,69.7,57.2,68.5,57.6z"/>
	<path class="st0" d="M65.8,65c0.6-0.6,0.8-0.7,0.8-1.1c0-0.4,0.4-1-0.4-0.8c-0.7,0.2-0.9,0.4-0.9,0.4c-0.8,0.8-1.3,1-0.6,1.4
		C65.4,65.3,65.2,65.6,65.8,65z"/>
	<path class="st0" d="M62.5,68.2c-0.6,0-0.9-0.5-1.3,0.2c-0.4,0.7-0.2,1.3-0.3,1.5c-0.6,1.3,1.9-0.3,1.9-0.7
		C62.7,68.7,63.1,68.2,62.5,68.2z"/>
	<path class="st0" d="M58.9,73.9c-0.5-0.1-0.2-0.6-0.9-0.2c-0.6,0.5-0.9,1.1-0.9,1.1c0.1,0.6,0.4,1,1.1,0.4
		C58.8,74.6,59.4,74,58.9,73.9z"/>
	<path class="st0" d="M67,67.2c-0.7,0-0.1-1.2-1.1-0.3c-1,0.8-0.8,1.1-0.8,1.1c0.3,0.6,0.3,0.1,1,0.2c0.7,0.1,1.1,0.6,1.3,0.1
		C67.6,67.9,67.7,67.2,67,67.2z"/>
	<path class="st0" d="M70.6,61.9c-0.9,0.6-1.2,1.9-1.2,1.9c0,0.7,0.4,1.1,1.1,0.5c0.7-0.6,1.1-0.8,1-1.3
		C71.4,62.4,71.5,61.3,70.6,61.9z"/>
	<path class="st0" d="M75.4,61.7c-0.7-0.2-0.8-0.7-1.1-0.2s0,1,0,1c0.1,0.5,0.1,0.8,0.8,0.2S76.1,61.9,75.4,61.7z"/>
	<path class="st0" d="M77.6,59.3c-0.6-0.5-0.1-1.1-0.8-0.5c-0.7,0.6-0.7,0.9-0.7,0.9c0.5,0.7,0.4,0.8,1,0.8c0.6,0,0.9,0.4,1-0.1
		C78.2,59.9,78.3,59.8,77.6,59.3z"/>
	<path class="st0" d="M81,55.7c-0.2-0.8,0.4-1.7-0.5-1.1c-0.9,0.5-1,0.8-1,0.8c-0.4,1.1-0.8,1.2-0.2,1.8c0.6,0.6-0.1,0.6,0.9,0.6
		c1,0,1.6,1,1.3-0.2C81.1,56.5,81.2,56.5,81,55.7z"/>
	<path class="st0" d="M83.5,55.3c-0.5-0.1-0.4-0.6-0.8-0.3c-0.4,0.3-0.2,0.7-0.3,0.7C82,56,83.1,56.2,83.4,56
		C83.7,55.7,84,55.4,83.5,55.3z"/>
	<path class="st0" d="M86.6,52.5c-1-0.2-1.6-1.1-1.5-0.3c0,0.8,0.4,1.1,0.2,1.2c-0.6,0.6,0.6,1.1,1.1,0.7c0.5-0.4,1.3-0.9,1.1-1
		C87.3,52.9,87.6,52.7,86.6,52.5z"/>
	<path class="st0" d="M81.1,52.5c1.2-0.7,1.9-0.9,1.2-1.1c-0.7-0.2-0.5-0.9-1.4-0.5c-0.9,0.4-1.4,0.2-1.6,0.6s0,0.7,0,0.7
		C80,52.4,79.9,53.2,81.1,52.5z"/>
	<path class="st0" d="M78.1,54c-0.5-0.2-0.4-0.4-0.7-0.2c-0.3,0.2-0.2,0.5-0.2,0.5c0.1,0.7,0.4,1.1,0.7,0.7
		C78.2,54.6,78.6,54.2,78.1,54z"/>
	<path class="st0" d="M79.6,42.8c0.9-0.5,2.1-0.8,1.5-1.2c-0.6-0.4,0.9-1.6-1-1c-1.9,0.5-2.4,1.2-2.4,1.2
		C78.2,43.2,78.7,43.3,79.6,42.8z"/>
	<path class="st0" d="M84,37.4c0.1-0.3,1.1-1,0.4-1.1c-0.7-0.1,0-0.5-1.1-0.4c-1.1,0.1-1.4,1.1-1.4,1.1C82.5,37.8,83.8,37.6,84,37.4
		z"/>
	<path class="st0" d="M88.7,37.5c0.8-0.6,1.2-1,0.6-1.4c-0.6-0.4-0.1-1.7-1.5-1.2c-1.4,0.5-0.7,2-0.7,2C88.1,37.7,88,38.1,88.7,37.5
		z"/>
	<path class="st0" d="M89.1,32.4c0.4-0.4,0.7-0.4,0.4-0.7s0-0.5-0.4-0.5c-0.4,0-0.6,0.4-0.6,0.4C88.6,32.4,88.7,32.7,89.1,32.4z"/>
	<path class="st0" d="M92.5,35.8c0.1-0.5,0.6-1.5-0.3-1.2c-0.9,0.4-0.4,0.9-0.4,0.9C92.2,36,92.4,36.3,92.5,35.8z"/>
	<path class="st0" d="M73.4,55c0.1-1.4-0.6-0.8-1.3-0.6c-0.7,0.2-0.4,0.8-0.4,1.6c0,0-0.8,0.4-0.7,1c0.1,0.6,1.5,0.4,2.4,0
		C74.4,56.5,73.3,56.5,73.4,55z"/>
	<path class="st0" d="M74.7,54c-0.6-0.5,0.2-1,1.2-1.9c1-0.9,0.6-0.8-0.1-0.9c-0.7-0.1-1.2,0.6-1.9,0.7c0,0-0.5,0.4-0.3,0.9
		c0.2,0.5,0.4,0.8,0.3,1.4c-0.1,0.6,0.2,1.2,0.8,1.4c0.6,0.2,1.1,0.1,1.5-0.7C76.6,54.2,75.3,54.5,74.7,54z"/>
	<path class="st0" d="M73.2,51c0.8-0.1,0.8-0.3,0.8-1c0-0.6-0.3-0.6-0.3-1.4c0,0-0.1,0-0.3,0.2c-0.2,0.2-0.8,1-0.9,1.6
		C72.4,51,72.4,51.1,73.2,51z"/>
	<path class="st0" d="M75.8,50.6c0.7-0.4,0.8-0.2,1.2-1c0.4-0.8,0.9-1,0.3-1.4c-0.6-0.4-0.6-1.2-0.9-0.4c-0.3,0.9-0.3,1.1-0.3,1.1
		c-1,0.4-1.3,0.1-1.1,0.8C75.1,50.3,75.1,51,75.8,50.6z"/>
	<path class="st0" d="M74.8,58.6c0.4-0.7,1.3-1.8,0.2-1.4c-1.1,0.4-1.5,0.7-1.5,0.7c-0.3,0.7-0.7,1.3,0.1,1.4
		C74.3,59.2,74.5,59.3,74.8,58.6z"/>
	<path class="st0" d="M94.8,26.2c-0.4,0.1-0.5,1-0.5,1c-0.4,0.6-0.6,0.9,0,1c0.6,0.1,0.8,0,0.9-0.2c0.1-0.2,0.5-0.8,0.2-1.1
		C95.1,26.5,95.1,26,94.8,26.2z"/>
	<path class="st0" d="M98.3,25.2c0.4-0.1,0.5-0.6,0.1-0.9c-0.5-0.3-0.4-1-0.8-0.5c-0.5,0.5-0.6,0.7-0.3,1.1
		C97.6,25.3,98.3,25.2,98.3,25.2z"/>
	<path class="st0" d="M98.8,27.5c-0.7-0.2-0.9-0.6-1.1-0.2c-0.2,0.4,0.5,0.7,0.5,0.7c0.3,0.4,0.5,0.4,0.6,0.1
		C99,27.9,99.5,27.7,98.8,27.5z"/>
	<path class="st0" d="M101.3,30.3c-0.8,0.2-1.1-0.1-0.9,0.4c0.2,0.5,0.4,0.9,0.4,0.9c0.9,0,1.6,0.3,1.3-0.3
		C101.7,30.7,102.1,30.1,101.3,30.3z"/>
	<path class="st0" d="M86.5,26.6c-1.6,0.7-2,0.7-2.3,0.8S84,27.8,84,27.8c-0.5,0.7-1.1,1.5,0.3,1.2c1.4-0.3,2.2-0.9,2.5-1.2
		S88.1,25.9,86.5,26.6z"/>
	<path class="st0" d="M78.9,32.6c-0.5,0-0.4-0.4-0.7,0c-0.3,0.4-0.1,1.1-0.1,1.1c0.1,0.5,0.5,0.4,0.7,0.3c0.3-0.2,0.7-0.2,0.5-0.5
		C79.2,33.3,79.4,32.6,78.9,32.6z"/>
	<path class="st0" d="M75,36.6c-0.5,0-0.5-0.4-0.8,0c-0.3,0.4-0.1,0.8-0.1,0.8c0,0.4,0.2,0.6,0.5,0.5c0.3-0.1,0.7-0.4,0.7-0.6
		C75.3,37.2,75.5,36.6,75,36.6z"/>
	<path class="st0" d="M70.4,42.5c-0.7,0.3-0.8,0.2-0.9,0.5c-0.1,0.2-0.1,0.5-0.1,0.5c-0.3,1.1-0.5,1.7,0.1,1.1
		c0.6-0.5,1.1-0.9,1.2-1.2C70.8,42.9,71.1,42.1,70.4,42.5z"/>
	<path class="st0" d="M93.3,22.2c-0.9,0.1-0.7-0.5-1.3,0.1c-0.6,0.6-0.4,1-0.4,1c-0.1,1.2,0.5,1.3,0.5,1.3s0.9,0.3,1.3-0.7
		C93.8,22.9,94.2,22.1,93.3,22.2z"/>
	<path class="st0" d="M55.5,60.1c-1.2,0.6-1.5,0.6-1.5,1c0,0.4,0.1,0.9,0.1,0.9c0.5,1.2,1.4,1,1.4,1s1.7-1.2,1-1.9
		C55.9,60.4,56.7,59.5,55.5,60.1z"/>
	<path class="st0" d="M59.5,55.5c-1.3,1-1.7,1-1.5,1.3c0.2,0.3,0.6,0.4,0.6,0.4c0.8,0.6,1.2,0.4,1.2,0.4s1.3-0.6,0.9-1.3
		C60.2,55.6,60.9,54.5,59.5,55.5z"/>
	<path class="st0" d="M63.4,50.4c-0.5,0.3-0.6,0.8-0.6,0.8c1.2,0.6,1.7,0.5,1.7,0.5l0.3-0.7C64.8,50.9,63.9,50.1,63.4,50.4z"/>
	<path class="st0" d="M63.3,54.6C61.9,54.9,63,55,63.1,56c0,0,0.7,0.3,1.3-1C65,53.7,64.7,54.3,63.3,54.6z"/>
	<path class="st0" d="M60.1,61.3c-1.5,0.1-1.4,0.5-1.4,0.5c0.5,1.1,0.9,0.7,0.9,0.7S61.6,61.2,60.1,61.3z"/>
	<path class="st0" d="M55.6,67.6c-0.9,0.5-1,0.3-1,0.8c0,0.4-0.3,0.8-0.3,0.8c0.5,0.7,1,0.6,1,0.6s1.3-0.1,1.1-1S56.5,67,55.6,67.6z
		"/>
	<path class="st0" d="M51.2,69.7c0.1-0.9,0.6-1.3-0.1-1.4c-0.7-0.1-0.5-0.6-0.9-0.1c-0.4,0.5-0.6,0.9-0.6,0.9
		c-0.2,1.2-1.2,1.8,0,1.6C50.9,70.3,51.1,70.6,51.2,69.7z"/>
	<path class="st0" d="M48.6,76.6c-1,1-0.8,1.2-0.9,1.4c-0.6,0.9,0.7,0.6,0.7,0.6s1.1-0.6,0.8-1.2C48.8,76.8,49.5,75.6,48.6,76.6z"/>
	<path class="st0" d="M43.9,79.8c-1-0.8,0-0.9,0-0.9s-0.9-0.4-1.2,0.1c-0.4,0.5,0,0.7,0,0.7C43.3,80.5,44.9,80.7,43.9,79.8z"/>
	<path class="st0" d="M42.9,84.4c-0.7,0.4-0.6,0.1-0.8,0.5c-0.2,0.4-0.1,0.4-0.1,0.4c0.3,1.2,1,1,1,1s1.2-0.7,0.7-1.1
		C43.3,84.7,43.6,84,42.9,84.4z"/>
	<path class="st0" d="M53.4,71.4c-0.7-1-0.4,0-1.8,0.5s-0.4,1.2-0.4,1.2s0.1,0.4,0.8,1.5c0,0,0.4-0.4,1.8-1.8
		C55.3,71.4,54.1,72.4,53.4,71.4z"/>
	<path class="st0" d="M46.4,72.4c-1,0.5-1.1,0.6-1.1,0.9c0.1,0.4,0.2,0.6,0.2,0.6c0.4,1.1,0.7,0.9,0.7,0.9s1.1,0,0.9-1
		C46.9,72.8,47.4,72,46.4,72.4z"/>
	<path class="st0" d="M66.3,44.1c-1.9,1.4-1.5,1.9-1.5,1.9c0.5,1.4-0.4,1.9,1,1.3c1.4-0.6,1.8-0.6,1.5-1.7
		C67,44.5,68.1,42.6,66.3,44.1z"/>
	<path class="st0" d="M35.5,91.8c-0.6-0.1-0.5-0.7-1-0.2C34,92.2,34,92.5,34,92.5c-0.3,0.9-1.9,2.7-0.1,1.3
		C35.5,92.4,36.1,91.9,35.5,91.8z"/>
	<path class="st0" d="M26.9,100.9c-0.6-0.2-0.4-0.6-1-0.1c-0.6,0.4-0.5,1-0.5,1c0.5,0.4,0.6,0.5,1.1,0.1
		C26.9,101.5,27.6,101.1,26.9,100.9z"/>
	<path class="st0" d="M38.5,86.1c-0.3,0.5,0,0.6,0,0.6c0.4,1.4,1.1,1,1.1,1s0.6-0.6,0.7-2C40.4,84.3,38.7,85.6,38.5,86.1z"/>
	<path class="st0" d="M71.7,38.3c-0.7,0-0.8-0.5-1-0.4c-0.1,0-0.2,0.1-0.3,0.3c-0.1,0.2-0.2,0.3-0.2,0.4c-0.2,0.5,0.2,0.8,0.2,0.8
		c0.1,0.1,0.2,0.2,0.3,0.3c0.1,0.1,0.2,0.1,0.3,0.2c0.1,0,0.3,0,0.4-0.1c0.1-0.1,0.1-0.1,0.2-0.2c0-0.1,0.1-0.1,0.1-0.2
		C72.1,38.8,72.4,38.3,71.7,38.3z"/>
	<path class="st0" d="M80.6,28.5c-0.2-0.1-0.3-0.3-0.5-0.3c-0.1-0.1-0.3-0.1-0.4,0.2c0,0,0,0,0,0c0,0,0,0,0,0
		c-0.3,0.5-0.1,0.9-0.1,0.9c-0.1,0.5,0.2,0.7,0.3,0.8c0.1,0.1,0.1,0.1,0.1,0.1s0.1,0,0.1-0.1c0.1,0,0.2-0.1,0.3-0.2
		c0.1-0.1,0.3-0.2,0.3-0.4c0-0.1,0-0.2,0-0.3C80.8,28.9,80.8,28.6,80.6,28.5z"/>
	<path class="st0" d="M127.9,10.9l-0.2-1.1l-0.9,0.5c-1.1,0.7-2.3,1.4-3.4,2.1c-0.8,0.5-1.6,1-2.3,1.5c0.1-0.2,0.2-0.4,0.3-0.6
		c1-2.1,2.3-4,3.6-6.1l0.5-0.8l-0.8-0.6c-1.4-1.1-3.4-1.9-5.4-1.7c-1,0.1-1.9,0.4-2.6,0.6c-0.8,0.2-1.6,0.5-2.4,0.8
		c-3.1,1.2-6.1,2.4-9.1,3.9c-3,1.4-5.8,2.9-8.7,4.6c-2.8,1.6-5.7,3.3-8.4,5.1c-3,2-5.9,4.1-8.7,6.4c-1.7-0.5-3.5-0.9-5.2-1.2
		c-2-0.3-4.1-0.5-6.1-0.6c-2.1,0-4.1,0.1-6.2,0.3c-2.1,0.3-4.1,0.8-6.1,1.5l-0.4,0.1l-0.2,0.3c-0.4,0.9-0.7,1.9-0.7,2.9
		c0,1,0.3,2,0.8,2.8c0.1,0.7,0.4,1.2,0.6,1.7c0.3,0.6,0.6,1.1,0.9,1.6c0.3,0.5,0.7,1,1.1,1.5c0.2,0.2,0.4,0.5,0.7,0.7
		c0.2,0.2,0.4,0.3,0.7,0.5c0.1,0.3,0.4,0.6,0.6,0.7c0.3,0.2,0.6,0.4,0.9,0.6c0.6,0.3,1.2,0.5,1.9,0.7c0.6,0.2,1.3,0.2,1.9,0.2
		c0.2,0,0.4,0,0.6-0.1c-1.2,1.5-2.5,2.9-3.7,4.4c-2.8,0.3-5.6,0.6-8.3,1.1c-1.6,0.3-3.3,0.6-4.9,1.1c-1.6,0.4-3.2,0.9-4.9,1.7
		L43,48.2l-0.1,0.4c-0.1,0.2-0.3,0.6-0.5,0.9c-0.2,0.3-0.5,0.7-0.7,1.1c-0.2,0.4-0.5,0.9-0.6,1.5c0,0.3,0,0.7,0.1,1.1
		c0,0.1,0.1,0.1,0.1,0.2c-0.6,0.7-1,1.5-1.4,2.4c-0.2,0.6-0.4,1.1-0.5,1.8c0,0.3,0,0.7,0.1,1.1c0,0.2,0.1,0.4,0.2,0.6
		c-0.2,0.5-0.4,1-0.5,1.5c-0.2,0.7-0.3,1.3-0.3,2c-0.1,0.7-0.1,1.4,0,2.1c0,0.4,0.1,0.7,0.2,1.1c0.1,0.3,0.2,0.6,0.5,0.9
		c0,0.2,0,0.5,0,0.6c0.1,0.3,0.3,0.5,0.4,0.8c0.3,0.4,0.7,0.8,1.1,1.1c0.4,0.3,0.8,0.6,1.3,0.8c0.2,0.1,0.3,0.1,0.5,0.2
		c-0.7,1.1-1.3,2.1-2,3.2c-1.3,0.1-2.7,0.3-4,0.5c-1.5,0.3-3,0.7-4.5,1.1c-1.5,0.5-2.9,1.1-4.3,1.7c-1.4,0.7-2.7,1.5-4,2.5l-0.4,0.3
		l0,0.5c0.1,1,0.1,2,0.2,3c0,0.5,0.1,1.1,0.2,1.6c0.1,0.4,0.2,0.9,0.5,1.4c-0.3,1.1-0.2,2.2-0.2,3.3c0,0.6,0.1,1.2,0.3,1.8
		c0.1,0.3,0.2,0.6,0.3,0.9c0.1,0.3,0.2,0.6,0.7,0.9l0.1,0.1l0.1,0c0.9-0.2,1.8-0.4,2.8-0.7c-0.4,0.5-0.7,1-1.1,1.5c-1.5,2-3,4-4.5,6
		c-1.9,0.2-3.8,0.6-5.7,1.2c-2,0.6-4,1.3-6,2.2c-2,0.9-3.8,2-5.6,3.2c-1.8,1.2-3.4,2.6-5,4.2L0,111.6l0.6,0.9
		c0.7,1.1,1.4,1.7,2.2,2.5c0.8,0.7,1.6,1.3,2.4,1.9c0.8,0.6,1.7,1.1,2.7,1.6c0.7,0.3,1.4,0.6,2.1,0.8c0.2,0.7,0.4,1.3,0.7,1.8
		c0.4,0.9,1,1.7,1.5,2.4c1.1,1.5,2.5,2.7,3.8,3.8l0.8,0.7l0.8-0.5c0.7-0.4,1-0.8,1.4-1.2c0.4-0.4,0.7-0.8,1.1-1.2
		c0.7-0.8,1.3-1.6,1.9-2.4c1.2-1.6,2.2-3.3,3.2-5.1c1-1.8,1.8-3.6,2.5-5.4c0.6-1.6,1.1-3.2,1.3-4.9c0.8-0.5,1.6-1,2.3-1.5l2.4-1.7
		c0.7,0.5,1.5,0.9,2.3,1.3c0.6,0.3,1.1,0.5,1.8,0.6c0.5,0.1,1.1,0.3,1.8,0.3c1,0.4,2,0.5,3,0.5c1,0,2,0,2.9-0.1l0.4,0l0.3-0.3
		c1.1-1.3,2.2-2.6,3-4.1c0.9-1.4,1.6-2.9,2.2-4.5c0.6-1.6,1.1-3.1,1.4-4.8c0.3-1.4,0.5-2.9,0.5-4.4c2.1-1.4,4.3-2.8,6.5-4.1
		c-0.5,0.7-1,1.5-1.4,2.2c-0.3,0.5-0.6,1.1-1,1.6l-0.5,0.8c-0.1,0.1-0.1,0.3-0.2,0.4L56.8,90l-0.1,0.3l-0.1,0.3l0.3,0.2
		c0.4,0.4,0.8,0.5,1.2,0.6c0.4,0.1,0.8,0.2,1.2,0.3c0.8,0.2,1.6,0.2,2.4,0.3c0.8,0,1.6,0.1,2.4,0c0.7-0.1,1.4-0.1,2.2-0.4
		c0.8,0.2,1.6,0.3,2.4,0.2c0.9,0,1.7-0.1,2.5-0.2c1.7-0.3,3.3-0.7,4.9-1.4l0.2-0.1l0.1-0.2c2.1-2.6,3.5-5.5,4.7-8.5
		c1-2.7,1.8-5.5,2.4-8.4c1.8-0.9,3.6-1.8,5.3-2.9c1-0.6,2-1.4,2.9-2.2c0.9-0.8,1.7-1.5,2.6-2.3c1.6-1.6,3.2-3.3,4.7-5
		c1.5-1.7,2.9-3.5,4.3-5.4c0.7-0.9,1.3-1.9,1.9-2.9c0.5-0.8,0.9-1.6,1.2-2.4c0.1,0.5,0.3,1.1,0.2,1.4l-0.1,1.1l1.2-0.5
		c0.2-0.1,0.4-0.1,0.7,0c0.3,0.1,0.7,0.3,1,0.5c0.7,0.4,1.4,0.9,2.2,1.4l0.3,0.2l0.5-0.1c0.4-0.1,0.5,0,0.7,0.2
		c0.3,0.2,0.6,0.7,0.9,1.1c0.6,0.9,1.3,1.9,2,2.8l1.9,2.4l-0.1-3.1c-0.1-1.7-0.5-3.4-1.4-4.9c-0.8-1.5-2-2.7-3.1-3.8l-3.5-3.2
		c-0.3-0.3-0.6-0.5-0.9-0.8c0.4-0.3,0.7-0.7,0.9-1.1c0.4-0.6,0.8-1.2,1.2-1.8c0.7-1.1,1.3-2.3,1.7-3.6c1.9-1.7,3.6-3.7,5-6
		c0.7-1.2,1.3-2.4,1.7-3.7c0.4-1.1,0.7-2.3,1-3.4c0.8-0.9,1.7-1.8,2.5-2.8c0.9-1.1,1.7-2.2,2.5-3.4c0.8-1.2,1.4-2.4,1.9-3.8
		c0.2-0.6,0.4-1.3,0.6-2c0,0,0-0.1,0-0.1c0,0,0,0,0,0c0.1-0.4,0.1-0.7,0.1-1.1C128,11.7,128,11.4,127.9,10.9z M122.4,7
		c-1,1.8-2,3.6-2.7,5.6c-0.8,2.2-1.3,4.5-1.2,6.9c-0.6,0-1.2,0-1.8,0l-1.1,0.1l-0.6,0l-0.3,0c0,0,0,0,0,0c0.4-1.3,0.9-2.6,1.4-3.9
		c1.2-3.2,2.6-6.3,4-9.4C121,6.4,121.7,6.7,122.4,7z M64.4,39.5c-0.6-0.1-1.2-0.3-1.7-0.5c-0.6-0.2-1.1-0.5-1.6-0.8
		c-0.2-0.2-0.4-0.3-0.6-0.5c-0.2-0.2-0.2-0.4-0.2-0.4l0.4-0.1l-0.8-0.5c0,0-0.3-0.2-0.4-0.4c-0.2-0.2-0.3-0.4-0.5-0.6
		c-0.3-0.5-0.6-0.9-0.8-1.4c-0.3-0.5-0.5-1-0.7-1.5c-0.2-0.5-0.4-1-0.4-1.4l0-0.2l-0.1-0.2c-0.6-1.2-0.6-2.5-0.1-3.8
		c1.7-0.6,3.5-1.1,5.3-1.3c1.9-0.3,3.9-0.5,5.9-0.6c2-0.1,4-0.1,6,0c1.7,0.1,3.4,0.2,5.1,0.3c-2.2,1.8-4.4,3.7-6.4,5.7
		c-1.2,1.2-2.3,2.4-3.3,3.6c-1.1,1.2-2.2,2.4-3.2,3.7c-0.3,0.4-0.7,0.8-1,1.2C65,39.6,64.7,39.6,64.4,39.5z M42.4,69.8
		c-0.4-0.3-0.7-0.6-1.1-1c-0.3-0.4-0.6-0.7-0.8-1.1c-0.2-0.4-0.3-0.8-0.2-0.9l0.3-0.2l-0.5-0.4c-0.2-0.2-0.3-0.8-0.3-1.4
		c0-0.6,0.1-1.2,0.2-1.8c0.1-0.6,0.3-1.2,0.5-1.8c0.2-0.6,0.4-1.1,0.7-1.5l0.4-0.6l-0.5-0.5c-0.1-0.1-0.2-0.4-0.1-0.8
		c0.1-0.4,0.2-0.8,0.4-1.3c0.4-0.9,1-1.7,1.6-2.4l0.6-0.6l-0.6-0.8C43,52.5,43,52.5,43,52.4c0-0.2,0.1-0.5,0.3-0.8
		c0.2-0.3,0.4-0.6,0.6-1c0.2-0.3,0.3-0.5,0.5-0.9c1.3-0.6,2.7-1.1,4.2-1.6c1.6-0.5,3.1-1,4.7-1.4l7.7-2.1c-0.4,0.4-0.7,0.9-1.1,1.3
		c-4,5.1-7.9,10.3-11.6,15.7c-1.8,2.7-3.7,5.3-5.4,8.1c-0.1,0.1-0.1,0.2-0.2,0.4C42.7,70,42.5,69.9,42.4,69.8z M26,92.4
		c-0.1-0.2-0.2-0.8-0.3-1.2c0-0.5,0-1.1,0-1.6c0-0.6,0.1-1.1,0.2-1.6c0.1-0.5,0.2-1.1,0.4-1.5l0.1-0.3l-0.2-0.4
		c-0.1-0.3-0.2-0.7-0.3-1.1c-0.1-0.5-0.1-0.9-0.1-1.4c-0.1-0.8-0.1-1.6-0.1-2.5c1-0.8,2.1-1.5,3.2-2.1c1.3-0.7,2.6-1.3,4-1.9
		c1.4-0.6,2.8-1.1,4.2-1.6c1.2-0.5,2.4-0.8,3.6-1.3c-0.9,1.5-1.8,3-2.6,4.5c-2.6,5-5.9,9.6-9.3,14.3C27.8,92.4,26.9,92.4,26,92.4z
		 M26.7,111.8c-1,1.7-2,3.3-3.1,4.9c-1.1,1.6-2.3,3.1-3.5,4.6c-0.6,0.7-1.3,1.5-1.9,2.1c-0.3,0.3-0.7,0.7-1,1c0,0-0.1,0-0.1,0.1
		c-0.9-0.9-1.8-1.8-2.5-2.8c-0.9-1.2-1.6-2.6-1.8-3.8l-0.2-1.2l-1.2-0.2c-0.7-0.1-1.5-0.4-2.3-0.8c-0.8-0.4-1.6-0.9-2.3-1.4
		c-0.8-0.5-1.5-1.1-2.2-1.7c-0.4-0.3-0.8-0.7-1.1-1c1.1-1.1,2.3-2.2,3.5-3.2c1.6-1.3,3.3-2.4,5-3.4c1.8-1,3.6-2,5.5-2.8
		c1.7-0.8,3.4-1.4,5.2-2c-0.4,0.5-0.8,1.1-1.2,1.6c-1,1.3-2,2.6-2.8,4.1c-0.4,0.7-0.7,1.5-0.8,2.4c-0.1,0.8-0.1,1.7,0.5,2.4
		c0,0.1,0,0.1,0.1,0.1c0.3,0.2,0.6,0.2,0.9,0.2c0.3,0,0.6,0,0.9,0c0.6-0.1,1.2-0.2,1.7-0.4c1.1-0.3,2.2-0.8,3.2-1.3
		c1.1-0.6,2.2-1.2,3.3-1.8C28.2,109,27.5,110.4,26.7,111.8z M49.8,97.1c-0.7,1.4-1.5,2.8-2.3,4.2c-0.8,1.2-1.6,2.4-2.6,3.5
		c-0.8,0.1-1.6,0.2-2.4,0.2c-0.9,0.1-1.8,0.1-2.5-0.2l-0.2-0.1l-0.2,0c-0.4,0.1-1,0.1-1.6,0c-0.6-0.1-1.1-0.2-1.7-0.3
		c-0.8-0.2-1.5-0.4-2.3-0.7l0.1-0.1l2.7-2.1c0.9-0.7,1.7-1.4,2.6-2.2c0.4-0.4,0.9-0.7,1.3-1c0.4-0.3,0.9-0.7,1.3-1
		c3.5-2.8,7-5.7,10.7-8.3c0.2-0.1,0.3-0.2,0.5-0.3C52.2,91.7,51.1,94.5,49.8,97.1z M81.8,76.7c-0.6,1.4-1.3,2.9-2,4.3
		c-0.7,1.4-1.5,2.7-2.3,4.1c-0.8,1.2-1.6,2.4-2.5,3.5c-1.3,0.5-2.7,0.9-4.2,1.2c-0.8,0.1-1.5,0.2-2.3,0.3c-0.7,0-1.5,0-2.1-0.1
		l-0.4-0.1l-0.3,0.1c-0.5,0.2-1.3,0.4-2,0.5c-0.7,0.1-1.5,0.2-2.2,0.2c-0.7,0-1.5,0-2.2-0.1c-0.6,0-1.2-0.1-1.7-0.3
		c0-0.1,0.1-0.3,0.1-0.4l0.3-0.9l0.7-1.7l1.1-2.7c1.4-0.8,2.8-1.6,4.2-2.3c4-2.1,8.1-3.8,12.2-5.8c2.2-1,4.5-2.1,6.7-3.1L81.8,76.7z
		 M110.1,41.5c-0.2,0.6-0.4,1.3-0.7,1.9c-0.2,0.4-0.4,0.8-0.6,1.2c-0.2-0.2-0.5-0.4-0.7-0.7c-0.3-0.3-0.6-0.5-0.8-0.8
		c-0.3-0.3-0.6-0.6-0.7-0.9c0,0.4,0.3,0.8,0.4,1.1c0.2,0.3,0.4,0.7,0.7,1c0.5,0.7,0.9,1.3,1.4,1.9c1,1.2,2.1,2.4,3.1,3.6
		c0.9,1,1.7,2,2.3,3.2c-0.1-0.1-0.1-0.1-0.2-0.2c-0.3-0.2-0.7-0.5-1.2-0.5c-0.3-0.1-0.6,0-0.8,0c-0.6-0.4-1.3-0.8-2.1-1.1
		c-0.4-0.2-0.9-0.4-1.5-0.5c-0.3,0-0.6-0.1-0.9,0c-0.1-0.4-0.2-0.7-0.4-1c-0.2-0.6-0.5-1.1-0.8-1.7c-0.6-1.1-1.2-2.1-1.9-3.1
		l1.2,3.4c0.1,0.4,0.2,0.8,0.4,1.2c-1.1,1.8-2.6,3.3-4.1,4.9c-1.6,1.6-3.2,3.2-4.8,4.7c-1.6,1.5-3.3,3-5,4.5
		c-1.7,1.4-3.4,2.9-5.2,3.9c-1.8,1.1-3.8,2.2-5.8,3.2l-6,3.1c-2,1.1-4,2.1-6,3.2c-2,1.1-3.9,2.4-5.8,3.7c-3.8,2.6-7.5,5.1-11.4,7.5
		c-3.9,2.4-7.9,4.5-11.7,7.1c-0.9,0.6-1.9,1.3-2.8,2.1c-0.9,0.7-1.7,1.5-2.6,2.2c-1.2,1-2.4,2-3.6,3c5.4-5.1,10.7-10.2,16.1-15.3
		c3-2.8,6-5.5,9.1-8.2c1.6-1.3,3.1-2.6,4.8-3.9l4.9-3.7c6.5-5,13.1-9.8,19.4-15.2c6.2-5.1,11.4-11.4,15.9-18
		c0.4,0.1,0.7,0.1,1.1,0.2c1.3,0.1,2.7-0.1,3.9-0.8c0.5,0.2,0.9,0.2,1.3,0.2c0.5,0,0.9,0,1.4,0c0.5,0,0.9-0.1,1.4-0.1
		c0,0,0.1,0,0.1,0C110.8,39.2,110.4,40.4,110.1,41.5z M116.6,27.7c-0.4,1.1-0.8,2.3-1.3,3.3c-0.5,1.1-1.1,2.1-1.8,3.2
		c-0.7,1-1.4,2-2.2,3l-0.2,0.3l0,0.1c0,0.1,0,0.1,0,0.2c-0.1,0-0.1,0-0.2,0c-0.5,0-0.9,0-1.4-0.1c-0.5-0.1-0.9-0.1-1.4-0.2
		c-0.4-0.1-0.9-0.2-1.2-0.3l-0.2-0.1l-0.2,0.1c-1.1,0.5-2.4,0.7-3.6,0.6c-1.2-0.1-2.5-0.5-3.6-1.1l-0.1,0l-0.1,0
		c-0.8-0.1-1.6-0.3-2.4-0.7c-0.7-0.4-1.4-0.8-2.1-1.4c-0.6-0.6-1.1-1.3-1.6-2c-0.3-0.5-0.6-1.1-0.8-1.6c0.1,0.2,0.2,0.4,0.4,0.5
		c0.4,0.6,1,1.1,1.6,1.6c0.3,0.2,0.7,0.4,1,0.6c0.4,0.1,0.8,0.3,1.1,0.3c1.3,0.4,2.7,0.6,4.2,0.7c1.4,0.1,2.9-0.1,4.3-0.4
		c2.8-0.6,5.4-1.9,7.6-3.6c1.7-1.2,3.1-2.7,4.5-4.2C116.9,26.9,116.7,27.3,116.6,27.7z M123.1,17.6c-0.4,0.5-0.8,1-1.2,1.5l-1.3,1.5
		c-0.9,1-1.8,1.9-2.7,2.8l-0.3,0.3l-0.1,0.4c-0.1,0.5-0.2,0.9-0.4,1.4c-1.9,1.3-3.7,2.7-5.6,3.8c-2.3,1.3-4.7,2.4-7.2,3
		c-2.5,0.6-5.1,0.5-7.8,0.1c-0.4,0-0.6-0.1-0.9-0.2c-0.3-0.1-0.5-0.2-0.8-0.3c-0.5-0.3-1.1-0.7-1.5-1.1c-0.5-0.4-0.9-0.9-1.4-1.4
		c-0.2-0.3-0.4-0.5-0.6-0.8C91.3,28.3,91,28,91,27.6c0,0.7,0.3,1.4,0.6,2c0.2,0.4,0.4,0.7,0.6,1c0,0.3,0.1,0.6,0.2,0.8
		c0.1,0.4,0.3,0.8,0.5,1.3c0.4,0.8,0.9,1.6,1.5,2.3c0.6,0.7,1.3,1.3,2.2,1.7c0.8,0.4,1.7,0.7,2.6,0.8c0.9,0.4,1.8,0.8,2.8,1
		c-2.4,3.1-4.9,6.1-7.5,9c-2.7,3-5.7,5.8-8.9,8.4C79,61.1,72.4,66,65.8,70.9l-4.9,3.7c-1.6,1.3-3.2,2.6-4.8,3.9
		C53,81.3,50,84,47,86.9c-2.9,2.9-5.9,5.7-8.7,8.6l-7.5,7.8c-0.3,0.2-0.5,0.5-0.8,0.7c-1.7,1.4-3.5,2.8-5.3,4
		c-0.9,0.6-1.9,1.2-2.8,1.7c-0.5,0.3-1,0.5-1.5,0.7c-0.4,0.2-1,0.3-1.4,0.2c7-5.9,13.8-11.9,20.5-18.2c3.3-3.2,6.6-6.4,9.8-9.7
		c1.6-1.7,3.2-3.3,4.6-5.2c1.4-1.8,2.7-3.7,4-5.7c2.6-3.8,5-7.8,7.2-11.8c1.1-2,2.2-4.1,3.2-6.2c0.9-2,2.1-4,3.3-5.9
		c4.7-7.7,11.2-14.3,18.4-20c0,0,0-0.1,0-0.1c0,0-0.1-0.1-0.1,0c-7.9,4.8-14.8,11.3-20,19.1c-1.3,2-2.5,4-3.5,6.1
		c-0.9,2.1-2,4.1-3,6.1c-2.1,4-4.4,8-6.8,11.9c-1.2,1.9-2.5,3.8-3.8,5.7c-1.3,1.8-2.9,3.5-4.4,5.2c-3.1,3.4-6.3,6.7-9.5,9.9
		c-6.5,6.4-13.1,12.7-20,18.8c0-0.1-0.1-0.2-0.1-0.2c-0.2-0.6-0.2-1.2,0-1.8c0.2-0.7,0.6-1.4,1-2.1c0.9-1.3,2-2.4,3.1-3.6
		c0.8-0.9,1.5-1.7,2.3-2.6c1.4-1.6,2.8-3.1,4.1-4.7c1.3-1.5,2.5-3,3.8-4.6c0.8-1,1.6-2,2.4-3c0.2-0.3,0.5-0.7,0.7-1
		c0.4-0.6,0.8-1.2,1.3-1.8c0.3-0.4,0.6-0.8,0.9-1.3c0.9-1.3,1.8-2.9,2.6-4.2c4.5-7.5,9.3-14.9,14.2-22.2c1.6-2.4,3.2-4.7,4.8-7
		c0.7-1,1.4-2.1,2.1-3.1c0.1-0.2,0.2-0.3,0.3-0.5c1.5-2.2,3.1-4.3,4.6-6.5c2.1-2.9,4.3-5.7,6.7-8.4c2.7-2.9,5.6-5.4,8.8-7.7
		c2.1-1.5,4.2-2.8,6.4-4.1c5.6-3.1,11.6-5.7,17.5-8.4c2.9-1.3,5.9-2.7,8.8-3.9c0.7-0.3,1.5-0.6,2.2-0.8c0.6-0.2,1.1-0.4,1.6-0.5
		c0.2,0,0.3-0.1,0.5-0.1c0,0,0.1,0,0.1,0c0.2,0,0.4,0,0.5,0c-0.5,0.8-1,1.6-1.4,2.5c-0.1,0.2-0.2,0.4-0.3,0.6
		c-0.3,0.5-0.6,1-0.8,1.6c-0.2,0.4-0.4,0.7-0.5,1.1c-0.2,0.4-0.4,0.7-0.6,1.1c-0.3,0.7-0.7,1.5-1,2.3c0,0.1,0,0.1-0.1,0.2
		c-0.4,0.9-0.7,1.7-1,2.6c0,0,0,0,0,0c0,0,0,0,0,0c-0.3,0.7-0.6,1.5-0.8,2.3c-0.3,0.8-0.6,1.7-0.8,2.6c-0.2,0.8-0.5,1.6-0.9,2.4
		c-0.8,1.5-2.3,2.4-4,2.8c-0.8,0.2-1.7,0.4-2.6,0.4c-0.9,0-1.7-0.2-2.5-0.7c-1.5-0.8-2.5-2.4-3.1-4.1c-0.6-1.7-0.9-3.4-1-5.2
		c0,0,0-0.1-0.1-0.1c0,0-0.1,0-0.1,0c0,1.8,0.2,3.6,0.8,5.3c0.6,1.7,1.5,3.5,3.1,4.4c0.8,0.5,1.8,0.8,2.7,0.8c1,0.1,1.9-0.1,2.8-0.3
		c0.9-0.2,1.8-0.5,2.6-1c0.8-0.5,1.5-1.2,2-2c0.5-0.8,0.8-1.7,1.1-2.6c0.3-0.9,0.5-1.7,0.8-2.5c0.1-0.3,0.2-0.6,0.3-0.8l0,0l1,0
		l1.1,0.1l2.2,0.2l0.4,0l0-0.5c0-1.2,0.2-2.4,0.6-3.5c0.1,0,0.1,0,0.2-0.1c0.4-0.2,2.5-1,5-1.8C124.6,15.6,123.9,16.6,123.1,17.6z
		 M126,12.8c-0.1,0.1-0.1,0.3-0.2,0.4c-2.9,1-4.5,1.5-5.3,1.9c0.1-0.3,0.2-0.6,0.4-0.8c1-0.3,1.9-0.7,2.9-1c0.8-0.3,1.6-0.6,2.4-0.9
		C126.1,12.4,126,12.6,126,12.8z"/>
</g>
</svg>
