<?xml version="1.0" encoding="utf-8"?>
<!-- Generator: Adobe Illustrator 24.1.2, SVG Export Plug-In . SVG Version: 6.00 Build 0)  -->
<svg version="1.1" id="Layer_1" xmlns="http://www.w3.org/2000/svg" xmlns:xlink="http://www.w3.org/1999/xlink" x="0px" y="0px"
	 viewBox="0 0 128 128" style="enable-background:new 0 0 128 128;" xml:space="preserve">
<style type="text/css">
	.st0{fill:#2D2D2D;}
</style>
<path class="st0" d="M127.9,65.9c-2.8-0.2-5.6-0.3-8.4-0.4c2.6-4.3,4.4-9,5-14c0.7-5.5,0.3-11.1-1.3-16.3c-1.7-5.2-4.3-10-8.1-14.1
	c-0.4-0.4-0.9-0.9-1.3-1.3c-0.5-0.4-0.9-0.9-1.4-1.3l-1.5-1.2c-0.3-0.2-0.5-0.4-0.8-0.6l-0.8-0.5l-1.6-1c-0.6-0.3-1.2-0.6-1.7-0.9
	c-1.1-0.6-2.4-1.1-3.6-1.5c-0.6-0.3-1.2-0.4-1.9-0.6l-1.9-0.5l-1.9-0.3l-1-0.2c-0.3,0-0.6-0.1-1-0.1l-1.9-0.1c-0.7,0-1.3,0-2,0
	c-1.3,0-2.6,0.2-3.9,0.4c-0.7,0.1-1.3,0.2-1.9,0.4c-0.6,0.2-1.3,0.3-1.9,0.5l-1.9,0.7L80.3,13c-0.3,0.1-0.6,0.3-0.9,0.4l-1.8,0.8
	c-0.6,0.3-1.1,0.7-1.7,1c-0.6,0.4-1.1,0.7-1.7,1l-1.6,1.2l-0.8,0.6c-0.3,0.2-0.5,0.4-0.7,0.7l-1.5,1.4c-1,0.9-1.8,1.8-2.7,2.8
	c-1.5,1.5-3,3.1-4.5,4.6c-1.4-1.6-2.9-3.2-4.4-4.8c-0.9-0.9-1.7-1.9-2.7-2.8L54,18.5c-0.2-0.2-0.5-0.5-0.7-0.7l-0.8-0.6
	c-4.2-3.4-9.1-5.8-14.4-6.7c-1.3-0.2-2.6-0.4-4-0.4c-0.7,0-1.3-0.1-2,0l-2,0.1c-0.3,0-0.7,0-1,0.1l-1,0.2l-2,0.3l-1.9,0.5
	c-0.6,0.2-1.3,0.3-1.9,0.6c-5,1.8-9.5,4.9-13,8.8l0.6-0.2l-0.6,0.2c-3.7,4.1-6.3,9.1-7.8,14.4C-0.1,40.4-0.4,46,0.5,51.5
	c0.8,5.4,3,10.7,6.2,15.1c0.2,0.2,0.3,0.4,0.5,0.7c-2.2,0.1-4.4,0.3-6.7,0.5c-0.1,0-0.1,0.1-0.1,0.1C0.3,68,0.3,68,0.4,68
	c2.5,0.2,4.9,0.3,7.4,0.5c0.1,0,0.2,0,0.3,0l1.1,1.3c0.9,1,1.8,2,2.7,3l5.4,6c7.3,8,14.5,16.1,21.8,24c7.3,8,14.6,15.9,21.9,23.9
	l1.1,1.2l0.3-0.3l0.3,0.3l1.1-1.2c7.4-7.8,14.8-15.7,22.2-23.6c7.3-7.9,14.7-15.9,21.9-23.9l5.4-6c0.9-1,1.8-2,2.7-3l1.3-1.6
	l0.7-0.8c0.2-0.3,0.4-0.6,0.6-0.9c0-0.1,0.1-0.1,0.1-0.2c3-0.1,6.1-0.3,9.1-0.5c0.1,0,0.1-0.1,0.1-0.1C128,66,127.9,65.9,127.9,65.9
	z M1.4,51.3C1.2,50,1,48.7,1,47.3c0-0.7-0.1-1.3-0.1-2l0.1-2l0-1c0-0.3,0.1-0.7,0.1-1l0.3-2c0.1-0.7,0.3-1.3,0.4-2
	C2,36.7,2.1,36,2.4,35.4c1.6-5.1,4.3-9.8,8-13.7L9.8,22l0.6-0.2c3.5-3.6,7.9-6.4,12.6-7.9c4.7-1.6,9.8-1.7,14.6-0.9
	c4.8,0.9,9.4,3.2,13.2,6.3c1,0.7,1.8,1.7,2.7,2.5c0.9,0.9,1.8,1.9,2.7,2.8c1.8,1.9,3.6,3.8,5.3,5.6l0.9,0.9l0.9-0.9
	c1.7-1.9,3.5-3.8,5.2-5.8c1.7-2,3.4-3.9,5.3-5.5c3.8-3.2,8.4-5.7,13.4-6.6c1.2-0.2,2.5-0.5,3.8-0.5c0.6,0,1.3-0.1,1.9-0.1l1.9,0.1
	c0.3,0,0.6,0,1,0l0.9,0.1l1.9,0.3l1.9,0.5c0.6,0.2,1.2,0.3,1.8,0.5c1.2,0.4,2.4,0.8,3.5,1.4c0.6,0.3,1.2,0.5,1.7,0.9l1.6,1l0.8,0.5
	c0.3,0.2,0.5,0.4,0.8,0.6l1.5,1.2c0.5,0.4,0.9,0.9,1.4,1.3c0.5,0.5,0.9,0.9,1.4,1.4l1.3,1.5c0.4,0.5,0.9,1,1.2,1.6
	c0.7,1.1,1.6,2.2,2.2,3.4l1,1.8l0.8,1.9c0.6,1.2,0.9,2.5,1.3,3.8c0.2,0.6,0.3,1.3,0.5,2c0.1,0.7,0.3,1.3,0.4,2l0.2,2
	c0,0.3,0.1,0.7,0.1,1l0,1l0,2c0,0.7-0.1,1.3-0.1,2c0,1.3-0.3,2.7-0.5,4c-0.9,5.1-3.1,9.9-6.1,14.1c-0.6,0-1.1-0.1-1.7-0.1l-12.3-0.4
	c-4.1-0.1-8.2-0.2-12.3-0.3c-3.8-0.1-7.6-0.1-11.4-0.1l-2.8-5.6l-3.3-6.4l-1.5-2.9l-1.3,2.9l-7.6,16.6l-3.8,8.3
	c-0.9,1.9-1.7,3.9-2.6,5.8l-2.9-9.5c-1.3-4.1-2.5-8.1-3.7-12.2l-1.7-6.1l-1.7-6.1L45,43.1l-1.5-6.2l-0.5-2.2l-0.9,2.1
	c0,0-5.7,12.6-6.8,15.2c-2.1,4.8-4.1,9.7-6.1,14.6c-2.2,0-4.3,0-6.5,0.1c-2.5,0-4.9,0.1-7.4,0.2c-2.2,0.1-4.5,0.2-6.7,0.3l-0.4-0.4
	c-0.2-0.3-0.4-0.5-0.6-0.8C4.4,61.7,2.2,56.6,1.4,51.3z M115.7,67.2l-1.3,1.5l-2.8,2.9l-5.6,5.8c-7.5,7.8-14.9,15.7-22.3,23.5
	c-7,7.5-14,15.1-21,22.6l-0.3-0.3l-0.3,0.3c-7.1-7.5-14.1-15-21.2-22.4c-7.4-7.8-15-15.6-22.5-23.4L12.8,72C11.9,71,11,70,10,69
	l-0.4-0.4c1.8,0.1,3.7,0.2,5.5,0.3c2.5,0.1,4.9,0.2,7.4,0.2c2.5,0.1,4.9,0.1,7.4,0.1l0.9,0l0.3-0.8c2.2-5.1,4.3-10.2,6.3-15.4
	c1-2.6,2-5.2,3-7.8l2.2-5.7l1.2,3.9l1.8,6.1l1.8,6.1l1.7,6.1c1.1,4.1,2.2,8.2,3.2,12.3l3.1,12.4l0.7,2.7l1.3-2.5
	c1.4-2.7,2.7-5.5,4.1-8.2l4-8.2L72,56.7l1.8,3.6l3.3,6.4l0.5,0.9l1,0c4.1-0.1,8.2-0.1,12.3-0.1c4.1-0.1,8.2-0.2,12.3-0.3l12.3-0.4
	c0.2,0,0.4,0,0.6,0L115.7,67.2z"/>
</svg>
