<?xml version="1.0" encoding="utf-8"?>
<!-- Generator: Adobe Illustrator 23.0.0, SVG Export Plug-In . SVG Version: 6.00 Build 0)  -->
<svg version="1.1" id="Layer_1" xmlns="http://www.w3.org/2000/svg" xmlns:xlink="http://www.w3.org/1999/xlink" x="0px" y="0px"
	 viewBox="0 0 128 128" style="enable-background:new 0 0 128 128;" xml:space="preserve">
<style type="text/css">
	.st0{fill:#D3B48C;}
	.st1{fill:#2D2D2D;}
</style>
<path class="st0" d="M64,128C64,128,64,128,64,128C64,128,64,128,64,128z"/>
<path class="st0" d="M64,128C64,128,64,128,64,128C64,128,64,128,64,128z"/>
<g>
	<path class="st1" d="M117.6,35c-0.7,0-1.3,0.6-1.3,1.3c0,0.7,0.6,1.3,1.3,1.3c0.7,0,1.3-0.6,1.3-1.3C118.9,35.6,118.3,35,117.6,35z
		"/>
	<path class="st1" d="M127.5,39c-0.3-0.5-0.6-0.9-1-1.2l-0.6-0.5c-0.1-0.3-0.2-0.6-0.4-0.8c-0.3-0.4-0.7-0.8-1.2-1
		c-0.3-0.1-0.6-0.2-0.9-0.2c0,0,0,0,0,0c-0.8-1.8-2.3-3.2-4-4.1c-0.1-0.1-0.2-0.1-0.4-0.2c-0.6-0.2-0.8-0.3-1.2-0.4
		c-0.3-0.1-0.6-0.1-0.8-0.2c-0.6-0.1-0.7-0.1-1.2-0.1c-0.6,0-1.1,0.1-1.7,0.2c-0.2,0-0.5,0.1-0.9,0.2c-3.3,1-4.3,2.1-4.7,2.5
		c-0.7,0.6-1.3,1.4-1.8,2.3c-0.4,0.8-0.7,1.6-0.9,2.5c-1,1.6-1.6,3.3-2,5.1c-0.2,0.9-0.3,1.9-0.3,2.8c0,0.9,0.1,1.7,0.2,2.6
		c-0.1,0.2-0.3,0.4-0.5,0.5c-0.2,0.1-0.4,0.2-0.8,0.2c-0.3,0-0.7,0-1.1-0.1l-1.3-0.2c-1.7-0.2-3.4-0.2-5.2-0.3
		c-3.4,0-6.8,0.3-10.3,0.5l-10.2,0.6c-3.4,0.2-6.8,0.5-10.2,1.1c-3.4,0.6-6.8,1.5-10,2.7c-1.6,0.6-3.2,1.4-4.7,2.3
		c-1.5,0.9-3,1.9-4.3,3c-1.4,1.1-2.6,2.3-3.8,3.6c-1.1,1.3-2.2,2.7-3.1,4.3c-1.3,2.2-2.3,4.7-2.6,7.2c-4,1.1-7.8,2.8-11.4,4.8
		c-3.7,2.1-7.3,4.5-10.6,7.3c-1.6,1.4-3.2,2.9-4.7,4.4c-0.7,0.8-1.5,1.5-2.2,2.3c-0.7,0.8-1.4,1.6-2.1,2.4c-1.4,1.6-2.8,3.2-4.2,4.8
		c-0.2,0.2-0.4,0.4-0.5,0.8c0,0.1,0,0.2,0,0.4c0,0.2,0.2,0.3,0.3,0.3c0.2,0.1,0.4,0.1,0.5,0.2c0.6,0,1.2-0.1,1.7-0.2
		c0.5-0.1,1.1-0.3,1.6-0.5c0.2-0.1,0.5-0.2,0.7-0.3h0c0.1,0.1,0.2,0.2,0.3,0.3c0.4,0.2,0.7,0.2,1,0.2c0.6,0,1.1-0.1,1.7-0.2
		c1.1-0.2,2.1-0.5,3.1-0.9c1-0.4,2-0.7,3-1.4c0.1-0.1,0.3-0.2,0.4-0.3c0.1-0.1,0.2-0.1,0.3-0.2c0.2-0.1,0.4-0.3,0.6-0.4
		c0.4-0.3,0.9-0.6,1.3-0.8c1.8-1.1,3.5-2.2,5.3-3.3l5.4-3.3l5.3-3.3c0.4-0.3,0.9-0.6,1.3-0.8l1.4-0.8l2.7-1.6c1.8-1,3.6-2.1,5.3-3.2
		c0.5,0.1,1,0.1,1.4,0.2c0.6,0,1.2,0.1,1.8,0.1c0.6,0,1.2,0,1.8-0.1c0.4-0.1,0.8-0.1,1.2-0.2c0,0,0.1,0.1,0.1,0.1
		c0.2,0.2,0.4,0.4,0.5,0.6c0.4,0.4,0.8,0.6,1.2,0.9c0.9,0.5,1.7,0.9,2.5,1.5c0.8,0.5,1.6,1.1,2.4,1.7c0.8,0.6,1.6,1.2,2.4,1.6
		c1.7,0.9,3.6,1.8,5.5,2.1c1.9,0.3,4.2,0.3,6-0.5l0.1,1c0.1,0.8,0.2,1.6,0.2,2.3c0,0.4,0,0.8,0,1.1c0,0.2,0,0.4-0.1,0.5
		c0,0.2-0.1,0.4-0.1,0.5c-0.5,1.5-1.1,2.9-1.7,4.3c-0.3,0.7-0.7,1.4-1,2.1l-0.1,0.2c-0.1,0.3-0.1,0.5-0.1,0.6c0,0.3,0.1,0.5,0.1,0.7
		c0.1,0.4,0.3,0.8,0.4,1.2c1.3,2.9,2.9,5.6,4.4,8.4c0.8,1.4,1.5,2.8,2.2,4.2l1.1,2.1l0.5,1.1l0.1,0.1c0,0,0,0,0,0.1
		c0,0.1,0,0.1,0,0.2c0,0.1-0.1,0.2-0.2,0.2c-1.9,0.4-3.8,0.7-5.7,1.1l-0.1,0l-0.1,0c-0.5,0.2-0.7,0.8-0.6,1.3
		c0.1,0.3,0.2,0.5,0.4,0.7c0.1,0.1,0.1,0.1,0.2,0.2l0.2,0.1l0.7,0.5l0.1,0.1l0.1,0.1c0.1,0.1,0.2,0.1,0.4,0.1c0.3,0.1,0.5,0,0.8-0.1
		l-0.1,0.1l5.7-1.1l0.2-0.1l0.1,0.1c1.1,0.9,2.2,1.8,3.3,2.7l1.7,1.3l0.8,0.7l0.2,0.2c0.1,0.1,0.1,0.1,0.3,0.2
		c0.2,0.2,0.5,0.2,0.7,0.3c0.4,0.1,0.8,0.1,1.3,0.1c0.2,0,0.4,0,0.7-0.1c0.1,0,0.2-0.1,0.4-0.2c0.1-0.1,0.3-0.2,0.4-0.5
		c0.1-0.3,0-0.6-0.1-0.7c0-0.1-0.1-0.1-0.1-0.2l0,0l0,0l0,0l-0.1-0.1l0,0l-0.1,0l-0.4-0.3c-0.3-0.2-0.6-0.4-0.9-0.6
		c-0.6-0.4-1.1-0.8-1.6-1.3c-0.2-0.2-0.5-0.5-0.6-0.7c-0.1-0.1-0.1-0.2-0.1-0.3c0.7,0.3,1.4,0.7,2,1.1c0.7,0.5,1.4,1.1,2.1,1.8
		c0,0,0,0,0,0c0,0,0.1,0.1,0.1,0c0.5-0.2,0.8-0.7,0.9-1.3c0-0.3,0-0.6-0.1-0.8c0.7,0.5,1.3,1.1,2.1,1.5c0.4,0.2,0.8,0.4,1.2,0.6
		l0.6,0.3c0.2,0.1,0.4,0.3,0.7,0.3c0.3,0.1,0.5,0,0.8-0.1c0.3-0.1,0.4-0.2,0.6-0.4c0.4-0.3,0.7-0.7,1-1.1l0.2-0.3l-0.3-0.2
		c-0.1-0.1-0.2-0.1-0.3-0.2c0-1-0.2-2-0.4-2.9c-0.2-1-0.5-1.9-1-2.9c-0.1-0.1-0.2-0.3-0.3-0.4c-0.1-0.1-0.2-0.3-0.5-0.4
		c-0.1,0-0.1-0.1-0.2-0.1c0,0-0.1,0-0.1,0l0,0l-0.2,0l-0.4-0.1c-0.5-0.1-0.9-0.2-1.4-0.2c-0.8-0.1-1.7-0.2-2.5-0.3
		c-0.8-1.4-1.7-2.7-2.5-4.1c-0.9-1.5-1.6-3-2.4-4.6c-0.4-0.8-0.7-1.6-1-2.4c-0.2-0.4-0.3-0.8-0.5-1.2c-0.1-0.2-0.1-0.4-0.2-0.6
		c-0.1-0.2-0.1-0.3-0.1-0.5c0-0.7,0.2-1.5,0.4-2.3c0.2-0.8,0.5-1.6,0.8-2.4c0.1-0.4,0.3-0.8,0.5-1.2c0.1-0.2,0.2-0.4,0.2-0.5
		c0.1-0.1,0.2-0.3,0.3-0.4c0.5-0.6,1.1-1.2,1.7-1.7c1.2-1.2,2.5-2.3,3.8-3.6c0.3-0.3,0.6-0.7,0.9-1.1c0.3-0.4,0.5-0.7,0.8-1.1
		c0.5-0.7,1-1.5,1.4-2.2c0.5-0.7,0.9-1.5,1.3-2.3l0.4-0.8c1.7-0.3,3.4-0.8,5.1-1.4c1.9-0.7,3.7-1.7,5.4-2.8c0.9-0.6,1.7-1.2,2.4-1.9
		l0.5-0.6l0.5-0.6l0.9-1.2c1.2-1.7,2.3-3.4,3.2-5.2c0.9-1.8,1.7-3.7,2.3-5.6c0.4-0.9,0.7-1.9,1-2.9c0.2-0.5,0.3-1,0.4-1.5
		c0.1-0.5,0.3-1,0.4-1.5c0.4-2.1,0.3-4.2,0-6.2c-0.1-1-0.3-2-0.5-3c-0.2-1-0.4-2-0.9-2.9c0.1-0.4,0.3-0.7,0.5-1
		c0.2-0.3,0.4-0.4,0.7-0.6c0.3-0.2,0.5-0.3,0.9-0.5c0.3-0.1,0.7-0.3,1.1-0.4c0.4-0.2,0.8-0.3,1.2-0.3c0.4,0,0.8,0.2,1.2,0.3
		c0.4,0.1,0.9,0.1,1.4-0.2c0.2-0.1,0.5-0.4,0.5-0.7c0.1-0.2,0.1-0.4,0-0.6c0.4,0,0.9-0.1,1.2-0.3l0.2,0c0.6,0.1,1.2,0.3,1.8,0.5
		c0.5,0.2,1,0.5,1.2,0.9l0.9,1.8l0.2-2.1c0-0.4,0.1-0.9,0.1-1.4c0-0.5,0-1,0-1.5C127.9,40,127.7,39.4,127.5,39z M123.3,35.2
		c-0.2,0-0.4,0-0.6,0c-0.5,0.1-1,0.3-1.4,0.6l-0.1,0.1l0,0.1c-0.3,0.4-0.2,0.7-0.2,0.9c0,0.2,0,0.4,0.1,0.6c0,0.2,0.1,0.4,0.1,0.6
		c-0.1,0.1-0.3,0.1-0.4,0.2c-0.3,0.2-0.6,0.5-0.9,0.9c-0.2,0.4-0.3,0.9-0.2,1.3c0,0.2,0.1,0.3,0.2,0.5c-0.5,0.1-1,0.2-1.6,0.2
		c-0.5,0-1.1,0-1.6-0.1c-1-0.2-1.9-0.7-2.5-1.4c-0.6-0.7-0.9-1.7-0.9-2.7c0-0.9,0.1-1.8,0.3-2.7c0.6-0.2,1.1-0.3,1.7-0.4
		c0.7-0.1,1.4-0.3,2.1-0.3c0.7-0.1,1.4-0.1,2.1-0.1c0.6,0,1.2,0.1,1.8,0.4C121.9,34.2,122.6,34.7,123.3,35.2z M35.9,75.6
		c0.1,0,0.2,0,0.2-0.1c0.2-1.2,0.4-2.3,0.9-3.5c1.7-0.4,3.4-0.9,5.1-1.4c1.8-0.6,3.5-1.2,5.2-1.9c1.7-0.7,3.5-1.3,5.1-2.2
		c1.6-0.9,3.2-1.9,4.6-3.2c0,0,0-0.1,0-0.1c0,0-0.1-0.1-0.1-0.1c-0.9,0.2-1.8,0.6-2.6,0.9c-0.9,0.3-1.7,0.7-2.5,1
		c-1.7,0.7-3.3,1.7-4.9,2.5c-1.6,0.8-3.3,1.6-5,2.3c-1.6,0.7-3.1,1.3-4.7,1.9c0.6-1.5,1.4-2.9,2.3-4.2c1.9-2.7,4.2-5.1,6.9-7.1
		c1.3-1,2.7-1.9,4.2-2.7c1.4-0.8,2.9-1.5,4.5-2.2c3.1-1.3,6.3-2.2,9.6-3c3.3-0.8,6.6-1.4,10-1.9c1.7-0.2,3.4-0.4,5.1-0.5
		c2.5,0.2,5.1,0.5,7.6,1c2.8,0.5,5.5,1.4,8,2.6c2.4,1.2,4.3,3.2,4.9,5.7c0.4,1.3,0.5,2.6,0.6,4c0,0.7,0,1.4,0,2.1l0,1.1
		c0,0.2,0,0.2,0,0.4c0,0.1,0,0.3-0.1,0.4c-0.3,1.1-1.2,2.2-2.1,3.1c-1,1-2.1,1.8-3.2,2.6c-2.3,1.6-4.8,3-7.3,4.1
		c-2.6,1.1-5.4,1.3-8.2,0.9c-1.4-0.2-2.8-0.5-4.1-1c-1.3-0.5-2.7-1-3.7-1.8l-0.1-0.1l-0.2,0c-2.9,0.5-5.9,0.6-8.9,0.7l-9,0.3l-0.6,0
		c1.5-0.4,2.9-0.8,4.4-1.2c1.6-0.5,3.3-1,4.8-1.8c1.5-0.8,2.9-1.8,4.2-2.9c0,0,0-0.1,0-0.1c0,0-0.1-0.1-0.1-0.1
		c-0.9,0.2-1.7,0.5-2.4,0.8c-0.8,0.3-1.6,0.6-2.4,0.9c-0.8,0.3-1.5,0.7-2.3,1c-0.7,0.4-1.5,0.7-2.3,1.1c-1.5,0.7-3.1,1.3-4.7,1.8
		c-0.7,0.3-1.5,0.5-2.3,0.7l-14,0.1c0-0.2,0.1-0.5,0.1-0.7c-0.1,0-0.1,0-0.2,0C35.9,75.8,35.9,75.7,35.9,75.6
		C35.8,75.6,35.9,75.6,35.9,75.6z M5.7,100.2C5.7,100.2,5.7,100.2,5.7,100.2C5.7,100.2,5.7,100.2,5.7,100.2z M43,79.9l-5.7,2.7
		c-1.9,0.9-3.8,1.8-5.6,2.9c-1.8,1-3.6,2.1-5.4,3.2c-3.6,2.2-7.1,4.4-10.6,6.8c-0.4,0.3-0.9,0.6-1.3,0.9c-0.2,0.2-0.4,0.3-0.7,0.5
		c-0.1,0.1-0.3,0.2-0.3,0.3c-0.1,0.1-0.1,0.1-0.2,0.2c-0.7,0.5-1.7,1-2.6,1.3c-0.9,0.4-1.9,0.7-2.9,1c-0.5,0.1-1,0.2-1.4,0.3
		c-0.1,0-0.3,0-0.4,0l2-3.7l-2.9,3.1c-0.3,0.3-0.7,0.5-1.2,0.8c-0.5,0.2-0.9,0.4-1.4,0.6c-0.5,0.1-1,0.3-1.4,0.3c-0.1,0-0.2,0-0.2,0
		c0-0.1,0.2-0.3,0.3-0.5c1.3-1.7,2.7-3.3,4.1-4.8c2.9-3.1,6.2-5.8,9.5-8.3c3.3-2.5,6.7-5,10.3-7.2c1.8-1.1,3.6-2.2,5.4-3.2
		c1.7-0.9,3.4-1.8,5.2-2.6c-0.1,0.8-0.2,1.6-0.1,2.4c0,0,0,0.1,0.1,0.1c0.1,0,6.1,0.6,9.1,0.7c0.9,0,1.8,0.1,2.7,0.1
		C46,78.5,44.4,79.2,43,79.9z M88.2,125.7c-0.5-0.7-1.2-1.4-1.8-2c-0.7-0.6-1.5-1.2-2.4-1.6l-0.1-0.1l-0.2,0.1
		c-0.2,0.1-0.4,0.5-0.4,0.8c0,0.3,0.1,0.5,0.2,0.7c0.2,0.4,0.4,0.7,0.7,0.9c0.5,0.6,1.1,1,1.6,1.5c0.3,0.2,0.6,0.4,0.9,0.7l0.1,0.1
		c0,0-0.1,0-0.1,0c-0.3,0-0.6,0-0.9-0.1c-0.1,0-0.2-0.1-0.3-0.1l-0.4-0.3l-0.8-0.7l-1.6-1.3c-1.1-0.9-2.2-1.8-3.3-2.6
		c-0.4-0.4-1-0.5-1.5-0.3l-5.6,1.2l-0.1,0l0,0c0,0,0,0,0,0c0,0,0,0,0,0l-0.1-0.1l-0.7-0.5l-0.3-0.2c0,0,0,0,0-0.1c0-0.1,0-0.1,0-0.1
		c1.8-0.5,3.7-1,5.5-1.4l0.1,0l0,0c0.3-0.1,0.4-0.4,0.5-0.7c0-0.1,0-0.3,0-0.4c0-0.1-0.1-0.1-0.1-0.2l-0.1-0.1l-0.6-1
		c-0.4-0.7-0.8-1.4-1.2-2c-0.8-1.4-1.5-2.8-2.2-4.2c-0.7-1.4-1.4-2.8-2-4.3c-0.6-1.4-1.2-2.8-1.7-4.2c0.4,0.3,0.7,0.6,1.2,0.9
		c0.5,0.3,1.1,0.6,1.7,0.8c0.3,0.1,0.7,0.2,1.1,0.2c0,0.2,0.1,0.5,0.2,0.6c0.1,0.2,0.2,0.4,0.3,0.6l0.6,1.1c0.4,0.8,0.8,1.5,1.2,2.3
		c0.8,1.5,1.5,3.1,2.2,4.7c0.7,1.6,1.3,3.2,2,4.8l0.1,0.2l0.3,0.1c1,0.5,2,0.9,2.9,1.4c0.5,0.2,1,0.4,1.5,0.6c0.5,0.2,1,0.4,1.5,0.6
		c0.8,0.4,1.5,0.9,2.1,1.4c0.3,0.3,0.5,0.6,0.6,1C88.6,124.9,88.5,125.4,88.2,125.7z M74.1,104.7c0-0.7,0.2-1.5,0.4-2.3
		c0.2-0.6,0.3-1.1,0.5-1.7c0,0,0,0,0,0c0.3,0.6,0.6,1.1,0.9,1.7c0.3,0.5,0.5,1.1,0.8,1.6c0.5,1.1,0.9,2.2,1.2,3.3
		c0.4,1.1,0.9,2.2,1.4,3.3c0.5,1.1,1,2.1,1.6,3.2c0.3,0.5,0.6,1,0.9,1.5c0.2,0.2,0.3,0.5,0.5,0.7c0.2,0.2,0.4,0.5,0.5,0.7
		c0.4,0.6,0.4,1.5-0.1,2.2c-0.6-0.3-1.2-0.6-1.8-0.8c-0.8-1.4-1.7-2.8-2.5-4.2c-0.9-1.5-1.8-3-2.5-4.6c-0.4-0.8-0.7-1.6-1-2.4
		c-0.2-0.4-0.3-0.8-0.5-1.2c-0.1-0.2-0.1-0.4-0.2-0.6C74.1,105,74.1,104.9,74.1,104.7z M91.4,86.2l-1.6,2c-0.6,0.7-1.1,1.3-1.7,1.8
		c-1.2,1.1-2.6,2.2-3.9,3.4c-0.6,0.6-1.3,1.2-1.9,2.1c-0.1,0.2-0.3,0.4-0.4,0.7c-0.1,0.3-0.2,0.5-0.3,0.7c-0.1,0.4-0.3,0.8-0.4,1.3
		c-0.3,0.9-0.5,1.7-0.6,2.6c-0.1,0.4-0.2,0.9-0.2,1.4c0,0.5-0.1,0.9,0,1.5c0,0.2,0.1,0.6,0.2,0.8c0.1,0.2,0.2,0.4,0.3,0.6
		c0.2,0.4,0.4,0.8,0.6,1.1c0.4,0.8,0.9,1.5,1.3,2.3c0.8,1.5,1.6,3.1,2.3,4.7c0.7,1.6,1.3,3.2,2,4.8l0.1,0.3l0.4,0.1
		c0.9,0.2,1.9,0.4,2.8,0.5c0.5,0.1,1,0.1,1.4,0.2c0.7,0.2,0.3-0.2,0.6,0.3c0.2,0.3,0.5,0.7,0.7,1.1c0.2,0.4,0.4,0.8,0.6,1.3
		c0.4,0.8,0.7,1.6,1.1,2.3c-0.4-0.3-0.9-0.6-1.3-0.9c-0.6-1.1-1.2-2.1-1.9-3.2l-0.1-0.2l-0.3,0c-1.3-0.1-2.6-0.2-3.8-0.2l-2.5-0.1
		l2.2,1.3c1.3,0.8,2.6,1.5,4,2.3c1.2,0.7,2.5,1.4,3.8,2c-0.1,0.3-0.2,0.5-0.4,0.7c-0.3,0.3-0.6,0.5-1,0.4c-0.3-0.1-0.6-0.5-1-0.8
		c-0.3-0.3-0.6-0.6-1-0.9c-0.7-0.6-1.4-1.1-2.2-1.5c-0.6-0.3-1.1-0.6-1.7-0.9c-0.4-0.4-0.8-0.7-1.3-1l-0.1,0c-0.5-0.3-1-0.5-1.4-0.8
		c-0.5-0.3-1-0.5-1.4-0.7c-0.1-0.1-0.3-0.1-0.4-0.2c0.3-0.2,0.6-0.5,0.8-0.9c0.3-0.6,0.4-1.4,0.2-2.2c-0.1-0.4-0.2-0.6-0.4-0.9
		c-0.1-0.3-0.2-0.5-0.4-0.8c-0.2-0.5-0.5-1.1-0.7-1.6c-0.5-1.1-1.1-2.1-1.7-3.1c-0.6-1-1.2-2-1.9-3c-0.7-1-1.3-2-1.8-3
		c-0.5-1-0.9-2.2-0.9-3.3c0-0.1-0.3-1.9,1.9-4.5c1.2-1.1,2.4-2.1,3.5-3.3c0.3-0.3,0.6-0.7,0.9-1.1c0.3-0.4,0.5-0.7,0.8-1.1
		c0.5-0.7,1-1.5,1.4-2.2c0.3-0.5,0.6-1.1,0.9-1.6c1.2-0.2,2.4-0.5,3.6-0.9c1.3-0.4,2.5-0.9,3.7-1.5L91.4,86.2z M92.9,122.5
		c-0.3-0.2-0.6-0.4-0.9-0.6c-0.6-0.4-1.3-0.8-1.9-1.2c0.4,0,0.8,0,1.3-0.1C91.8,121.3,92.4,121.9,92.9,122.5z M121.8,42.8
		c-0.1,0.1-0.2,0.1-0.4,0.1c-0.3,0.1-0.6,0.1-1,0.2c-0.4,0.1-0.8,0.3-1.2,0.2c-0.4,0-0.8-0.1-1.3-0.1c-0.4-0.1-0.9,0-1.3,0.1
		c-0.5,0.1-0.9,0.3-1.3,0.6c-0.4,0.3-0.7,0.8-0.8,1.4c-0.1,0.5,0,1,0.3,1.3c0,0,0,0,0,0c0.2,1,0.2,2,0.2,3c0,1,0,2,0,3
		c0.1,2-0.1,3.9-0.5,5.7c-0.1,0.5-0.2,0.9-0.4,1.4c-0.2,0.5-0.3,0.9-0.5,1.4l-0.9,2.8c-0.6,1.9-1.2,3.8-2,5.6
		c-0.7,1.8-1.5,3.7-2.4,5.4c-0.3,0.4-0.5,0.9-0.8,1.3l-0.4,0.6l-0.4,0.6c-0.6,0.7-1.4,1.3-2.3,1.8c-1.7,0.9-3.7,1.4-5.6,1.9
		c-1.9,0.5-3.8,1-5.8,1.4l-0.1,0l-0.1,0.1c-1.2,0.8-2.5,1.4-3.8,2c-0.9,0.5-1.9,0.9-2.8,1.3c0,0,0,0,0,0l1.2-2.3l0-0.1
		c0,0,0-0.1,0-0.1c0,0-0.1,0-0.1,0c-0.4,0.3-0.6,0.6-0.9,1l-0.9,1l-1.7,2l-1.6,2c-0.6,0.7-1.1,1.3-1.7,1.8c-1.2,1.1-2.6,2.2-3.9,3.4
		c-0.6,0.6-1.3,1.3-1.8,2.1c-0.1,0.2-0.3,0.4-0.4,0.7c-0.1,0.3-0.2,0.5-0.3,0.7c-0.1,0.4-0.3,0.8-0.4,1.3c-0.3,0.9-0.5,1.7-0.6,2.6
		c-0.1,0.7-0.2,1.4-0.2,2.2l-0.6-0.4c-0.5-0.3-0.9-0.7-1.4-1c-0.7-0.4-1.4-0.9-2.3-1.2c0-0.1,0-0.2,0-0.3c0,0,0,0,0,0l0.1-0.2
		c0.4-0.7,0.7-1.4,1-2.2c0.6-1.5,1.2-2.9,1.6-4.5c0.1-0.2,0.1-0.4,0.1-0.6c0-0.2,0.1-0.4,0.1-0.7c0-0.4,0-0.8-0.1-1.2
		c-0.1-0.8-0.2-1.6-0.4-2.4c-0.3-1.5-0.8-3.1-1.2-4.6l0-0.1c0,0,0,0-0.1,0c0,0-0.1,0-0.1,0.1c0,0.9,0.2,1.6,0.3,2.4l0.2,1.1
		c-1.9-0.3-3.8-0.6-5.6-1.2c-1.7-0.6-3.5-1-5.3-1.7c-0.9-0.3-1.8-0.6-2.7-1c-0.9-0.3-1.7-0.8-2.5-1.3c-0.8-0.5-1.4-1.3-2-2l-0.9-1.1
		c-0.1-0.2-0.3-0.3-0.4-0.5c-0.1-0.1-0.2-0.3-0.2-0.3l-0.4-0.8l-0.7,0.3c-0.4,0.2-1,0.3-1.5,0.5c-0.6,0.1-1.1,0.3-1.7,0.4l-1.7,0.4
		c-0.2,0-0.3,0.1-0.5,0.1c0.6-0.4,1.2-0.8,1.9-1.2c0.7-0.4,1.3-0.8,1.9-1.3c0.4,0,0.7,0,1.1,0c1.5,0,3,0.1,4.5,0c3,0,6-0.1,9-0.4
		c3-0.3,5.9-0.7,8.8-1.4c0.6,0.4,1.2,0.7,1.8,0.9c0.7,0.3,1.3,0.5,2,0.8c1.4,0.5,2.8,0.8,4.2,1.1c1.4,0.2,2.9,0.4,4.4,0.4
		c1.5,0,3-0.3,4.4-0.8c2.8-0.9,5.4-2.2,7.9-3.8c1.2-0.8,2.4-1.7,3.5-2.7c0.5-0.5,1.1-1.1,1.6-1.7c0.5-0.6,0.9-1.3,1.2-2.2
		c0.1-0.2,0.1-0.4,0.2-0.7c0-0.2,0.1-0.5,0.1-0.7l0-1.1c0-0.7,0-1.5,0-2.2c0-1.5-0.2-3-0.7-4.5c-0.5-1.5-1.2-2.9-2.3-4.1
		c-1.1-1.2-2.4-2-3.8-2.6c-2.7-1.1-5.6-1.8-8.4-2.1c2.5,0.1,5,0.3,7.5,0.4c1.7,0.1,3.4,0.2,5,0.3l1.3,0.1c0.4,0,0.9,0.1,1.4,0
		c0.5,0,1.1-0.2,1.6-0.6c0.5-0.4,0.8-0.9,1-1.3l0.1-0.2l0-0.2c-0.2-0.9-0.4-1.7-0.4-2.6c-0.1-0.9-0.1-1.8,0-2.7
		c0.1-0.9,0.2-1.8,0.4-2.7c0.2-0.9,0.5-1.7,0.8-2.5c1-1.5,2.1-2.9,3.2-4.2c0.5-0.6,1-1.2,1.7-1.7c0.3-0.2,0.6-0.3,0.7-0.4
		c0.7-0.3,1.4-0.5,2.1-0.5c0.9,0,1.8,0.1,2.6,0.3c0.9,0.2,1.7,0.5,2.5,0.8c0.4,0.2,0.8,0.4,1.2,0.6c-0.2-0.1-0.3-0.1-0.5-0.1
		c-0.7-0.2-1.5-0.2-2.2-0.3c-0.7,0-1.5,0-2.2,0.1c-0.7,0.1-1.5,0.2-2.2,0.4l-0.3,0.1l-0.1,0.3c-0.4,1.1-0.6,2.3-0.5,3.5
		c0,0.6,0.1,1.2,0.4,1.8c0.2,0.6,0.5,1.1,1,1.6c0.9,0.9,2.1,1.4,3.2,1.4c1.1,0,2.3-0.2,3.2-0.7c0.1,0.2,0.2,0.4,0.3,0.6
		c0.5,0.6,1.3,0.9,1.9,1c0,0,0,0,0.1,0C121.9,42.6,121.8,42.7,121.8,42.8z M126.7,41.9c0,0.1,0,0.1,0,0.2c-0.3-0.2-0.6-0.3-0.9-0.3
		c-0.6-0.2-1.3-0.2-1.9-0.2c-0.1-0.1-0.2-0.2-0.3-0.3c-0.1-0.1-0.3-0.3-0.4-0.4c-0.3-0.3-0.6-0.5-0.9-0.8l0.6,1l0.3,0.5
		c0.1,0.2,0.2,0.4,0.2,0.5l0,0c-0.5,0-1,0-1.4-0.2c-0.6-0.2-1-0.5-1.3-0.9c-0.1-0.2-0.2-0.5-0.2-0.7c0-0.2,0-0.4,0.2-0.5
		c0.2-0.3,0.8-0.6,1.2-0.8l0.6-0.2l-0.2-0.6c-0.1-0.3-0.2-0.6-0.3-0.9c0-0.2-0.1-0.3-0.1-0.4c0,0,0-0.1,0-0.1
		c0.3-0.2,0.6-0.4,0.9-0.5c0.4-0.1,0.7-0.2,1.1-0.1c0.6,0.1,1.2,0.6,1.7,1.2l-0.2,0.6c-0.1,0.4-0.2,0.8-0.4,1.2
		c-0.1,0.2-0.2,0.4-0.3,0.6c-0.1,0.1-0.2,0.3-0.2,0.4c-0.4,0-0.8,0-1.2,0c-0.4,0-0.8,0-1.2,0c0.5,0.1,0.9,0.3,1.3,0.4
		c0.4,0.1,0.8,0.3,1.1,0.4l0.2,0l0.2-0.2c0.2-0.2,0.3-0.4,0.5-0.6c0.2-0.2,0.3-0.4,0.4-0.6c0.1-0.1,0.2-0.3,0.2-0.4
		c0.3,0.4,0.4,0.9,0.5,1.5C126.7,41,126.8,41.5,126.7,41.9z"/>
	<path class="st1" d="M35.9,75.7c0.1,0,0.1,0,0.2,0c2.2-0.4,5.3-1.2,7.5-1.8c2.2-0.6,4.4-1.3,6.6-2c2.2-0.7,4.4-1.4,6.5-2.4l1.5-0.8
		c0.5-0.3,1-0.6,1.5-0.9c1-0.6,1.9-1.3,2.8-2c0,0,0-0.1,0-0.1c0,0-0.1-0.1-0.1,0c-2.2,0.7-4.3,1.6-6.4,2.4c-2.1,0.8-4.1,1.8-6.3,2.7
		c-2.1,0.9-4.2,1.7-6.4,2.4c-2.1,0.7-5.1,1.7-7.2,2.4c-0.1,0-0.2,0-0.2,0.1C35.9,75.6,35.8,75.6,35.9,75.7
		C35.9,75.7,35.9,75.8,35.9,75.7z"/>
	<g>
		<polygon class="st1" points="107,24.1 107,24.1 107,24.1 		"/>
		<path class="st1" d="M126.9,27.1c-0.6-0.5-1.9,0.6-1.9,0.6s-0.7,0.4-1.1,0.6c-0.6,0.4-1.1,0.8-1.6,1.3c-0.5,0.5-1,1.1-1.1,1.8
			c-0.2,0.7-0.1,1.5,0.3,2.1c0,0,0,0,0,0c0,0,0.1,0.2,0.1,0.2l0-0.2c0.3-0.7-0.6-2.7,3.6-5.3c1.1-0.7,1.8,0.1,1.8,0.1l-0.5,0.2
			c0,0,0.1,0.5,0.8,0.4C128,28.7,127.5,27.6,126.9,27.1z"/>
		<path class="st1" d="M125.3,24.4c-0.8-0.5-2,1-2,1s-0.7,0.6-1.1,0.9c-0.6,0.5-1.1,1.1-1.5,1.7c-0.4,0.6-0.9,1.4-0.9,2.2
			c0,0.8,0.2,1.7,0.7,2.3c0,0,0,0,0,0c0,0,0.2,0.2,0.2,0.2l-0.1-0.2c0.2-0.8-1.2-2.9,3-6.7c1.1-1,2-0.2,2-0.2l-0.5,0.4
			c0,0,0.2,0.6,1,0.3C126.8,26,126.1,24.8,125.3,24.4z"/>
		<path class="st1" d="M123.1,23.9c-0.9-0.2-1.6,1.5-1.6,1.5s-0.5,0.8-0.8,1.2c-0.4,0.6-0.7,1.3-0.9,2.1c-0.2,0.7-0.4,1.6-0.2,2.4
			c0.2,0.8,0.7,1.5,1.3,2c0,0,0,0,0,0c0,0,0.2,0.2,0.2,0.1L121,33c0-0.8-1.9-2.5,0.9-7.2c0.7-1.3,1.9-0.8,1.9-0.8l-0.4,0.5
			c0,0,0.4,0.5,1,0C125,25.1,124,24.2,123.1,23.9z"/>
		<path class="st1" d="M121.5,21.8c-1-0.3-1.8,1.7-1.8,1.7s-0.6,0.9-0.8,1.3c-0.4,0.7-0.8,1.5-1,2.3c-0.2,0.8-0.5,1.7-0.3,2.6
			c0.2,0.9,0.7,1.7,1.5,2.2c0,0,0,0,0,0c0,0,0.2,0.2,0.2,0.1l-0.1-0.2c0-0.9-2.2-2.7,1-7.9c0.8-1.4,2.1-0.9,2.1-0.9l-0.4,0.6
			c0,0,0.4,0.5,1.1,0C123.7,23,122.5,22,121.5,21.8z"/>
		<path class="st1" d="M117,21.8c-1,0.2-1,2.3-1,2.3s-0.2,1-0.2,1.5c-0.1,0.8-0.1,1.7,0,2.5c0.1,0.8,0.3,1.8,0.8,2.5
			c0.5,0.7,1.4,1.3,2.2,1.4c0,0,0,0,0,0c0,0,0.3,0.1,0.3,0l-0.2-0.1c-0.4-0.8-3.1-1.6-2.3-7.7c0.2-1.6,1.5-1.6,1.5-1.6l-0.2,0.7
			c0,0,0.6,0.3,1-0.4C119.4,22.1,118,21.6,117,21.8z"/>
		<path class="st1" d="M114.3,20c-1.1,0.2-1,2.5-1,2.5s-0.2,1.1-0.3,1.6c-0.1,0.9-0.1,1.8,0,2.7c0.1,0.9,0.3,1.9,0.9,2.7
			c0.6,0.8,1.5,1.4,2.4,1.5c0,0,0,0,0.1,0c0,0,0.3,0.1,0.3,0l-0.2-0.2c-0.4-0.9-3.3-1.7-2.5-8.3c0.2-1.7,1.6-1.8,1.6-1.8l-0.2,0.7
			c0,0,0.7,0.3,1.1-0.5C117,20.4,115.4,19.9,114.3,20z"/>
		<path class="st1" d="M111.2,21.6c-0.9,0.4-0.3,2.5-0.3,2.5s0.1,1,0.2,1.5c0.1,0.8,0.3,1.6,0.7,2.4c0.3,0.8,0.7,1.6,1.5,2.2
			c0.7,0.5,1.6,0.8,2.5,0.7c0,0,0,0,0,0c0,0,0.3,0,0.3,0l-0.3-0.1c-0.6-0.7-3.4-0.7-4.3-6.7c-0.3-1.6,1-2,1-2l0,0.7
			c0,0,0.7,0.1,0.9-0.7C113.6,21.2,112.1,21.1,111.2,21.6z"/>
		<path class="st1" d="M109.7,22.7c-0.8,0.4-0.3,2.2-0.3,2.2s0.1,0.9,0.2,1.4c0.1,0.7,0.3,1.5,0.6,2.2c0.3,0.7,0.7,1.5,1.3,2
			c0.7,0.5,1.5,0.8,2.3,0.7c0,0,0,0,0,0c0,0,0.3,0,0.2,0l-0.2-0.1c-0.5-0.6-3.1-0.7-3.9-6.2c-0.3-1.4,0.9-1.8,0.9-1.8l0,0.6
			c0,0,0.6,0.1,0.8-0.6C112,22.4,110.6,22.3,109.7,22.7z"/>
		<path class="st1" d="M107.3,21.8c-0.9,0.4-0.3,2.5-0.3,2.5s0.1,1,0.2,1.6c0.1,0.8,0.3,1.7,0.7,2.5c0.3,0.8,0.7,1.7,1.5,2.2
			c0.7,0.6,1.7,0.9,2.6,0.8c0,0,0,0,0,0c0,0,0.3,0,0.3,0l-0.3-0.1c-0.6-0.7-3.5-0.7-4.4-6.9c-0.3-1.6,1-2,1-2l0,0.7
			c0,0,0.7,0.1,0.9-0.7C109.8,21.5,108.3,21.4,107.3,21.8z"/>
		<path class="st1" d="M105.8,24.7c-0.6,0.9,1,2.3,1,2.3s0.6,0.8,0.9,1.3c0.5,0.7,1.1,1.3,1.8,1.8c0.7,0.5,1.5,1.1,2.4,1.2
			c0.9,0.1,1.9-0.1,2.6-0.6c0,0,0,0,0,0c0,0,0.2-0.2,0.2-0.2l-0.3,0.1c-0.9-0.3-3.4,1.1-7.3-3.8c-1.1-1.3-0.1-2.3-0.1-2.3l0.4,0.6
			c0,0,0.7-0.2,0.4-1.1C107.8,23.1,106.4,23.8,105.8,24.7z"/>
		<path class="st1" d="M104.4,26.5c-0.5,0.7,0.9,2,0.9,2s0.5,0.7,0.8,1.1c0.5,0.6,1,1.1,1.6,1.6c0.6,0.4,1.3,0.9,2.1,1
			c0.8,0.1,1.6-0.1,2.3-0.6c0,0,0,0,0,0c0,0,0.2-0.1,0.2-0.2l-0.2,0.1c-0.8-0.3-2.9,1-6.3-3.3c-0.9-1.1-0.1-2-0.1-2l0.3,0.5
			c0,0,0.6-0.2,0.4-0.9C106.1,25.1,104.9,25.7,104.4,26.5z"/>
		<path class="st1" d="M104.9,27.8c-0.5,0.5,0.3,1.7,0.3,1.7s1,2.3,3.1,3.4c0.6,0.3,1.3,0.2,1.8-0.1c0,0,0,0,0,0
			c0,0,0.2-0.1,0.2-0.1l-0.2,0c-0.5-0.3-2.4,0.3-4.4-3.4c-0.6-1,0.2-1.5,0.2-1.5l0.2,0.4c0,0,0.5-0.1,0.4-0.7
			C106.4,27,105.3,27.3,104.9,27.8z"/>
		<path class="st1" d="M115.2,22.3c-0.9,0.2-0.9,2.1-0.9,2.1s-0.2,0.9-0.2,1.4c-0.1,0.7-0.1,1.5,0,2.3c0.1,0.8,0.2,1.6,0.7,2.2
			c0.5,0.6,1.2,1.1,2,1.3c0,0,0,0,0,0c0,0,0.3,0.1,0.2,0l-0.2-0.1c-0.3-0.7-2.8-1.5-2-6.9c0.1-1.4,1.4-1.5,1.4-1.5l-0.1,0.6
			c0,0,0.6,0.3,0.9-0.4C117.4,22.6,116.1,22.1,115.2,22.3z"/>
		<path class="st1" d="M117.9,23.8c-0.8,0-1.1,1.5-1.1,1.5s-0.3,0.7-0.4,1.1c-0.2,0.6-0.4,1.2-0.4,1.9c-0.1,0.6-0.1,1.3,0.2,2
			c0.3,0.6,0.8,1.1,1.4,1.4c0,0,0,0,0,0c0,0,0.2,0.1,0.2,0.1l-0.1-0.1c-0.1-0.7-2-1.7-0.4-6c0.4-1.2,1.4-1,1.4-1l-0.2,0.5
			c0,0,0.4,0.3,0.8-0.1C119.7,24.5,118.7,23.9,117.9,23.8z"/>
		<path class="st1" d="M124.3,26.2c-0.8-0.2-1.5,1.4-1.5,1.4s-0.5,0.7-0.7,1c-0.4,0.6-0.6,1.2-0.8,1.9c-0.2,0.7-0.4,1.4-0.2,2.1
			c0.2,0.7,0.6,1.4,1.2,1.8c0,0,0,0,0,0c0,0,0.2,0.1,0.2,0.1l-0.1-0.2c0-0.7-1.7-2.2,0.8-6.4c0.6-1.1,1.7-0.7,1.7-0.7l-0.3,0.5
			c0,0,0.4,0.4,0.9,0C126,27.3,125.1,26.4,124.3,26.2z"/>
	</g>
</g>
</svg>
