<?xml version="1.0" encoding="utf-8"?>
<!-- Generator: Adobe Illustrator 18.1.0, SVG Export Plug-In . SVG Version: 6.00 Build 0)  -->
<svg version="1.1" baseProfile="tiny" id="Layer_1" xmlns="http://www.w3.org/2000/svg" xmlns:xlink="http://www.w3.org/1999/xlink"
	 x="0px" y="0px" viewBox="0 0 128 128" xml:space="preserve">
<g>
	<path fill="#2D2D2D" d="M127,116.3c-0.7-0.6-1.6-1-2.6-0.9L97,88.6L75.3,67.2l4.1-3.6l2.1,2.5c0.2,0.2,0.5,0.3,0.7,0.3
		c0.2,0,0.4-0.1,0.6-0.2c0.4-0.4,0.5-1,0.1-1.4l-2.1-2.5l6.7-5.9l2.1,2.5c0.2,0.2,0.5,0.3,0.7,0.3c0.2,0,0.4-0.1,0.6-0.2
		c0.4-0.4,0.5-1,0.1-1.4l-2.1-2.5l6.7-5.9l2.1,2.5c0.2,0.2,0.5,0.3,0.7,0.3c0.2,0,0.4-0.1,0.6-0.2c0.4-0.4,0.5-1,0.1-1.4L97.3,48
		l6.7-5.9l2.1,2.5c0.2,0.2,0.5,0.3,0.7,0.3c0.2,0,0.4-0.1,0.6-0.2c0.4-0.4,0.5-1,0.1-1.4l-2.1-2.5l6.7-5.9l2.1,2.5
		c0.2,0.2,0.5,0.3,0.7,0.3c0.2,0,0.4-0.1,0.6-0.2c0.4-0.4,0.5-1,0.1-1.4l-2.1-2.5l5.2-4.5c0.6-0.5,1.1-1.1,1.6-1.7l2.2,2.6
		c0.2,0.2,0.5,0.3,0.7,0.3c0.2,0,0.5-0.1,0.6-0.2c0.4-0.4,0.4-1,0.1-1.4l-2.5-3c1-1.7,1.7-3.7,1.9-5.8l3.1,0.2c0,0,0.1,0,0.1,0
		c0.5,0,0.9-0.4,1-0.9c0-0.5-0.4-1-0.9-1.1l-3.2-0.2c-0.1-2.7-1-5.3-2.6-7.4l2.6-2.3c0.4-0.4,0.5-1,0.1-1.4c-0.3-0.4-1-0.5-1.4-0.1
		l-2.6,2.3c-1.9-1.9-4.2-3.2-6.8-3.8l0.2-3.2c0-0.5-0.4-1-0.9-1.1c-0.6,0-1,0.4-1,0.9L111,5c-2.1-0.1-4.1,0.2-5.9,1l-2.7-3.2
		c-0.3-0.4-1-0.5-1.4-0.1c-0.4,0.4-0.5,1-0.1,1.4l2.4,2.8c-0.7,0.4-1.3,0.9-1.9,1.4l-5.2,4.5l-2.3-2.7c-0.3-0.4-1-0.5-1.4-0.1
		c-0.4,0.4-0.5,1-0.1,1.4l2.3,2.7L87.9,20l-2.3-2.7c-0.4-0.4-1-0.5-1.4-0.1c-0.4,0.4-0.5,1-0.1,1.4l2.3,2.7l-6.7,5.9l-2.3-2.7
		c-0.3-0.4-1-0.5-1.4-0.1c-0.4,0.4-0.5,1-0.1,1.4l2.3,2.7l-6.7,5.9l-2.3-2.7c-0.3-0.4-1-0.5-1.4-0.1c-0.4,0.4-0.5,1-0.1,1.4l2.3,2.7
		l-6.7,5.9l-2.3-2.7c-0.4-0.4-1-0.5-1.4-0.1c-0.4,0.4-0.5,1-0.1,1.4l2.3,2.7L55.8,48L7.1,0L6.5,0.7C2.2,5.2-0.1,11.1,0,17.3
		c0.1,6.2,2.6,12.1,7,16.4L33.3,58L10.4,77.8c-1.8,1.6-2.3,4.3-1,6.4l2.6,4.8L1.7,109.2c-2.3,4.5-1.7,9.9,1.5,13.8l2.3,2.8
		c0.8,1,2,1.6,3.2,1.7c0.1,0,0.2,0,0.4,0c1.1,0,2.2-0.4,3-1.2l13.7-12c0.8,1.2,1.9,1.9,3.3,2.2c0.3,0,0.5,0.1,0.8,0.1
		c1.2,0,2.3-0.4,3.2-1.2l31.9-27.8l17.3,16l0.7,0.6l5.8-6.1l26.7,26.3c0,1.1,0.3,2,1,2.6c0.6,0.6,1.5,0.9,2.5,0.9
		c1.8,0,4.1-1.1,6-3.1C128.1,121.9,128.9,118.1,127,116.3z M88.7,95.6L20.7,31.7c-6.6-6.5-8.7-14.1-5.9-21.4l80,78.8L88.7,95.6z
		 M104,20c0,1.1,0.4,2.2,1.2,3.1c0.7,0.9,1.7,1.4,2.8,1.7l-40,35.1l-4.5-4.5L104,20z M110.9,22.1C110.9,22.1,110.9,22.1,110.9,22.1
		L110.9,22.1c-1.2,1.1-3.2,0.9-4.3-0.3c-0.5-0.6-0.8-1.4-0.7-2.2c0.1-0.8,0.4-1.6,1-2.1c0.5-0.5,1.2-0.7,2-0.7
		c0.9,0,1.7,0.4,2.3,1.1c0.5,0.6,0.8,1.4,0.7,2.2C111.9,20.9,111.5,21.6,110.9,22.1z M102.6,9.8c2.3-2,5.3-3,8.4-2.8
		c3.1,0.2,5.9,1.7,7.9,4.1c2,2.4,3,5.4,2.7,8.6c-0.2,3.1-1.7,6-4,8L73.9,65.8l-4.7-4.6l42.9-37.6c0,0,0,0,0,0c1-0.9,1.6-2.1,1.7-3.4
		c0.1-1.3-0.3-2.7-1.2-3.7c-0.9-1.1-2.3-1.8-3.8-1.8c-1.2,0-2.3,0.4-3.2,1.2c-0.1,0.1-0.2,0.2-0.2,0.3c-0.1,0-0.2,0.1-0.3,0.1
		L61.9,54l-4.7-4.6L102.6,9.8z M11.7,79.3l23-20l6.7,6.2c-1.5,5.9-0.6,12.3,2.8,18l3.2,5.4L25,108.5L11.1,83.3
		C10.3,82,10.6,80.3,11.7,79.3z M22.3,107.6l-0.1-0.1l-11.3,10l-0.3-0.4c-1.4-1.7-1.6-4-0.7-6.2l6.7-13.7L22.3,107.6z M10.9,124.8
		c-1.2,1-2.9,0.9-3.9-0.3l-2.3-2.8c-2.7-3.2-3.2-7.8-1.3-11.6l9.7-19l2.2,4l-7.3,15c-1.3,2.9-0.9,6,1,8.3l0.3,0.4
		c0.4,0.4,0.9,0.7,1.4,0.7c0.4,0,0.9-0.2,1.2-0.5l11.1-9.7l1.8,3.3L10.9,124.8z M32,113.8c-0.7,0.6-1.6,0.8-2.5,0.7
		c-0.9-0.1-1.6-0.7-2.1-1.4l-1.5-2.8l23.4-20.4c0.4-0.3,0.4-0.8,0.2-1.2c0,0,0,0,0-0.1l-3.6-6.1C43,77.6,42,72.2,43.1,67.1
		l12.1,11.2c-1,0.6-1.7,1.7-1.8,3c-0.2,2.1,1.4,4,3.5,4.1c0.1,0,0.2,0,0.3,0c1.5,0,2.7-0.9,3.4-2.1l3.2,3L32,113.8z M56.7,79.7
		l2.2,2c-0.1,1-1,1.7-1.9,1.6c-1-0.1-1.8-1-1.7-2C55.4,80.5,55.9,79.8,56.7,79.7z M83.1,101.4L8.3,32.3c-4-4-6.3-9.3-6.4-15
		C1.9,11.9,3.7,6.8,7.2,2.8l6.1,6.1c-3.5,8.3-1.4,16.9,6,24.3L87.3,97L83.1,101.4z M123.8,123.5c-2.2,2.3-4.8,3-5.7,2.1
		c-0.4-0.4-0.4-1.1-0.4-1.5l0-0.5L90.3,96.7l5.9-6.2l27,26.4l0.5,0.5l0.5-0.1c0.5-0.1,1.1-0.1,1.5,0.3
		C126.6,118.6,126,121.2,123.8,123.5z"/>
	<path fill="#2D2D2D" d="M23.4,80.8c0.2,0,0.4-0.1,0.6-0.2l4.3-3.8c0.4-0.4,0.5-1,0.1-1.4c-0.3-0.4-1-0.5-1.4-0.1L22.7,79
		c-0.4,0.4-0.5,1-0.1,1.4C22.8,80.7,23.1,80.8,23.4,80.8z"/>
	<path fill="#2D2D2D" d="M32.5,81.7c0.4-0.4,0.5-1,0.1-1.4c-0.4-0.4-1-0.5-1.4-0.1l-8.6,7.5c-0.4,0.4-0.5,1-0.1,1.4
		c0.2,0.2,0.5,0.3,0.7,0.3c0.2,0,0.4-0.1,0.6-0.2L32.5,81.7z"/>
	<path fill="#2D2D2D" d="M25.6,95.8c-0.1,0.9,0.2,1.7,0.8,2.4l0.1,0.1c0.6,0.7,1.5,1.1,2.4,1.1c0.8,0,1.5-0.3,2.1-0.8l8.3-7.2
		c0.6-0.6,1-1.4,1.1-2.2c0.1-0.9-0.2-1.7-0.8-2.4l-0.1-0.2c-0.6-0.7-1.5-1.1-2.4-1.1c-0.8,0-1.5,0.3-2.1,0.8l-8.3,7.2
		C26,94.2,25.6,95,25.6,95.8z M27.9,95.1l8.3-7.2c0.2-0.2,0.5-0.3,0.8-0.3c0.4,0,0.7,0.2,1,0.4l0.1,0.2c0.2,0.3,0.3,0.6,0.3,0.9
		c0,0.3-0.2,0.7-0.4,0.9l-8.3,7.2c-0.5,0.4-1.3,0.4-1.8-0.1l-0.1-0.1c-0.2-0.3-0.3-0.6-0.3-0.9C27.5,95.6,27.7,95.3,27.9,95.1z"/>
</g>
</svg>
