<?xml version="1.0" encoding="utf-8"?>
<!-- Generator: Adobe Illustrator 24.1.2, SVG Export Plug-In . SVG Version: 6.00 Build 0)  -->
<svg version="1.1" id="Layer_1" xmlns="http://www.w3.org/2000/svg" xmlns:xlink="http://www.w3.org/1999/xlink" x="0px" y="0px"
	 viewBox="0 0 128 128" style="enable-background:new 0 0 128 128;" xml:space="preserve">
<style type="text/css">
	.st0{fill:#333333;}
	.st1{fill:#2D2D2D;}
</style>
<g>
	<path class="st0" d="M99.1,27.3c1.6,3,3.6,5.7,5.8,8.2c1.7,1.9,3.4,3.8,5.2,5.6l1.6,0c0.7,0,1.2,0.5,1.2,1.2c0,0.3-0.1,0.5-0.3,0.7
		l0.4-0.3c2.1-1.5,4.1-3.2,5.9-5c1.8-1.8,3.4-3.9,4.7-6.1c1.3-2.2,2.4-4.5,3.2-7c0.7-2.4,1.2-4.9,1.3-7.5c0-1.7-0.2-3.3-0.6-5
		c-0.4-1.6-1.1-3.2-2-4.7c-1.7-3-4.5-5.4-7.9-6.7c-3.4-1.2-7.2-1.3-10.6,0c-0.4,0.2-0.9,0.3-1.3,0.5L104.4,2c-0.8,0.5-1.5,1-2.2,1.5
		c-1.4,1.1-2.6,2.5-3.5,4c-0.9,1.5-1.7,3.1-2.1,4.8c-0.5,1.7-0.6,3.5-0.5,5.2C96.3,21.1,97.5,24.4,99.1,27.3z M98.6,13
		c0.5-1.5,1.2-2.9,2-4.2c1.8-2.5,4.3-4.5,7.2-5.5c1.4-0.5,2.9-0.8,4.5-0.9c1.5,0,3.1,0.2,4.6,0.6c1.5,0.4,2.9,1.1,4.2,2
		c1.3,0.9,2.5,1.9,3.5,3.2c1,1.3,1.8,2.7,2.4,4.2c0.5,1.5,0.8,3.2,0.8,4.8c-0.1,2.5-0.7,5-1.7,7.2c-1.1,2.3-2.5,4.3-4,6.3
		c-1.5,1.9-3.2,3.8-4.9,5.6c-1.6,1.6-3.2,3.2-4.9,4.7c-5.1-3.6-9.8-8.3-12.5-14.1c-1.4-3-2.1-6.2-2.1-9.3C97.9,16,98.1,14.5,98.6,13
		z"/>
	<path class="st0" d="M106.3,22.8c1.5,1.6,3.6,2.9,6.1,3.1c1.2,0.1,2.4-0.1,3.5-0.6c1.1-0.5,2.1-1.3,2.8-2.2c1.4-1.9,1.9-4.1,2-6.3
		c0-2.1-0.5-4.4-2-6.3c-0.7-0.9-1.7-1.7-2.8-2.3c-1.1-0.5-2.3-0.8-3.6-0.8c-2.5,0-4.9,1.1-6.6,2.8c-0.8,0.9-1.5,1.9-1.9,3.1
		c-0.4,1.1-0.5,2.3-0.4,3.5C103.8,19.1,104.8,21.2,106.3,22.8z M104.9,16.8c0.2-2,1.2-3.7,2.5-4.9c1.4-1.2,3.2-1.9,5-1.9
		c0.9,0,1.8,0.1,2.7,0.4c0.9,0.3,1.7,0.7,2.5,1.3c0.8,0.6,1.5,1.3,2,2.2c0.5,0.9,0.8,1.9,0.8,3c0,1-0.3,2.1-0.8,3
		c-0.5,0.9-1.2,1.6-2,2.2c-1.6,1.1-3.4,1.8-5.2,1.9c-0.9,0.1-1.9,0-2.9-0.2c-1-0.3-1.9-0.7-2.6-1.4
		C105.4,20.9,104.6,18.8,104.9,16.8z"/>
	<path class="st1" d="M48.8,92.6c-0.3,0.6-0.1,1.3,0.5,1.6c2.1,1.1,5,2.1,9.3,3.1c0.1,0,0.2,0,0.3,0c0.5,0,1-0.4,1.2-0.9
		c0.2-0.6-0.2-1.3-0.9-1.4c-4.1-1-6.8-1.9-8.7-2.9C49.8,91.8,49.1,92,48.8,92.6z"/>
	<path class="st1" d="M29.9,125.7c0,0.6,0.5,1.2,1.2,1.2c3.4,0,6.6,0,9.5-0.1c0.7,0,1.2-0.5,1.2-1.2c0-0.6-0.5-1.2-1.2-1.2
		c0,0,0,0,0,0c-2.9,0.1-6.1,0.1-9.5,0.1C30.4,124.5,29.9,125.1,29.9,125.7z"/>
	<path class="st1" d="M47.2,87.1c0.3,0,0.5-0.1,0.8-0.3c1.3-1.1,4.2-2,8.4-2.7c0.6-0.1,1.1-0.7,1-1.3c-0.1-0.6-0.7-1.1-1.4-1
		c-4.8,0.8-7.8,1.8-9.5,3.2c-0.5,0.4-0.6,1.2-0.2,1.7C46.6,87,46.9,87.1,47.2,87.1z"/>
	<path class="st1" d="M50,124.1c-0.7,0-1.2,0.6-1.1,1.2c0,0.6,0.6,1.1,1.2,1.1c0,0,0,0,0.1,0c3.5-0.2,6.7-0.4,9.5-0.7
		c0.7-0.1,1.1-0.6,1.1-1.3c-0.1-0.6-0.6-1.1-1.3-1.1C56.6,123.7,53.4,124,50,124.1z"/>
	<path class="st1" d="M82.6,104.6c-0.5,0.4-0.5,1.2-0.1,1.7c1.1,1.3,1.6,2.7,1.6,4.3c0,1.2-0.2,2.3-0.6,3.3
		c-0.2,0.6,0.1,1.3,0.7,1.5c0.1,0.1,0.3,0.1,0.4,0.1c0.5,0,0.9-0.3,1.1-0.7c0.5-1.3,0.8-2.7,0.8-4.2c0-2.2-0.7-4.1-2.2-5.8
		C83.8,104.2,83.1,104.1,82.6,104.6z"/>
	<path class="st1" d="M77.4,119.5c-2.3,1.1-5.2,2-8.8,2.7c-0.6,0.1-1.1,0.7-0.9,1.4c0.1,0.6,0.6,0.9,1.2,0.9c0.1,0,0.2,0,0.2,0
		c3.8-0.8,6.8-1.7,9.3-2.8c0.6-0.3,0.8-1,0.6-1.6C78.7,119.5,78,119.2,77.4,119.5z"/>
	<path class="st1" d="M92.1,79.5c-3.2,0.2-6.6,0.3-9.5,0.4c-0.7,0-1.2,0.6-1.1,1.2c0,0.6,0.6,1.1,1.2,1.1c0,0,0,0,0,0
		c2.9-0.1,6.3-0.3,9.5-0.5c0.7,0,1.2-0.6,1.1-1.2S92.8,79.4,92.1,79.5z"/>
	<path class="st1" d="M101,65c0.1,0,0.2,0,0.3,0c0.5,0,1-0.3,1.1-0.8c0.2-0.6-0.2-1.3-0.8-1.5c-3.1-0.9-6.4-1.8-9.2-2.5
		c-0.6-0.2-1.3,0.2-1.4,0.8c-0.2,0.6,0.2,1.3,0.9,1.4C94.6,63.2,97.9,64.1,101,65z"/>
	<path class="st1" d="M82.9,60.2c0.5,0,1-0.3,1.1-0.9c0.2-0.6-0.2-1.3-0.8-1.4c-4-1.1-6.8-1.9-9-2.7c-0.6-0.2-1.3,0.1-1.5,0.7
		c-0.2,0.6,0.1,1.3,0.7,1.5c2.3,0.8,5.1,1.6,9.2,2.7C82.7,60.2,82.8,60.2,82.9,60.2z"/>
	<path class="st1" d="M76.3,101.9c0.5,0,0.9-0.3,1.1-0.8c0.2-0.6-0.1-1.3-0.7-1.5c-3.1-1.1-6.6-1.9-9.3-2.5
		c-0.6-0.1-1.3,0.3-1.4,0.9c-0.1,0.6,0.3,1.3,0.9,1.4c2.6,0.6,6.1,1.4,9,2.5C76,101.9,76.2,101.9,76.3,101.9z"/>
	<path class="st1" d="M110.8,65.9c-0.6-0.3-1.3,0-1.6,0.6c-0.3,0.6,0,1.3,0.6,1.6c4.8,2.1,6.2,3.9,6.4,5c0.1,0.5,0.6,0.9,1.2,0.9
		c0.1,0,0.2,0,0.3,0c0.6-0.1,1-0.8,0.9-1.4C118,70.1,115.5,68,110.8,65.9z"/>
	<path class="st1" d="M67.2,51.8c0.1,0,0.2,0,0.3,0c0.5,0,1-0.4,1.2-0.9c0.5-2,2.6-3.6,6.3-4.8c0.6-0.2,1-0.9,0.8-1.5
		c-0.2-0.6-0.9-1-1.5-0.8c-4.6,1.5-7.2,3.6-7.9,6.5C66.2,51,66.6,51.6,67.2,51.8z"/>
	<path class="st1" d="M83.9,44.4c0,0,0.1,0,0.1,0c2.7-0.3,5.8-0.5,9.4-0.6c0.7,0,1.2-0.6,1.1-1.2c0-0.6-0.6-1.2-1.2-1.1
		c-3.7,0.1-6.8,0.4-9.6,0.7c-0.7,0.1-1.1,0.7-1,1.3C82.8,44,83.3,44.4,83.9,44.4z"/>
	<path class="st1" d="M110.7,77.2c-2.3,0.6-5.3,1.1-9.2,1.6c-0.7,0.1-1.1,0.7-1.1,1.3c0.1,0.6,0.6,1.1,1.2,1.1c0,0,0.1,0,0.1,0
		c4-0.4,7.1-1,9.6-1.6c0.6-0.2,1-0.8,0.8-1.4C112,77.4,111.3,77,110.7,77.2z"/>
	<path class="st1" d="M64.6,83.2C64.7,83.2,64.7,83.2,64.6,83.2c2.7-0.2,5.7-0.4,9.6-0.5c0.7,0,1.2-0.6,1.1-1.2
		c0-0.6-0.6-1.2-1.2-1.1c-3.9,0.2-6.9,0.3-9.5,0.5c-0.7,0-1.1,0.6-1.1,1.3C63.5,82.7,64,83.2,64.6,83.2z"/>
	<path class="st1" d="M111.6,41.2l-1.6,0l-0.8,0c-2.1,0-4.3,0-6.4,0c-0.7,0-1.2,0.5-1.2,1.2c0,0.6,0.5,1.2,1.2,1.2c0,0,0,0,0,0
		c2.1,0,4.3,0,6.4,0l2.3,0c0.4,0,0.7-0.2,0.9-0.4c0.2-0.2,0.3-0.5,0.3-0.7C112.8,41.7,112.3,41.2,111.6,41.2z"/>
	<g>
		<path class="st1" d="M26.1,125.7c0.1,0,0.3-0.2,0.8-0.5c0.2-0.3,0.3-0.7,0.4-1c0.1-0.3,0.1-0.5,0.1-0.8l0-0.4l0-0.3l0-1.2
			l-0.1-2.5l-0.1-5c-0.1-3.3-0.2-6.6-0.3-10c-0.2-4.3-0.4-8.6-0.6-13c-0.4-0.3-0.7-0.6-0.9-1c-0.2,4.7-0.2,9.3-0.3,14
			c-0.1,3.3-0.1,6.6-0.1,10l0,5l0,2.5l0,1.2c0,0.1,0,0.2,0,0.3l0,0.2c0,0.1,0,0.3-0.1,0.4c-0.3,1.1-1.4,1.9-2.5,1.9
			c-1.2,0-2.3-0.7-2.6-1.8c0-0.1-0.1-0.3-0.1-0.4c0-0.1,0-0.3,0-0.5l0-1.2l-0.1-2.5l-0.2-5c-0.3-6.6-0.6-13.3-1-19.9l0-0.6l0-0.3
			c0-0.1,0-0.3-0.1-0.4c-0.1-0.6-0.6-1.1-1.1-1.3c-0.5-0.2-1.2-0.2-1.7,0.1c-0.5,0.3-0.9,0.8-1,1.4c0,0.3,0,0.5,0,0.7l0,0.6l0,1.2
			l0,2.5c0,3.3-0.1,6.6-0.3,10c-0.1,3.3-0.3,6.6-0.5,10l-0.3,5c0,1.4-1,2.5-2.2,2.9c-1.2,0.3-2.6-0.2-3.3-1.2
			c-0.2-0.3-0.3-0.5-0.4-0.8c0-0.1-0.1-0.3-0.1-0.4l0-0.2l0-0.3l0-2.5c0-3.3-0.1-6.7-0.1-10c-0.1-6.4-0.4-12.9-0.8-19.3
			C6.2,90.9,6.1,91,6,91.1c-0.4,6.3-0.6,12.7-0.7,19c-0.1,3.3-0.1,6.7-0.1,10l0,2.5l0,0.3l0,0.4c0,0.3,0.1,0.5,0.1,0.8
			c0.1,0.5,0.3,1,0.6,1.4c0.6,0.9,1.5,1.6,2.5,1.9c1,0.4,2.1,0.4,3.1,0.1c1-0.3,1.9-1,2.5-1.8c0.6-0.8,0.9-1.9,0.8-2.8l0-5
			c0-3.3-0.1-6.7,0-10c0.1-3.3,0.1-6.6,0.3-10l0.1-2.5l0.1-1.2l0-0.6c0-0.2,0-0.5,0-0.5c0.1-0.5,0.8-0.8,1.2-0.6
			c0.2,0.1,0.4,0.3,0.4,0.6c0,0.1,0,0.1,0,0.2v0.3l0,0.6c0,6.7,0,13.3,0.1,20l0.1,5l0,2.5l0,1.2c0,0.2,0,0.5,0,0.7
			c0,0.3,0.1,0.5,0.2,0.8c0.6,2.1,2.8,3.7,5,3.6c1.1,0,2.2-0.4,3.1-1.1C25.4,126.4,25.7,125.9,26.1,125.7z"/>
		<path class="st1" d="M7.3,89.6c0.1-0.2,0.2-0.4,0.2-0.7c0-0.2,0.1-0.5,0.1-0.7l0.1-1.1c0.1-0.8,0.1-1.5,0.1-2.3c0-0.2,0-0.4,0-0.7
			C7.7,84.1,7.5,84,7.3,84c-0.1,0-0.1-0.1-0.1-0.2c0,0,0-0.1,0.1-0.1c0.2-0.1,0.3-0.1,0.5-0.2c0.1-2.6,0-5.3-0.1-7.9
			c-0.1-3.1-0.3-6.1-0.8-9.2c0-0.1,0-0.1-0.1-0.1c-0.1,0-0.1,0-0.1,0.1c-0.5,3.1-0.7,6.1-0.8,9.2c-0.1,3.1-0.2,6.1-0.1,9.2
			c0,0.8,0.1,1.5,0.1,2.3l0.1,1.1c0,0.2,0,0.4,0,0.5c0,0.1,0,0.3-0.1,0.4c-0.1,0.6-0.5,1.1-1.1,1.4c-0.6,0.3-1.3,0.3-1.9,0
			c-0.6-0.3-1.1-0.8-1.3-1.5c-0.1-0.3-0.1-0.6-0.1-1c0-0.4,0-0.8,0-1.1c0-1.5,0.1-3.1,0.2-4.6c0.2-3.1,0.4-6.1,0.5-9.2l0.1-4.6
			c0-0.8,0-1.5,0-2.3l0-2.2c0-1.2,0.6-2.3,1.5-3.2c0.5-0.4,1-0.8,1.6-1c0.6-0.2,1.2-0.4,2-0.4c3.1-0.2,6.2-0.4,9.3-0.8
			c-0.1,0-0.1-0.1-0.1-0.1c0-0.1,0.1-0.1,0.1-0.1c-3.1-0.4-6.2-0.6-9.3-0.8c-0.8,0-1.8,0-2.6,0.3c-0.9,0.3-1.7,0.7-2.4,1.2
			C1.1,60.3,0.1,62.1,0,64l0,0.4l0,0.3l0,0.6l0,1.1c0,0.8,0,1.5,0,2.3l0.1,4.6c0.1,3.1,0.2,6.1,0.5,9.2c0.1,1.5,0.2,3.1,0.2,4.6
			c0,0.4,0,0.8,0,1.1c0,0.4,0,0.8,0.1,1.2c0.2,0.8,0.8,1.6,1.6,1.9c0.8,0.4,1.8,0.5,2.6,0.2c0.2-0.1,0.5-0.2,0.7-0.3
			c0.1-0.1,0.2-0.2,0.3-0.3C6.7,90.5,7.1,90.1,7.3,89.6z"/>
		<path class="st1" d="M16.9,58.7c1.5,0.2,3,0.3,4.6,0.5c0.8,0.1,1.5,0.1,2.3,0.2l1.1,0.1c0.4,0,0.7,0.1,1,0.1c1.3,0.3,2.4,1,3.1,2
			c0.3,0.5,0.6,1,0.7,1.6c0,0.1,0.1,0.3,0.1,0.4c0,0.1,0,0.3,0,0.4l0,0.2l0,0.3l0,0.6c0,3,0,6,0.1,9c0.1,3,0.2,6,0.5,9
			c0.1,1.5,0.2,3,0.2,4.5c0,0.4,0,0.8,0,1.1c0,0.3-0.1,0.6-0.3,0.9c-0.3,0.6-0.9,1-1.5,1.1c-0.6,0.1-1.3,0-1.8-0.4
			c-0.5-0.4-0.8-1-0.8-1.5c0-0.2,0-0.6,0.1-1l0.1-1.1c0.1-0.7,0.1-1.5,0.1-2.2c0.1-3,0.1-6-0.1-9c-0.1-3-0.3-6-0.8-9
			c0,0,0-0.1-0.1-0.1c-0.1,0-0.1,0-0.1,0.1c-0.5,3-0.7,6-0.8,9c-0.1,2.7-0.2,5.4-0.1,8.2c0.4,0,0.7,0.1,1.1,0.1
			c0.1,0,0.1,0.1,0.1,0.1c0,0.1-0.1,0.1-0.1,0.1c-0.4,0-0.7,0.1-1.1,0.1c0,0.1,0,0.2,0,0.3c0,0.7,0.1,1.5,0.1,2.2l0.1,1.1l0,0.6
			c0,0.2,0,0.4,0.1,0.7c0.1,0.3,0.2,0.6,0.4,0.9c0.2,0.4,0.5,0.7,0.9,1c0.1,0.1,0.2,0.1,0.3,0.2c0.8,0.5,1.7,0.6,2.5,0.3
			c0.8-0.2,1.6-0.8,2-1.5c0.2-0.4,0.3-0.8,0.4-1.2c0-0.4,0-0.8,0-1.2c0-1.5,0.1-3,0.2-4.5c0.2-3,0.4-6,0.5-9c0.1-3,0.2-6,0.1-9
			l0-0.6l0-0.3l0-0.3c0-0.2,0-0.5-0.1-0.7c0-0.2-0.1-0.4-0.2-0.7c-0.2-0.9-0.7-1.7-1.3-2.4c-1.2-1.4-2.8-2.3-4.6-2.5
			c-0.4-0.1-0.9-0.1-1.3,0l-1.1,0.1c-0.8,0-1.5,0.1-2.3,0.2c-1.5,0.1-3,0.3-4.6,0.5c-0.1,0-0.1,0-0.1,0.1
			C16.8,58.7,16.9,58.7,16.9,58.7z"/>
		<path class="st1" d="M11.9,85c1.5,0.2,3.1-0.1,4.6-0.2c1.5-0.1,3.1-0.2,4.6-0.4c1.2-0.1,2.3-0.2,3.5-0.3c0.4,0,0.7-0.1,1.1-0.1
			c0.1,0,0.1,0,0.1-0.1c0-0.1,0-0.1-0.1-0.1c-0.4,0-0.7-0.1-1.1-0.1c-1.2-0.1-2.3-0.2-3.5-0.3c-1.5-0.1-3.1-0.3-4.6-0.4
			c-1.5-0.1-3.1-0.4-4.6-0.2c-0.8,0.1-1.5,0.2-2.3,0.3c-0.6,0.1-1.2,0.3-1.8,0.5c-0.2,0.1-0.3,0.1-0.5,0.2c0,0-0.1,0-0.1,0.1
			c0,0.1,0,0.1,0.1,0.2c0.2,0.1,0.3,0.1,0.5,0.2c0.6,0.2,1.2,0.4,1.8,0.5C10.4,84.9,11.2,85,11.9,85z"/>
		<g>
			<path class="st0" d="M15.3,54.3c1,0.2,2.1,0.2,3.1,0c1-0.2,2-0.8,2.7-1.4c1.5-1.4,2.3-3.2,2.7-5c0.3-1.8,0.2-3.8-0.7-5.6
				c-0.5-0.9-1.2-1.7-2-2.3c-0.9-0.6-1.9-1-2.9-1.2c-2.1-0.4-4.4,0.2-6.1,1.4c-0.8,0.6-1.6,1.4-2.1,2.3c-0.5,0.9-0.8,1.9-0.9,2.8
				c-0.2,2,0.4,3.9,1.5,5.4C11.6,52.5,13.2,53.9,15.3,54.3z M10.2,45.6c0.5-1.6,1.6-3,2.9-3.8c1.4-0.9,3-1.1,4.6-0.9
				c0.8,0.1,1.6,0.4,2.3,0.7c0.7,0.4,1.4,0.8,2,1.4c0.6,0.6,1.1,1.3,1.4,2.2c0.3,0.8,0.4,1.7,0.2,2.6c-0.2,0.9-0.5,1.7-1.1,2.4
				c-0.6,0.7-1.3,1.2-2.1,1.6c-1.6,0.7-3.2,1-4.8,0.9c-0.8-0.1-1.7-0.3-2.5-0.6c-0.8-0.4-1.5-0.9-2.1-1.6
				C10,49.1,9.7,47.2,10.2,45.6z"/>
		</g>
	</g>
</g>
</svg>
