<?xml version="1.0" encoding="utf-8"?>
<!-- Generator: Adobe Illustrator 24.1.2, SVG Export Plug-In . SVG Version: 6.00 Build 0)  -->
<svg version="1.1" id="Layer_1" xmlns="http://www.w3.org/2000/svg" xmlns:xlink="http://www.w3.org/1999/xlink" x="0px" y="0px"
	 viewBox="0 0 128 128" style="enable-background:new 0 0 128 128;" xml:space="preserve">
<style type="text/css">
	.st0{fill:#BC8057;}
	.st1{fill:#2D2D2D;}
</style>
<g>
	<path class="st0" d="M27.86,118.26C27.87,118.26,27.86,118.26,27.86,118.26L27.86,118.26L27.86,118.26z"/>
	<path class="st1" d="M30.96,126.38l0.63-1.68l0.59,0.06c0.01,0.04,0.02,0.07,0.02,0.11c0.03,0.17,0.05,0.35,0.06,0.52
		c0.02,0.24,0,0.47-0.04,0.69L30.96,126.38z"/>
	<path class="st1" d="M25.74,119.94c-0.03,0.11-0.05,0.19-0.08,0.3l-1.44,0.38l0.62-1.65l1.15,0.11l-0.1,0.35L25.74,119.94z"/>
	<path class="st1" d="M11.98,121.34l0.22-1.52l1.05-0.06c0.38,0.24,0.76,0.49,1.13,0.73L11.98,121.34z"/>
	<path class="st1" d="M2.38,117.09c0.1,0.1,0.2,0.19,0.3,0.27c0.2,0.17,0.41,0.33,0.62,0.47c0.16,0.11,0.33,0.21,0.5,0.31l-1.74,1.3
		l-0.65-2.27l0.78-0.29C2.25,116.96,2.31,117.02,2.38,117.09z"/>
	<g>
		<path class="st1" d="M0.11,36.37C10.79,34.93,21.44,32.66,32,34.2c2.64,0.29,5.25,0.85,7.92,1.34c2.67,0.49,5.38,0.8,8.09,0.92
			c2.7,0.13,5.41,0.16,8.12-0.03c0.68-0.05,1.36-0.1,2.03-0.2c0.68-0.07,1.35-0.17,2.02-0.28c1.34-0.23,2.67-0.53,3.98-0.85
			c1.31-0.31,2.61-0.62,3.91-0.85c1.31-0.21,2.61-0.39,3.93-0.47c2.63-0.18,5.3-0.08,7.95,0.1c2.65,0.2,5.26,0.58,7.85,1.18
			c2.59,0.58,5.23,1.27,7.96,1.68c2.73,0.38,5.49,0.52,8.21,0.47c2.73-0.04,5.45-0.24,8.15-0.58c5.39-0.7,10.7-1.92,15.81-3.69
			c0.05-0.02,0.07-0.06,0.06-0.11c-0.01-0.05-0.06-0.08-0.11-0.07c-5.26,1.16-10.57,2.01-15.9,2.38c-2.67,0.18-5.33,0.27-8,0.22
			c-2.67-0.06-5.3-0.2-7.9-0.63c-2.61-0.38-5.17-1.08-7.86-1.61c-2.67-0.55-5.42-0.89-8.15-1.03c-2.73-0.14-5.47-0.12-8.2,0.18
			c-2.74,0.26-5.42,1.02-7.98,1.82c-2.57,0.79-5.15,1.45-7.82,1.69c-2.66,0.26-5.36,0.24-8.03,0.06c-1.34-0.09-2.66-0.27-3.98-0.48
			c-1.31-0.25-2.62-0.52-3.92-0.86c-2.59-0.65-5.21-1.41-7.91-1.87c-2.71-0.45-5.43-0.66-8.18-0.63c-1.37,0.01-2.74,0.1-4.1,0.21
			c-1.36,0.13-2.71,0.3-4.05,0.49c-5.37,0.8-10.63,2.06-15.83,3.48C0.03,36.2,0,36.25,0,36.29C0.01,36.35,0.06,36.38,0.11,36.37z"/>
		<path class="st1" d="M108.44,82.37c0.57,0.65,1.38,1.36,2.44,1.49c1.04,0.14,2.16-0.4,2.66-1.28c0.26-0.44,0.4-0.91,0.47-1.35
			c0.08-0.45,0.11-0.87,0.12-1.29c-0.01-0.82-0.06-1.76-0.57-2.66c-0.26-0.44-0.64-0.82-1.12-1.08c-0.47-0.25-1.02-0.38-1.56-0.4
			c-1.1-0.04-2.18,0.5-2.87,1.29c-0.34,0.4-0.61,0.86-0.75,1.36c-0.14,0.5-0.13,1.01-0.05,1.49
			C107.39,80.9,107.85,81.68,108.44,82.37z M108.26,79.94c0.19-0.68,0.59-1.2,1.04-1.58c0.47-0.37,1.03-0.5,1.58-0.53
			c0.28-0.02,0.56,0.01,0.85,0.07s0.6,0.13,0.93,0.27c0.32,0.15,0.66,0.36,0.89,0.67c0.24,0.3,0.38,0.69,0.38,1.09
			c0.01,0.4-0.13,0.79-0.36,1.1c-0.24,0.32-0.58,0.54-0.89,0.67c-0.66,0.28-1.18,0.42-1.8,0.56c-0.31,0.06-0.64,0.11-1,0.07
			c-0.35-0.04-0.72-0.17-1.01-0.41C108.29,81.45,108.07,80.62,108.26,79.94z"/>
		<path class="st1" d="M109.73,67.89c0.84-0.37,1.56-0.97,2.11-1.68c1.08-1.44,1.44-3.14,1.46-4.75c0-1.6-0.37-3.31-1.45-4.76
			c-0.53-0.71-1.25-1.33-2.09-1.74c-0.84-0.4-1.77-0.6-2.71-0.62c-1.89-0.04-3.75,0.81-5,2.17c-0.63,0.67-1.12,1.47-1.4,2.32
			c-0.3,0.85-0.37,1.77-0.29,2.63c0.19,1.75,0.96,3.31,2.11,4.54c1.13,1.22,2.73,2.24,4.58,2.36
			C107.96,68.43,108.89,68.27,109.73,67.89z M104.89,66.63c-0.72-0.19-1.41-0.56-1.98-1.06c-1.14-1.03-1.69-2.64-1.5-4.11
			c0.19-1.47,0.91-2.76,1.92-3.68c1.04-0.92,2.38-1.38,3.72-1.41c0.67-0.02,1.35,0.09,2,0.3c0.65,0.21,1.3,0.5,1.9,0.92
			c0.6,0.42,1.16,0.96,1.55,1.64c0.39,0.66,0.61,1.45,0.61,2.23c0.01,0.79-0.2,1.58-0.6,2.25c-0.38,0.67-0.94,1.22-1.54,1.65
			c-1.21,0.83-2.52,1.29-3.92,1.42C106.35,66.85,105.61,66.81,104.89,66.63z"/>
		<path class="st1" d="M127.82,108.69l-0.02,0.01c-1.26,0.28-2.6,0.21-3.85-0.04c-1.21-0.28-2.56-0.78-3.89-1.02
			c-1.67-0.35-3.34-0.58-5.02-0.78c-0.34-0.24-0.7-0.46-1.07-0.64c-0.61-0.28-1.01-0.43-1.41-0.7c-0.4-0.25-0.76-0.56-1.09-0.93
			c-0.69-0.71-1.3-1.68-2.24-2.51c-0.23-0.21-0.48-0.41-0.74-0.58c-0.28-0.19-0.47-0.31-0.72-0.47c-0.48-0.29-0.97-0.59-1.48-0.87
			c-0.51-0.28-1.06-0.52-1.63-0.72c-0.28-0.1-0.58-0.18-0.87-0.24c-0.27-0.05-0.52-0.1-0.77-0.18c-0.51-0.13-1.02-0.32-1.55-0.51
			c-0.51-0.17-1.05-0.41-1.63-0.42c0.03-0.22,0.04-0.45,0.04-0.67l0,0.01c0.05-1.6,0.05-3.2-0.04-4.82
			c-0.05-0.81-0.14-1.62-0.34-2.45c-0.1-0.4-0.25-0.87-0.49-1.26c-0.23-0.4-0.52-0.76-0.85-1.08c-0.65-0.62-1.4-1.1-2.17-1.48
			c-0.77-0.38-1.57-0.67-2.37-0.89c-0.8-0.23-1.62-0.41-2.42-0.56c-0.8-0.16-1.55-0.27-2.25-0.48c-1.38-0.4-2.64-1.18-3.82-2.16
			c-0.33-0.26-0.51-0.43-0.72-0.7c-0.2-0.26-0.38-0.55-0.54-0.87c-0.32-0.63-0.55-1.35-0.73-2.09c-0.37-1.48-0.56-3.03-0.72-4.6
			l-0.25-2.38c-0.02-0.2-0.05-0.41-0.08-0.62c-0.04-0.22-0.05-0.4-0.19-0.72c-0.02-0.04-0.05-0.1-0.1-0.16
			c-0.04-0.04-0.06-0.07-0.11-0.11c-0.06-0.04-0.13-0.08-0.21-0.09c-0.19-0.03-0.3,0.01-0.38,0.05c-0.09,0.05-0.14,0.1-0.19,0.15
			c-0.15,0.19-0.18,0.31-0.22,0.43c-0.07,0.24-0.1,0.45-0.12,0.66c-0.08,0.84-0.09,1.63-0.07,2.44c0,0.8,0.03,1.6,0.06,2.4
			c0.02,0.8,0.07,1.6,0.11,2.4c0.04,0.8,0.1,1.6,0.21,2.41c0.23,1.6,0.78,3.26,1.94,4.56c0.58,0.64,1.28,1.18,2.05,1.59
			c0.13,0.06,0.25,0.11,0.37,0.16c-2.16-0.6-4.09-1.65-5.46-3.2c-0.21-0.22-0.35-0.7-0.46-1.19c-0.11-0.49-0.17-1.02-0.21-1.56
			c-0.1-1.07-0.13-2.18-0.16-3.29c-0.06-1.12-0.05-2.22-0.17-3.4c-0.04-0.31-0.05-0.58-0.19-1.02c-0.02-0.06-0.04-0.12-0.09-0.21
			c-0.02-0.04-0.04-0.08-0.09-0.15l-0.06-0.09c-0.03-0.04-0.08-0.09-0.13-0.13l-0.08-0.06c-0.04-0.03-0.09-0.05-0.13-0.07
			c-0.1-0.05-0.18-0.08-0.31-0.09c-0.11-0.01-0.25,0-0.34,0.02c-0.08,0.02-0.17,0.05-0.24,0.09c-0.22,0.13-0.3,0.25-0.35,0.32
			c-0.2,0.29-0.22,0.43-0.29,0.61c-0.2,0.64-0.29,1.2-0.38,1.78c-0.33,2.29-0.38,4.59,0.01,6.89c0.1,0.57,0.24,1.15,0.46,1.71
			c0.24,0.58,0.56,1.06,0.9,1.53c0.7,0.93,1.52,1.75,2.46,2.43c0.93,0.68,1.98,1.25,3.12,1.59c0.57,0.19,1.16,0.29,1.76,0.35
			c0.56,0.07,1.08,0.13,1.62,0.24c0.53,0.11,1.06,0.21,1.58,0.36c0.52,0.12,1.04,0.28,1.54,0.45c1,0.34,2.01,0.78,2.69,1.39
			c0.73,0.7,1.36,1.6,1.93,2.53c0.28,0.47,0.56,0.95,0.82,1.44l0.38,0.74l0.12,0.25c-0.61-0.3-1.23-0.56-1.86-0.8l-1.08-0.39
			c-0.36-0.13-0.72-0.27-1.1-0.33c-0.75-0.12-1.52-0.08-2.31,0.11l-0.54,0.13l0.04,0.36c0.09,0.83,0.46,1.61,0.98,2.22
			c0.52,0.62,1.16,1.1,1.83,1.48c0.67,0.39,1.38,0.68,2.11,0.92c0.49,0.16,0.99,0.28,1.49,0.39c-0.37,0.23-0.77,0.4-1.2,0.5
			c-0.66,0.17-1.37,0.19-2.08,0.15c-0.92-0.07-1.84-0.25-2.75-0.47c-1.14-0.33-2.29-0.58-3.44-0.81l-5.11-1
			c-1.69-0.35-3.39-0.69-4.99-1.22c-0.81-0.27-1.55-0.57-2.18-1.05c-0.66-0.49-1.3-1.07-1.94-1.64c-1.3-1.14-2.64-2.31-4.21-3.22
			c-0.78-0.46-1.61-0.85-2.5-1.13c-0.45-0.13-0.9-0.25-1.37-0.32l-1.3-0.19c-3.45-0.47-6.89-0.85-10.29-1.34
			c-1.7-0.25-3.39-0.53-5.08-0.86c-1.68-0.34-3.35-0.76-5.01-1.22c-0.82-0.23-1.68-0.48-2.54-0.68c-0.86-0.19-1.74-0.33-2.61-0.42
			c-1.75-0.18-3.52-0.14-5.26,0.08c-3.49,0.45-6.82,1.61-10.03,2.94c-1.61,0.64-3.24,1.47-4.54,2.74c-1.28,1.25-2.28,3.1-1.78,5.12
			l0.18,0.74l0.61-0.53l2.01-1.73c0.04,0.21,0.07,0.43,0.08,0.63c0.01,0.23-0.01,0.4-0.06,0.66c-0.03,0.25-0.08,0.49-0.13,0.74
			c-0.2,0.97-0.5,1.91-0.97,2.75c-0.17,0.31-0.37,0.6-0.59,0.88c-2.64,0.17-5.28,0.37-7.91,0.67c-1.34,0.15-2.67,0.32-4,0.54
			c-1.32,0.23-2.65,0.48-3.93,0.94c-0.06,0.02-0.1,0.08-0.1,0.15c0,0.01,0.01,0.03,0.01,0.04c0.03,0.08,0.11,0.12,0.19,0.09h0.01
			c1.24-0.41,2.57-0.6,3.89-0.79c1.32-0.17,2.65-0.3,3.98-0.4c2.34-0.17,4.69-0.28,7.04-0.36c-0.15,0.13-0.29,0.26-0.45,0.38
			c-0.38,0.28-0.79,0.53-1.22,0.75c-0.22,0.1-0.43,0.22-0.66,0.3l-0.34,0.14c-0.06,0.02-0.36,0.14-0.53,0.27
			c-0.36,0.26-0.55,0.55-0.72,0.79c-0.16,0.25-0.29,0.46-0.42,0.64c-0.18,0.27-0.65,0.67-0.99,1.03l-2.23,2.21l-4.46,4.42
			l-0.59,0.58l0.5,0.59l-0.89,0.94l-0.18,0.19c0,0-0.01,0-0.01,0L0,116.47l1.41,4.9l3.9-2.47l0.45-0.64
			c1.31-1.88,2.94-3.57,4.75-5.06c1.82-1.48,3.79-2.8,5.86-3.93c2.08-1.13,4.27-2.08,6.52-2.82c0.38-0.13,0.77-0.24,1.15-0.36
			c-0.58,0.5-1.15,1.02-1.72,1.53c-1.08,0.99-2.14,1.98-3.18,3.01c-1.04,1.02-2.07,2.06-3.02,3.17c-0.95,1.11-1.84,2.29-2.76,3.43
			l-0.28,0.35l0.33,0.2l0.17,0.1l0.12,0.08c0.07,0.05,0.13,0.1,0.17,0.14c-0.02,0.03-0.04,0.05-0.05,0.06
			c-0.12,0.16-0.23,0.31-0.34,0.47c-0.05-0.01-2.31,0.1-2.31,0.1l-0.61,4.32l4.93-1.74c0.29-0.1,1.98-2.82,2.9-3.79
			c1.03-1.06,2.14-2.05,3.3-2.95c2.31-1.79,4.76-3.45,7.45-4.26c1.35-0.41,2.79-0.68,4.19-0.84c0.7-0.08,1.4-0.09,2.1-0.06
			c0.71,0.03,1.43,0.11,2.15,0.22c1.44,0.21,2.9,0.52,4.37,0.8c0.76,0.13,1.43,0.26,2.14,0.48c0.55,0.16,1.11,0.36,1.68,0.53
			c-0.15,0.37-0.3,0.75-0.45,1.15c-0.92,0.98-1.89,1.87-2.98,2.55c-1.32,0.83-2.77,1.38-4.3,1.72c-0.76,0.19-1.55,0.31-2.34,0.46
			l-1.2,0.2l-0.57,0.1c-0.19,0.02-0.38,0.05-0.58,0.06c-1.61,0.12-3.28-0.03-4.87-0.39l-0.21-0.05l-0.11,0.2
			c-0.09,0.18-0.19,0.36-0.29,0.53c-0.05,0.08-0.1,0.17-0.15,0.24c-0.01,0.01-0.01,0.01-0.02,0.02c-0.32-0.05-1.16-0.27-1.3-0.28
			l-2.35-0.22l-1.71,4.55l4.41-1.15c0,0,0,0,0,0c2.45,0.33,4.86,0.24,7.25,0.29c1.31,0.02,2.61,0.04,3.9,0.11l0.96,0.06l1.01,0.07
			c0.38,0.01,0.79,0.02,1.27-0.11c0.24-0.07,0.51-0.19,0.76-0.38c0.16-0.12,0.28-0.28,0.38-0.45c0.9-0.51,1.69-1.09,2.47-1.67
			c0.84-0.65,1.66-1.3,2.48-1.96c0.82-0.65,1.63-1.3,2.48-1.9c0.36-0.27,0.74-0.52,1.12-0.76c0.13-0.04,0.26-0.08,0.4-0.12
			c-0.79,1.52-1.66,2.98-2.7,4.29c-1.09,1.36-2.39,2.53-3.87,3.34c-1.49,0.8-3.15,1.22-4.85,1.27c-0.85,0.04-1.71-0.01-2.56-0.11
			c-0.36-0.05-0.81-0.16-1.23-0.26l-1.28-0.34l-0.7-0.19l-0.18,0.65l-0.16,0.56l-1,0.06l-0.62,0.03l-1.25-0.12l-1.7,4.52l3.88-0.92
			c0.05-0.01,0.09-0.04,0.13-0.06c4.63-0.57,9.26-0.94,13.92-1.25l1.81-0.15c0.31-0.03,0.64-0.06,0.99-0.15
			c0.35-0.09,0.76-0.28,1.05-0.56c0.29-0.27,0.49-0.55,0.67-0.79l0.52-0.71c0.35-0.47,0.71-0.93,1.08-1.37
			c1.48-1.76,3.25-3.27,5.33-3.96c1.03-0.36,2.11-0.55,3.22-0.54c0.24-0.01,0.66,0,0.99-0.05c0.35-0.04,0.69-0.11,1.01-0.2
			c0.65-0.17,1.25-0.42,1.83-0.68c2.25-1.13,4.24-2.48,6.18-3.94l0.72-0.56c0.19-0.15,0.42-0.27,0.67-0.39
			c0.5-0.23,1.05-0.41,1.6-0.55c1.12-0.29,2.29-0.48,3.47-0.59c1.18-0.11,2.37-0.17,3.55-0.11c1.18,0.06,2.38,0.18,3.48,0.62l0,0
			c0.02,0.01,0.05,0.01,0.07,0c1.7,0.92,3.61,1.47,5.55,1.68c1.21,0.13,2.45,0.12,3.68-0.1c0.61-0.11,1.22-0.25,1.81-0.47l0.44-0.16
			l0.39-0.12c0.26-0.07,0.53-0.12,0.8-0.16c2.17-0.29,4.54,0.17,6.78,0.56c1.13,0.22,2.29,0.54,3.56,0.66
			c0.63,0.05,1.27,0.05,1.9-0.07c0.32-0.06,0.63-0.14,0.94-0.29c0.26-0.13,0.52-0.31,0.72-0.56c0.46-0.16,0.95-0.13,1.45-0.01
			c0.26,0.07,0.53,0.15,0.83,0.21c0.3,0.06,0.66,0.09,1.01-0.03c0.35-0.11,0.64-0.33,0.87-0.56c0.23-0.23,0.42-0.46,0.59-0.77
			c0.16-0.3,0.28-0.65,0.3-1.02c0.02-0.32-0.04-0.65-0.14-0.94c1.02,0.04,2.04,0.09,3.06,0.18c0.65,0.06,1.3,0.13,1.95,0.22
			c0.63,0.08,1.34,0.22,2.04,0.27c1.39,0.08,2.8-0.06,4.08-0.61c0.05-0.02,0.08-0.05,0.09-0.1v-0.07
			C127.98,108.72,127.9,108.67,127.82,108.69z M25.89,119.41l-0.15,0.53c-0.03,0.1-0.05,0.19-0.08,0.3l-1.44,0.38l0.62-1.66
			l1.15,0.11L25.89,119.41z M32.24,126.08l-1.27,0.3l0.63-1.68l0.59,0.06c0.01,0.04,0.02,0.07,0.02,0.11
			c0.03,0.17,0.05,0.35,0.06,0.52C32.29,125.63,32.27,125.86,32.24,126.08z M83.48,84.75c-1.1-0.98-1.79-2.44-2.08-3.96
			c-0.28-1.53-0.33-3.14-0.36-4.72c0-0.77,0-1.55,0.04-2.32l0,0.36c0.03,1.61,0.13,3.23,0.47,4.87c0.17,0.82,0.4,1.64,0.76,2.45
			c0.18,0.4,0.4,0.8,0.68,1.19c0.26,0.38,0.67,0.76,0.96,1c0.63,0.55,1.3,1.07,2.04,1.53c0.74,0.45,1.56,0.82,2.41,1.07
			c0.84,0.25,1.68,0.39,2.46,0.5c0.78,0.12,1.53,0.27,2.28,0.46c1.47,0.39,2.94,0.88,4.06,1.74c0.55,0.44,0.99,0.92,1.24,1.62
			c0.28,0.69,0.47,1.45,0.63,2.22c0.32,1.54,0.48,3.13,0.54,4.71l0,0.01l0,0c0.04,0.38,0.01,0.79-0.11,1.15
			c-0.07,0.18-0.17,0.35-0.3,0.47c-0.14,0.13-0.31,0.2-0.5,0.23c-0.38,0.05-0.8,0.03-1.05-0.24c-0.24-0.27-0.29-0.68-0.32-1.06
			c-0.02-0.78-0.01-1.59-0.03-2.39c-0.07-1.6-0.09-3.24-0.84-4.86c-0.2-0.4-0.46-0.79-0.83-1.12c-0.4-0.34-0.78-0.53-1.16-0.72
			c-0.76-0.36-1.52-0.66-2.28-0.93c-0.76-0.27-1.53-0.52-2.3-0.75c-0.77-0.24-1.54-0.46-2.31-0.67c-0.75-0.23-1.55-0.42-2.22-0.68
			C84.66,85.63,84.03,85.24,83.48,84.75z M94.97,94.63c-0.21-0.54-0.46-1.06-0.75-1.58c-0.29-0.52-0.62-1.02-1.04-1.48
			c-0.92-1-2.05-1.47-3.15-1.91c-1.12-0.41-2.29-0.64-3.47-0.71c-0.59-0.05-1.19-0.02-1.76,0c-0.53,0.02-1.06,0.01-1.59-0.08
			c-1.06-0.17-2.1-0.58-3-1.2c-0.45-0.31-0.88-0.65-1.26-1.05c-0.39-0.39-0.74-0.81-1.03-1.27c-0.29-0.45-0.57-0.94-0.7-1.42
			c-0.14-0.5-0.19-1.04-0.22-1.58c-0.04-0.97,0.04-1.95,0.13-2.93c0.05,0.67,0.12,1.35,0.22,2.03c0.09,0.58,0.2,1.16,0.38,1.75
			c0.09,0.3,0.19,0.6,0.34,0.9c0.14,0.29,0.35,0.64,0.65,0.9c0.91,0.8,1.96,1.43,3.08,1.82c1.12,0.4,2.29,0.56,3.43,0.57h0
			c0.05,0,1.27,0.35,1.88,0.57c0.76,0.27,1.53,0.52,2.29,0.75l2.28,0.71c0.75,0.24,1.52,0.45,2.23,0.72
			c0.35,0.14,0.71,0.26,0.94,0.43c0.25,0.17,0.48,0.43,0.68,0.72c0.4,0.59,0.67,1.32,0.88,2.06c0.21,0.75,0.34,1.53,0.45,2.31
			c0.12,0.79,0.13,1.57,0.23,2.38c0.03,0.18,0.05,0.38,0.1,0.57c-0.42-0.37-0.9-0.67-1.38-0.95l-0.02-0.15
			c-0.02-0.14-0.04-0.29-0.07-0.42c-0.06-0.28-0.12-0.56-0.2-0.84C95.37,95.71,95.19,95.16,94.97,94.63z M2.06,119.44l-0.65-2.27
			l0.78-0.29c0.07,0.07,0.12,0.13,0.19,0.2c0.1,0.1,0.2,0.19,0.3,0.27c0.2,0.17,0.41,0.33,0.62,0.47c0.16,0.11,0.33,0.21,0.5,0.31
			L2.06,119.44z M11.98,121.34l0.22-1.52l1.05-0.06c0.38,0.24,0.76,0.49,1.13,0.73L11.98,121.34z M44.35,110.33
			c-0.66-0.37-1.44-0.64-2.13-0.88c-1.41-0.49-2.85-0.97-4.35-1.32c-0.75-0.17-1.52-0.31-2.3-0.4c-0.8-0.09-1.6-0.09-2.39-0.04
			c-0.79,0.04-1.57,0.15-2.33,0.31c-0.77,0.16-1.51,0.34-2.27,0.61c-1.51,0.52-2.9,1.27-4.17,2.14c-1.28,0.87-2.45,1.86-3.51,2.95
			c-1.07,1.08-2.04,2.24-2.99,3.4c-0.84,1.03-1.66,2.06-2.45,3.13c-0.15,0.21-0.37,0.01-0.37,0.01c-0.4-0.29-0.79-0.58-1.18-0.88
			c0.01-0.02,0-0.04,0.01-0.06c0.16-0.24,0.32-0.47,0.5-0.68l0.1-0.11c0,0,0.14-0.14,0.16-0.31c0.03-0.35-0.14-0.48-0.22-0.59
			c-0.06-0.07-0.13-0.11-0.19-0.16c0.96-0.9,1.95-1.77,2.91-2.66c1.07-1,2.07-2.05,3.07-3.12c1-1.07,1.97-2.16,2.9-3.29
			c0.69-0.84,1.35-1.7,1.99-2.59c1.55-0.42,3.12-0.75,4.72-0.94l-0.05,0c0.5-0.02,0.92-0.12,1.36-0.28
			c0.43-0.17,0.85-0.42,1.18-0.78c0.33-0.36,0.54-0.82,0.62-1.27c0.04-0.23,0.06-0.46,0.05-0.68l-0.03-0.63
			c0-0.06-0.01-0.11-0.02-0.17c1.22,0.29,2.37,0.58,3.54,0.88c1.21,0.32,2.46,0.53,3.68,0.85c1.23,0.32,2.44,0.71,3.65,1.12
			c1.14,0.37,2.27,0.79,3.39,1.22c-0.09,0.65-0.11,1.28-0.19,1.88c-0.08,0.75-0.27,1.42-0.44,2.08c-0.17,0.7-0.42,1.39-0.71,2.11
			C45.38,110.9,44.87,110.61,44.35,110.33z M27.86,118.26C27.87,118.26,27.86,118.26,27.86,118.26L27.86,118.26L27.86,118.26z
			 M114.88,111.5c-0.17,0.09-0.38,0.13-0.64,0.11c-0.25-0.02-0.52-0.08-0.81-0.12c-0.25-0.05-0.51-0.08-0.78-0.08
			c-0.12-0.05-0.23-0.09-0.35-0.14c-0.49-0.19-0.97-0.4-1.44-0.61c-0.47-0.22-0.89-0.54-1.41-0.66c-0.51-0.13-1.06-0.22-1.67-0.11
			c-0.04,0.01-0.06,0.04-0.05,0.08c0,0.01,0.01,0.02,0.01,0.03c0.38,0.48,0.81,0.79,1.27,1.06c0.46,0.28,1.02,0.34,1.54,0.47
			c0.29,0.07,0.59,0.11,0.89,0.17c-0.28,0.35-0.82,0.5-1.33,0.53c-0.55,0.03-1.12-0.04-1.66-0.18c-1.09-0.29-2.17-0.81-3.35-1.15
			c-0.3-0.09-0.6-0.17-0.9-0.24c-0.32-0.06-0.6-0.11-0.91-0.16c-0.6-0.11-1.21-0.17-1.83-0.21c-0.52-0.04-1.05-0.05-1.59-0.03
			c-0.78-0.32-1.53-0.69-2.25-1.11c-0.37-0.22-0.73-0.44-1.06-0.69c-0.17-0.12-0.33-0.25-0.46-0.38c-0.03-0.03-0.05-0.05-0.08-0.08
			c0.06-0.34,0.11-0.77,0.13-1.18c0.02-0.43,0.02-0.88-0.07-1.36c-0.01-0.03-0.04-0.06-0.08-0.05c-0.01,0-0.03,0.01-0.04,0.02
			c-0.34,0.36-0.57,0.75-0.76,1.16c-0.18,0.42-0.35,0.83-0.37,1.35l0,0.11c0.01,0.04-0.02,0.03,0.03,0.25
			c0.09,0.26,0.16,0.28,0.22,0.36c0.12,0.12,0.22,0.19,0.32,0.26c0.21,0.14,0.4,0.26,0.61,0.37c0.4,0.22,0.81,0.42,1.22,0.6
			c0.42,0.18,0.85,0.35,1.28,0.51c-0.27,0.05-0.55,0.1-0.82,0.17c-0.31,0.08-0.62,0.19-0.92,0.31c-0.15,0.06-0.3,0.13-0.44,0.21
			l-0.39,0.17c-0.51,0.23-1.06,0.38-1.62,0.51c-1.12,0.25-2.28,0.32-3.44,0.28c-2.32-0.11-4.66-0.68-6.73-1.84
			c-0.04-0.02-0.09-0.01-0.12,0.03c-0.02,0.04-0.01,0.09,0.02,0.11c0.1,0.07,0.2,0.13,0.3,0.19c-0.83-0.3-1.71-0.46-2.58-0.57
			c-1.21-0.15-2.43-0.21-3.65-0.19c-1.22,0.03-2.44,0.14-3.66,0.37c-0.61,0.12-1.22,0.28-1.83,0.52c-0.3,0.13-0.61,0.27-0.91,0.47
			l-0.75,0.48c-1,0.64-2.02,1.24-3.05,1.82c-1.02,0.57-2.09,1.14-3.11,1.59c-0.52,0.22-1.04,0.41-1.55,0.53
			c-0.26,0.06-0.51,0.11-0.76,0.13c-0.26,0.02-0.44,0.01-0.81,0.02c-1.29,0.01-2.61,0.22-3.84,0.68c-1.23,0.46-2.36,1.14-3.33,1.97
			c-0.98,0.82-1.83,1.75-2.59,2.73c-0.38,0.49-0.73,0.99-1.07,1.5c-0.34,0.5-0.64,1.09-0.91,1.4c-0.13,0.14-0.27,0.24-0.49,0.33
			c-0.22,0.09-0.49,0.15-0.78,0.21l-1.77,0.32c-4.49,0.81-9.05,1.23-13.61,1.24c0.05-0.22,0.08-0.44,0.1-0.67
			c0.01-0.19,0.01-0.38,0.01-0.57l0.81-0.02l0.47-0.01l0.16-0.47l0.11-0.32c0.22,0.07,0.43,0.14,0.65,0.2
			c0.45,0.13,0.87,0.26,1.41,0.35c0.94,0.14,1.89,0.2,2.84,0.16c1.9-0.1,3.84-0.61,5.47-1.63c0.82-0.49,1.57-1.1,2.22-1.78
			c0.66-0.67,1.24-1.41,1.74-2.19c0.99-1.53,1.69-3.2,2.18-4.91c1.14-0.31,2.31-0.48,3.47-0.65c1.46-0.17,2.91-0.4,4.39-0.44
			c0.37-0.02,0.74-0.01,1.11,0c0.37,0,0.78,0,1.17-0.02c0.78-0.05,1.56-0.21,2.3-0.45c1.48-0.5,2.81-1.4,3.74-2.6
			c0.02-0.03,0.01-0.06-0.01-0.08c-0.02-0.02-0.06-0.02-0.08,0l0,0c-1.05,1.04-2.41,1.77-3.82,2.09c-0.71,0.17-1.43,0.25-2.15,0.24
			c-0.37-0.01-0.71-0.04-1.09-0.07c-0.38-0.03-0.77-0.07-1.15-0.08c-0.77-0.04-1.54-0.05-2.31-0.02c-0.77,0.05-1.54,0.15-2.29,0.34
			c-0.75,0.18-1.49,0.41-2.21,0.71c-0.24,0.11-0.47,0.22-0.7,0.33c-0.88,0.24-1.71,0.61-2.53,1c-0.96,0.48-1.88,1.02-2.78,1.58
			c-0.9,0.55-1.78,1.14-2.66,1.69c-0.87,0.56-1.75,1.1-2.62,1.52l-0.43,0.48c-0.02,0.01-0.01,0.01-0.02,0.01
			c-0.02,0-0.05,0.03-0.13,0.04c-0.15,0.04-0.42,0.05-0.69,0.02c-0.28-0.02-0.61-0.07-0.96-0.1c-0.34-0.04-0.68-0.07-1.02-0.08
			c-1.35-0.08-2.69-0.05-4.02,0.01l-3.96,0.22c-1.05,0.06-3.32,0.1-3.42,0.1l0.06-0.44l0.08-0.81c0.03-0.04,0.04,0.01,0.12,0.03
			c0.28,0.01,0.56,0.02,0.84,0.06l0.04,0l0.02,0c-0.03,0,0.15,0.01,0.17-0.01c0.15-0.07,0.15-0.1,0.19-0.13
			c0.05-0.06,0.09-0.11,0.12-0.16c0.06-0.1,0.12-0.19,0.17-0.28c0.07-0.12,0.13-0.25,0.2-0.37c0.75,0.09,1.49,0.21,2.24,0.33
			c0.82,0.15,1.62,0.33,2.47,0.48c0.21,0.04,0.43,0.06,0.65,0.09l0.35,0.02l0.31-0.01c0.42-0.01,0.84-0.02,1.26-0.05
			c0.84-0.07,1.69-0.18,2.52-0.39c0.83-0.23,1.66-0.48,2.45-0.86c0.78-0.39,1.54-0.83,2.2-1.4c1.01-0.83,1.83-1.85,2.46-2.96
			c0.59-0.38,1.14-0.82,1.59-1.37c0.53-0.64,0.98-1.39,1.23-2.22c0.26-0.83,0.23-1.72,0.2-2.51c-0.04-0.8-0.1-1.55-0.05-2.27
			c0.03-0.38,0.06-0.65,0.2-0.91c0.14-0.26,0.35-0.49,0.63-0.69c0.55-0.39,1.27-0.65,2-0.85c1.47-0.4,3.05-0.53,4.58-0.89
			c0.05-0.01,0.08-0.06,0.07-0.1c-0.01-0.04-0.05-0.07-0.1-0.07c-1.55,0.15-3.11,0.12-4.7,0.37c-0.79,0.13-1.6,0.31-2.37,0.75
			c-0.38,0.23-0.74,0.53-1.01,0.94c-0.28,0.4-0.39,0.92-0.46,1.3c-0.02,0.12-0.04,0.23-0.06,0.34c-1.04-0.58-2.12-1.1-3.2-1.6
			c-1.17-0.52-2.36-1.02-3.58-1.46c-1.22-0.43-2.43-0.94-3.73-1.1c-1.25-0.17-2.54-0.23-3.79,0.06c-0.06-0.71-0.16-1.42-0.3-2.12
			c-0.15-0.81-0.39-1.61-0.61-2.39l0,0c-0.01-0.05-0.06-0.07-0.11-0.06c-0.04,0.01-0.07,0.06-0.06,0.1
			c0.15,0.81,0.29,1.61,0.38,2.42c0.1,0.81,0.14,1.62,0.14,2.42c-0.01,0.41-0.01,0.8-0.1,1.14c-0.09,0.34-0.27,0.65-0.52,0.88
			c-0.48,0.47-1.27,0.68-1.97,0.68h-0.02l-0.03,0c-2.45,0.16-4.89,0.59-7.25,1.26c-2.36,0.69-4.66,1.59-6.86,2.69
			c-2.2,1.1-4.32,2.4-6.25,3.95c-1.71,1.37-3.31,2.93-4.65,4.72c-0.13-0.08-0.28-0.14-0.41-0.23c-0.08-0.06-0.16-0.12-0.24-0.18
			l0.81-0.86l0.56-0.6l-0.49-0.56l3.8-3.91l2.19-2.25l0.55-0.56c0.1-0.1,0.16-0.16,0.29-0.31c0.12-0.13,0.22-0.27,0.3-0.39
			c0.17-0.25,0.3-0.49,0.43-0.68c0.12-0.19,0.24-0.34,0.31-0.39c-0.05,0.01,0.32-0.14,0.56-0.25c0.26-0.1,0.51-0.25,0.76-0.37
			c0.5-0.27,0.98-0.59,1.43-0.94c0.89-0.73,1.64-1.63,2.15-2.64c0.51-1.01,0.84-2.09,0.99-3.17c0.04-0.27,0.08-0.54,0.1-0.81
			c0.03-0.25,0.05-0.61,0.01-0.89c-0.07-0.6-0.23-1.12-0.45-1.67l-0.28-0.68l-0.55,0.48l-1.93,1.71c0-0.09,0-0.18,0.01-0.26
			c0.03-0.38,0.11-0.76,0.25-1.13c0.27-0.74,0.74-1.41,1.3-2c1.15-1.18,2.66-1.99,4.22-2.7c3.12-1.45,6.4-2.64,9.81-3.05
			c1.7-0.21,3.43-0.2,5.11,0.04c0.85,0.12,1.68,0.3,2.5,0.53c0.82,0.24,1.61,0.52,2.44,0.81c3.29,1.15,6.68,2.11,10.14,2.68
			c3.45,0.58,6.91,0.89,10.35,1.29l1.28,0.14c0.39,0.05,0.78,0.14,1.17,0.25c0.77,0.22,1.52,0.56,2.24,0.96
			c1.45,0.81,2.78,1.86,4.11,2.96c0.67,0.55,1.33,1.11,2.08,1.63c0.37,0.26,0.82,0.5,1.24,0.67c0.43,0.18,0.85,0.31,1.28,0.44
			c1.71,0.48,3.43,0.77,5.15,1.03l5.15,0.73c1.24,0.2,2.47,0.38,3.69,0.66c0.83,0.25,1.67,0.46,2.54,0.57
			c0.73,0.09,1.49,0.1,2.24-0.04c0.75-0.14,1.48-0.47,2.08-0.97l0.52-0.44l-0.68-0.13c-1.41-0.26-2.8-0.78-4.02-1.48
			c-2.12-1.21-1.2-1.96-0.72-1.87c0.35,0.07,0.72,0.08,1.09,0.1c0.36,0.03,0.73,0.06,1.09,0.12c0.72,0.1,1.43,0.24,2.13,0.41
			c0.69,0.16,1.37,0.39,2.01,0.73c0.03,0.05,0.06,0.1,0.1,0.14c0.32,0.34,0.81,0.34,1.21,0.28c0.22-0.03,0.43-0.12,0.6-0.27
			c0.17-0.15,0.28-0.34,0.36-0.54c0.05-0.13,0.07-0.26,0.1-0.39c0.49,0.19,0.91,0.52,1.36,0.84c0.45,0.33,0.95,0.64,1.48,0.91
			c0.26,0.13,0.54,0.25,0.81,0.35c0.24,0.1,0.47,0.2,0.7,0.31c0.46,0.23,0.9,0.5,1.34,0.8c0.44,0.29,0.88,0.62,1.32,0.95
			c0.21,0.16,0.48,0.34,0.65,0.48c0.19,0.14,0.37,0.3,0.54,0.47c0.35,0.34,0.67,0.74,1.02,1.16c0.35,0.42,0.71,0.88,1.16,1.31
			c0.44,0.43,0.95,0.83,1.51,1.14c0.55,0.31,1.22,0.52,1.63,0.68c0.75,0.31,1.49,0.76,1.96,1.29c-0.49-0.02-0.15,1.05-0.99,0.99
			c-0.85-0.06,0.34,1.08,0.85,1.12c0.07,0,0.14-0.02,0.2-0.03C115.19,111.25,115.04,111.41,114.88,111.5z M95.97,107.9
			c0-0.01-0.01-0.02-0.02-0.02C95.95,107.88,95.95,107.84,95.97,107.9z"/>
		<path class="st1" d="M103.74,101.75l-0.57,0.25l-0.25-0.56c-0.13-0.29-0.47-0.42-0.76-0.29c-0.29,0.13-0.42,0.47-0.29,0.76
			l0.25,0.56l-0.57,0.25c-0.29,0.13-0.42,0.47-0.29,0.76c0.1,0.21,0.31,0.34,0.53,0.34c0.08,0,0.16-0.02,0.24-0.05l0.57-0.25
			l0.25,0.56c0.1,0.21,0.31,0.34,0.53,0.34c0.08,0,0.16-0.02,0.24-0.05c0.29-0.13,0.42-0.47,0.29-0.76l-0.25-0.56l0.57-0.25
			c0.29-0.13,0.42-0.47,0.29-0.76C104.37,101.75,104.03,101.62,103.74,101.75z"/>
	</g>
</g>
</svg>
