<?xml version="1.0" encoding="utf-8"?>
<!-- Generator: Adobe Illustrator 23.0.0, SVG Export Plug-In . SVG Version: 6.00 Build 0)  -->
<svg version="1.1" id="Layer_1" xmlns="http://www.w3.org/2000/svg" xmlns:xlink="http://www.w3.org/1999/xlink" x="0px" y="0px"
	 viewBox="0 0 128 128" 
width="128" height="128"
style="enable-background:new 0 0 128 128;" xml:space="preserve">
<style type="text/css">
	.st0{fill:#2D2D2D;}
</style>
<g>
	<path class="st0" d="M123.4,60.5c-1,0.7-0.4,1-0.2,1.6c0.2,0.5,0.5,1.8,1.1,1.6c0.6-0.2,0.8-1.8,0.6-2.4
		C124.6,60.7,124.1,60,123.4,60.5z"/>
	<path class="st0" d="M128,60.8c0-0.4-0.1-0.8-0.2-1.1c-0.4-1.4-0.9-2.6-1.5-3.7c-0.6-1.2-1.4-2.3-2.3-3.3c-1-0.9-2-1.7-2.7-2.7
		c-0.7-1-1-2.2-1.2-3.5c0.1-0.9-0.2-1.5-0.5-2.2c-0.3-0.7-0.6-1.3-1-1.9c-0.7-1.2-1.7-2.3-2.7-3.3c-0.5-0.5-1-1-1.6-1.4l-0.2-0.2
		c-0.1-0.1-0.2-0.1-0.3-0.2l-0.4-0.2c-0.3-0.2-0.6-0.3-0.8-0.5c-0.3-0.2-0.6-0.4-0.8-0.6c0.4-0.4,0.7-0.9,1-1.4l0.6-1
		c0.2-0.3,0.4-0.7,0.6-0.9c0.6-0.7,0.9-1.5,1.2-2.2c0.3-0.7,0.6-1.5,0.8-2.2l0.6-2l-1.9,0.8c-0.6,0.3-1.2,0.6-1.8,0.9
		c-0.3,0.2-0.6,0.3-0.9,0.5c-0.2,0.1-0.3,0.2-0.5,0.3l-0.4,0.4c-0.5,0.5-1,1.1-1.3,1.8c-0.1,0.2-0.1,0.4-0.2,0.5
		c-0.3-0.8-0.6-1.6-0.9-2.4c-0.3-0.5-0.6-1.1-0.9-1.6c-0.4-0.5-0.8-1-1.4-1.4c-0.4-0.2-0.8-0.2-1.1,0.1l0,0c-0.8,0.9-1.6,2-2.1,3.3
		c-0.4,1-0.5,2.2-0.3,3.3c-1,0.2-2,0.5-3,0.8c-1.3,0.4-2.5,1-3.7,1.7c-1.2,0.6-2.3,1.4-3.4,2.3c-1,0.8-2,1.8-2.9,2.8
		c-1,0.8-2,1.6-3.1,2.4c-1,0.8-2.1,1.6-3.1,2.4l-1.6,1.2l-0.8,0.6c-0.3,0.2-0.5,0.4-0.8,0.7c-0.5,0.5-0.9,1-1.3,1.6
		c-0.1,0.2-0.2,0.4-0.3,0.6c-5.1-0.3-10.1,0.3-15,0.9c-2.6,0.3-5.2,0.6-7.7,0.6c-2.6,0-5.2-0.3-7.8-0.7c-2.6-0.5-5.1-1-7.7-1.7
		l-3.8-1c-1.3-0.3-2.6-0.6-3.9-0.9c-2.6-0.6-5.2-0.9-7.9-1c-2.7,0-5.4,0.2-8,1.2l-0.1,0l0,0c-1,0.5-2,1-3,1.7c-1,0.6-1.9,1.3-2.8,2
		c-0.9,0.7-1.8,1.4-2.6,2.2c-0.6,0.6-1.2,1.2-1.8,1.9c0,0,0-0.1,0-0.1c0,0-0.1,0-0.1,0c-2.2,2-3.7,4.7-4.2,7.7
		c-0.1,0.7-0.2,1.5-0.3,2.3c0,0.8,0,1.5,0,2.2l0.1,4.3c0,1.4,0.1,2.9,0.2,4.3l0.2,4.3c0,1.3-0.3,2.7-0.7,4c-0.4,1.3-1,2.6-1.7,3.8
		L0,88.7l0.9,0.2c0.8,0.2,1.5,0.2,2.3,0.1c0.8-0.1,1.6-0.4,2.2-1c0.6-0.6,0.9-1.4,1-2.1c0.1-0.7,0.3-1.4,0.3-2.1
		c0.1-1.4,0.1-2.7,0.1-4.1c0-1.4-0.1-2.7-0.3-4.1c0-0.3-0.1-0.7-0.2-1c-0.1-0.4-0.1-0.6-0.1-1c-0.1-0.6-0.1-1.3-0.1-2
		c0-1.3,0-2.7,0.1-4c0.1-1.3,0.1-2.7,0.3-4c0.1-0.7,0.3-1.3,0.5-1.9c0,0.4-0.1,0.8-0.1,1.3c-0.1,1-0.1,2,0,3.1c0.1,1,0.2,2,0.5,3.1
		c0,0,0,0,0,0c0,0.1,0,0.1,0,0.2c0.2,0.4,3.8,10.2,4.9,12.6c-0.8,2.6-3,9.8-5.6,12.6l-0.2,0.3v0.4c0,3.9-0.1,19.4-0.7,23.5
		c-0.1,0.7,0,1.4,0.4,1.9c1.3,2.1,3,4.5,3.1,4.6l0,0c0,0,0,0,0,0l0.8,2c0.1,0.4,0.5,0.6,0.9,0.6h8.2c0.4,0,0.7-0.2,0.9-0.6
		c0.1-0.3,0.1-0.8-0.2-1l-4-4.1l-0.5-0.5l-0.1-0.1c-0.1-0.1-0.2-0.2-0.3-0.2l-0.1-0.1c-0.9-0.7-2.4-2-2.5-2.7
		c-0.3-1.4-0.1-11.8,1.3-15c0.5-1.1,1.5-2.8,2.6-4.7c0.2-0.3,0.3-0.6,0.5-0.8c1,3.1,3.1,9.5,3.7,11.5c0.7,2.5,0.5,7.3,0.5,7.4
		l-0.1,1.2l1.2-0.3c0.7-0.2,1.4-0.3,1.9-0.4c0.4,0.6,1,1.8,1.5,2.8c0,0.1,0,0.1,0.1,0.2l0.8,2c0.1,0.4,0.5,0.6,0.9,0.6h8.2
		c0.4,0,0.7-0.2,0.9-0.6c0.1-0.3,0.1-0.8-0.2-1l-3.6-3.6l0,0l-0.9-0.9c-1.5-1.6-3.2-3.4-3.5-3.7c-0.3-0.9-2.5-7.2-3.9-11.3
		c0.1-1.1,0.5-6.8,0.4-10.6c1-2.9,1.7-6.2,2.1-8.4l3.7,2.4l1.3,1c0.5,0.3,0.8,0.6,1.4,1c1.2,0.6,2.6,0.5,3.8-0.1l0.3-0.2
		c0.1,0,0.2-0.1,0.3-0.1c0.2-0.1,0.4-0.1,0.6-0.1c0.4,0,0.8,0,1.2,0.1c0.3,0.1,0.9,0.5,1.4,0.7c0.5,0.3,1,0.5,1.5,0.7
		c2,0.9,4.1,1.7,6.3,2.2c2.2,0.5,4.4,0.8,6.7,0.8c1.1,0,2.3-0.2,3.4-0.4c1.1-0.2,2.2-0.4,3.3-0.6c3.8-0.9,7.5-2.1,11-3.7
		c0.1,0.6,0.3,1.1,0.3,1.5l0,0.2c0.9,8.4,0.9,10,0.9,10.3c-0.3,0.9-0.9,4.4-0.1,6.3c0.1,2.5-0.2,17.2-0.2,17.3l0,1.1l2.3-0.3
		l1.5,2.1c0,0,0,0,0,0l0.8,2c0.1,0.4,0.5,0.6,0.9,0.6h8.2c0.4,0,0.7-0.2,0.9-0.6c0.1-0.3,0.1-0.8-0.2-1l-3-3h4.3
		c0.4,0,0.7-0.2,0.9-0.6c0.1-0.3,0.1-0.8-0.2-1l-4.6-4.6c0,0-0.1,0-0.1-0.1l-0.1-0.1c0,0-2.4-2.7-2.5-5.2c-0.1-3.7,0.9-8,1.1-8.4
		c0.1-0.4,1.2-3.8,1-6.3c0.1-0.6,0.3-1.3,0.5-2.1c0.7-2.9,1.8-7.2,2.3-12.1c0-0.1,0-0.2,0-0.3c0.2-0.2,0.4-0.3,0.5-0.5
		c1.1-1.2,1.6-2.6,1.9-4.1c0.5-1.3,1.1-2.6,1.6-4c0.4-0.4,0.8-0.8,1.2-1.3c0.3-0.3,0.6-0.7,0.9-1c0.2-0.2,0.3-0.3,0.5-0.4
		c0.2-0.2,0.3-0.2,0.5-0.4c1.4-1.3,2.6-2.6,3.9-3.9c1.2-1.4,2.4-2.8,3.5-4.3c0.5-0.7,1-1.5,1.5-2.3c0.2-0.4,0.5-0.8,0.7-1.2
		c0.1-0.2,0.2-0.4,0.3-0.6c0.5,0.3,1.1,0.6,1.6,0.9c0.8,0.4,2.7,1,2.9,0.9c0.1,0.2,0.2,0.3,0.3,0.5c0.5,0.7,1,1.2,1.7,1.7
		c1.3,1,2.8,1.6,4.3,2.1c0.4,0.1,0.8,0.2,1.2,0.3l0.6,0.1l0.3,0.1c0,0,0,0,0,0c0.2,0.1,0.4,0.4,0.6,0.7c0.2,0.3,0.5,0.6,0.7,0.9
		c0.3,0.3,0.6,0.6,0.9,0.8c0.4,0.2,0.8,0.4,1.2,0.4c0.6,0,1.2-0.1,1.8-0.4c0,0,0,0,0,0c0.2,0.2,0.5,0.3,0.8,0.3c0.3,0,0.6,0,0.9-0.1
		c0.1,0,0.1-0.1,0.2-0.1c0.1,0,0.1-0.1,0.2-0.1l0.2-0.2c1.2-0.9,2-2.2,2.5-3.5c0.2-0.7,0.3-1.4,0.4-2l0.1-0.4
		C128,61.3,128,61,128,60.8z M110.7,31.5c0.4-0.5,0.9-0.8,1.4-1.1l0.4-0.2c0.1-0.1,0.2-0.1,0.4-0.2c0.2-0.1,0.5-0.2,0.7-0.3
		c0,0.1-0.1,0.2-0.1,0.2c-0.3,0.7-0.5,1.5-0.8,2c-0.2,0.4-0.4,0.8-0.5,1.2c-0.1,0.4-0.2,0.8-0.3,1.2c-0.1,0.5-0.3,1-0.4,1.6
		c-0.4-0.3-0.7-0.5-1.1-0.8c-0.1-0.9-0.2-1.7-0.4-2.6c0,0,0-0.1,0-0.1C110.2,32,110.4,31.7,110.7,31.5z M79.7,49.7
		c0.4-0.5,0.9-0.9,1.4-1.2c0.3-0.2,0.5-0.3,0.8-0.5l0.9-0.5c0.6-0.3,1.1-0.7,1.7-1c1.1-0.7,2.2-1.4,3.4-2.2c1.1-0.8,2.2-1.5,3.2-2.4
		l0.1-0.1l0.1-0.1c0.8-1,1.7-1.9,2.7-2.7c0.5-0.4,1-0.8,1.5-1.2c0.5-0.4,1-0.8,1.6-1.1c1.1-0.7,2.2-1.4,3.3-2.1
		c0.9-0.5,1.8-0.9,2.7-1.4c0,0.2,0.1,0.3,0.1,0.4c0.2,0.8,0.4,1.1,0.8,1.8c-1.1,0.4-2,1.3-3,1.9c-1,0.6-2.1,1.3-3.1,2
		c-2,1.4-4,2.8-5.9,4.3c-1,0.7-1.9,1.4-2.9,2.1c-1,0.7-2,1.2-3,1.8c-2,1-4.3,1.7-6.5,2.6c0,0-0.1,0-0.1,0
		C79.5,49.9,79.6,49.8,79.7,49.7z M14.4,123.5l2.8,2.8h-5.3l-0.4-1L14.4,123.5z M33.3,121.5H28l-0.3-0.8l3.2-1.6L33.3,121.5z
		 M22.6,91.1l-0.1,0.2l0,0.2c0.1,4-0.4,10.7-0.4,10.7l0,0.2l0.1,0.2c3.9,11.5,4.1,11.7,4.1,11.8c0.1,0.1,0.2,0.3,2.9,3.1l-2.6,1.3
		c-1.6-3.2-1.9-3.2-2.4-3.2c-0.1,0-0.3,0-1.5,0.3c0-1.7,0-4.8-0.6-6.8c-0.8-2.6-4-12.4-4.2-13.2c1.8-3.1,3.5-6.6,4.6-9.7
		c0.6-0.7,1.3-1.4,2-2.2C24.1,86.2,23.4,88.9,22.6,91.1z M85.4,126.2h-5.3l-0.4-0.9l3.2-1.5L85.4,126.2z M87.4,121.6h-3.9
		c-0.3-0.4-0.9-1-1.4-1.7l2.5-1.1L87.4,121.6z M83.6,94.6c-0.2,0.9-0.4,1.7-0.6,2.3l0,0.1l0,0.1c0.2,2.2-0.9,5.6-0.9,5.7l0,0.1
		c0,0.2-1.2,4.8-1.1,8.9c0,2.2,1.3,4.2,2.1,5.4l-2.3,1c-0.6-1.1-1-2.3-1-3.5c0-3.6,0.2-7.9,0.3-8.7c0.3-0.8,1.7-4.9,1.5-7.3
		c0.2-1.1,1.6-7.8,2.6-14.2c0.4-0.1,0.8-0.2,1.1-0.3c0.2-0.1,0.3-0.1,0.4-0.2C85.2,88.2,84.2,92,83.6,94.6z M126,61.1l-0.1,0.5
		c-0.1,0.6-0.2,1.2-0.4,1.8c-0.3,1.1-0.8,2.1-1.7,2.8l-0.2,0.1c0,0,0,0,0,0c0,0,0,0,0,0c0,0,0,0-0.1,0c0,0-0.1,0-0.1,0
		c0,0,0,0-0.1,0l-0.2-0.1c-0.5-0.4-0.9-0.9-1.4-1.3l-2.8-2.7c0,0-0.1,0-0.1,0c0,0-0.1,0.1,0,0.1c0.6,1.2,1.3,2.3,2.1,3.3
		c0.4,0.5,0.8,1.1,1.2,1.6l0.2,0.2c0,0,0,0,0.1,0.1c-0.5,0.1-1,0.2-1.5,0c-0.7-0.2-1.2-0.6-1.6-1.2c-0.2-0.3-0.4-0.6-0.6-1
		c-0.2-0.3-0.3-0.7-0.8-1.1c-0.1-0.1-0.3-0.2-0.5-0.3l-0.3-0.1l-0.5-0.1c-0.4-0.1-0.7-0.2-1.1-0.3c-1.4-0.4-2.8-0.9-4.1-1.6
		c-0.6-0.4-1-0.9-1.5-1.4c-0.1-0.1-0.2-0.4-0.4-0.8c-0.4-0.8-1.1-1.1-1.8-1.3c-0.4-0.1-0.7-0.2-1-0.3c-0.7-0.3-1.4-0.6-2-0.9
		c-0.6-0.4-1.1-0.8-1.7-1.4c-0.6-0.5-1.1-1.1-1.6-1.8l-0.1-0.1c0,0,0,0-0.1,0c-0.1,0-0.2-0.1-0.2-0.2l0,0.1l-0.1-3.7l-0.7,3.6l0,0
		l0,0.1c0,0.3,0.1,0.6,0.4,0.8c0.4,0.7,2,2.4,2.6,3c0.5,0.6-0.5,2.3-0.5,2.3l-1.9,1.9c-1.3,1.3-2.5,2.6-3.7,3.9
		c-1.2,1.3-2.4,2.7-3.6,4.1c-0.1,0.1-0.3,0.4-0.5,0.6c-0.2,0.2-0.3,0.4-0.4,0.6c-0.1,0.2-0.2,0.3-0.3,0.5c0.5-2,0.8-4.1,0.5-6.1
		c0.1,2.2-0.4,4.4-1.2,6.4c-0.8,2-1.8,4-2.8,5.9l0,0l0,0.1c-0.3,1.3-0.9,2.5-1.8,3.3c-0.4,0.4-1,0.8-1.5,1c-0.3,0.1-0.6,0.2-0.9,0.3
		c-0.1,0-0.2,0-0.3,0.1c0.1-0.7,0.2-1.4,0.3-2c0-0.1,0-0.2,0-0.2c0.1-1.4,0.2-2.8,0.2-4.2c0-0.8,0-1.5,0-2.3c0-0.8,0-1.5-0.1-2.3
		c-0.1,0.7-0.2,1.5-0.4,2.2c-0.2,0.7-0.3,1.5-0.5,2.2c-0.3,1.4-0.7,2.7-1.1,4.1c0,0.1-0.1,0.2-0.1,0.2c0,0,0,0,0,0c0,0,0,0,0,0
		c0,0.1,0,0.1,0,0.2c0,0,0,0,0,0.1c-0.9,7.6-3,17.4-3.1,17.9l0,0.1l0,0.1c0.2,1.8-1,5.5-1.4,6.7l0,0.1l0,0.1c0,0-0.3,5-0.3,9
		c0,3.1,2.2,6.1,3.5,7.6l-2.8,1.3l-1.7-2.4l-1.2,0.2c0.1-3.6,0.2-14.9,0.2-16.5l0-0.2l-0.1-0.2c-0.6-1.2-0.1-4.5,0.1-5.1
		C76,99,76.2,98.5,75,88.2l0-0.2c-0.2-1.6-1.3-5.1-1.4-5.3c0-0.1-0.1-0.2-0.1-0.2c0,0,0,0,0,0l-1.3-3c-0.4-1-0.8-2-1.2-3
		c-0.1-0.3-0.2-0.5-0.2-0.7c0-0.2,0-0.5,0.1-0.7c0.1-0.5,0.2-1.1,0.3-1.6l0.7-3.2l-1.1,3.1c-0.2,0.5-0.4,1-0.5,1.6
		c-0.1,0.3-0.2,0.5-0.2,0.9c0,0.4,0,0.7,0.1,0.9c0.2,1.1,0.5,2.2,0.7,3.2l0.8,3.2l0,0c0,0,0,0.1,0,0.1c0,0.1,0.1,0.1,0.1,0.2
		c0.2,0.6,0.6,1.9,0.9,3c-3.7,1.1-7.4,2-11.2,2.6c-1.1,0.2-2.1,0.3-3.2,0.4c-1.1,0.1-2.1,0.2-3.2,0.2c-2.1,0-4.2-0.3-6.2-0.8
		c-2.1-0.5-4.1-1.2-6-2c-0.5-0.2-1-0.4-1.5-0.6c-0.5-0.2-0.9-0.5-1.6-0.7c-0.6-0.2-1.3-0.3-2-0.1c-0.3,0.1-0.7,0.2-1,0.3
		c-0.2,0.1-0.3,0.1-0.4,0.2l-0.4,0.2c-0.7,0.5-1.7,0.5-2.5,0.2c-0.4-0.1-0.9-0.5-1.4-0.7l-1.4-0.8c-1-0.5-1.9-1.1-2.9-1.6
		c-0.4-0.2-0.8-0.6-1.2-0.8c0.1-0.6,0.1-0.9,0.2-1.2c0.4-0.6,0.8-1.1,1.1-1.5c0-0.1,0.1-0.1,0.1-0.2c0.4-0.6,0.9-1.3,1.3-1.9
		c0.5-0.8,1-1.7,1.5-2.5c0.5-0.9,0.9-1.7,1.4-2.6c0.4-0.9,0.8-1.8,1-2.8c-0.4,0.9-0.9,1.7-1.4,2.5c-0.5,0.8-1.1,1.6-1.7,2.3
		c-0.6,0.8-1.2,1.5-1.9,2.2c-0.5,0.6-1,1.1-1.5,1.7c-0.1,0.1-0.6,0.7-0.6,0.7c-0.2,0.2-3.7,4.6-5.1,5.9l-0.1,0.2l-0.1,0.2
		c-1.4,4.1-4.1,8.8-6.3,12.6c-1.1,2-2.1,3.7-2.7,4.9c-1.7,3.7-1.8,14.5-1.5,16.1c0.2,1.1,1.3,2.2,2.2,3l-2.3,1.4
		c-0.6-0.9-1.6-2.4-2.5-3.8c-0.1-0.2-0.2-0.4-0.1-0.7c0.6-4.3,0.7-20.8,0.7-23.4c2.8-3.3,5-10.4,5.9-13.4l0.1-0.4l-0.2-0.3
		c-0.6-1.2-3.7-9.5-4.9-12.7c0-0.1,0-0.2-0.1-0.3l0,0c-0.4-0.8-0.7-1.7-0.9-2.7C8,65,7.9,64.1,7.8,63.1c-0.1-0.9-0.1-1.8-0.1-2.7
		c0.1-0.1,0.1-0.2,0.2-0.3c0,0,0-0.1,0-0.1c0,0-0.1,0-0.1,0c0-0.9,0.2-1.8,0.3-2.7c-0.3,0.9-0.6,1.9-0.8,2.9
		c-0.1,0.3-0.1,0.6-0.2,0.9c-0.5,0.8-0.9,1.7-1,2.6c-0.2,1.3-0.3,2.7-0.5,4c-0.1,1.3-0.2,2.7-0.2,4c0,0.7,0,1.4,0,2.1
		c0,0.3,0.1,0.7,0.1,1c0,0.3,0.1,0.6,0.1,1c0.2,2.6,0.3,5.3,0,7.9c-0.1,0.7-0.2,1.3-0.3,1.9c-0.2,0.6-0.4,1.1-0.7,1.5
		c-0.5,0.5-1.4,0.6-2.2,0.6c0.6-1,1-2,1.5-3.1c0.5-1.4,0.9-2.9,1-4.5l0-0.6l0-0.5l0-1.1l-0.1-2.2c-0.1-1.4-0.1-2.9-0.2-4.3L4.1,67
		C4,66.3,4,65.6,3.9,64.9c0-0.7,0-1.4,0.1-2.1c0.2-2.5,1.1-4.9,2.5-7c0,0,0.1,0,0.1,0l0,0c1.7-1.5,3.5-2.8,5.3-4
		c0.9-0.6,1.9-1.2,2.8-1.7c1-0.5,1.9-1,2.9-1.4c2.4-0.7,4.9-1,7.5-0.9c2.6,0.1,5.1,0.3,7.7,0.7c5.2,0.7,10.3,1.9,15.4,2.9
		c2.6,0.5,5.2,1,7.8,1.2c2.7,0.2,5.3,0.1,7.9-0.1c2.6-0.2,5.2-0.5,7.8-0.6c2.6-0.1,5.2,0,7.7,0.2l0.2,0l0.2-0.1
		c2.2-0.9,4.5-1.7,6.8-2.8c2.2-1.2,4.2-2.7,6.1-4.3c1.9-1.6,3.7-3.2,5.5-4.7c1.9-1.5,3.7-3.1,5.8-4.3c0.3,0.4,0.6,0.7,0.9,1.1
		c0.2,0.2,0.4,0.4,0.6,0.6c0.2,0.2,0.3,0.5,0.4,0.7c0.3,0.5,0.4,1.1,0.5,1.7c0.2-0.6,0.2-1.2,0.1-1.9c-0.1-0.3-0.2-0.6-0.3-0.9
		c-0.1-0.3-0.3-0.6-0.5-0.8c-0.6-1-1.1-2-1.3-3c-0.2-1-0.1-2,0.3-3c0.3-0.7,0.7-1.4,1.1-2c0.1,0.1,0.2,0.3,0.3,0.4
		c0.3,0.4,0.6,0.8,0.9,1.3c0.5,0.9,1,1.9,1.4,2.9c0.2,0.4,0.9,2.6,1,3.1c0.2,1.1,0.4,2.2,0.2,3.3c0.5-1,0.6-2.1,0.6-3.2
		c0.4,0.5,0.9,1,1.4,1.5c0.3,0.2,0.5,0.5,0.8,0.7c0.1,0.1,0.3,0.2,0.4,0.3l0.2,0.1l0.2,0.1c0.5,0.4,0.9,0.9,1.4,1.4
		c0.9,1,1.7,2,2.5,3.1c0.4,0.5,0.8,1.1,1.1,1.6c0.3,0.5,0.6,1.1,0.7,1.6l0,0.2l0,0c0.5,1.2,1,2.4,1.6,3.6c0.7,1.2,1.6,2.1,2.3,3.1
		c0.7,1,1.2,2.2,1.7,3.3c0.5,1.1,0.9,2.3,1.2,3.5c0.1,0.3,0.1,0.6,0.1,0.8C126,61,126,61.1,126,61.1z"/>
	<path class="st0" d="M114.1,45.9c0-0.6-0.4-1.2-1-1.4c-0.8-0.3-1.7,0-2,0.7c-0.3,0.7,0.1,1.5,0.9,1.9c0.4,0.2,0.9,0.2,1.2,0
		c0,0,0,0,0.1,0c0.3,0.1,0.6,0.2,0.9,0.3c0.6,0.3,1.1,0.6,1.6,1c-0.3-0.6-0.6-1.2-1.1-1.7C114.6,46.3,114.3,46.1,114.1,45.9z"/>
</g>
</svg>
