<?xml version="1.0" encoding="utf-8"?>
<!-- Generator: Adobe Illustrator 24.1.2, SVG Export Plug-In . SVG Version: 6.00 Build 0)  -->
<svg version="1.1" id="Layer_1" xmlns="http://www.w3.org/2000/svg" xmlns:xlink="http://www.w3.org/1999/xlink" x="0px" y="0px"
	 viewBox="0 0 128 128" style="enable-background:new 0 0 128 128;" xml:space="preserve">
<style type="text/css">
	.st0{fill:#2D2D2D;}
</style>
<g>
	<path class="st0" d="M126.78,0h-2.76c-0.67,0-1.22,0.56-1.22,1.25v6.58c-9.64-0.56-19.28-0.79-28.92-0.87
		c-4.98-0.03-9.96,0.05-14.93,0.12C73.96,7.14,68.98,7.27,64,7.46c-4.98,0.16-9.96,0.28-14.93,0.21c-2.49-0.03-4.98-0.12-7.47-0.22
		l-7.47-0.26c-4.98-0.11-9.96-0.05-14.93,0.05c-4.66,0.1-9.33,0.29-13.99,0.59V1.25C5.21,0.56,4.66,0,3.99,0H1.22
		C0.55,0,0,0.56,0,1.25v88.11c0,0.69,0.55,1.25,1.22,1.25h2.77c0.51,0,0.95-0.32,1.13-0.78l27.36,0.33l0.78,0.01L31.7,91
		c-1.61,0.83-3.24,1.7-4.84,2.43c-0.73,0.36-1.5,0.42-2.44,0.48c-0.9,0.06-1.94,0.16-2.87,0.58c-0.85,0.37-1.72,0.72-2.57,1.08
		c-0.07,0.03-0.14,0.06-0.21,0.09c-1.53,0.64-3.06,1.27-4.59,1.89c-0.07,0.03-0.15,0.06-0.22,0.09c-0.84,0.34-1.68,0.68-2.52,1.02
		l-5.1,1.98l-2.56,0.98c-0.85,0.32-1.76,0.69-2.5,1.35c-0.76,0.65-1.19,1.68-1.25,2.65c-0.07,0.96,0.09,2.04,0.77,2.86
		c0.33,0.4,0.77,0.72,1.24,0.92c0.45,0.2,0.91,0.34,1.39,0.43c0.48,0.09,0.98,0.14,1.49,0.09c0.25-0.02,0.54-0.1,0.76-0.17
		l0.65-0.22c2.64-0.89,5.27-1.8,7.9-2.72c0.32-0.11,0.64-0.22,0.95-0.33c0.5-0.18,1.01-0.34,1.51-0.52c0.85-0.3,1.69-0.61,2.54-0.91
		c0.22-0.08,0.45-0.16,0.67-0.24c2.37-0.86,4.74-1.73,7.08-2.66c1.76-0.74,3.37-1.54,5.02-2.35l4.9-2.47
		c3.26-1.65,6.49-3.36,9.73-5.06c1.21-0.64,2.42-1.3,3.63-1.95l6.43,0.06l-0.29,0.16c-3.16,1.76-6.31,3.55-9.45,5.35
		c-3.13,1.82-6.27,3.62-9.38,5.48l-4.66,2.81c-0.78,0.47-1.54,0.96-2.31,1.46c-0.38,0.24-0.78,0.52-1.16,0.79l-1.09,0.82
		c-2.54,1.92-5.04,3.89-7.54,5.86c-0.28,0.22-0.56,0.44-0.84,0.66c-0.07,0.05-0.14,0.11-0.21,0.16l-3.92,3.09l-0.35,0.28l-0.14,0.11
		l-1.99,1.58l-1.07,0.84l-0.53,0.42c-0.17,0.14-0.36,0.27-0.56,0.47c-0.74,0.78-1.07,1.72-1.29,2.65c-0.1,0.46-0.17,1-0.06,1.51
		c0.09,0.52,0.32,1,0.63,1.4c0.31,0.41,0.7,0.72,1.11,0.98c0.41,0.25,0.85,0.47,1.33,0.6c0.97,0.27,2.03,0.05,2.86-0.4
		c0.04-0.02,0.08-0.05,0.13-0.07c0.24-0.13,0.47-0.28,0.69-0.43c0.51-0.35,0.98-0.73,1.46-1.07l2.18-1.61l0.62-0.45l0.31-0.23
		l3.45-2.52c1.46-1.07,2.94-2.11,4.41-3.16l2.21-1.58l1.1-0.79l0.55-0.39c0.21-0.15,0.41-0.3,0.59-0.47c0.75-0.68,1.27-1.5,1.8-2.18
		c0.26-0.34,0.53-0.65,0.82-0.9c0.34-0.24,0.65-0.48,1.04-0.71c1.5-0.95,3.08-1.84,4.63-2.76l18.86-10.74l4.72-2.71
		c0.79-0.46,1.56-0.93,2.35-1.41l0.61-0.39l0.14-0.09c-0.01,0.01-0.02,0.01-0.01,0.01c0.01,0,0.04-0.02,0.09-0.03
		c0.1-0.02,0.23-0.03,0.35-0.02c0.06,0,0.11,0.01,0.15,0.02c0.02,0,0.03,0.01,0.04,0.01l0.1,0.04c0.97,0.38,2.05,0.65,3.2,0.53
		c1.14-0.09,2.31-0.66,3.09-1.53c0.36-0.37,0.62-0.81,0.85-1.24c6.4,0.07,12.79,0.12,19.19,0.05c5.25-0.07,10.51-0.14,15.76-0.29
		l7.88-0.23c1.26-0.05,2.53-0.1,3.79-0.15c-0.1-0.17-0.16-0.36-0.17-0.57c-1.21-0.05-2.42-0.09-3.63-0.14l-4.19-0.12
		c-0.04-0.04-0.07-0.09-0.11-0.13c0.7-0.5,1.37-1.03,2.02-1.58c0.92-0.79,1.81-1.61,2.66-2.47c0.04-0.04,0.08-0.08,0.12-0.12
		c0.08,0.08,0.16,0.17,0.25,0.25c0.53,0.5,1.08,0.97,1.67,1.4c0.38,0.27,0.78,0.52,1.19,0.76v-0.79c-0.17-0.23-0.33-0.46-0.51-0.68
		c-0.46-0.57-0.96-1.1-1.48-1.6c-0.08-0.08-0.17-0.15-0.26-0.23c0.51-0.54,1.01-1.09,1.49-1.65c0.26-0.3,0.51-0.62,0.76-0.93v-0.95
		c-0.5,0.38-0.98,0.78-1.46,1.19c-0.59,0.5-1.16,1.02-1.72,1.55c-0.16-0.13-0.32-0.26-0.49-0.38c-0.59-0.43-1.21-0.83-1.92-1.14
		c0.34,0.69,0.78,1.29,1.23,1.86c0.12,0.15,0.25,0.29,0.37,0.43c-0.05,0.05-0.1,0.1-0.15,0.15c-0.86,0.85-1.68,1.74-2.47,2.66
		c-0.55,0.64-1.06,1.3-1.56,1.99c-1.05-1.3-2.14-2.56-3.26-3.79c-0.25-0.28-0.51-0.54-0.76-0.81c0.81-0.78,1.61-1.57,2.37-2.41
		c0.91-0.98,1.79-2,2.58-3.11c-1.15,0.73-2.22,1.54-3.25,2.39c-0.88,0.71-1.71,1.46-2.54,2.22c-0.88-0.93-1.77-1.85-2.67-2.75
		c-0.69-0.68-1.38-1.36-2.08-2.03c0.27-0.36,0.55-0.71,0.8-1.08c-0.37,0.26-0.72,0.54-1.08,0.82c-0.7-0.67-1.4-1.33-2.12-1.98
		c-0.86-0.78-1.73-1.55-2.62-2.31c1.42-1.55,2.82-3.12,4.15-4.76c-1.67,1.34-3.27,2.76-4.84,4.2c-0.47-0.39-0.93-0.78-1.41-1.16
		c0.37,0.48,0.76,0.93,1.14,1.4c-0.12,0.11-0.25,0.22-0.37,0.33c-1.51,1.39-2.98,2.82-4.45,4.25l-1.4-1.43
		c0.17-1.03,0.23-2.07,0.17-3.1l-0.07-1.09l-0.95,0.38l-1.73,0.69c0.56-0.58,1.12-1.16,1.67-1.76c1.94-2.07,3.85-4.18,5.68-6.37
		c-2.19,1.82-4.3,3.73-6.37,5.68c-0.66,0.62-1.31,1.25-1.97,1.88l-3.56-3.66c1.04-0.75,2.08-1.51,3.11-2.27l0.93-0.69l-1.03-0.6
		c-0.18-0.1-0.36-0.2-0.54-0.3c0.49-0.51,0.98-1.02,1.47-1.53c0.43,0.4,0.85,0.8,1.28,1.19c-0.4-0.43-0.8-0.85-1.2-1.28
		c0.17-0.18,0.35-0.36,0.52-0.54c2.89-3.01,5.73-6.09,8.5-9.22c-3.12,2.78-6.19,5.63-9.2,8.52c-0.17,0.17-0.34,0.33-0.52,0.5
		c-1.38-1.5-2.77-2.99-4.16-4.47c1.56-1.64,3.1-3.3,4.62-4.98c0.37,0.34,0.73,0.69,1.1,1.03c-0.34-0.37-0.69-0.74-1.03-1.11
		c0.93-1.03,1.86-2.08,2.77-3.13c-1.05,0.91-2.09,1.83-3.12,2.76c-1.42-1.54-2.84-3.08-4.28-4.61c1.59-1.61,3.18-3.21,4.78-4.81
		c0.4,0.36,0.79,0.73,1.19,1.09c-0.36-0.4-0.73-0.79-1.09-1.19c1.72-1.73,3.44-3.47,5.16-5.2c0.85,0.76,1.7,1.52,2.56,2.26
		c-0.76-0.85-1.54-1.68-2.31-2.52c1.43-1.44,2.84-2.88,4.27-4.32c1.42,1.31,2.85,2.61,4.31,3.88c-1.26-1.47-2.54-2.91-3.84-4.35
		c1.41-1.43,2.82-2.85,4.22-4.28l0.26-0.26c1.55,1.54,3.11,3.08,4.67,4.62c-0.09,0.12-0.19,0.22-0.27,0.34
		c0.12-0.09,0.23-0.18,0.35-0.27c1.55,1.52,3.1,3.03,4.67,4.54c0.43,0.42,0.87,0.82,1.3,1.24c-0.6,1.4-1.09,2.85-1.32,4.35
		c0.67-1.25,1.34-2.47,2.04-3.67c1.34,1.27,2.68,2.54,4.04,3.8c-0.24,0.4-0.47,0.81-0.69,1.22c-0.37,0.72-0.71,1.47-0.94,2.29
		c0.67-0.52,1.23-1.12,1.76-1.74c0.26-0.31,0.52-0.63,0.77-0.95c0.65,0.6,1.31,1.2,1.96,1.8v29.07c-0.08-0.11-0.15-0.21-0.23-0.32
		c-0.3-0.37-0.63-0.71-1-1.02c-0.38-0.31-0.77-0.59-1.27-0.8c0.09,0.53,0.29,0.98,0.5,1.42c0.22,0.43,0.49,0.82,0.78,1.19
		c0.3,0.37,0.63,0.71,0.99,1.02c0.07,0.06,0.15,0.11,0.22,0.16v3.22v0.95v5.1v0.79v2.12c0,0.01,0.01,0.03,0.01,0.04
		c0.01,0.21,0.07,0.4,0.17,0.57c0.21,0.38,0.59,0.64,1.05,0.64h2.76c0.67,0,1.22-0.56,1.22-1.25V1.25C128,0.56,127.45,0,126.78,0z
		 M3.32,88.73H1.89V1.89h1.43V88.73z M114.74,89.1c0.01,0.01,0.02,0.02,0.03,0.03l-0.07,0C114.71,89.12,114.72,89.11,114.74,89.1z
		 M115.08,8.49c0.49,0.7,1,1.37,1.55,2.01c0.74,0.87,1.52,1.72,2.32,2.52c0.08,0.08,0.17,0.16,0.25,0.24
		c-1.42,1.37-2.84,2.73-4.27,4.1c-0.1-0.11-0.21-0.21-0.31-0.32c-1.49-1.48-3-2.94-4.54-4.37c1.32-1.38,2.64-2.75,3.95-4.14
		C114.38,8.52,114.73,8.51,115.08,8.49z M114.21,18.91c0.08-0.09,0.17-0.17,0.25-0.26c1.4,1.38,2.8,2.74,4.25,4.07
		c0.1,0.1,0.21,0.19,0.31,0.28c-1,0.92-1.99,1.86-2.96,2.81c-0.51,0.52-1.02,1.04-1.53,1.56c-0.75-0.82-1.5-1.64-2.26-2.45
		c-0.64-0.69-1.3-1.36-1.95-2.04L114.21,18.91z M109.81,22.35c-1.1-1.13-2.2-2.25-3.31-3.36c-0.43-0.42-0.85-0.83-1.28-1.25
		c1.38-1.44,2.77-2.88,4.16-4.32c1.42,1.54,2.88,3.04,4.35,4.53c0.1,0.1,0.2,0.2,0.3,0.29c-0.09,0.08-0.17,0.17-0.26,0.25
		L109.81,22.35z M114.01,8.53c-1.38,1.31-2.76,2.62-4.13,3.94c-0.08-0.07-0.15-0.14-0.23-0.22c-1.29-1.19-2.61-2.34-3.96-3.47
		C108.46,8.73,111.23,8.64,114.01,8.53z M105.31,8.8c1.18,1.42,2.39,2.8,3.64,4.16c0.07,0.07,0.13,0.14,0.2,0.21
		c-1.45,1.39-2.89,2.78-4.34,4.17c-1.41-1.38-2.83-2.75-4.28-4.09c-0.2-0.19-0.4-0.37-0.6-0.55c1.23-1.28,2.46-2.56,3.68-3.86
		C104.17,8.83,104.74,8.81,105.31,8.8z M59.47,76.34l-0.17,0.08l-0.34,0.15l-0.63,0.31c-0.83,0.41-1.65,0.82-2.46,1.25l-1.39,0.74
		c-0.03-0.03-0.06-0.07-0.1-0.1l4.54-4.43l1,0.98c0,0,0,0,0,0.01l-0.08,0.39l-0.02,0.1c0,0.01-0.01,0.02-0.01,0.05
		C59.77,76.02,59.52,76.32,59.47,76.34C59.46,76.34,59.49,76.32,59.47,76.34z M41.1,85.99c-0.68-0.74-1.36-1.48-2.05-2.21
		c1.41-1.36,2.82-2.72,4.24-4.08l0.38-0.37c1.18,1.14,2.37,2.27,3.55,3.4L41.1,85.99z M28.97,83.72c1.4-1.34,2.79-2.69,4.19-4.03
		l0.33-0.32c0.15,0.14,0.29,0.28,0.43,0.42c1.45,1.41,2.93,2.79,4.4,4.18c-1.56,1.63-3.12,3.26-4.68,4.9
		C32.11,87.13,30.55,85.42,28.97,83.72z M33.83,89.21l-0.47,0c0.08-0.07,0.15-0.15,0.23-0.22C33.67,89.06,33.75,89.14,33.83,89.21z
		 M88.56,23.3l-3.99,3.89c-1.06-1.05-2.11-2.11-3.18-3.15c-0.44-0.43-0.88-0.85-1.32-1.28l3.99-4.09
		C85.55,20.22,87.05,21.76,88.56,23.3z M84.84,17.86c1.48-1.54,2.95-3.07,4.43-4.61c1.52,1.64,3.05,3.26,4.6,4.87
		c-0.07,0.06-0.13,0.13-0.2,0.19l-4.21,4.11C87.93,20.89,86.39,19.37,84.84,17.86z M68.38,70.65c-0.19,0.18-0.33,0.31-0.44,0.4
		c-0.12,0.09-0.22,0.15-0.28,0.17c-0.07,0.02-0.12,0.03-0.22,0.02c-0.07-0.01-0.16-0.03-0.26-0.05l-2.08-2.13
		c-0.13-0.13-0.26-0.26-0.39-0.39c1.49-1.47,2.98-2.94,4.47-4.41c1.06,1.05,2.12,2.11,3.18,3.16C71,68.44,69.68,69.48,68.38,70.65z
		 M60.89,73.04c-0.3,0.42-0.5,0.88-0.68,1.35l-0.65-0.67l4.06-3.96c0.13-0.13,0.26-0.26,0.4-0.39c0.13,0.13,0.26,0.26,0.4,0.39
		l1.13,1.1c-0.6-0.06-1.23-0.03-1.85,0.14C62.54,71.28,61.5,72.08,60.89,73.04z M51.02,80.7l-3.21,1.71
		c-1.17-1.23-2.35-2.46-3.53-3.69l4.47-4.36c0.12,0.12,0.24,0.24,0.37,0.36c1.42,1.38,2.85,2.75,4.27,4.12l-0.47,0.48
		c-0.24,0.25-0.48,0.5-0.71,0.74L51.02,80.7z M33.62,49.24c1.4,1.41,2.81,2.83,4.21,4.24c-1.39,1.4-2.78,2.8-4.17,4.2
		c-1.42-1.42-2.85-2.83-4.28-4.25C30.79,52.04,32.21,50.64,33.62,49.24z M28.58,52.64c-1.43-1.42-2.87-2.83-4.31-4.24
		c1.44-1.41,2.88-2.83,4.31-4.25c1.4,1.41,2.8,2.83,4.2,4.24C31.38,49.81,29.98,51.23,28.58,52.64z M34.47,48.4
		c1.41-1.4,2.82-2.8,4.24-4.2c1.39,1.4,2.78,2.8,4.17,4.2c-1.39,1.4-2.78,2.8-4.17,4.2C37.29,51.2,35.88,49.8,34.47,48.4z
		 M43.75,49.29c0.09,0.09,0.19,0.19,0.28,0.28c1.31,1.3,2.62,2.6,3.93,3.9c-1.4,1.41-2.79,2.82-4.19,4.22
		c-1.32-1.33-2.65-2.66-3.97-4c-0.08-0.08-0.17-0.16-0.25-0.25C40.95,52.06,42.35,50.67,43.75,49.29z M44.64,48.4
		c0.02-0.02,0.05-0.05,0.07-0.07c1.42-1.44,2.85-2.87,4.27-4.3c1.39,1.4,2.78,2.81,4.17,4.22c-0.05,0.05-0.1,0.1-0.14,0.14
		c-1.39,1.41-2.79,2.81-4.18,4.22c-1.3-1.31-2.6-2.62-3.9-3.93C44.83,48.58,44.73,48.49,44.64,48.4z M48.82,54.32
		c1.42,1.41,2.83,2.81,4.25,4.22c-1.41,1.42-2.81,2.85-4.22,4.28c-1.42-1.43-2.84-2.86-4.26-4.29C46,57.12,47.41,55.72,48.82,54.32z
		 M49.68,53.47c1.41-1.4,2.81-2.79,4.22-4.19c0.05-0.05,0.09-0.09,0.14-0.14c0.03,0.04,0.07,0.07,0.11,0.11
		c1.37,1.36,2.73,2.72,4.09,4.09c-1.45,1.46-2.89,2.92-4.34,4.37C52.48,56.3,51.08,54.88,49.68,53.47z M55.03,48.36l-0.11-0.11
		c1.35-1.36,2.7-2.72,4.05-4.08c1.39,1.4,2.79,2.8,4.18,4.21c-0.06,0.06-0.12,0.12-0.18,0.18c-1.29,1.31-2.59,2.61-3.89,3.92
		C57.73,51.1,56.38,49.73,55.03,48.36z M59.82,43.31c1.4-1.41,2.79-2.81,4.19-4.22c1.41,1.42,2.81,2.83,4.22,4.25
		c-1.4,1.39-2.79,2.77-4.19,4.16C62.63,46.1,61.23,44.71,59.82,43.31z M58.97,42.47c-1.42-1.41-2.84-2.81-4.25-4.22
		c1.41-1.43,2.82-2.86,4.23-4.29l2.99,3.05c0.42,0.42,0.84,0.84,1.26,1.27C61.79,39.67,60.38,41.07,58.97,42.47z M58.12,43.31
		c-1.36,1.35-2.72,2.71-4.09,4.06l-4.1-4.09l-0.1-0.1c1.36-1.37,2.71-2.74,4.07-4.1C55.31,40.48,56.72,41.9,58.12,43.31z
		 M48.97,42.33l-4.17-4.1c-0.03-0.03-0.06-0.06-0.09-0.09c1.38-1.39,2.76-2.79,4.14-4.18c1.41,1.43,2.82,2.86,4.23,4.28
		C51.72,39.6,50.35,40.96,48.97,42.33z M48.13,43.17c-1.43,1.42-2.87,2.85-4.3,4.27c-0.02,0.02-0.05,0.05-0.07,0.07
		c-1.4-1.39-2.8-2.77-4.19-4.16c1.45-1.47,2.9-2.93,4.36-4.4C45.32,40.36,46.72,41.76,48.13,43.17z M38.66,42.47
		c-1.4-1.39-2.8-2.77-4.19-4.16c1.46-1.47,2.92-2.94,4.38-4.41c1.4,1.4,2.81,2.81,4.22,4.21C41.6,39.56,40.13,41.02,38.66,42.47z
		 M37.82,43.31c-1.4,1.42-2.8,2.83-4.21,4.24c-1.41-1.4-2.83-2.79-4.24-4.19c1.43-1.42,2.86-2.83,4.28-4.25
		C35.05,40.51,36.43,41.91,37.82,43.31z M28.51,42.51c-1.42-1.4-2.83-2.8-4.26-4.19c1.45-1.44,2.9-2.88,4.35-4.32
		c1.39,1.41,2.77,2.82,4.17,4.22C31.35,39.65,29.93,41.08,28.51,42.51z M27.74,43.3c-1.42,1.44-2.84,2.88-4.26,4.32
		c-1.37-1.34-2.73-2.69-4.1-4.03c-0.08-0.08-0.17-0.16-0.25-0.24c1.48-1.44,2.95-2.87,4.42-4.31C24.93,40.46,26.33,41.88,27.74,43.3
		z M23.48,49.18c1.42,1.44,2.83,2.88,4.26,4.32c-1.4,1.41-2.8,2.83-4.19,4.25c-1.46-1.44-2.94-2.88-4.41-4.32
		c0.08-0.08,0.16-0.16,0.24-0.24C20.75,51.87,22.11,50.52,23.48,49.18z M27.74,63.68c-1.23,1.25-2.47,2.49-3.69,3.74l-0.46,0.48
		c-1.48-1.47-2.96-2.94-4.45-4.4l2.83-2.75c0.49-0.47,0.97-0.95,1.45-1.43C24.86,60.77,26.3,62.22,27.74,63.68z M24.27,58.47
		c1.42-1.39,2.83-2.79,4.25-4.18c1.42,1.43,2.84,2.86,4.26,4.29c-1.39,1.4-2.77,2.81-4.16,4.21C27.17,61.35,25.72,59.91,24.27,58.47
		z M33.57,59.38c0.08,0.08,0.15,0.15,0.23,0.23c1.36,1.35,2.72,2.7,4.08,4.05c-1.39,1.41-2.79,2.82-4.18,4.23
		c-1.36-1.37-2.72-2.75-4.08-4.11c-0.08-0.08-0.17-0.16-0.25-0.25C30.77,62.14,32.18,60.76,33.57,59.38z M34.69,58.71
		c-0.07-0.07-0.15-0.15-0.22-0.22c1.4-1.39,2.8-2.77,4.19-4.16c0.08,0.08,0.17,0.17,0.25,0.25c1.34,1.32,2.67,2.65,4,3.97
		c-1.4,1.41-2.79,2.82-4.18,4.23C37.39,61.43,36.04,60.07,34.69,58.71z M43.73,59.37c1.43,1.42,2.87,2.84,4.3,4.27
		c-1.41,1.43-2.82,2.85-4.23,4.28c-1.44-1.46-2.87-2.91-4.31-4.36C40.91,62.15,42.33,60.76,43.73,59.37z M48.79,64.38
		c1.46,1.44,2.92,2.88,4.38,4.32c-0.09,0.09-0.18,0.18-0.26,0.27l-4.03,4.13c-1.46-1.49-2.92-2.98-4.39-4.47
		C45.94,67.21,47.36,65.79,48.79,64.38z M49.6,63.58c1.43-1.41,2.86-2.82,4.28-4.23c1.43,1.42,2.87,2.84,4.31,4.26
		c-1.43,1.45-2.86,2.89-4.29,4.34C52.47,66.49,51.04,65.03,49.6,63.58z M54.71,58.53c1.46-1.45,2.92-2.9,4.38-4.34
		c1.41,1.41,2.82,2.82,4.23,4.23c-1.46,1.47-2.9,2.94-4.36,4.41C57.54,61.4,56.13,59.97,54.71,58.53z M64.13,59.24
		c1.43,1.43,2.86,2.84,4.29,4.27c-1.47,1.49-2.94,2.97-4.4,4.46c-1.43-1.46-2.87-2.91-4.31-4.36C61.18,62.15,62.66,60.7,64.13,59.24
		z M59.94,53.34c1.31-1.3,2.61-2.6,3.92-3.89c0.06-0.06,0.12-0.12,0.18-0.18c0.05,0.05,0.11,0.11,0.16,0.16l4.06,4.02
		c-1.38,1.38-2.75,2.77-4.13,4.16C62.73,56.18,61.34,54.76,59.94,53.34z M65.09,48.54c-0.05-0.05-0.11-0.11-0.16-0.16
		c1.38-1.4,2.77-2.79,4.15-4.18c1.4,1.4,2.81,2.78,4.22,4.17c-0.05,0.05-0.1,0.1-0.15,0.14c-1.35,1.36-2.7,2.72-4.05,4.08
		L65.09,48.54z M64.86,38.24c1.39-1.4,2.78-2.82,4.17-4.22c1.43,1.42,2.87,2.84,4.31,4.26c-1.41,1.4-2.82,2.8-4.23,4.2
		C67.69,41.05,66.27,39.64,64.86,38.24z M67.76,30.98c-0.99-0.98-1.98-1.96-2.97-2.95l4.15-4.26c1.04,1.06,2.09,2.12,3.14,3.17
		c0.43,0.43,0.86,0.85,1.29,1.27c-1.41,1.38-2.81,2.78-4.22,4.16C68.69,31.92,68.23,31.45,67.76,30.98z M66.87,31.88
		c0.47,0.46,0.93,0.92,1.4,1.39c-1.41,1.39-2.82,2.78-4.22,4.17c-0.42-0.42-0.85-0.84-1.27-1.26l-3.05-2.99
		c1.4-1.42,2.81-2.84,4.21-4.27C64.91,29.9,65.89,30.89,66.87,31.88z M58.97,32.44l-4.38-4.29c0.74-0.76,1.49-1.5,2.23-2.26
		l2.06-2.12c1.45,1.49,2.91,2.97,4.37,4.45C61.81,29.62,60.39,31.03,58.97,32.44z M58.2,33.2c-1.43,1.42-2.87,2.83-4.3,4.25
		c-1.43-1.41-2.86-2.82-4.29-4.23c1.44-1.46,2.88-2.92,4.31-4.38L58.2,33.2z M48.81,32.42c-1.38-1.36-2.76-2.73-4.15-4.09
		l-0.16-0.16c1.46-1.49,2.93-2.98,4.39-4.48l4.31,4.4C51.73,29.54,50.27,30.97,48.81,32.42z M48.06,33.15
		c-1.4,1.38-2.8,2.77-4.19,4.15c-1.42-1.39-2.84-2.79-4.25-4.18c1.41-1.42,2.81-2.84,4.21-4.26l0.15,0.16
		C45.33,30.4,46.7,31.77,48.06,33.15z M38.75,32.28c-1.4-1.38-2.81-2.76-4.23-4.12l-0.05-0.05c1.45-1.46,2.88-2.93,4.32-4.4
		l4.24,4.34C41.6,29.46,40.17,30.87,38.75,32.28z M37.99,33.04c-1.47,1.46-2.95,2.92-4.42,4.38c-1.4-1.39-2.81-2.77-4.21-4.16
		c0.12-0.12,0.25-0.25,0.37-0.37c1.35-1.36,2.7-2.72,4.05-4.09l0.05,0.05C35.22,30.25,36.6,31.64,37.99,33.04z M28.84,32
		c-0.13,0.13-0.25,0.25-0.38,0.38c-1.31-1.29-2.62-2.59-3.93-3.88l-0.28-0.27c0.02-0.02,0.03-0.03,0.05-0.05
		c1.48-1.49,2.97-2.99,4.44-4.5l4.19,4.26C31.57,29.29,30.2,30.64,28.84,32z M27.73,33.11c-1.45,1.45-2.89,2.91-4.33,4.37
		c-0.48-0.48-0.97-0.96-1.45-1.43l-2.83-2.75c1.49-1.46,2.97-2.93,4.45-4.41l0.27,0.28C25.14,30.5,26.44,31.8,27.73,33.11z
		 M18.28,32.48l-4.31-4.19c1.55-1.49,3.08-3,4.61-4.51L22.7,28C21.22,29.49,19.75,30.98,18.28,32.48z M18.51,33.9l2.76,2.83
		c0.48,0.49,0.96,0.97,1.43,1.45c-1.45,1.47-2.89,2.95-4.33,4.44c-1.47-1.43-2.95-2.86-4.43-4.28c0.13-0.12,0.26-0.24,0.38-0.36
		C15.73,36.63,17.12,35.26,18.51,33.9z M18.43,44.03c0.08,0.09,0.17,0.17,0.25,0.26c1.34,1.38,2.69,2.74,4.03,4.11
		c-1.34,1.37-2.69,2.73-4.03,4.11c-0.08,0.08-0.16,0.17-0.24,0.25c-0.53-0.52-1.06-1.04-1.59-1.56c-0.97-0.95-1.96-1.88-2.94-2.82
		c1.15-1.1,2.3-2.19,3.44-3.3C17.71,44.73,18.07,44.38,18.43,44.03z M22.71,58.6c-0.48,0.49-0.96,0.97-1.43,1.45l-2.76,2.84
		c-1.38-1.35-2.75-2.69-4.15-4.03c-0.14-0.14-0.29-0.27-0.43-0.41c1.48-1.42,2.96-2.85,4.44-4.28
		C19.82,55.65,21.26,57.13,22.71,58.6z M22.72,68.78l-4.14,4.24c-1.53-1.51-3.07-3.02-4.62-4.51l4.33-4.21
		C19.77,65.8,21.24,67.29,22.72,68.78z M23.37,69.43c0.11,0.11,0.22,0.23,0.34,0.34c1.38,1.37,2.76,2.74,4.14,4.1l-4.17,4.28
		c-1.33-1.36-2.66-2.72-4-4.06c-0.18-0.18-0.36-0.35-0.53-0.53L23.37,69.43z M24.59,68.88c-0.11-0.11-0.22-0.22-0.33-0.33l0.47-0.46
		c1.25-1.22,2.49-2.46,3.74-3.69c0.08,0.09,0.17,0.17,0.25,0.26c1.37,1.37,2.75,2.73,4.12,4.09c-0.05,0.05-0.1,0.1-0.14,0.15
		l-4.02,4.12C27.32,71.64,25.96,70.26,24.59,68.88z M33.39,69.58c0.05-0.05,0.1-0.1,0.15-0.15c1.49,1.47,2.98,2.94,4.48,4.4
		l-4.27,4.37c-1.49-1.54-2.98-3.08-4.48-4.61L33.39,69.58z M34.39,68.59c1.42-1.39,2.83-2.79,4.24-4.18
		c1.46,1.44,2.91,2.89,4.37,4.32c-0.08,0.08-0.16,0.17-0.25,0.25l-3.98,4.08C37.32,71.56,35.86,70.07,34.39,68.59z M43.44,69.66
		c0.09-0.08,0.17-0.17,0.26-0.25c1.49,1.47,2.98,2.94,4.48,4.4l-4.34,4.45c-0.55-0.57-1.09-1.15-1.64-1.71
		c-0.94-0.97-1.89-1.93-2.83-2.9L43.44,69.66z M49.81,74.03c-0.12-0.12-0.23-0.24-0.35-0.36l4.13-4.03
		c0.09-0.09,0.18-0.18,0.27-0.27c0.97,0.95,1.93,1.91,2.9,2.86l1.58,1.54l-4.42,4.52C52.56,76.87,51.19,75.44,49.81,74.03z
		 M57.45,71.54c-0.95-0.97-1.9-1.93-2.85-2.89c1.46-1.43,2.9-2.86,4.35-4.3c1.46,1.44,2.91,2.88,4.37,4.32
		c-0.13,0.13-0.26,0.26-0.39,0.39l-3.96,4.05L57.45,71.54z M69.18,62.74c-1.41-1.44-2.82-2.88-4.23-4.32
		c1.39-1.38,2.78-2.76,4.17-4.14l4.25,4.21C71.97,59.91,70.58,61.33,69.18,62.74z M69.97,53.45c1.36-1.35,2.72-2.7,4.08-4.05
		c0.05-0.05,0.1-0.1,0.15-0.15c1.41,1.39,2.83,2.76,4.25,4.14c-1.42,1.43-2.85,2.87-4.27,4.3L69.97,53.45z M74.13,47.54
		c-1.39-1.41-2.78-2.83-4.17-4.23c1.4-1.41,2.8-2.82,4.2-4.24c1.42,1.4,2.85,2.8,4.29,4.18C77.01,44.68,75.57,46.11,74.13,47.54z
		 M69.89,33.13c1.39-1.41,2.79-2.81,4.17-4.22c1.46,1.44,2.92,2.88,4.39,4.31c-1.43,1.41-2.86,2.82-4.29,4.23
		C72.74,36.01,71.32,34.57,69.89,33.13z M74.92,28.03l4.29-4.39c0.44,0.43,0.87,0.87,1.31,1.3c1.06,1.04,2.13,2.07,3.19,3.1
		l-0.32,0.31c-1.39,1.36-2.76,2.73-4.15,4.09C77.81,30.96,76.37,29.49,74.92,28.03z M79.52,22.22c-1.55-1.51-3.12-3-4.69-4.49
		c1.41-1.47,2.82-2.94,4.23-4.41c0.86,0.94,1.71,1.88,2.58,2.8c0.65,0.7,1.32,1.39,1.98,2.08L79.52,22.22z M78.65,23.08l-4.39,4.28
		c-0.43-0.43-0.85-0.87-1.28-1.3c-1.06-1.05-2.12-2.1-3.18-3.15l4.3-4.41C75.6,20.04,77.12,21.56,78.65,23.08z M69.24,22.37
		c-1.53-1.51-3.07-3.01-4.63-4.5l0.79-0.82c1.2-1.27,2.41-2.53,3.62-3.79c1.09,1.15,2.18,2.3,3.29,3.44
		c0.44,0.46,0.89,0.91,1.34,1.36L69.24,22.37z M68.38,23.2l-4.27,4.16c-1.48-1.47-2.97-2.93-4.46-4.39l4.25-4.37
		C65.38,20.14,66.87,21.68,68.38,23.2z M59.04,22.38c-1-0.98-2-1.97-3.02-2.94c-0.52-0.5-1.05-1-1.57-1.5
		c1.48-1.54,2.95-3.09,4.42-4.64c1.36,1.46,2.73,2.92,4.12,4.36c0.15,0.15,0.29,0.3,0.44,0.45L59.04,22.38z M55.33,20.13
		c0.97,1.01,1.95,2,2.93,3l-2.12,2.06c-0.76,0.74-1.51,1.49-2.27,2.23l-4.41-4.32c1.47-1.51,2.92-3.02,4.38-4.54
		C54.33,19.09,54.83,19.62,55.33,20.13z M48.76,22.44l-0.42-0.41c-1.36-1.32-2.73-2.64-4.09-3.96c1.53-1.59,3.05-3.18,4.56-4.78
		c1.49,1.59,3,3.17,4.51,4.75C51.8,19.5,50.27,20.96,48.76,22.44z M47.79,22.58l0.4,0.41c-1.5,1.46-3,2.94-4.49,4.41l-4.36-4.25
		c0.86-0.88,1.73-1.76,2.58-2.64c0.64-0.66,1.28-1.34,1.92-2C45.16,19.86,46.47,21.23,47.79,22.58z M41.23,19.81
		c-0.89,0.86-1.77,1.73-2.65,2.59l-4.2-4.1c-0.07-0.07-0.14-0.14-0.21-0.2c1.55-1.61,3.08-3.23,4.61-4.86l2,2.09
		c0.82,0.86,1.65,1.7,2.48,2.56C42.57,18.53,41.9,19.16,41.23,19.81z M38.03,22.93c-1.48,1.44-2.96,2.89-4.43,4.34l-4.3-4.16
		c1.49-1.52,2.97-3.04,4.44-4.58c0.06,0.07,0.13,0.14,0.2,0.2L38.03,22.93z M28.45,22.29l-4.27-4.13c-0.01-0.01-0.02-0.02-0.03-0.03
		c0.83-0.86,1.67-1.72,2.5-2.6c0.7-0.73,1.38-1.48,2.07-2.22c1.45,1.5,2.89,3,4.34,4.51C31.51,19.3,29.97,20.79,28.45,22.29z
		 M27.91,22.83c-1.5,1.48-3,2.97-4.5,4.46c-0.02,0.02-0.04,0.04-0.06,0.06l-4.21-4.11c0.05-0.05,0.11-0.11,0.17-0.16
		c1.48-1.49,2.95-2.99,4.41-4.49c0.01,0.01,0.02,0.02,0.02,0.02L27.91,22.83z M18.41,22.18c-0.06,0.06-0.12,0.12-0.17,0.18
		l-3.98-3.88c-0.09-0.08-0.17-0.17-0.26-0.25c0.1-0.1,0.2-0.2,0.3-0.29c1.48-1.5,2.95-3,4.38-4.55c1.41,1.46,2.83,2.91,4.24,4.37
		C21.41,19.22,19.91,20.7,18.41,22.18z M17.71,22.89c-1.52,1.53-3.03,3.08-4.53,4.63l-0.23-0.22c-1.41-1.34-2.82-2.7-4.23-4.04
		c0.2-0.18,0.4-0.36,0.6-0.54c1.45-1.33,2.85-2.69,4.25-4.07c0.08,0.09,0.17,0.17,0.25,0.26L17.71,22.89z M13.5,28.74l4.21,4.33
		c-1.37,1.4-2.73,2.8-4.09,4.21c-0.13,0.13-0.25,0.26-0.37,0.39c-1.52-1.46-3.06-2.92-4.59-4.37c1.04-0.96,2.08-1.92,3.11-2.9
		C12.35,29.86,12.92,29.3,13.5,28.74z M13.41,38.84c1.43,1.49,2.86,2.98,4.3,4.45c-0.35,0.37-0.71,0.73-1.07,1.09
		c-1.11,1.14-2.21,2.3-3.31,3.45c-1.56-1.5-3.13-2.99-4.71-4.48C10.24,41.87,11.83,40.36,13.41,38.84z M16.15,51.89
		c0.52,0.54,1.05,1.07,1.57,1.61c-1.44,1.48-2.87,2.97-4.3,4.46c-1.6-1.53-3.2-3.05-4.82-4.56c1.58-1.48,3.15-2.96,4.72-4.46
		C14.26,49.92,15.2,50.92,16.15,51.89z M13.68,59.56c1.34,1.39,2.69,2.78,4.04,4.16l-4.23,4.35c-0.5-0.48-1-0.97-1.5-1.45
		c-1.1-1.05-2.22-2.09-3.35-3.12c1.54-1.46,3.08-2.91,4.61-4.38C13.4,59.26,13.54,59.41,13.68,59.56z M13.19,69.27
		c1.5,1.56,3.01,3.1,4.53,4.64l-3.48,3.56c-0.22,0.23-0.44,0.46-0.66,0.69c-1.41-1.39-2.82-2.76-4.28-4.1
		c-0.19-0.18-0.39-0.35-0.58-0.52c1.47-1.4,2.93-2.81,4.4-4.21L13.19,69.27z M13.58,79.92c1.43,1.42,2.88,2.82,4.35,4.2
		c-1.5,1.55-2.98,3.11-4.47,4.68c-0.51-0.71-1.05-1.4-1.62-2.07c-0.79-0.92-1.61-1.81-2.47-2.66C9.19,83.88,9,83.71,8.82,83.53
		c1.43-1.37,2.85-2.74,4.28-4.1C13.26,79.59,13.42,79.75,13.58,79.92z M14.47,79.02c-0.16-0.15-0.31-0.31-0.47-0.46
		c0.23-0.22,0.45-0.44,0.68-0.66l3.56-3.47c0.18,0.18,0.36,0.36,0.54,0.54c1.35,1.34,2.71,2.68,4.07,4.01l-0.23,0.23
		c-1.32,1.38-2.65,2.75-3.97,4.13C17.28,81.89,15.88,80.45,14.47,79.02z M23.06,79.66l0.24-0.23c1.04,1.02,2.09,2.03,3.15,3.03
		c0.56,0.53,1.13,1.05,1.69,1.58c-1.54,1.6-3.08,3.21-4.61,4.82c-1.32-1.6-2.69-3.15-4.09-4.67c-0.17-0.18-0.34-0.36-0.51-0.54
		C20.3,82.31,21.68,80.99,23.06,79.66z M27.14,81.76c-1-1.06-2.01-2.1-3.02-3.14l4.29-4.19c1.53,1.51,3.08,3.01,4.63,4.5l-0.31,0.32
		c-1.34,1.4-2.68,2.79-4.02,4.18C28.18,82.88,27.67,82.31,27.14,81.76z M34.62,79.1c-0.14-0.14-0.28-0.28-0.41-0.42l4.38-4.28
		c0.97,0.95,1.93,1.9,2.91,2.84c0.57,0.55,1.15,1.1,1.72,1.65l-0.36,0.37c-1.35,1.41-2.71,2.82-4.07,4.23
		C37.4,82.02,36.02,80.55,34.62,79.1z M77.53,64.1c-0.91,0.4-1.74,0.9-2.53,1.43c-0.62,0.42-1.22,0.86-1.83,1.29
		c-1.08-1.1-2.16-2.21-3.24-3.31c1.42-1.4,2.84-2.8,4.25-4.2l4.25,4.2c-0.12,0.12-0.24,0.25-0.36,0.37
		C77.89,63.95,77.71,64.02,77.53,64.1z M75.21,58.73L75,58.51c1.44-1.43,2.88-2.86,4.32-4.29c1.45,1.4,2.89,2.8,4.35,4.18
		c-0.51,0.48-1.01,0.97-1.52,1.46c-0.99,0.96-1.96,1.93-2.94,2.89C77.88,61.41,76.54,60.07,75.21,58.73z M79.15,52.68
		c-1.38-1.42-2.75-2.84-4.14-4.25c1.43-1.45,2.87-2.89,4.31-4.34c1.42,1.38,2.85,2.74,4.29,4.1c-0.16,0.16-0.32,0.32-0.49,0.48
		C81.8,50.01,80.47,51.34,79.15,52.68z M79.15,42.56c-1.39-1.44-2.79-2.87-4.19-4.29c1.42-1.43,2.84-2.87,4.26-4.31
		c0.72,0.7,1.44,1.4,2.16,2.09c0.73,0.71,1.48,1.4,2.22,2.1C82.11,39.62,80.63,41.09,79.15,42.56z M82.07,35.35
		c-0.69-0.73-1.4-1.44-2.1-2.17c1.37-1.39,2.74-2.77,4.1-4.16l0.32-0.33c1.48,1.42,2.97,2.84,4.47,4.24
		c-1.57,1.55-3.14,3.09-4.7,4.64C83.47,36.84,82.78,36.09,82.07,35.35z M85.23,27.84l3.89-3.98c1.48,1.48,2.97,2.96,4.47,4.42
		c-1.34,1.32-2.68,2.64-4.02,3.96C88.14,30.76,86.69,29.3,85.23,27.84z M90,22.96l4.11-4.22c0.06-0.06,0.12-0.13,0.18-0.19
		c0.03,0.03,0.06,0.06,0.09,0.09c1.46,1.53,2.93,3.04,4.41,4.55l-4.4,4.29C92.94,25.97,91.47,24.46,90,22.96z M95.07,17.96
		c-0.04-0.03-0.07-0.07-0.11-0.1c1.44-1.5,2.89-3,4.33-4.5c0.18,0.19,0.36,0.39,0.54,0.59c1.34,1.44,2.72,2.84,4.1,4.24
		c-0.01,0.01-0.02,0.02-0.03,0.03l-4.28,4.17C98.12,20.9,96.6,19.42,95.07,17.96z M103.56,8.84c-1.29,1.22-2.57,2.44-3.84,3.67
		c-1.31-1.21-2.64-2.39-4-3.54C98.33,8.93,100.94,8.89,103.56,8.84z M93.87,8.98c0.5,0,0.99-0.01,1.49-0.02
		c1.21,1.41,2.45,2.79,3.72,4.15c-1.51,1.45-3.02,2.9-4.52,4.35c-1.62-1.55-3.25-3.09-4.89-4.62c1.23-1.28,2.46-2.57,3.68-3.86
		C93.52,8.98,93.69,8.98,93.87,8.98z M93.26,8.98c-1.28,1.21-2.55,2.43-3.82,3.65c-1.33-1.24-2.68-2.47-4.03-3.69
		C88.02,8.97,90.64,8.99,93.26,8.98z M85.33,8.95c1.23,1.36,2.47,2.71,3.71,4.06c-1.54,1.48-3.08,2.97-4.62,4.45
		c-0.69-0.67-1.38-1.35-2.07-2.01c-0.92-0.89-1.86-1.75-2.79-2.62c1.24-1.29,2.48-2.59,3.71-3.89C83.96,8.93,84.65,8.94,85.33,8.95z
		 M78.93,8.86c1.42,0.02,2.84,0.04,4.26,0.06c-1.29,1.22-2.58,2.45-3.86,3.68c-1.39-1.29-2.79-2.56-4.21-3.81
		C76.39,8.82,77.66,8.85,78.93,8.86z M75.04,8.79c1.25,1.45,2.52,2.87,3.8,4.28c-1.48,1.42-2.95,2.84-4.43,4.25
		C73.94,16.89,73.48,16.44,73,16c-1.16-1.09-2.33-2.16-3.51-3.23c1.27-1.33,2.54-2.67,3.8-4.01C73.87,8.77,74.46,8.78,75.04,8.79z
		 M73.22,8.76c-1.33,1.25-2.66,2.51-3.98,3.77c-1.5-1.35-3-2.69-4.53-4.02C67.55,8.62,70.39,8.69,73.22,8.76z M64,8.49
		c0.21,0.01,0.43,0.01,0.64,0.02c1.36,1.51,2.73,3,4.12,4.47c-1.26,1.21-2.53,2.42-3.8,3.63l-0.83,0.8
		c-0.16-0.15-0.31-0.3-0.46-0.45c-1.44-1.39-2.9-2.76-4.37-4.13c1.37-1.45,2.75-2.9,4.12-4.36C63.62,8.48,63.81,8.49,64,8.49z
		 M63.4,8.47c-1.46,1.36-2.9,2.74-4.35,4.11c-1.56-1.45-3.14-2.88-4.73-4.31C57.34,8.3,60.37,8.38,63.4,8.47z M54.28,8.28
		c1.42,1.59,2.86,3.17,4.31,4.73c-1.56,1.47-3.11,2.95-4.66,4.44c-1.58-1.52-3.17-3.03-4.77-4.54c1.45-1.54,2.89-3.09,4.33-4.64
		C53.76,8.27,54.02,8.27,54.28,8.28z M49.07,8.28c1.46-0.02,2.91-0.02,4.37-0.01c-1.55,1.43-3.09,2.87-4.63,4.31
		c-1.49-1.4-2.99-2.79-4.5-4.18C45.9,8.35,47.48,8.3,49.07,8.28z M44.27,8.4c1.38,1.51,2.78,3.01,4.18,4.51
		c-1.61,1.52-3.21,3.05-4.81,4.58c-0.86-0.83-1.71-1.66-2.57-2.48l-2.1-2c1.4-1.51,2.79-3.03,4.17-4.56
		C43.53,8.43,43.9,8.42,44.27,8.4z M41.6,8.5c0.49-0.02,0.98-0.03,1.46-0.05c-1.51,1.37-3.02,2.75-4.51,4.14l-4.02-3.84L41.6,8.5z
		 M34.13,8.76l0.34-0.01l3.87,4.04c-1.64,1.53-3.27,3.08-4.88,4.64c-1.51-1.45-3.02-2.9-4.53-4.35c1.31-1.42,2.61-2.85,3.89-4.3
		C33.26,8.77,33.69,8.77,34.13,8.76z M32.57,8.78c-1.41,1.24-2.8,2.5-4.18,3.78c-1.32-1.26-2.63-2.52-3.96-3.77
		C27.15,8.82,29.86,8.82,32.57,8.78z M24.39,8.79c1.26,1.33,2.52,2.65,3.79,3.97c-0.75,0.69-1.5,1.38-2.23,2.08
		c-0.88,0.83-1.75,1.67-2.61,2.51c-1.48-1.4-2.95-2.81-4.42-4.21c0.06-0.06,0.12-0.12,0.18-0.19c1.25-1.36,2.48-2.75,3.66-4.18
		C23.3,8.78,23.84,8.78,24.39,8.79z M19.2,8.71c1.06,0.02,2.12,0.04,3.18,0.06c-1.36,1.13-2.69,2.3-3.99,3.5
		c-0.07,0.06-0.14,0.13-0.21,0.2c-1.37-1.3-2.74-2.61-4.12-3.9C15.78,8.62,17.49,8.67,19.2,8.71z M14.03,8.56
		c1.31,1.37,2.62,2.73,3.94,4.1c-1.55,1.43-3.06,2.91-4.56,4.39c-0.1,0.11-0.21,0.21-0.31,0.32c-1.42-1.37-2.84-2.73-4.27-4.1
		c0.08-0.08,0.17-0.16,0.25-0.24c0.81-0.81,1.58-1.65,2.32-2.52c0.54-0.63,1.04-1.29,1.53-1.98C13.3,8.53,13.67,8.55,14.03,8.56z
		 M5.21,8.13C7.6,8.28,9.99,8.4,12.38,8.5c-0.57,0.42-1.13,0.85-1.66,1.31C9.84,10.55,9,11.32,8.19,12.13
		c-0.09,0.09-0.17,0.18-0.26,0.27c-0.91-0.87-1.82-1.74-2.73-2.6V8.13z M5.21,9.92c0.85,0.89,1.69,1.78,2.55,2.67
		c-0.65,0.67-1.28,1.35-1.89,2.07c-0.23,0.27-0.44,0.54-0.66,0.82V9.92z M5.21,16.44c0.46-0.35,0.91-0.72,1.35-1.09
		c0.7-0.6,1.38-1.22,2.04-1.87c1.37,1.42,2.74,2.85,4.11,4.27c-1.38,1.4-2.75,2.81-4.09,4.27c-0.19,0.2-0.37,0.41-0.55,0.62
		c-0.95-0.91-1.91-1.81-2.87-2.72V16.44z M5.21,20.06C6.1,21,6.98,21.94,7.87,22.87c-0.91,1-1.79,2.01-2.66,3.05V20.06z M5.21,26.33
		c1.11-0.92,2.19-1.87,3.25-2.83c1.35,1.41,2.71,2.82,4.06,4.24l0.23,0.23c-0.56,0.58-1.12,1.16-1.67,1.74
		c-0.98,1.03-1.95,2.08-2.91,3.12c-0.98-0.93-1.97-1.86-2.95-2.79V26.33z M5.21,30.21c0.91,0.96,1.81,1.92,2.72,2.88
		c-0.92,1-1.82,2.02-2.72,3.04V30.21z M5.21,36.4c1.06-0.94,2.13-1.88,3.17-2.84c1.46,1.54,2.92,3.08,4.39,4.61
		c-1.53,1.59-3.04,3.2-4.54,4.82c-1.01-0.94-2.02-1.89-3.03-2.83V36.4z M5.21,40.36c0.92,0.98,1.83,1.96,2.75,2.94
		c-0.92,1-1.83,2-2.75,3V40.36z M5.21,46.5c1.03-0.94,2.07-1.88,3.09-2.84c1.49,1.59,2.99,3.16,4.5,4.74
		c-1.5,1.57-2.99,3.15-4.48,4.74c-1.03-0.96-2.07-1.91-3.11-2.86V46.5z M5.21,50.51c0.92,1.01,1.84,2.01,2.76,3.01
		c-0.92,0.99-1.85,1.97-2.76,2.97V50.51z M5.21,56.56c1-0.93,2-1.86,2.99-2.79c1.51,1.63,3.04,3.24,4.58,4.85
		c-1.47,1.54-2.94,3.08-4.4,4.63c-1.05-0.96-2.11-1.9-3.17-2.84V56.56z M5.21,60.66c0.91,1.02,1.81,2.05,2.73,3.05
		c-0.91,0.97-1.82,1.93-2.73,2.9V60.66z M5.21,66.73c0.99-0.93,1.97-1.86,2.95-2.79c1.04,1.13,2.08,2.25,3.14,3.36
		c0.48,0.51,0.97,1.01,1.46,1.51l-0.07,0.07c-1.4,1.48-2.81,2.94-4.22,4.41c-1.07-0.97-2.15-1.93-3.26-2.86V66.73z M5.21,70.91
		c0.87,1.02,1.76,2.03,2.66,3.03c-0.89,0.93-1.78,1.87-2.66,2.81V70.91z M5.21,76.86c0.96-0.9,1.91-1.8,2.86-2.71
		c0.18,0.2,0.36,0.4,0.54,0.6c1.34,1.46,2.73,2.88,4.12,4.3c-1.37,1.43-2.74,2.86-4.11,4.29c-0.62-0.59-1.26-1.18-1.91-1.74
		c-0.49-0.42-0.98-0.82-1.5-1.21V76.86z M5.21,81.31c0.26,0.33,0.53,0.66,0.8,0.98c0.57,0.66,1.16,1.3,1.76,1.93
		c-0.86,0.89-1.71,1.79-2.56,2.69V81.31z M5.17,89.55c0.01-0.06,0.04-0.12,0.04-0.18v-2.39c0.91-0.86,1.81-1.73,2.72-2.59
		c0.18,0.19,0.36,0.38,0.55,0.57c0.85,0.86,1.74,1.68,2.66,2.47c0.66,0.57,1.36,1.11,2.07,1.62c-0.13,0.14-0.26,0.27-0.39,0.41
		L5.17,89.55z M12.84,89.45c0.14-0.13,0.27-0.26,0.41-0.39c0.18,0.13,0.35,0.26,0.53,0.38L12.84,89.45z M13.92,89.44
		c-0.14-0.21-0.29-0.4-0.43-0.61c1.57-1.49,3.13-2.98,4.69-4.48c0.19,0.17,0.37,0.35,0.56,0.53c1.52,1.4,3.07,2.77,4.67,4.1
		c-0.11,0.12-0.23,0.24-0.34,0.35L13.92,89.44z M23.1,89.33c0.11-0.11,0.23-0.22,0.34-0.33c0.13,0.1,0.25,0.21,0.38,0.32L23.1,89.33
		z M23.92,89.32c-0.12-0.14-0.24-0.28-0.36-0.43c1.62-1.53,3.23-3.07,4.84-4.62c1.7,1.58,3.42,3.15,5.16,4.69
		c-0.08,0.08-0.16,0.17-0.24,0.25l-0.85,0.01L23.92,89.32z M33.94,89.21c-0.09-0.1-0.18-0.2-0.26-0.3c1.64-1.55,3.28-3.12,4.9-4.68
		c0.71,0.66,1.42,1.31,2.13,1.97l-5.63,3L33.94,89.21z M26.26,100.37l-10.11,4.16c-3.38,1.38-6.76,2.74-10.16,4.08l-0.64,0.25
		c-0.21,0.08-0.35,0.13-0.56,0.16c-0.39,0.06-0.81,0.05-1.23-0.02c-0.42-0.07-0.84-0.18-1.23-0.34c-0.38-0.15-0.71-0.37-0.97-0.67
		c-0.52-0.59-0.72-1.46-0.66-2.31c0.05-0.86,0.37-1.65,1-2.21c0.62-0.57,1.43-0.93,2.29-1.24l2.56-0.96l5.14-1.89
		c3.43-1.25,6.88-2.47,10.29-3.78c0.76-0.3,1.58-0.34,2.49-0.36c0.45-0.01,0.93-0.02,1.43-0.08c0.4-0.04,0.83-0.15,1.21-0.29
		c0,0.27,0.01,0.54,0.04,0.8c0.08,0.63,0.23,1.23,0.46,1.81c0.22,0.57,0.52,1.12,0.89,1.64c0.04,0.06,0.09,0.11,0.13,0.16
		C27.84,99.67,27.05,100.04,26.26,100.37z M45.91,90.85l-9.84,4.81l-4.91,2.4c-0.35,0.17-0.71,0.34-1.07,0.52
		c0-0.03,0-0.06-0.01-0.08c-0.08-0.63-0.23-1.23-0.46-1.81c-0.23-0.57-0.52-1.12-0.89-1.64c-0.16-0.21-0.33-0.42-0.52-0.62
		c1.45-0.61,2.84-1.26,4.24-1.93c6.6-3.17,13.08-6.55,19.58-9.86l4.88-2.48l0.25-0.12c0.09,0.56,0.23,1.11,0.43,1.63
		c0.23,0.59,0.53,1.15,0.9,1.69c0.28,0.38,0.59,0.75,0.98,1.09c-1.22,0.56-2.45,1.11-3.67,1.68C52.49,87.67,49.2,89.26,45.91,90.85z
		 M64.67,85.94c-0.32,0.21-0.77,0.43-1.15,0.65l-1.09,0.61c-0.72-0.77-1.45-1.53-2.17-2.29l0.82-0.45l1.2-0.65l0.6-0.32
		c0.22-0.12,0.34-0.19,0.53-0.19c0.17,0,0.35,0.04,0.5,0.15c0.15,0.1,0.24,0.27,0.37,0.48l0.61,0.99
		C65.05,85.28,64.95,85.71,64.67,85.94z M54.88,87.84c-0.33,0.35-0.66,0.7-0.99,1.05c-0.11-0.12-0.21-0.23-0.32-0.35
		C54,88.31,54.44,88.07,54.88,87.84z M52.65,89.04c0.27-0.15,0.55-0.29,0.82-0.44c0.12,0.11,0.25,0.23,0.37,0.34
		c-0.03,0.03-0.06,0.06-0.08,0.09L52.65,89.04z M53.83,89.03c0.02-0.02,0.04-0.04,0.06-0.05c0.02,0.02,0.04,0.04,0.06,0.05
		L53.83,89.03z M54.01,89.02c-0.03-0.03-0.06-0.06-0.09-0.09c0.48-0.45,0.95-0.9,1.43-1.35c0.31-0.17,0.62-0.33,0.92-0.5l3.64-1.99
		c0.78,0.74,1.55,1.47,2.33,2.21l-1.1,0.61l-1.93,1.06L54.01,89.02z M35.19,110.57c-0.38,0.36-0.69,0.76-0.96,1.15
		c-0.54,0.78-0.98,1.52-1.55,2.1c-0.14,0.14-0.29,0.27-0.45,0.39l-0.54,0.42l-1.07,0.84l-2.15,1.67c-1.43,1.11-2.85,2.24-4.3,3.33
		l-4.33,3.29l-2.17,1.63c-0.73,0.54-1.43,1.12-2.19,1.5c-0.76,0.39-1.6,0.55-2.38,0.32c-0.78-0.22-1.55-0.73-2.02-1.37
		c-0.49-0.65-0.58-1.45-0.35-2.26c0.2-0.81,0.59-1.63,1.14-2.14l8.8-6.27c2.95-2.09,5.89-4.2,8.79-6.36l1.09-0.81
		c0.37-0.24,0.71-0.49,1.09-0.73l1.02-0.65c0.04,0.14,0.09,0.28,0.14,0.41c0.23,0.58,0.52,1.11,0.88,1.6
		c0.35,0.49,0.77,0.93,1.25,1.32c0.17,0.14,0.35,0.26,0.54,0.39C35.37,110.42,35.28,110.5,35.19,110.57z M59.56,95.51
		c-6.22,3.7-12.48,7.35-18.63,11.19c-1.49,0.94-2.97,1.87-4.44,2.89c-0.06-0.22-0.12-0.43-0.2-0.63c-0.23-0.58-0.52-1.11-0.88-1.6
		c-0.35-0.49-0.77-0.93-1.25-1.33c-0.08-0.07-0.17-0.13-0.26-0.2l0.01-0.01l4.6-2.86l9.24-5.71c3.07-1.92,6.14-3.84,9.19-5.8
		l4.56-2.97l0.28-0.19c0.06,0.53,0.2,1,0.36,1.45c0.23,0.6,0.53,1.15,0.89,1.66c0.33,0.47,0.72,0.91,1.17,1.3L59.56,95.51z
		 M84.13,88.73l-0.09,0c-0.99,0.01-3.73,0.03-7.02,0.06c0.06-0.11,0.11-0.15,0.21-0.22c0.08-0.05,0.22-0.1,0.39-0.15l0.65-0.18
		c1.8-0.52,3.51-1.13,5.22-1.8c1.67-0.68,3.41-1.33,5.04-2.43c-0.03,0.03-0.06,0.06-0.09,0.1c-1.4,1.5-2.76,3.04-4.07,4.62
		C84.28,88.73,84.2,88.73,84.13,88.73z M84.65,88.73c1.53-1.27,3.02-2.58,4.47-3.92c0.17-0.15,0.33-0.31,0.49-0.46
		c1.52,1.47,3.04,2.94,4.57,4.4C91.01,88.71,87.83,88.71,84.65,88.73z M104.45,88.88c-2.97-0.05-5.95-0.1-8.92-0.14
		c-0.21,0-0.42,0-0.62,0c0.74-0.58,1.46-1.18,2.16-1.8c0.93-0.82,1.82-1.69,2.7-2.56c1.56,1.5,3.12,3,4.69,4.49
		C104.45,88.87,104.45,88.88,104.45,88.88z M109.85,84.84c0.28,0.26,0.55,0.52,0.83,0.78c1.24,1.13,2.51,2.23,3.82,3.29
		c-0.05,0.07-0.1,0.14-0.15,0.21l-3.06-0.09c-2.12-0.06-4.25-0.1-6.37-0.14c0.77-0.54,1.51-1.1,2.23-1.68
		C108.08,86.45,108.97,85.65,109.85,84.84z M106.21,81.34c0.9,0.89,1.81,1.77,2.73,2.64c-0.84,0.81-1.68,1.64-2.47,2.5
		c-0.69,0.75-1.35,1.53-1.98,2.34c-1.49-1.57-2.98-3.14-4.48-4.7c0.06-0.06,0.12-0.12,0.18-0.18c1-1.04,2-2.09,2.94-3.18
		c0.39-0.46,0.78-0.92,1.16-1.39C104.92,80.04,105.56,80.69,106.21,81.34z M99.38,74.57c0.09-0.1,0.18-0.2,0.27-0.3
		c0.75,0.88,1.51,1.75,2.29,2.6c0.62,0.68,1.25,1.35,1.89,2.02c-0.47,0.39-0.93,0.79-1.39,1.19c-1.08,0.96-2.12,1.97-3.14,2.99
		c-0.05,0.05-0.1,0.11-0.15,0.16c-1.27-1.33-2.55-2.65-3.82-3.98l-0.22-0.23C96.55,77.55,97.98,76.08,99.38,74.57z M94.35,79.78
		c0.11-0.11,0.21-0.22,0.32-0.32l0.23,0.22c1.33,1.28,2.65,2.56,3.98,3.83c-0.86,0.89-1.71,1.79-2.51,2.73
		c-0.69,0.8-1.36,1.63-1.99,2.49c-0.03,0-0.06,0-0.09,0c-1.46-1.55-2.93-3.1-4.4-4.64C91.39,82.68,92.88,81.24,94.35,79.78z
		 M93.77,78.59c-0.1,0.1-0.21,0.2-0.31,0.31c-0.81,0.82-1.61,1.66-2.41,2.49c0.42-0.66,0.8-1.35,1.09-2.08
		c0.23-0.58,0.4-1.19,0.54-1.79L93.77,78.59z M88.67,73.6c-0.37,0.36-0.74,0.73-1.12,1.09l-4.85,1.95l-2.73-2.82
		c0.39-0.39,0.78-0.78,1.18-1.17c1.26-0.9,2.52-1.8,3.78-2.71L88.67,73.6z M73.14,78.32l0.55,0.57l-0.64,0.82l-0.21-0.42
		c-0.08-0.18-0.09-0.37-0.03-0.55C72.86,78.56,72.97,78.43,73.14,78.32z M74.29,79.39l0.53,0.51l-0.74,0.31
		c-0.19,0.09-0.41,0.07-0.61-0.02C73.75,79.92,74.02,79.65,74.29,79.39z M73.72,77.91l1.73-1.23c-0.49,0.5-0.98,0.99-1.46,1.49
		L73.72,77.91z M75.44,79.64l-0.69-0.69c1.56-1.52,3.12-3.04,4.66-4.57L82,76.93l-4.35,1.79L75.44,79.64z M79.6,72.54l-4.13,3.36
		l-2.05,1.7l-0.51,0.43c-0.19,0.14-0.37,0.39-0.42,0.64c-0.06,0.26-0.02,0.53,0.11,0.75l0.34,0.58c0,0,0,0,0,0c0,0,0,0,0,0
		c0.21,0.44,0.76,0.7,1.25,0.53l1.23-0.39l2.44-0.81l4.89-1.62l8.68-2.97c-0.09,1.36-0.37,2.69-0.9,3.91
		c-0.34,0.77-0.75,1.5-1.26,2.15c-0.47,0.65-1.06,1.14-1.77,1.59c-1.39,0.89-3.07,1.48-4.75,2.1c-1.68,0.59-3.39,1.18-5.07,1.63
		l-0.66,0.17c-0.27,0.07-0.56,0.17-0.87,0.34c-0.31,0.17-0.63,0.43-0.86,0.74c-0.23,0.31-0.38,0.62-0.48,0.91l-0.21,0.66
		c-0.05,0.18-0.14,0.33-0.2,0.5c-0.17,0.3-0.34,0.61-0.57,0.83c-0.44,0.47-1.01,0.73-1.67,0.8c-0.66,0.08-1.39-0.08-2.1-0.36
		l-0.21-0.08c-0.1-0.03-0.19-0.06-0.28-0.08c-0.18-0.04-0.35-0.06-0.52-0.08c-0.33-0.02-0.66,0-1,0.08
		c-0.17,0.04-0.36,0.1-0.55,0.19c-0.1,0.05-0.2,0.1-0.31,0.17l-0.14,0.09l-0.53,0.34l-0.83,0.5c-0.23-0.6-0.53-1.15-0.89-1.66
		c-0.36-0.51-0.78-0.98-1.27-1.39c-0.36-0.3-0.75-0.58-1.22-0.81L63.77,87c0.38-0.27,0.73-0.47,1.14-0.81
		c0.3-0.3,0.39-0.74,0.29-1.12c0.01-0.03,0.01-0.06,0-0.09l-0.6-1.24c-0.09-0.19-0.2-0.45-0.41-0.64c-0.21-0.18-0.48-0.3-0.76-0.31
		c-0.28-0.03-0.59,0.11-0.77,0.19l-0.63,0.28l-1.25,0.56c-0.24,0.11-0.47,0.22-0.71,0.33c0.06-0.5,0.04-0.97-0.01-1.43
		c-0.08-0.65-0.24-1.26-0.47-1.85c-0.22-0.57-0.51-1.11-0.87-1.63l0.62-0.31l0.6-0.29l0.29-0.13l0.14-0.06
		c0.08-0.04,0.22-0.1,0.3-0.16c0.38-0.24,0.6-0.49,0.81-0.76c0.2-0.27,0.37-0.55,0.49-0.9c0.03-0.09,0.06-0.18,0.09-0.28l0.05-0.23
		l0.06-0.28c0.03-0.19,0.1-0.36,0.15-0.55c0.13-0.34,0.27-0.68,0.47-0.96c0.38-0.57,0.9-0.96,1.51-1.13
		c0.61-0.19,1.34-0.12,2.06,0.09c0.27,0.08,0.58,0.16,0.93,0.18c0.35,0.02,0.76-0.03,1.13-0.16c0.72-0.27,1.17-0.78,1.46-1.04
		c1.28-1.2,2.71-2.34,4.11-3.46c1.43-1.11,2.84-2.24,4.34-2.96c0.76-0.36,1.51-0.62,2.29-0.69c0.81-0.08,1.65-0.03,2.48,0.13
		c1.3,0.24,2.56,0.75,3.81,1.34C84.5,68.63,82.05,70.58,79.6,72.54z M88.9,63.28c-0.58,0.56-1.16,1.12-1.74,1.68
		c-1.16-0.58-2.39-1.08-3.71-1.38c-0.96-0.21-1.96-0.32-2.97-0.25c-0.06,0-0.11,0.01-0.17,0.02c0.88-0.89,1.77-1.78,2.64-2.68
		c0.5-0.51,0.99-1.03,1.48-1.54C85.92,60.52,87.41,61.9,88.9,63.28z M89.12,53.33c-1.67,1.5-3.31,3.03-4.94,4.58
		c-1.38-1.46-2.79-2.91-4.19-4.36c1.34-1.33,2.68-2.66,4.02-3.99c0.17-0.17,0.34-0.34,0.5-0.51C86.04,50.5,87.58,51.92,89.12,53.33z
		 M84.08,47.72c-1.36-1.44-2.73-2.87-4.11-4.3c1.49-1.5,2.97-2.99,4.45-4.49c1.46,1.37,2.93,2.72,4.41,4.07
		C87.25,44.58,85.67,46.15,84.08,47.72z M89.02,42.82c-1.34-1.48-2.7-2.95-4.07-4.41c1.57-1.58,3.13-3.17,4.69-4.75
		c1.48,1.38,2.98,2.75,4.49,4.1C92.43,39.44,90.73,41.12,89.02,42.82z M94.48,37.41c-1.38-1.49-2.77-2.96-4.19-4.41
		c1.33-1.35,2.67-2.69,3.99-4.04c0.64,0.62,1.27,1.24,1.91,1.85c0.84,0.81,1.69,1.6,2.55,2.39C97.32,34.61,95.89,36,94.48,37.41z
		 M103.51,28.49c-1.42,1.39-2.83,2.8-4.25,4.19c-0.79-0.86-1.57-1.72-2.37-2.57c-0.61-0.65-1.23-1.29-1.85-1.94l4.3-4.41
		c1.47,1.5,2.95,2.99,4.42,4.47L103.51,28.49z M100.18,22.92l4.17-4.27c0.01-0.01,0.02-0.02,0.02-0.02
		c0.42,0.42,0.83,0.84,1.24,1.26c1.11,1.1,2.24,2.19,3.37,3.28l-4.31,4.2C103.18,25.88,101.68,24.39,100.18,22.92z M105.33,28.02
		l4.22-4.32c0.68,0.65,1.35,1.29,2.04,1.93c0.81,0.76,1.64,1.5,2.47,2.25c-0.58,0.61-1.16,1.22-1.72,1.85
		c-0.85,0.93-1.67,1.9-2.47,2.88C108.36,31.07,106.84,29.54,105.33,28.02z M122.79,46.26c-0.58-0.63-1.16-1.27-1.74-1.9
		c0.16-0.22,0.32-0.44,0.48-0.67c0.45-0.67,0.86-1.37,1.23-2.09c0.01-0.02,0.02-0.04,0.03-0.06V46.26z M122.79,40.13
		c-0.3,0.3-0.58,0.61-0.84,0.92c-0.53,0.62-1.02,1.26-1.47,1.93c-0.1,0.14-0.19,0.29-0.28,0.44c-1.28-1.38-2.57-2.75-3.87-4.11
		c0.7-1.17,1.43-2.31,2.23-3.4c0.88-1.23,1.82-2.42,2.76-3.62c0.48-0.6,0.98-1.2,1.46-1.8V40.13z M122.79,29.72
		c-0.77,0.59-1.5,1.24-2.19,1.92c-1.11,1.09-2.12,2.28-3.06,3.54c-0.46,0.64-0.88,1.31-1.28,1.98c-0.24,0.45-0.47,0.9-0.7,1.35
		c-0.34-0.35-0.67-0.71-1.01-1.06c-1.47-1.53-2.95-3.06-4.44-4.57c0.99-0.79,1.96-1.61,2.9-2.45c0.65-0.58,1.28-1.16,1.91-1.76
		c0.94,0.83,1.9,1.66,2.87,2.46c-0.8-0.97-1.63-1.91-2.47-2.85c0.54-0.52,1.08-1.04,1.61-1.56c0.97-0.98,1.93-1.97,2.87-2.98
		c0.97,0.88,1.96,1.73,2.96,2.57V29.72z M122.79,25.87c-0.78-0.93-1.58-1.85-2.4-2.75c0.1-0.11,0.2-0.21,0.3-0.32
		c0.72-0.79,1.42-1.6,2.1-2.43V25.87z M122.79,19.74c-0.95,0.77-1.89,1.55-2.79,2.37c-0.1,0.08-0.19,0.17-0.28,0.26
		c-0.1-0.11-0.2-0.23-0.31-0.34c-1.33-1.45-2.7-2.86-4.09-4.27c1.37-1.43,2.74-2.85,4.11-4.27c0.66,0.64,1.34,1.27,2.04,1.87
		c0.43,0.36,0.86,0.72,1.31,1.06V19.74z M122.79,15.42c-0.21-0.26-0.41-0.52-0.62-0.77c-0.61-0.71-1.24-1.4-1.89-2.07
		c0.84-0.87,1.67-1.75,2.51-2.63V15.42z M122.79,9.84c-0.9,0.85-1.79,1.71-2.69,2.56c-0.09-0.09-0.17-0.18-0.26-0.27
		c-0.81-0.81-1.65-1.58-2.52-2.32c-0.55-0.46-1.11-0.91-1.7-1.33c2.39-0.1,4.78-0.22,7.16-0.36V9.84z M126.11,88.73h-1.43V1.89h1.43
		V88.73z"/>
	<path class="st0" d="M67.53,79.4c-0.65,0.36-1.13,0.96-1.34,1.68c-0.21,0.72-0.13,1.48,0.23,2.14c0.55,1,1.61,1.54,2.67,1.45
		c0.38-0.03,0.77-0.14,1.13-0.34c0.65-0.36,1.13-0.96,1.34-1.68c0.21-0.72,0.13-1.48-0.23-2.14C70.58,79.16,68.88,78.65,67.53,79.4z
		 M70.19,82.25c-0.1,0.35-0.33,0.64-0.65,0.82c-0.66,0.37-1.49,0.12-1.85-0.54c-0.18-0.32-0.22-0.69-0.11-1.05
		c0.1-0.35,0.33-0.64,0.65-0.82c0.18-0.1,0.36-0.15,0.55-0.16c0.52-0.04,1.04,0.22,1.3,0.71C70.25,81.53,70.29,81.9,70.19,82.25z"/>
</g>
</svg>
