<?xml version="1.0" encoding="utf-8"?>
<!-- Generator: Adobe Illustrator 24.1.2, SVG Export Plug-In . SVG Version: 6.00 Build 0)  -->
<svg version="1.1" id="Layer_1" xmlns="http://www.w3.org/2000/svg" xmlns:xlink="http://www.w3.org/1999/xlink" x="0px" y="0px"
	 viewBox="0 0 128 128" style="enable-background:new 0 0 128 128;" xml:space="preserve">
<style type="text/css">
	.st0{fill:#2D2D2D;}
</style>
<g>
	<path class="st0" d="M126.1,14.7c-1.3-3-3.1-5.7-5.5-8c-4.6-4.6-11.1-7-17.4-6.8c-6.3,0.2-12.4,2.9-16.9,7.3
		c-2.2,2.2-4.1,4.8-5.4,7.7c-1.3,2.9-2.1,6.1-2.2,9.3c-0.1,3.2,0.5,6.5,1.8,9.4c1.2,3,3.2,5.6,5.5,7.8c4.7,4.3,11,6.5,17.2,6.5
		c6.2,0,12.4-2.2,17.2-6.5c2.4-2.1,4.3-4.8,5.6-7.8c1.3-3,2-6.2,2-9.5C128,21,127.4,17.7,126.1,14.7z M119.3,40.3
		c-2,2.2-4.4,4.1-7.2,5.4c-2.7,1.3-5.8,1.9-8.9,2c-3.1,0-6.1-0.7-8.9-2c-2.8-1.3-5.2-3.1-7.2-5.3c-4-4.5-6.3-10.2-6.4-16.1
		c-0.2-5.9,1.9-12,6.2-16.4c2.1-2.2,4.7-3.9,7.5-5c2.8-1.1,5.9-1.6,8.8-1.5c6,0.2,11.8,2.8,15.9,7c4.1,4.2,6.4,10,6.4,15.9
		C125.6,30.1,123.3,35.9,119.3,40.3z"/>
	<path class="st0" d="M116.6,12.2l-1.1-1l-0.3-0.3l-0.1-0.1c-0.1-0.1-0.2-0.1-0.3-0.1c-0.2-0.1-0.4,0-0.6,0.1
		c-0.1,0.1-0.1,0.1-0.2,0.2l-0.1,0.1c-1.3,1.5-2.7,3-4.1,4.4c-1.4,1.5-2.7,3-4,4.5c-1.3,1.6-2.5,3.1-3.7,4.8l-1.7,2.4l-0.3,0.5
		l-0.6-0.7c-1.4-1.4-2.8-2.8-4.2-4.3c-0.7-0.8-1.4-1.5-2-2.2l-1-1.1l-0.1-0.2c-0.1-0.1-0.2-0.2-0.3-0.2c-0.2-0.1-0.5-0.1-0.7,0.1
		c-0.1,0.1-0.1,0.1-0.2,0.2l-0.1,0.1l-0.3,0.3c-0.8,0.7-1.5,1.3-2.3,1.9l-0.6,0.5l-0.3,0.2l-0.1,0.1c0,0-0.2,0.2-0.2,0.3
		c-0.1,0.3-0.2,0.6-0.1,0.9c0,0.1,0.1,0.1,0.1,0.2c0,0.1,0.1,0.1,0.1,0.1l0.1,0.1l0.5,0.6c2.5,3.1,5.1,6.2,7.8,9.2l2,2.3l1,1.1
		l0.5,0.6l0.2,0.3l0.1,0.1c0.1,0.1,0.2,0.2,0.3,0.2c0.2,0.1,0.4,0.3,0.7,0.3c0.5,0.1,1-0.1,1.4-0.4c0,0,0.1-0.1,0.1-0.1l0.1-0.1
		l0.2-0.2l0.5-0.6l0.9-1.2l1.9-2.3c2.5-3.1,4.9-6.3,7.1-9.7c1.1-1.7,2.2-3.3,3.4-5c0.6-0.8,1.2-1.6,1.8-2.4l0.9-1.2l0.5-0.6
		c0.1-0.1,0.2-0.3,0.2-0.4c0-0.2-0.1-0.3-0.2-0.4C118.1,13.5,117.4,12.9,116.6,12.2z M118.8,14.8l-0.5,0.6l-1,1.1
		c-0.7,0.8-1.3,1.5-2,2.3c-1.3,1.5-2.7,2.9-4.1,4.4c-2.8,2.9-5.3,6-7.9,9.1l-1.9,2.3l-0.9,1.2l-0.1,0.1l-0.2-0.2l-1-1.1l-2.1-2.2
		c-2.7-2.9-5.6-5.7-8.5-8.5l-0.5-0.5l-0.1-0.1l0.9-0.8c0.7-0.7,1.4-1.4,2.2-2.1l0.5-0.5c0,0,0,0,0,0c0,0,0,0,0,0l0.1,0.1l1,1.1
		c0.7,0.7,1.3,1.5,2,2.3c1.3,1.5,2.6,3.1,3.8,4.6l0.5,0.6l0.2,0.3l0.1,0.2l0,0l0.1,0.1c0.1,0.1,0.1,0.1,0.2,0.2
		c0.3,0.2,0.7,0.2,1,0.1c0.2-0.1,0.3-0.2,0.4-0.3l0.2-0.2l0.5-0.6l2-2.3c1.3-1.5,2.5-3.1,3.8-4.7c1.2-1.6,2.4-3.2,3.5-4.9
		c1.1-1.7,2.2-3.3,3.4-5l0.2-0.3c0,0,0.1-0.1,0.1-0.1c0,0,0.1,0,0.1,0l0.1,0.1l0.3,0.2l1.2,0.9c0.8,0.6,1.6,1.2,2.4,1.8
		C118.9,14.4,118.9,14.6,118.8,14.8z"/>
	<path class="st0" d="M20.1,62.4c0.4,1.3,0.9,2.7,1.8,3.9c0.5,0.6,1,1.1,1.6,1.5c0.6,0.4,1.2,0.8,1.9,1c0.7,0.2,1.4,0.4,2.1,0.4
		c0.4,0.1,0.7,0,1,0c0.2,0,0.3,0,0.4,0c0.1,0,0.3,0,0.4,0.1c1.1,0.3,2.2,1,3.2,1.8c0,0,0,0,0,0.1c0,0,0,0,0,0c0,0,0,0,0.1,0
		c0,0,0,0,0-0.1c1-0.8,2.1-1.5,3.2-1.8c0.1,0,0.3-0.1,0.4-0.1c0.1,0,0.3,0,0.4,0c0.3,0,0.7,0,1,0c0.7-0.1,1.4-0.2,2.1-0.4
		c0.7-0.2,1.3-0.6,1.9-1c0.6-0.4,1.1-0.9,1.6-1.5c0.9-1.2,1.5-2.5,1.8-3.9c0.1-0.3,0.2-0.8,0.2-1.2c0-0.4,0-0.8,0-1.1
		c0-0.7-0.2-1.4-0.3-2.1c-0.3-1.4-0.6-2.6-1-3.9l-1.2-3.7c-0.1-0.3-0.1-0.4-0.1-0.5c0-0.1,0.1-0.3,0.2-0.6c0.2-0.4,0.6-0.9,0.9-1.3
		l0.7-0.8l-0.7-0.6c-1-0.9-2-1.8-3-2.6l-0.6-0.5L39.7,44c-0.4,0.4-0.9,0.7-1.4,0.9c-0.6,0.2-1.2,0.3-1.8,0.3c-1.3,0-2.6-0.3-3.9-0.8
		c0,0,0,0,0,0c0,0,0,0,0,0c-1.3,0.4-2.6,0.7-3.9,0.8c-0.6,0-1.3-0.1-1.8-0.3c-0.6-0.2-1-0.5-1.4-0.9l-0.5-0.5L24.5,44
		c-1,0.9-2,1.7-3,2.6l-0.7,0.6l0.7,0.8c0.4,0.4,0.7,0.9,0.9,1.3c0.1,0.2,0.2,0.4,0.2,0.6c0,0.1,0,0.2-0.1,0.5l-1.2,3.7
		c-0.4,1.3-0.8,2.5-1,3.9c-0.1,0.7-0.2,1.4-0.3,2.1c0,0.3,0,0.7,0,1.1C20,61.6,20,62.1,20.1,62.4z M22.5,58.5c0.3-1.2,0.6-2.4,1-3.7
		c0.4-1.2,0.8-2.4,1.1-3.8c0.1-0.3,0.2-0.8,0.1-1.4c-0.1-0.5-0.3-0.9-0.5-1.3c-0.2-0.4-0.5-0.7-0.8-1.1c0.5-0.6,1.1-1.2,1.6-1.8
		c0.5,0.3,1,0.5,1.5,0.6c0.8,0.2,1.5,0.1,2.2,0c1.4-0.3,2.7-0.9,3.8-1.6c1.1,0.8,2.4,1.4,3.8,1.6c0.7,0.1,1.5,0.2,2.2,0
		c0.5-0.1,1-0.3,1.5-0.6c0.5,0.6,1.1,1.2,1.6,1.8c-0.3,0.3-0.5,0.7-0.8,1.1c-0.2,0.4-0.4,0.8-0.5,1.3c-0.1,0.5,0.1,1.1,0.1,1.4
		c0.3,1.4,0.8,2.6,1.1,3.8c0.4,1.2,0.7,2.5,1,3.7c0.2,1.2,0.4,2.4,0.2,3.4c-0.5,2.4-1.6,4.5-3.8,5.6c-0.5,0.3-1.1,0.5-1.7,0.6
		c-0.3,0.1-0.6,0.1-0.9,0.2c-0.1,0-0.3,0.1-0.5,0.1c-0.2,0.1-0.4,0.1-0.5,0.2c-1.3,0.6-2.2,1.6-3,2.6c-0.8-1-1.6-2-2.9-2.6
		c-0.2-0.1-0.3-0.1-0.5-0.2c-0.2-0.1-0.4-0.1-0.5-0.1c-0.3-0.1-0.6-0.1-0.9-0.2c-0.6-0.2-1.2-0.4-1.7-0.6c-2.2-1.1-3.3-3.2-3.8-5.6
		C22.1,61,22.2,59.7,22.5,58.5z"/>
	<path class="st0" d="M29,58.6l-0.6,3.8l-0.2,1.5l1.3-0.8l3.5-2.1l3.6,1.7l0.4,0.2l0-0.4l-0.5-4l3-2.7l1.2-1.1L39,54.7l-4.1-0.3
		c-0.7-1.3-1.5-2.4-2.1-3.5c-0.6,1.1-1.4,2.2-2.1,3.5l-4.1,0.3l-1.7,0.1l1.3,1.2L29,58.6z M31,55.2l0.3-0.1l0.1-0.2
		c0.5-1.2,0.9-2.5,1.5-3.9c0.6,1.4,1,2.7,1.5,3.9l0.1,0.2l0.2,0.1l2.9,0.6l-2,2.2l-0.2,0.2l0,0.2l0.8,3.6L33,60.1L32.9,60l-0.2,0.1
		L30,61.3l0.5-2.9l0.1-0.4l-0.3-0.3l-2-2L31,55.2z"/>
	<path class="st0" d="M12,81.4h38.6c0.6,0,1.2-0.5,1.2-1.2s-0.5-1.2-1.2-1.2H12c-0.6,0-1.2,0.5-1.2,1.2S11.3,81.4,12,81.4z"/>
	<path class="st0" d="M42.3,98.3H12c-0.6,0-1.2,0.5-1.2,1.2c0,0.7,0.5,1.2,1.2,1.2h30.3c0.6,0,1.2-0.5,1.2-1.2
		C43.5,98.8,43,98.3,42.3,98.3z"/>
	<path class="st0" d="M51.8,89.9c0-0.7-0.5-1.2-1.2-1.2H12c-0.6,0-1.2,0.5-1.2,1.2c0,0.6,0.5,1.2,1.2,1.2h38.6
		C51.2,91,51.8,90.5,51.8,89.9z"/>
	<path class="st0" d="M87,70.4c-4.5-2.6-9.1-5.2-13.8-7.7l-0.9-0.5l-0.5,0.9c-2.2,4-4.3,8-6.3,12.1l-0.6,1.1
		c0.3-2.8,0.5-5.5,0.6-8.3c0.2-3.9,0.1-7.8,0-11.7c0-2-0.1-3.9-0.3-5.9c-0.1-1.9-0.3-3.9-0.4-5.9c-0.1-2-0.1-3.9,0.1-5.9
		c0.1-1.9,0.4-3.9,0.5-5.9l0.1-0.9l-1-0.1c-1.4-0.1-2.8-0.1-4.2-0.1c-1.4,0-2.8,0.1-4.2,0.1c-1.4,0.1-2.8,0.1-4.2,0.3
		c-1.3,0.1-2.7,0.3-4,0.5l0.1-0.7c0-0.4,0.1-0.7,0.1-1.2c0-0.9-0.3-1.8-0.8-2.6c-0.5-0.8-1.3-1.4-2.3-1.7c-0.2-0.1-0.5-0.1-0.7-0.2
		c-0.2,0-0.5-0.1-0.7-0.1l-1.2-0.1c-1.6-0.1-3.1-0.1-4.6-0.1c-3.1,0-6.2,0.1-9.3,0.1c-1.5,0-3.1,0.1-4.6,0.2l-1.1,0.1l-0.6,0
		c-0.2,0-0.5,0-0.7,0.1c-0.9,0.2-1.8,0.6-2.4,1.3c-0.6,0.6-1,1.5-1.2,2.4c-0.1,0.4-0.1,0.9,0,1.3l0,1.2c-1.4-0.1-2.7-0.2-4.1-0.2
		l-4.2-0.2L1.3,32l-0.8,0l0,0.9c-0.2,7-0.3,14.1-0.4,21.1c0,3.5,0,7,0,10.6L0.2,75c0.1,7,0.3,14.1,0.5,21.1c0.2,7,0.3,14.1,0.2,21.1
		l0,0.4l0.4,0c4.7,0.1,9.4,0.3,14.1,0.5c4.7,0.2,9.4,0.2,14.1,0.1c4.7,0,9.4-0.1,14.1-0.3c4.1-0.1,8.2-0.3,12.2-0.6l4.4,2.5l6.8,3.7
		l6.8,3.7l1.1,0.6l0.6-1.1c1.1-2,2.2-4.1,3.3-6.1c1.1-2,2.2-4.1,3.2-6.1l3.2-6.2l3.1-6.1c2.1-4.1,4.1-8.2,6-12.2c2-4,3.9-8.1,5.8-12
		l-6.5-3.9C91.5,73,89.3,71.7,87,70.4z M18.6,32.7c0-0.8,0-1.6,0.2-2.2c0.2-0.6,0.6-1.2,1.1-1.6c0.5-0.4,1.1-0.6,1.7-0.6
		c0.2,0,0.3,0,0.5,0l0.6,0l1.1,0.1c1.6,0.1,3.1,0.1,4.6,0.2c3.1,0.1,6.2,0.2,9.3,0.1c1.5-0.1,3.1,0,4.6-0.1l1.2-0.1l0.5,0
		c0.1,0,0.3,0,0.4,0c0.6,0.1,1.1,0.3,1.6,0.8c0.4,0.4,0.8,1,0.9,1.7c0.1,0.7,0.2,1.5,0.2,2.3c0.1,0.8,0.1,1.5,0.1,2.3l0,0.6
		c0,0.2,0,0.4,0,0.5c-0.1,0.3-0.4,0.6-0.7,0.6c-3.1,0-6.2-0.3-9.3-0.6c-1.6-0.1-3.1-0.3-4.6-0.3c-1.5,0-3.1,0-4.6,0.1
		c-1.6,0.1-3.1,0.2-4.6,0.3L21,36.8l-1.2,0.1l-0.6,0l-0.1,0h-0.1c-0.1,0-0.1,0-0.2-0.1c-0.1-0.1-0.2-0.1-0.2-0.2c0-0.1,0-0.1,0-0.2
		c0,0,0-0.1,0-0.1v-0.1c0-0.4,0-0.8,0-1.2C18.6,34.2,18.6,33.5,18.6,32.7z M43.6,116.5c-4.7-0.1-9.4-0.2-14.1-0.3
		c-4.7-0.1-9.4,0-14.1,0.2c-4.6,0.1-9.1,0.3-13.7,0.4c-0.1-6.9,0-13.8,0.2-20.7c0.2-7,0.4-14.1,0.5-21.1l0.1-10.6c0-3.5,0-7,0-10.6
		c0-6.8-0.2-13.5-0.4-20.3l7.5-0.3l4.2-0.2c1.4-0.1,2.7-0.1,4.1-0.2c0,0.7,0,1.4,0,2.1c0,0.4,0,0.8,0,1.2v0.1c0,0.1,0,0.1,0,0.2
		c0,0.1,0.1,0.3,0.1,0.4c0.1,0.2,0.3,0.4,0.6,0.6c0.1,0.1,0.3,0.1,0.4,0.1c0.1,0,0.1,0,0.2,0h0.1l0.6,0l1.2,0.1l2.3,0.2
		c1.5,0.1,3.1,0.3,4.6,0.3c1.5,0.1,3.1,0.1,4.6,0.1c1.6,0,3.1-0.2,4.6-0.3c3.1-0.3,6.2-0.7,9.3-0.6c0.4,0,0.9-0.3,1-0.7
		c0.1-0.2,0.1-0.4,0.1-0.6l0-0.6c0-0.8,0.1-1.5,0.1-2.3l0-0.2c1.4,0.2,2.7,0.4,4,0.5c1.4,0.1,2.8,0.2,4.2,0.3
		c1.4,0.1,2.8,0.1,4.2,0.1c1.1,0,2.2,0,3.3,0c0.1,1.6,0.3,3.2,0.4,4.8c0.1,2,0.2,3.9,0.1,5.9c-0.1,1.9-0.2,3.9-0.4,5.9
		c-0.2,2-0.2,3.9-0.3,5.9c-0.1,3.9-0.2,7.8,0,11.7c0.2,3.4,0.4,6.7,0.8,10.1l-4.6,9.3c-2,4.1-4.1,8.1-6.3,12.1
		c-2.1,4-4.4,8-6.6,11.9l-0.3,0.5l0.6,0.3l6.7,3.9L55,117C51.2,116.8,47.4,116.6,43.6,116.5z M93,90.3c-2.3,4-4.6,7.9-6.8,11.9
		l-3.3,5.9l-3.2,5.9c-1.1,2-2.1,3.9-3.2,5.9c-0.9,1.6-1.7,3.2-2.6,4.9l-5.8-3l-6.9-3.6l-6.9-3.5l-6.4-3.2c1.9-3.9,3.9-7.8,5.9-11.6
		c2.1-4,4.3-8,6.5-12L67.1,76c2.1-3.7,4.1-7.4,6-11.1c4.2,2.2,8.3,4.3,12.6,6.4c2.3,1.1,4.6,2.3,7,3.4l7.2,3.4L93,90.3z"/>
	<path class="st0" d="M89.5,84.4c-0.2-0.3-0.5-0.5-0.7-0.8c-0.4-0.6-0.7-1.2-0.8-1.8c-0.3-1.3-0.1-2.6,0.6-3.7l0.3-0.6l-0.6-0.4
		c-2.7-1.6-5.4-3.2-8.2-4.7L79.3,72l-0.5,0.9c-0.6,1-1.5,1.8-2.6,2.1c-1.1,0.3-2.3,0.2-3.3-0.3l-0.9-0.5l-0.5,0.9
		c-1.3,2.4-2.5,4.9-3.6,7.4c-1.2,2.5-2.3,5-3.6,7.5c-1.2,2.5-2.5,4.9-3.8,7.3c-1.3,2.4-2.7,4.8-4.1,7.2L56,105l0.6,0.3
		c1.1,0.6,1.9,1.7,2.1,2.9c0.3,1.2,0.1,2.4-0.5,3.5l-0.5,0.8l0.9,0.5c1.4,0.8,2.7,1.6,4.1,2.3l4.1,2.3l1,0.6l0.6-1
		c0.5-1,1.5-1.7,2.5-2c1.1-0.3,2.2-0.2,3.2,0.3l1.1,0.6l0.6-1.1c1.4-2.5,2.6-5,3.9-7.5c1.3-2.5,2.5-5,3.7-7.6c1.2-2.5,2.4-5,3.5-7.4
		c0.6-1.2,1.2-2.4,1.7-3.7l1.7-3.6c-0.1-0.1-0.3-0.3-0.5-0.4L89.5,84.4z M88,88.9c-0.7,1.2-1.5,2.4-2.2,3.6
		c-1.4,2.4-2.9,4.8-4.2,7.1c-1.4,2.3-2.7,4.7-4,7c-1.1,2-2.2,4-3.3,6c-1.3-0.4-2.7-0.4-3.9,0c-1.3,0.4-2.4,1.2-3.3,2.3l-3.3-1.7
		c-1.1-0.6-2.3-1.2-3.5-1.8c0.4-1.3,0.4-2.7,0-3.9c-0.5-1.3-1.4-2.5-2.6-3.2c1.1-2.3,2.2-4.6,3.4-6.8c1.3-2.5,2.5-4.9,3.9-7.3
		c1.4-2.4,2.8-4.7,4.2-7.1c1.2-2.1,2.5-4.2,3.7-6.3c1.3,0.5,2.7,0.5,4,0.1c1.3-0.4,2.5-1.3,3.3-2.3c2.4,1.2,4.7,2.4,7.1,3.5
		c-0.4,1.3-0.4,2.7,0.1,3.9c0.3,0.7,0.7,1.4,1.2,1.9c0.3,0.3,0.5,0.5,0.8,0.7l0.5,0.3l0.4,0.2L88,88.9z"/>
	<path class="st0" d="M76,90.5c-1.3-0.6-2.6-1.3-4.3-1.4c-0.8,0-1.7,0.1-2.5,0.6c-0.8,0.4-1.5,1.1-1.9,1.9c-0.4,0.8-0.7,1.8-0.6,2.6
		c0,0.9,0.3,1.8,0.7,2.5c0.4,0.8,0.9,1.4,1.5,1.9c0.6,0.5,1.3,0.9,2.1,1.2c1.5,0.5,3,0.7,4.5,0.5c0.7-0.1,1.5-0.3,2.3-0.6
		c0.7-0.3,1.5-0.9,1.9-1.6c0.5-0.7,0.7-1.6,0.7-2.5c0-0.9-0.4-1.7-0.8-2.4C78.5,92,77.2,91.2,76,90.5z M77.9,97.3
		c-0.2,0.5-0.5,1-0.9,1.5c-0.4,0.4-1,0.8-1.7,0.9c-1.3,0.3-2.7-0.1-3.7-0.9c-1-0.8-1.8-1.8-2.2-2.9c-0.4-1.1-0.3-2.2,0.1-3.1
		c0.4-0.9,1.3-1.6,2.4-2.1c1.1-0.6,2.7-0.6,3.9,0.1c1.3,0.6,2.1,2,2.3,3.2C78.3,95.2,78.3,96.2,77.9,97.3z"/>
</g>
</svg>
