<?xml version="1.0" encoding="utf-8"?>
<!-- Generator: Adobe Illustrator 18.1.0, SVG Export Plug-In . SVG Version: 6.00 Build 0)  -->
<svg version="1.1" baseProfile="tiny" id="Layer_1" xmlns="http://www.w3.org/2000/svg" xmlns:xlink="http://www.w3.org/1999/xlink"
	 x="0px" y="0px" viewBox="0 0 128 128" xml:space="preserve">
<g>
	<path fill="#2D2D2D" d="M115.8,36.8c-1.1-0.6-2.2-0.9-3.3-0.9c-1.5,0-2.7,0.6-3.3,1.7c-0.5,1-0.5,2.2,0.2,3.3c0.6,1,1.5,2,2.7,2.6
		c1.1,0.6,2.2,0.9,3.3,0.9c1.5,0,2.7-0.6,3.3-1.7c0.5-1,0.5-2.2-0.2-3.3C118,38.3,117,37.4,115.8,36.8z M117,41.7
		c-0.4,0.8-2.3,0.8-3.9,0c-0.9-0.5-1.6-1.1-1.9-1.8c-0.2-0.3-0.4-0.9-0.2-1.4c0.2-0.4,0.8-0.6,1.6-0.6c0.7,0,1.6,0.2,2.3,0.6
		c0.9,0.5,1.6,1.1,1.9,1.8C117,40.6,117.3,41.2,117,41.7z"/>
	<path fill="#2D2D2D" d="M80.1,100.5l-0.6-5c0-0.3-0.2-0.6-0.5-0.7c-0.3-0.2-0.6-0.2-0.9,0l-33.3,14.2c-1.3-1.6-3.3-2.5-5.3-2.5
		c-0.9,0-1.8,0.2-2.6,0.5c-3.6,1.4-5.3,5.4-3.9,9c0.6,1.4,1.6,2.6,2.9,3.3c-0.4,1.4-0.3,3,0.2,4.4c1.1,2.6,3.6,4.4,6.5,4.4
		c0.9,0,1.8-0.2,2.6-0.5c2.8-1.1,4.6-3.9,4.4-6.9l34.8-14.8c0.3-0.1,0.5-0.4,0.6-0.8s-0.1-0.7-0.4-0.9L80.1,100.5z M48.1,119.1
		c-0.4,0.2-0.7,0.6-0.6,1.1c0.4,2.3-0.9,4.6-3.1,5.5c-0.6,0.2-1.2,0.4-1.8,0.4c-2.1,0-3.9-1.2-4.7-3.1c-0.5-1.2-0.5-2.5,0-3.7
		c0.2-0.5,0-1.1-0.5-1.3c-1.2-0.5-2.1-1.5-2.6-2.7c-1-2.5,0.2-5.4,2.8-6.4c0.6-0.2,1.2-0.4,1.8-0.4c1.7,0,3.3,0.8,4.2,2.2
		c0.3,0.4,0.8,0.6,1.2,0.4l32.8-14l0.5,4.1c0,0.3,0.2,0.5,0.4,0.6l3.6,2.9L48.1,119.1z"/>
	<path fill="#2D2D2D" d="M119.8,32.3c-1.2-0.8-2.9-1.3-5-1.9c-5.4-1.6-13.5-3.9-23-13.5C75.9,0.9,69.5,0.2,69.3,0.2
		c-0.9-0.1-1.9-0.2-3-0.2c-11.8,0-27,6.1-31.2,23.4c-5,20.2,11.2,33.1,16,34.8c3.8,1.3,51,15.7,53.7,16.4c0.2,0.1,0.5,0.1,0.8,0.1
		c2.3,0,5.5-2.1,7.2-4.8c1.3-2.1,1.6-4.4,0.7-6.3c-0.8-3.6-3.7-6.7-3.8-6.8l-0.8-0.8l-5.4,6.1l-2.9-9.6l-11,3.4l-2.1-7.4l-8.9,3.8
		c-1.2-2.9-4.8-10.8-9-10.8c-0.5,0-1,0.1-1.4,0.3c-0.3,0.1-0.6,0.3-0.9,0.4c-2.4,1.1-6.4,2.9-10.5,2.9c-4.3,0-7.6-1.9-10.2-5.9
		c-0.2-0.3-0.1-0.5,0-0.6c0-0.1,0.3-0.4,0.6-0.3c2,0.3,5.2,0.8,8.8,1.3c1,0.1,1.9,0.2,2.9,0.2c6.9,0,12.9-2.8,14.6-3.7
		c0.2-0.1,0.5-0.2,0.8-0.2c2.7,0,7.4,3.6,8.9,5l0.4,0.3l10.2-1.8l3,8.5l7.1-3.9l5.6,8.7l6.2-1.7v9.2l1.3-0.4
		c0.4-0.1,8.8-2.6,10.7-8.7C129.5,44.8,125,35.8,119.8,32.3z M125.6,50.5c-1.2,3.8-5.8,6-8.1,6.9v-9.1l-7.3,2l-5.8-9l-6.7,3.6L95,37
		L84.1,39c-1.5-1.2-6.4-5.2-9.9-5.2c-0.6,0-1.2,0.1-1.7,0.4c-1.6,0.8-7.2,3.5-13.6,3.5c-0.9,0-1.8-0.1-2.7-0.2
		c-3.6-0.4-6.8-0.9-8.8-1.3c-1.1-0.2-2.2,0.4-2.7,1.3c-0.5,0.8-0.4,1.8,0.1,2.6c2.9,4.5,6.9,6.8,11.9,6.8c4.5,0,8.8-1.9,11.3-3.1
		c0.3-0.1,0.6-0.3,0.9-0.4c0.2-0.1,0.4-0.1,0.6-0.1c2.6,0,6,6.4,7.5,10.5l0.4,1l8.7-3.7l2,7.2l11.1-3.4l3.3,11.2l6.3-7.1
		c0.9,1.1,2.2,3.1,2.7,5.2l0.1,0.2c0.8,1.7,0.2,3.4-0.5,4.5c-1.4,2.2-4,3.9-5.5,3.9c-0.1,0-0.2,0-0.3,0c-2.5-0.6-50-15.1-53.6-16.3
		C49.1,55.4,32,44.1,37,23.9C42.3,2.6,63.9,2,66.3,2c1,0,1.9,0.1,2.7,0.2c0.1,0,6.2,0.9,21.3,16.1c9.9,9.9,18.6,12.5,23.9,14
		c2,0.6,3.5,1,4.4,1.7C123.2,36.9,127.3,45.2,125.6,50.5z"/>
	<path fill="#2D2D2D" d="M69.8,12.6c-2.4-1.3-5-2-7.3-2c-2.9,0-5.2,1.1-6.2,3c-1,1.8-0.8,4,0.5,6.3c1.2,2.1,3.3,4.1,5.9,5.5
		c2.4,1.3,5,2,7.3,2c2.9,0,5.2-1.1,6.2-3C78.3,20.9,75.4,15.7,69.8,12.6z M74.5,23.5c-0.7,1.3-2.3,2-4.5,2c-2,0-4.3-0.6-6.4-1.8
		c-2.3-1.2-4.1-2.9-5.2-4.8c-1-1.7-1.1-3.2-0.5-4.4c0.7-1.3,2.3-2,4.5-2c2,0,4.3,0.6,6.4,1.8C73.3,16.8,75.9,21,74.5,23.5z"/>
	<path fill="#2D2D2D" d="M23.3,57.4l5.1,3.8l0.1,0.1c0.3,0.2,0.6,0.5,0.8,0.8l3.7,4.8c0.7,1.3,2.1,2,3.6,2c0.6,0,1.1-0.1,1.7-0.3
		c1.1-0.4,1.9-1.4,2.1-2.7c0.1-0.6,0.6-1.1,1.3-1.2c1.2-0.2,2.2-1,2.7-2.1c0.8-2,0.1-4.1-1.7-5.2l-4.7-3.7l-0.1-0.1
		c-0.3-0.2-0.6-0.4-0.7-0.7l-4.1-5.1c-0.7-1.2-2.1-1.9-3.5-1.9c-0.6,0-1.1,0.1-1.7,0.3c-1.1,0.4-1.9,1.4-2.1,2.7
		c-0.1,0.6-0.6,1.1-1.2,1.2l-0.1,0c-1.2,0.2-2.2,1-2.6,2.1C20.8,54.2,21.5,56.4,23.3,57.4z M23.5,53c0.2-0.4,0.6-0.8,1.1-0.9l0.1,0
		c1.4-0.3,2.6-1.4,2.8-2.9c0.1-0.5,0.4-0.9,0.9-1.1c1.1-0.4,2.3-0.1,2.8,0.8l4.1,5.1c0.3,0.5,0.8,1,1.4,1.3l4.7,3.7l0.1,0.1
		c0.9,0.5,1.3,1.7,0.9,2.8c-0.2,0.4-0.6,0.8-1.1,0.9c-1.4,0.2-2.6,1.4-2.9,2.9c-0.1,0.5-0.4,0.9-0.9,1.1c-1.1,0.4-2.3,0.1-2.8-0.9
		l-3.7-4.8c-0.3-0.6-0.8-1.1-1.4-1.4l-5.1-3.8l-0.1-0.1C23.4,55.2,23,54.1,23.5,53z"/>
	<path fill="#2D2D2D" d="M30.5,70.4l-5-3.2l-0.1-0.1c-0.3-0.1-0.6-0.4-0.8-0.7L20,61.7c-0.8-1-2-1.6-3.3-1.6c-0.7,0-1.4,0.2-2,0.5
		c-1,0.5-1.8,1.6-1.9,2.9c-0.1,0.6-0.5,1.2-1.1,1.3l-0.1,0c-1.2,0.3-2.1,1.2-2.4,2.3c-0.6,2.1,0.3,4.2,2.1,5l5.4,3.3l0.1,0.1
		c0.3,0.2,0.6,0.4,0.8,0.7l4.1,4.4c0.8,1.1,2,1.7,3.4,1.7c0.7,0,1.4-0.2,2-0.5c1.1-0.5,1.8-1.6,1.9-2.8c0.1-0.6,0.5-1.2,1.1-1.3
		c1.2-0.3,2.1-1.2,2.5-2.3C33.2,73.4,32.3,71.3,30.5,70.4z M30.7,74.9c-0.1,0.4-0.6,0.8-1.1,1c-1.4,0.4-2.5,1.6-2.6,3.1
		c0,0.5-0.3,1-0.8,1.2c-1,0.5-2.3,0.2-2.9-0.6l-4.1-4.4c-0.4-0.6-0.9-1-1.6-1.3l-5.4-3.3l-0.1-0.1c-1-0.4-1.5-1.6-1.1-2.7
		c0.1-0.5,0.5-0.8,1-1l0.1,0c1.4-0.4,2.4-1.6,2.6-3.1c0-0.5,0.3-1,0.8-1.2c1-0.5,2.3-0.3,2.9,0.6l4.5,4.7c0.4,0.5,0.9,0.9,1.5,1.2
		l5,3.2l0.1,0.1C30.6,72.6,31,73.7,30.7,74.9z"/>
	<path fill="#2D2D2D" d="M8.8,74.7L8,76.1c-0.2,0.4-5.8,9.4-7.9,17.7C-0.2,94.8,0.2,96,1,96.8c0.9,0.9,2.6,2.6,3.9,4.1
		c0.4,0.4,1,0.7,1.6,0.7c1,0,1.8-0.6,2.1-1.5c0.6-1.9,1.7-4.3,1.7-4.4c2.6-6.9,4.8-11.6,6.1-13.2l0.9-1.1l-5.4-1.9L8.8,74.7z
		 M8.4,94.9c0,0.1-1.2,2.5-1.8,4.6c0,0.1-0.1,0.1-0.1,0.1c-0.1,0-0.1,0-0.1,0c-1.4-1.5-3.1-3.2-4-4.1c-0.3-0.3-0.5-0.8-0.4-1.2
		c1.5-6.1,5.2-12.9,6.8-15.7l1.6,2.7l3.5,1.2C12.3,85.2,10,90.7,8.4,94.9z"/>
</g>
</svg>
