<?xml version="1.0" encoding="utf-8"?>
<!-- Generator: Adobe Illustrator 18.1.0, SVG Export Plug-In . SVG Version: 6.00 Build 0)  -->
<svg version="1.1" baseProfile="tiny" id="Layer_1" xmlns="http://www.w3.org/2000/svg" xmlns:xlink="http://www.w3.org/1999/xlink"
	 x="0px" y="0px" viewBox="0 0 128 128" 
width="128" height="128"
xml:space="preserve">
<g>
	<path fill="#2D2D2D" d="M126.1,38.8c-9.9-21.4-25.3-32.3-45.9-32.3c-5.3,0-10.9,0.7-16.8,2.1c-7.3,1.7-14.1,8.7-12.4,16.9
		c6.3,30.6-9.1,49.6-15.5,54.3c-4,2.9-6.3,7.6-6.1,12.4c0,0.3,0,0.6,0.1,0.9l-10.2,3.6c-1-2.1-2.6-3.8-4.7-4.8
		c-2.4-1.2-5.1-1.4-7.6-0.5c-2.5,0.9-4.6,2.7-5.7,5.1c-1.2,2.4-1.3,5.2-0.5,7.7c0.7,2.1,2,3.8,3.8,5c-0.7,1.9-0.7,4.1,0.1,6.4
		c0.9,2.5,2.7,4.6,5.1,5.8c1.4,0.7,2.9,1,4.4,1c1.1,0,2.2-0.2,3.3-0.6c2.5-0.9,4.6-2.7,5.7-5.1c1-2.1,1.3-4.5,0.7-6.7l10.5-3.7
		c2.7,3.6,6.7,5.9,11.1,6.1c2.4,0.1,4.9,0.2,7.2,0.2c33.2,0,56.4-12.9,68.8-38.3C128,60.6,129.8,46.9,126.1,38.8z M22.1,108.6
		c-0.1,0-0.1,0.1-0.2,0.1c-0.1,0-0.1,0.1-0.2,0.1c0,0-0.1,0.1-0.1,0.1c0,0.1-0.1,0.1-0.1,0.2c0,0,0,0.1,0,0.1c0,0.1-0.1,0.1-0.1,0.2
		c0,0,0,0.1,0,0.1c0,0.1,0,0.2,0,0.3c0.7,2,0.6,4.2-0.4,6.2c-0.9,1.9-2.6,3.4-4.6,4.1c-2,0.7-4.2,0.6-6.1-0.4
		c-1.9-0.9-3.4-2.6-4.1-4.6c-0.6-1.8-0.7-3.4-0.2-4.8c1.3,0.5,2.6,0.8,3.9,0.8c1.1,0,2.2-0.2,3.3-0.6c0.5-0.2,0.8-0.7,0.6-1.3
		c-0.2-0.5-0.7-0.8-1.3-0.6c-2,0.7-4.2,0.6-6.1-0.4c-1.9-0.9-3.4-2.6-4.1-4.6s-0.6-4.2,0.4-6.2c0.9-1.9,2.6-3.4,4.6-4.1
		c2-0.7,4.2-0.6,6.1,0.4c1.9,0.9,3.4,2.6,4.1,4.6l0.3,0.9l11.6-4.1c0.5,2.8,1.5,5.8,3.1,8.9c0.1,0.2,0.2,0.4,0.3,0.6L22.1,108.6z
		 M119.5,73.6c-12,24.7-34.6,37.2-67,37.2c-2.3,0-4.7-0.1-7.1-0.2c-4.5-0.2-8.7-3.1-10.9-7.4c-2-4-3.1-7.6-3.2-11
		c-0.2-4.1,1.8-8.1,5.3-10.7c6.8-4.9,22.8-24.7,16.3-56.4c-1.4-6.8,4.5-13,11-14.6c5.8-1.4,11.3-2.1,16.4-2.1
		c19.8,0,34.6,10.5,44.1,31.1C127.8,47.3,126,60.3,119.5,73.6z"/>
	<path fill="#2D2D2D" d="M79.8,21c-4.7,0-8.5,0.8-11,2.4c-10,6.5-4.8,26.5-3,31.1c2.5,6.3,12,13.8,21.1,21l2.1,1.7
		c1.8,1.4,4,2.2,6.2,2.2c2.6,0,5-1,6.9-2.8c7.7-7.4,17.6-23.3,12.9-36.7C110.7,26.9,91.8,21,79.8,21z M100.9,75.2
		c-1.5,1.4-3.5,2.2-5.5,2.2c-1.8,0-3.6-0.6-5-1.8L88.2,74C79.2,66.9,70,59.6,67.7,53.8c-2.2-5.6-5.9-23.4,2.2-28.7
		c2.1-1.4,5.6-2.1,9.9-2.1c11.4,0,29.3,5.5,33.5,17.6C117.6,53.1,108.2,68.2,100.9,75.2z"/>
	<path fill="#2D2D2D" d="M87.3,85.8l-0.2-0.1c-0.1,0-13.2-3-22.5-16.3c-0.6-0.9-1.5-1.3-2.6-1.3c-1.1,0-2.2,0.6-2.8,1.5
		c-3.3,5-6.4,8.9-6.4,8.9c-2.8,3.3-4.5,7-5.1,10.8c-0.7,4.7,0,8.1,2.2,9.9c1.9,1.6,5.5,1.9,8.2,1.9c0,0,0,0,0,0
		c8.3,0,20.7-3.1,29.8-10c0.9-0.7,1.3-1.7,1.2-2.8C89,87.2,88.3,86.3,87.3,85.8z M86.7,89.5C78,96.1,66,99.1,58.1,99.1
		c-3.3,0-5.9-0.5-7-1.4c-2-1.7-1.9-5.3-1.5-8.1c0.5-3.4,2.1-6.8,4.6-9.9c0,0,3.1-4,6.5-9c0.3-0.4,0.7-0.6,1.2-0.6
		c0.2,0,0.7,0.1,1,0.5c9.3,13.4,22.1,16.7,23.5,17.1c0.3,0.2,0.5,0.5,0.6,0.9C87.2,88.9,87,89.3,86.7,89.5z"/>
</g>
</svg>
