<?xml version="1.0" encoding="utf-8"?>
<!-- Generator: Adobe Illustrator 24.1.2, SVG Export Plug-In . SVG Version: 6.00 Build 0)  -->
<svg version="1.1" id="Layer_1" xmlns="http://www.w3.org/2000/svg" xmlns:xlink="http://www.w3.org/1999/xlink" x="0px" y="0px"
	 viewBox="0 0 128 128" style="enable-background:new 0 0 128 128;" xml:space="preserve">
<style type="text/css">
	.st0{fill:#2D2D2D;}
</style>
<g>
	<path class="st0" d="M81.83,80.59c2.13-0.19,4.26-0.6,6.32-1.3c1.9-0.63,3.72-1.56,5.33-2.82c0.12,0.13,0.23,0.26,0.36,0.38
		c1.47,1.38,3.22,2.39,5.05,3.11c1.84,0.73,3.75,1.21,5.68,1.48c3.85,0.57,7.8,0.4,11.58-0.43c3.8-0.83,7.34-2.56,10.46-4.75
		l1.39-0.97l-1.65,0.18c-0.77,0.09-1.55,0.09-2.32-0.03c-0.76-0.13-1.52-0.34-2.24-0.67c-1.45-0.63-2.75-1.58-3.97-2.61
		c-1.21-1.05-2.36-2.18-3.48-3.34l-1.69-1.73c-0.28-0.29-0.57-0.57-0.86-0.86c-0.3-0.28-0.6-0.59-0.93-0.86
		c-0.45-0.38-0.94-0.74-1.43-1.08c1.98-1.51,3.74-3.3,5.19-5.31c1.79-2.47,2.97-5.34,3.66-8.26l0.31-1.29l-0.87,0.97
		c-0.41,0.45-0.86,0.86-1.38,1.2c-0.52,0.32-1.07,0.6-1.66,0.78c-1.18,0.39-2.44,0.51-3.69,0.55c-1.26,0.02-2.52-0.05-3.78-0.13
		l-1.9-0.13c-0.32-0.03-0.63-0.04-0.95-0.05c-0.32-0.01-0.66-0.03-1-0.02c-1.34,0.04-2.68,0.26-3.94,0.75
		c-1.25,0.49-2.43,1.2-3.4,2.12c-1.38,1.29-2.37,2.99-2.72,4.8c-0.31-1.87-1.33-3.64-2.76-4.98c-0.97-0.92-2.14-1.63-3.4-2.12
		c-1.26-0.49-2.6-0.71-3.94-0.75c-0.33-0.01-0.67,0.01-1,0.02c-0.32,0.02-0.63,0.03-0.95,0.05l-1.9,0.13
		c-1.26,0.09-2.53,0.16-3.78,0.13c-0.53-0.02-1.07-0.05-1.6-0.11c-1.2-0.93-2.34-1.95-3.47-2.99l-1.72-1.57
		c-0.28-0.27-0.58-0.52-0.87-0.78c-0.21-0.18-0.44-0.37-0.66-0.55c1.17-1.06,2.24-2.24,3.17-3.52c1.07-1.48,1.88-3.13,2.48-4.84
		l0.55,0.39c2.43,1.7,5.18,3.04,8.13,3.69c2.94,0.64,6.01,0.78,9,0.34c1.5-0.21,2.98-0.59,4.41-1.15c1.43-0.56,2.78-1.35,3.93-2.42
		c0.1-0.09,0.18-0.2,0.27-0.3c1.25,0.98,2.67,1.7,4.15,2.19c1.61,0.54,3.26,0.86,4.92,1.01c3.32,0.31,6.68-0.02,9.87-0.9
		c3.21-0.88,6.16-2.52,8.72-4.53l1.14-0.89l-1.4,0.23c-0.65,0.11-1.32,0.15-1.98,0.08c-0.66-0.08-1.32-0.22-1.95-0.47
		c-1.27-0.47-2.42-1.23-3.51-2.05c-1.08-0.84-2.11-1.75-3.13-2.69l-1.53-1.4c-0.25-0.24-0.51-0.46-0.77-0.69
		c-0.19-0.16-0.39-0.33-0.59-0.49c1.04-0.94,1.99-1.99,2.81-3.13c1.4-1.92,2.31-4.15,2.85-6.42l0.24-1.01l-0.68,0.76
		c-0.32,0.35-0.67,0.67-1.07,0.93c-0.4,0.25-0.83,0.46-1.29,0.61c-0.91,0.3-1.9,0.4-2.87,0.42c-0.98,0.02-1.96-0.04-2.94-0.1
		l-1.47-0.1c-0.25-0.02-0.49-0.03-0.74-0.04c-0.25-0.01-0.52-0.02-0.77-0.02c-1.04,0.03-2.08,0.2-3.06,0.58
		c-0.97,0.38-1.89,0.93-2.64,1.65c-1.11,1.04-1.9,2.42-2.14,3.87c-0.27-1.4-1.04-2.73-2.11-3.73c-0.76-0.72-1.67-1.27-2.64-1.65
		c-0.98-0.38-2.02-0.55-3.06-0.58c-0.26-0.01-0.52,0.01-0.77,0.02c-0.25,0.01-0.49,0.02-0.74,0.04l-1.47,0.1
		c-0.98,0.07-1.96,0.12-2.94,0.1c-0.17,0-0.33-0.01-0.5-0.02c0.14-0.42,0.28-0.84,0.38-1.26l0.16-0.66l-0.45,0.5
		c-0.21,0.23-0.44,0.44-0.7,0.61c-0.26,0.16-0.55,0.31-0.85,0.4c-0.16,0.05-0.33,0.08-0.5,0.12c-0.13-0.04-0.27-0.07-0.4-0.11
		c-0.46-0.14-0.89-0.36-1.29-0.61c-0.4-0.26-0.75-0.58-1.07-0.93l-0.68-0.76l0.24,1.01c0.12,0.51,0.27,1.02,0.43,1.52
		c-0.18-0.01-0.36-0.02-0.54-0.03l-0.97-0.07c-0.16-0.01-0.32-0.02-0.49-0.03c-0.17,0-0.34-0.02-0.51-0.01
		c-0.68,0.02-1.37,0.13-2.01,0.38c-0.64,0.25-1.24,0.61-1.74,1.08c-0.74,0.69-1.25,1.6-1.4,2.56c-0.17-0.93-0.68-1.81-1.39-2.47
		c-0.5-0.47-1.1-0.83-1.74-1.08c-0.64-0.25-1.33-0.36-2.01-0.38c-0.17-0.01-0.34,0.01-0.51,0.01c-0.16,0.01-0.32,0.01-0.49,0.03
		l-0.97,0.07c-0.65,0.05-1.29,0.08-1.93,0.07c-0.64-0.02-1.29-0.08-1.89-0.28c-0.3-0.09-0.58-0.23-0.85-0.4
		c-0.26-0.17-0.49-0.38-0.7-0.61l-0.45-0.5l0.16,0.66c0.35,1.49,0.95,2.96,1.87,4.22c0.74,1.03,1.64,1.94,2.65,2.72
		c-0.25,0.17-0.5,0.35-0.73,0.55c-0.17,0.14-0.32,0.3-0.48,0.44c-0.15,0.15-0.3,0.29-0.44,0.44l-0.87,0.88
		c-0.58,0.59-1.16,1.17-1.78,1.7c-0.62,0.53-1.29,1.01-2.03,1.33c-0.37,0.17-0.75,0.27-1.15,0.34c-0.39,0.06-0.79,0.06-1.19,0.01
		l-0.84-0.09l0.71,0.5c1.6,1.12,3.41,2,5.35,2.42c1.93,0.42,3.95,0.51,5.92,0.22c0.98-0.14,1.96-0.38,2.9-0.76
		c0.94-0.37,1.83-0.89,2.58-1.59c0.06-0.06,0.12-0.13,0.18-0.2c0.82,0.65,1.76,1.12,2.73,1.44c1.06,0.35,2.14,0.57,3.23,0.66
		c0.89,0.08,1.78,0.08,2.68,0.03c-0.31,0.29-0.62,0.58-0.94,0.86c-0.95,0.8-1.96,1.54-3.09,2.03c-0.56,0.25-1.15,0.42-1.74,0.52
		c-0.6,0.09-1.21,0.09-1.8,0.02l-0.64-0.07c0.23-0.69,0.44-1.39,0.61-2.09l0.27-1.13l-0.76,0.85c-0.36,0.4-0.76,0.75-1.2,1.05
		c-0.45,0.28-0.94,0.52-1.45,0.68c-1.03,0.34-2.13,0.45-3.23,0.48c-1.1,0.02-2.2-0.04-3.31-0.12l-1.66-0.11
		c-0.28-0.02-0.55-0.03-0.83-0.05c-0.28-0.01-0.58-0.03-0.87-0.02c-1.17,0.03-2.34,0.23-3.45,0.65c-1.1,0.43-2.12,1.05-2.97,1.85
		c-1.25,1.17-2.14,2.72-2.41,4.35c-0.3-1.58-1.17-3.07-2.38-4.19c-0.85-0.8-1.88-1.42-2.97-1.85c-0.66-0.26-1.36-0.42-2.06-0.53
		c1.24-0.66,2.42-1.44,3.52-2.3l1-0.78l-1.23,0.2c-0.57,0.1-1.16,0.13-1.74,0.07c-0.58-0.07-1.16-0.19-1.71-0.41
		c-1.11-0.41-2.13-1.08-3.08-1.8c-0.95-0.74-1.85-1.54-2.74-2.36L37,29.34c-0.22-0.21-0.45-0.4-0.68-0.61
		c-0.17-0.15-0.35-0.3-0.53-0.44c0.92-0.83,1.76-1.74,2.48-2.74c1.23-1.69,2.03-3.65,2.5-5.64l0.21-0.88l-0.6,0.66
		c-0.28,0.31-0.59,0.59-0.94,0.82c-0.35,0.22-0.73,0.41-1.14,0.53c-0.8,0.27-1.67,0.35-2.52,0.37c-0.86,0.01-1.72-0.03-2.58-0.09
		l-1.29-0.09c-0.22-0.02-0.43-0.02-0.65-0.04c-0.22-0.01-0.45-0.02-0.68-0.01c-0.91,0.02-1.83,0.18-2.69,0.51
		c-0.86,0.34-1.66,0.82-2.32,1.45c-0.97,0.91-1.66,2.11-1.88,3.38c-0.24-1.22-0.92-2.38-1.86-3.26c-0.66-0.63-1.46-1.11-2.32-1.45
		c-0.86-0.33-1.78-0.49-2.69-0.51c-0.23-0.01-0.46,0.01-0.68,0.01c-0.22,0.01-0.43,0.02-0.65,0.04l-1.29,0.09
		c-0.86,0.06-1.72,0.11-2.58,0.09c-0.86-0.02-1.72-0.11-2.52-0.37c-0.4-0.13-0.78-0.31-1.14-0.53c-0.35-0.23-0.66-0.51-0.94-0.82
		l-0.6-0.66l0.21,0.88c0.47,1.99,1.27,3.95,2.5,5.64c0.99,1.37,2.19,2.6,3.55,3.63c-0.34,0.23-0.67,0.47-0.98,0.73
		c-0.22,0.19-0.43,0.4-0.64,0.59c-0.19,0.19-0.39,0.38-0.58,0.58l-1.16,1.18c-0.77,0.79-1.55,1.56-2.38,2.28
		c-0.83,0.7-1.72,1.36-2.71,1.78c-0.49,0.22-1.01,0.36-1.53,0.46c-0.53,0.08-1.06,0.08-1.58,0.02L0,36.8l0.95,0.66
		c2.13,1.49,4.55,2.67,7.14,3.24c2.59,0.57,5.28,0.68,7.91,0.3c1.32-0.19,2.62-0.51,3.88-1.01c1.25-0.49,2.45-1.18,3.45-2.12
		c0.08-0.08,0.16-0.18,0.24-0.26c1.1,0.86,2.34,1.49,3.64,1.93c1.36,0.46,2.75,0.73,4.16,0.87c0.49,1.05,1.05,2.07,1.74,3.01
		c1.27,1.76,2.81,3.33,4.54,4.65c-0.43,0.29-0.86,0.6-1.25,0.94c-0.28,0.24-0.55,0.51-0.81,0.76c-0.25,0.25-0.51,0.49-0.75,0.75
		L33.34,52c-0.98,1.01-1.98,2-3.04,2.92c-1.07,0.9-2.2,1.74-3.47,2.28c-0.63,0.29-1.29,0.47-1.96,0.58c-0.67,0.1-1.36,0.1-2.03,0.02
		l-1.44-0.16l1.21,0.85c0.87,0.61,1.79,1.18,2.73,1.69c-0.07,0-0.13,0.01-0.2,0.01l-2.1,0.14c-1.4,0.1-2.8,0.17-4.19,0.15
		c-1.39-0.04-2.78-0.17-4.09-0.6c-0.65-0.2-1.27-0.51-1.84-0.87c-0.57-0.37-1.07-0.83-1.52-1.33l-0.97-1.08l0.34,1.43
		c0.76,3.23,2.06,6.4,4.05,9.14c1.61,2.23,3.56,4.21,5.75,5.88c-0.55,0.37-1.08,0.76-1.59,1.19c-0.36,0.3-0.7,0.64-1.03,0.96
		c-0.32,0.32-0.64,0.62-0.95,0.95l-1.88,1.91c-1.25,1.28-2.51,2.53-3.85,3.69c-1.35,1.14-2.79,2.2-4.39,2.89
		c-0.79,0.36-1.63,0.59-2.48,0.74c-0.85,0.13-1.72,0.12-2.57,0.03L0,85.22l1.53,1.07c3.46,2.42,7.38,4.34,11.58,5.25
		c4.19,0.92,8.56,1.11,12.82,0.48c2.13-0.3,4.24-0.83,6.28-1.64c2.03-0.8,3.96-1.92,5.59-3.44c0.14-0.13,0.26-0.28,0.39-0.42
		c1.78,1.4,3.8,2.42,5.91,3.12c2.29,0.77,4.64,1.22,7,1.43c1.16,0.11,2.33,0.16,3.49,0.16c0.82,3.42,2.21,6.79,4.32,9.69
		c1.73,2.39,3.82,4.52,6.17,6.31c-0.6,0.4-1.18,0.83-1.73,1.29c-0.39,0.32-0.75,0.69-1.1,1.03c-0.34,0.34-0.69,0.67-1.02,1.02
		l-2.01,2.05c-1.34,1.37-2.69,2.72-4.14,3.96c-0.57,0.48-1.16,0.94-1.77,1.38c-0.28-0.19-0.56-0.38-0.83-0.58
		c-1.22-0.94-2.37-1.97-3.51-3.02l-1.71-1.57c-0.28-0.27-0.58-0.52-0.86-0.78c-0.21-0.18-0.43-0.37-0.66-0.55
		c1.17-1.06,2.23-2.24,3.15-3.51c1.57-2.16,2.59-4.66,3.19-7.2l0.27-1.13l-0.76,0.85c-0.36,0.4-0.75,0.75-1.2,1.05
		c-0.45,0.28-0.93,0.52-1.45,0.68c-1.03,0.34-2.13,0.44-3.22,0.48c-1.1,0.02-2.2-0.04-3.3-0.12l-1.65-0.11
		c-0.28-0.02-0.55-0.03-0.83-0.05c-0.28-0.01-0.58-0.03-0.87-0.02c-1.16,0.03-2.34,0.23-3.44,0.65c-1.09,0.43-2.11,1.05-2.96,1.85
		c-1.25,1.16-2.13,2.71-2.4,4.35c-0.3-1.57-1.16-3.06-2.37-4.19c-0.85-0.8-1.87-1.42-2.96-1.85c-1.1-0.42-2.27-0.62-3.44-0.65
		c-0.29-0.01-0.59,0.01-0.87,0.02c-0.28,0.02-0.55,0.02-0.83,0.05l-1.65,0.11c-1.1,0.08-2.2,0.14-3.3,0.12
		c-1.09-0.03-2.19-0.13-3.22-0.48c-0.52-0.16-1-0.4-1.45-0.68c-0.45-0.29-0.84-0.65-1.2-1.05l-0.76-0.85l0.27,1.13
		c0.6,2.54,1.63,5.05,3.19,7.2c1.27,1.75,2.8,3.32,4.53,4.63c-0.43,0.29-0.85,0.6-1.25,0.94c-0.28,0.24-0.55,0.51-0.81,0.75
		c-0.25,0.25-0.5,0.49-0.75,0.75l-1.48,1.51c-0.98,1.01-1.98,2-3.04,2.91c-1.06,0.9-2.2,1.73-3.46,2.28
		c-0.63,0.28-1.29,0.47-1.95,0.58c-0.67,0.1-1.35,0.1-2.02,0.02L0,122.33l1.21,0.85c2.72,1.91,5.81,3.42,9.12,4.14
		c3.3,0.72,6.74,0.87,10.1,0.38c1.68-0.24,3.34-0.66,4.95-1.29c1.6-0.63,3.12-1.51,4.41-2.71c0.11-0.1,0.21-0.22,0.31-0.33
		c1.4,1.1,2.99,1.9,4.65,2.46c1.8,0.6,3.65,0.96,5.51,1.13c3.72,0.35,7.49-0.02,11.07-1c0.33-0.09,0.66-0.2,0.99-0.3
		c1.53,0.61,3.11,1.1,4.74,1.46c4.5,0.99,9.18,1.19,13.76,0.51c2.29-0.33,4.55-0.89,6.74-1.76c2.18-0.86,4.25-2.06,6-3.69
		c0.15-0.15,0.3-0.31,0.45-0.47c1.91,1.5,4.07,2.59,6.33,3.35c2.46,0.82,4.98,1.31,7.51,1.54c5.07,0.48,10.2-0.02,15.08-1.37
		c4.9-1.35,9.4-3.85,13.33-6.92l1.74-1.36l-2.14,0.36c-1,0.17-2.02,0.22-3.03,0.13c-1.01-0.12-2.01-0.34-2.97-0.71
		c-1.93-0.72-3.7-1.88-5.36-3.13c-1.66-1.28-3.23-2.68-4.78-4.11l-2.33-2.14c-0.38-0.36-0.79-0.7-1.18-1.06
		c-0.29-0.25-0.59-0.51-0.9-0.76c1.59-1.44,3.04-3.04,4.3-4.77c2.13-2.94,3.53-6.35,4.35-9.81l0.36-1.54l-1.04,1.16
		c-0.48,0.54-1.03,1.03-1.63,1.43c-0.62,0.38-1.27,0.71-1.98,0.93c-1.4,0.46-2.9,0.61-4.39,0.65c-1.49,0.03-2.99-0.05-4.49-0.16
		l-2.25-0.15c-0.38-0.03-0.75-0.04-1.13-0.06c-0.38-0.01-0.79-0.04-1.18-0.02c-1.59,0.04-3.19,0.31-4.68,0.89
		c-1.49,0.58-2.88,1.43-4.04,2.52c-1.69,1.58-2.89,3.67-3.27,5.88c-0.42-2.13-1.6-4.14-3.24-5.67c-1.16-1.09-2.55-1.94-4.04-2.52
		c-1.49-0.58-3.09-0.85-4.68-0.89c-0.4-0.01-0.8,0.01-1.18,0.02c-0.38,0.02-0.75,0.03-1.13,0.06l-2.25,0.15
		c-1.5,0.1-3,0.19-4.49,0.16c-1.49-0.04-2.99-0.18-4.39-0.65c-0.7-0.22-1.36-0.55-1.98-0.93c-0.42-0.27-0.79-0.6-1.15-0.95
		c3.19-0.09,6.37-0.57,9.44-1.41c4.56-1.25,8.76-3.59,12.42-6.45l1.62-1.27l-2,0.33c-0.93,0.15-1.88,0.21-2.82,0.12
		c-0.94-0.11-1.87-0.32-2.77-0.67c-1.8-0.67-3.44-1.75-5-2.92c-0.28-0.22-0.55-0.45-0.82-0.68c1.09,0.45,2.2,0.85,3.34,1.16
		C73.24,80.57,77.56,80.99,81.83,80.59z M115.25,31.91c1.14,0.81,2.3,1.59,3.49,2.33c0.59,0.38,1.2,0.73,1.81,1.07
		c0.62,0.34,1.25,0.65,1.92,0.89c0.9,0.36,1.88,0.56,2.86,0.61c-2.37,1.37-4.96,2.29-7.59,2.89c-3.05,0.69-6.2,0.82-9.29,0.51
		c-1.54-0.17-3.08-0.41-4.54-0.84c-1.46-0.44-2.9-1-4.19-1.78c-1.27-0.77-2.44-1.86-2.86-3.34c-0.13-0.45-0.18-0.91-0.16-1.38
		c0.26-0.16,0.53-0.3,0.81-0.43c0.66-0.3,1.38-0.43,2.1-0.57c0.72-0.13,1.44-0.23,2.17-0.27c1.45-0.09,2.92,0.06,4.32,0.42
		c1.41,0.35,2.75,0.97,3.98,1.74c0.63,0.37,1.19,0.82,1.8,1.26c0.6,0.43,1.24,0.81,1.9,1.14c2.65,1.3,5.74,1.72,8.62,1.07
		l-0.03-0.12c-1.46,0.11-2.91,0.02-4.28-0.31c-1.38-0.3-2.68-0.81-3.88-1.49c-0.6-0.34-1.16-0.73-1.71-1.15l-0.86-0.68
		c-0.3-0.24-0.62-0.47-0.95-0.68c-1.3-0.86-2.75-1.54-4.28-1.95c-1.54-0.4-3.14-0.52-4.7-0.4c-0.78,0.07-1.55,0.2-2.3,0.37
		c-0.38,0.08-0.75,0.18-1.12,0.28c-0.04,0.01-0.08,0.03-0.12,0.04c0.15-0.16,0.3-0.33,0.42-0.52c0.2-0.3,0.29-0.57,0.42-0.81
		c0,0,0-0.01,0-0.01c0.22-0.55,0.34-1.12,0.41-1.7c0.01-0.05,0-0.1,0.01-0.16l0,0c0-0.01,0-0.02,0-0.02
		c0.42-0.3,0.87-0.54,1.34-0.74c1.25-0.51,2.62-0.65,3.93-0.54c2.64,0.24,5.09,1.31,7.22,2.82c0.28,0.18,0.53,0.38,0.8,0.59
		c0.27,0.21,0.54,0.43,0.82,0.64C114.12,31.1,114.68,31.51,115.25,31.91z M100.01,25.13c0.47-0.84,1.17-1.53,1.95-2.06
		c1.58-1.05,3.42-1.54,5.28-1.66c0.23-0.02,0.46-0.02,0.71-0.03c0.25,0,0.5,0,0.74-0.01c0.5-0.02,0.99-0.03,1.49-0.07
		c0.99-0.06,1.99-0.14,2.98-0.26c0.5-0.05,0.99-0.13,1.49-0.22c0.49-0.09,0.99-0.2,1.47-0.36c0.67-0.2,1.3-0.53,1.87-0.94
		c-0.71,1.83-1.75,3.5-2.95,5c-0.89,1.11-1.91,2.12-3.01,3.01c-0.93-0.6-1.93-1.1-2.99-1.44c-1.35-0.42-2.78-0.61-4.18-0.52
		c0.09-0.04,0.18-0.09,0.27-0.14c0.94-0.43,1.97-0.69,3-0.81c0.52-0.07,1.03-0.07,1.56-0.1c0.53-0.03,1.05-0.1,1.56-0.22
		c2.06-0.45,3.96-1.6,5.28-3.25l-0.07-0.05c-0.77,0.71-1.61,1.31-2.53,1.74c-0.9,0.45-1.86,0.74-2.83,0.9
		c-0.49,0.08-0.97,0.11-1.46,0.12l-0.78,0.01c-0.28,0-0.55,0.02-0.83,0.04c-1.11,0.1-2.22,0.37-3.26,0.83
		c-0.78,0.35-1.52,0.81-2.18,1.34c-1.14,0.33-2.22,0.85-3.14,1.56c0-0.2,0-0.4-0.02-0.6C99.5,26.32,99.7,25.69,100.01,25.13z
		 M83.72,20.48c0.44-0.13,0.85-0.35,1.23-0.62c-0.1,0.25-0.21,0.5-0.33,0.74c-0.3-0.03-0.61-0.07-0.91-0.12
		C83.71,20.48,83.72,20.48,83.72,20.48z M82.61,20.62c0.48,0.16,0.97,0.27,1.47,0.36c0.49,0.09,0.99,0.16,1.49,0.22
		c0.99,0.12,1.99,0.2,2.98,0.26c0.5,0.03,0.99,0.05,1.49,0.07c0.25,0.01,0.5,0.01,0.74,0.01c0.24,0.01,0.47,0.01,0.71,0.03
		c1.86,0.12,3.7,0.61,5.28,1.66c0.78,0.53,1.48,1.21,1.95,2.06c0.3,0.53,0.48,1.13,0.56,1.74c-0.02,0.29-0.01,0.58,0.02,0.88
		c-0.01,0.06,0,0.13-0.01,0.19c-0.06,0.49-0.19,0.99-0.4,1.44c-0.02-0.06-0.05-0.12-0.07-0.18c-0.12-0.27-0.28-0.55-0.45-0.78
		c-0.16-0.22-0.32-0.44-0.5-0.66c-0.34-0.43-0.71-0.85-1.12-1.23c-0.82-0.76-1.77-1.41-2.8-1.88c-1.04-0.46-2.15-0.73-3.26-0.83
		c-0.28-0.03-0.55-0.04-0.83-0.04l-0.78-0.01c-0.49-0.01-0.98-0.05-1.46-0.12c-0.97-0.16-1.92-0.45-2.83-0.9
		c-0.92-0.43-1.76-1.03-2.53-1.74l-0.07,0.05c1.32,1.65,3.22,2.8,5.28,3.25c0.51,0.11,1.04,0.18,1.57,0.22
		c0.53,0.03,1.04,0.03,1.56,0.1c1.03,0.12,2.05,0.38,3,0.81c0.95,0.43,1.83,1,2.6,1.7c0.39,0.34,0.75,0.72,1.09,1.12
		c0.33,0.4,0.68,0.8,0.91,1.26c0.1,0.19,0.19,0.4,0.26,0.6c-0.2,0.27-0.43,0.51-0.7,0.7c-0.89,0.64-2.03,0.72-3.08,0.58
		c-1.07-0.14-2.12-0.47-3.13-0.87c-1.01-0.42-1.97-0.96-2.91-1.56c-1.86-1.21-3.56-2.69-4.95-4.44c-1.2-1.5-2.24-3.18-2.95-5
		C81.32,20.09,81.95,20.41,82.61,20.62z M85.7,30.34c-0.25,0.21-0.49,0.45-0.72,0.67c-0.05,0.05-0.09,0.09-0.14,0.14
		c-0.84-0.2-1.65-0.51-2.38-0.93c-0.39-0.22-0.76-0.48-1.12-0.75l-0.57-0.45c-0.2-0.16-0.41-0.31-0.62-0.45
		c-0.85-0.57-1.81-1.01-2.81-1.28c-1.01-0.26-2.06-0.34-3.09-0.26c-0.51,0.04-1.02,0.13-1.51,0.24c-0.25,0.05-0.49,0.12-0.73,0.19
		c-0.03,0.01-0.06,0.02-0.08,0.03c0.1-0.11,0.2-0.22,0.28-0.34c0.13-0.2,0.19-0.37,0.28-0.53c0,0,0,0,0-0.01
		c0.14-0.36,0.22-0.74,0.27-1.11c0-0.03,0-0.07,0.01-0.1l0,0c0,0,0-0.01,0-0.01c0.28-0.19,0.57-0.36,0.88-0.49
		c0.82-0.33,1.72-0.43,2.59-0.35c1.74,0.16,3.34,0.86,4.75,1.85c0.18,0.12,0.35,0.25,0.52,0.39c0.18,0.14,0.36,0.28,0.54,0.42
		c0.37,0.27,0.73,0.55,1.11,0.81c0.75,0.53,1.51,1.04,2.29,1.53c0.24,0.16,0.5,0.3,0.75,0.44C86.03,30.09,85.86,30.21,85.7,30.34z
		 M82.04,24.21c-0.32,0.32-0.66,0.62-1.01,0.91c-0.61-0.4-1.27-0.72-1.96-0.94c-0.89-0.28-1.82-0.4-2.74-0.34
		c0.06-0.03,0.11-0.06,0.17-0.09c0.62-0.29,1.29-0.45,1.97-0.53c0.34-0.05,0.68-0.05,1.03-0.07c0.35-0.02,0.69-0.07,1.03-0.14
		c0.26-0.06,0.51-0.14,0.76-0.23C81.51,23.27,81.76,23.75,82.04,24.21z M86.54,29.69c-0.28-0.18-0.56-0.36-0.83-0.56
		c-0.71-0.55-1.39-1.15-2.05-1.77l-1-0.92c-0.17-0.16-0.34-0.3-0.51-0.45c-0.13-0.11-0.26-0.22-0.39-0.33
		c0.26-0.23,0.5-0.47,0.74-0.72c0.1,0.14,0.18,0.3,0.28,0.44c1.13,1.56,2.5,2.96,4.04,4.13C86.73,29.57,86.63,29.63,86.54,29.69z
		 M73.13,23.54c0.31-0.55,0.77-1.01,1.28-1.35c1.04-0.69,2.25-1.01,3.47-1.09c0.15-0.01,0.31-0.01,0.46-0.02
		c0.16,0,0.33,0,0.49-0.01c0.33-0.01,0.65-0.02,0.98-0.04c0.24-0.01,0.48-0.04,0.72-0.05c0.17,0.49,0.35,0.97,0.56,1.44
		c-0.22,0.06-0.44,0.12-0.67,0.16c-0.32,0.05-0.64,0.07-0.96,0.08l-0.52,0.01c-0.18,0-0.36,0.01-0.55,0.03
		c-0.73,0.06-1.46,0.24-2.14,0.54c-0.5,0.23-0.95,0.53-1.38,0.87c-0.77,0.22-1.5,0.56-2.12,1.04c0-0.12,0-0.25-0.01-0.37
		C72.79,24.34,72.92,23.91,73.13,23.54z M62.41,23.24c-0.79-0.99-1.47-2.09-1.94-3.29c0.38,0.27,0.79,0.48,1.23,0.62
		c0.32,0.11,0.64,0.18,0.97,0.24c0.32,0.06,0.65,0.11,0.98,0.14c0.65,0.08,1.31,0.13,1.96,0.17c0.33,0.02,0.65,0.03,0.98,0.04
		c0.16,0.01,0.33,0.01,0.49,0.01c0.16,0.01,0.31,0,0.46,0.02c1.22,0.08,2.43,0.4,3.47,1.09c0.51,0.35,0.97,0.8,1.28,1.35
		c0.19,0.35,0.32,0.74,0.37,1.14c-0.01,0.19-0.01,0.39,0.01,0.58c0,0.04,0,0.08-0.01,0.13c-0.04,0.32-0.13,0.65-0.26,0.95
		c-0.02-0.04-0.03-0.08-0.05-0.12c-0.08-0.17-0.19-0.36-0.3-0.51c-0.11-0.15-0.21-0.29-0.33-0.43c-0.23-0.28-0.47-0.56-0.74-0.81
		c-0.54-0.5-1.16-0.93-1.84-1.23c-0.68-0.3-1.41-0.48-2.14-0.54c-0.18-0.02-0.36-0.03-0.55-0.03l-0.52-0.01
		c-0.32-0.01-0.64-0.03-0.96-0.08c-0.64-0.1-1.26-0.3-1.86-0.59c-0.6-0.28-1.16-0.67-1.66-1.14l-0.05,0.03
		c0.87,1.09,2.12,1.84,3.47,2.14c0.34,0.07,0.68,0.12,1.03,0.14c0.35,0.02,0.69,0.02,1.03,0.07c0.68,0.08,1.35,0.25,1.97,0.53
		c0.62,0.28,1.2,0.65,1.71,1.12c0.26,0.23,0.49,0.48,0.72,0.73c0.22,0.26,0.45,0.52,0.6,0.83c0.07,0.13,0.12,0.26,0.17,0.39
		c-0.13,0.18-0.28,0.33-0.46,0.46c-0.59,0.42-1.33,0.47-2.03,0.38c-0.7-0.09-1.39-0.31-2.06-0.58c-0.66-0.27-1.3-0.63-1.91-1.03
		C64.44,25.36,63.32,24.39,62.41,23.24z M69.45,33.36c-0.86,0.3-1.77,0.5-2.68,0.65c-1.83,0.28-3.72,0.3-5.56-0.01
		c-1.59-0.27-3.16-0.74-4.62-1.48c0.59-0.06,1.16-0.21,1.69-0.45c0.39-0.17,0.76-0.37,1.12-0.59c0.36-0.22,0.71-0.45,1.05-0.69
		c0.69-0.48,1.35-0.98,2.01-1.5c0.33-0.26,0.65-0.52,0.97-0.79c0.16-0.13,0.31-0.27,0.47-0.41c0.16-0.13,0.3-0.26,0.46-0.38
		c0.32-0.25,0.65-0.47,0.99-0.68c0.6,0.39,1.24,0.72,1.93,0.97c0.28,0.1,0.56,0.18,0.85,0.25c-0.14,0.04-0.28,0.07-0.42,0.11
		c-0.9,0.29-1.75,0.74-2.49,1.3c-0.19,0.14-0.37,0.28-0.54,0.44l-0.49,0.43c-0.31,0.26-0.64,0.52-0.98,0.74
		c-0.69,0.44-1.45,0.79-2.27,1.01c-0.81,0.25-1.67,0.34-2.55,0.32l-0.02,0.07c1.74,0.3,3.57-0.05,5.11-0.91
		c0.38-0.22,0.75-0.46,1.1-0.74c0.35-0.28,0.67-0.56,1.03-0.81c0.71-0.5,1.49-0.91,2.32-1.16c0.83-0.26,1.7-0.4,2.57-0.39
		c0.07,0,0.15,0,0.22,0c-0.01,0.05-0.01,0.09-0.02,0.14c-0.03,0.26-0.03,0.53,0.01,0.8c0.07,0.56,0.28,1.11,0.59,1.59
		c0.21,0.33,0.46,0.61,0.73,0.89c-0.04,0.03-0.07,0.06-0.11,0.09C71.14,32.68,70.31,33.05,69.45,33.36z M78.68,33.45
		c-1.01-0.11-2.02-0.27-2.99-0.55c-0.96-0.29-1.9-0.66-2.75-1.17c-0.84-0.51-1.61-1.22-1.88-2.19c-0.09-0.29-0.11-0.6-0.1-0.9
		c0.17-0.1,0.35-0.2,0.53-0.28c0.43-0.2,0.91-0.28,1.38-0.38c0.47-0.09,0.95-0.15,1.42-0.18c0.96-0.06,1.92,0.04,2.84,0.28
		c0.93,0.23,1.81,0.64,2.62,1.14c0.41,0.25,0.78,0.54,1.18,0.83c0.4,0.28,0.81,0.53,1.25,0.75c0.63,0.31,1.55,0.48,2.47,0.56
		c-0.11,0.11-0.23,0.22-0.33,0.33L83,33.02c-0.14,0.15-0.29,0.29-0.44,0.44C81.27,33.58,79.97,33.58,78.68,33.45z M77.41,38.1
		c0.59-0.26,1.16-0.56,1.7-0.9c0.54-0.33,1.08-0.68,1.6-1.06c1.04-0.73,2.06-1.5,3.05-2.28c0.5-0.39,0.98-0.8,1.47-1.2
		c0.24-0.2,0.48-0.41,0.72-0.62c0.24-0.2,0.45-0.39,0.7-0.57c0.48-0.38,0.99-0.72,1.51-1.04c0.92,0.59,1.89,1.1,2.93,1.48
		c0.42,0.15,0.85,0.28,1.29,0.38c-0.21,0.05-0.43,0.1-0.64,0.17c-1.37,0.45-2.66,1.13-3.79,1.98c-0.29,0.21-0.56,0.43-0.82,0.66
		l-0.75,0.66c-0.48,0.4-0.97,0.78-1.49,1.12c-1.05,0.67-2.21,1.2-3.45,1.54c-1.23,0.37-2.54,0.52-3.87,0.49l-0.02,0.11
		c2.65,0.45,5.43-0.07,7.77-1.39c0.59-0.33,1.14-0.71,1.67-1.12c0.53-0.42,1.02-0.86,1.57-1.23c1.08-0.76,2.27-1.38,3.53-1.77
		c1.26-0.4,2.58-0.6,3.9-0.59c0.11,0,0.22,0,0.33,0.01c-0.01,0.07-0.02,0.13-0.03,0.21c-0.04,0.4-0.04,0.81,0.02,1.22
		c0.11,0.85,0.42,1.68,0.89,2.41c0.31,0.5,0.7,0.94,1.11,1.35c-0.06,0.04-0.11,0.09-0.17,0.13c-1.13,0.78-2.41,1.35-3.71,1.82
		c-1.31,0.46-2.69,0.76-4.08,0.98c-2.79,0.43-5.66,0.46-8.46-0.02c-2.41-0.41-4.81-1.12-7.03-2.25C75.73,38.7,76.6,38.47,77.41,38.1
		z M87.43,77.01c-1.88,0.55-3.86,0.87-5.84,1.08c-3.97,0.39-8.03,0.22-11.95-0.66c-2.74-0.62-5.45-1.53-8-2.8l-1.07-0.98
		c1.03-0.11,2.04-0.34,2.99-0.72c0.86-0.32,1.68-0.71,2.47-1.15c0.79-0.43,1.58-0.89,2.33-1.37c1.53-0.95,3.02-1.96,4.48-3
		c0.74-0.51,1.45-1.05,2.17-1.58c0.36-0.26,0.71-0.55,1.06-0.82c0.35-0.26,0.67-0.52,1.03-0.75c2.75-1.93,5.89-3.31,9.29-3.62
		c1.69-0.14,3.45,0.04,5.06,0.69c0.61,0.25,1.19,0.57,1.73,0.95c0,0.01,0,0.02,0,0.03l0.01,0.02c0.01,0.06,0,0.12,0.01,0.18
		c0.09,0.74,0.25,1.48,0.53,2.18c0,0,0,0.01,0.01,0.01c0.18,0.31,0.28,0.65,0.55,1.04c0.15,0.23,0.33,0.45,0.52,0.65
		c-0.04-0.01-0.09-0.03-0.13-0.04c-0.47-0.13-0.95-0.26-1.44-0.36c-0.97-0.22-1.96-0.39-2.96-0.47c-2.01-0.15-4.07,0.01-6.05,0.52
		c-1.97,0.53-3.84,1.4-5.51,2.51c-0.42,0.28-0.83,0.56-1.22,0.88l-1.11,0.87c-0.7,0.53-1.42,1.04-2.19,1.47
		c-1.54,0.87-3.22,1.53-4.99,1.91c-1.77,0.44-3.64,0.54-5.51,0.4l-0.04,0.15c3.71,0.84,7.68,0.3,11.09-1.37
		c0.85-0.42,1.67-0.91,2.44-1.46c0.78-0.55,1.5-1.13,2.31-1.61c1.59-0.99,3.31-1.78,5.13-2.24c1.81-0.47,3.69-0.66,5.56-0.54
		c0.94,0.05,1.87,0.17,2.79,0.35c0.92,0.18,1.85,0.35,2.7,0.74c0.36,0.16,0.71,0.35,1.04,0.55c0.02,0.6-0.03,1.2-0.2,1.77
		c-0.54,1.91-2.04,3.3-3.68,4.29C91.16,75.72,89.31,76.44,87.43,77.01z M49.67,51.36c0.74-0.34,1.55-0.48,2.36-0.64
		c0.81-0.15,1.62-0.26,2.44-0.3c1.64-0.11,3.28,0.06,4.86,0.47c1.59,0.4,3.09,1.09,4.48,1.95c0.71,0.42,1.34,0.93,2.02,1.41
		c0.68,0.48,1.39,0.91,2.14,1.28c0.8,0.39,1.64,0.69,2.5,0.94c0.43,0.81,0.92,1.61,1.46,2.36c0.17,0.23,0.35,0.46,0.53,0.68
		c-0.01,0-0.02,0.01-0.04,0.01c-2.3,0.52-4.64,0.74-6.99,0.74c0.26-0.8,0.49-1.6,0.68-2.41l0.34-1.43l-0.97,1.08
		c-0.45,0.5-0.96,0.96-1.52,1.33c-0.57,0.36-1.19,0.66-1.84,0.87c-0.36,0.12-0.73,0.21-1.1,0.29c-1.41-0.18-2.81-0.44-4.16-0.83
		c-0.95-0.29-1.89-0.62-2.79-1.01c-0.66-0.29-1.31-0.62-1.92-0.99c-1.43-0.87-2.75-2.09-3.22-3.75c-0.15-0.5-0.2-1.02-0.18-1.55
		C49.05,51.66,49.35,51.5,49.67,51.36z M51.26,59.01c0.11-0.1,0.2-0.22,0.3-0.33c0.39,0.3,0.79,0.59,1.2,0.85
		c0.35,0.22,0.72,0.42,1.09,0.61c0,0,0,0,0,0L51.75,60c-0.35-0.03-0.7-0.04-1.05-0.06c-0.18,0-0.37-0.01-0.55-0.01
		C50.53,59.64,50.91,59.34,51.26,59.01z M38.53,69.48c0.09-0.92,0.37-1.83,0.82-2.63c0.67-1.2,1.67-2.18,2.78-2.93
		c2.25-1.49,4.87-2.19,7.52-2.36c0.33-0.03,0.66-0.03,1.01-0.04c0.35-0.01,0.71,0,1.06-0.02c0.71-0.03,1.41-0.05,2.12-0.09
		c1.41-0.08,2.83-0.2,4.25-0.37c0.71-0.08,1.41-0.18,2.12-0.31c0.7-0.12,1.41-0.29,2.09-0.51c0.8-0.24,1.56-0.62,2.26-1.08
		c-1.23,1.27-3.22,3.41-5.38,4.33c-1.32,0.56-2.65,1.06-4.02,1.29c-0.69,0.11-1.39,0.15-2.08,0.17l-1.12,0.01
		c-0.39,0-0.79,0.02-1.18,0.06c-1.58,0.14-3.16,0.53-4.64,1.18c-1.09,0.49-2.11,1.12-3.04,1.86c-1.65,0.47-3.21,1.23-4.54,2.26
		C38.57,70.03,38.56,69.76,38.53,69.48z M38.42,68.6c-0.38-1.99-1.48-3.88-3.01-5.31c-0.04-0.04-0.08-0.07-0.12-0.11
		c2.06,0.19,4.15,0.16,6.21-0.12c-0.01,0.01-0.02,0.01-0.03,0.02C39.88,64.57,38.76,66.53,38.42,68.6z M46.64,67.31
		c1.34-0.62,2.8-0.98,4.27-1.15c0.74-0.1,1.47-0.1,2.22-0.15c0.75-0.04,1.51-0.08,2.23-0.31c5.56-1.72,7.7-4.3,9.46-6.53
		c-1.01,2.48-2.42,4.77-4.07,6.83c-1.27,1.59-2.72,3.01-4.28,4.29c-1.32-0.86-2.75-1.57-4.26-2.05c-1.92-0.6-3.95-0.87-5.95-0.73
		C46.39,67.44,46.51,67.37,46.64,67.31z M58.89,72.14c-0.27-0.23-0.55-0.47-0.84-0.71c1.49-1.34,2.83-2.83,4-4.45
		c1.04-1.43,1.89-2.98,2.57-4.6c2.78-0.01,5.56-0.38,8.24-1.12c0.29-0.08,0.57-0.17,0.85-0.26c0.58,0.64,1.18,1.26,1.82,1.84
		c-0.26,0.21-0.51,0.43-0.75,0.63c-0.33,0.3-0.67,0.58-0.99,0.89l-1.96,1.8c-1.3,1.2-2.63,2.38-4.02,3.46
		c-1.4,1.06-2.89,2.03-4.51,2.64c-0.81,0.32-1.65,0.5-2.5,0.6c-0.36,0.03-0.72,0.03-1.07,0.02C59.45,72.64,59.17,72.39,58.89,72.14z
		 M110.55,67.59c0.31,0.26,0.61,0.54,0.92,0.79c0.63,0.52,1.25,1.04,1.89,1.54c1.28,1.01,2.58,2,3.93,2.94
		c0.66,0.48,1.35,0.93,2.05,1.36c0.7,0.43,1.42,0.83,2.19,1.16c1.03,0.48,2.16,0.77,3.3,0.89c-2.85,1.46-5.94,2.37-9.04,2.9
		c-3.6,0.61-7.29,0.57-10.88,0.02c-1.79-0.29-3.57-0.67-5.25-1.26c-1.68-0.61-3.32-1.35-4.78-2.34c-0.07-0.05-0.14-0.1-0.21-0.15
		c0.53-0.54,1.01-1.11,1.42-1.75c0.6-0.94,1.01-2.01,1.15-3.11c0.07-0.52,0.07-1.05,0.02-1.56c-0.01-0.09-0.03-0.18-0.04-0.27
		c0.14,0,0.29-0.01,0.43-0.01c1.7-0.02,3.4,0.25,5.02,0.76c1.63,0.5,3.15,1.3,4.54,2.28c0.71,0.47,1.34,1.04,2.02,1.58
		c0.68,0.54,1.39,1.02,2.15,1.44c3.01,1.69,6.59,2.36,10,1.78l-0.03-0.14c-1.71,0.03-3.4-0.15-4.98-0.63
		c-1.59-0.43-3.08-1.12-4.44-1.98c-0.68-0.43-1.31-0.93-1.92-1.44l-0.97-0.84c-0.34-0.3-0.69-0.58-1.06-0.85
		c-1.46-1.09-3.11-1.97-4.88-2.54c-0.27-0.08-0.55-0.15-0.82-0.22c0.56-0.13,1.12-0.29,1.66-0.49c1.34-0.49,2.6-1.14,3.78-1.9
		c0.66,0.41,1.31,0.85,1.93,1.33C109.96,67.08,110.24,67.33,110.55,67.59z M94.1,58.88c0.61-1.09,1.51-1.97,2.51-2.65
		c2.03-1.35,4.4-1.98,6.8-2.13c0.3-0.03,0.6-0.03,0.91-0.04c0.32-0.01,0.64,0,0.96-0.02c0.64-0.02,1.28-0.04,1.92-0.09
		c1.28-0.07,2.56-0.18,3.84-0.33c0.64-0.07,1.28-0.16,1.91-0.28c0.64-0.11,1.27-0.26,1.89-0.46c0.86-0.26,1.67-0.68,2.4-1.21
		c-0.91,2.35-2.25,4.5-3.79,6.43c-1.79,2.24-3.98,4.15-6.37,5.71c-1.2,0.77-2.45,1.47-3.74,2.01c-1.3,0.52-2.65,0.95-4.03,1.13
		c-1.36,0.18-2.82,0.07-3.97-0.75c-0.35-0.24-0.65-0.55-0.9-0.9c0.1-0.26,0.21-0.52,0.34-0.77c0.3-0.59,0.74-1.1,1.18-1.62
		c0.44-0.51,0.9-0.99,1.4-1.44c0.99-0.9,2.12-1.64,3.34-2.18c1.21-0.56,2.53-0.88,3.85-1.04c0.67-0.09,1.33-0.09,2.01-0.13
		c0.68-0.04,1.35-0.13,2.01-0.28c2.65-0.58,5.1-2.06,6.8-4.19l-0.09-0.07c-0.98,0.91-2.07,1.69-3.25,2.24
		c-1.16,0.58-2.39,0.96-3.64,1.16c-0.62,0.1-1.25,0.14-1.88,0.16l-1.01,0.01c-0.36,0-0.71,0.02-1.07,0.05
		c-1.43,0.13-2.85,0.48-4.19,1.06c-1.33,0.6-2.55,1.43-3.6,2.41c-0.52,0.5-1,1.03-1.44,1.58c-0.22,0.28-0.43,0.56-0.64,0.84
		c-0.22,0.29-0.43,0.66-0.58,1c-0.03,0.08-0.06,0.15-0.09,0.23c-0.26-0.59-0.43-1.22-0.51-1.86c-0.01-0.08,0-0.17-0.01-0.25
		c0.04-0.38,0.04-0.75,0.03-1.13C93.47,60.33,93.72,59.56,94.1,58.88z M79.36,53.78c0.64,0.04,1.28,0.06,1.92,0.09
		c0.32,0.01,0.64,0.01,0.96,0.02c0.31,0.01,0.61,0.01,0.91,0.04c2.4,0.15,4.76,0.78,6.8,2.13c1.01,0.68,1.9,1.56,2.51,2.65
		c0.4,0.73,0.66,1.54,0.74,2.38c-0.02,0.25-0.03,0.5-0.03,0.74c-1.2-0.93-2.6-1.62-4.1-2.04c-0.84-0.66-1.76-1.24-2.75-1.68
		c-1.34-0.59-2.76-0.94-4.19-1.06c-0.36-0.03-0.71-0.06-1.07-0.05l-1.01-0.01c-0.63-0.02-1.26-0.06-1.88-0.16
		c-1.24-0.2-2.47-0.58-3.64-1.16c-1.18-0.55-2.27-1.32-3.25-2.24l-0.09,0.07c1.7,2.12,4.15,3.6,6.8,4.19
		c0.66,0.15,1.34,0.24,2.01,0.28c0.68,0.04,1.34,0.04,2.01,0.13c1.33,0.16,2.64,0.48,3.85,1.04c0.12,0.05,0.23,0.12,0.35,0.17
		c-1.81-0.12-3.64,0.12-5.38,0.66c-1.37,0.43-2.66,1.07-3.85,1.85c-1.42-1.15-2.72-2.44-3.87-3.88c-1.55-1.93-2.88-4.08-3.79-6.43
		c0.74,0.53,1.55,0.95,2.4,1.21c0.62,0.21,1.25,0.35,1.89,0.46c0.64,0.11,1.27,0.21,1.91,0.28C76.8,53.6,78.08,53.7,79.36,53.78z
		 M69.62,50.76c0.66,0.47,1.33,0.91,2.01,1.36c-0.5-0.18-0.97-0.41-1.42-0.68c-0.51-0.34-0.97-0.75-1.38-1.2l-0.14-0.15
		C69.01,50.31,69.31,50.54,69.62,50.76z M68.04,49.61l0.23,0.95c0.38,1.61,0.91,3.2,1.61,4.72c-0.49-0.22-0.98-0.45-1.44-0.71
		c-0.67-0.38-1.3-0.83-1.92-1.29l-0.97-0.76c-0.34-0.27-0.7-0.52-1.06-0.77c-1.46-0.97-3.09-1.73-4.82-2.19
		c-1.73-0.44-3.53-0.59-5.29-0.45c-0.88,0.07-1.74,0.22-2.59,0.41c-0.42,0.09-0.84,0.2-1.26,0.32c-0.04,0.01-0.09,0.03-0.14,0.05
		c0.17-0.18,0.34-0.37,0.48-0.58c0.23-0.34,0.32-0.64,0.48-0.91c0,0,0-0.01,0-0.01c0.24-0.62,0.38-1.26,0.46-1.91
		c0.01-0.07,0-0.13,0.01-0.2c0.47-0.33,0.98-0.61,1.51-0.83c1.41-0.57,2.95-0.73,4.43-0.61c2.97,0.27,5.72,1.48,8.13,3.17
		c0.31,0.2,0.59,0.43,0.9,0.66c0.31,0.24,0.61,0.48,0.93,0.72C67.83,49.45,67.94,49.53,68.04,49.61z M69.39,42.46
		c-1,1.25-2.14,2.38-3.38,3.39c-1.04-0.68-2.17-1.24-3.37-1.62c-1.52-0.47-3.13-0.69-4.71-0.58c0.1-0.05,0.2-0.11,0.31-0.15
		c1.06-0.49,2.21-0.77,3.37-0.91c0.58-0.08,1.16-0.08,1.76-0.12c0.59-0.03,1.18-0.1,1.76-0.24c4.22-1.02,6.04-3.32,7.46-5.14
		C71.8,39.04,70.68,40.84,69.39,42.46z M52.48,43.13c0.53-0.95,1.32-1.72,2.2-2.31c1.78-1.18,3.85-1.73,5.94-1.86
		c0.26-0.03,0.52-0.02,0.79-0.03c0.28-0.01,0.56,0,0.84-0.01c0.56-0.02,1.12-0.04,1.68-0.07c1.12-0.06,2.24-0.16,3.35-0.29
		c0.56-0.06,1.12-0.14,1.67-0.24c0.56-0.1,1.11-0.23,1.65-0.41c0.67-0.21,1.31-0.54,1.9-0.94c-0.91,0.95-2.39,2.71-4.36,3.51
		c-1.05,0.43-2.09,0.84-3.18,1.02c-0.55,0.09-1.1,0.12-1.64,0.14l-0.88,0.01c-0.31,0-0.62,0.02-0.93,0.05
		c-1.25,0.11-2.5,0.42-3.66,0.93c-0.86,0.39-1.67,0.89-2.4,1.47c-1.31,0.37-2.53,0.98-3.58,1.79c0.01-0.24-0.01-0.47-0.03-0.71
		C51.9,44.45,52.13,43.77,52.48,43.13z M48.84,40.98c0.88,0.59,1.66,1.37,2.2,2.31c0.33,0.6,0.54,1.27,0.63,1.95
		c-0.02,0.33-0.01,0.66,0.02,0.98c-0.01,0.07,0,0.15-0.01,0.22c-0.07,0.56-0.22,1.11-0.45,1.62c-0.03-0.07-0.05-0.13-0.08-0.2
		c-0.13-0.3-0.32-0.62-0.51-0.88c-0.18-0.25-0.36-0.5-0.56-0.74c-0.39-0.48-0.8-0.95-1.26-1.39c-0.92-0.86-1.99-1.58-3.15-2.11
		c-1.17-0.51-2.42-0.82-3.66-0.93c-0.31-0.03-0.62-0.05-0.93-0.05l-0.88-0.01c-0.55-0.02-1.1-0.05-1.64-0.14
		c-1.09-0.18-2.14-0.56-3.18-1.02c-1.73-0.76-3.45-2.6-4.41-3.54c0.6,0.41,1.26,0.75,1.95,0.96c0.54,0.18,1.1,0.31,1.65,0.41
		c0.56,0.1,1.11,0.18,1.67,0.24c1.12,0.13,2.24,0.23,3.35,0.29c0.56,0.04,1.12,0.05,1.67,0.07c0.28,0.01,0.56,0.01,0.84,0.01
		c0.27,0.01,0.53,0.01,0.79,0.03C44.99,39.25,47.06,39.8,48.84,40.98z M24.27,25.47c0.42-0.74,1.03-1.35,1.72-1.81
		c1.39-0.92,3-1.35,4.64-1.45c0.21-0.02,0.41-0.02,0.62-0.03c0.22,0,0.44,0,0.65-0.01c0.44-0.02,0.87-0.03,1.31-0.06
		c0.87-0.05,1.75-0.12,2.62-0.23c0.44-0.05,0.87-0.11,1.31-0.19c0.43-0.08,0.87-0.18,1.29-0.32c0.58-0.18,1.14-0.46,1.64-0.83
		c-0.62,1.6-1.53,3.07-2.59,4.39c-0.78,0.98-1.69,1.85-2.65,2.64c-0.81-0.53-1.69-0.96-2.62-1.26c-1.19-0.37-2.44-0.54-3.67-0.45
		c0.08-0.04,0.16-0.08,0.24-0.12c0.83-0.38,1.73-0.6,2.63-0.71c0.45-0.06,0.91-0.06,1.37-0.09c0.46-0.03,0.92-0.09,1.37-0.19
		c1.81-0.4,3.48-1.41,4.64-2.86l-0.06-0.04c-0.67,0.62-1.42,1.15-2.22,1.53c-0.79,0.39-1.63,0.65-2.48,0.79
		c-0.43,0.07-0.86,0.09-1.28,0.11l-0.69,0.01c-0.24,0-0.49,0.01-0.73,0.04c-0.97,0.09-1.95,0.33-2.86,0.73
		c-0.66,0.3-1.28,0.69-1.84,1.14c-1.03,0.29-2,0.77-2.83,1.41c0-0.19,0-0.38-0.02-0.57C23.83,26.49,24.01,25.95,24.27,25.47z
		 M9.94,25.07c-1.06-1.32-1.96-2.79-2.59-4.39c0.5,0.36,1.06,0.65,1.64,0.83c0.42,0.14,0.85,0.24,1.29,0.32
		c0.43,0.08,0.87,0.14,1.31,0.19c0.87,0.1,1.75,0.18,2.62,0.23c0.44,0.03,0.87,0.04,1.31,0.06c0.22,0.01,0.44,0.01,0.65,0.01
		c0.21,0.01,0.41,0.01,0.62,0.03c1.64,0.1,3.25,0.54,4.64,1.45c0.69,0.46,1.3,1.07,1.72,1.81c0.26,0.46,0.42,0.98,0.49,1.51
		c-0.01,0.21-0.01,0.42,0.01,0.62c-0.29,0.24-0.56,0.49-0.81,0.77l0.01-0.01c-0.14-0.19-0.28-0.39-0.44-0.58
		c-0.3-0.38-0.63-0.74-0.98-1.08c-0.72-0.67-1.55-1.24-2.46-1.65c-0.91-0.4-1.89-0.64-2.86-0.73c-0.24-0.02-0.49-0.04-0.73-0.04
		l-0.69-0.01c-0.43-0.01-0.86-0.04-1.28-0.11c-0.85-0.14-1.69-0.4-2.48-0.79c-0.81-0.37-1.55-0.9-2.22-1.53l-0.06,0.04
		c1.16,1.45,2.83,2.46,4.64,2.86c0.45,0.1,0.91,0.16,1.37,0.19c0.46,0.03,0.92,0.03,1.37,0.09c0.91,0.11,1.8,0.33,2.63,0.71
		c0.83,0.37,1.61,0.87,2.28,1.49c0.34,0.3,0.66,0.63,0.96,0.98c0.18,0.22,0.36,0.44,0.53,0.67c-0.1,0.14-0.21,0.28-0.3,0.43
		c-0.31,0.5-0.56,1.03-0.76,1.59c-0.57,0.15-1.17,0.15-1.75,0.08c-0.94-0.12-1.86-0.41-2.75-0.77c-0.88-0.36-1.73-0.85-2.55-1.37
		C12.66,27.9,11.17,26.6,9.94,25.07z M19.35,38.59c-1.15,0.4-2.36,0.66-3.59,0.86c-2.45,0.37-4.97,0.4-7.43-0.01
		c-2.12-0.36-4.23-0.98-6.17-1.98c0.78-0.08,1.55-0.28,2.26-0.61c0.52-0.22,1.02-0.5,1.49-0.79c0.48-0.29,0.95-0.6,1.4-0.93
		c0.92-0.64,1.81-1.31,2.68-2c0.44-0.34,0.86-0.7,1.29-1.05c0.21-0.18,0.42-0.36,0.63-0.54c0.21-0.17,0.4-0.35,0.61-0.5
		c0.42-0.33,0.87-0.63,1.32-0.91c0.81,0.52,1.66,0.96,2.57,1.3c0.37,0.14,0.75,0.24,1.13,0.33c-0.19,0.05-0.38,0.09-0.56,0.15
		c-1.2,0.39-2.33,0.99-3.33,1.74c-0.25,0.19-0.49,0.38-0.72,0.58l-0.66,0.58c-0.42,0.35-0.85,0.69-1.31,0.99
		c-0.93,0.59-1.94,1.05-3.03,1.35c-1.08,0.33-2.23,0.46-3.4,0.43l-0.02,0.09c2.33,0.4,4.77-0.07,6.83-1.22
		c0.51-0.29,1-0.62,1.47-0.99c0.46-0.37,0.89-0.75,1.38-1.08c0.95-0.66,1.99-1.21,3.1-1.55c1.11-0.35,2.27-0.53,3.43-0.52
		c0.1,0,0.2,0,0.29,0.01c-0.01,0.06-0.02,0.12-0.03,0.18c-0.03,0.35-0.03,0.71,0.01,1.07c0.1,0.75,0.37,1.48,0.78,2.12
		c0.28,0.44,0.61,0.82,0.97,1.19c-0.05,0.04-0.1,0.08-0.15,0.11C21.62,37.67,20.5,38.18,19.35,38.59z M27.7,37.97
		c-1.28-0.39-2.54-0.88-3.68-1.57c-1.12-0.68-2.15-1.63-2.51-2.93c-0.12-0.39-0.15-0.8-0.14-1.21c0.23-0.14,0.47-0.27,0.71-0.38
		c0.58-0.26,1.21-0.38,1.84-0.5c0.63-0.12,1.27-0.2,1.9-0.24c1.28-0.08,2.56,0.05,3.8,0.37c1.24,0.31,2.41,0.85,3.5,1.53
		c0.55,0.33,1.05,0.72,1.58,1.1c0.53,0.38,1.09,0.71,1.67,1c2.33,1.15,5.04,1.51,7.57,0.94l-0.03-0.1
		c-1.28,0.09-2.55,0.02-3.76-0.28c-1.21-0.26-2.36-0.72-3.41-1.31c-0.52-0.3-1.02-0.65-1.5-1.01l-0.76-0.6
		c-0.26-0.21-0.54-0.41-0.83-0.6c-1.14-0.76-2.41-1.35-3.76-1.71c-1.35-0.35-2.76-0.46-4.13-0.35c-0.69,0.06-1.36,0.17-2.02,0.32
		c-0.33,0.07-0.66,0.16-0.98,0.25c-0.34,0.09-0.71,0.24-1.03,0.4c-0.07,0.04-0.14,0.08-0.21,0.12c0.15-0.59,0.41-1.17,0.73-1.69
		c0.62-1.04,1.61-1.81,2.7-2.26c1.1-0.45,2.3-0.57,3.46-0.47c2.32,0.21,4.47,1.15,6.34,2.47c0.24,0.16,0.46,0.34,0.7,0.51
		c0.24,0.19,0.48,0.38,0.72,0.56c0.49,0.36,0.98,0.73,1.48,1.08c1,0.71,2.02,1.4,3.06,2.05c0.52,0.33,1.05,0.64,1.59,0.94
		c0.54,0.3,1.1,0.57,1.69,0.78c0.79,0.32,1.65,0.49,2.51,0.53c-1.64,0.95-3.4,1.65-5.21,2.16c-0.02,0-0.04,0-0.06,0l-1.66,0.11
		c-1.11,0.08-2.21,0.14-3.31,0.12c-1.1-0.03-2.2-0.13-3.23-0.48c-0.52-0.16-1-0.4-1.45-0.68c-0.45-0.29-0.85-0.65-1.2-1.05
		l-0.76-0.85l0.27,1.13c0.19,0.8,0.44,1.6,0.72,2.38C29.62,38.42,28.64,38.24,27.7,37.97z M34.12,42.62
		c-1.28-1.61-2.39-3.39-3.18-5.32c1.44,1.79,3.38,3.96,7.44,5.09c0.57,0.16,1.17,0.21,1.76,0.24c0.59,0.03,1.18,0.03,1.76,0.12
		c1.16,0.14,2.31,0.42,3.37,0.91c1.06,0.48,2.06,1.12,2.92,1.91c0.44,0.39,0.84,0.81,1.23,1.26c0.38,0.45,0.77,0.9,1.03,1.41
		c0.11,0.22,0.21,0.45,0.29,0.68c-0.22,0.3-0.48,0.57-0.79,0.78c-1.01,0.72-2.28,0.81-3.47,0.65c-1.2-0.16-2.38-0.53-3.52-0.98
		c-1.13-0.47-2.22-1.08-3.27-1.76C37.6,46.25,35.69,44.58,34.12,42.62z M27.05,57.72c0.67-0.29,1.3-0.63,1.91-1.01
		c0.61-0.38,1.21-0.77,1.79-1.19c1.17-0.82,2.32-1.68,3.43-2.57c0.56-0.44,1.11-0.9,1.65-1.35c0.27-0.23,0.54-0.46,0.81-0.69
		c0.27-0.22,0.51-0.44,0.78-0.64c0.54-0.42,1.11-0.8,1.69-1.16c1.03,0.66,2.13,1.23,3.3,1.66c0.47,0.17,0.96,0.31,1.45,0.43
		c-0.24,0.06-0.48,0.12-0.72,0.19c-1.54,0.5-2.99,1.27-4.27,2.22c-0.32,0.24-0.63,0.48-0.93,0.75l-0.85,0.74
		c-0.53,0.45-1.09,0.88-1.68,1.26c-1.18,0.75-2.49,1.35-3.88,1.73c-1.39,0.42-2.86,0.58-4.36,0.55l-0.03,0.12
		c2.98,0.51,6.11-0.08,8.74-1.56c0.66-0.37,1.29-0.79,1.88-1.26c0.59-0.47,1.14-0.96,1.77-1.38c1.22-0.85,2.55-1.55,3.97-1.99
		c1.42-0.45,2.9-0.68,4.39-0.66c0.13,0,0.25,0,0.38,0.01c-0.01,0.08-0.02,0.15-0.03,0.24c-0.04,0.45-0.04,0.91,0.02,1.37
		c0.12,0.96,0.48,1.89,1,2.72c0.35,0.56,0.79,1.05,1.25,1.52c-0.07,0.05-0.12,0.1-0.19,0.15c-1.27,0.87-2.71,1.52-4.18,2.05
		c-1.47,0.52-3.03,0.85-4.59,1.1c-3.14,0.48-6.37,0.52-9.51-0.02c-0.14-0.02-0.29-0.06-0.43-0.09c-0.99-0.38-2.04-0.62-3.09-0.73
		c-1.5-0.44-2.98-0.99-4.38-1.71C25.16,58.39,26.15,58.14,27.05,57.72z M16.12,66.2c-1.71-2.14-3.18-4.52-4.2-7.12
		c0.81,0.59,1.71,1.05,2.66,1.34c0.69,0.23,1.39,0.39,2.09,0.51c0.7,0.13,1.41,0.23,2.12,0.31c1.41,0.17,2.83,0.29,4.25,0.37
		c0.71,0.05,1.41,0.07,2.12,0.09c0.35,0.02,0.71,0.01,1.06,0.02c0.34,0.01,0.67,0.01,1.01,0.04c0.87,0.06,1.73,0.17,2.58,0.35
		c0.6,0.19,1.21,0.36,1.82,0.5c1.09,0.37,2.14,0.86,3.11,1.51c1.11,0.75,2.11,1.73,2.78,2.93c0.42,0.76,0.69,1.6,0.8,2.47
		c-0.02,0.41-0.02,0.83,0.03,1.25c-0.01,0.09,0,0.19-0.01,0.28c-0.09,0.7-0.28,1.41-0.57,2.06c-0.04-0.08-0.07-0.17-0.1-0.25
		c-0.17-0.38-0.4-0.78-0.64-1.11c-0.23-0.32-0.46-0.63-0.71-0.93c-0.49-0.61-1.02-1.2-1.59-1.75c-1.16-1.09-2.52-2.01-3.99-2.67
		c-1.48-0.65-3.06-1.04-4.64-1.18c-0.4-0.04-0.79-0.06-1.18-0.06l-1.12-0.01c-0.69-0.02-1.39-0.06-2.08-0.17
		c-1.38-0.23-2.74-0.65-4.02-1.29c-1.31-0.61-2.51-1.46-3.6-2.47l-0.1,0.07c1.88,2.35,4.59,3.99,7.52,4.63
		c0.73,0.16,1.48,0.26,2.23,0.31c0.75,0.04,1.49,0.04,2.22,0.15c1.47,0.18,2.92,0.54,4.27,1.15c1.35,0.61,2.6,1.42,3.7,2.42
		c0.55,0.49,1.07,1.03,1.55,1.59c0.48,0.57,0.97,1.13,1.3,1.79c0.14,0.28,0.26,0.56,0.37,0.86c-0.28,0.38-0.61,0.72-1,0.99
		c-1.27,0.91-2.89,1.03-4.39,0.83c-1.52-0.2-3.01-0.67-4.46-1.25c-1.43-0.59-2.81-1.37-4.14-2.22C20.52,70.8,18.1,68.68,16.12,66.2z
		 M31.37,88.13c-1.86,0.65-3.83,1.08-5.81,1.4c-3.97,0.61-8.06,0.65-12.04-0.02c-3.44-0.58-6.85-1.6-10.01-3.21
		c1.27-0.13,2.51-0.45,3.66-0.98c0.84-0.36,1.65-0.8,2.42-1.28c0.78-0.48,1.54-0.97,2.27-1.5c1.49-1.04,2.93-2.13,4.34-3.25
		c0.71-0.56,1.4-1.13,2.09-1.71c0.35-0.28,0.68-0.59,1.02-0.88c0.34-0.28,0.65-0.56,0.99-0.81c0.68-0.53,1.4-1.02,2.13-1.47
		c1.31,0.84,2.7,1.56,4.18,2.1c0.6,0.22,1.21,0.39,1.84,0.54c-0.3,0.08-0.61,0.15-0.91,0.24c-1.95,0.64-3.78,1.61-5.4,2.81
		c-0.41,0.3-0.8,0.61-1.17,0.95l-1.07,0.93c-0.68,0.57-1.38,1.12-2.12,1.6c-1.5,0.95-3.15,1.71-4.91,2.19
		c-1.75,0.53-3.62,0.74-5.51,0.7l-0.03,0.15c3.77,0.64,7.73-0.11,11.06-1.97c0.83-0.47,1.63-1,2.38-1.6
		c0.75-0.6,1.45-1.22,2.24-1.75c1.54-1.08,3.23-1.97,5.03-2.52c1.79-0.57,3.67-0.86,5.56-0.84c0.16,0,0.32,0,0.47,0.01
		c-0.01,0.1-0.03,0.2-0.04,0.3c-0.05,0.57-0.05,1.15,0.02,1.73c0.16,1.21,0.6,2.4,1.27,3.44c0.45,0.71,0.98,1.35,1.56,1.94
		c-0.08,0.06-0.15,0.12-0.23,0.17C35.05,86.64,33.23,87.46,31.37,88.13z M55.71,117.41c1.59-1.11,3.15-2.28,4.66-3.49
		c0.76-0.6,1.5-1.22,2.25-1.83c0.37-0.31,0.73-0.63,1.1-0.94c0.36-0.3,0.69-0.6,1.06-0.87c0.74-0.58,1.52-1.1,2.32-1.6
		c1.4,0.9,2.9,1.67,4.49,2.25c0.65,0.24,1.32,0.43,1.99,0.59c-0.34,0.09-0.69,0.17-1.02,0.27c-2.1,0.68-4.06,1.73-5.79,3.02
		c-0.44,0.32-0.86,0.66-1.26,1.02l-1.15,1c-0.73,0.61-1.48,1.2-2.28,1.71c-1.61,1.02-3.41,1.73-5.27,2.35
		c-2.6,0.86-7.04,0.61-9.53,0.49c1.18-0.17,2.33-0.49,3.4-0.98c0.91-0.39,1.77-0.86,2.6-1.38C54.1,118.51,54.92,117.98,55.71,117.41
		z M31,107.86c0.53-0.95,1.31-1.72,2.19-2.31c1.77-1.17,3.84-1.73,5.93-1.86c0.26-0.03,0.52-0.02,0.79-0.03
		c0.28-0.01,0.56,0,0.83-0.02c0.56-0.02,1.11-0.04,1.67-0.07c1.11-0.06,2.23-0.16,3.34-0.29c0.56-0.06,1.11-0.14,1.67-0.24
		c0.56-0.1,1.11-0.22,1.65-0.4c0.75-0.23,1.45-0.59,2.09-1.05c-0.8,2.05-1.96,3.92-3.31,5.61c-1,1.25-2.14,2.37-3.37,3.38
		c-1.04-0.68-2.17-1.24-3.36-1.62c-1.52-0.47-3.12-0.68-4.69-0.58c0.1-0.05,0.2-0.11,0.3-0.15c1.06-0.49,2.2-0.77,3.36-0.91
		c0.58-0.08,1.16-0.08,1.75-0.12c0.59-0.03,1.18-0.11,1.76-0.24c2.31-0.51,4.45-1.8,5.93-3.65l-0.08-0.06
		c-0.86,0.8-1.81,1.47-2.84,1.95c-1.01,0.5-2.09,0.83-3.17,1.01c-0.54,0.09-1.09,0.12-1.64,0.14l-0.88,0.01
		c-0.31,0-0.62,0.02-0.93,0.05c-1.24,0.11-2.49,0.42-3.65,0.93c-0.86,0.39-1.66,0.89-2.4,1.46c-1.3,0.37-2.53,0.97-3.58,1.78
		c0.01-0.23,0-0.46-0.03-0.69C30.43,109.17,30.66,108.48,31,107.86z M30.35,111.18c0.01-0.07,0-0.13,0.01-0.2
		c0.47-0.33,0.98-0.61,1.51-0.83c1.41-0.57,2.94-0.73,4.41-0.6c2.96,0.27,5.7,1.47,8.1,3.16c0.31,0.2,0.59,0.43,0.9,0.66
		c0.31,0.24,0.61,0.48,0.92,0.71c0.63,0.47,1.25,0.93,1.89,1.38c1.27,0.91,2.58,1.78,3.91,2.61c0.2,0.13,0.41,0.25,0.62,0.38
		c-0.72,0.48-1.47,0.91-2.26,1.25c-0.46,0.21-0.93,0.37-1.41,0.51c-0.7-0.27-1.38-0.58-2.03-0.95c-0.67-0.38-1.3-0.82-1.91-1.29
		l-0.97-0.76c-0.34-0.27-0.69-0.52-1.06-0.76c-1.46-0.97-3.08-1.72-4.8-2.19c-1.72-0.44-3.52-0.58-5.27-0.45
		c-0.88,0.07-1.74,0.22-2.58,0.41c-0.42,0.09-0.84,0.2-1.25,0.32c-0.04,0.01-0.09,0.03-0.14,0.05c0.17-0.18,0.34-0.37,0.48-0.58
		c0.23-0.34,0.32-0.64,0.48-0.91c0,0,0-0.01,0-0.01C30.13,112.47,30.27,111.83,30.35,111.18z M12.7,107.34
		c-1.35-1.69-2.51-3.56-3.31-5.61c0.64,0.46,1.35,0.83,2.09,1.05c0.54,0.18,1.09,0.31,1.65,0.4c0.55,0.1,1.11,0.18,1.67,0.24
		c1.11,0.13,2.23,0.23,3.34,0.29c0.56,0.04,1.11,0.05,1.67,0.07c0.28,0.01,0.56,0.01,0.83,0.01c0.27,0.01,0.53,0.01,0.79,0.03
		c2.09,0.13,4.15,0.68,5.93,1.86c0.88,0.59,1.66,1.36,2.19,2.31c0.52,0.94,0.79,2.06,0.64,3.15c-0.07,0.55-0.22,1.11-0.45,1.62
		c-0.03-0.07-0.05-0.13-0.08-0.2c-0.13-0.3-0.32-0.62-0.5-0.87c-0.18-0.25-0.36-0.5-0.56-0.74c-0.39-0.48-0.8-0.95-1.26-1.38
		c-0.92-0.86-1.98-1.58-3.14-2.1c-1.16-0.51-2.41-0.82-3.65-0.93c-0.31-0.03-0.62-0.05-0.93-0.05l-0.88-0.01
		c-0.55-0.02-1.1-0.05-1.64-0.14c-1.08-0.18-2.16-0.51-3.17-1.01c-1.03-0.48-1.98-1.15-2.84-1.95l-0.08,0.06
		c1.48,1.85,3.62,3.14,5.93,3.65c0.58,0.13,1.17,0.21,1.76,0.24c0.59,0.03,1.17,0.03,1.75,0.12c1.16,0.14,2.3,0.42,3.36,0.91
		c1.06,0.48,2.05,1.12,2.91,1.9c0.44,0.39,0.84,0.81,1.22,1.25c0.38,0.45,0.76,0.89,1.02,1.41c0.11,0.22,0.21,0.44,0.29,0.67
		c-0.22,0.3-0.48,0.57-0.79,0.78c-1,0.72-2.28,0.81-3.46,0.65c-1.2-0.15-2.38-0.52-3.51-0.98c-1.13-0.47-2.21-1.08-3.26-1.75
		C16.17,110.96,14.26,109.3,12.7,107.34z M28.88,122.58c-1.27,0.87-2.7,1.51-4.17,2.04c-1.47,0.52-3.02,0.85-4.58,1.1
		c-3.13,0.48-6.35,0.52-9.49-0.02c-2.71-0.46-5.4-1.26-7.88-2.53c1-0.11,1.98-0.36,2.88-0.77c0.67-0.29,1.3-0.63,1.91-1.01
		c0.61-0.38,1.21-0.77,1.79-1.18c1.17-0.82,2.31-1.68,3.42-2.56c0.56-0.44,1.1-0.89,1.65-1.35c0.27-0.22,0.54-0.46,0.8-0.69
		c0.27-0.22,0.51-0.44,0.78-0.64c0.54-0.42,1.1-0.8,1.68-1.16c1.03,0.66,2.13,1.23,3.3,1.66c0.47,0.17,0.96,0.31,1.45,0.43
		c-0.24,0.06-0.48,0.12-0.71,0.19c-1.54,0.5-2.98,1.27-4.25,2.22c-0.32,0.24-0.63,0.48-0.93,0.75l-0.84,0.74
		c-0.53,0.45-1.08,0.88-1.67,1.26c-1.18,0.75-2.48,1.35-3.87,1.72c-1.38,0.42-2.85,0.58-4.34,0.55l-0.03,0.12
		c2.97,0.51,6.09-0.08,8.72-1.56c0.66-0.37,1.28-0.79,1.87-1.26c0.59-0.47,1.14-0.96,1.76-1.38c1.22-0.85,2.54-1.55,3.96-1.99
		c1.41-0.45,2.89-0.68,4.38-0.66c0.12,0,0.25,0,0.37,0.01c-0.01,0.08-0.02,0.15-0.03,0.24c-0.04,0.45-0.04,0.91,0.02,1.36
		c0.12,0.95,0.48,1.89,1,2.71c0.35,0.56,0.79,1.05,1.25,1.52C29.01,122.48,28.95,122.53,28.88,122.58z M40.47,124.77
		c-1.73-0.19-3.45-0.46-5.1-0.94c-1.64-0.5-3.25-1.12-4.7-2c-1.43-0.87-2.74-2.08-3.21-3.74c-0.15-0.5-0.2-1.02-0.18-1.54
		c0.29-0.18,0.6-0.34,0.91-0.48c0.74-0.33,1.55-0.48,2.35-0.64c0.8-0.15,1.62-0.26,2.43-0.3c1.63-0.11,3.27,0.06,4.85,0.47
		c1.58,0.4,3.08,1.09,4.47,1.95c0.71,0.42,1.34,0.93,2.02,1.41c0.68,0.48,1.39,0.91,2.13,1.27c0.23,0.11,0.47,0.22,0.71,0.32
		c-0.74,0.07-1.47,0.07-2.21-0.01l-1.96-0.22l1.65,1.15c1.58,1.11,3.25,2.1,5,2.97C46.6,124.97,43.51,125.07,40.47,124.77z
		 M82.32,120.64c-1.73,1.18-3.68,2.06-5.67,2.78c-2,0.7-4.11,1.16-6.24,1.5c-4.26,0.65-8.65,0.7-12.92-0.03
		c-3.53-0.6-7.04-1.63-10.31-3.24c4.2,0.6,10.95,0.84,15.55-1.97c0.88-0.53,1.75-1.08,2.55-1.71c0.81-0.64,1.55-1.31,2.4-1.87
		c1.66-1.16,3.47-2.11,5.4-2.7c1.92-0.61,3.94-0.92,5.96-0.9c0.18,0,0.36,0.01,0.53,0.01c-0.01,0.1-0.03,0.2-0.04,0.3
		c-0.06,0.61-0.06,1.24,0.02,1.86c0.17,1.3,0.65,2.57,1.36,3.69c0.48,0.76,1.05,1.44,1.67,2.07
		C82.5,120.5,82.42,120.58,82.32,120.64z M85.24,100.57c0.72-1.29,1.79-2.34,2.98-3.14c2.41-1.6,5.23-2.35,8.07-2.53
		c0.36-0.03,0.71-0.03,1.08-0.05c0.38-0.01,0.76,0,1.14-0.02c0.76-0.03,1.52-0.05,2.28-0.1c1.52-0.09,3.04-0.21,4.56-0.39
		c0.76-0.08,1.52-0.19,2.27-0.33c0.76-0.13,1.51-0.31,2.24-0.55c1.02-0.31,1.98-0.81,2.85-1.44c-1.08,2.79-2.67,5.34-4.5,7.64
		c-1.36,1.7-2.92,3.23-4.6,4.6c-1.42-0.92-2.95-1.68-4.57-2.2c-2.07-0.64-4.24-0.93-6.39-0.79c0.14-0.07,0.27-0.14,0.41-0.21
		c1.44-0.66,3-1.05,4.58-1.24c0.79-0.11,1.58-0.11,2.39-0.16c0.8-0.05,1.6-0.15,2.39-0.33c3.14-0.69,6.06-2.45,8.07-4.97l-0.11-0.08
		c-1.17,1.09-2.46,2.01-3.86,2.66c-1.38,0.69-2.84,1.14-4.32,1.38c-0.74,0.12-1.49,0.17-2.23,0.19l-1.2,0.01
		c-0.42,0-0.85,0.03-1.27,0.06c-1.69,0.15-3.39,0.57-4.98,1.26c-1.17,0.53-2.27,1.21-3.26,2c-1.78,0.51-3.44,1.34-4.87,2.45
		c0.01-0.33,0-0.66-0.03-0.99C84.47,102.34,84.77,101.41,85.24,100.57z M86.42,103.7c1.92-0.78,4-0.99,6.01-0.82
		c4.04,0.37,7.77,2.01,11.04,4.3c0.42,0.28,0.8,0.59,1.22,0.9c0.42,0.32,0.83,0.66,1.26,0.97c0.85,0.63,1.7,1.27,2.58,1.88
		c1.74,1.23,3.51,2.43,5.33,3.56c0.9,0.58,1.83,1.12,2.77,1.63c0.94,0.52,1.92,0.99,2.93,1.36c1.38,0.55,2.87,0.85,4.37,0.93
		c-3.62,2.1-7.58,3.51-11.6,4.41c-4.66,1.05-9.48,1.25-14.2,0.78c-2.36-0.25-4.7-0.63-6.94-1.28c-2.24-0.68-4.43-1.53-6.4-2.73
		c-1.95-1.18-3.74-2.83-4.37-5.1c-0.2-0.68-0.27-1.39-0.24-2.1c0.4-0.24,0.81-0.46,1.24-0.65c1-0.46,2.11-0.66,3.2-0.88
		c1.09-0.21,2.2-0.36,3.31-0.41c2.22-0.14,4.46,0.08,6.61,0.64c2.16,0.54,4.2,1.48,6.09,2.66c0.96,0.57,1.82,1.26,2.75,1.92
		c0.92,0.65,1.89,1.24,2.9,1.73c4.04,1.99,8.76,2.63,13.17,1.63l-0.05-0.18c-2.23,0.16-4.44,0.04-6.55-0.48
		c-2.11-0.46-4.1-1.24-5.93-2.27c-0.91-0.52-1.77-1.12-2.61-1.75l-1.32-1.04c-0.46-0.37-0.95-0.71-1.44-1.04
		c-1.98-1.32-4.2-2.35-6.54-2.98c-2.35-0.6-4.8-0.8-7.18-0.61c-1.19,0.1-2.37,0.3-3.52,0.56c-0.58,0.12-1.14,0.27-1.71,0.43
		c-0.58,0.15-1.24,0.41-1.79,0.7c-0.12,0.06-0.24,0.13-0.36,0.2c0.27-1.03,0.71-2.04,1.26-2.94
		C82.79,105.82,84.52,104.48,86.42,103.7z M58.66,93.67c0.74,0.24,1.49,0.42,2.24,0.55c0.76,0.14,1.51,0.25,2.27,0.33
		c1.52,0.18,3.04,0.31,4.56,0.39c0.76,0.05,1.52,0.07,2.28,0.1c0.38,0.02,0.76,0.01,1.14,0.02c0.37,0.01,0.72,0.01,1.08,0.05
		c2.84,0.18,5.66,0.93,8.07,2.53c1.19,0.8,2.26,1.86,2.98,3.14c0.62,1.11,0.95,2.39,0.91,3.68c-0.52,0.42-1,0.87-1.44,1.36
		c0,0,0,0,0,0c-0.24-0.34-0.49-0.68-0.76-1c-0.53-0.66-1.09-1.29-1.71-1.88c-1.25-1.17-2.7-2.15-4.28-2.87
		c-1.59-0.7-3.28-1.11-4.98-1.26c-0.42-0.04-0.85-0.07-1.27-0.06l-1.2-0.01c-0.74-0.02-1.49-0.07-2.23-0.19
		c-1.48-0.24-2.94-0.69-4.32-1.38c-1.4-0.65-2.69-1.57-3.86-2.66l-0.11,0.08c2.01,2.52,4.93,4.28,8.07,4.97
		c0.79,0.17,1.59,0.28,2.39,0.33c0.81,0.05,1.6,0.05,2.39,0.16c1.58,0.19,3.14,0.58,4.58,1.24c1.45,0.65,2.79,1.52,3.97,2.59
		c0.6,0.53,1.15,1.1,1.66,1.71c0.32,0.38,0.64,0.76,0.92,1.16c-0.18,0.25-0.37,0.48-0.53,0.74c-0.54,0.87-1,1.79-1.36,2.77
		c-0.98,0.25-2.02,0.26-3.02,0.13c-1.63-0.21-3.24-0.71-4.78-1.34c-1.54-0.63-3.02-1.47-4.44-2.38c-2.84-1.85-5.44-4.11-7.57-6.78
		c-1.84-2.3-3.42-4.85-4.5-7.64C56.68,92.86,57.64,93.36,58.66,93.67z M68.6,81.34c0.88,0.48,1.79,0.92,2.73,1.27
		c1.29,0.51,2.67,0.79,4.08,0.87c-3.38,1.96-7.07,3.27-10.81,4.11c-4.34,0.98-8.83,1.16-13.23,0.73c-2.2-0.24-4.38-0.59-6.47-1.2
		c-2.08-0.63-4.13-1.42-5.96-2.54c-1.81-1.1-3.48-2.64-4.08-4.75c-0.19-0.63-0.25-1.29-0.23-1.96c0.37-0.22,0.76-0.43,1.16-0.61
		c0.94-0.42,1.97-0.61,2.98-0.82c1.02-0.19,2.05-0.33,3.09-0.38c2.07-0.13,4.15,0.08,6.16,0.6c2.01,0.5,3.91,1.38,5.67,2.47
		c0.9,0.53,1.7,1.17,2.56,1.79c0.86,0.61,1.76,1.15,2.7,1.62c3.77,1.86,8.17,2.45,12.27,1.52l-0.05-0.17
		c-2.08,0.15-4.14,0.03-6.1-0.45c-1.96-0.43-3.82-1.16-5.52-2.12c-0.85-0.48-1.65-1.05-2.43-1.63l-1.23-0.96
		c-0.43-0.35-0.88-0.66-1.35-0.97c-1.85-1.23-3.91-2.19-6.1-2.77c-2.19-0.56-4.47-0.74-6.69-0.57c-1.11,0.09-2.21,0.28-3.28,0.52
		c-0.54,0.12-1.06,0.26-1.59,0.4c-0.05,0.01-0.1,0.03-0.15,0.05c0.21-0.23,0.4-0.47,0.57-0.72c0.29-0.43,0.41-0.81,0.6-1.15
		c0,0,0-0.01,0.01-0.01c0.31-0.78,0.49-1.6,0.59-2.41c0.01-0.07,0-0.15,0.01-0.22l0.01,0c0-0.01,0-0.02,0-0.04
		c0.6-0.42,1.24-0.77,1.91-1.05c1.79-0.72,3.73-0.93,5.6-0.77c3.76,0.34,7.24,1.87,10.29,4.01c0.39,0.26,0.75,0.55,1.14,0.83
		c0.39,0.3,0.77,0.61,1.17,0.91c0.79,0.59,1.59,1.18,2.4,1.75c1.62,1.15,3.27,2.26,4.96,3.32C66.85,80.36,67.72,80.86,68.6,81.34z"
		/>
	<path class="st0" d="M45.08,19.08c2.27,0.5,4.64,0.6,6.96,0.26c1.16-0.17,2.3-0.45,3.41-0.89c1.1-0.43,2.15-1.04,3.04-1.87
		c0.08-0.08,0.15-0.16,0.23-0.24c0.97,0.76,2.06,1.31,3.2,1.69c1.24,0.42,2.52,0.66,3.8,0.78c2.56,0.24,5.16-0.01,7.63-0.69
		c2.48-0.68,4.76-1.95,6.74-3.5l0.88-0.69l-1.08,0.18c-0.51,0.08-1.02,0.11-1.53,0.06c-0.51-0.06-1.02-0.17-1.5-0.36
		c-0.98-0.36-1.87-0.95-2.71-1.58c-0.84-0.65-1.63-1.36-2.42-2.08l-1.18-1.08c-0.19-0.18-0.4-0.36-0.6-0.53
		c-0.15-0.13-0.3-0.26-0.45-0.38c0.81-0.73,1.54-1.54,2.17-2.41c1.08-1.49,1.78-3.21,2.2-4.96L74.04,0l-0.52,0.58
		c-0.24,0.27-0.52,0.52-0.83,0.72c-0.31,0.19-0.64,0.36-1,0.47c-0.71,0.24-1.47,0.31-2.22,0.33c-0.76,0.01-1.51-0.03-2.27-0.08
		l-1.14-0.08c-0.19-0.02-0.38-0.02-0.57-0.03c-0.19-0.01-0.4-0.02-0.6-0.01c-0.8,0.02-1.61,0.16-2.37,0.45
		c-0.75,0.3-1.46,0.72-2.04,1.27c-0.86,0.8-1.46,1.86-1.65,2.98c-0.21-1.08-0.81-2.09-1.64-2.87c-0.58-0.55-1.29-0.98-2.04-1.27
		c-0.76-0.29-1.56-0.43-2.37-0.45c-0.2-0.01-0.4,0.01-0.6,0.01c-0.19,0.01-0.38,0.02-0.57,0.03l-1.14,0.08
		c-0.76,0.05-1.52,0.09-2.27,0.08c-0.75-0.02-1.51-0.09-2.22-0.33c-0.36-0.11-0.69-0.28-1-0.47c-0.31-0.2-0.58-0.45-0.83-0.72
		l-0.52-0.58l0.18,0.78c0.41,1.75,1.12,3.48,2.2,4.96c0.88,1.21,1.93,2.29,3.12,3.19c-0.3,0.2-0.6,0.42-0.87,0.65
		c-0.2,0.16-0.38,0.35-0.56,0.52c-0.17,0.17-0.35,0.34-0.51,0.51l-1.02,1.04c-0.68,0.69-1.36,1.38-2.09,2
		c-0.73,0.62-1.51,1.19-2.38,1.57c-0.43,0.2-0.89,0.32-1.35,0.4c-0.46,0.07-0.93,0.07-1.39,0.02l-0.99-0.11l0.83,0.58
		C40.67,17.54,42.79,18.58,45.08,19.08z M59.33,5.66c0.37-0.65,0.91-1.18,1.51-1.59c1.22-0.81,2.64-1.19,4.08-1.28
		c0.18-0.02,0.36-0.02,0.55-0.02c0.19,0,0.38,0,0.57-0.01c0.38-0.01,0.77-0.03,1.15-0.05c0.77-0.04,1.54-0.11,2.3-0.2
		c0.38-0.04,0.77-0.1,1.15-0.17c0.38-0.07,0.76-0.15,1.13-0.28c0.51-0.16,1-0.41,1.44-0.73c-0.55,1.41-1.35,2.7-2.28,3.86
		c-0.69,0.86-1.47,1.63-2.33,2.33c-0.72-0.47-1.49-0.85-2.31-1.11c-1.05-0.33-2.15-0.47-3.23-0.4c0.07-0.03,0.14-0.07,0.21-0.1
		c0.73-0.34,1.52-0.53,2.32-0.63c0.4-0.06,0.8-0.06,1.21-0.08c0.41-0.02,0.81-0.08,1.21-0.17c1.59-0.35,3.06-1.24,4.08-2.51
		l-0.05-0.04c-0.59,0.55-1.24,1.01-1.95,1.34c-0.7,0.35-1.44,0.58-2.18,0.7c-0.37,0.06-0.75,0.08-1.13,0.09l-0.61,0.01
		c-0.21,0-0.43,0.01-0.64,0.03c-0.86,0.08-1.71,0.29-2.52,0.64c-0.59,0.27-1.15,0.61-1.65,1.01c-0.9,0.26-1.74,0.68-2.46,1.24
		c0-0.17,0-0.33-0.02-0.5C58.94,6.56,59.09,6.09,59.33,5.66z M59.93,7.25c0.97-0.39,2.03-0.5,3.04-0.42
		c2.04,0.19,3.93,1.02,5.58,2.18c0.21,0.14,0.41,0.3,0.62,0.45c0.21,0.16,0.42,0.33,0.64,0.49c0.43,0.32,0.86,0.64,1.3,0.95
		c0.88,0.62,1.78,1.23,2.69,1.8c0.46,0.29,0.92,0.56,1.4,0.82c0.48,0.26,0.97,0.5,1.48,0.69c0.7,0.28,1.45,0.43,2.21,0.47
		c-1.83,1.06-3.84,1.77-5.87,2.23c-2.35,0.53-4.79,0.63-7.18,0.4c-1.19-0.13-2.38-0.32-3.51-0.65c-1.13-0.34-2.24-0.77-3.24-1.38
		c-0.99-0.6-1.89-1.43-2.21-2.58c-0.1-0.34-0.14-0.7-0.12-1.06c0.2-0.12,0.41-0.23,0.63-0.33c0.51-0.23,1.07-0.33,1.62-0.44
		c0.55-0.1,1.11-0.18,1.68-0.21c1.12-0.07,2.25,0.04,3.34,0.32c1.09,0.27,2.12,0.75,3.08,1.34c0.49,0.29,0.92,0.64,1.39,0.97
		c0.47,0.33,0.96,0.63,1.47,0.88c2.05,1.01,4.43,1.33,6.66,0.83l-0.03-0.09c-1.13,0.08-2.25,0.02-3.31-0.24
		c-1.07-0.23-2.07-0.63-3-1.15c-0.46-0.26-0.9-0.57-1.32-0.89l-0.67-0.52c-0.23-0.19-0.48-0.36-0.73-0.53
		c-1-0.67-2.12-1.19-3.31-1.51c-1.19-0.31-2.43-0.4-3.63-0.31c-0.6,0.05-1.2,0.15-1.78,0.28c-0.29,0.06-0.58,0.14-0.86,0.22
		c-0.3,0.08-0.63,0.21-0.91,0.35c-0.06,0.03-0.12,0.07-0.18,0.1c0.14-0.52,0.36-1.03,0.64-1.49C58.09,8.32,58.96,7.64,59.93,7.25z
		 M46.72,5.31c-0.93-1.16-1.73-2.45-2.28-3.86c0.44,0.32,0.93,0.57,1.44,0.73c0.37,0.12,0.75,0.21,1.13,0.28
		c0.38,0.07,0.77,0.13,1.15,0.17c0.77,0.09,1.54,0.16,2.3,0.2c0.38,0.02,0.77,0.04,1.15,0.05c0.19,0.01,0.38,0.01,0.57,0.01
		c0.19,0.01,0.36,0.01,0.55,0.02c1.44,0.09,2.86,0.47,4.08,1.28c0.6,0.41,1.14,0.94,1.51,1.59c0.31,0.56,0.48,1.21,0.46,1.86
		c-0.26,0.21-0.51,0.44-0.73,0.69c0,0,0,0,0,0c-0.12-0.17-0.25-0.34-0.38-0.51c-0.27-0.33-0.55-0.65-0.87-0.95
		c-0.63-0.59-1.37-1.09-2.16-1.45c-0.8-0.35-1.66-0.56-2.52-0.64c-0.21-0.02-0.43-0.03-0.64-0.03l-0.61-0.01
		c-0.38-0.01-0.75-0.04-1.13-0.09c-0.75-0.12-1.49-0.35-2.18-0.7c-0.71-0.33-1.36-0.79-1.95-1.34l-0.05,0.04
		c1.02,1.28,2.49,2.16,4.08,2.51c0.4,0.09,0.8,0.14,1.21,0.17c0.41,0.02,0.81,0.02,1.21,0.08c0.8,0.1,1.59,0.29,2.32,0.63
		c0.73,0.33,1.41,0.77,2.01,1.31c0.3,0.27,0.58,0.56,0.84,0.86c0.16,0.19,0.32,0.38,0.47,0.58c-0.09,0.12-0.19,0.24-0.27,0.38
		c-0.27,0.44-0.51,0.91-0.69,1.4c-0.49,0.13-1.02,0.13-1.53,0.06c-0.83-0.11-1.64-0.36-2.42-0.68c-0.78-0.32-1.53-0.74-2.25-1.21
		C49.11,7.81,47.8,6.66,46.72,5.31z M41.85,15.7c0.46-0.2,0.89-0.44,1.31-0.7c0.42-0.26,0.83-0.53,1.23-0.82
		c0.81-0.56,1.59-1.16,2.36-1.76c0.39-0.3,0.76-0.62,1.14-0.93c0.19-0.15,0.37-0.32,0.55-0.48c0.18-0.15,0.35-0.3,0.54-0.44
		c0.37-0.29,0.77-0.56,1.17-0.81c0.71,0.45,1.46,0.84,2.27,1.14c0.33,0.12,0.67,0.22,1.01,0.3c-0.17,0.04-0.35,0.09-0.52,0.14
		c-1.06,0.35-2.05,0.87-2.93,1.53c-0.22,0.16-0.44,0.33-0.64,0.51l-0.58,0.51c-0.37,0.31-0.75,0.61-1.15,0.87
		c-0.81,0.52-1.72,0.88-2.67,1.19c-1.31,0.43-3.56,0.31-4.82,0.25C40.72,16.11,41.31,15.95,41.85,15.7z M47.94,15.34
		c0.44-0.27,0.88-0.54,1.29-0.87c0.41-0.32,0.79-0.66,1.21-0.95c0.84-0.58,1.75-1.07,2.73-1.37c0.97-0.31,1.99-0.47,3.02-0.46
		c0.09,0,0.18,0,0.27,0.01c-0.01,0.05-0.01,0.1-0.02,0.15c-0.03,0.31-0.03,0.62,0.01,0.94c0.08,0.66,0.33,1.3,0.69,1.87
		c0.24,0.38,0.53,0.73,0.85,1.05c-0.05,0.03-0.09,0.07-0.13,0.11c-0.88,0.6-1.86,1.04-2.87,1.41c-1.01,0.35-2.08,0.59-3.16,0.76
		c-2.16,0.33-4.37,0.36-6.54-0.01c-1.79-0.3-3.56-0.82-5.22-1.64C42.2,16.64,45.61,16.76,47.94,15.34z"/>
</g>
</svg>
