<?xml version="1.0" encoding="utf-8"?>
<!-- Generator: Adobe Illustrator 24.1.2, SVG Export Plug-In . SVG Version: 6.00 Build 0)  -->
<svg version="1.1" id="Layer_1" xmlns="http://www.w3.org/2000/svg" xmlns:xlink="http://www.w3.org/1999/xlink" x="0px" y="0px"
	 viewBox="0 0 128 128" style="enable-background:new 0 0 128 128;" xml:space="preserve">
<style type="text/css">
	.st0{fill:#2D2D2D;}
</style>
<g>
	<path class="st0" d="M124.2,50.7l0.4-0.3l2.9-2.2l0.5-0.4l-0.5-0.6c-2.2-2.8-4.4-5.5-6.7-8.1c-2.3-2.7-4.6-5.3-6.9-7.9
		c-2.4-2.6-4.8-5.1-7.3-7.6c-2.5-2.5-5-4.9-7.6-7.3c0,0,0,0,0,0c0-0.1-0.1-0.1-0.2,0c0,0,0,0,0,0c0,0,0,0,0,0c0,0,0,0,0,0
		c-1.2,0.8-2.4,1.7-3.6,2.6l-0.2,0.2l0,0.4c-0.1,2.5,0,4.9,0,7.3c-1.1,0.6-2.2,1.2-3.3,1.9c-1.3,0.7-2.6,1.5-3.8,2.3
		c-1.3,0.8-2.6,1.6-3.9,2.4c0.5-0.6,0.9-1.2,1.4-1.8c1.4-1.8,2.9-3.4,4.6-5l0.4-0.4L90,25.5c-0.7-0.8-1.3-1.6-2-2.4
		c-0.4-0.5-0.9-1-1.4-1.5c0.6-0.6,1.1-1.2,1.7-1.8c0.8-0.8,1.5-1.7,2.3-2.6c1.5-1.8,3-3.6,4.3-5.5c0,0,0-0.1,0-0.1
		c0,0,0.1-0.1,0-0.2C93.5,9.7,92,7.9,90.5,6l-2.2-2.7l-2.2-2.7L85.5,0l-0.6,0.7c-3.6,3.8-7.1,7.6-10.6,11.4
		c-1.7,1.9-3.4,3.9-5.1,5.9l-5,6c-3.3,4-6.6,8-10.1,11.8c-3.5,3.9-7.1,7.6-10.7,11.4l-0.5,0.5l0.6,0.5l2.7,2.5l0.6,0.6l0.6-0.6
		c1.5-1.5,2.9-3.1,4.3-4.6c-0.5,3-0.9,6-1.3,9c-0.4,3.6-0.8,7.3-1.1,10.9c0,0.6-0.1,1.1-0.1,1.7c-1,0-2-0.1-3,0.1
		C43.8,68,41.5,69,39.9,71c-0.2,0.3-0.4,0.6-0.5,0.8c-1.9-0.3-3.8-0.5-5.7-0.6c-2-0.2-4,0-6.1-0.1c-1.1-0.1-2.1,0.1-3.1,0.3
		c-1,0.2-2,0.5-3,0.9c-1.9,0.7-3.8,1.7-5.4,3c-1.6,1.3-3.1,2.6-4.5,4.2c-1.4,1.5-2.6,3.2-3.5,5.1c-0.4,1-0.7,2-1,3c0,0,0,0.1,0,0.1
		C4.7,87.9,2.4,88,0,88.1v0.2c2.3,0.1,4.6,0.2,7,0.3c-0.2,0.7-0.3,1.4-0.4,2.1c-0.3,2-0.4,4-0.2,6.1c-0.2,1.1-0.3,2-0.5,3l-0.4,3.1
		c-0.3,2.1-0.5,4.1-0.8,6.1c-0.2,1-0.3,2.1-0.5,2.9l-0.8,3c-0.3,1-0.6,2-0.9,2.9c-0.2,0.5-0.3,1-0.5,1.4c-0.2,0.4-0.4,0.9-0.6,1.2
		l-0.2,0.2l0,0.3l0,2.1c-0.2,0.2-0.3,0.5-0.5,0.8c-0.2,0.4-0.4,0.7-0.5,1.2c-0.1,0.4-0.3,1-0.1,1.7c0.1,0.4,0.4,0.7,0.7,0.9
		c0.3,0.2,0.6,0.3,0.9,0.3l0.1,0l0.1,0l9.4,0l1.8,0l-1-1.5c-0.6-0.9-1.2-1.8-1.6-2.7c-0.1-0.2-0.2-0.5-0.3-0.7
		c-0.1-0.1-0.1-0.2-0.1-0.3c0-0.1,0-0.1-0.1-0.2c-0.1-0.4-0.1-0.9-0.1-1.4c0-1,0.1-2.1,0.3-3.1c0-0.3,0.1-0.5,0.1-0.8
		c0-0.1,0.1-0.2,0.1-0.3l0-0.2l0-0.1c0.3-0.6,0.4-1.2,0.5-1.7c0.3-1,0.7-1.9,1.2-2.7c0.1-0.2,0.3-0.4,0.4-0.5l0.6-0.6l1.1-1.2
		c0.7-0.8,1.4-1.4,2.3-1.7c0.1,0,0.2-0.1,0.3-0.1c0.1,0,0.2,0,0.3,0c0.2,0,0.5,0,0.7,0c0.1,0,0.3,0,0.4,0l1.3,4
		c0.4,1.4,0.8,2.8,0.8,4l0,0.5c0,0.2,0,0.4-0.1,0.6c0,0.4-0.1,0.7-0.1,1.1c0,0.7,0,1.5,0,2.2c0,1.5,0.1,3,0,4.4l0,0.1l0,0.1
		c0.2,0.3,0.5,0.3,0.7,0.4c0.2,0.1,0.4,0.1,0.6,0.1c0.4,0.1,0.8,0.1,1.2,0.2c0.8,0.1,1.6,0.2,2.4,0.2c0.8,0.1,1.6,0.1,2.4,0.1
		c0.4,0,0.8,0,1.2,0c0.4,0,0.8-0.1,1.3-0.2l1.4-0.4l-1.2-1c-1-0.9-1.5-2.1-2-3.5l-0.2-0.5c-0.1-0.2-0.2-0.4-0.2-0.5
		c-0.1-0.2-0.1-0.6-0.2-0.9c-0.1-0.7-0.2-1.4-0.2-2.2c-0.1-1.5-0.1-3-0.1-4.5c0-1.4,0.1-2.7,0.4-4c0.6-0.1,1.1-0.2,1.6-0.4
		c1.1-0.3,2.1-0.6,3.2-1c2.1-0.7,4.1-1.6,6.1-2.5c1-0.5,2-1,3-1.5c0.8-0.4,1.5-0.8,2.2-1.3c0.3,0.2,0.6,0.4,0.9,0.5
		c0.1,0.9,0.2,1.8,0.2,2.8l0.1,1.6c0,0.3,0,0.5,0,0.7l0,0.4l0,0.4c0,1.1,0.1,2.1,0.1,3.2c0,1,0.1,2,0.2,3c-0.1,0.6-0.2,1.2-0.2,1.8
		c0,0.6,0,1.3,0,1.9c0,0.6,0.1,1.3,0.3,1.9c0.1,0.6,0.3,1.1,0.6,1.6l-0.9,2.5c-0.2,0.5-0.4,0.9-0.6,1.4l-0.1,0.2
		c0,0.1-0.1,0.2-0.1,0.3c0,0.2,0.2,0.5,0.4,0.6c0.1,0.1,0.2,0.1,0.3,0.1l0.2,0l0.4,0c2,0,4,0,6.1,0.1l0.8,0l0.2,0
		c0.1,0,0.3,0,0.4-0.1c0.2-0.1,0.4-0.3,0.5-0.6c0.1-0.3,0-0.6-0.2-0.8c0,0-0.1-0.1-0.1-0.1l-0.1-0.1l-0.1-0.1
		c-0.2-0.2-0.4-0.3-0.5-0.5c-0.2-0.2-0.3-0.3-0.4-0.5c-0.1-0.2-0.2-0.3-0.2-0.4c0,0,0,0,0-0.1l0-0.2c0-0.1,0-0.2,0-0.3
		c0-0.2,0-0.5,0-0.7c0.2-2,0.4-4,0.7-5.9c0.1-0.5,0.1-1,0.2-1.4c0-0.1,0-0.1,0-0.2c1,1.2,2,2.4,3,3.6l0.3,0.3
		c0.1,0.1,0.1,0.1,0.1,0.2c0.1,0.1,0.1,0.3,0.2,0.5c0.1,0.4,0.1,0.8,0.1,1.2c-0.1,0.9-0.3,1.8-0.6,2.5c-0.1,0.2-0.2,0.3-0.3,0.5
		c-0.2,0.3-0.4,0.6-0.5,1c-0.1,0.4-0.1,1,0.1,1.4c0.2,0.5,0.6,0.7,0.9,0.9c0.2,0.1,0.3,0.2,0.5,0.2c0.2,0,0.3,0.1,0.6,0.1
		c0.4,0,0.7,0,1-0.1c0.6-0.1,1-0.3,1.5-0.5c1-0.3,1.9-0.7,2.8-1.1l0.7-0.3l0.7-0.4c0.5-0.2,0.7-0.8,0.6-1.2c0-0.2-0.2-0.5-0.3-0.6
		c-0.1-0.1-0.1-0.1-0.2-0.1l-0.1-0.1c-0.7-0.6-1.4-1.3-1.8-2.2c-0.2-0.4-0.3-0.9-0.4-1.4c0-0.2,0-0.5-0.1-0.7c0-0.3,0-0.5-0.1-0.8
		c-0.3-2.1-1.2-4-2.3-5.7c-0.3-0.4-0.6-0.8-0.9-1.2l-0.5-0.6l-0.2-0.3l-0.2-0.2c-0.2-0.4-0.5-0.8-0.7-1.2c-0.2-0.4-0.4-0.9-0.7-1.3
		c-0.7-1.3-1.3-2.7-2-4c0,0,0,0,0,0c0-0.5,0-1,0.1-1.4c0.1-1,0.2-2,0.3-3c0.1-0.5,0.1-1,0.2-1.4c0.1-0.5,0.3-0.9,0.4-1.4
		c0.2-0.6,0.4-1.3,0.6-1.9c0.4,0.1,0.7,0.3,1.2,0.5c0.3,0.1,0.6,0.2,1,0.3c0.4,0.1,1,0,1.3-0.3c0.7-0.6,0.9-1.2,1-1.9
		c0.1-0.6,0.1-1.2,0.1-1.8c0-0.8-0.1-1.5-0.2-2.2c0.5,0.1,1,0.2,1.5,0.3c0.6,0.1,1.2,0.3,1.7,0.4c0.1,0,0.3,0.1,0.4,0.2
		c0.1,0,0.1,0.1,0.2,0.1c0.1,0,0.2,0.1,0.2,0.1c0.3,0.1,0.7,0.2,1,0.1c0.3,0,0.5-0.1,0.7-0.2c0,0.1,0.1,0.2,0.1,0.3
		c0,0.1,0.1,0.4,0.3,0.7c0.2,0.3,0.4,0.5,0.7,0.6c0.4,0.2,0.8,0.3,1.1,0.2c0.2,0.4,0.3,0.9,0.4,1.4c0.1,0.7,0.2,1.3,0.3,2
		c0.1,0.7,0.1,1.3,0,2l0,0.5l0,0.5l0,1c0.1,2.8,0.3,5.5,0.7,8.3c0.1,0.3,0.1,0.7,0.2,1.1c0.1,0.3,0.1,0.6,0.2,0.9
		c0.1,0.6,0.2,1.3,0.2,2c0.1,1.3,0.2,2.7,0.3,4.1c0,0.7,0.1,1.4,0.1,2c0,0.7,0,1.4,0,1.9c-0.1,0.5-0.3,0.9-0.7,1.3
		c-0.4,0.3-1,0.6-1.6,0.7l-1.7,0.3l1.4,0.7c0.2,0.1,0.4,0.6,0.4,1.1c0,0.3,0,0.5,0,0.8c0,0.3-0.1,0.5-0.2,0.7l-0.2,0.7l0.7-0.2
		c1.7-0.6,3.3-1.4,4.6-2.6c1.3-1.2,2.3-2.9,2.6-4.7c0.2-1.8,0.4-3.5,0.4-5.2c0-0.9,0-1.7,0-2.6c0-0.9,0-1.7-0.1-2.6
		c0.1-0.7,0.1-1.3,0.1-1.9c0-0.7,0-1.3,0-1.9c0-0.6,0-1.3-0.1-1.9l-0.1-1.5c0.3,0.1,0.7,0.3,1,0.4c1.4,0.5,2.9,0.7,4.4,0.8
		c0.4,0,0.8,0,1.1,0l0.1,0l0.1,0c0,0,0,0,0.1,0c0.1,0,0.2-0.1,0.2-0.1c0.3-0.2,0.4-0.6,0.3-0.9c-0.1-0.2-0.2-0.3-0.4-0.4l-0.2-0.1
		c-0.2-0.1-0.3-0.1-0.5-0.2c-0.6-0.3-1.3-0.5-1.9-0.8c-1.2-0.6-2.4-1.3-3.5-2.1c-0.1-0.1-0.2-0.2-0.4-0.3c0,0,0,0,0,0
		c0.1-1,0.1-2,0.1-3c0-1-0.1-2-0.1-3c0-0.4,0-0.8-0.1-1.2c0.7,0,1.4,0,2.1-0.1l15.9-0.1l8.3-0.1c1.3,0.1,2.5,0.2,3.8,0.3
		c1.4,0.1,2.8,0.2,4.2,0.2c1.4,0.1,2.8,0.1,4.2,0.1l1.2,0l0.1-0.7l10.1-0.1v-0.2l-10-0.1l0-0.1c0.1-1.8,0.2-3.6,0.3-5.5
		c0.1-1.8,0.1-3.6,0.1-5.5c0-1.8-0.1-3.7,0-5.5c0-1.8,0.1-3.6,0.4-5.5c0.2-1.8,0.6-3.6,0.9-5.4c0.3-1.8,0.5-3.6,0.5-5.4
		c0.2-3.4,0.2-6.8-0.1-10.3c1.7,1.7,3.3,3.5,4.9,5.4L124.2,50.7z M53,125.8C53,125.8,53,125.8,53,125.8L53,125.8
		C53,125.8,53,125.8,53,125.8z M83.2,99.7C83.2,99.7,83.2,99.7,83.2,99.7L83.2,99.7C83.2,99.8,83.2,99.7,83.2,99.7z M89.3,16.1
		c-0.9,0.8-1.7,1.6-2.5,2.4c-0.8,0.8-1.7,1.6-2.4,2.5l-0.7,0.8l0.8,0.7c0.8,0.7,1.5,1.4,2.3,2.1c0.6,0.6,1.3,1.1,2,1.6
		c-1.2,1.7-2.4,3.3-3.8,4.8c-1.5,1.7-3.1,3.3-4.7,4.9l-3.1,3.1l4-1.9c2.7-1.3,5.3-2.7,7.9-4.1c1.3-0.7,2.6-1.4,3.9-2.2
		c1.3-0.7,2.5-1.5,3.8-2.3l0.7-0.4l-0.1-0.7c-0.2-2.1-0.5-4.2-0.8-6.3c1.9,2.5,3.8,4.8,5.8,7.2c1.1,1.3,2.3,2.6,3.4,3.9
		c1.2,1.3,2.3,2.5,3.5,3.8c2.1,2.2,4.4,4.2,6.6,6.3c-4.9-0.6-9.8-0.8-14.7-1c-5.3-0.2-10.6,0.1-15.8,0.2l-15.8,0.3L55.3,42
		c0.6-0.7,1.3-1.4,1.9-2.1c3.3-3.6,6.6-7.1,9.8-10.8c3.2-3.6,6.4-7.3,9.6-11l4.7-5.6l4.2-5.1c1,1,2,2,3,3c1.1,1.1,2.2,2.2,3.3,3.3
		C91,14.5,90.2,15.3,89.3,16.1z M46.6,48.8L45,47.4c3.2-3.8,6.3-7.6,9.6-11.2c3.4-3.9,7-7.6,10.6-11.4l5.4-5.6
		c1.8-1.9,3.5-3.8,5.3-5.7c3.2-3.7,6.5-7.4,9.6-11.1l1.8,1.9l2.4,2.5c1.6,1.6,3.2,3.3,4.9,4.9c-0.9,0.6-1.7,1.3-2.6,2
		c-1-1.2-2-2.4-2.9-3.6c-1-1.3-2.1-2.6-3.2-3.9l-0.4-0.5L85,6.2L80,11.4l-5,5.3c-3.3,3.5-6.6,7.1-9.8,10.7
		c-3.2,3.6-6.4,7.3-9.6,10.9C52.5,41.8,49.6,45.3,46.6,48.8z M27.7,123.9c0.2,0.3,0.4,0.5,0.6,0.8c-0.2,0-0.5,0.1-0.7,0.1
		c-0.8,0.1-1.5,0.2-2.3,0.3c-0.8,0.1-1.6,0.1-2.3,0.1c-0.4,0-0.8,0-1.2-0.1c-0.2,0-0.4-0.1-0.5-0.1c-0.1,0-0.2-0.1-0.3-0.1
		c0.2-1.4,0.4-2.8,0.6-4.2c0.1-0.7,0.3-1.4,0.4-2.2l0.2-1.1l0.1-0.5c0-0.2,0-0.4,0-0.6c-0.1-1.7-0.6-3.1-1.3-4.5
		c-0.6-1.3-1.3-2.4-2.2-3.6c0.3,0,0.6,0.1,0.9,0.1c2.2,0.3,4.5,0.6,6.7,0.3c0.4,0,0.9-0.1,1.3-0.2c-0.6,1.2-1,2.5-1.2,3.8
		c-0.3,1.5-0.4,3.1-0.5,4.7c0,0.8,0,1.6,0.1,2.4c0.1,0.4,0.1,0.8,0.3,1.3c0.1,0.3,0.2,0.4,0.2,0.6l0.2,0.5
		C27,122.4,27.3,123.2,27.7,123.9z M55.5,107.4c0.4,1,0.7,1.9,1.3,2.8l0.2,0.4l0.2,0.3l0.5,0.6l1,1.1c0.6,0.7,1.3,1.5,1.8,2.3
		c0.5,0.8,1,1.7,1.1,2.6c0.1,0.2,0.1,0.5,0.1,0.7c0,0.3,0,0.5,0.1,0.8c0.1,0.5,0.2,1,0.4,1.5c0.4,1,0.9,1.9,1.6,2.7l0.1,0.1
		c0,0,0.1,0.1,0.1,0.1c0,0,0,0,0,0c0,0,0,0,0,0c0,0-0.1,0-0.1,0l-0.2,0.1l-0.4,0.1l-0.7,0.2c-1,0.3-1.9,0.6-2.8,0.9
		c-0.5,0.1-0.9,0.2-1.4,0.3c-0.5,0.1-0.5,0-0.8-0.1c-0.1,0-0.1-0.1-0.1-0.1c0,0,0,0,0,0c0-0.1,0.1-0.2,0.2-0.3
		c0.2-0.3,0.4-0.6,0.5-0.8c0.4-1.1,0.6-2.1,0.6-3.3c0-0.6-0.1-1.1-0.3-1.7c-0.1-0.3-0.3-0.6-0.5-0.9c-0.1-0.1-0.2-0.3-0.3-0.4
		l-0.3-0.2c-1.3-1.1-2.6-2.1-4-3.1c0-0.1,0-0.1,0-0.2l0.1-0.4c0.3-1,0.5-2,0.6-3c0.2-1,0.3-2,0.4-3c0.1-0.7,0.2-1.4,0.2-2.2
		C55.1,105.9,55.3,106.7,55.5,107.4z M55.9,93.9c-0.3,0.4-0.5,0.9-0.7,1.3c-0.2,0.5-0.4,0.9-0.6,1.4c-0.2,0.5-0.3,1-0.5,1.5
		c-0.3,1-0.5,2-0.7,3c-0.1,0.5-0.2,1-0.2,1.6c0,0.3,0,0.5,0,0.8c0,0.2,0,0.4,0,0.7c-0.2,1.9-0.6,3.9-0.9,5.8c-0.2,1-0.4,2-0.6,2.9
		l-0.1,0.3c0,0.2-0.1,0.3-0.1,0.5c-0.1,0.3-0.1,0.5-0.1,0.8c-0.1,0.5-0.1,1-0.2,1.5c-0.2,2-0.3,4-0.3,6.1c0,0.3,0,0.5,0,0.8
		c0,0.1,0,0.3,0,0.4l0,0.2c0,0.1,0,0.2,0.1,0.3c0.1,0.4,0.4,0.7,0.5,0.9c0.2,0.2,0.4,0.4,0.6,0.6c0.2,0.2,0.4,0.3,0.6,0.5l0.1,0.1
		l0,0l-0.8,0c-2,0.1-4,0.1-6.1,0.1l-0.4,0l-0.2,0c0,0,0,0,0,0c0,0,0,0,0,0c0,0,0,0,0,0l0.1-0.2c0.2-0.5,0.4-0.9,0.7-1.3l1.4-2.7
		l0.1-0.2l-0.1-0.3c-0.4-1-0.4-2.2-0.5-3.3c0-1.2,0-2.3,0.2-3.5l0-0.1l0-0.1c-0.1-1.1-0.2-2.1-0.3-3.2c-0.1-1-0.3-2.1-0.4-3.1l0-0.4
		l0-0.4c0-0.3-0.1-0.6-0.2-0.8c-0.1-0.5-0.2-1-0.4-1.5c-0.2-0.9-0.5-1.8-0.8-2.6c0,0,0,0,0-0.1c-0.2-1-0.5-1.8-0.8-2.6
		c-0.3-0.8-0.9-1.4-1.4-2.2c-0.5-0.7-0.9-1.5-1.3-2.3c-0.5-0.8-0.9-1.5-1.3-2.3c0,0-0.1-0.1-0.1,0c-0.1,0-0.1,0.1-0.1,0.1
		c0.2,0.9,0.4,1.7,0.6,2.6c0.2,0.9,0.5,1.7,0.9,2.6c0.3,0.8,0.5,1.8,1.1,2.5c0.3,0.4,0.6,0.7,1,1c0,0,0,0,0,0
		c-0.7,0.4-1.5,0.7-2.2,1.1c-1,0.5-2,0.9-3,1.3c-2,0.8-4.1,1.5-6.2,2.2c-1,0.3-2.1,0.6-3.1,0.8c-1,0.2-2.1,0.4-3.2,0.4
		c-2.1,0.1-4.2-0.2-6.4-0.6c-0.5-0.1-1.1-0.2-1.7-0.3c-0.3,0-0.6-0.1-0.9-0.1c0,0,0,0,0,0c0.3-0.6,0.6-1.1,0.9-1.7
		c0.5-1.1,1-2.3,1.4-3.5c0.2-0.6,0.3-1.2,0.5-1.8c0.1-0.6,0.3-1.2,0.3-1.8c0,0,0-0.1-0.1-0.1c0,0-0.1,0-0.1,0.1l0,0
		c-0.4,1.1-0.9,2.2-1.5,3.3c-0.6,1.1-1.2,2.1-1.8,3.1c-0.7,1-1.5,1.8-2.1,2.8c-0.3,0.4-0.6,0.8-0.8,1.2c-0.2,0.2-0.4,0.4-0.6,0.6
		l-1.1,1.2l-0.6,0.6c-0.2,0.2-0.4,0.5-0.6,0.7c-0.8,1-1.2,2.1-1.5,3.2c-0.2,0.5-0.3,1-0.5,1.4l-0.1,0.3l-0.1,0.2
		c-0.1,0.2-0.1,0.3-0.1,0.4c-0.1,0.3-0.1,0.6-0.2,0.9C8.2,118.7,8,119.9,8,121c0,0.6,0,1.2,0.1,1.8c0,0.2,0.1,0.4,0.1,0.6
		c0.1,0.2,0.1,0.3,0.2,0.4c0.1,0.3,0.2,0.5,0.4,0.8c0.2,0.5,0.5,0.9,0.8,1.4L2,126c0,0,0,0,0,0c0-0.1,0-0.2,0.1-0.4
		c0.1-0.3,0.2-0.5,0.4-0.8c0.1-0.3,0.3-0.6,0.5-0.8l0.2-0.3l0-0.3l0-2.2c0.3-0.5,0.4-0.9,0.6-1.3c0.2-0.5,0.3-1,0.5-1.5
		c0.3-1,0.6-2,0.9-3l0.8-3c0.3-1.1,0.4-2.1,0.5-3.2c0.2-2.1,0.5-4.1,0.7-6.2l0.3-3.1c0.1-1,0.2-2.1,0.4-3l0-0.2l0-0.1
		c-0.3-1.9-0.3-3.9-0.1-5.9c0.1-1,0.3-2,0.5-3c0.2-1,0.4-1.9,0.8-2.8c0.8-1.8,1.9-3.5,3.2-5c1.3-1.5,2.8-2.9,4.4-4.2
		c1.5-1.3,3.3-2.2,5.2-2.9c0.9-0.3,1.9-0.6,2.9-0.8c1-0.2,2-0.3,2.9-0.2c2,0.4,4,1.1,6.1,1c1.9,0,3.8-0.1,5.6-0.6
		c-0.3,0.7-0.4,1.5-0.5,2.3c0,1.2,0.2,2.3,0.5,3.4c0.1,0.6,0.3,1.1,0.6,1.6c0.2,0.5,0.5,1,0.8,1.5c0.7,1,1.7,1.6,2.6,2.2
		c0.9,0.6,1.9,1.2,2.7,1.8c0.2,0.2,0.4,0.3,0.4,0.5c0,0,0,0.1,0.1,0.1l0.1,0.2c0.1,0.1,0.2,0.3,0.3,0.4c0.3,0.5,0.7,0.9,1.1,1.4
		c0.7,0.9,1.5,1.7,2.4,2.5c0.8,0.8,1.7,1.5,2.7,2.2c0.5,0.3,1.1,0.6,1.8,0.8c0.5,0.1,0.6,0.1,0.8,0.1c0.2,0,0.4,0.1,0.6,0.2
		C56.1,93.6,56,93.8,55.9,93.9z M68.5,89.7c0,0,0-0.1-0.1-0.1c0-0.1,0-0.1,0-0.3c0-0.4-0.1-0.8-0.2-1.1c-0.2-0.7-0.5-1.4-0.9-2
		c-0.4-0.6-0.9-1.2-1.7-1.6c0,0,0,0-0.1,0c-0.1,0-0.1,0.1-0.1,0.1l0,0c0.1,0.7,0.2,1.4,0.4,2.1c0.1,0.3,0.1,0.6,0.2,0.9
		c-0.2-0.1-0.5-0.1-0.7-0.1c-0.1,0-0.1,0-0.2,0l-0.3,0c-0.2,0-0.3,0-0.5,0c-0.7,0-1.3,0-1.9,0.1c-0.5,0.1-1,0.2-1.6,0.3
		c0-0.3,0-0.5,0-0.8v0c0,0,0-0.1-0.1-0.1c0,0-0.1,0-0.1,0.1c-0.2,0.5-0.3,1.1-0.3,1.7l-0.2,1.6c-0.1,0.5-0.2,1-0.3,1.5
		c-0.2,0.4-0.4,0.8-0.6,0.9c-0.1,0-0.1,0-0.2,0c-0.1,0-0.3-0.1-0.6-0.2c-0.4-0.2-0.9-0.5-1.5-0.8c-0.3-0.1-0.6-0.2-0.9-0.3
		c-0.3-0.1-0.7-0.2-0.8-0.2c-0.3-0.1-0.8-0.4-1.2-0.6c-1.7-1.1-3.4-2.6-4.9-4.1c-0.4-0.4-0.8-0.8-1.1-1.2l-0.2-0.3L47.7,85
		c-0.1-0.1-0.1-0.2-0.2-0.2c-0.3-0.3-0.5-0.5-0.8-0.6c-1.1-0.6-2.1-1-3.1-1.4c-1-0.5-2-1-2.5-1.9c-0.6-0.9-0.9-1.9-1.1-3
		c-0.3-2.1,0.1-4.3,1.3-5.8c0.6-0.7,1.4-1.4,2.3-1.9c0.9-0.5,1.7-1.3,2.7-1.6c1.5-0.4,9.5-0.2,10.8,0.1c0.9,0.2,1.8,0.6,2.5,1.3
		c0.7,0.7,1,1.5,1,2.5c0,0,0,0,0,0c0,0,0,0,0-0.1c-0.5-0.7-1.2-1.3-2-1.6c-1.6-0.7-3.4-0.8-5-0.7c-0.9,0.1-1.7,0.2-2.5,0.3
		c-0.8,0.1-1.7,0.2-2.5,0.4c-0.8,0.2-1.7,0.5-2.4,1c-0.4,0.2-0.7,0.6-1,1c-0.3,0.4-0.4,0.9-0.3,1.3c0,0,0,0,0,0.1c0,0,0.1,0,0.1,0
		c0.3-0.8,0.9-1.2,1.6-1.4c0.7-0.3,1.5-0.4,2.3-0.6c1.6-0.3,3.2-0.8,4.8-1c1.6-0.2,3.2-0.2,4.7,0.4c0.7,0.3,1.4,0.7,1.9,1.3
		c0.1,0.2,0.3,0.4,0.4,0.6c0.1,1.7,0.1,3.4,0,5.1c0,0.5-0.1,0.9-0.1,1.4c0,0.2,0,0.4-0.1,0.7c0,0.3-0.1,0.5-0.1,0.8
		c0,0.5,0,1,0.1,1.6c0,0.3,0.1,0.5,0.2,0.8c0.1,0.2,0.2,0.5,0.5,0.7c0,0,0,0,0.1,0c0,0,0,0,0-0.1l0,0c-0.2-0.4-0.1-0.9-0.1-1.4
		c0-0.5,0.1-0.9,0.2-1.4c0.1-0.2,0.1-0.4,0.2-0.7c0.1-0.2,0.1-0.5,0.2-0.8c0.1-0.5,0.1-1,0.1-1.5c0-1-0.1-2-0.2-3
		c-0.1-1-0.2-2-0.4-2.9c-0.1-0.5-0.2-1-0.4-1.5c-0.2-0.5-0.5-0.9-0.9-1.3c-0.8-0.7-1.8-1.1-2.8-1.3C55.6,68,54.5,67.8,53,68
		c-0.5-0.2-1.3-0.1-1.8-0.2c5.4-2.7,10.4-1.6,11.4-1.5c1,0.1,1.8,0.9,2.7,1.2c0.4,0.1,0.9,0.3,1.2,0.5c0.3,0.2,0.7,0.6,1.1,0.9
		c0.8,0.6,1.5,1.2,2.2,1.9c0.7,0.7,1.2,1.4,1.7,2.3c0.5,0.8,0.9,1.7,1.2,2.6c0.3,0.9,0.7,1.9,1,2.8c0.6,1.9,1.3,3.8,1.8,5.7
		c0.5,1.9,1,3.8,1.2,5.8c0.1,1,0.2,2,0.3,3c0.1,1,0.2,2,0.2,2.9c-0.9-0.7-1.7-1.4-2.4-2.3c-0.7-0.9-1.2-2.1-1.3-3.4c0,0,0,0,0,0
		c0,0,0.1,0,0.1-0.1c0-0.2-0.1-0.4-0.3-0.5c-0.1-0.1-0.3-0.2-0.4-0.3c-0.3-0.1-0.6-0.2-1-0.2c-0.3,0-0.7,0-1,0.1
		c-0.3,0.1-0.6,0.2-1,0.3l0,0C69.4,89.9,68.7,89.9,68.5,89.7z M76.3,100c0,0.2-0.1,0.3-0.1,0.5c-0.1,0.3-0.1,0.6-0.2,1
		c-0.1,0.6-0.2,1.3-0.3,1.9l-0.3,1.9c-0.1,0.6-0.2,1.3-0.3,1.8l0,0.1l0,0.1c0,0.8,0,1.7,0,2.5c0,0.9-0.1,1.7-0.1,2.6
		c0,0.9,0,1.7,0,2.6l0.1,2.6c0,1.6-0.6,3.2-1.8,4.4c-1,1-2.4,1.7-3.8,2.2c0-0.1,0-0.2,0.1-0.2c0.1-0.3,0.1-0.6,0.1-0.9
		c0-0.3,0-0.6-0.1-1c0,0,0-0.1,0-0.2c0.5-0.1,1-0.3,1.5-0.5c0.7-0.4,1.3-1.2,1.5-2.1c0.2-0.8,0.2-1.5,0.2-2.2c0-0.7,0-1.4,0-2.1
		c0-1.4-0.1-2.8-0.2-4.2c-0.1-0.7-0.1-1.4-0.2-2.1c0-0.4-0.1-0.7-0.2-1.1c-0.1-0.3-0.1-0.6-0.2-1c-0.5-2.6-0.9-5.4-1.2-8.1l-0.1-1
		l0-0.5l0-0.2l0-0.3c-0.1-0.7-0.2-1.4-0.3-2.1c-0.2-0.7-0.3-1.4-0.6-2c-0.2-0.4-0.3-0.9-0.6-1.3c0,0,0,0,0,0c0.3-0.1,0.7-0.2,1-0.4
		c0.1,1.3,0.5,2.5,1,3.7c0.6,1.4,1.4,2.7,2.6,3.7c0.8,0.7,1.7,1.2,2.7,1.6L76.3,100z M82.8,100.2c-0.3,0-2.7,0.6-4.8-0.4
		c-7.3-3.3-6.8-8.1-7.4-9.2c0.2-0.1,0.4-0.2,0.6-0.3c0.2-0.1,0.5-0.2,0.8-0.3c0.3-0.1,0.7,0,0.8,0.1
		C72.6,95.8,82.6,100.1,82.8,100.2z M95.2,87.7l-5.6,0c0.3-0.7,0.5-1.5,0.7-2.2c0.2-0.8,0.4-1.6,0.6-2.4c0.4-1.6,0.7-3.2,1-4.8
		l0.2-0.8l-0.9-0.3c-1.2-0.5-2.4-0.9-3.5-1.4c0.4-0.9,0.7-1.7,1.1-2.6l1.5-3.9c0.5-1.3,1-2.6,1.5-3.9c0.2-0.5,0.4-1.1,0.6-1.7
		c0,0.3,0.1,0.5,0.1,0.8c0.2,1.1,0.3,2.2,0.4,3.3c0.2,2.2,0.2,4.4,0.2,6.6l0,0.7l0.9,0c1,0,2,0,3,0c0,0.8,0.1,1.6,0.1,2.4
		c0.1,1.1,0.2,2.3,0.3,3.4c0.2,2.2,0.5,4.5,1,6.7L95.2,87.7z M88.7,67.6c-0.8-0.1-1.5-0.2-2.3-0.3c-0.5-0.1-1.1-0.1-1.6-0.2
		c0.6-1.9,1.1-3.8,1.6-5.7c0.5-2,0.9-4.1,1.2-6.2c1.5-0.1,2.9-0.3,4.4-0.3c1.7,0,3.3,0,5,0.1c1.7,0.1,3.3,0.3,5,0.4
		c1.2,0.1,2.4,0.2,3.6,0.2c-0.5,1.8-1,3.5-1.4,5.3c-0.5,1.9-0.9,3.9-1.3,5.9c-0.6,0-1.1,0.1-1.7,0.1c-0.9,0-1.7,0.1-2.6,0.2
		c-1.6,0.1-3.3,0.3-5,0.6c-0.1-1.1-0.2-2.1-0.3-3.2c-0.1-1.1-0.1-2.2-0.1-3.3l0-2.4L92.1,61c-0.6,1.2-1.3,2.4-2,3.7
		C89.7,65.7,89.2,66.6,88.7,67.6z M117,55.1c-0.2,1.8-0.3,3.6-0.3,5.5c0,1.8,0.1,3.7,0.1,5.5c0,1.8-0.2,3.6-0.4,5.4
		c-0.2,1.8-0.5,3.6-0.8,5.4c-0.3,1.8-0.5,3.6-0.7,5.4c-0.1,1.4-0.3,2.8-0.4,4.3c-1,0-2,0-3,0.1c-1.4,0.1-2.8,0.1-4.2,0.2
		c-2.8,0.2-5.6,0.4-8.4,0.9c0,0,0,0,0,0c0.3-2.3,0.4-4.5,0.4-6.7c0-1.1,0-2.3,0-3.4c0-1.1,0-2.3-0.1-3.4l-0.1-1.1l-1.1,0.1
		c-1.1,0.1-2.3,0.2-3.4,0.4c-0.4-1.9-0.7-3.7-0.9-5.6c1.6,0.3,3.3,0.4,4.9,0.6c0.9,0.1,1.7,0.2,2.6,0.2c0.9,0,1.7,0.1,2.6,0.2l0.8,0
		l0.3-0.9c0.6-2.2,1.3-4.4,1.8-6.6c0.5-2.2,1-4.4,1.4-6.6l0.3-1.4l-1.4,0c-1.7,0.1-3.3,0.1-5,0.3c-1.7,0.1-3.3,0.3-5,0.4
		c-1.7,0.1-3.3,0.1-5,0.1c-1.7-0.1-3.3-0.2-5-0.4l-0.5,0l-0.2,0.6c-0.8,2.2-1.4,4.3-1.9,6.5c-0.5,2.2-0.9,4.4-1.3,6.7l-0.2,1
		l0.9-0.1c0.8-0.1,1.7-0.1,2.6-0.3c0.7-0.1,1.4-0.2,2.1-0.3c-0.1,0.2-0.1,0.3-0.2,0.4l-1.8,3.8c-0.6,1.3-1.1,2.5-1.7,3.8l-0.5,1.3
		l1.3,0.4c1.4,0.4,2.8,0.8,4.2,1.3c-0.1,1.3-0.2,2.6-0.3,3.9l-0.1,2.4c0,0.8,0,1.6-0.1,2.4l-0.1,0c-3.3-0.4-6.6-0.6-10-0.8
		c-0.8,0-1.6-0.1-2.4-0.1c-0.1-0.9-0.3-1.9-0.5-2.8c-0.5-2-1-3.9-1.6-5.9c-0.3-1-0.6-1.9-0.9-2.9c-0.3-1-0.7-2-1.2-2.9
		c-0.5-0.9-1.1-1.8-1.8-2.6c-0.7-0.8-3.5-3.2-8.2-4.5c-1-0.3-2.1-0.2-3.1-0.3c-0.3,0-0.5,0-0.8,0.1c-0.3,0.1-0.6,0-0.9,0.1
		c-0.3,0.1-0.9,0-1.8,0.3c-0.3,0.1-2.6,0.9-4.4,1.5c0-0.3,0-0.6,0.1-1c0.2-3.7,0.4-7.3,0.5-11c0.1-3.1,0.1-6.2,0-9.3l17,0.5
		l16.5,0.4c5.5,0.1,11,0.4,16.5,0.2c5.4-0.2,10.8-0.4,16.2-1C117.7,48.9,117.3,52,117,55.1z M118.5,45.5c-5.4-0.6-10.8-0.9-16.3-1.1
		c-5.5-0.2-11,0.1-16.5,0.2L69.3,45l-17,0.5v-0.3c0.9-1,1.8-2,2.8-3l14.6,0.4l15.8,0.4c5.3,0.1,10.5,0.4,15.8,0.2
		c5-0.2,10.1-0.4,15.1-1c0.1,0.1,0.3,0.3,0.4,0.4c0.6,0.6,1.2,1.2,1.8,1.8C118.6,44.9,118.5,45.2,118.5,45.5z M117.5,42.1
		c-2.3-2.6-4.3-5.4-6.6-7.9c-1.1-1.3-2.3-2.5-3.5-3.8c-1.2-1.2-2.4-2.5-3.6-3.7c-2.4-2.3-4.7-4.5-7.3-6.7c0-0.2-0.1-0.5-0.1-0.7
		c0.9-1,1.7-2,2.6-3c2,2.8,4.1,5.6,6.3,8.2c2.2,2.7,4.5,5.4,6.8,8.1c2.3,2.6,4.7,5.2,7.1,7.8c2.2,2.4,4.5,4.8,6.8,7.1l-1.7,1.7
		C121.9,47,119.7,44.6,117.5,42.1z"/>
	<path class="st0" d="M68.2,78.8c-0.5,0-1,0.4-1,1c0,0.5,0.4,1,1,1c0.5,0,1-0.4,1-1C69.1,79.3,68.7,78.8,68.2,78.8z"/>
</g>
</svg>
