<?xml version="1.0" encoding="utf-8"?>
<!-- Generator: Adobe Illustrator 18.1.0, SVG Export Plug-In . SVG Version: 6.00 Build 0)  -->
<svg version="1.1" id="Layer_1" xmlns="http://www.w3.org/2000/svg" xmlns:xlink="http://www.w3.org/1999/xlink" x="0px" y="0px"
	 viewBox="0 0 128 128" enable-background="new 0 0 128 128" xml:space="preserve">
<g>
	<path fill="#2D2D2D" d="M25.2,0.3C11.3,0.3,0,11.7,0,25.6c0,13.9,11.3,25.3,25.2,25.3s25.2-11.3,25.2-25.3
		C50.5,11.7,39.2,0.3,25.2,0.3z M25.2,48.9C12.4,48.9,2,38.4,2,25.6C2,12.8,12.4,2.3,25.2,2.3s23.3,10.4,23.3,23.3
		C48.5,38.4,38.1,48.9,25.2,48.9z"/>
	<path fill="#2D2D2D" d="M21.5,27.5l-5.4-5.6l-5.1,5.1l10.5,10.7L40.6,19l-5-5L21.5,27.5z M21.5,34.8l-7.8-7.9l2.3-2.3l5.4,5.6
		l14.1-13.5l2.2,2.2L21.5,34.8z"/>
	<path fill="#2D2D2D" d="M86.6,25.1c6.9,0,12.5-5.6,12.5-12.5C99.1,5.6,93.5,0,86.6,0C79.7,0,74,5.6,74,12.5
		C74,19.5,79.7,25.1,86.6,25.1z M86.6,2c5.8,0,10.6,4.7,10.6,10.6c0,5.8-4.7,10.6-10.6,10.6S76,18.4,76,12.5C76,6.7,80.8,2,86.6,2z"
		/>
	<path fill="#2D2D2D" d="M125.4,58.7l-14.3-7.9c-0.7-0.4-1.2-0.9-1.6-1.5L95.8,29.7c-0.9-1.3-2.4-2.1-4-2.1h-12
		c-1.2,0-2.4,0.5-3.3,1.3L59.1,44.8c-1.1,1-1.8,2.2-2.1,3.7l-3.9,18.6c-0.3,1.4,0,2.9,0.9,4.1c0.8,1.2,2.2,2,3.6,2.2
		c0.2,0,0.4,0,0.7,0c2.4,0,4.5-1.6,5.1-4l3.9-15.6c0.2-0.9,0.7-1.7,1.3-2.3l4.4-4.4L72,70.7l-2.1,23.6l-18.2,20.8
		c-1.3,1.5-1.8,3.6-1.6,5.6c0.3,2,1.4,3.8,3,4.9c1.2,0.9,2.7,1.3,4.1,1.3c2.3,0,4.4-1,5.7-2.8l19.1-23.8L87,81.1l16.3,18.2l4.2,23.5
		c0.8,3,3.5,5.1,6.6,5.1c0.4,0,0.8,0,1.2-0.1c1.8-0.3,3.5-1.4,4.5-3c1-1.6,1.3-3.5,0.9-5.3l-5.1-26.3L96.9,69.4l0.9-19.2l4.7,8
		c0.7,1.2,1.8,2.2,3.1,2.8l15.3,6.9c0.7,0.3,1.4,0.5,2.1,0.5c2,0,3.9-1.2,4.7-3.1C128.6,62.8,127.7,60,125.4,58.7z M125.8,64.4
		c-0.5,1.2-1.6,1.9-2.9,1.9c-0.4,0-0.9-0.1-1.3-0.3l-15.3-6.9c-0.9-0.4-1.7-1.1-2.2-2l-8-13.7L94.9,70l18.8,24.1l5,25.9
		c0.3,1.3,0.1,2.7-0.6,3.8c-0.7,1.1-1.9,1.9-3.2,2.1c-0.3,0.1-0.6,0.1-0.9,0.1c-2.2,0-4.1-1.5-4.6-3.6l-4.3-24L88.5,79.8
		c-0.4-0.4-0.9-0.7-1.5-0.7c-0.9,0-1.7,0.6-1.9,1.5l-4.7,18.8l-18.9,23.4c-1,1.3-2.5,2.1-4.2,2.1c-1.1,0-2.1-0.3-3-1
		c-1.2-0.8-2-2.1-2.2-3.6c-0.2-1.5,0.2-2.9,1.1-4l18.4-21l0.2-0.2l2.1-24.3l1.1-28.6l-7.9,7.9c-0.9,0.9-1.5,2-1.8,3.2L61.4,69
		c-0.4,1.6-1.9,2.7-3.6,2.5c-0.9-0.1-1.7-0.6-2.3-1.3c-0.5-0.8-0.7-1.7-0.5-2.6l3.9-18.6c0.2-1,0.7-1.9,1.5-2.6l17.3-15.9
		c0.5-0.5,1.3-0.8,2-0.8h12c1,0,1.9,0.5,2.4,1.3l13.7,19.6c0.6,0.9,1.4,1.6,2.3,2.1l14.3,7.9C125.8,61.2,126.4,62.9,125.8,64.4z"/>
</g>
</svg>
