<?xml version="1.0" encoding="utf-8"?>
<!-- Generator: Adobe Illustrator 24.1.2, SVG Export Plug-In . SVG Version: 6.00 Build 0)  -->
<svg version="1.1" id="Layer_1" xmlns="http://www.w3.org/2000/svg" xmlns:xlink="http://www.w3.org/1999/xlink" x="0px" y="0px"
	 viewBox="0 0 128 128" style="enable-background:new 0 0 128 128;" xml:space="preserve">
<style type="text/css">
	.st0{fill:#2D2D2D;}
</style>
<g>
	<path class="st0" d="M127.7,4.8c-0.2-0.2-0.4-0.3-0.6-0.4l0.3-0.3l0.2-0.2l0-0.2l0-0.5c0-0.2,0-0.4-0.1-0.6
		c-0.1-0.4-0.3-0.8-0.6-1.1c-0.7-0.5-1.3-0.6-1.8-0.7c-1.1-0.2-2.1-0.2-3.1-0.4c-1.4-0.3-2.9-0.6-4.4-0.6c-1.5,0-3,0.2-4.5,0.7
		c-1.4,0.5-2.8,1.1-4,1.9c-1.2,0.7-2.4,1.5-3.5,2.3c-11.1,5.2-21,12.6-30.5,20c-2.4,1.9-4.7,3.8-7.1,5.7c-0.8,0.7-1.6,1.3-2.4,2
		c-2.5-1.5-5-2.9-7.6-4.2c-2.7-1.4-5.3-2.7-8.1-3.9c-2.7-1.2-5.6-2.4-8.4-3.3c-1.4-0.5-2.9-1-4.4-1.2c-1.5-0.2-3.2-0.2-4.8,0.4
		l-1,0.4l0.9,0.8c0.9,0.8,1.9,1.9,2.8,3c0.9,1,1.9,2.1,2.8,3.1l5.4,6.3c1.8,2.1,3.6,4.2,5.4,6.4c0.9,1.1,1.7,2.2,2.5,3.3
		c0.8,1,1.4,2.1,2,3.2c-1,1.4-1.9,2.9-2.8,4.4c-1.6,2.6-3.1,5.2-4.7,7.8c-0.4,0.6-0.8,1.3-1.2,1.9c-0.4,0.6-0.9,1.2-1.4,1.7
		C42.2,64,41,65,39.9,66c-2.3,2-4.7,3.8-7.1,5.6c-2.4,1.8-4.8,3.7-7.2,5.5c-2.4,1.9-4.8,3.8-7,5.9c-1.1,1-2.2,2.1-3.3,3.3
		c-0.5,0.6-1,1.2-1.4,1.9c-0.4,0.7-0.9,1.3-1.2,2c-2.3,3.9-3.9,8.2-5.1,12.5c-0.8,0.3-1.9,0.8-2.4,1.1c-0.7,0.3-1.4,0.7-2,1.2
		c-0.6,0.5-1.2,1-1.7,1.7c-0.5,0.7-0.9,1.5-1.1,2.4L0,110.3l1.4-0.2c0.1,0,0.3-0.1,0.4-0.1c0,0.3,0.3,0.8,0.6,1.1c0,0,0,0,0.1,0
		c-0.1,0.3-0.1,0.7-0.2,1c-0.1,0.8-0.1,1.5,0,2.2c0.1,1.4,0.4,2.8,0.7,4.1c0.1,1.5,0.2,3,0.1,4.5c-0.1,0.7-0.2,1.5-0.4,2.1
		c-0.2,0.7-0.6,1.3-1,1.9L1,128l1.4-0.1c0.9-0.1,1.5-0.3,2.1-0.6c0.6-0.3,1.2-0.7,1.7-1c1.1-0.8,2-1.8,2.8-2.9
		c0.4-0.5,0.7-1.1,1-1.7c0.3-0.6,0.5-1.3,0.7-1.9c0.4-1.2,0.7-2.4,0.9-3.6c0.5-2.4,1-4.8,1.5-7.1c0.2-0.7,0.4-1.4,0.6-2.1
		c0.9-0.1,1.8-0.3,2.7-0.6c1.1-0.4,2.1-0.8,3.1-1.3c2-0.9,4-2,5.9-3c3.8-1.9,7.9-3.3,12.1-4.5c2.1-0.6,4.2-1.1,6.3-1.9
		c2.1-0.7,4.2-1.5,6.2-2.4c4.1-1.8,8-3.8,11.8-6.1c3.8-2.3,7.5-4.7,11.2-7c1.9-1.2,3.7-2.3,5.6-3.5l2.7-1.9c0.9-0.7,1.8-1.3,2.6-2.1
		c1.7-1.4,3.3-2.9,4.9-4.5c1.5-1.6,3-3.2,4.5-4.9c2.6-3.1,5.1-6.3,7.2-9.8c0.5,1.2,1.1,2.3,1.8,3.4c0.7,1.3,1.5,2.5,2.4,3.6
		c0.8,1.2,1.7,2.3,2.7,3.4c0.2,0.3,0.5,0.5,0.8,0.8c0.2,0.2,0.6,0.6,1.1,0.8c0.9,0.6,2.2,0.6,3.1,0.2c0.9-0.4,1.5-1,2.1-1.6
		c0.5-0.6,1-1.2,1.4-1.8c0.8-1.3,1.4-2.6,1.9-4c0.2-0.7,0.5-1.4,0.7-2.1c0.2-0.7,0.3-1.5,0.4-2.2c0.3-2.9,0-5.8-0.2-8.6
		c-0.3-2.9-0.6-5.7-1.3-8.5c-0.3-1.4-0.8-2.8-1.3-4.1c-0.1-0.3-0.2-0.6-0.4-0.9c0.5-0.7,1-1.4,1.5-2.1c0.7-1,1.4-2,2-3.1
		c1.3-2,2.4-4.1,3.4-6.4c1.5-2.5,2.8-5.2,3.7-8c0.5-1.4,0.9-2.8,1.3-4.2c0.2-0.7,0.3-1.4,0.5-2.2C128,5.6,128,5.1,127.7,4.8z
		 M50.2,39.5c-1.5-2.4-3.2-4.7-4.9-6.9c-0.9-1.1-1.8-2.2-2.8-3.2c-1-1-1.9-2.1-2.9-3.1c-1-1-2-2-3-3c-0.8-0.7-1.5-1.4-2.4-2
		c0.9-0.3,1.9-0.4,2.9-0.4c1.4,0.1,2.9,0.5,4.3,1c1.4,0.5,2.7,1.2,4,2c1.3,0.8,2.5,1.6,3.8,2.4c2.6,1.5,5.4,2.7,8.2,3.9
		c2.6,1.1,5.3,2,8.1,2.8c-0.3,0.2-0.5,0.5-0.8,0.7c-1.1,1.1-2.2,2.1-3.3,3.2c-2.9,3.1-5.5,6.4-7.8,9.9
		C52.9,44.1,51.6,41.7,50.2,39.5z M48.7,55.8c0.7-1.3,1.5-2.6,2.3-3.9c1.4-2.3,3-4.6,4.7-6.8c0.5-0.2,0.9-0.4,1.4-0.5
		c1.1-0.2,2.2-0.3,3.3-0.3c1.1,0,2.2,0,3.4-0.1c0.6,0,1.2-0.1,1.7-0.2c0.5,0,1,0,1.3,0.4c0.3,0.3,0.4,0.9,0.5,1.4
		c0.1,0.5,0.1,1.1,0.2,1.7c0.1,0.6,0.2,1.2,0.7,1.7c0.2,0.2,0.5,0.5,0.9,0.5c0.3,0.1,0.7,0.1,1,0.1c1.2-0.2,2.3-0.7,3.3-1.3
		c0.5-0.3,1-0.6,1.5-0.9c-0.5,0.8-1,1.6-1.6,2.3c-0.9,1.2-2.1,2.1-3.3,3c-1.2,0.9-2.5,1.8-3.8,2.4c-0.7,0.3-1.3,0.6-2,0.8
		c-0.3,0.1-0.7,0-0.9-0.1c-0.1-0.1-0.2-0.2-0.2-0.3c0-0.1,0-0.1-0.1-0.2l-0.1-0.3c-0.2-0.8-0.6-1.6-1.5-2c-0.8-0.4-1.6-0.3-2.4-0.2
		c-0.8,0.1-1.5,0.2-2.3,0.4c-0.8,0.2-1.5,0.5-2.2,0.7c-1.4,0.6-2.8,1.3-4.1,2c-1.1,0.6-2.1,1.3-3.1,2.2L48.7,55.8z M24.5,100.5
		c-1,0.6-1.9,1.2-2.8,1.8c-0.9,0.6-1.8,1.2-2.7,1.8c-1.6,1-3.3,2-5.1,2.5c0.1-0.3,0.2-0.6,0.3-0.9c0.3-0.7,0.5-1.4,0.9-2.1
		c0.8-0.6,1.7-1,2.6-1.5c0.9-0.5,1.9-1,2.9-1.4c0.5-0.2,1-0.4,1.4-0.6c0.5-0.1,1-0.2,1.5-0.3c0.5,0,1-0.1,1.6,0c0.1,0,0.3,0,0.4,0.1
		C25.1,100.1,24.8,100.3,24.5,100.5z M80.2,73.4l-2.4,2.2c-0.8,0.7-1.7,1.4-2.6,2c-0.9,0.6-1.8,1.3-2.7,1.9c-3.1,2.1-6.3,4-9.7,5.6
		c0.5-0.3,1.1-0.7,1.6-1.1c0.7-0.5,1.4-1,2.1-1.7c0.3-0.4,0.7-0.7,0.8-1.3c0.1-0.3,0-0.9-0.3-1.1c-0.3-0.3-0.5-0.4-0.8-0.5l0,0l0,0
		c-0.6-0.1-0.9,0-1.3,0c-0.4,0.1-0.8,0.1-1.1,0.2c-0.7,0.2-1.4,0.4-2.1,0.6c-1.4,0.5-2.8,1-4.1,1.6c-1.3,0.7-2.6,1.4-3.8,2.4
		c-0.6,0.5-1.1,0.9-1.7,1.3c-0.6,0.4-1.2,0.7-1.9,0.9c-0.6,0.2-1.4,0.2-1.6-0.3c-0.2-0.6,0-1.3,0.3-1.9c0.6-1.3,1.3-2.6,2-3.8
		c1.5-2.5,3.4-4.6,5.6-6.3c1.1-0.9,2.3-1.6,3.5-2.3c1.3-0.6,2.5-1.2,3.8-1.5c2.7-0.6,5.4,0,7.9,1.2c0.7,0.3,1.3,0.6,2,0.9
		c0.3,0.1,0.8,0.3,1.2,0.4c0.4,0.1,0.8,0.1,1.2,0.2c1.6,0.1,3.1-0.2,4.5-0.6c0.4-0.1,0.7-0.2,1.1-0.4L80.2,73.4z M117.7,45.6
		c0.5,2.8,0.7,5.6,0,8.3c-0.2,0.7-0.4,1.3-0.6,1.9c-0.3,0.6-0.6,1.3-0.9,1.9c-0.7,1.2-1.4,2.4-2.1,3.5c-0.4,0.5-0.8,1-1.3,1.5
		c-0.4,0.4-0.9,0.8-1.3,0.9c-0.2,0.1-0.4,0.1-0.5,0.1c-0.1,0-0.3-0.1-0.5-0.2c-0.2-0.1-0.3-0.3-0.6-0.5c-0.2-0.2-0.5-0.5-0.7-0.7
		c-0.5-0.5-0.9-1-1.3-1.6c-0.4-0.5-0.9-1.1-1.3-1.6c-0.8-1.1-1.7-2.2-2.5-3.4c-0.8-1.1-1.6-2.3-2.3-3.5c-0.4-0.6-0.7-1.2-1-1.8
		c-0.3-0.6-0.6-1.2-0.6-1.8l0,0.1c0-1.2,0-2.3,0-3.4c0-0.1,0-0.1-0.1-0.1c-0.1,0-0.1,0-0.1,0.1l0,0c-0.3,1.1-0.5,2.2-0.8,3.3l0,0
		l0,0c0,1.7,0.6,3,1.1,4.4c0,0,0,0,0,0.1c-5.4,5.9-10.8,11.6-16.6,17.1c-1.1,0.5-2.2,0.9-3.3,1.2c-1.4,0.3-2.8,0.4-4.1,0.3
		c-0.3,0-0.7-0.1-1-0.2c-0.3-0.1-0.6-0.2-0.9-0.3c-0.6-0.3-1.3-0.6-1.9-1c-1.3-0.6-2.8-1.2-4.3-1.5c-1.5-0.3-3.1-0.2-4.7,0.1
		c-1.5,0.3-2.9,1-4.2,1.7C58,71.2,56.8,72,55.7,73c-2.3,1.9-4,4.4-5.4,7c-0.7,1.3-1.3,2.6-1.9,4c-0.1,0.3-0.2,0.7-0.3,1.1
		c-0.1,0.4-0.1,0.8,0.1,1.2c0.1,0.2,0.2,0.4,0.4,0.5c0.2,0.1,0.4,0.2,0.6,0.2c0.4,0.1,0.8,0,1.2-0.1c1.5-0.3,2.8-1.1,4-2
		c1.2-0.8,2.5-1.3,3.8-1.9c1.3-0.6,2.6-1.1,4-1.5c0.7-0.2,1.4-0.4,2-0.6c0.3-0.1,0.7-0.2,1-0.2c0.3-0.1,0.7-0.1,0.8-0.1
		c0.1,0,0.2,0.1,0.3,0.1c0,0,0,0,0,0.1c0,0.2-0.2,0.6-0.5,0.8c-0.5,0.6-1.2,1.2-1.8,1.7l-2,1.7c-0.5,0.4-0.9,0.8-1.3,1.2
		c-1.8,0.9-3.6,1.7-5.5,2.5c-2,0.9-4,1.7-6,2.5c-2,0.8-4.1,1.5-6.1,2.1c-2.1,0.6-4.1,1.2-6.3,1.8c-3.8,1.2-7.5,2.6-11,4.5
		c-0.2-0.1-0.4-0.2-0.6-0.3c-0.5-0.1-1.1-0.2-1.6-0.2c-0.6,0-1.1,0-1.7,0.2c-0.6,0.1-1.1,0.3-1.6,0.6c-1,0.4-1.9,1-2.9,1.6
		c-0.8,0.5-1.6,1.1-2.2,1.8c0.2-0.3,0.4-0.6,0.6-0.9c0,0,0-0.1,0-0.1c0-0.1-0.1-0.1-0.2,0c-1.1,0.7-1.8,1.8-2.5,2.9
		c-0.7,1.1-1.2,2.2-1.7,3.4c-0.9,2.3-1.6,4.7-2.2,7.1l-0.9,3.5c-0.1,0.6-0.3,1.1-0.5,1.6c-0.2,0.5-0.4,1-0.7,1.5
		c-0.6,0.9-1.3,1.8-2.1,2.6c-0.4,0.4-0.8,0.8-1.3,1.1c0,0-0.1,0-0.1,0.1c0.3-1,0.4-2,0.4-3c0-0.8,0-1.5,0-2.3c0-0.8,0-1.5,0-2.3l0,0
		l0-0.1c-0.1-0.7-0.1-1.3-0.1-2c0-0.7,0-1.3,0.1-2c0.1-0.6,0.2-1.3,0.3-1.9c0.1-0.3,0.1-0.6,0.2-0.8c0.1-0.2,0.3-0.4,0.2-0.3
		L4,109.4c0,0-0.1,0-0.1,0c0,0,0,0,0,0l0-0.2c0-0.1,0-0.2,0-0.3c0,0,0-0.2-0.1-0.2c0-0.1-0.1-0.2-0.2-0.3c-0.1-0.2-0.4-0.4-0.6-0.4
		c-0.2-0.1-0.3-0.1-0.4-0.1c0-0.1,0.1-0.2,0.1-0.2c0.3-0.6,0.8-1.1,1.2-1.6c0.8-0.9,2.2-1.9,3.3-2.7c-0.4,1.4-0.7,2.7-1,4.1
		c0,0.1,0,0.1,0.1,0.1c0.1,0,0.1,0,0.1-0.1l0,0c0.9-2.9,1.9-5.7,3.2-8.5c1.2-2.8,2.6-5.4,4.2-7.9c0.4-0.6,0.9-1.2,1.3-1.8
		c0.5-0.6,0.9-1.2,1.4-1.7c1-1.1,2.1-2.1,3.2-3.1c2.3-2,4.6-3.8,7-5.7c4.8-3.7,9.6-7.5,14-11.7c1.1-1.1,2.2-2.2,3.2-3.4
		c0.5-0.6,0.9-1.3,1.4-1.9l1.1-2l0.7-1.4c1-0.8,2.1-1.5,3.3-2.1c1.3-0.7,2.7-1.3,4.1-1.8c0.7-0.3,1.4-0.5,2.1-0.7
		c0.7-0.2,1.5-0.2,2.2-0.3c0.7,0,1.5,0,2.1,0.3c0.6,0.3,0.9,0.9,1.1,1.6l0.1,0.3c0,0.1,0,0.2,0.1,0.3c0.1,0.2,0.2,0.5,0.5,0.6
		c0.5,0.3,0.9,0.3,1.3,0.2c0.8-0.1,1.5-0.5,2.2-0.8c1.4-0.7,2.7-1.6,3.9-2.5c0.6-0.5,1.2-0.9,1.8-1.4c0.6-0.5,1.1-1.1,1.6-1.7
		c1-1.2,1.8-2.5,2.5-3.9l0.7-1.5l-1.3,1c-0.9,0.7-1.8,1.3-2.7,1.9c-0.9,0.5-2,1.1-3,1.2c-0.5,0.1-1,0-1.2-0.4
		c-0.3-0.3-0.5-0.8-0.6-1.4c-0.1-0.5-0.1-1.1-0.2-1.7c-0.1-0.6-0.2-1.2-0.7-1.7c-0.1-0.1-0.3-0.2-0.4-0.3c-0.1-0.1-0.3-0.1-0.5-0.2
		c-0.3-0.1-0.6-0.1-0.9,0c-0.6,0.1-1.1,0.2-1.7,0.2c-1.1,0.1-2.2,0.2-3.4,0.2c-1.1,0.1-2.3,0.2-3.4,0.5c-0.4,0.1-0.8,0.3-1.2,0.5
		c0.1-0.1,0.2-0.3,0.3-0.4c1.9-2.4,3.9-4.6,6.1-6.7c1.1-1.1,2.2-2,3.4-3c1.2-0.9,2.3-1.8,3.6-2.7c2.4-1.8,4.8-3.6,7.3-5.4
		c4.9-3.6,9.8-7.1,14.8-10.4c2.5-1.7,5.1-3.3,7.7-4.8c2.6-1.5,5.2-3,7.9-4.3L107,7l0.1-0.1c2.3-1.7,4.5-3.3,6.9-4.2
		c1.2-0.4,2.5-0.7,3.8-0.7c1.3,0,2.6,0.1,4,0.4l0.1,0l0,0c1.1,0.1,2.2,0.1,3.1,0.2c0.5,0,0.9,0.1,1.1,0.3c0.1,0.1,0.1,0.1,0.2,0.2
		c0,0.1,0,0.1,0,0.2l0,0.1c-1.6,1.7-3.3,3.4-4.8,5.2l-2.5,2.7c-0.6,0.7-1.2,1.3-1.7,2.1c0-0.1-0.1-0.1-0.2-0.1c-0.1-0.1-0.3,0-0.4,0
		l0,0l0,0c-1.2,0.9-2.3,2-3.1,3.2c-0.9,1.2-1.6,2.6-2.2,3.9c-0.6,1.4-0.9,2.9-1,4.4c-0.1,1.1-0.1,2.2-0.1,3.3
		c-0.1-0.1-0.2-0.1-0.3-0.2c-0.1-0.1-0.3-0.1-0.5-0.1c-0.3,0-0.6,0.1-0.8,0.2c-0.2,0.1-0.4,0.3-0.5,0.5c-0.3,0.3-0.5,0.6-0.6,1
		c-0.3,0.7-0.6,1.3-0.9,2c0,0,0,0.1,0,0.1c0.1,0,0.1,0,0.2,0c0.5-0.6,0.9-1.1,1.3-1.7c0.2-0.3,0.5-0.5,0.7-0.7
		c0.2-0.2,0.5-0.3,0.5-0.2c0,0,0,0,0,0c0,0,0,0,0.1,0.1l0.2,0.2c0.1,0.1,0.2,0.2,0.3,0.3c0.2,0.2,0.6,0.2,0.9,0.2
		c0.3,0,0.6-0.1,0.7-0.2c0.4-0.2,0.5-0.2,0.5-0.1c0,0,0.2,0.2,0.3,0.4c0.1,0.2,0.3,0.5,0.4,0.8c0.1,0.3,0.3,0.6,0.4,0.9
		c0.3,0.6,0.5,1.3,0.7,1.9l1.3,4C116.2,40.2,117.2,42.8,117.7,45.6z M126.3,7.8l-1.9,3.9c-1.3,2.6-2.6,5.1-4,7.6l0,0.1l0,0.1
		c-0.5,1.1-0.9,2.2-1.4,3.3c-0.5,1.1-1,2.2-1.4,3.3c-0.5,1.1-0.9,2.2-1.4,3.3c-0.3,0.7-0.5,1.4-0.8,2.1c-0.1-0.2-0.2-0.4-0.3-0.6
		c-0.2-0.3-0.3-0.7-0.5-1c-0.2-0.3-0.4-0.7-0.7-1.1c-0.3-0.3-0.6-0.7-1.3-0.9c-0.3-0.1-0.7,0-1,0.1c-0.3,0.1-0.4,0.2-0.6,0.3
		c-0.1,0.1-0.2,0.1-0.3,0.1c0,0,0,0-0.1,0c0,0-0.1,0-0.1-0.1l-0.1,0l-0.1-0.1c0-1.1,0.1-2.3,0.3-3.4c0.2-1.4,0.5-2.9,1.2-4.2
		c0.7-1.3,1.5-2.5,2.3-3.7c0.8-1.2,1.7-2.4,2.6-3.5c0.1-0.1,0.2,0,0.3,0c-0.2,0.2-0.4,0.5-0.5,0.7c0,0,0,0.1,0,0.2
		c0.1,0,0.1,0,0.2,0l0,0c0.7-0.9,1.7-1.7,2.6-2.6l2.7-2.5l2.7-2.5l2.2-2.1C128.1,5.3,126.7,6.6,126.3,7.8z"/>
	<path class="st0" d="M108.4,15.8c0.3-0.2,0.6-0.4,0.9-0.6c0.6-0.4,1.3-0.7,2-1.1c0.7-0.4,1.4-0.9,1.9-1.5c0.5-0.6,1-1.2,1.3-2
		c0.1-0.4,0.3-0.8,0-1.2c-0.3-0.4-0.7-0.5-1.1-0.6l0,0l0,0c-1.8,0-3.5,0.7-4.9,1.8c-1.4,1.1-2.4,2.5-3.5,3.9c-0.5,0.6-1,1.2-1.4,1.9
		c-0.1,0.2-0.2,0.4-0.2,0.6c0,0.1,0,0.1,0,0.2c0,0.1,0.1,0.1,0.1,0.2c0.1,0.1,0.2,0.2,0.3,0.2c0.5,0.1,0.9,0,1.3-0.1
		c0.8-0.2,1.5-0.6,2.1-1.1C107.8,16.2,108.1,16,108.4,15.8z M105,16.9c-0.3,0.1-0.7,0.3-0.9,0.3c-0.1,0-0.2,0-0.2-0.2
		c0-0.1,0-0.3,0.1-0.5c0.2-0.7,0.7-1.4,1.2-1.9c1.1-1.4,2.5-2.4,3.8-3.4c0.7-0.5,1.4-0.9,2.1-1.3c0.7-0.4,1.5-0.7,2.4-0.7
		c0.4,0,0.7,0.1,0.9,0.4c0.2,0.3,0.1,0.7-0.1,1c-0.3,0.7-0.9,1.2-1.4,1.7c-1.1,1-2.5,1.5-4,2.2c-0.4,0.2-0.7,0.4-1,0.7
		c-0.3,0.2-0.6,0.4-0.9,0.6C106.3,16.2,105.7,16.6,105,16.9z"/>
	<path class="st0" d="M115.9,12.7c0.4-0.3,0.5-0.8,0.3-1.1c-0.2-0.2-0.7-0.2-1.1,0.2c-0.4,0.3-0.5,0.8-0.3,1.1
		C115.1,13.1,115.6,13.1,115.9,12.7z"/>
</g>
</svg>
