<?xml version="1.0" encoding="utf-8"?>
<!-- Generator: Adobe Illustrator 18.1.0, SVG Export Plug-In . SVG Version: 6.00 Build 0)  -->
<svg version="1.1" baseProfile="tiny" id="Layer_1" xmlns="http://www.w3.org/2000/svg" xmlns:xlink="http://www.w3.org/1999/xlink"
	 x="0px" y="0px" viewBox="0 0 174 128" 
width="174" height="128"
xml:space="preserve">
<g>
	<path fill="#2D2D2D" d="M150,40.4c-1,1.4-1.5,3-1.8,4.6c-0.2,0.8-0.3,1.6-0.3,2.4c0,0.4,0,0.8-0.1,1.2l0,1.2c0,1.6,0.2,3.2,0.7,4.8
		c0.4,1.6,1,3.1,2,4.3c0.5,0.6,1.1,1.2,1.8,1.6c0.2,0.1,0.4,0.2,0.6,0.2c0.2,0.1,0.4,0,0.6,0.1c0.5,0,0.8-0.1,1.2-0.2
		c1.5-0.7,2.2-1.9,2.6-3c0.9-2.2,1.1-4.2,1.3-5.6c0-0.7,0.1-1.2,0.1-1.6c0-0.4,0-0.6,0-0.6s0-0.2,0-0.6c0-0.4,0-0.9,0-1.6
		c-0.1-1.4-0.1-3.4-1-5.8c-0.2-0.6-0.5-1.2-1-1.8c-0.5-0.6-1-1.2-1.9-1.5l-0.4-0.1c-0.1,0-0.3-0.1-0.3-0.1l-0.3,0l-0.1,0l-0.1,0l0,0
		l0,0l-0.1,0c-0.5,0-1,0.1-1.4,0.3C151.2,39.1,150.5,39.7,150,40.4z M152.9,40.5c0.2-0.1,0.4-0.2,0.6-0.2l0,0l0,0l0,0l0,0l0.3,0
		c0.1,0,0.1,0,0.2,0c0,0,0.1,0,0.1,0c0.4,0.1,0.8,0.4,1.2,0.8c0.4,0.4,0.7,0.8,1,1.3c0.6,0.9,1,1.9,1.3,2.8c0.3,0.9,0.5,1.7,0.6,2.4
		c0.1,0.7,0.1,1.2,0.2,1.6c0,0.4,0,0.6,0,0.6s0,0.2,0,0.6c0,0.4,0,0.9-0.1,1.6c-0.1,0.7-0.2,1.5-0.5,2.4c-0.2,0.9-0.6,1.9-1.2,2.9
		c-0.6,1-1.4,2-2.4,2.4c-0.3,0.1-0.6,0.1-0.8,0.1c-0.2,0-0.4,0-0.5-0.1c-0.1-0.1-0.2-0.1-0.4-0.2c-0.5-0.3-1-0.7-1.4-1.3
		c-0.8-1.1-1.3-2.5-1.6-4c-0.3-1.5-0.4-3-0.4-4.5l0.1-1.1c0-0.4,0.1-0.7,0.1-1.1c0.1-0.7,0.2-1.5,0.4-2.2c0.4-1.4,0.9-2.7,1.7-3.8
		C152.1,41.1,152.5,40.7,152.9,40.5z"/>
	<path fill="#2D2D2D" d="M149.7,91.7c0-0.4,0-0.9-0.1-1.6c-0.1-1.4-0.3-3.4-1.2-5.7c-0.5-1.1-1.1-2.5-2.7-3.3
		c-0.2-0.1-0.5-0.2-0.7-0.2l-0.3-0.1l-0.1,0c0.1,0-0.1,0-0.1,0l0,0l0,0l-0.1,0c-0.5,0-1,0.1-1.4,0.3c-0.9,0.4-1.6,1-2.2,1.6
		c-1.1,1.3-1.9,2.9-2.3,4.5c-0.3,0.8-0.4,1.6-0.5,2.5c-0.1,0.4-0.1,0.9-0.1,1.3l-0.1,1.2c0,1.7,0.2,3.4,0.7,5
		c0.5,1.6,1.2,3.2,2.3,4.5c0.6,0.7,1.3,1.3,2.2,1.6c0.2,0.1,0.5,0.2,0.8,0.2l0.2,0l0.1,0l0.3,0c0.6,0,1-0.1,1.4-0.3
		c1.6-0.8,2.2-2.2,2.7-3.3c0.9-2.3,1-4.3,1.2-5.7c0-0.7,0.1-1.2,0.1-1.6c0-0.4,0-0.6,0-0.6S149.7,92.1,149.7,91.7z M149.5,92.8
		c0,0.4,0,0.9-0.1,1.6c-0.1,0.7-0.2,1.5-0.4,2.4c-0.2,0.9-0.5,2-1.1,3c-0.5,1-1.3,2.1-2.5,2.6c-0.3,0.1-0.6,0.2-0.9,0.1
		c-0.4,0-0.7-0.1-1-0.3c-0.6-0.3-1.1-0.8-1.5-1.4c-0.8-1.2-1.4-2.6-1.7-4.1c-0.3-1.5-0.5-3-0.5-4.6c0-1.6,0.2-3.1,0.5-4.6
		c0.3-1.5,0.9-2.9,1.7-4.1c0.4-0.6,0.9-1.1,1.5-1.4c0.6-0.3,1.3-0.3,1.9-0.1c1.2,0.5,2,1.6,2.5,2.6c0.5,1,0.8,2.1,1.1,3
		c0.2,0.9,0.3,1.7,0.4,2.4c0.1,0.7,0.1,1.2,0.1,1.6c0,0.4,0,0.6,0,0.6S149.5,92.4,149.5,92.8z"/>
	<path fill="#2D2D2D" d="M163.6,70.3h-6.9c4.1-3.2,6.9-11,6.9-20.4c0-12.3-4.8-22-11-22h-49.1c-0.4,0-0.7-0.2-0.9-0.5
		c-0.2-0.3-0.3-0.6-0.2-1l4.1-8.7c0,0,0,0,0,0c0,0,0,0,0-0.1c0.4-1,0-2.1-1-3.1c-0.8-0.8-2-1.5-3.3-2c-0.9-0.3-1.9-0.5-2.8-0.5
		c-1.8,0-3.2,0.7-3.7,1.8c-0.3,0.5-1.1,1.7-2.2,3.5c-1.1,1.8-2.5,4-3.7,5.9l-4.8-4.8c0.2-1.6,0.4-6.8-2.7-9.9
		C78.8,4.9,71,4.3,70.7,4.3c-0.3,0-0.6,0.1-0.8,0.3c-0.2,0.2-0.3,0.5-0.3,0.8c0,0.3,0.6,8.1,4.1,11.7c2.3,2.3,5.8,2.8,8.3,2.8
		c0.7,0,1.2,0,1.6-0.1l5.1,5.1c-0.3,0.5-0.6,0.9-0.9,1.3c-0.7,1.1-2,1.7-3.3,1.7h-64c-6.2,0-11,9.7-11,22c0,9.4,2.8,17.2,6.9,20.4
		h-4.9c-6.2,0-11,9.7-11,22s4.8,22,11,22h120h12h20c6.2,0,11-9.7,11-22S169.8,70.3,163.6,70.3z M75.1,15.6c-2.3-2.3-3.1-7-3.4-9.2
		c2.2,0.3,6.9,1.2,9.2,3.4c1.8,1.8,2.2,4.6,2.2,6.6l-4-4c-0.4-0.4-1-0.4-1.4,0s-0.4,1,0,1.4l4,4C79.9,17.8,77,17.5,75.1,15.6z
		 M143.6,112.3c-4.9,0-9-9.2-9-20s4.1-20,9-20s9,9.2,9,20S148.5,112.3,143.6,112.3z M148.2,72.3h10.7c-2.4,2.2-4.3,6-5.4,10.7
		C152.5,78.3,150.6,74.5,148.2,72.3z M161.6,49.9c0,10.8-4.1,20-9,20s-9-9.2-9-20s4.1-20,9-20S161.6,39.1,161.6,49.9z M99.4,14
		c0.7,0,1.4,0.1,2.1,0.4c1,0.4,1.9,0.9,2.5,1.5c0.5,0.5,0.6,0.9,0.6,1.1l0,0c-0.1,0.3-0.8,0.6-1.9,0.6c-0.7,0-1.4-0.1-2.1-0.4
		c-1-0.4-1.9-0.9-2.5-1.5c-0.5-0.5-0.6-0.9-0.6-1.1C97.6,14.4,98.3,14,99.4,14z M11.6,49.9c0-10.8,4.1-20,9-20h64c2,0,3.8-1,4.9-2.6
		c1.5-2.2,3.9-6.1,5.7-9c0.4-0.6,0.7-1.2,1-1.6c0.1,0.1,0.2,0.3,0.4,0.4c0.8,0.8,2,1.5,3.3,2c0.9,0.3,1.9,0.5,2.8,0.5
		c0.2,0,0.5,0,0.7,0l-2.9,6.1c0,0,0,0.1,0,0.1c-0.3,1-0.1,2,0.5,2.8c0.6,0.8,1.5,1.3,2.5,1.3h44.4c-3.8,3.4-6.4,11-6.4,20
		s2.6,16.6,6.4,20H20.6C15.7,69.9,11.6,60.7,11.6,49.9z M131.6,112.3h-120c-4.9,0-9-9.2-9-20s4.1-20,9-20h120h7.4
		c-3.8,3.4-6.4,11-6.4,20s2.6,16.6,6.4,20H131.6z M148.2,112.3c2.4-2.2,4.3-6,5.4-10.7c1.1,4.8,3,8.6,5.4,10.7H148.2z M163.6,112.3
		c-4.9,0-9-9.2-9-20s4.1-20,9-20s9,9.2,9,20S168.5,112.3,163.6,112.3z"/>
	<path fill="#2D2D2D" d="M169.7,91.7c0-0.4,0-0.9-0.1-1.6c-0.1-1.4-0.3-3.4-1.2-5.7c-0.5-1.1-1.1-2.5-2.7-3.3
		c-0.2-0.1-0.5-0.2-0.7-0.2l-0.3-0.1l-0.1,0c0.1,0-0.1,0-0.1,0l0,0l0,0l-0.1,0c-0.5,0-1,0.1-1.4,0.3c-0.9,0.4-1.6,1-2.2,1.6
		c-1.1,1.3-1.9,2.9-2.3,4.5c-0.3,0.8-0.4,1.6-0.5,2.5c-0.1,0.4-0.1,0.9-0.1,1.3l-0.1,1.2c0,1.7,0.2,3.4,0.7,5
		c0.5,1.6,1.2,3.2,2.3,4.5c0.6,0.7,1.3,1.3,2.2,1.6c0.2,0.1,0.5,0.2,0.8,0.2l0.2,0l0.1,0l0.3,0c0.6,0,1-0.1,1.4-0.3
		c1.6-0.8,2.2-2.2,2.7-3.3c0.9-2.3,1-4.3,1.2-5.7c0-0.7,0.1-1.2,0.1-1.6c0-0.4,0-0.6,0-0.6S169.7,92.1,169.7,91.7z M169.5,92.8
		c0,0.4,0,0.9-0.1,1.6c-0.1,0.7-0.2,1.5-0.4,2.4c-0.2,0.9-0.5,2-1.1,3c-0.5,1-1.3,2.1-2.5,2.6c-0.3,0.1-0.6,0.2-0.9,0.1
		c-0.4,0-0.7-0.1-1-0.3c-0.6-0.3-1.1-0.8-1.5-1.4c-0.8-1.2-1.4-2.6-1.7-4.1c-0.3-1.5-0.5-3-0.5-4.6c0-1.6,0.2-3.1,0.5-4.6
		c0.3-1.5,0.9-2.9,1.7-4.1c0.4-0.6,0.9-1.1,1.5-1.4c0.6-0.3,1.3-0.3,1.9-0.1c1.2,0.5,2,1.6,2.5,2.6c0.5,1,0.8,2.1,1.1,3
		c0.2,0.9,0.3,1.7,0.4,2.4c0.1,0.7,0.1,1.2,0.1,1.6c0,0.4,0,0.6,0,0.6S169.5,92.4,169.5,92.8z"/>
	<path fill="#2D2D2D" d="M25.6,40.3h41c0.6,0,1-0.4,1-1s-0.4-1-1-1h-41c-0.6,0-1,0.4-1,1S25,40.3,25.6,40.3z"/>
	<path fill="#2D2D2D" d="M77.6,51.3h49c0.6,0,1-0.4,1-1c0-0.6-0.4-1-1-1h-49c-0.6,0-1,0.4-1,1C76.6,50.9,77,51.3,77.6,51.3z"/>
	<path fill="#2D2D2D" d="M87.6,61.3h-44c-0.6,0-1,0.4-1,1s0.4,1,1,1h44c0.6,0,1-0.4,1-1S88.1,61.3,87.6,61.3z"/>
	<path fill="#2D2D2D" d="M121.6,83.3h-35c-0.6,0-1,0.4-1,1s0.4,1,1,1h35c0.6,0,1-0.4,1-1S122.1,83.3,121.6,83.3z"/>
	<path fill="#2D2D2D" d="M50.6,92.3h-39c-0.6,0-1,0.4-1,1s0.4,1,1,1h39c0.6,0,1-0.4,1-1S51.1,92.3,50.6,92.3z"/>
	<path fill="#2D2D2D" d="M112.6,101.3h-43c-0.6,0-1,0.4-1,1s0.4,1,1,1h43c0.6,0,1-0.4,1-1S113.1,101.3,112.6,101.3z"/>
</g>
</svg>
