<?xml version="1.0" encoding="utf-8"?>
<!-- Generator: Adobe Illustrator 23.0.0, SVG Export Plug-In . SVG Version: 6.00 Build 0)  -->
<svg version="1.1" id="Layer_1" xmlns="http://www.w3.org/2000/svg" xmlns:xlink="http://www.w3.org/1999/xlink" x="0px" y="0px"
	 viewBox="0 0 128 128" style="enable-background:new 0 0 128 128;" xml:space="preserve">
<style type="text/css">
	.st0{fill:#2D2D2D;}
</style>
<g>
	<path class="st0" d="M127.6,107.3c-0.1,0-0.2-0.1-0.3-0.1c0,0-0.1,0-0.1,0l0,0l-0.2,0l-1.3,0.2c-1.7,0.3-3.5,0.5-5.2,0.4
		c-3.4-0.1-6.7-1.5-9.5-3.4c-1.1-0.8-2.1-1.6-3.1-2.5c1-0.7,1.8-1.5,2.6-2.4c0.9-1,1.6-2.1,2.3-3.3c0.6-1.2,1.2-2.4,1.5-3.8
		c0.1-0.3,0.2-0.7,0.2-1c0-0.3,0.1-0.7,0.1-1c0-0.3,0-0.7-0.1-1c0-0.3-0.1-0.7-0.2-1c-0.3-1.3-0.7-2.6-1.2-3.8
		c-0.4-1.2-0.9-2.5-1.4-3.7l-2.7-7.3c-0.3-1.2-0.5-2.4-0.8-3.7c-0.1-0.6-0.3-1.2-0.5-1.9c-0.1-0.3-0.2-0.6-0.4-0.9
		c-0.1-0.2-0.2-0.3-0.3-0.5c-0.1-0.2-0.2-0.3-0.3-0.4c-1.6-2-3.2-3.8-4.8-5.7c-0.4-0.5-0.8-1-1.2-1.4c-0.2-0.3-0.4-0.5-0.6-0.7
		c-0.2-0.3-0.5-0.5-0.7-0.7c-1-0.9-2.2-1.6-3.4-2c-2.5-0.8-5.2-1.1-7.8-0.9c0,0,0,0,0,0c-0.7-1-1.6-1.9-2.5-2.8
		c-1.6-1.5-3.4-2.7-5.5-3.5l-0.4-0.1c-0.1,0-0.3-0.1-0.4-0.1l-0.8-0.2c-0.3-0.1-0.6-0.1-0.8-0.1c-0.3,0-0.5-0.1-0.9,0
		c-1.3,0.1-2.3,0.6-3.3,1.1c-1,0.5-1.8,1.2-2.6,2c-0.4,0.4-0.8,0.8-1.1,1.3c-0.3,0.5-0.6,1-0.7,1.6l0,0.2l0.2,0.1
		c0.2,0.1,0.3,0.4,0.4,0.6c0.1,0.1,0.1,0.3,0.1,0.4c0,0.1,0,0.2,0,0.3c-0.5,0.3-1,0.6-1.5,0.8l-0.1,0l0,0.1
		c-0.1,0.3-0.2,0.6-0.3,0.9c-0.3,0-0.7,0-1,0c-0.4,0-0.8,0-1.1-0.1l-2.3-0.2c-1.5-0.1-3.1-0.2-4.6-0.2c-0.8,0-1.6,0-2.3,0
		c-0.8,0.1-1.5,0.2-2.3,0.2c-1.5,0.1-3,0.1-4.5,0c-3-0.2-6-0.5-9.1-1c-3.1-0.4-6.2-0.4-9.3,0.1c-1.5,0.3-3,0.7-4.5,1.2
		c-1.5,0.5-2.8,1.4-4.1,2.3c-1.3,0.9-2.5,1.9-3.6,3c-0.6,0.6-1.1,1.1-1.6,1.7c-0.3,0.3-0.5,0.6-0.8,0.9c-0.2,0.3-0.4,0.6-0.7,0.9
		c-1,1.1-2,2.2-3.1,3.4c-0.5,0.6-1,1.2-1.5,1.8c-0.5,0.6-1,1.2-1.4,2c-0.4,0.8-0.7,1.5-1,2.3c-0.2,0.8-0.5,1.5-0.6,2.3
		c-0.4,1.5-0.6,3.1-0.8,4.6l0,0.1l0,0.1c0.1,1.5,0.1,3,0.2,4.4c0,1.5,0,3,0,4.4c0,0.7-0.1,1.5-0.2,2.2c-0.1,0.4-0.1,0.7-0.2,1
		L7.1,96c-0.3,0.9-1.7,3.6-1.7,3.6c-1,1.3-1,3.9-1,6.3c0,1,0,2.3-0.1,2.8c0,0,0,0,0,0c-0.1,0.1-0.1,0.1-0.2,0.2
		c-0.5,0.8-3.4,2.8-4.1,4.1c0,0-0.4,3.3,3.3,2.3c0.7-1.1,2.6-3,2.3-5.9c0,0,0,0,0,0c0.3-0.6,0.3-1.7,0.3-3.5c0-1.5,0.1-4.2,0.6-4.9
		c1.5-2.2,3.6-5.5,4.5-8.1c0.6-1.7,0.8-3.7,0.9-5.5c0-0.1,0-0.2,0-0.3c0,0.1,0,0.2,0,0.3c0,1.2,0,2.5,0.2,3.7
		c-0.6,1.9-3.9,11.8-3.8,15.7c-0.7,3.2-2.8,10.1-4.1,11.4l-0.1,0.1c-1,1.2-0.9,2.9-0.6,4.3c0,0.3-0.2,0.8-0.4,1.3
		c-0.2,0.6-0.5,1.3-0.6,2c-0.1,0.7,0.2,1.4,0.8,1.9c0.3,0.2,0.7,0.3,1.1,0.3h8.8c0.7,0,1.3-0.3,1.7-0.9c0.4-0.6,0.4-1.4,0-2.1
		c-1-1.5-1.1-2.3-1.1-2.7c0-1,1.1-3.8,1.8-5.9c0.7-1.9,1.1-3.2,1.2-3.7c0.1-1,2-4.1,4-5c0,0,0.1,0,0.1,0c0,0,0,0,0.1,0
		c0,0,0.1,0,0.1-0.1c0.2-0.1,0.3-0.2,0.4-0.3c0.4,0.8,1.8,3.4,3.2,4.4c0.7,1.8,4,10,4.4,11.1c0,0.2,0,0.7,0,1.2
		c0,0.4,0.1,0.7,0.3,1.1c0.4,0.7,1.1,1.1,1.8,1.1h0l1.6,0c1.4,0,3-0.1,4.1-0.1h2.7c0.6,0,1.2-0.3,1.5-0.8c0.4-0.7,0.3-1.6-0.3-2.2
		c-1-0.9-1.8-1.8-2.4-2.7c-1.7-2.2-4-7.6-4.4-9.4c-0.4-1.5-0.6-5.1-0.7-6.4c0.6,0.1,1.1,0.1,1.7,0.1c1.5,0.1,3.1,0.2,4.6,0.2
		c1.5,0,3.1,0.1,4.7,0c0.8,0,1.6-0.1,2.3-0.2c0.8-0.1,1.6-0.2,2.4-0.4c3.1-0.8,5.9-1.9,8.8-3c1.4-0.6,2.8-1.2,4.2-1.9
		c0.5-0.2,1.7-0.8,2.7-1.1c0.4-0.2,0.8,0.2,0.7,0.6c-0.4,2.3-0.4,6.5,0.4,8.1c0,0.5,0,1.2,0,2.1c0.1,2.5,0.2,7.8-0.1,8.7
		c-0.4,1.4-0.2,3.5,0.1,4.6c0.1,0.4,0,0.9-0.2,1.3c-0.5,0.8-0.8,1.5-1,2c-0.1,0.4-0.1,0.9,0.1,1.3c0.3,0.4,0.7,0.7,1.2,0.7h7.9
		c0.6,0,1.1-0.3,1.4-0.8c0.3-0.6,0.2-1.2-0.2-1.7c-1.3-1.4-1.3-2-1.3-2.1c0.1-0.9,1.4-6,2.4-9.7c0.5-2,1-3.7,1.1-4.4
		c0-0.2,0.1-0.3,0.1-0.5c1.1,0.4,2.6,1,3.2,1.4c0,0.6-0.4,2.4-1.1,4.2l-1.8,2.2c-0.4,0.5-0.6,1.1-0.5,1.7c0.1,0.7,0.6,1.3,1.2,1.5
		c1.7,0.7,4.4,1.8,6.1,2.5c0.2,0.1,0.4,0.1,0.6,0.1c0.4,0,0.7-0.1,1-0.4c0.3-0.3,0.4-0.7,0.4-1.1c-0.1-2.3,0.2-6.2,0.9-7.2
		c1.3-1.8,2-6.9,0.6-8.9c-0.8-1.1-7-8.1-8.6-9.7c0-0.1-0.1-0.2-0.1-0.3c0.1-1.2,0.2-2.4,0-3.7c0.1-0.3,0.2-0.6,0.3-0.8
		c0.1-0.3,0.2-0.7,0.2-1c0.1-0.7,0.2-1.4,0.3-2.1c0-0.7,0.1-1.4,0-2c0-0.2,0-0.4,0-0.6c0-0.4,0.4-0.6,0.7-0.4
		c0.2,0.1,0.4,0.3,0.6,0.4c0.5,0.3,1.1,0.6,1.7,0.8L84,85l0.2-0.2c0.6-0.4,1.1-0.9,1.6-1.5c0.3,0.5,0.7,0.9,1.2,1.3
		c0.6,0.3,1.3,0.4,2,0.2c0.1,0,2.4,0.5,3.2,0.5c1.2,0,2.4-0.2,3.1-0.6c0,0,0,0,0,0l0.4,1l0.1,0.2l0.3-0.1c0,0,0.1,0,0.1,0
		c0.1,3.5,0.7,7.1,1.9,10.4c0.6,1.7,1.4,3.3,2.4,4.9c-1.3,1.1-2.6,2.3-3.8,3.6c-0.7,0.7-1.4,1.5-2,2.3c-0.6,0.9-1.1,1.8-1.4,2.9
		c-0.3,1.1-0.2,2.2,0,3.3c0.1,0.6,0.4,1,0.6,1.5l0.8,1.3c0.5,0.9,1,1.8,1.4,2.7c0.1,0.2,0.2,0.5,0.2,0.7c0,0.1,0,0.2,0,0.3v2.7
		l0.8-0.4c1.1-0.5,2.2-1.1,3.2-1.7l0.7-0.4l-0.5-0.7c-0.4-0.5-0.8-1.2-1.1-1.8c-0.3-0.6-0.6-1.3-0.7-2c-0.3-1.3-0.3-2.7,0.3-3.9
		c0.1-0.3,0.3-0.6,0.5-0.9c0.2-0.3,0.4-0.6,0.6-0.9c0.4-0.6,0.9-1.2,1.4-1.8c0.8-1,1.6-1.9,2.5-2.9c0.1,0.1,0.2,0.2,0.2,0.2
		c5.6,4.8,13.4,6.7,20.4,4.4c0.9-0.3,1.7-0.6,2.5-1l0.3-0.2l0.2-0.1l0,0l0,0l0.1,0c0.1-0.1,0.2-0.1,0.2-0.2
		C128.1,108,128,107.5,127.6,107.3z M37.6,121.4c0.7,0.9,1.5,1.8,2.6,2.8c0.1,0.1,0.1,0.1,0,0.2c0,0.1-0.1,0.1-0.2,0.1h-2.8
		c-1.1,0-2.7,0-4.2,0.1l-1.6,0c-0.2,0-0.3-0.1-0.4-0.2c-0.1-0.1-0.2-0.3-0.2-0.4c0-0.7-0.1-1.4-0.1-1.4l0-0.1l0-0.1
		c0-0.1-4.2-10.3-4.6-11.4l-0.1-0.3l-0.2-0.1c-0.9-0.5-2.2-2.6-2.9-3.9l2.4-0.6l2.9-0.8c0.9-0.3,1.8-0.5,2.7-0.9
		c0.4,0.1,0.9,0.1,1.3,0.2c0.1,1,0.3,5.2,0.7,6.9C33.3,113.3,35.7,118.9,37.6,121.4z M87.4,105.4c0.9,1.2,0.3,5.6-0.7,7.1
		c-1.1,1.7-1.2,6.5-1.1,8c-1.7-0.7-4.3-1.8-5.9-2.5c-0.2-0.1-0.3-0.2-0.3-0.3c0-0.2,0-0.3,0.1-0.4l2-2.5l0-0.1
		c1.9-5.1,1.1-5.7,0.8-6c-0.6-0.5-2.9-1.4-3.7-1.7c0,0,0,0,0,0c0.8-2.3,2-5.5,1.5-8.2c-0.1-0.7-0.2-1.3-0.2-1.9
		C82,99.1,86.5,104.2,87.4,105.4z M80.4,84.7C80.4,84.7,80.4,84.8,80.4,84.7c-0.1,0.7-0.3,1.3-0.4,2c-0.2,0.6-0.4,1.3-0.6,1.9
		c-0.1,0.3-0.2,0.6-0.4,0.9c-0.1,0.3-0.3,0.6-0.4,0.8c0,0-0.1,0.1-0.1,0.1c-0.1,0.2-0.1,0.4,0,0.5c0,0,0,0,0,0c0.2,1,0.1,2,0,3.2
		c-0.1,1.4-0.2,2.9,0.1,4.9c0.4,2.3-0.7,5.3-1.5,7.4c-0.3,0.9-0.6,1.6-0.7,2.2c-0.2,0.7-0.6,2.4-1.1,4.4c-1.3,5-2.3,8.9-2.5,9.9
		c-0.1,0.9,0.4,1.9,1.6,3.2h-7.8c0.2-0.6,0.7-1.3,0.8-1.6c0.5-0.7,0.6-1.6,0.4-2.5c-0.3-1.1-0.4-2.9-0.2-3.7
		c0.4-1.1,0.3-4.9,0.2-9.3c0-1-0.1-1.8-0.1-2.2v-0.2l-0.1-0.2c-0.2-0.3-0.3-0.8-0.4-1.5c0.4-0.2,0.7-0.4,1-0.7c0.4-0.3,0.7-0.6,1-1
		c0.6-0.7,1-1.5,1.4-2.3c0.3-0.8,0.5-1.7,0.5-2.5c0-0.4,0-0.9,0-1.3c0-0.4-0.1-0.8-0.1-1.3c0,0.4,0,0.8-0.1,1.3
		c-0.1,0.4-0.1,0.8-0.2,1.2c-0.2,0.8-0.5,1.6-0.9,2.3c-0.4,0.7-0.9,1.3-1.5,1.8c-0.3,0.3-0.6,0.5-0.9,0.7c-0.1,0.1-0.2,0.1-0.3,0.2
		c-0.1-2,0.1-4.2,0.4-5l0.1-0.3l-0.1-0.3c-0.3-0.8-1.1-5.1-1.6-8c0-0.1,0-0.1,0-0.2c0-0.2,0-0.5,0.1-0.8c0-0.3,0.1-0.6,0.2-0.8
		c0.2-0.6,0.4-1.1,0.6-1.6c0.3-0.5,0.6-1.1,0.9-1.6c0.2-0.3,0.3-0.5,0.5-0.8l0.6-0.7l-0.7,0.6c-0.2,0.2-0.5,0.4-0.7,0.6
		c-0.4,0.4-0.9,0.9-1.2,1.4c-0.4,0.5-0.7,1-1.1,1.6c-0.1,0.3-0.3,0.6-0.4,0.9c-0.1,0.2-0.2,0.4-0.2,0.7c-0.1,0.2-0.2,0.4-0.2,0.6
		c0.1,0.4,0.4,2.3,0.8,4.2c0.4,2.2-0.8,4.3-2.8,5.1l0,0c-1.4,0.5-2.9,1-4.3,1.5c-1.5,0.5-2.9,1-4.4,1.4c-1.5,0.4-2.9,0.9-4.4,1.2
		c-1.4,0.3-2.9,0.4-4.5,0.5c-1.5,0-3,0.1-4.6,0c-1.5,0-3.1-0.1-4.6-0.1c-0.8,0-1.5-0.1-2.3-0.1c-0.7,0-1.6-0.1-2.2-0.2l-0.2,0
		l-0.1,0.1c-0.9,0.4-1.8,0.7-2.7,1.1l-2.8,1c-0.1,0.1-0.3,0.1-0.4,0.2c1.1-0.8,2.2-1.6,3.2-2.5c2.1-1.8,4.1-3.8,5.7-6
		c0.9-1.1,1.6-2.2,2.3-3.4c0.7-1.2,1.3-2.4,1.8-3.7c1-2.6,1.5-5.3,1.6-8c-0.2,2.7-0.9,5.4-2,7.9c-0.5,1.2-1.2,2.4-1.9,3.6
		c-0.7,1.1-1.5,2.2-2.4,3.3c-1.7,2.1-3.7,3.9-5.9,5.5c-2.1,1.6-4.4,3.1-6.8,4.2c-2.5,1-4.7,4.6-5,6.2c-0.1,0.5-0.6,2-1.1,3.4
		c-1.1,3-1.8,5.3-1.9,6.4c0,0.9,0.4,2.1,1.3,3.6c0.1,0.2,0.1,0.3,0,0.4c0,0.1-0.1,0.2-0.3,0.2h-9c-0.1,0-0.2-0.1-0.2-0.1
		c0,0-0.1-0.1-0.1-0.3c0.1-0.6,0.3-1.2,0.5-1.8c0.3-0.7,0.5-1.4,0.5-1.9l0-0.1c-0.3-1.5-0.2-2.5,0.3-3.1c1.8-1.9,4-9.9,4.5-12.2
		l0-0.1l0-0.1c-0.2-3.9,3.8-15.4,3.8-15.5c0,0,0,0,0-0.1c0-0.1,0-0.1,0.1-0.2v0c0-0.6,0.2-1.3,0.3-2c0.2-0.7,0.4-1.3,0.6-2
		c0.2-0.7,0.5-1.3,0.9-1.9c0.3-0.6,0.8-1.2,1.2-1.8c-0.5,0.5-1.1,1-1.5,1.5c-0.5,0.6-0.9,1.2-1.3,1.8c-0.3,0.5-0.6,1-0.8,1.6
		c0-0.3-0.1-0.6-0.1-0.9c-0.1-1.2-0.1-2.4,0.1-3.5c0.1-0.9,2.3-5.4,3.2-6.2c-0.9,0.7-1.8,1.5-2.4,2.5c-1.1,1.1-3,2.8-3.3,4.8
		c-0.1,0.7-0.2,1.5-0.3,2.4c-0.1,1.7-0.3,3.6-0.8,5.1c-0.4,1.1-1.1,2.5-1.9,4c0.2-0.3,0.3-0.7,0.4-1c0.2-0.4,0.3-0.8,0.3-1.1
		c0.2-0.8,0.3-1.5,0.4-2.3c0.2-1.5,0.3-3,0.3-4.5c0.1-1.5,0.1-2.9,0-4.4c0.2-1.5,0.5-3,0.9-4.4c0.4-1.4,0.8-2.9,1.4-4.1
		c0.7-1.2,1.7-2.4,2.7-3.6c1-1.2,2-2.3,3-3.5c0.2-0.3,0.5-0.7,0.7-1c0.2-0.3,0.4-0.6,0.7-0.9c0.5-0.6,1-1.2,1.5-1.7
		c1-1.1,2.1-2.2,3.3-3.2c1.2-1,2.4-1.8,3.8-2.4c1.4-0.6,2.9-1,4.4-1.3c3-0.6,6.1-0.4,9,0.2c3,0.7,6.1,1.3,9.2,1.5
		c1.6,0.1,3.1,0.1,4.7,0c0.4,0,0.8-0.1,1.2-0.1c0.4-0.1,0.7-0.1,1.1-0.2c0.7-0.1,1.5-0.1,2.3-0.2c1.5-0.1,3.1-0.1,4.6-0.1
		c0.8,0,1.5-0.1,2.3-0.1c0.7-0.1,1.4-0.1,2.1-0.3c-0.3,1.2-0.5,2.5-0.6,3.7c-0.1,1.6,0,3.3,0.3,4.9c0.1,0.4,0.2,0.8,0.3,1.2
		c0.1,0.4,0.2,0.8,0.3,1.2c0.1,0.4,0.2,0.8,0.4,1.2l0.5,1.1l0.2,0.6l0.9,1.6c0.4,0.7,0.9,1.4,1.3,2.1l0.1,0.1l0.2,0.1
		c0.3,0.1,0.7,0.3,1,0.4c0,0,0,0,0,0l-0.3,0.5l-0.6,1.1l1.3,0.1c1,0.1,2.1,0.3,2.9,0.8c0.4,0.2,0.8,0.5,1.1,0.9l0.1,0.1l0.1,0.2
		l0.2,0.3l0.5,0.7c0.3,0.4,0.8,1.1,1.3,1.6C80.2,82.7,80.5,83.7,80.4,84.7z M96.2,85.2c-0.2-0.3-0.4-0.6-0.5-1
		c-0.1-0.4-0.1-0.6-0.1-0.7c-0.1-0.7,0.1-1.4,0.2-2c0.1-0.7,0.1-1.3,0.2-2l0.1-1c0-0.4,0.1-0.7,0.1-1.1c0,0,0,0,0-0.1
		c0,0-0.1,0-0.1,0l0,0c-0.5,0.5-0.9,1.2-1.2,1.9c-0.3,0.7-0.4,1.5-0.4,2.3c0,0.7,0.2,1.3,0.5,1.9c-1.2,0.4-3.4,0.6-4.5,0.3
		c-0.1-0.1-0.1-0.3-0.2-0.4c-0.1-0.3-0.1-0.5-0.2-0.8c-0.1-0.6-0.1-1.2-0.1-1.8c0-0.6,0.1-1.2,0.2-1.8c0.1-0.3,0.1-0.6,0.2-0.9
		l0.3-0.9l-0.5,0.8c-0.1,0.3-0.3,0.6-0.4,0.8c-0.2,0.6-0.5,1.2-0.6,1.8c-0.2,0.6-0.3,1.3-0.3,1.9c0,0.3,0,0.6,0,0.8
		c-0.4,0.1-0.8,0.1-1.1,0c-0.6-0.3-0.9-1.1-1-1.4c0,0,0,0,0-0.1c0.4-0.7,0.7-1.4,0.9-2.2c0.3-1,0.6-2,0.7-3c0.1-1,0.2-2,0.1-3
		c0,0,0-0.1-0.1-0.1c0,0-0.1,0-0.1,0.1c-0.1,1-0.3,2-0.5,2.9c-0.3,0.9-0.6,1.9-1,2.8c-0.3,0.7-2.6,3.8-3.1,4.2
		c-0.8-0.4-1.6-0.9-2.3-1.6c-0.7-0.7-1.4-1.6-2-2.6l-0.5-0.7l-0.2-0.4l-0.1-0.2l-0.2-0.2c-0.4-0.5-1-1-1.6-1.3
		c-0.6-0.3-1.2-0.5-1.8-0.7c-0.2,0-0.4-0.1-0.7-0.1l0.2-0.4l0.6-1.1l-1.2,0c0,0-0.2,0-0.4,0c-0.1,0-0.3-0.1-0.4-0.1
		c-0.2-0.1-0.5-0.1-0.7-0.2c-0.4-0.6-0.8-1.1-1.2-1.7l-0.6-1l-0.3-0.5l-0.3-0.5c-0.7-1.4-1.3-2.8-1.7-4.3c-0.4-1.5-0.6-3.1-0.6-4.7
		c0-1.5,0.3-3.1,0.8-4.5c0.6-0.3,1.1-0.5,1.7-0.8l0.2-0.1v-0.2c0-0.2,0-0.4,0-0.5c0-0.2-0.1-0.3-0.1-0.5c0-0.1-0.1-0.3-0.2-0.4
		c-0.2-0.3-0.1-0.7,0.1-1c0.1-0.1,0.2-0.3,0.3-0.4c0.3-0.4,0.7-0.7,1.1-1c0.8-0.6,1.7-1.1,2.6-1.6c0.9-0.4,1.9-0.8,2.7-0.9
		c0.2,0,0.5,0,0.7,0c0.2,0,0.5,0,0.7,0.1l0.7,0.1c0.1,0,0.2,0,0.4,0.1l0.4,0.1c1.9,0.6,3.7,1.6,5.3,2.9c1.6,1.3,3.1,2.8,4.5,4.4v0
		c0,0,0.1,0,0.1,0c0,0,0.1-0.1,0-0.1c-0.4-0.7-0.9-1.4-1.4-2.1c1.2,0.1,2.6,0.3,3.8,0.6c1.2,0.3,2.3,0.7,3.4,1.2
		c1.1,0.5,2.1,1.1,2.9,1.9c0.2,0.2,0.4,0.4,0.5,0.6c0.2,0.2,0.4,0.5,0.6,0.7c0.4,0.5,0.7,1,1.1,1.5c0.8,1,1.6,2,2.4,2.9
		c0.8,0.9,1.7,1.8,2.5,2.7c0.1,0.1,0.2,0.2,0.3,0.3c0.1,0.1,0.1,0.2,0.2,0.3c0.1,0.2,0.2,0.5,0.4,0.8c0.2,0.5,0.4,1.1,0.6,1.7
		c0.4,1.2,0.7,2.4,1.1,3.6l0,0.1l0,0c1.2,2.3,2.3,4.7,3.1,7.1c0.9,2.4,1.5,5,1.8,7.5c0.2,1.2,0.1,2.4-0.1,3.6
		c-0.2,1.2-0.7,2.4-1.2,3.5c-0.5,1.1-1.2,2.2-1.9,3.3c-0.6,1-1.3,1.9-2.1,2.7c-1.1-1.1-2.2-2.3-3.1-3.6c1.3-1.5,2.1-2.5,2.6-3.2
		c2.3-3.4-3.2-8.7-3.9-9.3c0,0,0,0-0.1,0c0.1-0.2,0.2-0.3,0.2-0.5c0.1-0.3,0.2-0.6,0.2-1c0,0,0,0,0-0.1c0,0-0.1,0-0.1,0l0,0
		c-0.2,0.2-0.4,0.5-0.6,0.6c-0.2,0.2-0.4,0.4-0.7,0.6c-0.3,0.2-0.6,0.4-0.8,0.5c-0.3-0.3-0.6-0.5-1-0.7c-0.5-0.2-1-0.4-1.5-0.4
		C98,84.6,97,84.8,96.2,85.2z M103.7,96.9c-0.8-1.5-1.6-3-2-4.7c-0.4-1.5-0.7-3-0.8-4.6l0.4-0.1c0.4-0.1,0.7-0.4,1-0.6c0,0,0,0,0,0
		c1.4,1.3,4.9,5.3,3.6,7.2C105.5,94.8,104.8,95.7,103.7,96.9z M100.7,107.4c-0.6,0.5-1.1,1.1-1.6,1.7c-0.3,0.3-0.5,0.6-0.7,0.9
		c-0.2,0.3-0.5,0.6-0.7,1c-0.5,0.7-0.7,1.6-0.8,2.5c0,0.2,0,0.4,0,0.7l0.1,0.7c0,0.2,0.1,0.4,0.1,0.6c0,0.2,0.1,0.4,0.1,0.6
		c0.2,0.8,0.6,1.6,1,2.3c0.3,0.5,0.6,0.9,0.9,1.4c-0.6,0.4-1.1,0.7-1.7,1.1l-0.1-0.7l-0.1-0.4c0-0.1,0-0.3-0.1-0.4
		c-0.1-0.3-0.2-0.5-0.3-0.8c-0.5-0.9-1-1.8-1.5-2.7c-0.2-0.4-0.5-0.9-0.7-1.4c-0.2-0.5-0.4-0.9-0.4-1.4c-0.1-1,0.1-1.9,0.4-2.8
		c0.2-0.4,0.4-0.9,0.6-1.3c0.2-0.4,0.5-0.8,0.8-1.2c0.6-0.8,1.2-1.6,1.8-2.3c1.1-1.3,2.1-2.6,3.1-4c0.8,1.3,1.7,2.4,2.8,3.5
		C102.6,105.8,101.6,106.6,100.7,107.4z M124.3,109.1c-1.6,0.7-3.3,1.1-5.1,1.2c-0.9,0.1-1.8,0.1-2.6,0c-0.9-0.1-1.7-0.2-2.6-0.5
		c-1.7-0.4-3.3-1.2-4.8-2.1c-1.5-0.9-2.9-2-4.1-3.2c-2.5-2.4-4.3-5.4-5.7-8.7c-0.7-1.6-1.3-3.3-1.7-5c-0.5-1.6-0.8-3.3-1.1-5
		c0.3,0,0.6,0,0.9,0c0.4,0.1,0.8,0.1,1.2,0.2c0.8,0.2,1.5,0.6,1.8,1l0.2,0.3c-0.4,3.5,0.4,7,2,10.2c1.7,3.3,4.3,6.1,7.3,8.2
		c3,2.1,6.7,3.4,10.4,3.5c1.5,0,2.9-0.1,4.4-0.4C124.6,109,124.5,109.1,124.3,109.1z"/>
	<path class="st0" d="M100.6,73.9c0.7,0,1.3-0.6,1.3-1.3c0-0.7-0.6-1.3-1.3-1.3s-1.3,0.6-1.3,1.3C99.3,73.3,99.9,73.9,100.6,73.9z"
		/>
	<path class="st0" d="M92.3,63.9L92.3,63.9c-0.7,0-1.5-0.2-2.2-0.4c-0.4-0.1-0.7-0.3-1-0.4c-0.2-0.1-0.7-0.4-1-0.6
		c-0.1-0.1-1.4-1-2-1.4c-0.7-0.4-1.5-0.7-2.3-0.8c0.8,0.3,1.5,0.7,2.1,1.1c0.5,0.4,0.9,0.8,1.4,1.2c0,0-0.1,0.1-0.1,0.1l0,0
		c-0.2,0.4-0.2,0.7-0.3,1.1c-0.1,0.4-0.1,0.7-0.1,1.1c0,0.7,0.1,1.4,0.2,2.1c0.2,0.7,0.4,1.3,0.7,1.9c0.1,0.3,0.3,0.6,0.5,0.9
		c0.2,0.3,0.4,0.5,0.6,0.8c-0.1-0.3-0.3-0.6-0.4-0.9c-0.1-0.3-0.2-0.6-0.3-0.9c-0.2-0.6-0.3-1.3-0.3-1.9c0-0.6,0-1.2,0.2-1.8
		c0.1-0.3,0.2-0.6,0.3-0.8c0.1-0.2,0.2-0.4,0.2-0.5c0.1,0.1,0.1,0.1,0.2,0.2c0.4,0.3,0.7,0.5,1.1,0.7c0.8,0.4,1.6,0.7,2.5,0.9
		c0,0,0.1,0,0.1,0c0.4,0,0.8-0.3,0.8-0.7C93.1,64.3,92.8,63.9,92.3,63.9z"/>
</g>
</svg>
