<?xml version="1.0" encoding="utf-8"?>
<!-- Generator: Adobe Illustrator 24.1.2, SVG Export Plug-In . SVG Version: 6.00 Build 0)  -->
<svg version="1.1" id="Layer_1" xmlns="http://www.w3.org/2000/svg" xmlns:xlink="http://www.w3.org/1999/xlink" x="0px" y="0px"
	 viewBox="0 0 128 128" style="enable-background:new 0 0 128 128;" xml:space="preserve">
<style type="text/css">
	.st0{fill:#2D2D2D;}
</style>
<g>
	<path class="st0" d="M105.19,100.55c-0.44-0.52-0.73-1.14-0.87-1.86c-0.13-0.73-0.15-1.41,0.15-2.12c0.29-0.71,0.9-1.34,1.26-2.14
		c0.2-0.39,0.33-0.84,0.36-1.3c0.05-0.46,0.02-0.9-0.03-1.33c-0.07-0.43-0.18-0.85-0.35-1.24c-0.15-0.4-0.32-0.78-0.52-1.15
		c-0.4-0.74-0.85-1.45-1.44-2.06c-0.02-0.02-0.04-0.02-0.06-0.02c-0.04,0.01-0.06,0.04-0.05,0.08c0.37,1.65,0.92,3.17,1.41,4.66
		c0.25,0.73,0.59,1.47,0.3,2.22c-0.25,0.75-0.91,1.24-1.47,1.93c-0.27,0.35-0.53,0.77-0.64,1.24c-0.12,0.46-0.14,0.94-0.1,1.39
		c0.06,0.91,0.38,1.9,1.04,2.6c0.64,0.71,1.47,1.16,2.3,1.4c0.84,0.25,1.69,0.32,2.52,0.23c0.02,0,0.04-0.02,0.05-0.04
		c0.01-0.03,0-0.07-0.03-0.09C107.51,102.31,106.04,101.65,105.19,100.55z"/>
	<path class="st0" d="M115.83,100.13c-0.95-0.25-1.83-0.5-2.74-0.65c-0.45-0.07-0.91-0.1-1.37-0.14c-0.45-0.06-0.92-0.08-1.39-0.1
		c-0.48-0.03-0.94-0.11-1.25-0.44c-0.32-0.32-0.4-0.81-0.5-1.21c-0.1-0.41-0.26-0.81-0.4-1.24l-0.22-0.65l-0.11-0.33
		c-0.04-0.1-0.06-0.25-0.11-0.3c0.03-0.01,0.05-0.05,0.04-0.08s-0.05-0.05-0.08-0.04c-0.14,0.07-0.15,0.13-0.19,0.19
		c-0.04,0.06-0.07,0.13-0.09,0.19c-0.05,0.13-0.09,0.26-0.12,0.39c-0.06,0.26-0.08,0.52-0.08,0.79c0.02,0.52,0.11,1.06,0.41,1.53
		c0.3,0.46,0.77,0.79,1.18,1.08c0.42,0.31,0.88,0.52,1.3,0.79c0.43,0.27,0.89,0.48,1.36,0.61c0.47,0.14,0.95,0.27,1.44,0.31
		c0.49,0.04,0.98,0.02,1.48-0.06c0.49-0.09,1-0.2,1.45-0.51c0.01-0.01,0.02-0.02,0.03-0.04
		C115.89,100.17,115.87,100.14,115.83,100.13L115.83,100.13z"/>
	<path class="st0" d="M127.69,92.9c-0.19-0.24-0.46-0.41-0.76-0.47c-0.15-0.04-0.31-0.03-0.37-0.02l-0.27,0.01
		c-0.53,0.02-1.08,0.03-1.63,0.09l0.24-0.39c0.44-0.74,1.47-2.36,1.51-2.58s-0.08-0.36-0.22-0.54c-0.12-0.19-0.32-0.3-0.49-0.36
		c-0.25-0.08-0.46-0.08-0.65-0.06c-3.17-2.52-6.66-4.57-10.17-6.55c-1.86-1.02-3.74-2-5.66-2.93c-0.97-0.46-1.88-0.92-2.97-1.33
		l-2.96-1.09c-1.98-0.74-3.99-1.4-6.01-2.05c-2.02-0.62-4.06-1.22-6.11-1.76c-1-0.27-2-0.52-3.01-0.75
		c-0.36-1.53-0.92-3.63-1.21-4.86c-0.34-1.47-0.71-2.93-1.09-4.4l-0.26-1.02l-0.76,0.78l-1.47,1.51c-1.03-1.61-2.06-3.23-3.11-4.82
		l-1.09-1.65l-0.39,1.99c-0.04,0.19-0.12,0.46-0.2,0.69c-0.09,0.23-0.19,0.46-0.31,0.67c-0.1,0.18-0.22,0.35-0.34,0.5
		c-0.32-0.37-0.64-0.75-0.97-1.11c-0.53-0.58-1.04-1.18-1.58-1.76L72.9,56l1.2,3.37c0.12,0.34,0.23,0.76,0.29,1.14
		c0.06,0.39,0.09,0.78,0.06,1.15c-0.03,0.36-0.12,0.7-0.29,0.95c-0.14,0.21-0.35,0.36-0.6,0.47c-0.33-0.14-0.67-0.32-1.01-0.49
		l-1.23-0.66c-0.82-0.44-1.63-0.92-2.43-1.4l-1.08-0.64l0.62,1.09c0.33,0.58,0.6,1.28,0.63,1.92c0.01,0.32-0.06,0.62-0.23,0.83
		c-0.16,0.19-0.42,0.3-0.71,0.36c-1.33-0.53-2.62-1.23-3.84-1.99l-0.48-0.3l-0.04,0.58c-0.04,0.65-0.1,1.31-0.17,1.96l-0.11,0.97
		l-0.07,0.47l-0.01,0.03l-0.43-0.15c-0.3-0.11-0.6-0.23-0.9-0.34c-0.58-0.24-1.22-0.5-1.72-0.76l-0.84-0.44l-0.06,1.01
		c-0.05,0.89-0.35,1.93-0.78,2.58c-0.03,0.05-0.06,0.08-0.09,0.11c-0.01,0-0.02,0-0.02-0.01c-0.06-0.02-0.13-0.06-0.2-0.11
		c-0.16-0.1-0.31-0.24-0.53-0.42c-0.06-0.05-0.12-0.1-0.21-0.16c-0.06-0.04-0.08-0.06-0.19-0.11c-0.06-0.02-0.06-0.03-0.17-0.06
		c-0.05-0.01-0.09-0.02-0.14-0.03l-0.07-0.01l-0.02,0l-0.07,0c-0.05,0-0.1,0.01-0.14,0.03c-0.1,0.03-0.19,0.07-0.27,0.12
		c-0.06,0.05-0.08,0.07-0.12,0.11c-0.07,0.06-0.14,0.19-0.15,0.21c-0.04,0.08-0.07,0.17-0.08,0.2c-0.03,0.1-0.03,0.14-0.04,0.2
		l-0.03,0.24c-0.05,0.54-0.11,0.98-0.24,1.3c-0.06,0.16-0.14,0.26-0.2,0.3c-0.07,0.05-0.08,0.06-0.25,0.08
		c-0.85,0.11-1.84-0.02-2.65-0.27l-1.22-0.38l0.03,1.34c0,0.15-0.02,0.42-0.07,0.6c-0.05,0.2-0.12,0.38-0.21,0.51
		c-0.17,0.25-0.36,0.35-0.74,0.39l-0.44,0.04l-0.24,0.34c-0.29,0.42-0.38,0.57-0.52,0.68c-0.13,0.1-0.29,0.18-0.53,0.24
		c-0.42,0.11-1.25,0.12-1.93,0.2c-1.4,0.13-2.79,0.28-4.19,0.46l-0.51,0.07l-0.24,0.45c-0.12,0.23-0.35,0.56-0.58,0.8
		c-0.23,0.26-0.49,0.49-0.76,0.7c-0.27,0.21-0.56,0.38-0.87,0.5c-0.31,0.14-0.63,0.2-0.97,0.26l-2.42,0.43l2.06,1.14
		c0.28,0.15,0.47,0.38,0.45,0.38c0,0,0.01-0.02-0.01,0.04c-0.02,0.06-0.09,0.17-0.18,0.28c-0.19,0.22-0.48,0.46-0.79,0.69L37.41,80
		l-0.27,0.21c-0.1,0.08-0.2,0.15-0.37,0.36c-0.04,0.12-0.32,0.29-0.65,0.43c-0.32,0.14-0.69,0.26-1.05,0.37
		c-0.74,0.21-1.52,0.39-2.28,0.51l-1.07,0.18l0.66,0.81l1.14,1.41l-1.73,0.62l-0.12,0.04l-0.06,0.07c-0.31,0.37-0.61,0.75-0.92,1.13
		l-0.41,0.51l0.6,0.07c1.19,0.13,2.38,0.27,3.57,0.38c-0.06,0.03-0.12,0.06-0.18,0.09c-0.47,0.23-0.94,0.44-1.43,0.62
		c-0.45,0.17-0.91,0.33-1.38,0.39c-2.33-0.32-4.42-1.49-6.54-2.54c-1.07-0.53-2.13-1.08-3.23-1.59c-1.09-0.5-2.24-0.98-3.35-1.39
		c-2.23-0.83-4.45-1.71-6.75-2.4c-1.15-0.35-2.3-0.68-3.48-0.96c-1.19-0.27-2.34-0.56-3.66-0.58l-0.71-0.01l0.36,0.62
		c0.26,0.45,0.45,1.03,0.63,1.58c0.18,0.56,0.35,1.13,0.52,1.7c0.32,1.15,0.66,2.3,1.03,3.44c0.38,1.14,0.8,2.27,1.36,3.36
		c0.48,0.89,1.05,1.79,1.9,2.45c-0.91,0.79-1.52,1.79-2.11,2.76c-0.67,1.15-1.24,2.33-1.78,3.51c-0.54,1.18-1.06,2.35-1.64,3.46
		c-0.29,0.55-0.59,1.09-0.92,1.58c-0.32,0.49-0.7,0.91-1.05,1.16L0,105.81l2.48,0.34c1.26,0.17,2.45,0.08,3.61-0.06
		c1.16-0.14,2.3-0.35,3.41-0.62c2.24-0.51,4.41-1.18,6.56-1.87c2.16-0.7,4.26-1.4,6.45-1.91c2.08-0.48,4.18-0.99,6.3-1.15
		c0.51,0.09,1.01,0.31,1.51,0.5c0.51,0.21,1,0.43,1.5,0.66c1,0.46,1.99,0.92,2.97,1.39c0.89,0.43,1.77,0.86,2.65,1.3
		c-0.35-0.09-0.7-0.2-1.04-0.31c-0.69-0.22-1.34-0.47-2.04-0.72l-2.07-0.76l1.64,1.56c0.56,0.53,1.09,1.09,1.65,1.64
		c0.28,0.27,0.56,0.54,0.88,0.81c-0.22,0.1-0.44,0.23-0.67,0.43c-0.09,0.08-0.18,0.19-0.25,0.36c-0.02,0.04-0.03,0.09-0.04,0.13
		c-0.06,0.09-0.1,0.21-0.07,0.39c0.13,0.24,0.12,0.15,0.14,0.19c0.02,0.01,0.04,0.03,0.06,0.04c0.13,0.06,0.09,0.03,0.11,0.04
		l0.04,0.01l0.04,0c-0.01,0.01,0,0.01,0.03,0l0.12,0.01l0.24,0.03l0.96,0.1c1.28,0.11,2.54,0.29,3.8,0.52
		c1.49,0.27,2.97,0.63,4.45,0.96c-0.02,0.01-0.04,0.01-0.06,0.02c-0.18,0.07-0.36,0.15-0.55,0.27c-0.09,0.06-0.18,0.12-0.28,0.19
		c-0.05,0.04-0.1,0.08-0.15,0.13c-0.06,0.06-0.09,0.08-0.19,0.23l-0.52,0.79l0.94,0.22c0.98,0.23,1.93,0.35,2.9,0.44
		c0.97,0.09,1.94,0.12,2.91,0.1c0.97-0.01,1.94-0.09,2.9-0.22c0.85-0.11,1.69-0.3,2.52-0.52c0.2,0.05,0.39,0.1,0.59,0.15
		c0.56,0.1,1.12,0.2,1.7,0.25c0.57,0.05,1.16,0.09,1.7,0.1c2.2,0.09,4.4,0.16,6.6,0.16c3.19-0.05,6.37-0.16,9.56-0.44
		c-0.28,0.09-0.55,0.19-0.83,0.29c-0.75,0.3-1.47,0.61-2.18,1.24c-0.65,0.66-1,1.47-1.2,2.28c-0.38,1.59-0.3,3.36,0.63,4.75
		c0.12,0.81,0.7,1.37,1.16,1.87c0.23,0.25,0.5,0.54,0.5,0.76l-0.02,0.27c0.01,0.1,0.01,0.21,0.03,0.3c0.03,0.2,0.09,0.38,0.14,0.56
		c0.22,0.72,0.54,1.39,0.91,2.04c0.38,0.65,0.81,1.27,1.41,1.8l0.09,0.08l0.17,0.02c0.38,0.04,0.77,0.05,1.16,0.05
		c0.19,0,0.39-0.01,0.59-0.03c0.21-0.02,0.38-0.04,0.63-0.09l0.15-0.04l0.13-0.15c1.12-1.35,2.17-2.72,3.18-4.15
		c1-1.43,1.94-2.92,2.68-4.58c0.18-0.42,0.34-0.85,0.46-1.32c0.07-0.24,0.11-0.44,0.15-0.64c0.04-0.2,0.1-0.41,0.15-0.61
		c0.21-0.82,0.49-1.63,0.76-2.45c0.27-0.83,0.55-1.66,0.76-2.52c0.05-0.25,0.1-0.5,0.14-0.76c1.48,0.29,2.94,0.34,4.4,0.32
		c1.46-0.03,2.92-0.12,4.35-0.49c1.43-0.36,2.84-0.82,4.29-0.97c1.44-0.21,2.92-0.22,4.4-0.34c1.47-0.15,2.95-0.43,4.42-0.97
		c1.41-0.51,2.76-1.18,4.04-1.98c1.28-0.8,2.48-1.73,3.56-2.8c0.93-0.92,1.78-1.97,2.38-3.15c0.03,0,0.06,0,0.09,0
		c0.22-0.01,0.47-0.06,0.68-0.12c0.85-0.27,1.46-0.76,2.07-1.21c0.6-0.45,1.14-0.95,1.7-1.4c0.61-0.43,1.22-0.94,1.8-1.41
		c0.58-0.48,1.25-0.9,1.76-1.57c0.03-0.05,0.06-0.07,0.09-0.14c0.04-0.07,0.08-0.13,0.1-0.21c0.06-0.14,0.08-0.31,0.09-0.47
		C128,93.44,127.88,93.13,127.69,92.9z M125.2,89.52c-0.52,0.6-0.97,1.22-1.41,1.86c-0.5,0.74-0.94,1.51-1.33,2.35
		c-0.09,0.22-0.18,0.41-0.27,0.72l-0.03,0.11c0,0,0,0,0,0.01c-0.04,0.06-0.09,0.13-0.15,0.2c-0.25,0.29-0.58,0.57-0.9,0.86
		l-0.99,0.85l-0.5,0.43l-0.25,0.21l-0.06,0.06c0.02-0.07,0.05-0.13,0.06-0.2c0.04-0.15,0.08-0.3,0.1-0.45
		c0.05-0.31,0.06-0.63,0.01-0.96c-0.05-0.33-0.17-0.68-0.39-0.99c-0.13-0.18-0.31-0.33-0.51-0.44c0-0.11-0.01-0.21-0.03-0.3
		c-0.01-0.04-0.01-0.06-0.02-0.09c0.04-0.03,0.1-0.09,0.19-0.14c0.11-0.08,0.25-0.15,0.39-0.23c0.58-0.32,1.16-0.74,1.68-1.18
		c0.53-0.44,1.04-0.89,1.55-1.34c0.48-0.41,0.94-0.85,1.37-1.33c0.41-0.03,0.82-0.07,1.17-0.05
		C125.01,89.47,125.12,89.49,125.2,89.52z M31.63,86.2c0.17-0.16,0.34-0.31,0.51-0.47l2.39-0.71l0.67-0.2l-0.42-0.61L33.95,83
		c0.49-0.06,0.97-0.13,1.46-0.23c0.42-0.09,0.83-0.2,1.26-0.35c0.22-0.08,0.43-0.17,0.66-0.3c0.11-0.06,0.23-0.14,0.36-0.24
		c0.06-0.04,0.13-0.11,0.19-0.17c0.03-0.03,0.06-0.07,0.09-0.11c0.02-0.03,0.08-0.11,0.06-0.07l0.8-0.56
		c0.35-0.25,0.71-0.52,1.06-0.9c0.17-0.19,0.35-0.42,0.49-0.74c0.14-0.31,0.2-0.76,0.08-1.16c-0.01-0.03-0.02-0.06-0.03-0.09
		c0.44-0.15,0.86-0.35,1.25-0.6c0.41-0.26,0.78-0.58,1.11-0.92c0.22-0.23,0.41-0.46,0.6-0.72l3.71-0.38l1.03-0.09
		c0.3-0.02,0.78-0.06,1.21-0.17c0.44-0.11,0.92-0.33,1.33-0.7c0.25-0.22,0.44-0.49,0.58-0.71c0.24-0.06,0.48-0.15,0.71-0.29
		c0.39-0.23,0.73-0.57,0.94-0.94c0.22-0.36,0.34-0.73,0.42-1.09c0.2,0.03,0.4,0.06,0.61,0.08c0.57,0.04,1.15,0.03,1.74-0.06
		c0.34-0.04,0.83-0.22,1.14-0.52c0.33-0.3,0.52-0.67,0.64-0.99c0.11-0.3,0.16-0.59,0.2-0.87c0.13,0.07,0.27,0.13,0.43,0.18
		c0.09,0.03,0.19,0.05,0.29,0.07l0.16,0.02c0.07,0,0.18,0.01,0.27-0.01c0.36-0.06,0.58-0.24,0.73-0.38c0.15-0.15,0.26-0.3,0.35-0.44
		c0.35-0.57,0.52-1.12,0.64-1.68c0.06-0.28,0.1-0.55,0.13-0.83c0.35,0.12,0.7,0.23,1.05,0.35l0.95,0.28l0.49,0.13l0.27,0.06
		c0.05,0.01,0.1,0.02,0.17,0.02c0.06,0,0.05,0.01,0.2-0.01c0.03-0.01,0.04-0.01,0.09-0.03c0.05-0.02,0.1-0.05,0.15-0.09
		c0.11-0.1,0.09-0.11,0.12-0.15c0.11-0.23,0.09-0.28,0.12-0.39l0.04-0.27l0.04-0.51l0.05-1l0.03-1.43c0.49,0.27,0.99,0.53,1.49,0.77
		c0.67,0.33,1.36,0.65,2.06,0.91l0.07,0.03l0.07-0.01c0.39-0.07,0.81-0.22,1.12-0.57c0.31-0.35,0.4-0.82,0.39-1.22
		c-0.01-0.41-0.1-0.8-0.21-1.17c0-0.01-0.01-0.03-0.02-0.04l1.48,0.98l1.19,0.77c0.41,0.25,0.8,0.5,1.26,0.74l0.14,0.07l0.2-0.04
		c0.51-0.11,1.06-0.4,1.41-0.86c0.37-0.46,0.53-1,0.62-1.5c0.02-0.11,0.02-0.22,0.03-0.33c0.48,0.59,0.97,1.17,1.46,1.76l0.49,0.59
		l0.61-0.42c0.61-0.42,1.08-0.99,1.4-1.59c0.04-0.08,0.07-0.15,0.11-0.23c0.94,1.36,1.88,2.71,2.83,4.06l0.53,0.75l0.57-0.67
		l1.29-1.51c0.37,1.08,0.75,2.17,1.14,3.25c0.42,1.14,1.07,3.09,1.61,4.55c-0.95-0.21-1.9-0.4-2.86-0.57
		c-2.1-0.37-4.23-0.63-6.4-0.56c-2.17,0.09-4.25,0.49-6.33,0.92c-2.07,0.44-4.12,0.94-6.17,1.45c-2.04,0.53-4.09,1.04-6.14,1.6
		c-2.04,0.56-4.07,1.17-6.09,1.84c-2,0.71-3.99,1.47-5.92,2.48c-1.9,1.08-3.65,2.18-5.46,3.28c-1.8,1.1-3.6,2.19-5.42,3.23
		c-0.77,0.43-1.53,0.85-2.31,1.25c-0.01-0.01-0.02-0.02-0.03-0.02C33.67,86.67,32.65,86.44,31.63,86.2z M44.86,108.89
		c-1.27-0.12-2.55-0.23-3.81-0.42c-1.26-0.18-2.52-0.43-3.76-0.75l-0.53-0.14c0.12-0.04,0.24-0.08,0.37-0.12
		c0.28-0.09,0.58-0.16,0.88-0.22l3.37-0.74l-3.45-0.36c-0.19-0.02-0.47-0.19-0.74-0.4c-0.28-0.21-0.57-0.47-0.85-0.73
		c-0.13-0.12-0.27-0.24-0.41-0.36c0.12,0.02,0.23,0.05,0.35,0.06c0.64,0.09,1.3,0.13,1.95,0.09l0.95,0.5c0.49,0.26,1,0.49,1.51,0.73
		c2.04,0.91,4.18,1.57,6.25,2.35c0.88,0.33,1.75,0.66,2.62,1l-0.9-0.1C47.41,109.13,46.14,108.99,44.86,108.89z M53.31,111.29
		c-0.95-0.02-1.89-0.07-2.82-0.15c-0.94-0.08-1.87-0.18-2.8-0.31c-0.24-0.03-0.47-0.07-0.71-0.11c0.54-0.13,1.1-0.22,1.67-0.29
		l2.91-0.33c0.55,0.2,1.09,0.41,1.64,0.6c0.63,0.22,1.28,0.41,1.93,0.59C54.52,111.3,53.91,111.31,53.31,111.29z M116.39,102.36
		c-1.17,0.8-2.4,1.51-3.66,2.17c-1.25,0.66-2.53,1.27-3.82,1.86c-1.23,0.59-2.6,0.96-3.97,1.42c-0.45,0.15-0.91,0.3-1.37,0.45
		l-0.35-0.15c-0.53-0.23-1.07-0.45-1.54-0.72c-0.24-0.13-0.44-0.27-0.59-0.43c-0.16-0.16-0.29-0.38-0.54-0.65
		c-0.4-0.44-0.88-0.7-1.35-0.89c-0.07-0.33-0.2-0.65-0.39-0.92c-0.27-0.39-0.59-0.67-0.89-0.91c-0.3-0.24-0.61-0.43-0.89-0.64
		c-0.13-0.1-0.3-0.21-0.4-0.3c-0.11-0.08-0.19-0.17-0.25-0.26c-0.12-0.17-0.17-0.39-0.21-0.77c-0.04-0.36-0.12-0.81-0.29-1.2
		c-0.09-0.2-0.19-0.38-0.3-0.55l-0.31-0.43c-0.18-0.26-0.34-0.58-0.48-0.9c-0.57-1.3-0.96-2.72-1.15-4.16
		c-0.17-1.36-0.19-2.75-0.25-4.08c0.38-0.43,0.66-0.9,0.9-1.37c0.28-0.54,0.5-1.1,0.7-1.66c0.19-0.56,0.37-1.12,0.53-1.68
		c0.08-0.28,0.16-0.56,0.25-0.83c0.09-0.27,0.17-0.56,0.34-0.74l0.02-0.02c0.02-0.02,0.02-0.04,0.01-0.07
		c-0.01-0.03-0.05-0.04-0.08-0.03c-0.31,0.15-0.48,0.43-0.65,0.67c-0.17,0.25-0.31,0.51-0.45,0.77c-0.28,0.52-0.54,1.04-0.8,1.56
		c-0.25,0.52-0.52,1.02-0.8,1.5c-0.28,0.48-0.58,0.93-0.92,1.29l-0.18,0.2l0.02,0.23c0.12,1.51,0.58,2.91,0.92,4.34
		c0.36,1.42,0.59,2.85,0.95,4.31c0.1,0.36,0.2,0.73,0.37,1.1l0.25,0.5c0.07,0.14,0.13,0.29,0.17,0.43c0.09,0.29,0.12,0.57,0.13,0.93
		c0.02,0.34,0.04,0.87,0.32,1.32c0.13,0.22,0.29,0.41,0.46,0.56c0.17,0.16,0.3,0.26,0.44,0.38l0.83,0.67
		c0.26,0.21,0.47,0.42,0.62,0.63c0.14,0.21,0.23,0.42,0.27,0.69l0.06,0.45l0.39,0.12c0.52,0.16,0.99,0.32,1.31,0.62
		c0.17,0.14,0.37,0.41,0.67,0.63c0.29,0.22,0.6,0.37,0.9,0.48c0.4,0.14,0.79,0.24,1.18,0.32c-0.57,0.15-1.15,0.29-1.74,0.37
		c-1.43,0.26-2.91,0.17-4.37,0.13c-1.46-0.05-2.9,0.15-4.33,0.39c-1.42,0.24-2.83,0.52-4.24,0.99c0.07-0.57,0.06-1.15-0.15-1.7
		c-0.01-0.03-0.04-0.04-0.07-0.04c-0.03,0.01-0.06,0.04-0.05,0.07l0,0.01c0.13,0.84-0.13,1.67-0.44,2.46
		c-0.3,0.8-0.67,1.58-1.03,2.37c-0.37,0.79-0.71,1.6-1.01,2.45c-0.07,0.21-0.14,0.42-0.2,0.64c-0.06,0.22-0.13,0.44-0.19,0.61
		c-0.11,0.37-0.29,0.74-0.46,1.11c-0.74,1.49-1.67,2.93-2.61,4.35c-0.9,1.38-1.87,2.74-2.85,4.07c-0.09,0.02-0.2,0.04-0.29,0.05
		l-0.52,0.06c-0.31,0.03-0.62,0.04-0.94,0.04c-0.47-0.36-0.9-0.83-1.27-1.34c-0.4-0.56-0.77-1.18-1.03-1.82
		c-0.07-0.16-0.12-0.32-0.16-0.48c-0.03-0.08-0.02-0.15-0.04-0.23l0.01-0.27c-0.02-0.26-0.15-0.44-0.27-0.6
		c-0.12-0.16-0.25-0.29-0.38-0.42c-0.51-0.5-0.99-1.04-1.04-1.69l0-0.05l-0.03-0.05c-0.39-0.62-0.55-1.37-0.54-2.11
		c0.01-0.74,0.15-1.48,0.4-2.17c0.25-0.68,0.63-1.31,1.1-1.74c0.47-0.4,1.18-0.73,1.85-1.02c1.38-0.58,2.85-1.01,4.32-1.43
		c0.38-0.11,0.72-0.19,1.13-0.32c0.21-0.07,0.42-0.14,0.64-0.32c0.1-0.07,0.21-0.23,0.26-0.38c0.05-0.17,0.03-0.33-0.01-0.47
		c-0.21-0.48-0.53-0.72-0.83-0.99c-0.3-0.26-0.62-0.48-0.91-0.73c-0.02-0.02-0.06-0.02-0.08,0c-0.03,0.02-0.03,0.06-0.01,0.09
		c0.24,0.32,0.51,0.61,0.76,0.9c0.24,0.28,0.49,0.62,0.54,0.88c0,0.12-0.02,0.12-0.11,0.18c-0.09,0.06-0.25,0.11-0.42,0.13
		c-0.34,0.06-0.76,0.11-1.13,0.19c-0.35,0.06-0.71,0.13-1.06,0.21c-4.07-0.54-8.14-0.76-12.22-0.87c-2.2-0.03-4.41,0.01-6.61,0.08
		c-2.14,0.09-4.24-0.11-6.4-0.48c-2.15-0.37-4.27-1.01-6.28-1.9c-2.02-0.88-3.88-2.09-5.78-3.19c-0.48-0.27-0.95-0.55-1.42-0.82
		c-0.49-0.27-1-0.53-1.51-0.77c-1.02-0.48-2.05-0.91-3.1-1.29c-1.05-0.38-2.12-0.72-3.21-0.98c-0.54-0.14-1.1-0.25-1.65-0.34
		c-0.47-0.06-0.95-0.12-1.45-0.08c-1.11-0.13-2.23-0.07-3.34-0.01c-1.14,0.07-2.27,0.19-3.39,0.35c-1.13,0.15-2.24,0.36-3.37,0.58
		c-1.12,0.23-2.22,0.51-3.31,0.76c-2.19,0.54-4.37,1.07-6.54,1.52c-1.09,0.21-2.17,0.41-3.25,0.55c-0.39,0.05-0.77,0.08-1.16,0.11
		c0.35-0.58,0.65-1.16,0.92-1.74c0.56-1.21,1.04-2.43,1.51-3.63c0.47-1.2,0.92-2.4,1.44-3.55c0.52-1.13,1.11-2.28,1.97-3.02
		l0.55-0.47l-0.61-0.29c-0.94-0.45-1.69-1.37-2.26-2.36c-0.58-1-1.02-2.1-1.4-3.22c-0.39-1.11-0.68-2.27-0.99-3.42
		c-0.25-0.93-0.43-1.85-0.76-2.8c0.88,0.18,1.8,0.51,2.69,0.83c1.11,0.41,2.21,0.85,3.32,1.28c2.21,0.88,4.46,1.66,6.73,2.43
		c2.25,0.71,4.41,1.63,6.64,2.52c1.12,0.43,2.25,0.87,3.42,1.19c1.12,0.32,2.29,0.53,3.46,0.47c0.01,0,0.01,0.01,0.02,0.01
		c1.1,0.05,2.14-0.29,3.15-0.62c1.01-0.34,2.01-0.74,2.97-1.18c1.94-0.87,3.83-1.85,5.69-2.86l1.46-0.81
		c0.16,1.1,0.69,4.72,1.03,8.47c0.4,4.49-0.74,4.75-1.48,7.88s0.88,2.88,2.83,2.46c1.95-0.42,2.15-1.27,1.88-3.81
		c-0.27-2.54-0.4-4.41-0.2-8.73c0.2-4.32-0.67-4.92-0.61-7.46c0.01-0.31,0-0.55-0.01-0.74c0.2-0.11,0.41-0.23,0.61-0.33
		c1.7-0.84,3.5-1.6,5.3-2.35c0.2,0.67,0.39,1.53,0.57,2.5c-0.8,0.25-1.56,0.62-2.24,1.14c-0.65,0.5-1.24,1.13-1.62,1.89
		c-0.39,0.75-0.55,1.63-0.47,2.46c0.19,1.68,1.23,2.97,2.42,3.85c0.67,0.5,1.41,0.93,2.22,1.25c-0.02,0.84,0.21,1.32,0.58,2.32
		c0.59,1.59-0.59,2.95,1.13,3.35c1.72,0.4,3.59,0.85,2.81-1.13c-0.64-1.62-1.5-2.79-1.78-4.03c1.32-0.06,2.65-0.56,3.63-1.5
		c1.17-1.11,1.82-2.63,1.83-4.1c0-1.48-0.66-3-1.82-4.12c-0.58-0.55-1.28-1-2.03-1.27c-0.76-0.27-1.56-0.41-2.36-0.43
		c-0.24,0-0.47,0.03-0.71,0.05c-0.13-0.56-0.2-1.08-0.17-1.61c0.03-0.52,0.06-1.02,0.09-1.46c1.38-0.57,2.77-1.12,4.17-1.64
		c1.51-0.57,3.03-1.08,4.57-1.55c1.24,1.79,2.96,11.96,2.24,14.64c-0.81,3.01-0.47,3.35,0.34,5.27c0.81,1.92-0.81,3.56,1.55,4.04
		c2.36,0.48,4.91,1.03,3.84-1.37c-1.08-2.4-2.63-3.97-2.56-5.89c0.07-1.92,0.47-5.48-0.4-8.35c-0.88-2.88-1.82-4.52-1.68-6.3
		c0.1-1.27,0.16-2.45,0.19-3.02c2.15-0.53,4.34-0.95,6.52-1.17c-0.29,0.34-0.36,0.97,0.16,2.29c0.89,2.26,1.71,4.84,1.59,6.97
		c-0.13,2.13-0.13,5.29,0,7.36c0.13,2.07,0.83,3.87,1.97,4.13c1.14,0.26,2.86,0.71,2.73-0.71c-0.13-1.42-0.38-2.78-0.82-6.26
		c-0.44-3.49-1.52-6.45-1.52-8.26c0-1.81,0.32-4,0.32-4L78.41,72c0.04,0,0.09,0,0.13,0c2.61,0.18,5.21,0.73,7.8,1.4
		c-0.47,0.74-1.19,1.92-1.73,2.96c-0.86,1.65-0.48,2.71,0,6.68c0.48,3.97,0,5.91,0,9.68c0,3.78,0.1,5.52,1.33,6.39
		c1.24,0.87,2.09-0.1,2-1.74c-0.1-1.65-0.29-4.74-0.67-8.71c-0.38-3.97-0.57-5.23-0.76-8.52c-0.19-3.29,2.95-5.42,2.95-5.42
		s-0.12-0.24-0.36-0.56c0.53,0.15,1.06,0.3,1.59,0.45c2.01,0.59,4,1.24,5.98,1.92l5.96,2.03l3,1.02c0.89,0.32,1.9,0.75,2.85,1.15
		c1.92,0.84,3.84,1.7,5.74,2.59c1.91,0.88,3.81,1.78,5.68,2.75c1.6,0.81,3.18,1.66,4.72,2.57c-0.39,0.09-0.74,0.2-1.09,0.3
		l-0.14,0.04l-0.04,0.08c-0.32,0.56-0.76,1.07-1.25,1.5c-0.5,0.43-1.07,0.77-1.67,1.04c-0.6,0.28-1.2,0.5-1.81,0.77
		c-0.16,0.07-0.32,0.16-0.49,0.26c-0.16,0.1-0.35,0.21-0.54,0.49c-0.1,0.14-0.17,0.4-0.15,0.58c0.01,0.17,0.05,0.27,0.06,0.33
		c0.03,0.12,0.03,0.16,0.02,0.26l-0.04,0.59l0.41,0.06c0.39,0.06,0.69,0.32,0.88,0.8c0.1,0.23,0.16,0.5,0.22,0.78l0.06,0.42
		l0.02,0.22l0.01,0.11l0,0.05l0,0.03c-0.23,0.16-0.45,0.33-0.65,0.54c-0.14,0.14-0.28,0.3-0.4,0.48c-0.12,0.18-0.25,0.41-0.27,0.75
		c0,0.17,0.04,0.37,0.15,0.55c0.11,0.17,0.25,0.3,0.39,0.37c0.28,0.16,0.52,0.2,0.75,0.23c0,0,0,0,0,0
		C118.22,101.04,117.33,101.73,116.39,102.36z M126.88,93.91c0,0.02-0.03,0.07-0.05,0.1c-0.28,0.61-0.62,1.3-1.14,1.81
		c-0.52,0.52-1.14,0.88-1.86,1.1c-0.73,0.27-1.4,0.63-2.03,1.01c-0.63,0.37-1.26,0.71-1.82,0.92c-0.14,0.05-0.26,0.08-0.4,0.11
		c-0.16,0.03-0.31,0.05-0.45,0.06c-0.14,0.01-0.26,0-0.32-0.01c-0.06-0.02-0.01,0.07-0.06,0.05c-0.06-0.1,0.07-0.5,0.2-0.81
		c0.13-0.29,0.28-0.59,0.43-0.89l0.1-0.04l0.3-0.13l0.61-0.27c0.4-0.19,0.79-0.39,1.18-0.61c0.39-0.22,0.77-0.46,1.15-0.77
		c0.1-0.08,0.19-0.17,0.29-0.28c0.05-0.06,0.1-0.13,0.16-0.23c0.03-0.04,0.06-0.13,0.08-0.19c0.01-0.03,0.02-0.03,0.02-0.05
		c0.05-0.11,0.16-0.31,0.26-0.48c0.21-0.36,0.43-0.73,0.67-1.09l0.21-0.34c0.58,0.25,1.18,0.41,1.79,0.52
		c0.16,0.03,0.45,0.06,0.46,0.08c0.06,0.02,0.12,0.07,0.15,0.13c0.04,0.06,0.05,0.12,0.06,0.18c0,0.03,0,0.06,0,0.09
		C126.89,93.88,126.88,93.9,126.88,93.91z"/>
	<path class="st0" d="M109.1,89.33c0.69,0.54,1.53,0.99,2.46,1.07c0.92,0.08,1.91-0.23,2.57-0.91c0.67-0.68,1.01-1.58,1.03-2.44
		c0-0.86-0.35-1.76-1.02-2.45c-0.67-0.7-1.64-1.03-2.58-1.05c-0.95-0.01-1.91,0.3-2.68,0.9c-0.38,0.3-0.72,0.68-0.94,1.14
		c-0.22,0.45-0.3,0.98-0.25,1.46C107.8,88.05,108.41,88.8,109.1,89.33z M109.55,85.44c0.6-0.36,1.3-0.5,2.01-0.53
		c0.71-0.01,1.41,0.11,2.11,0.38c0.34,0.14,0.69,0.34,0.94,0.65c0.26,0.3,0.42,0.7,0.42,1.11c0,0.41-0.15,0.82-0.41,1.12
		c-0.25,0.31-0.6,0.51-0.94,0.66c-0.7,0.28-1.38,0.42-2.12,0.52c-0.72,0.08-1.55,0.08-2.23-0.35c-0.67-0.41-1.1-1.22-0.96-1.94
		C108.49,86.34,108.97,85.81,109.55,85.44z"/>
	<path class="st0" d="M112,88.32c0.82,0.14,1.57-0.29,1.67-0.94c0.1-0.65-0.48-1.29-1.3-1.43c-0.82-0.14-1.57,0.29-1.67,0.94
		C110.6,87.55,111.18,88.19,112,88.32z"/>
</g>
</svg>
