<?xml version="1.0" encoding="utf-8"?>
<!-- Generator: Adobe Illustrator 24.1.2, SVG Export Plug-In . SVG Version: 6.00 Build 0)  -->
<svg version="1.1" id="Layer_1" xmlns="http://www.w3.org/2000/svg" xmlns:xlink="http://www.w3.org/1999/xlink" x="0px" y="0px"
	 viewBox="0 0 128 128" style="enable-background:new 0 0 128 128;" xml:space="preserve">
<style type="text/css">
	.st0{fill:#2D2D2D;}
</style>
<g>
	<path class="st0" d="M25.84,106.25c-0.78-0.38-1.65-0.56-2.52-0.58c-1.74-0.02-3.47,0.76-4.64,2.06c-0.59,0.64-1.06,1.4-1.34,2.23
		c-0.29,0.82-0.38,1.7-0.33,2.55c0.12,1.71,0.84,3.29,1.95,4.49c0.55,0.61,1.21,1.12,1.95,1.52c0.74,0.39,1.57,0.64,2.42,0.68
		c0.85,0.04,1.71-0.12,2.5-0.48c0.78-0.35,1.47-0.91,2.01-1.57c1.07-1.35,1.51-3.03,1.52-4.64c0-1.61-0.45-3.3-1.52-4.65
		C27.31,107.19,26.63,106.61,25.84,106.25z M29.23,112.5c0,0.8-0.18,1.59-0.54,2.29c-0.35,0.7-0.86,1.29-1.43,1.76
		c-0.57,0.48-1.21,0.83-1.86,1.09c-0.66,0.26-1.35,0.42-2.07,0.46c-0.71,0.04-1.44-0.03-2.15-0.26c-0.71-0.22-1.37-0.62-1.92-1.15
		c-1.11-1.07-1.68-2.68-1.54-4.19c0.12-1.52,0.8-2.91,1.82-3.91c1.03-0.99,2.41-1.53,3.79-1.54c1.39-0.03,2.76,0.49,3.92,1.41
		c0.57,0.47,1.08,1.06,1.43,1.76C29.03,110.92,29.23,111.71,29.23,112.5z"/>
	<path class="st0" d="M99.58,107.17c-0.9-0.51-1.92-0.81-2.95-0.89c-2.07-0.15-4.18,0.65-5.65,2.11c-0.74,0.72-1.35,1.59-1.73,2.55
		c-0.4,0.96-0.56,1.99-0.55,3c0.04,2.03,0.78,3.94,2.01,5.44c1.21,1.5,2.96,2.71,4.99,2.95c1,0.11,2.04-0.01,2.99-0.38
		c0.95-0.36,1.8-0.98,2.48-1.73c1.34-1.54,1.95-3.49,2.09-5.38c0.11-1.9-0.28-3.91-1.43-5.61
		C101.25,108.41,100.48,107.67,99.58,107.17z M103.08,114.84c-0.05,0.93-0.33,1.86-0.8,2.64c-0.46,0.79-1.11,1.44-1.81,1.94
		c-1.42,1-3.03,1.48-4.69,1.51c-0.83,0-1.68-0.13-2.49-0.43c-0.81-0.3-1.57-0.81-2.18-1.47c-1.23-1.33-1.77-3.26-1.5-5.02
		c0.27-1.76,1.16-3.32,2.42-4.4c1.27-1.07,2.9-1.59,4.51-1.5c1.61,0.08,3.17,0.75,4.47,1.89c0.64,0.58,1.21,1.3,1.58,2.14
		C102.95,112.96,103.13,113.91,103.08,114.84z"/>
	<path class="st0" d="M127.99,111.88l-0.02-0.68v-0.34c0-0.07,0-0.33-0.07-0.48c-0.13-0.35-0.43-0.61-0.77-0.66
		c-0.2-0.03-0.26-0.01-0.38-0.01h-0.33l-0.66-0.02c-0.87-0.02-1.75-0.06-2.62-0.14c-1.74-0.15-3.47-0.55-5.21-0.76
		c-0.17-0.02-0.34-0.03-0.51-0.05c0.26-1.19,0.46-2.4,0.64-3.61c0.2-1.41,0.37-2.82,0.5-4.23c0.13-1.42,0.18-2.83,0.22-4.25
		c0.02-1.42,0.07-2.84,0.04-4.26l-0.02-0.69l-0.57,0.01c-1.18,0.04-2.37,0.11-3.55,0.11h-0.33v0.29c0,1.42-0.08,2.84-0.3,4.24
		c-0.21,1.41-0.51,2.81-0.62,4.23c-0.12,1.41-0.13,2.83-0.13,4.25c0.02,1.23,0.07,2.46,0.21,3.7c-0.27-0.01-0.55-0.02-0.82-0.02
		c-1.66,0-3.33,0.04-5,0.23c-0.44-1.14-1.03-2.23-1.78-3.22c-1.05-1.39-2.39-2.58-3.94-3.4c-1.54-0.83-3.27-1.3-5.01-1.44
		c-1.74-0.1-3.52,0.13-5.16,0.74c-1.64,0.62-3.16,1.57-4.44,2.77c-0.96,0.91-1.79,1.97-2.44,3.12c-2.63-0.57-5.28-0.94-7.94-1.19
		c0.25-1.16,0.44-2.34,0.62-3.5c0.19-1.41,0.37-2.82,0.49-4.23c0.14-1.41,0.19-2.83,0.22-4.24c0.03-1.42,0.08-2.84,0.04-4.26
		l-0.01-0.7l-0.57,0.02c-1.19,0.03-2.37,0.1-3.56,0.1h-0.32v0.3c0,1.42-0.08,2.83-0.3,4.24c-0.21,1.41-0.51,2.81-0.62,4.22
		c-0.12,1.42-0.13,2.83-0.13,4.25c0.02,1.16,0.06,2.34,0.18,3.5c-1.07-0.05-2.14-0.08-3.22-0.11c-0.87-0.02-1.74-0.04-2.61-0.04
		l-0.65,0.01l-0.33,0.01h-0.22c-0.1,0.01-0.21,0.03-0.3,0.07c-0.4,0.14-0.68,0.52-0.75,0.92c-0.03,0.24-0.01,0.29-0.01,0.41
		l0.01,0.34c0.02,0.45-0.01,0.88,0.06,1.4c0.08,0.49,0.26,0.97,0.53,1.38c0.03,0.04,0.06,0.08,0.09,0.12l-25.66-2.43
		c0.2-0.21,0.36-0.44,0.49-0.7c0.22-0.43,0.3-0.98,0.25-1.41l-0.03-0.35c0.8,0.1,1.61,0.2,2.41,0.27c0.89,0.07,1.77,0.13,2.66,0.19
		s1.78,0.09,2.67,0.11c0.51,0.01,1.52,0.02,2.3,0.02c0.58,0,1.04-0.48,1.03-1.08c-0.02-1.14-0.05-2.88-0.08-3.77
		c-0.03-1.39-0.13-2.78-0.23-4.17c-0.1-1.39-0.17-2.78-0.15-4.17c0-0.87,0.11-2.46,0.19-3.52c0.05-0.59-0.38-1.1-0.96-1.14
		c-0.71-0.05-1.62-0.1-2.1-0.1c-0.89,0-1.78,0.02-2.67,0.05c-0.89,0.04-1.77,0.08-2.66,0.16c-0.84,0.06-1.68,0.15-2.52,0.29
		c0-0.44-0.12-0.94-0.39-1.33c-0.31-0.46-0.8-0.82-1.36-0.95c-0.14-0.03-0.28-0.05-0.42-0.06l-0.36-0.01l-0.7-0.03l-1.4-0.03
		c-0.93-0.03-1.86-0.04-2.79-0.05c-1.87-0.03-3.73-0.01-5.59,0.09c-1.87,0.09-3.73,0.22-5.6,0.26c-1.86,0.04-3.72,0.03-5.59-0.03
		c-1.86-0.06-3.72-0.16-5.59-0.25c-1.86-0.07-3.73-0.09-5.59-0.13l-1.4-0.03L3.08,86H2.55l-0.24,0.01
		c-0.62,0.05-1.23,0.37-1.65,0.86C0.24,87.34,0,88,0,88.65v0.05c0.1,1.39,0.24,2.77,0.37,4.16c0.14,1.38,0.27,2.77,0.44,4.15
		l0.11,1.03l0.07,0.53C1,98.7,1.03,99.02,1.16,99.24c0.23,0.46,0.75,0.74,1.21,0.71l1.02-0.06c0.28-0.01,0.56-0.03,0.84-0.05
		c-0.1,1.03-0.16,2.07-0.25,3.1c-0.07,1.07-0.13,2.15-0.19,3.22l-0.05,0.81l-0.03,0.4c-0.01,0.04-0.01,0.05-0.01,0.11
		c0,0.06,0,0.13,0.01,0.2c0.02,0.13,0.06,0.27,0.11,0.39c0.12,0.24,0.31,0.44,0.55,0.57c0.12,0.06,0.25,0.1,0.39,0.12
		c0.05,0.01,0.15,0.01,0.18,0.01l0.1,0.01c0.26,0,0.52-0.02,0.78-0.03c0.83-0.07,1.64-0.17,2.47-0.39c0.34-0.09,0.87,0.02,1.17,0.23
		c0.23,0.17,0.46,0.31,0.71,0.44c-0.25,1.14-0.36,2.32-0.32,3.47c0.1,3.65,1.61,7.15,4.05,9.72c1.22,1.29,2.67,2.36,4.27,3.12
		c1.61,0.75,3.38,1.18,5.17,1.24c1.78,0.03,3.59-0.31,5.24-1.04c1.65-0.72,3.14-1.82,4.33-3.17c2.55-2.86,3.75-6.73,3.62-10.47
		l-0.01-0.01c0.44,0,36.65,4.83,36.65,4.83l0.74,0.1l0.07-0.8l0.28-3.48c0.47,0.04,0.94,0.07,1.4,0.09
		c0.87,0.03,1.74,0.06,2.61,0.06c1.68,0,3.36-0.03,5.05-0.23c-0.04,0.37-0.06,0.75-0.07,1.13c-0.05,3.5,1.19,6.91,3.37,9.52
		c1.08,1.31,2.4,2.43,3.88,3.28c1.49,0.84,3.15,1.39,4.87,1.56c1.72,0.15,3.48-0.07,5.11-0.67c1.63-0.61,3.11-1.61,4.32-2.84
		c2.41-2.51,3.7-5.88,3.91-9.25c0.02-0.38,0.04-0.29,0.03-0.67c3.44,0.75,7.15,0.69,10.62,0.99c0.87,0.05,1.75,0.11,2.62,0.13
		l1.31,0.05l0.66,0.01l0.33,0.01l0.16,0.01l0.21-0.01c1.12-0.01,2.2-0.63,2.79-1.56c0.31-0.46,0.49-1,0.55-1.53
		c0.01-0.13,0.01-0.27,0.02-0.4L127.99,111.88z M114.52,104.9c0.17-1.41,0.32-2.82,0.37-4.24c0.05-1.41-0.08-2.84-0.12-4.26
		c-0.05-1.32,0.02-2.62,0.16-3.91c0.86,0.11,1.71,0.26,2.57,0.39c-0.16,1.23-0.26,2.44-0.39,3.67c-0.13,1.41-0.24,2.82-0.27,4.24
		c-0.04,1.42-0.04,2.84-0.01,4.26c0.04,1.22,0.1,2.43,0.22,3.66c-0.58-0.06-1.16-0.1-1.74-0.12c-0.47-0.02-0.95-0.04-1.42-0.05
		C114.17,107.32,114.36,106.12,114.52,104.9z M74.06,102.39c0.17-1.41,0.32-2.82,0.37-4.24c0.05-1.42-0.08-2.84-0.13-4.27
		c-0.04-1.31,0.03-2.62,0.17-3.91c0.85,0.12,1.71,0.26,2.57,0.4c-0.16,1.22-0.27,2.44-0.39,3.66c-0.13,1.42-0.24,2.83-0.28,4.25
		c-0.04,1.42-0.03,2.84,0,4.26c0.04,1.17,0.09,2.35,0.21,3.53c-0.53-0.05-1.05-0.1-1.58-0.14c-0.51-0.04-1.02-0.06-1.53-0.09
		C73.73,104.68,73.9,103.54,74.06,102.39z M39.94,104.58l-0.1,1.19c-0.03,0.35-0.13,0.62-0.3,0.87c-0.17,0.24-0.43,0.38-0.67,0.47
		c-0.12,0.05-0.25,0.08-0.37,0.11c-0.06,0.02-0.13,0.03-0.19,0.04c-0.07,0.02-0.19,0.02-0.28,0.03c-0.74,0.09-2.28,0.32-2.32,0.22
		c-0.51-1.5-1.25-2.93-2.23-4.19c0.53,0.02,1.06,0.02,1.6,0.04c0.64,0.01,1.29,0.01,1.93-0.01c0.64-0.01,1.3,0.09,1.93-0.07
		c0.31-0.07,0.62-0.16,0.93-0.3c0.09-0.03,0.17-0.06,0.26-0.1C40.06,103.45,40,104.02,39.94,104.58z M35.21,97.01
		c0.12,1.46,0.74,2.8,1.69,3.83c0.4,0.44,0.87,0.84,1.4,1.16c-0.47,0.06-0.93,0.22-1.4,0.31c-0.63,0.12-1.26,0.26-1.89,0.4
		c-0.56,0.13-1.12,0.27-1.68,0.41c-0.13-0.18-0.27-0.34-0.42-0.49c-1.19-1.36-2.67-2.48-4.32-3.21c-1.65-0.75-3.46-1.12-5.26-1.14
		c-0.36,0-0.72,0.01-1.08,0.04c-0.68-1.89-2.24-3.48-4.14-4.27c0.88-0.04,1.76-0.09,2.64-0.13l6.35-0.36
		c2.12-0.13,4.24-0.14,6.35-0.43c1.15-0.14,2.31-0.32,3.46-0.53c-0.1,0.09-0.2,0.19-0.29,0.29c-0.51,0.56-0.91,1.22-1.15,1.94
		C35.23,95.53,35.16,96.28,35.21,97.01z M40.55,88.81v-0.07c0.84,0.12,1.69,0.22,2.53,0.29c0.89,0.07,1.77,0.12,2.66,0.15
		c0.89,0.03,1.78,0.06,2.67,0.05c0.76,0,1.52-0.04,2.27-0.1c0.1,1.23,0.2,2.46,0.21,3.69c0.01,1.39-0.05,2.78-0.16,4.17
		c-0.1,1.39-0.2,2.78-0.23,4.17c-0.03,1.15-0.07,2.31-0.08,3.47c-0.67,0-1.34,0.01-2.01,0.03c-0.89,0.02-1.78,0.06-2.67,0.11
		c-0.89,0.04-1.77,0.1-2.66,0.19c-0.81,0.07-1.62,0.16-2.42,0.27l-0.06-0.65c-0.07-0.61-0.13-1.23-0.2-1.83c0,0,0,0,0-0.01
		c0.07,0.01,0.15,0.03,0.22,0.03c0.73,0.04,1.48-0.09,2.15-0.4c0.68-0.31,1.27-0.8,1.72-1.38c0.9-1.17,1.24-2.61,1.26-3.98
		c0-1.37-0.36-2.81-1.25-4c-0.45-0.58-1.03-1.08-1.71-1.4c-0.67-0.34-1.42-0.5-2.17-0.52c-0.08,0-0.16,0.01-0.24,0.01
		C40.45,90.35,40.5,89.58,40.55,88.81z M40.62,92.49c1.15-0.01,2.3,0.39,3.28,1.14c0.49,0.38,0.93,0.87,1.24,1.45
		c0.31,0.58,0.48,1.25,0.48,1.93c0,0.67-0.16,1.35-0.47,1.93c-0.3,0.59-0.75,1.08-1.24,1.46c-0.98,0.77-2.1,1.18-3.29,1.28
		c-0.59,0.04-1.21,0-1.8-0.19c-0.6-0.18-1.16-0.5-1.63-0.95c-0.94-0.9-1.41-2.27-1.28-3.53c0.12-1.28,0.71-2.43,1.56-3.25
		C38.33,92.94,39.47,92.5,40.62,92.49z M3.39,99.19l-1.02-0.06c-0.21-0.01-0.36-0.13-0.43-0.3c-0.05-0.09-0.03-0.54-0.06-0.87
		l-0.04-1.05c-0.05-1.39-0.14-2.77-0.21-4.16c-0.09-1.38-0.16-2.75-0.27-4.13c0-0.3,0.11-0.6,0.31-0.83
		c0.2-0.23,0.48-0.38,0.78-0.42l0.12-0.01h0.16l0.35-0.01l0.7-0.01l1.4-0.02c1.86-0.04,3.73-0.06,5.59-0.14
		c1.87-0.07,3.73-0.19,5.59-0.24c1.87-0.06,3.73-0.08,5.59-0.04c1.87,0.04,3.73,0.18,5.6,0.26c1.86,0.1,3.72,0.13,5.59,0.1
		c0.93-0.01,1.86-0.02,2.79-0.05l1.4-0.04l0.7-0.02l0.35-0.02c0.09,0,0.18,0.01,0.27,0.02c0.36,0.05,0.7,0.25,0.95,0.55
		c0.12,0.14,0.22,0.32,0.29,0.5c0.06,0.2,0.09,0.36,0.1,0.62c0.05,0.77,0.1,1.53,0.17,2.31c-0.74,0.06-1.45,0.28-2.1,0.63
		c-1.58-0.05-3.15,0-4.72,0.07c-2.12,0.09-4.22,0.44-6.33,0.69l-6.31,0.75c-1.19,0.15-2.37,0.3-3.55,0.45
		c-0.07-0.01-0.13-0.03-0.2-0.05c-1.28-0.3-2.63-0.22-3.88,0.15c-1.26,0.35-2.41,1.06-3.3,2c-0.89,0.94-1.58,2-2.14,3.14
		c-0.08,0.16-0.16,0.34-0.23,0.52C6.06,99.36,4.72,99.27,3.39,99.19z M5.82,107.45c-0.26-0.02-0.52-0.03-0.78-0.03h-0.1
		c-0.03,0-0.01,0-0.01,0.01c0,0,0,0,0.01,0c0,0.01,0,0.02-0.01,0.03c-0.01,0-0.01,0-0.02,0s-0.01-0.06-0.01-0.08l-0.04-0.4
		l-0.05-0.81c-0.05-1.07-0.12-2.15-0.19-3.22c-0.08-1.04-0.15-2.07-0.25-3.11c0.99-0.06,1.98-0.12,2.97-0.21
		c-0.41,0.96-0.71,2-0.75,3.08c-0.04,1.97,0.79,3.92,2.13,5.26C7.76,107.66,6.79,107.53,5.82,107.45z M10.22,108.78
		c-0.73-0.86-1.33-1.76-1.75-2.75c-0.23-0.54-0.42-1.09-0.55-1.65c-0.12-0.57-0.21-1.14-0.27-1.72c-0.11-1.15-0.11-2.4,0.36-3.53
		c0.45-1.13,1.25-2.1,2.21-2.77c0.24-0.16,0.49-0.32,0.74-0.46l0.39-0.19c0.13-0.07,0.26-0.13,0.39-0.19c0.27-0.1,0.52-0.23,0.8-0.3
		l0.4-0.12l0.41-0.09c1.1-0.23,2.23-0.2,3.32,0.02c2.01,0.38,3.85,1.56,5.25,3.32c-1.33,0.14-2.65,0.47-3.87,1.02
		c-0.09,0.04-0.18,0.09-0.27,0.13v-0.01c-0.53-0.82-1.48-1.41-2.5-1.5c-1.2-0.09-2.45,0.45-3.13,1.41
		c-0.35,0.47-0.61,0.97-0.86,1.47c-0.24,0.5-0.51,1.05-0.57,1.67c-0.07,0.94,0.34,1.9,1,2.49l0.01,0.01
		c-0.38,0.66-0.7,1.34-0.98,2.05c-0.09,0.24-0.17,0.47-0.25,0.72C10.39,108.14,10.3,108.45,10.22,108.78z M17.39,99.7
		c-0.7,0.35-1.37,0.77-2.01,1.24c-0.16,0.11-0.31,0.23-0.46,0.36c-0.46,0.37-0.9,0.77-1.31,1.21c-0.16,0.18-0.32,0.35-0.47,0.53
		c-0.13,0.14-0.25,0.3-0.36,0.45c-0.26,0.35-0.5,0.71-0.73,1.07c0-0.01-0.01-0.02-0.01-0.03c-0.27-0.67-0.42-1.31-0.49-1.99
		c-0.06-0.48-0.13-1.03,0.04-1.52c0.16-0.5,0.52-0.92,0.94-1.19c0.85-0.55,1.76-0.79,2.68-0.73c0.72,0.02,1.44,0.23,2.16,0.61
		C17.38,99.69,17.38,99.7,17.39,99.7z M35.32,117.62c-0.71,1.59-1.75,3-2.98,4.16c-2.49,2.31-5.7,3.64-9.01,3.71
		c-3.3,0.11-6.71-1.11-9.15-3.56c-1.21-1.23-2.17-2.71-2.79-4.33c-0.64-1.62-0.9-3.37-0.85-5.1c0.05-1.73,0.46-3.42,1.11-4.98
		c0.67-1.57,1.64-2.98,2.81-4.16c2.35-2.37,5.6-3.69,8.87-3.7c3.27-0.03,6.51,1.28,8.99,3.57c1.24,1.15,2.28,2.56,2.99,4.15
		s1.08,3.35,1.09,5.11C36.39,114.26,36.03,116.04,35.32,117.62z M72.54,115.16c0,0-36.04-3.47-36.04-3.48
		c-0.06-1.23-0.27-2.45-0.62-3.63c0.72,0.27,35.55,4.14,36.76,4.32L72.54,115.16z M67.54,110.51l-1.16-0.11
		c-0.15-0.15-0.28-0.33-0.38-0.52c-0.2-0.35-0.3-0.75-0.3-1.14c-0.01-0.36,0.09-0.83,0.14-1.28l0.05-0.33
		c0.01-0.09,0.03-0.25,0.04-0.25c0.03-0.04,0.07-0.05,0.1-0.03c0,0,0.01,0,0.01,0.01c0,0,0.01,0,0.02,0l0.08,0.02l0.33,0.04
		l0.64,0.09c0.87,0.11,1.73,0.2,2.59,0.28c1.73,0.18,3.46,0.33,5.2,0.43c3.27,0.12,6.56,0.14,9.86-0.13
		c-0.15,0.29-0.3,0.59-0.43,0.89c-0.52,1.19-0.85,2.47-1,3.76C81.68,111.83,67.88,110.55,67.54,110.51z M107.19,119.94
		c-0.77,1.46-1.86,2.7-3.1,3.69c-1.24,1-2.64,1.73-4.1,2.22s-3,0.73-4.54,0.69c-1.55-0.04-3.1-0.36-4.56-0.99
		c-1.45-0.63-2.79-1.59-3.88-2.79c-1.08-1.23-1.9-2.68-2.39-4.25c-0.5-1.57-0.64-3.23-0.48-4.84c0.35-3.24,1.92-6.23,4.25-8.28
		c2.35-2.05,5.43-3.09,8.47-2.9c3.04,0.15,5.98,1.53,8.23,3.77c1.12,1.13,2.05,2.5,2.66,4.04c0.6,1.53,0.88,3.22,0.79,4.89
		C108.44,116.85,107.97,118.5,107.19,119.94z M127.07,111.15l-0.1,0.67l-0.04,0.33c-0.02,0.09-0.04,0.19-0.06,0.27
		c-0.11,0.35-0.28,0.66-0.5,0.93c-0.45,0.52-1.09,0.8-1.73,0.76l-2.57-0.24c-0.87-0.08-1.74-0.12-2.61-0.19
		c-3.49-0.13-7.23-0.15-10.74,0.16c-0.04-1.64-0.34-3.28-0.91-4.83c1.59,0.37,3.2,0.61,4.8,0.8c0.87,0.11,1.74,0.19,2.61,0.26
		c0.88,0.08,1.75,0.11,2.63,0.12c1.75,0,3.51-0.16,5.26-0.11c0.88,0.03,1.75,0.09,2.62,0.18l0.65,0.07l0.33,0.04
		c0.09,0.02,0.25,0.03,0.27,0.04c0.09,0.03,0.15,0.12,0.16,0.21C127.15,110.65,127.1,110.94,127.07,111.15z"/>
	<path class="st0" d="M39.15,98.6c0.36,0.42,0.87,0.83,1.51,0.91c0.62,0.07,1.29-0.26,1.61-0.79c0.33-0.55,0.39-1.13,0.4-1.67
		c0-0.53-0.06-1.12-0.39-1.67c-0.32-0.56-0.97-0.89-1.62-0.91c-1.35-0.05-2.51,1.33-2.25,2.58C38.5,97.65,38.79,98.16,39.15,98.6z
		 M38.96,97.04c0.21-0.92,0.94-1.48,1.7-1.47c0.38-0.02,0.75,0.08,1.15,0.28c0.4,0.21,0.77,0.67,0.76,1.19
		c0.02,0.54-0.35,1-0.75,1.21c-0.4,0.22-0.76,0.32-1.16,0.39s-0.91,0.05-1.28-0.28C39.01,98.04,38.87,97.5,38.96,97.04z"/>
	<rect x="5.74" y="89.25" class="st0" width="11.98" height="1.03"/>
</g>
</svg>
