<?xml version="1.0" encoding="utf-8"?>
<!-- Generator: Adobe Illustrator 18.1.0, SVG Export Plug-In . SVG Version: 6.00 Build 0)  -->
<svg version="1.1" id="Layer_1" xmlns="http://www.w3.org/2000/svg" xmlns:xlink="http://www.w3.org/1999/xlink" x="0px" y="0px"
	 viewBox="0 0 128 128" 
width="128" height="128"
enable-background="new 0 0 128 128" xml:space="preserve">
<g>
	<path fill="#2D2D2D" d="M79.8,27H47.9c-6.1,0-11.1,5-11.1,11.1v31.1c0,2.7,2.2,4.9,4.9,4.9c2.7,0,4.9-2.2,4.9-4.9V45.3h2.6v76.2
		c0,3.6,2.9,6.5,6.5,6.5c3.6,0,6.5-2.9,6.5-6.5l1.3-42.9h1.3l1.2,43.1c0,3.4,2.8,6.2,6.2,6.2c3.4,0,6.2-2.8,6.2-6.2V45.3H81v23.8
		c0,2.7,2.2,4.9,4.9,4.9c2.7,0,4.9-2.2,4.9-4.9V38.1C90.9,32,85.9,27,79.8,27z M88.9,69.1c0,1.6-1.3,3-2.9,3c-1.6,0-2.9-1.3-2.9-3
		V45c0-0.9-0.7-1.6-1.6-1.6h-3.2c-0.9,0-1.6,0.7-1.6,1.6v76.8c0,2.3-1.9,4.2-4.2,4.2c-2.3,0-4.2-1.9-4.2-4.3l-1.2-43.5
		c0-0.9-0.7-1.6-1.6-1.6h-2c-0.9,0-1.6,0.7-1.6,1.6l-1.3,43.2c0,2.5-2,4.6-4.5,4.6s-4.5-2.1-4.5-4.6V45c0-0.9-0.7-1.6-1.6-1.6h-3.3
		c-0.9,0-1.6,0.7-1.6,1.6v24.2c0,1.6-1.3,2.9-2.9,2.9s-2.9-1.3-2.9-2.9V38.1c0-5,4.1-9.1,9.1-9.1h31.9c5,0,9.1,4.1,9.1,9.1V69.1z"/>
	<path fill="#2D2D2D" d="M63.9,23.8c6.6,0,12-5.3,12-11.9c0-6.6-5.4-11.9-12-11.9c-6.6,0-12,5.3-12,11.9
		C51.9,18.5,57.2,23.8,63.9,23.8z M63.9,2c5.5,0,10,4.5,10,9.9c0,5.5-4.5,9.9-10,9.9c-5.5,0-10-4.5-10-9.9C53.8,6.4,58.3,2,63.9,2z"
		/>
</g>
</svg>
