<?xml version="1.0" encoding="utf-8"?>
<!-- Generator: Adobe Illustrator 24.1.2, SVG Export Plug-In . SVG Version: 6.00 Build 0)  -->
<svg version="1.1" id="Layer_1" xmlns="http://www.w3.org/2000/svg" xmlns:xlink="http://www.w3.org/1999/xlink" x="0px" y="0px"
	 viewBox="0 0 128 128" style="enable-background:new 0 0 128 128;" xml:space="preserve">
<style type="text/css">
	.st0{fill:#2D2D2D;}
</style>
<g>
	<path class="st0" d="M90.4,40.7c1.2,0,2.6-0.7,3.7-1.7c1.8-1.9,2.3-4.3,1-5.6c-0.5-0.5-1.1-0.7-1.9-0.7c-1.2,0-2.6,0.7-3.7,1.7
		c-1.4,1.4-2,3.2-1.6,4.5c-1.3,0.8-4.7,2.7-9.9,4.4c-0.6-1-1.7-1.6-3-1.6c-0.3,0-0.6,0-0.9,0.1l-6.9,1.7c-1.6,0.4-2.7,1.9-2.7,3.5
		c-2.6,0.3-6,0.6-9.8,0.7c-0.3-1.6-1.8-2.9-3.5-2.9h-7.1c-1.7,0-3.2,1.2-3.5,2.9c-1.4-0.1-2.5-0.1-3.5-0.1c-2.3-0.1-3.9-0.1-6.3-0.5
		c0-1.6-1.1-3.2-2.7-3.6l-6.9-1.7c-0.3-0.1-0.6-0.1-0.9-0.1c-1.2,0-2.4,0.6-3,1.7c-3.5-1.1-7.1-2.7-9.7-4.3c0.5-1.3-0.1-3.2-1.6-4.6
		c-1.1-1.1-2.5-1.7-3.7-1.7c-0.8,0-1.4,0.3-1.9,0.7c-1.3,1.3-0.8,3.7,1,5.6c1.1,1.1,2.5,1.7,3.7,1.7c0.1,0,0.2,0,0.3,0
		c0,0.1,0,0.1,0,0.2c4.1,9,6.1,22.2,6.1,39.3c0,22.9-3.1,34.3-5.8,39.9c-0.2-0.1-0.4-0.1-0.7-0.1c-1.2,0-2.6,0.7-3.7,1.7
		c-1.8,1.8-2.3,4.3-1,5.6c0.5,0.5,1.1,0.7,1.9,0.7h0c1.2,0,2.6-0.7,3.7-1.7c1.7-1.7,2.2-4,1.2-5.3c5.1-3.5,16.8-9,40.3-9
		c23.7,0,35.4,5.6,40.5,9.1c-0.9,1.3-0.4,3.5,1.2,5.3c1.1,1.1,2.5,1.7,3.7,1.7c0,0,0,0,0,0c0.8,0,1.4-0.3,1.9-0.7
		c1.3-1.3,0.8-3.7-1-5.6c-1.1-1.1-2.5-1.7-3.7-1.7c-0.1,0-0.2,0-0.2,0c-2.1-2.4-6-7.9-6-39.8c0-0.3-0.4-28.6,5.5-39.5
		C89.9,40.7,90.1,40.7,90.4,40.7z M67.7,44.9l6.9-1.7c0.2,0,0.3-0.1,0.5-0.1c1,0,1.8,0.7,2,1.6c0.3,1.1-0.4,2.3-1.5,2.6l-6.9,1.7
		c-1.1,0.3-2.3-0.4-2.5-1.6C65.9,46.4,66.6,45.2,67.7,44.9z M54.5,64.6l-6.7,6.7l-6.7-6.6l6.7-6.7L54.5,64.6z M43.9,52
		c0.1,0,0.2,0,0.3,0h7.1c0.2,0,0.3,0,0.4,0l-3.9,3.9L43.9,52z M82.7,74.4l-2.1-2.1l2.2-2.2C82.8,71.7,82.7,73.1,82.7,74.4z
		 M82.8,90.7l-2.2-2.2l2.1-2.1C82.8,87.9,82.8,89.3,82.8,90.7z M82.7,76.5c0,2.1,0,3.4,0,3.7c0,1.4,0,2.8,0,4.2l-3.1,3.1l-7.1-7
		l7.1-7L82.7,76.5z M71.4,79.4l-7-6.9l7-7.1l7,7L71.4,79.4z M70.4,80.4L63.7,87l-6.9-6.9l6.7-6.7L70.4,80.4z M63.4,71.4l-6.8-6.8
		l7.1-7l6.8,6.8L63.4,71.4z M62.4,72.4l-6.7,6.7l-6.9-6.8l6.7-6.7L62.4,72.4z M54.7,80.2l-6.9,6.9L41,80.2l6.9-6.8L54.7,80.2z
		 M46.8,72.3l-6.9,6.8l-6.6-6.7l6.8-6.8L46.8,72.3z M13.3,86.6l1.9,1.9l-2,2C13.2,89.2,13.2,87.9,13.3,86.6z M13.1,70.3l2.4,2.3
		l-2.2,2.2C13.2,73.3,13.2,71.8,13.1,70.3z M13.3,84.5c0-1.4,0-2.9,0-4.4c0-1.1,0-2.2,0-3.3c0,0,0,0,0,0l3.1-3.2l6.8,6.7l-7,7
		L13.3,84.5z M17.5,72.6l6.9-7l6.8,6.9l-6.9,6.9L17.5,72.6z M32.3,73.5l6.6,6.7L32,87l-6.7-6.6L32.3,73.5z M32.3,71.4l-6.8-6.9
		l6.7-6.8l7,6.9L32.3,71.4z M24.4,63.5l-7.2-7.3l6.5-6.5l0.6,0.2c0,0,0,0,0,0l6.8,6.7L24.4,63.5z M23.4,64.5l-6.9,7L13,68.1
		c0,0,0,0-0.1,0c-0.2-2.4-0.4-4.8-0.7-7l3.8-3.8L23.4,64.5z M13,92.7C13,92.7,13,92.7,13,92.7l3.2-3.2l6.7,6.7l-7,7l-3.4-3.4
		C12.7,97.6,12.9,95.2,13,92.7z M17.2,88.4l7-7l6.7,6.7l-7,7L17.2,88.4z M32,89.1l6.9,6.9l-7,7.1L25,96.1L32,89.1z M33.1,88.1
		l6.9-6.9l6.8,6.9L40,95L33.1,88.1z M47.8,89.2l6.8,6.9l-6.8,6.8L41,96L47.8,89.2z M48.9,88.1l6.9-6.9l6.9,6.9l-7,6.9L48.9,88.1z
		 M63.7,89.1l7.1,7l-7,7l-7-7.1L63.7,89.1z M64.8,88.1l6.7-6.7l7.1,7l-6.7,6.6L64.8,88.1z M79.6,89.5l3.2,3.1
		c0.1,0.1,0.1,0.1,0.2,0.1c0.1,2.6,0.3,4.9,0.4,7l-3.4,3.4l-7.1-7L79.6,89.5z M82.9,68c-0.1,0-0.2,0.1-0.2,0.2l-3.2,3.1l-7-7l7-7.1
		l3.9,3.8C83.2,63.5,83.1,65.8,82.9,68z M71.5,63.3l-6.8-6.8l6.6-6.6l0.7-0.2l6.5,6.5L71.5,63.3z M64.9,48.5
		c0.6,1.3,1.8,2.1,3.3,2.1c0.1,0,0.3,0,0.4,0l-4.9,4.9l-6.4-6.4C60.2,48.9,62.8,48.7,64.9,48.5z M56,49.9l6.7,6.6l-7.1,7l-6.7-6.6
		L56,49.9z M42.2,48.4c0-1.1,0.9-2.1,2.1-2.1h7.1c1.2,0,2.1,0.9,2.1,2.1v0.1c0,1.1-0.9,2.1-2.1,2.1h-7.1
		C43.1,50.6,42.2,49.6,42.2,48.4L42.2,48.4z M46.8,56.9l-6.7,6.7l-7-6.9l6.6-6.8L46.8,56.9z M30.7,48.5c2.6,0.4,4.2,0.5,6.6,0.5
		c0.4,0,0.8,0,1.3,0l-6.4,6.6L27,50.6c0.1,0,0.3,0,0.4,0C28.8,50.6,30.1,49.7,30.7,48.5z M18.5,44.7c0.2-1,1.1-1.6,2-1.6
		c0.2,0,0.3,0,0.5,0.1l6.9,1.7c1.1,0.3,1.8,1.4,1.5,2.6c-0.3,1.1-1.4,1.8-2.5,1.6l-6.9-1.7C18.9,47.1,18.2,45.9,18.5,44.7z M6.2,39
		c-0.2,0.2-0.5,0.3-0.8,0.3c-0.8,0-1.8-0.5-2.6-1.3c-1.3-1.3-1.6-2.9-1-3.5c0.2-0.2,0.5-0.3,0.8-0.3c0.8,0,1.8,0.5,2.6,1.3
		C6.6,36.8,6.8,38.4,6.2,39z M7.1,40.3c1.6,1,3.6,1.9,5.7,2.8l-3.4,3.4C8.7,44.3,8,42.2,7.1,40.3z M9.9,48.1l4.4-4.4
		c0.9,0.4,1.8,0.7,2.8,1c-0.3,1.8,0.8,3.6,2.6,4.1l2.3,0.6l-5.8,5.8l-6-6.1C10,48.8,9.9,48.4,9.9,48.1z M10.8,51.8l4.3,4.4l-3,3
		C11.7,56.6,11.3,54.2,10.8,51.8z M12.2,101.7l2.6,2.5l-3.5,3.5C11.6,105.8,12,103.8,12.2,101.7z M8.3,118.6
		c0.4-1.1,0.9-2.3,1.2-3.5l1.8,1.8C10.2,117.5,9.2,118.1,8.3,118.6z M21.8,113.2C21.8,113.2,21.8,113.2,21.8,113.2
		c-3.6,1-6.6,2-9.1,3.1l-2.7-2.7c0,0-0.1,0-0.1-0.1c0.3-1,0.6-2.1,0.8-3.3c0,0,0,0,0,0l5-5l7,6.9L21.8,113.2z M16.9,104.2l7-7
		l6.9,6.9l-7,7L16.9,104.2z M25.2,112.4l-0.3-0.3l7-7l5.7,5.6C32.9,111.1,28.8,111.7,25.2,112.4z M39.5,110.6l-6.6-6.5l7-7.1
		l6.9,6.8l-6.8,6.8C39.9,110.6,39.7,110.6,39.5,110.6z M47.8,110.4c-1.9,0-3.8,0-5.6,0.1l5.6-5.6l5.6,5.6
		C51.7,110.5,49.8,110.4,47.8,110.4z M55.7,110.6l-6.8-6.8l6.8-6.8l7,7.1l-6.5,6.5C56,110.6,55.9,110.6,55.7,110.6z M70.6,112.5
		c-3.6-0.7-7.7-1.3-12.4-1.7l5.6-5.6l7,7.1L70.6,112.5z M64.8,104.2l7-7l7.1,7l-7.1,7L64.8,104.2z M87.5,118.7
		c-0.9-0.6-2-1.2-3.1-1.7l1.7-1.7C86.5,116.8,87,117.9,87.5,118.7z M85.5,113.7l-2.6,2.6c-2.5-1.1-5.5-2.2-9.1-3.1l-0.9-0.9l7.1-7
		l4.7,4.7C84.9,111.4,85.2,112.6,85.5,113.7z M84.2,107.4l-3.2-3.2l2.5-2.5C83.7,103.8,84,105.7,84.2,107.4z M83.6,59.2l-3-3l4-4
		C84.2,54.5,83.9,56.9,83.6,59.2z M85.1,49.7c-0.1,0-0.1,0.1-0.2,0.1l-5.4,5.4l-5.9-5.9l2.3-0.6c1.8-0.5,3-2.3,2.6-4.1
		c1-0.3,1.9-0.7,2.8-1l4.1,4.1C85.4,48.4,85.2,49,85.1,49.7z M86,46.1l-3.1-3.1c2.3-1,4-1.9,5.1-2.5C87.2,42.2,86.5,44.1,86,46.1z
		 M90.6,35.4c0.8-0.8,1.8-1.3,2.6-1.3c0.4,0,0.6,0.1,0.8,0.3c0.6,0.6,0.3,2.2-1,3.5c-0.8,0.8-1.8,1.3-2.6,1.3
		c-0.4,0-0.6-0.1-0.8-0.3C89,38.4,89.2,36.8,90.6,35.4z"/>
	<path class="st0" d="M128,18.8c-0.1-3-0.2-6-0.4-8.9l-0.4-8.5L115.9,1l-11.4-0.3c-7.7-0.2-15.4-0.4-23.2-0.5C73.5,0,65.7,0,57.9,0
		c-7.8,0.1-15.6,0.1-23.4,0.3l-1.3,0l0,1.2l0.2,8.6l0.3,8.6l0,0.8l0.8,0c7.7-0.2,15.4-0.4,23.2-0.4c7.7,0,15.4,0.3,23.2,0.5
		c7.7,0.3,15.4,0.4,23.2,0.3c7.7,0,15.4-0.2,23.2-0.4l0.9,0L128,18.8z M126.5,10.4c-0.2,2.5-0.2,5-0.3,7.5c-2.8-0.1-5.5-0.1-8.3-0.2
		v-6.9c0-0.8-0.7-1.5-1.5-1.5s-1.5,0.7-1.5,1.5v6.9c-3-0.1-5.9-0.1-8.9-0.1v-4.1c0-0.8-0.7-1.5-1.5-1.5c-0.8,0-1.5,0.7-1.5,1.5v4.1
		c-3,0-5.9,0-8.9,0v-6.8c0-0.8-0.7-1.5-1.5-1.5c-0.8,0-1.5,0.7-1.5,1.5v6.8c-3,0.1-5.9,0.1-8.9,0.2v-4.3c0-0.8-0.7-1.5-1.5-1.5
		c-0.8,0-1.5,0.7-1.5,1.5v4.4c-3,0.1-5.9,0.2-8.9,0.3v-7.4c0-0.8-0.7-1.5-1.5-1.5c-0.8,0-1.5,0.7-1.5,1.5v7.5
		c-3,0.1-5.9,0.1-8.9,0.1v-4.9c0-0.8-0.7-1.5-1.5-1.5c-0.8,0-1.5,0.7-1.5,1.5v4.9c-3,0-5.9,0-8.9-0.1v-7.5c0-0.8-0.7-1.5-1.5-1.5
		s-1.5,0.7-1.5,1.5v7.5c-2.8-0.1-5.5-0.1-8.3-0.2l0.2-7.8l0.2-7.4C42.9,2.9,50.1,3,57.3,3c7.6,0.1,15.2,0,22.9-0.1
		c7.7-0.1,15.4-0.3,23.1-0.5L115,2.1l11.9-0.4L126.5,10.4z"/>
</g>
</svg>
