<?xml version="1.0" encoding="utf-8"?>
<!-- Generator: Adobe Illustrator 24.1.2, SVG Export Plug-In . SVG Version: 6.00 Build 0)  -->
<svg version="1.1" id="Layer_1" xmlns="http://www.w3.org/2000/svg" xmlns:xlink="http://www.w3.org/1999/xlink" x="0px" y="0px"
	 viewBox="0 0 128 128" style="enable-background:new 0 0 128 128;" xml:space="preserve">
<style type="text/css">
	.st0{fill:#2D2D2D;}
</style>
<g>
	<path class="st0" d="M128,111.57c0.01-0.2-0.1-0.4-0.28-0.51c-0.09-0.06-0.19-0.08-0.27-0.11l-0.25-0.08l-1.01-0.3l-2.03-0.59
		c-1.35-0.4-2.71-0.76-4.07-1.13c-2.7-0.74-5.4-1.46-8.14-2.13c-2.57-0.86-5.14-1.46-7.75-2c-1.31-0.27-2.62-0.51-3.94-0.7
		c-1.32-0.19-2.65-0.37-4.02-0.43c-0.34-0.02-0.69-0.02-1.03-0.02l-1.01,0.02c-0.67,0.02-1.34,0.05-2,0.09
		c-0.64,0.04-1.28,0.08-1.93,0.13c-0.83-0.84-1.72-1.6-2.61-2.33c-0.96-0.79-1.93-1.56-2.94-2.26c-0.5-0.34-1.02-0.7-1.55-1.05
		c-0.53-0.34-1.05-0.69-1.56-1.05c-0.51-0.37-0.99-0.76-1.47-1.16c-0.24-0.2-0.47-0.41-0.69-0.62c-0.11-0.11-0.22-0.21-0.33-0.32
		c-0.1-0.1-0.22-0.23-0.26-0.3l-0.03-0.04l-0.07-0.09c-0.05-0.06-0.09-0.09-0.14-0.13c-0.09-0.07-0.18-0.12-0.27-0.17
		c-0.18-0.09-0.36-0.15-0.54-0.2c-0.37-0.09-0.78-0.1-1.21,0.05c-0.44,0.13-0.83,0.56-0.98,0.99c-0.03,0.1-0.08,0.23-0.09,0.31
		l-0.05,0.26c-0.02,0.17-0.05,0.34-0.06,0.5c-0.12,1.3-0.13,2.52-0.26,3.68c-0.03,0.29-0.07,0.57-0.13,0.84
		c-0.06,0.28-0.12,0.49-0.23,0.79c-0.21,0.56-0.44,1.12-0.69,1.67c-0.25,0.54-0.53,1.07-0.87,1.57c-0.3,0.45-0.65,0.86-1.1,1.19
		c-2.54,0.29-5.06,0.63-7.59,0.98l-7.88,1.09c-2.6,0.37-5.2,0.74-7.79,1.17c-1.38-0.11-2.76-0.1-4.14,0
		c-1.05-1.08-2.23-1.97-3.48-2.77c-0.71-0.44-1.5-0.75-2.28-1.07c-0.78-0.32-1.52-0.71-2.25-1.12c-0.37-0.21-0.72-0.43-1.15-0.62
		c-0.1-0.05-0.23-0.09-0.36-0.13c-0.09-0.01-0.16-0.03-0.28-0.01c-0.07,0.02-0.15,0.04-0.22,0.08c-0.05,0.03-0.07,0.05-0.11,0.07
		c-0.27,0.2-0.42,0.47-0.51,0.7c-0.2,0.49-0.24,0.94-0.26,1.39c-0.02,0.44-0.01,0.88,0.01,1.3l0.03,0.62c0,0.09,0.01,0.23-0.01,0.22
		c0,0.01-0.02,0.06-0.03,0.1c-0.06,0.19-0.29,0.48-0.53,0.74c-0.25,0.27-0.53,0.54-0.82,0.8c-0.3,0.28-0.59,0.5-0.95,0.81
		l-1.46,1.26l1.82-0.23c0.23-0.03,0.49-0.04,0.74-0.06c0.25-0.02,0.5-0.02,0.75-0.02c0.25,0.01,0.49,0.02,0.73,0.06
		c0.01,0,0.02,0.01,0.03,0.01c-0.37,0.06-0.75,0.11-1.13,0.16c-1.06,0.13-2.12,0.25-3.18,0.35c-2.06,0.19-4.14,0.42-6.19,0.5
		c-1.3-0.38-2.58-0.79-3.83-1.25l-0.97-0.36l-0.99-0.38c-0.67-0.23-1.35-0.42-2.03-0.61c-2.72-0.7-5.45-1.25-8.29-1.39
		c-1.42-0.05-2.8-0.01-4.2-0.03l-2.09-0.04l-0.52-0.01l-0.13,0l-0.07,0c-0.03,0-0.07,0-0.1,0.01c-0.14,0.02-0.27,0.11-0.35,0.22
		c-0.08,0.11-0.12,0.26-0.1,0.41c0.01,0.07,0.03,0.14,0.06,0.2l0.06,0.12l0.24,0.46c0.66,1.24,1.25,2.48,2.01,3.71l0.08,0.12
		c0.04,0.05,0.09,0.11,0.14,0.16c0.11,0.1,0.23,0.18,0.37,0.23c0.14,0.05,0.29,0.08,0.43,0.07c0.17-0.01,0.24-0.03,0.34-0.05
		c0.37-0.07,0.72-0.17,1.07-0.27c0.66-0.21,1.31-0.46,1.93-0.7c0.14-0.03,0.26-0.01,0.29,0.01c0.03,0.03,0.02,0.01,0.04,0.1
		c0,0.02,0,0.05,0,0.08c0-0.01,0,0.09,0.01,0.17c0.01,0.08,0.03,0.14,0.04,0.21c0.08,0.26,0.21,0.41,0.32,0.55
		c0.23,0.26,0.45,0.43,0.67,0.6c0.87,0.63,1.75,1.07,2.57,1.56c0.2,0.12,0.41,0.25,0.58,0.37c0.17,0.11,0.34,0.25,0.51,0.4
		c0.35,0.29,0.68,0.63,1.02,0.97c0.68,0.68,1.33,1.39,2.03,2.12c0.18,0.19,0.34,0.36,0.6,0.57c0.07,0.06,0.13,0.1,0.18,0.13
		l0.17,0.12c0.12,0.08,0.27,0.16,0.43,0.23c0.34,0.15,0.8,0.18,1.14,0.08c0.35-0.09,0.61-0.25,0.85-0.4
		c0.24-0.17,0.43-0.32,0.62-0.48l0.57-0.46l1.14-0.92c0.76-0.61,1.53-1.21,2.33-1.77c0.73-0.54,1.5-1.02,2.32-1.42h0l0.01,0
		c0.34-0.06,0.7-0.05,1.05-0.05c0.36,0,0.71,0.02,1.07,0.03l2.14,0.1c0.71,0.04,1.42,0.07,2.13,0.12l-0.29,0.09l0.53,0.7
		c0.19,0.24,0.39,0.49,0.61,0.71c0.23,0.22,0.51,0.39,0.8,0.55c0.3,0.16,0.59,0.31,0.84,0.52c0.26,0.21,0.43,0.43,0.73,0.72
		l0.05,0.05l0.15-0.02c0.61-0.08,1.14-0.18,1.63-0.38c0.48-0.21,0.97-0.41,1.41-0.7c0.44-0.28,0.84-0.62,1.21-1.01
		c0.33-0.36,0.66-0.74,0.86-1.23c0.76,0.04,1.53,0.1,2.29,0.18c1.44,0.15,2.88,0.27,4.33,0.31c1.44,0.06,2.89,0.12,4.33,0.1
		c1.08-0.02,2.17-0.07,3.25-0.13l0.74,0.19c1.54,0.39,3.08,1.19,3.85,2.6c0.22,0.35,0.43,0.7,0.66,1.05
		c0.24,0.35,0.47,0.7,0.85,1.05c0.08,0.08,0.25,0.19,0.35,0.24c0.11,0.06,0.22,0.11,0.34,0.16c0.24,0.09,0.5,0.16,0.76,0.18
		c0.53,0.05,1.07-0.08,1.52-0.28c0.12-0.06,0.21-0.09,0.34-0.17c0.12-0.07,0.24-0.15,0.31-0.21c0.18-0.13,0.35-0.26,0.51-0.39
		c0.32-0.26,0.64-0.53,0.94-0.79c0.61-0.54,1.2-1.08,1.8-1.62c0.6-0.54,1.19-1.07,1.82-1.56c0.23-0.18,0.46-0.36,0.7-0.53
		c0.86,0.23,1.73,0.38,2.6,0.52c0.98,0.15,1.97,0.26,2.96,0.35c1.97,0.19,3.96,0.09,5.93,0.1l5.94,0l2.97-0.04
		c0.45-0.01,0.89-0.01,1.33-0.02c-0.25,0.1-0.5,0.26-0.68,0.49c-0.19,0.25-0.31,0.54-0.33,0.82c-0.06,0.56,0.11,1.03,0.3,1.41
		c0.1,0.2,0.22,0.37,0.35,0.54l0.19,0.24l0.15,0.19c0.2,0.26,0.37,0.56,0.52,0.88c0.29,0.64,0.46,1.37,0.5,2.09
		c0.02,0.36,0.02,0.73-0.04,1.08c-0.07,0.35-0.15,0.74-0.18,1.13c-0.02,0.39-0.02,0.83,0.22,1.25c0.25,0.43,0.75,0.66,1.2,0.7
		c0.46,0.05,0.91-0.06,1.31-0.23c0.4-0.17,0.76-0.41,1.08-0.75c0.3-0.34,0.49-0.62,0.73-0.93l0.4-0.55
		c0.01,0.01,0.01,0.03,0.02,0.04c0.09,0.16,0.23,0.33,0.41,0.45c0.18,0.13,0.42,0.19,0.63,0.22c0.36,0.06,0.78-0.01,1.15-0.16
		c0.36-0.16,0.65-0.37,0.9-0.56c0.26-0.21,0.45-0.38,0.7-0.62c0.28-0.29,0.46-0.57,0.62-0.87c0.31-0.58,0.54-1.16,0.75-1.75
		c0.21-0.59,0.4-1.17,0.54-1.79l0.05-0.24c0.02-0.08,0.02-0.11,0.04-0.18c0.03-0.12,0.08-0.25,0.13-0.38
		c0.11-0.26,0.24-0.52,0.37-0.79c0.27-0.53,0.57-1.05,0.88-1.56l0.48-0.76c0.12-0.19,0.26-0.41,0.39-0.59
		c1.46,0.05,2.91,0.04,4.38,0.01c2.12-0.04,4.23-0.28,6.35-0.47c0.53-0.05,1.06-0.1,1.59-0.16c0.27-0.03,0.52-0.06,0.81-0.11
		c0.12-0.02,0.24-0.06,0.36-0.1c0.36-0.04,0.71-0.09,1.07-0.15c0.2-0.03,0.41-0.07,0.61-0.12c0.1-0.02,0.22-0.05,0.33-0.11
		c0.1-0.05,0.2-0.1,0.3-0.16c0.19-0.12,0.34-0.28,0.46-0.46c0.09-0.14,0.16-0.3,0.2-0.47l0.27-0.07l3.09-0.74
		c0.52-0.13,1.03-0.25,1.54-0.39c0.26-0.07,0.51-0.14,0.77-0.23c0.06-0.02,0.14-0.05,0.19-0.1c0.05-0.04,0.11-0.08,0.15-0.13
		c0.1-0.1,0.18-0.24,0.17-0.39c0-0.01-0.01-0.02-0.01-0.03C127.98,111.61,128,111.59,128,111.57z M73.8,105.19
		c0.5-0.44,0.91-0.95,1.28-1.49c0.37-0.54,0.69-1.1,0.98-1.68c0.14-0.27,0.29-0.65,0.39-0.97c0.1-0.34,0.16-0.67,0.21-1
		c0.19-1.32,0.08-2.6,0.09-3.79c0-0.15,0.01-0.29,0.02-0.43l0.02-0.2c0.01-0.07,0.02-0.09,0.02-0.14c0.04-0.16,0.09-0.25,0.24-0.34
		c0.15-0.09,0.38-0.14,0.63-0.14c0.24,0.01,0.5,0.07,0.6,0.16c0.16,0.17,0.28,0.24,0.42,0.34l0.39,0.27
		c0.26,0.18,0.52,0.35,0.77,0.54c0.51,0.36,1.01,0.74,1.48,1.14c0.47,0.41,0.92,0.84,1.35,1.29c0.43,0.45,0.84,0.92,1.31,1.36
		c0.46,0.44,0.96,0.83,1.47,1.19c0.51,0.37,1.04,0.71,1.57,1.05c0.89,0.55,1.8,1.06,2.76,1.5c-0.53,0.04-1.05,0.09-1.58,0.14
		c-1.33,0.12-2.65,0.28-3.98,0.49c-0.33,0.05-0.67,0.11-1,0.19c-0.32,0.06-0.74,0.18-1.01,0.28c-0.58,0.2-1.17,0.26-1.83,0.31
		l-3.96,0.29c-1.16,0.1-2.35,0.17-3.52,0.29C73.24,105.65,73.53,105.43,73.8,105.19z M33.54,110.46c-0.03-0.01-0.05-0.01-0.08-0.02
		c0.32-0.22,0.64-0.46,0.93-0.76c0.33-0.34,0.66-0.69,0.87-1.3c0.12-0.28,0.09-0.77,0.06-0.91l-0.08-0.62
		c-0.11-0.8-0.22-1.63-0.15-2.28c0.02-0.16,0.06-0.28,0.1-0.36c0,0,0.01-0.01,0.01-0.02c0.06,0,0.13,0,0.21,0.02
		c0.37,0.06,0.77,0.21,1.14,0.37c0.75,0.33,1.46,0.78,2.1,1.31c0.65,0.53,1.27,1.09,1.97,1.54c0.7,0.44,1.42,0.86,2.16,1.24
		c0.37,0.19,0.73,0.37,1.11,0.54c-0.49,0.05-0.97,0.11-1.45,0.18c-1.08,0.16-2.15,0.38-3.2,0.64c-1.05,0.26-2.09,0.56-3.11,0.83
		c-0.48,0.13-0.93,0.23-1.4,0.31c-0.11-0.15-0.27-0.28-0.41-0.37C34.07,110.65,33.8,110.55,33.54,110.46z M22.5,116.57
		c-0.88,0.46-1.74,0.97-2.57,1.51c-0.42,0.27-0.83,0.54-1.24,0.82l-0.61,0.41c-0.2,0.14-0.41,0.28-0.58,0.38
		c-0.18,0.11-0.36,0.18-0.49,0.21c-0.14,0.02-0.19,0.01-0.3-0.04c-0.06-0.03-0.12-0.07-0.21-0.13l-0.13-0.1
		c-0.05-0.04-0.09-0.07-0.11-0.1c-0.11-0.11-0.29-0.3-0.44-0.47c-0.64-0.71-1.29-1.48-1.99-2.2c-0.35-0.36-0.72-0.71-1.12-1.06
		c-0.2-0.17-0.41-0.34-0.65-0.5c-0.23-0.16-0.45-0.28-0.67-0.4c-0.88-0.49-1.77-0.91-2.52-1.4c-0.18-0.12-0.35-0.25-0.45-0.36
		c-0.04-0.04-0.06-0.07-0.07-0.08c0-0.09-0.01-0.18-0.03-0.27c-0.04-0.2-0.12-0.41-0.26-0.6c-0.14-0.19-0.34-0.34-0.55-0.43
		c-0.42-0.17-0.82-0.12-1.14-0.03l-0.05,0.01l-0.03,0.01c-0.64,0.29-1.25,0.58-1.88,0.84c-0.31,0.12-0.62,0.25-0.93,0.34
		c-0.19,0.05-0.19,0.06-0.25,0.05c-0.03,0-0.05-0.01-0.08-0.03c-0.01-0.01-0.02-0.01-0.04-0.03l-0.08-0.09
		c-0.82-1.06-1.57-2.26-2.28-3.44l-0.26-0.45l-0.07-0.11c-0.01-0.02-0.02-0.03-0.02-0.04c-0.01-0.03,0-0.06,0.02-0.09
		c0.02-0.03,0.04-0.04,0.07-0.05c0.01,0,0.02,0,0.02,0h0.06l0.13,0l0.52,0c0.69,0.01,1.39,0.05,2.08,0.09
		c1.38,0.09,2.78,0.24,4.12,0.45l8.11,1.63c0.67,0.14,1.34,0.29,2,0.46c0.63,0.17,1.34,0.39,2.02,0.54
		c0.64,0.15,1.29,0.28,1.94,0.38c-0.62-0.05-1.25-0.1-1.87-0.16c-1.6-0.15-3.19-0.28-4.73-0.68c-1.6-0.33-3.21-0.48-4.81-0.68
		l-2.4-0.31c-0.2-0.02-0.4-0.04-0.61-0.06l-0.31-0.02c-0.05,0-0.11,0-0.17,0c-0.03,0-0.06,0.01-0.1,0.02
		c-0.02,0.01-0.05,0.01-0.09,0.05c-0.01,0.01-0.05,0.08-0.05,0.12c0,0.03,0.02,0.08,0.03,0.1c0.13,0.14,0.19,0.16,0.29,0.23
		c0.09,0.06,0.18,0.11,0.28,0.15c0.19,0.09,0.38,0.17,0.57,0.25c0.38,0.15,0.77,0.29,1.15,0.42c0.4,0.13,0.72,0.25,1.08,0.44
		l2.14,1.11c1.44,0.74,2.86,1.51,4.45,2.02c0.82,0.25,1.64,0.34,2.45,0.4c0.81,0.06,1.62,0.09,2.43,0.1c1.16,0,2.32-0.02,3.48-0.09
		C23.98,115.86,23.23,116.2,22.5,116.57z M37.23,116.86c-0.43,0.26-0.82,0.59-1.22,0.88c-0.38,0.27-0.74,0.66-1.09,0.88
		c-0.07-0.04-0.15-0.1-0.22-0.15c-0.12-0.1-0.24-0.21-0.34-0.32c-0.21-0.24-0.36-0.53-0.52-0.83c-0.15-0.3-0.32-0.58-0.54-0.81
		c-0.08-0.09-0.18-0.17-0.27-0.25c0.08-0.08,0.17-0.16,0.24-0.25c0.13,0.01,0.27,0.01,0.42,0.02c1.5,0.02,2.92-0.18,4.37-0.19
		c0.46,0,0.91,0,1.37,0.02C38.65,116.13,37.91,116.44,37.23,116.86z M104.11,117.11c-0.38,0.47-0.76,0.95-1.11,1.45
		c-0.18,0.25-0.35,0.51-0.5,0.79c-0.08,0.14-0.15,0.28-0.22,0.45c-0.03,0.07-0.07,0.19-0.09,0.25l-0.07,0.2
		c-0.19,0.54-0.43,1.08-0.68,1.6c-0.27,0.52-0.56,1.02-0.89,1.46c-0.16,0.22-0.33,0.42-0.48,0.56c-0.07,0.07-0.21,0.2-0.31,0.3
		l-0.31,0.31c-0.19,0.2-0.37,0.39-0.54,0.51c-0.16,0.13-0.34,0.21-0.58,0.27c-0.16,0.05-0.32,0.05-0.52-0.09
		c-0.05-0.04-0.11-0.08-0.16-0.13c0.85-1.17,1.67-2.35,2.46-3.56c0.4-0.63,0.8-1.26,1.19-1.9l0.58-0.96
		c0.2-0.32,0.37-0.64,0.56-0.92c0.39-0.56,0.78-1.12,1.09-1.77c0.53,0.04,1.06,0.06,1.59,0.08
		C104.73,116.36,104.43,116.73,104.11,117.11z M120.84,114.28c-0.06,0.07-0.13,0.13-0.21,0.18c-0.06,0.04-0.14,0.07-0.24,0.1
		c-0.19,0.06-0.38,0.11-0.58,0.16c-0.07,0.02-0.15,0.03-0.23,0.05c0.37-0.24,0.69-0.5,1.02-0.69c0.22-0.13,0.41-0.21,0.67-0.27
		l0.1-0.03C121.18,113.95,121,114.11,120.84,114.28z M127.88,111.65c0,0.12-0.07,0.23-0.16,0.31c-0.05,0.04-0.1,0.08-0.15,0.12
		c-0.05,0.04-0.1,0.05-0.16,0.07c-0.25,0.07-0.51,0.13-0.77,0.18c-0.52,0.11-1.04,0.2-1.56,0.3l-3.13,0.56l-0.79,0.15
		c-0.26,0.05-0.57,0.15-0.81,0.28c-0.5,0.27-0.91,0.6-1.35,0.81c-0.22,0.11-0.43,0.18-0.67,0.21c-0.23,0.03-0.51,0.05-0.76,0.07
		c-0.52,0.04-1.05,0.06-1.58,0.09c-2.11,0.11-4.23,0.1-6.34,0.27c-2.02,0.15-4.06,0.35-6.08,0.69c0.01-0.03,0.03-0.05,0.04-0.08
		c0.04-0.1,0.08-0.2,0.11-0.32c0.03-0.11,0.06-0.26,0.02-0.44c-0.08-0.24-0.21-0.41-0.34-0.57c-0.27-0.3-0.57-0.56-0.97-0.7
		c-0.03-0.01-0.06,0-0.08,0.02c-0.02,0.03-0.02,0.07,0.01,0.1l0.01,0.01c0.27,0.21,0.48,0.53,0.64,0.83
		c0.08,0.15,0.13,0.32,0.14,0.44c-0.02,0-0.08,0.18-0.18,0.3c-0.4,0.56-0.92,1.09-1.42,1.64c-0.55,0.63-0.95,1.21-1.41,1.82
		c-0.45,0.6-0.88,1.21-1.3,1.83c-0.84,1.24-1.63,2.51-2.42,3.78l-1.15,1.86c-0.34,0.46-0.94,0.9-1.51,0.94
		c-0.29,0.02-0.57-0.06-0.73-0.26c-0.18-0.21-0.24-0.56-0.24-0.91c-0.01-0.36,0.06-0.7,0.12-1.09c0.05-0.39,0.07-0.77,0.07-1.16
		c0.01-0.77-0.05-1.54-0.22-2.32c-0.09-0.39-0.22-0.78-0.41-1.16l-0.28-0.5c-0.08-0.15-0.14-0.3-0.2-0.44
		c-0.12-0.28-0.15-0.57-0.12-0.76c0.04-0.19,0.1-0.26,0.25-0.33c0.3-0.11,0.69-0.22,1.04-0.34c0.36-0.12,0.72-0.26,1.08-0.41
		c0.36-0.14,0.71-0.32,1.05-0.51c0.17-0.1,0.34-0.19,0.51-0.3c0.09-0.07,0.19-0.14,0.28-0.21c0.08-0.09,0.17-0.16,0.24-0.26
		c0.29-0.37,0.41-0.82,0.41-1.23c0-0.42-0.09-0.8-0.25-1.16c-0.01-0.03-0.04-0.04-0.07-0.04c-0.04,0-0.07,0.04-0.07,0.08l0,0.01
		c0.05,0.73-0.12,1.49-0.57,1.85c-0.05,0.05-0.12,0.08-0.18,0.12l-0.2,0.09c-0.16,0.07-0.33,0.14-0.5,0.2
		c-0.34,0.13-0.68,0.23-1.03,0.34c-0.35,0.11-0.7,0.2-1.05,0.29c-0.1,0.03-0.21,0.06-0.31,0.08l-5.14-0.39l-5.92-0.42
		c-1.97-0.14-3.94-0.39-5.91-0.38c-1.71,0-3.42,0.06-5.13,0.22c0.26-0.15,0.54-0.27,0.84-0.35l0.01,0c0.03-0.01,0.05-0.03,0.05-0.06
		c0.01-0.04-0.02-0.07-0.06-0.08c-0.42-0.07-0.89-0.02-1.29,0.11c-0.21,0.05-0.42,0.13-0.61,0.21c-0.2,0.08-0.4,0.16-0.59,0.26
		c-0.76,0.37-1.48,0.81-2.16,1.29c-0.68,0.47-1.34,0.98-1.97,1.51c-0.31,0.26-0.62,0.53-0.92,0.8c-0.15,0.13-0.3,0.27-0.44,0.38
		c-0.08,0.07-0.13,0.11-0.18,0.15c-0.04,0.04-0.13,0.08-0.2,0.12c-0.28,0.16-0.57,0.24-0.85,0.25c-0.14,0-0.29-0.02-0.43-0.05
		c-0.07-0.02-0.15-0.04-0.22-0.07c-0.08-0.03-0.09-0.04-0.17-0.08c-0.26-0.16-0.56-0.44-0.84-0.71c-0.29-0.28-0.57-0.58-0.85-0.87
		c-0.28-0.3-0.57-0.62-0.91-0.89c-0.33-0.27-0.67-0.51-1.02-0.74c-0.3-0.19-0.6-0.38-0.91-0.57c0.29-0.01,0.58-0.02,0.87-0.05
		c0.73-0.07,1.46-0.2,2.19-0.36c0.36-0.09,0.73-0.19,1.11-0.32c0.1-0.04,0.2-0.08,0.31-0.13c0.06-0.04,0.13-0.07,0.19-0.11
		c0.04-0.02,0.05-0.03,0.06-0.04l0.03-0.02c0.09-0.07,0.24-0.14,0.39-0.2c0.62-0.26,1.35-0.43,2.05-0.65l0,0
		c0.03-0.01,0.05-0.03,0.05-0.06c0.01-0.04-0.02-0.08-0.06-0.08c-0.75-0.11-1.49-0.15-2.27-0.03c-0.2,0.03-0.4,0.08-0.63,0.19
		l-0.09,0.04c-0.03,0.02-0.06,0.03-0.06,0.03c-0.02,0-0.04,0.01-0.06,0.01c-0.06,0.01-0.14,0.03-0.21,0.05
		c-0.32,0.07-0.67,0.12-1.02,0.16c-0.7,0.1-1.42,0.18-2.14,0.31c-0.09,0.02-0.19,0.04-0.28,0.05c-1.98-0.18-3.97-0.29-5.95-0.33
		c-1.44-0.02-2.88,0.03-4.33,0.07c-1.44,0.03-2.88,0.12-4.33,0.24c-1.44,0.11-2.89,0.17-4.33,0.09c-1.43-0.07-2.89-0.33-4.27-0.52
		c-0.33-0.04-0.71-0.12-1.08-0.15c-0.37-0.04-0.74-0.06-1.1-0.07c-0.73-0.03-1.47-0.02-2.2,0.03c-0.73,0.04-1.46,0.12-2.18,0.24
		c-0.36,0.06-0.72,0.14-1.08,0.23c-0.26,0.07-0.51,0.14-0.76,0.26c-1.37-0.06-2.73-0.13-4.09-0.23c-0.8-0.05-1.6-0.12-2.39-0.22
		c-0.79-0.1-1.58-0.21-2.3-0.45c-0.73-0.25-1.47-0.57-2.19-0.9c-0.73-0.32-1.46-0.67-2.18-1.02c-0.73-0.35-1.45-0.7-2.2-1.03
		c-0.19-0.08-0.37-0.16-0.58-0.24c-0.22-0.08-0.4-0.11-0.6-0.16c-0.39-0.1-0.78-0.2-1.16-0.31c-0.19-0.06-0.38-0.12-0.56-0.2
		c-0.07-0.03-0.13-0.06-0.2-0.09c0.06,0,0.11,0,0.17,0c0.2,0.01,0.4,0.02,0.6,0.04c0.8,0.07,1.6,0.18,2.39,0.31
		c1.58,0.28,3.16,0.65,4.7,1.04c0.37,0.1,0.79,0.21,1.19,0.28c0.41,0.08,0.81,0.12,1.22,0.17c0.81,0.09,1.62,0.14,2.43,0.17
		c1.5,0.04,3,0.05,4.49-0.09c0.86,0.06,1.7,0.05,2.56,0.06c1.07,0,2.15,0,3.22-0.04c1.07-0.03,2.15-0.08,3.23-0.16
		c0.54-0.04,1.08-0.09,1.62-0.15c0.27-0.03,0.55-0.08,0.82-0.12c0.27-0.05,0.54-0.11,0.8-0.17c2.11-0.49,4.15-1.01,6.24-1.29
		c1.04-0.14,2.09-0.23,3.13-0.29c1.05-0.05,2.1-0.03,3.15,0.01l0.09,0l0.06-0.01c5.19-1.06,10.35-2.25,15.59-3.01
		c2.62-0.38,5.25-0.7,7.88-0.86c2.63-0.14,5.28-0.16,7.94-0.2c0.66-0.01,1.4-0.07,2.09-0.27c0.36-0.11,0.58-0.16,0.92-0.22
		c0.31-0.05,0.63-0.1,0.95-0.14c1.29-0.16,2.61-0.27,3.92-0.37c1.31-0.1,2.63-0.17,3.94-0.22c0.66-0.02,1.31-0.04,1.97-0.05l0.98,0
		c0.32,0.01,0.63,0.02,0.95,0.04c2.57,0.18,5.18,0.64,7.76,1.1c1.29,0.24,2.58,0.51,3.86,0.79c1.28,0.28,2.56,0.59,3.79,0.97
		l0.05,0.01l0.02,0l8.25,1.71c1.38,0.28,2.75,0.58,4.14,0.84l2.07,0.41l1.03,0.21l0.26,0.05c0.09,0.02,0.17,0.03,0.23,0.06
		c0.13,0.06,0.23,0.2,0.23,0.35c0,0.02,0.02,0.04,0.03,0.05C127.89,111.63,127.88,111.64,127.88,111.65z"/>
	<path class="st0" d="M119.93,109.93c-0.34-0.07-0.7-0.02-1.01,0.13c-0.32,0.14-0.58,0.47-0.6,0.83c-0.02,0.23,0.06,0.44,0.17,0.62
		c-1.14-0.42-2.34-0.62-3.53-0.84c-1.21-0.21-2.43-0.32-3.64-0.45c-2.43-0.27-4.86-0.5-7.31-0.7c-0.01,0-0.02,0.01-0.02,0.02
		c0,0.01,0.01,0.02,0.02,0.03l0,0l3.63,0.5l3.63,0.52c1.21,0.18,2.41,0.39,3.62,0.54c1.21,0.14,2.42,0.27,3.63,0.44
		c0.05,0.07,0.1,0.14,0.16,0.21c0.21,0.23,0.48,0.44,0.8,0.54c0.32,0.09,0.69,0.05,0.97-0.14c0.29-0.19,0.47-0.48,0.53-0.78
		c0.06-0.3-0.01-0.64-0.2-0.92C120.59,110.18,120.26,110,119.93,109.93z M120.34,111.9c-0.27,0.04-0.52,0.05-0.78,0.03
		c-0.26-0.02-0.55-0.08-0.77-0.27c-0.21-0.18-0.31-0.49-0.22-0.73c0.2-0.47,0.78-0.61,1.27-0.52c0.25,0.04,0.49,0.13,0.72,0.27
		c0.23,0.13,0.43,0.4,0.37,0.7C120.88,111.68,120.59,111.86,120.34,111.9z"/>
	<path class="st0" d="M106.67,110.83c-0.09,0.13-0.16,0.27-0.2,0.43c-0.02,0.08-0.03,0.16-0.04,0.25l0.01,0.23
		c0.01,0.27-0.07,0.5-0.13,0.72c-0.07,0.22-0.2,0.42-0.41,0.65c0,0-0.01,0.01-0.01,0.02c0,0.01,0.01,0.03,0.02,0.03
		c0.32,0.01,0.64-0.19,0.81-0.5c0.18-0.31,0.14-0.66,0.08-0.96l-0.04-0.2c0-0.06-0.01-0.12,0-0.18c0.01-0.12,0.05-0.25,0.11-0.37
		c0.11-0.25,0.27-0.48,0.47-0.69c0.01-0.01,0.01-0.02,0-0.03c-0.01-0.01-0.02-0.01-0.03-0.01
		C107.07,110.38,106.85,110.58,106.67,110.83z"/>
	<path class="st0" d="M104.9,110.51c-0.09,0.13-0.16,0.27-0.2,0.43c-0.02,0.08-0.03,0.16-0.04,0.25l0.01,0.23
		c0.01,0.27-0.07,0.5-0.13,0.72c-0.07,0.22-0.2,0.42-0.41,0.65c0,0-0.01,0.01-0.01,0.02c0,0.01,0.01,0.03,0.02,0.03
		c0.32,0.01,0.64-0.19,0.81-0.5c0.18-0.31,0.14-0.66,0.08-0.96l-0.04-0.2c0-0.06-0.01-0.12,0-0.18c0.01-0.12,0.05-0.25,0.11-0.37
		c0.11-0.25,0.27-0.48,0.47-0.69c0.01-0.01,0.01-0.02,0-0.03c-0.01-0.01-0.02-0.01-0.03-0.01
		C105.3,110.07,105.08,110.26,104.9,110.51z"/>
	<path class="st0" d="M108.78,111.12c-0.09,0.13-0.16,0.27-0.2,0.43c-0.02,0.08-0.03,0.16-0.04,0.25l0.01,0.23
		c0.01,0.27-0.07,0.5-0.13,0.72c-0.07,0.22-0.2,0.42-0.41,0.65c0,0-0.01,0.01-0.01,0.02c0,0.01,0.01,0.03,0.02,0.03
		c0.32,0.01,0.64-0.19,0.81-0.5c0.18-0.31,0.14-0.66,0.08-0.96l-0.04-0.2c0-0.06-0.01-0.12,0-0.18c0.01-0.12,0.05-0.25,0.1-0.37
		c0.11-0.25,0.27-0.48,0.47-0.69c0.01-0.01,0.01-0.02,0-0.03c-0.01-0.01-0.02-0.01-0.03-0.01
		C109.18,110.67,108.96,110.87,108.78,111.12z"/>
	<path class="st0" d="M111.21,111.46c-0.09,0.13-0.16,0.27-0.2,0.43c-0.02,0.08-0.03,0.16-0.04,0.25l0.01,0.23
		c0.01,0.27-0.07,0.5-0.13,0.72c-0.07,0.22-0.2,0.42-0.41,0.65c0,0-0.01,0.01-0.01,0.02c0,0.01,0.01,0.03,0.02,0.03
		c0.32,0.01,0.64-0.19,0.81-0.5c0.18-0.31,0.14-0.66,0.08-0.96l-0.04-0.2c0-0.06-0.01-0.12,0-0.18c0.01-0.12,0.05-0.25,0.11-0.37
		c0.11-0.25,0.27-0.48,0.47-0.69c0.01-0.01,0.01-0.02,0-0.03c-0.01-0.01-0.02-0.01-0.03-0.01
		C111.61,111.01,111.39,111.21,111.21,111.46z"/>
	<path class="st0" d="M80.8,108.12c-1.9,0.23-3.78,0.6-5.62,1.14c-1.82,0.55-3.66,1.02-5.51,1.45c-3.69,0.89-7.42,1.63-11.17,2.24
		c-1.88,0.3-3.76,0.57-5.65,0.74c-1.89,0.19-3.79,0.31-5.69,0.18c1.89,0.23,3.81,0.16,5.71,0.05c1.9-0.13,3.8-0.35,5.68-0.62
		c3.77-0.54,7.52-1.28,11.23-2.14c1.85-0.45,3.7-0.94,5.52-1.5c1.81-0.55,3.67-0.92,5.54-1.19c1.88-0.27,3.77-0.42,5.67-0.49
		c1.9-0.07,3.8-0.07,5.7,0.07C88.43,107.61,84.59,107.68,80.8,108.12z"/>
	<path class="st0" d="M119.78,110.74c-0.24,0-0.43,0.19-0.43,0.43s0.19,0.43,0.43,0.43c0.24,0,0.43-0.19,0.43-0.43
		S120.01,110.74,119.78,110.74z"/>
</g>
</svg>
