<?xml version="1.0" encoding="utf-8"?>
<!-- Generator: Adobe Illustrator 18.1.0, SVG Export Plug-In . SVG Version: 6.00 Build 0)  -->
<svg version="1.1" baseProfile="tiny" id="Layer_1" xmlns="http://www.w3.org/2000/svg" xmlns:xlink="http://www.w3.org/1999/xlink"
	 x="0px" y="0px" viewBox="0 0 128 128" 
width="128" height="128"
xml:space="preserve">
<path fill="#2D2D2D" d="M120.8,117.2c-0.1,0-0.2,0-0.3,0c-2.8-3.2-8.1-10.6-8.1-53.4c0-0.4-0.6-38.4,7.3-53.1c0.3,0.1,0.7,0.1,1,0.1
	c1.6,0,3.4-0.9,4.9-2.3c2.4-2.5,3-5.8,1.3-7.5c-0.6-0.6-1.5-1-2.5-1c-1.6,0-3.4,0.9-4.9,2.3c-1.9,1.9-2.7,4.3-2.1,6.1
	c-1.7,1-6.3,3.6-13.2,5.8c-0.9-1.3-2.3-2.2-4-2.2c-0.4,0-0.8,0-1.2,0.1L90,14.6c-2.2,0.5-3.6,2.5-3.6,4.7c-3.5,0.4-8,0.8-13.1,1
	c-0.4-2.2-2.3-3.9-4.7-3.9h-9.5c-2.3,0-4.2,1.7-4.7,3.9c-1.8-0.1-3.3-0.1-4.7-0.2c-3.1-0.1-5.2-0.2-8.4-0.7c0-2.2-1.4-4.2-3.6-4.8
	l-9.2-2.3c-0.4-0.1-0.8-0.1-1.2-0.1c-1.7,0-3.1,0.9-4,2.2c-4.7-1.5-9.5-3.7-13-5.7c0.6-1.8-0.1-4.3-2.1-6.2C6.9,0.9,5.1,0,3.5,0
	C2.5,0,1.6,0.3,1,1c-1.7,1.7-1.1,5,1.3,7.5c1.4,1.5,3.3,2.3,4.9,2.3c0.1,0,0.3,0,0.4,0c0,0.1,0,0.1,0,0.2
	c5.4,12.1,8.2,29.8,8.2,52.8c0,30.8-4.2,46.1-7.7,53.5c-0.3-0.1-0.6-0.1-0.9-0.1c-1.6,0-3.4,0.9-4.9,2.3c-2.4,2.5-3,5.8-1.3,7.5
	c0.6,0.6,1.5,1,2.5,1h0c1.6,0,3.4-0.9,4.9-2.3c2.3-2.3,2.9-5.4,1.6-7.2c6.8-4.7,22.4-12.1,53.9-12.1c31.7,0,47.3,7.5,54.1,12.2
	c-1.2,1.8-0.6,4.8,1.7,7.1c1.4,1.5,3.3,2.3,4.9,2.3c0,0,0,0,0,0c1,0,1.9-0.3,2.5-1c1.7-1.7,1.1-5-1.3-7.5
	C124.3,118,122.4,117.2,120.8,117.2z M98.6,108.2l-1.2-1.2l9.4-9.5l6.3,6.3c0.4,2,0.8,3.7,1.2,5.1l-3.5,3.5
	C107.4,110.8,103.4,109.4,98.6,108.2z M77.7,104.9l7.5-7.5l9.4,9.5l-0.3,0.3C89.5,106.2,84,105.4,77.7,104.9z M74.4,104.7l-9.1-9.1
	l9.1-9.1l9.4,9.5l-8.7,8.7C74.9,104.7,74.7,104.7,74.4,104.7z M52.8,104.7L44,95.9l9.4-9.5l9.2,9.2l-9.1,9.1
	C53.3,104.7,53,104.7,52.8,104.7z M33.7,107.1l-0.4-0.4l9.3-9.4l7.6,7.6C44,105.4,38.5,106.1,33.7,107.1z M17.1,112.3l-3.6-3.6
	c0,0-0.1-0.1-0.1-0.1c0.4-1.4,0.7-2.9,1.1-4.4c0,0,0,0,0,0l6.7-6.7l9.4,9.3l-1.4,1.4c0,0,0,0,0,0.1
	C24.4,109.4,20.4,110.8,17.1,112.3z M12.7,110.7l2.4,2.4c-1.5,0.7-2.9,1.5-4.1,2.2C11.7,114,12.2,112.4,12.7,110.7z M16.3,92.7
	l3.4,3.4l-4.7,4.7C15.6,98.2,16,95.5,16.3,92.7z M14.4,25.8l5.8,5.9l-4.1,4.1C15.6,32.2,15.1,28.9,14.4,25.8z M22.8,16.2
	c-0.4,2.4,1.1,4.8,3.5,5.5l3.1,0.8l-7.8,7.8l-8.1-8.2c-0.1-0.4-0.2-0.9-0.3-1.3l5.9-5.9C20.3,15.3,21.5,15.8,22.8,16.2z M32.4,23.2
	C32.4,23.2,32.4,23.2,32.4,23.2l9.1,9.1l-8.9,9.1L23,31.6l8.6-8.7L32.4,23.2z M86.8,21.2c0.8,1.7,2.4,2.9,4.3,2.9c0.2,0,0.4,0,0.6,0
	l-6.6,6.6l-8.6-8.6C80.4,21.9,83.9,21.6,86.8,21.2z M105,16.1c1.3-0.4,2.6-0.9,3.8-1.3l5.5,5.5c-0.2,0.8-0.4,1.7-0.6,2.5
	c-0.1,0-0.2,0.1-0.2,0.2l-7.1,7.2l-7.9-7.9l3-0.8C103.9,21,105.4,18.6,105,16.1z M114.9,18.1l-4.1-4.1c3.1-1.3,5.4-2.5,6.8-3.3
	C116.5,12.8,115.6,15.3,114.9,18.1z M33.4,85.2l9.4-9.4l9.2,9.2l-9.4,9.5L33.4,85.2z M41.2,95.9l-9.3,9.4l-9.4-9.3l9.4-9.4
	L41.2,95.9z M74.8,23.2l8.9,8.9l-9.4,9.4l-8.9-8.9L74.8,23.2z M84.8,54.8l9.3,9.3L85.1,73l-9.3-9.3L84.8,54.8z M74.5,62.4l-9.2-9.2
	l8.9-9l9.1,9.1L74.5,62.4z M95.5,65.5l9.4,9.4L96,83.8l-9.4-9.4L95.5,65.5z M96.9,64.1l9.4-9.4l4.2,4.2c0,2.8,0,4.6,0,4.9
	c0,1.9,0,3.8,0,5.6l-4.2,4.2L96.9,64.1z M110.5,56.1l-2.8-2.8l3-3C110.6,52.4,110.5,54.3,110.5,56.1z M110.5,72.1c0,2,0.1,4,0.2,5.9
	l-3-3L110.5,72.1z M110.8,47.4c-0.1,0-0.2,0.1-0.3,0.2l-4.2,4.2l-9.4-9.4l9.4-9.5l5.2,5.2C111.2,41.4,111,44.5,110.8,47.4z
	 M104.9,53.3l-9.4,9.4l-9.3-9.3l9.4-9.5L104.9,53.3z M84.8,52l-9.1-9.1l9.4-9.4l9.1,9.1L84.8,52z M72.9,42.9l-8.9,9L55,42.9l9-9
	L72.9,42.9z M62.5,53.2l-9.2,9.2l-8.9-9l9.1-9.1L62.5,53.2z M52,63.8L42.8,73l-8.9-8.9l9.3-9.3L52,63.8z M32.5,62.7l-9-9l9.2-9.5
	l9.1,9.2L32.5,62.7z M22,52.3l-4.6-4.6c0,0-0.1,0-0.1,0c-0.2-3.3-0.5-6.4-0.9-9.4l5.1-5.1l9.7,9.8L22,52.3z M20.6,53.7l-2.9,3
	c-0.1-2.1-0.1-4.1-0.2-6.1L20.6,53.7z M17.7,72.4l2.5,2.5l-2.7,2.7C17.6,75.9,17.7,74.2,17.7,72.4z M17.8,69.6
	c0-1.9,0.1-3.9,0.1-5.9c0-1.5,0-2.9,0-4.4c0,0,0,0,0.1,0l4.2-4.3l9,9l-9.4,9.4L17.8,69.6z M32.5,65.5l8.9,8.9L32,83.8L23,74.9
	L32.5,65.5z M44.2,74.4l9.2-9.2l9.2,9.3l-9.1,9.2L44.2,74.4z M54.8,63.8l9.2-9.2l9.2,9.2l-9.2,9.3L54.8,63.8z M74.5,65.2l9.3,9.2
	l-9.3,9.3l-9.2-9.3L74.5,65.2z M85.1,75.8l9.4,9.4l-9.4,9.4l-9.4-9.5L85.1,75.8z M96,86.6l9.4,9.4l-9.4,9.4L86.6,96L96,86.6z
	 M97.4,85.2l8.9-8.9l4.2,4.2c0.1,0.1,0.2,0.1,0.3,0.2c0.1,3.4,0.3,6.6,0.6,9.4l-4.6,4.6L97.4,85.2z M111.6,92.7
	c0.3,2.9,0.6,5.4,0.9,7.7l-4.3-4.3L111.6,92.7z M111.8,35.7l-4-4l5.4-5.4C112.5,29.3,112.1,32.5,111.8,35.7z M96.2,22.9l8.7,8.7
	l-9.4,9.5l-9.1-9.1l8.9-8.9L96.2,22.9z M64,31.2L58.7,26c0.1,0,0.3,0,0.4,0h9.5c0.2,0,0.4,0,0.6-0.1L64,31.2z M53.1,23.2l9.4,9.4
	l-9,9l-9.3-9.3L53.1,23.2z M52.2,42.9L43.1,52L34,42.8l8.9-9.1L52.2,42.9z M12.5,18.6c-0.9-3-1.9-5.8-3-8.3c2.2,1.3,4.8,2.6,7.6,3.8
	L12.5,18.6z M17.4,80.6C17.4,80.6,17.4,80.6,17.4,80.6l4.3-4.3l8.9,8.9l-9.4,9.4l-4.6-4.5C16.9,87.1,17.2,83.9,17.4,80.6z M54.8,85
	l9.1-9.2l9.2,9.3L64,94.2L54.8,85z M114.9,111c0.7,2,1.3,3.4,2,4.6c-1.3-0.8-2.6-1.6-4.2-2.3L114.9,111z M121,3.7
	c1.1-1.1,2.4-1.8,3.5-1.8c0.5,0,0.9,0.1,1.1,0.4c0.8,0.8,0.4,2.9-1.3,4.7c-1.1,1.1-2.4,1.8-3.5,1.8c-0.5,0-0.9-0.1-1.1-0.4
	C118.9,7.7,119.2,5.5,121,3.7z M90.5,16.5l9.2-2.3c0.2-0.1,0.4-0.1,0.7-0.1c1.3,0,2.4,0.9,2.7,2.2c0.4,1.5-0.5,3.1-2,3.5L91.8,22
	c-1.5,0.4-3-0.6-3.4-2.1C88,18.4,89,16.8,90.5,16.5z M56.4,21.1c0-1.5,1.3-2.8,2.8-2.8h9.5c1.5,0,2.8,1.3,2.8,2.8v0.1
	c0,1.5-1.3,2.8-2.8,2.8h-9.5c-1.5,0-2.8-1.3-2.8-2.8V21.1z M51.5,22.1l-8.6,8.8L36.1,24c0.2,0,0.4,0,0.6,0c1.9,0,3.6-1.1,4.3-2.8
	c3.4,0.6,5.6,0.6,8.8,0.7C50.3,22,50.9,22,51.5,22.1z M24.8,16.2c0.3-1.3,1.4-2.2,2.7-2.2c0.2,0,0.5,0,0.7,0.1l9.2,2.3
	c1.5,0.4,2.4,1.9,2,3.5C39,21.4,37.5,22.4,36,22l-9.2-2.3C25.3,19.3,24.4,17.8,24.8,16.2z M3.7,7.1C1.9,5.3,1.6,3.2,2.4,2.4
	C2.6,2.1,3,2,3.5,2C4.6,2,5.9,2.6,7,3.7c1.8,1.8,2.1,3.9,1.3,4.7C8.1,8.7,7.7,8.9,7.2,8.9C6.1,8.9,4.8,8.2,3.7,7.1z M56.4,104.5
	L64,97l7.5,7.5c-2.4-0.1-5-0.1-7.6-0.1C61.3,104.4,58.8,104.4,56.4,104.5z"/>
</svg>
