<?xml version="1.0" encoding="utf-8"?>
<!-- Generator: Adobe Illustrator 24.1.2, SVG Export Plug-In . SVG Version: 6.00 Build 0)  -->
<svg version="1.1" id="Layer_1" xmlns="http://www.w3.org/2000/svg" xmlns:xlink="http://www.w3.org/1999/xlink" x="0px" y="0px"
	 viewBox="0 0 128 128" style="enable-background:new 0 0 128 128;" xml:space="preserve">
<style type="text/css">
	.st0{fill:#2D2D2D;}
</style>
<path class="st0" d="M117.9,33.45c-2.97-0.38-5.94-0.46-8.91-0.55c-1.49-0.05-2.98-0.08-4.46-0.08c-0.73,0.01-1.51-0.01-2.27,0.07
	c-0.38,0.03-0.76,0.07-1.14,0.15c-0.38,0.07-0.76,0.14-1.13,0.25c-0.75,0.2-1.49,0.47-2.2,0.81c-0.13,0.07-0.26,0.15-0.39,0.22
	c2.65-3.65,5.4-7.22,8.38-10.61l6.94-8.14c2.31-2.71,4.61-5.44,6.9-8.18l1.72-2.06c0.39-0.47,0.56-1.15,0.39-1.74
	c-0.15-0.59-0.58-1.1-1.16-1.32c-0.14-0.06-0.29-0.09-0.44-0.12l-0.22-0.02l-0.17,0l-0.67-0.01l-1.34-0.02l-2.67-0.05l-2.67-0.05
	L112.04,2c-0.14,0-0.29,0.02-0.43,0.05c-0.28,0.07-0.54,0.22-0.74,0.43c-0.2,0.2-0.35,0.47-0.41,0.75c-0.06,0.32-0.04,0.48-0.08,0.7
	c-0.22,1.71-0.83,3.39-1.51,5.01c-1.39,3.26-3.15,6.36-5.06,9.36c-0.48,0.75-0.94,1.51-1.47,2.2c-0.53,0.7-1.1,1.38-1.68,2.04
	c-0.59,0.66-1.19,1.31-1.8,1.97c-0.3,0.33-0.61,0.67-0.9,1.02l-0.84,1.04c-3.1,3.84-6.22,7.68-9.32,11.52
	c-0.1-0.46-0.27-0.91-0.45-1.33c-0.28-0.66-0.64-1.29-1.02-1.9c-0.77-1.21-1.68-2.33-2.71-3.35c-1.04-1-2.21-1.93-3.6-2.55
	c-0.17-0.08-0.35-0.15-0.53-0.22l-0.5-0.17l-1-0.34c-0.67-0.21-1.35-0.42-2.04-0.59c-1.38-0.35-2.79-0.62-4.22-0.71
	c-1.43-0.09-2.89,0.01-4.26,0.51c-1.32,0.52-2.6,0.97-3.95,1.25c-0.67,0.14-1.34,0.24-2,0.28c-0.66,0.04-1.31,0.01-1.86-0.15
	l-2.17-0.63L59,29.98c0.81,0.96,1.71,1.89,2.74,2.69c1.03,0.81,2.22,1.44,3.35,1.96c1.17,0.52,2.29,0.99,3.45,1.44
	c0.39,0.16,0.79,0.31,1.18,0.46c-0.12,0.03-0.24,0.07-0.37,0.12c-0.23,0.09-0.45,0.2-0.65,0.32c-0.82,0.49-1.45,1.12-1.99,1.78
	c-1.05,1.34-1.78,2.81-2.37,4.3c-0.3,0.74-0.56,1.5-0.8,2.26c-0.12,0.38-0.23,0.76-0.34,1.15l-0.15,0.56
	c-0.05,0.15-0.08,0.31-0.15,0.47c-0.52,1.27-1.42,2.59-2.21,3.93c-0.8,1.35-1.58,2.77-2.02,4.32l-0.17,0.58l0.56-0.2
	c1.07-0.39,2.2-0.69,3.33-0.84c0.57-0.06,1.14-0.12,1.7-0.09c0.29,0,0.55,0.04,0.84,0.06c0.3,0.04,0.61,0.06,0.92,0.07
	c0.63,0.02,1.27-0.06,1.87-0.18c0.6-0.13,1.16-0.26,1.72-0.4c1.11-0.27,2.21-0.52,3.33-0.75c0.37-0.07,0.72-0.18,1.07-0.3
	c-2.72,2.88-5.43,5.78-8.18,8.64l-2.27,2.37l-1.15,1.17c-0.39,0.38-0.78,0.71-1.17,1.07c-0.29,0.24-0.6,0.45-0.91,0.67
	c0.31-2.04,0.14-4.15-0.4-6.18c-0.57-2.21-1.88-4.19-3.35-5.89c-1.48-1.72-3.28-3.12-5.24-4.17c-0.99-0.52-2.01-0.95-3.06-1.29
	c-0.89-0.29-1.8-0.52-2.73-0.65c-0.08-0.15-0.16-0.31-0.25-0.46c0.85,0.15,1.71,0.24,2.57,0.29c1.37,0.09,2.75,0.06,4.14-0.08
	c0.71-0.08,1.44-0.2,2.15-0.44c0.72-0.24,1.43-0.58,2.05-1.06c0.63-0.47,1.15-1.07,1.57-1.64c0.43-0.57,0.78-1.12,1.16-1.59
	l0.83-1.01l-1.17-0.4c-0.37-0.13-0.83-0.39-1.27-0.67c-0.45-0.29-0.91-0.59-1.4-0.89c-0.49-0.29-1-0.59-1.57-0.82
	c-0.29-0.11-0.6-0.22-0.94-0.24c-0.33-0.03-0.65,0-0.94,0.05c-0.59,0.1-1.11,0.25-1.65,0.33c-0.53,0.08-1.06,0.11-1.57,0
	c-0.25-0.05-0.5-0.13-0.74-0.24l-0.74-0.38c-0.53-0.26-1.08-0.46-1.64-0.64c-1.12-0.34-2.29-0.52-3.48-0.47
	c-0.6,0.03-1.2,0.12-1.8,0.31c-0.3,0.1-0.61,0.21-0.91,0.37c-0.15,0.08-0.3,0.17-0.45,0.28c-0.13,0.09-0.22,0.17-0.33,0.26
	c-1.65,1.29-3.37,2.46-5.18,3.63c0.24-0.72,0.52-1.4,0.86-2.04c0.19-0.33,0.38-0.66,0.59-0.97c0.11-0.15,0.22-0.3,0.33-0.44
	l0.08-0.11c0.03-0.04,0.09-0.14,0.13-0.2c0.08-0.15,0.14-0.29,0.18-0.43c0.15-0.56,0.14-1.04,0.08-1.51
	c-0.06-0.46-0.16-0.9-0.3-1.32c-0.27-0.85-0.69-1.63-1.22-2.32c-0.54-0.69-1.18-1.29-1.9-1.78c-0.36-0.24-0.74-0.47-1.09-0.65
	c-0.35-0.2-0.69-0.41-1.03-0.63c-0.67-0.45-1.29-0.95-1.84-1.52c-0.54-0.55-1.04-1.24-1.11-1.84l-0.32-2.65l-0.7,2.71
	c-0.37,1.43-1.07,2.72-1.65,4.23c-0.29,0.75-0.58,1.59-0.58,2.58c-0.01,0.49,0.09,1.02,0.29,1.49c0.09,0.24,0.22,0.46,0.36,0.68
	l0.33,0.49c0.23,0.33,0.47,0.64,0.7,0.97c-0.29-0.06-0.6-0.08-0.88-0.03c-0.92,0.11-1.48,0.77-2.02,1.25
	c-0.55,0.49-1.01,1.02-1.46,1.54c-0.42,0.5-0.85,0.97-1.33,1.41c-0.12-0.03-0.24-0.06-0.36-0.09c-1.03-0.2-2.12-0.3-3.19-0.17
	c-1.07,0.12-2.1,0.43-3.05,0.88c-0.94,0.46-1.83,0.98-2.66,1.57c-0.85,0.56-1.65,1.16-2.47,1.75L8.56,46.8l-0.03,0.04
	c-0.36,0.51-0.68,1.02-1.04,1.51c-0.36,0.48-0.74,0.94-1.16,1.34c-0.42,0.4-0.9,0.73-1.41,0.97c-0.51,0.24-1.05,0.37-1.61,0.42
	l-0.91,0.07l0.6,0.75c0.82,1.02,1.78,1.95,2.92,2.68c1.14,0.72,2.48,1.21,3.88,1.33c0.68,0.08,1.37,0.05,2.04-0.05
	c-0.18,0.18-0.36,0.37-0.52,0.59c-0.38,0.52-0.67,1.2-0.72,1.93c-0.23,0.81-0.37,1.64-0.44,2.43c-0.04,0.4-0.06,0.79-0.1,1.12
	c-0.02,0.16-0.05,0.3-0.07,0.38c-0.03,0.09-0.02,0.09-0.02,0.12L9.59,63.8l0.63,0c1.17,0,2.46-0.11,3.65-0.35
	c1.2-0.22,2.36-0.56,3.51-0.94c1.16-0.38,2.3-0.83,3.36-1.42c0.53-0.3,1.06-0.62,1.59-1.05c0.41-0.32,0.77-0.74,1.06-1.15
	c-0.01,0.19-0.01,0.38,0,0.57c0.11,1.07,0.35,2.08,0.67,3.07c0.33,0.98,0.69,1.95,1.24,2.85c0.27,0.45,0.61,0.88,1.03,1.26
	c0.21,0.19,0.47,0.35,0.75,0.47c0.31,0.12,0.58,0.18,0.84,0.22c1.07,0.16,2.15,0.16,3.22-0.04c0.54-0.09,1.07-0.24,1.6-0.47
	c0.53-0.24,1.09-0.53,1.57-1.16c0.11-0.15,0.22-0.39,0.29-0.53l0.14-0.35l0.27-0.72c0.18-0.49,0.34-0.98,0.49-1.48
	c0.19-0.64,0.34-1.3,0.44-1.99c0.41,0.66,0.9,1.26,1.43,1.82c0.94,0.97,1.99,1.82,3.15,2.54c0.58,0.35,1.18,0.69,1.84,0.96
	c0.66,0.27,1.35,0.51,2.26,0.51c0.27,0,0.34-0.01,0.5-0.02c0.14,0,0.27-0.01,0.4,0c0.25,0.01,0.45,0.04,0.57,0.1
	c0.06,0.02,0.12,0.06,0.2,0.12c0.09,0.07,0.19,0.16,0.32,0.28c0.26,0.23,0.6,0.5,0.96,0.69l0.83,0.45l0.45-0.75
	c0.7-1.19,1.23-2.52,1.41-3.91c0.18-1.39-0.03-2.79-0.45-4.05c-0.43-1.27-1.03-2.43-1.61-3.57c-0.3-0.57-0.6-1.13-0.87-1.71
	c-0.25-0.58-0.5-1.17-0.72-1.77c-0.23-0.6-0.45-1.22-0.73-1.82c-0.11-0.24-0.22-0.47-0.34-0.7c1.83,0.55,3.58,1.37,5.14,2.42
	c1.77,1.16,3.33,2.61,4.55,4.3c0.61,0.84,1.13,1.74,1.55,2.69c0.44,0.93,0.82,1.88,1.2,2.85c0.73,1.85,1.26,3.8,1.84,5.84
	c-1.34,0.89-2.8,1.62-4.31,2.22c-2.01,0.77-4.11,1.37-6.25,1.73c-1.07,0.17-2.15,0.31-3.24,0.36c-1.08,0.05-2.18,0.07-3.24-0.14
	c-0.01,0-0.01,0-0.02,0c0-0.04,0.01-0.09,0.01-0.13c0-0.97-0.32-2.03-1.07-2.9c-0.37-0.42-0.85-0.77-1.38-0.98
	c-0.53-0.21-1.1-0.32-1.67-0.34c-1.14-0.02-2.29,0.37-3.2,1.11c-0.45,0.37-0.85,0.83-1.09,1.38c-0.25,0.54-0.32,1.17-0.24,1.74
	c0.19,1.16,0.9,2,1.68,2.64c0.78,0.64,1.75,1.23,2.86,1.36c1.09,0.12,2.28-0.27,3.03-1.12c0.17-0.19,0.32-0.4,0.44-0.61
	c1.51,0.23,3.03,0.44,4.56,0.52c-0.29,0.04-0.58,0.08-0.86,0.13c-1.6,0.26-3.19,0.63-4.76,1.09c-3.12,0.93-6.15,2.26-8.97,3.94
	c-1.42,0.83-2.77,1.77-4.09,2.77c-1.31,0.99-2.49,2.16-3.59,3.38c-0.04-0.14-0.07-0.28-0.12-0.42c-0.1-0.31-0.21-0.6-0.34-0.89
	c-0.15-0.3-0.33-0.6-0.54-0.86c-0.87-1.08-2.17-1.71-3.46-1.99c-0.66-0.14-1.29-0.22-2-0.2c-0.8,0.03-1.4,0.22-2.03,0.41
	c-1.23,0.4-2.37,0.91-3.47,1.5c-1.11,0.57-2.17,1.21-3.21,1.9c-0.52,0.35-1.03,0.71-1.53,1.11c-0.25,0.19-0.5,0.41-0.76,0.63
	l-0.38,0.39c-0.09,0.09-0.16,0.19-0.26,0.28c-0.78,0.73-1.81,1.43-2.78,2.17c-0.98,0.75-1.97,1.54-2.8,2.5l-0.58,0.67l0.86-0.09
	c0.96-0.1,1.96-0.12,2.92,0c0.49,0.06,0.92,0.17,1.42,0.33c0.53,0.15,1.06,0.18,1.57,0.22c2.05,0.1,4.05,0.05,5.98,0.06
	c0.1,0,0.19,0.01,0.29,0.01c-0.01,0.01-0.02,0.02-0.03,0.03c-0.84,0.86-1.57,1.82-2.24,2.79c-0.65,1.01-1.23,2-1.81,3.02
	c-0.58,1.02-1.14,2.06-1.62,3.14c-0.96,2.15-1.41,4.52-2.34,6.36l-1.34,2.64l2.69-1.3c1.61-0.78,3.28-1.7,4.75-2.87
	c1.15-0.91,2.2-1.98,3.02-3.19c0.29,1.06,0.71,2.03,1.21,2.94c0.56,1.02,1.24,1.95,1.96,2.83c0.73,0.88,1.51,1.71,2.35,2.48
	l0.33,0.31l0.2-0.37c0.48-0.9,0.83-1.83,1.17-2.76c0.35-0.92,0.71-1.84,1.11-2.73c0.4-0.89,0.84-1.76,1.29-2.59
	c0.11-0.21,0.24-0.41,0.35-0.61l0.19-0.39l0.15-0.4c0.11-0.32,0.18-0.63,0.24-0.94c0.15,0.19,0.32,0.38,0.49,0.55
	c0.41,0.42,0.85,0.81,1.32,1.16c0.92,0.71,1.9,1.33,2.91,1.88c1.01,0.56,2.05,1.05,3.13,1.47c1.08,0.41,2.19,0.75,3.38,0.98
	l1.51,0.3l-0.41-1.38c-0.08-0.28-0.06-0.83-0.01-1.34c0.05-0.53,0.12-1.08,0.16-1.64c0.08-1.12,0.09-2.27,0.03-3.4
	c-0.05-1.13-0.17-2.25-0.34-3.37c-0.07-0.55-0.17-1.15-0.41-1.71c-0.22-0.56-0.55-1.08-0.91-1.55c-0.73-0.96-1.65-1.72-2.64-2.33
	c-0.99-0.6-2.06-1.05-3.13-1.42c-1.08-0.37-2.17-0.66-3.28-0.86c-0.87-0.15-1.75-0.27-2.64-0.29c0.58-0.64,1.16-1.26,1.76-1.87
	c2.24-2.19,4.49-4.41,7.13-6.17c2.62-1.77,5.46-3.23,8.46-4.32c2.14-0.8,4.35-1.43,6.61-1.84c-0.37,0.81-0.78,1.6-1.25,2.33
	c-0.55,0.87-1.16,1.69-1.81,2.44c-0.65,0.77-1.5,1.31-2.13,2.05C42.4,82.2,42,82.62,41.6,83.08c-0.89-0.36-1.9-0.42-2.83-0.2
	c-0.61,0.14-1.19,0.41-1.68,0.8c-0.49,0.39-0.85,0.9-1.09,1.44c-0.48,1.09-0.51,2.23-0.29,3.3c0.22,1.06,0.69,2.22,1.66,2.99
	c0.95,0.76,2.34,0.99,3.46,0.52c1.13-0.46,1.89-1.32,2.46-2.18c0.55-0.87,1-1.93,0.95-3.16c-0.03-0.6-0.21-1.22-0.54-1.75
	c-0.24-0.38-0.54-0.72-0.88-1.01c0.16-0.07,0.31-0.13,0.47-0.21c0.24-0.14,0.48-0.3,0.71-0.46c0.47-0.31,0.85-0.74,1.19-1.18
	c0.32-0.46,0.62-0.93,0.91-1.4c0.59-0.93,1.07-1.91,1.45-2.92c0.32-0.92,0.59-1.85,0.74-2.81c0.25-0.04,0.5-0.08,0.75-0.12
	c1.19,0.01,2.39-0.03,3.59-0.14c0.13-0.01,0.25-0.03,0.38-0.04c0.02,0.35,0.05,0.7,0.04,1.05c0.01,0.49,0,0.97-0.01,1.44
	c-0.01,0.48-0.23,0.94-0.09,1.38c0.02,0.05,0.03,0.1,0.05,0.16c-0.91-0.01-1.82,0.26-2.59,0.75c-0.51,0.32-0.97,0.75-1.29,1.28
	c-0.32,0.52-0.48,1.13-0.51,1.71c-0.04,1.18,0.42,2.21,1.04,3.06c0.62,0.85,1.48,1.69,2.61,2.03c1.11,0.34,2.44,0.1,3.32-0.69
	c0.89-0.79,1.32-1.83,1.53-2.81c0.19-0.98,0.16-2.12-0.38-3.19c-0.27-0.52-0.67-1-1.17-1.34c-0.28-0.19-0.58-0.35-0.89-0.47
	c0.07-0.17,0.13-0.33,0.16-0.5c0.14-0.54-0.15-1.07-0.3-1.57c-0.15-0.51-0.34-1-0.57-1.47c-0.16-0.3-0.32-0.59-0.5-0.87
	c1.52-0.17,3.03-0.46,4.51-0.87c1.75-0.49,3.47-1.16,5.07-2.08c0.72-0.43,1.43-0.9,2.08-1.45c-0.03,0.73-0.03,1.46-0.02,2.18
	c-0.02,0.58-0.01,1.16-0.01,1.74c0.01,0.58,0.04,1.16,0.02,1.73c0,1.15,0.08,2.3,0.13,3.45c0.03,0.58,0.08,1.15,0.1,1.73l0.02,1.73
	c-0.03,2.31-0.17,4.62-0.51,6.91c-0.31,2.23-0.78,4.47-1.56,6.59c-0.03,0.01-0.06,0.02-0.09,0.02c0.03-0.01,0.06-0.04,0.06-0.08
	c0.01-0.05-0.03-0.1-0.08-0.11c-1.2-0.15-2.39-0.12-3.57-0.01c-1.19,0.11-2.36,0.32-3.53,0.64c-1.16,0.31-2.31,0.8-3.32,1.56
	c-0.5,0.38-0.99,0.82-1.37,1.33c-0.34,0.46-0.72,0.9-1.13,1.31c-0.82,0.82-1.76,1.51-2.73,2.16c-0.97,0.65-1.99,1.24-2.96,1.99
	c-0.48,0.39-0.95,0.79-1.39,1.36l-0.27,0.39c-0.07,0.1-0.15,0.21-0.23,0.31c-0.16,0.21-0.34,0.41-0.52,0.61
	c-0.73,0.8-1.59,1.56-2.4,2.28l-2.02,1.77l2.63,0c2.06,0,4.2-0.03,6.31-0.38c1.05-0.17,2.11-0.42,3.12-0.8
	c0.81-0.3,1.59-0.69,2.29-1.19c0.03,0.62,0.03,1.25,0.02,1.87c-0.01,1.35-0.09,2.7-0.2,4.06c-0.11,1.35-0.25,2.7-0.34,4.06
	c-0.09,1.36-0.13,2.71-0.16,4.08l-0.02,1.39l1.33-0.58c2.38-1.03,4.61-2.39,6.57-4.09c0.98-0.84,1.91-1.77,2.71-2.8
	c0.55-0.72,1.07-1.5,1.42-2.34c0.31,0.64,0.65,1.09,0.94,1.64c0.66,1.15,1.28,2.35,1.85,3.57c0.58,1.22,1.11,2.47,1.64,3.73
	c0.54,1.25,1.09,2.5,1.82,3.7l0.22,0.36l0.31-0.32c1.13-1.17,2.14-2.42,3.08-3.73c0.94-1.32,1.8-2.7,2.5-4.18
	c0.67-1.43,1.23-2.93,1.51-4.57c0.57,0.73,1.19,1.43,1.86,2.08c0.94,0.92,1.98,1.75,3.07,2.49c1.09,0.75,2.23,1.41,3.39,2
	c1.17,0.59,2.35,1.14,3.52,1.63l2.67,1.14l-1.38-2.53c-1.47-2.68-2.22-6.02-3.67-9.05c-0.71-1.52-1.54-2.99-2.41-4.42
	c-0.45-0.71-0.87-1.42-1.35-2.11c-0.43-0.71-0.95-1.39-1.48-2.04c-0.77-0.93-1.62-1.8-2.54-2.6c0.32-0.16,0.65-0.31,0.96-0.48
	c1.16-0.65,2.27-1.38,3.32-2.19c1.06-0.8,2.06-1.68,2.97-2.66c0.63-0.69,1.24-1.44,1.7-2.27c0.09,0.42,0.19,0.84,0.32,1.26
	c0.11,0.35,0.24,0.7,0.42,1.05l0.46,0.89c0.6,1.19,1.16,2.43,1.66,3.69c0.51,1.26,0.96,2.55,1.41,3.84
	c0.45,1.29,0.91,2.58,1.53,3.84l0.24,0.49l0.36-0.44c0.98-1.19,1.84-2.45,2.63-3.76c0.79-1.31,1.5-2.68,2.07-4.12
	c0.55-1.38,1-2.82,1.25-4.34c1.02,1.57,2.3,2.98,3.75,4.19c0.9,0.76,1.87,1.43,2.85,2.05c0.99,0.61,2.01,1.17,3.01,1.69l2.56,1.32
	l-1.18-2.62c-1.17-2.6-1.8-5.68-2.94-8.56c-0.57-1.45-1.24-2.86-1.92-4.24c-0.69-1.39-1.39-2.74-2.16-4.11
	c-0.18-0.29-0.36-0.58-0.55-0.87c1.15,0.94,2.47,1.67,3.85,2.26c1.45,0.61,2.97,1.05,4.51,1.37c0.78,0.14,1.56,0.26,2.35,0.34
	c0.78,0.1,1.69,0.03,2.32,0.04c1.41,0.06,2.93,0.26,4.38,0.59l1.35,0.3l-0.77-1.03c-1.04-1.39-2.27-2.53-3.43-3.73
	c-1.15-1.18-2.35-2.39-3.07-3.76c-0.53-0.87-1.16-1.4-1.79-2c-0.64-0.57-1.31-1.09-1.99-1.58c-1.36-0.99-2.77-1.91-4.2-2.77
	c-0.72-0.44-1.45-0.85-2.2-1.24c-0.74-0.4-1.51-0.76-2.3-1.09c-0.4-0.17-0.8-0.33-1.23-0.47c-0.45-0.15-0.89-0.24-1.32-0.31
	c-0.88-0.15-1.78-0.23-2.68-0.14c-0.9,0.09-1.82,0.29-2.64,0.73c-0.41,0.21-0.8,0.48-1.14,0.8c-0.17,0.16-0.32,0.33-0.47,0.51
	c-0.15,0.16-0.24,0.29-0.39,0.43c-0.9,0.88-2.11,1.5-3.36,2.01c-0.12-0.01-0.24-0.01-0.36-0.01c-0.63-0.95-1.21-1.93-1.72-2.94
	c-1.11-2.14-1.93-4.41-2.54-6.73c-0.24-1.18-0.53-2.34-0.64-3.53c-0.07-0.59-0.19-1.18-0.25-1.77c-0.06-0.59-0.14-1.19-0.23-1.78
	c-0.05-0.3-0.11-0.59-0.14-0.89l-0.09-0.9c-0.08-0.6-0.13-1.2-0.23-1.8c-0.11-1.12-0.2-2.24-0.4-3.39c0.1-0.1,0.2-0.21,0.3-0.31
	c0,0.09,0,0.18,0.01,0.27c0.12,1.32,0.71,2.5,1.39,3.54c1.39,2.05,3.27,3.75,5.33,5.04c2.06,1.31,4.27,2.29,6.53,3.1
	c2.26,0.82,4.55,1.45,7,1.72l0.83,0.09l-0.22-0.75c-0.67-2.32-1.41-4.62-2.2-6.89c-0.4-1.14-0.8-2.27-1.24-3.4
	c-0.44-1.13-0.89-2.26-1.45-3.36c-0.89-1.78-2.01-3.5-3.51-4.91c0.06,0.03,0.13,0.05,0.19,0.07c2.29,0.95,4.53,1.98,6.64,3.17
	c0.53,0.31,1.02,0.6,1.54,0.96l1.58,1.04c1.06,0.69,2.15,1.35,3.23,2c1.09,0.64,2.2,1.27,3.36,1.8c1.16,0.53,2.4,0.94,3.73,1.07
	l0.48,0.05l-0.06-0.52c-0.09-0.78-0.32-1.46-0.56-2.14c-0.24-0.68-0.53-1.33-0.83-1.98c-0.61-1.29-1.35-2.53-2.19-3.69
	c-0.84-1.16-1.78-2.27-2.85-3.28c-1.07-1-2.28-1.91-3.7-2.52c-0.35-0.16-0.72-0.29-1.09-0.4c-0.15-0.04-0.31-0.08-0.46-0.12
	c0.33-0.04,0.66-0.1,1-0.17c1.1-0.24,2.27-0.37,3.44-0.53l3.51-0.51c1.17-0.19,2.34-0.4,3.5-0.62c1.16-0.24,2.33-0.5,3.49-0.78
	c2.31-0.61,4.62-1.29,6.86-2.41l1.36-0.68l-1.29-0.77C123.88,34.55,120.86,33.82,117.9,33.45z M22.25,42.15
	c0.6-0.36,1.18-0.73,1.75-1.05c0.58-0.32,1.2-0.4,1.62-0.65c0.38-0.2,0.73-0.4,1.35-0.51c0.39,0.5,0.78,1,1.19,1.48
	c0.51,0.6,1.03,1.18,1.59,1.75c0.49,0.5,1.01,0.99,1.59,1.42c-1.89,0.01-3.77-0.18-5.61-0.45c-0.97-0.16-1.93-0.32-2.86-0.57
	c-0.68-0.17-1.39-0.42-2.14-0.63C21.26,42.72,21.75,42.43,22.25,42.15z M23.86,54.39c-0.37,0.51-0.68,1.03-0.99,1.54
	c-0.31,0.52-0.59,1.06-0.85,1.55c-0.27,0.49-0.51,0.86-0.87,1.2c-0.36,0.35-0.82,0.69-1.28,1.02c-0.93,0.68-1.84,1.4-2.84,2
	c-0.99,0.59-2.1,1.03-3.24,1.12c-0.57,0.04-1.14,0.02-1.71-0.09c-0.18-0.03-0.36-0.08-0.54-0.12c0.05-0.14,0.09-0.27,0.12-0.4
	c0.1-0.45,0.15-0.85,0.19-1.25c0.08-0.78,0.16-1.51,0.32-2.24l0.03-0.14l-0.01-0.08c-0.04-0.41,0.07-0.85,0.32-1.29
	c0.25-0.44,0.6-0.87,1.01-1.27c0.21-0.22,0.44-0.43,0.68-0.64c1.15-0.35,2.26-0.84,3.32-1.41c1.15-0.66,2.24-1.41,3.23-2.32
	c0.46-0.44,0.84-0.89,1.19-1.3c0.66,0.29,1.36,0.43,2.06,0.48c1.01,0.07,1.96-0.33,2.89-0.65c0.93-0.32,1.82-0.73,2.65-1.22
	c0.2-0.12,0.39-0.26,0.59-0.39c-0.34,0.31-0.68,0.63-1.01,0.94c-0.86,0.81-1.72,1.61-2.58,2.37c-0.22,0.19-0.43,0.38-0.65,0.55
	c-0.23,0.19-0.38,0.28-0.71,0.54C24.64,53.37,24.22,53.88,23.86,54.39z M45.83,52.62c1.27,2.21,2.66,4.45,3.01,6.91
	c0.3,2.06-0.08,4.05-1.01,5.77c-0.08-0.08-0.17-0.16-0.27-0.25c-0.17-0.14-0.38-0.3-0.62-0.4c-0.47-0.22-0.93-0.28-1.33-0.3
	c-0.2-0.01-0.39,0-0.58,0.01c-0.16,0.01-0.41,0.04-0.47,0.02c-0.38,0.02-0.97-0.1-1.52-0.3c-0.56-0.19-1.13-0.41-1.68-0.68
	c-1.11-0.54-2.2-1.17-3.22-1.9c-0.75-0.53-1.46-1.12-2.1-1.8c0.01-0.11,0.02-0.22,0.03-0.34c0.02-0.56,0-1.15-0.16-1.75
	c-0.06-0.29-0.2-0.63-0.31-0.9c-0.11-0.24-0.24-0.47-0.36-0.7c-0.24-0.45-0.5-0.9-0.66-1.26c-0.16-0.37-0.21-0.59-0.13-0.98
	c0.02-0.09,0.05-0.2,0.08-0.3l0.05-0.16l0.06-0.2c0.11-0.33,0.16-0.7,0.11-1.02c-0.06-0.65-0.33-1.17-0.6-1.63
	c-0.27-0.46-0.58-0.87-0.87-1.27c-0.28-0.41-0.57-0.8-0.68-1.27l0-0.01c-0.01-0.04-0.04-0.07-0.08-0.07c-0.05,0-0.1,0.03-0.1,0.08
	c-0.05,0.55,0.14,1.08,0.32,1.56c0.19,0.48,0.39,0.94,0.55,1.39c0.16,0.45,0.26,0.9,0.23,1.25c0,0.18-0.07,0.33-0.14,0.46
	c-0.01,0.02-0.04,0.08-0.08,0.15l-0.1,0.19c-0.06,0.13-0.12,0.27-0.17,0.41c-0.11,0.29-0.18,0.63-0.19,0.98
	c0,0.35,0.06,0.7,0.15,0.99c0.19,0.58,0.41,1.03,0.6,1.48l0.27,0.68c0.07,0.21,0.12,0.33,0.15,0.54c0.07,0.37,0.08,0.81,0.05,1.25
	c-0.04,0.89-0.25,1.83-0.46,2.76c-0.11,0.47-0.24,0.94-0.38,1.41l-0.21,0.71l-0.11,0.36c-0.04,0.09-0.03,0.08-0.06,0.14
	c-0.11,0.19-0.44,0.45-0.81,0.65c-0.37,0.21-0.81,0.36-1.25,0.51c-0.89,0.28-1.84,0.47-2.78,0.48l-0.35-0.01
	c-0.12,0-0.19-0.03-0.29-0.04c-0.19-0.05-0.39-0.13-0.57-0.25c-0.37-0.24-0.71-0.58-0.98-0.97c-0.57-0.78-0.95-1.71-1.19-2.66
	c-0.23-0.95-0.32-1.95-0.21-2.89c0.13-0.89,0.5-1.77,0.93-2.61c0.87-1.67,1.9-3.36,3.2-4.67c0.16-0.16,0.34-0.31,0.5-0.45l0.26-0.2
	l0.35-0.25c0.45-0.34,0.84-0.75,1.16-1.19c0.64-0.88,1.05-1.88,1.21-2.91c0.01-0.04-0.01-0.08-0.05-0.1
	c-0.03-0.02-0.07-0.01-0.1,0.01c-0.01-0.02-0.02-0.03-0.04-0.04c0-0.02,0.01-0.05-0.01-0.06c-0.04-0.04-0.1-0.04-0.13,0l-0.01,0.01
	c-0.05,0.05-0.09,0.09-0.14,0.13c-0.8,0.33-1.59,0.66-2.4,0.89c-0.87,0.27-1.75,0.48-2.63,0.62c-0.89,0.14-1.78,0.04-2.64,0.23
	c-0.25,0.04-0.51,0.1-0.77,0.16c0.06-0.05,0.12-0.1,0.18-0.15c0.44-0.34,0.92-0.64,1.46-0.87c0.51-0.22,1.15-0.4,1.74-0.63
	c1.19-0.45,2.37-0.94,3.49-1.54c0.04-0.02,0.06-0.07,0.05-0.11c-0.01-0.05-0.07-0.08-0.12-0.07c-1.23,0.29-2.46,0.55-3.68,0.78
	c-0.62,0.12-1.21,0.19-1.89,0.38c-0.66,0.18-1.31,0.45-1.9,0.83c-0.59,0.37-1.12,0.83-1.59,1.29c-0.47,0.47-0.86,0.89-1.3,1.24
	c-0.92,0.73-1.92,1.39-2.98,1.93c-1.05,0.57-2.15,1.03-3.28,1.41c-1.16,0.37-2.24,0.66-3.36,0.6c-1.97-0.07-3.9-0.99-5.54-2.35
	c0.32-0.11,0.62-0.25,0.91-0.42c0.58-0.32,1.07-0.75,1.51-1.21c0.87-0.91,1.49-2,2.15-2.97c1.55-1.19,3.36-2.05,5.19-2.51
	c1.85-0.46,3.65-0.63,5.51-0.36c0.46,0.07,0.93,0.14,1.41,0.25c0.46,0.09,0.99,0.24,1.49,0.31c1.01,0.17,2.03,0.29,3.04,0.32
	c2.02,0.08,4.05,0,6.02-0.44c0.04-0.01,0.08-0.05,0.07-0.1c0-0.03-0.01-0.05-0.03-0.07l0,0c-0.8-1.33-1.52-2.7-2.3-4.04
	c-0.77-1.34-1.56-2.67-2.39-3.97l-0.31-0.49c-0.07-0.12-0.14-0.23-0.19-0.35c-0.1-0.24-0.17-0.48-0.19-0.77
	c-0.04-0.57,0.1-1.25,0.3-1.96c0.2-0.71,0.46-1.46,0.65-2.24c0.09-0.35,0.15-0.7,0.21-1.06c0.26,0.26,0.54,0.5,0.8,0.74
	c0.63,0.54,1.28,1.03,1.91,1.54c0.61,0.53,1.3,1.04,1.79,1.59c0.51,0.57,0.92,1.2,1.29,1.85c0.36,0.65,0.69,1.32,0.94,2
	c0.24,0.66,0.43,1.43,0.37,1.92c-0.01,0.05-0.02,0.1-0.03,0.13c-0.01,0.02,0,0.01-0.02,0.06l-0.08,0.14
	c-0.11,0.19-0.2,0.39-0.29,0.59c-0.18,0.4-0.32,0.81-0.42,1.23c-0.21,0.83-0.27,1.7-0.13,2.53c0,0.01,0.01,0.01,0.02,0.02
	c-0.02,0.02-0.04,0.05-0.03,0.09c0.01,0.05,0.06,0.08,0.11,0.07c2.22-0.46,4.32-1.43,6.22-2.67l0.35-0.23
	c0.08-0.05,0.17-0.1,0.26-0.14c0.19-0.09,0.41-0.16,0.64-0.22c0.46-0.11,0.96-0.19,1.47-0.25c1.02-0.12,2.08-0.17,3.14-0.1
	c0.53,0.04,1.06,0.12,1.56,0.26c0.13,0.03,0.25,0.08,0.37,0.13l0.42,0.15c0.29,0.08,0.57,0.15,0.87,0.2
	c1.18,0.2,2.35-0.11,3.39-0.15c0.54-0.02,0.93,0.09,1.35,0.37c0.42,0.27,0.82,0.62,1.22,0.98c0.41,0.36,0.81,0.74,1.27,1.1
	c0.17,0.14,0.35,0.27,0.54,0.41c-0.22,0.27-0.43,0.53-0.64,0.77c-0.41,0.49-0.82,0.88-1.28,1.21c-0.9,0.66-2.05,1.04-3.28,1.3
	c-2.21,0.44-4.48,0.73-6.8,0.97c-0.01-0.02-0.02-0.04-0.04-0.06l-0.35-0.48c-0.28-0.27-0.55-0.55-0.87-0.74
	c-0.62-0.43-1.29-0.68-1.94-0.88c-2.65-0.77-5.23-0.6-7.78-0.55h0c-0.04,0-0.07,0.03-0.09,0.06c-0.02,0.05,0.01,0.1,0.06,0.12
	c2.47,0.86,5.07,1.07,7.3,1.9c0.55,0.2,1.07,0.45,1.51,0.75c0.23,0.14,0.41,0.31,0.6,0.48l0.24,0.27c0.08,0.08,0.18,0.24,0.27,0.36
	C44.43,50.57,45.19,51.51,45.83,52.62z M14.6,100.13l-0.32,0.8c-0.12,0.34-0.21,0.7-0.24,1.05c-0.06,0.6-0.01,1.16,0.08,1.69
	c-1.21,0.95-2.45,1.8-3.75,2.52c-0.77,0.43-1.55,0.83-2.35,1.21c-0.09,0.04-0.17,0.08-0.26,0.12c0.09-0.36,0.18-0.73,0.26-1.08
	l0.73-3.35c0.24-1.11,0.53-2.21,0.96-3.26c0.44-1.04,1-2.06,1.74-2.9c0.75-0.84,1.69-1.49,2.61-2.11l1.94-1.27
	c0.02,0,0.03-0.01,0.05-0.01c1.09-0.27,2.02-0.77,2.91-1.28c0.72-0.44,1.39-0.93,2.04-1.44c-0.08,0.15-0.17,0.3-0.25,0.46
	c-0.15,0.12-0.3,0.24-0.45,0.36c-0.43,0.33-0.89,0.77-1.28,1.19c-0.4,0.43-0.75,0.89-1.1,1.35C16.59,96.03,15.46,98.01,14.6,100.13z
	 M23.27,101.25c-0.05,0.45-0.11,0.9-0.21,1.3l-0.08,0.29l-0.11,0.28c-0.09,0.24-0.19,0.48-0.28,0.72c-0.35,0.96-0.58,1.93-0.83,2.89
	c-0.44,1.74-0.91,3.5-1.77,5.01c-1.29-1.56-2.24-3.41-3.06-5.21c-0.42-0.97-0.79-1.97-0.93-2.94c-0.08-0.48-0.09-0.95-0.02-1.36
	c0.03-0.21,0.09-0.39,0.15-0.57l0.31-0.75c0.86-1.98,1.76-3.98,2.82-5.87c0.18-0.32,0.37-0.62,0.56-0.93
	c1.05-1.33,2.11-2.62,3.19-3.87l0.3,5.31c0.04,0.97,0.08,1.93,0.08,2.88C23.41,99.39,23.37,100.34,23.27,101.25z M29.35,91.74
	c0.99,0.43,1.95,0.91,2.87,1.41c0.92,0.5,1.85,1,2.63,1.67c0.39,0.33,0.75,0.7,1.02,1.13c0.27,0.43,0.42,0.91,0.55,1.45
	c0.24,1.06,0.26,2.16,0.14,3.24c-0.13,1.08-0.4,2.13-0.68,3.19c-0.14,0.53-0.27,1.07-0.38,1.63c-0.03,0.18-0.06,0.36-0.09,0.54
	c-0.66-0.23-1.33-0.49-1.99-0.74l-3.08-1.19c-1.02-0.42-2.04-0.84-3.05-1.31c-0.5-0.24-1-0.47-1.47-0.74
	c-0.3-0.17-0.59-0.35-0.86-0.55c0-0.01,0-0.02,0.01-0.03c0.21-2.08,0.01-4.06-0.29-6.03c-0.31-1.86-0.74-3.69-1.39-5.46
	c0.14-0.16,0.28-0.32,0.42-0.47C25.62,90.19,27.52,90.94,29.35,91.74z M22.09,89.04c-0.32,0.18-0.63,0.36-0.95,0.54
	c-0.07,0.01-0.13,0.03-0.2,0.04c-0.58,0.13-1.15,0.28-1.71,0.49c-0.56,0.19-1.11,0.41-1.65,0.66l-0.8,0.38L16,91.57
	c-0.25,0.14-0.49,0.29-0.74,0.45l-0.21,0.03c-0.21-0.01-0.36,0.01-0.62-0.01c-0.53-0.04-1.05-0.05-1.56-0.02
	c-2.06,0.07-4.02,0.6-5.96,0.79c-0.48,0.05-0.97,0.04-1.4-0.03c-0.47-0.1-1.01-0.22-1.51-0.27c-0.7-0.08-1.4-0.11-2.1-0.12
	c0.7-0.53,1.47-0.98,2.26-1.4c1.06-0.58,2.17-1.09,3.23-1.95c0.13-0.1,0.26-0.24,0.39-0.36l0.28-0.25c0.21-0.16,0.43-0.33,0.67-0.49
	C9.22,87.6,9.73,87.3,10.24,87c1.02-0.61,2.07-1.16,3.12-1.72c1.06-0.53,2.12-1.06,3.18-1.49c0.52-0.19,1.08-0.41,1.5-0.45
	c0.51-0.06,1.1-0.05,1.64,0c1.09,0.11,2.16,0.45,2.98,1.15c0.2,0.17,0.39,0.37,0.55,0.59c0.17,0.23,0.34,0.48,0.48,0.73
	c0.12,0.2,0.23,0.41,0.33,0.63C23.33,87.27,22.68,88.14,22.09,89.04z M43.05,86.92c0.23,0.38,0.42,0.84,0.45,1.32
	c0.04,0.49-0.09,0.99-0.35,1.41c-0.26,0.42-0.66,0.76-1.12,0.93c-0.45,0.19-0.95,0.21-1.39,0.17c-0.9-0.11-1.64-0.33-2.41-0.67
	c-0.76-0.33-1.6-0.9-1.91-1.83c-0.32-0.9-0.06-1.96,0.57-2.59c0.63-0.65,1.43-0.96,2.21-1.04c0.8-0.07,1.57,0.18,2.25,0.57
	c0.34,0.2,0.65,0.45,0.93,0.74C42.54,86.22,42.82,86.53,43.05,86.92z M52.06,108.98c-1.79,0.67-3.66,0.85-5.54,0.91
	c-1.01,0.03-2.03,0.01-3.04-0.03l-0.69-0.03c0.28-0.3,0.55-0.61,0.81-0.95c0.19-0.25,0.38-0.51,0.55-0.78
	c0.09-0.14,0.17-0.27,0.25-0.42l0.2-0.35c0.23-0.38,0.6-0.8,0.98-1.21c0.77-0.82,1.59-1.67,2.44-2.48c0.85-0.81,1.73-1.59,2.63-2.35
	l1.37-1.15c0.41-0.35,0.89-0.58,1.39-0.8c1.01-0.41,2.08-0.73,3.14-1.1c1.65-0.55,3.36-1.01,5.08-1.54
	c-0.61,0.25-1.2,0.53-1.78,0.83c-1.22,0.66-2.39,1.43-3.45,2.34c-1.06,0.91-2.07,1.94-2.81,3.17c-0.75,1.22-1.26,2.61-1.44,4.03
	C52.05,107.72,52.05,108.36,52.06,108.98z M61.12,116.52c-0.93,0.8-1.92,1.52-2.92,2.22c-1.02,0.69-2.05,1.35-3.09,2
	c-0.64,0.39-1.28,0.77-1.93,1.15l-0.1-2.53c-0.07-1.35-0.19-2.71-0.27-4.06c-0.09-1.35-0.14-2.71-0.14-4.06
	c0-0.68,0.01-1.35,0.05-2.03c0.04-0.67,0.12-1.3,0.33-1.92c0.39-1.23,1.09-2.32,1.86-3.33c0.79-1,1.62-1.98,2.57-2.87
	c0.94-0.9,1.95-1.75,3.01-2.55c0.82-0.63,1.67-1.22,2.54-1.79c-0.32,1.21-0.5,2.44-0.66,3.67c-0.17,1.36-0.27,2.72-0.33,4.09
	c-0.08,2.74-0.03,5.5,0.59,8.26c0.13,0.55,0.29,1.11,0.52,1.65C62.55,115.21,61.85,115.88,61.12,116.52z M111.07,4.02
	c0.03-0.22,0.04-0.51,0.07-0.63c0.04-0.15,0.12-0.29,0.24-0.4c0.11-0.11,0.26-0.18,0.41-0.22c0.08-0.02,0.15-0.02,0.23-0.02
	l0.33,0.02l2.67,0.13l2.67,0.13l1.34,0.07l0.67,0.03l0.16,0.01l0.11,0.01c0.07,0.02,0.14,0.03,0.2,0.06
	c0.26,0.11,0.45,0.36,0.51,0.64c0.07,0.28-0.02,0.55-0.21,0.77l-1.08,1.19c-0.33,0.14-0.65,0.26-0.99,0.33
	c-0.83,0.18-1.73,0.3-2.65,0.17c-0.91-0.12-1.82-0.41-2.68-0.8c-0.43-0.19-0.86-0.41-1.26-0.66c-0.2-0.13-0.4-0.26-0.58-0.41
	c-0.07-0.06-0.15-0.13-0.22-0.19C111.05,4.18,111.06,4.1,111.07,4.02z M65.86,32.9c-1.13-0.46-2.16-0.93-3.11-1.6
	c-0.51-0.35-1-0.73-1.47-1.14c0.13-0.02,0.26-0.04,0.38-0.06c0.72-0.13,1.42-0.33,2.09-0.55c1.35-0.44,2.65-1.03,3.92-1.55
	c0.31-0.13,0.64-0.21,0.96-0.3c0.33-0.05,0.66-0.12,1-0.13c0.67-0.07,1.35-0.01,2.02,0.09c1.34,0.21,2.63,0.68,3.9,1.2
	c0.63,0.26,1.27,0.53,1.9,0.82l0.95,0.41l0.48,0.21l0.43,0.2c1.14,0.56,2.24,1.32,3.25,2.19c1.02,0.87,1.98,1.83,2.87,2.86
	c0.45,0.51,0.88,1.04,1.28,1.59c0.29,0.42,0.59,0.85,0.81,1.31c-0.57,0.71-1.15,1.42-1.72,2.14c-2.01-0.42-3.98-0.94-5.87-1.61
	c-0.18-0.13-0.37-0.26-0.53-0.41c-0.3-0.26-0.62-0.54-0.95-0.78c-0.68-0.48-1.43-0.85-2.22-1.13c-0.74-0.25-1.51-0.41-2.29-0.49
	c-0.4-0.19-0.81-0.37-1.21-0.55C70.46,34.6,68.09,33.78,65.86,32.9z M72.45,52.34c-1.17,0.19-2.34,0.48-3.47,0.88
	c-1.14,0.39-2.14,0.87-3.2,1.02c-0.27,0.04-0.54,0.06-0.82,0.07c-0.29,0.01-0.61,0.02-0.91,0.06c-0.6,0.07-1.19,0.15-1.78,0.28
	c-0.58,0.12-1.16,0.25-1.73,0.41c-0.37,0.09-0.73,0.2-1.1,0.31c0.51-1.2,1.3-2.28,2.14-3.31c0.96-1.21,2.05-2.34,2.81-3.91
	c0.1-0.19,0.17-0.41,0.26-0.62l0.19-0.55c0.12-0.36,0.25-0.72,0.39-1.07c0.27-0.71,0.56-1.41,0.87-2.09
	c0.63-1.36,1.32-2.7,2.18-3.81c0.42-0.56,0.89-1.06,1.4-1.39c0.13-0.08,0.26-0.15,0.38-0.21c0.12-0.05,0.25-0.11,0.44-0.16
	c0.34-0.11,0.69-0.2,1.04-0.27c0.43-0.09,0.87-0.14,1.31-0.18c0.83,0.33,1.67,0.67,2.47,1.03c0.52,0.24,1.16,0.54,1.75,0.75
	c0.61,0.21,1.22,0.41,1.83,0.56c2.19,0.55,4.41,0.79,6.63,0.79c-0.62,0.77-1.24,1.54-1.86,2.31l-6.16,6.53
	c-0.69,0.51-1.4,0.99-2.13,1.42C74.44,51.7,73.46,52.18,72.45,52.34z M42.07,73.1c-0.3,0.33-0.71,0.54-1.1,0.67
	c-0.8,0.26-1.53,0.39-2.33,0.53c-0.78,0.12-1.74,0.19-2.5-0.29c-0.76-0.45-1.19-1.38-1-2.15c0.08-0.39,0.29-0.7,0.52-0.98
	c0.23-0.27,0.51-0.51,0.83-0.7c0.64-0.37,1.4-0.51,2.16-0.54c0.38-0.01,0.76,0.01,1.14,0.08c0.38,0.06,0.77,0.12,1.17,0.25
	c0.39,0.13,0.8,0.33,1.1,0.66c0.31,0.32,0.5,0.77,0.51,1.23C42.57,72.33,42.38,72.78,42.07,73.1z M53.53,80.67
	c0.39,0.06,0.76,0.17,1.12,0.32c0.36,0.15,0.74,0.31,1.1,0.55c0.36,0.24,0.71,0.56,0.93,0.97c0.23,0.41,0.31,0.91,0.23,1.38
	c-0.08,0.47-0.34,0.92-0.7,1.22c-0.35,0.31-0.8,0.48-1.22,0.58c-0.86,0.18-1.61,0.21-2.45,0.19c-0.81-0.03-1.79-0.2-2.44-0.88
	c-0.65-0.66-0.84-1.7-0.5-2.48c0.16-0.4,0.42-0.72,0.7-0.98c0.28-0.26,0.6-0.48,0.95-0.64C51.98,80.59,52.77,80.56,53.53,80.67z
	 M75.45,114.77c-0.15,1.44-0.62,2.91-1.18,4.34c-0.58,1.43-1.24,2.84-1.99,4.21c-0.68,1.23-1.44,2.44-2.32,3.54
	c-0.63-0.98-1.15-2.05-1.59-3.15c-0.51-1.25-0.94-2.53-1.36-3.82c-0.43-1.29-0.86-2.6-1.4-3.87c-0.25-0.63-0.62-1.3-0.82-1.81
	c-0.22-0.57-0.38-1.18-0.52-1.81c-0.54-2.53-0.73-5.22-0.86-7.89c-0.1-2.63-0.18-5.28-0.1-7.93c0.05-0.03,0.11-0.07,0.16-0.1
	c1.36,0.65,2.58,1.55,3.66,2.55c0.57,0.53,1.08,1.07,1.55,1.68c0.46,0.61,0.92,1.24,1.34,1.88c1.7,2.6,3.19,5.37,4.55,8.17
	c0.17,0.35,0.33,0.7,0.49,1.06c0.09,0.19,0.12,0.31,0.19,0.46c0.04,0.15,0.1,0.3,0.13,0.46C75.51,113.35,75.53,114.06,75.45,114.77z
	 M63.74,96.29C63.74,96.29,63.74,96.29,63.74,96.29c0.03,0,0.05,0.01,0.08,0.02C63.79,96.3,63.76,96.3,63.74,96.29z M80.97,104.87
	c0.58,0.57,1.09,1.19,1.53,1.88c0.45,0.68,0.86,1.39,1.24,2.12c0.74,1.46,1.29,3,1.76,4.56l1.36,4.73c0.23,0.79,0.47,1.6,0.75,2.41
	c-0.4-0.17-0.8-0.34-1.19-0.51c-1.15-0.51-2.29-1.04-3.39-1.63c-1.11-0.59-2.18-1.23-3.23-1.94c-0.83-0.57-1.64-1.18-2.44-1.83
	c0.08-0.74,0.09-1.52-0.05-2.31c-0.04-0.23-0.11-0.46-0.17-0.69c-0.08-0.22-0.17-0.48-0.25-0.65c-0.17-0.37-0.33-0.74-0.51-1.1
	c-1.4-2.92-3.09-5.67-5.09-8.23c-0.51-0.63-1.04-1.26-1.62-1.84c-0.58-0.58-1.23-1.14-1.9-1.6c-0.67-0.47-1.38-0.88-2.12-1.23
	c-0.44-0.2-0.89-0.38-1.34-0.53c1.35,0.41,2.67,0.93,3.97,1.44c0.76,0.3,1.51,0.62,2.25,0.94c0.74,0.33,1.48,0.67,2.21,1.01
	c0.73,0.37,1.46,0.73,2.19,1.11c0.06,0.37,0.09,0.71,0.04,0.95l-0.28,1.48l1.51-0.46c0.48-0.15,0.95-0.32,1.4-0.51
	C78.8,103.11,79.97,103.88,80.97,104.87z M91.11,76.55c0.79-0.3,1.58-0.66,2.29-1.21c0.17-0.13,0.35-0.32,0.5-0.44
	c0.14-0.12,0.28-0.24,0.44-0.33c0.31-0.2,0.63-0.37,0.98-0.48c0.69-0.24,1.44-0.31,2.19-0.31c0.75,0.03,1.51,0.14,2.25,0.34
	c0.37,0.1,0.74,0.22,1.07,0.34c0.35,0.13,0.71,0.29,1.07,0.46c1.44,0.7,2.89,1.46,4.32,2.24c1.44,0.78,2.86,1.59,4.24,2.46
	c0.69,0.43,1.38,0.87,2.04,1.32c0.65,0.44,1.36,0.94,1.77,1.44c0.52,0.72,1.14,1.32,1.75,1.9c0.61,0.58,1.22,1.13,1.81,1.72
	c0.82,0.81,1.61,1.67,2.26,2.6c-1.05-0.38-2.12-0.68-3.29-0.79c-0.4-0.04-0.89-0.02-1.2-0.02c-0.35,0-0.72-0.03-1.08-0.04
	c-0.73-0.04-1.48-0.13-2.21-0.24c-0.74-0.1-1.48-0.22-2.21-0.38c-0.74-0.14-1.47-0.31-2.19-0.5c-1.46-0.38-2.88-0.87-4.3-1.49
	c-0.03-0.02-0.08-0.01-0.1,0.02c-0.63-0.93-1.33-1.82-2.12-2.62c-1.1-1.14-2.37-2.1-3.73-2.88c-1.35-0.8-2.77-1.48-4.24-2
	c-0.73-0.27-1.49-0.49-2.25-0.67c-0.28-0.06-0.57-0.12-0.85-0.17C90.58,76.73,90.85,76.65,91.11,76.55z M90.9,77.75
	c0.68,0.32,1.35,0.68,2.02,1.03c0.66,0.36,1.32,0.73,1.97,1.1c0.64,0.39,1.28,0.77,1.91,1.17c1.24,0.83,2.46,1.66,3.65,2.56
	c1.19,0.89,2.34,1.87,3.23,3.08c0.88,1.21,1.57,2.6,2.1,4.01c0.54,1.42,0.91,2.89,1.25,4.37l1.02,4.45
	c0.16,0.68,0.33,1.37,0.53,2.06c-0.25-0.13-0.5-0.25-0.75-0.38c-0.99-0.51-1.94-1.07-2.88-1.66c-1.63-1.03-3.13-2.26-4.58-3.61
	c0.07-0.64,0.09-1.3,0.04-1.98c-0.04-0.43-0.12-0.86-0.25-1.29c-0.07-0.23-0.14-0.41-0.2-0.59l-0.2-0.54
	c-1.12-2.85-2.49-5.58-4.16-8.16c-0.83-1.28-1.75-2.56-2.92-3.62c-0.56-0.52-1.12-1.02-1.71-1.5c-0.45-0.37-0.9-0.73-1.37-1.08
	C90.03,77.34,90.46,77.55,90.9,77.75z M88.94,77.43c0.75,0.87,1.55,1.69,2.45,2.41c0.01,0.01,0.03,0.01,0.04,0.01
	c0.16,0.2,0.32,0.39,0.48,0.59c0.92,1.12,1.63,2.4,2.33,3.7c1.36,2.62,2.55,5.36,3.63,8.1l0.2,0.52c0.07,0.18,0.13,0.34,0.17,0.48
	c0.1,0.28,0.15,0.6,0.2,0.91c0.08,0.64,0.07,1.33,0,2.02c-0.14,1.39-0.51,2.81-0.97,4.19c-0.46,1.39-1,2.76-1.61,4.12
	c-0.53,1.17-1.12,2.33-1.81,3.41c-0.53-0.99-0.96-2.06-1.33-3.15c-0.43-1.28-0.8-2.59-1.16-3.92c-0.36-1.32-0.71-2.65-1.18-3.97
	l-0.37-0.97c-0.1-0.28-0.2-0.56-0.27-0.87c-0.15-0.61-0.25-1.25-0.35-1.9c-0.34-2.61-0.42-5.32-0.46-8.01
	C88.91,82.56,88.91,80,88.94,77.43z M88.68,77.2c0.01,0,0.02,0,0.03-0.01c-0.62,2.59-0.94,5.22-1.13,7.87
	c-0.16,2.74-0.23,5.5,0.17,8.29c0.01,0.06,0.02,0.12,0.03,0.18c-0.71,0.78-1.53,1.43-2.37,2.05c-1.02,0.75-2.09,1.43-3.17,2.09
	c-1.08,0.65-2.19,1.27-3.29,1.86c-0.55,0.3-1.11,0.59-1.67,0.85c-0.03,0.01-0.05,0.02-0.08,0.04c-0.23-0.16-0.46-0.32-0.7-0.47
	c-0.03-0.09-0.06-0.18-0.08-0.27c-0.23-0.71-0.5-1.37-0.75-2.03c-0.52-1.31-1.06-2.6-1.42-3.95c-0.37-1.35-0.54-2.75-0.48-4.15
	c0.03-0.7,0.14-1.4,0.3-2.06c0.16-0.65,0.44-1.27,0.81-1.82c0.72-1.12,1.73-2.01,2.79-2.83c1.07-0.81,2.21-1.58,3.42-2.23
	c2.37-1.31,4.91-2.42,7.51-3.45C88.62,77.19,88.65,77.21,88.68,77.2z M83.41,67.44c0.82,2.37,1.86,4.65,3.17,6.77
	c0.61,0.95,1.26,1.87,1.96,2.74c-2.83,0.24-5.59,1.05-8.18,2.26c-1.31,0.65-2.6,1.38-3.74,2.37c-1.13,0.98-2.11,2.2-2.7,3.61
	c-0.29,0.7-0.52,1.44-0.59,2.19c-0.09,0.73-0.11,1.45-0.14,2.17c-0.04,1.44,0.04,2.89,0.2,4.33c0.16,1.44,0.44,2.88,0.81,4.27
	l0.18,0.64c-0.32-0.15-0.64-0.3-0.96-0.44c-1.54-0.68-3.14-1.22-4.77-1.63c-0.81-0.21-1.64-0.37-2.47-0.5
	c-0.83-0.12-1.67-0.22-2.53-0.16c-0.03,0-0.05,0.02-0.07,0.04c-0.01,0-0.02,0.01-0.03,0.01c0.49-0.95,0.88-1.94,1.22-2.95
	c0.39-1.11,0.7-2.25,0.99-3.4c0.53-2.3,0.87-4.65,1.09-7.01c0.2-2.36,0.4-4.74,0.13-7.1c-0.13-1.18-0.34-2.35-0.58-3.51
	c-0.2-0.85-0.45-1.69-0.72-2.53c0.55-0.49,1.09-0.99,1.62-1.49l2.69-2.56c0.03,0.44,0.1,0.88,0.23,1.32
	c0.07,0.25,0.16,0.51,0.26,0.73l0.27,0.65c0.17,0.44,0.35,0.87,0.52,1.3c0.33,0.87,0.72,1.7,1.1,2.55c0.38,0.84,0.7,1.74,0.64,2.63
	l-0.07,0.95l0.59-0.7c0.63-0.75,1.29-1.47,1.95-2.23c0.65-0.75,1.31-1.57,1.78-2.48c0.24-0.45,0.44-0.91,0.63-1.37
	c0.14-0.35,0.38-0.75,0.63-1.15c0.49-0.82,1.02-1.64,1.49-2.5c0.75-1.34,1.4-2.76,1.91-4.24C82.11,63.22,82.76,65.35,83.41,67.44z
	 M73.64,71.79c-0.12-1.01-0.41-1.98-0.83-2.87c-0.21-0.45-0.43-0.89-0.68-1.31l-0.38-0.63c-0.12-0.2-0.24-0.37-0.35-0.57
	c-0.27-0.47-0.49-0.97-0.7-1.5l0.5-0.47c2.58-2.47,5.14-4.96,7.69-7.46c1.22-1.19,2.42-2.4,3.62-3.61
	c-0.21,0.88-0.37,1.78-0.49,2.68c-0.3,1.1-0.71,2.16-1.16,3.2c-0.76,1.72-1.69,3.37-2.6,5.06c-0.46,0.84-0.9,1.69-1.36,2.58
	c-0.22,0.45-0.46,0.9-0.64,1.47l-0.41,1.35c-0.27,0.88-0.58,1.77-1.03,2.61c-0.31,0.57-0.68,1.11-1.1,1.61
	C73.75,73.2,73.72,72.49,73.64,71.79z M77.57,55.69c-2.48,2.56-4.98,5.1-7.49,7.63l-3.78,3.78c-0.63,0.62-1.27,1.26-1.9,1.86
	c-0.6,0.58-1.31,1.08-2.02,1.55c-2.93,1.82-6.38,2.84-9.86,3.31c-3.4,0.5-6.87,0.44-10.31,0.14c0.3-0.57,0.46-1.18,0.51-1.76
	c1.07,0.29,2.18,0.37,3.28,0.38c1.11,0.02,2.21-0.06,3.32-0.18c2.2-0.26,4.39-0.7,6.49-1.45c2.1-0.74,4.15-1.72,5.97-3.09
	c0.43-0.37,0.89-0.73,1.3-1.1l1.2-1.14c0.79-0.76,1.59-1.52,2.36-2.3c3.11-3.11,6.18-6.25,9.21-9.42c3.04-3.16,6.06-6.35,9.03-9.58
	l0.03-0.03l0.02-0.02c4.33-5.67,8.57-11.41,12.85-17.11l0.8-1.07c0.26-0.35,0.54-0.68,0.83-1.02l1.75-2.03
	c0.58-0.69,1.14-1.39,1.67-2.12c0.53-0.73,0.99-1.51,1.47-2.26c0.95-1.52,1.85-3.06,2.72-4.63c0.87-1.56,1.7-3.16,2.42-4.8
	c0.65-1.51,1.24-3.06,1.54-4.72c0.04,0.04,0.07,0.09,0.11,0.13c0.17,0.18,0.35,0.35,0.54,0.51c0.38,0.31,0.79,0.6,1.21,0.85
	c0.85,0.5,1.77,0.9,2.76,1.14c0.78,0.19,1.65,0.32,2.48,0.17c-2.19,2.43-4.38,4.86-6.55,7.3l-7.1,8c-4.8,5.32-9.11,11.1-13.19,16.96
	l-3.05,4.39c-0.51,0.71-1.03,1.46-1.53,2.1c-0.55,0.65-1.13,1.31-1.73,1.96C82.55,50.59,80.05,53.13,77.57,55.69z M95.94,49.89
	c0.71,0.91,1.43,1.83,2.08,2.8c1.35,1.92,2.5,4.03,3.3,6.27c0.72,1.96,1.19,4.01,1.53,6.08c-0.84-0.24-1.69-0.53-2.53-0.83
	c-1.09-0.39-2.17-0.8-3.23-1.25C94.96,62.07,92.92,61,91,59.81c-0.25-0.14-0.47-0.31-0.71-0.47l-0.7-0.47
	c-0.44-0.34-0.92-0.65-1.32-1.03c-0.85-0.71-1.68-1.5-2.4-2.33c-0.72-0.84-1.34-1.75-1.63-2.76c-0.1-0.33-0.14-0.67-0.15-1.02
	c0.77-0.8,1.55-1.59,2.32-2.39c0.61-0.66,1.23-1.32,1.83-2.03c0.44-0.53,0.81-1.05,1.17-1.57c0.48-0.04,0.96,0,1.42,0.11
	c1.03,0.26,1.97,0.85,2.81,1.57C94.47,48.13,95.21,49,95.94,49.89z M105.44,44.99c2.3,1.01,4.32,2.89,6,4.98
	c0.85,1.05,1.64,2.16,2.37,3.3c0.36,0.57,0.71,1.16,1.01,1.77c0.22,0.43,0.43,0.89,0.58,1.33c-1-0.07-2.01-0.34-2.96-0.75
	c-1.14-0.48-2.21-1.11-3.23-1.83c-1.02-0.71-1.98-1.51-2.93-2.33l-1.41-1.24c-0.48-0.41-1-0.86-1.54-1.21
	c-1.08-0.74-2.22-1.34-3.4-1.84c-0.59-0.26-1.18-0.5-1.77-0.73c-0.6-0.22-1.2-0.42-1.81-0.62c-1.22-0.38-2.45-0.71-3.7-0.94
	c-0.63-0.13-1.26-0.21-1.9-0.28c-0.18-0.01-0.35-0.03-0.53-0.04l0.81-1.17c0.14-0.02,0.28-0.04,0.42-0.05
	c0.68-0.05,1.37-0.08,2.05-0.09c1.37-0.01,2.73,0.08,4.09,0.22c1.36,0.15,2.71,0.34,4.05,0.59c0.67,0.12,1.34,0.25,2,0.4
	c0.35,0.07,0.63,0.15,0.93,0.23C104.86,44.77,105.15,44.87,105.44,44.99z M119.16,38.09c-1.14,0.26-2.28,0.51-3.42,0.75
	c-1.14,0.26-2.29,0.5-3.44,0.73l-3.46,0.74l-1.74,0.4l-0.88,0.22c-0.29,0.08-0.65,0.2-0.87,0.28c-1.05,0.34-2.22,0.57-3.36,0.8
	c-0.18,0.04-0.36,0.07-0.55,0.1c-1.25-0.14-2.51-0.22-3.77-0.22c-1.42,0-2.85,0.09-4.26,0.32c-0.62,0.1-1.25,0.24-1.86,0.41
	l1.35-1.95c0.83-1.2,1.66-2.39,2.5-3.57c0.37-0.25,0.74-0.49,1.11-0.7c0.62-0.34,1.24-0.64,1.88-0.9c0.66-0.22,1.31-0.46,2-0.6
	c2.7-0.61,5.68-1.01,8.61-1.25c2.93-0.21,5.9-0.06,8.76,0.58c2.29,0.52,4.47,1.35,6.46,2.46C122.6,37.27,120.88,37.7,119.16,38.09z"
	/>
</svg>
