<?xml version="1.0" encoding="utf-8"?>
<!-- Generator: Adobe Illustrator 18.1.0, SVG Export Plug-In . SVG Version: 6.00 Build 0)  -->
<svg version="1.1" baseProfile="tiny" id="Layer_1" xmlns="http://www.w3.org/2000/svg" xmlns:xlink="http://www.w3.org/1999/xlink"
	 x="0px" y="0px" viewBox="0 0 128 128" xml:space="preserve">
<g>
	<path fill="#2D2D2D" d="M100.9,54.4c0.7,1.9,2.5,3.1,4.6,3.1h8.3c2.1,0,3.8-1.7,3.8-3.9V40.3c0-7.5-6.1-13.7-13.6-13.7h-9.3
		c-1.1,0-2.1,0.5-2.7,1.5c-0.6,0.9-0.7,2.1-0.3,3.1L100.9,54.4z M93.6,29.2c0.3-0.4,0.7-0.6,1.1-0.6h9.3c6.4,0,11.7,5.2,11.7,11.7
		v13.4c0,1-0.8,1.9-1.9,1.9h-8.3c-1.2,0-2.3-0.7-2.7-1.9l-9.3-23.2C93.3,30,93.3,29.5,93.6,29.2z"/>
	<path fill="#2D2D2D" d="M128,96.8V36.2c0-11.7-9.5-21.2-21.1-21.2H91.1v-3.6c0-0.1,0-0.1,0-0.2h1.4c0.5,0,1-0.4,1-1V4.4
		C93.4,2,91.4,0,89,0H70.4c-2.4,0-4.4,2-4.4,4.4v5.9c0,0.5,0.4,1,1,1h1.4c0,0.1,0,0.1,0,0.2V15c-4.1,0.1-7.8,2.3-9.9,5.8l-8,13.7
		c-1.3,2.3-2.4,4.1-3.3,6.8c-5.2,2.4-9.2,6.1-8.9,13.9c-0.5,0-1,0.1-1.4,0.2c-0.3,0.1-0.6,0.1-1,0.2c-0.4-2.8-1.7-7.1-5.3-10.8
		c-4.2-4.4-10.5-6.6-18.6-6.7c-0.4,0-0.7,0.2-0.9,0.6c-0.2,0.3-0.1,0.7,0.1,1c2.3,2.9,3.2,6.2,4,9.3c1.2,4.5,2.3,8.9,7.7,11.5
		c-4.6,3.2-9.9,7.9-12,12.5c0,0,0,0,0,0c-2.9,0.7-5.7,1.1-8,1.3c-0.4,0-0.7,0.3-0.8,0.6c-0.1,0.3-0.1,0.7,0.1,1
		c0.3,0.4,0.5,0.9,0.4,1.4c-0.2,1.3-1.6,2.7-2.2,3.2c-0.3,0.3-0.5,0.7-0.3,1.1C0.2,82,0.6,82.2,1,82.2c0,0,0,0,0,0
		c0.1,0,3.1-0.1,7.8-1.1c0.1,1.8,0.8,3.4,2,4.6c3,3.1,9,4,16.7,4.3l-4,21.9c-0.5,3.7,0.8,7.5,3.4,10.5c3.1,3.5,7.6,5.5,12.4,5.6
		c0.1,0,0.1,0,0.2,0c3.3,0,6.4-0.9,9-2.6c1.9,1.7,4.3,2.6,6.8,2.6h62.3c5.6,0,10.2-4.6,10.2-10.2V96.8C128,96.8,128,96.8,128,96.8z
		 M68,4.4C68,3,69.1,2,70.4,2H89c1.3,0,2.4,1.1,2.4,2.4v4.9H68V4.4z M89.2,11.2c0,0.1,0,0.1,0,0.2V15H70.3v-3.6c0-0.1,0-0.1,0-0.2
		H89.2z M52.2,35.5l8-13.7c1.7-3,5-4.8,8.4-4.8h38.3c10.6,0,19.1,8.6,19.1,19.2V96c-3.6,1.1-8.4,1.6-14.5,1.6
		c-4.9,0-12-1.7-17.7-3.1c-3.8-0.9-7.1-1.8-9.3-1.9c-9-0.8-17.8-0.4-31.2,4.2l-0.9-6.4c0.1,0,0.2,0,0.2,0c7.3,0,12.9-0.6,15.8-3.4
		c1.4-1.3,2.1-3.1,2.1-5.3c0.1-6.5-5.8-15.5-13.5-21.1c2.2-1,4.5-2.5,6.5-4.5c5.5-5.5,8.1-14.2,7.9-25.6c0-0.4-0.3-0.8-0.7-0.9
		c-0.4-0.1-0.8,0-1.1,0.4c-3.6,4.9-9.6,6.8-15.4,8.7c-1.6,0.5-3.2,1-4.8,1.6C50.4,38.6,51.2,37.2,52.2,35.5z M37.3,57.3
		c0.4-0.1,0.8-0.1,1.2-0.1c0.1,0.7,0.2,1.4,0.3,2.1c-0.4,0.7-1,1.2-1.5,1.6l-1.1-2.6c0-0.1,0-0.4,0-0.6
		C36.5,57.5,36.9,57.4,37.3,57.3z M25.1,61.4C25.1,61.4,25.1,61.4,25.1,61.4c2,0.6,4.4,1.1,7.3,1.3c0,0.3-0.1,0.6-0.4,1.1
		c-2,3.2-10.4,6.6-18.6,8.7C15.9,68.2,21.1,63.9,25.1,61.4z M4.5,76.1c9.1-1.1,25.7-5.9,29.2-11.4c0.9-1.4,0.8-2.6,0.5-3.4
		c-0.1-0.4-0.5-0.6-0.9-0.6C20,59.9,18.8,54.9,17.1,48.5c-0.7-2.7-1.4-5.6-3.2-8.4c6.6,0.4,11.8,2.4,15.3,6c5.1,5.3,5,12.2,5,12.3
		c0,0.1,0,0.3,0.1,0.4l1.6,4c0.1,0.3,0.3,0.5,0.6,0.6c0.3,0.1,0.6,0.1,0.8-0.1c0.1-0.1,2.2-1.3,3.4-3.3c0.1-0.2,0.2-0.4,0.1-0.7
		C38.2,46,45.7,43.6,55.1,40.5c5.2-1.7,10.6-3.4,14.5-7.3c-0.2,9.6-2.7,16.8-7.4,21.6C56.9,60.2,50,61,46.3,61
		c-1.7,0-2.8-0.2-2.9-0.2c-0.3-0.1-0.6,0.1-0.9,0.3C28,75.6,10.1,79.2,3.5,80c0.5-0.7,0.9-1.5,1-2.5C4.6,77.1,4.6,76.6,4.5,76.1z
		 M10.8,80.6c8.7-2.1,21.7-6.9,32.8-17.8c0.5,0.1,1.5,0.1,2.7,0.1c2.1,0,5.3-0.3,8.7-1.4c8.7,5.7,13.8,14.7,13.8,20.2
		c0,1.7-0.5,2.9-1.5,3.9c-3.2,3.1-11.7,2.9-21.6,2.7c-1.9,0-3.8-0.1-5.8-0.1l-2.9,0c-11.3-0.1-21-0.2-24.6-3.9
		C11.4,83.4,10.9,82.1,10.8,80.6z M39.5,126c-4.2-0.1-8.2-1.8-10.9-4.9c-2.3-2.6-3.3-5.8-3-8.9l4-22.1c2.3,0.1,4.7,0.1,7.3,0.1
		l2.9,0c2,0,3.9,0.1,5.8,0.1c1.7,0,3.4,0.1,5,0.1l3,22.2c0.3,3.2-0.9,6.3-3.3,8.9C47.5,124.4,43.6,126.1,39.5,126z M117.8,126H55.5
		c-1.9,0-3.7-0.7-5.2-1.9c0.5-0.4,1-0.8,1.4-1.3c2.7-2.9,4.1-6.6,3.8-10.4l-1.8-13.6c14.8-5.1,23.7-4.9,30.8-4.3c2,0.2,5.2,1,9,1.9
		c6.1,1.5,12.9,3.2,18.1,3.2c6.1,0,10.7-0.5,14.5-1.5v19.7C126,122.3,122.3,126,117.8,126z"/>
</g>
</svg>
