<?xml version="1.0" encoding="utf-8"?>
<!-- Generator: Adobe Illustrator 24.1.2, SVG Export Plug-In . SVG Version: 6.00 Build 0)  -->
<svg version="1.1" id="Layer_1" xmlns="http://www.w3.org/2000/svg" xmlns:xlink="http://www.w3.org/1999/xlink" x="0px" y="0px"
	 viewBox="0 0 128 128" style="enable-background:new 0 0 128 128;" xml:space="preserve">
<style type="text/css">
	.st0{fill:#2D2D2D;}
</style>
<g>
	<path class="st0" d="M43.2,64.5c-0.1-0.2-0.2-0.5-0.4-0.8c-3.8-0.5-7.9-0.9-12.2-1.2c-2.1-0.1-4.3-0.2-6.4-0.3
		c-2.2,0-4.3,0-6.5,0.1l-1.1,0l-0.3,1c-0.7,2.3-0.8,4.6-0.4,6.9c0.4,2.3,1.4,4.4,2.9,6.1c1.5,1.7,3.2,3.1,5.2,4.1
		c2,0.9,4.1,1.6,6.3,1.7c2.2,0.2,4.5-0.1,6.7-1.1c2.1-0.9,3.9-2.6,5.2-4.5c1.3-1.9,2-4.2,2.2-6.4c0.1-1.1,0-2.3-0.2-3.3
		c-0.1-0.5-0.3-1.1-0.5-1.6C43.4,65,43.3,64.7,43.2,64.5z M42.4,69.9c-0.4,1.9-1.2,3.7-2.4,5.2c-1.2,1.5-2.6,2.8-4.3,3.8
		c-1.6,1-3.5,1.7-5.5,1.9c-2,0.2-4.1-0.3-5.9-1.2c-1.8-0.9-3.3-2.5-4.3-4.2c-1.8-3.1-2.2-6.8-1.3-10.1c1.6,0,3.3,0,4.9,0
		c2,0,4-0.1,6.1-0.3c4.1-0.3,8.3-0.6,12.8-1.2c0,0.2,0,0.4,0.1,0.7l0.1,0.8c0,0.5,0.1,1,0.1,1.5C42.7,68,42.6,69,42.4,69.9z"/>
	<path class="st0" d="M8.1,58.8c1.8,0.6,3.7,0.8,5.5,1c1.8,0.1,3.7,0.3,5.5,0.1c0.1,0,0.3,0,0.4-0.1c1.4,0.1,2.7,0.2,4.1,0.2
		c2.2,0.1,4.4,0.2,6.6,0.2c2.1,0,4.2,0,6.4-0.1c1.6,0.1,3.1,0.2,4.7,0.1c3.7-0.1,7.4-0.5,11.1-1.4c0.1,0,0.1-0.1,0.1-0.1
		c0-0.1,0-0.2-0.1-0.2c-2.8-0.7-5.6-1.1-8.4-1.3c-0.1-0.6-0.2-1.2-0.2-1.9c-0.1-0.5,0-1.1-0.2-1.7c-0.2-0.6-0.5-1.1-0.9-1.5
		c-2.3-2-4.2-4.5-6.1-6.9L36,44.9c-0.2-0.2-0.4-0.4-0.7-0.6c-0.5-0.3-1.2-0.5-1.8-0.4c-0.9,0.1-1.5,0.2-2.2,0.3
		c-1.4,0.1-2.7,0.1-4.2-0.1c-0.1,0-0.5-0.1-0.8,0c-0.3,0-0.6,0.1-0.9,0.2c-0.3,0.1-0.5,0.3-0.8,0.5c-0.1,0.1-0.2,0.2-0.3,0.3
		l-0.2,0.2l-1.5,1.7c-1,1.2-2.1,2.3-3.2,3.3l-1.7,1.5c-0.3,0.2-0.7,0.6-0.9,0.9c-0.2,0.4-0.4,0.8-0.5,1.3l-0.3,3.3
		c-0.9,0-1.7,0.1-2.6,0.2c-1.8,0.2-3.7,0.4-5.5,1c0,0-0.1,0.1-0.1,0.1C7.9,58.7,8,58.7,8.1,58.8z M18.5,52.4l1.7-1.6
		c1.1-1,2.3-2,3.5-2.9l1.8-1.4l0.2-0.2c0.1-0.1,0.1-0.1,0.1-0.1c0.1,0,0.2-0.1,0.3-0.1c0.1,0,0.2,0,0.3,0c0.1,0,0.1,0,0.3,0.1
		c0.7,0.2,1.6,0.4,2.4,0.5c0.8,0.1,1.7,0.1,2.5,0c0.8-0.1,1.7-0.3,2.3-0.5c0.1,0,0.3-0.1,0.4,0c0.1,0,0.1,0,0.3,0.1l0.5,0.3
		c2.5,1.8,5.1,3.5,7.3,5.6c0.4,0.4,0.6,0.8,0.7,1.3c0.1,0.5,0,1,0,1.6c-0.1,0.6-0.1,1.2-0.2,1.8c-0.5,0-1.1-0.1-1.6-0.1
		c-1.6,0-3.1,0-4.7,0.1c-2.1-0.1-4.2-0.2-6.4-0.1c-2.2,0-4.4,0.1-6.6,0.2c-1.4,0-2.7,0.1-4.1,0.2c-0.1,0-0.3,0-0.4-0.1
		c-0.4,0-0.8-0.1-1.3-0.1l-0.1-1l-0.1-1.1c0-0.4-0.1-0.8-0.1-1.1C17.6,53.5,17.9,52.9,18.5,52.4z"/>
	<path class="st0" d="M59.8,98.6c0-0.7,0-1.3,0-2.1c0-0.8-0.2-1.5-0.4-2.2c-0.8-2.9-2.7-5.5-5.2-7.1c-1.3-0.8-2.6-1.4-4.1-1.7
		c-1.4-0.3-3-0.3-4.3-0.3c-5.3,0.1-10.7,0.2-16,0.4c-5.3,0.1-10.7,0.3-16,0.4c-1.3,0-2.7,0-4.1,0.4c-1.3,0.3-2.6,0.9-3.8,1.7
		c-2.3,1.5-4.1,3.9-4.8,6.6c-0.2,0.7-0.3,1.4-0.3,2.1l-0.1,2l-0.2,4l-0.3,8C0,115.9,0,121.2,0,126.5l0,1.3l1.3,0
		c3.4,0,6.8,0,10.2-0.1l1.2,0l0-0.2c1.1,0.1,2.2,0.1,3.2,0.2c2.4,0.1,4.8,0.2,7.1,0.2l7.1,0.1l7.1-0.1c2.4-0.1,4.8-0.1,7.1-0.2
		c0.8,0,1.5-0.1,2.3-0.1l0,0.1l1.2,0c3.4,0.1,6.8,0.2,10.2,0.2l1.4,0l0-1.4c0.1-5.3,0.1-10.7,0.2-16c0-2.7,0-5.3,0-8L59.8,98.6z
		 M56.8,98.6l-0.1,4c-0.1,2.7,0,5.3-0.1,8c0,2.7,0,5.3,0,8l0.1,6.6c-2.5,0-5.1,0.1-7.6,0.2c-0.1-3.8-0.2-7.7-0.4-11.5
		c-0.1-2.1-0.2-4.2-0.3-6.4c-0.1-2.1-0.2-4.2-0.3-6.4c0-0.1-0.1-0.1-0.1-0.1c-0.1,0-0.2,0.1-0.2,0.1c-0.1,2.1-0.3,4.2-0.4,6.4
		c-0.1,2.1-0.2,4.2-0.3,6.4c-0.1,3.9-0.3,7.8-0.4,11.7c-0.8,0-1.5-0.1-2.3-0.1c-2.4-0.1-4.8-0.2-7.1-0.2l-7.1-0.1l-7.1,0.1
		c-2.4,0.1-4.8,0.1-7.1,0.2c-1.1,0-2.2,0.1-3.3,0.2c-0.1-3.9-0.2-7.8-0.3-11.7c-0.1-2.1-0.2-4.2-0.3-6.4c-0.1-2.1-0.2-4.2-0.4-6.4
		c0-0.1-0.1-0.1-0.1-0.1c-0.1,0-0.2,0.1-0.2,0.1c-0.2,2.1-0.3,4.2-0.4,6.4c-0.1,2.1-0.2,4.2-0.3,6.4c-0.2,3.8-0.3,7.7-0.4,11.5
		c-2.6-0.1-5.2-0.1-7.8-0.1c0-4.9,0-9.8-0.2-14.7l-0.3-8l-0.1-4c-0.1-1.4-0.1-2.6,0.2-3.8c0.5-2.5,2.2-4.7,4.3-6.1
		c1.1-0.7,2.3-1.2,3.5-1.5c1.3-0.3,2.5-0.3,3.9-0.3c5.3,0,10.7,0.2,16,0.4c5.3,0.2,10.7,0.3,16,0.4c1.4,0,2.5,0,3.7,0.4
		c1.1,0.3,2.2,0.8,3.2,1.4c1.9,1.3,3.4,3.3,3.9,5.6c0.1,0.6,0.2,1.1,0.2,1.7C56.9,97.2,56.8,97.9,56.8,98.6z"/>
	<path class="st0" d="M109.5,11.3H76.7c-0.8,0-1.5,0.7-1.5,1.5c0,0.8,0.7,1.5,1.5,1.5h32.8c0.8,0,1.5-0.7,1.5-1.5
		C111,12,110.3,11.3,109.5,11.3z"/>
	<path class="st0" d="M109.5,21.4H76.7c-0.8,0-1.5,0.7-1.5,1.5s0.7,1.5,1.5,1.5h32.8c0.8,0,1.5-0.7,1.5-1.5S110.3,21.4,109.5,21.4z"
		/>
	<path class="st0" d="M100.1,32H76.7c-0.8,0-1.5,0.7-1.5,1.5s0.7,1.5,1.5,1.5h23.3c0.8,0,1.5-0.7,1.5-1.5S100.9,32,100.1,32z"/>
	<path class="st0" d="M127.9,31.8l-0.2-5.3l-0.4-10.6l-0.1-2.6c0-0.4,0-0.9-0.1-1.3c0-0.5-0.1-0.9-0.2-1.4c-0.4-1.8-1.2-3.5-2.3-4.9
		c-2.2-2.9-5.8-4.6-9.3-4.5c-8.7,0-17.5-0.3-26.2-0.7l-6.5-0.3L76,0.1l-3.3,0l-1.6,0c-0.6,0-1.2,0-1.8,0.1c-2.4,0.3-4.7,1.4-6.5,3
		c-1.8,1.6-3.1,3.8-3.7,6.1c-0.3,1.2-0.4,2.4-0.4,3.5l0.1,3.3l0.4,13.1l0.1,3.3c0,1.1,0,2.2,0.1,3.3c0.1,1.1,0.4,2.2,0.9,3.3
		c0.5,1,1,2,1.7,2.9c0.7,0.9,1.6,1.6,2.5,2.3c0.9,0.6,2,1.2,3,1.5c1.1,0.3,2.2,0.6,3.4,0.6c0.9,0,1.8,0.1,2.6,0.1L73,60L73,62.4
		l1.8-1.7c2.4-2.3,4.8-4.6,7.3-6.9c2.3-2.2,4.5-4.4,6.8-6.6c6.9,0.1,13.7,0.2,20.6,0.2l5.3,0l0.7,0l0.7,0c0.5,0,1-0.1,1.5-0.2
		c0.5-0.1,1-0.2,1.5-0.4c0.5-0.2,0.9-0.3,1.4-0.5c1.8-0.8,3.4-2.1,4.7-3.6c1.3-1.5,2.1-3.4,2.6-5.3c0.1-0.5,0.2-1,0.2-1.5
		c0-0.5,0-1,0.1-1.5L127.9,31.8z M126.1,13.3l-0.1,2.6l-0.4,10.6l-0.2,5.3l-0.1,2.6c0,0.4,0,0.8-0.1,1.2c-0.1,0.4-0.1,0.8-0.2,1.1
		c-0.4,1.5-1.1,2.9-2.1,4.1c-1,1.2-2.3,2.1-3.7,2.7c-0.3,0.1-0.7,0.3-1.1,0.4c-0.4,0.1-0.7,0.2-1.1,0.2c-0.4,0-0.7,0.1-1.1,0.1
		l-0.6,0l-0.7,0l-5.3,0c-7,0-14.1,0.1-21.1,0.2l-0.6,0l-0.4,0.4c-2.4,2.4-4.7,4.8-7,7.2c-1.8,1.8-3.5,3.7-5.3,5.5l-0.3-11.8l0-0.6
		l-0.6,0c-1.1,0-2.2,0.1-3.3,0.1c-1,0-2.1-0.2-3.1-0.5c-1-0.3-1.9-0.8-2.8-1.3c-0.9-0.6-1.6-1.3-2.3-2.1c-0.7-0.8-1.2-1.7-1.6-2.7
		c-0.4-1-0.6-2-0.8-3c-0.1-1-0.1-2.1,0-3.2l0.1-3.3l0.4-13.1l0.1-3.3c0.1-1,0.2-2,0.5-2.9c0.6-1.9,1.7-3.5,3.2-4.8
		c1.5-1.2,3.3-2.1,5.2-2.3c0.5-0.1,1-0.1,1.4-0.1l1.6,0l3.3,0l6.5-0.2l6.5-0.3c8.7-0.4,17.5-0.7,26.2-0.7c3.5,0,6.9,1.8,8.9,4.6
		c1,1.4,1.6,3,1.9,4.7C126.1,11.6,126.1,12.4,126.1,13.3z"/>
</g>
</svg>
