<?xml version="1.0" encoding="utf-8"?>
<!-- Generator: Adobe Illustrator 24.1.2, SVG Export Plug-In . SVG Version: 6.00 Build 0)  -->
<svg version="1.1" id="Layer_1" xmlns="http://www.w3.org/2000/svg" xmlns:xlink="http://www.w3.org/1999/xlink" x="0px" y="0px"
	 viewBox="0 0 128 128" style="enable-background:new 0 0 128 128;" xml:space="preserve">
<style type="text/css">
	.st0{fill:#E5B693;}
	.st1{fill:#2D2D2D;}
</style>
<g>
	<polygon class="st0" points="80.85,126.73 84.16,126.73 82.11,124.48 79.79,125.54 	"/>
	<path class="st0" d="M28.88,122.37c0,0-2.26-2.65-2.21-2.85c-0.48,0.18-0.96,0.36-1.44,0.55c-0.43,0.16-0.84,0.34-1.26,0.52
		l1.6,1.78H28.88z"/>
	<polygon class="st0" points="17.35,125.38 15.44,123.29 12.5,123.66 14.04,125.38 	"/>
	<path class="st0" d="M68.21,118.45l1.67,1.86h3.31l-1.81-1.98C70.33,118.4,69.27,118.43,68.21,118.45z"/>
	<path class="st1" d="M23.97,120.59l1.6,1.78h3.31c0,0-2.26-2.65-2.21-2.85c-0.48,0.18-0.96,0.36-1.44,0.55
		C24.81,120.23,24.39,120.41,23.97,120.59z"/>
	<polygon class="st1" points="14.04,125.38 17.35,125.38 15.44,123.29 12.5,123.66 	"/>
	<polygon class="st1" points="80.85,126.73 84.16,126.73 82.11,124.48 79.79,125.54 	"/>
	<path class="st1" d="M68.21,118.45l1.67,1.86h3.31l-1.81-1.98C70.33,118.4,69.27,118.43,68.21,118.45z"/>
	<g>
		<path class="st1" d="M127.76,124.97c-0.08-0.09-0.17-0.17-0.26-0.25c-0.18-0.15-0.36-0.29-0.55-0.41
			c-0.36-0.26-0.74-0.48-1.02-0.74c-0.14-0.13-0.23-0.27-0.25-0.39c-0.01-0.11,0.01-0.36,0.04-0.55c0.12-0.84,0.3-1.71,0.44-2.58
			c0.14-0.88,0.24-1.77,0.23-2.7c-0.01-0.47-0.04-0.94-0.14-1.42c-0.05-0.25-0.1-0.46-0.14-0.67l-0.15-0.62
			c-0.38-1.67-0.73-3.37-1.05-5.06c-0.31-1.69-0.63-3.39-0.87-5.06c-0.06-0.41-0.12-0.83-0.14-1.23c-0.04-0.38-0.05-0.88-0.09-1.3
			c-0.08-0.88-0.17-1.75-0.26-2.62c-0.38-3.21-0.85-6.41-1.54-9.59c0.02-0.02,0.04-0.05,0.03-0.08c-0.29-1.7-0.99-3.29-1.74-4.82
			c-0.21-0.43-0.44-0.85-0.67-1.26c0.24-1.57,0.07-3.21-0.45-4.74c-0.3-0.89-0.7-1.74-1.24-2.54c-0.27-0.4-0.57-0.78-0.93-1.14
			c-0.36-0.35-0.79-0.69-1.38-0.86l-0.24-0.07l-0.22,0.11c-0.37,0.19-0.64,0.39-0.91,0.64c-0.26,0.25-0.49,0.52-0.69,0.82
			c-0.17,0.27-0.31,0.56-0.41,0.86c-1.12-0.86-2.14-1.86-3.07-2.94c-1.08-1.25-2-2.62-2.96-4.02l-2.85-4.19l-5.72-8.39l-1.2-1.76
			l-0.62,2.03c-0.08,0.25-0.12,0.45-0.17,0.67c0,0.01,0,0.02-0.01,0.03l-1.03-0.85l-1.8-1.49c-1.45-1.17-2.91-2.32-4.49-3.39
			c-0.4-0.27-0.8-0.53-1.23-0.77c-0.22-0.12-0.44-0.24-0.68-0.35c-0.23-0.11-0.54-0.22-0.68-0.28c-0.73-0.3-1.49-0.78-2.23-1.28
			c-1.47-1.02-2.89-2.19-4.24-3.4l-0.65-0.59l-0.44,0.69c-0.23,0.35-0.33,0.62-0.41,0.97c-0.08,0.33-0.1,0.69-0.05,1.04
			c0.01,0.06,0.03,0.11,0.04,0.17c-2.8-0.87-5.62-1.68-8.44-2.45l-5.04-1.33c-1.68-0.43-3.36-0.9-5.09-1.2
			c-3.43-0.65-6.9-0.99-10.37-1.29c-3.47-0.27-6.96-0.37-10.46-0.29c-3.5,0.08-6.99,0.41-10.46,1.08c-1.73,0.35-3.44,0.79-5.13,1.37
			c-0.84,0.28-1.68,0.63-2.48,1.01c-0.4,0.19-0.81,0.37-1.2,0.57l-1.17,0.62c-3.12,1.66-5.98,3.72-8.68,5.94
			c-1.35,1.11-2.65,2.28-3.9,3.5c-1.17,1.14-2.32,2.3-3.39,3.54c0,0-0.01,0-0.02,0.01c-0.44,0.44-0.83,0.93-1.19,1.45
			c-0.36,0.51-0.69,1.06-0.95,1.64c-0.27,0.58-0.48,1.2-0.61,1.85C0,65.25-0.06,65.96,0.09,66.66l0.23,1.1l0.87-0.83
			c0.2-0.19,0.38-0.39,0.55-0.6c0.17-0.22,0.34-0.43,0.49-0.66c0.13-0.19,0.26-0.39,0.38-0.59c-0.05,0.84-0.01,1.69,0.09,2.53
			c0.19,1.62,0.65,3.2,1.26,4.72c0.6,1.52,1.38,2.95,2.23,4.34c0.81,1.31,1.73,2.54,2.69,3.74c0.31,2.86,0.12,5.8-0.75,8.5
			c-0.45,1.37-1.08,2.68-1.92,3.84c-0.84,1.16-1.87,2.18-3.07,3.01l-0.05,0.03L3.1,95.78c-0.31,0.26-0.5,0.61-0.6,0.92
			c-0.1,0.32-0.13,0.61-0.14,0.9c-0.02,0.57,0.05,1.09,0.14,1.6c0.18,1.02,0.49,1.98,0.7,2.91l1.37,5.79l1.33,5.79l0.7,2.89
			c0.12,0.48,0.25,0.96,0.39,1.45c0.07,0.24,0.14,0.48,0.23,0.72c0.1,0.26,0.13,0.46,0.36,0.79l0.07,0.11l0.19,0.02
			c0.35,0.05,0.76,0.25,1.13,0.5c0.37,0.24,0.71,0.54,1.02,0.86c0.15,0.16,0.29,0.33,0.41,0.5c0.12,0.18,0.17,0.29,0.26,0.53
			c0.15,0.42,0.3,1.77,0.47,1.96l2.37,2.63h6.76l-3.25-3.56l0,0l-0.82-0.93c-0.85-0.97-1.68-1.99-2.44-3.02
			c-0.38-0.52-0.74-1.05-1.04-1.58c-0.15-0.26-0.28-0.53-0.37-0.78c-0.05-0.13-0.07-0.22-0.09-0.34L12.16,116
			c-0.32-2.57-0.6-5.21-0.79-7.81c-0.04-0.65-0.08-1.3-0.09-1.92c0.01-0.13,0-0.32,0.01-0.4c0-0.06,0.02-0.18,0.06-0.32
			c0.07-0.26,0.18-0.55,0.29-0.82c0.4-0.94,0.96-1.85,1.62-2.53c0.25,0.64,0.45,1.29,0.59,1.93c0.07,0.34,0.11,0.68,0.11,1
			l-0.01,0.23l0.01,0.35c0.03,0.22,0.06,0.43,0.11,0.62c0.43,1.52,1.13,2.82,1.82,4.12l1.04,1.9c0.09,0.17,0.13,0.26,0.21,0.44
			l0.21,0.5l0.44,1c0.6,1.32,1.25,2.62,1.95,3.91l0.27,0.5l0.44-0.15l1.26-0.43c0.21,0.35,0.42,0.7,0.62,1.06
			c0.15,0.28,2.65,4.45,2.65,4.45h6.76l-4.02-4.4c-0.15-0.16-3.05-5.32-4.22-7.81c-0.56-1.25-1.17-2.51-1.57-3.73l-0.13-0.44
			c-0.02-0.12-0.03-0.22-0.06-0.33c-0.03-0.38-0.06-0.75-0.11-1.1c-0.08-0.71-0.19-1.37-0.22-1.99c-0.04-0.62,0.01-1.19,0.17-1.66
			c0.07-0.24,0.19-0.46,0.33-0.66c0.06-0.11,0.16-0.19,0.24-0.29c0.09-0.1,0.25-0.26,0.37-0.39c0.98-1.08,1.83-2.17,2.67-3.29
			c0.84-1.12,1.65-2.26,2.42-3.43c0.39-0.58,0.77-1.17,1.12-1.78c0.31-0.53,0.8-1.35,1.1-2c1.18,0.24,2.33,0.5,3.29,0.74
			c1.19,0.3,2.36,0.65,3.5,1.05c1.13,0.4,2.27,0.86,3.2,1.51l0.15,0.1l0.21,0c2.13,0.01,4.23-0.23,6.31-0.51
			c2.08-0.29,4.16-0.61,6.19-1.09c2.04-0.49,4.04-1.1,6.01-1.8c0.98-0.35,1.96-0.72,2.92-1.12c-0.02,2.03,0.1,4.04,0.28,6.04
			c0.09,1.1,0.23,2.2,0.35,3.3c0.07,0.55,0.14,1.09,0.23,1.63l0.13,0.8l0.15,0.84c0.24,1.16,0.66,2.2,0.99,3.25
			c0.33,1.05,0.64,2.12,0.62,3.18c-0.18,2.14-0.67,4.36-1.07,6.54l-0.13,0.7l0.82,0.06c0.55,0.04,1.1,0.07,1.66,0.1l0.84,2.22
			l0.22,0.59c0,0,0.1,0.33,0.22,0.46l2.37,2.63h4.07c0,0.15,0,0.3,0,0.45l0.01,0.6l0.62-0.13l1.74-0.37
			c0.57,1.23,2.82,3.97,2.82,3.97l1.7,1.9h6.76l-4.44-5.06c0,0-1.35-2.97-1.97-4.54c-0.63-1.59-1.05-3.2-1.15-4.88
			c-0.15-1.71-0.17-3.48-0.2-5.24c-0.03-1.76-0.02-3.53,0.01-5.29c0.01-0.88,0.03-1.76,0.06-2.64c0.03-0.87,0.08-1.78,0.16-2.57
			l0.03-0.22l0.09-0.34l0.16-0.66l0.2-0.9c1.42,0.52,2.82,1.09,4.16,1.76c1.38,0.67,2.74,1.43,3.83,2.41l0.82,0.83
			c0.31,0.28,0.62,0.55,0.95,0.8c0.67,0.49,1.39,0.87,2.13,1.16c0.62,0.24,1.24,0.45,1.85,0.64c0.12,0.04,0.24,0.08,0.37,0.12
			c0.33,0.11,0.66,0.21,0.97,0.33c0.01,0.76,0.07,1.53,0.23,2.29c0.18,0.79,0.4,1.6,0.79,2.34c0.17,0.38,0.43,0.72,0.67,1.06
			c0.29,0.32,0.54,0.65,0.88,0.92l0.48,0.41l0.52,0.36c0.34,0.24,0.68,0.42,1.01,0.65l1.99,1.27c1.24,0.78,2.48,1.57,4,1.99
			c0.54,0.78,1.1,1.53,1.7,2.27c0.66,0.8,1.39,1.54,2.18,2.23c0.79,0.68,1.63,1.33,2.58,1.85c0.47,0.26,0.97,0.49,1.5,0.64
			c0.52,0.14,1.13,0.22,1.65,0.01c0.6,0.67,1.19,1.38,1.63,2.02c0.05,0.1,0.09,0.15,0.16,0.28l0.19,0.37
			c0.13,0.24,0.26,0.49,0.4,0.73c0.29,0.49,0.58,0.92,1,1.43l0.27,0.33l0.45-0.05l1.14-0.12l1.15-0.09c0.77-0.05,1.54-0.1,2.31-0.08
			l0.08,0c0.87-0.11,1.74-0.22,2.63-0.41c0.22-0.05,0.45-0.11,0.68-0.2c0.12-0.05,0.24-0.1,0.36-0.2c0.12-0.08,0.3-0.28,0.28-0.55
			C127.97,125.2,127.85,125.07,127.76,124.97z M114.36,76.51c0.22-0.18,0.45-0.36,0.68-0.52c0.15-0.1,0.32-0.2,0.47-0.29
			c0.53,0.22,1.13,0.71,1.58,1.27c0.54,0.65,0.99,1.4,1.35,2.2c0.56,1.26,0.91,2.64,0.94,4.05c-0.54-0.94-1.13-1.85-1.78-2.72
			c-0.53-0.69-1.08-1.36-1.77-1.97c-0.18-0.15-0.36-0.3-0.58-0.43l-0.56-0.33c-0.33-0.2-0.66-0.41-0.98-0.64
			C113.93,76.9,114.14,76.7,114.36,76.51z M17.35,125.38h-3.31l-1.54-1.71l2.94-0.37L17.35,125.38z M28.88,122.37h-3.31l-1.6-1.78
			c0.42-0.18,0.84-0.36,1.26-0.52c0.48-0.19,0.96-0.37,1.44-0.55C26.62,119.72,28.88,122.37,28.88,122.37z M26.81,93.47l-2.82,3.05
			c-0.94,1.01-1.88,2.04-2.83,2.97l-0.36,0.35c-0.15,0.16-0.31,0.3-0.44,0.49c-0.27,0.35-0.5,0.75-0.65,1.17
			c-0.33,0.84-0.33,1.69-0.3,2.46c0.04,0.77,0.17,1.48,0.29,2.15c0.06,0.34,0.1,0.66,0.14,0.97c0.04,0.23,0.09,0.47,0.14,0.69
			l0.19,0.55c0.56,1.4,1.22,2.61,1.9,3.85c1.31,2.34,2.85,4.52,4.27,6.78c-0.44,0.2-0.89,0.39-1.34,0.57
			c-0.48,0.21-0.96,0.39-1.44,0.57c-0.19-0.41-0.37-0.83-0.56-1.25c-0.22-0.5-0.42-1.01-0.64-1.52l-0.13-0.32l-0.41,0.07l-1.11,0.18
			c-0.42-1.24-0.87-2.47-1.37-3.67l-0.43-1.01l-0.23-0.5c-0.06-0.15-0.19-0.39-0.28-0.54c-0.39-0.66-0.76-1.27-1.15-1.89
			c-0.39-0.61-0.77-1.22-1.13-1.84c-0.37-0.61-0.72-1.23-0.99-1.84c-0.07-0.15-0.12-0.3-0.16-0.43l-0.04-0.19l-0.04-0.31
			c-0.06-0.41-0.2-0.78-0.35-1.13c-0.29-0.69-0.68-1.3-1.12-1.87c0.06-0.05,0.1-0.11,0.16-0.16c0.1-0.09,0.2-0.16,0.3-0.24
			l0.44-0.32c0.28-0.22,0.55-0.43,0.81-0.65c0.52-0.43,1.03-0.87,1.53-1.31c1-0.88,1.97-1.79,2.92-2.72
			c0.95-0.93,1.89-1.88,2.8-2.86c0.46-0.49,0.91-1,1.34-1.53c0.22-0.28,0.43-0.53,0.64-0.85l0.54-0.82c0.23-0.34,0.5-0.67,0.75-1.01
			c1.2,0.2,2.57,0.45,3.91,0.72C28.74,91.3,27.66,92.53,26.81,93.47z M67.01,114.56l-0.25-0.53l-0.52,0.02
			c-0.51,0.02-1.02,0.06-1.53,0.09l0.06-2.52c0.03-1.12,0.13-2.18,0.19-3.35c-0.02-1.16-0.24-2.26-0.4-3.37
			c-0.17-1.1-0.32-2.21-0.36-3.24c0.02-2.21-0.37-4.43-0.76-6.61c-0.38-2.01-0.83-4-1.44-5.98c0.6-0.25,1.19-0.52,1.78-0.79
			l1.01,3.35c0.45,1.36,0.88,2.73,1.39,4.08c0.49,1.35,1.04,2.68,1.63,4.01c0.59,1.3,1.2,2.6,2.01,3.84c0,0.01,0.01,0.02,0.01,0.03
			c-0.16,0.48-0.32,0.96-0.46,1.45c-0.14,0.59-0.3,1.19-0.39,1.79c-0.21,1.21-0.32,2.45-0.3,3.7c0.02,1.25,0.17,2.5,0.47,3.74
			c0.16,0.62,0.33,1.23,0.59,1.83c0.04,0.09,0.09,0.19,0.13,0.28c-0.64,0.05-1.27,0.1-1.91,0.15L67.01,114.56z M69.88,120.31
			l-1.67-1.86c1.06-0.03,2.11-0.06,3.17-0.12l1.81,1.98H69.88z M73.52,118.13l0,0.01l0,0.02c-0.03,0.19-0.04,0.38-0.06,0.56
			l-0.44-0.48c0,0-0.97-1.95-1.08-2.18c-0.12-0.24-0.25-0.48-0.35-0.74c-0.23-0.5-0.42-1.03-0.59-1.57
			c-0.35-1.07-0.57-2.2-0.75-3.34c-0.16-1.15-0.23-2.31-0.25-3.49c-0.01-0.59,0.02-1.18,0.02-1.78c0.02-0.31,0.03-0.63,0.05-0.95
			c0.38,0.95,0.75,1.91,1.07,2.89c0.41,1.21,0.78,2.43,1.12,3.66c0.35,1.23,0.63,2.48,0.9,3.72c0.13,0.62,0.23,1.25,0.31,1.88
			C73.54,116.96,73.63,117.64,73.52,118.13z M84.16,126.73h-3.31l-1.06-1.18l2.31-1.07L84.16,126.73z M84.41,96.82
			c-1.44-0.53-2.9-0.98-4.38-1.31l0.06-0.28c0.19-0.88,0.35-1.76,0.5-2.64c0.15-0.88,0.29-1.77,0.4-2.67
			c0.05-0.45,0.1-0.9,0.13-1.36c0.02-0.23,0.02-0.47,0.02-0.71c-0.01-0.25-0.04-0.54-0.1-0.74c-0.45-1.75-0.97-3.45-1.54-5.14
			c-0.02-0.04-0.06-0.07-0.11-0.06c-0.05,0.01-0.09,0.06-0.08,0.11c0.3,1.75,0.67,3.5,0.89,5.24c0.03,0.23,0.03,0.39,0.03,0.58
			c-0.02,0.2-0.03,0.41-0.07,0.62c-0.06,0.42-0.14,0.85-0.23,1.28c-0.18,0.86-0.39,1.71-0.61,2.57l-0.69,2.56l-0.36,1.27l-0.19,0.62
			l-0.1,0.3l-0.1,0.43c-0.17,0.97-0.23,1.84-0.31,2.74c-0.07,0.9-0.13,1.79-0.18,2.68c-0.15,3.58-0.25,7.14,0.07,10.78
			c0.16,1.87,0.71,3.73,1.44,5.42c0.61,1.4,1.32,2.71,2.16,3.99l-2.4,1.26c-0.11,0.07-0.12,0.06-0.21,0.12
			c-0.57-1.05-1.24-2.26-1.82-3.3l-0.24-0.44l-0.43,0.13l-0.42,0.12l-1.27-1.39c-0.01-0.46-0.02-0.91,0.02-1.33l0,0.03
			c0.09-0.78-0.05-1.39-0.14-2.04c-0.11-0.64-0.25-1.27-0.39-1.9c-0.27-1.26-0.61-2.5-0.92-3.75l-1.01-3.72
			c-0.36-1.24-0.68-2.48-1.09-3.72l-0.01-0.02l-0.04-0.07c-1.29-2.43-2.08-5.21-2.97-7.89l-2.62-8.13l-0.67-2.04
			c-0.1-0.32-0.26-0.74-0.29-0.9c-0.04-0.22-0.02-0.45,0.07-0.66c0.05-0.17,0.3-0.5,0.48-0.8l0.58-0.89l1.18-1.78l4.77-7.12
			c0.03-0.04,0.02-0.09-0.01-0.12c-0.04-0.04-0.1-0.03-0.13,0.01c-1.94,2.11-3.79,4.29-5.58,6.54l-1.31,1.71l-0.64,0.87
			c-0.21,0.3-0.43,0.52-0.66,1.01c-0.2,0.44-0.28,0.95-0.22,1.44c0.09,0.55,0.2,0.79,0.29,1.16l0.59,2.06l0.11,0.36
			c-1.81,0.28-3.57,0.64-5.34,0.99c-2.03,0.42-4.05,0.86-6.05,1.34c-2,0.48-3.99,1.05-6,1.44c-1.96,0.4-3.95,0.72-5.92,0.84
			c-1.09-0.63-2.22-1-3.35-1.34c-1.21-0.35-2.43-0.61-3.65-0.83c-2.15-0.38-5.11-0.81-7.47-1.01c0.47-0.61,0.95-1.22,1.44-1.82
			l2.51-3.05c0.84-1.02,1.67-2.05,2.49-3.1c0.41-0.53,0.81-1.05,1.2-1.63c0.39-0.61,0.66-1.26,0.88-1.92
			c0.42-1.32,0.55-2.69,0.5-4.05c-0.08-1.34-0.32-2.76-1.21-3.83c-0.03-0.04-0.09-0.05-0.13-0.02c-0.04,0.03-0.05,0.09-0.02,0.13
			c0.36,0.53,0.54,1.16,0.66,1.79c0.11,0.63,0.14,1.28,0.11,1.92c-0.06,1.29-0.34,2.56-0.79,3.73c-0.23,0.58-0.51,1.14-0.87,1.62
			c-0.38,0.48-0.81,0.99-1.25,1.47c-0.87,0.98-1.78,1.94-2.66,2.91c-1.77,1.97-3.58,3.86-5.24,6.04l-0.57,0.81
			c-0.16,0.23-0.38,0.47-0.57,0.71c-0.42,0.47-0.86,0.94-1.31,1.41c-0.9,0.93-1.84,1.84-2.79,2.74c-0.95,0.89-1.92,1.77-2.89,2.65
			c-0.49,0.43-0.98,0.86-1.47,1.27c-0.25,0.21-0.49,0.4-0.73,0.59l-0.36,0.27c-0.16,0.12-0.33,0.24-0.48,0.37
			c-1.19,1.05-1.88,2.34-2.43,3.66c-0.13,0.34-0.25,0.68-0.35,1.05c-0.05,0.18-0.09,0.39-0.11,0.66c-0.02,0.25,0,0.39-0.01,0.59
			c0.02,0.7,0.08,1.37,0.14,2.04c0.27,2.66,0.56,5.28,1.02,7.93l0.1,0.51c0.04,0.21,0.11,0.43,0.19,0.61
			c0.15,0.37,0.33,0.69,0.52,0.99c0.37,0.61,0.78,1.15,1.2,1.69c0.59,0.75,1.23,1.45,1.88,2.14l-2.54,0.46
			c-0.1-0.32-0.21-0.63-0.33-0.94c-0.08-0.21-0.25-0.53-0.41-0.73c-0.17-0.22-0.35-0.4-0.53-0.58c-0.37-0.35-0.77-0.66-1.22-0.92
			c-0.39-0.22-0.81-0.43-1.32-0.51c-0.06-0.12-0.14-0.3-0.2-0.45c-0.08-0.22-0.16-0.45-0.24-0.68c-0.15-0.47-0.29-0.94-0.42-1.41
			c-0.27-0.95-0.51-1.9-0.74-2.86c-0.48-1.92-0.88-3.85-1.29-5.79c-0.39-1.94-0.75-3.89-1.06-5.83c-0.16-1.01-0.39-1.96-0.5-2.9
			c-0.05-0.47-0.08-0.93-0.04-1.35c0.03-0.41,0.18-0.75,0.32-0.84c1.35-0.83,2.6-1.86,3.58-3.14c1.01-1.28,1.76-2.74,2.26-4.27
			c0.52-1.53,0.77-3.12,0.87-4.7c0.09-1.59,0.04-3.17-0.21-4.74l-0.04-0.24l-0.14-0.16c-2.06-2.35-3.91-4.9-5.27-7.7
			c-0.68-1.4-1.22-2.87-1.57-4.39c-0.23-1.07-0.37-2.18-0.32-3.29c0,0,0,0,0,0l0,0c0.01-0.01,0.01-0.03,0-0.05c0,0,0,0,0,0
			c0.02-0.44,0.07-0.87,0.16-1.31l0-0.01c0.01-0.05-0.02-0.09-0.06-0.11c-0.05-0.02-0.1,0.01-0.12,0.06
			c-0.17,0.47-0.28,0.95-0.36,1.44c-0.45,0.19-0.85,0.44-1.23,0.71c-0.13,0.09-0.25,0.18-0.36,0.28c-0.01-0.16-0.02-0.32-0.01-0.48
			c0.03-0.56,0.14-1.14,0.31-1.71c0.32-1.02,0.78-2.04,1.36-2.99c0,0,0,0,0,0c2.55-2.35,5.24-4.54,8.02-6.58
			c2.79-2.02,5.68-3.9,8.74-5.43l1.15-0.57c0.39-0.18,0.78-0.34,1.17-0.51c0.78-0.34,1.55-0.66,2.36-0.91
			c1.6-0.53,3.26-0.93,4.93-1.25c3.35-0.66,6.77-1.02,10.2-1.3c3.43-0.27,6.89-0.36,10.34-0.29c3.45,0.07,6.91,0.35,10.31,0.96
			c1.69,0.31,3.35,0.77,5.03,1.24c1.67,0.47,3.33,0.95,4.98,1.49c3.2,1.02,6.38,2.1,9.51,3.3c0.23,0.29,0.43,0.59,0.6,0.91
			c0.54,1.02,0.78,2.16,0.84,3.31c0.06,1.14-0.07,2.34-0.21,3.53c-0.15,1.19-0.29,2.4-0.41,3.61c-0.1,1.21-0.2,2.43-0.27,3.65
			c-0.06,1.22-0.11,2.44-0.15,3.66c-0.07,2.43-0.11,4.88,0.16,7.33c0.14,1.22,0.34,2.45,0.69,3.64c0.33,1.22,0.85,2.35,1.36,3.46
			c1.02,2.21,2.08,4.39,3.12,6.57c1.03,2.17,2.09,4.36,2.7,6.61c0.07,0.28,0.13,0.56,0.17,0.84c0.04,0.26,0.08,0.64,0.17,0.95
			c0.07,0.26,0.17,0.5,0.28,0.74C87.27,98.02,85.85,97.38,84.41,96.82z M127.35,125.47c-0.05,0.03-0.13,0.06-0.22,0.09
			c-0.18,0.05-0.38,0.08-0.58,0.11c-0.8,0.09-1.64,0.06-2.48,0.02c-0.81-0.14-1.62-0.25-2.43-0.3c-0.41-0.03-0.81-0.04-1.22-0.04
			c-0.25,0-0.5,0.01-0.75,0.02c-0.19-0.27-0.39-0.59-0.58-0.88c-0.13-0.21-0.27-0.43-0.39-0.65l-0.19-0.33
			c-0.06-0.11-0.17-0.27-0.25-0.4c-0.36-0.51-0.73-0.91-1.12-1.3c-0.38-0.39-0.77-0.77-1.17-1.13c-0.8-0.72-1.62-1.41-2.46-2.06
			c-0.85-0.65-1.7-1.29-2.61-1.87c-0.03-0.02-0.08-0.02-0.11,0.01c-0.04,0.03-0.05,0.09-0.01,0.14c1.36,1.66,2.81,3.21,4.2,4.78
			c0.02,0.03,0.05,0.06,0.07,0.08c-0.4-0.1-0.75-0.3-1.08-0.54c-0.39-0.27-0.74-0.6-1.09-0.93c-0.69-0.68-1.36-1.4-2.01-2.14
			c-0.66-0.74-1.31-1.48-1.98-2.22c-0.68-0.72-1.37-1.47-2.01-2.21l-0.26-0.29l-0.31-0.04c-1.34-0.18-2.91-0.44-4.31-1.01
			c-0.7-0.3-1.37-0.68-1.97-1.14c-0.29-0.24-0.6-0.48-0.83-0.77l-0.35-0.42l-0.29-0.47c-0.2-0.29-0.32-0.65-0.49-0.96
			c-0.12-0.35-0.29-0.65-0.41-1c-0.29-0.65-0.54-1.34-0.78-2.03c-0.23-0.7-0.45-1.42-0.65-2.15l-0.3-1.11l-0.27-1.09l-0.02-0.09
			c0-0.02-0.02-0.04-0.03-0.05c-0.04-0.02-0.08-0.01-0.1,0.03c-0.03,0.05-0.07,0.13-0.08,0.18l-0.05,0.15
			c-0.04,0.1-0.05,0.2-0.08,0.3c-0.05,0.2-0.08,0.4-0.11,0.6c-0.03,0.2-0.05,0.4-0.06,0.6c-0.21-0.15-0.42-0.29-0.63-0.41
			c-0.2-0.12-0.41-0.23-0.61-0.34c-0.49-0.26-0.97-0.51-1.44-0.76c-0.67-0.35-1.33-0.69-1.96-1.06c-0.11-0.06-0.2-0.14-0.31-0.2
			c-0.16-0.19-0.32-0.38-0.46-0.58c-0.31-0.47-0.53-1-0.61-1.54c-0.05-0.29-0.05-0.51-0.06-0.85c-0.01-0.33-0.05-0.65-0.11-0.96
			c-0.21-1.25-0.6-2.43-1.03-3.59c-0.42-1.16-0.92-2.28-1.42-3.4c-1.02-2.22-2.18-4.36-3.27-6.51c-0.53-1.09-1.1-2.13-1.48-3.24
			c-0.39-1.12-0.73-2.26-0.96-3.44c-0.47-2.35-0.6-4.79-0.44-7.2c0.08-1.21,0.24-2.41,0.43-3.6c0.19-1.2,0.4-2.39,0.62-3.58
			c0.2-1.2,0.38-2.4,0.51-3.62c0.11-1.22,0.24-2.46,0.09-3.74c-0.13-1.26-0.52-2.53-1.25-3.59c-0.03-0.04-0.06-0.08-0.09-0.12
			l1.54,0.59l-1.68-1.98c-0.13-0.16-0.26-0.32-0.33-0.48c-0.09-0.16-0.12-0.33-0.14-0.5c0-0.03,0-0.05,0-0.08
			c1.09,1.03,2.22,2,3.44,2.92c0.77,0.57,1.56,1.11,2.53,1.54c0.28,0.13,0.41,0.16,0.59,0.26c0.18,0.09,0.36,0.19,0.54,0.3
			c0.27,0.16,0.55,0.35,0.82,0.53c0.24,0.67,0.31,1.4,0.31,2.11c-0.01,1.06-0.15,2.12-0.37,3.17c-0.45,2.08-1.13,4.13-2.11,6.01
			c-1.02,1.92-1.6,4.14-1.52,6.34c0.05,2.2,0.49,4.32,0.86,6.44c0.21,1.06,0.37,2.11,0.61,3.17c0.14,0.53,0.24,1.07,0.4,1.59
			l0.57,1.54c0.89,2.01,2.21,3.8,3.79,5.28c1.33,1.25,2.83,2.28,4.41,3.16c0.31,0.17,0.61,0.35,0.93,0.51
			c1.87,0.97,3.85,1.72,5.79,2.49c-0.43,1.46-0.8,2.97-0.72,4.51c0,0.4,0,0.79,0.08,1.18c0.07,0.39,0.11,0.79,0.2,1.17l0.34,1.14
			c0.13,0.37,0.32,0.72,0.47,1.09c0.7,1.42,1.68,2.67,2.84,3.74c0.28,0.27,0.58,0.53,0.89,0.76c0.3,0.25,0.63,0.47,0.95,0.69
			c0.66,0.43,1.32,0.85,2.07,1.11c0.02,0.01,0.03,0,0.04-0.02c0.01-0.02,0-0.03-0.02-0.04l-0.01,0c-0.72-0.27-1.39-0.7-2.03-1.13
			c-0.32-0.22-0.64-0.45-0.93-0.7c-0.31-0.24-0.6-0.5-0.88-0.77c-1.13-1.07-2.08-2.33-2.75-3.73c-0.15-0.36-0.33-0.7-0.45-1.07
			l-0.32-1.12c-0.09-0.38-0.12-0.76-0.18-1.15c-0.08-0.38-0.07-0.77-0.06-1.16c0.02-0.39-0.03-0.78,0.04-1.16l0.17-1.15
			c0.03-0.39,0.18-0.75,0.28-1.13l0.32-1.11l0.04-0.15l-0.14-0.06c-1.99-0.82-3.98-1.59-5.87-2.6c-0.36-0.19-0.72-0.4-1.07-0.6
			c-1.49-0.87-2.9-1.87-4.13-3.06c-1.53-1.46-2.79-3.21-3.61-5.16c-0.84-1.94-1.06-4.08-1.47-6.2c-0.38-2.11-0.81-4.22-0.85-6.33
			c-0.05-2.11,0.4-4.19,1.37-6.09c0.98-1.95,1.6-4.05,1.98-6.18c0.18-1.07,0.3-2.15,0.24-3.24c-0.04-0.67-0.13-1.35-0.37-1.99
			c0.03,0.02,0.07,0.04,0.1,0.07c1.46,1.04,2.88,2.21,4.28,3.39c1.12,0.94,2.18,1.89,3.32,2.84c0.31,0.26,0.62,0.52,0.94,0.77
			l1.66,1.34l-0.02-1.79c1.44,2.06,2.89,4.12,4.35,6.17l2.99,4.12c0.99,1.36,2.04,2.76,3.23,4.03c1.18,1.28,2.52,2.45,4.02,3.37
			c0.37,0.24,0.76,0.45,1.14,0.65c0.43,0.22,0.7,0.34,1.01,0.59c0.61,0.48,1.18,1.08,1.72,1.71c1.06,1.27,2.03,2.65,2.9,4.08
			c0.75,1.27,1.44,2.58,1.91,3.98c0.01,3.45,0.07,6.9,0.19,10.33c0.03,0.87,0.06,1.73,0.08,2.59l0.03,1.31
			c0.01,0.47,0.05,0.92,0.1,1.37c0.08,0.9,0.24,1.77,0.4,2.64c0.15,0.87,0.35,1.73,0.55,2.58c0.41,1.71,0.86,3.4,1.38,5.09l0.2,0.63
			c0.08,0.22,0.15,0.42,0.2,0.59c0.12,0.36,0.19,0.76,0.27,1.15c0.13,0.81,0.15,1.66,0.14,2.51c-0.01,0.86-0.09,1.71-0.15,2.6
			c0,0.01,0,0.02,0,0.03c-0.21,0.02-0.42,0.03-0.62,0.04c-0.35,0.01-0.7,0.11-1.06,0.13c-0.73,0.04-1.49,0.01-2.25,0.05
			c-0.01,0-0.03,0.01-0.03,0.03c0,0.02,0.01,0.03,0.03,0.04c0.74,0.14,1.47,0.32,2.25,0.39c0.38,0.03,0.79,0.1,1.18-0.01
			c0.17-0.05,0.34-0.12,0.5-0.21c0,0.08,0.01,0.16,0.03,0.25c0.08,0.31,0.28,0.53,0.45,0.69c0.37,0.33,0.75,0.53,1.1,0.78
			c0.17,0.12,0.33,0.25,0.48,0.38c0.11,0.09,0.22,0.23,0.26,0.28C127.37,125.46,127.37,125.46,127.35,125.47z"/>
		<path class="st1" d="M107.62,81.7c-0.87-0.7-1.81-1.31-2.84-1.8c-0.51-0.26-1.05-0.46-1.62-0.63c-0.59-0.13-1.19-0.3-1.98-0.04
			l-0.25,0.08l-0.11,0.26c-0.24,0.58-0.35,1.08-0.41,1.64c-0.06,0.54-0.06,1.09,0.01,1.63c0.07,0.54,0.19,1.06,0.39,1.56
			c0.18,0.5,0.45,0.96,0.76,1.38c0.01,0.02,0.04,0.03,0.06,0.03c0.04-0.01,0.06-0.04,0.05-0.08l0,0c-0.09-0.51-0.18-1-0.22-1.48
			c-0.05-0.49-0.05-0.97-0.02-1.44c0.03-0.47,0.09-0.94,0.19-1.39c0.07-0.33,0.17-0.69,0.28-1c0.27-0.03,0.64-0.01,0.98,0.04
			c0.49,0.08,0.98,0.22,1.47,0.41c0.97,0.37,1.91,0.88,2.78,1.47c0.88,0.59,1.69,1.29,2.43,2.06c0.73,0.78,1.36,1.66,1.82,2.64
			c0.01,0.03,0.05,0.04,0.08,0.03c0.03-0.01,0.05-0.05,0.04-0.08c-0.34-1.05-0.91-2.02-1.57-2.9
			C109.28,83.19,108.5,82.39,107.62,81.7z"/>
		<path class="st1" d="M107.06,83.75c-0.51-0.61-1.19-1.06-1.91-1.32c-0.36-0.13-0.74-0.2-1.11-0.23c-0.38-0.01-0.75-0.05-1.13,0.18
			c-0.02,0.01-0.03,0.04-0.03,0.06c0.01,0.03,0.04,0.05,0.07,0.04l0.05-0.01c0.27-0.06,0.66,0.03,0.97,0.12
			c0.32,0.1,0.63,0.24,0.92,0.42c0.56,0.35,1.03,0.81,1.37,1.36c0.16,0.25,0.32,0.61,0.48,0.92c0.16,0.32,0.34,0.62,0.56,0.9
			c0.44,0.55,0.92,1.09,1.56,1.54c0.01,0.01,0.03,0.01,0.04,0.01c0.04,0,0.07-0.03,0.07-0.07c-0.03-0.8-0.29-1.5-0.6-2.15
			C108.05,84.84,107.56,84.34,107.06,83.75z"/>
		<path class="st1" d="M114.91,100.76c-0.78-0.64-1.91-0.55-2.51,0.19c-0.6,0.74-0.45,1.86,0.34,2.5c0.78,0.64,1.91,0.55,2.51-0.19
			C115.85,102.51,115.7,101.4,114.91,100.76z"/>
		<path class="st1" d="M121.4,117.77c0.26-0.36,0.34-0.79,0.35-1.17c0-0.38-0.08-0.81-0.34-1.17c-0.26-0.37-0.73-0.58-1.19-0.59
			c-0.94-0.04-1.83,0.86-1.67,1.77c0.06,0.44,0.27,0.8,0.56,1.1c0.28,0.29,0.66,0.56,1.11,0.6
			C120.66,118.34,121.14,118.13,121.4,117.77z M120.22,117.76c-0.31,0.04-0.69,0.02-0.97-0.22c-0.28-0.22-0.41-0.61-0.35-0.95
			c0.13-0.68,0.72-1.09,1.32-1.09c0.3-0.01,0.6,0.07,0.9,0.22c0.3,0.15,0.57,0.48,0.56,0.87c0.01,0.39-0.26,0.72-0.56,0.87
			C120.82,117.63,120.53,117.72,120.22,117.76z"/>
	</g>
</g>
</svg>
