<?xml version="1.0" encoding="utf-8"?>
<!-- Generator: Adobe Illustrator 18.1.0, SVG Export Plug-In . SVG Version: 6.00 Build 0)  -->
<svg version="1.1" id="Layer_1" xmlns="http://www.w3.org/2000/svg" xmlns:xlink="http://www.w3.org/1999/xlink" x="0px" y="0px"
	 viewBox="0 0 128 128" 
width="128" height="128"
enable-background="new 0 0 128 128" xml:space="preserve">
<g>
	<path fill="#2D2D2D" d="M95,30.7l14.4-12.8v16.6h9.2V0h-9.2v16.7L95,3.7v8.4H9.4v11H95V30.7z M111.4,2h5.3v30.5h-5.3V2z M11.3,21.2
		v-7.1H97v-6l10.2,9.1l-10.2,9v-5.1H11.3z"/>
	<path fill="#2D2D2D" d="M37.4,64c-0.3-0.5-0.9-0.6-1.4-0.3L1.3,86.6C0.5,87.1,0,88,0,88.9c0,0.9,0.5,1.8,1.3,2.3l34.8,22.9
		c0.2,0.1,0.4,0.2,0.5,0.2c0.3,0,0.6-0.2,0.8-0.4c0.3-0.5,0.2-1.1-0.3-1.4l-7.4-4.9C34.7,101.7,37,96,37,89c0-7-2.4-13.7-6.6-19.2
		l6.8-4.5C37.6,65,37.7,64.4,37.4,64z M33.6,97.5c-1.2-1.5-3.7-4.9-3.7-8.8c0-3.9,2.4-7.3,3.7-8.8c1,2.9,1.5,6,1.5,9.1
		C35,92,34.5,94.8,33.6,97.5z M32.8,77.8c-0.7,0.8-4.9,5.3-4.9,10.9c0,5.5,4,10,4.8,10.9c-1.1,2.4-2.6,4.7-4.6,7L2.3,89.6
		C2,89.4,2,89.1,2,88.9c0-0.1,0-0.5,0.4-0.7l26.3-17.3C30.4,73,31.7,75.3,32.8,77.8z"/>
	<path fill="#2D2D2D" d="M126.5,98.8c-1.9-4.4-5.5-6.4-11.4-6.4H84.5c-5.9,0-9.5,2-11.4,6.4c-1,2.4-1.5,4.9-1.5,7.7l0,21.6H128
		l0-21.6C128,103.7,127.5,101.1,126.5,98.8z M126,126h-9.1V106c0-0.5-0.4-1-1-1c-0.5,0-1,0.4-1,1V126H99.5H84.6V106c0-0.5-0.4-1-1-1
		s-1,0.4-1,1V126h-9.1l0-19.6c0-2.5,0.4-4.8,1.3-6.9c1.6-3.6,4.5-5.3,9.6-5.3h30.6c5.1,0,8.1,1.6,9.6,5.3c0.9,2.1,1.4,4.4,1.3,6.9
		L126,126z"/>
	<path fill="#2D2D2D" d="M85.8,73.7c0,7.7,6.3,14,14,14s14-6.3,14-14s-6.3-14-14-14S85.8,66,85.8,73.7z M111.8,73.7
		c0,6.6-5.4,12-12,12c-6.6,0-12-5.4-12-12c0-6.6,5.4-12,12-12C106.4,61.7,111.8,67.1,111.8,73.7z"/>
</g>
</svg>
