<?xml version="1.0" encoding="utf-8"?>
<!-- Generator: Adobe Illustrator 24.1.2, SVG Export Plug-In . SVG Version: 6.00 Build 0)  -->
<svg version="1.1" id="Layer_1" xmlns="http://www.w3.org/2000/svg" xmlns:xlink="http://www.w3.org/1999/xlink" x="0px" y="0px"
	 viewBox="0 0 128 128" style="enable-background:new 0 0 128 128;" xml:space="preserve">
<style type="text/css">
	.st0{fill:#2D2D2D;}
</style>
<g>
	<g>
		<path class="st0" d="M121.48,12.34c0,0,0,0.01,0.01,0.01C121.52,12.37,121.51,12.36,121.48,12.34z"/>
		<path class="st0" d="M94.92,33.69c1.78,1.81,3.9,3.32,6.25,4.38c2.35,1.05,4.92,1.65,7.53,1.72c2.6,0.04,5.23-0.44,7.63-1.47
			c2.41-1,4.57-2.55,6.32-4.44c3.53-3.79,5.34-8.87,5.35-13.88c0.01-5.01-1.81-10.09-5.33-13.9c-1.75-1.9-3.91-3.46-6.31-4.49
			c-2.4-1.05-5.03-1.57-7.66-1.6c-2.63,0-5.27,0.51-7.68,1.54c-2.42,1.02-4.62,2.53-6.45,4.39c-1.84,1.86-3.27,4.09-4.22,6.5
			c-0.97,2.41-1.37,5.01-1.31,7.56C89.17,25.12,91.35,30.07,94.92,33.69z M91.55,12.92c0.98-2.21,2.39-4.22,4.11-5.9
			c3.46-3.38,8.24-5.26,13.04-5.27c4.82-0.04,9.58,1.84,13.21,5.11c1.8,1.65,3.31,3.65,4.34,5.91c1.04,2.25,1.57,4.74,1.59,7.23
			c-0.01,2.49-0.54,4.98-1.58,7.23c-1.03,2.26-2.54,4.26-4.34,5.92c-3.62,3.29-8.36,5.18-13.22,5.28c-4.84,0.14-9.84-1.63-13.4-5.1
			c-1.77-1.73-3.18-3.83-4.09-6.12c-0.93-2.29-1.32-4.77-1.27-7.21C90.01,17.54,90.59,15.14,91.55,12.92z"/>
		<path class="st0" d="M96.08,22.4l0.98,0.73c0.64,0.5,1.29,0.98,1.93,1.49c1.28,1,2.52,2.05,3.79,3.07
			c1.26,1.03,2.52,2.05,3.83,3.02l0.97,0.73l0.12,0.09l0.07,0.05c0.06,0.04,0.13,0.08,0.2,0.11c0.29,0.13,0.62,0.14,0.92,0.03
			c0.15-0.05,0.29-0.13,0.4-0.24c0.06-0.05,0.11-0.11,0.16-0.17l0.06-0.08l0.18-0.24l1.44-1.96c1.9-2.62,3.74-5.28,5.57-7.96
			c1.85-2.66,3.63-5.36,5.39-8.09l0.08-0.13l0.06-0.1c0.03-0.05,0.05-0.1,0.06-0.15c0.07-0.2,0.05-0.43-0.04-0.61
			c-0.07-0.19-0.31-0.35-0.36-0.37l-0.26-0.16l-1.02-0.66c-0.68-0.44-1.36-0.89-2.03-1.34l-0.51-0.34l-0.25-0.17l-0.13-0.09
			c-0.07-0.05-0.15-0.08-0.23-0.1c-0.16-0.03-0.34,0-0.48,0.09c-0.07,0.04-0.13,0.1-0.18,0.17l-0.09,0.13l-0.35,0.5
			c-0.46,0.66-0.95,1.31-1.43,1.97c-1.92,2.61-4.03,5.08-6,7.66c-0.49,0.65-0.98,1.29-1.45,1.95l-0.53,0.73l-0.18-0.13
			c-1.33-0.93-2.7-1.8-4.08-2.67l-2.07-1.28l-1.04-0.64l-0.26-0.16c-0.03-0.02-0.11-0.07-0.19-0.1c-0.08-0.03-0.16-0.04-0.24-0.04
			c-0.16,0.01-0.32,0.08-0.43,0.19c-0.06,0.06-0.09,0.12-0.11,0.15l-0.08,0.13c-0.89,1.36-1.8,2.69-2.77,3.99
			c-0.15,0.2-0.11,0.51,0.09,0.66L96.08,22.4z M121.49,12.35c0,0,0-0.01-0.01-0.01C121.51,12.36,121.52,12.37,121.49,12.35z
			 M95.64,21.48c0.95-1.31,1.95-2.59,2.97-3.84l0.1-0.12c0.04-0.04,0.06-0.08,0.08-0.08c0.03-0.03,0.08-0.04,0.12-0.03
			c0.02,0,0.04,0.01,0.05,0.02c0.02,0.01,0.02,0.02,0.07,0.06l0.24,0.19l0.94,0.77l1.88,1.55c1.26,1.02,2.53,2.04,3.84,3l0.25,0.18
			l0.12,0.09l0.06,0.04l0.04,0.03l0.09,0.06c0.25,0.15,0.56,0.19,0.84,0.12c0.14-0.03,0.27-0.1,0.39-0.18
			c0.06-0.04,0.11-0.09,0.16-0.14c0.04-0.04,0.11-0.13,0.11-0.14l0.7-0.99c0.47-0.66,0.92-1.33,1.38-2c1.8-2.69,3.47-5.48,5.32-8.14
			c0.47-0.66,0.92-1.33,1.4-1.98l0.36-0.49l0.09-0.12c0.01-0.01,0.02-0.03,0.04-0.04c0.03-0.02,0.07-0.02,0.1-0.02
			c0.02,0,0.03,0.01,0.05,0.02l0.12,0.08l0.25,0.18l0.49,0.36c0.65,0.48,1.31,0.96,1.95,1.46l0.97,0.74
			c0.09,0.07,0.22,0.17,0.28,0.22l-0.01,0.02l-0.09,0.12c-2.02,2.54-4,5.1-5.92,7.71c-1.94,2.59-3.86,5.2-5.74,7.84l-1.36,1.95
			l-0.83-0.55c-1.35-0.91-2.73-1.76-4.12-2.61c-1.38-0.85-2.78-1.68-4.16-2.55c-0.69-0.43-1.36-0.88-2.05-1.32l-1.01-0.68l-0.5-0.34
			C95.57,21.81,95.54,21.61,95.64,21.48z"/>
	</g>
	<g>
		<path class="st0" d="M109,127.08c-2.25-0.12-4.51-0.19-6.76-0.29l-3.65-0.1c-0.03-0.03-0.05-0.05-0.08-0.08
			c0.61-0.44,1.21-0.9,1.78-1.38c0.79-0.67,1.55-1.37,2.29-2.11c0.16-0.16,0.31-0.33,0.47-0.49c0.97,0.93,1.94,1.85,2.92,2.77
			c-0.92-0.98-1.86-1.94-2.79-2.91c0.52-0.54,1.02-1.08,1.51-1.65c0.68-0.79,1.33-1.6,1.9-2.49c-0.89,0.57-1.71,1.22-2.5,1.89
			c-0.56,0.48-1.11,0.98-1.64,1.49c-1.18-1.22-2.35-2.44-3.53-3.66c1.19-1.21,2.38-2.42,3.53-3.67c0.16-0.17,0.31-0.34,0.46-0.51
			c1.1,1.05,2.21,2.1,3.33,3.13c-1.04-1.11-2.1-2.22-3.16-3.32c1.17-1.27,2.32-2.57,3.42-3.92c-1.36,1.08-2.65,2.22-3.93,3.38
			c-1.21-1.26-2.42-2.51-3.62-3.77l-0.06-0.06c0.42-0.43,0.84-0.86,1.25-1.29c0.91-0.95,1.8-1.9,2.69-2.87
			c1.15,1.08,2.29,2.16,3.44,3.23c-1.08-1.15-2.17-2.29-3.26-3.43c1.12-1.22,2.23-2.44,3.32-3.69c-1.25,1.08-2.48,2.18-3.7,3.29
			c-1.26-1.32-2.51-2.64-3.78-3.95c1.31-1.36,2.62-2.73,3.91-4.11c1.16,1.08,2.32,2.17,3.5,3.24c-1.08-1.17-2.18-2.33-3.27-3.49
			c1.17-1.25,2.33-2.5,3.48-3.77c-1.27,1.14-2.52,2.29-3.78,3.45c-1.28-1.36-2.58-2.72-3.87-4.07c1.29-1.33,2.58-2.67,3.87-4.02
			c1.21,1.11,2.41,2.22,3.64,3.31c-1.1-1.22-2.22-2.42-3.34-3.63c1.19-1.25,2.38-2.5,3.56-3.76c-1.27,1.16-2.53,2.33-3.79,3.5
			c-1.28-1.37-2.57-2.73-3.87-4.07c1.26-1.31,2.51-2.63,3.76-3.95c1.24,1.13,2.49,2.24,3.76,3.34c-1.11-1.27-2.23-2.52-3.37-3.75
			c1.18-1.24,2.36-2.48,3.53-3.74c-1.25,1.17-2.49,2.35-3.73,3.52c-0.83-0.9-1.66-1.79-2.51-2.68c-0.48-0.51-0.98-1.01-1.46-1.51
			l0.16-0.16c1.17-1.22,2.35-2.43,3.53-3.65c1.22,1.1,2.46,2.19,3.76,3.22c-1.04-1.3-2.13-2.53-3.25-3.75
			c1.15-1.19,2.31-2.39,3.45-3.59c-1.22,1.12-2.42,2.26-3.63,3.39c-0.16-0.17-0.31-0.34-0.46-0.51c-1.14-1.23-2.31-2.43-3.49-3.62
			c1.19-1.21,2.37-2.41,3.56-3.62c0.55,0.53,1.12,1.05,1.71,1.55c0.75,0.63,1.53,1.24,2.38,1.77c-0.53-0.85-1.14-1.62-1.78-2.36
			c-0.5-0.59-1.03-1.15-1.57-1.71c0.95-0.96,1.89-1.93,2.83-2.9c-0.99,0.91-1.98,1.84-2.96,2.76c-0.1-0.1-0.2-0.21-0.3-0.31
			c-0.69-0.69-1.42-1.35-2.16-1.98c-0.47-0.4-0.96-0.77-1.46-1.14c2.32-0.1,4.64-0.21,6.96-0.35c0.04,0,0.07-0.03,0.08-0.08
			c0-0.04-0.03-0.08-0.08-0.09c-8.54-0.51-17.08-0.71-25.62-0.78c-4.27-0.02-8.54,0.05-12.81,0.1c-4.27,0.05-8.54,0.16-12.81,0.32
			c-4.27,0.14-8.54,0.24-12.81,0.18c-2.14-0.03-4.27-0.1-6.41-0.19l-6.41-0.22c-4.27-0.09-8.54-0.04-12.81,0.05
			c-4.27,0.09-8.54,0.25-12.81,0.54c-0.04,0-0.07,0.03-0.08,0.08c0,0.04,0.03,0.08,0.08,0.09c2.32,0.16,4.64,0.28,6.96,0.37
			c-0.49,0.36-0.97,0.73-1.43,1.12c-0.75,0.63-1.47,1.29-2.16,1.98c-0.08,0.07-0.15,0.15-0.22,0.23c-1.15-1.1-2.3-2.2-3.46-3.28
			c1.09,1.16,2.2,2.3,3.3,3.44c-0.56,0.57-1.1,1.15-1.62,1.76c-0.64,0.75-1.25,1.52-1.78,2.36c0.85-0.53,1.63-1.14,2.38-1.77
			c0.6-0.51,1.19-1.04,1.75-1.59c1.18,1.22,2.35,2.43,3.53,3.65c-1.19,1.2-2.36,2.4-3.5,3.64c-0.17,0.18-0.32,0.36-0.49,0.54
			c-1.19-1.15-2.39-2.29-3.6-3.42c1.13,1.22,2.27,2.42,3.42,3.62c-1.1,1.21-2.19,2.44-3.22,3.72c1.29-1.02,2.52-2.09,3.73-3.19
			c1.14,1.2,2.29,2.39,3.43,3.6l0.23,0.24c-0.47,0.48-0.94,0.96-1.4,1.45C8.66,76.87,7.82,77.76,7,78.66
			c-1.24-1.17-2.48-2.35-3.73-3.52c1.17,1.25,2.35,2.49,3.53,3.73c-1.14,1.24-2.27,2.49-3.38,3.76c1.27-1.1,2.52-2.22,3.76-3.35
			c1.25,1.32,2.5,2.64,3.76,3.95c-1.31,1.36-2.61,2.73-3.9,4.11c-1.25-1.18-2.5-2.37-3.76-3.54c1.17,1.27,2.34,2.54,3.52,3.8
			c-1.11,1.19-2.21,2.38-3.3,3.59c1.21-1.08,2.4-2.18,3.59-3.27c1.27,1.36,2.55,2.71,3.83,4.06c-1.27,1.32-2.54,2.65-3.8,3.99
			c-1.25-1.16-2.51-2.31-3.78-3.45c1.15,1.27,2.31,2.52,3.48,3.77c-1.09,1.16-2.19,2.32-3.27,3.49c1.17-1.07,2.33-2.16,3.49-3.24
			c1.29,1.38,2.6,2.75,3.91,4.11c-1.26,1.31-2.52,2.63-3.78,3.95c-1.22-1.11-2.45-2.21-3.7-3.29c1.09,1.24,2.2,2.47,3.32,3.69
			c-1.09,1.14-2.18,2.28-3.26,3.43c1.15-1.07,2.3-2.15,3.44-3.23c0.89,0.96,1.78,1.92,2.69,2.87c0.41,0.43,0.83,0.86,1.25,1.29
			l-0.06,0.06c-1.2,1.26-2.41,2.51-3.62,3.77c-1.28-1.16-2.57-2.3-3.93-3.38c1.09,1.35,2.24,2.65,3.42,3.92
			c-1.06,1.1-2.11,2.2-3.16,3.32c1.12-1.04,2.22-2.08,3.33-3.13c0.16,0.17,0.31,0.34,0.46,0.51c1.15,1.25,2.34,2.46,3.53,3.67
			c-1.18,1.22-2.35,2.44-3.53,3.66c-0.53-0.51-1.08-1.01-1.64-1.48c-0.79-0.67-1.61-1.32-2.5-1.89c0.58,0.89,1.23,1.7,1.9,2.49
			c0.49,0.57,0.99,1.11,1.51,1.65c-0.93,0.97-1.86,1.93-2.79,2.91c0.98-0.92,1.95-1.84,2.92-2.77c0.16,0.16,0.31,0.33,0.47,0.49
			c0.73,0.73,1.5,1.43,2.29,2.11c0.57,0.49,1.16,0.94,1.78,1.38c-0.11,0.12-0.23,0.23-0.34,0.35l-10.19,0.12
			c-0.04,0-0.08,0.04-0.08,0.08c0,0.04,0.04,0.08,0.08,0.08l27.05,0.32l27.05,0.24c9.02,0.09,18.03,0.27,27.05,0.16
			c4.51-0.06,9.02-0.12,13.52-0.24l6.76-0.19c2.25-0.1,4.51-0.16,6.76-0.29c0.04,0,0.07-0.03,0.08-0.08
			C109.08,127.12,109.05,127.08,109,127.08z M98.55,126.69l-0.14,0c0.03-0.02,0.05-0.04,0.08-0.06
			C98.51,126.65,98.53,126.67,98.55,126.69z M102.28,121.91c-0.16,0.15-0.32,0.3-0.47,0.45c-0.74,0.73-1.44,1.49-2.12,2.27
			c-0.49,0.56-0.95,1.15-1.39,1.76c-1.27-1.34-2.55-2.67-3.83-3.99c1.26-1.17,2.5-2.37,3.73-3.58c0.14-0.14,0.27-0.28,0.41-0.42
			C99.84,119.57,101.06,120.74,102.28,121.91z M89.48,126.47c-1.28-1.35-2.57-2.7-3.87-4.04c0.52-0.48,1.04-0.95,1.55-1.44
			c0.91-0.85,1.8-1.72,2.7-2.58l0.21,0.2c1.19,1.13,2.37,2.26,3.55,3.4c-0.15,0.16-0.3,0.31-0.44,0.46
			c-1.21,1.3-2.39,2.63-3.53,4.01C89.59,126.47,89.54,126.47,89.48,126.47z M80.81,126.35c-1.28-1.35-2.57-2.69-3.87-4.03
			c1.28-1.19,2.55-2.39,3.81-3.6c0.09-0.09,0.19-0.18,0.28-0.27l0.27,0.27c1.2,1.15,2.4,2.3,3.6,3.45
			c-1.29,1.38-2.56,2.77-3.82,4.18C80.99,126.35,80.9,126.35,80.81,126.35z M28.83,126.42c1.41-1.32,2.81-2.65,4.21-3.99
			c1.3,1.21,2.62,2.41,3.94,3.61c-0.21,0.21-0.42,0.42-0.62,0.64l-7.23,0.06C29.02,126.64,28.93,126.53,28.83,126.42z M29.03,126.75
			l-0.54,0c0.09-0.08,0.18-0.17,0.27-0.25C28.84,126.58,28.93,126.67,29.03,126.75z M19.3,126.86l-7.36,0.09
			c-0.12-0.18-0.24-0.34-0.37-0.52c1.35-1.27,2.69-2.54,4.03-3.82c0.16,0.15,0.32,0.3,0.48,0.45c1.22,1.12,2.46,2.21,3.74,3.27
			C19.65,126.5,19.47,126.68,19.3,126.86z M19.86,126.36c0.19,0.16,0.38,0.33,0.58,0.49l-1.11,0.01
			C19.5,126.69,19.68,126.53,19.86,126.36z M16.67,122.46c-0.14-0.16-0.29-0.31-0.44-0.46c1.18-1.13,2.36-2.27,3.55-3.4l0.21-0.2
			c0.9,0.87,1.79,1.73,2.7,2.58c0.4,0.38,0.81,0.75,1.21,1.12c-1.32,1.35-2.63,2.71-3.94,4.07
			C18.89,124.91,17.8,123.67,16.67,122.46z M29.57,58.1c1.11,1.16,2.22,2.32,3.33,3.47c-1.41,1.31-2.81,2.63-4.2,3.96
			c-1.3-1.24-2.6-2.49-3.89-3.73c1.13-1.21,2.24-2.44,3.34-3.68c0.38-0.01,0.75-0.01,1.13-0.02L29.57,58.1z M50.35,61.65
			c-1.39,1.31-2.77,2.62-4.15,3.94c-1.37-1.3-2.73-2.61-4.09-3.91c1.25-1.33,2.5-2.66,3.74-4c0.24,0,0.49,0.01,0.73,0.01
			C47.82,59.02,49.09,60.34,50.35,61.65z M46.59,57.69c2.6,0.02,5.2,0.09,7.8,0.17c-1.28,1.19-2.55,2.39-3.82,3.58
			C49.25,60.19,47.93,58.93,46.59,57.69z M62.88,58.11c0.5,0.01,1.01,0.02,1.51,0.03c1.11,1.19,2.22,2.38,3.34,3.56
			c-1.36,1.3-2.72,2.6-4.08,3.9c-1.38-1.32-2.77-2.63-4.15-3.94C60.63,60.48,61.76,59.29,62.88,58.11z M59.28,61.44
			c-1.26-1.18-2.51-2.37-3.78-3.55c2.44,0.09,4.88,0.15,7.32,0.21C61.64,59.21,60.45,60.33,59.28,61.44z M80.53,58.3
			c0.43,0,0.87-0.01,1.3-0.02c1.05,1.18,2.11,2.35,3.18,3.5c-1.31,1.24-2.62,2.49-3.93,3.73c-1.38-1.32-2.77-2.62-4.17-3.92
			c1.06-1.09,2.11-2.19,3.16-3.29C80.23,58.3,80.38,58.3,80.53,58.3z M94.07,61.09c-1.1-1.01-2.24-2-3.39-2.96
			c2.38-0.06,4.76-0.13,7.14-0.22c-1.19,1.11-2.37,2.24-3.55,3.36C94.2,61.22,94.13,61.15,94.07,61.09z M93.47,61.69
			c0.06,0.06,0.11,0.12,0.17,0.18c-1.26,1.2-2.52,2.41-3.78,3.61c-0.76-0.73-1.51-1.46-2.27-2.17c-0.64-0.6-1.28-1.19-1.93-1.79
			c1.08-1.11,2.15-2.22,3.22-3.33c0.49-0.01,0.98-0.02,1.47-0.03C91.36,59.35,92.4,60.53,93.47,61.69z M63.04,126.42
			c-1.2-1.28-2.41-2.56-3.62-3.83c1.38-1.31,2.75-2.62,4.11-3.94c1.25,1.21,2.5,2.43,3.75,3.65c-1.3,1.36-2.6,2.73-3.88,4.11
			C63.28,126.42,63.16,126.42,63.04,126.42z M54.91,126.52l-0.16,0c-1.39-1.49-2.79-2.96-4.2-4.44c0.8-0.76,1.6-1.51,2.4-2.27
			l1.56-1.5l1.41,1.37c1,0.96,2,1.92,3,2.88c-1.24,1.31-2.49,2.62-3.72,3.94C55.1,126.51,55.01,126.51,54.91,126.52z M29.1,66.64
			l3.5,3.58c-1.29,1.25-2.57,2.5-3.85,3.76l-3.65-3.55c1.29-1.31,2.58-2.63,3.86-3.95C28.99,66.53,29.04,66.59,29.1,66.64z
			 M37.58,66.41l3.77,3.84c-1.3,1.26-2.6,2.53-3.89,3.79l-3.75-3.65c0.68-0.69,1.36-1.38,2.04-2.08
			C36.37,67.68,36.97,67.04,37.58,66.41z M46.27,66.4l3.81,3.88l-1.92,1.85c-0.65,0.63-1.3,1.27-1.95,1.91l-3.79-3.68
			C43.71,69.05,44.99,67.72,46.27,66.4z M67.43,70.36l-3.79,3.68c-0.65-0.64-1.3-1.28-1.95-1.91l-1.92-1.85l3.81-3.88
			C64.86,67.72,66.14,69.05,67.43,70.36z M74.36,68.62c0.56,0.58,1.13,1.15,1.7,1.73l-3.75,3.62c-1.27-1.24-2.53-2.48-3.81-3.72
			l3.75-3.82C72.95,67.15,73.65,67.89,74.36,68.62z M80.87,66.43c0.04,0.04,0.07,0.07,0.11,0.11c1.25,1.3,2.51,2.59,3.78,3.87
			l-3.68,3.56c-1.29-1.27-2.6-2.54-3.9-3.8l3.5-3.55C80.74,66.56,80.8,66.5,80.87,66.43z M81.44,65.84
			c1.25-1.29,2.51-2.57,3.76-3.86c0.6,0.64,1.19,1.28,1.79,1.91c0.72,0.76,1.45,1.5,2.17,2.25c-0.02,0.02-0.04,0.03-0.05,0.05
			l-3.65,3.53c-1.29-1.26-2.59-2.52-3.9-3.76C81.53,65.92,81.48,65.88,81.44,65.84z M63.38,117.77l-3.99-4.15l1.35-1.29
			c0.91-0.88,1.81-1.77,2.72-2.65c0.06,0.05,0.11,0.11,0.17,0.16l3.89,3.78c-0.07,0.07-0.14,0.14-0.21,0.21
			c-1.29,1.32-2.57,2.66-3.86,4C63.42,117.82,63.4,117.79,63.38,117.77z M37.69,75.42c1.16,1.18,2.34,2.36,3.5,3.54
			c-1.23,1.21-2.46,2.42-3.68,3.63c-1.21-1.19-2.43-2.38-3.64-3.58c1.23-1.24,2.46-2.48,3.69-3.72L37.69,75.42z M46.25,75.24
			c1.22,1.24,2.46,2.48,3.69,3.71c-1.25,1.23-2.5,2.45-3.75,3.68c-1.22-1.21-2.45-2.41-3.68-3.62C43.76,77.76,45,76.5,46.25,75.24z
			 M67.23,78.9c-1.23,1.2-2.47,2.4-3.7,3.6c-1.2-1.19-2.42-2.37-3.62-3.56c1.23-1.24,2.46-2.47,3.69-3.71
			C64.81,76.46,66.02,77.68,67.23,78.9z M72.2,75.2c1.25,1.26,2.5,2.52,3.75,3.78c-1.21,1.19-2.43,2.38-3.64,3.57
			c-1.25-1.23-2.5-2.46-3.75-3.7c1.15-1.15,2.3-2.3,3.45-3.45L72.2,75.2z M80.91,75.27c1.22,1.22,2.43,2.44,3.65,3.66
			c-1.21,1.17-2.43,2.34-3.64,3.51c-1.2-1.19-2.4-2.37-3.61-3.56c1.17-1.17,2.34-2.34,3.5-3.52L80.91,75.27z M80.15,83.19
			c-1.21,1.17-2.42,2.34-3.63,3.52c-1.18-1.16-2.35-2.32-3.53-3.48c1.2-1.2,2.39-2.41,3.59-3.61C77.78,80.81,78.96,82,80.15,83.19z
			 M54.4,108.45c-1.12-1.16-2.24-2.3-3.37-3.46c1.27-1.25,2.55-2.5,3.83-3.75c1.14,1.12,2.28,2.24,3.42,3.36
			C56.99,105.89,55.7,107.17,54.4,108.45z M37.52,91.18c-1.19-1.19-2.38-2.38-3.58-3.56c1.2-1.21,2.4-2.41,3.61-3.62
			c1.2,1.2,2.4,2.41,3.6,3.61c-1.18,1.17-2.36,2.33-3.54,3.5C37.57,91.13,37.55,91.16,37.52,91.18z M38.36,91.87
			c1.17-1.18,2.34-2.35,3.51-3.52c1.19,1.2,2.39,2.39,3.58,3.59c-1.21,1.21-2.42,2.42-3.62,3.63c-1.18-1.21-2.37-2.41-3.55-3.62
			C38.31,91.92,38.33,91.9,38.36,91.87z M72.12,90.98c-1.15-1.14-2.31-2.27-3.46-3.41c1.2-1.2,2.4-2.4,3.6-3.6
			c1.16,1.16,2.32,2.33,3.48,3.5C74.54,88.63,73.33,89.81,72.12,90.98z M71.35,91.73c-0.23,0.22-0.45,0.44-0.68,0.66
			c-0.98,0.97-1.96,1.93-2.94,2.9c-1.12-1.12-2.24-2.24-3.36-3.36c-0.01-0.01-0.02-0.02-0.03-0.03c1.19-1.2,2.39-2.39,3.59-3.59
			C69.07,89.44,70.21,90.59,71.35,91.73z M63.58,92.65c0.01,0.01,0.02,0.02,0.03,0.03c1.13,1.11,2.25,2.22,3.38,3.33
			c-1.24,1.22-2.47,2.43-3.7,3.65c-1.13-1.13-2.25-2.26-3.38-3.39c1.16-1.14,2.31-2.28,3.47-3.42
			C63.45,92.79,63.51,92.72,63.58,92.65z M63.58,91.14c-1.23-1.21-2.46-2.43-3.69-3.64c1.21-1.2,2.42-2.41,3.63-3.61
			c1.23,1.23,2.45,2.46,3.68,3.69C66,88.76,64.79,89.95,63.58,91.14z M62.82,91.89c-0.07,0.07-0.14,0.14-0.21,0.2
			c-1.15,1.15-2.29,2.29-3.44,3.44c-1.14-1.14-2.27-2.28-3.41-3.42c-0.08-0.08-0.17-0.17-0.25-0.25c1.22-1.21,2.43-2.42,3.65-3.63
			C60.38,89.45,61.6,90.67,62.82,91.89z M55,92.87c1.15,1.13,2.29,2.27,3.43,3.4c-1.19,1.19-2.38,2.38-3.58,3.58
			c-1.23-1.24-2.46-2.47-3.7-3.71c1.12-1.1,2.24-2.2,3.37-3.3c0.07-0.07,0.15-0.15,0.22-0.22C54.84,92.7,54.92,92.78,55,92.87z
			 M53.77,92.07c-1.11,1.11-2.23,2.22-3.34,3.33c-1.15-1.15-2.3-2.3-3.45-3.46c1.18-1.19,2.37-2.38,3.55-3.56
			c1.15,1.16,2.31,2.32,3.46,3.48C53.92,91.93,53.84,92,53.77,92.07z M46.22,91.19c-1.21-1.19-2.41-2.38-3.61-3.57
			c1.2-1.2,2.39-2.4,3.59-3.6c1.2,1.21,2.41,2.42,3.61,3.63C48.61,88.83,47.42,90.01,46.22,91.19z M46.22,92.7
			c1.16,1.14,2.32,2.29,3.47,3.43c-1.23,1.23-2.47,2.46-3.7,3.68c-1.14-1.17-2.29-2.33-3.43-3.5C43.78,95.11,45,93.9,46.22,92.7z
			 M45.28,100.52c-1.24,1.23-2.47,2.48-3.71,3.71c-1.16-1.17-2.31-2.34-3.47-3.51c1.24-1.23,2.48-2.45,3.72-3.68
			C42.98,98.2,44.13,99.36,45.28,100.52z M45.98,101.22c1.25,1.26,2.51,2.51,3.76,3.77c-1.25,1.25-2.5,2.5-3.74,3.76
			c-1.26-1.29-2.52-2.57-3.79-3.85C43.47,103.66,44.73,102.44,45.98,101.22z M46.69,100.53c1.25-1.22,2.49-2.44,3.74-3.67
			c1.24,1.23,2.49,2.46,3.73,3.69c-1.26,1.26-2.51,2.52-3.77,3.78C49.16,103.06,47.93,101.79,46.69,100.53z M55.57,100.55
			c1.2-1.18,2.41-2.37,3.61-3.55c1.13,1.12,2.27,2.24,3.4,3.37c-1.21,1.19-2.42,2.4-3.63,3.59
			C57.82,102.82,56.69,101.68,55.57,100.55z M63.28,101.06c1.26,1.25,2.53,2.5,3.8,3.74c-1.22,1.22-2.44,2.44-3.66,3.67
			c-1.27-1.29-2.55-2.57-3.82-3.85C60.83,103.43,62.06,102.25,63.28,101.06z M63.99,100.37c1.25-1.21,2.49-2.42,3.74-3.63
			c1.25,1.23,2.49,2.46,3.74,3.69c-1.25,1.24-2.49,2.48-3.73,3.72C66.48,102.89,65.24,101.63,63.99,100.37z M68.47,96.03
			c0.99-0.96,1.97-1.91,2.96-2.87c0.23-0.22,0.46-0.45,0.68-0.67c1.23,1.21,2.46,2.43,3.69,3.64c-0.13,0.12-0.25,0.24-0.38,0.37
			c-1.08,1.08-2.17,2.16-3.25,3.24C70.94,98.5,69.71,97.26,68.47,96.03z M72.87,91.73c1.2-1.18,2.4-2.37,3.6-3.55
			c1.24,1.22,2.47,2.44,3.71,3.65c-1.21,1.19-2.43,2.38-3.65,3.57C75.32,94.18,74.09,92.96,72.87,91.73z M71.57,83.27
			c-1.21,1.19-2.43,2.39-3.64,3.58c-1.24-1.22-2.48-2.44-3.71-3.66c1.22-1.21,2.43-2.43,3.64-3.64
			C69.1,80.78,70.34,82.03,71.57,83.27z M62.83,83.19c-1.22,1.2-2.44,2.39-3.66,3.59c-1.18-1.17-2.37-2.34-3.55-3.5
			c1.22-1.22,2.43-2.45,3.65-3.68C60.46,80.8,61.64,82,62.83,83.19z M58.44,87.5c-1.23,1.2-2.45,2.41-3.68,3.61
			c-1.17-1.15-2.33-2.31-3.49-3.46c1.22-1.22,2.44-2.45,3.66-3.67C56.1,85.15,57.27,86.32,58.44,87.5z M50.53,86.93
			c-1.21-1.2-2.43-2.4-3.64-3.61c1.23-1.24,2.46-2.48,3.69-3.72c1.22,1.23,2.43,2.45,3.65,3.68C53,84.49,51.77,85.71,50.53,86.93z
			 M45.5,83.31c-1.21,1.19-2.42,2.39-3.63,3.58c-1.21-1.2-2.42-2.39-3.63-3.59c1.21-1.22,2.42-2.44,3.64-3.65
			C43.08,80.87,44.29,82.1,45.5,83.31z M36.82,83.27c-1.21,1.2-2.43,2.4-3.65,3.59c-1.2-1.18-2.4-2.36-3.6-3.55
			c1.22-1.22,2.44-2.44,3.66-3.66C34.42,80.86,35.62,82.07,36.82,83.27z M36.77,91.94c-1.23,1.23-2.46,2.47-3.69,3.7
			c-1.21-1.2-2.41-2.4-3.62-3.6c1.25-1.23,2.5-2.46,3.75-3.69C34.39,89.54,35.58,90.74,36.77,91.94z M37.52,92.7
			c1.19,1.2,2.39,2.4,3.58,3.6c-1.23,1.23-2.46,2.47-3.7,3.7c-1.18-1.19-2.36-2.38-3.54-3.58c-0.02-0.02-0.04-0.04-0.06-0.06
			C35.04,95.14,36.28,93.92,37.52,92.7z M33.1,97.18c1.19,1.18,2.38,2.37,3.58,3.56c-1.17,1.17-2.34,2.35-3.51,3.53
			c-1.12-1.12-2.23-2.25-3.35-3.37c-0.1-0.1-0.2-0.2-0.3-0.3c1.17-1.16,2.35-2.32,3.52-3.48C33.06,97.14,33.08,97.16,33.1,97.18z
			 M37.37,101.43c1.17,1.16,2.34,2.32,3.51,3.49c-1.18,1.18-2.37,2.36-3.55,3.55c-1.17-1.18-2.34-2.37-3.51-3.55
			C35,103.76,36.19,102.6,37.37,101.43z M36.63,109.17c-0.11,0.11-0.22,0.22-0.33,0.33l-3.42,3.46c-1.18-1.21-2.36-2.43-3.54-3.64
			c1.25-1.22,2.49-2.45,3.74-3.67C34.26,106.83,35.44,108,36.63,109.17z M36.89,110.09c0.12-0.11,0.23-0.22,0.34-0.34
			c1.32,1.3,2.63,2.59,3.96,3.88l-3.87,3.93c-0.48-0.5-0.95-1.01-1.43-1.5c-0.83-0.87-1.67-1.73-2.51-2.59L36.89,110.09z
			 M37.93,109.07c1.2-1.17,2.4-2.34,3.6-3.51c1.28,1.27,2.57,2.54,3.85,3.81c-0.07,0.07-0.14,0.14-0.21,0.21l-3.37,3.43
			C40.51,111.7,39.22,110.38,37.93,109.07z M45.76,110.17c0.07-0.07,0.15-0.14,0.22-0.21c0.77,0.76,1.53,1.52,2.3,2.27l1.19,1.16
			l-3.7,3.71c-0.98-1.01-1.96-2.04-2.95-3.05c-0.17-0.18-0.35-0.35-0.52-0.53L45.76,110.17z M48.86,111.64
			c-0.75-0.77-1.51-1.53-2.26-2.3c1.27-1.23,2.53-2.48,3.79-3.72c1.14,1.14,2.27,2.28,3.41,3.42c-0.19,0.19-0.37,0.37-0.56,0.56
			l-3.23,3.24L48.86,111.64z M53.83,110.19c0.19-0.18,0.38-0.37,0.57-0.55l3.97,3.92l-3.86,3.91l-4-4.12L53.83,110.19z M55,109.06
			c1.32-1.27,2.63-2.54,3.95-3.81c1.29,1.27,2.59,2.55,3.88,3.82c-0.89,0.89-1.79,1.78-2.68,2.68l-1.3,1.32L55,109.06z
			 M64.21,109.27c-0.05-0.05-0.11-0.11-0.16-0.16c1.24-1.21,2.48-2.41,3.72-3.62c1.31,1.29,2.62,2.58,3.93,3.87
			c-1.24,1.26-2.47,2.51-3.7,3.77L64.21,109.27z M68.43,104.85c1.26-1.23,2.52-2.46,3.77-3.69c1.28,1.27,2.57,2.52,3.86,3.79
			c-1.26,1.27-2.51,2.54-3.77,3.81C71.01,107.45,69.71,106.15,68.43,104.85z M72.91,100.47c1.09-1.07,2.19-2.14,3.28-3.21
			c0.13-0.13,0.25-0.25,0.38-0.38c1.26,1.25,2.53,2.49,3.79,3.74c-0.05,0.05-0.09,0.09-0.14,0.14c-1.17,1.18-2.34,2.36-3.51,3.54
			C75.44,103.02,74.18,101.74,72.91,100.47z M80.98,101.52c0.05-0.05,0.1-0.1,0.14-0.14c1.15,1.14,2.31,2.27,3.47,3.4
			c-0.14,0.14-0.29,0.28-0.43,0.42c-1.1,1.09-2.2,2.19-3.3,3.29c-1.14-1.15-2.28-2.3-3.42-3.45
			C78.62,103.86,79.8,102.69,80.98,101.52z M81.8,100.69c1.22-1.22,2.43-2.45,3.65-3.67c1.17,1.15,2.35,2.31,3.53,3.46
			c-1.25,1.22-2.5,2.45-3.74,3.67C84.09,102.99,82.95,101.84,81.8,100.69z M81.05,99.93c-1.25-1.26-2.51-2.51-3.76-3.77
			c1.21-1.2,2.41-2.4,3.62-3.61c1.26,1.25,2.53,2.49,3.8,3.74C83.49,97.5,82.27,98.71,81.05,99.93z M81.63,91.83
			c1.21-1.2,2.41-2.41,3.61-3.61c1.27,1.25,2.55,2.5,3.83,3.75c-1.23,1.21-2.46,2.42-3.68,3.63C84.14,94.35,82.89,93.09,81.63,91.83
			z M80.92,91.12c-1.23-1.23-2.45-2.46-3.68-3.69c1.2-1.18,2.4-2.37,3.6-3.55c1.24,1.23,2.48,2.45,3.72,3.68
			C83.35,88.74,82.13,89.93,80.92,91.12z M81.61,83.12c1.2-1.18,2.4-2.37,3.59-3.56c1.25,1.24,2.51,2.48,3.76,3.71
			c-1.22,1.18-2.44,2.37-3.65,3.55C84.08,85.59,82.84,84.36,81.61,83.12z M85.34,78.19c-1.23-1.22-2.47-2.44-3.7-3.65l3.58-3.64
			c1.25,1.27,2.51,2.53,3.76,3.78l-0.71,0.68C87.29,76.3,86.32,77.24,85.34,78.19z M80.33,74.69l-0.1,0.09
			c-1.19,1.15-2.37,2.32-3.55,3.48c-1.27-1.25-2.54-2.49-3.81-3.74l3.65-3.69C77.79,72.12,79.06,73.41,80.33,74.69z M71.63,74.62
			l-0.21,0.2c-1.17,1.13-2.33,2.28-3.5,3.41c-1.23-1.21-2.47-2.42-3.7-3.62l3.69-3.76C69.14,72.11,70.38,73.37,71.63,74.62z
			 M61.11,72.72c0.63,0.65,1.28,1.29,1.91,1.93c-1.25,1.22-2.49,2.45-3.74,3.67c-1.25-1.23-2.5-2.47-3.76-3.69l3.74-3.81
			L61.11,72.72z M58.63,78.96c-1.23,1.21-2.47,2.42-3.7,3.64c-1.23-1.22-2.47-2.43-3.71-3.64c1.23-1.24,2.47-2.48,3.7-3.73
			C56.15,76.47,57.39,77.71,58.63,78.96z M50.58,78.32c-1.25-1.22-2.49-2.46-3.74-3.68c0.64-0.64,1.28-1.28,1.91-1.93l1.86-1.9
			l3.74,3.81C53.08,75.86,51.83,77.09,50.58,78.32z M45.63,74.61c-1.27,1.24-2.54,2.48-3.8,3.73c-1.18-1.17-2.36-2.34-3.55-3.5
			l-0.14-0.13c1.27-1.28,2.54-2.56,3.8-3.85L45.63,74.61z M36.89,74.6c-1.25,1.23-2.5,2.45-3.75,3.68c-1.22-1.2-2.43-2.4-3.65-3.59
			c1.26-1.27,2.51-2.54,3.76-3.82L36.89,74.6z M28.17,74.55c-1.24,1.23-2.49,2.45-3.73,3.68c-0.01,0.01-0.01,0.01-0.02,0.02
			c-1.2-1.18-2.39-2.35-3.6-3.52c1.27-1.27,2.53-2.54,3.79-3.81L28.17,74.55z M25.21,78.98c1.23-1.23,2.46-2.47,3.68-3.7
			c1.2,1.22,2.4,2.42,3.6,3.63c-1.23,1.21-2.46,2.43-3.69,3.64c-1.2-1.19-2.41-2.38-3.61-3.56C25.2,78.99,25.2,78.99,25.21,78.98z
			 M28.12,83.25c-1.25,1.25-2.5,2.5-3.74,3.75c-1.21-1.2-2.42-2.4-3.64-3.6c1.27-1.25,2.53-2.5,3.8-3.75
			C25.73,80.85,26.92,82.05,28.12,83.25z M28.88,84.01c1.19,1.19,2.38,2.39,3.57,3.58c-1.24,1.24-2.48,2.49-3.72,3.73
			c-1.2-1.2-2.41-2.39-3.62-3.59C26.37,86.49,27.62,85.25,28.88,84.01z M28.01,92.04c-1.18,1.18-2.36,2.37-3.54,3.56
			c-1.23-1.21-2.46-2.42-3.69-3.63c1.21-1.19,2.43-2.38,3.64-3.57C25.62,89.61,26.82,90.83,28.01,92.04z M28.73,92.76
			c1.2,1.21,2.4,2.42,3.59,3.64c-1.17,1.17-2.34,2.34-3.5,3.51c-1.22-1.21-2.44-2.42-3.66-3.63C26.35,95.1,27.54,93.93,28.73,92.76z
			 M28.07,100.67c-1.22,1.22-2.43,2.45-3.65,3.68c-1.23-1.24-2.47-2.47-3.71-3.71c1.24-1.21,2.48-2.42,3.71-3.64
			C25.63,98.22,26.85,99.44,28.07,100.67z M28.75,101.35c0.1,0.1,0.2,0.2,0.3,0.3c1.13,1.12,2.25,2.24,3.38,3.36
			c-1.23,1.24-2.46,2.47-3.69,3.71c-1.18-1.2-2.36-2.4-3.54-3.6c-0.05-0.05-0.1-0.1-0.15-0.15
			C26.29,103.77,27.52,102.56,28.75,101.35z M24.43,105.88c1.19,1.2,2.39,2.39,3.58,3.58l-3.4,3.47c-1.17-1.18-2.34-2.35-3.51-3.52
			c-0.09-0.09-0.19-0.18-0.28-0.28l0.41-0.39c1.02-1,2.04-2,3.06-3C24.34,105.78,24.38,105.83,24.43,105.88z M28.6,110.05
			c1.2,1.2,2.41,2.39,3.62,3.58l-3.48,3.52c-1.21-1.24-2.42-2.48-3.63-3.71L28.6,110.05z M32.71,114.11
			c0.86,0.85,1.71,1.7,2.58,2.54c0.5,0.49,1,0.97,1.5,1.45l-0.28,0.29c-1.1,1.14-2.2,2.27-3.3,3.41c-1.16-1.23-2.33-2.46-3.51-3.67
			c-0.18-0.19-0.37-0.38-0.56-0.57L32.71,114.11z M36.88,118.76l0.29-0.28c1.23,1.19,2.46,2.39,3.7,3.57
			c-1.28,1.3-2.54,2.6-3.81,3.9c-1.2-1.31-2.4-2.61-3.62-3.91C34.59,120.95,35.73,119.85,36.88,118.76z M37.7,117.97l3.98-3.85
			c0.18,0.18,0.36,0.35,0.54,0.53c1.01,0.99,2.04,1.96,3.05,2.95l-0.68,0.68c-1.12,1.14-2.24,2.28-3.36,3.41
			C40.07,120.44,38.88,119.2,37.7,117.97z M44.96,118.64l0.7-0.67c1.43,1.38,2.87,2.77,4.31,4.14c-1.42,1.47-2.84,2.94-4.25,4.42
			c-1.41-1.54-2.83-3.08-4.26-4.6C42.63,120.84,43.8,119.74,44.96,118.64z M46.16,117.51l3.81-3.63l4.13,4.03l-1.51,1.54
			c-0.76,0.79-1.53,1.58-2.29,2.36C48.92,120.36,47.54,118.93,46.16,117.51z M56.29,119.32l-1.36-1.41l3.97-3.82l4.1,4.05
			c0.03,0.03,0.05,0.05,0.08,0.08c-1.31,1.36-2.62,2.73-3.92,4.1C58.2,121.32,57.25,120.32,56.29,119.32z M63.89,118.31
			c1.34-1.29,2.68-2.58,4.01-3.88c0.07-0.07,0.15-0.14,0.22-0.21l3.6,3.5c-1.42,1.45-2.84,2.91-4.24,4.38
			C66.29,120.83,65.09,119.57,63.89,118.31z M68.6,113.75c1.27-1.23,2.52-2.47,3.78-3.71c0.04,0.04,0.07,0.07,0.11,0.11l3.41,3.32
			c-0.89,0.9-1.79,1.8-2.67,2.7c-0.38,0.38-0.75,0.77-1.13,1.16L68.6,113.75z M73.08,109.56c-0.03-0.04-0.07-0.07-0.1-0.1
			c1.28-1.26,2.55-2.52,3.82-3.78c1.15,1.13,2.31,2.27,3.47,3.4c-1.29,1.29-2.57,2.58-3.86,3.88L73.08,109.56z M81,109.8
			c0.07,0.07,0.14,0.13,0.2,0.2l3.53,3.43c-1.32,1.33-2.63,2.67-3.93,4.02l-3.74-3.82C78.38,112.36,79.69,111.08,81,109.8z
			 M81.79,109.42c-0.07-0.07-0.13-0.13-0.2-0.2c1.11-1.09,2.22-2.17,3.33-3.26c0.14-0.14,0.29-0.29,0.43-0.43
			c1.09,1.07,2.18,2.15,3.27,3.21l0.41,0.39c-0.09,0.09-0.19,0.19-0.28,0.28c-1.17,1.17-2.34,2.35-3.51,3.53L81.79,109.42z
			 M89.51,110.17c0.1-0.1,0.19-0.19,0.29-0.29l3.63,3.52c-0.15,0.15-0.31,0.3-0.46,0.45c-1.15,1.15-2.3,2.31-3.44,3.47l-3.58-3.65
			C87.15,112.5,88.33,111.34,89.51,110.17z M90.36,109.32c1.27-1.27,2.54-2.54,3.8-3.82l3.71,3.59c-1.33,1.27-2.65,2.56-3.96,3.85
			L90.36,109.32z M89.61,108.56l-0.4-0.41c-1.07-1.09-2.15-2.17-3.23-3.25c1.24-1.24,2.49-2.47,3.72-3.71
			c0.43,0.42,0.86,0.85,1.3,1.27l2.43,2.34C92.15,106.05,90.88,107.3,89.61,108.56z M91.59,101.87c-0.42-0.43-0.85-0.86-1.28-1.29
			c1.25-1.25,2.49-2.51,3.73-3.77c1.28,1.24,2.56,2.46,3.85,3.69c-0.12,0.12-0.25,0.23-0.37,0.35c-1.19,1.14-2.38,2.29-3.56,3.44
			L91.59,101.87z M89.6,99.86c-1.16-1.17-2.32-2.35-3.48-3.52c1.22-1.23,2.43-2.46,3.64-3.7c1.15,1.13,2.31,2.26,3.47,3.38
			c0.06,0.06,0.11,0.11,0.17,0.16C92.13,97.41,90.86,98.63,89.6,99.86z M93.82,95.43c-1.13-1.16-2.27-2.3-3.41-3.46
			c1.16-1.18,2.32-2.36,3.48-3.54c0.06-0.06,0.12-0.12,0.18-0.18c0.46,0.44,0.92,0.89,1.38,1.34c0.81,0.78,1.62,1.55,2.43,2.32
			c-0.87,0.83-1.75,1.65-2.62,2.49c-0.42,0.4-0.84,0.81-1.26,1.22C93.94,95.55,93.88,95.49,93.82,95.43z M93.29,87.84
			c-1.18,1.15-2.36,2.31-3.54,3.47c-1.26-1.27-2.52-2.55-3.78-3.81c1.2-1.2,2.41-2.41,3.61-3.61c1.29,1.27,2.59,2.53,3.89,3.78
			C93.41,87.73,93.35,87.78,93.29,87.84z M90.31,83.16c0.38-0.39,0.77-0.77,1.16-1.16l2.44-2.48c1.25,1.22,2.51,2.44,3.78,3.65
			c0.07,0.07,0.15,0.14,0.22,0.21c-1.26,1.22-2.53,2.43-3.79,3.66C92.85,85.74,91.58,84.45,90.31,83.16z M90.88,81.41
			c-0.39,0.38-0.78,0.76-1.17,1.14c-1.24-1.25-2.49-2.5-3.74-3.75c0.96-0.96,1.93-1.9,2.89-2.86l0.7-0.7
			c1.27,1.26,2.55,2.52,3.83,3.77L90.88,81.41z M90.31,74.48l3.57-3.58c1.31,1.29,2.62,2.57,3.94,3.84l-3.72,3.57
			C92.85,77.03,91.58,75.76,90.31,74.48z M89.76,73.94c-1.27-1.26-2.55-2.52-3.83-3.77l3.55-3.61c0.02-0.02,0.03-0.03,0.05-0.05
			c1.25,1.28,2.5,2.54,3.76,3.81c0.04,0.04,0.09,0.09,0.13,0.13L89.76,73.94z M94.05,69.56c-1.27-1.26-2.55-2.51-3.84-3.75
			c1.21-1.25,2.42-2.49,3.62-3.74c1.22,1.31,2.48,2.6,3.74,3.87c0.1,0.09,0.19,0.19,0.29,0.28c-0.24,0.23-0.49,0.46-0.73,0.69
			l-2.94,2.8C94.15,69.65,94.1,69.61,94.05,69.56z M85.48,61.34c-1.12-1.03-2.26-2.06-3.41-3.07c2.26-0.02,4.51-0.06,6.77-0.1
			C87.72,59.23,86.6,60.28,85.48,61.34z M80.51,66.06c-0.07,0.07-0.14,0.13-0.21,0.2l-3.6,3.47c-0.58-0.57-1.16-1.14-1.75-1.7
			c-0.73-0.71-1.48-1.4-2.21-2.11c1.28-1.33,2.57-2.65,3.85-3.98C77.89,63.32,79.19,64.7,80.51,66.06z M72.38,65.57
			c-1.39-1.32-2.78-2.64-4.18-3.95c1.08-1.12,2.16-2.25,3.24-3.38c0.59,0.01,1.18,0.01,1.77,0.02c1.05,1.16,2.12,2.31,3.18,3.46
			C75.06,63.01,73.72,64.29,72.38,65.57z M71.88,66.05l-3.86,3.74c-1.33-1.29-2.67-2.56-4-3.84c1.3-1.35,2.6-2.69,3.91-4.04
			C69.24,63.29,70.56,64.67,71.88,66.05z M63.21,66.02l-3.92,3.8l-3.97-3.84l0.79-0.81c1.05-1.1,2.1-2.19,3.15-3.28
			C60.58,63.28,61.89,64.65,63.21,66.02z M58.77,70.33l-3.84,3.73l-3.84-3.73l3.84-3.93L58.77,70.33z M50.56,69.82l-3.92-3.8
			c1.32-1.37,2.64-2.74,3.95-4.12c1.05,1.09,2.1,2.18,3.15,3.28l0.79,0.81L50.56,69.82z M45.83,65.95c-1.34,1.28-2.67,2.55-4,3.84
			l-3.87-3.76c1.32-1.37,2.65-2.75,3.96-4.14C43.21,63.24,44.52,64.59,45.83,65.95z M37.44,65.54c-1.33-1.27-2.65-2.54-3.98-3.8
			c1.21-1.29,2.4-2.59,3.59-3.9c0.31-0.01,0.62-0.02,0.93-0.03c1.2,1.27,2.41,2.53,3.63,3.78C40.22,62.9,38.83,64.22,37.44,65.54z
			 M37.08,65.89c-0.64,0.61-1.29,1.22-1.92,1.83c-0.7,0.68-1.4,1.36-2.1,2.04l-3.59-3.5c-0.06-0.05-0.11-0.11-0.17-0.16
			c1.33-1.38,2.65-2.76,3.96-4.16C34.54,63.26,35.81,64.57,37.08,65.89z M28.35,65.87c-1.34,1.28-2.67,2.56-3.99,3.86l-3.69-3.58
			c0.73-0.75,1.46-1.5,2.18-2.26c0.6-0.62,1.18-1.26,1.77-1.89C25.87,63.29,27.11,64.58,28.35,65.87z M22.26,63.3
			c-0.77,0.72-1.52,1.45-2.28,2.18c-1.26-1.2-2.52-2.41-3.77-3.61c0.06-0.06,0.12-0.12,0.17-0.18c1.08-1.16,2.12-2.35,3.14-3.57
			c0.47,0.01,0.94,0.01,1.41,0.02c1.08,1.14,2.16,2.27,3.25,3.39C23.53,62.12,22.89,62.7,22.26,63.3z M19.62,65.82
			c-1.28,1.24-2.56,2.48-3.83,3.74c-0.05,0.05-0.1,0.1-0.15,0.15l-3.53-3.42c-0.03-0.03-0.07-0.07-0.1-0.1
			c0.09-0.08,0.17-0.17,0.26-0.25c1.26-1.27,2.51-2.55,3.73-3.86C17.21,63.32,18.42,64.57,19.62,65.82z M16.56,70.32
			c1.25-1.26,2.5-2.52,3.74-3.79l3.59,3.66c-1.29,1.26-2.57,2.52-3.85,3.79l-3.63-3.52C16.47,70.41,16.52,70.36,16.56,70.32z
			 M19.49,74.54c-1.28,1.29-2.57,2.57-3.84,3.87l-3.69-3.6c1.34-1.28,2.67-2.58,3.99-3.88L19.49,74.54z M20.23,75.3
			c1.18,1.2,2.36,2.4,3.55,3.59c-1.26,1.26-2.52,2.52-3.77,3.79c-0.44-0.43-0.87-0.87-1.31-1.3l-2.33-2.27
			C17.66,77.84,18.95,76.57,20.23,75.3z M18.1,81.96c0.43,0.44,0.87,0.88,1.3,1.32c-1.23,1.24-2.45,2.49-3.67,3.74
			c-1.26-1.22-2.52-2.44-3.79-3.65c0.11-0.1,0.22-0.2,0.32-0.3c1.2-1.14,2.38-2.29,3.57-3.45L18.1,81.96z M20.12,84.01
			c1.19,1.22,2.39,2.44,3.59,3.65c-1.2,1.21-2.4,2.42-3.6,3.63c-1.15-1.13-2.3-2.26-3.46-3.39c-0.09-0.09-0.18-0.17-0.27-0.26
			C17.63,86.44,18.88,85.23,20.12,84.01z M16.05,88.5c1.13,1.16,2.27,2.31,3.4,3.46c-1.14,1.16-2.29,2.31-3.42,3.47
			c-0.1,0.1-0.19,0.2-0.29,0.3c-0.46-0.46-0.92-0.92-1.39-1.37c-0.82-0.8-1.64-1.59-2.46-2.38c0.87-0.83,1.74-1.65,2.61-2.49
			c0.43-0.42,0.86-0.84,1.29-1.26C15.88,88.32,15.96,88.41,16.05,88.5z M16.63,96.03c1.17-1.13,2.32-2.26,3.48-3.39
			c1.21,1.23,2.43,2.47,3.64,3.69c-1.22,1.23-2.44,2.46-3.66,3.69c-1.25-1.24-2.51-2.47-3.76-3.71
			C16.43,96.21,16.53,96.12,16.63,96.03z M19.38,100.74c-0.37,0.38-0.75,0.75-1.12,1.13l-2.37,2.42c-1.18-1.15-2.36-2.3-3.56-3.44
			c-0.12-0.12-0.25-0.23-0.37-0.35c1.24-1.19,2.48-2.38,3.72-3.57C16.91,98.21,18.14,99.48,19.38,100.74z M18.84,102.46
			c0.38-0.37,0.75-0.74,1.13-1.11c1.23,1.25,2.46,2.5,3.69,3.75c-1.01,1.02-2.02,2.03-3.03,3.05l-0.4,0.41
			c-1.27-1.25-2.54-2.51-3.82-3.75L18.84,102.46z M19.49,109.32l-3.55,3.62c-1.31-1.29-2.63-2.57-3.96-3.85l3.71-3.59
			C16.96,106.78,18.22,108.05,19.49,109.32z M20.05,109.88c0.1,0.1,0.19,0.19,0.29,0.29c1.18,1.17,2.37,2.33,3.55,3.5l-3.58,3.65
			c-1.14-1.16-2.28-2.32-3.43-3.47c-0.15-0.15-0.3-0.3-0.46-0.45L20.05,109.88z M16.11,114.61c1.16,1.15,2.32,2.29,3.49,3.42
			l-0.19,0.2c-1.13,1.18-2.27,2.35-3.41,3.52c-1.18-1.25-2.38-2.48-3.59-3.7c-0.13-0.13-0.27-0.26-0.4-0.39
			c0.2-0.19,0.39-0.37,0.58-0.56l3.05-2.96C15.8,114.3,15.95,114.46,16.11,114.61z M23.29,120.39c-0.86-0.9-1.72-1.79-2.59-2.68
			l3.68-3.57c1.24,1.22,2.49,2.42,3.75,3.63l-0.5,0.5c-1.07,1.11-2.15,2.21-3.22,3.31C24.03,121.19,23.66,120.79,23.29,120.39z
			 M28,118.65l0.52-0.5c0.2,0.19,0.39,0.38,0.58,0.56c1.22,1.18,2.46,2.34,3.7,3.49c-1.34,1.38-2.68,2.77-4.01,4.17
			c-1.36-1.54-2.74-3.05-4.15-4.54C25.76,120.78,26.88,119.71,28,118.65z M37.02,126.09c0.21,0.19,0.42,0.39,0.64,0.58l-1.28,0.01
			C36.6,126.48,36.81,126.28,37.02,126.09z M37.11,126c1.34-1.24,2.67-2.48,4-3.73c1.52,1.44,3.04,2.88,4.58,4.31
			c-0.01,0.01-0.01,0.01-0.02,0.02l-7.94,0.07C37.52,126.45,37.31,126.23,37.11,126z M45.76,126.57c1.5-1.39,2.99-2.8,4.48-4.21
			c1.46,1.39,2.93,2.78,4.4,4.15l-8.86,0.08C45.78,126.59,45.77,126.58,45.76,126.57z M59.18,122.82c1.26,1.21,2.52,2.41,3.79,3.61
			c-2.57,0.03-5.13,0.06-7.7,0.09C56.58,125.29,57.88,124.05,59.18,122.82z M67.62,122.64c1.27,1.24,2.55,2.48,3.84,3.71
			c-2.64,0.02-5.29,0.04-7.93,0.07C64.89,125.16,66.26,123.9,67.62,122.64z M67.82,122.45c1.49-1.39,2.97-2.8,4.45-4.21l0.16,0.15
			c1.3,1.24,2.6,2.49,3.91,3.74c-1.31,1.39-2.61,2.79-3.9,4.21c-0.32,0-0.63,0-0.95,0.01C70.27,125.04,69.04,123.74,67.82,122.45z
			 M72.79,118.02l-0.14-0.15c0.39-0.37,0.79-0.74,1.18-1.12c0.92-0.88,1.83-1.77,2.74-2.65l3.85,3.74
			c-0.09,0.09-0.18,0.18-0.27,0.27c-1.21,1.25-2.41,2.51-3.61,3.78C75.29,120.61,74.04,119.32,72.79,118.02z M81.68,118.34
			l-0.26-0.27c1.36-1.3,2.71-2.61,4.06-3.93l3.68,3.57c-0.87,0.89-1.74,1.78-2.59,2.68c-0.48,0.5-0.96,1.02-1.43,1.53
			C83.98,120.73,82.82,119.54,81.68,118.34z M90.44,118.23l-0.19-0.2c1.17-1.14,2.34-2.28,3.5-3.43c0.15-0.15,0.31-0.31,0.46-0.46
			l3.05,2.96c0.2,0.19,0.39,0.37,0.58,0.56c-0.13,0.13-0.27,0.26-0.4,0.39c-1.21,1.22-2.41,2.45-3.59,3.7
			C92.71,120.58,91.57,119.41,90.44,118.23z M98.59,109.79c1.26,1.19,2.52,2.39,3.78,3.59c-0.16,0.15-0.33,0.3-0.5,0.45
			c-1.25,1.14-2.46,2.32-3.67,3.5c-0.19-0.2-0.38-0.39-0.57-0.59l-2.98-3.04c1.3-1.31,2.6-2.63,3.89-3.96L98.59,109.79z
			 M102.43,104.81c-0.96,0.88-1.92,1.77-2.87,2.66c-0.43,0.41-0.86,0.82-1.29,1.23L94.65,105c1.16-1.18,2.32-2.36,3.46-3.55
			c0.12-0.13,0.24-0.25,0.36-0.38C99.79,102.32,101.11,103.56,102.43,104.81z M102.45,96.22c-1.38,1.28-2.75,2.57-4.11,3.87
			c-1.24-1.28-2.48-2.57-3.73-3.84c0.41-0.42,0.83-0.84,1.24-1.26c0.85-0.86,1.68-1.74,2.53-2.6
			C99.73,93.67,101.08,94.95,102.45,96.22z M102.43,87.63c-1.35,1.26-2.7,2.53-4.04,3.8c-0.78-0.81-1.56-1.63-2.34-2.43
			c-0.45-0.46-0.91-0.92-1.36-1.38c1.23-1.26,2.45-2.53,3.68-3.81C99.7,85.09,101.06,86.36,102.43,87.63z M99.75,76.58
			c0.88,0.84,1.78,1.66,2.68,2.48c-1.31,1.24-2.62,2.49-3.93,3.74c-0.07-0.08-0.14-0.15-0.22-0.23c-1.22-1.26-2.45-2.52-3.68-3.77
			l3.63-3.68C98.74,75.61,99.24,76.1,99.75,76.58z M101.85,70.02c0.16,0.15,0.33,0.3,0.5,0.45c-1.23,1.16-2.45,2.32-3.68,3.48
			l-0.15,0.15c-1.28-1.32-2.57-2.63-3.87-3.94l2.87-2.87c0.24-0.24,0.47-0.48,0.71-0.72C99.41,67.73,100.61,68.89,101.85,70.02z
			 M100.06,59.59c0.64,0.74,1.3,1.46,1.99,2.15c0.09,0.09,0.19,0.18,0.28,0.27c-1.23,1.16-2.46,2.31-3.69,3.47
			c-0.1-0.1-0.2-0.21-0.3-0.31c-1.28-1.26-2.58-2.51-3.9-3.73c1.14-1.17,2.27-2.35,3.39-3.53c0.3-0.01,0.6-0.02,0.9-0.03
			C99.15,58.47,99.59,59.05,100.06,59.59z M80.01,58.3c-1.1,1.03-2.19,2.07-3.28,3.11c-1.14-1.06-2.3-2.11-3.46-3.15
			C75.52,58.29,77.76,58.3,80.01,58.3z M71.38,58.24c-1.13,1.06-2.25,2.13-3.37,3.2c-1.19-1.11-2.37-2.21-3.57-3.31
			c1.09,0.02,2.19,0.05,3.28,0.06C68.94,58.21,70.16,58.23,71.38,58.24z M55.47,57.9c1.19,1.26,2.38,2.52,3.58,3.77
			c-1.1,1.05-2.2,2.1-3.3,3.14l-0.82,0.79l-0.82-0.79c-1.1-1.04-2.2-2.09-3.3-3.14c1.2-1.27,2.41-2.53,3.61-3.8
			c0.16,0.01,0.33,0.01,0.49,0.01C55.09,57.88,55.28,57.89,55.47,57.9z M45.81,57.69c-1.34,1.23-2.67,2.47-4,3.72
			c-1.26-1.21-2.53-2.41-3.8-3.6c1.36-0.05,2.72-0.09,4.09-0.1C43.33,57.68,44.57,57.68,45.81,57.69z M37,57.84
			c-1.31,1.18-2.61,2.36-3.9,3.55c-1.15-1.1-2.31-2.2-3.47-3.29l6.06-0.21C36.13,57.87,36.56,57.85,37,57.84z M27.95,58.13
			c-1.21,1.06-2.41,2.14-3.6,3.23c-1.13-1.08-2.25-2.16-3.39-3.23C23.29,58.16,25.62,58.16,27.95,58.13z M19.2,58.11
			c-1.17,0.97-2.31,1.96-3.42,2.98c-0.07,0.06-0.13,0.12-0.2,0.18c-1.17-1.12-2.34-2.23-3.52-3.34c1.47,0.05,2.94,0.09,4.41,0.13
			C17.38,58.08,18.29,58.1,19.2,58.11z M7.58,61.95c0.07-0.07,0.14-0.13,0.21-0.2c0.69-0.69,1.36-1.41,1.99-2.15
			c0.46-0.54,0.9-1.1,1.31-1.69c0.31,0.01,0.63,0.02,0.94,0.03c1.12,1.18,2.24,2.35,3.37,3.51c-1.32,1.22-2.61,2.47-3.9,3.73
			c-0.09,0.09-0.18,0.18-0.27,0.27C10.02,64.28,8.8,63.11,7.58,61.95z M11.05,73.92c-1.19-1.14-2.38-2.29-3.58-3.43
			c0.18-0.16,0.36-0.32,0.53-0.48c1.24-1.13,2.45-2.3,3.65-3.47c0.03,0.04,0.07,0.07,0.1,0.11l3.45,3.51
			c-1.32,1.32-2.62,2.65-3.92,3.98L11.05,73.92z M7.42,79.06c0.9-0.82,1.8-1.64,2.68-2.48c0.49-0.46,0.96-0.92,1.45-1.38l3.6,3.72
			c-1.16,1.18-2.33,2.37-3.48,3.56c-0.11,0.11-0.21,0.22-0.31,0.33C10.05,81.55,8.74,80.3,7.42,79.06z M7.38,87.66
			c1.38-1.28,2.75-2.57,4.12-3.86c1.22,1.27,2.45,2.54,3.68,3.8c-0.42,0.43-0.85,0.86-1.28,1.3c-0.84,0.86-1.67,1.74-2.51,2.6
			C10.06,90.21,8.72,88.93,7.38,87.66z M7.4,96.21c1.33-1.25,2.66-2.5,3.98-3.76c0.79,0.83,1.57,1.67,2.37,2.49
			c0.46,0.47,0.92,0.94,1.37,1.42c-1.21,1.23-2.41,2.48-3.61,3.72C10.15,98.78,8.78,97.49,7.4,96.21z M10.29,107.47
			c-0.95-0.9-1.91-1.78-2.87-2.66c1.32-1.24,2.64-2.49,3.96-3.74c0.12,0.13,0.24,0.26,0.36,0.38c1.15,1.19,2.31,2.37,3.46,3.55
			l-3.62,3.71C11.15,108.29,10.72,107.88,10.29,107.47z M7.98,113.82c-0.16-0.15-0.33-0.3-0.5-0.45c1.26-1.2,2.51-2.4,3.78-3.59
			l0.05-0.05c1.29,1.33,2.58,2.65,3.89,3.96l-2.98,3.04c-0.19,0.2-0.38,0.39-0.57,0.59C10.45,116.14,9.23,114.96,7.98,113.82z
			 M10.16,124.63c-0.68-0.79-1.38-1.55-2.12-2.27c-0.15-0.15-0.31-0.3-0.47-0.45c1.22-1.17,2.45-2.33,3.67-3.5
			c0.14,0.14,0.27,0.28,0.41,0.42c1.23,1.21,2.47,2.41,3.73,3.58c-1.28,1.33-2.56,2.66-3.83,3.99
			C11.1,125.78,10.64,125.19,10.16,124.63z M11.37,126.63c0.15,0.11,0.3,0.22,0.46,0.32l-0.81,0.01
			C11.13,126.85,11.25,126.74,11.37,126.63z M20.52,126.84c-0.17-0.21-0.35-0.41-0.52-0.62c1.38-1.3,2.76-2.6,4.13-3.9
			c1.5,1.4,3.03,2.78,4.58,4.14c-0.09,0.1-0.18,0.19-0.28,0.29l-0.57,0.01L20.52,126.84z M72.56,126.34
			c1.4-1.26,2.79-2.54,4.17-3.82c1.34,1.28,2.68,2.56,4.03,3.83C78.03,126.32,75.29,126.32,72.56,126.34z M81.27,126.35
			c1.39-1.22,2.76-2.46,4.12-3.72c1.34,1.28,2.68,2.56,4.02,3.83c-2.48-0.04-4.97-0.08-7.45-0.11
			C81.73,126.35,81.5,126.35,81.27,126.35z M89.86,126.47c1.34-1.1,2.64-2.25,3.92-3.42c0.16-0.15,0.32-0.3,0.48-0.45
			c1.34,1.28,2.68,2.55,4.03,3.82c-0.06,0.08-0.12,0.16-0.17,0.24l-2.62-0.08C93.61,126.54,91.73,126.51,89.86,126.47z"/>
		<path class="st0" d="M3.42,50.63H1.05C0.47,50.63,0,51.11,0,51.7v75.18c0,0.59,0.47,1.07,1.05,1.07h2.37
			c0.58,0,1.05-0.48,1.05-1.07V51.7C4.47,51.11,4,50.63,3.42,50.63z M2.85,126.34H1.62V52.25h1.22V126.34z"/>
		<path class="st0" d="M108.77,50.63h-2.37c-0.58,0-1.05,0.48-1.05,1.07v75.18c0,0.59,0.47,1.07,1.05,1.07h2.37
			c0.58,0,1.05-0.48,1.05-1.07V51.7C109.82,51.11,109.35,50.63,108.77,50.63z M108.19,126.34h-1.22V52.25h1.22V126.34z"/>
	</g>
</g>
</svg>
