<?xml version="1.0" encoding="utf-8"?>
<!-- Generator: Adobe Illustrator 23.0.0, SVG Export Plug-In . SVG Version: 6.00 Build 0)  -->
<svg version="1.1" id="Layer_1" xmlns="http://www.w3.org/2000/svg" xmlns:xlink="http://www.w3.org/1999/xlink" x="0px" y="0px"
	 viewBox="0 0 128 128" style="enable-background:new 0 0 128 128;" xml:space="preserve">
<style type="text/css">
	.st0{fill:#2D2D2D;}
</style>
<g>
	<path class="st0" d="M79.9,119.1c-0.3,0-0.6,0.2-0.8,0.3l-0.1,0.1c0,0,0.1,0,0.1,0c0.4,0.1,0.9,0,1.3-0.1c0,0,0,0,0,0
		C80.3,119.1,80.1,119.1,79.9,119.1z"/>
	<path class="st0" d="M77.3,116.2c-0.1,0.2-0.1,0.3-0.1,0.5c0,0.3-0.1,0.6,0,0.9c0,0,0.1-0.1,0.1-0.1l0.1-0.1
		c0.1-0.2,0.2-0.4,0.1-0.7C77.5,116.5,77.4,116.3,77.3,116.2z"/>
	<path class="st0" d="M127.9,88.6c-0.1-0.3-0.3-0.6-0.5-0.8c-0.3-0.2-0.4-0.3-0.6-0.4c-0.8-0.5-1.5-1-2.3-1.6
		c-0.7-0.6-1.4-1.2-2.1-1.8c-0.4-0.3-0.7-0.6-1.1-0.9c-0.4-0.3-0.9-0.5-1.3-0.7c-1.9-0.7-3.9-0.6-5.7-0.4c-0.9,0.1-1.9,0.2-2.7,0.3
		c-0.5,0-0.8,0-1.3,0c-0.6,0-1.1,0.2-1.6,0.4c-0.9,0.4-1.7,0.9-2.5,1.4c-0.8,0.5-1.5,1-2.3,1.5c-0.8,0.4-1.6,0.8-2.4,0.8
		c-0.4,0-0.8-0.1-1.2-0.3c-0.2-0.1-0.4-0.2-0.5-0.4c-0.1-0.2-0.7-0.7-0.7-0.7l-0.4-0.4l-0.8-0.9c-0.6-0.6-1.1-1.1-1.7-1.7
		C94.9,81,93.7,80,92.5,79l0,0l0,0C83.9,73.5,74,70.5,64,69.4c-5-0.5-10.1-0.6-15.1,0c-5,0.6-10,1.6-14.7,3.3
		c-2.4,0.8-4.7,1.8-6.9,3C25,76.9,22.9,78.4,21,80c-3.8,3.3-6.9,7.5-9.3,11.9c-1.2,2.3-2.2,4.6-3.1,7l-0.3,0.9L8,100.7
		c-0.2,0.3-0.2,0.8,0,1.1c0.2,0.3,0.5,0.6,0.9,0.7c0.2,0,0.3,0,0.4,0h0.2l0.1,0L9.1,104c-0.1,0.3-0.2,0.7-0.4,1
		c-0.1,0.3-0.2,0.5-0.3,0.7c-0.4,0.2-0.8,0.4-1.1,0.7c-0.4,0.3-0.7,0.7-0.9,1c-0.5,0.7-0.9,1.5-1.2,2.3c-0.5,0.7-1.1,1.4-1.7,2.2
		c-0.6,0.8-1.1,1.6-1.5,2.5c-0.4,0.9-0.9,1.8-1.2,2.7C0.4,118,0.1,119,0,120l0,0.1l0,0c0.1,0.3,0.2,0.6,0.4,0.8
		c0.2,0.2,0.3,0.4,0.5,0.6c0.4,0.4,0.8,0.8,1.3,1.1c0.3,0.2,0.7,0.4,1.1,0.6c0.2,0.1,0.5,0.2,0.8,0.3c0.3,0.1,0.7,0.2,1,0.2
		c-0.3-0.1-0.7-0.1-1-0.2c-0.3-0.1-0.5-0.2-0.8-0.3c0,0.3,0.1,0.6,0.2,0.8l0.2,0.3c0,0,0.1,0.1,0.1,0.1c0,0,0.1,0.1,0.2,0.1
		c0.3,0,0.6,0,0.8,0.2c0.2,0.2,0.4,0.4,0.5,0.6c0.2,0.2,0.3,0.3,0.6,0.5c0.2,0.2,0.5,0.4,0.8,0.6L8,127l-0.4-1.3
		c-0.1-0.4-0.2-0.7-0.4-1c-0.2-0.3-0.5-0.6-0.7-0.8c0,0-0.1-0.1-0.1-0.1c0.3,0,0.7,0,1-0.1c0,0,0.1,0,0.1,0c0,0-0.1,0-0.1,0
		c0,0,0,0,0,0l0.2,0.3c0,0,0.1,0.1,0.1,0.1c0,0,0.1,0.1,0.2,0.1c0.3-0.1,0.6,0,0.8,0.1c0.2,0.1,0.4,0.3,0.6,0.5
		c0.2,0.2,0.4,0.3,0.6,0.5c0.2,0.2,0.5,0.3,0.9,0.5l1.4,0.5l-0.5-1.3c-0.1-0.3-0.3-0.7-0.5-1c-0.2-0.3-0.5-0.5-0.8-0.7
		c-0.2-0.1-0.3-0.2-0.5-0.4c-0.1,0.1-0.3,0.1-0.4,0.2c-0.1,0-0.2,0.1-0.3,0.1c0.1,0,0.2-0.1,0.3-0.1c0.1-0.1,0.3-0.1,0.4-0.2
		c0.2-0.1,0.5-0.2,0.7-0.3c0,0,0,0,0.1,0c0,0,0,0-0.1,0c0,0,0,0,0,0c0.1,0,0.1,0.1,0.2,0.1c0.3-0.1,0.7-0.1,0.9,0.1
		c0.3,0.1,0.5,0.4,0.7,0.5c0.2,0.2,0.4,0.4,0.7,0.6c0.3,0.2,0.6,0.4,1,0.6l1.2,0.5l-0.3-1.2c-0.1-0.4-0.2-0.8-0.4-1.2
		c-0.2-0.4-0.5-0.7-0.8-1c-0.3-0.3-0.7-0.5-1-0.7c-0.1-0.1-0.2-0.1-0.3-0.2c0.2-0.6,0.2-1.1,0.2-1.6c0-0.8,0-1.5-0.1-2.3
		c-0.1-0.4-0.1-0.8-0.2-1.1c-0.1-0.2-0.1-0.4-0.2-0.6c0,0,0,0,0-0.1c0-0.2,0-0.5,0.1-0.7c0.1-0.3,0.2-0.6,0.3-0.9
		c0.2-0.6,0.6-1.2,0.9-1.8c0.2-0.3,0.3-0.5,0.5-0.8c0.2-0.2,0.4-0.5,0.7-0.7c0.5-0.5,1-0.9,1.5-1.4c0.3-0.2,0.5-0.5,0.8-0.7
		c0.2-0.2,0.3-0.4,0.5-0.6l0,0c0.6,0.5,1.2,1,1.8,1.4l0.1,0.1h0.2c1.7,0,3.5,0,5.2,0.1c0.6,0,1.1,0,1.7,0.1c0.2,0,0.4,0,0.6,0
		c0.1,0.5,0.1,0.9,0.2,1.4l0.3,1.6l0.3,1.5c0.1,0.5,0.2,1,0.3,1.5c0.2,1,0.4,2,0.5,3c0,0.3,0.1,0.5,0.1,0.7c0,0.1,0,0.3,0,0.4
		c0,0.2,0.1,0.3,0.1,0.5c0.1,0.6,0.5,1.2,0.9,1.6c0.4,0.5,0.9,0.9,1.5,1.1c0.6,0.2,1.2,0.1,1.7,0.1c0.1,0,0.1,0,0.2,0c0,0,0,0,0,0
		c0.1,0.3,0.2,0.5,0.4,0.6l0.3,0.2c0,0,0.1,0.1,0.1,0.1c0.1,0,0.1,0.1,0.2,0.1c0.2-0.1,0.5-0.1,0.7,0c0.2,0.1,0.4,0.3,0.6,0.4
		c0.2,0.1,0.4,0.2,0.6,0.4c0.2,0.1,0.5,0.2,0.9,0.3l1.3,0.3l-0.5-1.1c-0.1-0.3-0.3-0.6-0.5-0.9c-0.2-0.3-0.5-0.5-0.8-0.7
		c-0.1-0.1-0.3-0.2-0.4-0.2c-0.7,0.1-1.4,0.3-2.2,0.5c0.7-0.2,1.5-0.3,2.2-0.5c0.1,0,0.1,0,0.2,0c0.7-0.1,1.3-0.1,2-0.1c0,0,0,0,0,0
		c0,0,0,0,0,0l0.1,0.3c0,0.1,0,0.1,0.1,0.2c0,0,0,0.1,0.2,0.2c0.3,0,0.5,0.1,0.7,0.3c0.2,0.2,0.2,0.4,0.3,0.6
		c0.1,0.2,0.2,0.4,0.4,0.6c0.1,0.2,0.3,0.5,0.6,0.7l1,0.9l0-1.2c0-0.3,0-0.7,0-1c-0.1-0.3-0.2-0.7-0.4-1c0,0,0,0,0,0
		c0.3,0.1,0.6,0.2,0.9,0.3l0.1,0l0.2,0c0.4,0,1-0.1,1.5-0.4c0,0,0.1,0,0.1-0.1c0.2-0.2,0.4-0.4,0.5-0.6c0-0.1,0.1-0.1,0.1-0.2
		c0,0.1-0.1,0.1-0.1,0.2c-0.1,0.2-0.3,0.4-0.5,0.6c0,0-0.1,0-0.1,0.1c0.2,0.2,0.3,0.3,0.5,0.5c0.2,0.2,0.4,0.4,0.6,0.7
		c0.2,0.2,0.5,0.5,0.9,0.7l1.3,0.8l-0.4-1.4c-0.1-0.4-0.2-0.8-0.4-1.2c-0.2-0.4-0.5-0.8-0.8-1.1c-0.3-0.3-0.6-0.6-0.9-0.8
		c0,0,0,0,0,0c0-0.9-0.3-1.7-0.7-2.4c-0.9-1.5-2.5-2.5-4.2-2.7c-0.5-0.1-0.9-0.3-1.3-0.6c-0.5-0.3-0.9-0.8-1.2-1.2
		c-0.7-0.8-1.6-2.8-2.2-4c0.6,0,1.1,0,1.7,0c0.5,0,1.1,0.1,1.6,0.2c0.5,0.1,1.1,0.3,1.7,0.4c0.6,0.1,1.1,0.2,1.7,0.2
		c0.6,0.1,1.1,0.1,1.7,0.2l4.5,0.5l2.1,0.2c1.1,0.1,2.2,0.2,3.3,0.3c1.1,0.1,2.1,0.1,3.3,0.1c1.5,0.2,3,0.4,4.5,0.5
		c1.5,0.1,3,0.3,4.5,0.3c1.5,0.1,3,0.1,4.6,0.1c1.5,0,3-0.1,4.5-0.3c0.6,0.1,1.1,0.1,1.6,0.1c0.6,0,1.1,0,1.7,0c0.3,0,0.7,0,1-0.1
		c-0.4,0.2-0.7,0.5-1.1,0.7c-0.8,0.6-1.5,1.4-1.9,2.5c-0.1,0.4-0.2,0.9-0.2,1.3c0,0,0,0,0,0c0,0,0,0,0,0.1c0,0.2-0.1,0.4-0.3,0.5
		c-0.2,0.1-0.4,0.2-0.5,0.2c-0.2,0.1-0.3,0.2-0.5,0.3c-0.2,0.1-0.3,0.3-0.5,0.6l-0.8,1.3l1.3-0.2c0.3,0,0.6-0.1,0.8-0.2
		c0.3-0.1,0.5-0.3,0.8-0.5c0.2-0.1,0.3-0.2,0.4-0.4c0,0,0.1,0.1,0.1,0.1c0,0,0,0,0,0c0,0,0.1,0.1,0.1,0.1c0.1,0.1,0.2,0.2,0.4,0.3
		c-0.1-0.1-0.2-0.2-0.4-0.3c0,0-0.1-0.1-0.1-0.1c0,0,0,0,0,0c0,0-0.1,0-0.1,0.2c0.1,0.3,0,0.6-0.2,0.8c-0.2,0.2-0.4,0.3-0.6,0.5
		c-0.2,0.1-0.4,0.3-0.6,0.5c-0.2,0.2-0.4,0.4-0.6,0.8l-0.7,1.3l1.3-0.3c0.3-0.1,0.7-0.2,1-0.3c0.3-0.2,0.6-0.4,0.9-0.7
		c0.3-0.3,0.5-0.5,0.7-0.8c0.1-0.2,0.3-0.4,0.5-0.5c0,0,0,0,0,0c0.1,0.1,0.2,0.1,0.3,0.2c0,0.2,0,0.5-0.2,0.7
		c-0.2,0.2-0.4,0.3-0.6,0.5c-0.2,0.1-0.4,0.3-0.6,0.5c-0.2,0.2-0.4,0.4-0.6,0.8l-0.7,1.3l1.3-0.3c0.3-0.1,0.7-0.2,1-0.3
		c0.3-0.2,0.6-0.4,0.9-0.7c0.3-0.3,0.5-0.5,0.7-0.8c0.2-0.3,0.5-0.5,0.7-0.8l0.1-0.2c0,0,0,0,0-0.1c-0.3,0-0.7-0.1-1-0.1
		c0,0,0,0,0,0c0,0,0,0,0,0c0,0,0,0,0,0c0,0,0,0,0,0c0,0,0,0,0,0c0,0,0,0,0,0c0.3,0.1,0.6,0.1,1,0.1c0.1,0,0.3,0,0.4,0
		c0,0.1,0,0.1-0.1,0.2c-0.1,0.2-0.3,0.4-0.4,0.6c-0.1,0.2-0.3,0.3-0.4,0.6c-0.1,0.2-0.3,0.5-0.4,0.8l-0.4,1.3l1.1-0.4
		c0.3-0.1,0.6-0.2,0.9-0.4c0.3-0.2,0.5-0.5,0.7-0.8c0.2-0.3,0.4-0.6,0.5-0.9c0.1-0.3,0.3-0.6,0.5-0.8l0-0.2c0-0.1,0-0.3,0-0.5
		c0,0,0,0-0.1,0c0,0,0,0,0,0c0.6-0.3,1.1-0.6,1.7-1c0.2-0.2,0.4-0.4,0.6-0.7l0.3-0.6c0.2-0.3,0.4-0.7,0.7-1c0.2-0.3,0.5-0.5,0.8-0.7
		c0.2-0.1,0.4-0.2,0.7-0.3c0,0,0,0,0,0c0,0.1,0,0.3,0,0.4c0,0.5,0,0.9,0.1,1.4c0,0.5,0.1,1,0.1,1.5c0.2,1,0.5,1.9,0.9,2.8
		c0.4,0.9,1,1.8,1.7,2.5c0.4,0.4,0.8,0.7,1.5,1c0.7,0.2,1.1,0.2,1.6,0.2c0.1,0,0.2,0,0.2,0c0.1,0,0.3,0,0.4,0c0,0,0.1,0,0.1,0
		c0,0-0.1,0-0.1,0c-0.1,0-0.2,0-0.4,0c0,0,0,0,0,0.1l0.2,0.2c0,0,0.1,0.1,0.1,0.1c0,0,0,0.1,0.2,0.1c0.2-0.1,0.5,0,0.7,0.1
		c0.2,0.1,0.3,0.3,0.4,0.5c0.1,0.1,0.3,0.3,0.4,0.4c0.2,0.1,0.4,0.3,0.7,0.4l1.2,0.5l-0.3-1.2c-0.1-0.3-0.2-0.6-0.3-0.9
		c-0.1-0.1-0.1-0.2-0.2-0.3c0.2-0.1,0.5-0.1,0.7,0c0.2,0.1,0.4,0.3,0.5,0.4c0.1,0.1,0.3,0.2,0.5,0.3c0.2,0.1,0.5,0.2,0.8,0.3
		l1.3,0.3l-0.6-1.1c-0.1-0.3-0.3-0.5-0.5-0.8c0,0,0,0-0.1-0.1c0.1,0,0.3,0,0.4,0l1.4,0L101,124c-0.2-0.2-0.3-0.4-0.6-0.6
		c-0.2-0.1-0.4-0.2-0.7-0.3c0.1,0.1,0.1,0.1,0.2,0.2c-0.1-0.1-0.1-0.1-0.2-0.2c-0.7-0.8-1.5-1.7-2.1-2.6c-0.4-0.5-0.6-1-0.7-1.6
		c-0.1-0.6-0.1-1.3-0.1-1.9c0.1-1.3,0.3-2.6,0.6-3.9l0.5-1.9c0.2-0.6,0.3-1.4,0.3-2.1c0-0.7-0.2-1.5-0.4-2.2
		c-0.1-0.4-0.3-0.7-0.5-1.1c0.7-0.7,1.5-1.3,2.4-1.7c0.5-0.2,1-0.4,1.5-0.6c0.5-0.1,1-0.2,1.5-0.2c1,0.3,2.1,0.5,3.2,0.6
		c1.1,0.1,2.3-0.1,3.4-0.4c1.1-0.3,2.1-0.8,3.1-1.4c0.9-0.6,1.8-1.3,2.7-1.7c0.5-0.2,1-0.4,1.5-0.5c0.5-0.1,1.1-0.2,1.6-0.3
		c1.1-0.2,2.2-0.6,3.1-1.1c1-0.5,1.9-1.2,2.7-1.9l0.6-0.6c0.2-0.2,0.4-0.4,0.6-0.6c0.2-0.3,0.3-0.6,0.3-0.9c0-0.2-0.1-0.4-0.2-0.5
		c0.4-0.4,0.7-0.7,1-1.1c0.6-0.8,1-1.7,1.4-2.5c0.1-0.2,0.2-0.4,0.3-0.7C128,89.3,128,88.9,127.9,88.6z M44.6,120.7c0,0,0-0.1,0-0.1
		C44.7,120.6,44.7,120.7,44.6,120.7c0,0.1,0,0.2-0.1,0.3C44.6,120.9,44.6,120.8,44.6,120.7z M75.8,116.8c0,0,0-0.1,0-0.1
		C75.8,116.7,75.8,116.8,75.8,116.8C75.8,116.8,75.8,116.8,75.8,116.8C75.8,116.8,75.8,116.8,75.8,116.8z M101.1,124.6L101.1,124.6
		l-0.9,0.2L101.1,124.6z M107.3,84.8c0.5-0.1,1.1-0.2,1.5-0.3c0.4-0.1,0.8-0.2,1.1-0.2c0.2,0,0.4-0.1,0.5-0.1c0.1,0,0.1,0,0.1,0
		c0,0,0,0,0,0c0,0.2,0,0.4,0,0.6c0,0.4,0,0.8,0,1.2c0,0.8-0.1,1.6-0.2,2.4c-0.1,0.8-0.2,1.6-0.4,2.4c-0.2,0.8-0.4,1.6-1,2.2
		c-0.3,0.3-0.6,0.5-0.9,0.5c-0.3,0-0.4-0.4-0.5-0.8c-0.2-0.7-0.2-1.5-0.3-2.3c0.1-0.4,0.2-0.9,0.3-1.3c0.1-0.5,0.1-1,0-1.5
		c-0.1-0.5-0.2-1-0.4-1.4c-0.1-0.2-0.2-0.4-0.4-0.7c-0.1-0.1-0.1-0.2-0.2-0.3C106.8,85.1,107.1,85,107.3,84.8z M97.5,84.1l0.9,0.8
		l0.4,0.4l0.2,0.2l0.1,0.1c0,0,0,0,0,0c-0.3-0.1-0.7-0.1-1.1,0c-0.4,0.1-0.8,0.3-1.1,0.6c-0.3,0.3-0.6,0.6-0.7,1.1
		c-0.1,0.3-0.2,0.6-0.1,0.9c0,0,0,0,0,0l0,0c-0.2,0.4-0.4,0.7-0.6,1c-0.2,0.3-0.5,0.5-0.8,0.5c-1.1-1-1.9-1.3-2.2-1.3l-0.5-0.1
		c0.2-0.1,0.4-0.3,0.6-0.4c0.6-0.4,1.2-1,1.7-1.5c0.5-0.6,1-1.2,1.3-1.9c0.2-0.3,0.3-0.7,0.3-1.1c0-0.2,0-0.4,0-0.6
		C96.3,83.1,96.9,83.6,97.5,84.1z M74.3,99.8c-0.1-0.5-0.2-1-0.4-1.5c-0.1-0.2-0.1-0.4-0.2-0.6c1.9,0.1,3.7-0.2,5.5-0.6
		c0.9-0.2,1.8-0.5,2.7-0.8c0.9-0.3,1.7-0.7,2.5-1.2c0.2,0,0.4-0.1,0.6-0.1c0.1,0.2,0.3,0.4,0.4,0.6c0.2,0.3,0.5,0.6,0.8,0.9
		c0.3,0.3,0.4,0.7,0.8,0.9c0,0,0,0,0,0c-0.2,0.1-0.4,0.2-0.7,0.4c-0.5,0.3-0.9,0.5-1.4,0.7c-0.9,0.5-1.9,0.9-2.9,1.3
		c-2,0.8-4,1.4-6,1.9c-0.5,0.1-1,0.3-1.6,0.4c0.1-0.3,0.1-0.6,0.1-0.8C74.6,100.7,74.4,100.2,74.3,99.8z M64.1,97.9
		c-0.8,0.2-1.7,0.2-2.6,0.2c-1-0.1-2-0.2-3-0.4l-3-0.5c-1-0.2-2-0.4-3-0.5c-0.5-0.1-1-0.1-1.5-0.1c-0.3,0-0.5,0-0.8,0.1
		c-0.2,0.1-0.5,0.1-0.7,0.1c-1-0.1-1.8-0.6-2.7-1c-0.3-0.2-0.6-0.4-1-0.5c1.1-1.8,1.9-3.7,2.7-5.6c0.4-1,0.7-2.1,1.1-3.1
		c0.4-1,0.6-2,0.9-3.1c1.1-1.2,2.2-2.4,3.5-3.5c1.2-1.1,2.6-2.1,3.9-3.1c0.1-0.1,0.2-0.2,0.3-0.3c0,0,0,0,0.1,0
		c0.3,0.2,0.7,0.4,1,0.7l2.1,1.4c1.3,0.9,2.7,1.8,4.1,2.5c-0.1,0.4-0.2,0.9-0.2,1.3L65,83.9c-0.2,1-0.3,2.1-0.5,3.1
		c-0.3,2.1-0.4,4.1-0.5,6.2C64,94.7,64,96.3,64.1,97.9z M63.2,102.9c-1.9,0.3-3.8,0.5-5.7,0.4c-1.8,0-3.5-0.3-5.2-0.7
		c0.1-0.2,0.2-0.4,0.2-0.5c0-0.2-0.1-0.5-0.2-0.7c-0.1-0.2-0.1-0.4-0.1-0.7l0-0.1c-0.1-0.6-0.2-1.3-0.4-1.9
		c-0.1-0.6-0.2-1.2-0.4-1.8c0.4,0,0.7,0.1,1.1,0.1c2,0.3,3.9,0.9,5.9,1.3c1,0.2,2,0.4,3,0.6c0.8,0.1,1.7,0.2,2.6,0
		c-0.1,0.3-0.1,0.5-0.2,0.8c-0.1,0.5-0.2,0.9-0.3,1.4c-0.1,0.5-0.3,0.9-0.3,1.4C63.1,102.6,63.1,102.8,63.2,102.9z M50.6,102.6
		c-1.7,0.5-3.5,0.8-5.3,0.9c-1,0-2,0-3-0.1c-0.9-0.1-1.8-0.2-2.5-0.5c0-0.4,0-0.9,0-1.3c0-0.9-0.1-1.8,0.1-2.4
		c0.2-0.7,0.3-1.5,0.5-2.4c0.1-0.7,0.2-1.5,0.2-2.3c0.2-0.1,0.3-0.1,0.5-0.2c1.9,0,3.7,0.8,5.5,1.7c0.9,0.4,1.9,0.9,2.9,1
		c0.3,0,0.5,0,0.8-0.1c0.2-0.1,0.5-0.1,0.7-0.1c0,0,0.1,0,0.1,0c-0.1,0.6-0.1,1.2-0.1,1.8c0,0.6-0.1,1.3-0.1,1.9
		c-0.1,0.2-0.1,0.4-0.2,0.7c-0.1,0.2-0.2,0.4-0.2,0.7C50.4,102.1,50.5,102.4,50.6,102.6z M38.1,99.9l0.2,0.7
		c0.1,0.4,0.2,0.9,0.4,1.3c0.1,0.3,0.2,0.6,0.3,0.9l-0.2,0.1c-0.8,0.3-1.7,0.4-2.6,0.5c-0.9,0.1-1.9,0.1-2.8,0.1
		c-0.9,0-1.9-0.1-2.8-0.2c-0.9-0.1-1.8-0.3-2.5-0.5c0,0,0,0,0-0.1c0.2-0.5,0.4-0.9,0.3-1.4c0-0.5,0-1,0-1.5c0-0.5,0-1,0-1.5V98l0,0
		c-0.4-1.6-0.8-3.3-1.2-4.9c0,0,0.1,0,0.1,0c0.2,0,0.5,0.1,0.8,0.2l0.8,0.2c0.6,0.1,1.1,0.3,1.7,0.4c1.1,0.3,2.2,0.5,3.4,0.7
		c1.1,0.2,2.3,0.3,3.5,0.4c0.7,0,1.4,0,2.1-0.1c-0.4,0.5-0.7,1-1,1.5c-0.4,0.8-0.7,1.8-0.6,2.8C38.1,99.3,38.1,99.5,38.1,99.9z
		 M26.5,102.2c0,0.2,0.1,0.3,0.1,0.5c-0.8,0.2-1.7,0.2-2.6,0.3c-1.2,0-2.4-0.1-3.6-0.2l-0.9-0.1c-0.4,0-0.5,0-0.6-0.1
		c-0.1-0.1-0.3-0.2-0.4-0.3c-0.1-0.1-0.1-0.1-0.1-0.2c-0.1-0.3-0.2-0.5-0.4-0.7c-0.1-0.2-0.3-0.3-0.5-0.4c0.1-0.7,0.2-1.4,0.4-2.1
		c0.2-1,0.5-1.9,0.8-2.8c0.3-0.9,0.8-1.8,1.1-2.6c0.3-0.8,0.6-1.5,0.9-2.4c0.1,0,0.2,0.1,0.3,0.1c1.1,0.4,2.2,0.8,3.3,1.1
		c0.6,0.2,1.1,0.3,1.7,0.5c0.4,0.1,0.9,0.2,1.3,0.3c0.2,1.7,0.4,3.4,0.5,5c-0.2,0.4-0.3,0.9-0.4,1.4c-0.1,0.5-0.3,0.9-0.5,1.4
		C26.5,101.2,26.5,101.7,26.5,102.2z M20.8,90.4c0.8-0.7,1.6-1.4,2.3-2.2c0.9-1,1.8-2,2.6-3.1c0.4-0.6,0.8-1.1,1.2-1.7
		c0.4-0.6,0.7-1.2,1.1-1.7c0.4-0.6,0.8-1.1,1.3-1.6c0.4-0.4,0.8-0.7,1.2-1.1c0.4,0.3,0.8,0.5,1.2,0.7c0.5,0.3,1,0.5,1.6,0.8
		c0.5,0.3,1.1,0.5,1.6,0.8l0.8,0.4l0.4,0.2l0.1,0.1c-0.3,0.9-0.6,1.9-0.8,2.8c-0.3,1-0.5,2-0.7,3c-0.2,1-0.4,2-0.5,3
		c-0.1,0.9-0.2,1.7-0.3,2.6c-1-0.2-2-0.4-3-0.6l-1.7-0.4l-0.8-0.2c-0.3-0.1-0.6-0.1-0.9-0.1c-0.5,0-1.1-0.2-1.6-0.3
		c-0.6-0.1-1.1-0.3-1.7-0.4c-1.1-0.3-2.2-0.6-3.3-0.9C20.9,90.5,20.9,90.4,20.8,90.4z M37.7,93.8c-1.1-0.1-2.2-0.2-3.3-0.4
		c0,0-0.1,0-0.1,0c0.3-0.8,0.7-1.6,0.9-2.4c0.3-1,0.6-1.9,0.9-2.9c0.3-1,0.5-2,0.7-3c0.2-0.9,0.4-1.9,0.5-2.8c1-0.7,1.9-1.4,2.9-1.9
		c1-0.5,2.1-0.9,3.1-1.3c1,0.8,2.1,1.4,3.2,2.1c0.6,0.4,1.2,0.7,1.8,1c0.3,0.2,0.6,0.3,0.9,0.5c0.2,0.1,0.5,0.2,0.7,0.3c0,0,0,0,0,0
		l0,0L49.9,83c-0.5,1-1,1.9-1.4,2.9c-0.4,1-0.9,2-1.2,3c-0.7,1.9-1.3,3.9-1.7,6c-1.4-0.7-2.9-1.4-4.6-1.5l-0.1,0l-0.1,0.1
		C39.9,93.9,38.7,93.9,37.7,93.8z M64.4,101.2c0-0.5,0-1,0-1.4c0-0.3,0-0.6-0.1-0.8c0,0,0-0.1,0-0.1c0,0,0.1,0,0.1,0
		c1.6,0.1,3.2,0.1,4.7-0.1c1.4-0.2,2.8-0.5,4.2-1c0,0.2,0,0.4,0,0.6c0,0.5,0,1,0,1.5c0,0.5-0.1,1,0.1,1.5c0.1,0.3,0.2,0.6,0.3,0.8
		c-1.3,0.3-2.6,0.5-3.9,0.6c-1,0.1-2.1,0.2-3.1,0.2c-0.5,0-1,0-1.5,0c-0.3,0-0.6,0-0.9-0.1c0-0.1,0.1-0.2,0.1-0.3
		C64.5,102.2,64.4,101.7,64.4,101.2z M73.7,96.3l-0.1,0l-0.1,0c-1.4,0.5-2.9,1-4.4,1.2c-1.5,0.2-3,0.3-4.5,0.2
		c0.2-1.5,0.4-3,0.6-4.6c0.2-2.1,0.4-4.1,0.4-6.2l0.1-3.1c0-1,0.1-2.1,0.3-3c0,0,0,0,0,0c0,0,0,0,0,0l0.1-0.1l0.3-0.2
		c0.2-0.1,0.5-0.2,0.7-0.4c0.5-0.2,0.9-0.4,1.4-0.7c0.9-0.4,1.9-0.8,2.8-1.2c0.9-0.4,1.9-0.8,2.8-1.2c0.5-0.2,0.9-0.4,1.4-0.5
		c0.1,0,0.1,0,0.2,0l0.6,0.5c1.6,1.3,3.2,2.6,4.9,3.8c3.2,2.4,9.2,7.1,9,7.3c-1.3,1-2,2.4-2.9,3.5c-0.8,1.2-1.8,2.1-3,2.2H84
		L83.9,94c-1.5,0.8-3.2,1.4-5,1.8C77.2,96.2,75.4,96.4,73.7,96.3z M86.9,95.7c-0.3-0.2-0.7-0.4-1-0.6c-0.1-0.1-0.3-0.1-0.4-0.2
		c0.4-0.2,0.8-0.4,1.1-0.7c0.6-0.5,1.1-1.2,1.5-1.8c0.8-1.3,1.5-2.6,2.6-3.4c0.3-0.2,0.5-0.4,0.9-0.6c0,0,0,0,0,0
		c0.2,0.2,1.6,0.6,2.7,1.6c0,0.6-0.2,1.2-0.5,1.8c-0.3,0.6-0.7,1.2-1.2,1.8c-0.9,1.1-1.9,2-3,2.9l-1.4,0.4c-0.1-0.2-0.2-0.3-0.3-0.5
		C87.6,96.1,87.2,95.9,86.9,95.7z M84.3,77c0.5,0,1.1-0.1,1.7-0.2c2,0.9,4.1,1.9,6,2.9c1.2,0.8,2.4,1.8,3.5,2.7
		c0.1,0.6-0.1,1.2-0.4,1.8c-0.4,0.6-0.9,1.1-1.4,1.6c-0.5,0.5-1.1,0.9-1.7,1.3c-0.3,0.2-0.6,0.4-0.9,0.5c0,0-0.1,0-0.1,0.1
		c-3-2.7-6-5.3-9.1-7.8c-1.5-1.2-3-2.4-4.5-3.5c0.6,0.1,1.2,0.1,1.8,0.2l2.6,0.3C82.6,76.9,83.5,77.1,84.3,77z M75.1,73.1
		C75.1,73.1,75.1,73.1,75.1,73.1c2.8,0.7,5.6,1.5,8.3,2.6c-0.5,0-1.1,0.1-1.6,0.1l-2.6,0.1c-0.7,0.1-1.4,0.1-2.1,0.2c0,0,0,0,0,0
		c0,0-1.1-1-1.4-1.2c-0.2-0.1-0.4-0.2-0.6-0.3c0-0.3,0.1-0.5,0.1-0.8C75.1,73.6,75.1,73.3,75.1,73.1z M63.8,71.1
		c3.6,0.4,7.2,1,10.7,1.8c0,0,0,0,0,0c-0.1,0.2-0.2,0.4-0.3,0.6c-0.2,0.4-0.3,0.8-0.4,1.2l-0.1,0.6l0.6,0.2c0.1,0,0.3,0.1,0.4,0.1
		c-0.3,0.1-0.6,0.2-0.9,0.4c-1,0.4-1.9,0.9-2.8,1.4c-0.9,0.5-1.8,1-2.7,1.5l-1.3,0.8l-0.7,0.4l-0.3,0.2c-0.1,0-0.1,0.1-0.2,0.1
		c0,0-0.1,0-0.1,0.1c0,0.1,0,0.1-0.1,0.1c0,0,0,0.1,0,0.1c-1.1-1.1-2.3-2.1-3.6-3.1c-0.7-0.5-1.3-1-2-1.5c-0.2-0.2-0.5-0.3-0.7-0.5
		c0.1,0,0.2-0.1,0.3-0.1c0.4-0.2,0.7-0.4,1.1-0.6c0.7-0.4,1.3-0.9,2-1.5l0.4-0.4l-0.2-0.4c-0.3-0.5-0.6-0.9-0.9-1.3
		c-0.1-0.2-0.3-0.3-0.4-0.5C62.2,71,63,71,63.8,71.1z M49,70.9c3.9-0.3,7.8-0.3,11.8,0c0.1,0.3,0.1,0.6,0.2,0.9
		c0.1,0.3,0.2,0.7,0.4,1c-0.5,0.4-1,0.8-1.5,1.3c-0.3,0.3-0.6,0.6-0.8,0.9c-0.1,0.1-0.6,0.3-0.7,0.3c0,0-0.2-0.1-0.4,0
		c-0.1,0-0.2,0.1-0.2,0.1l-0.1,0.1c-0.2,0.2-0.3,0.3-0.5,0.4c-1.2,1.2-2.3,2.5-3.5,3.7c-1.1,1.1-2.3,2.2-3.5,3.2
		c-0.5-0.4-1-0.8-1.5-1.2c-0.5-0.4-1.1-0.9-1.7-1.3c-1-0.8-2.1-1.5-3.2-2.3c0.4-0.4,0.8-0.8,1.2-1.2c0.5-0.6,1-1.2,1.5-1.9
		c0.5-0.7,0.9-1.3,1.3-2.1c0.3-0.6,0.6-1.3,0.9-2C48.7,70.9,48.9,70.9,49,70.9z M34.1,73.6c0.1,0,0.2-0.1,0.3-0.1
		c4.5-1.4,9.3-2.2,14-2.6c-0.5,0.4-1,0.9-1.4,1.4c-0.5,0.6-1,1.2-1.5,1.9c-0.5,0.7-0.9,1.3-1.3,2.1c-0.3,0.5-1.1,1.6-1.1,1.6
		C42,78.5,41,79.4,40,80c-1.1,0.6-2.2,1.1-3.4,1.6l-0.1,0.1l0,0.1c0,0,0,0,0,0c-0.1-0.1-0.2-0.2-0.3-0.3c-0.2-0.2-0.5-0.4-0.7-0.6
		c-0.5-0.4-1-0.7-1.5-1c-0.5-0.3-1-0.6-1.5-0.9c-0.4-0.2-0.8-0.4-1.2-0.6c0.3-0.1,0.5-0.3,0.8-0.4c0.5-0.3,0.9-0.7,1.3-1.1
		c0.4-0.4,0.7-1,0.8-1.6C34.2,74.5,34.2,74,34.1,73.6z M33.7,73.7c-0.4,0.8-0.9,1.4-1.4,2.1c-0.3,0.4-0.7,0.8-1,1.2
		c-0.2,0.3-0.4,0.6-0.6,0.9l-1.3-0.8c-0.2-0.2-0.5-0.4-0.8-0.6c-0.2-0.1-0.5-0.3-0.7-0.4C29.7,75.2,31.7,74.4,33.7,73.7z M15.4,87.5
		c1.7-2.6,3.7-4.9,6-7c1.9-1.7,4-3.1,6.2-4.3c0,0.3,0.1,0.7,0.2,1c0.2,0.4,0.5,0.7,0.8,0.9c0.3,0.3,0.8,0.5,1.2,0.5
		c-0.2,0.4-0.5,0.8-0.8,1.2c-0.4,0.6-0.8,1.1-1.3,1.6c-0.5,0.5-1,0.9-1.5,1.4c-0.5,0.5-1,1-1.4,1.5c-0.9,1-1.8,2-2.6,3.1
		c-0.7,0.9-1.3,1.8-1.8,2.8c-0.9-0.3-1.7-0.6-2.5-0.9c-0.5-0.2-1-0.5-1.5-0.8c-0.3-0.2-0.6-0.4-0.9-0.7
		C15.3,87.8,15.3,87.6,15.4,87.5z M9.2,101.3L9.2,101.3L9.2,101.3L9.2,101.3C9.2,101.3,9.2,101.3,9.2,101.3L9.2,101.3z M9.2,101.3
		L9.2,101.3L9.2,101.3L9.2,101.3z M9.4,101H9.3H9.4l0-0.3l0.1-0.4l0.3-0.9c0.7-2.4,1.6-4.7,2.7-7c0.7-1.5,1.5-3,2.4-4.4
		c0.1-0.1,0.3-0.1,0.4,0c0.6,0.7,1.5,1.2,2.3,1.6c0.8,0.4,1.6,0.8,2.4,1.1c0,0.1-0.1,0.1-0.1,0.1c0,0,0,0,0,0
		c-0.6,0.5-1.1,1.2-1.5,1.8c-0.5,0.9-0.7,1.9-0.9,2.9c-0.2,1-0.3,2-0.4,3c0,0.7-0.1,1.4-0.1,2.1c-0.2-0.1-0.5-0.1-0.7-0.1l-0.9,0.1
		c-0.6,0-1.2,0.1-1.8,0.1c-1.2,0.1-2.5,0.1-3.7,0.1L9.4,101z M5.8,123.7c-0.1,0-0.2,0-0.3,0C5.6,123.7,5.7,123.7,5.8,123.7
		c0.1,0,0.2,0,0.3,0C6,123.8,5.9,123.8,5.8,123.7z M10.5,120.4C10.5,120.5,10.5,120.5,10.5,120.4C10.5,120.5,10.5,120.5,10.5,120.4
		C10.5,120.4,10.5,120.4,10.5,120.4z M11.9,121.9C11.8,121.9,11.8,122,11.9,121.9C11.8,122,11.8,121.9,11.9,121.9l0.1-0.1
		L11.9,121.9z M12.3,121.3C12.3,121.3,12.3,121.3,12.3,121.3C12.3,121.3,12.3,121.3,12.3,121.3c-0.1,0.1-0.1,0.2-0.2,0.3l0,0.1
		l0-0.1C12.2,121.5,12.3,121.4,12.3,121.3z M17.5,106.6c0,0-0.7,0.6-0.9,0.8c-0.3,0.2-0.5,0.5-0.8,0.7c-0.6,0.4-1.2,0.7-1.8,1.1
		c-0.3,0.2-0.6,0.4-0.9,0.7c-0.3,0.2-0.6,0.6-0.8,0.9c-0.4,0.6-0.9,1.2-1.2,1.8c-0.2,0.3-0.4,0.7-0.5,1c-0.2,0.4-0.3,0.8-0.3,1.3
		c0,0.3,0,0.6,0.1,0.9c0,0.1,0.1,0.2,0.1,0.4c0.1,0.3,0.1,0.6,0.1,0.9c0.1,0.6,0.1,1.3,0.1,1.9c0,0.5-0.1,1.1-0.2,1.4c0,0,0,0,0,0
		c0,0-0.1,0.1-0.1,0.1c0,0,0,0,0,0c-1.5,1-3.2,1.7-4.9,1.8c-0.2,0-0.5,0-0.7,0c0,0,0,0,0,0c-0.1,0-0.2,0-0.3-0.1c-0.1,0-0.2,0-0.2,0
		c0,0,0,0,0,0c-0.6-0.1-1.1-0.2-1.6-0.4c-0.4-0.2-0.9-0.5-1.2-0.8c-0.4-0.3-0.7-0.7-0.8-1.1c0.1-0.9,0.4-1.7,0.8-2.5
		c0.5-0.8,1-1.6,1.6-2.3l1.8-2.2c0.6-0.7,1.1-1.5,1.7-2.3l0.1-0.1l0-0.1c0.2-0.7,0.5-1.5,0.9-2.1c0.2-0.3,0.4-0.7,0.7-0.9
		c0.2-0.3,0.5-0.5,0.8-0.7l0.2-0.1l0-0.1c0.2-0.5,0.3-0.8,0.4-1.2c0.1-0.4,0.1-0.8,0.2-1.1c0.1-0.6,0.1-1.1,0.2-1.7h0
		c1.3,0,2.5,0,3.8,0c0.6,0,1.3,0,1.9-0.1l1-0.1c0.1,0,0.1,0,0.2,0.1c0,0,0,0.1,0.1,0.1c0,0.2,0.1,0.4,0.3,0.6c0.2,0.4,0.6,0.7,1,0.9
		c0.2,0.1,0.4,0.2,0.7,0.2c0.3,0.1,0.4,0.1,0.5,0.1l0.9,0.1c0.1,0,0.2,0,0.3,0C19.5,105.3,18.5,105.9,17.5,106.6z M40.5,122
		c-0.2,0-0.3-0.1-0.5-0.1C40.2,122,40.3,122,40.5,122c0.1,0,0.2,0.1,0.4,0.1C40.7,122.1,40.6,122.1,40.5,122z M42.8,120.4
		C42.8,120.4,42.8,120.4,42.8,120.4L42.8,120.4c0,0.2,0,0.2-0.1,0.3c0,0,0,0,0,0C42.7,120.7,42.8,120.6,42.8,120.4z M36.2,113.9
		c0.3,0.6,0.7,1.2,1.2,1.8c0.5,0.5,1.2,1,2,1.3l0.1,0c0.6,0.2,1.1,0.4,1.6,0.7c0.5,0.4,0.9,0.8,1.2,1.3c0.1,0.1,0.2,0.3,0.2,0.4
		c0,0.1,0.1,0.2,0.1,0.3c0-0.1-0.1-0.2-0.1-0.3c-0.2,0.1-0.4,0.2-0.5,0.4c-0.1,0.2-0.2,0.4-0.2,0.6c0,0.1,0,0.3,0.1,0.4
		c0.1,0,0.2,0,0.2,0.1c-0.1,0-0.2,0-0.2-0.1c-0.7-0.2-1.5-0.3-2.2-0.3c0,0,0,0,0,0c0,0,0,0,0,0c-0.2-0.1-0.4-0.1-0.6-0.1
		c-0.2,0-0.4,0.1-0.6,0.2c0,0,0,0,0,0c-0.8,0.1-1.6,0.3-2.4,0.6l-1.1,0.3l-0.5,0.1c-0.2,0-0.3,0.1-0.5,0.1c0.2,0,0.3-0.1,0.5-0.1
		l0.5-0.1c-0.1-0.1-0.2-0.1-0.3-0.2l-0.2,0c-0.2,0-0.5,0-0.8,0.2c-0.1,0.1-0.3,0.2-0.4,0.4c0.2,0,0.3-0.1,0.5-0.1
		c-0.2,0-0.3,0.1-0.5,0.1c-0.1,0-0.2,0-0.3,0c-0.5,0-1,0-1.4-0.2c-0.4-0.2-0.6-0.5-0.8-0.9c-0.2-0.4-0.3-0.8-0.4-1.3
		c0-0.1,0-0.2,0-0.3l0-0.3c0-0.3,0-0.6,0-0.9c-0.1-1.1-0.3-2.2-0.6-3.2c-0.6-2-1.4-3.9-2.4-5.6c0.8,0.1,1.7,0.2,2.5,0.3l0.1,0h0.1
		c1.5,0,3-0.2,4.5-0.2c0.1,0.5,0.2,1,0.3,1.5C35.1,111.3,35.8,113.3,36.2,113.9z M77.9,110.3c-0.6,0-1.1-0.1-1.6-0.1
		c-0.5,0-1.1-0.1-1.5-0.2l-0.1,0l-0.2,0c-1.4,0.1-2.9,0.1-4.4,0.1c-1.5,0-3-0.1-4.5-0.1c-1.5,0-3-0.1-4.5-0.2
		c-1.5-0.1-3-0.1-4.4-0.3l-0.1,0l-0.1,0c-1,0.2-2.1,0.2-3.2,0.3c-1.1,0-2.2,0.1-3.3,0.1c-1,0-1.9,0-2.9-0.1
		c-1.2-0.1-2.5-0.1-3.7-0.3c-1.1-0.1-2.2-0.3-3.2-0.5c-0.5-0.1-1-0.3-1.5-0.5c-0.6-0.2-1.1-0.3-1.7-0.4c-2.2-0.4-4.5-0.4-6.6-0.4
		c-0.4-0.1-0.9-0.2-1.3-0.2c-0.5,0-0.9-0.1-1.4-0.1c-0.9,0-1.8-0.1-2.7,0c-1.7,0-3.4,0.1-5.1,0.3c-0.4-0.3-0.9-0.5-1.3-0.8
		c0.8-0.7,1.7-1.5,2.5-2.3c1,0.1,2,0.2,3.1,0.1c1.2,0,2.4-0.1,3.7-0.4c1,0.3,1.8,0.5,2.7,0.6c1,0.2,2,0.3,3,0.3c1,0.1,2,0.1,3,0
		c0.9-0.1,1.8-0.2,2.7-0.5c1.1,0.4,2,0.5,3,0.6c1.1,0.1,2.2,0.1,3.2,0.1c1.1,0,2.1-0.1,3.2-0.3c1-0.2,1.9-0.4,2.9-0.7
		c2,0.6,4,0.8,6,0.8c2.1,0,4.1-0.2,6.1-0.6c0.6,0.1,1.1,0.1,1.6,0.2c0.6,0,1.1,0,1.7,0c1.1-0.1,2.2-0.2,3.3-0.3
		c1.6-0.2,3.2-0.5,4.7-0.9c-0.1,0.1-0.2,0.3-0.3,0.4c-0.2,0.5-0.3,1-0.2,1.5c0.1,0.5,0.2,1,0.5,1.3l0.1,0.1l0,0
		c0.5,0.5,1.2,0.9,1.9,1.1c0.7,0.2,1.4,0.4,2.1,0.4c0.7,0.1,1.4,0.1,2.2-0.1c0.1,0,0.2,0,0.3-0.1c0.1,0,0.2-0.1,0.3-0.1
		c0.1,0,0.3-0.1,0.4-0.1c0.3-0.1,0.5-0.1,0.8-0.2c0.5-0.1,1.1-0.1,1.6,0c0.2,0.1,0.4,0.1,0.6,0.2c0.1,0,0.1,0.1,0.2,0.1
		c0.1,0.1,0.1,0.1,0.2,0.3c0.9,0.9,1.8,1.3,2.5,2.1c-1.1-0.1-2.2-0.1-3.3-0.2l-3.3-0.1L77.9,110.3z M79,120.2
		C79,120.1,78.9,120.1,79,120.2C78.9,120.1,79,120.1,79,120.2C79,120.2,79,120.2,79,120.2C79,120.2,79,120.2,79,120.2z M81.5,120.5
		C81.5,120.5,81.5,120.5,81.5,120.5C81.5,120.5,81.5,120.5,81.5,120.5C81.5,120.5,81.5,120.5,81.5,120.5z M82.3,120.4
		C82.3,120.4,82.3,120.4,82.3,120.4C82.2,120.4,82.2,120.4,82.3,120.4c-0.1,0-0.1,0-0.2,0.1c0,0,0,0,0,0c0,0,0,0,0,0
		C82.1,120.4,82.2,120.4,82.3,120.4C82.2,120.4,82.2,120.4,82.3,120.4C82.3,120.4,82.3,120.4,82.3,120.4
		C82.3,120.4,82.3,120.4,82.3,120.4z M88,115l-0.1,0c-0.2,0-0.5-0.1-0.7-0.1c-0.3,0-0.6,0.1-0.9,0.2c-0.3,0.1-0.5,0.3-0.8,0.4
		c-0.5,0.3-0.8,0.7-1.2,1.1c-0.1,0.1-0.2,0.2-0.2,0.3l-0.1,0.2c0,0.1-0.1,0.1-0.1,0.1c-0.1,0.1-0.2,0.2-0.3,0.3
		c-0.6,0.5-1.3,1-2,1.4c-0.3,0.2-0.7,0.3-1.1,0.4c-0.4,0.1-0.8,0.2-1.3,0.1c0,0-0.1,0-0.1,0c-0.2,0-0.3-0.1-0.4-0.1
		c0.1-0.2,0.1-0.5,0-0.7c-0.1-0.2-0.2-0.4-0.3-0.5c-0.2-0.1-0.4-0.2-0.5-0.2c-0.2,0-0.3,0-0.4,0.1c0,0.1,0.1,0.2,0.2,0.4
		c-0.1-0.1-0.1-0.2-0.2-0.4c0,0,0,0,0,0c0-0.1-0.1-0.2-0.1-0.3c-0.1-0.3-0.1-0.6,0-0.9c0-0.2,0.1-0.3,0.1-0.5
		c0.1-0.2,0.1-0.3,0.2-0.5c0.3-0.7,0.7-1.4,1.3-2.1c0.4-0.6,0.9-1.2,1.4-1.8c0.3,0,0.7,0,1-0.1c1.1-0.1,2.2-0.2,3.3-0.3
		c1.1-0.1,2.2-0.3,3.3-0.5c0,0,0.1,0,0.1-0.1c0,0.1,0.1,0.1,0.1,0.2C88,112.3,88,113.6,88,115z M97.9,125.2c-0.2,0-0.5,0.1-0.7,0.1
		c-0.2,0-0.5,0.1-0.7,0.1c0,0,0,0,0,0c0,0,0,0,0,0c0.2,0,0.5-0.1,0.7-0.1C97.4,125.3,97.6,125.2,97.9,125.2
		C97.9,125.2,97.9,125.2,97.9,125.2C97.9,125.2,97.9,125.2,97.9,125.2z M97.6,122.8c0.1,0.1,0.2,0.3,0.3,0.4
		C97.8,123.1,97.7,123,97.6,122.8c-0.1,0-0.2,0.1-0.3,0.2c-0.1,0.1-0.2,0.2-0.2,0.4c0,0,0,0,0,0c-1.1,0.1-2.1,0.1-3.1,0.1
		c-0.4,0-0.8-0.1-1.1-0.1c-0.2-0.1-0.5-0.3-0.8-0.5c-0.6-0.5-1.1-1.2-1.5-1.9c-0.4-0.7-0.8-1.5-1.1-2.3c-0.1-0.4-0.3-0.8-0.3-1.3
		c-0.1-0.4-0.1-0.9-0.2-1.4l-0.7-4.9c0,0,0,0,0,0c0.2-0.7,0-1.5-0.4-2.2c-0.3-0.6-0.8-1.2-1.1-1.7c0-0.1-0.2-0.3-0.4-0.5
		c-0.2-0.2-0.4-0.3-0.6-0.4c-0.4-0.2-0.9-0.3-1.3-0.4c-0.8-0.1-1.6,0-2.3,0.3c-0.4,0.1-0.7,0.3-1,0.5c-0.2,0.1-0.3,0.2-0.5,0.3
		c-0.1,0.1-0.1,0.1-0.1,0.1c-0.1,0-0.1,0.1-0.2,0.1c-0.5,0.3-1,0.6-1.7,0.6c-0.6,0-1.2-0.2-1.7-0.6c-0.4-0.4-0.7-0.8-1-1.3
		c-0.2-0.6-0.4-1-0.3-1.6c0-0.4,0.2-0.8,0.5-1.3c0,0,0,0,0.1,0c2.1-0.6,4.2-1.3,6.2-2.2c1-0.4,2-0.9,2.9-1.5
		c0.5-0.3,0.9-0.5,1.4-0.8c2.2,1.3,4.2,2.7,6,4.3c1.9,1.7,3.4,3.7,3.8,6c0.1,0.6,0.1,1.1,0,1.8c0,0.7-0.1,1.3-0.1,2
		c-0.1,1.3-0.2,2.6-0.4,4c-0.1,0.7-0.1,1.3-0.1,2.1c0,0.4,0.1,0.7,0.2,1.1c0.1,0.4,0.2,0.7,0.4,1C97,121.7,97.3,122.3,97.6,122.8z
		 M100.9,102.7c-0.6,0.2-1.1,0.5-1.6,0.8c-0.5,0.3-1,0.7-1.4,1.1c-0.3,0.3-0.6,0.6-0.8,1c-0.1-0.2-0.3-0.5-0.4-0.7
		c-0.8-1.2-1.8-2.2-2.9-3c-1.1-0.8-2.2-1.5-3.5-2.1c-1-0.5-2.1-0.9-3.2-1.3c0.4-0.2,0.7-0.4,1.1-0.6l1.6-0.6l0.1,0l0.1,0
		c0.6-0.5,1.1-1,1.6-1.6c0.5-0.5,1-1.1,1.4-1.7c0.4-0.6,0.8-1.2,1.2-1.9c0.3-0.6,0.5-1.3,0.4-2.1c0.4-0.1,0.7-0.4,0.9-0.7
		c0.3-0.3,0.4-0.7,0.6-1.1c0,0,0,0,0,0c0.1-0.3,0.3-0.5,0.4-0.8c0.2-0.3,0.4-0.6,0.7-0.8c0.5-0.4,1.1-0.7,1.8-0.9
		c0.1,0,0.2,0.1,0.2,0.2c0.1,0.1,0.1,0.2,0.2,0.3l0.3,0.3c0.4,0.3,0.8,0.5,1.3,0.5c-0.3,0.5-0.6,1.1-0.7,1.7
		c-0.2,0.7-0.4,1.4-0.4,2.1c0,0.7,0.1,1.4,0,2.1c0,0.7-0.1,1.4-0.3,2.1c-0.1,0.7-0.2,1.4-0.2,2.1c0,0.7,0.1,1.4,0.2,2.2
		c0.2,0.7,0.5,1.4,1,2c0.3,0.4,0.8,0.8,1.3,1.1C101.7,102.5,101.3,102.6,100.9,102.7z M103.8,102.4c-0.3,0-0.7-0.1-1-0.1l-0.1,0h0
		c-0.1,0-0.1,0-0.2,0c-0.8-1-1.1-2.1-1.4-3.3c-0.1-0.6-0.3-1.3-0.4-1.9c-0.1-0.7-0.2-1.3-0.3-2c-0.1-0.7-0.1-1.4,0-2.1
		c0.1-0.7,0.4-1.3,0.6-2c0.1-0.4,0.2-0.8,0.2-1.3c0.2,0.6,0.3,1.2,0.6,1.8c0.4,0.9,0.9,1.8,1.7,2.4c0.4,0.3,0.8,0.6,1.3,0.8
		c0.5,0.2,0.9,0.3,1.3,0.6c0.8,0.4,1.5,1.1,2,1.9c0.5,0.8,0.9,1.6,1,2.4c0.1,0.4,0,0.7-0.1,0.9c-0.1,0.1-0.2,0.2-0.3,0.2
		c-0.1,0-0.1,0.1-0.2,0.1c-0.1,0-0.2,0.1-0.3,0.1C106.7,101.4,105.3,101.8,103.8,102.4z M127,89.2l-0.3,0.6c-0.2,0.4-0.4,0.7-0.6,1
		c-0.2,0.1-0.4,0.1-0.6,0c-0.3-0.1-0.6-0.4-0.9-0.8c-0.6-0.8-1.3-1.8-2.3-2.4c-0.5-0.3-1.1-0.5-1.7-0.6c-0.6-0.1-1.2,0-1.7,0.1
		c-0.3,0.1-0.6,0.1-0.8,0.2c0,0.1,0.1,0.3,0.1,0.4c0.3,0,0.5,0,0.8,0c0.5,0.1,1,0.2,1.4,0.3c0.4,0.2,0.9,0.4,1.2,0.6
		c0.7,0.6,1.3,1.3,2.1,2.1c0.2,0.2,0.4,0.4,0.7,0.6c0.3,0.2,0.6,0.3,1,0.3c0.1,0,0.1,0,0.1,0c-0.1,0.2-0.2,0.3-0.3,0.5
		c-0.2,0.4-0.5,0.7-0.8,1c-0.2,0.2-0.6,0.3-1,0.4c-0.9,0.2-1.8,0.3-2.7,0.6c-0.9,0.3-1.9,0.7-2.5,1.4c0,0,0,0.1,0,0.1
		c0,0,0.1,0,0.1,0c0.8-0.5,1.6-0.7,2.5-0.8c0.9-0.1,1.8-0.1,2.8-0.3c0.2,0,0.5-0.1,0.8-0.2c0.1,0,0.3-0.1,0.4-0.2
		c0.1,0,0.2-0.1,0.2-0.1c0,0.4-0.1,0.7-0.3,0.9c-0.1,0.1-0.4,0.3-0.6,0.4l-0.7,0.4c-0.9,0.6-1.8,1.1-2.7,1.7
		c-0.9,0.5-1.8,1.1-2.8,1.5c-0.5,0.2-1,0.4-1.5,0.5c-0.3,0.1-0.5,0.2-0.8,0.2c-0.3,0.1-0.5,0.2-0.8,0.3c-2.1,0.8-3.9,1.9-5.9,2.3
		c-0.2,0-0.5,0.1-0.7,0.1c0.1,0,0.2-0.1,0.3-0.1l0.4-0.1c0.1-0.1,0.3-0.1,0.4-0.2c0.3-0.2,0.5-0.4,0.7-0.7c0.3-0.6,0.3-1.3,0.1-1.8
		c-0.3-1.1-1-1.8-1.6-2.5c-0.7-0.7-1.4-1.3-2.1-2c-0.4-0.3-0.8-0.6-1.1-0.9c-0.3-0.3-0.6-0.6-0.9-0.9c-0.6-0.6-1.1-1.3-1.6-2.1
		c-0.3-0.4-0.5-0.8-0.7-1.2c-0.2-0.3-0.4-0.6-0.6-0.9c0.1-0.6,0.1-1.2,0.1-1.8c1,0,1.9-0.3,2.8-0.6c0.7-0.3,1.4-0.7,2.1-1.1
		c0,0.1,0.1,0.2,0.1,0.3c0.1,0.2,0.1,0.4,0.2,0.7c0.1,0.4,0.1,0.9,0.1,1.3c0,0.4-0.1,0.9-0.1,1.3c-0.1,0.4-0.2,0.8-0.3,1.3l0,0.2
		l0,0.1c0.2,0.8,0.4,1.7,0.8,2.5c0.1,0.2,0.2,0.4,0.4,0.6c0.2,0.2,0.4,0.4,0.7,0.4c0.6-0.1,0.9-0.4,1.2-0.7c0.3-0.3,0.6-0.7,0.8-1
		c0.2-0.4,0.4-0.8,0.6-1.2c0.4-0.8,0.6-1.6,0.8-2.4c0.2-0.8,0.3-1.7,0.4-2.6c0-0.4,0.1-0.9,0-1.3c0-0.2-0.1-0.5-0.1-0.7
		c0-0.1-0.1-0.3-0.2-0.5c0.9-0.1,1.8-0.3,2.7-0.4c0.7-0.1,1.5-0.2,2.2-0.3v0c0.1,0.5,0,0.9-0.1,1.2c-0.1,0.2-0.2,0.3-0.3,0.5
		c-0.1,0.2-0.3,0.4-0.4,0.6c-0.1,0.2-0.3,0.4-0.4,0.6c0.1-0.1,0.3-0.1,0.4-0.1c-0.1,0-0.3,0.1-0.4,0.1c-0.6,0.2-1.1,0.7-1.3,1.4
		c-0.3,1.1,0.4,2.3,1.5,2.6c1.1,0.3,2.3-0.4,2.6-1.5c0.1-0.2,0.1-0.4,0.1-0.6c0-0.1,0-0.3-0.1-0.4c-0.2-0.7-0.7-1.3-1.4-1.5
		c0,0,0,0,0,0c0,0,0,0,0,0c0.1-0.2,0.2-0.4,0.3-0.6c0.1-0.2,0.2-0.5,0.3-0.8c0.1-0.6-0.1-1.1-0.5-1.4c1-0.1,2-0.1,3,0.2
		c0.4,0.1,0.8,0.3,1.2,0.5c0.4,0.2,0.8,0.5,1.1,0.8c0.7,0.6,1.4,1.2,2.1,1.8c0.7,0.6,1.4,1.3,2.1,1.8c0.2,0.1,0.4,0.3,0.5,0.4
		c0.1,0.1,0.2,0.3,0.2,0.4C127.1,88.9,127.1,89.1,127,89.2z"/>
</g>
</svg>
