<?xml version="1.0" encoding="utf-8"?>
<!-- Generator: Adobe Illustrator 23.0.0, SVG Export Plug-In . SVG Version: 6.00 Build 0)  -->
<svg version="1.1" id="Layer_1" xmlns="http://www.w3.org/2000/svg" xmlns:xlink="http://www.w3.org/1999/xlink" x="0px" y="0px"
	 viewBox="0 0 128 128" style="enable-background:new 0 0 128 128;" xml:space="preserve">
<style type="text/css">
	.st0{fill:#2D2D2D;}
</style>
<g>
	<ellipse class="st0" cx="120.2" cy="70.2" rx="0.9" ry="0.9"/>
	<path class="st0" d="M126.7,93.3c-0.6,0.7-1.7,1-2.8,1.1c-1.1,0.1-2.3,0.1-3.4,0c-1.2-0.1-2.3-0.3-3.5-0.5l-1.8-0.3
		c-0.3-0.1-0.6-0.1-0.9-0.1l-0.1,0c-0.1-0.1-0.2-0.1-0.3-0.2c-0.3-0.2-0.5-0.3-0.8-0.5c-0.3-0.2-0.5-0.3-0.8-0.4
		c-1-0.5-2.1-0.9-3.2-1.2c-0.2-0.1-0.4-0.1-0.6-0.2c0.4-0.5,0.8-0.9,1.3-1.3c0.4-0.3,0.8-0.5,1.3-0.7c0.5-0.2,0.9-0.5,1.4-0.8
		c0.9-0.6,1.7-1.3,2.5-2c0.8-0.7,1.5-1.5,2.1-2.3c0.7-0.8,1.3-1.6,2-2.4c0.6-0.8,1.4-1.5,2.1-2.3c0.3-0.4,0.7-0.8,1-1.2
		c0.3-0.4,0.7-0.8,0.9-1.3c0.5-1,0.7-2.2,0.4-3.2l0,0c0,0,0,0,0,0c0.2-0.3,0.3-0.6,0.4-0.8c0.2-0.5,0.5-0.9,0.9-1.5
		c0.1-0.2,0.2-0.4,0.2-0.6c0,0,0.1-0.1,0.1-0.2c0.2-0.2,0.4-0.4,0.6-0.7l0.2-0.2c0.1-0.1,0.2-0.3,0.2-0.5c0.1-0.4-0.1-0.8-0.4-1
		c-0.2-0.1-0.2-0.2-0.3-0.2c-0.1,0-0.2-0.1-0.2-0.1c-0.2-0.1-0.3-0.1-0.5-0.2c-0.2-0.1-0.3-0.1-0.5-0.2l-0.2-0.1
		c-0.1,0-0.1,0-0.3-0.1c-0.3,0-0.6,0-0.8,0.2c-0.1,0.1-0.3,0.2-0.3,0.2c0,0,0,0-0.1,0.1c0,0,0,0-0.1,0c0,0-0.2,0-0.3-0.1l-0.8-0.3
		c-0.4-0.3-1-0.5-1.6-0.4c-0.6,0.1-1.1,0.5-1.4,0.9c-0.1,0.1-0.1,0.2-0.2,0.3l0,0l-0.1,0.1c-0.2,0.1-0.4,0.2-0.6,0.3
		c-0.4,0.2-0.8,0.4-1.2,0.6c-0.9,0.3-1.7,0.7-2.5,1.1c-0.8,0.4-1.7,0.7-2.5,1.1c-0.9,0.4-1.7,0.7-2.5,1.1c-0.4,0.2-0.8,0.4-1.2,0.6
		c-0.4,0.2-0.9,0.5-1.3,0.7c-1.6,1.2-2.6,2.8-3.3,4.5c-0.3-0.2-0.6-0.3-0.9-0.5l-12.8-3.6c-2.1-0.6-4.3-1.2-6.4-1.7
		c-1.1-0.3-2.1-0.5-3.3-0.8c-0.6-0.1-1.1-0.2-1.7-0.3c-0.6-0.1-1.1-0.2-1.7-0.2c-2.2-0.2-4.5-0.3-6.7-0.2c-2.2,0-4.5,0.2-6.7,0.4
		c-4.4,0.5-8.8,1.3-13.1,2.5c-4.3,1.2-8.5,2.9-12.4,5c-3.9,2.1-7.7,4.3-11.5,6.6c-1.9,1.1-3.8,2.3-5.7,3.3c-1.9,1-4,1.9-6,2.6
		c-0.5,0.2-1,0.4-1.6,0.5l-0.8,0.2c-0.3,0.1-0.5,0.1-0.9,0.3c-0.6,0.4-0.9,1-1.1,1.5c-0.2,0.6-0.3,1.2-0.3,1.7
		c-0.1,1.2,0,2.4,0.7,3.5c0.2,0.3,0.4,0.5,0.7,0.7c0.3,0.2,0.7,0.3,1,0.3c0.6,0,1.2-0.1,1.8-0.2c1.2-0.3,2.1-0.9,3-0.8
		c0.2,0,0.5,0.1,0.7,0.1l0.3,0.1c-0.4,0.1-0.8,0.3-1.2,0.5c-0.9,0.4-1.9,0.9-2.7,1.4c-0.9,0.5-1.8,1-2.6,1.6
		c-0.8,0.6-1.6,1.2-2.4,1.9c-1.5,1.4-2.9,2.9-4.4,4.3c-1.5,1.4-3,2.8-4.2,4.6L0,114.6l0.6,0.5c0.4,0.3,0.9,0.4,1.2,0.4
		c0.4,0,0.7-0.1,1-0.2c0.6-0.2,1.1-0.4,1.5-0.7c0.8-0.4,1.5-0.9,2.2-1.4c-0.2,1.3-0.3,2.6-0.4,3.9c-0.1,1.8,0,3.6,0.1,5.4
		c0,0.4,0.1,0.9,0.1,1.3c0,0.4,0.1,1.1,0.4,1.6c0.6,1.1,1.7,1.8,2.9,1.9c0.3,0,0.6,0,0.9,0c0.1,0,0.3-0.1,0.4-0.1l0.2-0.1l0.2-0.1
		c0.4-0.2,0.8-0.3,1.2-0.5c0.8-0.3,1.6-0.7,2.5-1c1.7-0.6,3.3-1.2,5.1-1.5c1.7-0.4,3.5-0.5,5.3-0.8c0.9-0.2,1.7-0.4,2.6-0.6
		c0.9-0.2,1.7-0.5,2.6-0.8c0.8-0.3,1.7-0.6,2.5-0.9c0.6-0.3,1.3-0.5,1.9-0.8c0.1,0,0.2,0.1,0.4,0.1c1.7,0.4,3.5,0.9,5.2,1.4
		c0.9,0.3,1.7,0.5,2.5,0.8l1.3,0.4c0.3,0.1,0.6,0.1,0.9-0.1c0,0.1,0,0.2,0.1,0.3c0.1,0.3,0.2,0.6,0.4,0.9c0.2,0.3,0.4,0.6,0.7,0.8
		c0.2,0.1,0.3,0.2,0.5,0.2l0.4,0.2c0.6,0.2,1.1,0.4,1.7,0.7c0.5,0.3,1,0.8,1.3,1.3l0.5,0.8l-0.2-1c-0.1-0.7-0.2-1.5-0.4-2.2
		c-0.2-0.7-0.4-1.4-0.8-2.1c-0.2-0.3-0.4-0.6-0.7-0.8c0.2,0,0.4,0.1,0.6,0.1c0.2,0,0.4,0.1,0.6,0.2l0.6,0.2c0.1,0,0.3,0.1,0.5,0
		c0.2,0,0.4-0.2,0.5-0.3c0-0.1,0.1-0.1,0.1-0.2c0.2,0.3,0.4,0.5,0.7,0.7c0.3,0.2,0.7,0.3,0.9,0.4c0.6,0.2,1.1,0.4,1.7,0.7
		c0.5,0.3,1,0.8,1.3,1.4l0.5,0.7l-0.1-0.9c-0.1-0.8-0.2-1.5-0.3-2.3c-0.2-0.8-0.4-1.5-0.7-2.3c-0.2-0.4-0.4-0.7-0.8-1.1
		c-0.1-0.1-0.2-0.1-0.3-0.2c-0.1,0-0.2-0.1-0.2-0.1c0.3-0.2,0.6-0.7,0.7-1c0.1-0.3,0-0.6,0-0.9c0.5,0.1,1,0.2,1.5,0.4
		c0.6,0.3,1,0.6,1.5,1.1l0.6,0.6l-0.3-0.9c-0.2-0.6-0.3-1.2-0.6-1.8c0,0,0,0,0,0l0,0c7.1-0.4,14.2-0.1,21.4-0.2
		c3.6-0.1,7.2-0.2,10.7-0.5c3.6-0.3,7.1-0.5,10.7-0.9c3.6-0.3,7.1-0.8,10.7-1.1c3.6-0.4,7.1-0.7,10.7-0.8c0.9-0.1,1.9-0.3,2.7-0.8
		c0.8-0.5,1.6-1.2,2.1-2c0.5-0.8,0.9-1.8,1.1-2.8c0.1-0.5,0.1-1,0.1-1.4c0-0.4,0.1-0.9,0.1-1.3c0.2-3.6,0.2-7.2,0.2-10.8l0-2
		L126.7,93.3z M108.7,92.5c1,0.4,2,0.9,2.9,1.4c0.2,0.1,0.5,0.2,0.7,0.4c0.2,0.1,0.4,0.3,0.6,0.4c0.2,0.1,0.5,0.3,0.7,0.5
		c0.2,0.2,0.5,0.3,0.7,0.5c2,1.2,4,1.9,6,2.9c1,0.5,1.9,1.1,2.8,1.7c0.7,0.6,1.5,1.2,2,1.9c-0.2,0.1-0.4,0.1-0.6,0.1
		c-0.3,0-0.7,0-1.1,0c-0.4,0-0.8-0.1-1.2-0.1c-0.2,0-0.4,0-0.7,0c-0.3,0-0.5,0.1-0.8,0.2c-0.4,0.2-0.7,0.4-1,0.6
		c-0.3,0.2-0.6,0.3-0.9,0.4c-0.6,0.2-1.3,0.2-2,0.2c-0.7,0-1.5,0-2.2,0c-0.3,0-0.7-0.1-1-0.1l-0.5-0.1c-0.1,0-0.2-0.1-0.4-0.1
		c-0.5-0.2-1.1-0.7-1.8-1.1c-0.7-0.4-1.4-0.8-2.2-1.1l-0.1,0l-0.1,0c-1-0.1-2-0.2-3-0.2c-0.1,0-0.3,0-0.4,0c0.2-0.2,0.4-0.4,0.6-0.7
		c0.3-0.5,0.3-1.1,0.4-1.7c0.1-0.6,0.1-1.1,0.1-1.7c0-0.6,0-1.1-0.1-1.7c0,0,0,0,0-0.1c0,0-0.1,0-0.1,0c-0.1,0.5-0.2,1.1-0.4,1.6
		c-0.1,0.5-0.3,1-0.5,1.5c-0.2,0.5-0.5,0.9-0.6,1.4c-0.1,0.4-0.2,0.8-0.4,1.3c-0.6,0.1-1.2,0.2-1.7,0.3c-1,0.3-1.8,0.7-2.8,1
		c-0.7,0.3-1.5,0.6-2.2,0.9l-2.6-0.4c-0.6-0.1-1.3-0.2-1.9-0.4c-0.6-0.2-1.2-0.4-1.6-0.7c-0.1-0.1-0.2-0.1-0.2-0.1
		c0-0.1,0.1-0.2,0.2-0.3l1.5-1.5c1-1,1.9-2.1,2.9-3.1c0.5-0.5,0.9-1.1,1.4-1.7c0.2-0.3,0.5-0.6,0.7-1c0.1-0.1,0.3-0.2,0.4-0.2
		c1-0.6,1.9-1.2,2.8-1.9c0.6-0.5,1.2-1.1,1.8-1.6C104.9,90.9,106.8,91.7,108.7,92.5z M56.6,104.8c-0.3-0.5-0.7-1-1.1-1.3
		c-0.4-0.4-0.9-0.7-1.4-0.9c-0.1-0.1-0.3-0.1-0.4-0.2c4.2-0.2,8.3-0.4,12.5-0.7c4.4-0.4,8.8-0.7,13.2-1.4c1.1-0.2,2.2-0.4,3.3-0.6
		c1.1-0.3,2.2-0.5,3.2-0.8c2.2-0.6,4.3-1.4,6.3-2.2c1.4-0.6,2.8-1.3,4.2-2c-0.4,0.4-0.9,0.8-1.4,1.2L92,98.5l-1.6,1.4
		c-0.3,0.2-0.7,0.6-0.8,1.4c0,0.4,0.1,0.8,0.3,1.1c0.2,0.3,0.4,0.5,0.5,0.6c0.4,0.3,0.7,0.5,1.1,0.7c-0.4,0.1-0.9,0.3-1.3,0.4
		c-0.4,0.1-1,0.2-1.5,0.3c-2,0.4-4.1,0.7-6.2,1c-4.1,0.7-8.2,1.5-12.4,1.8c-1,0.1-2.1,0.1-3.2,0.2c-1.1,0.1-2.1,0.2-3.2,0.3
		c-2.1,0.2-4.1,0.6-6.2,1l-1.3,0.2c0.1-0.1,0.2-0.3,0.3-0.4c0.3-0.5,0.5-1.2,0.5-1.8C57.1,105.9,56.9,105.3,56.6,104.8z M47.8,97.8
		c0-0.6-0.1-1.2-0.1-1.8c0-0.4-0.1-0.7-0.1-1.1c1.5,0,3.1,0,4.6-0.1c1.6-0.1,3.2-0.2,4.8-0.5c0,0.3,0,0.7,0,1c0,0.6,0,1.2,0.1,1.9
		c0,0.6,0,1.3,0.1,1.8c0.1,0.4,0.3,0.8,0.5,1.2c-3.4,0.2-6.7,0.4-10.1,0.6c0.1-0.3,0.2-0.7,0.3-1C47.9,99,47.8,98.4,47.8,97.8z
		 M46.6,99.6c0,0.4,0.1,0.7,0.2,1.1c-2.4,0.1-4.7,0.2-7.1,0.3c-1.1,0-2.2,0.1-3.3,0.1c-0.9,0-1.8,0-2.8-0.1c0.1-0.1,0.2-0.2,0.3-0.3
		c0.2-0.3,0.4-0.6,0.6-0.9c0.3-0.6,0.4-1.3,0.5-2c0.1-0.7,0.2-1.3,0.3-2c0-0.5,0.1-0.9,0.1-1.4c0.5,0,1.1,0.1,1.6,0.1
		c3.3,0.2,6.7,0.4,10,0.4c0,0,0,0,0.1,0c-0.1,0.4-0.1,0.7-0.2,1.1c-0.1,0.6-0.2,1.2-0.2,1.8C46.7,98.3,46.5,98.9,46.6,99.6z
		 M39.4,87.8c0.1,0.8,0.2,1.7,0.3,2.5c0.1,0.8,0.3,1.5,0.5,2.3l-0.6,0c-0.9,0-1.7,0-2.5-0.1c-2.6-0.1-5.2-0.1-7.8-0.1
		c0.4-0.4,0.9-0.9,1.4-1.3c0.6-0.6,1.2-1.2,1.7-2c0.2-0.4,0.5-0.7,0.7-1.1c0.2-0.4,0.5-0.7,0.7-1.1c0.4-0.8,0.8-1.6,1.3-2.2
		c0.5-0.1,1.1-0.2,1.6-0.2c0.6,0,1.1-0.1,1.6-0.4c0.4-0.2,0.8-0.4,1.1-0.6c0,0.1,0,0.3,0,0.4c0,0.4-0.1,0.8-0.1,1.3
		C39.3,86.1,39.4,86.9,39.4,87.8z M47.1,92.9l-5-0.2l-1.7-0.1c0.4-1.6,0.6-3.2,0.8-4.8c0.1-0.8,0.1-1.7,0.1-2.5c0-0.7,0-1.5,0-2.1
		c0.1-0.1,0.2-0.1,0.3-0.2c0.3-0.1,0.5-0.3,0.8-0.5c0.6-0.3,1.2-0.6,1.9-0.9c1.3-0.5,2.6-0.7,4-0.7c0.7,0,1.4,0,2.1,0
		c0.7-0.1,1.4-0.2,2-0.3c0.9-0.2,1.8-0.4,2.7-0.7c0,0.1-0.1,0.2-0.1,0.4c0,0.1,0,0.2,0,0.3l0,0.1c0,0.3,0,0.6,0.1,1
		c0.1,1.3,0.1,2.7,0.3,4c0.3,2.4,0.6,4.8,1.2,7.2C55.3,93,53.7,93,52.1,93C50.5,93,48.8,93,47.1,92.9z M70.3,97.7
		c-0.1-0.6-0.5-1.2-0.7-1.7c-0.2-0.6-0.5-1.2-0.8-1.7c-0.2-0.5-0.4-0.9-0.7-1.4c1.5-0.5,3-0.8,4.6-1.2c1.7-0.3,3.4-0.5,5.1-0.7h0
		l0.1,0c0.1,0,0.2,0,0.3,0c0.1,0.6,0.3,1.1,0.5,1.7c0.2,0.7,0.4,1.4,0.6,2c0.2,0.7,0.3,1.4,0.7,2c0.3,0.5,0.6,1,1,1.4
		c-0.6,0.1-1.1,0.2-1.7,0.2c-2.9,0.4-5.9,0.6-8.8,0.9C70.5,98.7,70.4,98.2,70.3,97.7z M58,96.9c-0.1-0.6-0.3-1.2-0.4-1.8
		c-0.1-0.3-0.2-0.6-0.3-1c1.8-0.2,3.4-0.6,5.1-0.9c1.7-0.3,3.5-0.5,5.2-0.3l0.1,0l0.1,0c0.1,0,0.1,0,0.2,0c0.1,0.5,0.2,1,0.3,1.5
		c0.1,0.6,0.3,1.2,0.4,1.8c0.1,0.6,0.2,1.3,0.5,1.8c0.2,0.4,0.4,0.8,0.7,1.2c-1.2,0.1-2.5,0.2-3.7,0.3c-2.6,0.2-5.2,0.3-7.8,0.5
		c0.1-0.4,0.1-0.9,0.1-1.3C58.4,98.1,58.2,97.5,58,96.9z M80.2,94.3c-0.3-0.6-0.6-1.3-1-1.9c-0.3-0.5-0.5-1-0.8-1.5
		c1.2-0.2,2.4-0.3,3.6-0.4c1.4-0.1,2.8-0.2,4.2-0.4c0.6-0.1,1.3-0.1,1.9-0.2c0.1,0.4,0.2,0.7,0.3,1.1c0.2,0.6,0.4,1.2,0.6,1.8
		c0.2,0.6,0.3,1.2,0.7,1.8c0.2,0.4,0.5,0.8,0.9,1.1c-1.6,0.5-3.3,1-5,1.4c-1.1,0.3-2.1,0.5-3.2,0.7c-0.4,0.1-0.7,0.1-1.1,0.2
		c0-0.6-0.1-1.2-0.3-1.8C80.9,95.6,80.5,95,80.2,94.3z M90,92.4c-0.3-0.6-0.6-1.1-1-1.6c-0.2-0.3-0.4-0.6-0.5-0.9
		c0.3,0,0.6-0.1,1-0.2c0.4-0.1,0.7-0.3,1.1-0.5c1.3-0.6,2.5-1.4,3.7-2.1c0.3,0.4,0.6,0.8,0.9,1.2c0.4,0.5,0.8,1,1.2,1.5
		c0.4,0.5,0.7,1.1,1.2,1.5c0.4,0.3,0.7,0.6,1.2,0.8c-0.3,0.2-0.6,0.3-0.9,0.5c-1.9,1-4,1.9-6,2.6c-0.2,0.1-0.5,0.2-0.7,0.2
		c0-0.5-0.1-1-0.3-1.4C90.7,93.5,90.3,93,90,92.4z M98.5,90.5c-0.4-0.5-0.9-0.9-1.4-1.3c-0.5-0.4-1-0.9-1.5-1.3l-0.8-0.6
		c-0.1-0.1-0.2-0.2-0.4-0.3l0.1-0.1c0.5-0.9,1-1.7,1.5-2.6c0.5-0.9,1-1.7,1.5-2.6l1.6,0.8l2.2,1.1c0.7,0.3,1.4,0.8,2.2,1
		c0.7,0.2,1.4,0.3,2.2,0.3l0,0.2c0.1,0.5-0.1,1-0.4,1.4c-0.5,0.9-1.3,1.7-2.1,2.4c-0.8,0.7-1.7,1.5-2.5,2.1
		c-0.5,0.3-0.9,0.6-1.4,0.9C99,91.4,98.8,91,98.5,90.5z M93.5,85.9c-1.2,0.7-2.4,1.3-3.5,1.9c-0.3,0.1-0.6,0.3-0.9,0.4
		c-0.2,0.1-0.5,0.1-0.9,0.1l-2.1,0.2c-1.4,0.2-2.8,0.4-4.2,0.6c-1.3,0.2-2.5,0.5-3.8,0.8c-0.1-0.8-0.3-1.6-0.4-2.4
		c-0.2-1.1-0.5-2.1-0.8-3.1c-0.3-1-0.6-2.1-1.1-3c-0.2-0.5-0.4-1-0.7-1.5c-0.1-0.2-0.2-0.5-0.3-0.7l-0.1-0.4l0,0
		c1.7-0.6,3.5-0.7,5.2-0.6c0.9,0.1,1.8,0.2,2.5,0.5c0.1,0,0.2,0.1,0.2,0.1l0.3,0.1l0.6,0.4c0.4,0.2,0.8,0.5,1.3,0.7
		c1.7,0.9,3.5,1.6,5.3,2.3c1.6,0.6,3.3,1.1,5,1.6C94.5,84.4,94,85.2,93.5,85.9z M75.3,84.9c0.4,1,0.8,2,1.2,3
		c0.3,0.7,0.7,1.5,1.1,2.2c-1.7,0.3-3.3,0.7-4.9,1c-1.7,0.4-3.3,0.8-4.9,1.3c-1.8-0.3-3.6-0.2-5.4-0.1c-1.7,0.1-3.4,0.4-5.1,0.4
		c0.3-2.4,0.4-4.9,0.3-7.3c0-1.3-0.2-2.7-0.4-4c0-0.3-0.1-0.7-0.2-1l0-0.1l0,0c0,0,0,0,0,0c0,0,0,0,0,0c-0.1,0,0.3-0.1,0.6-0.2
		c0.3-0.1,0.6-0.2,0.9-0.3c0.6-0.2,1.3-0.3,1.9-0.5c0.7-0.1,1.3-0.2,2-0.2c1.3-0.1,2.7,0.1,4,0.2c1.3,0.1,2.6,0,4-0.2
		c1.2-0.1,2.3-0.3,3.5-0.6l0,0.1l0,0.1l0,0.2l0.1,0.4l0.1,0.8c0.1,0.5,0.2,1.1,0.3,1.6C74.5,82.8,74.9,83.9,75.3,84.9z M118.4,68.3
		C118.4,68.2,118.4,68.3,118.4,68.3L118.4,68.3C118.4,68.3,118.4,68.3,118.4,68.3z M106.9,74.9c0.4-0.2,0.7-0.4,1.1-0.6
		c0.3-0.1,0.5-0.2,0.7-0.4c0.2,0.6,0.5,1.2,1.2,1.5c0.8,0.4,1.7,0.3,2.4,0c0.7-0.3,1.2-0.9,1.7-1.3c0.5-0.4,1.2-0.8,1.8-0.9
		c0.7-0.1,0.9,0.2,1.1,0.7c0.2,0.5,0.3,1.1,0.3,1.7c0,1.2-0.4,2.4-1.1,3.6c0,0,0,0,0,0.1c0,0,0.1,0,0.1,0c1.3-0.6,2.3-2.1,2.4-3.7
		c0-0.8-0.2-1.6-0.7-2.3c-0.1-0.2-0.3-0.3-0.4-0.5c-0.1-0.1-0.2-0.1-0.3-0.2c-0.1-0.1-0.2-0.1-0.4-0.2c-0.5-0.1-1,0-1.3,0.2
		c-0.7,0.4-1.2,0.8-1.8,1.1c-0.6,0.3-1.3,0.5-1.9,0.7c-0.6,0.2-1.1,0.3-1.6,0.2c-0.4-0.1-0.8-0.4-1.2-0.8c0.1,0,0.1-0.1,0.2-0.1
		c0.8-0.4,1.6-0.9,2.4-1.4c0.8-0.5,1.6-1,2.4-1.4c0.4-0.2,0.8-0.4,1.2-0.6c0.2-0.1,0.4-0.2,0.6-0.2c0.2-0.1,0.4-0.1,0.7-0.2
		c0.5-0.1,0.9-0.3,1.3-0.4c0.2-0.1,0.4-0.2,0.7-0.3l0.2-0.1l0.1,0c0,0,0,0,0.1-0.1c0,0,0.1,0,0.1-0.1l0,0c0.1-0.1,0.1-0.2,0.2-0.2
		c0.3-0.3,0.6-0.5,0.9-0.5c0.3,0,0.5,0.1,0.8,0.3l0,0l0.1,0.1l0.8,0.4c0.2,0.1,0.3,0.1,0.6,0.2c0.2,0,0.6,0,0.8-0.2
		c0.1-0.1,0.2-0.1,0.3-0.2c0.1-0.1,0,0,0.1,0c0,0,0,0,0,0c0,0,0,0,0.1,0l0.2,0.1l0.4,0.2c0.1,0.1,0.3,0.1,0.4,0.2l0.1,0
		c-0.2,0.2-0.4,0.4-0.6,0.7c-0.1,0.2-0.2,0.3-0.3,0.6c0,0.1-0.1,0.2-0.1,0.3c-0.2,0.5-0.6,1.1-0.8,1.7c-0.2,0.5-0.4,1.1-0.7,1.5
		c-0.6,0.9-1.6,1.7-2.7,2c0,0,0,0,0,0.1c0,0,0,0.1,0.1,0.1c0.6,0,1.2-0.2,1.8-0.4c0.6-0.3,1.1-0.7,1.6-1.2c0.2-0.2,0.3-0.4,0.4-0.6
		c-0.2,0.9-0.6,1.7-1.1,2.4c-0.5,0.7-1.4,1.5-1.9,2.3c-0.6,0.9-1,1.8-1.6,2.7c-0.6,0.8-1.4,1.5-2.2,2.1l-2.4,1.9
		c-0.4,0.3-0.9,0.6-1.3,1c-0.3-0.1-0.6-0.3-0.9-0.5c-0.5-0.3-0.9-0.6-1.4-1c-0.5-0.3-0.9-0.7-1.3-1.1c-0.4-0.4-0.8-0.8-1.1-1.4
		c-0.3-0.6-0.5-1.2-0.6-1.8c-0.1-0.6-0.3-1.3-0.5-1.8c-0.1-0.3-0.3-0.6-0.5-0.8l-0.3-0.4c-0.1-0.1-0.1-0.2-0.2-0.3
		c-0.2-0.4-0.3-1-0.4-1.5C106.1,75.4,106.5,75.1,106.9,74.9z M105.4,76.1c-0.1,0.5-0.2,1-0.1,1.5c0,0.2,0.1,0.4,0.2,0.5l0.2,0.4
		c0.1,0.3,0.3,0.6,0.4,0.8c0.3,0.5,0.7,1,1,1.5c0.4,0.5,0.6,1.1,0.7,1.7c0.1,0.6,0.3,1.3,0.7,1.9c0.4,0.6,0.8,1.1,1.4,1.5
		c0.5,0.4,1.2,0.7,1.8,0.9c0.1,0,0.3,0.1,0.4,0.1c-0.1,0.1-0.2,0.1-0.3,0.2c-0.4,0.3-0.8,0.5-1.3,0.8c-0.5,0.3-0.9,0.6-1.3,1
		c-0.4,0.4-0.8,0.9-1,1.4c-0.1,0.2-0.1,0.3-0.2,0.5c-0.7-0.2-1.4-0.4-2.1-0.5c-0.9-0.2-1.7-0.4-2.7-0.5c0.1-0.1,0.3-0.3,0.4-0.4
		c0.8-0.8,1.6-1.6,2.2-2.6c0.3-0.5,0.5-1.1,0.4-1.8c0-0.3-0.1-0.6-0.2-0.8l-0.2-0.8c-0.2-1.1-0.5-2.2-1.2-3.2
		c-0.4-0.7-1-1.2-1.6-1.6C103.8,77.7,104.6,76.8,105.4,76.1z M102,78.4c0.9,0.5,1.8,1.1,2.4,2c0.6,0.9,0.9,1.9,1.1,3l0.2,1
		c-0.5-0.4-1.1-0.8-1.7-1.1c-0.7-0.4-1.5-0.5-2.3-0.8l-2.3-0.7c-0.6-0.1-1.1-0.3-1.7-0.5l0,0l-0.1-0.2c-0.4-0.9-0.8-1.7-1.2-2.6
		c-0.2-0.4-0.4-0.8-0.7-1.3c-0.1-0.2-0.2-0.4-0.4-0.6c0-0.1-0.1-0.1-0.1-0.2C97.5,77.2,99.8,77.8,102,78.4z M82.8,73.6
		c2.2,0.4,4.3,0.9,6.5,1.4c1.9,0.4,3.8,0.9,5.7,1.4c0,0,0,0.1,0.1,0.1c0,0.1,0.1,0.2,0.1,0.3l0.2,0.7c0.2,0.4,0.3,0.9,0.5,1.3
		l0.8,2.4c-0.5,0.7-1,1.4-1.4,2c-1.5-1-3-1.9-4.5-2.8c-1.7-0.9-3.4-1.8-5.1-2.5l-1.3-0.6l-0.6-0.3l-0.1-0.1c0.1-0.3,0.1-0.7,0-1
		c-0.1-0.5-0.2-0.9-0.4-1.3c-0.2-0.5-0.6-0.9-1-1.3C82.4,73.6,82.6,73.6,82.8,73.6z M76.3,72.8c0.5,0,1.1,0.1,1.6,0.1
		c0.5,0,1.1,0.1,1.6,0.2c0.6,0.1,1.2,0.2,1.8,0.3c0,0.3,0.1,0.6,0.2,0.9c0.1,0.4,0.3,0.8,0.5,1.2c0.2,0.4,0.4,0.7,0.6,1.1
		c0.1,0.2,0.2,0.3,0.3,0.5c0,0-0.1,0-0.1,0c-1.1-0.3-2.1-0.2-3.1,0c-2,0.4-3.8,0.9-5.7,1.2l0,0c-0.2-0.5-0.5-0.9-0.8-1.3
		c-0.5-0.6-1-1.2-1.5-1.8c-0.6-0.6-1.2-1.1-1.8-1.5c-0.3-0.2-0.6-0.4-0.9-0.5C71.4,72.7,73.8,72.7,76.3,72.8z M63.2,73.4
		c1.6-0.2,3.2-0.3,4.8-0.4c0.1,0.1,0.3,0.3,0.4,0.4c0.3,0.3,0.5,0.6,0.8,0.8c0.5,0.6,1,1.1,1.6,1.7c0.5,0.5,1.1,1.1,1.7,1.6
		c0.2,0.2,0.5,0.4,0.7,0.6c-1-0.2-1.9-0.3-2.9-0.3c-1.3-0.1-2.7-0.1-4,0.1c-1.3,0.2-2.6,0.6-4,0.7c-1.3,0.1-2.7,0.1-4,0.1
		c-0.3,0-0.7,0-1,0l-0.5,0l-0.1,0c0,0-0.1,0-0.2,0c-0.1,0-0.2,0.1-0.3,0.1c0-0.2-0.1-0.3-0.1-0.5c-0.2-0.6-0.5-1.1-0.8-1.6
		c-0.3-0.5-0.7-1-1.1-1.4c-0.1-0.2-0.3-0.3-0.4-0.4C56.8,74.3,60,73.7,63.2,73.4z M38,80.2c3.9-1.9,8.1-3.4,12.3-4.5
		c0.8-0.2,1.7-0.4,2.6-0.6c0.1,0.3,0.2,0.6,0.3,0.8c0.2,0.5,0.5,1,0.8,1.5c0.3,0.5,0.6,1,1,1.4l0.1,0.1c-0.2,0-0.5,0-0.7-0.1
		c-0.7,0-1.4,0-2.1,0c-0.7,0.1-1.4,0.1-2.1,0.3c-0.7,0.1-1.3,0.4-2,0.6c-1.3,0.5-2.7,0.8-4.1,1c-0.7,0.1-1.4,0.2-2.1,0.3
		c-0.4,0.1-0.7,0.2-1.1,0.3c-0.3,0.1-0.7,0.3-1.1,0.6c-0.2,0-0.4,0-0.6,0.1c-0.6,0.1-1.1,0.2-1.6,0.4c-0.5,0.2-1,0.4-1.5,0.8
		c-0.4,0.3-0.8,0.6-1.3,0.8c0-0.2-0.1-0.4-0.2-0.5c-0.1-0.2-0.3-0.4-0.5-0.6c-0.2-0.2-0.5-0.3-0.7-0.3c-0.1,0-0.2,0-0.4,0
		C34.7,81.8,36.4,81,38,80.2z M21.3,89.2c1.7-0.9,3.4-1.9,5.1-2.8c1.9-1.1,3.8-2.2,5.8-3.2c0.2-0.1,0.3-0.2,0.5-0.3
		c0.1,0.2,0.2,0.4,0.4,0.6c0.2,0.2,0.3,0.4,0.5,0.5c0.2,0.1,0.4,0.3,0.7,0.3c0.1,0,0.3,0.1,0.4,0.1c-0.5,0.6-1.2,1.1-1.8,1.5
		c-0.7,0.6-1.3,1.2-1.9,1.9c-0.6,0.7-1.1,1.4-1.5,2.2c-0.2,0.4-0.4,0.8-0.5,1.3c-0.1,0.2-0.1,0.4-0.2,0.7c0,0.1,0,0.2,0,0.3
		c-0.5,0-1,0-1.5,0l-2.4,0c0,0-0.2,0-0.2,0l-0.3-0.1l-0.6-0.1c-0.4-0.1-0.8-0.2-1.2-0.3c-0.4-0.1-0.8-0.2-1.2-0.3
		c-0.2-0.1-0.4-0.1-0.5-0.2c-0.1,0-0.2-0.1-0.2-0.1c0,0,0,0,0,0c0,0,0,0,0-0.1c0-0.3,0.2-0.7,0.4-1.1C21,89.8,21.1,89.5,21.3,89.2z
		 M17.1,98.5c-0.1,0-0.2,0-0.3,0c-0.6,0-1.3,0.2-1.8,0.4c-0.5,0.2-1,0.4-1.5,0.6c-0.5,0.1-1,0.2-1.5,0.2c-0.4,0-0.7-0.2-1-0.6
		c-0.5-0.8-0.7-1.9-0.7-2.9c0-0.5,0.1-1,0.2-1.5c0.2-0.5,0.4-0.9,0.7-1.2c0.1-0.1,0.5-0.2,0.7-0.3l0.8-0.3c0.5-0.2,1-0.4,1.6-0.6
		c2.1-0.8,4.1-1.7,6.1-2.7c0.1,0,0.2-0.1,0.3-0.1c-0.1,0.1-0.2,0.3-0.3,0.4c-0.2,0.4-0.5,0.7-0.6,1.2c0,0.1,0,0.2,0,0.3
		c0,0.1,0.1,0.2,0.2,0.3c0.1,0.1,0.2,0.2,0.3,0.2c0.2,0.1,0.4,0.2,0.6,0.3c0.4,0.2,0.8,0.4,1.2,0.5c0.4,0.2,0.8,0.3,1.2,0.4l0.2,0.1
		c-0.6,0.2-1.1,0.4-1.7,0.7c-0.7,0.3-1.4,0.7-2,1.2c-0.6,0.4-1.3,0.9-1.8,1.5C17.6,97.1,17.2,97.8,17.1,98.5z M17.8,98.6
		c-0.1,0-0.1,0-0.2,0c0.5-0.4,0.9-0.8,1.3-1.1c0.6-0.5,1-1.1,1.5-1.6c0.5-0.5,1.1-1,1.7-1.4c0.5-0.4,1.1-0.8,1.6-1.1l0.1,0l0.3,0.1
		c0.1,0,0.2,0.1,0.4,0.1c0.2,0,0.2,0,0.4,0l0.3,0l0.6,0.1l1.2,0.1c2.7,0.2,5.4,0.4,8.1,0.6l-0.4,1.3l-0.7,1.9
		c-0.2,0.6-0.6,1.2-0.7,1.8c-0.1,0.5-0.2,1.1-0.4,1.6c-2.1-0.1-4.2-0.4-6.3-0.7c-2.2-0.3-4.3-0.7-6.5-1.2l-1.6-0.3L17.8,98.6z
		 M24.9,121.6c-1.7,0.5-3.3,1.3-5,1.8c-1.7,0.5-3.4,0.9-5.2,1.2c-0.9,0.2-1.8,0.3-2.6,0.5c-0.4,0.1-0.9,0.2-1.3,0.3l-0.2,0l-0.1,0
		c-0.1,0-0.2,0-0.2,0c-0.1,0-0.3,0-0.4,0c-0.6-0.1-1.1-0.5-1.3-1c-0.1-0.3-0.1-0.5-0.2-1l-0.1-1.3c-0.4-3.2-0.7-6.3-1.2-9.5
		c0.8-0.5,1.5-1.1,2.2-1.6c0.4-0.3,0.7-0.5,1.1-0.7c0,0,0,0,0,0c0.1,0.2,0.2,0.4,0.6,0.7c0.2,0.2,0.5,0.4,0.9,0.4
		c0.4,0,0.8-0.1,1-0.2c0,0,0.1,0,0.1-0.1l0.1,0c0.1,0,0.2-0.1,0.3-0.1c0.2-0.1,0.4-0.1,0.7-0.2c0.9-0.3,1.9-0.5,2.9-0.8
		c1.8-0.5,3.6-1,5.4-1.5c0.2,0.8,0.4,1.6,0.6,2.4c0.3,0.9,0.6,1.7,1,2.6c0.2,0.4,0.4,0.8,0.6,1.2c0.2,0.4,0.5,0.8,0.8,1.2
		c0.6,0.7,1.3,1.4,2.1,2c0.2,0.1,0.4,0.3,0.7,0.4c0.1,0.1,0.3,0.1,0.4,0.1l0.3,0.1l1.3,0.4c1.2,0.3,2.4,0.6,3.7,0.9
		C30.8,120.2,27.8,120.8,24.9,121.6z M52,117.7c-0.6,0.2-1.1,0.8-1.3,1.3c-0.2,0.5-0.3,1.1-0.3,1.6c0,0.1,0,0.2,0,0.3
		c-0.1,0-0.1,0-0.2,0c-0.2,0-0.5-0.1-0.7-0.1c-0.5-0.1-1-0.1-1.5,0c-1,0.1-1.9,0.5-2.7,1c-0.2,0.1-0.4,0.3-0.5,0.4
		c-0.1,0.1-0.2,0.1-0.3,0.1l-1.3-0.3c-0.9-0.2-1.7-0.5-2.6-0.7c-1.7-0.5-3.4-1.1-5.1-1.7c-1.7-0.6-3.4-1.3-5-1.8l-1.3-0.4l-0.3-0.1
		c-0.1,0-0.1,0-0.2-0.1c-0.2-0.1-0.3-0.2-0.5-0.3c-0.7-0.4-1.3-1-1.8-1.6c-0.5-0.6-1-1.4-1.4-2.1c-0.4-0.8-0.8-1.6-1.1-2.4
		c-0.7-1.6-1.3-3.3-1.9-5l0,0c0,0,0-0.1-0.1-0.1c0,0-0.1,0-0.1,0.1c0.1,0.9,0.2,1.8,0.4,2.7c-1.9,0-3.7,0.1-5.6,0.3
		c-1,0.1-2,0.3-3,0.4c-0.3,0-0.5,0.1-0.8,0.2c-0.1,0-0.3,0.1-0.4,0.1c-0.1,0-0.1,0-0.2,0.1c-0.1-0.1-0.1-0.2-0.2-0.3
		c-0.2-0.2-0.5-0.6-0.9-0.8l0,0l-0.1,0c-0.1,0-0.2-0.1-0.3-0.1c-0.1,0-0.2,0-0.2,0c-0.1,0-0.1,0-0.2,0c-0.2,0-0.3,0.1-0.4,0.1
		c-0.2,0.1-0.3,0.2-0.5,0.2c-0.5,0.3-0.9,0.6-1.3,0.9l-2.4,1.9c-0.8,0.6-1.6,1.2-2.4,1.7c-0.4,0.2-0.8,0.4-1.1,0.6
		c0.7-1.3,1.6-2.6,2.7-3.8c1.4-1.5,3-2.6,4.8-3.6c0.9-0.5,1.7-1,2.5-1.6l2.5-1.7c1.4-0.9,2.7-1.9,4.1-2.9l1.1,0.3
		c2.2,0.5,4.3,1,6.5,1.4c2.2,0.4,4.4,0.7,6.6,0.9c1.1,0.1,2.2,0.2,3.4,0.2c1.1,0,2.2,0,3.3-0.1c4.4-0.1,8.8-0.3,13.2-0.5
		c0.3,0.2,0.6,0.4,0.8,0.6c0.4,0.3,0.8,0.7,1.1,1.1c0.6,0.8,1,1.7,0.9,2.5c0,0.4-0.2,0.8-0.5,1.2c-0.1,0.2-0.3,0.4-0.4,0.5
		c-0.1,0.1-0.2,0.2-0.2,0.3l-0.1,0.1c0,0-0.1,0.1-0.1,0.2c-0.1,0.1-0.1,0.2-0.1,0.3c-0.1,0.2-0.1,0.4,0,0.7c-0.3,0.1-0.6,0.2-1,0.2
		c-0.9,0.2-1.8,0.4-2.7,0.6l-2.8,0.5c-0.8,0.1-1.5,0.3-2.3,0.5l-1.4-0.7c-0.4-0.2-0.8-0.4-1.3-0.6c-0.4-0.1-0.6-0.3-0.9-0.7
		c-0.2-0.3-0.4-0.7-0.5-1.1c-0.1-0.2-0.1-0.4-0.1-0.6c0-0.2-0.1-0.5-0.1-0.7c-0.2-0.9-0.4-1.8-0.7-2.7c0,0,0-0.1-0.1-0.1
		c0,0-0.1,0-0.1,0.1c0.1,0.9,0.2,1.8,0.3,2.7c0,0.2,0,0.4,0,0.7c0,0.2,0,0.5,0,0.8c0.1,0.5,0.2,1,0.5,1.5c0.3,0.5,0.7,0.9,1.2,1.1
		l1.2,0.7c0.8,0.4,1.6,0.9,2.4,1.3c0.8,0.4,1.6,0.9,2.5,1.3l0.6,0.3c0,0,0,0,0.1,0.1c0.1,0,0.1,0,0.2,0c0.1,0,0.2,0,0.2,0l0.4,0
		c0.5,0,1,0,1.4,0c0.2,0,0.5,0.1,0.7,0.3c0,0,0.1,0.1,0.1,0.2c0,0.1,0.1,0.1,0.1,0.2c0.1,0.2,0.2,0.4,0.3,0.5
		c0.2,0.4,0.4,0.7,0.5,1.1c0,0.1,0,0.2,0,0.2C52.8,117.5,52.4,117.6,52,117.7z M126.2,104.7c0,0.5,0,0.9,0,1.4c0,0.5,0,0.9,0,1.3
		c0,0.8-0.3,1.6-0.7,2.3c-0.8,1.4-2.3,2.5-3.9,2.7c-3.5,0.4-7.1,0.6-10.7,0.8c-3.6,0.2-7.1,0.2-10.7,0.4c-7.1,0.3-14.3,0.6-21.4,1
		c-3.5,0.2-7.1,0.3-10.7,0.5c-3.6,0.3-7.2,0.6-10.7,1.4c0,0,0,0-0.1,0c0,0,0-0.1,0-0.1c-0.3-0.7-0.6-1.4-1.1-2
		c-0.2-0.3-0.5-0.6-1-0.8c-0.1-0.1-0.2-0.1-0.4-0.1c-0.1,0-0.2,0-0.3,0c-0.2,0-0.4,0-0.6,0c-0.4,0-0.8,0.1-1.2,0.3
		c-0.1,0.1-0.2,0.1-0.3,0.2c-0.4-0.2-0.8-0.3-1.3-0.3c-0.5,0-0.9,0-1.3,0l-0.3,0l-0.1,0l-0.6-0.3l-2.5-1.1l-0.2-0.1
		c0.5,0.1,1,0.1,1.5,0.1c1,0,1.9-0.1,2.9-0.3c1-0.2,1.9-0.5,2.8-0.9c0.4-0.2,0.7-0.3,1.1-0.5c0.1,0.1,0.2,0.2,0.4,0.2
		c0.1,0,0.2,0,0.3,0c0,0,0.1,0,0.1,0l0.1,0l0.8-0.1l1.6-0.2c2.1-0.3,4.1-0.8,6.2-1.3c1-0.3,2-0.5,3-0.7c1-0.2,2-0.3,3.1-0.4
		c2.1-0.2,4.2-0.4,6.3-0.5c2.1-0.1,4.2-0.2,6.3-0.3c2.1-0.2,4.2-0.4,6.3-0.6c0.5-0.1,1-0.1,1.6-0.3c0.6-0.1,1-0.2,1.6-0.4
		c1-0.3,2-0.6,3.1-1l3.6-1.4l-0.1,0c0.4-0.1,0.9-0.1,1.3-0.2l1.4-0.3c0.5-0.1,1-0.2,1.4-0.3c1.7-0.2,3.5,0,5.3,0.4
		c0.6,0.3,1.2,0.6,1.8,1c0.6,0.4,1.2,0.9,2.1,1.3c0.2,0.1,0.5,0.2,0.7,0.2l0.6,0.1c0.4,0.1,0.8,0.1,1.2,0.1c0.8,0,1.6,0,2.4-0.1
		c0.7-0.1,1.6-0.1,2.5-0.5c0.4-0.2,0.8-0.4,1.2-0.6c0.4-0.2,0.7-0.5,0.9-0.7c0.1-0.1,0.2-0.1,0.3-0.2c0.1,0,0.3-0.1,0.5-0.1
		c0.4,0,0.7-0.1,1.1-0.1c0.4,0,0.8-0.1,1.2-0.2c0.4-0.1,0.9-0.2,1.2-0.6l0.2-0.2l-0.2-0.2c-0.7-1-1.6-1.7-2.5-2.4
		c-0.9-0.7-1.8-1.3-2.8-1.9c-1.8-1.3-3.7-2.5-5.5-3.7c0,0-0.1,0-0.1-0.1l1.6,0.5c1.2,0.3,2.3,0.6,3.5,0.9c1.2,0.2,2.4,0.4,3.7,0.3
		c0.6,0,1.3-0.1,1.9-0.3c0.2,0,0.3-0.1,0.5-0.2C126.3,98.4,126.2,101.6,126.2,104.7z"/>
</g>
</svg>
