<?xml version="1.0" encoding="utf-8"?>
<!-- Generator: Adobe Illustrator 18.1.0, SVG Export Plug-In . SVG Version: 6.00 Build 0)  -->
<svg version="1.1" baseProfile="tiny" id="Layer_1" xmlns="http://www.w3.org/2000/svg" xmlns:xlink="http://www.w3.org/1999/xlink"
	 x="0px" y="0px" viewBox="0 0 128 128" xml:space="preserve">
<g>
	<path fill="#2D2D2D" d="M87.8,39.1c-5.9-4.7-11.5-9.2-12-16h4.3c0.5,0,1-0.4,1-1v-9.5c0-0.5-0.4-1-1-1h-3.9L78,3.6
		c0.1-0.9-0.1-1.8-0.7-2.5C76.7,0.4,75.9,0,75,0H55.5c-0.9,0-1.8,0.4-2.4,1.1c-0.6,0.7-0.8,1.6-0.7,2.5c0,0,0,0.1,0,0.1l2.1,7.9
		h-4.2c-0.5,0-1,0.4-1,1v9.5c0,0.5,0.4,1,1,1h4.3c-0.5,6.7-6.1,11.2-11.9,15.9c-7.1,5.7-14.5,11.6-14.5,22.2v59.5
		c0,4,3.3,7.3,7.3,7.3h59.3c4,0,7.3-3.3,7.3-7.3V61.1C102.3,50.6,94.9,44.8,87.8,39.1z M30.2,61.1c0-1.5,0.2-2.9,0.5-4.2h69.1
		c0.3,1.3,0.5,2.7,0.5,4.2v52H30.2V61.1z M54.4,3.2c0-0.3,0.1-0.6,0.3-0.9C54.9,2.1,55.2,2,55.5,2H75c0.3,0,0.6,0.1,0.9,0.4
		c0.2,0.3,0.3,0.6,0.3,0.8l-1.9,8.4H56.7L54.4,3.2z M51.4,13.6h4.5c0,0,0,0,0,0c0,0,0,0,0,0h23.2v7.5H51.4V13.6z M44,40.5
		c6-4.8,12.2-9.8,12.7-17.4h17.2c0.5,7.8,6.7,12.8,12.8,17.6C91.7,44.8,97,49,99.2,55H31.3C33.5,48.9,38.8,44.6,44,40.5z M94.9,126
		H35.6c-3,0-5.4-2.4-5.4-5.4v-5.6h70.1v5.6C100.3,123.6,97.9,126,94.9,126z"/>
	<path fill="#2D2D2D" d="M71.2,75.7c-2.5,0-4.5,2-4.5,4.5c0,2.5,2,4.5,4.5,4.5c2.5,0,4.5-2,4.5-4.5C75.7,77.7,73.7,75.7,71.2,75.7z
		 M71.2,82.7c-1.4,0-2.5-1.1-2.5-2.5c0-1.4,1.1-2.5,2.5-2.5c1.4,0,2.5,1.1,2.5,2.5C73.7,81.6,72.6,82.7,71.2,82.7z"/>
	<path fill="#2D2D2D" d="M59.2,75.7c-2.5,0-4.5,2-4.5,4.5c0,2.5,2,4.5,4.5,4.5c2.5,0,4.5-2,4.5-4.5C63.7,77.7,61.7,75.7,59.2,75.7z
		 M59.2,82.7c-1.4,0-2.5-1.1-2.5-2.5c0-1.4,1.1-2.5,2.5-2.5c1.4,0,2.5,1.1,2.5,2.5C61.7,81.6,60.6,82.7,59.2,82.7z"/>
	<path fill="#2D2D2D" d="M92.6,97.9c-0.2-1.1-0.8-2.1-1.8-2.7c-1.4-1-3.3-1-4.7-0.1L78.5,90c1.8-2.6,2.7-5.7,2.7-8.9
		c0-0.8-0.1-1.6-0.2-2.4c0.1,0,0.2-0.1,0.3-0.1l4.9-3.3c1.4,0.9,3.3,0.9,4.7-0.1c1.9-1.3,2.4-3.9,1.1-5.9c-0.5-0.7-1.1-1.2-1.8-1.5
		c0-0.8-0.3-1.6-0.7-2.2c-0.6-0.9-1.6-1.6-2.7-1.8c-1.1-0.2-2.2,0-3.2,0.7c-1.4,1-2.1,2.7-1.8,4.3l-3.9,2.6c-3-4-7.9-6.5-13.3-6.3
		c-4.9,0.2-9.2,2.6-12.1,6.3l-3.8-2.6c0.3-1.6-0.3-3.4-1.8-4.3c-0.9-0.6-2.1-0.9-3.2-0.7c-1.1,0.2-2.1,0.8-2.7,1.8
		c-0.5,0.7-0.7,1.4-0.7,2.2c-0.7,0.3-1.4,0.8-1.8,1.5c-1.3,1.9-0.8,4.5,1.1,5.9c1.4,1,3.3,1,4.7,0.1l5.1,3.5
		c-0.1,0.6-0.1,1.1-0.2,1.7c-0.1,3.5,0.8,6.8,2.7,9.6l-7.6,5.2c-1.4-0.9-3.3-0.9-4.7,0.1c-1.9,1.3-2.4,3.9-1.1,5.9
		c0.5,0.7,1.1,1.2,1.8,1.5c0,0.8,0.3,1.6,0.7,2.2c0.8,1.2,2.1,1.8,3.5,1.8c0.8,0,1.6-0.2,2.4-0.7c1.4-1,2.1-2.7,1.8-4.3l7.4-5v4.5
		c0,1.2,1,2.2,2.2,2.2h13.8c1.2,0,2.2-1,2.2-2.2v-4.5l7.5,5.1c-0.3,1.6,0.3,3.4,1.8,4.3c0.7,0.5,1.5,0.7,2.4,0.7
		c0.3,0,0.5,0,0.8-0.1c1.1-0.2,2.1-0.8,2.7-1.8c0.5-0.7,0.7-1.4,0.7-2.2c0.7-0.3,1.4-0.8,1.8-1.5C92.6,100.1,92.9,99,92.6,97.9z
		 M83.5,70c0.4-0.3,0.5-0.8,0.4-1.2c-0.4-1-0.1-2.1,0.8-2.7c0.5-0.3,1.1-0.5,1.7-0.4c0.6,0.1,1.1,0.4,1.4,0.9
		c0.3,0.5,0.5,1.1,0.4,1.7c-0.1,0.5,0.3,1,0.8,1.1c0.6,0.1,1.1,0.4,1.4,0.9c0.7,1,0.4,2.4-0.6,3.1c-0.9,0.6-2.1,0.5-2.8-0.2
		c-0.3-0.3-0.9-0.4-1.2-0.1l-5.1,3.4c-0.4-1.3-0.9-2.5-1.5-3.6L83.5,70z M44.8,73.2c-0.4-0.3-0.9-0.2-1.2,0.1
		c-0.8,0.7-2,0.8-2.8,0.2c-1-0.7-1.3-2.1-0.6-3.1c0.3-0.5,0.8-0.8,1.4-0.9c0.5-0.1,0.9-0.6,0.8-1.1c-0.1-0.6,0-1.2,0.4-1.7
		c0.3-0.5,0.9-0.8,1.4-0.9c0.6-0.1,1.2,0,1.7,0.4c0.9,0.6,1.2,1.7,0.8,2.7c-0.2,0.4,0,0.9,0.4,1.2l4.4,3c-0.7,1.1-1.2,2.3-1.6,3.6
		L44.8,73.2z M47,100.3c-0.4,0.3-0.5,0.8-0.4,1.2c0.4,1,0.1,2.1-0.8,2.7c-1,0.7-2.4,0.4-3.1-0.6c-0.3-0.5-0.5-1.1-0.4-1.7
		c0.1-0.5-0.3-1-0.8-1.1c-0.6-0.1-1.1-0.4-1.4-0.9c-0.3-0.5-0.5-1.1-0.4-1.7c0.1-0.6,0.4-1.1,0.9-1.4c0.9-0.6,2.1-0.5,2.8,0.2
		c0.3,0.3,0.9,0.4,1.2,0.1l8.3-5.7c0.9,1,1.9,1.9,3,2.6L47,100.3z M72.4,93.6v7.4c0,0.1-0.1,0.3-0.3,0.3h-3.4v-4.6c0-0.5-0.4-1-1-1
		s-1,0.4-1,1v4.6h-3v-4.6c0-0.5-0.4-1-1-1c-0.5,0-1,0.4-1,1v4.6h-3.4c-0.1,0-0.3-0.1-0.3-0.3v-7.4c0-0.3-0.2-0.6-0.5-0.8
		c-4.2-2.7-6.6-7.3-6.4-12.3c0.3-7.2,6.2-13.1,13.5-13.4c0.2,0,0.4,0,0.6,0c7.7,0,14,6.3,14,14c0,4.8-2.4,9.2-6.4,11.8
		C72.5,93,72.4,93.3,72.4,93.6z M90.4,99.9c-0.3,0.5-0.8,0.8-1.4,0.9c-0.5,0.1-0.9,0.6-0.8,1.1c0.1,0.6,0,1.2-0.4,1.7
		c-0.7,1-2.1,1.3-3.1,0.6c-0.9-0.6-1.2-1.7-0.8-2.7c0.2-0.4,0-0.9-0.4-1.2l-9.1-6.2c1.1-0.8,2-1.6,2.9-2.6l8.4,5.6
		c0.4,0.3,0.9,0.2,1.2-0.1c0.8-0.7,2-0.8,2.8-0.2c0.5,0.3,0.8,0.9,0.9,1.4C90.8,98.9,90.7,99.5,90.4,99.9z"/>
</g>
</svg>
