<?xml version="1.0" encoding="utf-8"?>
<!-- Generator: Adobe Illustrator 24.1.2, SVG Export Plug-In . SVG Version: 6.00 Build 0)  -->
<svg version="1.1" id="Layer_1" xmlns="http://www.w3.org/2000/svg" xmlns:xlink="http://www.w3.org/1999/xlink" x="0px" y="0px"
	 viewBox="0 0 128 128" style="enable-background:new 0 0 128 128;" xml:space="preserve">
<style type="text/css">
	.st0{fill:#BC8057;}
	.st1{fill:#2D2D2D;}
</style>
<g>
	<path class="st0" d="M59.5,120.42C59.5,120.43,59.5,120.42,59.5,120.42L59.5,120.42L59.5,120.42z"/>
	<path class="st1" d="M61.88,126.74l0.49-1.31l0.45,0.04c0.01,0.03,0.01,0.06,0.02,0.09c0.03,0.14,0.04,0.27,0.05,0.41
		c0.01,0.18,0,0.36-0.03,0.54L61.88,126.74z"/>
	<path class="st1" d="M57.87,121.73c-0.02,0.08-0.04,0.15-0.06,0.23l-1.11,0.29l0.48-1.29l0.88,0.08l-0.08,0.27L57.87,121.73z"/>
	<path class="st1" d="M47.28,122.82l0.17-1.18l0.81-0.05c0.29,0.19,0.58,0.38,0.87,0.57L47.28,122.82z"/>
	<path class="st1" d="M39.9,119.51c0.08,0.08,0.15,0.14,0.23,0.21c0.15,0.13,0.31,0.25,0.48,0.37c0.13,0.09,0.26,0.16,0.39,0.24
		l-1.34,1.01l-0.5-1.77l0.6-0.22C39.8,119.41,39.85,119.46,39.9,119.51z"/>
	<g>
		<path class="st1" d="M127.86,113.05c-0.21-0.51-0.56-0.91-0.93-1.22c-0.37-0.31-0.78-0.56-1.2-0.77
			c-0.47-0.22-0.77-0.33-1.09-0.54c-0.31-0.2-0.58-0.44-0.84-0.72c-0.53-0.55-1-1.31-1.73-1.95c-0.18-0.16-0.37-0.32-0.57-0.45
			c-0.21-0.15-0.36-0.24-0.56-0.36c-0.37-0.23-0.74-0.46-1.14-0.68c-0.4-0.22-0.82-0.4-1.25-0.56c-0.22-0.08-0.44-0.14-0.67-0.19
			c-0.2-0.04-0.4-0.08-0.59-0.14c-0.4-0.1-0.78-0.25-1.19-0.39c-0.39-0.13-0.8-0.32-1.25-0.33c0.02-0.17,0.03-0.35,0.03-0.52l0,0.01
			c0.04-1.24,0.04-2.49-0.03-3.75c-0.04-0.63-0.1-1.26-0.26-1.91c-0.08-0.32-0.19-0.68-0.38-0.98c-0.18-0.31-0.4-0.59-0.65-0.84
			c-0.5-0.49-1.07-0.86-1.67-1.15c-0.59-0.29-1.21-0.52-1.83-0.7c-0.62-0.18-1.25-0.32-1.86-0.44c-0.62-0.12-1.2-0.21-1.73-0.37
			c-1.06-0.31-2.03-0.92-2.94-1.68c-0.25-0.2-0.4-0.33-0.56-0.54c-0.15-0.2-0.3-0.43-0.42-0.68c-0.24-0.49-0.42-1.05-0.56-1.62
			c-0.28-1.15-0.43-2.36-0.55-3.58l-0.19-1.85c-0.02-0.16-0.04-0.32-0.06-0.48c-0.03-0.17-0.04-0.31-0.15-0.56
			c-0.01-0.03-0.04-0.08-0.08-0.12c-0.03-0.03-0.05-0.05-0.09-0.08c-0.05-0.03-0.1-0.06-0.16-0.07c-0.15-0.03-0.23,0.01-0.3,0.04
			c-0.07,0.04-0.11,0.08-0.15,0.11c-0.12,0.15-0.14,0.24-0.17,0.34c-0.05,0.19-0.07,0.35-0.09,0.51c-0.06,0.65-0.07,1.27-0.06,1.9
			c0,0.62,0.03,1.25,0.05,1.87c0.02,0.62,0.06,1.24,0.09,1.86c0.03,0.62,0.08,1.24,0.16,1.87c0.17,1.25,0.6,2.53,1.49,3.55
			c0.44,0.5,0.98,0.92,1.58,1.23c0.1,0.05,0.19,0.08,0.29,0.13c-1.66-0.47-3.14-1.28-4.2-2.49c-0.16-0.17-0.27-0.54-0.35-0.93
			c-0.08-0.38-0.13-0.8-0.16-1.21c-0.08-0.83-0.1-1.69-0.12-2.56c-0.04-0.87-0.04-1.73-0.13-2.65c-0.03-0.24-0.04-0.45-0.14-0.79
			c-0.02-0.05-0.03-0.09-0.07-0.17c-0.02-0.03-0.03-0.06-0.07-0.12l-0.05-0.07c-0.03-0.03-0.07-0.07-0.1-0.1l-0.06-0.05
			c-0.03-0.02-0.07-0.04-0.1-0.06c-0.08-0.03-0.14-0.06-0.24-0.07c-0.09-0.01-0.19,0-0.26,0.02c-0.06,0.02-0.13,0.04-0.18,0.07
			c-0.17,0.1-0.23,0.19-0.27,0.25c-0.15,0.23-0.17,0.34-0.22,0.47c-0.15,0.5-0.22,0.93-0.29,1.38c-0.25,1.78-0.29,3.57,0.01,5.36
			c0.08,0.45,0.19,0.89,0.35,1.33c0.18,0.45,0.43,0.82,0.69,1.19c0.54,0.72,1.17,1.36,1.89,1.89c0.72,0.53,1.52,0.97,2.4,1.24
			c0.44,0.15,0.89,0.22,1.36,0.28c0.43,0.05,0.83,0.1,1.24,0.19c0.41,0.09,0.82,0.16,1.21,0.28c0.4,0.1,0.8,0.22,1.18,0.35
			c0.77,0.26,1.55,0.6,2.07,1.09c0.56,0.54,1.05,1.24,1.49,1.97c0.22,0.37,0.43,0.74,0.63,1.12l0.29,0.58l0.09,0.2
			c-0.47-0.24-0.94-0.44-1.43-0.62l-0.83-0.3c-0.28-0.1-0.55-0.21-0.84-0.26c-0.58-0.1-1.17-0.07-1.78,0.08l-0.42,0.1l0.03,0.28
			c0.07,0.64,0.36,1.25,0.76,1.73c0.4,0.48,0.89,0.85,1.41,1.15c0.52,0.3,1.06,0.53,1.62,0.72c0.38,0.12,0.76,0.22,1.15,0.3
			c-0.28,0.18-0.59,0.31-0.92,0.39c-0.51,0.13-1.05,0.15-1.6,0.11c-0.71-0.05-1.41-0.19-2.11-0.36c-0.87-0.25-1.76-0.45-2.65-0.63
			l-3.93-0.78c-1.3-0.27-2.61-0.53-3.84-0.95c-0.62-0.21-1.2-0.44-1.68-0.82c-0.51-0.38-1-0.83-1.5-1.27c-1-0.89-2.03-1.8-3.23-2.51
			c-0.6-0.35-1.24-0.66-1.92-0.88c-0.34-0.1-0.69-0.2-1.05-0.25l-1-0.15c-2.65-0.37-5.3-0.66-7.92-1.05
			c-0.63-0.09-1.26-0.19-1.89-0.3c-0.17-0.44-0.26-0.94-0.31-1.43c-0.06-0.69-0.04-1.39-0.01-2.08c0.08-1.39,0.12-2.77,0.24-4.14
			c0.13-1.37,0.19-2.75,0.31-4.12c0.06-0.69,0.13-1.37,0.22-2.05c0.02-0.14,0.04-0.27,0.06-0.41l0.08-0.09
			c0.61-0.64,1.23-1.28,1.81-1.96c0.58-0.69,1.14-1.41,1.63-2.21c0.48-0.8,0.92-1.69,1.01-2.76c0.01-0.13,0.01-0.27,0.01-0.4
			c0-0.14-0.01-0.22-0.01-0.33c-0.01-0.21-0.01-0.42,0-0.63c0.01-0.42,0.03-0.85,0.07-1.27c0.07-0.85,0.19-1.7,0.35-2.54
			c0.17-0.84,0.36-1.68,0.63-2.48c0.13-0.4,0.29-0.8,0.47-1.17c0.18-0.38,0.39-0.67,0.69-1.02c0.55-0.67,1.1-1.35,1.7-1.97
			c0.3-0.31,0.61-0.61,0.96-0.86c0.25-0.18,0.52-0.36,0.81-0.45c0.32,0.26,0.7,0.46,1.11,0.57l0.23,0.06l0.18,0.06
			c0.12,0.05,0.25,0.1,0.38,0.16c0.27,0.12,0.55,0.29,0.83,0.47c0.28,0.18,0.56,0.39,0.89,0.56c0.17,0.08,0.36,0.17,0.61,0.17
			c0.22,0,0.42-0.06,0.59-0.15c0.35-0.19,0.6-0.47,0.79-0.77c0.17-0.26,0.29-0.55,0.38-0.84c0.07,0.05,0.32,0.29,0.56,0.23
			c0.67-0.18,1.19-1.11,1.65-1.64c0.12-0.13,0.23-0.26,0.35-0.4l0.17-0.2c0.11-0.12,0.2-0.31,0.22-0.49
			c0.02-0.18-0.02-0.38-0.11-0.54c-0.06-0.1-0.08-0.12-0.11-0.15l-0.08-0.11l-0.33-0.41c-0.44-0.55-0.94-1.05-1.39-1.58
			c-0.44-0.52-0.84-1.08-1.15-1.69c-0.04-0.56-0.2-1.13-0.45-1.63c-0.26-0.51-0.61-0.97-1.02-1.36c-0.4-0.4-0.84-0.74-1.31-1.03
			c-0.44-0.26-0.9-0.5-1.41-0.62c0.14-0.54,0.22-1.08,0.27-1.62c0.04-0.36,0.06-0.71,0.04-1.07c-0.01-0.36-0.05-0.72-0.07-1.07
			L88.45,48l-0.49,0.17c-0.94,0.32-1.67,0.96-2.23,1.67c-0.28,0.36-0.52,0.74-0.73,1.14c-0.2,0.37-0.37,0.76-0.51,1.16
			c-0.85,0.2-1.66,0.5-2.47,0.8c-0.82,0.31-1.63,0.64-2.44,0.97c-1.62,0.67-3.22,1.36-4.8,2.12c-3.16,1.51-6.31,3.05-9.29,4.96
			l-0.55,0.36c-0.18,0.1-0.34,0.21-0.52,0.3c-0.36,0.19-0.74,0.35-1.13,0.49c-0.78,0.28-1.6,0.48-2.43,0.64
			c-1.67,0.31-3.38,0.41-5.1,0.41c-1.71-0.01-3.43-0.11-5.14-0.31c-1.7-0.22-3.41-0.49-5.04-0.95l-1.26-0.36
			c-0.43-0.11-0.87-0.22-1.31-0.31c-0.88-0.18-1.76-0.3-2.64-0.39c-1.77-0.17-3.54-0.18-5.31-0.01c-1.76,0.18-3.52,0.53-5.17,1.21
			c-0.83,0.33-1.62,0.78-2.33,1.34c-0.35,0.28-0.68,0.61-0.97,0.94l-0.87,0.99c-1.15,1.33-2.18,2.81-2.84,4.46
			c-0.66,1.65-1.06,3.37-1.43,5.09c-0.35,1.71-0.75,3.41-1.27,5.07c-0.51,1.65-1.14,3.28-1.98,4.76c-0.84,1.48-1.92,2.83-3.3,3.73
			c-1.37,0.91-3,1.31-4.66,1.24c-0.84-0.03-1.67-0.12-2.43-0.35c-0.76-0.22-1.44-0.61-1.86-1.15c-0.86-1.08-0.53-2.91,0.26-4.19
			c0.1-0.16,0.17-0.24,0.34-0.43L7,83.06c0.29-0.35,0.56-0.71,0.83-1.08c0.52-0.75,1.02-1.54,1.32-2.52
			c0.14-0.49,0.24-1.05,0.09-1.68C9.16,77.48,9,77.17,8.78,76.92c-0.21-0.24-0.48-0.44-0.7-0.56c-0.46-0.28-1.02-0.46-1.59-0.46
			c-0.57-0.01-1.12,0.13-1.59,0.36c-0.95,0.46-1.65,1.15-2.25,1.87c-0.59,0.73-1.08,1.53-1.49,2.35c-0.4,0.83-0.76,1.68-0.96,2.64
			c-0.19,0.93-0.25,1.88-0.18,2.81c0.13,1.87,0.75,3.75,1.94,5.26c1.19,1.52,2.94,2.52,4.73,2.97c1.81,0.45,3.62,0.53,5.46,0.27
			c0.91-0.15,1.8-0.39,2.65-0.73c0.85-0.35,1.65-0.79,2.41-1.29c1.51-1.02,2.78-2.32,3.86-3.75c1.07-1.43,1.96-2.99,2.66-4.62
			c0.72-1.62,1.23-3.33,1.55-5.07c0.15-0.87,0.25-1.76,0.24-2.64c-0.02-0.43,0.04-0.85,0.31-1.15c0.25-0.31,0.7-0.34,1.1-0.23
			c0.34,0.17,0.51,0.52,0.61,0.88c0.11,0.38,0.19,0.77,0.26,1.17c0.15,0.79,0.24,1.59,0.32,2.38c0.14,1.59,0.17,3.19,0.01,4.76
			c-0.16,1.57-0.43,3.12-0.95,4.6c-0.27,0.74-0.59,1.47-1.02,2.14c-0.42,0.67-0.93,1.3-1.51,1.84l-0.09,0.09l0.03,0.12
			c0.42,1.97,0.74,3.98,1.36,5.95c0.31,0.98,0.69,1.96,1.26,2.87c0.55,0.91,1.29,1.78,2.29,2.36l0.14,0.08l0.19,0l3.33,0.08
			l1.66,0.01c0.55,0,1.11,0,1.66-0.01l0.82-0.02l-0.08-0.77c-0.04-0.38-0.11-0.63-0.21-0.92c-0.1-0.28-0.22-0.56-0.38-0.82
			c-0.3-0.52-0.74-0.98-1.24-1.31c-0.5-0.33-1.06-0.55-1.62-0.65c-0.47-0.09-0.94-0.11-1.4-0.1c-0.01-0.02-0.02-0.04-0.03-0.06
			c-0.06-0.1-0.11-0.23-0.16-0.35c-0.1-0.26-0.18-0.53-0.26-0.81c-0.15-0.56-0.26-1.14-0.34-1.73c-0.16-1.16-0.24-2.37-0.09-3.49
			c0.04-0.28,0.1-0.55,0.19-0.79c0.09-0.24,0.21-0.43,0.34-0.51c0.56-0.35,1.02-0.73,1.5-1.12c0.03-0.02,0.05-0.04,0.07-0.06
			c-0.01,0.93,0.06,1.85,0.21,2.76c0.17,1.01,0.42,2.02,0.79,2.99c0.38,0.97,0.96,1.88,1.64,2.67c0.68,0.8,1.42,1.54,2.32,2.1
			l0.04,0.03l0.07,0c1.11,0.04,2.22,0.19,3.33,0.31c0.55,0.05,1.11,0.09,1.66,0.11l1.66,0.07l0.77,0.03l-0.05-0.8
			c-0.02-0.37-0.08-0.63-0.17-0.93c-0.08-0.29-0.21-0.57-0.36-0.83c-0.29-0.54-0.72-1.01-1.24-1.34c-0.51-0.34-1.08-0.55-1.65-0.64
			c-0.48-0.09-0.95-0.09-1.41-0.06c-0.03-0.05-0.06-0.1-0.08-0.16c-0.07-0.15-0.14-0.32-0.2-0.5c-0.12-0.35-0.21-0.73-0.3-1.1
			c-0.16-0.76-0.27-1.53-0.33-2.31c-0.06-0.77-0.07-1.56,0.03-2.3c0.05-0.37,0.13-0.73,0.27-1.02c0.07-0.14,0.15-0.25,0.23-0.31
			l0.23-0.15l0.26-0.18c1.31-0.99,2.49-2.08,3.62-3.23c1.06-1.08,2.06-2.22,2.97-3.43c1.82,0.96,3.74,1.75,5.71,2.35
			c0.53,0.15,1.05,0.33,1.58,0.45l1.6,0.38c0.54,0.11,1.08,0.18,1.63,0.25c0.27,0.03,0.54,0.07,0.82,0.09l0.82,0.03
			c0.55,0,1.1,0.02,1.65,0c0.55-0.05,1.09-0.08,1.64-0.15c0.27-0.03,0.54-0.04,0.81-0.1L65,85.69c0.45-0.1,0.9-0.2,1.34-0.32
			c0.25,0.58,0.49,1.16,0.68,1.74c0.23,0.68,0.43,1.42,0.41,2.01c-0.06,1.54-0.09,3.07-0.07,4.6c0.01,0.77,0.03,1.54,0.06,2.32
			c-0.45-0.08-0.9-0.15-1.35-0.2c-1.35-0.14-2.71-0.11-4.05,0.06c-2.68,0.35-5.24,1.25-7.71,2.29c-1.24,0.5-2.49,1.15-3.5,2.13
			c-0.99,0.97-1.75,2.41-1.37,3.98l0.14,0.57l0.47-0.41l1.55-1.34c0.03,0.17,0.05,0.33,0.06,0.49c0.01,0.18-0.01,0.31-0.04,0.52
			c-0.03,0.19-0.06,0.38-0.1,0.57c-0.15,0.76-0.39,1.49-0.75,2.14c-0.35,0.65-0.85,1.21-1.43,1.66c-0.29,0.22-0.61,0.42-0.94,0.58
			c-0.17,0.08-0.33,0.17-0.51,0.23l-0.26,0.11c-0.05,0.02-0.28,0.11-0.41,0.21c-0.28,0.21-0.43,0.43-0.55,0.61
			c-0.13,0.19-0.22,0.36-0.32,0.5c-0.14,0.21-0.5,0.52-0.76,0.8l-1.72,1.72l-3.43,3.44L40,117.13l0.39,0.46l-0.68,0.73l-0.14,0.15
			c0,0,0,0-0.01,0l-1.49,0.55l1.09,3.81l3-1.92l0.35-0.5c1.01-1.46,2.26-2.78,3.65-3.93c1.4-1.15,2.91-2.18,4.51-3.06
			c1.6-0.88,3.28-1.62,5.02-2.19c0.29-0.1,0.59-0.19,0.89-0.28c-0.45,0.39-0.89,0.79-1.32,1.19c-0.83,0.77-1.65,1.54-2.45,2.34
			c-0.8,0.79-1.59,1.6-2.33,2.47c-0.73,0.87-1.42,1.78-2.12,2.67l-0.21,0.27l0.25,0.16l0.13,0.08l0.09,0.06
			c0.05,0.04,0.1,0.08,0.13,0.11c-0.02,0.02-0.03,0.04-0.04,0.05c-0.09,0.12-0.18,0.24-0.26,0.37c-0.04-0.01-1.77,0.08-1.77,0.08
			l-0.47,3.36l3.79-1.36c0.22-0.08,1.52-2.2,2.23-2.95c0.8-0.83,1.65-1.59,2.54-2.3c1.78-1.39,3.66-2.69,5.73-3.31
			c1.04-0.32,2.14-0.53,3.22-0.65c0.54-0.06,1.08-0.07,1.61-0.05c0.55,0.02,1.1,0.08,1.65,0.17c1.11,0.16,2.23,0.4,3.36,0.62
			c0.59,0.1,1.1,0.2,1.65,0.38c0.43,0.13,0.86,0.28,1.29,0.41c-0.11,0.29-0.23,0.59-0.35,0.89c-0.71,0.76-1.45,1.45-2.29,1.99
			c-1.01,0.64-2.13,1.08-3.31,1.34c-0.58,0.15-1.19,0.24-1.8,0.36l-0.92,0.16l-0.44,0.08c-0.15,0.02-0.29,0.04-0.45,0.05
			c-1.24,0.1-2.52-0.03-3.75-0.31l-0.16-0.04l-0.08,0.16c-0.07,0.14-0.15,0.28-0.22,0.41c-0.04,0.07-0.08,0.13-0.12,0.19
			c0,0.01-0.01,0.01-0.01,0.02c-0.24-0.04-0.89-0.21-1-0.22l-1.8-0.17l-1.31,3.54l3.39-0.89c0,0,0,0,0,0
			c1.88,0.26,3.74,0.19,5.57,0.22c1.01,0.01,2.01,0.03,3,0.08l0.74,0.04l0.78,0.06c0.29,0.01,0.61,0.01,0.98-0.09
			c0.18-0.05,0.39-0.15,0.58-0.3c0.12-0.1,0.21-0.22,0.29-0.35c0.69-0.4,1.3-0.85,1.9-1.3c0.65-0.51,1.28-1.01,1.91-1.52
			c0.63-0.51,1.26-1.01,1.91-1.48c0.28-0.21,0.57-0.41,0.87-0.59c0.1-0.03,0.2-0.06,0.3-0.09c-0.61,1.18-1.28,2.32-2.08,3.33
			c-0.84,1.06-1.84,1.97-2.98,2.6c-1.14,0.62-2.42,0.95-3.73,0.99c-0.65,0.03-1.32-0.01-1.97-0.09c-0.27-0.04-0.62-0.12-0.95-0.2
			l-0.99-0.27l-0.54-0.15l-0.14,0.51l-0.12,0.44l-0.77,0.04l-0.48,0.03l-0.96-0.09L60.47,128l2.98-0.72
			c0.04-0.01,0.07-0.03,0.1-0.05c3.56-0.44,7.12-0.73,10.71-0.97l1.39-0.12c0.24-0.02,0.49-0.05,0.76-0.12
			c0.27-0.07,0.58-0.21,0.81-0.43c0.23-0.21,0.37-0.42,0.51-0.62l0.4-0.55c0.27-0.36,0.54-0.72,0.83-1.06
			c1.14-1.37,2.5-2.54,4.1-3.08c0.79-0.28,1.63-0.42,2.48-0.42c0.18,0,0.51,0,0.77-0.04c0.27-0.03,0.53-0.09,0.78-0.16
			c0.5-0.14,0.96-0.32,1.41-0.53c1.73-0.88,3.26-1.93,4.76-3.07l0.55-0.43c0.15-0.11,0.32-0.21,0.51-0.3
			c0.38-0.18,0.8-0.32,1.23-0.43c0.86-0.23,1.77-0.37,2.67-0.46c0.91-0.09,1.82-0.13,2.73-0.09c0.91,0.05,1.83,0.14,2.68,0.48l0,0
			c0.02,0.01,0.04,0,0.05,0c1.31,0.71,2.77,1.14,4.27,1.3c0.93,0.1,1.89,0.09,2.83-0.07c0.47-0.09,0.94-0.2,1.39-0.37l0.34-0.12
			l0.3-0.09c0.2-0.05,0.41-0.1,0.62-0.13c1.67-0.23,3.5,0.14,5.21,0.44c0.87,0.17,1.76,0.42,2.74,0.51
			c0.49,0.04,0.98,0.04,1.46-0.05c0.24-0.04,0.49-0.11,0.72-0.22c0.2-0.1,0.4-0.24,0.55-0.44c0.35-0.13,0.73-0.1,1.12-0.01
			c0.2,0.05,0.41,0.12,0.64,0.16c0.23,0.05,0.51,0.07,0.78-0.02c0.27-0.09,0.49-0.25,0.67-0.43c0.18-0.18,0.33-0.36,0.45-0.6
			c0.13-0.23,0.22-0.51,0.23-0.8C128.01,113.6,127.96,113.31,127.86,113.05z M57.98,121.32l-0.12,0.41
			c-0.02,0.08-0.04,0.15-0.06,0.23l-1.11,0.29l0.48-1.29l0.88,0.08L57.98,121.32z M62.86,126.51l-0.98,0.23l0.49-1.31l0.45,0.04
			c0.01,0.03,0.01,0.06,0.02,0.09c0.03,0.14,0.04,0.27,0.05,0.41C62.9,126.15,62.89,126.33,62.86,126.51z M102.28,94.36
			c-0.85-0.77-1.37-1.89-1.6-3.08c-0.22-1.19-0.25-2.44-0.28-3.67c0-0.6,0-1.2,0.03-1.8l0,0.28c0.03,1.25,0.1,2.52,0.36,3.79
			c0.13,0.63,0.3,1.27,0.58,1.9c0.14,0.31,0.31,0.63,0.52,0.92c0.2,0.29,0.51,0.59,0.74,0.78c0.48,0.43,1,0.83,1.57,1.19
			c0.57,0.35,1.2,0.64,1.85,0.83c0.65,0.19,1.29,0.3,1.89,0.39c0.6,0.1,1.18,0.21,1.75,0.36c1.13,0.3,2.26,0.69,3.12,1.35
			c0.43,0.34,0.76,0.72,0.95,1.26c0.21,0.54,0.36,1.13,0.49,1.73c0.25,1.2,0.37,2.44,0.42,3.67l0,0.01l0,0
			c0.03,0.3,0.01,0.61-0.09,0.9c-0.05,0.14-0.13,0.27-0.23,0.37c-0.1,0.1-0.24,0.16-0.38,0.18c-0.29,0.04-0.62,0.03-0.81-0.18
			c-0.18-0.21-0.22-0.53-0.24-0.83c-0.02-0.61-0.01-1.24-0.03-1.86c-0.05-1.24-0.07-2.52-0.65-3.78c-0.15-0.31-0.36-0.62-0.64-0.87
			c-0.3-0.27-0.6-0.41-0.9-0.56c-0.59-0.28-1.17-0.52-1.76-0.73c-0.59-0.21-1.18-0.4-1.77-0.58c-0.59-0.19-1.18-0.36-1.77-0.52
			c-0.58-0.18-1.19-0.33-1.71-0.53C103.19,95.04,102.7,94.74,102.28,94.36z M111.11,102.04c-0.16-0.42-0.35-0.83-0.58-1.23
			c-0.22-0.4-0.48-0.79-0.8-1.15c-0.71-0.77-1.58-1.14-2.43-1.48c-0.86-0.32-1.76-0.5-2.67-0.56c-0.45-0.04-0.92-0.02-1.35,0
			c-0.4,0.01-0.82,0.01-1.22-0.06c-0.81-0.13-1.61-0.45-2.31-0.93c-0.35-0.24-0.68-0.51-0.97-0.82c-0.3-0.3-0.57-0.63-0.79-0.99
			c-0.22-0.35-0.44-0.73-0.54-1.11c-0.11-0.39-0.15-0.81-0.17-1.23c-0.03-0.75,0.03-1.52,0.1-2.28c0.04,0.52,0.09,1.05,0.17,1.58
			c0.07,0.45,0.16,0.9,0.29,1.36c0.07,0.23,0.15,0.46,0.26,0.7c0.11,0.23,0.27,0.5,0.5,0.7c0.7,0.62,1.51,1.11,2.37,1.41
			c0.86,0.31,1.76,0.44,2.64,0.45h0c0.04,0,0.97,0.28,1.45,0.44c0.59,0.21,1.17,0.4,1.76,0.59l1.76,0.55
			c0.58,0.18,1.17,0.35,1.72,0.56c0.27,0.11,0.55,0.21,0.72,0.33c0.19,0.14,0.37,0.33,0.52,0.56c0.31,0.46,0.52,1.03,0.68,1.61
			c0.16,0.58,0.26,1.19,0.34,1.8c0.09,0.61,0.1,1.22,0.17,1.85c0.02,0.14,0.04,0.29,0.08,0.44c-0.32-0.29-0.69-0.52-1.06-0.74
			l-0.01-0.11c-0.02-0.11-0.03-0.22-0.06-0.33c-0.05-0.22-0.09-0.44-0.15-0.65C111.42,102.88,111.28,102.46,111.11,102.04z
			 M73.89,97.64c-0.34-0.07-0.68-0.15-1.02-0.23c-0.18-2.42-0.06-4.86,0.33-7.24c0.14-0.84,0.33-1.67,0.58-2.47
			c0.25-0.78,0.57-1.59,1-2.14c0.09-0.12,0.24-0.28,0.38-0.43c-0.09,0.3-0.18,0.61-0.25,0.91c-0.33,1.4-0.53,2.83-0.55,4.25
			c-0.01,0.71,0,1.43,0.04,2.14c0.03,0.71,0.1,1.43,0.23,2.14c0.12,0.71,0.28,1.41,0.45,2.11c0.1,0.42,0.21,0.83,0.35,1.25
			C74.91,97.83,74.4,97.74,73.89,97.64z M44.6,85.58c-1.2,1.04-2.44,2.06-3.73,2.92l-0.52,0.32c-0.25,0.18-0.4,0.4-0.51,0.62
			c-0.22,0.43-0.31,0.86-0.38,1.29c-0.13,0.85-0.13,1.67-0.09,2.5c0.04,0.82,0.14,1.64,0.3,2.45c0.08,0.41,0.17,0.81,0.3,1.22
			c0.06,0.21,0.14,0.41,0.23,0.62c0.11,0.21,0.18,0.43,0.48,0.7l0.11,0.1l0.24,0.02c0.94,0.07,1.81,0.32,2.44,0.8
			c0.31,0.25,0.56,0.55,0.77,0.89c0.07,0.12,0.13,0.25,0.18,0.38l-0.73,0.03c-0.55,0.03-1.11,0.06-1.66,0.11
			c-1.09,0.11-2.18,0.26-3.27,0.3c-0.83-0.44-1.48-1.2-1.9-2.06c-0.43-0.88-0.71-1.82-1.05-2.73c-0.34-0.92-0.66-1.85-0.98-2.79
			c-0.31-0.89-0.61-1.79-1-2.69c0.85-0.71,1.66-1.44,2.45-2.21c1.74-1.71,3.35-3.57,4.65-5.66c0.64-1.04,1.2-2.15,1.54-3.34
			c0.06-0.21,0.11-0.43,0.15-0.65c0.68,0.72,1.46,1.33,2.25,1.91c0.44,0.31,0.89,0.62,1.36,0.91c0.46,0.3,0.93,0.57,1.41,0.83
			c0.05,0.03,0.11,0.05,0.16,0.08C46.77,83.56,45.71,84.6,44.6,85.58z M67.13,84.59c-0.35-0.69-0.72-1.36-1.1-2.03l-0.28-0.49
			l-0.14-0.24c-0.02-0.04-0.05-0.09-0.06-0.16c-0.07-0.28-0.05-0.66-0.02-1.01c0.08-0.72,0.24-1.46,0.47-2.17
			c0.12-0.36,0.25-0.71,0.4-1.05c0.15-0.34,0.32-0.68,0.53-0.99l-0.11-0.09c-0.54,0.57-0.91,1.26-1.24,1.97
			c-0.32,0.71-0.59,1.44-0.75,2.23c-0.07,0.4-0.14,0.79-0.07,1.26c0.01,0.12,0.05,0.25,0.11,0.38L65,82.46l0.25,0.52
			c0.33,0.68,0.65,1.37,0.95,2.06c0.02,0.04,0.03,0.07,0.05,0.11c-2.06-0.17-4.06-0.2-6.05-0.46c-2.09-0.24-4.2-0.38-6.25-0.89
			c-2.06-0.48-4.08-1.16-6.01-2.05c-1.87-0.86-3.72-1.86-5.29-3.2c0.16-0.94,0.14-1.91-0.17-2.8l-0.13,0.04
			c0.34,1.15,0.19,2.39-0.18,3.52c-0.37,1.13-0.95,2.19-1.62,3.19c-1.34,1.99-3,3.75-4.75,5.39c-0.88,0.82-1.79,1.6-2.74,2.33
			c-0.47,0.36-0.96,0.73-1.44,1.01c-0.4,0.24-0.59,0.61-0.72,0.92c-0.13,0.33-0.21,0.65-0.26,0.97c-0.2,1.28-0.14,2.52,0,3.76
			c0.07,0.62,0.17,1.23,0.32,1.85c0.07,0.31,0.16,0.62,0.27,0.93c0.06,0.16,0.12,0.31,0.2,0.48c0.09,0.17,0.17,0.34,0.4,0.54
			l0.13,0.11l0.22,0.01c0.93,0.03,1.83,0.25,2.48,0.75c0.32,0.25,0.57,0.57,0.77,0.92c0.06,0.1,0.1,0.21,0.15,0.33
			c-0.24,0-0.49-0.01-0.73-0.01l-1.66,0.01l-3.14,0.07c-0.7-0.41-1.32-1.02-1.85-1.74c-0.55-0.77-1.03-1.63-1.44-2.53
			c-0.4-0.9-0.74-1.85-1.02-2.81c-0.26-0.93-0.47-1.87-0.65-2.82c1.18-1.1,2.25-2.37,2.99-3.85c0.38-0.76,0.72-1.54,0.93-2.36
			c0.23-0.82,0.36-1.66,0.43-2.5c0.13-1.68,0.02-3.37-0.31-5.01c-0.16-0.82-0.38-1.63-0.66-2.41c-0.15-0.39-0.31-0.78-0.5-1.16
			c-0.18-0.38-0.51-0.78-0.97-0.86l0,0c-0.21-0.06-0.42-0.1-0.65-0.08c-0.23,0.02-0.47,0.13-0.64,0.3
			c-0.35,0.34-0.44,0.86-0.45,1.29c-0.04,0.86-0.18,1.72-0.38,2.56c-0.39,1.68-1.01,3.31-1.76,4.86c-1.5,3.09-3.66,5.91-6.49,7.74
			c-0.71,0.45-1.45,0.82-2.23,1.12c-0.78,0.29-1.58,0.48-2.4,0.6c-1.62,0.19-3.36,0.07-4.92-0.37c-1.57-0.44-2.99-1.3-3.95-2.55
			c-0.97-1.25-1.48-2.84-1.57-4.46c-0.05-0.81-0.01-1.63,0.15-2.41c0.15-0.76,0.47-1.53,0.83-2.27c0.37-0.74,0.8-1.45,1.31-2.07
			c0.5-0.62,1.09-1.18,1.72-1.48c0.63-0.31,1.25-0.32,1.83,0.02c0.3,0.17,0.41,0.3,0.48,0.53c0.06,0.23,0.04,0.56-0.06,0.91
			c-0.2,0.71-0.63,1.44-1.09,2.12c-0.23,0.34-0.49,0.68-0.75,1.01l-0.4,0.49c-0.12,0.13-0.34,0.39-0.46,0.6
			c-0.52,0.86-0.82,1.77-0.92,2.76c-0.1,0.98,0.11,2.1,0.79,2.93c0.68,0.83,1.63,1.29,2.53,1.53c0.92,0.25,1.84,0.32,2.74,0.33
			c0.91,0.01,1.85-0.09,2.74-0.35c0.9-0.25,1.75-0.67,2.5-1.21c1.52-1.08,2.62-2.59,3.44-4.17c1.66-3.19,2.35-6.69,3.04-10.12
			c0.35-1.71,0.72-3.41,1.35-5.02c0.61-1.62,1.63-3.03,2.77-4.33c0.29-0.33,0.57-0.65,0.87-0.97c0.29-0.32,0.59-0.6,0.93-0.86
			c0.67-0.51,1.43-0.91,2.23-1.21c1.6-0.59,3.31-0.87,5.02-0.97c1.71-0.1,3.44-0.02,5.14,0.21c0.85,0.12,1.69,0.27,2.52,0.47
			c0.41,0.1,0.82,0.21,1.23,0.34l0.6,0.2c0.21,0.07,0.43,0.15,0.64,0.21c1.72,0.51,3.46,0.85,5.22,1.07
			c1.76,0.22,3.52,0.34,5.3,0.32c1.77-0.02,3.55-0.15,5.32-0.49c0.88-0.17,1.76-0.41,2.61-0.74c0.43-0.16,0.85-0.36,1.26-0.58
			c0.21-0.11,0.41-0.25,0.61-0.37l0.54-0.36c2.87-1.92,5.92-3.61,9.01-5.21c1.55-0.79,3.1-1.58,4.67-2.34
			c0.78-0.38,1.57-0.75,2.37-1.11c0.79-0.35,1.59-0.73,2.41-0.98l-0.01-0.03l0,0c0.42-0.76,0.95-1.47,1.55-2.07
			c0.45-0.45,0.97-0.83,1.52-1.05c-0.02,0.17-0.03,0.34-0.04,0.51c-0.02,0.36-0.01,0.71,0.02,1.07c0.06,0.71,0.15,1.43,0.38,2.14
			l0.09,0c0.04-0.12,0.08-0.24,0.11-0.37c0.38,0.31,0.74,0.63,1.08,0.96c0.38,0.36,0.74,0.74,1.09,1.12
			c0.34,0.39,0.67,0.78,0.98,1.18c0.31,0.4,0.6,0.83,0.72,1.32l0.01,0.05l0.01,0.02c0.43,0.57,0.81,1.15,1.16,1.77
			c0.32,0.56,0.62,1.13,0.96,1.67c-0.18,0.19-0.04,0.71-0.62,0.71c-0.55,0-0.02,0.48,0.45,0.69c-0.38,0.41-0.73,0.83-1.08,1.27
			c-0.65-0.31-1.32-0.6-2.02-0.83l-0.05,0.08c0.53,0.51,1.09,0.96,1.67,1.39c-0.31,0.54-0.73,1.09-1.26,1.26
			c-0.13,0.04-0.27,0.06-0.39,0.04c-0.09-0.02-0.21-0.08-0.33-0.17c-0.24-0.17-0.48-0.4-0.73-0.63c-0.25-0.23-0.51-0.47-0.82-0.69
			c-0.16-0.11-0.33-0.2-0.53-0.27c-0.1-0.04-0.2-0.06-0.31-0.08l-0.16-0.02l-0.11-0.01c-0.41-0.03-0.83-0.12-1.27-0.26
			c-0.44-0.43-0.88-0.86-1.33-1.28c0.01-0.24,0.03-0.49,0.06-0.73c0.03-0.27,0.12-0.53,0.18-0.79c0.06-0.25,0.07-0.51,0.09-0.77
			l0.07-0.85l-0.07-0.06c-0.32,0.12-0.56,0.37-0.74,0.65c-0.18,0.28-0.28,0.58-0.31,0.89c-0.03,0.31,0.02,0.62,0.04,0.92
			c0.02,0.3,0.05,0.59,0.12,0.89l0.03,0.13l0.07,0.05c0.39,0.28,1.45,1.23,1.62,1.4c-0.29,0.06-0.57,0.19-0.82,0.34
			c-0.39,0.23-0.75,0.5-1.09,0.78c-0.69,0.57-1.32,1.19-1.93,1.83c-0.15,0.16-0.3,0.31-0.46,0.51c-0.15,0.19-0.28,0.39-0.41,0.59
			c-0.24,0.4-0.44,0.82-0.62,1.23c-0.35,0.84-0.63,1.7-0.85,2.57c-0.22,0.87-0.4,1.75-0.52,2.65c-0.06,0.45-0.1,0.9-0.13,1.36
			c-0.01,0.23-0.02,0.46-0.02,0.69c0,0.11,0,0.25,0,0.33c0,0.08,0,0.17-0.02,0.26c-0.09,0.7-0.44,1.43-0.87,2.12
			c-0.44,0.69-0.97,1.35-1.54,1.99c-0.51,0.59-1.06,1.17-1.61,1.75c0-0.08,0.01-0.16,0.01-0.24c0.04-0.63,0-1.25-0.06-1.86
			c-0.07-0.6-0.14-1.19-0.17-1.78l-0.14-0.02c-0.2,0.58-0.29,1.2-0.4,1.78c-0.1,0.59-0.21,1.16-0.35,1.71
			c-0.15,0.55-0.46,1.02-0.56,1.55c-0.06,0.26-0.11,0.54-0.16,0.83c0,0.01,0,0.02,0,0.02c-0.04,0.05-0.09,0.11-0.14,0.18
			c-0.62,0.86-0.9,1.75-1.17,2.63c-0.25,0.89-0.43,1.78-0.55,2.67c-0.27,1.79-0.32,3.58-0.24,5.37c0.03,0.61,0.09,1.22,0.17,1.83
			c-0.59-0.15-1.18-0.31-1.77-0.47c-0.46-0.13-0.94-0.27-1.42-0.39l0.01-2.58c0.01-1.52-0.02-3.04,0.02-4.55
			c0.01-0.48-0.08-0.9-0.18-1.29c-0.11-0.4-0.24-0.77-0.38-1.14C67.8,85.99,67.48,85.28,67.13,84.59z M39.66,121.34l-0.5-1.77
			l0.6-0.22c0.05,0.06,0.1,0.1,0.15,0.16c0.08,0.08,0.15,0.14,0.23,0.21c0.15,0.13,0.31,0.25,0.48,0.37
			c0.13,0.09,0.26,0.16,0.39,0.24L39.66,121.34z M47.28,122.82l0.17-1.18l0.81-0.05c0.29,0.19,0.58,0.38,0.87,0.57L47.28,122.82z
			 M72.18,114.25c-0.51-0.29-1.11-0.5-1.64-0.68c-1.09-0.38-2.19-0.75-3.34-1.03c-0.58-0.13-1.17-0.24-1.77-0.31
			c-0.61-0.07-1.23-0.07-1.83-0.03c-0.61,0.03-1.21,0.12-1.79,0.25c-0.59,0.13-1.16,0.26-1.74,0.47c-1.16,0.4-2.23,0.99-3.21,1.67
			c-0.99,0.67-1.89,1.45-2.7,2.3c-0.82,0.84-1.57,1.74-2.3,2.64c-0.65,0.8-1.27,1.61-1.89,2.44c-0.11,0.16-0.29,0.01-0.29,0.01
			c-0.3-0.23-0.61-0.45-0.91-0.68c0-0.02,0-0.03,0.01-0.05c0.12-0.18,0.25-0.36,0.38-0.53l0.07-0.09c0,0,0.11-0.11,0.13-0.24
			c0.02-0.28-0.11-0.37-0.17-0.46c-0.05-0.05-0.1-0.09-0.14-0.12c0.74-0.7,1.5-1.38,2.24-2.07c0.82-0.77,1.6-1.59,2.36-2.42
			c0.77-0.83,1.51-1.68,2.23-2.56c0.53-0.65,1.04-1.33,1.53-2.01c1.19-0.33,2.4-0.58,3.63-0.73l-0.04,0
			c0.38-0.02,0.71-0.09,1.05-0.22c0.33-0.13,0.65-0.33,0.91-0.6c0.25-0.28,0.41-0.63,0.48-0.99c0.03-0.18,0.04-0.35,0.04-0.53
			l-0.02-0.49c0-0.04-0.01-0.09-0.01-0.13c0.94,0.23,1.82,0.45,2.72,0.69c0.93,0.25,1.89,0.41,2.83,0.66
			c0.94,0.25,1.88,0.55,2.8,0.87c0.88,0.29,1.74,0.61,2.61,0.95c-0.07,0.51-0.09,1-0.15,1.46c-0.06,0.58-0.21,1.11-0.34,1.62
			c-0.13,0.54-0.33,1.08-0.55,1.64C72.97,114.7,72.58,114.47,72.18,114.25z M59.5,120.42C59.5,120.43,59.5,120.42,59.5,120.42
			L59.5,120.42L59.5,120.42z M126.42,115.17c-0.13,0.07-0.3,0.1-0.49,0.09c-0.19-0.02-0.4-0.06-0.62-0.1
			c-0.19-0.04-0.39-0.06-0.6-0.06c-0.09-0.03-0.18-0.07-0.27-0.11c-0.38-0.15-0.74-0.31-1.1-0.48c-0.36-0.17-0.69-0.42-1.09-0.52
			c-0.4-0.1-0.82-0.17-1.28-0.08c-0.03,0.01-0.05,0.03-0.04,0.06c0,0.01,0.01,0.02,0.01,0.02c0.29,0.37,0.62,0.62,0.98,0.83
			c0.35,0.22,0.78,0.26,1.19,0.37c0.23,0.06,0.46,0.09,0.68,0.13c-0.21,0.27-0.63,0.39-1.03,0.42c-0.42,0.03-0.86-0.03-1.28-0.14
			c-0.84-0.23-1.67-0.63-2.58-0.9c-0.23-0.07-0.46-0.13-0.7-0.19c-0.24-0.05-0.46-0.09-0.7-0.13c-0.46-0.08-0.93-0.13-1.41-0.17
			c-0.4-0.03-0.81-0.04-1.22-0.02c-0.6-0.25-1.18-0.53-1.73-0.86c-0.28-0.17-0.56-0.35-0.81-0.54c-0.13-0.1-0.25-0.2-0.36-0.3
			c-0.02-0.02-0.04-0.04-0.06-0.06c0.05-0.26,0.08-0.6,0.1-0.92c0.01-0.34,0.02-0.68-0.05-1.05c-0.01-0.03-0.03-0.05-0.06-0.04
			c-0.01,0-0.02,0.01-0.03,0.01c-0.26,0.28-0.44,0.58-0.59,0.9c-0.14,0.32-0.27,0.64-0.28,1.05l0,0.08
			c0.01,0.03-0.01,0.02,0.02,0.19c0.07,0.2,0.12,0.22,0.17,0.28c0.09,0.09,0.17,0.15,0.25,0.21c0.16,0.11,0.31,0.2,0.47,0.29
			c0.31,0.17,0.62,0.33,0.94,0.47c0.32,0.14,0.65,0.28,0.99,0.39c-0.21,0.04-0.42,0.08-0.63,0.13c-0.24,0.07-0.48,0.15-0.71,0.24
			c-0.12,0.05-0.23,0.1-0.34,0.16l-0.3,0.13c-0.39,0.18-0.82,0.3-1.24,0.4c-0.86,0.2-1.75,0.25-2.65,0.22
			c-1.79-0.08-3.59-0.53-5.17-1.43c-0.03-0.02-0.07-0.01-0.09,0.02c-0.02,0.03-0.01,0.07,0.02,0.09c0.07,0.05,0.15,0.1,0.23,0.15
			c-0.64-0.23-1.32-0.35-1.99-0.45c-0.93-0.12-1.87-0.17-2.81-0.15c-0.94,0.03-1.88,0.11-2.82,0.29c-0.47,0.1-0.94,0.22-1.41,0.4
			c-0.23,0.1-0.47,0.21-0.7,0.37l-0.58,0.37c-0.77,0.5-1.55,0.97-2.34,1.42c-0.79,0.45-1.61,0.88-2.39,1.24
			c-0.4,0.17-0.8,0.32-1.2,0.41c-0.2,0.05-0.39,0.08-0.58,0.1c-0.2,0.02-0.34,0.01-0.62,0.02c-1,0.01-2.01,0.17-2.95,0.53
			c-0.94,0.36-1.81,0.89-2.56,1.53c-0.75,0.64-1.41,1.36-1.99,2.12c-0.29,0.38-0.56,0.77-0.82,1.17c-0.26,0.39-0.49,0.85-0.7,1.09
			c-0.1,0.11-0.21,0.19-0.38,0.26c-0.17,0.07-0.38,0.12-0.6,0.16l-1.36,0.25c-3.45,0.63-6.96,0.95-10.47,0.97
			c0.04-0.17,0.06-0.35,0.08-0.52c0.01-0.15,0.01-0.29,0.01-0.44l0.62-0.01l0.36-0.01l0.12-0.37l0.08-0.25
			c0.17,0.05,0.33,0.11,0.5,0.16c0.35,0.1,0.67,0.2,1.08,0.27c0.72,0.11,1.45,0.16,2.19,0.12c1.46-0.08,2.95-0.47,4.21-1.27
			c0.63-0.38,1.21-0.85,1.71-1.38c0.51-0.52,0.96-1.1,1.34-1.7c0.76-1.19,1.3-2.49,1.68-3.82c0.88-0.24,1.78-0.37,2.67-0.51
			c1.12-0.13,2.24-0.31,3.38-0.35c0.28-0.02,0.57-0.01,0.85,0c0.28,0,0.6,0,0.9-0.02c0.6-0.04,1.2-0.16,1.77-0.35
			c1.13-0.39,2.16-1.09,2.88-2.02c0.01-0.02,0.01-0.05-0.01-0.06c-0.02-0.01-0.04-0.01-0.06,0l0,0c-0.81,0.81-1.85,1.37-2.94,1.63
			c-0.54,0.13-1.1,0.2-1.66,0.19c-0.28-0.01-0.55-0.03-0.84-0.05c-0.29-0.02-0.59-0.06-0.89-0.07c-0.59-0.03-1.19-0.04-1.78-0.01
			c-0.59,0.04-1.18,0.12-1.76,0.26c-0.58,0.14-1.15,0.32-1.7,0.55c-0.18,0.08-0.36,0.17-0.54,0.26c-0.67,0.19-1.32,0.48-1.95,0.78
			c-0.74,0.37-1.44,0.79-2.13,1.23c-0.69,0.43-1.37,0.89-2.04,1.32c-0.67,0.44-1.35,0.86-2.02,1.18l-0.33,0.37
			c-0.01,0.01-0.01,0.01-0.01,0.01c-0.01,0-0.03,0.02-0.1,0.03c-0.12,0.03-0.32,0.04-0.53,0.02c-0.21-0.02-0.47-0.05-0.74-0.08
			c-0.26-0.03-0.52-0.05-0.78-0.06c-1.04-0.06-2.07-0.04-3.09,0.01l-3.04,0.17c-0.81,0.05-2.55,0.08-2.63,0.08l0.04-0.34l0.06-0.63
			c0.03-0.03,0.03,0.01,0.09,0.02c0.22,0.01,0.43,0.02,0.64,0.04l0.03,0l0.01,0c-0.02,0,0.12,0.01,0.13-0.01
			c0.12-0.05,0.12-0.08,0.14-0.1c0.04-0.05,0.07-0.08,0.09-0.12c0.05-0.08,0.09-0.15,0.13-0.22c0.05-0.1,0.1-0.19,0.15-0.29
			c0.58,0.07,1.15,0.16,1.72,0.26c0.63,0.12,1.25,0.26,1.9,0.37c0.16,0.03,0.33,0.05,0.5,0.07l0.27,0.02l0.24,0
			c0.32-0.01,0.65-0.01,0.97-0.04c0.65-0.05,1.3-0.14,1.94-0.3c0.64-0.18,1.28-0.37,1.88-0.67c0.6-0.31,1.19-0.64,1.69-1.09
			c0.78-0.65,1.41-1.44,1.89-2.3c0.46-0.29,0.87-0.64,1.22-1.06c0.41-0.5,0.75-1.08,0.94-1.73c0.2-0.65,0.17-1.33,0.15-1.95
			c-0.03-0.62-0.07-1.21-0.04-1.76c0.02-0.3,0.04-0.51,0.15-0.71c0.11-0.2,0.27-0.38,0.48-0.54c0.43-0.31,0.98-0.51,1.54-0.66
			c1.13-0.31,2.34-0.42,3.52-0.69c0.04-0.01,0.06-0.04,0.05-0.08c-0.01-0.03-0.04-0.05-0.07-0.05c-1.19,0.11-2.39,0.09-3.61,0.29
			c-0.61,0.1-1.23,0.24-1.82,0.59c-0.29,0.18-0.57,0.42-0.78,0.73c-0.22,0.31-0.3,0.71-0.36,1.01c-0.02,0.09-0.03,0.18-0.04,0.27
			c-0.8-0.45-1.63-0.85-2.46-1.25c-0.9-0.41-1.82-0.79-2.75-1.14c-0.94-0.33-1.87-0.73-2.87-0.86c-0.96-0.13-1.95-0.18-2.91,0.05
			c-0.05-0.56-0.12-1.11-0.23-1.65c-0.12-0.63-0.3-1.25-0.47-1.86l0,0c-0.01-0.04-0.05-0.06-0.08-0.05
			c-0.03,0.01-0.05,0.04-0.05,0.08c0.11,0.63,0.22,1.26,0.29,1.88c0.07,0.63,0.11,1.26,0.1,1.89c-0.01,0.32,0,0.62-0.08,0.89
			c-0.07,0.27-0.2,0.5-0.4,0.68c-0.37,0.37-0.98,0.53-1.51,0.53h-0.01l-0.02,0c-1.89,0.12-3.76,0.46-5.58,0.98
			c-1.82,0.53-3.58,1.23-5.28,2.09c-1.69,0.86-3.32,1.86-4.81,3.07c-1.32,1.07-2.55,2.28-3.57,3.67c-0.1-0.06-0.21-0.11-0.31-0.18
			c-0.06-0.04-0.12-0.09-0.18-0.14l0.62-0.67l0.43-0.47l-0.38-0.44l2.92-3.04l1.69-1.75l0.42-0.44c0.08-0.08,0.13-0.13,0.22-0.24
			c0.09-0.1,0.17-0.21,0.23-0.31c0.13-0.2,0.23-0.38,0.33-0.53c0.09-0.15,0.19-0.26,0.24-0.3c-0.04,0.01,0.25-0.11,0.43-0.19
			c0.2-0.08,0.39-0.19,0.59-0.29c0.38-0.21,0.75-0.46,1.1-0.73c0.68-0.56,1.26-1.27,1.65-2.06c0.4-0.79,0.65-1.63,0.76-2.47
			c0.03-0.21,0.06-0.42,0.08-0.63c0.03-0.19,0.04-0.47,0.01-0.7c-0.06-0.47-0.18-0.87-0.35-1.3L52,101.71l-0.42,0.38l-1.49,1.33
			c0-0.07,0-0.14,0.01-0.21c0.02-0.3,0.09-0.59,0.19-0.88c0.21-0.57,0.57-1.1,1-1.55c0.89-0.92,2.04-1.55,3.25-2.1
			c2.4-1.13,4.92-2.05,7.54-2.37c1.31-0.16,2.64-0.16,3.93,0.03c0.65,0.09,1.29,0.23,1.92,0.41c0.63,0.19,1.24,0.4,1.88,0.63
			c2.53,0.9,5.14,1.64,7.8,2.09c2.66,0.45,5.32,0.69,7.96,1l0.98,0.11c0.3,0.04,0.6,0.11,0.9,0.19c0.59,0.17,1.17,0.43,1.72,0.75
			c1.11,0.63,2.14,1.45,3.16,2.3c0.51,0.43,1.02,0.87,1.6,1.27c0.28,0.2,0.63,0.39,0.95,0.52c0.33,0.14,0.66,0.24,0.98,0.34
			c1.32,0.38,2.64,0.6,3.96,0.8l3.96,0.57c0.95,0.15,1.9,0.3,2.84,0.51c0.64,0.19,1.29,0.36,1.96,0.44
			c0.56,0.07,1.14,0.08,1.72-0.03c0.57-0.11,1.14-0.37,1.6-0.76l0.4-0.34l-0.53-0.1c-1.08-0.2-2.15-0.61-3.09-1.15
			c-1.63-0.95-0.92-1.53-0.56-1.46c0.27,0.05,0.55,0.06,0.84,0.08c0.28,0.02,0.56,0.05,0.83,0.09c0.55,0.08,1.1,0.19,1.64,0.32
			c0.53,0.13,1.06,0.3,1.55,0.56c0.02,0.04,0.04,0.08,0.07,0.11c0.25,0.26,0.63,0.26,0.93,0.22c0.17-0.02,0.33-0.09,0.46-0.21
			c0.13-0.12,0.22-0.27,0.28-0.42c0.04-0.1,0.05-0.2,0.08-0.31c0.38,0.15,0.7,0.4,1.04,0.65c0.35,0.26,0.73,0.5,1.14,0.7
			c0.2,0.1,0.42,0.19,0.62,0.27c0.18,0.07,0.36,0.15,0.54,0.24c0.36,0.18,0.69,0.39,1.03,0.62c0.34,0.23,0.67,0.48,1.01,0.74
			c0.16,0.13,0.37,0.26,0.5,0.37c0.15,0.11,0.28,0.24,0.42,0.37c0.27,0.27,0.51,0.58,0.79,0.9c0.27,0.32,0.55,0.69,0.89,1.02
			c0.34,0.33,0.73,0.65,1.16,0.88c0.42,0.24,0.94,0.4,1.25,0.53c0.58,0.24,1.14,0.59,1.51,1.01c-0.38-0.01-0.12,0.82-0.76,0.77
			c-0.65-0.05,0.26,0.84,0.66,0.87c0.05,0,0.1-0.02,0.16-0.02C126.67,114.97,126.55,115.1,126.42,115.17z M111.89,112.37
			c0,0-0.01-0.01-0.01-0.02C111.87,112.35,111.86,112.32,111.89,112.37z"/>
		<path class="st1" d="M117.86,107.58l-0.44,0.2l-0.19-0.44c-0.1-0.23-0.36-0.33-0.59-0.22c-0.22,0.1-0.32,0.36-0.22,0.59l0.2,0.44
			l-0.44,0.2c-0.22,0.1-0.32,0.36-0.22,0.59c0.07,0.17,0.24,0.26,0.41,0.26c0.06,0,0.12-0.01,0.18-0.04l0.43-0.2l0.19,0.44
			c0.07,0.17,0.24,0.26,0.41,0.26c0.06,0,0.12-0.01,0.18-0.04c0.22-0.1,0.32-0.36,0.22-0.59l-0.2-0.44l0.44-0.2
			c0.22-0.1,0.32-0.36,0.22-0.59C118.35,107.58,118.08,107.48,117.86,107.58z"/>
		<path class="st1" d="M89.99,57.96c0.46,0.22,1.12-0.21,1.12-0.21s-0.09-0.78-0.56-1c-0.46-0.22-1.12,0.21-1.12,0.21
			S89.52,57.74,89.99,57.96z"/>
	</g>
</g>
</svg>
