<?xml version="1.0" encoding="utf-8"?>
<!-- Generator: Adobe Illustrator 23.0.0, SVG Export Plug-In . SVG Version: 6.00 Build 0)  -->
<svg version="1.1" id="Layer_1" xmlns="http://www.w3.org/2000/svg" xmlns:xlink="http://www.w3.org/1999/xlink" x="0px" y="0px"
	 viewBox="0 0 128 128" 
width="128" height="128"
style="enable-background:new 0 0 128 128;" xml:space="preserve">
<style type="text/css">
	.st0{fill:#2D2D2D;}
</style>
<g>
	<path class="st0" d="M96.6,17.5c-0.4-0.7-1.3-1-2.1-0.6s-1,1.3-0.6,2.1c0.4,0.7,1.3,1,2.1,0.6c0.1,0,0.1-0.1,0.2-0.1l2.5,0.5
		l-1.8-1.8C96.8,18,96.7,17.7,96.6,17.5z"/>
	<path class="st0" d="M127.8,52.8c-0.3-3.7-1.7-7.1-3.4-10.2c-1.8-3.1-3.9-5.9-6.2-8.6c-2.3-2.7-4.8-5.2-7.4-7.5
		c-1.3-1.2-2.6-2.3-4-3.5c-0.6-0.6-1.3-1.1-2.1-1.6l-0.3-0.2c-0.6-0.4-1.1-1.1-1.4-1.8c-0.1-0.4-0.3-0.8-0.4-1.1
		c-0.2-0.6-0.4-1.1-0.7-1.7c-0.3-0.5-0.6-1.1-1-1.6c-0.4-0.5-0.8-1-1.5-1.4l0.1,0.1c-1.6-1.2-3.6-1.9-5.7-1.7c-2,0.2-4,1.1-5.4,2.6
		c-0.7,0.8-1.3,1.6-1.6,2.6c-0.3,1-0.4,2-0.3,3c0.2,1.9,0.8,3.7,1.5,5.4c0.1,1.5,0.3,3,0.5,4.6c0.1,0.8,0.2,1.6,0.4,2.3
		c0.1,0.4,0.1,0.8,0.2,1.2l0.1,0.6l0.1,0.5c0.1,0.7,0.1,1.4,0,2.1c0,0.7-0.1,1.4-0.3,2.1c-0.2,0.7-0.4,1.3-0.8,1.7
		c-0.3,0.4-0.9,0.5-1.6,0.4l0,0c-0.7-0.3-1.4-0.4-2.2-0.6c-0.6-0.1-1.3-0.2-1.9-0.2c-1.4-0.3-2.8-0.4-4.2-0.6
		c-1.4-0.1-2.9-0.2-4.3-0.2c-2.9,0-5.8,0.3-8.6,0.9l-2.1,0.6c-0.7,0.2-1.4,0.4-2.1,0.7c-0.7,0.3-1.4,0.6-2,0.9l-1.9,0.9
		c-1.3,0.6-2.6,1.2-3.8,1.9c-1.3,0.7-2.5,1.3-3.8,2c-5,2.8-9.8,5.9-14.3,9.4c-1.2,0.8-2.2,1.8-3.4,2.6l-1.6,1.4L30,61.4l-0.8,0.7
		l-1.6,1.5l-1.5,1.5l-0.7,0.8l-0.7,0.8l-1.4,1.6c-2.3,2-4.4,4.1-6.4,6.2c-2.1,2.2-4.1,4.4-6,6.6c-2,2.2-3.9,4.5-5.7,6.9
		c-0.5,0.6-0.9,1.2-1.3,1.8c-0.4,0.6-0.9,1.2-1.3,1.9c-0.8,1.3-1.6,2.6-2.3,4L0,96.1l0.3,0.4c0.4,0.6,1,1,1.6,1.3
		c0.6,0.3,1.2,0.5,1.8,0.6c1.2,0.2,2.4,0.2,3.6-0.1c0.6-0.1,1.2-0.3,1.7-0.6c0.3-0.1,0.5-0.3,0.8-0.4l0.7-0.4l2.9-1.4l5.9-2.8l5-2.4
		c2.8-0.6,5.5-1.2,8.2-1.6c3.1-0.4,6.2-0.4,9.5-1c0.8-0.2,1.6-0.3,2.3-0.5c0.8-0.1,1.5-0.3,2.3-0.4c1.6-0.3,3.1-0.5,4.7-0.7
		c0.7-0.1,1.5-0.3,2.2-0.4c0,0.1,0,0.1,0.1,0.1c-1,1.4-2,2.8-2.5,3.3c-0.4,0.1-0.9,0.4-1.4,0.9c-1.2,1.1-2.5,3.1-2.5,4.9
		c-1,2-6.3,10.7-7.9,13.1c-1.7-1.2-5-3.4-5-3.5l-0.7-0.5l-2.7,3.3l6.3,4.5l0.4,8.2l4.1,0.8l0.1-3.1c0.9,1.4,2,3.1,3,4.2
		c2.1,2.3,5.7,3.5,5.8,3.6l0.3,0.1l0.3-0.1c2.5-0.9,2.8-1.1,2.9-1.8l0-0.6l-0.6-0.2c-5.6-2.1-9.7-9.3-10.6-11.1
		c3.4-6.4,7.2-13.2,8-14.1c2.3-1.4,3.7-3.4,4-5.8c1.4-2.3,3.5-4.7,3.5-4.8c0.1-0.1,0.1-0.1,0.1-0.2c0.1,0,0.3,0,0.5,0.1
		c0.4,0.1,0.8-0.1,1.1-0.4c0-0.1,0.1-0.1,0.1-0.1c0.2,0.4,0.3,0.7,0.5,0.9l0.3,0.1l0.3,0.2c0,0,0.1,0,0.1,0c0,2.1,0,5.2,0,6.2
		c-0.3,0.4-0.5,1-0.5,1.7c-0.2,1.7,0.2,4,1.4,5.3c0.7,2.3,3,13.1,3.5,16.2c-2.2,0.3-6.3,0.8-6.4,0.8l-0.8,0.1l0.2,4.4l8.2-0.9l6,6.2
		l3.7-2.2l-2.8-3.3l13.4,0.8l0.3-0.5c1.4-2.6,1.4-2.8,1.1-3.3l-0.3-0.4l-0.5,0c-4.7,0.4-14.1-1.1-16.5-1.4c-2.1-7.5-4.1-15.6-4-16.9
		c0.4-1.2,1.3-4.1-0.8-7.1c-0.5-2.4-0.5-5.2-0.5-5.9c0,0,0.1,0,0.1,0l0.4-0.2l0.3-0.2c0.1-0.2,2.2-3.4,3.3-6.3c1.5-0.5,3-1,4.5-1.7
		c1.6-0.8,3.2-1.7,4.7-2.7c1.5-1,2.9-2.2,4.2-3.5c1.3-1.3,2.4-2.8,3.5-4.4l0-0.1c0.1-0.2,0.2-0.4,0.3-0.6c1.5-0.5,3-1.2,4.4-2.1
		c0.8-0.5,1.7-1.1,2.4-1.7c0.8-0.6,1.5-1.3,2.2-2c0.7-0.7,1.3-1.5,1.8-2.4c0.5-0.9,0.9-1.8,1.2-2.8c0.2-0.9,0.5-1.9,0.8-2.8
		c0.3-0.9,0.5-1.9,0.8-2.8c0.3-0.9,0.5-1.9,0.8-2.8c0.3-0.9,0.4-1.9,0.5-2.9c0.3-2,0.3-4,0.2-5.9c-0.2-2-0.7-4-1.5-5.8l-0.7-1.4
		c-0.3-0.4-0.5-0.9-0.8-1.3c-0.5-0.7-1.1-1.4-1.7-2.1c0.2-0.3,0.3-0.7,0.5-1c0.2-0.3,0.3-0.6,0.5-0.9c0.3-0.4,0.3-0.4,0.9-0.8
		c2.8,1.5,5.7,3,8.2,4.9c1.2,1,2.6,1.9,3.7,2.9c1.2,1,2.3,2.1,3.4,3.3c2.1,2.3,4.1,4.9,5.9,7.5c1.8,2.6,3.6,5.3,5.3,8l1.7,2.5
		L127.8,52.8z M31.5,62.4l0.2-1.5c1.4-1.3,2.9-2.6,4.5-3.7c0.2-0.1,0.3-0.2,0.5-0.3c-0.3,0.9-0.2,1.9,0.2,2.8
		c0.5,1.1,1.4,1.9,2.5,2.4c1,0.4,2.1,0.5,3.1,0.2c-0.4,0.4-0.8,0.9-1.2,1.3c-0.6,0.6-1.2,1.2-1.8,1.7c-0.6,0.5-1.2,0.9-1.9,1.2
		c-0.8,0.2-1.6,0.1-2.3,0c-0.4-0.1-0.8-0.1-1.2-0.2c-0.4-0.1-0.8-0.2-1.2-0.3l-0.4-0.1l0,0c-0.1-0.1-0.3-0.2-0.4-0.4
		c-0.3-0.4-0.4-0.8-0.4-1.3C31.4,63.5,31.4,62.9,31.5,62.4z M58.9,54.2c1.2,0.4,2.4,0.6,3.6,0.7c0.6,0,3.2,0.5,3.8,0.4
		c0.3,0,0.6,0,0.9-0.1l0.9-0.2c0.6-0.1,1.2-0.3,1.8-0.4c0.5-0.1,1-0.3,1.4-0.5c1.3,0.5,2.6,0.8,3.9,1c1.4,0.2,2.9,0.1,4.3-0.1
		c1.4-0.3,2.8-0.7,4.1-1.2c1.1-0.5,2.1-1,3-1.8c0,0.2,0,0.3,0,0.5c0,0.7-0.1,1.4-0.2,2.1c-0.2,1.4-0.5,2.8-0.8,4.2
		c-0.4,1.9-1,3.8-1.8,5.6c-0.4,0.3-0.8,0.5-1.1,0.6c-0.4,0.2-0.8,0.3-1.2,0.3c-0.4,0.1-0.8,0-1-0.1l-0.2-0.1l-0.2,0.2
		c-0.5,0.3-1.2,0.6-1.9,0.8c-0.7,0.2-1.4,0.3-2.1,0.4c-0.7,0.1-1.4,0.1-2.1,0.1c-0.3,0-0.7,0-1-0.1c-0.3-0.1-0.6-0.2-0.7-0.3
		l-0.4-0.3l-0.4,0.2c-0.6,0.3-1.3,0.5-2.1,0.6c-0.7,0.1-1.5,0.1-2.3,0.1c-0.8,0-1.5-0.1-2.3-0.3l-0.5-0.2c-0.2-0.1-0.3-0.1-0.5-0.2
		c-0.3-0.1-0.6-0.3-0.7-0.4L63,65.2l-0.5,0.2c-0.6,0.3-1.4,0.4-2.1,0.4c-0.7,0.1-1.5,0-2.3-0.1c-0.8-0.1-1.5-0.3-2.2-0.5
		c-0.4-0.1-0.7-0.2-1-0.4c-0.2-0.1-0.3-0.2-0.4-0.3c-0.1-0.1-0.1-0.2-0.1,0l-0.7-0.6c-0.7,0.1-1.4,0.3-2.1,0.2
		c-0.7-0.1-1.4-0.3-2-0.7c-0.6-0.4-1.1-1-1.5-1.6c-0.2-0.3-0.4-0.7-0.5-1c-0.1-0.3-0.3-0.7-0.3-1.1c0.7-0.7,1.5-1.5,2.3-2.2
		c1.2-1.1,2.5-2.1,3.9-3c0.9-0.6,1.9-1.2,2.9-1.7C57.1,53.5,58,53.9,58.9,54.2z M56.5,52.8c1.9-0.9,3.9-1.7,5.9-2.3
		c1.6-0.5,3.2-1,4.9-1.3c0.8-0.2,1.7-0.3,2.5-0.4c0.8-0.1,1.7-0.2,2.5-0.1l0,0c0,0,0.1,0,0.1-0.1c0,0,0,0,0,0
		c1.2,0.3,2.5,0.6,3.7,0.9c1.2,0.3,2.5,0.5,3.7,0.7c1.2,0.2,2.5,0.4,3.7,0.6l3.2,0.4c0,0.1,0,0.2,0,0.4c0,0,0,0.1,0,0.1
		c-1.1,0.4-2.3,0.7-3.4,1c-1.3,0.3-2.6,0.5-3.9,0.6c-1.3,0.1-2.6,0.2-3.9,0.2c-1.3,0-2.6-0.2-3.8-0.7l-0.3-0.1l-0.3,0.1
		c-0.5,0.2-1,0.5-1.6,0.7c-0.5,0.2-1.1,0.4-1.6,0.5c-1.1,0.3-4.2,0-5.4,0.1c-1.2,0-2.3-0.1-3.5-0.3C58.2,53.5,57.3,53.2,56.5,52.8z
		 M47.5,62.1c0.3,0.7,1,1.3,1.6,1.9c0.6,0.6,1.4,0.9,2.3,1.1c0.7,0.1,1.3,0.1,2,0c0.1,0.1,0.2,0.2,0.3,0.3c0.2,0.2,0.4,0.3,0.6,0.4
		c0.4,0.2,0.8,0.4,1.2,0.6c0.8,0.3,1.6,0.5,2.5,0.7c1.5,0.3,3.1,0.3,4.7-0.1c0.3,0.2,0.6,0.4,0.9,0.5c0.2,0.1,0.4,0.2,0.6,0.3
		l0.6,0.2c0.9,0.2,1.7,0.3,2.6,0.4c0.9,0,1.7,0,2.6-0.1c0.7-0.1,1.5-0.3,2.2-0.7c0.3,0.1,0.6,0.2,0.9,0.3c0.4,0.1,0.8,0.1,1.2,0.1
		c0.8,0,1.5-0.1,2.3-0.3c0.7-0.1,1.5-0.4,2.2-0.6c0.6-0.3,1.3-0.5,1.9-1c0.4,0.1,0.9,0.1,1.2,0c0.4-0.1,0.9-0.3,1.2-0.6
		c0.3-0.2,0.5-0.4,0.8-0.6c-0.3,0.7-0.6,1.3-0.9,1.9c-1,2.1-2.4,4-4,5.7c-0.3,0.1-0.6,0.2-0.9,0.2c-0.7,0.1-1.4,0.2-2,0.2
		c-0.7,0-2.7,0.1-3.4,0c-0.3-0.1-0.6-0.1-0.9-0.2c-0.3-0.1-0.6-0.2-0.7-0.4l-0.3-0.3l-0.5,0.3c-0.6,0.4-1.4,0.6-2.2,0.7
		c-0.8,0.1-1.7,0.2-2.6,0.2c-0.9,0-1.7,0-2.6-0.1c-0.4-0.1-0.8-0.1-1.2-0.2c-0.2-0.1-0.4-0.1-0.5-0.2l-0.2-0.1c0,0,0,0-0.1-0.1
		l-0.8-0.2l-0.1,0.1c-1.1,0.6-2.4,0.9-3.7,0.8c-0.6,0-1.3-0.1-1.9-0.3c-0.3-0.1-0.6-0.2-0.9-0.3c-0.2-0.1-0.5-0.3-0.6-0.4l-0.3-0.5
		l-0.6,0.2c-0.6,0.2-1.1,0.3-1.7,0.3c-0.6,0-1.1-0.1-1.7-0.3c-1.1-0.4-2-1.3-2.6-2.3l-0.2-0.3l-0.3,0.1c-0.5,0.1-1.1,0.2-1.6,0.1
		c-0.5-0.1-1-0.4-1.4-0.8c-0.4-0.4-0.7-1.4-0.9-2c-0.1-0.3-0.2-1.1-0.3-1.4c0-0.1,0-0.2,0-0.3c0.3-0.2,0.5-0.3,0.8-0.5
		c1.4-1,2.7-2.2,3.9-3.4c0.4-0.4,0.7-0.7,1.1-1.1C46.9,60.8,47.2,61.4,47.5,62.1z M24.1,69.1L24.1,69.1L24.1,69.1
		c2-2.7,4.2-5.2,6.6-7.5c-0.1,0.1-0.1,0.3-0.2,0.4c-0.3,0.6-0.4,1.3-0.4,2c0,0.7,0.4,1.5,1,1.9c0.2,0.2,0.4,0.3,0.7,0.3
		c-0.3,0.5-0.7,1.1-1.1,1.6c-0.4,0.6-0.9,1.2-1.4,1.7c-1,1.1-2.1,2.1-3.3,3c-0.6,0.4-1.2,0.9-1.9,1.3c-0.6,0.4-1.3,0.7-2,1
		c-0.7,0.3-1.4,0.5-2.1,0.4c-0.5-0.1-0.9-0.3-1.2-0.7C20.7,72.7,22.4,70.9,24.1,69.1z M12.3,82.3c1.9-2.3,3.9-4.5,5.8-6.7
		c0.2-0.3,0.5-0.6,0.7-0.8c0.3,0.4,0.7,0.8,1.3,0.9c0.8,0.2,1.6,0,2.4-0.2c0.8-0.2,1.5-0.5,2.1-0.9c0.7-0.4,1.4-0.7,2-1.2
		c1.3-0.8,2.5-1.8,3.6-2.9c0,0,0.1-0.1,0.1-0.1c-0.3,1.1-0.8,3.3-0.9,3.6c-1.7,1.1-3.4,2.2-5,3.4c-1.7,1.2-3.3,2.7-5,3.9
		c-0.8,0.6-1.7,1.3-2.5,1.9c-0.9,0.6-1.7,1.2-2.6,1.7c-0.9,0.5-1.9,0.9-2.9,1.1c-0.5,0.1-1,0.1-1.5,0.1c-0.2,0-0.4-0.1-0.6-0.2
		C10.3,84.7,11.2,83.5,12.3,82.3z M51.3,84.9c-1.6,0.1-3.2,0.2-4.8,0.4c-0.8,0.1-1.6,0.2-2.4,0.3c-0.8,0.1-1.6,0.3-2.4,0.4
		c-1.5,0.3-3.1,0.4-4.7,0.6c-1.6,0.2-3.2,0.4-4.8,0.8c-2.7,0.6-5.6,1.1-8.1,2.3c-1.9,0.6-3.4,1.7-5.2,2.4l-6.1,2.4
		c-1,0.4-2,0.8-3.1,1.3l-0.8,0.3c-0.3,0.1-0.5,0.2-0.7,0.3c-0.5,0.2-0.9,0.3-1.4,0.4c-1,0.2-2,0.2-2.9,0c-0.7-0.2-1.4-0.5-1.8-0.9
		c1.2-2.3,2.9-4.5,4.5-6.7c0.8-1,1.6-2.1,2.4-3.1c0.2,0.1,0.5,0.2,0.7,0.3c0.5,0.1,1.1,0.1,1.6,0.1c1.1-0.1,2.1-0.5,3.1-1
		c1-0.5,1.9-1,2.8-1.6c0.9-0.6,1.8-1.1,2.7-1.7c1.8-1.2,3.6-2.4,5.2-3.8c1.4-1.2,2.8-2.5,4.1-3.9c0,0.1,0,0.2,0,0.3
		c-0.1,0.7,0.2,1.5,0.6,2.2c0.4,0.6,1,1.2,1.6,1.6c0,0,0,0,0,0c-2,1.1-3.9,2.4-5.8,3.6c-2.3,1.5-4.4,3.2-6.6,4.9l-3.3,2.5
		c-1.1,0.8-2.2,1.6-3.4,2.2c-1.2,0.6-2.5,1.1-3.8,1.2c-1.3,0.1-2.7-0.2-3.7-1.2l0,0c0,0-0.1,0-0.1,0c0,0,0,0.1,0,0.1
		c1,1.1,2.4,1.5,3.8,1.5c1.4,0,2.8-0.4,4-1c1.3-0.6,2.5-1.3,3.6-2.1l3.4-2.3c2.2-1.5,4.6-3,6.7-4.7c1.8-1.4,3.7-2.9,5.4-4.4
		c0.3,0.2,0.6,0.3,0.9,0.4c-0.1,0.3-0.2,0.7-0.1,1.1c0.1,0.7,0.5,1.2,0.9,1.6c0.8,0.8,1.7,1.3,2.5,1.7l0.1,0l0.1,0
		c0.8,0.2,1.5,0.3,2.3,0.4c0.7,0.1,1.5,0.1,2.2,0.2c1.5,0.1,2.9,0.1,4.4,0c0.7,0,1.5,0,2.2-0.1c0.7-0.1,1.5-0.1,2.2-0.2l2.2-0.2
		c0.7-0.1,1.4-0.2,2.2-0.3c1.9-0.3,3.8-0.7,5.7-1.1c0.1,0.4,0.1,0.9,0.2,1.4c-1.6,0.5-3.3,0.8-5,1c-0.3,0-0.3,0-0.6,0.1
		C53.3,84.8,52.3,84.8,51.3,84.9z M53.7,91.5l-0.1,0.2l0,0.2c-0.3,2.5-1.9,3.9-3.2,4.7l-0.1,0.1c-1.4,1.2-7.5,12.7-8.7,15l-0.2,0.4
		l0.2,0.4c0.2,0.4,4,8.1,9.9,11.5c-0.1,0-0.1,0-0.2,0.1c-0.8-0.3-3.3-1.4-4.8-3c-1.9-2.1-4.4-6.4-4.4-6.5l-1.6-2.8l-0.1,7.3
		l-0.7-0.1l-0.3-7.7l-5.5-3.9l0.4-0.5c1.3,0.9,4,2.8,5,3.5l0.6,0.4l0.5-0.5c0.8-0.9,8-12.6,8.8-14.4l0.1-0.2l0-0.2
		c-0.1-1.7,1.9-4,2.5-4.2l0.3,0l0.3-0.3c0.5-0.5,2.5-3.2,3.1-4.2c0.4,0.1,0.9,0.2,1.4,0.3C56.1,88,54.7,89.8,53.7,91.5z M60,84.7
		c-0.3,0.3-0.5,0.6-0.7,0.7c-0.6-0.1-1.5-0.2-2.4-0.4c1-0.3,2-0.7,2.9-1.2C59.9,84.1,59.9,84.4,60,84.7C60,84.7,60,84.7,60,84.7z
		 M65.9,100.4l0,0.1c-0.3,1.8,3.2,14.4,4.2,18.2l0.2,0.5l0.6,0.1c0.4,0.1,10.1,1.7,16,1.6c-0.1,0.2-0.2,0.3-0.3,0.5l-16.4-1l4.2,4.9
		l-0.7,0.4l-5.7-5.8l-7.1,0.7l0-0.8c1.6-0.2,5.2-0.6,6.5-0.8l0.7-0.1l0-0.7c0.1-1.4-3.2-16-3.7-17.7l-0.1-0.2l-0.1-0.1
		c-1.3-1.3-1.2-4.4-0.9-4.9l0.3-0.2l0-0.4c0.1-0.7,0-5,0-6.6c0.3,0,0.6,0,0.9-0.1c0,1,0.1,3.8,0.6,6.2l0,0.2l0.1,0.2
		C67,97.1,66.2,99.4,65.9,100.4z M65.7,86c-0.9,0.1-2.3,0.2-3.3,0.2c-0.3-0.7-0.7-2.5-1-4.4c0.4-0.1,0.7-0.2,1.1-0.3
		c2.2-0.6,4.3-1.3,6.4-2.1C68.3,81.4,66.6,84.5,65.7,86z M70.1,77.7c-0.2,0-0.4,0.1-0.6,0.2l-1.2,0.4c-0.7,0.2-1.4,0.4-2.1,0.6
		c-1.4,0.4-2.8,0.7-4.2,1.1c-2.8,0.6-5.6,1.1-8.4,1.5c-2.8,0.4-5.7,0.6-8.5,0.8c-1.4,0.1-2.9,0.1-4.3,0.1c-1.4,0-2.8-0.1-4.1-0.3
		c-0.8-0.4-1.6-0.8-2.1-1.3c-0.3-0.3-0.5-0.5-0.6-0.8c-0.1-0.3,0-0.6,0.2-0.9l0.6-1l-1.1,0c-0.3,0-0.6-0.1-0.9-0.2
		c-0.1,0-0.1,0-0.2-0.1c-0.2-0.1-0.4-0.2-0.6-0.3c-0.6-0.3-1.1-0.7-1.5-1.2c-0.4-0.5-0.7-1.1-0.7-1.7c0-0.4,0.3-2.3,0.6-3.6
		c0.1-0.7,0.5-1.3,0.9-1.8c0.6-0.7,1.1-1.5,1.5-2.3c0.3,0,0.6,0.1,0.9,0.1c0.4,0,0.9,0.1,1.3,0c0.8,0,1.6,0,2.3-0.3
		c0,0,1.7-0.5,2.5-0.9c0.5-0.2,1.1-0.6,1.1-0.6c0,0.3,0,0.6,0,0.9c0.1,0.6,0.7,2.2,1.1,2.8c0.4,0.5,0.9,1,1.6,1.2
		c0.5,0.2,1.1,0.2,1.6,0.2c0.6,1.2,1.6,2.2,2.8,2.8c0.7,0.3,1.4,0.5,2.2,0.5c0.6,0,1.2-0.1,1.7-0.2c0.3,0.2,0.5,0.3,0.7,0.5
		c0.4,0.2,0.7,0.3,1.1,0.4c0.7,0.2,1.5,0.3,2.3,0.4c0.8,0,1.5,0,2.3-0.2c0.6-0.1,1.2-0.3,1.8-0.6c0.1,0.1,0.2,0.1,0.3,0.1
		c0.3,0.1,0.5,0.2,0.8,0.2c0.5,0.1,1,0.2,1.4,0.2c0.9,0.1,1.9,0.1,2.8,0c0.9-0.1,1.8-0.2,2.8-0.4c0.8-0.2,1.6-0.4,2.4-0.9
		c0.3,0.1,0.5,0.2,0.8,0.3c0.4,0.1,0.7,0.1,1.1,0.2c0.7,0.1,2.8-0.2,3.5-0.2c0.8-0.1,1.7-0.3,2.5-0.6c-0.2,0.2-0.5,0.4-0.7,0.7
		c-2.1,1.9-4.7,3.3-7.4,4.1L70.1,77.7z M98.4,32.1c0.2,0.4,0.4,0.8,0.6,1.3l0.5,1.3c0.5,1.8,0.9,3.6,1.1,5.4l0.1,1.4l0.1,0.7l0,0.7
		l0,1.4c0,0.5,0,0.9,0,1.4c0,0.5,0,0.9,0,1.4c0,0.5-0.1,0.9-0.1,1.4c-0.1,0.9-0.1,1.9-0.3,2.8c-0.1,0.5-0.2,0.9-0.3,1.4
		c-0.1,0.5-0.2,0.9-0.3,1.4c-0.3,0.9-0.6,1.8-0.9,2.7c-0.3,0.9-0.8,1.6-1.5,2.3c-0.6,0.7-1.3,1.3-2,2c-2.2,2.2-4.8,4.1-7.4,6
		c0.3-0.6,0.6-1.2,0.8-1.8c0.5-1.1,1-2.3,1.4-3.5c0.4-1.2,0.8-2.4,1.1-3.6c0.1-0.6,0.3-1.2,0.3-1.9c0.1-0.6,0.1-1.3,0-1.9
		c0,0,0-0.1-0.1-0.1c-0.1,0-0.1,0-0.1,0.1l0,0c-0.1,0.6-0.3,1.2-0.5,1.8c-0.2,0.6-0.5,1.1-0.7,1.7c-0.5,1.1-1,2.2-1.5,3.4
		c-0.5,1.1-1.1,2.2-1.6,3.4c-0.5,1.1-1,2.3-1.5,3.4L85,69l-0.3,0.6l-0.4,0.5l-0.8,1.1l-0.8,1c-1.1,1.3-2.4,2.6-3.8,3.6
		c-1.4,1.1-2.9,2.1-4.4,3c-1.3,0.7-2.7,1.4-4,2c0.3-0.7,0.5-1.4,0.6-2c0-0.1,0-0.2,0-0.3c2.6-1.1,5.1-2.7,7.2-4.6
		c2.2-2,4-4.3,5.6-6.8c1.5-2.5,2.8-5.2,3.6-8c0.4-1.4,0.7-2.9,0.9-4.4c0.1-0.7,0.1-1.5,0.2-2.2c0-0.4,0-0.8,0-1.2
		c0-0.2,0-0.4-0.1-0.6c-0.1-0.2-0.1-0.4-0.3-0.8l-0.2-0.3l-0.4,0c-2.5-0.2-5-0.3-7.5-0.5l-3.8-0.3l-3.8-0.3c0,0-0.1,0-0.1,0.1
		c0,0,0,0,0,0c-1.7-0.2-3.4,0-5.1,0.2c-1.7,0.2-3.4,0.6-5,1c-1.6,0.4-3.3,0.9-4.9,1.5c-1.6,0.6-3.2,1.4-4.7,2.2
		c-1.5,0.9-3,1.8-4.3,2.9c-0.7,0.5-1.3,1.1-2,1.7c-0.6,0.6-1.2,1.3-1.8,1.9c-0.2,0.3-0.5,0.5-0.7,0.8c-0.4,0.3-0.9,0.4-1.4,0.5
		c-0.9,0.2-1.8,0-2.7-0.3c-0.8-0.4-1.6-0.9-2.1-1.7c-0.5-0.7-0.7-1.5-0.8-2.5c2.1-1.5,4.2-2.9,6.4-4.1c2.5-1.4,5-2.7,7.5-3.9
		l7.7-3.7l1.9-0.9c0.6-0.3,1.3-0.6,1.9-0.9c0.6-0.3,1.3-0.5,1.9-0.7l2-0.6c2.7-0.7,5.5-1.1,8.3-1.4c2.7-0.2,5.4-0.3,8.2-0.1
		c1.4,0.4,2.7,0.9,3.9,1.6l0,0c0.4,0.2,0.9,0.3,1.4,0.3c0.5,0,1-0.2,1.4-0.5c0.8-0.6,1.1-1.5,1.4-2.3c0.5-1.6,0.6-3.3,0.2-4.9
		c0-0.2-0.1-0.4-0.2-0.7l-0.2-0.5l-0.4-1.1c-0.3-0.7-0.5-1.4-0.7-2.2c-0.2-0.7-0.4-1.5-0.5-2.2c-0.1-0.5-0.1-0.5-0.1-1
		c0.4,0.5,2.5,1.9,3.3,2.2c0.8,0.4,1.6,0.6,2.4,0.8c0.8,0.2,1.7,0.2,2.6,0.2c0,0,0.1,0,0.1,0c0,0,0,0,0,0
		C97.7,30.6,98.1,31.3,98.4,32.1z M97.9,27.9c-0.2,0.2-0.3,0.4-0.4,0.6c-0.1,0.2-0.4,0.3-0.6,0.4c-0.9,0.1-1.5,0.1-2.2,0.1
		c-0.8-0.1-1.6-0.1-2.3-0.4c-2.4-1-3.6-3-3.6-3l0-0.1c-0.6-1.6-0.9-3.5-0.7-5.2c0.1-0.8,0.2-1.7,0.5-2.4c0.2-0.6,0.4-0.8,0.8-1.3
		c-0.1,1.3,0.1,2.4,0.3,3.7c0.3,1.4,0.8,2.8,1.8,3.9c0.9,1.1,2.2,2,3.6,2.5c1.1,0.4,2.2,0.5,3.4,0.6C98.3,27.4,98.1,27.7,97.9,27.9z
		 M99.3,26.1L99.3,26.1c-1.3,0.1-2.7,0-4-0.3c-1.3-0.4-2.5-1-3.4-2c-0.9-1-1.6-2.2-1.9-3.6c-0.3-1.3-0.4-2.6-0.4-3.9
		c0.1-0.1,0.2-0.2,0.3-0.3c0.6-0.5,1.2-1,2-1.3c0.7-0.3,1.5-0.5,2.3-0.6c1.6-0.2,3.2,0.2,4.6,1l0.1,0.1l0,0c0.4,0.1,0.8,0.5,1.2,0.8
		c0.4,0.4,0.7,0.8,1.1,1.2c0.3,0.4,0.7,0.9,0.9,1.4c0.3,0.5,0.5,0.9,0.7,1.4l-0.1-0.1l-1.1-0.7l0.1,1.2c0,0.1-0.1,0.4-0.1,0.7
		c-0.1,0.3-0.2,0.5-0.4,0.7c-0.3,0.5-0.7,0.9-1.2,0.9l-0.5,0l0.2,0.4c0.1,0.2,0.2,0.5,0.2,0.7c0,0.3,0.1,0.6,0.1,0.9
		C100,25.2,99.6,26.1,99.3,26.1z M122.3,44.3c-1.8-2.7-3.8-5.3-6-7.7c-1.1-1.2-2.3-2.3-3.5-3.4c-1.2-1.1-2.5-2.1-4-2.9
		c-2.8-1.6-8.5-5.1-8.4-5.6c0.1-0.3,0.1-0.6,0.1-0.9c0-0.2,0-0.4-0.1-0.6c0.2,0,0.5-0.1,0.7-0.3c0.3-0.2,0.6-0.4,0.8-0.7
		c0.2-0.3,0.4-0.5,0.6-0.8c0,0,0-0.1,0.1-0.1c2.4,2.2,4.9,4.2,7.2,6.4c2.6,2.3,5,4.8,7.3,7.4c2.3,2.6,4.4,5.4,6,8.3
		c1,1.8,1.9,3.7,2.5,5.7C124.5,47.5,123.4,45.9,122.3,44.3z"/>
</g>
</svg>
