<?xml version="1.0" encoding="utf-8"?>
<!-- Generator: Adobe Illustrator 24.1.2, SVG Export Plug-In . SVG Version: 6.00 Build 0)  -->
<svg version="1.1" id="Layer_1" xmlns="http://www.w3.org/2000/svg" xmlns:xlink="http://www.w3.org/1999/xlink" x="0px" y="0px"
	 viewBox="0 0 128 128" style="enable-background:new 0 0 128 128;" xml:space="preserve">
<style type="text/css">
	.st0{fill:#2D2D2D;}
</style>
<g>
	<path class="st0" d="M126.9,0c-7.2,0-14.4,0-21.5,0.2L83.8,0.7c-7.2,0.1-14.4,0.2-21.5,0.2c-7.2,0-14.4-0.1-21.6-0.2l-0.6,0l0,0.7
		l-0.2,12.2l-0.1,12.2l-0.1,24.5l0,1.2l1.2,0c3.6,0,7.3,0,10.9,0c3.6,0,7.3,0,10.9-0.1l10.9-0.1l10.8-0.2l10.8-0.2l10.7-0.3
		l21.2-0.6l0.3-12l0.3-12.2c0.2-8.2,0.2-16.5,0.2-24.8l0-1L126.9,0z M105.2,49.5l-10.8-0.2l-10.7-0.1L72.9,49L62.2,49
		c-3.6,0-7.1,0-10.7,0c-3.1,0-6.3,0-9.4,0.1l-0.3-23.2l-0.2-12.2L41.4,2c7-0.1,13.9-0.3,20.9-0.3c7.2-0.1,14.4,0,21.6,0.1l21.6,0.4
		c6.8,0.1,13.7,0.1,20.5,0c0.1,7.7,0.2,15.3,0.4,23.1l0.3,12.2l0.4,12.4L105.2,49.5z"/>
	<path class="st0" d="M113.2,14.8c-1.4-1.4-2.2-3.3-2.2-5.3l0-1.1l-1.1,0c-4.3,0-8.7,0.2-13,0.3c-4.3,0.1-8.7,0.3-13,0.4
		c-4.3,0.1-8.7,0.1-13,0.1c-4.3,0-8.7-0.1-13-0.2l-0.6,0l0,0.7c0,2.1-1,4.1-2.4,5.5c-1.5,1.4-3.5,2.2-5.5,2.1l-1,0l0,1l-0.1,7.5
		l-0.1,7.5l0,1.2l1.2,0c1.9,0,3.8,0.8,5.2,2.2c1.3,1.4,2.1,3.2,2.1,5.2l0,1.3l1.3,0c4.4,0,8.8-0.1,13.3-0.1
		c4.4-0.1,8.8-0.2,13.2-0.3l13-0.4l6.4-0.2l6.3-0.3c0-0.3,0.1-0.6,0.1-0.9l0.2-0.8c0.1-0.3,0.2-0.5,0.2-0.8c0.1-0.3,0.2-0.5,0.3-0.8
		c0.5-1,1.1-1.9,1.9-2.6c1.6-1.4,3.7-2.2,5.7-2.1l0.7,0l0-0.7c0.1-5,0.2-9.9,0.3-14.9l0-1l-1,0C116.6,17.1,114.6,16.3,113.2,14.8z
		 M115.1,33.1c-1.1,0.5-2.1,1.2-2.9,2.1c-0.8,0.9-1.4,1.9-1.8,3c-0.1,0.3-0.2,0.6-0.3,0.8c-0.1,0.3-0.1,0.6-0.2,0.8l-0.1,0.9l0,0.8
		l-13.3-0.4l-13.1-0.3c-4.3-0.1-8.6-0.2-12.9-0.2c-3.9,0-7.8-0.1-11.6,0c-0.1-0.9-0.3-1.7-0.7-2.5c-0.5-1.2-1.2-2.3-2.2-3.2
		c-1.6-1.5-3.6-2.5-5.8-2.7l-0.1-6.3l-0.1-6.6c2.1-0.3,4.2-1.3,5.7-2.8c1.6-1.6,2.5-3.8,2.5-6c4.1-0.1,8.3-0.2,12.4-0.3
		c4.3-0.1,8.7-0.1,13,0c4.3,0,8.7,0.2,13,0.3c4,0.1,8,0.2,12,0.2c0.1,0.9,0.3,1.8,0.7,2.6c0.5,1.2,1.2,2.2,2.1,3.1
		c1.6,1.5,3.7,2.5,5.8,2.7c0.1,4.4,0.2,8.9,0.3,13.3C116.9,32.5,116,32.7,115.1,33.1z"/>
	<path class="st0" d="M87.7,16.2c-1.1-0.7-2.4-1.1-3.8-1.1c-1.3,0-2.7,0.4-3.8,1c-1.1,0.7-2.1,1.6-2.8,2.6c-0.7,1-1.3,2.2-1.6,3.4
		c-0.3,1.2-0.3,2.4-0.2,3.6c0.3,2.4,1.1,4.6,2.4,6.5c0.7,1,1.5,1.8,2.5,2.5c1,0.7,2.2,1.2,3.5,1.2c1.3,0.1,2.6-0.3,3.7-0.9
		c1.1-0.6,2-1.6,2.6-2.7c1.2-2.1,1.5-4.5,1.6-6.7c0-2.2-0.3-4.6-1.6-6.7C89.7,17.8,88.8,16.9,87.7,16.2z M89.1,31.5
		c-1.5,1.4-3.2,2.3-5.1,2.5c-1,0.1-2,0-2.9-0.4c-1-0.4-1.8-1-2.5-1.8c-1.4-1.7-2-3.9-1.7-6c0.2-2.1,1-4.1,2.3-5.6
		c1.3-1.5,3-2.4,4.8-2.4c0.9,0,1.8,0.2,2.7,0.6c0.9,0.4,1.7,0.9,2.5,1.6c1.5,1.4,2.6,3.5,2.6,5.8C91.7,27.9,90.6,30,89.1,31.5z"/>
	<path class="st0" d="M125.5,112.9c-0.9-1.2-1.8-2.4-2.8-3.5c-1.9-2.3-4.3-4.2-6.5-6.2c-2.2-2-4.4-4.1-6.6-6.1c-2-1.8-4-3.6-6.1-5.4
		c8.1-0.2,16.2-0.4,24.3-0.8c-10.6-0.5-21.3-0.8-31.9-0.9c-5.3-0.1-10.6-0.1-16-0.2l-16-0.1l-16,0.1c-5.3,0.1-10.6,0.1-16,0.2
		c-10.6,0.2-21.3,0.5-31.9,0.9c8.4,0.4,16.7,0.6,25.1,0.8c-2.1,1.8-4.2,3.6-6.3,5.4c-2.3,2-4.5,4-6.8,6.1c-2.2,2-4.7,3.9-6.7,6.2
		c-1,1.1-2,2.3-2.9,3.5c-0.9,1.2-1.8,2.5-2.5,3.9c0,0,0,0.1,0,0.2c0,0.1,0.1,0.1,0.2,0.1c1.4-0.7,2.7-1.6,3.9-2.5
		c1.2-0.9,2.4-1.9,3.6-2.9c2.3-2,4.2-4.4,6.2-6.7c2.1-2.2,4.1-4.5,6.1-6.8c1.9-2.2,3.8-4.3,5.7-6.5c2.1,0,4.2,0.1,6.3,0.1
		c2.9,0.1,5.8,0.1,8.7,0.1c-2.2,2.6-4.3,5.3-6.5,8c-2.4,2.9-4.7,5.9-7,8.9c-2.3,3-4.9,5.8-6.9,9c-1,1.6-2,3.2-2.9,4.9
		c-0.9,1.7-1.8,3.3-2.5,5.1c0,0.1,0,0.1,0,0.2c0.1,0.1,0.2,0.1,0.2,0c1.5-1.3,2.8-2.6,4.1-4c1.3-1.4,2.5-2.8,3.7-4.3
		c2.4-2.9,4.3-6.2,6.4-9.3c2.1-3.1,4.2-6.3,6.2-9.4c1.9-3,3.8-5.9,5.7-8.9c2.3,0,4.5,0,6.8,0.1l8.1,0c-1,2.7-1.9,5.4-2.9,8.1
		c-1,3-2,6-3,9c-1,3-2.2,6-2.9,9.1c-0.3,1.6-0.6,3.1-0.8,4.7c-0.2,1.6-0.4,3.2-0.3,4.8c0,0.1,0,0.1,0.1,0.1c0.1,0,0.2,0,0.2-0.1
		c0.9-1.4,1.6-2.9,2.2-4.3c0.6-1.5,1.2-3,1.7-4.5c1.1-3,1.5-6.2,2.2-9.2c0.7-3.1,1.4-6.2,2.1-9.3c0.6-2.9,1.2-5.7,1.8-8.6l7.4,0
		l7.3,0c0.7,2.9,1.4,5.8,2.1,8.6c0.8,3.1,1.5,6.1,2.4,9.2c0.8,3.1,1.3,6.2,2.5,9.2c0.6,1.5,1.2,2.9,1.9,4.4c0.7,1.4,1.4,2.9,2.3,4.2
		c0,0,0.1,0.1,0.1,0.1c0.1,0,0.2-0.1,0.2-0.2c0-1.6-0.2-3.2-0.5-4.8c-0.3-1.6-0.6-3.1-1-4.7c-0.7-3.1-2-6-3.1-9
		c-1.1-3-2.2-6-3.3-8.9c-1.1-2.7-2.1-5.5-3.1-8.2l8.2,0c3,0,6-0.1,9.1-0.1c1.7,3,3.5,5.9,5.2,8.9c1.9,3.2,3.7,6.3,5.7,9.4
		c1.9,3.1,3.6,6.4,5.8,9.3c1.1,1.5,2.2,2.9,3.4,4.3c1.2,1.4,2.4,2.8,3.8,4.1c0,0,0.1,0.1,0.2,0c0.1,0,0.1-0.1,0.1-0.2
		c-0.6-1.8-1.4-3.5-2.2-5.1c-0.8-1.7-1.7-3.3-2.6-4.8c-1.8-3.2-4.2-6-6.3-9c-2.1-3-4.3-5.9-6.5-8.9c-2-2.7-4-5.4-6-8
		c2.1,0,4.3,0,6.4-0.1c2.3,0,4.7-0.1,7-0.1c1.8,2.2,3.7,4.4,5.5,6.5c2,2.3,3.9,4.5,5.9,6.8c2,2.2,3.8,4.7,6,6.7c1.1,1,2.3,2,3.5,2.9
		c1.2,0.9,2.5,1.8,3.8,2.5c0,0,0.1,0,0.2,0c0.1,0,0.1-0.1,0.1-0.2C127.3,115.4,126.4,114.2,125.5,112.9z"/>
</g>
</svg>
