<?xml version="1.0" encoding="utf-8"?>
<!-- Generator: Adobe Illustrator 24.1.2, SVG Export Plug-In . SVG Version: 6.00 Build 0)  -->
<svg version="1.1" id="Layer_1" xmlns="http://www.w3.org/2000/svg" xmlns:xlink="http://www.w3.org/1999/xlink" x="0px" y="0px"
	 viewBox="0 0 128 128" style="enable-background:new 0 0 128 128;" xml:space="preserve">
<style type="text/css">
	.st0{fill:#8DD687;}
	.st1{fill:#2D2D2D;}
</style>
<g>
	<path class="st0" d="M109.3,43.3C109.3,43.3,109.3,43.3,109.3,43.3C109.3,43.4,109.3,43.4,109.3,43.3
		C109.3,43.4,109.3,43.4,109.3,43.3z"/>
	<path class="st0" d="M112.5,43C112.5,43,112.5,43,112.5,43C112.5,43,112.5,43,112.5,43C112.5,43,112.5,43,112.5,43
		C112.5,43,112.5,43,112.5,43z"/>
	<path class="st1" d="M109.1,45.5c0,0-0.1-0.1-0.1,0c-0.4,0.3-0.6,0.6-0.9,0.9c-0.2,0.3-0.4,0.7-0.4,1c0,0.4,0.1,0.8,0.1,1.2
		c0,0.4-0.2,0.7-0.3,1.1c-0.2,0.4-0.3,0.8-0.2,1.3c0.1,0.4,0.1,0.7,0.2,1c0.2,0.7,0.5,1.3,1,2l0,0c0,0,0,0,0,0c0,0,0.1,0,0.1,0
		c0.5-0.8,0.6-1.5,0.5-2.3c0-0.4-0.2-0.8-0.4-1.1c-0.1-0.2-0.2-0.5-0.4-0.9c-0.1-0.3-0.1-0.7,0-1.1c0.1-0.3,0.5-0.6,0.7-0.9
		c0.2-0.3,0.3-0.7,0.3-1C109.3,46.4,109.3,46,109.1,45.5C109.1,45.5,109.1,45.5,109.1,45.5z"/>
	<path class="st1" d="M116.6,61.7c-0.6,0-1.9,1-1.9,1s1.3,1,1.9,1c0.6,0,1.1-0.4,1.1-1S117.2,61.7,116.6,61.7z"/>
	<path class="st1" d="M127.8,68.8c-0.1-0.1-0.2-0.2-0.2-0.2l-1.2-0.9l-2.4-1.9l-1.2-0.9c-0.2-0.2-0.4-0.3-0.7-0.5
		c-0.2-0.1-0.3-0.2-0.4-0.3c-0.2-0.3-0.5-0.8-0.7-1.2l-0.6-1.3c-0.2-1-0.5-2.1-1-3.1c-0.4-1-1-2-1.6-2.8c-0.6-0.9-1.3-1.7-2.1-2.5
		c-0.5-0.5-1-0.9-1.5-1.3c0.4-1,0.5-2.1,0.5-3.1c0-1-0.1-2.1-0.4-3.1c-0.2-1-0.5-2-1-3c-0.1-0.1-0.1-0.3-0.3-0.4
		c0,0-0.1-0.1-0.2-0.2c0,0-0.1,0-0.1-0.1c-0.1,0-0.1,0-0.2-0.1c-0.1,0-0.1,0-0.1,0c-0.1,0-0.2,0-0.3,0.1c-0.4,0.2-0.5,0.4-0.7,0.6
		c-0.1,0.2-0.3,0.4-0.4,0.6c-0.1-0.2-0.2-0.4-0.4-0.6c-0.2-0.2-0.4-0.5-0.8-0.7c-0.1-0.1-0.2-0.1-0.4-0.1c-0.1,0-0.3,0-0.4,0
		c-0.2,0.1-0.4,0.1-0.6,0.2c-0.3,0.2-0.5,0.4-0.7,0.6c-0.8,0.8-1.3,1.7-1.8,2.7c-0.5,0.9-0.9,1.9-1.2,2.9c-0.1,0.2-0.1,0.4-0.2,0.5
		c-2.4,0.6-4.7,1.5-7,2.6c-2.4,1.2-4.6,2.6-6.7,4.1c-1.1,0.8-2.1,1.6-3.1,2.4c-0.5,0.4-1,0.8-1.4,1.1c-0.5,0.3-0.6,0.4-1.3,0.3
		c-1.3-0.1-2.6-0.2-4,0c-1.3,0.1-2.6,0.4-3.9,0.8c-2.1,0.2-4.2,0.3-6.3,0.3c-2.1,0-4.2-0.2-6.2-0.5c-4.1-0.8-8.4-1.4-12.7-1.7
		c-2.2-0.1-4.3-0.2-6.5,0.1c-1.1,0.1-2.2,0.3-3.3,0.5c-0.5,0.1-1.1,0.3-1.6,0.5c-0.5,0.2-1,0.4-1.5,0.7c-2,1-3.8,2.2-5.5,3.6
		c-1.7,1.4-7,6.3-8,7.3c-1,1-2,2-2.9,3.1c-1.8,2.1-3.5,4.4-5,6.7c-1.6,2.3-3,4.7-4.4,7.2c-0.7,1.2-1.3,2.5-1.9,3.8l-1.7,3.8L6.2,103
		l-3.5,7.6c-0.6,1.3-1.1,2.5-1.6,3.9c-0.4,1.4-0.6,2.8-0.8,4.2C0,121.5,0,124.3,0,127.1l0,0.9l1-0.1c2.3-0.1,4.6-0.7,6.7-1.5
		c2.1-0.8,4.1-1.9,6-3.1c1.9-1.2,3.7-2.7,5.2-4.4c0.8-0.9,1.5-1.8,2.1-2.8c0.3-0.5,0.5-1,0.8-1.5l0.7-1.5c1.9-3.9,3.7-7.9,5.7-11.7
		c0.5-1,1-1.9,1.6-2.8c0.3-0.4,0.6-0.9,0.9-1.2c0.1-0.1,0.2-0.2,0.2-0.2l0,0l0.1-0.1l0.2-0.1c0.2-0.1,0.3-0.2,0.4-0.3
		c0.1-0.1,0.2-0.2,0.3-0.3c0.7-0.9,1.1-2,1.5-3c0,0,0,0.1,0,0.1c-0.1,0.4-0.2,1.1-0.3,1.6c-0.3,2.2-0.7,4.4-1.2,6.4
		c-0.3,1-0.6,2-1.1,2.9c-0.1,0.2-0.2,0.4-0.4,0.7c-0.1,0.2-0.3,0.4-0.4,0.6c-0.1,0.2-0.3,0.4-0.5,0.6l-0.2,0.3
		c-0.1,0.1-0.2,0.3-0.3,0.4c-0.8,1.3-0.7,2.6-0.7,3.8c0.1,1.2,0.4,2.3,0.6,3.4c0.6,2.2,1.4,4.3,2.2,6.4c0.8,2.1,1.7,4.1,2.6,6.2
		l0.1,0.2l0.2,0c1.6,0.1,3.3,0.1,4.9,0.2c1.6,0.1,3.3,0.1,4.9,0.2c0.2,0,0.4,0,0.7,0c0.2,0,0.4-0.1,0.6-0.3c0.1-0.1,0.2-0.3,0.2-0.4
		l0-0.1c0-0.2,0-0.3,0-0.4c0-0.5-0.1-1-0.2-1.5c0-0.1-0.1-0.2-0.1-0.2c1,0.1,2,0.1,3,0.2c0.6,0,1.3,0.1,1.9,0.1c0.2,0,0.3,0,0.5,0
		c0.1,0,0.3-0.1,0.3-0.2c0.1-0.1,0.1-0.2,0.1-0.2c0-0.1,0-0.2,0-0.3c0-0.4,0-0.7-0.1-1.1c-0.3-1.4-1.5-2.5-2.8-3
		c-1.1-0.5-2.3-0.6-3.5-0.7c-0.4-1.3-0.8-2.5-1.2-3.8c-0.4-1.4-0.6-2.8-0.7-4.2c0-0.3,0-0.7,0-1c0.1-0.3,0.1-0.6,0.2-0.9
		c0.1-0.3,0.2-0.6,0.3-0.8c0.2-0.3,0.3-0.6,0.5-0.9c0.7-1.1,1.7-2.2,2.7-3.2c1-1,2.1-1.9,3.1-2.9l0.8-0.7c0.3-0.3,0.6-0.6,0.9-0.9
		c0.5-0.6,1-1.2,1.4-1.8c1.6-2.3,2.8-4.8,3.5-7.5c0.7,0.2,1.5,0.4,2.2,0.6c2,0.5,16.1,1.5,17.9,0.9c0,0.8,0,1.7,0.1,2.5
		c0.1,3.4,0,7,0.1,10.5c0,1.8,0.1,3.5,0.3,5.3c0,0.5,0.1,0.9,0.2,1.4c0.1,0.6,0.2,0.8,0.3,1.3c0.2,0.8,0.3,1.7,0.4,2.5
		c0.5,3.4,1,6.9,1.4,10.4l0,0.4l0.4,0l2.8-0.1l2.8,0c0.9,0,1.8,0,2.8,0s1.8,0,2.8,0l0.5,0l-0.1-0.5c-0.1-0.5-0.2-0.9-0.4-1.3
		l0.3,0.1l0.9,0.1c0.6,0.1,1.2,0.2,1.9,0.2c1.2,0.1,2.5,0.2,3.7,0.3l0.9,0.1l0-1c0-0.5,0-1-0.2-1.4c-0.2-0.5-0.5-0.9-0.8-1.2
		c-0.7-0.7-1.4-1.1-2.2-1.4c-0.8-0.3-1.5-0.5-2.3-0.6c-0.5-0.1-1-0.1-1.6-0.2c-0.1-0.3-0.2-0.5-0.3-0.8c0-0.1-0.1-0.2-0.1-0.3
		c0-0.1,0-0.2,0-0.4l0-0.9l-0.1-3.8c0-2.5,0-5,0-7.5c0-1.2,0-2.5,0.1-3.7c0.1-1.2,0.4-2.4,0.7-3.6c0.3-1.1,0.6-2.2,1-3.4
		c1.8-1.5,3.6-3,5.4-4.6l0.7-0.7l0.7-0.7c0.4-0.4,0.8-0.9,1.3-1.3c0.9-0.9,1.7-1.8,2.6-2.7c1.7-1.9,3.2-3.9,4.5-6
		c0.7-1.1,1.2-2.2,1.7-3.4c0.5-1.1,0.8-2.4,0.9-3.6c0.2,0,0.5,0.1,0.7,0.1c0.3,0.1,0.6,0.2,0.9,0.3c0.2,0,0.3,0.1,0.5,0.1l0.5,0.1
		l0.9,0.2c0.6,0.2,1.3,0.3,1.9,0.5c1.3,0.3,2.6,0.5,3.9,0.7c0.3,0,0.7,0.1,1,0.1c0.3,0,0.6,0.1,1.1,0.1c0.2,0,0.5-0.1,0.7-0.3
		c0.2-0.2,0.3-0.3,0.3-0.5c0-0.1,0.1-0.2,0.1-0.4c0.4,0,0.8,0,1.2-0.1c1.2-0.4,2.1-1.1,2.8-1.9c0.2-0.2,0.4-0.4,0.5-0.6l0.3-0.3
		c0.2-0.2,0.2-0.5,0.2-0.8C128,69.1,127.9,68.9,127.8,68.8z M112,43.3c0.1-0.1,0.2-0.1,0.3-0.2c0,0,0,0.1,0,0.1l0.5,2.9
		c0.2,1,0.4,2,0.7,2.9c0.2,1,0.5,1.9,0.8,2.9c-0.3-0.2-0.5-0.4-0.8-0.6c-0.2-1.7-0.5-3.3-1-4.9c-0.3-0.9-0.6-1.8-1.1-2.7
		C111.5,43.6,111.7,43.4,112,43.3z M109.3,43.3C109.3,43.4,109.3,43.4,109.3,43.3C109.3,43.4,109.3,43.4,109.3,43.3
		C109.3,43.3,109.3,43.3,109.3,43.3z M51.1,96.7c-0.5,0.5-0.9,1.1-1.4,1.5c-0.2,0.2-0.5,0.4-0.7,0.6c-0.3,0.2-0.6,0.4-0.9,0.7
		c-1.2,0.9-2.3,1.9-3.4,3.1c-1,1.1-2,2.4-2.8,3.8c-0.2,0.3-0.4,0.7-0.5,1.1c-0.2,0.4-0.3,0.9-0.4,1.3c-0.2,0.8-0.1,1.7-0.1,2.5
		c0.3,3.1,1.5,5.9,2.5,8.7l0.2,0.5l0.5,0c1.2,0,2.5,0.1,3.6,0.4c1.1,0.3,2.1,1.1,2.4,2.2c0.1,0.3,0.1,0.5,0.1,0.8c0,0,0,0.1,0,0.1
		c-0.1,0-0.2,0-0.3,0c-0.6,0-1.3,0.1-1.9,0.1l-3.1,0.1c-0.4-0.7-0.9-1.3-1.6-1.7c-1.4-0.9-2.9-1.2-4.4-1.3c-0.6-1.9-1.2-3.6-1.6-5.4
		c-0.2-1-0.3-2-0.3-2.9c0-0.5,0.1-0.9,0.2-1.3c0-0.2,0.1-0.4,0.2-0.6c0.1-0.2,0.2-0.4,0.3-0.7c1-1.7,2.2-3.4,3.6-4.9
		c0.7-0.8,1.4-1.5,2.2-2.2l0.6-0.5c0.2-0.2,0.5-0.4,0.7-0.6c0.4-0.4,0.8-0.8,1.1-1.3c1.4-1.7,2.6-3.5,3.8-5.3
		c1.2-1.8,2.3-3.7,3.2-5.8c0.9,0.3,1.8,0.6,2.8,0.9C54.4,92.6,52.8,94.8,51.1,96.7z M90.8,98c-0.4,1.2-0.8,2.4-1,3.7
		c-0.2,1.3-0.3,2.5-0.4,3.8c-0.2,2.5-0.3,5-0.4,7.6l-0.2,3.8l0,1c0,0.1,0,0.4,0,0.6c0,0.2,0,0.4,0.1,0.6c0.1,0.4,0.2,0.8,0.3,1.1
		c0.1,0.4,0.3,0.7,0.5,1.1l0.3,0.5l0.7,0c0.6,0,1.3,0.1,1.9,0.2c0.6,0.1,1.3,0.2,1.8,0.4c0.6,0.2,1.1,0.4,1.4,0.7
		c0.1,0.1,0.2,0.2,0.2,0.3c-0.8,0.1-1.6,0.1-2.4,0.2c-0.6,0.1-1.2,0.1-1.9,0.2l-0.9,0.1l-0.5,0.1l0,0c0-0.1-0.1-0.2-0.1-0.3
		c-0.4-0.6-0.8-1.2-1.4-1.6c-0.6-0.4-1.3-0.8-2-0.9c-0.3-0.1-0.7-0.1-1.1-0.2c-0.1,0-0.2,0-0.4,0c0-4.7,0.4-9.4,0.8-14.1
		c0.1-1.2,0.3-2.4,0.4-3.6c0.1-0.6,0.2-1.2,0.3-1.8c0.1-0.6,0.3-1.1,0.5-1.4c0.5-0.8,1.4-1.7,2.2-2.5c0.6-0.6,1.3-1.2,2-1.8
		C91.3,96.5,91.1,97.3,90.8,98z M106.8,78.2c-1.5,2-3.1,3.7-4.9,5.4c-0.9,0.9-1.8,1.7-2.7,2.5c-0.5,0.4-0.9,0.8-1.4,1.3L97.2,88
		l-0.7,0.6c-1.9,1.5-3.8,3.1-5.8,4.7c-1,0.8-1.9,1.7-2.8,2.5c-0.5,0.4-0.9,0.9-1.4,1.4c-0.2,0.2-0.4,0.4-0.5,0.6
		c0.1-0.6,0.2-1.2,0.3-1.8c0.2-0.7,0.4-1.4,0.6-2.1c0.4-1.4,1-2.8,1.6-4.1c0.6-1.3,1.3-2.6,2.1-3.8c0.4-0.6,0.9-1.2,1.4-1.6l1.7-1.5
		c2.2-2,4.4-4,6.5-6.1c1-1.1,2-2.2,2.9-3.4c0.7-1,1.4-2,1.9-3.2l0.2,0.1l2.2,0.7c0.7,0.2,1.5,0.4,2.2,0.6c0.2,0,0.4,0.1,0.6,0.1
		C109.4,74.1,108.2,76.2,106.8,78.2z M125.1,70.6c-0.4,0.4-0.9,0.7-1.3,0.8c-0.3,0.1-0.8,0.1-1.2,0.1c-0.5,0-0.9-0.1-1.4-0.2
		c-0.9-0.2-1.8-0.5-2.8-0.9c-1-0.4-1.9-0.7-2.9-0.9c0,0-0.1,0-0.1,0c0,0,0,0.1,0,0.1c0.9,0.5,1.8,1,2.6,1.5c0.8,0.6,1.8,1.1,2.8,1.4
		c0.5,0.2,1,0.3,1.6,0.3c0.1,0,0.1,0,0.2,0c-0.3,0.3-0.5,0.6-0.7,0.4c-0.2-0.1-0.6-0.2-0.9-0.3c-0.3-0.1-0.6-0.2-0.9-0.3
		c-1.3-0.4-2.6-0.8-3.9-1.1c-0.7-0.1-1.3-0.3-2-0.4l-1-0.1c-0.2,0-0.4,0-0.5-0.1c-0.1,0-0.3,0-0.5,0c0,0,0,0,0,0
		c-0.8-0.3-1.5-0.6-2.3-0.9c-0.7-0.2-1.5-0.4-2.2-0.6l-1.9-0.4l-0.5-2.1c-0.2-0.8-0.5-1.7-0.7-2.5c0,0,0-0.1-0.1-0.1
		c0,0-0.1,0-0.1,0.1c0,0.9,0.1,1.7,0.1,2.6l0.2,2.6l0,0.4l0.2,0.1c-0.5,1.1-1.2,2.1-2,3.1c-0.9,1.1-1.9,2.2-3,3.3
		c-2.1,2.1-4.3,4-6.6,5.9l-1.7,1.4C91,84.4,90.5,85,90,85.6c-0.9,1.2-1.6,2.6-2.2,3.9c-0.6,1.4-1,2.8-1.4,4.3
		c-0.3,1.4-0.6,2.8-0.5,4.2c-0.2,0.3-0.4,0.6-0.6,0.9c-0.4,0.8-0.5,1.5-0.7,2.1c-0.1,0.7-0.2,1.3-0.3,1.9c-0.2,1.3-0.2,2.5-0.3,3.8
		c-0.2,2.5-0.3,5-0.3,7.5c0,2.5,0.1,5,0.3,7.5l0.1,0.6l0.6,0c0.3,0,0.6,0,0.9,0c0.3,0,0.6,0,0.9,0.1c0.6,0.1,1.1,0.3,1.6,0.6
		c0.5,0.3,0.9,0.7,1.3,1.2c0.3,0.4,0.4,0.8,0.6,1.2c-0.7,0-1.5,0-2.2,0c-0.9,0-1.8,0-2.8,0l-2.8,0l-2.3-0.1
		c-0.1-3.4-0.2-6.7-0.4-10.1c-0.1-0.9-0.1-1.8-0.3-2.7c0-0.4-0.2-1.1-0.3-1.3c-0.1-0.4-0.1-0.8-0.2-1.2c-0.1-1.7-0.2-3.4-0.3-5.2
		l-0.2-5.2c-0.1-1.7-0.2-3.5-0.4-5.3c-0.2-1.7-0.4-3.5-0.6-5.2c-0.2-1.7-0.3-3.5,0.1-5.1l0,0c0-0.1,0-0.1-0.1-0.1
		c-0.1,0-0.1,0-0.2,0.1c-0.4,0.8-0.6,1.7-0.7,2.6c-0.1,0.9-0.2,1.8-0.2,2.7c0,0.7,0,1.5,0,2.2c-1.9-0.4-3.7-0.6-5.5-0.8
		c-2-0.2-4-0.1-6.1-0.2c-2-0.1-4.1-0.3-6.1-0.5c-1.8-0.2-3.7-0.5-5.5-0.7c0.2-0.4,0.3-0.8,0.5-1.3c0.1-0.6,0.2-1.1,0.3-1.7
		c0.1-1.1,0.1-2.2,0-3.3c-0.1-1.1-0.3-2.2-0.5-3.2c-0.3-1-0.5-2.2-1.3-3c0,0-0.1,0-0.2,0c-0.1,0-0.1,0.1,0,0.2l0,0
		c0.3,0.4,0.4,0.9,0.6,1.4c0.1,0.5,0.2,1,0.3,1.6c0.1,1,0.1,2.1,0.1,3.2c0,1.1-0.1,2.1-0.3,3.1c-0.1,0.5-0.2,1-0.4,1.5
		c-0.2,0.4-0.4,0.9-0.6,1.3c-1,1.8-2.2,3.6-3.4,5.3c-1.2,1.7-2.5,3.4-3.9,5c-0.3,0.4-0.7,0.8-1,1.1c-0.2,0.2-0.3,0.3-0.5,0.5
		l-0.6,0.5c-0.9,0.7-1.7,1.5-2.4,2.3c-1.5,1.7-2.9,3.4-3.9,5.5c-0.1,0.3-0.3,0.5-0.4,0.8c-0.1,0.3-0.3,0.6-0.3,1
		c-0.2,0.6-0.2,1.3-0.2,1.9c0,1.2,0.2,2.3,0.4,3.5c0.5,2.2,1.3,4.3,2.1,6.2l0.3,0.7l0.7,0c1.5,0,3.1,0.1,4.3,0.8
		c0.6,0.3,1,0.8,1.3,1.3c0.1,0.2,0.2,0.5,0.2,0.7c0,0-0.1,0-0.1,0c-1.6,0.1-3.2,0.1-4.9,0.2c-1.5,0.1-3.1,0.1-4.6,0.1
		c-1.8-3.9-3.4-8-4.2-12.3c-0.2-1.1-0.3-2.2-0.3-3.2c0-0.5,0-1,0.1-1.5c0.1-0.5,0.3-0.9,0.5-1.1c0.1-0.1,0.1-0.1,0.2-0.2l0.3-0.3
		c0.2-0.2,0.4-0.4,0.6-0.7c0.2-0.2,0.4-0.5,0.5-0.7c0.2-0.2,0.3-0.5,0.5-0.8c0.6-1,1.1-2.2,1.4-3.3c0.7-2.3,0.9-4.5,1.2-6.7
		c0.1-0.6,0.2-1,0.2-1.7c0-0.6,0-1.2,0-1.8c-0.1-1.2-0.4-2.3-0.7-3.4c-0.6-2.2-1.5-4.3-2.4-6.3l-1.4-3c-0.2-0.5-0.4-1-0.6-1.5
		c-0.2-0.5-0.4-1-0.4-1.5l0,0c0-0.1,0-0.1-0.1-0.1c-0.1,0-0.1,0-0.1,0.1c-0.1,0.3-0.1,0.6-0.1,0.9c0,0.3,0.1,0.6,0.1,0.8
		c0.1,0.6,0.3,1.1,0.4,1.6l1,3.2c0.7,2.1,1.4,4.2,1.8,6.3c0.2,0.9,0.4,1.8,0.4,2.8c-0.2,0.5-0.4,0.9-0.6,1.4c-0.5,1-1,1.9-1.7,2.6
		c-0.1,0.1-0.2,0.2-0.3,0.2c-0.1,0.1-0.2,0.2-0.3,0.2l-0.3,0.2c-0.2,0.1-0.3,0.2-0.5,0.3c-0.5,0.4-0.8,0.9-1.2,1.3
		c-0.7,0.9-1.3,1.8-1.9,2.8c-2.3,3.8-4.4,7.6-6.4,11.5l-0.7,1.4c-0.3,0.5-0.5,1-0.8,1.4c-0.5,0.8-1.1,1.6-1.8,2.4
		c-1.4,1.5-3,2.9-4.7,4.1c-1.7,1.2-3.6,2.3-5.5,3.1c-1.6,0.7-3.3,1.3-5.1,1.5c-0.2-2.4-0.3-4.8-0.3-7.2c0-1.4,0.1-2.7,0.4-4
		c0.4-1.3,0.9-2.6,1.4-3.9c1.1-2.5,2.3-5,3.7-7.4c1.3-2.4,2.8-4.8,4.1-7.2c0.7-1.2,1.4-2.4,2-3.7l2-3.6c1.3-2.4,2.7-4.8,4.1-7.2
		c1.4-2.4,2.9-4.7,4.5-6.9c1.6-2.2,8.9-8.9,10.7-10c1.8-1.1,3.6-2.1,5.5-2.8c0.5-0.2,1-0.3,1.4-0.5c0.5-0.1,0.9-0.2,1.4-0.3
		c1-0.2,2-0.3,3-0.4c2-0.1,4.1-0.1,6.2-0.1c2.1,0.1,4.2,0.2,6.3,0.4c2.1,0.2,4.2,0.4,6.3,0.5c4.4,0.2,8.6-0.5,12.8-0.7l0,0l0.1,0
		c1.2-0.4,2.5-0.5,3.7-0.5c1.3,0,2.5,0.3,3.8,0.6c0.4,0.1,0.6,0.2,1.2,0.1c0.5-0.1,0.9-0.3,1.2-0.4c0.7-0.4,1.2-0.7,1.7-1.1
		c1.1-0.8,2.1-1.5,3.1-2.3c2-1.5,4.1-3,6.3-4.4c2-1.2,4-2.4,6-3.6c-0.5,1.7-0.8,3.4-0.7,5.1c0,0,0,0.1,0.1,0.1c0,0,0.1,0,0.1-0.1
		c0.1-2,0.8-4,1.6-5.8c0.4-0.9,0.9-1.8,1.4-2.6c0.5-0.8,1.1-1.7,1.8-2.3c0.2-0.1,0.3-0.3,0.5-0.3c0,0,0.1,0,0.1,0
		c0,0,0.2,0.2,0.3,0.3c0.1,0.2,0.2,0.4,0.3,0.6c0.4,0.8,0.7,1.8,1.1,2.7c0.8,1.8,1.5,3.7,2.4,5.6c0,0,0,0,0.1,0c0,0,0.1,0,0.1-0.1
		c0-0.3,0-0.6-0.1-0.9c1.6,1.2,2.9,2.7,3.9,4.4c0.6,0.9,1,1.8,1.4,2.8c0.4,1,0.6,2,0.8,3l0,0.1l0,0.1l0.6,1.4
		c0.2,0.5,0.4,0.9,0.7,1.5c0.2,0.3,0.4,0.5,0.7,0.7c0.1,0.1,0.4,0.3,0.5,0.4l1.1,1l1.9,1.7c-0.1,0.3-0.2,0.6-0.8,0.9
		C123.5,69.8,124.3,70.3,125.1,70.6z"/>
</g>
</svg>
