<?xml version="1.0" encoding="utf-8"?>
<!-- Generator: Adobe Illustrator 24.1.2, SVG Export Plug-In . SVG Version: 6.00 Build 0)  -->
<svg version="1.1" id="Layer_1" xmlns="http://www.w3.org/2000/svg" xmlns:xlink="http://www.w3.org/1999/xlink" x="0px" y="0px"
	 viewBox="0 0 128 128" style="enable-background:new 0 0 128 128;" xml:space="preserve">
<style type="text/css">
	.st0{fill:#2D2D2D;}
</style>
<g>
	<path class="st0" d="M115.1,23.6l-0.2-0.2l-0.3-0.3l-0.6-0.7l-0.5-0.7c0,0,0-0.1,0-0.1c0-0.7-0.5-1.3-1.3-1.4
		c-0.7,0-1.3,0.5-1.4,1.3s0.5,1.3,1.3,1.4c0.2,0,0.4,0,0.6-0.1l0.7,0.4l0.9,0.4l0.4,0.2l0.2,0.1c0.1,0,0.1,0.1,0.3,0
		C115.2,23.6,115.2,23.6,115.1,23.6z"/>
	<path class="st0" d="M125,27.2c-4.5-3.4-5.9-5.1-6-5.5c-0.2-1.1-1.1-4.9-4.6-6.1c-0.1,0-0.3-0.1-0.4-0.1c0,0-0.1-0.1-0.1-0.1
		c0,0,0,0,0,0c-0.1,0-0.1-0.1-0.2-0.2c-0.1-0.1-0.3-0.3-0.4-0.4c-0.3-0.3-0.5-0.6-0.7-0.9c-0.5-0.6-0.9-1.2-1.3-1.9
		c-0.7-1.3-1.3-2.8-1.4-4.4c-0.1-1.5,0.2-3.1,1-4.5c0.7-1.4,1.9-2.6,3.4-3.2c0,0,0,0,0,0h0c-0.8,0-1.6,0.3-2.3,0.6
		c-0.7,0.4-1.4,0.9-2,1.5c-1.2,1.2-2.1,2.6-2.8,4.1c-0.3,0.8-0.6,1.6-0.8,2.4c-0.2,0.8-0.2,1.7-0.2,2.6c0,0,0,0.1,0,0.1
		c-0.2-0.2-0.4-0.4-0.6-0.5c-0.9-0.7-1.7-1.3-2.8-1.8c-0.5-0.2-1,0-1.3,0.5l0,0c-0.3,0.6-0.4,1.1-0.6,1.7c-0.1,0.6-0.2,1.2-0.3,1.8
		c-0.1,1.2,0.1,2.4,0.5,3.5c0.2,0.5,0.4,0.9,0.6,1.3c0,0-0.1,0.1-0.1,0.1c-0.1,0.2-0.3,0.5-0.5,0.9c-0.6,0.9-1.3,2-1.5,2.9
		c-0.3,1.3-4.1,14-6.3,17.4c-1.7,2.6-11.6,3.4-15.8,3.7c-0.7,0.1-1.3,0.1-1.8,0.1c-1.5,0.1-6.7,0.5-12.3,0.9
		c-9.8,0.7-16.9,1.3-18.1,1.4c-7.6,0.1-17.2,3.5-20.9,7.3c-0.9,0.4-9.9,5-11.5,12.7c-0.1,0.3,0,0.6,0.2,0.9c0.2,0.2,0.5,0.3,0.7,0.3
		c0,0,0.1,0,0.1,0c1.1-0.1,5-2.8,7.4-4.6c0,2.6,0.4,5,0.8,6.5c0.9,2.9,0.6,10.4-0.2,12.5c-0.5,1.3-6.1,5.4-11.1,8.7
		c-0.2,0.1-0.4,0.4-0.4,0.6c0,0.1-2.7,11.8-3.6,14.2c-0.9,2.5-5,15-5.2,15.5c-0.1,0.3-0.1,0.6,0.1,0.8c0.1,0.2,0.4,0.4,0.7,0.5
		l0.2,0l0.5,0.1l0,3.2c0,0.1,0,0.1,0,0.2c0,0.2,0,0.4,0.1,0.6l1.1,2.3c0.2,0.4,0.5,0.6,0.9,0.6h6c0.4,0,0.7-0.2,0.9-0.6
		c0.2-0.3,0.1-0.8-0.1-1.1l-3.2-3.8c0.1-0.4,0.2-1.2,0.3-2c0.4-2.8,1.1-7.3,1.5-9.5c0.6-3.3,3.9-11,6-13.4c1.3-1.5,6.2-5.1,10.6-8.2
		c1.2-0.9,2.4-1.7,3.5-2.5L27,93.7c-0.1,0.3-0.2,0.6-0.1,0.8l10,26.2c0.1,0.4,0.5,0.6,0.9,0.6l1.2,0.1l1.2,1.6c0,0.1,0,0.1,0.1,0.2
		l1.1,2.3c0.2,0.4,0.5,0.6,0.9,0.6h6c0.4,0,0.7-0.2,0.9-0.6c0.2-0.3,0.1-0.8-0.1-1.1l-3.2-3.9c0,0,0,0-0.1-0.1c0,0,0-0.1,0-0.1
		c-2.5-3.8-9-14.5-9.2-18c-0.3-4.4,0.5-6.6,3.4-9.4l0.2-0.2c3.4-3.4,12.3-12.3,13.9-18.3c4.4,0.8,10.2,1.4,17.3,1.4
		c2.4,0,5-0.1,7.7-0.3c0.2,2.9,0.4,11,0.5,15.3c0,0.2,0,4.2,0.9,6.7c-0.2,3.1-1.2,22.1-1.2,22.3c0,0.5,0.3,0.9,0.8,1c0,0,0,0,0,0
		c0.3,0.1,0.6,0.1,0.8,0.2c0.1,0.5,0.3,1.6,0.6,3.4c0,0.1,0.1,0.2,0.1,0.3c0,0.1,0,0.2,0.1,0.3l1.1,2.3c0.2,0.4,0.5,0.6,0.9,0.6h6
		c0.4,0,0.7-0.2,0.9-0.6c0.2-0.3,0.1-0.8-0.1-1.1l-3.2-3.9c0-0.1-0.2-0.7-0.3-1.7c-0.6-3-1.8-9.3-1.5-12.6c0.3-4.1,0.8-9.1,0.9-10
		c0.3-0.7,1.5-4.6,1.5-9.5c0-2.4,0.1-5.5,0.2-8l9.2,7.5c0.4,0.8,1.6,3.1,3,4c1.1,2.5,7.8,16.9,8.1,17.6c0.1,0.3,0.4,0.5,0.6,0.5
		l0.3,0.1l-0.6,3.6c0,0.2,0,0.3,0,0.5v0l0.2,2.5c0,0.4,0.3,0.7,0.6,0.9l5.6,2.2c0.1,0,0.2,0.1,0.4,0.1c0.3,0,0.5-0.1,0.7-0.3
		c0.3-0.3,0.4-0.7,0.3-1l-1.6-4.8c0-0.1-0.1-0.1-0.1-0.2c0,0,0,0,0,0l-0.1-5.9c0-0.2,0-0.3-0.1-0.4l-9-16.9c-0.1-1-0.8-5.2-3.9-7.7
		c-1.5-1.9-5.5-8.9-6.8-11.1c2.1-1.3,4.2-3.1,4.9-5.2c0.8-2.3,1-3.7,1.1-4.8c0.1-0.9,0.2-1.6,0.6-2.6c0.4-1,1.2-2.5,2.2-4
		c1.3-2.3,2.9-4.9,3.4-6.9c0.7-2.8,2.5-12.8,3-15.7c0.4,0,0.8,0,1.3,0c0.1,0,0.1,0,0.2,0c0.1,0,0.1,0,0.1,0c0.7,0,1.4,0,1.8,0.1h0.1
		c0.6,0,2.7,0.9,4,1.4c0.9,0.3,1.7,0.7,2.3,0.9c0.9,0.3,1.9,0.3,2.7-0.2c0.1,0,0.1-0.1,0.1-0.1l1.5-1c0,0,0,0,0,0l0.1,0
		c0.1,0,0.2,0,0.3,0c0.4,0,0.8-0.3,0.9-0.7l0.8-2.2c0-0.1,0-0.1,0-0.2C126.5,29.2,126,28,125,27.2z M21.5,59.2
		c-0.9,0.8-3.9,2.9-6,4.2c1.5-3.2,4.4-5.7,6.7-7.3C21.9,57.1,21.6,58.1,21.5,59.2z M107.4,8.8c0.1-0.7,0.3-1.5,0.5-2.3
		c0.5-1.5,1.2-2.9,2.3-4.1c1-1.1,2.2-2.1,3.7-2.4c-0.7,0.2-1.4,0.6-1.9,1c-0.6,0.5-1.2,1.2-1.6,1.9c-0.9,1.4-1.4,3.1-1.5,4.8
		c0,1.7,0.4,3.4,1.1,5c0.3,0.8,0.7,1.5,1.2,2.3c0,0,0,0.1,0.1,0.1c-0.8,0-1.6,0-2.1,0.1c0-0.1-0.1-0.1-0.1-0.2
		c0-0.1-0.1-0.1-0.1-0.2c-0.1-0.2-0.2-0.3-0.3-0.5c-0.2-0.3-0.3-0.7-0.4-1c-0.3-0.7-0.5-1.5-0.6-2.2C107.4,10.3,107.4,9.6,107.4,8.8
		z M9.2,126H5.9l-0.5-1l2.1-0.9L9.2,126z M46.2,124h-3.3l-0.5-1l2.1-1L46.2,124z M38.7,91.3l-0.2,0.2c-3.3,3.3-4.2,6-3.9,11
		c0.3,4.1,6.7,14.5,8.9,18l-2,0.9l-1.1-1.5c-0.2-0.2-0.4-0.4-0.7-0.4l-1-0.1l-9.6-25.2l5.9-10.4c0,0,0,0,0,0
		c2.9-2.6,8.2-7.3,10.2-11.6c0.9,0.3,3.3,1.1,6.9,1.8C50.4,79.6,41.6,88.3,38.7,91.3z M85.8,124l1.7,2h-3.3l-0.5-1.1L85.8,124z
		 M113.9,117.6l-3-1.2l-0.1-1.2l2.3-0.2L113.9,117.6z M100.2,84.2c0,0.1,0.1,0.1,0.2,0.1c2.9,2.3,3.3,6.6,3.3,6.7
		c0,0.1,0,0.3,0.1,0.4l8.9,16.9l0.1,4.8l-1.9,0.2l0.5-3.2c0.1-0.5-0.2-1-0.7-1.1l-0.7-0.2c-2.8-6-7.7-16.7-8-17.4
		c-0.1-0.2-0.3-0.4-0.5-0.5c-0.8-0.3-1.9-2.2-2.5-3.4c-0.1-0.1-0.2-0.3-0.3-0.4l-10-8.1c-0.1-0.1-0.3-0.2-0.5-0.2
		c0.1-1.4,0.1-2.3,0.1-2.6c0.3-0.6,0.6-1.1,0.8-1.7c0.1,0,0.1,0,0.2,0c0.3,0,2-0.6,4-1.6C94.5,75,98.7,82.3,100.2,84.2z M123.9,31.3
		c0,0-0.1,0-0.1,0c-0.1-0.1-0.2-0.1-0.3-0.1l-1.5-0.3c-0.5-0.1-1-0.2-1.5-0.4l-1.5-0.4l-0.8-0.2c-0.3-0.1-0.5-0.1-0.8-0.1
		c0.2,0.2,0.4,0.3,0.7,0.4l0.7,0.3l1.4,0.6c0.7,0.3,1.5,0.6,2.3,1l-0.9,0.6c-0.4,0.2-0.8,0.2-1.2,0c-0.6-0.2-1.4-0.5-2.2-0.9
		c-2.3-0.9-3.8-1.5-4.7-1.5c-0.8-0.1-2.3-0.1-3.3,0h-2.6l-0.2,0c-0.1,0-0.1,0-0.2,0c-0.1,0-0.2-0.1-0.3-0.2l-3.3-3.9l2.5,4.5
		c0.1,0.2,0.4,0.5,0.6,0.6c0.1,0.1,0.3,0.1,0.4,0.2c0.1,0,0.2,0,0.2,0.1l0.2,0l0.6,0.1c-0.4,2.5-2.3,13.1-3,15.8
		c-0.5,1.7-1.9,4.2-3.2,6.4c-1,1.7-1.9,3.2-2.3,4.4c-0.5,1.3-0.6,2.1-0.7,3.1c-0.1,1.1-0.3,2.3-1,4.4c-1,2.8-5.9,5.2-8,6.1
		c0.2-0.5,0.3-1.1,0.5-1.6c0.2-1,0.4-2,0.5-2.9c0.1-1,0-2-0.2-2.9c0,1-0.1,1.9-0.3,2.9c-0.2,0.9-0.6,1.8-0.9,2.7
		c-0.4,0.9-0.8,1.7-1.3,2.5c-0.5,0.8-1,1.6-1.6,2.3l0,0c0,0-0.1,0.1-0.1,0.1c-0.1,0.1-0.1,0.3-0.1,0.4c0,0.1-0.1,0.2-0.1,0.3
		c0,0.1-0.5,7.9-0.5,13.1c0,5-1.4,8.8-1.5,8.9c0,0.1-0.1,0.2-0.1,0.3c0,0.1-0.6,5.6-0.9,10.2c-0.2,3.3,0.8,9.3,1.4,12.5
		c0.1,0.6,0.2,1.1,0.3,1.5l-1.9,0.8c-0.2-1-0.3-1.8-0.4-2.3c0-0.1,0-0.3,0-0.3c0-0.7-0.6-1-1.5-1.2c0.2-3.9,1.1-19.7,1.2-21.7
		c0-0.1,0-0.3-0.1-0.4c-0.9-2.2-0.9-6.2-0.9-6.2c0-0.6-0.3-14.3-0.6-16.4c0-0.1,0-0.1,0-0.2c0-0.2-0.1-0.5-0.2-0.6l0,0
		c-0.6-0.8-1.2-1.7-1.7-2.7c-0.5-0.9-1-1.9-1.4-2.9c-0.4-1-0.7-2-0.9-3.1c-0.2-1.1-0.3-2.2-0.2-3.3c-0.2,1.1-0.3,2.2-0.3,3.3
		c0.1,1.1,0.2,2.2,0.5,3.3c0.3,1.1,0.6,2.2,1,3.2c0.3,0.7,0.5,1.4,0.9,2c-17.7,1.1-29.5-2.2-32.3-3.1c0.3-0.6,0.6-1.2,0.8-1.8
		c0.4-1,0.8-2.1,1.1-3.2c0.3-1.1,0.4-2.2,0.5-3.3c0.1-1.1,0-2.2-0.2-3.3c0,1.1,0,2.2-0.3,3.2c-0.2,1.1-0.5,2.1-0.9,3.1
		c-0.4,1-0.9,1.9-1.4,2.9c-0.6,0.9-1.2,1.8-1.8,2.5l0,0c0,0-0.1,0.1-0.1,0.1c0,0.1-0.1,0.1-0.1,0.2c0,0-0.1,0.1-0.1,0.1
		c-1.7,4-7.1,8.8-10,11.4c-1.7,1.3-4.4,3.3-7.4,5.4c-4.7,3.4-9.5,6.8-11,8.5C12.9,99,9.5,107,8.8,110.6c-0.4,2.4-1.2,7.1-1.6,9.9
		c-0.1,0.7-0.2,1.3-0.3,1.7l-1.7,0.7l0-2.4v-0.1c0-0.5-0.3-0.9-0.8-1l-0.4-0.1c1-3.1,4-12.3,4.8-14.4c0.9-2.3,3.1-12,3.6-14.1
		c2.4-1.6,10.5-7.1,11.5-9.4c1.1-2.6,1.3-10.8,0.3-13.8c-0.9-3-1.4-9.9,1.2-13.2c2.5-3.3,11.9-7.2,20.1-7.2c0,0,0.1,0,0.1,0
		c0.9-0.1,10.4-0.9,18-1.4c5.5-0.4,10.8-0.8,12.3-0.9c0.5,0,1.1-0.1,1.8-0.1c7.3-0.5,15.2-1.4,17.3-4.6c2.6-3.9,6.5-17.8,6.5-17.9
		c0.2-0.7,0.8-1.6,1.3-2.4c0.1-0.1,0.1-0.2,0.2-0.3c0.8,0.8,1.7,1.4,2.7,1.7c0.1,0.6,0.1,1.2,0.2,1.8c0.2-0.7,0.3-1.4,0.4-2.1
		c0-0.1,0-0.2-0.1-0.3l-0.1,0c-0.9-0.5-1.6-1.2-2.2-2c-0.6-0.8-0.9-1.8-1.2-2.7c-0.3-0.9-0.2-1.9-0.2-2.9c0.1-0.5,0.1-1,0.3-1.4
		c0-0.1,0.1-0.3,0.1-0.4c0.5,0.3,1,0.6,1.5,1c0.7,0.6,1.4,1.3,1.9,2c0.5,0.8,0.9,1.6,1.1,2.5c0.2,0.9,0.3,1.9,0.2,2.9l0,0.1
		c0,0,0,0.1,0,0.1c0.2,0.5,0.4,0.8,0.7,1.2c0.3,0.4,0.6,0.7,1,0.8c-0.3-0.3-0.5-0.7-0.7-1c-0.1-0.2-0.1-0.4-0.2-0.6
		c0-0.2-0.1-0.3-0.1-0.5c0.3-0.8,0.4-1.7,0.4-2.6c0.6-0.1,3.2-0.4,5.1,0.3c2.5,0.9,3.1,3.7,3.3,4.6c0.1,0.5,0.3,1.8,5.7,6
		c0,0.8,0.4,2,0.7,2.3c0.2,0.2,0.5,0.2,0.7,0.2L123.9,31.3z"/>
</g>
</svg>
