<?xml version="1.0" encoding="utf-8"?>
<!-- Generator: Adobe Illustrator 23.0.0, SVG Export Plug-In . SVG Version: 6.00 Build 0)  -->
<svg version="1.1" id="Layer_1" xmlns="http://www.w3.org/2000/svg" xmlns:xlink="http://www.w3.org/1999/xlink" x="0px" y="0px"
	 viewBox="0 0 128 128" 
width="128" height="128"
style="enable-background:new 0 0 128 128;" xml:space="preserve">
<style type="text/css">
	.st0{fill:#2D2D2D;}
</style>
<g>
	<path class="st0" d="M116.8,84.1c-0.6,0.5-0.6,1.5,0,2.2c0.6,0.7,1.5,0.8,2.1,0.3c0.6-0.5,0.6-1.5,0-2.2
		C118.3,83.8,117.4,83.6,116.8,84.1z"/>
	<path class="st0" d="M127.6,93.1c-0.2-0.5-0.4-0.9-0.7-1.3c-0.3-0.9-0.6-1.8-1-2.7c-0.4-0.9-0.8-1.8-1.3-2.6
		c-0.5-0.9-0.9-1.7-1.2-2.7c-0.3-0.9-0.4-1.9-0.5-2.9l0,0.2c0.1-1.2-0.3-2.3-0.7-3.3c-0.2-0.5-0.5-1-0.8-1.4c-0.2-0.3-0.5-0.7-0.8-1
		c0.2-0.6,0.2-1.2,0.2-1.7c0-0.7-0.2-1.5-0.5-2.2c-0.2-0.5-0.4-0.9-0.6-1.3c-0.2-1.4-0.8-2.7-1.5-3.8c-0.9-1.4-2.1-2.6-3.5-3.4
		c0,0,0,0-0.1,0c-0.4-0.4-0.7-0.9-1.1-1.3c-0.9-0.9-1.9-1.7-3-2.3c-0.6-1.2-1.3-2.3-2.3-3.1c-0.9-0.7-1.8-1.2-2.8-1.7
		c-0.7-1.1-1.6-2-2.5-2.8c-1.2-1-2.5-1.8-3.9-2.3c-0.4-0.1-0.7-0.3-1.1-0.4c-0.2-0.1-0.4-0.1-0.5-0.2c-0.1,0-0.1-0.1-0.4-0.1
		c-0.1,0-0.2,0-0.3,0c-0.5-0.3-1-0.6-1.5-0.9c-0.8-0.4-1.6-0.7-2.5-1c-0.9-0.7-1.9-1.3-2.9-1.8c-1.5-0.7-3.1-1.1-4.8-1.3
		c-0.4-0.1-0.8-0.1-1.2-0.1l-0.2,0c-0.1,0-0.3,0-0.4,0.1c0,0,0,0,0,0c-1-0.4-2-0.6-3.1-0.8c-1.6-0.2-3.2-0.2-4.7,0.1
		c-0.4,0.1-0.8,0.2-1.2,0.3c-0.2,0-0.4,0.1-0.6,0.2l-0.1,0c0,0-0.1,0-0.2,0.1c-0.1,0.1-0.2,0.2-0.3,0.3c-0.2,0.2-0.2,0.5-0.1,0.7
		c-1.1-0.1-2.3-0.2-3.4-0.3c-0.9,0-1.7,0-2.6,0c-0.4,0-0.9,0-1.3,0.1c-0.4,0-0.8,0.1-1.3,0.2c-0.1,0-0.2,0.1-0.3,0.1
		c-0.1,0.1-0.2,0.2-0.3,0.3c-0.1,0.3,0,0.4,0,0.6c0,0,0,0,0,0c-1.5,0.1-2.9,0.5-4.3,1c-1,0.4-1.9,0.9-2.8,1.5
		c-0.5,0.3-0.8,0.6-1.3,1c-0.1,0.1-0.2,0.3-0.3,0.5c-1.2,0-2.5,0.4-3.6,0.9c-1.2,0.6-2.3,1.3-3.4,2.1c-1.2,0.3-2.4,0.8-3.5,1.3
		c-1.4,0.8-2.8,1.8-3.9,3l-0.4,0.5L40,58.1l-0.1,0.1c0,0-0.1,0.1-0.1,0.1c-1.2,0.4-2.4,1-3.5,1.7c-0.9,0.6-1.7,1.2-2.4,2
		c-0.4,0.4-0.7,0.8-1,1.2l-0.1,0.2l0,0c0,0,0,0.1-0.1,0.1c0,0.1-0.1,0.2-0.1,0.3c-0.1,0.4,0.1,0.7,0.4,0.9c-0.7,0.1-1.4,0.4-2,0.6
		c-0.9,0.4-1.8,0.9-2.6,1.4c-0.8,0.6-1.6,1.2-2.3,1.9l-0.3,0.3L25.5,69l-0.1,0.1l0,0c0,0-0.1,0.1-0.1,0.1c-0.1,0.1-0.1,0.2-0.2,0.4
		c0,0.2,0.1,0.4,0.1,0.4c-0.2,0.2-0.5,0.4-0.7,0.5l-1.6,1.1L19.6,74L13,78.4c-2.2,1.5-4.4,3.1-6.3,5.1c-1.9,2-3.5,4.2-4.6,6.7
		c-1.2,2.5-1.8,5.2-2,7.9c-0.2,2.7,0.1,5.5,0.7,8.2c0.6,2.7,1.7,5.2,3,7.6c0.5,0.9,1,1.7,1.6,2.5c0.4,0.8,0.8,1.6,1.4,2.4
		c0.3,0.4,0.7,0.7,1.2,0.9c0.2,0.3,0.4,0.5,0.7,0.8c0.9,1,1.8,2,2.8,2.9c1,0.9,2.1,1.7,3.2,2.5c1.1,0.8,2.4,1.4,3.7,1.8
		c0.7,0.2,1.4,0.3,2.2,0.1c0.7-0.2,1.3-0.9,1.5-1.6c0.4-1.4,0.1-2.8-0.3-4.1c-0.2-0.7-0.5-1.3-0.7-1.9c-0.2-0.6-0.4-1.3-0.6-1.9
		c-0.7-2.5-1.2-5.1-1.1-7.6c0-2.5,0.7-5,2-7.2c1.3-2.1,3.1-4,5.2-5.4c2.1-1.5,4.4-2.7,6.8-3.7c1.2-0.5,2.5-1,3.7-1.4
		c1-0.4,2.1-0.7,3.2-1.1c-0.1,0.1-0.1,0.3-0.1,0.4c-0.2,0.6-0.2,1.2-0.2,1.8c0,1.2,0.1,2.4,0.2,3.5l0,0l0,0.1c0.3,1.2,1,2.3,1.9,3.1
		c0.9,0.8,1.9,1.3,3,1.6c2.1,0.7,4.2,0.9,6.2,1c1,0,2,0,3.1,0c1,0,2.1-0.2,3.1-0.4c0.2,0,0.4-0.1,0.6-0.1c0,0.1,0,0.1,0,0.2
		c0,0.4,0.2,0.8,0.4,1c0.2,0.2,0.5,0.4,0.8,0.4c0.5,0.1,1,0.1,1.5,0.3c0.5,0.1,0.9,0.3,1.4,0.6c0.4,0.3,0.9,0.5,1.4,0.6l0.3,0.1
		c0.1,0,0.2,0.1,0.3,0.2c0.2,0.1,0.4,0.2,0.7,0.3c0.5,0.2,0.9,0.3,1.4,0.4c0.1,0,0.3,0.1,0.5,0.1c0.2,0,0.5-0.1,0.6-0.3
		c0.1-0.2,0.1-0.4,0.1-0.5c0,0,0,0,0,0c0.2-0.1,0.4-0.1,0.5-0.3c0.3-0.3,0.3-0.6,0.3-0.8c0-0.9-0.4-1.4-0.7-2
		c-0.1-0.1-0.2-0.3-0.3-0.4l-0.1-0.1c0.1,0,0.2-0.1,0.2-0.1c0.1-0.1,0.2-0.3,0.2-0.4c0.1-0.5,0-0.8,0-1.1c-0.1-0.3-0.2-0.5-0.3-0.8
		c0-0.1-0.1-0.2-0.2-0.3c0,0,0.1,0,0.1,0c0.5,0.1,1,0.1,1.4,0.2c0.4,0.1,0.8,0.3,1.2,0.5c0.4,0.2,0.8,0.5,1.2,0.6l0.3,0.1
		c0.1,0,0.2,0.1,0.3,0.1c0.2,0.1,0.4,0.2,0.6,0.3c0.4,0.2,0.8,0.3,1.3,0.4c0.1,0,0.3,0.1,0.5,0.1c0.2,0,0.4-0.1,0.6-0.3
		c0.1-0.2,0.1-0.3,0.1-0.4c0,0,0,0,0,0c0.2,0,0.3-0.1,0.5-0.3c0.3-0.3,0.3-0.6,0.3-0.7c0-0.8-0.4-1.3-0.6-1.8
		c-0.1-0.1-0.2-0.3-0.3-0.4c0.1,0,0.1-0.1,0.2-0.1c0.1-0.1,0.2-0.2,0.2-0.3c0.1-0.4,0.1-0.7,0-1c-0.1-0.3-0.2-0.5-0.3-0.7
		c-0.3-0.5-0.6-0.9-1.1-1.2c-0.4-0.3-0.9-0.6-1.3-0.7c-0.5-0.2-0.9-0.3-1.3-0.6c-0.4-0.2-0.8-0.6-1.2-0.8c-0.2-0.1-0.4-0.2-0.6-0.3
		c-0.1-0.1-0.1,0-0.3-0.1c-0.1-0.1-0.3-0.2-0.7-0.2c-0.2,0-0.3,0.1-0.4,0.2c0,0,0,0,0,0c-0.2-0.1-0.4-0.2-0.6-0.3
		c-1.6-0.6-3.1-1.1-4.5-1.8c-1.6-0.8-2.3-1.6-2.6-2.9c-0.2-0.9-0.2-2-0.1-3.1c0.5-0.1,0.9-0.3,1.4-0.4c1.3-0.4,2.6-0.9,3.9-1.4
		c0.6-0.2,1.3-0.3,1.9-0.5c0.7-0.1,1.3-0.3,2-0.4c1.4-0.2,2.8-0.2,4.2,0c1.4,0.2,2.7,0.6,4.1,0.8c2.7,0.5,5.5,0.6,8.3,0.7
		c0,0,0,0,0,0.1l0,0.1l0.1,0.2l0.2,0.4l0.4,0.7c0.2,0.5,0.4,1,0.6,1.5c0.4,1,0.7,2,0.9,3c0.2,1,0.2,2,0,2.9
		c-0.1,0.2-0.1,0.4-0.2,0.7c-0.1,0.2-0.2,0.4-0.3,0.7c-0.3,0.5-0.5,1-0.7,1.5c-0.5,1-0.9,2-1.2,3.1c-0.2,0.6-0.3,1.2-0.2,1.8
		c0,0.1,0,0.3,0.1,0.4c-0.1,0.2-0.2,0.4-0.3,0.5c-0.3,0.4-0.6,0.7-1,1c-0.4,0.3-0.8,0.6-1.1,1l-0.2,0.2c-0.1,0.1-0.1,0.1-0.2,0.2
		c-0.2,0.1-0.3,0.3-0.5,0.5c-0.3,0.3-0.6,0.7-0.9,1.1c-0.1,0.1-0.2,0.3-0.3,0.5c-0.1,0.2-0.1,0.5,0.1,0.7c0.1,0.2,0.3,0.2,0.4,0.2
		c0,0,0,0,0,0c0,0.2,0,0.4,0.1,0.5c0.1,0.3,0.4,0.5,0.6,0.6c0.8,0.3,1.4,0.2,2,0.1c0.2,0,0.3-0.1,0.5-0.1c0,0.1,0,0.2,0,0.2
		c0.1,0.1,0.2,0.3,0.3,0.3c0.4,0.3,0.7,0.3,1,0.4c0.3,0,0.6,0,0.8,0c0.6-0.1,1.1-0.3,1.6-0.6c0.5-0.3,0.9-0.6,1.2-1
		c0.4-0.4,0.7-0.8,1.1-1.1c0.4-0.3,0.9-0.6,1.3-0.8c0.2-0.1,0.4-0.3,0.5-0.5c0.1-0.1,0.1-0.1,0.3-0.2c0.1-0.1,0.3-0.3,0.4-0.6
		c0,0,0-0.1,0-0.2c0.9-0.4,1.8-0.9,2.5-1.6c0.2-0.2,0.4-0.4,0.6-0.6c0.2-0.2,0.4-0.5,0.5-0.7c0.3-0.5,0.6-1,0.9-1.5
		c1.1-2,1.9-4.2,2.2-6.4c0-0.1,0-0.3,0.1-0.4c0.1,0.1,0.1,0.2,0.2,0.2c0.3,0.3,0.6,0.6,0.9,0.9c0.6,0.6,1.4,1.1,1.5,1.5
		c0.2,0.5,0.3,1.2,0.2,1.9c0,0.3-0.1,0.7-0.2,1c0,0.1,0,0.2-0.1,0.2l0,0c-0.2,0.1-0.3,0.2-0.4,0.4c-0.1,0.2-0.1,0.4-0.1,0.6
		c0,0.2,0.1,0.4,0.2,0.6c0.2,0.4,0.4,0.8,0.7,1.1c0.3,0.3,0.6,0.7,0.9,0.9c0.2,0.1,0.4,0.2,0.6,0.3l0.5,0.3c0.7,0.4,1.4,0.7,2.1,1.2
		c0.6,0.5,1.2,1.1,1.7,1.8l0.8,1.1l-0.4-1.3c-0.3-0.9-0.5-1.7-0.8-2.6c-0.2-0.6-0.5-1.1-0.7-1.7c0.1,0,0.1,0,0.2,0
		c0,0,0.1,0.1,0.1,0.1c0.6,0.4,1.2,0.9,1.6,1.4c0.5,0.6,0.9,1.2,1.2,1.9l0.6,1.3l-0.1-1.5c-0.1-0.8-0.1-1.6-0.3-2.4
		c-0.1-0.5-0.2-1.1-0.4-1.6c0,0,0,0,0,0c0,0,0,0,0,0c0.2,0.4,0.5,0.7,0.7,1.1c0.4,0.7,0.7,1.5,0.7,2.4c0,0.9-0.3,1.7-0.5,2.6
		l-0.2,0.6l0.5-0.3c0.9-0.5,1.8-1.4,2.1-2.4c0.4-1.1,0.4-2.2,0.2-3.3c-0.1-0.5-0.3-1.1-0.5-1.5c-0.1-0.2-0.2-0.5-0.4-0.7
		c-0.1-0.2-0.3-0.4-0.5-0.6c-0.1-0.1-0.2-0.2-0.3-0.3l0-0.1c0-0.1,0-0.2,0-0.3c0-0.9-0.2-1.8-0.5-2.6c-0.3-0.8-0.7-1.5-1.2-2.2
		c-0.5-0.7-1-1.4-1.7-1.9l-0.5-0.4l-0.6-0.4c-0.3-0.2-0.6-0.4-0.9-0.6c-0.5-0.4-1-1-1.4-1.6c-0.4-0.6-0.8-1.2-1.2-1.9
		c-0.7-1.4-1.3-2.8-1.6-4.4c0,0,0,0,0,0c0.5,0.5,1,1,1.5,1.5c0.6,0.4,1.1,0.9,1.7,1.3c0.6,0.4,1.2,0.7,1.9,1c0.6,0.3,1.3,0.5,2,0.6
		c0.4,0.5,0.8,0.9,1.2,1.3c0.5,0.5,0.9,1,1.4,1.5c0.5,0.5,1,1,1.6,1.4c0.2,0.1,0.3,0.2,0.5,0.3l0.3,0.1c0.1,0,0.2,0.1,0.2,0.1
		c0.1,0.1,0.4,0.3,0.7,0.5c1,0.8,2,1.7,2.9,2.6c0.5,0.4,1,0.9,1.5,1.3c0.3,0.2,0.5,0.4,0.7,0.6c0.2,0.2,0.5,0.4,0.6,0.6l0.1,0.1
		c0.3,0.3,0.6,0.7,1,1c0.4,0.3,0.8,0.6,1.3,0.7c0.5,0.1,1,0.2,1.4,0.1c0.5-0.1,0.9-0.2,1.3-0.4c0,0,0,0,0,0c0.5-0.1,1-0.4,1.3-0.9
		c0.4-0.5,0.5-1.2,0.5-1.8C128,94.1,127.8,93.6,127.6,93.1z M81.3,106.2c0,0,0-0.1,0-0.1c0,0,0.1,0,0.1,0
		C81.3,106.1,81.3,106.2,81.3,106.2z M120.6,77.9C120.6,77.9,120.6,77.9,120.6,77.9c0,0.1,0.1,0.2,0.1,0.4c0.3,1,0.4,2,0.7,2.9
		l0,0.1c-0.5,0-1-0.1-1.5-0.3c-0.7-0.2-1.3-0.5-1.9-0.9c-0.5-0.2-0.9-0.5-1.3-0.8c0.1-0.6,0.3-1.1,0.6-1.7l0.3-0.5l0.1-0.1
		c0,0,0,0,0.1-0.1c0,0,0.1-0.1,0.1-0.1c0.2-0.1,0.4-0.1,0.6,0c0.3,0.2,0.7,0.4,1.1,0.6l0.6,0.3C120.4,77.8,120.5,77.8,120.6,77.9z
		 M120.3,75.2c0,0-0.1-0.1-0.1-0.1c0,0-0.1,0-0.1,0c-0.1,0-0.1,0.1-0.1,0.1c0.1,0.4,0.1,0.9,0.2,1.3l-0.1-0.1
		c-0.4-0.3-0.7-0.5-1.1-0.7c-0.6-0.3-1.4-0.3-1.9,0.2c-0.1,0-0.1,0.1-0.2,0.1c0-0.2-0.1-0.4-0.1-0.5c-0.1-0.1-0.2-0.3-0.3-0.4
		l-0.3-0.2l-0.5-0.4c-0.2-0.2-0.4-0.3-0.6-0.5c0.1-1.2,0.2-2.4,0.5-3.6c0.2-0.7,0.4-1.3,0.6-1.9c0,0,0.1-0.1,0.1-0.2l0,0l0.4,0.4
		c0.9,1,1.8,2,2.4,3.2C119.8,72.9,120.2,74,120.3,75.2z M116.2,78.9c-0.1-0.1-0.2-0.2-0.3-0.3c-0.1-0.1-0.3-0.3-0.5-0.4
		c-0.3-0.3-0.7-0.5-1.1-0.6c-0.7-0.3-1.5-0.4-2.3-0.2c0.1-0.9,0.5-1.5,0.9-2.1l0.4-0.4l0.1-0.1c0,0,0,0,0.1,0c0,0,0.1-0.1,0.1-0.1
		c0.2-0.1,0.4,0,0.5,0.1c0.3,0.2,0.6,0.5,1,0.7c0.3,0.2,0.8,0.5,0.9,0.6c0.1,0.1,0.1,0.2,0.2,0.3l0.1,0.6c0,0.1,0.1,0.2,0.1,0.4
		C116.2,77.8,116.1,78.3,116.2,78.9z M111.8,76c0-0.1-0.1-0.2-0.1-0.4l-0.2-0.7c-0.1-0.3-0.3-0.6-0.6-0.8c-0.1-0.1-0.3-0.2-0.4-0.2
		c-0.2-0.1-0.3-0.1-0.4-0.1l-0.7-0.2c-0.5-0.1-0.9-0.2-1.4-0.3c-0.7-0.1-1.5,0.2-1.9,0.8c-0.1,0.1-0.1,0.2-0.1,0.3
		c-0.2-0.2-0.3-0.4-0.5-0.6c-0.3-1.1-0.3-2.2-0.2-3.2c0.1-0.3,0.1-0.7,0.2-1l0.1-0.2c0-0.1,0-0.1,0.1-0.2c0-0.1,0.1-0.2,0.2-0.3
		c0.3-0.4,0.8-0.6,1.3-0.5l2.1,0.4l1.1,0.2c0.4,0.1,0.6,0.1,0.9,0.2c0.2,0.1,0.4,0.3,0.6,0.6l1.3,2.5c0.3,0.4,0.5,0.8,0.8,1.2
		c-0.2,0-0.5,0.1-0.7,0.2c-0.1,0.1-0.3,0.2-0.4,0.3c-0.1,0.1-0.1,0.1-0.1,0.2l-0.1,0.1c-0.1,0.2-0.2,0.4-0.3,0.6
		C112,75.1,111.8,75.5,111.8,76z M112.1,77.3c0,0-0.1,0-0.1,0c-0.7,0.2-1.4,0.4-2.2,0.5c-0.7,0.1-1.5,0.1-2.2,0.2
		c-0.2,0-0.5,0-0.7,0.1c-0.2-0.8-0.2-1.5-0.1-2.3c0-0.2,0.1-0.4,0.1-0.7l0-0.2c0,0,0-0.1,0-0.1c0-0.1,0.1-0.1,0.1-0.2
		c0.2-0.2,0.4-0.3,0.7-0.2c0.4,0.1,0.9,0.2,1.4,0.3l0.7,0.1c0.3,0,0.4,0,0.5,0.1c0.1,0.1,0.3,0.2,0.4,0.3l0.4,0.6
		c0.2,0.3,0.5,0.6,0.7,0.9C111.9,77,112,77.2,112.1,77.3z M104.6,72.7c0,0,0,0.1,0.1,0.1c-0.1-0.1-0.3-0.3-0.4-0.4
		c-0.4-0.3-0.9-0.4-1.4-0.3c-0.8,0.1-1.5,0.2-2.3,0.3l-0.6,0.1l-0.3,0c-0.1,0-0.2,0-0.3,0.1c0,0,0,0-0.1,0c-0.2-0.2-0.3-0.4-0.5-0.7
		c-0.4-0.6-0.6-1.3-0.8-2c-0.2-0.7-0.4-1.4-0.5-2.1c-0.1-0.5-0.1-1.1-0.2-1.6c0.8-0.1,1.6-0.3,2.4-0.4c0.9-0.2,1.8-0.4,2.7-0.6
		c0.6,0.5,1.2,0.9,1.8,1.4c0.4,0.3,0.8,0.6,1.2,0.9c-0.2,0.2-0.4,0.4-0.6,0.6c-0.1,0.2-0.2,0.4-0.3,0.6c0,0.1-0.1,0.2-0.1,0.3l0,0.3
		c-0.1,0.4-0.1,0.8-0.1,1.1C104.3,71.2,104.4,71.9,104.6,72.7z M97.6,75.5c0.1,0.2,0.1,0.4,0.2,0.6c0.3,0.8,0.8,1.4,1.2,2.1
		c0.1,0.1,0.1,0.1,0.2,0.2c-0.1,0-0.3-0.1-0.4-0.1c-0.2,0-0.3-0.1-0.5-0.1c-0.2,0-0.3-0.1-0.5-0.1c-0.4,0-0.8,0.1-1.1,0.4
		c-0.2,0.1-0.3,0.2-0.5,0.4l-0.3,0.4c-0.4,0.5-0.8,0.9-1.2,1.4l-0.1,0.2c-1.2-1-3.8-2.9-4-3.4c-0.4-0.6-0.6-1.3-0.8-2
		c-0.2-0.7-0.4-1.4-0.5-2.1c-0.1-0.5-0.1-1.1-0.2-1.6c1-0.2,2.1-0.3,3.1-0.5c1.2-0.2,2.3-0.4,3.5-0.7c0.6,0.5,1.2,0.9,1.8,1.4
		c0.4,0.3,0.8,0.6,1.2,0.9c-0.2,0.1-0.4,0.3-0.6,0.5c-0.3,0.4-0.5,0.9-0.5,1.4C97.4,75,97.5,75.3,97.6,75.5z M93.6,83.4
		c-0.4,0.3-0.8,0.6-1.2,0.8c-0.4,0.3-0.9,0.4-1.4,0.6c-0.1,0-0.3,0.1-0.4,0.1c-0.1,0-0.2,0-0.3,0c-0.2,0-0.4,0-0.5-0.1
		c-0.3-0.1-0.6-0.4-0.7-0.8l-0.2-0.7c0,0,0,0,0-0.1l-0.3-0.8l-0.6-1.5c-0.2-0.4-0.2-0.8,0-1.2c0.7-0.8,1.3-1.6,1.9-2.5
		c0.1,0.1,0.2,0.2,0.3,0.3c0.4,0.5,3.1,2.3,4.5,3.1l-0.4,0.4c-0.1,0.1-0.2,0.3-0.3,0.5c-0.1,0.2-0.2,0.4-0.2,0.6
		C93.5,82.7,93.5,83.1,93.6,83.4z M86.9,81.5l0.5,1.6l0.1,0.2c-0.1,0-0.3-0.1-0.4-0.2c-0.6-0.3-1.2-0.6-1.7-1
		c-0.5-0.4-1.1-0.8-1.6-1.2c-0.1-0.1-0.3-0.2-0.4-0.3c-0.1-0.1-0.1-0.1-0.2-0.2c-0.1-0.2-0.1-0.4,0-0.5c0-0.1,0.3-0.5,0.4-0.8
		l0.5-0.9c0.3-0.6,0.7-1.2,1-1.8c0.1-0.1,0.1-0.2,0.2-0.3c0.1-0.1,0.2-0.1,0.3-0.2l0.9-0.4c0.5-0.3,1.1-0.5,1.6-0.8
		c0.1,0.4,0.3,0.8,0.4,1.1c0.2,0.6,0.6,1.1,0.9,1.6c-0.9,0.7-1.7,1.3-2.5,2.1l0,0l0,0.1C86.8,80.1,86.7,80.8,86.9,81.5z M77.8,79.9
		c-0.2-0.2-0.5-0.6-0.7-0.9c-0.4-0.5-0.8-1-1.4-1.5c0.6-0.3,1.2-0.5,1.8-0.8c0.9-0.4,1.7-0.9,2.5-1.4c0.8-0.5,1.7-1,2.4-1.7
		c-0.8,0.5-1.7,0.8-2.6,1.1l-2.7,1c-0.9,0.3-1.8,0.7-2.7,0.9c-0.2,0.1-0.4,0.1-0.6,0.2c0,0,0,0-0.1,0c0,0-0.1,0-0.1-0.1
		c-0.3-0.2-0.6-0.6-0.8-1c-0.3-0.4-0.5-0.8-0.7-1.1c-0.2-0.3-0.3-0.7-0.3-1.1c0-0.4,0.1-0.8,0.2-1.1c0.2-0.4,0.4-0.8,0.7-1.1
		c0.5-0.7,1.2-1.4,1.9-2c0.6-0.5,1.2-1,1.8-1.5c0,0,0,0,0.1,0c0,0.1,0,0.2,0.1,0.4c0,0.1,0.1,0.2,0.2,0.4c0,0.1,0.3,0.4,0.3,0.4
		c0.1,0.1,0.3,0.3,0.4,0.4c0.6,0.6,1.2,1.1,1.8,1.6c0.3,0.2,0.7,0.5,1,0.7c0.4,0.2,0.8,0.3,1.2,0.3c-0.8-0.2-1.3-0.9-1.8-1.4
		c-0.5-0.6-1-1.2-1.5-1.8c-0.1-0.2-0.3-0.3-0.4-0.5c-0.1-0.1,0,0-0.1-0.1c0,0,0-0.1,0-0.2c-0.1-0.3,0-0.7,0-1c0-0.4,0.1-0.8,0.1-1.1
		c0.1-0.4,0.1-0.8,0.2-1c0.1-0.2,0.2-0.4,0.5-0.5l1.1-0.6l2-1.1c0.3-0.1,0.6-0.1,0.8,0c0.1,0,0.3,0.1,0.4,0.2l0.5,0.4
		c0.5,0.4,2.6,2.1,3.7,3.1c-0.1,0-0.2,0-0.3,0l-0.6,0.1l-1.3,0.2l-0.6,0.1c-0.2,0-0.5,0.1-0.7,0.2c-1,0.4-1.8,1.2-2.1,2.1
		c-0.2,0.5-0.2,1-0.2,1.5c0,0.3,0.1,0.5,0.2,0.7c0.1,0.2,0.2,0.4,0.2,0.6c0.3,0.8,0.8,1.6,1.4,2.3c0.5,0.6,1.1,1.1,1.8,1.4
		c-0.1,0.1-0.2,0.2-0.3,0.3c-0.4,0.6-0.8,1.1-1.2,1.7l-0.6,0.9l-0.3,0.4c-0.5,0.2-0.9,0.3-1.4,0.5c-0.8,0.3-1.6,0.5-2.4,0.7
		C78.4,80,78.2,80,78,80c0,0-0.1,0-0.1,0c0,0,0,0,0,0L77.8,79.9z M70.8,73.8c-0.1,0-0.1-0.1-0.2-0.1c-0.4-0.3-0.8-0.7-1.2-1
		l-2.3-2.1c-0.4-0.4-0.8-0.7-1.2-1.1l-0.1-0.1l0,0l0,0c0,0,0,0,0,0c0,0-0.1-0.1-0.1-0.2c0-0.2-0.1-0.4-0.1-0.7
		c-0.1-0.9-0.1-1.8,0-2.7c0.8-0.5,1.5-0.9,2.2-1.4c0.6-0.4,1.3-0.9,1.9-1.4c0.1,0.4,0.3,0.7,0.5,1.1c0.1,0.1,0.1,0.2,0.2,0.3
		c0.1,0.1,0.2,0.2,0.3,0.3c0.2,0.1,0.3,0.3,0.5,0.4c0.6,0.5,1.3,0.9,1.9,1.3c0.7,0.4,1.3,0.8,2,1.1c0.3,0.2,0.7,0.3,1.1,0.4
		c0,0,0.1,0,0.1,0c-0.7,0.3-1.3,0.7-2,1.1c-0.8,0.5-1.6,1.1-2.3,1.9c-0.3,0.4-0.6,0.8-0.9,1.3c-0.3,0.5-0.4,1.1-0.4,1.6
		C70.8,73.7,70.8,73.7,70.8,73.8z M64.4,68.6c0,0.3,0.1,0.6,0.2,0.9c0,0.2,0.1,0.3,0.2,0.5c0,0,0,0.1,0.1,0.1
		c-0.3,0.3-0.6,0.7-0.8,1c-0.7-0.2-1.3-0.5-2-0.7c-0.7-0.3-1.4-0.6-2.1-0.9c-0.7-0.3-1.4-0.6-2-1c-0.2-0.1-0.2-0.2-0.2-0.2
		c0,0-0.1-0.2-0.1-0.3c0-0.3,0-0.7,0-1c0-0.4,0.1-0.7,0.2-1.1c0-0.2,0.1-0.4,0.1-0.5c0-0.1,0.1-0.2,0.2-0.4c0.1-0.2,0.5-0.5,0.8-0.8
		c0.3-0.3,0.6-0.5,0.8-0.8c0.9-0.9,1.7-1.8,2.5-2.7c0,0.1,0,0.3,0.1,0.4c0,0.2,0.1,0.4,0.2,0.6c0.1,0.1,0.1,0.2,0.2,0.4
		c0.1,0.2,0.2,0.2,0.3,0.3c0.3,0.2,0.7,0.4,1,0.5c0.7,0.3,1.4,0.5,2.1,0.7c0.4,0.1,0.8,0.2,1.3,0.2c-0.9,0.4-1.7,0.8-2.5,1.2
		L64.6,65l0,0.3C64.4,66.4,64.3,67.5,64.4,68.6z M58.3,87.8c-0.1,0.1-0.1,0.2-0.2,0.3c-0.2,0.3-0.5,0.6-0.7,0.9
		c-0.3,0.3-0.6,0.5-0.9,0.7c0,0,0,0-0.1,0l-0.2,0c-0.2,0-0.3,0-0.5,0c-0.3-0.1-0.7-0.2-1-0.3c-0.6-0.3-1.1-0.8-1.7-1.4
		c0.1-0.2,0.1-0.3,0.2-0.5c0.3-0.2,0.5-0.4,0.7-0.6c0,0,0.1-0.1,0.1-0.1c0.4-0.2,0.8-0.3,1.2-0.5l2-0.7c0.5-0.2,1-0.3,1.5-0.5
		c-0.1,0.1-0.1,0.3-0.2,0.4C58.4,86.2,58.3,87,58.3,87.8z M56.6,91c0.2,0,0.3-0.1,0.4-0.1c0.1,0,0.1-0.1,0.2-0.1
		c0.1,0,0.1-0.1,0.2-0.1c0.4,0.5,0.6,1,0.7,1.6c0.1,0.3,0.1,0.7,0.2,1c0,0.1,0,0.3,0,0.4c-0.4,0.2-1,0.3-1.6,0.3c-0.5,0-1,0-1.5-0.1
		c-0.2-0.1-0.3-0.1-0.4-0.2c-0.3-0.2-0.6-0.3-0.9-0.5c-0.5-0.4-0.9-1-1.1-1.6c-0.3-1-0.1-2.1,0.2-3.3c0.1,0.8,0.5,1.5,1.2,2.1
		c0.4,0.3,0.9,0.5,1.3,0.6c0.2,0,0.5,0.1,0.7,0.1C56.3,91,56.4,91,56.6,91z M56.4,89.7C56.4,89.7,56.4,89.7,56.4,89.7
		C56.4,89.7,56.4,89.7,56.4,89.7z M53.4,86.2c-0.5,0.4-1,0.7-1.6,0.9c-0.3,0.1-0.6,0.2-0.8,0.2c-0.1,0-0.3,0-0.3,0c0,0,0,0,0,0
		c-0.3-0.5-0.6-1-0.8-1.5c-0.2-0.5-0.3-1-0.3-1.6c0-0.1,0-0.2,0-0.3c0-0.8,0.3-1.7,0.6-2.5c0.2,0,0.4-0.1,0.5-0.1
		c1-0.2,1.9-0.6,2.7-1.2c0,0.1,0,0.2,0,0.2c0.1,0.4,0.3,0.8,0.6,1.2c0.3,0.4,0.5,0.7,0.8,1c0.3,0.3,0.7,0.6,1.1,0.9
		C55.2,84.5,54.4,85.5,53.4,86.2z M28.8,86.5c-0.1-0.2-0.2-0.5-0.2-0.7c-0.3-0.9-0.1-1.9,0.4-2.7l0,0c0.3-0.4,0.6-0.8,0.9-1.2
		c0.2-0.2,0.3-0.5,0.4-0.7c0.1,0,0.2,0,0.3,0c0.7,0,1.4,0,2.1-0.2c0.4-0.1,0.8-0.3,1.1-0.5c0.1,0.2,0.1,0.4,0.2,0.7
		c0.1,0.2,0.2,0.4,0.3,0.7c0.1,0.1,0.2,0.2,0.3,0.4c0.2,0.2,0.3,0.2,0.4,0.2c0.3,0.1,0.5,0.2,0.8,0.2c-0.2,1.2-0.2,2.4,0,3.6
		c0,0.1,0,0.2,0.1,0.3c-0.8,0.4-1.7,0.6-2.6,0.7c-1.1,0.1-2.1,0.1-3.2,0c-0.3,0-0.5-0.1-0.8-0.1c-0.2,0-0.6-0.2-0.4-0.1
		C29,87,28.9,86.8,28.8,86.5z M14.5,111.2c0-0.5-0.1-1-0.3-1.5c0.2,0.4,0.5,0.9,0.9,1.2c0.3,0.2,0.5,0.3,0.8,0.5
		c0.2,0.1,0.3,0.1,0.6,0.2c0.1,0,0.4,0,0.6-0.2c0.1-0.1,0.2-0.2,0.2-0.3c0.1-0.1,0.1-0.2,0.2-0.2c0,0.9,0.1,1.9,0.3,2.8
		c-0.2,0.5-0.4,0.9-0.6,1.3c-0.2,0.4-0.5,0.8-0.7,1.2c0,0,0,0,0,0c-0.2-0.1-0.4-0.2-0.6-0.3c-0.3-0.2-0.6-0.6-0.8-1l-0.1-0.3
		c0-0.1-0.1-0.2-0.1-0.3c-0.1-0.3-0.1-0.5-0.2-0.8c0-0.1-0.1-0.3-0.1-0.4C14.6,112.4,14.6,111.8,14.5,111.2z M17.7,108.1
		c-0.2,0.3-0.3,0.7-0.5,1c-0.2,0.4-0.5,0.8-0.7,1.2c0,0,0,0,0,0c-0.2-0.1-0.4-0.2-0.6-0.3c-0.3-0.2-0.6-0.6-0.8-1l-0.1-0.3
		c0-0.1-0.1-0.2-0.1-0.3c-0.1-0.3-0.1-0.5-0.2-0.8c-0.1-0.3-0.2-0.6-0.3-0.9c0,0,0,0,0-0.1c0.2-1.2,0.2-2.5-0.1-3.6
		c0.3-0.2,0.5-0.5,0.7-0.8c0,0.1-0.1,0.2-0.1,0.3c-0.1,0.1-0.1,0.3-0.1,0.5c0,0.2-0.1,0.3-0.1,0.5c-0.1,0.7,0,1.4,0.3,2.1
		c0.2,0.3,0.3,0.6,0.6,0.9c0.1,0.1,0.3,0.3,0.5,0.4c0.1,0.1,0.4,0.2,0.7,0.1c0.1,0,0.3-0.1,0.3-0.1c0.4-0.3,0.8-0.5,1.1-0.8
		C17.9,106.7,17.8,107.4,17.7,108.1z M14.6,101.2c-0.8,0.9-1.9,1.6-2.9,2c-0.1,0-0.1,0.1-0.2,0.1c0,0-0.1,0-0.1,0c0,0-0.1,0-0.2-0.1
		c-0.2-0.1-0.5-0.3-0.7-0.4c-0.1-0.1-0.2-0.2-0.4-0.3c-0.1-0.1-0.3-0.2-0.3-0.3c-0.1-0.1-0.3-0.4-0.4-0.6c-0.4-1.1-0.5-2.3-0.6-3.6
		l0,0c0-0.7,0-1.3,0-2c0-0.6-0.1-1.3-0.2-1.9c0,0,0,0,0,0c0-0.1,0.1-0.1,0.1-0.2c-0.1,0.4-0.1,0.9,0,1.3c0,0.2,0.1,0.4,0.2,0.6
		c0.1,0.2,0.2,0.4,0.3,0.5c0.2,0.3,0.3,0.5,0.5,0.8c0.2,0.3,0.4,0.5,0.7,0.8c0.1,0.1,0.3,0.3,0.5,0.4c0.1,0.1,0.2,0.1,0.4,0.2
		c0.1,0,0.2,0,0.3,0.1c1.3,0.3,2.7,0.2,3.9-0.2c0.3-0.1,0.7-0.2,1-0.4C16,99.3,15.4,100.4,14.6,101.2z M6.7,108.7
		C6.7,108.7,6.7,108.7,6.7,108.7c0,0,0.1,0.1,0.2,0.1c0.5,0.5,1,1,1.6,1.4c0.3,0.2,0.6,0.4,0.9,0.6c0.4,0.2,0.7,0.3,1,0.4
		c0.4,0.1,0.7,0.2,1.2,0.1c0.1,0,0.3-0.1,0.5-0.2c0.1-0.1,0.1-0.1,0.2-0.1l0.1-0.1c0.1-0.1,0.2-0.3,0.3-0.4c0.3-0.5,0.6-1,0.9-1.5
		c0.1,0.8,0.1,1.6,0.1,2.4c0,0.5-0.1,1.1-0.2,1.6c-0.1,0.5-0.2,1.1-0.4,1.6c-0.1,0.2-0.2,0.5-0.3,0.7c0,0,0,0.1,0,0.1
		c0,0-0.1,0-0.1,0c-0.2,0-0.5,0-0.7,0c-0.1,0-0.3,0-0.4,0c-0.1,0-0.2,0-0.3-0.1c-0.5-0.1-1-0.3-1.5-0.5c-0.5-0.2-0.9-0.5-1.2-0.8
		c-0.3-0.6-0.7-1.2-1.1-1.7c-0.2-0.4-0.5-0.7-0.7-1.1c0-0.1,0.1-0.3,0.1-0.4c0-0.2,0-0.4,0-0.7C6.9,109.5,6.8,109.1,6.7,108.7z
		 M13.5,106.3c-0.4,1.2-1,2.3-1.7,3.3c-0.1,0.1-0.2,0.2-0.3,0.3l-0.1,0c0,0,0,0,0,0c-0.1,0-0.4,0-0.7-0.1c-0.3-0.1-0.6-0.2-0.8-0.3
		c-0.2-0.1-0.5-0.3-0.8-0.4c-0.5-0.3-1-0.7-1.5-1.1c-0.4-0.4-0.9-0.9-1.1-1.3l0,0.1c-0.2-0.7-0.5-1.4-0.7-2
		c-0.2-0.4-0.3-0.8-0.5-1.2c0.1,0,0.2,0,0.3-0.1c0.2-0.1,0.3-0.2,0.4-0.3c0.4-0.4,0.7-0.7,1-1.1c0.3-0.4,0.5-0.8,0.7-1.2
		c0.1-0.1,0.1-0.3,0.2-0.5c0.1,0.6,0.1,1.2,0.4,1.8c0.1,0.3,0.3,0.7,0.6,1c0.2,0.2,0.3,0.3,0.4,0.4c0.1,0.1,0.3,0.2,0.4,0.3
		c0.3,0.2,0.6,0.4,1,0.6c0.2,0.1,0.4,0.2,0.8,0.1c0.2,0,0.3-0.1,0.4-0.1c0.1,0,0.2-0.1,0.3-0.1c0.7-0.3,1.4-0.8,2-1.3
		C14.1,104.2,13.9,105.3,13.5,106.3z M15.3,97.7c-1.1,0.2-2.4,0.1-3.5-0.2c-0.3,0-0.7-0.5-1-0.9c-0.2-0.2-0.3-0.5-0.5-0.7
		c-0.1-0.1-0.1-0.2-0.2-0.3c0-0.1-0.1-0.2-0.1-0.3c-0.1-0.5-0.1-1.1,0-1.6c0.1-0.6,0.2-1.2,0.4-1.8l0,0.1c0.2-0.5,0.4-1,0.6-1.6
		c0.1-0.2,0.1-0.4,0.2-0.6c0.3,0,0.6-0.1,0.9-0.2c0.5-0.1,1-0.3,1.4-0.5c0.4-0.2,0.8-0.4,1.1-0.7c-0.1,0.3-0.2,0.7-0.2,1
		c0,0.2,0,0.4,0,0.6c0,0.2,0.1,0.4,0.1,0.6c0.1,0.3,0.2,0.6,0.3,0.9c0.1,0.3,0.2,0.6,0.4,0.9c0.1,0.2,0.2,0.3,0.3,0.5
		c0.1,0.1,0.2,0.2,0.3,0.3c0.1,0.1,0.2,0.1,0.2,0.1C17,93.6,18,93.9,19,94c-0.3,0.5-0.7,1.1-0.9,1.3c-0.3,0.4-0.6,0.8-0.9,1.2l0,0
		c-0.1,0.2-0.2,0.5-0.3,0.7C16.4,97.4,15.8,97.6,15.3,97.7z M16.7,92c-0.3-0.1-0.5-0.6-0.7-1.2c-0.1-0.3-0.2-0.6-0.3-0.8
		c0-0.2-0.1-0.2-0.1-0.3c0-0.1,0-0.2,0-0.3c0-0.5,0.2-1,0.5-1.6c0.2-0.5,0.5-1.1,0.8-1.6l0,0.1c0.3-0.4,0.7-0.9,1-1.4
		c0.1-0.2,0.3-0.4,0.4-0.6c0,0,0,0,0.1,0c0.9-0.2,1.8-0.5,2.5-1.1c-0.2,0.4-0.3,0.9-0.4,1.4c0,0.2,0,0.4,0,0.6
		c0,0.2,0.1,0.4,0.1,0.6c0.1,0.3,0.2,0.6,0.3,0.9c0.1,0.3,0.2,0.6,0.4,0.9c0.1,0.2,0.2,0.3,0.3,0.5c0.1,0.1,0.2,0.2,0.3,0.3
		c0.1,0.1,0.2,0.1,0.2,0.1c0.7,0.4,1.5,0.6,2.3,0.8c-0.1,0.1-0.2,0.1-0.3,0.2c-0.4,0.3-0.8,0.6-1.1,1l0,0c-0.6,0.7-1,1.7-1,2.7
		c-0.7,0.2-1.4,0.2-2.1,0.1C18.9,93,17.7,92.6,16.7,92z M22.7,87.3c-0.3-0.1-0.5-0.6-0.7-1.2c-0.1-0.3-0.2-0.6-0.3-0.8
		c0-0.2-0.1-0.2-0.1-0.3c0-0.1,0-0.2,0-0.3c0-0.5,0.2-1,0.5-1.6c0.2-0.5,0.5-1.1,0.8-1.6l0,0.1c0.3-0.4,0.7-0.9,1-1.4
		c0.2-0.3,0.4-0.7,0.7-1.1c0.1,0,0.1,0,0.2,0c0.7-0.2,1.4-0.5,2-0.9c0,0.4,0.1,0.7,0.2,1c0.1,0.3,0.2,0.7,0.5,1.1
		c0.1,0.1,0.1,0.2,0.3,0.3c0.1,0.1,0.1,0.1,0.2,0.2l0.1,0.1c0.2,0.1,0.4,0.1,0.5,0.2c0.4,0.1,0.9,0.2,1.3,0.2
		c-0.1,0.1-0.3,0.2-0.4,0.3c-0.4,0.3-0.8,0.6-1.1,1l0,0c-0.8,0.9-1.2,2.4-0.8,3.6c0.1,0.3,0.1,0.6,0.2,0.9c0.1,0.3,0.2,0.6,0.5,0.9
		c0.1,0.1,0.2,0.2,0.3,0.3c-0.8,0.3-1.6,0.3-2.4,0.2C24.9,88.2,23.7,87.8,22.7,87.3z M36.3,71.7c0.1,0.6,0.1,1.3,0.2,1.9
		c-0.4,0.4-0.8,0.9-1.2,1.3c-0.3,0.3-0.5,0.6-0.8,1c-0.3,0.4-0.5,0.8-0.6,1.2c-0.3,0.9-0.4,1.8-0.2,2.7c0,0.1,0.1,0.2,0.1,0.4
		c-1,0.2-2,0.2-3,0c-0.6-0.1-1.2-0.3-1.8-0.5c-0.1,0-0.3-0.1-0.4-0.2l0,0c0,0,0,0,0-0.1c-0.1-0.2-0.2-0.5-0.3-0.7
		c-0.2-0.6-0.3-1.1-0.3-1.7c0-0.6,0.2-1.1,0.5-1.6c0.7-1.1,1.4-2.2,1.9-3.3c0.9,0,1.8,0,2.7-0.1c1-0.1,1.9-0.3,2.9-0.6
		c0.2-0.1,0.4-0.1,0.5-0.2c0,0,0,0-0.1,0.1l-0.1,0.2L36.3,71.7z M35.5,81.3c0,0-0.1,0-0.1,0c0,0,0,0-0.1-0.1
		c-0.1-0.1-0.2-0.3-0.2-0.4c-0.1-0.3-0.2-0.7-0.3-1.1c-0.2-0.7-0.2-1.5,0-2.2c0.2-0.7,0.6-1.4,1-2.1c0.3-0.5,0.5-0.9,0.8-1.4
		c0.1,0.5,0.2,1.1,0.4,1.6c0.1,0.3,0.2,0.6,0.5,1c0.1,0.2,0.3,0.4,0.5,0.5c0.3,0.2,0.5,0.2,0.7,0.2c0.7,0.1,1.3,0.1,1.9,0.1
		c0.6,0,1.2,0,1.9,0c0.5,0,0.9-0.2,1.3-0.5c-0.1,0.9,0,1.9,0.2,2.8c0.1,0.3,0.2,0.6,0.3,0.9c0,0.1,0.1,0.1,0.1,0.2
		c-1.3,0.7-2.7,1.1-4.1,1.1c-0.8,0-1.6,0-2.4-0.1C37,81.7,36.2,81.5,35.5,81.3z M46.6,66.7c0.1,0.3,0.1,0.5,0.4,0.9
		c0.3,0.3,0.6,0.3,0.8,0.4c0.5,0.1,0.9,0.2,1.3,0.2c1.6,0.1,3.3,0.1,4.9-0.1c-0.7,0.7-1.4,1.4-2.1,2.1l-0.1,0.1l0,0.2
		c0,0.8,0,1.6,0.1,2.5c-1.3,0.4-2.6,0.3-3.9,0.2c-0.6-0.1-1.1-0.2-1.7-0.3c0,0,0,0,0,0c0,0,0,0,0,0c-0.2,0-0.4-0.1-0.6-0.1l-0.5-0.1
		c-0.2,0-0.4-0.1-0.4-0.1c0,0-0.1-0.1-0.2-0.2c-0.1-0.1-0.1-0.3-0.2-0.5c-0.2-0.7-0.4-1.5-0.5-2.3c-0.1-0.3,0-0.6,0.1-0.8
		c0-0.1,0.1-0.1,0.1-0.2l0.2-0.2l0.3-0.5c0.7-1,1.3-2,1.9-3.1C46.5,65.4,46.5,66,46.6,66.7z M53.7,59c0,0.2,0.1,0.4,0.1,0.6
		c0.1,0.4,0.2,0.8,0.5,1.2c0.1,0.1,0.1,0.2,0.2,0.3c0,0.1,0.1,0.1,0.2,0.2c0.1,0.1,0.1,0.1,0.1,0.1c0.2,0.1,0.4,0.2,0.5,0.3
		c0.7,0.4,1.4,0.6,2.1,0.8c0.5,0.1,1,0.2,1.5,0.2c-0.3,0.2-0.6,0.5-0.9,0.7l-0.5,0.4c-0.1,0.1-0.4,0.3-0.5,0.5
		c-0.2,0.2-0.3,0.4-0.4,0.7c-0.1,0.3-0.1,0.5-0.2,0.7c0,0.1,0,0.3-0.1,0.4c-0.7,0.6-1.3,1.2-2,1.8c-0.1,0.1-0.3,0.3-0.4,0.4
		c-1.6-0.3-3.2-0.5-4.8-0.8c-0.4-0.1-0.8-0.2-1.2-0.3c-0.2-0.1-0.3-0.2-0.3-0.2c0.1,0.1,0-0.1,0-0.3c-0.1-0.7,0-1.6,0.1-2.4
		c0-0.4,0.1-0.8,0.1-1.2l0.1-0.6c0-0.2,0.1-0.3,0.1-0.4c0.1-0.1,0.1-0.3,0.2-0.4c0.1-0.1,0.2-0.2,0.4-0.3c0.4-0.2,0.7-0.5,1-0.7
		c1.3-0.9,2.5-1.9,3.7-3c0.1,0,0.1,0,0.2,0c-0.1,0.3-0.1,0.7-0.1,1C53.6,58.7,53.6,58.8,53.7,59z M67.8,52.5
		c0.1,0.4,0.2,0.8,0.4,1.2c0,0.1,0.1,0.2,0.1,0.3c-1.1,0.4-2.2,0.9-3.2,1.5c-0.3,0.2-0.6,0.3-0.9,0.5l-0.5,0.3l-0.2,0.1
		c-0.1,0.1-0.2,0.1-0.3,0.2c-0.4,0.3-0.7,0.7-0.8,1.1c-0.1,0.2-0.1,0.4-0.2,0.7l0,0.6c0,0.5,0,1,0,1.5c-1,0.7-2,1.4-2.9,2.1
		c-0.5-0.2-1-0.4-1.5-0.6c-0.6-0.3-1.3-0.7-1.8-1.1c-0.1-0.1-0.3-0.2-0.4-0.3c0,0-0.1-0.1-0.1-0.1c0,0,0,0,0,0c0,0-0.1-0.1-0.1-0.1
		C55.1,60,55,59.6,55,59.3l-0.1-0.5c0-0.2-0.1-0.4-0.1-0.5c0-0.2,0-0.5,0.2-0.7c0.1-0.1,0.1-0.2,0.2-0.3c0,0,0.1-0.1,0.1-0.1
		l0.1-0.1l0.1-0.1c0.3-0.2,0.6-0.4,0.9-0.6c0.6-0.4,1.2-0.8,1.8-1.3c1.1-0.8,2.1-1.6,3.1-2.5c0.3,0,0.6,0,1,0c1,0,2.1-0.2,3.1-0.3
		l1.5-0.2c0.2,0,0.5-0.1,0.7-0.1c0,0,0,0.1,0,0.1C67.7,52.3,67.7,52.3,67.8,52.5z M96,65.6c0,0.8,0.1,1.6,0.2,2.4
		c0.2,0.8,0.4,1.5,0.7,2.2c0.2,0.4,0.4,0.8,0.7,1.2c-0.5-0.6-1.1-1.1-1.6-1.7l-0.1-0.1l-0.2,0c-1.1,0.1-2.1,0.2-3.2,0.4
		c-0.5-0.6-1-1.2-1.6-1.7c-0.2-0.4-0.4-0.8-0.6-1.2c-0.2-0.6-0.4-1.2-0.6-1.8c-0.1-0.3-0.1-0.6-0.2-0.9c-0.1-0.3-0.1-0.5,0-0.7
		c0.1-0.4,0.4-0.7,0.8-0.8c0.6-0.1,1.3-0.2,1.9-0.3c0.6-0.1,1.3-0.2,1.9-0.3c0.6-0.1,1.1-0.2,1.7-0.3c0.5,0.5,1.1,1,1.7,1.5
		c0.1,0.1,0.3,0.2,0.4,0.3c0,0,0,0,0.1,0.1c0,0,0,0,0,0c0.3,0.3,0.7,0.6,1,0.8c-0.8,0.1-1.6,0.2-2.4,0.4L96,65.1L96,65.6z
		 M87.8,71.2c0,0.8,0.1,1.6,0.2,2.4c0.1,0.3,0.2,0.7,0.3,1c-0.6,0.1-1.2,0.2-1.8,0.3l-1,0.2c-0.1,0-0.4,0.1-0.6,0.2
		c-0.1,0-0.1,0.1-0.2,0.1c-1.2-1.1-1.8-2.5-2.3-4c-0.1-0.2-0.1-0.4-0.2-0.6c0-0.2-0.1-0.3-0.1-0.5c0-0.4,0.1-0.7,0.2-1
		c0.3-0.6,0.8-1.2,1.4-1.4c0.2-0.1,0.3-0.1,0.5-0.1l0.6-0.1l1.3-0.2l0.6-0.1c0.2,0,0.4-0.1,0.6-0.1c0.3,0,0.7,0,1,0.1
		c0.4,0.1,0.6,0.3,1,0.5l1,0.8c0,0,0,0,0.1,0c0.5,0.5,1.1,1,1.7,1.3c-0.1,0-0.2,0-0.3,0c-1.2,0.1-2.4,0.3-3.7,0.5l-0.5,0.1
		L87.8,71.2z M98,63c-0.3-0.3-0.5-0.7-0.8-1c-0.1-0.4-0.2-0.8-0.3-1.2c-0.1-0.5-0.1-1-0.1-1.6c0-0.3,0-0.5,0-0.8l0-0.4l0-0.2
		c0,0,0-0.1,0-0.1c0.1-0.2,0.4-0.4,0.6-0.3c0.5,0.1,1.1,0.3,1.6,0.4c1,0.3,2,0.5,3.1,0.7c0.4,0.6,3.9,2.3,4.3,2.8
		c0.2,0.3,0.5,0.6,0.7,0.9c0.4,1.5,1.2,3.7,1.9,5c-0.6-0.1-1.2-0.3-1.8-0.4c-0.6-0.1-1.2,0-1.8,0.3c-0.3-0.4-0.7-0.8-1-1.2
		c-0.6-0.6-1.1-1.2-1.7-1.8l-0.1-0.1l-0.2,0c-1,0.1-2,0.2-2.9,0.3c-0.1,0-0.2,0-0.3,0C98.8,64.1,98.4,63.5,98,63z M97.8,56.3
		c-0.8-0.2-1.8,0.3-2,1.2c0,0.1,0,0.2-0.1,0.3l0,0.2l0,0.4c0,0.3,0,0.6,0,0.9c0.1,0.6,0.2,1.1,0.3,1.6l-0.1,0
		c-0.6,0.1-1.3,0.1-1.9,0.2c-0.5,0.1-1,0.1-1.5,0.2c-0.7-0.9-1.2-1.9-1.4-3c-0.1-0.7-0.2-1.5-0.2-2.2c0-0.1,0-0.1,0-0.2
		c0,0,0-0.1,0-0.1c0-0.1,0.1-0.1,0.2-0.2c0.1,0,0.1-0.1,0.3-0.1l0.6-0.1l2.3-0.3l1.2-0.2l0.6-0.1l0.5-0.1c0.1,0,0.2,0,0.3,0.1
		c0.1,0,0.1,0.1,0.1,0.1l0.2,0.2l0.9,0.8c0.2,0.2,0.5,0.4,0.7,0.6C98.6,56.5,98.2,56.4,97.8,56.3z M92.1,61.4
		C92.1,61.4,92.1,61.4,92.1,61.4c-0.7,0.1-1.3,0.2-1.9,0.3c-0.9,0.1-1.6,0.9-1.8,1.8c0,0.2,0,0.4,0,0.7c0,0.2,0.1,0.4,0.1,0.6
		c0.1,0.3,0.2,0.6,0.3,1c0.1,0.3,0.3,0.7,0.4,1c-0.1-0.1-0.2-0.1-0.3-0.2c-0.5-0.2-1-0.3-1.5-0.3c-0.1,0-0.2,0-0.2,0
		c-0.9-0.9-2.7-2.6-3-2.9c0-0.2,0-0.3,0-0.5c0-0.2,0-0.5,0.1-0.7c0-0.5,0.1-1,0.2-1.5c0-0.2,0.1-0.5,0.1-0.7c0-0.2,0.1-0.4,0.2-0.6
		c0.2-0.4,0.4-0.7,0.8-0.9c0.2-0.1,0.3-0.2,0.5-0.3c0.1,0,0.2-0.1,0.3-0.1l0.4-0.1c0.5-0.1,1-0.2,1.5-0.4c0.2-0.1,0.5-0.1,0.7-0.2
		c0.2-0.1,0.3-0.1,0.5,0c0.2,0.1,0.5,0.1,0.7,0.2c0.1,0.4,0.2,0.7,0.3,1.1C90.6,59.7,91.2,60.7,92.1,61.4z M88.6,56.5
		c-0.3,0-0.5,0-0.8,0.1c-0.5,0-1,0.1-1.5,0.2l-0.4,0.1c-0.2,0-0.3,0.1-0.5,0.1c-0.3,0.1-0.6,0.2-0.8,0.4c-0.5,0.4-0.9,0.9-1.1,1.5
		c-0.1,0.3-0.2,0.6-0.2,0.9c0,0.3,0,0.5,0,0.8c0,0.5,0.1,1,0.2,1.6c0.1,0.2,0.1,0.5,0.2,0.7c0,0-0.1-0.1-0.1-0.1l-0.4-0.5
		c-0.1-0.2-0.3-0.3-0.6-0.5c-0.4-0.2-0.9-0.3-1.4-0.2c0,0,0,0-0.1-0.1c-0.3-0.3-0.6-0.6-0.9-1c-0.6-0.7-1.2-1.4-1.8-2.1
		c-0.4-0.5-0.6-1.6-0.8-2.3c-0.1-0.3,0-0.6,0.2-0.8c0.1-0.1,0.2-0.2,0.3-0.3l0.6-0.3c0.8-0.4,1.7-0.8,2.5-1.3l0.6-0.3l0.3-0.2
		l0.2-0.1c0,0,0.1,0,0.1-0.1c0.3-0.1,0.7-0.1,1,0c0.1,0.1,0.4,0.2,0.6,0.3l0.6,0.4l1.2,0.7c0.5,0.3,0.9,0.6,1.4,0.8
		c0.1,0.2,0.2,0.3,0.4,0.5C87.9,55.9,88.3,56.2,88.6,56.5C88.6,56.5,88.6,56.5,88.6,56.5z M76.5,67.6c-0.4-0.2-0.7-0.5-1.1-0.7
		c-0.6-0.4-1.2-0.9-1.8-1.4c-0.6-0.5-1.2-0.9-1.7-1.4c-0.1-0.1-0.3-0.2-0.4-0.4c-0.1-0.1-0.1-0.1-0.1-0.1c0,0-0.1-0.1-0.1-0.2
		c-0.1-0.3-0.3-0.6-0.4-1c-0.1-0.3-0.2-0.7-0.3-1c-0.1-0.2,0-0.5,0-0.7c0.1-0.2,0.2-0.4,0.5-0.5l1-0.5c1.3-0.6,2.5-1.3,3.8-2
		c1,0.8,2,1.7,3,2.5c-0.1-0.1-0.2-0.3-0.3-0.4l0.3,0.3c0.3,0.3,0.7,0.6,1.1,0.9c0.3,0.3,0.7,0.5,1,0.7c0,0,0,0,0,0l-0.3,0.1
		l-0.5,0.2L79,62.6l-1.1,0.5c-0.5,0.2-0.9,0.6-1.1,1.2c-0.1,0.3-0.1,0.6-0.2,0.7l-0.1,0.6c0,0.4-0.1,0.8-0.1,1.2
		C76.5,67.1,76.5,67.3,76.5,67.6z M78.4,53.6c-0.2,0.1-0.4,0.2-0.7,0.3c-0.3,0.1-0.5,0.4-0.7,0.6c-0.4,0.5-0.5,1.2-0.4,1.8
		c0,0.2,0.1,0.3,0.1,0.4l0.1,0.3c0.1,0.2,0.2,0.5,0.3,0.7c0.1,0.2,0.1,0.3,0.2,0.5c-0.4-0.4-0.7-0.9-1.1-1.3L76,56.7l-0.3,0.1
		c-1,0.4-2,0.8-3,1.3c-0.3-0.3-0.6-0.6-0.9-0.9c-0.6-0.6-1.1-1.3-1.6-1.9l-0.2-0.3c0,0-0.1-0.1-0.1-0.1c0,0,0,0,0-0.1
		c-0.1-0.1-0.2-0.3-0.2-0.5c-0.1-0.3-0.3-0.7-0.4-1.1c-0.1-0.4-0.2-0.8-0.3-1.2c-0.1-0.3,0-0.2,0-0.2c0,0,0,0,0,0l0,0c0,0,0,0,0,0
		l0.1,0c1.6-0.6,3.1-1.2,4.7-1.8l0.6-0.2l0.3-0.1c0,0,0,0,0.1,0l1.3,0c0.8,0,1.5,0,2.3,0c0.1,0.5,0.2,0.9,0.5,1.3
		c0.4,0.7,1,1.3,1.7,1.6C79.7,53,79,53.3,78.4,53.6z M69.1,55.5c0,0.1,0.1,0.1,0.2,0.2c0.1,0.1,0.1,0.1,0.1,0.1l0.2,0.2
		c0.6,0.6,1.2,1.2,1.9,1.7c0.3,0.2,0.6,0.4,0.9,0.6c-0.3,0.1-0.5,0.2-0.8,0.4l-1,0.5c-0.5,0.2-0.8,0.6-1,1.1c-0.2,0.5-0.2,1-0.1,1.5
		c0.1,0.3,0.2,0.6,0.3,0.9c-0.7,0.3-1.3,0.5-2,0.8c-0.5-0.2-1-0.4-1.5-0.6c-0.6-0.3-1.2-0.6-1.8-1c-0.3-0.2-0.6-0.4-0.8-0.5
		c-0.1,0-0.1-0.1-0.1-0.1c0,0,0,0,0-0.1c0-0.1-0.1-0.2-0.1-0.4c-0.1-0.6-0.1-1.3-0.1-2l0-0.5c0-0.1,0-0.2,0.1-0.4
		c0.1-0.2,0.2-0.4,0.4-0.6c0,0,0.1-0.1,0.1-0.1l0.2-0.1l0.4-0.3c0.3-0.2,0.6-0.4,0.9-0.6c1-0.7,1.9-1.4,2.8-2.1
		c0.1,0.2,0.2,0.5,0.3,0.7C68.8,55.1,68.9,55.3,69.1,55.5z M43.8,67.3l-0.4,0.5L43.2,68c-0.1,0.1-0.2,0.2-0.2,0.3
		c-0.3,0.5-0.4,1-0.3,1.5c0.1,0.8,0.3,1.6,0.5,2.5c0.1,0.2,0.2,0.4,0.3,0.6c0.1,0.2,0.2,0.5,0.6,0.7c0.3,0.2,0.5,0.2,0.7,0.3
		c0.2,0.1,0.4,0.1,0.6,0.1c0,0,0,0,0.1,0c-0.5,0.6-1.1,1.1-1.7,1.6c-0.4,0.4-0.9,0.6-1.4,0.6l-1.8-0.1c-0.6-0.1-1.2-0.1-1.8-0.2
		c-0.3-0.1-0.2,0-0.3-0.2c-0.1-0.2-0.2-0.4-0.3-0.7c-0.4-1-0.6-2.2-0.8-3.4c0.6-1,1.2-2,1.8-3c0.6-1,1.2-2.1,1.7-3.2
		c1.6-0.1,3.3-0.3,4.9-0.6C45.1,65.8,44.4,66.5,43.8,67.3z M42.8,82.1c0.6-0.3,1.2-0.7,1.6-1.2c0,0,0.1,0.1,0.1,0.1
		c0.1,0.1,0.1,0.2,0.3,0.3c0.1,0,0.1,0.1,0.2,0.1l0.2,0.1c0.4,0.1,0.7,0.2,1,0.2c0.3,0,0.6,0,0.9,0c0.6,0,1.2,0,1.9-0.1
		c0,0.2,0,0.5,0,0.7c-0.3,0.5-0.4,1.1-0.5,1.6c-0.1,0.5,0,1,0,1.4c-0.2,0.6-0.5,1.2-0.8,1.7c-0.2,0.3-0.4,0.5-0.6,0.7
		c-0.1,0.1-0.2,0.2-0.3,0.2c0,0,0,0-0.1,0c-0.6-0.2-1.2-0.5-1.7-0.9c-0.5-0.4-1-0.8-1.4-1.4c-0.7-1-1-2.2-1.2-3.5
		C42.5,82.2,42.6,82.2,42.8,82.1z M47.4,93.3c0-0.1,0-0.2,0.1-0.3l0,0c0,0,0.1,0.1,0.1,0.1c0.1,0.1,0.2,0.1,0.2,0.1
		c0.1,0.1,0.2,0.1,0.3,0.1c0.2,0,0.3,0,0.5,0c0.3-0.1,0.5-0.2,0.8-0.3c0.5-0.2,0.9-0.6,1.2-0.9c0.3-0.4,0.6-0.8,0.8-1.2
		c0,0.2,0,0.5,0,0.7c0.1,0.7,0.4,1.4,0.8,2c0,0.5-0.1,1-0.3,1.4c-0.2,0.4-0.4,0.7-0.7,1c-0.2,0.1-0.3,0.3-0.5,0.4
		c-0.2,0.1-0.4,0.2-0.3,0.1c-0.9-0.1-1.7-0.3-2.4-0.8c-0.5-0.4-0.9-0.9-1.2-1.4C47.2,94.1,47.3,93.7,47.4,93.3z M48.3,92.2
		C48.3,92.2,48.3,92.2,48.3,92.2C48.3,92.2,48.3,92.2,48.3,92.2C48.3,92.2,48.3,92.2,48.3,92.2z M52,89c-0.1,0.3-0.2,0.6-0.3,0.9
		c-0.5,0.6-1,1.1-1.6,1.5c-0.3,0.2-0.7,0.4-1.1,0.6c-0.2,0.1-0.4,0.1-0.5,0.1c0,0-0.1,0-0.1,0c-0.4-0.6-0.7-1.3-0.7-2.1
		c0-0.5,0.1-1,0.2-1.5c0.3-0.3,0.5-0.6,0.7-1c0.1-0.2,0.3-0.5,0.4-0.8c0.2,0.4,0.5,0.8,0.7,1.2c0,0,0,0,0.1,0.1c0,0,0.1,0.1,0.1,0.1
		c0.1,0.1,0.2,0.1,0.2,0.1c0.2,0.1,0.3,0.1,0.4,0.1c0.2,0,0.4,0,0.6,0c0.4-0.1,0.7-0.2,1.1-0.4c0.1,0,0.2-0.1,0.3-0.1
		C52.3,88.3,52.1,88.7,52,89z M53.5,77.8c-0.1,0.4-0.2,0.7-0.3,1.2c0,0.3,0,0.6,0.1,0.9c-0.9,0.3-1.8,0.5-2.8,0.6c0,0,0,0,0,0
		c-1.1,0.1-2.3,0.1-3.4,0.1c-0.3,0-0.6,0-0.8-0.1c-0.3,0-0.6-0.1-0.7-0.1l0,0c0,0,0,0,0,0c0-0.1-0.1-0.2-0.1-0.3
		c-0.1-0.2-0.2-0.5-0.3-0.7c-0.3-0.9-0.6-1.8-1-2.7c0.1-0.1,0.2-0.2,0.3-0.3c0.6-0.6,1.1-1.4,1.5-2.1c0.7,0.1,1.4,0.2,2.1,0.1
		c0.8,0,1.7-0.1,2.5-0.3c0.5-0.1,1-0.3,1.5-0.6c0,0.2,0.1,0.5,0.1,0.7c0.1,0.3,0.1,0.6,0.3,0.9c0.1,0.2,0.1,0.3,0.3,0.5
		c0.1,0.1,0.1,0.2,0.3,0.3l0.1,0.1l0.1,0c0,0,0.1,0,0.1,0.1c0.3,0.2,0.6,0.3,0.9,0.4C53.8,76.8,53.6,77.3,53.5,77.8z M53.6,74.8
		c-0.1,0-0.3-0.5-0.4-1c-0.2-0.9-0.3-2-0.4-3c0.7-0.8,1.5-1.7,2.2-2.6c0.5-0.6,0.9-1.2,1.4-1.8c0,0.1,0,0.2-0.1,0.3
		c0,0.4-0.1,0.8,0,1.3c0,0.2,0.1,0.5,0.3,0.8c0.1,0.1,0.2,0.3,0.3,0.4c0.1,0.1,0.2,0.2,0.3,0.2c0.8,0.4,1.5,0.7,2.3,0.9
		c0.8,0.2,1.5,0.4,2.3,0.6c0.7,0.1,1.4,0.2,2.1,0.2c-0.8,1-1.5,2-2.2,3l-0.4,0.6l-0.1,0.2c-0.1,0.1-0.1,0.2-0.1,0.2
		c-0.1,0.2-0.1,0.3-0.1,0.5c0,0,0,0.1,0,0.1c-0.9,0.3-1.8,0.3-2.7,0.2c-1.1-0.1-2.1-0.3-3.1-0.6C54.6,75.2,54,75,53.6,74.8z
		 M116.7,68C116.7,68,116.7,68,116.7,68C116.7,68,116.7,68,116.7,68z M113,63.5c0.3,0.2,0.7,0.3,1,0.5c1.2,0.8,2.3,1.8,3.3,2.9
		c0.4,0.5,0.7,1,1.1,1.5c-0.2-0.2-0.4-0.4-0.6-0.6l-0.4-0.4l-0.2-0.2l-0.1-0.1l-0.1-0.1c0,0-0.1-0.1-0.2-0.1
		c-0.1-0.1-0.3-0.1-0.5-0.1c-0.2,0-0.3,0.1-0.4,0.2c-0.2,0.1-0.2,0.3-0.3,0.4c-0.1,0.2-0.2,0.4-0.2,0.5c-0.3,0.7-0.4,1.4-0.5,2.2
		c-0.1,1.2,0,2.4,0.2,3.5c-0.1-0.1-0.1-0.1-0.2-0.2c-0.3-0.2-0.6-0.3-0.9-0.3c-0.2-0.5-0.3-1-0.5-1.4l-1.1-2.6
		c-0.1-0.4-0.4-0.8-0.8-1c-0.1-0.3-0.2-0.6-0.2-0.9c0-0.7,0.2-1.4,0.4-2.2c0.2-0.6,0.5-1.3,0.8-1.9L113,63.5z M112.3,62.1
		C112.3,62.1,112.3,62.1,112.3,62.1c-0.4,0.2-0.5,0.4-0.5,0.5c-0.3,0.8-0.5,1.5-0.7,2.3c-0.2,0.8-0.3,1.6-0.1,2.5
		c0,0.2,0.1,0.4,0.2,0.5c0,0-0.1,0-0.1,0c-0.2-0.1-0.4-0.1-0.6-0.2l-1-0.3c0,0-0.1,0-0.1,0c-0.5-1.7-1.3-4.6-1.4-5.9
		c-0.1-0.7,0-1.4,0-2l0,0c0.3,0.2,0.7,0.3,1,0.5C110.1,60.6,111.3,61.3,112.3,62.1z M107.5,57.1c0.8,0.5,1.3,1.1,1.9,1.8
		c-0.4-0.2-0.7-0.3-1.1-0.5l-0.3-0.1l-0.1-0.1c-0.1,0-0.2-0.1-0.4,0c-0.2,0-0.4,0.2-0.5,0.3c-0.1,0.1-0.1,0.2-0.2,0.3
		c-0.1,0.2-0.1,0.3-0.1,0.4c-0.1,0.6,0,1.2,0.1,1.8c-0.7-0.7-3.6-2.3-3.9-2.8c-0.1-0.3-0.2-0.6-0.3-0.8c-0.2-0.8-0.3-1.5-0.2-2.2
		c0-0.1,0-0.2,0-0.3l0.8,0.3C104.8,55.6,106.2,56.3,107.5,57.1z M102.6,54.4C102.6,54.4,102.6,54.4,102.6,54.4
		C102.6,54.4,102.6,54.4,102.6,54.4z M96.7,50.5c0-0.2,0.1-0.3,0.1-0.5c0,0,0,0,0-0.1c0.1,0.1,0.4,0.2,0.6,0.2
		c0.3,0.1,0.7,0.3,1,0.4c1.3,0.6,2.6,1.2,3.8,2c0.8,0.5,1.5,1,2.2,1.6c-0.2-0.1-0.5-0.2-0.7-0.3c-0.4-0.1-0.8-0.2-1.2-0.4
		c-0.1,0-0.2-0.1-0.5,0c-0.2,0.1-0.4,0.2-0.5,0.4c-0.1,0.3-0.1,0.4-0.1,0.5c0,0.2,0,0.4,0,0.7c0,0.9,0.2,1.7,0.5,2.5
		c-0.8-0.3-1.6-0.5-2.4-0.7c-0.3-0.4-0.6-0.8-0.9-1.2l-0.7-0.9l-0.2-0.2c-0.1-0.1-0.2-0.2-0.3-0.3c-0.1,0-0.1-0.1-0.2-0.1
		c-0.4-0.8-0.6-1.7-0.6-2.6C96.6,51.1,96.6,50.8,96.7,50.5z M96.6,53.9c-0.1,0-0.1,0-0.2,0l-0.1,0l-0.3,0l-0.6,0L94.3,54l-2.3,0.2
		l-0.6,0.1c-0.2,0-0.6,0.1-0.8,0.3c-0.3,0.2-0.5,0.4-0.6,0.7c-0.1,0.1-0.1,0.3-0.1,0.4c0,0.1,0,0.3,0,0.4c0,0.3,0,0.5,0.1,0.8
		c-0.6-0.5-1.2-1.2-1.6-1.8c-0.3-0.5-0.6-1-0.8-1.6c-0.1-0.3-0.2-0.6-0.3-0.8c0-0.1,0-0.3,0.1-0.4c0.1-0.1,0.2-0.2,0.3-0.2l0.9-0.2
		c0.6-0.1,1.2-0.2,1.8-0.4c1.1-0.2,2.2-0.5,3.4-0.8c0.5,0.5,1.1,1.1,1.6,1.6c0.3,0.3,0.7,0.6,1,1C96.4,53.5,96.5,53.7,96.6,53.9z
		 M94.7,48.8c0.4,0.2,0.9,0.3,1.3,0.5c0,0,0,0,0,0.1c-0.1,0.2-0.1,0.3-0.1,0.4c-0.1,0.2-0.1,0.4-0.1,0.6c0,0.4,0,0.8,0,1.2
		c0,0.2,0.1,0.3,0.1,0.5c0,0,0,0,0-0.1c-0.5-0.7-1-1.4-1.6-2.1L94,49.7l-0.3,0c-1.2,0.2-2.4,0.4-3.6,0.6c-0.3-0.2-0.5-0.4-0.7-0.7
		c-0.4-0.5-0.7-1.1-0.8-1.7c0-0.1,0-0.3-0.1-0.5c0,0,0-0.1,0-0.1l0.3,0c0.3,0,0.7,0.1,1,0.1c0.3,0,0.7,0.1,1,0.2
		C92.1,48,93.4,48.3,94.7,48.8z M84.8,45c1.5,0.2,3,0.6,4.5,1.1c0.2,0.1,0.5,0.2,0.7,0.2c-0.3,0-0.7-0.1-1-0.1l-0.5,0
		c-0.4,0-0.9,0.3-0.9,0.7c0,0.1,0,0.2,0,0.3l0,0.2c0,0.1,0,0.2,0,0.3c0,0.2,0.1,0.4,0.1,0.6c0.2,0.7,0.7,1.4,1.3,1.9
		c0.2,0.1,0.4,0.2,0.6,0.3c-0.4,0.1-0.8,0.2-1.3,0.2l-0.9,0.2c-0.2,0-0.4,0.1-0.6,0.3c-0.7-1.3-1.5-2.6-2.1-3.9
		c-0.3-0.7-0.6-1.4-0.8-2.1c0,0,0-0.1,0-0.1C84.1,45,84.4,45,84.8,45z M88.5,47.2C88.5,47.2,88.5,47.2,88.5,47.2L88.5,47.2
		C88.5,47.2,88.5,47.2,88.5,47.2z M83.8,44.6C83.8,44.6,83.8,44.6,83.8,44.6C83.8,44.6,83.8,44.6,83.8,44.6z M83.7,47.3
		c0.1,0.1,0.1,0.2,0.2,0.3c0.8,1.3,1.8,2.5,2.8,3.6c-0.2,0.1-0.4,0.3-0.5,0.5c-0.2,0.4-0.3,0.9-0.1,1.4c0.1,0.3,0.3,0.6,0.4,0.9
		c0.1,0.2,0.2,0.3,0.3,0.5c-0.2-0.2-0.5-0.4-0.7-0.6L85.1,53l-0.5-0.4c-0.2-0.2-0.3-0.3-0.6-0.5c-0.5-0.3-1.1-0.4-1.7-0.2
		c-0.1,0-0.1,0-0.2,0.1L81.8,52l-0.3,0.1l-0.6,0.3c-0.1,0-0.1,0.1-0.2,0.1c-0.5-0.6-0.9-1.2-1.1-1.9c-0.1-0.4-0.2-0.8-0.2-1.2
		c0-0.2,0-0.4,0-0.6l0-0.3l0-0.2c0-0.1,0,0,0,0c0,0,0,0,0,0l0,0l0.1,0l0.2,0l0.3,0c0.5-0.1,0.9-0.1,1.4-0.2
		C82.1,47.8,82.9,47.6,83.7,47.3z M75.4,44.5c1.5-0.2,2.9-0.4,4.4-0.3c0.9,0,1.9,0.1,2.9,0.2c0,0.1-0.1,0.2-0.1,0.3
		c0,0.2,0,0.2,0,0.2l0,0.2c0,0.1,0,0.2,0.1,0.3c0.2,0.7,0.5,1.2,0.8,1.8C82.8,47,82,47,81.2,47c-0.5,0-0.9,0-1.4,0l-0.3,0l-0.2,0
		l-0.1,0c-0.1,0-0.1,0-0.2,0c-0.3,0.1-0.6,0.3-0.8,0.6c-0.9-0.8-1.8-1.5-2.7-2.2c-0.3-0.2-0.6-0.4-1-0.7c-0.1,0-0.1-0.1-0.2-0.1
		C74.7,44.6,75,44.6,75.4,44.5z M73.8,44.4L73.8,44.4C73.7,44.3,73.8,44.4,73.8,44.4z M65.5,46c0.1,0,0.1,0,0.2,0l1.2-0.1l2.5-0.2
		c1.2-0.1,2.5-0.2,3.7-0.4c0.1,0,0.1,0.1,0.1,0.1l0.2,0.1l0.5,0.3c0.3,0.2,0.7,0.3,1,0.5l3.1,1.7c0,0,0,0,0,0c0,0.1,0,0.3,0,0.3
		l0,0.2c0,0.1,0,0.3,0,0.4c0,0.3,0,0.5,0.1,0.8c0,0,0,0,0,0c-0.7-0.2-1.4-0.4-2.2-0.5l-1.2-0.2c-0.1,0-0.3,0-0.5,0L74,49l-0.6,0.2
		c-0.3,0.1-0.6,0.2-0.9,0.3c-1.5-0.4-2.9-0.7-4.3-1.4c-0.8-0.3-1.5-0.7-2.1-1.2c-0.3-0.2-0.6-0.5-0.9-0.8c0,0,0,0,0,0
		C65.3,46,65.4,46,65.5,46z M57.3,49.5c0.8-0.5,1.7-1,2.6-1.5c1.3-0.6,2.7-1.2,4.1-1.6c0.1,0.2,0.3,0.3,0.4,0.5
		c0.3,0.3,0.7,0.6,1.1,0.9c0.7,0.5,1.6,0.9,2.4,1.1c1.4,0.4,2.8,0.6,4.2,0.7c-1.2,0.4-2.3,0.8-3.5,1.2l-0.1,0c0,0-0.1,0-0.1,0.1
		c-0.1,0-0.2,0.1-0.3,0.2c-0.2,0.1-0.3,0.3-0.4,0.5c-0.1,0.1-0.1,0.3-0.1,0.4c-1.8,0-3.6,0.2-5.4,0.1c-1,0-2-0.1-3-0.3
		c-1-0.2-2-0.4-2.7-1c-0.2-0.1-0.3-0.3-0.4-0.4C56.5,50,56.9,49.7,57.3,49.5z M51.9,51.9c1-0.6,2-1.1,3.1-1.6c0,0,0,0.1,0,0.1
		c0,0.1,0.1,0.3,0.2,0.4c0,0.1,0.1,0.1,0.1,0.2c0.2,0.2,0.4,0.5,0.7,0.6c1,0.7,2.1,0.9,3.1,1c0.6,0.1,1.3,0.1,1.9,0.1
		c-1.2,0.5-2.3,1.1-3.4,1.7c-0.6,0.3-1.3,0.7-1.9,1.1c-0.3,0.2-0.6,0.4-0.9,0.6l-0.1,0.1l-0.1,0.1c-0.1,0.1-0.2,0.1-0.3,0.2
		c-0.2,0.2-0.3,0.4-0.4,0.6c0,0,0,0,0,0.1c-0.3,0-0.6,0-0.9-0.1c-0.7-0.2-1.3-0.4-1.9-0.8c-0.6-0.3-1.2-0.7-1.7-1.2
		c-0.3-0.2-0.5-0.5-0.7-0.7c0,0-0.1-0.1-0.1-0.1C49.6,53.4,50.8,52.6,51.9,51.9z M41,58.9l0.2-0.2l0.4-0.4c0.1-0.1,0.1-0.1,0.2-0.2
		c0.1-0.1,0.2-0.1,0.2-0.2c1-1,2.1-1.9,3.2-2.7c0.7-0.5,1.5-1,2.2-1.4c0,0.2-0.1,0.3-0.1,0.5c0,0.2,0.1,0.4,0.2,0.5
		c0.1,0.1,0.1,0.2,0.2,0.2c0.3,0.3,0.6,0.5,0.9,0.8c0.6,0.5,1.3,0.8,2,1.1c0.7,0.3,1.4,0.5,2.2,0.5c0.1,0,0.3,0,0.4,0
		c-1.4,0.6-2.7,1.4-4,2.1c-0.4,0.2-0.7,0.4-1.1,0.6c-0.2,0.1-0.4,0.2-0.6,0.4c-0.1,0.1-0.2,0.2-0.3,0.4c-0.2,0-0.3,0-0.5,0
		c-0.4,0-0.8-0.1-1.2-0.2c-0.8-0.2-1.5-0.4-2.2-0.7c-0.7-0.3-1.4-0.6-2.1-1L41,58.9L41,58.9L41,58.9z M34.8,63
		c0.2-0.2,0.4-0.3,0.5-0.5c0.2-0.2,0.4-0.3,0.5-0.5c0.4-0.3,0.8-0.6,1.2-0.9c0.9-0.7,1.8-1.3,2.7-1.8c0.1,0.2,0.2,0.4,0.4,0.5
		c0.1,0.1,0.1,0.1,0.2,0.1l0.1,0.1l0.3,0.2c0.7,0.4,1.5,0.7,2.3,0.9c0.8,0.2,1.6,0.4,2.4,0.4c0.4,0,0.8,0,1.2,0c0.1,0,0.2,0,0.3-0.1
		c0,0,0,0,0,0c-0.1,0.2-0.2,0.5-0.2,0.8l-0.1,0.6c-0.1,0.4-0.1,0.9-0.2,1.3c0,0.1,0,0.2,0,0.2c-0.3,0.3-0.5,0.5-0.7,0.8
		c-2,0-3.9,0-5.9,0c-1,0-2-0.1-3-0.2c-1-0.1-2-0.3-2.8-0.7c-0.1,0-0.2-0.1-0.3-0.1C34.1,63.6,34.4,63.3,34.8,63z M26.8,69.6
		c0.7-0.6,1.4-1.2,2.2-1.8c1.3-1,2.7-2,4.2-2.9c0.2,0.1,0.3,0.2,0.5,0.2c1.1,0.4,2.1,0.5,3.1,0.6c1,0.1,2.1,0.1,3.1,0
		c0.3,0-0.6,1.8-1.4,2.7c-0.6,0.8-1.2,1.6-1.8,2.4c-0.3,0.1-0.7,0.2-1,0.2c-0.9,0.2-1.9,0.3-2.8,0.3c-0.9,0-1.9,0-2.8-0.1
		c-0.9-0.1-1.8-0.3-2.6-0.7c-0.4-0.2-0.7-0.4-0.9-0.7c0,0,0-0.1-0.1-0.1L26.8,69.6z M21.9,74c0.3-0.4,0.6-0.8,0.9-1.2
		c0.1-0.2,0.3-0.4,0.4-0.6l0,0c0.5-0.4,1.1-0.8,1.6-1.2c0.2-0.2,0.5-0.4,0.7-0.6c0,0,0,0,0,0c0.1,0.1,0,0,0.2,0.2
		c0.4,0.5,0.9,0.9,1.4,1.1c1,0.5,2,0.6,3,0.6c0.1,0-1.6,1.8-2.4,2.7c-0.5,0.5-0.8,1.3-0.9,2c-0.1,0.3-0.1,0.6,0,0.8
		c-0.7,0.2-1.4,0.3-2.1,0.3c-0.4,0-0.9,0-1.3,0c-0.4,0-0.9-0.1-1.2-0.2c0,0-0.1,0-0.1,0l0,0c0,0,0,0,0-0.1c-0.1-0.1-0.1-0.3-0.2-0.5
		c-0.1-0.4-0.2-0.8-0.3-1.2C21.3,75.4,21.5,74.6,21.9,74L21.9,74z M15.2,78.7c0.3-0.4,0.6-0.8,0.8-1.2c0,0,0-0.1,0.1-0.1
		c1.3-0.9,2.6-1.9,3.8-2.8l0.7-0.6c-0.4,0.7-0.6,1.5-0.5,2.3c0.1,0.6,0.2,1,0.3,1.5c0.1,0.2,0.2,0.5,0.3,0.7
		c0.1,0.1,0.2,0.3,0.4,0.4c0.1,0,0.1,0.1,0.2,0.1l0.1,0c0.1,0,0.2,0.1,0.2,0.1c0.6,0.1,1,0.1,1.5,0.1c0.3,0,0.6-0.1,0.8-0.1
		c-0.2,0.2-0.5,0.4-0.7,0.6c-0.4,0.4-0.8,0.7-1.2,1.1l0,0l0,0c-0.4,0.5-0.7,1-1.1,1.6c-0.1,0.2-0.2,0.3-0.2,0.5
		c-0.9,0.2-1.8,0.3-2.6,0.3c-0.5,0-0.9,0-1.3-0.1c-0.4,0-0.9-0.1-1.2-0.3c-0.1,0.1-0.3-0.3-0.4-0.8c-0.1-0.4-0.3-0.9-0.4-1.2
		C14.7,80.2,14.9,79.3,15.2,78.7L15.2,78.7z M9,84.4c0.2-0.5,0.3-0.9,0.5-1.4c0.1-0.2,0.1-0.5,0.2-0.7c0.2-0.2,0.5-0.4,0.7-0.6
		c0.5-0.4,1-0.8,1.6-1.2c0.5-0.4,1.1-0.8,1.6-1.2c0.2-0.1,0.3-0.2,0.5-0.3c-0.3,0.7-0.4,1.5-0.3,2.2c0.1,0.6,0.2,1,0.4,1.5
		c0.1,0.2,0.2,0.5,0.3,0.7c0.1,0.1,0.2,0.3,0.3,0.4c0.1,0.1,0.2,0.2,0.3,0.2l0.2,0.1c0.6,0.2,1.1,0.2,1.6,0.2c0.2,0,0.5,0,0.7,0
		c0,0-0.1,0.1-0.1,0.1c-0.4,0.4-0.8,0.7-1.2,1.1l0,0l0,0c-0.4,0.5-0.7,1-1.1,1.6c0,0,0,0.1-0.1,0.1c-0.6,0.3-1.2,0.5-1.8,0.7
		c-0.4,0.1-0.9,0.2-1.3,0.3c-0.4,0.1-0.9,0.1-1.2,0.1c-0.1,0.1-0.4-0.3-0.6-0.6c-0.3-0.3-0.5-0.8-0.7-1.1C8.9,86,8.8,85.1,9,84.4
		L9,84.4z M5.1,87.4c0.7-1.1,1.5-2.1,2.4-3.1l0.7-0.7l0.4-0.4c-0.2,0.2-0.3,0.5-0.5,0.7l0,0c-0.4,1-0.3,2.2,0.1,3.2
		c0.2,0.5,0.5,0.9,0.8,1.3c0.2,0.2,0.3,0.4,0.5,0.6c0.1,0.1,0.2,0.2,0.4,0.3c0.1,0.1,0.2,0.1,0.3,0.1c0.1,0,0.2,0,0.3,0
		c0.1,0,0.1,0,0.2,0c-0.1,0.1-0.2,0.2-0.2,0.3c-0.3,0.5-0.6,0.9-0.9,1.4l0,0l0,0.1c-0.1,0.3-0.3,0.7-0.4,1.1C8.8,93,8.4,93.4,8,93.7
		c-0.3,0.3-0.7,0.6-1,0.8c-0.3,0.2-0.7,0.5-1,0.6c0,0-0.1,0-0.1,0c0,0,0,0,0,0c0,0,0,0-0.1,0c-0.1,0-0.3-0.1-0.5-0.3
		c-0.3-0.2-0.7-0.5-1-0.7c-0.5-0.5-0.9-1.2-1-2l0,0c0-0.5,0-1-0.1-1.5c0-0.1,0-0.1,0-0.2C3.8,89.4,4.4,88.4,5.1,87.4z M2.5,92.7
		c0.1,0.8,0.4,1.7,1,2.3c0.4,0.4,0.7,0.7,1.2,0.9c0.2,0.1,0.4,0.3,0.7,0.4c0.2,0,0.3,0.1,0.6,0.1c0.2,0,0.2,0,0.3-0.1
		c0.1,0,0.1-0.1,0.2-0.1C7,96,7.4,95.7,7.7,95.4c0.3-0.3,0.6-0.6,0.9-1c-0.2,0.6-0.3,1.2-0.4,1.8c-0.1,0.6-0.2,1.3-0.3,1.9l0,0
		c0,0.2,0,0.5,0,0.8c-0.3,0.5-0.5,1-0.9,1.4c-0.5,0.7-1.1,1.4-1.6,1.8c0,0-0.1,0.1-0.1,0.1c0,0,0,0-0.1,0c-0.1,0-0.3-0.1-0.5-0.1
		c-0.4-0.1-0.8-0.3-1.1-0.5c-0.6-0.4-1.1-1-1.4-1.8l0,0c-0.1-0.5-0.3-0.9-0.4-1.4c-0.1-0.4-0.3-0.8-0.4-1.2
		C1.7,95.7,2,94.2,2.5,92.7z M3.3,109.3c-0.4-1.1-0.8-2.2-1-3.3c-0.5-1.9-0.8-3.9-0.8-5.9c0.2,1,0.8,1.9,1.6,2.5
		c0.5,0.3,0.8,0.5,1.3,0.7c0.2,0.1,0.5,0.2,0.8,0.2c0,0,0,0,0,0c0,0.5,0.1,0.9,0.2,1.4c0.1,0.7,0.2,1.4,0.4,2.1l0,0l0,0
		c0.1,0.2,0.2,0.4,0.3,0.5c0,0.4-0.1,0.8-0.1,1.2c0,0.4-0.1,0.8-0.1,1.1c0,0.2,0,0.3-0.1,0.5c0,0.1,0,0.1-0.1,0.2c0,0,0,0,0,0
		c-0.1,0-0.3,0-0.4-0.1c-0.2,0-0.3-0.1-0.5-0.2c-0.1-0.1-0.3-0.1-0.4-0.2C3.9,110,3.5,109.6,3.3,109.3z M9.7,118.9
		C9.7,118.9,9.7,118.9,9.7,118.9C9.7,118.9,9.7,118.9,9.7,118.9z M9.7,118.8c-0.1,0-0.2,0-0.3,0c-0.1,0-0.1,0-0.2,0
		c-0.7-0.8-1.4-1.6-2-2.3c-0.8-1-1.5-2.1-2.1-3.2c-0.3-0.6-0.6-1.1-0.9-1.7c0,0,0,0,0,0c0.2,0.1,0.4,0.1,0.6,0.2
		c0.2,0.1,0.4,0.1,0.7,0.1c0.1,0,0.3,0,0.5,0c0.1,0,0.2-0.1,0.3-0.2c0.1-0.1,0.2-0.2,0.2-0.3c0,0,0,0,0-0.1c0.1,0.3,0.2,0.7,0.4,1
		c0.3,0.7,0.5,1.3,0.8,2l0,0l0,0.1c0.3,0.5,0.7,0.8,1.1,1c0.2,0.7,0.3,1.4,0.5,2.1C9.6,117.9,9.7,118.3,9.7,118.8
		C9.7,118.7,9.7,118.7,9.7,118.8C9.7,118.8,9.7,118.8,9.7,118.8z M9.6,115.8c0.4,0.2,0.9,0.4,1.3,0.5c0.2,0,0.3,0.1,0.5,0.1
		c0.2,0,0.3,0,0.5,0c0.3,0,0.6,0,1-0.1c0.2,0,0.4-0.1,0.6-0.3c0.1-0.1,0.3-0.3,0.3-0.4c0.1-0.1,0.1-0.2,0.1-0.3
		c0-0.1,0.1-0.2,0.1-0.4c0,0,0,0,0,0c0.2,0.6,0.5,1.2,1,1.6c0.3,0.2,0.5,0.3,0.8,0.5c0.1,0,0.1,0.1,0.2,0.1c0,0.5-0.1,1-0.2,1.5
		c-0.1,0.3-0.2,0.7-0.2,1c0,0,0,0.1,0,0.1c-0.1,0-0.2,0-0.3,0.1c-0.2,0-0.3,0-0.5,0c-0.1,0-0.2,0-0.2,0l-0.2,0c-0.3,0-0.7-0.1-1-0.2
		c-0.7-0.2-1.3-0.5-1.8-0.8l0,0c-0.3-0.4-0.6-0.7-1-1.1c-0.1-0.3-0.2-0.5-0.3-0.8C10.2,116.7,9.9,116.2,9.6,115.8z M16.2,124.8
		c-0.1,0-0.2,0-0.2,0c-0.2,0-0.3-0.1-0.5-0.1c-0.3-0.1-0.7-0.3-1-0.6c-0.5-0.5-1-0.9-1.6-1.4c-0.1-0.1-0.3-0.3-0.4-0.4
		c-0.8-0.8-1.5-1.6-2.3-2.5c0.1,0,0.1-0.1,0.2-0.1c0.1-0.1,0.2-0.2,0.3-0.3c0,0,0-0.1,0-0.1c0,0.1,0.1,0.1,0.1,0.2l0,0l0,0
		c0.6,0.7,1.4,1,2.1,1.3c0.4,0.1,0.8,0.3,1.2,0.3c0.1,0,0.2,0,0.3,0c0.1,0,0.3,0,0.3,0c0.2,0,0.4,0,0.6,0c0.1,0,0.2,0,0.3-0.1
		c0.2,0.8,0.4,1.6,0.6,2.4c0.1,0.4,0.2,0.8,0.2,1.2c0,0,0,0,0,0c-0.1,0-0.1,0-0.2,0C16.4,124.8,16.3,124.8,16.2,124.8z M16.7,125
		C16.7,125,16.7,125,16.7,125C16.7,125,16.7,125,16.7,125C16.7,125,16.7,125,16.7,125z M19.9,120.2c0.1,0.1,0.1,0.3,0.2,0.4
		c0.3,0.6,0.6,1.2,0.8,1.8c0.2,0.6,0.4,1.2,0.5,1.8c0.1,0.6,0.1,1.3-0.1,1.9c-0.2,0.6-0.5,1.1-1.1,1.2c-0.5,0.2-1.2,0.1-1.8-0.1
		c-0.6-0.2-1.2-0.5-1.7-0.9c-0.1-0.1-0.2-0.1-0.3-0.2c0.1,0,0.3,0,0.4-0.1c0.2,0,0.3-0.1,0.5-0.2c0.1-0.1,0.2-0.2,0.3-0.4
		c0-0.1,0-0.1,0.1-0.2c0-0.1,0-0.1,0-0.2c0-0.2,0-0.3,0-0.5c-0.1-0.5-0.3-1-0.5-1.4c-0.4-0.7-0.8-1.4-1.4-2c0.1,0,0.2-0.1,0.3-0.1
		c0.1,0,0.2-0.1,0.3-0.2c0.1,0.3,0.3,0.6,0.6,0.9c0.2,0.2,0.4,0.3,0.6,0.4c0.1,0.1,0.3,0.1,0.5,0.1c0.1,0,0.3,0,0.6-0.2
		c0.1-0.1,0.2-0.2,0.2-0.2c0.3-0.4,0.5-0.8,0.6-1.2C19.8,120.5,19.9,120.3,19.9,120.2z M19.4,118.9c0,0.1-0.1,0.2-0.1,0.3
		c-0.2,0.4-0.3,0.7-0.5,1c-0.1,0.2-0.3,0.5-0.4,0.7c-0.1-0.1-0.2-0.1-0.3-0.2c-0.2-0.1-0.4-0.4-0.6-0.7l-0.1-0.2
		c0-0.1-0.1-0.1-0.1-0.2c-0.1-0.2-0.1-0.4-0.2-0.6c0,0,0-0.1-0.1-0.1c0-0.5-0.1-1-0.3-1.4c0.1,0,0.3,0,0.5-0.2
		c0.1-0.1,0.2-0.2,0.2-0.3c0.4-0.5,0.6-1,0.8-1.6c0,0,0,0,0,0c0.3,1.1,0.6,2.2,1.1,3.3C19.3,118.8,19.4,118.8,19.4,118.9z
		 M19.5,102.5c-0.2,0.4-0.4,0.8-0.6,1.3c-0.4,0.3-0.7,0.7-1.1,1c-0.4,0.3-0.9,0.7-1.3,0.9c0,0,0,0-0.1-0.1c-0.1-0.2-0.3-0.4-0.4-0.6
		c-0.2-0.4-0.3-0.9-0.3-1.4c0-0.1,0-0.3,0-0.4c0-0.1,0-0.2,0-0.4c0.1-0.3,0.1-0.6,0.1-0.9c0.1-0.4,0.1-0.8,0.1-1.3
		c0.3-0.8,0.5-1.6,0.5-2.4c0.1,0,0.2-0.1,0.2-0.1c-0.1,0.7,0,1.4,0.3,2c0.1,0.3,0.2,0.5,0.4,0.8c0.1,0.1,0.2,0.3,0.3,0.4
		c0.1,0.1,0.3,0.3,0.6,0.4c0.3,0.1,0.5,0,0.6,0c0.2,0,0.3,0,0.4-0.1c0.3-0.1,0.5-0.1,0.8-0.2c0,0,0,0,0.1,0
		C20,101.7,19.8,102.1,19.5,102.5z M25.4,96.5c-1.4,0.9-2.7,2-3.8,3.2c-0.5,0.2-1.1,0.4-1.6,0.5c-0.2,0.1-0.5,0.1-0.7,0.1
		c-0.1,0-0.2,0-0.3,0c0,0-0.1,0-0.1,0c0,0,0,0,0,0c-0.1-0.1-0.1-0.1-0.2-0.2c-0.1-0.2-0.2-0.4-0.3-0.6c-0.4-0.8-0.4-1.7-0.1-2.6l0,0
		c0.1-0.2,0.1-0.3,0.2-0.5c0.1-0.1,0.1-0.3,0.1-0.3c0.1-0.2,0.2-0.4,0.2-0.6c0.1-0.3,0.4-1,0.7-1.6c0.2,0,0.5,0,0.7,0
		c0.8,0,1.5-0.2,2.2-0.5c0,0.2,0,0.3,0.1,0.4c0.1,0.3,0.1,0.6,0.2,0.9c0.1,0.3,0.2,0.6,0.5,0.9c0.1,0.1,0.2,0.2,0.4,0.3
		c0.1,0.1,0.2,0.1,0.3,0.1c0.2,0,0.3,0.1,0.5,0.1c0.3,0,0.6,0.1,0.9,0.1c0.3,0,0.6,0,0.8,0C25.7,96.4,25.5,96.4,25.4,96.5z M28,95.1
		c-1,0.1-1.9,0.1-2.9,0c-0.3,0-0.5-0.1-0.8-0.1c-0.2,0-0.6-0.2-0.4-0.1c-0.1-0.1-0.2-0.3-0.2-0.5c-0.1-0.2-0.2-0.5-0.2-0.7
		c-0.1-0.3-0.1-0.7-0.1-1c0,0,0.1-0.1,0.1-0.1c0,0-0.1,0-0.1,0.1c0-0.6,0.2-1.1,0.5-1.6l0,0c0.3-0.4,0.6-0.8,0.9-1.2
		c0.1-0.2,0.2-0.3,0.3-0.5c0.3,0,0.7,0.1,1,0c1,0,2.1-0.4,2.9-1c0.1,0,0.2,0.1,0.4,0.1c0.3,0,0.6,0.1,0.9,0.1c0.7,0,1.5,0,2.2-0.1
		c-0.3,0.2-0.5,0.4-0.8,0.6l0,0c-0.7,0.7-0.9,1.9-0.7,2.9c0.1,0.2,0.1,0.5,0.2,0.7c0.1,0.2,0.2,0.5,0.4,0.8c0.1,0.1,0.2,0.2,0.3,0.2
		c0,0,0,0,0,0C30.5,94,29.2,94.5,28,95.1z M40.3,91.6c-1.2,0.2-2.4,0.4-3.5,0.6c-0.7,0.1-1.3,0.3-2,0.5c-0.5,0-1.1,0-1.6-0.1
		c-0.2,0-0.4-0.1-0.6-0.1c-0.1,0-0.2,0-0.3-0.1c0-0.1-0.1-0.2-0.1-0.3c-0.1-0.2-0.1-0.4-0.2-0.6c-0.2-0.7-0.1-1.4,0.3-2l0,0
		c0.2-0.3,0.4-0.6,0.6-1c0.1-0.2,0.2-0.3,0.3-0.5c0.1,0,0.3-0.1,0.4-0.1c0.9-0.3,1.7-0.7,2.4-1.3c0.1,0.6,0.3,1.2,0.6,1.7
		c0.3,0.7,0.8,1.4,1.4,2C38.6,91,39.4,91.4,40.3,91.6C40.3,91.6,40.3,91.6,40.3,91.6C40.3,91.6,40.3,91.6,40.3,91.6z M40.4,90.3
		c-0.6-0.1-1.2-0.4-1.6-0.8c-1-0.8-1.6-2.1-2-3.5c-0.3-1.1-0.5-2.2-0.6-3.3c1.4,0.3,2.7,0.3,4.1,0.1c0.6-0.1,1.3-0.2,1.9-0.5
		c-0.3,1.3-0.2,2.7,0.4,4c0.1,0.2,0.2,0.4,0.3,0.5c0,0.4-0.1,0.7-0.2,1c-0.2,0.7-0.5,1.3-0.9,1.7c-0.2,0.2-0.5,0.4-0.7,0.5
		C40.9,90.3,40.5,90.4,40.4,90.3z M40.9,91.5c0.3-0.1,0.5-0.2,0.7-0.3c0.4-0.2,0.7-0.5,1-0.9c0.5-0.7,0.7-1.5,0.7-2.3
		c0-0.2,0-0.4,0-0.6c0.8,0.9,1.8,1.5,2.9,1.8c0,0,0.1,0,0.1,0c0.1,0,0.1,0,0.2,0c0.1,0,0.1,0,0.2,0c-0.1,0.2-0.2,0.5-0.2,0.8
		c-0.1,0.5,0,1.1,0.1,1.6c0,0.1,0.1,0.3,0.2,0.4c0,0.3-0.1,0.7-0.3,1c-0.2,0.4-0.5,0.8-0.8,1.1c-0.2,0.2-0.3,0.3-0.5,0.4
		c-0.2,0.1-0.4,0.2-0.3,0.1c-0.9-0.1-1.7-0.3-2.4-0.8c-0.7-0.5-1.2-1.2-1.6-2.1C40.9,91.7,40.9,91.6,40.9,91.5z M46.5,99.9
		c-0.1,0.1-0.3,0.2-0.3,0.2c-0.8,0.1-1.6,0-2.3-0.4c-0.7-0.4-1.2-0.9-1.7-1.7c-0.1-0.2-0.2-0.4-0.3-0.7c-0.2-1.1-0.5-2.2-0.7-3.3
		c0-0.2-0.1-0.4-0.1-0.6c0.2,0.4,0.4,0.8,0.7,1.1c0.4,0.4,0.9,0.8,1.4,1c0.5,0.2,1.1,0.3,1.7,0.3l0.1,0l0.1,0c0.1,0,0.1,0,0.2,0
		c0.1,0,0.2-0.1,0.3-0.1c0.2-0.1,0.3-0.2,0.4-0.3c0.2-0.2,0.4-0.4,0.6-0.6c0.1,0.6,0.4,1.2,0.8,1.7c0.2,0.6,0.2,1.3,0,1.8
		c-0.1,0.4-0.3,0.7-0.6,1.1C46.8,99.6,46.6,99.8,46.5,99.9z M53.3,101c0,0.1,0,0.2-0.1,0.3c0,0,0,0,0,0l-0.1,0l-0.1,0.1
		c-0.1,0-0.2,0.1-0.3,0.1c-0.2,0.1-0.4,0.2-0.6,0.2c-0.4,0.1-0.7,0.2-1.1,0.3c-1.4-0.2-2.9-0.5-4.2-0.9c0.1,0,0.1-0.1,0.2-0.1
		c0.1-0.1,0.2-0.2,0.3-0.3c0.2-0.2,0.4-0.4,0.5-0.7c0.3-0.5,0.5-1,0.5-1.5c0.1-0.5,0-1-0.2-1.4c0.2,0.2,0.5,0.3,0.7,0.4
		c0.5,0.2,1.1,0.3,1.7,0.3l0.1,0l0.1,0c0.1,0,0.1,0,0.2,0c0.1,0,0.2-0.1,0.3-0.1c0.2-0.1,0.3-0.2,0.4-0.3c0,0,0,0,0.1,0
		c0.8,0.4,1.3,1,1.5,1.7c0.1,0.4,0.2,0.8,0.2,1.2C53.3,100.6,53.3,100.8,53.3,101z M57.3,102.5c-1,0.1-2,0.1-3,0
		c-0.2,0-0.4,0-0.6-0.1l0,0l0.1-0.1l0,0c0,0,0.1-0.1,0.1-0.1c0.2-0.1,0.2-0.2,0.3-0.3c0-0.1,0.1-0.2,0.1-0.3c0-0.2,0.1-0.3,0.1-0.5
		c0-0.3,0-0.6,0-0.8c0-0.5-0.2-1.1-0.5-1.6c-0.3-0.5-0.7-0.9-1.1-1.1c-0.3-0.2-0.7-0.3-1-0.3c0.2-0.1,0.3-0.3,0.4-0.4
		c0.4-0.4,0.6-1,0.8-1.5c0.1-0.3,0.1-0.7,0.1-1c0.3,0.3,0.6,0.5,1,0.7c0.4,0.2,0.8,0.4,1.2,0.5c1.5,0.6,2.9,1.1,4.3,1.7
		c0,0.2,0.1,0.3,0.1,0.4c-0.3-0.1-0.5-0.3-0.7-0.4c-0.1-0.1-0.3-0.2-0.5-0.3c-0.1,0-0.2-0.1-0.4-0.1c-0.2,0-0.3,0-0.5,0.1
		c-0.3,0.2-0.4,0.4-0.5,0.6c-0.1,0.2-0.1,0.4-0.1,0.5c0,0.3,0,0.7,0,1c0,0.3,0.1,0.7,0.3,1c0.3,0.6,0.8,1,1.4,1.3
		c0.2,0.1,0.4,0.2,0.6,0.2c-0.2,0.1-0.6,0.4-0.7,0.5C58,102.4,57.7,102.4,57.3,102.5z M58,98.1C58,98.1,58,98.1,58,98.1
		C58,98.1,58,98,58,98.1z M65.2,105.6c-0.2-0.1-0.5-0.2-0.7-0.3c-0.1,0-0.2-0.1-0.4-0.1l-0.4-0.1c-0.5-0.1-1-0.1-1.5-0.2
		c-0.5,0-1-0.1-1.4-0.3c-0.5-0.2-0.8-0.6-1.2-0.8l-0.5-0.3c-0.1-0.1-0.2-0.1-0.2-0.2c0-0.1,0-0.2,0-0.4l0.2-0.7c0,0,0.1-0.2,0.2-0.3
		c0.1,0,2,0.8,2.4,1.1c1,0.6,1.9,1.2,2.8,1.9c0.4,0.3,0.7,0.6,1,0.9C65.4,105.7,65.3,105.6,65.2,105.6z M66.6,104.9
		c-0.4-0.3-0.9-0.8-1.3-1.1c-1-0.7-2-1.4-3.2-1.8c-0.2-0.1-0.3-0.1-0.5-0.2l-0.9-0.2c-0.7-0.1-1.4-0.2-2.1-0.2
		c-0.3-0.5-0.7-1-0.8-1.5c-0.1-0.3-0.1-0.4-0.1-0.7c0-0.3,0-0.5,0.1-0.8c0-0.1,0.1-0.3,0.1-0.3c0,0,0,0,0,0c0.1,0,0.1,0.1,0.2,0.2
		c0.3,0.2,0.6,0.4,0.9,0.5c0.3,0.1,0.6,0.2,0.8,0.3c0.8,0.3,1.6,0.5,2.3,0.7c0.1,0.2,0.6,0.3,1,0.4c0,0,0,0,0,0
		c1,0.5,1.9,1.3,2.6,2.2c0.2,0.2,0.3,0.5,0.4,0.7c0.1,0.2,0.3,0.5,0.4,0.7c0.2,0.4,0.4,0.9,0.4,1.2C66.9,105.1,66.8,105,66.6,104.9z
		 M59.9,97.9c0-0.1,0.1-0.2,0.1-0.3l2.5,0.4c0.2,0,0.3,0.1,0.5,0.1c0.4,0.2,0.8,0.4,1.1,0.7l1.1,1.1c0,0,0.1,0.1,0.1,0.1
		c0.3,0.4,0.6,0.8,0.8,1.1c0.1,0.2,0.3,0.4,0.4,0.6c0.1,0.2,0.2,0.4,0.2,0.4c0,0,0,0,0.1,0c0,0,0.1,0,0.1,0c0,0-0.1,0-0.2,0
		c0,0-0.1,0-0.1,0c-0.1-0.1-0.1-0.1-0.2-0.2c-0.9-0.8-1.9-1.5-2.9-2.1c-0.1,0-2.6-1.6-3.1-1.8C60.2,98,60.1,98,59.9,97.9z M72,100.7
		c-0.1,0-0.2-0.1-0.4-0.1l-0.3-0.1c-0.4-0.1-0.8-0.1-1.3-0.1c-0.5,0-0.9-0.1-1.4-0.3c-0.3-0.1-1.9-0.7-2.2-0.9l1-0.6
		c0.4-0.2,0.8-0.2,1.1,0c0.9,0.5,2.7,1.4,3.3,1.8c0.2,0.1,0.3,0.3,0.5,0.4C72.3,100.8,72.2,100.8,72,100.7z M74,101.9
		C74,101.9,74,101.9,74,101.9C74,101.9,74,101.9,74,101.9C74,101.9,74,101.9,74,101.9z M73.9,98c0,0,0.1,0,0.1,0
		C74.1,98,74,98,73.9,98C73.9,98,73.9,98,73.9,98C73.9,98,73.9,98,73.9,98z M70.6,94.4c0.4,0.2,0.8,0.4,1.1,0.8
		c0.3,0.3,0.6,0.7,0.9,1c0.3,0.3,0.5,0.7,0.7,1c0.1,0.2,0.2,0.4,0.3,0.5c0.1,0.1,0.1,0.3,0.2,0.3c0,0,0,0,0,0
		c-0.1-0.1-0.1-0.1-0.2-0.2c-0.8-0.8-1.7-1.3-2.6-1.9c-0.3-0.2-0.6-0.4-0.9-0.5c-0.2-0.4-0.4-0.8-0.7-1.2
		C69.9,94.3,70.2,94.3,70.6,94.4z M67.1,95c0.3,0.1,0.5,0.2,0.8,0.3c0.1,0,0.3,0.1,0.4,0.1l2.1,0.7c0.2,0.1,0.3,0.1,0.5,0.2
		c0.9,0.5,1.7,1.2,2.3,2c0.1,0.2,0.3,0.4,0.4,0.6c0.1,0.2,0.2,0.4,0.3,0.7c0.2,0.3,0.3,0.7,0.3,1c-0.1,0-0.2-0.1-0.2-0.2
		c-0.3-0.3-0.8-0.7-1.2-1c-0.8-0.6-1.7-1.1-2.6-1.5l-2.3-0.5c-0.4,0-0.8-0.1-1.2-0.1c-0.3-0.4-0.6-0.9-0.7-1.3
		c-0.1-0.2-0.1-0.4,0-0.7c0-0.2,0-0.5,0.1-0.7c0-0.1,0-0.2,0.1-0.2c0,0,0.1,0.1,0.2,0.1C66.6,94.8,66.8,94.9,67.1,95z M61,91.3
		c0.4,0.1,0.8,0.2,1.2,0.3c1.6,0.3,3.1,0.9,4.3,1.8c0,0,0,0,0,0c-0.1,0-0.2-0.1-0.4-0.1c-0.2,0-0.3,0-0.5,0.1
		c-0.3,0.2-0.4,0.4-0.5,0.6c-0.1,0.2-0.1,0.3-0.1,0.5c0,0.3,0,0.6,0,0.9c0,0.3,0.1,0.6,0.3,0.9c0.3,0.5,0.7,0.9,1.2,1.2
		c0.2,0.1,0.5,0.2,0.7,0.3L65,98.6c-0.1-0.1-0.3-0.1-0.4-0.2c-0.5-0.2-1-0.4-1.5-0.6c-0.5-0.3-0.9-0.6-1.3-0.9
		c-0.2-0.1-0.5-0.2-0.6-0.3c0,0-0.1,0-0.1,0c-0.2-0.2-0.4-0.3-0.7-0.5c-0.7-0.4-1.4-0.8-2.1-1.1c0.2-0.1,0.5-0.2,0.7-0.4l0.1-0.1
		l0.1,0c0,0,0.1-0.1,0.1-0.1c0.1-0.1,0.1-0.1,0.1-0.1c0-0.1,0-0.1,0.1-0.2c0-0.2,0-0.3,0-0.4c0-0.2-0.1-0.4-0.1-0.6
		c-0.1-0.4-0.3-0.8-0.5-1.1c-0.3-0.6-0.8-1.1-1.4-1.4c0.5-0.4,0.9-0.8,1.2-1.4c0.2,0.6,0.6,1.2,1.1,1.6C60.1,91,60.6,91.2,61,91.3z
		 M64.1,81.4c-1.2,0.3-2.4,0.6-3.6,1c-0.2,0.1-0.5,0.2-0.7,0.3c-0.2,0-0.3,0.1-0.5,0.1c-0.4,0.1-0.7,0.1-1.1,0.1
		c-0.3,0-0.8,0-0.9-0.1c-0.6-0.3-1.2-0.7-1.7-1.2c-0.2-0.2-0.5-0.5-0.7-0.8c-0.2-0.3-0.3-0.6-0.4-0.9c-0.1-0.3-0.2-0.6-0.2-1
		c0-0.3,0-0.7,0-1.1c0-0.5,0-1,0-1.6c0.1,0,0.3,0.1,0.4,0.1c1.1,0.3,2.3,0.4,3.4,0.3c0.9-0.1,1.9-0.3,2.7-0.8c0,0.2,0.1,0.5,0.2,0.7
		c0.1,0.1,0.2,0.3,0.2,0.4l0.2,0.3c0.6,0.8,1.1,1.6,1.8,2.4l0.5,0.6l0.3,0.3l0.2,0.2c0.1,0.1,0.2,0.1,0.3,0.2c0.1,0,0.1,0.1,0.2,0.1
		C64.5,81.2,64.3,81.3,64.1,81.4z M66.2,80.2c-0.4,0-0.9-0.1-1.1-0.2c0,0,0,0,0,0l-0.1-0.1l-0.2-0.3L64.3,79l-1.8-2.3l-0.2-0.3
		c-0.1-0.1-0.1-0.1-0.1-0.2C62,76.1,62,75.9,62,75.8c0-0.1,0-0.1,0-0.2c0,0,0-0.1,0-0.1l0.1-0.2l0.4-0.6c0.8-1.5,1.7-2.9,2.4-4.5
		c0,0,0,0,0,0l0.1,0.1l0,0l0.1,0.1c0.4,0.3,0.8,0.7,1.2,1c0.8,0.7,1.7,1.3,2.6,1.8c0.4,0.3,0.9,0.5,1.4,0.8c0.1,0.1,0.3,0.1,0.5,0.2
		c0.1,0.4,0.2,0.7,0.3,1.1c0.3,0.5,0.5,0.9,0.8,1.3c0.3,0.4,0.6,0.8,1.1,1.2c0.1,0.1,0.3,0.2,0.5,0.3c0.1,0,0.2,0,0.2,0.1
		c-0.2,0.2-0.4,0.4-0.7,0.5c-0.4,0.2-0.9,0.4-1.3,0.6c-0.9,0.3-1.8,0.6-2.8,0.7C68.1,80.1,67.1,80.2,66.2,80.2z M83.7,82.6
		c-0.7-0.2-1.4-0.4-2.1-0.6c-1.4-0.3-2.8-0.6-4.2-0.6c-1.4-0.1-2.8,0.1-4.3,0.1c-1.4,0-2.8-0.1-4.2-0.3c-0.3,0-0.7-0.1-1-0.1
		c0.4-0.1,0.8-0.2,1.2-0.3c1-0.3,1.9-0.6,2.8-1.1c0.4-0.2,0.9-0.5,1.3-0.9c0.2-0.2,0.5-0.5,0.6-0.7l0.2,0c0.3-0.1,0.5-0.1,0.8-0.2
		c0.1-0.1,0.3-0.1,0.4-0.2c0.1,0.7,0.4,1.4,0.8,2c0.3,0.4,0.5,0.7,1,1.1c0.1,0.1,0.3,0.2,0.4,0.2c0.1,0,0.2,0.1,0.3,0.1
		c0.1,0,0.2,0,0.2,0c0.3,0,0.5-0.1,0.7-0.2c0.9-0.3,1.6-0.6,2.4-1c0.3-0.2,0.6-0.3,0.8-0.5c0,0,0,0.1,0,0.1c-0.2,0.5-0.1,1,0.1,1.5
		c0.1,0.2,0.3,0.4,0.4,0.6c0.2,0.2,0.3,0.2,0.4,0.4c0.6,0.4,1.1,0.8,1.8,1.1C84.4,82.8,84.1,82.7,83.7,82.6z M87.7,86.2
		c-0.3-0.5-0.6-0.9-0.9-1.4l-0.5-0.7L86,83.8l-0.1-0.2l-0.1-0.1c0,0,0,0,0,0c0,0,0-0.1,0-0.1c-0.1-0.1-0.3-0.2-0.4-0.3
		c0.5,0.2,1,0.4,1.6,0.5c0.2,0,0.5,0.1,0.8,0.1l0.3,0.8c0.2,0.7,0.8,1.3,1.5,1.5c0.3,0.1,0.7,0.1,1.1,0.1c0.2,0,0.4-0.1,0.5-0.1
		c0.1-0.1,0.3-0.1,0.4-0.2c0.5-0.2,1-0.6,1.5-0.9c0,0,0.1-0.1,0.1-0.1c-0.4,0.5-0.7,1-1.1,1.5l0,0l0,0.1c-0.2,0.6-0.2,1.3,0.1,1.9
		l0.8,1.3c0.3,0.4,0.5,0.9,0.8,1.3c0.1,0.1,0.2,0.3,0.3,0.4c-0.2,0.4-0.4,0.9-0.6,1.2c-0.1,0.2-0.3,0.4-0.4,0.6
		c-0.1,0.1-0.2,0.2-0.4,0.3c-0.1,0.1-0.3,0.1-0.4,0c-0.1,0-0.1,0-0.2-0.1c0,0,0,0-0.1-0.1l-0.2-0.1c-0.4-0.3-0.9-0.6-1.3-0.9
		l-0.6-0.4c0,0,0,0-0.1,0c0-0.9-0.1-1.7-0.4-2.5C88.8,88.2,88.3,87.2,87.7,86.2z M83.2,104.6c0.1-0.1,0.2-0.2,0.2-0.3l0.2-0.3
		c0.3-0.4,0.5-0.8,0.7-1.3c0.2-0.4,0.4-0.8,0.8-1.2c0.1-0.1,0.1-0.1,0.2-0.2l1-0.6c0.2-0.1,0.3-0.2,0.4-0.3c0.1-0.1,0.2-0.1,0.3-0.1
		c0.1,0,0.3,0.1,0.4,0.2c0.2,0.1,0.3,0.5,0.5,0.7c-0.3,0.3-0.5,0.6-0.8,0.8l-0.6,0.6c-0.1,0.1-0.1,0.1-0.2,0.2
		c-0.9,0.7-1.8,1.2-2.7,1.8c-0.3,0.2-0.6,0.3-0.9,0.5C82.9,104.9,83,104.8,83.2,104.6z M84.4,106.8c-0.3,0-0.5,0.1-0.8,0.1
		c-0.4,0-0.9,0-1.2-0.1c0.1-0.1,0.2-0.1,0.3-0.2c0.4-0.2,1-0.5,1.5-0.8c1-0.6,1.9-1.3,2.7-2.2c0.1-0.1,0.2-0.3,0.4-0.4c0,0,0,0,0,0
		l0.4-0.6c0.4-0.6,0.7-1.3,1-1.9c0.5-0.1,1.1-0.2,1.6-0.2c0.3,0,0.4,0.1,0.7,0.2c0.2,0.1,0.5,0.2,0.6,0.4c0.1,0.1,0.2,0.1,0.2,0.2
		c0,0-0.1,0.1-0.2,0.1c-0.3,0.2-0.5,0.4-0.8,0.6c-0.2,0.2-0.4,0.4-0.6,0.6c-0.2,0.3-0.4,0.5-0.7,0.8c0,0,0,0,0,0l-0.4,0.5
		c-0.4,0.4-0.7,0.8-1.1,1.2c-0.8,0.7-1.8,1.3-2.9,1.5C84.9,106.7,84.7,106.8,84.4,106.8z M85.1,107.7c0,0,0-0.1,0-0.2c0,0,0,0,0,0
		c0,0,0,0,0,0C85.1,107.6,85.1,107.7,85.1,107.7z M91,104.2c-0.1,0.1-0.1,0.2-0.2,0.3c-0.3,0.4-0.5,0.9-0.8,1.3
		c-0.3,0.4-0.7,0.7-1.2,0.8c-0.5,0.2-0.9,0.4-1.3,0.5c-0.4,0.2-0.9,0.2-1.3,0.3c-0.2,0-0.5,0.1-0.6,0.1c-0.2,0-0.4,0-0.4,0
		c0,0,0,0,0-0.1c0.1,0,0.2-0.1,0.3-0.1c1.1-0.5,2-1.2,2.9-1.8c0.6-0.4,1.2-0.9,1.8-1.3l0.7-0.6c0.1-0.1,0.4-0.4,0.5-0.5
		c0.1,0.1,0.2,0.2,0.3,0.3L91,104.2z M95.2,100c-0.2,0.5-0.5,0.9-0.8,1.3c-0.5,0.7-1.2,1.4-2,1.8c-0.1-0.1-0.2-0.1-0.4-0.2
		c-0.1,0-0.3-0.1-0.4-0.1c0.2-0.2,0.4-0.4,0.6-0.5c0.1-0.1,0.3-0.2,0.4-0.4c0.1-0.1,0.2-0.2,0.2-0.3c0.1-0.1,0.1-0.3,0.1-0.5
		c0-0.3-0.2-0.6-0.4-0.7c-0.2-0.1-0.3-0.2-0.4-0.3c-0.3-0.2-0.6-0.3-0.9-0.3c-0.3-0.1-0.7-0.1-1-0.1c-0.6,0.1-1.2,0.4-1.6,0.8
		c-0.2,0.2-0.3,0.3-0.5,0.5c0-0.3-0.1-0.7-0.2-0.9c-0.1-0.3-0.3-0.5-0.6-0.7c-0.2-0.1-0.5-0.1-0.8-0.1c0-0.1,0.1-0.3,0.1-0.4
		c0.4-0.9,0.9-1.9,1.4-2.9l0.7-1.5c0.1-0.2,0.3-0.5,0.4-0.8c0.1-0.2,0.2-0.5,0.2-0.8l0.2,0.1c0.4,0.3,0.8,0.6,1.3,0.9l0.2,0.1
		c0.1,0,0.2,0.1,0.2,0.1c0.2,0.1,0.4,0.1,0.6,0.2c0.2,0,0.4,0,0.5,0l-0.2,0.3C92.1,95,92,95.2,92,95.3c-0.1,0.3-0.1,0.7,0.1,1.1
		l0.4,0.8c0.2,0.5,0.5,1,0.7,1.4l0.1,0.2c0,0.1,0.1,0.2,0.2,0.2c0.1,0.2,0.3,0.3,0.4,0.4c0.3,0.2,0.7,0.4,1.1,0.4c0.1,0,0.3,0,0.4,0
		C95.3,99.8,95.2,99.9,95.2,100z M97.6,92.5c-0.4,1.9-0.8,3.8-1.6,5.5c0,0,0,0-0.1,0c-0.2,0.1-0.4,0.2-0.6,0.4
		c-0.1,0.1-0.3,0.1-0.4,0.1c-0.1,0-0.3-0.1-0.4-0.2c-0.1,0-0.1-0.1-0.1-0.2c0,0,0-0.1-0.1-0.1L94.2,98c-0.3-0.5-0.5-0.9-0.8-1.4
		L93,96c-0.1-0.1-0.1-0.3-0.1-0.5c0-0.1,0-0.2,0-0.3l0.1-0.4c0.1-0.2,0.1-0.4,0.2-0.5c0.2-0.2,0.4-0.4,0.6-0.6
		c0.1-0.2,0.3-0.5,0.4-0.8c0.2-0.4,0.3-0.8,0.4-1.3c0.3,0.1,0.5,0.2,0.8,0.2c0.3,0,0.7,0,1-0.2c0.2-0.1,0.3-0.1,0.4-0.2
		c0.1-0.1,0.2-0.2,0.3-0.2c0.4-0.3,0.7-0.6,1-1C97.9,91,97.8,91.8,97.6,92.5z M98.2,88.7c-0.2,0.3-0.5,0.5-0.7,0.7
		c-0.3,0.3-0.7,0.6-1.1,0.8c-0.1,0.1-0.2,0.1-0.3,0.2c-0.1,0-0.1,0.1-0.2,0.1c-0.2,0-0.3,0.1-0.5,0c-0.3-0.1-0.6-0.2-0.8-0.5
		c-0.3-0.4-0.6-0.8-0.8-1.2l-0.9-1.2c-0.2-0.3-0.3-0.6-0.3-1l0,0.1c0.4-0.9,0.8-1.7,1.1-2.6c0,0,0,0,0.1-0.1
		c0.1,0.2,0.3,0.5,0.5,0.6c0.1,0.1,0.2,0.1,0.2,0.2l0.2,0.1c0.1,0.1,0.3,0.2,0.4,0.3c0.3,0.2,0.6,0.3,0.9,0.4
		c0.8,0.4,1.7,0.6,2.6,0.5C98.5,87,98.4,87.9,98.2,88.7z M107.7,104.2c-0.2-0.2-0.5-0.5-0.7-0.7c-0.6-0.6-1.2-1.2-1.9-1.7
		c-0.2-0.1-0.4-0.2-0.5-0.3l0.3,0.2c-0.3-0.2-0.7-0.4-1-0.6c-0.3-0.2-0.6-0.5-0.9-0.8c-0.1-0.2-0.2-0.3-0.3-0.5
		c-0.1-0.2-0.1-0.4,0-0.5c0.1-0.1,0.2-0.2,0.3-0.2C106.3,99.2,106.8,100.9,107.7,104.2z M109.5,102.4c-0.3-0.5-0.7-1-1.1-1.5
		l-1.7-1.6c0,0-0.1-0.1-0.1-0.1c-0.3-0.2-0.5-0.5-0.7-0.8c-0.1-0.2-0.2-0.3-0.2-0.5c0-0.2,0-0.4,0.1-0.5c0.3-0.3,0.7-0.2,1,0
		c0.3,0.2,0.6,0.5,0.8,0.8c0.1,0.2,0.3,0.3,0.4,0.5c0.1,0.2,0.2,0.2,0.3,0.4c0,0,0,0.1,0.1,0.1l0.7,1.6c0.2,0.5,0.3,0.9,0.5,1.4
		c0.1,0.3,0.2,0.5,0.3,0.8C109.7,102.7,109.6,102.5,109.5,102.4z M111.6,98.7c0.1,0.1,0.1,0.3,0.2,0.4c0.1,0.2,0.2,0.4,0.3,0.6
		c0.2,0.4,0.3,0.9,0.4,1.4c0.2,0.9,0.3,1.9,0,2.8c-0.2,0.7-0.5,1.3-1,1.9c0.1-0.6,0.2-1.3,0.3-2c0.1-0.9,0.1-1.9-0.3-2.8
		c-0.2-0.4-0.5-0.8-0.7-1.2c0,0,0-0.1,0-0.1l-0.8-1.3c-0.2-0.3-0.3-0.6-0.4-0.9c-0.1-0.2-0.1-0.4-0.1-0.6c0-0.2,0-0.5,0.2-0.5
		c0.5-0.1,0.9,0.3,1.2,0.7c0,0.1,0.1,0.1,0.1,0.2L111.6,98.7z M107.6,93.9L107.6,93.9c0.1-0.1,0.1-0.1,0.2-0.1
		c0.1-0.1,0.1-0.1,0.1-0.1c0.1-0.1,0.1-0.1,0.1-0.2c0.1-0.2,0.1-0.3,0.1-0.4c0-0.2,0-0.4,0-0.6c0-0.4-0.1-0.7-0.2-1
		c0-0.1-0.1-0.2-0.1-0.3l0.4,0.2c0.7,0.3,1.3,0.8,1.8,1.4c0.9,1.1,1.4,2.7,1.2,4c-0.2-0.2-0.4-0.3-0.6-0.4c-0.2-0.1-0.5-0.2-0.8-0.1
		c-0.1,0-0.2,0.2-0.2,0.3c0,0.1,0,0.2-0.1,0.3c0,0.2,0,0.5,0,0.7c0,0.4,0.1,0.7,0.2,1.1c-0.1,0-0.1,0.1-0.2,0.1
		c-0.1-0.1-0.2-0.3-0.3-0.4c-0.1-0.2-0.4-0.4-0.5-0.5c-0.2-0.1-0.3-0.2-0.5-0.3c-0.4-0.2-0.7-0.4-1.2-0.5c-0.4-0.1-0.9-0.1-1.2,0.2
		c-0.2,0.2-0.2,0.4-0.2,0.6c0,0.2,0.1,0.4,0.1,0.6c0.1,0.3,0.2,0.6,0.3,0.8c0,0,0,0,0,0c0,0,0,0-0.1-0.1c-0.2-0.2-0.4-0.3-0.7-0.4
		c-0.2-0.1-0.4-0.2-0.6-0.2c-0.1,0-0.2,0-0.2-0.1c0.1-0.4,0.1-0.9,0.1-1.3c0-0.9-0.2-1.9-0.8-2.8c-0.2-0.2-0.3-0.4-0.6-0.6
		c-0.2-0.2-0.4-0.3-0.6-0.4l-0.8-0.4c0.7,0.1,1.6,0.1,2.3-0.4c0.3,0.5,0.7,0.9,1.3,1.2c0.6,0.3,1.4,0.5,2.2,0.1L107.6,93.9z
		 M106.8,93C106.8,93,106.8,92.9,106.8,93C106.8,93,106.8,93,106.8,93z M103.4,88.9l0.2-0.1l0.1,0c0,0,0.1,0,0.1-0.1
		c0.1-0.1,0.1-0.1,0.1-0.1c0,0,0,0,0,0c0.5,0.7,1.1,1.4,1.9,1.9c0.3,0.2,0.7,0.4,1.1,0.5c0,0.3,0.1,0.5,0.1,0.8c0,0.3,0,0.6,0,0.8
		c0,0.1,0,0.2,0,0.3c-0.4,0.1-0.8,0.1-1.3,0c-0.5-0.1-0.9-0.2-1.5-0.4l0,0c0,0,0.1-0.1,0.1-0.1c0.1-0.1,0.1-0.1,0.1-0.1
		c0-0.1,0-0.1,0.1-0.2c0-0.2,0-0.3,0-0.4c0-0.2-0.1-0.4-0.1-0.6c-0.1-0.4-0.3-0.8-0.5-1.1c-0.2-0.3-0.4-0.6-0.6-0.8
		C103.2,89,103.3,89,103.4,88.9z M103.1,91.6c-0.4,0.2-1,0.3-1.6,0.3c-0.6,0-1.1-0.1-1.8-0.1c0.2-1.2,0.3-2.4,0.3-3.6
		c0.2,0.2,0.5,0.4,0.8,0.5c0.5,0.3,1.1,0.4,1.7,0.4c0.2,0.3,0.3,0.7,0.4,1.1c0.1,0.3,0.1,0.7,0.2,1
		C103.1,91.3,103.2,91.4,103.1,91.6z M102.7,86.2c0.1,0.2,0.2,0.5,0.3,0.7c0,0.1,0,0.3,0,0.4c0,0.1,0,0.3-0.1,0.4
		c-0.5,0.1-1,0.1-1.6-0.1c-0.4-0.1-0.7-0.2-1.1-0.3c0-0.4,0-0.7,0-1.1c0.1-1.1,0.1-2.1,0.4-3.1c0.1-0.5,0.3-0.9,0.6-1.3
		c0.3-0.3,0.6-0.5,1-0.6c-0.2,0.8-0.2,1.6-0.1,2.4C102.2,84.6,102.4,85.4,102.7,86.2z M102.4,81.1c-0.5-0.1-1.1,0-1.6,0.3
		c-0.5,0.3-0.9,0.9-1.2,1.4c-0.5,1-0.7,2-0.9,3c-0.8-0.2-1.6-0.5-2.3-0.9c-0.2-0.2-0.5-0.3-0.7-0.5c-0.1-0.1-0.2-0.2-0.4-0.3
		L95.2,84c0,0-0.1-0.1-0.1-0.1c-0.3-0.3-0.4-0.8-0.3-1.1c0-0.1,0.1-0.2,0.1-0.3c0-0.1,0.1-0.1,0.2-0.3l0.6-0.7
		c0.4-0.5,0.7-1,1.1-1.5l0.3-0.4c0.1-0.1,0.1-0.2,0.2-0.2c0.2-0.1,0.4-0.3,0.6-0.3l0.4-0.1c0.2,0,0.3-0.1,0.5-0.1
		c0.2,0,0.4-0.1,0.6-0.2c0.4,0.5,0.8,0.9,1.2,1.3C101.1,80.4,101.8,80.8,102.4,81.1C102.4,81,102.4,81,102.4,81.1z M101,79.6
		c-0.5-0.6-0.9-1.2-1.3-1.9c-0.4-0.6-0.7-1.3-0.9-2c-0.1-0.3-0.2-0.7-0.2-0.9c0-0.3,0.1-0.5,0.3-0.7c0.2-0.2,0.4-0.3,0.6-0.4
		l1.1-0.2c0.8-0.1,1.5-0.3,2.3-0.4c0.3-0.1,0.6,0,0.8,0.1c0.2,0.1,0.6,0.4,0.9,0.6c0.4,0.3,0.8,0.6,1.2,0.8c0,0,0,0.1,0,0.1l0,0.2
		c0,0.3,0,0.5,0,0.8c0,0.8,0.2,1.8,0.8,2.4c0,0-0.1,0-0.1,0c-0.3,0-0.7,0.1-1,0.1l-0.5,0l-0.1,0.4c0,0.1-0.2,0.4-0.4,0.6
		c-0.2,0.2-0.4,0.5-0.7,0.7c-0.4,0.4-0.8,0.7-1.3,1.1C101.9,80.6,101.4,80.1,101,79.6z M123.9,96.8c-0.6-0.4-1-1-1.4-1.7l0.1,0.1
		c-0.2-0.4-0.4-0.7-0.7-1c-0.2-0.3-0.5-0.5-0.7-0.8c-0.5-0.5-1-1-1.5-1.5c-1.1-0.9-2.2-1.7-3.4-2.4c-0.3-0.2-0.6-0.3-1.1-0.5
		c-0.2,0-0.2,0-0.3,0l-0.2,0l-0.4-0.1c-0.6-0.2-1.2-0.5-1.7-0.9c-0.5-0.4-1-0.9-1.4-1.4c-0.4-0.5-0.7-1.2-0.9-1.7l0-0.1l-0.3-0.2
		c-0.6-0.4-1.1-0.7-1.8-1.1c-0.6-0.3-1.2-0.6-1.8-0.9c-1.2-0.5-2.4-1.1-3.7-1.5c0.5-0.2,1-0.4,1.5-0.7c0.3-0.2,0.6-0.4,0.9-0.6
		c0.2-0.2,0.4-0.3,0.6-0.6c0.7,0,1.4-0.1,2-0.3c0.7-0.2,1.4-0.5,2.1-0.7c0.7-0.2,1.5-0.4,2.2-0.4c0.7,0,1.3,0.3,1.9,0.7
		c0.3,0.2,0.6,0.4,0.8,0.6c0.1,0.1,0.2,0.2,0.3,0.4c0.1,0.1,0.3,0.3,0.4,0.4c0.5,0.6,1.3,1.1,2,1.3c0.7,0.3,1.5,0.5,2.3,0.6
		c0.6,0.1,1.3,0,1.9-0.3c0.4,0.8,1,1.6,1.3,2.4c0.4,0.9,0.6,1.9,0.8,2.8c0.2,1,0.4,1.9,0.7,2.9c0.3,0.9,0.5,1.9,0.8,2.8l0.1,0.2
		l0.1,0.1c0.4,0.5,0.8,1.1,1.1,1.6c-0.3,0.1-0.5,0.2-0.7,0.5c-0.3-0.2-1-0.6-1.3-0.4c-0.3,0.2,0.4,2.2,1.3,2.7
		C125,97.2,124.4,97.1,123.9,96.8z"/>
</g>
</svg>
