<?xml version="1.0" encoding="utf-8"?>
<!-- Generator: Adobe Illustrator 23.0.0, SVG Export Plug-In . SVG Version: 6.00 Build 0)  -->
<svg version="1.1" id="Layer_1" xmlns="http://www.w3.org/2000/svg" xmlns:xlink="http://www.w3.org/1999/xlink" x="0px" y="0px"
	 viewBox="0 0 128 128" style="enable-background:new 0 0 128 128;" xml:space="preserve">
<style type="text/css">
	.st0{fill:#2D2D2D;}
</style>
<g>
	<path class="st0" d="M103.8,8.6c-0.5-0.1-1.4-0.2-2.1,0.2c-0.7,0.4-1,1.2-1.1,1.7c-0.1,0.2,0.1,0.4,0.3,0.4c0.5,0.1,1.3,0.1,2-0.3
		c0.7-0.4,1-1.2,1.2-1.6C104.1,8.8,104,8.6,103.8,8.6z"/>
	<path class="st0" d="M124.9,1.6c-0.1-0.4-0.4-0.7-0.6-0.9c-0.3-0.2-0.5-0.4-0.9-0.5c-0.6-0.2-1.3-0.2-1.9-0.1
		c-0.1,0-0.3,0.1-0.4,0.1l-0.3,0.1c-0.2,0.1-0.4,0.2-0.6,0.2c-0.4,0.1-0.9,0.3-1.3,0.4c-1.8,0.5-3.7,0.8-5.6,1.1
		c-1.7,0.3-3.6-0.1-5.5-0.4c-1.9-0.3-4-0.3-6,0.1c-2,0.4-3.8,1-5.6,1.8c-1.8,0.8-3.5,1.7-5.2,2.7l-2.5,1.5c-0.8,0.5-1.7,0.9-2.5,1.3
		c-1.7,0.8-3.5,1.5-5.3,2.2c-1.8,0.7-3.6,1.5-5.4,2.2c-3.5,1.5-7,3.3-10.4,5c-1.7,0.9-3.4,1.8-5.1,2.7l-5,2.7l-7.6-0.3
		c-2.6-0.1-5.1-0.2-7.7-0.4l-0.9-0.1c-0.3,0-0.7,0-1,0c-0.7,0-1.3,0-2,0.1c-1.3,0.1-2.6,0.3-3.9,0.5c-1.3,0.3-2.6,0.7-3.8,1.3
		c-0.6,0.3-1.2,0.7-1.8,1.2c-0.6,0.5-1.1,1.1-1.4,1.8l-0.2,0.5l0.4,0.4c0.2,0.2,0.4,0.3,0.5,0.4c0.1,0.1,0.3,0.1,0.4,0.2
		c0.2,0.1,0.5,0.2,0.7,0.2c0.4,0.1,0.9,0.2,1.3,0.3c0.8,0.2,1.7,0.4,2.5,0.6c1.6,0.5,3.1,1.2,4.1,2.2c0.5,0.5,0.9,1.3,1.2,2
		c0.3,0.7,0.6,1.5,0.8,2.3c0.3,1.6,0.3,3.2,0,4.7c-0.1,0.4-0.2,0.8-0.4,1.1c-0.1,0.4-0.3,0.7-0.5,1.1l-1.2,2.3L31.5,51
		c-1.6,3.1-3.1,6.2-4.7,9.3c-0.8,1.6-1.5,3.1-2.2,4.7c-0.7,1.6-1.4,3.2-2,4.9c-1.1,3.3-1.9,6.7-2.7,10.1c-0.7,3.4-1.3,6.9-1.7,10.3
		c-0.4,3.5-0.7,6.9-0.5,10.4c0,0.2-0.1,0.4-0.1,0.6c-1.2,0.3-2.5,0.6-3.7,1.1c-1.3,0.4-2.5,1-3.7,1.6c-1.2,0.6-2.4,1.3-3.4,2.2
		c-1.1,0.8-2.1,1.8-2.8,3.1L3,111l1.8-0.4c0.7-0.2,1.5-0.3,2.2-0.5c0.7-0.2,1.5-0.3,2.1-0.3c0.3,0,0.4,0.1,0.7,0.3
		c0,0.1,0.1,0.1,0.1,0.2l0.2,0.2c0.1,0.2,0.3,0.3,0.5,0.5c0.6,0.5,1.3,0.6,2,0.6c-0.1,0.4-0.1,0.9-0.2,1.3l0,0.1l0.1,0.1
		c1.1,1.1,2.1,2.2,3.1,3.3l1.2,1.3c1.1,1.2,1.7,2.8,1.7,4.4c0,0,0,0.1,0,0.1c0,0.5,0,1,0,1.4c0,0.5-0.1,0.9-0.1,1.3l-0.6,2.8l2.1-2
		c1.5-1.4,2.7-3,3.7-4.8c1-1.8,1.6-3.8,1.7-5.9c0-1,0-2-0.2-3c-0.1-1-0.3-1.9-0.5-2.9c-0.4-1.8-1-3.5-2-5.2
		c-0.1-0.2-0.1-0.4-0.1-0.6c1.5-4.6,4.2-8.6,7.1-12.4c3.1-3.8,6.5-7.4,10.1-10.7c1.8-1.7,3.6-3.3,5.5-4.9c1.9-1.6,3.8-3.2,5.8-4.8
		c3.8-3.2,7.5-6.5,11.4-9.6l2.1-1.4c0.4-0.2,0.7-0.5,1.1-0.7l1.1-0.7c0.7-0.5,1.4-0.9,2.1-1.4l2.1-1.5c0.7-0.5,1.4-1,2.1-1.5
		c0.7-0.5,1.4-1,2.1-1.5l2-1.6c0.7-0.5,1.3-1.1,1.9-1.7c2.6-2.3,5-4.6,7.4-7c2.2-2.3,4.4-4.7,6.4-7.3c0.1,0.2,0.1,0.4,0.2,0.6
		l0.2,0.4l0.2,0.4c0.1,0.2,0.2,0.5,0.3,0.7c0.2,0.5,0.4,1,0.5,1.5c0.3,1,0.6,2.1,0.8,3.2c0.3,2.2,0.3,4.4-0.5,6.4l-0.4,0.9l0.9-0.4
		c1.2-0.6,2.2-1.3,3.2-2.2c0.9-0.9,1.8-1.9,2.5-2.9c0.7-1.1,1.4-2.2,1.8-3.4c0.2-0.6,0.5-1.2,0.6-1.9c0.1-0.3,0.1-0.7,0.2-1
		c0.1-0.3,0.1-0.7,0.1-1c0.2-2.6,0-5.1-0.4-7.5c-0.2-1.2-0.4-2.5-0.7-3.7c0-0.2-0.1-0.4-0.2-0.6c0.2-0.2,0.4-0.5,0.5-0.7
		c0.4-0.5,0.8-1.1,1.2-1.7c0.8-1.1,1.5-2.2,2.4-3.3c0.8-1.1,1.7-2.1,2.6-3.1c0.9-1,1.8-2,2.7-2.9c1.7-0.9,3.4-1.8,5-2.9
		c1.6-1.1,3.2-2.2,4.7-3.5c0.8-0.6,1.5-1.3,2.2-2c0.4-0.4,0.7-0.7,1.1-1.2c0.2-0.3,0.3-0.5,0.4-0.9C125,2.4,125,2,124.9,1.6z
		 M26.2,65.9c0.7-1.6,1.5-3.1,2.3-4.6c1.6-3.1,3.1-6.2,4.7-9.3l2.4-4.6l1.2-2.3c0.2-0.4,0.4-0.8,0.6-1.3c0.2-0.4,0.3-0.9,0.4-1.4
		c0.5-1.9,0.4-3.8,0-5.6c-0.2-0.9-0.5-1.8-0.9-2.7c-0.2-0.4-0.4-0.8-0.7-1.2c-0.2-0.4-0.5-0.8-0.9-1.2c-1.4-1.5-3.2-2.2-5-2.7
		c-0.9-0.3-1.7-0.5-2.6-0.6c-0.4-0.1-0.8-0.2-1.2-0.3c-0.1,0-0.1,0-0.2-0.1c0.5-0.6,1.1-1.1,1.9-1.5c1-0.5,2.2-0.9,3.4-1.2
		c1.2-0.3,2.4-0.5,3.7-0.6c0.6-0.1,1.2-0.1,1.9-0.1c0.3,0,0.6,0,0.9,0l1,0c2.6,0.1,5.2,0.1,7.7,0.1l7.7,0l0.1,0l0,0l5.1-2.9
		c1.7-0.9,3.4-1.9,5.1-2.8c1.7-0.9,3.4-1.8,5.1-2.6c1.7-0.8,3.5-1.6,5.3-2.4c1.8-0.8,3.6-1.4,5.4-2.1c1.8-0.7,3.6-1.3,5.4-2
		c0.9-0.4,1.8-0.8,2.7-1.2l2.6-1.4C93,6.5,94.6,5.7,96.3,5c-0.2,0.3-0.4,0.6-0.6,0.9c-0.4,0.5-0.8,0.9-1.3,1.4
		c-0.9,0.9-1.9,1.7-2.9,2.4c-1,0.7-2.1,1.4-3.2,1.9c-0.6,0.3-1.1,0.5-1.7,0.7c-0.3,0.1-0.6,0.2-0.9,0.3l-0.9,0.3
		c-2.5,0.7-4.9,1.8-7.2,2.9c-2.3,1.1-4.6,2.4-6.8,3.7c-2.2,1.4-4.4,2.7-6.4,4.3c-0.5,0.4-1,0.8-1.5,1.3c-0.5,0.4-0.9,0.9-1.4,1.4
		c-0.9,0.9-1.8,1.9-2.6,2.9c-1.7,2-3.3,4-4.7,6.2c-1.4,2.1-2.6,4.4-3.6,6.8c-1.7,3.2-3.5,6.3-5.7,9.1c-1.1,1.4-2.3,2.7-3.6,3.7
		c-0.7,0.5-1.4,1-2.1,1.3c-0.8,0.4-1.7,0.8-2.5,1.2c-1.6,0.9-3.2,1.9-4.7,3c-1.5,1.2-2.8,2.4-4.1,3.8c-1,1.2-2,2.4-2.8,3.6
		C25.5,67.4,25.8,66.7,26.2,65.9z M54.7,66.5c0.9-1,0.8-3,1.8-3.5c1-0.5,2.3-0.2,3.2-0.2C58.1,64.1,56.4,65.3,54.7,66.5z M62.1,61
		L62.1,61L62.1,61c-0.5,0.4-1,0.7-1.4,1.1c0.4-0.9,2.1-2.8,3.7-3.4c0.6-0.2,1-0.3,1.5-0.4C64.7,59.2,63.4,60.1,62.1,61z M77.9,48.2
		c-2.6,2.2-5.1,4.5-7.7,6.6c-0.1,0.1-0.2,0.2-0.3,0.2c-0.1-0.3-0.2-0.6-0.1-1.1c0.2-1.1,0.7-2.1,2.7-4.2c2-2.1,3.2-1.2,5.8-2.2
		c0.1,0,0.2-0.1,0.4-0.2C78.5,47.8,78.2,48,77.9,48.2z M123.2,2.8c-0.2,0.3-0.5,0.6-0.8,1c-0.6,0.7-1.3,1.3-2.1,1.9
		c-2.9,2.5-6,4.7-9.3,6.5l-0.1,0l-0.1,0.1c-1.8,2-3.6,4.1-5.2,6.4c-0.8,1.1-1.5,2.3-2.2,3.4l-1.1,1.7c-0.1,0.2-0.2,0.4-0.4,0.5
		c-0.1-0.3-0.2-0.6-0.3-0.9c-0.2-0.6-0.4-1.2-0.8-1.7c0,0-0.1,0-0.1,0c0,0-0.1,0.1-0.1,0.1l0,0c0.3,1.1,0.6,6.1,0.7,7.3
		c0,1.2,0.1,2.4,0.1,3.6c0,1.2,0,2.4-0.1,3.6c-0.2,2.3-1,4.5-2.2,6.5c-0.6,1-1.3,2-2,2.9c-0.5,0.7-1.1,1.3-1.8,1.8
		c0.3-1.9,0.3-3.8,0.2-5.7c-0.1-1.1-0.1-2.2-0.3-3.4c-0.1-0.6-0.2-1.1-0.3-1.7c-0.1-0.3-0.1-0.6-0.2-0.8l-0.1-0.4l-0.1-0.4
		c-0.3-1-0.4-1.9-0.3-2.9c0.1-0.9,0.6-1.8,1.2-2.7c0.3-0.4,0.6-0.8,1-1.2c0.2-0.2,0.4-0.4,0.6-0.6c0.1-0.1,0.2-0.2,0.3-0.4
		c0.1-0.2,0.2-0.3,0.3-0.5c0.1-0.3,0.1-0.8,0-1.1c-0.1-0.3-0.3-0.6-0.5-0.8c-0.4-0.4-0.9-0.7-1.5-1c0,0-0.1,0-0.1,0c0,0,0,0.1,0,0.1
		l0,0c0.4,0.4,0.8,0.8,1.1,1.2c0.3,0.4,0.3,0.9,0.1,1.2c-0.1,0.1-0.2,0.3-0.4,0.5l-0.6,0.5c-0.4,0.4-0.9,0.8-1.2,1.2
		c-0.8,0.9-1.5,2-1.7,3.3c-0.2,0.9-0.1,1.9,0.1,2.8c-0.1,0-0.1,0.1-0.2,0.1c-0.2-0.1-0.6-0.2-0.5-1.2c0.2-2-0.2-1.9,0.4-4.4
		c0.6-2.4-1-0.4-1.4,0.1c-0.4,0.6,0.1,1.2-0.8,2.2c-0.9,0.9-1.5-1-2.1-0.6c-0.7,0.4-1.5,1.4-0.5,1.4c1.1,0,0.8,0.3,0.8,1
		c0,0.2-1.7,2.7-1.7,2.7c1.3,2.2-1.4,1.5-2.2,1.2c-2-0.7-3.2,2.8-3.9,3.6c-1.7,1.8-1.8,0.7-1.2-1.3c0.6-2-1.5,0.1-2.5,0.6
		c-1.1,0.5-1.5,1.1-2.7,2.1c-1.2,1-0.4,0.8,2.5,0s-0.3,1.3-1.2,2.6c-0.8,1.3-1.7,1.8-3.4,1.6c-1.7-0.2-1.3-0.6-3-0.2
		c-1.6,0.4-1.1,1.1-1,2c0.1,1-1.2,0.7-2.9,1.5c-1.6,0.7-2.6,4.4-3.8,5.9c-1.2,1.4-3.5,3-6,5.4c-2.5,2.4-2.5,1.1-5.5,2.2
		c-1.9,0.7-3.9,3.3-5.2,5.1c-0.4,0.5,0.2,1.2,0.8,0.9c0.8-0.4,1.7-0.8,2.7-1.3c1.4-0.7,4.3-0.6,5.8-1.4c-1.4,1-2.7,2-4.1,3
		c-2,1.5-4,3-6,4.5c-2,1.5-3.9,3.1-5.8,4.8c-3.7,3.4-7.1,7.1-10.1,11.2c-1.5,2.1-2.8,4.2-3.8,6.5c-1.1,2.2-2,4.7-2.3,7.1
		c0,0,0,0.1,0,0.1c0.1,0.5,1.1,3.8,1.2,5.5c0.1,0.9,0.2,1.9,0.2,2.8c0,0.5,0,0.9,0,1.4c0,0.2,0,0.5,0,0.7c0,0.2,0,0.4-0.1,0.7
		c-0.2,1.8-0.8,3.5-1.7,5c-0.5,0.9-1,1.7-1.6,2.5c0-0.1,0-0.2,0-0.3c0-1-0.1-2-0.3-3l0-0.3l-0.2-0.1l-3.5-3c-1.1-1-2.2-2-3.3-3
		c0.1-0.5,0.2-1,0.2-1.5l0.1-0.3l-0.4,0c-0.7,0-1.4-0.2-1.9-0.6c-0.2-0.2-0.3-0.5-0.6-0.9c-0.2-0.4-0.7-0.8-1.2-0.9
		c-0.5-0.1-0.9-0.1-1.3-0.1c-0.4,0-0.8,0-1.2,0.1c-0.1,0-0.1,0-0.2,0c0.4-0.4,0.8-0.8,1.3-1.2c1-0.8,2-1.5,3.1-2.2
		c2.1-1.3,4.3-2.5,6.6-3.6c-0.1,0.6-0.2,1.2-0.3,1.8c-0.2,0.9-0.5,1.7-0.7,2.6c0,0,0,0.1,0.1,0.1c0,0,0.1,0,0.1-0.1
		c0.3-0.9,0.6-1.7,0.9-2.6c0.3-0.9,0.5-1.8,0.6-2.7l0,0l0,0c0-3.4,0.5-6.9,1-10.3c0.6-3.4,1.3-6.8,2.1-10.1c0.8-3.1,1.6-6.3,2.7-9.3
		c0.4-0.6,0.9-1.1,1.3-1.7c1.1-1.4,2.3-2.8,3.6-4c2.6-2.5,5.5-4.5,8.7-6.1c0.8-0.4,1.6-0.8,2.4-1.1c0.9-0.4,1.8-0.9,2.5-1.5
		c1.5-1.2,2.8-2.6,3.9-4.1c2.2-3,4-6.2,5.6-9.5l0-0.1l0,0c1.6-4.7,4-9.3,7.3-13.2c0.8-1,1.6-1.9,2.5-2.8c0.9-0.9,1.8-1.8,2.8-2.5
		c1-0.7,2.2-1.3,3.3-2c1.1-0.6,2.3-1.2,3.4-1.8l6.9-3.4c2.3-1.1,4.6-2.2,7-3l0.9-0.3c0.3-0.1,0.6-0.2,0.9-0.4
		c0.6-0.3,1.2-0.6,1.8-0.9c1.2-0.7,2.2-1.4,3.2-2.3c1-0.8,1.9-1.8,2.8-2.8c0.4-0.5,0.8-1,1.2-1.6c0.3-0.4,0.5-0.8,0.7-1.3
		c1.7-0.7,3.5-1.2,5.3-1.5c1.8-0.3,3.6-0.3,5.5,0c1.8,0.2,3.9,0.7,6,0.4c1.9-0.3,3.8-0.7,5.8-1.2c0.5-0.1,1-0.3,1.4-0.4
		c0.2-0.1,0.5-0.2,0.7-0.3l0.3-0.1c0.1,0,0.2-0.1,0.2-0.1c0.3-0.1,0.7-0.1,0.9,0c0.2,0.1,0.3,0.2,0.4,0.3c-0.1,0.1-0.3,0.3-0.5,0.4
		c-0.3,0.2-0.7,0.5-1,0.7c-0.7,0.4-1.4,0.9-2.1,1.3c-0.7,0.4-1.4,0.8-2.1,1.2c-0.4,0.2-0.7,0.4-1.1,0.6c-0.3,0.2-0.7,0.3-1.1,0.4
		c-0.7,0.2-1.5,0.4-2.3,0.6c-0.8,0.2-1.6,0.3-2.4,0.4l-1.2,0.2c-0.5,0.1-0.9,0.2-1.3,0.5c-0.8,0.5-1.3,1.2-1.6,2
		c0.5-0.7,1.1-1.2,1.8-1.5c0.3-0.1,0.7-0.2,1.1-0.2c0.4,0,0.8,0,1.3,0c1.7-0.1,3.4-0.3,5-0.8c0.4-0.1,0.8-0.3,1.2-0.5
		c0.4-0.2,0.7-0.4,1.1-0.6c0.7-0.4,1.4-0.9,2.1-1.4c0.7-0.5,1.3-1,1.9-1.6c0.3-0.3,0.6-0.6,0.9-0.9c0.1-0.1,0.2-0.3,0.3-0.5
		c0,0,0,0,0,0C123.5,2.2,123.4,2.5,123.2,2.8z"/>
	<path class="st0" d="M58.6,48.5c-1.8,2.1-1.5,1.9-2.1,2.3c-0.6,0.5-1.2,0.7-1.2,0.7c-1.4,1.6-3.1,2.7-1.7,2.6
		c1.4-0.1,1,0.3,2.4-1.2c1.4-1.4,0.4-0.6,2.3-2.5C60.5,48.5,60.4,46.4,58.6,48.5z"/>
	<path class="st0" d="M73.5,36.3c-1.4-0.9-2.9-0.4-2.9-0.4c-0.8,2.1-2.1,1.5-1.3,2.9c0.8,1.5,1.9,2.9,2,1.5c0.1-1.4,0.1-1.3,0.6-2.3
		C72.6,37,75,37.3,73.5,36.3z"/>
	<path class="st0" d="M90.7,23.3c-1.6,1.3-1.4,1.6-2.3,2.2c-0.9,0.7-2.4,1.1-0.8,0.9c1.6-0.2,1.9-0.2,2.8-1.2c0.9-1,2.5-0.9,1.7-1.6
		C91.4,23,90.7,23.3,90.7,23.3z"/>
	<path class="st0" d="M74.5,49.5c-0.6,0-1.1,1-1.1,1l-0.4,0c-1.2,0.9-0.3,1.5,0.4,0.7C74.1,50.5,75.1,49.5,74.5,49.5z"/>
	<path class="st0" d="M40.8,72.6c-0.7,0.6-1.4,2.1-1.4,2.1c-1.9,1.7-6.4,4.5-4,4.3c2.4-0.2,3,0.3,4.3-1.6c1.3-1.9,0.6-1.3,2.2-2.6
		C43.5,73.5,41.4,72,40.8,72.6z"/>
</g>
</svg>
