<?xml version="1.0" encoding="utf-8"?>
<!-- Generator: Adobe Illustrator 24.1.2, SVG Export Plug-In . SVG Version: 6.00 Build 0)  -->
<svg version="1.1" id="Layer_1" xmlns="http://www.w3.org/2000/svg" xmlns:xlink="http://www.w3.org/1999/xlink" x="0px" y="0px"
	 viewBox="0 0 128 128" style="enable-background:new 0 0 128 128;" xml:space="preserve">
<style type="text/css">
	.st0{fill:#2D2D2D;}
</style>
<g>
	<path class="st0" d="M66.7,113.8c-0.9-0.4-1.9-0.7-2.8-0.7c-2,0-3.9,0.9-5.2,2.3c-0.7,0.7-1.2,1.6-1.4,2.5
		c-0.3,0.9-0.3,1.9-0.3,2.8c0.2,1.8,1,3.4,2.2,4.7c1.2,1.3,2.8,2.4,4.7,2.6c0.9,0.1,1.9-0.1,2.8-0.5c0.9-0.4,1.6-1,2.2-1.8
		c1.1-1.5,1.4-3.3,1.4-5c0-1.7-0.3-3.4-1.4-5C68.3,115,67.6,114.3,66.7,113.8z M70,120.7c0,0.8-0.2,1.6-0.6,2.3
		c-0.4,0.7-1,1.2-1.6,1.6c-1.3,0.8-2.5,1.2-3.9,1.4c-0.7,0.1-1.4,0.1-2.2-0.1c-0.7-0.2-1.4-0.5-2-1c-1.2-1-1.7-2.7-1.5-4.2
		c0.2-1.5,1-2.7,2-3.7c1-0.9,2.3-1.3,3.7-1.4c0.7,0,1.3,0.1,2,0.3c0.6,0.2,1.3,0.5,1.9,0.9c0.6,0.4,1.2,0.9,1.6,1.6
		C69.8,119.1,70,119.9,70,120.7z"/>
	<path class="st0" d="M123.2,57.4c-0.9-0.3-1.9-0.3-2.8-0.3c-1.8,0.2-3.4,1-4.7,2.2c-1.3,1.2-2.4,2.8-2.6,4.7
		c-0.1,0.9,0.1,1.9,0.5,2.8c0.4,0.9,1,1.6,1.8,2.2c1.5,1.1,3.3,1.4,5,1.4c1.7,0,3.4-0.3,5-1.4c0.8-0.5,1.4-1.3,1.9-2.2
		c0.4-0.9,0.7-1.9,0.7-2.8c0-2-0.9-3.9-2.3-5.2C125,58.2,124.1,57.7,123.2,57.4z M125.2,66.1c-0.2,0.6-0.5,1.3-0.9,1.9
		c-0.4,0.6-0.9,1.2-1.6,1.6c-0.7,0.4-1.5,0.7-2.3,0.7c-0.8,0-1.6-0.2-2.3-0.6c-0.7-0.4-1.2-1-1.6-1.6c-0.8-1.3-1.2-2.5-1.4-3.9
		c-0.1-0.7-0.1-1.4,0.1-2.2c0.2-0.7,0.5-1.4,1-2c1-1.2,2.7-1.7,4.2-1.5c1.5,0.2,2.7,1,3.7,2c0.9,1,1.3,2.3,1.4,3.7
		C125.5,64.8,125.4,65.5,125.2,66.1z"/>
	<path class="st0" d="M116.8,47.5c0.2,0.5,0.6,0.8,1.1,0.8c0.1,0,0.2,0,0.4-0.1c0.6-0.2,1-0.9,0.8-1.5c-0.8-2.6-1.8-5.1-3-7.5
		c-0.3-0.6-1-0.8-1.6-0.6c-0.6,0.3-0.8,1-0.6,1.6C115,42.6,116,45,116.8,47.5z"/>
	<path class="st0" d="M45.3,116.4c-2.4-0.9-4.8-1.9-7.1-3.1c-0.6-0.3-1.3-0.1-1.6,0.5c-0.3,0.6-0.1,1.3,0.5,1.6
		c2.4,1.3,4.9,2.3,7.4,3.2c0.1,0,0.3,0.1,0.4,0.1c0.5,0,0.9-0.3,1.1-0.8C46.2,117.3,45.9,116.6,45.3,116.4z"/>
	<path class="st0" d="M87.7,114.2c-2.3,1.1-4.8,2.1-7.2,2.8c-0.6,0.2-1,0.9-0.8,1.5c0.2,0.5,0.6,0.8,1.1,0.8c0.1,0,0.2,0,0.4-0.1
		c2.6-0.8,5.1-1.8,7.5-3c0.6-0.3,0.8-1,0.6-1.6C88.9,114.2,88.2,113.9,87.7,114.2z"/>
	<path class="st0" d="M117.6,82c-0.6-0.2-1.3,0.1-1.5,0.7c-0.9,2.4-1.9,4.8-3.1,7.1c-0.3,0.6-0.1,1.3,0.5,1.6
		c0.2,0.1,0.4,0.1,0.5,0.1c0.4,0,0.8-0.2,1-0.6c1.3-2.4,2.3-4.9,3.3-7.4C118.5,82.9,118.2,82.2,117.6,82z"/>
	<g>
		<path class="st0" d="M57.9,42l-0.8,0L57,42.7c-0.3,1.1-0.4,2.3-0.2,3.4c0.2,1.1,0.8,2.2,1.5,3c1.5,1.6,3.5,2.5,5.6,2.8
			c1.1,0.1,2.2,0,3.3-0.4c1.1-0.4,1.9-1.3,2.6-2.2c1.3-1.9,1.4-4.5,0.1-6.3c-1.7-0.4-3.7-0.6-5.7-0.8C62.1,41.9,60,41.9,57.9,42z
			 M68.4,48.2c-0.5,0.7-1.2,1.3-1.9,1.7c-0.7,0.5-1.6,0.9-2.5,1c-0.9,0.1-1.9-0.1-2.8-0.5c-0.8-0.5-1.5-1.2-2-2
			c-0.7-1.4-0.9-3-0.5-4.4c1.6,0.1,3.3,0,5-0.2c1.9-0.2,3.9-0.4,6.2-0.8C69.9,45,69.4,46.9,68.4,48.2z"/>
		<path class="st0" d="M52.6,40.1c0.9,0.4,1.9,0.5,2.8,0.7c0.9,0.1,1.9,0.2,2.8,0.1c0.1,0,0.1,0,0.2,0c0.7,0.1,1.4,0.1,2.1,0.1
			c1.1,0.1,2.2,0.1,3.4,0.1c1.1,0,2.2,0,3.3-0.1c0.8,0.1,1.6,0.1,2.4,0.1c1.9-0.1,3.8-0.3,5.6-1c0,0,0.1,0,0.1-0.1
			c0-0.1,0-0.1-0.1-0.1c-1.4-0.5-2.8-0.7-4.3-0.9c0-0.2-0.1-0.5-0.1-0.7c0-0.3,0-0.6-0.1-0.9c-0.1-0.3-0.3-0.6-0.5-0.8
			c-1.2-1-2.1-2.3-3-3.6L67,32.9c-0.1-0.1-0.2-0.2-0.4-0.3c-0.3-0.2-0.7-0.3-1-0.2c-0.5,0-0.8,0.1-1.1,0.1c-0.7,0-1.3,0-2.1,0
			c-0.1,0-0.3,0-0.4,0c-0.2,0-0.3,0.1-0.5,0.1c-0.2,0.1-0.3,0.2-0.4,0.3c-0.1,0.1-0.2,0.2-0.3,0.3L60,34c-0.5,0.6-1,1.2-1.6,1.7
			l-0.9,0.8c-0.3,0.2-0.7,0.7-0.7,1.2l-0.2,1.5c-0.4,0-0.8,0.1-1.2,0.1c-0.9,0.1-1.9,0.3-2.8,0.7c0,0,0,0-0.1,0.1
			C52.5,40.1,52.6,40.1,52.6,40.1z M58,36.9l0.8-0.8c0.6-0.5,1.2-1,1.8-1.5l1-0.7c0.2-0.2,0.2-0.1,0.3-0.1c0,0,0.1,0,0.1,0
			c0,0,0,0,0.1,0.1c0.8,0.2,1.7,0.4,2.5,0.3c0.4,0,0.9-0.2,1.2-0.2c0,0,0.1,0,0.1,0c0,0,0,0,0.1,0l0.2,0.2c1.3,0.9,2.7,1.7,3.8,2.8
			c0.2,0.2,0.3,0.4,0.4,0.7c0,0.2,0,0.5,0,0.8c0,0.2-0.1,0.5-0.1,0.7c-0.3,0-0.5,0-0.8-0.1c-0.8,0-1.6,0-2.4,0.1
			C66.1,39,65,39,63.9,39c-1.1,0-2.2,0.1-3.4,0.1c-0.7,0-1.4,0.1-2.1,0.1c-0.1,0-0.1,0-0.2,0c-0.2,0-0.3,0-0.5,0l0-0.3
			c0-0.4-0.1-0.8-0.1-1.1C57.6,37.5,57.7,37.2,58,36.9z"/>
		<path class="st0" d="M82,53.7l-0.8,0L81,54.4c-0.3,1.1-0.4,2.2-0.2,3.3c0.2,1.1,0.7,2.1,1.4,2.8c1.4,1.6,3.3,2.4,5.4,2.7
			c1,0.1,2.1,0,3.1-0.4c1-0.4,1.9-1.2,2.5-2.1c1.2-1.8,1.4-4.3,0.1-6c-1.6-0.4-3.5-0.6-5.5-0.8C86,53.7,84,53.6,82,53.7z M91.9,59.7
			c-0.5,0.6-1.1,1.2-1.8,1.6c-0.7,0.5-1.5,0.8-2.4,1c-0.9,0.1-1.8-0.1-2.6-0.5c-0.8-0.4-1.4-1.1-1.8-1.9c-0.7-1.3-0.8-2.8-0.5-4.1
			c1.5,0,3.1,0,4.7-0.2c1.8-0.2,3.8-0.4,5.9-0.8C93.4,56.6,92.9,58.4,91.9,59.7z"/>
		<path class="st0" d="M79.6,52.7c0.9,0.1,1.8,0.2,2.7,0.1c0.1,0,0.1,0,0.2,0c0.7,0.1,1.3,0.1,2,0.1c1.1,0.1,2.1,0.1,3.2,0.1
			c1,0,2.1,0,3.1-0.1c0.8,0.1,1.5,0.1,2.3,0.1c1.8-0.1,3.6-0.3,5.4-1c0,0,0.1,0,0.1-0.1c0-0.1,0-0.1-0.1-0.1c-1.3-0.5-2.7-0.7-4-0.9
			c0-0.2-0.1-0.4-0.1-0.6c0-0.3,0-0.5-0.1-0.8c-0.1-0.3-0.2-0.5-0.5-0.7c-1.1-1-2-2.2-2.9-3.4l-0.2-0.2c-0.1-0.1-0.2-0.2-0.4-0.3
			c-0.3-0.2-0.6-0.3-1-0.2c-0.5,0-0.7,0.1-1.1,0.1c-0.7,0-1.3,0-2,0c-0.1,0-0.3,0-0.4,0c-0.2,0-0.3,0.1-0.5,0.1
			c-0.2,0.1-0.3,0.2-0.4,0.3c-0.1,0.1-0.2,0.2-0.2,0.3L84,46.1c-0.5,0.6-1,1.1-1.5,1.6c-0.3,0.3-0.6,0.5-0.8,0.7
			c-0.3,0.2-0.6,0.7-0.7,1.1L80.8,51c-0.4,0-0.7,0.1-1.1,0.1c-0.9,0.1-1.8,0.3-2.7,0.7c0,0,0,0-0.1,0.1c0,0.1,0,0.1,0.1,0.1
			C77.9,52.4,78.8,52.5,79.6,52.7z M82.1,49c0.3-0.3,0.5-0.5,0.8-0.8c0.5-0.5,1.1-1,1.7-1.4l0.9-0.6c0.2-0.2,0.2-0.1,0.3-0.1
			c0,0,0,0,0.1,0c0,0,0,0,0.1,0.1c0.7,0.2,1.6,0.4,2.4,0.3c0.4,0,0.9-0.2,1.1-0.2c0,0,0,0,0.1,0c0,0,0,0,0.1,0l0.2,0.2
			c1.3,0.8,2.6,1.6,3.6,2.6c0.2,0.2,0.3,0.4,0.3,0.6c0,0.2,0,0.5,0,0.8c0,0.2-0.1,0.4-0.1,0.6c-0.2,0-0.5,0-0.7-0.1
			c-0.8,0-1.5,0-2.3,0.1c-1-0.1-2.1-0.1-3.1-0.1c-1.1,0-2.1,0.1-3.2,0.1c-0.7,0-1.3,0.1-2,0.1c-0.1,0-0.1,0-0.2,0
			c-0.2,0-0.3,0-0.5,0l0-0.2c0-0.3-0.1-0.8-0.1-1.1C81.7,49.4,81.8,49.2,82.1,49z"/>
		<path class="st0" d="M97.4,79.8c0.1-1,0.3-2,0.2-2.9c-0.1-1-0.3-2-0.9-2.9c0,0,0,0,0,0c-0.1,0-0.1,0-0.2,0c-0.5,1-0.8,2-0.9,2.9
			c-0.1,1,0.1,2,0.2,2.9c0.1,1,0.2,2,0.3,2.9c0.1,1,0.2,2,0.4,2.9c0,0,0,0.1,0.1,0.1c0.1,0,0.1,0,0.1-0.1c0.2-1,0.3-2,0.4-2.9
			C97.2,81.8,97.3,80.8,97.4,79.8z"/>
		<path class="st0" d="M97.2,67.3c0.5,0.1,1.1,0.3,1.5,0.6c1,0.6,1.7,1.4,2.1,2.5c0.2,0.5,0.3,1.1,0.3,1.7l0.1,2l0.2,3.9
			c0.1,2.6,0.3,5.2,0.5,7.8c0.2-2.6,0.3-5.2,0.5-7.8l0.2-3.9l0.1-2c0-0.7,0-1.5-0.3-2.2c-0.4-1.4-1.4-2.7-2.7-3.5
			c-0.6-0.4-1.3-0.7-2.1-0.9c-0.7-0.2-1.5-0.2-2.1-0.2l-7.8-0.1l-7.8,0.1c-0.3,0-0.6,0-0.9,0c0.1-0.7,0.2-1.5,0.3-2.2l0.2-1.5
			c0-0.2,0-0.5,0.1-0.7c0-0.3,0-0.6,0-0.8c-0.2-2.2-1.7-4.3-3.7-5.2c-1-0.5-2.2-0.7-3.2-0.7l-2.9,0l-5.9,0l-5.9,0c-1,0-1.9,0-3,0
			c-1.1,0-2.2,0.3-3.2,0.9c-1,0.5-1.8,1.3-2.4,2.2c-0.6,0.9-1,2-1,3.1c0,0.6,0,1,0.1,1.5l0.2,1.5c0.1,0.6,0.2,1.3,0.3,1.9
			c-0.3,0-0.6,0-0.9,0l-7.8-0.1l-7.8,0.1c-0.6,0-1.4,0-2.1,0.2c-0.7,0.2-1.4,0.5-2.1,0.9c-1.3,0.8-2.3,2-2.7,3.5
			c-0.2,0.7-0.3,1.5-0.3,2.2l0.1,2l0.2,3.9c0.1,2.6,0.3,5.2,0.5,7.8c0.2-2.6,0.3-5.2,0.5-7.8l0.2-3.9l0.1-2c0-0.6,0.1-1.1,0.3-1.7
			c0.4-1,1.2-1.9,2.1-2.5c0.5-0.3,1-0.5,1.5-0.6c0.6-0.1,1.1-0.1,1.7-0.1l7.8,0.1l7.8-0.1c0.7,0,1.2,0,1.7,0.1
			c0.5,0.1,1.1,0.3,1.5,0.6c1,0.6,1.7,1.4,2.1,2.5c0.2,0.5,0.3,1.1,0.3,1.7l0.1,2l0.2,3.9c0.1,2.6,0.3,5.2,0.5,7.8
			c0.2-2.6,0.3-5.2,0.5-7.8l0.2-3.9l0.1-2c0-0.1,0-0.1,0-0.2c0.1-0.8,0.2-1.6,0.2-2.5c0.1-1,0.3-2.1,0.2-3.1c-0.1-1-0.3-2.1-0.9-3.1
			c0,0,0,0,0,0c-0.1,0-0.1,0-0.1,0c-0.5,1-0.8,2.1-0.9,3.1c-0.1,0.4,0,0.9,0,1.3c-0.4-0.5-0.9-0.9-1.4-1.2c-0.6-0.4-1.3-0.7-2.1-0.9
			c-0.3-0.1-0.6-0.1-0.9-0.1c0.1-0.6,0.2-1.3,0.3-1.9l0.2-1.5c0.1-0.5,0.1-1,0.1-1.4c0.2-1.7,1.3-3.2,2.8-4c0.8-0.4,1.6-0.6,2.4-0.6
			l2.9,0l5.9,0l5.9,0l2.9,0c0.9,0,1.7,0.1,2.5,0.5c1.5,0.7,2.7,2.1,3,3.8c0,0.2,0,0.4,0.1,0.6c0,0.2,0,0.5,0.1,0.7l0.2,1.5
			c0.1,0.7,0.2,1.5,0.4,2.2c-0.3,0-0.7,0.1-1,0.2c-0.7,0.2-1.4,0.5-2.1,0.9c-0.5,0.3-1,0.7-1.4,1.2c0-0.4,0.1-0.9,0-1.3
			c-0.1-1-0.3-2.1-0.9-3.1c0,0,0,0,0,0c-0.1,0-0.1,0-0.1,0c-0.5,1-0.8,2.1-0.9,3.1c-0.1,1,0.1,2.1,0.2,3.1c0.1,0.8,0.1,1.5,0.2,2.3
			c0,0.1,0,0.2,0,0.4l0.1,2l0.2,3.9c0.1,2.6,0.3,5.2,0.5,7.8c0.2-2.6,0.3-5.2,0.5-7.8l0.2-3.9l0.1-2c0-0.6,0.1-1.1,0.3-1.7
			c0.4-1,1.2-1.9,2.1-2.5c0.5-0.3,1-0.5,1.5-0.6c0.6-0.1,1.1-0.1,1.7-0.1l7.8,0.1l7.8-0.1C96.2,67.2,96.7,67.2,97.2,67.3z"/>
		<path class="st0" d="M79.7,76.9c-0.1-1-0.3-2-0.9-2.9c0,0,0,0,0,0c-0.1,0-0.1,0-0.2,0c-0.5,1-0.8,2-0.9,2.9c-0.1,1,0.1,2,0.2,2.9
			c0.1,1,0.2,2,0.3,2.9c0.1,1,0.2,2,0.4,2.9c0,0,0,0.1,0.1,0.1c0.1,0,0.1,0,0.1-0.1c0.2-1,0.3-2,0.4-2.9c0.1-1,0.2-2,0.3-2.9
			C79.6,78.8,79.8,77.8,79.7,76.9z"/>
		<path class="st0" d="M34.4,53.7l-0.8,0l-0.2,0.6c-0.3,1.1-0.4,2.2-0.2,3.3c0.2,1.1,0.7,2.1,1.4,2.8c1.4,1.6,3.3,2.4,5.4,2.7
			c1,0.1,2.1,0,3.1-0.4c1-0.4,1.9-1.2,2.5-2.1c1.2-1.8,1.4-4.3,0.1-6c-1.6-0.4-3.5-0.6-5.5-0.8C38.4,53.7,36.4,53.6,34.4,53.7z
			 M44.3,59.7c-0.5,0.6-1.1,1.2-1.8,1.6c-0.7,0.5-1.5,0.8-2.4,1c-0.9,0.1-1.8-0.1-2.6-0.5c-0.8-0.4-1.4-1.1-1.8-1.9
			c-0.7-1.3-0.8-2.8-0.5-4.1c1.5,0,3.1,0,4.7-0.2c1.8-0.2,3.8-0.4,5.9-0.8C45.8,56.6,45.3,58.4,44.3,59.7z"/>
		<path class="st0" d="M29.3,51.9c0,0.1,0,0.1,0.1,0.1c0.9,0.4,1.8,0.5,2.7,0.7c0.9,0.1,1.8,0.2,2.7,0.1c0.1,0,0.1,0,0.2,0
			c0.7,0.1,1.3,0.1,2,0.1c1.1,0.1,2.1,0.1,3.2,0.1c1,0,2.1,0,3.1-0.1c0.8,0.1,1.5,0.1,2.3,0.1c1.8-0.1,3.6-0.3,5.4-1
			c0,0,0.1,0,0.1-0.1c0-0.1,0-0.1-0.1-0.1c-1.3-0.5-2.7-0.7-4-0.9c0-0.2-0.1-0.4-0.1-0.6c0-0.3,0-0.5-0.1-0.8
			c-0.1-0.3-0.2-0.5-0.5-0.7c-1.1-1-2-2.2-2.9-3.4L43,45.1c-0.1-0.1-0.2-0.2-0.4-0.3c-0.3-0.2-0.6-0.3-1-0.2c-0.5,0-0.7,0.1-1.1,0.1
			c-0.7,0-1.3,0-2,0c-0.1,0-0.3,0-0.4,0c-0.2,0-0.3,0.1-0.5,0.1c-0.2,0.1-0.3,0.2-0.4,0.3c-0.1,0.1-0.2,0.2-0.2,0.3l-0.7,0.9
			c-0.5,0.6-1,1.1-1.5,1.6c-0.3,0.3-0.6,0.5-0.8,0.7c-0.3,0.2-0.6,0.7-0.7,1.1L33.1,51c-0.4,0-0.7,0.1-1.1,0.1
			C31.1,51.3,30.2,51.4,29.3,51.9C29.3,51.8,29.3,51.8,29.3,51.9z M34.4,49c0.3-0.3,0.5-0.5,0.8-0.8c0.5-0.5,1.1-1,1.7-1.4l0.9-0.6
			c0.2-0.2,0.2-0.1,0.3-0.1c0,0,0,0,0.1,0c0,0,0,0,0.1,0.1c0.7,0.2,1.6,0.4,2.4,0.3c0.4,0,0.9-0.2,1.1-0.2c0,0,0,0,0.1,0
			c0,0,0,0,0.1,0l0.2,0.2c1.3,0.8,2.6,1.6,3.6,2.6c0.2,0.2,0.3,0.4,0.3,0.6c0,0.2,0,0.5,0,0.8c0,0.2-0.1,0.4-0.1,0.6
			c-0.2,0-0.5,0-0.7-0.1c-0.8,0-1.5,0-2.3,0.1c-1-0.1-2.1-0.1-3.1-0.1c-1.1,0-2.1,0.1-3.2,0.1c-0.7,0-1.3,0.1-2,0.1
			c-0.1,0-0.1,0-0.2,0c-0.2,0-0.3,0-0.5,0l0-0.2c0-0.3-0.1-0.8-0.1-1.1C34.1,49.4,34.2,49.2,34.4,49z"/>
		<path class="st0" d="M49.1,73.9C49.1,73.9,49.1,73.9,49.1,73.9c-0.1-0.1-0.2-0.1-0.2,0c-0.5,1-0.8,2-0.9,2.9c-0.1,1,0.1,2,0.2,2.9
			c0.1,1,0.2,2,0.3,2.9c0.1,1,0.2,2,0.4,2.9c0,0,0,0.1,0.1,0.1c0.1,0,0.1,0,0.1-0.1c0.2-1,0.3-2,0.4-2.9c0.1-1,0.2-2,0.3-2.9
			c0.1-1,0.3-2,0.2-2.9C49.9,75.9,49.7,74.9,49.1,73.9z"/>
		<path class="st0" d="M31.2,73.9C31.2,73.9,31.2,73.9,31.2,73.9c-0.1-0.1-0.2-0.1-0.2,0c-0.5,1-0.8,2-0.9,2.9c-0.1,1,0.1,2,0.2,2.9
			c0.1,1,0.2,2,0.3,2.9c0.1,1,0.2,2,0.4,2.9c0,0,0,0.1,0.1,0.1c0.1,0,0.1,0,0.1-0.1c0.2-1,0.3-2,0.4-2.9c0.1-1,0.2-2,0.3-2.9
			c0.1-1,0.3-2,0.2-2.9C32,75.9,31.8,74.9,31.2,73.9z"/>
		<path class="st0" d="M59.2,12.3c1.2,1.3,2.8,2.4,4.7,2.6c0.9,0.1,1.9-0.1,2.8-0.5c0.9-0.4,1.6-1,2.2-1.8c1.1-1.5,1.4-3.3,1.4-5
			c0-1.7-0.3-3.4-1.4-5c-0.5-0.8-1.3-1.4-2.2-1.9C65.8,0.3,64.9,0,63.9,0c-2,0-3.9,0.9-5.2,2.3C58,3,57.5,3.9,57.2,4.8
			c-0.3,0.9-0.3,1.9-0.3,2.8C57.2,9.4,58,11,59.2,12.3z M58.2,7.5c0.2-1.5,1-2.7,2-3.7c1-0.9,2.3-1.3,3.7-1.4c0.7,0,1.3,0.1,2,0.3
			c0.6,0.2,1.3,0.5,1.9,0.9c0.6,0.4,1.2,0.9,1.6,1.6C69.8,5.9,70,6.7,70,7.5c0,0.8-0.2,1.6-0.6,2.3c-0.4,0.7-1,1.2-1.6,1.6
			c-1.3,0.8-2.5,1.2-3.9,1.4c-0.7,0.1-1.4,0.1-2.2-0.1c-0.7-0.2-1.4-0.5-2-1C58.5,10.7,58,9,58.2,7.5z"/>
		<path class="st0" d="M10.1,57.4c-0.9-0.3-1.9-0.3-2.8-0.3c-1.8,0.2-3.4,1-4.7,2.2c-1.3,1.2-2.4,2.8-2.6,4.7
			c-0.1,0.9,0.1,1.9,0.5,2.8c0.4,0.9,1,1.6,1.8,2.2c1.5,1.1,3.3,1.4,5,1.4c1.7,0,3.4-0.3,5-1.4c0.8-0.5,1.4-1.3,1.9-2.2
			c0.4-0.9,0.7-1.9,0.7-2.8c0-2-0.9-3.9-2.3-5.2C11.8,58.2,11,57.7,10.1,57.4z M12,66.1c-0.2,0.6-0.5,1.3-0.9,1.9
			c-0.4,0.6-0.9,1.2-1.6,1.6c-0.7,0.4-1.5,0.7-2.3,0.7c-0.8,0-1.6-0.2-2.3-0.6c-0.7-0.4-1.2-1-1.6-1.6c-0.8-1.3-1.2-2.5-1.4-3.9
			c-0.1-0.7-0.1-1.4,0.1-2.2c0.2-0.7,0.5-1.4,1-2c1-1.2,2.7-1.7,4.2-1.5c1.5,0.2,2.7,1,3.7,2c0.9,1,1.3,2.3,1.4,3.7
			C12.3,64.8,12.2,65.5,12,66.1z"/>
		<path class="st0" d="M101.1,30.9c0.9,0.3,1.9,0.4,2.8,0.3c1.9-0.3,3.3-1.4,4.5-2.5c1.2-1.2,2.2-2.7,2.5-4.5
			c0.2-0.9,0.1-1.9-0.2-2.8c-0.3-0.9-0.8-1.8-1.5-2.5c-1.4-1.4-3.4-2.2-5.3-2.1c-1,0-1.9,0.3-2.8,0.7c-0.9,0.4-1.6,1.1-2.1,1.8
			c-1.1,1.4-1.7,3.2-1.8,4.9c-0.1,1.7,0.3,3.7,1.5,5.1C99.4,30,100.2,30.6,101.1,30.9z M98,24.1c-0.1-1.6,0.7-3.1,1.9-4
			c1.2-0.9,2.6-1.2,4-1.2c1.4,0.1,2.6,0.7,3.6,1.6c0.5,0.5,0.9,1,1.2,1.6c0.3,0.6,0.6,1.2,0.8,2c0.2,0.7,0.2,1.5,0,2.3
			c-0.2,0.8-0.6,1.5-1.1,2.1c-0.6,0.6-1.3,1-2.1,1.2c-0.8,0.2-1.6,0.2-2.3,0c-1.5-0.3-2.7-0.9-3.8-1.8c-0.5-0.4-1.1-1-1.5-1.6
			C98.3,25.6,98,24.9,98,24.1z"/>
		<path class="st0" d="M29.2,98.8c-1.4-1.4-3.4-2.2-5.3-2.1c-1,0-1.9,0.3-2.8,0.7c-0.9,0.4-1.6,1.1-2.1,1.8
			c-1.1,1.4-1.7,3.2-1.8,4.9c-0.1,1.7,0.3,3.7,1.5,5.1c0.6,0.7,1.4,1.3,2.3,1.6c0.9,0.3,1.9,0.4,2.8,0.3c1.9-0.3,3.3-1.4,4.5-2.5
			c1.2-1.2,2.2-2.7,2.5-4.5c0.2-0.9,0.1-1.9-0.2-2.8C30.4,100.4,29.9,99.5,29.2,98.8z M29.4,106.4c-0.2,0.8-0.6,1.5-1.1,2.1
			c-0.6,0.6-1.3,1-2.1,1.2c-0.8,0.2-1.6,0.2-2.3,0c-1.5-0.3-2.7-0.9-3.8-1.8c-0.5-0.4-1.1-1-1.5-1.6c-0.4-0.6-0.7-1.4-0.7-2.2
			c-0.1-1.6,0.7-3.1,1.9-4c1.2-0.9,2.6-1.2,4-1.2c1.4,0.1,2.6,0.7,3.6,1.6c0.5,0.5,0.9,1,1.2,1.6c0.3,0.6,0.6,1.2,0.8,2
			C29.5,104.9,29.6,105.7,29.4,106.4z"/>
		<path class="st0" d="M108.8,99.2c-1.4-1.1-3.2-1.7-4.9-1.8c-1.7-0.1-3.7,0.3-5.1,1.5c-0.7,0.6-1.3,1.4-1.6,2.3
			c-0.3,0.9-0.4,1.9-0.3,2.8c0.3,1.9,1.4,3.3,2.5,4.5c1.2,1.2,2.7,2.2,4.5,2.5c0.9,0.2,1.9,0.1,2.8-0.2c0.9-0.3,1.8-0.8,2.5-1.5
			c1.4-1.4,2.2-3.4,2.1-5.3c0-1-0.3-1.9-0.7-2.8C110.1,100.5,109.5,99.8,108.8,99.2z M109.1,104.1c-0.1,1.4-0.7,2.6-1.6,3.6
			c-0.5,0.5-1,0.9-1.6,1.2c-0.6,0.3-1.2,0.6-2,0.8c-0.7,0.2-1.5,0.2-2.3,0c-0.8-0.2-1.5-0.6-2.1-1.1c-0.6-0.6-1-1.3-1.2-2.1
			c-0.2-0.8-0.2-1.6,0-2.3c0.3-1.5,0.9-2.7,1.8-3.8c0.4-0.5,1-1.1,1.6-1.5c0.6-0.4,1.4-0.7,2.2-0.7c1.6-0.1,3.1,0.7,4,1.9
			C108.8,101.4,109.1,102.8,109.1,104.1z"/>
		<path class="st0" d="M23.9,31.2c0.9,0.2,1.9,0.1,2.8-0.2c0.9-0.3,1.8-0.8,2.5-1.5c1.4-1.4,2.2-3.4,2.1-5.3c0-1-0.3-1.9-0.7-2.8
			c-0.4-0.9-1.1-1.6-1.8-2.1c-1.4-1.1-3.2-1.7-4.9-1.8c-1.7-0.1-3.7,0.3-5.1,1.5c-0.7,0.6-1.3,1.4-1.6,2.3c-0.3,0.9-0.4,1.9-0.3,2.8
			c0.3,1.9,1.4,3.3,2.5,4.5C20.5,29.8,22,30.8,23.9,31.2z M18.3,24.1c0.3-1.5,0.9-2.7,1.8-3.8c0.4-0.5,1-1.1,1.6-1.5
			c0.6-0.4,1.4-0.7,2.2-0.7c1.6-0.1,3.1,0.7,4,1.9c0.9,1.2,1.2,2.6,1.2,4c-0.1,1.4-0.7,2.6-1.6,3.6c-0.5,0.5-1,0.9-1.6,1.2
			c-0.6,0.3-1.2,0.6-2,0.8c-0.7,0.2-1.5,0.2-2.3,0c-0.8-0.2-1.5-0.6-2.1-1.1c-0.6-0.6-1-1.3-1.2-2.1C18.1,25.6,18.2,24.8,18.3,24.1z
			"/>
		<path class="st0" d="M82.4,11.9c2.4,0.9,4.8,1.9,7.1,3.1c0.2,0.1,0.4,0.1,0.5,0.1c0.4,0,0.8-0.2,1-0.6c0.3-0.6,0.1-1.3-0.5-1.6
			c-2.4-1.2-4.9-2.3-7.4-3.2c-0.6-0.2-1.3,0.1-1.5,0.7C81.5,11,81.8,11.7,82.4,11.9z"/>
		<path class="st0" d="M11,80.7c-0.2-0.6-0.9-1-1.5-0.8c-0.6,0.2-1,0.9-0.8,1.5c0.8,2.6,1.8,5.1,3,7.5c0.2,0.4,0.6,0.7,1.1,0.7
			c0.2,0,0.3,0,0.5-0.1c0.6-0.3,0.8-1,0.6-1.6C12.7,85.6,11.7,83.2,11,80.7z"/>
		<path class="st0" d="M14.2,36.9c-0.6-0.3-1.3-0.1-1.6,0.5c-1.3,2.4-2.3,4.9-3.2,7.4c-0.2,0.6,0.1,1.3,0.7,1.5
			c0.1,0,0.3,0.1,0.4,0.1c0.5,0,0.9-0.3,1.1-0.8c0.9-2.4,1.9-4.8,3.1-7.1C15,37.9,14.8,37.2,14.2,36.9z"/>
		<path class="st0" d="M39.5,14.2c0.2,0,0.3,0,0.5-0.1c2.3-1.1,4.8-2.1,7.2-2.8c0.6-0.2,1-0.9,0.8-1.5c-0.2-0.6-0.9-1-1.5-0.8
			c-2.6,0.8-5.1,1.8-7.5,3c-0.6,0.3-0.8,1-0.6,1.6C38.7,13.9,39.1,14.2,39.5,14.2z"/>
	</g>
</g>
</svg>
