<?xml version="1.0" encoding="utf-8"?>
<!-- Generator: Adobe Illustrator 24.1.2, SVG Export Plug-In . SVG Version: 6.00 Build 0)  -->
<svg version="1.1" id="Layer_1" xmlns="http://www.w3.org/2000/svg" xmlns:xlink="http://www.w3.org/1999/xlink" x="0px" y="0px"
	 viewBox="0 0 128 128" style="enable-background:new 0 0 128 128;" xml:space="preserve">
<style type="text/css">
	.st0{fill:#2D2D2D;}
</style>
<g>
	<path class="st0" d="M122.64,6.11c-1.76-1.9-3.92-3.47-6.33-4.5c-2.4-1.05-5.03-1.57-7.66-1.6c-2.63,0-5.26,0.51-7.68,1.55
		c-2.42,1.03-4.62,2.54-6.46,4.4c-1.84,1.86-3.28,4.11-4.23,6.53c-0.97,2.42-1.38,5.03-1.32,7.61c0.12,5.17,2.31,10.16,5.89,13.8
		c1.79,1.82,3.91,3.34,6.26,4.4c2.35,1.06,4.93,1.65,7.54,1.71c2.6,0.04,5.23-0.45,7.63-1.48c2.41-1.01,4.58-2.56,6.33-4.46
		c3.54-3.8,5.37-8.92,5.38-13.97C128.01,15.04,126.17,9.92,122.64,6.11z M127.45,23.83c-0.14,0.61-0.33,1.21-0.49,1.81
		c-0.2,0.59-0.45,1.17-0.68,1.75c-1.03,2.28-2.54,4.31-4.33,5.98c-3.63,3.34-8.4,5.26-13.28,5.34c-4.87,0.13-9.88-1.67-13.45-5.18
		c-1.78-1.75-3.19-3.86-4.11-6.17c-0.94-2.31-1.34-4.81-1.29-7.27c0.07-2.47,0.64-4.9,1.61-7.14c0.98-2.24,2.4-4.27,4.12-5.97
		c3.47-3.42,8.28-5.33,13.11-5.33c4.84-0.04,9.64,1.86,13.27,5.18c1.8,1.67,3.31,3.7,4.34,5.97c1.04,2.27,1.57,4.78,1.58,7.29
		l-0.11,1.88C127.65,22.59,127.55,23.21,127.45,23.83z"/>
	<path class="st0" d="M119.17,25.76l-0.14-0.12l-0.27-0.24l-0.54-0.49l-1.08-0.99c-0.72-0.65-1.42-1.33-2.14-2l-1.05-1.02
		l-0.52-0.51c-0.19-0.14-0.22-0.37-0.08-0.52c1.38-1.37,2.78-2.73,4.22-4.05l1.08-0.99l0.54-0.49c0.13-0.1,0.26-0.34,0.25-0.55
		c0-0.11-0.03-0.22-0.08-0.32c-0.05-0.1-0.14-0.19-0.17-0.22l-1.96-2.17l-0.98-1.09l-0.49-0.54l-0.14-0.14
		c-0.11-0.1-0.24-0.19-0.39-0.23c-0.29-0.1-0.62-0.05-0.88,0.12c-0.05,0.03-0.14,0.12-0.15,0.13l-0.07,0.06L114,9.51l-0.27,0.25
		l-0.53,0.5l-1.05,1.02c-0.7,0.68-1.39,1.37-2.07,2.06c-0.34,0.35-0.69,0.69-1.02,1.05l-0.42,0.44l-4.1-3.81l-1.07-0.99l-0.54-0.5
		c-0.02-0.01-0.05-0.05-0.1-0.09c-0.05-0.03-0.09-0.06-0.15-0.08c-0.1-0.04-0.22-0.07-0.33-0.06c-0.11,0.01-0.22,0.04-0.32,0.09
		c-0.09,0.05-0.19,0.15-0.22,0.18l-2.02,2.12l-1.03,1.04l-0.51,0.52l-0.13,0.13c-0.07,0.07-0.12,0.15-0.15,0.24
		c-0.06,0.18-0.03,0.39,0.08,0.55c0.06,0.09,0.11,0.13,0.15,0.17l0.13,0.13l0.26,0.26l0.51,0.52l1.02,1.05
		c0.68,0.7,1.35,1.4,2.02,2.12l1.56,1.66c-1.41,1.32-2.86,2.64-4.26,4l-1.06,1.01l-0.53,0.5l-0.04,0.04
		c-0.03,0.03-0.06,0.06-0.08,0.09c-0.05,0.06-0.09,0.13-0.13,0.21c-0.07,0.15-0.11,0.31-0.1,0.47c0,0.16,0.04,0.32,0.12,0.47
		c0.06,0.14,0.22,0.3,0.23,0.31l2.04,2.1l1.02,1.05l0.51,0.52l0.13,0.14c0.12,0.12,0.28,0.22,0.45,0.27
		c0.33,0.11,0.72,0.06,1.01-0.13c0.07-0.04,0.16-0.12,0.18-0.15l0.07-0.06l0.13-0.13l0.26-0.25l0.52-0.51l1.05-1.02
		c0.7-0.68,1.39-1.37,2.08-2.06l1.04-1.03l0.29-0.29c1.3,1.26,2.58,2.54,3.9,3.78l1.06,1.01l0.54,0.5c0.01,0.01,0.08,0.08,0.15,0.12
		c0.07,0.05,0.14,0.09,0.21,0.12c0.15,0.06,0.31,0.09,0.48,0.08c0.16-0.01,0.32-0.06,0.46-0.14c0.07-0.04,0.14-0.09,0.19-0.14
		l0.04-0.04l0.02-0.02l0.03-0.03c0.67-0.71,1.31-1.44,1.97-2.17l0.98-1.09l0.49-0.54l0.13-0.15c0.08-0.09,0.14-0.2,0.17-0.31
		c0.06-0.23,0.02-0.48-0.12-0.66C119.25,25.83,119.21,25.8,119.17,25.76z M118.75,26.38c0,0-0.01,0-0.01,0l-0.13,0.11l-0.54,0.49
		l-1.09,0.98c-0.67,0.61-1.35,1.21-2.01,1.82l-0.36-0.39l-1.01-1.06c-1.34-1.41-2.72-2.79-4.08-4.19c-0.26-0.26-0.65-0.4-1.02-0.35
		c-0.18,0.02-0.36,0.09-0.52,0.19c-0.07,0.05-0.16,0.12-0.2,0.17l-0.06,0.06l-0.52,0.52l-1.03,1.04c-0.69,0.69-1.38,1.38-2.06,2.08
		l-1.02,1.05l-0.51,0.52l-0.21,0.22l-0.39-0.38l-1.05-1.02l-1.96-1.9l0.34-0.36l1.01-1.06c1.36-1.41,2.66-2.84,4.01-4.28
		c0.17-0.18,0.25-0.45,0.21-0.69c-0.02-0.12-0.07-0.24-0.14-0.34c-0.03-0.04-0.09-0.11-0.11-0.12l-0.07-0.06l-0.53-0.5l-1.07-1
		c-0.71-0.66-1.42-1.34-2.12-2.02l-1.05-1.02l-1.01-1c-0.03-0.04-0.04-0.1-0.02-0.15c0.01-0.02,0.02-0.05,0.04-0.07l0.13-0.13
		l0.52-0.51l1.04-1.03l2.12-2.02c0.06-0.06,0.05-0.04,0.07-0.05c0.01,0,0.02,0,0.03,0c0.01,0,0.02,0.01,0.03,0.01
		c0,0,0.01,0.01,0.01,0.01c0,0,0,0.01,0.03,0.04l0.5,0.54l0.99,1.07l3.99,4.29c0.22,0.22,0.56,0.34,0.87,0.3
		c0.16-0.02,0.31-0.08,0.45-0.16c0.06-0.04,0.14-0.11,0.17-0.14l0.07-0.06l0.53-0.51c0.35-0.34,0.7-0.68,1.04-1.02
		c0.69-0.69,1.39-1.37,2.06-2.08l1.02-1.05l0.5-0.53l0.25-0.27l0.07-0.08l0.51,0.46l1.09,0.98l2.17,1.96
		c0.06,0.06,0.06,0.05,0.07,0.06c0.01,0.01,0.01,0.02,0.02,0.03c0,0.03,0.02,0.04-0.04,0.1l-0.49,0.54l-0.99,1.08
		c-1.32,1.44-2.68,2.84-4.05,4.22c-0.1,0.1-0.16,0.25-0.14,0.4c0.01,0.15,0.12,0.28,0.21,0.36l0.51,0.52l1.02,1.05
		c0.67,0.71,1.35,1.41,2,2.14l0.99,1.08l0.94,1.05C118.77,26.35,118.76,26.37,118.75,26.38z"/>
	<path class="st0" d="M111.5,48h-2.43c-0.59,0-1.08,0.49-1.08,1.1v65.03c-0.53,0.4-1.08,0.78-1.64,1.13
		c-0.16-0.01-0.32-0.02-0.48-0.03c-0.75-0.03-1.51-0.05-2.26-0.06c0.46-1.88,0.31-3.83-0.16-5.62c0.06,1.94-0.07,3.88-0.71,5.61
		c-1.95,0-3.9,0.04-5.84,0.13c-0.01,0-0.03,0-0.04,0c0.07-1.02-0.02-2.05-0.25-3.02c-0.04,1.04-0.15,2.08-0.38,3.06
		c-1.6,0.08-3.21,0.18-4.81,0.31l-2.69-1.93c0.57,0.7,1.19,1.37,1.84,2c-1.52,0.13-3.04,0.28-4.57,0.45
		c-0.83-0.54-1.7-1.03-2.6-1.45c-1.93-0.91-4.03-1.48-6.13-1.56c2.03,0.54,3.95,1.32,5.74,2.33c0.48,0.28,0.96,0.57,1.42,0.87
		c-1.2,0.16-2.4,0.34-3.59,0.55c-0.51-0.37-1.04-0.71-1.58-1.04c0.25-0.15,0.5-0.3,0.74-0.46c0.02-0.02,0.03-0.05,0.02-0.08
		c-0.02-0.03-0.05-0.03-0.08-0.02c-0.26,0.16-0.53,0.32-0.8,0.48c-0.01-0.01-0.03-0.02-0.04-0.03c-0.06-0.66-0.19-1.31-0.37-1.93
		c0,0.56-0.02,1.11-0.07,1.65c-0.48-0.27-0.97-0.53-1.48-0.76c-1.93-0.91-4.03-1.48-6.13-1.56c2.03,0.54,3.95,1.32,5.74,2.33
		c0.43,0.25,0.85,0.5,1.27,0.77c-5.95,0.55-11.86,1.53-17.74,2.59c-0.13,0.02-0.25,0.05-0.37,0.07c-2.14-0.17-4.3-0.36-6.47-0.41
		c-1.5-1.87-3.07-3.69-4.73-5.43c-1.51-1.55-3.12-3.04-4.86-4.35c-0.05-1.16-0.22-2.31-0.46-3.44c0.01,1.02,0,2.04-0.06,3.05
		c-0.52-0.37-1.05-0.73-1.59-1.07c-2.57-1.61-5.48-2.76-8.47-3.09c2.9,0.79,5.58,2.11,8,3.81c0.67,0.47,1.33,0.98,1.97,1.5
		c-0.1,0.85-0.25,1.69-0.48,2.5c-0.35,1.25-0.87,2.43-1.54,3.54c-0.46-0.38-0.95-0.72-1.42-1.08L39,113.93
		c-0.28-0.17-0.54-0.35-0.84-0.48c-0.59-0.28-1.16-0.57-1.78-0.76c-0.31-0.1-0.61-0.23-0.92-0.3l-0.94-0.21
		c-2.53-0.53-5.11-0.32-7.56,0.18c2.51-0.05,5.02,0.01,7.36,0.66c2.34,0.64,4.48,1.84,6.32,3.44c-0.31,0.44-0.64,0.87-1,1.28
		c-0.91,1.09-1.92,2.11-2.96,3.11c-2.22,0.49-4.43,1.03-6.64,1.6l-28.97,0.99c-0.3,0.01-0.58,0.14-0.78,0.35
		c-0.2,0.21-0.3,0.48-0.29,0.76l0.08,2.43c0.02,0.58,0.51,1.04,1.1,1.04c0.01,0,0.02,0,0.04,0l14.85-0.51
		c4.16,0.11,8.33,0.17,12.49,0.22c9.24,0.11,18.49-0.08,27.73-0.17l27.73-0.25l0.06,0c0.06,0.04,0.12,0.09,0.18,0.14
		c-0.03-0.05-0.07-0.09-0.11-0.14l0.57-0.01c-0.03,0.02-0.06,0.05-0.08,0.07c0.05-0.02,0.09-0.05,0.14-0.07l5.22-0.06
		c-0.02,0.01-0.03,0.02-0.05,0.04c0.02-0.01,0.05-0.03,0.07-0.04l1.23-0.01c0.01,0.01,0.01,0.01,0.02,0.02
		c-0.01-0.01-0.01-0.01-0.02-0.02l6.01-0.07c-0.07,0.07-0.13,0.13-0.2,0.2c0.1-0.07,0.2-0.14,0.3-0.2l0.02,0
		c0.04,0.03,0.07,0.06,0.11,0.09c-0.03-0.03-0.05-0.06-0.08-0.09l6.78-0.08c0.08,0.06,0.15,0.12,0.22,0.17
		c-0.05-0.06-0.1-0.12-0.14-0.17l3.8-0.05c0.16,0.4,0.54,0.69,0.99,0.69h2.43c0.59,0,1.08-0.49,1.08-1.1V49.1
		C112.58,48.49,112.09,48,111.5,48z M107.99,119.03c-0.56,0.23-1.12,0.45-1.69,0.64c0.27-0.32,0.52-0.67,0.78-1
		c0.29-0.41,0.56-0.84,0.82-1.28c0.03-0.06,0.06-0.12,0.09-0.19V119.03z M109.66,49.66h1.26v76.37h-1.26V49.66z M107.99,114.27v0.52
		c-0.07,0.19-0.14,0.39-0.22,0.58c-0.13-0.02-0.27-0.04-0.4-0.05c-0.23-0.02-0.46-0.03-0.69-0.05
		C107.13,114.96,107.57,114.62,107.99,114.27z M103.25,116.35l0.15-0.36l0.11-0.38c0.01-0.03,0.01-0.06,0.02-0.09
		c0.78-0.03,1.56-0.05,2.34-0.05c0.05,0,0.09,0,0.14,0c-0.84,0.5-1.72,0.95-2.63,1.31c-0.12,0.05-0.25,0.09-0.38,0.13L103.25,116.35
		z M103.51,117.11c1.01-0.45,1.96-1.01,2.87-1.63c0.32,0,0.65,0.01,0.97,0.02c0.12,0.01,0.23,0.02,0.34,0.03
		c-0.6,1.31-1.42,2.51-2.39,3.61c-0.33,0.38-0.67,0.76-1.02,1.12c-0.43,0.1-0.85,0.2-1.29,0.28c-1.06,0.2-2.14,0.31-3.22,0.36
		c0.08-0.07,0.16-0.14,0.24-0.21l0.56-0.53c0.18-0.18,0.35-0.38,0.53-0.56c0.36-0.37,0.68-0.78,0.99-1.2
		c0.16-0.2,0.3-0.43,0.43-0.66l0.19-0.33C102.99,117.32,103.26,117.22,103.51,117.11z M91.31,120.46c-0.41-0.39-0.82-0.77-1.24-1.15
		c1.42-0.08,2.86-0.14,4.3-0.24c0,0,0.01,0.01,0.01,0.01c-0.03,0.03-0.05,0.07-0.08,0.1l-0.39,0.47l-0.43,0.44
		c-0.16,0.18-0.34,0.34-0.52,0.51C92.4,120.55,91.86,120.51,91.31,120.46z M92.17,121.29C92.17,121.29,92.17,121.29,92.17,121.29
		c-0.01,0-0.01,0-0.01,0C92.16,121.29,92.17,121.29,92.17,121.29z M90.59,121.21c0.27,0.24,0.54,0.49,0.82,0.73
		c-0.9,0.74-1.85,1.46-2.78,2.19c-0.01,0-0.01,0.01-0.02,0.01c-0.49-0.55-0.99-1.1-1.5-1.63c-0.41-0.44-0.84-0.87-1.26-1.3
		C87.43,121.12,89.01,121.13,90.59,121.21z M84.9,120.28c-0.11-0.11-0.23-0.21-0.35-0.32c0.87-0.17,1.75-0.31,2.64-0.41
		c0.44-0.05,0.89-0.09,1.33-0.13c0.36,0.3,0.73,0.61,1.09,0.92C88.04,120.25,86.47,120.21,84.9,120.28z M95.18,119.75
		c0.4,0.33,0.8,0.66,1.19,0.98l0.18,0.15c-0.73-0.04-1.46-0.09-2.19-0.15C94.65,120.41,94.92,120.09,95.18,119.75z M93.31,121.77
		c0.14-0.13,0.27-0.26,0.41-0.39c1.04,0.06,2.08,0.11,3.12,0.13c0.16,0,0.32,0,0.48,0l0.03,0.02c-0.87,0.7-1.77,1.37-2.67,2.06
		c-0.07,0.05-0.14,0.1-0.21,0.16c-0.38-0.41-0.74-0.83-1.13-1.23c-0.14-0.14-0.27-0.28-0.41-0.42
		C93.06,121.98,93.19,121.88,93.31,121.77z M97.07,119.87c-0.39-0.31-0.79-0.62-1.18-0.93c0.76-0.07,1.52-0.16,2.29-0.28
		c0.99-0.15,1.96-0.38,2.92-0.67l-0.28,0.34c-0.15,0.19-0.33,0.35-0.49,0.53c-0.17,0.17-0.33,0.35-0.5,0.52l-0.54,0.49
		c-0.35,0.33-0.72,0.64-1.09,0.96C97.82,120.51,97.45,120.19,97.07,119.87z M99.15,121.45c1.32-0.08,2.64-0.25,3.93-0.54
		c0.26-0.06,0.52-0.14,0.79-0.21c-0.84,0.86-1.73,1.71-2.61,2.55c-0.07,0.07-0.14,0.14-0.22,0.2c-0.03-0.03-0.07-0.07-0.1-0.1
		c-0.62-0.62-1.26-1.22-1.92-1.8C99.07,121.52,99.11,121.48,99.15,121.45z M96.42,117.48c0.18-0.51,0.3-1.03,0.37-1.55
		c0.05,0,0.1-0.01,0.15-0.01c1.89-0.15,3.77-0.28,5.66-0.36l-0.04,0.11l-0.17,0.32l-0.32,0.63l-0.39,0.59
		c-0.04,0.06-0.08,0.12-0.12,0.18c-1.14,0.32-2.3,0.56-3.47,0.7c-0.67,0.09-1.34,0.14-2.01,0.19
		C96.21,118.02,96.32,117.76,96.42,117.48z M96.06,115.99c-0.12,0.4-0.27,0.79-0.44,1.16c-0.07,0.19-0.19,0.36-0.29,0.53
		c-0.11,0.17-0.18,0.36-0.3,0.52c-0.01,0.01-0.02,0.03-0.03,0.04c-0.68-0.52-1.37-1.02-2.06-1.52l-0.53-0.38
		C93.63,116.22,94.84,116.1,96.06,115.99z M91.36,116.46c0.35,0.32,0.7,0.64,1.05,0.94c0.38,0.34,0.77,0.66,1.16,0.99
		c-1.47,0.04-2.95,0.05-4.44,0.1c-0.13-0.11-0.25-0.22-0.38-0.33c-0.49-0.4-1-0.79-1.52-1.16C88.6,116.8,89.98,116.62,91.36,116.46z
		 M85.12,117.33c0.2-0.03,0.41-0.06,0.61-0.09c0.6,0.43,1.18,0.88,1.76,1.34c-0.13,0.01-0.26,0.01-0.39,0.02
		c-1.18,0.08-2.37,0.23-3.54,0.46c-0.34-0.3-0.68-0.6-1.03-0.89c-0.13-0.11-0.27-0.21-0.41-0.32L85.12,117.33z M83.41,120.37
		c-0.31,0.03-0.63,0.05-0.94,0.09c0.27-0.07,0.53-0.15,0.8-0.21C83.31,120.28,83.36,120.32,83.41,120.37z M79.12,116.97
		c0.09,0.06,0.19,0.13,0.28,0.19c-0.1,0.02-0.2,0.04-0.3,0.05C79.11,117.13,79.12,117.05,79.12,116.97z M78.87,118.46
		c0-0.01,0.01-0.03,0.01-0.04l1.79-0.31c0.39,0.3,0.77,0.61,1.15,0.92c0.13,0.11,0.26,0.22,0.39,0.33c-0.21,0.05-0.42,0.1-0.63,0.16
		c-1.25,0.34-2.5,0.7-3.75,1.08C78.29,119.95,78.66,119.24,78.87,118.46z M77.59,119.13c-0.21,0.29-0.37,0.6-0.62,0.87
		c-0.11,0.13-0.22,0.27-0.33,0.4l-0.29-0.14l-0.55-0.21c-0.73-0.27-1.5-0.44-2.26-0.53c-0.26-0.03-0.52-0.03-0.78-0.04l5.09-0.88
		c-0.01,0.02-0.02,0.04-0.03,0.07L77.59,119.13z M73.41,120.37c0.57,0.13,1.12,0.32,1.66,0.53l-13.05,0.44l8.05-1.4
		C71.21,120.03,72.33,120.13,73.41,120.37z M78.33,116.43c0.06,0.04,0.13,0.09,0.19,0.13c-0.05,0.27-0.11,0.54-0.19,0.8
		c-1.11,0.21-2.21,0.43-3.32,0.66C76.15,117.57,77.26,117.04,78.33,116.43z M78.04,116.38c-1.39,0.72-2.84,1.32-4.34,1.75
		c-2.2,0.64-4.48,0.96-6.76,1.03c-1.72,0.06-3.44,0-5.16-0.12C67.16,117.98,72.57,117,78.04,116.38z M66.96,119.75
		c0.25-0.01,0.51-0.05,0.76-0.07c-0.12,0.03-0.24,0.06-0.35,0.09c-1.94,0.47-3.86,0.99-5.78,1.54c-0.02,0.01-0.03,0.03-0.03,0.05
		l-5.71,0.19c-0.29-0.37-0.57-0.75-0.85-1.12l3.93-0.81C61.59,119.77,64.27,119.91,66.96,119.75z M56.7,119.51
		c-0.7,0.13-1.4,0.26-2.1,0.4c-0.12-0.15-0.24-0.31-0.37-0.46C55.05,119.46,55.87,119.48,56.7,119.51z M54.91,121.59l-6.59,0.22
		l5.74-1.18C54.35,120.95,54.63,121.27,54.91,121.59z M53.61,120.1c-2.27,0.43-4.54,0.87-6.81,1.31c-0.08-0.1-0.15-0.2-0.23-0.3
		c-0.25-0.31-0.51-0.61-0.76-0.92l0.54-0.09c2.22-0.42,4.43-0.63,6.69-0.65C53.23,119.66,53.42,119.88,53.61,120.1z M42.46,115.52
		c0.25-0.54,0.52-1.06,0.7-1.63c0.09-0.28,0.21-0.55,0.28-0.84l0.19-0.86c0.15-0.72,0.23-1.45,0.25-2.18
		c1.42,1.2,2.77,2.49,4.07,3.84c1.46,1.5,2.86,3.07,4.25,4.65c-2.02-0.01-4.06,0.13-6.03,0.49c-0.41,0.07-0.81,0.14-1.22,0.21
		c-0.91-1.03-1.86-2.02-2.89-2.95C42.19,116,42.35,115.77,42.46,115.52z M40.49,118.44c0.34-0.4,0.65-0.84,0.96-1.27
		c0.79,0.71,1.56,1.45,2.3,2.22c-1.47,0.27-2.95,0.54-4.41,0.86c-0.24,0.05-0.49,0.11-0.73,0.16
		C39.26,119.78,39.9,119.13,40.49,118.44z M37.25,121.67c0.76-0.13,1.53-0.27,2.29-0.4l5.16-0.89c0.38,0.4,0.75,0.81,1.13,1.21
		c-0.65,0.12-1.3,0.25-1.95,0.37l-7.27,0.25C36.83,122.03,37.04,121.86,37.25,121.67z M35.47,121.99c-0.1,0.09-0.19,0.18-0.29,0.27
		l-1.56,0.05C34.23,122.2,34.85,122.1,35.47,121.99z M78.01,122.46l0.04,1.25l-76.33,2.6l-0.04-1.25L78.01,122.46z M56.29,126.22
		c-0.69-0.01-1.38-0.02-2.07-0.02l4.69-0.16c0.05,0.06,0.11,0.13,0.18,0.21L56.29,126.22z M59.29,126.24
		c-0.06-0.08-0.11-0.16-0.17-0.22l11.31-0.39c-0.29,0.23-0.59,0.46-0.87,0.7L59.29,126.24z M70.32,126.34
		c0.44-0.23,0.87-0.49,1.3-0.74l7.05-0.24c0.29-0.01,0.58-0.14,0.78-0.35c0.2-0.21,0.3-0.48,0.29-0.76l-0.02-0.5
		c0.34,0.3,0.68,0.6,1.05,0.9c0.73,0.61,1.47,1.21,2.22,1.81L70.32,126.34z M84.02,126.47l-0.53,0c-0.68-0.84-1.38-1.66-2.13-2.44
		c-0.53-0.55-1.09-1.08-1.68-1.58l-0.01-0.42l1.75-0.3c1.01-0.17,2.02-0.3,3.04-0.4c0.01,0,0.03,0,0.04,0
		c0.68,0.6,1.35,1.21,2.03,1.82c0.52,0.47,1.05,0.94,1.58,1.41c-0.82,0.64-1.64,1.28-2.44,1.95L84.02,126.47z M86.28,126.49
		c0.82-0.45,1.64-0.92,2.43-1.41c0.57,0.49,1.14,0.98,1.72,1.46L86.28,126.49z M90.82,126.55l-0.12,0
		c-0.49-0.59-0.98-1.19-1.49-1.76c1.04-0.66,2.05-1.35,3.02-2.12c0.17,0.15,0.34,0.31,0.51,0.46c0.39,0.35,0.77,0.69,1.16,1.04
		C92.86,124.95,91.83,125.73,90.82,126.55z M91.3,126.55c1.09-0.58,2.15-1.2,3.2-1.85c0.74,0.65,1.48,1.29,2.25,1.92L91.3,126.55z
		 M96.99,126.62c-0.63-0.76-1.28-1.52-1.94-2.25c0.04-0.03,0.08-0.05,0.12-0.07c1.03-0.65,2.04-1.34,3.02-2.08l2.18,1.78
		c0.02,0.02,0.04,0.03,0.06,0.05c-0.9,0.85-1.79,1.71-2.66,2.59L96.99,126.62z M98.1,126.64c0.99-0.68,1.96-1.38,2.91-2.11
		c0.9,0.74,1.8,1.46,2.73,2.18L98.1,126.64z M104,126.71c-0.75-0.92-1.54-1.8-2.36-2.65c0.06-0.05,0.13-0.1,0.2-0.15
		c1.47-1.17,2.88-2.43,4.15-3.86c0.68-0.25,1.35-0.54,2.01-0.84v7.4c0,0.06,0.02,0.11,0.03,0.16L104,126.71z"/>
</g>
</svg>
