<?xml version="1.0" encoding="utf-8"?>
<!-- Generator: Adobe Illustrator 24.1.2, SVG Export Plug-In . SVG Version: 6.00 Build 0)  -->
<svg version="1.1" id="Layer_1" xmlns="http://www.w3.org/2000/svg" xmlns:xlink="http://www.w3.org/1999/xlink" x="0px" y="0px"
	 viewBox="0 0 128 128" style="enable-background:new 0 0 128 128;" xml:space="preserve">
<style type="text/css">
	.st0{fill:#2D2D2D;}
</style>
<g>
	<path class="st0" d="M124.91,51.86l-0.35-1.87c-0.21-1.1-0.76-2.08-1.56-2.75c-0.64-0.54-1.38-0.84-2.14-0.87v-9.62l-4.82,2.51
		c-0.88-1.55-1.84-3.03-2.83-4.49c-1.05-1.7-2.91-3.11-4.98-3.56c-0.52-0.12-1.05-0.18-1.58-0.2c-0.52-0.01-0.96,0.01-1.44,0.02
		l-2.82,0.09c-1.88,0.05-3.77,0.19-5.65,0.37c-1.88,0.18-3.77,0.27-5.65,0.21c-0.94-0.04-1.88-0.11-2.82-0.21l-1.41-0.15
		c-0.46-0.05-1.02-0.07-1.52-0.02c-2.08,0.17-4.04,1.37-5.25,3.05c-0.31,0.42-0.52,0.81-0.78,1.21c-0.25,0.4-0.49,0.81-0.73,1.22
		c-0.43,0.74-0.84,1.49-1.21,2.27l-4.64-2.3v9.62c-0.97-0.14-1.95,0.15-2.77,0.83c-0.8,0.67-1.35,1.65-1.56,2.75l-0.35,1.87
		c-0.44,2.35,0.85,4.56,2.87,4.94l0.55,0.1l1.25,0.23v11.14l11,5.2c-0.55,9.03-0.93,18.07-1.29,27.11
		c-0.17,4.63-0.32,9.25-0.45,13.88l-0.18,6.94c-0.01,0.27,0,0.62,0.02,0.96c0.05,0.33,0.09,0.66,0.19,0.99
		c0.18,0.65,0.47,1.26,0.84,1.81c0.77,1.09,1.89,1.93,3.16,2.33c1.27,0.39,2.66,0.35,3.89-0.13c1.23-0.46,2.29-1.35,2.95-2.47
		c0.33-0.56,0.59-1.16,0.72-1.8c0.14-0.63,0.13-1.29,0.15-1.85l0.08-3.47c0.1-4.63,0.2-9.25,0.36-13.88
		c0.16-4.62,0.38-9.25,0.61-13.87c0.1-2.31,0.22-4.62,0.36-6.93l0.1-1.73l0.05-0.87c0.01-0.27,0.05-0.46,0.14-0.67
		c0.19-0.4,0.56-0.71,0.98-0.81c0.42-0.1,0.89-0.02,1.22,0.25c0.34,0.26,0.55,0.66,0.56,1.09l0.04,1.72l0.08,3.47l0.19,6.94
		l0.44,13.87l0.49,13.87l0.06,1.75c0.01,0.66,0.15,1.36,0.39,2c0.48,1.29,1.41,2.41,2.59,3.12c1.17,0.73,2.59,1.02,3.96,0.87
		c1.37-0.16,2.68-0.78,3.65-1.76c0.97-0.97,1.63-2.27,1.78-3.64c0.03-0.17,0.03-0.34,0.04-0.52c0.01-0.18,0.02-0.35,0.01-0.49
		l-0.03-0.87l-0.05-1.74l-0.22-6.94l-0.5-13.88c-0.36-9-0.75-18.01-1.26-27.01l10.99-2.73V57.02l0.61-0.11l0.57-0.11
		C124.07,56.42,125.35,54.21,124.91,51.86z M81.21,35.29c0.57-0.62,1.25-1.15,1.98-1.55c0.75-0.38,1.53-0.69,2.36-0.86
		c0.42-0.1,0.81-0.15,1.29-0.19l1.41-0.15c0.94-0.1,1.88-0.17,2.82-0.21c1.88-0.06,3.77,0.03,5.65,0.21
		c1.88,0.18,3.77,0.32,5.65,0.37l2.82,0.09l1.38,0.03c0.41,0.01,0.82,0.06,1.22,0.14c0.8,0.15,1.58,0.45,2.3,0.87
		c0.36,0.2,0.7,0.45,1.02,0.73c0.33,0.27,0.6,0.56,0.93,0.92c1.19,1.28,2.41,2.54,3.71,3.73l-7.8,4.07l-9.31,1.18L86.2,43.47
		l-8.58-4.26C78.92,37.97,80.09,36.6,81.21,35.29z M107.64,69.77l-0.28,0.07l-8.68,2.76l-0.01-26.05l0.01,0l8.95-1.14L107.64,69.77z
		 M98.64,46.54l-1.16,26.3H86.76l-0.21-0.1l0.01-27.36L98.64,46.54z M73.24,55.33L72,55.1l-0.45-0.08c0,0,0,0,0,0l-0.29-0.05
		c-1.01-0.19-1.62-1.43-1.37-2.76l0.35-1.87c0.13-0.68,0.46-1.27,0.92-1.66c0.42-0.35,0.9-0.5,1.35-0.41l1.98,0.37
		c1.84,0.35,3.07,2.13,2.72,3.98C76.87,54.45,75.09,55.67,73.24,55.33z M74.6,67.09V57.2c2.18-0.31,4.03-1.97,4.45-4.26
		c0.51-2.74-1.21-5.39-3.87-6.08c-0.05-0.02-0.11-0.04-0.17-0.05l-0.17-0.03c0,0,0,0,0,0l-0.23-0.04V39.8l10.75,5.33l1.16,27.59
		L74.6,67.09z M109.93,118.99l0.03,1.73l0.02,0.87c0.01,0.16,0,0.27-0.01,0.38c-0.01,0.11-0.01,0.23-0.03,0.35
		c-0.12,0.94-0.58,1.81-1.24,2.47c-0.68,0.65-1.55,1.08-2.48,1.19c-0.93,0.1-1.9-0.09-2.69-0.59c-0.8-0.48-1.44-1.24-1.77-2.12
		c-0.16-0.44-0.27-0.89-0.28-1.38l-0.09-1.72l-0.68-13.87l-0.72-13.87l-0.39-6.93l-0.21-3.47l-0.11-1.75
		c-0.04-0.73-0.44-1.44-1.04-1.85c-0.59-0.43-1.38-0.55-2.08-0.35c-0.7,0.19-1.28,0.72-1.56,1.38c-0.14,0.32-0.19,0.71-0.19,1.02
		l-0.02,0.87l-0.05,1.73c-0.05,2.31-0.13,4.63-0.22,6.94c-0.16,4.62-0.32,9.25-0.56,13.87c-0.22,4.62-0.51,9.24-0.8,13.86
		l-0.21,3.47c-0.04,0.6-0.05,1.11-0.18,1.6c-0.12,0.5-0.34,0.96-0.61,1.39c-0.55,0.85-1.39,1.5-2.34,1.81
		c-0.94,0.33-1.99,0.3-2.92,0c-0.93-0.31-1.74-0.95-2.29-1.76c-0.27-0.41-0.46-0.86-0.59-1.33c-0.07-0.23-0.1-0.48-0.13-0.72
		c-0.01-0.23-0.03-0.47-0.01-0.78l0.17-6.94c0.1-4.63,0.18-9.25,0.24-13.88c0.09-9.01,0.17-18.01,0.07-27.03l2.39,1.13h11.86
		l9.66-3.07l1.77-0.44c-0.08,8.99-0.04,17.98,0.03,26.97l0.16,13.88L109.93,118.99z M118.99,66.95l-11.31,2.81l1.16-24.63l10.15-5.3
		v6.79l-0.86,0.16c0,0,0,0-0.01,0l-0.17,0.03c-0.06,0.01-0.12,0.03-0.17,0.05c-2.66,0.68-4.39,3.33-3.87,6.08
		c0.47,2.5,2.63,4.26,5.08,4.31V66.95z M121.71,54.96l-0.29,0.05c0,0,0,0,0,0l-0.58,0.11l-1.11,0.21c-1.84,0.34-3.62-0.88-3.97-2.73
		c-0.34-1.85,0.88-3.63,2.72-3.98l1.98-0.37c0.45-0.08,0.93,0.06,1.35,0.41c0.47,0.39,0.8,0.99,0.92,1.66l0.35,1.87
		C123.33,53.54,122.71,54.77,121.71,54.96z"/>
	<path class="st0" d="M83.09,10.87l0.14,0.04c1.14,0.29,2.28,0.63,3.4,0.98c-1.53,2.48-1.59,5.88-0.24,8.63
		c0.7,1.43,1.79,2.65,3.05,3.58c0.63,0.47,1.32,0.86,2.04,1.16c0.36,0.16,0.74,0.25,1.11,0.36c0.37,0.1,0.76,0.15,1.13,0.23
		c1.52,0.22,3.01,0.19,4.49,0c1.47-0.19,3.01-0.48,4.39-1.25c1.36-0.77,2.46-1.99,3.19-3.35c0.19-0.34,0.32-0.71,0.48-1.06
		c0.13-0.36,0.23-0.74,0.33-1.11c0.07-0.38,0.23-1.15,0.28-1.52c0.01-0.19,0.02-0.33,0.05-0.56c0.01-0.11-0.01-0.18-0.03-0.24
		c1.19,0.23,2.37,0.48,3.54,0.78c0.13,0.04,0.28-0.02,0.35-0.13c0.08-0.1,0.07-0.28,0.01-0.37l-0.26-0.51
		c-0.17-0.34-0.34-0.68-0.5-1.03c-0.32-0.69-0.66-1.38-0.96-2.09c-0.58-1.31-1.13-2.64-1.69-3.97c0.33-0.96,0.65-1.93,0.95-2.9
		l0.11-0.39l0.03-0.1l0.04-0.17c0.02-0.12,0.03-0.24,0.03-0.36c0-0.48-0.17-0.96-0.48-1.33c-0.16-0.19-0.34-0.34-0.56-0.47
		c-0.1-0.06-0.22-0.11-0.33-0.15l-0.17-0.05l-0.1-0.03l-0.78-0.21c-2.08-0.57-4.16-1.1-6.26-1.61l-6.3-1.45L92.8,0.07l-0.1-0.02
		l-0.16-0.03C92.43,0.01,92.31,0,92.2,0c-0.23,0.01-0.46,0.05-0.67,0.14c-0.42,0.17-0.78,0.49-1,0.89c-0.05,0.1-0.1,0.21-0.13,0.31
		L90.35,1.5l-0.02,0.1L90.25,2c-0.21,0.99-0.4,1.99-0.59,2.99c-1.17,0.9-2.34,1.79-3.53,2.66c-0.63,0.45-1.26,0.92-1.9,1.35
		l-0.96,0.66l-0.24,0.17l-0.12,0.08c-0.07,0.04-0.16,0.13-0.2,0.23c-0.09,0.2-0.04,0.44,0.12,0.59
		C82.9,10.81,83.05,10.86,83.09,10.87z M104.55,20.48c-0.81,1.09-1.79,1.98-2.83,2.82c-1.03,0.84-2.23,1.65-3.62,1.95
		c-1.38,0.3-2.84,0.13-4.13-0.39c-1.29-0.53-2.43-1.27-3.42-2.14c-0.99-0.89-1.76-1.97-2.38-3.11c-1.23-2.21-1.67-4.89-1.24-7.63
		c1.75,0.54,3.48,1.12,5.23,1.65c2.98,0.91,6.01,1.62,9.09,2.15c1.76,0.29,3.52,0.58,5.26,0.91
		C106.04,17.98,105.3,19.48,104.55,20.48z M91.7,2.36l0.12-0.39l0.03-0.1l0.01-0.03c0.01-0.02,0.02-0.04,0.04-0.06
		c0.05-0.07,0.12-0.12,0.2-0.14c0.04-0.01,0.08-0.01,0.12-0.01c0.02,0,0.04,0.01,0.06,0.01l0.13,0.04l0.78,0.22l6.23,1.71
		c2.08,0.55,4.17,1.07,6.27,1.55l0.79,0.18l0.12,0.03l0.04,0.01c0.02,0.01,0.05,0.02,0.07,0.04c0.05,0.03,0.08,0.09,0.09,0.15
		c0,0.01,0,0.03,0,0.05c0,0.01,0,0.02,0,0.03l-0.02,0.1l-0.08,0.4c-0.18,0.93-0.35,1.86-0.5,2.8c-1.08-0.65-2.21-1.12-3.36-1.52
		c-1.34-0.48-2.77-0.59-4.16-0.85c-1.39-0.27-2.79-0.52-4.18-0.76c-1.22-0.19-2.44-0.4-3.66-0.59C91.12,4.26,91.42,3.31,91.7,2.36z
		 M83.34,10.3l0.24-0.16l0.97-0.65c0.64-0.44,1.31-0.85,1.96-1.27c1.32-0.83,2.66-1.63,3.99-2.43l0.16-0.1l0.07-0.21
		c1.17,0.42,2.35,0.81,3.52,1.22c1.35,0.45,2.7,0.89,4.05,1.31c1.35,0.42,2.67,1.01,4.07,1.22c1.21,0.19,2.45,0.32,3.73,0.25
		l-0.02,0.13l0.1,0.16c0.81,1.3,1.65,2.58,2.45,3.89c0.41,0.65,0.78,1.32,1.17,1.98c0.19,0.33,0.37,0.67,0.56,1l0.27,0.5
		c0.09,0.12-0.02,0.26-0.14,0.23c-3.02-0.74-5.97-1.78-8.92-2.79c-2.96-0.99-5.96-1.8-9.02-2.41c-3.06-0.61-6.14-1.09-9.17-1.83
		l-0.06-0.02L83.34,10.3z"/>
	<path class="st0" d="M19.26,18.83c0.09,0.03,0.25,0.01,0.29,0l0.14-0.03c1.15-0.28,2.3-0.52,3.46-0.74
		c-0.19,2.91,1.37,5.94,3.85,7.72c1.29,0.93,2.82,1.5,4.38,1.72c0.78,0.12,1.57,0.14,2.34,0.06c0.39-0.03,0.77-0.13,1.15-0.2
		c0.38-0.09,0.74-0.22,1.1-0.33c1.44-0.52,2.74-1.25,3.96-2.12c1.2-0.86,2.43-1.84,3.28-3.17c0.84-1.32,1.23-2.91,1.24-4.46
		c0.01-0.39-0.05-0.78-0.08-1.16c-0.06-0.38-0.15-0.76-0.23-1.13c-0.12-0.37-0.25-0.73-0.39-1.07c-0.08-0.18-0.27-0.58-0.35-0.8
		c-0.06-0.14-0.13-0.18-0.19-0.26l-0.02-0.02c1.19-0.37,2.39-0.72,3.6-1.01c0.13-0.03,0.24-0.15,0.25-0.28
		c0.03-0.13-0.07-0.28-0.16-0.33l-0.47-0.33c-0.31-0.22-0.62-0.44-0.93-0.67c-0.61-0.46-1.23-0.91-1.83-1.39
		c-1.13-0.88-2.24-1.8-3.36-2.7c-0.16-1.01-0.34-2.01-0.53-3.01l-0.08-0.4l-0.02-0.1l-0.05-0.17c-0.04-0.11-0.08-0.22-0.14-0.33
		c-0.22-0.42-0.6-0.77-1.05-0.95c-0.22-0.09-0.47-0.14-0.71-0.15c-0.12-0.01-0.24,0.01-0.36,0.02l-0.17,0.03l-0.1,0.02l-0.79,0.18
		c-2.1,0.47-4.19,0.99-6.28,1.53l-6.24,1.7l-0.78,0.22l-0.1,0.03L22.78,4.8c-0.11,0.04-0.21,0.09-0.31,0.14
		c-0.2,0.11-0.38,0.26-0.53,0.44c-0.3,0.35-0.46,0.8-0.46,1.25c0,0.11,0.01,0.23,0.03,0.34l0.04,0.16l0.03,0.1l0.11,0.39
		c0.28,0.98,0.59,1.95,0.89,2.92c-0.61,1.34-1.22,2.69-1.86,4.01c-0.35,0.7-0.68,1.4-1.04,2.09l-0.53,1.04l-0.13,0.26l-0.07,0.13
		c-0.04,0.07-0.08,0.19-0.06,0.3C18.89,18.59,19.04,18.78,19.26,18.83z M43,17.18c-0.2,1.34-0.64,2.59-1.17,3.83
		c-0.52,1.23-1.19,2.51-2.28,3.43c-1.07,0.92-2.44,1.46-3.82,1.6c-1.38,0.14-2.74,0.03-4.03-0.27c-1.29-0.32-2.48-0.9-3.57-1.62
		c-2.13-1.37-3.77-3.52-4.68-6.15c1.8-0.34,3.6-0.66,5.39-1.01c3.06-0.6,6.06-1.4,9.02-2.39c1.67-0.56,3.34-1.13,5.02-1.66
		C43.1,14.29,43.19,15.92,43,17.18z M23.03,6.67c0.01-0.08,0.05-0.17,0.11-0.22c0.03-0.03,0.06-0.05,0.1-0.06
		c0.02-0.01,0.04-0.01,0.06-0.02l0.13-0.03l0.79-0.17l6.3-1.43c2.1-0.5,4.18-1.02,6.26-1.6l0.78-0.21l0.12-0.03l0.04-0.01
		c0.02,0,0.05-0.01,0.08,0c0.06,0.01,0.11,0.04,0.15,0.09c0.01,0.01,0.02,0.03,0.03,0.04c0,0.01,0.01,0.02,0.01,0.02l0.03,0.1
		l0.11,0.39c0.28,0.9,0.57,1.81,0.88,2.7c-1.26-0.06-2.48,0.06-3.68,0.25c-1.41,0.21-2.72,0.79-4.07,1.21
		c-1.35,0.42-2.7,0.85-4.05,1.3c-1.17,0.4-2.34,0.79-3.51,1.21c-0.19-0.98-0.37-1.95-0.57-2.93l-0.08-0.4l-0.02-0.1l0-0.03
		C23.03,6.71,23.03,6.69,23.03,6.67z M19.5,18.21l0.14-0.26l0.55-1.03c0.36-0.69,0.75-1.36,1.13-2.04c0.77-1.35,1.57-2.69,2.38-4.03
		l0.1-0.16l-0.04-0.22c1.23-0.18,2.45-0.39,3.68-0.58c1.4-0.24,2.79-0.49,4.19-0.76c1.39-0.26,2.82-0.37,4.16-0.85
		c1.16-0.4,2.31-0.87,3.4-1.53l0.04,0.12l0.16,0.09c1.33,0.76,2.67,1.5,3.99,2.28c0.67,0.38,1.31,0.79,1.96,1.19
		c0.33,0.2,0.64,0.41,0.96,0.62l0.48,0.32c0.13,0.06,0.1,0.24-0.02,0.27c-3.01,0.78-6.1,1.24-9.18,1.75
		c-3.08,0.52-6.11,1.23-9.09,2.13c-2.98,0.9-5.93,1.94-8.95,2.71l-0.06,0.02L19.5,18.21z"/>
	<path class="st0" d="M31.68,62.02c0.57,0.63,1.38,1.21,2.35,1.29c0.96,0.1,1.96-0.37,2.49-1.15c0.54-0.78,0.68-1.67,0.7-2.49
		c0-0.82-0.15-1.71-0.68-2.5c-0.27-0.38-0.64-0.72-1.07-0.94c-0.44-0.22-0.93-0.33-1.43-0.35c-1-0.02-1.98,0.44-2.62,1.16
		c-0.67,0.71-0.97,1.72-0.84,2.63C30.68,60.58,31.09,61.38,31.68,62.02z M31.24,59.67c0.12-0.73,0.5-1.35,0.99-1.79
		c0.51-0.44,1.15-0.65,1.79-0.67c0.65-0.01,1.29,0.17,1.91,0.54c0.63,0.36,1.15,1.1,1.14,1.92c0.02,0.82-0.51,1.56-1.13,1.93
		c-0.63,0.38-1.25,0.59-1.93,0.68c-0.67,0.09-1.48-0.01-2.06-0.54C31.38,61.23,31.12,60.4,31.24,59.67z"/>
	<path class="st0" d="M63.67,67.7L57.19,51.3l-3.29-8.18l-1.65-4.09c-0.28-0.69-0.53-1.35-0.84-2.06c-0.32-0.72-0.76-1.38-1.29-1.96
		c-1.05-1.16-2.48-1.96-4-2.25c-0.48-0.1-0.99-0.13-1.47-0.14c-0.1,0-0.12,0-0.21,0c-0.2,0-0.39,0.01-0.58,0.01l-2.2,0.04
		c-2.85,0.05-5.7,0.11-8.55,0.19l-8.51-0.18l-1.28-0.02c-0.02-0.04-0.04-0.07-0.05-0.11c-0.02-0.03-0.04-0.05-0.08-0.05
		c-0.05,0-0.1,0.04-0.1,0.09c0,0.02,0,0.04,0,0.06l-0.68-0.01c-0.72-0.01-1.49-0.05-2.26,0.09c-1.52,0.26-2.96,1-4.04,2.13
		c-0.54,0.56-1,1.2-1.34,1.9c-0.35,0.72-0.55,1.43-0.8,2.11l-1.44,4.16l-2.88,8.32L3.94,68.01l-0.71,2.1
		c-0.27,0.85-0.3,1.77-0.08,2.64c0.41,1.74,1.87,3.2,3.63,3.58c1.76,0.43,3.72-0.22,4.87-1.63c0.3-0.34,0.53-0.74,0.72-1.15
		c0.09-0.2,0.16-0.42,0.23-0.62l0.17-0.52l0.68-2.09l5.46-16.73l0.68-2.09l0.34-1.05l0.04-0.13L20,50.26
		c0.01-0.05,0.04-0.08,0.06-0.13c0.05-0.08,0.1-0.15,0.17-0.22c0.27-0.26,0.65-0.36,1.04-0.23l0.53,0.16l0.13,0.04L22,49.91
		c0.05,0.01,0.08,0.04,0.13,0.06c0.16,0.09,0.3,0.22,0.39,0.38c0.09,0.16,0.14,0.35,0.14,0.53c0,0.1-0.01,0.16-0.05,0.3l-0.15,0.53
		l-0.59,2.12l-1.18,4.24c-3.14,11.31-6.33,22.6-9.42,33.92l-0.27,0.97l0.99-0.01c3-0.02,5.99-0.05,8.99-0.09
		c0.06,2.99,0.02,5.98-0.13,8.96c-0.16,3.13-0.37,6.26-0.39,9.39c-0.05,3.13,0.1,6.26,0.33,9.39l0.08,1.18
		c0.04,0.42,0.11,0.84,0.23,1.24c0.24,0.8,0.65,1.54,1.19,2.14c1.07,1.23,2.66,1.92,4.25,1.93c1.59,0,3.19-0.69,4.26-1.92
		c0.54-0.61,0.95-1.35,1.2-2.15c0.13-0.4,0.19-0.82,0.23-1.24l0.08-1.18c0.24-3.13,0.41-6.26,0.44-9.39c0.06-3.13,0.06-6.26,0-9.39
		c-0.05-3.03-0.1-6.07-0.2-9.1c0.56-0.01,1.13-0.01,1.69-0.02l2.67-0.03c0.06,3.05,0.03,6.1-0.13,9.15
		c-0.16,3.13-0.37,6.26-0.39,9.39c-0.05,3.13,0.1,6.26,0.33,9.39l0.08,1.18c0.04,0.42,0.11,0.84,0.23,1.24
		c0.24,0.8,0.65,1.54,1.19,2.14c1.07,1.23,2.66,1.92,4.25,1.93c1.59,0,3.19-0.69,4.26-1.92c0.54-0.61,0.95-1.35,1.2-2.15
		c0.13-0.4,0.19-0.82,0.23-1.24l0.08-1.18c0.24-3.13,0.41-6.26,0.44-9.39c0.06-3.13,0.06-6.26,0-9.39c-0.05-3.09-0.1-6.18-0.21-9.27
		c2.67-0.02,5.34-0.03,8.01-0.04l0.43,0l-0.13-0.41c-3.44-11.25-6.75-22.53-9.95-33.85L45.63,54l-0.6-2.12
		c-0.09-0.34-0.23-0.75-0.25-0.97c-0.02-0.26,0.03-0.53,0.14-0.76c0.23-0.47,0.73-0.78,1.24-0.78c0.51-0.01,1.01,0.3,1.23,0.74
		c0.03,0.05,0.05,0.11,0.07,0.17l0.09,0.25l0.18,0.52l0.35,1.04l0.71,2.09c1.88,5.57,3.8,11.12,5.76,16.67l0.73,2.08
		c0.12,0.34,0.29,0.79,0.51,1.17c0.24,0.38,0.5,0.74,0.83,1.04c1.28,1.25,3.28,1.66,4.95,1.04c0.21-0.06,0.41-0.17,0.61-0.26
		c0.17-0.08,0.37-0.21,0.55-0.32c0.36-0.25,0.69-0.55,0.98-0.89c0.57-0.68,0.95-1.51,1.07-2.38c0.14-0.86,0.01-1.8-0.32-2.57
		L63.67,67.7z M24.58,33.23l8.51-0.18c2.85,0.08,5.7,0.14,8.55,0.19l2.2,0.04c0.08,0,0.16,0,0.24,0c-0.69,1.4-1.19,2.84-1.62,4.29
		c-0.53,1.71-0.68,3.5-1,5.26c-0.32,1.76-0.62,3.52-0.9,5.28c-0.26,1.7-0.54,3.39-0.78,5.1h-0.83l-0.76-2.04
		c-0.2-0.53-0.71-0.89-1.28-0.89h-5.75c-0.57,0-1.08,0.36-1.28,0.89l-0.76,2.04h-1.18c-0.24-1.7-0.52-3.4-0.78-5.1
		c-0.29-1.76-0.59-3.53-0.9-5.28c-0.31-1.76-0.47-3.55-1-5.26c-0.44-1.47-0.95-2.92-1.65-4.33L24.58,33.23z M41.57,54.47v10.4H26.42
		v-10.4H41.57z M30.43,53.23l0.6-1.61c0.02-0.05,0.06-0.08,0.11-0.08h5.75c0.05,0,0.1,0.03,0.11,0.08l0.6,1.61H30.43z M31.3,122.87
		c-0.11,0.72-0.41,1.42-0.84,2.04c-0.88,1.22-2.38,2.01-3.92,2.01c-1.55,0.02-3.05-0.78-3.93-2c-0.43-0.62-0.73-1.32-0.84-2.04
		c-0.06-0.36-0.07-0.73-0.05-1.09l0.08-1.17c0.23-3.13,0.38-6.26,0.33-9.39c-0.02-3.13-0.23-6.26-0.39-9.39
		c-0.15-2.99-0.19-5.98-0.13-8.97c0.76-0.01,1.52-0.01,2.28-0.02c0.89,0.03,1.77,0.08,2.66,0.12c1.49,0.07,2.99,0.14,4.48,0.2
		c-0.09,2.89-0.14,5.78-0.19,8.68c-0.06,3.13-0.06,6.26,0,9.39c0.03,3.13,0.19,6.26,0.44,9.39l0.08,1.17
		C31.36,122.14,31.36,122.51,31.3,122.87z M47.23,122.87c-0.11,0.72-0.41,1.42-0.84,2.04c-0.88,1.22-2.38,2.01-3.92,2.01
		c-1.55,0.02-3.05-0.78-3.93-2c-0.43-0.62-0.73-1.32-0.84-2.04c-0.06-0.36-0.07-0.73-0.05-1.09l0.08-1.17
		c0.23-3.13,0.38-6.26,0.33-9.39c-0.02-3.13-0.23-6.26-0.39-9.39c-0.15-3.02-0.19-6.04-0.13-9.06c1.65,0.03,3.29,0.11,4.93,0.18
		c1.49,0.07,2.99,0.14,4.48,0.2c-0.09,2.89-0.14,5.78-0.19,8.68c-0.06,3.13-0.06,6.26,0,9.39c0.03,3.13,0.19,6.26,0.44,9.39
		l0.08,1.17C47.29,122.14,47.29,122.51,47.23,122.87z M63.21,72.08c-0.18,1.18-1.04,2.17-2.19,2.55c-1.1,0.4-2.41,0.11-3.24-0.71
		c-0.22-0.19-0.39-0.43-0.54-0.67c-0.15-0.26-0.24-0.5-0.36-0.85l-0.74-2.08c-1.97-5.55-3.97-11.08-6.01-16.6l-0.76-2.07l-0.38-1.04
		l-0.19-0.52l-0.1-0.27c-0.05-0.11-0.09-0.22-0.15-0.33c-0.47-0.86-1.43-1.4-2.39-1.36c-0.96,0.03-1.88,0.64-2.27,1.51
		c-0.2,0.43-0.28,0.92-0.22,1.39c0.08,0.51,0.22,0.8,0.32,1.16l0.66,2.1l1.32,4.21c3.49,11.08,6.86,22.2,10.11,33.35
		c-2.53-0.01-5.07-0.02-7.6-0.04l0-0.16l-0.72,0.02c-0.84,0.03-1.68,0.07-2.52,0.11l-10.97-0.12c-7.08-0.08-14.16-0.19-21.24-0.23
		c3.22-10.94,6.36-21.91,9.53-32.86l1.22-4.23l0.61-2.11l0.15-0.53c0.06-0.22,0.13-0.52,0.13-0.79c0.02-0.55-0.13-1.1-0.4-1.58
		c-0.27-0.48-0.68-0.87-1.16-1.14c-0.12-0.06-0.25-0.13-0.37-0.17l-0.19-0.07l-0.13-0.04l-0.53-0.16c-0.47-0.16-1.08-0.2-1.6-0.07
		c-0.54,0.12-1.03,0.4-1.42,0.78c-0.2,0.19-0.36,0.41-0.5,0.65c-0.06,0.12-0.13,0.24-0.18,0.37l-0.07,0.19l-0.04,0.13l-0.34,1.05
		l-0.68,2.09l-5.38,16.77l-0.67,2.1l-0.17,0.52c-0.05,0.14-0.09,0.28-0.15,0.41c-0.12,0.25-0.25,0.5-0.44,0.71
		c-0.7,0.88-1.93,1.32-3.03,1.06c-1.12-0.22-2.07-1.13-2.35-2.25c-0.15-0.55-0.14-1.15,0.02-1.71l0.67-2.08l5.38-16.76l2.65-8.39
		l1.33-4.2c0.23-0.7,0.42-1.42,0.7-2.02c0.29-0.62,0.67-1.2,1.14-1.71c0.93-1.01,2.18-1.74,3.55-2.02c0.68-0.15,1.38-0.15,2.12-0.16
		l0.67-0.01c-0.03,1.61,0.13,3.18,0.37,4.74c0.26,1.77,0.89,3.46,1.36,5.18c0.47,1.72,0.95,3.44,1.45,5.16
		c0.49,1.63,0.96,3.27,1.47,4.89h-1.38c-0.64,0-1.16,0.52-1.16,1.16v10.58c0,0.64,0.52,1.16,1.16,1.16h15.33
		c0.64,0,1.16-0.52,1.16-1.16V54.38c0-0.64-0.52-1.16-1.16-1.16H40c0.51-1.63,0.98-3.26,1.47-4.89c0.5-1.72,0.98-3.44,1.45-5.16
		c0.47-1.72,1.1-3.41,1.36-5.18c0.23-1.54,0.4-3.09,0.37-4.68c0.44,0.02,0.87,0.07,1.3,0.18c1.36,0.32,2.58,1.09,3.48,2.13
		c0.45,0.52,0.82,1.11,1.08,1.74c0.26,0.64,0.52,1.36,0.77,2.04l1.54,4.13l3.09,8.26l6.29,16.48L63,70.33
		C63.24,70.92,63.3,71.49,63.21,72.08z"/>
</g>
</svg>
