<?xml version="1.0" encoding="utf-8"?>
<!-- Generator: Adobe Illustrator 24.1.2, SVG Export Plug-In . SVG Version: 6.00 Build 0)  -->
<svg version="1.1" id="Layer_1" xmlns="http://www.w3.org/2000/svg" xmlns:xlink="http://www.w3.org/1999/xlink" x="0px" y="0px"
	 viewBox="0 0 128 128" style="enable-background:new 0 0 128 128;" xml:space="preserve">
<style type="text/css">
	.st0{fill:#2D2D2D;}
</style>
<g>
	<path class="st0" d="M112.2,59l-0.2-0.2l-0.4-0.3l-0.7-0.7l-0.6-0.6c0-0.1,0-0.1,0-0.2c0-0.8-0.6-1.4-1.4-1.4
		c-0.8,0-1.4,0.6-1.4,1.4c0,0.8,0.6,1.4,1.4,1.4c0.2,0,0.4-0.1,0.6-0.2l0.8,0.4c0.3,0.1,0.6,0.3,0.9,0.4l0.5,0.2l0.2,0.1
		c0.1,0,0.1,0.1,0.3,0C112.4,59.1,112.3,59.1,112.2,59z"/>
	<path class="st0" d="M126.9,65.4c-1.1-1-1.8-1.6-2.1-1.9c0,0-0.1-0.1-0.1-0.1c-1.3-0.9-7.3-6.7-9.3-8.7l-0.5-0.5
		c-1.5-2.1-2.8-2.6-4.2-3.1c-0.3-0.1-0.6-0.2-1-0.4c-0.2-0.9-0.5-1.7-0.8-2.5c-0.4-0.9-0.9-1.8-1.4-2.6c-1.1-1.6-2.4-3.1-4-4.2
		c-0.8-0.6-1.6-1.1-2.4-1.6c-0.7-0.4-1.4-0.9-2.1-1.5c-1.3-1.2-2.5-2.5-3.2-4c-0.1-0.2-0.2-0.4-0.2-0.6l-0.1-0.3l-0.1-0.3L95.2,32
		l-0.7-2.7c-0.5-1.8-0.9-3.6-1.3-5.4l-1.4-5.4c-0.2-0.9-0.4-1.8-0.7-2.7c-0.1-0.4-0.3-0.9-0.4-1.3c-0.1-0.4-0.3-0.9-0.4-1.3v0
		c-0.1,0.2-0.2,0.4-0.2,0.6C90,14.1,90,14.3,90,14.5c-0.1,0.4-0.1,0.9-0.1,1.3c-0.1,0.9,0,1.8,0,2.7c0,1.8,0.1,3.6,0.2,5.4
		c0.1,1.8,0.2,3.6,0.4,5.4c0.1,1.8,0.3,3.6,0.6,5.4c0.1,0.5,0.1,0.9,0.2,1.4c0.1,0.5,0.3,0.9,0.4,1.4c0.4,0.9,0.8,1.7,1.4,2.5
		c0.6,0.8,1.2,1.5,2.1,2.1l0.6,0.4c0.2,0.1,0.3,0.2,0.5,0.4c0.3,0.2,0.7,0.5,1,0.8c1.2,1.1,2.4,2.5,3.3,3.9c0.7,1,1.4,2.1,2,3.2
		l-1,0c-0.2,0-0.3,0-0.4,0.1c-0.2-0.4-0.4-0.8-0.7-1.2c-0.7-1-1.5-1.8-2.5-2.5c-1-0.7-2.1-1.2-3.2-1.5c-0.6-0.2-1.1-0.3-1.7-0.4
		C92.3,45.1,91.7,45,91,45c-0.4,0-0.7,0.3-0.8,0.7l0,0c-0.1,0.7-0.1,1.4,0,2.1c0.1,0.7,0.2,1.3,0.4,2c0.3,1.1,0.9,2.1,1.7,3
		c-2.3,1.1-4.4,1.2-8.4,1.4l-0.8,0c-2.2,0.1-4.4-0.6-6.2-1.9c-2.9-2.1-8.8-4.9-20.1-6.2l-0.4,0c-2.2-0.3-15.7-1.7-26.5-1.3
		c-4.5,0.1-9.4,1.7-14.7,4.7c-1,0.5-1.9,1.2-2.7,1.9C10.2,52.8-1.8,61,4,76.5c1,2.2,2.7,3.8,4.2,5.2c0.3,0.3,0.6,0.6,0.9,0.9
		c-0.2,0.8-0.5,1.6-0.9,2.3c-0.3,0.6-0.6,1.3-1,1.9c-0.4,0.6-0.7,1.2-1.1,1.8c-0.8,1.1-1.7,2.2-2.6,3.2c-0.9,1-2,1.9-3.1,2.6l-0.1,0
		C0.1,94.6-0.1,95,0,95.3c0.1,0.4,0.6,0.7,1,0.5c0.5-0.1,1-0.2,1.5-0.3c0,0,0,0,0,0l-2,23.2c0,0.4,0.2,0.7,0.5,0.9l0.7,0.3l0.8,3.6
		c0,0,0.1,0.4,0.1,0.5l0.7,1.7c0.1,0.3,0.4,0.5,0.8,0.5h0l7.4-0.1c0.3,0,0.7-0.2,0.8-0.5c0.1-0.3,0.1-0.7-0.2-0.9l-3.9-3.9
		c0,0,0,0,0,0l-1.3-2.7l2.3-14.8l1.1-1.3c0,0.5,0.1,1,0.4,1.4c0.4,0.6,1,1.1,1.6,1.3c0.1,0,0.2,0.1,0.3,0c0.3,0,0.5-0.3,0.5-0.6
		l0-0.1c0-0.2,0-0.5,0.1-0.8c0.1-0.3,0.3-0.6,0.5-0.9c0,0,0.1-0.1,0.1-0.1l6,19.4c0.1,0.4,0.5,0.7,1,0.6c0.1,0,0.3-0.1,0.5-0.1
		c0.2,0.5,0.4,1.3,0.7,2c0.1,0.4,0.2,0.7,0.4,1c0,0.1,0.2,0.4,0.2,0.5l0.7,1.7c0.1,0.3,0.4,0.5,0.8,0.5h0l6.6-0.1l0.8,0
		c0.4,0,0.7-0.2,0.8-0.5c0.1-0.3,0.1-0.7-0.2-0.9l-0.8-0.8l-3-3c0,0,0-0.1-0.1-0.1c-1-1.9-4.2-8.4-5-11.1c-0.8-2.7-0.8-7-0.5-8.9
		c0.1,0,0.2,0.1,0.3,0.1c0.6,0.2,2.1,0.5,2.4,0.5c0.1,0,0.2,0,0.3-0.1c0.4-0.2,0.7-0.6,0.5-1.1C24.9,98.6,26.6,91.6,30,85
		c0.1,0,0.1-0.1,0.3-0.2c3.8-2.4,7.3-2.7,10.1-0.9c3,2,9.6,3.7,15.2,4.2c-0.6,2.8-1.3,8.6-0.8,11.8c0.4,2.5-0.1,6.8-0.1,6.9
		c-0.7,4.7-1.9,10.1-2.6,10.9c-0.2,0.2-0.3,0.5-0.2,0.8c0.1,0.3,0.3,0.5,0.5,0.6c0.5,0.2,0.9,0.5,1.1,0.7l0.4,3.2
		c0,0.1,0.9,2.2,0.9,2.2c0.1,0.3,0.4,0.5,0.8,0.5h0l7.4-0.1c0.4,0,0.7-0.2,0.8-0.5s0.1-0.7-0.2-0.9c0,0-3.9-4-3.9-4
		c-0.6-1.2-1.9-4.7-1.6-6.6c1-5,2.2-9.1,2.9-9.8c0.8-0.9,3.6-6,4.4-10.3c1.5,2.5,3.8,5.4,7.6,8.7c0.4,0.4,0.7,0.8,1.1,1.3
		c0.2,0.3,0.5,0.6,0.7,1c0.3,0.4,0.5,0.8,0.5,1.2c0.4,3.8-2.4,7.9-2.4,8c-0.2,0.3-0.2,0.6-0.1,0.9c0.1,0.3,0.4,0.5,0.7,0.5l0.4,0
		c0,0-0.6,3.5-0.7,3.8l-0.4,1.8c-0.1,0.3,0.1,0.7,0.4,0.9l6.1,4.2c0.1,0.1,0.3,0.2,0.5,0.2c0.2,0,0.3,0,0.5-0.1
		c0.3-0.2,0.4-0.5,0.4-0.9c0,0-0.7-5.6-0.7-5.8l2.4-14.5c0,0,0-0.1,0-0.1c0-0.1,0.1-1.9-0.6-3.6c-0.1-0.2-0.2-0.4-0.4-0.7
		c-0.3-0.5-0.7-1.2-1-2c-1.3-4-4-8.4-5.1-9.9c0.1-0.1,0.2-0.2,0.3-0.3c0,0,0.1,0,0.1,0c0.2,0,4.9-0.7,7.2-3.1
		c1.4,1.9,0.7,2.9,0.7,2.9c-0.3,0.3-0.3,0.7-0.1,1c0.2,0.3,0.4,0.4,0.7,0.4c0.1,0,0.2,0,0.3,0c0.3-0.1,5.8-1.9,8-6.1
		c1,1.2,2.4,1.8,3.3,1.9c0.4,0.1,0.7-0.1,0.9-0.5l3.3-7c0.9,1.5,2.8,3,5.7,2.9c0.3,0,0.6-0.2,0.8-0.5c0.1-0.3,0.1-0.6-0.1-0.9
		c-0.8-0.9-0.9-3.9,0-6.4c0.3-0.8,1-2.2,2.1-2.5c3.9,1.6,8.8,1.7,10.5,1.5c0.7,0.5,1.8,0.8,3.2,1c0.1,0,0.2,0,0.3,0
		c1.1,0,2.1-0.5,2.8-1.4l0.3-0.5c0.7,0.1,1.5-0.2,1.9-0.8l0.2-0.4C128.3,68.2,128.1,66.5,126.9,65.4z M101.8,46.4
		c-1.1-1.5-2.2-2.9-3.6-4.2c-0.4-0.3-0.7-0.6-1.1-0.9c-0.2-0.1-0.4-0.3-0.6-0.4l-0.3-0.2l-0.2-0.1c-0.6-0.4-1.2-1-1.6-1.7
		c-0.5-0.7-0.9-1.4-1.2-2.2c-0.3-0.8-0.5-1.5-0.6-2.4c-0.6-3.5-0.9-7-1.2-10.6c-0.2-2.1-0.4-4.2-0.6-6.3c0.1,0.4,0.1,0.8,0.2,1.2
		c0.3,1.8,0.7,3.6,1,5.4c0.4,1.8,0.8,3.6,1.2,5.4l0.6,2.7l0.3,1.4l0.1,0.3l0.1,0.4c0.1,0.3,0.2,0.5,0.3,0.7c0.4,0.9,1,1.7,1.6,2.5
		c0.6,0.8,1.3,1.5,2,2.1c0.7,0.6,1.5,1.3,2.4,1.7c0.8,0.4,1.5,0.9,2.2,1.5c1.4,1.1,2.6,2.4,3.6,3.8c0.5,0.7,0.9,1.5,1.3,2.3
		c0.2,0.4,0.3,0.8,0.5,1.2c-1.4-0.1-2.8,0.1-3.7,0.3C103.5,49.1,102.7,47.8,101.8,46.4z M5.6,75.9c-3.1-8.3-0.8-14.2,2.2-18
		c-0.8,2.1-1.2,4.3-1.2,6.6c0.1,5.3,1.8,12.9,8.6,18.6c-0.5,1.6-1.1,3.1-1.8,4.7c-0.2-1.6-0.7-3.6-1.6-4.8c-0.6-0.8-1.5-1.6-2.3-2.4
		C7.9,79.1,6.4,77.7,5.6,75.9z M4.8,93c1-1.1,1.9-2.3,2.7-3.6c0.4-0.6,0.7-1.3,1-2C8.7,86.7,9,86,9.2,85.3c0.2-0.7,0.4-1.5,0.4-2.2
		c0.3,0.3,0.5,0.6,0.8,0.9c1,1.4,1.4,4.9,1.5,6.2c0,0.1,0,0.2,0.1,0.3c-1.3,2.4-2.7,4.5-3.8,5.8L8.1,96c-0.2-0.6-0.4-1.2-0.6-1.8
		c0-0.1-0.2-0.2-0.3-0.2L7,94C6.5,94,6,94,5.5,94c-0.5,0-1.1,0-1.6,0c-0.1,0-0.1,0-0.1,0C4.1,93.7,4.4,93.3,4.8,93z M7.5,122.5
		l2,1.9l-4.7,0l-0.3-0.7L7.5,122.5z M9.8,100l-2.1,2.4c-0.1,0.1-0.2,0.3-0.2,0.4l-2.4,15.3c0,0.2,0,0.4,0.1,0.5l1.1,2.3
		c-0.1,0.1-0.3,0.3-0.4,0.4L4,122.1l-0.7-3c-0.1-0.3-0.2-0.5-0.5-0.6l-0.6-0.2l2-23v0C5.1,95.1,6,95,6.8,94.9l0.5,1.3
		c0.2,0.5,0.1,1-0.3,1.3C7,97.5,7,97.6,6.9,97.6c-0.4,0.3-0.4,0.8-0.1,1.2C7,99,7.2,99.1,7.5,99.2c0.2,0.1,0.5,0,0.7,0
		c0.4,0,0.8-0.1,1.2-0.1c0.4-0.1,0.8-0.2,1.2-0.3c0.2-0.1,0.3-0.1,0.5-0.2C11,98.9,10,99.7,9.8,100z M29.3,126.2l-4.7,0l-0.3-0.8
		l3.2-1.1L29.3,126.2z M26.2,122.5c0.1,0.2,0.2,0.3,0.2,0.5l-2.7,0.9c-0.1-0.3-0.2-0.6-0.3-1c-0.3-1-0.7-1.9-0.7-2
		c-0.2-0.4-0.6-0.6-1-0.5c-0.1,0-0.2,0-0.4,0.1l-5.4-17.4c0.1,0.1,0.1,0.2,0.2,0.3c0.4,0.4,0.8,0.8,1.2,1.1c0.4,0.4,0.9,0.7,1.5,0.9
		c0,0,0,0,0.1,0c0.5,0.2,1-0.1,1.1-0.5l0,0c0.1-0.3,0.3-0.6,0.4-0.9c0.1-0.3,0.3-0.5,0.4-0.8c-0.1,2.4-0.1,6.2,0.7,8.7
		C22.2,114.5,24.9,120,26.2,122.5z M58.6,121.7l2.3,2.3l-4.7,0l-0.3-0.7L58.6,121.7z M59.7,102.6c-1.4,1.4-2.8,7.9-3.4,10.7
		c-0.4,2.2,0.8,5.4,1.4,6.9l-2.3,1.3l-0.3-2.2c0-0.2-0.1-0.3-0.2-0.4c-0.1-0.1-0.5-0.5-1.1-1c1.2-2.7,2.3-9.4,2.5-10.9
		c0-0.1,0.2-1.6,0.2-3.4c0.6,0.1,1.6-0.1,3.2-1.1C59.7,102.5,59.7,102.6,59.7,102.6z M63.9,90.8c0.1,2.3-1,5.6-2.2,8.1
		c-1.7,0.9-4.3,0.8-5.3,0.7c-0.6-3.4,0.4-9.3,0.8-11.3c0.5,0,0.9,0,1.4,0c1.9,0,3.4-0.2,4.4-0.7c0.2,0.9,0.5,1.9,1,3
		C63.9,90.7,63.9,90.7,63.9,90.8z M74.6,120.5l0.3-1.2c0-0.1,0-0.2,0-0.3l3,0.6c0,0.1,0,0.1,0,0.2l0.6,3.4L74.6,120.5z M78.8,99.3
		c0.3,0.8,0.7,1.4,1,1.9c0.1,0.2,0.2,0.4,0.3,0.5c0.5,1.2,0.5,2.6,0.5,2.8l-2.3,13.5l-2.9-0.6l0.3-3c0-0.2,0-0.5-0.2-0.6
		c-0.1-0.1-0.3-0.2-0.5-0.3c0.9-1.7,2.3-4.8,2-7.9c-0.1-0.8-0.4-1.5-0.9-2.2c-0.2-0.3-0.4-0.6-0.6-0.9c-0.4-0.6-0.8-1.1-1.3-1.6
		c0.5,0.2,1.6,0.3,2.6-0.9C78,99.9,78.5,99.7,78.8,99.3z M126,68.6l-0.2,0.4c0,0-0.1,0-0.1,0l-0.4-0.1c-0.1,0-0.2,0-0.4,0
		c0,0-0.1,0-0.1,0l-2.2-0.5l0.1,0l-1-0.3c-0.2-0.1-0.3-0.1-0.5-0.1c-0.2,0-0.3-0.1-0.6-0.1c0.1,0.2,0.3,0.3,0.4,0.4
		c0.1,0.1,0.3,0.2,0.4,0.3l0.9,0.6l0,0l0.1,0l1.6,0.6l-0.3,0.4c-0.4,0.5-0.9,0.8-1.5,0.7c-1.2-0.1-2.1-0.4-2.6-0.8
		c-0.2-0.2-0.5-0.3-0.8-0.2c-0.9,0.2-8.2,0.3-12-2.6c-0.1,0-0.1-0.1-0.2-0.1c-0.1,0-0.1-0.1-0.2-0.1l-2.5-0.8l-1.2-0.4l-0.3-0.1
		c-0.1,0-0.2-0.1-0.2-0.1c-0.1-0.1-0.2-0.1-0.3-0.3l-1.1-4.4l0.4,4.6l0,0l0,0c0.1,0.3,0.3,0.5,0.5,0.7c0.1,0,0.1,0.1,0.2,0.1
		c0.1,0,0.1,0.1,0.1,0.1l0.3,0.2l1.1,0.6l2.2,1.3c0,0,0.1,0,0.1,0c0.2,0.2,0.5,0.3,0.7,0.5c-0.8,0.6-1.4,1.6-1.9,2.8
		c-0.7,1.9-1,4.6-0.5,6.5c-2.8-0.6-3.4-3.2-3.4-3.3c-0.1-0.4-0.4-0.6-0.7-0.7c-0.4,0-0.7,0.1-0.9,0.5l-3.8,8c-0.8-0.3-2-0.9-2.2-2.5
		c-0.1-0.4-0.4-0.7-0.8-0.7h0c-0.4,0-0.8,0.3-0.8,0.7c-0.6,3.3-4,5.3-6,6.3c0-1-0.5-2.4-2-4c-0.2-0.2-0.5-0.3-0.7-0.3
		c-0.3,0-0.5,0.2-0.6,0.4c-0.8,1.4-3.1,2.3-4.8,2.8c0.4-0.5,0.7-1,1-1.6c1-1.6,1.8-3.3,2.4-5.1c0.2-0.4,0.3-0.9,0.4-1.3l0.2-0.7
		l0.1-0.7l0.3-1.4l0.2-1.4l0.1-0.7c0-0.2,0-0.5,0-0.7L82,71c0-0.9,0-1.9,0-2.8c-0.1,0.9-0.1,1.8-0.2,2.8l-0.2,1.4
		c0,0.2-0.1,0.5-0.1,0.7l-0.1,0.7L81.1,75l-0.4,1.3L80.5,77l-0.2,0.6c-0.2,0.4-0.3,0.9-0.5,1.3c-0.7,1.7-1.6,3.2-2.6,4.7
		c-0.5,0.7-1.1,1.4-1.7,2.1c-0.6,0.6-1.3,1.3-1.9,1.8l0,0c0,0,0,0,0,0c-0.4,0.3-0.4,0.9-0.1,1.2c0,0,0,0,0,0c0,0.1,0.1,0.2,0.1,0.2
		c0.6,0.6,2.3,3.3,3.8,6.3c-1.9,1.9-4.7,2.5-6.1,2.8c-4.9-5-6.2-8.8-6.7-11.6c0-0.1-0.1-0.3-0.2-0.4l-2.3-2.7l0.4-1.3c0,0,0,0,0,0
		c0.1-0.1,0.1-0.3,0.1-0.4v-0.1c0-0.5,0-1.1,0-1.6c0.1-0.5,0-1.1,0.1-1.6c0.1-1.1,0.4-2.1,0.7-3.1c0.4-1,0.8-2,1.4-2.9
		c0.6-0.9,1.3-1.8,2.1-2.5c-0.9,0.6-1.7,1.4-2.5,2.3C63.6,73,63,74,62.5,75c-0.5,1-0.9,2.1-1.2,3.2c-0.2,0.6-0.2,1.1-0.4,1.7
		c-0.1,0.6-0.1,1.1-0.2,1.7c0,0,0,0.1,0,0.1l-0.5,1.7c-0.1,0.3,0,0.6,0.2,0.8l1.7,2c-0.8,0.4-2.8,0.4-5.1,0.3
		c-0.2-0.1-0.3-0.1-0.5,0c-5.1-0.4-11.9-1.8-15.1-3.9c-2-1.3-5.3-2.4-9.7-0.3c0.1-0.2,0.2-0.3,0.3-0.5c1-1.4,1.9-2.9,2.7-4.6
		c0,0,0,0,0,0c0,0,0,0,0,0c1-1.4,1.7-2.9,2.4-4.4c0.6-1.5,1.1-3.1,1.4-4.7c0.3-1.6,0.4-3.3,0.3-4.9l-0.1-1.2l-0.2-1.2l-0.1-0.6
		l-0.2-0.6l-0.4-1.2l0.3,1.2l0.1,0.6l0.1,0.6l0.1,1.2V63c0,1.6-0.3,3.2-0.7,4.7c-0.4,1.5-1,3-1.8,4.4c-0.7,1.4-1.6,2.7-2.6,3.9l0,0
		c0,0,0,0,0,0.1c0,0.1-0.1,0.1-0.1,0.2c0,0-0.1,0.1-0.1,0.1c-0.7,1.6-1.6,3.1-2.6,4.3c0,0,0,0-0.1,0.1c-4.1,6.6-7.6,16.2-6,21.4
		c-0.4-0.1-0.8-0.2-1.1-0.4c-0.2-0.2-0.4-0.4-0.6-0.6c-0.1-0.2-0.3-0.5-0.4-0.8c0-0.1-0.1-0.1-0.1-0.2c-0.2-0.3-0.7-0.4-1-0.1
		l-0.1,0c-0.1,0.1-0.1,0.1-0.2,0.2l-0.1,0.1l-0.2,0.2c-0.1,0.2-0.3,0.3-0.4,0.5c-0.3,0.3-0.5,0.7-0.7,1c-0.2,0.3-0.4,0.7-0.7,1.1
		c0,0.1-0.1,0.2-0.1,0.3c-0.1-0.1-0.2-0.2-0.4-0.2c-0.4-0.3-0.7-0.6-1.1-0.9c-0.7-0.6-1.4-1.4-2-2.1l0-0.1c-0.2-0.3-0.6-0.3-0.9-0.1
		c-0.4,0.3-0.7,0.6-0.9,0.9c-0.3,0.3-0.5,0.6-0.7,1c-0.2,0.4-0.4,0.7-0.5,1.1c0,0.1-0.1,0.2-0.1,0.4c-0.2-0.1-0.4-0.3-0.5-0.5
		c-0.3-0.4-0.4-0.9-0.4-1.5c0-0.6,0.1-1.1,0.3-1.7c0.1-0.6,0.3-1.2,0.4-1.9v0c0-0.1,0-0.2-0.1-0.2c-0.1-0.1-0.3-0.1-0.4,0
		c-0.3,0.2-0.6,0.3-1,0.4C10,98,9.6,98,9.3,98.1c-0.1,0-0.3,0-0.4,0.1c2.3-2.6,6.5-9.4,8.2-15.2c0.1-0.3,0-0.7-0.3-0.9
		C10,76.7,8.5,69.5,8.3,64.4c-0.1-4.5,1.8-8.7,5.1-11.6c0.1-0.1,0.4-0.3,0.5-0.4c0.6-0.5,1.3-1,2-1.4c0.3-0.2,0.6-0.3,0.9-0.5
		c0.6,0.7,0.9,1.6,1.1,2.4c0.2,0.9,1.1,2.5,1.3,3.4c0.2,0.9,0.1,1.9,0,2.8L19.1,62L19,63.4c0,0.5,0,1,0.1,1.5c0.1,1,0.4,2,0.8,2.9
		c0.4,0.9,0.9,1.7,1.4,2.5c0.5,0.8,0.9,1.6,1,2.6c0,0,0,0,0,0c0,0,0,0,0.1,0c0.1-1-0.2-2-0.6-2.8c-0.4-0.9-0.8-1.7-1.1-2.6
		c-0.3-0.9-0.5-1.8-0.6-2.7C19.9,63.9,20,63,20,62c0-0.5,0.1-1,0-1.4c0-0.5,0-1-0.1-1.5c-0.1-1-0.3-1.9-0.4-2.9c0-1-0.5-2.7-0.9-3.6
		c-0.2-0.5-0.4-0.9-0.7-1.3c-0.3-0.4-0.6-0.7-1.1-0.9c2.4-1.3,4.7-2.2,6.9-2.9c0.4,1,0.7,2,1.1,2.9c0.3,1.1,1.6,4.1,1.9,5.2
		c0.2,0.5,0.2,1.1,0.2,1.7c0,0.6,0,1.1-0.1,1.7c-0.1,0.6-0.1,1.1-0.1,1.7c-0.1,0.6-0.1,1.1-0.2,1.7c-0.1,0.6-0.1,1.1-0.2,1.7
		c-0.1,0.6-0.1,1.2-0.1,1.7c0,1.2,0.2,2.3,0.5,3.4c0.3,1.1,0.7,2.2,1.1,3.2c0.4,1.1,0.8,2.1,0.8,3.2c0,0,0,0,0,0c0,0,0.1,0,0.1,0
		c0.1-1.1-0.2-2.3-0.5-3.4c-0.3-1.1-0.6-2.2-0.8-3.2c-0.2-1.1-0.3-2.2-0.3-3.3c0-0.5,0.1-1.1,0.1-1.6c0.1-0.5,0.2-1.1,0.2-1.7
		c0.1-1.1,0.1-2.3-0.1-3.4c-0.2-1.1-0.4-2.3-0.4-3.4c-0.1-1.1-1.1-4.3-1.5-5.4c-0.4-1-0.9-2-1.6-2.7c2-0.6,4-0.9,5.8-1
		c4.3-0.1,9,0,13.3,0.2c0.5,1.1,0.8,2.2,1,3.4c0.2,1.2,1.1,4.1,1.1,5.4c0,0.6-0.1,1.3-0.2,1.9c-0.2,0.6-0.3,1.3-0.4,1.9
		c-0.2,0.6-0.3,1.2-0.5,1.9c-0.2,0.6-0.3,1.2-0.5,1.9c-0.6,2.6-0.4,5.3-0.1,7.9c0.2,1.3,0.4,2.6,0.6,3.9c0.2,1.3,0.5,2.5,0.5,3.8
		c0,0,0,0,0,0s0,0,0.1,0c0.1-0.7,0-1.3,0-2c0-0.6-0.1-1.3-0.2-1.9c-0.1-1.3-0.3-2.6-0.4-3.9c-0.2-2.6-0.2-5.1,0.4-7.6
		c0.1-0.6,0.4-1.2,0.5-1.9c0.2-0.6,0.2-1.3,0.3-1.9c0.1-0.6,0.1-1.3,0.1-2l0-1c0-0.3,0-0.6,0-1c0-1.3-0.2-4.2-0.5-5.6
		c-0.1-0.3-0.2-0.6-0.3-1c-0.1-0.3-0.2-0.6-0.4-0.9c-0.2-0.5-0.5-0.9-0.9-1.3c5,0.3,9.4,0.7,11.5,0.9c0.3,1.5,0.7,4.2,0.8,5.4
		c0,1.2,0.2,2.6,0,3.8c-0.1,0.6-0.4,1.2-0.6,1.8c-0.3,0.6-0.5,1.2-0.7,1.8c-0.3,0.6-0.5,1.2-0.8,1.7c-0.3,0.6-0.5,1.2-0.8,1.8
		c-1,2.5-1.4,5.1-1.5,7.7c-0.1,1.3-0.1,2.6-0.1,3.9s0,2.6-0.2,3.9c0,0,0,0,0,0.1c0,0,0.1,0,0.1,0c0.2-0.6,0.3-1.3,0.3-1.9
		c0.1-0.6,0.1-1.3,0.2-1.9c0.1-1.3,0.2-2.6,0.4-3.9c0.3-2.5,0.7-5.1,1.7-7.4c0.3-0.6,0.6-1.2,0.8-1.8c0.3-0.6,0.4-1.2,0.7-1.9
		c0.2-0.6,0.3-1.3,0.5-1.9l0.1-1c0.1-0.3,0.1-0.6,0.2-1c0.2-1.3,0.7-2.6,0.6-3.9c0-0.3-0.5-2.7-0.5-3c-0.1-0.3-0.1-0.7-0.2-1
		c-0.1-0.4-0.3-0.9-0.5-1.3c0.3,0,0.6,0.1,0.8,0.1l0.4,0.1c3.9,0.5,7.2,1.1,9.9,1.8c0,1.5-0.1,4.4-0.3,5.5c-0.2,1.2-0.3,2.5-0.8,3.7
		c-0.2,0.6-0.6,1.1-0.9,1.7c-0.4,0.5-0.7,1.1-1.1,1.6c-0.4,0.5-0.7,1.1-1.1,1.6c-0.4,0.5-0.7,1-1.1,1.6c-1.5,2.2-2.4,4.7-3,7.2
		c-0.3,1.3-0.6,2.5-0.9,3.8c-0.3,1.3-0.5,2.5-1,3.7c0,0,0,0,0,0.1c0,0,0.1,0,0.1,0c0.3-0.6,0.5-1.2,0.7-1.8c0.2-0.6,0.4-1.2,0.6-1.9
		c0.4-1.2,0.7-2.5,1.1-3.7c0.8-2.4,1.7-4.9,3.2-6.9c0.4-0.5,0.8-1,1.2-1.6c0.4-0.5,0.7-1.1,1-1.7c0.3-0.6,0.6-1.2,0.8-1.8l0.3-0.9
		c0.1-0.3,0.2-0.6,0.4-0.9c0.5-1.2,1.2-2.4,1.4-3.7c0.1-0.3,0.1-0.7,0.1-1c0-0.3,0-2.9,0-3.2c0-0.5-0.1-0.9-0.3-1.4
		c4.6,1.3,7.4,2.8,9.1,4c1,0.7,2,1.2,3.1,1.6c0,0.6,0,1.2-0.1,1.8c-0.1,0.8,0,1.7-0.2,2.6c-0.2,0.9-0.6,1.6-1.1,2.4l-0.6,1.1
		c-0.1,0.2-0.2,0.4-0.3,0.6l-0.3,0.6c-0.2,0.4-0.4,0.8-0.6,1.2c-0.2,0.4-0.4,0.8-0.6,1.2c-0.3,0.8-0.6,1.7-0.7,2.6
		c-0.1,0.9-0.1,1.8-0.2,2.6c-0.1,0.9-0.3,1.7-0.8,2.4c0,0,0,0,0,0.1c0,0,0.1,0,0.1,0c0.6-0.7,0.9-1.5,1.1-2.4
		c0.2-0.9,0.3-1.8,0.5-2.6c0.4-1.7,1.1-3.2,2.1-4.7c0.2-0.4,0.4-0.8,0.6-1.2c0.2-0.4,0.4-0.8,0.5-1.2c0.1-0.4,0.3-0.9,0.3-1.3
		c0.1-0.4,0.2-0.9,0.4-1.3l0.5-1.3c0.1-0.4,0.2-0.9,0.2-1.3c0-0.5,0-0.9-0.1-1.4c0-0.1-0.1-0.2-0.1-0.3c1.2,0.3,2.4,0.5,3.6,0.4
		l0.8,0c1.4-0.1,2.7-0.1,3.8-0.2c0,0.3,0,0.6-0.1,0.9c-0.1,0.8,0.1,1.7-0.1,2.5c-0.1,0.8-0.6,1.6-0.9,2.3c-0.3,0.8-0.6,1.5-0.8,2.4
		c-0.6,1.6-0.8,3.4-0.4,5.2c0.2,0.9,0.5,1.6,0.8,2.4c0.3,0.8,0.4,1.6,0.2,2.4c0,0,0,0,0,0.1c0,0,0.1,0,0.1,0
		c0.4-0.8,0.4-1.7,0.2-2.5c-0.2-0.8-0.4-1.6-0.5-2.4c-0.2-1.6,0.1-3.2,0.6-4.7c0.3-0.8,0.5-1.6,0.7-2.4c0.2-0.8,0.2-1.7,0.4-2.5
		c0.2-0.8,0.6-1.6,0.7-2.5c0-0.4,0-0.7-0.1-1.1c1.8-0.2,3.3-0.6,4.9-1.4c0.1-0.1,0.2-0.1,0.3-0.3c0.3,0.2,0.5,0.4,0.8,0.5
		c0.6,0.3,1.2,0.6,1.8,0.8c1.2,0.4,2.5,0.5,3.7,0.2c0.4,0.6,0.8,1.2,1.2,1.8c-0.3-0.8-0.6-1.5-0.9-2.2c0-0.1-0.1-0.1-0.2-0.1l-0.1,0
		c-0.6,0-1.2,0-1.7-0.1c-0.6-0.1-1.1-0.3-1.7-0.6c-1.1-0.5-2-1.2-2.8-2c-0.8-0.8-1.3-1.8-1.6-2.9c-0.2-0.5-0.3-1.1-0.3-1.7
		c0-0.3,0-0.6,0-0.9c0,0,0,0,0.1,0c0.2,0,0.5,0,0.7,0.1c0.5,0.1,1,0.2,1.5,0.3c1,0.2,2,0.6,2.8,1.2c0.9,0.5,1.7,1.2,2.4,2
		c0.7,0.8,1.3,1.7,1.7,2.7l0,0.1c0,0,0,0,0,0.1c0.4,0.4,0.9,0.6,1.3,0.8c0.5,0.2,1,0.3,1.5,0.3c-0.5-0.1-0.9-0.3-1.3-0.6
		c-0.2-0.1-0.4-0.3-0.6-0.5c-0.2-0.1-0.3-0.3-0.4-0.5c0-0.1-0.1-0.2-0.1-0.2l2.2,0c0,0,0,0,0,0c0,0,0.1,0,0.1,0c0,0,0.1,0,0.1,0
		c0.9-0.2,3.4-0.7,4.8-0.1c0.5,0.2,1,0.4,1.5,0.6c1.3,0.4,2.2,0.8,3.4,2.5c0,0,0.1,0.1,0.1,0.1l0.5,0.5c3.7,3.6,8.1,7.9,9.5,8.9
		c0.1,0.1,0.3,0.2,0.6,0.5c-0.2,0.6,0.2,2.1,0.6,2.4c0.4,0.3,1,0.3,1.3-0.1c0,0,0,0,0,0C126.3,68,126.2,68.3,126,68.6z"/>
	<path class="st0" d="M110,65.4c-0.6,0-0.2,0.6-1,1c-0.5,0.2,0.2,0.9,0.8,0.9s1.4-0.2,1.4-0.8S110.6,65.4,110,65.4z"/>
</g>
</svg>
