<?xml version="1.0" encoding="utf-8"?>
<!-- Generator: Adobe Illustrator 23.0.0, SVG Export Plug-In . SVG Version: 6.00 Build 0)  -->
<svg version="1.1" id="Layer_1" xmlns="http://www.w3.org/2000/svg" xmlns:xlink="http://www.w3.org/1999/xlink" x="0px" y="0px"
	 viewBox="0 0 128 128" 
width="128" height="128"
style="enable-background:new 0 0 128 128;" xml:space="preserve">
<style type="text/css">
	.st0{fill:#2D2D2D;}
</style>
<g>
	<path class="st0" d="M127.3,47.1c-0.6-0.5-1.4-1.1-1.8-1.4c-0.7-0.5-1.4-1-2.1-1.4c-0.5-0.3-1.1-0.6-1.6-0.9
		c-1.1-0.6-2.1-1.2-3-2.1c-0.8-0.8-1.5-1.7-2.5-2.4c-0.5-1-1.2-1.7-2-2.2c-0.4-0.3-0.9-0.5-1.3-0.7c-0.3-0.1-0.6-0.2-0.9-0.3
		c-0.3-0.1-0.6-0.3-0.6-0.6c-0.2-0.9-0.8-2-1-2.7c-0.3-0.8-0.6-1.7-1.1-2.5c-0.5-0.8-1-1.5-1.6-2.2c-0.6-0.7-1.2-1.3-1.9-1.8
		c-1.1-1.3-2.3-2.4-3.5-3.6c-1.2-1.2-2.3-2.4-3.3-3.8c-1-1.4-1.8-2.8-2.5-4.4c-0.7-1.5-1.4-3-2.1-4.5l-3-6.5l1.4,7
		c0.3,1.5,0.6,3,1.1,4.5c0.5,1.5,1,2.9,1.7,4.3c0.4,0.8,0.9,1.7,1.4,2.5l-1.9-2.6c-1-1.3-2.1-2.6-3.1-4c-1-1.4-1.8-2.8-2.5-4.4
		l-0.8-1.9l0.2,2.1c0.2,2.1,0.4,4.3,1,6.4c0.6,2.1,1.4,4.1,2.4,6.1c1,1.9,2.4,3.7,3.8,5.3c1.2,1.3,2.5,2.3,3.8,3.3
		c0.1,0.7,0.3,1.4,0.5,2.2l0.2,0.8c0.1,0.3,0.2,0.5,0.3,0.8c0.1,0.3,0.1,0.3,0.3,0.5c-0.5,0.4-1.1,1.1-1.7,1.6
		c-0.6,0.5-1,1.1-1.5,1.7c-0.5,0.6-1,1.1-1.5,1.8c-0.4,0.6-0.9,1.3-1.2,2.1l0,0.1c-0.2,0.7-0.7,1.5-1.1,2.2
		c-0.4,0.7-0.9,1.4-1.4,2.2c-0.5,0.7-1,1.4-1.5,2.2c-0.5,0.7-3,3.6-3.8,4.1c-0.9,0.4-1.8,0.6-2.8,0.7c-2.8-1-5.7-1.4-8.6-1.6
		c-1.5-0.1-2.9-0.1-4.4-0.1c-0.7,0-1.5,0-2.2,0.1l-1.1,0.1c-0.3,0-0.6,0-1,0c-0.3,0-0.6-0.1-0.9-0.1c-0.2,0-0.3-0.1-0.5-0.1
		l-0.5-0.1c-0.7-0.2-1.4-0.4-2.2-0.6c-1.4-0.4-2.9-0.6-4.3-0.8c-2.9-0.4-5.8-0.8-8.7-1c-4.8-1.2-9.8-1.6-14.7-1.5
		c-2.5,0-5,0.1-7.4,0.4c-0.6,0.1-1.2,0.1-1.9,0.2c-0.3,0-0.6,0.1-0.9,0.2l-0.9,0.2c-1.2,0.3-2.4,0.7-3.6,1.1
		c-2.4,0.8-4.7,1.8-6.8,3.1c-2.2,1.3-4.2,2.7-6.2,4.1c-2.1,1.4-4,3.3-5.1,5.6c-0.6,1.2-1,2.4-1.2,3.6c-0.2,1.2-0.3,2.3-0.2,3.5
		c0,0.3,0,0.6,0,0.9c0,0.4,0.1,0.7,0.1,1.1c0.1,0.7,0.2,1.5,0.3,2.2c0.2,1.4,0.4,2.9,0.5,4.2c0,0.6-0.1,1.3-0.3,2
		c-0.2,0.7-0.5,1.4-0.8,2c-0.3,0.7-0.6,1.3-0.9,2c-0.3,0.7-0.6,1.4-0.6,2.2c-0.1,0.8,0.1,1.7,0.6,2.4l0.1,0.1l0,0l0,0
		c0,0,0.1,0.1,0.1,0.1c0.3,0.2,0.4,0.2,0.5,0.2c0.1,0,0.1,0,0.2,0l0.1,0c0.1,0,0.1,0,0.2-0.1C2,90.1,2.2,90,2.4,89.9
		c0.4-0.2,0.7-0.4,1-0.6c0.7-0.4,1.3-0.8,1.9-1.3c0.6-0.5,1.2-1,1.7-1.7c0.3-0.5,0.4-0.9,0.5-1.3c0.1-0.4,0.1-0.8,0.1-1.2
		c0-0.8-0.1-1.5-0.2-2.3c-0.1-0.9-0.3-1.8-0.5-2.7c0.8,1.1,1.8,2,2.8,2.9c0.6,0.5,1.3,1.1,2,1.6C11.1,84.6,8.5,90,3,92.2l-0.7,0.3
		l0.2,0.8c0.7,2.7,1.8,11.7,1.9,13.3c0.3,2.3,0.6,12.2,0.6,12.3l0.1,1.6l1.3-0.8c0.4-0.3,0.9-0.5,1.2-0.7c0.3,0.6,0.8,1.5,1.5,2.8
		l0.2,0.3c0,0,0,0.1,0,0.1l0.8,1.9c0.1,0.3,0.5,0.6,0.8,0.6h7.4c0.4,0,0.7-0.2,0.8-0.6c0.1-0.3,0.1-0.7-0.2-1l-3.9-3.9l0,0l-0.6-0.8
		c-0.4-0.6-3.5-5.4-4.4-9.5c-0.1-0.4-0.2-0.8-0.3-1.2c-0.8-3.6-1.5-7,0.3-8.6c1.6-1.4,5.6-4.1,8-5.7c-0.4,1-0.8,2-1.2,2.8
		c-0.7,1.9-1.4,3.5-2.1,4.4l-0.5,0.5l0.4,0.6c0.5,0.7,5.2,7.1,7.8,9.3c1.6,2,7.4,10.2,8.1,12.1l0.3,0.9l0.9-0.4
		c0.5-0.2,0.9-0.4,1.2-0.5l1.8,2.2c0,0,0,0.1,0,0.1l0.8,1.9c0.1,0.3,0.5,0.6,0.8,0.6h7.4c0.4,0,0.7-0.2,0.8-0.6
		c0.1-0.3,0.1-0.7-0.2-1l-4.4-4.5c-0.1-0.1-0.6-0.4-0.7-0.5c-1-0.7-4.4-3.3-6.1-5.5c-0.3-0.3-0.6-0.8-1-1.2
		c-2.5-2.9-7.1-8.4-6.2-12.2c0.8-3.3,5.1-11.7,7.7-14.9c0,0,0,0,0,0c0.7-0.9,1.3-1.8,1.9-2.7c3.1,2.5,8.3,3.6,12.6,3.6
		c2,0,3.8-0.2,5.1-0.7c1.1-0.4,3.1-0.4,5.2-0.4c2.8,0,6,0,8.7-0.8c0.2,2.1,0.3,4.8,0.4,5.5c-0.4,1.3-2.8,10.3-2.5,14
		c-0.5,2.9-3.6,15.2-3.8,16l-0.4,1.5l1.5-0.4c0.5-0.1,0.9-0.2,1.2-0.3l0.9,2.9l0.1,0l0.6,1.5c0.1,0.3,0.5,0.6,0.8,0.6h7.4
		c0.4,0,0.7-0.2,0.8-0.6c0.1-0.3,0.1-0.7-0.2-1l-3.9-3.9c0,0-1.1-5.3-0.7-8.7c0.4-3.3,1-6.2,1.1-6.7c0.3-0.8,3-7.8,3.6-9.6
		c0.7-0.9,2.1-2.9,3.5-5c1.3,1.6,4.9,5.8,8.3,8.5c0.4,0.3,0.6,0.7,0.5,1.1l0,0.8c0,3.3-0.1,9.3-1.6,12.9l-0.6,1.4l2.3-0.2l-0.3,2.8
		l-0.2,1.2c0,0.4,0.1,0.7,0.4,0.9l6.4,3.7c0.1,0.1,0.3,0.1,0.5,0.1c0.2,0,0.4-0.1,0.6-0.2c0.3-0.2,0.4-0.6,0.3-0.9l-1.6-6.1
		c0,0-1.2-4.4-0.7-8.8c0.5-4.5,1.1-7.1,1.1-7.1c0-0.1,0.9-3.4-1.3-6.4c-1.1-2.8-4.6-9.6-5.4-11.2c0.3-0.2,0.6-0.3,0.9-0.5l1-0.7
		c0.4-0.2,0.7-0.5,1-0.8c1.2-1.1,2.3-2.5,3-3.9c0.4-0.7,0.7-1.5,1-2.2c0.2-0.4,0.3-0.8,0.4-1.1l0.4-1c1.8-1.2,3.6-2.4,5.2-3.9
		c1.6-1.5,3-3.3,4.2-5.2c1.2-1.9,2-4,2.5-6.2l0.3-1.6c0.1-0.5,0.1-1.1,0.2-1.7c0,0,0.7-2.1,0.9-2.3c0.6,0.4,1.3,0.7,2,0.9
		c1.1,0.3,2.3,0.4,3.5,0.3c1.1-0.1,2.3-0.3,3.4-0.6c1-0.3,2-0.5,3-0.9c0.3,0.2,0.7,0.3,1,0.4c0.4,0.1,0.9,0.1,1.3,0.1
		c0.9,0,1.7-0.2,2.5-0.4l0.1,0l0-0.1l0.7-1.6c0.2,0,0.5,0,0.8-0.1c0.1,0,0.3-0.1,0.4-0.2c0.2-0.1,0.4-0.4,0.4-0.4
		c0.1-0.2,0.2-0.4,0.3-0.6c0.2-0.3,0.4-0.9,0.7-1.4C128.2,48.5,128,47.6,127.3,47.1z M100.1,27.1c-0.3,0.7-0.3,1.3-0.3,1.9
		c0,0.5,0.1,1,0.1,1.6c-0.2-0.2-0.4-0.5-0.6-0.7c-0.7-0.8-1.3-1.6-1.9-2.5c-1.2-1.7-2.3-3.5-3.3-5.3c-1-1.8-1.9-3.7-2.6-5.6
		c-0.4-1.1-0.8-2.2-1.2-3.4c0.4,0.7,0.7,1.4,1.1,2.1c0.8,1.5,1.5,3.1,2.5,4.5c1,1.4,2.1,2.7,3.2,4c1,1.1,2.1,2.1,3.2,3L100.1,27.1z
		 M16.4,123h-4.7l-0.5-1.2c0.7-0.4,1.7-1,2.4-1.5L16.4,123z M9,97.8c-2.6,2.2-1.7,6.1-0.8,10.3c0.1,0.4,0.2,0.8,0.2,1.2
		c0.7,3.6,3,7.6,4.1,9.4c-0.7,0.4-1.6,1-2.3,1.4c-0.6-1.2-1.2-2.3-1.3-2.5l-0.2-0.5l-0.4-0.1c-0.2-0.1-0.5-0.2-1.6,0.3
		c-0.1-2.9-0.4-9.1-0.6-11C6,104.8,5.1,97,4.4,93.6c5.3-2.4,8-7.4,8.8-9.3c0.3,0.2,0.6,0.4,1,0.6c0,0.1,0.1,0.1,0.2,0.2
		c1.3,0.9,4.2,3.4,4.5,5.6C17.9,91.4,11.2,95.8,9,97.8z M42.1,126.3h-4.7l-0.6-1.4c0,0,0,0,0,0l2.7-1.2L42.1,126.3z M71.6,126.3
		h-4.7l-0.4-1.1l2.7-1.4L71.6,126.3z M92.3,123.1l-4-2.3l0.1-0.8l3-0.3L92.3,123.1z M90.4,97l0,0.1l0.1,0.1c1.7,2.3,1.1,5,1,5
		c0,0.1-0.7,2.7-1.2,7.3c-0.4,3.4,0.1,6.7,0.5,8.3l-2.4,0.2l0.3-3l-1.5,0.2c1.1-3.8,1.2-8.9,1.2-12.1l0-0.8c0-1-0.4-1.9-1.2-2.6
		c-3.8-2.9-7.7-7.8-8.5-8.7c0.9-1.5,1.6-2.9,1.9-4c0.2-0.2,0.4-0.3,0.5-0.5c1.3,0,2.5-0.3,3.7-0.7C85.6,86.9,89.4,94.3,90.4,97z
		 M94,74.3L94,74.3l-0.1,0.1c-0.3,0.7-0.5,1.5-0.9,2.2c-0.4,0.7-0.8,1.4-1.3,1.9c0,0-0.1,0.1-0.1,0.1c0,0,0,0,0,0
		c-0.4-0.6-0.8-1.2-1.1-1.8c-0.4-0.7-0.7-1.4-1-2c-0.2-0.7-0.4-1.3-0.4-2c0.1-0.6,0.2-1.3,0.5-2c0.6,0.2,1.1,0.4,1.6,0.7
		c0.6,0.3,1.3,0.7,2,0.8c0.7,0.1,1.4,0.1,2.1,0.1c0.2,0,0.5-0.1,0.7-0.1C95.5,73.1,94.8,73.8,94,74.3z M104.9,59
		c-0.5,1.4-1.1,2.7-1.8,4c0,0,0,0,0,0l0,0c-0.2-0.5-0.4-0.9-0.6-1.3c-0.3-0.6-0.6-1.3-1-1.9l-0.5-0.9l-0.5-0.9
		c-0.2-0.3-0.3-0.6-0.4-0.9c0-0.2,0-0.3,0-0.4c0-0.1,0-0.1,0.1-0.2c0.3,0.3,0.7,0.6,1,0.9c0.4,0.4,0.9,0.7,1.4,0.8
		c0.5,0.1,1.1,0.2,1.6,0.1c0.3,0,0.7-0.1,1-0.2c0,0,0,0,0,0C105.1,58.4,105,58.7,104.9,59z M125.8,50.1c-0.1,0.2-0.1,0.4-0.2,0.5
		c0,0,0,0,0,0c0,0,0,0,0,0c-0.2,0.1-0.6,0.2-0.9,0.2c-0.7,0.1-1.5,0-2.2-0.1c-0.8-0.1-1.5-0.2-2.3-0.3c0,0-0.1,0-0.1,0.1
		c0,0,0,0.1,0,0.1c0.7,0.3,1.4,0.6,2.2,0.8c0.8,0.2,1.5,0.4,2.4,0.5c0.1,0,0.2,0,0.3,0l-0.8,1.3c-0.8,0.1-1.5,0.1-2.3,0
		c-0.8-0.1-1.5-0.3-2-0.7l-0.2-0.2l-0.3,0.1c-1,0.3-2.1,0.5-3.2,0.7c-1.1,0.2-2.2,0.2-3.2,0.3c-1.1,0.1-2.1,0.1-3.2,0.1
		c-0.6,0-2.1-1.2-2.6-1.3l-4.8-0.8l-0.1,0c-0.1,0-0.2,0-0.3-0.1l-1.7-3.1l1,3.4v0l0,0c0.2,0.3,0.4,0.5,0.7,0.6l4.2,1.6
		c-0.3,1.2-0.6,2.4-1,3.6c0,0,0,0,0,0v0l0,0c-0.9-0.4-1.6-0.6-2.4-0.8c-0.4-0.1-0.9-0.2-1.4-0.2c-0.5,0-1-0.2-1.3-0.5l-0.2-0.1
		L100,56c-0.2,0.1-0.4,0.3-0.5,0.5c-0.1,0.2-0.2,0.4-0.2,0.6c-0.1,0.4-0.1,0.9-0.1,1.3c0,0.4,0.1,0.8,0.3,1.2
		c0.1,0.4,0.3,0.7,0.4,1.1c0.3,0.7,0.8,1.3,1.4,1.9c0.4,0.4,0.9,0.8,1.5,1.1l0,0c0,0,0,0,0,0c-0.2,0.3-0.4,0.7-0.6,1
		c-1,1.8-2.2,3.5-3.6,5.2c-0.5,0.6-1,1.2-1.6,1.8c0,0,0,0,0,0c0,0,0,0,0,0c-0.5-0.2-1-0.3-1.5-0.4c-0.7-0.1-1.3-0.3-2-0.3
		c-0.7,0-1.3,0.1-2,0c-0.7,0-1.3-0.3-1.8-0.7L89.6,70l-0.3,0.3c-0.6,0.6-1.4,1.3-1.6,2.3c-0.3,1-0.3,2.1,0.1,3
		c0.4,0.9,1,1.7,1.7,2.3c0.6,0.5,1.2,0.9,1.9,1.2c-0.9,1-1.8,1.9-2.8,2.7c-1.1,1-2.4,1.8-3.8,2.6c-0.9,0.5-1.9,0.9-2.9,1.3
		c0.2-0.2,0.3-0.3,0.5-0.5c0.6-0.6,1.1-1.3,1.7-2c0.5-0.7,1-1.4,1.4-2.2c0.4-0.8,0.7-1.6,0.7-2.5c-0.2,0.8-0.6,1.6-1.1,2.2
		S84,82,83.4,82.5c-0.6,0.6-1.2,1.1-1.9,1.6c-0.6,0.5-1.3,0.9-1.9,1.3c-0.3,0.1-0.5,0.4-0.6,0.7c-0.5,2.2-4.7,8.4-6.2,10.3l-0.1,0.2
		l-0.1,0.2c-0.4,1.5-3.5,9.6-3.6,9.7l0,0.1c0,0-0.7,3.3-1.1,6.9c-0.4,3,0.3,7,0.6,8.5l-2.6,1.3l-0.7-2.3l-0.7,0.1c0,0-0.3,0-0.7,0.1
		c0.9-3.6,3.1-12.5,3.5-14.9l0-0.1l0-0.1c-0.3-3.4,2.5-13.5,2.5-13.6l0-0.1l0-0.1c0,0-0.2-4.1-0.4-6.6c0,0,0,0,0-0.1
		c0-0.2,0-0.3,0-0.5c0-1.5,0.8-3,1.1-3.6c0.1-0.1,0.1-0.2,0.2-0.3c0,0,0,0,0,0c0.2-0.3,0.2-0.7,0-1c0-0.6,0-1.3,0.1-1.9
		c0.1-0.8,0.2-1.7,0.4-2.5c0.2-0.8,0.5-1.6,0.8-2.4c0.3-0.8,0.7-1.6,1.2-2.3c-0.6,0.7-1.1,1.4-1.6,2.1c-0.5,0.7-0.9,1.5-1.3,2.3
		c-0.4,0.8-0.7,1.7-0.9,2.5c-0.2,0.8-0.4,1.6-0.5,2.5c-0.4,0.7-1.2,2.3-1.4,4.1c-2.6,0.9-5.8,0.9-8.6,0.9c-2.3,0-4.4,0-5.8,0.5
		c-3.7,1.3-12.3,0.5-16.1-2.8c0.3-0.6,0.6-1.1,0.8-1.7c0.5-1.1,0.9-2.3,1.2-3.5c0.3-1.2,0.4-2.4,0.3-3.6c0,1.2-0.3,2.4-0.7,3.5
		c-0.4,1.1-1,2.2-1.6,3.2c-0.4,0.7-0.8,1.3-1.3,1.9c-0.1,0-0.1,0.1-0.2,0.1c-0.1,0.1-0.2,0.2-0.2,0.4c-0.1,0.2-0.3,0.3-0.4,0.5
		c-0.6,0.8-1.3,1.5-2,2.2c-0.1,0.1-0.2,0.1-0.3,0.2c0,0.1-0.1,0.1-0.2,0.2l0,0c0,0,0,0.1-0.1,0.1c0,0-0.1,0.1-0.1,0.1
		c-2.8,3.7-6.9,11.8-7.7,15.2c-1.1,4.7,3.7,10.4,6.6,13.8c0.4,0.5,0.7,0.8,1,1.2c1.5,1.9,4.1,4,5.6,5.2l-2.1,0.9l-1.8-2.2l-0.6,0.2
		c0,0-0.5,0.1-1.2,0.4c-1.6-3.1-6.8-10.3-8.1-11.9l-0.1-0.1c-1.8-1.6-5.2-5.9-7.2-8.5c0.7-1.1,1.3-2.6,2-4.3
		c0.5-1.3,1.1-2.7,1.7-4.1c2-4.3-4.6-9-5-9.2c-0.1-0.1-0.2-0.2-0.4-0.3l0,0c-0.3-0.1-0.8-0.3-1.1-0.5c-0.4-0.2-0.8-0.4-1.2-0.6
		c-0.8-0.4-1.5-0.9-2.2-1.4c-1.4-1-2.8-2.2-3.9-3.6c-1.1-1.4-2-3-2.3-4.7c-0.2-0.9-0.2-1.8-0.1-2.7c0.1-0.9,0.4-1.8,0.7-2.6
		c-0.4,0.8-0.7,1.7-0.9,2.6c-0.2,0.8-0.2,1.7-0.1,2.6c0,0.1,0,0.1,0,0.2c0.2,1.9,1,3.6,2,5.2c0.1,0.2,0.2,0.3,0.3,0.4
		c0,1.2,0.1,2.4,0,3.6c0,0.7,0,1.4-0.1,2.1c0,0.3-0.1,0.7-0.2,1C6,85,5.9,85.3,5.8,85.4c-0.2,0.2-0.4,0.5-0.7,0.7
		c-0.3,0.2-0.5,0.5-0.8,0.7c-0.5,0.4-1.1,0.9-1.7,1.3c-0.4,0.3-0.7,0.5-1.1,0.7h0c0,0,0,0,0,0C1.2,88.3,1,87.9,1,87.3
		C0.8,86,1.4,84.5,2,83.2c0.3-0.7,0.7-1.3,1-2c0.3-0.6,0.6-1.3,0.8-2.1c0,0,0-0.1,0-0.2c0.1-1.1,0-2.2-0.2-3.3
		c-0.1-0.4-0.2-0.8-0.3-1.3c-0.2-0.7-0.4-1.4-0.7-2.1c-0.1-0.3-0.3-0.7-0.4-1c-0.1-0.3-0.1-0.6-0.2-0.9c0.2-2.3,0.8-4.5,2-6.5
		c0.6-1,1.3-1.9,2.2-2.7c0.4-0.4,0.9-0.8,1.3-1.2c0.5-0.3,0.9-0.7,1.5-1c4.1-2.7,8.1-5.4,12.6-7.4c1.1-0.5,2.3-0.9,3.4-1.3
		c0.6-0.2,1.1-0.4,1.7-0.5c0.6-0.1,1.2-0.2,1.8-0.3c1.5-0.2,3-0.3,4.6-0.4h0c0,0,0,0,0,0c0,0,0,0,0,0h0c-0.6,0.4-1.1,0.8-1.5,1.3
		c-0.7,0.8-1.2,1.8-1.3,2.8c-0.1,1,0,2,0,3l0.1,2.9c-0.1,0.8-0.6,1.6-1,2.5c-0.2,0.5-0.5,0.9-0.6,1.5c-0.1,0.6-0.1,1-0.1,1.6
		c0,1,0.2,2,0.2,2.9c0,0.9,0,1.9-0.2,2.9c0,0,0,0.1,0,0.1c0,0,0.1,0,0.1,0c0.5-0.8,0.9-1.8,1-2.8c0.1-1,0.1-2,0.1-3
		c0-0.5,0-1,0.1-1.4c0-0.3,0.2-0.8,0.4-1.2c0.2-0.4,0.4-0.9,0.6-1.4c0.2-0.5,0.3-1,0.2-1.7l0-0.2l0-0.2L31,58.4
		c-0.1-0.2-0.1-0.5-0.2-0.7c-0.1-0.5-0.2-1-0.2-1.4c0-1,0.2-1.9,0.6-2.8c0.3-0.9,0.7-1.7,1.2-2.5c0.4-0.7,0.9-1.3,1.4-1.9
		c0,0,0,0,0,0c0.7,0,1.4,0,2.1,0c0.8,0,1.7,0.1,2.5,0.2h0c0,0,0,0,0,0c-0.5,0.6-0.9,1.2-1.4,1.8C36.5,52,36,53,35.7,54
		c-0.3,1-0.3,2.2-0.3,3.2l-0.1,3.2c0,1.1,0.1,2.1,0.2,3.1c0.1,1,0.1,2,0.1,3c0,1,0,2-0.1,2.9c-0.1,1-0.3,2-0.4,3c0,0,0,0.1,0,0.1
		c0,0,0.1,0,0.1,0c1.2-1.7,1.9-3.9,2-6c0-2.2-0.6-4.2-1.2-6.2c-0.2-1-0.3-2-0.2-3c0.2-1,0.6-1.9,1-2.8l1.1-2.8
		c0.3-0.7,0.6-1.5,0.9-2.3c0,0,0,0,0,0c0,0,0,0,0,0c2.9,0.3,5.8,0.8,8.6,1.5c0,0,0,0,0,0c0,0,0,0,0,0c-0.5,0.6-1,1.2-1.4,1.8
		c-0.6,0.9-1.1,1.9-1.3,2.9c-0.3,1-0.2,2.1-0.3,3.2l-0.1,3.1c0,1.1,0.1,2.1,0.2,3.1c0.1,1,0.1,2,0.1,3c0,1,0,2-0.1,2.9
		c-0.1,1-0.3,2-0.4,3c0,0,0,0.1,0,0.1c0,0,0.1,0,0.1,0c1.2-1.7,1.9-3.9,2-6c0-2.2-0.6-4.2-1.2-6.2c-0.2-1-0.3-2-0.2-3
		c0.2-1,0.6-1.9,1-2.8l1.1-2.8c0.3-0.7,0.6-1.5,0.9-2.2c0,0,0,0,0,0c0,0,0,0,0,0c0.8,0.2,1.5,0.4,2.2,0.6l0.1,0l0.1,0
		c1.3,0.2,2.6,0.3,3.9,0.5c0,0,0,0,0,0c0,0,0,0,0,0c-0.7,0.7-1.2,1.5-1.7,2.3c-0.6,1-1.1,2.1-1.3,3.3c-0.2,1.2-0.1,2.4-0.2,3.5
		c0,1.2-0.1,2.3,0,3.5c0.1,1.1,0.1,2.2,0.1,3.4c0,1.1,0,2.2-0.1,3.3c-0.1,2.2-0.3,4.4-0.7,6.7c0,0,0,0.1,0,0.1c0,0,0.1,0,0.1,0
		c1.3-2,1.9-4.3,2.1-6.7c0.1-1.2,0.1-2.3,0-3.5c-0.1-1.2-0.2-2.3-0.6-3.5c-0.1-0.6-0.3-1.1-0.4-1.6c-0.1-0.6-0.2-1.1-0.2-1.7
		c0-1.1,0.4-2.2,0.8-3.2c0.5-1,0.8-2,1.3-3.1c0.4-0.9,0.8-1.8,1.1-2.8c0,0,0,0,0,0c0,0,0,0,0,0c1.4,0.2,2.8,0.4,4.3,0.7
		c1.4,0.3,2.8,0.6,4.2,0.9c0.7,0.2,1.4,0.4,2,0.6c0.2,0,0.4,0.1,0.6,0.2c0.2,0.1,0.4,0.1,0.6,0.1c0.4,0.1,0.8,0.1,1.2,0.2
		c0.4,0,0.8,0,1.2,0l1.1-0.1l2.1-0.2c1.4-0.1,2.9-0.1,4.3-0.1c2.7,0,5.4,0.2,8,0.8c0,0,0,0,0,0c0,0.1,0,0.1,0,0.2
		c-0.1,1.1,0,2.1,0.1,3.2c0.1,1,0.3,2.1,0.5,3.1c0.2,1,0.5,2,0.9,3c0.4,1,0.9,1.9,1.4,2.7c-0.4-0.9-0.7-1.9-0.9-2.9
		c-0.2-1-0.4-2-0.5-3c-0.1-1-0.1-2-0.1-3c0-1,0.2-2,0.3-2.9l0,0c0,0,0-0.1,0-0.1c0-0.1,0-0.2,0-0.3c0,0,0,0,0,0c0,0,0,0,0,0
		c0.7-0.2,1.4-0.5,2-0.9c0.9-0.6,3.7-3.2,4.4-3.8c0.7-0.6,1.4-1.2,2-1.9c0.6-0.7,1.2-1.5,1.6-2.3c0.5-0.8,0.8-1.7,1-2.8
		c0.1-0.6,0.4-1.2,0.7-1.8c0.3-0.6,0.7-1.2,1.1-1.8c0.4-0.6,0.8-1.2,1.3-1.8c0.4-0.6,1.6-1.5,1.6-1.5c0.2,0.2,0.2,0.2,0.3,0.4
		c0.8,0.8,1.7,1.3,2.6,1.7c-0.1,0.7-0.1,1.3-0.1,2c0.3-0.7,0.5-1.4,0.8-2.1l0.1-0.2l-0.2-0.2c-0.8-0.6-1.6-1.3-2.1-2
		c-0.3-0.4-0.5-0.8-0.6-1.2c0-0.2-0.1-0.4-0.2-0.7l-0.2-0.8c-0.2-1-0.4-2-0.5-3c-0.1-0.6-0.1-1.3-0.1-1.9c0,0,0,0,0,0
		c0.5,0.2,1.1,0.4,1.6,0.6c0.8,0.4,1.5,0.9,2.1,1.5c0.6,0.6,1.2,1.3,1.6,2.1c0.4,0.8,0.8,1.6,1,2.5l0,0.2l0.1,0c0.4,0.3,0.7,0.7,1,1
		l0.5,0.5c0.2,0.2,0.3,0.4,0.5,0.5c-0.1-0.2-0.2-0.4-0.3-0.7c-0.1-0.2-0.2-0.5-0.3-0.7c-0.2-0.4-0.4-0.8-0.7-1.2
		c-0.1-1-0.3-1.9-0.7-2.8c-0.4-0.9-0.9-1.8-1.6-2.6c-0.7-0.8-1.5-1.4-2.4-1.9c-0.9-0.5-1.9-0.9-2.9-1.1l-0.1,0
		c-0.5-1.5-1.2-2.8-1.8-4.2c-0.6-1.4-1.2-2.8-1.8-4.2c-0.3-0.9-0.7-1.7-1-2.6c0.8,1,1.5,2.1,2.3,3.1c1,1.4,1.9,2.8,2.9,4.2
		c0.9,1.4,2,2.8,3.2,4l0,0.1l0.1,0c0.3,0.3,0.7,0.5,1,0.8c0.3,0.3,0.6,0.6,0.9,0.9c0.6,0.6,1.1,1.2,1.7,1.9c1,1.3,2.5,3.5,3.1,5.1
		l0,0c0,0,0,0,0,0c0.7,0.7,1.4,1.3,2,2c0.3,0.3,0.6,0.7,0.9,1c0.2,0.3,0.5,0.7,0.6,1l0.1,0.2l0.2,0.1c1,0.6,2.1,1.1,3.2,1.7
		c1,0.6,1.9,1.4,2.8,2.3c0.4,0.4,0.8,0.9,1.3,1.3c0.4,0.4,0.9,0.8,1.3,1.2c0.3,0.3,0.6,0.6,0.9,0.8c0,0,0,0,0,0c0,0,0,0,0,0
		c-0.1,0.1-0.2,0.1-0.2,0.2c-0.4,0.6,0.1,1.7,0.7,2.1C125.5,49.9,125.6,50,125.8,50.1C125.8,50,125.8,50,125.8,50.1
		C125.8,50,125.8,50.1,125.8,50.1z"/>
	<path class="st0" d="M112.1,41.8c-1.2-0.2-2.3,0.9-2.3,0.9s0.6,1.4,1.9,1.6c1.3,0.2,2.4-0.9,2.4-0.9S113.3,42,112.1,41.8z"/>
	<path class="st0" d="M27.6,79.6c-0.7,0.6-1.1,1.4-0.8,1.8c0.3,0.4,1.2,0.2,1.9-0.5c0.7-0.6,1.1-1.4,0.8-1.8
		C29.2,78.8,28.3,79,27.6,79.6z"/>
	<path class="st0" d="M83.5,72.5c-0.7,0.6-1.1,1.4-0.8,1.8c0.3,0.4,1.2,0.2,1.9-0.4c0.7-0.6,1.1-1.4,0.8-1.8
		C85.1,71.7,84.2,71.9,83.5,72.5z"/>
	<path class="st0" d="M76.9,74.1c-0.7,0.6-1,1.4-0.7,1.7c0.3,0.4,1.1,0.2,1.8-0.4c0.7-0.6,1-1.4,0.7-1.7
		C78.4,73.3,77.6,73.5,76.9,74.1z"/>
	<path class="st0" d="M79.5,67c-0.6,0.5-0.9,1.2-0.6,1.5c0.3,0.3,1,0.1,1.6-0.4s0.9-1.2,0.6-1.5C80.8,66.3,80.1,66.5,79.5,67z"/>
	<path class="st0" d="M108.4,46.8c-0.7-0.4-1.4-0.5-1.6-0.1c-0.2,0.3,0.2,1,0.8,1.4c0.7,0.4,1.4,0.5,1.6,0.1
		C109.4,47.8,109.1,47.2,108.4,46.8z"/>
	<path class="st0" d="M111.1,51.2c-0.7-0.4-1.6-0.3-1.8,0c-0.2,0.3,0,1.1,0.7,1.5c0.7,0.4,1.5,0.3,1.8,0
		C112,52.4,111.7,51.6,111.1,51.2z"/>
	<path class="st0" d="M115.4,48.1c-0.5-0.3-0.9-0.3-1.1,0c-0.2,0.3,0,0.6,0.5,1c0.5,0.3,0.9,0.3,1.1,0
		C116,48.8,115.9,48.5,115.4,48.1z"/>
	<path class="st0" d="M63.4,76.8c-0.6,0.5-0.9,1.2-0.6,1.5c0.3,0.3,1,0.1,1.6-0.4c0.6-0.5,0.9-1.2,0.6-1.5
		C64.7,76.1,64,76.3,63.4,76.8z"/>
	<path class="st0" d="M60.3,78.3c-0.3-0.2-1.2,0.1-1.6,0.8s-0.3,1.2,0.1,1.4c0.3,0.2,0.8,0,1.2-0.7S60.6,78.5,60.3,78.3z"/>
	<path class="st0" d="M47,79.7c-0.7,0.5-1.1,1.1-0.9,1.5c0.2,0.4,1,0.3,1.8-0.2c0.7-0.5,1.1-1.1,0.9-1.5
		C48.6,79.2,47.8,79.3,47,79.7z"/>
	<path class="st0" d="M43.3,79.3c-0.5,0.2-0.7,0.5-0.6,0.8c0.1,0.3,0.5,0.4,1,0.2s0.6-0.5,0.5-0.8C44,79.3,43.8,79.1,43.3,79.3z"/>
	<path class="st0" d="M54.9,79.8c-0.5,0.4-0.8,0.9-0.6,1.2c0.2,0.3,0.7-0.1,1.3-0.2c0.7-0.1,0.8-0.9,0.6-1.2
		C56,79.3,55.4,79.4,54.9,79.8z"/>
	<path class="st0" d="M22.7,72.8c-0.8,0.5-1.3,1.3-1,1.7c0.3,0.4,1.1,0.3,1.9-0.2c0.8-0.5,1.3-1.3,1-1.7
		C24.4,72.2,23.6,72.3,22.7,72.8z"/>
	<path class="st0" d="M19.7,79.6c-0.6,0.6-0.9,1.4-0.6,1.7c0.3,0.3,1.1,0.1,1.7-0.6s0.9-1.4,0.6-1.7C21.1,78.7,20.3,79,19.7,79.6z"
		/>
	<path class="st0" d="M13.4,77.5c-0.5,0.5-0.7,1.1-0.4,1.3c0.2,0.2,0.8,0,1.3-0.4c0.5-0.5,0.7-1.1,0.4-1.3
		C14.4,76.8,13.8,77,13.4,77.5z"/>
	<path class="st0" d="M10.4,70.7c-0.6,0.6-0.8,1.4-0.5,1.7c0.3,0.3,1.1,0,1.7-0.6c0.6-0.7,0.8-1.4,0.5-1.7
		C11.7,69.7,10.9,70,10.4,70.7z"/>
	<path class="st0" d="M14,65.7c0.5-0.6,0.7-1.3,0.4-1.5c-0.3-0.3-1,0-1.5,0.6c-0.5,0.6-0.7,1.3-0.4,1.5C12.8,66.6,13.5,66.3,14,65.7
		z"/>
	<path class="st0" d="M22.1,64c-0.3-0.3-1,0-1.5,0.6c-0.5,0.6-0.7,1.3-0.4,1.6c0.3,0.3,1,0,1.5-0.6C22.2,64.9,22.4,64.2,22.1,64z"/>
</g>
</svg>
