<?xml version="1.0" encoding="utf-8"?>
<!-- Generator: Adobe Illustrator 24.1.2, SVG Export Plug-In . SVG Version: 6.00 Build 0)  -->
<svg version="1.1" id="Layer_1" xmlns="http://www.w3.org/2000/svg" xmlns:xlink="http://www.w3.org/1999/xlink" x="0px" y="0px"
	 viewBox="0 0 128 128" style="enable-background:new 0 0 128 128;" xml:space="preserve">
<style type="text/css">
	.st0{fill:#2D2D2D;}
</style>
<g>
	<path class="st0" d="M114.2,40.2l-0.2-0.2l-0.4-0.3l-0.7-0.6l-0.6-0.5c0-0.1,0-0.1,0-0.2c-0.1-0.8-0.7-1.3-1.5-1.2
		c-0.8,0.1-1.3,0.7-1.2,1.5c0.1,0.8,0.7,1.3,1.5,1.2c0.2,0,0.4-0.1,0.6-0.2l0.8,0.3c0.3,0.1,0.6,0.2,0.9,0.3l0.5,0.1l0.2,0.1
		c0.1,0,0.1,0.1,0.3,0C114.3,40.3,114.2,40.3,114.2,40.2z"/>
	<path class="st0" d="M123.5,44.7c-0.3,0.2,0.7,0.6,0.9,0.9c0.2,0.3,0.4,0.5,0.7,0.3c0.3-0.2,0.3-0.6,0.1-0.9
		C125,44.8,123.8,44.5,123.5,44.7z"/>
	<path class="st0" d="M127.9,44.3c-0.3-1-1.9-2.1-4.4-3.5c-0.2-0.1-0.3-0.2-0.4-0.2c0,0-4.3-2.7-6.5-4.2c-0.5-0.3-0.9-0.7-1.5-1.3
		c-3.2-3.4-9.4-2.8-11-2.6c-0.1-0.3-0.1-0.6-0.2-0.9c-0.4-1.1-0.9-2.2-1.6-3.2c-0.3-0.5-0.7-1-1.1-1.4c-0.4-0.4-0.8-0.8-1.3-1.3
		c0,0,0,0,0,0c-0.4-0.3-0.9-0.2-1.1,0.2l0,0c-0.8,1.2-1.4,2.4-1.9,3.7c-0.5,1.3-0.8,2.7-0.7,4.2c0,0.4,0.1,0.7,0.2,1.1
		c0,0.2,0.1,0.4,0.2,0.5l0.2,0.5c0.3,0.6,0.7,1.2,1.1,1.8c0.1,0.1,0.2,0.3,0.4,0.4c0,0,0,0,0,0c-0.4,0.7-3.3,6.2-4.4,8.8
		c-2.5,3.9-7.4,3.7-10.4,3.5c-0.5,0-1,0-1.3,0c-3.9-1.3-11.7-3.3-14.4-3.5c-34.6-10.2-46.1-6.6-46.5-6.4c-7.9,2.5-14.4,8.3-16.7,13
		c-0.1,0-0.2,0.1-0.3,0.2c-0.2,0.2-5,4.6-4.1,11C1,71,5.6,74.9,9.3,76.9L1.2,90.6L3.4,121l2.3,0.1l0.8,2.7c0,0.1,0,0.3,0.1,0.4
		l0.2,0.4l0.1,0.2l0,0l0.3,0.7c0.1,0.3,0.4,0.5,0.8,0.5h0l5.8-0.1c0.3,0,0.7-0.2,0.8-0.5c0.1-0.3,0.1-0.7-0.2-0.9l-2.8-2.8l-0.1-0.4
		c0-0.1-2.9-10.6-3.6-16.7c-0.6-5.5,0.6-8.9,0.8-9.5l6.2-8c-0.7,4.1-2.4,7.9-5,11.3l-0.2,0.3L9.7,99c0.2,1.4,1,3.9,2.1,7
		c1.8,5.3,4,11.8,4,15.8v0.5l0.4,0.3c0.6,0.4,1.5,0.6,2.2,0.6l0.9,2.8c0,0.1,0,0.1,0.1,0.2l0.1,0.2l0,0.1h0l0.4,1.1
		c0.1,0.3,0.4,0.5,0.8,0.5c0,0,0,0,0,0l5.8-0.1c0.3,0,0.7-0.2,0.8-0.5c0.1-0.3,0.1-0.7-0.2-0.9l-2.7-2.6l-0.2-0.2
		c0-0.1-4-5.9-5.1-14.5c-0.1-0.7-0.2-1.3-0.3-1.9c-0.7-3.5-0.9-4.6,2-10.2c0.7-1.3,2.4-4.3,4.2-7.5c2-3.4,4-6.9,5.2-9.2
		c2.1,1.3,8.5,4.7,18.1,4.7c3.2,0,6.7-0.4,10.6-1.3c-0.6,3.6-2.1,14.7-1.2,18.9c0,0.2-0.1,0.5-0.1,0.9c-0.4,3.7-1.6,13.6-3.3,18.2
		l-0.3,0.9l0.9,0.2c0.6,0.2,1,0.3,1.2,0.4l0.6,2.5c0,0.1,0,0.3,0.1,0.4l0.1,0.2l0.1,0.2l0,0l0.4,0.9c0.1,0.3,0.4,0.5,0.8,0.5h0
		l5.8-0.1c0.3,0,0.7-0.2,0.8-0.5c0.1-0.3,0.1-0.7-0.2-0.9l-3-2.9l-0.1-0.2c0,0-1-1.7-0.7-4.9c0.4-3.7,2.5-13.8,2.9-14.6
		c0.2-0.4,1.4-3.9,3.4-9.6c0.7-2,1.3-3.9,1.8-5.3c1.4,3.3,4.3,10.1,5.6,12.2c0.2,1.6,1.3,7.3,2.7,13.9c0.6,2.9,1.1,5.5,1.2,6
		l0.1,0.5l0.5,0.2c0.5,0.2,1.2,0.2,1.7,0.2l1.2,2.1c0,0.1,0,0.1,0.1,0.2l0.6,1.3c0.1,0.3,0.4,0.5,0.8,0.5c0,0,0,0,0,0l5.8-0.1
		c0.3,0,0.7-0.2,0.8-0.5c0.1-0.3,0.1-0.7-0.2-0.9l-3.1-3c0,0,0,0-0.1,0c-0.1-0.2-4.9-9.5-6.4-20.8c-0.4-2.1-0.6-5.2-0.9-8.2
		c-0.3-3.7-0.6-7-1.1-8.9c2.2-0.2,4.4-0.8,6-2.3c1.7-1.7,2.6-3.3,3.4-4.6c0.7-1.3,1.4-2.5,2.7-3.6c0.8-0.7,2-1.5,3.3-2.4
		c3.1-2.1,7-4.8,8.8-7.7c0.7-1.1,1.4-2.4,2.2-3.9c0,0,0,0,0,0c0.1-0.1,0.1-0.2,0.2-0.4c1.6-3.1,3.2-6.3,3.9-7.8
		c1.7,0.6,4,0.8,5.6,0.8c0.5,0,0.9,0,1.2,0c0.4,0,0.8-0.1,1.2-0.2c0.2-0.1,0.4-0.1,0.6-0.1c1.4-0.3,3.2-0.4,5.1-0.5
		c0.7,0,1.3-0.3,1.6-0.8c0.1-0.2,0.7-0.9,0.9-1.1c0,0,0.1-0.1,0.1-0.1c0.1,0,0.2,0,0.3,0h0.1c0.6,0,1.1-0.2,1.5-0.6
		C127.8,47.1,128.2,45.3,127.9,44.3z M1.8,64.5c-0.4-3.1,0.7-5.7,1.8-7.4c-0.3,5.8,3.1,12.5,6.7,16.7c0.7,0.8,1.3,1.7,1.9,2.5
		C9.1,75.2,2.8,71.6,1.8,64.5z M11.6,124.2l-3.2,0l-0.2-0.4l1.8-1.1L11.6,124.2z M7.2,94.1l-0.1,0.2c-0.1,0.2-1.7,4-1,10.5
		c0.6,5.5,2.8,14,3.5,16.4l-1.7,1L7,119.4l-2-0.1L3,91l7.9-13.3c1.1,0.5,2,0.8,2.6,0.8c1,1.9,1.5,3.7,1.6,5.5L7.2,94.1z M24.3,126.3
		l-3.2,0l-0.2-0.4l2.2-0.7L24.3,126.3z M61.8,126.3l-3.2,0l-0.2-0.5l1.9-1L61.8,126.3z M86.9,124.2l-3.2,0l-0.3-0.7l2-0.8
		L86.9,124.2z M78.4,100.9c1.3,9.8,4.9,17.9,6.2,20.5l-1.9,0.7l-1.2-1.9l-0.5,0c-0.2,0-0.7,0-1.2,0c-0.2-1-0.6-3-1.1-5.5
		c-1.1-5.1-2.6-12.7-2.7-13.9l0-0.2l-0.1-0.2c-1.5-2.3-5.9-13-6.2-13.9c0.7-1.2,1.8-2.7,2.3-3.3c0,0,0.1-0.1,0.1-0.1
		c0.6,0.1,2.3,0.4,4.3,0.4c0.4,1.6,0.8,5.5,1.1,9C77.7,95.6,78,98.8,78.4,100.9z M125.4,47.1c-0.1,0.1-0.2,0.1-0.3,0.1
		c-1,0-2.4-0.2-2.6-0.2c-0.1,0-0.1,0-0.2-0.1l-2.3-0.2l0.2,0.1l-1.1-0.2c-0.2,0-0.4-0.1-0.5-0.1c-0.2,0-0.3-0.1-0.6,0
		c0.1,0.3,0.2,0.3,0.4,0.5c0.1,0.1,0.3,0.2,0.4,0.3l0.9,0.6c0,0,0,0,0,0l0.1,0l2.2,0.6c0,0,0.1,0,0.1,0c0.1,0,0.1,0,0.2,0
		c0,0,0.1,0,0.3,0c-0.1,0.1-0.2,0.3-0.3,0.4c0,0-0.1,0-0.2,0c-2.1,0-3.9,0.2-5.4,0.5c-0.2,0-0.4,0.1-0.7,0.2
		c-0.3,0.1-0.6,0.2-0.9,0.2c-2.3,0.2-5.5-0.2-7-1.1c-0.1-0.1-0.2-0.1-0.3-0.1l-2.1-0.7l-1.1-0.4l-0.5-0.2c-0.1,0-0.2-0.1-0.2-0.2
		l-0.9-3.9l0.2,4l0,0l0,0c0.1,0.3,0.2,0.5,0.4,0.7c0.1,0,0.1,0.1,0.2,0.1c0.1,0,0.1,0.1,0.1,0.1l0.2,0.2l1,0.6l1.7,1.1
		c-0.3,0.8-1,2.1-1.8,3.8c-0.1,0.3-0.3,0.6-0.4,0.9c-0.4,0.8-0.8,1.6-1.3,2.4c-0.3,0.5-0.5,1-0.8,1.4c-0.7,1.2-1.3,2.4-1.9,3.3
		c-1.4,2.3-4.4,4.5-7.1,6.4c-0.4,0.3-0.8,0.6-1.2,0.8c0,0,0,0,0,0c-1.3,0.9-2.5,1.7-3.4,2.4c-0.4,0.3-0.7,0.6-0.9,0.9
		c-0.1,0.1-0.3,0.3-0.4,0.4c-0.8,0.9-1.3,1.8-1.8,2.7c-0.7,1.3-1.5,2.7-3.1,4.3c-2.3,2.3-7.5,1.9-9.6,1.5c0-0.1,0.1-0.1,0.1-0.2
		c0.4-0.6,0.7-1.1,1-1.7c0.6-1.2,1-2.4,1.3-3.7c0.2-0.6,0.2-1.3,0.3-1.9c0-0.3,0-0.6,0-1l0-0.5l0-0.5c0-1.3-0.4-2.5-0.8-3.7
		c0.3,1.2,0.5,2.5,0.4,3.7l0,0.5l-0.1,0.5c0,0.3-0.1,0.6-0.1,0.9c-0.1,0.6-0.3,1.2-0.5,1.8c-0.4,1.2-0.9,2.3-1.6,3.3
		c-0.6,0.9-1.3,1.8-2.1,2.6c-0.1,0.1-0.2,0.1-0.3,0.2c-0.1,0.1-2,2.4-2.9,4l0,0.1c-0.4,1-1.5,4.2-2.6,7.6c-1.4,4-3.1,9-3.3,9.4
		c-0.5,1-2.7,11.9-3,15.2c-0.3,2.5,0.2,4.2,0.5,5.2l-1.5,0.7l-0.5-2.1l-0.3-0.2c-0.1,0-0.4-0.2-1.1-0.4c1.6-5,2.6-14.2,3.1-17.7
		c0.1-0.4,0.1-0.8,0.1-1l0-0.2l0-0.1c-1-4,0.9-17.5,1.4-19.2l0.1-0.2l-0.1-0.2c-0.3-1.1-0.2-4.6-0.1-6.1c0-0.1,0-0.1,0-0.2v0
		c0-0.5,0-1.2,0.1-1.7c0.1-0.6,0.2-1.2,0.3-1.8c0.3-1.2,0.7-2.4,1.3-3.5c-0.8,1-1.5,2-2.1,3.2c-0.3,0.6-0.5,1.2-0.8,1.8
		c-0.2,0.6-0.4,1.1-0.5,1.7c0,0.1-0.1,0.2-0.1,0.3c0,0.4-0.2,3.6,0,5.6c-15.5,3.9-25.9-1.8-28.1-3.2c0.5-2,0.5-4.9,0.5-5.7
		c0.9-1.2,1.6-2.5,2.2-3.9c0.6-1.4,1.1-2.8,1.4-4.2c0.3-1.5,0.4-3,0.3-4.4l-0.1-1.1c-0.1-0.4-0.2-0.7-0.2-1.1l-0.1-0.5l-0.2-0.5
		l-0.4-1l0.3,1.1l0.1,0.5l0.1,0.5c0,0.4,0.1,0.7,0.1,1.1l0,1.1c0,1.4-0.2,2.9-0.7,4.2c-0.4,1.4-1,2.6-1.7,3.9
		C31.7,69.9,30.9,71,30,72l0,0c0,0,0,0-0.1,0.1c-0.1,0.1-0.1,0.1-0.1,0.2c-0.1,0.1-0.2,0.3-0.2,0.5c0,0,0.1,3.7-0.6,5.8
		c-1.1,2.2-3.5,6.3-5.6,10c-1.8,3.2-3.6,6.2-4.3,7.6c-3.1,6.1-2.8,7.6-2.1,11.3c0.1,0.6,0.2,1.2,0.3,1.8c0.9,7.1,3.6,12.2,4.8,14.3
		l-1.7,0.6l-0.9-2.8l-0.6,0c-0.4,0-1-0.1-1.5-0.2c-0.2-4.2-2.3-10.6-4.1-15.8c-0.9-2.7-1.7-5.1-2-6.4c2.7-3.7,4.5-7.8,5.2-12.2
		c0.7-4.7-0.9-9.3-5-14.1c-3.2-3.7-7.4-11.3-6.1-17.3c1.4-4.5,8.2-10.9,16.1-13.4c0.1,0,6.2-1.9,23,1c-0.6,0.3-1.2,0.7-1.7,1.3
		c-0.5,0.5-0.8,1.1-1,1.8c-0.2,0.6-0.3,1.3-0.4,1.9L41.2,50C41.1,50.7,41,51.3,41,52c0,1.3,0.2,2.6,0.5,3.8c0.2,0.6,0.4,1.1,0.4,1.7
		c0.1,0.6,0.1,1.2,0.1,1.8c0,1.2-0.2,2.4-0.5,3.6c-0.3,1.2-0.8,2.3-1.3,3.4c-0.6,1.1-1.2,2.2-1.9,3.2c0,0,0,0.1,0,0.1
		c0,0,0.1,0,0.1,0c1.8-1.8,3.3-4,4.1-6.4c0.4-1.2,0.7-2.5,0.8-3.8c0-0.7,0-1.3,0-2c-0.1-0.7-0.3-1.4-0.4-1.9
		c-0.3-1.2-0.6-2.4-0.9-3.6c-0.1-0.6-0.3-1.2-0.3-1.8c0-0.6,0-1.2,0.2-1.8c0.2-0.6,0.5-1.1,0.8-1.6c0.3-0.5,0.7-0.9,1-1.4
		c0.6-0.7,1.2-1.3,1.9-1.9c1.9,0.4,4,0.8,6.1,1.3c-0.2,0.1-0.4,0.2-0.6,0.3c-0.5,0.4-1,0.9-1.2,1.4c-0.3,0.6-0.4,1.2-0.6,1.7
		c-0.1,0.6-0.3,1.1-0.4,1.7c-0.1,0.6-0.3,1.1-0.4,1.7c0,0.3-0.1,0.6-0.1,0.9c0,0.3,0,0.6,0,0.9c0,0.6,0.1,1.2,0.2,1.8
		c0.2,1.2,0.5,2.2,0.6,3.3c0.1,1.1,0.1,2.1-0.2,3.2c-0.2,1-0.7,2.1-1.2,3c-0.6,1-1.3,1.9-2,2.7c0,0,0,0.1,0,0.1c0,0,0.1,0,0.1,0
		c0.9-0.7,1.7-1.5,2.4-2.5c0.7-0.9,1.3-2,1.7-3.1c0.4-1.1,0.5-2.4,0.5-3.6c-0.1-1.2-0.3-2.4-0.5-3.4c-0.1-0.5-0.2-1.1-0.3-1.6
		c-0.1-0.3-0.1-0.5-0.1-0.8l-0.1-0.8c-0.1-0.5-0.2-1.1-0.1-1.7c0-0.6,0.1-1.1,0.4-1.6c0.2-0.5,0.6-0.9,0.9-1.3
		c0.4-0.4,0.7-0.7,1.1-1c0.5-0.4,1-0.7,1.5-0.9c2.8,0.7,5.9,1.4,9.1,2.3c-0.6,0.4-1.1,0.9-1.5,1.4c-0.7,0.9-1.1,2-1.5,3.1
		c-0.3,1.1-0.5,2.2-0.6,3.3c-0.1,1.1,0,2.2,0.1,3.3c0.1,1.1,0.3,2.2,0.4,3.2c0.1,1.1,0.1,2.2-0.1,3.2c-0.2,2.1-1,4.2-2.2,5.9
		c-0.3,0.4-0.6,0.8-1,1.2c-0.4,0.4-0.7,0.7-1.1,1.1c-0.8,0.7-1.6,1.3-2.6,1.7c-1.8,0.9-3.9,1.3-6,1.4c-2.1,0-4.2-0.3-6.3-0.8
		c-2.1-0.5-4.1-1.2-6.2-2c0,0-0.1,0-0.1,0c0,0,0,0.1,0,0.1c1.9,1.1,3.8,2.1,5.9,2.8c2.1,0.7,4.3,1.2,6.6,1.2c2.3,0,4.6-0.5,6.6-1.6
		c1-0.6,1.9-1.2,2.8-2c0.8-0.8,1.6-1.6,2.2-2.6c0.6-1,1-2,1.3-3.1c0.3-1.1,0.4-2.2,0.5-3.3c0.2-2.2,0.1-4.4,0.1-6.5
		c0.1-1.1,0.2-2.1,0.3-3.2c0.1-1.1,0.2-2.1,0.5-3.1c0.2-1,0.6-2,1-2.9c0.3-0.6,0.8-1.2,1.4-1.7c1.3,0.4,2.6,0.7,4,1.1l0.2,0
		c0.7,0.1,2.1,0.3,3.8,0.7c-0.2,0.1-0.3,0.2-0.5,0.4c-0.5,0.4-0.8,1-1,1.5c-0.2,0.6-0.3,1.2-0.4,1.7c-0.1,0.6-0.3,1.1-0.4,1.6
		c-0.2,0.5-0.3,1.1-0.5,1.7c-0.1,0.6-0.2,1.1-0.2,1.7c0,0.6-0.1,1.1,0,1.7c0.1,1.2,0.2,1.9-0.5,2.6c-0.3,0.4-0.8,0.7-1.1,1.2
		c-0.4,0.5-0.7,1-1,1.5c-0.5,1.1-0.6,2.3-0.6,3.4c0,1.1,0.1,2.3,0.3,3.4c0,0,0,0.1,0.1,0.1c0,0,0.1,0,0.1-0.1c0-1.1,0.1-2.2,0.2-3.3
		c0.2-1.1,0.4-2.1,0.9-3c0.2-0.4,0.5-0.8,0.9-1.2c0.4-0.4,0.8-0.7,1.2-1.1c0.2-0.2,0.4-0.5,0.6-0.8c0.2-0.3,0.3-0.7,0.3-1
		c0.1-0.3,0.1-0.7,0.1-1c0-0.3,0-0.5,0-0.8l0-0.8c0-0.3,0-0.5-0.1-0.8c0-0.5,0-1.1-0.1-1.6c0-0.5-0.1-1.1-0.1-1.6
		c0-0.5,0.1-1.1,0.3-1.6c0.2-0.5,0.5-1,0.8-1.4l1-1.2c0.3-0.3,0.7-0.6,1-0.9c3.1,0.7,6.7,1.7,8.9,2.5l0.2,0.1l0.2,0
		c0.3,0,0.8,0,1.3,0c3.1,0.1,9,0.4,12-4.4l0.1-0.1c0.8-2,3.1-6.3,4-8l0.3-0.3c0,0-0.1,0-0.1-0.1c-0.1,0.1-0.1,0.2-0.2,0.3
		c0.1-0.1,0.1-0.3,0.2-0.3c0,0,0.1,0,0.1,0.1l0,0c0,0,0,0,0.1,0c0,0,0,0,0,0c0.4,0.3,0.9,0.5,1.4,0.6c0,0.7,0.1,1.3,0.2,2
		c0.1-0.7,0.2-1.5,0.3-2.2c0-0.1,0-0.2-0.1-0.2l-0.1,0c-0.5-0.3-1.1-0.7-1.5-1.1c-0.1-0.1-0.1-0.1-0.2-0.2c-0.1-0.2-0.2-0.3-0.4-0.4
		c0,0-0.1,0-0.1,0c-0.2-0.2-0.4-0.5-0.5-0.8c-0.3-0.5-0.6-1.1-0.8-1.6L97.7,35c0-0.1-0.1-0.3-0.1-0.4c-0.1-0.3-0.1-0.5-0.1-0.8
		c0-1.2,0.3-2.3,0.7-3.5c0.3-0.9,0.8-1.7,1.3-2.5c0.1,0.1,0.3,0.3,0.4,0.4c0.4,0.4,0.7,0.8,1,1.2c0.6,0.8,1.1,1.7,1.5,2.7
		c0.4,1,0.6,2,0.7,3.1c0.1,1.1,0,2.1-0.1,3.2l0,0.1c0,0,0,0.1,0,0.1c0.2,0.5,0.4,0.9,0.7,1.3c0.3,0.4,0.7,0.7,1.1,0.9
		c-0.4-0.3-0.6-0.7-0.8-1.1c-0.1-0.2-0.2-0.4-0.2-0.6c-0.1-0.2-0.1-0.4-0.1-0.5c0.4-1.1,0.6-2.2,0.6-3.3c0-0.3,0-0.6,0-0.9
		c1.4-0.2,7-0.7,9.6,2c0.7,0.7,1.2,1.2,1.8,1.6c2.2,1.5,6.5,4.2,6.6,4.2c0.1,0.1,0.2,0.1,0.4,0.3c2.9,1.7,3.5,2.4,3.6,2.6
		C126.4,45.2,126.2,46.3,125.4,47.1z"/>
	<path class="st0" d="M19.2,59.1c0.1-0.4,0.5-0.9-0.2-1.4c-0.7-0.5-0.9-0.3-1.3,0c-0.3,0.2-0.7,0.5-1,0.7c-0.3,0.2-0.4,0.5-0.3,0.9
		c0.1,0.4,0.3,0.7,0.7,0.7C17.6,60.1,19.1,59.5,19.2,59.1z"/>
	<path class="st0" d="M26.9,60.5c-1.1-0.7-1.1-0.9-1.9-0.5c-0.5,0.2-1.1,0.8-1.6,1.1c-0.4,0.3-0.6,0.9-0.5,1.4
		c0.1,0.6,0.5,1.1,1.1,1.1c0.9,0.1,3.3-0.7,3.4-1.4C27.6,61.6,28,61.2,26.9,60.5z"/>
	<path class="st0" d="M19,64.5c-0.6,0-2,0.8-2,1.2c0,0.4-0.4,1.1,0.5,1.1c0.7,0,0.9,0.3,1.3,0c0.3-0.2,0.6-0.6,0.9-0.9
		c0.2-0.2,0.3-0.6,0.1-0.9C19.7,64.8,19.4,64.5,19,64.5z"/>
	<path class="st0" d="M72,74.4c-0.6,0-2,0.8-2,1.2c0,0.4-0.3,1.4,0.5,1.4c0.7,0,0.8,0.1,1.3-0.2c0.3-0.2,0.6-0.6,0.9-0.9
		c0.2-0.2,0.2-0.6,0.1-0.9C72.6,74.7,72.7,74.4,72,74.4z"/>
	<path class="st0" d="M79.2,70.3c-0.4-0.2-1.6-0.1-1.8,0.1c-0.1,0.3-0.7,0.8-0.1,1.1c0.5,0.2,0.5,0.3,0.9,0.3c0.2,0,0.6-0.2,0.9-0.3
		c0.2-0.1,0.3-0.3,0.3-0.6C79.5,70.7,79.6,70.5,79.2,70.3z"/>
	<path class="st0" d="M22.4,51.8c-0.8-0.5-0.8-0.7-1.4-0.4c-0.3,0.2-0.7,0.5-1,0.7c-0.5,0.4-0.6,1-0.3,1.6c0.1,0.2,0.4,0.4,0.6,0.4
		c0.7,0.1,2.5-0.5,2.6-1C22.9,52.6,23.2,52.4,22.4,51.8z"/>
	<path class="st0" d="M29.7,54.1c-0.9-0.4-1.1-0.3-1.6,0.1c-0.3,0.2-0.6,0.6-0.9,0.9c-0.4,0.4-0.5,1.1-0.1,1.6
		c0.2,0.2,0.4,0.4,0.7,0.3c0.7,0,2.2-0.6,2.4-1C30.5,55.6,30.6,54.6,29.7,54.1z"/>
</g>
</svg>
