<?xml version="1.0" encoding="utf-8"?>
<!-- Generator: Adobe Illustrator 24.1.2, SVG Export Plug-In . SVG Version: 6.00 Build 0)  -->
<svg version="1.1" id="Layer_1" xmlns="http://www.w3.org/2000/svg" xmlns:xlink="http://www.w3.org/1999/xlink" x="0px" y="0px"
	 viewBox="0 0 128 128" style="enable-background:new 0 0 128 128;" xml:space="preserve">
<style type="text/css">
	.st0{fill:#2D2D2D;}
</style>
<g>
	<path class="st0" d="M115.9,7.2c-1.5-2.5-3.7-4.6-6.4-5.8c-1.3-0.6-2.7-1-4.2-1.2c-1.5-0.2-2.7-0.1-4.1-0.2
		c-2.9-0.1-5.8,0.9-8.1,2.5c-4.6,3.1-7.7,8.5-7,14.1c2.9,0.3,6.2,0.6,9.6,0.7l0.7,0l0.1-0.8c0.4-2.3,1.6-4.8,3.5-5.5
		c0.9-0.4,2.1-0.4,2.9,0c0.8,0.3,1.5,1.1,1.9,2c0.4,0.9,0.5,2,0.2,3c-0.1,0.5-0.3,1-0.6,1.4c-0.3,0.5-0.6,0.8-1,1.3
		c-0.9,1-1.7,2-2.6,3c-0.8,1-1.7,1.9-2.5,3.2c-1.4,2.4-2,5.1-2.4,7.7c-0.2,1.3-0.3,2.6-0.3,4c0,0.2,0,0.5,0.2,0.7
		c0.2,0.2,0.4,0.4,0.7,0.5c0.3,0.1,0.4,0,0.6,0l0.5,0l2,0c1.3,0,2.6,0,3.9,0.1l1,0c0.2,0,0.3,0,0.5,0c0.3,0,0.6-0.2,0.8-0.4
		c0.2-0.2,0.4-0.5,0.4-0.8l0-0.5c0-0.3,0-0.6,0-0.9c0.1-1.2,0.3-2.5,0.9-3.3c0.3-0.4,0.8-0.8,1.3-1.2l1.5-1.3c2-1.7,3.9-3.7,5.4-6
		c1.6-2.3,2.6-5.2,2.7-8C118.1,12.7,117.5,9.7,115.9,7.2z M113.1,22.2c-1.3,2.1-2.9,4.1-4.7,5.9l-1.4,1.4c-0.5,0.5-0.9,0.9-1.4,1.7
		c-0.8,1.5-0.8,2.9-0.8,4.2c0,0.3,0,0.7,0.1,1l0,0.4c0,0,0,0,0,0c0,0,0,0-0.1,0c-0.1,0-0.3,0-0.4,0l-1,0c-1.3,0-2.6,0.1-3.9,0.1
		l-2,0l-0.5,0c-0.2,0-0.4,0-0.4,0c-0.1-0.1-0.2-0.1-0.2-0.3c0.1-1.3,0.2-2.6,0.4-3.8c0.5-2.5,1.4-5,2.9-6.9c0.7-0.9,1.7-1.8,2.6-2.7
		c0.9-0.9,1.9-1.8,2.7-2.8c0.4-0.4,1-1,1.4-1.7c0.4-0.7,0.7-1.4,0.9-2.2c0.4-1.5,0.3-3.2-0.4-4.7c-0.3-0.7-0.8-1.4-1.4-2
		c-0.6-0.6-1.3-1.1-2.1-1.4c-0.8-0.3-1.6-0.4-2.4-0.3c-0.8,0.1-1.6,0.2-2.3,0.6c-0.8,0.3-1.4,0.9-1.9,1.4c-0.5,0.6-0.9,1.2-1.2,1.9
		c-0.5,1.1-0.8,2.2-1,3.4c-2.7,0.2-5.5,0.5-8.6,0.7c0-0.2,0.1-0.3,0.1-0.4l0.1-0.5c0-0.3,0.1-0.6,0.2-0.9c0.1-0.6,0.3-1.2,0.5-1.8
		c0.4-1.2,1-2.3,1.7-3.3c1.4-2.1,3.3-3.8,5.4-5c2.1-1.2,4.5-1.8,6.8-1.6c1.3,0.1,2.6,0.2,3.7,0.4c1.1,0.2,2.3,0.6,3.3,1.1
		c2.1,1,3.8,2.6,5,4.6c1.2,2,1.8,4.3,1.8,6.6C115,17.8,114.4,20.1,113.1,22.2z"/>
	<path class="st0" d="M103.1,40.7c-0.7-0.4-1.5-0.6-2.3-0.6c-1.6-0.1-3.2,0.7-4.2,1.9c-0.5,0.6-0.9,1.3-1.1,2
		c-0.2,0.7-0.2,1.5-0.1,2.2c0.3,1.4,1,2.6,1.8,3.6c0.8,1,2,2,3.6,2.2c1.5,0.2,3.2-0.6,3.9-1.9c0.4-0.6,0.6-1.4,0.7-2
		c0.1-0.7,0.1-1.3,0.2-1.9c0-1.2-0.1-2.6-0.8-3.9C104.4,41.7,103.8,41.1,103.1,40.7z M104.7,47.9c-0.4,0.5-0.8,0.8-1.3,1
		c-1,0.4-1.7,0.6-2.6,0.8c-0.4,0.1-0.9,0.2-1.4,0.1c-0.5,0-1-0.2-1.5-0.6c-0.9-0.7-1.2-1.9-0.9-2.9c0.3-1,0.9-1.7,1.5-2.2
		c0.7-0.5,1.5-0.7,2.2-0.7c0.4,0,0.8,0,1.2,0.1c0.4,0.1,0.9,0.2,1.3,0.4c0.5,0.2,1,0.5,1.3,0.9c0.4,0.4,0.6,1,0.6,1.6
		C105.2,46.8,105,47.4,104.7,47.9z"/>
	<path class="st0" d="M32.5,29.3c0.9,0.9,2,1.7,3.1,2.3c1.2,0.6,2.5,0.9,3.9,1c1.4,0.1,2.7-0.2,4-0.7c1.3-0.5,2.4-1.4,3.2-2.4
		c1.7-2.1,2.5-4.6,2.5-7.2c0-2.5-0.8-5.1-2.5-7.2c-0.9-1-2-1.9-3.2-2.4c-1.2-0.6-2.6-0.8-4-0.9c-1.4,0-2.8,0.3-4,0.8
		C34.2,13.2,33,14,32.1,15c-0.9,1-1.7,2.2-2.2,3.4c-0.5,1.3-0.6,2.6-0.6,3.9C29.5,25,30.7,27.5,32.5,29.3z M30.3,22.4
		c0.2-2.4,1.3-4.6,2.9-6.2c1.7-1.6,4-2.5,6.2-2.5c2.3,0,4.6,0.8,6.4,2.3c0.9,0.8,1.7,1.7,2.3,2.8c0.6,1.1,0.9,2.3,0.9,3.6
		c0,1.2-0.3,2.5-0.9,3.6c-0.5,1.1-1.4,2-2.3,2.8c-0.9,0.8-1.9,1.3-3,1.8c-1.1,0.4-2.2,0.7-3.4,0.7c-1.2,0.1-2.4-0.1-3.5-0.5
		c-1.1-0.4-2.2-1-3.1-1.8C31.1,27.3,30.1,24.7,30.3,22.4z"/>
	<path class="st0" d="M61.7,52.9c0-0.2,0-0.3,0-0.6c-0.1-0.6-0.5-1.1-1-1.4c-0.3-0.1-0.4-0.2-0.7-0.2c0-0.7,0-1.4,0-2.1
		c0-1.3,0-2.6,0-3.9c0.1-1.2-0.1-2.5-0.6-3.6c-0.5-1.2-1.3-2.2-2.2-3c-0.9-0.8-2.1-1.5-3.3-1.8c-0.6-0.2-1.2-0.3-1.9-0.3
		c-0.7-0.1-1.2,0-1.8,0c-2.3,0-4.7,0-7,0c-4.7,0-9.4,0.2-14.1,0.4c-0.6,0-1.2,0-1.8,0.1c-0.3,0-0.6,0-0.9,0.1
		c-0.3,0-0.6,0.1-0.9,0.2c-1.2,0.3-2.3,0.9-3.2,1.6c-0.9,0.7-1.7,1.7-2.3,2.8c-0.5,1.1-0.8,2.3-0.9,3.5c-0.2,2.3-0.5,4.7-0.7,7
		l-0.8,6.9c-1.1,3.5-2.2,7.1-3.2,10.7l-0.8,2.7l-0.4,1.3L13,73.6c-0.1,0.2-0.1,0.6-0.2,0.8c-0.1,1.1,0.2,2.3,0.8,3.3
		c0.1,0.1,0.1,0.2,0.2,0.2c-0.8,0.2-1.7,0.5-2.4,1.1c-0.5,0.4-0.9,1-1.2,1.6C10,81,10,81.5,10,81.9c0.1,0.4,0.3,0.8,0.6,1.1
		c0.6,0.6,1.6,0.8,2.4,0.5c0.4-0.2,0.8-0.5,1-0.8l0.1-0.2c0,0,0.1-0.1,0.1-0.1c0.1-0.1,0.1-0.2,0.2-0.2c0.6-0.6,1.7-0.6,2.3,0
		c0.3,0.3,0.5,0.7,0.5,1.1c0,0.1,0,0.5,0,0.8l-0.1,0.9c-0.3,4.8-1.3,23.9-1.3,28.8c0,2.4,0,4.8-0.1,7.2c0,1.2-0.1,2.4-0.1,3.6l0,0.9
		c0,0.3-0.1,0.6,0.1,0.9c0.2,0.6,0.8,1.1,1.4,1.1c0.6,0,1.3-0.4,1.5-1c0.1-0.3,0.1-0.6,0.1-0.9l0.1-0.9c0.1-1.2,0.2-2.4,0.3-3.6
		c0.2-2.4,0.5-4.8,0.7-7.2C20.4,109,21,92.2,21,92.2c0-2.4,0.1-4.8,0.2-7.2l0.1-1.8c0-0.6,0-1.3-0.2-1.9c-0.2-0.8-0.7-1.6-1.3-2.2
		c0,0,0.1,0,0.1,0c1-0.5,1.8-1.5,2.2-2.5c0.2-0.6,0.3-1,0.4-1.4l0.3-1.3l0.7-2.7c0.9-3.6,1.8-7.2,2.7-10.8l0-0.1v0l0.7-6.5
		c0.1-0.7,0.1-1.4,0.2-2.1L27,53.4c-0.1,2-0.3,4-0.5,6.1c-0.2,2-0.5,4-0.5,6c-0.1,1.8,0,3.5-0.1,5.3c-0.5,1.6-0.7,8.2-0.6,9.9
		s0.2,3.3,0.3,5c0.1,1.6,0.1,3.1,0.2,4.7c-0.3,0-0.6,0.1-0.8,0.4c-0.1,0.1-0.2,0.3-0.2,0.5l0,0.3l0,1.1c0,0.7,0,1.5,0.1,2.2
		c0,1.5,0,2.9,0,4.4c-0.1,2.9-0.4,5.8-0.5,8.8c-0.1,1.5-0.1,2.9-0.1,4.4l0,0.5c0,0.1,0,0.1,0,0.4c0,0.2,0.1,0.4,0.2,0.6
		c0.1,0.2,0.3,0.3,0.4,0.4c0.2,0.1,0.4,0.2,0.5,0.2c0,0-0.4,4.9-0.4,7.4v0.5c0,0.2,0,0.4,0,0.5c0,0.4,0.1,0.8,0.2,1.1
		c0.2,0.7,0.6,1.4,1,2c0.5,0.6,1,1.1,1.7,1.4c0.6,0.3,1.4,0.5,2.1,0.6c1.4,0.1,2.8-0.2,4-0.8c1.2-0.6,2.4-1.6,2.9-2.9
		c0.1-0.2,0.1-0.3,0.2-0.5c0-0.2,0.1-0.4,0.1-0.5c0-0.2,0-0.4,0-0.6l0-0.5c0-0.6,0-1.3-0.1-1.9c-0.1-1.3-0.4-3.8-0.3-3.7
		c0.4,0.1,0.9-0.2,0.9-0.7l0-1.1c0-0.7,0.1-1.5,0.1-2.2c0.1-1.5,0.3-2.9,0.4-4.4c0.3-2.9,0.4-5.8,0.5-8.8c0-1.5,0.1-2.9,0-4.4v-0.3
		c0-0.2-0.1-0.4-0.1-0.6c-0.2-0.4-0.5-0.7-0.9-0.8c-0.1,0-0.1,0-0.2-0.1l-0.1,0l-0.1,0l0,0c0.2-2.5,0.3-5,0.5-7.5l0.2-4.2
		c0-0.2,0-0.4,0-0.5c0-0.1,0.1-0.2,0.1-0.3c0.1-0.2,0.3-0.4,0.5-0.5c0.4-0.2,0.9-0.2,1.3,0c0.2,0.1,0.3,0.3,0.4,0.5
		c0,0.1,0.1,0.2,0.1,0.3c0,0.1,0,0.1,0,0.2v0.3l0,2.1l0,4.2l0.1,8.4c0.1,5.6,0.3,11.2,0.6,16.8c0.1,2.8,0.2,5.6,0.4,8.4l0,1.1
		c0,0.4,0.1,0.8,0.2,1.2c0.2,0.8,0.5,1.5,1,2.1c0.9,1.2,2.4,2.1,3.9,2.3c1.5,0.2,3.1-0.3,4.3-1.2c1.2-0.9,1.9-2.4,2.1-3.8l0-8.5
		c0-2.8,0.1-5.6,0.2-8.4l0.2-8.4c0.1-2.8,0.1-5.6,0-8.4c0-2.8,0-5.6-0.1-8.4c-0.1-5.5-0.3-11.1-0.6-16.6c1.3-0.1,2.5-0.1,3.8-0.1
		c1.4,0,2.7-0.6,3.6-1.7c0.4-0.5,0.8-1.2,1-1.9c0.1-0.4,0.1-0.7,0.1-1.1l0-1c0.1-1.3,0.1-2.7,0.1-4c0-0.3,0-0.7,0-1L61.7,52.9z
		 M36.8,37.2c1.6,0,3.1,0.1,4.6,0.1c0.2,0,0.5,0,0.7,0c0.3,0,0.7,0,1.1,0c0,0,0,0,0,0c1.9,0,3.7,0,5.6,0c0.5,0,1,0,1.5,0
		c0.6,0,1.2,0,1.7,0c0.4,0,0.8,0.1,1.2,0.1c0.2,0,0.3,0.1,0.5,0.1c1,0.3,2,0.8,2.9,1.4c1.7,1.3,2.8,3.4,2.8,5.7c0.1,2,0,6.1-0.1,6.1
		l-0.1,0c-0.3,0.1-0.6,0.2-0.9,0.3c-0.3,0.1-0.6,0.2-0.9,0.3c-0.3,0.1-0.7,0.2-1,0.3c-0.3,0.1-0.5,0.1-0.8,0.1c-0.1,0-0.3,0-0.4,0
		c-0.5,0-0.9,0.1-1.5,0.1l-0.7,0c0,0,0-1.6-0.1-2.6c0-0.4-0.1-0.7-0.1-0.8c-0.1-0.4-0.2-0.9-0.4-1.3c0,0,0,0,0,0c0,0,0,0,0,0
		c0,0,0,0,0,0c0,0-0.1,0-0.1,0.1c0,0,0,0,0,0c-0.1,0.4-0.2,0.9-0.3,1.3c-0.1,0.4-0.1,3-0.1,3.4l-0.2,0h-0.1c-1.3,0-2.7,0.1-4,0.1
		c-0.4-0.9-0.8-1.8-1.3-2.6c-0.3-0.5-0.6-1-0.9-1.5c-0.9-1.4-2.1-2.6-3.2-3.9c-0.7-0.8-1.4-1.6-2.1-2.4c-0.4-0.5-0.8-0.9-1.2-1.4
		c-0.4-0.4-0.6-0.8-0.9-1.2c-0.5-0.7-0.9-1.3-1.5-2C36.4,37.2,36.6,37.2,36.8,37.2z M33.1,37.1c0.5,0,1.1,0,1.7,0.1
		c0.2,0,0.4,0,0.5,0c0.8,1.3,1.7,2.5,2.5,3.7c0.9,1.4,1.9,2.8,2.9,4.1c1,1.4,1.8,2.8,2.9,4.1c0.5,0.6,1.1,1.1,1.6,1.7
		c0.5,0.5,1,0.9,1.5,1.4c-0.6,0-1.2,0.1-1.8,0.1c-0.5,0-1.1,0.1-1.6,0.1l-0.2,0l-0.8,0c-0.3-0.5-0.6-1-1-1.4
		c-0.5-0.8-1.1-1.6-1.6-2.5c-0.9-1.3-1.7-2.5-2.6-3.8c-0.1-0.1-0.1-0.2-0.2-0.3c-0.9-1.4-1.8-2.8-2.9-4c-0.1-0.2-0.3-0.3-0.4-0.5
		c-0.9-1-1.5-1.8-2.3-2.9C32.1,37,32.6,37.1,33.1,37.1z M20.6,81.5c0.2,0.5,0.2,1.1,0.2,1.7L20.6,85c-0.1,1.4-0.2,2.8-0.3,4.3
		c-0.1,1-0.2,1.9-0.3,2.9c0,0-1.3,26.4-1.3,28.8c0,0.7,0,1.2-0.1,1.7c0,0.4-0.1,0.9-0.1,1.4l0,0.3l0,0.6c0,0.2,0,0.4-0.1,0.6
		c0,0.1,0,0.2-0.1,0.2c-0.1,0.4-0.4,0.7-0.8,0.8c0,0,0,0,0,0c0,0,0,0,0,0c-0.1,0-0.2,0.1-0.4,0c-0.1,0-0.2,0-0.3-0.1
		c-0.3-0.1-0.5-0.3-0.6-0.6c0-0.1-0.1-0.2-0.1-0.2c-0.1-0.2-0.1-0.4,0-0.6c0-0.1,0-0.2,0-0.3l0.1-0.9c0-0.5,0-0.9,0-1.4
		c0-0.6,0-1.1,0-1.8c0.1-0.9,0.5-5.8,0.9-11.8c0.7-9.3,1.5-21.2,1.7-24.2l0-0.9c0-0.1,0-0.2,0-0.3c0-0.2,0-0.4,0-0.7
		c0-0.3-0.1-0.5-0.2-0.7c-0.2-0.5-0.5-0.9-0.9-1.3c-0.4-0.3-0.8-0.5-1.3-0.6c-0.3-0.1-0.6-0.1-0.9-0.1c-0.1,0-0.1,0-0.2,0
		c-0.3,0-0.7,0.1-1,0.2c-0.3,0.2-0.7,0.4-0.9,0.6c-0.1,0.1-0.3,0.3-0.4,0.4c0,0.1-0.1,0.1-0.1,0.2c0,0,0,0.1-0.1,0.1l-0.1,0.1l0,0.1
		c0,0,0,0.1-0.1,0.1c-0.1,0.1-0.1,0.1-0.2,0.2c0,0-0.1,0-0.1,0.1c0,0-0.1,0-0.1,0c-0.3,0.1-0.6,0-0.9-0.2c-0.2-0.2-0.3-0.4-0.3-0.6
		c0-0.1,0-0.3,0.1-0.4c0.1-0.3,0.3-0.5,0.4-0.8c0.1-0.2,0.3-0.4,0.4-0.5c0.6-0.6,1.5-1,2.4-1.2c0.2,0.2,0.5,0.3,0.7,0.5
		c0.2,0.1,0.5,0.3,0.7,0.3c0.2,0.1,0.3,0.1,0.5,0.1c0.1,0,0.3,0,0.4,0.1c0.7,0.1,1.4,0,2-0.2c0.1,0,0.2,0,0.3-0.1
		c0.3,0.2,0.5,0.5,0.8,0.8C20.2,80.6,20.4,81,20.6,81.5z M20.7,74.7c-0.1,0.4-0.3,0.9-0.4,1.3c-0.5,1.3-2.1,2.2-3.5,1.8
		c-1.4-0.3-2.5-1.7-2.3-3.2c0-0.2,0-0.3,0.1-0.6l0.2-0.7l0.4-1.3l0.2-0.8c1,0.2,1.9,0.4,2.9,0.7c1,0.3,1.9,0.5,2.9,0.7l-0.2,0.7
		L20.7,74.7z M27.8,53.4c-0.1-2-0.1-4.1-0.2-6.1c0,0,0-0.1-0.1-0.1c0,0,0,0,0,0c0,0,0,0-0.1,0c0,0-0.1,0-0.1,0.1
		c-0.4,2.1-0.8,4.3-1.2,6.4L25,60c-1.1,3.6-2.1,7.1-3.1,10.7l-0.3,1h0c-0.8,0.1-2-0.2-3-0.5c-1-0.3-1.9-0.5-2.8-1l0.2-0.7
		c1-3.6,2-7.2,2.9-10.8l0-0.1v-0.1l0.4-7c0.1-2.4,0.2-4.7,0.4-7.1v0c0-2.3,1.1-4.5,2.9-5.8c0.9-0.7,2-1.2,3.1-1.4
		c0.3-0.1,0.5-0.1,0.8-0.1c0.3-0.1,0.6,0,0.8,0c0.6,0,1.2,0,1.8,0c0.4,0,0.9,0,1.3,0c0,0,0,0,0,0c0.6,1.6,1.5,3,2.4,4.4
		c0.9,1.4,2.1,2.6,3.1,3.8c1.1,1.3,2.1,2.5,3.2,3.8c1,1.1,2,2.3,3,3.4l-0.8,0c-0.2,0-0.3,0-0.5,0c-0.2,0-0.4,0.1-0.6,0.2
		c-0.4,0.2-0.7,0.4-0.9,0.7c-0.2,0.3-0.3,0.6-0.4,0.9c-0.7-0.3-1.4-0.4-2.1-0.5c-0.4,0-0.7-0.1-1.1-0.1c-0.4,0-0.9,0.1-1.3,0.3
		c-0.8,0.4-1.3,1.1-1.8,1.8c-0.2,0.3-0.4,0.7-0.6,1c-0.2,0.4-0.3,0.7-0.4,1.2c-0.5,1.7,0.6,3.7,2.3,4.4c0.4,0.2,0.9,0.3,1.3,0.3
		c0.2,0,0.5,0,0.7,0l0.6-0.1c0.6-0.1,1.1-0.2,1.7-0.4l0,0.3c-0.1,0.4,0,0.9,0.3,1.3c0.2,0.4,0.7,0.7,1.1,0.9c0.1,0,0.2,0.1,0.4,0.1
		c0.1,0,0.2,0,0.3,0l0.5,0c1.3,0.1,2.7,0.1,4,0c1.3,0,2.7-0.1,4-0.2c1.3-0.1,2.2-0.2,3.6-0.3c-0.1,2.3-0.2,4.5-0.3,6.9
		c-2.1-0.4-10.4-0.5-12.7-0.4l-6.7,0.3c-2.2,0.1-3.7,0.1-5.8,0.3C26.8,70.6,27.8,55.4,27.8,53.4z M38.7,57.4c-0.1,1.3-0.2,2.6-0.4,4
		l0,0.2c-0.2-0.1-0.4-0.1-0.7-0.2c-0.4-0.1-0.7-0.2-1.1-0.3l-0.6-0.1c-0.2,0-0.3,0-0.4-0.1c-0.3-0.1-0.5-0.2-0.8-0.3
		c-0.3-0.1-0.5-0.3-0.7-0.5c-0.2-0.2-0.4-0.4-0.6-0.6c-0.2-0.2-0.3-0.5-0.4-0.7c0,0,0,0,0,0c0-0.1-0.1-0.2-0.1-0.3
		c0-0.1-0.1-0.2-0.1-0.3c0-0.1-0.1-0.2-0.1-0.3c-0.1-0.6,0-1.2,0.3-1.7c0.1-0.1,0.1-0.2,0.2-0.2c0.1-0.1,0.1-0.1,0.2-0.1
		c0.5-0.4,1.1-0.5,1.6-0.6c0.2,0,0.4-0.1,0.6-0.1c0.1,0,0.2,0,0.3,0c0.3,0,0.7,0,1.1-0.1c0.1,0,0.3-0.1,0.4-0.1
		c0.4-0.1,0.7-0.1,1.1-0.3c0.2-0.1,0.4-0.1,0.5-0.2c0,0.3,0,0.5,0,0.8c0,0.4-0.1,0.9-0.1,1.3C38.7,57,38.7,57.2,38.7,57.4z
		 M25.5,96.4c0-0.5,0-0.9,0-1.5c0-0.7,0.1-1.5,0.1-2.2l0-0.5l0-0.6l0-0.3c0,0,0,0,0,0c0,0,0,0,0,0l2,0.7l0,0c0,0,0,0,0,0
		c0.7,0.2,1.4,0.4,2.1,0.7c1.4,0.4,2.8,0.9,4.2,1.3l0.1,0l2.1,0.6l0.5,0.1l0.3,0.1v0.1c0,0,0,0,0,0c0,0,0,0,0,0
		c0,1.4-0.1,2.9-0.1,4.3c0,0.4,0,0.9,0,1.3c-2.3-0.4-8-2.2-8.5-2.4C28.2,98.1,28,98,27.7,98c-0.3-0.1-0.5-0.1-0.8-0.1
		c-0.2,0-0.4,0-0.7-0.1c0,0,0,0-0.1,0c0,0-0.1,0-0.1,0c-0.2-0.1-0.4-0.2-0.6-0.4C25.5,96.9,25.5,96.6,25.5,96.4z M37.1,106.2
		c0,0.6,0.1,1.3,0.1,1.9c0,0.7,0.1,1.5,0.1,2.2c0,0.4,0,0.7,0.1,1.1c-0.2-0.2-0.4-0.3-0.6-0.4c-0.2-0.1-0.3-0.2-0.5-0.3
		c-0.2-0.1-0.4-0.3-0.6-0.4c-0.1-0.1-0.3-0.1-0.4-0.2c-0.1,0-0.2-0.1-0.4-0.1c-0.1,0-0.2,0-0.3-0.1c-0.1,0-0.3,0-0.4,0
		c-0.4-0.1-2.9-0.6-3.2-0.8c0,0,0,0,0,0c-0.2-0.1-0.3-0.2-0.5-0.2c-0.1,0-0.2,0-0.3,0c0,0,0.1-0.1,0.1-0.1c0.5-0.3,1-0.4,1.6-0.4
		c0,0,0,0,0,0c0.6-0.1,1.1-0.1,1.7-0.3c0.3-0.1,0.5-0.2,0.8-0.2c0,0,0,0,0,0c0.3-0.1,0.5-0.2,0.8-0.3c0.2-0.1,0.4-0.2,0.6-0.3
		c0.3-0.2,0.6-0.3,0.8-0.5c0.2-0.1,0.3-0.2,0.5-0.4C37,106.2,37.1,106.1,37.1,106.2C37.1,106.1,37.1,106.1,37.1,106.2z M25.5,101.4
		c0-0.7,0-1.5-0.1-2.2c0-0.2,0-0.5,0-0.7c0.4,0.3,0.7,0.5,1.1,0.7c0.5,0.2,1,0.4,1.5,0.4c0.2,0,0.6,0,1.1,0.1
		c0.8,0.1,1.8,0.3,2.1,0.4c0,0,0,0,0,0c0.1,0,0.1,0.1,0.2,0.1c-0.2,0.1-0.4,0.2-0.5,0.3c-0.2,0.2-0.4,0.5-0.6,0.8
		c0,0-0.1,0.1-0.2,0.1c-0.3,0.2-3.2,0.7-4.2,1.6c-0.1,0.1-0.2,0.2-0.3,0.3c0,0-0.1,0.1-0.1,0.1C25.6,102.8,25.6,102.1,25.5,101.4z
		 M26.2,104.1c1.2-0.6,3.9-2,4.2-2.1c0,0,0.1,0,0.1-0.1c0,0,0,0,0,0c0,0,0,0,0,0c0.1-0.1,0.3-0.1,0.4-0.2c0,0,0,0,0,0
		c0.1,0,0.2-0.1,0.3-0.2c0.1,0,0.2-0.1,0.3-0.1c0.1-0.1,0.3-0.1,0.4-0.2c0.2-0.1,0.4-0.1,0.7-0.2c0.1,0,0.1,0,0.2-0.1
		c0,0,0.1,0,0.1,0c0.3,0.1,0.6,0.2,0.9,0.3c0.1,0,0.2,0.1,0.3,0.1c0.2,0,0.4,0.1,0.6,0.1c0.3,0,0.7,0.1,1,0.1c0.2,0,0.5,0,0.7,0
		c0.1,0,0.3,0,0.4,0c0,1.3,0,2.6,0.1,3.8c-0.1,0-0.2,0-0.3,0c-0.2,0-0.5,0-0.7,0.1c-0.2,0-0.4,0.1-0.6,0.1c-0.3,0.1-0.7,0.2-1,0.3
		c-0.2,0.1-0.4,0.2-0.5,0.2c-0.3,0.2-0.6,0.3-1,0.5c-0.5,0.2-0.9,0.6-1.3,0.9c0,0,0,0-0.1,0c-0.4,0.4-0.9,0.7-1.4,0.8
		c-0.5,0.2-1.1,0.1-1.7,0.2c-0.3,0.1-0.5,0.1-0.7,0.2c-0.3,0.1-0.5,0.3-0.8,0.4c-0.1,0.1-0.2,0.1-0.3,0.2c-0.2,0.1-0.4,0.3-0.6,0.5
		c0,0-0.1,0.1-0.1,0.1c0-0.6,0-1.3,0-1.9c0-1.2-0.1-2.5-0.2-3.7C25.7,104.3,25.9,104.2,26.2,104.1z M25.8,113
		C25.7,113,25.7,113,25.8,113C25.7,113,25.8,113,25.8,113C25.8,113,25.8,113,25.8,113C25.8,113,25.8,113,25.8,113
		C25.8,113,25.8,113,25.8,113C25.8,113,25.8,113,25.8,113z M35.9,119.5c0,0.2,0,0.4-0.1,0.7c0,0.3,0,0.6-0.1,0.9c0,0.3,0,0.7-0.1,1
		c0,0.2,0,0.3,0,0.5c0,0.1,0,0.3,0,0.4c0,0.3-0.1,0.5-0.1,0.8c-0.1,0.5-0.3,0.9-0.5,1.4c-0.3,0.6-0.7,1.1-1.3,1.5c0,0,0,0-0.1,0
		c-0.1,0.1-0.3,0.2-0.4,0.3c-0.1,0-0.1,0-0.2,0.1c-0.1,0-0.3,0.1-0.4,0.1c-0.1,0-0.2,0.1-0.2,0.1c-0.1,0-0.1,0-0.2,0
		c-0.1,0-0.2,0-0.4,0c-0.2,0-0.3,0-0.5,0c-0.1,0-0.3,0-0.4,0c0,0-0.1,0-0.1,0c-0.2,0-0.3-0.1-0.5-0.1c-0.1,0-0.1,0-0.2,0
		c-0.2-0.1-0.4-0.2-0.6-0.3c-0.1,0-0.1,0-0.2-0.1c-0.1-0.1-0.2-0.2-0.4-0.3c-0.1-0.1-0.2-0.2-0.3-0.2c-0.3-0.2-0.5-0.5-0.7-0.7
		c-0.1-0.2-0.3-0.3-0.4-0.5c-0.3-0.5-0.5-1-0.6-1.5c0-0.1,0-0.2,0-0.3c0-0.2,0-0.3-0.1-0.5l0-0.4l0-0.1l0-0.3
		c-0.1-2.4-0.2-4.7-0.2-7.2c0.5,0.1,0.8,0.1,1.2,0.2c0.1,0,0.2,0,0.4,0.1c2.8,0.4,5.2,0.9,7.9,1.5c0,0,0,0,0,0
		C36.1,117.4,36,118.4,35.9,119.5z M37.4,113.3c0,0.4,0,0.8,0,1l0,0.9l0,0.2c0,0,0,0,0,0.1c0,0.3-0.3,0.5-0.6,0.4
		c-2.9-0.6-5.5-1.3-8.3-2.2c-0.4-0.1-0.8-0.2-1.1-0.3c-0.3-0.1-0.7-0.2-1-0.3l-0.1,0l-0.4-0.1c0,0,0,0,0,0c0,0,0,0,0-0.1l0-0.5
		c0-0.6,0-1.3,0-1.9c0.2,0,0.4,0,0.6,0c0.3,0,0.6,0,0.9-0.1c0.1,0,0.3-0.1,0.4-0.1c0.2-0.1,0.4-0.1,0.6-0.2c0.2-0.1,0.4-0.2,0.6-0.3
		c0,0,0.1,0,0.1-0.1c0.1,0,0.2,0,0.3,0.1c0.7,0.1,2.2,0.5,2.5,0.5c0.1,0,0.4,0.1,0.7,0.2c0.3,0.1,0.7,0.2,1.1,0.4
		c0.1,0,0.1,0,0.2,0.1c0.8,0.3,1.7,0.6,2.1,0.7c0.3,0.1,1.1,0.3,1.6,0.3C37.5,112,37.4,112.7,37.4,113.3z M52.7,120.2
		c0,0.9,0,1.8,0,2.7c0,0.3-0.1,0.6-0.2,1c0,0,0,0,0,0c-0.2,0.5-0.4,0.9-0.7,1.3c-0.3,0.4-0.6,0.8-1,1c-0.3,0.3-0.7,0.4-1.1,0.6
		c-0.8,0.3-1.7,0.4-2.6,0.3c-1.3-0.2-2.4-1-3.1-2c-0.1-0.1-0.1-0.2-0.2-0.4c-0.2-0.3-0.3-0.6-0.4-1c0-0.1-0.1-0.3-0.1-0.4
		c-0.1-0.3-0.1-0.6-0.1-0.9l0-1.1c0-2.8,0-5.6-0.1-8.3c0,0,0-0.1,0-0.1c0,0,0-0.1,0-0.1c-0.1-5.6-0.2-11.2-0.3-16.7l-0.2-4.3
		l-0.1-4.1l-0.2-3.6l0-0.7l-0.1-2.1l0-0.1l0-0.2c0-0.1,0-0.2,0-0.3c0-0.2-0.1-0.3-0.1-0.5c0-0.1,0-0.1-0.1-0.2
		c-0.1-0.2-0.2-0.3-0.3-0.4c-0.1-0.2-0.3-0.3-0.5-0.5c-0.1,0-0.1-0.1-0.2-0.2c0,0,0,0,0,0s0,0,0,0c-0.2-0.1-0.4-0.2-0.6-0.2
		c0,0-0.1,0-0.1,0c-0.7-0.2-1.5-0.1-2.1,0.3c-0.1,0.1-0.3,0.2-0.4,0.4c-0.2,0.2-0.4,0.4-0.5,0.7c-0.1,0.2-0.1,0.4-0.2,0.6
		c0,0,0,0.1,0,0.1c0,0.3,0,0.4,0,0.6l0,4.2c0,2.5,0.1,4.9,0.1,7.4l0,0l-0.5-0.1l-1.8-0.4l-0.4-0.1c-0.2-0.1-0.4-0.1-0.7-0.2
		c-1.2-0.3-2.4-0.6-3.6-0.9c-0.7-0.2-1.4-0.3-2.2-0.5l-1.6-0.4c0-0.7-0.1-1.5-0.1-2.2c-0.1-0.9-0.1-1.8,0-2.6c0.1-1.2,0-7,0.3-10.8
		c0.1-1.4,0.2-2.5,0.4-3.2c0.1,0,0.3,0,0.4,0c1.4,0.1,2.5,0,3.7,0c0.5,0,1,0,1.6,0l5.5,0.2l1.2,0c2.2,0.1,10.3-0.1,12.6-0.5
		c0,0,0.1,0,0.1,0c0,0.6,0,1.2,0,1.7c0,2.5,0.2,5,0.1,7.5c0,2.5-0.1,5-0.1,7.5c0,0.3,0,0.6,0,0.9c0,2.8,0,5.6,0,8.4l0.1,4.7l0.1,3.7
		c0.1,2.1,0.1,4.2,0.2,6.3c0,0.7,0,1.4,0,2.1c0,0.7,0,1.5,0,2.2C52.7,117.9,52.7,119,52.7,120.2z M59.6,61.7
		c-0.5,0.8-1.4,1.5-2.4,1.7c-0.3,0.1-0.6,0.1-0.8,0.1c-0.1,0-0.1,0-0.2,0c-1.7,0-3.2,0-4.7,0c-0.9,0-1.7-0.1-2.6-0.1
		c-1.3-0.1-2.7-0.2-4-0.2c-0.1,0-0.1,0-0.2,0c-1.3,0-2.5,0-3.8,0l-0.1,0l-0.4,0l-0.2,0c0,0-0.1,0-0.1,0c0,0,0,0,0,0
		c-0.1,0-0.1,0-0.2-0.1c0,0-0.1,0-0.1-0.1c-0.1,0-0.1-0.1-0.2-0.2c-0.1-0.1-0.1-0.2-0.2-0.3c0-0.1-0.1-0.2-0.1-0.3l0-1
		c0-1.3,0-2.7,0-4c0-0.4,0-0.8,0.1-1.2c0-0.3,0-0.5,0-0.8c0-0.2,0-0.5,0-0.7c0-0.1,0-0.2,0-0.3c0-0.1,0.1-0.2,0.1-0.4c0,0,0,0,0-0.1
		c0.1-0.1,0.1-0.2,0.2-0.4c0.2-0.2,0.4-0.3,0.6-0.4c0,0,0,0,0.1,0c0.2-0.1,0.4-0.1,0.7-0.1c0.1,0,0.1,0,0.2,0l0.8,0l1.2,0.1
		c0.6,0,1.2,0.1,1.8,0.1c1.2,0.1,2.4,0.1,3.6,0.2c0.9,0,1.7,0.1,2.6,0.1l2,0c0.3,0,0.6,0,1,0c0.4,0,0.7,0,1.1-0.1c0,0,0,0,0,0
		c0.7-0.1,1.4-0.2,2.1-0.4c0.7-0.2,1.3-0.5,1.9-0.7l0.1,0c0,0,0,0,0,0l0,0c0,0,0,0,0.1,0c0.1,0,0.1,0.1,0.1,0.1c0,0,0,0.1,0,0.1
		c0,0.1,0,0.2,0,0.2l0,0.4l0,0.1c0,0.1,0,0.3,0,0.4c0,0.2,0,0.4,0,0.6c0.1,1.1-0.1,2-0.1,3.1c0,0.2,0,0.4,0,0.6l0,0.2l0.1,0.8
		c0,0.1,0,0.2,0,0.3c0,0.2,0,0.4,0,0.6c0,0,0,0,0,0c0,0,0,0.1,0,0.1C60.1,60.7,59.9,61.3,59.6,61.7z"/>
</g>
</svg>
