<?xml version="1.0" encoding="utf-8"?>
<!-- Generator: Adobe Illustrator 18.1.0, SVG Export Plug-In . SVG Version: 6.00 Build 0)  -->
<svg version="1.1" id="Layer_1" xmlns="http://www.w3.org/2000/svg" xmlns:xlink="http://www.w3.org/1999/xlink" x="0px" y="0px"
	 viewBox="0 0 128 128" enable-background="new 0 0 128 128" xml:space="preserve">
<path fill="#2D2D2D" d="M127.4,53.2L97.6,20.9l-0.1-0.1c-0.7-0.7-1.8-0.7-2.6,0L80.4,33.7L65.6,18.5c-0.9-0.8-2.2-0.8-3.2,0
	l-14.6,15L33.1,20.8c-0.7-0.7-1.8-0.7-2.6,0L0.7,53.1c-0.5,0.4-0.7,1.1-0.6,1.8c0.1,0.7,0.5,1.2,1.2,1.5c1.1,0.5,2.7,1,4.7,1.6v27.8
	c0,1.1,0.8,1.9,1.9,1.9h20.1v19.8c0,1.3,1,2.3,2.2,2.3h67.8c1.2,0,2.2-1,2.2-2.3V87.7h20.1c1,0,1.9-0.9,1.9-1.9V58
	c2.1-0.6,3.7-1.2,4.7-1.6c0.6-0.3,1-0.8,1.2-1.5C128.1,54.2,127.8,53.6,127.4,53.2z M63.8,19.9c0.1-0.1,0.2-0.1,0.2-0.1s0.2,0,0.2,0
	l42.2,43.3c0.1,0.1,0.1,0.3,0.1,0.3c0,0.1-0.1,0.2-0.2,0.3c-4.7,2-18.2,6.5-42.3,6.5c-24.1,0-37.6-4.6-42.3-6.5
	c-0.2-0.1-0.2-0.2-0.2-0.3c0-0.1,0-0.2,0.2-0.4L63.8,19.9z M31.8,22.3L46.4,35L23.1,58.9C11.3,58,4.4,55.6,2,54.6L31.8,22.3z
	 M7.9,85.8V58.5c3.4,0.8,7.8,1.7,13.4,2.1l-1,1c-0.6,0.5-0.9,1.3-0.8,2.1c0.1,0.8,0.7,1.4,1.4,1.7c1.5,0.6,3.8,1.5,7,2.4v17.8H7.9z
	 M72.5,107.9H55.5V85.3c0-0.5,0.4-1,1-1h15c0.5,0,1,0.4,1,1V107.9z M97.9,107.9H74.4V85.3c0-1.6-1.3-2.9-3-2.9h-15
	c-1.6,0-3,1.3-3,2.9v22.6H30.1c-0.1,0-0.3-0.1-0.3-0.4V68.5c7.4,1.9,18.6,3.8,34.1,3.8c15.5,0,26.8-1.9,34.1-3.8v39.1
	C98.1,107.8,98,107.9,97.9,107.9z M120.1,85.8h-20V68c3.2-0.9,5.5-1.8,7-2.4c0.7-0.3,1.3-1,1.4-1.7c0.1-0.8-0.1-1.6-0.7-2.1
	l-1.1-1.1c5.6-0.5,10-1.3,13.4-2.1L120.1,85.8z M104.9,58.9L81.8,35.1l14.4-12.8l29.9,32.3C123.6,55.6,116.7,58,104.9,58.9z"/>
</svg>
