<?xml version="1.0" encoding="utf-8"?>
<!-- Generator: Adobe Illustrator 18.1.0, SVG Export Plug-In . SVG Version: 6.00 Build 0)  -->
<svg version="1.1" baseProfile="tiny" id="Layer_1" xmlns="http://www.w3.org/2000/svg" xmlns:xlink="http://www.w3.org/1999/xlink"
	 x="0px" y="0px" viewBox="0 0 140 128" xml:space="preserve">
<g>
	<ellipse fill="#2D2D2D" cx="126.3" cy="38.8" rx="1.4" ry="1.4"/>
	<path fill="#2D2D2D" d="M132.4,37.9c0,0-0.1-0.1-0.1-0.1c-0.5-1-2.1-3.9-5.1-4.6c-0.1-0.8-0.2-3-0.5-6.1c-0.4-4.8-3.1-5.5-5.3-6.1
		l-0.4-0.1c-2.4-0.5-8.8-1.8-12.4-3.6c-2.5-1.3-4.3-5.7-5.8-9.6c-0.6-1.5-1.1-2.9-1.7-4l-2.1-4.2l0.2,4.7c0.1,2.7,1.6,10,3.3,13.2
		c2,3.8,5.9,5.4,8,6c1,0.3,2.5,0.5,4,0.8c2.5,0.4,5.9,1,6.8,1.8c1,1,0.9,5.2,0.5,7.9c0,0-0.1,0-0.1,0c-0.2-0.5-0.5-1-0.9-1.5
		c-1.7-2.5-5.8-3.6-5.9-3.6l-1.2-0.3l0,1.2c0,0.2-0.1,4.3,1.9,6.5c0.5,0.5,1,1,1.4,1.4c0,0-0.1,0.1-0.1,0.1
		c-1.5,1.9-2.8,4.4-3.9,7.7c-0.4,1.3-1.5,2.2-2.9,2.5c-6.1,1.2-19.9,0.7-22.9-0.1c-3.6-0.9-13.8-2.7-19-2.9c-3.5-0.7-9-0.3-12.9,2.5
		c-2.7,1.9-4.3,4.6-4.7,8c-0.1,1-0.2,1.9-0.1,2.8c0,0,0,0,0,0c-0.2,0.4-0.4,0.9-0.7,1.5c-0.5,1.2-1,2.9-1.6,4.2c0,0-0.1,0.1,0,0.1
		l-0.1,0.1L48,64.5l-0.2,0.4c-0.2,0.3-0.4,0.6-0.6,0.9c-0.4,0.6-0.9,1.1-1.3,1.6c-0.4,0.5-0.8,1-1,1.3c-0.2,0.4-0.3,0.6-0.3,0.6
		s0.3,0,0.7-0.1c0.4-0.1,1-0.2,1.7-0.4c0.7-0.2,1.5-0.6,2.2-1.3c0.4-0.3,0.7-0.7,1-1.1c0.2-0.2,0.3-0.5,0.5-0.7l0.2-0.3l0.1-0.1
		c0.1-0.1,0.1-0.1,0.1-0.2c0.3-0.8,0.5-1.5,0.7-2.3c1.5,3.6,4.1,5.7,5.3,6.5c0.1,0.1,0.2,0.2,0.3,0.2c-0.1,0.5-0.9,1.8-1.9,2.8
		L51,79.1c-2.1-1.2-4.6-2.2-7.3-3.1c-0.9-0.4-11.1-4.7-23.2-2.9c-0.9-1.5-3.8-4.9-9.9-4.3c-6,0.6-8.1,4.4-8.7,6
		c-0.2,0.5-0.4,0.9-0.6,1.3l-1.1,1.8c-0.4,0.6-0.3,1.4,0.2,1.8c0.4,0.4,1.3,1.4,1.3,2.7c-0.1,2.3,0.2,4.1,0.8,5.3
		c0.2,0.3,0.5,0.6,0.9,0.6c0.2,0,0.4,0,0.7-0.1c-0.3,0.5-0.3,0.7-0.3,0.9c0.1,0.3,0.2,0.5,0.5,0.7C6.7,91,8.2,90,9.3,89.3
		c0.2-0.1,0.5-0.3,0.9-0.4c1.5-0.7,3.7-1.7,4.9-3.4c0.3,0.4,0.7,0.8,1.1,1.1C16,87.3,16,88,16,88.7c0,0-0.1,0.1-0.1,0.1
		c-3.2,4.7-9,22.3-9.4,23.6l-1.4,3l-0.1,4.5c-0.3,1.2,0.3,2.6,1.4,3.2l2.5,1.5c0.5,0.3,1,0.4,1.6,0.4c0.2,0,0.4,0,0.6-0.1l2-0.4
		c0.3-0.1,0.7-0.3,0.9-0.5l0.9-1.1l0.4-0.7c0.1-0.1,0.1-0.2,0.1-0.3c0.7,0.5,1.5,0.7,2.2,0.7c2.6,0,4.6-1.7,5.3-3.4
		c0.2-0.6,0.3-1.1,0.1-1.7c-0.1-0.5-0.5-2.1-2.3-2.5c-0.1,0-0.1,0-0.2-0.1c-0.3-0.1-0.9-0.3-1.4,0.1c-0.3,0.2-0.5,0.6-0.4,1
		c0,0.4-0.2,0.8-0.5,1.1c-0.3-0.4-0.7-1-1.1-1.6c0.8-1.4,1-3.1,1-4c1.7-1.6,9.5-8.9,11.6-13.6c0.2-0.4,0.3-0.8,0.4-1.2
		c2.8,2,6.3,3.1,8.3,3.5c-1.8,3.2-2.5,6.4-2.6,6.6c-0.8,4.3-2.5,11.3-3.5,13.5c-2.8-0.3-4.9-0.3-6.4,0.1c-1.2,0.3-2.1,0.7-2.6,1.5
		c-0.2,0.4-0.3,0.8-0.1,1.2c0.1,0.4,0.4,0.7,0.8,0.8c1.6,0.6,6.6,2.3,9.5,3.3c0.3,0.1,0.7,0.2,1,0.2c0.7,0,1.4-0.3,2-0.7
		c3.2-2.9,8.4-12.9,9.4-15.3c1.3-0.7,2.4-1.4,3.5-2.2c0.2,0.7,0.5,1.7,0.9,2.6c0.6,1.5,2.9,3.8,8.1,7.8c-1.2,1.1-2.7,2.6-3.2,3.8
		c-0.2,0.5-0.2,1.1,0.2,1.5c0.3,0.3,0.6,0.5,1,0.5c0.1,0,0.3,0,0.4-0.1c2.1-0.6,7.3-2.2,10.2-3.1c0.9-0.3,1.4-1.2,1.2-2.1
		c-1.2-4.5-7.7-11.5-9-12.8c-0.2-0.2-0.3-0.6-0.3-0.9c0.6-2.8,1.3-9.6,1.3-9.9c0-0.1,0-0.1,0-0.2c0.9-2.5,0.8-4.1,0.8-4.3
		c0-3.4-1.6-6.5-4.6-9.3c0.4-0.7,1.4-2.2,3.4-3.8c0.2-0.2,0.5-0.4,0.8-0.6l-0.8,3.5c-0.2,0.7-0.1,1.4,0.2,2l6.2,13.9
		c0.1,0.3,0.2,0.7,0.2,1v2.2c0,0.8,0.7,1.5,1.5,1.5h5.6c0.6,0,1.2-0.4,1.4-0.9c0.2-0.6,0.1-1.2-0.4-1.6l-2.1-2
		c-0.3-0.3-0.5-0.6-0.6-0.9c-2.9-7.8-4.8-13.7-4.8-14.7c0.1-1.2,5-7.1,9.4-11.9c2.8,0.6,5.8,1,9,1c2.6,0,4.7-0.1,6.4-0.2
		c0.5,1,2.2,4.2,3.3,6.3c0.4,0.7,0.6,1.5,0.5,2.3C95.2,82,95,85.8,95,86.8c0,0.2,0,0.4-0.1,0.7c-1.3,7.4-1.7,9.6-1.6,10.5l0,2
		c0,0.8,0.7,1.5,1.5,1.5h5.1c0.6,0,1.1-0.4,1.4-0.9c0.2-0.5,0.1-1.1-0.2-1.5l-1.3-2.1c-0.2-0.3-0.2-0.6-0.1-0.9l2.5-10.7
		c0.1-0.5,0.2-1,0.2-1.5l-0.1-4.3c1.4,2.1,2.7,3.8,3.4,4.8c0.3,0.4,0.5,0.9,0.6,1.4c0.6,3.3,2,11.2,2.6,13.6c0.1,0.5,0.2,1,0.2,1.5
		v1.2c0,0.8,0.7,1.5,1.5,1.5h5.7c0.5,0,1-0.3,1.2-0.8c0.2-0.5,0.1-1-0.2-1.3l-2.2-2.3c-0.2-0.2-0.3-0.4-0.3-0.7
		c-0.1-0.5-0.2-1.3-0.3-2.3c-0.8-6-1.6-12-2.1-13.2c-0.5-1.5-1.5-8.5-1.7-11.6c-0.1-1.2,2.3-2.5,4.6-3.7c1.9-1,4-2.1,5.4-3.5
		c2.9-2.8,4.5-9.3,5.5-13.2c0.2-0.8,0.4-1.5,0.5-1.9c0.3-0.9,4.3-0.3,5.6-0.1c0.9,0.1,1.6,0.3,2.1,0.3c3.8,0,6.1-1.4,6.1-3.8
		C140,42.6,135.9,39.8,132.4,37.9z M122.8,24.6c-1.3-1.3-4.6-1.9-7.9-2.4c-1.5-0.2-2.9-0.5-3.8-0.7c-3.1-0.9-5.6-2.7-6.9-5
		c-0.4-0.8-0.8-1.9-1.2-3.2c1.2,2.5,2.7,4.7,4.6,5.7c3.8,2,10.4,3.3,12.9,3.8l0.3,0.1c2,0.5,3.5,0.9,3.8,4.4
		c0.2,2.8,0.4,4.8,0.5,5.8c-0.4,0-0.9,0.1-1.3,0.1C124.3,31.1,124.6,26.4,122.8,24.6z M6.3,88.4c0.4-0.6,1-1.4,1.4-2
		C8,86.1,8,85.6,7.7,85.2c-0.3-0.3-0.8-0.4-1.2-0.2c-0.8,0.4-1.8,0.9-2.5,1.2c-0.3-0.9-0.4-2.2-0.3-3.7c0.1-1.8-0.9-3.2-1.6-3.9
		l1-1.5c0.3-0.5,0.6-1.1,0.8-1.7C3.9,75.3,3.9,75.1,4,75c1.7-0.3,3.2,1.5,3.9,2.4L8,77.5c0.3,0.4,0.8,0.6,1.2,0.6
		c0.4,0,0.8-0.2,1-0.6c0.3-0.4,0.8-1,1.3-0.9c0.6,0,1.2,0.6,1.6,1.4c0.4,0.8,0.4,1.5,0.2,1.9c-0.4,0.8-1.7,1.2-2.7,1.3
		c-0.4,0-0.7,0.3-0.9,0.6c-0.2,0.3-0.3,0.7-0.2,1.1c0.2,0.6,0.6,2.7-1.3,4.8c0,0,0,0,0,0.1C7.5,88.1,7,88.4,6.3,88.4z M12.3,122.7
		l-1.8,0.4c-0.3,0-0.5,0-0.8-0.1l-2.5-1.5c-0.4-0.2-0.6-0.7-0.5-1.2l0.2-4.4l1.2-2.7l0-0.1c0.1-0.2,4.5-13.8,7.7-20.5
		c0.1,2.5,0.5,4.4,0.6,4.8c-0.8,1-1.7,3.3-2.7,5.7c-0.9,2.2-1.9,4.7-2.6,5.5c-1.6,2-1.9,4.6-0.9,6.9c0,0.1,0.1,0.2,0.1,0.3l-1.5,2.1
		L8.7,118c-0.1,0.3-0.1,0.6,0,0.9l0.6,2c0.2,0.5,0.6,0.9,1.2,1l2.1,0.3c0,0,0,0,0,0L12.3,122.7z M12.8,120.4l-1.7-0.2l-0.5-1.5
		l0.7-1c0.5,0.8,1.1,1.7,1.8,2.5c0,0-0.1,0-0.1,0L12.8,120.4z M57.5,108.6c3.4,3.5,7.5,8.7,8.5,11.8c-2.3,0.7-5.9,1.8-8.4,2.6
		c0.6-0.7,1.4-1.5,2.4-2.4c0.3-0.3,0.5-0.7,0.4-1c0-0.4-0.2-0.8-0.5-1c-2-1.5-7.3-5.6-8-7.4c-0.5-1.3-0.9-2.5-1.1-3.2
		c3.1-2.4,5.2-4.7,6.7-6.9c-0.2,1.8-0.5,3.7-0.7,4.8C56.6,107,56.8,107.9,57.5,108.6z M58.9,92.1c0,0.1,0.2,9.7-14.4,17.8
		c-0.2,0.1-0.3,0.3-0.4,0.5c-0.8,1.8-6.1,12.2-9.1,14.9c-0.3,0.2-0.7,0.3-1,0.2c-2.4-0.8-6.3-2.2-8.4-2.9c0.2-0.1,0.3-0.1,0.6-0.2
		c1.4-0.3,3.5-0.3,6.4,0c0.3,0,0.7-0.1,0.9-0.4c1.5-2,3.6-12.6,4.1-14.7c0-0.1,0.8-3.8,3-7.2c0,0,0,0,0,0c0,0,0,0,0,0
		c1.5-2.3,3.7-4.5,6.7-5.2c0.5-0.1,0.9-0.6,0.7-1.2c-0.1-0.5-0.6-0.8-1.2-0.7c-3.4,0.8-5.8,3-7.6,5.5c-1.5-0.2-5.8-1.4-8.9-3.8
		c0.8-4.9-0.4-10.6-0.5-10.9c-0.1-0.5-0.6-0.9-1.2-0.7c-0.5,0.1-0.9,0.6-0.7,1.1c0,0.1,1.8,8.3-0.3,12.9
		c-2.1,4.7-11.3,13.1-11.4,13.2l-0.3,0.3l0,0.5c0,0.6,0,2.5-0.8,3.5c-0.4,0.5-0.4,1.2,0,1.7c0.6,0.8,1.3,1.7,1.6,2.2
		c0.4,0.5,1.1,0.8,1.7,0.5c1-0.4,1.7-1.2,1.9-2.2c0.3,0.1,0.5,0.4,0.7,1c0.1,0.3,0.1,0.3,0,0.6c-0.4,1.1-1.9,2.2-3.5,2.2
		c-1.5,0-3.8-2.8-5-5.3c0,0,0-0.1-0.1-0.1c-0.1-0.2-0.2-0.4-0.2-0.6c-0.7-1.6-0.5-3.5,0.7-5c0.8-1.1,1.8-3.4,2.9-5.9
		c0.9-2.1,1.9-4.6,2.5-5.4c0.3-0.4,0.4-0.9,0.3-1.4c-0.8-3.8-1.4-12.4,2-18.1c0.3-0.5,0.1-1.1-0.3-1.3c-0.5-0.3-1.1-0.1-1.3,0.3
		c-1.1,1.9-1.8,4-2.3,6.2c-0.5-0.6-1-1.1-1-1.1c-0.2-0.3-0.6-0.4-1-0.3c-0.4,0.1-0.6,0.4-0.7,0.8c-0.2,1-1.3,1.9-2.5,2.6
		c0.4-1.2,0.4-2.3,0.2-3.1c1.1-0.2,2.7-0.8,3.5-2.2c0.6-1,0.5-2.3-0.1-3.7c-0.7-1.5-2-2.4-3.2-2.5c-0.7-0.1-1.7,0.1-2.6,1.1
		c-0.8-0.9-2.1-2.3-3.8-2.7c1.1-1.1,2.8-2.1,5.5-2.4c6.2-0.6,8.2,3.6,8.3,3.8c0.2,0.4,0.6,0.6,1,0.6c12.1-2,22.7,2.7,22.8,2.7
		c0,0,0.1,0,0.1,0C52.8,80.9,58.9,86.4,58.9,92.1z M64.8,82.2c0,1.8,3.1,10.4,4.9,15.4c0.2,0.6,0.6,1.2,1.1,1.7l1.3,1.3h-4.1v-1.8
		c0-0.6-0.1-1.2-0.4-1.8L61.5,83c-0.1-0.3-0.1-0.5-0.1-0.8l1.5-5.9c2.5-2.1,5.7-4.9,8-7.8c1,0.5,2.1,0.9,3.2,1.2
		C70.8,73.3,64.8,80.1,64.8,82.2z M100.2,83.8c0,0.3,0,0.7-0.1,1l-2.5,10.7c-0.2,0.8-0.1,1.6,0.4,2.3l1,1.6h-3.7v-1.7
		c0.1-1,0.9-5.8,1.6-10c0-0.3,0.1-0.6,0.1-0.9c0-1.1,0.2-4.8,0.4-7.1c0.1-1.2-0.2-2.3-0.7-3.4c-1-1.7-2.3-4.2-3-5.6
		c1.6-0.2,2.6-0.4,3.2-0.6c0.9,2.1,2.1,4.2,3.2,6.1c0,0,0,0.1,0,0.1L100.2,83.8z M133.9,47.2c-0.3,0-1.1-0.1-1.8-0.2
		c-2.9-0.5-6.9-1.1-7.7,1.4c-0.1,0.4-0.3,1.1-0.5,2c-0.9,3.5-2.5,9.9-4.9,12.3c-1.2,1.2-3.1,2.2-4.9,3.2c-3,1.6-5.7,3-5.6,5.5
		c0.2,3.1,1.1,10.3,1.8,12.1c0.4,1.2,1.5,9.1,2,12.9c0.1,0.9,0.2,1.7,0.3,2.3c0.1,0.7,0.4,1.2,0.8,1.7l1.1,1.1h-3.6v-0.8
		c0-0.6-0.1-1.3-0.2-1.9c-0.5-2.4-2.1-11-2.5-13.5c-0.1-0.8-0.5-1.6-1-2.2c-5.1-6.7-10.6-15.9-10.6-21.8c0-0.5-0.4-1-1-1s-1,0.4-1,1
		c0,2.2,0.7,4.7,1.6,7.2c-1.3,0.3-4.6,0.9-10.9,0.9c-5,0-9.6-0.9-13.2-2.4c1.3-1.9,2.2-3.9,2.2-5.6c0-0.5-0.4-1-1-1
		c-0.5,0-1,0.4-1,1c0,5.1-9.4,12.6-13,15.4c-0.4,0.3-0.7,0.6-1,0.8c-2,1.6-3.1,3.1-3.7,4c-0.6-0.5-1.3-0.9-2-1.4l4.1-6.4
		c1.3-1.5,3.3-4.1,1.8-5.4c-0.1-0.1-0.3-0.3-0.6-0.5c-1.7-1.3-6.3-4.8-5.4-12.3c0.4-2.8,1.7-5.1,3.9-6.6c3.7-2.6,8.9-2.7,11.5-2.1
		l0.2,0c5,0.1,15,1.9,18.6,2.8c3.2,0.8,17.3,1.3,23.7,0.1c2-0.4,3.7-1.8,4.3-3.8c1-3,2.2-5.3,3.6-7.1c0,0,0.1-0.1,0.1-0.2
		c0.5,0.3,0.8,0.5,0.8,0.5c0.1,0.1,0.3,0.1,0.5,0.1c0.3,0,0.7-0.2,0.9-0.5c0.3-0.5,0.1-1.1-0.4-1.3c0,0-1.5-0.9-3.2-2.7
		c-0.9-0.9-1.2-2.6-1.4-3.8c1.2,0.5,2.8,1.3,3.5,2.4c1.4,2.1,1.7,3.4,1.7,3.4c0.1,0.5,0.6,0.9,1.1,0.7c0.5-0.1,0.9-0.6,0.8-1.1
		c0,0-0.1-0.3-0.3-0.8c1-0.4,2.1-0.6,3.2-0.6c2.8,0,4.3,2.8,4.7,3.6c0.2,0.4,0.5,0.8,0.9,1c4,2.2,6.6,4.4,6.6,5.8
		C138.1,47.1,134.9,47.2,133.9,47.2z"/>
	<ellipse fill="#2D2D2D" cx="5.1" cy="78.6" rx="1" ry="1"/>
</g>
</svg>
