<?xml version="1.0" encoding="utf-8"?>
<!-- Generator: Adobe Illustrator 18.1.0, SVG Export Plug-In . SVG Version: 6.00 Build 0)  -->
<svg version="1.1" baseProfile="tiny" id="Layer_1" xmlns="http://www.w3.org/2000/svg" xmlns:xlink="http://www.w3.org/1999/xlink"
	 x="0px" y="0px" viewBox="0 0 128 128" xml:space="preserve">
<g>
	<path fill="#2D2D2D" d="M63.9,109.3c2.1-7.9,1.8-14-6.1-18.2c-2.6-1.4-5.6-1.3-8.5-0.7c0.8-2.2,0.9-4.3,0-6.4
		c-2.9-6.8-14.2-9.8-14.3-9.8l-1.2-0.3l0,1.3c0.1,5.7-4.1,6.6-6.8,7.2c-0.3,0.1-0.6,0.1-0.9,0.2c-8.4,2.7-8.4,9.6-7.9,12.5
		c-5-0.1-7.9,0.9-8.9,3c-0.9,1.9,0.1,4,1,5.4C4.8,103.4,0,108.7,0,114.7v1.1c0,7.8,3.7,12.2,10,12.2h51c5.5,0,10-4.5,10-10
		C71,113.8,67.9,110.2,63.9,109.3z M26.6,84.5c0.2-0.1,0.5-0.1,0.8-0.2c2.6-0.6,7.8-1.7,8.3-7.9c3.2,1,9.9,3.9,11.8,8.3
		c0.9,2,0.6,4.1-0.7,6.3c-2,0.6-3.7,1.4-5.1,2.1c-0.7,0.3-1.2,0.6-1.7,0.7c-2.8,1-6.6,2-20,1.4C19.7,93.1,19.2,86.9,26.6,84.5z
		 M11,99c0.4-0.8,2-2.2,8.2-1.8c14.4,0.7,18.5-0.3,21.5-1.5c0.5-0.2,1.1-0.5,1.8-0.8c3.4-1.6,9.9-4.5,14.3-2.1c6,3.3,7.4,7.5,5,16.2
		c0,0,0,0-0.1,0c-0.6,0-1.3,0.1-1.9,0.2c-2.2,0.5-4.6,0.7-7.4,0.7c-2.9,0-5.8-0.2-8.5-0.5c-1.2-0.1-2.4-0.2-3.5-0.3
		c-5.2-0.3-10.7-1.6-16.1-2.9c-3.8-0.9-7.7-1.8-11.5-2.4C12.2,103,10.3,100.5,11,99z M61,126H10c-6.7,0-8.1-5.6-8.1-10.2v-1.1
		c0-4.3,3.4-9.2,8-9.2c0.2,0,0.5,0,0.7,0c4.2,0.5,8.8,1.6,13.2,2.6c5.4,1.3,11.1,2.6,16.4,3c1.1,0.1,2.3,0.2,3.5,0.3
		c2.7,0.2,5.7,0.5,8.7,0.5c3,0,5.6-0.2,7.9-0.7c0.5-0.1,1-0.2,1.4-0.2c3.9,0,7.2,3.2,7.2,7C69.1,122.4,65.4,126,61,126z"/>
	<path fill="#2D2D2D" d="M100.3,33.1c5.1-13.5,0.7-29.2-1-31.7c-0.1-0.2-0.5-0.7-1.2-0.7c-0.4,0-1,0.3-1.1,1
		c-1.9,7.6-7.9,18.8-13.1,22.5c-0.1,0-0.1,0.1-0.2,0.1c-0.1,0-0.2-0.1-0.3-0.1c-0.1-0.1-0.1-0.2-0.1-0.3c1-6.6,7.2-18.2,9.1-21.7
		c0.3-0.5,0.2-1,0-1.4c-0.3-0.6-1.1-0.9-1.8-0.6c-3.2,1.2-14.5,5.7-22.9,16.4c-7.9,10-6.5,21.2-5.5,25.5c0.4,1.6,1.8,2.8,3.5,2.8
		c0.1,0,0.3,0,0.5,0l6.1-1.3c0.7-0.1,1.4,0.2,1.6,0.9l3.5,8.7l0.1,0.2c0.7,1,1.8,1.6,3,1.6c0.7,0,1.3-0.2,1.9-0.5
		C88.4,50.8,96.5,43.1,100.3,33.1z M81.5,52.7c-0.7,0.4-1.7,0.2-2.1-0.4l-3.5-8.6c-0.6-1.5-2.3-2.4-3.9-2.1l-6,1.3
		c-0.8,0.1-1.6-0.5-1.8-1.2c-0.9-4.1-2.3-14.5,5.1-23.9C76.5,8.6,85.9,4.1,90,2.4c-2.4,4.5-7.7,14.9-8.6,21.1
		c-0.1,0.7,0.1,1.3,0.5,1.9c0.5,0.5,1.1,0.8,1.8,0.8c0,0,0,0,0,0c0.5,0,0.9-0.1,1.3-0.4C90.3,22,96,11.8,98.4,4
		c1.7,4.4,4.2,17.3,0,28.4C94.9,41.9,87.1,49.3,81.5,52.7z"/>
	<path fill="#2D2D2D" d="M125.3,58.3c-0.2-0.6-0.8-1-1.4-1c-0.6,0-1.1,0.4-1.4,0.9c-1.5,3.6-6.8,15.7-11.3,20.6
		c-0.1,0.1-0.2,0.1-0.2,0.1s-0.4-0.1-0.4-0.3c-0.4-6.4,4.7-18.1,9.4-24.3c0.5-0.6,0.3-1.1,0.2-1.3c-0.1-0.2-0.4-0.7-1.2-0.7
		c-2.7,0-18.1,6.3-25.6,19C88,80.5,87,91.7,87.9,98.5c0.2,1.9,1.9,3.3,3.9,3.1l9.2-2.7c0.7-0.2,1.4,0.1,1.7,0.7l2.9,5.7
		c0.7,1,1.8,1.7,3,1.7c0.5,0,1.1-0.1,1.6-0.4c4-1.9,13.6-7.8,16.6-20.2C129.8,73.2,126.4,61.6,125.3,58.3z M124.8,86
		c-2.7,11.6-11.7,17.1-15.5,18.9c-0.7,0.4-1.7,0-2-0.5l-2.8-5.6c-0.6-1.2-1.8-1.9-3.1-1.9c-0.3,0-0.7,0-1,0.1l-8.9,2.7
		c-0.9,0-1.6-0.6-1.7-1.4c-0.8-6.5,0.1-17.2,5.3-25.9c6.1-10.3,17.7-16.2,22.3-17.7c-4.6,6.7-9.1,17.6-8.7,24
		c0.1,1.2,1.1,2.2,2.3,2.2c0.7,0,1.3-0.3,1.7-0.8c4.3-4.7,9.1-15.2,11.1-19.9C125.1,64.5,127.5,74.6,124.8,86z"/>
</g>
</svg>
