<?xml version="1.0" encoding="utf-8"?>
<!-- Generator: Adobe Illustrator 24.1.2, SVG Export Plug-In . SVG Version: 6.00 Build 0)  -->
<svg version="1.1" id="Layer_1" xmlns="http://www.w3.org/2000/svg" xmlns:xlink="http://www.w3.org/1999/xlink" x="0px" y="0px"
	 viewBox="0 0 128 128" style="enable-background:new 0 0 128 128;" xml:space="preserve">
<style type="text/css">
	.st0{fill:#2D2D2D;}
	.st1{fill:#BC9D71;}
	.st2{fill:#AAAAAA;}
	.st3{fill:#9E9E9E;}
</style>
<g>
	<g>
		<path class="st0" d="M84.47,0.03c4.38,0,6.57,3.26,6.57,9.78c0,3.14-0.55,5.53-1.64,7.17c-1.1,1.63-2.7,2.45-4.82,2.45
			c-4.38,0-6.57-3.22-6.57-9.67c0-3.18,0.55-5.59,1.64-7.25C80.74,0.85,82.35,0.03,84.47,0.03z M84.49,2.61
			c-0.54,0-1.01,0.1-1.4,0.31c-0.4,0.21-0.71,0.52-0.96,0.94c-0.24,0.42-0.44,0.84-0.58,1.27c-0.14,0.42-0.25,0.96-0.31,1.6
			c-0.06,0.65-0.1,1.18-0.12,1.6c-0.02,0.42-0.03,0.96-0.03,1.6c0,2.42,0.27,4.18,0.82,5.28c0.55,1.1,1.42,1.64,2.63,1.64
			c0.47,0,0.88-0.09,1.25-0.28c0.37-0.19,0.67-0.42,0.9-0.69c0.23-0.27,0.43-0.63,0.59-1.08c0.16-0.45,0.28-0.86,0.36-1.23
			c0.08-0.37,0.14-0.83,0.19-1.37c0.04-0.55,0.07-0.97,0.08-1.27c0.01-0.3,0.01-0.68,0.01-1.14c0-0.61,0-1.08-0.01-1.41
			c-0.01-0.33-0.04-0.83-0.09-1.51c-0.05-0.67-0.16-1.22-0.31-1.63c-0.15-0.41-0.35-0.84-0.59-1.29c-0.24-0.45-0.57-0.79-0.98-1.01
			C85.53,2.73,85.05,2.61,84.49,2.61z"/>
		<path class="st0" d="M97.58,15.41v3.64h-3.66v-3.64H97.58z"/>
		<path class="st0" d="M112.99,16.33v2.72h-12.88c0.02-0.84,0.13-1.62,0.35-2.32c0.21-0.7,0.46-1.3,0.74-1.79
			c0.28-0.49,0.69-1,1.24-1.51c0.55-0.51,1.04-0.93,1.48-1.27c0.44-0.33,1.05-0.76,1.82-1.28c0.05-0.04,0.32-0.21,0.79-0.53
			c0.48-0.31,0.77-0.51,0.87-0.59c0.11-0.08,0.35-0.27,0.73-0.57c0.38-0.3,0.62-0.53,0.74-0.71c0.12-0.18,0.28-0.42,0.48-0.73
			c0.21-0.3,0.35-0.61,0.42-0.93c0.07-0.31,0.11-0.65,0.11-1.01c0-0.99-0.27-1.76-0.82-2.33c-0.55-0.57-1.29-0.85-2.22-0.85
			c-0.54,0-1.01,0.09-1.4,0.26c-0.39,0.17-0.7,0.39-0.93,0.66c-0.22,0.27-0.41,0.61-0.55,1.04c-0.14,0.42-0.24,0.82-0.28,1.2
			c-0.05,0.38-0.08,0.82-0.09,1.32h-2.99V6.63c0-2.03,0.57-3.64,1.71-4.84C103.45,0.6,104.99,0,106.93,0c1.83,0,3.3,0.52,4.42,1.55
			c1.11,1.03,1.67,2.4,1.67,4.11c0,0.68-0.11,1.33-0.32,1.94c-0.21,0.61-0.44,1.1-0.69,1.48c-0.24,0.38-0.66,0.82-1.25,1.32
			c-0.59,0.5-1.03,0.85-1.32,1.05c-0.29,0.2-0.82,0.56-1.59,1.08c-2.25,1.45-3.59,2.72-4.04,3.8H112.99z"/>
		<path class="st0" d="M127.97,16.33v2.72H115.1c0.02-0.84,0.13-1.62,0.35-2.32c0.21-0.7,0.46-1.3,0.74-1.79
			c0.28-0.49,0.69-1,1.24-1.51c0.55-0.51,1.04-0.93,1.48-1.27c0.44-0.33,1.05-0.76,1.82-1.28c0.05-0.04,0.32-0.21,0.79-0.53
			c0.48-0.31,0.77-0.51,0.87-0.59c0.11-0.08,0.35-0.27,0.73-0.57c0.38-0.3,0.62-0.53,0.74-0.71c0.12-0.18,0.28-0.42,0.48-0.73
			c0.21-0.3,0.35-0.61,0.42-0.93c0.07-0.31,0.11-0.65,0.11-1.01c0-0.99-0.27-1.76-0.82-2.33c-0.55-0.57-1.29-0.85-2.22-0.85
			c-0.54,0-1.01,0.09-1.4,0.26c-0.39,0.17-0.7,0.39-0.93,0.66c-0.22,0.27-0.41,0.61-0.55,1.04c-0.14,0.42-0.24,0.82-0.28,1.2
			c-0.05,0.38-0.08,0.82-0.09,1.32h-2.99V6.63c0-2.03,0.57-3.64,1.71-4.84C118.43,0.6,119.97,0,121.91,0c1.83,0,3.3,0.52,4.42,1.55
			S128,3.95,128,5.66c0,0.68-0.11,1.33-0.32,1.94c-0.21,0.61-0.44,1.1-0.69,1.48c-0.24,0.38-0.66,0.82-1.25,1.32
			c-0.59,0.5-1.03,0.85-1.32,1.05c-0.29,0.2-0.82,0.56-1.59,1.08c-2.25,1.45-3.59,2.72-4.04,3.8H127.97z"/>
	</g>
	<g>
		<path class="st1" d="M46.19,123.29c-1.48,0.03-2.95,0.04-4.43,0.03c-2.95,0-5.9-0.08-8.86-0.14c-2.79-0.05-5.58-0.18-8.36-0.33
			c-0.07,1.35-0.13,2.7-0.16,4.05c2.82,0.06,5.65,0.03,8.44-0.12c2.9-0.15,5.73-0.35,8.62-0.34c2.89,0,5.82,0.1,8.79,0.21
			c2.98,0.12,6.01,0.28,9.18,0.51l-0.21-2.5c-0.06-0.63-0.11-1.24-0.16-1.84c-2.81,0.17-5.61,0.3-8.42,0.38
			C49.15,123.24,47.67,123.27,46.19,123.29z"/>
		<path class="st1" d="M55.56,48.68c-2.18,0.06-4.32,0.07-6.48,0.06c-2.44-0.03-4.88-0.07-7.32-0.13c-2.44-0.05-4.88-0.11-7.31-0.19
			c-2.34-0.07-4.66-0.14-7.01-0.25c-0.03,6.06,0.05,12.12,0.23,18.18c0.15,6.16,0.34,12.32,0.32,18.48c0,6.16-0.06,12.32-0.17,18.48
			c-0.1,6.11,0.88,12.22,0.88,18.32c1.89-0.09,2.31-0.16,4.2-0.2c2.95-0.06,5.9-0.14,8.86-0.14c1.48-0.01,2.95,0,4.43,0.03
			c1.48,0.02,2.95,0.05,4.43,0.1c1.89,0.06,3.58,0.14,5.46,0.23c-0.14-3.04-0.03-6.07-0.14-9.11l-0.23-9.24
			c-0.12-6.16-0.21-12.32-0.29-18.48c-0.06-6.16-0.08-12.32-0.03-18.48C55.45,60.45,55.48,54.57,55.56,48.68z"/>
		<path class="st2" d="M34.68,25.77l7.21-0.23c2.4-0.09,11.41,0.02,13.51,0.4c-1.16-5.39-2.25-10.8-3.22-16.23L51.8,7.63l-0.19-1.04
			l-0.1-0.52l-0.1-0.45c-0.31-1.17-1-2.25-1.97-3.02c-0.97-0.78-2.19-1.2-3.46-1.24L41.77,1.2l-4.22-0.14
			c-1.33-0.06-2.67,0.35-3.76,1.15C32.71,3,31.9,4.17,31.56,5.47c-0.3,1.33-0.51,2.75-0.76,4.13c-0.89,5.5-1.55,10.66-2.69,16.12
			C30.39,25.76,32.46,25.87,34.68,25.77z"/>
		<path class="st3" d="M80.8,105.87c0.09,2.4,0.18,4.83,0.34,7.19c1.4-0.1,2.8-0.17,4.19-0.25c-0.26-2.3-0.41-4.6-0.52-6.9
			c-0.12-2.41-0.17-4.81-0.19-7.22c0.03-2.41,0.07-4.81,0.19-7.22c0.11-2.38-0.05-4.75,0.22-7.12c-1.55-0.09-2.79-0.17-4.34-0.3
			c-0.01,0-0.01-0.01-0.02-0.01c-0.27,2.39-0.41,4.81-0.44,7.23c-0.03,2.43,0.05,4.87,0.19,7.31C80.57,101,80.72,103.44,80.8,105.87
			z"/>
		<path class="st1" d="M62.68,112.63c1.94-0.12,3.88-0.21,5.82-0.28c1.94-0.06,3.88-0.13,5.82-0.15c1.6-0.04,3.2-0.03,4.8-0.02
			c-0.05-2.12-0.04-4.19-0.02-6.29c0.02-2.44,0.15-4.88,0.28-7.32c0.14-2.44,0.25-4.87,0.28-7.31c0.04-2.24-0.01-4.47-0.06-6.73
			c-1.77,0.11-3.54,0.22-5.32,0.26c-1.95,0.04-3.9,0-5.85-0.03c-1.95-0.05-3.9-0.12-5.85-0.23c-1.75-0.11-3.46,0.01-5.26,0.01
			c0,0.24-0.17,12.61-0.3,18.77c0,0-0.2,9.26-0.17,9.26C58.82,112.37,60.74,112.75,62.68,112.63z"/>
		<path class="st3" d="M34.68,42.2c2.4-0.08,4.81-0.09,7.21-0.09c2.4,0,4.81,0,7.21,0.09c2.28,0.07,4.55-0.04,6.83,0.18l-0.19-4.64
			c-0.15-3.76-0.22-7.52-0.29-11.28c-2.11,0.41-20.79,0.26-20.79,0.26c-2.23-0.13-4.45,0.36-6.67,0.21
			c-0.02,1.81-0.02,3.01-0.06,4.82c-0.04,1.89-0.07,3.79-0.13,5.68c-0.05,1.73-0.1,3.2-0.18,4.93
			C29.98,42.12,32.32,42.27,34.68,42.2z M52.72,34.04c0.1-0.23,0.23-0.47,0.5-0.7c0.26,0.23,0.39,0.47,0.5,0.7
			c0.09,0.23,0.14,0.47,0.14,0.7c0,0.23-0.04,0.47-0.14,0.7c-0.1,0.23-0.23,0.47-0.5,0.7c-0.27-0.23-0.4-0.47-0.5-0.7
			c-0.09-0.23-0.14-0.47-0.14-0.7C52.59,34.51,52.63,34.28,52.72,34.04z M48.03,34.04c0.1-0.23,0.23-0.47,0.5-0.7
			c0.26,0.23,0.39,0.47,0.5,0.7c0.09,0.23,0.14,0.47,0.14,0.7c0,0.23-0.04,0.47-0.14,0.7c-0.1,0.23-0.23,0.47-0.5,0.7
			c-0.27-0.23-0.4-0.47-0.5-0.7c-0.09-0.23-0.14-0.47-0.14-0.7C47.89,34.51,47.93,34.28,48.03,34.04z M43.33,34.04
			c0.1-0.23,0.23-0.47,0.5-0.7c0.26,0.23,0.39,0.47,0.5,0.7c0.09,0.23,0.14,0.47,0.14,0.7c0,0.23-0.04,0.47-0.14,0.7
			c-0.1,0.23-0.23,0.47-0.5,0.7c-0.27-0.23-0.4-0.47-0.5-0.7c-0.09-0.23-0.14-0.47-0.14-0.7C43.19,34.51,43.23,34.28,43.33,34.04z
			 M38.63,34.04c0.1-0.23,0.23-0.47,0.5-0.7c0.26,0.23,0.39,0.47,0.5,0.7c0.09,0.23,0.14,0.47,0.14,0.7c0,0.23-0.04,0.47-0.14,0.7
			c-0.1,0.23-0.23,0.47-0.5,0.7c-0.27-0.23-0.4-0.47-0.5-0.7c-0.09-0.23-0.14-0.47-0.14-0.7C38.49,34.51,38.54,34.28,38.63,34.04z
			 M33.93,34.04c0.1-0.23,0.23-0.47,0.5-0.7c0.26,0.23,0.39,0.47,0.5,0.7c0.09,0.23,0.14,0.47,0.14,0.7c0,0.23-0.04,0.47-0.14,0.7
			c-0.1,0.23-0.23,0.47-0.5,0.7c-0.27-0.23-0.4-0.47-0.5-0.7c-0.09-0.23-0.14-0.47-0.13-0.7C33.79,34.51,33.84,34.28,33.93,34.04z
			 M30.23,35.45c-0.1,0.23-0.23,0.47-0.5,0.7c-0.27-0.23-0.4-0.47-0.5-0.7c-0.09-0.23-0.14-0.47-0.14-0.7c0-0.23,0.04-0.47,0.14-0.7
			c0.1-0.23,0.23-0.47,0.5-0.7c0.26,0.23,0.39,0.47,0.5,0.7c0.09,0.23,0.14,0.47,0.14,0.7C30.36,34.98,30.32,35.22,30.23,35.45z"/>
		<path class="st1" d="M16.62,112.43c1.74,0.08,3.47,0.17,5.21,0.28c1.63,0.12,3.2-0.02,4.89-0.02c-0.11-3.25-0.19-6.13-0.24-9.38
			c-0.11-6.16-0.17-12.32-0.17-18.48c0-0.25,0-0.49,0-0.74c-1.55,0.13-3.11,0.23-4.66,0.34c-1.71,0.11-3.43,0.21-5.14,0.28
			c-1.72,0.08-3.43,0.33-5.15,0.19c-1.66-0.12-3.32,0.29-4.98-0.2c0.09,1.87,0.16,3.13,0.19,5.01c0.06,2.95,0.14,5.9,0.14,8.86
			c0.01,1.48,0,2.95-0.03,4.43c-0.02,1.48-0.05,2.95-0.1,4.43c-0.06,1.88-0.14,3.16-0.23,5.03c1.79,0,3.38-0.1,5.07-0.23
			C13.15,112.1,14.88,112.34,16.62,112.43z"/>
		<path class="st3" d="M41.77,47.57c2.43-0.06,4.87-0.12,7.3-0.21c2.36-0.08,4.75-0.15,7.08-0.3c-0.06-1.17-0.12-2.33-0.18-3.5
			l-0.03-0.54c-2.27,0-4.55,0.05-6.83,0.16c-2.41,0.12-4.81,0.17-7.22,0.19c-2.41-0.03-4.81-0.07-7.22-0.19
			c-2.36-0.11-4.72-0.13-7.07-0.39c-0.01,0.15-0.01,0.17-0.01,0.32c-0.09,1.49-0.16,2.98-0.26,4.46c2.37,0.1,4.76,0.11,7.14,0.1
			C36.9,47.65,39.33,47.62,41.77,47.57z"/>
		<path class="st1" d="M0.85,116.22l2.5-0.21c0.63-0.06,1.24-0.11,1.84-0.16c-0.17-2.81-0.3-5.61-0.38-8.42
			c-0.05-1.48-0.08-2.95-0.1-4.43c-0.03-1.48-0.04-2.95-0.03-4.43c0-2.95,0.08-5.9,0.14-8.86c0.05-2.79,0.18-5.58,0.33-8.36
			c-1.35-0.07-2.7-0.13-4.05-0.16c-0.06,2.82-0.03,5.65,0.12,8.44c0.15,2.9,0.35,5.73,0.34,8.62c0,2.89-0.1,5.82-0.21,8.79
			C1.23,110.02,1.08,113.04,0.85,116.22z"/>
		<path class="st2" d="M102.46,98.69c0.09,2.4,0.36,4.8,0.24,7.21c-0.1,2.1-0.26,4.2-0.64,6.3c5.39-1.16,10.8-2.25,16.23-3.22
			l2.07-0.38l1.04-0.19l0.52-0.1l0.45-0.1c1.17-0.31,2.25-1,3.02-1.97c0.78-0.97,1.2-2.19,1.24-3.46l0.16-4.22l0.14-4.22
			c0.06-1.33-0.35-2.67-1.15-3.76c-0.79-1.08-1.95-1.89-3.25-2.23c-1.33-0.3-2.75-0.51-4.13-0.76c-5.5-0.89-11.03-1.64-16.48-2.79
			c0.12,2.22,0.2,4.44,0.3,6.66L102.46,98.69z"/>
		<path class="st3" d="M85.39,112.81c0.21-0.01,0.41-0.02,0.62-0.03l5.31-0.22c3.41-0.14,6.82-0.22,10.23-0.29
			c-0.41-2.11-0.61-4.23-0.74-6.35c-0.16-2.41,0.07-4.82,0.14-7.22l0.34-7.22c0.13-2.23,0.25-4.45,0.4-6.67
			c-1.68-0.02-3.37-0.02-5.05-0.06c-1.77-0.04-3.54-0.07-5.31-0.13c-1.77-0.05-3.54-0.13-5.31-0.22c-0.21-0.01-0.28-0.02-0.5-0.04
			c0.24,2.38,0.22,4.76,0.29,7.13c0.08,2.4,0.09,4.81,0.09,7.21c0,2.4,0,4.81-0.09,7.21C85.73,108.2,85.62,110.5,85.39,112.81z
			 M92.55,86.03c0.23-0.09,0.47-0.14,0.7-0.14c0.23,0,0.47,0.04,0.7,0.14c0.23,0.1,0.47,0.23,0.7,0.5c-0.23,0.26-0.47,0.39-0.7,0.5
			c-0.23,0.09-0.47,0.14-0.7,0.14c-0.23,0-0.47-0.04-0.7-0.14c-0.23-0.1-0.47-0.23-0.7-0.5C92.08,86.27,92.31,86.13,92.55,86.03z
			 M92.55,90.73c0.23-0.09,0.47-0.14,0.7-0.14c0.23,0,0.47,0.04,0.7,0.14c0.23,0.1,0.47,0.23,0.7,0.5c-0.23,0.26-0.47,0.39-0.7,0.5
			c-0.23,0.09-0.47,0.14-0.7,0.14c-0.23,0-0.47-0.04-0.7-0.14c-0.23-0.1-0.47-0.23-0.7-0.5C92.08,90.97,92.31,90.83,92.55,90.73z
			 M92.55,95.43c0.23-0.09,0.47-0.14,0.7-0.14c0.23,0,0.47,0.04,0.7,0.14c0.23,0.1,0.47,0.23,0.7,0.5c-0.23,0.26-0.47,0.39-0.7,0.5
			c-0.23,0.09-0.47,0.14-0.7,0.14c-0.23,0-0.47-0.04-0.7-0.14c-0.23-0.1-0.47-0.23-0.7-0.5C92.08,95.66,92.31,95.53,92.55,95.43z
			 M92.55,100.13c0.23-0.09,0.47-0.14,0.7-0.14c0.23,0,0.47,0.04,0.7,0.14c0.23,0.1,0.47,0.23,0.7,0.5c-0.23,0.26-0.47,0.39-0.7,0.5
			c-0.23,0.09-0.47,0.14-0.7,0.14c-0.23,0-0.47-0.04-0.7-0.14c-0.23-0.1-0.47-0.23-0.7-0.5C92.08,100.36,92.31,100.23,92.55,100.13z
			 M92.55,104.83c0.23-0.09,0.47-0.14,0.7-0.14c0.23,0,0.47,0.04,0.7,0.14c0.23,0.1,0.47,0.23,0.7,0.5c-0.23,0.26-0.47,0.39-0.7,0.5
			c-0.23,0.09-0.47,0.14-0.7,0.14c-0.23,0-0.47-0.04-0.7-0.14c-0.23-0.1-0.47-0.23-0.7-0.5C92.08,105.06,92.31,104.93,92.55,104.83z
			 M92.55,109.53c0.23-0.09,0.47-0.14,0.7-0.14c0.23,0,0.47,0.04,0.7,0.14c0.23,0.1,0.47,0.23,0.7,0.5c-0.23,0.26-0.47,0.39-0.7,0.5
			c-0.23,0.09-0.47,0.14-0.7,0.14c-0.23,0-0.47-0.04-0.7-0.14c-0.23-0.1-0.47-0.23-0.7-0.5C92.08,109.76,92.31,109.63,92.55,109.53z
			"/>
		<path class="st0" d="M0.71,116.35l2.41,0.21c0.83,0.07,1.7,0.15,2.57,0.2l0.45,0.02l0.03-0.5c0.06-0.99,0.11-1.29,0.16-2.28
			c1.84,0,8.55,0.02,10.29-0.06c1.74-0.08,3.47-0.17,5.21-0.28c1.63-0.12,3.26-0.04,4.9-0.04c0.09,2.78,0.2,5.25,0.33,8.03
			c-1,0.05-2,0.09-3,0.15l-0.54,0.03l0.02,0.49c0.08,1.64,0.16,3.27,0.19,4.91l0.01,0.33l0.32-0.01c2.97-0.07,5.93-0.04,8.94,0.11
			c3.01,0.15,6.08,0.35,9.1,0.34c3.02,0,5.99-0.1,8.92-0.21c2.92-0.12,5.8-0.28,8.53-0.51l0.21-2.41c0.07-0.83,0.15-1.7,0.2-2.57
			l0.02-0.45l-0.5-0.03c-1-0.06-1.63-0.11-2.63-0.16c0-3.02-0.16-5.46-0.06-8.28c0.01,0.03,3.96,0.23,5.9,0.35
			c1.94,0.12,3.88,0.21,5.82,0.28c1.94,0.06,3.88,0.13,5.82,0.15c1.94,0.05,24.07-0.13,27.61-0.05l0.07,0l0.11-0.02
			c5.53-1,11.05-2.07,16.55-3.27l2.06-0.44l1.03-0.22l0.52-0.11l0.58-0.15c1.54-0.44,2.9-1.43,3.81-2.71
			c0.92-1.28,1.4-2.87,1.33-4.41l-0.16-4.22l-0.14-4.22c-0.03-1.48-0.53-2.95-1.43-4.12c-0.89-1.17-2.16-2.04-3.57-2.45l-4.14-0.92
			c-5.48-1.29-10.93-2.71-16.46-3.74L102,83.11l-0.07,0c-1.77,0.02-3.54,0.02-5.31,0.06c-1.77,0.04-3.54,0.07-5.31,0.13
			c-1.77,0.05-3.54,0.13-5.31,0.22c-1.77,0.11-5.87-0.11-5.87-0.11c-1.95-0.12-3.9-0.25-5.85-0.29c-1.95-0.04-3.9,0-5.85,0.03
			c-1.95,0.05-3.9,0.12-5.85,0.23c-1.75,0.11-3.44-0.04-5.26-0.04c0.05-5.82,0.07-11.18,0.02-17c-0.06-6.16-0.09-12.32-0.18-18.48
			L57.17,47l-0.16-9.26c0.15-3.89,0.23-7.78,0.3-11.66l0-0.07l-0.02-0.11c-1-5.53-2.07-11.05-3.27-16.55l-0.44-2.06l-0.22-1.03
			l-0.11-0.52l-0.15-0.58c-0.44-1.54-1.43-2.9-2.71-3.81c-1.28-0.92-2.87-1.4-4.41-1.33l-4.22,0.16L37.55,0.3
			c-1.48,0.03-2.95,0.53-4.12,1.43c-1.17,0.89-2.04,2.16-2.45,3.57l-0.92,4.14c-1.29,5.48-2.71,10.93-3.74,16.46l-0.02,0.09l0,0.07
			c0.02,1.89,0.02,3.79,0.06,5.68c0.04,1.89,0.07,3.79,0.13,5.68c0.05,1.89,0.13,3.79,0.22,5.68c0.09,1.48,0.14,4.75,0.14,4.75
			c0.04,6.16-0.05,12.32-0.23,18.48c-0.14,5.83-0.31,11.25-0.32,17.08c-1.55-0.13-8.09-0.15-9.81-0.22
			c-1.72-0.08-8.38,0.03-10.14,0.03c-0.05-0.99-0.09-1.38-0.14-2.37l-0.03-0.54l-0.49,0.02c-1.64,0.08-3.27,0.16-4.91,0.19
			l-0.33,0.01l0.01,0.32c0.07,2.97,0.04,5.93-0.11,8.94C0.19,92.8-0.01,95.88,0,98.89c0,3.02,0.1,5.99,0.21,8.92
			C0.33,110.74,0.48,113.62,0.71,116.35z M118.41,87.6c1.37,0.25,2.8,0.45,4.13,0.76c1.3,0.34,2.46,1.15,3.25,2.23
			c0.79,1.08,1.2,2.42,1.15,3.76l-0.14,4.22l-0.16,4.22c-0.05,1.28-0.47,2.49-1.24,3.46c-0.77,0.97-1.85,1.66-3.02,1.97l-0.45,0.1
			l-0.52,0.1l-1.04,0.19l-2.07,0.38c-5.43,0.96-10.84,2.05-16.23,3.22c0.37-2.11,0.54-4.21,0.64-6.3c0.12-2.4-0.15-4.8-0.24-7.21
			l-0.23-7.21c-0.1-2.22-0.18-4.44-0.3-6.66C107.38,85.96,112.91,86.72,118.41,87.6z M85.8,91.48c-0.07-2.38-0.05-4.75-0.29-7.13
			c0.21,0.01,0.28,0.02,0.5,0.04c1.77,0.09,3.54,0.16,5.31,0.22c1.77,0.07,3.54,0.1,5.31,0.13c1.68,0.04,3.37,0.04,5.05,0.06
			c-0.15,2.22-0.26,4.45-0.4,6.67l-0.34,7.22c-0.07,2.41-0.29,4.82-0.14,7.22c0.13,2.12,0.33,4.24,0.74,6.35
			c-3.41,0.07-6.82,0.15-10.23,0.29l-5.31,0.22c-0.21,0.01-0.41,0.02-0.62,0.03c0.22-2.3,0.34-4.61,0.41-6.91
			c0.08-2.4,0.09-4.81,0.09-7.21C85.9,96.29,85.89,93.89,85.8,91.48z M80.68,84.04c0.01,0,0.01,0.01,0.02,0.01
			c1.55,0.13,2.79,0.21,4.34,0.3c-0.27,2.37-0.11,4.75-0.22,7.12c-0.12,2.41-0.16,4.81-0.19,7.22c0.02,2.41,0.07,4.81,0.19,7.22
			c0.11,2.3,0.26,4.6,0.52,6.9c-1.4,0.08-2.8,0.15-4.19,0.25c-0.15-2.36-0.25-4.79-0.34-7.19c-0.08-2.43-0.23-4.86-0.37-7.3
			c-0.14-2.43-0.22-4.87-0.19-7.31C80.27,88.85,80.41,86.43,80.68,84.04z M57.05,103.31c0.12-6.16,0.29-18.53,0.3-18.77
			c1.8,0,3.5-0.12,5.26-0.01c1.95,0.11,3.9,0.18,5.85,0.23c1.95,0.03,3.9,0.07,5.85,0.03c1.77-0.04,3.54-0.15,5.32-0.26
			c0.05,2.26,0.1,4.49,0.06,6.73c-0.03,2.44-0.14,4.87-0.28,7.31c-0.13,2.44-0.27,4.88-0.28,7.32c-0.02,2.1-0.03,4.18,0.02,6.29
			c-1.6-0.01-3.2-0.02-4.8,0.02c-1.94,0.02-3.88,0.09-5.82,0.15c-1.94,0.08-3.88,0.17-5.82,0.28c-1.94,0.12-3.86-0.25-5.8-0.06
			C56.85,112.57,57.05,103.31,57.05,103.31z M59.04,122.81c0.05,0.6,0.1,1.21,0.16,1.84l0.21,2.5c-3.17-0.23-6.2-0.38-9.18-0.51
			c-2.97-0.11-5.9-0.2-8.79-0.21c-2.89-0.01-5.72,0.19-8.62,0.34c-2.78,0.15-5.62,0.18-8.44,0.12c0.03-1.35,0.09-2.7,0.16-4.05
			c2.79,0.15,5.58,0.28,8.36,0.33c2.95,0.06,5.9,0.14,8.86,0.14c1.48,0.01,2.95,0,4.43-0.03c1.48-0.02,2.95-0.05,4.43-0.1
			C53.43,123.11,56.24,122.98,59.04,122.81z M55.42,84.82c0.08,6.16,0.17,12.32,0.29,18.48l0.23,9.24c0.11,3.04,0,6.07,0.14,9.11
			c-1.89-0.09-3.58-0.17-5.46-0.23c-1.48-0.05-2.95-0.08-4.43-0.1c-1.48-0.03-2.95-0.04-4.43-0.03c-2.95,0-5.9,0.08-8.86,0.14
			c-1.89,0.03-2.31,0.11-4.2,0.2c0-6.11-0.98-12.22-0.88-18.32C27.94,97.15,28,90.99,28,84.82c0.02-6.16-0.18-12.32-0.32-18.48
			c-0.18-6.06-0.26-12.12-0.23-18.18c2.34,0.11,4.67,0.18,7.01,0.25c2.44,0.08,4.88,0.14,7.31,0.19c2.44,0.06,4.88,0.1,7.32,0.13
			c2.16,0.01,4.31,0,6.48-0.06c-0.08,5.89-0.11,11.77-0.17,17.66C55.34,72.5,55.37,78.66,55.42,84.82z M30.8,9.59
			c0.25-1.37,0.45-2.8,0.76-4.13c0.34-1.3,1.15-2.46,2.23-3.25c1.08-0.79,2.42-1.2,3.76-1.15l4.22,0.14l4.22,0.16
			c1.28,0.05,2.49,0.47,3.46,1.24c0.97,0.77,1.66,1.85,1.97,3.02l0.1,0.45l0.1,0.52l0.19,1.04l0.38,2.07
			c0.96,5.43,2.05,10.84,3.22,16.23c-2.11-0.37-11.11-0.49-13.51-0.4l-7.21,0.23c-2.22,0.1-4.29-0.01-6.57-0.06
			C29.25,20.26,29.91,15.09,30.8,9.59z M27.8,37.42c0.07-1.89,0.1-3.79,0.13-5.68c0.04-1.81,0.04-3.01,0.06-4.82
			c2.22,0.15,4.45-0.34,6.67-0.21c0,0,18.68,0.15,20.79-0.26c0.07,3.76,0.15,7.52,0.29,11.28l0.19,4.64
			c-2.28-0.22-4.56-0.11-6.83-0.18c-2.4-0.08-4.81-0.09-7.21-0.09c-2.4,0-4.81,0-7.21,0.09c-2.36,0.07-4.7-0.07-7.06,0.16
			C27.7,40.63,27.75,39.16,27.8,37.42z M27.58,43.1c0.01-0.15,0.01-0.17,0.01-0.32c2.35,0.27,4.72,0.29,7.07,0.39
			c2.41,0.12,4.81,0.16,7.22,0.19c2.41-0.02,4.81-0.07,7.22-0.19c2.28-0.1,4.56-0.16,6.83-0.16l0.03,0.54
			c0.06,1.17,0.12,2.33,0.18,3.5c-2.33,0.15-4.72,0.22-7.08,0.3c-2.43,0.09-4.87,0.15-7.3,0.21c-2.43,0.05-4.87,0.08-7.3,0.1
			c-2.38,0-4.77,0-7.14-0.1C27.42,46.08,27.49,44.59,27.58,43.1z M6.57,107.43c0.05-1.48,0.08-2.95,0.1-4.43
			c0.03-1.48,0.04-2.95,0.03-4.43c0-2.95-0.08-5.9-0.14-8.86c-0.03-1.87-0.11-3.13-0.19-5.01c1.66,0.49,3.32,0.08,4.98,0.2
			c1.72,0.14,3.43-0.11,5.15-0.19c1.71-0.08,3.43-0.17,5.14-0.28c1.55-0.12,3.11-0.21,4.66-0.34c0,0.25,0,0.49,0,0.74
			c0,6.16,0.06,12.32,0.17,18.48c0.05,3.25,0.13,6.13,0.24,9.38c-1.69,0-3.26,0.14-4.89,0.02c-1.74-0.11-3.47-0.21-5.21-0.28
			c-1.74-0.08-3.47-0.33-5.21-0.19c-1.69,0.12-3.28,0.23-5.07,0.23C6.44,110.59,6.52,109.3,6.57,107.43z M1.22,89.63
			c-0.15-2.78-0.18-5.62-0.12-8.44c1.35,0.03,2.7,0.09,4.05,0.16C5,84.14,4.87,86.92,4.82,89.71c-0.06,2.95-0.14,5.9-0.14,8.86
			c-0.01,1.48,0,2.95,0.03,4.43c0.02,1.48,0.05,2.95,0.1,4.43c0.08,2.81,0.21,5.61,0.38,8.42c-0.6,0.05-1.21,0.1-1.84,0.16
			l-2.5,0.21c0.23-3.17,0.38-6.2,0.51-9.18c0.11-2.97,0.2-5.9,0.21-8.79C1.57,95.36,1.38,92.53,1.22,89.63z"/>
		<path class="st0" d="M93.25,87.16c0.23,0,0.47-0.04,0.7-0.14c0.23-0.1,0.47-0.23,0.7-0.5c-0.23-0.26-0.47-0.39-0.7-0.5
			c-0.23-0.09-0.47-0.14-0.7-0.14c-0.23,0-0.47,0.04-0.7,0.14c-0.23,0.1-0.47,0.23-0.7,0.5c0.23,0.27,0.47,0.4,0.7,0.5
			C92.78,87.12,93.02,87.17,93.25,87.16z"/>
		<path class="st0" d="M93.25,91.86c0.23,0,0.47-0.04,0.7-0.14c0.23-0.1,0.47-0.23,0.7-0.5c-0.23-0.26-0.47-0.39-0.7-0.5
			c-0.23-0.09-0.47-0.14-0.7-0.14c-0.23,0-0.47,0.04-0.7,0.14c-0.23,0.1-0.47,0.23-0.7,0.5c0.23,0.27,0.47,0.4,0.7,0.5
			C92.78,91.82,93.02,91.86,93.25,91.86z"/>
		<path class="st0" d="M93.25,96.56c0.23,0,0.47-0.04,0.7-0.14c0.23-0.1,0.47-0.23,0.7-0.5c-0.23-0.26-0.47-0.39-0.7-0.5
			c-0.23-0.09-0.47-0.14-0.7-0.14c-0.23,0-0.47,0.04-0.7,0.14c-0.23,0.1-0.47,0.23-0.7,0.5c0.23,0.27,0.47,0.4,0.7,0.5
			C92.78,96.52,93.02,96.56,93.25,96.56z"/>
		<path class="st0" d="M93.25,101.26c0.23,0,0.47-0.04,0.7-0.14c0.23-0.1,0.47-0.23,0.7-0.5c-0.23-0.26-0.47-0.39-0.7-0.5
			c-0.23-0.09-0.47-0.14-0.7-0.14c-0.23,0-0.47,0.04-0.7,0.14c-0.23,0.1-0.47,0.23-0.7,0.5c0.23,0.27,0.47,0.4,0.7,0.5
			C92.78,101.22,93.02,101.26,93.25,101.26z"/>
		<path class="st0" d="M93.25,105.96c0.23,0,0.47-0.04,0.7-0.14c0.23-0.1,0.47-0.23,0.7-0.5c-0.23-0.26-0.47-0.39-0.7-0.5
			c-0.23-0.09-0.47-0.14-0.7-0.14c-0.23,0-0.47,0.04-0.7,0.14c-0.23,0.1-0.47,0.23-0.7,0.5c0.23,0.27,0.47,0.4,0.7,0.5
			C92.78,105.92,93.02,105.96,93.25,105.96z"/>
		<path class="st0" d="M93.25,110.66c0.23,0,0.47-0.04,0.7-0.14c0.23-0.1,0.47-0.23,0.7-0.5c-0.23-0.26-0.47-0.39-0.7-0.5
			c-0.23-0.09-0.47-0.14-0.7-0.14c-0.23,0-0.47,0.04-0.7,0.14c-0.23,0.1-0.47,0.23-0.7,0.5c0.23,0.27,0.47,0.4,0.7,0.5
			C92.78,110.61,93.02,110.66,93.25,110.66z"/>
		<path class="st0" d="M29.73,33.34c-0.26,0.23-0.39,0.47-0.5,0.7c-0.09,0.23-0.14,0.47-0.14,0.7c0,0.23,0.04,0.47,0.14,0.7
			c0.1,0.23,0.23,0.47,0.5,0.7c0.27-0.23,0.4-0.47,0.5-0.7c0.09-0.23,0.14-0.47,0.14-0.7c0-0.23-0.04-0.47-0.14-0.7
			C30.12,33.81,29.99,33.58,29.73,33.34z"/>
		<path class="st0" d="M34.43,36.16c0.27-0.23,0.4-0.47,0.5-0.7c0.09-0.23,0.14-0.47,0.14-0.7c0-0.23-0.04-0.47-0.14-0.7
			c-0.1-0.23-0.23-0.47-0.5-0.7c-0.26,0.23-0.39,0.47-0.5,0.7c-0.09,0.23-0.14,0.47-0.14,0.7c0,0.23,0.04,0.47,0.13,0.7
			C34.03,35.69,34.16,35.92,34.43,36.16z"/>
		<path class="st0" d="M39.12,36.16c0.27-0.23,0.4-0.47,0.5-0.7c0.09-0.23,0.14-0.47,0.14-0.7c0-0.23-0.04-0.47-0.14-0.7
			c-0.1-0.23-0.23-0.47-0.5-0.7c-0.26,0.23-0.39,0.47-0.5,0.7c-0.09,0.23-0.14,0.47-0.14,0.7c0,0.23,0.04,0.47,0.14,0.7
			C38.73,35.69,38.86,35.92,39.12,36.16z"/>
		<path class="st0" d="M43.82,36.16c0.27-0.23,0.4-0.47,0.5-0.7c0.09-0.23,0.14-0.47,0.14-0.7c0-0.23-0.04-0.47-0.14-0.7
			c-0.1-0.23-0.23-0.47-0.5-0.7c-0.26,0.23-0.39,0.47-0.5,0.7c-0.09,0.23-0.14,0.47-0.14,0.7c0,0.23,0.04,0.47,0.14,0.7
			C43.43,35.69,43.56,35.92,43.82,36.16z"/>
		<path class="st0" d="M48.52,36.16c0.27-0.23,0.4-0.47,0.5-0.7c0.09-0.23,0.14-0.47,0.14-0.7c0-0.23-0.04-0.47-0.14-0.7
			c-0.1-0.23-0.23-0.47-0.5-0.7c-0.26,0.23-0.39,0.47-0.5,0.7c-0.09,0.23-0.14,0.47-0.14,0.7c0,0.23,0.04,0.47,0.14,0.7
			C48.12,35.69,48.26,35.92,48.52,36.16z"/>
		<path class="st0" d="M53.22,36.16c0.27-0.23,0.4-0.47,0.5-0.7c0.09-0.23,0.14-0.47,0.14-0.7c0-0.23-0.04-0.47-0.14-0.7
			c-0.1-0.23-0.23-0.47-0.5-0.7c-0.26,0.23-0.39,0.47-0.5,0.7c-0.09,0.23-0.14,0.47-0.14,0.7c0,0.23,0.04,0.47,0.14,0.7
			C52.82,35.69,52.96,35.92,53.22,36.16z"/>
	</g>
</g>
</svg>
