<?xml version="1.0" encoding="utf-8"?>
<!-- Generator: Adobe Illustrator 24.1.2, SVG Export Plug-In . SVG Version: 6.00 Build 0)  -->
<svg version="1.1" id="Layer_1" xmlns="http://www.w3.org/2000/svg" xmlns:xlink="http://www.w3.org/1999/xlink" x="0px" y="0px"
	 viewBox="0 0 128 128" style="enable-background:new 0 0 128 128;" xml:space="preserve">
<style type="text/css">
	.st0{fill:#2D2D2D;}
	.st1{fill:#AD8C5C;}
	.st2{fill:#BF9B6B;}
	.st3{fill:#BC8B7E;}
	.st4{fill:#6B89B5;}
	.st5{fill:#EDBF7E;}
</style>
<g>
	<g>
		<path class="st0" d="M64.27,6.12c0.05-1.89,0.61-3.38,1.68-4.47c1.07-1.09,2.51-1.63,4.31-1.63c1.7,0,3.07,0.46,4.13,1.37
			c1.05,0.91,1.58,2.1,1.58,3.57c0,0.89-0.23,1.68-0.7,2.35c-0.46,0.67-1.09,1.14-1.88,1.41c1.03,0.26,1.85,0.78,2.44,1.54
			c0.6,0.76,0.89,1.69,0.89,2.8c0,1.75-0.6,3.18-1.81,4.28c-1.21,1.1-2.78,1.66-4.7,1.66c-1.91,0-3.45-0.55-4.63-1.66
			c-1.17-1.1-1.76-2.57-1.76-4.39v-0.39h2.89c0.09,2.58,1.28,3.86,3.57,3.86c1.02,0,1.82-0.29,2.42-0.88
			c0.6-0.59,0.89-1.39,0.89-2.4c0-1.07-0.34-1.85-1.03-2.34c-0.68-0.49-1.57-0.74-2.65-0.74c-0.33,0-0.65,0.01-0.95,0.03V7.83h0.26
			c0.54,0,1.01-0.03,1.39-0.09c0.38-0.06,0.78-0.18,1.17-0.34c0.39-0.17,0.7-0.44,0.91-0.81c0.21-0.38,0.32-0.84,0.32-1.41
			c0-0.81-0.25-1.45-0.76-1.94S71.07,2.5,70.21,2.5c-1.96,0-2.99,1.21-3.08,3.63H64.27z"/>
		<path class="st0" d="M84.98,0.05c4.27,0,6.41,3.18,6.41,9.54c0,3.07-0.53,5.4-1.6,6.99c-1.07,1.59-2.64,2.39-4.7,2.39
			c-4.28,0-6.41-3.14-6.41-9.43c0-3.1,0.53-5.46,1.6-7.07C81.34,0.86,82.91,0.05,84.98,0.05z M85.01,2.57c-0.53,0-0.98,0.1-1.37,0.3
			c-0.39,0.2-0.7,0.51-0.93,0.92c-0.24,0.41-0.42,0.82-0.56,1.24C82,5.44,81.9,5.97,81.84,6.6c-0.06,0.63-0.1,1.15-0.12,1.56
			c-0.02,0.41-0.03,0.93-0.03,1.56c0,2.37,0.27,4.08,0.8,5.15c0.53,1.07,1.39,1.6,2.56,1.6c0.46,0,0.86-0.09,1.22-0.28
			c0.36-0.18,0.65-0.41,0.88-0.67c0.23-0.26,0.42-0.61,0.58-1.05c0.16-0.44,0.28-0.84,0.36-1.2c0.08-0.36,0.14-0.81,0.18-1.34
			c0.04-0.53,0.07-0.95,0.08-1.24c0.01-0.29,0.01-0.66,0.01-1.12c0-0.6,0-1.06-0.01-1.38c-0.01-0.32-0.04-0.81-0.09-1.47
			c-0.05-0.66-0.15-1.19-0.3-1.59c-0.15-0.4-0.34-0.82-0.58-1.26c-0.24-0.44-0.56-0.77-0.96-0.98C86.02,2.69,85.55,2.57,85.01,2.57z
			"/>
		<path class="st0" d="M97.78,15.06v3.55H94.2v-3.55H97.78z"/>
		<path class="st0" d="M106.9,0.05c4.27,0,6.41,3.18,6.41,9.54c0,3.07-0.53,5.4-1.6,6.99c-1.07,1.59-2.64,2.39-4.7,2.39
			c-4.28,0-6.41-3.14-6.41-9.43c0-3.1,0.53-5.46,1.6-7.07C103.26,0.86,104.83,0.05,106.9,0.05z M106.92,2.57
			c-0.53,0-0.98,0.1-1.37,0.3c-0.39,0.2-0.7,0.51-0.93,0.92c-0.24,0.41-0.42,0.82-0.56,1.24c-0.14,0.41-0.24,0.93-0.3,1.56
			c-0.06,0.63-0.1,1.15-0.12,1.56c-0.02,0.41-0.03,0.93-0.03,1.56c0,2.37,0.27,4.08,0.8,5.15c0.53,1.07,1.39,1.6,2.56,1.6
			c0.46,0,0.86-0.09,1.22-0.28s0.65-0.41,0.88-0.67c0.23-0.26,0.42-0.61,0.58-1.05c0.16-0.44,0.28-0.84,0.36-1.2
			c0.08-0.36,0.14-0.81,0.18-1.34c0.04-0.53,0.07-0.95,0.08-1.24c0.01-0.29,0.01-0.66,0.01-1.12c0-0.6,0-1.06-0.01-1.38
			c-0.01-0.32-0.04-0.81-0.09-1.47c-0.05-0.66-0.15-1.19-0.3-1.59s-0.34-0.82-0.58-1.26c-0.24-0.44-0.56-0.77-0.96-0.98
			C107.94,2.69,107.47,2.57,106.92,2.57z"/>
		<path class="st0" d="M127.58,4.89h-2.89c-0.32-1.68-1.24-2.52-2.79-2.52c-0.44,0-0.84,0.09-1.21,0.26
			c-0.37,0.18-0.67,0.38-0.92,0.6c-0.25,0.23-0.46,0.56-0.66,0.98c-0.19,0.43-0.34,0.79-0.43,1.08c-0.1,0.29-0.19,0.71-0.29,1.25
			c-0.1,0.54-0.15,0.92-0.17,1.13c-0.02,0.21-0.05,0.56-0.1,1.05c1.02-1.51,2.42-2.26,4.2-2.26c1.7,0,3.07,0.56,4.11,1.68
			c1.04,1.12,1.56,2.58,1.56,4.39c0,1.87-0.58,3.42-1.75,4.62c-1.17,1.21-2.65,1.81-4.45,1.81c-2.12,0-3.75-0.8-4.89-2.39
			c-1.14-1.59-1.71-3.87-1.71-6.83c0-3.07,0.6-5.46,1.81-7.18C118.22,0.86,119.9,0,122.03,0c1.56,0,2.83,0.43,3.81,1.29
			C126.83,2.15,127.4,3.35,127.58,4.89z M121.72,8.86c-0.98,0-1.76,0.34-2.34,1.01c-0.58,0.67-0.87,1.57-0.87,2.69
			c0,1.17,0.3,2.12,0.91,2.84c0.6,0.72,1.4,1.08,2.38,1.08c0.96,0,1.74-0.35,2.33-1.05c0.59-0.7,0.88-1.63,0.88-2.79
			c0-1.14-0.3-2.05-0.89-2.75C123.52,9.2,122.72,8.86,121.72,8.86z"/>
	</g>
	<g>
		<path class="st1" d="M40.48,36.11c0.12-2.09,0.31-3.83,0.39-5.92c-1.16-0.03-2.27-0.39-3.42-0.35c-1.27,0.03-2.54,0.12-3.81,0.2
			c-1.27,0.09-2.54,0.19-3.81,0.25c-0.96,0.05-1.92,0.08-2.88,0.11l0.06,2.41c0.03,1.1,0.01,2.2,0.02,3.3l-0.07,3.3
			c-0.05,1.03-0.08,2.05-0.13,3.08c0.92-0.09,1.84-0.17,2.77-0.26c1.33-0.11,9.9-0.25,10.86,0.01c-0.03-0.94-0.04-1.89-0.06-2.83
			l0.01-1.65L40.48,36.11z"/>
		<path class="st1" d="M23.52,83.75l0.26,11.12c0.11,7.41,0.07,14.82-0.19,22.23l-0.02,0.56l1.16,0.04l2.77,0.09l5.54,0.17
			c3.69,0.12,7-0.23,10.69-0.22c0.03,0,0.05-0.01,0.07-0.04c0.02-0.02,0.01-0.04,0.01-0.11l0-0.35l0-0.69l-0.01-1.39l0.03-2.44
			c-0.04-1.85-0.16-16.64-0.16-16.64c-0.29-7.41-0.35-14.82-0.39-22.23c-0.03-7.41,0.05-14.82,0.12-22.23l0-0.35l-0.16,0l-0.69-0.01
			l-2.77-0.03l-5.54-0.08c-1.85-0.02-3.69-0.06-5.54-0.11l-2.77-0.06l-1.38-0.03l-0.69-0.02l-0.35-0.01c-0.01,0-0.01,0-0.02,0
			l-0.09,5.06c-0.04,1.85-0.07,3.71-0.09,5.56c-0.04,3.71-0.04,7.41-0.01,11.12C23.33,76.34,23.42,80.04,23.52,83.75z"/>
		<path class="st2" d="M23.86,49.83l0.69-0.02l1.38-0.03l2.77-0.06c1.85-0.05,3.69-0.08,5.54-0.11l5.54-0.08l2.77-0.03l0.69-0.01
			l0.35,0c0.04,0,0.07,0,0.11,0c-0.5-0.91-0.98-1.82-1.43-2.75c-0.31-0.62-0.59-1.25-0.89-1.87c-0.27-0.58-0.52-1.16-0.78-1.74
			c-1,0.29-9.66,0.16-10.99,0.05C28.67,43.09,26.77,43,26.77,43c-0.57,1.25-1.16,2.5-1.77,3.73c-0.52,1.05-1.06,2.09-1.62,3.12
			c0.06-0.01,0.12-0.01,0.13-0.01L23.86,49.83z"/>
		<path class="st3" d="M33.55,22.19c1.17-0.08,5.81,0.23,6.08,0.31c-0.52-2.64-1.03-5.28-1.57-7.91c-0.5-2.5-0.99-5-1.63-7.44
			c-0.28,0.11-6.15,0.01-6.73-0.12c-0.03,0.09-0.05,0.18-0.08,0.28c-0.63,2.5-0.68,4.63-0.99,7.18c-0.31,2.55-0.71,5.1-1.12,7.65
			C27.48,22.34,32.38,22.27,33.55,22.19z"/>
		<path class="st1" d="M33.64,28.99c1.27,0.09,2.54,0.17,3.81,0.2c1.19,0.04,2.39,0.03,3.58,0c-0.43-1.95-0.83-3.9-1.22-5.85
			c-0.33,0.11-8.59,0.19-9.76,0.08c-0.9-0.1-1.8-0.19-2.7-0.29c-0.3,1.82-0.61,3.65-0.98,5.47c1.15,0.03,2.31,0.07,3.46,0.13
			C31.1,28.8,32.37,28.9,33.64,28.99z"/>
		<path class="st4" d="M36.11,6.06c-0.22-0.69-0.6-1.87-0.87-2.52c-0.24-0.56-0.5-1.11-0.82-1.59c-0.31-0.47-0.7-0.85-1.1-0.91
			c-0.39-0.08-0.89,0.21-1.28,0.65c-0.4,0.44-0.73,0.98-1.01,1.54c-0.48,0.96-0.83,1.98-1.13,3.03C30.47,6.15,35.98,6.03,36.11,6.06
			z"/>
		<path class="st1" d="M1.22,110.28l0.37-0.01c0.25-0.01,0.5-0.01,0.75-0.03l0.75-0.05l0.23-0.02l-0.01-0.07
			c-0.09-1-0.25-2.01-0.37-3.01c-0.27-2.01-0.35-4.01-0.38-6.02c-0.02-2.01,0.04-4.01,0.12-6.02c0.05-1.86,0.18-3.72,0.34-5.57
			l-0.18-0.01l-0.75-0.06l-0.75-0.05l-0.16-0.01c-0.03,0.98-0.05,1.96-0.01,2.94c0.06,2.01,0.36,4.01,0.48,6.02
			c0.13,2.01,0.06,4.01-0.19,6.02c-0.25,1.98-0.53,3.97-0.51,5.95l0.08,0L1.22,110.28z"/>
		<path class="st1" d="M7.78,99.55c0.08,1.45,0.33,2.91,0.19,4.36c-0.12,1.32-0.31,2.63-0.73,3.95l0.04,0.01l0.01,0.01
			c0.25,0.22,0.52,0.41,0.79,0.59c0.27,0.18,0.54,0.38,0.8,0.58c0.25,0.19,0.49,0.38,0.74,0.57l0.13-1.27
			c0.1-0.97,0.18-1.93,0.22-2.9c0.06-1.93-0.03-3.86-0.21-5.79c-0.19-1.93-0.33-3.86-0.38-5.79l-0.09-2.9
			c-0.01-0.32-0.01-0.63-0.02-0.95c-0.13,0.1-0.25,0.2-0.38,0.3c-0.26,0.2-0.53,0.39-0.8,0.58c-0.27,0.18-0.54,0.37-0.79,0.59
			l-0.02,0.01l-0.1,0.02c0.11,1.22,0.21,2.44,0.32,3.66C7.6,96.64,7.7,98.1,7.78,99.55z"/>
		<path class="st1" d="M10.8,108.36l0.13,1.25c0.1-0.01,0.2-0.02,0.3-0.02c0.96-0.06,1.92-0.08,2.89-0.05
			c0.96,0.02,1.92,0.05,2.89,0.11c1.74,0.11,3.43,0.13,5.22,0.13c-0.09-5.11-0.1-9.8-0.02-14.91l0.13-5.7
			c-3.68,0.56-7.37,0.77-11.05,0.85c0,0.32-0.01,0.64-0.02,0.96l-0.09,2.9c-0.05,1.93-0.19,3.86-0.38,5.79
			c-0.18,1.93-0.27,3.86-0.21,5.79C10.62,106.43,10.69,107.4,10.8,108.36z"/>
		<path class="st1" d="M5.21,107.82c0.28-0.07,0.56-0.12,0.85-0.12c0.24,0,0.47,0.03,0.71,0.07c-0.4-1.29-0.59-2.57-0.7-3.86
			c-0.14-1.45,0.11-2.91,0.19-4.36c0.08-1.45,0.17-2.91,0.28-4.36c0.11-1.2,0.2-2.39,0.31-3.59c-0.27,0.05-0.53,0.09-0.8,0.09
			c-0.28,0-0.57-0.05-0.85-0.12c-0.28-0.06-0.57-0.16-0.85-0.28c-0.03-0.01-0.05-0.03-0.08-0.04c0.09,1.27,0.17,2.54,0.2,3.81
			c0.08,2.01,0.13,4.01,0.12,6.02c-0.03,2.01-0.11,4.01-0.38,6.02c-0.05,0.39-0.1,0.78-0.15,1.17c0.11-0.06,0.21-0.11,0.32-0.16
			C4.65,107.98,4.93,107.88,5.21,107.82z"/>
		<path class="st5" d="M3.54,89.52l-0.05,0l-0.03,0C3.52,89.52,3.57,89.52,3.54,89.52z"/>
		<path class="st1" d="M104.75,105.88c-0.11-0.33-0.2-0.66-0.27-0.99c-0.14-0.59-0.17-4.11-0.09-5.28c0.08-1.17,0.17-2.35,0.29-3.52
			c0.1-0.9,0.19-1.81,0.29-2.71c-1.82-0.3-3.63-0.61-5.45-0.98c-0.03,1.16-0.07,2.32-0.13,3.48c-0.06,1.27-0.17,2.55-0.25,3.82
			c-0.09,1.27-0.17,2.55-0.2,3.82c-0.04,1.2-0.03,2.4,0,3.59C100.87,106.67,102.81,106.27,104.75,105.88z"/>
		<path class="st1" d="M86.24,99.65c0.08,1.34-0.04,5.93-0.3,6.89c0.94-0.03,1.88-0.04,2.82-0.06l1.64,0.01l1.64,0.07
			c2.08,0.12,4.17,0.36,6.25,0.44c0.03-1.16,0.03-2.32,0-3.49c-0.03-1.27-0.11-2.55-0.2-3.82c-0.09-1.27-0.19-2.55-0.25-3.82
			c-0.05-0.96-0.08-1.93-0.11-2.89l-2.4,0.06c-1.09,0.03-2.19,0.01-3.28,0.02L88.76,93c-1.02-0.05-2.04-0.08-3.07-0.13
			c0.09,0.93,0.17,1.85,0.26,2.78C86.06,96.98,86.16,98.31,86.24,99.65z"/>
		<path class="st3" d="M105.59,105.71c2.63-0.53,5.26-1.04,7.88-1.58c2.49-0.5,5.49-1.1,7.92-1.75c-0.11-0.28-0.11-6.57-0.2-6.59
			c-2.49-0.64-5.07-0.82-7.61-1.13c-2.54-0.31-5.08-0.72-7.61-1.12c-0.21-0.03-0.44,1.66-0.35,2.54c0.11,1.17,0.21,2.35,0.29,3.52
			c0.08,1.17,0.05,4.7-0.09,5.28C105.75,105.16,105.68,105.44,105.59,105.71z"/>
		<path class="st2" d="M78.13,90.12c-0.01,0.46-0.01,0.92,0,1.38c0.01,0.92,0.01,1.84,0.03,2.76c0.03,1.84,0.12,3.67,0.2,5.51
			c0.08,1.84,0.18,3.67,0.24,5.51l0.08,2.76l0.03,1.38l0.01,0.34l0,0.04c0.9-0.5,1.82-0.98,2.74-1.44c0.61-0.31,1.24-0.59,1.86-0.89
			c0.57-0.27,1.16-0.52,1.73-0.78c-0.29-1.01-0.41-5.69-0.33-7.03c0.08-1.34,0.17-2.67,0.29-4.01c0.09-0.94,0.17-1.87,0.26-2.81
			l-0.08-0.04c-1.25-0.57-2.49-1.17-3.72-1.78c-1.13-0.56-2.26-1.16-3.37-1.77c0.02,0.05,0.04,0.1,0.04,0.15
			C78.14,89.69,78.13,89.87,78.13,90.12z"/>
		<path class="st4" d="M122.08,97.64c0.11,0.67,0.06,4.46,0.03,4.59c0.68-0.22,1.72-0.66,2.37-0.93c0.56-0.24,1.11-0.5,1.58-0.82
			c0.47-0.32,0.85-0.71,0.91-1.1c0.08-0.39-0.2-0.89-0.65-1.28c-0.43-0.4-0.98-0.73-1.54-1.01c-0.95-0.48-1.7-0.79-2.74-1.08
			C122.15,96.56,121.97,97.08,122.08,97.64z"/>
		<path class="st1" d="M35.01,125.96c-2,0.01-4-0.04-6-0.12c-1.85-0.05-3.7-0.18-5.55-0.34l-0.01,0.18l-0.05,0.75l-0.05,0.75
			l-0.01,0.16c0.98,0.03,1.95,0.05,2.93,0.01c2-0.06,4-0.37,6-0.49c2-0.13,4-0.06,6,0.19c1.98,0.25,3.95,0.53,5.93,0.51l0-0.08
			l0-0.19l-0.01-0.38c-0.01-0.25-0.01-0.5-0.03-0.75l-0.05-0.75l-0.02-0.23l-0.07,0.01c-1,0.09-2,0.25-3,0.37
			C39.01,125.84,37.01,125.93,35.01,125.96z"/>
		<path class="st1" d="M35.01,123.92c2,0.03,4,0.11,6,0.38c0.39,0.05,0.77,0.1,1.16,0.15c-0.06-0.11,0.37-2.42,0.42-2.66
			c-1.28,0.4-11.99,0.27-13.43,0.16c-1.19-0.11-3.14-0.1-4.33-0.21c0.05,0.27,0.41,2.46,0.4,2.49c1.26-0.09,2.53-0.17,3.79-0.2
			C31.01,123.96,33.01,123.9,35.01,123.92z"/>
		<path class="st1" d="M66.25,109.37c3.57-0.02,7.14,0.04,10.71,0.11l0-0.07l0.03-1.38l0.08-2.76c0.06-1.84,0.16-3.67,0.24-5.51
			c0.08-1.84,0.17-3.67,0.2-5.51c0.03-0.92,0.02-1.84,0.03-2.76c0.01-0.46,0-0.92,0-1.38l-0.01-0.66c-0.01-0.08-0.09-0.15-0.17-0.15
			c-3.65,0.05-7.32,0.36-10.97,0.48c-3.66,0.11-7.32,0.05-10.98-0.05c-3.43-0.11-6.87-0.27-10.3-0.58c-0.05,2.31-0.11,4.61-0.2,6.92
			l-0.36,11.12c-0.04,1.03,0.1,1.9,0.09,2.93C51.9,109.52,58.99,109.45,66.25,109.37z"/>
		<path class="st1" d="M27.5,118.63l-2.77,0.09l-1.08,0.04c0.22,0.28,0.86,2.28,1.08,2.54c0,0,3.21-0.18,4.42-0.29
			c1.45-0.11,2.9-0.21,4.34-0.29c1.45-0.08,8-0.01,9.31,0.41l0.01-0.04l0.01-0.01c0.22-0.25,0.8-2.34,1.16-2.77
			c-3.65,0.01-7.3,0.04-10.95,0.15L27.5,118.63z"/>
		<path class="st5" d="M23.51,124.97l0,0.05l0,0.03C23.51,124.99,23.51,124.94,23.51,124.97z"/>
		<path class="st5" d="M10.98,110.17C10.98,110.17,10.98,110.24,10.98,110.17c0-0.01,0-0.03,0-0.04L10.98,110.17z"/>
		<path class="st0" d="M0.76,110.36c-0.01,0.07,0.09,0.13,0.13,0.12l0.05,0l0.09,0l0.19,0l0.37,0.01c0.25,0.01,0.5,0.01,0.75,0.03
			l0.75,0.05l0.37,0.03l0.05,0l0.02,0l0.02,0c0.04,0,0.07-0.01,0.11-0.02c0.07-0.03,0.12-0.09,0.14-0.17
			c0.02-0.11,0.01-0.06,0.01-0.08l0-0.05l0.02-0.19c0.03-0.34,0.08-0.69,0.12-1.03c0.14,0.08,0.28,0.15,0.42,0.21
			c0.28,0.12,0.56,0.22,0.85,0.28c0.28,0.07,0.56,0.12,0.85,0.12c0.28,0,0.56-0.04,0.84-0.1c0.19,0.05,0.38,0.1,0.57,0.16
			c0.31,0.1,0.63,0.19,0.95,0.27c0.38,0.1,0.77,0.19,1.16,0.28c0.01,0.06,0.01,0.13,0.03,0.19c0.05,0.15,0.13,0.28,0.24,0.38
			c0.11,0.1,0.25,0.18,0.4,0.22c0.07,0.02,0.17,0.03,0.21,0.03l0.04,0c0.24,0.02,0.48,0.05,0.72,0.05c0.96,0.06,1.92,0.08,2.89,0.05
			c0.96-0.02,1.92-0.05,2.89-0.11c1.74-0.11,3.49-0.26,5.23-0.55c0.04,2.18,0.09,4.36,0.17,6.53l0.02,0.69l0.01,0.17
			c0,0.05-0.01,0.01,0.01,0.17c0.02,0.12,0.07,0.24,0.14,0.33c0.1,0.15,0.3,0.25,0.46,0.28c0.1,0.44,0.2,0.88,0.31,1.32
			c0.08,0.32,0.17,0.64,0.27,0.95c0.06,0.19,0.11,0.38,0.16,0.57c-0.06,0.28-0.1,0.57-0.09,0.85c0,0.29,0.05,0.57,0.12,0.85
			c0.06,0.29,0.16,0.57,0.28,0.86c0.03,0.06,0.06,0.11,0.08,0.17c-0.38,0.03-0.77,0.06-1.15,0.09c-0.16,0-0.32,0.07-0.41,0.19
			c-0.05,0.06-0.09,0.13-0.11,0.21c-0.02,0.08-0.02,0.18-0.02,0.15l0,0.05l0.01,0.09l0.02,0.19l0.03,0.38l0.06,0.75l0.05,0.75
			l0.02,0.38l0,0.05l0,0.02l0,0.02c0,0.05,0.01,0.1,0.04,0.15c0.05,0.09,0.13,0.17,0.23,0.19c0.15,0.02,0.08,0.01,0.11,0.01l0.05,0
			l0.19-0.01c1-0.04,2-0.05,3-0.02c2,0.06,15.99-0.24,17.99-0.21c0.07,0.01,0.13-0.09,0.12-0.13l0-0.05l0-0.09l0-0.19l0.01-0.38
			c0.01-0.25,0.01-0.5,0.03-0.75l0.05-0.75l0.03-0.38l0-0.05l0-0.02l0-0.02c0-0.04-0.01-0.07-0.02-0.11
			c-0.03-0.07-0.09-0.12-0.17-0.14c-0.1-0.02-0.06-0.01-0.08-0.01l-0.05,0l-0.19-0.02c-0.34-0.03-0.68-0.08-1.03-0.12
			c0.08-0.14,0.15-0.28,0.21-0.42c0.12-0.28,0.22-0.57,0.28-0.85c0.07-0.28,0.12-0.57,0.12-0.85c0.01-0.28-0.04-0.56-0.09-0.85
			c0.05-0.19,0.1-0.38,0.16-0.57c0.1-0.31,0.19-0.63,0.27-0.95c0.16-0.64,0.32-1.29,0.45-1.94c0-0.01-0.01-0.01-0.01-0.02
			c0.02-0.06,0.02-0.11,0.02-0.14l0-0.35l0-0.69l0.01-1.39l0.03-2.78c0.02-0.75,0.06-1.4,0.07-2.15c7.26,0.6,14.49,0.71,21.76,0.8
			c3.66,0.02,7.32-0.04,10.98-0.12l0.09,0l0.17-0.01c0.16-0.02,0.33-0.06,0.47-0.14c0.3-0.15,2.84-1.44,3.9-1.77
			c0.66-0.19,1.31-0.42,1.96-0.63c0.6-0.19,1.19-0.41,1.78-0.62c1.05,0.05,2.11,0.05,3.16,0.07l1.64-0.01l1.64-0.07
			c2.19-0.13,4.38-0.39,6.57-0.46l0.33-0.01c0,0,4.8-0.31,7.2-0.52c2.58-0.21,5.16-0.56,7.72-1c2.56-0.48,5.1-1.09,7.59-1.92
			c1.25-0.42,2.49-0.88,3.69-1.53c0.6-0.33,1.18-0.7,1.73-1.18c0.27-0.25,0.53-0.51,0.75-0.85c0.21-0.33,0.39-0.75,0.39-1.21
			c0.01-0.45-0.16-0.88-0.39-1.19c-0.23-0.32-0.5-0.57-0.78-0.78c-0.57-0.41-1.17-0.71-1.77-0.97c-1.21-0.52-2.45-0.91-3.7-1.3
			c-2.48-0.75-4.97-1.55-7.52-2.1c-2.54-0.54-5.12-0.83-7.7-1.02c-2.2-0.15-6.59-0.91-6.59-0.91l-0.93-0.02l-3.28-0.08
			c-1.09-0.03-2.19-0.01-3.28-0.02l-3.28,0.07c-1.06,0.05-2.12,0.08-3.18,0.14c-1.24-0.42-2.48-0.82-3.73-1.2
			c-1.31-0.4-4.28-1.34-4.48-1.34c-3.67-0.05-7.32-0.37-10.98-0.49c-3.66-0.11-7.32-0.05-10.98,0.05
			c-3.43,0.11-6.86-0.18-10.29,0.14c0.11-5,0.15-9.56,0.18-14.56c0.03-7.41-0.05-14.82-0.12-22.23l-0.01-0.69
			c0-0.01,0-0.22-0.04-0.38c-0.04-0.16-0.11-0.32-0.2-0.45c-0.18-0.26-0.45-0.46-0.76-0.54c-0.27-1.08-0.57-2.15-0.89-3.21
			c-0.19-0.66-0.42-1.31-0.63-1.97c-0.19-0.6-0.41-1.19-0.61-1.79c0.05-1.06,0.05-2.12,0.07-3.18l-0.01-1.65l-0.07-1.65
			c-0.13-2.2-0.38-4.39-0.46-6.59l-0.01-0.33c0,0-0.31-4.82-0.51-7.23c-0.21-2.59-0.56-5.18-1-7.75c-0.47-2.57-1.08-5.12-1.92-7.62
			c-0.42-1.25-0.88-2.5-1.52-3.71c-0.32-0.6-0.69-1.19-1.17-1.73c-0.25-0.27-0.51-0.53-0.85-0.75C34.25,0.18,33.83,0,33.39,0
			c-0.45-0.01-0.87,0.16-1.19,0.39c-0.32,0.23-0.57,0.5-0.77,0.79c-0.41,0.57-0.7,1.17-0.97,1.78c-0.52,1.22-0.91,2.46-1.29,3.71
			c-0.74,2.5-1.54,4.99-2.09,7.55c-0.53,2.55-0.82,5.14-1.02,7.74c-0.15,2.21-0.91,6.62-0.91,6.62l-0.02,0.94l-0.08,3.3
			c-0.03,1.1-0.01,2.2-0.02,3.3l0.07,3.3c0.05,1.06,0.08,2.13,0.14,3.19c-0.42,1.24-0.82,2.49-1.2,3.75
			c-0.37,1.2-0.7,2.42-1.02,3.64c-0.04,0.02-0.08,0.03-0.12,0.06c-0.19,0.14-0.33,0.36-0.38,0.6c-0.01,0.06-0.02,0.12-0.02,0.18
			l0,0.1l0,0.17l0.01,0.69l0.03,1.39l0.06,2.78c0.04,1.85,0.07,3.71,0.09,5.56c0.04,3.71,0.04,7.41,0.01,11.12
			c-0.03,3.71-0.12,7.41-0.22,11.12l-0.12,4.35c-3.73,0-7.38-0.03-11.08-0.11l-0.72-0.01l-0.09,0c-0.16,0-0.4,0.04-0.57,0.14
			c-0.36,0.19-0.61,0.58-0.63,0.99v0.05c-0.28,0.07-0.56,0.14-0.84,0.21c-0.32,0.08-0.64,0.17-0.95,0.27
			c-0.19,0.06-0.38,0.11-0.57,0.16c-0.28-0.06-0.56-0.1-0.85-0.1c-0.28,0-0.57,0.05-0.85,0.12c-0.28,0.06-0.57,0.16-0.85,0.28
			c-0.06,0.03-0.11,0.06-0.17,0.08c-0.03-0.39-0.06-0.77-0.09-1.16c0-0.16-0.07-0.32-0.19-0.42c-0.06-0.05-0.13-0.09-0.21-0.11
			c-0.08-0.02-0.18-0.02-0.15-0.02l-0.05,0L3.4,88.49l-0.19,0.02l-0.37,0.03L2.09,88.6l-0.75,0.05l-0.37,0.02l-0.05,0l-0.02,0
			l-0.02,0c-0.05,0-0.1,0.01-0.15,0.04c-0.09,0.05-0.17,0.13-0.19,0.24c-0.02,0.15-0.01,0.08-0.01,0.11l0,0.05l0.01,0.19
			c0.04,1,0.05,2.01,0.02,3.01c-0.06,2.01-0.36,4.01-0.48,6.02c-0.13,2.01-0.06,4.01,0.19,6.02C0.5,106.34,0.79,108.35,0.76,110.36z
			 M124.78,97.08c0.56,0.28,1.1,0.61,1.54,1.01c0.44,0.39,0.73,0.89,0.65,1.28c-0.06,0.39-0.44,0.78-0.91,1.1
			c-0.47,0.31-1.02,0.58-1.58,0.82c-0.65,0.27-1.69,0.71-2.37,0.93c0.03-0.13,0.09-3.92-0.03-4.59c-0.11-0.56,0.07-1.08-0.04-1.64
			C123.08,96.29,123.83,96.6,124.78,97.08z M105.9,99.61c-0.08-1.17-0.17-2.35-0.29-3.52c-0.1-0.88,0.14-2.58,0.35-2.54
			c2.54,0.4,5.07,0.81,7.61,1.12c2.54,0.31,5.12,0.49,7.61,1.13c0.09,0.02,0.1,6.31,0.2,6.59c-2.43,0.65-5.43,1.25-7.92,1.75
			c-2.61,0.54-5.24,1.05-7.88,1.58c0.08-0.27,0.15-0.55,0.22-0.82C105.95,104.3,105.98,100.78,105.9,99.61z M98.92,103.51
			c0.03-1.27,0.11-2.55,0.2-3.82c0.09-1.27,0.19-2.55,0.25-3.82c0.06-1.16,0.09-2.32,0.13-3.48c1.82,0.37,3.63,0.68,5.45,0.98
			c-0.1,0.9-0.19,1.81-0.29,2.71c-0.11,1.17-0.21,2.35-0.29,3.52c-0.08,1.17-0.05,4.7,0.09,5.28c0.07,0.33,0.16,0.66,0.27,0.99
			c-1.94,0.39-3.88,0.79-5.82,1.23C98.89,105.91,98.89,104.71,98.92,103.51z M88.76,93l3.28,0.07c1.09-0.01,2.19,0.01,3.28-0.02
			l2.4-0.06c0.03,0.96,0.06,1.93,0.11,2.89c0.06,1.27,0.17,2.55,0.25,3.82c0.09,1.27,0.17,2.55,0.2,3.82c0.03,1.16,0.03,2.32,0,3.49
			c-2.08-0.09-4.17-0.32-6.25-0.44l-1.64-0.07l-1.64-0.01c-0.94,0.02-1.88,0.03-2.82,0.06c0.26-0.96,0.38-5.56,0.3-6.89
			c-0.08-1.34-0.17-2.67-0.29-4.01c-0.09-0.93-0.17-1.85-0.26-2.78C86.71,92.92,87.74,92.95,88.76,93z M81.46,91.02
			c1.23,0.61,2.47,1.2,3.72,1.78l0.08,0.04c-0.09,0.94-0.17,1.87-0.26,2.81c-0.11,1.34-0.21,2.67-0.29,4.01
			c-0.08,1.34,0.05,6.02,0.33,7.03c-0.58,0.26-1.16,0.51-1.73,0.78c-0.62,0.3-1.25,0.58-1.86,0.89c-0.92,0.45-1.84,0.93-2.74,1.44
			l0-0.04l-0.01-0.34l-0.03-1.38l-0.08-2.76c-0.06-1.84-0.16-3.67-0.24-5.51c-0.08-1.84-0.17-3.67-0.2-5.51
			c-0.03-0.92-0.02-1.84-0.03-2.76c-0.01-0.46,0-0.92,0-1.38c0-0.24,0.01-0.43,0-0.72c0-0.05-0.03-0.1-0.04-0.15
			C79.2,89.86,80.33,90.45,81.46,91.02z M44.55,107.19l0.36-11.12c0.09-2.31,0.15-4.61,0.2-6.92c3.43,0.32,6.87,0.47,10.3,0.58
			c3.66,0.11,7.32,0.17,10.98,0.05c3.66-0.12,7.32-0.43,10.97-0.48c0.08,0,0.16,0.06,0.17,0.15l0.01,0.66
			c0.01,0.46,0.01,0.92,0,1.38c-0.01,0.92-0.01,1.84-0.03,2.76c-0.03,1.84-0.12,3.67-0.2,5.51c-0.08,1.84-0.18,3.67-0.24,5.51
			l-0.08,2.76l-0.03,1.38l0,0.07c-3.57-0.08-7.14-0.13-10.71-0.11c-7.26,0.09-14.36,0.15-21.62,0.76
			C44.65,109.09,44.51,108.22,44.55,107.19z M23.5,125.02l0-0.05c0-0.03,0,0.02-0.01,0.08L23.5,125.02z M44.01,125.2l0.07-0.01
			l0.02,0.23l0.05,0.75c0.02,0.25,0.02,0.5,0.03,0.75l0.01,0.38l0,0.19l0,0.08c-1.98,0.02-3.95-0.26-5.93-0.51
			c-2-0.24-4-0.32-6-0.19c-2,0.12-4,0.43-6,0.49c-0.98,0.03-1.95,0.02-2.93-0.01l0.01-0.16l0.05-0.75l0.05-0.75l0.01-0.18
			c1.85,0.17,3.7,0.3,5.55,0.34c2,0.08,4,0.13,6,0.12c2-0.03,4-0.11,6-0.38C42.01,125.44,43.01,125.29,44.01,125.2z M24.83,121.75
			c1.19,0.11,3.14,0.1,4.33,0.21c1.45,0.11,12.15,0.25,13.43-0.16c-0.04,0.24-0.47,2.55-0.42,2.66c-0.39-0.05-0.77-0.1-1.16-0.15
			c-2-0.27-4-0.36-6-0.38c-2-0.01-4,0.04-6,0.12c-1.26,0.03-2.53,0.11-3.79,0.2C25.24,124.21,24.88,122.01,24.83,121.75z
			 M42.83,121.07l-0.01,0.01l-0.01,0.04c-1.31-0.42-7.87-0.49-9.31-0.41c-1.45,0.08-2.9,0.17-4.34,0.29
			c-1.21,0.11-4.42,0.29-4.42,0.29c-0.22-0.25-0.85-2.25-1.08-2.54l1.08-0.04l2.77-0.09l5.54-0.17c3.65-0.11,7.3-0.14,10.95-0.15
			C43.63,118.73,43.05,120.82,42.83,121.07z M31.04,3.24c0.28-0.56,0.61-1.11,1.01-1.54c0.39-0.44,0.89-0.73,1.28-0.65
			c0.39,0.06,0.78,0.44,1.1,0.91c0.31,0.48,0.58,1.02,0.82,1.59c0.27,0.65,0.65,1.83,0.87,2.52c-0.13-0.03-5.63,0.09-6.19,0.21
			C30.21,5.22,30.56,4.19,31.04,3.24z M28.63,14.48c0.31-2.55,0.35-4.68,0.99-7.18c0.02-0.09,0.05-0.18,0.08-0.28
			c0.59,0.13,6.45,0.23,6.73,0.12c0.65,2.44,1.14,4.94,1.63,7.44c0.54,2.63,1.05,5.26,1.57,7.91c-0.27-0.08-4.91-0.39-6.08-0.31
			c-1.17,0.08-6.07,0.15-6.04-0.06C27.91,19.57,28.32,17.03,28.63,14.48z M27.35,23.14c0.9,0.1,1.8,0.19,2.7,0.29
			c1.17,0.11,9.43,0.03,9.76-0.08c0.39,1.95,0.79,3.9,1.22,5.85c-1.19,0.03-2.38,0.04-3.58,0c-1.27-0.03-2.54-0.12-3.81-0.2
			c-1.27-0.09-2.54-0.19-3.81-0.25c-1.15-0.06-2.31-0.09-3.46-0.13C26.74,26.79,27.05,24.96,27.35,23.14z M40.46,42.24
			c-0.96-0.26-9.53-0.13-10.86-0.01c-0.92,0.09-1.84,0.17-2.77,0.26c0.06-1.03,0.09-2.05,0.13-3.08l0.07-3.3
			c-0.01-1.1,0.01-2.2-0.02-3.3l-0.06-2.41c0.96-0.03,1.92-0.06,2.88-0.11c1.27-0.06,2.54-0.17,3.81-0.25
			c1.27-0.09,2.54-0.17,3.81-0.2c1.16-0.03,2.27,0.32,3.42,0.35c-0.08,2.09-0.27,3.83-0.39,5.92l-0.07,1.65L40.4,39.4
			C40.42,40.35,40.43,41.29,40.46,42.24z M25,46.73c0.61-1.24,1.2-2.48,1.77-3.73c0,0,1.91,0.09,2.83,0.18
			c1.33,0.11,9.99,0.24,10.99-0.05c0.26,0.58,0.51,1.17,0.78,1.74c0.3,0.62,0.57,1.25,0.89,1.87c0.45,0.93,0.93,1.84,1.43,2.75
			c-0.04,0-0.07,0-0.11,0l-0.35,0l-0.69,0.01l-2.77,0.03l-5.54,0.08c-1.85,0.02-3.69,0.06-5.54,0.11l-2.77,0.06l-1.38,0.03
			l-0.69,0.02l-0.35,0.01c-0.01,0-0.07,0-0.13,0.01C23.94,48.82,24.48,47.78,25,46.73z M23.31,61.52c0.02-1.85,0.04-3.71,0.09-5.56
			l0.09-5.06c0.01,0,0.01,0,0.02,0l0.35,0.01l0.69,0.02l1.38,0.03l2.77,0.06c1.85,0.05,3.69,0.08,5.54,0.11l5.54,0.08l2.77,0.03
			l0.69,0.01l0.16,0l0,0.35c-0.07,7.41-0.15,14.82-0.12,22.23c0.04,7.41,0.1,14.82,0.39,22.23c0,0,0.12,14.79,0.16,16.64l-0.03,2.44
			l0.01,1.39l0,0.69l0,0.35c0,0.07,0,0.09-0.01,0.11c-0.01,0.02-0.04,0.04-0.07,0.04c-3.69-0.01-7,0.34-10.69,0.22l-5.54-0.17
			l-2.77-0.09l-1.16-0.04l0.02-0.56c0.26-7.41,0.31-14.82,0.19-22.23l-0.26-11.12c-0.1-3.71-0.19-7.41-0.22-11.12
			C23.27,68.93,23.27,65.22,23.31,61.52z M10.98,110.17l0-0.04C10.98,110.14,10.98,110.16,10.98,110.17
			C10.98,110.24,10.98,110.17,10.98,110.17z M10.79,99.67c0.19-1.93,0.33-3.86,0.38-5.79l0.09-2.9c0.01-0.32,0.01-0.64,0.02-0.96
			c3.68-0.09,7.37-0.3,11.05-0.85l-0.13,5.7c-0.08,5.11-0.08,9.8,0.02,14.91c-1.79,0-3.48-0.03-5.22-0.13
			c-0.96-0.06-1.92-0.09-2.89-0.11c-0.96-0.03-1.92-0.01-2.89,0.05c-0.1,0-0.2,0.01-0.3,0.02l-0.13-1.25
			c-0.1-0.97-0.18-1.93-0.22-2.9C10.52,103.53,10.62,101.6,10.79,99.67z M7.28,91.51l0.02-0.01c0.25-0.22,0.52-0.41,0.79-0.59
			c0.27-0.18,0.54-0.38,0.8-0.58c0.13-0.1,0.25-0.2,0.38-0.3c0,0.32,0.01,0.63,0.02,0.95l0.09,2.9c0.05,1.93,0.19,3.86,0.38,5.79
			c0.18,1.93,0.27,3.86,0.21,5.79c-0.04,0.97-0.11,1.93-0.22,2.9l-0.13,1.27c-0.24-0.19-0.49-0.38-0.74-0.57
			c-0.26-0.2-0.53-0.39-0.8-0.58c-0.27-0.18-0.54-0.37-0.79-0.59l-0.01-0.01l-0.04-0.01c0.42-1.32,0.61-2.63,0.73-3.95
			c0.14-1.45-0.11-2.91-0.19-4.36C7.7,98.1,7.6,96.64,7.49,95.19c-0.11-1.22-0.2-2.44-0.32-3.66L7.28,91.51z M4.2,107.09
			c0.27-2.01,0.35-4.01,0.38-6.02c0.01-2.01-0.04-4.01-0.12-6.02c-0.03-1.27-0.11-2.54-0.2-3.81c0.03,0.01,0.05,0.03,0.08,0.04
			c0.28,0.12,0.57,0.22,0.85,0.28c0.28,0.07,0.57,0.12,0.85,0.12c0.27,0,0.53-0.03,0.8-0.09c-0.11,1.2-0.2,2.39-0.31,3.59
			c-0.11,1.45-0.21,2.91-0.28,4.36c-0.08,1.45-0.33,2.91-0.19,4.36c0.11,1.29,0.3,2.57,0.7,3.86c-0.24-0.04-0.47-0.08-0.71-0.07
			c-0.28,0-0.56,0.05-0.85,0.12c-0.28,0.06-0.56,0.16-0.85,0.28c-0.11,0.05-0.21,0.1-0.32,0.16C4.1,107.87,4.16,107.48,4.2,107.09z
			 M3.49,89.51l0.05,0c0.03,0-0.02,0-0.08-0.01L3.49,89.51z M1.46,104.33c0.24-2.01,0.32-4.01,0.19-6.02
			c-0.12-2.01-0.43-4.01-0.48-6.02c-0.03-0.98-0.02-1.96,0.01-2.94l0.16,0.01l0.75,0.05l0.75,0.06l0.18,0.01
			c-0.17,1.86-0.29,3.72-0.34,5.57c-0.08,2.01-0.13,4.01-0.12,6.02c0.03,2.01,0.11,4.01,0.38,6.02c0.13,1,0.28,2.01,0.37,3.01
			l0.01,0.07l-0.23,0.02l-0.75,0.05c-0.25,0.02-0.5,0.02-0.75,0.03l-0.37,0.01l-0.19,0l-0.08,0C0.93,108.3,1.21,106.32,1.46,104.33z
			"/>
	</g>
</g>
</svg>
