<?xml version="1.0" encoding="utf-8"?>
<!-- Generator: Adobe Illustrator 24.1.2, SVG Export Plug-In . SVG Version: 6.00 Build 0)  -->
<svg version="1.1" id="Layer_1" xmlns="http://www.w3.org/2000/svg" xmlns:xlink="http://www.w3.org/1999/xlink" x="0px" y="0px"
	 viewBox="0 0 128 128" style="enable-background:new 0 0 128 128;" xml:space="preserve">
<style type="text/css">
	.st0{fill:#2D2D2D;}
	.st1{fill:#AF8E62;}
	.st2{fill:#EDBF7E;}
	.st3{fill:#CC7969;}
</style>
<g>
	<g>
		<path class="st0" d="M83.32,15.05v3.55h-3.58v-3.55H83.32z"/>
		<path class="st0" d="M86.34,6.11c0.05-1.9,0.61-3.39,1.68-4.47C89.1,0.54,90.53,0,92.34,0c1.7,0,3.08,0.46,4.13,1.37
			s1.58,2.11,1.58,3.58c0,0.9-0.23,1.68-0.7,2.36s-1.09,1.14-1.88,1.41c1.04,0.26,1.85,0.78,2.45,1.54c0.6,0.76,0.89,1.7,0.89,2.8
			c0,1.75-0.6,3.18-1.81,4.29C95.79,18.45,94.22,19,92.29,19c-1.91,0-3.46-0.55-4.63-1.66c-1.18-1.11-1.76-2.57-1.76-4.4v-0.39h2.89
			c0.09,2.58,1.28,3.87,3.58,3.87c1.02,0,1.82-0.29,2.42-0.88c0.6-0.59,0.9-1.39,0.9-2.41c0-1.07-0.34-1.85-1.03-2.34
			c-0.68-0.49-1.57-0.74-2.66-0.74c-0.33,0-0.65,0.01-0.95,0.03V7.82h0.26c0.54,0,1.01-0.03,1.4-0.09c0.39-0.06,0.78-0.18,1.17-0.34
			c0.4-0.17,0.7-0.44,0.91-0.82C95,6.19,95.1,5.72,95.1,5.16c0-0.81-0.25-1.46-0.76-1.95c-0.51-0.49-1.19-0.74-2.05-0.74
			c-1.97,0-2.99,1.21-3.08,3.63H86.34z"/>
		<path class="st0" d="M113.34,0.29v2.53c-1.91,1.91-3.48,4.33-4.71,7.25c-1.23,2.92-1.9,5.77-2,8.54h-3.29
			c0.07-2.49,0.8-5.28,2.18-8.36c1.39-3.08,3-5.48,4.84-7.2h-9.58V0.29H113.34z"/>
		<path class="st0" d="M127,0.29v2.61h-7.34l-0.84,4.74c0.82-0.88,1.98-1.32,3.47-1.32c1.7,0,3.08,0.55,4.13,1.66
			c1.05,1.11,1.58,2.56,1.58,4.37c0,1.95-0.61,3.54-1.84,4.76c-1.23,1.23-2.81,1.84-4.74,1.84c-1.83,0-3.3-0.5-4.43-1.51
			c-1.13-1.01-1.73-2.36-1.8-4.07h2.97c0.07,0.95,0.41,1.7,1.03,2.26c0.61,0.56,1.39,0.84,2.32,0.84c1.09,0,1.93-0.35,2.53-1.04
			c0.6-0.69,0.89-1.67,0.89-2.93c0-1.23-0.31-2.18-0.92-2.86c-0.61-0.67-1.46-1.01-2.55-1.01c-1.32,0-2.34,0.55-3.08,1.66
			l-2.63-0.08l1.76-9.92H127z"/>
	</g>
	<g>
		<path class="st1" d="M51.47,114.38c2.25,0.04,4.51,0.1,6.76,0.39l0.71,0.08c-0.83-13.09-1.29-26.19-1.6-39.29
			c-0.14-6.57-0.18-13.14-0.23-19.71c-0.04-3.28-0.03-6.57-0.03-9.86l0-0.43l-0.17,0l-0.61-0.01l-2.45-0.06l-4.91-0.13l-4.91-0.11
			l-2.45-0.06l-0.61-0.01c-0.18,0-0.48-0.02-0.47,0c-0.03,0.01-0.06,0.03-0.07,0.06c-0.02,0.04-0.02,0.02-0.03,0.13l-0.02,0.62
			c-0.1,3.28-0.16,6.57-0.19,9.85c-0.03,3.28,0.01,6.57,0.05,9.86l0.09,9.86c0,6.57-0.18,13.14-0.4,19.7
			c-0.22,6.52-0.53,13.03-0.98,19.54c1.92-0.15,3.84-0.26,5.76-0.31C46.96,114.41,49.22,114.36,51.47,114.38z"/>
		<path class="st1" d="M40.96,44.48l0.61-0.01l2.45-0.05l4.91-0.11l4.91-0.13l2.45-0.06l0.61-0.01l0.26,0
			c-0.28-0.5-0.55-0.99-0.81-1.5c-0.42-0.8-0.82-1.61-1.2-2.43c-0.64,0.12-8.67,0.2-9.74,0.09c-0.88-0.11-2.7-0.1-2.7-0.1
			c-0.37,0.82-0.76,1.64-1.18,2.44c-0.33,0.63-0.67,1.26-1.05,1.88c0.07-0.01,0.13-0.01,0.16-0.01L40.96,44.48z"/>
		<path class="st1" d="M14.11,102.26c-0.04,2.26-0.1,4.53-0.39,6.79c0,0,4.07-0.09,6.15-0.26c2.12-0.18,4.24,0.03,6.36,0.08
			l6.36,0.17c2,0.09,4-0.29,6-0.18c-0.1-4.69-0.15-8.94-0.14-13.63c0-1.68,0.01-3.37,0.02-5.05c-1.8,0.08-3.59,0.14-5.39,0.22
			l-6.52,0.17c-2.17,0.04-4.35,0.25-6.52,0.08c-2.12-0.16-4.24-0.4-6.35-0.94c0.15,1.92,0.26,3.84,0.31,5.76
			C14.07,97.73,14.12,99.99,14.11,102.26z"/>
		<path class="st1" d="M38.03,116.03l-0.05,0.85c-0.04,0.57-0.06,1.13-0.08,1.7c-0.01,0.28-0.02,0.57-0.02,0.85l0,0.21
			c0,0.08,0,0.05,0.01,0.08c0.01,0.02,14.16-0.38,15.29-0.27c1.64,0.18,3.29,0.38,4.93,0.47c0.68-0.03,1.1,0.02,1.88,0.03
			c0.08-0.02,0.16-0.07,0.19-0.15c0.04-0.08,0.02-0.24,0.02-0.38c-0.01-0.28-0.01-0.57-0.03-0.85c-0.04-0.57-0.06-1.13-0.12-1.7
			l-0.08-0.85l-0.02-0.21c0-0.05-0.01-0.05-0.01-0.04c0,0-0.01,0-0.01,0.01c-0.02,0.01,0,0.04,0.01,0.06l-1.69,0.19
			c-2.25,0.29-4.51,0.35-6.76,0.39c-2.25,0.02-4.51-0.04-6.76-0.12c-2.22-0.05-4.44-0.19-6.67-0.37L38.03,116.03z"/>
		<path class="st1" d="M59.66,108.61c5.4-0.68,10.41-0.68,15.82-0.86c1.38-0.02,2.77-0.06,4.15-0.05l2.08,0.01l0.76,0.01
			c0.06-2.69,0.19-5.38,0.37-8.07c0.18-2.78,0.28-5.56,0.21-8.34c0-0.07-0.05-0.12-0.1-0.14c-0.03-0.01-0.04-0.01-0.1-0.01
			l-0.26,0.01l-1.04,0.03l-2.08,0.1c-1.39,0.08-2.77,0.16-4.16,0.19c-2.77,0.06-5.54-0.05-8.3-0.2c-2.53-0.15-5.05-0.35-7.57-0.7
			C59.44,96.68,59.78,102.49,59.66,108.61z"/>
		<path class="st2" d="M12.71,88.79c0.01,0,0.01,0,0.02,0l-0.05,0l-0.01,0c0,0,0.01,0,0.01,0.01C12.69,88.79,12.7,88.79,12.71,88.79
			z"/>
		<path class="st1" d="M8.71,111c0.08,0.04,0.24,0.02,0.38,0.02c0.28-0.01,0.56-0.01,0.85-0.03c0.56-0.04,1.13-0.06,1.69-0.12
			l0.84-0.08c0,0,0.21-0.05,0.19-0.04l-0.19-1.7c-0.29-2.26-0.35-4.53-0.39-6.79c-0.02-2.26,0.04-4.53,0.11-6.79
			c0.05-2.23,0.19-4.46,0.37-6.69l-0.11-0.01l-0.84-0.06c-0.56-0.04-1.13-0.06-1.69-0.08c-0.28-0.01-0.56-0.02-0.84-0.02l-0.21,0
			c-0.08,0-0.05,0-0.08,0.01c-0.02,0.01-0.03,0.03-0.04,0.05c-0.01,0.52-0.01,1.27,0.02,1.82c0.06,2.23,0.36,4.46,0.48,6.69
			c0.06,1.13,0.08,2.26,0.05,3.39c-0.03,1.13-0.12,2.26-0.24,3.39c-0.18,1.65-0.38,3.3-0.47,4.95c0,0.56-0.02,1.27-0.03,1.89
			C8.58,110.89,8.63,110.97,8.71,111z"/>
		<polygon class="st2" points="57.33,45.57 57.31,45.57 57.31,45.57 		"/>
		<path class="st1" d="M7.85,103.96c-0.11-1.13-0.21-2.26-0.24-3.39c-0.02-1.13-0.01-2.26,0.05-3.39c0.12-2.22,0.43-4.93,0.49-7.14
			l-2.67-0.22c0.11,1.59,0.24,3.91,0.27,5.5c0.08,2.21,0.13,4.42,0.12,6.63c-0.03,2.21-0.11,4.42-0.38,6.63l-0.14,0.96l2.87,0.02
			C8.14,107.9,8.03,105.61,7.85,103.96z"/>
		<path class="st1" d="M42.77,39.4c0.88-0.11,1.76,0.02,2.64-0.09c1.07-0.11,9.03,0,9.66,0.13c-0.1-1.33-0.17-2.66-0.21-3.99
			c-0.04-1.17-0.02-2.35,0.01-3.52c-0.82-0.03-1.65-0.06-2.47-0.11c-1.15-0.06-2.31-0.18-3.46-0.3c-1.15-0.12-2.31-0.2-3.46-0.22
			c-1-0.03-2,0.01-3,0.09c0.06,0.61,0.14,1.22,0.2,1.83c0.08,0.74,0.14,1.48,0.17,2.22c0.04,0.74,0.02,1.48,0,2.22
			C42.84,38.33,42.81,38.75,42.77,39.4z"/>
		<path class="st3" d="M48.94,30.49c1.15-0.11,2.31-0.24,3.46-0.3c1.07-0.06,2.14-0.1,3.2-0.14c-1.03-5.15-1.73-10.34-2.31-15.54
			C53.01,11.76,52.8,9,52.61,6.23l-0.14-2.05c-0.03-0.56-0.23-1.08-0.52-1.56c-0.31-0.46-0.74-0.87-1.25-1.14
			c-0.26-0.14-0.53-0.24-0.82-0.3C49.6,1.11,49.3,1.1,48.94,1.07c-0.36-0.02-0.66-0.05-0.96-0.02c-0.31,0.02-0.61,0.09-0.9,0.2
			c-0.59,0.21-1.11,0.6-1.5,1.1c-0.4,0.5-0.64,1.11-0.72,1.76c-0.08,0.67-0.12,1.38-0.18,2.06c-0.21,2.76-0.17,5.55-0.31,8.32
			c-0.15,2.77-0.48,5.52-0.85,8.27c-0.36,2.62-0.77,5.23-1.35,7.83c1.1,0.1,2.21,0.15,3.31,0.11
			C46.63,30.69,47.79,30.61,48.94,30.49z"/>
		<path class="st1" d="M44.55,122.76c2.2-0.08,4.4-0.13,6.6-0.12c2.2,0.03,4.4,0.11,6.6,0.38l1.16,0.15l-0.36-2.16
			c-1.64,0.09-3.75-0.54-5.39-0.36c-1.13,0.11-2.25,0.21-3.38,0.24c-1.13,0.03-2.25,0.01-3.38-0.05c-2.21-0.12-5.18-0.2-7.39-0.27
			l0.04,2.23C40.64,122.69,42.96,122.8,44.55,122.76z"/>
		<path class="st1" d="M1.11,111c0.08,0.04,0.22,0.02,0.36,0.02c0.28-0.01,0.55-0.01,0.83-0.03c0.55-0.04,1.1-0.06,1.65-0.12
			c0.24-0.03,0.67-0.05,0.57-0.09c0-0.01-0.01-0.02-0.01-0.02c0,0-0.01,0-0.01-0.01l-0.01-0.1l-0.05-0.41l-0.2-1.66
			c-0.27-2.21-0.35-4.42-0.38-6.63c-0.01-2.21,0.04-4.42,0.12-6.63c0.05-2.18,0.19-4.36,0.37-6.54l-0.09-0.01l-0.83-0.06
			c-0.55-0.04-1.1-0.06-1.65-0.08c-0.25,0-0.65-0.04-0.6,0c-0.01,0.01-0.02,0.02-0.02,0.03c0,0.01,0,0.01,0,0.02l0,0.1L1.14,89.2
			c-0.01,0.55,0,1.11,0.02,1.66c0.06,2.21,0.36,4.42,0.48,6.63c0.13,2.21,0.06,4.42-0.19,6.63c-0.25,2.21-0.54,4.42-0.51,6.63
			C0.95,110.86,1.02,110.95,1.11,111z"/>
		<path class="st2" d="M4.48,88.79c0.01,0,0.03,0-0.02-0.01l-0.02,0c0,0,0.01,0,0.01,0.01C4.45,88.79,4.46,88.79,4.48,88.79z"/>
		<path class="st2" d="M38.06,115.78c0-0.01,0-0.01,0-0.02l0,0.05l0,0.01c0,0,0-0.01,0.01-0.01
			C38.06,115.8,38.06,115.79,38.06,115.78z"/>
		<path class="st3" d="M97.93,103.19c0.06,1.07,0.1,2.15,0.14,3.22c5.13-1.03,10.3-1.74,15.48-2.32c2.75-0.28,5.5-0.49,8.25-0.68
			l2.04-0.14c0.56-0.03,1.08-0.23,1.55-0.52c0.46-0.31,0.86-0.74,1.13-1.25c0.14-0.26,0.24-0.53,0.3-0.82
			c0.07-0.28,0.08-0.59,0.11-0.95c0.02-0.36,0.05-0.67,0.02-0.97c-0.02-0.31-0.09-0.61-0.2-0.9c-0.21-0.59-0.6-1.11-1.1-1.51
			c-0.5-0.4-1.11-0.64-1.75-0.72c-0.67-0.08-1.37-0.12-2.05-0.18c-2.75-0.21-5.53-0.17-8.29-0.31c-2.76-0.15-5.5-0.48-8.24-0.85
			c-2.61-0.37-5.21-0.77-7.8-1.35c-0.1,1.11-0.15,2.21-0.11,3.32c0.02,1.16,0.11,2.32,0.22,3.47
			C97.75,100.87,97.87,102.03,97.93,103.19z"/>
		<path class="st2" d="M38.05,124.07l0,0.02c0,0,0-0.01,0.01-0.01c0-0.01,0-0.02,0-0.03C38.06,124.04,38.05,124.02,38.05,124.07z"/>
		<path class="st1" d="M83.88,99.63c0.18,2.75,0.32,5.5,0.37,8.25c0.44-0.25,0.88-0.49,1.32-0.72c0.8-0.42,1.61-0.82,2.42-1.21
			l0.07-0.03l0.2-0.02c1.48-0.12,2.95-0.2,4.43-0.24c1.17-0.04,2.34-0.02,3.51,0.01c0.03-0.83,0.06-1.66,0.11-2.49
			c0.06-1.16,0.18-2.32,0.29-3.47c0.12-1.16,0.2-2.32,0.22-3.47c0.03-1-0.01-2.01-0.09-3.01c-0.61,0.06-1.22,0.14-1.83,0.2
			c-0.74,0.08-1.48,0.14-2.21,0.17c-0.74,0.04-1.48,0.02-2.21,0c-0.64-0.01-1.29-0.04-1.93-0.08c0.11,0.88,0.2,1.77,0.31,2.65
			c0.11,1.07,0.21,2.14,0.28,3.22c0.08,1.07,0.33,2.14,0.19,3.22c-0.06,0.54-0.14,1.07-0.28,1.61c-0.13,0.54-0.3,1.07-0.57,1.61
			c-0.03,0.05-0.09,0.07-0.14,0.05c-0.02-0.01-0.04-0.03-0.05-0.05c-0.27-0.54-0.44-1.07-0.57-1.61c-0.14-0.54-0.22-1.07-0.28-1.61
			c-0.14-1.07,0.11-2.14,0.19-3.22c0.08-1.07,0.17-2.14,0.28-3.22c0.11-0.89,0.2-1.78,0.31-2.66l-0.13-0.01L88,93.47
			c-0.82-0.37-1.63-0.76-2.43-1.18c-0.65-0.33-1.28-0.69-1.91-1.08c0,0.03,0.01,0.05,0.01,0.08C83.6,94.07,83.7,96.85,83.88,99.63z"
			/>
		<path class="st1" d="M59.93,124.02c0,0,0,0.01-0.01,0.01l-0.1,0.01l-0.41,0.05l-1.65,0.2c-2.2,0.27-4.4,0.36-6.6,0.38
			c-2.2,0.01-4.4-0.04-6.6-0.12c-2.17-0.05-4.34-0.19-6.51-0.37l-0.01,0.09l-0.05,0.83c-0.04,0.55-0.06,1.11-0.08,1.66
			c0,0.25-0.04,0.65,0,0.6c0.01,0.01,0.02,0.02,0.03,0.02c0.01,0,0.01,0,0.02,0l0.1,0l0.41,0.01c0.55,0.01,1.1,0,1.65-0.02
			c2.2-0.06,4.4-0.37,6.6-0.49c2.2-0.13,4.4-0.06,6.6,0.19c2.2,0.25,4.4,0.54,6.6,0.51c0.1,0,0.2-0.07,0.24-0.16
			c0.04-0.08,0.02-0.22,0.02-0.36c-0.01-0.28-0.01-0.55-0.03-0.83c-0.04-0.55-0.06-1.11-0.12-1.66c-0.03-0.24-0.05-0.67-0.09-0.57
			C59.94,124.01,59.93,124.02,59.93,124.02z"/>
		<path class="st0" d="M0.76,110.75c0,0.17,0.1,0.35,0.26,0.42c0.18,0.08,0.32,0.04,0.45,0.06c0.28,0.01,0.55,0.01,0.83,0.03
			c0.55,0.04,1.1,0.06,1.65,0.12l0.41,0.04c0.07,0,0.11,0.02,0.27,0.01c0.13-0.02,0.25-0.07,0.35-0.16c0.1-0.08,0.18-0.2,0.22-0.33
			c0.02-0.05,0.02-0.1,0.03-0.15c0.05,0.01,0.1,0.02,0.15,0.02h2.99c0.02,0.16,0.12,0.3,0.26,0.37c0.18,0.08,0.32,0.03,0.46,0.05
			c0.28,0.01,0.56,0.01,0.85,0.03c0.56,0.04,1.13,0.06,1.69,0.12l0.84,0.08l0.21,0.02c0.02,0,0.09,0.01,0.17,0
			c0.07-0.01,0.14-0.03,0.21-0.05c0.27-0.1,0.47-0.4,0.47-0.69l0.09-0.78c2.1,0.47,4.2,0.64,6.29,0.73c2.12,0.1,4.23-0.18,6.35-0.3
			l6.35-0.4c2-0.16,3.99,0.11,5.99-0.06c0.04,1.76-0.38,4.91-0.65,4.94c-0.34,0.01-0.66,0.23-0.78,0.53
			c-0.03,0.08-0.05,0.16-0.06,0.24c-0.01,0.04-0.01,0.08-0.01,0.12l0,0.05l0.02,0.21l0.06,0.85c0.04,0.57,0.06,1.13,0.08,1.7
			c0.01,0.28,0.02,0.57,0.02,0.85l0,0.21c0,0.06,0.01,0.24,0.07,0.34c0.1,0.21,0.32,0.35,0.54,0.36v2.8c0,0,0,0,0,0.01
			c-0.31,0.03-0.59,0.23-0.71,0.5c-0.03,0.07-0.06,0.15-0.07,0.23c-0.01,0.08-0.01,0.17-0.01,0.19l0.02,0.21l0.06,0.83
			c0.04,0.55,0.06,1.11,0.08,1.66l0.02,0.41c0.01,0.07-0.01,0.12,0.02,0.26c0.03,0.12,0.08,0.24,0.17,0.33
			c0.08,0.09,0.2,0.16,0.32,0.19c0.06,0.02,0.13,0.02,0.18,0.02l0.1,0l0.41-0.01c0.55-0.01,1.1,0,1.65,0.02
			c2.2,0.06,17.61-0.24,19.81-0.21c0.17,0,0.35-0.1,0.42-0.26c0.08-0.18,0.04-0.32,0.06-0.45c0.01-0.28,0.01-0.55,0.03-0.83
			c0.04-0.55,0.06-1.11,0.12-1.66l0.04-0.41c0-0.07,0.02-0.11,0.01-0.27c-0.02-0.13-0.07-0.25-0.16-0.35
			c-0.08-0.1-0.2-0.18-0.33-0.23c-0.05-0.02-0.1-0.02-0.15-0.03c0.01-0.05,0.02-0.1,0.02-0.15v-3c0.16-0.02,0.3-0.12,0.37-0.26
			c0.08-0.18,0.03-0.32,0.05-0.46c0.01-0.28,0.01-0.57,0.03-0.85c0.04-0.57,0.06-1.13,0.12-1.7l0.08-0.85l0.02-0.21
			c0-0.02,0.01-0.09,0-0.17c-0.01-0.07-0.03-0.14-0.05-0.21c-0.1-0.27-0.4-0.47-0.69-0.48c0,0-0.33-3.25-0.29-5.14
			c5.41,0,10.47-0.03,15.88-0.04c1.38-0.02,2.77-0.04,4.15-0.09l2.08-0.08l1.04-0.04l0.16-0.01c0.12-0.01,0.25-0.03,0.37-0.07
			c0.24-0.08,0.45-0.23,0.61-0.42c0.14-0.16,0.24-0.37,0.29-0.58c0.58-0.12,1.15-0.25,1.71-0.4c0.81-0.2,1.61-0.43,2.41-0.66
			c1.45,0.12,2.9,0.19,4.36,0.24c1.48,0.05,2.95,0.02,4.43-0.04l0.99-0.04l-0.03-0.8c5.24,0.04,10.45-0.26,15.64-0.68
			c2.75-0.25,5.49-0.57,8.23-0.91l2.08-0.26c0.82-0.11,1.62-0.45,2.26-0.97c0.64-0.52,1.14-1.2,1.42-1.96
			c0.14-0.38,0.24-0.77,0.27-1.17c0.02-0.2,0.02-0.4,0.02-0.59c0-0.2-0.02-0.35-0.03-0.53c-0.02-0.33-0.03-0.72-0.12-1.11
			c-0.08-0.38-0.2-0.75-0.37-1.09c-0.34-0.69-0.85-1.27-1.45-1.71c-0.62-0.42-1.33-0.71-2.06-0.78l-2.07-0.22
			c-2.74-0.32-5.46-0.89-8.2-1.28c-2.74-0.38-5.49-0.58-8.24-0.74c-2.63-0.14-5.26-0.24-7.91-0.16l0.02-0.25l-0.45-0.04
			c-0.74-0.06-1.48-0.16-2.21-0.24c-0.74-0.08-1.48-0.14-2.21-0.17c-0.74-0.04-1.48-0.02-2.21,0c-0.71,0.01-1.42,0.04-2.12,0.09
			c-0.8-0.25-1.61-0.49-2.42-0.7c-0.8-0.21-1.61-0.39-2.43-0.53c-0.06-0.09-0.14-0.17-0.24-0.22c-0.12-0.07-0.29-0.11-0.4-0.11
			l-0.26-0.02l-1.04-0.06l-2.07-0.17c-1.38-0.13-2.77-0.25-4.15-0.34c-2.77-0.16-5.54-0.15-8.31-0.09c-2.53,0.06-5.07,0.17-7.6,0.43
			c0-4.9-0.02-9.79-0.08-14.69c-0.09-6.57-0.28-13.14-0.46-19.7c-0.08-3.28-0.2-6.57-0.31-9.85l-0.02-0.62c0-0.02,0-0.2-0.04-0.31
			c-0.03-0.13-0.08-0.25-0.15-0.36c-0.13-0.22-0.94-1.79-1.1-2.43c-0.2-0.81-0.43-1.62-0.66-2.42c0.12-1.46,0.19-2.92,0.24-4.38
			c0.05-1.48,0.02-2.96-0.04-4.45l-0.04-1c0,0-1.05-10.46-1.47-15.68c-0.25-2.76-0.56-5.51-0.91-8.26l-0.26-2.09
			c-0.11-0.82-0.45-1.63-0.97-2.27c-0.52-0.64-1.2-1.14-1.95-1.42c-0.38-0.14-0.77-0.24-1.16-0.27C49.86,0,49.66,0,49.47,0
			c-0.19,0-0.35,0.02-0.53,0.03c-0.33,0.02-0.72,0.03-1.1,0.12c-0.38,0.08-0.74,0.2-1.08,0.37c-0.68,0.34-1.26,0.85-1.7,1.46
			c-0.42,0.62-0.7,1.33-0.77,2.07l-0.22,2.08c-0.32,2.75-0.89,5.49-1.27,8.23c-0.37,2.75-0.58,5.51-0.74,8.28
			c-0.14,2.64-0.41,7.92-0.41,7.92l-0.04,0.46c-0.06,0.74-0.16,1.48-0.24,2.22c-0.08,0.74-0.14,1.48-0.17,2.22
			c-0.04,0.74-0.02,1.48,0,2.22c0.01,0.71,0.04,1.42,0.09,2.13c-0.25,0.8-0.49,1.61-0.69,2.44c-0.2,0.79-0.69,2.55-0.74,2.65
			c-0.09,0.13-0.12,0.36-0.11,0.46l0,0.62c-0.02,3.29-0.07,6.57-0.16,9.85c-0.09,3.28-0.24,6.57-0.39,9.85l-0.43,9.85
			c-0.16,4.77-0.24,9.16-0.27,13.94c-1.81,0-3.59,0.12-5.38-0.02l-6.51-0.4c-2.17-0.12-4.34-0.41-6.51-0.31
			c-2.13,0.09-4.26,0.25-6.4,0.72c-0.02-0.26-0.03-0.52-0.05-0.78c-0.01-0.34-0.23-0.66-0.53-0.78c-0.08-0.03-0.16-0.05-0.24-0.06
			c-0.04-0.01-0.08-0.01-0.12-0.01l-0.05,0l-0.21,0.02l-0.84,0.06c-0.56,0.04-1.13,0.06-1.69,0.08C9.64,87.99,9.36,88,9.08,88.01
			l-0.21,0c-0.06,0-0.24,0.01-0.33,0.07c-0.21,0.1-0.34,0.32-0.36,0.54H5.38c0,0,0,0-0.01,0c-0.03-0.31-0.23-0.6-0.5-0.72
			c-0.07-0.03-0.15-0.06-0.23-0.07c-0.08-0.01-0.17-0.01-0.19-0.01l-0.21,0.02L3.42,87.9c-0.55,0.04-1.1,0.06-1.65,0.08L1.36,88
			c-0.07,0.01-0.12-0.01-0.26,0.02c-0.12,0.03-0.24,0.08-0.33,0.17c-0.09,0.09-0.16,0.2-0.19,0.32c-0.02,0.06-0.02,0.13-0.02,0.18
			l0,0.1l0.01,0.41c0.01,0.55,0,1.11-0.02,1.66c-0.06,2.21-0.36,4.42-0.48,6.63c-0.13,2.21-0.06,4.42,0.19,6.63
			C0.5,106.33,0.79,108.54,0.76,110.75z M97.53,92.92c2.59,0.58,5.19,0.99,7.8,1.35c2.74,0.37,5.48,0.69,8.24,0.85
			c2.76,0.15,5.53,0.1,8.29,0.31c0.68,0.06,1.39,0.1,2.05,0.18c0.64,0.08,1.25,0.32,1.75,0.72c0.5,0.4,0.89,0.92,1.1,1.51
			c0.11,0.29,0.18,0.59,0.2,0.9c0.03,0.3,0,0.61-0.02,0.97c-0.02,0.36-0.03,0.67-0.11,0.95c-0.06,0.29-0.17,0.57-0.3,0.82
			c-0.27,0.51-0.67,0.94-1.13,1.25c-0.48,0.3-0.99,0.49-1.55,0.52l-2.04,0.14c-2.76,0.19-5.51,0.4-8.25,0.68
			c-5.18,0.58-10.34,1.29-15.48,2.32c-0.04-1.07-0.08-2.15-0.14-3.22c-0.06-1.16-0.18-2.32-0.29-3.47c-0.12-1.16-0.2-2.32-0.22-3.47
			C97.38,95.14,97.43,94.03,97.53,92.92z M83.66,91.21c0.63,0.38,1.26,0.74,1.91,1.08c0.8,0.42,1.61,0.81,2.43,1.18l0.08,0.04
			l0.13,0.01c-0.11,0.89-0.21,1.78-0.31,2.66c-0.11,1.07-0.21,2.14-0.28,3.22c-0.08,1.07-0.33,2.14-0.19,3.22
			c0.06,0.54,0.14,1.07,0.28,1.61c0.13,0.54,0.3,1.07,0.57,1.61c0.01,0.02,0.03,0.04,0.05,0.05c0.05,0.03,0.12,0.01,0.14-0.05
			c0.27-0.54,0.44-1.07,0.57-1.61c0.14-0.54,0.22-1.07,0.28-1.61c0.14-1.07-0.11-2.14-0.19-3.22c-0.08-1.07-0.17-2.14-0.28-3.22
			c-0.11-0.88-0.2-1.77-0.31-2.65c0.64,0.04,1.29,0.07,1.93,0.08c0.74,0.02,1.48,0.04,2.21,0c0.74-0.03,1.48-0.09,2.21-0.17
			c0.61-0.06,1.22-0.14,1.83-0.2c0.08,1,0.12,2.01,0.09,3.01c-0.02,1.16-0.11,2.32-0.22,3.47c-0.11,1.16-0.24,2.32-0.29,3.47
			c-0.05,0.83-0.08,1.66-0.11,2.49c-1.17-0.03-2.34-0.05-3.51-0.01c-1.48,0.05-2.95,0.12-4.43,0.24l-0.2,0.02l-0.07,0.03
			c-0.81,0.39-1.62,0.79-2.42,1.21c-0.44,0.23-0.88,0.47-1.32,0.72c-0.05-2.75-0.19-5.5-0.37-8.25c-0.18-2.78-0.27-5.56-0.21-8.34
			C83.67,91.26,83.66,91.24,83.66,91.21z M38.05,115.82l0-0.05c0,0.01,0,0.01,0,0.02C38.06,115.79,38.06,115.8,38.05,115.82
			C38.05,115.82,38.05,115.82,38.05,115.82L38.05,115.82z M60.04,124.58c0.06,0.55,0.08,1.11,0.12,1.66
			c0.02,0.28,0.02,0.55,0.03,0.83c0,0.14,0.02,0.29-0.02,0.36c-0.04,0.09-0.14,0.16-0.24,0.16c-2.2,0.03-4.4-0.26-6.6-0.51
			c-2.2-0.24-4.4-0.32-6.6-0.19c-2.2,0.12-4.4,0.43-6.6,0.49c-0.55,0.02-1.1,0.03-1.65,0.02l-0.41-0.01l-0.1,0
			c-0.02,0-0.02,0-0.02,0c-0.01,0-0.02-0.01-0.03-0.02c-0.03,0.06,0-0.35,0-0.6c0.02-0.55,0.04-1.11,0.08-1.66l0.05-0.83l0.01-0.09
			c2.17,0.18,4.34,0.32,6.51,0.37c2.2,0.08,4.4,0.13,6.6,0.12c2.2-0.03,4.4-0.11,6.6-0.38l1.65-0.2l0.41-0.05l0.1-0.01
			c0.01,0,0-0.01,0.01-0.01c0-0.01,0.01-0.01,0.02-0.01C59.99,123.91,60.01,124.34,60.04,124.58z M38.05,124.09l0-0.02
			c0-0.05,0.01-0.03,0.01-0.02C38.06,124.06,38.06,124.07,38.05,124.09C38.05,124.09,38.05,124.09,38.05,124.09z M39.02,120.58
			c2.21,0.06,5.18,0.15,7.39,0.27c1.13,0.06,2.25,0.08,3.38,0.05c1.13-0.03,2.25-0.12,3.38-0.24c1.64-0.18,3.75,0.44,5.39,0.36
			l0.36,2.16l-1.16-0.15c-2.2-0.27-4.4-0.36-6.6-0.38c-2.2-0.01-4.4,0.04-6.6,0.12c-1.59,0.04-3.91-0.06-5.49,0.05L39.02,120.58z
			 M67.01,91.26c2.77,0.15,5.53,0.26,8.3,0.2c1.39-0.04,2.77-0.12,4.16-0.19l2.08-0.1l1.04-0.03l0.26-0.01c0.06,0,0.06,0,0.1,0.01
			c0.06,0.02,0.1,0.08,0.1,0.14c0.06,2.78-0.04,5.56-0.21,8.34c-0.18,2.69-0.32,5.38-0.37,8.07l-0.76-0.01l-2.08-0.01
			c-1.38-0.01-2.77,0.03-4.15,0.05c-5.41,0.18-10.42,0.19-15.82,0.86c0.12-6.12-0.22-11.93-0.22-18.05
			C61.96,90.91,64.49,91.1,67.01,91.26z M57.33,45.57l-0.02,0c0,0,0,0,0,0L57.33,45.57z M43.52,22.77c0.37-2.75,0.69-5.5,0.85-8.27
			c0.14-2.77,0.1-5.56,0.31-8.32c0.06-0.69,0.1-1.39,0.18-2.06c0.08-0.64,0.32-1.25,0.72-1.76c0.4-0.5,0.92-0.89,1.5-1.1
			c0.29-0.11,0.59-0.18,0.9-0.2c0.3-0.03,0.6,0,0.96,0.02c0.36,0.02,0.66,0.03,0.95,0.11c0.29,0.06,0.56,0.17,0.82,0.3
			c0.51,0.27,0.94,0.67,1.25,1.14c0.29,0.48,0.49,1,0.52,1.56l0.14,2.05c0.19,2.77,0.4,5.53,0.68,8.29
			c0.58,5.2,1.28,10.39,2.31,15.54c-1.07,0.04-2.14,0.08-3.2,0.14c-1.15,0.06-2.31,0.18-3.46,0.3c-1.15,0.12-2.31,0.2-3.46,0.22
			c-1.1,0.04-2.21-0.01-3.31-0.11C42.75,28.01,43.15,25.39,43.52,22.77z M42.85,35.46c-0.03-0.74-0.09-1.48-0.17-2.22
			c-0.06-0.61-0.14-1.22-0.2-1.83c1-0.08,2-0.12,3-0.09c1.15,0.02,2.31,0.11,3.46,0.22c1.15,0.11,2.31,0.24,3.46,0.3
			c0.82,0.05,1.65,0.08,2.47,0.11c-0.03,1.17-0.05,2.35-0.01,3.52c0.04,1.33,0.11,2.66,0.21,3.99c-0.62-0.14-8.59-0.24-9.66-0.13
			c-0.88,0.11-1.76-0.03-2.64,0.09c0.04-0.65,0.07-1.07,0.08-1.72C42.88,36.94,42.89,36.2,42.85,35.46z M41.54,42.62
			c0.42-0.8,0.81-1.62,1.18-2.44c0,0,1.81-0.01,2.7,0.1c1.07,0.11,9.09,0.03,9.74-0.09c0.38,0.82,0.78,1.63,1.2,2.43
			c0.26,0.5,0.53,1,0.81,1.5l-0.26,0l-0.61,0.01l-2.45,0.06l-4.91,0.13l-4.91,0.11l-2.45,0.05l-0.61,0.01l-0.31,0
			c-0.03,0-0.09,0-0.16,0.01C40.86,43.88,41.21,43.25,41.54,42.62z M39.92,95.26c0.22-6.57,0.4-13.13,0.4-19.7l-0.09-9.86
			c-0.04-3.29-0.07-6.57-0.05-9.86c0.03-3.28,0.09-6.57,0.19-9.85l0.02-0.62c0-0.11,0.01-0.09,0.03-0.13
			c0.02-0.03,0.04-0.05,0.07-0.06c-0.01-0.02,0.29,0,0.47,0l0.61,0.01l2.45,0.06l4.91,0.11l4.91,0.13l2.45,0.06l0.61,0.01l0.17,0
			l0,0.43c0,3.29,0,6.57,0.03,9.86c0.05,6.57,0.09,13.14,0.23,19.71c0.31,13.1,0.78,26.2,1.6,39.29l-0.71-0.08
			c-2.25-0.29-4.51-0.35-6.76-0.39c-2.25-0.02-4.51,0.04-6.76,0.12c-1.92,0.04-3.84,0.16-5.76,0.31
			C39.39,108.29,39.7,101.77,39.92,95.26z M44.71,116.3c2.25,0.08,4.51,0.13,6.76,0.12c2.25-0.04,4.51-0.1,6.76-0.39l1.69-0.19
			c0-0.01-0.02-0.04-0.01-0.06c0,0,0.01-0.01,0.01-0.01c0,0,0.01-0.01,0.01,0.04l0.02,0.21l0.08,0.85c0.06,0.57,0.08,1.13,0.12,1.7
			c0.02,0.28,0.02,0.57,0.03,0.85c0,0.14,0.02,0.3-0.02,0.38c-0.03,0.08-0.11,0.13-0.19,0.15c-0.78-0.01-1.2-0.06-1.88-0.03
			c-1.64-0.09-3.29-0.28-4.93-0.47c-1.13-0.11-15.28,0.29-15.29,0.27c-0.01-0.03-0.01,0.01-0.01-0.08l0-0.21
			c0-0.28,0.01-0.57,0.02-0.85c0.02-0.57,0.04-1.13,0.08-1.7l0.05-0.85l0.01-0.11C40.26,116.11,42.49,116.24,44.71,116.3z
			 M20.04,90.64c2.17,0.18,4.35-0.03,6.52-0.08l6.52-0.17c1.8-0.07,3.59-0.14,5.39-0.22c-0.01,1.68-0.02,3.37-0.02,5.05
			c-0.01,4.69,0.03,8.94,0.14,13.63c-2-0.1-4,0.27-6,0.18l-6.36-0.17c-2.12-0.05-4.24-0.26-6.36-0.08
			c-2.08,0.16-6.15,0.26-6.15,0.26c0.29-2.26,0.35-4.53,0.39-6.79c0.02-2.26-0.04-4.53-0.12-6.79c-0.04-1.92-0.16-3.84-0.31-5.76
			C15.8,90.24,17.92,90.48,20.04,90.64z M12.67,88.78l0.05,0c0,0-0.01,0-0.02,0C12.7,88.79,12.69,88.79,12.67,88.78
			C12.67,88.79,12.67,88.78,12.67,88.78L12.67,88.78z M8.59,108.91c0.09-1.65,0.28-3.3,0.47-4.95c0.11-1.13,0.21-2.26,0.24-3.39
			c0.02-1.13,0.01-2.26-0.05-3.39c-0.12-2.23-0.42-4.46-0.48-6.69c-0.03-0.55-0.02-1.3-0.02-1.82c0.01-0.02,0.02-0.04,0.04-0.05
			c0.03-0.01-0.01-0.01,0.08-0.01l0.21,0c0.28,0,0.56,0.01,0.84,0.02c0.56,0.02,1.13,0.04,1.69,0.08l0.84,0.06l0.11,0.01
			c-0.18,2.23-0.32,4.46-0.37,6.69c-0.08,2.26-0.13,4.53-0.11,6.79c0.04,2.26,0.1,4.53,0.39,6.79l0.19,1.7
			c0.01-0.01-0.19,0.04-0.19,0.04l-0.84,0.08c-0.56,0.06-1.13,0.08-1.69,0.12c-0.28,0.02-0.56,0.02-0.85,0.03
			c-0.14,0-0.3,0.02-0.38-0.02c-0.08-0.03-0.13-0.11-0.15-0.2C8.57,110.18,8.59,109.48,8.59,108.91z M5.5,108.57
			c0.27-2.21,0.35-4.42,0.38-6.63c0.01-2.21-0.04-4.42-0.12-6.63c-0.04-1.59-0.16-3.91-0.27-5.5l2.67,0.22
			c-0.06,2.22-0.38,4.93-0.49,7.14c-0.06,1.13-0.08,2.26-0.05,3.39c0.03,1.13,0.12,2.26,0.24,3.39c0.18,1.65,0.29,3.94,0.37,5.59
			l-2.87-0.02L5.5,108.57z M4.46,88.78c0.05,0,0.03,0.01,0.02,0.01c-0.01,0-0.02,0-0.03,0c0,0-0.01,0-0.01-0.01L4.46,88.78z
			 M1.46,104.12c0.24-2.21,0.32-4.42,0.19-6.63c-0.12-2.21-0.43-4.42-0.48-6.63c-0.02-0.55-0.03-1.11-0.02-1.66l0.01-0.41l0-0.1
			c0-0.02,0-0.02,0-0.02c0-0.01,0.01-0.02,0.02-0.03c-0.06-0.03,0.35,0,0.6,0c0.55,0.02,1.1,0.04,1.65,0.08l0.83,0.06l0.09,0.01
			c-0.18,2.18-0.32,4.36-0.37,6.54c-0.08,2.21-0.13,4.42-0.12,6.63c0.03,2.21,0.11,4.42,0.38,6.63l0.2,1.66l0.05,0.41l0.01,0.1
			c0,0.01,0.01,0,0.01,0.01c0.01,0,0.01,0.01,0.01,0.02c0.1,0.04-0.33,0.06-0.57,0.09c-0.55,0.06-1.1,0.08-1.65,0.12
			c-0.28,0.02-0.55,0.02-0.83,0.03c-0.14,0-0.28,0.02-0.36-0.02c-0.09-0.04-0.16-0.14-0.16-0.24
			C0.92,108.54,1.21,106.33,1.46,104.12z"/>
	</g>
</g>
</svg>
