<?xml version="1.0" encoding="utf-8"?>
<!-- Generator: Adobe Illustrator 24.1.2, SVG Export Plug-In . SVG Version: 6.00 Build 0)  -->
<svg version="1.1" id="Layer_1" xmlns="http://www.w3.org/2000/svg" xmlns:xlink="http://www.w3.org/1999/xlink" x="0px" y="0px"
	 viewBox="0 0 128 128" style="enable-background:new 0 0 128 128;" xml:space="preserve">
<style type="text/css">
	.st0{fill:#2D2D2D;}
	.st1{fill:#B79563;}
	.st2{fill:#D3AB76;}
	.st3{fill:#EDBF7E;}
	.st4{fill:#D6A15B;}
</style>
<g>
	<g>
		<path class="st0" d="M90.21,0.32v2.61h-7.34l-0.84,4.74c0.82-0.88,1.98-1.32,3.47-1.32c1.7,0,3.08,0.55,4.13,1.66
			s1.58,2.56,1.58,4.37c0,1.95-0.61,3.53-1.84,4.76c-1.23,1.23-2.81,1.84-4.74,1.84c-1.83,0-3.3-0.5-4.43-1.51
			c-1.13-1.01-1.73-2.36-1.8-4.07h2.97c0.07,0.95,0.41,1.7,1.03,2.26c0.61,0.56,1.39,0.84,2.32,0.84c1.09,0,1.93-0.35,2.53-1.04
			c0.6-0.69,0.89-1.67,0.89-2.93c0-1.23-0.31-2.18-0.92-2.85C86.6,9,85.75,8.66,84.66,8.66c-1.32,0-2.34,0.55-3.08,1.66l-2.63-0.08
			l1.76-9.92H90.21z"/>
		<path class="st0" d="M97.74,15.08v3.55h-3.58v-3.55H97.74z"/>
		<path class="st0" d="M112.16,0.32v2.61h-7.34l-0.84,4.74c0.82-0.88,1.98-1.32,3.47-1.32c1.7,0,3.08,0.55,4.13,1.66
			c1.05,1.11,1.58,2.56,1.58,4.37c0,1.95-0.61,3.53-1.84,4.76c-1.23,1.23-2.81,1.84-4.74,1.84c-1.83,0-3.3-0.5-4.43-1.51
			c-1.13-1.01-1.73-2.36-1.8-4.07h2.97c0.07,0.95,0.41,1.7,1.03,2.26c0.61,0.56,1.39,0.84,2.32,0.84c1.09,0,1.93-0.35,2.53-1.04
			c0.6-0.69,0.89-1.67,0.89-2.93c0-1.23-0.31-2.18-0.92-2.85c-0.61-0.68-1.46-1.01-2.55-1.01c-1.32,0-2.34,0.55-3.08,1.66
			l-2.63-0.08l1.76-9.92H112.16z"/>
		<path class="st0" d="M127.58,4.89h-2.89c-0.32-1.68-1.25-2.53-2.79-2.53c-0.44,0-0.84,0.09-1.21,0.26
			c-0.37,0.18-0.68,0.38-0.92,0.6c-0.25,0.23-0.46,0.56-0.66,0.99c-0.19,0.43-0.34,0.79-0.43,1.08c-0.1,0.29-0.19,0.71-0.29,1.25
			c-0.1,0.54-0.15,0.92-0.17,1.13c-0.02,0.21-0.05,0.56-0.1,1.05c1.02-1.51,2.42-2.26,4.21-2.26c1.7,0,3.07,0.56,4.12,1.68
			c1.04,1.12,1.57,2.59,1.57,4.39c0,1.88-0.58,3.42-1.75,4.63c-1.17,1.21-2.65,1.82-4.46,1.82c-2.12,0-3.75-0.8-4.89-2.4
			c-1.14-1.6-1.71-3.88-1.71-6.84c0-3.07,0.6-5.47,1.81-7.18c1.21-1.72,2.89-2.58,5.03-2.58c1.56,0,2.83,0.43,3.82,1.29
			C126.82,2.15,127.4,3.35,127.58,4.89z M121.71,8.87c-0.98,0-1.76,0.34-2.34,1.01c-0.58,0.68-0.87,1.58-0.87,2.7
			c0,1.18,0.3,2.12,0.91,2.84c0.6,0.72,1.4,1.08,2.38,1.08c0.96,0,1.74-0.35,2.33-1.05c0.59-0.7,0.88-1.63,0.88-2.79
			c0-1.14-0.3-2.06-0.9-2.75C123.51,9.22,122.71,8.87,121.71,8.87z"/>
	</g>
	<g>
		<path class="st1" d="M37.42,26.09c-1.03-0.05-2.07-0.04-3.1-0.02c-1.15,0.04-9.07,0.11-9.91,0.14c0,0,0.09,9.89,0.03,10.82
			c0.95-0.12,2.17,0.08,3.13-0.03c1.09-0.11,9.03,0.04,9.46,0.22c-0.05-0.89-0.07-1.78-0.09-2.68c-0.03-0.98-0.02-1.95,0.04-2.93
			C37.07,29.78,37.32,27.94,37.42,26.09z"/>
		<path class="st2" d="M22.72,42.59l1.47-0.03l2.94-0.06c1.96-0.05,3.92-0.08,5.88-0.11l5.88-0.08l0.91-0.01
			c-0.38-0.57-0.74-1.14-1.09-1.72c-0.55-0.91-0.88-1.42-1.38-2.35l-0.05-0.09c-0.44,0.19-1.09-0.09-1.53,0.02
			c-0.54,0.14-10.5,0.02-11.46-0.11l-0.01,0.08l-0.06,0.1c-0.51,0.91-0.62,1.4-1.17,2.3c-0.42,0.7-0.86,1.4-1.32,2.09l0.25-0.01
			L22.72,42.59z"/>
		<path class="st3" d="M11,111.84l0,0.06l0,0.02c0-0.01,0,0.03,0-0.01C11.01,111.88,11,111.86,11,111.84z"/>
		<path class="st1" d="M21.72,78.53l0.26,11.8c0.12,7.87,0.07,15.74-0.19,23.61l-0.09,2.95l-0.02,0.74l0,0.12l1.17,0.03l5.88,0.17
			c3.9,0.12,7.61,0.04,11.51,0.05l0-0.06l0-0.18l0-0.37l0-0.74l-0.01-1.48c0,0,0.12-6.79,0.05-8.75l-0.36-11.8
			c-0.29-7.87-0.35-15.74-0.39-23.61c-0.03-7.87,0.05-15.74,0.12-23.61l0.02-2.95l0-0.47l-0.79-0.01L33,43.9
			c-1.96-0.02-3.92-0.06-5.88-0.11l-2.94-0.06l-1.47-0.03l-0.73-0.02l-0.28-0.01l0,0.19l-0.01,0.74l-0.03,1.48l-0.06,2.95
			c-0.04,1.97-0.07,3.93-0.09,5.9c-0.04,3.93-0.04,7.87-0.01,11.8C21.53,70.67,21.63,74.6,21.72,78.53z"/>
		<path class="st1" d="M22.85,118.63l-1.04,0.03c0.29,0.35,0.92,2.66,0.92,2.66c1.08-0.12,3.28-0.06,4.36-0.17
			c1.26-0.11,11.39,0.16,11.92,0.37c0,0,0.76-2.76,1.16-3.22c-3.91,0.01-7.53,0.04-11.44,0.15L22.85,118.63z"/>
		<path class="st3" d="M29.33,1.26c-0.01,0-0.03,0-0.03,0c0.01,0.01,0.01,0.01,0.02,0.01C29.32,1.27,29.32,1.27,29.33,1.26z"/>
		<path class="st4" d="M30.87,25.24c1.15,0.1,2.31,0.18,3.46,0.21c1.1,0.03,2.2,0.04,3.3-0.02c-0.85-4.37-2.06-8.62-2.86-13
			c-0.39-2.25-0.63-4.54-1.14-6.76c-0.25-1.11-0.54-2.22-0.87-3.31l-0.25-0.82l-0.13-0.38c-0.02-0.05-0.06-0.08-0.11-0.09
			c-0.02-0.01-0.04-0.01-0.06-0.01l-0.15,0.01l-0.43,0.03l-0.85,0.06l-0.85,0.06l-0.43,0.03c-0.03,0-0.07,0.01-0.11,0.01
			c0.01,0.14-0.12,0.76-0.18,1.13c-0.2,1.13-0.42,2.24-0.64,3.36c-0.43,2.24-0.87,4.48-1.37,6.7c-0.52,2.22-1.04,4.44-1.6,6.65
			l-0.82,3.32c-0.19,0.81-0.38,1.61-0.54,2.42c1.06,0.04,2.12,0.07,3.18,0.13C28.56,25.04,29.71,25.15,30.87,25.24z"/>
		<path class="st3" d="M3.87,111.8c0.01,0,0.04-0.01-0.03,0L3.87,111.8z"/>
		<path class="st1" d="M10.82,110.17l0.12,1.03c0.07-0.01,0.13-0.01,0.2-0.02c0.87-0.06,1.75-0.08,2.62-0.05
			c0.87,0.02,1.75,0.05,2.62,0.11c1.39,0.09,2.78,0.22,4.17,0.45c-0.18-6.28-0.22-12.56-0.16-18.85c-3.03,0.46-6.05,0.64-9.08,0.72
			c0,0.28-0.01,0.55-0.02,0.83l-0.09,2.63c-0.05,1.75-0.19,3.5-0.38,5.26c-0.18,1.75-0.27,3.5-0.21,5.26
			C10.64,108.42,10.71,109.3,10.82,110.17z"/>
		<path class="st1" d="M36.52,122.3c-0.63,0.14-4.4,0.17-5.65,0.09c-1.26-0.08-2.51-0.17-3.77-0.29c-1.06-0.11-3.2-0.01-4.25-0.13
			c0.04,0.17,0.61,1.78,0.53,1.89c1.14-0.09,2.28-0.16,3.42-0.19c1.88-0.07,3.77-0.15,5.65-0.12c0.94,0.02,1.88,0.04,2.82,0.09
			c0.94,0.05,1.88,0.17,2.82,0.29l0.55,0.06c-0.14-0.16,0.24-1.46,0.23-1.67C38.86,122.19,37.02,122.19,36.52,122.3z"/>
		<path class="st1" d="M1.18,111.98l0.35-0.01l0.71-0.03c0.47-0.03,0.93-0.06,1.4-0.12l-0.02-0.17l-0.1-0.71l-0.2-1.42
			c-0.12-0.95-0.23-1.89-0.29-2.84c-0.05-0.95-0.08-1.89-0.09-2.84c-0.03-1.89,0.05-3.78,0.12-5.67c0.05-1.75,0.18-3.51,0.34-5.26
			l-0.12-0.01l-0.71-0.06c-0.47-0.04-0.94-0.06-1.41-0.08l0,0l0,0.1l-0.01,0.71c-0.01,0.47,0,0.95,0.02,1.42
			c0.06,1.89,0.36,3.78,0.48,5.67c0.13,1.89,0.07,3.78-0.19,5.67c-0.25,1.88-0.53,3.76-0.51,5.63l0.05,0L1.18,111.98z"/>
		<path class="st1" d="M6.9,110.25c0,0,1.63,0.31,1.88,0.51c0.28,0.22,0.56,0.44,0.84,0.67l0.14-1.26c0.1-0.88,0.18-1.75,0.22-2.63
			c0.06-1.75-0.03-3.5-0.21-5.26c-0.19-1.75-0.33-3.5-0.38-5.26L9.3,94.4c-0.01-0.26-0.01-0.52-0.02-0.77
			c-0.17,0.13-0.33,0.26-0.5,0.39c-0.26,0.2-0.52,0.39-0.78,0.57c-0.27,0.18-0.75,2.81-0.64,3.89c0.11,1.26,0.21,2.52,0.28,3.79
			c0.08,1.26,0.05,5.05-0.09,5.68C7.44,108.49,7.11,109.72,6.9,110.25z"/>
		<path class="st1" d="M6.41,98.49c0.11-1.06,0.18-2.81,0.29-3.87c-0.17,0.04-1.94,0.21-2.04,0.13c0.09,1.15,0.16,2.29,0.19,3.44
			c0.07,1.89,0.15,3.78,0.12,5.67c-0.02,0.95-0.04,1.89-0.09,2.84c-0.05,0.95-0.17,1.89-0.29,2.84L4.51,110
			c0.23,0.05,1.62,0.05,1.77,0.07C6.09,109.57,6.3,99.75,6.41,98.49z"/>
		<path class="st4" d="M115.62,106.18c2.24-0.39,4.52-0.64,6.74-1.15c1.11-0.26,2.21-0.54,3.3-0.88l0.82-0.25l0.38-0.13
			c0.05-0.02,0.08-0.06,0.09-0.11c0.01-0.02,0.01-0.04,0.01-0.07l-0.01-0.15l-0.03-0.43l-0.06-0.86l-0.06-0.86l-0.03-0.43
			c0-0.03-0.01-0.07-0.01-0.11c-0.14,0.01-0.75-0.12-1.13-0.18c-1.12-0.2-2.24-0.42-3.35-0.65c-2.23-0.44-4.46-0.88-6.68-1.37
			c-2.21-0.52-4.42-1.04-6.62-1.6l-3.3-0.82c-0.8-0.19-1.6-0.38-2.41-0.54c-0.04,1.07-0.07,2.13-0.12,3.2
			c-0.07,1.16-0.17,2.31-0.26,3.47c-0.1,1.16-0.18,2.31-0.21,3.47c-0.02,1.1-0.04,2.21,0.02,3.31
			C107.03,108.2,111.26,106.99,115.62,106.18z"/>
		<path class="st2" d="M85.36,95.33c0.03,2.27,0.13,4.54,0.2,6.81c0.08,2.27,0.19,4.54,0.23,6.81l0.04,1.7l0.02,0.61
			c0.58-0.39,1.16-0.76,1.75-1.12c0.91-0.56,1.83-1.08,2.76-1.59l0.09-0.05c-0.19-0.44-0.35-8.45-0.24-9.54
			c0.11-0.96,0.21-1.93,0.33-2.89l-0.08-0.01l-0.1-0.06c-0.91-0.51-1.81-1.04-2.71-1.58c-0.78-0.47-1.55-0.96-2.32-1.48l0,0.68
			L85.36,95.33z"/>
		<path class="st3" d="M126.74,100.69c0,0-0.01,0.01-0.01,0.02c0.01,0.01,0.01,0.01,0.01,0.01
			C126.74,100.72,126.74,100.7,126.74,100.69z"/>
		<path class="st1" d="M91.44,102.24c0.08,1.09,0.05,4.38-0.09,4.92c-0.1,0.43-0.23,0.86-0.42,1.3c0.89-0.05,1.78-0.07,2.67-0.09
			c0.97-0.03,1.94-0.02,2.92,0.04c1.84,0.09,3.67,0.34,5.51,0.45c0.05-1.04,0.04-2.08,0.02-3.11c-0.04-1.16-0.12-2.31-0.21-3.47
			c-0.09-1.16-0.2-2.31-0.26-3.47c-0.04-0.84-0.07-1.68-0.1-2.52l-2.03,0.06c-0.97,0-1.94,0.02-2.92,0
			c-0.97-0.02-1.94-0.05-2.92-0.1c-0.92-0.04-1.85-0.09-2.77-0.16c0.12,0.96,0.22,1.91,0.33,2.87
			C91.26,100.05,91.36,101.15,91.44,102.24z"/>
		<path class="st1" d="M81.24,111.09l2.99,0.05l0.01-0.49l0.04-1.7c0.04-2.27,0.16-4.54,0.23-6.81c0.06-2.27,0.17-4.54,0.2-6.81
			l0.02-1.7l0-0.77l-0.38,0c-1.13-0.01-2.26,0.01-3.39,0.02c-2.26,0.03-4.52,0.12-6.78,0.22l-6.78,0.26
			c-4.52,0.11-9.04,0.05-13.56-0.05c-4.21-0.1-8.42-0.28-12.63-0.58c-0.02,0.64-0.03,1.27-0.06,1.91l-0.36,11.8
			c-0.06,1.82-0.08,3.63-0.12,5.44c9-0.6,18-0.83,27-0.91C72.2,110.94,76.72,111.02,81.24,111.09z"/>
		<path class="st3" d="M40.36,124.7l0-0.03C40.36,124.65,40.35,124.61,40.36,124.7C40.36,124.7,40.36,124.7,40.36,124.7z"/>
		<path class="st1" d="M35.27,125.5c-0.94,0.05-1.88,0.08-2.82,0.09c-1.88,0.03-3.77-0.05-5.65-0.12c-1.75-0.05-3.49-0.18-5.24-0.34
			l-0.01,0.12l-0.05,0.71c-0.04,0.47-0.06,0.95-0.08,1.42l0,0.01l0.1,0l0.71,0.01c0.47,0.01,0.94,0,1.41-0.02
			c1.88-0.06,3.77-0.37,5.65-0.49c1.88-0.13,3.77-0.07,5.65,0.19c1.87,0.25,3.74,0.53,5.61,0.51l0-0.05l0-0.18l-0.01-0.35
			l-0.03-0.71c-0.03-0.47-0.06-0.94-0.12-1.41l-0.17,0.02l-0.71,0.1l-1.41,0.2C37.15,125.33,36.21,125.44,35.27,125.5z"/>
		<path class="st0" d="M0.76,112.03c0,0.08,0.07,0.15,0.15,0.15l0.09,0l0.18,0l0.35,0.01l0.71,0.03c0.47,0.03,0.94,0.06,1.41,0.12
			l0.18,0.02l0.04,0c0.02,0,0,0.01,0.12-0.01c0.09-0.02,0.16-0.08,0.21-0.16c0.05-0.06,0.05-0.21,0.05-0.19l0.04-0.35l0.1-0.71
			l0.05-0.35c0.18,0.17,2.18,0.78,2.38,0.73c0.19,0.05,0.38,0.09,0.57,0.15c0.31,0.1,0.62,0.19,0.93,0.27
			c0.42,0.11,0.85,0.21,1.28,0.3c0,0.02,0,0.04,0.01,0.06c0.04,0.2,0.16,0.37,0.33,0.48c0.08,0.05,0.18,0.09,0.27,0.11
			c0.05,0.01,0.1,0.01,0.15,0.02l0.01,0l0.04,0l0.08,0.01c0.22,0.02,0.44,0.05,0.65,0.05c0.87,0.06,1.75,0.08,2.62,0.05
			c0.87-0.02,1.75-0.05,2.62-0.11c1.4-0.1,2.79-0.22,4.19-0.45c0.02,0.56,0.03,1.12,0.04,1.68l0.09,2.95l0.02,0.74l0.01,0.37l0,0.09
			l0,0.05c-0.01-0.05,0,0.22,0.1,0.32c0.08,0.12,0.23,0.2,0.38,0.22c0.1,0,0.06,0,0.09,0l0.05,0c0.1,0.51,0.22,1.02,0.34,1.52
			c0.08,0.32,0.16,0.63,0.26,0.94c0.06,0.19,0.64,2.67,0.74,2.79c-0.51,0.04-1.02,0.08-1.52,0.13c-0.3,0-0.57,0.26-0.57,0.55
			c0,0.07,0,0.07,0.01,0.11l0.02,0.18l0.03,0.35l0.05,0.71c0.04,0.47,0.06,0.95,0.08,1.42l0.01,0.18l0,0.04
			c0.01,0.02-0.01,0,0.02,0.13c0.03,0.09,0.09,0.17,0.17,0.22c0.07,0.05,0.22,0.05,0.2,0.05l0.35-0.01l0.71-0.01
			c0.47-0.01,0.94,0,1.41,0.02c1.88,0.06,15.06-0.24,16.95-0.21c0.08,0,0.15-0.07,0.15-0.15l0-0.09l0-0.18l0.01-0.35l0.03-0.71
			c0.03-0.47,0.06-0.95,0.12-1.42l0.02-0.18l0.01-0.04c0-0.02,0.01,0-0.01-0.12c-0.02-0.09-0.08-0.16-0.15-0.21
			c-0.06-0.05-0.21-0.06-0.19-0.05l-0.35-0.04l-0.71-0.1l-0.35-0.05c0.17-0.18,0.81-2.77,0.87-2.96c0.1-0.31,0.19-0.62,0.26-0.94
			c0.16-0.63,0.31-1.27,0.44-1.92c0.01-0.03-0.1-0.78-0.1-0.78l0-0.74l0.01-1.48l0.03-2.95c0-0.08,0-0.17,0-0.25
			c9,0.6,18,0.83,27,0.91c4.52,0.03,9.04-0.05,13.56-0.12l3.39-0.06l0.21-0.01l0.11,0c-0.04,0,0.16,0,0.24-0.03
			c0.1-0.03,0.2-0.07,0.28-0.13c0.17-0.12,1.85-1.32,2.57-1.59c0.93-0.34,1.85-0.71,2.76-1.09c0.93,0.05,1.86,0.08,2.79,0.09
			c0.97,0.03,1.94,0.02,2.92-0.04c1.94-0.09,3.89-0.38,5.83-0.47l0.36-0.02c0,0,2.08-0.05,3.11-0.12c0.58-0.02,1.15-0.06,1.72-0.13
			c0.57-0.05,1.15-0.11,1.71-0.2c1.14-0.15,2.27-0.35,3.39-0.57c1.13-0.21,2.24-0.48,3.34-0.79c2.2-0.63,4.34-1.48,6.53-2.09
			c1.1-0.31,2.2-0.6,3.31-0.85l0.83-0.19l0.44-0.1c0.22-0.07,0.43-0.22,0.55-0.42c0.06-0.1,0.11-0.22,0.13-0.34
			c0.01-0.06,0.02-0.13,0.02-0.17l0.01-0.11l0.03-0.43l0.06-0.86l0.06-0.86l0.03-0.43c0-0.08,0.01-0.12,0.01-0.24
			c0-0.15-0.03-0.3-0.08-0.44c-0.11-0.28-0.32-0.52-0.59-0.66c-0.07-0.04-0.14-0.06-0.21-0.09l-0.12-0.04l-0.2-0.06l-0.82-0.25
			c-1.09-0.33-2.2-0.62-3.3-0.91c-2.2-0.59-4.42-1.14-6.66-1.6c-2.24-0.43-4.49-0.83-6.77-1.09c-1.97-0.22-5.94-1.07-5.94-1.07
			l-0.95-0.03l-2.92-0.08c-0.97,0-1.94-0.02-2.92,0c-0.97,0.02-1.94,0.05-2.92,0.1c-0.93,0.04-1.87,0.09-2.8,0.16
			c-0.9-0.36-1.81-0.7-2.72-1.03c-0.9-0.33-2.84-1.17-2.91-1.22c-0.04-0.02-0.08-0.04-0.12-0.05c-0.05-0.01-0.09-0.01-0.08-0.01
			l-0.05,0l-0.11,0l-0.42,0c-1.13,0.01-2.26-0.01-3.39-0.02c-2.26-0.03-4.52-0.12-6.78-0.22l-6.78-0.26
			c-4.52-0.11-9.04-0.05-13.56,0.05c-4.21,0.1-8.42,0.28-12.62,0.58c0.22-7.13,0.28-14.25,0.32-21.38
			c0.03-7.87-0.05-15.74-0.12-23.61l-0.02-2.95l-0.01-0.74l0-0.37l0-0.09l0-0.05c0-0.18-0.06-0.38-0.16-0.53
			c-0.11-0.15-1.35-1.85-1.61-2.56c-0.34-0.94-0.71-1.86-1.09-2.78c0.05-0.93,0.08-1.87,0.09-2.8c0.03-0.98,0.02-1.95-0.04-2.93
			c-0.09-1.95-0.38-3.9-0.47-5.86l-0.02-0.36c0,0-0.05-2.09-0.12-3.12c-0.02-0.58-0.06-1.16-0.13-1.73
			c-0.05-0.58-0.11-1.15-0.2-1.72c-0.15-1.14-0.35-2.28-0.57-3.4c-0.21-1.13-0.48-2.25-0.79-3.35c-0.63-2.21-1.47-4.36-2.09-6.56
			c-0.31-1.1-0.59-2.21-0.85-3.33l-0.19-0.84l-0.1-0.44c-0.06-0.23-0.22-0.43-0.42-0.55c-0.1-0.06-0.22-0.11-0.34-0.13
			c-0.06-0.01-0.13-0.02-0.17-0.02L32.04,0.2l-0.43-0.03l-0.85-0.06l-0.85-0.06l-0.43-0.03C29.4,0.01,29.36,0,29.24,0
			c-0.15,0-0.3,0.03-0.44,0.08c-0.28,0.11-0.52,0.32-0.66,0.6c-0.04,0.07-0.06,0.14-0.09,0.21l-0.04,0.12l-0.06,0.21l-0.25,0.82
			c-0.33,1.1-0.62,2.21-0.91,3.31c-0.59,2.21-1.14,4.44-1.6,6.68c-0.43,2.25-0.82,4.51-1.09,6.8c-0.22,1.98-1.06,5.97-1.06,5.97
			l-0.03,0.96l-0.08,2.93c0,0.98-0.02,1.95,0,2.93c0.02,0.98,0.05,1.95,0.09,2.93c0.04,0.94,0.09,1.88,0.16,2.82
			c-0.35,0.91-0.7,1.81-1.02,2.73c-0.29,0.82-1.48,2.84-1.49,3.08v0.13l0,0.18l0.01,0.37l0.01,0.74l0.03,1.48l0.06,2.95
			c0.04,1.97,0.07,3.93,0.09,5.9c0.04,3.93,0.04,7.87,0.01,11.8c-0.03,3.93-0.12,7.87-0.22,11.8l-0.26,11.8
			c-0.01,0.65-0.01,1.29-0.02,1.94c-3.1-0.47-6.19-0.65-9.29-0.73l-0.65-0.01l-0.08,0l-0.1,0c-0.14,0.01-0.27,0.05-0.39,0.11
			c-0.25,0.12-0.44,0.34-0.53,0.6c-0.02,0.07-0.04,0.13-0.05,0.2c-0.01,0.05-0.01,0.18-0.01,0.16v0.02v0.04l0,0.08v0.06
			c-0.32,0.07-0.64,0.15-0.96,0.23C8,93.12,7.69,93.21,7.38,93.3C7.2,93.36,7,93.4,6.81,93.45c-0.2-0.05-0.4-0.09-0.61-0.07
			C6,93.38,5.79,93.44,5.58,93.5c-0.21,0.06-0.41,0.17-0.62,0.28c-0.12,0.08-0.24,0.16-0.36,0.26c-0.04-0.51-0.08-1.02-0.13-1.53
			c0-0.3-0.26-0.57-0.55-0.57c-0.07,0-0.07,0-0.11,0.01l-0.18,0.02L3.28,92l-0.71,0.06c-0.47,0.04-0.94,0.06-1.41,0.08l-0.18,0.01
			l-0.04,0c-0.02,0,0-0.01-0.13,0.02c-0.09,0.03-0.17,0.09-0.22,0.17c-0.05,0.07-0.05,0.22-0.05,0.2l0.01,0.35l0.01,0.71
			c0.01,0.47,0,0.95-0.02,1.42c-0.06,1.89-0.36,3.78-0.48,5.67c-0.13,1.89-0.07,3.78,0.19,5.67C0.5,108.25,0.79,110.14,0.76,112.03z
			 M126.74,100.69c0,0,0,0.02,0,0.03c-0.01,0,0-0.01-0.01-0.01C126.73,100.71,126.73,100.7,126.74,100.69z M102.65,105.74
			c0.04-1.16,0.12-2.31,0.21-3.47c0.09-1.16,0.2-2.31,0.26-3.47c0.05-1.07,0.09-2.13,0.12-3.2c0.81,0.16,1.61,0.35,2.41,0.54
			l3.3,0.82c2.2,0.56,4.41,1.08,6.62,1.6c2.22,0.49,4.44,0.94,6.68,1.37c1.11,0.22,2.23,0.45,3.35,0.65
			c0.37,0.06,0.99,0.19,1.13,0.18c0,0.04,0.01,0.08,0.01,0.11l0.03,0.43l0.06,0.86l0.06,0.86l0.03,0.43l0.01,0.15
			c0,0.02,0,0.04-0.01,0.07c-0.02,0.04-0.05,0.08-0.09,0.11l-0.38,0.13l-0.82,0.25c-1.09,0.33-2.19,0.62-3.3,0.88
			c-2.22,0.51-4.5,0.75-6.74,1.15c-4.36,0.8-8.59,2.02-12.94,2.87C102.62,107.95,102.63,106.85,102.65,105.74z M93.59,96.24
			c0.97,0.05,1.94,0.08,2.92,0.1c0.97,0.02,1.94,0,2.92,0l2.03-0.06c0.03,0.84,0.06,1.68,0.1,2.52c0.07,1.16,0.17,2.31,0.26,3.47
			c0.1,1.16,0.18,2.31,0.21,3.47c0.02,1.04,0.03,2.07-0.02,3.11c-1.84-0.1-3.67-0.36-5.51-0.45c-0.97-0.06-1.94-0.07-2.92-0.04
			c-0.89,0.01-1.78,0.04-2.67,0.09c0.18-0.43,0.31-0.86,0.42-1.3c0.14-0.55,0.17-3.83,0.09-4.92c-0.08-1.09-0.17-2.19-0.28-3.28
			c-0.11-0.96-0.21-1.91-0.33-2.87C91.75,96.15,92.67,96.2,93.59,96.24z M87.65,94.42c0.89,0.55,1.8,1.07,2.71,1.58l0.1,0.06
			l0.08,0.01c-0.12,0.96-0.22,1.93-0.33,2.89c-0.11,1.09,0.05,9.1,0.24,9.54l-0.09,0.05c-0.93,0.51-1.85,1.03-2.76,1.59
			c-0.59,0.36-1.17,0.74-1.75,1.12l-0.02-0.61l-0.04-1.7c-0.04-2.27-0.16-4.54-0.23-6.81c-0.06-2.27-0.17-4.54-0.2-6.81l-0.02-1.7
			l0-0.68C86.09,93.46,86.87,93.95,87.65,94.42z M40.8,106.43l0.36-11.8c0.02-0.64,0.04-1.27,0.06-1.91
			c4.21,0.3,8.42,0.48,12.63,0.58c4.52,0.11,9.04,0.17,13.56,0.05l6.78-0.26c2.26-0.1,4.52-0.19,6.78-0.22
			c1.13-0.01,2.26-0.03,3.39-0.02l0.38,0l0,0.77l-0.02,1.7c-0.03,2.27-0.13,4.54-0.2,6.81c-0.08,2.27-0.19,4.54-0.23,6.81l-0.04,1.7
			l-0.01,0.49l-2.99-0.05c-4.52-0.07-9.04-0.15-13.56-0.12c-9,0.08-18,0.32-27,0.91C40.72,110.06,40.73,108.25,40.8,106.43z
			 M40.36,124.66l0,0.03c0,0,0,0,0,0C40.35,124.61,40.36,124.65,40.36,124.66z M39.51,125.01l0.71-0.1l0.17-0.02
			c0.06,0.47,0.09,0.94,0.12,1.41l0.03,0.71l0.01,0.35l0,0.18l0,0.05c-1.87,0.02-3.74-0.26-5.61-0.51
			c-1.88-0.26-3.77-0.31-5.65-0.19c-1.88,0.12-3.77,0.43-5.65,0.49c-0.47,0.02-0.94,0.03-1.41,0.02l-0.71-0.01l-0.1,0l0-0.01
			c0.02-0.47,0.04-0.95,0.08-1.42l0.05-0.71l0.01-0.12c1.75,0.17,3.49,0.3,5.24,0.34c1.88,0.07,3.77,0.15,5.65,0.12
			c0.94-0.02,1.88-0.04,2.82-0.09c0.94-0.05,1.88-0.17,2.82-0.29L39.51,125.01z M38.64,124.01l-0.55-0.06
			c-0.94-0.12-1.88-0.24-2.82-0.29c-0.94-0.05-1.88-0.08-2.82-0.09c-1.88-0.03-3.77,0.05-5.65,0.12c-1.14,0.03-2.28,0.1-3.42,0.19
			c0.08-0.1-0.49-1.71-0.53-1.89c1.06,0.12,3.2,0.02,4.25,0.13c1.26,0.11,2.51,0.21,3.77,0.29c1.26,0.08,5.03,0.05,5.65-0.09
			c0.5-0.11,2.35-0.11,2.35,0.04C38.89,122.54,38.51,123.85,38.64,124.01z M39.02,121.52c-0.54-0.21-10.66-0.48-11.92-0.37
			c-1.08,0.11-3.28,0.05-4.36,0.17c0,0-0.64-2.31-0.92-2.66l1.04-0.03l5.88-0.17c3.91-0.12,7.53-0.14,11.44-0.15
			C39.77,118.77,39.02,121.52,39.02,121.52z M29.33,1.26c0,0.01-0.01,0-0.01,0.01c-0.01,0-0.02-0.01-0.02-0.01
			C29.3,1.27,29.32,1.27,29.33,1.26z M24.77,22.43l0.82-3.32c0.56-2.21,1.08-4.43,1.6-6.65c0.49-2.23,0.93-4.46,1.37-6.7
			c0.22-1.12,0.44-2.24,0.64-3.36c0.06-0.38,0.19-0.99,0.18-1.13c0.04,0,0.08-0.01,0.11-0.01l0.43-0.03l0.85-0.06l0.85-0.06
			l0.43-0.03l0.15-0.01c0.02,0,0.04,0,0.06,0.01c0.04,0.02,0.08,0.05,0.11,0.09l0.13,0.38l0.25,0.82c0.33,1.09,0.62,2.2,0.87,3.31
			c0.51,2.23,0.75,4.52,1.14,6.76c0.8,4.38,2.01,8.63,2.86,13c-1.1,0.06-2.2,0.05-3.3,0.02c-1.15-0.04-2.31-0.12-3.46-0.21
			c-1.15-0.09-2.3-0.2-3.46-0.26c-1.06-0.05-2.12-0.09-3.18-0.13C24.39,24.04,24.57,23.23,24.77,22.43z M36.94,34.55
			c0.02,0.89,0.04,1.78,0.09,2.68c-0.43-0.18-8.37-0.34-9.46-0.22c-0.95,0.11-2.17-0.09-3.13,0.03c0.06-0.93-0.03-10.82-0.03-10.82
			c0.84-0.03,8.76-0.1,9.91-0.14c1.03-0.02,2.07-0.03,3.1,0.02c-0.1,1.84-0.36,3.69-0.44,5.53C36.92,32.6,36.91,33.58,36.94,34.55z
			 M23.05,40.52c0.54-0.9,0.66-1.39,1.17-2.3l0.06-0.1l0.01-0.08c0.96,0.12,10.91,0.25,11.46,0.11c0.44-0.11,1.09,0.18,1.53-0.02
			l0.05,0.09c0.51,0.93,0.83,1.44,1.38,2.35c0.35,0.58,0.71,1.15,1.09,1.72l-0.91,0.01L33,42.39c-1.96,0.02-3.92,0.06-5.88,0.11
			l-2.94,0.06l-1.47,0.03l-0.73,0.02l-0.25,0.01C22.19,41.92,22.63,41.23,23.05,40.52z M21.52,54.93c0.02-1.97,0.04-3.93,0.09-5.9
			l0.06-2.95l0.03-1.48l0.01-0.74l0-0.19l0.28,0.01l0.73,0.02l1.47,0.03l2.94,0.06c1.96,0.05,3.92,0.08,5.88,0.11l5.88,0.08
			L39.67,44l0,0.47l-0.02,2.95c-0.07,7.87-0.15,15.74-0.12,23.61c0.04,7.87,0.1,15.74,0.39,23.61l0.36,11.8
			c0.07,1.97-0.05,8.75-0.05,8.75l0.01,1.48l0,0.74l0,0.37l0,0.18l0,0.06c-3.9-0.01-7.61,0.06-11.51-0.05l-5.88-0.17l-1.17-0.03
			l0-0.12l0.02-0.74l0.09-2.95c0.26-7.87,0.31-15.74,0.19-23.61l-0.26-11.8c-0.1-3.93-0.19-7.87-0.22-11.8
			C21.48,62.8,21.48,58.86,21.52,54.93z M11.01,111.92l0-0.02l0-0.06c0,0.02,0.01,0.04,0.01,0.06
			C11.01,111.95,11.01,111.91,11.01,111.92z M10.81,102.29c0.19-1.75,0.33-3.5,0.38-5.26l0.09-2.63c0.01-0.28,0.01-0.55,0.02-0.83
			c3.03-0.08,6.05-0.27,9.08-0.72c-0.06,6.28-0.02,12.56,0.16,18.85c-1.39-0.23-2.78-0.36-4.17-0.45c-0.87-0.06-1.75-0.09-2.62-0.11
			c-0.87-0.03-1.74-0.01-2.62,0.05c-0.07,0-0.13,0.01-0.2,0.02l-0.12-1.03c-0.1-0.88-0.18-1.75-0.22-2.63
			C10.54,105.79,10.63,104.04,10.81,102.29z M7.64,102.27c-0.08-1.26-0.17-2.52-0.28-3.79C7.25,97.4,7.73,94.77,8,94.59
			c0.26-0.18,0.53-0.37,0.78-0.57c0.17-0.13,0.34-0.26,0.5-0.39c0,0.26,0.01,0.52,0.02,0.77l0.09,2.63c0.05,1.75,0.19,3.5,0.38,5.26
			c0.18,1.75,0.27,3.5,0.21,5.26c-0.04,0.88-0.11,1.75-0.22,2.63l-0.14,1.26c-0.28-0.23-0.56-0.45-0.84-0.67
			c-0.26-0.2-1.88-0.51-1.88-0.51c0.21-0.54,0.54-1.77,0.65-2.3C7.69,107.32,7.73,103.53,7.64,102.27z M4.58,109.53
			c0.12-0.95,0.23-1.89,0.29-2.84c0.05-0.95,0.08-1.89,0.09-2.84c0.03-1.89-0.05-3.78-0.12-5.67c-0.03-1.15-0.1-2.29-0.19-3.44
			c0.1,0.08,1.87-0.09,2.04-0.13c-0.12,1.06-0.19,2.81-0.29,3.87c-0.11,1.26-0.32,11.08-0.14,11.59c-0.15-0.03-1.54-0.02-1.77-0.07
			L4.58,109.53z M3.87,111.8l-0.03,0C3.91,111.79,3.88,111.8,3.87,111.8z M1.46,106.36c0.25-1.89,0.31-3.78,0.19-5.67
			c-0.12-1.89-0.43-3.78-0.48-5.67c-0.02-0.47-0.03-0.95-0.02-1.42l0.01-0.71l0-0.1l0,0c0.47,0.02,0.94,0.04,1.41,0.08l0.71,0.06
			l0.12,0.01c-0.17,1.75-0.29,3.51-0.34,5.26c-0.07,1.89-0.15,3.78-0.12,5.67c0.02,0.95,0.04,1.89,0.09,2.84
			c0.05,0.95,0.17,1.89,0.29,2.84l0.2,1.42l0.1,0.71l0.02,0.17c-0.47,0.06-0.93,0.09-1.4,0.12l-0.71,0.03l-0.35,0.01l-0.18,0
			l-0.05,0C0.93,110.11,1.21,108.23,1.46,106.36z"/>
	</g>
</g>
</svg>
