<?xml version="1.0" encoding="utf-8"?>
<!-- Generator: Adobe Illustrator 18.1.0, SVG Export Plug-In . SVG Version: 6.00 Build 0)  -->
<svg version="1.1" baseProfile="tiny" id="Layer_1" xmlns="http://www.w3.org/2000/svg" xmlns:xlink="http://www.w3.org/1999/xlink"
	 x="0px" y="0px" viewBox="0 0 145 128" xml:space="preserve">
<g>
	<path fill="#FFE1B2" d="M36.5,23.1c5.8,0,10.6-4.7,10.6-10.6C47.1,6.7,42.3,2,36.5,2c-5.8,0-10.6,4.7-10.6,10.6
		C25.9,18.4,30.7,23.1,36.5,23.1z"/>
	<polygon fill="#3E80AD" points="123.3,37 91.8,37 91.8,44.1 123.3,44.1 123.3,49.2 133.5,40.1 123.3,31 	"/>
	<path fill="#54A74B" d="M75.7,64.4c-0.5,1.2-1.6,1.9-2.9,1.9c-0.4,0-0.9-0.1-1.3-0.3l-15.3-6.9c-0.9-0.4-1.7-1.1-2.2-2l-8-13.8
		l-1.2,26.4h-9.4l0.8-40.3h5.4c1,0,1.9,0.5,2.4,1.3l13.7,19.6c0.6,0.9,1.4,1.6,2.3,2.1l14.3,7.9C75.7,61.2,76.3,62.9,75.7,64.4z"/>
	<rect x="137.8" y="72.7" fill="#3E80AD" width="5.3" height="30.5"/>
	<polygon fill="#3E80AD" points="123.3,84.9 91.8,84.9 91.8,91.9 123.3,91.9 123.3,97 133.5,88 123.3,78.9 	"/>
	<rect x="137.8" y="24.8" fill="#3E80AD" width="5.3" height="30.5"/>
	<path fill="#2D2D2D" d="M36.5,25.1c6.9,0,12.5-5.6,12.5-12.5S43.4,0,36.5,0C29.6,0,24,5.6,24,12.5S29.6,25.1,36.5,25.1z M36.5,2
		c5.8,0,10.6,4.7,10.6,10.6c0,5.8-4.7,10.6-10.6,10.6c-5.8,0-10.6-4.7-10.6-10.6C25.9,6.7,30.7,2,36.5,2z"/>
	<path fill="#2D2D2D" d="M75.3,58.7L61,50.8c-0.7-0.4-1.2-0.9-1.6-1.5L45.7,29.7c-0.9-1.3-2.4-2.1-4-2.1h-12c-1.2,0-2.4,0.5-3.3,1.3
		L9,44.8c-1.1,1-1.8,2.2-2.1,3.7L3,67.1c-0.3,1.4,0,2.9,0.9,4.1c0.8,1.2,2.2,2,3.6,2.2c0.2,0,0.4,0,0.7,0h0c2.4,0,4.5-1.6,5.1-4
		l3.9-15.6c0.2-0.9,0.7-1.7,1.3-2.3l4.4-4.4l-0.9,23.5l-2.1,23.6L1.6,115.1c-1.3,1.6-1.8,3.6-1.6,5.6c0.3,2,1.4,3.8,3,4.9
		c1.2,0.9,2.7,1.3,4.1,1.3c2.3,0,4.4-1,5.7-2.8l19.1-23.8l4.8-19.2l16.3,18.2l4.2,23.5c0.8,3,3.5,5.1,6.6,5.1c0.4,0,0.8,0,1.2-0.1
		c1.8-0.3,3.5-1.4,4.5-3c1-1.6,1.3-3.5,0.9-5.3l-5.1-26.3L46.8,69.4l0.9-19.2l4.7,8c0.7,1.2,1.8,2.2,3.1,2.8l15.3,6.9
		c0.7,0.3,1.4,0.5,2.1,0.5c2,0,3.9-1.2,4.7-3.1C78.5,62.8,77.6,60,75.3,58.7z M75.7,64.4c-0.5,1.2-1.6,1.9-2.9,1.9
		c-0.4,0-0.9-0.1-1.3-0.3l-15.3-6.9c-0.9-0.4-1.7-1.1-2.2-2l-8-13.7L44.8,70l18.8,24.1l5,25.9c0.3,1.3,0.1,2.7-0.6,3.8
		c-0.7,1.1-1.9,1.9-3.2,2.1c-0.3,0.1-0.6,0.1-0.9,0.1c-2.2,0-4.1-1.5-4.6-3.6l-4.3-24L38.4,79.8c-0.4-0.4-0.9-0.7-1.5-0.7
		c-0.9,0-1.7,0.6-1.9,1.5l-4.7,18.8l-18.9,23.4c-1,1.3-2.5,2.1-4.2,2.1c-1.1,0-2.1-0.3-3-1c-1.2-0.8-2-2.1-2.2-3.6
		c-0.2-1.5,0.2-2.9,1.1-4l18.6-21.3l2.1-24.3L25,42.3l-7.9,7.9c-0.9,0.9-1.5,2-1.8,3.2L11.4,69c-0.4,1.6-1.9,2.7-3.6,2.5
		c-0.9-0.1-1.7-0.6-2.3-1.3C5,69.3,4.8,68.4,5,67.5l3.9-18.6c0.2-1,0.7-1.9,1.5-2.6l17.3-15.9c0.5-0.5,1.3-0.8,2-0.8h12
		c1,0,1.9,0.5,2.4,1.3l13.7,19.6c0.6,0.9,1.4,1.6,2.3,2.1l14.3,7.9C75.7,61.2,76.3,62.9,75.7,64.4z"/>
	<path fill="#2D2D2D" d="M135.8,39.5l-14.4-13V35H89.9v11h31.5v7.5l14.4-12.8v16.6h9.2V22.8h-9.2V39.5z M123.3,49.2v-5.1H91.8V37
		h31.5v-6l10.2,9.1L123.3,49.2z M137.8,24.8h5.3v30.5h-5.3V24.8z"/>
	<path fill="#2D2D2D" d="M135.8,87.4l-14.4-13v8.4H89.9v11h31.5v7.5l14.4-12.8v16.6h9.2V70.7h-9.2V87.4z M123.3,97v-5.1H91.8v-7.1
		h31.5v-6l10.2,9.1L123.3,97z M137.8,72.7h5.3v30.5h-5.3V72.7z"/>
	<path fill="#3E80AD" d="M68,123.8c-0.7,1.1-1.9,1.9-3.2,2.1c-0.3,0.1-0.6,0.1-0.9,0.1c-2.2,0-4.1-1.5-4.6-3.6l-4.3-24L38.4,79.8
		c-0.4-0.4-0.9-0.6-1.5-0.6c-0.1,0-0.2,0-0.3,0l-1.2-9.4h9.4l0,0.2l18.8,24.1l5,25.9C68.9,121.3,68.7,122.7,68,123.8z"/>
	<path fill="#62B257" d="M36.2,29.6l-0.8,40.3H23.9L25,42.3l-7.9,7.9c-0.9,0.9-1.5,2-1.8,3.2l-3.9,15.6c-0.4,1.6-1.9,2.7-3.6,2.5
		c-0.9-0.1-1.7-0.6-2.3-1.4C5,69.3,4.8,68.4,5,67.5l3.9-18.6c0.2-1,0.7-1.9,1.5-2.6l17.3-15.9c0.6-0.5,1.3-0.8,2-0.8H36.2z"/>
	<path fill="#5094CC" d="M36.6,79.2c-0.8,0.1-1.4,0.7-1.6,1.5l-4.7,18.8l-18.9,23.4c-1,1.3-2.5,2.1-4.2,2.1c-1.1,0-2.1-0.3-3-0.9
		c-1.2-0.9-2-2.1-2.2-3.6c-0.2-1.5,0.2-2.9,1.1-4l18.6-21.3l2.1-24.3l0-1h11.5L36.6,79.2z"/>
</g>
</svg>
