<?xml version="1.0" encoding="utf-8"?>
<!-- Generator: Adobe Illustrator 24.1.2, SVG Export Plug-In . SVG Version: 6.00 Build 0)  -->
<svg version="1.1" id="Layer_1" xmlns="http://www.w3.org/2000/svg" xmlns:xlink="http://www.w3.org/1999/xlink" x="0px" y="0px"
	 viewBox="0 0 128 128" style="enable-background:new 0 0 128 128;" xml:space="preserve">
<style type="text/css">
	.st0{fill:#444341;}
	.st1{fill:#2D2D2D;}
	.st2{fill:#EAE4D6;}
</style>
<g>
	<path class="st0" d="M26.84,69.28c0.11-0.07,0.21-0.15,0.32-0.22c2.64-1.77,5.47-3.23,8.19-4.83c0.09-0.05,0.15-0.01,0.09,0.09
		c-1.42,2.82-2.96,5.66-5.16,8c-0.08,0.09-0.18,0.17-0.26,0.25l-0.01,0.21c-0.04,1.45,0.73,2.89,1.93,3.58
		c0.59,0.36,1.27,0.56,1.97,0.6c0.69,0.04,1.37-0.09,1.97-0.39c1.22-0.6,2.15-1.78,2.86-3.05c0.73-1.27,1.28-2.68,1.74-4.11
		l0.94-2.89l0.62,3.01c0.28,1.33,1.57,2.35,3.01,3.01c1.46,0.67,3.09,1.07,4.73,1.33c0.81,0.13,1.64,0.19,2.51,0.25l2.59,0.19
		l5.18,0.4l10.35,0.84c3.44,0.27,6.92,0.54,10.33,0.74l0.13,0.01l0.09,0.03c1.41,0.45,2.87,0.82,4.34,1.17l4.43,1.02
		c2.82,0.64,5.66,1.23,8.48,1.98c0.15-0.93,0.2-1.88,0.17-2.84c-0.03-1.1-0.16-2.2-0.37-3.29c-0.39-2.19-1.05-4.32-1.81-6.41
		c-1.55-4.18-3.64-8.14-5.83-12.03c-1.1-1.94-2.26-3.85-3.39-5.78c-0.57-0.96-1.14-1.93-1.69-2.94c-0.52-1.02-1.02-2.04-1.46-3.1
		c-0.89-2.11-1.58-4.29-2.09-6.53c-0.49-2.24-0.81-4.52-0.68-6.88l0.02-0.28l0.19-0.19c0.52-0.52,0.99-1.11,1.37-1.75
		c0.09-0.16,0.18-0.32,0.26-0.48c-0.91,0.24-1.77-0.02-2.02-0.65c-0.28-0.71,0.79-0.82,1.82-1.24c0.35-0.14,0.65-0.3,0.9-0.42
		c0.08-0.51,0.14-1.03,0.13-1.55c-0.02-0.75-0.15-1.53-0.46-2.12l-0.09-0.17l0.02-0.13c0.08-0.44,0.22-0.73,0.34-1.06l0.4-0.94
		c0.27-0.62,0.53-1.23,0.76-1.86c0.23-0.62,0.43-1.26,0.54-1.9c0.11-0.62,0.15-1.33-0.25-1.82c-0.49-0.4-1.19-0.36-1.81-0.25
		c-0.64,0.11-1.27,0.32-1.89,0.54c-0.62,0.23-1.23,0.49-1.85,0.76l-0.93,0.4c-0.33,0.13-0.62,0.27-1.06,0.35l-0.13,0.02l-0.17-0.09
		c-0.58-0.32-1.36-0.45-2.11-0.46c-0.53-0.01-1.06,0.05-1.59,0.13c-0.09,0.32-0.34,0.74-0.56,1.28c-0.41,1.03-0.53,2.11-1.23,1.83
		c-0.71-0.28-0.95-1.34-0.54-2.37c-0.14,0.07-0.27,0.14-0.4,0.22c-0.64,0.38-1.22,0.84-1.75,1.37l-0.19,0.19l-0.28,0.02
		c-2.35,0.13-4.63-0.19-6.86-0.68c-2.23-0.51-4.41-1.21-6.51-2.1c-1.05-0.44-2.08-0.95-3.09-1.47c-1.01-0.55-1.97-1.13-2.93-1.69
		c-1.92-1.14-3.82-2.3-5.76-3.4c-3.87-2.2-7.82-4.3-11.99-5.85c-2.08-0.77-4.22-1.43-6.39-1.82c-1.09-0.21-2.19-0.33-3.28-0.37
		c-0.95-0.03-1.9,0.02-2.83,0.17c0.75,2.83,1.33,5.68,1.97,8.51l1.01,4.44c0.35,1.47,0.72,2.94,1.17,4.35l0.03,0.09l0.01,0.13
		c0.2,3.42,0.47,6.91,0.74,10.36l0.83,10.39l0.4,5.19l0.19,2.59c0.07,0.87,0.13,1.71,0.25,2.52c0.26,1.64,0.65,3.28,1.32,4.74
		c0.66,1.45,1.67,2.74,3,3.02l3,0.62l-2.88,0.94c-1.43,0.47-2.83,1.02-4.1,1.75c-1.26,0.72-2.44,1.64-3.04,2.87
		c-0.3,0.61-0.43,1.29-0.39,1.98c0.04,0.7,0.23,1.39,0.59,1.98c0.69,1.2,2.12,1.97,3.57,1.93L26.84,69.28z M33.19,48.24
		c-0.35,0.6-1.09,0.33-1.42-0.05c-0.79-0.9-0.04-1.73,0.34-2.65c0.4-0.14,0.89-0.44,1.2,0.08C33.82,46.48,33.65,47.44,33.19,48.24z
		 M34.44,63.34l0-0.02c-0.04-0.22-0.08-0.44-0.12-0.67c-0.03-0.16-0.06-0.33-0.09-0.49c0.55-0.54,0.26-1.89,1.5-1.7
		c0.57,0.09,0.43,0.74,0.31,1.17C35.82,62.48,36.18,63.92,34.44,63.34z M35.45,49.52c0.18-0.47,0.66-0.16,0.92,0.13
		c0.4,0.44,0.57,0.94,0.11,1.44c-0.26,0.28-0.55,0.19-0.89-0.15C35.54,50.53,35.29,49.95,35.45,49.52z M35.04,38.27
		c-0.62-0.76-0.66-1.59,0.04-2.33c0.61-0.64,1.05-0.32,1.35,0.35c0.95,0.59,1.02,1.4,0.39,2.18C36.24,39.19,35.53,38.87,35.04,38.27
		z M36.12,44.71c-0.63-0.61-0.34-1.33,0.14-1.88c0.41-0.48,1.02-0.88,1.59-0.28c0.54,0.57,0.55,1.26-0.13,1.88
		C37.25,44.75,36.72,45.29,36.12,44.71z M37.5,23.82c-0.47,0.4-1.11,0.57-1.57-0.14c-0.38-0.6-0.6-1.2-0.19-1.82
		c0.74-0.48,1.49-0.35,1.96,0.12C38.24,22.52,38.08,23.33,37.5,23.82z M36.29,29.14c0.48,0.62,0.94,1.32,0.21,2.07
		c-0.48,0.49-1.01,0.39-1.4-0.11c-0.49-0.63-0.83-1.32-0.27-2.1C35.38,28.62,35.91,28.65,36.29,29.14z M36.18,74.12
		c-0.31,0.33-0.78,0.5-1.21,0.1c-0.38-0.45-0.21-0.88,0.1-1.25c0.34-0.41,0.79-0.5,1.19-0.09C36.63,73.28,36.48,73.79,36.18,74.12z
		 M36.03,70.05c-0.16-0.03-0.33-0.06-0.49-0.09c-0.22-0.04-0.44-0.08-0.66-0.12l-0.02,0c-0.58-1.74,0.86-1.38,1.7-1.61
		c0.43-0.12,1.08-0.26,1.17,0.31C37.92,69.79,36.57,69.5,36.03,70.05z M37.11,56.49c-0.28,1.1-1.26,1.01-1.83,0.42
		c-0.87-0.9,0.18-1.71,0.62-2.43c0.51-0.85,1.36-0.72,1.97-0.09C38.85,55.4,37.68,55.8,37.11,56.49z M40.07,64.45
		c-0.56,0.51-1.21,0.63-1.87,0.03c-0.47-0.74-0.27-1.45,0.3-2.04c0.47-0.49,1.09-0.66,1.57-0.04
		C40.57,63.04,40.79,63.81,40.07,64.45z M45.43,51.52c0.43,0.07,0.77,0.42,0.8,0.86l0,0.02c0.03,0.46-0.28,0.88-0.73,0.98
		c-0.77,0.16-1.48,0.45-2.19-0.12c-0.47-0.38-0.59-1.08-0.22-1.48C43.77,51.03,44.61,51.39,45.43,51.52z M42.59,41.05
		c-0.38,0.31-1,0.75-1.63,0.08c-0.66-0.69-0.39-1.49,0.21-2.04c0.53-0.49,1.27-1.14,1.95-0.26C43.67,39.53,43.41,40.29,42.59,41.05z
		 M41.46,46.7c-0.6,0.5-1.34,1.2-1.82,0.66c-0.64-0.71-0.23-1.73,0.37-2.46c0.46-0.56,1.14-0.97,1.77-0.34
		C42.6,45.38,41.81,46.07,41.46,46.7z M41.2,35.35c-0.4,0.6-0.98,0.7-1.61,0.29c-0.63-1.1-0.22-2.12,0.36-3.03
		c0.43-0.67,0.98-0.02,1.26,0.23C42.08,33.62,41.74,34.54,41.2,35.35z M40.78,28.7c-0.51,0.39-1.08,0.42-1.45-0.08
		c-0.48-0.64-0.79-1.45-0.1-2.12c0.53-0.52,1.17-0.29,1.61,0.27C41.35,27.41,41.23,28.07,40.78,28.7z M40.5,57.68
		c-0.6-0.66-0.48-1.32,0.03-1.88c0.64-0.72,1.41-0.5,2.05,0c0.62,0.48,0.45,1.11-0.04,1.58C41.95,57.96,41.24,58.15,40.5,57.68z
		 M45.19,63.79c-0.72,0.44-1.53,1.5-2.43,0.62c-0.59-0.57-0.69-1.55,0.42-1.84c0.69-0.57,1.09-1.75,2.1-0.76
		C45.91,62.42,46.04,63.27,45.19,63.79z M47.79,68.44c-0.58,0.37-1.22,0.25-1.74-0.1c-0.56-0.37-0.12-0.79-0.02-1.14
		c0.75-0.37,1.43-0.6,1.99,0.05C48.36,67.65,48.24,68.15,47.79,68.44z M48.55,63.21c0.5-0.47,1-0.3,1.44,0.11
		c0.29,0.27,0.6,0.75,0.13,0.92c-0.43,0.16-1.01-0.09-1.42-0.14C48.36,63.75,48.28,63.47,48.55,63.21z M47.17,58.82
		c-0.57-0.72-0.27-1.43-0.12-2.2c0.09-0.45,0.51-0.76,0.97-0.73l0.02,0c0.44,0.03,0.79,0.36,0.86,0.8c0.13,0.82,0.49,1.66-0.25,2.35
		C48.25,59.42,47.55,59.3,47.17,58.82z M49.17,46c0.64-0.72,1.41-0.5,2.05,0c0.62,0.48,0.45,1.11-0.04,1.58
		c-0.59,0.57-1.3,0.77-2.04,0.3C48.54,47.22,48.66,46.56,49.17,46z M49.81,72.12c-0.46,0.45-0.93,0.34-1.38,0.12
		c-0.4-0.64-0.11-1.1,0.29-1.46c0.45-0.41,1.06-0.8,1.57-0.18C50.81,71.23,50.25,71.69,49.81,72.12z M49.85,51.64
		c-0.47-0.74-0.27-1.45,0.3-2.04c0.47-0.49,1.09-0.66,1.57-0.04c0.5,0.64,0.72,1.41,0,2.05C51.16,52.12,50.51,52.24,49.85,51.64z
		 M54.13,44.73c-0.44-0.62-0.26-1.15,0.27-1.59c0.37-0.31,0.84-0.48,1.22-0.04c0.46,0.53,0.42,1.15-0.06,1.66
		C55.11,45.24,54.61,45.11,54.13,44.73z M54.73,59.66c-0.73,0.6-1.74,1.01-2.45,0.37c-0.54-0.48,0.16-1.23,0.66-1.83
		c0.63-0.35,1.31-1.15,2.14-0.32C55.7,58.52,55.29,59.2,54.73,59.66z M54.48,33.39c-0.64,0.82-1.4,0.87-2.25,0.26
		c-0.64-0.73-0.66-1.56-0.04-2.29c0.67-0.8,1.58-1.12,2.41-0.28C55.32,31.81,55.05,32.66,54.48,33.39z M52.05,38.08
		c0.53-0.41,1.27-0.92,1.8-0.42c0.54,0.51,0.51,1.41-0.02,2.09c-0.5,0.64-1.13,0.84-1.76,0.21C51.51,39.4,51.51,38.74,52.05,38.08z
		 M51.38,53.97c0.59-0.5,1.27-0.53,1.9,0c0.63,0.53,0.51,1.07-0.01,1.58c-0.69,0.69-1.43,0.31-2.18,0.05
		C50.71,55,50.87,54.4,51.38,53.97z M51.45,67.93c-0.38-0.33-0.64-1.08-0.05-1.42c0.79-0.46,1.76-0.63,2.61-0.12
		c0.52,0.31,0.22,0.81,0.08,1.2C53.17,67.97,52.34,68.71,51.45,67.93z M54.82,71.88c-0.37,0.5-0.88,0.92-1.35,0.38
		c-0.63-0.72-0.42-1.64,0.11-2.32c0.53-0.67,1.1-0.18,1.59,0.24C56.08,70.98,55.02,71.35,54.82,71.88z M56.79,63.43
		c-0.55,0.47-1.27,0.77-1.88,0.14c-0.58-0.61-0.04-1.14,0.28-1.61c0.61-0.68,1.3-0.67,1.87-0.13C57.67,62.4,57.27,63.02,56.79,63.43
		z M58.57,46.25c0.44,0.37,0.26,0.85-0.04,1.22c-0.44,0.53-0.97,0.71-1.59,0.27c-0.38-0.48-0.51-0.98-0.02-1.43
		C57.42,45.83,58.03,45.79,58.57,46.25z M58.21,40.16c0.51-0.48,1.1-0.46,1.6,0.09c0.55,0.61,0.12,1.11-0.17,1.6
		c-0.58,0.47-1.16,0.54-1.62-0.05C57.58,41.24,57.73,40.61,58.21,40.16z M58.04,51.4c0.98-0.43,1.82-1.85,3.07-0.75
		c0.58,0.51-0.14,1.12-0.41,1.66c-1,0.15-1.83,1.46-2.96,0.58C57.12,52.41,57.35,51.71,58.04,51.4z M63.87,51.3
		c0.8-1.13,1.62-0.66,2.21-0.31c0.84,0.5,0.33,1.24-0.05,1.81c-0.64,0.94-1.69,0.66-2.29,0.24C62.94,52.47,63.7,51.7,63.87,51.3z
		 M63.68,39.85c0.69-0.62,1.44-0.55,2.01,0.15c0.52,0.63,0.28,1.29-0.08,1.81c-0.84,0.56-1.58,0.58-2.16-0.12
		C62.91,41.06,63.11,40.37,63.68,39.85z M65.99,53.69c0.65-0.5,1.35-0.44,1.89,0.15c0.44,0.49,0.24,1.01-0.2,1.44
		c-0.67,0.48-1.32,0.5-1.86-0.16C65.4,54.62,65.48,54.08,65.99,53.69z M65.94,47.41c-0.61-0.86-0.56-1.62,0.26-2.26
		c0.73-0.57,1.58-0.85,2.3-0.12c0.84,0.84,0.51,1.75-0.28,2.42C67.49,48.07,66.67,48.06,65.94,47.41z M65.86,31.95
		c-0.76,0.57-1.6,0.45-2.26-0.22c-0.4-0.41-0.44-0.96,0.16-1.56c0.69-0.29,1.51-0.2,2.18,0.38C66.42,30.96,66.31,31.61,65.86,31.95z
		 M64.39,35.15c0.55,0.5,0.57,1.09,0.09,1.61c-0.45,0.49-1.07,0.64-1.64,0.19c-0.59-0.46-0.52-1.04-0.05-1.63
		C63.28,35.02,63.78,34.6,64.39,35.15z M62.95,44.77c0.5,0.54-0.01,1.27-0.42,1.81c-0.66,0.54-1.31,0.55-1.88-0.02
		c-0.62-0.63-0.43-1.26,0.21-1.76C61.54,44.26,62.44,44.23,62.95,44.77z M59.84,68.98c-0.53,0.59-1.13,0.31-1.64-0.06
		c-0.63-0.45-0.87-1.04-0.43-1.73c0.65-0.62,1.24-0.64,1.84-0.03C60.14,67.71,60.44,68.32,59.84,68.98z M58.48,58.71
		c-0.67-0.64-0.23-1.26,0.08-1.63c0.76-0.82,1.51-1.08,2.21-0.54c0.88,0.68,0.23,1.42-0.26,1.96C59.97,59.1,59.18,59.37,58.48,58.71
		z M61.14,62.86c0.77-0.63,1.59-0.56,2.17,0.39c0.66,0.3,0.98,0.74,0.35,1.35c-0.73,0.71-1.57,0.67-2.32,0.04
		C60.73,64.15,60.42,63.44,61.14,62.86z M64.02,72.71c-0.45,0.45-0.99,0.23-1.45-0.11c-0.4-0.45-0.56-0.94-0.11-1.42
		c0.43-0.47,0.96-0.44,1.43-0.05C64.46,71.59,64.55,72.19,64.02,72.71z M63.96,60.09c-0.41-0.63-0.31-1.22,0.28-1.62
		c0.81-0.54,1.73-0.88,2.51-0.01c0.25,0.28,0.9,0.83,0.23,1.26C66.07,60.3,65.06,60.72,63.96,60.09z M67.6,69.43
		c-0.49,0.49-0.98,0.22-1.43-0.15c-0.41-0.58-0.87-1.19-0.21-1.85c0.56-0.56,1.18-0.32,1.63,0.15
		C68.14,68.15,68.19,68.85,67.6,69.43z M70.57,64.86c-0.77,0.56-1.46,0.22-2.09-0.27c-0.49-0.39-0.6-0.93-0.11-1.41
		c0.75-0.73,1.45-0.27,2.06,0.21C70.93,63.78,70.95,64.31,70.57,64.86z M70.88,58.89c0.63-0.45,1.28-0.58,1.92-0.06
		c0.55,0.44,0.78,1.08,0.26,1.61c-0.66,0.69-1.47,0.38-2.11-0.1C70.46,59.97,70.49,59.4,70.88,58.89z M73.16,73.13
		c-0.64,0.56-1.28,0.18-1.82-0.17c-0.52-0.46-0.62-1.02-0.23-1.46c0.58-0.68,1.21-0.37,1.78,0.13
		C73.36,72.06,73.84,72.54,73.16,73.13z M77.7,63.95c-0.62,0.41-1.22,0.19-1.82-0.19c-0.72-0.46-0.54-1.1-0.14-1.58
		c0.49-0.58,1.29-0.74,1.84-0.19C78.05,62.46,78.19,63.21,77.7,63.95z M77.89,56.09c0.48-0.58,1.1-0.49,1.66-0.04
		c0.69,0.55,0.66,1.17,0.1,1.81c-0.45,0.57-1.08,0.8-1.62,0.32C77.38,57.61,77.32,56.78,77.89,56.09z M77.06,42.49
		c-0.53-0.59-0.25-1.15,0.12-1.64c0.36-0.46,0.92-0.64,1.39-0.21c0.54,0.51,0.34,1.15-0.09,1.62C78.12,42.67,77.6,42.88,77.06,42.49
		z M80.3,74.62c-0.58,0.45-1.15,0.49-1.69,0.04c-0.4-0.33-0.89-0.67-0.36-1.31c0.56-0.66,1.18-0.73,1.79-0.18
		C80.47,73.54,80.6,74.08,80.3,74.62z M82.93,68.23c-0.73,0.47-1.54,0.75-2.31,0.12c-0.59-0.48-0.44-1.09,0.03-1.62
		c0.69-0.77,1.49-0.79,2.24-0.17C83.44,67.02,83.41,67.64,82.93,68.23z M83.75,63.02c-0.48,0.56-1.14,0.29-1.7-0.13
		c-0.48-0.5-0.62-1.09-0.16-1.66c0.46-0.56,1.15-0.66,1.63-0.14C84.01,61.61,84.27,62.41,83.75,63.02z M94.16,77.04
		c-0.48,0.7-1.09,0.25-1.62-0.09c-0.38-0.51-0.81-1.08-0.33-1.67c0.49-0.61,1.11-0.42,1.62,0.08
		C94.32,75.83,94.55,76.49,94.16,77.04z M94.48,70.95c0.49,0.43,0.89,0.99,0.42,1.6c-0.55,0.72-1.27,0.4-1.85,0
		c-0.61-0.42-0.49-1.05-0.26-1.64C93.39,70.44,93.96,70.49,94.48,70.95z M91.65,63.87c0.42-0.54,1-0.27,1.38,0.15
		c0.45,0.49,0.64,1.12,0.05,1.62c-0.6,0.51-1.14-0.1-1.92-0.31C91.31,64.86,91.35,64.26,91.65,63.87z M90.19,69.59
		c0.63,0.81,0.44,1.19-0.07,1.71c-0.58,0.61-1.1-0.1-1.64,0.01c-0.04-0.72-0.75-1.33,0.03-1.84C89.05,69.13,89.47,68.67,90.19,69.59
		z M88.06,58.91c0.49-0.5,1.2-0.72,1.52-0.1c0.26,0.49,0.56,1.33-0.02,1.9c-0.54,0.54-1.11,0.19-1.62-0.17
		C87.51,59.96,87.55,59.42,88.06,58.91z M86.68,64.9c0.61-0.46,1.22-0.39,1.71,0.08c0.43,0.41,0.98,1,0.38,1.57
		c-0.58,0.55-1.34,0.38-1.88-0.19C86.5,65.95,86.29,65.43,86.68,64.9z M86.87,75.03c-0.55,0.72-1.27,0.4-1.85,0
		c-0.61-0.42-0.49-1.05-0.26-1.64c0.6-0.48,1.17-0.42,1.69,0.04C86.93,73.85,87.33,74.41,86.87,75.03z M85.73,55.57
		c0.51,0.39,0.5,0.95,0.12,1.43c-0.48,0.61-1.1,0.79-1.84,0.43c-0.45-0.56-0.38-1.12-0.02-1.69C84.51,54.93,85.14,55.11,85.73,55.57
		z M83.99,51.75c0.4,0.41,0.47,0.97,0,1.44c-0.44,0.44-0.97,0.51-1.44,0.11c-0.52-0.45-0.17-0.98-0.07-1.41
		C83.02,51.42,83.57,51.32,83.99,51.75z M80.69,45.4c0.42-0.44,0.94-0.55,1.37-0.05c0.43,0.49,0.21,0.98-0.17,1.42
		c-0.42,0.32-0.93,0.75-1.38,0.27C80.04,46.54,80.22,45.89,80.69,45.4z M80,49.54c0.63,0.67,0.27,1.32-0.25,1.84
		c-0.5,0.5-1.1,0.47-1.66,0.15c-0.55-0.9,0.13-1.31,0.56-1.84C79.07,49.16,79.54,49.05,80,49.54z M78.5,35.99
		c0.56,0.49,0.89,1.12,0.24,1.78c-0.45,0.46-0.99,0.28-1.5-0.01c-0.47-0.52-0.45-1.16-0.13-1.7C77.47,35.46,78.07,35.62,78.5,35.99z
		 M76.59,32.65c-0.48-0.57-0.56-1.26-0.24-1.89c0.46-0.49,0.9-0.45,1.28-0.08c0.56,0.57,0.61,1.26,0.16,1.91
		C77.46,33.04,76.93,33.05,76.59,32.65z M76.13,26.29c0.46-0.42,1.18-1.02,1.77-0.27c0.57,0.73,0.42,1.6-0.32,2.21
		c-0.43,0.36-0.91,0.88-1.61,0.4C75.75,27.82,75.4,26.95,76.13,26.29z M75.33,46.75c0.36-0.4,0.85-0.45,1.23-0.05
		c0.48,0.51,0.53,1.14,0.05,1.69c-0.43,0.5-0.94,0.45-1.43,0.04C74.68,47.82,74.88,47.24,75.33,46.75z M76.29,67.56
		c0.38,0.48,0.72,1.01,0.24,1.48c-0.79,0.79-1.57,0.26-2.3-0.21c-0.44-0.29-0.63-0.79-0.27-1.19C74.7,66.85,75.53,67.33,76.29,67.56
		z M74.03,55.08c-0.61,0.61-1.33,0.67-1.91,0.33c-0.95-0.86-0.38-1.73-0.04-2.21c0.39-0.55,1.32-0.78,1.99-0.14
		C74.72,53.69,74.66,54.45,74.03,55.08z M71.83,42.7c0.36-0.52,0.97-0.52,1.37,0.01c0.53,0.71,0.54,1.43-0.06,1.95
		c-0.58,0.64-1.24,0.93-1.69,0.35C70.84,44.24,71.36,43.38,71.83,42.7z M70.37,29.91c-0.3-0.47-0.12-1.14,0.24-1.72
		c0.33-0.53,0.92-1.01,1.5-0.49c0.62,0.55,0.59,1.44,0.05,2.03C71.81,30.11,71.21,30.57,70.37,29.91z M73.68,40.22
		c-0.45,0.52-0.98,0.74-1.59,0.26c-0.57-0.69-0.64-1.41-0.14-2.14c0.51-0.75,1.2-0.73,1.78-0.18C74.41,38.8,74.26,39.55,73.68,40.22
		z M73.46,31.9c0.62,0.62,0.69,1.39,0.19,2.09c-0.37,0.51-0.96,0.52-1.37,0.02c-0.53-0.64-0.44-1.41-0.29-2.17
		C72.51,31.49,73.03,31.47,73.46,31.9z M70.8,21.57c0.61-0.74,1.48-0.9,2.2-0.32c0.74,0.59,0.14,1.31-0.27,1.77
		c-0.66,0.74-1.53,0.39-2.33,0.16C69.92,22.48,70.44,22,70.8,21.57z M70.15,48.55c0.62-0.63,1.32-0.86,1.98-0.15
		c0.61,0.65,0.54,1.42-0.09,2.04c-0.63,0.63-1.36,0.55-2.1,0.15C69.4,49.84,69.54,49.17,70.15,48.55z M69.41,35.84
		c-0.6,0.6-1.14,0.56-1.56,0.16c-0.67-0.66-0.79-1.5-0.22-2.27c0.34-0.46,0.99-0.56,1.4-0.08C69.61,34.33,69.7,35.15,69.41,35.84z
		 M67,21.77c0.64-0.45,1.33-0.4,1.9,0.16c0.37,0.37,0.41,0.82-0.08,1.28c-0.63,0.32-1.32,0.24-1.89-0.24
		C66.54,22.63,66.55,22.09,67,21.77z M65.6,25.92c0.7-0.5,1.46-0.43,2.08,0.19c0.43,0.43,0.42,0.95,0.05,1.48
		c-0.75,0.15-1.52,0.24-2.16-0.29C65.08,26.88,65.09,26.29,65.6,25.92z M62.44,18.89c0.59-0.54,1.47-0.57,2.02,0.05
		c0.52,0.58,0.04,1.18-0.49,1.51c-0.58,0.36-1.24,0.54-1.71,0.24C61.6,19.85,62.05,19.25,62.44,18.89z M61.31,22.11
		c0.66-0.65,1.29-0.32,1.77,0.25c0.37,0.43,0.53,1.04-0.07,1.39c-0.54,0.32-1.17,0.34-1.69-0.13C61.03,23.1,60.86,22.56,61.31,22.11
		z M59.51,27.64c0.66-0.58,1.42-0.73,2.06-0.05c0.55,0.58,0.57,1.27-0.18,1.78c-0.73,0.5-1.44,0.43-2.14-0.14
		C58.78,28.62,58.99,28.1,59.51,27.64z M59.6,33.9c0.7,0.58,0.77,1.33,0.15,2.02c-0.51,0.57-1.2,0.77-1.84,0.23
		c-0.69-0.59-0.67-1.32-0.12-2.17C58.32,33.62,58.97,33.38,59.6,33.9z M56.94,21.49c0.47-0.43,1.11-0.63,1.62-0.09
		c0.43,0.46,0.26,1.03-0.21,1.39c-0.48,0.37-1.04,0.65-1.63,0.12C56.33,22.36,56.54,21.85,56.94,21.49z M56.9,26.36
		c0.54,0.41,0.53,1.02,0.01,1.38c-0.68,0.48-1.53,1-2.31,0.38c-0.57-0.45-0.29-1.12,0.35-1.7C55.47,25.82,56.2,25.82,56.9,26.36z
		 M53.27,16.86c0.44-0.38,0.92-0.6,1.41-0.17c0.5,0.44,0.39,0.95-0.05,1.38c-0.49,0.47-1.13,0.65-1.63,0.18
		C52.52,17.79,52.95,17.29,53.27,16.86z M51.25,22.95c0.55-0.47,1.17-0.42,1.69,0.05c0.4,0.38,0.35,0.88-0.05,1.23
		c-0.49,0.45-1.07,0.65-1.67,0.15C50.8,23.89,50.75,23.38,51.25,22.95z M51.25,27.44c0.7,0.66,0.47,1.37-0.15,1.99
		c-0.62,0.62-1.29,0.76-2.03,0.21c-0.4-0.74-0.48-1.48,0.15-2.11C49.83,26.89,50.6,26.82,51.25,27.44z M47.55,14.8
		c0.47-0.47,1.03-0.4,1.43,0c0.43,0.43,0.34,0.97-0.13,1.51c-0.43,0.1-0.96,0.45-1.41-0.07C47.04,15.78,47.1,15.25,47.55,14.8z
		 M46.71,19.46c0.52-0.53,1.16-0.89,1.83-0.25c0.49,0.46,0.37,0.93-0.15,1.36c-0.52,0.43-0.93,1.12-1.83,0.56
		C46.24,20.56,46.21,19.96,46.71,19.46z M46.59,25.5c0.64,0.67,0.41,1.6-0.14,1.99c-0.48,0.34-1.34,0.92-2.2-0.04
		c-0.34-0.59-0.28-1.3,0.33-1.92C45.21,24.9,45.96,24.84,46.59,25.5z M42.66,13.68c0.48-0.38,1.03-0.39,1.43,0.12
		c0.46,0.59,0.63,1.23-0.17,1.74c-0.57,0.36-1.13,0.44-1.69-0.02C41.87,14.79,42.06,14.16,42.66,13.68z M41.81,19.9
		c0.64-0.55,1.25-0.59,1.81,0.1c0.45,0.56,0.53,1.19-0.04,1.66c-0.69,0.57-1.51,0.51-2.08-0.14C41.01,20.98,41.24,20.35,41.81,19.9z
		 M38.97,9.95c0.57-0.58,1.4-0.28,1.89-0.02c0.61,0.33,0.39,1.03-0.1,1.53c-0.51,0.51-1.04,0.55-1.62,0.12
		C38.78,11.07,38.44,10.5,38.97,9.95z M36.67,15.78c0.6-0.52,1.41-0.26,1.92,0.22c0.52,0.48,0.43,1.18-0.14,1.64
		c-0.57,0.47-1.15,0.32-1.65-0.16C36.38,16.92,36.11,16.26,36.67,15.78z M34.05,6.43c0.5-0.59,1.13-0.4,1.62,0.05
		c0.42,0.38,0.69,0.97,0.15,1.39c-0.39,0.3-0.98,0.34-1.45,0.49C34.14,7.57,33.54,7.03,34.05,6.43z M32.9,11.71
		c0.52-0.51,0.9-0.7,1.7-0.07c0.92,0.72,0.46,1.14,0.12,1.68c-0.5,0.79-1.11,0.07-1.83,0.03C33,12.81,32.3,12.29,32.9,11.71z
		 M31.47,16.61c0.59-0.48,1.21-0.51,1.67,0.05c0.62,0.75,0.6,1.55-0.17,2.24c-0.53,0.47-1.13,0.63-1.61,0.03
		C30.72,18.15,31,17.34,31.47,16.61z M32.13,23.27c0.23,0.77,0.71,1.6-0.08,2.33c-0.4,0.37-0.89,0.18-1.19-0.27
		c-0.48-0.72-1-1.51-0.21-2.3C31.13,22.54,31.65,22.89,32.13,23.27z M28.66,6.37c0.56-0.6,1.15-0.05,1.56,0.38
		c0.47,0.5,0.54,1.11,0.08,1.72c-0.54,0.39-1.05,0.18-1.45-0.21C28.29,7.71,28.12,6.95,28.66,6.37z M25.92,11.94
		c0.61-0.47,1.17-0.06,1.6,0.43c0.46,0.52,0.51,1.1,0.04,1.7c-0.58,0.23-1.21,0.35-1.63-0.26C25.52,13.22,25.21,12.49,25.92,11.94z
		 M24.45,7.29c-0.6,0.48-1.16,0.06-1.67-0.33C22.44,6.43,22,5.82,22.69,5.34c0.55-0.38,1.2-0.16,1.68,0.33
		C24.87,6.18,25.06,6.8,24.45,7.29z M25.06,20.93c-0.45-0.54-0.4-1.11,0.04-1.69c0.54-0.3,1.07-0.17,1.44,0.25
		c0.54,0.61,0.47,1.24-0.18,1.8C25.73,21.83,25.39,21.33,25.06,20.93z M26.59,26.41c0.58-0.68,1.07-0.2,1.49,0.28
		c0.5,0.56,0.81,1.2,0.13,1.78c-0.44,0.39-1,0.29-1.46-0.23C26.41,27.69,26.03,27.05,26.59,26.41z M27.01,35.57
		c0.51-0.52,1.12-0.43,1.58,0.13c0.38,0.47,0.41,1-0.05,1.44c-0.48,0.45-0.97,0.29-1.42-0.11C26.78,36.56,26.56,36.03,27.01,35.57z
		 M29.2,51.55c-0.36,0.4-0.82,0.69-1.45,0.29c-0.22-0.45-0.33-0.92,0.12-1.39c0.43-0.44,0.89-1,1.52-0.48
		C30,50.48,29.61,51.09,29.2,51.55z M29.53,44.96c-0.67,0.53-1.59,0.74-2.31,0.11c-0.54-0.47-0.12-0.98,0.38-1.36
		c0.52-0.2,0.89-1.26,1.69-0.35C29.71,43.85,30.2,44.43,29.53,44.96z M30.27,31.98c0.58-0.59,1.28-0.54,1.84,0.01
		c0.47,0.45,0.71,1.08,0.15,1.63c-0.66,0.66-1.26,0.2-1.84-0.21C30.05,32.97,29.78,32.48,30.27,31.98z M30.78,41.42
		c-0.36-0.51-0.65-1.11-0.06-1.65c0.66-0.6,1.26-0.3,1.81,0.24c0.61,0.6,0.59,1.2-0.03,1.84C31.82,42.29,31.23,42.05,30.78,41.42z
		 M32.49,53.63c-0.34,0.09-0.77,0.53-1.13-0.02c-0.34-0.53-0.47-1.17-0.1-1.75c0.29-0.45,0.78-0.57,1.18-0.22
		C33.09,52.2,32.86,52.88,32.49,53.63z M30.83,60.41c0.33-0.31,0.84-0.46,1.24-0.07c0.41,0.39,0.31,0.85-0.09,1.19
		c-0.37,0.31-0.8,0.48-1.24,0.1C30.33,61.19,30.5,60.72,30.83,60.41z M25.23,65.86c-0.42-0.67-0.23-1.26,0.27-1.83
		c0.4-0.45,1.04-0.71,1.38-0.32c0.54,0.62-0.07,1.44-0.19,2.12C26.6,66.35,25.79,66,25.23,65.86z"/>
	<path class="st0" d="M100.49,118.69c-5.76,2.73-11.91,4.55-18.14,5.75c-6.24,1.19-12.59,1.79-18.96,1.73
		c-1.59-0.01-3.18-0.08-4.78-0.22c-1.59-0.14-3.18-0.33-4.76-0.64c-3.16-0.65-6.2-1.71-9.12-2.99c-5.84-2.59-11.28-6.02-16.16-10.12
		c-1.22-1.03-2.41-2.09-3.55-3.2c-1.16-1.08-2.27-2.32-3.18-3.65c-1.83-2.68-3.05-5.76-3.61-8.94c-0.56-3.18-0.49-6.48,0.3-9.61
		c0.4-1.56,0.97-3.09,1.75-4.5c0.79-1.4,1.61-2.75,2.58-4.03c0.95-1.29,2.09-2.47,3.41-3.38c0.65-0.46,1.32-0.86,1.95-1.31
		c-0.04,0-0.07,0-0.11,0c-0.32-0.01-0.63-0.07-0.93-0.15c-0.29-0.09-0.63-0.19-0.87-0.43c-0.24-0.24-0.31-0.55-0.4-0.85
		c-0.08-0.3-0.14-0.62-0.15-0.94c-0.01-0.19,0-0.39,0.03-0.59c-1.94,1.53-3.73,3.24-5.2,5.2c-1.88,2.49-3.16,5.39-3.84,8.44
		c-0.71,3.04-0.92,6.19-0.72,9.3c0.23,3.1,0.93,6.18,2.22,9c1.28,2.83,3.13,5.34,5.45,7.44c4.51,4.37,9.48,8.28,15,11.24
		c5.5,2.97,11.54,5,17.75,5.78c6.24,0.64,12.59,0.44,18.84-0.22c6.26-0.66,12.49-1.89,18.44-3.95c2.97-1.03,5.88-2.28,8.6-3.84
		c2.72-1.56,5.28-3.42,7.47-5.65c0.52-0.54,1.03-1.09,1.5-1.67c-0.84,0.74-1.7,1.45-2.6,2.1
		C106.13,115.71,103.36,117.32,100.49,118.69z"/>
	<path class="st1" d="M112.31,109.92c-0.14,0.01-0.26,0.08-0.35,0.16l-0.12,0.1c-1.16,1.05-2.36,2.05-3.64,2.95
		c-2.54,1.82-5.28,3.36-8.13,4.67c-5.71,2.59-11.79,4.3-17.95,5.46c-6.17,1.13-12.46,1.68-18.72,1.58c-3.13-0.07-6.26-0.25-9.3-0.84
		c-3.03-0.62-6-1.63-8.86-2.88c-5.72-2.51-11.06-5.91-15.93-9.85c-1.21-1-2.4-2.02-3.53-3.1c-1.17-1.06-2.19-2.18-3.08-3.45
		c-1.77-2.52-2.97-5.45-3.55-8.5c-0.58-3.04-0.59-6.22,0.11-9.25c0.35-1.51,0.87-2.99,1.6-4.36c0.74-1.38,1.54-2.74,2.46-4
		c0.91-1.27,1.96-2.43,3.22-3.34c0.62-0.47,1.29-0.89,1.93-1.37c0.19-0.14,0.37-0.29,0.55-0.44c0.15-0.04,0.31-0.1,0.45-0.18
		c0.02,1.47,0.72,2.95,1.98,3.82c0.7,0.49,1.53,0.78,2.36,0.87c0.84,0.11,1.74-0.01,2.53-0.35c1.61-0.69,2.74-2.02,3.61-3.36
		c0.51-0.81,0.93-1.65,1.32-2.51c0.2,0.28,0.41,0.54,0.64,0.77c0.71,0.7,1.52,1.22,2.35,1.64c1.67,0.83,3.43,1.31,5.21,1.62
		c0.9,0.16,1.8,0.23,2.65,0.31l2.59,0.24c1.73,0.16,3.46,0.28,5.19,0.41c3.46,0.27,6.92,0.47,10.38,0.68l5.2,0.29
		c1.71,0.09,3.4,0.18,5.14,0.2c2.96,0.8,5.91,1.33,8.87,1.82c3,0.51,6,0.97,8.94,1.63l0.43,0.1l0.06-0.41
		c0.33-2.3,0.12-4.59-0.32-6.81c-0.21-1.11-0.49-2.21-0.8-3.29c-0.3-1.09-0.65-2.16-1.02-3.22c-1.5-4.25-3.31-8.38-5.31-12.41
		c-1-2.01-2.03-4.01-3.11-5.98c-1.09-1.97-2.13-3.87-2.97-5.91c-0.86-2.02-1.57-4.1-2.09-6.23c-0.49-2.05-0.85-4.15-0.83-6.21
		c0.51-0.58,0.95-1.21,1.3-1.89c0.41-0.77,0.68-1.61,0.85-2.46c0.17-0.85,0.21-1.72,0.14-2.58c-0.08-0.8-0.24-1.6-0.67-2.37
		c0.04-0.22,0.12-0.5,0.2-0.75L84.63,20c0.21-0.64,0.43-1.29,0.61-1.95c0.18-0.66,0.34-1.33,0.4-2.03c0.02-0.35,0.02-0.7-0.04-1.05
		c-0.07-0.34-0.21-0.69-0.47-0.94c0,0,0,0,0,0c0,0,0,0-0.01-0.01c0,0,0,0-0.01-0.01c0,0,0,0,0,0c-0.25-0.26-0.59-0.41-0.94-0.47
		c-0.35-0.07-0.7-0.07-1.05-0.04c-0.69,0.06-1.36,0.22-2.02,0.4c-0.66,0.18-1.3,0.4-1.94,0.61l-0.95,0.31
		c-0.25,0.08-0.53,0.16-0.75,0.2c-0.77-0.43-1.57-0.59-2.36-0.67c-0.86-0.08-1.72-0.03-2.57,0.14c-0.84,0.17-1.68,0.44-2.45,0.85
		c-0.68,0.36-1.31,0.8-1.89,1.31c-2.05,0.03-4.15-0.34-6.19-0.83c-2.12-0.52-4.2-1.23-6.21-2.09c-2.03-0.84-3.93-1.88-5.89-2.97
		c-1.96-1.08-3.96-2.11-5.96-3.12c-4.02-2-8.14-3.82-12.37-5.32c-1.06-0.37-2.13-0.73-3.21-1.03c-1.08-0.32-2.17-0.6-3.28-0.81
		c-2.21-0.44-4.5-0.65-6.79-0.32l-0.41,0.06l0.1,0.43c0.66,2.95,1.13,5.96,1.63,8.97c0.49,2.97,1.02,5.93,1.82,8.9
		c0.02,1.74,0.11,3.44,0.2,5.15l0.29,5.21c0.21,3.47,0.41,6.94,0.68,10.41c0.13,1.73,0.25,3.47,0.41,5.2l0.24,2.6
		c0.08,0.86,0.16,1.76,0.31,2.66c0.3,1.78,0.79,3.54,1.61,5.22c0.42,0.83,0.93,1.65,1.63,2.36c0.23,0.23,0.49,0.45,0.77,0.64
		c-0.86,0.38-1.7,0.81-2.5,1.32c-1.34,0.87-2.67,2-3.35,3.62c-0.34,0.8-0.45,1.7-0.35,2.54c0.1,0.83,0.38,1.67,0.87,2.37
		c0.87,1.27,2.35,1.97,3.81,1.99c0,0.01-0.01,0.01-0.01,0.02c-2.21,1.58-4.28,3.4-5.97,5.58c-1.98,2.52-3.37,5.52-4.12,8.64
		c-0.77,3.12-1.08,6.35-0.88,9.56c0.21,3.21,0.91,6.41,2.24,9.36c1.3,2.95,3.27,5.65,5.62,7.81c0.57,0.55,1.13,1.12,1.72,1.65
		l1.77,1.6c1.22,1.03,2.44,2.05,3.72,2.99c2.55,1.91,5.23,3.65,8.05,5.14c5.64,2.98,11.84,4.88,18.17,5.57
		c3.17,0.29,6.34,0.29,9.51,0.19c3.16-0.11,6.32-0.32,9.46-0.69c3.14-0.36,6.27-0.87,9.37-1.51c3.1-0.64,6.17-1.44,9.17-2.46
		c3-1.03,5.93-2.26,8.72-3.79c2.78-1.54,5.42-3.38,7.69-5.63c0.56-0.57,1.12-1.15,1.63-1.76c0.26-0.3,0.51-0.62,0.76-0.94l0.19-0.24
		c0.03-0.03,0.12-0.18,0.13-0.3c0.02-0.13-0.01-0.27-0.07-0.38C112.81,110.04,112.59,109.89,112.31,109.92z M28.14,72.88
		c-0.29,0.03-0.93,0.36-1.47-0.17c-0.53-0.53-0.32-1.04-0.14-1.53c0.38-1.04,5.8-4.88,8.3-6.46c0.1-0.06,0.22,0.05,0.16,0.15
		C33.55,67.45,29.01,72.8,28.14,72.88z M22.97,67.35c-0.36-0.59-0.55-1.27-0.59-1.98c-0.04-0.69,0.09-1.37,0.39-1.98
		c0.6-1.23,1.78-2.15,3.04-2.87c1.27-0.73,2.67-1.28,4.1-1.75l2.88-0.94l-3-0.62c-1.33-0.28-2.34-1.57-3-3.02
		c-0.67-1.46-1.07-3.1-1.32-4.74c-0.13-0.82-0.19-1.65-0.25-2.52l-0.19-2.59l-0.4-5.19l-0.83-10.39c-0.27-3.46-0.54-6.94-0.74-10.36
		l-0.01-0.13L23,18.18c-0.45-1.42-0.82-2.88-1.17-4.35l-1.01-4.44c-0.64-2.83-1.22-5.68-1.97-8.51c0.93-0.15,1.88-0.2,2.83-0.17
		c1.1,0.03,2.2,0.16,3.28,0.37c2.18,0.39,4.31,1.05,6.39,1.82c4.17,1.55,8.12,3.66,11.99,5.85c1.94,1.1,3.84,2.26,5.76,3.4
		c0.96,0.57,1.92,1.15,2.93,1.69c1.01,0.52,2.04,1.03,3.09,1.47c2.1,0.89,4.28,1.59,6.51,2.1c2.23,0.49,4.51,0.81,6.86,0.68
		l0.28-0.02l0.19-0.19c0.52-0.53,1.1-0.99,1.75-1.37c0.13-0.08,0.27-0.15,0.4-0.22c-0.41,1.03-0.17,2.09,0.54,2.37
		c0.71,0.29,0.82-0.8,1.23-1.83c0.22-0.54,0.47-0.96,0.56-1.28c0.52-0.09,1.06-0.15,1.59-0.13c0.75,0.02,1.53,0.15,2.11,0.46
		l0.17,0.09l0.13-0.02c0.44-0.08,0.73-0.22,1.06-0.35l0.93-0.4c0.62-0.27,1.23-0.53,1.85-0.76c0.62-0.23,1.25-0.43,1.89-0.54
		c0.62-0.11,1.32-0.15,1.81,0.25c0.4,0.49,0.36,1.19,0.25,1.82c-0.11,0.64-0.31,1.28-0.54,1.9c-0.23,0.62-0.49,1.24-0.76,1.86
		l-0.4,0.94c-0.13,0.33-0.27,0.62-0.34,1.06l-0.02,0.13l0.09,0.17c0.31,0.59,0.45,1.37,0.46,2.12c0.01,0.52-0.04,1.04-0.13,1.55
		c-0.25,0.12-0.55,0.27-0.9,0.42c-1.03,0.41-2.11,0.53-1.82,1.24c0.25,0.63,1.12,0.89,2.02,0.65c-0.08,0.16-0.16,0.32-0.26,0.48
		c-0.37,0.65-0.84,1.23-1.37,1.75l-0.19,0.19l-0.02,0.28c-0.13,2.36,0.19,4.64,0.68,6.88c0.51,2.23,1.21,4.42,2.09,6.53
		c0.44,1.06,0.94,2.08,1.46,3.1c0.55,1.01,1.12,1.98,1.69,2.94c1.14,1.93,2.3,3.83,3.39,5.78c2.19,3.88,4.28,7.84,5.83,12.03
		c0.77,2.09,1.43,4.23,1.81,6.41c0.21,1.09,0.33,2.19,0.37,3.29c0.03,0.95-0.02,1.91-0.17,2.84c-2.82-0.75-5.66-1.34-8.48-1.98
		l-4.43-1.02c-1.47-0.35-2.93-0.72-4.34-1.17l-0.09-0.03l-0.13-0.01c-3.41-0.2-6.89-0.47-10.33-0.74l-10.35-0.84l-5.18-0.4
		l-2.59-0.19c-0.87-0.07-1.7-0.13-2.51-0.25c-1.64-0.26-3.27-0.66-4.73-1.33c-1.44-0.66-2.73-1.68-3.01-3.01l-0.62-3.01l-0.94,2.89
		c-0.47,1.43-1.01,2.84-1.74,4.11c-0.72,1.27-1.64,2.45-2.86,3.05c-0.61,0.3-1.28,0.43-1.97,0.39c-0.7-0.04-1.38-0.24-1.97-0.6
		c-1.19-0.69-1.97-2.13-1.93-3.58l0.01-0.21c0.09-0.08,0.18-0.16,0.26-0.25c2.2-2.34,3.74-5.18,5.16-8c0.05-0.1,0-0.15-0.09-0.09
		c-2.73,1.59-5.56,3.05-8.19,4.83c-0.11,0.07-0.22,0.15-0.32,0.22l-0.3,0.01C25.09,69.33,23.66,68.55,22.97,67.35z M109.79,113.37
		c-2.19,2.23-4.75,4.09-7.47,5.65c-2.72,1.56-5.63,2.81-8.6,3.84c-5.95,2.06-12.18,3.29-18.44,3.95
		c-6.26,0.65-12.61,0.86-18.84,0.22c-6.22-0.78-12.25-2.81-17.75-5.78c-5.52-2.97-10.49-6.87-15-11.24
		c-2.32-2.1-4.17-4.62-5.45-7.44c-1.29-2.82-1.99-5.9-2.22-9c-0.2-3.11,0.01-6.26,0.72-9.3c0.68-3.05,1.96-5.95,3.84-8.44
		c1.47-1.96,3.26-3.68,5.2-5.2c-0.03,0.2-0.04,0.4-0.03,0.59c0.01,0.32,0.07,0.63,0.15,0.94c0.09,0.29,0.16,0.61,0.4,0.85
		c0.24,0.24,0.58,0.34,0.87,0.43c0.3,0.08,0.61,0.14,0.93,0.15c0.04,0,0.07,0,0.11,0c-0.63,0.45-1.3,0.85-1.95,1.31
		c-1.33,0.91-2.47,2.1-3.41,3.38c-0.97,1.28-1.8,2.64-2.58,4.03c-0.78,1.41-1.35,2.94-1.75,4.5c-0.79,3.13-0.86,6.43-0.3,9.61
		c0.56,3.18,1.78,6.26,3.61,8.94c0.91,1.33,2.03,2.57,3.18,3.65c1.14,1.12,2.34,2.17,3.55,3.2c4.88,4.1,10.33,7.53,16.16,10.12
		c2.92,1.28,5.96,2.34,9.12,2.99c1.58,0.32,3.17,0.51,4.76,0.64c1.59,0.14,3.18,0.21,4.78,0.22c6.36,0.06,12.72-0.55,18.96-1.73
		c6.24-1.2,12.38-3.02,18.14-5.75c2.87-1.38,5.64-2.98,8.21-4.88c0.9-0.65,1.76-1.36,2.6-2.1
		C110.82,112.28,110.31,112.84,109.79,113.37z"/>
	<g>
		<g>
			<g>
				<path class="st0" d="M34.83,64.71c-2.51,1.58-7.93,5.42-8.3,6.46c-0.18,0.49-0.39,1,0.14,1.53c0.53,0.53,1.18,0.2,1.47,0.17
					c0.88-0.08,5.41-5.43,6.86-8.01C35.05,64.76,34.93,64.65,34.83,64.71z"/>
			</g>
			<path class="st2" d="M60.69,52.32c0.27-0.54,0.99-1.15,0.41-1.66c-1.24-1.1-2.09,0.32-3.07,0.75c-0.69,0.3-0.92,1.01-0.3,1.5
				C58.86,53.78,59.69,52.46,60.69,52.32z"/>
			<path class="st2" d="M45.28,61.81c-1.02-0.99-1.42,0.19-2.1,0.76c-1.1,0.28-1.01,1.26-0.42,1.84c0.9,0.87,1.7-0.18,2.43-0.62
				C46.04,63.27,45.91,62.42,45.28,61.81z"/>
			<path class="st2" d="M75.74,62.18c-0.4,0.48-0.57,1.11,0.14,1.58c0.59,0.38,1.2,0.6,1.82,0.19c0.48-0.74,0.35-1.49-0.12-1.96
				C77.03,61.44,76.23,61.6,75.74,62.18z"/>
			<path class="st2" d="M72.08,53.2c-0.34,0.48-0.91,1.34,0.04,2.21c0.59,0.34,1.3,0.29,1.91-0.33c0.63-0.64,0.69-1.39,0.03-2.02
				C73.4,52.42,72.47,52.65,72.08,53.2z"/>
			<path class="st2" d="M66.75,58.46c-0.78-0.87-1.69-0.54-2.51,0.01c-0.6,0.4-0.69,0.98-0.28,1.62c1.1,0.64,2.11,0.22,3.02-0.36
				C67.65,59.29,67,58.74,66.75,58.46z"/>
			<path class="st2" d="M63.66,64.61c0.64-0.61,0.32-1.05-0.35-1.35c-0.59-0.95-1.4-1.03-2.17-0.39c-0.71,0.58-0.4,1.29,0.2,1.79
				C62.09,65.27,62.92,65.31,63.66,64.61z"/>
			<path class="st2" d="M52.94,58.21c-0.5,0.6-1.2,1.34-0.66,1.83c0.71,0.64,1.72,0.23,2.45-0.37c0.56-0.46,0.97-1.15,0.34-1.78
				C54.25,57.06,53.56,57.86,52.94,58.21z"/>
			<path class="st2" d="M60.78,56.54c-0.7-0.54-1.46-0.28-2.21,0.54c-0.31,0.38-0.75,1-0.08,1.63c0.69,0.66,1.48,0.39,2.04-0.21
				C61.01,57.96,61.66,57.22,60.78,56.54z"/>
			<path class="st2" d="M79.65,57.86c0.55-0.64,0.59-1.26-0.1-1.81c-0.55-0.45-1.18-0.54-1.66,0.04c-0.57,0.69-0.51,1.52,0.14,2.09
				C78.57,58.66,79.2,58.43,79.65,57.86z"/>
			<path class="st2" d="M67.63,33.74c-0.57,0.76-0.45,1.61,0.22,2.27c0.41,0.41,0.96,0.45,1.56-0.16c0.29-0.69,0.2-1.51-0.38-2.19
				C68.62,33.17,67.97,33.28,67.63,33.74z"/>
			<path class="st2" d="M54.01,66.38c-0.85-0.52-1.82-0.35-2.61,0.12c-0.6,0.35-0.33,1.09,0.05,1.42c0.9,0.79,1.72,0.04,2.64-0.34
				C54.22,67.19,54.53,66.7,54.01,66.38z"/>
			<path class="st2" d="M51.72,49.56c-0.48-0.62-1.1-0.45-1.57,0.04c-0.57,0.6-0.77,1.3-0.3,2.04c0.66,0.6,1.31,0.48,1.87-0.03
				C52.44,50.96,52.22,50.2,51.72,49.56z"/>
			<path class="st2" d="M38.5,62.44c-0.57,0.6-0.77,1.3-0.3,2.04c0.66,0.6,1.31,0.48,1.87-0.03c0.72-0.65,0.5-1.41,0-2.05
				C39.59,61.78,38.97,61.95,38.5,62.44z"/>
			<path class="st2" d="M65.61,41.81c0.36-0.52,0.6-1.17,0.08-1.81c-0.58-0.7-1.32-0.77-2.01-0.15c-0.57,0.52-0.77,1.2-0.23,1.84
				C64.03,42.39,64.76,42.37,65.61,41.81z"/>
			<path class="st2" d="M59.64,41.85c0.3-0.49,0.72-0.99,0.17-1.6c-0.5-0.55-1.09-0.57-1.6-0.09c-0.48,0.45-0.63,1.08-0.19,1.64
				C58.49,42.39,59.06,42.32,59.64,41.85z"/>
			<path class="st2" d="M63.73,53.03c0.6,0.43,1.65,0.71,2.29-0.24c0.38-0.57,0.89-1.31,0.05-1.81c-0.59-0.35-1.4-0.82-2.21,0.31
				C63.7,51.7,62.94,52.47,63.73,53.03z"/>
			<path class="st2" d="M83.99,55.74c-0.36,0.57-0.44,1.13,0.02,1.69c0.74,0.36,1.36,0.18,1.84-0.43c0.38-0.48,0.39-1.04-0.12-1.43
				C85.14,55.11,84.51,54.93,83.99,55.74z"/>
			<path class="st2" d="M78.64,49.69c-0.43,0.53-1.11,0.93-0.56,1.84c0.56,0.32,1.16,0.35,1.66-0.15c0.52-0.52,0.88-1.17,0.25-1.84
				C79.54,49.05,79.07,49.16,78.64,49.69z"/>
			<path class="st2" d="M60.86,44.79c-0.64,0.5-0.84,1.13-0.21,1.76c0.56,0.57,1.22,0.57,1.88,0.02c0.41-0.53,0.92-1.27,0.42-1.81
				C62.44,44.23,61.54,44.26,60.86,44.79z"/>
			<path class="st2" d="M70.44,63.39c-0.62-0.48-1.31-0.95-2.06-0.21c-0.49,0.48-0.39,1.02,0.11,1.41c0.63,0.49,1.32,0.83,2.09,0.27
				C70.95,64.31,70.93,63.78,70.44,63.39z"/>
			<path class="st2" d="M57.77,67.19c-0.44,0.69-0.2,1.28,0.43,1.73c0.51,0.36,1.11,0.65,1.64,0.06c0.59-0.66,0.29-1.27-0.24-1.81
				C59.01,66.56,58.41,66.57,57.77,67.19z"/>
			<path class="st2" d="M88.77,66.55c0.6-0.57,0.05-1.16-0.38-1.57c-0.49-0.47-1.1-0.54-1.71-0.08c-0.39,0.54-0.18,1.05,0.21,1.46
				C87.43,66.93,88.19,67.1,88.77,66.55z"/>
			<path class="st2" d="M55.2,61.96c-0.32,0.47-0.86,1-0.28,1.61c0.61,0.64,1.33,0.34,1.88-0.14c0.48-0.41,0.88-1.03,0.28-1.6
				C56.5,61.28,55.81,61.28,55.2,61.96z"/>
			<path class="st2" d="M68.5,45.03c-0.72-0.73-1.57-0.45-2.3,0.12c-0.82,0.64-0.87,1.4-0.26,2.26c0.73,0.65,1.55,0.66,2.28,0.04
				C69.01,46.77,69.34,45.87,68.5,45.03z"/>
			<path class="st2" d="M53.27,55.56c0.52-0.52,0.64-1.05,0.01-1.58c-0.63-0.54-1.32-0.5-1.9,0c-0.51,0.43-0.67,1.02-0.28,1.64
				C51.84,55.87,52.58,56.25,53.27,55.56z"/>
			<path class="st2" d="M55.16,70.19c-0.48-0.42-1.06-0.91-1.59-0.24c-0.53,0.68-0.74,1.6-0.11,2.32c0.47,0.54,0.98,0.12,1.35-0.38
				C55.02,71.35,56.08,70.98,55.16,70.19z"/>
			<path class="st2" d="M48.9,56.69c-0.07-0.44-0.42-0.77-0.86-0.8l-0.02,0c-0.46-0.03-0.88,0.28-0.97,0.73
				c-0.15,0.77-0.45,1.48,0.12,2.2c0.38,0.47,1.08,0.6,1.48,0.22C49.39,58.35,49.04,57.51,48.9,56.69z"/>
			<path class="st2" d="M77.58,28.23c0.74-0.61,0.89-1.48,0.32-2.21c-0.58-0.75-1.31-0.14-1.77,0.27c-0.73,0.67-0.39,1.53-0.16,2.34
				C76.67,29.1,77.15,28.59,77.58,28.23z"/>
			<path class="st2" d="M72.05,50.43c0.63-0.62,0.7-1.39,0.09-2.04c-0.66-0.7-1.36-0.47-1.98,0.15c-0.61,0.62-0.75,1.29-0.21,2.03
				C70.69,50.98,71.42,51.06,72.05,50.43z"/>
			<path class="st2" d="M81.9,61.23c-0.47,0.57-0.32,1.16,0.16,1.66c0.56,0.42,1.22,0.69,1.7,0.13c0.52-0.6,0.26-1.41-0.22-1.92
				C83.05,60.57,82.36,60.67,81.9,61.23z"/>
			<path class="st2" d="M73.15,44.67c0.6-0.52,0.6-1.25,0.06-1.95c-0.41-0.54-1.01-0.53-1.37-0.01c-0.47,0.68-0.99,1.54-0.38,2.32
				C71.91,45.6,72.57,45.31,73.15,44.67z"/>
			<path class="st2" d="M70.95,60.35c0.64,0.48,1.45,0.79,2.11,0.1c0.52-0.54,0.29-1.17-0.26-1.61c-0.64-0.52-1.29-0.39-1.92,0.06
				C70.49,59.4,70.46,59.97,70.95,60.35z"/>
			<path class="st2" d="M72.17,29.72c0.54-0.59,0.57-1.47-0.05-2.03c-0.58-0.52-1.17-0.04-1.5,0.49c-0.36,0.58-0.54,1.25-0.24,1.72
				C71.21,30.57,71.81,30.11,72.17,29.72z"/>
			<path class="st2" d="M77.91,23.15c0.41-0.45,0.44-1.13-0.04-1.55c-0.44-0.4-0.9-0.03-1.15,0.38c-0.27,0.44-0.41,0.95-0.18,1.31
				C77.17,23.8,77.64,23.45,77.91,23.15z"/>
			<path class="st2" d="M76.63,19.64c0.6-0.11,1.02-0.64,0.9-1.26c-0.12-0.58-0.7-0.57-1.15-0.39c-0.48,0.19-0.9,0.51-0.93,0.94
				C75.66,19.72,76.24,19.72,76.63,19.64z"/>
			<path class="st2" d="M81.31,21.09c0.43-0.08,0.74-0.46,0.64-0.91c-0.08-0.42-0.5-0.41-0.82-0.28c-0.35,0.14-0.65,0.37-0.67,0.68
				C80.61,21.15,81.02,21.15,81.31,21.09z"/>
			<path class="st2" d="M74.24,68.83c0.72,0.48,1.5,1,2.3,0.21c0.48-0.47,0.13-1-0.24-1.48c-0.76-0.23-1.6-0.71-2.32,0.08
				C73.61,68.04,73.8,68.54,74.24,68.83z"/>
			<path class="st2" d="M84.75,73.39c-0.23,0.59-0.35,1.22,0.26,1.64c0.58,0.4,1.31,0.72,1.85,0c0.47-0.61,0.06-1.17-0.42-1.6
				C85.92,72.97,85.35,72.91,84.75,73.39z"/>
			<path class="st2" d="M93.05,72.55c0.58,0.4,1.31,0.72,1.85,0c0.47-0.61,0.06-1.17-0.42-1.6c-0.52-0.46-1.1-0.51-1.69-0.04
				C92.56,71.5,92.44,72.13,93.05,72.55z"/>
			<path class="st2" d="M36.56,68.23c-0.84,0.24-2.28-0.13-1.7,1.61l0.02,0c0.22,0.04,0.44,0.08,0.66,0.12
				c0.16,0.03,0.33,0.06,0.49,0.09c0.54-0.55,1.89-0.26,1.69-1.51C37.63,67.97,36.99,68.11,36.56,68.23z"/>
			<path class="st2" d="M71.98,31.85c-0.15,0.75-0.24,1.53,0.29,2.17c0.41,0.49,1.01,0.49,1.37-0.02c0.5-0.7,0.43-1.47-0.19-2.09
				C73.03,31.47,72.51,31.49,71.98,31.85z"/>
			<path class="st2" d="M65.96,67.44c-0.66,0.66-0.19,1.27,0.21,1.85c0.44,0.37,0.94,0.64,1.43,0.15c0.59-0.59,0.53-1.28-0.01-1.85
				C67.14,67.12,66.52,66.88,65.96,67.44z"/>
			<path class="st2" d="M71.95,38.33c-0.5,0.73-0.43,1.45,0.14,2.14c0.61,0.48,1.14,0.27,1.59-0.26c0.57-0.67,0.72-1.42,0.05-2.06
				C73.14,37.61,72.46,37.59,71.95,38.33z"/>
			<path class="st2" d="M88.51,69.48c-0.78,0.5-0.07,1.11-0.03,1.84c0.54-0.11,1.06,0.6,1.64-0.01c0.51-0.53,0.7-0.9,0.07-1.71
				C89.47,68.67,89.05,69.13,88.51,69.48z"/>
			<path class="st2" d="M46.03,67.2c-0.09,0.35-0.53,0.77,0.02,1.14c0.53,0.34,1.16,0.47,1.74,0.1c0.45-0.29,0.57-0.78,0.22-1.19
				C47.45,66.61,46.77,66.83,46.03,67.2z"/>
			<path class="st2" d="M78.26,73.35c-0.54,0.64-0.04,0.98,0.36,1.31c0.54,0.45,1.11,0.4,1.69-0.04c0.3-0.54,0.17-1.07-0.25-1.45
				C79.44,72.62,78.82,72.69,78.26,73.35z"/>
			<path class="st2" d="M82.89,66.56c-0.75-0.62-1.55-0.6-2.24,0.17c-0.47,0.53-0.62,1.14-0.03,1.62c0.77,0.63,1.58,0.35,2.31-0.12
				C83.41,67.64,83.44,67.02,82.89,66.56z"/>
			<path class="st2" d="M82.55,53.3c0.46,0.4,0.99,0.34,1.44-0.11c0.47-0.47,0.4-1.03,0-1.44c-0.43-0.44-0.97-0.34-1.5,0.13
				C82.39,52.32,82.04,52.85,82.55,53.3z"/>
			<path class="st2" d="M78.48,42.27c0.42-0.47,0.63-1.11,0.09-1.62c-0.46-0.43-1.03-0.26-1.39,0.21c-0.37,0.48-0.65,1.05-0.12,1.64
				C77.6,42.88,78.12,42.67,78.48,42.27z"/>
			<path class="st2" d="M67.68,55.28c0.44-0.43,0.64-0.95,0.2-1.44c-0.54-0.59-1.23-0.65-1.89-0.15c-0.51,0.39-0.59,0.93-0.18,1.43
				C66.36,55.78,67.01,55.76,67.68,55.28z"/>
			<path class="st2" d="M63.89,71.13c-0.47-0.38-1-0.41-1.43,0.05c-0.45,0.48-0.29,0.97,0.11,1.42c0.47,0.34,1,0.56,1.45,0.11
				C64.55,72.19,64.46,71.59,63.89,71.13z"/>
			<path class="st2" d="M92.22,75.27c-0.48,0.6-0.06,1.16,0.33,1.67c0.53,0.34,1.14,0.79,1.62,0.09c0.38-0.55,0.16-1.21-0.33-1.69
				C93.33,74.85,92.71,74.66,92.22,75.27z"/>
			<path class="st2" d="M77.12,36.06c-0.32,0.54-0.34,1.17,0.13,1.7c0.51,0.29,1.05,0.47,1.5,0.01c0.65-0.66,0.32-1.29-0.24-1.78
				C78.07,35.62,77.47,35.46,77.12,36.06z"/>
			<path class="st2" d="M72.88,71.63c-0.56-0.5-1.19-0.81-1.78-0.13c-0.38,0.45-0.29,1,0.23,1.46c0.54,0.35,1.18,0.73,1.82,0.17
				C73.84,72.54,73.36,72.06,72.88,71.63z"/>
			<path class="st2" d="M89.56,60.71c0.58-0.57,0.28-1.41,0.02-1.9c-0.33-0.62-1.03-0.39-1.52,0.1c-0.51,0.51-0.55,1.04-0.12,1.62
				C88.45,60.9,89.02,61.24,89.56,60.71z"/>
			<path class="st2" d="M77.78,32.59c0.45-0.64,0.4-1.34-0.16-1.91c-0.37-0.38-0.82-0.41-1.28,0.08c-0.31,0.64-0.24,1.33,0.24,1.89
				C76.93,33.05,77.46,33.04,77.78,32.59z"/>
			<path class="st2" d="M81.89,46.77c0.38-0.44,0.6-0.92,0.17-1.42c-0.44-0.5-0.95-0.4-1.37,0.05c-0.46,0.49-0.65,1.13-0.18,1.64
				C80.96,47.52,81.47,47.09,81.89,46.77z"/>
			<path class="st2" d="M56.91,46.31c-0.49,0.45-0.35,0.95,0.02,1.43c0.61,0.44,1.15,0.26,1.59-0.27c0.31-0.37,0.48-0.85,0.04-1.22
				C58.03,45.79,57.42,45.83,56.91,46.31z"/>
			<path class="st2" d="M35.06,72.97c-0.31,0.37-0.48,0.8-0.1,1.25c0.44,0.4,0.9,0.24,1.21-0.1c0.31-0.33,0.45-0.84,0.07-1.24
				C35.85,72.47,35.4,72.56,35.06,72.97z"/>
			<path class="st2" d="M93.08,65.64c0.59-0.5,0.4-1.13-0.05-1.62c-0.38-0.42-0.96-0.69-1.38-0.15c-0.3,0.39-0.34,0.98-0.49,1.46
				C91.94,65.55,92.48,66.16,93.08,65.64z"/>
			<path class="st2" d="M48.71,70.78c-0.4,0.36-0.69,0.82-0.29,1.46c0.45,0.22,0.92,0.33,1.38-0.12c0.44-0.43,1-0.89,0.48-1.52
				C49.78,69.98,49.17,70.38,48.71,70.78z"/>
			<path class="st2" d="M76.61,48.39c0.47-0.55,0.42-1.18-0.05-1.69c-0.38-0.41-0.87-0.35-1.23,0.05c-0.45,0.5-0.65,1.07-0.15,1.68
				C75.67,48.84,76.18,48.89,76.61,48.39z"/>
			<path class="st2" d="M50.12,64.24c0.47-0.18,0.16-0.66-0.13-0.92c-0.44-0.4-0.94-0.57-1.44-0.11c-0.28,0.26-0.19,0.55,0.15,0.89
				C49.11,64.15,49.69,64.4,50.12,64.24z"/>
			<path class="st2" d="M37.87,54.38c-0.61-0.63-1.45-0.76-1.97,0.09c-0.44,0.73-1.49,1.53-0.62,2.43c0.57,0.59,1.55,0.69,1.83-0.42
				C37.68,55.8,38.85,55.4,37.87,54.38z"/>
			<path class="st2" d="M35.74,21.85c-0.41,0.62-0.19,1.23,0.19,1.82c0.46,0.72,1.1,0.54,1.57,0.14c0.58-0.49,0.74-1.29,0.19-1.84
				C37.23,21.5,36.48,21.37,35.74,21.85z"/>
			<path class="st2" d="M44.25,27.45c0.86,0.96,1.72,0.38,2.2,0.04c0.55-0.39,0.78-1.32,0.14-1.99c-0.63-0.66-1.38-0.6-2.01,0.03
				C43.97,26.15,43.91,26.86,44.25,27.45z"/>
			<path class="st2" d="M39.95,32.61c-0.58,0.91-0.99,1.93-0.36,3.03c0.63,0.41,1.21,0.32,1.61-0.29c0.54-0.81,0.88-1.73,0.01-2.51
				C40.93,32.59,40.38,31.93,39.95,32.61z"/>
			<path class="st2" d="M36.82,38.47c0.63-0.78,0.55-1.59-0.39-2.18c-0.3-0.67-0.74-0.99-1.35-0.35c-0.7,0.74-0.66,1.57-0.04,2.33
				C35.53,38.87,36.24,39.19,36.82,38.47z"/>
			<path class="st2" d="M40.01,44.9c-0.6,0.73-1.01,1.74-0.37,2.46c0.48,0.54,1.23-0.16,1.82-0.66c0.35-0.63,1.14-1.32,0.32-2.14
				C41.15,43.93,40.47,44.33,40.01,44.9z"/>
			<path class="st2" d="M41.18,39.09c-0.61,0.55-0.87,1.35-0.21,2.04c0.63,0.67,1.25,0.23,1.63-0.08c0.82-0.76,1.08-1.52,0.54-2.22
				C42.45,37.95,41.71,38.6,41.18,39.09z"/>
			<path class="st2" d="M43.57,21.67c0.58-0.48,0.49-1.11,0.04-1.66c-0.55-0.69-1.17-0.66-1.81-0.1c-0.56,0.45-0.79,1.08-0.32,1.63
				C42.06,22.18,42.88,22.24,43.57,21.67z"/>
			<path class="st2" d="M63.75,30.17c-0.6,0.6-0.56,1.15-0.16,1.56c0.66,0.67,1.5,0.79,2.26,0.22c0.46-0.34,0.56-0.99,0.08-1.41
				C65.26,29.97,64.45,29.88,63.75,30.17z"/>
			<path class="st2" d="M32.11,45.54c-0.38,0.92-1.12,1.75-0.34,2.65c0.33,0.38,1.07,0.65,1.42,0.05c0.46-0.8,0.63-1.76,0.12-2.62
				C33,45.1,32.51,45.4,32.11,45.54z"/>
			<path class="st2" d="M51.18,47.58c0.49-0.47,0.66-1.1,0.04-1.58c-0.64-0.5-1.4-0.72-2.05,0c-0.5,0.56-0.62,1.22-0.03,1.88
				C49.88,48.35,50.58,48.15,51.18,47.58z"/>
			<path class="st2" d="M42.58,55.8c-0.64-0.5-1.4-0.72-2.05,0c-0.5,0.56-0.62,1.22-0.03,1.88c0.74,0.47,1.44,0.27,2.04-0.3
				C43.03,56.91,43.2,56.29,42.58,55.8z"/>
			<path class="st2" d="M57.92,36.15c0.64,0.54,1.32,0.34,1.84-0.23c0.62-0.69,0.55-1.44-0.15-2.02c-0.63-0.52-1.28-0.28-1.8,0.08
				C57.25,34.83,57.23,35.57,57.92,36.15z"/>
			<path class="st2" d="M62.84,36.95c0.56,0.45,1.19,0.3,1.64-0.19c0.47-0.51,0.46-1.11-0.09-1.61c-0.61-0.55-1.11-0.12-1.6,0.17
				C62.32,35.9,62.25,36.48,62.84,36.95z"/>
			<path class="st2" d="M47.37,38.94c-0.94,0.64-0.66,1.69-0.23,2.3c0.56,0.8,1.33,0.03,1.73-0.14c1.12-0.81,0.65-1.62,0.31-2.21
				C48.68,38.04,47.93,38.55,47.37,38.94z"/>
			<path class="st2" d="M43.92,15.54c0.8-0.51,0.63-1.15,0.17-1.74c-0.39-0.51-0.94-0.5-1.43-0.12c-0.61,0.48-0.79,1.11-0.43,1.85
				C42.8,15.98,43.35,15.9,43.92,15.54z"/>
			<path class="st2" d="M48.39,20.56c0.52-0.43,0.64-0.9,0.15-1.36c-0.67-0.63-1.32-0.27-1.83,0.25c-0.5,0.5-0.47,1.11-0.14,1.67
				C47.46,21.68,47.87,20.99,48.39,20.56z"/>
			<path class="st2" d="M52.07,39.96c0.63,0.63,1.26,0.43,1.76-0.21c0.53-0.68,0.57-1.59,0.02-2.09c-0.54-0.5-1.27,0.01-1.8,0.42
				C51.51,38.74,51.51,39.4,52.07,39.96z"/>
			<path class="st2" d="M35.1,31.1c0.39,0.5,0.92,0.6,1.4,0.11c0.73-0.75,0.27-1.45-0.21-2.07c-0.38-0.49-0.92-0.52-1.46-0.13
				C34.27,29.78,34.61,30.48,35.1,31.1z"/>
			<path class="st2" d="M32.5,41.85c0.62-0.65,0.63-1.25,0.03-1.84c-0.54-0.53-1.15-0.83-1.81-0.24c-0.59,0.54-0.3,1.14,0.06,1.65
				C31.23,42.05,31.82,42.29,32.5,41.85z"/>
			<path class="st2" d="M30.31,8.47c0.46-0.61,0.39-1.22-0.08-1.72c-0.41-0.43-1-0.98-1.56-0.38c-0.54,0.58-0.38,1.34,0.19,1.89
				C29.26,8.65,29.78,8.86,30.31,8.47z"/>
			<path class="st2" d="M37.72,44.43c0.68-0.62,0.67-1.3,0.13-1.88c-0.57-0.6-1.18-0.2-1.59,0.28c-0.47,0.55-0.77,1.27-0.14,1.88
				C36.72,45.29,37.25,44.75,37.72,44.43z"/>
			<path class="st2" d="M52.19,31.36c-0.62,0.73-0.6,1.56,0.04,2.29c0.85,0.61,1.61,0.56,2.25-0.26c0.57-0.73,0.85-1.58,0.12-2.31
				C53.76,30.24,52.86,30.57,52.19,31.36z"/>
			<path class="st2" d="M44.8,47.94c0.62,0.39,1.21,0.22,1.64-0.29c0.49-0.59,0.53-1.27,0-1.91c-0.53-0.63-1.06-0.51-1.58,0.01
				C44.17,46.45,44.54,47.19,44.8,47.94z"/>
			<path class="st2" d="M27.6,43.72c-0.5,0.38-0.92,0.88-0.38,1.36c0.72,0.63,1.64,0.42,2.31-0.11c0.67-0.53,0.18-1.11-0.24-1.59
				C28.5,42.46,28.13,43.52,27.6,43.72z"/>
			<path class="st2" d="M43.3,53.26c0.71,0.57,1.42,0.27,2.19,0.12c0.45-0.09,0.76-0.51,0.73-0.98l0-0.02
				c-0.03-0.44-0.36-0.79-0.8-0.86c-0.82-0.13-1.65-0.49-2.34,0.25C42.71,52.17,42.83,52.88,43.3,53.26z"/>
			<path class="st2" d="M72.73,23.02c0.42-0.46,1.02-1.19,0.27-1.77c-0.73-0.57-1.59-0.42-2.2,0.32c-0.36,0.44-0.87,0.91-0.4,1.62
				C71.2,23.41,72.06,23.76,72.73,23.02z"/>
			<path class="st2" d="M49.07,29.63c0.74,0.55,1.41,0.41,2.03-0.21c0.63-0.62,0.85-1.33,0.15-1.99c-0.65-0.61-1.41-0.54-2.03,0.09
				C48.59,28.15,48.67,28.89,49.07,29.63z"/>
			<path class="st2" d="M38.45,17.64c0.56-0.46,0.65-1.16,0.14-1.64c-0.51-0.48-1.32-0.74-1.92-0.22c-0.56,0.48-0.29,1.14,0.13,1.7
				C37.29,17.96,37.88,18.11,38.45,17.64z"/>
			<path class="st2" d="M54.6,28.12c0.78,0.62,1.63,0.1,2.31-0.38c0.52-0.36,0.52-0.97-0.01-1.38c-0.7-0.54-1.43-0.54-1.95,0.06
				C54.32,27,54.03,27.66,54.6,28.12z"/>
			<path class="st2" d="M39.23,26.51c-0.69,0.66-0.38,1.48,0.1,2.12c0.37,0.49,0.94,0.47,1.45,0.08c0.45-0.63,0.58-1.29,0.06-1.93
				C40.4,26.22,39.77,25.99,39.23,26.51z"/>
			<path class="st2" d="M63.97,20.45c0.53-0.33,1.01-0.93,0.49-1.51c-0.55-0.63-1.43-0.59-2.02-0.05c-0.39,0.35-0.84,0.96-0.18,1.8
				C62.72,20.99,63.39,20.81,63.97,20.45z"/>
			<path class="st2" d="M30.87,25.32c0.29,0.45,0.79,0.63,1.19,0.27c0.79-0.73,0.31-1.56,0.08-2.33c-0.48-0.38-1.01-0.72-1.48-0.24
				C29.87,23.81,30.39,24.6,30.87,25.32z"/>
			<path class="st2" d="M27.55,14.07c0.48-0.6,0.42-1.17-0.04-1.7c-0.42-0.49-0.98-0.89-1.6-0.43c-0.72,0.55-0.4,1.28,0,1.86
				C26.34,14.41,26.97,14.3,27.55,14.07z"/>
			<path class="st2" d="M36.05,61.64c0.12-0.43,0.26-1.08-0.31-1.17c-1.24-0.2-0.96,1.16-1.5,1.7c0.03,0.16,0.06,0.33,0.09,0.49
				c0.04,0.22,0.08,0.44,0.12,0.67l0,0.02C36.18,63.92,35.82,62.48,36.05,61.64z"/>
			<path class="st2" d="M67.73,27.59c0.36-0.53,0.38-1.05-0.05-1.48c-0.62-0.62-1.39-0.7-2.08-0.19c-0.51,0.37-0.52,0.96-0.02,1.38
				C66.21,27.83,66.98,27.74,67.73,27.59z"/>
			<path class="st2" d="M32.26,33.63c0.56-0.56,0.32-1.18-0.15-1.63c-0.56-0.55-1.26-0.6-1.84-0.01c-0.49,0.49-0.22,0.99,0.15,1.43
				C31,33.82,31.6,34.29,32.26,33.63z"/>
			<path class="st2" d="M61.39,29.38c0.75-0.51,0.72-1.2,0.18-1.78c-0.64-0.68-1.39-0.53-2.06,0.05c-0.52,0.45-0.73,0.98-0.26,1.6
				C59.95,29.81,60.66,29.88,61.39,29.38z"/>
			<path class="st2" d="M32.89,13.35c0.72,0.04,1.33,0.76,1.83-0.03c0.34-0.54,0.8-0.96-0.12-1.68c-0.81-0.63-1.18-0.44-1.7,0.07
				C32.3,12.29,33,12.81,32.89,13.35z"/>
			<path class="st2" d="M32.45,51.63c-0.4-0.35-0.9-0.23-1.18,0.22c-0.37,0.58-0.25,1.22,0.1,1.75c0.36,0.56,0.79,0.12,1.13,0.02
				C32.86,52.88,33.09,52.2,32.45,51.63z"/>
			<path class="st2" d="M26.55,19.49c-0.37-0.42-0.91-0.55-1.44-0.25c-0.45,0.58-0.49,1.15-0.04,1.69c0.33,0.4,0.67,0.9,1.31,0.36
				C27.02,20.73,27.09,20.11,26.55,19.49z"/>
			<path class="st2" d="M32.96,18.9c0.77-0.69,0.79-1.49,0.17-2.24c-0.46-0.55-1.07-0.52-1.67-0.05c-0.47,0.73-0.75,1.55-0.12,2.32
				C31.83,19.52,32.44,19.37,32.96,18.9z"/>
			<path class="st2" d="M48.85,16.31c0.47-0.53,0.57-1.08,0.13-1.51c-0.4-0.4-0.96-0.47-1.43,0c-0.44,0.44-0.51,0.98-0.1,1.44
				C47.89,16.76,48.42,16.41,48.85,16.31z"/>
			<path class="st2" d="M58.35,22.79c0.46-0.36,0.64-0.92,0.21-1.39c-0.51-0.54-1.15-0.34-1.62,0.09c-0.4,0.36-0.6,0.88-0.22,1.42
				C57.3,23.44,57.87,23.16,58.35,22.79z"/>
			<path class="st2" d="M45.55,33.91c0.5,0.42,1.04,0.33,1.43-0.18c0.49-0.65,0.44-1.35-0.15-1.89c-0.48-0.44-1.01-0.24-1.43,0.2
				C44.92,32.71,44.9,33.36,45.55,33.91z"/>
			<path class="st2" d="M26.69,65.83c0.12-0.68,0.72-1.5,0.19-2.12c-0.34-0.39-0.98-0.14-1.38,0.32c-0.49,0.57-0.68,1.16-0.27,1.83
				C25.79,66,26.6,66.35,26.69,65.83z"/>
			<path class="st2" d="M28.53,37.14c0.47-0.43,0.43-0.97,0.05-1.44c-0.46-0.57-1.06-0.66-1.58-0.13c-0.45,0.46-0.23,0.99,0.11,1.46
				C27.56,37.43,28.05,37.59,28.53,37.14z"/>
			<path class="st2" d="M24.37,5.67c-0.48-0.49-1.13-0.72-1.68-0.33C22,5.82,22.44,6.43,22.78,6.96c0.51,0.39,1.07,0.81,1.67,0.33
				C25.06,6.8,24.87,6.18,24.37,5.67z"/>
			<path class="st2" d="M63.01,23.75c0.6-0.36,0.44-0.96,0.07-1.39c-0.48-0.56-1.12-0.9-1.77-0.25c-0.45,0.45-0.28,0.99,0.01,1.5
				C61.84,24.09,62.48,24.06,63.01,23.75z"/>
			<path class="st2" d="M28.22,28.47c0.67-0.58,0.37-1.22-0.13-1.78c-0.43-0.48-0.91-0.96-1.49-0.28c-0.56,0.64-0.18,1.28,0.17,1.83
				C27.22,28.76,27.77,28.85,28.22,28.47z"/>
			<path class="st2" d="M40.76,11.46c0.5-0.5,0.72-1.2,0.1-1.53c-0.49-0.26-1.32-0.56-1.89,0.02c-0.53,0.55-0.19,1.11,0.17,1.63
				C39.72,12.01,40.25,11.97,40.76,11.46z"/>
			<path class="st2" d="M68.83,23.21c0.48-0.46,0.45-0.91,0.08-1.28c-0.57-0.56-1.26-0.61-1.9-0.16c-0.46,0.32-0.46,0.85-0.06,1.2
				C67.51,23.45,68.19,23.53,68.83,23.21z"/>
			<path class="st2" d="M54.64,18.07c0.44-0.42,0.55-0.94,0.05-1.38c-0.49-0.43-0.98-0.21-1.41,0.17c-0.32,0.43-0.75,0.93-0.27,1.39
				C53.51,18.72,54.15,18.53,54.64,18.07z"/>
			<path class="st2" d="M55.61,43.09c-0.37-0.44-0.85-0.27-1.22,0.04c-0.53,0.44-0.7,0.98-0.27,1.59c0.48,0.38,0.98,0.51,1.43,0.02
				C56.03,44.24,56.07,43.63,55.61,43.09z"/>
			<path class="st2" d="M31.98,61.53c0.4-0.34,0.5-0.8,0.09-1.19c-0.4-0.38-0.91-0.24-1.24,0.07c-0.33,0.31-0.5,0.78-0.1,1.22
				C31.19,62,31.61,61.83,31.98,61.53z"/>
			<path class="st2" d="M35.81,7.86c0.54-0.42,0.27-1-0.15-1.39c-0.49-0.45-1.12-0.64-1.62-0.05c-0.51,0.6,0.1,1.14,0.31,1.92
				C34.83,8.2,35.43,8.16,35.81,7.86z"/>
			<path class="st2" d="M27.87,50.45c-0.45,0.46-0.34,0.93-0.12,1.39c0.63,0.4,1.1,0.11,1.45-0.29c0.41-0.46,0.8-1.07,0.18-1.58
				C28.76,49.45,28.3,50.01,27.87,50.45z"/>
			<path class="st2" d="M52.89,24.24c0.39-0.36,0.45-0.85,0.05-1.23c-0.51-0.48-1.14-0.53-1.69-0.05c-0.5,0.43-0.45,0.94-0.04,1.44
				C51.82,24.89,52.39,24.68,52.89,24.24z"/>
			<path class="st2" d="M36.48,51.09c0.47-0.5,0.29-1-0.11-1.44c-0.26-0.29-0.75-0.6-0.92-0.13c-0.16,0.43,0.09,1.02,0.14,1.42
				C35.93,51.28,36.22,51.37,36.48,51.09z"/>
		</g>
	</g>
</g>
</svg>
