<?xml version="1.0" encoding="utf-8"?>
<!-- Generator: Adobe Illustrator 23.0.0, SVG Export Plug-In . SVG Version: 6.00 Build 0)  -->
<svg version="1.1" id="Layer_1" xmlns="http://www.w3.org/2000/svg" xmlns:xlink="http://www.w3.org/1999/xlink" x="0px" y="0px"
	 viewBox="0 0 128 128" style="enable-background:new 0 0 128 128;" xml:space="preserve">
<style type="text/css">
	.st0{fill:#684F3E;}
	.st1{fill:#AA7B5C;}
	.st2{fill:#5E493B;}
	.st3{fill:#BA876A;}
	.st4{fill:#765B48;}
	.st5{fill:#564134;}
	.st6{fill:#8E5F4D;}
	.st7{fill:#2D2D2D;}
	.st8{fill:#DDCAB8;}
</style>
<g>
	<path class="st0" d="M124.6,110.8c-0.5-1-1.1-1.9-1.6-2.9c-0.6-1-1.1-1.9-1.7-2.8c-0.6-0.9-1.2-1.9-1.8-2.8l-0.1-0.1l0-0.1
		c-0.4-1-1.1-2-1.7-2.9c-0.7-0.9-1.4-1.9-2.2-2.7c-0.8-0.9-1.6-1.7-2.6-2.4c-0.8-0.7-1.7-1.4-2.6-2c-0.1,0.5-0.3,0.9-0.6,1.3
		c-0.2,0.3-0.3,0.5-0.6,0.8c-0.2,0.2-0.4,0.4-0.6,0.6c-0.4,0.3-0.8,0.7-1.2,1c-0.1,0.2-0.1,0.4-0.1,0.6c0,0.3,0,0.6,0,0.9l0,0
		c0,0.1,0,0.1-0.1,0.1c0,0-0.1,0-0.1,0c-0.2-0.3-0.3-0.6-0.4-0.9c-0.1-0.3-0.2-0.7-0.2-1.1l0,0l0.1-0.2c0.3-0.5,0.6-0.9,0.8-1.4
		c0.3-0.5,0.5-0.8,0.7-1.2c0.3-0.8,0.4-1.7,0.3-2.5c-0.1-0.4-0.2-0.8-0.4-1.2c-0.2-0.4-0.4-0.7-0.8-1.2c-0.2-0.2-0.3-0.4-0.5-0.6
		c-0.1-0.1-0.2-0.2-0.2-0.3c0,0,0-0.1-0.1-0.1c0,0-0.1-0.1-0.1-0.1c-0.1,0-0.1,0-0.2,0c-0.2,0.1-0.5,0.2-0.7,0.3
		c-0.9,0.4-1.8,1-2.4,1.9c-0.6,0.8-1,1.9-1.3,2.7c-0.1,0.3-0.1,0.7-0.1,1.1c0.1,0.5,0.2,1,0.3,1.6c0.1,1.1,0.3,2.1,0.2,3.3
		c0,0.1-0.1,0.1-0.1,0.1c0,0-0.1,0-0.1,0c-0.6-0.9-1-1.9-1.4-2.9c-0.2-0.5-0.4-1-0.5-1.5c-0.2-0.7-0.2-1.4,0.1-2.1
		c0.5-1.1,1.1-1.6,1.9-2.3c-2,0.1-3.8,0-5.9-0.1l-0.5-0.1l-0.5-0.1c-0.3-0.1-0.6-0.2-0.8-0.4c-0.5-0.3-1-0.6-1.6-0.8l-3.1-1.7
		c-2-1.1-4.1-2.2-6.2-3.1c-2.1-0.9-4.3-1.6-6.5-2.1L77,80l-0.1,0c-2.5-1.2-5.1-2.3-7.6-3.3c-2.6-1-5.2-2-7.8-2.9
		c-5.3-1.8-10.6-3.2-16.1-4c-2.7-0.4-5.5-0.6-8.2-0.4c-2.8,0.2-5.5,0.5-8.3,1c-2.7,0.5-5.4,1.2-8,2.4c-0.6,0.3-1.2,0.6-1.9,0.9
		c-0.6,0.3-1.2,0.7-1.8,1c-0.6,0.4-1.1,0.8-1.7,1.2c-0.6,0.4-1.1,0.9-1.6,1.3c-2.1,1.8-3.9,4-5.4,6.3c-0.7,1.2-1.3,2.4-1.6,3.8
		c-0.3,1.3-0.3,2.7-0.1,4C7,92.6,7.5,93.9,8.1,95c0.2,0.3,0.3,0.6,0.5,0.9c0.3,0.4,0.4,0.9,0.3,1.4c-0.1,0.5-0.3,1-0.7,1.3
		C8,98.8,7.8,98.9,7.6,99l-0.5,0.2l-1.9,0.9l-0.9,0.5l-0.5,0.2c-0.1,0.1-0.2,0.1-0.3,0.2c-0.4,0.3-0.7,0.8-0.7,1.3l-0.2,2.1
		c-0.3,2.8-0.5,5.6-0.7,8.4c-0.1,1.4-0.1,2.8-0.1,4.2c0,0.7,0.1,1.4,0.1,2c0,0.2,0,0.3,0.1,0.4c0,0.1,0.1,0.3,0.1,0.4
		c0.1,0.2,0.2,0.5,0.4,0.7c0.1,0.1,0.2,0.2,0.3,0.3c0,0.1,0.1,0.1,0.1,0.1l0.2,0.2l0.8,0.7l1.5,1.4l0.4,0.4c0.1,0.1,0.2,0.1,0.3,0.2
		c0.2,0.1,0.4,0.2,0.6,0.2c0.2,0,0.6,0,0.9,0l1,0l6.2,0c-0.2-0.2-0.4-0.3-0.6-0.5c-0.8-0.5-1.7-0.8-2.7-0.9c-0.2,0-0.5,0-0.7,0
		c-0.1,0-0.3,0-0.4,0c-0.2,0-0.3,0-0.5,0c-0.6,0-1.3-0.2-1.9-0.4c-1.2-0.4-2.4-1.3-3-2.5c-0.3-0.6-0.5-1.2-0.7-1.9
		c-0.1-0.7-0.1-1.2-0.1-1.8c0-1.1,0-2.3,0.2-3.4c0.1-1.1,0.3-2.3,0.7-3.5c0.2-0.6,0.4-1.2,0.9-1.7c0.2-0.3,0.5-0.6,0.8-0.8
		c0.4-0.2,0.8-0.3,1.2-0.4l0.2,0l0.2,0.1c1.2,0.5,2.6,0.9,3.9,1.1c1.4,0.3,2.7,0.4,4.1,0.5c2.8,0.1,5.5-0.2,8.2-1.1
		c2.6-0.9,5-2.3,7.1-4.2c2.1-1.9,5.2-6,5.2-8.8c-0.1-0.8-0.2-1.6-0.5-2.3l0,0c0-0.1,0-0.1,0.1-0.1c0,0,0.1,0,0.1,0.1
		c0.3,0.7,0.5,1.5,0.7,2.3c0.3,3.3-2.8,7.5-4.9,9.6c-0.1,0.1-0.2,0.2-0.3,0.3c1,0,2,0.2,2.9,0.3c1.3,0.2,2.5,0.5,3.8,0.9
		c1.2,0.4,2.4,1,3.6,1.5c1.2,0.5,2.5,0.8,3.7,0.9c2.6,0.3,5,0.5,7.5,0.6c1.2,0,2.5,0.1,3.7,0.1l2.8,0.1c0-0.1,0-0.1,0-0.2
		c0-0.2,0-0.4-0.1-0.6l0-0.3c0-0.1,0-0.3,0-0.4c0-0.5,0-1.1,0.2-1.6c0.1-0.2,0.2-0.5,0.3-0.7c0.1-0.2,0.2-0.4,0.4-0.6
		c0.2-0.4,0.5-0.8,0.8-1.1c1-1.5,2.2-2.8,3.4-4.1c0,0,0.1,0,0.1,0c0,0,0,0.1,0,0.1c-0.9,1.5-1.8,3.1-2.7,4.6
		c-0.2,0.4-0.4,0.8-0.6,1.2c-0.1,0.2-0.2,0.4-0.3,0.6c-0.1,0.2-0.1,0.3-0.2,0.5c-0.1,0.3-0.1,0.7,0,1.1l0.1,0.6
		c0,0.2,0.1,0.5,0.1,0.7c0.2,1.8,0.2,3.6,0.1,5.5c0,0.9-0.1,1.8-0.3,2.7c-0.2,0.9-0.3,1.7-0.5,2.6c-0.1,0.9-0.3,1.7-0.4,2.6
		c-0.1,0.9-0.1,1.7,0,2.5c0.1,0.4,0.2,0.8,0.4,1c0.1,0.1,0.2,0.2,0.4,0.3c0.2,0,0.3,0.1,0.5,0.1c0.9,0,1.8,0.1,2.6,0.1
		c3.2,0,6.5-0.1,9.7-0.3c-0.5-1.1-1.4-2-2.4-2.3c-0.6-0.2-1.3-0.2-2.1-0.1l-2.4,0.1l-1.2,0.1c-0.1,0-0.3,0-0.5,0
		c-0.2,0-0.3-0.1-0.5-0.1c-0.3-0.1-0.6-0.3-0.9-0.6c-0.2-0.3-0.4-0.6-0.5-0.9c-0.1-0.2-0.1-0.3-0.1-0.5l0-0.4c0-0.3,0-0.5,0-0.7
		c0-0.2,0.1-0.5,0.1-0.7c0.2-0.9,0.6-1.8,1-2.6c0.4-0.8,0.9-1.5,1.5-2.2c0.5-0.7,1.1-1.3,1.6-1.9l0.8-0.9l0.5-0.5
		c0.2-0.2,0.4-0.3,0.6-0.5c0.8-0.6,1.8-0.9,2.6-1c0.9-0.1,1.7-0.1,2.5-0.2c0.8,0,1.6-0.1,2.3-0.3c0.7-0.1,1.4-0.4,2.1-0.9
		c1.3-0.8,2.4-2.1,3.2-3.5l0,0c0,0,0.1-0.1,0.1,0c0,0,0.1,0.1,0,0.1c-0.3,0.8-0.7,1.5-1.1,2.3c-0.5,0.7-1,1.4-1.7,1.9
		c0,0-0.1,0.1-0.1,0.1c3.1-0.2,6.2-0.9,9.2-1.6c1.7-0.4,3.5-0.8,5.2-1.3l2.6-0.7c0.1,0,0.2,0,0.2,0c0,0,0,0,0,0
		c-0.2-0.5-0.5-1.1-0.6-1.7c-0.1-0.6-0.1-1.2,0-1.8c0.1-0.6,0.2-1.1,0.3-1.7c0,0.6,0,1.1,0.1,1.7c0.1,0.5,0.2,1.1,0.4,1.5
		c0.1,0.2,0.2,0.4,0.4,0.6l0.6,0.6c0.4,0.4,0.8,0.8,1.2,1.2c0.1,0.1,0.2,0.3,0.2,0.5c0.1,0.1,0.1,0.1,0.2,0.2l0.1,0.2l0.1,0.1
		c0.5,0.7,1,1.4,1.5,2.1c0.5,0.7,1.1,1.4,1.7,2.1c1.1,1.4,2.3,2.7,3.7,3.9c1.3,1.2,2.7,2.3,4.3,3.1c0.8,0.4,1.6,0.7,2.4,0.8
		c0.5,0.1,1.1,0,1.6-0.2c-0.1-0.2-0.2-0.3-0.3-0.5c-0.2-0.4-0.5-0.8-0.7-1.2c-0.2-0.4-0.3-0.9-0.4-1.3l-0.1-0.6c0-0.2-0.1-0.4,0-0.7
		c0.3,0.1,0.4,0.3,0.5,0.5l0.3,0.5c0.2,0.4,0.9,2.2,2.9,3.7c0.2,0.1,0.3,0.2,0.5,0.4c0.2,0.2,0.5,0.3,0.7,0.5
		c0.2,0.1,0.4,0.2,0.5,0.3l3.1-0.5l1.7-0.2l0.4-0.1c-0.5-0.5,0.2-0.8,0.2-2.2c0-1.1,0.9-1,1.6-0.6c0-0.9-0.1-1.7-0.3-2.5
		C125.5,112.6,125.2,111.7,124.6,110.8z M58.6,85.5L58.6,85.5l1.3,0.1c0.4,0,0.9,0,1.3,0l2.6,0l0.1,0c0.5,0,0.9,0.4,0.9,1
		c0,0.5-0.4,0.9-0.9,0.9c0,0,0,0,0,0l-2.7-0.1c-0.5,0-0.9,0-1.4-0.1l-1.4-0.2c-0.4-0.1-0.7-0.5-0.7-0.9
		C57.8,85.8,58.2,85.5,58.6,85.5z M52.1,85c0.1-0.2,0.3-0.3,0.5-0.3l0,0l3,0.5l0,0c0.3,0.1,0.6,0.4,0.5,0.7
		c-0.1,0.3-0.4,0.6-0.7,0.5c0,0,0,0-0.1,0l-3-0.9C52.2,85.5,52.1,85.2,52.1,85z M35.8,78.3c0.1-0.5,0.8-0.7,1.5-0.5
		c0.1,0,0.2,0.1,0.3,0.1c0.3-0.1,0.7,0,1.1,0.1c0.8,0.3,1.3,1,1,1.6c-0.2,0.6-1.1,0.9-1.9,0.6c-0.4-0.1-0.6-0.3-0.8-0.6
		c-0.1,0-0.1,0-0.2,0C36.2,79.4,35.7,78.8,35.8,78.3z M21.4,78.3c0.5-0.1,1,0.1,1.1,0.5c0.1,0.4-0.2,0.8-0.7,0.9
		c-0.5,0.1-1-0.1-1.1-0.5C20.5,78.8,20.9,78.4,21.4,78.3z M20.4,92C20.4,92,20.4,92,20.4,92L20.4,92l-1,0.2l0,0c0,0,0,0,0,0
		c0,0,0,0-0.1,0c0,0,0,0-0.1,0c0,0,0,0-0.1,0c-0.1,0-0.1,0-0.1-0.1c0,0,0,0,0,0c-0.1-0.1-0.2-0.2-0.2-0.3c0,0,0,0,0,0c0,0,0,0,0,0
		c0,0,0-0.1,0-0.1c0,0,0-0.1,0-0.1c0,0,0,0,0,0c0-0.1,0-0.1,0.1-0.2c0,0,0,0,0,0c0,0,0.1-0.1,0.1-0.1c0,0,0,0,0,0c0,0,0.1,0,0.1-0.1
		c0,0,0,0,0,0l1-0.3c0.3-0.1,0.6,0.1,0.7,0.4C20.9,91.6,20.7,91.9,20.4,92z M25.1,92.1c-0.4,0-0.8-0.4-0.8-0.8
		c0-0.4,0.4-0.8,0.8-0.8c0.4,0,0.8,0.4,0.8,0.8C25.9,91.7,25.5,92.1,25.1,92.1z M22,84c-0.5,0-1,0.1-1.6,0.1c-0.5,0.1-1,0.2-1.5,0.3
		c-0.5,0.1-1,0.3-1.5,0.5c-0.5,0.2-0.9,0.5-1.3,0.9l0,0c0,0-0.1,0-0.1,0c0,0,0-0.1,0-0.1c0.3-0.5,0.8-0.8,1.2-1.1
		c0.5-0.3,1-0.5,1.5-0.7c0.5-0.2,1-0.3,1.6-0.5c0.5-0.1,1.1-0.2,1.6-0.3c2.9-0.4,5.8-0.1,8.7,0.3c0.4,0.1,0.7,0.4,0.6,0.8
		c-0.1,0.4-0.4,0.7-0.8,0.6c0,0,0,0,0,0c-1.4-0.3-2.8-0.5-4.2-0.7C24.8,84.1,23.4,84,22,84z M30.7,92.6
		C30.7,92.6,30.7,92.6,30.7,92.6L30.7,92.6l-0.7-0.1l0,0c0,0,0,0-0.1,0c-0.1,0-0.1,0-0.2-0.1c0,0,0,0-0.1,0c-0.1,0-0.1-0.1-0.1-0.2
		c0,0,0,0,0,0c0-0.1-0.1-0.1-0.1-0.2c0,0,0,0,0,0c0,0,0-0.1,0-0.1c0,0,0-0.1,0-0.1c0,0,0,0,0,0c0,0,0,0,0,0c0-0.1,0.1-0.2,0.1-0.2
		c0,0,0,0,0,0c0-0.1,0.1-0.1,0.2-0.2c0,0,0,0,0,0c0.1,0,0.1-0.1,0.2-0.1c0,0,0.1,0,0.1,0c0,0,0.1,0,0.1,0c0,0,0,0,0.1,0
		c0,0,0,0,0.1,0l0.6,0.1c0.4,0.1,0.7,0.4,0.6,0.8C31.5,92.4,31.1,92.7,30.7,92.6z M31.8,78.4C31.8,78.4,31.8,78.4,31.8,78.4
		c-0.9-0.1-1.8-0.1-2.6-0.1c-0.9,0-1.7,0-2.6,0.1c-0.3,0-0.6-0.2-0.7-0.5c0-0.3,0.2-0.6,0.5-0.7c0.9-0.2,1.8-0.3,2.7-0.4
		c0.9-0.1,1.8-0.1,2.8,0c0.4,0,0.8,0.4,0.8,0.9C32.6,78,32.2,78.4,31.8,78.4z M41.8,96c-0.2,0.4-0.7,0.6-1.1,0.5c0,0,0,0,0,0
		l-0.6-0.3c0,0,0,0,0,0l0,0c0,0,0,0-0.1,0c-0.1,0-0.2-0.1-0.2-0.2c0,0,0,0,0-0.1c-0.1-0.1-0.1-0.1-0.1-0.2c0,0,0,0,0,0
		c0-0.1-0.1-0.2-0.1-0.3c0-0.5,0.4-0.9,0.8-0.9c0.1,0,0.2,0,0.3,0.1c0,0,0,0,0,0l0.6,0.3C41.8,95,42,95.5,41.8,96z M43.3,89
		c-0.2,0.4-0.7,0.7-1.1,0.5c0,0,0,0,0,0l0,0c-2.6-1.2-5.2-2.4-7.8-3.4l0,0c-0.4-0.2-0.6-0.6-0.4-1c0.2-0.4,0.6-0.6,1-0.5
		c2.8,1,5.3,2.2,8,3.3C43.2,88.1,43.5,88.6,43.3,89z M42.4,81.5c-0.2-0.1-0.4-0.4-0.3-0.6c0.1-0.2,0.4-0.4,0.6-0.3c0,0,0,0,0,0l0,0
		c0.6,0.3,1.1,0.6,1.7,0.9c0.6,0.3,1.1,0.6,1.7,0.9l0,0c0.2,0.1,0.2,0.3,0.1,0.4C46.3,83,46.1,83.1,46,83c-0.6-0.3-1.2-0.5-1.8-0.8
		C43.6,82,43,81.7,42.4,81.5z M47.7,98.2c-0.1,0.4-0.5,0.7-1,0.5l-0.6-0.2c-0.2-0.1-0.4-0.2-0.5-0.4c-0.1,0-0.1,0-0.2,0
		c-0.5,0-0.8-0.4-0.8-0.9s0.4-0.9,0.8-0.9c0.4,0,0.7,0.2,0.8,0.6c0.1,0,0.2,0,0.3,0c0,0,0,0,0,0l0,0l0.6,0.2l0,0
		C47.6,97.3,47.8,97.7,47.7,98.2z M48.7,83.6c0.2-0.6,1-0.7,1.7-0.5c0.7,0.3,1.2,1,1,1.5c-0.2,0.6-1,0.9-1.7,0.6
		C49,85,48.5,84.2,48.7,83.6z M51,100c-0.4,0-0.8-0.4-0.8-0.8c0-0.4,0.4-0.8,0.8-0.8c0.4,0,0.8,0.4,0.8,0.8
		C51.8,99.7,51.4,100,51,100z M56,100.9c-0.3,0-0.6-0.3-0.6-0.6s0.3-0.6,0.6-0.6c0.3,0,0.6,0.3,0.6,0.6S56.3,100.9,56,100.9z
		 M61.3,101.2c-0.1,0-0.1,0.1-0.2,0.1l-0.6,0c-0.2,0-0.4-0.2-0.4-0.4c0-0.2,0.2-0.4,0.4-0.4c0,0,0,0,0,0l0,0l0.5,0
		c0.1-0.1,0.2-0.1,0.3-0.1c0.2,0,0.4,0.2,0.4,0.4C61.6,101.1,61.5,101.2,61.3,101.2z M67.5,93.4c-1.4,0-2.9,0.1-4.3,0.2l-2.2,0.1
		c-0.7,0-1.4,0.1-2.2,0.1c-2.9-0.1-5.8-0.6-8.6-1.3c-0.4-0.1-0.7-0.6-0.6-1c0.1-0.4,0.5-0.7,1-0.6c0,0,0,0,0,0
		c2.7,0.8,5.4,1.4,8.2,1.7c0.7,0.1,1.4,0.2,2.1,0.3c0.7,0.1,1.4,0.1,2.1,0.1c1.4,0,2.8-0.2,4.2-0.4c0.2,0,0.4,0.1,0.5,0.3
		C67.9,93.1,67.8,93.3,67.5,93.4C67.5,93.4,67.5,93.4,67.5,93.4z M68.3,100.9c-0.3,0-0.5-0.2-0.5-0.5c0-0.3,0.2-0.5,0.5-0.5
		c0.3,0,0.5,0.2,0.5,0.5C68.7,100.7,68.5,100.9,68.3,100.9z M67.7,87.4c-0.8,0.1-1.9-0.3-2-0.9c-0.1-0.6,1-1.3,1.7-1.4
		c0.8-0.1,1.5,0.3,1.5,0.9C69,86.8,68.5,87.3,67.7,87.4z M75.1,84.6C75.1,84.6,75.2,84.6,75.1,84.6c1.4-0.1,2.7-0.1,4,0
		c0.4,0,0.8,0.4,0.7,0.9c0,0.4-0.4,0.7-0.8,0.7h0c-1.2,0-2.5,0.1-3.7,0.3c-0.5,0.1-1-0.3-1-0.8C74.2,85.1,74.6,84.6,75.1,84.6z
		 M70.7,86.3c-0.1-0.6,0.6-1.1,1.3-1.2c0.8-0.1,1.5,0.3,1.5,0.9c0.1,0.6-0.5,1.2-1.3,1.3C71.6,87.4,70.8,86.9,70.7,86.3z
		 M72.9,100.8C72.8,100.8,72.8,100.8,72.9,100.8l-0.7,0c0,0,0,0,0,0c0,0,0,0,0,0c-0.4,0-0.7-0.3-0.7-0.8c0-0.4,0.3-0.7,0.6-0.7
		c0,0,0,0,0.1,0l0.6-0.1c0.4-0.1,0.8,0.2,0.9,0.6C73.6,100.3,73.3,100.7,72.9,100.8z M79,100.4c-0.6,0-1-0.5-1-1c0-0.6,0.4-1,1-1
		c0.6,0,1,0.5,1,1C80,100,79.6,100.4,79,100.4z M80.3,92.8C80.3,92.8,80.3,92.8,80.3,92.8c-1.4,0.1-2.8,0.1-4.2,0.2
		c-1.4,0.1-2.8,0.2-4.3,0.3c-0.4,0-0.7-0.3-0.8-0.7c0-0.4,0.2-0.7,0.6-0.8c1.4-0.3,2.8-0.5,4.2-0.7c1.4-0.2,2.9-0.4,4.3-0.4
		c0.6,0,1,0.4,1.1,1C81.3,92.3,80.9,92.7,80.3,92.8z M83.5,100.3L83.5,100.3l-0.6,0c0,0,0,0,0,0c0,0,0,0,0,0h0l0,0c-0.6,0-1-0.4-1-1
		c0-0.6,0.4-1,1-1c0,0,0,0,0,0l0.7,0c0.5,0,1,0.5,0.9,1C84.5,99.8,84,100.3,83.5,100.3z M86.8,88.1c0,0-0.1,0-0.1,0
		c-1-0.1-1.8-0.3-2.3-0.6c0,0-0.1,0-0.1,0c-0.6-0.2-1.5-0.9-1.3-1.4c0.1-0.5,1.2-0.7,1.8-0.5c0.2,0.1,0.4,0.2,0.5,0.3
		c0.7,0.2,1.1,0.9,1.4,2.1C86.9,88,86.9,88,86.8,88.1z M88.7,101c-0.5,0-0.9-0.4-0.9-0.9s0.4-0.9,0.9-0.9c0.5,0,0.9,0.4,0.9,0.9
		S89.2,101,88.7,101z M94.1,102.9c-0.1,0.1-0.3,0.1-0.5,0l0,0l-0.9-0.6l0,0c-0.2-0.2-0.3-0.5-0.1-0.7c0.2-0.2,0.5-0.3,0.7-0.1
		c0,0,0.1,0.1,0.1,0.1l0,0c0,0,0,0,0,0l0.7,0.8C94.3,102.5,94.3,102.8,94.1,102.9z M94.3,95.5c0,0-0.1,0-0.1,0
		c-0.4-0.3-0.8-0.6-1.3-0.9c-0.4-0.3-0.9-0.5-1.4-0.7c-0.9-0.4-1.9-0.7-2.9-0.8c-0.4-0.1-0.7-0.5-0.6-0.9c0.1-0.4,0.5-0.7,0.9-0.6
		c0,0,0.1,0,0.1,0l0,0c1.1,0.4,2.1,0.8,3,1.5c0.5,0.3,0.9,0.7,1.3,1.1c0.4,0.4,0.8,0.8,1.1,1.3C94.3,95.4,94.3,95.5,94.3,95.5z
		 M115.3,104.6c-0.8,0.3-2.1,0.6-2.9,0.2c-0.8-0.4-1.2-1.8-1.4-2.6c-0.1-0.4,0.1-0.7,0.4-0.8c0.8-0.3,2.1-0.6,2.9-0.2
		c0.8,0.4,1.2,1.8,1.4,2.6C115.9,104.1,115.7,104.5,115.3,104.6z"/>
	<path class="st1" d="M89.2,108.3c-1.8,0.3-3.6,0.5-5.4,0.6c-0.6,0-1.3,0.1-1.9,0.1c0.1,0,0.2,0,0.2,0.1c0.9,0.3,1.7,0.8,2.4,1.5
		c0.4,0.3,0.7,0.7,1,1.1c0.1,0.2,0.2,0.3,0.4,0.5l0.4,0.5c0.6,0.7,1.2,1.3,1.8,2c1.2,1.3,2.5,2.6,3.8,3.8c0.6,0.6,1.3,1.3,1.9,1.9
		c0.6,0.6,1.3,1.3,2,1.7l0.2,0.1l0,0.1c0.5,0.9,1.1,1.9,1.8,2.8c0.2,0.2,0.3,0.5,0.5,0.7c0.2,0.2,0.3,0.4,0.5,0.5
		c0.4,0.3,0.9,0.5,1.4,0.6c0.5,0.1,1,0,1.6,0c0.6,0,1.1,0,1.7-0.1c1.1-0.1,2.2-0.1,3.3-0.2l1.7-0.1l0.5,0c-0.1-0.1-0.3-0.2-0.4-0.3
		c-0.4-0.3-0.9-0.5-1.4-0.8c-0.9-0.5-1.9-0.8-2.9-1c-1-0.2-2-0.3-3-0.2l-0.5,0l-0.3-0.4c-1.2-1.3-1.9-2.7-2.8-4.1
		c-0.8-1.4-1.5-2.8-2.2-4.3c-0.3-0.7-0.6-1.5-0.9-2.3c-0.1-0.4-0.3-0.8-0.3-1.2c0-0.2-0.1-0.4-0.1-0.7c0-0.2,0-0.4,0.1-0.7
		c0.1-0.8,0.3-1.6,0.6-2.4c0.2-0.5,0.3-0.9,0.5-1.3l-0.8,0.2C92.8,107.6,91,108,89.2,108.3z"/>
	<path class="st2" d="M110.3,91.8c0.9,0.4,1.7,0.8,2.5,1.3c0-1,0.2-1.8,0.4-2.7c0.1-0.5,0.4-0.9,0.6-1.4c0.2-0.4,0.3-0.9,0-1.1
		c-0.4-0.3-0.9-0.2-1.3,0c-0.4,0.2-0.7,0.3-1,0.6c-0.4,0.3-0.8,0.5-1.2,0.8c0,0.1,0,0.1,0.1,0.2C110.5,90.3,110.5,91.1,110.3,91.8z"
		/>
	<path class="st1" d="M31.6,104.1c-1.9,1.7-4.1,3.1-6.5,4c-0.4,0.2-0.9,0.3-1.3,0.4c0,0.1,0.1,0.2,0.1,0.3c0.1,0.5,0.2,1.1,0,1.6
		c-0.1,0.3-0.3,0.5-0.5,0.7c-0.2,0.2-0.4,0.3-0.5,0.5c-0.3,0.3-0.5,0.7-0.6,1.1c-0.3,0.8-0.1,1.6,0.4,2.1c0.2,0.3,0.5,0.6,0.9,0.8
		c0.3,0.2,0.8,0.5,1.2,0.8c1.6,1.2,3.1,2.5,4.4,4l1.9,2.1c0.6,0.7,1.3,1.4,2,1.8c0.9,0.1,1.9,0.1,2.8,0.1c1,0,2,0,2.9,0
		c1,0,2-0.1,2.9-0.1l1.9-0.1c0,0,0-0.1-0.1-0.1c-0.2-0.3-0.5-0.5-0.8-0.7c-0.6-0.4-1.3-0.7-2-1c-1.4-0.5-3-0.6-4.5-0.5l-0.1,0
		l-0.1,0c-0.6-0.1-1-0.3-1.5-0.6c-0.4-0.2-0.8-0.5-1.2-0.7c-0.8-0.5-1.5-1.1-2.2-1.9c-0.7-0.7-1.3-1.5-1.6-2.6
		c-0.2-0.6-0.3-1.1-0.1-1.8c0.2-0.7,0.5-1.1,0.8-1.5c1.4-1.5,2.9-2.4,4.4-3.4c0.7-0.5,1.4-1,2.1-1.6c0.5-0.4,1-0.9,1.4-1.5
		c-1.1-0.3-2.2-0.6-3.3-1C33.6,105,32.6,104.6,31.6,104.1z"/>
	<path class="st3" d="M35.8,98.4l2.9,4.1c0,0,11.2,3.1,15,3.4s7.2-1.4,7.2-1.4s0.2,4.1-0.1,4.1c-0.2,0.1-7.5,0.5-10.3,0.2
		c-2.9-0.3-10.8-2.7-11.6-2.9c-0.7-0.2-7.3-2-7.5-2.2C32.7,102.6,35.8,98.4,35.8,98.4z"/>
	<path class="st1" d="M80.6,107.5c3.8-2.3,9.8-1.9,11.8-2.3c2.5-0.5,4.1-2.2,4.2-2.7c0.5,1.4,1.7,3.4,1.6,3.4
		c-0.1,0-11.1,2.3-13.1,2.5c-2,0.2-5.7,0.4-6.1,0.3C80.1,108.1,80.6,107.5,80.6,107.5z"/>
	<path class="st4" d="M95,112.2c0,0,0.1,9.6,1.7,11.8c0.6,1,2,3,2.5,3c0.5,0,7.2,0.3,7.2,0.3s3.7,0,3.6-0.5s-2.8-2.5-4.4-2.8
		c-1.6-0.3-4.3-1.2-5-1.3C99.6,121.1,95,112.2,95,112.2z"/>
	<path class="st5" d="M6.6,98c0.3-0.1,0.7-0.3,0.8-0.4c0.2-0.1,0.3-0.3,0.3-0.5c0-0.2,0-0.4-0.1-0.6c-0.2-0.3-0.4-0.6-0.5-1
		c-0.7-1.3-1.1-2.7-1.3-4.2c-0.2-1.3-0.1-2.7,0.2-4c-0.1,0.1-0.1,0.3-0.2,0.4c-0.5,1.2-0.9,2.5-1.1,3.8c-0.1,0.6-0.1,1.3,0,1.9
		c0.1,0.6,0.1,1.2,0.3,1.7c0.1,0.6,0.3,1.1,0.6,1.7c0.2,0.4,0.5,0.8,0.7,1.3L6.6,98z"/>
	<path class="st3" d="M100.6,94.4c-3.2,1.9-3.8,5.3-3.8,5.3s-0.6,2.7,0.8,4.7s4.9,6.4,4.9,6.4s6.3,6.1,8.1,6.9
		c1.7,0.8,3.4,1.7,5.3,0.9c-1-1.7-2.1-3.2-2.2-4.6c-0.3-3.6-2.7-3.5-6.9-6.2c-4.2-2.7-0.1-10.5,0.4-10.9c-1.1,0.8-2.6,1.8-3.8,2.8
		c-1,0.8-2.6,0.2-2.7-1.1C100.5,96.4,101,95.4,100.6,94.4z"/>
	<path class="st6" d="M102.2,97.3c0,0,2.6-1.5,5.1,0c-0.4-1.6,0.1-2.4,0.5-2.6s2.5-5.1,1.2-6.4c-1.3-1.3-2.6-2.5-2.7-2.5
		c-0.1,0-4,2.9-4.6,3.8c-0.6,0.9-0.7,3.6-0.4,4.2C101.6,94.4,102.2,97.3,102.2,97.3z"/>
	<path class="st4" d="M28,105.9c-0.3,0.1-1,4.4-2.3,5.2c-1.3,0.8-0.1,3,0.1,3.3c0.1,0.2,3.3,4.4,5.5,7.3c1.3,1.8,6.4,2.8,6.3,2.9
		c0,0-4.6,0-5.1-0.4c-2.7-2.1-10.8-9-10.8-9.5c0-0.6-0.2-3,0.7-3.5c0.9-0.5,1.5-1.4,1.3-1.8c-0.2-0.4-0.3-1.5-0.3-1.5L28,105.9z"/>
	<path class="st7" d="M126.4,109.8c-0.5-1-1.1-2-1.7-3c-1.2-1.9-2.5-3.8-3.8-5.6c-0.6-1.1-1.3-2.1-2-3c-0.8-1-1.7-1.8-2.6-2.6
		c-0.9-0.8-1.9-1.6-2.9-2.2c0,0-0.1,0-0.1,0c0.6-0.8,1-1.6,1.3-2.5c0.2-0.5,0.2-1.1,0.2-1.7c0-0.3-0.1-0.6-0.2-0.9
		c0-0.2-0.1-0.3-0.2-0.5c-0.1-0.1-0.3-0.3-0.4-0.3c-0.4-0.3-1-0.7-1.6-0.8c-0.7-0.1-1.3,0.1-1.9,0.4c-0.4,0.2-0.7,0.5-0.9,0.8
		c0,0,0-0.1-0.1-0.1c-0.3-0.5-0.8-1-1.2-1.4c-0.2-0.2-0.4-0.4-0.6-0.5c-0.1-0.1-0.2-0.2-0.3-0.3c-0.2-0.2-0.4-0.3-0.6-0.3
		c-0.2-0.1-0.5-0.1-0.7,0c-0.2,0-0.5,0.2-0.5,0.3l-0.7,0.5c-0.8,0.6-1.6,1.3-2.4,1.9c-1,0-1.9,0-2.9-0.1c-1.2,0-2.3-0.1-3.4-0.3
		l-0.4-0.1l-0.4-0.1c-0.2-0.1-0.5-0.2-0.7-0.4c-0.5-0.3-1-0.6-1.5-0.9c-1-0.6-2-1.2-3-1.9c-2-1.2-4.1-2.4-6.2-3.4
		c-2.1-1-4.3-1.8-6.6-2.4c-5-2.5-10.2-4.7-15.5-6.5c-5.3-1.8-10.8-3.2-16.5-3.8c-0.7-0.1-1.4-0.1-2.1-0.2L42.3,68
		c-0.4,0-0.7,0-1.1,0c-0.7,0-1.4,0-2.1,0L37,68.2c-2.8,0.3-5.6,0.7-8.3,1.3c-2.8,0.6-5.5,1.4-8.1,2.6c-2.6,1.2-5,2.7-7.2,4.5
		c-2.2,1.9-4,4-5.6,6.4c-0.3,0.5-0.6,1.1-0.9,1.6c-0.7,0.8-1.4,1.7-2,2.7c-0.7,1.2-1.4,2.5-1.7,3.9C3,92,2.9,92.7,2.8,93.5
		c-0.1,0.8,0,1.6,0.4,2.3c0.5,1.2,1.4,2.1,2.5,2.7l-0.9,0.4l-1,0.4l-0.5,0.2c-0.2,0.1-0.4,0.2-0.6,0.3c-0.7,0.5-1.3,1.3-1.4,2.2
		L1,104.2c-0.3,2.8-0.7,5.6-0.9,8.5C0.1,114.1,0,115.5,0,117c0,0.7,0,1.5,0.1,2.2c0,0.2,0,0.4,0.1,0.6c0,0.2,0.1,0.4,0.2,0.6
		c0.1,0.4,0.4,0.8,0.6,1.2c0.1,0.2,0.3,0.3,0.4,0.5c0.1,0.1,0.2,0.2,0.2,0.2l0.2,0.2l0.8,0.7l1.5,1.5l0.4,0.4
		c0.2,0.1,0.4,0.3,0.6,0.4c0.4,0.3,0.9,0.4,1.4,0.5c0.5,0.1,0.8,0,1.2,0l1,0l8.4,0l1.7,0l-0.7-1.5c-0.2-0.4-0.3-0.6-0.5-0.9
		c-0.2-0.3-0.4-0.5-0.6-0.7c-0.4-0.5-0.9-0.9-1.5-1.2c-1.1-0.7-2.3-1-3.5-1.2c-0.3,0-0.6,0-0.9-0.1c-0.2,0-0.3,0-0.4,0
		c-0.1,0-0.2,0-0.4,0c-0.5,0-0.9-0.1-1.3-0.3c-0.8-0.3-1.5-0.8-2-1.6c-0.2-0.4-0.4-0.8-0.4-1.2c-0.1-0.4-0.1-1-0.1-1.5
		c0-1.1,0-2.2,0.1-3.2c0.1-1.1,0.2-2.1,0.5-3.1c0.1-0.5,0.3-0.9,0.6-1.2c0.2-0.3,0.4-0.4,0.6-0.4c1.4,0.5,2.7,0.8,4,1
		c1.4,0.2,2.9,0.4,4.4,0.4c2.3,0,4.7-0.2,7-0.9c0.1,0.6,0.1,1.1-0.2,1.6c-0.1,0.2-0.2,0.3-0.4,0.4c-0.1,0.1-0.4,0.3-0.6,0.4
		c-0.4,0.4-0.7,0.8-1,1.3c-0.2,0.5-0.4,1.1-0.4,1.7c0,0.6,0.2,1.2,0.5,1.7c0.3,0.5,0.7,0.9,1.2,1.2c0.5,0.3,0.8,0.6,1.2,0.8
		c1.4,1.1,2.8,2.5,4.2,3.8c0.7,0.6,1.5,1.3,2.2,1.9c0.8,0.6,1.6,1.2,2.6,1.6l0.1,0l0.1,0c1-0.1,2-0.1,2.9-0.1c1,0,2,0,2.9,0
		c1,0,2,0.1,2.9,0.1l2.9,0.2l0.6,0l0-0.7c0-0.3-0.1-0.4-0.1-0.5c0-0.1-0.1-0.2-0.2-0.4c-0.1-0.2-0.2-0.4-0.4-0.6
		c-0.3-0.4-0.6-0.7-1-1c-0.7-0.6-1.5-1-2.3-1.4c-1.6-0.6-3.3-0.8-5-0.8c-0.3-0.1-0.6-0.2-0.9-0.4c-0.3-0.2-0.7-0.4-1-0.6
		c-0.7-0.5-1.3-1-1.9-1.6c-0.6-0.6-1.1-1.2-1.3-1.8c-0.1-0.3-0.2-0.7-0.1-0.8c0-0.2,0.2-0.5,0.4-0.8c0.4-0.6,1.1-1.2,1.7-1.8l2-1.8
		c0.7-0.6,1.3-1.2,1.9-2c0.5-0.6,0.9-1.2,1.2-1.9c0,0,0,0,0.1,0c1.3,0.3,2.6,0.3,3.8,0.6c1.3,0.2,2.5,0.6,3.7,1.1
		c1.2,0.5,2.4,1,3.7,1.3c1.3,0.3,2.6,0.5,3.9,0.5c1.3,0,2.7-0.1,4-0.4c0.9-0.2,1.8-0.4,2.7-0.8c0,1.4,0,2.9-0.1,4.3
		c-0.1,0.9-0.1,1.8-0.2,2.6c-0.1,0.9-0.3,1.8-0.3,2.7c-0.1,0.9-0.1,1.8-0.1,2.7c0,0.9,0.1,1.9,0.4,2.8c0.1,0.5,0.3,1,0.7,1.4
		c0.2,0.2,0.5,0.3,0.7,0.4c0.3,0.1,0.6,0.1,0.8,0.1c0.9,0,1.8-0.1,2.6-0.1c3.5,0,7,0.1,10.5,0.3l0.8,0l-0.2-0.8
		c-0.2-0.9-0.6-1.7-1.1-2.5c-0.5-0.8-1.3-1.4-2.2-1.8c-0.2-0.1-0.5-0.2-0.7-0.2l-0.4-0.1l-0.4,0c-0.5-0.1-0.9,0-1.3,0l-2.5,0l-1.2,0
		c-0.1,0-0.1,0-0.2,0c0,0-0.1,0-0.1,0c0,0-0.1-0.1-0.1-0.1c0,0-0.1-0.1-0.1-0.2c0,0,0-0.1,0-0.1l0-0.2c0-0.2,0-0.3,0-0.5
		c0-0.2,0.1-0.3,0.1-0.5c0.3-1.4,1.2-2.7,2.1-4c0.5-0.6,1-1.3,1.5-1.9l0.8-1l0.3-0.4c0.1-0.1,0.2-0.2,0.4-0.3c1-0.8,2.5-1,4.2-1.2
		c0.8-0.1,1.7-0.3,2.5-0.5c0.6-0.2,1.2-0.5,1.7-0.8c0.2,0,0.5,0.1,0.7,0.1c1.5,0.4,2.9,1.3,3.9,2.4c0.3,0.3,0.5,0.7,0.7,1
		c0.1,0.2,0.2,0.4,0.4,0.6l0.4,0.6c0.6,0.8,1.2,1.5,1.7,2.2c1.2,1.4,2.5,2.7,3.8,4c0.7,0.6,1.4,1.2,2.1,1.8c0.7,0.5,1.4,1.1,2.3,1.5
		c0.6,0.9,1.3,1.7,2,2.5l0.5,0.6c0.2,0.2,0.4,0.4,0.7,0.6c0.5,0.4,1,0.6,1.6,0.7c0.3,0.1,0.6,0.1,0.9,0.1l0.8,0c0.6,0,1.1,0,1.7,0.1
		c1.1,0,2.2,0.1,3.3,0.2l1.7,0.1c0.3,0,0.5,0,0.9,0c0.6,0,1.2-0.4,1.3-1c0.1-0.3,0.1-0.6,0-0.9c-0.1-0.3-0.3-0.6-0.5-0.8
		c-0.2-0.2-0.5-0.4-0.7-0.6c-0.5-0.4-1-0.7-1.5-1c-1.9-1.1-4.1-1.7-6.3-1.7c-0.4-0.4-0.7-0.9-1-1.4c-0.4-0.6-0.9-1.3-1.3-1.9
		c-0.8-1.3-1.6-2.6-2.4-4c-0.4-0.7-0.7-1.4-1.1-2c-0.2-0.3-0.3-0.7-0.4-1c-0.1-0.2-0.1-0.3-0.1-0.5c0-0.2,0-0.3,0-0.5
		c0-1.3,0.2-2.6,0.4-3.9l1.4-0.3c0.3,0,0.5,0,0.8,0.1c0,0,0,0,0,0c0.1,0.1,0.2,0.2,0.3,0.2c0,0,0,0,0,0c0,0,0.1,0.1,0.1,0.1l0.1,0.1
		l0.1,0.1c1.1,1.6,2.3,2.9,3.7,4.2c1.3,1.3,2.7,2.5,4.1,3.6c1.4,1.1,2.9,2.2,4.5,3.1c0.8,0.4,1.7,0.8,2.6,1c0.5,0.1,1,0.1,1.5,0
		c0.2,0,0.5-0.1,0.7-0.2c0.2-0.1,0.5-0.1,1,0.3c0.2,0.2,0.4,0.3,0.6,0.5c0.2,0.2,0.5,0.4,0.7,0.6c0.3,0.2,0.5,0.4,0.8,0.6l0.1,0.1
		l0.2,0l3.3-0.2l1.7-0.1l0.8-0.1c0.4,0,0.7-0.1,1.1-0.3c0.7-0.3,1.3-0.9,1.6-1.5c0.2-0.3,0.3-0.7,0.3-1.1c0-0.2,0-0.3,0.1-0.5l0-0.4
		c0.1-1.2,0-2.4-0.3-3.6C127.5,112,127,110.8,126.4,109.8z M111.5,88.6c0.3-0.3,0.7-0.5,1-0.6c0.4-0.2,0.9-0.3,1.3,0
		c0.4,0.2,0.2,0.7,0,1.1c-0.2,0.4-0.4,0.9-0.6,1.4c-0.2,0.8-0.4,1.7-0.4,2.7c-0.8-0.5-1.7-0.9-2.5-1.3c0.2-0.7,0.2-1.5,0-2.2
		c0-0.1,0-0.1-0.1-0.2C110.7,89.1,111.1,88.9,111.5,88.6z M5.6,96.9c-0.3-0.6-0.5-1.1-0.6-1.7c-0.1-0.6-0.2-1.1-0.3-1.7
		c-0.1-0.6-0.1-1.2,0-1.9c0.2-1.3,0.6-2.6,1.1-3.8c0.1-0.1,0.1-0.3,0.2-0.4c-0.3,1.3-0.4,2.7-0.2,4c0.2,1.5,0.6,2.9,1.3,4.2
		c0.2,0.3,0.3,0.7,0.5,1c0.1,0.2,0.1,0.4,0.1,0.6c0,0.2-0.1,0.4-0.3,0.5c-0.1,0.1-0.5,0.2-0.8,0.4l-0.3,0.1
		C6,97.7,5.8,97.3,5.6,96.9z M36.6,107.9c-0.7,0.6-1.4,1.1-2.1,1.6c-1.4,1-3,1.9-4.4,3.4c-0.3,0.4-0.7,0.9-0.8,1.5
		c-0.2,0.7,0,1.3,0.1,1.8c0.4,1.1,1,1.9,1.6,2.6c0.7,0.7,1.4,1.3,2.2,1.9c0.4,0.3,0.8,0.5,1.2,0.7c0.4,0.2,0.9,0.4,1.5,0.6l0.1,0
		l0.1,0c1.6-0.1,3.1,0,4.5,0.5c0.7,0.2,1.4,0.5,2,1c0.3,0.2,0.6,0.4,0.8,0.7c0,0,0,0.1,0.1,0.1l-1.9,0.1c-1,0.1-2,0.1-2.9,0.1
		c-1,0-2,0-2.9,0c-0.9,0-1.9-0.1-2.8-0.1c-0.7-0.4-1.4-1.1-2-1.8l-1.9-2.1c-1.3-1.4-2.7-2.8-4.4-4c-0.4-0.3-0.9-0.6-1.2-0.8
		c-0.3-0.2-0.7-0.5-0.9-0.8c-0.5-0.6-0.6-1.4-0.4-2.1c0.1-0.4,0.3-0.8,0.6-1.1c0.1-0.2,0.3-0.3,0.5-0.5c0.2-0.2,0.4-0.5,0.5-0.7
		c0.2-0.6,0.1-1.1,0-1.6c0-0.1-0.1-0.2-0.1-0.3c0.4-0.1,0.9-0.3,1.3-0.4c2.4-0.9,4.6-2.3,6.5-4c1,0.5,2,0.9,3.1,1.3
		c1.1,0.4,2.2,0.7,3.3,1C37.6,106.9,37.1,107.4,36.6,107.9z M94.9,108.4c-0.3,0.8-0.5,1.5-0.6,2.4c0,0.2,0,0.4-0.1,0.7
		c0,0.3,0.1,0.5,0.1,0.7c0.1,0.4,0.2,0.8,0.3,1.2c0.3,0.8,0.6,1.5,0.9,2.3c0.7,1.5,1.4,2.9,2.2,4.3c0.8,1.4,1.6,2.7,2.8,4.1l0.3,0.4
		l0.5,0c1-0.1,2,0,3,0.2c1,0.2,2,0.5,2.9,1c0.5,0.2,0.9,0.5,1.4,0.8c0.1,0.1,0.3,0.2,0.4,0.3l-0.5,0l-1.7,0.1
		c-1.1,0.1-2.2,0.1-3.3,0.2c-0.6,0-1.1,0.1-1.7,0.1c-0.6,0-1.1,0.1-1.6,0c-0.5-0.1-1-0.3-1.4-0.6c-0.2-0.2-0.4-0.3-0.5-0.5
		c-0.2-0.2-0.3-0.4-0.5-0.7c-0.6-0.9-1.3-1.8-1.8-2.8l0-0.1l-0.2-0.1c-0.7-0.5-1.3-1.1-2-1.7c-0.6-0.6-1.3-1.3-1.9-1.9
		c-1.3-1.3-2.6-2.5-3.8-3.8c-0.6-0.6-1.3-1.3-1.8-2l-0.4-0.5c-0.1-0.2-0.2-0.3-0.4-0.5c-0.3-0.4-0.6-0.8-1-1.1
		c-0.7-0.7-1.6-1.2-2.4-1.5c-0.1,0-0.2-0.1-0.2-0.1c0.6,0,1.3,0,1.9-0.1c1.8-0.1,3.6-0.4,5.4-0.6c1.8-0.3,3.6-0.7,5.3-1.1l0.8-0.2
		C95.2,107.5,95,107.9,94.9,108.4z M124.5,116.8c0,1.4-0.7,1.7-0.2,2.2l-0.4,0.1l-1.7,0.2l-3.1,0.5c-0.2-0.1-0.4-0.2-0.5-0.3
		c-0.2-0.2-0.5-0.3-0.7-0.5c-0.2-0.1-0.3-0.2-0.5-0.4c-2-1.5-2.7-3.3-2.9-3.7l-0.3-0.5c-0.1-0.2-0.2-0.4-0.5-0.5
		c-0.1,0.3,0,0.5,0,0.7l0.1,0.6c0.1,0.4,0.3,0.9,0.4,1.3c0.2,0.4,0.4,0.8,0.7,1.2c0.1,0.2,0.2,0.3,0.3,0.5c-0.5,0.2-1,0.2-1.6,0.2
		c-0.8-0.1-1.7-0.4-2.4-0.8c-1.6-0.8-3-1.9-4.3-3.1c-1.3-1.2-2.5-2.6-3.7-3.9c-0.6-0.7-1.1-1.4-1.7-2.1c-0.5-0.7-1.1-1.4-1.5-2.1
		l-0.1-0.1l-0.1-0.2c-0.1-0.1-0.1-0.2-0.2-0.2c0-0.2-0.1-0.3-0.2-0.5c-0.4-0.4-0.8-0.8-1.2-1.2l-0.6-0.6c-0.2-0.2-0.3-0.4-0.4-0.6
		c-0.2-0.4-0.3-1-0.4-1.5c-0.1-0.5-0.1-1.1-0.1-1.7c-0.2,0.5-0.3,1.1-0.3,1.7c-0.1,0.6-0.1,1.2,0,1.8c0.2,0.6,0.4,1.2,0.6,1.7
		c0,0,0,0,0,0c-0.1,0-0.2,0-0.2,0l-2.6,0.7c-1.7,0.4-3.5,0.9-5.2,1.3c-3,0.7-6.1,1.4-9.2,1.6c0,0,0.1-0.1,0.1-0.1
		c0.7-0.6,1.2-1.2,1.7-1.9c0.5-0.7,0.9-1.5,1.1-2.3c0,0,0-0.1,0-0.1c0,0-0.1,0-0.1,0l0,0c-0.8,1.4-1.9,2.7-3.2,3.5
		c-0.6,0.4-1.3,0.7-2.1,0.9c-0.8,0.2-1.5,0.2-2.3,0.3c-0.8,0-1.6,0-2.5,0.2c-0.9,0.1-1.8,0.5-2.6,1c-0.2,0.1-0.4,0.3-0.6,0.5
		l-0.5,0.5l-0.8,0.9c-0.5,0.6-1.1,1.3-1.6,1.9c-0.5,0.7-1,1.4-1.5,2.2c-0.4,0.8-0.8,1.6-1,2.6c-0.1,0.2-0.1,0.5-0.1,0.7
		c0,0.2,0,0.5,0,0.7l0,0.4c0,0.2,0,0.4,0.1,0.5c0.1,0.3,0.3,0.7,0.5,0.9c0.2,0.3,0.5,0.5,0.9,0.6c0.2,0.1,0.3,0.1,0.5,0.1
		c0.2,0,0.4,0,0.5,0l1.2-0.1l2.4-0.1c0.9,0,1.5-0.1,2.1,0.1c1,0.3,1.9,1.2,2.4,2.3c-3.2,0.2-6.5,0.3-9.7,0.3c-0.9,0-1.8,0-2.6-0.1
		c-0.2,0-0.4,0-0.5-0.1c-0.1-0.1-0.3-0.1-0.4-0.3c-0.2-0.2-0.3-0.6-0.4-1c-0.1-0.8-0.1-1.7,0-2.5c0.1-0.9,0.2-1.7,0.4-2.6
		c0.1-0.9,0.3-1.7,0.5-2.6c0.2-0.9,0.2-1.8,0.3-2.7c0.1-1.8,0.1-3.6-0.1-5.5c0-0.2-0.1-0.5-0.1-0.7l-0.1-0.6c-0.1-0.4,0-0.7,0-1.1
		c0-0.2,0.1-0.3,0.2-0.5c0.1-0.2,0.2-0.4,0.3-0.6c0.2-0.4,0.4-0.8,0.6-1.2c0.9-1.5,1.8-3.1,2.7-4.6c0,0,0-0.1,0-0.1c0,0-0.1,0-0.1,0
		c-1.2,1.3-2.4,2.7-3.4,4.1c-0.3,0.4-0.5,0.7-0.8,1.1c-0.1,0.2-0.2,0.4-0.4,0.6c-0.1,0.2-0.2,0.5-0.3,0.7c-0.2,0.5-0.2,1.1-0.2,1.6
		c0,0.1,0,0.3,0,0.4l0,0.3c0,0.2,0,0.4,0.1,0.6c0,0.1,0,0.1,0,0.2l-2.8-0.1c-1.3,0-2.5-0.1-3.7-0.1c-2.5,0-4.9-0.3-7.5-0.6
		c-1.3-0.2-2.5-0.5-3.7-0.9c-1.2-0.5-2.4-1.1-3.6-1.5c-1.2-0.4-2.5-0.7-3.8-0.9c-1-0.1-1.9-0.3-2.9-0.3c0.1-0.1,0.2-0.2,0.3-0.3
		c2.1-2.1,5.2-6.3,4.9-9.6c-0.1-0.8-0.4-1.6-0.7-2.3c0,0-0.1-0.1-0.1-0.1c0,0-0.1,0.1-0.1,0.1l0,0c0.3,0.7,0.4,1.5,0.5,2.3
		c0,2.9-3.1,6.9-5.2,8.8c-2.1,1.9-4.5,3.3-7.1,4.2c-2.6,0.9-5.4,1.2-8.2,1.1c-1.4-0.1-2.8-0.2-4.1-0.5c-1.3-0.3-2.7-0.6-3.9-1.1
		l-0.2-0.1l-0.2,0c-0.4,0-0.9,0.1-1.2,0.4c-0.3,0.2-0.6,0.5-0.8,0.8c-0.4,0.6-0.7,1.2-0.9,1.7c-0.4,1.2-0.5,2.3-0.7,3.5
		c-0.1,1.1-0.2,2.3-0.2,3.4c0,0.6,0,1.1,0.1,1.8c0.1,0.7,0.3,1.3,0.7,1.9c0.7,1.2,1.8,2.1,3,2.5c0.6,0.2,1.3,0.4,1.9,0.4
		c0.2,0,0.3,0,0.5,0c0.1,0,0.3,0,0.4,0c0.2,0,0.5,0,0.7,0c1,0.1,1.9,0.4,2.7,0.9c0.2,0.1,0.4,0.3,0.6,0.5l-6.2,0l-1,0
		c-0.3,0-0.8,0-0.9,0c-0.2,0-0.4-0.1-0.6-0.2c-0.1-0.1-0.2-0.1-0.3-0.2l-0.4-0.4l-1.5-1.4l-0.8-0.7l-0.2-0.2
		c-0.1-0.1-0.1-0.1-0.1-0.1c-0.1-0.1-0.2-0.2-0.3-0.3c-0.2-0.2-0.3-0.5-0.4-0.7c0-0.1-0.1-0.3-0.1-0.4c0-0.1,0-0.3-0.1-0.4
		c-0.1-0.7-0.1-1.3-0.1-2c0-1.4,0-2.8,0.1-4.2c0.1-2.8,0.4-5.6,0.7-8.4l0.2-2.1c0.1-0.5,0.3-1,0.7-1.3c0.1-0.1,0.2-0.1,0.3-0.2
		l0.5-0.2l0.9-0.5l1.9-0.9L7.6,99c0.1-0.1,0.4-0.2,0.6-0.4c0.4-0.3,0.6-0.8,0.7-1.3c0.1-0.5-0.1-1-0.3-1.4c-0.2-0.3-0.4-0.6-0.5-0.9
		c-0.6-1.2-1.1-2.5-1.3-3.8c-0.2-1.3-0.2-2.7,0.1-4c0.3-1.3,0.8-2.6,1.6-3.8c1.5-2.3,3.3-4.5,5.4-6.3c0.5-0.4,1-0.9,1.6-1.3
		c0.6-0.4,1.1-0.8,1.7-1.2c0.6-0.3,1.2-0.7,1.8-1c0.6-0.3,1.2-0.6,1.9-0.9c2.5-1.1,5.2-1.9,8-2.4c2.7-0.5,5.5-0.8,8.3-1
		c2.7-0.2,5.5,0,8.2,0.4c5.5,0.8,10.8,2.3,16.1,4c2.6,0.9,5.3,1.8,7.8,2.9c2.6,1,5.2,2.1,7.6,3.3l0.1,0l0.1,0
		c2.2,0.5,4.4,1.2,6.5,2.1c2.1,0.9,4.2,1.9,6.2,3.1l3.1,1.7c0.5,0.3,1,0.6,1.6,0.8c0.3,0.1,0.5,0.3,0.8,0.4l0.5,0.1l0.5,0.1
		c2.1,0.2,3.9,0.3,5.9,0.1c-0.8,0.7-1.4,1.2-1.9,2.3c-0.3,0.7-0.3,1.4-0.1,2.1c0.2,0.6,0.3,1,0.5,1.5c0.4,1,0.8,2,1.4,2.9
		c0,0,0,0,0.1,0c0.1,0,0.1,0,0.1-0.1c0.1-1.1-0.1-2.2-0.2-3.3c-0.1-0.5-0.2-1.1-0.3-1.6c-0.1-0.4,0-0.7,0.1-1.1
		c0.3-0.8,0.6-1.9,1.3-2.7c0.6-0.8,1.5-1.5,2.4-1.9c0.2-0.1,0.5-0.2,0.7-0.3c0.2-0.1,0.1,0,0.2,0c0,0,0.1,0,0.1,0.1
		c0,0,0,0.1,0.1,0.1c0.1,0.1,0.1,0.2,0.2,0.3c0.2,0.2,0.3,0.4,0.5,0.6c0.4,0.4,0.6,0.7,0.8,1.2c0.2,0.4,0.3,0.8,0.4,1.2
		c0.1,0.8,0,1.7-0.3,2.5c-0.2,0.4-0.3,0.7-0.7,1.2c-0.3,0.5-0.6,0.9-0.8,1.4l-0.1,0.2l0,0c0,0.4,0.1,0.8,0.2,1.1
		c0.1,0.3,0.3,0.6,0.4,0.9c0,0,0,0,0.1,0c0.1,0,0.1,0,0.1-0.1l0,0c0-0.3,0-0.6,0-0.9c0-0.2,0.1-0.4,0.1-0.6c0.4-0.3,0.8-0.7,1.2-1
		c0.2-0.2,0.4-0.4,0.6-0.6c0.2-0.2,0.4-0.5,0.6-0.8c0.2-0.4,0.4-0.9,0.6-1.3c0.9,0.6,1.8,1.3,2.6,2c0.9,0.8,1.8,1.6,2.6,2.4
		c0.8,0.8,1.5,1.8,2.2,2.7c0.7,0.9,1.3,2,1.7,2.9l0,0.1l0.1,0.1c0.6,0.9,1.2,1.9,1.8,2.8c0.6,0.9,1.2,1.9,1.7,2.8
		c0.5,1,1.1,1.9,1.6,2.9c0.5,0.9,0.9,1.9,1.1,2.9c0.2,0.8,0.3,1.7,0.3,2.5C125.4,115.8,124.5,115.7,124.5,116.8z"/>
	<path class="st7" d="M114.6,100.9c-0.9-0.5-2.5-0.1-3.4,0.2c-0.4,0.1-0.6,0.6-0.5,1c0.2,0.9,0.8,2.5,1.7,3c0.9,0.5,2.5,0.1,3.4-0.2
		c0.4-0.1,0.6-0.6,0.5-1C116,102.9,115.5,101.4,114.6,100.9z"/>
	<g>
		<path class="st8" d="M30.4,84.9c0.4,0.1,0.8-0.2,0.8-0.6c0.1-0.4-0.2-0.8-0.6-0.8c-2.9-0.5-5.8-0.7-8.7-0.3
			c-0.5,0.1-1.1,0.2-1.6,0.3c-0.5,0.1-1.1,0.3-1.6,0.5c-0.5,0.2-1,0.4-1.5,0.7c-0.5,0.3-0.9,0.6-1.2,1.1c0,0,0,0.1,0,0.1
			c0,0,0.1,0,0.1,0l0,0c0.3-0.4,0.8-0.6,1.3-0.9c0.5-0.2,1-0.4,1.5-0.5c0.5-0.1,1-0.2,1.5-0.3c0.5-0.1,1-0.1,1.6-0.1
			c1.4-0.1,2.8,0,4.2,0.2C27.6,84.4,29,84.6,30.4,84.9C30.3,84.9,30.4,84.9,30.4,84.9z"/>
		<path class="st8" d="M42.8,87.9c-2.6-1.1-5.2-2.3-8-3.3c-0.4-0.1-0.8,0.1-1,0.5c-0.2,0.4,0,0.9,0.4,1l0,0c2.6,1,5.2,2.2,7.8,3.4
			l0,0c0,0,0,0,0,0c0.4,0.2,0.9,0,1.1-0.5C43.5,88.6,43.2,88.1,42.8,87.9z"/>
		<path class="st8" d="M67.9,92.9c0-0.2-0.2-0.4-0.5-0.3c-1.4,0.2-2.8,0.4-4.2,0.4c-0.7,0-1.4,0-2.1-0.1c-0.7-0.1-1.4-0.2-2.1-0.3
			c-2.8-0.3-5.5-0.9-8.2-1.7c0,0,0,0,0,0c-0.4-0.1-0.9,0.1-1,0.6c-0.1,0.4,0.1,0.9,0.6,1c2.8,0.7,5.7,1.2,8.6,1.3
			c0.7,0,1.5,0,2.2-0.1l2.2-0.1c1.4-0.1,2.9-0.1,4.3-0.2c0,0,0,0,0.1,0C67.8,93.3,67.9,93.1,67.9,92.9z"/>
		<path class="st8" d="M80.2,90.7c-1.4,0.1-2.9,0.3-4.3,0.4c-1.4,0.2-2.8,0.4-4.2,0.7c-0.3,0.1-0.6,0.4-0.6,0.8
			c0,0.4,0.4,0.7,0.8,0.7c1.4-0.1,2.8-0.2,4.3-0.3c1.4-0.1,2.8-0.2,4.2-0.2c0,0,0,0,0,0c0.6,0,1-0.5,1-1.1
			C81.2,91.1,80.7,90.7,80.2,90.7z"/>
		<path class="st8" d="M93.2,94.1c-0.4-0.4-0.8-0.8-1.3-1.1c-0.9-0.6-2-1.1-3-1.5l0,0c0,0-0.1,0-0.1,0c-0.4-0.1-0.8,0.2-0.9,0.6
			c-0.1,0.4,0.2,0.8,0.6,0.9c1,0.2,2,0.5,2.9,0.8c0.5,0.2,0.9,0.4,1.4,0.7c0.4,0.3,0.9,0.6,1.3,0.9c0,0,0.1,0,0.1,0
			c0,0,0.1-0.1,0-0.1C94,94.9,93.6,94.5,93.2,94.1z"/>
	</g>
	<g>
		<path class="st8" d="M20.1,90.9l-1,0.3c0,0,0,0,0,0c0,0-0.1,0-0.1,0.1c0,0,0,0,0,0c0,0-0.1,0.1-0.1,0.1c0,0,0,0,0,0
			c0,0,0,0.1-0.1,0.2c0,0,0,0,0,0c0,0,0,0.1,0,0.1c0,0,0,0.1,0,0.1c0,0,0,0,0,0c0,0,0,0,0,0c0,0.1,0.1,0.2,0.2,0.3c0,0,0,0,0,0
			c0,0,0.1,0,0.1,0.1c0,0,0,0,0.1,0c0,0,0,0,0.1,0c0,0,0,0,0.1,0c0,0,0,0,0,0l0,0l0.9-0.2l0,0c0,0,0,0,0,0c0.3-0.1,0.5-0.4,0.4-0.7
			C20.7,91,20.4,90.8,20.1,90.9z"/>
		<path class="st8" d="M25.1,90.5c-0.4,0-0.8,0.4-0.8,0.8c0,0.4,0.4,0.8,0.8,0.8c0.4,0,0.8-0.4,0.8-0.8
			C25.9,90.8,25.5,90.5,25.1,90.5z"/>
		<path class="st8" d="M31,91.2l-0.6-0.1c0,0,0,0-0.1,0c0,0,0,0-0.1,0c0,0-0.1,0-0.1,0c0,0-0.1,0-0.1,0c-0.1,0-0.1,0-0.2,0.1
			c0,0,0,0,0,0c-0.1,0-0.1,0.1-0.2,0.2c0,0,0,0,0,0c0,0.1-0.1,0.2-0.1,0.2c0,0,0,0,0,0c0,0,0,0,0,0c0,0,0,0.1,0,0.1c0,0,0,0.1,0,0.1
			c0,0,0,0,0,0c0,0.1,0,0.2,0.1,0.2c0,0,0,0,0,0c0,0.1,0.1,0.1,0.1,0.2c0,0,0,0,0.1,0c0,0,0.1,0.1,0.2,0.1c0,0,0,0,0.1,0l0,0
			l0.6,0.1l0,0c0,0,0,0,0,0c0.4,0.1,0.8-0.2,0.8-0.6C31.6,91.6,31.4,91.2,31,91.2z"/>
		<path class="st8" d="M41.3,94.8l-0.6-0.3c0,0,0,0,0,0c-0.1,0-0.2-0.1-0.3-0.1c-0.5,0-0.8,0.4-0.8,0.9c0,0.1,0,0.2,0.1,0.3
			c0,0,0,0,0,0c0,0.1,0.1,0.2,0.1,0.2c0,0,0,0,0,0.1c0.1,0.1,0.1,0.1,0.2,0.2c0,0,0,0,0.1,0l0,0c0,0,0,0,0,0l0.6,0.3c0,0,0,0,0,0
			c0.4,0.2,0.9,0,1.1-0.5C42,95.5,41.8,95,41.3,94.8z"/>
		<path class="st8" d="M51,98.4c-0.4,0-0.8,0.4-0.8,0.8c0,0.4,0.4,0.8,0.8,0.8c0.4,0,0.8-0.4,0.8-0.8C51.8,98.8,51.4,98.4,51,98.4z"
			/>
		<path class="st8" d="M47.1,97.2L47.1,97.2L46.5,97l0,0c0,0,0,0,0,0c-0.1,0-0.2,0-0.3,0c-0.1-0.3-0.4-0.6-0.8-0.6
			c-0.5,0-0.8,0.4-0.8,0.9s0.4,0.9,0.8,0.9c0.1,0,0.1,0,0.2,0c0.1,0.2,0.3,0.4,0.5,0.4l0.6,0.2c0.4,0.1,0.8-0.1,1-0.5
			C47.8,97.7,47.6,97.3,47.1,97.2z"/>
		<path class="st8" d="M56,99.7c-0.3,0-0.6,0.3-0.6,0.6s0.3,0.6,0.6,0.6c0.3,0,0.6-0.3,0.6-0.6S56.3,99.7,56,99.7z"/>
		<path class="st8" d="M61.3,100.5c-0.1,0-0.2,0.1-0.3,0.1l-0.5,0l0,0c0,0,0,0,0,0c-0.2,0-0.4,0.2-0.4,0.4c0,0.2,0.2,0.4,0.4,0.4
			l0.6,0c0.1,0,0.1,0,0.2-0.1c0.2,0,0.4-0.2,0.4-0.4C61.6,100.7,61.5,100.5,61.3,100.5z"/>
		<ellipse class="st8" cx="68.3" cy="100.5" rx="0.5" ry="0.5"/>
		<path class="st8" d="M72.6,99.2L72,99.3c0,0,0,0-0.1,0c-0.3,0.1-0.6,0.4-0.6,0.7c0,0.4,0.3,0.8,0.7,0.8c0,0,0,0,0,0c0,0,0,0,0,0
			l0.6,0c0,0,0.1,0,0.1,0c0.4-0.1,0.7-0.5,0.6-0.9C73.4,99.4,73,99.1,72.6,99.2z"/>
		<ellipse class="st8" cx="79" cy="99.4" rx="1" ry="1"/>
		<path class="st8" d="M83.5,98.3l-0.7,0c0,0,0,0,0,0c-0.6,0-1,0.5-1,1c0,0.6,0.5,1,1,1l0,0h0c0,0,0,0,0,0c0,0,0,0,0,0l0.6,0l0,0
			c0.5,0,1-0.4,1-1C84.5,98.8,84.1,98.3,83.5,98.3z"/>
		<path class="st8" d="M88.7,99.3c-0.5,0-0.9,0.4-0.9,0.9s0.4,0.9,0.9,0.9c0.5,0,0.9-0.4,0.9-0.9S89.2,99.3,88.7,99.3z"/>
		<path class="st8" d="M93.4,101.6C93.4,101.6,93.4,101.6,93.4,101.6L93.4,101.6c-0.1-0.1-0.1-0.1-0.2-0.1c-0.2-0.2-0.6-0.1-0.7,0.1
			c-0.2,0.2-0.1,0.6,0.1,0.7l0,0l0.9,0.6l0,0c0.1,0.1,0.3,0.1,0.5,0c0.2-0.1,0.2-0.4,0-0.5L93.4,101.6z"/>
	</g>
	<g>
		<path class="st8" d="M67.4,85.2c-0.8,0.1-1.8,0.7-1.7,1.4c0.1,0.6,1.3,1,2,0.9c0.8-0.1,1.3-0.7,1.3-1.3
			C68.9,85.5,68.2,85.1,67.4,85.2z"/>
		<path class="st8" d="M72.3,87.3c0.8-0.1,1.3-0.7,1.3-1.3c-0.1-0.6-0.8-1-1.5-0.9c-0.8,0.1-1.4,0.6-1.3,1.2
			C70.8,86.9,71.6,87.4,72.3,87.3z"/>
		<path class="st8" d="M51.4,84.7c0.2-0.6-0.2-1.3-1-1.5c-0.7-0.3-1.5-0.1-1.7,0.5s0.3,1.4,1,1.7C50.4,85.5,51.2,85.3,51.4,84.7z"/>
		<path class="st8" d="M36.8,79.5c0.1,0,0.1,0,0.2,0c0.2,0.3,0.5,0.5,0.8,0.6c0.8,0.3,1.6,0,1.9-0.6c0.2-0.6-0.2-1.3-1-1.6
			c-0.4-0.1-0.8-0.2-1.1-0.1c-0.1,0-0.2-0.1-0.3-0.1c-0.7-0.1-1.4,0-1.5,0.5C35.7,78.8,36.2,79.4,36.8,79.5z"/>
		<path class="st8" d="M21.8,79.7c0.5-0.1,0.8-0.5,0.7-0.9c-0.1-0.4-0.6-0.6-1.1-0.5c-0.5,0.1-0.9,0.5-0.8,0.8
			C20.7,79.5,21.3,79.8,21.8,79.7z"/>
		<path class="st8" d="M31.9,76.7c-0.9,0-1.8,0-2.8,0c-0.9,0.1-1.8,0.2-2.7,0.4c-0.3,0.1-0.5,0.3-0.5,0.7c0,0.3,0.3,0.6,0.7,0.5
			c0.9-0.1,1.7-0.1,2.6-0.1c0.9,0,1.7,0,2.6,0.1c0,0,0,0,0,0c0.4,0,0.8-0.3,0.9-0.8C32.7,77.1,32.3,76.8,31.9,76.7z"/>
		<path class="st8" d="M46.4,82.8c0.1-0.2,0-0.3-0.1-0.4l0,0c-0.6-0.3-1.1-0.6-1.7-0.9c-0.6-0.3-1.1-0.6-1.7-0.9l0,0c0,0,0,0,0,0
			c-0.2-0.1-0.5,0-0.6,0.3c-0.1,0.2,0,0.5,0.3,0.6c0.6,0.2,1.2,0.5,1.8,0.7c0.6,0.3,1.2,0.5,1.8,0.8C46.1,83.1,46.3,83,46.4,82.8z"
			/>
		<path class="st8" d="M52.4,85.5l3,0.9c0,0,0,0,0.1,0c0.3,0.1,0.7-0.2,0.7-0.5c0.1-0.3-0.2-0.7-0.5-0.7l0,0l-3-0.5l0,0
			c-0.2,0-0.4,0.1-0.5,0.3C52.1,85.2,52.2,85.5,52.4,85.5z"/>
		<path class="st8" d="M58.4,87.1l1.4,0.2c0.5,0.1,0.9,0.1,1.4,0.1l2.7,0.1c0,0,0,0,0,0c0.5,0,0.9-0.4,0.9-0.9c0-0.5-0.4-0.9-0.9-1
			l-0.1,0l-2.6,0c-0.4,0-0.9,0-1.3,0l-1.3-0.1l0,0c-0.4,0-0.8,0.3-0.8,0.7C57.7,86.6,58,87,58.4,87.1z"/>
		<path class="st8" d="M75.3,86.5c1.2-0.2,2.5-0.3,3.7-0.3h0c0.4,0,0.7-0.3,0.8-0.7c0-0.4-0.3-0.8-0.7-0.9c-1.3-0.1-2.6-0.1-3.9,0
			c0,0,0,0-0.1,0c-0.5,0.1-0.9,0.5-0.8,1.1C74.4,86.2,74.8,86.5,75.3,86.5z"/>
		<path class="st8" d="M85.4,85.8c-0.1-0.1-0.3-0.2-0.5-0.3c-0.6-0.2-1.7,0-1.8,0.5c-0.1,0.5,0.7,1.2,1.3,1.4c0,0,0.1,0,0.1,0
			c0.5,0.3,1.3,0.5,2.3,0.6c0,0,0.1,0,0.1,0c0,0,0-0.1,0-0.1C86.5,86.8,86.1,86.1,85.4,85.8z"/>
	</g>
</g>
</svg>
