<?xml version="1.0" encoding="utf-8"?>
<!-- Generator: Adobe Illustrator 24.1.2, SVG Export Plug-In . SVG Version: 6.00 Build 0)  -->
<svg version="1.1" id="Layer_1" xmlns="http://www.w3.org/2000/svg" xmlns:xlink="http://www.w3.org/1999/xlink" x="0px" y="0px"
	 viewBox="0 0 128 128" style="enable-background:new 0 0 128 128;" xml:space="preserve">
<style type="text/css">
	.st0{fill:#54A74B;}
	.st1{fill:#93825C;}
	.st2{fill:#95CFE8;}
	.st3{fill:#A3A9AE;}
	.st4{fill:#2D2D2D;}
	.st5{fill:#333333;}
</style>
<g>
	<path class="st0" d="M62.5,113.1c0-4.6-2.4-8.7-6.3-11.1l-0.5-0.3l0.1-0.6c0.1-0.5,0.1-0.9,0.1-1.4c0-7.1-5.8-12.9-12.9-12.9
		c-3.6,0-6.9,1.4-9.3,4L33,91.4L32.4,91c-1.7-0.9-3.5-1.3-5.3-1.3c-5.7,0-10.5,4.1-11.3,9.7l-0.1,0.5l-0.5,0.2c-2.3,1-4.1,2.7-5.2,5
		c-0.5,1-0.8,2.1-0.9,3.3L9,109.1l-0.6,0.2c-3.8,1.1-6.4,4.4-6.4,8.2c0,4,2.9,7.4,7,8.3l0.1,0c0.7,0.1,5.2,0.2,5.9,0.2h32.7
		c0.5,0,3.3-0.1,3.7-0.1C57.9,124.9,62.5,119.5,62.5,113.1z M28.8,112.7c-1.2,1.7-3.1,2.6-5,2.6c-1.2,0-2.5-0.4-3.5-1.1
		c-2.8-1.9-3.4-5.8-1.5-8.5c0.3-0.4,0.9-0.6,1.4-0.2c0.4,0.3,0.6,0.9,0.2,1.4c-1.3,1.9-0.9,4.5,1,5.8c1.9,1.3,4.5,0.9,5.8-1
		c0.3-0.4,0.9-0.6,1.4-0.2C29,111.7,29.1,112.3,28.8,112.7z M49.9,111.7c-0.9,1.3-2.4,2.2-4,2.5c-0.1,0-0.1,0-0.2,0
		c-0.5,0-0.9-0.3-1-0.8c-0.1-0.5,0.3-1,0.8-1.1c1.1-0.2,2.1-0.8,2.7-1.7c0.6-0.9,0.9-2,0.7-3.1c-0.4-2.3-2.6-3.8-4.8-3.4
		c-0.5,0.1-1-0.3-1.1-0.8c-0.1-0.5,0.3-1,0.8-1.1c3.3-0.6,6.5,1.6,7.1,5C51.3,108.7,50.9,110.3,49.9,111.7z"/>
	<path class="st0" d="M89.5,111.8l1.6-1.5c3.1-2.9,2.4-7.1,2.4-7.2c-0.7-7-7.5-8.4-7.6-8.4l-0.7-0.1L85.2,94
		c-1.1-6.8-6.8-11.7-13.7-11.7c-2.3,0-4.4,0.5-6.5,1.6l-0.7,0.3l-0.5-0.5c-3-3.1-7-4.8-11.3-4.8c-5.3,0-10.1,2.5-12.7,6.4
		c1-0.2,2-0.3,3-0.3c8.2,0,14.9,6.7,14.9,14.9c0,0.3,0,0.6,0,1c4.2,2.8,6.8,7.4,6.8,12.4c0,5.5-3,10.3-7.5,12.9h34
		c2.4,0,4.1-0.7,5.1-2.2l0.1-0.1c1.2-1.3,1.9-3,1.9-4.7c0-3.7-2.8-6.7-6.4-7L89.5,111.8z M76.1,103c-0.9,2-2.5,3.6-4.5,4.4
		c-0.1,0-0.2,0.1-0.4,0.1c-0.4,0-0.8-0.2-0.9-0.6c-0.2-0.5,0-1.1,0.5-1.3c1.6-0.6,2.8-1.8,3.4-3.3c0.7-1.5,0.7-3.2,0.1-4.8
		c-0.6-1.5-1.8-2.8-3.4-3.4c-1.5-0.7-3.2-0.7-4.8-0.1c-0.5,0.2-1.1,0-1.3-0.5c-0.2-0.5,0-1.1,0.5-1.3c2-0.8,4.3-0.8,6.3,0.1
		c2,0.9,3.6,2.5,4.4,4.5C77,98.7,76.9,100.9,76.1,103z"/>
	<path class="st1" d="M103.8,67.9c2.2,0.9,4.5,1.6,6.5,2.8c0.3,0.2,0.6,0.4,0.9,0.5c0.2-0.8,0.4-1.6,0.5-2.4c0-0.1,0-0.1,0-0.1
		c0,0,0,0,0-0.1l-0.1-0.2l-0.3-0.8c-0.2-0.6-0.4-1.1-0.6-1.7c-0.2-0.6-0.4-1.1-0.6-1.7l-0.3-0.9l-0.1-0.2c0-0.1,0-0.1,0-0.1
		c0,0,0-0.1-0.1-0.1c-0.1-0.1-0.2-0.2-0.5-0.2l-0.9-0.1c-0.5,0-1-0.2-1.5-0.5c-0.2-0.1-0.5-0.3-0.6-0.5l-0.3-0.3l-0.5-0.5
		c-0.1-0.1-0.3-0.2-0.5-0.1l-1.7,0.5c-0.6,0.2-1.2,0.3-1.8,0.5c-0.6,0.1-1.2,0.3-1.8,0.4c-0.6,0.1-1.4,0.3-1.4,0.3c0,0-0.1,0-0.1,0
		L98,62.7L97.7,63c-0.2,0.2-0.4,0.5-0.6,0.7c-0.3,0.4-0.6,0.7-0.9,1.1c0.3,0.1,0.7,0.3,1,0.4C99.4,66.1,101.6,67,103.8,67.9z"/>
	<path class="st2" d="M102.7,70.1c-2-1.1-4-2.3-6-3.4c-0.7,0.9-1.3,1.8-1.7,2.8c-0.5,1.2-0.6,2.4-0.4,3.6c0.3,2.4,1.8,4.4,3.8,5.5
		c2,1.1,4.5,1.1,6.7,0c1.8-1,3.4-2.7,4-5.1c0,0,0,0,0,0C106.7,72.6,104.8,71.2,102.7,70.1z"/>
	<path class="st3" d="M125.3,82.4c-0.1-0.2-0.2-0.2-0.3-0.1l-12.8,7.4l1.5,2.4l2.3-1.5c-0.3-0.9,0.5-1.4,0.8-1.6l9.1-5.3
		c0.1-0.1,0.1-0.2,0.1-0.3L125.3,82.4z"/>
	<path class="st1" d="M117,92.2l-10.8,6.9c0,0,0,0-0.1,0c0,0,0,0-0.1,0c0,0-0.1,0-0.1,0c-0.1,0-0.1,0-0.2,0c0,0,0,0-0.1,0
		c-0.1,0-0.1,0-0.2,0c0,0-0.1,0-0.1,0c-0.1,0-0.2-0.1-0.3-0.1c0,0,0,0-0.1,0c-0.1-0.1-0.1-0.1-0.2-0.2c0,0,0,0,0,0c0,0,0,0,0,0
		c0,0,0,0,0-0.1l-2.6-5.5c-0.6-1.5-1.2-2.8-2.4-3.7l-13.3-8.8c-0.3-0.2-0.8-0.3-1.3-0.4c-0.9-0.1-2.4,0.6-2.9,0.9l-2.5,1.6
		C83.5,85,86.1,88.6,87,93c1.8,0.5,6.9,2.5,8.2,8.3l1.2-1.8c0.4-0.6,1-0.8,1.7-0.8c0.6,0,1.3,0.3,1.6,0.9l3.4,4.9
		c0.4,0.5,1.1,0.7,1.6,0.3l14.4-9.3c0.4-0.3,0.8-0.7,0.9-1.2c0.1-0.5,0-1-0.2-1.4c-0.3-0.5-0.7-0.8-1.3-1
		C117.9,91.9,117.4,91.9,117,92.2z"/>
	<polygon class="st3" points="120,97.3 118,98.6 118.2,99 120.2,97.8 120.1,97.7 120.1,97.6 	"/>
	<path class="st4" d="M27.2,111.6c-1.3,1.9-3.9,2.3-5.8,1c-1.9-1.3-2.3-3.9-1-5.8c0.3-0.4,0.2-1.1-0.2-1.4c-0.4-0.3-1.1-0.2-1.4,0.2
		c-1.9,2.8-1.3,6.6,1.5,8.5c1.1,0.8,2.3,1.1,3.5,1.1c1.9,0,3.8-0.9,5-2.6c0.3-0.4,0.2-1.1-0.2-1.4C28.1,111,27.5,111.1,27.2,111.6z"
		/>
	<path class="st5" d="M43.8,102.1c-0.5,0.1-0.9,0.6-0.8,1.1c0.1,0.5,0.6,0.9,1.1,0.8c2.3-0.4,4.4,1.1,4.8,3.4
		c0.2,1.1-0.1,2.2-0.7,3.1c-0.6,0.9-1.6,1.5-2.7,1.7c-0.5,0.1-0.9,0.6-0.8,1.1c0.1,0.5,0.5,0.8,1,0.8c0.1,0,0.1,0,0.2,0
		c1.6-0.3,3-1.2,4-2.5c0.9-1.3,1.3-3,1-4.6C50.4,103.8,47.2,101.5,43.8,102.1z"/>
	<path class="st5" d="M71.7,92.2c-2-0.9-4.3-0.9-6.3-0.1c-0.5,0.2-0.8,0.8-0.5,1.3c0.2,0.5,0.8,0.7,1.3,0.5c1.6-0.6,3.3-0.6,4.8,0.1
		c1.5,0.7,2.7,1.9,3.4,3.4c0.6,1.5,0.6,3.2-0.1,4.8c-0.7,1.5-1.9,2.7-3.4,3.3c-0.5,0.2-0.8,0.8-0.5,1.3c0.2,0.4,0.5,0.6,0.9,0.6
		c0.1,0,0.2,0,0.4-0.1c2-0.8,3.6-2.4,4.5-4.4c0.9-2,0.9-4.2,0.1-6.3C75.3,94.6,73.8,93,71.7,92.2z"/>
	<path class="st5" d="M127,81.3c-0.6-1-1.9-1.4-3-0.8l-12.9,7.4c-0.4,0.3-0.8,0.7-0.9,1.2c-0.1,0.5-0.1,1,0.2,1.4l1.5,2.5l-5.9,3.7
		l-2.1-4.5c-0.7-1.7-1.4-3.3-3.1-4.5l-13.4-8.9c-0.6-0.3-1.3-0.6-2-0.7c-1.4-0.2-2.9,0.5-4.2,1.2l-3.5,2.3c-2-0.9-4.2-1.4-6.5-1.4
		c-2.3,0-4.6,0.5-6.7,1.5c-3.3-3.2-7.6-4.9-12.2-4.9c-6.7,0-12.8,3.6-15.3,9c0,0,0,0.1,0,0.1c-1.7,0.7-3.2,1.7-4.6,3
		c-1.8-0.8-3.6-1.2-5.6-1.2c-6.5,0-12,4.5-13.2,10.8c-2.5,1.2-4.5,3.2-5.7,5.7c-0.5,1-0.8,2.2-1,3.3C2.9,109.1,0,113,0,117.4
		c0,4.9,3.5,9.1,8.6,10.3l0,0c1.2,0.3,6.4,0.3,6.4,0.3h32.7H91c3.8,0,5.8-1.6,6.7-3c1.5-1.7,2.3-3.8,2.3-6c0-4.1-2.7-7.5-6.4-8.6
		c1.6-2.2,1.9-4.7,1.9-6.1l2.6-3.6l3.4,4.9c0.6,0.9,1.6,1.4,2.6,1.4c0.6,0,1.2-0.2,1.7-0.5l10.6-6.8l0.1,0.3c0.3,0.5,0.7,0.8,1.2,1
		c0.2,0,0.4,0.1,0.5,0.1c0.4,0,0.7-0.1,1.1-0.3l1.9-1.3c0.5-0.3,0.9-0.8,1-1.4c0.1-0.6-0.1-1.1-0.5-1.6l-0.3-0.5
		c0.2-0.3,0.4-0.7,0.5-1.1c0.2-1,0.1-2-0.5-2.9c-0.5-0.9-1.4-1.5-2.4-1.8c-0.1,0-0.1,0-0.2,0l8.1-4.7c1-0.6,1.4-1.9,0.8-3L127,81.3z
		 M47.7,126H15c-0.7,0-5.1-0.1-5.9-0.2l-0.1,0c-4.1-0.9-7-4.4-7-8.3c0-3.8,2.6-7.1,6.4-8.2l0.6-0.2l0.1-0.7c0.1-1.2,0.4-2.3,0.9-3.3
		c1-2.2,2.8-3.9,5.2-5l0.5-0.2l0.1-0.5c0.9-5.6,5.7-9.7,11.3-9.7c1.9,0,3.7,0.4,5.3,1.3l0.7,0.3l0.5-0.5c2.5-2.6,5.8-4,9.3-4
		c7.1,0,12.9,5.8,12.9,12.9c0,0.4,0,0.9-0.1,1.4l-0.1,0.6l0.5,0.3c4,2.4,6.3,6.5,6.3,11.1c0,6.4-4.6,11.8-11,12.7
		C51.1,126,48.2,126,47.7,126z M98.1,119c0,1.8-0.7,3.4-1.9,4.7l-0.1,0.1c-0.9,1.4-2.7,2.2-5.1,2.2H57c4.5-2.6,7.5-7.4,7.5-12.9
		c0-5.1-2.5-9.7-6.8-12.4c0-0.3,0-0.7,0-1c0-8.2-6.7-14.9-14.9-14.9c-1,0-2,0.1-3,0.3c2.5-3.9,7.4-6.4,12.7-6.4
		c4.3,0,8.3,1.7,11.3,4.8l0.5,0.5l0.7-0.3c2-1.1,4.2-1.6,6.5-1.6c6.9,0,12.7,4.9,13.7,11.7l0.1,0.7l0.7,0.1c0.1,0,6.9,1.3,7.6,8.4
		c0,0,0.6,4.2-2.4,7.2l-1.6,1.5l2.2,0.2C95.3,112.4,98.1,115.4,98.1,119z M120.2,97.8l-2,1.3l-0.2-0.4l2-1.3l0.2,0.2L120.2,97.8
		L120.2,97.8z M119.7,93c0.3,0.4,0.4,0.9,0.2,1.4c-0.1,0.5-0.4,0.9-0.9,1.2l-14.4,9.3c-0.5,0.3-1.2,0.2-1.6-0.3l-3.4-4.9
		c-0.4-0.5-1-0.9-1.6-0.9c-0.6,0-1.3,0.3-1.7,0.8l-1.2,1.8c-1.3-5.7-6.4-7.7-8.2-8.3c-0.9-4.4-3.5-8.1-7.1-10.3l2.5-1.6
		c0.5-0.3,1.9-1,2.9-0.9c0.5,0.1,0.9,0.2,1.3,0.4l13.3,8.8c1.2,0.9,1.8,2.1,2.4,3.7l2.6,5.5c0,0,0,0,0,0.1c0,0,0,0,0,0c0,0,0,0,0,0
		c0.1,0.1,0.1,0.1,0.2,0.2c0,0,0,0,0.1,0c0.1,0.1,0.2,0.1,0.3,0.1c0,0,0.1,0,0.1,0c0.1,0,0.1,0,0.2,0c0,0,0,0,0.1,0
		c0.1,0,0.2,0,0.2,0c0,0,0.1,0,0.1,0c0,0,0,0,0.1,0c0,0,0,0,0.1,0l10.8-6.9c0.4-0.3,0.9-0.3,1.4-0.2C119,92.2,119.4,92.5,119.7,93z
		 M125.9,83.7l-9.1,5.3c-0.3,0.2-1.1,0.6-0.8,1.6l-2.3,1.5l-1.5-2.4l12.8-7.4c0.1-0.1,0.2,0,0.3,0.1l0.7,1
		C126.1,83.5,126,83.6,125.9,83.7z"/>
	<path class="st5" d="M96.4,66.5c-1,0.6-1.8,1.4-2.6,2.3c-0.2,0.3-0.5,0.6-0.6,1c-0.2,0.3-0.3,0.7-0.5,1.1c-0.3,0.7-0.4,1.5-0.5,2.3
		c-0.2,3.2,1.7,6.5,4.6,8c1.5,0.8,3.2,1.1,4.8,1c1.7-0.1,3.2-0.7,4.5-1.7c2.2-1.6,3.4-4.4,3.2-6.9c2.1,0.8,4.2,1.4,6.5,1.7
		c0,0,0.1,0,0.1,0c0.1-0.1,0.1-0.2,0-0.2c-1.4-1.4-2.9-2.5-4.4-3.5c0.5-0.7,1-1.4,1.4-2.2c0.1-0.2,0.2-0.5,0.2-0.7
		c0-0.1,0-0.3,0-0.4l0-0.2l-0.1-0.9c-0.1-0.6-0.2-1.2-0.2-1.8c-0.1-0.6-0.2-1.2-0.3-1.8l-0.2-0.9l0-0.2c0-0.1-0.1-0.2-0.1-0.4
		c-0.1-0.2-0.2-0.5-0.3-0.7c-0.5-0.9-1.6-1.5-2.5-1.6l-0.9-0.1c-0.2,0-0.2,0-0.2-0.1c0,0,0,0-0.1-0.1l-0.3-0.3l-0.3-0.3l-0.2-0.2
		c-0.1-0.1-0.2-0.2-0.3-0.2c-0.9-0.6-2-0.8-3-0.5c-0.3,0.1-0.3,0.1-0.5,0.2l-0.4,0.2l-0.8,0.3c-0.6,0.2-1.1,0.5-1.7,0.7
		c-0.6,0.3-1.1,0.5-1.6,0.8l-0.8,0.4c-0.2,0.1-0.8,0.3-1.1,0.8c-0.1,0.1-0.1,0.2-0.2,0.3l-0.1,0.2l-0.1,0.4
		c-0.1,0.3-0.2,0.6-0.3,0.9c-0.1,0.5-0.2,0.9-0.4,1.4c-1.8-0.7-3.6-1.4-5.5-2.1c-0.1,0-0.1,0-0.2,0.1c0,0.1,0,0.2,0,0.2
		C92.4,64.2,94.4,65.3,96.4,66.5z M104.9,78.5c-2.1,1.1-4.6,1.1-6.7,0c-2-1-3.5-3.1-3.8-5.5c-0.2-1.2,0-2.5,0.4-3.6
		c0.4-1,1-1.9,1.7-2.8c2,1.2,4,2.3,6,3.4c2.1,1.1,4,2.5,6.2,3.4c0,0,0,0,0,0C108.3,75.7,106.8,77.5,104.9,78.5z M97.1,63.8
		c0.2-0.2,0.4-0.5,0.6-0.7l0.3-0.4l0.1-0.2c0,0,0.1,0,0.1,0c0,0,0.8-0.1,1.4-0.3c0.6-0.1,1.2-0.3,1.8-0.4c0.6-0.1,1.2-0.3,1.8-0.5
		l1.7-0.5c0.2,0,0.3,0,0.5,0.1l0.5,0.5l0.3,0.3c0.2,0.2,0.4,0.3,0.6,0.5c0.4,0.3,1,0.4,1.5,0.5l0.9,0.1c0.3,0,0.3,0.1,0.5,0.2
		c0,0,0.1,0.1,0.1,0.1c0,0,0,0,0,0.1l0.1,0.2l0.3,0.9c0.2,0.6,0.4,1.1,0.6,1.7c0.2,0.6,0.4,1.1,0.6,1.7l0.3,0.8l0.1,0.2
		c0,0.1,0,0,0,0.1c0,0,0,0.1,0,0.1c-0.2,0.7-0.4,1.5-0.5,2.4c-0.3-0.2-0.6-0.4-0.9-0.5c-2-1.2-4.3-1.9-6.5-2.8
		c-2.2-0.9-4.4-1.8-6.6-2.7c-0.3-0.1-0.7-0.3-1-0.4C96.5,64.5,96.8,64.1,97.1,63.8z"/>
</g>
</svg>
