<?xml version="1.0" encoding="utf-8"?>
<!-- Generator: Adobe Illustrator 23.0.0, SVG Export Plug-In . SVG Version: 6.00 Build 0)  -->
<svg version="1.1" id="Layer_1" xmlns="http://www.w3.org/2000/svg" xmlns:xlink="http://www.w3.org/1999/xlink" x="0px" y="0px"
	 viewBox="0 0 128 128" style="enable-background:new 0 0 128 128;" xml:space="preserve">
<style type="text/css">
	.st0{fill:#685D56;}
	.st1{fill:#2D2D2D;}
	.st2{fill:#D3B48C;}
	.st3{fill:#98502B;}
	.st4{fill:#665042;}
	.st5{fill:#938476;}
	.st6{fill:#AF8F74;}
	.st7{fill:#F2F2F2;}
	.st8{fill:#3F3F3F;}
	.st9{fill:#D6C2B4;}
	.st10{fill:#7F736A;}
</style>
<g>
	<path class="st0" d="M112.5,10.8L112.5,10.8C112.6,10.8,112.6,10.8,112.5,10.8c0.4,1.1,0.8,2.1,1,3.2c0.4-0.5,0.6-1,0.7-1.6
		c0-0.4,0.1-0.8,0-1.1c0-0.3-0.1-0.7-0.3-1c-0.2-0.3-0.4-0.7-0.6-1.1L113.2,9c0-0.1-0.1-0.1-0.1-0.2c-0.1-0.1-0.2-0.3-0.4-0.4
		c-0.3-0.2-0.6-0.4-0.7-0.3c-0.3,0.1-0.6,0.2-0.9,0.3C111.7,9.1,112.2,9.9,112.5,10.8C112.5,10.8,112.5,10.8,112.5,10.8z"/>
	<path class="st1" d="M112.5,10.8C112.5,10.8,112.5,10.8,112.5,10.8C112.6,10.8,112.6,10.8,112.5,10.8L112.5,10.8z"/>
	<path class="st2" d="M84.5,66.5C84.5,66.5,84.5,66.5,84.5,66.5L84.5,66.5C84.5,66.5,84.5,66.5,84.5,66.5
		C84.5,66.5,84.5,66.5,84.5,66.5z"/>
	<path class="st3" d="M87.4,21.3c0,1.6,1.3,2.9,3,2.9c1.7,0,3-1.3,3-2.9c0-1.6-1.3-2.9-3-2.9C88.7,18.4,87.4,19.7,87.4,21.3z
		 M92.6,21.3c0,1.2-1,2.1-2.2,2.1c-1.2,0-2.2-0.9-2.2-2.1c0-1.2,1-2.1,2.2-2.1C91.6,19.2,92.6,20.2,92.6,21.3z"/>
	<path class="st4" d="M96.3,61.7c-1.2-0.3-2.3-0.5-3.5-0.7c-1.2-0.2-2.4-0.4-3.6-0.5c-1.2-0.1-2.4-0.3-3.6-0.3
		c-0.9,0-1.8,0.1-2.7,0.3c0.5,0.5,1,1,1.5,1.5c0.5,0.7,1,1.4,1.4,2.2c0.2,0.4,0.4,0.8,0.5,1.2l0.1,0.3l0,0.2l0,0.1l0,0.1
		c0.1,0.4,0,0.8-0.2,1.2c-0.4,0.7-1.2,1.2-2,1l-0.6-0.1L83,68.2c-0.7-0.1-1.5-0.2-2.3-0.2c-0.8,0-1.6-0.1-2.4-0.2
		c-0.4-0.1-0.9-0.1-1.3-0.3c-0.4-0.1-0.9-0.3-1.3-0.5c-1.5-0.8-2.8-1.8-4.1-2.6c-1.3-0.8-2.7-1.5-4.2-1.7c-1.1-0.2-2.3-0.3-3.4-0.5
		c0.1,0.1,0.2,0.2,0.3,0.4c0.5,0.8,0.5,1.9,0,2.6c-0.2,0.4-0.6,0.7-0.9,1c-0.2,0.1-0.4,0.2-0.6,0.3l-0.4,0.1l-1.7,0.6
		c-0.6,0.2-1.4,0.4-2.1,0.3c-0.7-0.1-1.4-0.3-2-0.7c-0.5-0.4-1-0.7-1.5-1c-1-0.6-2-1.2-3-1.7c-0.5-0.2-1.1-0.4-1.6-0.5
		c-0.6-0.1-1.1-0.1-1.7-0.1c-2.4-0.1-4.8-0.2-7.1-0.6c-1.2-0.2-2.3-0.5-3.5-0.9c-1.1-0.4-2.3-0.8-3.4-1.4c-0.1-0.1-0.3-0.2-0.4-0.3
		c-0.2-0.1-0.4-0.3-0.5-0.5c-0.1,0-0.1,0-0.2,0c-1.8,2.1-3.3,4.4-4.3,6.9c-0.6,1.3-1,2.7-1.3,4.1c1.3-0.2,2.6-0.3,3.9-0.4
		c1.4-0.1,2.9-0.2,4.3-0.3c2.9-0.1,5.8-0.2,8.7-0.3c2.9,0,5.8,0,8.8,0.2c0.4,0,0.7,0.1,1.1,0.1l0.6,0.1l0.6,0.1l0.6,0.1l0.5,0.1
		l1,0.3c1.4,0.3,2.8,0.7,4.2,1c2.8,0.6,5.6,1.2,8.5,1.5c1.4,0.2,2.9,0.2,4.3,0.2c1.4,0,2.8-0.3,4.3-0.6c5.7-1,11.4-2.3,17-3.5
		c2.8-0.6,5.7-1.3,8.5-1.8c2.9-0.5,5.7-1.2,8.7-1.4c1.5-0.1,2.9-0.2,4.4-0.2l0.5,0l0.5,0c0.3,0,0.6-0.1,1-0.1
		c0.6-0.1,1.2-0.3,1.8-0.6c1.1-0.6,2.1-1.5,2.8-2.5c0.7-1.1,1.1-2.3,1.2-3.6l0-0.5c0-0.1,0-0.2,0-0.4c0-0.2-0.1-0.5-0.2-0.7
		c-0.2-0.4-0.6-0.7-1.1-0.9c-0.1,0-0.2-0.1-0.4-0.1l-0.2,0l-0.3,0l-1.1,0l-2.2,0l-8.7,0c-2.9,0-5.8,0-8.7,0c-1.4,0-2.9,0-4.3,0.1
		c-0.7,0-1.4,0.1-2.2,0.1c-0.5,0-1,0.1-1.4,0.1c0.1,0.1,0.2,0.3,0.3,0.4c0.7,0.9,1.3,1.9,1.8,3l0,0C97.7,61.1,97,61.9,96.3,61.7z"/>
	<path class="st3" d="M102.7,24.2c1.7,0,3-1.3,3-2.9c0-1.6-1.3-2.9-3-2.9c-1.7,0-3,1.3-3,2.9C99.7,22.9,101.1,24.2,102.7,24.2z
		 M102.7,19.2c1.2,0,2.2,0.9,2.2,2.1c0,1.2-1,2.1-2.2,2.1c-1.2,0-2.2-0.9-2.2-2.1C100.5,20.2,101.5,19.2,102.7,19.2z"/>
	<path class="st2" d="M2,75.1L2,75.1C2,75.1,2,75.1,2,75.1z"/>
	<path class="st4" d="M1.6,69.8c0.1,1.5,0.2,2.9,0.3,4.3c0,0,0,0.1,0,0.1l1.9-0.5c1.4-0.3,2.8-0.6,4.3-0.9c2.7-0.5,5.5-1,8.3-1.4
		c0-0.6-0.1-1.2-0.1-1.8c-0.2-3-0.2-6-0.1-9c-0.1-0.7-0.1-1.4-0.2-2.1c-1.3,0-2.5,0-3.8,0c-1.3-0.1-2.6-0.2-3.9-0.3
		c-1.3-0.1-2.6-0.2-3.9-0.4c-0.6-0.1-1.3-0.2-1.9-0.3l-1-0.2l-0.4-0.1C1.1,58.5,1.1,59.8,1,61c0,1.5,0,2.9,0.2,4.4
		C1.3,66.8,1.5,68.3,1.6,69.8z"/>
	<path class="st5" d="M80.3,10.7c-1,1.9-1.2,4.2-1.2,6.3c0,2.2,0.4,4.4,1,6.5c0.3,1,0.7,2.1,1.3,2.9c0.7,0.9,1.4,1.7,2.1,2.5
		c0.8,0.8,1.6,1.5,2.4,2.1c0.4,0.3,0.9,0.6,1.3,0.9c0.4,0.3,1,0.5,1.4,0.7h0l0.2,0.1l0.1,0.1c0.9,1,2,2,3.2,2.6
		c1.2,0.7,2.6,1.1,4,1.2c1.4,0.1,2.7-0.2,4-0.9c1.2-0.7,2.3-1.7,3-2.8l0,0l0.2-0.2l0.3,0c0.4,0,1-0.2,1.4-0.4
		c0.5-0.2,0.9-0.5,1.4-0.7c0.9-0.6,1.7-1.3,2.5-2.1c0.7-0.8,1.4-1.7,2-2.6c0.6-0.9,1.1-1.9,1.5-2.9c0.8-2,1-4.3,0.9-6.4
		c-0.1-2.2-0.6-4.4-1.4-6.4l0,0c-0.6-1.4-1.6-2.7-2.7-3.7c-1.1-1.1-2.4-1.9-3.8-2.6c-1.4-0.7-2.9-1.1-4.4-1.4
		c-1.5-0.3-3.1-0.3-4.7-0.3c-3.1,0-6.3,0.3-9.3,1.4c-1.4,0.6-2.8,1.3-3.9,2.4C81.9,8,81,9.3,80.3,10.7z M95.5,12.4
		c0.1-1.1,0.2-2.1,0.4-3.2C96,8.1,96.2,7,96.4,6c0-0.1,0.1-0.1,0.2-0.1c0.1,0,0.1,0.1,0.1,0.1C96.8,7,97,8.1,97.1,9.2
		c0.1,1.1,0.3,2.1,0.4,3.2c0.1,1.1,0.4,2.1,0.3,3.2c-0.2,1.1-0.4,2.1-1.1,3.2c0,0.1-0.1,0.1-0.2,0c0,0,0,0,0,0
		c-0.7-1.1-1-2.1-1.1-3.2C95.1,14.5,95.4,13.5,95.5,12.4z M94.3,21.3c0,0.2,0,0.3,0,0.5c0.3,0.4,0.5,0.9,0.7,1.4
		c0.2,0.6,0.3,1.2,0.4,1.8c0.1,0.6,0.1,1.2,0,1.9c0,0.2,0,0.4-0.1,0.7c0.4-0.1,0.8-0.1,1.3-0.1c0.5,0,0.9,0.1,1.3,0.1
		c0-0.2-0.1-0.4-0.1-0.7c0-0.6,0-1.3,0-1.9c0.1-0.6,0.2-1.2,0.4-1.8c0.2-0.5,0.4-1,0.7-1.4c0-0.2,0-0.3,0-0.5c0-2.1,1.7-3.7,3.9-3.7
		c2.1,0,3.9,1.7,3.9,3.7c0,2.1-1.7,3.7-3.9,3.7c-1.9,0-3.5-1.3-3.8-3.1c-0.2,0.4-0.3,0.9-0.4,1.4c-0.1,0.6-0.1,1.2-0.1,1.7
		c0,0.6,0.1,1.2,0.3,1.7c0.1,0.5,0.3,1,0.5,1.4c0.2,0.2,0.4,0.4,0.4,0.7c0,0.7-1.1,0.8-2.5,1.2c-0.3,0.1-0.7,0.1-1,0
		c-1.3-0.4-2.5-0.5-2.5-1.2c0-0.2,0.1-0.5,0.4-0.6c0.2-0.4,0.3-0.9,0.5-1.4c0.1-0.6,0.2-1.1,0.3-1.7c0-0.6,0-1.2-0.1-1.7
		c-0.1-0.5-0.2-0.9-0.4-1.4c-0.3,1.8-1.9,3.1-3.8,3.1c-2.1,0-3.9-1.7-3.9-3.7c0-2.1,1.7-3.7,3.9-3.7C92.5,17.6,94.3,19.3,94.3,21.3z
		 M100.1,31.2c-0.4,0.5-1,0.8-1.6,1.1c-0.6,0.2-1.3,0.4-1.9,0.4c-0.7,0-1.3-0.1-2-0.3c-0.6-0.2-1.2-0.6-1.6-1.1
		c0.7,0,1.2,0.2,1.8,0.2c0.6,0,1.1,0.1,1.7,0C97.7,31.4,98.8,31.3,100.1,31.2z M84.9,11.1c0.3-0.7,0.7-1.4,1.2-2
		c0.5-0.6,1.1-1,1.7-1.5c1.3-0.8,2.7-1.4,4.2-1.5l0,0c0,0,0.1,0,0.1,0.1c0,0,0,0,0,0.1c-1.1,1.1-2.1,2-3.1,2.9
		c-0.5,0.5-1,0.9-1.5,1.4c-0.5,0.4-1.1,0.8-1.6,1.3c-0.5,0.5-1,1-1.3,1.6c-0.3,0.6-0.5,1.3-0.6,2c-0.1,0.7,0,1.4,0.1,2
		c0.1,0.7,0.3,1.3,0.5,2l0.1,0.3L84.5,20c-0.3,0.7-0.4,1.4-0.4,2.1c0,0.7,0.2,1.4,0.5,2.1c0.2,0.6,0.6,1.2,1,1.7
		c0.1,0.2,0.3,0.3,0.4,0.5c0.6,0.6,1.3,1.1,2.1,1.5c0.7,0.4,1.6,0.7,2.3,0.8l0.4,0.1l0.1,0.5c0.3,1.3,0.9,2.6,1.9,3.4
		c1,0.8,2.4,1.2,3.7,1.1c1.3,0,2.6-0.5,3.6-1.4c0.9-0.9,1.5-2.3,1.8-3.5l0.1-0.4l0.4-0.1c0.7-0.1,1.4-0.4,2.1-0.7
		c0.7-0.3,1.3-0.7,1.9-1.1c0.1-0.1,0.2-0.2,0.3-0.3c0.5-0.6,0.9-1.3,1.2-2c0.3-0.7,0.4-1.4,0.5-2.1c0-0.7-0.1-1.5-0.4-2.1l-0.1-0.3
		l0.1-0.3c0.4-1.3,0.6-2.6,0.5-4c-0.1-0.7-0.3-1.3-0.6-1.9c-0.3-0.6-0.8-1.1-1.3-1.6c-0.5-0.5-1-0.9-1.5-1.3l-1.5-1.4
		c-1-0.9-2.1-1.8-3.1-2.9c0,0,0-0.1,0-0.1c0,0,0,0,0.1,0l0,0c1.5,0.1,2.9,0.7,4.2,1.5c0.6,0.4,1.2,0.9,1.8,1.4
		c0.5,0.6,0.9,1.2,1.3,1.9c0.7,1.4,1.2,2.8,1.6,4.2c0.4,1.4,0.4,2.8,0.1,4.2c0.4,0.8,0.6,1.7,0.6,2.6c0,1-0.3,2-0.8,2.8
		c-0.7,1.2-1.7,2.1-2.9,2.6c-0.5,0.3-0.9,0.6-1.4,0.9c-0.6,0.3-1.3,0.6-1.9,0.8c-0.1,0.7-0.3,1.3-0.6,1.9c-0.3,0.7-0.8,1.4-1.4,2
		c-1.1,1.2-2.8,1.8-4.4,1.8c-1.6,0.1-3.3-0.3-4.5-1.4c-0.6-0.5-1.2-1.2-1.5-1.9c-0.3-0.6-0.6-1.2-0.7-1.9c-0.8-0.2-1.6-0.5-2.3-1
		c-0.7-0.4-1.2-0.9-1.8-1.5c-1.1-0.5-2-1.4-2.6-2.5c-0.5-0.8-0.8-1.8-0.8-2.8c0-0.9,0.2-1.8,0.6-2.6c-0.1-0.7-0.2-1.3-0.2-2
		c0-0.8,0.2-1.5,0.4-2.2C83.8,13.9,84.3,12.5,84.9,11.1z"/>
	<path class="st0" d="M79.8,8.1c0,0-0.1,0-0.1,0c0,0,0,0,0,0c0,0-0.1,0-0.1,0c-0.1,0.1-0.3,0.1-0.4,0.3c-0.1,0.1-0.3,0.2-0.4,0.4
		c-0.1,0.1-0.1,0.1-0.2,0.2C78.5,9,78.5,9,78.4,9.2c-0.3,0.4-0.5,0.7-0.6,1.1c-0.2,0.3-0.3,0.7-0.3,1c0,0.3,0,0.8,0,1.1
		c0.1,0.7,0.3,1.3,0.9,1.9c0.2-1.4,0.5-2.7,1.2-3.9c0.3-0.6,0.7-1.2,1.1-1.8C80.4,8.3,80.1,8.2,79.8,8.1z"/>
	<path class="st6" d="M96.6,5.1c0,0,3.6-0.3,7.8,3.7c2.8,3.2,3.2,3.6,3.2,3.6s-6.6,5.1-10.1,3.5c-0.7-1.2-0.9-8.4-0.9-8.4L96.6,5.1z
		"/>
	<path class="st6" d="M96.6,5.1c0,0-4-0.3-8.3,3.6c-2.8,3.2-3.2,3.6-3.2,3.6s6.6,5.1,10.1,3.5c0.7-1.2,1.3-8.4,1.3-8.4L96.6,5.1z"/>
	<polygon class="st2" points="88.2,33.8 88.2,33.8 88.2,33.8 	"/>
	<path class="st7" d="M86.8,10.3c-0.5,0.4,6,7.2,9.8,3.9c3.8,3.5,9.1-3.9,9.1-3.9s3.1,1.7,3.2,5.2c0.1,3.5-0.2,3.8-0.4,3.9
		s0.7,5.4-1.2,6.8c-2,1.4-4.7,2.5-4.7,2.5s-0.5,5.5-6.3,5.5S90.6,29,90.6,29s-4.9-0.4-6.9-5.1c-0.3-2.4-0.2-3.5-0.2-6.5
		C83.4,12.7,86.8,10.3,86.8,10.3z"/>
	<path class="st5" d="M22.8,96c2.1,5.6,4.9,11,8.5,15.6c3.6,4.7,8.2,8.6,13.5,11.3c5.3,2.7,11.2,4,17.2,4.2c6,0.2,12.1-0.2,18-1.2
		c5.9-1.1,11.7-3.1,16.8-6.2c2.6-1.6,8-5.9,10.3-7.9c2.3-2,4.4-4.1,6.7-6.1l1.7-1.5c0.5-0.5,0.8-1,1-1.7c0.3-1.3-0.1-2.7-1.1-3.5
		c-0.9-0.9-2.4-1.1-3.5-0.7c-0.6,0.2-1.1,0.6-1.5,1.1c-0.5,0.6-1,1.2-1.5,1.7c-4,4.6-12.1,10.9-17.7,13.6
		c-5.5,2.7-11.5,4.4-17.6,5.3c-3,0.4-6.1,0.7-9.1,0.7c-1.5,0.1-3.1,0-4.7-0.2c-1.6-0.2-3.1-0.5-4.6-1c-3-1-5.8-2.4-8.3-4.3
		c-2.5-1.8-4.7-4-6.7-6.4c-4-4.7-6.9-10.2-9.2-15.9c-2.2-5.7-3.8-11.7-4.1-17.8c0-0.8,0-1.5,0-2.3c0.1-0.8,0.2-1.5,0.3-2.3
		c0.3-1.5,0.9-3,1.5-4.3c1.3-2.6,2.9-4.9,4.9-6.9c-0.1-0.2-0.2-0.4-0.2-0.6c-0.2-0.8,0-1.5,0.3-2c0.5-1.2,1.3-2.1,2.1-2.9
		c0,0,0.1,0,0.1,0c0,0,0,0.1,0,0.1l0,0c-0.6,1-1.1,2.1-1.3,3.1c-0.1,0.5-0.1,1,0,1.4c0.1,0.4,0.4,0.6,0.8,0.8c0.5,0.2,1,0.4,1.5,0.6
		c0.5,0.2,1.1,0.4,1.6,0.5l3.3,0.9c2.2,0.6,4.5,1.4,6.8,1.5l0.9,0c0.3,0,0.6,0.1,0.9,0.1c0.6,0.1,1.2,0.3,1.7,0.5
		c1.1,0.4,2.2,0.8,3.3,1.3c0.5,0.2,1.1,0.5,1.6,0.8c0.4,0.2,0.9,0.3,1.4,0.3c0.5,0,0.9-0.1,1.4-0.3l1.6-0.7l0.4-0.2
		c0.1-0.1,0.1-0.1,0.2-0.1c0.1-0.1,0.2-0.2,0.3-0.3c0.1-0.2,0.1-0.5,0-0.7c0-0.1-0.3-0.3-0.5-0.5c-0.2-0.2-0.4-0.4-0.6-0.6L61,62
		c-0.2-0.2-0.4-0.4-0.6-0.5c-1.7-1.4-3.6-2.6-5.7-3.3c-0.3-0.1-0.5-0.2-0.8-0.2c-0.3-0.1-0.5-0.2-0.8-0.2c-0.6-0.1-1.1-0.2-1.7-0.3
		c-0.6-0.1-1.1-0.1-1.7-0.1c-0.6,0-1.2,0-1.8,0l0,0c0,0-0.1,0-0.1-0.1c0,0,0,0,0,0c0,0,0-0.1,0-0.1c0.4-1.1,0.9-2.1,1.3-3.1
		c0.4-1,0.8-2,1.2-3.1c0.3-1,0.7-2.1,0.9-3.1c0.1-0.5,0.2-1,0.3-1.5c0-0.5,0.2-1,0.2-1.5c0.2-2.1,0-4.2-0.4-6.3
		c-0.5-2.1-1.2-4.1-2.3-5.9c-1.1-1.9-2.7-3.5-4.6-4.5c-0.5-0.2-1-0.5-1.5-0.6c-0.5-0.2-1-0.3-1.5-0.3c-1-0.1-2.1,0-3.1,0.2
		c-2,0.4-3.9,1.3-5.7,2.5c-1.8,1.2-3.5,2.6-5.1,4.1l0,0c0,0-0.1,0-0.1,0c0,0,0-0.1,0-0.1c1.1-2,2.6-3.7,4.4-5.1
		c0.9-0.7,1.9-1.3,2.9-1.8c1.1-0.5,2.2-0.9,3.4-1c1.2-0.1,2.4,0,3.5,0.4c0.6,0.2,1.1,0.4,1.6,0.6c0.5,0.3,1,0.6,1.5,0.8
		c1.9,1.2,3.7,2.6,5.2,4.4c1.5,1.8,2.6,3.9,3.2,6.1c0.7,2.2,0.9,4.6,0.7,6.9c0,0.6-0.2,1.2-0.3,1.7c-0.2,0.6-0.3,1.2-0.5,1.7
		c-0.4,1.1-0.8,2.1-1.3,3.1c-1,2-2.2,3.8-3.5,5.5c1.4-0.4,2.9-0.6,4.4-0.6c0.4-0.3,0.9-0.6,1.3-0.7c0.6-0.3,1.2-0.1,1.8-0.2
		c0.6-0.1,1.2-0.2,1.8-0.4c0.2-0.1,0.5-0.1,0.7-0.2c-0.5-1.2-1-2.3-1.5-3.5c-0.5-1.4-0.8-2.9-1.1-4.3c-0.2-0.7-0.2-1.5-0.3-2.2
		c-0.1-0.8-0.1-1.5,0-2.3c0-1.5,0.2-3,0.6-4.5c0.4-1.4,0.8-2.9,1.5-4.3c0.7-1.4,1.7-2.5,2.8-3.6c1.1-1,2.3-2,3.6-2.6
		c0,0,0.1,0,0.1,0c0,0,0,0.1,0,0.1l0,0C63,28.9,62,30,61.2,31.1c-0.9,1.1-1.7,2.3-2.6,3.4c-0.9,1.1-1.8,2.3-2.3,3.6
		c-0.5,1.4-0.5,2.8-0.2,4.2c0.3,1.4,0.7,2.8,1.1,4.2c0.4,1.4,0.9,2.7,1.3,4.1c0.8,2.8,1.6,5.6,2.2,8.5c0,0,0,0,0,0.1
		c0.3,0.2,0.6,0.4,0.8,0.6c0.5,0.4,0.9,0.8,1.4,1.2c0.2,0.2,0.4,0.4,0.6,0.7c1.3,0,2.6-0.1,3.9-0.1c0.9,0,1.7,0.2,2.5,0.4
		c0.8,0.2,1.6,0.6,2.3,0.9c1.5,0.7,2.9,1.6,4.2,2.2c1.2,0.6,2.7,0.5,4.3,0.7c0.8,0.1,1.6,0.1,2.5,0.2l0.6,0.1l0.6,0.1l0,0l0-0.1
		L84.4,66c-0.1-0.3-0.2-0.7-0.4-1c-0.3-0.7-0.7-1.3-1.1-1.9c-0.2-0.3-0.5-0.6-0.7-0.9c-0.3-0.3-0.5-0.6-0.8-0.8
		c-0.5-0.6-1.1-1-1.7-1.5c-1.2-0.9-2.6-1.7-4-2.1c-0.7-0.1-1.4,0-2.1,0c-0.7,0-1.5-0.1-2.2-0.3c-0.7-0.3-1.4-0.7-1.9-1.2
		c-0.3-0.3-0.5-0.5-0.7-0.8c-0.2-0.3-0.4-0.6-0.6-1c-0.7-1.4-0.5-3.2,0.1-4.6c0.6-1.4,1.5-2.7,2.6-3.7c1.1-1.1,2.3-2,3.7-2.6
		c0.2-0.1,0.3-0.2,0.4-0.2l0.4-0.2c0.2-0.2,0.5-0.4,0.7-0.6c0.5-0.5,0.9-1,1.3-1.5c1.6-2.2,2.7-4.9,3.6-7.6l0,0c0,0,0.1-0.1,0.1-0.1
		c0,0,0.1,0.1,0.1,0.1c-0.1,1.5-0.4,2.9-0.8,4.3c-0.4,1.4-1,2.8-1.8,4.1c-0.4,0.6-0.9,1.3-1.4,1.8c-0.3,0.3-0.6,0.5-0.9,0.8
		l-0.5,0.3c-0.2,0.1-0.4,0.2-0.5,0.3c-1.2,0.7-2.3,1.5-3.3,2.4c-1,0.9-1.9,1.9-2.6,3.1c-0.7,1.1-1,2.5-0.5,3.7
		c0.2,0.6,0.7,1.2,1.1,1.7c0.5,0.5,1,0.9,1.7,1.1c0.6,0.2,1.3,0.3,2,0.2c0.7,0,1.4-0.2,2.2-0.2h0l0,0c1.7,0.2,3.3,0.9,4.7,1.8
		c0.7,0.4,1.4,0.9,2,1.5c0.9-0.4,1.9-0.7,2.9-0.9c1.2-0.2,2.5-0.2,3.7-0.2c1.8,0,3.6,0.1,5.3,0.4c-0.8-1.2-1.7-2.3-2.7-3.2
		c-0.8-0.6-1.6-1.1-2.5-1.3c-0.5-0.1-0.9-0.1-1.4-0.1c-0.5,0-1,0.1-1.5,0.2c-1,0.2-2.1,0.5-3.2,0.7c-0.6,0.1-1.1,0.2-1.8,0.2
		c-0.2,0-0.3,0-0.5-0.1c-0.1,0-0.2-0.1-0.3-0.1c-0.1-0.1-0.2-0.2-0.3-0.2c-0.2-0.3-0.3-0.7-0.3-1c-0.1-1.2,0.1-2.3,0.4-3.4
		c0.3-1.1,0.8-2.2,1.5-3.1c0.8-0.9,1.7-1.6,2.6-2.2c0.9-0.7,1.9-1.3,2.8-1.8c1-0.6,1.9-1.1,2.9-1.6c0.9-0.5,2-1,3-1.5
		c2-0.9,4.1-1.6,5.9-2.7c0.9-0.5,1.7-1.2,2.3-2c-0.2,0.2-0.5,0.3-0.7,0.5c-1.4,0.8-3,1.2-4.6,1.1c-1.6-0.1-3.1-0.5-4.5-1.3
		c-1.3-0.7-2.5-1.6-3.5-2.8c-0.5-0.2-1-0.5-1.4-0.8c-0.5-0.3-1-0.6-1.4-1c-0.9-0.7-1.7-1.5-2.5-2.3c-0.8-0.8-1.5-1.7-2.2-2.7
		c-0.7-1-1.1-2.1-1.4-3.2c-0.6-2.2-0.9-4.5-0.9-6.8c0-0.9,0.1-1.7,0.2-2.6c-0.8-0.2-1.6-0.9-1.8-1.8c-0.1-0.2-0.2-0.5-0.2-0.7
		c0-0.2-0.1-0.5-0.1-0.8c0-0.5,0.2-1.1,0.4-1.5c0.2-0.4,0.5-0.9,0.7-1.2c0,0,0.1-0.2,0.2-0.3c0.1-0.1,0.2-0.2,0.3-0.3
		c0.2-0.2,0.4-0.3,0.6-0.5c0.2-0.1,0.5-0.3,0.8-0.3c0.2,0,0.3,0,0.5,0c0.1,0,0.2,0.1,0.3,0.1c0.1,0,0.1,0.1,0.2,0.1
		c0.3,0.3,0.5,0.5,0.6,0.8c0.5-0.7,1-1.3,1.6-1.9c0.2-0.2,0.5-0.4,0.8-0.7c-1.2-0.6-2.5-1.1-3.8-1.4C78.7,4,78,3.8,77.3,3.6
		c-0.7-0.2-1.5-0.4-2.2-0.5c-0.7-0.2-1.5-0.3-2.2-0.4c-0.7-0.1-1.5-0.2-2.2-0.3l-2.3-0.3C67.5,2,66.8,1.9,66,1.9
		c-0.8-0.1-1.5-0.1-2.3-0.2l-1.1-0.1c-0.4,0-0.8,0-1.1-0.1c-1.5-0.1-3-0.2-4.6-0.1c-1.5,0.1-3,0.2-4.5,0.4c-1.5,0.2-3,0.6-4.5,1
		c-1.5,0.4-2.9,0.9-4.3,1.6c-1.4,0.6-2.8,1.3-4.1,2.1c-2.6,1.6-5,3.5-7.2,5.6c-4.3,4.3-7.6,9.5-9.7,15.1l0,0l0,0.1
		c-0.5,1.2-1,2.6-1.4,4c-0.4,1.4-0.7,2.8-1.1,4.2c-0.7,2.8-1.3,5.7-1.8,8.5c-0.5,2.9-1,5.7-1.3,8.6c-0.3,2.9-0.6,5.8-0.6,8.7
		c0,0,0,0.1,0,0.1c0.1,5.8,0.8,11.5,1.7,17.2C19.2,84.5,20.8,90.4,22.8,96z"/>
	<path class="st1" d="M88.2,21.3c0,1.2,1,2.1,2.2,2.1c1.2,0,2.2-0.9,2.2-2.1c0-1.2-1-2.1-2.2-2.1C89.2,19.2,88.2,20.2,88.2,21.3z"/>
	<path class="st1" d="M102.7,23.4c1.2,0,2.2-0.9,2.2-2.1c0-1.2-1-2.1-2.2-2.1c-1.2,0-2.2,0.9-2.2,2.1
		C100.5,22.5,101.5,23.4,102.7,23.4z"/>
	<path class="st1" d="M86.5,21.3c0,2.1,1.7,3.7,3.9,3.7c1.9,0,3.5-1.4,3.8-3.1c0.2,0.5,0.3,0.9,0.4,1.4c0.1,0.6,0.1,1.2,0.1,1.7
		c0,0.6-0.1,1.2-0.3,1.7c-0.1,0.5-0.3,1-0.5,1.4c-0.2,0.2-0.4,0.4-0.4,0.6c0,0.7,1.2,0.8,2.5,1.2c0.3,0.1,0.7,0.1,1,0
		c1.4-0.4,2.5-0.5,2.5-1.2c0-0.2-0.1-0.5-0.4-0.7c-0.2-0.4-0.3-0.9-0.5-1.4c-0.1-0.6-0.2-1.1-0.3-1.7c0-0.6,0-1.2,0.1-1.7
		c0.1-0.5,0.2-0.9,0.4-1.4c0.3,1.8,1.9,3.1,3.8,3.1c2.1,0,3.9-1.7,3.9-3.7c0-2.1-1.7-3.7-3.9-3.7c-2.1,0-3.9,1.7-3.9,3.7
		c0,0.2,0,0.4,0,0.5c-0.3,0.4-0.5,0.9-0.7,1.4c-0.2,0.6-0.3,1.2-0.4,1.8c-0.1,0.6-0.1,1.2,0,1.9c0,0.2,0,0.4,0.1,0.7
		c-0.4-0.1-0.8-0.1-1.3-0.1c-0.5,0-0.9,0.1-1.3,0.1c0-0.2,0.1-0.4,0.1-0.7c0-0.6,0-1.3,0-1.9c-0.1-0.6-0.2-1.2-0.4-1.8
		c-0.2-0.5-0.4-1-0.7-1.4c0-0.2,0-0.3,0-0.5c0-2.1-1.7-3.7-3.9-3.7C88.2,17.6,86.5,19.3,86.5,21.3z M102.7,18.4c1.7,0,3,1.3,3,2.9
		c0,1.6-1.3,2.9-3,2.9c-1.7,0-3-1.3-3-2.9C99.7,19.7,101.1,18.4,102.7,18.4z M93.4,21.3c0,1.6-1.3,2.9-3,2.9c-1.7,0-3-1.3-3-2.9
		c0-1.6,1.3-2.9,3-2.9C92,18.4,93.4,19.7,93.4,21.3z"/>
	<path class="st0" d="M60.4,57.3c0,0,10.9,2,9.5-1.2c0.8,1.1,3,1.8,5.8,1.4c2.1,0.8,5.2,1.8,7.1,4c1.8,2.2,2.4,5.9,2.4,5.9
		s-6.4,0.1-8.5-1.2c-2.1-1.3-5.2-3.5-7.3-3.9s-6-0.3-6.4-0.2c-0.4,0.1-2.3-2.2-2.3-2.2s-0.1-1.3-0.2-1.7S60.4,57.3,60.4,57.3z"/>
	<path class="st0" d="M80.3,55.1c-0.2,0.1-4.5,2.9-7.8,2.3c4,0.2,4.3-0.1,5.8,1.1c1.5,1.2,3.6,2.4,3.6,2.4s1-1.4,4.9-1.2
		c3.9,0.2,9.5,0.8,9.3,0.7c-0.2-0.1-3.8-6.6-6.8-6.6c-3,0-6.4,1.6-7.5,1.8S80.3,55.1,80.3,55.1z"/>
	<path class="st0" d="M35.3,55.5c-0.1,0.5,2.7,4.4,13.1,0.3c-0.5,1.1-0.6,1.3-0.6,1.3s4.2-0.4,6.5,0.2c2.3,0.6,8.2,3.7,9.6,6.8
		c-0.4,0.9-3.9,3-5.1,2.8s-5.4-2.8-6.7-3.1c-1.3-0.2-3.9-0.9-7.2-1s-9.1-2.2-9.9-2.9s-1.2-2.5-0.6-3.2C34.9,56,35.3,55.5,35.3,55.5z
		"/>
	<path class="st8" d="M59.6,119.7c2.3,0.5,10.5,4.5-1.2,7.6c9.6,0.5,22.8,0.1,36.3-6c7.7-4.5,20.3-15.6,21.4-16.7
		c0.5-0.5,1.7-4.1-0.1-6c-1.8-1.9-4.7-1.3-5.5-0.5c-0.5,0.5-6.8,8.1-10.5,10.1c-3.7,2-11.8,9.5-19.6,9.9
		C70.6,120.5,59.6,119.7,59.6,119.7z"/>
	<path class="st9" d="M29.2,66.2c0,0-1.4-5.5,1.2-10.6c1.8-3.6,4.1-4.6,5.2-4.9c0.3-0.1,0.5,0.2,0.4,0.5c-0.4,0.7-0.8,1.9-0.2,2.9
		c-1.2,2.4-2.3,4-1.7,4.7c-0.4,0.8-3.5,4.9-4,5.8C29.6,65.6,29.2,66.2,29.2,66.2z"/>
	<path class="st9" d="M81,33.3c0,0,0.2-0.7,0.3-1.8c0.1-1.3,1.6-1.9,2.6-1c1.5,1.4,2.8,2.4,4.1,2.8c0.3,0.1,0.5,0.3,0.7,0.5
		c1.3,1.5,4.2,3.4,7.3,3.4c3.4,0,5.6-0.9,6.1-2c-1.3,2.5-4.6,4.8-9.1,6.8c-4.4,2-7.3,4.4-9.2,4.8c-1.5,0.3-2.2,1.2-4.1,1.4
		c-0.9,0.1-4.2,0.5-4.3-0.4c-0.1-2,2.1-4.8,2.2-5.8c0-0.2,0.1-0.4,0.2-0.6C79.6,38.7,81,33.3,81,33.3z"/>
	<path class="st9" d="M50.9,50.8c0,0,3.1,1.6,5.9-1.6c1.3,2.1,2.6,5.7,2.2,5.8s-6.8,2.3-6.8,2.3S48.9,56.8,48,57
		C49.6,54.1,50.9,50.8,50.9,50.8z"/>
	<path class="st10" d="M30.7,29.6c0,0,4.3-6.9,12.6-4.8c7.6,2,10.2,5.6,11.5,8.6c0.4,0.9,1.4,1.2,2.2,0.8c1-0.6,1.6-1.5,1.6-1.5
		s-3.3,4.5-3.1,9.1c0,1.2,1.2,8.2,1.2,8.2S56.2,52,54,52.1c-2.2,0.1-2.9-1.5-2.9-1.5s1.3-4.6,1.3-6.8c-0.1-2.1,0.4-7.4-1.5-9.6
		c-1.8-2.2-4.3-6-7.1-6.5s-6.6-1.1-8.4-0.1S30.7,29.6,30.7,29.6z"/>
	<path class="st1" d="M94.9,31.4c-0.6,0-1.2-0.1-1.8-0.2c0.4,0.5,1,0.9,1.6,1.1c0.6,0.2,1.3,0.4,2,0.3c0.7,0,1.3-0.1,1.9-0.4
		c0.6-0.2,1.2-0.6,1.6-1.1c-1.3,0.1-2.4,0.2-3.6,0.2C96,31.4,95.4,31.4,94.9,31.4z"/>
	<path class="st1" d="M0.1,75.4c0,0.1,0,0.1,0,0.2c0,0,0,0.1,0,0.1l0,0.1c0,0.1,0,0.1,0.1,0.1c0,0,0.1,0.1,0.1,0.2
		c0.1,0.1,0,0.1,0.2,0.2c0.1,0.1,0.4,0.1,0.5,0.1l0,0l0.1,0l0.3,0l0.2,0c0.2,0,0.4-0.1,0.6-0.1l2.1-0.5c1.4-0.4,2.8-0.8,4.2-1.2
		c2.7-0.8,5.3-1.7,7.9-2.8c0.2,2.3,0.4,4.7,0.7,7c0.9,6,2.1,12,4.2,17.7c2,5.7,4.8,11.3,8.6,16.2c3.8,4.8,8.6,9,14.2,11.5
		C49.8,126.9,56,128,62,128c6.1,0,12.1-0.4,18.1-1.5c6-1.1,11.8-3,17.1-6.2c4.6-2.8,8.2-5.8,10.5-7.8c2.3-1.9,4.6-4,6.8-6l1.7-1.5
		c0.6-0.6,1.1-1.3,1.3-2.2c0.5-1.7,0-3.6-1.3-4.8c-1.3-1.2-3.2-1.7-4.9-1c-0.8,0.3-1.6,0.8-2.1,1.5c-0.5,0.6-1,1.1-1.5,1.7
		c-4,4.4-12,10.5-17.3,13.1c-5.3,2.6-11.2,4.2-17,5c-3,0.4-5.9,0.6-8.9,0.6c-1.5,0-2.9,0-4.4-0.2c-1.4-0.2-2.9-0.5-4.2-0.9
		c-5.5-1.8-10.4-5.5-14.2-10c-3.8-4.5-6.9-9.7-9.2-15.2c-1.2-2.8-2.1-5.6-2.9-8.5c-0.8-2.9-1.4-5.8-1.6-8.8
		c-0.1-1.4-0.1-2.9,0.2-4.3c2.7,0,5.5,0.1,8.3,0.1l8.7,0.2c1.4,0,2.9,0.1,4.3,0.2c1.4,0.1,2.9,0.1,4.3,0.3c0.4,0,0.7,0.1,1.1,0.1
		l0.5,0.1l0.5,0.1l0.5,0.1l0.5,0.1l1.1,0.3c1.4,0.3,2.9,0.6,4.3,0.9c2.9,0.5,5.8,0.8,8.7,1c1.5,0.1,2.9,0.1,4.4-0.1
		c1.5-0.1,2.9-0.5,4.3-0.7c5.7-1.2,11.4-2.2,17.1-3.1l8.6-1.4l4.3-0.7c1.4-0.2,2.8-0.4,4.2-0.5c1.4-0.1,2.9-0.1,4.3-0.1l0.5,0l0.6,0
		c0.4,0,0.8-0.1,1.2-0.1c0.8-0.2,1.6-0.4,2.3-0.8c1.5-0.7,2.7-1.8,3.6-3.1c0.9-1.4,1.5-2.9,1.6-4.6l0-0.6c0-0.2,0-0.5-0.1-0.7
		c-0.1-0.5-0.3-0.9-0.5-1.4c-0.5-0.8-1.3-1.4-2.3-1.7c-0.2-0.1-0.5-0.1-0.7-0.1l-0.4,0l-0.3,0l-1.1,0l-2.2,0.1
		c-2.9,0.1-5.8,0.2-8.7,0.3c-2.9,0.1-5.8,0.3-8.7,0.6c-1.4,0.1-2.9,0.3-4.3,0.4c-1.2,0.2-2.5,0.3-3.7,0.6c-0.6-0.7-1.2-1.4-2-1.9
		c-1-0.7-2.1-1.3-3.4-1.5c-0.6-0.1-1.3-0.1-1.9,0c-0.6,0.1-1.2,0.2-1.7,0.4c-1.1,0.3-2.1,0.8-3.1,1.1c-0.5,0.2-1,0.3-1.5,0.4
		c-0.2,0-0.4,0-0.4,0c-0.1-0.1-0.2-0.3-0.2-0.6c-0.2-1-0.1-2.1,0.2-3.1c0.1-0.5,0.3-1,0.6-1.5c0.2-0.5,0.5-0.9,0.9-1.3
		c0.2-0.2,0.4-0.4,0.6-0.5c0.2-0.2,0.4-0.3,0.7-0.4c0.5-0.3,0.9-0.5,1.4-0.8c1-0.5,2-1,3-1.4c1-0.5,2-1,3-1.5c1-0.6,1.9-1,2.9-1.5
		c2-1,4.1-1.8,5.9-3.2c0.9-0.7,1.7-1.6,2.3-2.6c0.4-0.6,0.6-1.1,0.9-1.7c0.4-0.4,0.7-0.8,1-1.2c0.6-0.1,1-0.3,1.5-0.5
		c0.5-0.2,1-0.6,1.5-0.9c1-0.7,1.8-1.5,2.6-2.3c1.5-1.7,2.7-3.7,3.5-5.8c0.8-2.2,1.1-4.5,0.9-6.7c-0.1-1-0.2-2.1-0.4-3.1
		c0.7-0.3,1.3-0.9,1.6-1.7c0.2-0.5,0.3-0.9,0.3-1.5c0-0.5-0.1-1.1-0.4-1.5c-0.2-0.5-0.5-0.9-0.7-1.2l-0.2-0.3
		c-0.1-0.1-0.2-0.2-0.3-0.3c-0.2-0.2-0.4-0.3-0.6-0.5c-0.2-0.1-0.5-0.3-0.7-0.3c-0.1,0-0.3-0.1-0.5,0c-0.1,0-0.2,0-0.3,0.1
		c-0.1,0-0.2,0.1-0.2,0.1c-0.3,0.2-0.5,0.5-0.6,0.8c-1.4-1.8-3.2-3.2-5.2-4.2c-3-1.5-6.3-2-9.6-1.9C93,2,89.7,2.4,86.6,3.7
		c-1.1,0.5-2.2,1.1-3.2,1.8c-2.4-1.7-5.2-2.8-8.1-3.7c-1.5-0.4-3-0.8-4.6-1.1l-2.3-0.3c-0.8-0.1-1.5-0.2-2.3-0.3
		C63.1-0.1,60,0,56.8,0.3c-3.1,0.3-6.2,1-9.1,1.9c-3,0.9-5.8,2.1-8.6,3.6c-1.4,0.7-2.7,1.5-4,2.4c-1.3,0.9-2.5,1.8-3.7,2.9
		c-1.2,1-2.3,2.1-3.3,3.3c-1,1.2-2,2.4-2.9,3.7c-1.8,2.6-3.2,5.4-4.4,8.3c-0.7,1.4-1.1,2.8-1.5,4.3c-0.4,1.4-0.8,2.9-1.1,4.3
		c-0.6,2.9-1.1,5.8-1.5,8.7c-0.4,2.9-0.6,5.9-0.7,8.8c-0.1,1.9,0,3.9,0.1,5.8c-1.2-0.4-2.4-0.6-3.6-0.9c-1.3-0.3-2.6-0.5-3.9-0.7
		c-1.3-0.2-2.6-0.4-3.9-0.5c-0.7-0.1-1.3-0.1-2-0.1l-1,0l-0.5,0L1,56l-0.1,0c-0.1,0-0.2,0-0.2,0l-0.6,0.1l0.1,0.5
		c0.2,1.5,0.3,2.9,0.3,4.4c0,1.5,0,2.9-0.1,4.4c-0.1,1.5-0.2,2.9-0.3,4.4C0,71.3,0,72.7,0,74.2C0,74.6,0,74.9,0.1,75.4z M97.4,60.4
		L97.4,60.4c-0.5-1.1-1.1-2.1-1.8-3c-0.1-0.1-0.2-0.3-0.3-0.4c0.5-0.1,1-0.1,1.4-0.1c0.7,0,1.4-0.1,2.2-0.1c1.4,0,2.9,0,4.3-0.1
		c2.9,0,5.8,0,8.7,0l8.7,0l2.2,0l1.1,0l0.3,0l0.2,0c0.1,0,0.2,0,0.4,0.1c0.5,0.1,0.9,0.4,1.1,0.9c0.1,0.2,0.2,0.4,0.2,0.7
		c0,0.1,0,0.2,0,0.4l0,0.5c-0.1,1.3-0.5,2.5-1.2,3.6c-0.7,1-1.7,1.9-2.8,2.5c-0.6,0.3-1.2,0.5-1.8,0.6c-0.3,0-0.6,0.1-1,0.1l-0.5,0
		l-0.5,0c-1.5,0-2.9,0.1-4.4,0.2c-3,0.3-5.8,0.9-8.7,1.4c-2.8,0.6-5.7,1.2-8.5,1.8c-5.7,1.3-11.3,2.5-17,3.5
		c-1.4,0.2-2.8,0.5-4.3,0.6c-1.4,0-2.9-0.1-4.3-0.2c-2.9-0.3-5.7-0.9-8.5-1.5c-1.4-0.3-2.8-0.6-4.2-1l-1-0.3l-0.5-0.1l-0.6-0.1
		l-0.6-0.1L55,70.2c-0.4,0-0.7-0.1-1.1-0.1c-2.9-0.2-5.8-0.2-8.8-0.2c-2.9,0-5.8,0.1-8.7,0.3c-1.5,0.1-2.9,0.2-4.3,0.3
		c-1.3,0.1-2.6,0.2-3.9,0.4c0.3-1.4,0.7-2.8,1.3-4.1c1.1-2.5,2.6-4.8,4.3-6.9c0.1,0,0.1,0,0.2,0c0.1,0.3,0.3,0.4,0.5,0.5
		c0.1,0.1,0.3,0.2,0.4,0.3c1.1,0.7,2.2,1.1,3.4,1.4c1.1,0.4,2.3,0.7,3.5,0.9c2.4,0.4,4.7,0.5,7.1,0.6c0.6,0,1.1,0,1.7,0.1
		c0.6,0.1,1.1,0.3,1.6,0.5c1.1,0.4,2.1,1,3,1.7c0.5,0.3,0.9,0.6,1.5,1c0.6,0.4,1.3,0.6,2,0.7c0.7,0.1,1.5-0.1,2.1-0.3l1.7-0.6
		l0.4-0.1c0.1,0,0.4-0.1,0.6-0.3c0.4-0.2,0.7-0.6,0.9-1c0.4-0.8,0.5-1.8,0-2.6c-0.1-0.2-0.2-0.3-0.3-0.4c1.1,0.2,2.3,0.3,3.4,0.5
		c1.5,0.2,2.8,0.9,4.2,1.7c1.3,0.8,2.6,1.7,4.1,2.6c0.4,0.2,0.9,0.4,1.3,0.5c0.4,0.1,0.9,0.2,1.3,0.3c0.8,0.1,1.7,0.2,2.4,0.2
		c0.8,0,1.6,0.1,2.3,0.2l0.6,0.1l0.6,0.1c0.8,0.1,1.6-0.3,2-1c0.2-0.4,0.3-0.8,0.2-1.2l0-0.1l0-0.1l0-0.2l-0.1-0.3
		c-0.1-0.4-0.3-0.8-0.5-1.2c-0.4-0.8-0.9-1.5-1.4-2.2c-0.4-0.6-0.9-1.1-1.5-1.5c0.9-0.2,1.8-0.3,2.7-0.3c1.2,0,2.4,0.1,3.6,0.3
		c1.2,0.1,2.4,0.3,3.6,0.5c1.2,0.2,2.4,0.4,3.5,0.7C97,61.9,97.7,61.1,97.4,60.4z M84.5,66.5L84.5,66.5
		C84.5,66.5,84.5,66.5,84.5,66.5C84.5,66.5,84.5,66.5,84.5,66.5C84.5,66.5,84.5,66.5,84.5,66.5z M112,8.1c0.1,0,0.4,0.1,0.7,0.3
		c0.1,0.1,0.3,0.2,0.4,0.4c0.1,0.1,0.1,0.1,0.1,0.2l0.2,0.3c0.2,0.4,0.5,0.7,0.6,1.1c0.2,0.3,0.3,0.7,0.3,1c0,0.3,0,0.8,0,1.1
		c-0.1,0.6-0.3,1.1-0.7,1.6c-0.2-1.1-0.6-2.2-1-3.2c-0.4-0.9-0.9-1.7-1.4-2.5C111.4,8.3,111.7,8.1,112,8.1z M87,4.5
		c2.9-1.1,6.1-1.4,9.3-1.4c1.6,0,3.1,0.1,4.7,0.3c1.5,0.3,3,0.7,4.4,1.4c1.4,0.6,2.7,1.5,3.8,2.6c1.1,1.1,2.1,2.3,2.7,3.7l0,0
		c0.8,2,1.3,4.2,1.4,6.4c0.1,2.2-0.2,4.4-0.9,6.4c-0.4,1-0.9,2-1.5,2.9c-0.6,0.9-1.3,1.8-2,2.6c-0.7,0.8-1.6,1.5-2.5,2.1
		c-0.5,0.3-0.9,0.5-1.4,0.7c-0.5,0.2-1,0.4-1.4,0.4l-0.3,0l-0.2,0.2l0,0c-0.8,1.1-1.8,2.1-3,2.8c-1.2,0.7-2.6,1-4,0.9
		c-1.4-0.1-2.7-0.5-4-1.2c-1.2-0.7-2.4-1.6-3.2-2.6l-0.1-0.1l-0.2-0.1h0c-0.4-0.2-0.9-0.4-1.4-0.7c-0.5-0.3-0.9-0.6-1.3-0.9
		c-0.9-0.7-1.7-1.4-2.4-2.1c-0.8-0.8-1.5-1.6-2.1-2.5c-0.6-0.8-1-1.9-1.3-2.9c-0.6-2.1-1-4.3-1-6.5c0-2.2,0.3-4.4,1.2-6.3
		C81,9.3,81.9,8,83,6.9C84.1,5.8,85.5,5.1,87,4.5z M88.2,33.8L88.2,33.8C88.2,33.8,88.2,33.8,88.2,33.8L88.2,33.8z M78.4,14.3
		c-0.6-0.5-0.8-1.2-0.9-1.9c0-0.4-0.1-0.8,0-1.1c0-0.3,0.2-0.7,0.3-1c0.2-0.3,0.4-0.7,0.6-1.1C78.5,9,78.5,9,78.6,8.9
		c0-0.1,0.1-0.1,0.2-0.2c0.1-0.1,0.3-0.3,0.4-0.4c0.1-0.1,0.3-0.2,0.4-0.3c0.1,0,0.1,0,0.1,0c0,0,0,0,0,0c0,0,0.1,0,0.1,0
		c0.3,0.1,0.6,0.2,0.9,0.4c-0.4,0.6-0.8,1.2-1.1,1.8C79,11.6,78.6,12.9,78.4,14.3z M16.5,61.3c0.1-2.9,0.3-5.8,0.6-8.7
		c0.3-2.9,0.8-5.8,1.3-8.6c0.5-2.9,1.1-5.7,1.8-8.5c0.4-1.4,0.7-2.8,1.1-4.2c0.4-1.4,0.8-2.8,1.4-4l0-0.1l0,0
		c2.1-5.7,5.4-10.8,9.7-15.1c2.1-2.1,4.5-4,7.2-5.6c1.3-0.8,2.7-1.5,4.1-2.1c1.4-0.6,2.8-1.1,4.3-1.6c1.5-0.4,3-0.8,4.5-1
		c1.5-0.2,3-0.3,4.5-0.4c1.5-0.1,3,0,4.6,0.1c0.4,0,0.8,0,1.1,0.1l1.1,0.1c0.8,0.1,1.5,0.1,2.3,0.2c0.8,0.1,1.5,0.1,2.3,0.2l2.3,0.3
		c0.7,0.1,1.5,0.2,2.2,0.3C73.5,2.8,74.3,3,75,3.1c0.7,0.2,1.5,0.3,2.2,0.5C78,3.8,78.7,4,79.5,4.3c1.3,0.4,2.6,0.9,3.8,1.4
		c-0.3,0.2-0.5,0.4-0.8,0.7c-0.6,0.6-1.1,1.2-1.6,1.9c-0.1-0.3-0.3-0.6-0.6-0.8c-0.1,0-0.1-0.1-0.2-0.1c-0.1,0-0.2-0.1-0.3-0.1
		c-0.2,0-0.4,0-0.5,0c-0.3,0.1-0.6,0.2-0.8,0.3c-0.2,0.1-0.4,0.3-0.6,0.5c-0.1,0.1-0.2,0.2-0.3,0.3c-0.1,0.1-0.2,0.3-0.2,0.3
		c-0.2,0.3-0.5,0.7-0.7,1.2c-0.2,0.4-0.4,1-0.4,1.5c0,0.3,0,0.5,0.1,0.8c0,0.2,0.1,0.5,0.2,0.7c0.3,0.8,1,1.6,1.8,1.8
		c-0.1,0.9-0.2,1.7-0.2,2.6c0,2.3,0.3,4.5,0.9,6.8c0.3,1.1,0.7,2.2,1.4,3.2c0.7,0.9,1.4,1.8,2.2,2.7c0.8,0.8,1.6,1.6,2.5,2.3
		c0.5,0.4,0.9,0.7,1.4,1c0.5,0.3,0.9,0.5,1.4,0.8c1,1.2,2.2,2.1,3.5,2.8c1.4,0.8,2.9,1.2,4.5,1.3c1.6,0.1,3.2-0.3,4.6-1.1
		c0.3-0.1,0.5-0.3,0.7-0.5c-0.7,0.8-1.5,1.5-2.3,2c-1.8,1.1-3.9,1.8-5.9,2.7c-1,0.4-2.1,0.9-3,1.5c-1,0.5-1.9,1.1-2.9,1.6
		c-0.9,0.6-1.9,1.2-2.8,1.8c-0.9,0.7-1.8,1.3-2.6,2.2c-0.7,0.9-1.2,2-1.5,3.1c-0.3,1.1-0.5,2.2-0.4,3.4c0,0.3,0.1,0.6,0.3,1
		c0.1,0.1,0.2,0.2,0.3,0.2c0.1,0.1,0.2,0.1,0.3,0.1c0.2,0.1,0.4,0.1,0.5,0.1c0.6,0,1.2-0.1,1.8-0.2c1.1-0.2,2.2-0.5,3.2-0.7
		c0.5-0.1,1-0.2,1.5-0.2c0.5,0,0.9,0,1.4,0.1c0.9,0.2,1.8,0.7,2.5,1.3c1,0.9,1.9,2,2.7,3.2c-1.8-0.2-3.5-0.3-5.3-0.4
		c-1.2,0-2.5,0.1-3.7,0.2c-1,0.2-2,0.5-2.9,0.9c-0.6-0.6-1.3-1.1-2-1.5c-1.4-0.9-3-1.6-4.7-1.8l0,0h0c-0.8,0-1.5,0.1-2.2,0.2
		c-0.7,0-1.4,0-2-0.2c-0.6-0.2-1.2-0.6-1.7-1.1c-0.5-0.5-0.9-1.1-1.1-1.7c-0.5-1.2-0.2-2.6,0.5-3.7c0.7-1.2,1.6-2.2,2.6-3.1
		c1-0.9,2.1-1.7,3.3-2.4c0.1-0.1,0.3-0.2,0.5-0.3l0.5-0.3c0.3-0.3,0.6-0.5,0.9-0.8c0.5-0.6,1-1.2,1.4-1.8c0.8-1.3,1.3-2.7,1.8-4.1
		c0.4-1.4,0.8-2.8,0.8-4.3c0,0,0-0.1-0.1-0.1c0,0-0.1,0-0.1,0.1l0,0c-0.9,2.7-2.1,5.4-3.6,7.6c-0.4,0.6-0.8,1.1-1.3,1.5
		c-0.2,0.2-0.5,0.4-0.7,0.6l-0.4,0.2c-0.1,0.1-0.2,0.2-0.4,0.2c-1.4,0.7-2.6,1.6-3.7,2.6c-1.1,1.1-2,2.3-2.6,3.7
		c-0.6,1.4-0.8,3.1-0.1,4.6c0.2,0.3,0.4,0.7,0.6,1c0.2,0.3,0.5,0.6,0.7,0.8c0.5,0.5,1.2,1,1.9,1.2c0.7,0.3,1.5,0.3,2.2,0.3
		c0.7,0,1.4-0.1,2.1,0c1.5,0.3,2.8,1.1,4,2.1c0.6,0.5,1.2,1,1.7,1.5c0.3,0.3,0.5,0.6,0.8,0.8c0.2,0.3,0.5,0.6,0.7,0.9
		c0.5,0.6,0.8,1.3,1.1,1.9c0.1,0.3,0.3,0.7,0.4,1l0.1,0.3l0,0.1l0,0L84,66.3l-0.6-0.1c-0.8-0.1-1.7-0.2-2.5-0.2
		c-1.6-0.1-3.2-0.1-4.3-0.7c-1.3-0.6-2.7-1.5-4.2-2.2c-0.7-0.4-1.5-0.7-2.3-0.9c-0.8-0.3-1.7-0.4-2.5-0.4c-1.3,0-2.6,0-3.9,0.1
		c-0.2-0.2-0.4-0.4-0.6-0.7c-0.4-0.4-0.9-0.9-1.4-1.2c-0.3-0.2-0.5-0.4-0.8-0.6c0,0,0,0,0-0.1c-0.6-2.9-1.4-5.7-2.2-8.5
		c-0.4-1.4-0.9-2.8-1.3-4.1c-0.4-1.4-0.8-2.8-1.1-4.2c-0.3-1.4-0.3-2.9,0.2-4.2c0.5-1.4,1.4-2.5,2.3-3.6c0.9-1.1,1.7-2.3,2.6-3.4
		c0.9-1.1,1.8-2.3,2.7-3.5l0,0c0,0,0-0.1,0-0.1c0,0-0.1-0.1-0.1,0c-1.4,0.7-2.6,1.6-3.6,2.6c-1.1,1-2.1,2.2-2.8,3.6
		c-0.7,1.4-1.1,2.9-1.5,4.3c-0.4,1.5-0.6,3-0.6,4.5c0,0.8,0,1.5,0,2.3c0.1,0.7,0.2,1.5,0.3,2.2c0.3,1.5,0.6,2.9,1.1,4.3
		c0.4,1.2,0.9,2.4,1.5,3.5c-0.2,0.1-0.5,0.2-0.7,0.2c-0.6,0.2-1.2,0.3-1.8,0.4c-0.6,0.1-1.3,0-1.8,0.2c-0.4,0.2-0.9,0.4-1.3,0.7
		c-1.5,0-3,0.2-4.4,0.6c1.3-1.7,2.6-3.5,3.5-5.5c0.5-1,0.9-2.1,1.3-3.1c0.2-0.5,0.3-1.1,0.5-1.7c0.1-0.6,0.2-1.2,0.3-1.7
		c0.2-2.3-0.1-4.7-0.7-6.9c-0.6-2.2-1.7-4.3-3.2-6.1c-1.5-1.8-3.2-3.2-5.2-4.4c-0.5-0.3-1-0.6-1.5-0.8c-0.5-0.3-1.1-0.5-1.6-0.6
		c-1.1-0.3-2.3-0.5-3.5-0.4c-1.2,0.1-2.4,0.5-3.4,1c-1.1,0.5-2,1.1-2.9,1.8c-1.8,1.4-3.3,3.2-4.4,5.1c0,0,0,0.1,0,0.1
		c0,0,0.1,0,0.1,0l0,0c1.6-1.5,3.3-2.9,5.1-4.1c1.8-1.2,3.7-2,5.7-2.5c1-0.2,2-0.3,3.1-0.2c0.5,0.1,1,0.2,1.5,0.3
		c0.5,0.2,1,0.4,1.5,0.6c1.9,1,3.5,2.6,4.6,4.5c1.1,1.9,1.8,3.9,2.3,5.9c0.5,2.1,0.6,4.2,0.4,6.3c0,0.5-0.1,1-0.2,1.5
		c-0.1,0.5-0.2,1-0.3,1.5c-0.3,1-0.6,2.1-0.9,3.1C49.8,52,49.4,53,49,54c-0.4,1-0.9,2-1.3,3.1c0,0,0,0.1,0,0.1c0,0,0,0,0,0
		c0,0,0,0.1,0.1,0.1l0,0c0.6,0,1.2,0,1.8,0c0.6,0,1.2,0.1,1.7,0.1c0.6,0,1.1,0.2,1.7,0.3c0.3,0.1,0.5,0.1,0.8,0.2
		c0.3,0.1,0.5,0.1,0.8,0.2c2.1,0.7,4.1,1.8,5.7,3.3c0.2,0.2,0.4,0.4,0.6,0.5l0.6,0.6c0.2,0.2,0.4,0.4,0.6,0.6
		c0.2,0.2,0.4,0.5,0.5,0.5c0.1,0.2,0.2,0.5,0,0.7c-0.1,0.1-0.1,0.2-0.3,0.3c-0.1,0-0.1,0.1-0.2,0.1L61.8,65l-1.6,0.7
		c-0.5,0.2-0.9,0.3-1.4,0.3c-0.5,0-1-0.1-1.4-0.3c-0.5-0.2-1.1-0.5-1.6-0.8c-1.1-0.5-2.2-1-3.3-1.3c-0.6-0.2-1.1-0.4-1.7-0.5
		c-0.3-0.1-0.6-0.1-0.9-0.1l-0.9,0c-2.3-0.2-4.6-0.9-6.8-1.5l-3.3-0.9c-0.6-0.2-1.1-0.3-1.6-0.5c-0.5-0.2-1.1-0.4-1.5-0.6
		c-0.4-0.2-0.7-0.4-0.8-0.8c-0.1-0.4-0.1-0.9,0-1.4c0.2-1,0.8-2.1,1.3-3.1l0,0c0,0,0-0.1,0-0.1c0,0-0.1,0-0.1,0
		c-0.9,0.8-1.6,1.8-2.1,2.9c-0.2,0.6-0.4,1.3-0.3,2c0,0.2,0.1,0.4,0.2,0.6c-2,2-3.6,4.4-4.9,6.9c-0.7,1.4-1.2,2.8-1.5,4.3
		C27.1,71.5,27,72.2,27,73c-0.1,0.8-0.1,1.6,0,2.3c0.3,6.1,1.8,12.1,4.1,17.8c2.3,5.7,5.2,11.1,9.2,15.9c2,2.4,4.2,4.5,6.7,6.4
		c2.5,1.9,5.3,3.3,8.3,4.3c1.5,0.5,3,0.8,4.6,1c1.6,0.2,3.2,0.2,4.7,0.2c3.1-0.1,6.1-0.3,9.1-0.7c6.1-0.9,12-2.6,17.6-5.3
		c5.5-2.7,13.6-9,17.7-13.6c0.5-0.6,1-1.2,1.5-1.7c0.4-0.5,0.9-0.9,1.5-1.1c1.2-0.5,2.6-0.2,3.5,0.7c1,0.8,1.4,2.3,1.1,3.5
		c-0.2,0.6-0.5,1.2-1,1.7l-1.7,1.5c-2.2,2.1-4.4,4.2-6.7,6.1c-2.3,2-7.7,6.3-10.3,7.9c-5.1,3.1-10.9,5.1-16.8,6.2
		c-5.9,1.1-12,1.4-18,1.2c-6-0.2-11.9-1.5-17.2-4.2c-5.3-2.6-9.9-6.6-13.5-11.3c-3.7-4.7-6.4-10-8.5-15.6
		c-2.1-5.6-3.6-11.5-4.6-17.4C17.3,72.9,16.6,67.2,16.5,61.3C16.5,61.4,16.5,61.4,16.5,61.3z M60.5,59.1c-1.4-0.9-2.9-1.7-4.5-2.1
		c0,0,0,0,0,0c0.6-0.3,1.2-0.6,1.8-1c0.2-0.2,0.4-0.3,0.6-0.5C59,56.7,59.7,57.9,60.5,59.1z M2,75.1L2,75.1C2,75.1,2,75.1,2,75.1z
		 M1.3,57.3l0.4,0.1l1,0.2c0.6,0.1,1.3,0.2,1.9,0.3c1.3,0.2,2.6,0.3,3.9,0.4c1.3,0.1,2.6,0.2,3.9,0.3c1.3,0.1,2.5,0.1,3.8,0
		c0,0.7,0.1,1.4,0.2,2.1c-0.2,3-0.1,6,0.1,9c0,0.6,0.1,1.2,0.1,1.8c-2.8,0.3-5.6,0.8-8.3,1.4c-1.4,0.3-2.9,0.6-4.3,0.9l-1.9,0.5
		c0,0,0-0.1,0-0.1c-0.1-1.4-0.2-2.9-0.3-4.3c-0.1-1.5-0.3-2.9-0.4-4.4C1.1,63.9,1,62.5,1,61C1.1,59.8,1.1,58.5,1.3,57.3z"/>
	<path class="st8" d="M96.4,18.8C96.4,18.8,96.4,18.9,96.4,18.8c0.1,0.1,0.3,0.1,0.3,0c0.9-1.1,1.3-2.1,1.5-3.2
		c0.2-1.1-0.2-2.1-0.3-3.2c-0.1-1.1-0.3-2.1-0.5-3.2C97.2,8.1,97,7,96.7,6c0-0.1-0.1-0.1-0.1-0.1c-0.1,0-0.2,0-0.2,0.1
		c-0.3,1.1-0.4,2.1-0.7,3.2c-0.2,1.1-0.4,2.1-0.5,3.2c-0.1,1.1-0.6,2.1-0.3,3.2C95.1,16.7,95.5,17.8,96.4,18.8z"/>
	<path class="st8" d="M83.1,19.5c-0.4,0.8-0.6,1.7-0.6,2.6c0,1,0.3,2,0.8,2.8c0.6,1.1,1.5,1.9,2.6,2.5c0.5,0.6,1.1,1,1.8,1.5
		c0.7,0.4,1.4,0.8,2.3,1c0.2,0.7,0.4,1.3,0.7,1.9c0.4,0.7,0.9,1.4,1.5,1.9c1.3,1.1,3,1.5,4.5,1.4c1.6,0,3.3-0.6,4.4-1.8
		c0.6-0.6,1-1.3,1.4-2c0.3-0.6,0.5-1.2,0.6-1.9c0.7-0.2,1.3-0.5,1.9-0.8c0.5-0.3,1-0.6,1.4-0.9c1.2-0.5,2.2-1.4,2.9-2.6
		c0.5-0.8,0.8-1.8,0.8-2.8c0-0.9-0.2-1.8-0.6-2.6c0.3-1.4,0.2-2.9-0.1-4.2c-0.4-1.5-1-2.8-1.6-4.2c-0.3-0.7-0.8-1.3-1.3-1.9
		c-0.5-0.6-1.1-1-1.8-1.4c-1.3-0.8-2.7-1.4-4.2-1.5l0,0c0,0,0,0-0.1,0c0,0,0,0.1,0,0.1c1.1,1.1,2.1,2,3.1,2.9l1.5,1.4
		c0.5,0.4,1,0.9,1.5,1.3c0.5,0.5,1,1,1.3,1.6c0.3,0.6,0.5,1.3,0.6,1.9c0.2,1.4-0.1,2.7-0.5,4l-0.1,0.3l0.1,0.3
		c0.3,0.7,0.4,1.4,0.4,2.1c0,0.7-0.2,1.4-0.5,2.1c-0.3,0.7-0.7,1.4-1.2,2c-0.1,0.1-0.2,0.2-0.3,0.3c-0.6,0.4-1.2,0.8-1.9,1.1
		c-0.7,0.3-1.4,0.6-2.1,0.7l-0.4,0.1l-0.1,0.4c-0.2,1.3-0.9,2.6-1.8,3.5c-0.9,0.9-2.2,1.4-3.6,1.4c-1.4,0-2.7-0.3-3.7-1.1
		c-1-0.8-1.7-2.1-1.9-3.4l-0.1-0.5l-0.4-0.1c-0.8-0.1-1.6-0.4-2.3-0.8c-0.8-0.4-1.4-0.9-2.1-1.5c-0.1-0.1-0.3-0.3-0.4-0.5
		c-0.4-0.5-0.8-1.1-1-1.7c-0.3-0.7-0.4-1.4-0.5-2.1c0-0.7,0.1-1.5,0.4-2.1l0.1-0.3l-0.1-0.3c-0.2-0.6-0.4-1.3-0.5-2
		c-0.1-0.7-0.2-1.4-0.1-2c0.1-0.7,0.3-1.4,0.6-2c0.3-0.6,0.8-1.1,1.3-1.6c0.5-0.5,1.1-0.9,1.6-1.3c0.5-0.4,1-0.9,1.5-1.4
		c1-0.9,2.1-1.8,3.1-2.9c0,0,0,0,0-0.1c0,0,0-0.1-0.1-0.1l0,0c-1.5,0.1-3,0.7-4.2,1.5c-0.6,0.4-1.2,0.9-1.7,1.5
		c-0.5,0.6-0.9,1.2-1.2,2c-0.6,1.4-1.2,2.8-1.6,4.2C83.2,16,83,16.8,83,17.6C82.9,18.2,83,18.9,83.1,19.5z"/>
</g>
</svg>
