<?xml version="1.0" encoding="utf-8"?>
<!-- Generator: Adobe Illustrator 23.0.0, SVG Export Plug-In . SVG Version: 6.00 Build 0)  -->
<svg version="1.1" id="Layer_1" xmlns="http://www.w3.org/2000/svg" xmlns:xlink="http://www.w3.org/1999/xlink" x="0px" y="0px"
	 viewBox="0 0 128 128" style="enable-background:new 0 0 128 128;" xml:space="preserve">
<style type="text/css">
	.st0{fill:#D3B48C;}
	.st1{fill:#916F50;}
	.st2{fill:#383838;}
	.st3{fill:#3F3F3F;}
	.st4{fill:#FCCAB1;}
	.st5{fill:#2D2D2D;}
</style>
<g>
	<path class="st0" d="M4.6,25.7C4.5,25.8,4.5,25.8,4.6,25.7L4.6,25.7L4.6,25.7z"/>
	<path class="st1" d="M35.8,6.6c-0.6-1-0.8-2.1-0.7-3.1c0-0.4,0.1-0.8,0.1-1.2c-1.5,0.2-3.1,0.6-4.6,1l-4.8,1.2
		c-1.6,0.4-3.2,0.8-4.9,1.1c-0.8,0.2-1.6,0.3-2.5,0.5l-1.2,0.2l-0.6,0.1c-0.2,0-0.5,0-0.7,0.1c-1.9,0.1-3.6-0.3-5.3-0.9
		C9,5.1,7.4,4.4,5.9,3.7L4.8,3.1L4.2,2.7L3.9,2.6c-0.1,0-0.1-0.1-0.2-0.1c-0.4-0.2-1,0-1.3,0.3C2.3,3.1,2.2,3.3,2.1,3.7L1.7,4.9
		L1,7.3C0.9,7.9,1.1,8.6,1.8,9c0.7,0.5,1.4,0.9,2.1,1.3c1.4,0.8,2.9,1.5,4.5,2.2c1.5,0.6,3.1,1.1,4.7,1.3c1.5,0.1,3.1-0.3,4.6-0.8
		c3.1-0.9,6.2-2.1,9.3-3.2c1.6-0.6,3.1-1.2,4.7-1.7c0.8-0.3,1.6-0.5,2.4-0.8C34.7,7,35.3,6.8,35.8,6.6C35.9,6.7,35.8,6.6,35.8,6.6z"
		/>
	<path class="st2" d="M55.7,105.3c-1.2-0.3-2.4-0.6-3.5-1.1c-0.3,0.1-0.7,0.3-1,0.4c-0.6,0.3-1.2,0.6-1.8,1
		c-1.1,0.8-2.1,1.7-2.8,2.8c-0.2,0.3-0.3,0.6-0.5,0.9l-0.4,1c-0.3,0.7-0.6,1.3-1,2c-0.7,1.3-1.5,2.5-2.3,3.7l-1.2,1.7
		c-0.4,0.6-0.8,1.1-1.1,1.7c-0.1,0.3-0.3,0.6-0.4,0.9c-0.1,0.4-0.4,0.8-0.6,1.1c-0.5,0.7-1.2,1.2-1.9,1.5c-1.5,0.7-3.1,0.8-4.6,0.4
		c-1.5-0.4-2.8-1.2-3.8-2.2l-0.1,0l0,0c-0.3-0.7-0.7-1.4-1.2-2.1c-0.1-0.2-0.4-0.6-0.7-1c-0.2-0.3-0.6-0.2-0.7,0.1
		c-0.5,1.7-0.7,3.5,0,5c0.2,0.5,0.5,0.9,0.8,1.2c0.3,0.3,0.7,0.6,1.2,0.9c0.9,0.5,1.9,0.7,2.9,0.9c2.1,0.3,4.3,0.5,6.4,0.3
		c1-0.1,2.1-0.3,3-0.6c0.9-0.3,1.7-0.9,2.2-1.5c0.3-0.3,0.4-0.7,0.5-1.1c0-0.1,0-0.2,0-0.3c0-0.2,0-0.3,0.1-0.5
		c0.1-0.3,0.1-0.6,0.2-0.9c0.4-1.2,1-2.2,1.6-3.2c0.6-1,1.4-1.9,2.2-2.8c0.4-0.4,0.8-0.8,1.2-1.2c0.5-0.4,1-0.8,1.6-1
		c2.1-0.9,4.2-1.6,6.2-2.3l3.1-1.1c0.5-0.2,1-0.4,1.5-0.6c0,0,0,0,0,0c-0.7-0.3-1.4-0.6-2.1-1C57.6,107.2,56.6,106.3,55.7,105.3z"/>
	<path class="st3" d="M94.8,11.4c0.3,0.6,0.6,1.2,0.9,1.8c0.2,0.3,0.4,0.6,0.6,0.8c0.2,0.2,0.4,0.4,0.6,0.5c0.5,0.2,1.2,0.3,1.8,0.1
		c0.6-0.1,1.2-0.4,1.7-0.9c0.4-0.4,0.7-1,0.9-1.5c-0.7-0.3-1.2-0.7-1.6-1.3c-0.5-0.7-0.6-1.5-0.5-2.3c0.2-1.6,1.5-2.8,3-2.9
		c2.3-0.2,4.6-0.6,6.8-1.1c-1.1-0.8-2.2-1.5-3.4-2c-1.3-0.5-2.6-0.7-4-0.6c-0.7,0-1.4,0.1-2.1,0.2c-0.7,0.1-1.4,0.4-2,0.7
		c-0.3,0.2-0.6,0.3-0.9,0.5c-0.3,0.2-0.6,0.4-0.9,0.6c-0.6,0.4-1,0.9-1.3,1.5c-0.6,1.2-0.6,2.6-0.3,3.9
		C94.3,10.1,94.5,10.8,94.8,11.4z"/>
	<path class="st3" d="M35.9,3.4c0.3,0.9,0.6,1.8,1,2.4c0.5,0.6,1.1,1,1.9,1c0.9,0,1.7-0.2,2.4-0.8c0.7-0.6,1.2-1.4,1.3-2.4
		c0.1-0.5,0.1-0.9,0-1.4c-0.1-0.4-0.3-0.6-0.6-0.7c-0.1,0-0.4-0.1-0.6-0.1l-0.7-0.1c-0.5-0.1-0.9-0.2-1.4-0.3
		c-0.9-0.2-1.9-0.2-2.9,0c-0.5,0.1-0.8,0.6-0.8,1c0,0.2,0.1,0.4,0.1,0.7C35.8,2.9,35.8,3.2,35.9,3.4z"/>
	<path class="st1" d="M41.5,6.8C45.8,7.4,50,8.1,54.2,9c2.2,0.5,4.3,0.9,6.5,1.4c0.5,0.1,1.1,0.2,1.6,0.3c0.5,0.1,1.1,0.2,1.6,0.2
		c1.1,0.1,2.2,0.1,3.3,0c2.2-0.1,4.5-0.2,6.7-0.3c2.2-0.1,4.5,0,6.7,0.1c4.2,0.2,8.3,0.5,12.5,0.4c-0.2-0.5-0.3-1-0.4-1.6
		c-0.1-0.8-0.1-1.5,0-2.3C93,7,93.1,6.6,93.3,6.2c-2,0.2-4.1,0.3-6.1,0.4c-2.1,0.1-4.2,0.1-6.4,0c-2.1-0.1-4.2-0.2-6.4-0.4
		c-1.1-0.1-2.1-0.2-3.2-0.3c-1.1-0.1-2.1-0.2-3.2-0.3c-2.1-0.2-4.2-0.5-6.4-0.5c-2.1-0.1-4.3-0.2-6.4-0.4c-4.1-0.6-8.1-1.5-12.1-2.7
		c0,0.1,0,0.2,0,0.3c0,0.5-0.1,1-0.3,1.5c-0.2,1-0.6,1.9-1.2,2.8C41.7,6.6,41.6,6.7,41.5,6.8z"/>
	<path class="st3" d="M105.1,12.6c-0.1,1.1-0.4,2.3-1,3.3c-0.7,1.4-1.6,2.6-2.7,3.6c-0.6,0.5-1.1,1-1.8,1.4
		c-0.6,0.4-1.2,0.8-1.9,1.2c-1.2,0.8-2.5,1.5-3.8,2.1c-2.6,1.3-5.3,2.4-8,3.4c-2.7,1-5.5,1.8-8.3,2.5l-4.2,1.1
		c-0.7,0.2-1.4,0.4-2.1,0.6c-0.7,0.2-1.4,0.4-2.1,0.6c-2.7,1-5.2,2.3-7.7,3.8c-1.2,0.7-2.4,1.5-3.6,2.3c-1.2,0.8-2.3,1.7-3.4,2.6
		c-1.1,0.9-2.1,1.9-3.1,2.9c-0.5,0.5-1,1-1.5,1.6l-0.7,0.8L49,47c-0.1,0.1-0.3,0.4-0.5,0.4c-1.1,0.1-2.2,0.1-3.3,0
		c-0.6,0-1.1-0.1-1.7-0.2c-0.6-0.1-1.1-0.2-1.7-0.5l-0.2-0.1l-0.1-0.2c-0.5-0.8-0.9-1.6-1.4-2.4c-0.4-0.8-0.8-1.6-1.2-2.4
		c-0.4-0.8-0.7-1.6-1.1-2.4c-0.4-0.8-0.9-1.5-1.6-2.1l-0.2-0.1l0-0.2c0.3-1.2,0.6-2.5,0.9-3.7c0.3-1.2,0.5-2.5,0.7-3.8
		c0.3-1.3,0.5-2.5,0.9-3.7l0.9-3.7c0.3-1.2,0.6-2.4,0.9-3.6c0.1-0.3,0.1-0.6,0.1-0.8l0.1-1c0-0.6,0.1-1.3,0.2-1.9
		c0.1-1.3,0.3-2.5,0.4-3.8c0.1-1.2,0.3-2.4,0.4-3.6c-0.1-0.1-0.3-0.1-0.4-0.2c-0.2,0.2-0.4,0.3-0.7,0.5C40,7.8,39.5,8,38.9,8
		c-0.3,0-0.6,0-0.9,0c-0.3-0.1-0.6-0.1-0.9-0.2c-0.4-0.2-0.8-0.5-1.1-0.8c-0.2,0.1-0.4,0.2-0.7,0.3c-0.3,0.1-0.7,0.3-1,0.5
		c0.6,1.8,1,3.6,1.4,5.4l0.3,1.5c0.1,0.5,0.2,1.1,0.2,1.6c0,1.1-0.2,2.2-0.6,3.2c-0.2,0.5-0.5,1-0.8,1.4c-0.3,0.5-0.7,0.8-1,1.2
		c-0.6,0.8-1.3,1.5-1.8,2.3c-1.1,1.6-2.1,3.4-2.7,5.2C29.2,30,29.1,30.5,29,31c-0.1,0.5-0.2,0.9-0.3,1.4c-0.2,1-0.4,2-0.7,2.9
		c-0.2,1-0.5,1.9-0.6,2.8c0,0.4-0.1,0.8,0,1.2c0.1,0.3,0.2,0.6,0.4,0.9l0.1,0.1l0.1,0.2l0.2,0.3c0.1,0.2,0.3,0.5,0.4,0.7
		c0.3,0.5,0.5,0.9,0.7,1.4c0.4,0.9,0.9,1.8,1.3,2.7c0.8,1.7,1.9,3.7,3,5.3c0.5-0.1,1-0.2,1.5-0.3c1.9-0.3,3.9-0.3,5.9-0.2
		c1.9,0.2,3.8,0.7,5.7,1.3c0,0,0.1,0.1,0.1,0.1c0,0-0.1,0.1-0.1,0.1c-1.9-0.3-3.8-0.4-5.7-0.4c-1.9,0-3.7,0.2-5.6,0.6
		c-1.8,0.4-3.6,0.9-5.4,1.5c-1.3,0.5-4,1.3-5.3,1.7c-0.4,0.1-0.9-0.1-1.1-0.5c-0.5-1.2-1.6-3.5-2.2-4.7c-0.4-0.8-0.8-1.6-1.2-2.5
		c-0.4-0.8-0.7-1.7-1-2.6l0,0l0,0c0-0.7-0.2-1.8-0.3-2.4c-0.1-0.5-0.2-0.9-0.3-1.4c-0.2-0.6-0.4-1.2-0.6-1.8
		c-0.2-0.5-0.5-1.1-0.7-1.6c-0.7-0.4-1.4-0.9-2.1-1.3c-0.8-0.4-1.5-0.9-2.3-1.2c-1.5-0.8-3.1-1.5-4.7-1.9l-0.2,0L8,33.3
		c-1-0.8-2-1.8-2.8-2.9c-0.4-0.6-0.7-1.2-0.9-2c0-0.2-0.1-0.3-0.1-0.5C4.1,28,4,28.1,3.9,28.3c-0.6,0.9-1,1.9-1.1,2.9
		c-0.1,1,0.3,2,1,2.9c0.2,0.2,0.4,0.4,0.6,0.6L4.6,35L5,35.3c0.5,0.4,0.9,0.8,1.4,1.2c1,0.7,2,1.4,3.1,1.9c1.1,0.5,2.2,1,3.4,1.2
		c0,0,0.1,0,0.1,0c0,0,0.1,0,0.1,0.1l0.7,5.9c0.2,1.9,0.5,3.9,0.8,5.8c0.3,1.9,0.5,3.8,1,5.7c0.5,1.9,1.2,3.7,2.5,5.2l0.1,0.1l0,0.1
		c-0.1,1.3,0.6,2.5,1.7,3.1c1.1,0.6,2.4,0.9,3.7,1c2.6,0.2,5.3-0.1,7.9-0.6c0.7-0.1,1.3-0.2,2-0.3l2-0.4l4-0.8
		c1.4-0.2,2.7-0.4,4-0.7c1.3-0.3,2.7-0.6,3.9-1.1l0,0c0,0,0.1,0,0.1,0c0,0,0,0.1,0,0.1c-1.8,1.4-3.7,2.1-5.8,2.7
		c-0.3,0.1-0.4,0.3-0.4,0.6c0.3,3.5,0.3,7,0.5,10.5l0.4,5.7c0.1,1.9,0.2,3.8,0.7,5.6c0.6,1.8,1.1,3.7,1.7,5.5
		c0.6,1.8,1.5,3.5,2.7,4.9c1.2,1.4,2.6,2.5,4.3,3.3c1.6,0.8,3.4,1.3,5.2,1.7l0.3,0.1l0.2,0.3c0.8,1,1.7,1.9,2.8,2.6
		c1,0.7,2.2,1.3,3.4,1.6c1.2,0.4,2.5,0.5,3.9,0.6c1.3,0.1,2.5-0.1,3.9-0.2c-0.3-0.3-0.5-0.4-0.8-0.7c-0.9-0.7-1.7-1.5-2.6-2.2
		c-0.9-0.7-1.8-1.4-2.7-2.1c0,0-0.1-0.1,0-0.1c0,0,0.1-0.1,0.1,0c2,1.1,3.9,2.4,5.8,3.7c1.9,1.4,3.7,2.8,5.3,4.6l0,0l0,0
		c2.1,3,4.4,5.9,7,8.3c1.3,1.2,2.8,2.2,4.4,2.8c0.4,0.2,0.8,0.3,1.2,0.4l1.3,0.3l2.7,0.6c3.6,0.8,7.2,1.6,10.8,2.3
		c1.8,0.3,3.7,0.6,5.5,0.5c0.9,0,1.8-0.1,2.7-0.3c0.4-0.1,0.9-0.2,1.3-0.3c0.4-0.1,0.9-0.3,1.1-0.5c0.7-0.9,1.4-1.6,2.3-2.3
		c0.9-0.7,2-1.2,3.2-1.2c0.6,0,1.2,0.2,1.8,0.5c0.5,0.3,0.9,0.6,1.4,0.9l1.4,0.9l0,0c0.5,0.3,1.1,0.1,1.3-0.4
		c0.4-1.2,0.4-2.4-0.3-3.1c-0.5-0.5-1.3-0.9-2.2-1.1c-0.4-0.1-0.9-0.2-1.4-0.3c-0.5-0.1-0.9-0.2-1.4-0.2c-1.8-0.2-3.7,0-5.3,0.7
		c-1.6,0.7-2.8,2-3.6,3.6l-0.5,0.9l-0.9-0.5c-1.2-0.7-2.8-1.1-4.3-1.6c-1.5-0.4-3.1-0.9-4.6-1.3c-1.5-0.5-3.1-1-4.6-1.6
		c-1.5-0.6-3-1.4-4.4-2.4L92,117l-0.1-0.1c-0.8-1.2-1.6-2.4-2.5-3.5c-0.8-1.2-1.7-2.3-2.6-3.5c-0.9-1.2-1.7-2.3-2.7-3.4
		c-0.9-1.1-1.8-2.2-2.8-3.3l-0.1-0.1l0-0.1c-0.2-1.7-0.3-3.3-0.3-5c0-0.1,0-0.1,0.1-0.1c0,0,0,0,0.1,0c0.7,0,1.3,0,1.9-0.2
		c0.6-0.1,1.2-0.4,1.8-0.7c0.6-0.3,1.1-0.6,1.6-1c0.4-0.3,0.8-0.7,1.1-1.1c-0.2,0-0.4-0.1-0.6-0.1c-1-0.2-1.9-0.6-2.8-1.3
		c-0.2-0.2-0.4-0.4-0.6-0.6c-0.1-0.1-0.2-0.2-0.3-0.4c-0.1-0.1-0.2-0.4-0.2-0.5c0-0.2,0-0.4,0-0.6c0-0.1,0.1-0.2,0.1-0.3
		c0-0.1,0.1-0.2,0.1-0.2c0.1-0.2,0.2-0.3,0.3-0.5c0.3-0.7,0.3-1.6,0.1-2.4c-0.1-0.2-0.1-0.4-0.2-0.7c-0.1-0.2-0.2-0.5-0.2-0.7
		c-0.1-0.5-0.1-1-0.1-1.5c0-0.5,0-0.9-0.1-1.4c0-0.1,0-0.3,0-0.4c0,0,0-0.1,0-0.1l0-0.1c0,0,0.1-0.1,0.1-0.2l0.1-0.2
		c0.2-0.2,0.3-0.4,0.5-0.6c0.8-0.7,1.9-1,2.9-1c0.8,0,1.6,0.2,2.3,0.5c-0.3-0.6-0.6-1.1-0.9-1.6c-0.5-0.7-1-1.3-1.6-1.8
		c-0.6-0.5-1.3-0.9-2.1-1.1c-0.8-0.2-1.5-0.4-2.4-0.4c-1.4,0.2-2.8,0.6-4,1.2c-1.2,0.6-2.2,1.4-2.9,2.5c-0.2,0.3-0.3,0.5-0.5,0.8
		c-0.1,0.2-0.3,0.7-0.5,1.1c-0.5,0.7-1.2,1.4-2.1,1.7c-0.9,0.4-1.9,0.4-2.7,0.2c-0.8-0.2-1.5-0.5-2.2-0.9c-0.7-0.4-1.3-0.8-1.9-1.2
		c-0.6-0.5-1.2-1-1.7-1.5c-0.5-0.5-1-1.1-1.4-1.8c-0.2-0.3-0.4-0.7-0.6-1c-0.1-0.2-0.2-0.4-0.2-0.6c-0.1-0.2-0.1-0.4-0.1-0.6
		c-0.6-2.7-2.1-5.2-4.1-7.2l-0.1-0.1l0-0.2c0.2-1.5,0.2-3,0.1-4.5c0-1.5-0.2-3-0.3-4.4c-0.2-1.5-0.4-2.9-0.8-4.4
		c-0.3-1.5-0.8-2.9-1.3-4.3l0,0c0,0,0,0,0,0c0,0,0,0,0-0.1c0.3-0.7,0.6-1.4,1-2c0.4-0.6,0.8-1.2,1.3-1.8c0.9-1.2,2-2.3,3-3.3
		c2.1-2.1,4.4-4,6.9-5.7c1.2-0.9,2.5-1.7,3.9-2.4c0.7-0.4,1.4-0.7,2.1-1c0.4-0.1,0.7-0.3,1.1-0.4l1.1-0.3l8.5-2.6
		c2.8-0.9,5.6-1.8,8.4-2.9c2.7-1.1,5.3-2.6,7.8-4.2c0.6-0.4,1.2-0.8,1.8-1.2c0.6-0.4,1.1-0.9,1.6-1.3c0.5-0.5,1-1,1.5-1.5
		c0.5-0.5,0.9-1.1,1.3-1.6c1.4-1.9,2.6-4.2,3.3-6.5c-1.1,0-2.1,0.1-3.2,0.1C105.8,12.6,105.5,12.6,105.1,12.6z M74.8,84.5l0.1-0.5
		c0.1-0.3,0.1-0.6,0.2-0.9l0.1-0.4l0.1-0.2c0-0.1,0-0.1,0.1-0.3c0.2-0.5,0.6-0.7,0.9-0.9c0.3-0.2,0.6-0.3,1-0.4
		c0.3-0.1,0.6-0.1,0.9-0.2c0.2,0,0.3,0,0.5,0c0.1,0,0.2,0,0.3,0c0.1,0,0.2,0,0.3,0.1c0.4,0.1,0.8,0.4,0.9,0.8
		c0.1,0.2,0.1,0.4,0.1,0.6c0,0.2-0.1,0.4-0.1,0.5c-0.2,0.6-0.3,1.2-0.5,1.7c-0.1-0.6-0.1-1.2-0.1-1.8c0-0.3,0-0.5-0.1-0.6
		c-0.1-0.1-0.3-0.2-0.4-0.2c-0.7,0.1-2.4,0.5-2.6,1c0,0,0,0.1-0.1,0.1l-0.1,0.2l-0.1,0.4c-0.1,0.3-0.2,0.5-0.3,0.8L76,84.7
		c0,0.1-0.1,0.2-0.1,0.4c0,0.2,0,0.5,0,0.7c0,0.1,0,0.1,0,0.2l0.1,0.2c0,0.2,0.1,0.3,0.1,0.4c0,0.3,0.1,0.5,0.2,0.7
		c0,0,0.1,0.1,0.1,0.1c0,0,0,0,0.1,0c0.1,0,0.2,0,0.4,0c0.3,0,0.6-0.1,0.9-0.2c-0.2,0.2-0.5,0.4-0.8,0.5c-0.1,0.1-0.3,0.1-0.5,0.2
		c-0.1,0-0.2,0-0.3,0c-0.1,0-0.2-0.1-0.3-0.2c-0.3-0.3-0.5-0.6-0.6-0.9c-0.1-0.1-0.1-0.3-0.2-0.4L75,86.3c0-0.1-0.1-0.2-0.1-0.2
		c-0.1-0.3-0.2-0.7-0.1-1C74.8,84.8,74.8,84.7,74.8,84.5z"/>
	<path class="st1" d="M127.1,2.3c0-0.4,0-0.7-0.1-1.1l0-0.5c0-0.1,0-0.1,0-0.1l0,0l-0.2,0.2c-0.1,0.1-0.3,0.2-0.4,0.4
		c-0.3,0.2-0.6,0.4-1,0.6c-0.6,0.4-1.3,0.7-2,0.9c-1.3,0.6-2.7,1-4.1,1.4c-1.4,0.4-2.8,0.7-4.2,0.9c-1.4,0.2-2.9,0.3-4.3,0.4
		c-2.9,0.1-5.7,0.2-8.6,0.5c-1.4,0.1-2.6,1.4-2.5,2.7c0,0.7,0.3,1.3,0.7,1.7c0.4,0.4,1,0.7,1.6,0.7c0.3,0,0.6,0,1,0l1-0.1l2.1-0.1
		c1.4-0.1,2.8-0.2,4.2-0.3l8.5-0.7l4.3-0.4l1.1-0.1c0.4,0,0.6,0,0.9-0.1c0.6-0.2,1.1-0.5,1.5-1c0.4-0.5,0.6-1.1,0.7-1.7
		c0-0.7,0-1.4,0-2.1C127.2,3.8,127.1,3,127.1,2.3z"/>
	<path class="st4" d="M84.4,83c-0.2,0.1-0.4,0.2-0.5,0.4l-0.1,0.1c0,0,0-0.1,0-0.1c0,0,0,0,0,0c0,0,0,0,0,0c0,0.1-0.1,0.2-0.1,0.3
		c-0.1,0.4-0.2,0.9-0.2,1.4c0,0.5,0.1,0.9,0.3,1.3c0.1,0.2,0.2,0.4,0.3,0.6c0.1,0.2,0.3,0.4,0.4,0.6c0.5,0.9,0.7,2.1,0.3,3.1
		c-0.1,0.3-0.2,0.5-0.3,0.8c0,0.1,0,0.1,0,0.1l0,0c0,0,0,0.1,0,0.1c0,0,0.1,0.2,0.2,0.3c0.1,0.1,0.2,0.3,0.4,0.4
		c0.6,0.5,1.4,1,2.2,1.4c0.7,0.3,1.5,0.6,2.3,0.9c0.9,0.2,1.7,0.1,2.4-0.3c0.2-0.1,0.4-0.2,0.5-0.4c-0.1,0-0.2,0.1-0.3,0.1
		c-0.5,0.1-0.9,0-1.4-0.1c-0.5-0.1-0.9-0.3-1.3-0.5c-0.4-0.2-0.8-0.5-1.1-0.8c0,0,0-0.1,0-0.1c0,0,0,0,0.1,0
		c0.4,0.1,0.8,0.2,1.3,0.3c0.4,0.1,0.8,0.1,1.2,0.1c0.4-0.1,0.8-0.2,1.2-0.1c0.3,0.1,0.7,0.1,1,0.3c0.3-0.5,0.5-1.2,0.6-1.8
		c0.1-0.6,0.1-1.2,0-1.9c-0.1-0.6-0.5-1.2-0.9-1.8c-0.8-1.1-2-1.9-3.3-2.3l-0.1,0l0-0.1c-0.1-0.3-0.2-0.6-0.3-0.9
		C89.1,84.3,89,84,89,83.7c0-0.5,0-1.1,0.2-1.6C87.4,81.9,85.8,82.2,84.4,83z M86.6,86.3c-0.9,0-1.2-1.1-1.2-1.1s0.2-1.1,1.2-1.1
		c0.7,0,1.2,0.5,1.2,1.1C87.8,85.8,87.3,86.3,86.6,86.3z M92.1,88.7c0.5,0,0.4,0.5,0.9,1.1c0.5,0.7-0.4,1.1-0.9,1.1
		c-0.5,0-0.9-0.5-0.9-1.1C91.2,89.2,91.6,88.7,92.1,88.7z"/>
	<path class="st5" d="M92.1,90.9c0.5,0,1.4-0.5,0.9-1.1c-0.5-0.7-0.4-1.1-0.9-1.1c-0.5,0-0.9,0.5-0.9,1.1
		C91.2,90.4,91.6,90.9,92.1,90.9z"/>
	<path class="st5" d="M86.6,84.2c-1,0-1.2,1.1-1.2,1.1s0.3,1.1,1.2,1.1c0.7,0,1.2-0.5,1.2-1.1C87.8,84.6,87.3,84.2,86.6,84.2z"/>
	<path class="st2" d="M47.2,62.8c-0.5,0.3-4.1,13.6-2.5,18s1.7,10.5,7.6,13.2s4.4,0,6.5,1.8c2.2,1.8,3.8,6.1,5.2,7
		c1.3,0.9,6.6,4.3,6.8,4.9s0.9,0.9,0.9,0.9s-3.8,1.1-7.3,0.3s-6.6-4.8-8.4-4.7c-1.8,0.1-7.4-2-10.7-7.2C44,93.8,42,86.8,41.9,86.3
		C41.7,85.9,40,65.1,40,65.1l5.1-1.2L47.2,62.8z"/>
	<path class="st2" d="M77.7,87.3c0,0,0.5-1.7,2.1-2.8c0.2-1,0.4-2.7-0.2-3.1c-0.5-0.4-3.3,0.5-3.5,1c-0.3,0.5-1.2,2.8-0.9,3.4
		c0.3,0.5,0.3,2.1,0.9,2.1C76.7,87.7,77.7,87.3,77.7,87.3z"/>
	<path class="st2" d="M72.6,108.4c0.1,0.3,13.9,2.5,12.2-2.1c4.7,5.7,8.3,10.6,8.3,10.6s15.7,5.5,17.3,6.2c2.1-3.1,8.4-8.6,16.1-1.7
		c-0.2,3.3-1.6,4.5-1.6,4.2c-0.1-0.3-4.1-3.6-5.9-3.3c-1.8,0.3-4.2,3.1-4.7,3.6c-0.9,0.5-3.1,2-12.4,0.6c-7.2-1.3-14.7-2.5-16.6-3.9
		c-1.9-1.4-7.4-7.6-8.7-8.8C75.3,112.7,72.6,108.4,72.6,108.4z"/>
	<path class="st2" d="M83.2,91.9c-0.2,0.1-4.8,1.5-5.6,1.1c1.9,2.5,1.3,4.6,3.6,4.9s6.2-1.5,7.2-2.7C86.8,94.7,83.2,91.9,83.2,91.9z
		"/>
	<path class="st2" d="M33.5,22.2c-0.3,0.2-3.8,12.2-2.1,16.3c1.7,4.1,2.3,7.7,5.6,8.9c3.3,1.2,7.5,4,7.5,4s-9.4,0.4-10.2,0.3
		c-0.8-0.9-6.5-9.3-6.8-10c-0.3-0.7-0.6-5.5-0.3-7c0.3-1.6,2.7-7.3,3.2-8.3C30.9,25.3,33.5,22.2,33.5,22.2z"/>
	<path class="st2" d="M19.7,45.6c-0.3,0.3,0.4,9,3.2,11.6s2.8,3.7,4.6,1.4s4.9-3.2,7.6-4.2c2.7-1,11.3-2.8,10.9-2.8
		c-0.4-0.1-9.3-1.3-13.1-0.2c-3.8,1.1-7.3,3.4-8.1,3.2C24.1,54.3,19.7,45.6,19.7,45.6z"/>
	<path class="st2" d="M98.3,20.7c0,0,2.4,4.8-8.3,9.1c12.8-5.2,15.5-7.5,17-10.5c1.5-3,2.7-7.3,2.2-7.4c-0.4-0.1-4.9-0.2-4.9-0.2
		s-1.5,6.2-3.5,7.5C98.8,20.5,98.3,20.7,98.3,20.7z"/>
	<path class="st5" d="M75,86.3l0.1,0.2c0.1,0.1,0.1,0.3,0.2,0.4c0.1,0.3,0.3,0.6,0.6,0.9c0.1,0.1,0.2,0.1,0.3,0.2
		c0.1,0.1,0.2,0,0.3,0c0.2,0,0.3-0.1,0.5-0.2c0.3-0.1,0.5-0.3,0.8-0.5c-0.3,0.1-0.6,0.2-0.9,0.2c-0.1,0-0.3,0-0.4,0
		c-0.1,0-0.1,0-0.1,0c0,0-0.1-0.1-0.1-0.1c-0.1-0.2-0.2-0.4-0.2-0.7c0-0.1-0.1-0.3-0.1-0.4L75.9,86c0-0.1,0-0.1,0-0.2
		c0-0.2,0-0.5,0-0.7c0-0.1,0-0.2,0.1-0.4l0.1-0.4c0.1-0.3,0.2-0.5,0.3-0.8l0.1-0.4l0.1-0.2c0-0.1,0.1-0.1,0.1-0.1
		c0.2-0.4,1.8-0.9,2.6-1c0.2,0,0.3,0.1,0.4,0.2c0.1,0.2,0.2,0.3,0.1,0.6c0,0.6,0,1.2,0.1,1.8c0.2-0.6,0.4-1.2,0.5-1.7
		c0-0.1,0.1-0.3,0.1-0.5c0-0.2,0-0.4-0.1-0.6c-0.2-0.4-0.5-0.7-0.9-0.8c-0.1,0-0.2,0-0.3-0.1c-0.1,0-0.2,0-0.3,0c-0.2,0-0.3,0-0.5,0
		c-0.3,0-0.6,0.1-0.9,0.2c-0.3,0.1-0.6,0.2-1,0.4c-0.3,0.2-0.7,0.4-0.9,0.9c-0.1,0.1-0.1,0.2-0.1,0.3l-0.1,0.2l-0.1,0.4
		c-0.1,0.3-0.2,0.6-0.2,0.9l-0.1,0.5c0,0.2-0.1,0.3-0.1,0.5c0,0.4,0,0.7,0.1,1C74.9,86.2,75,86.2,75,86.3z"/>
	<path class="st5" d="M127.7,2.3c0-0.4,0-0.7,0-1.1l0-0.5c0-0.1,0-0.3-0.1-0.4c-0.1-0.2-0.2-0.3-0.4-0.3c-0.2,0-0.4,0-0.5,0.1
		l-0.2,0.2c-0.1,0.1-0.3,0.2-0.4,0.3c-0.3,0.2-0.6,0.3-0.9,0.5c-0.6,0.3-1.3,0.5-2,0.6c-1.4,0.3-2.7,0.6-4.1,0.8l-4.2,0.8
		c-1.4,0.3-2.8,0.6-4.2,0.9c-0.5,0.1-0.9,0.2-1.4,0.3c-0.8-1.2-1.9-2.2-3.2-2.8c-1.4-0.7-3-1-4.5-0.7c-1.5,0.2-2.9,0.9-4.1,1.6
		c-0.6,0.4-1.3,0.7-1.9,1.1c-0.6,0.4-1.2,0.9-1.7,1.5c-0.2,0.2-0.3,0.5-0.4,0.7c-2-0.5-4.1-0.7-6.2-0.9c-2.1-0.2-4.2-0.4-6.4-0.4
		c-2.1-0.1-4.3,0-6.4,0c-1.1,0-2.1,0.1-3.2,0.2c-1.1,0.1-2.1,0.1-3.2,0.1c-2.1,0-4.2-0.2-6.3-0.6c-2.1-0.4-4.1-0.9-6.2-1.3
		c-2.1-0.4-4.2-0.6-6.3-0.9c-2-0.2-4-0.4-6.1-0.5c-0.1-0.4-0.4-0.8-0.8-1c-0.3-0.2-0.5-0.2-0.8-0.3c-0.3-0.1-0.5-0.1-0.8-0.1
		c-0.5-0.1-1,0-1.5,0c-1,0.2-2,0.5-2.9,0.7C35.9,1,35.4,1.4,35.3,2c0,0,0,0.1,0,0.1c-0.8-0.1-1.5,0-2.3,0c-0.8,0.1-1.7,0.2-2.5,0.3
		c-1.7,0.2-3.3,0.5-5,0.7l-4.9,0.8l-2.4,0.4l-1.2,0.2l-0.6,0.1c-0.2,0-0.4,0-0.5,0c-0.7,0-1.5,0-2.2-0.2C12.7,4.2,12,4,11.2,3.8
		C9.7,3.3,8.2,2.7,6.7,2L5.6,1.5L5,1.2L4.7,1.1C4.6,1,4.5,1,4.3,0.9C3.2,0.5,1.9,1,1.2,1.9C0.9,2.4,0.7,3.1,0.7,3.4L0.5,4.6L0,7.1
		c-0.2,1,0.4,2.1,1.3,2.5c0.7,0.4,1.5,0.8,2.2,1.2c1.5,0.8,3,1.5,4.5,2.2c1.5,0.7,3.1,1.3,4.8,1.7c1.8,0.4,3.6,0.1,5.2-0.3
		c1.7-0.4,3.3-0.9,4.8-1.5c0.8-0.3,1.6-0.6,2.3-0.9l2.3-1c1.5-0.7,3-1.4,4.5-2.2l2-1c0,1.8,0.1,3.7,0.3,5.5l0.2,1.5
		c0.1,0.4,0.1,0.9,0.1,1.3c0,0.9-0.2,1.8-0.4,2.7c-0.2,0.9-0.6,1.7-1.2,2.6c-0.5,0.9-1,1.7-1.5,2.6c-1,1.7-2.2,3.4-3.1,5.2
		c-0.2,0.5-0.5,0.9-0.7,1.4c-0.2,0.5-0.4,1-0.5,1.5l-0.9,2.8c-0.3,1-0.6,1.9-0.8,3c-0.1,0.6-0.1,1.2,0,1.8c0.1,0.6,0.4,1.3,0.8,1.8
		c1.2,1.5,2.1,3.2,3.2,4.9c0.6,0.8,1.2,1.7,1.8,2.5c0.6,0.7,1.4,1.6,2.2,2.2c-1.3,0.3-2.6,0.6-3.8,1.1c-1.5,0.5-2.9,1.1-4.3,1.7
		c-0.3,0.1-0.6,0-0.8-0.3c-0.8-1.2-1.5-2.4-2.3-3.6c-0.5-0.8-0.9-1.5-1.3-2.4c-0.4-0.8-0.7-1.6-1-2.4c-0.1-1.3-0.2-2.6-0.5-3.9
		c-0.1-0.7-0.3-1.3-0.5-1.9c-0.2-0.7-0.4-1.3-0.7-1.9l0-0.1l-0.1-0.1c-1.4-1.1-2.9-2.1-4.4-3.1c-1.5-0.9-3-1.7-4.8-2.2
		c-0.8-0.8-1.6-1.6-2.2-2.5c-0.6-0.9-0.8-1.9-0.5-2.6l0.1-0.3c0.1-0.3,0-0.7-0.2-1c-0.2-0.3-0.4-0.5-0.7-0.6c-0.3-0.1-0.7-0.1-1,0.1
		C4.4,25,4.4,24.9,4.4,25l-0.1,0.1l-0.2,0.2c-0.2,0.1-0.3,0.2-0.4,0.3c-0.5,0.5-1,1-1.4,1.6c-0.8,1.2-1.3,2.5-1.3,4
		c0,1.5,0.7,2.9,1.6,3.9c1,1,2,1.7,3.1,2.4c1.1,0.7,2.3,1.2,3.5,1.6c1.2,0.4,2.4,0.7,3.6,0.7c-0.3,1.9-0.5,3.9-0.5,5.8
		c0,2,0.1,4,0.5,6c0.1,1,0.4,2,0.7,2.9c0.3,1,0.6,1.9,1.1,2.8c0.8,1.8,1.7,3.6,2.9,5.1c-0.1,1.4,0.5,2.9,1.7,3.8l0.4,0.4
		c0.2,0.1,0.3,0.2,0.5,0.3l0.5,0.3c0.1,0.1,0.3,0.1,0.4,0.2c0.4,0.1,0.7,0.3,1.1,0.4l1.1,0.2c0.4,0.1,0.7,0.1,1.1,0.1l1.1,0.1l2.1,0
		c1.4-0.1,2.8-0.1,4.2-0.4c2.8-0.4,4.9-0.9,7.4-1.7c0.4-0.1,0.7,0.2,0.7,0.5c0,1.9,0.1,7,0.2,9.9c0.1,3.9,0.5,7.8,2,11.5
		c0.8,1.7,1.3,3.6,1.9,5.4c0.5,1.9,1.1,3.8,2.2,5.5c1.1,1.7,2.7,3.1,4.5,4.1c0.4,0.2,0.8,0.4,1.3,0.6c-0.2,0.1-0.4,0.1-0.7,0.2
		c-0.7,0.2-1.4,0.5-2,0.8c-1.3,0.7-2.5,1.6-3.4,2.8c-0.2,0.3-0.4,0.6-0.6,1l-0.5,1c-0.3,0.6-0.7,1.2-1,1.8c-0.7,1.2-1.6,2.3-2.4,3.5
		c-0.8,1.1-1.7,2.3-2.4,3.6c-0.2,0.3-0.3,0.7-0.5,1.1c-0.1,0.3-0.2,0.5-0.4,0.7c-0.3,0.5-0.8,0.9-1.3,1.2c-1.1,0.6-2.4,0.9-3.7,0.7
		c-1.3-0.2-2.5-0.8-3.6-1.7c-0.4-0.7-0.8-1.4-1.2-2.1c-0.2-0.4-0.5-0.7-0.7-1c-0.1-0.1-0.2-0.2-0.3-0.3c-0.4-0.4-1.1-0.3-1.3,0.3
		c-0.3,0.8-0.6,1.8-0.7,2.5c-0.2,1.1-0.1,2.3,0.3,3.5c0.2,0.6,0.5,1.1,0.9,1.6c0.4,0.5,0.9,0.9,1.4,1.2c1,0.7,2.2,1.1,3.3,1.3
		c2.2,0.5,4.5,0.7,6.8,0.6c1.2-0.1,2.3-0.2,3.5-0.6c1.1-0.4,2.3-1,3.2-2.1c0.4-0.5,0.7-1.2,0.9-1.9c0-0.2,0.1-0.4,0.1-0.5
		c0-0.1,0-0.2,0-0.3c0-0.2,0.1-0.4,0.2-0.7c0.3-0.9,0.8-1.9,1.3-2.8c0.6-0.9,1.2-1.8,1.8-2.6c0.7-0.8,1.4-1.6,2.2-2
		c1.9-0.9,4-1.8,6-2.8c1-0.5,2-1,3-1.5c0.5-0.3,1-0.5,1.4-0.8c0.1-0.1,0.2-0.2,0.4-0.2c0.5,0.1,1,0.3,1.4,0.4
		c1.4,0.3,2.9,0.3,4.3,0.1c0.3-0.1,0.7-0.1,1-0.2c0.3-0.1,0.7-0.1,1-0.2c0.7-0.2,1.5-0.2,2.1-0.5c0,0,2.5,2.3,3.6,3.6
		c2,3.1,4.2,6.2,7,8.8c1.4,1.3,3,2.4,4.9,3.1c0.5,0.2,1,0.3,1.4,0.4l1.4,0.3c0.9,0.2,1.8,0.4,2.7,0.5c3.7,0.6,7.3,1.2,11,1.6
		c1.9,0.2,3.7,0.4,5.6,0.4c1,0,1.9-0.2,2.8-0.3c0.5-0.1,0.9-0.2,1.4-0.3c0.5-0.2,0.9-0.3,1.4-0.6l0,0l0,0c0.7-0.8,1.4-1.6,2.3-2.1
		c0.9-0.6,1.8-1,2.8-0.9c0.5,0,0.9,0.2,1.3,0.5c0.4,0.3,0.9,0.6,1.3,0.9l1.3,0.9c0.2,0.1,0.6,0.4,1,0.6c0.5,0.3,1.2,0.2,1.5-0.4
		c0.4-0.8,1-1.8,1.1-2.5c0.1-0.6,0.1-1.1,0-1.7c-0.1-0.6-0.4-1.2-0.8-1.6c-0.8-0.9-1.9-1.4-2.9-1.7c-0.5-0.2-1-0.2-1.5-0.4
		c-0.5-0.1-1-0.2-1.5-0.2c-2-0.2-4.2-0.1-6.2,0.8c-1.7,0.7-3.1,2-4.1,3.5c-1.3-0.6-2.5-0.9-3.8-1.3c-1.5-0.5-3.1-0.8-4.6-1.3
		c-1.5-0.4-3-0.9-4.5-1.4c-1.4-0.5-2.8-1.2-4-2c-0.8-1.1-1.7-2.2-2.5-3.3c-0.9-1.1-1.8-2.3-2.8-3.4c-0.9-1.1-1.9-2.2-2.9-3.3
		c-1-1-2-2.1-3-3c-0.3-1.5-0.5-3.1-0.7-4.7c1.3,0.4,2.7,0.3,4-0.2c0.7-0.2,1.3-0.6,1.9-1c0.5-0.3,0.9-0.7,1.3-1.1
		c0.6,0.2,1.2,0.4,1.8,0.4c0.8,0,1.7-0.1,2.4-0.6c0.7-0.5,1.2-1.1,1.6-1.8c0.3-0.7,0.5-1.4,0.6-2.2c0.1-0.8,0-1.6-0.3-2.3
		c-0.3-0.7-0.7-1.3-1.2-1.8c-1-1-2.1-1.8-3.3-2.4c-0.1-0.2-0.1-0.5-0.1-0.7c0-0.3,0-0.5,0-0.8c0.1-0.5,0.2-1,0.5-1.4l0.1-0.2
		l-0.1-0.3c-0.6-1.7-1.7-3.3-3.2-4.3c-0.8-0.5-1.7-0.9-2.5-1c-0.8-0.1-1.7-0.1-2.5,0.1c0,0,0,0,0,0c-1.4-0.2-2.9-0.1-4.4,0.3
		c-1.5,0.4-2.9,1.3-3.9,2.5c-0.3,0.3-0.5,0.6-0.7,1c-0.2,0.4-0.3,0.6-0.5,0.8c-0.3,0.4-0.7,0.7-1.2,0.9c-0.5,0.2-1,0.2-1.5,0.1
		c-0.6-0.2-1.2-0.4-1.8-0.6c-1.2-0.6-2.3-1.3-3.3-2.2c-0.5-0.4-1-0.9-1.4-1.4c-0.4-0.5-0.8-1-1-1.6c-0.5-1.4-1.3-2.7-2.1-3.9
		c-0.8-1.2-1.6-2.2-2.5-3.3c0.3-1.4,0.7-2.9,0.8-4.4c0.2-1.6,0.1-3.1-0.2-4.7c-0.1-0.4-0.1-0.8-0.2-1.2l-0.3-1.1
		c-0.2-0.8-0.5-1.5-0.8-2.2c-0.6-1.4-1.3-2.8-2.3-4c0.8-1.2,1.8-2.2,2.9-3.2c1.1-1,2.2-2,3.3-2.9c2.3-1.8,4.6-3.6,7.1-5.2
		c1.2-0.8,2.4-1.6,3.7-2.3c0.6-0.3,1.3-0.7,1.9-1c0.3-0.1,0.6-0.3,1-0.4l1.1-0.4c2.8-1,5.6-2,8.3-3.2l8.2-3.6l4.1-1.8
		c1.4-0.6,2.7-1.2,4.1-1.8c0.7-0.3,1.3-0.7,2-1.1c0.7-0.4,1.3-0.8,1.9-1.3c1.2-1,2.2-2.2,3.1-3.5c0.8-1.3,1.5-2.7,1.9-4.2
		c0.3-1.1,0.6-2.2,0.6-3.3c0.2,0,0.4,0,0.6,0c2.9-0.2,5.7-0.5,8.6-0.9c1.4-0.2,2.8-0.4,4.2-0.6l1.1-0.2c0.3-0.1,0.8-0.2,1.2-0.3
		c0.8-0.3,1.4-0.9,1.9-1.6c0.4-0.7,0.6-1.5,0.6-2.3l-0.2-2.2C127.8,3.7,127.7,3,127.7,2.3z M94.5,5.6c0.3-0.6,0.8-1.1,1.3-1.5
		c0.3-0.2,0.6-0.4,0.9-0.6c0.3-0.2,0.6-0.4,0.9-0.5c0.6-0.3,1.3-0.6,2-0.7c0.7-0.2,1.4-0.2,2.1-0.2c1.4,0,2.7,0.1,4,0.6
		c1.2,0.5,2.4,1.1,3.4,2c-2.3,0.5-4.5,0.9-6.8,1.1c-1.5,0.1-2.8,1.3-3,2.9c-0.1,0.8,0.1,1.6,0.5,2.3c0.4,0.6,1,1,1.6,1.3
		c-0.2,0.6-0.5,1.1-0.9,1.5c-0.5,0.5-1.1,0.8-1.7,0.9c-0.6,0.1-1.3,0.1-1.8-0.1c-0.3-0.1-0.4-0.3-0.6-0.5c-0.2-0.2-0.4-0.5-0.6-0.8
		c-0.4-0.6-0.7-1.2-0.9-1.8c-0.3-0.6-0.5-1.3-0.6-1.9C93.9,8.2,93.9,6.8,94.5,5.6z M93.6,11.8c0.3,0.7,0.6,1.4,1.1,2.1
		c0.2,0.3,0.5,0.6,0.8,0.9c0.3,0.3,0.7,0.6,1.1,0.7c0.8,0.3,1.7,0.2,2.5,0c0.8-0.3,1.4-0.8,1.9-1.4c0.4-0.6,0.6-1.2,0.6-1.9
		c0.1,0,0.1,0.1,0.2,0.1c0.4,0.1,0.8,0.1,1.2,0.2c0.4,0.1,0.7,0.1,1.1,0.1c0.2,0,0.5,0,0.7,0c-0.9,2.3-2.5,4.3-4.4,5.7
		c-2.2,1.6-4.7,3-7.2,4.3c-2.5,1.3-5.1,2.5-7.7,3.7c-2.6,1.1-5.3,2.3-8,3.3c-0.7,0.2-1.4,0.5-2,0.7l-1,0.3l-1,0.3
		c-1.4,0.4-2.8,0.7-4.2,1.1c-2.8,0.8-5.6,1.6-8.2,3c-1.3,0.7-2.6,1.5-3.7,2.4c-1.2,0.9-2.3,1.8-3.4,2.9c-1,1-2,2.1-2.9,3.3
		c-0.4,0.6-0.8,1.2-1.2,1.8L49,46.3c-0.1,0.2-0.3,0.5-0.4,0.7c-0.1,0.1-0.2,0.2-0.4,0.1c-1-0.3-1.9-0.5-2.9-0.8
		c-0.5-0.2-1-0.3-1.5-0.5c-0.4-0.1-0.8-0.3-1.1-0.4c-0.4-0.7-0.7-1.4-1.1-2.2c-0.4-0.8-0.8-1.6-1.3-2.4c-0.5-0.8-1.1-1.5-1.7-2.2
		c-0.6-0.7-1.2-1.3-1.9-1.8c0.5-2.4,1.4-4.7,2.3-7c0.5-1.2,0.9-2.4,1.3-3.6c0.4-1.2,0.8-2.4,1.1-3.7c0.3-1.2,0.7-2.5,0.9-3.8
		c0-0.3,0.1-0.7,0.1-1.1l0-0.9l0-1.9c0-1.3-0.1-2.5-0.1-3.8c-0.1-1.2-0.1-2.3-0.4-3.5c1.7,0.8,3.6,1.4,5.4,2
		c2.2,0.7,4.4,1.2,6.6,1.5c2.2,0.3,4.5,0.6,6.7,0.7c2.3,0,4.5,0,6.8,0c2.2,0,4.5,0.2,6.7,0.5c2.2,0.2,4.5,0.4,6.7,0.4
		c2.2,0,4.5,0.1,6.7-0.1c1.9-0.1,3.8-0.3,5.7-0.8C93.4,11.6,93.5,11.7,93.6,11.8z M43,3.7c0.1-0.5,0.2-1,0.3-1.5c0-0.1,0-0.2,0-0.3
		c3.9,1.3,8,2.1,12.1,2.7c2.1,0.3,4.3,0.3,6.4,0.4c2.1,0.1,4.2,0.3,6.4,0.5c1.1,0.1,2.1,0.2,3.2,0.3c1.1,0.1,2.1,0.2,3.2,0.3
		c2.1,0.1,4.2,0.3,6.4,0.4c2.1,0.1,4.2,0,6.4,0c2-0.1,4.1-0.2,6.1-0.4C93.1,6.6,93,7,92.9,7.4c-0.1,0.8-0.1,1.6,0,2.3
		c0.1,0.5,0.2,1,0.4,1.6c-4.2,0-8.3-0.2-12.5-0.4c-2.2-0.1-4.5-0.2-6.7-0.1c-2.2,0.1-4.5,0.2-6.7,0.3c-1.1,0.1-2.2,0.1-3.3,0
		c-0.6,0-1.1-0.1-1.6-0.2c-0.5-0.1-1.1-0.2-1.6-0.3c-2.2-0.5-4.4-0.9-6.5-1.4C50,8.1,45.8,7.4,41.5,6.8c0.1-0.1,0.2-0.2,0.3-0.3
		C42.4,5.7,42.8,4.7,43,3.7z M36.4,1c0.9-0.3,1.9-0.2,2.9,0c0.5,0.1,0.9,0.2,1.4,0.3l0.7,0.1c0.2,0.1,0.5,0.1,0.6,0.1
		c0.3,0.1,0.6,0.3,0.6,0.7c0.1,0.5,0.1,0.9,0,1.4C42.5,4.6,42,5.5,41.3,6c-0.7,0.5-1.6,0.8-2.4,0.8c-0.9,0-1.5-0.3-1.9-1
		c-0.5-0.6-0.7-1.5-1-2.4c-0.1-0.2-0.1-0.5-0.2-0.7c-0.1-0.2-0.1-0.5-0.1-0.7C35.6,1.6,35.9,1.1,36.4,1z M34.1,7.1
		c-0.8,0.2-1.6,0.5-2.4,0.8c-1.6,0.5-3.1,1.1-4.7,1.7c-3.1,1.2-6.2,2.3-9.3,3.2c-1.5,0.4-3.1,0.9-4.6,0.8c-1.6-0.2-3.2-0.7-4.7-1.3
		c-1.5-0.6-3-1.3-4.5-2.2C3.2,9.8,2.4,9.4,1.8,9C1.1,8.6,0.9,7.9,1,7.3l0.7-2.4l0.3-1.2c0.1-0.5,0.2-0.6,0.4-0.9
		c0.3-0.4,0.9-0.5,1.3-0.3c0.1,0,0.1,0.1,0.2,0.1l0.3,0.2l0.6,0.3l1.1,0.6c1.5,0.8,3.1,1.5,4.7,2c1.6,0.5,3.4,1,5.3,0.9
		c0.2,0,0.5,0,0.7-0.1l0.6-0.1l1.2-0.2c0.8-0.2,1.6-0.3,2.5-0.5c1.6-0.4,3.3-0.7,4.9-1.1l4.8-1.2c1.5-0.4,3.1-0.8,4.6-1
		c-0.1,0.4-0.1,0.8-0.1,1.2c-0.1,1,0.1,2.1,0.7,3.1c0,0,0.1,0.1,0.1,0.1C35.3,6.8,34.7,7,34.1,7.1z M4.6,25.7L4.6,25.7L4.6,25.7
		C4.5,25.8,4.5,25.8,4.6,25.7z M60.9,109c-0.5,0.2-1,0.4-1.5,0.6l-3.1,1.1c-2.1,0.8-4.1,1.5-6.2,2.3c-0.6,0.3-1.1,0.7-1.6,1
		c-0.4,0.4-0.8,0.8-1.2,1.2c-0.8,0.9-1.5,1.8-2.2,2.8c-0.6,1-1.2,2-1.6,3.2c-0.1,0.3-0.2,0.6-0.2,0.9c0,0.2-0.1,0.3-0.1,0.5
		c0,0.1,0,0.2,0,0.3c-0.1,0.4-0.2,0.7-0.5,1.1c-0.5,0.7-1.3,1.2-2.2,1.5c-0.9,0.3-1.9,0.5-3,0.6c-2.1,0.2-4.3,0-6.4-0.3
		c-1-0.2-2-0.4-2.9-0.9c-0.4-0.2-0.8-0.5-1.2-0.9c-0.3-0.4-0.6-0.8-0.8-1.2c-0.7-1.5-0.6-3.3,0-5c0.1-0.3,0.5-0.4,0.7-0.1
		c0.3,0.4,0.6,0.8,0.7,1c0.4,0.7,0.8,1.4,1.2,2.1l0,0l0.1,0c1.1,1,2.3,1.9,3.8,2.2c1.5,0.4,3.1,0.3,4.6-0.4c0.7-0.3,1.4-0.8,1.9-1.5
		c0.3-0.3,0.5-0.8,0.6-1.1c0.1-0.3,0.2-0.6,0.4-0.9c0.3-0.6,0.7-1.1,1.1-1.7l1.2-1.7c0.8-1.2,1.6-2.4,2.3-3.7c0.3-0.6,0.7-1.3,1-2
		l0.4-1c0.1-0.3,0.3-0.6,0.5-0.9c0.7-1.1,1.7-2.1,2.8-2.8c0.6-0.4,1.2-0.7,1.8-1c0.3-0.2,0.7-0.3,1-0.4c1.1,0.5,2.3,0.9,3.5,1.1
		c0.9,1,1.9,1.9,3.1,2.6C59.4,108.3,60.2,108.7,60.9,109C60.9,109,60.9,109,60.9,109z M89,83.7c0,0.3,0.1,0.6,0.2,0.9
		c0.1,0.3,0.2,0.6,0.3,0.9l0,0.1l0.1,0c1.3,0.5,2.5,1.3,3.3,2.3c0.4,0.5,0.7,1.1,0.9,1.8c0.2,0.6,0.1,1.3,0,1.9
		c-0.1,0.6-0.3,1.2-0.6,1.8c-0.3-0.2-0.7-0.2-1-0.3c-0.4-0.1-0.8,0-1.2,0.1c-0.4,0-0.8,0-1.2-0.1c-0.4-0.1-0.8-0.2-1.3-0.3
		c0,0-0.1,0-0.1,0c0,0,0,0.1,0,0.1c0.3,0.3,0.7,0.6,1.1,0.8c0.4,0.2,0.8,0.4,1.3,0.5c0.5,0.1,0.9,0.2,1.4,0.1c0.1,0,0.2-0.1,0.3-0.1
		c-0.2,0.2-0.3,0.3-0.5,0.4c-0.7,0.4-1.6,0.4-2.4,0.3c-0.8-0.3-1.6-0.6-2.3-0.9c-0.8-0.4-1.6-0.8-2.2-1.4c-0.1-0.1-0.3-0.3-0.4-0.4
		c-0.1-0.1-0.2-0.3-0.2-0.3c0,0,0-0.1,0-0.1l0,0c0,0,0,0,0-0.1c0.1-0.2,0.2-0.5,0.3-0.8c0.3-1.1,0.2-2.2-0.3-3.1
		c-0.1-0.2-0.3-0.5-0.4-0.6c-0.1-0.2-0.2-0.4-0.3-0.6c-0.2-0.4-0.3-0.9-0.3-1.3c0-0.5,0-0.9,0.2-1.4c0-0.1,0.1-0.2,0.1-0.3
		c0,0,0,0,0,0c0,0,0,0,0,0c0,0,0,0.1,0,0.1l0.1-0.1c0.2-0.1,0.4-0.2,0.5-0.4c1.3-0.9,3-1.1,4.8-1C89,82.6,89,83.1,89,83.7z
		 M106,19.1c-0.4,0.6-0.9,1.1-1.3,1.6c-0.5,0.5-1,1-1.5,1.5c-0.5,0.5-1.1,0.9-1.6,1.3c-0.6,0.4-1.2,0.8-1.8,1.2
		c-2.4,1.6-5.1,3-7.8,4.2c-2.7,1.2-5.5,2.1-8.4,2.9l-8.5,2.6l-1.1,0.3c-0.4,0.1-0.8,0.3-1.1,0.4c-0.7,0.3-1.4,0.6-2.1,1
		c-1.3,0.7-2.6,1.5-3.9,2.4c-2.5,1.7-4.8,3.6-6.9,5.7c-1.1,1.1-2.1,2.2-3,3.3c-0.5,0.6-0.9,1.2-1.3,1.8c-0.4,0.6-0.8,1.3-1,2
		c0,0,0,0.1,0,0.1c0,0,0,0,0,0l0,0c0.5,1.4,1,2.9,1.3,4.3c0.3,1.5,0.6,2.9,0.8,4.4c0.1,1.5,0.3,2.9,0.3,4.4c0.1,1.5,0,3-0.1,4.5
		l0,0.2l0.1,0.1c2,1.9,3.6,4.5,4.1,7.2c0,0.1,0.1,0.4,0.1,0.6c0.1,0.2,0.1,0.4,0.2,0.6c0.2,0.4,0.3,0.7,0.6,1
		c0.4,0.7,0.9,1.2,1.4,1.8c0.5,0.6,1.1,1.1,1.7,1.5c0.6,0.5,1.2,0.9,1.9,1.2c0.7,0.4,1.4,0.6,2.2,0.9c0.9,0.2,1.9,0.2,2.7-0.2
		c0.9-0.3,1.6-1,2.1-1.7c0.2-0.4,0.4-0.8,0.5-1.1c0.1-0.3,0.3-0.5,0.5-0.8c0.7-1,1.7-1.9,2.9-2.5c1.2-0.6,2.5-1,4-1.2
		c0.8,0,1.6,0.2,2.4,0.4c0.8,0.3,1.5,0.6,2.1,1.1c0.6,0.5,1.2,1.1,1.6,1.8c0.3,0.5,0.6,1,0.9,1.6c-0.7-0.3-1.5-0.5-2.3-0.5
		c-1,0-2.1,0.3-2.9,1c-0.2,0.2-0.4,0.4-0.5,0.6l-0.1,0.2c0,0-0.1,0.1-0.1,0.2l0,0.1c0,0.1,0,0.1,0,0.1c0,0.2,0,0.3,0,0.4
		c0.1,0.5,0.1,1,0.1,1.4c0,0.5,0,1,0.1,1.5c0.1,0.2,0.1,0.5,0.2,0.7c0.1,0.2,0.2,0.4,0.2,0.7c0.2,0.9,0.2,1.7-0.1,2.4
		c-0.1,0.2-0.2,0.4-0.3,0.5c0,0-0.1,0.1-0.1,0.2c0,0.1-0.1,0.2-0.1,0.3c0,0.2-0.1,0.4,0,0.6c0,0.2,0.1,0.4,0.2,0.5
		c0.1,0.1,0.2,0.3,0.3,0.4c0.2,0.2,0.4,0.4,0.6,0.6c0.9,0.7,1.8,1,2.8,1.3c0.2,0,0.4,0.1,0.6,0.1c-0.3,0.4-0.7,0.8-1.1,1.1
		c-0.5,0.4-1,0.8-1.6,1c-0.6,0.3-1.2,0.5-1.8,0.7c-0.6,0.2-1.3,0.2-1.9,0.2c0,0,0,0-0.1,0C81,97.9,81,98,81,98c0,1.7,0.1,3.3,0.3,5
		l0,0.1l0.1,0.1c1,1,1.9,2.1,2.8,3.3c0.9,1.1,1.8,2.3,2.7,3.4c0.9,1.2,1.7,2.3,2.6,3.5c0.8,1.2,1.7,2.4,2.5,3.5L92,117l0.1,0.1
		c1.4,1.1,2.9,1.8,4.4,2.4c1.5,0.6,3.1,1.1,4.6,1.6c1.5,0.5,3.1,0.9,4.6,1.3c1.5,0.4,3,0.9,4.3,1.6l0.9,0.5l0.5-0.9
		c0.8-1.6,2-2.9,3.6-3.6c1.6-0.7,3.5-0.9,5.3-0.7c0.5,0,0.9,0.1,1.4,0.2c0.5,0.1,0.9,0.2,1.4,0.3c0.9,0.2,1.7,0.6,2.2,1.1
		c0.8,0.7,0.7,2,0.3,3.1c-0.2,0.5-0.8,0.7-1.3,0.4l0,0l-1.4-0.9c-0.5-0.3-0.9-0.6-1.4-0.9c-0.5-0.3-1.1-0.5-1.8-0.5
		c-1.3,0-2.3,0.6-3.2,1.2c-0.9,0.7-1.7,1.4-2.3,2.3c-0.3,0.2-0.7,0.4-1.1,0.5c-0.4,0.1-0.9,0.2-1.3,0.3c-0.9,0.2-1.8,0.3-2.7,0.3
		c-1.8,0-3.7-0.3-5.5-0.5c-3.6-0.6-7.3-1.4-10.8-2.3l-2.7-0.6l-1.3-0.3c-0.4-0.1-0.8-0.2-1.2-0.4c-1.6-0.6-3-1.6-4.4-2.8
		c-2.7-2.4-4.9-5.3-7-8.3l0,0l0,0c-1.6-1.7-3.4-3.2-5.3-4.6c-1.9-1.3-3.8-2.6-5.8-3.7c0,0-0.1,0-0.1,0c0,0,0,0.1,0,0.1
		c0.9,0.7,1.8,1.4,2.7,2.1c0.9,0.7,1.8,1.4,2.6,2.2c0.3,0.3,0.5,0.4,0.8,0.7c-1.3,0.1-2.5,0.3-3.9,0.2c-1.3-0.1-2.6-0.2-3.9-0.6
		c-1.2-0.4-2.4-0.9-3.4-1.6c-1-0.7-1.9-1.6-2.8-2.6l-0.2-0.3l-0.3-0.1c-1.8-0.4-3.6-0.9-5.2-1.7c-1.6-0.8-3.1-1.9-4.3-3.3
		c-1.2-1.4-2.1-3.1-2.7-4.9c-0.6-1.8-1.1-3.7-1.7-5.5c-0.5-1.8-0.6-3.7-0.7-5.6l-0.4-5.7c-0.2-3.5-0.2-7-0.5-10.5
		c0-0.3,0.1-0.5,0.4-0.6c2.1-0.6,4-1.3,5.8-2.7c0,0,0-0.1,0-0.1c0,0-0.1-0.1-0.1,0l0,0c-1.2,0.6-2.6,0.8-3.9,1.1
		c-1.3,0.3-2.6,0.4-4,0.7l-4,0.8l-2,0.4c-0.7,0.1-1.3,0.2-2,0.3c-2.6,0.4-5.3,0.8-7.9,0.6c-1.3-0.1-2.6-0.3-3.7-1
		c-1.1-0.6-1.8-1.8-1.7-3.1l0-0.1l-0.1-0.1c-1.3-1.4-2-3.3-2.5-5.2c-0.5-1.9-0.7-3.8-1-5.7c-0.3-1.9-0.6-3.8-0.8-5.8L13,39.7
		c0,0,0-0.1-0.1-0.1c0,0-0.1,0-0.1,0c-1.2-0.2-2.3-0.7-3.4-1.2c-1.1-0.6-2.1-1.2-3.1-1.9c-0.5-0.4-1-0.7-1.4-1.2L4.6,35l-0.3-0.3
		c-0.2-0.2-0.4-0.4-0.6-0.6c-0.7-0.9-1.1-1.9-1-2.9c0.1-1,0.5-2.1,1.1-2.9C4,28.1,4.1,28,4.2,27.9c0,0.2,0,0.3,0.1,0.5
		c0.2,0.8,0.5,1.4,0.9,2C6,31.6,6.9,32.5,8,33.3l0.2,0.1l0.2,0c1.6,0.4,3.2,1.1,4.7,1.9c0.8,0.4,1.5,0.8,2.3,1.2
		c0.7,0.4,1.5,0.8,2.1,1.3c0.3,0.5,0.5,1,0.7,1.6c0.2,0.6,0.4,1.2,0.6,1.8c0.1,0.5,0.2,0.9,0.3,1.4c0.1,0.7,0.3,1.7,0.3,2.4l0,0l0,0
		c0.3,0.9,0.6,1.7,1,2.6c0.4,0.8,0.8,1.6,1.2,2.5c0.6,1.2,1.7,3.5,2.2,4.7c0.2,0.4,0.6,0.6,1.1,0.5c1.3-0.4,4-1.3,5.3-1.7
		c1.8-0.6,3.6-1.1,5.4-1.5c1.8-0.4,3.7-0.6,5.6-0.6c1.9,0,3.8,0.2,5.7,0.4c0,0,0.1,0,0.1-0.1c0,0,0-0.1-0.1-0.1
		c-1.8-0.7-3.7-1.1-5.7-1.3c-1.9-0.2-3.9-0.1-5.9,0.2c-0.5,0.1-1,0.2-1.5,0.3c-1.2-1.5-2.2-3.5-3-5.3c-0.4-0.9-0.8-1.8-1.3-2.7
		c-0.2-0.5-0.5-0.9-0.7-1.4c-0.1-0.2-0.3-0.5-0.4-0.7l-0.2-0.3L28,40.3l-0.1-0.1c-0.2-0.3-0.4-0.6-0.4-0.9c-0.1-0.3,0-0.7,0-1.2
		c0.1-0.9,0.3-1.8,0.6-2.8c0.2-1,0.5-1.9,0.7-2.9c0.1-0.5,0.2-1,0.3-1.4c0.1-0.5,0.2-0.9,0.4-1.4c0.6-1.9,1.6-3.6,2.7-5.2
		c0.6-0.8,1.2-1.6,1.8-2.3c0.3-0.4,0.6-0.8,1-1.2c0.3-0.4,0.6-0.9,0.8-1.4c0.4-1,0.7-2.1,0.6-3.2c0-0.5-0.1-1.1-0.2-1.6l-0.3-1.5
		c-0.4-1.8-0.8-3.6-1.4-5.4c0.3-0.2,0.7-0.3,1-0.5C35.7,7.1,35.9,7,36.1,7c0.3,0.3,0.7,0.6,1.1,0.8C37.5,7.9,37.8,8,38.1,8
		c0.3,0,0.6,0,0.9,0c0.5,0,1.1-0.2,1.6-0.4c0.3-0.1,0.5-0.3,0.7-0.5c0.1,0.1,0.3,0.2,0.4,0.2c-0.1,1.2-0.3,2.4-0.4,3.6
		c-0.1,1.3-0.3,2.5-0.4,3.8c-0.1,0.6-0.1,1.3-0.2,1.9l-0.1,1c0,0.2-0.1,0.5-0.1,0.8c-0.3,1.2-0.6,2.4-0.9,3.6l-0.9,3.7
		c-0.3,1.2-0.6,2.5-0.9,3.7c-0.3,1.3-0.5,2.5-0.7,3.8c-0.3,1.2-0.6,2.5-0.9,3.7l0,0.2l0.2,0.1c0.6,0.6,1.1,1.3,1.6,2.1
		c0.4,0.8,0.8,1.6,1.1,2.4c0.4,0.8,0.7,1.6,1.2,2.4c0.4,0.8,0.8,1.6,1.4,2.4l0.1,0.2l0.2,0.1c0.6,0.3,1.2,0.4,1.7,0.5
		c0.6,0.1,1.1,0.2,1.7,0.2c1.1,0.1,2.2,0.1,3.3,0c0.2,0,0.4-0.3,0.5-0.4l0.4-0.4l0.7-0.8c0.5-0.5,1-1.1,1.5-1.6c1-1,2-2,3.1-2.9
		c1.1-0.9,2.2-1.8,3.4-2.6c1.2-0.8,2.4-1.6,3.6-2.3c2.4-1.4,5-2.8,7.7-3.8c0.7-0.2,1.4-0.5,2.1-0.6c0.7-0.2,1.4-0.4,2.1-0.6l4.2-1.1
		c2.8-0.7,5.6-1.5,8.3-2.5c2.7-1,5.4-2.1,8-3.4c1.3-0.7,2.6-1.4,3.8-2.1c0.6-0.4,1.2-0.8,1.9-1.2c0.6-0.4,1.2-0.9,1.8-1.4
		c1.1-1,2.1-2.3,2.7-3.6c0.5-1.1,0.8-2.2,1-3.3c0.3,0,0.7,0,1,0c1.1,0,2.1,0,3.2-0.1C108.6,15,107.4,17.2,106,19.1z M127.2,6.6
		c0,0.6-0.3,1.2-0.7,1.7c-0.4,0.5-0.9,0.8-1.5,1c-0.3,0.1-0.5,0.1-0.9,0.1l-1.1,0.1l-4.3,0.4l-8.5,0.7c-1.4,0.1-2.8,0.2-4.2,0.3
		L104,11l-1,0.1c-0.4,0-0.7,0-1,0c-0.6,0-1.1-0.3-1.6-0.7c-0.4-0.4-0.7-1.1-0.7-1.7c0-1.3,1.1-2.6,2.5-2.7c2.8-0.3,5.7-0.3,8.6-0.5
		c1.4-0.1,2.9-0.2,4.3-0.4c1.4-0.2,2.8-0.5,4.2-0.9c1.4-0.4,2.8-0.8,4.1-1.4c0.7-0.3,1.3-0.6,2-0.9c0.3-0.2,0.6-0.4,1-0.6
		c0.2-0.1,0.3-0.2,0.4-0.4l0.2-0.2l0,0c0,0,0,0,0,0.1l0,0.5c0,0.4,0,0.7,0.1,1.1c0,0.7,0.1,1.4,0.1,2.1
		C127.2,5.2,127.2,5.9,127.2,6.6z"/>
</g>
</svg>
