<?xml version="1.0" encoding="utf-8"?>
<!-- Generator: Adobe Illustrator 24.1.2, SVG Export Plug-In . SVG Version: 6.00 Build 0)  -->
<svg version="1.1" id="Layer_1" xmlns="http://www.w3.org/2000/svg" xmlns:xlink="http://www.w3.org/1999/xlink" x="0px" y="0px"
	 viewBox="0 0 128 128" style="enable-background:new 0 0 128 128;" xml:space="preserve">
<style type="text/css">
	.st0{fill:#4C3636;}
	.st1{fill:#5E3D3D;}
	.st2{fill:#E5B693;}
	.st3{fill:#894040;}
	.st4{fill:#A04A4A;}
	.st5{fill:#2D2D2D;}
</style>
<g>
	<path class="st0" d="M95.59,91.67c-0.02-0.73,0.01-1.46,0.1-2.18c0.07-0.42,0.17-0.86,0.33-1.26c-1.06,0.27-2.13,0.47-3.24,0.56
		c-0.3,0.52-0.72,0.94-1.08,1.32c-0.45,0.47-0.89,0.89-1.16,1.28c-0.13,0.2-0.22,0.36-0.3,0.51c-0.04,0.08-0.07,0.16-0.11,0.25
		c-0.03,0.09-0.02,0.18,0,0.34c0.06,0.6,0.18,1.27,0.29,1.92c0.46,2.63,1.41,5.13,2.58,7.52c1.2,2.39,2.23,4.83,3.26,7.27
		c0.53,1.21,1.02,2.44,1.49,3.67c0.42,1.09,0.82,2.23,1.25,3.26c0.91,0.17,1.81,0.37,2.69,0.63c0.89,0.26,1.76,0.56,2.61,0.94
		c0.59-0.18,1.18-0.29,1.77-0.39c0.73-0.1,1.46-0.19,2.2-0.14c0.74,0.05,1.48,0.22,2.22,0.19c0.54-0.03,1.07-0.13,1.58-0.3
		c-1.76-0.51-3.49-1.13-5.18-1.89c-0.04-0.02-0.05-0.06-0.04-0.1c0.01-0.03,0.04-0.05,0.07-0.04c2.41,0.2,4.76,0.62,7.08,1.03
		c0.15-0.09,0.3-0.18,0.46-0.27l0.99-0.55c0.37-0.2,0.83-0.34,1.27-0.38c0.45-0.04,0.9,0,1.33,0.13c0.21,0.06,0.42,0.14,0.62,0.24
		c0.08,0.04,0.15,0.09,0.22,0.14c0.37-0.09,0.76-0.16,1.27-0.12c0.09,0.01,0.2,0.03,0.28,0.05l0.19,0.05l0.36,0.1
		c0.24,0.06,0.46,0.12,0.68,0.16c0.44,0.1,0.85,0.14,1.19,0.09c0.34-0.05,0.6-0.19,0.83-0.47c0.06-0.11,0.13-0.18,0.12-0.23
		c0-0.07-0.02-0.19-0.15-0.33c-0.22-0.28-0.61-0.55-1.04-0.73c-0.43-0.18-0.91-0.3-1.38-0.29c-0.24,0-0.47,0.04-0.7,0.1
		c-0.24,0.05-0.51,0.15-0.75,0.2c-1.01,0.24-2,0.56-3.01,0.74c-1.01,0.17-2.03,0.18-3.05,0.15c-1.02-0.04-2.04-0.12-3.06-0.37
		c-0.04-0.01-0.06-0.05-0.05-0.09c0.01-0.03,0.03-0.05,0.05-0.05c1-0.3,2-0.46,3.01-0.6c1-0.12,2-0.24,3.01-0.23
		c1,0.01,2.03,0.15,3.01,0c0.25-0.03,0.46-0.09,0.72-0.17c0.26-0.09,0.52-0.13,0.79-0.17c0.28-0.03,0.56-0.05,0.85-0.04
		c-0.12-0.48-0.55-0.66-0.98-0.86c-0.25-0.1-0.51-0.19-0.78-0.27l-0.4-0.11c-0.14-0.04-0.28-0.08-0.35-0.07
		c-0.18-0.02-0.34,0.01-0.5,0.06l-0.36,0.15l-0.41,0.16c-0.56,0.2-1.12,0.41-1.67,0.64l-0.41,0.17l-0.46,0.18
		c-0.31,0.1-0.62,0.19-0.92,0.25c-0.61,0.14-1.22,0.23-1.82,0.3c-0.89,0.09-1.78,0.13-2.67,0.15c-0.02,0.02-0.03,0.05-0.06,0.05
		c-1.45,0.14-2.88,0.1-4.32-0.03c-0.72-0.05-1.43-0.17-2.15-0.27c-0.36-0.06-0.71-0.13-1.07-0.21c-0.15-0.02-0.46-0.11-0.67-0.2
		c-0.23-0.1-0.46-0.22-0.67-0.37c-0.41-0.31-0.75-0.71-1-1.16c-0.07-0.13-0.11-0.22-0.14-0.29l-0.11-0.25l-0.22-0.51
		c-0.28-0.68-0.53-1.36-0.75-2.05c-0.43-1.38-0.84-2.77-1.22-4.16c-0.77-2.77-1.44-5.58-1.92-8.42
		C95.8,94.56,95.63,93.12,95.59,91.67z"/>
	<path class="st1" d="M120.96,119.12c0.11,0.19,0.18,0.46,0.17,0.72c-0.01,0.05-0.02,0.09-0.03,0.13c0.14-0.08,0.27-0.18,0.4-0.33
		c0.06-0.11,0.13-0.18,0.12-0.23c0-0.07-0.02-0.19-0.15-0.33c-0.22-0.28-0.61-0.55-1.04-0.73c-0.07-0.03-0.15-0.06-0.22-0.08
		C120.47,118.48,120.75,118.72,120.96,119.12z"/>
	<path class="st1" d="M20.68,88.06c0.7,0.57,1.39,1.15,2.06,1.76c0.11-0.37,0.16-0.76,0.25-1.15c0.11-0.58,0.25-1.15,0.42-1.72
		c0.17-0.57,0.38-1.14,0.68-1.68c0.29-0.54,0.64-1.07,1-1.6c0.18-0.26,0.37-0.54,0.57-0.79l0.6-0.71c0.4-0.47,0.95-0.97,1.58-1.26
		c0.62-0.28,1.22-0.41,1.8-0.54c0.56-0.13,1.12-0.23,1.69-0.33c2.37-2.61,5-4.97,7.81-7.11c-1.25-0.06-2.5-0.13-3.76-0.29
		c-1.73-0.24-3.5-0.6-5.16-1.38c-0.83-0.38-1.59-0.92-2.27-1.52c-0.69-0.59-1.25-1.31-1.88-1.64c-0.63-0.34-1.51-0.18-2.27,0.1
		c-0.77,0.28-1.49,0.74-2.13,1.27c-0.64,0.54-1.22,1.14-1.7,1.78c-0.48,0.62-0.9,1.3-1.05,1.88c-0.06,0.29-0.05,0.51,0.02,0.66
		l0.23,0.66l0.19,0.66c0.24,0.86,0.43,1.72,0.59,2.58c0.31,1.72,0.51,3.46,0.64,5.2C20.69,84.59,20.77,86.31,20.68,88.06z"/>
	<path class="st1" d="M125.69,56.51c-0.03-0.18-0.1-0.35-0.16-0.53l-0.12-0.25c-0.02-0.04-0.04-0.09-0.05-0.12
		c-0.02-0.01-0.03-0.03-0.04-0.05c-0.09-0.14-0.36-0.35-0.7-0.52c-0.34-0.17-0.74-0.31-1.16-0.42c-0.84-0.24-1.75-0.38-2.67-0.48
		c-1.84-0.19-3.77-0.28-5.63-0.23l-1.13-1.17c0,0,0-0.11,0-0.18c-0.01-0.08-0.02-0.16-0.04-0.24c-0.03-0.16-0.08-0.32-0.15-0.48
		c-0.12-0.31-0.33-0.58-0.59-0.81c-0.52-0.46-1.29-0.76-2.14-0.9c-1.69-0.26-3.64-0.09-5.36,0.37c-0.86,0.24-1.69,0.59-2.41,1.07
		c-0.36,0.24-0.7,0.52-1,0.83c-0.15,0.14-0.29,0.31-0.42,0.47c-0.14,0.18-0.35,0.43-0.54,0.63c-0.8,0.82-1.84,1.37-2.95,1.56
		c-1.05,0.13-1.97,0.2-2.96,0.29c-0.98,0.09-1.95,0.17-2.95,0.2c-1,0.05-2.02-0.04-2.96-0.11c-0.96-0.07-1.88-0.02-2.78,0.24
		c-0.89,0.24-1.75,0.68-2.55,1.19c-0.94,0.55-1.91,0.72-2.86,0.98c-0.95,0.24-1.91,0.45-2.86,0.67c-1.9,0.43-3.8,0.87-5.67,1.38
		c-3.76,1.02-7.47,2.16-11.1,3.51C58.1,64.72,54.5,66.12,51,67.76c-6.97,3.24-13.53,7.38-19.49,12.41
		c-0.01,0.02-0.03,0.04-0.05,0.05c-1.04,0.57-2.22,1.02-3.06,1.66c-0.41,0.3-0.67,0.71-0.97,1.19l-0.44,0.75
		c-0.14,0.24-0.25,0.48-0.36,0.73c-0.22,0.52-0.38,1.07-0.57,1.62c-0.19,0.56-0.44,1.09-0.73,1.62c-0.3,0.53-0.62,1.05-1.04,1.55
		c-0.2,0.25-0.43,0.49-0.69,0.72c-0.11,0.08-0.22,0.17-0.35,0.24c0.3,0.27,0.59,0.55,0.88,0.82c1.37,1.31,2.67,2.7,3.87,4.19
		c1.2,1.48,2.5,3,3.18,4.89c0.34,0.94,0.61,1.92,0.68,2.95c0.08,1.01-0.03,2.08-0.48,2.98c-0.03,0.06-0.1,0.08-0.16,0.05
		c-0.03-0.01-0.05-0.05-0.06-0.08c-0.32-1.9-1.09-3.43-1.92-5.01l-1.25-2.36c-0.41-0.82-0.86-1.62-1.36-2.39
		c-1.01-1.54-2.12-3.02-3.28-4.49c-1.15-1.46-2.38-2.88-3.65-4.26c-0.01-0.01-0.02-0.03-0.02-0.05c-1.14-0.97-2.35-1.84-3.66-2.47
		c-0.82-0.39-1.7-0.71-2.51-0.72c-0.21-0.01-0.4,0.02-0.57,0.07c-0.09,0.02-0.17,0.05-0.24,0.09c-0.07,0.04-0.12,0.07-0.25,0.16
		c-0.45,0.28-0.88,0.49-1.32,0.69c-0.87,0.39-1.75,0.73-2.49,1.16c-0.37,0.21-0.72,0.47-0.84,0.69c-0.06,0.11-0.05,0.15-0.04,0.23
		c0,0,0.05,0.21,0.04,0.3c0,0.13-0.01,0.22-0.03,0.31c-0.04,0.16-0.08,0.3-0.13,0.43c-0.39,0.99-0.88,1.77-1.34,2.61l-1.4,2.44
		c-1.84,3.24-3.48,6.68-4.11,10.41c-0.32,1.85-0.39,3.74-0.19,5.6c0.2,1.8,0.64,3.56,1.31,5.22c2.74,1.5,5.6,2.82,8.58,3.55
		c0.76,0.18,1.52,0.32,2.28,0.4c0.39,0.04,0.75,0.06,1.17,0.08c0.02,0,0.16,0.01,0.29,0.04c0.05,0.01,0.14,0.04,0.17,0.05l0.09,0.04
		l0.29,0.14l0.55,0.27c1.44,0.77,2.86,1.51,4.26,2.39c0.18,0.11,0.35,0.22,0.54,0.36c0.1,0.07,0.18,0.12,0.34,0.27l0.21,0.28
		c0.19,0.23,0.47,0.47,0.75,0.68c0.57,0.38,1.21,0.65,1.84,0.64c0.31-0.01,0.63-0.07,0.93-0.2c0.3-0.12,0.6-0.3,0.76-0.48
		c0.16-0.18,0.18-0.29,0.12-0.54c-0.08-0.23-0.3-0.51-0.55-0.74c-0.53-0.48-1.19-0.86-1.92-1.15c-0.77-0.33-1.48-0.74-2.18-1.15
		c-1.39-0.85-2.72-1.76-4.02-2.73c-0.03-0.03-0.04-0.07-0.01-0.1c0.02-0.03,0.06-0.04,0.09-0.02c1.41,0.77,2.83,1.54,4.27,2.23
		c0.71,0.34,1.44,0.68,2.16,0.92c0.79,0.25,1.6,0.6,2.31,1.16c0.06,0.05,0.12,0.1,0.17,0.15c1.38,0.29,2.74,0.67,4.08,1.08
		c0.73,0.23,1.46,0.45,2.17,0.71c0.72,0.25,1.44,0.49,2.15,0.78l0.29,0.11l0.1,0.3c0.29,0.92,0.68,1.94,1.35,2.62
		c0.33,0.32,0.75,0.56,1.23,0.54c0.47-0.01,0.97-0.24,1.36-0.55c0.4-0.3,0.65-0.77,0.55-1.22c-0.08-0.45-0.42-0.87-0.78-1.21
		c-0.37-0.34-0.81-0.64-1.26-0.88c-0.44-0.22-0.97-0.46-1.32-0.51c-0.65-0.1-1.13-0.26-1.67-0.42l-1.57-0.49
		c-1.04-0.33-2.05-0.73-3.05-1.16c-2-0.86-3.97-1.81-5.84-2.99c-0.04-0.02-0.05-0.06-0.02-0.1c0.01-0.02,0.04-0.04,0.07-0.03
		c0.1,0.02,0.19,0.04,0.29,0.06c0.56-0.15,1.1-0.27,1.6-0.43c0.41-0.12,0.81-0.3,1.01-0.48c-0.48-0.07-1.02-0.11-1.55-0.16
		c-1.13-0.12-2.35-0.23-3.46-0.68c-0.28-0.11-0.55-0.23-0.82-0.36c-0.58,0.1-1.14,0.1-1.7,0.04c-0.59-0.05-1.17-0.19-1.74-0.37
		c-0.56-0.18-1.1-0.42-1.6-0.77c-0.45-0.3-0.85-0.63-1.34-0.9c-0.96-0.54-1.97-1.03-2.97-1.54c-1-0.53-2.03-1-3.05-1.51
		c-0.05-0.03-0.07-0.09-0.05-0.15c0.02-0.04,0.07-0.06,0.12-0.06c0.31,0.05,0.62,0.12,0.93,0.17c0.08-1.86,0.44-3.6,0.84-5.32
		c0.38-1.75,1.13-3.38,1.64-5.07c0.47-1.51,0.32-3.28-0.03-4.99c-0.34-1.72-0.94-3.42-1.65-5.07c-0.03-0.05,0-0.12,0.05-0.14
		c0.05-0.02,0.1-0.01,0.13,0.04c1.04,1.5,1.87,3.13,2.52,4.87c0.16,0.45,0.31,0.92,0.43,1.4c0.06,0.2,0.11,0.41,0.15,0.63
		c0.01,0.04,0.02,0.08,0.02,0.13c0.06,0.23,0.1,0.47,0.13,0.72c0,0.02,0.01,0.05,0.01,0.08c0.04-0.01,0.08,0.01,0.1,0.03
		c1.2,1.24,2.49,2.63,3.63,3.99c0.35,0.4,0.68,0.83,1.01,1.24c0.7,0.91,1.38,1.83,2.05,2.76c0.69,0.92,1.32,1.88,1.93,2.84
		l3.59,5.91c0.21,0.31,0.43,0.62,0.67,0.9l0.23-0.01c0.16-0.01,0.33-0.01,0.55,0.03c0.12,0.03,0.23,0.05,0.41,0.15
		c0.16,0.09,0.39,0.31,0.46,0.59c0.07,0.22,0.05,0.4,0.02,0.54h0.01c0.96,0.45,2.05,0.23,3.18,0.08c1.1-0.16,2.18-0.41,3.15-0.79
		c0.95-0.38,1.74-0.92,2.09-1.65l0.61-1.53l0.68-1.59c0.44-1.05,0.9-2.08,1.31-3.13c0.87-2.07,1.68-4.17,2.23-6.31
		c0.27-1.07,0.47-2.16,0.52-3.25c0.06-1.1-0.05-2.2-0.46-3.28c-0.02-0.05,0.01-0.11,0.06-0.14c0.05-0.01,0.1,0,0.13,0.03
		c0.75,0.93,1.19,2.12,1.36,3.32c0.2,1.2,0.17,2.42,0.04,3.62c-0.26,2.39-0.94,4.69-1.76,6.88c-0.05,0.14-0.11,0.27-0.17,0.4
		c2.85,0.36,5.7,0.63,8.55,0.75c3.54,0.13,7.08,0.11,10.53-0.4c0.85-0.15,1.71-0.29,2.55-0.54c0.43-0.11,0.85-0.21,1.27-0.33
		l1.25-0.39c1.66-0.54,3.25-1.24,4.83-1.94c3.06-1.29,6.04-2.77,8.95-4.62c-0.41-0.78-0.82-1.56-1.23-2.34l-1.08-2.04l-0.54-1.01
		c-0.19-0.33-0.36-0.67-0.54-1.1c-0.35-0.8-0.57-1.8-0.33-2.77c0.23-0.97,0.75-1.78,1.33-2.4c1.18-1.27,2.51-2.1,3.73-2.98
		c0.6-0.44,1.19-0.88,1.7-1.36c0.52-0.49,1.05-1.03,1.56-1.59c1.02-1.11,2.02-2.27,3.03-3.42c1.01-1.16,2.03-2.31,3.09-3.43
		c0.54-0.57,1.07-1.12,1.65-1.65c0.58-0.53,1.14-1.06,1.85-1.43c0.05-0.03,0.12-0.01,0.15,0.04c0.02,0.05,0.01,0.1-0.03,0.13
		l-0.01,0.01c-1.11,1-1.98,2.28-2.9,3.51l-2.71,3.72c-0.91,1.24-1.84,2.47-2.84,3.68c-0.51,0.6-1.01,1.2-1.59,1.78
		c-0.59,0.59-1.23,1.07-1.85,1.56l-1.83,1.36c-0.6,0.44-1.15,0.9-1.61,1.39c-0.46,0.48-0.83,0.99-0.98,1.54
		c-0.16,0.54-0.1,1.13,0.1,1.75c0.09,0.29,0.25,0.66,0.4,1.02l0.43,1.08l0.87,2.14c0.58,1.43,1.16,2.86,1.78,4.26
		c1.23,2.83,2.56,5.61,4.01,8.31c1.46,2.7,3,5.38,4.71,7.87c0.21,0.31,0.43,0.62,0.65,0.9c0.22,0.28,0.44,0.61,0.67,0.8
		c0.41,0.49,1,0.8,1.61,1.07c1.23,0.53,2.68,0.71,4.12,0.76c1.46,0.03,2.93-0.08,4.42-0.25c1.51-0.18,2.96-0.42,4.44-0.61l0.25-0.03
		l0.14,0.02c2.41,0.38,4.8,0.82,7.19,1.26l1.79,0.33l0.89,0.17l0.45,0.08c0.08,0.02,0.18,0.05,0.3,0.08c0.47,0.09,0.99,0.09,1.27,0
		c0.13-0.05,0.17-0.08,0.22-0.13c-0.06-0.08-0.18-0.2-0.32-0.3c-0.19-0.15-0.41-0.29-0.65-0.41c-0.48-0.26-1-0.48-1.54-0.7
		c-0.54-0.2-1.09-0.38-1.65-0.55c-0.56-0.16-1.13-0.29-1.72-0.45c-1.17-0.31-2.33-0.67-3.47-1.03c-1.03-0.33-2.05-0.66-3.06-1.02
		c-0.46,0-0.92-0.01-1.38-0.04c-0.03,0-0.06-0.04-0.06-0.08c0-0.03,0.02-0.05,0.05-0.06c1.22-0.42,2.43-0.7,3.64-0.95l0.07-0.02
		l0.11,0.01c0.36,0.04,0.72,0.09,1.07,0.13c0.98-0.29,1.96-0.44,2.94-0.59c1.01-0.12,2.01-0.24,3.01-0.23
		c0.39,0,0.78,0.03,1.18,0.04c-0.06-0.01-0.12-0.03-0.17-0.04c-0.57-0.12-1.14-0.24-1.74-0.39c-0.03-0.01-0.05-0.02-0.08-0.02
		c-0.09,0.02-0.19,0.04-0.28,0.06l-0.6,0.07c-0.77,0.03-1.51,0.06-2.25,0.19c-0.73,0.11-1.46,0.41-2.2,0.55
		c-0.73,0.14-1.48,0.11-2.23,0.06c-0.6-0.05-1.21-0.14-1.81-0.31c-2.04-0.11-4.04-0.21-6.02-0.24h-0.44l-0.28-0.46
		c-0.76-1.23-1.32-2.42-1.88-3.66c-0.54-1.22-1.02-2.47-1.45-3.74c-0.88-2.53-1.7-5.06-2.29-7.69c-0.63-2.61-1.44-5.13-2.56-7.58
		c-0.28-0.63-0.55-1.23-0.78-1.92c-0.11-0.34-0.25-0.91-0.15-1.38c0.08-0.5,0.32-0.93,0.6-1.25c0.57-0.66,1.21-1.02,1.85-1.29
		c0.64-0.28,1.26-0.43,1.93-0.64h0.01c0.03-0.01,0.07,0,0.09,0.01c2.29-1.54,4.68-2.72,6.86-3.99c0.58-0.34,1.16-0.66,1.67-1.05
		c0.51-0.38,0.97-0.83,1.47-1.34c0.49-0.51,1.11-1.03,1.7-1.47c0.57-0.44,1.14-0.9,1.71-1.36l3.4-2.79
		c0.58-0.46,1.18-0.92,1.81-1.32c0.16-0.1,0.32-0.19,0.48-0.29c0.16-0.09,0.33-0.19,0.45-0.26c0.25-0.16,0.5-0.33,0.74-0.54
		c1-0.77,1.94-1.78,2.84-2.84c0.85-0.99,1.67-2.04,2.55-3.09c-2.08,1.23-4.19,2.36-6.31,3.48c-1.71,0.91-3.49,1.78-5.13,2.71
		c-1.65,0.99-3.27,2.08-4.9,3.13c-0.05,0.04-0.12,0.02-0.15-0.03c-0.03-0.04-0.02-0.1,0.02-0.14c1.49-1.26,3-2.49,4.57-3.67
		c0.8-0.6,1.65-1.09,2.47-1.61l2.48-1.53c3.28-2.06,6.61-4.09,9.61-6.39c1.46-1.15,2.8-2.49,3.68-3.97
		c0.44-0.75,0.74-1.53,0.82-2.28C125.79,57.24,125.78,56.86,125.69,56.51z M110.47,64.14c-1.71,0.04-3.13-1.32-3.17-3.05
		c-0.04-1.73,1.31-3.16,3.02-3.2c1.71-0.04,3.13,1.32,3.17,3.05C113.53,62.66,112.18,64.1,110.47,64.14z M111.86,55.53
		c-1.1-0.31-2.21-0.37-3.24-0.1c-1.03,0.29-2,0.85-2.91,1.6c-0.24,0.16-0.42,0.4-0.65,0.6l-0.66,0.62
		c-0.41,0.45-0.81,0.91-1.29,1.35c0.2-0.61,0.46-1.18,0.73-1.77c0.34-0.54,0.67-1.1,1.09-1.6c0.86-0.99,1.99-1.83,3.34-2.19
		c1.35-0.36,2.81-0.13,3.98,0.45c1.2,0.58,2.17,1.46,2.92,2.47C114.03,56.4,112.97,55.84,111.86,55.53z M13.2,98.6
		c0.82,1.65,1.91,3.31,2.88,4.88c-1.01-1.65-2.07-3.31-2.89-5.08c0.01,0.06,0.01,0.12,0.01,0.19V98.6z M13.07,98.14
		c0.04,0.08,0.08,0.17,0.12,0.25c-0.01-0.14-0.02-0.27-0.04-0.4c-0.01,0-0.02,0.01-0.02,0.01C13.07,98.02,13.05,98.09,13.07,98.14z"
		/>
	<path class="st2" d="M119.99,119.69c-0.2-0.26-0.73-0.56-1.21-0.77c-0.44-0.19-0.9-0.35-1.37-0.5c-0.94,0.23-1.87,0.52-2.82,0.69
		c-0.93,0.16-1.86,0.17-2.79,0.16c0.93,0.22,1.85,0.5,2.77,0.74c0.26,0.07,0.52,0.14,0.79,0.2c0.29-0.11,0.59-0.21,0.89-0.3
		c0.53-0.14,1.01-0.29,1.72-0.23c0.09,0.01,0.2,0.03,0.28,0.05l0.19,0.05l0.36,0.1c0.24,0.06,0.46,0.12,0.68,0.16
		c0.18,0.04,0.36,0.06,0.53,0.08c0.02-0.03,0.04-0.05,0.05-0.08c0.01-0.05,0.02-0.09,0.04-0.13c-0.01-0.03-0.02-0.05-0.01-0.07
		C120.05,119.78,120.05,119.75,119.99,119.69z"/>
	<path class="st1" d="M119.61,116.94c-0.25-0.14-0.53-0.25-0.83-0.35c-0.04,0-0.09,0-0.13,0.01c-0.54,0.04-1.1,0.09-1.66,0.15
		c0.21,0.07,0.42,0.13,0.62,0.21c0.48,0.18,0.95,0.38,1.42,0.61c0.35-0.04,0.7-0.04,1.05-0.02
		C120.03,117.26,119.84,117.08,119.61,116.94z"/>
	<path class="st2" d="M19.4,123.37c-0.02-0.02-0.03-0.04-0.05-0.08C19.32,123.26,19.37,123.33,19.4,123.37z"/>
	<path class="st2" d="M26.55,117.09c0,0,0.01,0.01,0.01,0.01c0.05,0.02,0.03,0.01,0.01,0C26.57,117.09,26.56,117.09,26.55,117.09z"
		/>
	<path class="st3" d="M28.4,97.29c2.53,1.28,10.47,1.18,12.91-1.9c1.6,2.75,30.33-1.66,39.2-7.35c4.51-4.13,9.51-11,11.15-12.25
		c1.64-1.24,5.75-8.47,4.11-10.58c-3.27-0.6-6.7-2.11-5.51-4.51c1.19-2.41,3.27-4.96,3.27-4.96s-4.42-0.75-6.75-0.07
		c-2.33,0.68-5.75,2.18-8.73,2.63c-2.98,0.45-21.46,5.47-27.42,8.86c-5.95,3.39-13.53,8.53-16.34,10.5
		c-2.81,1.97-2.38,2.32-4.19,2.76c-1.81,0.44-3.37,2.84-4.45,4.23c-1.08,1.4-2.94,5.32-2.59,5.98S28.4,97.29,28.4,97.29z"/>
	<path class="st1" d="M93.08,74.64c-0.85,1.18-1.49,11.78,2.5,12.53c-1.2,1.09-5.87,2.94-6.04,3.8s1.88,8.23,2.51,10.31
		c0.63,2.07,4.79,14.8,6.27,15.55s5.81,1.38,7.41,1.15c1.6-0.23,3.7-0.06,4.5-0.23s3.7-0.92,5.3-0.35s3.48,0.81,4.33,1.67
		s3.25,2.07,0.68,1.84c-2.56-0.23-4.22-0.75-4.96-0.35c-0.74,0.4-2.62,0.69-1.48,1.09s4.9,1.73,3.88,3.05
		c-1.03,1.32-8.89-0.52-12.03-0.75s-10.32,1.32-13.51-0.12s-8.61-12.49-9.4-13.7s-6.95-14.68-7.3-15.78
		c-0.34-1.09,1.88-4.03,4.05-5.53c2.17-1.5,10.6-11.17,11.06-11.86C91.31,76.29,93.08,74.64,93.08,74.64z"/>
	<path class="st4" d="M77.3,58.46c4.01-0.98,6.51-4.19,7.2-1.12c0.69,3.08-3.46,3.36-0.97,7.27c2.49,3.92-6.78-0.56-11.21-0.42
		s-6.37,0.56-12.73,3.36S40.07,80.28,36.2,82.23c-3.88,1.96-4.71-3.08-6.51,1.54c-1.8,4.61-3.18,9.79-4.71,8.11
		c-1.52-1.68-0.28-1.54,0.28-4.61s-0.28-5.17,3.32-6.43c3.6-1.26,6.78-4.05,8.58-5.73c1.8-1.68,10.24-7.55,17.72-9.79
		C62.36,63.08,77.3,58.46,77.3,58.46z"/>
	<path class="st1" d="M107.32,119.67c-0.28,0.02-0.55,0.03-0.83,0.04c1.77,0.31,3.55,0.62,5.31,0.9c0.63,0.08,1.29,0.19,1.95,0.32
		c0.2-0.11,0.41-0.22,0.62-0.32c-1.2-0.09-2.4-0.11-3.57-0.27C109.62,120.18,108.47,119.93,107.32,119.67z"/>
	<path class="st5" d="M127.89,56.03c-0.06-0.3-0.16-0.59-0.26-0.88l-0.18-0.41c-0.03-0.07-0.06-0.13-0.1-0.21l-0.16-0.26
		c-0.46-0.67-1.03-1.01-1.55-1.28c-0.53-0.26-1.05-0.43-1.57-0.58c-1.03-0.28-2.03-0.43-3.04-0.55c-1.68-0.18-3.32-0.2-4.99-0.16
		c-0.07-0.25-0.15-0.51-0.27-0.75c-0.26-0.6-0.68-1.11-1.16-1.53c-0.97-0.81-2.12-1.15-3.19-1.31c-1.09-0.17-2.13-0.1-3.16-0.02
		c-1.02,0.1-2.04,0.31-3.04,0.64c-1,0.33-1.98,0.79-2.85,1.43c-0.44,0.32-0.85,0.69-1.22,1.09c-0.19,0.2-0.36,0.42-0.52,0.65
		c-0.16,0.21-0.24,0.35-0.39,0.52c-0.53,0.63-1.26,1.08-2.07,1.27c-0.88,0.17-1.9,0.33-2.84,0.47c-0.96,0.15-1.92,0.28-2.87,0.37
		c-0.95,0.1-1.88,0.06-2.87,0.05c-0.99-0.01-2.04,0.06-3.01,0.38c-0.98,0.31-1.87,0.79-2.71,1.32c-0.75,0.46-1.73,0.69-2.65,0.92
		c-0.94,0.23-1.9,0.42-2.85,0.62l-5.75,1.11c-3.84,0.75-7.67,1.63-11.44,2.77c-3.77,1.14-7.43,2.64-10.97,4.38
		c-3.65,1.79-7.15,3.91-10.42,6.33c-1.36-0.57-2.76-0.94-4.11-1.34c-1.64-0.44-3.22-0.95-4.69-1.59c-0.74-0.33-1.49-0.65-2.23-1.02
		c-0.37-0.17-0.74-0.38-1.13-0.6c-0.39-0.2-0.8-0.44-1.29-0.59c-0.49-0.15-1-0.13-1.46-0.06c-0.45,0.08-0.88,0.18-1.32,0.31
		c-0.85,0.28-1.66,0.64-2.46,1.05c-0.8,0.41-1.58,0.89-2.3,1.5c-0.71,0.62-1.38,1.34-1.78,2.41c-0.19,0.55-0.3,1.22-0.1,1.91
		L17.07,75l0.13,0.61l0.48,2.51c0.71,3.24,1.5,6.49,2.65,9.69c-0.03-0.03-0.06-0.05-0.09-0.08c-1.12-1.27-2.41-2.41-3.89-3.3
		c-0.84-0.47-1.74-0.91-2.81-1c-0.26-0.02-0.54-0.01-0.83,0.05c-0.14,0.03-0.28,0.08-0.42,0.14c-0.14,0.06-0.29,0.16-0.36,0.2
		c-0.35,0.2-0.78,0.36-1.21,0.54c-0.86,0.33-1.76,0.64-2.66,1.1c-0.44,0.25-0.92,0.52-1.31,1.1c-0.19,0.29-0.29,0.76-0.2,1.13
		c0,0.02,0.01,0.04,0.01,0.05v0.01c-0.01,0.01-0.01,0.02-0.01,0.03c-0.02,0.07-0.04,0.15-0.08,0.24c-0.33,0.77-0.83,1.61-1.28,2.42
		c-0.46,0.83-0.9,1.68-1.32,2.53c-1.67,3.44-2.9,7.11-3.51,10.88c-0.61,3.77-0.5,7.71,0.72,11.41l0.04,0.14l0.16,0.1
		c2.72,1.77,5.67,3.29,8.87,4.15c0.8,0.22,1.61,0.39,2.45,0.51c0.41,0.06,0.85,0.1,1.23,0.13c0.01,0,0.01,0,0.02,0c0,0,0,0,0.01,0
		l0.25,0.13l0.53,0.27c1.4,0.74,2.82,1.53,4.17,2.31c0.16,0.1,0.33,0.2,0.47,0.29c0.05,0.04,0.11,0.08,0.12,0.09
		s0.02,0.03,0.03,0.04c0.05,0.07,0.09,0.12,0.13,0.17c0.34,0.38,0.69,0.66,1.07,0.92c0.77,0.51,1.71,0.84,2.69,0.79
		c0.49-0.03,0.97-0.16,1.4-0.36c0.42-0.2,0.83-0.44,1.19-0.89c0.18-0.22,0.33-0.53,0.37-0.85c0.05-0.32-0.02-0.65-0.13-0.9
		c-0.07-0.18-0.17-0.33-0.27-0.46c1.08,0.56,2.17,1.06,3.27,1.55c0.69,0.29,1.39,0.61,2.09,0.88c0.63,0.24,1.25,0.48,1.87,0.71
		c0.19,0.45,0.39,0.88,0.67,1.27c0.33,0.49,0.74,0.95,1.25,1.3c0.51,0.35,1.18,0.54,1.79,0.43c0.61-0.1,1.13-0.38,1.58-0.76
		c0.47-0.33,0.84-0.97,0.76-1.62c-0.08-0.64-0.4-1.16-0.76-1.62c-0.37-0.45-0.8-0.85-1.26-1.21c-0.47-0.34-0.91-0.67-1.61-0.87
		c-0.42-0.12-0.96-0.35-1.45-0.54l-1.5-0.61c-0.99-0.42-2.01-0.8-3.04-1.14c-1.21-0.41-2.44-0.8-3.69-1.14
		c0.45-0.04,0.93-0.16,1.41-0.58c0.09-0.07,0.17-0.18,0.25-0.28c0.55,0.29,1.17,0.45,1.79,0.52c0.63,0.06,1.17,0.06,1.76,0.08
		c1.17,0.01,2.37-0.01,3.59-0.32c0.61-0.15,1.23-0.39,1.82-0.76c0.58-0.36,1.13-0.89,1.51-1.53l1.57-3.18
		c0.39-0.81,0.75-1.64,1.09-2.46c2.85,0.57,5.73,1.01,8.63,1.3c3.56,0.38,7.16,0.49,10.78,0.14c0.9-0.11,1.81-0.23,2.69-0.4
		c0.9-0.14,1.79-0.33,2.67-0.55c1.77-0.43,3.55-0.88,5.23-1.64c1.68-0.74,3.28-1.67,4.74-2.79c1.31-1.02,2.54-2.16,3.51-3.53
		c0.24,0.46,0.49,0.93,0.72,1.4c1.39,2.75,2.72,5.53,4.02,8.32c1.32,2.79,2.57,5.61,4.11,8.34c0.19,0.34,0.39,0.69,0.62,1.02
		c0.23,0.34,0.43,0.68,0.74,1.02c0.55,0.74,1.34,1.21,2.1,1.59c1.55,0.76,3.2,1,4.79,1.11c3.14,0.19,6.09-0.22,9.14-0.61
		c2.27,0.39,4.56,0.73,6.84,1.07l1.76,0.26l1.32,0.18c0.21,0.04,0.4,0.08,0.58,0.11c0.71,0.08,1.43,0.13,2.28-0.2
		c0.42-0.16,0.89-0.52,1.14-1c0.06-0.12,0.11-0.24,0.16-0.36c0.04-0.15,0.07-0.34,0.08-0.51c-0.01-0.34-0.12-0.68-0.26-0.89
		c-0.29-0.46-0.62-0.7-0.92-0.9c-0.3-0.2-0.61-0.36-0.91-0.5c-0.6-0.27-1.19-0.47-1.8-0.65c-0.21-0.06-0.43-0.11-0.65-0.16
		c0.57-0.06,1.13-0.12,1.68-0.15c0.22-0.01,0.46-0.03,0.69-0.03c0.28,0.06,0.56,0.12,0.85,0.2c0.09,0.01,0.17,0.03,0.26,0.04
		l0.12,0.05c0.24,0.09,0.5,0.17,0.78,0.24c0.54,0.13,1.15,0.22,1.81,0.07c0.67-0.13,1.31-0.6,1.65-1.16
		c0.18-0.32,0.37-0.75,0.26-1.21c-0.09-0.42-0.34-0.77-0.6-0.96c-0.52-0.43-1.08-0.57-1.63-0.67c-0.1-0.01-0.2-0.01-0.3-0.02
		c0.06-0.15,0.1-0.31,0.07-0.49c-0.01-0.11-0.04-0.21-0.08-0.31l0.26,0.1c0.25,0.09,0.51,0.17,0.78,0.24
		c0.54,0.14,1.16,0.22,1.82,0.07c0.66-0.13,1.3-0.6,1.64-1.16c0.19-0.32,0.37-0.75,0.27-1.2c-0.1-0.43-0.34-0.78-0.6-0.97
		c-0.52-0.42-1.09-0.57-1.63-0.66c-0.17-0.03-0.35-0.03-0.52-0.04c0.1-0.26,0.08-0.61-0.05-0.88c-0.16-0.34-0.4-0.62-0.66-0.84
		c-0.26-0.23-0.54-0.4-0.82-0.58c-0.14-0.08-0.29-0.15-0.44-0.22c-0.14-0.07-0.28-0.14-0.5-0.2c-0.41-0.12-0.87-0.11-1.28,0.03
		c-0.23,0.08-0.31,0.13-0.47,0.2c-0.14,0.06-0.28,0.13-0.41,0.2c-0.54,0.29-1.07,0.6-1.6,0.9l-0.4,0.22l-0.36,0.2
		c-0.25,0.11-0.52,0.22-0.79,0.32c-0.55,0.19-1.12,0.35-1.69,0.49c-0.94,0.24-1.9,0.43-2.86,0.62c-1.27-0.43-2.53-0.83-3.78-1.21
		l-1.99-0.64l-0.99-0.32c-0.19-0.06-0.22-0.09-0.33-0.14c-0.08-0.05-0.16-0.11-0.23-0.18c-0.15-0.13-0.27-0.29-0.35-0.48l-0.38-0.91
		l-0.82-1.93c-0.57-1.28-1.09-2.61-1.58-3.93c-0.96-2.66-1.82-5.36-2.49-8.11c-0.34-1.36-0.64-2.75-0.81-4.14
		c-0.09-0.71-0.13-1.4-0.1-2.1c0.02-0.47,0.07-0.96,0.22-1.4c0.16-0.04,0.32-0.08,0.47-0.12c1.41-0.41,2.8-0.93,4.11-1.73
		c0.65-0.4,1.28-0.87,1.86-1.43c0.58-0.55,1.09-1.18,1.5-1.79c0.41-0.62,0.73-1.19,1.17-1.76c0.45-0.58,0.9-1.14,1.39-1.67
		c0.96-1.05,2.07-1.98,3.36-2.56c0.64-0.3,1.31-0.52,1.97-0.73l0.5-0.16c0.17-0.05,0.33-0.1,0.54-0.18
		c0.39-0.16,0.76-0.35,1.09-0.59c1.33-0.95,2.25-2.19,3.02-3.49c0.74-1.3,1.33-2.67,1.64-4.15c0.01-0.02-0.01-0.05-0.02-0.07
		c1.17-0.71,2.33-1.45,3.47-2.26c1.62-1.2,3.19-2.57,4.35-4.41c0.57-0.92,1.04-1.99,1.18-3.18
		C128.02,57.25,128.02,56.63,127.89,56.03z M19.93,77.66c-0.16-0.86-0.35-1.72-0.59-2.59l-0.19-0.66l-0.23-0.66
		c-0.07-0.14-0.08-0.36-0.02-0.66c0.15-0.58,0.56-1.26,1.05-1.88c0.48-0.64,1.06-1.24,1.7-1.78c0.64-0.53,1.35-0.99,2.13-1.27
		c0.76-0.28,1.64-0.44,2.27-0.1c0.63,0.33,1.19,1.06,1.88,1.65c0.69,0.6,1.44,1.13,2.27,1.53c1.67,0.78,3.44,1.14,5.17,1.38
		c1.26,0.15,2.51,0.23,3.76,0.29c-2.81,2.14-5.44,4.5-7.81,7.11c-0.57,0.1-1.13,0.2-1.69,0.33c-0.59,0.13-1.18,0.25-1.8,0.54
		c-0.63,0.29-1.17,0.8-1.58,1.26l-0.59,0.71c-0.21,0.25-0.4,0.54-0.58,0.8c-0.36,0.54-0.7,1.06-0.99,1.6
		c-0.3,0.55-0.51,1.11-0.68,1.68c-0.17,0.58-0.31,1.14-0.42,1.72c-0.1,0.39-0.15,0.79-0.25,1.15c-0.68-0.61-1.36-1.19-2.07-1.76
		c0.1-1.75,0.02-3.48-0.1-5.19C20.43,81.12,20.23,79.39,19.93,77.66z M120.05,120.02c-0.01,0.03-0.04,0.05-0.05,0.08
		c-0.17-0.02-0.35-0.04-0.53-0.08c-0.22-0.04-0.45-0.1-0.68-0.16l-0.37-0.1l-0.19-0.05c-0.08-0.01-0.19-0.03-0.28-0.04
		c-0.71-0.06-1.19,0.09-1.72,0.23c-0.3,0.09-0.6,0.19-0.89,0.3c-0.27-0.06-0.53-0.12-0.79-0.2c-0.92-0.24-1.84-0.52-2.77-0.74
		c0.94,0.01,1.87,0,2.8-0.16c0.95-0.16,1.88-0.45,2.82-0.69c0.47,0.14,0.94,0.3,1.37,0.5c0.49,0.22,1.02,0.51,1.22,0.78
		c0.06,0.06,0.06,0.09,0.08,0.13c0,0.02,0.01,0.04,0.02,0.07C120.07,119.93,120.06,119.97,120.05,120.02z M114.36,120.62
		c-0.2,0.1-0.41,0.21-0.61,0.32c-0.66-0.13-1.32-0.24-1.95-0.32c-1.76-0.28-3.54-0.6-5.31-0.9c0.27-0.01,0.55-0.03,0.83-0.04
		c1.15,0.25,2.31,0.51,3.48,0.67C111.96,120.52,113.17,120.54,114.36,120.62z M119.04,117.58c-0.47-0.23-0.95-0.44-1.43-0.62
		c-0.2-0.08-0.41-0.14-0.61-0.21c0.56-0.05,1.11-0.11,1.65-0.15h0.14c0.29,0.09,0.58,0.2,0.82,0.34c0.23,0.14,0.42,0.31,0.48,0.61
		C119.74,117.54,119.38,117.54,119.04,117.58z M120.42,118.35c0.43,0.18,0.82,0.46,1.04,0.74c0.12,0.14,0.15,0.26,0.15,0.33
		c0.01,0.05-0.06,0.12-0.12,0.23c-0.12,0.14-0.25,0.25-0.4,0.32c0.01-0.04,0.02-0.09,0.03-0.13c0.01-0.26-0.06-0.54-0.16-0.72
		c-0.21-0.4-0.49-0.65-0.76-0.86C120.27,118.29,120.35,118.31,120.42,118.35z M97.93,104.41c0.38,1.38,0.79,2.77,1.22,4.15
		c0.22,0.69,0.47,1.37,0.75,2.05l0.22,0.51l0.11,0.25c0.04,0.08,0.08,0.17,0.14,0.29c0.25,0.45,0.59,0.85,1,1.16
		c0.21,0.15,0.44,0.27,0.67,0.37c0.21,0.09,0.53,0.18,0.67,0.2c0.36,0.07,0.71,0.15,1.07,0.21c0.72,0.1,1.43,0.22,2.15,0.27
		c1.44,0.12,2.87,0.16,4.32,0.03c0.03-0.01,0.04-0.03,0.06-0.05c0.89-0.02,1.78-0.06,2.68-0.15c0.6-0.07,1.21-0.16,1.82-0.29
		c0.31-0.07,0.61-0.16,0.92-0.25l0.46-0.18l0.42-0.17c0.55-0.23,1.11-0.43,1.67-0.64l0.41-0.16l0.36-0.15
		c0.16-0.05,0.33-0.08,0.51-0.06c0.06,0,0.21,0.04,0.35,0.07l0.4,0.11c0.27,0.08,0.53,0.17,0.78,0.27c0.43,0.2,0.86,0.38,0.98,0.86
		c-0.28,0-0.56,0.01-0.84,0.04c-0.27,0.05-0.54,0.09-0.79,0.17c-0.26,0.07-0.47,0.14-0.72,0.17c-0.98,0.14-2.01,0-3.01,0
		c-1.01-0.01-2.01,0.1-3.01,0.23c-1,0.14-2.01,0.29-3.01,0.6c-0.02,0.01-0.04,0.03-0.05,0.06c-0.01,0.04,0.02,0.08,0.06,0.09
		c1.02,0.24,2.03,0.32,3.05,0.36c1.02,0.02,2.04,0.02,3.05-0.15c1.01-0.18,2-0.51,3.01-0.74c0.25-0.05,0.52-0.15,0.75-0.2
		c0.23-0.06,0.46-0.11,0.7-0.1c0.48-0.02,0.96,0.1,1.38,0.28c0.43,0.17,0.82,0.45,1.05,0.73c0.12,0.14,0.14,0.26,0.14,0.33
		c0.01,0.06-0.05,0.13-0.12,0.23c-0.23,0.28-0.49,0.42-0.83,0.47c-0.34,0.04-0.75,0-1.19-0.1c-0.22-0.04-0.44-0.1-0.68-0.16
		l-0.36-0.09l-0.19-0.05c-0.08-0.02-0.19-0.04-0.29-0.05c-0.5-0.04-0.89,0.03-1.26,0.12c-0.08-0.05-0.15-0.09-0.23-0.14
		c-0.19-0.09-0.4-0.17-0.62-0.24c-0.42-0.13-0.88-0.16-1.33-0.13c-0.44,0.05-0.9,0.18-1.27,0.38l-0.99,0.55
		c-0.15,0.09-0.3,0.18-0.46,0.27c-2.32-0.41-4.67-0.84-7.08-1.03c-0.03,0-0.06,0.01-0.07,0.04c-0.02,0.04,0,0.08,0.03,0.1
		c1.69,0.76,3.42,1.37,5.19,1.89c-0.51,0.16-1.05,0.26-1.59,0.29c-0.73,0.03-1.48-0.13-2.22-0.18c-0.73-0.05-1.46,0.04-2.19,0.14
		c-0.59,0.09-1.18,0.2-1.77,0.38c-0.85-0.37-1.72-0.68-2.61-0.94c-0.88-0.25-1.78-0.45-2.69-0.63c-0.43-1.02-0.83-2.16-1.25-3.25
		c-0.46-1.23-0.96-2.46-1.49-3.68c-1.04-2.43-2.06-4.88-3.26-7.27c-1.17-2.39-2.12-4.89-2.58-7.52c-0.11-0.66-0.23-1.32-0.29-1.93
		c-0.02-0.16-0.03-0.24,0-0.34c0.03-0.09,0.07-0.17,0.11-0.25c0.07-0.14,0.16-0.3,0.29-0.51c0.27-0.38,0.71-0.81,1.16-1.27
		c0.37-0.38,0.78-0.8,1.08-1.32c1.11-0.1,2.18-0.29,3.24-0.57c-0.16,0.4-0.26,0.84-0.32,1.26c-0.1,0.73-0.13,1.45-0.11,2.18
		c0.04,1.45,0.21,2.89,0.42,4.32C96.49,98.84,97.16,101.64,97.93,104.41z M125.77,57.61c-0.08,0.76-0.38,1.54-0.82,2.28
		c-0.88,1.48-2.22,2.82-3.68,3.97c-3,2.3-6.33,4.33-9.61,6.39l-2.48,1.53c-0.82,0.52-1.67,1.01-2.47,1.61
		c-1.57,1.18-3.08,2.4-4.57,3.67c-0.04,0.04-0.05,0.1-0.02,0.14c0.03,0.05,0.1,0.07,0.15,0.03c1.63-1.05,3.25-2.14,4.9-3.13
		c1.64-0.93,3.42-1.8,5.13-2.71c2.12-1.11,4.23-2.24,6.31-3.48c-0.88,1.05-1.7,2.1-2.55,3.09c-0.9,1.06-1.84,2.07-2.84,2.84
		c-0.24,0.2-0.49,0.37-0.74,0.54c-0.12,0.07-0.29,0.17-0.45,0.26c-0.16,0.1-0.32,0.19-0.48,0.29c-0.63,0.4-1.23,0.86-1.81,1.32
		l-3.4,2.79c-0.57,0.46-1.14,0.92-1.71,1.36c-0.59,0.44-1.21,0.97-1.7,1.47c-0.5,0.52-0.96,0.96-1.47,1.34
		c-0.51,0.39-1.09,0.71-1.67,1.05c-2.18,1.27-4.57,2.45-6.86,3.99c-0.02-0.01-0.06-0.02-0.09-0.01h-0.01
		c-0.67,0.2-1.29,0.35-1.93,0.64c-0.64,0.27-1.28,0.64-1.85,1.29c-0.28,0.32-0.52,0.76-0.6,1.25c-0.1,0.47,0.04,1.04,0.15,1.38
		c0.23,0.69,0.5,1.29,0.78,1.92c1.12,2.44,1.93,4.97,2.56,7.58c0.59,2.63,1.41,5.16,2.29,7.69c0.43,1.26,0.91,2.52,1.45,3.74
		c0.56,1.23,1.12,2.42,1.88,3.66l0.28,0.46h0.44c1.98,0.03,3.98,0.13,6.02,0.24c0.6,0.17,1.21,0.26,1.81,0.31
		c0.75,0.05,1.5,0.08,2.23-0.06c0.74-0.13,1.47-0.43,2.2-0.55c0.74-0.13,1.48-0.16,2.25-0.19l0.6-0.07
		c0.09-0.02,0.19-0.04,0.28-0.06c0.03,0,0.05,0.01,0.08,0.02c0.6,0.15,1.17,0.27,1.74,0.39c0.05,0.01,0.11,0.03,0.17,0.04
		c-0.4-0.01-0.79-0.04-1.18-0.04c-1-0.01-2,0.11-3.01,0.23c-0.98,0.14-1.96,0.29-2.94,0.59c-0.35-0.04-0.71-0.09-1.07-0.13
		l-0.11-0.01l-0.07,0.02c-1.21,0.25-2.42,0.53-3.64,0.95c-0.03,0.01-0.05,0.03-0.05,0.06c0,0.04,0.03,0.08,0.06,0.08
		c0.46,0.03,0.92,0.04,1.38,0.04c1.01,0.36,2.03,0.69,3.06,1.02c1.14,0.36,2.3,0.72,3.47,1.03c0.59,0.16,1.16,0.29,1.72,0.45
		c0.56,0.16,1.11,0.34,1.65,0.55c0.54,0.21,1.06,0.43,1.54,0.7c0.24,0.12,0.46,0.26,0.65,0.41c0.14,0.1,0.26,0.22,0.32,0.3
		c-0.05,0.05-0.09,0.08-0.22,0.13c-0.28,0.09-0.8,0.09-1.27,0c-0.12-0.03-0.22-0.06-0.3-0.08l-0.45-0.08l-0.89-0.17l-1.79-0.33
		c-2.39-0.44-4.78-0.88-7.19-1.26l-0.14-0.02l-0.25,0.03c-1.48,0.18-2.93,0.42-4.44,0.61c-1.49,0.17-2.96,0.28-4.42,0.25
		c-1.44-0.05-2.89-0.23-4.12-0.76c-0.61-0.27-1.2-0.59-1.61-1.07c-0.23-0.19-0.45-0.51-0.67-0.8c-0.22-0.28-0.44-0.59-0.65-0.9
		c-1.71-2.49-3.25-5.17-4.71-7.87c-1.45-2.71-2.78-5.49-4.01-8.31c-0.62-1.4-1.2-2.83-1.78-4.26l-0.87-2.14l-0.43-1.08
		c-0.15-0.36-0.31-0.73-0.4-1.02c-0.2-0.62-0.26-1.21-0.1-1.75c0.15-0.55,0.52-1.05,0.98-1.54c0.46-0.49,1.01-0.95,1.61-1.39
		l1.83-1.36c0.62-0.48,1.26-0.97,1.85-1.56c0.58-0.58,1.08-1.18,1.59-1.78c1-1.2,1.93-2.43,2.84-3.68l2.71-3.72
		c0.92-1.22,1.79-2.51,2.9-3.51l0.01-0.01c0.04-0.03,0.05-0.08,0.03-0.13c-0.03-0.05-0.1-0.07-0.15-0.04
		c-0.71,0.37-1.27,0.91-1.85,1.43c-0.58,0.53-1.11,1.08-1.65,1.65c-1.06,1.12-2.08,2.27-3.09,3.43c-1.01,1.15-2.01,2.31-3.03,3.42
		c-0.51,0.56-1.04,1.09-1.56,1.59c-0.51,0.48-1.1,0.92-1.7,1.36c-1.22,0.88-2.55,1.71-3.73,2.98c-0.58,0.63-1.1,1.43-1.33,2.4
		c-0.24,0.97-0.02,1.97,0.33,2.77c0.18,0.43,0.35,0.77,0.54,1.1l0.54,1.01l1.08,2.04c0.41,0.79,0.82,1.57,1.23,2.34
		c-2.91,1.85-5.89,3.32-8.95,4.62c-1.58,0.7-3.17,1.4-4.83,1.94l-1.25,0.39c-0.42,0.12-0.84,0.22-1.27,0.33
		c-0.84,0.24-1.7,0.38-2.55,0.54c-3.45,0.52-6.99,0.54-10.53,0.4c-2.85-0.12-5.7-0.38-8.55-0.75c0.06-0.13,0.12-0.26,0.17-0.4
		c0.82-2.19,1.5-4.49,1.76-6.88c0.13-1.19,0.16-2.41-0.04-3.62c-0.17-1.2-0.61-2.39-1.36-3.32c-0.03-0.03-0.08-0.04-0.13-0.03
		c-0.05,0.03-0.08,0.09-0.06,0.14c0.41,1.08,0.52,2.18,0.46,3.28c-0.05,1.09-0.25,2.18-0.52,3.25c-0.55,2.14-1.36,4.24-2.23,6.31
		c-0.41,1.05-0.87,2.08-1.31,3.13l-0.68,1.59l-0.61,1.53c-0.35,0.73-1.14,1.26-2.09,1.65c-0.97,0.37-2.05,0.63-3.15,0.79
		c-1.13,0.15-2.22,0.37-3.18-0.08H27.8c0.03-0.13,0.05-0.31-0.02-0.54c-0.07-0.27-0.3-0.49-0.46-0.59c-0.18-0.1-0.29-0.12-0.41-0.15
		c-0.22-0.04-0.39-0.04-0.55-0.03l-0.23,0.01c-0.24-0.28-0.46-0.59-0.67-0.9l-3.59-5.91c-0.61-0.96-1.24-1.92-1.93-2.84
		c-0.67-0.93-1.35-1.85-2.05-2.76c-0.33-0.41-0.66-0.84-1.01-1.24c-1.14-1.36-2.43-2.75-3.63-3.99c-0.04-0.04-0.07-0.07-0.11-0.11
		l-0.01-0.01c-0.03-0.24-0.07-0.47-0.12-0.71c0-0.05-0.01-0.09-0.02-0.13c-0.05-0.21-0.09-0.42-0.15-0.63
		c-0.12-0.48-0.27-0.95-0.43-1.4c-0.65-1.74-1.48-3.37-2.52-4.87c-0.03-0.05-0.08-0.06-0.13-0.04c-0.05,0.02-0.08,0.09-0.05,0.14
		c0.71,1.65,1.31,3.35,1.65,5.07c0.35,1.71,0.5,3.49,0.03,4.99c-0.51,1.69-1.26,3.32-1.64,5.07c-0.4,1.73-0.76,3.46-0.84,5.32
		c-0.31-0.05-0.62-0.12-0.93-0.17c-0.05,0-0.1,0.02-0.12,0.06c-0.02,0.06,0,0.12,0.05,0.15c1.02,0.51,2.05,0.98,3.05,1.51
		c1,0.51,2.01,1,2.97,1.54c0.49,0.27,0.89,0.6,1.34,0.9c0.5,0.34,1.04,0.59,1.6,0.77c0.57,0.18,1.15,0.32,1.74,0.37
		c0.56,0.06,1.12,0.06,1.7-0.04c0.27,0.13,0.54,0.25,0.82,0.36c1.11,0.44,2.33,0.56,3.46,0.68c0.53,0.05,1.07,0.09,1.55,0.16
		c-0.2,0.18-0.6,0.36-1.01,0.48c-0.5,0.16-1.04,0.28-1.6,0.43c-0.1-0.02-0.19-0.04-0.29-0.06c-0.03-0.01-0.06,0.01-0.07,0.03
		c-0.03,0.04-0.02,0.08,0.02,0.1c1.87,1.18,3.84,2.13,5.84,2.99c1,0.43,2.01,0.83,3.05,1.16l1.57,0.49
		c0.54,0.16,1.02,0.32,1.67,0.42c0.35,0.04,0.88,0.28,1.32,0.51c0.45,0.24,0.89,0.54,1.26,0.88c0.36,0.34,0.7,0.76,0.78,1.21
		c0.1,0.45-0.15,0.92-0.55,1.22c-0.39,0.3-0.89,0.54-1.36,0.55c-0.48,0.02-0.9-0.21-1.23-0.54c-0.67-0.68-1.06-1.7-1.35-2.62
		l-0.1-0.3l-0.29-0.11c-0.71-0.28-1.43-0.53-2.15-0.78c-0.71-0.25-1.44-0.47-2.17-0.71c-1.34-0.41-2.7-0.79-4.08-1.08
		c-0.05-0.05-0.11-0.1-0.17-0.15c-0.71-0.57-1.52-0.91-2.31-1.16c-0.72-0.24-1.45-0.58-2.16-0.92c-1.44-0.7-2.86-1.46-4.27-2.23
		c-0.03-0.02-0.07-0.01-0.09,0.02c-0.03,0.03-0.02,0.07,0.01,0.1c1.3,0.97,2.63,1.88,4.02,2.73c0.7,0.41,1.41,0.82,2.18,1.15
		c0.73,0.29,1.39,0.67,1.92,1.15c0.25,0.23,0.47,0.51,0.55,0.74c0.06,0.24,0.04,0.35-0.12,0.54c-0.16,0.18-0.46,0.36-0.76,0.48
		c-0.3,0.13-0.62,0.19-0.93,0.2c-0.63,0.01-1.27-0.25-1.84-0.64c-0.28-0.2-0.56-0.44-0.75-0.68l-0.21-0.28
		c-0.16-0.15-0.24-0.2-0.34-0.27c-0.19-0.14-0.36-0.25-0.54-0.36c-1.4-0.89-2.82-1.63-4.26-2.39l-0.55-0.27l-0.29-0.14l-0.09-0.04
		c-0.03-0.01-0.12-0.04-0.17-0.05c-0.13-0.03-0.27-0.04-0.29-0.04c-0.42-0.02-0.78-0.04-1.17-0.08c-0.76-0.08-1.52-0.22-2.28-0.4
		c-2.98-0.73-5.84-2.05-8.58-3.55c-0.67-1.67-1.11-3.42-1.31-5.22c-0.2-1.86-0.13-3.75,0.19-5.6c0.63-3.73,2.27-7.16,4.11-10.41
		l1.4-2.44c0.46-0.84,0.95-1.62,1.34-2.61c0.05-0.13,0.09-0.27,0.13-0.43c0.02-0.09,0.03-0.18,0.03-0.31
		c0.01-0.09-0.04-0.3-0.04-0.3c-0.01-0.08-0.02-0.12,0.04-0.23c0.12-0.21,0.47-0.47,0.84-0.69c0.74-0.43,1.62-0.77,2.49-1.16
		c0.44-0.19,0.87-0.4,1.32-0.69c0.13-0.09,0.18-0.12,0.25-0.16c0.07-0.04,0.15-0.07,0.24-0.09c0.17-0.05,0.36-0.08,0.57-0.07
		c0.81,0.01,1.69,0.32,2.51,0.72c1.31,0.64,2.52,1.51,3.66,2.47c0,0.02,0.01,0.04,0.02,0.05c1.27,1.38,2.5,2.8,3.65,4.26
		c1.16,1.46,2.27,2.95,3.28,4.49c0.5,0.78,0.95,1.58,1.36,2.39l1.25,2.36c0.83,1.58,1.6,3.11,1.92,5.01
		c0.01,0.03,0.03,0.07,0.06,0.08c0.06,0.03,0.13,0.01,0.16-0.05c0.45-0.9,0.56-1.97,0.48-2.98c-0.07-1.03-0.34-2.01-0.68-2.95
		c-0.68-1.89-1.98-3.4-3.18-4.89c-1.2-1.5-2.5-2.88-3.87-4.19c-0.29-0.27-0.58-0.55-0.88-0.82c0.13-0.07,0.24-0.16,0.35-0.24
		c0.26-0.22,0.49-0.46,0.69-0.72c0.42-0.49,0.74-1.02,1.04-1.55c0.29-0.53,0.54-1.06,0.73-1.62c0.19-0.55,0.35-1.1,0.57-1.62
		c0.11-0.25,0.22-0.48,0.36-0.73l0.44-0.75c0.3-0.48,0.56-0.89,0.97-1.19c0.84-0.64,2.02-1.09,3.06-1.66
		c0.02-0.01,0.04-0.03,0.05-0.05c5.96-5.02,12.52-9.16,19.49-12.41c3.5-1.65,7.1-3.04,10.74-4.36c3.63-1.34,7.34-2.49,11.1-3.51
		c1.87-0.52,3.77-0.95,5.67-1.38c0.95-0.21,1.91-0.42,2.86-0.67c0.95-0.26,1.92-0.43,2.86-0.98c0.8-0.52,1.66-0.95,2.55-1.19
		c0.9-0.26,1.82-0.31,2.78-0.24c0.94,0.07,1.96,0.16,2.96,0.11c1-0.03,1.97-0.11,2.95-0.2c0.99-0.09,1.91-0.16,2.96-0.29
		c1.11-0.18,2.15-0.74,2.95-1.56c0.19-0.19,0.4-0.44,0.54-0.63c0.13-0.16,0.27-0.33,0.42-0.47c0.3-0.31,0.64-0.59,1-0.83
		c0.72-0.48,1.55-0.83,2.41-1.07c1.72-0.46,3.67-0.64,5.36-0.37c0.85,0.14,1.62,0.43,2.14,0.9c0.26,0.23,0.47,0.49,0.59,0.81
		c0.07,0.16,0.12,0.32,0.15,0.48c0.02,0.08,0.03,0.16,0.04,0.24c0,0.07,0,0.18,0,0.18l1.13,1.17c1.86-0.05,3.79,0.04,5.63,0.23
		c0.92,0.1,1.83,0.24,2.67,0.48c0.42,0.11,0.82,0.25,1.16,0.42c0.34,0.16,0.61,0.37,0.7,0.52c0.01,0.02,0.02,0.04,0.04,0.05
		c0.01,0.03,0.03,0.08,0.05,0.12l0.12,0.25c0.06,0.17,0.13,0.34,0.16,0.53C125.78,56.86,125.79,57.24,125.77,57.61z M13.09,100.74
		c0.04-0.25,0.08-0.51,0.1-0.77c0.04-0.46,0.04-0.92,0.01-1.37c0.82,1.65,1.91,3.31,2.88,4.88c0.15,0.24,0.3,0.49,0.45,0.74
		c0.6,0.98,1.23,1.95,1.87,2.9c0.63,0.97,1.31,1.89,2.03,2.79c0.73,0.9,1.5,1.78,2.3,2.62c0.78,0.81,1.46,1.74,2.17,2.66
		c0.14,0.18,0.28,0.36,0.43,0.55l-0.71,0.04c-1.14,0.07-2.23,0.06-3.3-0.21c-0.46-0.11-0.91-0.26-1.36-0.43
		c-0.74-0.62-1.48-1.11-2.23-1.58c-0.46-0.28-0.93-0.54-1.42-0.75c-0.54-0.23-1.13-0.41-1.68-0.6c-1.1-0.38-2.19-0.7-3.3-0.96
		c-0.72-0.16-1.44-0.32-2.16-0.46c1.12-1.46,1.9-3.07,2.58-4.72c0.34-0.85,0.62-1.72,0.82-2.61
		C12.76,102.55,12.93,101.64,13.09,100.74z"/>
	<path class="st5" d="M104.4,58.24l0.66-0.62c0.23-0.19,0.41-0.44,0.65-0.6c0.9-0.74,1.87-1.31,2.91-1.59
		c1.03-0.28,2.14-0.22,3.24,0.1c1.11,0.31,2.17,0.87,3.31,1.43c-0.75-1.01-1.72-1.9-2.92-2.48c-1.18-0.58-2.63-0.82-3.98-0.45
		c-1.35,0.36-2.48,1.2-3.34,2.19c-0.42,0.5-0.75,1.06-1.09,1.6c-0.26,0.59-0.52,1.17-0.72,1.77
		C103.59,59.15,103.99,58.69,104.4,58.24z"/>
	<path class="st5" d="M110.32,57.88c-1.71,0.04-3.06,1.48-3.02,3.2c0.04,1.73,1.46,3.09,3.17,3.05c1.71-0.04,3.06-1.48,3.02-3.2
		C113.45,59.21,112.03,57.84,110.32,57.88z"/>
</g>
</svg>
