<?xml version="1.0" encoding="utf-8"?>
<!-- Generator: Adobe Illustrator 23.0.0, SVG Export Plug-In . SVG Version: 6.00 Build 0)  -->
<svg version="1.1" id="Layer_1" xmlns="http://www.w3.org/2000/svg" xmlns:xlink="http://www.w3.org/1999/xlink" x="0px" y="0px"
	 viewBox="0 0 128 128" 
width="128" height="128"
style="enable-background:new 0 0 128 128;" xml:space="preserve">
<style type="text/css">
	.st0{fill:#2D2D2D;}
	.st1{fill:#7A6356;}
	.st2{fill:#C26003;}
	.st3{fill:#AA845B;}
	.st4{fill:#967550;}
	.st5{fill:#635146;}
	.st6{fill:#D1D1D3;}
</style>
<g>
	<path class="st0" d="M60.9,22.6c0,0.6-0.4,1-1,1c-0.6,0-1-0.4-1-1c0-0.6,0.5-1,1-1C60.4,21.6,60.9,22.1,60.9,22.6z"/>
	<path class="st0" d="M51.1,22.6c0,0.5-0.4,1-1,1c-0.5,0-1-0.4-1-1c0-0.5,0.4-1,1-1C50.7,21.6,51.1,22.1,51.1,22.6z"/>
	<path class="st0" d="M53.7,28.5c-0.5,0.3-1-0.3-1.1-0.8c-0.1-0.3,0.1-0.6,0.4-0.6c0.5-0.1,0.4,0.2,0.5,0.5
		C53.5,28.2,54,28.4,53.7,28.5z"/>
	<path class="st0" d="M56.9,27.8c-0.1,0.5-0.6,1-1.1,0.8c-0.3-0.2,0.2-0.3,0.3-0.9c0-0.3,0-0.6,0.5-0.5C56.8,27.2,57,27.5,56.9,27.8
		z"/>
	<path class="st0" d="M59.9,20.1c-1.4,0-2.5,1.1-2.5,2.5c0,1.4,1.1,2.5,2.5,2.5c1.4,0,2.5-1.1,2.5-2.5
		C62.4,21.2,61.3,20.1,59.9,20.1z M59.9,24.4c-1,0-1.8-0.8-1.8-1.8c0-1,0.8-1.8,1.8-1.8c1,0,1.8,0.8,1.8,1.8
		C61.7,23.6,60.9,24.4,59.9,24.4z"/>
	<path class="st0" d="M50.2,20.1c-1.4,0-2.5,1.1-2.5,2.5c0,1.4,1.1,2.5,2.5,2.5c1.4,0,2.5-1.1,2.5-2.5
		C52.7,21.2,51.6,20.1,50.2,20.1z M50.2,24.4c-1,0-1.8-0.8-1.8-1.8c0-1,0.8-1.8,1.8-1.8c1,0,1.8,0.8,1.8,1.8
		C52,23.6,51.2,24.4,50.2,24.4z"/>
	<path class="st1" d="M90.1,32.4c-0.1-0.8-0.5-1.5-1.1-2.1c-0.3-0.3-0.6-0.5-1-0.8l-1.2-0.8l-0.5-0.3l0.4-0.4l1-0.9l0.3-0.2l0.1-0.1
		h0v0c0,0,0,0,0,0c0,0,0,0,0,0c0,0,0,0,0,0l-0.1,0l-2.6-0.7c-0.4-0.1-0.8-0.1-1.1,0c-0.4,0.1-0.8,0.3-1.2,0.5
		c-0.8,0.3-1.7,0.6-2.5,1c-3.4,1.2-6.7,2.4-10.2,3.3L69,31.2l-1.3,0.3c-0.9,0.2-1.8,0.3-2.7,0.5c-1.8,0.3-3.6,0.5-5.4,0.6
		c-3.6,0.2-7.3,0.2-10.7-0.8c-0.1,0-0.1-0.1-0.1-0.1c0,0,0.1-0.1,0.1-0.1c3.6,0.2,7.1,0,10.5-0.5c1.2-0.1,3-0.3,3.3-1.3
		c0-0.1,1.7-3.4,3-9.8v0c0.2-0.3,0.5-0.6,0.7-0.8c0.5-0.5,0.9-1.1,1.2-1.6c0.6-1.1,0.5-1.9-0.1-2.9c-0.3-0.5-0.7-1-1.1-1.2
		c-0.4-0.3-0.8-0.4-1.4-0.3c-0.5,0.1-1.1,0.4-1.7,0.7c-0.6,0.3-1.1,0.8-1.7,1.2c0.2-0.7,0.6-1.3,1.1-1.8c-1.1-1.3-2.5-2.1-3.9-2.6
		c-0.8-0.3-1.7-0.5-2.6-0.6c-0.9-0.1-1.8-0.2-2.6-0.1c-1.7,0-3.5,0.4-5.2,1c-1.5,0.5-2.9,1.3-4.2,2.4c0,0,0,0,0,0
		c0.4,0.6,0.8,1.3,0.9,2.1c-0.5-0.5-1-1-1.6-1.5c-0.5-0.4-1.1-0.7-1.7-0.9c-0.5-0.1-1,0-1.4,0.3c-0.4,0.3-0.8,0.7-1.2,1.3
		c-0.8,1.1-0.9,1.8-0.3,2.9c0.3,0.5,0.7,1.1,1.2,1.6c0.2,0.3,0.5,0.6,0.7,0.9c0.1,0.2,0.2,0.3,0.3,0.5c0.1,0.2,0.2,0.4,0.2,0.6
		c-0.1-0.1-0.2-0.2-0.3-0.3c0.4,1.5,0.9,3,1.4,4.5c0.2,0.4,0.3,0.9,0.4,1.4c0.1,0.5,0.2,1.1,0.1,1.6c-0.1,0.5-0.3,1-0.5,1.5
		c-0.2,0.4-0.5,0.9-0.8,1.3c-1.1,1.5-2.2,2.9-3.3,4.4l-3.3,4.3c-2.2,2.9-4.4,5.8-6,9c-0.8,1.6-1.5,3.3-2,5c-0.2,0.9-0.4,1.8-0.6,2.6
		c-0.1,0.9-0.2,1.8-0.3,2.7c-0.1,0.9-0.1,1.8-0.1,2.7c0,0.9,0.1,1.8,0.1,2.7c0.1,1.8,0.3,3.6,0.6,5.3c0.3,1.8,0.7,3.5,1.2,5.2
		c0.5,1.7,1,3.4,1.6,5.1c0.3,0.8,0.6,1.7,0.9,2.5c0.3,0.9,0.6,1.6,1.1,2.3c0.9,1.4,2.2,2.5,3.7,3.2c2.9,1.2,6.4,1.8,9.6,0.8
		c-0.1-0.7-0.1-1.4,0-2.3c0.7-4.3,0.3-7.9,0-11.4c-0.3-3.3-0.7-6.8-0.1-10.6c0,0,0,0,0,0c0,0,0-0.1,0-0.1c0.2-1.1,0.4-2.1,0.7-3.2
		c0.3-1,0.6-2.1,1-3c0.8-2,1.8-3.9,3.2-5.5c-1.1,1.8-1.8,3.8-2.2,5.8c-0.2,1-0.4,2-0.5,3c-0.1,1-0.2,2-0.2,3c0,0.1,0,0.2,0,0.2
		c-0.6,3.7-0.3,6.9,0,10.3c0.4,3.6,0.7,7.3,0,11.8c-0.2,1.4,0,2.5,0.5,2.9c0.7,0.6,2.4,0.1,3.7-0.2l0.4-0.1
		c5.4-2.5,9.6-1.6,11.5-1.2l0.9,0.2c2.1,0.4,5,1,6.3,0.3c1.5-2.6,0.1-3.4-1.2-4.3c-0.6-0.4-1.1-0.7-1.2-1.2c0-0.1,0-0.2-0.1-0.3
		c-0.1-0.3-0.1-0.7-0.4-1.2c-3.1-2.8-9,0.7-11.3,2c-0.4,0.3-0.8,0.4-1,0.5l-0.6,0.3l-0.5-0.4c-1.1-0.9-0.4-3,5.3-17.4l0.6-1.4
		c2.7-6.7,1.1-15.8-0.2-20.1c-0.5-1.6-1.7-2.9-3.3-3.3c-3.5-1-5.9,1.2-6.2,1.5c-0.5,0.7-7.3,10.2-11.7,16.4c0,0,0,0-0.1,0.1
		c0,0.1-0.1,0.1-0.1,0.1c0,0,0,0,0,0l0,0c-0.4,0.7-0.8,1.6-1,2.5c-0.3,0.9-0.5,1.8-0.7,2.7c-0.2,0.9-0.3,1.9-0.4,2.8
		c-0.1,1-0.1,1.9,0,2.9c-0.2-0.9-0.4-1.9-0.5-2.9c-0.1-1-0.1-2-0.1-2.9c0-0.6,0.1-1.2,0.1-1.9c-0.1,0.2-0.3,0.5-0.4,0.7
		c-0.4,0.7-0.8,1.5-1.1,2.3c-0.3,0.8-0.6,1.6-0.9,2.4c0.1-0.9,0.3-1.7,0.5-2.6c0.2-0.9,0.4-1.7,0.7-2.6c0.3-0.8,0.6-1.7,1-2.5
		c0.2-0.4,0.4-0.8,0.6-1.2c0.3-0.4,0.5-0.8,0.8-1.2c0,0,0,0,0,0c0,0,0,0,0,0C48.7,42.1,48.9,41.9,49,41.9c1.1-1.2,4.3-3.1,8.1-2
		c2.2,0.6,3.9,2.3,4.6,4.6c0.1,0.4,0.3,0.9,0.4,1.4c0.6-0.3,1.1-0.6,1.7-1c0.7-0.5,1.4-1.2,2.1-1.8c1.3-1.3,2.6-2.6,3.8-4l3.7-4.2
		l0.5-0.5c0.1-0.1,0.2-0.2,0.3-0.3c0.1-0.1,0.1-0.1,0.2-0.2l0.2-0.1l0.1-0.1c0.7-0.3,1.2-0.3,1.7-0.4l2.8-0.3l0.7-0.1l0.3,0l0.4,0
		c0.6,0,1.2,0.1,1.7,0.2c1.1,0.4,2,1,2.7,1.7c0.4,0.4,0.7,0.7,1,1.1c0.2,0.2,0.3,0.4,0.5,0.6l0.4,0.5c0,0-0.1,0.1,0.4,0
		c0.4-0.1,0.7-0.2,1-0.4c0.6-0.4,1.1-1,1.5-1.7C90.2,34,90.3,33.2,90.1,32.4z M59.9,25.1c-1.4,0-2.5-1.1-2.5-2.5
		c0-1.4,1.1-2.5,2.5-2.5c1.4,0,2.5,1.1,2.5,2.5C62.4,24,61.3,25.1,59.9,25.1z M57.2,18c0.3-0.3,0.6-0.5,0.9-0.8
		c0.3-0.2,0.7-0.3,1.1-0.5c0.8-0.2,1.7-0.1,2.5,0.3c0.8,0.4,1.4,1.1,1.7,1.8c0.3,0.7,0.4,1.5,0.3,2.3c0,0,0,0.1-0.1,0.1
		c0,0-0.1,0-0.1-0.1l0,0c-0.1-0.7-0.4-1.4-0.8-2c-0.4-0.6-0.9-1-1.5-1.2c-0.6-0.2-1.2,0-1.9,0c-0.3,0-0.7,0.1-1,0.1
		c-0.4,0-0.7,0.1-1.1,0h0C57.2,18.1,57.2,18.1,57.2,18C57.2,18,57.2,18,57.2,18z M53.9,24.8c0-0.7,0.1-1.5,0.2-2.2
		c0.1,0.8,0.2,1.6,0.3,2.3l0,0.1l-0.1,0.1c-0.6,0.3-1.1,0.8-1.5,1.2c-0.2,0.2-0.4,0.5-0.5,0.8c-0.1,0.3-0.2,0.5-0.1,0.8
		c0,0.5,0.4,0.8,0.9,1c0.5,0.1,1.2,0,1.5-0.3l0.4-0.4l0.4,0.4c0.3,0.3,0.9,0.4,1.4,0.3c0.5-0.1,0.8-0.4,0.9-0.9c0-0.5-0.2-1-0.6-1.5
		c-0.4-0.5-0.9-0.9-1.4-1.3l-0.1-0.1l0-0.1c0.1-0.8,0.1-1.6,0.2-2.3c0.1,0.7,0.2,1.5,0.2,2.2c0.6,0.3,1.1,0.7,1.6,1.1
		c0.5,0.5,1,1.2,1,2c0,0.4-0.1,0.9-0.4,1.2c-0.3,0.3-0.7,0.6-1.1,0.7C56.4,30,56,30,55.6,29.9c-0.3,0-0.5-0.1-0.8-0.3
		c-0.3,0.2-0.5,0.3-0.8,0.3c-0.4,0.1-0.8,0.1-1.2-0.1c-0.4-0.1-0.8-0.3-1.1-0.7c-0.3-0.3-0.5-0.8-0.5-1.2c0-0.4,0.1-0.9,0.3-1.2
		c0.2-0.3,0.4-0.6,0.7-0.9C52.7,25.5,53.3,25.1,53.9,24.8z M53.7,28.5c-0.5,0.3-1-0.3-1.1-0.8c-0.1-0.3,0.1-0.6,0.4-0.6
		c0.5-0.1,0.4,0.2,0.5,0.5C53.5,28.2,54,28.4,53.7,28.5z M56,27.6c0-0.3,0-0.6,0.5-0.5c0.3,0,0.5,0.4,0.4,0.6
		c-0.1,0.5-0.6,1-1.1,0.8C55.5,28.4,56,28.2,56,27.6z M46.4,19.3c-0.4,0.7-0.7,1.5-0.9,2.2v0c0,0,0,0.1-0.1,0.1c0,0,0,0,0-0.1
		c0-0.8,0.1-1.7,0.4-2.5c0.3-0.8,0.8-1.6,1.5-2.2c0.7-0.6,1.7-1,2.7-0.8c0.5,0,0.9,0.2,1.3,0.4c0.4,0.2,0.8,0.5,1.1,0.8
		c0,0,0,0.1,0,0.1c0,0,0,0,0,0h0c-0.5,0-0.9,0-1.3,0c-0.2,0-0.4,0-0.6,0c-0.2,0-0.4,0-0.6,0c-0.2,0-0.4,0-0.5,0
		c-0.2,0-0.3,0.1-0.5,0.1c-0.2,0-0.3,0.1-0.5,0.1c-0.2,0-0.3,0.1-0.5,0.2C47.3,18.1,46.8,18.7,46.4,19.3z M47.7,22.6
		c0-1.4,1.1-2.5,2.5-2.5c1.4,0,2.5,1.1,2.5,2.5c0,1.4-1.1,2.5-2.5,2.5C48.8,25.1,47.7,24,47.7,22.6z"/>
	<path class="st2" d="M50.2,20.8c-1,0-1.8,0.8-1.8,1.8c0,1,0.8,1.8,1.8,1.8c1,0,1.8-0.8,1.8-1.8C52,21.6,51.2,20.8,50.2,20.8z
		 M50.2,23.4c-0.4,0-0.8-0.4-0.8-0.8c0-0.4,0.4-0.8,0.8-0.8c0.4,0,0.8,0.4,0.8,0.8C51,23.1,50.6,23.4,50.2,23.4z"/>
	<path class="st2" d="M59.9,20.8c-1,0-1.8,0.8-1.8,1.8c0,1,0.8,1.8,1.8,1.8c1,0,1.8-0.8,1.8-1.8C61.7,21.6,60.9,20.8,59.9,20.8z
		 M59.9,23.5c-0.5,0-0.9-0.4-0.9-0.9c0-0.5,0.4-0.9,0.9-0.9c0.5,0,0.9,0.4,0.9,0.9C60.8,23.1,60.4,23.5,59.9,23.5z"/>
	<path class="st3" d="M102,5.1c0,0.2,0,0.3-0.1,0.5L101.4,8l-1.1,4.7c-1.5,6.2-3.2,12.4-4.9,18.5c-1.7,6.2-3.4,12.3-5.1,18.5
		c-1.6,6.2-3.3,12.4-4.8,18.6c-3,12-5.8,24.1-8.3,36.3c-0.7,0.6-1.5,1.1-2.3,1.5c-1.8,0.8-3.8,1.5-5.7,2.1c-1.9,0.6-3.9,1-5.8,1.2
		c-2,0.1-3.9,0-5.9-0.6c-1-0.3-1.9-0.7-2.8-1.2c-0.9-0.5-1.7-1.1-2.4-1.9c-1.5-1.4-2.4-3.3-3.3-5.1l-1.3-2.7
		c-0.2-0.5-0.4-0.9-0.6-1.4c-0.2-0.5-0.4-0.9-0.6-1.4c-0.8-1.8-1.3-3.7-2.1-5.6c0.4-0.1,0.6-0.3,1-0.5c0.2,0.9,0.5,1.5,1.1,2
		c0.6,0.5,1.4,0.7,2.3,0.7c1.1,0,2.2-0.3,3.2-0.6l0.5-0.1l0.2-0.1c4.8-2.3,8.5-1.5,10.3-1.1l1,0.2c2.9,0.6,6.1,1.2,7.9-0.2l0.1-0.1
		l0.1-0.2c2.7-4.3-0.5-6.3-1.7-7.1c-0.1-0.1-0.3-0.2-0.4-0.2c0,0,0,0,0,0c-0.1-0.5-0.2-1.1-0.8-2L69,80.1c-3.8-3.6-10-0.4-13,1.3
		c0.8-2.8,3.2-8.8,5.3-14.2l0.6-1.4c2.2-5.5,1.8-12.5,0.8-17.4c-0.2-1.2,0.3-2.4,1.4-3l0,0c0.8-0.5,1.6-1,2.4-1.6
		c1.5-1.1,2.9-2.4,4.3-3.7c1.4-1.3,2.7-2.7,4-4l0.5-0.5c0.1-0.1,0.2-0.2,0.2-0.2c0,0,0,0,0,0l0,0c0.2-0.1,0.6-0.2,1.1-0.2
		c0.9-0.1,1.8-0.2,2.8-0.3l0.7-0.1l0.4-0.1l0.3,0c0.3,0,0.7,0,1,0.1c0.7,0.2,1.4,0.7,2,1.2c0.3,0.3,0.6,0.6,0.9,0.9
		c0.1,0.2,0.3,0.3,0.4,0.5l0.5,0.6c0.3,0.3,0.8,0.5,1.2,0.6c0.5,0,0.7-0.1,1-0.1c0.6-0.1,1.1-0.3,1.6-0.6c1-0.6,1.7-1.5,2.1-2.6
		c0.4-1,0.4-2.2,0.1-3.2c-0.3-1-0.9-2-1.7-2.7c-0.4-0.3-0.9-0.6-1.3-0.9l-0.7-0.4l0.5-0.5l0.2-0.2l0.1-0.1c0,0,0.1-0.1,0.1-0.1
		c0.1-0.1,0.1-0.2,0.1-0.3c0-0.2,0-0.4-0.2-0.6c-0.1-0.1-0.2-0.2-0.3-0.2c-0.1,0-0.1,0-0.2-0.1l-0.1,0l-2.6-0.6
		c-0.5-0.1-1-0.1-1.5,0.1c-0.5,0.2-0.8,0.4-1.2,0.5c-0.8,0.3-1.7,0.6-2.5,0.9c-3.4,1-6.9,1.6-10.4,2.3l-5.2,1c0,0,0,0,0,0
		c0,0,0,0,0,0c0.1-0.2,1.4-5.3,1.6-9.3c0-0.2,0-0.4-0.1-0.5c0.3-0.2,0.6-0.3,0.9-0.5c0.6-0.4,1.3-0.8,1.8-1.4c0.5-0.6,1-1.4,1-2.4
		c0-0.9-0.3-1.8-0.8-2.5c-0.2-0.3-0.5-0.7-0.8-1c-0.3-0.3-0.6-0.6-1.1-0.8c-0.4-0.2-0.9-0.4-1.4-0.4c-0.5,0-0.9,0.1-1.3,0.2
		c-0.3,0.1-0.6,0.3-0.8,0.5c-0.2,0.2-0.5-0.1-0.4-0.3c0.4-1.1,0.7-2.2,1.1-3.3c0.5-1.5,1-3,1.5-4.6l0.2-0.6c0.1-0.2,0.1-0.3,0.2-0.4
		c0.2-0.3,0.4-0.5,0.6-0.7c0.3-0.2,0.5-0.3,0.9-0.4c0.1,0,0.3-0.1,0.5-0.1c0.2,0,0.4,0,0.6-0.1c1.6-0.2,3.1-0.2,4.7-0.2
		c3.2,0.1,6.3,0.4,9.5,0.8c3.1,0.5,6.4,0.9,9.6,1c1.6,0.1,3.2,0,4.9-0.1c0.4,0,0.8-0.1,1.2-0.1l0.6-0.1l0.3,0l0.2,0
		c0.6,0,1.2,0.3,1.6,0.8c0.2,0.2,0.3,0.5,0.4,0.9C102,4.8,102,5,102,5.1z"/>
	<path class="st4" d="M85.6,2.5c0,0,7.6,10.1,6,15.3s-4.7,24.2-7.8,27c-3.1,2.9-6.3,2.9-6,9.9c0.3,7,0.3,21.6-0.8,28.6
		c-1,7-4.2,17.1-7.3,19.7s-8.3,21-8.3,21v3.1c0,0,6.5,1.6,8.5-0.1c2.1-1.7,3.8-6.3,3.9-8.4c0.1-2.1,5.2-19.6,5.4-20.2
		c0.2-0.6,8.9-36.2,9.1-36.5c0.2-0.4,6.4-25,6.5-25.7c0.1-0.7,8.1-31,7.6-32c-0.5-1-1.7-2-2.6-1.7C99,2.7,85.6,2.5,85.6,2.5z"/>
	<path class="st5" d="M80.7,106.6c-0.1,1.6-0.7,3.1-1.5,4.5c-0.8,1.4-1.7,2.7-2.9,3.8c-0.6,0.5-1.2,1-1.8,1.3l-0.2,0.1
		c-0.1,0-0.2,0.1-0.3,0.1l-0.6,0.2l-1.2,0.4c-3.2,0.9-6.4,1.5-9.7,1.5c-3.3,0-6.5-0.7-9.6-2c-3.1-1.3-5.9-3.2-8.2-5.7
		c-2.3-2.4-4.1-5.3-5.7-8.2c-2.8-4.9-5.1-10-7.2-15.2c0.9,0.8,2,1.5,3.2,1.9c0.9,0.4,1.9,0.5,2.8,0.7c0.9,0.1,1.9,0.2,2.8,0.2
		c1.1,0,1.8-0.1,2.8-0.4c0.1,2,1,3.9,1.6,5.9c0.3,1,0.7,2,1.1,3c0.4,1,0.9,1.9,1.5,2.8c1.2,1.8,2.7,3.3,4.3,4.7
		c1.6,1.4,3.3,2.7,5.2,3.6c1,0.5,2,0.8,3.1,1.1c0.5,0.1,1.1,0.2,1.6,0.2c0.5,0,1.1,0.1,1.6,0.1c2.2,0,4.3-0.4,6.4-1l1.5-0.5
		c0.5-0.2,1-0.4,1.5-0.6c0.5-0.2,0.9-0.5,1.4-0.7c0.5-0.2,0.9-0.5,1.4-0.8c0.9-0.6,1.8-1.4,2.4-2.3c0.6-0.9,1-1.9,1.1-2.9
		c0.5,0.6,1.1,1.3,1.3,2C80.8,105,80.8,105.8,80.7,106.6z"/>
	<path class="st3" d="M72.6,121.3c-0.1,0.6-0.3,1.2-0.4,1.7l-0.3,0.9c-0.1,0.3-0.2,0.5-0.3,0.7c-0.5,0.9-1.4,1.4-2.4,1.5
		c-1.2,0.1-2.5,0.2-3.7,0.2c-2.5,0.2-5,0.4-7.5,0.2c-1.3-0.1-2.5-0.2-3.7-0.4c-1.3-0.2-2.5-0.3-3.8-0.5c-2.5-0.3-5.1-0.4-7.6-0.3
		l-1.9,0.1l-1,0.1c-0.2,0-0.3,0-0.3,0c-0.1,0-0.2,0-0.2-0.1c-0.3-0.1-0.5-0.3-0.6-0.6c0-0.1-0.1-0.3,0-0.4c0,0,0.1-0.2,0.1-0.4
		c0-0.1,0.1-0.3,0.1-0.5c1.1-4.9,2.5-9.6,3.1-14.5c0.8,0.9,1.3,1.4,2.2,2.2c2.5,2.4,5.1,4.5,8.2,6.2c1.5,0.8,3.1,1.5,4.8,2
		c0.4,0.2,0.8,0.2,1.3,0.3l1.3,0.2c0.4,0.1,0.9,0.1,1.3,0.2l1.3,0.1c3.5,0.2,10.1-1.3,10.1-1.3C72.6,120.1,72.7,120.3,72.6,121.3z"
		/>
	<path class="st0" d="M52.4,17.3C52.4,17.3,52.4,17.3,52.4,17.3L52.4,17.3c-0.5,0.1-0.9,0-1.3,0c-0.2,0-0.4,0-0.6,0
		c-0.2,0-0.4,0-0.6,0c-0.2,0-0.4,0-0.5,0c-0.2,0-0.3,0.1-0.5,0.1c-0.2,0-0.3,0.1-0.5,0.1c-0.2,0-0.3,0.1-0.5,0.2
		c-0.6,0.3-1.1,0.9-1.5,1.6c-0.4,0.7-0.7,1.5-0.9,2.2v0c0,0,0,0.1-0.1,0.1c0,0,0,0,0-0.1c0-0.8,0.1-1.7,0.4-2.5
		c0.3-0.8,0.8-1.6,1.5-2.2c0.7-0.6,1.7-1,2.7-0.8c0.5,0,0.9,0.2,1.3,0.4C51.7,16.7,52.1,16.9,52.4,17.3
		C52.5,17.2,52.5,17.3,52.4,17.3z"/>
	<path class="st0" d="M63.7,21.1C63.7,21.1,63.6,21.2,63.7,21.1c-0.1,0.1-0.1,0-0.1,0l0,0c-0.1-0.7-0.4-1.4-0.8-2
		c-0.4-0.6-0.9-1-1.5-1.2c-0.6-0.2-1.2,0-1.9,0c-0.3,0-0.7,0.1-1,0.1c-0.4,0-0.7,0.1-1.1,0h0c0,0-0.1,0-0.1-0.1c0,0,0,0,0,0
		c0.3-0.3,0.6-0.5,0.9-0.8c0.3-0.2,0.7-0.3,1.1-0.5c0.8-0.2,1.7-0.1,2.5,0.3c0.8,0.4,1.4,1.1,1.7,1.8C63.6,19.6,63.7,20.4,63.7,21.1
		z"/>
	<path class="st6" d="M47.7,56.3c0,0-4.9,4.6-4.5,12.1c0.2,4.8,1.4,11.7,1.5,13.2c0.2,2.7-2.8,7.5-1.7,7.7s3.1-0.4,3.2-0.9
		s0.9-7,0.7-8.2c-0.3-1.1-1.2-9.2-1.3-10.3c-0.1-1.1,1.5-9.8,1.5-10.1C47.2,59.5,47.7,56.3,47.7,56.3z"/>
	<path class="st5" d="M50.4,43.2c0,0,6-0.6,6.1,2.1c0.1,2.7,2.3,5.2,2.3,7.7s0,5.9-2,11.2c-1.4,3.9-3.5,13.8-3.3,15.1
		c0.3,1.2,0.3,4.4-0.3,4.9c-0.5,0.5-2.8,5.5-5.6,4.9c-1.5,1.6-2.3,1.9,0.1,1.7s7.5-3.2,9.8-2.6s10.9,2.6,12.3,1.6
		c1.4-1,3.3-3.6-0.3-6.5c-0.7-1.8-2.2-4.6-5-3.8c-2.8,0.8-4.7,0.9-6,2.7c-1.3,1.8-2.8,1-3.3,0.3s2.2-6.4,2.6-7.5s4.9-12.8,4.7-15.6
		c-0.2-2.8-0.6-14.4-2.3-16c-1.7-1.6-7.6-2.9-8.8-1.9C50.3,42.4,50.4,43.2,50.4,43.2z"/>
	<path class="st5" d="M49,31.5c0,0,0.1,0,0.2,0.1c1.2,0.3,7.8,2.2,11.1,3.5c2.5,1.3,2.9,8.5,1.9,10.3c2.8-0.4,6.3-3.8,7.3-5.1
		c1-1.3,5-5.4,6.8-5.8c1.8-0.4,5.5-1.3,6.8,0c1.3,1.3,3.4,4.3,4.5,3.5c1.1-0.9,4.3-2.5,3.2-4.6s-3.1-4.8-3.8-4.9
		c1.2-1.1,1.3-1.9,1.3-1.9s-3.5-0.8-4.1-0.6s-4.4,1.7-6.2,2.4c-1.8,0.7-13.6,3-14.8,3.1c-1.3,0.1-5.9,0.5-7.2,0.5"/>
	<path class="st5" d="M26.3,60.9c0,0,4.7,16.7,7.5,20.4c3,3.8,8.8,5.7,11.8,4.8c0.9,1.7,0.6,2.9,0.5,2.9c-0.2-0.1-3,0.9-5.7,0.7
		c-2.7-0.2-8.5-1.7-10-5.7c-1.5-4-5-16.6-4.8-18.4C25.8,63.8,26.3,60.9,26.3,60.9z"/>
	<path class="st5" d="M41.3,20.4c0,0,0.2-3.8,3.8-5.3c-1.1-1.6-3.6-3.3-4.5-3s-3.8,2.9-2.9,4.1c0.8,1.2,2.5,3.5,2.5,3.5L41.3,20.4z"
		/>
	<path class="st6" d="M51.6,28.9c0,0-2.4,1.3-0.3,3c2.3,0.3,6,0.2,6.9,0.1c0.9-0.1,1.6-2.5-0.1-3.6c-0.6,0.6-1.5,1.3-2.2,1.1
		c-0.7-0.2-1-0.7-1-0.7s-1,0.8-1.6,0.6C52.7,29.2,51.6,28.9,51.6,28.9z"/>
	<path class="st5" d="M61.7,15c0,0,3.8,2.1,4.1,4.9c2.3-1.3,4.1-4.9,2.3-6.2s-3.6-1.3-4.3-0.7C63.3,13.7,61.7,15,61.7,15z"/>
	<path class="st0" d="M103,4.5c-0.1-0.5-0.2-0.9-0.5-1.3c-0.5-0.8-1.5-1.3-2.5-1.3l-0.4,0l-0.3,0l-0.6,0c-0.4,0-0.8,0-1.2,0
		c-1.6,0-3.2-0.1-4.7-0.2c-1.6-0.1-3.2-0.3-4.7-0.5c-1.6-0.2-3.1-0.4-4.8-0.6C80.1,0.2,76.9,0,73.6,0c-1.6,0-3.3,0.1-4.9,0.4
		c-0.2,0-0.4,0.1-0.6,0.1c-0.2,0-0.4,0.1-0.6,0.1C67,0.8,66.6,1,66.2,1.3c-0.4,0.3-0.7,0.7-0.9,1.1c-0.1,0.2-0.2,0.4-0.2,0.7
		l-0.1,0.6c-0.4,1.6-0.7,3.1-1.1,4.7c-0.2,1.1-0.5,2.1-0.7,3.2c-0.1,0.4-0.6,0.5-0.8,0.2c-0.1-0.2-0.3-0.4-0.5-0.6
		c-0.7-0.7-1.5-1.4-2.4-1.8c-1.8-1-3.9-1.3-5.8-1.3c-2,0.1-4,0.6-5.8,1.5c-0.9,0.5-1.7,1.1-2.4,1.8c-0.3,0.3-0.6,0.7-0.9,1
		c-0.3,0.3-0.8,0.4-1.1,0.1c-0.3-0.3-0.6-0.5-1-0.7c-0.4-0.2-0.9-0.3-1.4-0.3c-0.5,0-1,0.1-1.4,0.4c-0.8,0.4-1.4,1-1.9,1.7
		c-0.5,0.6-1,1.5-1,2.5c0,1,0.4,1.9,1,2.5c0.6,0.6,1.2,1.1,1.8,1.5c0.3,0.2,0.7,0.4,1,0.5c0.1,0,0.2,0.1,0.3,0.1
		c0.1,1.7,0.4,3.4,0.8,5c0.2,0.9,0.4,1.7,0.2,2.4c-0.1,0.4-0.3,0.7-0.5,1.1c-0.2,0.4-0.4,0.7-0.7,1c-2.3,2.8-4.7,5.6-6.7,8.6
		c-2,3.1-3.7,6.3-5.3,9.7c-0.8,1.7-1.4,3.4-2,5.1c-0.1,0.4-0.3,0.9-0.4,1.3c-0.1,0.4-0.3,0.9-0.4,1.3c-0.2,0.9-0.4,1.8-0.5,2.7
		c-0.6,3.7-0.5,7.4,0,11.1c0.5,3.7,1.3,7.3,2.6,10.8c0.3,0.9,0.7,1.7,1,2.6c0.2,0.4,0.4,0.9,0.6,1.3c0.2,0.4,0.5,0.9,0.8,1.3
		c0.2,0.2,0.3,0.4,0.5,0.6c0.5,2.7,1.3,5.3,2.2,7.9c0.3,0.8,0.6,1.6,1,2.4c0.4,0.8,0.7,1.6,1.1,2.3c0.4,0.8,0.8,1.5,1.2,2.3
		c0.4,0.8,0.9,1.5,1.3,2.2c1.2,1.8,2.4,3.3,3.8,4.9c0,0-3.2,9.9-4.5,14.7c0,0.2-0.1,0.3-0.1,0.5c0,0.2-0.1,0.3-0.1,0.5
		c-0.1,0.5,0,1,0.1,1.4c0.3,0.9,1.1,1.6,2,1.9c0.2,0.1,0.5,0.1,0.7,0.1c0.2,0,0.5,0,0.6,0l0.9-0.1l1.9-0.2c2.5-0.2,5-0.4,7.4-0.4
		c5-0.2,10,1,15.1,1.2c1.3,0,2.5,0,3.8-0.2c0.8-0.1,1.5-0.3,2.2-0.8c0.6-0.4,1.1-1,1.4-1.7c0.2-0.3,0.3-0.7,0.3-1l0.2-0.9
		c0.1-0.6,0.2-1.2,0.3-1.8c0.2-1,0.3-2,0.4-3l0,0l0.6-0.2c0.1,0,0.2-0.1,0.3-0.1c0.1-0.1,0.3-0.1,0.4-0.2c0.9-0.5,1.6-1.1,2.2-1.8
		c1.2-1.3,2.2-2.9,2.9-4.5c0.7-1.6,1.2-3.4,1.1-5.2c0-1.8-1.1-3.6-2.4-4.6c-0.1-0.1-0.2,0-0.2,0c-0.4,0.8-0.8,1.5-1.4,2.1
		c3.5-11.7,6.7-23.5,9.8-35.3c1.6-6.2,3.1-12.4,4.6-18.6c1.5-6.2,2.9-12.4,4.3-18.7c1.4-6.2,2.9-12.5,4.5-18.7l1.3-4.6l0.7-2.3
		c0.1-0.2,0.1-0.4,0.1-0.7C103,5,103,4.7,103,4.5z M30.8,82.5c-0.3-0.8-0.6-1.7-0.9-2.5c-0.6-1.7-1.1-3.4-1.6-5.1
		c-0.5-1.7-0.9-3.5-1.2-5.2c-0.3-1.8-0.5-3.5-0.6-5.3c-0.1-0.9-0.1-1.8-0.1-2.7c0-0.9,0-1.8,0.1-2.7c0-0.9,0.1-1.8,0.3-2.7
		c0.1-0.9,0.3-1.8,0.6-2.6c0.5-1.7,1.1-3.4,2-5c1.6-3.2,3.8-6.2,6-9l3.3-4.3c1.1-1.4,2.2-2.8,3.3-4.4c0.3-0.4,0.6-0.8,0.8-1.3
		c0.2-0.4,0.4-0.9,0.5-1.5c0.1-0.5,0.1-1.1-0.1-1.6c-0.1-0.5-0.3-0.9-0.4-1.4c-0.6-1.5-1-3-1.4-4.5c0.1,0.1,0.2,0.1,0.3,0.3
		c0-0.2-0.1-0.4-0.2-0.6c-0.1-0.2-0.2-0.3-0.3-0.5c-0.2-0.3-0.5-0.6-0.7-0.9c-0.5-0.5-0.9-1.1-1.2-1.6c-0.6-1.1-0.5-1.9,0.3-2.9
		c0.4-0.5,0.8-1,1.2-1.3C41,13,41.5,12.9,42,13c0.5,0.1,1.1,0.4,1.7,0.9c0.6,0.4,1.1,0.9,1.6,1.5c-0.2-0.7-0.5-1.4-0.9-2.1
		c0,0,0,0,0,0c1.2-1.1,2.7-1.8,4.2-2.4c1.7-0.6,3.5-1,5.2-1c0.9,0,1.8,0,2.6,0.1c0.9,0.1,1.7,0.3,2.6,0.6c1.5,0.5,2.9,1.3,3.9,2.6
		c-0.5,0.6-0.8,1.2-1.1,1.8c0.6-0.5,1.1-0.9,1.7-1.2c0.6-0.4,1.2-0.6,1.7-0.7c0.6-0.1,1,0,1.4,0.3c0.4,0.3,0.8,0.7,1.1,1.2
		c0.7,1,0.7,1.8,0.1,2.9c-0.3,0.5-0.7,1-1.2,1.6c-0.2,0.3-0.5,0.5-0.7,0.8v0c-1.2,6.3-3,9.7-3,9.8c-0.4,1.1-2.2,1.2-3.3,1.3
		c-3.5,0.5-7,0.7-10.5,0.5c0,0-0.1,0-0.1,0.1c0,0.1,0,0.1,0.1,0.1c3.5,1,7.1,1,10.7,0.8c1.8-0.1,3.6-0.3,5.4-0.6
		c0.9-0.1,1.8-0.3,2.7-0.5l1.3-0.3l1.3-0.3c3.5-0.9,6.9-2,10.2-3.3c0.8-0.3,1.7-0.6,2.5-1c0.4-0.2,0.9-0.4,1.2-0.5
		c0.4-0.1,0.8-0.1,1.1,0l2.6,0.7l0.1,0c0,0,0,0,0,0c0,0,0,0,0,0c0,0,0,0,0,0v0h0L88,26.9l-0.3,0.2l-1,0.9l-0.4,0.4l0.5,0.3l1.2,0.8
		c0.4,0.3,0.7,0.5,1,0.8c0.5,0.6,0.9,1.3,1.1,2.1c0.2,0.8,0.1,1.6-0.2,2.3c-0.3,0.7-0.8,1.3-1.5,1.7c-0.3,0.2-0.7,0.3-1,0.4
		c-0.5,0.1-0.4,0-0.4,0l-0.4-0.5c-0.1-0.2-0.3-0.4-0.5-0.6c-0.3-0.4-0.7-0.7-1-1.1c-0.7-0.7-1.6-1.4-2.7-1.7
		c-0.5-0.2-1.1-0.3-1.7-0.2l-0.4,0l-0.3,0l-0.7,0.1l-2.8,0.3c-0.5,0.1-1,0.1-1.7,0.4l-0.1,0.1l-0.2,0.1c-0.1,0.1-0.1,0.1-0.2,0.2
		c-0.1,0.1-0.2,0.2-0.3,0.3l-0.5,0.5L69.7,39c-1.2,1.4-2.5,2.7-3.8,4c-0.7,0.6-1.4,1.2-2.1,1.8c-0.5,0.4-1.1,0.8-1.7,1
		c-0.1-0.5-0.3-1-0.4-1.4c-0.7-2.3-2.4-4-4.6-4.6c-3.8-1.1-7,0.9-8.1,2c-0.1,0.1-0.3,0.3-11.9,16.6c0,0,0,0,0,0c0,0,0,0,0,0
		c-0.4,0.4-0.6,0.8-0.8,1.2c-0.2,0.4-0.4,0.8-0.6,1.2c-0.4,0.8-0.7,1.7-1,2.5c-0.3,0.8-0.5,1.7-0.7,2.6c-0.2,0.9-0.3,1.7-0.5,2.6
		c0.3-0.8,0.6-1.6,0.9-2.4c0.3-0.8,0.7-1.6,1.1-2.3c0.1-0.2,0.3-0.5,0.4-0.7c-0.1,0.6-0.1,1.3-0.1,1.9c0,1,0,2,0.1,2.9
		c0.1,1,0.3,1.9,0.5,2.9c0-1-0.1-1.9,0-2.9c0.1-1,0.2-1.9,0.4-2.8c0.2-0.9,0.4-1.8,0.7-2.7c0.3-0.9,0.6-1.8,1-2.5l0,0c0,0,0,0,0,0
		c0,0,0.1-0.1,0.1-0.1c0,0,0,0,0.1-0.1c4.5-6.3,11.2-15.7,11.7-16.4c0.3-0.3,2.7-2.5,6.2-1.5c1.6,0.4,2.8,1.7,3.3,3.3
		c1.3,4.3,2.9,13.3,0.2,20.1l-0.6,1.4c-5.7,14.4-6.3,16.5-5.3,17.4l0.5,0.4l0.6-0.3c0.2-0.1,0.6-0.3,1-0.5c2.3-1.3,8.2-4.8,11.3-2
		c0.3,0.5,0.4,0.8,0.4,1.2c0,0.1,0,0.2,0.1,0.3c0.1,0.6,0.6,0.9,1.2,1.2c1.3,0.8,2.7,1.7,1.2,4.3c-1.3,0.7-4.1,0.2-6.3-0.3L63.2,88
		c-1.8-0.4-6.1-1.3-11.5,1.2l-0.4,0.1c-1.3,0.4-3,0.8-3.7,0.2c-0.5-0.4-0.6-1.4-0.5-2.9c0.7-4.5,0.4-8.2,0-11.8
		c-0.3-3.4-0.7-6.6,0-10.3c0-0.1,0-0.2,0-0.2c0-0.9,0.1-2,0.2-3c0.1-1,0.3-2,0.5-3c0.5-2,1.2-4,2.2-5.8c-1.3,1.6-2.4,3.5-3.2,5.5
		c-0.4,1-0.7,2-1,3c-0.3,1-0.5,2.1-0.7,3.2c0,0.1,0,0.1,0,0.1c0,0,0,0,0,0c-0.6,3.9-0.3,7.3,0.1,10.6c0.3,3.5,0.7,7.1,0,11.4
		c-0.1,0.9-0.1,1.6,0,2.3c-3.2,1-6.7,0.4-9.6-0.8c-1.5-0.7-2.8-1.8-3.7-3.2C31.5,84,31.2,83.3,30.8,82.5z M72.6,121.3
		c-0.1,0.6-0.3,1.2-0.4,1.7l-0.3,0.9c-0.1,0.3-0.2,0.5-0.3,0.7c-0.5,0.9-1.4,1.4-2.4,1.5c-1.2,0.1-2.5,0.2-3.7,0.2
		c-2.5,0.2-5,0.4-7.5,0.2c-1.3-0.1-2.5-0.2-3.7-0.4c-1.3-0.2-2.5-0.3-3.8-0.5c-2.5-0.3-5.1-0.4-7.6-0.3l-1.9,0.1l-1,0.1
		c-0.2,0-0.3,0-0.3,0c-0.1,0-0.2,0-0.2-0.1c-0.3-0.1-0.5-0.3-0.6-0.6c0-0.1-0.1-0.3,0-0.4c0,0,0.1-0.2,0.1-0.4
		c0-0.1,0.1-0.3,0.1-0.5c1.1-4.9,2.5-9.6,3.1-14.5c0.8,0.9,1.3,1.4,2.2,2.2c2.5,2.4,5.1,4.5,8.2,6.2c1.5,0.8,3.1,1.5,4.8,2
		c0.4,0.2,0.8,0.2,1.3,0.3l1.3,0.2c0.4,0.1,0.9,0.1,1.3,0.2l1.3,0.1c3.5,0.2,10.1-1.3,10.1-1.3C72.6,120.1,72.7,120.3,72.6,121.3z
		 M78.1,105.1c0.6-0.9,1-1.9,1.1-2.9c0.5,0.6,1.1,1.3,1.3,2c0.2,0.8,0.3,1.6,0.2,2.4c-0.1,1.6-0.7,3.1-1.5,4.5
		c-0.8,1.4-1.7,2.7-2.9,3.8c-0.6,0.5-1.2,1-1.8,1.3l-0.2,0.1c-0.1,0-0.2,0.1-0.3,0.1l-0.6,0.2l-1.2,0.4c-3.2,0.9-6.4,1.5-9.7,1.5
		c-3.3,0-6.5-0.7-9.6-2c-3.1-1.3-5.9-3.2-8.2-5.7c-2.3-2.4-4.1-5.3-5.7-8.2c-2.8-4.9-5.1-10-7.2-15.2c0.9,0.8,2,1.5,3.2,1.9
		c0.9,0.4,1.9,0.5,2.8,0.7c0.9,0.1,1.9,0.2,2.8,0.2c1.1,0,1.8-0.1,2.8-0.4c0.1,2,1,3.9,1.6,5.9c0.3,1,0.7,2,1.1,3
		c0.4,1,0.9,1.9,1.5,2.8c1.2,1.8,2.7,3.3,4.3,4.7c1.6,1.4,3.3,2.7,5.2,3.6c1,0.5,2,0.8,3.1,1.1c0.5,0.1,1.1,0.2,1.6,0.2
		c0.5,0,1.1,0.1,1.6,0.1c2.2,0,4.3-0.4,6.4-1l1.5-0.5c0.5-0.2,1-0.4,1.5-0.6c0.5-0.2,0.9-0.5,1.4-0.7c0.5-0.2,0.9-0.5,1.4-0.8
		C76.6,106.8,77.5,106,78.1,105.1z M101.9,5.7L101.4,8l-1.1,4.7c-1.5,6.2-3.2,12.4-4.9,18.5c-1.7,6.2-3.4,12.3-5.1,18.5
		c-1.6,6.2-3.3,12.4-4.8,18.6c-3,12-5.8,24.1-8.3,36.3c-0.7,0.6-1.5,1.1-2.3,1.5c-1.8,0.8-3.8,1.5-5.7,2.1c-1.9,0.6-3.9,1-5.8,1.2
		c-2,0.1-3.9,0-5.9-0.6c-1-0.3-1.9-0.7-2.8-1.2c-0.9-0.5-1.7-1.1-2.4-1.9c-1.5-1.4-2.4-3.3-3.3-5.1l-1.3-2.7
		c-0.2-0.5-0.4-0.9-0.6-1.4c-0.2-0.5-0.4-0.9-0.6-1.4c-0.8-1.8-1.3-3.7-2.1-5.6c0.4-0.1,0.6-0.3,1-0.5c0.2,0.9,0.5,1.5,1.1,2
		c0.6,0.5,1.4,0.7,2.3,0.7c1.1,0,2.2-0.3,3.2-0.6l0.5-0.1l0.2-0.1c4.8-2.3,8.5-1.5,10.3-1.1l1,0.2c2.9,0.6,6.1,1.2,7.9-0.2l0.1-0.1
		l0.1-0.2c2.7-4.3-0.5-6.3-1.7-7.1c-0.1-0.1-0.3-0.2-0.4-0.2c0,0,0,0,0,0c-0.1-0.5-0.2-1.1-0.8-2L69,80.1c-3.8-3.6-10-0.4-13,1.3
		c0.8-2.8,3.2-8.8,5.3-14.2l0.6-1.4c2.2-5.5,1.8-12.5,0.8-17.4c-0.2-1.2,0.3-2.4,1.4-3l0,0c0.8-0.5,1.6-1,2.4-1.6
		c1.5-1.1,2.9-2.4,4.3-3.7c1.4-1.3,2.7-2.7,4-4l0.5-0.5c0.1-0.1,0.2-0.2,0.2-0.2c0,0,0,0,0,0l0,0c0.2-0.1,0.6-0.2,1.1-0.2
		c0.9-0.1,1.8-0.2,2.8-0.3l0.7-0.1l0.4-0.1l0.3,0c0.3,0,0.7,0,1,0.1c0.7,0.2,1.4,0.7,2,1.2c0.3,0.3,0.6,0.6,0.9,0.9
		c0.1,0.2,0.3,0.3,0.4,0.5l0.5,0.6c0.3,0.3,0.8,0.5,1.2,0.6c0.5,0,0.7-0.1,1-0.1c0.6-0.1,1.1-0.3,1.6-0.6c1-0.6,1.7-1.5,2.1-2.6
		c0.4-1,0.4-2.2,0.1-3.2c-0.3-1-0.9-2-1.7-2.7c-0.4-0.3-0.9-0.6-1.3-0.9l-0.7-0.4l0.5-0.5l0.2-0.2l0.1-0.1c0,0,0.1-0.1,0.1-0.1
		c0.1-0.1,0.1-0.2,0.1-0.3c0-0.2,0-0.4-0.2-0.6c-0.1-0.1-0.2-0.2-0.3-0.2c-0.1,0-0.1,0-0.2-0.1l-0.1,0l-2.6-0.6
		c-0.5-0.1-1-0.1-1.5,0.1c-0.5,0.2-0.8,0.4-1.2,0.5c-0.8,0.3-1.7,0.6-2.5,0.9c-3.4,1-6.9,1.6-10.4,2.3l-5.2,1c0,0,0,0,0,0
		c0,0,0,0,0,0c0.1-0.2,1.4-5.3,1.6-9.3c0-0.2,0-0.4-0.1-0.5c0.3-0.2,0.6-0.3,0.9-0.5c0.6-0.4,1.3-0.8,1.8-1.4c0.5-0.6,1-1.4,1-2.4
		c0-0.9-0.3-1.8-0.8-2.5c-0.2-0.3-0.5-0.7-0.8-1c-0.3-0.3-0.6-0.6-1.1-0.8c-0.4-0.2-0.9-0.4-1.4-0.4c-0.5,0-0.9,0.1-1.3,0.2
		c-0.3,0.1-0.6,0.3-0.8,0.5c-0.2,0.2-0.5-0.1-0.4-0.3c0.4-1.1,0.7-2.2,1.1-3.3c0.5-1.5,1-3,1.5-4.6l0.2-0.6c0.1-0.2,0.1-0.3,0.2-0.4
		c0.2-0.3,0.4-0.5,0.6-0.7c0.3-0.2,0.5-0.3,0.9-0.4c0.1,0,0.3-0.1,0.5-0.1c0.2,0,0.4,0,0.6-0.1c1.6-0.2,3.1-0.2,4.7-0.2
		c3.2,0.1,6.3,0.4,9.5,0.8c3.1,0.5,6.4,0.9,9.6,1c1.6,0.1,3.2,0,4.9-0.1c0.4,0,0.8-0.1,1.2-0.1l0.6-0.1l0.3,0l0.2,0
		c0.6,0,1.2,0.3,1.6,0.8c0.2,0.2,0.3,0.5,0.4,0.9c0,0.2,0,0.3,0,0.5C102,5.3,102,5.4,101.9,5.7z"/>
	<path class="st5" d="M54,22.6c0,0,0.7-0.7,1.5,0.1c0,0.6,0,2.3,0,2.3s2.3,1.4,2.3,2.4c0.1,1-0.6,2.6-3,1.7
		c-0.7,0.3-3.3,0.6-3.3-1.3c0.3-1.3,2.6-2.9,2.6-2.9L54,22.6z"/>
	<path class="st0" d="M58.3,28c0,0.4-0.1,0.9-0.4,1.2c-0.3,0.3-0.7,0.6-1.1,0.7C56.4,30,56,30,55.6,29.9c-0.3,0-0.5-0.1-0.8-0.3
		c-0.3,0.2-0.5,0.3-0.8,0.3c-0.4,0.1-0.8,0.1-1.2-0.1c-0.4-0.1-0.8-0.3-1.1-0.7c-0.3-0.3-0.5-0.8-0.5-1.2c0-0.4,0.1-0.9,0.3-1.2
		c0.2-0.3,0.4-0.6,0.7-0.9c0.5-0.5,1.1-0.8,1.7-1.1c0-0.7,0.1-1.5,0.2-2.2c0.1,0.8,0.2,1.6,0.3,2.3l0,0.1l-0.1,0.1
		c-0.6,0.3-1.1,0.8-1.5,1.2c-0.2,0.2-0.4,0.5-0.5,0.8c-0.1,0.3-0.2,0.5-0.1,0.8c0,0.5,0.4,0.8,0.9,1c0.5,0.1,1.2,0,1.5-0.3l0.4-0.4
		l0.4,0.4c0.3,0.3,0.9,0.4,1.4,0.3c0.5-0.1,0.8-0.4,0.9-0.9c0-0.5-0.2-1-0.6-1.5c-0.4-0.5-0.9-0.9-1.4-1.3l-0.1-0.1l0-0.1
		c0.1-0.8,0.1-1.6,0.2-2.3c0.1,0.7,0.2,1.5,0.2,2.2c0.6,0.3,1.1,0.7,1.6,1.1C57.9,26.5,58.3,27.1,58.3,28z"/>
</g>
</svg>
