<?xml version="1.0" encoding="utf-8"?>
<!-- Generator: Adobe Illustrator 24.1.2, SVG Export Plug-In . SVG Version: 6.00 Build 0)  -->
<svg version="1.1" id="Layer_1" xmlns="http://www.w3.org/2000/svg" xmlns:xlink="http://www.w3.org/1999/xlink" x="0px" y="0px"
	 viewBox="0 0 128 128" style="enable-background:new 0 0 128 128;" xml:space="preserve">
<style type="text/css">
	.st0{fill:#7FA43C;}
	.st1{fill:#677C76;}
	.st2{fill:#DB5240;}
	.st3{fill:#EAE4D6;}
	.st4{fill:#A5A5A5;}
	.st5{fill:#809B94;}
	.st6{fill:#2D2D2D;}
</style>
<g>
	<path class="st0" d="M29.36,88.88c-0.02,0.1-0.05,0.19-0.08,0.27c0.71,0.02,1.42,0.06,2.12,0.14l0-0.01
		c-0.05-0.4-0.07-0.8-0.06-1.2c-0.18-0.35-0.39-0.66-0.68-0.87c-0.58-0.47-1.43-0.66-2.32-0.92c-0.59-0.17-1.19-0.4-1.78-0.68
		c0.19,0.11,0.39,0.22,0.58,0.34c0.32,0.2,0.64,0.42,0.93,0.68c0.3,0.26,0.6,0.53,0.87,0.89C29.2,87.86,29.45,88.37,29.36,88.88z"/>
	<path class="st0" d="M8.28,91.85c-0.02,1.22-0.11,2.42-0.22,3.63c0.07-0.06,0.14-0.13,0.21-0.19c0.38-0.31,0.78-0.58,1.2-0.83
		c-0.02-0.14-0.04-0.28-0.06-0.41l-0.16-1.19l-0.3-2.38c-0.21-1.58-0.4-3.15-0.71-4.68c-0.15-0.76-0.32-1.52-0.55-2.24
		c-0.22-0.72-0.51-1.42-0.92-1.95c-0.42-0.54-0.95-0.85-1.6-0.85c-0.44-0.01-0.91,0.12-1.37,0.3c1.06,0.58,1.96,1.43,2.58,2.43
		c0.77,1.24,1.27,2.64,1.58,4.06C8.27,88.97,8.3,90.42,8.28,91.85z"/>
	<path class="st0" d="M13.14,92.94c0.57-0.3,1.16-0.58,1.76-0.84c-0.05-0.05-0.09-0.09-0.13-0.14c-0.18-0.22-0.35-0.46-0.47-0.71
		c-0.26-0.51-0.42-1.05-0.51-1.62c-0.09-0.56-0.1-1.15,0.01-1.75c0.1-0.6,0.38-1.23,0.91-1.72c0.55-0.48,1.32-0.66,1.95-0.59
		c0.32,0.03,0.61,0.1,0.9,0.19c-0.05-0.06-0.1-0.13-0.15-0.19c-0.33-0.38-0.71-0.71-1.16-0.89c-0.45-0.19-0.95-0.14-1.35,0.12
		c-0.4,0.26-0.69,0.69-0.88,1.14c-0.2,0.45-0.33,0.94-0.46,1.43c-0.52,1.85-0.84,3.77-1.14,5.78C12.65,93.06,12.9,93,13.14,92.94z"
		/>
	<path class="st0" d="M12.19,93.21c-0.01-0.04-0.01-0.07-0.02-0.11c-0.06-0.24-0.11-0.48-0.15-0.72c-0.23-1.29-0.35-2.59-0.46-3.89
		c-0.11-1.7-0.14-3.4,0-5.12c0.07-0.86,0.17-1.72,0.36-2.57c0.18-0.86,0.44-1.72,0.89-2.55c0.23-0.41,0.51-0.82,0.91-1.17
		c0.39-0.35,0.95-0.59,1.51-0.61c0.47-0.02,0.89,0.1,1.27,0.26c-0.27-0.28-0.61-0.51-0.99-0.63c-0.44-0.15-0.93-0.16-1.4-0.04
		c-0.46,0.13-0.9,0.39-1.27,0.74c-0.74,0.69-1.23,1.63-1.56,2.61c-0.32,0.98-0.5,2.01-0.63,3.03c-0.21,2.06-0.38,4.12-0.46,6.2
		c-0.08,1.83-0.12,3.67-0.19,5.53c0.29-0.15,0.58-0.3,0.88-0.44C11.3,93.53,11.74,93.36,12.19,93.21z"/>
	<path class="st0" d="M33.71,88.53l0.01-0.13l0.07-0.87c0.05-0.58,0.12-1.16,0.22-1.75c0.19-1.15,0.56-2.4,1.48-3.33
		c0.9-0.92,2.14-1.39,3.32-1.57c0.6-0.09,1.2-0.12,1.79-0.09c0.3,0,0.59,0.04,0.88,0.08c0.16,0.02,0.25,0.05,0.37,0.09
		c0.12,0.04,0.27,0.09,0.44,0.12c-0.17-0.11-0.32-0.14-0.42-0.21l-0.45-0.24c-0.31-0.14-0.63-0.25-0.94-0.33
		c-0.64-0.15-1.29-0.16-1.92-0.04c-1.26,0.24-2.38,0.97-3.3,1.87c-0.91,0.92-1.66,2.02-2.18,3.23c-0.46,1.1-0.68,2.29-0.76,3.51
		l1.35,0.08C33.65,88.8,33.67,88.67,33.71,88.53z"/>
	<path class="st1" d="M84.89,38.72l-0.02,0.02C84.87,38.74,84.88,38.73,84.89,38.72C84.88,38.72,84.89,38.72,84.89,38.72z"/>
	<path class="st2" d="M89.51,42.99l0.7,0.69l2.65-2.75c0.99-1.03,1.99-2.04,3-3.06l1.5-1.52l0.75-0.76l0.09-0.1
		c0.05-0.06,0.17-0.16,0.26-0.22c0.2-0.14,0.44-0.22,0.68-0.25c0.48-0.07,1,0.13,1.33,0.47c1.99,2.05,4,4.08,5.96,6.15l1.48,1.55
		l0.62,0.66c1-0.95,2.02-1.88,3.03-2.82l1.57-1.45l0.79-0.73l0.18-0.17c0.02-0.01,0.03-0.03,0.04-0.04c0.02-0.04,0.02-0.09,0-0.13
		l-1.39-1.54l-1.45-1.58c-0.96-1.06-1.95-2.08-2.93-3.12l-1.49-1.54l-0.75-0.77c-0.12-0.11-0.28-0.3-0.29-0.51
		c-0.03-0.21,0.05-0.42,0.2-0.57c2-2.03,3.99-4.09,5.92-6.19l1.45-1.58l0.72-0.79c0.09-0.1,0.08-0.13,0.08-0.2
		c-0.01-0.03-0.02-0.06-0.03-0.08c-0.02-0.03-0.02-0.02-0.11-0.1l-3.14-2.92l-1.57-1.46l-0.78-0.73l-0.06-0.05l-0.01,0.01l-0.18,0.2
		l-0.37,0.39l-0.73,0.78l-1.49,1.54c-0.99,1.03-1.99,2.04-3,3.05l-1.52,1.51l-0.77,0.75l-0.1,0.09c-0.04,0.04-0.14,0.13-0.22,0.19
		c-0.18,0.12-0.38,0.19-0.59,0.22c-0.42,0.06-0.86-0.1-1.15-0.4l-5.84-6.27l-1.46-1.57l-0.73-0.78l-0.05-0.06
		c-0.01-0.01-0.02-0.02-0.03-0.02c-0.02-0.01-0.05-0.02-0.07-0.02c-0.03,0-0.06,0-0.08,0.01c-0.03,0.01-0.03,0.01-0.12,0.09
		l-3.07,2.98l-1.52,1.51l-0.76,0.76l-0.18,0.19c-0.03,0.03-0.05,0.07-0.07,0.12c-0.03,0.09-0.01,0.19,0.04,0.27l1.47,1.48l1.52,1.51
		c1.02,1,2.04,2,3.07,2.98l1.55,1.48l0.77,0.74l0.1,0.09c0.03,0.03,0.11,0.11,0.15,0.17c0.09,0.13,0.16,0.29,0.18,0.45
		c0.05,0.32-0.05,0.67-0.28,0.92c-1.97,2.1-3.88,4.2-5.86,6.26l-1.48,1.55l-0.62,0.65l2.96,2.91L89.51,42.99z"/>
	<path class="st3" d="M99.36,56.91c7.18-0.1,14.21-2.99,19.46-7.98c2.62-2.49,4.76-5.52,6.24-8.87c1.49-3.35,2.24-7.03,2.25-10.71
		c-0.03-3.68-0.77-7.36-2.27-10.7c-1.49-3.34-3.63-6.37-6.25-8.85c-5.25-4.97-12.31-7.84-19.44-7.78c-7.12,0-14.19,2.88-19.25,7.97
		c-2.52,2.53-4.58,5.54-5.99,8.85c-1.4,3.31-2.21,6.89-2.3,10.52c-0.06,3.62,0.54,7.29,1.9,10.68c1.34,3.4,3.39,6.51,5.97,9.1
		C84.86,54.34,92.19,57.08,99.36,56.91z M83.43,38c0.04-0.1,0.1-0.19,0.17-0.27c0.03-0.04,0.07-0.08,0.1-0.12l0.05-0.05l0.77-0.75
		l1.54-1.49c2.03-2,4.13-3.95,6.18-5.92c0.02-0.01,0.03-0.04,0.03-0.07c0-0.01,0-0.03-0.01-0.04c-0.01-0.01,0.01,0-0.02-0.03
		l-0.09-0.1l-0.73-0.78l-1.47-1.56c-0.97-1.04-1.96-2.08-2.95-3.1l-1.49-1.54l-0.75-0.76l-0.37-0.38l-0.19-0.19
		c-0.06-0.06-0.13-0.12-0.21-0.24c-0.15-0.22-0.19-0.51-0.11-0.76c0.04-0.13,0.11-0.24,0.2-0.34l0.19-0.2l0.75-0.77l1.5-1.53
		l2.95-3.1c0.04-0.05,0.16-0.18,0.29-0.25c0.13-0.07,0.28-0.12,0.43-0.12c0.15-0.01,0.3,0.02,0.44,0.08
		c0.07,0.03,0.14,0.07,0.2,0.11c0.06,0.05,0.12,0.1,0.14,0.12l0.78,0.74l1.55,1.47l6.04,5.75l0.71-0.74l1.49-1.54
		c1-1.02,2-2.04,3.02-3.04l1.52-1.51l0.77-0.74l0.39-0.37l0.19-0.19l0.1-0.09c0.02-0.02,0.13-0.13,0.21-0.17
		c0.34-0.23,0.78-0.3,1.16-0.17c0.19,0.06,0.37,0.17,0.51,0.31l0.2,0.21l0.72,0.79l1.44,1.58l2.88,3.17
		c0.04,0.05,0.17,0.18,0.23,0.31c0.07,0.13,0.1,0.28,0.1,0.43c0.02,0.29-0.16,0.61-0.34,0.75l-0.79,0.73l-1.56,1.47
		c-2.08,1.95-4.11,3.96-6.13,5.98c-0.22,0.23-0.18,0.6,0.11,0.8l0.76,0.75l1.52,1.5c1.03,0.99,2.05,1.99,3.1,2.96l1.56,1.47
		l0.79,0.73l0.39,0.36l0.2,0.18c0.06,0.06,0.12,0.1,0.24,0.24c0.19,0.25,0.25,0.58,0.17,0.89c-0.04,0.15-0.12,0.3-0.22,0.42
		l-0.19,0.21l-0.72,0.79l-1.44,1.59c-0.96,1.06-1.91,2.12-2.89,3.17c-0.04,0.04-0.03,0.04-0.12,0.12c-0.07,0.07-0.16,0.14-0.25,0.19
		c-0.18,0.11-0.39,0.17-0.61,0.19c-0.21,0.01-0.43-0.02-0.63-0.1c-0.1-0.04-0.19-0.09-0.28-0.16c-0.08-0.06-0.18-0.16-0.2-0.17
		l-0.78-0.74l-1.54-1.49c-1.95-1.88-3.86-3.8-5.8-5.71l-0.56,0.56l-1.51,1.52c-1,1.01-2.01,2.03-3.03,3.03l-1.52,1.5l-0.76,0.75
		l-0.38,0.38l-0.19,0.19l-0.09,0.09c-0.04,0.04-0.16,0.15-0.24,0.2c-0.39,0.26-0.9,0.33-1.33,0.18c-0.22-0.08-0.42-0.2-0.58-0.36
		l-0.19-0.2l-0.74-0.77l-1.49-1.54l-2.97-3.08c-0.02-0.02-0.24-0.24-0.31-0.42c-0.1-0.19-0.15-0.41-0.15-0.62
		C83.29,38.4,83.34,38.19,83.43,38z"/>
	<path class="st0" d="M34.25,89.3l0,0.19c0.2,0.05,0.38,0.15,0.55,0.23c0.26,0.14,0.52,0.28,0.76,0.43c0.5,0.28,0.98,0.55,1.48,0.77
		c0.99,0.45,2.02,0.69,3.08,0.78c1.06,0.11,2.22,0.04,3.28-0.37c0.36-0.14,0.71-0.31,1.05-0.51c-0.49,0.05-0.99,0.06-1.47,0.02
		c-1.24-0.09-2.42-0.39-3.54-0.8c-1.12-0.41-2.18-0.91-3.22-1.34c-0.52-0.2-1.05-0.4-1.52-0.4c-0.18,0.01-0.34,0.05-0.48,0.15
		l0.04,0.38C34.28,89.01,34.25,89.17,34.25,89.3z"/>
	<path class="st4" d="M27.14,119.91c-0.98-0.51-1.99-0.96-3.02-1.35c-0.51-0.2-1.03-0.39-1.55-0.57l-0.77-0.28
		c-0.18-0.06-0.36-0.07-0.53-0.06c-0.18,0.01-0.35,0.05-0.5,0.13c-0.09,0.04-0.13,0.07-0.24,0.14l-0.35,0.22
		c-0.47,0.29-0.95,0.57-1.43,0.84c-0.97,0.54-1.97,1.03-2.98,1.5c-0.93,0.4-1.79,1.05-2.36,1.97c-0.58,0.9-0.85,2.02-0.74,3.11
		c0.04,0.52,0.4,1,0.87,1.17c0.25,0.09,0.47,0.09,0.76,0.07c0.28-0.01,0.55-0.04,0.83-0.07c1.11-0.09,2.22-0.25,3.33-0.37
		c2.22-0.27,4.43-0.35,6.65-0.38c2.22-0.01,4.43,0.04,6.65,0.12l1.66,0.06l0.18,0.01c0.03-0.01,0.07-0.01,0.1-0.04
		c0.07-0.04,0.13-0.12,0.17-0.2c0.03-0.09,0.04-0.17-0.01-0.26c0-0.01-0.04-0.08-0.08-0.13l-0.11-0.16l-0.23-0.32
		c-0.32-0.42-0.66-0.83-1.04-1.22C30.9,122.25,29.07,120.95,27.14,119.91z"/>
	<path class="st5" d="M126.59,103.27c-0.05-0.5-0.12-0.99-0.23-1.47c-0.21-0.95-0.57-1.85-1.14-2.56c-1.12-1.46-3.07-2.04-5.05-2.22
		c-2-0.19-4.07-0.09-6.14,0.06c-4.15,0.33-8.34,0.86-12.56,1.14c-2.11,0.15-4.23,0.23-6.36,0.24c-0.54,0-1.05,0-1.6-0.01
		c-0.56-0.01-1.11-0.05-1.65-0.11c-1.09-0.11-2.17-0.31-3.22-0.55c-4.21-1-8.12-2.58-12.09-3.74c-3.95-1.16-8.07-1.88-11.99-0.77
		c-1.99,0.5-3.86,1.28-5.85,2.09c-1,0.39-2.07,0.72-3.18,0.85c-0.27,0.04-0.55,0.06-0.83,0.07c-0.28,0.02-0.55,0.02-0.83,0
		c-0.28,0-0.55-0.02-0.82-0.05l-0.41-0.04c-0.12-0.01-0.3-0.03-0.5-0.1c-0.1-0.04-0.21-0.09-0.32-0.19c-0.11-0.1-0.21-0.25-0.24-0.4
		c-0.07-0.3,0-0.49,0.05-0.66c0.12-0.32,0.26-0.55,0.4-0.78c0.27-0.45,0.56-0.89,0.66-1.28c0.04-0.2,0.03-0.31-0.06-0.41
		c-0.09-0.11-0.28-0.21-0.5-0.28c-0.21-0.07-0.48-0.11-0.75-0.17c-0.26-0.06-0.52-0.13-0.78-0.2c-1.03-0.29-2-0.65-3.02-0.83
		c-0.66-0.13-1.33-0.18-2.01-0.19c-0.67,0.35-1.35,0.68-2.03,0.98c-1.07,0.46-2.19,0.94-3.44,1.03c-1.24,0.09-2.5-0.31-3.54-0.94
		c-0.52-0.31-1-0.69-1.42-1.1c-0.22-0.2-0.42-0.41-0.62-0.61c-0.2-0.19-0.4-0.42-0.63-0.49l0-0.01l-2.06,0.12l-0.38,0.02l0-0.02
		c-1.39,0.11-2.77,0.25-4.13,0.45c-1.91,0.29-3.81,0.64-5.69,1.07c-1.89,0.41-3.76,0.92-5.61,1.46c-1.19,0.36-2.37,0.74-3.54,1.17
		c-0.38,0.25-0.76,0.49-1.13,0.73c-0.83,0.52-1.63,1.07-2.48,1.55c-0.85,0.48-1.75,0.93-2.49,1.57c-0.75,0.63-1.39,1.41-1.87,2.25
		c-0.49,0.83-0.81,1.69-0.92,2.57c-0.1,0.88,0.04,1.77,0.31,2.61c0.27,0.85,0.72,1.63,1.33,2.36c0.57,0.71,1.11,1.45,1.61,2.22
		c1.36,0.94,2.62,2.09,3.57,3.49c0.51,0.76,0.92,1.58,1.26,2.42c-0.01-1.01,0.04-2.02,0.17-3.03c0.25-1.85,0.79-3.72,1.86-5.36
		c0.55-0.8,1.21-1.55,2-2.14c0.78-0.59,1.66-1.05,2.56-1.38c1.81-0.68,3.73-0.77,5.57-0.69l1.89,0.08l-1.77,0.53
		c-1.69,0.5-3.36,1.1-4.76,2.15c-1.39,1.05-2.38,2.51-2.96,4.07c-0.62,1.56-0.91,3.25-1.04,4.97c-0.07,1.07-0.07,2.15-0.05,3.24
		c0.06-1.52,0.29-3.04,0.84-4.52c0.41-1.07,1.04-2.13,2-2.91c0.95-0.8,2.23-1.2,3.45-1.18c1.23,0.01,2.39,0.38,3.44,0.88
		c1.04,0.52,1.99,1.19,2.85,1.96c0.85,0.76,1.62,1.63,2.24,2.6c0.61,0.97,1.1,2.06,1.24,3.24l0.15,1.26l-0.79-0.94
		c-0.97-1.16-2.04-2.26-3.31-3.07c-1.26-0.82-2.72-1.36-4.13-1.52c-0.7-0.09-1.4-0.08-2.04,0.06c-0.64,0.15-1.23,0.46-1.7,0.94
		c-0.68,0.67-1.09,1.61-1.37,2.62c0.44-0.27,0.88-0.54,1.32-0.8l0.36-0.21c0.12-0.07,0.33-0.17,0.5-0.23
		c0.36-0.13,0.75-0.19,1.13-0.17c0.38,0.01,0.75,0.12,1.08,0.28c0.26,0.14,0.5,0.26,0.75,0.41c0.49,0.28,0.98,0.56,1.45,0.85
		l2.86,1.76c1.81,1.11,3.64,2.19,5.37,3.49c1.83,0.16,3.66,0.25,5.5,0.26c2.09,0.01,4.18-0.11,6.26-0.28
		c2.08-0.19,4.15-0.46,6.22-0.75l6.22-0.98c4.15-0.67,8.35-1.25,12.59-1.46c2.13-0.12,4.23-0.13,6.39-0.04
		c2.16,0.11,4.3,0.52,6.37,1.09c4.01,1.12,8.1,2.01,12.24,2.59c4.13,0.57,8.33,0.85,12.49,0.49c4.14-0.35,8.31-1.32,11.91-3.38
		c1.78-1.04,3.4-2.37,4.65-4c1.25-1.62,2.12-3.51,2.6-5.49c0.49-1.98,0.59-4.05,0.47-6.1C126.68,104.31,126.64,103.77,126.59,103.27
		z M67.99,112.04c-0.16,0.36-0.36,0.52-0.52,0.66c-0.17,0.14-0.34,0.25-0.5,0.34c-0.66,0.38-1.3,0.62-1.96,0.86
		c-1.3,0.46-2.61,0.82-3.91,1.19l-3.91,1.04l-1.93,0.55c-0.66,0.2-1.33,0.36-2.01,0.48c-2.7,0.5-5.44,0.58-8.15,0.21
		c-1.35-0.19-2.7-0.48-3.99-1.01c-1.29-0.53-2.48-1.3-3.52-2.27c-0.25-0.26-0.5-0.53-0.72-0.86c-0.21-0.33-0.44-0.75-0.36-1.33
		c0.04-0.29,0.2-0.55,0.37-0.74c0.09-0.09,0.18-0.16,0.28-0.24c0.09-0.06,0.19-0.11,0.28-0.17c0.37-0.18,0.74-0.28,1.1-0.35
		c0.71-0.15,1.4-0.19,2.09-0.21c0.69-0.03,1.37,0,2.05,0.02c2.67,0.1,5.32,0.36,7.97,0.26c0.08,0,0.16-0.01,0.25-0.03
		c2.6-0.5,5.27-0.82,7.95-0.91c1.36-0.04,2.73-0.03,4.09,0.12c0.68,0.05,1.36,0.16,2.04,0.25c0.69,0.12,1.37,0.22,2.12,0.54
		c0.19,0.09,0.39,0.18,0.62,0.4c0.11,0.12,0.24,0.27,0.31,0.5C68.1,111.59,68.07,111.87,67.99,112.04z M113.68,108.62
		c-0.08,0.45-0.3,0.89-0.65,1.2c-0.35,0.32-0.8,0.47-1.22,0.57c-0.87,0.2-1.76,0.12-2.6-0.03c-0.85-0.15-1.67-0.38-2.48-0.59
		c-3.24-0.9-6.52-1.46-9.83-1.39c-1.64,0.03-3.33,0.2-5.01,0.32c-1.68,0.14-3.36,0.24-5.04,0.34c-1.69,0.08-3.37,0.16-5.07,0.17
		c-0.85,0-1.7,0-2.56-0.07c-0.43-0.03-0.86-0.07-1.3-0.13c-0.44-0.08-0.86-0.12-1.38-0.4c-0.12-0.08-0.32-0.2-0.4-0.5
		c-0.07-0.32,0.08-0.53,0.18-0.64c0.21-0.24,0.4-0.35,0.6-0.47l1.11-0.61l2.22-1.23c1.48-0.81,2.92-1.68,4.37-2.55
		c1.45-0.89,3.27-1.16,4.95-0.75c1.64,0.49,3.22,1,4.86,1.33c1.63,0.34,3.26,0.54,4.88,0.52c1.62-0.03,3.25-0.27,4.83-0.71
		c0.77-0.2,1.64-0.51,2.53-0.58c0.89-0.08,1.8,0,2.64,0.28c1.7,0.55,3.11,1.79,3.9,3.34C113.58,106.83,113.83,107.72,113.68,108.62z
		"/>
	<path class="st1" d="M109.12,103.35c-0.77-0.19-1.58-0.21-2.36-0.09c-0.79,0.11-1.5,0.42-2.34,0.71c-1.63,0.57-3.37,0.86-5.11,0.87
		c-1.74-0.02-3.47-0.31-5.1-0.84c-1.63-0.5-3.21-1.18-4.75-1.79c-1.55-0.55-3.36-0.34-4.79,0.53c-1.43,0.9-2.85,1.8-4.24,2.75
		l-2.09,1.43l-1.04,0.72c-0.11,0.08-0.22,0.17-0.29,0.25c0.24,0.09,0.65,0.13,1.01,0.15c0.4,0.02,0.81,0.03,1.23,0.03
		c0.83-0.01,1.66-0.03,2.49-0.08c1.67-0.07,3.35-0.17,5.02-0.28l5.04-0.28c1.69-0.07,3.35-0.19,5.08-0.19
		c1.72,0.01,3.43,0.2,5.11,0.53c1.68,0.33,3.31,0.85,4.91,1.37c0.8,0.26,1.6,0.52,2.4,0.71c0.8,0.2,1.62,0.29,2.41,0.14
		c0.39-0.08,0.77-0.2,1.05-0.45c0.28-0.25,0.46-0.59,0.54-0.98c0.15-0.77-0.1-1.6-0.47-2.31
		C112.07,104.8,110.67,103.72,109.12,103.35z"/>
	<path class="st0" d="M18.93,105.45c0.89-0.58,1.84-1.06,2.8-1.5c-1.06,0.19-2.09,0.46-3.06,0.86c-1.6,0.66-2.92,1.78-3.86,3.18
		c-0.97,1.4-1.57,3.07-2,4.8c-0.33,1.33-0.54,2.7-0.72,4.09c0.14,0.46,0.26,0.92,0.37,1.39c0.3,1.39,0.44,2.81,0.42,4.22
		c0.03-0.09,0.05-0.18,0.09-0.26c0.4-0.98,1.08-1.9,1.95-2.6c-0.43-1.56-0.67-3.17-0.71-4.81c-0.01-1.8,0.22-3.68,1.03-5.37
		C16.05,107.76,17.42,106.41,18.93,105.45z"/>
	<path class="st0" d="M9.48,113.8c-0.85-1.48-1.91-2.87-3.29-3.96c-0.9-0.7-1.92-1.24-2.99-1.64c0.92,0.71,1.79,1.49,2.55,2.37
		c1.16,1.34,2.21,2.79,3.05,4.35c0.85,1.56,1.48,3.24,1.92,4.96c0.41,1.65,0.6,3.36,0.53,5.05c0.4,0.02,0.8,0.05,1.2,0.08
		c-0.01-0.58,0.06-1.15,0.19-1.72c-0.31-1.63-0.63-3.23-1.11-4.77C11.03,116.85,10.35,115.27,9.48,113.8z"/>
	<path class="st0" d="M17.6,116.45c0.14-0.79,0.47-1.58,1.02-2.25c0.53-0.68,1.33-1.15,2.17-1.37c0.84-0.21,1.71-0.17,2.5,0.02
		c1.6,0.41,2.91,1.32,4.17,2.2c0.88,0.63,1.72,1.29,2.55,1.98c-0.25-0.54-0.57-1.06-0.93-1.54c-0.62-0.84-1.35-1.61-2.16-2.28
		c-0.81-0.67-1.69-1.24-2.63-1.67c-0.93-0.43-1.92-0.71-2.89-0.74c-0.97-0.04-1.91,0.24-2.69,0.8c-0.78,0.57-1.39,1.41-1.84,2.35
		c-0.46,0.94-0.8,1.96-1.03,3.02c-0.17,0.75-0.31,1.51-0.42,2.28c0.68-0.5,1.37-0.99,2.08-1.45
		C17.48,117.35,17.51,116.9,17.6,116.45z"/>
	<path class="st1" d="M62.79,110.87c-1.32-0.2-2.64-0.36-3.97-0.5c-2.66-0.24-5.37-0.19-8.02,0.34c-2.71,0.07-5.42,0.1-8.11,0.29
		c-1.33,0.12-2.69,0.21-3.91,0.48c-0.31,0.07-0.59,0.17-0.82,0.28c-0.25,0.12-0.34,0.24-0.34,0.32c-0.02,0.09,0.04,0.33,0.19,0.57
		c0.15,0.24,0.34,0.48,0.55,0.72c1.7,1.9,4.18,3.18,6.81,3.61c2.63,0.46,5.37,0.22,7.93-0.48c0.64-0.17,1.27-0.38,1.88-0.62
		c0.63-0.25,1.28-0.49,1.92-0.7c1.29-0.43,2.58-0.83,3.86-1.22c1.28-0.4,2.56-0.81,3.79-1.28c0.61-0.24,1.22-0.49,1.74-0.78
		c0.11-0.06,0.2-0.13,0.28-0.19c-0.01-0.01-0.02-0.01-0.03-0.02C65.51,111.23,64.08,111.1,62.79,110.87z"/>
	<path class="st6" d="M81.29,51.49l2.21,1.72c0.79,0.5,1.56,1.03,2.36,1.52c0.83,0.42,1.66,0.88,2.51,1.28
		c3.43,1.54,7.19,2.4,10.98,2.48c3.79,0.05,7.61-0.68,11.1-2.2c3.5-1.49,6.65-3.75,9.2-6.53c2.56-2.77,4.56-6.02,5.86-9.51
		c1.3-3.49,1.99-7.19,1.99-10.9c0.01-3.71-0.67-7.41-1.97-10.9c-1.3-3.49-3.3-6.75-5.85-9.53c-2.55-2.78-5.69-5.06-9.19-6.58
		C107,0.8,103.17,0.04,99.36,0C95.54,0.01,91.7,0.76,88.2,2.28c-3.51,1.51-6.71,3.72-9.35,6.46c-2.66,2.73-4.74,6-6.11,9.53
		c-1.4,3.53-2.01,7.33-1.94,11.09c0.15,7.53,3.27,14.86,8.47,20.21L81.29,51.49z M71.82,29.35c0.08-3.63,0.9-7.21,2.3-10.52
		c1.41-3.31,3.47-6.32,5.99-8.85c5.05-5.09,12.13-7.97,19.25-7.97c7.13-0.06,14.19,2.81,19.44,7.78c2.63,2.48,4.76,5.51,6.25,8.85
		c1.49,3.34,2.24,7.02,2.27,10.7c-0.02,3.68-0.76,7.36-2.25,10.71c-1.49,3.35-3.62,6.38-6.24,8.87c-5.25,4.99-12.27,7.88-19.46,7.98
		c-7.16,0.17-14.49-2.58-19.66-7.78c-2.58-2.58-4.63-5.7-5.97-9.1C72.36,36.64,71.76,32.98,71.82,29.35z"/>
	<path class="st6" d="M83.75,39.65l2.97,3.08l1.49,1.54l0.74,0.77l0.19,0.2c0.16,0.16,0.36,0.29,0.58,0.36
		c0.44,0.15,0.95,0.09,1.33-0.18c0.09-0.06,0.2-0.16,0.24-0.2l0.09-0.09l0.19-0.19l0.38-0.38l0.76-0.75l1.52-1.5
		c1.02-1,2.02-2.01,3.03-3.03l1.51-1.52l0.56-0.56c1.93,1.9,3.84,3.83,5.8,5.71l1.54,1.49l0.78,0.74c0.01,0.01,0.11,0.11,0.2,0.17
		c0.09,0.06,0.18,0.12,0.28,0.16c0.2,0.08,0.42,0.12,0.63,0.1c0.21-0.01,0.42-0.08,0.61-0.19c0.09-0.05,0.18-0.12,0.25-0.19
		c0.09-0.08,0.08-0.08,0.12-0.12c0.98-1.04,1.93-2.11,2.89-3.17l1.44-1.59l0.72-0.79l0.19-0.21c0.1-0.12,0.18-0.27,0.22-0.42
		c0.08-0.3,0.02-0.64-0.17-0.89c-0.11-0.14-0.17-0.18-0.24-0.24l-0.2-0.18l-0.39-0.36l-0.79-0.73l-1.56-1.47
		c-1.05-0.97-2.06-1.97-3.1-2.96l-1.52-1.5l-0.76-0.75c-0.28-0.2-0.33-0.57-0.11-0.8c2.01-2.02,4.04-4.03,6.13-5.98l1.56-1.47
		l0.79-0.73c0.18-0.14,0.35-0.46,0.34-0.75c0-0.15-0.03-0.3-0.1-0.43c-0.06-0.13-0.19-0.26-0.23-0.31l-2.88-3.17l-1.44-1.58
		l-0.72-0.79l-0.2-0.21c-0.14-0.14-0.32-0.25-0.51-0.31c-0.38-0.13-0.83-0.07-1.16,0.17c-0.07,0.05-0.19,0.15-0.21,0.17l-0.1,0.09
		l-0.19,0.19l-0.39,0.37l-0.77,0.74l-1.52,1.51c-1.02,1-2.02,2.02-3.02,3.04l-1.49,1.54l-0.71,0.74l-6.04-5.75l-1.55-1.47
		l-0.78-0.74c-0.02-0.02-0.08-0.08-0.14-0.12c-0.06-0.05-0.13-0.09-0.2-0.11c-0.14-0.06-0.29-0.09-0.44-0.08
		c-0.15,0.01-0.3,0.05-0.43,0.12c-0.13,0.07-0.25,0.2-0.29,0.25l-2.95,3.1l-1.5,1.53l-0.75,0.77l-0.19,0.2
		c-0.09,0.1-0.16,0.21-0.2,0.34c-0.08,0.25-0.04,0.54,0.11,0.76c0.09,0.12,0.16,0.18,0.21,0.24l0.19,0.19l0.37,0.38l0.75,0.76
		l1.49,1.54c0.99,1.03,1.98,2.06,2.95,3.1l1.47,1.56l0.73,0.78l0.09,0.1c0.03,0.03,0.02,0.02,0.02,0.03
		c0.01,0.01,0.01,0.03,0.01,0.04c0,0.03-0.02,0.05-0.03,0.07c-2.05,1.96-4.15,3.92-6.18,5.92l-1.54,1.49l-0.77,0.75l-0.05,0.05
		c-0.04,0.04-0.07,0.08-0.1,0.12c-0.07,0.08-0.12,0.17-0.17,0.27c-0.09,0.19-0.14,0.41-0.13,0.62c0,0.21,0.05,0.42,0.15,0.62
		C83.52,39.41,83.73,39.63,83.75,39.65z M85.64,37.92l1.48-1.55c1.98-2.06,3.9-4.16,5.86-6.26c0.23-0.25,0.33-0.6,0.28-0.92
		c-0.03-0.16-0.09-0.32-0.18-0.45c-0.04-0.06-0.11-0.14-0.15-0.17l-0.1-0.09l-0.77-0.74l-1.55-1.48c-1.03-0.98-2.06-1.98-3.07-2.98
		l-1.52-1.51l-1.47-1.48c-0.05-0.07-0.07-0.18-0.04-0.27c0.01-0.04,0.04-0.08,0.07-0.12l0.18-0.19l0.76-0.76l1.52-1.51l3.07-2.98
		c0.08-0.08,0.09-0.08,0.12-0.09c0.03-0.01,0.05-0.01,0.08-0.01c0.03,0,0.05,0.01,0.07,0.02c0.01,0.01,0.02,0.01,0.03,0.02
		l0.05,0.06l0.73,0.78l1.46,1.57l5.84,6.27c0.29,0.3,0.73,0.46,1.15,0.4c0.21-0.03,0.41-0.1,0.59-0.22
		c0.08-0.05,0.18-0.14,0.22-0.19l0.1-0.09l0.77-0.75l1.52-1.51c1.01-1.01,2.02-2.02,3-3.05l1.49-1.54l0.73-0.78l0.37-0.39l0.18-0.2
		l0.01-0.01l0.06,0.05l0.78,0.73l1.57,1.46l3.14,2.92c0.08,0.08,0.09,0.08,0.11,0.1c0.02,0.02,0.03,0.05,0.03,0.08
		c0,0.07,0.01,0.11-0.08,0.2l-0.72,0.79l-1.45,1.58c-1.93,2.1-3.92,4.15-5.92,6.19c-0.15,0.15-0.22,0.36-0.2,0.57
		c0.01,0.21,0.17,0.4,0.29,0.51l0.75,0.77l1.49,1.54c0.98,1.04,1.97,2.07,2.93,3.12l1.45,1.58l1.39,1.54c0.02,0.04,0.02,0.09,0,0.13
		c-0.01,0.02-0.02,0.03-0.04,0.04l-0.18,0.17l-0.79,0.73l-1.57,1.45c-1.01,0.94-2.03,1.87-3.03,2.82l-0.62-0.66l-1.48-1.55
		c-1.96-2.07-3.98-4.1-5.96-6.15c-0.32-0.34-0.84-0.53-1.33-0.47c-0.24,0.03-0.48,0.12-0.68,0.25c-0.1,0.06-0.21,0.16-0.26,0.22
		l-0.09,0.1l-0.75,0.76l-1.5,1.52c-1,1.01-2.01,2.03-3,3.06l-2.65,2.75l-0.7-0.69l-1.52-1.5l-2.96-2.91L85.64,37.92z M84.89,38.72
		C84.89,38.72,84.88,38.72,84.89,38.72c-0.01,0.01-0.01,0.02-0.02,0.02L84.89,38.72z"/>
	<path class="st6" d="M127.74,101.51c-0.21-1.1-0.62-2.22-1.33-3.18c-0.71-0.97-1.72-1.69-2.79-2.14c-1.07-0.46-2.18-0.69-3.27-0.83
		c-2.19-0.27-4.33-0.17-6.45-0.05c-4.23,0.27-8.39,0.73-12.56,0.94c-2.08,0.11-4.16,0.18-6.24,0.19c-0.52,0-1.05,0-1.55-0.01
		c-0.5-0.01-0.99-0.05-1.49-0.1c-1-0.1-1.99-0.3-2.99-0.51c-4-0.88-7.92-2.45-12.05-3.53c-2.07-0.54-4.18-0.98-6.36-1.12
		c-2.16-0.14-4.42,0.04-6.5,0.69c-2.08,0.56-4.06,1.52-5.93,2.37c-0.94,0.42-1.88,0.75-2.86,0.91c-0.24,0.05-0.49,0.08-0.74,0.09
		c-0.25,0.03-0.5,0.04-0.75,0.04c-0.25,0.01-0.5,0.01-0.76-0.02c-0.22-0.02-0.52-0.02-0.63-0.05c0-0.02,0.01-0.04,0.01-0.05
		c0.06-0.18,0.17-0.41,0.3-0.63c0.24-0.46,0.55-0.92,0.67-1.57c0.07-0.31,0-0.78-0.29-1.07c-0.27-0.28-0.59-0.38-0.87-0.45
		c-0.3-0.07-0.55-0.09-0.8-0.13c-0.25-0.04-0.51-0.09-0.76-0.15c-1.01-0.22-2.04-0.52-3.1-0.66c-0.5-0.06-1.01-0.08-1.51-0.07
		c0.14-0.07,0.28-0.14,0.42-0.22c0.02-0.01,0.04-0.02,0.06-0.03l0,0c0.02-0.01,0.05-0.02,0.07-0.04l2.84-1.58l-3.2,0.93
		c-1.05,0.31-2.14,0.31-3.22,0.16c-1.08-0.17-2.15-0.51-3.24-0.86c-1.09-0.34-2.18-0.74-3.37-1.01c-0.59-0.12-1.22-0.26-1.91-0.09
		c-0.14,0.03-0.27,0.1-0.4,0.18c0-0.1,0-0.2,0-0.3c0.01-0.57,0.08-1.13,0.22-1.67c0.3-1.09,0.98-2.01,1.78-2.64
		c0.79-0.65,1.76-1.1,2.81-1.4c0.52-0.16,1.07-0.27,1.63-0.38l0.84-0.15c0.12-0.03,0.33-0.05,0.49-0.08c0.17-0.04,0.3-0.08,0.43-0.1
		c-0.1-0.12-0.21-0.32-0.37-0.48l-0.41-0.36c-0.29-0.22-0.6-0.43-0.95-0.58c-0.69-0.31-1.46-0.45-2.23-0.41
		c-1.55,0.1-2.99,0.84-4.1,1.86c-1.13,1.02-1.94,2.34-2.43,3.75c-0.21,0.58-0.34,1.17-0.44,1.77c-0.03-0.05-0.06-0.1-0.1-0.14
		c-0.35-0.44-0.82-0.74-1.27-0.97c-0.45-0.23-0.9-0.39-1.34-0.55c-0.87-0.31-1.7-0.56-2.5-0.94c-0.79-0.38-1.53-0.85-2.27-1.38
		l-2.35-1.66l1.77,2.12c0.02,0.03,0.05,0.05,0.07,0.08l0,0c0.06,0.08,0.14,0.15,0.2,0.23c0.43,0.5,0.86,0.99,1.29,1.47
		c0.51,0.59,0.98,1.24,1.53,1.81c0.54,0.56,1.21,0.96,1.7,1.41c0.24,0.23,0.42,0.43,0.48,0.7c0.02,0.08,0.02,0.17,0.02,0.27
		c-0.49,0-0.98,0.01-1.48,0.04c-1.98,0.09-3.94,0.4-5.88,0.82c-1.93,0.45-3.83,1.01-5.66,1.76c-0.16,0.06-0.31,0.14-0.47,0.2
		c-0.16-0.29-0.25-0.61-0.32-0.93c-0.1-0.49-0.14-0.98-0.13-1.47c0.02-0.95,0.27-1.97,0.81-2.38c0.25-0.21,0.58-0.3,0.99-0.3
		c0.41,0.01,0.87,0.13,1.32,0.31c0.23,0.08,0.45,0.19,0.68,0.29l0.04,0.02c0.09,0.05,0.22,0.09,0.35,0.08
		c0.26-0.02,0.46-0.18,0.55-0.38c0.05-0.11,0.06-0.23,0.04-0.36c-0.01-0.11-0.1-0.26-0.12-0.27l-0.07-0.08l-0.27-0.31
		c-0.36-0.41-0.78-0.78-1.23-1.12c-0.44-0.34-0.95-0.62-1.49-0.78c-0.55-0.17-1.18-0.11-1.69,0.17c-0.52,0.27-0.92,0.69-1.27,1.13
		c-0.35,0.44-0.64,0.93-0.86,1.44c0,0.01-0.01,0.02-0.01,0.03c0.07-1.19,0.15-2.38,0.29-3.55c0.21-1.62,0.46-3.29,1.09-4.65
		c0.33-0.68,0.79-1.17,1.36-1.21c0.59-0.05,1.31,0.31,1.95,0.75l0.84,0.58l-0.04-0.97c-0.03-0.71-0.4-1.28-0.83-1.69
		c-0.44-0.41-0.98-0.69-1.55-0.82c-1.17-0.27-2.35,0.26-3.1,1.03c-0.78,0.78-1.31,1.74-1.74,2.71c-0.44,0.98-0.78,2-1.04,3.05
		c-0.2,0.75-0.34,1.51-0.43,2.27c-0.29-1.28-0.73-2.57-1.65-3.7c-0.3-0.35-0.68-0.67-1.13-0.88c-0.45-0.21-0.96-0.29-1.44-0.25
		c-0.96,0.09-1.73,0.55-2.4,1.03l-0.68,0.49l0.76,0.18c0.66,0.16,1.29,0.42,1.86,0.8c0.56,0.39,1.04,0.89,1.39,1.49
		c0.71,1.19,0.89,2.61,0.97,3.99l0.21,4.19c0.07,1.35,0.15,2.72,0.32,4.09c-0.49,0.48-0.96,0.99-1.45,1.46
		c-0.72,0.7-1.46,1.38-2.17,2.12c-1.55,1.43-2.11,4.01-1.29,6.06c0.38,1.03,1.09,1.94,1.91,2.59c0.18,0.16,0.37,0.31,0.55,0.46
		c-1.11-0.61-2.27-1.11-3.46-1.55L0,106.5l1.39,1.11c1.33,1.07,2.46,2.36,3.51,3.68c1.06,1.32,1.94,2.77,2.73,4.26
		c0.78,1.5,1.47,3.04,2.01,4.65c0.54,1.6,0.95,3.26,1.13,4.96l0.03,0.27l0.22-0.04c0.48-0.08,0.96-0.14,1.44-0.23
		c0,0.13,0,0.27,0.01,0.4c0.04,0.59,0.4,1.15,0.95,1.42c0.26,0.15,0.61,0.19,0.87,0.19c0.28,0.01,0.55,0.04,0.83,0.07
		c1.11,0.09,2.22,0.25,3.33,0.37c2.22,0.27,4.43,0.35,6.65,0.38c2.22,0.01,4.43-0.04,6.65-0.12l1.66-0.06l0.11,0l0.18-0.02
		c0.12-0.01,0.24-0.04,0.35-0.07c0.23-0.08,0.45-0.19,0.63-0.35c0.37-0.3,0.6-0.73,0.67-1.19c0.07-0.46-0.05-0.96-0.33-1.32
		c-0.07-0.11-0.12-0.14-0.17-0.2l-0.15-0.16l-0.31-0.31c-0.37-0.35-0.75-0.68-1.14-0.99c3.75,0.61,7.57,0.8,11.38,0.65
		c4.23-0.16,8.43-0.73,12.59-1.29c4.16-0.55,8.31-1.07,12.46-1.24c2.07-0.08,4.17-0.11,6.22-0.03c2.03,0.11,4.06,0.42,6.06,0.93
		c8.23,1.96,16.75,2.96,25.18,2.17c2.11-0.2,4.2-0.56,6.25-1.1c2.05-0.53,4.05-1.31,5.93-2.32c1.86-1.04,3.58-2.38,4.97-4.05
		c1.38-1.66,2.38-3.64,2.97-5.73c0.6-2.08,0.8-4.27,0.76-6.41c-0.01-0.54-0.03-1.06-0.06-1.6
		C127.91,102.61,127.85,102.06,127.74,101.51z M34.7,88.3c0.47,0,1,0.2,1.52,0.4c1.04,0.43,2.1,0.93,3.22,1.34
		c1.12,0.4,2.3,0.71,3.54,0.8c0.48,0.04,0.98,0.04,1.47-0.02c-0.34,0.19-0.69,0.37-1.05,0.51c-1.06,0.42-2.22,0.48-3.28,0.37
		c-1.07-0.09-2.09-0.33-3.08-0.78c-0.5-0.22-0.98-0.49-1.48-0.77c-0.25-0.14-0.5-0.29-0.76-0.43c-0.17-0.08-0.35-0.18-0.55-0.23
		l0-0.19c0-0.12,0.03-0.28,0.02-0.47l-0.04-0.38C34.37,88.34,34.53,88.31,34.7,88.3z M33.06,85.35c0.52-1.21,1.27-2.31,2.18-3.23
		c0.92-0.9,2.05-1.63,3.3-1.87c0.63-0.12,1.28-0.11,1.92,0.04c0.32,0.08,0.64,0.19,0.94,0.33l0.45,0.24c0.1,0.07,0.25,0.1,0.42,0.21
		c-0.17-0.02-0.32-0.07-0.44-0.12c-0.12-0.04-0.21-0.07-0.37-0.09c-0.29-0.03-0.59-0.07-0.88-0.08c-0.59-0.03-1.19,0-1.79,0.09
		c-1.18,0.18-2.43,0.64-3.32,1.57c-0.91,0.92-1.28,2.18-1.48,3.33c-0.1,0.58-0.17,1.16-0.22,1.75l-0.07,0.87l-0.01,0.13
		c-0.04,0.14-0.05,0.27-0.06,0.4l-1.35-0.08C32.38,87.64,32.6,86.45,33.06,85.35z M28.08,86.63c-0.29-0.26-0.61-0.47-0.93-0.68
		c-0.19-0.12-0.38-0.23-0.58-0.34c0.58,0.28,1.19,0.51,1.78,0.68c0.89,0.27,1.74,0.45,2.32,0.92c0.28,0.21,0.5,0.52,0.68,0.87
		c0,0.4,0.01,0.8,0.06,1.2l0,0.01c-0.7-0.08-1.41-0.13-2.12-0.14c0.03-0.09,0.06-0.18,0.08-0.27c0.09-0.51-0.16-1.02-0.42-1.36
		C28.68,87.16,28.37,86.89,28.08,86.63z M13.55,87.36c0.13-0.49,0.26-0.97,0.46-1.43c0.2-0.45,0.48-0.88,0.88-1.14
		c0.4-0.26,0.91-0.31,1.35-0.12c0.45,0.18,0.84,0.51,1.16,0.89c0.05,0.06,0.1,0.13,0.15,0.19c-0.28-0.09-0.58-0.16-0.9-0.19
		c-0.63-0.07-1.4,0.11-1.95,0.59c-0.53,0.5-0.8,1.13-0.91,1.72c-0.12,0.6-0.1,1.19-0.01,1.75c0.09,0.56,0.25,1.11,0.51,1.62
		c0.12,0.26,0.28,0.49,0.47,0.71c0.04,0.05,0.09,0.1,0.13,0.14c-0.59,0.26-1.18,0.53-1.76,0.84c-0.24,0.06-0.49,0.12-0.72,0.2
		C12.71,91.13,13.03,89.21,13.55,87.36z M10.18,88.63c0.08-2.09,0.26-4.15,0.46-6.2c0.13-1.02,0.31-2.05,0.63-3.03
		c0.33-0.97,0.82-1.92,1.56-2.61c0.37-0.34,0.8-0.61,1.27-0.74c0.47-0.12,0.96-0.1,1.4,0.04c0.38,0.12,0.72,0.35,0.99,0.63
		c-0.38-0.16-0.8-0.28-1.27-0.26c-0.55,0.02-1.11,0.26-1.51,0.61c-0.4,0.34-0.69,0.75-0.91,1.17c-0.45,0.83-0.71,1.69-0.89,2.55
		c-0.19,0.86-0.29,1.72-0.36,2.57c-0.14,1.71-0.11,3.42,0,5.12c0.11,1.31,0.23,2.6,0.46,3.89c0.04,0.24,0.09,0.48,0.15,0.72
		c0.01,0.04,0.01,0.07,0.02,0.11c-0.45,0.15-0.89,0.32-1.32,0.51c-0.3,0.13-0.59,0.28-0.88,0.44C10.07,92.3,10.1,90.46,10.18,88.63z
		 M6.38,83.48c-0.62-1.01-1.52-1.85-2.58-2.43c0.47-0.19,0.94-0.31,1.37-0.3c0.65,0,1.18,0.31,1.6,0.85
		c0.42,0.53,0.7,1.23,0.92,1.95c0.23,0.72,0.4,1.47,0.55,2.24c0.31,1.53,0.5,3.1,0.71,4.68l0.3,2.38l0.16,1.19
		c0.02,0.13,0.04,0.27,0.06,0.41c-0.42,0.25-0.82,0.52-1.2,0.83c-0.07,0.06-0.14,0.13-0.21,0.19c0.11-1.21,0.2-2.41,0.22-3.63
		c0.02-1.42-0.01-2.87-0.32-4.3C7.65,86.12,7.14,84.72,6.38,83.48z M12.45,125.01c-0.4-0.03-0.8-0.06-1.2-0.08
		c0.07-1.69-0.12-3.4-0.53-5.05c-0.43-1.72-1.07-3.4-1.92-4.96c-0.84-1.57-1.88-3.02-3.05-4.35c-0.77-0.88-1.63-1.66-2.55-2.37
		c1.07,0.4,2.09,0.94,2.99,1.64c1.37,1.09,2.44,2.48,3.29,3.96c0.87,1.47,1.55,3.05,2.05,4.71c0.48,1.54,0.8,3.15,1.11,4.77
		C12.51,123.85,12.45,124.43,12.45,125.01z M14.92,119.63c-0.88,0.69-1.55,1.61-1.95,2.6c-0.03,0.09-0.06,0.18-0.09,0.26
		c0.01-1.41-0.13-2.82-0.42-4.22c-0.1-0.47-0.23-0.93-0.37-1.39c0.18-1.39,0.39-2.76,0.72-4.09c0.43-1.73,1.02-3.4,2-4.8
		c0.94-1.41,2.26-2.53,3.86-3.18c0.96-0.4,2-0.67,3.06-0.86c-0.96,0.44-1.91,0.92-2.8,1.5c-1.51,0.96-2.89,2.31-3.69,4
		c-0.81,1.69-1.04,3.57-1.03,5.37C14.25,116.46,14.49,118.07,14.92,119.63z M33.42,125.05l0.23,0.32l0.11,0.16
		c0.04,0.05,0.08,0.12,0.08,0.13c0.05,0.09,0.04,0.18,0.01,0.26c-0.03,0.08-0.1,0.16-0.17,0.2c-0.03,0.02-0.07,0.03-0.1,0.04
		l-0.18-0.01l-1.66-0.06c-2.22-0.08-4.43-0.13-6.65-0.12c-2.22,0.03-4.43,0.11-6.65,0.38c-1.11,0.12-2.22,0.28-3.33,0.37
		c-0.28,0.03-0.55,0.05-0.83,0.07c-0.29,0.02-0.51,0.03-0.76-0.07c-0.48-0.17-0.83-0.65-0.87-1.17c-0.1-1.09,0.16-2.21,0.74-3.11
		c0.57-0.91,1.43-1.56,2.36-1.97c1.01-0.47,2.01-0.95,2.98-1.5c0.48-0.27,0.96-0.55,1.43-0.84l0.35-0.22
		c0.12-0.07,0.15-0.1,0.24-0.14c0.15-0.07,0.33-0.12,0.5-0.13c0.17-0.01,0.36,0,0.53,0.06l0.77,0.28c0.52,0.18,1.04,0.37,1.55,0.57
		c1.03,0.39,2.04,0.84,3.02,1.35c1.93,1.04,3.76,2.34,5.25,3.92C32.76,124.22,33.1,124.63,33.42,125.05z M15.41,119.25
		c0.12-0.77,0.25-1.54,0.42-2.28c0.23-1.06,0.57-2.08,1.03-3.02c0.45-0.94,1.07-1.78,1.84-2.35c0.78-0.56,1.72-0.84,2.69-0.8
		c0.97,0.03,1.96,0.31,2.89,0.74c0.94,0.42,1.82,1,2.63,1.67c0.8,0.67,1.54,1.44,2.16,2.28c0.36,0.48,0.67,1,0.93,1.54
		c-0.83-0.69-1.67-1.36-2.55-1.98c-1.26-0.88-2.57-1.79-4.17-2.2c-0.79-0.19-1.66-0.23-2.5-0.02c-0.83,0.22-1.63,0.69-2.17,1.37
		c-0.55,0.66-0.88,1.46-1.02,2.25c-0.09,0.45-0.12,0.91-0.11,1.36C16.78,118.27,16.09,118.75,15.41,119.25z M126.24,110.91
		c-0.48,1.98-1.35,3.87-2.6,5.49c-1.24,1.63-2.86,2.96-4.65,4c-3.61,2.06-7.77,3.02-11.91,3.38c-4.16,0.36-8.36,0.08-12.49-0.49
		c-4.14-0.58-8.23-1.46-12.24-2.59c-2.07-0.57-4.2-0.98-6.37-1.09c-2.16-0.09-4.26-0.07-6.39,0.04c-4.24,0.21-8.44,0.8-12.59,1.46
		l-6.22,0.98c-2.07,0.3-4.14,0.57-6.22,0.75c-2.08,0.17-4.17,0.29-6.26,0.28c-1.83-0.01-3.66-0.1-5.5-0.26
		c-1.73-1.3-3.56-2.38-5.37-3.49l-2.86-1.76c-0.48-0.29-0.96-0.58-1.45-0.85c-0.25-0.14-0.49-0.27-0.75-0.41
		c-0.33-0.16-0.7-0.27-1.08-0.28c-0.38-0.02-0.76,0.04-1.13,0.17c-0.17,0.06-0.38,0.16-0.5,0.23l-0.36,0.21
		c-0.45,0.26-0.89,0.52-1.32,0.8c0.28-1.01,0.69-1.95,1.37-2.62c0.47-0.48,1.06-0.79,1.7-0.94c0.65-0.14,1.34-0.15,2.04-0.06
		c1.41,0.16,2.87,0.7,4.13,1.52c1.28,0.81,2.35,1.92,3.31,3.07l0.79,0.94l-0.15-1.26c-0.14-1.18-0.63-2.26-1.24-3.24
		c-0.62-0.97-1.39-1.83-2.24-2.6c-0.85-0.76-1.8-1.43-2.85-1.96c-1.05-0.5-2.21-0.87-3.44-0.88c-1.22-0.01-2.5,0.38-3.45,1.18
		c-0.96,0.78-1.59,1.84-2,2.91c-0.55,1.48-0.78,3-0.84,4.52c-0.02-1.09-0.02-2.17,0.05-3.24c0.13-1.72,0.42-3.41,1.04-4.97
		c0.58-1.57,1.57-3.02,2.96-4.07c1.39-1.05,3.07-1.65,4.76-2.15l1.77-0.53l-1.89-0.08c-1.84-0.08-3.76,0.01-5.57,0.69
		c-0.9,0.33-1.78,0.78-2.56,1.38c-0.79,0.59-1.45,1.34-2,2.14c-1.07,1.64-1.62,3.52-1.86,5.36c-0.13,1.01-0.18,2.03-0.17,3.03
		c-0.34-0.84-0.75-1.66-1.26-2.42c-0.95-1.4-2.2-2.56-3.57-3.49c-0.51-0.77-1.05-1.5-1.61-2.22c-0.61-0.73-1.06-1.51-1.33-2.36
		c-0.27-0.84-0.41-1.73-0.31-2.61c0.11-0.88,0.42-1.73,0.92-2.57c0.48-0.85,1.12-1.62,1.87-2.25c0.75-0.65,1.65-1.09,2.49-1.57
		c0.84-0.49,1.65-1.03,2.48-1.55c0.38-0.24,0.75-0.48,1.13-0.73c1.17-0.42,2.35-0.81,3.54-1.17c1.86-0.55,3.73-1.05,5.61-1.46
		c1.88-0.44,3.78-0.78,5.69-1.07c1.37-0.2,2.75-0.34,4.13-0.45l0,0.02l0.38-0.02l2.06-0.12l0,0.01c0.23,0.07,0.42,0.3,0.63,0.49
		c0.2,0.2,0.4,0.41,0.62,0.61c0.43,0.41,0.9,0.78,1.42,1.1c1.03,0.64,2.3,1.03,3.54,0.94c1.25-0.09,2.37-0.58,3.44-1.03
		c0.69-0.31,1.36-0.64,2.03-0.98c0.68,0.01,1.35,0.06,2.01,0.19c1.02,0.19,1.99,0.54,3.02,0.83c0.26,0.07,0.52,0.14,0.78,0.2
		c0.27,0.06,0.54,0.1,0.75,0.17c0.22,0.06,0.41,0.17,0.5,0.28c0.08,0.1,0.1,0.21,0.06,0.41c-0.09,0.39-0.39,0.82-0.66,1.28
		c-0.14,0.23-0.28,0.46-0.4,0.78c-0.05,0.16-0.12,0.36-0.05,0.66c0.04,0.15,0.13,0.3,0.24,0.4c0.11,0.1,0.22,0.15,0.32,0.19
		c0.2,0.07,0.37,0.08,0.5,0.1l0.41,0.04c0.27,0.03,0.54,0.05,0.82,0.05c0.27,0.01,0.55,0.02,0.83,0c0.28-0.01,0.55-0.03,0.83-0.07
		c1.1-0.13,2.18-0.46,3.18-0.85c1.98-0.81,3.85-1.59,5.85-2.09c3.91-1.11,8.04-0.39,11.99,0.77c3.97,1.16,7.88,2.74,12.09,3.74
		c1.05,0.25,2.13,0.44,3.22,0.55c0.55,0.05,1.1,0.1,1.65,0.11c0.55,0.02,1.07,0.01,1.6,0.01c2.12-0.01,4.25-0.08,6.36-0.24
		c4.22-0.28,8.41-0.81,12.56-1.14c2.07-0.15,4.15-0.25,6.14-0.06c1.98,0.18,3.93,0.77,5.05,2.22c0.57,0.71,0.93,1.61,1.14,2.56
		c0.11,0.48,0.19,0.97,0.23,1.47c0.05,0.5,0.09,1.04,0.12,1.55C126.83,106.87,126.73,108.93,126.24,110.91z"/>
	<path class="st6" d="M109.3,102.72c-0.85-0.27-1.75-0.36-2.64-0.28c-0.89,0.06-1.77,0.37-2.53,0.58c-1.58,0.44-3.21,0.67-4.83,0.71
		c-1.63,0.02-3.26-0.18-4.88-0.52c-1.64-0.33-3.22-0.84-4.86-1.33c-1.68-0.41-3.49-0.14-4.95,0.75c-1.44,0.87-2.89,1.74-4.37,2.55
		l-2.22,1.23l-1.11,0.61c-0.2,0.12-0.4,0.23-0.6,0.47c-0.09,0.11-0.24,0.32-0.18,0.64c0.08,0.3,0.28,0.42,0.4,0.5
		c0.52,0.28,0.94,0.32,1.38,0.4c0.44,0.06,0.87,0.1,1.3,0.13c0.86,0.06,1.71,0.06,2.56,0.07c1.7-0.01,3.39-0.08,5.07-0.17
		c1.68-0.1,3.37-0.2,5.04-0.34c1.68-0.12,3.37-0.28,5.01-0.32c3.31-0.08,6.59,0.49,9.83,1.39c0.81,0.21,1.63,0.44,2.48,0.59
		c0.84,0.15,1.73,0.23,2.6,0.03c0.42-0.1,0.87-0.25,1.22-0.57c0.35-0.31,0.57-0.76,0.65-1.2c0.15-0.9-0.1-1.79-0.48-2.57
		C112.4,104.5,110.99,103.26,109.3,102.72z M113.3,108.55c-0.07,0.38-0.25,0.73-0.54,0.98c-0.28,0.25-0.66,0.37-1.05,0.45
		c-0.78,0.16-1.61,0.06-2.41-0.14c-0.8-0.19-1.6-0.46-2.4-0.71c-1.6-0.53-3.23-1.05-4.91-1.37c-1.68-0.33-3.4-0.52-5.11-0.53
		c-1.73,0-3.4,0.12-5.08,0.19l-5.04,0.28c-1.68,0.11-3.35,0.21-5.02,0.28c-0.83,0.04-1.67,0.06-2.49,0.08c-0.41,0-0.82,0-1.23-0.03
		c-0.36-0.02-0.76-0.06-1.01-0.15c0.07-0.08,0.18-0.17,0.29-0.25l1.04-0.72l2.09-1.43c1.39-0.96,2.81-1.86,4.24-2.75
		c1.43-0.86,3.23-1.08,4.79-0.53c1.54,0.62,3.12,1.3,4.75,1.79c1.63,0.53,3.35,0.83,5.1,0.84c1.74-0.01,3.48-0.3,5.11-0.87
		c0.84-0.3,1.55-0.6,2.34-0.71c0.78-0.12,1.59-0.1,2.36,0.09c1.55,0.37,2.96,1.44,3.72,2.89
		C113.2,106.95,113.45,107.78,113.3,108.55z"/>
	<path class="st6" d="M67.72,110.86c-0.23-0.22-0.43-0.31-0.62-0.4c-0.76-0.32-1.43-0.42-2.12-0.54c-0.68-0.09-1.35-0.2-2.04-0.25
		c-1.36-0.15-2.73-0.16-4.09-0.12c-2.68,0.08-5.35,0.4-7.95,0.91c-0.08,0.02-0.16,0.03-0.25,0.03c-2.64,0.09-5.3-0.16-7.97-0.26
		c-0.68-0.02-1.36-0.05-2.05-0.02c-0.69,0.02-1.38,0.06-2.09,0.21c-0.35,0.07-0.72,0.17-1.1,0.35c-0.09,0.05-0.19,0.1-0.28,0.17
		c-0.1,0.08-0.19,0.15-0.28,0.24c-0.18,0.19-0.33,0.46-0.37,0.74c-0.07,0.58,0.16,1.01,0.36,1.33c0.22,0.33,0.47,0.6,0.72,0.86
		c1.04,0.98,2.24,1.75,3.52,2.27c1.29,0.53,2.64,0.82,3.99,1.01c2.7,0.37,5.45,0.29,8.15-0.21c0.67-0.12,1.34-0.29,2.01-0.48
		l1.93-0.55l3.91-1.04c1.3-0.36,2.61-0.73,3.91-1.19c0.65-0.23,1.3-0.48,1.96-0.86c0.17-0.09,0.33-0.2,0.5-0.34
		c0.17-0.15,0.37-0.3,0.52-0.66c0.08-0.18,0.11-0.45,0.04-0.68C67.96,111.12,67.83,110.98,67.72,110.86z M66.29,111.88
		c-0.51,0.3-1.13,0.54-1.74,0.78c-1.23,0.47-2.51,0.88-3.79,1.28c-1.29,0.39-2.57,0.8-3.86,1.22c-0.64,0.21-1.29,0.45-1.92,0.7
		c-0.61,0.24-1.24,0.45-1.88,0.62c-2.56,0.7-5.3,0.94-7.93,0.48c-2.63-0.43-5.11-1.7-6.81-3.61c-0.21-0.23-0.4-0.48-0.55-0.72
		c-0.14-0.24-0.21-0.47-0.19-0.57c0-0.08,0.1-0.2,0.34-0.32c0.23-0.11,0.51-0.21,0.82-0.28c1.23-0.27,2.58-0.36,3.91-0.48
		c2.69-0.19,5.4-0.22,8.11-0.29c2.65-0.53,5.36-0.58,8.02-0.34c1.33,0.14,2.66,0.3,3.97,0.5c1.29,0.23,2.72,0.36,3.75,0.81
		c0.01,0.01,0.02,0.01,0.03,0.02C66.49,111.76,66.39,111.82,66.29,111.88z"/>
</g>
</svg>
