<?xml version="1.0" encoding="utf-8"?>
<!-- Generator: Adobe Illustrator 23.0.0, SVG Export Plug-In . SVG Version: 6.00 Build 0)  -->
<svg version="1.1" id="Layer_1" xmlns="http://www.w3.org/2000/svg" xmlns:xlink="http://www.w3.org/1999/xlink" x="0px" y="0px"
	 viewBox="0 0 128 128" style="enable-background:new 0 0 128 128;" xml:space="preserve">
<style type="text/css">
	.st0{fill:#935836;}
	.st1{fill:#5E4034;}
	.st2{fill:#7A5340;}
	.st3{fill:#9F7054;}
	.st4{fill:#FED6A2;}
	.st5{fill:#6D823F;}
	.st6{fill:#EDCCB0;}
	.st7{fill:#875B45;}
	.st8{fill:#2D2D2D;}
</style>
<g>
	<path class="st0" d="M44.9,113.6c-0.5,0.6-1,1.3-1.6,1.8c-0.3,0.3-0.6,0.5-0.9,0.8c-0.3,0.3-0.6,0.5-1,0.7
		c-0.7,0.4-1.3,0.9-1.9,1.3c-0.6,0.4-1.2,0.9-1.9,1.4c-0.6,0.4-1.3,0.9-1.9,1.4c-1.3,0.8-2.6,1.7-4.1,2.3c-0.7,0.3-1.4,0.6-2.2,0.9
		c-0.8,0.2-1.5,0.4-2.3,0.6c-0.8,0.2-1.5,0.3-2.3,0.4c-0.8,0.1-1.6,0.1-2.3,0.2c-1.4,0-2.8-0.1-4.1-0.3c0.1,0,0.1,0.1,0.2,0.1
		c0.1,0,0.2,0.1,0.2,0.1c0,0,0.1,0,0.1,0c0,0,0.1,0,0.1,0c0.2,0,0.4,0.1,0.6,0.1c1.6,0.3,3.3,0.5,5,0.6c1.7,0.1,3.3,0.1,5,0
		c0.8,0,1.6-0.2,2.5-0.3c0.8-0.2,1.6-0.3,2.4-0.5c0.8-0.2,1.6-0.4,2.4-0.7c0.4-0.1,0.8-0.3,1.1-0.5c0.4-0.1,0.8-0.3,1.1-0.5
		c2.9-1.5,5.4-3.7,7.1-6.6c0.8-1.4,1.5-3,1.8-4.7c0.2-0.8,0.2-1.7,0.2-2.5c0-0.7-0.2-1.3-0.5-1.9c-0.3,1.3-0.8,2.6-1.4,3.7
		C45.8,112.3,45.4,113,44.9,113.6z"/>
	<path class="st1" d="M56.1,93.3c-0.1,0.8,0,1.7,0.2,2.5c0.1,0.4,0.2,0.8,0.4,1.2l0.2,0.6c0.1,0.2,0.2,0.3,0.3,0.5
		c0.4,0.6,1.1,1,1.9,1.3c0.5,0.2,1.1,0.3,1.7,0.4c-1.3-1.6-2.3-3.4-3.1-5.3c-0.4-0.9-0.7-1.8-0.9-2.7C56.4,92.2,56.2,92.7,56.1,93.3
		z"/>
	<path class="st2" d="M123.8,81.5c-1.3,2.4-3.1,4.4-5,6.2c-3.8,3.6-8.3,6.3-12.9,8.7c-2.3,1.2-4.6,2.2-7,3.2c-2.4,1-4.8,1.9-7.3,2.7
		c-4.9,1.6-9.9,2.7-15,3.5c-5.1,0.7-10.3,1-15.4,0.5c-2.6-0.3-5.1-0.7-7.5-1.7c-1.2-0.5-2.4-1.2-3.2-2.2c0,0,0,0,0,0
		c0.7,1.9,1.5,3.7,2.5,5.5c0.6,1.1,1.3,2.2,2,3.3c0.7,1.1,1.5,2.1,2.3,3.1c3.2,3.9,7.2,7.2,11.8,9.3c2.3,1.1,4.7,1.9,7.2,2.5
		c2.5,0.5,5.1,0.8,7.6,0.8c5.2,0,10.3-1.1,15.1-2.7c2.4-0.8,4.7-2,6.8-3.3c2.2-1.3,4.2-2.9,6.1-4.5c1.9-1.7,3.7-3.5,5.3-5.4
		c0.8-1,1.5-2,2.2-3c0.7-1,1.3-2.2,1.9-3.3c2.3-4.5,3.9-9.4,4.4-14.5c0.4-3.9,0.1-7.9-0.5-11.9C124.9,79.3,124.4,80.5,123.8,81.5z"
		/>
	<path class="st3" d="M77.4,55.4c-0.2,0.1-0.3,0.2-0.5,0.3c-0.8,1.6-1.6,3.1-2.3,4.7c-0.3,0.9-0.8,1.6-1.2,2.5
		c-0.2,0.4-0.4,0.8-0.6,1.3c-0.2,0.4-0.4,0.8-0.6,1.3c-0.4,0.9-0.7,1.8-0.8,2.7c-0.1,0.5,0,1,0,1.4l0.1,1.4c0,0.9-0.2,1.9-0.3,2.8
		c-0.1,0.5-0.2,1.1-0.3,1.6c0,0,0,0,0.1-0.1l0.4-0.4l0.4,0.5c1.4,1.6,2.5,3.4,3.6,5.2c0.5,0.9,1,1.7,1.4,2.7c-0.1-1,0-2,0.2-3
		c0.1-0.5,0.2-1,0.3-1.5c0.2-0.5,0.3-1,0.5-1.5c0.4-1,0.8-1.9,1.4-2.8c0.6-0.9,1.3-1.6,2-2.4l0.3-0.4l0.3,0.2c1,0.7,1.7,1.5,2.5,2.3
		c0.5,0.5,1,1,1.6,1.5c-0.7-1.6-1.3-3.3-1.8-4.9c-0.3-0.9-0.5-1.8-0.7-2.8c-0.3-0.9-0.5-1.9-0.7-2.8c-0.2-1-0.5-1.9-1-2.8
		c-0.2-0.4-0.5-0.8-0.8-1.2c-0.3-0.4-0.6-0.8-0.9-1.2c-0.3-0.4-0.5-0.8-0.7-1.2c-0.2-0.4-0.4-0.9-0.6-1.3c-0.3-0.7-0.6-1.5-0.9-2.3
		C77.6,55.4,77.5,55.4,77.4,55.4z"/>
	<path class="st4" d="M23.6,117.9l-1.1,0.7c-0.4,0.2-0.7,0.5-1.1,0.7l-1.2,0.5c-0.4,0.2-0.8,0.4-1.1,0.6c-0.7,0.5-1.3,1-1.6,1.8
		c-0.2,0.4-0.2,0.7-0.1,1.1c0.1,0.4,0.2,0.7,0.5,1c0.1,0.1,0.2,0.2,0.3,0.3c1.5-0.4,2.9-0.6,4.3-0.9c0.7-0.2,1.5-0.4,2.2-0.5
		c0.4-0.1,0.7-0.2,1.1-0.2c0.4-0.1,0.7-0.2,1.1-0.3c2.9-0.6,5.7-1.6,8.5-2.7c0.7-0.3,1.4-0.6,2-1c0.3-0.2,0.6-0.4,0.9-0.6
		c0.3-0.2,0.6-0.5,0.9-0.7c0.6-0.5,1.1-1.1,1.6-1.6c0.5-0.6,0.9-1.2,1.4-1.8c0.9-1.2,1.9-2.3,2.8-3.5c0.8-1.1,1.6-2.2,2.4-3.4
		c-0.5-0.6-1.2-0.9-2-1.1c-0.8-0.2-1.6-0.1-2.4,0c-1.6,0.2-3.2,0.8-4.6,1.6c-0.7,0.4-1.4,0.8-2.1,1.3c-0.3,0.2-0.7,0.5-1,0.7l-1,0.8
		c-1.4,1-2.8,2-4.2,2.9c-1.4,0.9-2.9,1.9-4.3,2.8C25,116.9,24.3,117.4,23.6,117.9z"/>
	<path class="st0" d="M3.6,114.1c0.6,0.9,1.3,1.7,2,2.5c1.5,1.5,3.3,2.8,5.3,3.6c1,0.5,2.1,0.8,3.1,1.1c1,0.3,2,0.5,3.1,0.6
		c0.5-0.8,1.2-1.3,1.9-1.7c0.4-0.2,0.8-0.4,1.2-0.6l1.2-0.5c0.2-0.1,0.3-0.2,0.5-0.3c-0.4,0.1-0.8,0.1-1.2,0.2
		c-0.3,0-0.5,0.1-0.8,0.1c-0.3,0-0.5,0-0.8,0c-0.5,0-1.1-0.1-1.6-0.1c-0.5,0-1.1-0.2-1.6-0.3c-0.5-0.1-1-0.3-1.6-0.5
		c-0.5-0.2-1-0.4-1.5-0.7c-0.5-0.2-1-0.5-1.4-0.8c-0.2-0.1-0.5-0.3-0.7-0.4c-0.2-0.1-0.4-0.3-0.7-0.5c-0.4-0.3-0.8-0.7-1.3-1
		c-0.4-0.3-0.9-0.6-1.3-0.9c-0.9-0.6-1.9-1-2.8-1.6c-0.9-0.6-1.6-1.5-2.2-2.4c-0.3-0.4-0.5-0.9-0.8-1.3c0,0.8,0.2,1.7,0.5,2.5
		C2.5,112.3,3,113.2,3.6,114.1z"/>
	<path class="st4" d="M5.7,111.2c0.7,0.8,1.3,1.6,2.1,2.3c0.4,0.3,0.8,0.6,1.3,0.8c0.5,0.2,1,0.4,1.4,0.6c0.5,0.2,1,0.3,1.5,0.5
		c0.5,0.2,1,0.3,1.5,0.5c0.5,0.1,1,0.3,1.5,0.4c0.5,0.1,1,0.2,1.5,0.4c1,0.3,1.9,0.5,2.9,0.9c1,0.3,2,0.5,3,1
		c0.4-0.3,0.8-0.6,1.2-0.9c0.7-0.5,1.3-1.1,2-1.6c0.7-0.6,1.4-1.2,2-1.8c-0.3,0-0.6-0.1-0.9-0.1l-0.2,0l-0.1,0l-0.1,0
		c-0.2,0-0.3-0.1-0.5-0.1c-0.3-0.1-0.6-0.2-0.8-0.3c-1.1-0.4-2.1-0.9-3.2-1.4c-2.1-1-4.1-2-6.1-3.1c-1-0.6-1.9-1.2-2.9-1.8
		c-0.5-0.3-1-0.6-1.4-0.8c-0.5-0.2-1-0.5-1.5-0.6c-1.1-0.3-2.2-0.5-3.3-0.5c-1.1,0-2.2,0.2-3.1,0.7c-0.4,0.3-0.9,0.5-1.1,0.9
		c-0.1,0.1-0.1,0.2-0.2,0.3c0,0.1-0.1,0.1-0.1,0.2c0.6,0.5,1.2,1.1,1.7,1.6C4.2,109.8,5,110.5,5.7,111.2z"/>
	<path class="st5" d="M2.3,36.8c0.6,1.7,1.6,3.4,2.7,4.9l0.9,1.1c0.1,0.2,0.3,0.4,0.5,0.6c0.2,0.2,0.3,0.5,0.4,0.7
		c0.5,1,0.8,2.2,0.6,3.3l-0.3,2.9c0,0.5-0.1,1-0.1,1.4c0,0.4,0,0.8,0.1,1.2c0.3,1.5,1.6,2.9,3.1,3.3l2.8,0.7c1.1,0.2,2.2,0.8,3,1.6
		c0.8,0.8,1.4,1.8,1.7,2.9c0.1,0.3,0.1,0.6,0.2,0.8l0.1,0.7l0.2,1.4l0.1,0.7c0,0.2,0.1,0.5,0.1,0.7c0.1,0.4,0.2,0.8,0.4,1.1
		c0.4,0.7,0.9,1.3,1.6,1.7c0.3,0.2,0.7,0.4,1.1,0.5c0.4,0.1,0.7,0.1,1.2,0.1l0.7,0c0.3,0,0.5,0,0.8,0c0.6,0,1.2,0.1,1.7,0.3
		c1.1,0.4,2,1.1,2.7,1.9c0.3,0.4,0.6,0.9,0.9,1.4c0.2,0.5,0.4,1.1,0.5,1.5c0.1,0.3,0.1,0.4,0.2,0.6c0.1,0.2,0.1,0.4,0.2,0.6
		c0.2,0.4,0.4,0.7,0.7,1c0.5,0.6,1.3,1.1,2,1.3c0.4,0.1,0.8,0.2,1.2,0.2c0.2,0,0.4,0,0.6-0.1l0.7-0.1l0.7-0.1c0.2,0,0.5-0.1,0.8-0.1
		c0.5-0.1,1.1,0,1.6,0.1c2.1,0.5,3.8,2.2,4.3,4.3c0.1,0.5,0.2,1,0.2,1.5c0.1,0.4,0.3,0.8,0.5,1.1c0.5,0.7,1.3,1.3,2.1,1.7
		c1.6,0.9,3.5,1.3,5.4,1.3c0.9,0,1.9-0.1,2.8-0.4c0.5-0.1,0.9-0.3,1.3-0.5c0.2-0.1,0.4-0.2,0.6-0.3c0.1-0.1,0.2-0.2,0.3-0.2
		c0.1-1.6,0.6-3.2,1.4-4.6c1.1-2,2.7-3.6,4.5-4.8l0.1-0.1c-0.2-1-0.1-2.1,0-3.1c0.1-0.9,0.3-1.7,0.6-2.6l0,0
		c-3.3-4.2-7.2-7.9-11.4-11.3c-4.2-3.4-8.7-6.4-13.3-9.2c-4.6-2.8-9.4-5.3-14.4-7.5c-4.9-2.2-10-4.2-15.1-5.9
		c5.2,1.5,10.3,3.3,15.3,5.4c5,2.1,9.9,4.5,14.6,7.1c4.7,2.7,9.3,5.6,13.7,8.9c4.1,3.1,7.9,6.5,11.3,10.4c0.8-1.8,1.8-3.5,3.1-5
		c0.4-0.4,0.8-0.9,1.2-1.3l1.3-1.2c0.2-0.2,0.4-0.4,0.6-0.6c0.2-0.2,0.5-0.4,0.7-0.6c0.4-0.4,0.9-0.8,1.3-1.2
		c0.9-0.8,1.8-1.5,2.6-2.3c0.2-0.2,0.4-0.4,0.6-0.5c0-0.4-0.1-0.8-0.2-1.2c-0.1-0.5-0.2-0.9-0.4-1.4c-0.3-0.9-0.7-1.7-1.3-2.5
		c-0.6-0.7-1.3-1.3-2.1-1.6c-0.4-0.1-0.8-0.2-1.3-0.2l-1.5,0l-3,0.1l-0.7,0c-0.3,0-0.6,0-1-0.1c-0.7-0.2-1.2-0.7-1.5-1.2
		c-0.6-1-0.9-2-1.1-3c-0.3-0.9-0.6-1.9-0.9-2.8L59.6,41c-0.1-0.4-0.3-0.8-0.5-1.2c-0.4-0.7-1.1-1.3-1.8-1.7
		c-0.7-0.4-1.6-0.5-2.3-0.3l-0.3,0.1L54.2,38l-0.7,0.2l-1.4,0.4l-1.5,0.4C50,39,49.4,39.1,48.9,39c-1.2-0.1-2.2-0.6-3.1-1.4
		c-0.4-0.4-0.8-0.8-1.1-1.3l-0.8-1.2l-1.7-2.4l-0.4-0.6c-0.1-0.2-0.3-0.4-0.4-0.5c-0.3-0.3-0.6-0.6-1-0.9c-0.7-0.5-1.6-0.7-2.5-0.7
		c-0.4,0-0.9,0.1-1.3,0.3c-0.2,0.1-0.4,0.2-0.6,0.3c-0.2,0.1-0.4,0.3-0.5,0.4l-0.6,0.5c-0.2,0.2-0.4,0.3-0.7,0.5
		c-0.5,0.3-1,0.4-1.5,0.5c-1.1,0.2-2.2,0-3.1-0.5c-0.5-0.3-0.9-0.6-1.3-0.9c-0.4-0.4-0.7-0.8-1-1.1l-0.9-1.1c-0.3-0.4-0.6-0.8-1-1.1
		c-0.7-0.6-1.5-1.1-2.5-1.2c-0.9-0.1-1.9,0-2.7,0.5c-0.4,0.2-0.7,0.6-1.1,0.9c-0.4,0.3-0.7,0.7-1.1,1c-0.9,0.6-1.9,0.9-3,0.9
		c-0.6,0-1-0.1-1.5-0.2c-0.5-0.1-1-0.1-1.5-0.1c-1.9-0.1-3.9-0.1-5.8,0.2c-1.8,0.3-3.5,1-4.9,2.1c0,0.3-0.1,0.7,0,1.1
		c0,0.4,0,0.9,0.1,1.4C1.7,35,2,35.9,2.3,36.8z"/>
	<path class="st3" d="M100.6,64.1l-0.1-0.3c-1.7-1.2-3.3-2.4-5-3.5c-0.9-0.6-1.9-1.1-2.8-1.7c-0.5-0.2-1-0.5-1.4-0.7
		c-0.5-0.3-1-0.4-1.5-0.7c-2-0.8-4-1.5-6.1-1.8c-0.8-0.1-1.6-0.2-2.5-0.2c0,0,0.1,0,0.1,0c0.9,0.3,1.7,0.7,2.4,1.3
		c0.4,0.3,0.7,0.6,1,1c0.3,0.3,0.6,0.7,1,1c0.4,0.3,0.7,0.6,1.1,0.8c0.4,0.2,0.8,0.5,1.2,0.7c0.4,0.2,0.8,0.5,1.2,0.8
		c0.4,0.3,0.7,0.6,1.1,0.9c0.3,0.3,0.7,0.7,1,1c0.2,0.2,0.3,0.3,0.5,0.5l0.4,0.6c0.3,0.4,0.5,0.8,0.7,1.2c0.2,0.4,0.4,0.8,0.6,1.3
		c0.2,0.4,0.3,0.9,0.4,1.3c0,0.2,0.1,0.3,0.1,0.5c0-0.1,0.1-0.2,0.1-0.3l0.1-0.2l0.2,0c0.3,0.1,0.6,0.1,0.8,0.2
		c0.3,0.1,0.5,0.2,0.8,0.3c0.3,0.1,0.5,0.2,0.7,0.4c0.2,0.1,0.5,0.3,0.7,0.4c0.5,0.3,0.9,0.6,1.4,0.9l0.7,0.5l0.6,0.5
		c0.5,0.4,1,0.8,1.4,1.3c-0.1-0.4-0.2-0.8-0.3-1.2c-0.2-0.7-0.3-1.5-0.4-2.2c-0.1-0.7,0-1.5,0-2.3C100.9,65.6,100.9,64.8,100.6,64.1
		z"/>
	<path class="st1" d="M116.1,80c0.5-0.7,0.9-1.5,1.1-2.3c0.1-0.4,0.2-0.8,0-1.2c-0.1-0.4-0.3-0.8-0.5-1.1c-0.5-0.7-1.3-1.1-2.1-1.2
		c-0.5-0.1-1.1-0.1-1.7-0.1c0.4,0.8,0.7,1.7,0.9,2.6c0.5,1.9,0.7,3.9,0.5,5.8C115,81.6,115.6,80.8,116.1,80z"/>
	<path class="st3" d="M63.3,78.5c-0.3-0.2-0.6-0.4-0.9-0.5c-1.6,1.2-2.9,2.6-3.9,4.3c-1,1.8-1.4,3.8-1.4,5.9c0,1,0.1,2.1,0.3,3.1
		c0.2,1,0.5,2,0.8,3c0.6,1.9,1.5,3.8,2.5,5.6c1.1,0.2,2.2,0.3,3.2,0.4c0.5,0,1,0,1.5,0c-0.3-0.8-0.5-1.5-0.8-2.3
		c-0.1-0.6-0.2-1.1-0.3-1.7c-0.1-0.6-0.2-1.1-0.3-1.7c0-0.6-0.1-1.1-0.1-1.7c-0.1-0.6,0-1.2,0-1.7c0-0.6,0-1.2,0.1-1.7
		c0.1-0.6,0.2-1.1,0.3-1.7c0.6-2.2,1.5-4.4,2.5-6.4l0.4-0.8l0.4-0.7c0.3-0.5,0.6-1,0.9-1.5c0.4-0.7,0.9-1.3,1.4-1.9
		c-0.3-0.8-0.4-1.6-0.4-2.5c0-0.5,0-1,0-1.5c0-0.5,0.1-1,0.2-1.5c0.1-0.5,0.3-0.9,0.5-1.4c0.2-0.5,0.3-0.9,0.5-1.4
		c0.2-0.9,0.4-1.9,0.4-2.9c0.1-1,0.2-2,0.5-2.9c0.3-1,0.6-1.9,1.1-2.8c0.3-0.6,0.7-1.2,1.2-1.7c-0.2,0.2-0.4,0.4-0.7,0.5
		c-0.4,0.4-0.9,0.7-1.3,1.1c-1.6,1.6-3,3.5-4.2,5.4c-1.2,1.9-2.4,3.7-3.4,5.7c0,0.2-0.1,0.3-0.2,0.4c-0.2,0.4-0.4,0.8-0.5,1.2
		c-0.2,0.5-0.4,1-0.6,1.6c-0.3,0.9-0.6,1.9-0.7,2.9l0.1,0c0.6,0.3,1,0.6,1.4,1c0.4,0.4,0.8,0.7,1.1,1.1c0.7,0.8,1.3,1.6,1.8,2.5
		l-2.4-2C64.1,79.1,63.7,78.7,63.3,78.5z"/>
	<path class="st6" d="M53.9,104c2.3,0.9,4.9,1.3,7.4,1.5c5.1,0.3,10.1-0.1,15.2-0.9c5-0.8,9.9-2.1,14.7-3.7
		c4.8-1.6,9.4-3.7,13.9-6.1c2.2-1.2,4.4-2.5,6.5-3.9c2.1-1.4,4.1-2.9,5.9-4.6c1.8-1.7,3.5-3.5,4.8-5.6c0.6-1,1.1-2.1,1.4-3.3
		c0.3-1.1,0.3-2.4-0.1-3.3c-0.4-1-1.3-1.8-2.4-2.4c-1.1-0.6-2.2-1-3.5-1.2c-2.3-0.5-4.7-0.5-7.2-0.3c0.2,0.2,0.3,0.4,0.5,0.6
		c0.7,0.9,1.2,1.9,1.7,2.9c0.6,0,1.2,0,1.8,0.1c0.9,0.1,1.8,0.5,2.4,1.3c0.3,0.4,0.5,0.8,0.6,1.2c0.2,0.5,0.1,1,0,1.4
		c-0.2,0.9-0.6,1.7-1.1,2.5c-0.9,1.5-2.1,2.9-3.4,4.2c-1.3,1.3-2.7,2.4-4.1,3.4c-2.9,2.1-6,3.9-9.2,5.5c-3.2,1.6-6.5,3-9.8,4.1
		c-6.7,2.3-13.7,4.1-20.9,4.4c-1.8,0.1-3.6,0.1-5.4-0.1c-1.8-0.2-3.6-0.5-5.4-1.3c-0.8-0.4-1.7-1-2.3-1.9c-0.1-0.2-0.2-0.5-0.3-0.7
		l-0.2-0.7c-0.1-0.4-0.2-0.9-0.3-1.4c-0.1-0.9-0.1-1.9,0.1-2.8c0.2-0.7,0.5-1.3,0.9-1.8c-0.3-1.1-0.4-2.2-0.5-3.3c0-0.5,0-1,0-1.6
		c0,0-0.1,0-0.1,0.1c-0.1,0-0.1,0.1-0.2,0.1c-1.7,1.4-3.2,3-4.4,4.8c-0.7,1.1-1.3,2.2-1.6,3.4c-0.4,1.2-0.5,2.5-0.4,3.7
		c0.1,0.6,0.2,1.2,0.4,1.8c0.2,0.6,0.5,1.1,0.9,1.6C51.6,102.9,52.8,103.5,53.9,104z"/>
	<path class="st3" d="M109.5,72c-1.1-1.6-2.4-3.1-3.8-4.5c-0.5-0.5-3.2-2.6-3.4-2.8c-0.2-0.1-0.4-0.2-0.7-0.3
		c-0.1,0-0.2-0.1-0.3-0.1c0.2,0.6,0.3,1.2,0.6,1.8c0.3,0.7,0.6,1.5,0.6,2.2c0.1,0.8,0.1,1.5,0,2.3c0,0.7-0.1,1.3-0.3,2
		c0.8,0.9,1.6,1.8,2.3,2.8c1.3,1.8,2.3,3.7,3,5.8c0.7,1.8,1.1,3.7,1.2,5.6c1.3-0.9,2.7-1.9,3.9-3c0.5-0.4,0.9-0.8,1.3-1.3
		c-0.4-1.9-1-3.8-1.7-5.5C111.5,75.3,110.5,73.6,109.5,72z"/>
	<path class="st3" d="M99.4,92.2c3.1-1.5,6.2-3.1,9.1-5.1c-0.8-1.8-1.5-3.5-2.4-5.2c-1-1.8-2-3.6-3.1-5.3c-1.1-1.7-2.4-3.3-3.7-4.9
		l-0.5-0.6l-0.5-0.6c-0.4-0.4-0.7-0.7-1.1-1.1c-0.2-0.2-0.4-0.3-0.6-0.5c-0.2-0.2-0.4-0.3-0.6-0.4c-0.2-0.1-0.4-0.2-0.7-0.3
		c-0.1,0-0.2-0.1-0.3-0.1l-0.1,0c-0.5,1.1-0.8,2.4-1,3.6c-0.2,1.3-0.3,2.6-0.5,3.9c-0.2,1.3-0.3,2.6-0.5,4c-0.1,1.2-0.3,2.3-0.5,3.5
		c0.3,0.5,0.5,1,0.7,1.6c0.3,1.1,0.6,2.1,0.8,3.2c0.4,2,0.8,4.1,1,6.2C96.3,93.6,97.9,93,99.4,92.2z"/>
	<path class="st3" d="M79.5,98.6c3.4-0.6,6.8-1.5,10.2-2.5c1.6-0.5,3.1-1,4.7-1.6c-0.9-1.9-1.6-3.9-2.3-5.8c-0.4-1-0.7-2.1-1.1-3.1
		c-0.3-0.9-0.8-1.8-1.3-2.7c-0.5-0.9-1.1-1.8-1.7-2.7c-0.6-0.9-1.2-1.8-1.8-2.7c-0.6-0.9-1.4-1.7-2.1-2.5c-0.7-0.6-1.4-1.2-2.2-1.6
		c-0.4,0.7-0.8,1.5-1.2,2.2c-0.4,0.8-0.9,1.7-1.3,2.6c-0.4,0.9-0.8,1.8-1.2,2.7c-0.4,0.9-0.7,1.8-1.1,2.8l0,0c0,0.1-0.1,0.1-0.1,0.1
		c0,0,0,0,0,0c0.5,1,0.8,2.1,1.1,3.2c0.4,2.1,0.6,4.1,0.9,6.2c0.2,1.9,0.4,3.7,0.5,5.6C79.3,98.6,79.4,98.6,79.5,98.6z"/>
	<path class="st3" d="M65.8,97.7c0.1,0.8,0.2,1.6,0.2,2.5c1.1,0,2.1-0.1,3.2-0.1c3.2-0.3,6.5-0.7,9.7-1.3c-0.6-1.8-1.1-3.6-1.6-5.4
		c-0.5-2-1-4.1-1.4-6.1c-0.2-0.9-0.5-1.8-0.9-2.7c-0.4-0.9-0.8-1.8-1.3-2.8c-0.8-1.6-1.7-3.2-2.6-4.8c-0.6,0.5-1.2,1.2-1.8,1.8
		c-0.3,0.4-0.7,0.9-0.9,1.4l-0.4,0.7l-0.4,0.7c-0.1,0.2-0.2,0.5-0.3,0.8L67,83c-0.1,0.3-0.2,0.5-0.3,0.8l-0.2,0.8
		c-0.3,1.1-0.4,2.2-0.5,3.2c-0.1,1.1-0.2,2.2-0.2,3.3c-0.1,1.1-0.1,2.2-0.1,3.3C65.7,95.4,65.8,96.5,65.8,97.7z"/>
	<path class="st3" d="M79,55.3c-0.2,0-0.4,0-0.6,0.1c0.6,0.5,1,1,1.5,1.6c0.6,0.8,1.1,1.6,1.5,2.6c0.4,0.9,0.5,2,0.9,2.9
		c0.3,0.9,0.9,1.8,1.4,2.6c0.3,0.4,0.6,0.8,0.8,1.3c0.2,0.4,0.4,0.9,0.6,1.4c0.2,0.5,0.4,0.9,0.6,1.4c0.2,0.5,0.3,0.9,0.5,1.4
		c0.1,0.5,0.2,1,0.3,1.5c0.1,0.5,0.1,1,0.2,1.5c0,0.5,0.1,1,0,1.5c0,0.5-0.1,0.9-0.1,1.4c0.1,0.1,0.3,0.2,0.4,0.4
		c0.8,0.8,1.6,1.5,2.4,2.3c0.7,0.8,1.4,1.7,2.1,2.7c0.1,0.2,0.3,0.4,0.4,0.6c-0.1-0.9-0.2-1.8-0.3-2.6c-0.1-1.4,0-2.7,0.1-4.1
		c0.1-1.4,0.5-2.7,1-4c0.4-1,0.8-1.9,1.3-2.8c-1.2-1.3-2.1-2.5-3.1-3.7c-0.5-0.7-1-1.4-1.5-2.1c-0.6-0.6-1.1-1.4-1.6-2.1
		c-0.5-0.7-1.2-1.4-1.9-1.8c-0.4-0.2-0.8-0.4-1.2-0.6c-0.4-0.2-0.8-0.3-1.2-0.5c-0.4-0.2-0.8-0.4-1.2-0.6c-0.4-0.2-0.7-0.5-1.1-0.7
		C80.2,56.2,79.6,55.8,79,55.3z"/>
	<path class="st1" d="M55.3,112.1c0,0,13.7,10.1,32.7,6.5c21.4-4,36.2-22.8,38.5-32.5c-0.3,8.5-3.2,34-35.9,40.4
		c-12.6,1.8-19.3-0.2-25.8-4.5C58.3,117.7,55.1,111.9,55.3,112.1z"/>
	<path class="st7" d="M94.6,68.2c0.1,0.4,11.3,16.7,6.8,23.8c4.2-2.2,7.5-4.2,7.5-4.2s-0.7-7.7-5.1-12.2c-4.4-4.6-8.2-7.5-8.8-7.6
		C94.4,67.8,94.6,68.2,94.6,68.2z"/>
	<path class="st5" d="M71.7,48.7c0.8,0.4,1.6,1.1,2.1,1.8c0.3,0.4,0.6,0.9,0.8,1.4c0.2,0.5,0.4,1,0.4,1.5c0.1,0.9,0.2,1.7,0.1,2.6
		c0.6-0.5,1.2-1,1.8-1.5l0,0l0.1,0c0.1,0,0.3-0.1,0.4-0.1c-0.1-0.2-0.1-0.4-0.2-0.6c-0.2-0.8-0.4-1.5-0.6-2.3
		c-0.2-0.8-0.6-1.5-0.5-2.3c0-0.4,0-0.8,0.1-1.2c0.1-0.4,0.2-0.8,0.4-1.2c0-0.1,0.1-0.1,0.2-0.1c0,0,0,0,0,0
		c0.3,0.3,0.6,0.7,0.7,1.1c0.2,0.4,0.3,0.7,0.5,1.1c0.3,0.7,0.1,1.6,0.2,2.3c0,0.8,0.1,1.6,0.1,2.3c0,0.2,0,0.3,0,0.5
		c1.8-0.4,3.8-0.6,5.7-0.4c2.3,0.2,4.6,0.8,6.7,1.8c2.1,1,4,2.2,5.8,3.7c1.7,1.3,3.1,2.9,4.4,4.6c0.4,0,0.6,0,0.9,0.1
		c0.3,0.1,0.5,0.2,0.8,0.3c0.1,0,0.3,0.1,0.4,0.2c-0.3-4.5-0.7-9-1.5-13.4c-0.8-4.7-2.1-9.4-3.6-14c-1.6-4.6-3.5-9-5.6-13.4
		c-2.1-4.3-4.6-8.6-7.1-12.7c2.6,4.1,5.2,8.2,7.5,12.5c2.3,4.3,4.4,8.7,6.1,13.3c1.7,4.6,3.1,9.3,4.1,14.1c1,4.8,1.6,9.7,2.1,14.5
		c0,0.1,0,0.1,0,0.2c0.6,0.3,1.2,0.7,1.8,1.1c1.4,1,2.7,2.3,3.8,3.7c2.4-0.5,4.9-0.7,7.5-0.4c1.3,0.2,2.6,0.5,3.8,1.1
		c1.2,0.6,2.4,1.5,3.1,2.8c0.1,0.2,0.2,0.4,0.2,0.6c0.3-0.3,0.5-0.7,0.7-1.1c0.3-0.5,0.5-0.9,0.7-1.4c0.4-0.9,0.6-1.9,0.6-2.9
		c0-1-0.2-2-0.7-2.8c-0.2-0.4-0.5-0.8-0.9-1.1c-0.4-0.3-0.8-0.6-1.2-1l-2.5-2l-0.6-0.5c-0.3-0.2-0.5-0.5-0.7-0.8
		c-0.4-0.6-0.5-1.4-0.4-2c0.2-1.3,0.7-2.2,1.1-3.2c0.4-0.9,0.8-1.9,1.2-2.9l0.6-1.5c0.2-0.4,0.3-0.9,0.4-1.3c0.1-0.9,0-1.8-0.3-2.6
		c-0.4-0.8-0.9-1.5-1.7-1.9l-0.3-0.2l-0.4-0.2l-0.7-0.3l-1.4-0.7l-1.4-0.7c-0.5-0.3-1-0.7-1.4-1.1c-0.8-0.9-1.3-2-1.5-3.2
		c-0.1-0.6-0.1-1.2,0-1.7l0.2-1.6l0.3-3.1c0.1-0.5,0.1-1.1,0.1-1.5c0-0.5-0.1-1-0.2-1.4c-0.3-0.9-0.8-1.8-1.6-2.4
		c-0.8-0.6-1.7-0.9-2.8-0.8l-0.8,0c-0.3,0-0.6,0-0.8-0.1c-0.5-0.1-1.1-0.3-1.6-0.6c-1-0.6-1.7-1.5-2.1-2.5c-0.2-0.5-0.4-1.1-0.4-1.6
		c-0.1-0.6-0.1-1.1-0.1-1.6l0-1.6c0-0.5,0-1.1-0.1-1.5c-0.1-1-0.6-1.9-1.2-2.6c-0.6-0.7-1.5-1.2-2.4-1.3c-0.2,0-0.5,0-0.7,0
		c-0.2,0-0.5,0-0.8,0c-0.5,0-1,0.1-1.6,0.1c-1.2-0.1-2.4-0.6-3.3-1.4c-0.5-0.5-0.7-0.8-1.1-1.2c-0.3-0.4-0.7-0.7-1.1-1.1
		c-1.5-1.4-3-2.7-4.8-3.8c-1.6-0.9-3.4-1.6-5.1-1.7c-0.1,0.1-0.2,0.2-0.3,0.3c-0.2,0.2-0.3,0.4-0.5,0.6C81.3,5.1,81,5.5,80.7,6
		c-0.5,0.9-1,1.8-1.3,2.8c-0.7,2-1,4.1-1.1,6.2l0,0.8c0,0.3,0,0.6-0.1,1c-0.1,0.6-0.3,1.3-0.6,1.9c-0.3,0.6-0.7,1.1-1.1,1.6
		c-0.4,0.4-0.8,0.8-1.2,1.2L74,22.6l-0.6,0.6L73,23.4l-0.3,0.2c-0.6,0.7-1.1,1.5-1.2,2.5c-0.2,0.9-0.1,1.9,0.3,2.8
		c0.2,0.4,0.4,0.8,0.8,1.3l1,1.4l0.5,0.7c0.2,0.3,0.3,0.5,0.5,0.8c0.3,0.6,0.5,1.2,0.5,1.8c0.2,1.2,0,2.5-0.5,3.6
		c-0.1,0.3-0.3,0.5-0.4,0.8l-0.5,0.7l-0.9,1.4c-0.3,0.5-0.6,0.9-0.9,1.4c-0.2,0.5-0.4,0.9-0.6,1.5c-0.3,1-0.3,2.1-0.1,3.2
		C71.3,47.8,71.5,48.3,71.7,48.7z"/>
	<path class="st7" d="M81.2,73c0,0,8.6,16.1,4,25.3c4.4-1.5,9.7-3.3,9.7-3.3s-2.8-10.8-4.6-13c-1.8-2.2-4.8-6.4-6.4-7.5
		c-1.6-1.1-2.2-1.8-2.2-1.8L81.2,73z"/>
	<path class="st7" d="M71.1,76.3c-0.1,0.2-3,19.4,1.6,24.4c5-0.5,6.5-1.2,6.5-1.2s-1.7-12.7-3-15C74.9,82.3,71.1,76.3,71.1,76.3z"/>
	<path class="st7" d="M102.2,68.8c0,0,10.4,8.6,9.5,16.4c-2,2-3.1,2.6-3.1,2.6s-2.9-10-5.5-12.6c-2.6-2.6-0.9-3.8-0.9-3.8
		L102.2,68.8z"/>
	<path class="st7" d="M74.5,57.5c-0.3,0.2-10.3,9.9-7.6,23.8c1.6-2,3.8-5.3,3.8-5.3s0.1-5.6,0.3-6.7c0.2-1.1,2.9-8.6,3.1-9.3
		S74.5,57.5,74.5,57.5z"/>
	<path class="st7" d="M77.1,54.8c-0.2,0.1-3.1,22.3-0.6,28.6c1.1-3.5,4-9.8,5-10.5c1.5,0.9,4.6,3.6,4.6,3.6s-2.3-9.9-3.4-12.4
		c-1.1-2.5-3.6-6.7-4.2-7.9C77.9,55.1,77.1,54.8,77.1,54.8z"/>
	<path class="st7" d="M81.1,55.4c0.2,0.1,19.5,7.5,20.4,13.2C100.8,65,95.4,58,91.3,56.6C87.2,55.2,81.1,55.4,81.1,55.4z"/>
	<path class="st7" d="M62.4,77.4c0,0-4.1,19.8,3.8,24c-0.7-1.4-2.4-13-1.1-15c1.3-2,1.8-5,1.8-5L62.4,77.4z"/>
	<path class="st8" d="M0.9,37.3c0.6,1.9,1.6,3.7,2.7,5.4l0.9,1.2c0.2,0.2,0.3,0.3,0.4,0.5c0.1,0.2,0.2,0.3,0.3,0.5
		c0.4,0.7,0.5,1.5,0.4,2.3l-0.3,2.9c-0.1,0.5-0.1,0.9-0.2,1.5c-0.1,0.6,0,1.2,0.1,1.7c0.5,2.2,2.2,4.2,4.4,4.8
		c1,0.3,1.9,0.5,2.8,0.7c0.8,0.2,1.5,0.5,2,1.1c0.6,0.5,1,1.3,1.2,2c0.1,0.2,0.1,0.4,0.1,0.6l0.1,0.7l0.2,1.4l0.1,0.7
		c0,0.2,0.1,0.5,0.1,0.8c0.1,0.6,0.3,1.1,0.6,1.6c0.5,1,1.3,1.9,2.3,2.5c0.5,0.3,1,0.5,1.6,0.7c0.6,0.1,1.2,0.2,1.7,0.2l0.7,0
		c0.2,0,0.5,0,0.7,0c0.4,0,0.8,0,1.1,0.2c0.7,0.2,1.4,0.7,2,1.3c0.3,0.3,0.5,0.7,0.7,1c0.2,0.4,0.3,0.7,0.4,1.2
		c0.2,1,0.8,2.1,1.5,2.9c0.7,0.8,1.7,1.4,2.8,1.7c0.5,0.1,1.1,0.2,1.7,0.2c0.3,0,0.6-0.1,0.8-0.1l0.7-0.2l0.7-0.2
		c0.2-0.1,0.5-0.1,0.7-0.1c0.4-0.1,0.8-0.1,1.2,0c1.7,0.3,3.2,1.6,3.7,3.3c0.1,0.4,0.2,0.9,0.3,1.4c0.1,0.6,0.4,1,0.7,1.5
		c0.7,0.8,1.5,1.4,2.4,1.8c1.8,0.9,3.8,1.3,5.7,1.2c1,0,2-0.2,2.9-0.5c0.3-0.1,0.7-0.3,1-0.4c-1.4,1.2-2.7,2.7-3.8,4.2
		c-0.7,1.1-1.3,2.2-1.7,3.5c-0.4,1.2-0.6,2.6-0.4,3.9c0.1,0.7,0.2,1.3,0.4,1.9c0.1,0.3,0.2,0.5,0.3,0.7c0.2,1.1,0.5,2.1,0.8,3.2
		c0.4,1.2,0.8,2.5,1.4,3.7c1.1,2.4,2.4,4.7,4,6.8c3.2,4.2,7.4,7.8,12.3,9.8c2.5,1,5,1.6,7.6,2.1c1.3,0.1,2.6,0.3,3.9,0.3
		c0.7,0,1.3,0.1,2,0.1l2,0c0.7,0,1.3,0,2-0.1l1.9-0.1c1.3-0.2,2.6-0.3,3.9-0.5l1.9-0.3c0.6-0.1,1.3-0.2,1.9-0.4
		c1.3-0.3,2.5-0.6,3.8-0.9c2.6-0.7,5-1.7,7.3-3c2.3-1.3,4.5-2.8,6.5-4.5c2-1.7,4-3.5,5.7-5.5c1.7-2,3.2-4.3,4.4-6.7
		c2.4-4.7,3.9-10,4.1-15.3c0.2-4.5-0.5-9-1.8-13.3c0.1-0.8,0-1.6-0.2-2.4c0.8-0.7,1.3-1.5,1.9-2.4c0.1-0.2,0.3-0.5,0.4-0.7
		c0.1-0.3,0.2-0.5,0.3-0.8c0.2-0.5,0.3-1.1,0.3-1.6c0.1-1.1-0.1-2.3-0.6-3.3c-0.3-0.5-0.6-1-1.1-1.4c-0.4-0.4-0.8-0.7-1.2-1
		l-2.4-2.1l-0.6-0.5c-0.2-0.1-0.3-0.3-0.4-0.4c-0.2-0.3-0.2-0.6-0.2-1.1c0.1-0.8,0.6-1.8,1.1-2.7c0.5-1,0.9-1.9,1.3-2.9l0.6-1.4
		c0.2-0.5,0.4-1.1,0.5-1.7c0.2-1.2,0-2.4-0.4-3.6c-0.5-1.1-1.3-2.1-2.4-2.7l-0.4-0.2l-0.4-0.2l-0.7-0.3l-1.4-0.7l-1.4-0.6
		c-0.4-0.2-0.7-0.4-1.1-0.8c-0.6-0.6-1.1-1.5-1.3-2.4c-0.1-0.5-0.1-0.9-0.1-1.4l0.1-1.6l0.1-3.2c0-0.5,0.1-1,0-1.6
		c0-0.6-0.2-1.1-0.3-1.7c-0.4-1.1-1.1-2-2-2.7c-0.9-0.7-2.1-1-3.2-0.9c-0.5,0-1,0-1.5,0c-0.5-0.1-0.9-0.3-1.4-0.5
		c-0.8-0.5-1.5-1.3-1.9-2.2c-0.2-0.5-0.3-0.9-0.4-1.4c0-0.5,0-1,0-1.5l0-1.6l0-0.8c0-0.3,0-0.6,0-0.8c-0.1-1.1-0.5-2.2-1.3-3.1
		c-0.7-0.9-1.8-1.5-2.9-1.8c-0.3-0.1-0.6-0.1-0.9-0.1c-0.3,0-0.5,0-0.8,0c-0.5,0-1.1,0-1.5,0c-0.9-0.1-1.7-0.5-2.3-1.2
		c-0.3-0.3-0.6-0.8-1-1.2c-0.3-0.4-0.7-0.8-1.1-1.2c-1.5-1.6-3.1-3-5-4.2c-1.9-1.1-4-2-6.4-2.1l-0.3,0l-0.2,0.2
		c-0.3,0.2-0.5,0.4-0.7,0.7c-0.2,0.2-0.4,0.4-0.6,0.7C79.7,4,79.4,4.5,79,5c-0.6,1-1.1,2.1-1.5,3.2c-0.8,2.2-1.1,4.5-1.3,6.8l0,0.9
		c0,0.2,0,0.5-0.1,0.7c-0.1,0.5-0.2,0.9-0.4,1.3c-0.2,0.4-0.4,0.8-0.8,1.1L73.8,20l-1.2,1.2l-0.6,0.6l-0.3,0.3l-0.3,0.3
		c-0.9,1-1.4,2.2-1.6,3.4c-0.2,1.3,0,2.6,0.5,3.7c0.3,0.6,0.7,1.1,1,1.5l1,1.3l0.5,0.7c0.1,0.2,0.3,0.4,0.4,0.6
		c0.2,0.4,0.4,0.9,0.5,1.4c0.2,1,0.1,2-0.2,2.9c-0.1,0.2-0.2,0.5-0.3,0.7l-0.4,0.7L72,40.8c-0.3,0.5-0.5,0.9-0.8,1.5
		c-0.2,0.5-0.4,1.1-0.5,1.7c-0.2,1.1-0.2,2.3,0.1,3.4c0.1,0.4,0.2,0.7,0.4,1.1c-0.5-0.2-1-0.3-1.5-0.3c-0.5,0-1,0-1.5,0l-3,0l-0.7,0
		c-0.2,0-0.4,0-0.5-0.1c-0.3-0.1-0.5-0.3-0.7-0.7c-0.4-0.7-0.6-1.6-0.9-2.6c-0.3-1-0.6-1.9-0.8-2.9l-0.4-1.4
		c-0.2-0.5-0.4-1.1-0.7-1.5c-0.6-1-1.4-1.8-2.5-2.3c-1-0.5-2.2-0.7-3.4-0.5l-0.4,0.1l-0.4,0.1l-0.7,0.2l-1.4,0.4l-1.4,0.4
		c-0.4,0.1-0.8,0.1-1.2,0.1c-0.8-0.1-1.6-0.4-2.2-0.9c-0.3-0.3-0.6-0.6-0.9-0.9L45,34.3l-1.8-2.4l-0.4-0.6c-0.2-0.2-0.3-0.4-0.5-0.6
		c-0.4-0.4-0.8-0.7-1.3-1c-1-0.6-2.1-0.8-3.2-0.7c-1.1,0.1-2.2,0.6-2.9,1.4l-0.5,0.5c-0.2,0.1-0.3,0.3-0.5,0.4
		c-0.4,0.2-0.8,0.4-1.2,0.5c-0.9,0.2-1.8,0-2.6-0.4c-0.4-0.2-0.8-0.5-1.1-0.8c-0.3-0.3-0.6-0.7-1-1.1l-1-1.1c-0.3-0.4-0.6-0.8-1-1.1
		c-0.8-0.7-1.7-1.2-2.8-1.4c-1-0.2-2.1,0-3,0.6c-0.5,0.3-0.8,0.6-1.2,1c-0.4,0.3-0.7,0.7-1.1,0.9c-0.7,0.5-1.7,0.8-2.6,0.7
		c-0.4,0-0.9-0.2-1.4-0.2c-0.5-0.1-1-0.2-1.5-0.2c-2-0.2-4-0.3-6,0c-2,0.3-4.1,0.9-5.7,2.3L0.3,31l0,0.2c-0.2,1.1-0.2,2.1-0.1,3.1
		C0.3,35.4,0.5,36.3,0.9,37.3z M49.4,98.6c-0.1-1.2,0-2.5,0.4-3.7c0.4-1.2,0.9-2.4,1.6-3.4c1.2-1.8,2.7-3.4,4.4-4.8
		c0.1,0,0.1-0.1,0.2-0.1c0,0,0.1,0,0.1-0.1c0,0.5,0,1,0,1.6c0.1,1.1,0.2,2.2,0.5,3.3c-0.4,0.5-0.8,1.1-0.9,1.8
		c-0.3,0.9-0.2,1.9-0.1,2.8c0.1,0.5,0.2,0.9,0.3,1.4l0.2,0.7c0.1,0.2,0.2,0.5,0.3,0.7c0.6,0.9,1.4,1.5,2.3,1.9
		c1.7,0.8,3.6,1.1,5.4,1.3c1.8,0.2,3.6,0.2,5.4,0.1c7.2-0.3,14.1-2.1,20.9-4.4c3.4-1.2,6.7-2.5,9.8-4.1c3.2-1.6,6.3-3.4,9.2-5.5
		c1.4-1.1,2.8-2.2,4.1-3.4c1.3-1.3,2.5-2.6,3.4-4.2c0.5-0.8,0.9-1.6,1.1-2.5c0.1-0.5,0.1-0.9,0-1.4c-0.1-0.4-0.3-0.9-0.6-1.2
		c-0.6-0.8-1.5-1.1-2.4-1.3c-0.6-0.1-1.2-0.1-1.8-0.1c-0.5-1-1-2-1.7-2.9c-0.2-0.2-0.3-0.4-0.5-0.6c2.4-0.2,4.8-0.2,7.2,0.3
		c1.2,0.2,2.4,0.6,3.5,1.2c1,0.6,2,1.4,2.4,2.4c0.4,1,0.3,2.2,0.1,3.3c-0.3,1.1-0.8,2.3-1.4,3.3c-1.2,2.1-2.9,3.9-4.8,5.6
		c-1.8,1.7-3.9,3.2-5.9,4.6c-2.1,1.4-4.3,2.7-6.5,3.9c-4.5,2.4-9.1,4.5-13.9,6.1c-4.8,1.6-9.7,2.9-14.7,3.7
		c-5,0.8-10.1,1.2-15.2,0.9c-2.5-0.2-5-0.6-7.4-1.5c-1.2-0.5-2.3-1.1-3.1-2c-0.4-0.5-0.7-1-0.9-1.6C49.7,99.9,49.5,99.3,49.4,98.6z
		 M65.1,78.8c-0.3-0.4-0.7-0.8-1.1-1.1c-0.4-0.4-0.8-0.7-1.4-1l-0.1,0c0.2-1,0.4-2,0.7-2.9c0.2-0.5,0.4-1.1,0.6-1.6
		c0.2-0.4,0.3-0.8,0.5-1.2c0.1-0.1,0.2-0.3,0.2-0.4c0.9-2,2.2-3.9,3.4-5.7c1.2-1.9,2.6-3.8,4.2-5.4c0.4-0.4,0.9-0.8,1.3-1.1
		c0.2-0.2,0.4-0.4,0.7-0.5c-0.4,0.5-0.8,1.1-1.2,1.7c-0.4,0.9-0.8,1.8-1.1,2.8c-0.3,0.9-0.4,1.9-0.5,2.9c-0.1,1-0.2,1.9-0.4,2.9
		c-0.1,0.5-0.3,0.9-0.5,1.4c-0.2,0.5-0.3,0.9-0.5,1.4c-0.1,0.5-0.2,1-0.2,1.5c0,0.5,0,1,0,1.5c0.1,0.8,0.2,1.7,0.4,2.5
		c-0.5,0.6-0.9,1.3-1.4,1.9c-0.3,0.5-0.6,1-0.9,1.5l-0.4,0.7L67,81.2c-1,2-2,4.1-2.5,6.4c-0.1,0.6-0.2,1.1-0.3,1.7
		c-0.1,0.6-0.1,1.2-0.1,1.7c0,0.6-0.1,1.2,0,1.7c0,0.6,0.1,1.1,0.1,1.7c0,0.6,0.1,1.1,0.3,1.7c0.1,0.6,0.2,1.1,0.3,1.7
		c0.2,0.8,0.5,1.6,0.8,2.3c-0.5,0-1,0-1.5,0c-1.1,0-2.2-0.2-3.2-0.4c-1-1.8-1.8-3.7-2.5-5.6c-0.3-1-0.6-2-0.8-3
		c-0.2-1-0.3-2.1-0.3-3.1c0-2.1,0.4-4.1,1.4-5.9c0.9-1.7,2.3-3.1,3.9-4.3c0.3,0.1,0.6,0.3,0.9,0.5c0.4,0.3,0.8,0.6,1.2,0.9l2.4,2
		C66.4,80.4,65.7,79.6,65.1,78.8z M100.8,68.6c0.1,0.7,0.2,1.5,0.4,2.2c0.1,0.4,0.2,0.8,0.3,1.2c-0.5-0.4-0.9-0.9-1.4-1.3l-0.6-0.5
		l-0.7-0.5c-0.4-0.3-0.9-0.6-1.4-0.9c-0.2-0.1-0.5-0.3-0.7-0.4c-0.2-0.1-0.5-0.3-0.7-0.4c-0.2-0.1-0.5-0.2-0.8-0.3
		c-0.2-0.1-0.5-0.2-0.8-0.2l-0.2,0l-0.1,0.2c0,0.1-0.1,0.2-0.1,0.3c0-0.2-0.1-0.3-0.1-0.5c-0.1-0.5-0.2-0.9-0.4-1.3
		c-0.2-0.4-0.4-0.9-0.6-1.3c-0.2-0.4-0.5-0.8-0.7-1.2l-0.4-0.6c-0.1-0.2-0.3-0.3-0.5-0.5c-0.3-0.3-0.6-0.7-1-1
		c-0.3-0.3-0.7-0.6-1.1-0.9c-0.4-0.3-0.8-0.5-1.2-0.8c-0.4-0.2-0.8-0.5-1.2-0.7c-0.4-0.2-0.7-0.5-1.1-0.8c-0.4-0.3-0.7-0.6-1-1
		c-0.3-0.3-0.7-0.7-1-1c-0.7-0.6-1.6-1-2.4-1.3c0,0-0.1,0-0.1,0c0.8,0,1.7,0.1,2.5,0.2c2.1,0.3,4.1,1,6.1,1.8c0.5,0.2,1,0.4,1.5,0.7
		c0.5,0.3,1,0.5,1.4,0.7c0.9,0.6,1.9,1.1,2.8,1.7c1.7,1,3.3,2.3,5,3.5l0.1,0.3c0.2,0.7,0.3,1.5,0.2,2.2
		C100.8,67.1,100.7,67.9,100.8,68.6z M113.8,76.5c-0.2-0.9-0.6-1.7-0.9-2.6c0.6,0,1.1,0,1.7,0.1c0.8,0.1,1.7,0.5,2.1,1.2
		c0.2,0.3,0.4,0.7,0.5,1.1c0.1,0.4,0.1,0.8,0,1.2c-0.2,0.8-0.6,1.6-1.1,2.3c-0.5,0.8-1.2,1.6-1.8,2.3
		C114.5,80.4,114.3,78.4,113.8,76.5z M114,82.6c-0.4,0.4-0.9,0.9-1.3,1.3c-1.2,1.1-2.5,2.1-3.9,3c-0.2-1.9-0.6-3.8-1.2-5.6
		c-0.7-2-1.7-4-3-5.8c-0.7-1-1.5-1.9-2.3-2.8c0.2-0.7,0.3-1.3,0.3-2c0.1-0.8,0-1.5,0-2.3c-0.1-0.8-0.3-1.5-0.6-2.2
		c-0.2-0.6-0.4-1.2-0.6-1.8c0.1,0,0.2,0,0.3,0.1c0.2,0.1,0.4,0.2,0.7,0.3c0.3,0.1,2.9,2.3,3.4,2.8c1.4,1.4,2.7,2.9,3.8,4.5
		c1.1,1.6,2.1,3.3,2.8,5.1C113,78.8,113.6,80.7,114,82.6z M65.8,91.1c0-1.1,0.2-2.2,0.2-3.3c0.2-1.1,0.2-2.2,0.5-3.2l0.2-0.8
		c0.1-0.3,0.2-0.5,0.3-0.8l0.3-0.8c0.1-0.3,0.2-0.5,0.3-0.8l0.4-0.7l0.4-0.7c0.3-0.5,0.6-0.9,0.9-1.4c0.5-0.7,1.1-1.3,1.8-1.8
		c0.9,1.6,1.8,3.2,2.6,4.8c0.5,0.9,0.9,1.8,1.3,2.8c0.4,0.9,0.7,1.9,0.9,2.7c0.4,2,0.9,4.1,1.4,6.1c0.5,1.8,1,3.6,1.6,5.4
		c-3.2,0.6-6.4,1.1-9.7,1.3c-1.1,0.1-2.1,0.1-3.2,0.1c-0.1-0.8-0.1-1.7-0.2-2.5c0-1.1-0.1-2.2-0.1-3.3
		C65.7,93.3,65.6,92.2,65.8,91.1z M78.7,93c-0.2-2.1-0.5-4.1-0.9-6.2c-0.2-1.2-0.6-2.2-1.1-3.2c0,0,0,0,0,0c0,0,0.1,0,0.1-0.1l0,0
		c0.4-0.9,0.7-1.9,1.1-2.8c0.4-0.9,0.8-1.8,1.2-2.7c0.4-0.9,0.9-1.7,1.3-2.6c0.4-0.7,0.8-1.5,1.2-2.2c0.8,0.4,1.5,0.9,2.2,1.6
		c0.8,0.8,1.5,1.6,2.1,2.5c0.6,0.9,1.2,1.8,1.8,2.7c0.6,0.9,1.2,1.8,1.7,2.7c0.5,0.9,1,1.8,1.3,2.7c0.3,1,0.7,2.1,1.1,3.1
		c0.7,1.9,1.4,3.9,2.3,5.8c-1.5,0.6-3.1,1.1-4.7,1.6c-3.3,1-6.7,1.9-10.2,2.5c-0.1,0-0.2,0-0.3,0.1C79.1,96.7,78.9,94.8,78.7,93z
		 M93.7,88.1c-0.2-1.1-0.5-2.2-0.8-3.2c-0.2-0.6-0.4-1.1-0.7-1.6c0.2-1.2,0.3-2.4,0.5-3.5c0.2-1.3,0.3-2.6,0.5-4
		c0.2-1.3,0.3-2.6,0.5-3.9c0.2-1.2,0.4-2.5,1-3.6l0.1,0c0.1,0,0.2,0.1,0.3,0.1c0.2,0.1,0.5,0.2,0.7,0.3c0.2,0.1,0.4,0.3,0.6,0.4
		c0.2,0.2,0.4,0.3,0.6,0.5c0.4,0.3,0.8,0.7,1.1,1.1l0.5,0.6l0.5,0.6c1.4,1.5,2.6,3.2,3.7,4.9c1.1,1.7,2.2,3.5,3.1,5.3
		c0.9,1.7,1.6,3.4,2.4,5.2c-2.9,2-5.9,3.6-9.1,5.1c-1.6,0.7-3.2,1.4-4.8,2C94.5,92.2,94.2,90.1,93.7,88.1z M81.9,57.3
		c0.4,0.2,0.7,0.4,1.2,0.6c0.4,0.2,0.8,0.3,1.2,0.5c0.4,0.2,0.8,0.4,1.2,0.6c0.7,0.5,1.4,1.1,1.9,1.8c0.5,0.7,1,1.4,1.6,2.1
		c0.5,0.7,1,1.4,1.5,2.1c1,1.2,2,2.5,3.1,3.7c-0.5,0.9-0.9,1.9-1.3,2.8c-0.5,1.3-0.8,2.7-1,4c-0.1,1.4-0.2,2.7-0.1,4.1
		c0,0.9,0.1,1.8,0.3,2.6c-0.1-0.2-0.3-0.4-0.4-0.6c-0.6-0.9-1.4-1.8-2.1-2.7c-0.7-0.8-1.6-1.6-2.4-2.3c-0.1-0.1-0.3-0.2-0.4-0.4
		c0.1-0.5,0.1-0.9,0.1-1.4c0-0.5,0-1,0-1.5c0-0.5-0.1-1-0.2-1.5c-0.1-0.5-0.2-1-0.3-1.5c-0.1-0.5-0.3-1-0.5-1.4
		c-0.2-0.5-0.3-0.9-0.6-1.4c-0.2-0.5-0.4-0.9-0.6-1.4c-0.2-0.4-0.5-0.9-0.8-1.3c-0.5-0.9-1-1.7-1.4-2.6c-0.4-0.9-0.5-1.9-0.9-2.9
		c-0.4-0.9-0.9-1.8-1.5-2.6c-0.4-0.6-0.9-1.1-1.5-1.6c0.2,0,0.4,0,0.6-0.1c0.6,0.5,1.2,0.9,1.8,1.3C81.1,56.8,81.5,57.1,81.9,57.3z
		 M78.5,57.7c0.2,0.4,0.4,0.9,0.6,1.3c0.2,0.4,0.5,0.9,0.7,1.2c0.3,0.4,0.6,0.8,0.9,1.2c0.3,0.4,0.6,0.8,0.8,1.2
		c0.5,0.9,0.8,1.8,1,2.8c0.2,1,0.4,1.9,0.7,2.8c0.2,0.9,0.5,1.9,0.7,2.8c0.6,1.6,1.1,3.2,1.8,4.9c-0.5-0.5-1-1-1.6-1.5
		c-0.8-0.8-1.5-1.6-2.5-2.3l-0.3-0.2l-0.3,0.4c-0.7,0.7-1.4,1.5-2,2.4c-0.6,0.9-1,1.8-1.4,2.8c-0.2,0.5-0.3,1-0.5,1.5
		c-0.1,0.5-0.2,1-0.3,1.5c-0.2,1-0.3,2-0.2,3c-0.4-0.9-0.9-1.8-1.4-2.7c-1.1-1.8-2.2-3.6-3.6-5.2L71.3,75l-0.4,0.4c0,0,0,0-0.1,0.1
		c0.1-0.5,0.2-1.1,0.3-1.6c0.1-0.9,0.3-1.9,0.3-2.8l-0.1-1.4c0-0.5,0-1,0-1.4c0.1-1,0.4-1.9,0.8-2.7c0.2-0.4,0.4-0.9,0.6-1.3
		c0.2-0.4,0.4-0.9,0.6-1.3c0.4-0.9,0.8-1.6,1.2-2.5c0.7-1.5,1.5-3,2.3-4.7c0.2-0.1,0.3-0.2,0.5-0.3c0.1,0,0.1,0,0.2,0
		C77.9,56.2,78.2,57,78.5,57.7z M57.6,94.4c0.8,1.9,1.8,3.7,3.1,5.3c-0.6-0.1-1.1-0.3-1.7-0.4c-0.8-0.3-1.5-0.7-1.9-1.3
		c-0.1-0.1-0.2-0.3-0.3-0.5L56.6,97c-0.1-0.4-0.3-0.8-0.4-1.2c-0.2-0.8-0.3-1.7-0.2-2.5c0.1-0.5,0.3-1,0.5-1.5
		C56.9,92.7,57.2,93.6,57.6,94.4z M125.7,89.9c-0.5,5.1-2,10-4.4,14.5c-0.6,1.1-1.2,2.3-1.9,3.3c-0.7,1.1-1.4,2.1-2.2,3
		c-1.6,2-3.4,3.8-5.3,5.4c-1.9,1.6-4,3.2-6.1,4.5c-2.2,1.3-4.4,2.5-6.8,3.3c-4.9,1.6-10,2.7-15.1,2.7c-2.6,0-5.1-0.3-7.6-0.8
		c-2.5-0.6-4.9-1.4-7.2-2.5c-4.6-2.1-8.6-5.3-11.8-9.3c-0.8-1-1.5-2-2.3-3.1c-0.7-1.1-1.4-2.2-2-3.3c-1-1.8-1.8-3.6-2.5-5.5
		c0,0,0,0,0,0c0.9,1,2,1.7,3.2,2.2c2.4,1,5,1.5,7.5,1.7c5.1,0.5,10.3,0.2,15.4-0.5c5.1-0.7,10.1-1.9,15-3.5c2.5-0.8,4.9-1.7,7.3-2.7
		c2.4-1,4.7-2.1,7-3.2c4.6-2.3,9.1-5.1,12.9-8.7c1.9-1.8,3.7-3.8,5-6.2c0.6-1.1,1.1-2.3,1.4-3.5C125.8,82,126.1,86,125.7,89.9z
		 M71.4,44.1c0.1-0.5,0.3-1,0.6-1.5c0.2-0.4,0.6-0.9,0.9-1.4l0.9-1.4l0.5-0.7c0.2-0.3,0.3-0.5,0.4-0.8c0.5-1.1,0.7-2.4,0.5-3.6
		c-0.1-0.6-0.3-1.2-0.5-1.8c-0.1-0.3-0.3-0.6-0.5-0.8l-0.5-0.7l-1-1.4c-0.3-0.5-0.6-0.8-0.8-1.3c-0.4-0.9-0.5-1.8-0.3-2.8
		c0.2-0.9,0.6-1.8,1.2-2.5l0.3-0.2l0.3-0.3l0.6-0.6l1.2-1.1c0.4-0.4,0.8-0.7,1.2-1.2c0.5-0.5,0.8-1,1.1-1.6c0.3-0.6,0.5-1.2,0.6-1.9
		c0.1-0.3,0.1-0.6,0.1-1l0-0.8c0.1-2.1,0.4-4.2,1.1-6.2c0.3-1,0.8-1.9,1.3-2.8c0.3-0.4,0.6-0.9,0.9-1.3c0.2-0.2,0.3-0.4,0.5-0.6
		c0.1-0.1,0.2-0.2,0.3-0.3c1.8,0.1,3.5,0.7,5.1,1.7c1.7,1,3.3,2.3,4.8,3.8c0.4,0.4,0.7,0.7,1.1,1.1c0.4,0.4,0.6,0.7,1.1,1.2
		c0.9,0.8,2.1,1.4,3.3,1.4c0.6,0,1.1,0,1.6-0.1c0.3,0,0.5,0,0.8,0c0.2,0,0.5,0,0.7,0c0.9,0.1,1.8,0.6,2.4,1.3
		c0.6,0.7,1.1,1.6,1.2,2.6c0.1,0.5,0.1,1,0.1,1.5l0,1.6c0,0.5,0,1.1,0.1,1.6c0.1,0.6,0.2,1.1,0.4,1.6c0.4,1,1.2,1.9,2.1,2.5
		c0.5,0.3,1,0.5,1.6,0.6c0.3,0.1,0.6,0.1,0.8,0.1l0.8,0c1-0.1,2,0.2,2.8,0.8c0.8,0.6,1.3,1.4,1.6,2.4c0.1,0.5,0.2,1,0.2,1.4
		c0,0.5-0.1,1-0.1,1.5l-0.3,3.1l-0.2,1.6c-0.1,0.5-0.1,1.2,0,1.7c0.2,1.2,0.7,2.3,1.5,3.2c0.4,0.5,0.9,0.8,1.4,1.1l1.4,0.7l1.4,0.7
		l0.7,0.3l0.4,0.2l0.3,0.2c0.7,0.4,1.3,1.1,1.7,1.9c0.4,0.8,0.5,1.7,0.3,2.6c-0.1,0.5-0.2,0.9-0.4,1.3l-0.6,1.5
		c-0.4,1-0.8,2-1.2,2.9c-0.4,1-0.9,1.9-1.1,3.2c-0.1,0.6,0,1.4,0.4,2c0.2,0.3,0.4,0.5,0.7,0.8l0.6,0.5l2.5,2c0.4,0.3,0.8,0.7,1.2,1
		c0.4,0.3,0.7,0.6,0.9,1.1c0.5,0.8,0.7,1.8,0.7,2.8c0,1-0.3,2-0.6,2.9c-0.2,0.5-0.4,0.9-0.7,1.4c-0.2,0.4-0.4,0.7-0.7,1.1
		c-0.1-0.2-0.1-0.4-0.2-0.6c-0.7-1.4-1.9-2.2-3.1-2.8c-1.2-0.6-2.5-0.9-3.8-1.1c-2.5-0.3-5-0.1-7.5,0.4c-1.1-1.4-2.4-2.6-3.8-3.7
		c-0.6-0.4-1.2-0.8-1.8-1.1c0-0.1,0-0.1,0-0.2c-0.5-4.9-1-9.7-2.1-14.5c-1-4.8-2.4-9.5-4.1-14.1c-1.7-4.6-3.8-9-6.1-13.3
		c-2.3-4.3-4.9-8.4-7.5-12.5c2.5,4.2,4.9,8.4,7.1,12.7c2.1,4.4,4.1,8.8,5.6,13.4c1.6,4.6,2.8,9.3,3.6,14c0.8,4.4,1.2,8.9,1.5,13.4
		c-0.1-0.1-0.2-0.1-0.4-0.2c-0.2-0.1-0.5-0.2-0.8-0.3c-0.3-0.1-0.5-0.1-0.9-0.1c-1.3-1.6-2.8-3.2-4.4-4.6c-1.7-1.5-3.7-2.7-5.8-3.7
		c-2.1-1-4.4-1.6-6.7-1.8c-1.9-0.2-3.8,0-5.7,0.4c0-0.2,0-0.3,0-0.5c0-0.8,0-1.6-0.1-2.3c0-0.8,0.1-1.6-0.2-2.3
		c-0.1-0.4-0.3-0.7-0.5-1.1c-0.2-0.4-0.4-0.7-0.7-1.1c0,0,0,0,0,0c-0.1,0-0.1,0-0.2,0.1c-0.2,0.4-0.3,0.8-0.4,1.2
		c-0.1,0.4-0.1,0.8-0.1,1.2c0,0.8,0.3,1.5,0.5,2.3c0.2,0.8,0.4,1.5,0.6,2.3c0.1,0.2,0.1,0.4,0.2,0.6c-0.1,0-0.3,0.1-0.4,0.1l-0.1,0
		l0,0c-0.6,0.5-1.2,1-1.8,1.5c0.1-0.9,0-1.7-0.1-2.6c-0.1-0.5-0.2-1-0.4-1.5c-0.2-0.5-0.5-0.9-0.8-1.4c-0.5-0.7-1.2-1.4-2.1-1.8
		c-0.2-0.4-0.3-0.9-0.4-1.4C71.1,46.3,71.1,45.2,71.4,44.1z M1.5,31.7c1.3-1.1,3.1-1.8,4.9-2.1c1.9-0.3,3.8-0.4,5.8-0.2
		c0.5,0,1,0.1,1.5,0.1c0.5,0.1,0.9,0.2,1.5,0.2c1.1,0.1,2.2-0.2,3-0.9c0.4-0.3,0.8-0.7,1.1-1c0.4-0.3,0.7-0.7,1.1-0.9
		c0.8-0.5,1.7-0.6,2.7-0.5c0.9,0.1,1.8,0.6,2.5,1.2c0.3,0.3,0.6,0.7,1,1.1l0.9,1.1c0.3,0.4,0.6,0.8,1,1.1c0.4,0.4,0.8,0.7,1.3,0.9
		c0.9,0.5,2,0.7,3.1,0.5c0.5-0.1,1.1-0.3,1.5-0.5c0.2-0.1,0.5-0.3,0.7-0.5l0.6-0.5c0.2-0.2,0.4-0.3,0.5-0.4c0.2-0.1,0.4-0.2,0.6-0.3
		c0.4-0.2,0.8-0.3,1.3-0.3c0.9,0,1.7,0.2,2.5,0.7c0.4,0.2,0.7,0.5,1,0.9c0.1,0.2,0.3,0.3,0.4,0.5l0.4,0.6l1.7,2.4l0.8,1.2
		c0.3,0.4,0.7,0.9,1.1,1.3c0.9,0.7,1.9,1.3,3.1,1.4c0.6,0.1,1.2,0,1.8-0.1l1.5-0.4l1.4-0.4l0.7-0.2l0.4-0.1l0.3-0.1
		c0.8-0.2,1.6,0,2.3,0.3c0.7,0.4,1.4,0.9,1.8,1.7c0.2,0.4,0.4,0.7,0.5,1.2l0.4,1.4c0.3,0.9,0.6,1.9,0.9,2.8c0.3,0.9,0.5,2,1.1,3
		c0.3,0.5,0.9,1,1.5,1.2c0.3,0.1,0.6,0.1,1,0.1l0.7,0l3-0.1l1.5,0c0.4,0,0.9,0.1,1.3,0.2c0.8,0.3,1.6,0.9,2.1,1.6
		c0.6,0.7,1,1.6,1.3,2.5c0.1,0.5,0.3,0.9,0.4,1.4c0.1,0.4,0.2,0.8,0.2,1.2c-0.2,0.2-0.4,0.4-0.6,0.5c-0.9,0.8-1.7,1.5-2.6,2.3
		c-0.4,0.4-0.9,0.8-1.3,1.2c-0.2,0.2-0.4,0.4-0.7,0.6c-0.2,0.2-0.4,0.4-0.6,0.6l-1.3,1.2c-0.4,0.4-0.8,0.9-1.2,1.3
		c-1.3,1.5-2.3,3.2-3.1,5c-3.4-3.9-7.2-7.3-11.3-10.4c-4.4-3.3-9-6.2-13.7-8.9c-4.7-2.7-9.6-5-14.6-7.1c-5-2.1-10.1-3.9-15.3-5.4
		c5.2,1.7,10.2,3.6,15.1,5.9c4.9,2.2,9.7,4.7,14.4,7.5c4.6,2.8,9.1,5.9,13.3,9.2c4.2,3.4,8.1,7.1,11.4,11.3l0,0
		c-0.3,0.8-0.5,1.7-0.6,2.6c-0.1,1-0.2,2.1,0,3.1L62,76.8c-1.8,1.2-3.5,2.8-4.5,4.8c-0.8,1.4-1.2,3-1.4,4.6
		c-0.1,0.1-0.2,0.2-0.3,0.2c-0.2,0.1-0.4,0.2-0.6,0.3c-0.4,0.2-0.9,0.4-1.3,0.5c-0.9,0.3-1.9,0.4-2.8,0.4c-1.9,0-3.8-0.4-5.4-1.3
		c-0.8-0.4-1.6-1-2.1-1.7c-0.3-0.4-0.5-0.7-0.5-1.1C43,83,42.9,82.5,42.8,82c-0.5-2-2.2-3.8-4.3-4.3c-0.5-0.1-1.1-0.2-1.6-0.1
		c-0.3,0-0.5,0.1-0.8,0.1l-0.7,0.1L34.7,78c-0.2,0-0.4,0.1-0.6,0.1c-0.4,0-0.8-0.1-1.2-0.2c-0.8-0.2-1.5-0.7-2-1.3
		c-0.3-0.3-0.5-0.7-0.7-1C30,75.3,30,75.1,29.9,75c-0.1-0.2-0.1-0.4-0.2-0.6c-0.1-0.4-0.2-1-0.5-1.5c-0.2-0.5-0.5-1-0.9-1.4
		c-0.7-0.9-1.6-1.6-2.7-1.9c-0.5-0.2-1.1-0.3-1.7-0.3c-0.3,0-0.5,0-0.8,0l-0.7,0c-0.4,0-0.8,0-1.2-0.1c-0.4-0.1-0.7-0.3-1.1-0.5
		c-0.7-0.4-1.2-1-1.6-1.7c-0.2-0.3-0.3-0.7-0.4-1.1c0-0.2-0.1-0.4-0.1-0.7l-0.1-0.7l-0.2-1.4l-0.1-0.7c0-0.2-0.1-0.6-0.2-0.8
		c-0.3-1.1-0.9-2.1-1.7-2.9c-0.8-0.8-1.9-1.4-3-1.6l-2.8-0.7c-1.5-0.4-2.7-1.7-3.1-3.3c-0.1-0.4-0.1-0.8-0.1-1.2
		c0-0.4,0.1-0.9,0.1-1.4l0.3-2.9c0.1-1.1-0.1-2.3-0.6-3.3c-0.1-0.3-0.3-0.5-0.4-0.7c-0.1-0.2-0.4-0.5-0.5-0.6L5,41.7
		c-1.1-1.5-2-3.1-2.7-4.9C2,35.9,1.7,35,1.6,34.1c-0.1-0.4-0.1-0.9-0.1-1.4C1.5,32.4,1.5,32,1.5,31.7z"/>
	<path class="st8" d="M4.1,118c1.7,1.7,3.9,3,6.2,3.6c2.2,0.7,4.4,0.8,6.6,0.6c-0.2,0.4-0.2,0.8-0.2,1.2c0,0.5,0.2,1,0.4,1.4
		c0.2,0.4,0.5,0.8,0.9,1.2c0.1,0.1,0.2,0.2,0.3,0.2l0.2,0.1c0.1,0,0.1,0,0.2,0.1c0.2,0.1,0.4,0.2,0.6,0.2c3.3,1.2,6.9,1.5,10.4,1.4
		c1.8-0.1,3.5-0.4,5.2-0.8c0.9-0.2,1.7-0.5,2.5-0.8c0.4-0.2,0.8-0.4,1.2-0.5c0.4-0.2,0.8-0.4,1.2-0.6c0.8-0.4,1.5-0.9,2.3-1.5
		c0.7-0.5,1.4-1.1,2-1.8c1.2-1.3,2.2-2.8,2.9-4.4c0.7-1.6,1.2-3.3,1.5-5c0.1-0.9,0.2-1.8,0.1-2.6c-0.1-0.9-0.2-1.8-0.8-2.6
		c-0.6-0.7-1.4-1.2-2.3-1.5c-0.9-0.3-1.8-0.3-2.7-0.3c-1.8,0-3.6,0.5-5.2,1.2c-0.8,0.4-1.6,0.8-2.4,1.3c-0.8,0.5-1.4,1-2.1,1.6
		c-1.3,1.1-2.6,2.2-3.9,3.3c-0.5,0.4-1,0.9-1.5,1.3c-0.4-0.2-0.8-0.3-1.1-0.4l-0.2-0.1l-0.1,0l-0.1,0l-0.3-0.2l-0.7-0.4
		c-1-0.6-1.9-1.2-2.9-1.8c-2-1.1-4-2.3-6-3.2c-4.1-1.8-8.7-4-13.5-2.6c-0.6,0.2-1.2,0.5-1.7,1c-0.1,0.1-0.2,0.2-0.3,0.4
		c-0.1,0.1-0.2,0.3-0.3,0.4l-0.2,0.5c-0.1,0.2-0.1,0.3-0.1,0.5c-0.2,1.3,0,2.6,0.3,3.8C1.1,114.2,2.4,116.3,4.1,118z M47.6,107.9
		c0.3,0.5,0.4,1.2,0.5,1.9c0.1,0.8,0,1.7-0.2,2.5c-0.3,1.6-0.9,3.2-1.8,4.7c-1.7,2.9-4.2,5.1-7.1,6.6c-0.4,0.2-0.7,0.3-1.1,0.5
		c-0.4,0.2-0.8,0.3-1.1,0.5c-0.8,0.2-1.6,0.5-2.4,0.7c-0.8,0.2-1.6,0.3-2.4,0.5c-0.8,0.1-1.6,0.2-2.5,0.3c-1.6,0.1-3.3,0.1-5,0
		c-1.7-0.1-3.3-0.3-5-0.6c-0.2,0-0.4-0.1-0.6-0.1c0,0-0.1,0-0.1,0c0,0,0,0-0.1,0c-0.1,0-0.1-0.1-0.2-0.1c-0.1,0-0.1-0.1-0.2-0.1
		c1.4,0.2,2.7,0.3,4.1,0.3c0.8,0,1.6-0.1,2.3-0.2c0.8-0.1,1.6-0.1,2.3-0.4c0.8-0.2,1.5-0.4,2.3-0.6c0.8-0.2,1.5-0.6,2.2-0.9
		c1.5-0.5,2.8-1.4,4.1-2.3c0.6-0.5,1.2-1,1.9-1.4c0.6-0.4,1.2-1,1.9-1.4c0.7-0.4,1.3-0.9,1.9-1.3c0.3-0.2,0.7-0.4,1-0.7
		c0.3-0.3,0.6-0.5,0.9-0.8c0.6-0.5,1.1-1.1,1.6-1.8c0.5-0.6,0.9-1.3,1.3-2C46.8,110.5,47.3,109.2,47.6,107.9z M30,113.6
		c1.4-1,2.8-1.9,4.2-2.9l1-0.8c0.3-0.3,0.7-0.5,1-0.7c0.7-0.5,1.4-0.9,2.1-1.3c1.4-0.7,3-1.3,4.6-1.6c0.8-0.1,1.6-0.1,2.4,0
		c0.8,0.2,1.5,0.5,2,1.1c-0.8,1.2-1.6,2.3-2.4,3.4c-0.9,1.2-1.8,2.3-2.8,3.5c-0.5,0.6-0.9,1.2-1.4,1.8c-0.5,0.6-1,1.2-1.6,1.6
		c-0.3,0.2-0.6,0.5-0.9,0.7c-0.3,0.2-0.6,0.5-0.9,0.6c-0.7,0.4-1.3,0.7-2,1c-2.8,1-5.6,2-8.5,2.7c-0.4,0.1-0.7,0.2-1.1,0.3
		c-0.4,0.1-0.7,0.1-1.1,0.2c-0.7,0.2-1.5,0.3-2.2,0.5c-1.4,0.3-2.9,0.5-4.3,0.9c-0.1-0.1-0.2-0.2-0.3-0.3c-0.2-0.3-0.4-0.6-0.5-1
		c0-0.4,0-0.7,0.1-1.1c0.3-0.7,0.9-1.3,1.6-1.8c0.3-0.2,0.7-0.4,1.1-0.6l1.2-0.5c0.4-0.2,0.7-0.5,1.1-0.7l1.1-0.7
		c0.7-0.5,1.4-1,2.1-1.4C27.1,115.5,28.6,114.6,30,113.6z M1.9,107.4c0.1-0.1,0.1-0.2,0.2-0.3c0.3-0.4,0.7-0.7,1.1-0.9
		c0.9-0.5,2-0.7,3.1-0.7c1.1,0,2.2,0.2,3.3,0.5c0.5,0.2,1,0.4,1.5,0.6c0.5,0.3,1,0.5,1.4,0.8c1,0.6,1.9,1.2,2.9,1.8
		c2,1.2,4,2.2,6.1,3.1c1,0.5,2.1,0.9,3.2,1.4c0.3,0.1,0.5,0.2,0.8,0.3c0.2,0,0.3,0.1,0.5,0.1l0.1,0l0.1,0l0.2,0c0.3,0,0.6,0,0.9,0.1
		c-0.7,0.6-1.3,1.2-2,1.8c-0.6,0.6-1.3,1.1-2,1.6c-0.4,0.3-0.8,0.6-1.2,0.9c-1-0.4-2-0.7-3-1c-1-0.3-2-0.5-2.9-0.9
		c-0.5-0.1-1-0.3-1.5-0.4c-0.5-0.2-1-0.3-1.5-0.4c-0.5-0.1-1-0.3-1.5-0.5c-0.5-0.2-1-0.3-1.5-0.5c-0.5-0.2-1-0.4-1.4-0.6
		c-0.5-0.2-0.9-0.5-1.3-0.8c-0.8-0.6-1.4-1.5-2.1-2.3c-0.7-0.8-1.4-1.4-2.2-2.1c-0.6-0.5-1.1-1.1-1.7-1.6
		C1.8,107.5,1.8,107.4,1.9,107.4z M2.4,110.1c0.6,0.9,1.3,1.7,2.2,2.4c0.9,0.6,1.9,1.1,2.8,1.6c0.5,0.3,0.9,0.6,1.3,0.9
		c0.4,0.3,0.9,0.6,1.3,1c0.2,0.2,0.4,0.3,0.7,0.5c0.2,0.2,0.5,0.3,0.7,0.4c0.5,0.3,0.9,0.6,1.4,0.8c0.5,0.2,1,0.4,1.5,0.7
		c0.5,0.2,1,0.3,1.6,0.5c0.5,0.1,1.1,0.3,1.6,0.3c0.5,0.1,1.1,0.1,1.6,0.1c0.3,0,0.5,0,0.8,0c0.3,0,0.5,0,0.8-0.1
		c0.4,0,0.8-0.1,1.2-0.2c-0.2,0.1-0.3,0.2-0.5,0.3l-1.2,0.5c-0.4,0.2-0.8,0.4-1.2,0.6c-0.7,0.4-1.5,1-1.9,1.7
		c-1.1-0.2-2.1-0.4-3.1-0.6c-1.1-0.3-2.1-0.6-3.1-1.1c-2-0.9-3.8-2.1-5.3-3.6c-0.7-0.8-1.4-1.6-2-2.5c-0.6-0.9-1.1-1.8-1.4-2.8
		c-0.3-0.8-0.5-1.7-0.5-2.5C1.8,109.2,2.1,109.6,2.4,110.1z"/>
</g>
</svg>
