<?xml version="1.0" encoding="utf-8"?>
<!-- Generator: Adobe Illustrator 24.1.2, SVG Export Plug-In . SVG Version: 6.00 Build 0)  -->
<svg version="1.1" id="Layer_1" xmlns="http://www.w3.org/2000/svg" xmlns:xlink="http://www.w3.org/1999/xlink" x="0px" y="0px"
	 viewBox="0 0 128 128" style="enable-background:new 0 0 128 128;" xml:space="preserve">
<style type="text/css">
	.st0{fill:#B7B7B7;}
	.st1{fill:#BCAE95;}
	.st2{fill:#2D2D2D;}
	.st3{fill:#EAE4D6;}
	.st4{fill:#7FA43C;}
	.st5{fill:#936047;}
	.st6{fill:#EDBF7E;}
	.st7{fill:#F99746;}
	.st8{fill:#A08E6B;}
	.st9{fill:#8E634A;}
</style>
<g>
	<g>
		<path class="st0" d="M43.08,119.25c-0.02-0.12-0.04-0.25-0.11-0.36c0.46,0.21,0.92,0.41,1.39,0.61c1.91,0.8,3.88,1.47,5.89,1.97
			c2.01,0.51,4.06,0.85,6.13,0.98c1.03,0.08,2.07,0.06,3.11,0.03c0.52-0.03,1.03-0.06,1.55-0.12c0.14-0.01,0.27-0.03,0.41-0.04
			c0.14-0.01,0.27-0.02,0.41-0.04c0.12-0.01,0.24-0.03,0.36-0.05c0.06-0.01,0.12-0.02,0.18-0.03c0.06-0.02,0.12-0.01,0.19-0.06
			c-0.09,0.01-0.18,0.02-0.28,0.03c-0.08,0.01-0.15,0.01-0.23,0.02c-0.09,0.01-0.18,0.01-0.27,0.02c-0.06,0.01-0.11,0.01-0.17,0.01
			c-0.18,0.01-0.35,0.02-0.52,0.03c-0.48,0.02-0.97,0.01-1.45,0c-0.97-0.03-1.93-0.1-2.89-0.22c-1.92-0.22-3.82-0.61-5.7-1.07
			l-0.71-0.17l-0.7-0.19c-0.47-0.13-0.94-0.24-1.4-0.39l-1.39-0.42c-0.46-0.15-0.91-0.34-1.36-0.52c-0.68-0.28-1.35-0.59-2.02-0.91
			c0.12-0.02,0.23-0.06,0.34-0.11c0.08-0.04,0.15-0.09,0.22-0.15c0.08-0.06,0.13-0.17,0.12-0.27c-0.01-0.11-0.02-0.16-0.01-0.25
			c0-0.08,0.02-0.16,0.03-0.24c0.01-0.03,0.02-0.06,0.02-0.09c0.06,0.13,0.15,0.22,0.26,0.3c0.11,0.08,0.22,0.14,0.36,0.17
			c0.13,0.03,0.3,0.03,0.45-0.08l0,0l0.01-0.01c0.22-0.23,0.51-0.41,0.8-0.58c0.13-0.08,0.25-0.15,0.38-0.22
			c-0.1,0.19-0.17,0.41-0.16,0.65l0.01,0.33l0.28-0.2c0.2-0.14,0.5-0.26,0.78-0.35c0.29-0.1,0.58-0.18,0.87-0.26
			c0.29-0.07,0.59-0.14,0.89-0.18c0.03,0,0.07-0.01,0.1-0.01c-0.21,0.1-0.42,0.2-0.62,0.31l-0.66,0.35
			c-0.22,0.12-0.61,0.44-0.61,0.44c0.31-0.1,0.66-0.12,0.99-0.14c0.34-0.01,0.68,0,1.02,0.01c0.62,0.02,1.23,0.05,1.86,0
			c0.01,0.08,0.05,0.15,0.09,0.19c0.1,0.09,0.2,0.13,0.29,0.17c0.19,0.07,0.38,0.11,0.56,0.15c0.37,0.07,0.74,0.13,1.11,0.18
			c0.18,0.03,0.36,0.06,0.54,0.1c0.17,0.04,0.38,0.09,0.56,0.09c0.12,0,0.24,0,0.35-0.01c-0.46,0.11-0.91,0.27-1.33,0.47
			c-0.01,0-0.01,0.01-0.01,0.02c0,0.01,0.01,0.01,0.02,0.01c0.49-0.19,1-0.33,1.51-0.4c0.51-0.08,1.04-0.1,1.55-0.04
			c0.25,0.03,0.51,0.08,0.74,0.16c0.24,0.09,0.51,0.18,0.77,0.23c0.36,0.07,0.72,0.13,1.09,0.13c-0.04,0.03-0.08,0.06-0.12,0.1
			c-0.18,0.14-0.36,0.29-0.53,0.44l-0.56,0.52l0.73-0.23c0.58-0.18,1.12-0.35,1.7-0.32c0.29,0.01,0.57,0.05,0.86,0.11
			c0.29,0.05,0.55,0.14,0.81,0.27c0.52,0.25,0.99,0.61,1.43,1.01c0.41,0.37,0.82,0.79,1.13,1.23c-0.47,0.5-1.12,0.81-1.77,1.07
			c-0.34,0.15-0.69,0.24-1.06,0.27c-0.36,0.02-0.73-0.02-1.09-0.12l-0.16-0.04l0.1,0.13c0.12,0.16,0.29,0.28,0.47,0.36
			c0.06,0.03,0.12,0.05,0.19,0.07c-0.13,0.01-0.26,0.02-0.38,0.03c-0.25,0.02-0.51,0.02-0.77,0.03c-0.26,0-0.51,0-0.76-0.01
			l-0.38-0.03c-0.11-0.01-0.27-0.03-0.32-0.06l-0.05-0.03l-0.06,0.01c-0.32,0.08-0.68,0.09-1.03,0.09c-0.35,0.01-0.71,0-1.06-0.01
			c-0.71-0.03-1.42-0.08-2.12-0.15l-0.02,0l-0.02,0c-0.17,0.03-0.34,0.06-0.51,0.08c-0.17,0.01-0.35,0.04-0.52,0.03
			c-0.35,0.01-0.69-0.05-1.03-0.12c-0.67-0.17-1.32-0.51-1.8-1.02l0,0c-0.01-0.01-0.02-0.01-0.02,0c-0.01,0.01-0.01,0.02,0,0.02
			c0.19,0.25,0.44,0.46,0.7,0.64l-0.33-0.17c-0.24-0.12-0.46-0.29-0.67-0.47c-0.11-0.09-0.21-0.18-0.31-0.28
			c-0.09-0.1-0.19-0.2-0.25-0.32l0,0c0-0.01-0.01-0.01-0.02-0.01c-0.01,0-0.01,0.01-0.01,0.02c0.04,0.14,0.13,0.26,0.22,0.37
			c0.09,0.11,0.18,0.22,0.28,0.32c0.09,0.1,0.19,0.19,0.29,0.28c-0.42-0.11-0.83-0.29-1.18-0.54c-0.48-0.33-0.9-0.75-1.32-1.18
			l-0.44-0.44l0.13,0.6c0.04,0.2,0.1,0.39,0.18,0.58c0.03,0.08,0.07,0.16,0.11,0.23c-0.12-0.02-0.24-0.04-0.35-0.08
			c-0.23-0.07-0.45-0.16-0.66-0.27c-0.42-0.22-0.82-0.51-1.15-0.85l-0.08-0.08l-0.05,0.1c-0.08,0.16-0.13,0.32-0.17,0.49
			c-0.03-0.09-0.07-0.18-0.12-0.27c-0.08-0.17-0.18-0.33-0.27-0.48c-0.1-0.16-0.2-0.31-0.31-0.46c-0.11-0.15-0.23-0.29-0.37-0.43
			l-0.11-0.1l-0.01,0.15c-0.02,0.27-0.07,0.55-0.15,0.8c-0.03,0.1-0.07,0.2-0.12,0.29c0.02-0.19,0.03-0.38,0.03-0.57
			c0-0.17-0.02-0.34-0.04-0.51c-0.03-0.17-0.07-0.34-0.15-0.52l-0.12-0.25l-0.12,0.25c-0.09,0.19-0.25,0.35-0.45,0.44
			c-0.09,0.04-0.19,0.07-0.29,0.08c0.04-0.03,0.08-0.06,0.11-0.09c0.13-0.12,0.21-0.29,0.25-0.45
			C43.09,119.58,43.1,119.41,43.08,119.25z"/>
		<path class="st1" d="M40.28,116.75c1.67,0.99,3.41,1.85,5.19,2.62c0.45,0.19,0.89,0.39,1.35,0.55l1.38,0.47
			c0.46,0.16,0.93,0.29,1.39,0.43l0.7,0.21l0.71,0.18c1.29,0.34,2.6,0.61,3.92,0.81c-1.54-0.2-3.08-0.51-4.59-0.89
			c-1.99-0.52-3.95-1.16-5.86-1.93c-0.95-0.39-1.9-0.8-2.82-1.25c-0.8-0.39-1.61-0.8-2.38-1.25c0.1,0.01,0.21,0.01,0.31,0.02
			L40.28,116.75z"/>
		<path class="st2" d="M38.9,116.49l-0.41-0.07l0.35,0.23c0.87,0.58,1.78,1.07,2.7,1.54c0.45,0.23,0.9,0.45,1.36,0.66
			c0.07,0.12,0.08,0.27,0.09,0.4c0,0.16-0.02,0.31-0.07,0.45c-0.05,0.14-0.13,0.27-0.24,0.36c-0.11,0.09-0.24,0.15-0.39,0.18
			l-0.31,0.06l0.29,0.13c0.26,0.12,0.55,0.1,0.8,0c0.16-0.07,0.31-0.17,0.42-0.31c0.05,0.21,0.06,0.45,0.07,0.67
			c0,0.32-0.02,0.65-0.09,0.95l-0.06,0.27l0.25-0.11c0.18-0.08,0.28-0.22,0.35-0.36c0.07-0.14,0.12-0.28,0.15-0.42
			c0.05-0.23,0.08-0.46,0.09-0.7c0.09,0.09,0.18,0.18,0.26,0.28c0.11,0.14,0.22,0.29,0.32,0.44c0.1,0.15,0.19,0.31,0.26,0.48
			c0.07,0.16,0.14,0.33,0.16,0.5l0.06,0.44l0.06-0.44c0.03-0.2,0.1-0.41,0.19-0.59c0.31,0.35,0.67,0.65,1.07,0.89
			c0.22,0.13,0.45,0.23,0.69,0.32c0.24,0.09,0.5,0.13,0.75,0.16l0.39,0.05l-0.27-0.31c-0.07-0.08-0.13-0.19-0.18-0.31
			c0.27,0.26,0.56,0.5,0.89,0.7c0.27,0.16,0.55,0.3,0.85,0.39c0.3,0.1,0.61,0.15,0.92,0.16l0.45,0.02c0.02,0.01,0.03,0.02,0.05,0.03
			c0.3,0.19,0.63,0.34,0.98,0.45c0.35,0.09,0.71,0.16,1.07,0.16c0.18,0.02,0.36-0.01,0.54-0.01c0.17-0.01,0.34-0.04,0.52-0.06
			c0.35,0.06,0.7,0.09,1.05,0.12c0.36,0.03,0.71,0.06,1.07,0.08c0.36,0.02,0.72,0.03,1.08,0.03c0.35-0.01,0.69-0.03,1.05-0.11
			c0.15,0.05,0.25,0.05,0.37,0.07c0.13,0.01,0.26,0.01,0.39,0.02c0.26,0,0.52-0.01,0.78-0.02c0.26-0.01,0.52-0.03,0.77-0.06
			c0.26-0.03,0.51-0.06,0.78-0.14l0.45-0.14l-0.47-0.01c-0.29-0.01-0.6-0.11-0.82-0.3c0.3,0.06,0.61,0.1,0.92,0.09
			c0.38-0.01,0.75-0.12,1.1-0.25c0.69-0.25,1.42-0.54,1.97-1.11l0.06-0.06l-0.05-0.07c-0.34-0.55-0.75-0.97-1.19-1.4
			c-0.45-0.41-0.93-0.8-1.48-1.08c-0.27-0.14-0.59-0.25-0.88-0.31c-0.3-0.06-0.61-0.12-0.92-0.12c-0.31-0.01-0.63,0.02-0.93,0.09
			c-0.03,0.01-0.06,0.02-0.09,0.02c0.14-0.11,0.28-0.22,0.42-0.34l0.44-0.4l-0.58,0.11c-0.48,0.09-1.01,0.04-1.51-0.05
			c-0.26-0.05-0.49-0.11-0.75-0.2c-0.27-0.08-0.53-0.12-0.8-0.14c-0.33-0.02-0.67-0.01-0.99,0.02c-0.04,0.01-0.75,0.04-1.11-0.02
			c-0.18-0.02-0.34-0.07-0.53-0.13c-0.18-0.05-0.37-0.1-0.55-0.14c-0.37-0.08-0.73-0.14-1.09-0.22c-0.18-0.04-0.36-0.09-0.51-0.15
			c-0.08-0.03-0.21-0.12-0.18-0.17l0.1-0.27l-0.25,0.04c-0.32,0.05-0.66,0.06-1,0.07l-1.02,0.04c-0.34,0.01-0.69,0.03-1.03,0.06
			c-0.2,0.02-0.4,0.04-0.59,0.07c0.09-0.05,0.18-0.09,0.27-0.14c0.22-0.11,0.44-0.23,0.66-0.33c0.22-0.1,0.45-0.21,0.68-0.29
			c0.22-0.08,0.47-0.16,0.67-0.15c0,0-0.73-0.28-1.85-0.1c-0.31,0.05-0.61,0.15-0.91,0.24c-0.18,0.06-0.36,0.12-0.55,0.2
			c0.02-0.05,0.04-0.11,0.07-0.17l0.14-0.27c0.05-0.1,0.1-0.21,0.11-0.35l0.03-0.43l-0.33,0.29c-0.23,0.2-0.54,0.37-0.84,0.55
			c-0.29,0.19-0.58,0.38-0.83,0.65c-0.08,0.07-0.31,0.03-0.47-0.08c-0.16-0.11-0.28-0.28-0.22-0.44l0.21-0.56l-0.39,0.44
			c-0.15,0.17-0.18,0.34-0.21,0.52c-0.01,0.09-0.02,0.18-0.02,0.27c0,0.08,0.03,0.2,0.04,0.25c0.01,0.07-0.01,0.13-0.06,0.18
			c-0.05,0.06-0.12,0.11-0.19,0.15c-0.11,0.07-0.24,0.13-0.37,0.15c-1.05-0.51-2.09-1.07-3.08-1.69l-0.02-0.01l-0.02,0l-0.7-0.04
			C39.37,116.54,39.13,116.52,38.9,116.49z M43.05,119.75c0.04-0.17,0.05-0.33,0.03-0.5c-0.02-0.12-0.04-0.25-0.11-0.36
			c0.46,0.21,0.92,0.41,1.39,0.61c1.91,0.8,3.88,1.47,5.89,1.97c2.01,0.51,4.06,0.85,6.13,0.98c1.03,0.08,2.07,0.06,3.11,0.03
			c0.52-0.03,1.03-0.06,1.55-0.12c0.14-0.01,0.27-0.03,0.41-0.04c0.14-0.01,0.27-0.02,0.41-0.04c0.12-0.01,0.24-0.03,0.36-0.05
			c0.06-0.01,0.12-0.02,0.18-0.03c0.06-0.02,0.12-0.01,0.19-0.06c-0.09,0.01-0.18,0.02-0.28,0.03c-0.08,0.01-0.15,0.01-0.23,0.02
			c-0.09,0.01-0.18,0.01-0.27,0.02c-0.06,0.01-0.11,0.01-0.17,0.01c-0.18,0.01-0.35,0.02-0.52,0.03c-0.48,0.02-0.97,0.01-1.45,0
			c-0.97-0.03-1.93-0.1-2.89-0.22c-1.92-0.22-3.82-0.61-5.7-1.07l-0.71-0.17l-0.7-0.19c-0.47-0.13-0.94-0.24-1.4-0.39l-1.39-0.42
			c-0.46-0.15-0.91-0.34-1.36-0.52c-0.68-0.28-1.35-0.59-2.02-0.91c0.12-0.02,0.23-0.06,0.34-0.11c0.08-0.04,0.15-0.09,0.22-0.15
			c0.08-0.06,0.13-0.17,0.12-0.27c-0.01-0.11-0.02-0.16-0.01-0.25c0-0.08,0.02-0.16,0.03-0.24c0.01-0.03,0.02-0.06,0.02-0.09
			c0.06,0.13,0.15,0.22,0.26,0.3c0.11,0.08,0.22,0.14,0.36,0.17c0.13,0.03,0.3,0.03,0.45-0.08l0,0l0.01-0.01
			c0.22-0.23,0.51-0.41,0.8-0.58c0.13-0.08,0.25-0.15,0.38-0.22c-0.1,0.19-0.17,0.41-0.16,0.65l0.01,0.33l0.28-0.2
			c0.2-0.14,0.5-0.26,0.78-0.35c0.29-0.1,0.58-0.18,0.87-0.26c0.29-0.07,0.59-0.14,0.89-0.18c0.03,0,0.07-0.01,0.1-0.01
			c-0.21,0.1-0.42,0.2-0.62,0.31l-0.66,0.35c-0.22,0.12-0.61,0.44-0.61,0.44c0.31-0.1,0.66-0.12,0.99-0.14
			c0.34-0.01,0.68,0,1.02,0.01c0.62,0.02,1.23,0.05,1.86,0c0.01,0.08,0.05,0.15,0.09,0.19c0.1,0.09,0.2,0.13,0.29,0.17
			c0.19,0.07,0.38,0.11,0.56,0.15c0.37,0.07,0.74,0.13,1.11,0.18c0.18,0.03,0.36,0.06,0.54,0.1c0.17,0.04,0.38,0.09,0.56,0.09
			c0.12,0,0.24,0,0.35-0.01c-0.46,0.11-0.91,0.27-1.33,0.47c-0.01,0-0.01,0.01-0.01,0.02c0,0.01,0.01,0.01,0.02,0.01
			c0.49-0.19,1-0.33,1.51-0.4c0.51-0.08,1.04-0.1,1.55-0.04c0.25,0.03,0.51,0.08,0.74,0.16c0.24,0.09,0.51,0.18,0.77,0.23
			c0.36,0.07,0.72,0.13,1.09,0.13c-0.04,0.03-0.08,0.06-0.12,0.1c-0.18,0.14-0.36,0.29-0.53,0.44l-0.56,0.52l0.73-0.23
			c0.58-0.18,1.12-0.35,1.7-0.32c0.29,0.01,0.57,0.05,0.86,0.11c0.29,0.05,0.55,0.14,0.81,0.27c0.52,0.25,0.99,0.61,1.43,1.01
			c0.41,0.37,0.82,0.79,1.13,1.23c-0.47,0.5-1.12,0.81-1.77,1.07c-0.34,0.15-0.69,0.24-1.06,0.27c-0.36,0.02-0.73-0.02-1.09-0.12
			l-0.16-0.04l0.1,0.13c0.12,0.16,0.29,0.28,0.47,0.36c0.06,0.03,0.12,0.05,0.19,0.07c-0.13,0.01-0.26,0.02-0.38,0.03
			c-0.25,0.02-0.51,0.02-0.77,0.03c-0.26,0-0.51,0-0.76-0.01l-0.38-0.03c-0.11-0.01-0.27-0.03-0.32-0.06l-0.05-0.03l-0.06,0.01
			c-0.32,0.08-0.68,0.09-1.03,0.09c-0.35,0.01-0.71,0-1.06-0.01c-0.71-0.03-1.42-0.08-2.12-0.15l-0.02,0l-0.02,0
			c-0.17,0.03-0.34,0.06-0.51,0.08c-0.17,0.01-0.35,0.04-0.52,0.03c-0.35,0.01-0.69-0.05-1.03-0.12c-0.67-0.17-1.32-0.51-1.8-1.02
			l0,0c-0.01-0.01-0.02-0.01-0.02,0c-0.01,0.01-0.01,0.02,0,0.02c0.19,0.25,0.44,0.46,0.7,0.64l-0.33-0.17
			c-0.24-0.12-0.46-0.29-0.67-0.47c-0.11-0.09-0.21-0.18-0.31-0.28c-0.09-0.1-0.19-0.2-0.25-0.32l0,0c0-0.01-0.01-0.01-0.02-0.01
			c-0.01,0-0.01,0.01-0.01,0.02c0.04,0.14,0.13,0.26,0.22,0.37c0.09,0.11,0.18,0.22,0.28,0.32c0.09,0.1,0.19,0.19,0.29,0.28
			c-0.42-0.11-0.83-0.29-1.18-0.54c-0.48-0.33-0.9-0.75-1.32-1.18l-0.44-0.44l0.13,0.6c0.04,0.2,0.1,0.39,0.18,0.58
			c0.03,0.08,0.07,0.16,0.11,0.23c-0.12-0.02-0.24-0.04-0.35-0.08c-0.23-0.07-0.45-0.16-0.66-0.27c-0.42-0.22-0.82-0.51-1.15-0.85
			l-0.08-0.08l-0.05,0.1c-0.08,0.16-0.13,0.32-0.17,0.49c-0.03-0.09-0.07-0.18-0.12-0.27c-0.08-0.17-0.18-0.33-0.27-0.48
			c-0.1-0.16-0.2-0.31-0.31-0.46c-0.11-0.15-0.23-0.29-0.37-0.43l-0.11-0.1l-0.01,0.15c-0.02,0.27-0.07,0.55-0.15,0.8
			c-0.03,0.1-0.07,0.2-0.12,0.29c0.02-0.19,0.03-0.38,0.03-0.57c0-0.17-0.02-0.34-0.04-0.51c-0.03-0.17-0.07-0.34-0.15-0.52
			l-0.12-0.25l-0.12,0.25c-0.09,0.19-0.25,0.35-0.45,0.44c-0.09,0.04-0.19,0.07-0.29,0.08c0.04-0.03,0.08-0.06,0.11-0.09
			C42.93,120.08,43.01,119.91,43.05,119.75z M39.28,116.71c0.1,0.01,0.21,0.01,0.31,0.02l0.69,0.02c1.67,0.99,3.41,1.85,5.19,2.62
			c0.45,0.19,0.89,0.39,1.35,0.55l1.38,0.47c0.46,0.16,0.93,0.29,1.39,0.43l0.7,0.21l0.71,0.18c1.29,0.34,2.6,0.61,3.92,0.81
			c-1.54-0.2-3.08-0.51-4.59-0.89c-1.99-0.52-3.95-1.16-5.86-1.93c-0.95-0.39-1.9-0.8-2.82-1.25
			C40.85,117.56,40.05,117.16,39.28,116.71z"/>
	</g>
	<g>
		<path class="st3" d="M27.61,119.02l-7.77-0.45c-0.01,0.18-0.03,0.37-0.04,0.55c-0.06,1.27-0.09,2.54-0.1,3.81l8.01-1.08
			C27.69,121.18,27.63,119.7,27.61,119.02z"/>
		<path class="st4" d="M15.76,96.34c-0.82-5.22-1.63-10.46-2.93-15.57c-0.65-2.55-1.4-5.09-2.34-7.55
			c-0.25-0.61-0.48-1.23-0.74-1.84c-0.25-0.61-0.5-1.22-0.8-1.8c-0.29-0.59-0.62-1.17-0.94-1.74l-0.49-0.87l-0.17-0.31
			c0.18,0.41,0.36,0.79,0.5,1.19l0.64,1.84c0.41,1.23,0.81,2.47,1.15,3.72c0.7,2.5,1.32,5.03,1.83,7.57
			c1.01,5.1,1.73,10.25,2.2,15.42c0.25,2.58,0.41,5.17,0.56,7.76c0.13,2.59,0.23,5.18,0.31,7.77c0.11,3.44,0.17,6.88,0.21,10.32
			c0.16,1.59,0.22,3.2,0.16,4.83l1.47,0.02c-0.02-2.73-0.03-5.47,0.08-8.21c0.1-2.76,0.3-5.54,0.82-8.29
			C17.02,105.81,16.48,101.06,15.76,96.34z"/>
		<path class="st4" d="M13.19,118.3c-0.8-2.99-1.85-5.9-3.11-8.72c-1.26-2.82-2.66-5.59-4.17-8.31c-0.92-1.65-1.87-3.3-2.83-4.94
			c0.58,1.67,1.2,3.34,1.87,4.98c1.11,2.79,2.38,5.53,3.45,8.36c1.1,2.82,1.91,5.75,2.45,8.74c0.52,2.92,0.75,5.89,0.63,8.85
			l2.55,0.12c-0.13-2.36-0.24-4.71-0.34-7.07C13.53,119.64,13.37,118.96,13.19,118.3z"/>
		<path class="st4" d="M22.95,98.58c0.13-0.27,0.27-0.55,0.41-0.83c-0.17,0.29-0.34,0.58-0.5,0.87c-0.69,1.24-1.29,2.52-1.83,3.82
			c-1.08,2.6-1.85,5.31-2.35,8.08c-0.33,1.79-0.56,3.61-0.74,5.44c0.05,1.37,0.1,2.74,0.14,4.12l0.07,1.99l0.03,0.96
			c0,0,0.01,0.03,0.02,0.04l0.04,0.1l0.11,0.21l0.24,0.43l0.66,1.12c0.06-1.94,0.08-3.88,0.08-5.82c-0.01-2.78-0.03-5.59,0.24-8.38
			c0.29-2.79,0.91-5.56,1.8-8.23C21.83,101.16,22.36,99.85,22.95,98.58z"/>
		<path class="st4" d="M18.07,124.1l-0.24-0.44l-0.12-0.23l-0.06-0.13c-0.02-0.05-0.04-0.08-0.06-0.22l0-1l0-1.54
			c-0.13,2.18-0.26,4.37-0.42,6.57l1.99,0.03c0.39-0.01,0.37-0.2,0.38-0.54l-0.49-0.75L18.07,124.1z"/>
		<path class="st5" d="M23.58,96.54c0.23-0.29,0.43-0.55,0.68-0.86c0.27-0.32,0.57-0.57,0.77-0.82l-1.47,3.97
			c-0.46,1.31-0.88,2.62-1.25,3.95c-0.75,2.65-1.25,5.35-1.64,8.08c-0.3,2.02-0.55,4.06-0.72,6.12l7.65,1.22
			c-0.06-2.57-0.12-5.13-0.14-7.7l-0.04-4.24l0.01-4.24l0.11-8.3c-0.92-1.99-1.83-3.98-2.72-5.99l-0.51-1.15l1.22,0.03l2.23,0.05
			l0.17-7.91l-6.81,1.02c0.01,2.2-0.01,4.39-0.03,6.59c-0.05,2.96-0.12,5.91-0.23,8.87c-0.08,1.99-0.19,3.99-0.31,5.98
			c0.54-1,1.13-1.97,1.76-2.92C22.71,97.69,23.14,97.11,23.58,96.54z"/>
		<path class="st6" d="M19.75,127.12c0,0.01,0,0.01,0,0.02h0.01c0,0,0,0,0-0.01C19.75,127.12,19.75,127.12,19.75,127.12z"/>
		<path class="st5" d="M27.7,75.33c0.01-0.43-0.11-4.9-0.13-6.36c-1.26,0.01-1.95,0.02-3.21,0.05l-3.53,0.14
			c0.06,1.55,0.12,3.11,0.18,4.66L27.7,75.33z"/>
		<path class="st3" d="M21.11,77.5c0,0.23,0,0.46,0,0.69l6.94-0.46c0.02-0.5,0.03-1,0.04-1.5l-7.03-0.81
			C21.09,76.11,21.11,76.8,21.11,77.5z"/>
		<path class="st5" d="M30.88,92.1c0.96,0.91,1.89,1.81,2.7,2.75c0.81,0.94,1.43,1.99,2.17,3.03c0.54,0.76,1.15,1.48,1.81,2.16
			c-0.13-1.15-0.28-2.29-0.36-3.44c-1.59-1.18-3.18-2.34-4.65-3.67c-0.77-0.7-1.54-1.41-2.28-2.16c-0.67-0.66-1.32-1.36-1.95-2.07
			c-0.21,0.19-0.43,0.39-0.68,0.63C28.87,90.28,29.89,91.19,30.88,92.1z"/>
		<path class="st7" d="M64.88,88.55L65.31,89c0.52,0.24,1.06,0.43,1.59,0.53c0.52,0.09,1.3,0.2,1.83,0.24
			c0.55,0.03,0.89-0.03,1.47-0.28c0.55-0.23,1.14-0.56,1.73-0.88l0.89-0.48c0.24-0.14,0.47-0.28,0.64-0.44
			c0.33-0.31,0.45-0.56,0.35-1.11c-0.12-0.53-0.45-1.12-0.8-1.68c-0.35-0.57-0.75-1.14-1.09-1.77c-0.17-0.32-0.3-0.67-0.36-1.05
			c-0.05-0.32-0.13-0.61-0.3-0.81c-0.31-0.39-0.86-0.22-1.35,0.1c-0.12,0.08-0.24,0.17-0.36,0.26l-0.17,0.14
			c-0.06,0.05-0.08,0.09-0.2,0.17c-0.38,0.28-0.77,0.44-1.16,0.56c-0.77,0.22-1.53,0.22-2.26,0.15c-0.36-0.03-0.72-0.09-1.08-0.17
			c-0.21-0.04-0.29-0.07-0.35-0.08c-0.07-0.01-0.1-0.01-0.14,0c-0.07,0.01-0.23,0.14-0.33,0.37c-0.11,0.24-0.2,0.53-0.26,0.83
			c-0.12,0.62-0.2,1.28-0.24,1.98c0.12,0.56,0.21,1.13,0.29,1.71l0.02,0.02L64.88,88.55z"/>
		<path class="st8" d="M100.91,13.32c-3.49-4.87-8.6-8.53-14.3-10.45C80.9,0.93,74.73,0.51,68.75,1.05
			c-0.75,0.01-1.49,0.17-2.24,0.27l-2.23,0.33c-0.37,0.04-0.74,0.14-1.1,0.23l-1.09,0.27L59.91,2.7l-2.12,0.74
			c-0.7,0.26-1.43,0.45-2.09,0.8c-1.34,0.65-2.74,1.18-4,1.99C46.51,9.15,42,13.18,38.37,17.91c-0.45,0.59-0.93,1.17-1.36,1.77
			l-1.26,1.85c-0.21,0.31-0.42,0.61-0.62,0.93l-0.57,0.96l-1.15,1.92c-1.41,2.64-2.79,5.3-3.9,8.08c-2.3,5.53-4.06,11.3-5.37,17.18
			c-1.26,5.77-2.22,11.63-2.29,17.54l2.87,0.11c0.72,0.02,0.92,0.03,2,0.05c-0.05-2.75,1.94-13.74,2.44-16.49
			c0.5-2.74,1.08-5.48,1.8-8.18c0.33-1.36,0.75-2.69,1.13-4.04c0.44-1.33,0.83-2.67,1.33-3.98c1.89-5.27,4.34-10.38,7.45-15.1
			c3.15-4.68,7.06-8.99,11.87-12.13c1.16-0.84,2.46-1.48,3.71-2.18c0.64-0.32,1.32-0.58,1.97-0.88l0.99-0.43
			c0.33-0.13,0.68-0.23,1.02-0.35l2.05-0.67c0.7-0.18,1.4-0.33,2.1-0.49l1.05-0.24c0.35-0.08,0.71-0.1,1.06-0.16l2.14-0.28
			c0.71-0.1,1.43-0.08,2.15-0.12c0.72-0.02,1.43-0.08,2.15-0.06l2.14,0.07c0.71,0.04,1.43,0.13,2.14,0.19
			c2.84,0.32,5.67,0.92,8.37,1.89c5.42,1.92,10.31,5.34,13.86,9.82c1.8,2.21,3.29,4.66,4.51,7.22c0.99,2.09,1.77,4.24,2.33,6.48
			c0.08-0.06,0.16-0.11,0.24-0.17c-0.32-2.29-0.91-4.59-1.7-6.78C104.03,18.44,102.67,15.75,100.91,13.32z"/>
		<path class="st5" d="M57.1,91.55l-11.23,5.76l-4.42,2.25l-2.21,1.12l-0.28,0.14l-0.02,0.01c0,0.01-0.01,0.02-0.01,0.04
			c-0.02,0.17-0.02,0.38-0.02,0.58l-0.01,0.32c-0.01,0.12,0,0.21-0.08,0.4c-0.01,0.02-0.03,0.06-0.06,0.09
			c-0.05,0.05-0.1,0.07-0.13,0.08c-0.07,0.02-0.11,0.02-0.15,0.02c-0.07,0-0.13-0.01-0.19-0.02c-0.11-0.02-0.22-0.04-0.32-0.06
			c-0.41-0.09-0.81-0.21-1.19-0.28c-0.05-0.02-0.15-0.02-0.17-0.02l-0.27,0.14l-0.55,0.28l-6.31,3.85l-0.04,4.24
			c0,0.61,0.02,0.63,0.01,1.24c5.5-4.18,11.09-7.56,16.76-11.49l4.42-3.01l4.46-2.95l2.13-1.39l-0.01-0.04
			C57.16,92.43,57.13,91.99,57.1,91.55z"/>
		<path class="st5" d="M19.75,124.37c0,0-0.04,0.79-0.03,1.36l0.38,0.67c0.08,0.15,0.16,0.3,0.23,0.46
			c0.04,0.08,0.07,0.16,0.11,0.25c0.02,0.08,0.06,0.13,0.07,0.24c1.28-0.09,2.56-0.15,3.84-0.22c1.18-0.07,2.36-0.12,3.54-0.17
			c-0.05-1.17-0.05-3.01-0.1-4.18L19.75,124.37z"/>
		<path class="st9" d="M62.75,88.8l-0.08-0.11l-4.19,2.15c-0.01,0.41,0,0.82,0,1.23l4.55-2.96C62.94,89.01,62.84,88.91,62.75,88.8z"
			/>
		<path class="st2" d="M105.94,20.91c-1.11-2.85-2.58-5.57-4.44-8.01c-0.9-1.24-1.93-2.38-3-3.47c-1.11-1.05-2.26-2.07-3.52-2.95
			c-2.5-1.79-5.27-3.16-8.16-4.17C81,0.33,74.79-0.25,68.68,0.09c-0.77-0.01-1.53,0.13-2.29,0.21l-2.29,0.27
			c-0.38,0.03-0.76,0.12-1.14,0.2l-1.13,0.24L59.57,1.5l-2.21,0.7c-0.73,0.25-1.49,0.43-2.19,0.76c-1.41,0.63-2.88,1.14-4.21,1.94
			L48.93,6L47,7.3c-1.32,0.82-2.46,1.86-3.68,2.82c-0.6,0.48-1.12,1.06-1.69,1.58l-0.83,0.8c-0.28,0.26-0.55,0.54-0.8,0.83
			c-1.02,1.16-2.09,2.27-2.98,3.52c-0.46,0.61-0.95,1.21-1.39,1.84l-1.28,1.92c-0.21,0.32-0.43,0.64-0.63,0.96l-0.58,0.99
			l-1.16,1.98c-1.43,2.7-2.77,5.46-3.86,8.31c-0.59,1.41-1.06,2.86-1.58,4.29c-0.24,0.72-0.45,1.45-0.68,2.18
			c-0.23,0.73-0.45,1.45-0.64,2.19c-0.84,2.92-1.48,5.9-2.07,8.87c-0.59,2.98-1,5.98-1.32,9c-0.31,2.9-1.14,5.78-1.16,8.7
			c-0.5-0.01-0.92,0.37-0.94,0.87c-0.08,1.88-0.25,6.25-0.28,8.53c-0.05,2.96-0.01,5.91,0.02,8.87c0.05,2.96,0.12,5.91,0.23,8.87
			c0.09,2.32,0.22,4.63,0.37,6.95c-1.06,2.14-1.85,4.42-2.4,6.74c-0.19-4.24-0.42-8.48-0.88-12.71c-0.29-2.65-0.68-5.28-1.17-7.9
			c-0.5-2.62-1.06-5.23-1.8-7.8c-0.71-2.58-1.63-5.09-2.68-7.55c-0.54-1.22-1.09-2.43-1.78-3.6c-0.34-0.58-0.71-1.14-1.08-1.69
			l-0.56-0.83l-0.28-0.41l-0.15-0.22C7.22,66.12,7.13,66.05,7.08,66c0.17,0.58,0.31,1.28,0.52,1.94l0.52,1.87
			c0.33,1.25,0.63,2.5,0.93,3.76c0.58,2.51,1.06,5.05,1.48,7.59c0.86,5.08,1.39,10.22,1.82,15.36c0.2,2.57,0.4,5.14,0.55,7.72
			c0.17,2.58,0.31,5.16,0.43,7.74c0.05,1.08,0.1,2.16,0.14,3.23c-0.58-2.1-1.3-4.16-2.15-6.16c-1.24-2.91-2.76-5.68-4.36-8.38
			c-1.6-2.71-3.32-5.33-5.08-7.92L0,89.98l1.2,3.09c1.09,2.81,2.29,5.57,3.37,8.38c1.1,2.8,2.04,5.66,2.91,8.52
			c0.84,2.87,1.69,5.73,2.3,8.64c0.63,2.91,1.03,5.86,1.24,8.85l0.02,0.22l0.2-0.01c0.95-0.03,2.8,0.19,2.8,0.19l0.38-0.01
			l2.22-0.03l0.1,0c0.35,0.01,0.72,0,1.08-0.02l1.21-0.02c0.03,0,0.06,0,0.09,0l1.07-0.02l0.33,0l-0.01-0.2
			c1.28,0.09,2.55,0.15,3.83,0.22c1.36,0.08,2.72,0.14,4.09,0.19l0.5,0.02l0.02-0.54c0.12-2.83,0.23-5.66,0.3-8.48
			c0.05-2.12,0.1-3.53,0.13-5.66c6-3.53,26.57-17.72,26.57-17.72l1.48-1.03l0.05,0.34c0.5,2.71,1.41,5.33,2.64,7.78
			c1.23,2.44,2.86,4.71,4.93,6.54c1.02,0.93,2.19,1.7,3.45,2.3c1.26,0.61,2.68,0.92,4.1,0.97c1.4,0.03,2.8-0.16,4.18-0.52
			c1.38-0.35,2.67-1.01,3.87-1.79c2.34-1.68,4.05-4.1,5.14-6.69c1.08-2.61,1.6-5.37,1.9-8.11c0.18-1.37,0.21-2.75,0.26-4.12
			c0.05-0.68-0.03-1.39-0.05-2.08l-0.05-1.04l-0.03-0.52l-0.08-0.52c-0.3-2.78-1.1-5.49-2.16-8.06c-1.07-2.58-2.58-4.95-4.26-7.14
			c-1.72-2.17-3.66-4.17-5.83-5.87c-0.54-0.43-1.1-0.84-1.65-1.24l-0.1-0.07l-0.05-0.04c-0.01-0.01,0,0,0,0
			c0.01,0.02-0.03,0.05,0,0.09c-0.02-0.1-0.06-0.29-0.08-0.44l-0.16-0.99l-0.43-4.3c0.08-0.43-0.06-0.9,0.02-1.33l0,0l0.16-1.64
			c1.97-1.7,3.96-3.37,6.01-4.97c1.61-1.27,3.27-2.5,4.92-3.72l4.95-3.69c3.26-2.51,6.41-5.15,9.53-7.83
			c2.35-2.02,4.67-4.07,6.94-6.19c0,0,0,0,0,0c0.12,0.5,0.57,0.86,1.09,0.85l0.25,0c0.69-0.01,1.21-0.63,1.08-1.31
			C107.58,27.09,106.74,22.99,105.94,20.91z M24.36,69.01c1.26-0.03,1.95-0.04,3.21-0.05c0.02,1.46,0.14,5.93,0.13,6.36l-6.69-1.52
			c-0.06-1.55-0.12-3.11-0.18-4.66L24.36,69.01z M28.06,77.72l-6.94,0.46c0-0.23,0-0.46,0-0.69c-0.01-0.69-0.03-1.39-0.05-2.08
			l7.03,0.81C28.09,76.72,28.08,77.22,28.06,77.72z M28.34,88.7c0.63,0.71,1.28,1.4,1.95,2.07c0.74,0.74,1.5,1.46,2.28,2.16
			c1.46,1.33,3.06,2.49,4.65,3.67c0.08,1.15,0.23,2.29,0.36,3.44c-0.66-0.68-1.28-1.4-1.81-2.16c-0.74-1.03-1.36-2.09-2.17-3.03
			c-0.81-0.94-1.74-1.84-2.7-2.75c-0.99-0.91-2.01-1.82-3.22-2.77C27.91,89.09,28.13,88.89,28.34,88.7z M20.86,95.23
			c0.11-2.96,0.18-5.91,0.23-8.87c0.02-2.2,0.04-4.39,0.03-6.59l6.81-1.02l-0.17,7.91l-2.23-0.05l-1.22-0.03l0.51,1.15
			c0.89,2,1.8,4,2.72,5.99l-0.11,8.3l-0.01,4.24l0.04,4.24c0.02,2.57,0.08,5.13,0.14,7.7l-7.65-1.22c0.17-2.05,0.42-4.09,0.72-6.12
			c0.39-2.73,0.9-5.43,1.64-8.08c0.37-1.33,0.79-2.64,1.25-3.95l1.47-3.97c-0.2,0.25-0.5,0.5-0.77,0.82
			c-0.26,0.31-0.45,0.57-0.68,0.86c-0.44,0.57-0.87,1.15-1.27,1.75c-0.63,0.94-1.22,1.91-1.76,2.92
			C20.67,99.22,20.78,97.22,20.86,95.23z M11.47,127.25c0.13-2.95-0.11-5.93-0.63-8.85c-0.54-2.99-1.35-5.92-2.45-8.74
			c-1.07-2.83-2.34-5.57-3.45-8.36C4.28,99.66,3.66,98,3.07,96.32c0.95,1.64,1.9,3.29,2.83,4.94c1.51,2.72,2.92,5.49,4.17,8.31
			c1.26,2.82,2.31,5.73,3.11,8.72c0.18,0.67,0.34,1.34,0.5,2.02c0.1,2.35,0.21,4.71,0.34,7.07L11.47,127.25z M16.48,118.87
			c-0.11,2.75-0.1,5.48-0.08,8.21l-1.47-0.02c0.06-1.63,0-3.23-0.16-4.83c-0.05-3.44-0.11-6.88-0.21-10.32
			c-0.08-2.59-0.18-5.18-0.31-7.77c-0.15-2.59-0.31-5.18-0.56-7.76c-0.47-5.17-1.2-10.32-2.2-15.42c-0.51-2.55-1.13-5.07-1.83-7.57
			c-0.35-1.25-0.75-2.49-1.15-3.72l-0.64-1.84c-0.14-0.4-0.32-0.78-0.5-1.19l0.17,0.31l0.49,0.87c0.33,0.58,0.65,1.16,0.94,1.74
			c0.3,0.58,0.55,1.19,0.8,1.8c0.26,0.61,0.49,1.22,0.74,1.84c0.94,2.47,1.68,5,2.34,7.55c1.3,5.11,2.11,10.34,2.93,15.57
			c0.71,4.72,1.25,9.47,1.54,14.25C16.78,113.33,16.58,116.11,16.48,118.87z M19.17,127.12l-1.99-0.03
			c0.17-2.19,0.29-4.38,0.42-6.57l0,1.54l0,1c0.02,0.14,0.04,0.17,0.06,0.22l0.06,0.13l0.12,0.23l0.24,0.44l0.99,1.73l0.49,0.75
			C19.54,126.93,19.55,127.12,19.17,127.12z M19.34,119.11c0,1.94-0.02,3.88-0.08,5.82l-0.66-1.12l-0.24-0.43l-0.11-0.21l-0.04-0.1
			c-0.01-0.01-0.01-0.04-0.02-0.04l-0.03-0.96l-0.07-1.99c-0.03-1.37-0.08-2.75-0.14-4.12c0.18-1.83,0.41-3.64,0.74-5.44
			c0.5-2.77,1.27-5.47,2.35-8.08c0.54-1.3,1.14-2.58,1.83-3.82c0.16-0.29,0.33-0.58,0.5-0.87c-0.14,0.28-0.28,0.56-0.41,0.83
			c-0.59,1.27-1.12,2.58-1.57,3.91c-0.89,2.67-1.5,5.44-1.8,8.23C19.31,113.52,19.33,116.32,19.34,119.11z M19.8,119.12
			c0.01-0.18,0.03-0.37,0.04-0.55l7.77,0.45c0.02,0.68,0.08,2.16,0.1,2.84l-8.01,1.08C19.71,121.66,19.74,120.39,19.8,119.12z
			 M19.75,127.13c0-0.01,0-0.01,0-0.02C19.75,127.12,19.75,127.12,19.75,127.13C19.75,127.13,19.76,127.13,19.75,127.13
			L19.75,127.13z M24.36,127.13c-1.28,0.07-2.56,0.14-3.84,0.22c-0.02-0.12-0.05-0.17-0.07-0.24c-0.04-0.09-0.07-0.17-0.11-0.25
			c-0.08-0.16-0.15-0.31-0.23-0.46l-0.38-0.67c-0.01-0.57,0.03-1.36,0.03-1.36l8.06-1.59c0.04,1.17,0.05,3.01,0.1,4.18
			C26.72,127.01,25.54,127.06,24.36,127.13z M29.36,93.52l0-0.21l-0.09-0.17c-0.82-1.67-1.66-3.33-2.5-4.99L28,88.11
			c-0.22,0.44-0.39,0.88-0.53,1.23c0.54,1,1.26,2.03,2.01,3.07c0.78,1.03,1.6,2.08,2.53,3.09c0.93,1,2.06,1.9,3.06,2.81
			c1.01,0.91,1.88,1.89,2.69,2.94l0.46,0.6c-0.05-0.01-0.1-0.02-0.15-0.03c-0.4-0.09-0.79-0.2-1.22-0.28
			c-0.05-0.01-0.11-0.02-0.18-0.02c-0.06,0-0.15-0.02-0.27,0.05l-0.27,0.15l-6.65,3.01l-0.01-2.73L29.36,93.52z M55.08,94.29
			l-4.46,2.95l-4.42,3.01c-5.67,3.93-11.26,7.31-16.76,11.49c0.01-0.61-0.01-0.63-0.01-1.24l0.04-4.24l6.31-3.85l0.55-0.28
			l0.27-0.14c0.02,0,0.12,0,0.17,0.02c0.38,0.07,0.78,0.19,1.19,0.28c0.1,0.02,0.21,0.05,0.32,0.06c0.06,0.01,0.12,0.02,0.19,0.02
			c0.04,0,0.08,0,0.15-0.02c0.03-0.01,0.08-0.03,0.13-0.08c0.03-0.03,0.05-0.07,0.06-0.09c0.08-0.19,0.06-0.28,0.08-0.4l0.01-0.32
			c0-0.2,0-0.41,0.02-0.58c0-0.01,0-0.03,0.01-0.04l0.02-0.01l0.28-0.14l2.21-1.12l4.42-2.25l11.23-5.76
			c0.03,0.44,0.06,0.87,0.1,1.31l0.01,0.04L55.08,94.29z M57.06,86.68c-0.07,1.24-0.07,2.47-0.02,3.7l-11.52,6.26l-4.35,2.38
			L39,100.23l-0.27,0.15l-0.07,0.04l-0.02,0.01c-0.03,0.02-0.05,0.04-0.07,0.06c-0.03,0.03-0.05,0.07-0.06,0.09
			c-0.05,0.1-0.05,0.16-0.06,0.23c-0.03,0.24-0.02,0.44-0.02,0.65l0,0.3c0,0.04-0.01,0.09-0.01,0.13c-0.02,0-0.03,0-0.05,0
			c-0.01,0-0.03-0.01-0.04-0.01l0.07-0.86c0.14-1.62,0.42-3.24,0.49-4.86l0.02-0.36l-0.33-0.3c-1.54-1.41-3.07-2.84-4.74-4.09
			c-0.78-0.59-1.57-1.16-2.38-1.71c6.69-4.68,13.15-9.64,19.52-14.72c3.21-2.58,6.34-5.23,9.49-7.88c3.15-2.64,6.26-5.34,9.33-8.08
			c0.79-0.7,1.59-1.4,2.39-2.09l0.01,0.58c0,0.24,0.03,0.34,0.21,0.37c-0.07,0.48-0.14,0.96-0.21,1.43l0,0.02l0,0.05
			c0.05,0.94,0.11,1.88,0.18,2.82c-0.05,0.63-0.08,1.29-0.16,1.88c-0.21,1.26-0.93,2.38-1.9,3.12c-0.49,0.39-1.04,0.61-1.68,0.93
			l-0.93,0.46l-0.9,0.52c-0.61,0.33-1.17,0.75-1.76,1.14c-0.56,0.42-1.12,0.85-1.63,1.33c-1.05,0.94-1.96,2.03-2.77,3.19
			c-0.76,1.19-1.45,2.44-1.92,3.76C57.66,81.16,57.21,83.94,57.06,86.68z M58.48,90.85l4.19-2.15l0.08,0.11
			c0.09,0.11,0.19,0.21,0.28,0.32l-4.55,2.96C58.47,91.67,58.47,91.26,58.48,90.85z M73.16,65.68c0.52,0.43,1.03,0.85,1.52,1.3
			c1.96,1.8,3.75,3.77,5.29,5.92c1.54,2.14,2.85,4.44,3.82,6.87c0.27,0.6,0.44,1.23,0.66,1.84c0.1,0.31,0.22,0.62,0.31,0.93
			l0.23,0.95l0.23,0.95c0.08,0.32,0.17,0.63,0.21,0.95l0.3,1.93l0.07,0.48l0.03,0.49l0.05,0.98l0.05,0.98
			c0.03,0.32,0.04,0.65,0.03,0.98c-0.02,1.32-0.02,2.65-0.16,3.96c-0.22,2.62-0.67,5.23-1.6,7.65c-0.91,2.42-2.35,4.62-4.36,6.21
			c-1.02,0.76-2.14,1.43-3.38,1.82c-1.23,0.4-2.53,0.66-3.85,0.7c-1.29,0.02-2.59-0.18-3.81-0.7c-1.19-0.54-2.36-1.21-3.34-2.11
			c-2.02-1.73-3.61-3.96-4.71-6.38c-1.13-2.42-1.77-5.03-2.1-7.66c-0.04-0.31-0.07-0.62-0.09-0.93l5.42-3.75
			c0.71,0.57,1.51,1.03,2.41,1.34c0.38,0.12,0.76,0.2,1.08,0.26c0.35,0.06,0.69,0.13,1.1,0.16c0.4,0.03,0.86,0.02,1.3-0.08
			c0.45-0.1,0.83-0.27,1.17-0.44c0.68-0.35,1.25-0.73,1.82-1.11l0.85-0.57c0.33-0.22,0.65-0.48,0.94-0.83
			c0.29-0.34,0.53-0.81,0.58-1.31c0.06-0.5-0.07-0.97-0.25-1.34c-0.36-0.74-0.86-1.25-1.32-1.76c-0.46-0.51-0.91-1-1.24-1.55
			c-0.15-0.27-0.29-0.56-0.32-0.84c-0.05-0.35-0.11-0.73-0.33-1.1c-0.2-0.38-0.68-0.66-1.12-0.7c-0.44-0.05-0.85,0.03-1.22,0.13
			c-0.19,0.05-0.37,0.12-0.55,0.19l-0.27,0.12c-0.08,0.04-0.19,0.1-0.23,0.11c-0.19,0.08-0.47,0.12-0.74,0.16
			c-0.56,0.06-1.17,0.08-1.79,0.05c-0.31-0.02-0.63-0.03-0.95-0.07c-0.13,0-0.38-0.05-0.66-0.02c-0.27,0.02-0.57,0.11-0.83,0.27
			c-0.53,0.35-0.7,0.86-0.79,1.26c-0.09,0.41-0.08,0.79-0.05,1.16c0.07,0.73,0.26,1.43,0.58,2.04c-0.14,0.56-0.26,1.1-0.36,1.64
			l-4.3,2.34c0.04-0.93,0.11-1.85,0.18-2.78c0.12-1.32,0.3-2.62,0.54-3.91c0.28-1.28,0.57-2.55,1.04-3.76
			c0.42-1.23,1.04-2.37,1.69-3.48c0.7-1.08,1.5-2.1,2.44-3.01c0.22-0.24,0.48-0.44,0.72-0.66c0.25-0.21,0.48-0.44,0.74-0.64
			c0.53-0.39,1.03-0.82,1.59-1.16l0.83-0.54l0.86-0.5c0.54-0.32,1.25-0.67,1.79-1.17c0.85-0.74,1.45-1.74,1.73-2.8
			c0.06,0.12,0.16,0.21,0.25,0.3L73.16,65.68z M63.37,85.58c0.04-0.7,0.11-1.36,0.24-1.98c0.06-0.31,0.16-0.6,0.26-0.83
			c0.11-0.24,0.27-0.37,0.33-0.37c0.04-0.01,0.07,0,0.14,0c0.06,0,0.14,0.04,0.35,0.08c0.35,0.07,0.71,0.13,1.08,0.17
			c0.73,0.07,1.49,0.07,2.26-0.15c0.39-0.11,0.77-0.27,1.16-0.56c0.11-0.08,0.14-0.12,0.2-0.17l0.17-0.14
			c0.12-0.09,0.24-0.18,0.36-0.26c0.5-0.32,1.04-0.49,1.35-0.1c0.17,0.19,0.25,0.49,0.3,0.81c0.06,0.39,0.2,0.73,0.36,1.05
			c0.33,0.64,0.73,1.2,1.09,1.77c0.35,0.57,0.68,1.15,0.8,1.68c0.1,0.55-0.02,0.8-0.35,1.11c-0.17,0.16-0.4,0.3-0.64,0.44
			l-0.89,0.48c-0.59,0.31-1.18,0.64-1.73,0.88c-0.58,0.24-0.92,0.31-1.47,0.28c-0.53-0.04-1.31-0.15-1.83-0.24
			c-0.53-0.1-1.07-0.29-1.59-0.53l-0.43-0.45l-1.2-1.25l-0.02-0.02C63.58,86.71,63.49,86.14,63.37,85.58z M97.68,34.68
			c-3.26,2.51-6.48,5.06-9.6,7.75l-4.62,4.1c-1.53,1.37-3.07,2.74-4.64,4.07c-1.83,1.54-3.7,3.04-5.6,4.5
			c-0.03-0.07-0.08-0.12-0.13-0.17c0.01-0.14,0.01-0.29,0.02-0.43c0-0.05-0.03-0.09-0.08-0.1c-0.05-0.01-0.1,0.03-0.11,0.08
			c-0.02,0.11-0.04,0.23-0.05,0.34c-0.04-0.01-0.08-0.02-0.12-0.02l-0.07,0.15c-0.29,0-0.53,0.23-0.53,0.52l0.01,0.46
			c-1.01,0.77-2.02,1.54-3.04,2.3c-3.31,2.45-6.58,4.95-9.81,7.5c-3.23,2.55-6.47,5.08-9.64,7.7c-6.28,5.21-12.45,10.55-18.4,16.16
			c-0.76-0.52-1.54-1.01-2.34-1.48l0.27-0.01l-0.02-0.7l-0.32-9.38c-0.06-1.56-0.07-3.13-0.09-4.69c-0.01-1.05,0-2.95,0-4.08
			c0-0.51-0.41-0.92-0.92-0.92l-0.01,0c0.25-5.5,1.13-10.96,2.28-16.32c0.58-2.71,1.25-5.39,2.04-8.04
			c0.37-1.33,0.83-2.64,1.25-3.95c0.47-1.3,0.91-2.61,1.42-3.88c1.96-5.15,4.46-10.09,7.56-14.61c3.16-4.45,6.92-8.54,11.5-11.46
			c4.51-3.02,9.79-4.76,15.19-5.33c0.67-0.1,1.36-0.08,2.04-0.13c0.68-0.02,1.36-0.09,2.04-0.08l2.05,0.05
			c0.68,0.03,1.36,0.11,2.04,0.16c2.71,0.27,5.39,0.82,7.96,1.7c5.14,1.75,9.74,4.93,13.22,9.11c1.76,2.07,3.23,4.38,4.45,6.82
			c1.05,2.11,1.95,4.36,2.55,6.62C102.78,30.81,100.21,32.73,97.68,34.68z M106.51,28.19c-0.56-2.25-1.35-4.4-2.33-6.48
			c-1.22-2.56-2.71-5-4.51-7.22c-3.55-4.48-8.44-7.91-13.86-9.82c-2.71-0.97-5.53-1.57-8.37-1.89c-0.71-0.06-1.42-0.15-2.14-0.19
			l-2.14-0.07c-0.71-0.02-1.43,0.04-2.15,0.06c-0.72,0.04-1.43,0.02-2.15,0.12l-2.14,0.28c-0.35,0.05-0.71,0.08-1.06,0.16
			l-1.05,0.24c-0.7,0.16-1.4,0.31-2.1,0.49l-2.05,0.67c-0.34,0.12-0.69,0.22-1.02,0.35l-0.99,0.43c-0.66,0.29-1.33,0.56-1.97,0.88
			c-1.25,0.71-2.55,1.34-3.71,2.18c-4.82,3.15-8.72,7.45-11.87,12.13c-3.11,4.73-5.55,9.83-7.45,15.1c-0.51,1.31-0.9,2.65-1.33,3.98
			c-0.38,1.35-0.8,2.68-1.13,4.04c-0.72,2.7-1.3,5.43-1.8,8.18c-0.5,2.74-2.49,13.74-2.44,16.49c-1.09-0.01-1.28-0.03-2-0.05
			l-2.87-0.11c0.07-5.91,1.03-11.77,2.29-17.54c1.31-5.87,3.06-11.64,5.37-17.18c1.11-2.79,2.49-5.45,3.9-8.08l1.15-1.92l0.57-0.96
			c0.2-0.31,0.42-0.62,0.62-0.93l1.26-1.85c0.43-0.61,0.91-1.18,1.36-1.77C42,13.18,46.51,9.15,51.7,6.23
			c1.26-0.81,2.66-1.34,4-1.99c0.66-0.34,1.39-0.54,2.09-0.8l2.12-0.74l2.18-0.54l1.09-0.27c0.36-0.09,0.73-0.19,1.1-0.23l2.23-0.33
			c0.74-0.1,1.48-0.26,2.24-0.27c5.99-0.54,12.15-0.12,17.86,1.83c5.71,1.92,10.82,5.58,14.3,10.45c1.75,2.43,3.12,5.12,4.13,7.92
			c0.79,2.19,1.38,4.49,1.7,6.78C106.67,28.08,106.59,28.14,106.51,28.19z"/>
	</g>
	<g>
		<path class="st0" d="M121.06,117.8c0.02-0.2,0.04-0.4,0.13-0.59c-0.7,0.39-1.41,0.77-2.13,1.13c-2.94,1.5-5.98,2.8-9.11,3.84
			c-3.13,1.05-6.35,1.83-9.61,2.29c-1.63,0.25-3.28,0.35-4.93,0.42c-0.82,0.02-1.65,0.03-2.47-0.01c-0.22,0-0.44-0.01-0.65-0.02
			c-0.22,0-0.44-0.01-0.66-0.02c-0.19-0.01-0.39-0.03-0.58-0.04c-0.1-0.01-0.19-0.02-0.29-0.03c-0.09-0.02-0.19,0-0.31-0.07
			c0.15,0.01,0.29,0.01,0.44,0.01c0.12,0,0.24,0,0.37,0c0.14,0,0.28,0,0.43,0c0.09,0,0.18,0,0.27,0c0.28,0,0.56,0,0.84-0.02
			c0.77-0.03,1.54-0.1,2.3-0.17c1.53-0.16,3.06-0.39,4.56-0.7c3.03-0.58,5.99-1.42,8.92-2.38l1.1-0.36l1.09-0.38
			c0.72-0.26,1.46-0.5,2.18-0.78l2.16-0.84c0.71-0.29,1.4-0.64,2.09-0.99c1.05-0.53,2.08-1.1,3.09-1.69
			c-0.19-0.01-0.38-0.06-0.55-0.14c-0.13-0.05-0.25-0.12-0.37-0.21c-0.13-0.08-0.22-0.25-0.23-0.41c0-0.18,0.01-0.26-0.01-0.39
			c-0.02-0.12-0.04-0.25-0.08-0.37c-0.01-0.05-0.03-0.09-0.05-0.14c-0.08,0.21-0.22,0.38-0.37,0.51c-0.16,0.14-0.34,0.24-0.55,0.31
			c-0.2,0.06-0.47,0.09-0.72-0.07l-0.01-0.01l-0.02-0.02c-0.38-0.34-0.86-0.58-1.34-0.82c-0.21-0.11-0.42-0.2-0.63-0.31
			c0.17,0.28,0.32,0.64,0.34,1.01l0.02,0.53l-0.46-0.28c-0.33-0.2-0.83-0.35-1.28-0.47c-0.46-0.12-0.94-0.22-1.41-0.3
			c-0.48-0.08-0.95-0.15-1.43-0.18c-0.06,0-0.11-0.01-0.17-0.01c0.35,0.13,0.69,0.27,1.02,0.42l1.08,0.48
			c0.36,0.16,1.03,0.63,1.03,0.63c-0.51-0.12-1.06-0.12-1.59-0.1c-0.54,0.03-1.08,0.09-1.62,0.15c-0.97,0.11-1.94,0.23-2.95,0.22
			c-0.01,0.13-0.06,0.24-0.13,0.32c-0.15,0.16-0.3,0.23-0.44,0.31c-0.29,0.14-0.58,0.22-0.87,0.31c-0.58,0.16-1.16,0.3-1.73,0.42
			c-0.29,0.07-0.57,0.14-0.85,0.22c-0.27,0.09-0.59,0.18-0.88,0.22c-0.19,0.02-0.37,0.03-0.56,0.03c0.74,0.12,1.47,0.32,2.17,0.59
			c0.01,0.01,0.02,0.02,0.02,0.03c0,0.01-0.02,0.02-0.03,0.02c-0.8-0.24-1.62-0.4-2.45-0.46c-0.82-0.06-1.66-0.03-2.46,0.13
			c-0.4,0.08-0.8,0.19-1.16,0.34c-0.37,0.18-0.79,0.34-1.19,0.46c-0.56,0.16-1.12,0.29-1.71,0.34c0.07,0.04,0.13,0.09,0.2,0.14
			c0.31,0.19,0.61,0.42,0.9,0.64l0.95,0.76l-1.18-0.28c-0.95-0.22-1.83-0.42-2.74-0.3c-0.45,0.05-0.9,0.14-1.35,0.27
			c-0.46,0.12-0.85,0.29-1.25,0.52c-0.79,0.46-1.5,1.09-2.15,1.77c-0.6,0.64-1.21,1.35-1.64,2.08c0.8,0.73,1.87,1.15,2.93,1.49
			c0.55,0.2,1.13,0.3,1.71,0.29c0.58-0.01,1.16-0.13,1.71-0.33l0.24-0.09l-0.14,0.22c-0.17,0.27-0.42,0.48-0.7,0.63
			c-0.09,0.05-0.19,0.09-0.29,0.13c0.2,0.01,0.41,0.01,0.61,0c0.41-0.01,0.81-0.02,1.22-0.05c0.41-0.03,0.81-0.06,1.21-0.11
			l0.59-0.09c0.18-0.03,0.42-0.08,0.5-0.13l0.08-0.05l0.09,0.01c0.51,0.08,1.08,0.06,1.64,0.03c0.56-0.03,1.12-0.08,1.68-0.15
			c1.12-0.13,2.24-0.3,3.34-0.5l0.03-0.01l0.03,0c0.27,0.02,0.55,0.05,0.83,0.06c0.27-0.01,0.55,0.02,0.83-0.02
			c0.55-0.03,1.09-0.15,1.62-0.32c1.04-0.34,2.03-0.96,2.73-1.83l0,0c0.01-0.01,0.03-0.01,0.04,0c0.01,0.01,0.01,0.02,0.01,0.04
			c-0.28,0.42-0.64,0.78-1.03,1.09l0.51-0.3c0.36-0.21,0.69-0.52,1.01-0.82c0.16-0.15,0.31-0.31,0.45-0.48
			c0.14-0.17,0.28-0.34,0.36-0.54l0,0c0-0.01,0.02-0.02,0.03-0.02c0.01,0,0.02,0.02,0.02,0.03c-0.05,0.23-0.18,0.43-0.3,0.61
			c-0.13,0.19-0.26,0.37-0.41,0.54c-0.14,0.16-0.28,0.32-0.43,0.47c0.66-0.22,1.28-0.56,1.81-1c0.72-0.58,1.33-1.3,1.95-2.03
			l0.64-0.75l-0.14,0.97c-0.05,0.32-0.11,0.63-0.22,0.94c-0.05,0.13-0.1,0.26-0.15,0.38c0.19-0.04,0.37-0.1,0.55-0.17
			c0.35-0.13,0.69-0.3,1.01-0.51c0.65-0.4,1.24-0.91,1.72-1.49l0.12-0.14l0.09,0.15c0.15,0.24,0.25,0.49,0.33,0.75
			c0.04-0.15,0.09-0.3,0.15-0.45c0.11-0.27,0.24-0.54,0.37-0.8c0.14-0.26,0.28-0.51,0.44-0.77c0.16-0.25,0.32-0.49,0.54-0.72
			l0.16-0.17l0.04,0.24c0.07,0.43,0.18,0.86,0.34,1.26c0.06,0.16,0.14,0.3,0.22,0.44c-0.06-0.3-0.1-0.59-0.12-0.89
			c-0.02-0.27-0.01-0.55,0.01-0.82c0.03-0.28,0.06-0.55,0.18-0.84l0.16-0.41l0.23,0.38c0.17,0.29,0.44,0.52,0.77,0.64
			c0.15,0.05,0.31,0.09,0.47,0.09c-0.07-0.04-0.13-0.08-0.19-0.13c-0.22-0.18-0.37-0.43-0.45-0.69
			C121.07,118.33,121.04,118.06,121.06,117.8z"/>
		<path class="st1" d="M125.2,113.5c-2.53,1.78-5.19,3.34-7.92,4.78c-0.69,0.35-1.37,0.72-2.08,1.04l-2.14,0.91
			c-0.71,0.31-1.44,0.57-2.16,0.86l-1.08,0.42l-1.1,0.37c-2.01,0.69-4.05,1.27-6.12,1.75c2.43-0.51,4.82-1.18,7.17-1.96
			c3.09-1.06,6.13-2.31,9.06-3.76c1.47-0.73,2.91-1.5,4.33-2.32c1.23-0.72,2.46-1.46,3.62-2.27c-0.16,0.02-0.32,0.04-0.49,0.06
			L125.2,113.5z"/>
		<path class="st2" d="M126.25,113.12l-1.11,0.15l-0.03,0l-0.02,0.02c-1.5,1.1-3.07,2.11-4.68,3.05c-0.21-0.01-0.42-0.09-0.61-0.19
			c-0.11-0.06-0.22-0.14-0.31-0.22c-0.09-0.07-0.12-0.17-0.12-0.28c0.01-0.09,0.04-0.28,0.03-0.41c-0.01-0.14-0.03-0.28-0.06-0.42
			c-0.07-0.27-0.15-0.55-0.4-0.8l-0.67-0.66l0.41,0.87c0.11,0.24-0.06,0.53-0.3,0.72c-0.23,0.19-0.59,0.29-0.73,0.18
			c-0.42-0.4-0.91-0.68-1.39-0.94c-0.49-0.26-1-0.49-1.4-0.78l-0.56-0.41l0.11,0.69c0.03,0.22,0.13,0.39,0.22,0.54l0.26,0.41
			c0.05,0.09,0.09,0.17,0.13,0.25c-0.3-0.11-0.59-0.18-0.89-0.25c-0.49-0.11-0.97-0.23-1.47-0.27c-1.8-0.16-2.92,0.37-2.92,0.37
			c0.32-0.05,0.72,0.05,1.09,0.15c0.37,0.11,0.74,0.24,1.11,0.38c0.37,0.14,0.73,0.3,1.09,0.45c0.15,0.06,0.3,0.13,0.45,0.19
			c-0.32-0.03-0.63-0.04-0.95-0.04c-0.55-0.01-1.09,0.01-1.64,0.03l-1.63,0.07c-0.54,0.03-1.08,0.05-1.6,0.01l-0.4-0.03l0.19,0.42
			c0.04,0.09-0.15,0.24-0.27,0.3c-0.24,0.12-0.52,0.21-0.79,0.3c-0.56,0.18-1.13,0.31-1.7,0.48c-0.29,0.09-0.57,0.18-0.85,0.28
			c-0.29,0.12-0.54,0.21-0.82,0.26c-0.56,0.13-1.69,0.16-1.76,0.16c-0.52-0.02-1.05,0-1.58,0.08c-0.42,0.06-0.85,0.15-1.26,0.31
			c-0.4,0.17-0.76,0.3-1.16,0.41c-0.78,0.2-1.62,0.35-2.39,0.27l-0.94-0.1l0.75,0.57c0.23,0.17,0.46,0.33,0.7,0.49
			c-0.05-0.01-0.1-0.02-0.14-0.03c-0.49-0.07-1-0.09-1.49-0.03c-0.5,0.05-0.98,0.17-1.45,0.3c-0.46,0.13-0.95,0.35-1.37,0.6
			c-0.85,0.52-1.57,1.19-2.22,1.89c-0.64,0.73-1.25,1.46-1.72,2.36l-0.06,0.12l0.11,0.09c0.94,0.83,2.12,1.2,3.25,1.52
			c0.57,0.17,1.17,0.29,1.78,0.27c0.5-0.01,0.98-0.11,1.46-0.25c-0.34,0.33-0.8,0.53-1.27,0.58l-0.74,0.08l0.72,0.17
			c0.43,0.1,0.83,0.11,1.25,0.13c0.41,0.01,0.82,0.01,1.24,0.01c0.41-0.01,0.82-0.03,1.24-0.06c0.21-0.02,0.41-0.04,0.62-0.07
			c0.19-0.04,0.36-0.05,0.58-0.15c0.58,0.09,1.13,0.07,1.68,0.05c0.57-0.03,1.14-0.1,1.71-0.17c0.57-0.07,1.13-0.16,1.69-0.25
			c0.55-0.1,1.1-0.19,1.66-0.32c0.28,0.01,0.55,0.03,0.82,0.03c0.29-0.02,0.58,0,0.86-0.05c0.57-0.05,1.13-0.2,1.68-0.39
			c0.54-0.21,1.04-0.49,1.5-0.83c0.02-0.02,0.05-0.04,0.07-0.06l0.71-0.08c0.49-0.06,0.98-0.17,1.44-0.36
			c0.46-0.19,0.9-0.44,1.3-0.73c0.49-0.36,0.93-0.78,1.33-1.22c-0.07,0.19-0.15,0.37-0.25,0.51l-0.38,0.52l0.61-0.12
			c0.4-0.08,0.8-0.18,1.17-0.35c0.37-0.16,0.73-0.36,1.06-0.59c0.61-0.43,1.14-0.95,1.59-1.53c0.17,0.28,0.3,0.59,0.37,0.91
			l0.15,0.69l0.04-0.7c0.02-0.27,0.1-0.55,0.2-0.82c0.1-0.27,0.22-0.53,0.36-0.79c0.14-0.25,0.28-0.5,0.45-0.74
			c0.12-0.17,0.24-0.33,0.38-0.47c0.04,0.37,0.11,0.73,0.22,1.09c0.07,0.22,0.16,0.44,0.29,0.65c0.13,0.21,0.31,0.42,0.6,0.53
			l0.4,0.14l-0.14-0.42c-0.15-0.47-0.22-0.98-0.25-1.49c-0.02-0.36-0.03-0.74,0.02-1.08c0.2,0.19,0.44,0.35,0.71,0.44
			c0.41,0.13,0.88,0.13,1.28-0.1l0.44-0.25l-0.5-0.06c-0.23-0.03-0.45-0.1-0.63-0.24c-0.18-0.14-0.32-0.33-0.42-0.55
			c-0.1-0.22-0.15-0.46-0.16-0.71c0-0.22,0-0.46,0.09-0.65c0.7-0.39,1.4-0.79,2.08-1.21c1.41-0.86,2.79-1.75,4.1-2.77l0.52-0.41
			l-0.65,0.15C127,113,126.62,113.06,126.25,113.12z M121.61,119.28c0.06,0.05,0.12,0.09,0.19,0.13c-0.16-0.01-0.32-0.04-0.47-0.09
			c-0.32-0.12-0.59-0.35-0.77-0.64l-0.23-0.38l-0.16,0.41c-0.11,0.29-0.15,0.57-0.18,0.84c-0.02,0.28-0.03,0.55-0.01,0.82
			c0.02,0.3,0.06,0.6,0.12,0.89c-0.08-0.14-0.16-0.28-0.22-0.44c-0.16-0.4-0.27-0.83-0.34-1.26l-0.04-0.24l-0.16,0.17
			c-0.22,0.23-0.38,0.47-0.54,0.72c-0.15,0.25-0.3,0.5-0.44,0.77c-0.13,0.26-0.26,0.53-0.37,0.8c-0.06,0.15-0.11,0.29-0.15,0.45
			c-0.08-0.26-0.19-0.51-0.33-0.75l-0.09-0.15l-0.12,0.14c-0.48,0.59-1.08,1.1-1.72,1.49c-0.32,0.2-0.66,0.37-1.01,0.51
			c-0.18,0.07-0.36,0.13-0.55,0.17c0.06-0.13,0.11-0.25,0.15-0.38c0.1-0.31,0.17-0.62,0.22-0.94l0.14-0.97l-0.64,0.75
			c-0.62,0.73-1.23,1.45-1.95,2.03c-0.54,0.44-1.15,0.78-1.81,1c0.15-0.15,0.3-0.31,0.43-0.47c0.15-0.17,0.28-0.35,0.41-0.54
			c0.12-0.19,0.25-0.38,0.3-0.61c0-0.01,0-0.03-0.02-0.03c-0.01,0-0.03,0-0.03,0.02l0,0c-0.07,0.2-0.22,0.37-0.36,0.54
			c-0.14,0.17-0.29,0.33-0.45,0.48c-0.32,0.3-0.65,0.61-1.01,0.82l-0.51,0.3c0.39-0.31,0.75-0.67,1.03-1.09
			c0.01-0.01,0.01-0.03-0.01-0.04c-0.01-0.01-0.03-0.01-0.04,0l0,0c-0.7,0.87-1.68,1.49-2.73,1.83c-0.53,0.16-1.07,0.29-1.62,0.32
			c-0.27,0.04-0.55,0.01-0.83,0.02c-0.28-0.01-0.55-0.04-0.83-0.06l-0.03,0l-0.03,0.01c-1.1,0.2-2.23,0.37-3.34,0.5
			c-0.56,0.06-1.12,0.11-1.68,0.15c-0.55,0.03-1.12,0.06-1.64-0.03l-0.09-0.01l-0.08,0.05c-0.08,0.05-0.31,0.1-0.5,0.13l-0.59,0.09
			c-0.4,0.05-0.81,0.09-1.21,0.11c-0.41,0.03-0.81,0.04-1.22,0.05c-0.2,0-0.41,0-0.61,0c0.1-0.04,0.19-0.08,0.29-0.13
			c0.27-0.15,0.52-0.36,0.7-0.63l0.14-0.22l-0.24,0.09c-0.55,0.2-1.13,0.32-1.71,0.33c-0.58,0.01-1.15-0.1-1.71-0.29
			c-1.06-0.34-2.13-0.76-2.93-1.49c0.43-0.73,1.04-1.44,1.64-2.08c0.65-0.67,1.35-1.3,2.15-1.77c0.4-0.23,0.79-0.41,1.25-0.52
			c0.45-0.13,0.9-0.22,1.35-0.27c0.91-0.12,1.79,0.08,2.74,0.3l1.18,0.28l-0.95-0.76c-0.28-0.23-0.59-0.45-0.9-0.64
			c-0.07-0.04-0.13-0.09-0.2-0.14c0.59-0.05,1.15-0.18,1.71-0.34c0.4-0.12,0.83-0.29,1.19-0.46c0.36-0.15,0.76-0.26,1.16-0.34
			c0.8-0.16,1.64-0.19,2.46-0.13c0.83,0.06,1.65,0.21,2.45,0.46c0.01,0,0.03,0,0.03-0.02c0-0.01,0-0.03-0.02-0.03
			c-0.69-0.27-1.42-0.47-2.17-0.59c0.19,0,0.37-0.01,0.56-0.03c0.3-0.04,0.61-0.13,0.88-0.22c0.28-0.08,0.56-0.15,0.85-0.22
			c0.58-0.13,1.15-0.26,1.73-0.42c0.29-0.08,0.58-0.17,0.87-0.31c0.15-0.07,0.3-0.15,0.44-0.31c0.06-0.07,0.12-0.19,0.13-0.32
			c1.01,0.01,1.98-0.11,2.95-0.22c0.54-0.06,1.08-0.11,1.62-0.15c0.54-0.02,1.08-0.02,1.59,0.1c0,0-0.67-0.47-1.03-0.63l-1.08-0.48
			c-0.34-0.15-0.68-0.29-1.02-0.42c0.06,0,0.11,0,0.17,0.01c0.48,0.03,0.96,0.1,1.43,0.18c0.48,0.08,0.95,0.18,1.41,0.3
			c0.45,0.12,0.95,0.27,1.28,0.47l0.46,0.28l-0.02-0.53c-0.01-0.37-0.16-0.72-0.34-1.01c0.21,0.1,0.43,0.2,0.63,0.31
			c0.48,0.24,0.96,0.48,1.34,0.82l0.02,0.02l0.01,0.01c0.25,0.16,0.51,0.13,0.72,0.07c0.21-0.07,0.39-0.17,0.55-0.31
			c0.16-0.14,0.29-0.3,0.37-0.51c0.02,0.05,0.03,0.09,0.05,0.14c0.04,0.12,0.07,0.25,0.08,0.37c0.02,0.14,0.01,0.22,0.01,0.39
			c0.01,0.16,0.1,0.33,0.23,0.41c0.11,0.08,0.24,0.15,0.37,0.21c0.17,0.07,0.36,0.13,0.55,0.14c-1.02,0.59-2.05,1.16-3.09,1.69
			c-0.69,0.35-1.37,0.7-2.09,0.99l-2.16,0.84c-0.71,0.29-1.45,0.52-2.18,0.78l-1.09,0.38l-1.1,0.36c-2.93,0.95-5.9,1.8-8.92,2.38
			c-1.51,0.31-3.03,0.54-4.56,0.7c-0.77,0.07-1.53,0.14-2.3,0.17c-0.27,0.02-0.56,0.02-0.84,0.02c-0.09,0-0.18,0-0.27,0
			c-0.15,0-0.28,0-0.43,0c-0.13,0-0.25,0-0.37,0c-0.15,0-0.3,0-0.44-0.01c0.12,0.07,0.22,0.05,0.31,0.07
			c0.1,0.01,0.19,0.02,0.29,0.03c0.19,0.02,0.39,0.04,0.58,0.04c0.22,0.01,0.44,0.01,0.66,0.02c0.21,0.01,0.43,0.02,0.65,0.02
			c0.82,0.04,1.65,0.03,2.47,0.01c1.65-0.07,3.29-0.17,4.93-0.42c3.27-0.46,6.49-1.24,9.61-2.29c3.13-1.04,6.17-2.34,9.11-3.84
			c0.72-0.36,1.43-0.74,2.13-1.13c-0.09,0.18-0.11,0.39-0.13,0.59c-0.01,0.26,0.02,0.53,0.1,0.79
			C121.24,118.85,121.39,119.1,121.61,119.28z M123.16,115.58c-1.42,0.82-2.86,1.59-4.33,2.32c-2.93,1.45-5.97,2.7-9.06,3.76
			c-2.35,0.78-4.74,1.46-7.17,1.96c2.07-0.48,4.11-1.06,6.12-1.75l1.1-0.37l1.08-0.42c0.72-0.29,1.45-0.54,2.16-0.86l2.14-0.91
			c0.71-0.32,1.39-0.69,2.08-1.04c2.73-1.44,5.39-3,7.92-4.78l1.09-0.12c0.16-0.02,0.32-0.04,0.49-0.06
			C125.62,114.12,124.38,114.86,123.16,115.58z"/>
	</g>
	<g>
		<path class="st0" d="M73.72,121.01c0.01-0.14,0.03-0.28,0.09-0.4c-0.48,0.27-0.97,0.53-1.46,0.78c-2.01,1.03-4.1,1.92-6.24,2.63
			c-2.14,0.72-4.35,1.26-6.59,1.57c-1.12,0.17-2.25,0.24-3.38,0.29c-0.56,0.01-1.13,0.02-1.69-0.01c-0.15,0-0.3-0.01-0.45-0.01
			c-0.15,0-0.3,0-0.45-0.01c-0.13,0-0.27-0.02-0.4-0.03c-0.07-0.01-0.13-0.01-0.2-0.02c-0.06-0.01-0.13,0-0.21-0.05
			c0.1,0,0.2,0,0.3,0.01c0.08,0,0.17,0,0.25,0c0.1,0,0.19,0,0.29,0c0.06,0,0.12,0,0.18,0c0.19,0,0.38,0,0.57-0.01
			c0.53-0.02,1.05-0.07,1.58-0.12c1.05-0.11,2.09-0.27,3.13-0.48c2.07-0.4,4.11-0.98,6.12-1.63l0.75-0.24l0.75-0.26
			c0.5-0.18,1-0.34,1.49-0.54l1.48-0.58c0.49-0.2,0.96-0.44,1.43-0.68c0.72-0.36,1.42-0.75,2.12-1.16
			c-0.13-0.01-0.26-0.04-0.38-0.09c-0.09-0.04-0.17-0.08-0.25-0.14c-0.09-0.06-0.15-0.17-0.16-0.28c0-0.12,0.01-0.18-0.01-0.27
			c-0.01-0.08-0.03-0.17-0.06-0.25c-0.01-0.03-0.02-0.06-0.03-0.09c-0.05,0.14-0.15,0.26-0.26,0.35c-0.11,0.09-0.23,0.17-0.38,0.21
			c-0.14,0.04-0.32,0.06-0.49-0.05l-0.01,0l-0.01-0.01c-0.26-0.23-0.59-0.4-0.92-0.56c-0.14-0.07-0.29-0.14-0.43-0.21
			c0.12,0.19,0.22,0.44,0.23,0.69l0.01,0.36l-0.32-0.19c-0.23-0.14-0.57-0.24-0.88-0.32c-0.32-0.08-0.64-0.15-0.97-0.21
			c-0.33-0.05-0.65-0.1-0.98-0.13c-0.04,0-0.08,0-0.11-0.01c0.24,0.09,0.47,0.19,0.7,0.29l0.74,0.33c0.25,0.11,0.7,0.43,0.7,0.43
			c-0.35-0.08-0.72-0.08-1.09-0.07c-0.37,0.02-0.74,0.06-1.11,0.1c-0.67,0.07-1.33,0.16-2.02,0.15c-0.01,0.09-0.04,0.17-0.09,0.22
			c-0.1,0.11-0.2,0.16-0.3,0.21c-0.2,0.09-0.4,0.15-0.6,0.21c-0.4,0.11-0.79,0.2-1.19,0.29c-0.2,0.05-0.39,0.09-0.58,0.15
			c-0.18,0.06-0.4,0.13-0.61,0.15c-0.13,0.01-0.26,0.02-0.38,0.02c0.51,0.08,1.01,0.22,1.48,0.4c0.01,0,0.01,0.01,0.01,0.02
			c0,0.01-0.01,0.01-0.02,0.01c-0.55-0.17-1.11-0.27-1.68-0.31c-0.56-0.04-1.14-0.02-1.69,0.09c-0.27,0.05-0.55,0.13-0.8,0.23
			c-0.25,0.12-0.54,0.23-0.82,0.32c-0.38,0.11-0.77,0.2-1.17,0.23c0.05,0.03,0.09,0.06,0.14,0.09c0.21,0.13,0.42,0.28,0.61,0.44
			l0.65,0.52l-0.81-0.19c-0.65-0.15-1.25-0.29-1.88-0.21c-0.31,0.04-0.62,0.1-0.93,0.19c-0.31,0.08-0.58,0.2-0.86,0.36
			c-0.54,0.32-1.02,0.75-1.47,1.21c-0.41,0.44-0.83,0.92-1.12,1.43c0.55,0.5,1.28,0.79,2.01,1.02c0.38,0.13,0.77,0.21,1.17,0.2
			c0.4,0,0.79-0.09,1.17-0.22l0.17-0.06l-0.1,0.15c-0.12,0.19-0.29,0.33-0.48,0.43c-0.06,0.03-0.13,0.06-0.2,0.09
			c0.14,0,0.28,0,0.42,0c0.28,0,0.56-0.02,0.83-0.03c0.28-0.02,0.56-0.04,0.83-0.08l0.41-0.06c0.12-0.02,0.29-0.06,0.34-0.09
			l0.06-0.03l0.06,0.01c0.35,0.06,0.74,0.04,1.12,0.02c0.38-0.02,0.77-0.06,1.15-0.1c0.77-0.09,1.54-0.2,2.29-0.34l0.02,0l0.02,0
			c0.19,0.01,0.38,0.04,0.57,0.04c0.19-0.01,0.38,0.01,0.57-0.01c0.38-0.02,0.75-0.11,1.11-0.22c0.72-0.24,1.39-0.66,1.87-1.26l0,0
			c0.01-0.01,0.02-0.01,0.03,0c0.01,0.01,0.01,0.02,0,0.02c-0.19,0.29-0.44,0.54-0.71,0.75l0.35-0.21c0.25-0.15,0.47-0.36,0.69-0.56
			c0.11-0.11,0.21-0.22,0.31-0.33c0.09-0.12,0.19-0.24,0.24-0.37l0,0c0-0.01,0.01-0.01,0.02-0.01c0.01,0,0.01,0.01,0.01,0.02
			c-0.04,0.16-0.12,0.29-0.21,0.42c-0.09,0.13-0.18,0.25-0.28,0.37c-0.09,0.11-0.19,0.22-0.3,0.32c0.45-0.15,0.87-0.38,1.24-0.69
			c0.5-0.4,0.91-0.89,1.34-1.39l0.44-0.52l-0.1,0.66c-0.03,0.22-0.08,0.43-0.15,0.64c-0.03,0.09-0.07,0.18-0.11,0.26
			c0.13-0.03,0.25-0.07,0.38-0.12c0.24-0.09,0.47-0.21,0.69-0.35c0.44-0.27,0.85-0.62,1.18-1.02l0.08-0.1l0.06,0.1
			c0.1,0.17,0.17,0.34,0.23,0.51c0.03-0.11,0.06-0.21,0.1-0.31c0.08-0.19,0.16-0.37,0.26-0.55c0.09-0.18,0.19-0.35,0.3-0.52
			c0.11-0.17,0.22-0.34,0.37-0.49l0.11-0.12l0.03,0.17c0.05,0.29,0.12,0.59,0.23,0.86c0.04,0.11,0.1,0.21,0.15,0.3
			c-0.04-0.2-0.07-0.41-0.08-0.61c-0.01-0.19-0.01-0.37,0.01-0.56c0.02-0.19,0.04-0.38,0.12-0.58l0.11-0.28l0.15,0.26
			c0.12,0.2,0.3,0.36,0.52,0.44c0.1,0.04,0.21,0.06,0.32,0.06c-0.04-0.03-0.09-0.06-0.13-0.09c-0.15-0.12-0.25-0.3-0.31-0.47
			C73.73,121.37,73.71,121.19,73.72,121.01z"/>
		<path class="st1" d="M76.55,118.06c-1.73,1.22-3.56,2.29-5.43,3.28c-0.47,0.24-0.94,0.49-1.43,0.71l-1.46,0.63
			c-0.49,0.22-0.99,0.39-1.48,0.59l-0.74,0.29l-0.75,0.26c-1.37,0.48-2.78,0.87-4.19,1.2c1.66-0.35,3.3-0.81,4.91-1.35
			c2.12-0.73,4.2-1.58,6.21-2.58c1-0.5,2-1.03,2.97-1.59c0.84-0.49,1.69-1,2.48-1.56c-0.11,0.02-0.22,0.03-0.33,0.04L76.55,118.06z"
			/>
		<path class="st2" d="M77.28,117.8l-0.76,0.1l-0.02,0l-0.02,0.01c-1.03,0.76-2.1,1.45-3.21,2.09c-0.15-0.01-0.29-0.06-0.42-0.13
			c-0.08-0.04-0.15-0.09-0.21-0.15c-0.06-0.05-0.08-0.12-0.08-0.19c0.01-0.06,0.03-0.19,0.02-0.28c-0.01-0.1-0.02-0.19-0.04-0.29
			c-0.05-0.19-0.1-0.38-0.27-0.55l-0.46-0.45l0.28,0.6c0.08,0.16-0.04,0.36-0.21,0.49c-0.16,0.13-0.41,0.2-0.5,0.12
			c-0.29-0.27-0.63-0.47-0.96-0.64c-0.33-0.18-0.69-0.33-0.96-0.53l-0.38-0.28l0.07,0.47c0.02,0.15,0.09,0.27,0.15,0.37l0.18,0.28
			c0.04,0.06,0.06,0.12,0.09,0.17c-0.2-0.07-0.4-0.12-0.61-0.17c-0.33-0.08-0.67-0.16-1-0.19c-1.23-0.11-2,0.26-2,0.26
			c0.22-0.03,0.49,0.03,0.74,0.1c0.26,0.08,0.51,0.17,0.76,0.26c0.25,0.1,0.5,0.2,0.75,0.31c0.1,0.04,0.21,0.09,0.31,0.13
			c-0.22-0.02-0.44-0.03-0.65-0.03c-0.38-0.01-0.75,0.01-1.12,0.02l-1.12,0.05c-0.37,0.02-0.74,0.03-1.1,0.01l-0.27-0.02l0.13,0.29
			c0.03,0.06-0.1,0.17-0.19,0.21c-0.17,0.08-0.36,0.15-0.54,0.21c-0.38,0.12-0.78,0.21-1.17,0.33c-0.2,0.06-0.39,0.12-0.59,0.19
			c-0.2,0.08-0.37,0.14-0.57,0.18c-0.39,0.09-1.16,0.11-1.21,0.11c-0.36-0.01-0.72,0-1.08,0.06c-0.29,0.04-0.58,0.1-0.86,0.22
			c-0.27,0.12-0.52,0.21-0.79,0.28c-0.54,0.14-1.11,0.24-1.64,0.18l-0.64-0.07l0.52,0.39c0.15,0.12,0.32,0.23,0.48,0.33
			c-0.03-0.01-0.07-0.01-0.1-0.02c-0.34-0.05-0.69-0.06-1.02-0.02c-0.34,0.03-0.67,0.11-0.99,0.21c-0.32,0.09-0.65,0.24-0.94,0.41
			c-0.58,0.35-1.07,0.81-1.52,1.3c-0.44,0.5-0.86,1-1.18,1.62l-0.04,0.09l0.07,0.06c0.64,0.57,1.45,0.82,2.23,1.04
			c0.39,0.12,0.8,0.2,1.22,0.18c0.34-0.01,0.67-0.08,1-0.17c-0.23,0.22-0.55,0.36-0.87,0.4l-0.5,0.05l0.5,0.11
			c0.29,0.07,0.57,0.07,0.86,0.09c0.28,0.01,0.57,0.01,0.85,0c0.28-0.01,0.56-0.02,0.85-0.04c0.14-0.01,0.28-0.03,0.43-0.05
			c0.13-0.03,0.24-0.03,0.4-0.1c0.4,0.06,0.77,0.05,1.15,0.03c0.39-0.02,0.78-0.07,1.17-0.12c0.39-0.05,0.77-0.11,1.16-0.17
			c0.38-0.07,0.76-0.13,1.14-0.22c0.19,0.01,0.38,0.02,0.57,0.02c0.2-0.01,0.39,0,0.59-0.04c0.39-0.04,0.78-0.14,1.15-0.27
			c0.37-0.14,0.71-0.33,1.03-0.57c0.02-0.01,0.03-0.03,0.05-0.04l0.48-0.05c0.34-0.04,0.67-0.12,0.99-0.25
			c0.32-0.13,0.62-0.3,0.89-0.5c0.34-0.25,0.63-0.54,0.91-0.84c-0.05,0.13-0.1,0.26-0.17,0.35l-0.26,0.35l0.42-0.08
			c0.28-0.05,0.55-0.12,0.8-0.24c0.26-0.11,0.5-0.24,0.73-0.4c0.42-0.3,0.78-0.65,1.09-1.05c0.11,0.19,0.21,0.4,0.25,0.62l0.1,0.47
			l0.03-0.48c0.01-0.19,0.07-0.38,0.14-0.56c0.07-0.18,0.15-0.37,0.25-0.54c0.09-0.17,0.2-0.35,0.31-0.51
			c0.08-0.11,0.17-0.22,0.26-0.32c0.03,0.25,0.07,0.5,0.15,0.75c0.05,0.15,0.11,0.3,0.2,0.45c0.09,0.14,0.21,0.29,0.41,0.36
			l0.28,0.1l-0.09-0.29c-0.1-0.32-0.15-0.67-0.17-1.02c-0.01-0.25-0.02-0.5,0.02-0.74c0.14,0.13,0.3,0.24,0.49,0.3
			c0.28,0.09,0.6,0.09,0.87-0.07l0.3-0.17l-0.34-0.04c-0.16-0.02-0.31-0.07-0.43-0.16c-0.13-0.09-0.22-0.23-0.29-0.38
			c-0.07-0.15-0.1-0.32-0.11-0.49c0-0.15,0-0.31,0.06-0.45c0.48-0.27,0.96-0.54,1.43-0.83c0.97-0.59,1.91-1.2,2.81-1.9l0.36-0.28
			l-0.45,0.11C77.79,117.72,77.53,117.76,77.28,117.8z M74.09,122.02c0.04,0.03,0.08,0.06,0.13,0.09c-0.11,0-0.22-0.03-0.32-0.06
			c-0.22-0.08-0.41-0.24-0.52-0.44l-0.15-0.26l-0.11,0.28c-0.08,0.2-0.1,0.39-0.12,0.58c-0.01,0.19-0.02,0.38-0.01,0.56
			c0.01,0.21,0.04,0.41,0.08,0.61c-0.06-0.09-0.11-0.19-0.15-0.3c-0.11-0.27-0.19-0.57-0.23-0.86l-0.03-0.17l-0.11,0.12
			c-0.15,0.16-0.26,0.32-0.37,0.49c-0.11,0.17-0.21,0.35-0.3,0.52c-0.09,0.18-0.18,0.36-0.26,0.55c-0.04,0.1-0.07,0.2-0.1,0.31
			c-0.06-0.18-0.13-0.35-0.23-0.51l-0.06-0.1l-0.08,0.1c-0.33,0.4-0.74,0.75-1.18,1.02c-0.22,0.14-0.45,0.25-0.69,0.35
			c-0.12,0.05-0.25,0.09-0.38,0.12c0.04-0.09,0.07-0.17,0.11-0.26c0.07-0.21,0.12-0.42,0.15-0.64l0.1-0.66l-0.44,0.52
			c-0.42,0.5-0.84,0.99-1.34,1.39c-0.37,0.3-0.79,0.53-1.24,0.69c0.1-0.1,0.2-0.21,0.3-0.32c0.1-0.12,0.19-0.24,0.28-0.37
			c0.08-0.13,0.17-0.26,0.21-0.42c0-0.01,0-0.02-0.01-0.02c-0.01,0-0.02,0-0.02,0.01l0,0c-0.05,0.14-0.15,0.26-0.24,0.37
			c-0.1,0.12-0.2,0.23-0.31,0.33c-0.22,0.21-0.44,0.42-0.69,0.56l-0.35,0.21c0.27-0.21,0.52-0.46,0.71-0.75c0.01-0.01,0-0.02,0-0.02
			c-0.01-0.01-0.02-0.01-0.03,0l0,0c-0.48,0.6-1.15,1.02-1.87,1.26c-0.36,0.11-0.73,0.2-1.11,0.22c-0.19,0.03-0.38,0.01-0.57,0.01
			c-0.19-0.01-0.38-0.03-0.57-0.04l-0.02,0l-0.02,0c-0.75,0.14-1.53,0.26-2.29,0.34c-0.38,0.04-0.77,0.08-1.15,0.1
			c-0.38,0.02-0.77,0.04-1.12-0.02l-0.06-0.01l-0.06,0.03c-0.05,0.03-0.22,0.07-0.34,0.09l-0.41,0.06
			c-0.27,0.03-0.55,0.06-0.83,0.08c-0.28,0.02-0.56,0.03-0.83,0.03c-0.14,0-0.28,0-0.42,0c0.07-0.03,0.13-0.05,0.2-0.09
			c0.19-0.1,0.36-0.25,0.48-0.43l0.1-0.15l-0.17,0.06c-0.38,0.14-0.77,0.22-1.17,0.22c-0.4,0.01-0.79-0.07-1.17-0.2
			c-0.73-0.24-1.46-0.52-2.01-1.02c0.3-0.5,0.71-0.99,1.12-1.43c0.45-0.46,0.93-0.89,1.47-1.21c0.28-0.16,0.54-0.28,0.86-0.36
			c0.31-0.09,0.62-0.15,0.93-0.19c0.63-0.08,1.23,0.05,1.88,0.21l0.81,0.19l-0.65-0.52c-0.19-0.15-0.4-0.31-0.61-0.44
			c-0.05-0.03-0.09-0.06-0.14-0.09c0.4-0.04,0.79-0.12,1.17-0.23c0.28-0.08,0.57-0.2,0.82-0.32c0.25-0.11,0.52-0.18,0.8-0.23
			c0.55-0.11,1.12-0.13,1.69-0.09c0.57,0.04,1.13,0.14,1.68,0.31c0.01,0,0.02,0,0.02-0.01c0-0.01,0-0.02-0.01-0.02
			c-0.48-0.18-0.98-0.32-1.48-0.4c0.13,0,0.26-0.01,0.38-0.02c0.2-0.02,0.42-0.09,0.61-0.15c0.19-0.06,0.39-0.11,0.58-0.15
			c0.39-0.09,0.79-0.18,1.19-0.29c0.2-0.06,0.4-0.12,0.6-0.21c0.1-0.05,0.2-0.1,0.3-0.21c0.04-0.05,0.08-0.13,0.09-0.22
			c0.69,0.01,1.36-0.08,2.02-0.15c0.37-0.04,0.74-0.08,1.11-0.1c0.37-0.01,0.74-0.01,1.09,0.07c0,0-0.46-0.32-0.7-0.43l-0.74-0.33
			c-0.23-0.1-0.46-0.2-0.7-0.29c0.04,0,0.08,0,0.11,0.01c0.33,0.02,0.66,0.07,0.98,0.13c0.33,0.06,0.65,0.12,0.97,0.21
			c0.31,0.08,0.65,0.18,0.88,0.32l0.32,0.19l-0.01-0.36c-0.01-0.25-0.11-0.5-0.23-0.69c0.15,0.07,0.29,0.14,0.43,0.21
			c0.33,0.16,0.66,0.33,0.92,0.56l0.01,0.01l0.01,0c0.17,0.11,0.35,0.09,0.49,0.05c0.14-0.04,0.27-0.12,0.38-0.21
			c0.11-0.09,0.2-0.21,0.26-0.35c0.01,0.03,0.02,0.06,0.03,0.09c0.03,0.08,0.05,0.17,0.06,0.25c0.01,0.09,0,0.15,0.01,0.27
			c0.01,0.11,0.07,0.23,0.16,0.28c0.08,0.06,0.16,0.1,0.25,0.14c0.12,0.05,0.25,0.09,0.38,0.09c-0.7,0.4-1.4,0.79-2.12,1.16
			c-0.47,0.24-0.94,0.48-1.43,0.68l-1.48,0.58c-0.49,0.2-1,0.36-1.49,0.54l-0.75,0.26l-0.75,0.24c-2.01,0.65-4.04,1.23-6.12,1.63
			c-1.03,0.21-2.08,0.37-3.13,0.48c-0.53,0.05-1.05,0.1-1.58,0.12c-0.19,0.01-0.38,0.01-0.57,0.01c-0.06,0-0.12,0-0.18,0
			c-0.1,0-0.2,0-0.29,0c-0.09,0-0.17,0-0.25,0c-0.1,0-0.2,0-0.3-0.01c0.08,0.05,0.15,0.03,0.21,0.05c0.07,0.01,0.13,0.02,0.2,0.02
			c0.13,0.01,0.26,0.03,0.4,0.03c0.15,0.01,0.3,0.01,0.45,0.01c0.15,0.01,0.29,0.01,0.45,0.01c0.56,0.03,1.13,0.02,1.69,0.01
			c1.13-0.05,2.26-0.12,3.38-0.29c2.24-0.31,4.45-0.85,6.59-1.57c2.15-0.71,4.23-1.6,6.24-2.63c0.49-0.25,0.98-0.51,1.46-0.78
			c-0.06,0.13-0.07,0.27-0.09,0.4c-0.01,0.18,0.01,0.36,0.07,0.54C73.84,121.73,73.94,121.9,74.09,122.02z M75.16,119.49
			c-0.97,0.56-1.96,1.09-2.97,1.59c-2.01,1-4.09,1.85-6.21,2.58c-1.61,0.54-3.25,1-4.91,1.35c1.42-0.33,2.82-0.72,4.19-1.2
			l0.75-0.26l0.74-0.29c0.49-0.2,0.99-0.37,1.48-0.59l1.46-0.63c0.48-0.22,0.95-0.47,1.43-0.71c1.87-0.99,3.69-2.06,5.43-3.28
			l0.75-0.08c0.11-0.01,0.22-0.03,0.33-0.04C76.84,118.49,76,118.99,75.16,119.49z"/>
	</g>
</g>
</svg>
