<?xml version="1.0" encoding="utf-8"?>
<!-- Generator: Adobe Illustrator 24.1.2, SVG Export Plug-In . SVG Version: 6.00 Build 0)  -->
<svg version="1.1" id="Layer_1" xmlns="http://www.w3.org/2000/svg" xmlns:xlink="http://www.w3.org/1999/xlink" x="0px" y="0px"
	 viewBox="0 0 128 128" style="enable-background:new 0 0 128 128;" xml:space="preserve">
<style type="text/css">
	.st0{fill:#7C5445;}
	.st1{fill:#F7D3A4;}
	.st2{fill:#A57F59;}
	.st3{fill:#936047;}
	.st4{fill:#66644D;}
	.st5{fill:#2D2D2D;}
</style>
<g>
	<path class="st0" d="M85.4,97.98c-1.53,1.62-2.1,2.25-3.55,3.94c-0.02,0.02-0.04,0.05-0.06,0.07c0.85,0.64,1.3,1.74,2.1,2.43
		c1.13,0.97,2.21,1.99,3.28,3.02c1.05,1.05,2.1,2.11,3.09,3.22c0.04,0.04,0.07,0.08,0.11,0.12c0-0.1,0-0.2,0.01-0.3
		c0.04-0.41,0.2-0.77,0.38-1.1c0.37-0.66,0.89-1.19,1.45-1.66c0.57-0.45,1.2-0.85,1.93-1.08c0.21-0.07,0.43-0.12,0.66-0.15
		c-0.43-0.34-0.86-0.68-1.28-1.04c-0.97-0.82-1.91-1.67-2.81-2.56c-0.9-0.88-1.77-1.81-2.61-2.76
		C87.33,99.27,86.07,98.94,85.4,97.98z"/>
	<path class="st0" d="M93.19,112.6c-0.43,0.06-0.88,0.04-1.33-0.07c0.37,0.46,0.64,0.79,0.99,1.27c0.54-0.41,1.23-0.65,1.9-0.87
		c0.13-0.04,0.27-0.08,0.41-0.11c-0.1-0.15-0.19-0.31-0.26-0.49c-0.03-0.1-0.06-0.21-0.07-0.33
		C94.34,112.3,93.79,112.52,93.19,112.6z"/>
	<path class="st1" d="M90.96,109.47c-0.11,0.34-0.15,0.69-0.1,1.01c0.06,0.32,0.21,0.59,0.42,0.74c0.43,0.3,1.04,0.24,1.6,0.03
		c0.57-0.2,1.11-0.53,1.6-0.92c0.48-0.4,0.92-0.85,1.22-1.36c0.3-0.51,0.46-1.07,0.21-1.53c-0.13-0.23-0.39-0.42-0.7-0.52
		c-0.32-0.09-0.68-0.12-1.03-0.08c-0.72,0.08-1.4,0.42-1.97,0.87C91.64,108.19,91.18,108.79,90.96,109.47z"/>
	<path class="st2" d="M80.92,103.1c-0.74,0.87-1,1.06-1.73,1.95c1.18,0.82,2.08,2.03,3.15,2.96c1.13,0.97,2.21,1.99,3.28,3.02
		c1.05,1.05,2.1,2.11,3.09,3.22c0.8,0.88,2.29,2.61,2.3,2.54c0.04-0.41,0.2-0.77,0.38-1.1c0.32-0.57,0.7-1.2,1.15-1.66
		c-0.49-0.43-2.06-1.87-2.97-2.65c-1.13-0.97-2.21-1.99-3.29-3.02c-1.05-1.05-2.1-2.1-3.09-3.22
		C82.49,104.36,81.57,103.93,80.92,103.1z"/>
	<path class="st1" d="M91.91,117.52c0.43,0.3,1.04,0.24,1.6,0.03c0.57-0.2,1.11-0.53,1.6-0.92c0.48-0.4,0.92-0.85,1.22-1.36
		c0.3-0.49,0.45-1.04,0.22-1.49c-0.19-0.07-0.37-0.16-0.54-0.28c-0.01,0-0.02-0.01-0.03-0.01c-0.2-0.09-0.36-0.2-0.51-0.33
		c-0.22-0.03-0.44-0.04-0.67-0.01c-0.67,0.08-1.31,0.38-1.85,0.79c0.02,0.03-0.02,0.05-0.08,0.08c-0.47,0.44-1.1,1.17-1.29,1.75
		c-0.11,0.34-0.15,0.69-0.1,1.01C91.54,117.1,91.7,117.37,91.91,117.52z"/>
	<path class="st1" d="M95.2,103.9c-0.11,0.34-0.15,0.69-0.1,1.01c0.06,0.32,0.21,0.59,0.42,0.74c0.43,0.3,1.04,0.24,1.6,0.03
		c0.57-0.2,1.11-0.53,1.6-0.92c0.48-0.4,0.92-0.85,1.22-1.36c0.18-0.3,0.31-0.62,0.33-0.93c-0.07-0.06-0.14-0.12-0.2-0.19
		c-0.19-0.22-0.3-0.47-0.37-0.72c-0.11-0.07-0.21-0.14-0.31-0.21c-0.3-0.08-0.64-0.11-0.97-0.07c-0.72,0.08-1.4,0.42-1.97,0.87
		C95.89,102.62,95.42,103.22,95.2,103.9z"/>
	<path class="st0" d="M97.34,108.77c0.6-0.43,1.23-0.82,1.96-1.07c0.21-0.07,0.44-0.13,0.67-0.16c-0.05-0.05-0.11-0.1-0.15-0.16
		c-0.28-0.37-0.36-0.82-0.33-1.21c-0.6,0.43-1.29,0.75-2.06,0.86c-0.27,0.04-0.55,0.04-0.83,0.02c0.3,0.31,0.47,0.73,0.52,1.15
		c0.03,0.26,0.01,0.52-0.02,0.77C97.18,108.89,97.26,108.83,97.34,108.77z"/>
	<path class="st1" d="M94.59,120.9c0.07,0.24,0.18,0.39,0.3,0.48c0.12,0.1,0.27,0.16,0.5,0.21c0.23,0.04,0.5,0.04,0.79,0
		c0.58-0.07,1.19-0.34,1.72-0.7c0.52-0.38,0.99-0.86,1.27-1.42c0.17-0.33,0.27-0.68,0.25-1c-0.26,0.03-0.54,0.03-0.82-0.01
		c-0.5-0.08-1.04-0.33-1.42-0.78c-0.07-0.08-0.12-0.17-0.17-0.26c-0.26,0.07-0.52,0.18-0.76,0.32c-0.04,0.04-0.08,0.08-0.13,0.12
		c-0.2,0.16-0.41,0.29-0.63,0.42c-0.5,0.47-0.85,1.1-0.93,1.73C94.51,120.34,94.52,120.66,94.59,120.9z"/>
	<path class="st2" d="M95.71,88.57c-1.81,1.36-2.71,2.12-4.4,3.62c0.9,0.57,1.29,1.61,2.09,2.28c0.87,0.73,1.71,1.48,2.51,2.28
		c0.8,0.79,1.57,1.62,2.31,2.48c0.46,0.53,0.9,1.09,1.32,1.66c0.03,0,0.07,0.01,0.1,0.01c0-0.05,0-0.1,0-0.14
		c0.06-0.49,0.27-0.89,0.51-1.23c0.49-0.68,1.1-1.14,1.69-1.6c0.6-0.43,1.23-0.82,1.96-1.07c0.19-0.07,0.39-0.12,0.6-0.15
		c-0.54-0.4-1.07-0.81-1.59-1.24c-0.89-0.74-1.74-1.52-2.56-2.33c-0.82-0.81-1.61-1.65-2.36-2.53
		C97.26,89.88,96.27,89.38,95.71,88.57z"/>
	<path class="st1" d="M105.13,97.35c-0.35-0.16-0.8-0.22-1.25-0.17c-0.71,0.06-1.39,0.4-1.94,0.87c-0.54,0.48-0.91,1.15-1.01,1.81
		c-0.05,0.33-0.04,0.64,0.03,0.88c0.07,0.24,0.18,0.39,0.3,0.48c0.12,0.1,0.27,0.16,0.5,0.21c0.23,0.04,0.5,0.04,0.79,0
		c0.58-0.07,1.19-0.34,1.72-0.7c0.52-0.38,0.99-0.86,1.27-1.42c0.14-0.26,0.22-0.53,0.25-0.79c-0.13-0.1-0.25-0.21-0.35-0.34
		C105.26,97.93,105.16,97.64,105.13,97.35z"/>
	<path class="st3" d="M89.12,94.2c-1.07,1.01-1.7,1.72-2.71,2.78c0.98,0.65,1.5,1.7,2.39,2.45c0.97,0.82,1.91,1.67,2.81,2.56
		c0.9,0.89,1.77,1.81,2.61,2.76c0.14,0.16,0.27,0.32,0.4,0.48c0-0.11,0-0.22,0.01-0.32c0.04-0.41,0.2-0.77,0.38-1.1
		c0.37-0.66,0.89-1.19,1.45-1.66c0.57-0.45,1.2-0.85,1.93-1.08c0.14-0.05,0.29-0.08,0.45-0.12c-0.44-0.33-0.87-0.67-1.29-1.03
		c-0.87-0.73-1.71-1.48-2.51-2.28c-0.81-0.79-4.1-3.67-4.68-4.56C89.77,93.6,89.67,93.68,89.12,94.2z"/>
	<path class="st1" d="M121.27,99.97c0.29-0.55,0.37-1.18,0.05-1.59c-0.18-0.25-0.49-0.41-0.86-0.49c-0.4,0.1-0.84,0.15-1.31,0.08
		c-0.03,0-0.06-0.02-0.09-0.02c-0.31,0.09-0.6,0.23-0.88,0.4c0,0.41-0.08,0.8-0.22,1.15c-0.28,0.72-0.74,1.33-1.28,1.85
		c0,0.02,0,0.04,0.01,0.06c0.07,0.24,0.18,0.39,0.3,0.48c0.12,0.1,0.27,0.16,0.5,0.21c0.23,0.04,0.5,0.04,0.79,0
		c0.58-0.07,1.19-0.34,1.72-0.7C120.52,101,120.98,100.52,121.27,99.97z"/>
	<path class="st3" d="M110.65,80.65c-1.31,0.43-2.59,0.94-3.87,1.47c0.84,0.57,1.64,1.18,2.41,1.82c0.92,0.78,1.82,1.59,2.68,2.44
		c0.86,0.85,1.68,1.73,2.48,2.64c0.71,0.81,1.38,1.66,1.99,2.56c0.06,0,0.12,0,0.19,0c0.42,0.02,0.87,0.19,1.21,0.52
		c0.34,0.34,0.51,0.82,0.53,1.26c0.01,0.19,0,0.38-0.03,0.57c0.4-0.42,0.84-0.76,1.27-1.1c0.6-0.43,1.23-0.82,1.96-1.07
		c0.36-0.12,0.76-0.21,1.18-0.18c0.42,0.02,0.87,0.19,1.21,0.52c0.02,0.02,0.03,0.04,0.05,0.06c0.02,0.01,0.04,0.01,0.06,0.02
		c-1.34-1.21-2.65-2.45-3.97-3.69c-1.44-1.34-2.85-2.71-4.27-4.06c-1.4-1.35-2.79-2.71-4.18-4.08L110.65,80.65z"/>
	<path class="st4" d="M118.62,103.62c-0.43,0.12-0.9,0.18-1.4,0.1c-0.08-0.01-0.17-0.04-0.25-0.06c-0.03,0.11-0.07,0.23-0.11,0.33
		c-0.2,0.52-0.5,0.98-0.86,1.4c0.44-0.28,0.91-0.54,1.43-0.72c0.36-0.12,0.76-0.21,1.18-0.18c0.03,0,0.07,0.01,0.1,0.01
		c0.09-0.24,0.22-0.46,0.36-0.66c0.19-0.26,0.4-0.48,0.61-0.69C119.35,103.34,119,103.5,118.62,103.62z"/>
	<path class="st1" d="M118.92,96.13c0.12,0.1,0.27,0.16,0.5,0.21c0.23,0.04,0.5,0.04,0.79,0c0.58-0.07,1.19-0.34,1.72-0.7
		c0.52-0.38,0.99-0.86,1.27-1.42c0.29-0.55,0.37-1.18,0.05-1.59c-0.3-0.43-1.02-0.62-1.72-0.54c-0.71,0.06-1.39,0.4-1.94,0.87
		c-0.54,0.48-0.91,1.15-1.01,1.81c-0.05,0.33-0.04,0.64,0.03,0.88C118.69,95.89,118.81,96.03,118.92,96.13z"/>
	<path class="st4" d="M121.85,101.11c-0.18,0.29-0.38,0.56-0.61,0.82c0.25-0.17,0.52-0.32,0.79-0.45
		C121.96,101.35,121.9,101.23,121.85,101.11z"/>
	<path class="st1" d="M102.9,111.18c0.11,0.08,0.24,0.14,0.45,0.18c0.21,0.03,0.46,0.04,0.73,0c0.55-0.06,1.12-0.31,1.62-0.65
		c0.41-0.3,0.79-0.67,1.06-1.09c0.05-0.4,0.21-0.74,0.39-1.04c0.02-0.26-0.04-0.5-0.19-0.69c-0.28-0.4-0.95-0.59-1.62-0.52
		c-0.67,0.06-1.33,0.38-1.84,0.83c-0.51,0.46-0.86,1.1-0.94,1.73c-0.04,0.31-0.03,0.61,0.05,0.83
		C102.69,110.97,102.79,111.1,102.9,111.18z"/>
	<path class="st0" d="M103.41,108.07c0.58-0.41,1.17-0.78,1.87-1.03c0.16-0.05,0.32-0.1,0.49-0.13c-0.07-0.06-0.13-0.12-0.19-0.18
		c-0.23-0.26-0.34-0.58-0.4-0.89c-0.28,0.22-0.55,0.42-0.8,0.63c-0.59,0.43-1.12,1.01-1.89,1.41c-0.23,0.11-0.48,0.19-0.74,0.23
		c0.25,0.28,0.4,0.64,0.45,1C102.58,108.7,103,108.38,103.41,108.07z"/>
	<path class="st1" d="M112.66,108.19c0.15-0.29,0.24-0.59,0.25-0.88c-0.33,0.06-0.68,0.08-1.06,0.02c-0.5-0.08-1.04-0.33-1.42-0.78
		c-0.07-0.09-0.13-0.18-0.19-0.28c-0.42,0.36-0.9,0.68-1.44,0.91c-0.38,0.42-0.65,0.94-0.74,1.47c0.01,0.2-0.01,0.39-0.05,0.58
		c0.01,0.14,0.03,0.28,0.06,0.4c0.07,0.24,0.18,0.39,0.3,0.48c0.12,0.1,0.27,0.16,0.5,0.21c0.23,0.04,0.5,0.04,0.79,0
		c0.58-0.07,1.19-0.34,1.72-0.7C111.91,109.23,112.38,108.75,112.66,108.19z"/>
	<path class="st1" d="M104.27,106.34c0.56-0.45,0.88-1.19,0.91-1.85c0.03-0.32,0-0.62-0.05-0.84c-0.05-0.22-0.12-0.36-0.23-0.45
		c-0.1-0.09-0.24-0.17-0.46-0.24c-0.22-0.06-0.5-0.07-0.79-0.03c-0.58,0.08-1.21,0.28-1.84,0.58c-0.21,0.11-0.4,0.24-0.59,0.39
		c-0.01,0.02-0.01,0.03-0.01,0.05c-0.19,0.55-0.5,1.03-0.87,1.45c-0.01,0.19,0,0.37,0.05,0.53c0.09,0.29,0.26,0.47,0.42,0.57
		c0.3,0.19,0.77,0.32,1.45,0.39C102.93,106.96,103.72,106.81,104.27,106.34z"/>
	<path class="st1" d="M99.77,111.57c0.52-0.38,0.99-0.86,1.27-1.42c0.29-0.55,0.37-1.18,0.05-1.59c-0.3-0.43-1.02-0.62-1.72-0.54
		c-0.71,0.06-1.39,0.4-1.94,0.87c-0.16,0.14-0.3,0.31-0.43,0.48c-0.01,0.05-0.03,0.1-0.04,0.15c-0.12,0.34-0.28,0.64-0.47,0.93
		c-0.02,0.08-0.05,0.17-0.06,0.25c-0.05,0.33-0.04,0.64,0.03,0.88c0.07,0.24,0.18,0.39,0.3,0.48c0.12,0.1,0.27,0.16,0.5,0.21
		c0.23,0.04,0.5,0.04,0.79,0C98.64,112.2,99.24,111.93,99.77,111.57z"/>
	<path class="st4" d="M118.18,98.18c0.18-0.11,0.37-0.22,0.56-0.32c-0.27-0.09-0.54-0.25-0.78-0.45
		C118.09,97.65,118.16,97.92,118.18,98.18z"/>
	<path class="st1" d="M115.28,112.18c0.22-0.42,0.32-0.89,0.21-1.27c-0.12,0-0.24-0.01-0.36-0.03c-0.5-0.08-1.04-0.33-1.42-0.78
		c-0.02-0.02-0.03-0.04-0.04-0.06c-0.02,0-0.04,0-0.06,0c-0.46,0.04-0.9,0.21-1.31,0.44c-0.04,0.03-0.07,0.07-0.1,0.1
		c-0.23,0.2-0.48,0.38-0.74,0.56c-0.42,0.45-0.71,1.02-0.79,1.58c-0.05,0.33-0.04,0.64,0.03,0.88c0.07,0.24,0.18,0.39,0.3,0.48
		c0.12,0.1,0.27,0.16,0.5,0.21c0.23,0.04,0.5,0.04,0.79,0c0.58-0.07,1.19-0.34,1.72-0.7C114.53,113.21,115,112.73,115.28,112.18z"/>
	<path class="st3" d="M101.21,84.81c-1.27,0.8-2.22,1.39-3.43,2.27c-0.5,0.36-0.58,0.47-1.08,0.84c0.81,0.54,1.17,1.38,1.9,2
		c0.89,0.74,1.74,1.52,2.56,2.33c0.82,0.81,1.61,1.65,2.36,2.53c0.53,0.61,1.02,1.25,1.5,1.91c0.04,0,0.09,0.01,0.13,0.02
		c0.08-0.43,0.26-0.78,0.43-1.12c0.37-0.69,0.79-1.32,1.31-1.94c0.52-0.61,1.21-1.13,2.06-1.37c0.07-0.02,0.14-0.04,0.21-0.05
		c-0.6-0.41-1.18-0.84-1.73-1.29c-0.81-0.67-1.58-1.36-2.32-2.1c-0.74-0.73-1.45-1.5-2.12-2.3
		C102.46,85.91,101.66,85.49,101.21,84.81z"/>
	<path class="st4" d="M111.79,116.95c0.6-0.43,1.22-0.81,1.93-1.06c-0.01-0.12,0-0.25,0.01-0.36c0.01-0.07,0.03-0.13,0.04-0.2
		c-0.35,0.2-0.73,0.37-1.14,0.49c-0.25,0.07-0.52,0.11-0.8,0.13c0,0.02,0.01,0.05,0.01,0.07c0.02,0.34-0.03,0.67-0.13,0.99
		C111.74,116.99,111.76,116.97,111.79,116.95z"/>
	<path class="st1" d="M104.04,114.8c0.12,0.1,0.27,0.16,0.5,0.21c0.23,0.04,0.5,0.04,0.79,0c0.58-0.07,1.19-0.34,1.72-0.7
		c0.52-0.38,0.99-0.86,1.27-1.42c0.16-0.31,0.26-0.65,0.25-0.96c-0.48-0.08-1.01-0.33-1.38-0.76c-0.03-0.04-0.05-0.08-0.08-0.12
		c-0.19,0.23-0.39,0.45-0.6,0.65c-0.59,0.52-1.26,0.96-2.08,1.2c-0.2,0.05-0.4,0.09-0.62,0.11c-0.04,0.11-0.06,0.23-0.08,0.34
		c0.05,0.17,0.09,0.34,0.09,0.5c0.01,0.2,0,0.4-0.04,0.59C103.85,114.61,103.94,114.72,104.04,114.8z"/>
	<path class="st0" d="M109.89,112.39c0.21-0.29,0.44-0.53,0.68-0.75c-0.18,0.07-0.36,0.14-0.55,0.2c-0.17,0.05-0.35,0.08-0.54,0.1
		c0,0.03,0.01,0.06,0.01,0.09c0.03,0.45-0.07,0.88-0.22,1.27c-0.18,0.48-0.46,0.91-0.77,1.3c0.14-0.06,0.28-0.12,0.43-0.17
		c0.16-0.05,0.32-0.1,0.49-0.13c-0.05-0.23-0.06-0.46-0.03-0.67C109.44,113.13,109.64,112.73,109.89,112.39z"/>
	<path class="st1" d="M115.91,103.58c0.07-0.12,0.12-0.25,0.16-0.38c-0.1-0.08-0.19-0.16-0.27-0.26c-0.18-0.2-0.29-0.44-0.36-0.68
		c-0.33,0.19-0.69,0.35-1.08,0.47c-0.43,0.12-0.9,0.18-1.4,0.1c-0.28-0.04-0.57-0.15-0.85-0.31c-0.07,0.08-0.15,0.16-0.21,0.24
		c0.02,0.1,0.03,0.2,0.04,0.29c0.03,0.43-0.07,0.84-0.21,1.22c-0.1,0.27-0.24,0.52-0.39,0.76c0.07,0.23,0.18,0.37,0.29,0.46
		c0.03,0.02,0.07,0.04,0.1,0.06c0.12-0.01,0.24-0.01,0.37-0.01c0.22,0.01,0.45,0.07,0.66,0.16c0.05,0,0.1,0,0.15-0.01
		c0.58-0.07,1.19-0.34,1.72-0.7C115.16,104.62,115.62,104.14,115.91,103.58z"/>
	<path class="st4" d="M117.19,111.93c-0.18-0.38-0.23-0.8-0.19-1.15c0.01-0.06,0.02-0.12,0.04-0.18c-0.16,0.07-0.33,0.13-0.5,0.18
		c-0.06,0.02-0.11,0.03-0.17,0.04c0.05,0.17,0.08,0.33,0.09,0.5c0.02,0.4-0.06,0.78-0.18,1.14
		C116.57,112.26,116.87,112.08,117.19,111.93z"/>
	<path class="st1" d="M125.49,97.17c-0.61,0.04-1.2,0.33-1.66,0.74c-0.46,0.41-0.77,1-0.82,1.57c-0.03,0.28-0.01,0.55,0.07,0.73
		c0.07,0.19,0.16,0.28,0.24,0.34c0.08,0.06,0.19,0.1,0.36,0.14c0.17,0.03,0.4,0.03,0.63,0c0.48-0.04,0.99-0.26,1.44-0.56
		c0.44-0.32,0.83-0.72,1.07-1.18c0.25-0.45,0.32-0.97,0.08-1.3C126.69,97.3,126.09,97.12,125.49,97.17z"/>
	<path class="st4" d="M121.41,97.51c0.18,0.08,0.35,0.19,0.5,0.34c0.29,0.29,0.45,0.69,0.5,1.07c0.41-0.46,0.87-0.8,1.31-1.14
		c0.52-0.37,1.06-0.71,1.69-0.94c0.31-0.11,0.66-0.19,1.02-0.18c0.12,0.01,0.25,0.03,0.37,0.06c-0.02-0.02-0.04-0.04-0.07-0.06
		c-0.47-0.42-0.92-0.86-1.37-1.3c-0.37-0.36-0.8-0.67-1.12-1.08c-0.03,0.11-0.07,0.22-0.11,0.32c-0.3,0.79-0.82,1.44-1.42,1.99
		C122.34,96.96,121.9,97.26,121.41,97.51z"/>
	<path class="st1" d="M119.18,107.13c0.04-0.08,0.08-0.16,0.11-0.25c-0.1-0.08-0.2-0.17-0.29-0.28c-0.38-0.44-0.49-1.03-0.44-1.51
		c-0.31-0.1-0.69-0.14-1.05-0.1c-0.71,0.06-1.39,0.4-1.94,0.87c-0.54,0.48-0.91,1.15-1.01,1.81c-0.05,0.33-0.04,0.64,0.03,0.88
		c0.07,0.24,0.18,0.39,0.3,0.48c0.12,0.1,0.27,0.16,0.5,0.21c0.23,0.04,0.5,0.04,0.79,0c0.58-0.07,1.19-0.34,1.72-0.7
		C118.43,108.17,118.89,107.69,119.18,107.13z"/>
	<path class="st4" d="M112.98,97.95c-0.28-0.05-0.58-0.16-0.85-0.33c0.18,0.21,0.31,0.46,0.38,0.73
		C112.66,98.2,112.82,98.07,112.98,97.95z"/>
	<path class="st4" d="M117.29,95.89c-0.17,0.21-0.35,0.41-0.54,0.59c0.26,0.06,0.52,0.18,0.75,0.35
		C117.34,96.53,117.29,96.2,117.29,95.89z"/>
	<path class="st1" d="M117.05,98.99c0.25-0.53,0.31-1.11,0.01-1.5c-0.18-0.25-0.51-0.42-0.9-0.5c-0.51,0.38-1.07,0.69-1.73,0.88
		c-0.37,0.1-0.77,0.15-1.19,0.12c-0.29,0.3-0.52,0.65-0.67,1.02c-0.01,0.35-0.09,0.69-0.2,1c0,0.19,0.01,0.36,0.06,0.51
		c0.07,0.24,0.18,0.39,0.3,0.48c0.12,0.1,0.27,0.16,0.5,0.21c0.22,0.04,0.48,0.03,0.76,0c0.06-0.02,0.12-0.05,0.18-0.07
		c0.23-0.08,0.47-0.14,0.72-0.16c0.26-0.11,0.52-0.25,0.76-0.41c0.07-0.13,0.14-0.25,0.22-0.37
		C116.23,99.7,116.64,99.32,117.05,98.99z"/>
	<path class="st4" d="M113.47,109.75c-0.08-0.17-0.13-0.34-0.16-0.51c-0.18,0.31-0.4,0.6-0.64,0.87
		C112.93,109.97,113.19,109.85,113.47,109.75z"/>
	<path class="st2" d="M110.96,87.28c-0.86-0.84-1.69-1.73-2.48-2.64c-0.67-0.78-1.65-1.43-2.24-2.29c-0.75,0.31-1.16,0.47-1.91,0.77
		c-0.69,0.31-1.97,0.96-2.14,1.06c0.67,0.44,0.89,1.14,1.5,1.64c0.81,0.67,1.58,1.36,2.32,2.1c0.74,0.73,1.45,1.5,2.12,2.3
		c0.51,0.61,0.99,1.24,1.44,1.91c0.25-0.03,0.5-0.04,0.77-0.01c0.5,0.05,1.06,0.29,1.46,0.74c0.24,0.27,0.38,0.59,0.45,0.92
		c0.36-0.36,0.75-0.66,1.13-0.96c0.6-0.43,1.23-0.82,1.96-1.07c0.24-0.08,0.5-0.14,0.77-0.17c-0.87-0.58-1.69-1.21-2.47-1.87
		C112.71,88.94,111.82,88.13,110.96,87.28z"/>
	<path class="st1" d="M115.41,92.08c-0.71,0.06-1.39,0.4-1.94,0.87c-0.54,0.48-0.91,1.15-1.01,1.81c-0.05,0.33-0.04,0.64,0.03,0.88
		c0.07,0.24,0.18,0.39,0.3,0.48c0.12,0.1,0.27,0.16,0.5,0.21c0.23,0.04,0.5,0.04,0.79,0c0.58-0.07,1.19-0.34,1.72-0.7
		c0.52-0.38,0.99-0.86,1.27-1.42c0.29-0.55,0.37-1.18,0.05-1.59C116.83,92.2,116.11,92,115.41,92.08z"/>
	<path class="st4" d="M110.84,97c0.28,0.02,0.57,0.1,0.84,0.25c-0.02-0.02-0.05-0.04-0.07-0.07c-0.23-0.26-0.35-0.58-0.41-0.9
		c-0.31,0.27-0.62,0.51-0.92,0.74C110.47,97,110.65,96.99,110.84,97z"/>
	<path class="st1" d="M111.46,99.53c0.24-0.52,0.29-1.1,0-1.48c-0.3-0.43-1.02-0.62-1.72-0.54c-0.02,0-0.04,0.01-0.06,0.01
		c-0.47,0.39-0.94,0.83-1.57,1.15c-0.23,0.11-0.49,0.2-0.77,0.24c-0.28,0.39-0.48,0.84-0.55,1.29c-0.05,0.33-0.04,0.64,0.03,0.88
		c0.07,0.24,0.18,0.39,0.3,0.48c0.12,0.1,0.27,0.16,0.5,0.21c0.23,0.04,0.5,0.04,0.79,0c0.1-0.01,0.2-0.04,0.31-0.06
		c0.14-0.06,0.28-0.12,0.42-0.17c0.11-0.04,0.22-0.07,0.34-0.1c0.22-0.11,0.44-0.23,0.65-0.37c0.5-0.36,0.94-0.81,1.23-1.34
		C111.39,99.66,111.42,99.59,111.46,99.53z"/>
	<path class="st1" d="M110.53,94c-0.1-0.09-0.24-0.17-0.46-0.24c-0.22-0.06-0.5-0.07-0.79-0.03c-0.58,0.08-1.21,0.28-1.84,0.58
		c-0.61,0.31-1.17,0.82-1.39,1.47c-0.11,0.32-0.12,0.67-0.03,0.95c0.09,0.29,0.25,0.47,0.42,0.57c0.3,0.19,0.77,0.32,1.45,0.39
		c0.23,0.03,0.48,0.01,0.73-0.02c0.33-0.19,0.68-0.35,1.05-0.48c0.09-0.03,0.18-0.06,0.27-0.08c0.54-0.46,0.84-1.17,0.87-1.81
		c0.03-0.32,0-0.62-0.05-0.84C110.71,94.23,110.63,94.09,110.53,94z"/>
	<path class="st1" d="M106.76,105.66c0.11,0.08,0.24,0.14,0.45,0.18c0.21,0.03,0.46,0.04,0.73,0c0.55-0.06,1.12-0.31,1.62-0.65
		c0.17-0.12,0.33-0.26,0.48-0.4c0.09-0.38,0.26-0.71,0.46-0.99c0.15-0.2,0.31-0.38,0.47-0.56c0.06-0.32,0.03-0.64-0.15-0.87
		c-0.04-0.05-0.08-0.1-0.13-0.14c-0.56,0.46-1.2,0.84-1.95,1.06c-0.43,0.12-0.9,0.18-1.4,0.1c-0.16-0.02-0.31-0.07-0.47-0.13
		c-0.08,0.12-0.14,0.23-0.2,0.36c0,0,0,0.01,0,0.01c-0.02,0.31-0.12,0.59-0.25,0.83c-0.03,0.29-0.02,0.56,0.05,0.77
		C106.55,105.46,106.66,105.58,106.76,105.66z"/>
	<path class="st0" d="M46.46,64.22l1.18-1.32c0.24-0.27,0.48-0.54,0.72-0.81c-9.11-8.41-19.71-18.15-23.8-22.11
		c-0.94,1.02-1.86,2.04-2.78,3.08c6.13,5.84,11.56,10.96,17.71,16.87c1.66,1.6,4.07,3.89,5.87,5.64
		C45.73,65.12,46.09,64.66,46.46,64.22z"/>
	<path class="st4" d="M81.02,97.1c3.38-3.06,7-5.86,10.81-8.39c3.83-2.5,7.83-4.74,11.98-6.71c2.11-0.91,4.19-1.88,6.36-2.64
		l1.61-0.61l0.31-0.12l-2.19-2.04l-0.58-0.53l-1.54,0.66c-1.03,0.46-2.08,0.87-3.1,1.36l-3.03,1.51c-0.51,0.24-1,0.51-1.49,0.8
		l-1.47,0.83l-1.47,0.83c-0.48,0.29-0.95,0.6-1.43,0.89c-0.93,0.6-5.63,3.72-5.63,3.72l-2.7,2.02c-3.56,2.74-7.03,5.64-10.27,8.8
		c-1.59,1.6-3.18,3.23-4.62,4.97c-0.72,0.87-1.43,1.76-2.09,2.67c-0.15,0.22-0.35,0.48-0.46,0.68c-0.04,0.1-0.05,0.22-0.01,0.32
		c0.03,0.09,0.14,0.19,0.24,0.3l0.29,0.32l0.14,0.16c0.04,0.04,0.08,0.08,0.14,0.1c0.21,0.1,0.5,0.03,0.65-0.16
		c1.47-1.74,3.03-3.39,4.62-5.02C77.66,100.18,79.32,98.62,81.02,97.1z"/>
	<path class="st4" d="M55.82,61.04c3.27-3.38,6.78-6.53,10.5-9.39c1.85-1.45,3.74-2.84,5.67-4.17c1.93-1.33,3.89-2.62,5.92-3.81
		c0.22-0.13,0.35-0.4,0.27-0.62c-0.03-0.1-0.15-0.2-0.24-0.31l-0.29-0.33c-0.11-0.12-0.18-0.22-0.28-0.25
		c-0.11-0.04-0.23-0.04-0.34,0c-0.24,0.1-0.52,0.25-0.78,0.37c-1.05,0.52-2.07,1.09-3.08,1.68c-2.02,1.17-3.95,2.5-5.87,3.82
		c-3.79,2.72-7.37,5.7-10.81,8.8l-2.55,2.37c-0.83,0.81-1.63,1.65-2.45,2.47c-0.83,0.81-1.59,1.68-2.38,2.53l-1.18,1.28
		c-0.38,0.44-0.74,0.89-1.11,1.33c-0.73,0.89-1.51,1.76-2.21,2.68l-2.09,2.78c-0.36,0.46-0.67,0.94-0.99,1.42l-0.96,1.45l-0.96,1.45
		l-0.07,0.1l0.38,0.51l1.91,2.52l0.23-0.38l0.91-1.52c1.17-2.05,2.54-3.97,3.85-5.92C49.55,68.06,52.57,64.45,55.82,61.04z"/>
	<path class="st3" d="M72.18,102.15c0.45-0.62,0.91-1.24,1.38-1.85c-3.13-2.63-6.17-5.35-9.16-8.13c-1.55-1.45-3.1-2.9-4.62-4.37
		c-1.53-1.46-3.05-2.94-4.53-4.46c-2.89-2.97-5.68-6.04-8.56-9.02c-0.84,1.28-1.66,2.58-2.4,3.92c0.05,0.06,0.11,0.11,0.16,0.17
		c2,2.11,4.05,4.17,6.08,6.25c2.21,2.25,4.36,4.55,6.46,6.9l3.17,3.48c0.54,0.57,1.07,1.15,1.62,1.7c0.54,0.57,1.09,1.13,1.65,1.67
		c1.12,1.09,2.25,2.17,3.43,3.19c1.18,1.01,2.42,2,3.78,2.74C71.15,103.6,71.65,102.87,72.18,102.15z"/>
	<path class="st4" d="M88.46,93.49c2.83-2.5,5.82-4.83,8.97-6.91c0.1-0.06,0.19-0.12,0.29-0.18c-1.82,0.98-3.61,2.01-5.36,3.11
		c-3.86,2.38-7.55,5.02-11.07,7.89c-3.49,2.9-6.34,6.52-9.22,10.03c-0.19,0.25-0.2,0.29-0.32,0.38c0.61,0.57,2.46,2.67,2.46,2.67
		c1.79-3.19,3.91-6.17,6.27-8.96C82.91,98.64,85.65,96.01,88.46,93.49z"/>
	<path class="st3" d="M95.12,123.22c-0.5-0.08-1.04-0.33-1.42-0.78c-0.39-0.45-0.5-1.05-0.44-1.53c0.06-0.49,0.27-0.89,0.51-1.23
		c0.31-0.42,0.66-0.75,1.02-1.06c-0.31,0.12-0.63,0.22-0.97,0.27c-0.43,0.06-0.89,0.04-1.33-0.07c-0.45-0.12-0.89-0.39-1.17-0.77
		c-0.16-0.22-0.25-0.47-0.29-0.72c-1.05-0.75-2.05-1.55-3.01-2.38c-1.13-0.97-2.21-1.99-3.29-3.02c-1.05-1.05-2.1-2.1-3.09-3.22
		c-0.95-1.05-2.09-1.93-3.22-2.71c-1.05,1.28-1.56,1.98-2.55,3.3c1.79,1.12,3.4,2.42,4.95,3.77c1.68,1.44,3.08,3.16,4.6,4.76
		l4.53,4.83c1.2,1.32,2.41,2.63,3.61,3.95c-0.11-0.32-0.15-0.66-0.12-0.95c0.06-0.49,0.27-0.89,0.51-1.23
		c0.36-0.49,0.77-0.87,1.2-1.21C95.15,123.22,95.14,123.22,95.12,123.22z"/>
	<path class="st3" d="M41.11,71.28l1.05-1.47c-1.58-1.53-3.19-3.03-4.82-4.51l-4.71-4.28l-4.67-4.33c-2.86-2.73-6.65-6.7-9.62-9.63
		c-0.46,0.55-0.92,1.11-1.38,1.66l-0.87,1.07c1.67,2.12,3.44,4.21,5.22,6.27c1.88,2.17,3.85,4.27,5.87,6.31
		c1.01,1.02,2.03,2.05,3.06,3.06c1.02,1.03,2.04,2.04,3.08,3.05c1.9,1.79,3.82,3.63,5.93,5.11c0.08,0.06,0.16,0.11,0.24,0.16l0.63-1
		C40.45,72.25,40.76,71.75,41.11,71.28z"/>
	<path class="st4" d="M15.19,43.69c1.76-1.77,3.56-3.5,5.43-5.17c3.7-3.36,7.63-6.48,11.76-9.34c4.13-2.84,8.47-5.4,12.95-7.68
		c2.25-1.13,4.53-2.2,6.85-3.17c0.58-0.25,1.17-0.47,1.75-0.71l0.75-0.3l-0.22-0.2l-0.68-0.64l-1.37-1.28l-0.51-0.48l-0.19,0.09
		L50,15.59c-1.12,0.53-2.24,1.06-3.34,1.62c-2.22,1.11-4.37,2.34-6.49,3.61c-2.13,1.26-4.19,2.63-6.23,4.04
		c-2.04,1.39-4.04,2.86-5.98,4.4c-3.89,3.05-7.69,6.26-11.25,9.72c-1.77,1.74-3.5,3.53-5.13,5.41c-0.81,0.95-1.6,1.9-2.35,2.89
		c-0.31,0.5-1,1.02-0.49,1.43l0.31,0.35c0.11,0.11,0.2,0.25,0.3,0.3c0.23,0.11,0.55,0.01,0.72-0.2
		C11.7,47.26,13.43,45.46,15.19,43.69z"/>
	<path class="st3" d="M11.2,44.1c0.53-0.7,1.08-1.38,1.63-2.06c-3.14-3.18-6.6-6.8-9.77-10.2c-0.66,0.45-1.15,1.12-1.53,1.82
		c-0.25,0.46-0.46,0.95-0.62,1.44c-0.08,0.22-0.06,0.35,0,0.49c0.03,0.07,0.07,0.11,0.13,0.17l0.3,0.27l9.47,8.59
		C10.94,44.44,11.07,44.27,11.2,44.1z"/>
	<path class="st1" d="M98.41,122.1c-0.55,0.43-1.16,0.8-1.89,1.01c-0.33,0.09-0.68,0.14-1.04,0.13c-0.39,0.44-0.66,0.98-0.73,1.52
		c-0.05,0.33-0.04,0.64,0.03,0.88c0.07,0.24,0.18,0.39,0.3,0.48c0.12,0.1,0.27,0.16,0.5,0.21c0.23,0.04,0.5,0.04,0.79,0
		c0.58-0.07,1.19-0.34,1.72-0.7c0.52-0.38,0.99-0.86,1.27-1.42c0.29-0.55,0.37-1.18,0.05-1.59
		C99.21,122.35,98.84,122.17,98.41,122.1z"/>
	<path class="st4" d="M27.39,35.57c3.3-3.06,6.79-5.91,10.46-8.5c0.53-0.37,1.07-0.72,1.61-1.08c-2.23,1.26-4.42,2.59-6.55,4
		c-4.17,2.71-8.19,5.67-12.03,8.85c-3.81,3.21-7.46,6.64-10.66,10.46c-0.14,0.18-0.37,0.3-0.6,0.32l0.67,0.58l0.63,0.56
		c0.22,0.19,0.4,0.37,0.62,0.48c0.87,0.49,2.03,0.22,2.66-0.48c0.16-0.16,0.28-0.37,0.45-0.62c0.15-0.24,0.31-0.47,0.47-0.7
		l0.97-1.38c0.66-0.91,1.34-1.8,2.04-2.69C20.92,41.83,24.08,38.62,27.39,35.57z"/>
	<path class="st3" d="M80.01,48.19c-1.47,0.77-2.93,1.56-4.37,2.37c3,2.8,5.43,4.97,8.43,7.94c6.15,6.15,12.91,12.05,18.66,18.59
		l1.23-0.56c0.92-0.42,1.87-0.77,2.81-1.15c-0.75-1.08-1.6-2.16-2.45-3.2c-1.03-1.24-2.08-2.47-3.17-3.67
		c-2.16-2.41-4.39-4.78-6.68-7.1c-2.31-2.31-4.6-4.65-6.94-6.92c-2.31-2.24-4.67-4.43-7.08-6.56
		C80.28,48.04,80.12,48.13,80.01,48.19z"/>
	<path class="st1" d="M102.45,115.03c-0.05-0.24-0.07-0.48-0.04-0.7c0.05-0.4,0.2-0.75,0.39-1.05c-0.03-0.06-0.06-0.11-0.1-0.17
		c-0.3-0.43-1.02-0.62-1.72-0.54c-0.19,0.02-0.39,0.06-0.58,0.12c-0.45,0.37-0.95,0.7-1.53,0.93c-0.44,0.46-0.76,1.05-0.84,1.63
		c-0.05,0.33-0.04,0.64,0.03,0.88c0.07,0.24,0.18,0.39,0.3,0.48c0.12,0.1,0.27,0.16,0.5,0.21c0.23,0.04,0.5,0.04,0.79,0
		c0.58-0.07,1.19-0.34,1.72-0.7C101.79,115.82,102.17,115.45,102.45,115.03z"/>
	<path class="st1" d="M118.86,113.08c-0.5-0.08-1.04-0.33-1.42-0.78c-0.05-0.06-0.09-0.14-0.14-0.21c-0.4,0.13-0.78,0.35-1.12,0.61
		c-0.25,0.6-0.63,1.12-1.07,1.57c-0.03,0.12-0.07,0.23-0.08,0.35c-0.05,0.33-0.04,0.64,0.03,0.88c0.02,0.08,0.05,0.15,0.08,0.21
		c0.35,0.06,0.71,0.21,1,0.49c0,0,0.01,0.01,0.01,0.01c0.16,0,0.32,0,0.5-0.02c0.58-0.07,1.19-0.34,1.72-0.7
		c0.52-0.38,0.99-0.86,1.27-1.42c0.18-0.33,0.27-0.7,0.25-1.02C119.56,113.12,119.22,113.13,118.86,113.08z"/>
	<path class="st1" d="M109.81,115.15c-0.11-0.13-0.19-0.26-0.26-0.41c-0.18-0.02-0.37-0.02-0.56,0c-0.28,0.03-0.55,0.1-0.81,0.2
		c-0.11,0.12-0.22,0.23-0.34,0.34c-0.38,0.33-0.79,0.62-1.25,0.86c-0.28,0.39-0.48,0.84-0.54,1.28c-0.05,0.33-0.04,0.64,0.03,0.88
		c0.07,0.24,0.18,0.39,0.3,0.48c0.12,0.1,0.27,0.16,0.5,0.21c0.23,0.04,0.5,0.04,0.79,0c0.58-0.07,1.19-0.34,1.72-0.7
		c0.52-0.38,0.99-0.86,1.27-1.42c0.18-0.33,0.27-0.7,0.25-1.03C110.52,115.73,110.11,115.5,109.81,115.15z"/>
	<path class="st1" d="M121.99,107.22c-0.06,0.02-0.11,0.05-0.17,0.06c-0.42,0.11-0.88,0.17-1.36,0.1c-0.11,0.04-0.21,0.08-0.31,0.13
		c0,0.01-0.01,0.02-0.01,0.03c-0.3,0.79-0.82,1.44-1.42,1.99c-0.13,0.12-0.28,0.23-0.42,0.34c0,0,0,0.01,0,0.01
		c-0.05,0.33-0.04,0.64,0.03,0.88c0.07,0.24,0.18,0.39,0.3,0.48c0.11,0.09,0.26,0.16,0.47,0.2c0.03,0,0.05,0.01,0.08,0.01
		c0.22,0.03,0.47,0.03,0.73-0.01c0.58-0.07,1.19-0.34,1.72-0.7c0.52-0.38,0.99-0.86,1.27-1.42c0.29-0.55,0.37-1.18,0.05-1.59
		C122.76,107.47,122.4,107.29,121.99,107.22z"/>
	<path class="st1" d="M123.42,102.32c-0.43-0.07-0.91-0.29-1.26-0.68c-0.47,0.15-0.92,0.41-1.3,0.73c-0.54,0.48-0.91,1.15-1.01,1.81
		c-0.05,0.33-0.04,0.64,0.03,0.88c0,0.02,0.01,0.03,0.02,0.05c0.11,0.13,0.2,0.27,0.26,0.42c0.01,0,0.01,0.01,0.02,0.01
		c0.12,0.1,0.27,0.16,0.5,0.21c0.23,0.04,0.5,0.04,0.79,0c0.58-0.07,1.19-0.34,1.72-0.7c0.52-0.38,0.99-0.86,1.27-1.42
		c0.25-0.47,0.34-1,0.16-1.4C124.26,102.33,123.86,102.38,123.42,102.32z"/>
	<path class="st2" d="M15.9,38.35c-4.27-4.25-8.59-8.45-12.94-12.61c-0.32,0.15-0.63,0.32-0.84,0.58c-0.23,0.26-0.39,0.57-0.48,0.9
		c-0.09,0.34-0.12,0.69-0.11,1.04c0.01,0.31,0.06,0.63,0.13,0.92c4,3.53,8.47,7.7,12.37,11.38C14.64,39.82,15.26,39.08,15.9,38.35z"
		/>
	<path class="st1" d="M109.59,119.83c-0.03-0.01-0.06-0.01-0.09-0.02c-0.44,0.3-0.93,0.55-1.48,0.71c-0.36,0.1-0.76,0.15-1.17,0.12
		c-0.01,0.01-0.02,0.01-0.03,0.02c-0.25,0.23-0.47,0.5-0.64,0.79c0.14,0.27,0.22,0.57,0.24,0.85c0.03,0.45-0.07,0.88-0.22,1.27
		c-0.03,0.08-0.07,0.14-0.1,0.22c0.02,0.02,0.03,0.03,0.05,0.05c0.12,0.1,0.27,0.16,0.5,0.21c0.23,0.04,0.5,0.04,0.79,0
		c0.58-0.07,1.19-0.34,1.72-0.7c0.52-0.38,0.99-0.86,1.27-1.42c0.04-0.07,0.07-0.14,0.1-0.2c-0.18-0.11-0.35-0.25-0.5-0.42
		C109.65,120.87,109.54,120.3,109.59,119.83z"/>
	<path class="st1" d="M104.51,121.1c-0.05,0.05-0.1,0.1-0.15,0.15c-0.61,0.54-1.33,1-2.18,1.25c-0.35,0.1-0.73,0.15-1.13,0.12
		c-0.22,0.35-0.37,0.72-0.42,1.1c-0.05,0.33-0.04,0.64,0.03,0.88c0.07,0.24,0.18,0.39,0.3,0.48c0.12,0.1,0.27,0.16,0.5,0.21
		c0.23,0.04,0.5,0.04,0.79,0c0.58-0.07,1.19-0.34,1.72-0.7c0.21-0.15,0.41-0.33,0.59-0.51c-0.05-0.24-0.07-0.48-0.04-0.7
		c0.06-0.49,0.27-0.89,0.51-1.23c0.11-0.15,0.23-0.29,0.35-0.42c-0.03-0.05-0.05-0.1-0.09-0.14
		C105.13,121.35,104.85,121.19,104.51,121.1z"/>
	<path class="st1" d="M101.84,120.96c0.58-0.07,1.19-0.34,1.72-0.7c0.5-0.36,0.94-0.82,1.23-1.34c-0.03-0.21-0.05-0.41-0.02-0.6
		c0.04-0.3,0.13-0.57,0.26-0.81c-0.03-0.09-0.08-0.18-0.14-0.26c-0.3-0.43-1.02-0.62-1.72-0.54c-0.26,0.02-0.52,0.1-0.77,0.19
		c-0.07,0.07-0.14,0.14-0.21,0.21c-0.4,0.35-0.86,0.67-1.36,0.92c-0.21,0.27-0.37,0.56-0.48,0.87c-0.01,0.25-0.06,0.5-0.13,0.73
		c-0.01,0.24-0.01,0.47,0.05,0.65c0.07,0.24,0.18,0.39,0.3,0.48c0.12,0.1,0.27,0.16,0.5,0.21C101.28,121,101.55,121,101.84,120.96z"
		/>
	<path class="st0" d="M105.39,120.03c-0.12,0.19-0.25,0.37-0.39,0.54c0.32,0.07,0.64,0.22,0.89,0.47c0.03,0.03,0.05,0.07,0.08,0.1
		c0.21-0.18,0.43-0.35,0.64-0.52C106.19,120.56,105.74,120.36,105.39,120.03z"/>
	<path class="st1" d="M114.17,117.05c-0.22-0.25-0.34-0.55-0.4-0.84c-0.69,0.08-1.35,0.4-1.88,0.86c-0.12,0.11-0.23,0.23-0.33,0.35
		c-0.15,0.35-0.34,0.68-0.56,0.98c-0.05,0.16-0.1,0.32-0.12,0.48c-0.04,0.29-0.03,0.56,0.02,0.79c0.06,0.04,0.12,0.08,0.17,0.13
		c0.16,0.16,0.29,0.36,0.37,0.57c0.08,0.03,0.17,0.06,0.27,0.08c0.23,0.04,0.5,0.04,0.79,0c0.58-0.07,1.19-0.34,1.72-0.7
		c0.52-0.38,0.99-0.86,1.27-1.42c0.08-0.16,0.15-0.33,0.19-0.49c-0.03,0-0.06,0-0.1-0.01C115.09,117.75,114.55,117.5,114.17,117.05z
		"/>
	<path class="st2" d="M97.77,79.58l1.52-0.81c0.5-0.28,1.02-0.54,1.54-0.77l0.39-0.23c-6.52-5.74-12.24-11.94-18.36-18.07
		c-2.99-3.03-5.32-5.57-8.16-8.61c-0.09,0.05-0.18,0.1-0.27,0.15c-1.22,0.71-2.44,1.42-3.65,2.15c2.88,2.6,5.78,5.17,8.58,7.85
		c6.2,6,12.3,12.11,18.13,18.49L97.77,79.58z"/>
	<path class="st3" d="M52.76,19.91c-0.12-0.07-0.22-0.12-0.33-0.17c-1.65,0.66-3.28,1.36-4.89,2.11l3.09,3.19l4.68,4.88
		c3.09,3.28,6.15,6.59,9.28,9.84c1.81,1.87,3.64,3.71,5.5,5.52c0.94-0.51,1.88-1.01,2.84-1.48c0.73-0.37,1.48-0.73,2.23-1.08
		c-1.68-2.16-3.54-4.25-5.4-6.3c-1.89-2.05-3.77-4.1-5.69-6.12c-1.92-2.02-3.83-4.03-5.83-5.93c-1-0.95-2.02-1.87-3.07-2.74
		c-0.53-0.42-1.06-0.85-1.6-1.21C53.29,20.23,53.02,20.06,52.76,19.91z"/>
	<path class="st3" d="M91.84,83.12c0.46-0.34,0.96-0.63,1.45-0.93l1.48-0.9c0.49-0.3,0.98-0.61,1.48-0.89l0.41-0.22
		c-6.54-5.6-12.31-11.76-18.48-17.74c-2.83-2.77-5.56-5.65-8.31-8.51c-1.64,0.99-3.25,2.02-4.84,3.09c3.15,2.85,5.71,5.13,8.84,8.13
		c6.08,5.88,12.05,11.86,17.78,18.11L91.84,83.12z"/>
	<path class="st0" d="M20.08,33.88c-4.62-4.58-10.1-9.93-14.66-14.53c-0.99,0.19-1.92,0.58-2.59,1.26C2.45,20.99,2.18,21.46,2,21.97
		c-0.16,0.47-0.24,1.01-0.22,1.49c2.68,2.69,13.01,12.03,15.04,13.87C17.88,36.16,18.97,35.01,20.08,33.88z"/>
	<path class="st2" d="M86.27,87.18l2.74-2.1l1.53-1.1c-6.41-5.51-11.81-11.76-17.86-17.63c-3.15-3.08-5.44-5.68-8.45-8.8
		c-0.19,0.13-0.39,0.26-0.58,0.39c-1.5,1.06-2.97,2.18-4.41,3.33c3.14,2.82,6.74,6.03,9.76,8.91c5.8,5.59,11.5,11.29,16.95,17.25
		C86.06,87.36,86.16,87.27,86.27,87.18z"/>
	<path class="st0" d="M80.26,92.63c-3.02-2.76-5.58-5.98-8.57-8.76l-9.66-9.09c-1.77-1.69-4.97-4.67-8.79-8.21
		c-1.18,1.13-2.33,2.3-3.44,3.51l8.41,8.36c6.08,6.12,12.8,11.55,18.73,17.81C76.99,96.18,78.78,94.11,80.26,92.63z"/>
	<path class="st2" d="M48.79,71.24c-0.32,0.45-0.65,0.89-0.97,1.35c-0.24,0.38-0.49,0.75-0.73,1.13c3.08,2.84,6.25,5.61,9.32,8.47
		c1.55,1.45,3.06,2.93,4.56,4.44c1.51,1.49,2.99,3.01,4.47,4.53c2.83,2.92,5.97,5.33,8.66,8.39c0.77-0.99,1.19-1.39,2-2.35
		c-6.38-5.83-12.68-11.75-18.92-17.72L48.79,71.24z"/>
	<path class="st2" d="M21.29,43.63c-0.55,0.63-1.09,1.25-1.63,1.88c2.95,2.96,6.68,7.12,9.5,9.96l4.42,4.57l4.38,4.62
		c1.49,1.57,3,3.12,4.54,4.65l0.65-0.92c0.36-0.5,0.74-0.99,1.13-1.47c-1.84-1.79-4.29-4.13-5.97-5.81
		C32.32,55.08,27.22,49.65,21.29,43.63z"/>
	<path class="st3" d="M83.64,89.41c0.68-0.57,0.86-0.73,1.54-1.29c-6.15-5.22-11.56-11.13-17.35-16.71
		c-3.02-2.94-6.37-6.48-9.32-9.53c-1.4,1.15-2.77,2.35-4.1,3.59c3.77,3.57,6.91,6.57,8.63,8.3l9.3,9.46
		c2.85,2.93,5.68,5.83,8.5,8.79C80.93,91.91,82.76,90.15,83.64,89.41z"/>
	<path class="st4" d="M78,43.83c-2.03,1.16-4,2.44-5.9,3.8c-0.95,0.68-1.89,1.39-2.8,2.11c-0.93,0.71-1.82,1.47-2.73,2.21
		c-3.56,3.04-6.92,6.28-10.05,9.73c-1.6,1.75-3.14,3.55-4.62,5.4c0.49-0.52,0.97-1.05,1.48-1.56c3.01-3.03,6.25-5.83,9.67-8.4
		c3.41-2.58,6.96-5,10.76-7.01c1.9-0.99,3.83-1.93,5.82-2.74c0.92-0.24,1.34-1.19,0.56-1.92c-0.56-0.76-1.13-1.51-1.68-2.28
		C78.47,43.46,78.23,43.71,78,43.83z"/>
	<path class="st3" d="M32.8,23.25c0.88-0.6,1.78-1.19,2.68-1.76c-4.36-4.19-9.08-8.95-13.45-13.41c-0.34-0.29-0.68-0.57-1.01-0.86
		l-0.14-0.13l-0.01-0.19c-0.48-0.49-0.95-0.97-1.41-1.45c-0.44,0.04-0.93,0.14-1.35,0.3c-0.54,0.2-1.02,0.49-1.42,0.88
		C16.1,7.2,15.75,8,15.6,8.86c5.2,4.79,10.99,10.29,16.03,15.23C32.02,23.81,32.41,23.52,32.8,23.25z"/>
	<path class="st2" d="M39.2,19.21c0.6-0.34,1.2-0.67,1.8-1.01C36.03,13.27,30.63,7.57,25.83,2.49c-0.44,0.04-0.93,0.14-1.35,0.3
		c-0.54,0.2-1.02,0.49-1.42,0.88c-0.56,0.55-0.9,1.3-1.06,2.11c5.03,4.66,10.44,9.89,15.24,14.6C37.9,19.99,38.54,19.59,39.2,19.21z
		"/>
	<path class="st2" d="M12.81,16.24L13,16.27l0.23,0.22l4.7,4.35c1.55,1.43,6.36,6.05,8.03,7.63c0.27-0.22,0.52-0.46,0.79-0.68
		c1.05-0.85,2.13-1.68,3.21-2.49c-4.74-4.55-9.97-9.79-14.65-14.55c-0.22-0.19-0.45-0.38-0.67-0.58l-0.14-0.13L14.5,9.9
		c-0.18-0.18-0.36-0.37-0.53-0.55c-0.44,0.04-0.93,0.14-1.35,0.3c-0.54,0.2-1.02,0.49-1.42,0.88c-0.76,0.74-1.11,1.84-1.16,2.99
		c0.54,0.6,1.08,1.2,1.61,1.82c0.25,0.29,0.49,0.58,0.73,0.86C12.52,16.22,12.66,16.23,12.81,16.24z"/>
	<path class="st3" d="M42.86,17.21c1-0.52,2.01-1.03,3.03-1.51c0.46-0.22,0.92-0.44,1.39-0.65l-4.42-4.69
		c-2.8-2.94-5.59-5.88-8.35-8.85c-0.44,0.04-0.92,0.15-1.34,0.3c-0.54,0.2-1.02,0.49-1.42,0.88c-0.62,0.6-0.97,1.46-1.11,2.38
		C34.76,9.06,39,13.29,42.86,17.21z"/>
	<path class="st3" d="M24.44,29.76c-1.74-1.71-6.33-6.17-7.78-7.64l-2.27-2.29l-2.1-2.16c-0.37-0.07-0.82-0.1-1.23-0.07
		c-0.5,0.04-1,0.16-1.45,0.38c-0.45,0.23-0.87,0.53-1.23,0.93c-0.22,0.25-0.41,0.53-0.58,0.83c4.37,4.14,9.31,8.8,13.54,12.87
		C22.35,31.64,23.39,30.69,24.44,29.76z"/>
	<path class="st3" d="M50.04,60.28c0.84-0.83,1.67-1.68,2.52-2.49l0.99-0.9c-1.31-1.28-2.62-2.54-3.96-3.79
		c-3.15-2.93-6.37-5.8-9.57-8.69l-4.75-4.38l-5.61-5.22c-0.52,0.5-1.05,0.99-1.57,1.49c-0.74,0.73-1.46,1.47-2.17,2.22
		c4.02,3.94,14.54,13.78,23.58,22.31C49.68,60.64,49.86,60.46,50.04,60.28z"/>
	<path class="st3" d="M64.56,48.52c-1.87-1.86-3.77-3.69-5.69-5.49c-3.34-3.11-6.74-6.16-10.11-9.24l-5.02-4.66l-3.08-3.3
		c-0.81,0.57-1.62,1.16-2.42,1.76c-0.56,0.42-1.11,0.86-1.66,1.29l2.89,2.93l4.82,4.86c3.18,3.27,6.34,6.57,9.56,9.81
		c1.87,1.86,3.75,3.7,5.67,5.52C61.15,50.77,62.83,49.61,64.56,48.52z"/>
	<path class="st2" d="M55.19,55.4c1.23-1.06,2.5-2.06,3.8-3.04c-1.85-1.83-3.73-3.64-5.63-5.42c-3.34-3.11-6.74-6.16-10.11-9.24
		l-5.02-4.66l-3.11-3.03c-1.39,1.13-2.75,2.31-4.08,3.51l5.43,5.28l4.54,4.59c3,3.09,5.98,6.2,9.02,9.25
		c1.3,1.3,2.63,2.57,3.96,3.84L55.19,55.4z"/>
	<path class="st2" d="M66.72,47.17c0.93-0.54,1.86-1.07,2.79-1.59c-1.77-1.82-3.58-3.6-5.4-5.37c-3.25-3.13-6.56-6.19-9.84-9.28
		l-4.88-4.68l-3.61-3.58c-0.59,0.29-1.18,0.59-1.77,0.89c-0.62,0.4-1.23,0.81-1.85,1.22l2.78,3.1l4.82,4.86
		c3.18,3.27,6.34,6.57,9.56,9.81c1.9,1.9,3.83,3.77,5.78,5.62C65.65,47.84,66.18,47.5,66.72,47.17z"/>
	<path class="st5" d="M127.36,96.18c-0.32-0.54-0.65-1.07-1-1.6c-0.34-0.52-0.57-1.14-1.06-1.55c-0.26-0.23-0.54-0.44-0.85-0.62
		c0-0.02,0-0.03-0.02-0.05c-1.28-1.49-2.61-2.94-3.91-4.41c-1.3-1.47-2.64-2.91-3.97-4.36c-1.18-1.27-2.36-2.53-3.54-3.79
		c0.06-0.02,0.12-0.05,0.18-0.09c0.28-0.18,0.5-0.47,0.56-0.84c0.03-0.18,0.01-0.38-0.06-0.58c-0.04-0.1-0.09-0.19-0.15-0.27
		c-0.06-0.08-0.15-0.16-0.15-0.17l-2.44-2.38l-0.61-0.6l-0.08-0.07l-0.04-0.04c-0.04-0.03-0.08-0.07-0.12-0.1
		c-0.17-0.12-0.36-0.2-0.54-0.22c-0.19-0.03-0.37-0.02-0.54,0.03c-0.04,0.01-0.09,0.03-0.12,0.04l-0.05,0.02l-0.1,0.04l-0.45,0.18
		c-0.48-0.68-1.82-2.59-2.66-3.65c-1.03-1.29-2.13-2.52-3.24-3.74c-1.12-1.21-2.28-2.38-3.45-3.52c-1.19-1.13-2.4-2.25-3.62-3.34
		L88,53.98c-2.21-1.97-6.35-5.76-7.12-6.46c0.17-0.22,0.31-0.46,0.38-0.73c0.07-0.33,0.06-0.68-0.08-0.99
		c-0.06-0.16-0.16-0.3-0.27-0.42l-0.27-0.29c-0.75-0.76-1.47-1.54-2.24-2.28c0,0-0.01,0-0.01,0c-0.1-0.08-0.71-0.73-0.71-0.73
		c-0.06-0.07-0.14-0.12-0.22-0.16c-0.17-0.07-0.35-0.07-0.52-0.02c-0.3,0.12-0.55,0.24-0.82,0.36c-0.08,0.04-0.15,0.07-0.23,0.11
		c-0.43-0.59-3.52-4.76-5.15-6.78c-1.76-2.18-3.6-4.28-5.44-6.38c-1.84-2.1-3.74-4.17-5.74-6.17c-1-0.99-2.03-1.97-3.11-2.91
		c-0.53-0.45-1.06-0.89-1.64-1.31l0.52-0.2c0.07-0.02,0.5-0.18,0.69-0.43c0.21-0.25,0.38-0.6,0.3-1.04
		c-0.03-0.21-0.18-0.46-0.32-0.58l-0.17-0.16l-0.34-0.33l-0.67-0.65l-1.34-1.3l-0.67-0.65c-0.35-0.34-0.84-0.39-1.17-0.29
		c-0.07,0.02-0.21,0.07-0.22,0.08L51.3,13.3l-0.22,0.09l-1.74,0.73c-0.04,0.02-0.07,0.03-0.11,0.05l-4.98-5.15
		c-2.95-2.94-5.92-5.87-8.9-8.78L35.1,0l-0.29,0.02c-0.8,0.05-1.47,0.23-2.16,0.53c-0.67,0.3-1.31,0.73-1.81,1.29
		c-0.5,0.56-0.86,1.24-1.05,1.94c-0.04,0.13-0.06,0.25-0.09,0.38c-1.03-0.99-2.05-1.97-3.05-2.92L26.4,0.99l-0.28,0.02
		c-0.8,0.05-1.47,0.23-2.16,0.53c-0.67,0.29-1.31,0.73-1.81,1.28c-0.5,0.56-0.86,1.24-1.05,1.93c-0.01,0.05-0.02,0.11-0.04,0.16
		c-0.27-0.25-0.54-0.5-0.8-0.74l-0.24-0.22l-0.28,0.02c-0.8,0.05-1.47,0.23-2.16,0.53c-0.67,0.29-1.31,0.73-1.81,1.28
		c-0.5,0.56-0.86,1.24-1.05,1.93c-0.03,0.09-0.04,0.19-0.06,0.28l-0.14-0.12l-0.28,0.02c-0.8,0.05-1.47,0.23-2.16,0.53
		c-0.67,0.29-1.31,0.73-1.81,1.28c-0.5,0.56-0.86,1.24-1.05,1.93c-0.2,0.7-0.25,1.41-0.23,2.1l0.01,0.23l0.14,0.13
		c0.67,0.59,1.34,1.17,2.03,1.74c0.17,0.14,0.34,0.28,0.51,0.42c-0.28,0.03-0.55,0.08-0.83,0.14c-0.62,0.15-1.23,0.42-1.75,0.79
		c-0.53,0.37-0.94,0.87-1.23,1.4c-0.16,0.29-0.28,0.59-0.38,0.89c-0.47-0.44-0.93-0.88-1.38-1.31l-0.27-0.26l-0.33,0.07
		c-1.27,0.29-2.59,0.87-3.49,1.94c-0.45,0.52-0.77,1.15-0.94,1.8c-0.17,0.66-0.23,1.3-0.13,2l0.02,0.14l0.1,0.1
		c0.58,0.55,1.15,1.1,1.72,1.65c-0.33,0.1-0.66,0.24-0.93,0.48c-0.31,0.27-0.55,0.62-0.71,1c-0.15,0.38-0.23,0.78-0.27,1.18
		c-0.03,0.41-0.03,0.79,0.04,1.22l0.01,0.09l0.09,0.1c0.59,0.64,1.19,1.29,1.81,1.95C2.1,32,1.48,32.65,1.01,33.34
		c-0.33,0.46-0.6,0.95-0.84,1.46c-0.15,0.27-0.23,0.72-0.09,1.09c0.06,0.19,0.19,0.37,0.32,0.5l0.28,0.3l9.26,9.11
		c-0.32,0.44-0.63,0.87-0.94,1.31l-0.53,0.77c-0.1,0.14-0.17,0.33-0.15,0.52c0,0.19,0.16,0.38,0.26,0.47l0.32,0.34
		c0.11,0.1,0.19,0.25,0.38,0.34c0.01,0,0.01,0,0.02,0l0.77,0.86l0.57,0.62c0.19,0.19,0.37,0.44,0.64,0.63
		c1.04,0.76,2.58,0.56,3.53-0.3c1.03,1.27,3.52,4.33,5.07,6c1.98,2.14,4.02,4.23,6.16,6.22c1.07,0.99,2.16,1.94,3.26,2.9
		c1.1,0.95,2.23,1.87,3.36,2.78c1.13,0.92,2.27,1.82,3.43,2.7c0.58,0.45,1.15,0.89,1.74,1.32c0.39,0.28,0.76,0.56,1.16,0.83
		c0.06,0.04,0.15,0.1,0.23,0.15l-0.94,1.49l-0.12,0.19l-0.06,0.09c-0.04,0.07-0.08,0.16-0.11,0.25c-0.06,0.18-0.09,0.38-0.05,0.59
		c0.02,0.1,0.05,0.21,0.09,0.31c0.02,0.05,0.05,0.1,0.08,0.15l0.07,0.1l0.54,0.69l2.17,2.76l0.06,0.08
		c0.03,0.04,0.07,0.08,0.11,0.11c0.08,0.07,0.17,0.13,0.26,0.17c0.19,0.09,0.38,0.12,0.56,0.11c0.35-0.02,0.66-0.17,0.89-0.42
		c0.06-0.06,0.11-0.13,0.15-0.2l0.07-0.12l0.11-0.19l0.22-0.38l0.61-1.07l0.09,0.11l5.46,6.58c2.02,2.42,4.13,4.77,6.31,7.05
		c2.15,2.3,4.39,4.58,6.82,6.64c1.21,1.04,2.46,2.03,3.78,2.93c0.67,0.44,1.34,0.87,2.04,1.27c0.68,0.39,1.38,0.74,2.14,0.98
		c-0.1,0.15-0.21,0.3-0.31,0.45c-0.16,0.25-0.31,0.44-0.47,0.75c-0.06,0.16-0.06,0.35,0.01,0.51c0.08,0.17,0.73,0.92,0.76,0.95
		c0.58,0.68,1.17,1.35,1.76,2.02l1.77,2.01l0.25,0.28l0.24-0.34c0.36-0.51,0.45-0.63,0.82-1.13c1.15,1.74,2.75,2.92,4.12,4.43
		c1.48,1.64,3.23,3.01,4.87,4.49l4.94,4.42c1.67,1.45,3.3,2.94,5,4.36c0.37,0.31,0.73,0.23,1.02,0.27c0.5,0.08,0.97,0.02,1.4-0.1
		c0.86-0.25,1.57-0.71,2.18-1.25c0.25-0.23,0.49-0.49,0.7-0.76c0.06,0.1,0.11,0.19,0.19,0.28c0.38,0.45,0.92,0.7,1.42,0.78
		c0.5,0.08,0.97,0.02,1.4-0.1c0.86-0.25,1.57-0.71,2.18-1.25c0.15-0.14,0.29-0.28,0.43-0.43c0.35,0.3,0.77,0.47,1.17,0.54
		c0.5,0.08,0.97,0.02,1.4-0.1c0.86-0.25,1.57-0.71,2.18-1.25c0.6-0.55,1.12-1.2,1.42-1.99c0.03-0.08,0.06-0.17,0.09-0.25
		c0.49,0.07,0.96,0.01,1.38-0.1c0.86-0.25,1.57-0.71,2.18-1.25c0.6-0.55,1.12-1.2,1.42-1.99c0.11-0.29,0.19-0.61,0.22-0.94
		c0.11-0.02,0.22-0.05,0.32-0.07c0.86-0.25,1.57-0.71,2.18-1.25c0.6-0.55,1.12-1.2,1.42-1.99c0.15-0.39,0.25-0.82,0.22-1.27
		c-0.01-0.14-0.03-0.28-0.07-0.42c0.64-0.26,1.2-0.64,1.7-1.07c0.6-0.55,1.12-1.2,1.42-1.99c0.15-0.39,0.25-0.82,0.22-1.27
		c-0.02-0.44-0.19-0.93-0.53-1.26c-0.19-0.18-0.41-0.31-0.64-0.39c0.4-0.22,0.76-0.49,1.09-0.78c0.6-0.55,1.12-1.2,1.42-1.99
		c0.15-0.39,0.25-0.82,0.22-1.27c-0.02-0.29-0.1-0.59-0.24-0.86c0.43-0.22,0.82-0.5,1.17-0.8c0.53-0.48,0.98-1.05,1.24-1.75
		c0.13-0.35,0.21-0.72,0.18-1.12c-0.01-0.19-0.06-0.4-0.13-0.59C127.78,97.31,127.67,96.73,127.36,96.18z M124.26,94.3
		c0.31,0.41,0.75,0.71,1.12,1.08c0.45,0.44,0.9,0.87,1.37,1.3c0.02,0.02,0.04,0.04,0.07,0.06c-0.13-0.03-0.25-0.06-0.37-0.06
		c-0.37-0.01-0.71,0.06-1.02,0.18c-0.63,0.23-1.17,0.57-1.69,0.94c-0.44,0.33-0.9,0.67-1.31,1.14c-0.05-0.39-0.21-0.79-0.5-1.07
		c-0.15-0.15-0.32-0.25-0.5-0.34c0.49-0.25,0.93-0.55,1.32-0.9c0.6-0.55,1.12-1.2,1.42-1.99C124.19,94.52,124.23,94.41,124.26,94.3z
		 M116.36,110.82c0.06-0.01,0.12-0.02,0.17-0.04c0.17-0.05,0.34-0.12,0.5-0.18c-0.01,0.06-0.03,0.12-0.04,0.18
		c-0.04,0.35,0.01,0.77,0.19,1.15c-0.32,0.16-0.62,0.34-0.91,0.53c0.12-0.36,0.2-0.74,0.18-1.14
		C116.45,111.15,116.41,110.99,116.36,110.82z M116.19,109.25c-0.29,0.04-0.56,0.04-0.79,0c-0.23-0.04-0.38-0.11-0.5-0.21
		c-0.12-0.09-0.23-0.24-0.3-0.48c-0.07-0.24-0.08-0.56-0.03-0.88c0.09-0.66,0.47-1.33,1.01-1.81c0.54-0.47,1.23-0.81,1.94-0.87
		c0.37-0.04,0.74-0.01,1.05,0.1c-0.06,0.48,0.06,1.07,0.44,1.51c0.09,0.1,0.19,0.2,0.29,0.28c-0.03,0.08-0.07,0.17-0.11,0.25
		c-0.29,0.56-0.75,1.04-1.27,1.42C117.37,108.91,116.77,109.18,116.19,109.25z M111.83,115.95c0.28-0.01,0.55-0.06,0.8-0.13
		c0.41-0.12,0.79-0.29,1.14-0.49c-0.01,0.06-0.03,0.13-0.04,0.2c-0.01,0.11-0.02,0.24-0.01,0.36c-0.72,0.25-1.34,0.64-1.93,1.06
		c-0.02,0.02-0.05,0.04-0.07,0.06c0.09-0.31,0.15-0.64,0.13-0.99C111.84,116,111.83,115.97,111.83,115.95z M112.29,114.29
		c-0.29,0.04-0.56,0.04-0.79,0c-0.22-0.04-0.38-0.11-0.5-0.21c-0.12-0.09-0.23-0.24-0.3-0.48c-0.07-0.24-0.08-0.56-0.03-0.88
		c0.08-0.57,0.37-1.13,0.79-1.58c0.26-0.17,0.51-0.36,0.74-0.56c0.04-0.03,0.07-0.07,0.1-0.1c0.41-0.23,0.85-0.4,1.31-0.44
		c0.02,0,0.04,0,0.06,0c0.02,0.02,0.03,0.04,0.04,0.06c0.38,0.45,0.92,0.7,1.42,0.78c0.12,0.02,0.24,0.03,0.36,0.03
		c0.11,0.38,0.01,0.85-0.21,1.27c-0.29,0.56-0.75,1.04-1.27,1.42C113.47,113.96,112.87,114.23,112.29,114.29z M109.41,114.29
		c-0.17,0.03-0.33,0.08-0.49,0.13c-0.15,0.05-0.29,0.11-0.43,0.17c0.32-0.39,0.59-0.82,0.77-1.3c0.15-0.39,0.25-0.82,0.22-1.27
		c0-0.03-0.01-0.06-0.01-0.09c0.18-0.02,0.36-0.06,0.54-0.1c0.19-0.06,0.37-0.13,0.55-0.2c-0.24,0.23-0.47,0.47-0.68,0.75
		c-0.24,0.34-0.45,0.74-0.51,1.23C109.35,113.83,109.36,114.06,109.41,114.29z M103.73,113.35c0.02-0.12,0.05-0.23,0.08-0.34
		c0.21-0.02,0.42-0.06,0.62-0.11c0.82-0.24,1.5-0.68,2.08-1.2c0.22-0.2,0.42-0.42,0.6-0.65c0.03,0.04,0.05,0.08,0.08,0.12
		c0.37,0.43,0.89,0.68,1.38,0.76c0.01,0.31-0.09,0.65-0.25,0.96c-0.29,0.56-0.75,1.04-1.27,1.42c-0.53,0.36-1.14,0.63-1.72,0.7
		c-0.29,0.04-0.56,0.04-0.79,0c-0.23-0.04-0.38-0.11-0.5-0.21c-0.09-0.08-0.18-0.19-0.25-0.36c0.03-0.19,0.05-0.39,0.04-0.59
		C103.81,113.69,103.78,113.52,103.73,113.35z M112.92,105.7c-0.05,0.01-0.1,0.01-0.15,0.01c-0.22-0.09-0.45-0.15-0.66-0.16
		c-0.12-0.01-0.25,0-0.37,0.01c-0.03-0.02-0.07-0.04-0.1-0.06c-0.11-0.09-0.22-0.23-0.29-0.46c0.15-0.24,0.29-0.49,0.39-0.76
		c0.14-0.38,0.23-0.78,0.21-1.22c-0.01-0.1-0.02-0.19-0.04-0.29c0.07-0.09,0.14-0.16,0.21-0.24c0.27,0.16,0.57,0.26,0.85,0.31
		c0.5,0.08,0.97,0.02,1.4-0.1c0.39-0.11,0.75-0.28,1.08-0.47c0.07,0.24,0.18,0.48,0.36,0.68c0.08,0.1,0.17,0.18,0.27,0.26
		c-0.04,0.13-0.1,0.26-0.16,0.38c-0.29,0.56-0.75,1.04-1.27,1.42C114.1,105.36,113.5,105.63,112.92,105.7z M113.47,109.75
		c-0.28,0.1-0.55,0.22-0.8,0.36c0.24-0.27,0.46-0.56,0.64-0.87C113.34,109.41,113.39,109.58,113.47,109.75z M110.81,95.29
		c-0.03,0.64-0.34,1.36-0.87,1.81c-0.09,0.02-0.18,0.05-0.27,0.08c-0.37,0.13-0.72,0.29-1.05,0.48c-0.25,0.03-0.5,0.05-0.73,0.02
		c-0.68-0.07-1.14-0.2-1.45-0.39c-0.17-0.1-0.33-0.28-0.42-0.57c-0.09-0.28-0.08-0.63,0.03-0.95c0.22-0.65,0.78-1.16,1.39-1.47
		c0.63-0.29,1.26-0.5,1.84-0.58c0.29-0.03,0.57-0.02,0.79,0.03c0.22,0.07,0.36,0.15,0.46,0.24c0.1,0.09,0.18,0.22,0.23,0.45
		C110.81,94.67,110.83,94.97,110.81,95.29z M111.21,96.29c0.06,0.31,0.18,0.63,0.41,0.9c0.02,0.02,0.05,0.04,0.07,0.07
		c-0.27-0.15-0.56-0.24-0.84-0.25c-0.19-0.01-0.37,0-0.55,0.03C110.59,96.8,110.9,96.56,111.21,96.29z M106.43,104.46
		c0.13-0.25,0.22-0.52,0.25-0.83c0,0,0-0.01,0-0.01c0.06-0.12,0.13-0.24,0.2-0.36c0.16,0.06,0.32,0.11,0.47,0.13
		c0.5,0.08,0.97,0.02,1.4-0.1c0.75-0.22,1.39-0.61,1.95-1.06c0.05,0.04,0.09,0.09,0.13,0.14c0.18,0.23,0.21,0.54,0.15,0.87
		c-0.17,0.17-0.33,0.35-0.47,0.56c-0.2,0.28-0.37,0.61-0.46,0.99c-0.15,0.14-0.31,0.28-0.48,0.4c-0.5,0.34-1.08,0.59-1.62,0.65
		c-0.27,0.04-0.53,0.03-0.73,0c-0.21-0.04-0.35-0.1-0.45-0.18c-0.1-0.08-0.21-0.21-0.28-0.43
		C106.42,105.03,106.4,104.75,106.43,104.46z M110.13,101.06c-0.21,0.14-0.42,0.26-0.65,0.37c-0.12,0.03-0.23,0.06-0.34,0.1
		c-0.15,0.05-0.29,0.11-0.42,0.17c-0.1,0.02-0.21,0.05-0.31,0.06c-0.29,0.04-0.56,0.04-0.79,0c-0.23-0.04-0.38-0.11-0.5-0.21
		c-0.12-0.09-0.23-0.24-0.3-0.48c-0.07-0.24-0.08-0.56-0.03-0.88c0.06-0.45,0.26-0.89,0.55-1.29c0.27-0.04,0.53-0.12,0.77-0.24
		c0.63-0.32,1.1-0.76,1.57-1.15c0.02,0,0.04-0.01,0.06-0.01c0.7-0.08,1.42,0.12,1.72,0.54c0.3,0.38,0.25,0.96,0,1.48
		c-0.04,0.06-0.07,0.13-0.1,0.19C111.07,100.24,110.63,100.7,110.13,101.06z M115.87,100.18c-0.08,0.11-0.15,0.24-0.22,0.37
		c-0.24,0.16-0.5,0.3-0.76,0.41c-0.25,0.03-0.49,0.09-0.72,0.16c-0.06,0.02-0.12,0.05-0.18,0.07c-0.28,0.04-0.54,0.04-0.76,0
		c-0.23-0.04-0.38-0.11-0.5-0.21c-0.12-0.09-0.23-0.24-0.3-0.48c-0.04-0.15-0.06-0.32-0.06-0.51c0.11-0.31,0.19-0.65,0.2-1
		c0.15-0.37,0.38-0.72,0.67-1.02c0.42,0.03,0.82-0.02,1.19-0.12c0.65-0.19,1.22-0.5,1.73-0.88c0.38,0.08,0.72,0.25,0.9,0.5
		c0.3,0.39,0.25,0.97-0.01,1.5C116.64,99.32,116.23,99.7,115.87,100.18z M112.13,97.62c0.27,0.17,0.56,0.28,0.85,0.33
		c-0.16,0.13-0.32,0.25-0.47,0.39C112.43,98.08,112.31,97.83,112.13,97.62z M116.75,96.48c0.19-0.18,0.37-0.38,0.54-0.59
		c0,0.31,0.05,0.64,0.21,0.94C117.27,96.66,117.01,96.54,116.75,96.48z M117.08,94.22c-0.29,0.56-0.75,1.04-1.27,1.42
		c-0.53,0.36-1.14,0.63-1.72,0.7c-0.29,0.04-0.56,0.04-0.79,0c-0.23-0.04-0.38-0.11-0.5-0.21c-0.12-0.09-0.23-0.24-0.3-0.48
		c-0.07-0.24-0.08-0.56-0.03-0.88c0.09-0.66,0.47-1.33,1.01-1.81c0.54-0.47,1.23-0.81,1.94-0.87c0.7-0.08,1.42,0.12,1.72,0.54
		C117.45,93.03,117.38,93.67,117.08,94.22z M115.34,91.76c-0.73,0.25-1.36,0.64-1.96,1.07c-0.38,0.29-0.77,0.6-1.13,0.96
		c-0.07-0.32-0.21-0.65-0.45-0.92c-0.4-0.45-0.96-0.69-1.46-0.74c-0.27-0.03-0.52-0.02-0.77,0.01c-0.45-0.67-0.93-1.31-1.44-1.91
		c-0.67-0.8-1.38-1.57-2.12-2.3c-0.74-0.74-1.51-1.43-2.32-2.1c-0.61-0.5-0.83-1.2-1.5-1.64c0.17-0.1,1.45-0.75,2.14-1.06
		c0.75-0.3,1.17-0.46,1.91-0.77c0.59,0.86,1.56,1.51,2.24,2.29c0.79,0.91,1.62,1.79,2.48,2.64c0.86,0.85,1.75,1.66,2.68,2.44
		c0.79,0.66,1.61,1.29,2.47,1.87C115.84,91.61,115.58,91.67,115.34,91.76z M102.98,86.53c0.68,0.8,1.38,1.57,2.12,2.3
		c0.74,0.73,1.52,1.43,2.32,2.1c0.55,0.46,1.13,0.88,1.73,1.29c-0.07,0.02-0.14,0.03-0.21,0.05c-0.86,0.23-1.54,0.76-2.06,1.37
		c-0.51,0.62-0.94,1.25-1.31,1.94c-0.17,0.34-0.35,0.69-0.43,1.12c-0.04-0.01-0.09-0.01-0.13-0.02c-0.48-0.66-0.97-1.3-1.5-1.91
		c-0.75-0.87-1.54-1.72-2.36-2.53c-0.82-0.81-1.67-1.58-2.56-2.33c-0.73-0.62-1.09-1.46-1.9-2c0.49-0.37,0.57-0.48,1.08-0.84
		c1.21-0.88,2.16-1.47,3.43-2.27C101.66,85.49,102.46,85.91,102.98,86.53z M105.8,98.52c-0.02,0.26-0.11,0.54-0.25,0.79
		c-0.29,0.56-0.75,1.04-1.27,1.42c-0.53,0.36-1.14,0.63-1.72,0.7c-0.29,0.04-0.56,0.04-0.79,0c-0.23-0.04-0.38-0.11-0.5-0.21
		c-0.12-0.09-0.23-0.24-0.3-0.48c-0.07-0.24-0.08-0.56-0.03-0.88c0.09-0.66,0.47-1.33,1.01-1.81c0.54-0.47,1.23-0.81,1.94-0.87
		c0.45-0.05,0.9,0.01,1.25,0.17c0.04,0.29,0.13,0.58,0.32,0.83C105.55,98.31,105.67,98.42,105.8,98.52z M97.89,90.61
		c0.76,0.87,1.54,1.72,2.36,2.53c0.82,0.81,1.68,1.58,2.56,2.33c0.51,0.43,1.04,0.84,1.59,1.24c-0.21,0.03-0.41,0.08-0.6,0.15
		c-0.73,0.25-1.36,0.64-1.96,1.07c-0.59,0.45-1.2,0.92-1.69,1.6c-0.24,0.34-0.45,0.74-0.51,1.23c-0.01,0.05,0,0.1,0,0.14
		c-0.03,0-0.07-0.01-0.1-0.01c-0.42-0.57-0.86-1.13-1.32-1.66c-0.74-0.86-1.51-1.69-2.31-2.48c-0.8-0.79-1.64-1.55-2.51-2.28
		c-0.8-0.67-1.19-1.71-2.09-2.28c1.69-1.5,2.59-2.26,4.4-3.62C96.27,89.38,97.26,89.88,97.89,90.61z M95.02,97.65
		c0.8,0.79,1.64,1.55,2.51,2.28c0.42,0.35,0.85,0.7,1.29,1.03c-0.15,0.03-0.3,0.07-0.45,0.12c-0.72,0.23-1.35,0.63-1.93,1.08
		c0.57-0.45,1.26-0.79,1.97-0.87c0.33-0.04,0.67-0.01,0.97,0.07c0.1,0.07,0.21,0.14,0.31,0.21c0.07,0.26,0.19,0.51,0.37,0.72
		c0.06,0.07,0.13,0.13,0.2,0.19c-0.02,0.31-0.15,0.63-0.33,0.93c-0.3,0.51-0.74,0.96-1.22,1.36c-0.49,0.39-1.03,0.72-1.6,0.92
		c-0.56,0.2-1.17,0.27-1.6-0.03c-0.22-0.15-0.37-0.42-0.42-0.74c-0.05-0.32-0.01-0.68,0.1-1.01c0.22-0.68,0.69-1.28,1.25-1.75
		c-0.56,0.47-1.08,1-1.45,1.66c-0.18,0.33-0.34,0.69-0.38,1.1c-0.01,0.1-0.02,0.21-0.01,0.32c-0.14-0.16-0.26-0.32-0.4-0.48
		c-0.84-0.95-1.7-1.87-2.61-2.76c-0.9-0.89-1.84-1.74-2.81-2.56c-0.88-0.75-1.41-1.8-2.39-2.45c1.01-1.06,1.64-1.77,2.71-2.78
		c0.55-0.52,0.66-0.6,1.23-1.11C90.92,93.98,94.21,96.86,95.02,97.65z M97.13,108.19c-0.05-0.41-0.23-0.84-0.52-1.15
		c0.28,0.03,0.56,0.02,0.83-0.02c0.76-0.11,1.45-0.43,2.06-0.86c-0.03,0.39,0.06,0.84,0.33,1.21c0.04,0.06,0.1,0.11,0.15,0.16
		c-0.23,0.03-0.46,0.09-0.67,0.16c-0.73,0.25-1.36,0.64-1.96,1.07c-0.08,0.06-0.16,0.12-0.23,0.18
		C97.15,108.7,97.16,108.45,97.13,108.19z M88.1,100.14c0.84,0.95,1.7,1.88,2.61,2.76c0.9,0.89,1.84,1.74,2.81,2.56
		c0.42,0.35,0.85,0.7,1.28,1.04c-0.23,0.03-0.45,0.09-0.66,0.15c-0.72,0.23-1.35,0.63-1.93,1.08c0.57-0.45,1.26-0.79,1.97-0.87
		c0.35-0.04,0.71-0.02,1.03,0.08c0.32,0.1,0.57,0.29,0.7,0.52c0.26,0.46,0.1,1.02-0.21,1.53c-0.3,0.51-0.74,0.96-1.22,1.36
		c-0.49,0.39-1.03,0.72-1.6,0.92c-0.56,0.2-1.17,0.27-1.6-0.03c-0.22-0.15-0.37-0.42-0.42-0.74c-0.05-0.32-0.01-0.68,0.1-1.01
		c0.22-0.68,0.69-1.28,1.25-1.75c-0.56,0.47-1.08,1-1.45,1.66c-0.18,0.33-0.34,0.69-0.38,1.1c-0.01,0.09-0.01,0.19-0.01,0.3
		c-0.04-0.04-0.07-0.08-0.11-0.12c-0.99-1.11-2.03-2.17-3.09-3.22c-1.07-1.03-2.15-2.05-3.28-3.02c-0.8-0.69-1.25-1.8-2.1-2.43
		c0.02-0.02,0.04-0.05,0.06-0.07c1.44-1.69,2.01-2.33,3.55-3.94C86.07,98.94,87.33,99.27,88.1,100.14z M95.17,112.83
		c-0.14,0.03-0.28,0.07-0.41,0.11c-0.67,0.22-1.36,0.45-1.9,0.87c-0.35-0.48-0.62-0.82-0.99-1.27c0.45,0.11,0.9,0.13,1.33,0.07
		c0.6-0.08,1.15-0.3,1.65-0.59c0.02,0.12,0.04,0.23,0.07,0.33C94.98,112.52,95.07,112.68,95.17,112.83z M83.19,105.13
		c0.99,1.11,2.03,2.17,3.09,3.22c1.07,1.03,2.15,2.05,3.29,3.02c0.91,0.78,2.48,2.22,2.97,2.65c-0.46,0.46-0.83,1.09-1.15,1.66
		c-0.18,0.33-0.34,0.69-0.38,1.1c-0.01,0.07-1.5-1.65-2.3-2.54c-0.99-1.11-2.03-2.17-3.09-3.22c-1.07-1.03-2.15-2.05-3.28-3.02
		c-1.08-0.93-1.97-2.14-3.15-2.96c0.73-0.89,0.99-1.08,1.73-1.95C81.57,103.93,82.49,104.36,83.19,105.13z M91.58,115.76
		c0.18-0.58,0.81-1.31,1.29-1.75c0.06-0.03,0.1-0.05,0.08-0.08c0.55-0.41,1.19-0.71,1.85-0.79c0.23-0.03,0.45-0.02,0.67,0.01
		c0.15,0.13,0.31,0.25,0.51,0.33c0.01,0,0.02,0.01,0.03,0.01c0.17,0.12,0.35,0.21,0.54,0.28c0.23,0.45,0.07,1-0.22,1.49
		c-0.3,0.51-0.74,0.96-1.22,1.36c-0.49,0.39-1.03,0.72-1.6,0.92c-0.56,0.2-1.17,0.27-1.6-0.03c-0.22-0.15-0.37-0.42-0.42-0.74
		C91.44,116.46,91.48,116.1,91.58,115.76z M95.49,118.29c0.22-0.13,0.43-0.27,0.63-0.42c0.04-0.04,0.08-0.08,0.13-0.12
		c0.24-0.13,0.5-0.25,0.76-0.32c0.05,0.09,0.1,0.18,0.17,0.26c0.38,0.45,0.92,0.7,1.42,0.78c0.28,0.04,0.56,0.04,0.82,0.01
		c0.02,0.32-0.08,0.67-0.25,1c-0.29,0.56-0.75,1.04-1.27,1.42c-0.53,0.36-1.14,0.63-1.72,0.7c-0.29,0.04-0.56,0.04-0.79,0
		c-0.23-0.04-0.38-0.11-0.5-0.21c-0.12-0.09-0.23-0.24-0.3-0.48c-0.07-0.24-0.08-0.56-0.03-0.88
		C94.65,119.39,95,118.76,95.49,118.29z M97.27,112.27c-0.23-0.04-0.38-0.11-0.5-0.21c-0.12-0.09-0.23-0.24-0.3-0.48
		c-0.07-0.24-0.08-0.56-0.03-0.88c0.01-0.08,0.04-0.17,0.06-0.25c0.19-0.29,0.36-0.59,0.47-0.93c0.02-0.05,0.03-0.1,0.04-0.15
		c0.13-0.17,0.27-0.33,0.43-0.48c0.54-0.47,1.23-0.81,1.94-0.87c0.7-0.08,1.42,0.12,1.72,0.54c0.32,0.41,0.24,1.04-0.05,1.59
		c-0.29,0.56-0.75,1.04-1.27,1.42c-0.53,0.36-1.14,0.63-1.72,0.7C97.77,112.31,97.49,112.31,97.27,112.27z M100.82,106.49
		c-0.17-0.1-0.33-0.28-0.42-0.57c-0.05-0.16-0.07-0.34-0.05-0.53c0.37-0.42,0.68-0.9,0.87-1.45c0.01-0.02,0.01-0.03,0.01-0.05
		c0.18-0.15,0.38-0.29,0.59-0.39c0.63-0.29,1.26-0.5,1.84-0.58c0.29-0.03,0.57-0.02,0.79,0.03c0.22,0.07,0.36,0.15,0.46,0.24
		c0.1,0.09,0.18,0.22,0.23,0.45c0.05,0.22,0.08,0.52,0.05,0.84c-0.04,0.66-0.35,1.4-0.91,1.85c-0.55,0.47-1.35,0.62-2.01,0.54
		C101.58,106.81,101.12,106.68,100.82,106.49z M102.48,107.87c0.77-0.39,1.3-0.97,1.89-1.41c0.25-0.21,0.53-0.41,0.8-0.63
		c0.05,0.31,0.17,0.63,0.4,0.89c0.06,0.07,0.13,0.12,0.19,0.18c-0.17,0.03-0.33,0.08-0.49,0.13c-0.69,0.24-1.29,0.62-1.87,1.03
		c-0.41,0.31-0.83,0.63-1.22,1.04c-0.05-0.36-0.2-0.72-0.45-1C102.01,108.06,102.26,107.98,102.48,107.87z M102.57,109.91
		c0.08-0.63,0.43-1.27,0.94-1.73c0.51-0.45,1.17-0.77,1.84-0.83c0.66-0.07,1.34,0.12,1.62,0.52c0.15,0.19,0.2,0.43,0.19,0.69
		c-0.19,0.3-0.34,0.64-0.39,1.04c-0.27,0.42-0.64,0.79-1.06,1.09c-0.5,0.34-1.08,0.59-1.62,0.65c-0.27,0.04-0.53,0.03-0.73,0
		c-0.21-0.04-0.35-0.1-0.45-0.18c-0.1-0.08-0.21-0.21-0.28-0.43C102.55,110.52,102.53,110.22,102.57,109.91z M109.67,110.3
		c-0.29,0.04-0.56,0.04-0.79,0c-0.23-0.04-0.38-0.11-0.5-0.21c-0.12-0.09-0.23-0.24-0.3-0.48c-0.04-0.12-0.05-0.25-0.06-0.4
		c0.04-0.19,0.05-0.38,0.05-0.58c0.09-0.53,0.36-1.04,0.74-1.47c0.54-0.23,1.01-0.55,1.44-0.91c0.05,0.1,0.11,0.19,0.19,0.28
		c0.38,0.45,0.92,0.7,1.42,0.78c0.37,0.06,0.72,0.04,1.06-0.02c-0.01,0.29-0.1,0.6-0.25,0.88c-0.29,0.56-0.75,1.04-1.27,1.42
		C110.86,109.97,110.25,110.24,109.67,110.3z M119.07,103.85c-0.14,0.2-0.26,0.42-0.36,0.66c-0.03,0-0.07-0.01-0.1-0.01
		c-0.42-0.02-0.81,0.06-1.18,0.18c-0.52,0.18-0.99,0.43-1.43,0.72c0.35-0.42,0.66-0.88,0.86-1.4c0.04-0.11,0.08-0.22,0.11-0.33
		c0.08,0.02,0.17,0.05,0.25,0.06c0.5,0.08,0.97,0.02,1.4-0.1c0.38-0.11,0.73-0.27,1.06-0.45
		C119.47,103.37,119.26,103.59,119.07,103.85z M118.28,102.08c-0.29,0.04-0.56,0.04-0.79,0c-0.23-0.04-0.38-0.11-0.5-0.21
		c-0.12-0.09-0.23-0.24-0.3-0.48c-0.01-0.02,0-0.04-0.01-0.06c0.54-0.52,1-1.13,1.28-1.85c0.13-0.36,0.22-0.75,0.22-1.15
		c0.28-0.17,0.57-0.31,0.88-0.4c0.03,0.01,0.06,0.02,0.09,0.02c0.47,0.07,0.9,0.02,1.31-0.08c0.37,0.08,0.68,0.25,0.86,0.49
		c0.32,0.41,0.24,1.04-0.05,1.59c-0.29,0.56-0.75,1.04-1.27,1.42C119.46,101.75,118.86,102.02,118.28,102.08z M118.74,97.85
		c-0.19,0.1-0.38,0.21-0.56,0.32c-0.02-0.26-0.09-0.52-0.21-0.77C118.2,97.61,118.47,97.76,118.74,97.85z M118.59,94.76
		c0.09-0.66,0.47-1.33,1.01-1.81c0.54-0.47,1.23-0.81,1.94-0.87c0.7-0.08,1.42,0.12,1.72,0.54c0.32,0.41,0.24,1.04-0.05,1.59
		c-0.29,0.56-0.75,1.04-1.27,1.42c-0.53,0.36-1.14,0.63-1.72,0.7c-0.29,0.04-0.56,0.04-0.79,0c-0.22-0.04-0.38-0.11-0.5-0.21
		c-0.12-0.09-0.23-0.24-0.3-0.48C118.55,95.4,118.54,95.09,118.59,94.76z M121.85,101.11c0.05,0.13,0.11,0.25,0.19,0.36
		c-0.28,0.14-0.54,0.29-0.79,0.45C121.47,101.67,121.68,101.4,121.85,101.11z M115.71,84.42c1.42,1.36,2.83,2.73,4.27,4.06
		c1.32,1.23,2.63,2.47,3.97,3.69c-0.02-0.01-0.04-0.01-0.06-0.02c-0.02-0.02-0.03-0.04-0.05-0.06c-0.34-0.33-0.79-0.49-1.21-0.52
		c-0.42-0.02-0.81,0.06-1.18,0.18c-0.73,0.25-1.36,0.64-1.96,1.07c-0.43,0.33-0.87,0.67-1.27,1.1c0.03-0.18,0.04-0.37,0.03-0.57
		c-0.02-0.44-0.19-0.93-0.53-1.26c-0.34-0.33-0.79-0.49-1.21-0.52c-0.06,0-0.13,0-0.19,0c-0.62-0.9-1.29-1.75-1.99-2.56
		c-0.79-0.91-1.62-1.79-2.48-2.64c-0.86-0.85-1.75-1.66-2.68-2.44c-0.77-0.65-1.57-1.26-2.41-1.82c1.28-0.53,2.56-1.04,3.87-1.47
		l0.89-0.31C112.92,81.7,114.31,83.06,115.71,84.42z M87.52,54.5c2.35,2.27,4.64,4.61,6.94,6.92c2.29,2.32,4.52,4.69,6.68,7.1
		c1.09,1.2,2.14,2.43,3.17,3.67c0.85,1.04,1.71,2.12,2.45,3.2c-0.94,0.38-1.89,0.73-2.81,1.15l-1.23,0.56
		c-5.75-6.54-12.51-12.44-18.66-18.59c-3-2.97-5.43-5.14-8.43-7.94c1.44-0.81,2.9-1.6,4.37-2.37c0.12-0.06,0.28-0.14,0.44-0.25
		C82.85,50.07,85.21,52.26,87.52,54.5z M58.2,78.44l-8.41-8.36c1.11-1.21,2.26-2.38,3.44-3.51c3.83,3.54,7.03,6.51,8.79,8.21
		l9.66,9.09c2.99,2.79,5.56,6,8.57,8.76c-1.48,1.48-3.27,3.54-3.33,3.62C70.99,89.99,64.28,84.57,58.2,78.44z M76.09,97.19
		c-0.81,0.96-1.23,1.37-2,2.35c-2.69-3.06-5.83-5.47-8.66-8.39c-1.48-1.52-2.96-3.03-4.47-4.53c-1.5-1.5-3.01-2.99-4.56-4.44
		c-3.07-2.86-6.23-5.62-9.32-8.47c0.24-0.38,0.49-0.75,0.73-1.13c0.31-0.46,0.64-0.9,0.97-1.35l8.38,8.23
		C63.42,85.44,69.71,91.36,76.09,97.19z M72.34,83.21l-9.3-9.46c-1.73-1.72-4.87-4.73-8.63-8.3c1.33-1.24,2.69-2.44,4.1-3.59
		c2.95,3.05,6.3,6.59,9.32,9.53c5.79,5.59,11.2,11.49,17.35,16.71c-0.68,0.57-0.86,0.72-1.54,1.29c-0.88,0.74-2.71,2.5-2.8,2.59
		C78.01,89.05,75.19,86.14,72.34,83.21z M69.01,70.19c-3.02-2.89-6.63-6.09-9.76-8.91c1.44-1.15,2.9-2.27,4.41-3.33
		c0.19-0.13,0.39-0.26,0.58-0.39c3.01,3.12,5.3,5.72,8.45,8.8c6.05,5.87,11.45,12.12,17.86,17.63l-1.53,1.1l-2.74,2.1
		c-0.1,0.08-0.2,0.17-0.31,0.26C80.51,81.48,74.82,75.78,69.01,70.19z M73.87,65.15c-3.13-3-5.69-5.27-8.84-8.13
		c1.59-1.07,3.2-2.1,4.84-3.09c2.75,2.86,5.48,5.74,8.31,8.51c6.17,5.98,11.94,12.13,18.48,17.74l-0.41,0.22
		c-0.5,0.28-0.99,0.59-1.48,0.89l-1.48,0.9c-0.49,0.3-0.99,0.59-1.45,0.93l-0.19,0.14C85.92,77.01,79.95,71.03,73.87,65.15z
		 M79.36,61.23c-2.8-2.68-5.7-5.26-8.58-7.85c1.21-0.72,2.43-1.44,3.65-2.15c0.09-0.05,0.18-0.1,0.27-0.15
		c2.84,3.04,5.17,5.58,8.16,8.61c6.12,6.13,11.85,12.33,18.36,18.07l-0.39,0.23c-0.53,0.23-1.04,0.5-1.54,0.77l-1.52,0.81
		l-0.27,0.15C91.67,73.34,85.57,67.23,79.36,61.23z M78.51,43.18c0.55,0.77,1.12,1.52,1.68,2.28c0.78,0.73,0.36,1.68-0.56,1.92
		c-1.99,0.81-3.92,1.75-5.82,2.74c-3.79,2-7.35,4.43-10.76,7.01c-3.42,2.57-6.66,5.37-9.67,8.4c-0.5,0.51-0.99,1.04-1.48,1.56
		c1.48-1.85,3.02-3.66,4.62-5.4c3.13-3.45,6.49-6.7,10.05-9.73c0.9-0.74,1.79-1.5,2.73-2.21c0.92-0.73,1.85-1.43,2.8-2.11
		C74,46.28,75.97,45,78,43.83C78.23,43.71,78.47,43.46,78.51,43.18z M55.16,21.63c1.05,0.86,2.07,1.79,3.07,2.74
		c2.01,1.9,3.91,3.91,5.83,5.93c1.92,2.02,3.8,4.07,5.69,6.12c1.86,2.05,3.72,4.13,5.4,6.3c-0.75,0.35-1.49,0.7-2.23,1.08
		c-0.96,0.47-1.91,0.97-2.84,1.48c-1.86-1.82-3.69-3.66-5.5-5.52c-3.13-3.25-6.19-6.56-9.28-9.84l-4.68-4.88l-3.09-3.19
		c1.61-0.74,3.24-1.45,4.89-2.11c0.11,0.05,0.21,0.1,0.33,0.17c0.26,0.15,0.53,0.32,0.8,0.51C54.1,20.78,54.64,21.2,55.16,21.63z
		 M39.5,59.93c-6.14-5.91-11.57-11.03-17.71-16.87c0.91-1.04,1.84-2.07,2.78-3.08c4.09,3.95,14.68,13.7,23.8,22.11
		c-0.24,0.27-0.48,0.54-0.72,0.81l-1.18,1.32c-0.37,0.44-0.73,0.9-1.09,1.35C43.57,63.82,41.16,61.53,39.5,59.93z M44.3,66.91
		c-0.39,0.48-0.77,0.97-1.13,1.47l-0.65,0.92c-1.54-1.53-3.05-3.07-4.54-4.65l-4.38-4.62l-4.42-4.57c-2.82-2.84-6.55-7-9.5-9.96
		c0.54-0.63,1.08-1.26,1.63-1.88c5.92,6.02,11.03,11.45,17.04,17.48C40,62.78,42.46,65.12,44.3,66.91z M25.93,38.52
		c0.71-0.75,1.44-1.49,2.17-2.22c0.51-0.51,1.04-1,1.57-1.49l5.61,5.22l4.75,4.38c3.2,2.89,6.42,5.75,9.57,8.69
		c1.33,1.25,2.65,2.52,3.96,3.79l-0.99,0.9c-0.86,0.82-1.68,1.66-2.52,2.49c-0.19,0.18-0.36,0.36-0.54,0.55
		C40.47,52.31,29.95,42.46,25.93,38.52z M50.05,52.64c-3.04-3.04-6.03-6.15-9.02-9.25l-4.54-4.59l-5.43-5.28
		c1.33-1.21,2.68-2.38,4.08-3.51l3.11,3.03l5.02,4.66c3.37,3.08,6.78,6.13,10.11,9.24c1.9,1.78,3.78,3.59,5.63,5.42
		c-1.3,0.98-2.57,1.98-3.8,3.04l-1.18,1.08C52.68,55.21,51.36,53.93,50.05,52.64z M53.83,46.47c-3.22-3.23-6.38-6.53-9.56-9.81
		l-4.82-4.86l-2.89-2.93c0.55-0.43,1.1-0.87,1.66-1.29c0.79-0.6,1.6-1.18,2.42-1.76l3.08,3.3l5.02,4.66
		c3.37,3.08,6.78,6.13,10.11,9.24c1.92,1.8,3.82,3.63,5.69,5.49c-1.73,1.09-3.41,2.25-5.05,3.47C57.59,50.17,55.7,48.33,53.83,46.47
		z M59.33,42.56c-3.22-3.23-6.38-6.53-9.56-9.81l-4.82-4.86l-2.78-3.1c0.61-0.41,1.22-0.83,1.85-1.22c0.59-0.3,1.18-0.6,1.77-0.89
		l3.61,3.58l4.88,4.68c3.28,3.09,6.59,6.15,9.84,9.28c1.82,1.77,3.62,3.56,5.4,5.37c-0.94,0.52-1.87,1.05-2.79,1.59
		c-0.54,0.32-1.07,0.67-1.61,1C63.15,46.33,61.23,44.45,59.33,42.56z M31.76,2.69c0.39-0.39,0.88-0.68,1.42-0.88
		c0.42-0.16,0.9-0.26,1.34-0.3c2.77,2.96,5.56,5.91,8.35,8.85l4.42,4.69c-0.46,0.21-0.93,0.43-1.39,0.65
		c-1.02,0.48-2.03,0.99-3.03,1.51C39,13.29,34.76,9.06,30.65,5.07C30.78,4.15,31.13,3.3,31.76,2.69z M23.06,3.67
		c0.39-0.39,0.88-0.68,1.42-0.88c0.42-0.16,0.91-0.26,1.35-0.3c4.8,5.08,10.2,10.78,15.18,15.72c-0.6,0.33-1.2,0.67-1.8,1.01
		c-0.66,0.38-1.3,0.78-1.95,1.18c-4.8-4.71-10.22-9.94-15.24-14.6C22.16,4.97,22.5,4.22,23.06,3.67z M16.69,6.63
		c0.39-0.39,0.88-0.68,1.42-0.88c0.42-0.16,0.91-0.26,1.35-0.3c0.47,0.48,0.94,0.96,1.41,1.45l0.01,0.19l0.14,0.13
		c0.33,0.29,0.67,0.57,1.01,0.86c4.37,4.46,9.09,9.23,13.45,13.41c-0.9,0.58-1.8,1.16-2.68,1.76c-0.39,0.27-0.78,0.56-1.17,0.84
		C26.59,19.16,20.8,13.65,15.6,8.86C15.75,8,16.1,7.2,16.69,6.63z M11.64,15.35c-0.53-0.62-1.06-1.22-1.61-1.82
		c0.04-1.15,0.4-2.25,1.16-2.99c0.39-0.39,0.88-0.68,1.42-0.88c0.42-0.16,0.91-0.26,1.35-0.3c0.18,0.18,0.36,0.36,0.53,0.55
		l0.01,0.13l0.14,0.13c0.22,0.2,0.45,0.38,0.67,0.58c4.67,4.76,9.91,10,14.65,14.55c-1.09,0.81-2.16,1.64-3.21,2.49
		c-0.27,0.22-0.53,0.46-0.79,0.68c-1.67-1.58-6.48-6.2-8.03-7.63l-4.7-4.35L13,16.27l-0.18-0.02c-0.15-0.02-0.3-0.03-0.44-0.03
		C12.13,15.93,11.89,15.64,11.64,15.35z M8.39,18.92c0.36-0.4,0.78-0.7,1.23-0.93c0.45-0.22,0.95-0.34,1.45-0.38
		c0.4-0.03,0.85,0,1.23,0.07l2.1,2.16l2.27,2.29c1.44,1.46,6.03,5.92,7.78,7.64c-1.05,0.93-2.09,1.88-3.1,2.85
		c-4.23-4.07-9.17-8.73-13.54-12.87C7.98,19.45,8.17,19.16,8.39,18.92z M1.78,23.46C1.76,22.98,1.84,22.44,2,21.97
		c0.18-0.51,0.46-0.98,0.83-1.36c0.67-0.68,1.6-1.06,2.59-1.26c4.56,4.6,10.04,9.95,14.66,14.53c-1.12,1.13-2.2,2.28-3.26,3.45
		C14.78,35.5,4.46,26.15,1.78,23.46z M1.65,29.19c-0.07-0.29-0.12-0.61-0.13-0.92c-0.01-0.35,0.02-0.7,0.11-1.04
		c0.09-0.33,0.26-0.64,0.48-0.9c0.21-0.26,0.52-0.43,0.84-0.58c4.35,4.16,8.67,8.36,12.94,12.61c-0.64,0.73-1.26,1.47-1.88,2.22
		C10.12,36.89,5.65,32.72,1.65,29.19z M1.34,36.02l-0.3-0.27c-0.07-0.06-0.1-0.1-0.13-0.17c-0.06-0.14-0.08-0.27,0-0.49
		c0.17-0.5,0.37-0.98,0.62-1.44c0.38-0.7,0.88-1.36,1.53-1.82c3.18,3.4,6.64,7.02,9.77,10.2c-0.55,0.68-1.1,1.37-1.63,2.06
		c-0.13,0.17-0.26,0.35-0.39,0.52L1.34,36.02z M9.35,49.36c-0.1-0.04-0.19-0.18-0.3-0.3l-0.31-0.35c-0.51-0.41,0.18-0.93,0.49-1.43
		c0.75-0.99,1.54-1.95,2.35-2.89c1.63-1.88,3.36-3.67,5.13-5.41c3.57-3.46,7.36-6.66,11.25-9.72c1.94-1.54,3.94-3,5.98-4.4
		c2.04-1.4,4.1-2.78,6.23-4.04c2.12-1.27,4.28-2.5,6.49-3.61c1.1-0.57,2.22-1.1,3.34-1.62l1.7-0.76l0.19-0.09l0.51,0.48l1.37,1.28
		l0.68,0.64l0.22,0.2l-0.75,0.3c-0.58,0.24-1.17,0.46-1.75,0.71c-2.32,0.97-4.6,2.04-6.85,3.17c-4.48,2.28-8.82,4.84-12.95,7.68
		c-4.12,2.86-8.06,5.97-11.76,9.34c-1.87,1.66-3.67,3.39-5.43,5.17c-1.76,1.77-3.49,3.57-5.11,5.47C9.9,49.37,9.58,49.47,9.35,49.36
		z M15.11,49.43c-0.16,0.23-0.32,0.46-0.47,0.7c-0.17,0.25-0.29,0.45-0.45,0.62c-0.63,0.7-1.79,0.96-2.66,0.48
		c-0.22-0.11-0.4-0.3-0.62-0.48l-0.63-0.56L9.62,49.6c0.24-0.02,0.46-0.14,0.6-0.32c3.2-3.82,6.85-7.25,10.66-10.46
		c3.84-3.18,7.86-6.14,12.03-8.85c2.14-1.41,4.32-2.74,6.55-4c-0.54,0.36-1.08,0.71-1.61,1.08c-3.68,2.59-7.16,5.44-10.46,8.5
		c-3.3,3.05-6.47,6.27-9.26,9.8c-0.69,0.88-1.38,1.78-2.04,2.69L15.11,49.43z M39.26,73.59c-2.11-1.48-4.04-3.33-5.93-5.11
		c-1.04-1.01-2.06-2.02-3.08-3.05c-1.03-1.01-2.05-2.04-3.06-3.06c-2.03-2.04-3.99-4.14-5.87-6.31c-1.78-2.06-3.55-4.15-5.22-6.27
		l0.87-1.07c0.46-0.55,0.92-1.11,1.38-1.66c2.97,2.92,6.76,6.9,9.62,9.63l4.67,4.33l4.71,4.28c1.63,1.48,3.24,2.98,4.82,4.51
		l-1.05,1.47c-0.35,0.47-0.66,0.98-0.98,1.48l-0.63,1C39.42,73.7,39.34,73.65,39.26,73.59z M42.95,77.8l-0.91,1.52l-0.23,0.38
		l-1.91-2.52l-0.38-0.51l0.07-0.1l0.96-1.45l0.96-1.45c0.32-0.48,0.63-0.97,0.99-1.42l2.09-2.78c0.7-0.92,1.48-1.78,2.21-2.68
		c0.37-0.44,0.73-0.89,1.11-1.33l1.18-1.28c0.79-0.84,1.55-1.72,2.38-2.53c0.82-0.82,1.62-1.66,2.45-2.47l2.55-2.37
		c3.45-3.1,7.02-6.08,10.81-8.8c1.92-1.32,3.85-2.65,5.87-3.82c1.01-0.58,2.04-1.15,3.08-1.68c0.26-0.12,0.54-0.27,0.78-0.37
		c0.11-0.04,0.24-0.04,0.34,0c0.1,0.03,0.18,0.13,0.28,0.25l0.29,0.33c0.1,0.11,0.21,0.21,0.24,0.31c0.08,0.22-0.05,0.5-0.27,0.62
		c-2.03,1.19-3.98,2.48-5.92,3.81c-1.94,1.33-3.83,2.71-5.67,4.17c-3.72,2.87-7.23,6.01-10.5,9.39c-3.25,3.4-6.27,7.02-9.02,10.84
		C45.49,73.84,44.12,75.76,42.95,77.8z M66.86,101.6c-1.19-1.02-2.32-2.1-3.43-3.19c-0.56-0.55-1.11-1.1-1.65-1.67
		c-0.55-0.55-1.08-1.13-1.62-1.7L57,91.56c-2.1-2.35-4.25-4.65-6.46-6.9c-2.03-2.08-4.08-4.14-6.08-6.25
		c-0.05-0.06-0.11-0.11-0.16-0.17c0.74-1.34,1.56-2.63,2.4-3.92c2.87,2.99,5.67,6.05,8.56,9.02c1.48,1.52,3,3,4.53,4.46
		c1.52,1.47,3.07,2.92,4.62,4.37c2.99,2.78,6.03,5.5,9.16,8.13c-0.47,0.61-0.94,1.22-1.38,1.85c-0.53,0.71-1.04,1.45-1.54,2.18
		C69.28,103.6,68.05,102.61,66.86,101.6z M70.8,106.98c-0.05-0.03-0.1-0.06-0.14-0.1l-0.14-0.16l-0.29-0.32
		c-0.09-0.11-0.21-0.21-0.24-0.3c-0.04-0.1-0.04-0.21,0.01-0.32c0.11-0.2,0.31-0.45,0.46-0.68c0.66-0.92,1.37-1.8,2.09-2.67
		c1.45-1.74,3.03-3.36,4.62-4.97c3.24-3.16,6.71-6.05,10.27-8.8l2.7-2.02c0,0,4.71-3.12,5.63-3.72c0.48-0.3,0.95-0.61,1.43-0.89
		l1.47-0.83l1.47-0.83c0.49-0.29,0.98-0.56,1.49-0.8l3.03-1.51c1.01-0.49,2.07-0.9,3.1-1.36l1.54-0.66l0.58,0.53l2.19,2.04
		l-0.31,0.12l-1.61,0.61c-2.17,0.76-4.25,1.74-6.36,2.64c-4.15,1.97-8.15,4.2-11.98,6.71c-3.81,2.53-7.43,5.33-10.81,8.39
		c-1.7,1.52-3.36,3.08-4.94,4.71c-1.6,1.62-3.16,3.27-4.62,5.02C71.3,107.01,71.01,107.08,70.8,106.98z M74.2,110.48
		c0,0-1.85-2.1-2.46-2.67c0.12-0.09,0.13-0.13,0.32-0.38c2.87-3.51,5.73-7.13,9.22-10.03c3.52-2.87,7.21-5.52,11.07-7.89
		c1.75-1.1,3.55-2.13,5.36-3.11c-0.1,0.06-0.19,0.12-0.29,0.18c-3.15,2.08-6.14,4.41-8.97,6.91c-2.81,2.52-5.54,5.15-7.99,8.03
		C78.11,104.31,75.99,107.29,74.2,110.48z M93.96,124.43c-0.24,0.34-0.45,0.74-0.51,1.23c-0.04,0.29,0,0.63,0.12,0.95
		c-1.2-1.32-2.41-2.63-3.61-3.95l-4.53-4.83c-1.52-1.6-2.92-3.32-4.6-4.76c-1.56-1.35-3.17-2.65-4.95-3.77
		c0.99-1.32,1.5-2.02,2.55-3.3c1.13,0.78,2.27,1.66,3.22,2.71c0.99,1.11,2.03,2.17,3.09,3.22c1.07,1.03,2.15,2.05,3.29,3.02
		c0.97,0.83,1.97,1.63,3.01,2.38c0.04,0.25,0.13,0.5,0.29,0.72c0.28,0.39,0.72,0.65,1.17,0.77c0.45,0.11,0.9,0.13,1.33,0.07
		c0.34-0.05,0.66-0.15,0.97-0.27c-0.36,0.3-0.71,0.64-1.02,1.06c-0.24,0.34-0.45,0.74-0.51,1.23c-0.06,0.48,0.05,1.08,0.44,1.53
		c0.38,0.45,0.92,0.7,1.42,0.78c0.01,0,0.02,0,0.04,0C94.74,123.56,94.32,123.94,93.96,124.43z M99.36,124.22
		c-0.29,0.56-0.75,1.04-1.27,1.42c-0.53,0.36-1.14,0.63-1.72,0.7c-0.29,0.04-0.56,0.04-0.79,0c-0.23-0.04-0.38-0.11-0.5-0.21
		c-0.12-0.09-0.23-0.24-0.3-0.48c-0.07-0.24-0.08-0.56-0.03-0.88c0.08-0.54,0.35-1.08,0.73-1.52c0.37,0.01,0.72-0.04,1.04-0.13
		c0.73-0.21,1.34-0.58,1.89-1.01c0.43,0.07,0.8,0.25,1,0.52C99.73,123.03,99.65,123.67,99.36,124.22z M99.66,116.83
		c-0.29,0.04-0.56,0.04-0.79,0c-0.23-0.04-0.38-0.11-0.5-0.21c-0.12-0.09-0.23-0.24-0.3-0.48c-0.07-0.24-0.08-0.56-0.03-0.88
		c0.08-0.59,0.4-1.17,0.84-1.63c0.57-0.23,1.07-0.56,1.53-0.93c0.19-0.06,0.38-0.1,0.58-0.12c0.7-0.08,1.42,0.11,1.72,0.54
		c0.04,0.05,0.07,0.11,0.1,0.17c-0.19,0.3-0.34,0.64-0.39,1.05c-0.03,0.22-0.01,0.46,0.04,0.7c-0.28,0.42-0.66,0.79-1.08,1.09
		C100.84,116.49,100.24,116.76,99.66,116.83z M100.25,120.28c-0.05-0.18-0.06-0.41-0.05-0.65c0.07-0.23,0.12-0.48,0.13-0.73
		c0.11-0.31,0.27-0.6,0.48-0.87c0.5-0.25,0.95-0.56,1.36-0.92c0.07-0.07,0.14-0.14,0.21-0.21c0.25-0.09,0.51-0.16,0.77-0.19
		c0.7-0.08,1.42,0.12,1.72,0.54c0.06,0.08,0.1,0.17,0.14,0.26c-0.12,0.24-0.22,0.51-0.26,0.81c-0.02,0.19-0.01,0.39,0.02,0.6
		c-0.29,0.52-0.73,0.98-1.23,1.34c-0.53,0.36-1.14,0.63-1.72,0.7c-0.29,0.04-0.56,0.04-0.79,0c-0.23-0.04-0.38-0.11-0.5-0.21
		C100.44,120.67,100.32,120.52,100.25,120.28z M105.03,122.14c-0.24,0.34-0.45,0.74-0.51,1.23c-0.03,0.22-0.01,0.46,0.04,0.7
		c-0.18,0.18-0.38,0.36-0.59,0.51c-0.53,0.36-1.14,0.63-1.72,0.7c-0.29,0.04-0.56,0.04-0.79,0c-0.22-0.04-0.38-0.11-0.5-0.21
		c-0.12-0.09-0.23-0.24-0.3-0.48c-0.07-0.24-0.08-0.56-0.03-0.88c0.05-0.38,0.21-0.75,0.42-1.1c0.4,0.02,0.78-0.03,1.13-0.12
		c0.86-0.25,1.57-0.71,2.18-1.25c0.05-0.05,0.1-0.1,0.15-0.15c0.34,0.09,0.62,0.25,0.78,0.48c0.03,0.04,0.06,0.09,0.09,0.14
		C105.26,121.85,105.14,121.99,105.03,122.14z M105.89,121.05c-0.26-0.25-0.57-0.4-0.89-0.47c0.14-0.17,0.27-0.35,0.39-0.54
		c0.36,0.33,0.81,0.53,1.23,0.59c-0.22,0.17-0.43,0.34-0.64,0.52C105.94,121.11,105.92,121.08,105.89,121.05z M110.43,121.93
		c-0.29,0.56-0.75,1.04-1.27,1.42c-0.53,0.36-1.14,0.63-1.72,0.7c-0.29,0.04-0.56,0.04-0.79,0c-0.22-0.04-0.38-0.11-0.5-0.21
		c-0.02-0.01-0.03-0.03-0.05-0.05c0.03-0.07,0.07-0.14,0.1-0.22c0.15-0.39,0.25-0.82,0.22-1.27c-0.02-0.29-0.1-0.58-0.24-0.85
		c0.17-0.29,0.38-0.56,0.64-0.79c0.01-0.01,0.02-0.01,0.03-0.02c0.42,0.03,0.81-0.02,1.17-0.12c0.55-0.16,1.03-0.41,1.48-0.71
		c0.03,0.01,0.06,0.01,0.09,0.02c-0.05,0.47,0.07,1.04,0.44,1.47c0.14,0.17,0.32,0.3,0.5,0.42
		C110.49,121.79,110.46,121.86,110.43,121.93z M109.39,118.29c-0.53,0.36-1.14,0.63-1.72,0.7c-0.29,0.04-0.56,0.04-0.79,0
		c-0.23-0.04-0.38-0.11-0.5-0.21c-0.12-0.09-0.23-0.24-0.3-0.48c-0.07-0.24-0.08-0.56-0.03-0.88c0.06-0.45,0.26-0.89,0.54-1.28
		c0.46-0.24,0.88-0.53,1.25-0.86c0.12-0.11,0.23-0.22,0.34-0.34c0.26-0.1,0.53-0.18,0.81-0.2c0.19-0.02,0.38-0.02,0.56,0
		c0.07,0.14,0.15,0.28,0.26,0.41c0.3,0.35,0.7,0.58,1.11,0.7c0.02,0.33-0.07,0.69-0.25,1.03
		C110.38,117.44,109.91,117.92,109.39,118.29z M115.49,118.33c-0.29,0.56-0.75,1.04-1.27,1.42c-0.53,0.36-1.14,0.63-1.72,0.7
		c-0.29,0.04-0.56,0.04-0.79,0c-0.11-0.02-0.19-0.05-0.27-0.08c-0.09-0.21-0.21-0.41-0.37-0.57c-0.05-0.05-0.11-0.09-0.17-0.13
		c-0.05-0.23-0.06-0.5-0.02-0.79c0.02-0.16,0.06-0.32,0.12-0.48c0.22-0.3,0.41-0.63,0.56-0.98c0.1-0.12,0.21-0.24,0.33-0.35
		c0.53-0.46,1.19-0.79,1.88-0.86c0.06,0.3,0.18,0.59,0.4,0.84c0.38,0.45,0.92,0.7,1.42,0.78c0.03,0,0.07,0,0.1,0.01
		C115.64,118,115.58,118.17,115.49,118.33z M119.64,114.08c-0.29,0.56-0.75,1.04-1.27,1.42c-0.53,0.36-1.14,0.63-1.72,0.7
		c-0.17,0.02-0.34,0.03-0.5,0.02c0,0-0.01-0.01-0.01-0.01c-0.28-0.28-0.64-0.43-1-0.49c-0.03-0.06-0.06-0.13-0.08-0.21
		c-0.07-0.24-0.08-0.56-0.03-0.88c0.02-0.12,0.05-0.23,0.08-0.35c0.44-0.45,0.82-0.97,1.07-1.57c0.34-0.27,0.72-0.48,1.12-0.61
		c0.04,0.07,0.08,0.14,0.14,0.21c0.38,0.45,0.92,0.7,1.42,0.78c0.36,0.05,0.71,0.04,1.03-0.02
		C119.91,113.38,119.81,113.75,119.64,114.08z M122.95,107.74c0.32,0.41,0.24,1.04-0.05,1.59c-0.29,0.56-0.75,1.04-1.27,1.42
		c-0.53,0.36-1.14,0.63-1.72,0.7c-0.27,0.04-0.52,0.04-0.73,0.01c-0.03,0-0.05-0.01-0.08-0.01c-0.21-0.04-0.36-0.11-0.47-0.2
		c-0.12-0.09-0.23-0.24-0.3-0.48c-0.07-0.24-0.08-0.56-0.03-0.88c0,0,0-0.01,0-0.01c0.14-0.11,0.28-0.22,0.42-0.34
		c0.6-0.55,1.12-1.2,1.42-1.99c0-0.01,0.01-0.02,0.01-0.03c0.1-0.05,0.21-0.09,0.31-0.13c0.49,0.07,0.95,0.01,1.36-0.1
		c0.06-0.02,0.11-0.04,0.17-0.06C122.4,107.29,122.76,107.47,122.95,107.74z M124.47,103.63c-0.29,0.56-0.75,1.04-1.27,1.42
		c-0.53,0.36-1.14,0.63-1.72,0.7c-0.29,0.04-0.56,0.04-0.79,0c-0.23-0.04-0.38-0.11-0.5-0.21c-0.01,0-0.01-0.01-0.02-0.01
		c-0.07-0.15-0.16-0.29-0.26-0.42c-0.01-0.02-0.01-0.03-0.02-0.05c-0.07-0.24-0.08-0.56-0.03-0.88c0.09-0.66,0.47-1.33,1.01-1.81
		c0.38-0.33,0.83-0.58,1.3-0.73c0.34,0.39,0.82,0.61,1.26,0.68c0.44,0.07,0.84,0.01,1.21-0.09
		C124.81,102.63,124.72,103.16,124.47,103.63z M126.84,98.95c-0.24,0.46-0.63,0.86-1.07,1.18c-0.45,0.3-0.96,0.52-1.44,0.56
		c-0.24,0.03-0.46,0.02-0.63,0c-0.17-0.03-0.28-0.08-0.36-0.14c-0.08-0.06-0.17-0.15-0.24-0.34c-0.07-0.19-0.1-0.46-0.07-0.73
		c0.05-0.57,0.36-1.16,0.82-1.57c0.46-0.41,1.06-0.69,1.66-0.74c0.6-0.06,1.2,0.13,1.43,0.48
		C127.16,97.98,127.09,98.49,126.84,98.95z"/>
</g>
</svg>
