<?xml version="1.0" encoding="utf-8"?>
<!-- Generator: Adobe Illustrator 24.1.2, SVG Export Plug-In . SVG Version: 6.00 Build 0)  -->
<svg version="1.1" id="Layer_1" xmlns="http://www.w3.org/2000/svg" xmlns:xlink="http://www.w3.org/1999/xlink" x="0px" y="0px"
	 viewBox="0 0 128 128" style="enable-background:new 0 0 128 128;" xml:space="preserve">
<style type="text/css">
	.st0{fill:#C07D47;}
	.st1{fill:#935B35;}
	.st2{fill:#2D2D2D;}
	.st3{fill:#6B4226;}
	.st4{fill:#B27042;}
	.st5{fill:#525054;}
	.st6{fill:#3A3A3A;}
	.st7{fill:#EFDECE;}
	.st8{fill:#DBC9BA;}
</style>
<g>
	<path class="st0" d="M124.4,42.3l-0.1,0c-0.8-0.2-5.1-1.1-8.5-1.7c-3.2-0.6-5.3-1-5.9-1.2l-0.1,0c-2.5-0.9-4.3-0.3-4.9-0.1
		c-0.5,0.2-0.9,0.4-1.3,0.5l-3.4,0.9c-0.1,0.1-0.3,0.1-0.4,0.1l-3.4,1c0.1,0.1,0.2,0.3,0.3,0.4c0.2,0.1,0.3,0.2,0.5,0.3
		c0.2,0.1,0.4,0.2,0.7,0.3c0.5,0.2,0.9,0.3,1.4,0.2c-0.5,0.2-1,0.3-1.5,0.2c-0.5,0-1-0.2-1.6-0.4c0,0-0.1,0-0.1-0.1l0-0.1
		c-0.7-0.9-1.6-1.7-2.5-2.4c-0.9-0.7-1.9-1.2-3-1.6c-1-0.4-2.1-0.6-3.3-0.7c-0.6-0.1-1.1-0.1-1.7-0.1c-0.2,0-0.3,0-0.5,0
		c0.3,0.9,0.6,1.8,1,2.7c0.6,1.2,1.3,2.3,2.2,3.1c0.2,0.2,0.5,0.4,0.7,0.5c0.1,0.1,0.3,0.1,0.4,0.2l0.5,0.2c0.6,0.2,1.2,0.4,1.9,0.5
		c0.6,0.1,1.3,0.2,2,0.1c0.7,0,1.3-0.2,1.9-0.4l0.1,0c0.1,0,0.2,0,0.3,0.1c0.5,0.6,1,1.3,1.5,1.9c-0.6-0.4-1.2-0.9-1.7-1.3
		c-1.3,0.8-2.7,1-4.2,1c-0.8,0-1.5-0.2-2.3-0.4l0,0c-0.5,0.5-2.3,1.5-7.6,1.5h-0.1c-3.9,0-8.5-0.7-13.6-2.1l-0.2-0.1
		c-12.6-3.4-26.3-3.4-26.6-3.4c0,0,0,0,0,0c-19.3,0-31.1,4.6-35,13.6c-0.1,0.1-3.8,8.2,5.5,20.4c3.2,4.2,1,9-0.6,11L7,91.6
		c-0.6,0.7-0.8,1.6-0.5,2.5l0.2,0.8l1.2,4.8l4.5,18.6c0.1,0.5,0.3,1,0.7,1.4l3,3.9l1.8-1l-2.3-2.6c-0.8-0.9-1.3-1.9-1.4-3.1
		c-0.4-2.9-1.3-7.8-2.8-12.2c-0.9-2.6-1-5-0.3-7.1c0.6-1.9,2-3.4,3.9-4.4c1.4-0.7,2.6-1.4,3.9-2.1c0.1-0.1,0.2-0.1,0.2-0.1
		c5.6-3.4,9.6-7,11.8-10.9c0-0.1,0-0.2,0.1-0.2c0,0,0-0.1,0.1-0.1l0,0c0.7-1.1,1.3-2.4,1.7-3.7c0.4-1.3,0.7-2.7,0.8-4.1
		c0.1-0.7,0.1-1.4,0.1-2.1c-0.1-0.7-0.1-1.4-0.2-2.1c-0.1-0.6-0.2-1.2-0.4-1.8l-0.6-1.6l-0.1-0.3c-0.1-0.2-0.1-0.3-0.2-0.5
		c0.7,1.3,1.4,2.6,1.8,4c0.2,0.7,0.3,1.4,0.5,2.2c0.1,0.7,0.2,1.5,0.2,2.2c0,0.6,0,1.2,0,1.8l0,0c0,0,11.6,5.2,17.9,5.3
		c5.3,0.1,8.6-0.2,10-0.7c0-0.2,0-0.5,0.1-0.7c0.2-1.5,0.5-3,1-4.4c0.2-0.7,0.6-1.4,0.9-2.1c0.4-0.6,0.7-1.3,1.1-1.9
		c0.8-1.2,1.8-2.3,2.9-3.3c-0.9,1.1-1.8,2.2-2.5,3.5c-0.4,0.6-0.6,1.3-0.9,1.9c-0.2,0.7-0.5,1.3-0.6,2c-0.3,1.4-0.5,2.8-0.4,4.2
		c0,1.1,0.1,2.2,0.3,3.2c0.1,0.1,0.1,0.2,0.1,0.3c0,0.1,0,0.2,0,0.3c0,0.1,0,0.2,0,0.2l0,0c0,0.1,0.1,0.2,0.1,0.2
		c0.3,2.7,1.1,11,4.4,15.9c0.5,0.7,0.8,1.6,0.8,2.5c0.1,1.7,0.2,3.7,1.3,5.3c0.4,0.6,0.7,1.4,0.7,2.1c0.1,1.2,0.8,3.5,1.6,5.6
		c0.8,2.4,1.5,4.6,1.5,5.8c0,0.4,0.2,0.8,0.4,1.2l2.2,3.1l2-0.8l-1.9-2.3c-0.5-0.6-0.8-1.4-0.9-2.1l-3.5-11.2
		c-0.1-0.6,0-1.1,0.1-1.7c0.3-1.1,0.8-3.9-0.2-5.7c-0.4-0.7-0.6-1.3-0.7-2c0,0.1-0.1,0.1-0.1,0.2C71.5,96.1,71.2,86,71.5,82
		c0.1-0.9,0.4-1.7,1.1-2.3c1.6-1.6,4.3-4.2,6.2-5.2c0.3-0.1,0.5-0.3,0.6-0.6c0.9-1.6,3-5.6,3-5.6c0.2,0.6,0.3,1.3,0.4,1.9
		c0.1,0.5,0.1,0.9,0.2,1.4c-0.4-3.9,2.2-8.5,3.5-11.3c5.7-1,8.7-6.2,8.9-6.2c0,0,0,0,0,0c-0.1-0.1-0.1-0.2-0.1-0.3l0-0.1l0,0
		l-0.8-4.4l0.7,1.8c1,0.1,7.3,0.8,12.3,0.6c5.3-0.2,10.9-4.6,11.5-5.3c1,0.2,1.6,0,1.6,0s0,0,0,0c1-0.1,1.9-0.2,2.8-0.4
		c0.5-0.1,0.9-0.2,1.4-0.4c0.3-0.1,0.5-0.2,0.8-0.3c0-0.2,0.1-0.4,0.1-0.7c0.1-0.4,0.2-0.8,0.2-1.2C126.1,43,125.8,42.8,124.4,42.3z
		"/>
	<path class="st1" d="M118.9,46.6c0,0,3.2-4.6-9-7.3c0.8-0.8,2.5-0.7,2.5-0.7l13.2,2.8c0,0,1.7,1.8,1.6,1.8c-0.1,0-1.3,3.5-1.3,3.5
		S120.6,47.4,118.9,46.6z"/>
	<path class="st2" d="M126.6,42.9c0.2,0.7-0.1,1.4-0.8,1.6c-0.7,0.2-1.4-0.2-1.6-0.9s0-1.9,0.7-2.1
		C125.6,41.4,126.4,42.2,126.6,42.9z"/>
	<path class="st3" d="M3.4,59.8c-1,2.4-1.8,5.3-1.1,8.3c1.2,5.2,5,8,8.1,9.4c-0.1-0.1-0.1-0.2-0.2-0.4C4.6,69.8,3.4,63.8,3.4,59.8z"
		/>
	<path class="st4" d="M32.5,64.3c0.2,0.5,0.4,1,0.6,1.6L32.5,64.3z"/>
	<polygon class="st2" points="29.5,122.2 33.3,122.2 31.8,120.7 31.8,120.7 29.3,121.5 	"/>
	<path class="st5" d="M101.2,38.3c-1.2-0.6-2.8-1.4-4.5-2.2l3.3,2.5L101.2,38.3z"/>
	<path class="st2" d="M17.3,125.9h3.6l-1.5-1.5c0,0-0.1-0.1-0.1-0.1l-2.2,1.2L17.3,125.9z"/>
	<path class="st1" d="M81.8,77.4c-1.6,1.4-2.8,2.5-3.7,3.3c-0.7,0.7-1.3,1.2-1.7,1.6c4.8,2.7,11.2,4.2,12.2,4.1c0,0,0.1,0,0.2,0
		c2.4,0.1,3.2,1.2,3.4,1.9c0.5,1.4-0.3,2.5-0.8,3.3c-0.1,0.1-0.2,0.2-0.2,0.3c-1.4,2.2-2.7,8.8-3.1,11.2c0,0.3-0.2,0.5-0.4,0.7
		l-3.4,2.6l1.6,1.9l2.2-1.7c0.8-1.9,5.4-13.3,8.1-16.4c0.3-0.4,0.5-0.8,0.6-1.3c0.1-2.7-1.7-3.9-2.5-4.3c-0.5-0.3-1-0.6-1.5-0.9
		c-2.8-2.2-8.8-5.4-10.7-6.4C81.9,77.3,81.8,77.3,81.8,77.4z"/>
	<path class="st1" d="M32.8,81c-2.3,4.1-6.5,8-12.3,11.6l-0.3,2.3c-0.1,0.5-0.1,1.1,0,1.6c0.4,2.6,1.7,8.1,2.7,12.4
		c0.5,2.4,1,4.4,1.3,5.7c0.1,0.4,0.3,0.8,0.5,1.1l3.5,4l2-0.7l-3.7-3.7c-0.8-0.8-1.3-1.8-1.4-2.9l-1.3-11c-0.2-2.4,0.1-4.7,1.1-6.8
		c1-2.3,2.5-4.2,4.4-5.9c2.5-2.1,5-5.1,5.3-7.1C33.9,81.4,33.3,81.2,32.8,81C32.8,80.9,32.8,80.9,32.8,81z"/>
	<path class="st2" d="M82.2,107.8l1.1,3.7l1-1.8c0,0,0,0,0,0l-1.8-2.1L82.2,107.8z"/>
	<path class="st6" d="M89.5,46c0,0-1.4,3-7.9,2.7c-6.5-0.2-12.8-1.4-19.3-3c-8.2-2.1-23.7-2.5-29.4-1.3s-13.7,2.7-19.8,7.7
		c-5.2,4.3-7.8,9.3-6.6,13.8c-1.8-1.4-1.9-3.4-1.9-3.4s-1.2-9,5.1-13.3s18-9.3,30.9-8.7c12.9,0.7,24.5,2.4,28.3,3.7s9.4,2.2,13,2.1
		C85.6,46.1,89.5,46,89.5,46z"/>
	<path class="st7" d="M7,90.2c0,0,0.9,4.3,5.9,5c-0.9,2-1.2,6.2-1.2,6.2l2.5,10l1.3,6.8l4.4,5.1l-4,2.1l-4.2-5.7L5.3,93.9L7,90.2z"
		/>
	<path class="st8" d="M19.5,92.9C19.5,94,21.1,106,21.1,106l2.4,9.3l4.6,5.8c0,0,3.6-2.6,3.4-2.7s-5.1-5.2-5.1-5.2l-1.2-13.8l0-2.5
		C25.1,97,21.1,96,19.5,92.9z"/>
	<path class="st8" d="M93.4,83.6c0,0,0.4,3.3-1.9,4.7c-0.1,1.2-1,2.5-1,2.5L87,103l-4.3,3.4l3.3,3.3l2.9-2.8l7.9-16.2
		c0,0,1.2-1.9,0.6-3.5C96.9,85.5,93.4,83.6,93.4,83.6z"/>
	<path class="st7" d="M67.5,94.8c0,0,2.6,3.4,4.9,3.1c1.1,0.8,2,1.8,2,1.8l-0.2,7.1l3.6,11.7l3.8,4.9l-4.4,1.7l-3.1-5.5l-5.3-19
		l-1.9-5.5L67.5,94.8z"/>
	<path class="st1" d="M32.2,63.6c0,0,1.6,11.1-5.2,16.2c-3.4,6.9-13.1,12.9-14.4,15.4c1.4,0.6,4.1-1.3,4.1-1.3s8.2-4.4,12.1-9.1
		s5.9-10.5,5.5-13.5c-0.4-2.9-0.9-5.3-1.3-6.2C32.5,64.3,32.2,63.6,32.2,63.6z"/>
	<polygon class="st2" points="78.8,125.9 82.3,125.9 81,124.5 78.6,125.5 	"/>
	<path class="st2" d="M125.1,40.3l-0.2-0.1c-1-0.3-5-1.1-8.8-1.8c-2.6-0.5-5.1-1-5.7-1.1c-3.1-1.1-5.3-0.5-6.4,0c0,0,0,0,0,0
		c0,0-0.1,0-0.1-0.1c-0.1,0-0.5-0.2-1-0.5c-2.8-1.4-10.1-4.9-12.7-5.8c-0.6-0.2-1.2,0.1-1.4,0.6c-0.2,0.5-0.1,1.1,0.4,1.5l8.3,6.2
		l-1.8,0.5c-0.2,0-0.3,0.1-0.4,0.3c-0.2-0.3-0.5-0.6-0.8-0.8c-0.9-0.9-2-1.6-3.2-2.2c-1.2-0.5-2.4-0.9-3.7-1.1
		c-1.3-0.2-2.5-0.2-3.9,0l-0.1,0c-0.5,0.1-0.9,0.7-0.8,1.2l0,0c0.3,1.5,0.8,2.9,1.5,4.2c0.6,1.3,1.5,2.5,2.7,3.5
		c-0.9,0.3-2.5,0.6-5.3,0.6c-2.5,0-6.9-0.3-13.2-2.1l-0.2-0.1c-12.9-3.5-26.8-3.5-27.1-3.5c0,0,0,0,0,0c-19.2,0-31.4,4.5-36.2,13.4
		c-0.1,0.1-0.1,0.1-0.2,0.2c-0.3,0.3-6.4,7.5-4.6,15.1C2,75.8,7.9,78.9,11.4,80.1c0.3,2.9-1.6,5.2-1.7,5.4l-4.2,4.7
		c-1.1,1.2-1.4,2.9-1,4.5l0.2,0.8l5.6,23.3c0.2,0.8,0.5,1.6,1,2.2l3.6,4.8c0,0,0,0,0,0l0.5,1.5c0.1,0.4,0.5,0.7,1,0.7h6.7
		c0.4,0,0.8-0.2,1-0.6c0.2-0.4,0.1-0.8-0.2-1.1l-3.2-3.3c0,0,0,0,0,0l-3.7-4.2c-0.5-0.6-0.8-1.2-0.9-2c-0.4-3-1.3-8.1-2.9-12.6
		c-0.7-2.2-0.8-4.2-0.3-5.8c0.4-1.3,1.5-2.5,2.9-3.2c0.8-0.4,1.5-0.8,2.3-1.2l-0.1,0.8c-0.1,0.7-0.1,1.4,0,2.1
		c0.4,2.7,1.7,8.2,2.7,12.6c0.5,2.4,1,4.4,1.3,5.6c0.2,0.7,0.5,1.5,1,2.1l4.1,4.7c0,0.1,0,0.2,0.1,0.3l0.5,1.5
		c0.1,0.4,0.5,0.7,1,0.7h7c0.4,0,0.8-0.2,1-0.6c0.2-0.4,0.1-0.8-0.2-1.1l-3.2-3.3c0,0-0.1-0.1-0.2-0.1l-5.3-5.2
		c-0.4-0.4-0.7-1-0.8-1.6l-1.3-11c-0.2-2,0.1-4,0.9-5.7c0.9-2,2.2-3.7,3.9-5.2c1.3-1.1,5.1-4.6,5.9-7.9c2.8,0.9,6.7,1.7,11.9,1.7
		c3.9,0,8.6-0.4,14.2-1.5c0.3,3.2,1.2,11.4,4.7,16.5c0.3,0.4,0.4,0.9,0.5,1.4c0.1,2.1,0.4,4.4,1.6,6.4c0.2,0.4,0.4,0.8,0.4,1.2
		c0.1,1.4,0.9,3.7,1.6,6.1c0.7,2.1,1.4,4.3,1.5,5.3c0,0.8,0.3,1.5,0.7,2.2l2.8,3.9c0,0,0,0.1,0,0.1l0.5,1.5c0.1,0.4,0.5,0.7,1,0.7
		h6.7c0.4,0,0.8-0.2,1-0.6c0.2-0.4,0.1-0.8-0.2-1.1l-3.1-3.2l-3.1-3.8c-0.3-0.3-0.4-0.7-0.5-1.1l-3.5-11.2c0-0.3,0-0.6,0.1-0.9
		c0.4-1.7,0.9-4.9-0.5-7.3c-0.2-0.4-0.4-0.8-0.4-1.2c-0.2-3.7,0.1-10.6,0.7-13.4c5.1,2.9,11.8,4.5,13.3,4.4c1.1,0.1,1.5,0.4,1.5,0.5
		c0.1,0.4-0.1,0.7-0.5,1.4c-0.1,0.1-0.2,0.3-0.3,0.4c-1.7,2.7-3,9.8-3.4,11.6l-3.9,3c-0.1,0.1-0.1,0.1-0.2,0.2
		c-0.1,0-0.2,0.1-0.2,0.1l-1.3,0.9c-0.4,0.3-0.5,0.7-0.4,1.1l2,6.7c0.1,0.4,0.5,0.7,0.9,0.7c0,0,0.1,0,0.1,0c0.4,0,0.7-0.2,0.9-0.5
		l2.2-4c0-0.1,0.1-0.1,0.1-0.2c0,0,0.1,0,0.1,0l3.2-2.5c0.1-0.1,0.3-0.3,0.3-0.4c0.1-0.1,5.2-13,7.8-16.1c0.6-0.7,1-1.6,1-2.5
		c0.1-2.7-1.2-5.1-3.7-6.3c-0.4-0.2-0.8-0.4-1.1-0.7c-2.8-2.2-8.4-5.2-10.6-6.4c0.9-1.3,1.5-2.9,2.1-4.3c0.4-0.9,0.7-1.8,1.1-2.5
		c0.2-0.3,0.3-0.6,0.5-0.9c1.2-2.1,2-3.6,4.1-4.6c3.7-1.8,7.6-4.6,9.6-6.5c9.4,2.2,17.6-3.8,19.8-5.7c0,0,0,0,0,0
		c1.5,0,4-0.7,5.3-1.7c0.9-0.7,1.3-1.6,1.6-2.6c0.1-0.1,0.1-0.3,0.1-0.4c0.1-0.4,0.2-0.7,0.2-1.1c0.1-0.4,0.1-0.7,0.2-1.1
		C128.5,41.5,126.1,40.7,125.1,40.3z M96.7,36.1c1.7,0.8,3.3,1.6,4.5,2.2l-1.1,0.3L96.7,36.1z M2.3,68.1c-0.7-3,0.1-5.9,1.1-8.3
		c-0.1,4,1.1,10,6.7,17.3c0.1,0.1,0.2,0.2,0.2,0.4C7.4,76.1,3.5,73.3,2.3,68.1z M19.4,124.4l1.5,1.5h-3.6l-0.2-0.5l2.2-1.2
		C19.3,124.3,19.3,124.4,19.4,124.4z M31.8,120.7l1.5,1.5h-3.8l-0.2-0.6L31.8,120.7C31.8,120.7,31.8,120.7,31.8,120.7z M29.2,88.9
		c-1.9,1.6-3.4,3.6-4.4,5.9c-0.9,2.1-1.3,4.4-1.1,6.8l1.3,11c0.1,1.1,0.6,2.1,1.4,2.9l3.7,3.7l-2,0.7l-3.5-4
		c-0.3-0.3-0.5-0.7-0.5-1.1c-0.2-1.2-0.7-3.3-1.3-5.7c-1-4.4-2.2-9.8-2.7-12.4c-0.1-0.5-0.1-1,0-1.6l0.3-2.3
		c5.9-3.6,10-7.5,12.3-11.6c0,0,0-0.1,0-0.1c0.5,0.3,1,0.6,1.7,0.9C34.2,83.8,31.7,86.7,29.2,88.9z M82.3,125.9h-3.6l-0.1-0.4l2.4-1
		L82.3,125.9z M84.3,109.6l-1,1.8l-1.1-3.7l0.4-0.3L84.3,109.6C84.3,109.6,84.3,109.6,84.3,109.6z M92.7,83.6
		c0.5,0.4,0.9,0.7,1.5,0.9c0.8,0.4,2.6,1.6,2.5,4.3c0,0.4-0.2,0.9-0.6,1.3c-2.7,3.1-7.3,14.4-8.1,16.4l-2.2,1.7l-1.6-1.9l3.4-2.6
		c0.2-0.2,0.3-0.4,0.4-0.7c0.4-2.4,1.7-9,3.1-11.2c0.1-0.1,0.2-0.2,0.2-0.3c0.5-0.7,1.3-1.9,0.8-3.3c-0.2-0.6-1-1.8-3.4-1.9
		c0,0-0.1,0-0.2,0c-1,0.1-7.4-1.4-12.2-4.1c0.4-0.4,1-0.9,1.7-1.6c0.9-0.8,2.1-1.9,3.7-3.3c0.1-0.1,0.1-0.1,0.2-0.2
		C83.8,78.2,89.8,81.4,92.7,83.6z M125.9,43.8c-0.1,0.4-0.2,0.8-0.2,1.2c0,0.2-0.1,0.5-0.1,0.7c-0.3,0.1-0.5,0.2-0.8,0.3
		c-0.4,0.1-0.9,0.3-1.4,0.4c-0.9,0.2-1.8,0.4-2.8,0.4c0.9,0.3,1.9,0.5,2.9,0.6c0.5,0.1,1,0.1,1.5,0.1c-0.1,0.2-0.2,0.3-0.4,0.4
		c-1.1,0.8-3.6,1.4-4.2,1.3l-0.5-0.1l-0.4,0.3c-1.5,1.3-9.6,7.8-18.6,5.4c0,0,0,0-0.1,0l-0.5-0.1l-0.2-0.1l0,0l-3.6-0.9l-0.1,0
		c-0.1,0-0.3-0.1-0.4-0.2l0,0.1l-1.7-4.1l0.8,4.3l0,0l0,0.1c0.2,0.4,0.5,0.7,0.9,0.8l-0.1,0l2.5,1.3c-1.8,1.6-5,3.9-8.4,5.5
		c-2.7,1.3-3.7,3.2-5,5.5c-0.2,0.3-0.3,0.6-0.5,0.9c-0.4,0.8-0.8,1.7-1.2,2.7c-0.2,0.4-0.3,0.7-0.5,1.1c0-0.5-0.1-0.9-0.2-1.4
		c-0.1-0.7-0.3-1.3-0.4-1.9c0,0.7,0,1.3-0.1,2c-0.1,0.6-0.2,1.3-0.3,1.9c-0.1,0.6-0.3,1.2-0.5,1.8c-0.1,0.3-0.2,0.6-0.4,0.8
		c-0.1,0.3-0.3,0.6-0.4,0.7c0,0,0,0.1-0.1,0.1c-0.1,0.1-0.1,0.2-0.2,0.2c-1.6,1.4-2.8,2.5-3.7,3.3c-1.5,1.4-2.3,2-2.7,2.6
		c-1.5,2-1.7,12.7-1.5,15.9c0,0.7,0.3,1.4,0.7,2.1c1,1.8,0.5,4.6,0.2,5.7c-0.1,0.6-0.2,1.1-0.1,1.7l3.5,11.2
		c0.1,0.7,0.4,1.5,0.9,2.1l1.9,2.3l-2,0.8l-2.2-3.1c-0.2-0.3-0.4-0.7-0.4-1.2c-0.1-1.3-0.8-3.5-1.5-5.8c-0.7-2.2-1.4-4.4-1.5-5.6
		c-0.1-0.7-0.3-1.5-0.7-2.1c-1.1-1.6-1.2-3.6-1.3-5.3c0-0.9-0.3-1.8-0.8-2.5c-3.3-4.9-4.2-13.2-4.4-15.9c0-0.1,0-0.2-0.1-0.3l0,0
		c0-0.1,0-0.2,0-0.2c0-0.1,0-0.2,0-0.3c0-0.1-0.1-0.2-0.1-0.3c-0.2-1-0.3-2.1-0.3-3.2c0-1.4,0.1-2.8,0.4-4.2c0.1-0.7,0.4-1.4,0.6-2
		c0.3-0.6,0.5-1.3,0.9-1.9c0.6-1.3,1.5-2.4,2.5-3.5c-1.1,1-2.1,2-2.9,3.3c-0.4,0.6-0.8,1.3-1.1,1.9c-0.3,0.7-0.6,1.3-0.9,2.1
		c-0.5,1.4-0.8,2.9-1,4.4c-0.1,0.8-0.1,1.5-0.1,2.3c0,0.2,0,0.5,0,0.7c-12.7,2.4-23.1,1.8-28.9-1.7c0-0.1,0.1-0.2,0.1-0.3
		c0.2-0.7,0.4-1.5,0.6-2.2c0.3-1.5,0.4-3,0.4-4.5c0-0.7-0.1-1.5-0.2-2.2c-0.2-0.7-0.3-1.5-0.5-2.2c-0.4-1.4-1.1-2.7-1.8-4
		c0.6,1.3,1.1,2.7,1.3,4.1c0.2,0.7,0.2,1.4,0.2,2.1c0,0.7,0,1.4-0.1,2.1c-0.1,1.4-0.4,2.8-0.8,4.1c-0.4,1.3-1,2.6-1.7,3.7l0,0
		c0,0,0,0.1-0.1,0.1c0,0.1-0.1,0.1-0.1,0.2C28.7,84,24.7,87.6,19.1,91c-0.1,0-0.2,0.1-0.2,0.1c-1.2,0.7-2.5,1.4-3.9,2.1
		c-1.9,1-3.3,2.5-3.9,4.4c-0.7,2.1-0.6,4.5,0.3,7.1c1.5,4.4,2.4,9.3,2.8,12.2c0.1,1.2,0.6,2.2,1.4,3.1l2.3,2.6l-1.8,1l-3-3.9
		c-0.3-0.4-0.5-0.9-0.7-1.4L6.7,94.9l-0.2-0.8c-0.3-0.9-0.1-1.8,0.5-2.5l4.2-4.8c1.6-1.9,3.8-6.7,0.6-11C2.6,63.7,6.3,55.6,6.3,55.5
		c3.9-9,15.7-13.6,35-13.6c0,0,0,0,0,0c0.3,0,14,0,26.6,3.5l0.2,0.1c5.2,1.4,9.8,2.1,13.6,2.1c0,0,0.1,0,0.1,0c5.3,0,7.1-1,7.6-1.5
		l0,0c0.7,0.2,1.5,0.4,2.3,0.4c1.5,0,2.9-0.2,4.2-1c0.6,0.4,1.1,0.9,1.7,1.3c-0.5-0.6-1-1.3-1.5-1.9c-0.1-0.1-0.2-0.1-0.3-0.1
		l-0.1,0c-0.6,0.2-1.3,0.4-1.9,0.4c-0.7,0-1.3,0-2-0.1c-0.6-0.1-1.3-0.3-1.9-0.5l-0.5-0.2c-0.1-0.1-0.3-0.1-0.4-0.2
		c-0.3-0.1-0.5-0.3-0.7-0.5c-0.9-0.8-1.6-1.9-2.2-3.1c-0.4-0.8-0.7-1.8-1-2.7c0.2,0,0.3,0,0.5,0c0.6,0,1.1,0,1.7,0.1
		c1.1,0.1,2.2,0.3,3.3,0.7c1.1,0.4,2,0.9,3,1.6c0.9,0.7,1.7,1.5,2.5,2.4l0.1,0.1c0,0,0.1,0.1,0.1,0.1c0.5,0.2,1,0.3,1.6,0.4
		c0.5,0,1.1,0,1.5-0.2c-0.5,0.1-1,0-1.5-0.2c-0.2-0.1-0.5-0.2-0.7-0.3c-0.2-0.1-0.4-0.2-0.5-0.3c-0.1-0.1-0.2-0.3-0.3-0.4l3.4-1
		c0.1,0,0.3,0,0.4-0.1l3.4-0.9c0.4-0.1,0.8-0.3,1.3-0.5c0.6-0.3,2.4-0.8,4.9,0.1l0.1,0c0.6,0.2,2.6,0.5,5.9,1.2
		c3.4,0.7,7.7,1.5,8.5,1.7l0.1,0.1C125.8,42.8,126,43,125.9,43.8z"/>
	<path class="st2" d="M112.4,43.7l-0.3-0.1l-0.5-0.2c-0.4-0.2-0.7-0.3-1.1-0.4c-0.4-0.1-0.7-0.3-1.1-0.4c-0.2,0-0.3-0.1-0.5-0.1
		c0,0,0-0.1,0-0.1c-0.5-0.8-1.5-1.1-2.3-0.6c-0.8,0.5-1.1,1.5-0.6,2.3c0.5,0.8,1.5,1.1,2.3,0.6c0.2-0.1,0.3-0.2,0.5-0.4
		c0.2,0,0.3,0,0.5,0c0.4,0,0.8-0.1,1.1-0.1l1.2,0l0.6,0l0.3,0c0.1,0,0.2,0.1,0.3-0.1C112.6,43.7,112.5,43.7,112.4,43.7z"/>
	<path class="st1" d="M62.4,79.9c0,0.2,0,0.5,0,0.7c-12.7,2.4-23.1,1.8-28.9-1.7c0-0.1,0.1-0.2,0.1-0.3c0.2-0.7,0.4-1.5,0.6-2.2
		c0.2-0.9,0.3-1.8,0.3-2.6l0,0c0,0,11.6,5.2,17.9,5.3c5.3,0.1,8.6-0.2,10-0.7C62.5,78.9,62.4,79.4,62.4,79.9z"/>
	<polygon class="st1" points="32.5,64.3 32.4,64.1 32.4,64 	"/>
	<path class="st7" d="M98.5,56c-1.8,1.6-5,3.9-8.4,5.5c-2.7,1.3-3.7,3.2-5,5.5c-0.2,0.3-0.3,0.6-0.5,0.9c-0.4,0.8-0.8,1.7-1.2,2.7
		c-0.2,0.4-0.3,0.7-0.5,1.1c-0.4-3.9,2.2-8.5,3.5-11.3c5.7-1,8.7-6.2,8.9-6.2c0,0,0,0,0,0c0.2,0.2,0.4,0.4,0.7,0.5L98.5,56z"/>
	<path class="st7" d="M124.8,47.4c-0.1,0.2-0.2,0.3-0.4,0.4c-1.1,0.8-3.6,1.4-4.2,1.3l-0.5-0.1l-0.4,0.3c-1.5,1.3-9.6,7.8-18.6,5.4
		c0,0,0,0-0.1,0l-0.5-0.1l-0.2-0.1l0,0l-3.6-0.9l-0.1,0c-0.1,0-0.3-0.1-0.4-0.2l-0.9-2.2c1,0.1,7.3,0.8,12.3,0.6
		c5.3-0.2,10.9-4.6,11.5-5.3c1,0.2,1.6,0,1.6,0c0.9,0.3,1.9,0.5,2.9,0.6C123.8,47.4,124.3,47.4,124.8,47.4z"/>
	<path class="st1" d="M82.4,68.3c0,0.7,0,1.3-0.1,2c-0.1,0.6-0.2,1.3-0.3,1.9c-0.1,0.6-0.3,1.2-0.5,1.8c-0.1,0.3-0.2,0.6-0.4,0.8
		c-0.1,0.3-0.3,0.6-0.4,0.7c0,0,0,0.1-0.1,0.1c-0.1,0.1-0.1,0.2-0.2,0.2c-1.6,1.4-2.8,2.5-3.7,3.3c-1.5,1.4-2.3,2-2.7,2.6
		c-1.5,2-1.7,12.7-1.5,15.9c0,0,0,0.1,0,0.1c0,0.1-0.1,0.1-0.1,0.2C71.5,96.1,71.2,86,71.5,82c0.1-0.9,0.4-1.7,1.1-2.3
		c1.6-1.6,4.3-4.2,6.2-5.2c0.3-0.1,0.5-0.3,0.6-0.6C80.3,72.3,82.4,68.3,82.4,68.3z"/>
</g>
</svg>
