<?xml version="1.0" encoding="utf-8"?>
<!-- Generator: Adobe Illustrator 24.1.2, SVG Export Plug-In . SVG Version: 6.00 Build 0)  -->
<svg version="1.1" id="Layer_1" xmlns="http://www.w3.org/2000/svg" xmlns:xlink="http://www.w3.org/1999/xlink" x="0px" y="0px"
	 viewBox="0 0 128 128" style="enable-background:new 0 0 128 128;" xml:space="preserve">
<style type="text/css">
	.st0{fill:#68676C;}
	.st1{fill:#D37A3D;}
	.st2{fill:#E2DED7;}
	.st3{fill:#B7AE9F;}
	.st4{fill:#C1A980;}
	.st5{fill:#A06F4A;}
	.st6{fill:#868689;}
	.st7{fill:#E8AD6D;}
	.st8{fill:#37373A;}
	.st9{fill:#454549;}
	.st10{fill:#89898C;}
	.st11{fill:#2D2D2D;}
	.st12{fill:#54545B;}
	.st13{fill:#A38D6C;}
	.st14{fill:#5D5D63;}
</style>
<g>
	<path class="st0" d="M50.3,20.6c0.7,0.7,1.4,1.3,2.2,1.7c0.7,0.4,1.4,0.7,2.1,1c0.2-0.2,0.4-0.5,0.5-0.7c1-1.1,1.5-2.2,1.5-2.9
		c0-1.1-1.2-3.3-2-4.5c-1.3-0.3-2.6-0.6-3.3-0.9c-0.5-0.2-1.1-0.1-1.6,0.2l-2.6,1.6c0.4,0.8,0.9,1.6,1.3,2.3
		C49,19.2,49.6,19.9,50.3,20.6z M53.1,16.7c0.7,0,1.3,0.6,1.3,1.3c0,0.7-0.6,1.3-1.3,1.3s-1.3-0.6-1.3-1.3
		C51.8,17.3,52.4,16.7,53.1,16.7z"/>
	<path class="st1" d="M58.4,5.5c-7.2,0-10.8,6.3-12.6,9.5l3.1-1.9c0.9-0.5,1.9-0.7,2.9-0.3c1.4,0.5,4.2,1.3,6.6,1.3
		c2.7,0,5.4-0.8,6.8-1.3c0.4-0.1,0.7-0.2,1.1-0.2c0.6,0,1.3,0.2,1.8,0.5l3,1.9C69.4,11.9,65.6,5.5,58.4,5.5z"/>
	<path class="st2" d="M58.4,33.3c1.9,0,3.9-0.5,6.1-1.4c-0.2-2.6-1.6-5.3-2.5-6.8c-0.4,0.3-0.8,0.6-1.2,0.8
		c-0.7,0.4-1.4,0.6-2.2,0.6c-0.8,0-1.5-0.2-2.2-0.6c-0.4-0.2-0.9-0.5-1.3-0.8c-0.9,1.6-2.3,4.2-2.5,6.7
		C54.2,32.6,56.4,33.3,58.4,33.3z M60.3,29.4c0.3-0.4,0.7-1.9,1.1-1.5c0.4,0.3,0.3,2.1,0,2.5c-0.3,0.4-0.9,0.4-1.3,0.1
		C59.6,30.1,60,29.7,60.3,29.4z M55.7,27.8c0.4-0.3,0.7,1.2,1.1,1.5c0.3,0.4,0.7,0.8,0.3,1.1c-0.4,0.3-1,0.3-1.3-0.1
		S55.4,28.1,55.7,27.8z"/>
	<path class="st3" d="M52.8,33.6c0.2,0.9,0.7,2.2,1.7,3.2c1.1,1.1,2.4,1.6,4.1,1.6c4,0,5.3-3.1,5.7-4.8c-2.1,0.8-4.1,1.2-6,1.2
		C56.5,34.8,54.4,34.2,52.8,33.6z"/>
	<path class="st4" d="M65.6,29.8c-0.6-2.2-1.6-4.3-2.4-5.5c0.7-0.3,1.4-0.7,2-1.1c0.8-0.6,1.6-1.3,2.2-2.1c0.6-0.8,1.2-1.6,1.6-2.5
		c0.4-0.8,0.7-1.6,1-2.5l2.3,1.5c0.1,0.1,0.3,0.1,0.5,0.1c0.3,0,0.6-0.1,0.7-0.3c0.1-0.2,0.2-0.4,0.2-0.6
		C74.9,23.9,66.1,29.6,65.6,29.8z"/>
	<path class="st5" d="M12.9,95.1l-1.6,1.8c-0.6,0.6-0.9,1.5-0.7,2.4c0.1,0.9,0.6,1.6,1.4,2.1l3.4,2c0.6,0.3,4.2,1,7.4,1.2
		c0.2-2.4,0.5-4.4,0.8-5.4c0,0,0,0,0,0c-3.8-0.1-6.7-1.1-7.5-1.5C14.6,96.9,13.6,95.9,12.9,95.1z"/>
	<path class="st2" d="M51.4,30c-0.8,0.3-1.4,1-1.8,1.7c-0.2,0.5-0.4,1-0.5,1.5c0,0.3,0,0.5,0,0.8l0,0.4c0,0.1,0.1,0.2,0.1,0.3
		c0.2,0.4,0.4,1,0.7,1.5c0.3,0.5,0.6,1,0.8,1.5l1.7,3l6,10.3l6-10.3l1.7-3c0.3-0.5,0.6-1,0.8-1.5c0.3-0.5,0.5-1,0.7-1.5
		c0-0.1,0.1-0.2,0.1-0.3l0-0.4c0-0.3,0-0.5,0-0.8c-0.1-0.5-0.2-1-0.5-1.5c-0.4-0.7-1-1.4-1.8-1.7c0.2,0.8,0.3,1.6,0.3,2.4v0.1
		c0,0,0,0,0,0c0,0,0,0,0,0.1v0.3l0,0c-0.3,2.6-2.1,7-7.3,7c-5.3,0-7.2-4.5-7.5-7l0,0v-0.5C51.1,31.6,51.2,30.8,51.4,30z"/>
	<path class="st0" d="M62.5,23.2c0.7-0.3,1.4-0.6,2-1c0.8-0.5,1.5-1,2.1-1.7c1.3-1.3,2.3-2.8,3.2-4.5l-2.4-1.5
		c-0.5-0.3-1.1-0.4-1.7-0.2c-0.8,0.3-1.9,0.6-3.3,0.9c-0.8,1.2-2,3.4-2,4.5c0,0.7,0.6,1.8,1.5,2.9C62.2,22.8,62.3,23,62.5,23.2z
		 M63.7,16.7c0.7,0,1.3,0.6,1.3,1.3c0,0.7-0.6,1.3-1.3,1.3s-1.3-0.6-1.3-1.3C62.4,17.3,63,16.7,63.7,16.7z"/>
	<path class="st0" d="M60.5,15.5c-0.7,0.1-1.4,0.1-2.1,0.1c-0.6,0-1.2,0-1.8-0.1c0.7,1.2,1.5,2.9,1.5,4.2c0,1.3-1,2.8-1.9,3.9
		c-0.1,0.2-0.3,0.3-0.4,0.5c0.4,0.3,0.7,0.5,1.1,0.7c0.5,0.3,1.1,0.4,1.5,0.4c0.4,0,1-0.2,1.5-0.4c0.4-0.2,0.8-0.5,1.1-0.7
		c-0.1-0.1-0.2-0.3-0.3-0.4C60,22.5,59,21,59,19.7C59,18.4,59.8,16.6,60.5,15.5z"/>
	<path class="st6" d="M103.6,89.9c-0.3-6.7-2.5-15.2-8.3-18.6c-3.9-2.3-8.1-1.9-12.7,1.2c0.3-0.7,0.7-1.3,1-2c1-2.1,2-4.3,2.8-6.6
		c0.8-2.2,1.5-4.5,2-6.9c0.4-2.3,0.6-4.8,0.1-7.1c0.4,2.4-0.1,4.7-0.6,7c-0.6,2.3-1.5,4.5-2.5,6.6c-1,2.1-2.1,4.2-3.3,6.2
		c-0.6,1-1.2,2-1.8,2.9C72,81.1,65,81.5,63.6,81.5h0c0.4-1.1,0.7-2.4,0.9-3.9c0-0.1,0.1-0.2,0.1-0.3v0c0.1-2,0.3-4,0.5-6
		c0.2-2,0.4-4,0.7-6c0.3-2,0.6-4,1.1-5.9c0.4-2,0.9-3.9,1.7-5.8c-0.9,1.8-1.6,3.7-2.2,5.6c-0.6,1.9-1.1,3.9-1.6,5.9
		c-0.5,2-0.9,4-1.3,5.9c-0.4,2-0.7,3.9-1,5.9c0,0.1,0,0.1-0.1,0.2c-0.4,2.3-0.9,4-1.4,5.1c-1.2,2.3-2.2,4.9-3.1,7.2
		c-0.2,0.5-0.4,1-0.6,1.4c0-1.5-0.2-3.3-0.9-5.5c-1-3.1-1.8-6.6-2.1-10.2c0,0,0,0,0,0c0,0,0-0.1,0-0.1c0-0.1,0-0.2-0.1-0.3
		c-0.3-1.1-0.5-2.4-0.6-3.6c-0.1-1.3-0.2-2.6-0.2-3.9c0-1.3,0.1-2.6,0.3-3.9c0.2-1.3,0.4-2.6,0.8-3.9c-0.5,1.2-1,2.5-1.3,3.7
		c-0.4,1.3-0.6,2.6-0.9,3.9c-0.2,1.3-0.3,2.7-0.4,4c0,0.8,0,1.6,0,2.4c-4.8,1.2-9-8.1-10.1-11c-1.9-14.8,0.8-27.1,2-30.6
		c0.1-0.2,0.1-0.4,0.2-0.6c0.5,0.5,1,0.9,1.6,1.3c0.5,0.3,1,0.6,1.5,0.9c0.4,0.2,0.7,0.5,1.2,0.4c0,0,0,0,0,0l0,0.5
		c0,0.2,0.1,0.3,0.1,0.5c0.2,0.7,0.4,1.2,0.6,1.7c0.2,0.6,0.5,1.1,0.7,1.6c0.5,1.1,1,2.1,1.5,3.2c1,2.1,2.1,4.1,3.2,6.2
		c1.1,2,2.3,4.1,3.4,6.1l1,1.7l1-1.7c1.1-2,2.3-4,3.4-6.1c1.1-2.1,2.2-4.1,3.2-6.2c0.5-1,1-2.1,1.5-3.2c0.2-0.5,0.5-1.1,0.7-1.6
		c0.2-0.6,0.4-1.1,0.6-1.7c0.1-0.4,0.1-0.7,0.1-1v0c0.2,0.1,0.3,0,0.5-0.1c0.3-0.1,0.5-0.3,0.8-0.4c0.5-0.3,1-0.6,1.5-0.9
		c1-0.7,1.8-1.5,2.6-2.3c0.8-0.9,1.5-1.9,2-2.9c0.6-1,1-2.1,1.3-3.2c4.8,2,17.2,9.2,25,27.1c0.9,2.1,1.8,4.5,2.5,6.9
		C107.4,66.4,110.1,78.2,103.6,89.9z"/>
	<path class="st7" d="M71.3,99.5c-0.1,0.1-0.2,0.1-0.3,0.2C71.1,99.6,71.2,99.6,71.3,99.5C71.3,99.6,71.3,99.5,71.3,99.5z"/>
	<path class="st8" d="M104.8,94.2c0.7-0.8,0.8-2.1,0.8-3.3c-0.6,1.1-1.3,2.2-2,3.3C103.9,94.3,104.3,94.3,104.8,94.2z"/>
	<path class="st7" d="M71.1,99.7c0,0-0.1,0-0.1,0c0,0,0,0,0,0C71,99.7,71,99.7,71.1,99.7z"/>
	<path class="st7" d="M71.7,98.7C71.7,98.7,71.7,98.8,71.7,98.7C71.7,98.8,71.7,98.8,71.7,98.7C71.7,98.7,71.7,98.7,71.7,98.7z"/>
	<path class="st6" d="M101,96.3c-10.3,5.5-12.9,5.3-16.7,4.9C82.8,98.9,86,83.9,86,83.9c-2.1,2.9-3.6,6.3-4.5,9.8
		c-0.5,1.8-0.8,3.6-1,5.4c-0.1,0.9-0.1,1.8-0.1,2.8c0,0.5,0,0.9,0.1,1.4c0,0.2,0.1,0.5,0.1,0.8c0,0.1,0,0.1,0,0.2
		c-2.7,1.5-9.1,2.3-11.5,1.8l-0.2,0c-3.2-0.1-6.1,0.8-7.7,1.5c0.2-1.3,0.7-2.7,2-3.5c0.9-0.6,1.6-1.1,2.1-1.5
		c0.5-0.4,1.1-0.7,1.8-0.7c0.5,0,1.1-0.1,1.7-0.4c0.6-0.3,1.2-0.7,1.8-1.3c0.3,0.2,0.6,0.5,0.9,0.7c0.6,0.4,1.2,0.8,1.8,1.1
		c1.3,0.7,2.6,1.2,4,1.4c-1.3-0.6-2.4-1.4-3.3-2.3c-0.5-0.5-0.9-1-1.4-1.5c-0.2-0.3-0.4-0.5-0.6-0.8c-0.1-0.1-0.2-0.2-0.2-0.3
		c0,0,0,0,0-0.1c4.9-9.6,7.7-16.6,8.4-20.9c0,0,0,0,0,0C80.7,77,99.6,63.2,101,96.3z"/>
	<path class="st9" d="M45.5,12.6c2.2-3.6,6.1-8.6,12.9-8.6c6.8,0,10.8,4.9,13,8.6c1-0.5,1.9-1.2,2.6-2c0.7-0.8,1.1-1.8,1.2-2.8
		c0-0.3,0-0.6,0-0.9c-0.1,0-0.2,0.1-0.4,0.1c-0.5,0.1-1,0.1-1.5,0.1c-0.9-0.1-1.6-0.4-2.2-0.8c-1.1-0.6-2.1-1.1-3.2-1.7
		c-1-0.5-2.1-1-3.1-1.3C64,3,62.9,2.7,61.8,2.5c-1.1-0.2-2.1-0.3-3.2-0.3c-2.2-0.1-4.3,0.4-6.4,1.1c-1.1,0.4-2.1,0.8-3.1,1.3
		c-1,0.5-2,1.1-3.1,1.6c-0.6,0.3-1.3,0.6-2.1,0.8c-0.4,0.1-0.9,0.1-1.4,0c-0.2,0-0.4-0.1-0.6-0.2c0,0.3,0,0.5,0,0.8
		c0.1,1,0.4,2,1.1,2.8C43.6,11.4,44.5,12.1,45.5,12.6z"/>
	<path class="st5" d="M116.4,95.6c-0.1-0.3-0.2-0.4-0.3-0.5c-0.1-0.1-0.3-0.1-0.6-0.1c-2.8,0.9-10.2,1.3-12.3,1.5
		c-0.3,1.5-1,2.9-2.4,4.1c-3.5,2.9-10.4,6-18.5,5.1c-3.1,2.2-10.8,3-13.6,2.4c-1.8-0.1-3.6,0.3-4.9,0.7c5.9,0.3,12.5,0.1,18.8-0.1
		l2.4-0.1c2-0.1,3.8-0.4,5.5-0.9c8-2.6,20.3-4.8,24.8-4.9c0.7,0,1.3-0.3,1.8-0.9c0.4-0.5,0.6-1.2,0.4-1.9
		C117.1,98.7,116.7,97,116.4,95.6z"/>
	<path class="st8" d="M35.3,98.1c0.3-0.4,0.5-0.7,0.8-0.9c0.1-0.1,0.2-0.1,0.3-0.2c0.5-0.4,0.9-0.7,1.5-1c-1.3-2.3-2.2-4.6-2.9-6.9
		c-0.8,0.4-1.8,1-2.3,1.2c-4.8,2.5-6.5,7.4-7,9.3c-0.7,3-1.8,14.2,0.2,19c0.8,1.9,2.6,4.4,4.9,5.7c1.4,0.8,3.7,1.7,5.4,1.2
		c0.7-0.2,1.3-0.6,1.7-1.3c0.2-0.4,0.3-0.9,0.2-1.3c-0.1-0.3-0.4-0.5-0.8-0.6c-2.2-0.7-3.6-2.3-4.5-4.8c-1.6-4.8-0.4-14.4,2-18.7
		c0.1-0.2,0.2-0.4,0.3-0.6C35.2,98.3,35.2,98.2,35.3,98.1z"/>
	<path class="st10" d="M43.3,94c0.8-0.2,1.3-0.9,1.2-1.6c-0.4-3.2-1.5-9.6-2.5-14.8c-0.9-4.8-1.4-7.6-1.5-8.5
		c-0.3-1.4-0.5-2.7-0.7-4c-2.6,5.3-7,17.6,0,30C41.1,94.6,42.4,94.2,43.3,94z"/>
	<path class="st4" d="M53.8,24.4c-0.8,1.3-1.8,3.3-2.3,5.4c0,0-9.2-5.5-8.2-13.2c0,0,0,0,0,0c0,0.2,0.1,0.4,0.2,0.6
		c0.3,0.4,0.8,0.5,1.3,0.3l2.1-1.3c0.2,0.9,0.6,1.7,1,2.5c0.5,0.9,1,1.8,1.7,2.6c0.6,0.8,1.4,1.5,2.3,2.1
		C52.4,23.8,53.1,24.1,53.8,24.4z"/>
	<path class="st5" d="M50.9,101.7l-0.3-0.3c-0.5-0.5-0.7-1.1-0.7-1.7c0,0,0-0.1,0-0.1c-3.6,0.2-9.1,0.7-12.8,1.7
		c-0.2,0-0.4,0.1-0.5,0.1c-0.2,0-0.3,0-0.5-0.1c-0.4,1.1-0.8,2.4-1.1,3.9c0.9,0.1,1.9,0.2,2.9,0.4c7.1,1.1,11.4,2.1,13.7,2.6
		C50.8,105.8,50.8,102.9,50.9,101.7z"/>
	<ellipse class="st11" cx="53.1" cy="18" rx="1.3" ry="1.3"/>
	<ellipse class="st11" cx="63.7" cy="18" rx="1.3" ry="1.3"/>
	<path class="st11" d="M57.1,30.4c0.4-0.3,0.1-0.7-0.3-1.1c-0.3-0.4-0.7-1.9-1.1-1.5c-0.4,0.3-0.3,2.1,0,2.5S56.7,30.8,57.1,30.4z"
		/>
	<path class="st11" d="M61.3,30.3c0.3-0.4,0.4-2.2,0-2.5c-0.4-0.3-0.7,1.2-1.1,1.5c-0.3,0.4-0.7,0.8-0.3,1.1
		C60.4,30.8,61,30.7,61.3,30.3z"/>
	<path class="st11" d="M119.6,99.7c-0.3-1.5-0.7-3.1-1-4.5c-0.2-0.8-0.7-1.5-1.4-1.9c-0.7-0.4-1.6-0.5-2.4-0.2
		c-1.5,0.5-4.7,0.8-7.4,1.1c1-2.8,0-6.2-0.1-6.6c4.8-11.2,2.2-22.1,0-29.8c-0.7-2.5-1.6-5-2.6-7.2C96.3,31.2,82.7,23.8,78.1,22
		c0-0.5,0.1-0.9,0.1-1.4c0-1.2-0.3-2.4-0.6-3.5c-0.3-1.1-0.8-2.2-1.4-3.2c-0.3-0.5-0.6-1-0.9-1.4c-0.2-0.2-0.3-0.5-0.5-0.7
		c-0.1-0.1-0.2-0.2-0.3-0.3c0,0,0,0-0.1-0.1c0.1-0.1,0.2-0.1,0.2-0.2c0.9-0.8,1.6-1.9,1.9-3.1c0.1-0.6,0.2-1.2,0.1-1.8l0-0.5
		c0-0.1,0-0.3-0.1-0.5c-0.2-0.3-0.7-0.4-1-0.1c-0.5,0.3-1,0.5-1.6,0.3c-0.6-0.1-1.1-0.4-1.6-0.7c-2-1.3-4.1-2.5-6.4-3.4
		C63.5,0.5,61.1,0,58.6,0c-2.4,0-4.9,0.5-7.1,1.4c-2.3,0.9-4.4,2.1-6.4,3.4c-0.5,0.3-1,0.6-1.6,0.7c-0.6,0.1-1.1,0.1-1.6-0.2
		C41.8,5.2,41.6,5,41.4,5c-0.2,0-0.4,0-0.5,0.2c-0.1,0.1-0.2,0.3-0.3,0.5l0,0.5c-0.1,0.6,0,1.2,0.1,1.8c0.2,1.2,0.9,2.3,1.8,3.2
		c0.1,0.1,0.2,0.2,0.3,0.3c-0.1,0.1-0.2,0.2-0.3,0.3c-0.2,0.2-0.3,0.5-0.5,0.7c-0.3,0.5-0.6,1-0.9,1.5c-0.6,1-1,2.1-1.4,3.2
		c-0.4,1.1-0.6,2.3-0.6,3.5c0,1.2,0.1,2.4,0.4,3.5c0.5,2,1.5,3.9,2.7,5.5c-0.3,0.6-0.6,1.4-0.6,1.6c-1.3,3.6-3.9,15.6-2.3,30.1
		c-1.2,1.9-7.5,12.8-4.9,25.6c-1.2,0.5-2.6,1.4-2.8,1.5c-4.2,2.1-6.3,5.9-7.4,8.5c-3.7,0.1-6.7-1-7.3-1.3c-1.2-0.6-2-1.6-2.5-2.3
		c-0.3-0.5-0.8-0.8-1.4-0.8c-0.6,0-1.1,0.2-1.5,0.6l-2,2.2c-1,1.1-1.5,2.7-1.3,4.2c0.2,1.5,1.1,2.9,2.5,3.7l3.4,2
		c1.2,0.7,5.3,1.3,8.4,1.5c-0.2,4.5-0.1,9.7,1.2,12.8c0.9,2.1,2.9,5.1,5.8,6.8c0.8,0.4,3,1.6,5.4,1.6c0.6,0,1.1-0.1,1.7-0.2
		c1.3-0.4,2.4-1.2,3-2.4c0.6-1,0.7-2.2,0.3-3.2c-0.4-0.9-1.1-1.6-2.2-1.9c-1-0.3-2.2-1-3-3.4c-0.8-2.4-0.7-6.1-0.3-9.5
		c0.9,0.1,1.9,0.2,3,0.4c10.7,1.7,14.9,3,15.5,3.2c0.6,0.7,1.3,1.2,2.3,1.4c0.9,0.2,1.6,0.3,2.3,0.3c1,0,1.8-0.2,2.3-0.7
		c0.4-0.3,0.6-0.7,0.8-1c3,0.2,6.1,0.3,9.4,0.3c4.1,0,8.3-0.1,12.4-0.3L85,111c2.2-0.1,4.3-0.4,6.1-1c7.8-2.6,19.8-4.7,24.2-4.8
		c1.4,0,2.6-0.7,3.4-1.8C119.6,102.3,119.9,101,119.6,99.7z M23.5,99.2c-0.2,1-0.5,2.9-0.8,5.4c-3.2-0.1-6.8-0.9-7.4-1.2l-3.4-2
		c-0.8-0.4-1.3-1.2-1.4-2.1c-0.1-0.9,0.1-1.7,0.7-2.4l1.6-1.8c0.6,0.9,1.6,1.9,3.1,2.6C16.9,98.1,19.8,99.1,23.5,99.2
		C23.5,99.2,23.5,99.2,23.5,99.2z M75,14.5c0.4,1,0.8,2,1,3c0.3,1,0.4,2.1,0.4,3.1c-0.1,1-0.2,2.1-0.5,3.1c-0.5,2-1.7,3.8-3.1,5.3
		c-0.7,0.8-1.5,1.5-2.3,2.1c-0.4,0.3-0.8,0.7-1.3,1c-0.2,0.2-0.4,0.3-0.7,0.4c0,0,0,0,0,0c-0.1-0.4-0.3-0.8-0.6-1.1
		c-0.4-0.5-0.8-0.9-1.4-1.2c-0.3-0.2-0.7-0.3-1-0.3c-0.6-2.2-1.6-4.3-2.4-5.5c0.7-0.3,1.4-0.7,2-1.1c0.8-0.6,1.6-1.3,2.2-2.1
		c0.6-0.8,1.2-1.6,1.6-2.5c0.4-0.8,0.7-1.6,1-2.5l2.3,1.5c0.1,0.1,0.3,0.1,0.5,0.1c0.3,0,0.6-0.1,0.7-0.3c0.3-0.3,0.3-0.8,0-1.2
		c-0.1-0.2-0.4-0.7-0.7-1.2c-0.3-0.6-0.7-1.3-1.2-2.1c0.7-0.2,1.4-0.6,2.1-1c0,0,0,0.1,0.1,0.1c0.1,0.1,0.1,0.2,0.2,0.3
		c0.1,0.2,0.3,0.5,0.4,0.7C74.6,13.5,74.8,14,75,14.5z M51.1,32.9c0.3,2.5,2.2,7,7.5,7c5.2,0,7-4.4,7.3-7l0,0v-0.3c0,0,0,0,0,0
		s0,0,0,0v-0.1c0-0.8-0.1-1.6-0.3-2.4c0.8,0.3,1.4,1,1.8,1.7c0.2,0.5,0.4,1,0.5,1.5c0,0.3,0,0.5,0,0.8l0,0.4c0,0.1-0.1,0.2-0.1,0.3
		c-0.2,0.4-0.4,1-0.7,1.5c-0.3,0.5-0.6,1-0.8,1.5l-1.7,3l-6,10.3l-6-10.3l-1.7-3c-0.3-0.5-0.6-1-0.8-1.5c-0.3-0.5-0.5-1-0.7-1.5
		c0-0.1-0.1-0.2-0.1-0.3l0-0.4c0-0.3,0-0.5,0-0.8c0.1-0.5,0.2-1,0.5-1.5c0.4-0.7,1-1.4,1.8-1.7c-0.2,0.8-0.3,1.6-0.3,2.4L51.1,32.9
		L51.1,32.9z M60.5,19.7c0-1.1,1.2-3.3,2-4.5c1.4-0.3,2.5-0.6,3.3-0.9c0.6-0.2,1.2-0.1,1.7,0.2l2.4,1.5c-0.9,1.7-1.9,3.2-3.2,4.5
		c-0.7,0.7-1.4,1.2-2.1,1.7c-0.6,0.4-1.3,0.7-2,1c-0.1-0.2-0.3-0.4-0.5-0.6C61,21.4,60.5,20.3,60.5,19.7z M61.2,23.9
		c-0.3,0.3-0.7,0.5-1.1,0.7c-0.5,0.3-1.1,0.4-1.5,0.4c-0.5,0-1-0.1-1.5-0.4c-0.4-0.2-0.8-0.4-1.1-0.7c0.1-0.2,0.2-0.3,0.4-0.5
		c0.9-1,1.9-2.5,1.9-3.9c0-1.2-0.9-3-1.5-4.2c0.6,0.1,1.2,0.1,1.8,0.1c0.7,0,1.4-0.1,2.1-0.1c-0.7,1.2-1.5,2.9-1.5,4.2
		c0,1.3,1,2.8,1.9,3.9C61,23.7,61.1,23.8,61.2,23.9z M68.2,13.2c-0.6-0.4-1.2-0.5-1.9-0.5c-0.4,0-0.7,0.1-1.1,0.2
		c-1.4,0.5-4.1,1.3-6.8,1.3c-2.5,0-5.2-0.8-6.6-1.3c-1-0.3-2-0.2-2.9,0.3l-3.1,1.9c1.8-3.2,5.4-9.5,12.6-9.5c7.2,0,11,6.4,12.8,9.6
		L68.2,13.2z M49.7,14.4c0.5-0.3,1.1-0.4,1.6-0.2c0.8,0.3,2,0.6,3.4,0.9c0.8,1.2,2,3.4,2,4.5c0,0.7-0.6,1.8-1.5,2.9
		c-0.2,0.2-0.4,0.5-0.5,0.7c-0.7-0.2-1.4-0.5-2.1-1c-0.8-0.5-1.5-1-2.2-1.7c-0.7-0.7-1.3-1.4-1.9-2.2c-0.5-0.7-0.9-1.5-1.3-2.3
		L49.7,14.4z M55.1,25.2c0.4,0.3,0.8,0.6,1.3,0.8c0.7,0.3,1.4,0.6,2.2,0.6c0.8,0,1.5-0.3,2.2-0.6c0.4-0.2,0.8-0.5,1.2-0.8
		c0.9,1.5,2.4,4.3,2.5,6.8c-2.2,0.9-4.3,1.4-6.1,1.4c-2,0-4.1-0.7-5.7-1.4C52.8,29.4,54.2,26.7,55.1,25.2z M64.3,33.6
		c-0.4,1.7-1.7,4.8-5.7,4.8c-1.7,0-3.1-0.6-4.1-1.6c-1-1-1.5-2.3-1.7-3.2c1.6,0.6,3.7,1.2,5.6,1.2C60.2,34.8,62.2,34.4,64.3,33.6z
		 M42,5.8C42,5.8,42,5.8,42,5.8C42,5.8,42,5.9,42,5.8C42,5.9,42,5.9,42,5.8L42,5.8z M41.8,7.7c0-0.3,0-0.5,0-0.8
		C42,7,42.2,7.1,42.4,7.1c0.5,0.1,1,0.1,1.4,0c0.9-0.2,1.5-0.5,2.1-0.8c1.1-0.6,2.1-1.1,3.2-1.6c1-0.5,2.1-0.9,3.1-1.3
		c2.1-0.7,4.2-1.2,6.4-1.1c1.1,0,2.1,0,3.2,0.3C62.9,2.7,64,3,65,3.4c1.1,0.4,2.1,0.8,3.1,1.3c1,0.5,2,1.1,3.2,1.7
		c0.6,0.3,1.3,0.6,2.2,0.8c0.4,0.1,1,0.1,1.5-0.1C75.1,7,75.2,7,75.3,7c0,0.3,0,0.6,0,0.9c-0.1,1-0.5,2-1.2,2.8
		c-0.7,0.8-1.6,1.4-2.6,2c-2.2-3.6-6.2-8.6-13-8.6c-6.9,0-10.7,4.9-12.9,8.6c-1-0.6-1.9-1.2-2.6-2C42.2,9.7,41.9,8.7,41.8,7.7z
		 M41.3,23.6c-0.3-1-0.4-2-0.5-3.1c0-1,0.1-2,0.4-3.1c0.2-1,0.6-2,1-3c0.2-0.5,0.5-1,0.7-1.4c0.1-0.2,0.3-0.5,0.4-0.7
		c0.1-0.1,0.2-0.2,0.2-0.4c0.6,0.3,1.1,0.6,1.8,0.8c-0.4,0.6-0.7,1.2-1,1.7c-0.3,0.6-0.7,1.2-0.9,1.4c-0.3,0.3-0.3,0.9-0.1,1.2
		c0.3,0.4,0.8,0.5,1.3,0.2l2.1-1.3c0.2,0.9,0.6,1.7,1,2.5c0.5,0.9,1,1.8,1.7,2.6c0.6,0.8,1.4,1.5,2.3,2.1c0.6,0.5,1.3,0.8,2,1.1
		c-0.8,1.3-1.8,3.3-2.3,5.4c-0.3,0.1-0.7,0.2-1,0.3c-0.5,0.3-1,0.7-1.4,1.2c-0.2,0.3-0.4,0.6-0.5,1c-0.2-0.1-0.4-0.2-0.6-0.4
		c-0.4-0.3-0.8-0.6-1.3-1c-0.8-0.7-1.6-1.4-2.3-2.1C43,27.4,41.9,25.6,41.3,23.6z M39.8,65.1c0.2,1.3,0.4,2.7,0.7,4
		c0.1,1,0.6,3.8,1.5,8.5c1,5.1,2.1,11.5,2.5,14.7c0.1,0.7-0.4,1.4-1.2,1.6c-0.9,0.2-2.2,0.6-3.4,1.1C32.8,82.7,37.2,70.4,39.8,65.1z
		 M32.8,117.6c0.8,2.6,2.3,4.1,4.5,4.8c0.4,0.1,0.6,0.3,0.8,0.6c0.1,0.4,0.1,0.8-0.1,1.3c-0.4,0.7-0.9,1.1-1.7,1.3
		c-1.7,0.5-4-0.4-5.4-1.2c-2.3-1.3-4.1-3.8-4.9-5.7c-2-4.8-1-16-0.2-19c0.5-2,2.2-6.9,7-9.3c0.4-0.3,1.4-0.8,2.3-1.2
		c0.6,2.3,1.6,4.6,2.9,6.9c-0.5,0.3-1,0.6-1.5,1c-0.1,0-0.2,0.1-0.3,0.1c-0.3,0.2-0.6,0.5-0.8,0.9c-0.1,0.1-0.1,0.1-0.2,0.2
		c-0.1,0.2-0.2,0.4-0.3,0.6C32.4,103.2,31.2,112.8,32.8,117.6z M38,105.6c-1-0.2-2-0.3-2.9-0.4c0.3-1.5,0.7-2.8,1.1-3.9
		c0.2,0,0.3,0.1,0.5,0.1c0.2,0,0.4,0,0.5-0.1c3.7-1,9.1-1.5,12.8-1.7c0,0,0,0.1,0,0.1c0,0.6,0.2,1.3,0.7,1.7l0.3,0.3
		c0,1.2,0,4.1,0.8,6.5C49.3,107.7,45.1,106.7,38,105.6z M58.8,110.1c0,0.1,0,0.1-0.1,0.2c-0.1,0.1-0.8,0.4-2.7-0.1
		c-2.8-0.7-3-6.8-2.9-8.9l0-0.5l-1-1c0.7-0.5,1.7-1.2,3-1.7c2-0.8,3.2-4,4.7-7.9c0.9-2.2,1.8-4.7,3-6.9c0.7-1.3,1.2-3.1,1.6-5.6
		c0-0.1,0.1-0.2,0.1-0.3v0c0.1-2,0.3-4,0.5-6c0.2-2,0.4-4,0.7-6c0.3-2,0.6-4,1-5.9c0.3-1.3,0.6-2.6,1-3.9c0.2-0.6,0.4-1.3,0.7-1.9
		c-0.9,1.8-1.6,3.7-2.2,5.6c-0.6,1.9-1.1,3.9-1.6,5.9c-0.5,2-0.9,3.9-1.3,5.9c-0.4,2-0.7,3.9-1,5.9c0,0.1,0,0.1-0.1,0.2
		c-0.4,2.3-0.9,4-1.4,5.1c-1.2,2.3-2.2,4.9-3.1,7.2c-0.2,0.5-0.4,1-0.6,1.4c0-1.5-0.2-3.3-0.9-5.5c-1-3.1-1.8-6.6-2.1-10.2v0
		c0,0,0-0.1,0-0.1c0-0.1,0-0.2-0.1-0.3c-0.3-1.1-0.5-2.4-0.6-3.6c-0.1-1.3-0.2-2.6-0.2-3.9c0-1.3,0.1-2.6,0.3-3.9
		c0.2-1.3,0.4-2.6,0.8-3.9c0,0.1-0.1,0.2-0.1,0.4c0,0,0,0,0,0c-0.4,1.1-0.9,2.2-1.2,3.4c-0.4,1.3-0.6,2.6-0.9,3.9
		c-0.2,1.3-0.3,2.7-0.4,4c0,1.4,0,2.7,0.1,4.1c0,0,0,0,0,0.1c0.4,3.8,1.2,7.4,2.2,10.6c1.9,5.8,0.1,8.2-1.4,10.2
		c-0.3,0.4-0.5,0.7-0.8,1c0,0-0.1,0.1-0.2,0.1c-3.2,0.1-9.6,0.5-14.2,1.6c1.8-1.6,4.5-2.3,6.2-2.7c1.9-0.5,3.1-2.2,2.9-4
		c-0.4-3.3-1.6-9.7-2.5-14.9c-0.7-3.9-1.4-7.6-1.4-8.3l0-0.2C39,51.4,42.3,36,43.7,32c0.1-0.2,0.1-0.4,0.2-0.6
		c0.5,0.5,1,0.9,1.6,1.3c0.5,0.3,1,0.6,1.5,0.9c0.4,0.1,0.7,0.5,1.2,0.4v0l0,0.5c0,0.2,0.1,0.3,0.1,0.5c0.2,0.7,0.4,1.2,0.6,1.7
		c0.2,0.6,0.5,1.1,0.7,1.6c0.5,1.1,1,2.1,1.5,3.2c1,2.1,2.1,4.1,3.2,6.2c1.1,2,2.3,4.1,3.4,6.1l1,1.7l1-1.7c1.1-2,2.3-4,3.4-6.1
		c1.1-2.1,2.2-4.1,3.2-6.2c0.5-1,1-2.1,1.5-3.2c0.2-0.5,0.5-1.1,0.7-1.6c0.2-0.6,0.4-1.1,0.6-1.7c0.1-0.4,0.1-0.7,0.1-1c0,0,0,0,0,0
		c0.2,0.1,0.4,0,0.5-0.1c0.3-0.1,0.5-0.3,0.8-0.4c0.5-0.3,1-0.6,1.5-0.9c1-0.7,1.8-1.5,2.6-2.3c0.8-0.9,1.5-1.9,2-2.9
		c0.6-1,1-2.1,1.3-3.2c4.8,2,17.2,9.2,25,27.1c0.9,2.1,1.8,4.5,2.5,6.9c2.3,8.1,4.9,19.9-1.5,31.6c-0.3-6.7-2.5-15.2-8.3-18.6
		c-3.9-2.3-8.1-1.9-12.7,1.2c0.3-0.7,0.7-1.3,1-2c1-2.2,2-4.3,2.8-6.6c0.8-2.2,1.5-4.5,2-6.9c0.4-2.3,0.6-4.8,0.1-7.1
		c0.4,2.4-0.1,4.7-0.6,7c-0.6,2.3-1.5,4.5-2.5,6.6c-1,2.1-2.1,4.2-3.3,6.2c-1.1,1.9-2.4,3.9-3.6,5.7c-0.3,0.2-0.5,0.5-0.5,0.8
		c-0.2,2.7-1.8,8.5-8.3,21.1c-0.7,1.4-1.7,2.1-3,2.2c-1.2,0.1-2.3,0.6-3.1,1.3c-0.4,0.4-1,0.8-1.8,1.3
		C58.5,104.3,58.7,109.4,58.8,110.1z M104.8,94.2c-0.5,0-0.9,0.1-1.2,0.1c0.7-1.1,1.4-2.2,2-3.3C105.6,92.2,105.5,93.4,104.8,94.2z
		 M71.3,99.5C71.3,99.5,71.3,99.6,71.3,99.5c-0.1,0.1-0.1,0.1-0.1,0.1C71.2,99.6,71.3,99.5,71.3,99.5z M71,99.7
		C71,99.7,70.9,99.7,71,99.7L71,99.7C70.9,99.7,71,99.7,71,99.7z M63.1,104.1c0.9-0.6,1.6-1.1,2.1-1.5c0.5-0.4,1.1-0.7,1.8-0.7
		c1-0.1,2.4-0.5,3.6-1.7c0.3,0.2,0.6,0.5,0.9,0.7c0.6,0.4,1.2,0.8,1.8,1.1c1.3,0.7,2.6,1.2,4,1.4c-1.3-0.6-2.4-1.4-3.3-2.3
		c-0.5-0.5-0.9-1-1.4-1.5c-0.2-0.3-0.4-0.5-0.6-0.8c-0.1-0.1-0.2-0.2-0.2-0.3c0,0,0,0,0-0.1c4.9-9.6,7.7-16.6,8.4-20.9
		c0.1-0.1,0.2-0.2,0.4-0.3c1.9-1.8,7.8-7.4,13.7-3.9c6,3.6,7.8,14.6,7.1,21.3c-0.2,1.9-0.6,3.4-1.9,4.5c-3.4,2.8-9.9,5.3-16.8,4.6
		c0-0.2-0.1-0.3-0.1-0.5c-0.1-0.4-0.1-0.8-0.2-1.2c-0.1-0.9-0.1-1.7-0.1-2.6c0-1.7,0.1-3.5,0.4-5.2c0.6-3.5,1.7-6.9,3.4-10
		c-2.1,2.9-3.6,6.3-4.5,9.8c-0.5,1.8-0.8,3.6-1,5.4c-0.1,0.9-0.1,1.8-0.1,2.8c0,0.5,0,0.9,0.1,1.4c0,0.2,0.1,0.5,0.1,0.8
		c0,0.1,0,0.1,0,0.2c-2.7,1.5-9.1,2.3-11.5,1.8l-0.2,0c-3.2-0.1-6.1,0.8-7.7,1.5C61.4,106.3,61.9,104.8,63.1,104.1z M117,102
		c-0.4,0.5-1.1,0.9-1.8,0.9c-4.5,0.1-16.9,2.3-24.8,4.9c-1.7,0.6-3.5,0.9-5.5,0.9l-2.4,0.1c-6.4,0.2-12.9,0.4-18.8,0.1
		c1.4-0.4,3.1-0.8,4.9-0.7c2.8,0.5,10.5-0.3,13.6-2.4c8.1,0.9,15-2.2,18.5-5.1c1.4-1.2,2.1-2.7,2.4-4.1c2.1-0.1,9.5-0.6,12.3-1.4
		c0.3-0.1,0.5,0,0.6,0.1c0.1,0.1,0.3,0.2,0.3,0.5c0.3,1.4,0.7,3,1,4.5C117.6,100.8,117.4,101.5,117,102z"/>
	<path class="st12" d="M80.4,72.6c-0.6,0.9-1.2,1.9-1.8,2.7c-0.3,0.2-0.5,0.5-0.5,0.8c-0.2,2.7-1.8,8.5-8.3,21.1
		c-0.7,1.4-1.7,2.1-3,2.2c-1.2,0.1-2.3,0.6-3.1,1.3c-0.4,0.4-1,0.8-1.8,1.3c-3.4,2.2-3.2,7.2-3.1,7.9c0,0.1,0,0.1-0.1,0.2
		c-0.1,0.1-0.8,0.4-2.7-0.1c-2.8-0.7-3-6.8-2.9-8.9l0-0.5l-1-1c0.7-0.5,1.7-1.2,3-1.7c1.9-0.8,3.2-4,4.7-7.9c0.9-2.2,1.8-4.7,3-6.9
		c0.3-0.5,0.5-1.1,0.7-1.7h0C65,81.5,72,81.1,80.4,72.6z"/>
	<path class="st12" d="M52.7,96.2c-0.3,0.4-0.5,0.7-0.7,1c0,0-0.1,0.1-0.2,0.1c-3.2,0.1-9.6,0.5-14.2,1.6c1.8-1.6,4.5-2.3,6.2-2.7
		c1.9-0.5,3.1-2.2,2.9-4c-0.4-3.3-1.6-9.7-2.5-14.9c-0.7-3.9-1.4-7.6-1.4-8.3l0-0.2c-0.4-2.1-0.8-4.1-1-6.1
		c1.1,2.8,5.3,12.2,10.1,11c0,0.6,0.1,1.1,0.1,1.7c0,0,0,0,0,0.1c0.4,3.8,1.2,7.4,2.2,10.6C56.1,91.8,54.2,94.2,52.7,96.2z"/>
	<path class="st2" d="M101.3,94.5c-0.1,0.7-0.2,1.3-0.3,1.8C99.6,63.2,80.7,77,80.2,77.4c0.1-0.1,0.2-0.2,0.4-0.3
		c1.9-1.8,7.8-7.4,13.7-3.9C100.3,76.8,102,87.8,101.3,94.5z"/>
	<path class="st13" d="M76.4,20.6c-0.1,1-0.2,2.1-0.5,3c-0.5,2-1.7,3.8-3.1,5.3c-0.7,0.8-1.5,1.5-2.3,2.1c-0.4,0.3-0.8,0.7-1.3,1
		c-0.2,0.2-0.4,0.3-0.7,0.4c0,0,0,0,0,0c-0.2-0.4-0.3-0.8-0.6-1.1c-0.4-0.5-0.8-0.9-1.4-1.2c-0.3-0.2-0.7-0.3-1-0.3
		c0.4-0.3,9.2-5.9,8-13.1c0-0.2-0.1-0.4-0.2-0.6c-0.1-0.2-0.4-0.7-0.7-1.2c-0.3-0.6-0.7-1.3-1.2-2.1c0.7-0.3,1.4-0.6,2.1-1
		c0,0,0,0.1,0.1,0.1c0.1,0.1,0.1,0.2,0.2,0.3c0.1,0.2,0.3,0.5,0.4,0.7c0.3,0.5,0.5,1,0.7,1.5c0.4,1,0.8,2,1,3
		C76.3,18.5,76.5,19.6,76.4,20.6z"/>
	<path class="st13" d="M51.5,29.8c-0.3,0.1-0.7,0.2-1,0.3c-0.5,0.3-1,0.7-1.4,1.2c-0.2,0.3-0.4,0.6-0.6,1c-0.2-0.1-0.4-0.2-0.6-0.4
		c-0.4-0.3-0.8-0.6-1.3-0.9c-0.8-0.7-1.6-1.4-2.3-2.1c-1.4-1.5-2.6-3.3-3.1-5.3c-0.3-1-0.4-2-0.5-3.1c0-1,0.1-2,0.4-3.1
		c0.2-1,0.6-2,1-3c0.2-0.5,0.4-1,0.7-1.4c0.1-0.2,0.3-0.5,0.4-0.7c0.1-0.1,0.2-0.2,0.2-0.4c0.6,0.3,1.1,0.6,1.8,0.8
		c-0.4,0.6-0.7,1.2-1,1.7c-0.4,0.6-0.7,1.2-0.9,1.4c-0.2,0.2-0.2,0.4-0.3,0.6c0,0,0,0,0,0C42.2,24.4,51.5,29.8,51.5,29.8z"/>
	<path class="st12" d="M101,96.3c-0.3,1-0.8,1.9-1.6,2.7c-3.4,2.8-9.9,5.3-16.8,4.6c0-0.2-0.1-0.3-0.1-0.5c-0.1-0.4-0.1-0.8-0.2-1.2
		c-0.1-0.8-0.1-1.7-0.1-2.6c0-1.7,0.1-3.5,0.4-5.2c0.6-3.5,1.7-6.9,3.4-10c0,0-3.2,14.9-1.6,17.3C88.1,101.6,90.7,101.8,101,96.3z"
		/>
	<path class="st14" d="M68.6,53.6c-0.9,1.8-1.6,3.7-2.2,5.6c-0.6,1.9-1.1,3.9-1.6,5.9c-0.5,2-0.9,3.9-1.3,5.9c-0.4,2-0.7,3.9-1,5.9
		c0,0.1,0,0.1-0.1,0.2c-0.4,2.3-0.9,4-1.4,5.1c-1.2,2.3-2.2,4.9-3.1,7.2c-0.2,0.5-0.4,1-0.6,1.4c0-1.5-0.2-3.3-0.9-5.5
		c-1-3.1-1.8-6.6-2.1-10.2v0c0,0,0-0.1,0-0.1c0-0.1,0-0.2-0.1-0.3c-0.3-1.1-0.5-2.4-0.6-3.6c-0.1-1.3-0.2-2.6-0.2-3.9
		c0-1.3,0.1-2.6,0.3-3.9c0.2-1.3,0.4-2.6,0.8-3.9c0,0,2.3,5.1,5.9,5.3C61.4,61.9,65.2,55.9,68.6,53.6z"/>
</g>
</svg>
