<?xml version="1.0" encoding="utf-8"?>
<!-- Generator: Adobe Illustrator 23.0.0, SVG Export Plug-In . SVG Version: 6.00 Build 0)  -->
<svg version="1.1" id="Layer_1" xmlns="http://www.w3.org/2000/svg" xmlns:xlink="http://www.w3.org/1999/xlink" x="0px" y="0px"
	 viewBox="0 0 128 128" 
width="128" height="128"
style="enable-background:new 0 0 128 128;" xml:space="preserve">
<style type="text/css">
	.st0{fill:#2D2D2D;}
	.st1{fill:#EDF0F4;}
	.st2{fill:#95989C;}
	.st3{fill:#918154;}
	.st4{fill:#57595B;}
	.st5{fill:#CED0D6;}
	.st6{fill:#47484A;}
	.st7{fill:#747778;}
	.st8{fill:#80714A;}
	.st9{fill:#727578;}
	.st10{fill:#99AFE6;}
</style>
<g>
	<path class="st0" d="M58.4,33.2c0,0.2-0.1,0.4-0.2,0.5c-0.1,0.2-0.2,0.3-0.4,0.5c-0.3,0.2-0.6,0.4-0.9,0.6
		c-0.3,0.2-0.5,0.4-0.8,0.6c-0.3,0.2-0.5,0.4-0.7,0.7l-1.2,1l0.2-1.6c0.1-1,0.2-2,0.1-2.8c-0.1-0.4-0.2-0.8-0.3-1.3
		c-0.3,0.2-0.6,0.5-0.9,0.6c-0.8,0.5-1.7,0.7-2.5,0.9l-1.3,0.3l0.7-1c0.6-0.9,0.9-1.9,1-3c0.1-0.8,0-1.6-0.2-2.3
		c-0.1,0.1-0.2,0.2-0.3,0.3c-0.4,0.3-0.8,0.5-1.2,0.6c-0.9,0.2-1.7,0.2-2.5-0.1l-1.2-0.4l0.9-0.8c0.7-0.6,1.2-1.4,1.6-2.3
		c0.4-0.9,0.7-1.9,1-2.9c0,0,0.1-0.1,0.1-0.1c0,0,0.1,0,0.1,0.1c0.1,0.5,0.1,1.1,0.1,1.6c0,0.5-0.1,1.1-0.2,1.6
		c-0.1,0.5-0.3,1.1-0.6,1.6c-0.1,0.1-0.1,0.3-0.2,0.4c0.3,0,0.5,0,0.8,0c0.6-0.1,1.2-0.3,1.5-0.8l0.6-1l0.2,1.1
		c0.1,0.6,0.2,1.2,0.2,1.7c0,0.6,0.1,1.1,0,1.7c0,0.7-0.1,1.5-0.3,2.3c0.4-0.2,0.8-0.5,1.2-0.7c0.6-0.4,1.1-1,1.4-1.6l1-2.1l0.5,2.3
		l0.3,1.4c0.1,0.5,0.2,1,0.3,1.6c0,0.7,0,1.3-0.2,1.9c0.2-0.1,0.4-0.2,0.6-0.3c0.3-0.1,0.7-0.2,1-0.4c0.3-0.1,0.5-0.3,0.7-0.6
		C58.3,33.1,58.3,33.1,58.4,33.2C58.4,33.1,58.4,33.2,58.4,33.2z"/>
	<path class="st1" d="M78.6,22.5c-0.1,0.5-0.3,1.1-0.7,1.5c-0.8-0.2-1.6-0.4-2.3-0.9c-0.8-0.5-1.5-1.1-2.1-1.8c-0.2-1-0.2-2,0.1-3
		c0.1-0.5,0.3-1,0.7-1.3c0.1,0,0.1-0.1,0.2-0.1c0.6-0.3,1.4,0,1.8,0.5c0.3,0.4,0.6,0.8,0.9,1.2c0.4,0.6,0.8,1.3,1.1,2
		c0.1,0.3,0.2,0.7,0.3,1C78.6,21.8,78.6,22.2,78.6,22.5z"/>
	<path class="st2" d="M77.6,25.9c0-0.2-0.1-0.5-0.2-0.6c-0.1-0.1-0.1-0.2-0.1-0.3c-0.8-0.3-1.5-0.6-2.2-1.1
		c-0.9-0.6-1.6-1.4-2.2-2.2l-0.1-0.1l0-0.1c-0.1-0.6-0.1-1.1-0.1-1.7c0.1-0.6,0.2-1.1,0.4-1.6c0.1-0.3,0.2-0.5,0.4-0.8
		c0.1-0.2,0.3-0.5,0.6-0.6c0.2-0.1,0.3-0.1,0.5-0.2c0,0-0.9-1.1,0-2.4c-0.9-0.5-1.7-1-2.7-1.1c-1-0.1-2,0.1-3,0.3
		c-1,0.3-1.9,0.7-2.7,1.2c-0.6,0.4-1.2,0.8-1.8,1.3c1.1,0.6,2.1,1.2,3.1,2c1.2,1,2.2,2.1,3,3.4c0.4,0.7,0.6,1.4,0.7,2.2
		c0.1,0.8,0.1,1.6-0.1,2.4c-0.2,0.8-0.6,1.5-1.1,2.1c-0.3,0.3-0.6,0.6-0.9,0.8l-0.7,0.5c0.1,0.5,0.3,1.1,0.6,1.6
		c0.3,0.6,0.7,1.1,1.1,1.6c0.2-0.1,0.5-0.2,0.7-0.3c0.4-0.2,0.8-0.4,1.1-0.6c-0.3-0.1-0.6-0.2-0.9-0.3c0.4,0.1,0.8,0.1,1.2,0.1
		c0,0,0,0,0.1,0h0c0,0,0.1,0,0.1,0c0,0,0,0,0,0c0.4,0,0.7,0,1.1,0c0.4,0,0.8,0,1.2,0c0.3,0,0.6,0,0.8-0.1c0.2-0.4,0.4-0.8,0.5-1.2
		c0.1-0.5,0.2-1,0.2-1.5c0-0.1,0-0.1,0-0.2c-0.5,0-0.9,0-1.4,0c-1,0-1.9-0.2-2.9-0.3c1,0,1.9,0,2.9-0.1c0.5,0,0.9-0.1,1.4-0.2
		c0.4-0.1,0.7-0.1,1.1-0.2c0.1-0.4,0.2-0.8,0.2-1.3C77.6,26.3,77.6,26.1,77.6,25.9z M70.9,17.2c-0.5,0-1.2-0.6-1.5-1
		c-0.2-0.2-0.2-0.5,0-0.6c0.4-0.4,1.1-0.9,1.6-0.8c0.8,0.1,1.4,0.6,1.4,1.3C72.4,16.8,71.7,17.3,70.9,17.2z"/>
	<path class="st3" d="M76.3,12c-0.2,0.2-0.4,0.3-0.6,0.5c-0.3,0.3-0.6,0.7-0.8,1.2c0,0.1-0.1,0.1-0.1,0.2c-0.7-0.8-1.7-1.3-2.7-1.5
		c-1.1-0.3-2.3-0.2-3.4,0c-1.1,0.2-2.2,0.7-3.1,1.3c-0.5,0.3-0.9,0.6-1.4,1c-0.4,0.4-0.8,0.7-1.2,1.2c-0.1-0.8-0.5-1.5-1.1-2.1
		c-0.4-0.4-0.8-0.6-1.3-0.9c-0.2-0.1-0.5-0.2-0.7-0.3l-0.7-0.2c-0.4-0.1-0.8-0.3-1.2-0.5l-1.2-0.5c-0.8-0.3-1.5-0.7-2.2-1.3
		c0.1-0.5,0-1-0.1-1.5c-0.1-0.6-0.3-1.1-0.7-1.6c-0.3-0.4-0.7-0.8-1.2-1c2-1,4.2-1.6,6.3-2.1c1.2-0.3,2.4-0.6,3.7-0.9
		c1.3-0.2,2.6-0.2,3.8,0.1C67.8,3.4,69,4,70.1,4.6l1.7,0.9c0.6,0.3,1.1,0.5,1.5,0.9C74.2,7,74.9,8,75.4,9C75.8,9.9,76.1,11,76.3,12z
		"/>
	<path class="st4" d="M73.1,89.3c-1.5-1.7-12.6-20.9-13.7-23.2L59.4,66l0-0.2c-0.1-0.7-0.1-1.5-0.1-2.4c-0.1-0.2-0.2-0.3-0.2-0.5
		c-0.3-0.7-0.6-1.4-0.8-2.1c-0.5-1.4-0.9-2.8-1-4.3c-0.2-1.5-0.1-3-0.3-4.4c-0.2-1.5-0.5-2.9-0.7-4.4c-0.3-1.5-0.5-3-0.4-4.5
		c0-0.8,0.1-1.6,0.3-2.4c0.2-0.8,0.5-1.6,1.3-2.3c0.1-0.1,0.2-0.2,0.3-0.2l0.2-0.2l0.5-0.3c0.3-0.2,0.7-0.4,1-0.6
		c0.7-0.4,1.4-0.7,2.2-0.9c0.4-0.1,0.7-0.2,1.1-0.3c1-0.2,2-0.2,3.1-0.1c0.1-1.1,0.2-1.8,0.2-1.8c0-0.5,0.5-0.9,1-0.9
		c0.2,0,0.4,0.1,0.6,0.3c0.1,0,0.2-0.1,0.4-0.1c0.5-0.2,1-0.1,1.5-0.3c0.2-0.1,0.4-0.1,0.6-0.2c-0.4-0.3-0.7-0.6-1.1-1
		c-0.1,0.2-0.2,0.5-0.3,0.9c-5.3,1.2-8.6-2-8.6-2s-1.2,0.5-2.6,1.6c0.4-0.8-0.7-4.9-0.5-5.7c-0.1,0.3-0.6,0.8-1.6,1.3l0.3,1.4
		l0.3,1.4c0.1,0.5,0.2,1,0.3,1.6c0,0.7,0,1.3-0.2,1.9c0.2-0.1,0.4-0.2,0.6-0.3c0.3-0.1,0.7-0.2,1-0.4c0.3-0.1,0.5-0.3,0.7-0.6
		c0,0,0.1-0.1,0.1,0c0,0,0.1,0.1,0,0.1c0,0.2-0.1,0.4-0.2,0.5c-0.1,0.1-0.1,0.2-0.2,0.3c-0.1,0.1-0.1,0.1-0.2,0.2
		c-0.3,0.2-0.6,0.4-0.9,0.6c-0.3,0.2-0.5,0.4-0.8,0.6s-0.5,0.4-0.7,0.7l-1.2,1l0.2-1.6c0.1-1,0.2-2,0.1-2.8
		c-0.1-0.4-0.2-0.8-0.3-1.3c-0.3,0.2-0.6,0.5-0.9,0.6c-0.8,0.5-1.7,0.7-2.5,0.9l-1.3,0.3l0.7-1c0.6-0.9,0.9-1.9,1-3
		c0.1-0.8,0-1.6-0.2-2.3c-0.1,0.1-0.2,0.2-0.3,0.3c-0.4,0.3-0.8,0.5-1.2,0.6c-0.9,0.2-1.7,0.2-2.5-0.1l-1.2-0.4l0.9-0.8
		c0.7-0.6,1.2-1.4,1.6-2.3c0.4-0.9,0.7-1.9,1-2.9c0,0,0.1-0.1,0.1-0.1c0,0,0.1,0,0.1,0.1c0.1,0.5,0.1,1.1,0.1,1.6
		c0,0.5-0.1,1.1-0.2,1.6c-0.1,0.5-0.3,1.1-0.6,1.6c-0.1,0.1-0.1,0.3-0.2,0.4c0.3,0,0.5,0,0.8,0c0.6-0.1,1.2-0.3,1.5-0.8l0.6-1
		l0.2,1.1c0.1,0.6,0.2,1.2,0.2,1.7c0,0.6,0.1,1.1,0,1.7c0,0.7-0.1,1.5-0.3,2.3c0.4-0.2,0.8-0.5,1.2-0.7c0.6-0.4,1.1-1,1.4-1.6
		l0.4-0.8c-0.4,0.2-0.9,0.4-1.5,0.5c0.7-1.3,0.4-4.4,0.2-5.9c-0.2,0.6-1.9,1.2-3.1,0.6c1-0.9,1-3.5,1.3-5.3
		c-0.4-2.6-4.1,0.9-4.1,0.9l0-0.1c-0.7,1.3-1.4,2.3-1.6,2.6c0,0.1-0.1,0.2-0.2,0.3c0,0,0,0.1-0.1,0.2c0,0.1-0.1,0.2-0.1,0.3
		c-0.2,0.7-0.7,1.7-1.7,3c-0.2,1.7-0.1,3.3,0,5c0.2,2.2,0.6,4.4,1.2,6.5l0.1,0.2l0.1,0.3l0.1,0.5c0,0.4,0,0.7-0.1,1.1
		c-0.1,0.7-0.4,1.3-0.6,1.9c-0.6,1.1-1.4,2-2.1,2.9c-0.7,0.9-1.5,1.7-2.2,2.6c-0.3,0.4-0.7,0.9-1,1.3l-0.5,0.7
		c-0.2,0.2-0.4,0.5-0.6,0.7c-1.6,1.8-3.3,3.2-4.9,4.9c-1.5,1.7-2.8,3.6-3.8,5.5c-1,1.8-1.4,3.9-1.5,6.1c0,1.1,0,2.2,0.1,3.3
		c0.1,1.1,0.3,2.2,0.4,3.4c0.5-0.8,1-1.6,1.5-2.3c1.2-1.8,2.5-3.6,3.9-5.4L34,64l0.3-0.3l0.6-0.5l1.2-1.1l2.4-2.1c0,0,0-0.1,0.1-0.1
		c1.2-1.1,4.3-2.5,7.8,0l0.1,0.1c0.3,0.3,0.8,0.6,1.2,1c1.8,1.4,4.3,3.3,4.6,6.2c0.2,2,1.9,7.2,3.4,11.7c0.8,2.6,1.7,5,2.1,6.8
		c0,0.1,0.1,0.2,0.1,0.3c0,0,0.1,0,0.1,0.1c3.7,4,8.4,8.7,10.4,10.6c0.6,0.6,1.1,1.3,1.3,2.1c0.3,0.9,0.6,2.1,0.8,2.5
		c1.9,0,3.9,0,5.5,0C75.2,95.9,73.9,90.2,73.1,89.3z M70,25.8C69.9,26,69.8,26,69.8,26l0.1,0.2C70,26.1,70,26,70,25.8z M50,11.2
		C50,11.3,50.1,11.3,50,11.2c0.3,0.4,0.6,0.7,0.9,1c0.3,0.4,0.6,0.9,0.9,1.4c0,0,0,0,0,0C54,9.9,55.7,12,55.7,12s0,0,0,0
		c-0.5-0.4-1-1-1.2-1.6h0c0,0,0,0-0.1,0v0c-0.1-0.1-0.2-0.3-0.3-0.4c-0.5-0.8-1-1.5-1.4-2.1c-0.3-0.4-0.6-0.7-0.9-0.9
		c-0.3-0.3-0.7-0.5-1.2-0.4c-0.5,0.1-0.9,0.4-1.1,0.8c-0.2,0.4-0.2,0.9-0.1,1.3C49.4,9.5,49.8,10.4,50,11.2z"/>
	<path class="st5" d="M65.6,36.3c-0.4,3.3-1.4,9.5-3.8,13.6L61.7,50c-1.2,3.1-1.9,6.5-2.2,9.6c-0.2-1.1-0.4-2.3-0.8-3.4
		c-0.4-1.4-1-2.8-1.3-4.2c-0.3-1.4-0.4-2.9-0.3-4.3c0.1-1.5,0.2-2.9,0.3-4.3c0.1-0.7,0.2-1.4,0.4-2c0.2-0.6,0.5-1.2,0.8-1.5
		c0,0,0.1-0.1,0.1-0.1l0.2-0.2l0.4-0.3c0.3-0.2,0.5-0.4,0.8-0.6c0.6-0.4,1.2-0.7,1.8-1.1C63.1,37,64.3,36.6,65.6,36.3z"/>
	<path class="st6" d="M70.9,82.2c-3.6-6-8.6-14.8-9.7-16.8c-0.3-3,0.1-9.4,2.2-14.7c0.1-0.1,0.1-0.2,0.2-0.3
		c0.1,0.4,0.2,0.9,0.3,1.5c1,5.1,2.8,13.6,2.4,16.6l0,0.4l0.2,0.3C67.6,70.7,69.5,77.1,70.9,82.2z"/>
	<path class="st4" d="M126.1,108.2c-0.2,0.6-0.6,1.2-1.2,1.5c-8.2,4.3-19.4,9.7-32.9,12.2c-12.1,2.3-37.1,7.1-65.5,1.8
		c-10.5-2-17.4-5.8-19.9-11c-1.9-3.9-0.9-7.5-0.5-8.3c0.1-0.2,0.1-0.4,0.1-0.7c0-0.2,0-0.4-0.1-0.6c-0.1-0.1-5.4-8.4-3.8-18.4
		c1.7-10.3,9-29.4,11.3-32.8l0.1-0.1C19,41.8,28.2,35,30.9,33.6c6.3-2.7,9.8-5.2,11.8-7.3c-0.3,1.3-0.5,2.6-0.5,3.9
		c-0.1,2.3,0.2,4.7,0.7,6.9l0,0.2l0,0.2l0.1,0.3c0,0.2,0,0.4,0,0.6L43,38.8l-0.1,0.3c-0.1,0.2-0.2,0.4-0.3,0.7
		c-0.4,0.9-1.1,1.8-1.7,2.7c-0.7,0.9-1.4,1.8-2,2.8c-0.3,0.5-0.6,1-0.9,1.6l-0.4,0.7l-0.4,0.7c-1.2,1.9-2.8,3.5-4.5,5.1
		c-1.6,1.6-3.4,3.1-4.7,5.1c-0.7,1-1.1,2.2-1.4,3.4c-0.1,0.6-0.2,1.2-0.2,1.8c0,0.6,0,1.2,0,1.8c0.2,2.4,0.8,4.6,1.8,6.7v0
		c0,0,0.1,0.1,0.1,0.1c0,0,0,0,0,0c-0.6,1.1-1.3,2.1-1.9,3.2c-1,1.9-2,3.9-2.7,6c0.9-2,2-3.9,3.1-5.7c1.2-1.8,2.4-3.6,3.8-5.3
		c1.3-1.7,2.7-3.4,4.2-4.9l0.3-0.3l0.3-0.2l0.6-0.5l1.3-1l2.6-2l0,0c0,0,0,0,0,0c0.1-0.1,0.1-0.1,0.1-0.2c0.5-0.4,2.5-1.8,5.3,0.2
		c0.4,0.3,0.8,0.7,1.3,1.1c1.6,1.2,3.6,2.8,3.8,4.9c0.2,2.2,1.9,7.2,3.5,12.1c0.8,2.6,1.6,5,2.1,6.7c0.5,1.6,0.8,3.6,1.3,5.7
		c0.9,4.6,1.8,8.9,3.4,10.6l0.2,0.2l0.3,0.1c4.3,0.9,17.3,0.5,18.9,0.4c0.8,0.2,5.4,1.6,6.2,4.8c-6.4,0-29.1-0.3-29.4-0.3H57l-0.1,0
		c0,0-2.6,0.4-3.8-0.9c-0.5-0.4-0.6-1.8-0.7-2.6c0-0.5-0.2-1-0.4-1.5c-0.7-1.3-2.1-3.7-2.9-4.6c-0.8-0.8-2.4-3.3-2.5-3.4v0
		c-0.4-0.6-0.9-1.2-1.3-1.8c-0.4-0.6-0.8-1.3-1.2-1.9c-0.4-0.6-0.7-1.3-1-2c-0.3-0.7-0.6-1.4-0.7-2.1c0,0.8,0.1,1.5,0.3,2.3
		c0.2,0.7,0.4,3,0.3,3.2c0,0.2-3.7,14.7-11.9,14.7h0c-0.8,0-1.4,0-2.1,0h-1.1c0,0,0,0-0.1,0c-0.1,0-0.2,0-0.3,0h0
		c-1.2,0.1-2.6,0-3.9-0.2c-1.3-0.2-2.6-0.6-3.8-1.2c-1-0.5-3.2-2.5-3.4-2.8c-0.8-0.9-1.3-2.1-1.8-3.2c0.3,1.1,0.7,2.2,1.3,3.2
		c-3.4,0.7-4.2,3.9-4.2,4c-1.3,6.1,8.7,9.3,19.8,11.8c9.4,2.1,33.3,3.8,57.6-1c15.1-2.9,29-9.1,34.3-11.7c0.8-0.4,1.9-0.2,2.5,0.5
		C126.2,107.1,126.2,107.8,126.1,108.2z"/>
	<path class="st7" d="M42.3,86.8l-3.1,7.5c0,0-1.5,5.5-5.9,8.4c-2.8,1.8-11.9,3.1-13.3,2.3s-5.1-4.8-5.6-5.6c1,3,3.4,5.5,4,5.7
		c0.6,0.3,5.5,3,8.2,2.9s8.5-0.6,9.7-2.2c1.2-1.6,6.6-8.5,7.3-11.8c0.2-2.9-0.4-3.9-0.4-3.9L42.3,86.8z"/>
	<path class="st6" d="M23.8,81.3c0,0-11.8,16.7-3.7,23.8c-2.3-0.3-3.3-1.7-3.7-2c-0.4-0.3-4.1-3.7-3.2-10.3
		c0.9-6.6,10.1-19.8,11.4-20.2c1.3-0.5,3.2-0.5,4.2-0.5C27.3,74.2,23.8,81.3,23.8,81.3z"/>
	<path class="st3" d="M70.9,25.1c0,0.1,0,0.1,0,0.2c0,0.5-0.3,1.1-0.7,1.6c-0.9,1.2-2.3,2.3-2.3,2.3l1.1,2.3l0.1,0.2l0.8,1.1
		l0.4,0.6c0,0-2.5,0.8-2.7,0.8c-0.2,0-0.8,0.7-1,1.7c-1.5,0.3-2.8,0.3-4,0.1c-2.5-0.4-4.1-1.7-4.5-2c-0.1-0.1-0.1-0.1-0.1-0.1
		s-1.2,0.5-2.6,1.6c0.5-0.8-0.7-4.9-0.4-5.7c-0.1,0.5-1.6,1.6-3.9,2.2c0.7-1.3,0.4-4.4,0.2-5.9c-0.2,0.6-1.9,1.2-3.1,0.6
		c1-0.9,1-3.5,1.3-5.3c-0.4-2.4-3.6,0.4-4,0.9c0,0-0.1,0.1-0.1,0.1l-0.1-1.4l3.8-8.3c0,0,0.2,0,0.5,0c0.5,0.1,1.3,0.3,2.2,1.2
		c0,0,0,0-0.1,0c-0.6-0.2-1.1-0.4-1.5-0.7c-0.1-0.1-0.2-0.1-0.3-0.2c-0.6,2.2-1.6,4.4-2.6,6.1l0,0.1c0,0,3.6-3.5,4.1-0.9
		c-0.3,1.7-0.3,4.4-1.3,5.3c1.2,0.6,2.9,0,3.1-0.6c0.1,1.5,0.5,4.6-0.2,5.9c0.5-0.1,1-0.3,1.5-0.5l0.6-1.3l0.2,0.9
		c1-0.5,1.5-1,1.6-1.3c-0.2,0.8,0.9,4.9,0.5,5.7c1.4-1.1,2.6-1.6,2.6-1.6s3.3,3.1,8.6,2c0.1-0.3,0.2-0.6,0.3-0.9
		c-0.1-0.1-0.2-0.3-0.3-0.4c-0.2-0.3-0.5-0.6-0.6-1c-0.2-0.4-0.3-0.7-0.4-1.2l0-0.2l0.2-0.2c0.6-0.6,1.1-1,1.5-1.5
		c0.3-0.4,0.6-0.8,0.8-1.2L69.8,26c0,0,0.1-0.1,0.2-0.2c0-0.1,0.1-0.1,0.1-0.2c0.2-0.6,0.4-1.3,0.4-2c0-0.4,0-0.7,0-1
		c-0.1-0.3-0.2-0.7-0.3-1c-0.6-1.3-1.8-2.3-3-3c-1.3-0.7-2.6-1.3-3.9-1.9l-0.8-0.3l0.2-0.3c-0.2-0.8-0.6-1.6-1.1-2
		c-0.3-0.3-0.7-0.4-1.1-0.6c-0.2-0.1-0.4-0.1-0.6-0.1l-0.7-0.1c-1-0.1-2-0.3-2.8-0.9c-0.2-0.1-0.4-0.3-0.6-0.4
		c0.1-0.1,0.3-0.5,1.2,0c1,0.6,4.1,1.5,5.1,2.2c1,0.7,0.8,2,0.8,2s1.3,0.5,3.8,1.7C71.4,21.1,70.9,23.5,70.9,25.1z"/>
	<path class="st8" d="M55,27.1l0.2,0.9c-0.2,0.1-0.5,0.3-0.8,0.4L55,27.1z"/>
	<path class="st8" d="M71,28.6l1.2,1.7c0,0-2.5,0.8-2.7,0.8c-0.1,0-0.2,0.1-0.4,0.3c0,0.1-0.1,0.1-0.1,0.2c-0.1,0.1-0.1,0.2-0.2,0.4
		c-0.1-0.1-0.2-0.3-0.3-0.4c-0.2-0.3-0.5-0.6-0.6-1c-0.2-0.4-0.3-0.7-0.4-1.2l0-0.2l0.2-0.2c0.6-0.6,1.1-1,1.5-1.5
		c0.3-0.4,0.6-0.8,0.8-1.2l0.3,0.7l0.3,0.6L71,28.6z"/>
	<path class="st9" d="M72,28.3c0,0-1.2-0.1-2.2-0.8C69.3,28,68,29.3,68,29.3s1.3,3.4,2.4,3.9c0.8-0.6,1.8-1.4,1.8-1.4
		s3.5,0.3,3.7,0.2c0.2-0.2,1.3-3.6,1.2-3.6c-0.1,0-2,0-2.5,0.1C74,28.4,72,28.3,72,28.3z"/>
	<path class="st3" d="M42.7,26.3c0,0-0.3,8.4,0.8,10.1c1.1,1.8-0.2,5-1.8,6.2s-3.3,5-4.2,6.1c-0.9,1.1-6,5.6-6.8,6.7
		c-0.8,1.1-4.1,7.1-3.8,9.2c0.3,2.2,1.2,7.2,1.2,7.2l-1,0.7c-8.5,6-13.3,15.9-12.8,26.2c0,0.2,0,0.4,0,0.6c-1.8,3.4-8.4,4.2-8.4,4.2
		s-7.7-9.6-5.7-18S9.9,56.4,12.6,51S23.8,36.5,27,34.5c3.2-2,8.8-4.4,10.7-5.8C39.6,27.3,42.7,26.3,42.7,26.3z"/>
	<path class="st4" d="M63.2,15.6c-0.1-0.1,0.6-12.1,10.1-9.6c-2.9-2.3-5.5-2.9-5.8-3C67.2,3,61.2,1.9,57.2,3.4s-5.1,3.1-5.1,3.1
		l2.2,2.9c0,0,0.4,1.4,1.3,2c0.8,0.6,2.6,2.1,4.6,1.8s2.7,2.9,2.7,2.9L63.2,15.6z"/>
	<path class="st6" d="M80,118.5c5.3-1.2,39.2-11.5,42.5-13.3c4.3-0.9,5,2.9,3.1,5.2c-6.4,5.2-33.3,15.1-66.3,16.8
		c7-2.2,16.2-4.1,17.2-8.3L80,118.5z"/>
	<path class="st6" d="M55,77.8c0.6,0.2,10.4,11,12.1,12.2c1.7,1.2,3.5,5.3,4.2,5.8c0.6,0.4,4.2,4.7,4.7,0.3c1.2,3.5,2,6.1,1.5,6.2
		c-0.5,0.1-7.7,0.5-7.8,0.2s2.1-2.6-1.5-5.1c-3.6-2.6-10.7-10.3-10.9-10.6C57,86.5,55,77.8,55,77.8z"/>
	<path class="st6" d="M60.8,102.3c-0.1,0-4.5,4.1-8.5,2.4c-0.3,1.3-0.1,3.4,3.3,3.8c3.4,0.3,31.8,0.3,31.8,0.3s-1.9-6-7.2-6.6
		S60.8,102.3,60.8,102.3z"/>
	<path class="st0" d="M70.9,25.1c-0.3,0.3-0.7,0.6-0.8,0.8c0,0.1-0.1,0.2-0.2,0.3l0.3,0.7l0.3,0.6c0.3-0.5,0.5-0.9,0.6-1.4
		c0.1-0.4,0.2-0.9,0.2-1.3C71.2,24.8,71,25,70.9,25.1z M127.3,105.5c-1.1-1.6-3.2-2.1-4.9-1.3c-5.2,2.5-19,8.6-33.9,11.5
		c-22.7,4.4-46.8,3.2-56.8,1c-8.4-1.9-19.4-5-18.4-9.6c0-0.1,0.5-2.4,2.9-2.6c0.9-0.1,2.1,1.2,3,1.8c1.2,0.8,2.6,1.4,3.9,1.8
		c0.7,0.2,1.4,0.4,2.1,0.5c0.7,0.1,1.4,0.2,2.2,0.2c0,0,0.1,0,0.1,0c0,0,0,0,0,0c0.1,0,0.1,0,0.2,0h1.1c0.7,0,1.3,0,2.1,0H31
		c8,0,12.1-10.6,13.3-14.6c0.2,0.4,0.4,0.9,0.6,1.3c0,0,0,0,0,0c0,0.1,0,0.1,0.1,0.2c0.9,1.7,1.8,2.7,2.6,3.5
		c0.9,0.9,1.7,1.7,2.4,3.4c0.2,0.4,0.3,0.9,0.3,1.4c0,1.6,0.4,2.9,1.4,3.8c1.8,1.8,4.8,1.5,5.4,1.4c1.5,0,26.1,0.3,30.4,0.3h0.9
		v-0.9c0-5.6-7.6-7.5-7.9-7.6l-0.1,0h-0.1c0,0-0.9,0-2.2,0.1c-0.5-2.7-2.1-11.4-3.4-13.1c-0.1-0.1-0.5-1.1-0.5-1.3
		c-0.4-1.6-3.8-15-5.8-18.4c0.2-3.5-1.4-11.5-2.5-16.9c-0.4-1.8-0.7-3.6-0.8-4c0-0.1,2.5-10.8,2.7-12.7c0.1,0,0.2,0,0.3,0
		c0.7,0,1.3-0.4,1.8-0.7c0.5-0.3,1-0.7,1.5-1.1c0.4-0.4,0.7-0.8,1-1.2c0.4,0.1,0.8,0.2,1.2,0.3c0.4,0.1,0.8,0.2,1.2,0.2
		c0.4,0.1,0.8,0.1,1.3,0.2l0.2,0l0.2-0.2c0.4-0.5,0.8-1,1.1-1.5c0.3-0.5,0.5-1.1,0.7-1.7l0,0c0-0.1,0-0.1,0-0.2c0-0.2,0-0.3-0.1-0.4
		l0.1-0.2c0.3-0.5,0.5-1.1,0.6-1.6c0.1-0.3,0.1-0.6,0.1-0.9c0-0.3,0-0.6,0-1l0-0.1c0-0.1,0-0.1-0.1-0.2c0.5-0.5,0.9-1.2,1-2
		c0.1-0.5,0.1-1-0.1-1.4c-0.1-0.4-0.3-0.8-0.5-1.2c-0.4-0.8-0.9-1.4-1.5-2c-0.6-0.6-1.2-1.1-2-1.4c-0.1,0-0.2,0-0.3-0.1
		c-0.4,0-0.6-0.4-0.5-0.8c0.2-0.6,0.4-1.2,0.7-1.5c0.5-0.6,1.1-0.9,1.8-1.2l0.4-0.2l0-0.5c0-0.8,0-1.4-0.2-2.1
		c-0.1-0.7-0.3-1.4-0.6-2c-0.5-1.3-1.5-2.6-2.8-3.4c-0.6-0.4-1.4-0.7-2-0.9c-0.6-0.2-1.3-0.4-1.9-0.6C69.3,3,68,2.8,66.7,2.6
		c-1.3-0.2-2.6-0.3-4-0.5C61.3,2,60,2,58.6,2.2C57.3,2.5,56,3,54.8,3.6c-1,0.5-2,1.3-2.7,2.2c-0.6-0.1-1.2,0-1.6,0.2
		c-0.5,0.2-1,0.5-1.5,0.9c-0.4,0.4-0.8,1-0.9,1.6c-0.1,0.6-0.1,1.2,0,1.8c0,0.3,0.1,0.7,0.2,1c0,0.1-0.1,0.2-0.1,0.2
		c-0.8,4.3-4.1,9-4.1,9.1c0,0.1-0.1,0.1-0.1,0.1c-0.1,0.2-0.2,0.4-0.3,0.6c-0.8,2.3-2.9,4.6-6.2,6.7c-2,1.3-4.5,2.6-7.4,3.8
		c-3.8,1.9-12.9,9.4-18.2,19C9.5,54.6,2.1,73.8,0.4,84.4c-1.5,8.7,2,16.1,3.4,18.7c0.2,0.3,0.3,0.6,0.4,0.8
		c-0.6,1.5-1.5,5.4,0.6,9.6c2.9,5.9,10,9.9,21.3,12c9.5,1.8,18.7,2.4,27.1,2.4c17,0,31-2.7,39.1-4.2c13.8-2.6,25.1-8,33.4-12.4
		c1.1-0.6,1.9-1.6,2.2-2.8C128.2,107.5,127.9,106.4,127.3,105.5z M66.3,68.5l0,0.4l0.2,0.3c1.1,1.6,3,8,4.4,13
		c-3.6-6-8.6-14.8-9.7-16.8c-0.3-3,0.1-9.4,2.2-14.7c0.1-0.1,0.1-0.2,0.2-0.3c0.1,0.4,0.2,0.9,0.3,1.5C64.9,57,66.7,65.5,66.3,68.5z
		 M61.8,49.9L61.7,50c-1.2,3.1-1.9,6.5-2.2,9.6c-0.2-1.1-0.4-2.3-0.8-3.4c-0.4-1.4-1-2.8-1.3-4.2c-0.3-1.4-0.4-2.9-0.3-4.3
		c0.1-1.5,0.2-2.9,0.3-4.3c0.1-0.7,0.2-1.4,0.4-2c0.2-0.6,0.5-1.2,0.8-1.5c0,0,0.1-0.1,0.1-0.1l0.2-0.2l0.4-0.3
		c0.3-0.2,0.5-0.4,0.8-0.6c0.6-0.4,1.2-0.7,1.8-1.1c1.1-0.6,2.3-1,3.6-1.4C65.2,39.5,64.1,45.7,61.8,49.9z M77.5,27.8
		c-0.4,0.1-0.8,0.1-1.1,0.2c-0.5,0.1-0.9,0.1-1.4,0.2C74,28.3,73,28.3,72,28.3c0.9,0.2,1.9,0.3,2.9,0.3c0.5,0,0.9,0,1.4,0
		c0,0.1,0,0.1,0,0.2c-0.1,0.6-0.1,1-0.2,1.5c-0.1,0.4-0.3,0.8-0.5,1.2c-0.3,0-0.6,0.1-0.8,0.1c-0.4,0-0.8,0-1.2,0
		c-0.4,0-0.7,0-1.1,0c0,0,0,0,0,0c0,0-0.1,0-0.1,0h0c0,0,0,0-0.1,0c-0.4,0-0.8,0-1.2-0.1c0.3,0.1,0.6,0.2,0.9,0.3
		c-0.4,0.2-0.7,0.5-1.1,0.6c-0.2,0.1-0.5,0.2-0.7,0.3c-0.3-0.5-0.7-0.9-0.9-1.4c0-0.1-0.1-0.2-0.1-0.2c-0.3-0.5-0.5-1.1-0.6-1.6
		l0.7-0.5c0.3-0.3,0.6-0.5,0.9-0.8c0.2-0.2,0.4-0.4,0.5-0.7c0.3-0.5,0.5-0.9,0.6-1.4c0.1-0.4,0.2-0.9,0.2-1.3c0-0.4,0-0.7-0.1-1.1
		c-0.1-0.8-0.3-1.6-0.7-2.2c-0.8-1.3-1.8-2.4-3-3.4c-0.9-0.8-2-1.4-3.1-2c0.6-0.5,1.2-0.9,1.8-1.3c0.4-0.2,0.7-0.4,1.1-0.6
		c0.5-0.3,1.1-0.5,1.6-0.6c1-0.3,2-0.4,3-0.3c1,0.1,1.8,0.5,2.7,1.1c-0.9,1.3,0,2.4,0,2.4c-0.2,0-0.3,0.1-0.5,0.2
		c-0.3,0.1-0.5,0.4-0.6,0.6c-0.1,0.3-0.3,0.5-0.4,0.8c-0.2,0.5-0.3,1.1-0.4,1.6c0,0.1,0,0.2,0,0.3c0,0.4,0,0.8,0,1.1c0,0,0,0,0,0
		c0,0.1,0,0.2,0,0.3l0,0.1l0.1,0.1c0.6,0.8,1.3,1.6,2.2,2.2c0.7,0.5,1.4,0.8,2.2,1.1c0,0.1,0,0.2,0.1,0.3c0.1,0.1,0.1,0.4,0.2,0.6
		c0,0.2,0.1,0.5,0.1,0.7C77.6,27,77.6,27.4,77.5,27.8z M76.3,17.4c0.3,0.4,0.6,0.8,0.9,1.2c0.4,0.6,0.8,1.3,1.1,2
		c0.1,0.3,0.2,0.7,0.3,1c0.1,0.3,0.1,0.6,0,0.9c-0.1,0.5-0.3,1.1-0.7,1.5c-0.8-0.2-1.6-0.4-2.3-0.9c-0.8-0.5-1.5-1.1-2.1-1.8
		c-0.2-1-0.2-2,0.1-3c0.1-0.5,0.3-1,0.7-1.3c0.1,0,0.1-0.1,0.2-0.1C75.2,16.6,75.9,16.9,76.3,17.4z M59,3.9c1.2-0.3,2.4-0.6,3.7-0.9
		c1.3-0.2,2.6-0.2,3.8,0.1C67.8,3.4,69,4,70.1,4.6l1.7,0.9c0.6,0.3,1.1,0.5,1.5,0.9C74.2,7,74.9,8,75.4,9c0.4,0.9,0.8,2,1,3
		c-0.2,0.2-0.4,0.3-0.6,0.5c-0.3,0.3-0.6,0.7-0.8,1.2c0,0.1-0.1,0.1-0.1,0.2c-0.7-0.8-1.7-1.3-2.7-1.5c-1.1-0.3-2.3-0.2-3.4,0
		c-1,0.2-2,0.6-2.9,1.1c-0.1,0.1-0.2,0.1-0.3,0.2c-0.5,0.3-0.9,0.6-1.4,1c-0.4,0.4-0.8,0.7-1.2,1.2c-0.1-0.8-0.5-1.5-1.1-2.1
		c-0.4-0.4-0.8-0.6-1.3-0.9c-0.2-0.1-0.5-0.2-0.7-0.3l-0.7-0.2c-0.4-0.1-0.8-0.3-1.2-0.5l-1.2-0.5c-0.8-0.3-1.5-0.7-2.2-1.3
		c0-0.3,0-0.5,0-0.8c0-0.2-0.1-0.5-0.1-0.7c-0.1-0.6-0.3-1.1-0.7-1.6c-0.3-0.4-0.7-0.8-1.2-1C54.7,4.9,56.8,4.4,59,3.9z M43.7,25.2
		c1-1.3,1.5-2.3,1.7-3c0-0.1,0.1-0.2,0.1-0.3c0-0.1,0-0.1,0.1-0.2c0.1-0.1,0.1-0.2,0.2-0.3c0.2-0.3,0.8-1.2,1.6-2.6
		c0.9-1.6,2-3.8,2.6-6.1c0.1,0.1,0.2,0.1,0.3,0.2c0.5,0.3,1,0.5,1.5,0.7c0,0,0,0,0.1,0c0,0,0-0.1,0-0.1c0,0,0,0,0,0
		c-0.2-0.5-0.6-1-0.9-1.4c-0.3-0.3-0.5-0.7-0.8-1c0,0,0,0-0.1-0.1c-0.3-0.8-0.6-1.8-0.7-2.6c0-0.4-0.1-0.9,0.1-1.3
		c0.2-0.4,0.6-0.7,1.1-0.8c0.5-0.1,0.9,0.1,1.2,0.4c0.3,0.3,0.6,0.6,0.9,0.9c0.5,0.6,0.9,1.3,1.4,2.1c0.1,0.1,0.2,0.3,0.3,0.4v0
		c0,0,0,0,0.1,0h0c0.2,0.6,0.7,1.2,1.2,1.6c0.2,0.2,0.4,0.3,0.6,0.4c0.8,0.6,1.8,0.8,2.8,0.9l0.7,0.1c0.2,0,0.4,0.1,0.6,0.1
		c0.4,0.1,0.8,0.3,1.1,0.6c0.6,0.4,0.9,1.2,1.1,2l-0.2,0.3l0.8,0.3c1.3,0.5,2.7,1.1,3.9,1.9c1.2,0.7,2.4,1.7,3,3
		c0.2,0.3,0.3,0.7,0.3,1c0.1,0.4,0.1,0.7,0,1c0,0.7-0.2,1.4-0.4,2c0,0.1,0,0.1-0.1,0.2c0,0.1-0.1,0.2-0.2,0.3
		c-0.2,0.4-0.5,0.9-0.8,1.2c-0.4,0.5-0.9,1-1.5,1.5l-0.2,0.2l0,0.2c0,0.4,0.2,0.8,0.4,1.2c0.2,0.4,0.4,0.7,0.6,1
		c0.1,0.1,0.2,0.3,0.3,0.4c0.3,0.4,0.7,0.7,1.1,1c-0.2,0.1-0.4,0.2-0.6,0.2c-0.5,0.2-1.1,0.1-1.5,0.3c-0.1,0-0.2,0.1-0.4,0.1
		c-0.2-0.1-0.4-0.2-0.6-0.3c-0.5,0-1,0.4-1,0.9c0,0-0.1,0.7-0.2,1.8c-1-0.1-2-0.1-3.1,0.1c-0.4,0.1-0.7,0.2-1.1,0.3
		c-0.7,0.2-1.5,0.5-2.2,0.9c-0.4,0.2-0.7,0.4-1,0.6l-0.5,0.3l-0.2,0.2c-0.1,0.1-0.2,0.2-0.3,0.2c-0.7,0.7-1,1.6-1.3,2.3
		c-0.2,0.8-0.3,1.6-0.3,2.4c-0.1,1.5,0.1,3,0.4,4.5c0.3,1.5,0.6,2.9,0.7,4.4c0.2,1.5,0.2,3,0.3,4.4c0.2,1.5,0.6,2.9,1,4.3
		c0.2,0.7,0.5,1.4,0.8,2.1c0.1,0.2,0.2,0.3,0.2,0.5c0,0.9,0,1.8,0.1,2.4l0,0.2l0.1,0.2c1.1,2.3,12.2,21.5,13.7,23.2
		c0.7,0.8,2,6.6,3,11.9c-1.6,0-3.6,0.1-5.5,0c-0.1-0.4-0.5-1.6-0.8-2.5c-0.3-0.8-0.7-1.5-1.3-2.1c-2-1.9-6.8-6.6-10.4-10.6
		c0,0-0.1,0-0.1-0.1c0-0.1-0.1-0.2-0.1-0.3c-0.5-1.8-1.3-4.2-2.1-6.8c-1.5-4.6-3.2-9.8-3.4-11.7c-0.3-2.9-2.8-4.8-4.6-6.2
		c-0.5-0.4-0.9-0.7-1.2-1l-0.1-0.1c-3.5-2.6-6.7-1.2-7.8,0c0,0,0,0.1-0.1,0.1L36.2,62L35,63.1l-0.6,0.5L34,64l-0.3,0.3
		c-1.4,1.7-2.7,3.5-3.9,5.4c-0.5,0.8-1,1.5-1.5,2.3c-0.1-1.2-0.3-2.3-0.4-3.4c-0.1-1.1-0.2-2.2-0.1-3.3c0-2.2,0.5-4.3,1.5-6.1
		c1-1.9,2.3-3.8,3.8-5.5c1.5-1.7,3.3-3.1,4.9-4.9c0.2-0.2,0.4-0.5,0.6-0.7l0.5-0.7c0.3-0.4,0.6-0.9,1-1.3c0.7-0.9,1.5-1.7,2.2-2.6
		c0.7-0.9,1.5-1.8,2.1-2.9c0.3-0.6,0.6-1.2,0.6-1.9c0.1-0.3,0-0.7,0.1-1.1L45,37.1l-0.1-0.3l-0.1-0.2c-0.6-2.1-0.9-4.3-1.2-6.5
		C43.6,28.5,43.5,26.9,43.7,25.2z M68.7,101.2c-2.7,0-5.2-0.2-6.7-0.4c-1.1-1.5-2-5.8-2.7-9.4c-0.1-0.6-0.3-1.3-0.4-1.9
		c2.6,2.8,6.4,6.9,8.4,8.6c0.5,0.4,0.8,1,1,1.6C68.4,100.3,68.6,100.8,68.7,101.2z M126.1,108.2c-0.2,0.6-0.6,1.2-1.2,1.5
		c-8.2,4.3-19.4,9.7-32.9,12.2c-12.1,2.3-37.1,7.1-65.5,1.8c-10.5-2-17.4-5.8-19.9-11c-1.9-3.9-0.9-7.5-0.5-8.3
		c0.1-0.2,0.1-0.4,0.1-0.7c0-0.2,0-0.4-0.1-0.6c0,0-0.2-0.2-0.4-0.6c-1.2-2.1-4.8-9.3-3.4-17.7c1.7-10.3,9-29.4,11.3-32.8l0.1-0.1
		C19,41.8,28.2,35,30.9,33.6c2.7-1.1,4.8-2.2,6.6-3.3c2.4-1.4,4.1-2.8,5.2-4l0,0c-0.3,1.3-0.5,2.6-0.5,3.9c-0.1,2.3,0.2,4.7,0.7,6.9
		l0,0.2l0,0.2l0.1,0.3c0,0.2,0,0.4,0,0.6L43,38.8l-0.1,0.3c-0.1,0.2-0.2,0.4-0.3,0.7c-0.4,0.9-1.1,1.8-1.7,2.7
		c-0.7,0.9-1.4,1.8-2,2.8c-0.3,0.5-0.6,1-0.9,1.6l-0.4,0.7l-0.4,0.7c-1.2,1.9-2.8,3.5-4.5,5.1c-1.6,1.6-3.4,3.1-4.7,5.1
		c-0.7,1-1.1,2.2-1.4,3.4c-0.1,0.6-0.2,1.2-0.2,1.8c0,0.6,0,1.2,0,1.8c0.2,2.4,0.8,4.6,1.8,6.7c0,0,0,0,0,0v0c0,0,0.1,0.1,0.1,0.1
		c0,0,0,0,0,0c-0.3,0.4-0.5,0.8-0.8,1.3c-0.4,0.6-0.7,1.3-1.1,2c-1,1.9-2,3.9-2.7,6c0.3-0.7,0.6-1.3,0.9-1.9
		c0.7-1.3,1.4-2.6,2.2-3.8c1.2-1.8,2.4-3.6,3.8-5.3c1.3-1.7,2.7-3.4,4.2-4.9l0.3-0.3l0.3-0.2l0.6-0.5l1.3-1l2.6-2l0,0c0,0,0,0,0,0
		c0.1-0.1,0.1-0.1,0.1-0.2c0.5-0.4,2.5-1.8,5.3,0.2c0.4,0.3,0.8,0.7,1.3,1.1c1.6,1.2,3.6,2.8,3.8,4.9c0.2,2.2,1.9,7.2,3.5,12.1
		c0.8,2.6,1.6,5,2.1,6.7c0.5,1.6,0.8,3.6,1.3,5.7c0.9,4.6,1.8,8.9,3.4,10.6l0.2,0.2l0.3,0.1c4.3,0.9,17.3,0.5,18.9,0.4
		c0.8,0.2,5.4,1.6,6.2,4.8c-6.4,0-29.1-0.3-29.4-0.3H57l-0.1,0c0,0-2.6,0.4-3.8-0.9c-0.5-0.4-0.6-1.8-0.7-2.6c0-0.5-0.2-1-0.4-1.5
		c-0.7-1.3-2.1-3.7-2.9-4.6c-0.8-0.8-2.4-3.3-2.5-3.4v0c-0.4-0.6-0.9-1.2-1.3-1.8c-0.4-0.6-0.8-1.3-1.2-1.9c-0.4-0.6-0.7-1.3-1-2
		c-0.3-0.7-0.6-1.4-0.7-2.1c0,0.8,0.1,1.5,0.3,2.3s0.4,3,0.3,3.2c0,0.2-3.7,14.7-11.9,14.7h0c-0.8,0-1.4,0-2.1,0h-1.1c0,0,0,0-0.1,0
		c-0.1,0-0.2,0-0.3,0h0c-1.2,0.1-2.6,0-3.9-0.2c-1.3-0.2-2.6-0.6-3.8-1.2c-1-0.5-3.2-2.5-3.4-2.8c-0.8-0.9-1.3-2.1-1.8-3.2
		c0.3,1.1,0.7,2.2,1.3,3.2c-3.4,0.7-4.2,3.9-4.2,4c-1.3,6.1,8.7,9.3,19.8,11.8c9.4,2.1,33.3,3.8,57.6-1c15.1-2.9,29-9.1,34.3-11.7
		c0.8-0.4,1.9-0.2,2.5,0.5C126.2,107.1,126.2,107.8,126.1,108.2z"/>
	<path class="st8" d="M70.5,23.7c0,0.7-0.2,1.4-0.4,2c0,0.1,0,0.1-0.1,0.2C69.9,26,69.8,26,69.8,26l0.1,0.2
		c-0.2,0.4-0.5,0.9-0.8,1.2c-0.4,0.5-0.9,1-1.5,1.5l-0.2,0.2l0,0.2c0,0.4,0.2,0.8,0.4,1.2c0.2,0.4,0.4,0.7,0.6,1
		c0.1,0.1,0.2,0.3,0.3,0.4c-0.1,0.2-0.2,0.5-0.3,0.9c-5.3,1.2-8.6-2-8.6-2s-1.2,0.5-2.6,1.6c0.4-0.8-0.7-4.9-0.5-5.7
		c-0.1,0.3-0.6,0.8-1.6,1.3L55,27.1l-0.6,1.3c-0.4,0.2-0.9,0.4-1.5,0.5c0.7-1.3,0.4-4.4,0.2-5.9c-0.2,0.6-1.9,1.2-3.1,0.6
		c1-0.9,1-3.5,1.3-5.3c-0.4-2.6-4.1,0.9-4.1,0.9l0-0.1c0.9-1.6,2-3.8,2.6-6.1c0.1,0.1,0.2,0.1,0.3,0.2c0.5,0.3,1,0.5,1.5,0.7
		c0,0,0,0,0.1,0c0,0,0,0,0-0.1C54,9.9,55.7,12,55.7,12s0,0,0,0c0.2,0.2,0.4,0.3,0.6,0.4c0.8,0.6,1.8,0.8,2.8,0.9l0.7,0.1
		c0.2,0,0.4,0.1,0.6,0.1c0.4,0.1,0.8,0.3,1.1,0.6c0.6,0.4,0.9,1.2,1.1,2l-0.2,0.3l0.8,0.3c1.3,0.5,2.7,1.1,3.9,1.9
		c1.2,0.7,2.4,1.7,3,3c0.2,0.3,0.3,0.7,0.3,1C70.6,23,70.6,23.3,70.5,23.7z"/>
	<path class="st10" d="M74.6,14.3c0,0-3.5-3.7-10.1,1.8c-0.3,0.4,1.7,1.7,1.7,1.7c0,0.1,2.3,1.5,2.3,1.5s2.8,0.7,6-2.6
		C74.7,15.9,74.4,14.8,74.6,14.3z"/>
	<path class="st0" d="M72.5,16.1c0,0.7-0.7,1.2-1.5,1.1c-0.5,0-1.2-0.6-1.5-1c-0.2-0.2-0.2-0.5,0-0.6c0.4-0.4,1.1-0.9,1.6-0.8
		C71.9,14.8,72.5,15.4,72.5,16.1z"/>
</g>
</svg>
