<?xml version="1.0" encoding="utf-8"?>
<!-- Generator: Adobe Illustrator 24.1.2, SVG Export Plug-In . SVG Version: 6.00 Build 0)  -->
<svg version="1.1" id="Layer_1" xmlns="http://www.w3.org/2000/svg" xmlns:xlink="http://www.w3.org/1999/xlink" x="0px" y="0px"
	 viewBox="0 0 128 128" style="enable-background:new 0 0 128 128;" xml:space="preserve">
<style type="text/css">
	.st0{fill:#9B7C65;}
	.st1{fill:#F7D3A4;}
	.st2{fill:#E2BF96;}
	.st3{fill:#C49E7A;}
	.st4{fill:#2D2D2D;}
</style>
<g>
	<path class="st0" d="M86.47,54.39l-4.96,0.03c-1.66,0-3.29,0.05-5.01-0.04c-1.69-0.14-3.31-0.39-4.95-0.6l-4.9-0.67
		c-3.26-0.45-6.53-0.84-9.78-1.13c-1.62-0.14-3.25-0.24-4.8-0.19c-1.64,0.1-3.41,0.12-5.1-0.09c-1.7-0.2-3.35-0.56-4.93-0.88
		c-0.8-0.15-1.59-0.28-2.38-0.36c-0.78-0.07-1.63-0.12-2.45-0.17c-1.65-0.11-3.3-0.22-4.95-0.37c-0.35-0.03-0.7-0.08-1.05-0.11
		c0.24,0.09,0.48,0.18,0.72,0.27c3.42,1.08,7.02,1.93,10.58,2.76c1.79,0.4,3.59,0.78,5.39,1.12c1.8,0.35,3.6,0.69,5.4,0.93
		l1.36,0.17c0.48,0.06,0.96,0.14,1.42,0.24c0.93,0.18,1.83,0.41,2.73,0.64c1.8,0.46,3.57,0.99,5.36,1.47
		c3.56,0.96,7.14,1.93,10.77,2.44c0.92,0.13,1.75,0.17,2.72,0.21c0.94,0.05,1.86,0.12,2.79,0.2c1.85,0.16,3.69,0.42,5.52,0.73
		c0.92,0.15,1.83,0.32,2.74,0.5c0.9,0.17,1.86,0.41,2.69,0.55c1.75,0.31,3.6,0.45,5.42,0.61l0.18,0.02l0.1,0.06
		c0.66,0.4,1.36,0.79,1.98,1.39c1-0.24,2.01-0.42,3.04-0.56c0.74-0.1,1.48-0.18,2.23-0.21c-0.24-0.15-0.46-0.32-0.66-0.52
		c-0.9-0.9-1.37-2.15-1.38-3.41c0-1.18,0.22-2.44,0.95-3.48c0.25-0.37,0.57-0.68,0.94-0.92c-2.61-0.12-5.22-0.26-7.83-0.39
		C93.07,54.45,89.77,54.4,86.47,54.39z"/>
	<path class="st1" d="M111.72,77.93c-0.04-0.07-0.08-0.19-0.11-0.21c-0.04-0.03-0.04-0.07-0.08-0.1c-0.06-0.07-0.15-0.14-0.26-0.21
		c-0.23-0.13-0.54-0.24-0.86-0.32c-0.65-0.16-1.39-0.27-2.11-0.34l-0.02,0c-0.03,0-0.04-0.02-0.05-0.05
		c-0.07,0.13-0.15,0.26-0.27,0.38c-0.14,0.15-0.25,0.22-0.37,0.29c-0.12,0.08-0.23,0.15-0.36,0.21c-0.19,0.1-0.4,0.18-0.63,0.23
		c0.01,0.01,0.01,0.02,0.02,0.03c0.19,0.32,0.4,0.71,0.58,0.91c0.01,0.01,0.05,0.03,0-0.03c0.25,0.22,0.22,0.34,0.25,0.41
		c0.04,0.15,0.05,0.26,0.06,0.38c0.01,0.22,0.01,0.43-0.01,0.63c-0.07,0.81-0.21,1.6-0.52,2.36c-0.09,0.21-0.19,0.42-0.3,0.63
		c0.45,0.38,0.89,0.75,1.34,1.05c0.28,0.18,0.57,0.34,0.82,0.4c0.25,0.06,0.43,0.05,0.64-0.04c0.44-0.17,0.98-0.63,1.47-1.13
		c0.25-0.25,0.5-0.52,0.78-0.78c0.3-0.29,0.51-0.42,0.67-0.71c0.34-0.56,0.35-1.34,0.2-2.03C112.45,79.2,112.05,78.57,111.72,77.93z
		"/>
	<path class="st2" d="M108.63,69.53c0.12-0.15,0.21-0.31,0.25-0.48l0.12-0.61c0.14-0.85,0.59-1.74,0.39-1.75
		c-0.01-0.02-0.02-0.06-0.05-0.1l-0.15-0.25c-0.1-0.18-0.19-0.37-0.26-0.57c-0.07-0.2-0.13-0.4-0.16-0.61c0-0.01,0-0.03-0.01-0.04
		c-0.03,0-0.05,0.01-0.08,0.01c-0.17,0.01-0.36,0.04-0.63-0.01c-0.25-0.06-0.36-0.13-0.48-0.18c-0.23-0.1-0.46-0.18-0.71-0.26
		c-0.51-0.16-0.99-0.28-1.5-0.35c-0.23-0.03-0.46-0.04-0.68-0.06c-0.54,0.34-0.94,0.8-1.17,1.32c-0.32,0.72-0.4,1.56-0.38,2.4
		c0.03,0.78,0.24,1.57,0.68,2.22c0.44,0.65,1.14,1.14,2.07,1.43c-0.07,0.02-0.14,0.03-0.21,0.05c0.19,0.04,0.39,0.07,0.58,0.14
		c0.27,0.09,0.52,0.21,0.77,0.36c0.24-0.67,0.52-1.25,0.86-1.8C108.09,70.08,108.39,69.83,108.63,69.53z"/>
	<path class="st2" d="M94.07,78.69c-0.11,0.15-0.2,0.31-0.27,0.48c-0.14,0.32-0.21,0.68-0.28,1.03l-0.04,0.55l-0.01,0.56
		c0.03,0.69,0.21,1.39,0.59,1.97c0.29,0.44,0.71,0.81,1.26,1.08c0.09-0.02,0.17-0.04,0.26-0.06c0.81-0.19,1.59-0.5,1.93-0.8
		c0.04-0.04,0.09-0.07,0.12-0.12c0.04-0.03,0.13-0.18,0.19-0.26c0.13-0.19,0.28-0.37,0.42-0.56c0.28-0.36,0.56-0.73,0.76-1.12
		c0.21-0.39,0.34-0.82,0.4-1.24c0.05-0.42-0.02-0.85-0.22-1.11c-0.1-0.13-0.21-0.21-0.34-0.26c-0.07-0.02-0.13-0.04-0.21-0.06
		c-0.11-0.04-0.25-0.09-0.37-0.14c-0.5-0.21-0.94-0.57-1.28-0.87c-0.17-0.15-0.33-0.27-0.4-0.29c-0.08-0.02,0.04,0.04,0.03,0.04
		c-0.02,0.02-0.13,0.07-0.27,0.16c-0.14,0.1-0.28,0.18-0.47,0.33C95.31,78.41,94.69,78.61,94.07,78.69z"/>
	<path class="st1" d="M96.8,70.5c-0.13,0.05-0.25,0.1-0.4,0.15c-0.02,0.03-0.04,0.06-0.05,0.09c-0.14,0.32-0.21,0.68-0.28,1.03
		l-0.04,0.55l-0.01,0.56c0.03,0.69,0.21,1.39,0.59,1.97c0.03,0.05,0.07,0.09,0.11,0.14l0.98,0.02c0.37,0,0.8,0.01,1.02-0.02
		c0.5-0.06,0.9-0.34,1.24-0.93c0.32-0.57,0.5-1.32,0.55-2.06c0.04-0.37,0.01-0.75-0.01-1.13c-0.02-0.19-0.05-0.38-0.08-0.56
		c-0.03-0.17-0.07-0.4-0.12-0.47c-0.09-0.18-0.46-0.25-0.8-0.21c-0.35,0.03-0.72,0.12-1.08,0.24c-0.36,0.12-0.72,0.26-1.08,0.41
		L96.8,70.5z"/>
	<path class="st3" d="M86.86,71.89c0.15,0.54,0.14,1.12-0.02,1.64c-0.15,0.53-0.44,0.99-0.77,1.39c-0.24,0.29-0.51,0.54-0.79,0.77
		c1.42-0.26,2.83-0.41,4.24-0.53c1.57-0.12,3.13-0.21,4.69-0.22c0.39,0,0.79,0,1.18,0.01c-0.41-0.61-0.62-1.33-0.62-2.06
		c0-0.69,0.11-1.41,0.42-2.07c-0.52,0.03-1.02,0.02-1.52,0c-2.89-0.17-5.67-0.71-8.46-1.29C85.95,70.14,86.6,70.91,86.86,71.89z"/>
	<path class="st1" d="M100.96,89.94c-0.26-0.3-0.64-0.52-1.02-0.7c-0.19-0.09-0.39-0.17-0.58-0.24l-0.28-0.1
		c-0.02,0-0.11-0.04-0.07-0.01c0.03,0.02-0.07,0-0.1,0c-0.7-0.07-1.58-0.18-2.43-0.29c-0.63-0.09-1.28-0.19-1.94-0.35
		c0.06,0.26,0.13,0.52,0.16,0.79c0.2,1.35,0.18,2.85-0.61,4.19c-0.14,0.24-0.31,0.45-0.5,0.65c1.45-0.26,2.88-0.35,4.27-0.42
		c0.85-0.03,1.73,0.02,2.46-0.06c0.34-0.05,0.54-0.12,0.65-0.18c0.06-0.04,0.12-0.14,0.18-0.28c0.04-0.16,0.08-0.34,0.08-0.55
		c0.02-0.42-0.03-0.87-0.02-1.38c-0.01-0.11,0.03-0.29,0.04-0.37l0.01-0.11l-0.02-0.12C101.18,90.25,101.09,90.08,100.96,89.94z"/>
	<path class="st1" d="M92.06,69.05c0.57,0.03,1.13,0.06,1.69,0.09c0.75,0.04,1.55,0.11,2.18,0.09c0.1,0,0.32-0.04,0.51-0.06
		l0.58-0.07c0.18-0.17,0.35-0.36,0.51-0.55c0.49-0.61,0.89-1.29,1.26-1.99c0.34-0.62,0.15-1.08-0.38-1.54
		c-0.49-0.41-1.13-0.75-1.79-1.07c-1.49-0.01-2.95-0.07-4.45-0.22c-0.18,0.21-0.33,0.44-0.44,0.68c-0.32,0.72-0.4,1.56-0.38,2.4
		c0.03,0.78,0.24,1.57,0.68,2.22C92.04,69.03,92.05,69.04,92.06,69.05z"/>
	<path class="st1" d="M106.13,78.05c-0.19-0.71-0.55-1.42-1.15-1.8c-0.62-0.37-1.19-0.37-1.77-0.17c-0.59,0.17-1.21,0.54-1.8,0.95
		c-0.52,0.35-1.03,0.75-1.61,1.11c0.13,0.19,0.24,0.4,0.29,0.61c0.14,0.6,0.02,1.11-0.08,1.58c-0.09,0.37-0.2,0.72-0.3,1.08
		c0.44-0.07,0.85-0.03,1.26,0.06c0.42,0.12,0.89,0.29,1.2,0.74c0.32,0.43,0.39,1,0.4,1.44c0.01,0.25,0.01,0.41,0.08,0.58
		c0.08,0.16,0.2,0.27,0.35,0.39c0.09,0.07,0.2,0.16,0.31,0.3c0.7-0.16,1.17-0.56,1.53-1.06c0.38-0.54,0.65-1.18,0.9-1.84
		c0.25-0.65,0.5-1.33,0.65-2.02c0.04-0.17,0.07-0.34,0.1-0.5l0.03-0.19c0,0,0,0,0,0c-0.02-0.03-0.03-0.05-0.05-0.08
		C106.27,78.76,106.25,78.43,106.13,78.05z"/>
	<path class="st2" d="M94.36,87.63c0.69-0.26,1.41-0.41,2.13-0.49c0.46-0.05,0.92-0.07,1.39-0.05c0.47,0.02,0.96,0.09,1.47,0.29
		c0.08,0.03,0.09,0.03,0.22,0.1c0.14,0.07,0.15,0.1,0.23,0.15c0.1,0.08,0.2,0.16,0.29,0.25c0.01,0.01,0.01,0.02,0.02,0.02
		c0.56-0.49,1.1-0.96,1.52-1.43c0.24-0.26,0.46-0.53,0.63-0.76l0.12-0.18c0.03-0.04-0.05-0.23-0.13-0.46
		c-0.08-0.23-0.13-0.51-0.13-0.76c0.01-0.24,0.05-0.5,0.05-0.66c0-0.39-0.36-0.63-0.67-0.73c-0.32-0.12-0.61-0.32-0.95-0.54
		c-0.3-0.21-0.62-0.44-0.91-0.77c-0.01,0.02-0.02,0.05-0.02,0.07c-0.12,0.45-0.22,0.92-0.33,1.38c-0.06,0.23-0.1,0.46-0.16,0.68
		c-0.04,0.12-0.04,0.19-0.1,0.35c-0.07,0.16-0.15,0.32-0.25,0.45c-0.41,0.56-0.99,0.82-1.5,0.98c-0.52,0.15-1.03,0.21-1.53,0.21
		c-0.88-0.01-1.73-0.17-2.53-0.52c0.42,0.6,0.72,1.21,0.96,1.83C94.24,87.24,94.3,87.44,94.36,87.63z"/>
	<path class="st0" d="M97.95,68.92c-0.03,0.03-0.07,0.06-0.1,0.09c0.14-0.01,0.27-0.03,0.4-0.04c0.41-0.03,0.82-0.05,1.25-0.02
		c0.22,0.02,0.44,0.05,0.67,0.12c0.22,0.07,0.48,0.22,0.63,0.47c0.14,0.28,0.15,0.45,0.2,0.65c0.04,0.2,0.08,0.39,0.11,0.59
		c0.05,0.24,0.08,0.47,0.11,0.71c0.37-0.11,0.74-0.17,1.11-0.22c0.4-0.04,0.79-0.05,1.19-0.04c-0.16-0.11-0.32-0.22-0.46-0.37
		c-0.77-0.75-1.17-1.8-1.18-2.86c0-0.98,0.19-2.04,0.82-2.91c0.27-0.39,0.64-0.7,1.05-0.91c-1.47-0.06-2.97,0.01-4.46,0.11
		c0.29,0.32,0.55,0.72,0.64,1.23c0.1,0.56-0.11,1.09-0.37,1.47C99.07,67.69,98.56,68.34,97.95,68.92z"/>
	<path class="st1" d="M100.8,76.33c0.56-0.56,1.22-1.1,2.1-1.34c0.44-0.11,0.94-0.11,1.39,0.05c0.45,0.16,0.81,0.46,1.07,0.79
		c0.45,0.57,0.76,1.16,1.1,1.75c0.11-0.16,0.21-0.33,0.31-0.49l0.2-0.33c0.06-0.11,0.14-0.23,0.15-0.29
		c0.09-0.28,0.05-0.67-0.01-1.13c-0.05-0.45-0.11-0.95-0.16-1.5l-0.02-0.34c0-0.1-0.02-0.2-0.03-0.3c-0.03-0.2-0.11-0.42-0.24-0.6
		c-0.13-0.18-0.33-0.34-0.55-0.42c-0.21-0.09-0.46-0.08-0.72-0.06c-0.52,0.05-1.04,0.2-1.56,0.22c-0.86,0-1.72-0.12-2.57-0.38
		c0,0,0,0.01,0,0.01c0.07,0.81,0.12,1.65-0.12,2.53c-0.12,0.44-0.33,0.9-0.69,1.29c-0.35,0.41-0.86,0.68-1.37,0.82
		c-0.26,0.06-0.47,0.09-0.66,0.12c0.21,0.24,0.41,0.45,0.62,0.66l0.22,0.19c0.12,0.09,0.24,0.19,0.34,0.3
		C99.96,77.35,100.33,76.81,100.8,76.33z"/>
	<path class="st3" d="M91.28,86.04c0.07,0,0.04,0-0.01,0C91.27,86.04,91.27,86.04,91.28,86.04z"/>
	<path class="st2" d="M115.41,72.18c0.16-0.18,0.33-0.37,0.48-0.56l0.23-0.29c0.06-0.09,0.13-0.17,0.17-0.27
		c0.21-0.39,0.2-0.9,0.05-1.35c-0.14-0.46-0.44-0.88-0.79-1.23c-0.35-0.35-0.74-0.66-1.11-0.99c-0.33-0.25-0.64-0.45-1.04-0.55
		c-0.79-0.18-1.75,0.01-2.75,0.22c0,0,0,0.01,0,0.01c-0.1,0.28-0.24,0.48-0.38,0.64c-0.27,0.34-0.63,0.51-0.84,0.81
		c-0.11,0.15-0.15,0.29-0.18,0.5l-0.09,0.62c-0.05,0.42-0.11,0.85-0.31,1.21c-0.2,0.36-0.46,0.67-0.75,0.95
		c-0.22,0.2-0.46,0.39-0.75,0.52c0.14,0.11,0.26,0.24,0.37,0.39c0.1,0.13,0.17,0.28,0.24,0.43c0.06,0.16,0.1,0.32,0.13,0.42
		c0.03,0.11,0.06,0.23,0.1,0.34c0.51-0.17,1.02-0.3,1.54-0.41c0.56-0.12,1.12-0.23,1.68-0.3c1.06-0.17,2.12-0.24,3.18-0.25
		C114.87,72.78,115.15,72.47,115.41,72.18z"/>
	<path class="st1" d="M91.27,96.19c-0.36-0.17-0.73-0.35-1.08-0.68l-0.14-0.14c-0.51,0.08-1.02,0.12-1.55,0.08
		c-0.34-0.04-0.68-0.09-1.01-0.26c-0.06-0.03-0.11-0.07-0.16-0.1c-0.16,0.53-0.32,1.03-0.47,1.52c-0.19,0.59-0.35,1.16-0.43,1.72
		c-0.08,0.56-0.1,1.09,0,1.63c0.09,0.45,0.31,0.87,0.58,1.34c1.11,0.15,2.2,0.33,3.27,0.43l0.28,0.02c0.07,0,0.13,0.01,0.19,0
		c0.12-0.01,0.24-0.03,0.36-0.08c0.23-0.08,0.49-0.25,0.72-0.48c0.47-0.46,0.82-1.12,1.16-1.79c0.16-0.34,0.31-0.7,0.38-1.06
		c0.04-0.18,0.06-0.37,0.04-0.53c-0.02-0.16-0.09-0.32-0.19-0.47C92.78,96.75,91.98,96.52,91.27,96.19z"/>
	<path class="st1" d="M90.41,83.86c-0.07,0-0.05-0.01-0.05-0.04l0-0.09v-0.2c0-0.13-0.01-0.27-0.01-0.4l-0.04-0.79
		c-0.04-0.52-0.07-1.03-0.14-1.53c-0.12-0.99-0.38-1.92-0.76-2.47c-0.18-0.28-0.47-0.51-0.92-0.62c-0.22-0.04-0.45-0.08-0.68-0.12
		c-0.67,0.32-1.14,0.83-1.38,1.39c-0.14,0.32-0.21,0.68-0.28,1.03l-0.04,0.55l-0.01,0.56c0.03,0.69,0.21,1.39,0.59,1.97
		c0.19,0.29,0.44,0.55,0.74,0.77c0.49,0,0.99,0,1.48,0.01c0.47,0.01,0.93,0.03,1.39,0.06c0,0,0,0,0,0
		C90.32,83.9,90.36,83.86,90.41,83.86z"/>
	<path class="st1" d="M97.86,95.47c-1.69-0.09-3.34-0.38-4.93-1.03c-0.16,0.11-0.33,0.21-0.51,0.29c-0.33,0.16-0.67,0.26-0.97,0.34
		c0.12,0.09,0.23,0.18,0.35,0.28c0.31,0.25,0.61,0.54,0.9,0.83c0.29,0.3,0.59,0.59,0.83,0.96c0.11,0.18,0.23,0.38,0.27,0.61
		c0.04,0.23,0.05,0.43,0.05,0.64c0,0.08-0.01,0.15-0.01,0.23c0,0,0.01,0.01,0.01,0.01l0,0c0.22,0.79,0.39,1.53,0.65,2.18
		c0.13,0.31,0.28,0.63,0.43,0.84c0.15,0.22,0.32,0.35,0.58,0.47c0.53,0.22,1.31,0.24,2.07,0.24c0.76,0,1.6,0.08,2.33,0.02
		c0.18-0.03,0.36-0.07,0.49-0.14c0.13-0.08,0.19-0.16,0.18-0.32c-0.02-0.32-0.24-0.69-0.36-1.08c-0.14-0.4-0.22-0.87-0.14-1.34
		c0.02-0.13,0.03-0.19,0.04-0.27c0-0.08,0-0.15,0-0.23c-0.01-0.15-0.03-0.3-0.06-0.45c-0.13-0.6-0.47-1.23-0.91-1.81
		c-0.33-0.45-0.72-0.87-1.14-1.28C97.95,95.47,97.91,95.47,97.86,95.47z"/>
	<path class="st0" d="M92.17,84.24c0.38,0.22,0.61,0.44,0.8,0.67c0.48-0.13,0.94-0.23,1.39-0.32c-0.39-0.13-0.76-0.33-1.06-0.64
		c-0.71-0.68-1.08-1.65-1.09-2.61c0-0.89,0.18-1.83,0.75-2.62c-0.1-0.01-0.2-0.02-0.3-0.03c-0.48-0.08-0.94-0.2-1.37-0.37
		c0.1,0.23,0.18,0.46,0.23,0.69c0.15,0.61,0.16,1.21,0.12,1.79c-0.05,0.58-0.16,1.14-0.33,1.69c-0.08,0.27-0.19,0.54-0.31,0.8
		c-0.06,0.13-0.13,0.26-0.21,0.38c-0.03,0.06-0.08,0.13-0.13,0.19l-0.08,0.09c-0.01,0.01-0.02,0.02-0.03,0.03
		c0.09,0.01,0.18,0.01,0.27,0.02l0.47,0.03c0.1,0.01,0.08-0.01,0.36,0.04C91.89,84.1,92.02,84.17,92.17,84.24z"/>
	<path class="st0" d="M90.64,77.35c0.72-0.02,1.4-0.06,2.04-0.17c0.31-0.05,0.59-0.13,0.86-0.21c-1.35-0.02-2.69-0.12-4.03-0.25
		c-1.53-0.16-3.06-0.37-4.58-0.73c-0.31,0.22-0.63,0.42-0.97,0.6c0.97,0.2,1.95,0.33,2.94,0.29c0.55-0.01,1.07-0.1,1.63-0.19
		c0.32-0.04,0.67-0.04,1.03,0.05c0.35,0.09,0.7,0.26,0.99,0.51C90.57,77.28,90.6,77.32,90.64,77.35z"/>
	<path class="st1" d="M110.12,55.71c-0.11-0.21-0.28-0.35-0.72-0.43c-0.84-0.16-1.95-0.03-3.16-0.18c-0.34-0.01-0.68-0.03-1.02-0.05
		c-0.5,0.37-0.89,0.84-1.14,1.36c-0.42,0.9-0.53,1.94-0.51,2.97c0.03,0.97,0.31,1.96,0.88,2.76c0.36,0.51,0.87,0.92,1.47,1.22
		c0.42,0.04,0.85,0.1,1.25,0.19c0.28,0.06,0.57,0.14,0.85,0.24c0.13,0.05,0.27,0.1,0.29,0.09c0.01,0,0.09-0.01,0.19-0.03
		c0.46-0.1,1.02-0.25,1.55-0.38c0.46-0.13,0.74-0.29,0.85-0.52c0.12-0.22,0.13-0.67,0.06-1.15c-0.07-0.48-0.19-1-0.31-1.53
		c-0.23-1.06-0.45-2.23-0.38-3.45C110.29,56.38,110.25,55.94,110.12,55.71z"/>
	<path class="st0" d="M108.27,76.62c0.35-0.22,0.72-0.32,1.09-0.4c0.38-0.08,0.78-0.11,1.19-0.09c0.35,0.02,0.72,0.08,1.09,0.24
		c0.2-0.47,0.43-0.93,0.71-1.36c0.13-0.18,0.26-0.37,0.41-0.54c-0.42,0.02-0.84,0.03-1.26,0.02c-0.57,0-1.14-0.03-1.71-0.08
		c-0.51-0.04-1.02-0.1-1.53-0.2c0.09,0.32,0.18,0.65,0.22,1.02c0.03,0.29,0.02,0.6-0.05,0.92
		C108.39,76.29,108.34,76.46,108.27,76.62z"/>
	<path class="st1" d="M80.94,69.14c-0.33,0.3-0.58,0.64-0.74,1.02c-0.32,0.74-0.39,1.59-0.37,2.44c0.04,0.81,0.22,1.65,0.62,2.35
		c0.26,0.47,0.65,0.86,1.15,1.17c0.68,0.12,1.36,0.25,2.04,0.4c0.78-0.52,1.5-1.16,2.02-1.9c0.55-0.77,0.78-1.7,0.46-2.51
		c-0.3-0.82-1-1.46-1.77-1.95c-0.39-0.24-0.81-0.45-1.24-0.62c-0.22-0.09-0.43-0.16-0.65-0.23c-0.11-0.03-0.22-0.06-0.32-0.09
		c-0.09-0.02-0.23-0.04-0.21-0.04l0,0l-0.05,0C81.58,69.17,81.26,69.15,80.94,69.14z"/>
	<path class="st1" d="M104.41,85.17c-0.32,0.08-0.66,0.08-0.96,0.01c0.01,0.02,0.02,0.03,0.03,0.05c0.14,0.38,0.05,0.78-0.05,1.03
		c-0.2,0.52-0.54,0.89-0.92,1.18c-0.38,0.29-0.8,0.49-1.24,0.63c-0.28,0.08-0.56,0.14-0.85,0.16c0.05,0.06,0.11,0.12,0.16,0.18
		c0.31,0.37,0.6,0.75,0.87,1.16c0.13,0.2,0.25,0.43,0.33,0.69c0.04,0.13,0.06,0.28,0.05,0.43c0,0.14-0.01,0.18,0.01,0.29
		c0.05,0.38,0.25,0.78,0.41,1.24c0.02,0.05,0.03,0.1,0.05,0.15c0.41,0.06,0.81,0.12,1.21,0.19l1.03,0.19
		c0.17,0.03,0.34,0.06,0.5,0.08l0.24,0.03c0.07,0.01,0.08,0,0.13,0c0.41-0.06,1-0.36,1.47-0.73c0.49-0.37,0.88-0.87,1.24-1.41
		c0.35-0.54,0.62-1.19,0.64-1.88c0.1-0.69-0.38-1.25-0.9-1.65c-0.26-0.21-0.52-0.41-0.76-0.62c-0.24-0.22-0.49-0.44-0.74-0.65
		c-0.42-0.34-0.83-0.69-1.3-1.01C104.85,85.03,104.64,85.12,104.41,85.17z"/>
	<path class="st0" d="M34.71,75.83l-0.15-0.11l-0.11-0.07c-0.07-0.05-0.15-0.09-0.23-0.14c-0.67-0.33-1.62-0.42-2.59-0.4
		c-0.98,0.02-1.99,0.12-3.03,0.22c-0.18,0.02-0.36,0.03-0.54,0.05c0.37,0.14,0.77,0.26,1.18,0.39c1.05,0.31,2.15,0.54,3.24,0.78
		c1.1,0.23,2.21,0.44,3.33,0.65c0.26,0.05,0.53,0.09,0.79,0.14c-0.02-0.02-0.05-0.04-0.07-0.05l-1.23-0.96L34.71,75.83z"/>
	<path class="st3" d="M7.28,72.39c0.15,0.1,0.32,0.19,0.53,0.23c0.19,0.05,0.42,0.06,0.68,0.08c0.5,0.04,1.01,0.05,1.53,0.06
		c2.05,0.05,4.13,0,6.21,0.06c2.09,0.06,4.18,0.13,6.32,0.53l0.8,0.19c0.22,0.05,0.44,0.1,0.67,0.13c0.46,0.07,0.93,0.09,1.42,0.09
		c0.97,0,1.98-0.11,3-0.23c1.02-0.11,2.07-0.25,3.16-0.29c1.09-0.03,2.27-0.02,3.49,0.54c0.15,0.08,0.3,0.15,0.44,0.25l0.21,0.14
		l0.16,0.12l0.62,0.47l1.23,0.92c0.82,0.6,1.63,1.17,2.47,1.64c0.84,0.47,1.71,0.83,2.62,1.05c0.92,0.22,1.78,0.29,2.63,0.11
		c0.85-0.16,1.85-0.61,2.98-0.84c1.12-0.25,2.28-0.26,3.34-0.21c2.13,0.12,4.19,0.39,6.26,0.71c2.07,0.32,4.12,0.71,6.16,1.2
		c1.02,0.25,2.04,0.52,3.06,0.94c0.92,0.38,1.9,0.7,2.87,1.02c3.58,1.11,7.21,2.14,10.84,3.13c0.09-0.01,0.19-0.02,0.27-0.03
		c0.25-0.04,0.61-0.11,0.92-0.17c0.32-0.05,0.65-0.1,0.97-0.14c0.65-0.09,1.29-0.12,1.94-0.17c0.34-0.02,0.68-0.02,1.01-0.03
		c-0.05-0.04-0.11-0.09-0.16-0.13c-0.71-0.68-1.08-1.65-1.09-2.61c0-0.9,0.18-1.86,0.77-2.65c0.35-0.49,0.88-0.85,1.44-1
		c-0.06-0.01-0.12-0.02-0.18-0.02c-1.08-0.09-2.17-0.04-3.26,0.07c-1.09,0.12-2.19,0.19-3.27,0.16l-1.61-0.01
		c-0.54,0-1.11-0.04-1.65-0.1c-1.08-0.13-2.16-0.32-3.22-0.58c-0.74-0.18-1.48-0.38-2.21-0.64c-2.97-0.24-5.92-0.67-8.84-1.18
		c-4.45-0.75-8.86-1.78-13.23-2.67c-0.54-0.1-1.09-0.2-1.6-0.26c-0.53-0.07-1.15-0.12-1.69-0.22c-1.13-0.16-2.24-0.35-3.35-0.54
		c-2.22-0.4-4.43-0.81-6.64-1.28l-13.14-2.78c-0.08,0.02-0.12,0.01-0.18,0.02c-0.08,0-0.15,0-0.22,0l-0.4-0.03l-0.78-0.08
		l-1.55-0.17l-3.08-0.34c-2.05-0.18-4.13-0.38-6.16-0.28c-0.5,0.03-1.01,0.08-1.45,0.22c-0.42,0.14-0.8,0.43-1.13,0.76
		c-0.66,0.69-1.14,1.58-1.38,2.49C6.58,70.96,6.66,71.99,7.28,72.39z"/>
	<path class="st0" d="M66.79,81.51c-0.91-0.31-1.92-0.52-2.91-0.73c-2-0.41-4.04-0.68-6.07-0.94c-2.03-0.25-4.09-0.45-6.1-0.51
		c-1.01-0.03-1.94,0-2.84,0.22c-0.25,0.05-0.51,0.13-0.77,0.21c1.23,0.05,2.39,0.22,3.57,0.39c1.25,0.18,2.49,0.39,3.73,0.61
		c2.48,0.45,4.93,0.96,7.37,1.52c2.44,0.57,4.87,1.29,7.35,1.69c2.48,0.42,4.99,0.63,7.5,0.64c0.74,0,1.49-0.02,2.22-0.06
		c-1.31-0.24-2.62-0.51-3.93-0.77c-2.04-0.41-4.06-0.88-6.08-1.39C68.82,82.13,67.81,81.87,66.79,81.51z"/>
	<path class="st3" d="M9.38,81.87c0.96,0.15,1.96,0.31,2.91,0.43l0.21-0.02l0.12-0.02c3.21,0.24,6.38,0.65,9.53,1.34
		c3.09,0.88,6.21,1.23,9.4,1.32c3.17,0.1,6.35,0.02,9.53-0.14l1.19-0.07c0.42-0.01,0.84-0.03,1.25-0.02
		c0.83,0.02,1.65,0.08,2.46,0.18c1.62,0.2,3.22,0.49,4.79,0.87c3.15,0.76,6.22,1.69,9.23,3.08c0.36,0.17,0.82,0.44,1.05,0.55
		c0.3,0.14,0.66,0.26,1.01,0.38c0.72,0.23,1.48,0.41,2.25,0.57c1.53,0.33,3.1,0.59,4.67,0.84c3.14,0.51,6.3,0.88,9.47,1.45
		c1.52,0.3,3.11,0.37,4.72,0.54c0.8,0.09,1.61,0.22,2.39,0.46c0.49,0.16,0.97,0.37,1.41,0.63c0.03,0,0.06,0.02,0.07,0.04
		c0.18,0.11,0.35,0.22,0.51,0.34c0.59-0.37,1.28-0.59,2.06-0.56c0.24,0.02,0.49,0.06,0.74,0.18c0.02,0.01,0.05,0.03,0.07,0.04
		c0.22-0.08,0.43-0.17,0.65-0.27c0.29-0.12,0.54-0.23,0.75-0.38c0.43-0.29,0.76-0.67,0.96-1.12c0.41-0.9,0.36-2.05,0.12-3.14
		c-0.26-1.08-0.71-2.21-1.33-3c-0.13-0.16-0.27-0.31-0.33-0.35c-0.02,0-0.05,0-0.06,0L90.7,86l-1.86-0.13
		c-1.24-0.09-2.47-0.14-3.7-0.15c-0.61,0-1.23,0.01-1.83,0.05c-0.31,0.01-0.6,0.04-0.91,0.06c-0.3,0.03-0.57,0.07-0.95,0.08
		c-1.39,0.08-2.63-0.11-3.9-0.27c-2.52-0.37-5-0.78-7.51-1.07c-2.5-0.3-5.04-0.41-7.55-0.76c-1.25-0.17-2.51-0.41-3.73-0.71
		c-1.23-0.29-2.45-0.59-3.67-0.93c-2.43-0.66-4.86-1.43-7.21-2.25l-0.03-0.01c-0.03-0.01-0.04-0.03-0.05-0.06
		c-0.57,0.19-1.18,0.42-1.9,0.58c-0.58,0.13-1.2,0.18-1.8,0.15c-0.6-0.03-1.17-0.14-1.72-0.26c-1.11-0.27-2.17-0.71-3.13-1.26
		c-0.55-0.31-1.06-0.64-1.56-0.99c-0.06,0-0.13,0.01-0.19,0.01c-0.58,0.04-1.16,0.06-1.73,0.06c-1.15,0.01-2.31-0.04-3.46-0.13
		c-1.16-0.09-2.31-0.24-3.47-0.47c-0.59-0.12-1.16-0.27-1.78-0.5l-0.42-0.16c-0.08-0.03-0.2-0.07-0.31-0.1
		c-0.24-0.07-0.5-0.12-0.76-0.18c-2.13-0.45-4.4-0.81-6.63-1.16c-1.12-0.17-2.24-0.35-3.37-0.54l-3.37-0.59
		c-2.25-0.37-4.53-0.62-6.78-0.59l-0.14,0.01L5.12,74c-0.14,0.26-0.29,0.52-0.46,0.77c-0.33,0.51-0.72,0.98-1.15,1.41
		c-0.43,0.44-0.9,0.82-1.4,1.17c-0.19,0.14-0.31,0.25-0.37,0.36C1.69,77.82,1.68,77.88,1.69,78c0.01,0.24,0.25,0.65,0.54,1.02
		c0.3,0.38,0.68,0.73,1.09,1.05c0.4,0.32,0.84,0.64,1.26,0.84c0.36,0.16,0.95,0.28,1.48,0.4C7.14,81.52,8.26,81.7,9.38,81.87z"/>
	<path class="st0" d="M22.07,91.37l2.83,0.44l5.69,0.83L42,94.29L53.4,96l11.39,1.76c6.92,1.1,13.85,2.21,20.76,3.42
		c0-0.01,0-0.02,0-0.02c0.01-0.02,0.04-0.03,0.06-0.03c0.24,0.02,0.48,0.06,0.71,0.09c-0.33-0.22-0.62-0.51-0.82-0.88
		c-0.37-0.68-0.45-1.48-0.33-2.2c0.11-0.73,0.41-1.38,0.79-1.95c0.33-0.47,0.71-0.9,1.19-1.24c-0.11-0.12-0.2-0.26-0.24-0.42
		c-1.17-0.56-2.49-0.72-3.79-0.77c-1.58-0.06-3.19,0.01-4.82-0.21c-1.56-0.2-3.16-0.33-4.74-0.49c-1.59-0.16-3.18-0.32-4.77-0.51
		c-1.59-0.19-3.18-0.42-4.78-0.72c-0.8-0.15-1.6-0.32-2.4-0.55c-0.41-0.12-0.81-0.24-1.23-0.44c-0.49-0.24-0.72-0.38-1.08-0.55
		c-1.38-0.64-2.88-1.16-4.37-1.63c-1.5-0.46-3.02-0.91-4.54-1.27c-1.53-0.36-3.06-0.71-4.61-0.93c-0.77-0.11-1.54-0.2-2.31-0.26
		c-0.38-0.03-0.76-0.02-1.14-0.04l-1.2,0.01c-3.21,0.01-6.42-0.07-9.62-0.34c-1.6-0.14-3.2-0.32-4.79-0.57
		c-1.59-0.23-3.17-0.69-4.69-1.06c-1.54-0.37-3.11-0.64-4.68-0.84c-1.56-0.21-3.14-0.36-4.71-0.43c-0.03,0.01-0.07,0.02-0.1,0.02
		l-0.14,0.02l-0.27,0.03l-0.53,0.05l-1.05,0.09l-2.1,0.16c-1.32,0.08-2.63,0.17-3.98,0.16c-0.49,0.6-0.79,1.39-0.96,2.2
		c-0.19,0.88-0.25,1.81-0.2,2.7c0.01,0.11,0.02,0.22,0.03,0.33l0.19,0.03c0.46,0.06,0.94,0.11,1.41,0.16l2.86,0.29
		c1.91,0.2,3.83,0.41,5.74,0.65c1.92,0.25,3.82,0.51,5.79,1C20.2,91.07,21.12,91.2,22.07,91.37z"/>
	<path class="st3" d="M23.86,109.83l-0.02,0.01c0.02,0,0.03,0,0.05-0.01C23.92,109.81,23.88,109.82,23.86,109.83z"/>
	<path class="st1" d="M120.27,122c-1.21-0.32-2.44-0.58-3.7-1.15l-2.9-1.3l3.19,0.1c1.61,0.05,3.24-0.06,4.82-0.36
		c0.47-0.09,0.94-0.21,1.4-0.34c-1.6-0.12-3.19-0.27-4.78-0.47c-1.66-0.24-3.32-0.45-4.97-1.04l-0.23-0.08c-0.02,0-0.04,0-0.06-0.01
		c-1.5-0.19-2.99-0.4-4.47-0.68c-0.03-0.01-0.06-0.04-0.05-0.07c0.01-0.03,0.04-0.05,0.07-0.05c1.29,0.07,2.57,0.13,3.86,0.16
		l1-0.09c2.79-0.24,5.59-0.47,8.33-0.95c1.36-0.25,2.74-0.54,3.96-1.11c0.3-0.14,0.59-0.31,0.83-0.51l0.03-0.03
		c-0.01,0-0.02,0-0.03,0.01c-0.69,0.15-1.38,0.3-2.08,0.41c-2.78,0.48-5.61,0.68-8.42,0.7c-0.49,0-0.98-0.01-1.47-0.02
		c-1.3,0.13-2.61,0.21-3.91,0.23c-0.78,0.01-1.55,0-2.33-0.01c-0.46,0.16-0.89,0.37-1.24,0.65c-0.32,0.25-0.52,0.57-0.53,0.87
		c-0.01,0.22-0.02,0.44-0.01,0.66c0.61-0.03,1.19-0.01,1.78,0.07c0.67,0.11,1.25,0.22,1.89,0.31l3.77,0.54l-3.81-0.12l-0.95-0.04
		c-0.33-0.02-0.64-0.04-0.94-0.03c-0.56,0.01-1.13,0.09-1.67,0.2c0.1,0.73,0.28,1.42,0.54,2.04c0.12,0.3,0.28,0.58,0.45,0.83
		c1.3-0.18,2.59-0.15,3.85,0c1.37,0.17,2.71,0.44,4.02,0.82c-1.34-0.23-2.7-0.35-4.05-0.35c-1.06,0-2.12,0.09-3.14,0.3
		c0.05,0.04,0.1,0.1,0.15,0.14l0.96,0.74c1.47,0.05,2.95,0.15,4.42,0.34c0.95,0.12,1.92,0.23,2.88,0.42
		c2.08-0.07,4.19-0.18,6.31-0.04c-0.19-0.05-0.38-0.1-0.56-0.14c-1.39-0.32-2.79-0.58-4.21-0.8c1.43,0.06,2.86,0.17,4.29,0.34
		c0.71,0.09,1.43,0.19,2.15,0.33c0.08,0.02,0.16,0.04,0.25,0.06c-0.37-0.17-0.75-0.32-1.14-0.46
		C122.69,122.59,121.49,122.3,120.27,122z"/>
	<path class="st3" d="M41.99,69.31c0.63,0.24,1.27,0.47,1.91,0.69l6,0.93c2.23,0.47,4.41,1,6.59,1.53c2.19,0.52,4.37,1.04,6.55,1.54
		c2.84,0.64,5.69,1.25,8.56,1.74c1.91-0.22,3.79-0.22,5.65-0.13c0.54,0.04,1.05,0.07,1.59,0.14c0.39,0.04,0.77,0.09,1.15,0.14
		c-0.13-0.11-0.25-0.22-0.35-0.35c-0.7-0.82-1.04-1.85-1.07-2.9c-0.01-1,0.17-2.07,0.79-2.96c0.15-0.22,0.33-0.42,0.54-0.6
		c-5.51-0.29-11.01-0.66-16.49-1.03l-2.3-0.14c-0.79-0.05-1.57-0.11-2.35-0.22c-1.55-0.2-3.09-0.46-4.6-0.7
		c-3.19-0.32-6.02-1.89-8.97-2.27l-0.58-0.02c-0.22-0.03-0.42-0.07-0.62-0.13c-0.39-0.11-0.76-0.23-1.13-0.37
		c-0.73-0.27-1.45-0.57-2.16-0.87l-4.26-1.83c-1.42-0.59-2.84-1.21-4.28-1.71c-0.36-0.12-0.72-0.24-1.08-0.34
		c-0.18-0.05-0.36-0.09-0.53-0.13c-0.2-0.04-0.41-0.09-0.6-0.15c-0.77-0.23-1.49-0.5-2.22-0.78c-2.9-1.12-5.75-2.33-8.56-3.61
		c-1.41-0.64-2.81-1.28-4.21-1.94l-2.09-1.01l-1.04-0.52c-0.22-0.11-0.42-0.21-0.63-0.32c-0.61,0.31-1.26,0.81-1.69,1.34
		c-0.26,0.3-0.43,0.66-0.43,0.83c0,0.08,0.01,0.09,0.03,0.13c0.02,0.04,0.1,0.11,0.23,0.19c0.06,0.04,0.14,0.07,0.22,0.11l0.36,0.16
		l0.71,0.33c0.47,0.22,0.92,0.45,1.38,0.68l2.71,1.39l5.38,2.81l2.69,1.38c0.89,0.45,1.8,0.91,2.67,1.26
		c1.93,0.76,3.77,1.62,5.6,2.48c1.84,0.86,3.66,1.75,5.48,2.66l2.72,1.35c0.45,0.22,0.91,0.46,1.35,0.65
		C41.06,68.94,41.52,69.14,41.99,69.31z"/>
	<path class="st3" d="M124.55,119.04L124.55,119.04C124.57,119.04,124.59,119.04,124.55,119.04z"/>
	<path class="st3" d="M105.75,116.71c0.14-0.59,0.58-0.99,0.98-1.25c0.04-0.02,0.07-0.04,0.11-0.06c-0.01,0-0.02,0-0.03,0.01
		c-0.2,0.03-0.39,0.05-0.58,0.07c-0.37,0.04-0.73,0.06-1.09,0.08c-1.44,0.08-2.86,0.04-4.28-0.11c-1.42-0.13-2.82-0.3-4.23-0.54
		c-0.53-0.09-1.07-0.19-1.6-0.29c-0.15-0.01-0.31-0.03-0.46-0.04c-0.84-0.07-1.67-0.11-2.51-0.15c-1.68-0.07-3.36-0.11-5.04-0.16
		l-10.1-0.22l-5.06-0.15c-1.71-0.08-3.34-0.13-5.03-0.16c-1.68-0.03-3.37-0.07-5.07-0.15c-1.7-0.08-3.4-0.19-5.13-0.44
		c-0.86-0.11-1.73-0.31-2.61-0.56l-0.67-0.23c-0.23-0.07-0.3-0.11-0.5-0.16c-0.35-0.09-0.75-0.17-1.14-0.24
		c-1.6-0.28-3.27-0.44-4.93-0.62c-3.33-0.34-6.68-0.58-10.03-0.8c-3.35-0.2-6.71-0.4-10.07-0.57c-0.84-0.04-1.68-0.08-2.5-0.1
		l-0.3,0l-0.06,0l-0.04,0.01l-0.54,0.19c-0.35,0.15-0.69,0.31-1.01,0.51c-0.64,0.39-1.19,0.91-1.6,1.54c-0.21,0.31-0.38,0.65-0.52,1
		c-0.07,0.18-0.13,0.36-0.18,0.54c-0.03,0.09-0.05,0.18-0.07,0.28l-0.03,0.15l-0.01,0.04l0.3,1.1c0.12,0.41,0.22,0.86,0.36,1.16
		c0.3,0.66,0.9,1.18,1.61,1.39c0.18,0.05,0.36,0.09,0.55,0.1l0.64,0.03l1.3,0.07l2.6,0.13l10.39,0.51c1.73,0.11,3.46,0.19,5.2,0.36
		c1.73,0.18,3.43,0.3,5.16,0.34c3.45,0.11,6.9,0.07,10.36-0.01c3.46-0.06,6.92-0.13,10.39-0.13c1.74,0.01,3.47,0.01,5.22,0.08
		c1.76,0.05,3.51,0.24,5.23,0.42c5.45,0.59,10.88,1.33,16.29,2.17c0.26,0.02,0.52,0.03,0.78,0.04c0.09,0,0.17,0,0.25,0l0.29-0.04
		c0.18-0.02,0.36-0.04,0.54-0.05c0.72-0.06,1.44-0.09,2.15-0.1c1.43-0.03,2.85,0.01,4.26,0.06c0.71,0.03,1.41,0.08,2.11,0.12
		l0.14,0.01c-0.13-0.28-0.25-0.57-0.33-0.87c-0.29-0.98-0.28-1.97-0.16-2.91C105.53,117.62,105.62,117.16,105.75,116.71z"/>
	<path class="st2" d="M114.86,53.41c-0.22,0.5-0.52,1.06-1,1.46c-0.48,0.41-1.06,0.6-1.61,0.7c-0.12,0.02-0.25,0.04-0.37,0.05
		c0.1,0.48,0.08,0.93,0.06,1.35c-0.08,0.95,0.07,1.95,0.28,3c0,0,0,0.01,0,0.02c0.32-0.22,0.71-0.32,1.07-0.38
		c0.48-0.08,0.96-0.09,1.43-0.07c0.72,0.04,1.41,0.14,2.09,0.26c0.11-0.21,0.2-0.41,0.28-0.62c0.13-0.36,0.24-0.72,0.33-1.09
		c0.1-0.36,0.23-0.72,0.31-1.1c0.07-0.37,0.15-0.75,0.17-1.13c0.01-0.39-0.14-0.81-0.42-1.12c-0.28-0.32-0.71-0.49-1.05-0.7
		c-0.5-0.34-0.9-0.72-1.37-1.13C115,53.09,114.93,53.25,114.86,53.41z"/>
	<path class="st1" d="M121.44,68.38c-0.62,0.37-1.25,0.33-1.68,0.3c-0.46-0.02-0.92-0.06-1.38-0.12c-0.77-0.1-1.53-0.24-2.29-0.45
		c0.23,0.48,0.45,0.96,0.62,1.47c0.17,0.51,0.28,1.07,0.16,1.65c-0.2,0.72-0.49,1.33-0.87,1.9c0.03,0.01,0.06,0.01,0.09,0.01
		c0.69,0.14,1.36,0.41,1.97,0.74c0.61,0.34,1.19,0.77,1.58,1.38c0.03,0.05,0.05,0.1,0.08,0.15c0.76-0.48,1.35-1.01,1.93-1.55
		c0.3-0.28,0.62-0.54,0.87-0.85c0.25-0.32,0.48-0.61,0.65-1.01c0.17-0.41,0.22-0.88,0.14-1.33c-0.08-0.45-0.35-0.87-0.53-1.29
		c-0.3-0.79-0.35-1.62-0.51-2.46c-0.02,0.2-0.07,0.41-0.17,0.64C122,67.88,121.74,68.18,121.44,68.38z"/>
	<path class="st1" d="M115.92,60.78c-0.45-0.09-0.88-0.17-1.32-0.27c-0.43-0.09-0.86-0.17-1.29-0.23c-0.35-0.04-0.69-0.07-1.04-0.01
		c0.08,0.44,0.16,0.89,0.21,1.38c0.04,0.58,0.1,1.29-0.3,2.03c-0.1,0.18-0.22,0.35-0.38,0.48l-0.23,0.2l-0.25,0.14
		c-0.17,0.1-0.34,0.17-0.5,0.21c-0.16,0.04-0.34,0.1-0.48,0.12c-0.27,0.05-0.52,0.1-0.79,0.15c0.08,0.07,0.17,0.14,0.25,0.21
		c0.15,0.12,0.27,0.25,0.4,0.38c0.07,0.07,0.12,0.11,0.2,0.21c0.09,0.11,0.18,0.25,0.24,0.4c0.09,0.22,0.1,0.47,0.07,0.69
		c0.74-0.65,1.72-1.12,2.87-1.01c0.61,0.08,1.25,0.38,1.64,0.86c0.28,0.33,0.5,0.71,0.7,1.09c0.83-0.11,1.65-0.18,2.46-0.25
		l1.35-0.11l0.33-0.03l0.26-0.04c0.08-0.02,0.14-0.05,0.22-0.06c0.07-0.02,0.1-0.06,0.15-0.08c0.06-0.07,0.12-0.1,0.17-0.22
		c0.06-0.1,0.09-0.28,0.12-0.46c0.06-0.38,0.06-0.84,0.12-1.33c0.06-0.48,0.16-1.02,0.47-1.5c0.18-0.23,0.23-0.54,0.1-0.92
		c-0.25-0.76-0.99-1.41-1.77-1.77c-0.4-0.17-0.84-0.28-1.22-0.24c-0.1,0.01-0.15,0.04-0.26,0.06c-0.13,0.03-0.28,0.06-0.4,0.07
		c-0.26,0.03-0.5,0.03-0.74,0.02C116.81,60.94,116.36,60.88,115.92,60.78z"/>
	<path class="st1" d="M117.86,74.34c-0.6-0.2-1.25-0.21-1.87-0.2l-0.77,0.02l-0.06,0.07l-0.27,0.04c-0.09,0.01-0.18,0.02-0.27,0.03
		c-0.07,0.03-0.13,0.05-0.2,0.09c-0.85,0.5-1.63,1.33-2.46,2.13c0.16,0.1,0.32,0.22,0.46,0.39c0.09,0.1,0.15,0.24,0.21,0.36
		c0.07,0.14,0.06,0.2,0.1,0.3c0.19,0.74,0.21,1.53,0.31,2.27c0.07,0.73,0.21,1.45,0.06,2.25c1.03,0.26,2.05,0.38,2.98,0.21
		c0.54-0.09,1.04-0.29,1.5-0.56c0.23-0.13,0.44-0.3,0.64-0.46c0.2-0.16,0.41-0.37,0.53-0.52l0.39-0.26
		c-0.06,0.01-0.11,0.04-0.17,0.07c-0.03,0.02-0.05,0.03-0.07,0.05l-0.02,0.02c-0.02,0.02-0.06,0.06-0.06,0.06
		c-0.01,0.02-0.02,0.03-0.02,0.03c0,0.01,0-0.01,0.02-0.03c0,0,0,0,0,0c0,0,0.01-0.01,0.01-0.01c0.02-0.04,0.05-0.11,0.07-0.17
		c0.05-0.13,0.09-0.27,0.14-0.42c0.08-0.29,0.15-0.59,0.21-0.9c0.11-0.62,0.18-1.24,0.24-1.88c0.03-0.64,0.08-1.29-0.2-1.83
		C118.99,74.94,118.47,74.53,117.86,74.34z"/>
	<path class="st1" d="M108.12,50.71c0.03,0.88,0.28,1.77,0.79,2.5c0.09,0.13,0.19,0.24,0.3,0.35c0.17,0.02,0.34,0.04,0.52,0.06
		c0.17,0.03,0.34,0.08,0.51,0.13c0.18,0.08,0.36,0.13,0.53,0.25c0.18,0.12,0.35,0.23,0.49,0.4c0.16,0.15,0.27,0.33,0.37,0.51
		c0.06,0.11,0.1,0.22,0.14,0.33c0.64-0.16,1.23-0.41,1.62-0.86c0.61-0.69,0.71-1.8,1.18-2.86c0.11-0.27,0.24-0.53,0.39-0.79
		c0.17-0.28,0.28-0.44,0.34-0.62c0.13-0.36,0.07-0.63-0.15-0.95c-0.48-0.63-1.42-1.16-2.35-1.63c-0.48-0.24-0.96-0.47-1.49-0.78
		c0.02-0.01-0.19-0.05-0.43-0.08c-0.24-0.02-0.49-0.04-0.75-0.05c-0.1,0-0.21,0-0.32-0.01c-0.56,0.36-0.99,0.84-1.24,1.39
		C108.19,48.83,108.1,49.77,108.12,50.71z"/>
	<path class="st3" d="M19.85,53.42c2.76,1.36,5.5,2.77,8.29,4.04c0.7,0.31,1.4,0.62,2.1,0.86c0.18,0.06,0.34,0.11,0.51,0.16
		c0.21,0.05,0.4,0.11,0.59,0.17c0.38,0.13,0.74,0.27,1.11,0.42c1.44,0.6,2.85,1.24,4.25,1.88c1.41,0.63,2.81,1.27,4.23,1.86
		c0.26,0.11,0.52,0.21,0.78,0.31c-0.24-0.14-0.48-0.29-0.72-0.44c-0.47-0.32-0.92-0.71-1.37-1.1c-0.47-0.37-0.88-0.82-1.28-1.3
		c-0.41-0.47-0.86-0.87-1.4-1.13c-0.54-0.26-1.21-0.32-1.78-0.53c-0.57-0.21-1.04-0.58-1.5-0.95c-0.45-0.38-0.88-0.84-1.23-1.32
		c0,0-0.01-0.01-0.01-0.01c-0.02-0.01-0.02-0.03-0.03-0.05l-0.02-0.03c-0.03-0.04-0.02-0.08,0.02-0.11
		c0.01-0.01,0.02-0.01,0.03-0.01c0.42-0.1,0.73-0.04,1.06,0.01c0.32,0.05,0.63,0.14,0.92,0.24c0.48,0.18,0.95,0.39,1.36,0.69
		c0.62,0.2,1.24,0.4,1.85,0.62c0.83,0.28,1.66,0.59,2.48,0.89c0.83,0.29,1.64,0.62,2.44,0.97c1.6,0.68,3.18,1.56,4.87,1.85
		c1.73,0.22,3.53,0.26,5.3,0.26c1.78-0.01,3.57,0.05,5.34,0.24c1.78,0.17,3.55,0.35,5.34,0.78c0.44,0.1,0.9,0.23,1.35,0.38
		c0.23,0.08,0.47,0.18,0.7,0.27c0.22,0.09,0.41,0.2,0.62,0.29c0.81,0.39,1.59,0.81,2.37,1.25c1.17,0.66,2.33,1.35,3.46,2.11
		c3.38,0.29,6.75,0.63,10.13,0.99l-0.05,0c0.27,0.02,0.37,0.06,0.52,0.1c0.14,0.04,0.27,0.08,0.39,0.13
		c0.25,0.09,0.49,0.2,0.73,0.31c0.36,0.18,0.71,0.38,1.05,0.6c1.5-0.24,2.99-0.22,4.46-0.2c0.55,0.01,1.09,0.04,1.63,0.06
		c-0.41-0.65-0.62-1.41-0.62-2.17c0-0.98,0.19-2.04,0.82-2.91c0.07-0.11,0.15-0.21,0.24-0.3c0,0-0.01,0-0.01,0l-5.46-0.97
		c-1.81-0.32-3.62-0.63-5.42-0.97c-0.9-0.16-1.81-0.31-2.71-0.44c-0.88-0.11-1.88-0.25-2.78-0.46c-3.62-0.9-7.15-1.93-10.76-2.76
		c-1.79-0.43-3.6-0.79-5.41-1.12c-0.9-0.17-1.81-0.31-2.71-0.41c-0.45-0.06-0.89-0.09-1.33-0.11c-0.43-0.03-0.94-0.03-1.4-0.07
		c-3.74-0.29-7.39-0.92-11.04-1.62c-1.82-0.36-3.64-0.73-5.45-1.19c-1.81-0.45-3.6-0.93-5.4-1.59c-0.89-0.33-1.78-0.7-2.64-1.13
		c-0.85-0.43-1.68-0.93-2.45-1.39c-0.78-0.46-1.48-0.8-2.27-0.94c-0.4-0.07-0.79-0.09-1.25-0.1l-1.4-0.03
		c-1.86-0.08-3.71-0.22-5.55-0.37c-0.46-0.03-0.92-0.08-1.38-0.13c-0.15-0.02-0.14-0.02-0.2-0.01c-0.05,0.01-0.1,0.04-0.14,0.07
		c-0.09,0.08-0.09,0.17-0.09,0.44c-0.01,0.68-0.02,1.36-0.04,2.05l1.86,0.95L19.85,53.42z"/>
	<path class="st3" d="M29.57,49.13l0.25,0c0.82,0,1.65-0.01,2.47-0.02l4.95-0.06c0.83-0.01,1.63-0.05,2.51-0.03
		c0.86,0.03,1.71,0.12,2.54,0.22c1.67,0.21,3.26,0.51,4.86,0.62c0.8,0.05,1.59,0.08,2.38,0.07c0.4-0.01,0.79-0.02,1.19-0.04
		c0.41-0.03,0.77-0.06,1.22-0.08c1.76-0.11,3.43,0.01,5.1,0.16c1.67,0.14,3.32,0.37,4.96,0.61c1.64,0.24,3.28,0.5,4.91,0.77
		c3.26,0.52,6.53,1.2,9.73,1.75c1.57,0.21,3.25,0.3,4.89,0.4c1.65,0.1,3.3,0.2,4.95,0.25c3.3,0.11,6.6,0.15,9.91,0.07l9.91-0.3
		l0.03,0l0.07,0.01c0.45,0.05,0.93,0.03,1.45,0.01c-0.64-0.79-0.98-1.8-0.98-2.81c0-1.08,0.21-2.24,0.89-3.2
		c0.26-0.38,0.6-0.69,0.98-0.92c-0.6,0-1.2,0.01-1.8,0.02c-2.15,0.02-4.31,0.12-6.47,0.17c-4.32,0.14-8.66,0.18-13,0.26
		c-2.17,0.01-4.34,0.02-6.53-0.06c-0.54-0.03-1.12-0.07-1.66-0.13l-1.61-0.15l-3.24-0.24c-2.17-0.16-4.33-0.3-6.5-0.51
		c-1.08-0.11-2.17-0.24-3.25-0.45c-0.27-0.05-0.54-0.11-0.81-0.18c-0.27-0.07-0.54-0.13-0.81-0.22l-0.4-0.13l-0.35-0.1
		c-0.25-0.05-0.5-0.11-0.77-0.15c-4.24-0.54-8.61-0.46-12.92-0.67c-4.32-0.2-8.64-0.45-12.97-0.73l-3.24-0.22l-1.62-0.12l-0.81-0.06
		l-0.03,0c-0.02,0.05-0.05,0.11-0.07,0.17c-0.3,0.96-0.46,2.05-0.57,3.1c-0.06,0.53-0.09,1.06-0.1,1.59c0,0.4,0,0.83,0.08,1.22
		C29.37,49.04,29.47,49.09,29.57,49.13z"/>
	<path class="st3" d="M29.99,42.81C29.99,42.81,29.99,42.82,29.99,42.81C29.99,42.82,29.99,42.82,29.99,42.81
		C30.01,42.8,30,42.8,29.99,42.81z"/>
	<path class="st0" d="M65.31,65.32L64.7,65.1l-0.55-0.17c-0.4-0.09-0.8-0.2-1.22-0.28c-1.67-0.34-3.4-0.67-5.13-0.98
		c-1.73-0.28-3.47-0.62-5.21-0.98c-1.74-0.36-3.48-0.58-5.27-0.69c-1.72-0.19-3.41-0.48-5.06-0.91c0.46,0.39,0.88,0.82,1.24,1.32
		c0.33,0.47,0.64,0.97,0.81,1.56c0.12,0.02,0.25,0.05,0.36,0.06c0.11,0,0.38-0.01,0.58,0c0.82,0.05,1.58,0.23,2.35,0.39
		c0.76,0.17,1.51,0.36,2.26,0.54c0.75,0.18,1.5,0.37,2.23,0.52c0.37,0.08,0.73,0.13,1.07,0.16l1.17,0.1
		c1.54,0.15,3.07,0.31,4.59,0.41c0.76,0.05,1.52,0.1,2.27,0.12c0.75,0.01,1.57,0.03,2.33,0.08c1.94,0.12,3.88,0.26,5.81,0.41
		c-0.52-0.18-1.04-0.37-1.56-0.55L65.31,65.32z"/>
	<path class="st4" d="M19.58,92.73c0.26,0.07,0.49,0.11,0.74,0.16l1.44,0.28l2.85,0.5l5.7,0.93c3.8,0.61,7.6,1.15,11.41,1.69
		c7.61,1.06,15.24,2.01,22.87,2.94c7.19,0.85,14.38,1.66,21.59,2.36c1.22,0.67,2.52,1.15,3.91,1.44l0.31,0.05
		c0.12,0.01,0.26,0.03,0.4,0.02c0.27,0,0.55-0.06,0.8-0.16c0.51-0.2,0.88-0.56,1.17-0.91c0.24-0.31,0.42-0.63,0.57-0.96
		c0,0.01,0,0.02,0,0.04c0.06,0.44,0.18,0.87,0.46,1.31c0.27,0.44,0.77,0.8,1.25,0.94c0.48,0.15,0.94,0.17,1.37,0.17
		c0.43-0.01,0.84-0.05,1.23-0.12c0.8-0.15,1.54-0.33,2.36-0.55c0.2-0.06,0.41-0.13,0.61-0.27c0.21-0.12,0.37-0.43,0.34-0.67
		c-0.05-0.46-0.2-0.81-0.22-1.18c-0.03-0.36,0.04-0.7,0.18-0.98c0.03-0.05,0.09-0.18,0.13-0.29c0.04-0.11,0.07-0.23,0.09-0.35
		c0.04-0.24,0.04-0.48,0.01-0.72c-0.15-0.95-0.72-1.68-1.32-2.25c-0.29-0.26-0.6-0.48-0.94-0.68c0.59-0.04,1.18-0.13,1.83-0.3
		c0.27-0.09,0.55-0.18,0.84-0.36c0.28-0.17,0.57-0.45,0.73-0.79c0.16-0.32,0.18-0.65,0.16-0.93c0.26,0.14,0.52,0.27,0.78,0.4
		c0.33,0.15,0.66,0.3,1.01,0.42c0.17,0.06,0.35,0.12,0.53,0.18c0.09,0.03,0.19,0.05,0.28,0.08c0.11,0.03,0.27,0.05,0.4,0.05
		c1.02-0.04,1.7-0.54,2.28-1.09c0.56-0.57,1.02-1.24,1.22-1.99c0.21-0.75,0.22-1.51,0.21-2.23c0-0.75-0.24-1.52-0.6-2.2
		c-0.36-0.7-0.97-1.19-1.62-1.56c-0.42-0.23-0.89-0.43-1.38-0.51c0.01-0.01,0.02-0.01,0.02-0.02c0.36-0.31,0.65-0.66,0.89-1.04
		c0.23,0.5,0.52,0.97,0.91,1.41c0.27,0.3,0.6,0.59,1.03,0.79c0.43,0.22,1.05,0.27,1.53,0.1c0.48-0.16,0.86-0.43,1.16-0.72
		c0.3-0.29,0.56-0.59,0.79-0.9c0.23-0.3,0.45-0.6,0.65-0.91c0.15-0.21,0.36-0.54,0.48-0.88c0.37,0.25,0.77,0.46,1.19,0.63
		c0.61,0.24,1.28,0.37,1.97,0.35c0.69-0.02,1.39-0.18,2.01-0.51c0.6-0.3,1.09-0.68,1.54-1.23l0.03-0.03
		c0.04-0.03,0.09-0.09,0.1-0.11c0.04-0.05,0.07-0.1,0.08-0.13c0.04-0.07,0.06-0.13,0.08-0.18c0.04-0.11,0.07-0.2,0.1-0.29
		c0.05-0.18,0.09-0.36,0.13-0.54c0.07-0.35,0.11-0.7,0.14-1.04c0.06-0.69,0.03-1.39-0.09-2.07c-0.06-0.34-0.13-0.67-0.22-1.01
		c-0.05-0.19-0.12-0.38-0.21-0.56c0.43,0.08,0.87,0.01,1.28-0.1c0.5-0.15,0.96-0.39,1.38-0.7c0.41-0.32,0.74-0.75,1-1.22
		c0.27-0.46,0.41-1.05,0.34-1.58c-0.06-0.52-0.14-0.98-0.14-1.46c0-0.48,0.12-0.98,0.1-1.47c-0.02-0.49-0.2-0.95-0.42-1.4
		c-0.12-0.22-0.25-0.44-0.42-0.63c-0.17-0.19-0.36-0.4-0.65-0.49c-0.01,0-0.01,0-0.02,0c0.03-0.49-0.01-0.92,0-1.32
		c0-0.42,0.05-0.79,0.17-1.12c0.05-0.14,0.1-0.3,0.13-0.45c0.01-0.16,0.01-0.31,0-0.46c-0.04-0.14-0.06-0.29-0.12-0.42
		c-0.06-0.12-0.12-0.25-0.19-0.36c-0.28-0.45-0.66-0.76-1.03-1.05c-0.37-0.29-0.77-0.54-1.18-0.78c-0.41-0.23-0.83-0.46-1.36-0.58
		c-0.13-0.03-0.31-0.03-0.42-0.04c-0.09-0.01-0.17-0.01-0.28-0.04c-0.12-0.02-0.26-0.05-0.39-0.08c0.09-0.07,0.17-0.14,0.25-0.21
		c0.36-0.35,0.62-0.78,0.8-1.22c0.17-0.45,0.22-0.94,0.22-1.42c0.01-0.48-0.1-0.98-0.35-1.42c-0.25-0.44-0.53-0.78-0.75-1.17
		c-0.23-0.38-0.38-0.85-0.67-1.23c-0.29-0.38-0.7-0.63-1.14-0.81c-0.21-0.08-0.43-0.14-0.66-0.17c0.05-0.11,0.1-0.22,0.16-0.33
		c0.12-0.22,0.25-0.43,0.39-0.63c0.13-0.17,0.35-0.44,0.5-0.76c0.15-0.31,0.25-0.7,0.22-1.08c-0.02-0.39-0.16-0.75-0.34-1.05
		c-0.36-0.6-0.83-1.01-1.3-1.36c-0.47-0.35-0.96-0.65-1.43-0.93c-0.47-0.28-0.95-0.55-1.34-0.81l-0.04-0.02l-0.07-0.05
		c-0.07-0.04-0.18-0.1-0.22-0.11c-0.12-0.04-0.22-0.08-0.3-0.09c-0.18-0.05-0.33-0.07-0.48-0.1c-0.3-0.05-0.58-0.08-0.87-0.1
		c-1.12-0.1-2.21-0.13-3.31-0.16c-2.18-0.02-4.36-0.02-6.53,0.04c-4.34,0.1-8.67,0.39-12.99,0.56c-2.16,0.11-4.32,0.23-6.47,0.28
		c-0.54,0.02-1.05,0.02-1.59,0.01l-1.64-0.02l-3.26,0c-2.17,0-4.33-0.02-6.48-0.22c-1.07-0.09-2.14-0.23-3.18-0.46
		c-0.26-0.05-0.52-0.11-0.77-0.19c-0.26-0.06-0.51-0.14-0.75-0.24l-0.36-0.14l-0.42-0.15c-0.27-0.07-0.55-0.15-0.82-0.2
		c-2.16-0.46-4.32-0.73-6.48-0.99c-2.16-0.26-4.32-0.48-6.49-0.63c-4.33-0.27-8.67-0.37-13.01-0.39c-1.08,0-2.17-0.01-3.25,0.01
		l-1.63,0.02l-0.81,0.02l-0.2,0.01c0.01,0-0.05,0-0.11,0.01c-0.06,0.01-0.1,0.03-0.14,0.05c-0.08,0.04-0.12,0.08-0.16,0.12
		c-0.07,0.07-0.09,0.12-0.12,0.17c-0.1,0.19-0.13,0.33-0.17,0.47c-0.25,1.13-0.29,2.2-0.32,3.29c-0.01,0.54,0,1.09,0.05,1.64
		c0.04,0.35,0.08,0.71,0.18,1.07c-0.65-0.31-1.3-0.64-1.96-1c-0.41-0.22-0.87-0.44-1.35-0.62c-0.49-0.18-1.01-0.3-1.53-0.37
		c-0.51-0.06-1.05-0.05-1.51-0.02l-1.37,0.06c-1.83,0.08-3.68,0.12-5.52,0.14l-1.38,0.02c-0.08,0-0.33,0-0.48,0.08
		c-0.17,0.07-0.31,0.19-0.41,0.33c-0.1,0.14-0.16,0.31-0.17,0.48c0,0.2,0.02,0.26,0.03,0.39c0.07,0.62,0.15,1.24,0.22,1.86
		l-0.9-0.47c-0.32-0.17-0.7-0.37-0.94-0.52l-0.39-0.23l-0.41,0.14c-0.61,0.22-1.1,0.51-1.57,0.84c-0.47,0.33-0.9,0.71-1.3,1.17
		c-0.38,0.46-0.79,0.99-0.9,1.84c-0.05,0.42,0.04,0.93,0.29,1.32c0.24,0.4,0.56,0.66,0.86,0.84l2.78,1.41l2.69,1.39
		c1.79,0.94,3.6,1.86,5.42,2.76c1.84,0.9,3.6,1.81,5.61,2.58c3.74,1.37,7.47,3.03,11.21,4.55l2.81,1.17
		c0.27,0.11,0.54,0.23,0.82,0.34l-3.11-0.48c-4.45-0.68-8.9-1.34-13.33-2.09l-0.22,0.03c0.08-0.03-0.01,0-0.05,0l-0.17,0l-0.37-0.01
		l-0.77-0.05c-0.51-0.04-1.03-0.09-1.54-0.14l-3.09-0.31c-2.07-0.2-4.13-0.4-6.24-0.36c-0.53,0.02-1.06,0.05-1.62,0.21
		c-0.58,0.18-1.05,0.51-1.46,0.89c-0.8,0.77-1.38,1.73-1.7,2.79c-0.16,0.53-0.25,1.1-0.19,1.7c0.06,0.55,0.31,1.17,0.8,1.58
		c-0.39-0.03-0.77-0.07-1.16-0.1L5.19,73c-0.04,0-0.08,0-0.14,0L5,73c-0.02,0,0,0-0.04,0.01c-0.04,0.01-0.09,0.03-0.13,0.05
		c-0.1,0.07-0.07,0.06-0.1,0.08L4.7,73.18c-0.14,0.17-0.19,0.26-0.28,0.38c-0.16,0.22-0.33,0.43-0.52,0.62
		c-0.37,0.39-0.78,0.73-1.22,1.04c-0.44,0.3-0.89,0.58-1.37,0.82c-0.29,0.16-0.64,0.39-0.9,0.75c-0.27,0.35-0.44,0.87-0.4,1.31
		c0.08,0.9,0.5,1.5,0.93,1.99c0.43,0.49,0.91,0.9,1.41,1.26c0.51,0.36,1.03,0.66,1.66,0.91c0.5,0.18,0.92,0.24,1.34,0.29
		c-0.36-0.01-0.72-0.02-1.08-0.04L4.05,82.5l-0.15,0.16c-0.76,0.79-1.15,1.78-1.41,2.75c-0.25,0.98-0.36,1.97-0.35,2.99
		c0.01,0.27,0.01,0.49,0.08,0.84c0.02,0.06,0.02,0.1,0.09,0.24c0,0.01,0.05,0.08,0.13,0.16c0.1,0.08,0.15,0.1,0.15,0.1
		c0.05,0.02,0.1,0.04,0.12,0.05c0.11,0.04,0.17,0.05,0.24,0.07l0.38,0.08c0.49,0.09,0.96,0.17,1.44,0.24l2.86,0.42
		c1.9,0.27,3.8,0.54,5.69,0.84c1.87,0.32,3.79,0.61,5.54,1.09C19.04,92.59,19.31,92.66,19.58,92.73z M93.36,98.35
		c-0.08,0.37-0.22,0.72-0.38,1.06c-0.34,0.67-0.69,1.32-1.16,1.79c-0.23,0.23-0.48,0.39-0.72,0.48c-0.12,0.05-0.23,0.07-0.36,0.08
		c-0.06,0.01-0.12,0-0.19,0l-0.28-0.02c-1.06-0.1-2.15-0.28-3.27-0.43c-0.27-0.47-0.49-0.9-0.58-1.34c-0.11-0.54-0.09-1.07,0-1.63
		c0.08-0.56,0.25-1.13,0.43-1.72c0.15-0.49,0.31-0.99,0.47-1.52c0.05,0.04,0.1,0.07,0.16,0.1c0.32,0.16,0.67,0.22,1.01,0.26
		c0.53,0.04,1.05,0,1.55-0.08l0.14,0.14c0.35,0.33,0.72,0.51,1.08,0.68c0.71,0.33,1.51,0.56,1.94,1.16c0.1,0.14,0.17,0.31,0.19,0.47
		C93.42,97.97,93.39,98.17,93.36,98.35z M99.13,96.75c0.45,0.58,0.78,1.21,0.91,1.81c0.04,0.15,0.06,0.3,0.06,0.45
		c0.01,0.07,0,0.15,0,0.23c-0.01,0.08-0.01,0.14-0.04,0.27c-0.08,0.47,0,0.94,0.14,1.34c0.13,0.4,0.34,0.77,0.36,1.08
		c0.01,0.16-0.05,0.23-0.18,0.32c-0.13,0.07-0.31,0.11-0.49,0.14c-0.73,0.07-1.57-0.01-2.33-0.02c-0.76,0-1.54-0.02-2.07-0.24
		c-0.26-0.12-0.43-0.25-0.58-0.47c-0.15-0.22-0.3-0.53-0.43-0.84c-0.26-0.65-0.43-1.39-0.65-2.18l0,0c0,0-0.01-0.01-0.01-0.01
		c0-0.08,0.01-0.15,0.01-0.23c0-0.21,0-0.41-0.05-0.64c-0.04-0.23-0.15-0.43-0.27-0.61c-0.24-0.36-0.53-0.66-0.83-0.96
		c-0.29-0.29-0.6-0.58-0.9-0.83c-0.12-0.1-0.23-0.19-0.35-0.28c0.3-0.07,0.64-0.18,0.97-0.34c0.17-0.08,0.34-0.18,0.51-0.29
		c1.6,0.64,3.25,0.94,4.93,1.03c0.04,0,0.09,0,0.13,0C98.41,95.89,98.8,96.31,99.13,96.75z M91.3,84.02l-0.47-0.03
		c-0.09-0.01-0.18-0.01-0.27-0.02c0.01-0.01,0.02-0.02,0.03-0.03l0.08-0.09c0.04-0.06,0.09-0.12,0.13-0.19
		c0.08-0.13,0.15-0.25,0.21-0.38c0.12-0.26,0.23-0.53,0.31-0.8c0.18-0.54,0.28-1.11,0.33-1.69c0.04-0.58,0.02-1.18-0.12-1.79
		c-0.05-0.23-0.13-0.46-0.23-0.69c0.44,0.17,0.89,0.3,1.37,0.37c0.1,0.01,0.2,0.02,0.3,0.03c-0.57,0.79-0.75,1.74-0.75,2.62
		c0,0.97,0.38,1.93,1.09,2.61c0.3,0.3,0.67,0.51,1.06,0.64c-0.45,0.1-0.92,0.2-1.39,0.32c-0.19-0.22-0.42-0.45-0.8-0.67
		c-0.15-0.07-0.28-0.14-0.52-0.18C91.38,84.01,91.4,84.03,91.3,84.02z M91.28,86.04c-0.01,0-0.01,0-0.01,0
		C91.32,86.04,91.35,86.04,91.28,86.04z M90.32,83.96c-0.46-0.03-0.93-0.05-1.39-0.06c-0.49-0.01-0.99-0.01-1.48-0.01
		c-0.31-0.22-0.55-0.48-0.74-0.77c-0.38-0.58-0.57-1.28-0.59-1.97l0.01-0.56l0.04-0.55c0.06-0.35,0.13-0.71,0.28-1.03
		c0.24-0.57,0.71-1.07,1.38-1.39c0.23,0.04,0.46,0.08,0.68,0.12c0.45,0.11,0.73,0.35,0.92,0.62c0.38,0.55,0.65,1.48,0.76,2.47
		c0.07,0.49,0.1,1.01,0.14,1.53l0.04,0.79c0,0.13,0.01,0.27,0.01,0.4v0.2l0,0.09c0,0.03-0.02,0.04,0.05,0.04
		C90.36,83.86,90.32,83.9,90.32,83.96C90.32,83.96,90.32,83.96,90.32,83.96z M89.54,76.73c-0.36-0.09-0.71-0.09-1.03-0.05
		c-0.56,0.09-1.08,0.18-1.63,0.19c-0.98,0.03-1.96-0.09-2.94-0.29c0.33-0.18,0.66-0.37,0.97-0.6c1.52,0.36,3.05,0.57,4.58,0.73
		c1.34,0.13,2.69,0.23,4.03,0.25c-0.27,0.09-0.55,0.16-0.86,0.21c-0.63,0.11-1.32,0.15-2.04,0.17c-0.04-0.04-0.07-0.08-0.11-0.11
		C90.25,77,89.89,76.83,89.54,76.73z M81.94,69.19c-0.02-0.01,0.12,0.01,0.21,0.04c0.1,0.02,0.21,0.05,0.32,0.09
		c0.22,0.06,0.44,0.14,0.65,0.23c0.43,0.17,0.85,0.38,1.24,0.62c0.77,0.49,1.46,1.13,1.77,1.95c0.32,0.81,0.08,1.75-0.46,2.51
		c-0.52,0.74-1.24,1.38-2.02,1.9c-0.68-0.16-1.36-0.29-2.04-0.4c-0.5-0.3-0.89-0.69-1.15-1.17c-0.4-0.7-0.58-1.54-0.62-2.35
		c-0.02-0.85,0.05-1.71,0.37-2.44c0.16-0.38,0.41-0.73,0.74-1.02c0.32,0.02,0.63,0.03,0.95,0.05L81.94,69.19L81.94,69.19z
		 M110.64,60.3c0.12,0.54,0.25,1.05,0.31,1.53c0.07,0.48,0.07,0.92-0.06,1.15c-0.1,0.23-0.39,0.39-0.85,0.52
		c-0.52,0.13-1.08,0.28-1.55,0.38c-0.1,0.02-0.18,0.03-0.19,0.03c-0.02,0-0.16-0.05-0.29-0.09c-0.28-0.1-0.57-0.18-0.85-0.24
		c-0.4-0.09-0.83-0.15-1.25-0.19c-0.6-0.31-1.11-0.71-1.47-1.22c-0.57-0.8-0.85-1.79-0.88-2.76c-0.02-1.04,0.09-2.08,0.51-2.97
		c0.24-0.53,0.63-1,1.14-1.36c0.34,0.02,0.68,0.03,1.02,0.05c1.21,0.16,2.32,0.03,3.16,0.18c0.44,0.09,0.61,0.22,0.72,0.43
		c0.13,0.23,0.17,0.66,0.15,1.13C110.19,58.07,110.4,59.23,110.64,60.3z M108.47,75.21c-0.03-0.37-0.12-0.7-0.22-1.02
		c0.51,0.09,1.02,0.15,1.53,0.2c0.57,0.05,1.14,0.07,1.71,0.08c0.42,0.01,0.84,0,1.26-0.02c-0.14,0.18-0.28,0.36-0.41,0.54
		c-0.29,0.43-0.52,0.89-0.71,1.36c-0.37-0.16-0.74-0.22-1.09-0.24c-0.41-0.02-0.8,0.01-1.19,0.09c-0.38,0.08-0.74,0.18-1.09,0.4
		c0.07-0.16,0.13-0.33,0.16-0.49C108.49,75.81,108.5,75.5,108.47,75.21z M111.41,73.28c-0.56,0.08-1.12,0.18-1.68,0.3
		c-0.51,0.11-1.03,0.24-1.54,0.41c-0.04-0.12-0.07-0.23-0.1-0.34c-0.03-0.1-0.07-0.26-0.13-0.42c-0.07-0.15-0.14-0.3-0.24-0.43
		c-0.11-0.15-0.24-0.28-0.37-0.39c0.29-0.13,0.52-0.33,0.75-0.52c0.3-0.28,0.56-0.6,0.75-0.95c0.2-0.36,0.25-0.79,0.31-1.21
		l0.09-0.62c0.03-0.21,0.07-0.35,0.18-0.5c0.22-0.29,0.57-0.47,0.84-0.81c0.14-0.17,0.27-0.37,0.38-0.64c0,0,0-0.01,0-0.01
		c1-0.21,1.97-0.4,2.75-0.22c0.4,0.09,0.71,0.3,1.04,0.55c0.37,0.32,0.76,0.63,1.11,0.99c0.34,0.36,0.64,0.77,0.79,1.23
		c0.15,0.46,0.15,0.96-0.05,1.35c-0.04,0.1-0.11,0.19-0.17,0.27l-0.23,0.29c-0.16,0.19-0.32,0.38-0.48,0.56
		c-0.26,0.3-0.54,0.6-0.81,0.86C113.53,73.05,112.47,73.11,111.41,73.28z M99.92,65.54c-0.08-0.5-0.35-0.91-0.64-1.23
		c1.49-0.1,3-0.17,4.46-0.11c-0.41,0.21-0.78,0.52-1.05,0.91c-0.63,0.87-0.82,1.92-0.82,2.91c0,1.06,0.41,2.11,1.18,2.86
		c0.14,0.14,0.29,0.26,0.46,0.37c-0.4-0.01-0.79,0-1.19,0.04c-0.37,0.05-0.74,0.11-1.11,0.22c-0.03-0.24-0.06-0.48-0.11-0.71
		c-0.03-0.2-0.06-0.4-0.11-0.59c-0.05-0.2-0.06-0.37-0.2-0.65c-0.15-0.25-0.4-0.4-0.63-0.47c-0.23-0.07-0.45-0.1-0.67-0.12
		c-0.43-0.02-0.84,0-1.25,0.02c-0.14,0.01-0.27,0.03-0.4,0.04c0.03-0.03,0.07-0.06,0.1-0.09c0.61-0.58,1.12-1.24,1.6-1.91
		C99.81,66.63,100.02,66.1,99.92,65.54z M98.42,69.87c0.36-0.12,0.72-0.22,1.08-0.24c0.35-0.04,0.71,0.03,0.8,0.21
		c0.05,0.07,0.09,0.29,0.12,0.47c0.03,0.19,0.06,0.37,0.08,0.56c0.02,0.38,0.04,0.76,0.01,1.13c-0.05,0.74-0.23,1.49-0.55,2.06
		c-0.33,0.59-0.74,0.87-1.24,0.93c-0.21,0.03-0.65,0.02-1.02,0.02l-0.98-0.02c-0.03-0.05-0.08-0.09-0.11-0.14
		c-0.38-0.58-0.57-1.28-0.59-1.97l0.01-0.56l0.04-0.55c0.06-0.35,0.13-0.71,0.28-1.03c0.01-0.03,0.04-0.06,0.05-0.09
		c0.15-0.05,0.27-0.1,0.4-0.15l0.54-0.22C97.71,70.13,98.06,69.99,98.42,69.87z M96.34,77.68c0.14-0.09,0.25-0.14,0.27-0.16
		c0.01,0-0.11-0.05-0.03-0.04c0.07,0.02,0.23,0.15,0.4,0.29c0.35,0.3,0.79,0.66,1.28,0.87c0.12,0.06,0.25,0.11,0.37,0.14
		c0.07,0.01,0.14,0.03,0.21,0.06c0.13,0.05,0.25,0.13,0.34,0.26c0.2,0.26,0.27,0.69,0.22,1.11c-0.05,0.42-0.19,0.85-0.4,1.24
		c-0.2,0.4-0.48,0.76-0.76,1.12c-0.14,0.18-0.29,0.36-0.42,0.56c-0.06,0.08-0.15,0.23-0.19,0.26c-0.04,0.04-0.08,0.08-0.12,0.12
		c-0.33,0.31-1.11,0.62-1.93,0.8c-0.09,0.02-0.17,0.04-0.26,0.06c-0.55-0.28-0.97-0.64-1.26-1.08c-0.38-0.58-0.57-1.28-0.59-1.97
		l0.01-0.56l0.04-0.55c0.06-0.35,0.13-0.71,0.28-1.03c0.07-0.17,0.16-0.33,0.27-0.48c0.61-0.08,1.23-0.28,1.8-0.68
		C96.07,77.86,96.2,77.78,96.34,77.68z M99.28,77.59l-0.22-0.19c-0.22-0.2-0.41-0.42-0.62-0.66c0.2-0.02,0.41-0.05,0.66-0.12
		c0.51-0.14,1.02-0.41,1.37-0.82c0.36-0.39,0.57-0.85,0.69-1.29c0.24-0.89,0.19-1.73,0.12-2.53c0,0,0-0.01,0-0.01
		c0.85,0.26,1.71,0.38,2.57,0.38c0.52-0.02,1.04-0.17,1.56-0.22c0.26-0.02,0.51-0.04,0.72,0.06c0.22,0.08,0.41,0.23,0.55,0.42
		c0.13,0.19,0.21,0.4,0.24,0.6c0.02,0.1,0.03,0.2,0.03,0.3l0.02,0.34c0.05,0.55,0.1,1.05,0.16,1.5c0.05,0.45,0.1,0.85,0.01,1.13
		c-0.01,0.06-0.09,0.18-0.15,0.29l-0.2,0.33c-0.1,0.16-0.21,0.32-0.31,0.49c-0.34-0.58-0.65-1.17-1.1-1.75
		c-0.26-0.33-0.62-0.63-1.07-0.79c-0.45-0.16-0.95-0.16-1.39-0.05c-0.88,0.25-1.54,0.78-2.1,1.34c-0.47,0.48-0.85,1.01-1.18,1.56
		C99.51,77.78,99.4,77.68,99.28,77.59z M107.03,72.18c-0.25-0.15-0.51-0.27-0.77-0.36c-0.2-0.07-0.39-0.1-0.58-0.14
		c0.07-0.01,0.14-0.03,0.21-0.05c-0.93-0.29-1.63-0.77-2.07-1.43c-0.44-0.65-0.65-1.44-0.68-2.22c-0.01-0.84,0.06-1.68,0.38-2.4
		c0.23-0.52,0.62-0.98,1.17-1.32c0.23,0.02,0.46,0.03,0.68,0.06c0.52,0.06,1,0.19,1.5,0.35c0.25,0.08,0.48,0.16,0.71,0.26
		c0.12,0.05,0.23,0.12,0.48,0.18c0.26,0.06,0.46,0.03,0.63,0.01c0.03,0,0.05-0.01,0.08-0.01c0,0.01,0,0.03,0.01,0.04
		c0.03,0.21,0.09,0.41,0.16,0.61c0.07,0.2,0.16,0.39,0.26,0.57l0.15,0.25c0.03,0.05,0.04,0.08,0.05,0.1c0.2,0.01-0.24,0.9-0.39,1.75
		l-0.12,0.61c-0.04,0.17-0.13,0.33-0.25,0.48c-0.23,0.3-0.54,0.55-0.74,0.85C107.54,70.93,107.26,71.51,107.03,72.18z M103.27,55.93
		c-0.73,1.04-0.95,2.3-0.95,3.48c0.01,1.25,0.48,2.51,1.38,3.41c0.2,0.2,0.42,0.38,0.66,0.52c-0.75,0.03-1.5,0.11-2.23,0.21
		c-1.02,0.14-2.04,0.32-3.04,0.56c-0.62-0.6-1.32-0.99-1.98-1.39l-0.1-0.06l-0.18-0.02c-1.81-0.16-3.66-0.3-5.42-0.61
		c-0.83-0.15-1.79-0.38-2.69-0.55c-0.91-0.18-1.82-0.36-2.74-0.5c-1.83-0.31-3.67-0.57-5.52-0.73c-0.93-0.08-1.86-0.16-2.79-0.2
		c-0.97-0.03-1.8-0.07-2.72-0.21c-3.63-0.51-7.21-1.49-10.77-2.44c-1.78-0.48-3.56-1.01-5.36-1.47c-0.9-0.23-1.8-0.46-2.73-0.64
		c-0.46-0.1-0.93-0.18-1.42-0.24l-1.36-0.17c-1.8-0.24-3.6-0.58-5.4-0.93c-1.8-0.34-3.6-0.72-5.39-1.12
		c-3.56-0.83-7.17-1.68-10.58-2.76c-0.25-0.08-0.48-0.18-0.72-0.27c0.35,0.04,0.7,0.08,1.05,0.11c1.65,0.15,3.3,0.26,4.95,0.37
		c0.82,0.06,1.67,0.1,2.45,0.17c0.79,0.08,1.58,0.2,2.38,0.36c1.59,0.31,3.24,0.67,4.93,0.88c1.68,0.21,3.45,0.19,5.1,0.09
		c1.54-0.05,3.18,0.05,4.8,0.19c3.25,0.29,6.52,0.68,9.78,1.13l4.9,0.67c1.64,0.21,3.26,0.46,4.95,0.6
		c1.72,0.09,3.34,0.04,5.01,0.04l4.96-0.03c3.3,0.01,6.61,0.06,9.91,0.22c2.61,0.14,5.22,0.27,7.83,0.39
		C103.84,55.25,103.51,55.56,103.27,55.93z M91.74,64.4c0.11-0.24,0.26-0.47,0.44-0.68c1.49,0.14,2.96,0.21,4.45,0.22
		c0.66,0.32,1.3,0.66,1.79,1.07c0.53,0.46,0.71,0.92,0.38,1.54c-0.37,0.7-0.77,1.38-1.26,1.99c-0.16,0.19-0.33,0.38-0.51,0.55
		l-0.58,0.07c-0.19,0.03-0.41,0.06-0.51,0.06c-0.63,0.01-1.43-0.05-2.18-0.09c-0.56-0.03-1.13-0.06-1.69-0.09
		c-0.01-0.01-0.02-0.02-0.02-0.03c-0.44-0.65-0.65-1.44-0.68-2.22C91.34,65.97,91.42,65.13,91.74,64.4z M93.66,70.83
		c0.51,0.02,1,0.03,1.52,0c-0.31,0.66-0.42,1.38-0.42,2.07c0,0.73,0.22,1.45,0.62,2.06c-0.39-0.01-0.78-0.01-1.18-0.01
		c-1.56,0-3.12,0.09-4.69,0.22c-1.41,0.12-2.82,0.27-4.24,0.53c0.28-0.23,0.55-0.48,0.79-0.77c0.33-0.4,0.61-0.86,0.77-1.39
		c0.16-0.52,0.17-1.11,0.02-1.64c-0.25-0.98-0.91-1.75-1.65-2.35C87.99,70.12,90.78,70.66,93.66,70.83z M95.75,85.74
		c0.5,0,1-0.05,1.53-0.21c0.51-0.16,1.09-0.42,1.5-0.98c0.1-0.13,0.19-0.29,0.25-0.45c0.07-0.17,0.06-0.23,0.1-0.35
		c0.06-0.22,0.11-0.45,0.16-0.68c0.1-0.46,0.2-0.92,0.33-1.38c0.01-0.02,0.01-0.05,0.02-0.07c0.29,0.33,0.61,0.55,0.91,0.77
		c0.34,0.22,0.63,0.42,0.95,0.54c0.32,0.11,0.67,0.34,0.67,0.73c0,0.17-0.04,0.42-0.05,0.66c0,0.25,0.04,0.52,0.13,0.76
		c0.08,0.24,0.16,0.42,0.13,0.46l-0.12,0.18c-0.17,0.23-0.39,0.5-0.63,0.76c-0.43,0.47-0.97,0.94-1.52,1.43
		c-0.01-0.01-0.01-0.02-0.02-0.02c-0.09-0.09-0.19-0.17-0.29-0.25c-0.07-0.05-0.08-0.07-0.23-0.15c-0.13-0.06-0.14-0.07-0.22-0.1
		c-0.51-0.21-1-0.27-1.47-0.29c-0.47-0.02-0.94,0-1.39,0.05c-0.72,0.09-1.43,0.23-2.13,0.49c-0.06-0.19-0.12-0.39-0.19-0.58
		c-0.24-0.63-0.53-1.23-0.96-1.83C94.01,85.56,94.86,85.72,95.75,85.74z M101.24,90.64c0,0.08-0.04,0.26-0.04,0.37
		c-0.01,0.51,0.04,0.96,0.02,1.38c0,0.21-0.04,0.4-0.08,0.55c-0.06,0.14-0.12,0.24-0.18,0.28c-0.1,0.07-0.3,0.14-0.65,0.18
		c-0.73,0.07-1.61,0.02-2.46,0.06c-1.4,0.07-2.82,0.16-4.27,0.42c0.19-0.2,0.36-0.41,0.5-0.65c0.79-1.33,0.81-2.84,0.61-4.19
		c-0.04-0.27-0.1-0.53-0.16-0.79c0.66,0.16,1.3,0.26,1.94,0.35c0.85,0.11,1.73,0.22,2.43,0.29c0.03,0,0.12,0.02,0.1,0
		c-0.04-0.03,0.05,0,0.07,0.01l0.28,0.1c0.19,0.07,0.39,0.15,0.58,0.24c0.38,0.18,0.76,0.4,1.02,0.7c0.14,0.15,0.23,0.32,0.27,0.48
		l0.02,0.12L101.24,90.64z M106.35,85.93c0.25,0.22,0.5,0.43,0.74,0.65c0.24,0.22,0.51,0.41,0.76,0.62c0.52,0.4,1,0.96,0.9,1.65
		c-0.02,0.68-0.29,1.34-0.64,1.88c-0.36,0.54-0.75,1.04-1.24,1.41c-0.47,0.37-1.06,0.66-1.47,0.73c-0.05,0-0.06,0.01-0.13,0
		l-0.24-0.03c-0.16-0.02-0.33-0.05-0.5-0.08l-1.03-0.19c-0.4-0.07-0.8-0.14-1.21-0.19c-0.02-0.05-0.03-0.11-0.05-0.15
		c-0.16-0.46-0.36-0.86-0.41-1.24c-0.02-0.11-0.01-0.15-0.01-0.29c0.01-0.15-0.01-0.3-0.05-0.43c-0.08-0.26-0.2-0.49-0.33-0.69
		c-0.27-0.41-0.55-0.79-0.87-1.16c-0.05-0.06-0.11-0.12-0.16-0.18c0.29-0.02,0.57-0.08,0.85-0.16c0.43-0.14,0.85-0.34,1.24-0.63
		c0.38-0.29,0.72-0.66,0.92-1.18c0.1-0.25,0.19-0.65,0.05-1.03c-0.01-0.02-0.02-0.03-0.03-0.05c0.3,0.07,0.64,0.08,0.96-0.01
		c0.23-0.05,0.44-0.14,0.64-0.25C105.52,85.25,105.93,85.59,106.35,85.93z M106.5,79.31l-0.03,0.19c-0.03,0.16-0.06,0.33-0.1,0.5
		c-0.15,0.69-0.4,1.37-0.65,2.02c-0.26,0.65-0.52,1.29-0.9,1.84c-0.36,0.51-0.83,0.91-1.53,1.06c-0.11-0.14-0.22-0.23-0.31-0.3
		c-0.14-0.12-0.27-0.23-0.35-0.39c-0.08-0.17-0.08-0.33-0.08-0.58c-0.01-0.44-0.08-1.01-0.4-1.44c-0.3-0.44-0.77-0.61-1.2-0.74
		c-0.41-0.1-0.81-0.14-1.26-0.06c0.1-0.35,0.21-0.71,0.3-1.08c0.11-0.47,0.22-0.98,0.08-1.58c-0.05-0.21-0.16-0.42-0.29-0.61
		c0.58-0.35,1.08-0.76,1.61-1.11c0.6-0.41,1.21-0.78,1.8-0.95c0.58-0.19,1.15-0.2,1.77,0.17c0.6,0.38,0.96,1.09,1.15,1.8
		c0.11,0.37,0.14,0.71,0.33,1.17C106.48,79.25,106.49,79.28,106.5,79.31C106.5,79.31,106.5,79.31,106.5,79.31z M112.42,81.94
		c-0.16,0.29-0.37,0.41-0.67,0.71c-0.28,0.26-0.53,0.53-0.78,0.78c-0.5,0.5-1.04,0.96-1.47,1.13c-0.22,0.09-0.39,0.1-0.64,0.04
		c-0.25-0.07-0.54-0.22-0.82-0.4c-0.45-0.29-0.89-0.66-1.34-1.05c0.11-0.21,0.21-0.42,0.3-0.63c0.3-0.76,0.44-1.55,0.52-2.36
		c0.01-0.2,0.02-0.41,0.01-0.63c-0.01-0.11-0.02-0.22-0.06-0.38c-0.04-0.07,0-0.19-0.25-0.41c0.05,0.05,0.02,0.04,0,0.03
		c-0.18-0.2-0.39-0.59-0.58-0.91c-0.01-0.01-0.01-0.02-0.02-0.03c0.22-0.05,0.43-0.13,0.63-0.23c0.13-0.06,0.25-0.14,0.36-0.21
		c0.12-0.08,0.22-0.14,0.37-0.29c0.11-0.11,0.2-0.25,0.27-0.38c0.01,0.02,0.02,0.04,0.05,0.05l0.02,0c0.73,0.07,1.46,0.19,2.11,0.34
		c0.32,0.09,0.63,0.19,0.86,0.32c0.11,0.07,0.2,0.14,0.26,0.21c0.05,0.03,0.05,0.07,0.08,0.1c0.03,0.02,0.08,0.14,0.11,0.21
		c0.32,0.64,0.73,1.27,0.89,1.98C112.78,80.6,112.76,81.38,112.42,81.94z M119.46,77.31c-0.06,0.64-0.13,1.26-0.24,1.88
		c-0.06,0.31-0.13,0.61-0.21,0.9c-0.04,0.15-0.09,0.29-0.14,0.42c-0.02,0.06-0.05,0.13-0.07,0.17c0,0.01,0,0.01-0.01,0.01
		c0,0,0.04-0.05,0.06-0.06l0.02-0.02c0.02-0.02,0.05-0.04,0.07-0.05c0.05-0.03,0.11-0.05,0.17-0.07l-0.39,0.26
		c-0.12,0.15-0.33,0.37-0.53,0.52c-0.21,0.16-0.41,0.33-0.64,0.46c-0.46,0.26-0.96,0.46-1.5,0.56c-0.93,0.17-1.95,0.06-2.98-0.21
		c0.14-0.81,0.01-1.53-0.06-2.25c-0.09-0.75-0.12-1.53-0.31-2.27c-0.03-0.1-0.03-0.16-0.1-0.3c-0.06-0.13-0.12-0.27-0.21-0.36
		c-0.13-0.17-0.29-0.29-0.46-0.39c0.84-0.8,1.61-1.63,2.46-2.13c0.07-0.04,0.14-0.06,0.2-0.09c0.09-0.01,0.18-0.02,0.27-0.03
		l0.27-0.04l0.06-0.07l0.77-0.02c0.63-0.01,1.27,0.01,1.87,0.2c0.6,0.19,1.13,0.6,1.4,1.15C119.54,76.03,119.49,76.67,119.46,77.31z
		 M122.12,67.57c0.1-0.23,0.14-0.44,0.17-0.64c0.16,0.84,0.21,1.67,0.51,2.46c0.17,0.42,0.45,0.84,0.53,1.29
		c0.08,0.45,0.03,0.92-0.14,1.33c-0.17,0.41-0.4,0.7-0.65,1.01c-0.26,0.31-0.57,0.57-0.87,0.85c-0.58,0.54-1.17,1.07-1.93,1.55
		c-0.03-0.05-0.05-0.1-0.08-0.15c-0.39-0.61-0.97-1.04-1.58-1.38c-0.61-0.34-1.28-0.6-1.97-0.74c-0.03-0.01-0.06-0.01-0.09-0.01
		c0.38-0.57,0.67-1.18,0.87-1.9c0.12-0.59,0-1.15-0.16-1.65c-0.17-0.51-0.39-0.99-0.62-1.47c0.75,0.22,1.52,0.35,2.29,0.45
		c0.46,0.06,0.92,0.1,1.38,0.12c0.43,0.02,1.06,0.06,1.68-0.3C121.74,68.18,122,67.88,122.12,67.57z M118.03,60.94
		c0.12-0.01,0.27-0.04,0.4-0.07c0.12-0.02,0.16-0.05,0.26-0.06c0.38-0.04,0.82,0.07,1.22,0.24c0.78,0.36,1.51,1.02,1.77,1.77
		c0.13,0.38,0.07,0.69-0.1,0.92c-0.3,0.48-0.41,1.02-0.47,1.5c-0.06,0.48-0.06,0.95-0.12,1.33c-0.03,0.18-0.07,0.36-0.12,0.46
		c-0.04,0.12-0.1,0.15-0.17,0.22c-0.06,0.02-0.08,0.06-0.15,0.08c-0.07,0.01-0.13,0.05-0.22,0.06l-0.26,0.04l-0.33,0.03l-1.35,0.11
		c-0.81,0.07-1.63,0.15-2.46,0.25c-0.2-0.38-0.43-0.76-0.7-1.09c-0.39-0.48-1.02-0.78-1.64-0.86c-1.15-0.11-2.13,0.36-2.87,1.01
		c0.03-0.23,0.02-0.48-0.07-0.69c-0.06-0.15-0.14-0.29-0.24-0.4c-0.09-0.11-0.13-0.14-0.2-0.21c-0.13-0.13-0.26-0.26-0.4-0.38
		c-0.08-0.07-0.17-0.14-0.25-0.21c0.26-0.05,0.52-0.1,0.79-0.15c0.13-0.02,0.32-0.08,0.48-0.12c0.16-0.03,0.33-0.11,0.5-0.21
		l0.25-0.14l0.23-0.2c0.16-0.13,0.28-0.3,0.38-0.48c0.41-0.74,0.35-1.45,0.3-2.03c-0.05-0.49-0.13-0.94-0.21-1.38
		c0.35-0.06,0.69-0.03,1.04,0.01c0.43,0.06,0.86,0.14,1.29,0.23c0.44,0.09,0.87,0.18,1.32,0.27c0.45,0.09,0.9,0.16,1.38,0.18
		C117.53,60.97,117.77,60.97,118.03,60.94z M116.43,54.05c0.34,0.21,0.77,0.38,1.05,0.7c0.27,0.31,0.43,0.73,0.42,1.12
		c-0.02,0.38-0.11,0.76-0.17,1.13c-0.08,0.38-0.21,0.74-0.31,1.1c-0.1,0.37-0.2,0.73-0.33,1.09c-0.08,0.21-0.17,0.41-0.28,0.62
		c-0.68-0.12-1.37-0.22-2.09-0.26c-0.47-0.02-0.95-0.01-1.43,0.07c-0.36,0.06-0.75,0.16-1.07,0.38c0,0,0-0.01,0-0.02
		c-0.21-1.06-0.36-2.06-0.28-3c0.02-0.41,0.04-0.86-0.06-1.35c0.12-0.01,0.25-0.03,0.37-0.05c0.55-0.1,1.13-0.29,1.61-0.7
		c0.48-0.4,0.78-0.96,1-1.46c0.07-0.17,0.14-0.32,0.21-0.48C115.53,53.33,115.93,53.71,116.43,54.05z M109.8,46.62
		c0.1,0,0.21,0,0.32,0.01c0.26,0.01,0.51,0.03,0.75,0.05c0.24,0.03,0.45,0.07,0.43,0.08c0.53,0.31,1.01,0.54,1.49,0.78
		c0.93,0.47,1.87,1,2.35,1.63c0.22,0.32,0.28,0.58,0.15,0.95c-0.07,0.18-0.17,0.34-0.34,0.62c-0.15,0.26-0.28,0.52-0.39,0.79
		c-0.47,1.06-0.56,2.17-1.18,2.86c-0.39,0.44-0.98,0.69-1.62,0.86c-0.04-0.11-0.08-0.22-0.14-0.33c-0.09-0.19-0.21-0.36-0.37-0.51
		c-0.14-0.17-0.32-0.28-0.49-0.4c-0.18-0.12-0.35-0.17-0.53-0.25c-0.17-0.05-0.35-0.1-0.51-0.13c-0.18-0.03-0.35-0.05-0.52-0.06
		c-0.1-0.11-0.21-0.23-0.3-0.35c-0.51-0.73-0.76-1.62-0.79-2.5c-0.02-0.94,0.08-1.89,0.45-2.7
		C108.82,47.46,109.24,46.98,109.8,46.62z M29.99,42.81C30,42.8,30.01,42.8,29.99,42.81C29.99,42.82,29.99,42.82,29.99,42.81
		C29.99,42.82,29.99,42.81,29.99,42.81z M29.3,46.19c0.11-1.05,0.27-2.14,0.57-3.1c0.02-0.06,0.04-0.12,0.07-0.17l0.03,0l0.81,0.06
		l1.62,0.12l3.24,0.22c4.32,0.27,8.65,0.53,12.97,0.73c4.31,0.2,8.68,0.13,12.92,0.67c0.27,0.04,0.52,0.1,0.77,0.15l0.35,0.1
		l0.4,0.13c0.27,0.09,0.54,0.16,0.81,0.22c0.27,0.07,0.54,0.13,0.81,0.18c1.08,0.21,2.17,0.34,3.25,0.45
		c2.17,0.21,4.34,0.35,6.5,0.51l3.24,0.24l1.61,0.15c0.53,0.06,1.11,0.1,1.66,0.13c2.19,0.08,4.36,0.08,6.53,0.06
		c4.34-0.08,8.67-0.13,13-0.26c2.16-0.05,4.32-0.15,6.47-0.17c0.6-0.01,1.2-0.02,1.8-0.02c-0.38,0.23-0.73,0.54-0.98,0.92
		c-0.68,0.96-0.89,2.12-0.89,3.2c0.01,1.01,0.34,2.02,0.98,2.81c-0.52,0.02-1,0.04-1.45-0.01l-0.07-0.01l-0.03,0l-9.91,0.3
		c-3.3,0.08-6.61,0.04-9.91-0.07c-1.65-0.05-3.3-0.15-4.95-0.25c-1.64-0.1-3.32-0.2-4.89-0.4c-3.2-0.55-6.47-1.23-9.73-1.75
		c-1.63-0.27-3.27-0.54-4.91-0.77c-1.64-0.24-3.29-0.47-4.96-0.61c-1.67-0.15-3.34-0.27-5.1-0.16c-0.46,0.02-0.81,0.06-1.22,0.08
		c-0.4,0.02-0.79,0.04-1.19,0.04c-0.79,0.01-1.59-0.02-2.38-0.07c-1.59-0.11-3.19-0.41-4.86-0.62c-0.83-0.11-1.68-0.19-2.54-0.22
		c-0.87-0.02-1.68,0.02-2.51,0.03l-4.95,0.06c-0.83,0.01-1.65,0.02-2.47,0.02l-0.25,0c-0.1-0.04-0.19-0.09-0.29-0.13
		c-0.09-0.38-0.08-0.81-0.08-1.22C29.21,47.25,29.24,46.72,29.3,46.19z M13.91,48.33c0-0.27,0-0.36,0.09-0.44
		c0.04-0.04,0.09-0.06,0.14-0.07c0.07-0.01,0.06-0.01,0.2,0.01c0.46,0.05,0.92,0.1,1.38,0.13c1.85,0.15,3.69,0.28,5.55,0.37
		l1.4,0.03c0.46,0.01,0.85,0.03,1.25,0.1c0.78,0.14,1.49,0.48,2.27,0.94c0.77,0.45,1.59,0.95,2.45,1.39
		c0.86,0.44,1.75,0.8,2.64,1.13c1.79,0.66,3.59,1.14,5.4,1.59c1.8,0.46,3.63,0.83,5.45,1.19c3.65,0.7,7.3,1.33,11.04,1.62
		c0.46,0.04,0.96,0.04,1.4,0.07c0.44,0.02,0.88,0.05,1.33,0.11c0.9,0.1,1.8,0.25,2.71,0.41c1.81,0.33,3.62,0.69,5.41,1.12
		c3.6,0.83,7.13,1.86,10.76,2.76c0.9,0.22,1.9,0.36,2.78,0.46c0.9,0.12,1.81,0.28,2.71,0.44c1.8,0.34,3.61,0.65,5.42,0.97l5.46,0.97
		c0,0,0.01,0,0.01,0c-0.09,0.09-0.17,0.19-0.24,0.3c-0.63,0.87-0.82,1.92-0.82,2.91c0,0.76,0.22,1.52,0.62,2.17
		c-0.54-0.02-1.09-0.05-1.63-0.06c-1.47-0.02-2.96-0.04-4.46,0.2c-0.34-0.22-0.68-0.43-1.05-0.6c-0.24-0.11-0.48-0.22-0.73-0.31
		c-0.13-0.05-0.26-0.09-0.39-0.13c-0.15-0.04-0.25-0.08-0.52-0.1l0.05,0c-3.37-0.37-6.75-0.7-10.13-0.99
		c-1.12-0.76-2.28-1.45-3.46-2.11c-0.78-0.44-1.56-0.85-2.37-1.25c-0.21-0.1-0.4-0.2-0.62-0.29c-0.23-0.09-0.47-0.19-0.7-0.27
		c-0.45-0.15-0.91-0.28-1.35-0.38c-1.78-0.43-3.56-0.61-5.34-0.78c-1.77-0.18-3.56-0.25-5.34-0.24c-1.78-0.01-3.57-0.04-5.3-0.26
		c-1.69-0.29-3.27-1.17-4.87-1.85c-0.8-0.35-1.61-0.68-2.44-0.97c-0.82-0.31-1.65-0.61-2.48-0.89c-0.61-0.21-1.23-0.42-1.85-0.62
		c-0.41-0.3-0.87-0.51-1.36-0.69c-0.29-0.1-0.59-0.19-0.92-0.24c-0.33-0.05-0.63-0.11-1.06-0.01c-0.01,0-0.02,0.01-0.03,0.01
		c-0.04,0.03-0.04,0.07-0.02,0.11l0.02,0.03c0.01,0.02,0.01,0.03,0.03,0.05c0,0,0.01,0.01,0.01,0.01c0.35,0.48,0.78,0.95,1.23,1.32
		c0.46,0.38,0.93,0.75,1.5,0.95c0.57,0.21,1.24,0.26,1.78,0.53c0.54,0.26,1,0.66,1.4,1.13c0.4,0.47,0.82,0.93,1.28,1.3
		c0.45,0.39,0.9,0.79,1.37,1.1c0.23,0.15,0.47,0.3,0.72,0.44c-0.26-0.1-0.52-0.21-0.78-0.31c-1.42-0.59-2.82-1.23-4.23-1.86
		c-1.4-0.64-2.81-1.28-4.25-1.88c-0.36-0.15-0.73-0.29-1.11-0.42c-0.19-0.06-0.38-0.12-0.59-0.17c-0.18-0.05-0.33-0.09-0.51-0.16
		c-0.7-0.25-1.4-0.56-2.1-0.86c-2.79-1.26-5.53-2.68-8.29-4.04l-4.12-2.09l-1.86-0.95C13.88,49.69,13.9,49.01,13.91,48.33z
		 M69.33,66.79c-1.94-0.15-3.87-0.3-5.81-0.41c-0.76-0.05-1.58-0.07-2.33-0.08c-0.75-0.02-1.51-0.07-2.27-0.12
		c-1.52-0.09-3.05-0.25-4.59-0.41l-1.17-0.1c-0.34-0.03-0.7-0.09-1.07-0.16c-0.74-0.15-1.48-0.34-2.23-0.52
		c-0.75-0.19-1.5-0.37-2.26-0.54c-0.76-0.16-1.53-0.34-2.35-0.39c-0.19-0.01-0.47,0-0.58,0c-0.11-0.01-0.24-0.04-0.36-0.06
		c-0.17-0.6-0.48-1.1-0.81-1.56c-0.36-0.5-0.78-0.93-1.24-1.32c1.65,0.43,3.34,0.72,5.06,0.91c1.79,0.11,3.53,0.33,5.27,0.69
		c1.74,0.36,3.47,0.7,5.21,0.98c1.73,0.3,3.46,0.63,5.13,0.98c0.42,0.08,0.82,0.18,1.22,0.28l0.55,0.17l0.61,0.22l2.47,0.92
		C68.29,66.42,68.81,66.61,69.33,66.79z M39.26,68.1l-2.72-1.35c-1.81-0.91-3.64-1.79-5.48-2.66c-1.84-0.86-3.68-1.73-5.6-2.48
		c-0.86-0.36-1.77-0.82-2.67-1.26l-2.69-1.38l-5.38-2.81l-2.71-1.39c-0.46-0.23-0.91-0.46-1.38-0.68l-0.71-0.33L9.56,53.6
		c-0.08-0.04-0.16-0.07-0.22-0.11c-0.13-0.07-0.21-0.15-0.23-0.19c-0.02-0.04-0.03-0.05-0.03-0.13c0-0.16,0.17-0.52,0.43-0.83
		c0.43-0.52,1.07-1.03,1.69-1.34c0.22,0.11,0.42,0.21,0.63,0.32l1.04,0.52l2.09,1.01c1.4,0.66,2.81,1.3,4.21,1.94
		c2.81,1.28,5.66,2.49,8.56,3.61c0.73,0.28,1.45,0.55,2.22,0.78c0.19,0.06,0.4,0.11,0.6,0.15c0.17,0.03,0.35,0.08,0.53,0.13
		c0.36,0.1,0.72,0.22,1.08,0.34c1.44,0.5,2.86,1.11,4.28,1.71l4.26,1.83c0.71,0.3,1.43,0.6,2.16,0.87c0.37,0.13,0.74,0.26,1.13,0.37
		c0.2,0.05,0.4,0.1,0.62,0.13l0.58,0.02c2.95,0.38,5.78,1.95,8.97,2.27c1.52,0.25,3.05,0.51,4.6,0.7c0.78,0.1,1.56,0.16,2.35,0.22
		l2.3,0.14c5.48,0.37,10.99,0.74,16.49,1.03c-0.21,0.17-0.39,0.37-0.54,0.6c-0.62,0.89-0.8,1.96-0.79,2.96
		c0.03,1.05,0.37,2.08,1.07,2.9c0.11,0.13,0.23,0.24,0.35,0.35c-0.38-0.05-0.76-0.1-1.15-0.14c-0.54-0.06-1.05-0.1-1.59-0.14
		c-1.86-0.09-3.74-0.09-5.65,0.13c-2.87-0.49-5.72-1.1-8.56-1.74c-2.19-0.49-4.37-1.02-6.55-1.54c-2.19-0.53-4.37-1.06-6.59-1.53
		l-6-0.93c-0.64-0.22-1.28-0.45-1.91-0.69c-0.47-0.18-0.93-0.37-1.39-0.56C40.17,68.56,39.71,68.32,39.26,68.1z M6.82,70.06
		c0.23-0.92,0.72-1.81,1.38-2.49c0.33-0.34,0.72-0.63,1.13-0.76c0.43-0.14,0.95-0.18,1.45-0.22c2.03-0.1,4.1,0.1,6.16,0.28
		l3.08,0.34l1.55,0.17l0.78,0.08l0.4,0.03c0.07,0,0.14,0,0.22,0c0.06-0.01,0.1,0,0.18-0.02l13.14,2.78c2.2,0.47,4.42,0.89,6.64,1.28
		c1.11,0.19,2.22,0.37,3.35,0.54c0.55,0.09,1.16,0.15,1.69,0.22c0.51,0.06,1.06,0.16,1.6,0.26c4.37,0.89,8.78,1.91,13.23,2.67
		c2.93,0.51,5.88,0.93,8.84,1.18c0.73,0.26,1.47,0.46,2.21,0.64c1.06,0.26,2.14,0.45,3.22,0.58c0.54,0.06,1.11,0.1,1.65,0.1
		l1.61,0.01c1.08,0.02,2.18-0.04,3.27-0.16c1.09-0.11,2.18-0.17,3.26-0.07c0.06,0.01,0.12,0.02,0.18,0.02
		c-0.56,0.15-1.09,0.51-1.44,1c-0.58,0.79-0.76,1.75-0.77,2.65c0,0.97,0.38,1.93,1.09,2.61c0.05,0.05,0.1,0.09,0.16,0.13
		c-0.34,0.01-0.67,0.01-1.01,0.03c-0.64,0.04-1.29,0.08-1.94,0.17c-0.32,0.03-0.65,0.09-0.97,0.14c-0.32,0.06-0.67,0.13-0.92,0.17
		c-0.09,0.01-0.18,0.02-0.27,0.03c-3.63-0.99-7.26-2.01-10.84-3.13c-0.98-0.32-1.96-0.64-2.87-1.02c-1.03-0.42-2.04-0.69-3.06-0.94
		c-2.04-0.5-4.09-0.88-6.16-1.2c-2.07-0.31-4.13-0.59-6.26-0.71c-1.06-0.05-2.22-0.04-3.34,0.21c-1.13,0.23-2.13,0.67-2.98,0.84
		c-0.85,0.17-1.71,0.1-2.63-0.11c-0.9-0.22-1.78-0.58-2.62-1.05c-0.84-0.47-1.65-1.04-2.47-1.64l-1.23-0.92l-0.62-0.47l-0.16-0.12
		l-0.21-0.14c-0.14-0.1-0.29-0.17-0.44-0.25c-1.22-0.56-2.41-0.57-3.49-0.54c-1.1,0.04-2.14,0.18-3.16,0.29
		c-1.02,0.12-2.03,0.22-3,0.23c-0.49,0-0.96-0.02-1.42-0.09c-0.23-0.03-0.45-0.08-0.67-0.13l-0.8-0.19
		c-2.15-0.4-4.24-0.47-6.32-0.53c-2.08-0.06-4.16-0.01-6.21-0.06c-0.51-0.01-1.02-0.03-1.53-0.06c-0.26-0.02-0.49-0.03-0.68-0.08
		c-0.2-0.04-0.38-0.12-0.53-0.23C6.66,71.99,6.58,70.96,6.82,70.06z M79.83,84.55c-0.73,0.05-1.48,0.06-2.22,0.06
		c-2.5-0.01-5.02-0.23-7.5-0.64c-2.48-0.41-4.91-1.12-7.35-1.69c-2.43-0.56-4.88-1.07-7.37-1.52c-1.24-0.23-2.48-0.44-3.73-0.61
		c-1.18-0.16-2.34-0.34-3.57-0.39c0.26-0.08,0.51-0.16,0.77-0.21c0.91-0.22,1.84-0.25,2.84-0.22c2.01,0.06,4.06,0.26,6.1,0.51
		c2.03,0.26,4.08,0.53,6.07,0.94c0.99,0.2,2,0.42,2.91,0.73c1.02,0.36,2.02,0.62,3.04,0.88c2.02,0.51,4.04,0.99,6.08,1.39
		C77.21,84.05,78.52,84.31,79.83,84.55z M36.62,77.32c-0.27-0.05-0.53-0.1-0.79-0.14c-1.12-0.21-2.23-0.42-3.33-0.65
		c-1.1-0.24-2.2-0.47-3.24-0.78c-0.4-0.12-0.81-0.25-1.18-0.39c0.18-0.02,0.36-0.03,0.54-0.05c1.04-0.1,2.05-0.2,3.03-0.22
		c0.97-0.02,1.92,0.07,2.59,0.4c0.07,0.05,0.16,0.08,0.23,0.14l0.11,0.07l0.15,0.11l0.6,0.48l1.23,0.96
		C36.57,77.29,36.6,77.3,36.62,77.32z M5.12,73.75C5.12,73.75,5.13,73.75,5.12,73.75C5.12,73.75,5.12,73.75,5.12,73.75L5.12,73.75z
		 M4.57,80.91c-0.41-0.2-0.85-0.52-1.26-0.84c-0.41-0.32-0.79-0.68-1.09-1.05C1.94,78.64,1.7,78.24,1.69,78
		c-0.01-0.12,0-0.18,0.05-0.29c0.06-0.11,0.18-0.22,0.37-0.36c0.5-0.35,0.97-0.73,1.4-1.17c0.43-0.43,0.82-0.9,1.15-1.41
		c0.17-0.25,0.32-0.51,0.46-0.77l0.14-0.26l0.14-0.01c2.26-0.03,4.54,0.23,6.78,0.59l3.37,0.59c1.12,0.19,2.25,0.37,3.37,0.54
		c2.23,0.35,4.5,0.71,6.63,1.16c0.26,0.06,0.52,0.12,0.76,0.18c0.11,0.03,0.23,0.07,0.31,0.1l0.42,0.16
		c0.61,0.23,1.19,0.37,1.78,0.5c1.17,0.23,2.32,0.38,3.47,0.47c1.15,0.1,2.31,0.14,3.46,0.13c0.58,0,1.15-0.02,1.73-0.06
		c0.06,0,0.13-0.01,0.19-0.01c0.5,0.35,1.01,0.68,1.56,0.99c0.96,0.55,2.02,0.98,3.13,1.26c0.55,0.13,1.12,0.23,1.72,0.26
		c0.6,0.03,1.22-0.02,1.8-0.15c0.72-0.16,1.33-0.38,1.9-0.58c0.01,0.03,0.02,0.05,0.05,0.06l0.03,0.01
		c2.35,0.82,4.78,1.59,7.21,2.25c1.22,0.33,2.44,0.64,3.67,0.93c1.22,0.3,2.48,0.53,3.73,0.71c2.51,0.35,5.05,0.45,7.55,0.76
		c2.51,0.29,4.99,0.7,7.51,1.07c1.27,0.15,2.52,0.34,3.9,0.27c0.37-0.02,0.64-0.05,0.95-0.08c0.3-0.02,0.6-0.05,0.91-0.06
		c0.61-0.03,1.22-0.04,1.83-0.05c1.23,0.01,2.47,0.06,3.7,0.15L90.7,86l0.47,0.03c0.01,0,0.04,0,0.06,0
		c0.06,0.04,0.21,0.19,0.33,0.35c0.62,0.79,1.07,1.93,1.33,3c0.25,1.09,0.29,2.24-0.12,3.14c-0.2,0.45-0.53,0.83-0.96,1.12
		c-0.21,0.15-0.46,0.26-0.75,0.38c-0.21,0.1-0.43,0.18-0.65,0.27c-0.02-0.01-0.05-0.03-0.07-0.04c-0.25-0.12-0.5-0.16-0.74-0.18
		c-0.78-0.03-1.47,0.19-2.06,0.56c-0.16-0.12-0.33-0.24-0.51-0.34c-0.02-0.02-0.04-0.04-0.07-0.04c-0.44-0.26-0.92-0.47-1.41-0.63
		c-0.78-0.24-1.59-0.37-2.39-0.46c-1.6-0.18-3.19-0.24-4.72-0.54c-3.18-0.57-6.33-0.94-9.47-1.45c-1.57-0.25-3.13-0.51-4.67-0.84
		c-0.77-0.17-1.53-0.35-2.25-0.57c-0.35-0.12-0.71-0.24-1.01-0.38c-0.23-0.11-0.69-0.38-1.05-0.55c-3.01-1.39-6.08-2.32-9.23-3.08
		c-1.57-0.38-3.17-0.67-4.79-0.87c-0.81-0.1-1.63-0.16-2.46-0.18c-0.41-0.01-0.83,0.01-1.25,0.02l-1.19,0.07
		c-3.17,0.16-6.35,0.24-9.53,0.14c-3.19-0.09-6.31-0.44-9.4-1.32c-3.14-0.69-6.32-1.1-9.53-1.34l-0.12,0.02L12.3,82.3
		c-0.95-0.12-1.95-0.28-2.91-0.43c-1.12-0.17-2.25-0.35-3.33-0.56C5.52,81.19,4.93,81.07,4.57,80.91z M7.8,89.17l-2.86-0.29
		c-0.47-0.05-0.95-0.1-1.41-0.16l-0.19-0.03c-0.01-0.11-0.02-0.22-0.03-0.33c-0.05-0.89,0.02-1.82,0.2-2.7
		c0.18-0.81,0.48-1.6,0.96-2.2c1.35,0.01,2.66-0.08,3.98-0.16l2.1-0.16l1.05-0.09l0.53-0.05l0.27-0.03l0.14-0.02
		c0.03,0,0.06-0.01,0.1-0.02c1.57,0.07,3.15,0.22,4.71,0.43c1.58,0.2,3.14,0.47,4.68,0.84c1.52,0.37,3.1,0.83,4.69,1.06
		c1.59,0.25,3.19,0.43,4.79,0.57c3.2,0.27,6.41,0.35,9.62,0.34l1.2-0.01c0.38,0.01,0.76,0.01,1.14,0.04
		c0.77,0.06,1.54,0.15,2.31,0.26c1.54,0.22,3.08,0.57,4.61,0.93c1.53,0.37,3.04,0.81,4.54,1.27c1.49,0.47,2.99,1,4.37,1.63
		c0.36,0.17,0.59,0.31,1.08,0.55c0.42,0.2,0.83,0.32,1.23,0.44c0.81,0.23,1.61,0.4,2.4,0.55c1.6,0.29,3.19,0.52,4.78,0.72
		c1.59,0.19,3.18,0.35,4.77,0.51c1.59,0.16,3.18,0.29,4.74,0.49c1.63,0.22,3.25,0.15,4.82,0.21c1.3,0.05,2.62,0.22,3.79,0.77
		c0.04,0.16,0.13,0.3,0.24,0.42c-0.47,0.34-0.86,0.77-1.19,1.24c-0.39,0.57-0.68,1.23-0.79,1.95c-0.12,0.72-0.04,1.52,0.33,2.2
		c0.21,0.37,0.5,0.66,0.82,0.88c-0.24-0.03-0.47-0.06-0.71-0.09c-0.02,0-0.05,0.01-0.06,0.03c0,0.01,0,0.02,0,0.02
		c-6.91-1.2-13.83-2.32-20.76-3.42L53.4,96L42,94.29l-11.4-1.64l-5.69-0.83l-2.83-0.44c-0.95-0.17-1.86-0.3-2.74-0.55
		c-1.97-0.49-3.86-0.75-5.79-1C11.63,89.58,9.71,89.37,7.8,89.17z"/>
	<path class="st4" d="M118.78,80.72c0,0,0.01-0.01,0.02-0.03c0,0,0,0,0,0C118.78,80.71,118.78,80.73,118.78,80.72z"/>
	<path class="st4" d="M127.77,124.01l-0.09-0.11c-0.96-1.11-2.22-1.66-3.42-2.11c-1.22-0.44-2.45-0.76-3.67-1.06
		c-0.05-0.01-0.1-0.02-0.15-0.04c0.49-0.07,0.98-0.15,1.47-0.26c0.84-0.19,1.67-0.41,2.48-0.74c0.1-0.04,0.2-0.08,0.3-0.13
		l0.15-0.07l0.08-0.03c0.07-0.03,0.14-0.07,0.2-0.13c0.27-0.24,0.33-0.63,0.2-0.91c-0.06-0.15-0.18-0.28-0.33-0.37
		c-0.08-0.04-0.15-0.07-0.23-0.09c-0.07-0.02-0.18-0.02-0.18-0.02l-1.23-0.04c-0.59-0.03-1.19-0.07-1.78-0.11
		c0.18-0.02,0.36-0.02,0.53-0.05c0.76-0.09,1.52-0.24,2.26-0.44c0.37-0.11,0.74-0.23,1.1-0.36c0.36-0.17,0.71-0.33,1.04-0.52
		c0.02-0.01,0.04-0.04,0.03-0.06c0-0.03-0.04-0.06-0.07-0.06c-1.52,0.13-2.98,0.15-4.46,0.19c-0.43,0.01-0.86,0.03-1.3,0.05
		c0.4-0.07,0.79-0.13,1.19-0.2c1.39-0.28,2.78-0.59,4.1-1.24c0.33-0.17,0.65-0.36,0.94-0.61c0.08-0.08,0.12-0.1,0.23-0.23
		c0.12-0.16,0.13-0.4,0.04-0.55c-0.08-0.16-0.25-0.28-0.45-0.3c-0.23,0.01-0.25,0.04-0.35,0.06c-0.68,0.16-1.35,0.33-2.04,0.45
		c-2.23,0.44-4.51,0.69-6.79,0.82c1.06-0.16,2.11-0.39,3.1-0.84c0.79-0.36,1.57-0.78,2.27-1.33c0.7-0.54,1.33-1.21,1.7-2.01
		c0.01-0.03,0.01-0.06,0-0.09c-0.03-0.05-0.09-0.06-0.14-0.04c-1.48,0.82-2.95,1.25-4.48,1.69c-0.76,0.22-1.52,0.44-2.28,0.7
		c-0.76,0.27-1.54,0.49-2.33,0.68c-1.59,0.37-3.2,0.66-4.83,0.91c-0.26,0.04-0.52,0.07-0.77,0.11l-0.38-0.06
		c-0.75-0.12-1.47-0.17-2.24-0.12c-0.19,0.01-0.41,0.04-0.49,0.03c-0.15-0.01-0.32-0.02-0.49-0.04c-0.34-0.04-0.69-0.08-1.03-0.13
		c-1.39-0.2-2.79-0.35-4.21-0.41c-1.41-0.08-2.82-0.14-4.24-0.14c-1.42,0-2.84,0.02-4.28,0.16c-0.02,0-0.03,0.02-0.05,0.04
		c-0.1-0.01-0.2-0.03-0.3-0.04c-1.68-0.2-3.36-0.38-5.04-0.51c-3.36-0.27-6.72-0.54-10.09-0.74l-5.03-0.32
		c-1.65-0.13-3.39-0.25-5.06-0.33c-3.36-0.19-6.73-0.25-9.95-0.76c-0.81-0.12-1.58-0.29-2.32-0.5l-0.53-0.18
		c-0.17-0.06-0.49-0.17-0.7-0.23c-0.46-0.12-0.89-0.21-1.33-0.28c-1.72-0.29-3.4-0.46-5.1-0.61c-3.38-0.28-6.75-0.46-10.12-0.62
		c-3.37-0.16-6.74-0.26-10.12-0.31c-0.85-0.01-1.69-0.02-2.55-0.02l-0.34,0.01l-0.1,0c-0.07,0-0.14,0.01-0.21,0.03
		c-0.09,0.02-0.1,0.03-0.13,0.03l-0.08,0.03l-0.64,0.25c-0.42,0.2-0.83,0.41-1.21,0.68c-0.77,0.53-1.43,1.22-1.9,2.02
		c-0.24,0.4-0.42,0.82-0.57,1.25c-0.07,0.22-0.13,0.44-0.18,0.66c-0.03,0.11-0.05,0.22-0.07,0.33l-0.03,0.16l-0.01,0.07
		c0,0,0,0.01,0,0.01l0,0.33l0.4,1.23c0.14,0.41,0.23,0.81,0.47,1.29c0.45,0.89,1.3,1.57,2.27,1.8c0.24,0.05,0.49,0.1,0.73,0.1
		l0.66,0.01l1.3,0.01l2.6,0.04c3.46,0.07,6.92,0.2,10.38,0.44c1.73,0.11,3.45,0.27,5.15,0.49l2.59,0.35c0.87,0.09,1.73,0.2,2.6,0.26
		c3.47,0.29,6.95,0.43,10.42,0.53c3.47,0.08,6.94,0.06,10.4,0.04c1.73-0.02,3.46-0.03,5.17,0.01c1.7,0.03,3.41,0.16,5.14,0.29
		c6.2,0.49,12.42,1.01,18.65,1.42c0.56,0.13,1.11,0.27,1.67,0.38c1.4,0.29,2.8,0.53,4.21,0.72c0.71,0.09,1.42,0.16,2.14,0.21
		c0.74,0.04,1.4,0.07,2.27,0.01l0.61-0.04c0.05,0.01,0.1,0.01,0.15,0.02c1.65,0.25,3.29,0.55,4.9,0.91
		c1.61,0.37,3.14,0.97,4.68,1.38c1.55,0.45,3.02,0.87,4.43,1.83l0,0c0.03,0.02,0.06,0.02,0.09,0.01c0.05-0.02,0.08-0.07,0.06-0.13
		c-0.29-0.85-0.94-1.57-1.63-2.13c-0.64-0.52-1.34-0.91-2.07-1.25c1.68,0.05,3.34,0.12,4.98,0.36c0.61,0.08,1.21,0.2,1.81,0.33
		l0.89,0.21l0.11,0.03c0.12,0.03,0.25,0.04,0.38,0.01c0.26-0.06,0.48-0.23,0.59-0.46c0.12-0.22,0.11-0.54-0.02-0.77
		C127.81,124.04,127.81,124.06,127.77,124.01z M124.55,119.04C124.59,119.04,124.57,119.04,124.55,119.04L124.55,119.04z
		 M23.86,109.83c0.02-0.01,0.06-0.02,0.02,0c-0.01,0.01-0.03,0.01-0.05,0.01L23.86,109.83z M105.62,121
		c0.08,0.29,0.19,0.58,0.33,0.87l-0.14-0.01c-0.7-0.05-1.4-0.09-2.11-0.12c-1.41-0.06-2.83-0.09-4.26-0.06
		c-0.71,0.01-1.43,0.04-2.15,0.1c-0.18,0.01-0.36,0.03-0.54,0.05l-0.29,0.04c-0.08,0-0.16,0.01-0.25,0c-0.26,0-0.52-0.02-0.78-0.04
		c-5.41-0.84-10.84-1.58-16.29-2.17c-1.72-0.18-3.46-0.37-5.23-0.42c-1.75-0.06-3.49-0.07-5.22-0.08c-3.47,0-6.93,0.06-10.39,0.13
		c-3.46,0.08-6.91,0.12-10.36,0.01c-1.73-0.05-3.43-0.16-5.16-0.34c-1.74-0.17-3.47-0.25-5.2-0.36l-10.39-0.51l-2.6-0.13l-1.3-0.07
		l-0.64-0.03c-0.19-0.01-0.37-0.05-0.55-0.1c-0.71-0.21-1.31-0.73-1.61-1.39c-0.14-0.3-0.23-0.75-0.36-1.16l-0.3-1.1l0.01-0.04
		l0.03-0.15c0.02-0.1,0.05-0.19,0.07-0.28c0.05-0.18,0.11-0.37,0.18-0.54c0.14-0.35,0.31-0.69,0.52-1c0.41-0.63,0.96-1.15,1.6-1.54
		c0.32-0.2,0.66-0.36,1.01-0.51l0.54-0.19l0.04-0.01l0.06,0l0.3,0c0.82,0.02,1.67,0.06,2.5,0.1c3.35,0.17,6.71,0.36,10.07,0.57
		c3.35,0.22,6.71,0.46,10.03,0.8c1.66,0.18,3.33,0.35,4.93,0.62c0.4,0.07,0.79,0.15,1.14,0.24c0.2,0.05,0.27,0.09,0.5,0.16
		l0.67,0.23c0.88,0.25,1.75,0.45,2.61,0.56c1.73,0.25,3.43,0.36,5.13,0.44c1.7,0.08,3.39,0.13,5.07,0.15
		c1.7,0.03,3.32,0.08,5.03,0.16l5.06,0.15l10.1,0.22c1.68,0.06,3.36,0.09,5.04,0.16c0.84,0.04,1.68,0.08,2.51,0.15
		c0.15,0.01,0.31,0.03,0.46,0.04c0.53,0.11,1.07,0.2,1.6,0.29c1.4,0.24,2.81,0.41,4.23,0.54c1.41,0.15,2.84,0.19,4.28,0.11
		c0.36-0.02,0.72-0.05,1.09-0.08c0.19-0.02,0.37-0.04,0.58-0.07c0.01,0,0.02,0,0.03-0.01c-0.04,0.02-0.07,0.04-0.11,0.06
		c-0.4,0.27-0.84,0.66-0.98,1.25c-0.13,0.46-0.22,0.92-0.29,1.39C105.34,119.03,105.33,120.03,105.62,121z M124.72,123.4
		c-0.72-0.14-1.43-0.25-2.15-0.33c-1.43-0.17-2.86-0.28-4.29-0.34c1.41,0.22,2.82,0.48,4.21,0.8c0.19,0.04,0.38,0.09,0.56,0.14
		c-2.12-0.15-4.23-0.04-6.31,0.04c-0.96-0.19-1.93-0.3-2.88-0.42c-1.47-0.19-2.95-0.29-4.42-0.34l-0.96-0.74
		c-0.05-0.04-0.1-0.09-0.15-0.14c1.01-0.21,2.07-0.3,3.14-0.3c1.35,0.01,2.71,0.12,4.05,0.35c-1.31-0.39-2.65-0.66-4.02-0.82
		c-1.26-0.14-2.55-0.18-3.85,0c-0.17-0.25-0.33-0.53-0.45-0.83c-0.25-0.62-0.44-1.32-0.54-2.04c0.54-0.11,1.11-0.18,1.67-0.2
		c0.3-0.01,0.61,0.01,0.94,0.03l0.95,0.04l3.81,0.12l-3.77-0.54c-0.64-0.09-1.22-0.2-1.89-0.31c-0.59-0.08-1.18-0.09-1.78-0.07
		c-0.01-0.22,0-0.44,0.01-0.66c0.01-0.3,0.21-0.62,0.53-0.87c0.35-0.28,0.79-0.49,1.24-0.65c0.77,0.02,1.55,0.02,2.33,0.01
		c1.3-0.03,2.6-0.1,3.91-0.23c0.49,0.01,0.98,0.02,1.47,0.02c2.81-0.02,5.64-0.22,8.42-0.7c0.7-0.11,1.39-0.26,2.08-0.41
		c0.01,0,0.02,0,0.03-0.01l-0.03,0.03c-0.24,0.2-0.53,0.37-0.83,0.51c-1.22,0.57-2.59,0.86-3.96,1.11
		c-2.74,0.48-5.54,0.71-8.33,0.95l-1,0.09c-1.29-0.03-2.57-0.09-3.86-0.16c-0.03,0-0.06,0.02-0.07,0.05
		c-0.01,0.03,0.02,0.07,0.05,0.07c1.48,0.28,2.97,0.49,4.47,0.68c0.02,0,0.04,0,0.06,0.01l0.23,0.08c1.66,0.6,3.31,0.81,4.97,1.04
		c1.59,0.2,3.18,0.35,4.78,0.47c-0.46,0.13-0.93,0.25-1.4,0.34c-1.58,0.3-3.21,0.41-4.82,0.36l-3.19-0.1l2.9,1.3
		c1.26,0.57,2.49,0.82,3.7,1.15c1.21,0.3,2.41,0.59,3.55,0.99c0.39,0.14,0.77,0.29,1.14,0.46
		C124.88,123.44,124.8,123.42,124.72,123.4z"/>
</g>
</svg>
