<?xml version="1.0" encoding="utf-8"?>
<!-- Generator: Adobe Illustrator 24.1.2, SVG Export Plug-In . SVG Version: 6.00 Build 0)  -->
<svg version="1.1" id="Layer_1" xmlns="http://www.w3.org/2000/svg" xmlns:xlink="http://www.w3.org/1999/xlink" x="0px" y="0px"
	 viewBox="0 0 128 128" style="enable-background:new 0 0 128 128;" xml:space="preserve">
<style type="text/css">
	.st0{fill:#605C58;}
	.st1{fill:#FFCE6E;}
	.st2{fill:#2D2D2D;}
</style>
<g>
	<path class="st0" d="M38.7,65.6c1.2,0.4,2.5,0.5,3.7,0.4c2.5-0.2,4.7-1.1,6.7-2.8c1-0.8,1.9-1.8,2.5-3c0.6-1.2,1-2.6,1-3.9
		c0-2.8-1.5-5.4-3.5-7c-1-0.8-2.1-1.4-3.2-1.8c-1.1-0.4-2.3-0.6-3.5-0.6c-2.3,0-4.7,1-6.4,2.7c-1.7,1.7-2.8,4.1-3.1,6.7
		c-0.3,2.6,0.6,5.4,2.4,7.3C36.3,64.5,37.4,65.2,38.7,65.6z"/>
	<path class="st1" d="M108.6,20.6C96.7,9.4,80.6,3,64.3,3.1c-8.1,0-16.2,1.6-23.7,4.6c-7.5,3-14.4,7.5-20.2,13.1
		C14.6,26.5,9.9,33.3,6.7,40.7c-3.2,7.4-5,15.4-5.1,23.5C1.5,72.3,3,80.4,6.1,87.9c3.1,7.5,7.8,14.5,13.6,20.2
		c2.9,2.9,6.2,5.4,9.6,7.6c3.5,2.2,7.1,4.1,11,5.5c7.6,3,15.8,4.4,24,4.3c8.2-0.1,16.3-1.7,23.8-4.7c7.5-3,14.5-7.5,20.4-13
		c5.9-5.6,10.8-12.3,14.1-19.8c3.3-7.5,5-15.6,5-23.8c0-8.2-1.7-16.4-5.1-23.8C119.3,32.9,114.5,26.1,108.6,20.6z M75.6,51.8
		c0.4-1.5,1.2-2.9,2.2-4.1c2-2.4,5.2-4.1,8.5-4c1.6,0,3.3,0.4,4.7,1.2c1.4,0.7,2.6,1.9,3.5,3.1c1.7,2.6,2.3,5.5,2.3,8.3
		c-0.1,2.8-0.6,5.7-2.3,8.2c-0.9,1.2-2.1,2.3-3.5,3c-1.4,0.7-3.1,1-4.6,0.9c-1.6-0.1-3.1-0.6-4.4-1.4c-1.3-0.8-2.4-1.8-3.4-2.9
		c-1.9-2.2-3.1-5-3.4-7.9C75,54.8,75.1,53.3,75.6,51.8z M31.7,51.8c0.4-1.5,1.2-2.9,2.2-4.1c2-2.4,5.2-4.1,8.5-4
		c1.6,0,3.3,0.4,4.7,1.2c1.4,0.7,2.6,1.9,3.5,3.1c1.7,2.6,2.3,5.5,2.3,8.3c-0.1,2.8-0.6,5.7-2.3,8.2c-0.9,1.2-2.1,2.3-3.5,3
		c-1.4,0.7-3.1,1-4.6,0.9c-1.6-0.1-3.1-0.6-4.4-1.4c-1.3-0.8-2.4-1.8-3.4-2.9c-1.9-2.2-3.1-5-3.4-7.9C31.1,54.8,31.2,53.3,31.7,51.8
		z M33.6,91.9c-0.2,0.8-0.4,1.7-0.5,2.6c0,0-0.1,0.1-0.1,0.1c0,0-0.1,0-0.1,0l0,0c-0.6-0.9-0.8-2-0.8-3c0-1,0.3-2,0.8-2.9
		c0.5-0.9,1.3-1.7,2.2-2.3c0.9-0.6,2.1-0.8,3.2-0.4l0.1,0c0,0,0.1,0.1,0.1,0.1c0,0,0,0,0,0.1c-0.8,0.4-1.6,0.8-2.2,1.4
		c-0.6,0.6-1.1,1.3-1.6,2.1C34.2,90.2,33.9,91,33.6,91.9z M96.1,94.1L96.1,94.1c-0.1,0.1-0.1,0.1-0.2,0.1c0,0,0,0,0-0.1
		c-0.1-0.9-0.2-1.7-0.6-2.5c-0.4-0.8-0.8-1.5-1.4-2.1l0,0c-2.8,4.8-7.6,8.4-12.8,10.6c-2.6,1.2-5.4,1.9-8.2,2.5
		c-2.8,0.5-5.6,0.8-8.5,0.8c-2.9,0-5.7-0.3-8.5-0.9c-2.8-0.6-5.5-1.4-8.1-2.7c-5.1-2.3-9.9-5.8-13-10.3l0,0c0-0.1,0-0.2,0-0.2
		c0.1,0,0.1,0,0.2,0c3.8,3.7,8.6,6.5,13.6,8.3c5,1.9,10.4,2.8,15.8,2.8c5.4,0,10.8-0.8,15.9-2.5c5.1-1.7,9.8-4.6,13.4-8.6
		c0,0,0,0,0.1,0c-0.6-0.6-1.2-1.1-1.8-1.6c-0.7-0.5-1.5-1-2.3-1.3c0,0-0.1-0.1,0-0.1c0,0,0,0,0.1,0l0.1,0c1.1-0.3,2.2-0.1,3.1,0.2
		c1,0.3,1.8,0.9,2.5,1.7c0.7,0.8,1.2,1.8,1.4,2.8C97,92,96.8,93.2,96.1,94.1z"/>
	<path class="st0" d="M82.5,65.6c1.2,0.4,2.5,0.5,3.7,0.4c2.5-0.2,4.7-1.1,6.7-2.8c1-0.8,1.9-1.8,2.5-3c0.6-1.2,1-2.6,1-3.9
		c0-2.8-1.5-5.4-3.5-7c-1-0.8-2.1-1.4-3.2-1.8c-1.1-0.4-2.3-0.6-3.5-0.6c-2.3,0-4.7,1-6.4,2.7c-1.7,1.7-2.8,4.1-3.1,6.7
		c-0.3,2.6,0.6,5.4,2.4,7.3C80.1,64.5,81.3,65.2,82.5,65.6z"/>
	<path class="st2" d="M109.9,19.2C104.1,13.2,97,8.3,89.2,5c-7.8-3.3-16.3-5-24.9-5c-8.5,0-17.1,1.6-24.9,4.9c-7.9,3.3-15,8.1-21,14
		C12.4,24.9,7.7,32,4.6,39.8C1.4,47.5-0.1,55.9,0,64.2c0.1,8.3,1.9,16.5,5.2,24.2c3.3,7.6,8,14.6,13.9,20.4
		c5.9,5.9,12.9,10.7,20.6,14c7.7,3.3,16.2,5.1,24.6,5.2c8.5,0.1,17-1.5,24.8-4.8c7.8-3.2,14.9-8.1,20.8-14.1
		c5.8-6,10.4-13.1,13.5-20.8c3-7.7,4.6-15.9,4.6-24.1c0-8.2-1.6-16.4-4.6-24.1C120.4,32.4,115.8,25.2,109.9,19.2z M122.7,88
		c-3.3,7.5-8.1,14.2-14.1,19.8c-5.9,5.6-12.9,10-20.4,13c-7.5,3-15.6,4.6-23.8,4.7c-8.2,0.1-16.4-1.3-24-4.3
		c-3.8-1.5-7.5-3.3-11-5.5c-3.5-2.2-6.7-4.8-9.6-7.6c-5.9-5.7-10.5-12.6-13.6-20.2C3,80.4,1.5,72.3,1.6,64.2
		c0.1-8.1,1.9-16.1,5.1-23.5c3.2-7.4,7.9-14.1,13.7-19.8c5.8-5.6,12.7-10.1,20.2-13.1c7.5-3,15.6-4.6,23.7-4.6
		C80.6,3,96.7,9.4,108.6,20.6c5.9,5.6,10.8,12.3,14.1,19.8c3.3,7.5,5,15.6,5.1,23.8C127.7,72.3,126,80.5,122.7,88z"/>
	<path class="st2" d="M38,67.1c1.3,0.8,2.8,1.3,4.4,1.4c1.6,0.1,3.2-0.2,4.6-0.9c1.4-0.7,2.6-1.8,3.5-3c1.8-2.5,2.3-5.5,2.3-8.2
		c0-2.8-0.6-5.7-2.3-8.3c-0.9-1.3-2.1-2.4-3.5-3.1c-1.4-0.7-3.1-1.1-4.7-1.2c-3.3-0.1-6.5,1.6-8.5,4c-1,1.2-1.8,2.6-2.2,4.1
		c-0.5,1.5-0.6,3-0.4,4.5c0.3,3,1.5,5.7,3.4,7.9C35.6,65.3,36.7,66.3,38,67.1z M32.9,56.3c0.3-2.6,1.4-4.9,3.1-6.7
		c1.7-1.7,4-2.7,6.4-2.7c1.2,0,2.4,0.2,3.5,0.6c1.1,0.4,2.2,1,3.2,1.8c2,1.6,3.5,4.2,3.5,7c0,1.4-0.3,2.7-1,3.9
		c-0.6,1.2-1.5,2.2-2.5,3c-2,1.6-4.3,2.6-6.7,2.8c-1.2,0.1-2.5,0-3.7-0.4c-1.2-0.4-2.4-1.1-3.3-2.1C33.5,61.6,32.6,58.8,32.9,56.3z"
		/>
	<path class="st2" d="M78.5,64.2c0.9,1.1,2.1,2.1,3.4,2.9c1.3,0.8,2.8,1.3,4.4,1.4c1.6,0.1,3.2-0.2,4.6-0.9c1.4-0.7,2.6-1.8,3.5-3
		c1.8-2.5,2.3-5.5,2.3-8.2c0-2.8-0.6-5.7-2.3-8.3c-0.9-1.3-2.1-2.4-3.5-3.1c-1.4-0.7-3.1-1.1-4.7-1.2c-3.3-0.1-6.5,1.6-8.5,4
		c-1,1.2-1.8,2.6-2.2,4.1c-0.5,1.5-0.6,3-0.4,4.5C75.4,59.2,76.6,62,78.5,64.2z M76.7,56.3c0.3-2.6,1.4-4.9,3.1-6.7
		c1.7-1.7,4-2.7,6.4-2.7c1.2,0,2.4,0.2,3.5,0.6c1.1,0.4,2.2,1,3.2,1.8c2,1.6,3.5,4.2,3.5,7c0,1.4-0.3,2.7-1,3.9
		c-0.6,1.2-1.5,2.2-2.5,3c-2,1.6-4.3,2.6-6.7,2.8c-1.2,0.1-2.5,0-3.7-0.4c-1.2-0.4-2.4-1.1-3.3-2.1C77.3,61.6,76.5,58.8,76.7,56.3z"
		/>
	<path class="st2" d="M95.3,88.1c-0.7-0.8-1.6-1.4-2.5-1.7c-1-0.3-2-0.5-3.1-0.2l-0.1,0c0,0,0,0-0.1,0c0,0,0,0.1,0,0.1
		c0.8,0.4,1.6,0.8,2.3,1.3c0.7,0.5,1.3,1,1.8,1.6c0,0,0,0-0.1,0c-3.5,4-8.3,6.9-13.4,8.6c-5.1,1.8-10.5,2.5-15.9,2.5
		c-5.4,0-10.8-0.9-15.8-2.8c-5-1.9-9.8-4.6-13.6-8.3c0,0-0.1-0.1-0.2,0c-0.1,0-0.1,0.1,0,0.2l0,0c3.1,4.5,7.9,8,13,10.3
		c2.6,1.2,5.3,2,8.1,2.7c2.8,0.6,5.7,0.8,8.5,0.9c2.8,0,5.7-0.3,8.5-0.8c2.8-0.6,5.6-1.3,8.2-2.5c5.2-2.2,10-5.8,12.8-10.6l0,0
		c0.6,0.6,1.1,1.3,1.4,2.1c0.4,0.8,0.5,1.6,0.6,2.5c0,0,0,0,0,0.1c0,0,0.1,0,0.1,0l0,0c0.7-0.9,0.9-2.1,0.6-3.1
		C96.6,89.9,96,88.9,95.3,88.1z"/>
	<path class="st2" d="M38.4,86C38.4,86,38.4,85.9,38.4,86c0.1-0.1,0-0.2,0-0.2l-0.1,0c-1.1-0.3-2.3-0.1-3.2,0.4
		c-1,0.5-1.7,1.4-2.2,2.3c-0.5,0.9-0.8,1.9-0.8,2.9c0,1,0.2,2,0.8,3l0,0c0,0,0,0,0.1,0c0,0,0.1,0,0.1-0.1c0.1-0.9,0.3-1.7,0.5-2.6
		c0.2-0.8,0.6-1.7,1-2.4c0.4-0.8,0.9-1.5,1.6-2.1C36.8,86.8,37.6,86.3,38.4,86z"/>
</g>
</svg>
