<?xml version="1.0" encoding="utf-8"?>
<!-- Generator: Adobe Illustrator 24.1.2, SVG Export Plug-In . SVG Version: 6.00 Build 0)  -->
<svg version="1.1" id="Layer_1" xmlns="http://www.w3.org/2000/svg" xmlns:xlink="http://www.w3.org/1999/xlink" x="0px" y="0px"
	 viewBox="0 0 128 128" style="enable-background:new 0 0 128 128;" xml:space="preserve">
<style type="text/css">
	.st0{fill:#5D5F60;}
	.st1{fill:#BA987F;}
	.st2{fill:#838384;}
	.st3{fill:#515151;}
	.st4{fill:#D3A681;}
	.st5{fill:#DBBA9E;}
	.st6{fill:#A3A3A3;}
	.st7{fill:#2D2D2D;}
	.st8{fill:#AFA9A0;}
	.st9{fill:#39383D;}
</style>
<g>
	<path class="st0" d="M39.7,120.6l-2.2,1.1l-1.7-3.6c-0.1-0.2-0.3-0.4-0.6-0.5c-0.3-0.1-0.6-0.1-0.8,0l-1.1,0.6
		c-1.2-3.2-5.1-12.8-9.6-20.1c-0.4-0.6-0.5-1.4-0.4-2.1c0.1-0.7,0.2-1.3,0.3-1.9c0.4-2.3,0.7-4.1,0.3-6c2.5-2.2,6.8-7.9,8.1-9.9
		c0.4,0.4,1.4,1.7,2.2,2.3c-0.5,0.6-3.8,4.4-4.5,5.9c-0.1,0.1-0.1,0.3-0.1,0.4c0,0.6-0.1,1.8-0.3,3.1c-0.3,2.5-0.7,5.6-0.5,8
		c0,0,0,0.1,0,0.1c0.4,2.1,3.9,14.2,8.2,19.5C37.5,118.1,38.8,119.6,39.7,120.6z"/>
	<path class="st1" d="M22.2,95.7c0,0,4.9,5.7,7.8,2.6c0.7,3.5,3.7,10.3,3.7,10.3l4.4,9l4.3,4.8l-5.2,1.2l-2.3-5l-2.6,1
		c0,0-7.2-16.9-7.5-17S22,97.7,22,97.7L22.2,95.7z"/>
	<path class="st0" d="M103.4,121.5l-2.4,1l-0.8-3.3c-0.1-0.5-0.6-0.8-1.1-0.8l-1.5,0.2c-1-3.6-4.2-15.3-4.8-16.7
		c0-0.1-0.1-0.2-0.2-0.3l0-0.1c-0.8-1-2.4-2.9-2.6-5.2c0-0.3-0.2-0.7-0.5-0.8c-1.1-0.6-6.1-5.7-9-8.7c-0.1-0.1-0.1-0.1-0.2-0.1
		c0.5-1.1,1-2.1,1.4-3.2l3.4,1.2c0.4,0.1,0.8,0.2,1.2,0.2l5.1,8.4c0,0.1,0.1,0.2,0.2,0.2l1.5,1.4c0.3,0.5,2.2,3.4,1.8,6.7
		c0,0.1,0,0.2,0,0.4C96.7,108.6,101.7,118.3,103.4,121.5z"/>
	<path class="st1" d="M90.9,101.3c0,0,3.5,3.2,5.6,1.3c1.3,2.7,5.5,13.5,5.5,13.5l3.2,6.4l-4.7,2.6l-1.3-5.8l-2.6,0.3L90.9,101.3z"
		/>
	<path class="st2" d="M127.8,76.8c0-0.2,0-0.9,0-1.8c0-0.2,0-0.5,0-0.7c0-0.2,0-0.5,0-0.7c0.1-1.1,0-2.2-0.1-3.3
		c-0.1-0.8-0.2-1.5-0.4-2.2c-0.2-0.9-0.4-2-0.6-2.9c-0.1-0.3-0.1-0.6-0.1-0.9c0-0.1,0-0.2,0-0.2c0-0.1,0-0.1,0-0.2
		c0-0.1,0-0.1,0-0.1c0,0,0-0.1,0-0.1c0,0,0,0,0,0c0-0.1,0-0.2,0-0.3c0-0.1,0-0.1,0-0.2c0-0.1,0-0.2,0-0.3c0-0.2-0.1-0.4-0.1-0.6
		c0-0.3-0.1-0.6-0.2-0.9c0-0.2-0.1-0.3-0.1-0.5c-0.1-0.5-0.2-1.1-0.4-1.7c-0.1-0.4-0.2-0.9-0.4-1.3c0-0.1-0.1-0.3-0.1-0.4
		c-0.3-0.8-0.6-1.5-0.9-2c0,0,0,0,0,0c0.1-0.1,0.2-0.2,0.3-0.3c0.1-0.1,0.2-0.2,0.3-0.3c0.2-0.2,0.3-0.4,0.5-0.6
		c0.1-0.1,0.2-0.3,0.3-0.4v0c0.4-0.6,0.7-1.2,1-1.8c0.1-0.2,0.1-0.3,0.2-0.5c0,0,0,0,0,0c0.2-0.7,0.4-1.3,0.5-2
		c0.1-0.7,0.1-1.4,0.1-2c-0.1-1.6-0.4-3-0.7-4.4c-0.3-1.4-0.7-2.8-1.1-4.3c-0.2-0.7-0.5-1.5-0.7-2.2c-0.2-0.7-0.5-1.3-0.8-1.9
		c0,0.1,0,0.2,0.1,0.4c0.2,1.8,0.1,3.7,0,5.5c0,0.5-0.1,0.9-0.1,1.4c0,0.5-0.1,0.9-0.2,1.4c0,0,0,0,0,0c-0.1,0.5-0.1,0.9-0.2,1.4
		c-0.1,0.5-0.2,0.9-0.3,1.4c0,0.1,0,0.2-0.1,0.3c0,0.2-0.1,0.3-0.1,0.5c0,0.2-0.1,0.3-0.1,0.5c-0.1,0.2-0.1,0.4-0.2,0.7
		c0,0.1-0.1,0.2-0.1,0.3c0,0.1-0.1,0.2-0.1,0.3l-0.2,0.6c0,0.1-0.1,0.2-0.1,0.3c0,0.1-0.1,0.2-0.2,0.3v0c-0.1,0.2-0.2,0.3-0.3,0.5
		c-0.1,0.1-0.1,0.2-0.2,0.2c-0.1,0.1-0.1,0.1-0.2,0.2c-0.2,0.2-0.4,0.4-0.7,0.5h0c0-0.1,0-0.2-0.1-0.4c0-0.1,0-0.2-0.1-0.2
		c0-0.1-0.1-0.2-0.1-0.4c-0.1-0.1-0.1-0.3-0.2-0.4l0,0c-0.1-0.2-0.2-0.4-0.3-0.6c-0.1-0.2-0.3-0.4-0.5-0.6c-0.1-0.1-0.2-0.2-0.4-0.4
		c-0.2-0.2-0.5-0.3-0.7-0.4c-0.3-0.1-0.5-0.2-0.8-0.2c-0.1,0-0.2,0-0.3,0c-0.6,0-1.1,0-1.7,0.2c0,0-0.1,0-0.1,0
		c-0.1,0-0.2,0.1-0.3,0.1c-0.3,0.1-0.6,0.3-0.8,0.5c-0.6,0.5-1.2,1.1-1.6,1.8c-0.1,0.2-0.2,0.3-0.2,0.5c0,0.1-0.1,0.2-0.1,0.3
		c0,0.1-0.1,0.2-0.1,0.2c-0.1,0.2-0.1,0.4-0.2,0.5c0,0.1,0,0.2-0.1,0.3c0,0.1,0,0.1,0,0.2c0,0,0,0.1,0,0.1c-4.1-0.1-6.9-0.9-9.1-2.1
		c0,0,0,0,0,0c-2.1-1.2-3.7-2.7-5.3-4.4c-0.3-0.3-0.5-0.5-0.8-0.8l0,0c-0.8-0.8-1.6-1.6-2.5-2.3c-10-6-22.7-5-29.4-0.4
		c-8.3,5.7-25.9,5.4-27,5.4c-1.7-0.2-14-1.9-16.9-1.2c-2.9,0.7-4.9,1.9-6.4,3.1c-0.7,0.2-1.5,0.4-2.2,0.7c-0.5,0.2-1.1,0.4-1.6,0.7
		c-0.6,0.3-1.1,0.6-1.5,1c-1.4,1.1-2.6,2.5-3.5,4.1c-0.1,0.2-0.2,0.4-0.3,0.6C5.1,57,5,57.2,4.9,57.4v0c0,0,0,0.1-0.1,0.1
		c0,0.1-0.1,0.2-0.1,0.3c0,0,0,0,0,0c-0.1,0.3-0.2,0.6-0.3,0.9c-0.1,0.3-0.2,0.5-0.2,0.8c-0.2,0.6-0.3,1.2-0.3,1.8
		c0,0.2,0,0.5-0.1,0.7c0,0.2,0,0.5,0,0.7c0,0,0,0,0,0c0,0.2,0,0.4,0,0.6c0,0.2,0,0.4,0,0.6c0,0.2,0,0.4,0.1,0.6c0,0.1,0,0.2,0,0.3
		c0,0.1,0,0.2,0,0.3c0.2,1.2,0.5,2.3,0.7,3.4c0,0.2,0.1,0.4,0.1,0.6c0.1,0.3,0.1,0.5,0.2,0.8c0.1,0.3,0.1,0.6,0.1,0.8
		c0,0.3,0.1,0.6,0.1,0.8c0,0.1,0,0.3,0,0.4c0,0.1,0,0.3,0,0.4c0,0.1,0,0.2,0,0.3c0,0.5,0.1,1,0.1,1.5c0,1.1,0,2.3,0,3.4
		c0,0.2,0,0.5,0,0.7c0,0.3-0.1,0.6-0.1,0.9c-0.1,0.7-0.2,1.4-0.3,2.2c-0.1,0.4-0.1,0.8-0.2,1.1c-0.1,0.4-0.2,0.8-0.3,1.1
		c-0.1,0.4-0.2,0.8-0.3,1.2C4,85,3.9,85.3,3.9,85.5c-0.1,0.2-0.2,0.5-0.3,0.7c-0.1,0.3-0.2,0.5-0.3,0.8c0,0,0,0.1,0,0.1
		c-0.1,0.2-0.1,0.3-0.2,0.5c0,0,0,0,0,0.1c0,0.1-0.1,0.2-0.1,0.3c0,0,0,0,0,0.1c0,0,0,0.1,0,0.1c0,0.1,0,0.2,0,0.4
		c0,0.2,0,0.5,0,0.7c0,0.1,0,0.2,0,0.3l0,0l0,0.2l0,0.2l0,0.2l0.3,1.7c0.1,0.3,0.1,0.6,0.2,0.8c0.1,0.3,0.2,0.7,0.2,1
		C4,94.1,4.1,94.6,4.2,95c0,0,0,0.1,0,0.1c0.2,0.7,0.4,1.4,0.7,2.1c-0.2,1.8-0.4,3.7-0.8,5.6C4.1,104,3.9,105,3.6,106c0,0,0,0,0,0
		c-0.1,0.5-0.2,1-0.4,1.5c-0.2,0.7-0.4,1.4-0.6,2c-2.3,5.8-2.6,8.3-2.6,8.4c0,0.3,0,0.5,0.2,0.8c0,0,0,0,0.1,0.1
		c0.1,0.1,0.2,0.2,0.4,0.3l0.5,0.2l1.4,0.5v0l0.6,4.7c0,0.1,0,0.2,0.1,0.3c0,0.1,0,0.3,0.1,0.4l0,0l1.1,2.3c0.2,0.4,0.5,0.6,0.9,0.6
		h7.1c0.1,0,0.2,0,0.3,0c0.2-0.1,0.4-0.2,0.5-0.3c0.1-0.1,0.1-0.2,0.2-0.2c0.2-0.4,0.1-0.8-0.1-1.1l-1.7-2l-2-2.4
		c0,0-0.1-0.1-0.1-0.1c-0.1-0.1-0.1-0.2-0.2-0.3c0,0-0.1,0-0.1-0.1c-0.1-0.1-0.2-0.2-0.3-0.3c0,0,0,0,0,0c-0.1-0.1-0.2-0.2-0.3-0.4
		c-0.1-0.1-0.2-0.2-0.3-0.4c-0.1-0.2-0.2-0.3-0.3-0.5c-0.1-0.2-0.2-0.4-0.3-0.7c0-0.1-0.1-0.2-0.1-0.3c0,0,0-0.1,0-0.2
		c0-0.1-0.1-0.2-0.1-0.4c-0.1-0.5-0.1-1,0-1.6c0.1-1.2,0.6-3.7,1.4-6.6c0.1-0.5,0.3-1.1,0.4-1.6c0.1-0.3,0.2-0.6,0.2-0.9
		c0.2-0.6,0.3-1.1,0.5-1.7l0,0l2.7,4.3c0,0,0.1,0.1,0.1,0.1c0,0,0.1,0.1,0.1,0.1c0.1,0.1,0.2,0.1,0.4,0.1c0.1,0,0.2,0,0.3-0.1
		c0.1,0,0.1-0.1,0.2-0.1c0,0,0.1-0.1,0.1-0.1c0.1-0.2,0.1-0.4,0.1-0.6c0,0-1-3.1-1.1-6.4c-0.1-2.4-0.1-3.9-0.1-4.9
		c0.1-0.2,0.2-0.4,0.3-0.6c0.4-0.8,0.8-1.6,1.2-2.3c0.1-0.2,0.3-0.5,0.4-0.7v0c0.2-0.4,0.5-0.7,0.7-1v0c2.2-1.1,4.4-2.5,6.5-4.2v0
		c0,0.7,0,1.4-0.1,2.1c0,0.3-0.1,0.6-0.1,1c0,0.3-0.1,0.7-0.2,1c0,0.2-0.1,0.3-0.1,0.5c-0.1,0.5-0.2,1-0.2,1.5
		c-0.2,1.2,0.1,2.5,0.7,3.5c3.2,5.3,6.2,11.8,8,16.2c0.1,0.2,0.2,0.4,0.3,0.6c0.6,1.5,1.1,2.6,1.3,3.3c0.1,0.2,0.1,0.3,0.1,0.4
		c0.1,0.2,0.1,0.3,0.1,0.3c0,0.1,0.1,0.1,0.1,0.2c0,0.1,0.1,0.1,0.1,0.2c0.1,0.1,0.2,0.2,0.4,0.2c0.1,0,0.3,0.1,0.4,0.1
		c0.2,0,0.3,0,0.5-0.1l1.2-0.6l1.7,3.6c0,0.1,0.1,0.1,0.1,0.2c0,0.1,0,0.2,0.1,0.3l1.1,2.3c0,0.1,0.1,0.1,0.1,0.2c0,0,0,0,0.1,0.1
		c0,0,0.1,0.1,0.2,0.1c0,0,0.1,0.1,0.1,0.1c0.1,0,0.1,0.1,0.2,0.1c0.1,0,0.2,0,0.3,0h7.1c0.1,0,0.2,0,0.3,0c0.1,0,0.3-0.1,0.4-0.2
		c0.1,0,0.1-0.1,0.2-0.2v0c0-0.1,0.1-0.1,0.1-0.2c0.2-0.4,0.1-0.8-0.1-1.1l-1.7-2l-2-2.4c0,0-0.1-0.1-0.1-0.1c0,0-0.1-0.1-0.1-0.1
		c0-0.1-0.1-0.2-0.2-0.3c-0.1-0.1-0.2-0.2-0.2-0.3c-0.1-0.1-0.1-0.1-0.2-0.2c-1-1-2.5-2.8-3.1-3.6c0,0,0-0.1-0.1-0.1
		c-2.3-2.7-4.4-7.9-5.9-12.1c-0.2-0.7-0.4-1.3-0.6-1.9c-0.2-0.7-0.4-1.3-0.6-1.9c-0.1-0.4-0.2-0.8-0.3-1.2c-0.2-0.6-0.3-1.1-0.4-1.4
		c-0.1-1.5,0-3.4,0.2-5.2c0.1-0.5,0.1-1.1,0.2-1.6v0c0-0.3,0.1-0.5,0.1-0.8c0-0.4,0.1-0.7,0.1-1c0-0.1,0-0.2,0-0.3v0
		c0-0.3,0.1-0.5,0.1-0.8c0,0,0,0,0,0c0-0.2,0-0.4,0-0.5v0c0-0.2,0-0.3,0-0.4c0.5-1.2,1.2-2,1.6-2.6c0,0,0.1,0.1,0.1,0.1
		c0.2-0.2,0.4-0.5,0.5-0.7c0.6-0.7,1.2-1.4,1.6-1.8c1.6,1.4,3.8,2.9,6.5,4l0,0c0.5,0.2,1,0.4,1.5,0.6c0.1,0,0.2,0.1,0.3,0.1
		c5.5,0,12.2-1.4,19.8-4.1c0,0,0,0,0,0h0c0,0,0,0,0,0c1.1-0.3,1.9-0.5,2.1-0.6c0.1,0,0.1,0,0.2,0c0.1,0,0.4-0.1,0.7-0.1h0
		c0.8,0,1.7,0.3,2.6,0.7c0.3,0.2,0.7,0.4,1,0.6c0.2,0.1,0.3,0.2,0.4,0.2l0,0c-0.1,0.3-0.2,0.6-0.3,1c-0.2,0.5-0.3,0.9-0.4,1.4
		c0,0.1-0.1,0.2-0.1,0.3c-0.1,0.3-0.1,0.6-0.2,0.8c-0.1,0.4-0.2,0.9-0.3,1.3c-0.2,0.8-0.3,1.7-0.4,2.6c-0.1,0.9-0.1,1.8-0.1,2.7
		c-0.1,0.4-0.2,0.7-0.3,1.1c-0.2,0.6-0.4,1.3-0.5,1.9c-0.1,0.4-0.2,0.8-0.3,1.3c0,0.2-0.1,0.3-0.1,0.5c-0.1,0.6-0.1,1.2-0.1,1.9
		c0,0.2,0,0.3,0,0.5c0,0.3,0.1,0.6,0.1,0.9c-0.1,0.3-0.1,0.6-0.2,1c0,0,0,0,0,0c0,0.2-0.1,0.4-0.1,0.6c-0.6,3-1.5,8.7-2.4,14.1
		c-0.2,0.9-0.3,1.8-0.4,2.4c0,0.2-0.1,0.4-0.1,0.5c0,0,0,0.1,0,0.1c0,0.1,0,0.2,0,0.2c0,0.1,0,0.3,0,0.4c0,0,0,0.1,0,0.1
		c0,0,0,0,0,0.1c0,0,0,0.1,0,0.1c0,0.1,0.1,0.1,0.1,0.2c0.1,0.2,0.3,0.3,0.6,0.4c0.1,0,0.2,0,0.2,0h0c0.3,0,1.3-0.1,2-0.1v0l1.1,2.5
		c0,0.1,0.1,0.2,0.2,0.3c0,0.1,0,0.1,0.1,0.2l1.1,2.3c0,0.1,0.1,0.1,0.1,0.2c0,0,0,0,0.1,0.1c0,0,0.1,0.1,0.1,0.1
		c0.1,0.1,0.2,0.1,0.2,0.1c0,0,0,0,0,0c0.1,0,0.1,0,0.2,0.1c0.1,0,0.1,0,0.2,0h7.1c0.1,0,0.2,0,0.2,0c0.1,0,0.1,0,0.2-0.1
		c0,0,0.1,0,0.1-0.1c0.1-0.1,0.2-0.1,0.2-0.2v0c0.1-0.1,0.1-0.1,0.2-0.2c0.2-0.4,0.1-0.8-0.1-1.1l-3.6-4.4c0-0.1-0.1-0.2-0.2-0.3
		c-0.6-0.7-1.8-2.1-2.8-3.4c-0.2-0.2-0.3-0.4-0.4-0.5c-0.1-0.1-0.2-0.2-0.3-0.3c-0.2-0.3-0.4-0.6-0.6-0.8c0,0,0,0,0,0
		c0.1-1.1,0.2-2.5,0.4-3.8c0.1-0.5,0.1-0.9,0.2-1.4c0-0.3,0.1-0.5,0.1-0.8c0-0.3,0.1-0.6,0.1-0.9c0.1-0.8,0.3-1.5,0.4-2.2
		c0.1-0.3,0.1-0.5,0.2-0.8c0.1-0.3,0.1-0.5,0.2-0.7c0.1-0.2,0.1-0.5,0.2-0.7c0.2-0.6,0.4-1.1,0.6-1.4c0,0,0-0.1,0.1-0.1
		c0.1-0.2,0.3-0.4,0.5-0.7c0.8-0.9,1.8-2.3,2.3-5.6c0.1-0.4,0.1-0.7,0.1-1.1c0-0.1,0-0.3,0-0.4c0.2-0.7,0.5-1.5,1-2.4
		c0.1-0.2,0.2-0.3,0.2-0.5c0.2-0.5,0.5-1.1,0.8-1.6c0.1-0.2,0.3-0.5,0.4-0.8c0.1-0.2,0.2-0.4,0.3-0.7c0.1-0.2,0.2-0.4,0.3-0.7l0,0
		c0.1,0.1,0.2,0.2,0.3,0.3c0.2,0.3,0.5,0.6,0.9,0.9c0.1,0.1,0.2,0.2,0.2,0.3c0.1,0.1,0.2,0.2,0.3,0.3c0.3,0.3,0.6,0.6,0.9,0.9
		c0.1,0.1,0.2,0.2,0.3,0.3c0.5,0.5,1,1.1,1.6,1.6c0.1,0.1,0.2,0.2,0.3,0.3c0.1,0.1,0.2,0.2,0.3,0.3c0.3,0.3,0.6,0.6,0.9,0.9
		c1,1,2,1.8,2.6,2.3c0,0.4,0.1,0.7,0.2,1.1c0,0.1,0.1,0.2,0.1,0.3c0.6,2,1.9,3.5,2.6,4.4c0.1,0.3,0.3,0.9,0.5,1.6
		c0.1,0.2,0.1,0.4,0.2,0.6c0.2,0.7,0.5,1.6,0.7,2.5c0.1,0.3,0.2,0.6,0.3,0.9c0,0.1,0.1,0.2,0.1,0.4c0.4,1.4,0.8,2.8,1.2,4.3
		c0.1,0.4,0.2,0.7,0.3,1c0.1,0.3,0.2,0.6,0.3,0.9c0,0.1,0.1,0.2,0.1,0.4c0.1,0.3,0.2,0.6,0.3,0.9c0.4,1.5,0.8,2.8,1,3.8
		c0,0.2,0.1,0.3,0.2,0.4c0,0,0.1,0.1,0.1,0.1c0,0,0.1,0.1,0.1,0.1c0,0,0.1,0,0.1,0c0.2,0.1,0.3,0.1,0.5,0.1l1.4-0.2v0l0.9,3.6
		c0,0.2,0.1,0.3,0.2,0.4v0c0,0.1,0,0.3,0.1,0.4l0.8,1.6l0.4,0.8c0,0.1,0.1,0.2,0.2,0.2c0.2,0.2,0.4,0.3,0.6,0.3c0,0,0,0,0,0
		c0,0,0,0,0.1,0h7.2c0.1,0,0.2,0,0.2,0c0.1,0,0.1,0,0.2-0.1c0.2-0.1,0.4-0.3,0.5-0.5c0.2-0.4,0.1-0.8-0.1-1.1l-3.7-4.4
		c0,0-0.1-0.1-0.1-0.1c0,0,0-0.1-0.1-0.1c0,0-0.5-0.8-1.1-2.2c-0.1-0.2-0.2-0.4-0.4-0.7c-0.4-0.7-0.8-1.6-1.2-2.5
		c-0.7-1.5-1.5-3.2-2.3-4.9c-1.1-2.4-2.2-5-3-7.3c-0.1-0.3-0.2-0.5-0.3-0.8c-0.2-0.5-0.3-1-0.4-1.5c0.1-0.7,0-1.4,0-2
		c0-0.4-0.1-0.8-0.2-1.2c0,0,0-0.1,0-0.1c-0.1-0.4-0.2-0.8-0.3-1.2c0-0.1-0.1-0.2-0.1-0.3c-0.1-0.2-0.1-0.4-0.2-0.5
		c-0.6-1.6-1.3-2.6-1.4-2.7l0,0c0,0,0-0.1-0.1-0.1c0,0,0,0-0.1-0.1l-1.5-1.4l-4.7-7.6v0c0,0,0,0,0.1,0l3.3-1.7c0,0,0,0,0.1,0l6.4-4
		c0.1,0,0.3,0.1,0.5,0.1c0.2,0,0.5,0.1,0.8,0.2c0,0,0.1,0,0.1,0c0.5,0.1,1.2,0.2,1.9,0.3c0,0,0.1,0,0.1,0c0.7,0.1,1.6,0.2,2.4,0.3
		c0.3,0,0.7,0.1,1,0.1c0.3,0,0.5,0,0.8,0.1c1.7,0.1,3.5,0.1,5.1-0.1h0c0.3,0.7,0.5,1.4,0.7,2l0,0c0,0,0,0,0,0c0,0,0,0.1,0,0.1l0,0
		c0,0.1,0.1,0.3,0.2,0.4c0,0,0,0,0,0c0,0,0,0,0,0.1c0,0,0,0,0,0c0.6,1,1.5,1.8,2.3,2.5c0.2,0.2,0.4,0.4,0.6,0.6
		c0.4,0.4,0.7,0.8,0.9,1.2c0.2,0.5,0.5,0.9,0.9,1.2c0.1,0.1,0.3,0.2,0.4,0.3c0.1,0.1,0.3,0.2,0.4,0.3c0.1,0.1,0.2,0.1,0.3,0.2
		c0.1,0.1,0.2,0.1,0.4,0.2c0.2,0.1,0.3,0.1,0.5,0.2c0.2,0,0.3,0.1,0.5,0.1c0.1,0,0.2,0,0.2,0c0.2,0,0.3,0,0.4,0.1c0.1,0,0.1,0,0.2,0
		c0.1,0,0.2,0,0.4,0c0.2-0.1,0.4-0.2,0.5-0.3c0.1-0.1,0.1-0.2,0.2-0.2c0-0.1,0-0.1,0.1-0.2c0.1,0.2,0.3,0.3,0.3,0.4
		c0,0.1,0.1,0.1,0.2,0.2c0,0,0.1,0.1,0.2,0.1c0,0,0.1,0.1,0.1,0.1c0.1,0,0.2,0.1,0.3,0.1c0.1,0,0.1,0,0.2,0h0.1c0,0,0,0,0.1,0
		c0,0,0.1,0,0.1,0c0.2-0.1,0.4-0.1,0.6-0.2c0.4-0.2,0.7-0.5,1.1-0.8c0.2-0.2,0.4-0.4,0.6-0.7c0.6-0.7,1-1.5,1.3-2.3
		c0-0.1,0.1-0.3,0.2-0.4c0.1-0.1,0.1-0.3,0.2-0.4c0.1-0.3,0.3-0.5,0.4-0.8C128.4,80.9,128,77.4,127.8,76.8z M30.8,84.3
		c-0.1,0.1-1,1.4-1.1,1.6c0,0.1-0.1,0.2-0.1,0.3c-0.1,0.1-0.1,0.3-0.1,0.4v0c0,0.6-0.1,1.8-0.3,3.1c-0.1,0.5-0.1,1-0.2,1.6
		c0,0.2,0,0.4-0.1,0.6c0,0.2,0,0.4-0.1,0.6c0,0.4-0.1,0.8-0.1,1.2c0,0,0,0.1,0,0.1c0,0.2,0,0.3,0,0.5c0,0.2,0,0.3,0,0.5v0
		c0,0,0,0.1,0,0.1c0,0,0,0.1,0,0.1c0,0.1,0,0.3,0,0.4c0,0.1,0,0.1,0,0.2c0,0.7,0,1.4,0,2c0,0,0,0.1,0,0.1c0,0,0,0.1,0,0.1
		c0,0,0,0,0,0c0,0,0,0.1,0,0.1c0,0.1,0,0.1,0,0.2c0,0.1,0,0.1,0,0.2c0,0.1,0.1,0.2,0.1,0.4c0,0.1,0,0.2,0.1,0.2c0,0,0,0,0,0.1
		c0,0,0,0,0,0c0,0,0,0,0,0.1c0,0.1,0,0.2,0.1,0.2c0.1,0.3,0.2,0.6,0.3,1c0.1,0.2,0.1,0.4,0.2,0.6c0.1,0.4,0.2,0.8,0.4,1.2
		c0.1,0.2,0.1,0.4,0.2,0.6c0.1,0.3,0.2,0.6,0.3,0.9c0,0,0,0.1,0,0.1c0.1,0.2,0.2,0.5,0.2,0.7c0.1,0.4,0.2,0.7,0.4,1.1
		c0.1,0.2,0.2,0.5,0.3,0.7c0.3,0.7,0.6,1.5,0.9,2.3c0.2,0.5,0.4,0.9,0.6,1.4c0.1,0.3,0.2,0.6,0.4,0.8c0.1,0.2,0.2,0.4,0.3,0.6
		c0.1,0.3,0.3,0.6,0.4,0.9c0.2,0.5,0.5,0.9,0.7,1.4c0.2,0.3,0.3,0.6,0.5,0.9c0.1,0.1,0.1,0.2,0.2,0.4c0.1,0.2,0.3,0.4,0.4,0.6
		c0.1,0.2,0.3,0.4,0.4,0.6c0.1,0.2,0.2,0.3,0.4,0.5c0,0,0.1,0.1,0.1,0.1c0.1,0.2,0.2,0.3,0.4,0.4v0c0.1,0.1,0.2,0.2,0.2,0.3
		c0,0.1,0.1,0.1,0.1,0.2c0,0,0,0.1,0.1,0.1c0.1,0.2,0.3,0.3,0.4,0.5c0.5,0.6,1,1.2,1.5,1.8c0.1,0.1,0.1,0.1,0.2,0.2c0,0,0,0,0,0h0
		c0,0,0.1,0.1,0.1,0.1c0,0,0.1,0.1,0.1,0.1l-2.2,1.1l-1.7-3.6c-0.1-0.1-0.1-0.2-0.2-0.3c0,0-0.1-0.1-0.2-0.1c-0.1,0-0.1-0.1-0.2-0.1
		c-0.1,0-0.2-0.1-0.3-0.1c-0.1,0-0.1,0-0.2,0c0,0,0,0,0,0c0,0,0,0-0.1,0c0,0,0,0-0.1,0c0,0,0,0,0,0c0,0,0,0,0,0s0,0,0,0
		c0,0,0,0-0.1,0l-1.1,0.6h0c-0.1-0.2-0.2-0.4-0.3-0.7c0-0.1-0.1-0.2-0.2-0.4l0,0c0-0.1-0.1-0.3-0.2-0.4c-0.1-0.3-0.2-0.6-0.4-0.9
		c-0.1-0.2-0.1-0.3-0.2-0.5c-0.2-0.5-0.4-1.1-0.7-1.7c-0.1-0.2-0.2-0.4-0.3-0.6c-0.1-0.2-0.2-0.4-0.2-0.5c-0.1-0.2-0.2-0.5-0.3-0.7
		c-0.1-0.2-0.2-0.4-0.3-0.7c-0.1-0.2-0.2-0.4-0.3-0.7c-0.3-0.7-0.6-1.4-1-2.1l0,0c-0.2-0.5-0.4-1-0.7-1.4c-0.5-1-1-2-1.5-3
		c-1-2-2.1-3.9-3.2-5.8c0-0.1-0.1-0.2-0.1-0.3c0-0.1-0.1-0.2-0.1-0.2c0,0,0,0,0,0c0,0,0-0.1,0-0.1c0-0.1,0-0.1-0.1-0.2
		c0-0.1,0-0.1,0-0.2c0,0,0,0,0-0.1c0,0,0,0,0,0v0c0,0,0-0.1,0-0.1v0c0,0,0,0,0,0c0,0,0,0,0-0.1c0,0,0-0.1,0-0.1c0,0,0-0.1,0-0.1v0
		c0-0.2,0-0.4,0-0.6c0.1-0.5,0.2-1,0.2-1.5c0-0.2,0-0.3,0.1-0.5c0.4-2.3,0.7-4.1,0.3-6v0c0.3-0.3,0.6-0.6,0.9-0.8
		c0,0,0.1-0.1,0.1-0.1c0.3-0.2,0.5-0.5,0.8-0.7l0.2-0.2c0.2-0.2,0.4-0.4,0.6-0.7c0.3-0.3,0.5-0.6,0.8-0.8c0.3-0.3,0.5-0.6,0.7-0.8
		c0.2-0.3,0.4-0.5,0.6-0.8c0.5-0.6,2.9-4.8,3.2-5.3c0.4,0.4,1.8,1.9,2.6,2.4C34,80.5,31.1,83.8,30.8,84.3z M9.9,56.7
		c0.1-0.4,0.3-0.7,0.5-1.1c-0.8,3.1-0.5,6.7,0.9,10.9l0.1,0.1c1.1,2.7,3.9,9.6,2.2,14c0,0.1-0.1,0.2-0.1,0.3
		c-0.4,0.8-0.8,1.6-1.2,2.3c0.1-1.5-0.1-3-0.4-4.5c-0.1-0.8-0.3-1.5-0.4-2.3c-0.2-0.8-0.4-1.5-0.6-2.3c-0.2-0.9-0.5-1.7-0.8-2.6
		c-0.2-0.5-0.3-1-0.5-1.5c0-0.1-0.1-0.2-0.1-0.3c0-0.1,0-0.2-0.1-0.2c-0.2-0.7-0.4-1.3-0.5-2c0-0.1,0-0.1,0-0.2
		c-0.1-0.3-0.1-0.6-0.2-0.9c-0.1-0.4-0.1-0.7-0.2-1.1c-0.2-1-0.2-2-0.1-3c0-0.5,0.1-0.9,0.2-1.4c0-0.2,0.1-0.3,0.1-0.4
		c0-0.2,0.1-0.3,0.1-0.4C9.1,58.9,9.5,57.8,9.9,56.7z M113.5,52.4c0-0.2,0.1-0.4,0.2-0.6c0.1-0.2,0.2-0.4,0.3-0.6
		c0-0.1,0.1-0.1,0.1-0.2c0-0.1,0.1-0.1,0.1-0.2c0.1-0.1,0.2-0.3,0.3-0.4c0.1-0.1,0.2-0.2,0.2-0.2c0,0,0,0,0,0
		c0.1-0.1,0.2-0.2,0.3-0.2c0,0,0,0,0.1,0h0c0.1-0.1,0.2-0.1,0.3-0.2c0,0,0.1-0.1,0.2-0.1c0,0,0.1,0,0.1,0c0,0,0.1,0,0.1-0.1
		c0.4-0.1,0.8-0.2,1.2-0.1c0.2,0,0.3,0.1,0.5,0.2c0,0,0,0,0,0c0.1,0,0.1,0.1,0.2,0.1c0,0,0,0,0,0c0.1,0.1,0.1,0.1,0.2,0.2v0
		c0.1,0.1,0.2,0.2,0.3,0.4c0,0,0.1,0.1,0.1,0.2c0,0,0,0,0,0c0,0,0,0,0,0.1c0,0,0,0,0,0c0,0.1,0.1,0.1,0.1,0.2
		c0.1,0.1,0.1,0.3,0.2,0.4c0,0,0,0.1,0,0.1c0,0,0,0.1,0,0.1c0,0,0,0,0,0c0,0,0,0,0,0c0,0.1,0,0.2,0.1,0.2c0,0.2,0.1,0.3,0.1,0.5
		c0,0,0,0,0,0c-0.8,0.2-1.6,0.4-2.3,0.4l-0.1,0c0,0-0.1,0-0.1,0c0,0-0.1,0-0.1,0c0,0-0.1,0-0.1,0.1c0,0,0,0-0.1,0.1c0,0,0,0-0.1,0.1
		c0,0-0.1,0.1-0.1,0.2c0,0.1-0.1,0.2-0.1,0.3c0,0.2,0,0.4,0.2,0.5c0.1,0.1,0.1,0.1,0.2,0.2h0c0.1,0,0.2,0.1,0.3,0.1
		c0.1,0,0.3,0,0.4,0c0.1,0,0.3,0,0.4,0c0.2,0,0.4,0,0.6,0c0.1,0,0.2,0,0.3,0c0.1,0,0.2,0,0.3,0h0v0c0.2,0,0.4-0.1,0.6-0.1
		c0.2,0,0.4-0.1,0.6-0.1h0c0.4-0.1,0.8-0.3,1.1-0.4c0.2-0.1,0.3-0.2,0.5-0.2c0,0,0,0,0,0c0.1,0,0.2-0.1,0.2-0.2
		c0.1-0.1,0.2-0.2,0.3-0.2h0c0.2-0.2,0.4-0.4,0.6-0.5c0.2-0.2,0.4-0.4,0.6-0.6c0,0,0,0,0-0.1c0.1-0.1,0.1-0.2,0.2-0.3
		c0.1-0.1,0.1-0.2,0.2-0.4v0c0.1-0.2,0.3-0.5,0.4-0.7v0l0.3-0.7c0.1-0.2,0.2-0.5,0.2-0.7c0.1-0.5,0.3-1,0.4-1.5
		c0-0.2,0.1-0.5,0.1-0.7c0.1-0.4,0.1-0.7,0.2-1.1c0-0.4,0.1-0.7,0.1-1c0,0,0-0.1,0-0.1c0-0.3,0-0.5,0-0.8c0-0.1,0-0.2,0-0.2
		c0-0.1,0-0.2,0-0.2v0c0-0.1,0-0.3,0-0.4c0-0.1,0-0.3,0-0.4c0-0.2,0-0.5,0-0.7v0c0,0,0,0,0,0c0-0.3,0-0.5,0-0.8c0-0.1,0-0.1,0-0.2
		c0,0.2,0.1,0.3,0.1,0.5c0.1,0.3,0.1,0.6,0.2,1c0.1,0.5,0.2,1,0.3,1.5c0,0.2,0.1,0.4,0.1,0.5c0.1,0.4,0.1,0.7,0.2,1.1
		c0,0.2,0,0.3,0.1,0.5c0,0,0,0.1,0,0.1c0,0,0,0,0,0.1c0,0,0,0,0,0c0,0.3,0.1,0.6,0.1,0.9c0,0.2,0,0.4,0,0.5l0,0.5v0.3
		c0,0.2,0,0.3,0,0.4c0,0.2,0,0.3,0,0.5c0,0.2,0,0.3-0.1,0.5c0,0.2,0,0.3-0.1,0.5c0,0.2-0.1,0.3-0.1,0.5c-0.1,0.2-0.1,0.5-0.2,0.7
		c0,0.1,0,0.1-0.1,0.2c0,0.2-0.1,0.3-0.2,0.4c-0.5,1.3-1.4,2.3-2.5,3.2c-0.3,0.2-0.5,0.4-0.8,0.6c-0.3,0.2-0.6,0.3-0.9,0.5
		c-0.2,0.1-0.3,0.1-0.5,0.2c-0.3,0.1-0.6,0.2-1,0.3c-0.2,0-0.3,0.1-0.5,0.1c-0.8,0.2-1.6,0.3-2.4,0.2c-0.1,0-0.3,0-0.4,0
		c0,0,0,0-0.1,0h0c0,0,0,0,0,0c-0.2,0-0.3-0.1-0.5-0.1c-0.2,0-0.3-0.1-0.5-0.1c-0.1,0-0.2-0.1-0.3-0.2h0c0,0-0.1,0-0.1-0.1
		c-0.1,0-0.1-0.1-0.2-0.1c0,0,0,0,0,0c0,0-0.1,0-0.1-0.1c-0.1-0.1-0.2-0.1-0.3-0.2c0,0,0,0,0,0c-0.1-0.1-0.2-0.2-0.3-0.3l0,0
		c0,0,0,0,0,0c-0.1-0.1-0.1-0.2-0.2-0.3c0,0,0-0.1-0.1-0.1c-0.1-0.1-0.1-0.2-0.2-0.3c0,0,0,0,0,0v0c0,0,0,0,0,0
		c0-0.1-0.1-0.2-0.1-0.3v0c0,0,0,0,0-0.1c0,0,0,0,0,0c0-0.1-0.1-0.2-0.1-0.4C113.4,53.3,113.4,52.9,113.5,52.4z M4.7,89.8L4.7,89.8
		l-0.1-0.4l0-0.2c0,0,0,0,0-0.1c0,0,0,0,0-0.1c0-0.1,0-0.2,0-0.4c0,0,0-0.1,0-0.1c0-0.1,0-0.1,0-0.2c0-0.2,0.1-0.4,0.2-0.7
		c0.1-0.3,0.2-0.6,0.3-0.8c0.1-0.3,0.2-0.6,0.3-0.8c0-0.1,0.1-0.3,0.1-0.4c0-0.1,0.1-0.3,0.1-0.4C5.9,84.8,6,84.4,6.1,84
		c0.1-0.4,0.2-0.8,0.3-1.2c0.4-1.6,0.6-3.2,0.7-4.8c0-0.4,0-0.7,0.1-1.1c0-0.1,0-0.3,0-0.4v-0.1c0-0.3,0-0.6,0-0.9v0
		c0-0.4,0-0.7,0-1.1c0-0.3,0-0.6,0-0.9c0,0,0,0,0-0.1c0-0.1,0-0.2,0-0.4c0-0.3,0-0.6-0.1-0.9C7,72,7,71.7,7,71.4c0-0.1,0-0.2,0-0.2
		c0-0.3-0.1-0.6-0.1-0.8c0-0.2-0.1-0.4-0.1-0.7c0-0.2-0.1-0.4-0.1-0.5c0-0.1,0-0.1,0-0.2c0,0,0-0.1,0-0.1c-0.1-0.3-0.1-0.6-0.2-0.8
		c0-0.1,0-0.2-0.1-0.2c-0.1-0.3-0.1-0.6-0.2-0.8c-0.1-0.2-0.1-0.5-0.2-0.7c-0.1-0.2-0.1-0.5-0.2-0.7c0-0.1,0-0.2-0.1-0.4
		c0-0.1,0-0.2-0.1-0.4c0-0.1,0-0.3-0.1-0.4c0-0.1,0-0.2,0-0.3c0-0.2,0-0.3,0-0.4c0-0.1,0-0.2,0-0.4c0-0.1,0-0.2,0-0.4v-0.1
		c0-0.2,0-0.4,0-0.6v-0.1c0,0,0,0,0,0c0-0.1,0-0.3,0-0.4c0-0.1,0-0.2,0-0.4c0,0,0-0.1,0-0.1v0c0-0.2,0.1-0.4,0.1-0.6
		c0-0.3,0.1-0.5,0.2-0.8C5.9,59.5,6,59.2,6,59c0.1-0.2,0.1-0.4,0.2-0.5c0-0.1,0.1-0.2,0.1-0.3c0.1-0.2,0.1-0.3,0.2-0.5
		c0.1-0.2,0.2-0.4,0.3-0.5c0-0.1,0.1-0.1,0.1-0.2C6.9,56.9,7,56.8,7,56.7c0.1-0.2,0.2-0.4,0.3-0.5c0.1-0.1,0.2-0.3,0.3-0.4
		c0.7-1.1,1.5-2.1,2.3-2.9c0.2-0.2,0.4-0.4,0.6-0.6c0.2-0.2,0.4-0.3,0.6-0.5c0,0,0,0,0.1,0c0.3-0.2,0.6-0.4,0.9-0.5
		c-0.1,0.1-0.2,0.2-0.2,0.3v0c-0.2,0.3-0.5,0.6-0.7,1c-0.1,0.1-0.2,0.2-0.2,0.4c-0.2,0.4-0.5,0.8-0.7,1.3c0,0-0.1,0-0.1,0.1
		c-0.2,0.2-0.4,0.5-0.6,0.7c-0.3,0.4-0.5,0.8-0.8,1.3c0,0,0,0,0,0c-0.1,0.3-0.3,0.5-0.4,0.8c-0.1,0.3-0.2,0.6-0.3,0.8v0
		c-0.1,0.2-0.2,0.5-0.2,0.7c-0.1,0.2-0.1,0.4-0.2,0.6c-0.1,0.2-0.1,0.5-0.2,0.7c0,0,0,0.1,0,0.1c-0.1,0.2-0.1,0.5-0.2,0.7
		c-0.1,0.4-0.1,0.8-0.2,1.2c0,0.4-0.1,0.8-0.1,1.2c0,0.4,0,0.9,0.1,1.3v0c0,0.1,0,0.3,0.1,0.4c0,0.1,0,0.3,0.1,0.4
		c0,0.1,0,0.1,0,0.2c0,0,0,0,0,0.1c0,0.1,0,0.2,0.1,0.2c0.1,0.3,0.1,0.6,0.2,0.9c0.1,0.3,0.1,0.6,0.2,0.9c0.1,0.5,0.2,0.9,0.3,1.4
		c0.1,0.4,0.2,0.8,0.3,1.1l1,4.5c0.2,0.7,0.3,1.3,0.4,2c0,0,0,0,0,0s0,0,0,0c0,0.1,0,0.2,0.1,0.3c0,0.1,0,0.2,0.1,0.4
		c0.1,0.6,0.2,1.1,0.3,1.7c0,0.4,0.1,0.8,0.1,1.1c0,0.4,0.1,0.8,0.1,1.1c0,0.1,0,0.2,0,0.3c0,0.5,0,0.9,0,1.4c0,0.1,0,0.3,0,0.4v0
		c0,0.2,0,0.4,0,0.5c0,0.4,0,0.7-0.1,1.1c0,0.2,0,0.3-0.1,0.5c0,0.1,0,0.1,0,0.2c-0.1,0.1-0.2,0.2-0.3,0.3c0,0-0.1,0.1-0.1,0.1
		c0,0-0.1,0.1-0.1,0.1c-0.1,0.1-0.2,0.2-0.3,0.3l0,0c-0.1,0.1-0.1,0.1-0.2,0.2l-0.1,0.1C9,86.9,9,87,8.9,87
		c-0.1,0.1-0.3,0.2-0.4,0.4c-0.1,0.1-0.2,0.2-0.3,0.3c-0.1,0.1-0.2,0.2-0.3,0.3c-0.1,0.1-0.2,0.2-0.3,0.3l-0.6,0.5
		c-0.1,0.1-0.2,0.2-0.3,0.2c-0.1,0.1-0.1,0.1-0.2,0.2c-0.1,0.1-0.1,0.1-0.2,0.2c-0.1,0.1-0.2,0.3-0.3,0.5c-0.2,0.4-0.4,0.9-0.4,1.4
		L5.5,92v0c0,0.3-0.1,0.6-0.1,0.9c0,0.1,0,0.2,0,0.3c-0.1-0.6-0.3-1.2-0.4-1.8L4.7,89.8z M10.3,125.9H6.1l-0.5-1.1l2.9-1.2v0
		L10.3,125.9z M10.5,104.2c0-0.2,0.1-0.3,0.2-0.4c0,0,0,0,0,0c0.1-0.2,0.1-0.3,0.2-0.5c0-0.1,0.1-0.2,0.1-0.3
		c0.2-0.4,0.3-0.9,0.5-1.3c0,0.5,0,1,0,1.6c0,1,0.1,2,0.3,2.9L10.5,104.2z M43.2,124.7h-4.3l-0.6-1.2l0.8-0.4h0l0,0l1.9-1l0.4,0.4v0
		L43.2,124.7z M71.4,125.3l-0.6-1.2h0l2.9-1.2l2,2.4H71.4z M106.6,125.8h-4.3l-0.2-0.5l-0.4-0.9l0-0.1h0l0.5-0.2l0,0h0v0h0l0,0
		l2.3-1v0L106.6,125.8z M89.3,89.8l2.1,3.5c0,0.1,0.1,0.1,0.2,0.2l0.4,0.4l0.4,0.3l0.7,0.7c0,0,0,0,0,0c0,0,0,0,0,0c0,0,0,0,0,0
		c0,0,0.1,0.1,0.1,0.2c0.1,0.1,0.1,0.2,0.2,0.4c0,0.1,0.1,0.1,0.1,0.2c0,0.1,0.1,0.2,0.1,0.3c0,0.1,0.1,0.2,0.1,0.3
		c0.1,0.2,0.2,0.4,0.3,0.6c0,0.1,0.1,0.3,0.2,0.4c0.1,0.2,0.1,0.3,0.2,0.5c0,0.2,0.1,0.3,0.1,0.5c0.1,0.2,0.1,0.5,0.2,0.7
		c0,0.1,0,0.3,0.1,0.4c0,0.1,0,0.3,0.1,0.4c0,0.1,0,0.1,0,0.2c0,0.1,0,0.2,0,0.3c0,0,0,0,0,0c0,0.2,0,0.3,0,0.5v0.1
		c0,0.3,0,0.5,0,0.8c0,0,0,0.1,0,0.1c0,0,0,0,0,0v0c0,0,0,0.1,0,0.1c0,0,0,0.1,0,0.1c0.1,0.3,0.2,0.5,0.2,0.8c0,0.1,0,0.2,0.1,0.3
		c0,0.1,0,0.1,0.1,0.2c0,0,0,0.1,0,0.1c0,0,0,0.1,0,0.1c0,0.1,0.1,0.3,0.1,0.4c0.1,0.4,0.3,0.9,0.5,1.4c0.2,0.5,0.3,0.9,0.5,1.4
		c0.3,0.7,0.6,1.4,0.9,2.1c0.2,0.5,0.4,0.9,0.6,1.4c0.1,0.2,0.2,0.5,0.3,0.7c0.2,0.5,0.4,0.9,0.6,1.4c0.1,0.2,0.2,0.5,0.3,0.7
		c0.1,0.2,0.2,0.5,0.3,0.7c1.6,3.3,3.1,6.3,3.9,7.7l-2.4,1l-0.8-3.3c0-0.1,0-0.1-0.1-0.2c0-0.1-0.1-0.2-0.1-0.2c0,0,0,0,0-0.1
		c0,0-0.1-0.1-0.1-0.1c-0.1-0.1-0.2-0.1-0.3-0.2v0c-0.1,0-0.3-0.1-0.5,0l-1.5,0.2c0-0.1-0.1-0.3-0.1-0.4c0-0.1-0.1-0.2-0.1-0.4
		c0-0.1-0.1-0.2-0.1-0.4c-0.1-0.2-0.1-0.4-0.2-0.6c-0.1-0.3-0.2-0.6-0.3-0.9c-0.1-0.4-0.2-0.8-0.3-1.2c-0.1-0.2-0.1-0.4-0.2-0.6
		c0-0.1,0-0.2-0.1-0.3c-0.1-0.3-0.2-0.5-0.2-0.8c-0.2-0.6-0.3-1.1-0.5-1.7c-0.1-0.3-0.2-0.6-0.3-1c0-0.1-0.1-0.3-0.1-0.4
		c0-0.2-0.1-0.3-0.1-0.5l-0.1-0.4c0-0.1-0.1-0.2-0.1-0.3c-0.1-0.2-0.1-0.4-0.2-0.6c0-0.1,0-0.1-0.1-0.2c-0.1-0.3-0.2-0.6-0.2-0.9
		c0-0.2-0.1-0.4-0.1-0.5c0-0.1,0-0.1-0.1-0.2c0-0.2-0.1-0.3-0.1-0.5c-0.1-0.2-0.1-0.4-0.2-0.6c0-0.2-0.1-0.3-0.1-0.5
		c0-0.1-0.1-0.2-0.1-0.3c0-0.2-0.1-0.3-0.1-0.4c0-0.1,0-0.2-0.1-0.2c0-0.2-0.1-0.3-0.1-0.4c0-0.1,0-0.1-0.1-0.2
		c0-0.1-0.1-0.3-0.1-0.4c0,0,0-0.1,0-0.1c0,0,0-0.1,0-0.1c0,0,0-0.1,0-0.1c-0.1-0.2-0.1-0.4-0.2-0.5c0,0,0,0,0,0c0,0,0,0,0,0
		c0,0,0-0.1,0-0.1c0,0,0,0,0,0c0,0,0,0,0,0c0,0,0,0,0,0c0,0,0,0,0-0.1c0-0.1-0.1-0.1-0.1-0.2l0,0c-0.1-0.1-0.2-0.2-0.3-0.3
		c0-0.1-0.1-0.1-0.2-0.2c-0.1-0.1-0.2-0.2-0.3-0.4c-0.1-0.1-0.1-0.2-0.2-0.3c-0.1-0.1-0.1-0.2-0.2-0.3c-0.1-0.1-0.2-0.3-0.3-0.4
		c-0.1-0.1-0.1-0.2-0.2-0.4c-0.1-0.1-0.1-0.3-0.2-0.4c0-0.1-0.1-0.1-0.1-0.2c0,0,0,0,0,0c0-0.1-0.1-0.1-0.1-0.2c0,0,0,0,0,0
		c0-0.1-0.1-0.2-0.1-0.2c0-0.1-0.1-0.2-0.1-0.3c0-0.1-0.1-0.2-0.1-0.3c0-0.1-0.1-0.3-0.1-0.4c0-0.1,0-0.2-0.1-0.4c0,0,0,0,0-0.1
		c0-0.1,0-0.3,0-0.4c0-0.3-0.2-0.7-0.5-0.8c-0.1-0.1-0.2-0.2-0.4-0.3c0,0-0.1-0.1-0.1-0.1c0,0,0,0,0,0v0c0,0,0,0,0,0
		c-0.1,0-0.1-0.1-0.2-0.2c-0.1-0.1-0.3-0.2-0.4-0.4c-0.2-0.1-0.3-0.3-0.5-0.5c-0.2-0.2-0.4-0.3-0.6-0.5c-0.3-0.3-0.6-0.6-0.9-0.9
		c-0.2-0.2-0.4-0.4-0.6-0.6c-0.4-0.4-0.9-0.9-1.3-1.3c-0.2-0.2-0.5-0.5-0.7-0.7c-0.7-0.7-1.4-1.4-2-2c-0.2-0.2-0.4-0.4-0.6-0.6
		c-0.2-0.2-0.4-0.4-0.6-0.6c0,0-0.1-0.1-0.2-0.1c0,0,0,0,0,0h0c0.1-0.1,0.1-0.2,0.2-0.4c0.1-0.1,0.1-0.2,0.2-0.4c0,0,0-0.1,0.1-0.1
		c0.1-0.3,0.2-0.5,0.3-0.8c0.1-0.3,0.2-0.5,0.3-0.8c0.1-0.3,0.2-0.5,0.3-0.8l3.4,1.2c0.4,0.1,0.8,0.2,1.2,0.2l0.1,0.1l0.9,1.4
		l0.5,0.8l0.2,0.3L89.3,89.8z"/>
	<path class="st3" d="M118.8,57.6c0.3,0.1,3.3,7.6,3,13.3c-0.3,5.2-2.9,9.7-3.2,10.5c-0.3,0.9-1.9,2.5-3.3,2.1c0.9,1.8,4.5,5,4.5,5
		l1.3-1.8l1.8,1.4l3-4.2l1.2-6.9l-1-12.9c0,0-2.2-8.9-2.4-8.9S118.8,57.6,118.8,57.6z"/>
	<path class="st0" d="M84.6,79.1c0,0,2.5,0.8,2.7,0.8c0.2-0.1,8.1-3.6,8.1-3.6s3.3-1.7,2.9-5.6c0.7,2.1-0.1,6.8-0.1,6.8L87.4,84
		l-6.3-2L84.6,79.1z"/>
	<path class="st0" d="M110.1,71.3c0,0-0.6,2.4-0.6,2.9c0.3,0.4,4.1,3.8,4,6.8c-0.8-0.2-1.7-1.8-1.7-1.8l-3.1-3l-0.4-2.9L110.1,71.3z
		"/>
	<path class="st4" d="M9.9,87.7c0,0-0.3,5.5,4.8,5.2c-2.2,2.7-7.4,17.7-8.2,20.9s1.9,8.8,1.9,8.8L4,124.4l-0.3-5.4l-2.8-1.4L4.4,107
		l1.8-10.5l0.6-6.3L9.9,87.7z"/>
	<path class="st5" d="M69.9,93.9c0,0,3.5,0.8,6.8-2.9c-1.5,3.4-1.8,7.6-1.8,7.6l-3.2,4.9l-1.8,12.4l5.1,6.7l-5.5,1.3l-1.5-3.3
		l-2.5-0.1l3.3-17.9C68.6,102.4,69,96.6,69.9,93.9z"/>
	<path class="st6" d="M12.7,64.1c0,0-0.3-10,11.7-12.5c8.9-1.8,17.1,0.9,23.3,0.6c6.3-0.3,13.4-3.1,16.1-4.3
		c15-6.7,33.3-1.7,39.2,3.1c0.9-3.9-12.7-9.3-12.7-9.3s-16.3-4.4-26.9,2.9C59.5,46,46.6,50.4,39.5,49c-7.1-1.4-18.6-3.8-24.4,1.9
		C6.4,59.5,12.7,64.1,12.7,64.1z"/>
	<path class="st0" d="M103.5,49.8c2,1.8,0.5,3.5,0.4,5.3c-0.1,0.9-0.2,1.8-0.3,2.7c-0.1,0.4-0.2,0.9-0.3,1.3
		c-0.1,0.4-0.2,0.9-0.3,1.3c-0.2,0.8-0.3,1.6-0.3,2.4c0,0.8,0.1,1.7,0.1,2.5c0.1,0.9,0.2,1.7,0.2,2.6c0,0.9-0.1,1.9-0.5,2.7
		c0.1-0.9,0-1.7-0.2-2.5c-0.2-0.8-0.4-1.6-0.6-2.5c-0.2-0.9-0.3-1.7-0.4-2.7c0-0.9,0-1.9,0.3-2.8c0.1-0.5,0.2-0.9,0.4-1.3
		c0.1-0.4,0.2-0.8,0.3-1.2c0.9-4.5-0.3-6.4-0.1-7.3C102.4,48.6,103.3,51.6,103.5,49.8z"/>
	<path class="st0" d="M107.9,53c0.2,1.5,0.1,3-0.2,4.6c-0.1,0.8-0.3,1.5-0.6,2.2c-0.1,0.4-0.3,0.7-0.4,1.1c-0.1,0.4-0.3,0.7-0.4,1
		c-0.2,0.6-0.4,1.3-0.5,2c-0.1,0.7-0.1,1.4-0.2,2.2c0,0.7-0.1,1.5-0.1,2.3c-0.1,0.8-0.3,1.6-0.8,2.2c0.2-0.7,0.2-1.5,0.1-2.2
		c-0.1-0.7-0.2-1.5-0.2-2.2c-0.1-0.8-0.1-1.5,0-2.3c0.1-0.8,0.2-1.6,0.5-2.4c0.2-0.4,0.3-0.7,0.5-1.1c0.1-0.3,0.3-0.7,0.4-1
		c0.3-0.7,0.5-1.4,0.8-2.1C107.1,55.9,107.5,54.5,107.9,53z"/>
	<path class="st0" d="M113.7,53.9c0,1.7-0.4,3.5-1,5.1c-0.3,0.8-0.6,1.6-1,2.4c-0.2,0.4-0.4,0.8-0.6,1.1c-0.2,0.4-0.5,0.8-0.7,1.1
		c-0.4,0.7-0.7,1.4-0.9,2.1c-0.2,0.8-0.4,1.6-0.5,2.4c-0.2,0.8-0.3,1.7-0.5,2.5c-0.3,0.8-0.6,1.7-1.2,2.3c0.4-0.8,0.4-1.6,0.5-2.5
		c0-0.8,0-1.7,0.1-2.6c0-0.9,0.1-1.8,0.3-2.6c0.2-0.9,0.5-1.8,1-2.6c0.3-0.4,0.5-0.7,0.7-1.1c0.2-0.3,0.4-0.7,0.7-1
		c0.4-0.7,0.8-1.4,1.2-2.2C112.3,57,113,55.5,113.7,53.9z"/>
	<path class="st0" d="M75.6,56.5c0.4,2.3,0.3,4.7,0,7.1c-0.2,1.2-0.4,2.3-0.8,3.5c-0.2,0.6-0.4,1.1-0.6,1.7
		c-0.2,0.6-0.5,1.1-0.6,1.6c-0.4,1-0.6,2-0.7,3.1C73,74.6,73,75.7,73,76.8c0,1.1,0,2.3,0,3.5c-0.1,1.2-0.3,2.4-1,3.4
		c0.3-1.2-1.6-2.6-1.8-3.7c-0.2-1.1,1.4-0.3,1.2-3.1c-0.2-1.2-0.3-2.4-0.3-3.6c0-1.2,0.2-2.5,0.7-3.7c0.2-0.6,0.4-1.1,0.7-1.6
		c0.2-0.5,0.4-1,0.6-1.6c0.4-1.1,0.7-2.1,1.1-3.2C74.6,61,75.2,58.8,75.6,56.5z"/>
	<path class="st0" d="M83.4,64.9c-0.3,1.9-1,3.7-1.9,5.5c-0.4,0.9-0.9,1.7-1.4,2.6c-0.3,0.4-0.5,0.8-0.8,1.2
		c-0.3,0.4-0.6,0.8-0.8,1.1c-0.5,0.7-0.9,1.4-1.3,2.3c-0.4,0.8-0.6,1.7-0.9,2.6c-0.3,0.9-0.6,1.8-1,2.7c-0.4,0.9-0.9,1.8-1.6,2.4
		c0.5-0.8,0.7-1.7,0.9-2.6c0.2-0.9,0.3-1.8,0.5-2.8c0.2-0.9,0.4-1.9,0.8-2.9c0.3-1,0.8-1.9,1.4-2.7c0.3-0.4,0.6-0.8,0.9-1.1
		c0.3-0.4,0.6-0.7,0.8-1.1c0.5-0.7,1.1-1.5,1.6-2.3C81.5,68.2,82.5,66.6,83.4,64.9z"/>
	<path class="st0" d="M68.1,81.4c-0.6,0.1-1.1,0.2-1.6,0.2h0c-0.3,0-0.6,0.1-0.7,0.1c-0.1,0-0.1,0-0.2,0c-0.3,0.1-1,0.3-2.1,0.6
		c0,0,0,0,0,0h0c0,0,0,0,0,0C59,83.6,49.1,86.1,45.7,86c-1.1,0-2.4-0.1-3.8-0.2l0,0c-2.7-1.2-4.9-2.6-6.5-4c-0.4,0.5-2-4.9-2-4.9
		s0.5-1.3,0.5-1.2c1-1.7,3.4-6.1,3.9-7.4c0.5-1.4,0.9-4.2,1-5.4v0c0-0.3,0.1-0.5,0.1-0.5s0.3,9-2.3,13.7c-0.3,0.6-0.1,1.3,0.3,1.8
		c1.2,1.3,2.5,3.3,5.3,3.3c2.5,0,6.3-0.5,9.8-1.1c0.9-0.2,1.8-0.3,2.7-0.5c1.4-0.3,2.7-0.6,3.8-0.8c0.6-0.1,1.1-0.3,1.6-0.4
		c0,0,0.1,0,0.1,0c0.8-0.2,1.6-0.4,2.4-0.5c0.9-0.1,1.7-0.2,2.5-0.1h0c1.5,0.1,2.7,0.5,3.7,1.2c0,0,0.1,0,0.1,0.1
		C69.9,79.6,69.4,81.2,68.1,81.4z"/>
	<circle class="st7" cx="120.4" cy="62.8" r="1.7"/>
	<path class="st8" d="M126.2,47.5c0,1.4-0.2,2.8-0.7,4c-1.1,2.5-3.5,4.3-6.1,4.9c-1.3,0.3-2.7,0.4-3.9-0.1c-1.1-0.4-1.9-1.4-2.1-2.5
		c0-0.9,0.2-1.8,0.6-2.6c0.4-0.8,1.1-1.4,1.9-1.7c0.4-0.1,0.8-0.2,1.2-0.1c0.4,0.1,0.7,0.2,0.9,0.5c0.5,0.5,0.8,1.4,0.9,2.2
		c-0.8,0.2-1.6,0.4-2.3,0.4l-0.1,0c-0.4,0-0.7,0.3-0.7,0.6c0,0.4,0.2,0.7,0.6,0.8c1.1,0.1,2.1,0,3.1-0.3c1-0.3,2-0.8,2.8-1.6
		c0.4-0.4,0.8-0.8,1-1.3c0.1-0.2,0.3-0.5,0.4-0.7l0.3-0.7c0.3-1,0.6-1.9,0.7-2.9c0.3-2,0.4-3.9,0.3-5.9c0-0.1,0-0.2,0-0.3
		c0.2,1,0.4,2,0.5,3C125.9,44.7,126.2,46.2,126.2,47.5z"/>
	<path class="st9" d="M11.7,106.2l-1.2-1.9c0.3-0.9,0.6-1.7,0.9-2.6c0,0.5,0,1,0,1.6C11.5,104.3,11.6,105.3,11.7,106.2z"/>
	<path class="st3" d="M115,63.9c0,0,0.7-5.6-1.9-3.5c-1.5-1-7.6-1.8-7.6-1.8l-3.9,0.7c0,0,1.6,2.9,3.9,4c2.4,1.1,4.3,1.9,4.3,1.9
		L115,63.9z"/>
	<path class="st6" d="M113.5,64.8c0,0,1.9-2.3-0.7-2.5c-1-1.7-7.7-2.2-7.7-2.2l-3.6,0.4c0,0,2.1,2.2,4.5,3.3s4.2,2,4.2,2L113.5,64.8
		z"/>
	<path class="st9" d="M7.3,60.7c-0.2,0.8-0.2,1.6-0.3,2.4c0,0.8,0.1,1.7,0.2,2.4c0.3,1.5,0.7,3,1,4.5l1,4.5c0.3,1.5,0.6,3,0.8,4.5
		c0.2,1.5,0.3,3,0.3,4.4c0,0.7,0,1.4-0.1,2.1c0,0.1,0,0.1,0,0.2c-0.9,0.9-1.9,1.7-2.8,2.4l-0.6,0.5c-0.8,0.6-1.2,1.5-1.3,2.5L5.5,92
		c0,0.4-0.1,0.8-0.1,1.3C5.2,92.7,5.1,92,5,91.4l-0.3-1.7c-0.1-0.6-0.2-0.9,0-1.4c0-0.2,0.1-0.4,0.2-0.7c0.1-0.3,0.2-0.6,0.3-0.8
		c0.2-0.6,0.4-1.1,0.6-1.7c1.4-4.5,1.8-9.3,1.2-14c-0.2-1.2-0.4-2.3-0.7-3.5c-0.3-1.1-0.6-2.2-0.7-3.3c-0.2-1.1-0.2-2.1,0-3.2
		c0.1-1.1,0.4-2.1,0.8-3.1c0.8-2,2.1-3.9,3.6-5.4c0.2-0.2,0.4-0.4,0.6-0.6c0.2-0.2,0.4-0.3,0.6-0.5c0.3-0.2,1.8-0.5,2.1-0.7
		c-0.4,0.5-1,1.5-1.3,2c-0.2,0.4-2.7,2.4-3,3.1C8.1,57.6,7.7,59.2,7.3,60.7z"/>
	<polygon class="st7" points="106.6,125.8 102.3,125.8 101.6,124.4 104.5,123.2 	"/>
	<polygon class="st7" points="75.7,125.3 71.4,125.3 70.8,124.1 73.7,122.9 	"/>
	<polygon class="st7" points="43.2,124.7 38.9,124.7 38.3,123.5 41.1,122.2 	"/>
	<polygon class="st7" points="10.3,125.9 6.1,125.9 5.5,124.8 8.4,123.6 	"/>
	<path class="st0" d="M55,50.4c1.2,2.3,1.8,4.9,2.2,7.5c0.2,1.3,0.3,2.6,0.3,3.9c0,0.7,0,1.3,0,2c0,0.6-0.1,1.3-0.1,1.9
		c-0.1,2.3,0.5,4.7,1.3,7.1c0.4,1.2,0.8,2.4,1.1,3.7c0.3,1.3,0.4,2.7,0,3.9c-0.1-1.3-0.6,0.1-1.1-1.1c-0.5-1.1-1.1-4.8-1.7-6
		c-1.1-2.3-2-5-1.9-7.8c0-0.7,0.1-1.3,0.1-1.9c0-0.6,0.1-1.2,0.1-1.9c0.1-1.2,0-2.5,0.1-3.7C55.4,55.5,55.2,53,55,50.4z"/>
	<path class="st0" d="M63.6,52.2c0.7,2.3,0.8,4.7,0.7,7c0,1.2-0.2,2.4-0.4,3.5c-0.1,0.6-0.2,1.2-0.4,1.8c-0.2,0.6-0.3,1.2-0.4,1.7
		c-0.3,1-0.4,2.1-0.3,3.1c0,1.1,0.1,2.2,0.2,3.3c0.1,1.1,2.1,4.4,2.2,5.6c0,1.2-1.9,0.4-2.5,1.4c0.1-1.2-0.1-2.3-0.4-3.4
		c-0.3-1.1-0.6-2.2-0.9-3.3c-0.3-1.1-0.5-2.3-0.6-3.6c-0.1-1.2,0-2.5,0.3-3.7c0.2-0.7,0.3-1.1,0.5-1.7c0.2-0.5,0.3-1.1,0.4-1.6
		c0.3-1.1,0.5-2.2,0.7-3.3C63.1,56.8,63.4,54.5,63.6,52.2z"/>
	<path class="st0" d="M48.6,57.6c1.4,1.9,2.2,4,2.7,6.2c0.3,1.1,0.4,2.2,0.5,3.2c0,0.5,0,1.1,0,1.6c0,0.5-0.1,1.1-0.1,1.6
		c0,0.9,0.1,1.9,0.4,2.9c0.3,1,0.7,1.9,1.2,2.9c0.5,1,0.9,2,1.3,3.1c0.3,1.1,0.6,2.2,0.1,3.3c-0.1-1.1-1.9-1.1-2.5-2
		c-0.6-0.9-0.1-2.8-0.8-3.8c-0.7-1-1.2-2-1.7-3.1c-0.4-1.1-0.7-2.2-0.6-3.4c0-0.6,0.1-1.1,0.1-1.6c0-0.5,0.1-1,0.1-1.5
		c0-1,0-2.1,0-3.1C49.2,61.8,48.9,59.7,48.6,57.6z"/>
	<path class="st7" d="M102.1,124.2L102.1,124.2L102.1,124.2L102.1,124.2z M127.8,76.8c0-0.2,0-0.9,0-1.8c0-0.2,0-0.5,0-0.7
		c0-0.2,0-0.5,0-0.7c0.1-1.1,0-2.2-0.1-3.3c-0.1-0.7-0.2-1.5-0.4-2.2c-0.2-0.9-0.4-2-0.6-2.9c-0.1-0.3-0.1-0.6-0.1-0.9
		c0-0.1,0-0.2,0-0.2c0-0.1,0-0.1,0-0.2c0-0.1,0-0.1,0-0.1c0,0,0-0.1,0-0.1c0,0,0,0,0,0c0-0.1,0-0.2,0-0.3c0-0.1,0-0.1,0-0.2
		c0-0.1,0-0.2,0-0.3c0-0.2-0.1-0.4-0.1-0.6c0-0.3-0.1-0.6-0.2-0.9c0-0.2-0.1-0.3-0.1-0.5c-0.1-0.5-0.2-1.1-0.4-1.7
		c-0.1-0.4-0.2-0.9-0.4-1.3c0-0.1-0.1-0.3-0.1-0.4c-0.3-0.8-0.6-1.5-0.9-2c0.1-0.1,0.2-0.2,0.3-0.3c0.1-0.1,0.2-0.2,0.3-0.3
		c0.2-0.2,0.3-0.4,0.5-0.6c0.1-0.1,0.2-0.3,0.3-0.4v0c0.4-0.6,0.7-1.2,1-1.8c0.1-0.2,0.1-0.3,0.2-0.5c0,0,0,0,0,0
		c0.2-0.7,0.4-1.3,0.5-2c0.1-0.7,0.1-1.4,0.1-2c-0.1-1.6-0.4-3-0.7-4.4c-0.3-1.4-0.7-2.8-1.1-4.3c-0.2-0.7-0.5-1.5-0.7-2.2
		c-0.2-0.7-0.5-1.3-0.8-1.9c0,0.1,0,0.2,0.1,0.4c0.2,1.8,0.1,3.7,0,5.5c0,0.5-0.1,0.9-0.1,1.4c0,0.5-0.1,0.9-0.2,1.4c0,0,0,0,0,0
		c-0.1,0.5-0.1,0.9-0.2,1.4c-0.1,0.5-0.2,0.9-0.3,1.4c-0.1,0.3-0.1,0.6-0.2,0.8c0,0.2-0.1,0.3-0.1,0.5c-0.1,0.2-0.1,0.4-0.2,0.7
		c0,0.1-0.1,0.2-0.1,0.3c0,0.1-0.1,0.2-0.1,0.3l-0.2,0.6c0,0.1-0.1,0.2-0.1,0.3c0,0.1-0.1,0.2-0.2,0.3v0c-0.1,0.2-0.2,0.3-0.3,0.5
		c-0.1,0.1-0.1,0.2-0.2,0.2c-0.1,0.1-0.1,0.1-0.2,0.2h0c-0.2,0.2-0.4,0.4-0.7,0.6v0c0-0.1-0.1-0.2-0.1-0.4c0-0.1,0-0.2-0.1-0.2
		c0-0.1-0.1-0.2-0.1-0.4c-0.1-0.1-0.1-0.3-0.2-0.4l0,0c-0.1-0.2-0.2-0.4-0.3-0.6c-0.1-0.2-0.3-0.4-0.5-0.6c-0.1-0.1-0.2-0.2-0.4-0.4
		c-0.2-0.2-0.5-0.3-0.7-0.4c-0.3-0.1-0.5-0.2-0.8-0.2c-0.1,0-0.2,0-0.3,0c-0.6,0-1.1,0-1.7,0.2c0,0-0.1,0-0.1,0
		c-0.1,0-0.2,0.1-0.3,0.1c-0.3,0.1-0.6,0.3-0.8,0.5c-0.6,0.5-1.2,1.1-1.6,1.8c-0.1,0.2-0.2,0.3-0.2,0.5c0,0.1-0.1,0.2-0.1,0.3
		c0,0.1-0.1,0.2-0.1,0.2c-0.1,0.2-0.1,0.4-0.2,0.5c0,0.1,0,0.2-0.1,0.3c0,0.1,0,0.1,0,0.2c-6.5-2.1-9.9-4.1-17.2-9.2
		c-0.2-0.1-0.4-0.2-0.6-0.3c-10-6-22.7-5-29.4-0.4c-8.3,5.7-25.9,5.4-27,5.4c-1.7-0.2-14-1.9-16.9-1.2c-2.9,0.7-4.9,1.9-6.4,3.1
		c-0.7,0.2-1.5,0.4-2.2,0.7c-0.5,0.2-1.1,0.4-1.6,0.7c-0.6,0.3-1.1,0.6-1.5,1c-1.4,1.1-2.6,2.5-3.5,4.1c-0.1,0.2-0.2,0.4-0.3,0.6
		C5.1,57,5,57.2,4.9,57.4v0c-0.1,0.1-0.1,0.2-0.2,0.4c0,0,0,0,0,0c-0.1,0.3-0.2,0.6-0.3,0.9c-0.1,0.3-0.2,0.5-0.2,0.8
		c-0.2,0.6-0.3,1.2-0.3,1.8c0,0.2,0,0.5-0.1,0.7c0,0.2,0,0.5,0,0.7c0,0,0,0,0,0c0,0.2,0,0.4,0,0.6c0,0.2,0,0.4,0,0.6
		c0,0.2,0,0.4,0.1,0.6c0,0.2,0,0.4,0.1,0.5c0.2,1.2,0.5,2.3,0.7,3.4c0,0.2,0.1,0.4,0.1,0.6c0.1,0.3,0.1,0.5,0.2,0.8
		c0.1,0.3,0.1,0.6,0.1,0.8c0,0.3,0.1,0.6,0.1,0.8c0,0.1,0,0.1,0,0.2c0,0.1,0,0.1,0,0.2c0,0.1,0,0.3,0,0.4c0,0.1,0,0.2,0,0.3
		c0,0.5,0.1,1,0.1,1.5c0,1.1,0,2.3,0,3.4c0,0.2,0,0.5,0,0.7c0,0.3-0.1,0.6-0.1,0.9c-0.1,0.7-0.2,1.4-0.3,2.2
		c-0.1,0.4-0.1,0.8-0.2,1.1c-0.1,0.4-0.2,0.8-0.3,1.1c-0.1,0.4-0.2,0.8-0.3,1.2C4,85,3.9,85.3,3.9,85.5c-0.1,0.2-0.2,0.5-0.3,0.7
		c0,0,0,0.1,0,0.1c-0.1,0.3-0.2,0.5-0.3,0.8c-0.1,0.2-0.1,0.3-0.2,0.5c0,0,0,0,0,0.1c0,0.1-0.1,0.2-0.1,0.3C3,88,3,88,3,88.1
		c0,0.1,0,0.2,0,0.4c0,0.2,0,0.5,0,0.7c0,0.1,0,0.2,0,0.3l0,0l0,0.2l0,0.2l0,0.2l0.3,1.7c0.1,0.3,0.1,0.6,0.2,0.8
		c0.1,0.3,0.2,0.7,0.2,1C4,94.1,4.1,94.6,4.2,95c0,0,0,0.1,0,0.1c0.2,0.7,0.4,1.4,0.7,2.1c-0.2,1.8-0.4,3.7-0.8,5.6
		C4.1,104,3.9,105,3.6,106c0,0,0,0,0,0c-0.1,0.5-0.2,1-0.4,1.5c-0.2,0.7-0.4,1.4-0.6,2c-2.3,5.8-2.6,8.3-2.6,8.4
		c0,0.3,0,0.5,0.2,0.8c0,0,0,0,0.1,0.1c0.1,0.1,0.2,0.2,0.4,0.3l0.5,0.2l1.4,0.6l0.6,4.7c0,0.1,0,0.2,0.1,0.3l0,0
		c0,0.1,0,0.3,0.1,0.4l0,0l1.1,2.3c0.2,0.4,0.5,0.6,0.9,0.6h7.1c0.1,0,0.2,0,0.3,0c0.2-0.1,0.4-0.2,0.5-0.3c0.1-0.1,0.1-0.2,0.2-0.2
		c0.2-0.4,0.1-0.8-0.1-1.1l-1.7-2l-2-2.4h0c0,0-0.1-0.1-0.1-0.1c-0.1-0.1-0.1-0.2-0.2-0.3c0,0-0.1,0-0.1-0.1
		c-0.1-0.1-0.2-0.2-0.3-0.3c0,0,0,0,0,0c-0.1-0.1-0.2-0.2-0.3-0.4c-0.1-0.1-0.2-0.2-0.3-0.4c-0.1-0.2-0.2-0.3-0.3-0.5
		c-0.1-0.2-0.2-0.4-0.3-0.7c0-0.1-0.1-0.2-0.1-0.3c0,0,0-0.1,0-0.2c0-0.1-0.1-0.2-0.1-0.4c-0.1-0.5-0.1-1,0-1.6
		c0.1-1.2,0.6-3.7,1.4-6.6c0.1-0.5,0.3-1.1,0.4-1.6c0.1-0.3,0.2-0.6,0.2-0.9c0.1-0.3,0.2-0.6,0.3-0.9c0.1-0.3,0.2-0.6,0.3-0.8
		l2.7,4.3c0,0,0.1,0.1,0.1,0.1c0,0,0.1,0.1,0.1,0.1c0.1,0.1,0.2,0.1,0.4,0.1c0.1,0,0.2,0,0.3-0.1c0.1,0,0.1-0.1,0.2-0.1
		c0,0,0.1-0.1,0.1-0.1c0.1-0.2,0.1-0.4,0.1-0.6c0,0-1-3.1-1.1-6.4c-0.1-2.4-0.1-3.9-0.1-4.9c0.1-0.2,0.2-0.4,0.3-0.6
		c0.4-0.8,0.8-1.6,1.2-2.3c0.1-0.2,0.3-0.5,0.4-0.7v0c0.2-0.4,0.5-0.7,0.7-1c2.2-1.1,4.4-2.5,6.5-4.2c0,0.7,0,1.4-0.1,2.1
		c0,0.3-0.1,0.6-0.1,1c0,0.3-0.1,0.7-0.2,1c0,0.2-0.1,0.3-0.1,0.5c-0.1,0.5-0.2,1-0.2,1.5c-0.2,1.2,0.1,2.5,0.7,3.5
		c3.2,5.3,6.2,11.8,8,16.2c0.1,0.2,0.2,0.4,0.3,0.6c0.6,1.5,1.1,2.6,1.3,3.3c0.1,0.2,0.1,0.3,0.1,0.4c0.1,0.2,0.1,0.3,0.1,0.3
		c0,0.1,0.1,0.1,0.1,0.2c0,0.1,0.1,0.1,0.1,0.2c0.1,0.1,0.2,0.2,0.4,0.2l0,0c0.1,0,0.2,0.1,0.4,0.1c0.2,0,0.3,0,0.5-0.1l1.2-0.6
		l1.7,3.6c0,0.1,0.1,0.1,0.1,0.2c0,0.1,0,0.2,0.1,0.3l1.1,2.3c0,0.1,0.1,0.1,0.1,0.2c0,0,0,0,0.1,0.1c0,0,0.1,0.1,0.2,0.1
		c0,0,0.1,0.1,0.1,0.1c0.1,0,0.1,0.1,0.2,0.1c0.1,0,0.2,0,0.3,0h7.1c0.1,0,0.2,0,0.3,0c0.1,0,0.3-0.1,0.4-0.2c0.1,0,0.1-0.1,0.2-0.2
		v0c0-0.1,0.1-0.1,0.1-0.2c0.2-0.4,0.1-0.8-0.1-1.1l-1.7-2l-2-2.4h0c0,0-0.1-0.1-0.1-0.1c0,0-0.1-0.1-0.1-0.1c0-0.1-0.1-0.2-0.2-0.3
		c-0.1-0.1-0.2-0.2-0.2-0.3c-0.1-0.1-0.1-0.1-0.2-0.2c-1-1-2.5-2.8-3.1-3.6c0,0,0-0.1-0.1-0.1c-2.3-2.7-4.4-7.9-5.9-12.1
		c-0.2-0.7-0.4-1.3-0.6-1.9c-0.2-0.7-0.4-1.3-0.6-1.9c-0.1-0.4-0.2-0.8-0.3-1.2c-0.2-0.6-0.3-1.1-0.4-1.4c-0.1-1.5,0-3.4,0.2-5.2
		c0.1-0.5,0.1-1.1,0.2-1.6v0c0-0.3,0.1-0.5,0.1-0.8c0-0.4,0.1-0.7,0.1-1c0-0.1,0-0.2,0-0.3v0c0-0.3,0.1-0.5,0.1-0.8c0,0,0,0,0,0
		c0-0.2,0-0.4,0-0.5v0c0-0.2,0-0.3,0-0.4c0.3-0.7,1-1.6,1.7-2.5c0.2-0.2,0.4-0.5,0.5-0.7c0.6-0.7,1.2-1.4,1.6-1.8
		c1.6,1.4,3.8,2.9,6.5,4l0,0c0.5,0.2,1,0.4,1.5,0.6c0.1,0,0.2,0.1,0.3,0.1c5.5,0,12.2-1.4,19.8-4.1c0,0,0,0,0,0h0c0,0,0,0,0,0
		c0.4-0.2,0.9-0.3,1.4-0.5c0.5-0.2,1.1-0.3,1.7-0.2h0c0.8,0,1.7,0.3,2.6,0.7c0.3,0.2,0.7,0.4,1,0.6c0.2,0.1,0.3,0.2,0.4,0.2l0,0
		c-0.1,0.3-0.2,0.6-0.3,1c-0.2,0.4-0.3,0.9-0.4,1.4c0,0.1-0.1,0.2-0.1,0.3c-0.1,0.3-0.1,0.6-0.2,0.8c-0.1,0.4-0.2,0.9-0.3,1.3
		c-0.2,0.8-0.3,1.7-0.4,2.6c-0.1,0.9-0.1,1.8-0.1,2.7c-0.1,0.4-0.2,0.7-0.3,1.1c-0.2,0.6-0.4,1.3-0.5,1.9c-0.1,0.4-0.2,0.8-0.3,1.3
		c0,0.2-0.1,0.3-0.1,0.5c-0.1,0.6-0.1,1.2-0.1,1.9c0,0.2,0,0.3,0,0.5c0,0.3,0.1,0.6,0.1,0.9c-0.1,0.2-0.1,0.6-0.2,1c0,0,0,0,0,0
		c0,0.2-0.1,0.4-0.1,0.6c-0.6,3-1.5,8.7-2.4,14.1c-0.2,0.9-0.3,1.8-0.4,2.4c0,0.2-0.1,0.4-0.1,0.5c0,0,0,0.1,0,0.1
		c0,0.1,0,0.2,0,0.2c0,0.1,0,0.3,0,0.4c0,0,0,0.1,0,0.1c0,0,0,0,0,0.1c0,0,0,0.1,0,0.1c0,0.1,0.1,0.1,0.1,0.2
		c0.1,0.2,0.3,0.3,0.6,0.4c0.1,0,0.2,0,0.2,0c0,0,0,0,0,0c0.3,0,1.3-0.1,2-0.1l1.1,2.5c0,0.1,0.1,0.2,0.2,0.3c0,0.1,0,0.1,0.1,0.2
		l1.1,2.3c0,0.1,0.1,0.1,0.1,0.2c0,0,0,0,0.1,0.1c0,0,0.1,0.1,0.1,0.1c0.1,0.1,0.2,0.1,0.2,0.1c0,0,0,0,0,0c0.1,0,0.1,0,0.2,0.1
		c0.1,0,0.1,0,0.2,0h7.1c0.1,0,0.1,0,0.2,0c0.1,0,0.1,0,0.2-0.1c0,0,0.1,0,0.1-0.1c0.1-0.1,0.2-0.1,0.2-0.2v0
		c0.1-0.1,0.1-0.1,0.2-0.2c0.2-0.4,0.1-0.8-0.1-1.1l-3.6-4.4c0-0.1-0.1-0.2-0.2-0.3c-0.6-0.7-1.8-2.1-2.8-3.4
		c-0.2-0.2-0.3-0.4-0.4-0.5c-0.1-0.1-0.2-0.2-0.3-0.3c-0.2-0.3-0.4-0.6-0.6-0.8c0.1-1.1,0.2-2.5,0.4-3.9c0.1-0.5,0.1-0.9,0.2-1.4
		c0-0.3,0.1-0.5,0.1-0.8c0-0.3,0.1-0.6,0.1-0.9c0.1-0.8,0.3-1.5,0.4-2.2c0.1-0.3,0.1-0.5,0.2-0.8c0.1-0.3,0.1-0.5,0.2-0.7
		c0.1-0.2,0.1-0.5,0.2-0.7c0.2-0.6,0.4-1.1,0.6-1.4c0,0,0-0.1,0.1-0.1c0.1-0.2,0.3-0.4,0.5-0.7c0.8-0.9,1.8-2.3,2.3-5.6
		c0.1-0.4,0.1-0.7,0.1-1.1c0-0.1,0-0.3,0-0.4c0.2-0.7,0.5-1.5,1-2.4c0.1-0.2,0.2-0.3,0.2-0.5c0.3-0.5,0.5-1.1,0.8-1.6
		c0.1-0.2,0.3-0.5,0.4-0.8c0.1-0.2,0.2-0.4,0.3-0.7c0.1-0.2,0.2-0.4,0.3-0.7c0.1,0.1,0.2,0.2,0.3,0.3c0.2,0.3,0.5,0.6,0.9,0.9
		c0.1,0.1,0.2,0.2,0.2,0.3c0.1,0.1,0.2,0.2,0.3,0.3c0.3,0.3,0.6,0.6,0.9,0.9c0.1,0.1,0.2,0.2,0.3,0.3c0.5,0.5,1,1.1,1.6,1.6
		c0.1,0.1,0.2,0.2,0.3,0.3c0.1,0.1,0.2,0.2,0.3,0.3c0.3,0.3,0.6,0.6,0.9,0.9c1,1,2,1.8,2.6,2.3h0c0.1,0.4,0.1,0.7,0.2,1.1
		c0,0.1,0.1,0.2,0.1,0.3c0.6,2,1.9,3.5,2.6,4.4c0.1,0.3,0.3,0.9,0.5,1.6c0.1,0.2,0.1,0.4,0.2,0.6c0.2,0.7,0.5,1.6,0.7,2.5
		c0.1,0.3,0.2,0.6,0.3,0.9c0,0.1,0.1,0.2,0.1,0.4c0.4,1.4,0.8,2.8,1.2,4.3c0.1,0.4,0.2,0.7,0.3,1c0.1,0.3,0.2,0.6,0.3,0.9
		c0,0.1,0.1,0.2,0.1,0.4c0.1,0.3,0.2,0.6,0.3,0.9c0.4,1.5,0.8,2.8,1,3.8c0,0.2,0.1,0.3,0.2,0.4c0,0,0.1,0.1,0.1,0.1
		c0,0,0.1,0.1,0.1,0.1c0,0,0.1,0,0.1,0c0.2,0.1,0.3,0.1,0.5,0.1l1.4-0.2l0.9,3.6c0,0.2,0.1,0.3,0.2,0.4v0c0,0.1,0,0.3,0.1,0.4
		l0.8,1.6l0.4,0.8c0,0.1,0.1,0.2,0.2,0.2c0.2,0.2,0.4,0.3,0.6,0.3c0,0,0,0,0,0c0,0,0,0,0.1,0c0,0,0,0,0.1,0h7.1c0.1,0,0.2,0,0.2,0
		c0.1,0,0.1,0,0.2-0.1c0.2-0.1,0.4-0.3,0.5-0.5c0.2-0.4,0.1-0.8-0.1-1.1l-3.7-4.4c0,0-0.1-0.1-0.1-0.1c0,0,0-0.1-0.1-0.1
		c0,0-0.5-0.8-1.1-2.2c-0.1-0.2-0.2-0.4-0.4-0.7c-0.4-0.7-0.8-1.6-1.2-2.5c-0.7-1.5-1.5-3.2-2.3-4.9c-1.1-2.4-2.2-5-3-7.3
		c-0.1-0.3-0.2-0.5-0.3-0.8c-0.2-0.5-0.3-1-0.4-1.5c0.1-0.7,0-1.4,0-2c0-0.4-0.1-0.8-0.2-1.2c0,0,0-0.1,0-0.1
		c-0.1-0.4-0.2-0.8-0.3-1.2c0-0.1-0.1-0.2-0.1-0.3c-0.1-0.2-0.1-0.4-0.2-0.5c-0.6-1.6-1.3-2.6-1.4-2.7l0,0c0,0,0-0.1-0.1-0.1
		c0,0,0,0-0.1-0.1l-1.5-1.4l-4.7-7.6c0,0,0,0,0.1,0l3.3-1.7c0,0,0,0,0.1,0l6.4-4c0.1,0,0.3,0.1,0.5,0.1c0.2,0,0.5,0.1,0.8,0.2
		c0,0,0.1,0,0.1,0c0.5,0.1,1.2,0.2,1.9,0.3c0,0,0.1,0,0.1,0c0.7,0.1,1.6,0.2,2.4,0.3c0.3,0,0.7,0.1,1,0.1c0.3,0,0.5,0,0.8,0.1
		c1.7,0.1,3.5,0.1,5.1-0.1c0,0,0,0,0,0c0.3,0.7,0.5,1.4,0.7,2l0,0c0,0,0,0,0,0c0,0,0,0.1,0,0.1c0,0.1,0.1,0.3,0.2,0.4c0,0,0,0,0,0
		c0,0,0,0,0,0.1c0,0,0,0,0,0c0.6,1,1.5,1.8,2.3,2.5c0.2,0.2,0.4,0.4,0.6,0.6c0.4,0.4,0.7,0.8,0.9,1.2c0.2,0.5,0.5,0.9,0.9,1.2
		c0.1,0.1,0.3,0.2,0.4,0.3c0.1,0.1,0.3,0.2,0.4,0.3c0.1,0.1,0.2,0.1,0.3,0.2c0.1,0.1,0.2,0.1,0.4,0.2c0.2,0.1,0.3,0.1,0.5,0.2
		c0.2,0,0.3,0.1,0.5,0.1c0.1,0,0.2,0,0.2,0c0.2,0,0.3,0,0.4,0.1c0.1,0,0.1,0,0.2,0c0.1,0,0.2,0,0.4,0c0.2-0.1,0.4-0.2,0.5-0.3
		c0.1-0.1,0.1-0.2,0.2-0.2c0-0.1,0-0.1,0.1-0.2c0.1,0.2,0.3,0.3,0.3,0.4c0,0.1,0.1,0.1,0.2,0.2c0,0,0.1,0.1,0.2,0.1
		c0,0,0.1,0.1,0.1,0.1c0.1,0,0.2,0.1,0.3,0.1c0.1,0,0.1,0,0.2,0c0,0,0,0,0.1,0c0,0,0,0,0.1,0c0,0,0.1,0,0.1,0
		c0.2-0.1,0.4-0.1,0.6-0.2c0.4-0.2,0.7-0.5,1.1-0.8c0.2-0.2,0.4-0.4,0.6-0.7c0.6-0.7,1-1.5,1.3-2.3c0-0.1,0.1-0.3,0.1-0.4
		c0.1-0.1,0.1-0.3,0.2-0.4c0.1-0.3,0.3-0.5,0.4-0.8C128.4,80.9,128,77.4,127.8,76.8z M113.5,52.4c0-0.2,0.1-0.4,0.2-0.6
		c0.1-0.2,0.2-0.4,0.3-0.6c0-0.1,0.1-0.1,0.1-0.2c0-0.1,0.1-0.1,0.1-0.2c0.1-0.1,0.2-0.3,0.3-0.4c0.1-0.1,0.2-0.2,0.2-0.2
		c0,0,0,0,0,0c0.1-0.1,0.2-0.2,0.3-0.2c0,0,0,0,0.1,0h0c0.1-0.1,0.2-0.1,0.3-0.2c0,0,0.1,0,0.1,0c0,0,0,0,0,0c0,0,0.1,0,0.1,0
		c0,0,0.1,0,0.1,0c0.4-0.1,0.8-0.2,1.2-0.1c0.2,0,0.3,0.1,0.5,0.2c0,0,0,0,0,0c0.1,0,0.1,0.1,0.2,0.1c0,0,0,0,0,0
		c0.1,0.1,0.1,0.1,0.2,0.2c0.1,0.1,0.2,0.2,0.3,0.4c0,0,0.1,0.1,0.1,0.2c0,0,0,0,0,0c0,0,0,0,0,0.1c0,0,0,0,0,0
		c0,0.1,0.1,0.1,0.1,0.2c0.1,0.1,0.1,0.3,0.2,0.4c0,0,0,0.1,0,0.1c0,0,0,0.1,0,0.1c0,0,0,0,0,0c0,0,0,0,0,0c0,0.1,0,0.2,0.1,0.2
		c0,0.2,0.1,0.3,0.1,0.5c0,0,0,0,0,0v0c-0.8,0.2-1.6,0.4-2.3,0.4h-0.1c0,0-0.1,0-0.1,0c0,0-0.1,0-0.1,0c0,0-0.1,0-0.1,0.1
		c0,0,0,0-0.1,0.1c0,0,0,0-0.1,0.1c0,0-0.1,0.1-0.1,0.2c0,0.1-0.1,0.2-0.1,0.3c0,0.2,0,0.4,0.2,0.5c0.1,0.1,0.1,0.1,0.2,0.2h0
		c0.1,0,0.2,0.1,0.3,0.1c0.1,0,0.3,0,0.4,0c0.1,0,0.3,0,0.4,0c0.2,0,0.4,0,0.6,0c0.1,0,0.2,0,0.3,0c0.1,0,0.2,0,0.3,0h0
		c0.2,0,0.4-0.1,0.6-0.1c0.2,0,0.4-0.1,0.6-0.1h0c0.4-0.1,0.8-0.3,1.1-0.4c0.2-0.1,0.3-0.2,0.5-0.2c0,0,0,0,0,0
		c0.1,0,0.2-0.1,0.2-0.2c0.1-0.1,0.2-0.2,0.3-0.2h0c0.2-0.2,0.4-0.3,0.6-0.5c0.2-0.2,0.4-0.4,0.6-0.6c0,0,0,0,0-0.1
		c0.1-0.1,0.1-0.2,0.2-0.3c0.1-0.1,0.1-0.2,0.2-0.4v0c0.1-0.2,0.3-0.5,0.4-0.7v0l0.3-0.7c0.1-0.2,0.2-0.5,0.2-0.7
		c0.1-0.5,0.3-1,0.4-1.5c0-0.2,0.1-0.5,0.1-0.7c0.1-0.4,0.1-0.7,0.2-1.1c0-0.4,0.1-0.7,0.1-1c0,0,0-0.1,0-0.1c0-0.3,0-0.5,0-0.8
		c0-0.1,0-0.2,0-0.2c0-0.1,0-0.2,0-0.2v0c0-0.1,0-0.3,0-0.4c0-0.1,0-0.3,0-0.4c0-0.2,0-0.5,0-0.7v0c0,0,0,0,0,0c0-0.3,0-0.5,0-0.8
		c0-0.1,0-0.1,0-0.2c0,0.2,0.1,0.3,0.1,0.5c0.1,0.3,0.1,0.6,0.2,1c0.1,0.5,0.2,1,0.3,1.5c0,0.2,0.1,0.4,0.1,0.5
		c0.1,0.4,0.1,0.7,0.2,1.1c0,0.2,0,0.3,0.1,0.5c0,0,0,0.1,0,0.1c0,0,0,0,0,0.1c0,0,0,0,0,0c0,0.3,0.1,0.6,0.1,0.9c0,0.2,0,0.4,0,0.5
		c0,0.2,0,0.3,0,0.5c0,0.2,0,0.5,0,0.7c0,0.2,0,0.3,0,0.5c0,0.2,0,0.3-0.1,0.5c0,0.2,0,0.3-0.1,0.5c0,0.2-0.1,0.3-0.1,0.5
		c-0.1,0.2-0.1,0.5-0.2,0.7c0,0.1,0,0.1-0.1,0.2c0,0.2-0.1,0.3-0.2,0.4c-0.5,1.3-1.4,2.3-2.5,3.2c-0.3,0.2-0.5,0.4-0.8,0.6
		c-0.3,0.2-0.6,0.3-0.9,0.5c-0.2,0.1-0.3,0.1-0.5,0.2c-0.3,0.1-0.6,0.2-1,0.3c-0.2,0-0.3,0.1-0.5,0.1c-0.8,0.2-1.6,0.3-2.4,0.2
		c-0.1,0-0.3,0-0.4,0c0,0,0,0-0.1,0h0c0,0,0,0,0,0c-0.2,0-0.3-0.1-0.5-0.1c-0.2,0-0.3-0.1-0.5-0.1c-0.1,0-0.2-0.1-0.3-0.2h0
		c0,0-0.1,0-0.1-0.1c-0.1,0-0.1-0.1-0.2-0.1c0,0,0,0,0,0c0,0-0.1,0-0.1-0.1c-0.1-0.1-0.2-0.1-0.3-0.2c0,0,0,0,0,0
		c-0.1-0.1-0.2-0.2-0.3-0.3l0,0c0,0,0,0,0,0c-0.1-0.1-0.1-0.2-0.2-0.3c0,0,0-0.1-0.1-0.1c-0.1-0.1-0.1-0.2-0.2-0.3c0,0,0,0,0,0v0
		c0,0,0,0,0,0c0-0.1-0.1-0.2-0.1-0.3v0c0,0,0,0,0-0.1c0,0,0,0,0,0c0-0.1-0.1-0.2-0.1-0.4C113.4,53.3,113.4,52.9,113.5,52.4z
		 M11.9,78.8c-0.1-0.8-0.3-1.5-0.4-2.3c-0.2-0.8-0.4-1.5-0.6-2.3c-0.2-0.9-0.5-1.7-0.8-2.6c-0.2-0.5-0.3-1-0.5-1.5
		c0-0.1-0.1-0.2-0.1-0.3c0-0.1,0-0.2-0.1-0.2c-0.2-0.7-0.4-1.3-0.5-2c0-0.1,0-0.2-0.1-0.2c-0.1-0.3-0.1-0.6-0.2-0.9
		c-0.1-0.4-0.1-0.7-0.2-1.1c-0.2-1-0.2-2-0.1-3c0.1-0.5,0.1-0.9,0.2-1.4c0-0.2,0.1-0.3,0.1-0.5c0-0.2,0.1-0.3,0.1-0.4
		c0.3-1.2,0.6-2.3,1.1-3.3c0.1-0.4,0.3-0.7,0.5-1.1c-0.8,3.1-0.5,6.7,0.9,10.9l0.1,0.1c1.1,2.7,3.9,9.6,2.2,14
		c0,0.1-0.1,0.2-0.1,0.3c-0.4,0.8-0.8,1.6-1.2,2.3C12.3,81.7,12.1,80.2,11.9,78.8z M4.7,89.8L4.7,89.8l-0.1-0.4l0-0.2c0,0,0,0,0-0.1
		c0,0,0,0,0-0.1c0-0.1,0-0.2,0-0.4c0-0.1,0-0.2,0-0.3c0-0.2,0.1-0.4,0.2-0.7c0.1-0.2,0.2-0.5,0.3-0.8c0,0,0-0.1,0-0.1
		c0.1-0.3,0.2-0.6,0.3-0.8c0-0.1,0.1-0.3,0.1-0.4c0-0.1,0.1-0.2,0.1-0.3c0,0,0-0.1,0-0.1C5.9,84.8,6,84.4,6.1,84
		c0.1-0.4,0.2-0.8,0.3-1.2c0.4-1.6,0.6-3.2,0.7-4.8c0-0.4,0-0.7,0.1-1.1c0-0.1,0-0.3,0-0.4v-0.1c0-0.3,0-0.6,0-0.9v0
		c0-0.4,0-0.7,0-1.1c0-0.3,0-0.6,0-0.9c0,0,0,0,0-0.1c0-0.1,0-0.2,0-0.4c0-0.3,0-0.6-0.1-0.9C7,72,7,71.7,7,71.4c0-0.1,0-0.2,0-0.2
		c0-0.3-0.1-0.6-0.1-0.8c0-0.2-0.1-0.4-0.1-0.7c0-0.2-0.1-0.4-0.1-0.5c0-0.1,0-0.1,0-0.2c0,0,0-0.1,0-0.1c-0.1-0.3-0.1-0.6-0.2-0.8
		c0-0.1,0-0.2-0.1-0.2c-0.1-0.3-0.1-0.6-0.2-0.8c-0.1-0.2-0.1-0.5-0.2-0.7c-0.1-0.2-0.1-0.5-0.2-0.7c0-0.1,0-0.2-0.1-0.4
		c0-0.1,0-0.2-0.1-0.4c0-0.1,0-0.3-0.1-0.4c0-0.1,0-0.2,0-0.3c0-0.2,0-0.3,0-0.4c0-0.1,0-0.2,0-0.4c0-0.1,0-0.2,0-0.4v-0.1
		c0-0.2,0-0.4,0-0.6v-0.1c0,0,0,0,0,0c0-0.1,0-0.3,0-0.4c0-0.2,0-0.3,0.1-0.5v0c0-0.2,0.1-0.4,0.1-0.6c0-0.3,0.1-0.5,0.2-0.8
		C5.9,59.5,5.9,59.2,6,59c0.1-0.2,0.1-0.4,0.2-0.5c0.1-0.2,0.2-0.5,0.3-0.7c0.8-1.7,1.9-3.2,3.4-4.4c0.4-0.3,0.8-0.6,1.3-0.9
		c0,0,0,0,0,0c0.3-0.2,0.6-0.3,1-0.5c-0.3,0.4-0.6,0.8-0.8,1.2c0,0.1,0,0.1-0.1,0.2c0,0-0.1,0-0.1,0.1c-0.4,0.2-0.7,0.4-0.9,0.7
		l-0.1,0.1c-0.2,0.2-0.4,0.5-0.6,0.7c-0.3,0.4-0.5,0.8-0.8,1.3c0,0,0,0,0,0c-0.1,0.3-0.3,0.5-0.4,0.8c-0.1,0.3-0.2,0.6-0.3,0.8v0
		c-0.1,0.2-0.2,0.5-0.2,0.7c-0.1,0.2-0.1,0.4-0.2,0.6c-0.1,0.2-0.1,0.5-0.2,0.7c0,0,0,0.1,0,0.1c-0.1,0.2-0.1,0.5-0.2,0.7
		c-0.1,0.4-0.1,0.8-0.2,1.2c0,0.4-0.1,0.8-0.1,1.2c0,0.4,0,0.9,0.1,1.3v0c0,0.1,0,0.3,0.1,0.4c0,0.1,0,0.3,0.1,0.4
		c0,0.1,0,0.1,0,0.2c0,0,0,0,0,0.1c0,0.1,0,0.2,0.1,0.2c0.1,0.3,0.1,0.6,0.2,0.9c0.1,0.3,0.1,0.6,0.2,0.9c0.1,0.5,0.2,0.9,0.3,1.4
		c0.1,0.4,0.2,0.8,0.3,1.1l1,4.5c0.2,0.7,0.3,1.3,0.4,2c0,0,0,0,0,0s0,0,0,0c0,0.1,0,0.2,0.1,0.3c0,0.1,0,0.2,0.1,0.4
		c0.1,0.6,0.2,1.1,0.3,1.7c0,0.4,0.1,0.8,0.1,1.1c0,0.4,0.1,0.8,0.1,1.1c0,0.1,0,0.2,0,0.3c0,0.5,0,0.9,0,1.4c0,0.1,0,0.3,0,0.4v0
		c0,0.2,0,0.4,0,0.5c0,0.4,0,0.7-0.1,1.1c0,0.2,0,0.3-0.1,0.5c0,0.1,0,0.1,0,0.2c-0.1,0.1-0.2,0.2-0.3,0.3c0,0-0.1,0.1-0.1,0.1
		c0,0-0.1,0.1-0.1,0.1c-0.1,0.1-0.2,0.2-0.3,0.3l0,0c-0.1,0.1-0.1,0.1-0.2,0.2l-0.1,0.1C9,86.9,9,87,8.9,87
		c-0.1,0.1-0.3,0.2-0.4,0.4c-0.1,0.1-0.2,0.2-0.3,0.3c-0.1,0.1-0.2,0.2-0.3,0.3c-0.1,0.1-0.2,0.2-0.3,0.3l-0.6,0.5
		c-0.1,0.1-0.2,0.2-0.3,0.2c-0.1,0.1-0.1,0.1-0.2,0.2c-0.1,0.1-0.1,0.1-0.2,0.2c-0.1,0.1-0.2,0.3-0.3,0.5c-0.2,0.4-0.4,0.9-0.4,1.4
		L5.5,92v0c0,0.3,0,0.6-0.1,0.9c0,0.1,0,0.2,0,0.3c-0.1-0.6-0.3-1.2-0.4-1.8L4.7,89.8z M10.3,125.9H6.1l-0.5-1.1l2.9-1.2L10.3,125.9
		z M10.5,104.2c0-0.2,0.1-0.3,0.1-0.4c0,0,0,0,0,0c0.1-0.2,0.1-0.3,0.2-0.5c0-0.1,0.1-0.2,0.1-0.3c0.2-0.4,0.3-0.9,0.5-1.3
		c0,0.5,0,1,0,1.6c0,1,0.1,2,0.3,2.9L10.5,104.2z M43.2,124.7h-4.3l-0.6-1.2l0.8-0.4h0l0,0l1.9-1h0l0.4,0.4v0L43.2,124.7z
		 M32.1,82.4c-1,1.3-1.9,2.5-2.4,3.4c0,0.1-0.1,0.2-0.1,0.3c-0.1,0.1-0.1,0.3-0.1,0.4v0c0,0.6-0.1,1.8-0.3,3.1
		c-0.1,0.5-0.1,1-0.2,1.6c0,0.2,0,0.4-0.1,0.6c0,0.2,0,0.4-0.1,0.6c0,0.4-0.1,0.9-0.1,1.3c0,0.4-0.1,0.9-0.1,1.3c0,0.2,0,0.4,0,0.6
		c0,0.7,0,1.4,0,2c0,0,0,0.1,0,0.1c0,0,0,0.1,0,0.1c0,0,0,0,0,0c0,0,0,0.1,0,0.1c0,0.1,0,0.1,0,0.2c0,0.1,0,0.1,0,0.2
		c0,0.1,0.1,0.2,0.1,0.4c0,0.1,0,0.2,0.1,0.2c0,0,0,0,0,0.1c0,0,0,0,0,0c0,0,0,0,0,0.1c0,0.1,0,0.2,0.1,0.2c0.1,0.3,0.2,0.6,0.3,1
		c0.1,0.2,0.1,0.4,0.2,0.6c0.1,0.4,0.2,0.8,0.4,1.2c0.1,0.2,0.1,0.4,0.2,0.6c0.1,0.3,0.2,0.6,0.3,0.9c0,0,0,0.1,0,0.1
		c0.1,0.2,0.2,0.5,0.2,0.7c0.1,0.4,0.2,0.7,0.4,1.1c0.1,0.2,0.2,0.5,0.3,0.7c0.3,0.7,0.6,1.5,0.9,2.3c0.2,0.5,0.4,0.9,0.6,1.4
		c0.1,0.3,0.2,0.6,0.4,0.8c0.1,0.2,0.2,0.4,0.3,0.6c0.1,0.3,0.3,0.6,0.4,0.9c0.2,0.5,0.5,0.9,0.7,1.4c0.2,0.3,0.3,0.6,0.5,0.9
		c0.1,0.1,0.1,0.2,0.2,0.4c0.1,0.2,0.3,0.4,0.4,0.6c0.1,0.2,0.3,0.4,0.4,0.6c0.1,0.2,0.2,0.3,0.4,0.5c0,0,0.1,0.1,0.1,0.1
		c0.1,0.2,0.2,0.3,0.4,0.4v0c0.1,0.1,0.2,0.2,0.2,0.3c0,0.1,0.1,0.1,0.1,0.2c0,0,0,0.1,0.1,0.1c0.1,0.2,0.3,0.3,0.4,0.5
		c0.5,0.6,1,1.2,1.5,1.8c0.1,0.1,0.1,0.1,0.2,0.2c0,0,0,0,0,0c0,0,0.1,0.1,0.1,0.1c0,0,0.1,0.1,0.1,0.1h0v0l-2.2,1.1l-1.7-3.6
		c-0.1-0.1-0.1-0.2-0.2-0.3c0,0-0.1-0.1-0.2-0.1c-0.1,0-0.1-0.1-0.2-0.1c-0.1,0-0.2-0.1-0.3-0.1c-0.1,0-0.1,0-0.2,0c0,0,0,0,0,0
		c0,0,0,0-0.1,0c0,0,0,0-0.1,0c0,0,0,0,0,0c0,0,0,0,0,0s0,0,0,0c0,0,0,0-0.1,0l-1.1,0.6c-0.1-0.2-0.2-0.4-0.3-0.7
		c0-0.1-0.1-0.2-0.2-0.4l0,0c0-0.1-0.1-0.3-0.2-0.4c-0.1-0.3-0.2-0.6-0.4-0.9c-0.1-0.2-0.1-0.3-0.2-0.5c-0.2-0.5-0.4-1.1-0.7-1.7
		c-0.2-0.4-0.3-0.8-0.5-1.2c-0.1-0.2-0.2-0.5-0.3-0.7c-0.1-0.2-0.2-0.4-0.3-0.7c-0.1-0.2-0.2-0.4-0.3-0.7c-0.3-0.7-0.6-1.4-1-2.1
		l0,0c-0.2-0.5-0.4-1-0.7-1.4c-0.5-1-1-2-1.5-3c-1-2-2.1-3.9-3.2-5.8c0-0.1-0.1-0.2-0.1-0.3c0-0.1-0.1-0.2-0.1-0.2c0,0,0,0,0,0
		c0,0,0-0.1,0-0.1c0-0.1,0-0.1-0.1-0.2c0-0.1,0-0.1,0-0.2c0,0,0,0,0,0c0,0,0,0,0-0.1c0,0,0-0.1,0-0.1v0c0,0,0,0,0,0c0,0,0,0,0-0.1
		c0-0.1,0-0.1,0-0.2c0-0.2,0-0.4,0-0.7c0.1-0.5,0.2-1,0.2-1.5c0-0.2,0-0.3,0.1-0.5c0.4-2.3,0.7-4.1,0.3-6c0.3-0.3,0.6-0.6,0.9-0.8
		c0,0,0.1-0.1,0.1-0.1c0.3-0.2,0.5-0.5,0.8-0.7l0.2-0.2c0.2-0.2,0.4-0.4,0.6-0.7c0.3-0.3,0.5-0.6,0.8-0.8c0.3-0.3,0.5-0.6,0.7-0.8
		c0.2-0.3,0.4-0.5,0.6-0.8c0.5-0.6,0.9-1.1,1.2-1.6c0.2-0.2,0.3-0.4,0.4-0.7c0.1,0,0.1-0.1,0.2-0.1c0.1-0.1,0.1-0.1,0.2-0.2v0
		c0.6-0.6,1.2-1.2,1.7-1.8c0.4,0.4,0.9,1,1.6,1.7C33.2,81.1,32.6,81.7,32.1,82.4z M75.7,125.3L75.7,125.3l-4.3,0v0h0l-0.6-1.2
		l2.9-1.2h0L75.7,125.3z M106.6,125.8h-4.3v0l-0.2-0.5l-0.4-0.9l0-0.1l0.5-0.2l0,0h0l0,0l0,0l2.3-1L106.6,125.8L106.6,125.8
		L106.6,125.8z M89.3,89.8l2.1,3.5c0,0.1,0.1,0.1,0.2,0.2v0l0.4,0.4l0.4,0.3l0.7,0.7h0c0,0,0,0,0,0.1c0,0,0,0,0,0
		c0,0,0.1,0.1,0.1,0.2c0.1,0.1,0.1,0.2,0.2,0.4c0,0.1,0.1,0.1,0.1,0.2c0,0.1,0.1,0.2,0.1,0.3c0,0.1,0.1,0.2,0.1,0.3
		c0.1,0.2,0.2,0.4,0.3,0.6c0,0.1,0.1,0.3,0.2,0.4c0.1,0.2,0.1,0.3,0.2,0.5c0,0.2,0.1,0.3,0.1,0.5c0.1,0.2,0.1,0.5,0.2,0.7
		c0,0.1,0,0.3,0.1,0.4c0,0.1,0,0.3,0.1,0.4c0,0.1,0,0.1,0,0.2c0,0.1,0,0.2,0,0.3c0,0,0,0,0,0c0,0.2,0,0.3,0,0.5v0.1
		c0,0.3,0,0.5,0,0.8c0,0.1,0,0.2,0,0.2c0,0,0,0.1,0,0.1c0.1,0.3,0.2,0.5,0.2,0.8c0,0.1,0.1,0.2,0.1,0.3v0c0,0.1,0.1,0.2,0.1,0.3
		c0,0,0,0.1,0,0.1c0,0.1,0.1,0.3,0.1,0.4c0.1,0.4,0.3,0.9,0.5,1.4c0.2,0.5,0.3,0.9,0.5,1.4c0.3,0.7,0.6,1.4,0.9,2.1
		c0.2,0.5,0.4,0.9,0.6,1.4c0.1,0.2,0.2,0.5,0.3,0.7c0.2,0.5,0.4,0.9,0.6,1.4c0.1,0.2,0.2,0.5,0.3,0.7c0.1,0.2,0.2,0.5,0.3,0.7
		c1.6,3.3,3.1,6.3,3.9,7.7l0,0l-2.4,1l-0.8-3.3l0,0c0-0.1,0-0.1-0.1-0.2c0-0.1-0.1-0.2-0.1-0.2c0,0,0,0,0-0.1c0,0-0.1-0.1-0.1-0.1
		c-0.1-0.1-0.2-0.1-0.3-0.2c-0.2,0-0.3-0.1-0.5,0l-1.5,0.2v0c0-0.1-0.1-0.3-0.1-0.4c0-0.1-0.1-0.2-0.1-0.4c0-0.1-0.1-0.2-0.1-0.4
		c-0.1-0.2-0.1-0.4-0.2-0.6c-0.1-0.3-0.2-0.6-0.3-0.9c-0.1-0.4-0.2-0.8-0.3-1.2c-0.1-0.2-0.1-0.4-0.2-0.6c0-0.1,0-0.2-0.1-0.3
		c-0.1-0.3-0.2-0.5-0.2-0.8c-0.2-0.6-0.3-1.1-0.5-1.7c-0.1-0.3-0.2-0.6-0.3-1c0-0.1-0.1-0.3-0.1-0.4c0-0.2-0.1-0.3-0.1-0.5l-0.1-0.4
		c0-0.1-0.1-0.2-0.1-0.3c-0.1-0.2-0.1-0.4-0.2-0.6c0-0.1,0-0.1-0.1-0.2c-0.1-0.3-0.2-0.6-0.2-0.9c0-0.2-0.1-0.4-0.1-0.5
		c0-0.1,0-0.1-0.1-0.2c0-0.2-0.1-0.3-0.1-0.5c-0.1-0.2-0.1-0.4-0.2-0.6c0-0.2-0.1-0.3-0.1-0.5c0-0.1-0.1-0.2-0.1-0.3
		c0-0.2-0.1-0.3-0.1-0.4c0-0.1,0-0.2-0.1-0.2c0-0.2-0.1-0.3-0.1-0.4c0-0.1,0-0.1-0.1-0.2c0-0.1-0.1-0.3-0.1-0.4c0,0,0-0.1,0-0.1l0,0
		c0,0,0-0.1,0-0.1c0,0,0-0.1,0-0.1c-0.1-0.2-0.1-0.4-0.2-0.5c0,0,0,0,0,0c0,0,0-0.1,0-0.1c0,0,0,0,0,0c0,0,0,0,0,0c0,0,0,0,0,0
		c0,0,0,0,0-0.1c0-0.1-0.1-0.1-0.1-0.2l0,0c-0.1-0.1-0.2-0.2-0.3-0.3c0-0.1-0.1-0.1-0.2-0.2c-0.1-0.1-0.2-0.2-0.3-0.4
		c-0.1-0.1-0.1-0.2-0.2-0.3c-0.1-0.1-0.1-0.2-0.2-0.3c-0.1-0.1-0.2-0.3-0.3-0.4c-0.1-0.1-0.1-0.2-0.2-0.4c-0.1-0.1-0.1-0.3-0.2-0.4
		c0-0.1-0.1-0.1-0.1-0.2c0,0,0,0,0,0c0-0.1-0.1-0.1-0.1-0.2c0,0,0,0,0,0c0-0.1-0.1-0.2-0.1-0.2c0-0.1-0.1-0.2-0.1-0.3
		c0-0.1-0.1-0.2-0.1-0.3c0-0.1-0.1-0.3-0.1-0.4c0-0.1,0-0.2-0.1-0.4c0,0,0,0,0-0.1c0-0.1,0-0.3,0-0.4c0-0.3-0.2-0.7-0.5-0.8
		c-0.1-0.1-0.2-0.2-0.4-0.3c0,0-0.1-0.1-0.1-0.1c0,0,0,0,0,0c0,0,0,0,0,0c-0.1,0-0.1-0.1-0.2-0.2c-0.1-0.1-0.3-0.2-0.4-0.4
		c-0.2-0.1-0.3-0.3-0.5-0.5c-0.2-0.2-0.4-0.3-0.6-0.5c-0.3-0.3-0.6-0.6-0.9-0.9c-0.2-0.2-0.4-0.4-0.6-0.6c-0.4-0.4-0.9-0.9-1.3-1.3
		c-0.2-0.2-0.5-0.5-0.7-0.7c-0.7-0.7-1.4-1.4-2-2c-0.2-0.2-0.4-0.4-0.6-0.6c-0.2-0.2-0.4-0.4-0.6-0.6c0,0-0.1-0.1-0.2-0.1
		c0,0,0,0,0,0c0.1-0.1,0.1-0.2,0.2-0.4c0.1-0.1,0.1-0.2,0.2-0.4c0,0,0-0.1,0.1-0.1c0.1-0.3,0.2-0.5,0.3-0.8c0.1-0.3,0.2-0.5,0.3-0.8
		c0,0,0-0.1,0.1-0.1l3.8,0.8c0,0,0,0,0.1,0c0.3,0,0.6,0.1,0.9,0.1c0,0,0.1,0,0.1,0h0l0.9,1.4l0.5,0.8l0.2,0.3L89.3,89.8z
		 M113.6,81.2C113.6,81.1,113.5,81.1,113.6,81.2L113.6,81.2c-0.1-0.1-0.1-0.1-0.1-0.1c-0.2-0.6-0.4-1.1-0.7-1.6
		c-0.3-0.5-0.6-1-1-1.5c-0.4-0.5-0.9-0.9-1.4-1.2c-0.2-0.2-0.6-0.3-0.7-0.4c-0.2-0.1-0.4-0.3-0.5-0.4c-0.3-0.3-0.5-0.8-0.6-1.2
		c-0.1-0.5,0.1-0.9,0.4-1.4c0.3-0.6,0.7-1.2,1.2-1.7l0,0c0.3-0.3,0.5-0.6,0.8-0.9c-0.9,0.7-1.7,1.4-2.4,2.3
		c-0.2,0.2-0.3,0.5-0.5,0.8c-0.1,0.3-0.2,0.6-0.2,0.9c0,0.7,0.2,1.3,0.5,1.9c0.2,0.3,0.4,0.5,0.7,0.7c0.3,0.2,0.4,0.3,0.6,0.4
		c-3.9,0.2-8.7-0.7-10.5-1c0.1-0.2,0.1-0.5,0.2-0.8c0.1-0.7,0.2-1.4,0.2-2c0-0.7-0.1-1.4-0.3-2c-0.2-0.6-0.6-1.2-1.1-1.6
		c0.2,0.3,0.3,0.5,0.4,0.8c0,0,0,0,0,0c0.1,0.2,0.1,0.4,0.2,0.7c0,0.1,0,0.2,0,0.2v0c0,0.6-0.1,1.2-0.2,1.8
		c-0.1,0.6-0.4,1.1-0.6,1.7c-0.3,0.5-0.6,1.1-0.9,1.5c-0.1,0.1-0.1,0.2-0.1,0.2v0l-5.9,3.7l-3.2,1.7c-0.2,0.1-0.5,0.2-0.7,0.3
		c-0.1,0-0.1,0-0.2,0c-0.3,0-0.6,0-0.9,0l-3.5-0.8c0-0.1,0-0.1,0.1-0.2c0.1-0.4,0.3-0.6,0.5-0.9c0.8-0.6,1.5-1.2,2.3-1.8l0,0
		c0.7-0.6,1.4-1.3,2.1-2c0.7-0.7,1.3-1.4,1.8-2.3c0.5-0.8,0.9-1.8,0.8-2.7c0,1-0.6,1.8-1.2,2.4c-0.6,0.7-1.3,1.3-2.1,1.8
		c-0.7,0.5-1.5,1-2.3,1.5c-0.8,0.4-1.6,0.9-2.3,1.2c0,0,0,0-0.1,0c0,0,0,0,0,0l0,0c-0.1,0-0.1,0.1-0.2,0.1c0,0,0,0,0,0
		c0,0,0,0-0.1,0c-0.5,0.5-0.9,1.1-1.2,1.9c-0.8,2.5-2.2,5.3-3.4,7.6c-0.7,1.3-1.3,2.5-1.7,3.5c-0.4,0.8-0.7,1.6-0.9,2.3
		c0,0.1,0,0.1,0,0.2c-0.3,3.9-1.3,5.2-2.1,6.1c-0.3,0.3-0.5,0.6-0.7,1c-1.8,2.7-2.6,12.9-2.7,14.1c0,0.2,0,0.4,0.1,0.6
		c0.5,1,2.4,3.2,3.5,4.6l-2.4,1l-1-2.3c-0.2-0.4-0.6-0.6-1-0.6c-0.3,0-0.8,0.1-1.4,0.1c0.1-0.5,0.2-1.1,0.3-2
		c0.8-4.9,2.3-14.1,2.8-15.7c0-0.2,0-0.3,0-0.5c-0.4-2.1,0.1-3.9,0.7-6.1c0.1-0.4,0.2-0.7,0.3-1.1c0-0.1,0-0.1,0-0.2
		c0-0.1,0-0.2,0-0.3c-0.1-4.2,0.9-7.7,1.9-10.2c0.1-0.3,0.1-0.7-0.1-1v0c0-0.1-0.1-0.2-0.1-0.3l0,0c-0.6-0.9-1.2-1.9-1.7-2.9
		c-0.2-0.5-0.5-1-0.7-1.5c-0.7-1.6-1.1-3.3-1.4-5c-0.2-1.7-0.2-3.4,0.3-5.1c0.4-1.7,1.3-3.3,2.4-4.6c-1.2,1.3-2.3,2.8-2.9,4.5
		c-0.6,1.7-0.9,3.5-0.8,5.4c0.1,1.8,0.4,3.6,0.9,5.4c0.1,0.2,0.1,0.5,0.2,0.7c0.2,0.5,0.3,1,0.5,1.5c-1.7-0.7-3.6-0.8-5.1-0.2
		c-7.9,2.9-14.7,4.4-20.3,4.4c-5.9-2.1-9.4-6.2-10.3-7.4c0.1-0.1,0.2-0.3,0.3-0.4c1.1-1.5,2-3,2.7-4.6c0.8-1.6,1.3-3.3,1.7-5.1
		c0.3-1.4,0.4-2.7,0.4-4.1v0c0-0.4,0-0.7,0-1.1c-0.2,1.7-0.4,3.5-1,5.1c-0.5,1.7-1.2,3.2-2.1,4.7c-0.9,1.5-1.9,2.9-3,4.1
		c-0.2,0.3-0.5,0.5-0.8,0.8c0,0,0,0,0,0c-0.1,0.1-0.2,0.2-0.3,0.3c-0.8,0.8-1.7,1.6-2.6,2.3l0,0l0,0c-0.2,0.1-0.4,0.2-0.5,0.4
		c-2.3,3.8-8.4,9.7-14.2,12.4c-0.2,0.1-0.3,0.2-0.4,0.3c-0.1,0.2-0.3,0.3-0.4,0.5c-4.5,6.4-7.7,19.6-8.1,23.7
		c-0.3,2.6,0.7,4.4,1.6,5.5l-1.9,0.8l-0.5-3.9c0-0.4-0.3-0.7-0.7-0.8l-1.7-0.7c0.2-1.1,0.9-3.4,2.3-7.2c1.9-5.1,2.7-13.8,3-18
		l0.1-0.8c0-0.4,0.2-0.8,0.5-1l0.6-0.5c0.4-0.3,0.8-0.6,1.2-1c1.9-1.6,3.9-3.6,5.4-7c2.3-5.1-0.8-12.7-2.1-15.9l0-0.1
		c-0.3-0.7-0.5-1.4-0.6-2.1c-1-3.8-0.8-7,0.6-9.6c1.5-2.7,4.2-4.6,8.1-5.6c1.9-0.5,10.7,0.5,16.1,1.2c0,0,0.1,0,0.1,0
		c0.8,0,19.2,0.4,28.3-5.8c6.3-4.3,18.4-5.2,27.7,0.8c3.8,2.7,6.6,4.6,9.4,6.1c1.6,0.8,3.1,1.6,4.9,2.2c0,0,0,0,0.1,0
		c1.2,0.4,2.4,0.9,3.8,1.3c0,0,0.1,0,0.2,0c0.2,0.6,0.4,1.2,0.8,1.7c0,0.1,0.1,0.1,0.2,0.2c0.1,0.2,0.3,0.3,0.5,0.5
		c0.5,0.4,1.1,0.8,1.7,1c1.4,0.5,2.8,0.5,4.1,0.2c0.2,0,0.5-0.1,0.7-0.2c1-0.3,2-0.7,2.9-1.2c0.8,1.2,1.5,4.8,1.8,7.2
		c0,0.1,0.4,2.9,0.9,4.7c0.4,1.6,0.6,3.2,0.5,4.9c-0.1,1.8-0.1,3.4-0.1,3.5c0,0.1,0,0.1,0,0.2c0,0,0.6,3.3-0.8,5.7
		c-0.1,0.2-0.2,0.4-0.3,0.6c-0.3-0.9-0.5-2.6-1.1-2.3c-0.6,0.4-0.9,3.1-0.5,3.8c0.2,0.3,0.4,0.5,0.7,0.6c-0.4,0.6-0.8,1.2-1.3,1.6
		c-0.4-0.4-0.8-0.8-1-1c-0.1-0.1-0.2-0.1-0.3-0.2c-0.2-0.2-0.3-0.5-0.5-0.7l-0.3-0.8l0,0l-0.7-1.4l-0.4-0.7
		c-0.1-0.2-0.2-0.5-0.5-0.7c0,0.3,0,0.6,0.1,0.8l0.2,0.8l0.4,1.6l0,0l0.2,0.9l0,0.1c0,0.2,0.1,0.4,0.2,0.5c0,0-0.1,0.1-0.1,0.2
		c0,0-0.2,0.3-0.5,0.9c-0.7-0.2-1.5-0.6-1.9-1.3c-0.3-0.6-0.7-1.2-1.3-1.8c-0.1-0.1-0.3-0.3-0.5-0.4c-0.1-0.1-0.1-0.1-0.2-0.2
		C114.9,82.7,114.1,81.9,113.6,81.2z M102.1,124.2L102.1,124.2L102.1,124.2L102.1,124.2z"/>
	<path class="st7" d="M114.9,63.5L114.9,63.5c-0.8,0.4-1.6,0.6-2.3,0.9c-0.7,0.2-1.3,0.4-2,0.5c-0.8-0.4-1.6-0.9-2.3-1.3
		c-0.8-0.5-1.6-1-2.4-1.6c-0.6-0.4-1.1-0.8-1.7-1.2c0.7-0.7,1.6-1.1,2.6-1.3l0.4-0.1c1,0.1,1.9,0.2,2.9,0.4c1,0.2,1.9,0.4,2.8,0.7
		l0.1,0c0.1,0,0.2,0,0.3-0.1c0.7-0.5,1.3-1.1,2-1.7c-0.7,0.3-1.5,0.6-2.2,0.9c-0.9-0.5-1.8-0.8-2.7-1.1c-1-0.3-2-0.6-3-0.8
		c-1-0.2-2.1-0.3-3.1-0.3c-1,0-2.1,0-3.2,0.2c-0.2,0-0.4,0.1-0.6,0.3l0,0c-0.3,0.4-0.3,0.9-0.2,1.2c0.1,0.3,0.2,0.5,0.2,0.6
		c0.2,0.3,0.4,0.5,0.6,0.8c0.4,0.4,0.8,0.8,1.2,1.2c0.8,0.7,1.6,1.3,2.5,1.9c0.9,0.6,1.7,1.1,2.7,1.5c0.9,0.5,1.8,0.9,2.8,1.2l0.1,0
		c0.1,0,0.2,0.1,0.4,0c0.9-0.2,1.7-0.6,2.4-1c0.4-0.2,0.7-0.4,1.1-0.7c0.3-0.2,0.6-0.4,0.9-0.7c0.5,0.2,1.1,0.3,1.7,0.4
		c-0.5-0.4-1.1-0.7-1.6-1.1C115,63.5,115,63.5,114.9,63.5z"/>
</g>
</svg>
