<?xml version="1.0" encoding="utf-8"?>
<!-- Generator: Adobe Illustrator 24.1.2, SVG Export Plug-In . SVG Version: 6.00 Build 0)  -->
<svg version="1.1" id="Layer_1" xmlns="http://www.w3.org/2000/svg" xmlns:xlink="http://www.w3.org/1999/xlink" x="0px" y="0px"
	 viewBox="0 0 128 128" style="enable-background:new 0 0 128 128;" xml:space="preserve">
<style type="text/css">
	.st0{fill:#98A037;}
	.st1{fill:#605C58;}
	.st2{fill:#C6323D;}
	.st3{fill:#2D2D2D;}
</style>
<g>
	<path class="st0" d="M30.3,68.4c0.9,1,1.8,1.9,2.8,2.7c1,0.9,2,1.7,3.1,2.3c2.3,1.1,4.7,2.2,7.2,2.9c2.5,0.7,5.1,0.9,7.6,0.4
		c2.5-0.5,4.6-1.7,6.6-3.3c0.9-0.8,1.7-1.6,2.3-2.7c0.3-0.5,0.6-1.1,0.7-1.6c0.2-0.6,0.3-1.2,0.1-1.8l0,0c-3.2-2-6.5-3.9-9.8-5.7
		c-3.4-1.9-6.7-3.8-10.1-5.6c-3.4-1.8-6.9-3.5-10.4-5.2c-3.1-1.4-6.2-2.9-9.4-4c-0.2,0.5-0.3,1.1-0.4,1.7c-0.3,2.3,0.2,4.8,1.1,7.1
		c0.9,2.3,2.2,4.6,3.7,6.7C27,64.5,28.6,66.5,30.3,68.4z"/>
	<path class="st0" d="M61.2,50.6c1.6,2.2,2.3,4.9,2.4,7.6c0,0.3,0,0.6,0,0.8c1.1-2.5,2.5-4.9,4.1-7.1c1.3-1.8,2.8-3.4,4.5-4.9
		c0.5-2.2,1.2-4.4,1.9-6.6c0.9-2.7,1.9-5.3,2.9-7.9c1-2.6,1.9-5.3,2.8-7.9c0.8-2.5,1.7-5,2-7.6c-1.2-0.2-2.4-0.1-3.6,0.2
		c-1.4,0.4-2.7,1-4,1.7c-2.5,1.5-4.7,3.5-6.8,5.6c-2,2.1-4,4.3-5.7,6.6c-0.9,1.2-1.7,2.3-2.5,3.6c-0.8,1.2-1.6,2.4-2.2,3.7
		c-0.1,0.3-0.3,0.6-0.4,0.9l-0.4,1l-0.9,2L54,45.2c0.3,0.2,0.7,0.3,1,0.5C57.3,46.8,59.7,48.4,61.2,50.6z"/>
	<path class="st1" d="M22,118.1c-1.9-1.2-4-2.2-6-3.5c-1-0.7-1.9-1.5-2.9-2.1c-0.5-0.3-1-0.6-1.5-0.8c-0.5-0.2-1.1,0-1.5,0.4
		l-0.2,0.2c0,0,0,0,0,0c0,0,0,0,0,0l-1.3,1.7c-0.3,0.6,0.5,1.2,1.1,1.6c0.3,0.2,0.7,0.4,1.1,0.6c0.4,0.2,0.9,0.5,1.2,1
		c0.3,0.3,0.5,0.7,0.6,1.1c0.3-0.3,0.6-0.6,1.1-0.8c0.6-0.3,1.3-0.4,1.9-0.3c0.6,0.1,1.1,0.3,1.6,0.5l0.2,0.1l0.2,0.2
		c0.5,0.5,0.7,1.3,0.7,1.9c0,0.7-0.1,1.2-0.2,1.7c-0.2,0.6-0.4,1.2-0.6,1.8c0.2,0,0.4,0,0.7,0.1c0.6,0.1,1.2,0.1,1.7,0.1
		c1.1,0,2.3,0,3.3-0.5c0.5-0.2,0.9-0.6,1-1.1c0.2-0.5,0.2-1,0-1.5C23.8,119.4,22.9,118.7,22,118.1z"/>
	<path class="st0" d="M77.7,32.8c-0.9,2.7-1.7,5.4-2.7,8c-0.7,1.9-1.5,3.8-2.2,5.7c4.3-3.7,9.5-6.4,15.1-7.6c0-2.4,0-4.8-0.1-7.1
		c-0.1-2.9-0.3-5.8-0.9-8.6c-0.3-1.4-0.8-2.7-1.5-3.8c-0.3-0.6-0.8-1.1-1.3-1.4c-0.5-0.4-1.1-0.6-1.8-0.8c-0.1,0-0.3-0.1-0.5-0.1
		c-0.2,2.6-0.9,5.2-1.6,7.7C79.5,27.4,78.6,30.1,77.7,32.8z"/>
	<path class="st0" d="M41.3,55.3c3.5,1.7,6.9,3.4,10.3,5.4c3.2,2,6.4,4,9.3,6.4c0,0,0,0,0,0c0,0,0.1,0,0.1,0c0.1,0,0.1,0.1,0.2,0.2
		c0.4-2.3,1.1-4.6,1.9-6.8c0.1-0.7,0.1-1.5,0-2.2c-0.1-2.6-1-5.1-2.5-7.1c-1.5-2-3.7-3.4-6.1-4.5c-0.3-0.1-0.7-0.3-1-0.4l-0.1,0.1
		c0,0.1-0.1,0.1-0.1,0.1c0,0-0.1-0.1-0.1-0.1c0-0.1,0-0.1,0-0.2c-2-0.8-4-1.5-6.1-2.1c-2.5-0.7-5-1.3-7.6-1.7
		c-2.6-0.4-5.1-0.6-7.7-0.6c-2.5,0.1-5.1,0.4-7.3,1.4c-1.1,0.5-2,1.2-2.7,2.1c-0.3,0.4-0.5,0.8-0.7,1.3c3.3,1,6.4,2.3,9.5,3.6
		C34.3,51.9,37.8,53.6,41.3,55.3z"/>
	<path class="st2" d="M110.7,45.2c-1.7-0.9-3.4-1.7-5.2-2.3c-1.8-0.6-3.6-1.1-5.5-1.4c-3.8-0.6-7.6-0.6-11.4,0.2
		C81.1,43,74,47.1,69,53c-2.5,3-4.5,6.4-5.8,10.1c-1.3,3.7-1.9,7.6-1.7,11.6c0.1,3.9,1,7.8,2.6,11.4c0.8,1.8,1.8,3.5,2.9,5.1
		c1.1,1.6,2.4,3.1,3.7,4.5c2.7,2.7,5.9,5,9.3,6.6c1.7,0.8,3.5,1.5,5.3,2c1.8,0.5,3.7,0.8,5.6,0.9c3.8,0.2,7.7-0.4,11.4-1.6
		c1.8-0.6,3.6-1.4,5.4-2.3c1.7-0.9,3.4-2,5-3.1c-0.3-0.3-0.4-0.7-0.5-1.1c-0.2-0.6-0.1-1.2,0.2-1.8c0.4-1.1,0.9-2.1,1.4-3.2
		c1-2,2.3-4,4.1-5.5c0.9-0.8,1.9-1.4,3-1.9c0.6-0.2,1.1-0.5,1.8-0.4c0.2,0,0.4,0.1,0.6,0.2c0.7-1.7,1.3-3.4,1.7-5.2
		c0.5-1.9,0.8-3.8,1-5.8c0.4-3.9-0.1-7.8-1.1-11.4C122.7,54.9,117.3,48.9,110.7,45.2z"/>
	<path class="st1" d="M122.6,85c-0.4-0.1-1,0.1-1.4,0.4c-0.9,0.5-1.7,1.3-2.3,2.2c-1.3,1.7-2.4,3.6-3.8,5.4
		c-0.7,0.9-1.5,1.7-2.1,2.6c-0.7,0.8-0.5,2.2,0.4,2.8c0.3,0.2,0.6,0.4,0.9,0.7c0.3,0.3,0.6,0.5,0.9,0.4c0.6-0.1,1.1-0.8,1.5-1.4
		c0.2-0.3,0.3-0.6,0.6-1c0.3-0.4,0.6-0.7,1-1c0.3-0.2,0.7-0.4,1.1-0.5c-0.1-0.2-0.3-0.3-0.4-0.5c-0.2-0.3-0.4-0.5-0.6-0.8l-0.3-0.5
		l-0.2-0.3l-0.1-0.2c0-0.1-0.1-0.2-0.1-0.3l-0.2-0.6l0.6-0.4c0.6-0.5,1.3-0.7,1.9-0.8c0.6-0.1,1.2-0.2,1.8-0.2
		c0.8,0,1.6,0.1,2.4,0.3c0-0.8,0.1-1.5,0.1-2.3c0-1.1-0.1-2.2-0.5-3.2C123.4,85.5,123,85.1,122.6,85z"/>
	<path class="st2" d="M69.1,97c-5.5-6.2-8.3-14.3-8.6-22.3c0-0.7,0-1.5,0-2.2c-0.5,0.8-1.1,1.5-1.8,2.1c-1.1,0.8-2.2,1.6-3.5,2.2
		c-1.3,0.6-2.6,0.9-4,1.1c-2.7,0.3-5.5-0.2-8-1c-2.5-0.8-4.9-1.9-7.4-3c-2.4-1.3-4.4-3-6.4-4.8c-2-1.8-3.8-3.8-5.4-5.9
		c-0.1-0.1-0.2-0.2-0.2-0.3c-4.4,2.1-8.3,4.7-11.7,7.9c-3.7,3.5-7,7.5-8.7,12.3c-0.9,2.4-1.4,4.9-1.5,7.5c-0.1,2.6,0.2,5.1,0.8,7.7
		c0.6,2.5,1.6,5,2.8,7.3c1.2,2.3,2.7,4.4,4.4,6.5c0,0,0,0,0.1-0.1c0.4-0.5,1.1-0.8,1.7-0.6c0.6,0.1,1.2,0.3,1.7,0.5
		c1.1,0.4,2.3,0.9,3.3,1.4c2.1,0.9,4.3,2,6.1,3.8c0.9,0.9,1.7,1.9,2,3.2c0.1,0.6,0.1,1.3-0.1,1.9c-0.1,0.1-0.1,0.2-0.2,0.4
		c5.1,1.2,10,2.2,14.9,2.3c2.5,0.1,5,0,7.5-0.2c1.2-0.2,2.5-0.4,3.7-0.7c1.3-0.2,2.5-0.6,3.7-0.9c0.6-0.2,1.2-0.4,1.8-0.7l0.9-0.4
		c0.3-0.1,0.6-0.3,0.9-0.5c0.6-0.3,1.1-0.7,1.7-1c0.5-0.4,1-0.8,1.5-1.2c0.3-0.2,0.5-0.4,0.7-0.6l0.7-0.7c0.4-0.5,0.9-1,1.3-1.5
		l1.1-1.6l0.6-0.8c0.2-0.3,0.3-0.5,0.5-0.8c1.4-2.1,2.8-4.2,3.9-6.5c1-2,1.9-4.1,2.8-6.3C71.5,99.5,70.2,98.3,69.1,97z"/>
	<path class="st0" d="M90.9,107.5c-2.2,0-4.4-0.3-6.6-0.9c1.7,1.6,3.3,3.3,4.9,4.9c2.1,2.2,4.1,4.4,6.1,6.6c1.8,2.1,3.6,4.2,5.2,6.4
		c0.1-0.1,0.2-0.2,0.3-0.4c0.3-0.4,0.5-0.9,0.6-1.4c0.2-1,0.2-2.2,0-3.3c-0.3-2.2-0.9-4.5-1.6-6.8c-0.6-2-1.4-3.9-2.2-5.9
		C95.4,107.3,93.2,107.5,90.9,107.5z"/>
	<path class="st0" d="M88.7,112.1c-2.1-2.1-4.4-4.1-6.5-6.1c0,0,0,0,0,0c-1.1-0.4-2.2-0.8-3.3-1.4c-2-0.9-3.8-2.1-5.5-3.5
		c0,2.3-0.5,4.5-1.3,6.7c-0.3,0.9-0.7,1.7-1.1,2.6c1.2,1.7,2.5,3.2,4,4.6c0.9,0.8,1.7,1.7,2.5,2.4c0.9,0.7,1.8,1.4,2.8,2.1
		c1.9,1.3,4,2.5,6.1,3.6c2.1,1.1,4.2,2.1,6.5,2.7c1.1,0.3,2.3,0.5,3.5,0.4c1.2,0,2.3-0.3,3.3-0.9c0.3-0.2,0.5-0.4,0.8-0.6
		c-1.7-2.2-3.6-4.2-5.4-6.2C92.9,116.3,90.8,114.2,88.7,112.1z"/>
	<path class="st3" d="M127.2,61.7c-0.9-4-2.9-7.9-5.4-11.2c-2.6-3.3-5.8-6-9.5-8.1c-7.1-4.1-15.8-5.3-23.8-3.6
		c0.4-2.3,0.7-4.7,0.8-7c0.1-3,0.1-6-0.6-9c-0.4-1.5-0.9-3-1.9-4.3c-0.5-0.6-1.1-1.2-1.8-1.7c-0.7-0.4-1.6-0.6-2.3-0.7
		c-1.6-0.2-3.1,0.1-4.6,0.5c-1.5,0.4-2.8,1.1-4.1,1.8c-5.2,2.9-9.8,7-13.7,11.6c-1.9,2.3-3.7,4.7-5.1,7.5c-0.2,0.4-0.3,0.7-0.5,1.1
		l-0.3,1.1c-0.2,0.7-0.4,1.4-0.6,2.2c-0.2,1-0.3,2-0.4,3c-1.8-0.8-3.7-1.5-5.7-2.2C42.5,41.1,37.3,40,31.8,40
		c-2.7,0-5.5,0.3-8.1,1.5c-1.3,0.6-2.6,1.5-3.5,2.7c-0.9,1.2-1.4,2.6-1.6,4.1c-0.4,2.9,0.3,5.7,1.4,8.2c0.9,2.1,2.1,4.1,3.4,6
		c-4.8,0.9-9.4,3.1-13.2,6.3c-1.1,0.9-2.1,1.9-3,2.9c-0.9,1-1.7,2.2-2.5,3.3c-1.4,2.4-2.7,4.9-3.5,7.5C0.4,85.1,0,87.9,0,90.6
		c0.1,2.8,0.5,5.5,1.3,8.1c0.8,2.6,2,5,3.4,7.3c1.4,2.3,3.1,4.3,5,6.2c-0.2,0.2-0.4,0.4-0.6,0.7c-0.3,0.3-0.6,0.5-0.9,0.9
		c-0.2,0.2-0.3,0.5-0.2,0.8c0,0.3,0.1,0.5,0.2,0.7c0.2,0.4,0.5,0.8,0.8,1.1c0.3,0.3,0.7,0.6,1,0.9c0.3,0.2,0.5,0.5,0.6,0.8
		c0.1,0.3,0.2,0.5,0.3,0.9c0.1,0.3,0,0.8,0.3,1.4l0.4,0.9l0.8-0.4c0.9-0.4,1.1-0.8,1.4-1.1c0.3-0.3,0.5-0.5,0.8-0.6
		c0.2-0.1,0.4-0.1,0.7-0.1c0.2,0,0.5,0.1,0.7,0.2c0.1,0.2,0.2,0.3,0.2,0.6c0,0.3,0,0.7-0.1,1.1c-0.2,0.9-0.5,1.8-0.6,2.8l-0.2,1.2
		l1.1-0.2c0.4-0.1,1.1-0.1,1.7-0.1c0.6,0,1.2-0.1,1.8-0.2c1.2-0.2,2.4-0.4,3.6-1c0.3-0.2,0.6-0.5,0.9-0.8c2.2,1.4,4.5,2.7,7,3.5
		c1.3,0.5,2.6,0.8,3.9,1.1c0.7,0.1,1.3,0.2,2,0.3c0.7,0.1,1.4,0.2,2,0.2c5.5,0.3,11.1-0.8,15.8-3.5c0.6-0.3,1.2-0.7,1.7-1
		c0.6-0.3,1.2-0.7,1.7-1.1c0.5-0.4,1.1-0.7,1.7-1.1c0.5-0.4,1.1-0.8,1.6-1.2l0.8-0.6l0.8-0.6l1.6-1.2c1-0.9,2.1-1.8,3-2.8
		c1-1.1,1.9-2.4,2.6-3.8c0.6,1.9,1.7,3.6,2.9,5.1c0.4,0.5,0.8,0.9,1.2,1.4c0.4,0.4,0.9,1,1.4,1.3c1,0.8,2,1.5,3,2.2
		c2.1,1.3,4.3,2.4,6.5,3.4c2.3,0.9,4.6,1.6,7.1,2c2.4,0.4,4.9,0.6,7.3-0.4c0.6-0.3,1.1-0.6,1.6-1.1c0.5-0.5,0.8-1.1,1.1-1.7
		c0.5-1.3,0.5-2.6,0.4-3.8c-0.2-2.5-1-4.9-2-7.1c-0.9-1.9-1.9-3.8-3.1-5.5c1.7-0.4,3.3-0.9,4.9-1.6c1.9-0.8,3.7-1.8,5.4-2.9
		c1.7-1.1,3.3-2.4,4.7-3.8c0.1,0.1,0.1,0.1,0.2,0.2c0.3,0.2,0.6,0.5,0.9,0.7c0.2,0.1,0.3,0.3,0.4,0.4c0.2,0.1,0.4,0.2,0.6,0.3
		c0.5,0,0.9-0.2,1.2-0.4c0.4-0.2,0.7-0.5,1-0.8c0.3-0.3,0.6-0.6,0.8-0.8c0.2-0.2,0.5-0.4,0.8-0.4c0.5-0.2,1.1-0.1,2.2-0.4l0.9-0.3
		l-0.3-1c-0.2-0.5-0.4-0.8-0.6-1.1c-0.2-0.3-0.4-0.6-0.6-0.9l-0.5-0.6c0.5-0.2,1-0.3,1.6-0.3c1-0.1,2,0,3,0.2l1.2,0.2l-0.2-1.1
		c-0.1-0.4-0.1-1-0.2-1.6c-0.1-0.6-0.2-1.1-0.3-1.7c-0.2-1.1-0.5-2.3-1-3.4c-0.1-0.3-0.3-0.5-0.6-0.8
		C127.5,78.1,129.1,69.6,127.2,61.7z M82.3,17.1c0.7,0.2,1.3,0.4,1.8,0.8c0.5,0.4,0.9,0.9,1.3,1.4c0.7,1.1,1.1,2.5,1.5,3.8
		c0.6,2.8,0.8,5.7,0.9,8.6c0.1,2.4,0.1,4.7,0.1,7.1c-5.6,1.2-10.8,3.9-15.1,7.6c0.7-1.9,1.5-3.8,2.2-5.7c1-2.6,1.8-5.3,2.7-8
		c0.9-2.7,1.8-5.4,2.5-8.1c0.7-2.5,1.4-5.1,1.6-7.7C82,17,82.2,17.1,82.3,17.1z M55.2,42.3l0.9-2l0.4-1c0.1-0.3,0.3-0.6,0.4-0.9
		c0.6-1.3,1.4-2.5,2.2-3.7c0.8-1.2,1.6-2.4,2.5-3.6c1.8-2.3,3.7-4.5,5.7-6.6c2-2.1,4.2-4.1,6.8-5.6c1.3-0.7,2.6-1.4,4-1.7
		c1.2-0.3,2.5-0.4,3.6-0.2c-0.3,2.6-1.2,5.1-2,7.6c-0.9,2.7-1.8,5.3-2.8,7.9c-1,2.6-2,5.3-2.9,7.9c-0.7,2.2-1.3,4.4-1.9,6.6
		c-1.7,1.5-3.2,3.2-4.5,4.9c-1.7,2.2-3,4.6-4.1,7.1c0-0.3,0-0.6,0-0.8c0-2.7-0.8-5.4-2.4-7.6c-1.6-2.2-3.9-3.8-6.3-5
		c-0.3-0.2-0.7-0.3-1-0.5L55.2,42.3z M21.9,45.4c0.7-0.9,1.6-1.6,2.7-2.1c2.2-1,4.7-1.3,7.3-1.4c2.5-0.1,5.1,0.2,7.7,0.6
		c2.6,0.4,5.1,0.9,7.6,1.7c2.1,0.6,4.1,1.3,6.1,2.1c0,0.1,0,0.1,0,0.2c0,0,0,0.1,0.1,0.1c0.1,0,0.1,0,0.1-0.1l0.1-0.1
		c0.3,0.1,0.7,0.3,1,0.4c2.4,1,4.5,2.4,6.1,4.5c1.6,2,2.4,4.5,2.5,7.1c0,0.7,0,1.5,0,2.2c-0.9,2.2-1.5,4.5-1.9,6.8
		c0-0.1-0.1-0.1-0.2-0.2c0,0-0.1,0-0.1,0c0,0,0,0,0,0c-2.9-2.4-6.1-4.4-9.3-6.4c-3.3-2-6.8-3.7-10.3-5.4c-3.5-1.7-7-3.4-10.5-4.9
		c-3.1-1.3-6.3-2.6-9.5-3.6C21.4,46.2,21.6,45.8,21.9,45.4z M21.8,55.7c-0.9-2.3-1.4-4.8-1.1-7.1c0.1-0.6,0.2-1.2,0.4-1.7
		c3.2,1.1,6.3,2.5,9.4,4c3.5,1.6,6.9,3.4,10.4,5.2c3.4,1.8,6.8,3.7,10.1,5.6c3.3,1.8,6.6,3.7,9.8,5.7l0,0c0.2,0.5,0.1,1.2-0.1,1.8
		c-0.2,0.6-0.4,1.1-0.7,1.6c-0.6,1-1.4,1.9-2.3,2.7c-1.9,1.6-4.1,2.8-6.6,3.3c-2.5,0.5-5.1,0.3-7.6-0.4c-2.5-0.7-4.9-1.7-7.2-2.9
		c-1.1-0.6-2.1-1.4-3.1-2.3c-1-0.9-1.9-1.8-2.8-2.7c-1.8-1.9-3.4-3.9-4.8-6C24.1,60.2,22.7,58,21.8,55.7z M24.2,121.9
		c-0.2,0.5-0.6,0.9-1,1.1c-1,0.5-2.2,0.5-3.3,0.5c-0.6,0-1.2-0.1-1.7-0.1c-0.2,0-0.4,0-0.7-0.1c0.2-0.6,0.4-1.2,0.6-1.8
		c0.1-0.5,0.2-1.1,0.2-1.7c0-0.6-0.3-1.4-0.7-1.9l-0.2-0.2l-0.2-0.1c-0.5-0.2-1-0.5-1.6-0.5c-0.6-0.1-1.3,0-1.9,0.3
		c-0.4,0.2-0.8,0.5-1.1,0.8c-0.1-0.4-0.3-0.7-0.6-1.1c-0.3-0.4-0.8-0.7-1.2-1c-0.4-0.2-0.7-0.4-1.1-0.6c-0.6-0.4-1.4-1-1.1-1.6
		l1.3-1.7c0,0,0,0,0,0c0,0,0,0,0,0l0.2-0.2c0.3-0.4,1-0.6,1.5-0.4c0.5,0.2,1.1,0.5,1.5,0.8c1,0.6,1.9,1.4,2.9,2.1
		c2,1.4,4.1,2.3,6,3.5c0.9,0.6,1.8,1.4,2.2,2.3C24.4,120.9,24.3,121.5,24.2,121.9z M70,106.9c-1.2,2.3-2.5,4.3-3.9,6.5
		c-0.2,0.3-0.3,0.5-0.5,0.8l-0.6,0.8l-1.1,1.6c-0.4,0.5-0.8,1-1.3,1.5l-0.7,0.7c-0.2,0.2-0.5,0.4-0.7,0.6c-0.5,0.4-1,0.8-1.5,1.2
		c-0.6,0.3-1.1,0.7-1.7,1c-0.3,0.2-0.6,0.3-0.9,0.5l-0.9,0.4c-0.6,0.2-1.2,0.5-1.8,0.7c-1.2,0.4-2.5,0.7-3.7,0.9
		c-1.2,0.3-2.5,0.5-3.7,0.7c-2.5,0.3-5,0.4-7.5,0.2c-5-0.1-9.9-1.1-14.9-2.3c0.1-0.1,0.1-0.2,0.2-0.4c0.3-0.6,0.3-1.3,0.1-1.9
		c-0.3-1.3-1.2-2.3-2-3.2c-1.8-1.8-4-2.9-6.1-3.8c-1-0.5-2.2-1-3.3-1.4c-0.6-0.2-1.1-0.4-1.7-0.5c-0.6-0.1-1.3,0.1-1.7,0.6
		c0,0,0,0-0.1,0.1c-1.6-2-3.2-4.2-4.4-6.5c-1.2-2.3-2.2-4.8-2.8-7.3c-0.6-2.5-0.9-5.1-0.8-7.7c0.1-2.6,0.7-5.1,1.5-7.5
		c1.8-4.8,5.1-8.8,8.7-12.3c3.4-3.2,7.3-5.8,11.7-7.9c0.1,0.1,0.2,0.2,0.2,0.3c1.6,2.1,3.4,4.1,5.4,5.9c2,1.8,4,3.5,6.4,4.8
		c2.4,1.1,4.8,2.2,7.4,3c2.5,0.8,5.2,1.3,8,1c1.4-0.2,2.7-0.5,4-1.1c1.3-0.6,2.4-1.4,3.5-2.2c0.7-0.6,1.3-1.3,1.8-2.1
		c0,0.7,0,1.5,0,2.2c0.2,8,3.1,16.1,8.6,22.3c1.1,1.3,2.4,2.5,3.7,3.6C71.9,102.8,71.1,104.9,70,106.9z M99.6,125.2
		c-1,0.6-2.1,0.8-3.3,0.9c-1.2,0-2.3-0.2-3.5-0.4c-2.3-0.6-4.4-1.6-6.5-2.7c-2.1-1.1-4.2-2.3-6.1-3.6c-1-0.7-1.9-1.3-2.8-2.1
		c-0.8-0.7-1.6-1.6-2.5-2.4c-1.4-1.4-2.8-2.9-4-4.6c0.4-0.8,0.8-1.7,1.1-2.6c0.8-2.1,1.2-4.4,1.3-6.7c1.7,1.3,3.5,2.5,5.5,3.5
		c1.1,0.5,2.2,1,3.3,1.4c0,0,0,0,0,0c2.2,2.1,4.4,4,6.5,6.1c2.1,2.1,4.3,4.2,6.3,6.4c1.9,2,3.8,4,5.4,6.2
		C100.2,124.8,99.9,125.1,99.6,125.2z M99.8,112.7c0.7,2.2,1.3,4.5,1.6,6.8c0.1,1.1,0.2,2.2,0,3.3c-0.1,0.5-0.3,1-0.6,1.4
		c-0.1,0.1-0.2,0.2-0.3,0.4c-1.6-2.2-3.4-4.3-5.2-6.4c-2-2.2-4-4.4-6.1-6.6c-1.6-1.7-3.2-3.3-4.9-4.9c2.2,0.6,4.4,0.9,6.6,0.9
		c2.3,0,4.5-0.2,6.7-0.7C98.4,108.8,99.2,110.7,99.8,112.7z M123.6,85.9c0.4,0.9,0.5,2.1,0.5,3.2c0,0.8,0,1.5-0.1,2.3
		c-0.8-0.2-1.6-0.2-2.4-0.3c-0.6,0-1.2,0-1.8,0.2c-0.6,0.1-1.3,0.4-1.9,0.8l-0.6,0.4l0.2,0.6c0,0.1,0.1,0.2,0.1,0.3l0.1,0.2l0.2,0.3
		l0.3,0.5c0.2,0.3,0.4,0.5,0.6,0.8c0.1,0.2,0.3,0.3,0.4,0.5c-0.4,0.1-0.7,0.2-1.1,0.5c-0.4,0.3-0.7,0.6-1,1c-0.3,0.4-0.4,0.7-0.6,1
		c-0.4,0.6-0.9,1.3-1.5,1.4c-0.3,0-0.6-0.2-0.9-0.4c-0.3-0.2-0.6-0.5-0.9-0.7c-0.9-0.6-1-2-0.4-2.8c0.6-0.9,1.4-1.8,2.1-2.6
		c1.4-1.8,2.5-3.6,3.8-5.4c0.7-0.8,1.4-1.7,2.3-2.2c0.5-0.2,1-0.5,1.4-0.4C123,85.1,123.4,85.5,123.6,85.9z M126,73.7
		c-0.2,1.9-0.5,3.9-1,5.8c-0.4,1.8-1,3.5-1.7,5.2c-0.2-0.1-0.4-0.2-0.6-0.2c-0.7-0.1-1.3,0.2-1.8,0.4c-1.1,0.5-2.1,1.1-3,1.9
		c-1.8,1.5-3.1,3.5-4.1,5.5c-0.5,1-1,2.1-1.4,3.2c-0.2,0.5-0.3,1.2-0.2,1.8c0.1,0.4,0.3,0.7,0.5,1.1c-1.6,1.1-3.3,2.2-5,3.1
		c-1.8,0.9-3.6,1.7-5.4,2.3c-3.7,1.2-7.6,1.8-11.4,1.6c-1.9-0.1-3.8-0.4-5.6-0.9c-1.8-0.5-3.6-1.2-5.3-2c-3.4-1.7-6.6-3.9-9.3-6.6
		c-1.3-1.4-2.6-2.9-3.7-4.5c-1.1-1.6-2-3.3-2.9-5.1c-1.6-3.6-2.5-7.4-2.6-11.4c-0.2-3.9,0.4-7.9,1.7-11.6C64.5,59.4,66.5,56,69,53
		c5-6,12-10.1,19.6-11.5c3.8-0.7,7.6-0.8,11.4-0.2c1.9,0.3,3.7,0.8,5.5,1.4c1.8,0.6,3.5,1.4,5.2,2.3c6.6,3.7,12,9.8,14.1,17.1
		C125.9,65.9,126.3,69.8,126,73.7z"/>
</g>
</svg>
