<?xml version="1.0" encoding="utf-8"?>
<!-- Generator: Adobe Illustrator 18.1.0, SVG Export Plug-In . SVG Version: 6.00 Build 0)  -->
<svg version="1.1" baseProfile="tiny" id="Layer_1" xmlns="http://www.w3.org/2000/svg" xmlns:xlink="http://www.w3.org/1999/xlink"
	 x="0px" y="0px" viewBox="0 0 128 128" 
width="128" height="128"
xml:space="preserve">
<g>
	<path fill="#898989" d="M12,119c-0.4,0.3-0.8,0.5-1.2,0.5c-0.5,0-1.1-0.2-1.4-0.7L9,118.4c-1.9-2.2-2.3-5.4-1-8.3l7.3-15l-2.2-4
		l-9.7,19c-1.9,3.8-1.4,8.3,1.3,11.6l2.3,2.8c1,1.2,2.7,1.3,3.9,0.3l14-12.2l-1.8-3.3L12,119z"/>
	<path fill="#E1E1E1" d="M38,88c-0.2-0.3-0.6-0.4-1-0.4c-0.3,0-0.6,0.1-0.8,0.3l-8.3,7.2c-0.3,0.2-0.4,0.5-0.4,0.9
		c0,0.3,0.1,0.7,0.3,0.9l0.1,0.1c0.4,0.5,1.3,0.6,1.8,0.1L38,90c0.3-0.2,0.4-0.5,0.4-0.9c0-0.3-0.1-0.7-0.3-0.9L38,88z"/>
	<path fill="#A3A9AE" d="M105.2,16.4c0.1-0.1,0.2-0.1,0.3-0.1c0.1-0.1,0.2-0.2,0.2-0.3c0.9-0.8,2-1.2,3.2-1.2c1.5,0,2.8,0.6,3.8,1.8
		c0.9,1,1.3,2.3,1.2,3.7c-0.1,1.3-0.7,2.6-1.7,3.4c0,0,0,0,0,0L69.2,61.2l4.7,4.6l43.7-38.2c2.3-2,3.8-4.9,4-8
		c0.2-3.1-0.7-6.2-2.7-8.6S114.1,7.2,111,7c-3.1-0.2-6.1,0.8-8.4,2.8L57.2,49.4l4.7,4.6L105.2,16.4z"/>
	<path fill="#E1E1E1" d="M105.1,23.1c-0.7-0.9-1.1-1.9-1.2-3.1L63.3,55.4l4.5,4.5l40-35.1C106.8,24.5,105.9,23.9,105.1,23.1z"/>
	<path fill="#EFC24C" d="M44.2,83.6c-3.4-5.7-4.4-12.1-2.8-18l-6.7-6.2l-23,20c-1.1,1-1.4,2.6-0.6,3.9L25,108.5l22.5-19.6L44.2,83.6
		z M22.7,79l4.3-3.8c0.4-0.4,1-0.3,1.4,0.1c0.3,0.4,0.3,1-0.1,1.4L24,80.5c-0.2,0.2-0.4,0.2-0.6,0.2c-0.3,0-0.5-0.1-0.7-0.3
		C22.3,80,22.3,79.4,22.7,79z M23.9,89.2c-0.2,0.2-0.4,0.2-0.6,0.2c-0.3,0-0.5-0.1-0.7-0.3c-0.3-0.4-0.3-1,0.1-1.4l8.6-7.5
		c0.4-0.4,1-0.3,1.4,0.1c0.3,0.4,0.3,1-0.1,1.4L23.9,89.2z M39.3,91.5L31,98.7c-0.6,0.5-1.3,0.8-2.1,0.8c-0.9,0-1.8-0.4-2.4-1.1
		l-0.1-0.1c-0.6-0.7-0.8-1.5-0.8-2.4c0.1-0.9,0.5-1.7,1.1-2.2l8.3-7.2c0.6-0.5,1.3-0.8,2.1-0.8c0.9,0,1.8,0.4,2.4,1.1l0.1,0.2
		c0.6,0.7,0.8,1.5,0.8,2.4C40.3,90.1,39.9,90.9,39.3,91.5z"/>
	<path fill="#E1E1E1" d="M110.9,22.1L110.9,22.1C110.9,22.1,110.9,22.1,110.9,22.1c0.6-0.5,1-1.3,1-2.1c0.1-0.8-0.2-1.6-0.7-2.2
		c-0.6-0.7-1.4-1.1-2.3-1.1c-0.7,0-1.4,0.3-2,0.7c-0.6,0.5-1,1.3-1,2.1c-0.1,0.8,0.2,1.6,0.7,2.2C107.7,23,109.6,23.2,110.9,22.1z"
		/>
	<path fill="#E1E1E1" d="M58.9,81.7l-2.2-2c-0.8,0.2-1.3,0.8-1.4,1.7c-0.1,1,0.7,1.9,1.7,2C57.9,83.4,58.8,82.7,58.9,81.7z"/>
	<path fill="#E1E1E1" d="M13.3,8.9L7.2,2.8c-3.5,4-5.3,9.1-5.2,14.5c0.1,5.7,2.4,11,6.4,15l74.8,69.1l4.2-4.4L19.4,33.2
		C11.9,25.8,9.8,17.2,13.3,8.9z"/>
	<path fill="#A3A9AE" d="M14.8,10.3c-2.8,7.3-0.7,14.9,5.9,21.4l67.9,63.9l6.1-6.5L14.8,10.3z"/>
	<path fill="#AA6D43" d="M123.9,123.4l-31-29.4l3.3-3.4l27,26.4l0.5,0.5l0.5-0.1c0.5-0.1,1.1-0.1,1.5,0.4
		C126.5,118.5,126,121.1,123.9,123.4z"/>
	<path fill="#F4A742" d="M57.1,85.3c-0.1,0-0.2,0-0.3,0c-2.1-0.2-3.6-2-3.5-4.1c0.1-1.2,0.8-2.3,1.8-3L43.1,67.1
		C42,72.2,43,77.6,45.9,82.5l3.6,6.1c0,0,0,0,0,0.1c0.2,0.4,0.2,0.9-0.2,1.2l-23.4,20.4l1.5,2.8c0.4,0.8,1.2,1.3,2.1,1.4
		c0.9,0.1,1.8-0.1,2.5-0.7l31.7-27.6l-3.2-3C59.9,84.4,58.6,85.3,57.1,85.3z"/>
	<path fill="#2D2D2D" d="M124.4,115.3L97,88.6L75.3,67.2l4.1-3.6l2.1,2.5c0.2,0.2,0.5,0.3,0.7,0.3c0.2,0,0.4-0.1,0.6-0.2
		c0.4-0.4,0.5-1,0.1-1.4l-2.1-2.5l6.7-5.9l2.1,2.5c0.2,0.2,0.5,0.3,0.7,0.3c0.2,0,0.4-0.1,0.6-0.2c0.4-0.4,0.5-1,0.1-1.4l-2.1-2.5
		l6.7-5.9l2.1,2.5c0.2,0.2,0.5,0.3,0.7,0.3c0.2,0,0.4-0.1,0.6-0.2c0.4-0.4,0.5-1,0.1-1.4L97.3,48l6.7-5.9l2.1,2.5
		c0.2,0.2,0.5,0.3,0.7,0.3c0.2,0,0.4-0.1,0.6-0.2c0.4-0.4,0.5-1,0.1-1.4l-2.1-2.5l6.7-5.9l2.1,2.5c0.2,0.2,0.5,0.3,0.7,0.3
		c0.2,0,0.4-0.1,0.6-0.2c0.4-0.4,0.5-1,0.1-1.4l-2.1-2.5l5.2-4.5c0.6-0.5,1.1-1.1,1.6-1.7l2.2,2.6c0.2,0.2,0.5,0.3,0.7,0.3
		c0.2,0,0.5-0.1,0.6-0.2c0.4-0.4,0.4-1,0.1-1.4l-2.5-3c1-1.7,1.7-3.7,1.9-5.8l3.1,0.2c0,0,0.1,0,0.1,0c0.5,0,0.9-0.4,1-0.9
		c0-0.5-0.4-1-0.9-1.1l-3.2-0.2c-0.1-2.7-1-5.3-2.6-7.4l2.6-2.3c0.4-0.4,0.5-1,0.1-1.4c-0.3-0.4-1-0.5-1.4-0.1l-2.6,2.3
		c-1.9-1.9-4.2-3.2-6.8-3.8l0.2-3.2c0-0.5-0.4-1-0.9-1.1c-0.6,0-1,0.4-1,0.9L111,5c-2.1-0.1-4.1,0.2-5.9,1l-2.7-3.2
		c-0.3-0.4-1-0.5-1.4-0.1c-0.4,0.4-0.5,1-0.1,1.4l2.4,2.8c-0.7,0.4-1.3,0.9-1.9,1.4l-5.2,4.5l-2.3-2.7c-0.3-0.4-1-0.5-1.4-0.1
		c-0.4,0.4-0.5,1-0.1,1.4l2.3,2.7L87.9,20l-2.3-2.7c-0.4-0.4-1-0.5-1.4-0.1c-0.4,0.4-0.5,1-0.1,1.4l2.3,2.7l-6.7,5.9l-2.3-2.7
		c-0.3-0.4-1-0.5-1.4-0.1c-0.4,0.4-0.5,1-0.1,1.4l2.3,2.7l-6.7,5.9l-2.3-2.7c-0.3-0.4-1-0.5-1.4-0.1c-0.4,0.4-0.5,1-0.1,1.4l2.3,2.7
		l-6.7,5.9l-2.3-2.7c-0.4-0.4-1-0.5-1.4-0.1c-0.4,0.4-0.5,1-0.1,1.4l2.3,2.7L55.8,48L7.1,0L6.5,0.7C2.2,5.2-0.1,11.1,0,17.3
		c0.1,6.2,2.6,12.1,7,16.4L33.3,58L10.4,77.8c-1.8,1.6-2.3,4.3-1,6.4l2.6,4.8L1.7,109.2c-2.3,4.5-1.7,9.9,1.5,13.8l2.3,2.8
		c0.8,1,2,1.6,3.2,1.7c0.1,0,0.2,0,0.4,0c1.1,0,2.2-0.4,3-1.2l13.7-12c0.8,1.2,1.9,1.9,3.3,2.2c0.3,0,0.5,0.1,0.8,0.1
		c1.2,0,2.3-0.4,3.2-1.2l31.9-27.8l17.3,16l0.7,0.6l5.8-6.1l26.7,26.3c0,1.1,0.3,2,1,2.6c0.6,0.6,1.5,0.9,2.5,0.9
		c1.8,0,4.1-1.1,6-3.1c2.9-3,3.7-6.8,1.8-8.7C126.3,115.6,125.4,115.3,124.4,115.3z M102.6,9.8c2.3-2,5.3-3,8.4-2.8
		c3.1,0.2,5.9,1.7,7.9,4.1s3,5.4,2.7,8.6c-0.2,3.1-1.7,6-4,8L73.9,65.8l-4.7-4.6l42.9-37.6c0,0,0,0,0,0c1-0.9,1.6-2.1,1.7-3.4
		c0.1-1.3-0.3-2.7-1.2-3.7c-0.9-1.1-2.3-1.8-3.8-1.8c-1.2,0-2.3,0.4-3.2,1.2c-0.1,0.1-0.2,0.2-0.2,0.3c-0.1,0-0.2,0.1-0.3,0.1
		L61.9,54l-4.7-4.6L102.6,9.8z M107.9,24.7l-40,35.1l-4.5-4.5L104,20c0,1.1,0.4,2.2,1.2,3.1C105.9,23.9,106.8,24.5,107.9,24.7z
		 M105.9,19.6c0.1-0.8,0.4-1.6,1-2.1c0.5-0.5,1.2-0.7,2-0.7c0.9,0,1.7,0.4,2.3,1.1c0.5,0.6,0.8,1.4,0.7,2.2c-0.1,0.8-0.4,1.6-1,2.1
		c0,0,0,0,0,0l0,0c-1.2,1.1-3.2,0.9-4.3-0.3C106.1,21.2,105.8,20.4,105.9,19.6z M10.9,124.8c-1.2,1-2.9,0.9-3.9-0.3l-2.3-2.8
		c-2.7-3.2-3.2-7.8-1.3-11.6l9.7-19l2.2,4l-7.3,15c-1.3,2.9-0.9,6,1,8.3l0.3,0.4c0.4,0.4,0.9,0.7,1.4,0.7c0.4,0,0.9-0.2,1.2-0.5
		l11.1-9.7l1.8,3.3L10.9,124.8z M16.5,97.2l5.7,10.4l-0.1-0.1l-11.3,10l-0.3-0.4c-1.4-1.7-1.6-4-0.7-6.2L16.5,97.2z M25,108.5
		L11.1,83.3c-0.8-1.3-0.5-2.9,0.6-3.9l23-20l6.7,6.2c-1.5,5.9-0.6,12.3,2.8,18l3.2,5.4L25,108.5z M32,113.8
		c-0.7,0.6-1.6,0.8-2.5,0.7c-0.9-0.1-1.6-0.7-2.1-1.4l-1.5-2.8l23.4-20.4c0.4-0.3,0.4-0.8,0.2-1.2c0,0,0,0,0-0.1l-3.6-6.1
		C43,77.6,42,72.2,43.1,67.1l12.1,11.2c-1,0.6-1.7,1.7-1.8,3c-0.2,2.1,1.4,4,3.5,4.1c0.1,0,0.2,0,0.3,0c1.5,0,2.7-0.9,3.4-2.1l3.2,3
		L32,113.8z M55.3,81.3c0.1-0.8,0.6-1.5,1.4-1.7l2.2,2c-0.1,1-1,1.7-1.9,1.6C56,83.2,55.2,82.3,55.3,81.3z M83.1,101.4L8.3,32.3
		c-4-4-6.3-9.3-6.4-15C1.9,11.9,3.7,6.8,7.2,2.8l6.1,6.1c-3.5,8.3-1.4,16.9,6,24.3L87.3,97L83.1,101.4z M88.7,95.6L20.7,31.7
		c-6.6-6.5-8.7-14.1-5.9-21.4l80,78.8L88.7,95.6z M123.8,123.5c-2.2,2.3-4.8,3-5.7,2.1c-0.4-0.4-0.4-1.1-0.4-1.5l0-0.5L90.3,96.7
		l5.8-6.2l27,26.4l0.5,0.5l0.5-0.1c0.5-0.1,1.1-0.1,1.5,0.3C126.6,118.6,126,121.2,123.8,123.5z"/>
	<path fill="#2D2D2D" d="M23.4,80.8c0.2,0,0.4-0.1,0.6-0.2l4.3-3.8c0.4-0.4,0.5-1,0.1-1.4c-0.3-0.4-1-0.5-1.4-0.1L22.7,79
		c-0.4,0.4-0.5,1-0.1,1.4C22.8,80.7,23.1,80.8,23.4,80.8z"/>
	<path fill="#2D2D2D" d="M32.6,80.3c-0.4-0.4-1-0.5-1.4-0.1l-8.6,7.5c-0.4,0.4-0.5,1-0.1,1.4c0.2,0.2,0.5,0.3,0.7,0.3
		c0.2,0,0.4-0.1,0.6-0.2l8.6-7.5C32.9,81.3,32.9,80.7,32.6,80.3z"/>
	<path fill="#2D2D2D" d="M39.5,86.7c-0.6-0.7-1.5-1.1-2.4-1.1c-0.8,0-1.5,0.3-2.1,0.8l-8.3,7.2c-0.6,0.6-1,1.4-1.1,2.2
		c-0.1,0.9,0.2,1.7,0.8,2.4l0.1,0.1c0.6,0.7,1.5,1.1,2.4,1.1c0.8,0,1.5-0.3,2.1-0.8l8.3-7.2c0.6-0.6,1-1.4,1.1-2.2
		c0.1-0.9-0.2-1.7-0.8-2.4L39.5,86.7z M38,90l-8.3,7.2c-0.5,0.4-1.3,0.4-1.8-0.1l-0.1-0.1c-0.2-0.3-0.3-0.6-0.3-0.9
		c0-0.3,0.2-0.7,0.4-0.9l8.3-7.2c0.2-0.2,0.5-0.3,0.8-0.3c0.4,0,0.7,0.2,1,0.4l0.1,0.2c0.2,0.3,0.3,0.6,0.3,0.9
		C38.4,89.4,38.3,89.7,38,90z"/>
	<path fill="#915E3C" d="M123.9,123.4c0,0.1-0.1,0.1-0.1,0.2c-2.2,2.4-4.8,3-5.7,2.1c-0.4-0.4-0.4-1.1-0.4-1.5l0.1-0.5L90.3,96.7
		l2.6-2.7L123.9,123.4z"/>
</g>
</svg>
