<?xml version="1.0" encoding="utf-8"?>
<!-- Generator: Adobe Illustrator 24.1.2, SVG Export Plug-In . SVG Version: 6.00 Build 0)  -->
<svg version="1.1" id="Layer_1" xmlns="http://www.w3.org/2000/svg" xmlns:xlink="http://www.w3.org/1999/xlink" x="0px" y="0px"
	 viewBox="0 0 128 128" style="enable-background:new 0 0 128 128;" xml:space="preserve">
<style type="text/css">
	.st0{fill:#85A362;}
	.st1{fill:#ABDCF3;}
	.st2{fill:#F4725D;}
	.st3{fill:#FCB94C;}
	.st4{fill:#E5D2B1;}
	.st5{fill:#E5B693;}
	.st6{fill:#897C6A;}
	.st7{fill:#2D2D2D;}
</style>
<g>
	<path class="st0" d="M43.13,94.94c1.62-0.08,3.24-0.33,4.86-0.19c1.54,0.12,3.07,0.32,4.61,0.79c0.03-0.28,0.06-0.57,0.09-0.86
		c0.34-3.02,0.73-6.03,1.19-9.04c-0.02-0.02-0.04-0.04-0.04-0.07c0-0.02,0.01-0.03,0.02-0.05c-1.46,1.59-2.92,3.18-4.39,4.76
		l-0.47,0.51l-0.49-0.45l-2.66-2.46l-0.45-0.41l0.39-0.42c3.09-3.29,6.19-6.58,9.21-9.93c-2.56,0.55-5.11,0.75-7.67,0.84
		c-1.35,0.03-2.7-0.05-4.04-0.12c-1.35-0.05-2.7-0.19-4.04-0.38c-1.35-0.18-2.7-0.28-4.04-0.22c-1.35,0.06-2.7,0.37-4.04,0.49
		c-1.35,0.12-2.7,0.04-4.04-0.05c-1.24-0.12-2.48-0.27-3.73-0.58c1.24,1.02,2.4,2.12,3.53,3.24c0.57,0.57,1.14,1.15,1.69,1.74
		L29.45,83c0.28,0.32,0.52,0.58,0.83,0.99l0.57,0.74l-0.87,0.48c-0.47,0.26-0.94,0.53-1.41,0.78c-0.21,0.11-0.42,0.22-0.63,0.33
		c1.18,1.89,2.23,3.86,3.44,5.72c0.7,1.06,1.43,2.1,2.19,3.11c0.11,0.15,0.23,0.29,0.34,0.43c1.45-0.13,2.9-0.23,4.34-0.34
		C39.89,95.12,41.51,95.02,43.13,94.94z"/>
	<path class="st0" d="M17.29,94.96l6.42,0.27c1.54,0.07,3.08,0.16,4.63,0.26c-0.95-0.68-1.9-1.35-2.84-2.04l-1.57-1.18l-1.54-1.22
		c-1.03-0.81-2.04-1.65-3.05-2.49l-0.59-0.49l0.36-0.58c0.34-0.54,0.68-1.09,1.02-1.63c-0.57-0.54-1.13-1.08-1.69-1.63
		c-0.68-0.7-1.37-1.38-2.03-2.11c-0.9,1.82-2.07,3.39-3.34,4.88c-0.66,0.75-1.4,1.43-2.13,2.11c-0.72,0.69-1.5,1.33-2.32,1.93
		c-0.81,0.61-1.57,1.27-2.2,2.04c-0.41,0.5-0.75,1.07-1.1,1.63c1.85,0.02,3.7,0.03,5.54,0.09C13.01,94.83,15.15,94.89,17.29,94.96z"
		/>
	<path class="st1" d="M17.43,104.33c-1.12,0.12-2.24,0.17-3.36,0.08c-0.67-0.04-1.34-0.09-2-0.15c-0.53-0.04-1.05-0.14-1.58-0.23
		c-0.12,0.8-0.17,1.6-0.1,2.41c0.53-0.1,1.04-0.23,1.53-0.31c0.59-0.11,1.19-0.09,1.82-0.04c0.63,0.05,1.28,0.14,1.98,0.26
		c0.7,0.12,1.44,0.26,2.28,0.45c-0.15-0.71-0.3-1.32-0.44-1.86C17.52,104.73,17.47,104.53,17.43,104.33z"/>
	<path class="st1" d="M30.52,104.33c-1.12,0.12-2.24,0.17-3.36,0.08c-0.67-0.04-1.34-0.09-2-0.15c-0.53-0.04-1.05-0.14-1.58-0.23
		c-0.12,0.8-0.17,1.6-0.1,2.41c0.53-0.1,1.04-0.23,1.53-0.31c0.59-0.11,1.19-0.09,1.82-0.04c0.63,0.05,1.28,0.14,1.98,0.26
		c0.7,0.12,1.44,0.26,2.28,0.45c-0.15-0.71-0.3-1.32-0.44-1.86C30.61,104.73,30.57,104.53,30.52,104.33z"/>
	<path class="st2" d="M48.87,88.87c2.93-3.45,5.87-6.89,8.84-10.3c3.11-3.58,6.21-7.17,9.37-10.71c3.16-3.54,6.34-7.06,9.55-10.55
		l4.83-5.22l4.88-5.18l0.4-0.42l0.36,0.41c1.06,1.24,2.11,2.49,3.15,3.75c0.99,1.19,1.98,2.38,2.96,3.59
		c0.81-0.71,1.63-1.4,2.47-2.06c-1.61-1.59-3.16-3.23-4.74-4.84l-2.35-2.47l-1.84-1.95c-3.13,3.7-6.31,7.35-9.51,10.98
		c-1.69,1.9-3.39,3.78-5.11,5.64l-5.23,5.54c-3.5,3.68-6.98,7.38-10.33,11.19c-3.24,3.64-6.38,7.37-9.52,11.1L48.87,88.87z"/>
	<path class="st3" d="M12.85,30.61c1.67,0.59,3.43,0.82,5.16,0.76c1.73-0.06,3.43-0.42,5.03-1.06c1.6-0.64,3.11-1.53,4.44-2.7
		c1.32-1.16,2.46-2.59,3.24-4.23c0.78-1.63,1.2-3.46,1.2-5.29c-0.01-1.83-0.43-3.66-1.21-5.29c-0.78-1.64-1.92-3.06-3.24-4.22
		C24.79,6.31,21.42,5,18.01,5.04c-3.4,0.01-6.78,1.35-9.26,3.74c-2.47,2.4-4.03,5.76-4.22,9.31c-0.08,1.77,0.18,3.59,0.84,5.26
		c0.65,1.68,1.67,3.22,2.95,4.47C9.62,29.08,11.18,30.03,12.85,30.61z"/>
	<path class="st4" d="M86.76,48.01l-4.21,5.05l-4.61,5.42c-3.08,3.61-6.2,7.18-9.33,10.74c-3.14,3.56-6.34,7.06-9.52,10.57
		c-0.63,0.7-1.27,1.39-1.9,2.09c2.14-0.25,4.29-0.39,6.43-0.49c2.57-0.11,5.14-0.17,7.71-0.05c2.57,0.12,5.14,0.43,7.71,0.49
		c2.57,0.07,5.14-0.03,7.71-0.21c2.57-0.19,5.14-0.33,7.71-0.38c2.57-0.08,5.14-0.13,7.71-0.12c4.83,0.08,9.65,0.29,14.48,0.82
		c-2.14-2.12-4.36-4.16-6.46-6.31c-1.18-1.2-2.32-2.43-3.44-3.68c-1.14-1.24-2.25-2.5-3.36-3.77c-2.04-2.36-4.06-4.75-5.96-7.23
		c0.3,2.18,0.56,4.35,0.79,6.53l0.06,0.56l-0.52,0.32c-1.24,0.76-2.47,1.54-3.72,2.28c-1.25,0.74-2.52,1.46-3.79,2.16
		c-2.55,1.41-5.08,2.84-7.7,4.13l-3.22,1.59l2.43-2.53c1.52-1.59,3.05-3.17,4.48-4.83c1.33-1.52,2.57-3.12,3.76-4.77
		c-0.66-0.56-1.32-1.12-1.96-1.69c-0.38-0.33-0.76-0.67-1.13-1.02c-0.37-0.34-0.74-0.69-1.1-1.04l-0.58-0.58l0.57-0.62
		c0.77-0.83,1.58-1.62,2.37-2.42c0.8-0.8,1.62-1.58,2.44-2.36c0.81-0.76,1.63-1.52,2.47-2.25c-1.1-1.09-2.19-2.19-3.27-3.29
		C88.76,50.08,87.76,49.05,86.76,48.01z"/>
	<path class="st5" d="M53.9,85.48c-0.01,0.01-0.01,0.01-0.02,0.02c0.01,0,0.01-0.01,0.02-0.01C53.9,85.49,53.9,85.49,53.9,85.48z"/>
	<path class="st1" d="M99.59,106.73c0.84-0.05,1.68-0.12,2.53-0.16c0.6-0.03,1.2-0.06,1.81-0.09c0.17-0.88,0.35-1.76,0.54-2.63
		c0.24-1.09,0.46-2.17,0.74-3.25c0.42-1.81,0.91-3.6,1.39-5.39c-1.24-0.04-2.49-0.09-3.73-0.17c-1.63-0.1-3.25-0.23-4.88-0.31
		c-1.63-0.07-3.25-0.11-4.88-0.07c-1.46,0.03-2.91,0.13-4.37,0.25c-0.15,0.96-0.31,1.92-0.5,2.88c-0.21,1.09-0.46,2.18-0.73,3.25
		c-0.49,1.93-1.02,3.84-1.59,5.75c0.57,0.04,1.15,0.09,1.72,0.15c0.81,0.08,1.63,0.17,2.44,0.29c0.45-0.97,0.9-1.93,1.37-2.89
		c0.6-1.22,1.24-2.42,1.85-3.64l0.9-1.77l0.07,1.92c0.04,1.09,0.08,2.17,0.16,3.25c0.07,1.04,0.16,2.08,0.28,3.11
		c0.79-0.1,1.57-0.17,2.36-0.26C97.91,106.86,98.75,106.8,99.59,106.73z"/>
	<path class="st6" d="M73.23,107.66c0.07-1.83,0.16-3.66,0.26-5.5c-1.96-0.07-3.92-0.18-5.88-0.31c-2.17-0.15-4.33-0.24-6.5-0.23
		c-0.04,2.02,0.05,4.05,0.16,6.08c0.11,2.12,0.17,4.24,0.09,6.36c-0.08,2.12-0.18,4.24-0.35,6.35c-0.16,2.08-0.37,4.16-0.7,6.23
		c0.23-0.01,0.46-0.01,0.69-0.01c3.29-0.1,6.58-0.39,9.87-0.48c0.92-0.03,1.84-0.04,2.76-0.04c-0.35-4.04-0.46-8.07-0.49-12.1
		C73.14,111.89,73.15,109.77,73.23,107.66z"/>
	<path class="st4" d="M52.56,95.88c-1.53,0.46-3.05,0.66-4.58,0.78c-1.62,0.14-3.24-0.11-4.86-0.19c-1.62-0.08-3.24-0.18-4.86-0.29
		c-1.37-0.11-2.74-0.2-4.11-0.32c0.59,0.76,1.2,1.51,1.81,2.26l1.04,1.28l-1.67-0.43c-1.07-0.28-2.14-0.55-3.21-0.85l-0.08-0.02
		L31.91,98c-1.02-0.69-2.02-1.4-3.02-2.11c-1.73,0.12-3.45,0.22-5.18,0.3l-6.42,0.27c-2.14,0.07-4.28,0.13-6.42,0.17
		c-1.8,0.05-3.61,0.06-5.41,0.08c0.01,2.27,0.01,4.54-0.03,6.81l-0.11,7.82c-0.06,2.61-0.11,5.21-0.21,7.82l-0.27,7.45
		c3.87,0.1,7.74,0.11,11.61-0.03l6-0.25c2-0.09,4-0.17,6-0.2l3-0.02l3,0.03c2,0.01,4,0.07,6,0.11c3.42,0.1,6.85,0.26,10.27,0.5
		c0.08-3.53,0.13-7.06,0.34-10.59c0.19-3.59,0.36-7.17,0.63-10.75C51.92,102.23,52.21,99.06,52.56,95.88z M18.91,103.43
		c-0.07,0.67-0.18,1.33-0.32,1.93c-0.14,0.6-0.29,1.14-0.44,1.58c-0.49,0.19-1.09,0.32-1.72,0.45c-0.64,0.12-1.32,0.21-2.03,0.26
		c-0.71,0.05-1.44,0.07-2.18-0.04c-0.74-0.1-1.46-0.27-2.14-0.37l-0.41-0.06l0.05-0.31c0.17-1.15,0.06-2.29-0.15-3.44l-0.08-0.42
		l0.6-0.11c0.67-0.12,1.34-0.26,2-0.31c0.67-0.06,1.34-0.11,2-0.15c1.34-0.11,2.67-0.02,4.01,0.15l0.91,0.11L18.91,103.43z
		 M32,103.43c-0.07,0.67-0.18,1.33-0.32,1.93c-0.14,0.6-0.29,1.14-0.44,1.58c-0.49,0.19-1.09,0.32-1.72,0.45
		c-0.64,0.12-1.32,0.21-2.03,0.26c-0.71,0.05-1.44,0.07-2.18-0.04c-0.74-0.1-1.46-0.27-2.14-0.37l-0.41-0.06l0.05-0.31
		c0.17-1.15,0.06-2.29-0.15-3.44l-0.08-0.42l0.6-0.11c0.67-0.12,1.34-0.26,2-0.31c0.67-0.06,1.34-0.11,2-0.15
		c1.34-0.11,2.67-0.02,4.01,0.15l0.91,0.11L32,103.43z M46.01,103.43c-0.07,0.67-0.19,1.33-0.32,1.93c-0.14,0.6-0.29,1.14-0.44,1.58
		c-0.49,0.19-1.09,0.32-1.72,0.45c-0.64,0.12-1.32,0.21-2.03,0.26c-0.71,0.05-1.44,0.07-2.18-0.04c-0.74-0.1-1.46-0.27-2.14-0.37
		l-0.41-0.06l0.05-0.31c0.17-1.15,0.06-2.29-0.15-3.44l-0.08-0.42l0.6-0.11c0.67-0.12,1.34-0.26,2-0.31c0.67-0.06,1.34-0.11,2-0.15
		c1.34-0.11,2.67-0.02,4.01,0.15l0.91,0.11L46.01,103.43z"/>
	<path class="st4" d="M86.5,86.35l-16.28-0.29l-15.87-0.37c0.02,3.04-0.02,6.08-0.12,9.12c-0.11,3.59-0.29,7.18-0.52,10.76
		c-0.24,3.58-0.59,7.16-0.92,10.73c-0.3,3.42-0.74,6.84-1.15,10.25c2.82,0.12,5.65,0.16,8.47,0.1c-0.23-2.09-0.34-4.18-0.4-6.27
		c-0.07-2.12-0.06-4.24-0.04-6.36c0.03-2.12,0.18-4.24,0.4-6.35c0.22-2.11,0.42-4.23,0.47-6.35l0.01-0.29l0.28,0
		c2.26,0.02,4.53-0.08,6.79-0.23c2.26-0.15,4.53-0.3,6.79-0.35l0.86-0.02l0,0.91c0.01,2.12,0.01,4.24-0.01,6.36
		c-0.03,2.12-0.12,4.24-0.22,6.35c-0.23,4.02-0.54,8.04-1.08,12.06c0.62,0,1.24,0,1.86,0.01c1.65,0.01,3.29,0.06,4.94,0.11
		c3.27,0.12,6.55,0.28,9.82,0.63c0.07-0.77,0.11-1.57,0.16-2.36c0.03-0.8,0.1-1.59,0.14-2.38c0.09-1.34,0.2-2.68,0.31-4.01
		l-1.79-0.54l-2.4-0.76l-1.01-0.32l0.41-1.03c0.5-1.26,1.07-2.5,1.61-3.74l1.7-3.7c0.09-0.19,0.18-0.39,0.27-0.58
		c-0.78,0.11-1.56,0.21-2.34,0.28c-0.83,0.09-1.67,0.14-2.5,0.21l-0.72,0.06l0.14-0.8c0.37-2.2,0.82-4.38,1.31-6.55
		c0.24-1.08,0.51-2.16,0.82-3.23c0.3-1.07,0.64-2.13,0.98-3.19l0.16-0.49l0.42,0.03c1.63,0.14,3.25,0.25,4.88,0.29
		c1.63,0.04,3.25,0,4.88-0.07c1.63-0.08,3.25-0.2,4.88-0.31c1.63-0.11,3.25-0.17,4.88-0.21l1.1-0.03l-0.24,1.13
		c-0.46,2.18-0.9,4.36-1.42,6.52c-0.24,1.08-0.53,2.16-0.81,3.23c-0.27,1.08-0.58,2.15-0.88,3.22l-0.19,0.69l-0.65-0.02
		c-0.84-0.03-1.68-0.08-2.53-0.12c-0.84-0.04-1.68-0.11-2.53-0.16c-0.84-0.07-1.68-0.12-2.53-0.22c-0.78-0.08-1.56-0.15-2.33-0.25
		c0.21,1.89,0.55,3.78,0.89,5.66c1.14-0.14,2.28-0.27,3.42-0.34l0.84-0.05l0.05,0.87c0.07,1.11,0.08,2.23,0.11,3.34
		c0.03,1.11,0.02,2.23,0.02,3.35c-0.02,2.21-0.09,4.42-0.31,6.63c0.01-0.01,0.02-0.01,0.03-0.02c1.36-0.17,2.73-0.32,4.09-0.43
		c1.36-0.11,2.73-0.2,4.09-0.27c1.36-0.08,2.73-0.13,4.09-0.17c1.05-0.02,2.11-0.04,3.16-0.05c0.12-1.47,0.27-2.93,0.41-4.39
		c0.18-1.78,0.36-3.56,0.61-5.33c0.25-1.77,0.52-3.54,0.73-5.32c0.21-1.78,0.34-3.56,0.4-5.34c0.06-1.79,0-3.58,0.01-5.37
		c0-1.79,0.09-3.57,0.27-5.35c0.28-3.06,0.65-6.12,1.23-9.16c-5.36,0.51-10.73,0.72-16.09,0.85C97.35,86.68,91.93,86.43,86.5,86.35z
		"/>
	<path class="st5" d="M117.01,82.3c-4.95,0.57-9.9,0.78-14.85,0.86c-2.57,0.02-5.14-0.04-7.71-0.12c-2.57-0.05-5.14-0.19-7.71-0.38
		c-2.57-0.18-5.14-0.28-7.71-0.21c-2.57,0.05-5.14,0.37-7.71,0.49c-2.57,0.11-5.14,0.05-7.71-0.05c-2.28-0.11-4.57-0.25-6.85-0.54
		c-0.81,0.89-1.62,1.78-2.43,2.67c0,0.15,0,0.31,0,0.46l15.88-0.37l16.28-0.29c5.43-0.08,10.86-0.33,16.28-0.19
		c5.38,0.13,10.76,0.33,16.14,0.85c0.07-0.34,0.13-0.68,0.2-1.02c-0.57-0.59-1.14-1.18-1.71-1.76
		C117.27,82.56,117.14,82.43,117.01,82.3z"/>
	<path class="st1" d="M44.53,104.33c-1.12,0.12-2.24,0.17-3.36,0.08c-0.67-0.04-1.34-0.09-2-0.15c-0.53-0.04-1.05-0.14-1.58-0.23
		c-0.12,0.8-0.17,1.6-0.1,2.41c0.53-0.1,1.04-0.23,1.53-0.31c0.59-0.11,1.19-0.09,1.82-0.04c0.63,0.05,1.28,0.14,1.98,0.26
		c0.7,0.12,1.44,0.26,2.28,0.45c-0.15-0.71-0.3-1.32-0.44-1.86C44.62,104.73,44.58,104.53,44.53,104.33z"/>
	<path class="st2" d="M112.77,72.77c-2.24-2.59-4.46-5.21-6.63-7.87c-2.14-2.62-4.24-5.29-6.27-8.02c-0.44,0.52-0.89,1.02-1.34,1.52
		c-0.42,0.47-0.84,0.93-1.27,1.39c0.03,0.22,0.06,0.43,0.09,0.65c2.45,2.16,4.78,4.43,7.09,6.73c1.18,1.2,2.36,2.39,3.52,3.62
		c1.17,1.21,2.31,2.44,3.43,3.7c2.24,2.51,4.32,5.17,6.53,7.7c2.12,2.43,4.33,4.76,6.62,7.03l1.81-1.76
		c-2.28-2.31-4.49-4.68-6.68-7.06C117.33,77.89,115.02,75.36,112.77,72.77z"/>
	<path class="st7" d="M12.45,31.59c1.72,0.83,3.62,1.32,5.56,1.38c1.93,0.06,3.9-0.31,5.68-1.09c1.79-0.77,3.38-1.96,4.65-3.4
		c2.54-2.92,3.75-6.69,3.77-10.39c0-3.69-1.21-7.48-3.75-10.4c-1.26-1.45-2.84-2.67-4.63-3.46c-1.78-0.82-3.75-1.2-5.71-1.24
		c-1.96,0-3.94,0.38-5.74,1.17c-1.8,0.78-3.45,1.92-4.8,3.33c-1.35,1.41-2.43,3.09-3.1,4.91c-0.69,1.82-0.96,3.77-0.88,5.68
		c0.18,3.83,1.8,7.47,4.4,10.17C9.19,29.63,10.73,30.76,12.45,31.59z M4.53,18.1c0.18-3.56,1.75-6.92,4.22-9.31
		c2.48-2.4,5.86-3.73,9.26-3.74c3.41-0.04,6.78,1.26,9.46,3.55c1.32,1.16,2.46,2.58,3.24,4.22c0.78,1.63,1.21,3.45,1.21,5.29
		c0.01,1.83-0.42,3.66-1.2,5.29c-0.77,1.64-1.92,3.07-3.24,4.23c-1.32,1.17-2.84,2.06-4.44,2.7c-1.6,0.64-3.3,1-5.03,1.06
		c-1.73,0.06-3.49-0.18-5.16-0.76c-1.67-0.58-3.23-1.53-4.52-2.78c-1.29-1.26-2.31-2.79-2.95-4.47C4.72,21.68,4.45,19.87,4.53,18.1z
		"/>
	<path class="st7" d="M121.04,79.17c-2.22-2.61-4.46-5.21-6.76-7.75c-2.31-2.54-4.64-5.04-7.03-7.51c-2.36-2.45-4.77-4.86-7.25-7.2
		c0-0.02,0-0.04-0.02-0.06c-0.03-0.04-0.09-0.05-0.13-0.02c0,0-0.01,0.01-0.01,0.01c-0.01,0-0.02,0-0.02,0.01
		c-0.01,0-0.01,0.01-0.01,0.02c-0.58,0.41-1.14,0.84-1.71,1.26c-0.58,0.43-1.16,0.87-1.73,1.32l-0.17,0.13l0,0.29
		c-0.02,2.45,0.03,4.89,0.11,7.33c-1.11,0.62-2.22,1.23-3.32,1.88c-1.26,0.73-2.5,1.49-3.73,2.26c-1.48,0.92-2.96,1.84-4.43,2.79
		c0.61-0.8,1.22-1.6,1.86-2.37c1.38-1.71,2.85-3.33,4.4-4.9l0.31-0.31l-0.34-0.39c-0.66-0.77-1.32-1.54-1.99-2.3
		c-0.33-0.38-0.67-0.76-1.02-1.12c-0.15-0.17-0.31-0.33-0.47-0.49c0.59-0.62,1.17-1.25,1.76-1.88c0.77-0.83,1.51-1.68,2.26-2.53
		c1.48-1.71,2.93-3.46,4.26-5.31c0.02-0.03,0.05-0.17,0.02-0.21c-1.4-1.8-2.86-3.55-4.28-5.32l-2.18-2.63l-2.19-2.61L86.75,41
		l-0.51,0.54c-3.48,3.7-6.89,7.46-10.29,11.23c-1.69,1.9-3.36,3.8-5.01,5.73l-4.9,5.83c-3.25,3.91-6.52,7.78-9.92,11.56
		c-0.28,0.31-6.15,0.13-8.79,0.04c-1.35-0.03-2.7,0.05-4.04,0.12c-1.35,0.05-2.7,0.19-4.04,0.38c-1.35,0.18-2.7,0.28-4.04,0.22
		c-1.35-0.06-2.7-0.37-4.04-0.49c-1.35-0.12-2.7-0.04-4.04,0.05c-1.35,0.13-2.7,0.28-4.04,0.65c-0.03,0.01-0.06,0.03-0.07,0.07
		c-0.01,0.05,0.02,0.11,0.07,0.12c0.04,0.01,0.09,0.02,0.13,0.03c-0.03,0.03-0.04,0.08-0.02,0.12c0.88,1.38,1.84,2.69,2.81,3.99
		c0.49,0.64,0.98,1.29,1.48,1.92l0.75,0.95c0.03,0.04,0.07,0.09,0.1,0.13c-0.18,0.09-0.37,0.18-0.55,0.28
		c-0.47,0.26-0.95,0.5-1.41,0.77l-0.84,0.49l0.55,0.74c1.52,2.03,3.27,3.91,4.8,5.94c0.76,1.02,1.49,2.06,2.18,3.12
		c0.38,0.58,0.75,1.16,1.11,1.76c-0.46-0.19-0.92-0.38-1.38-0.57c-0.98-0.83-1.99-1.63-2.99-2.44c-1.02-0.82-2.04-1.64-3.08-2.44
		l-1.56-1.19l-1.59-1.15c-0.88-0.64-1.78-1.26-2.67-1.87c0.24-0.5,0.48-1.01,0.71-1.52l0.25-0.56l-0.42-0.3
		c-0.8-0.57-1.61-1.13-2.43-1.68c-0.83-0.54-1.65-1.09-2.5-1.6c-0.01,0-0.02,0-0.02-0.01c0-0.02,0.01-0.03,0-0.04
		c-0.03-0.05-0.09-0.06-0.14-0.04c-1.81,1.04-3.33,2.34-4.76,3.74c-0.7,0.71-1.33,1.49-1.96,2.27c-0.64,0.76-5.3,6.01-6.05,6.64
		c-0.77,0.65-1.39,1.43-2,2.22c-0.59,0.82-1.16,1.65-1.57,2.63C0,99.38,0,99.41,0.01,99.44c0.03,0.05,0.09,0.07,0.14,0.05
		c0.95-0.48,1.74-1.1,2.51-1.74c0.26-0.23,0.52-0.46,0.77-0.7c-0.01,2.16-0.01,4.32,0.03,6.48l0.11,7.82
		c0.06,2.61,0.11,5.21,0.21,7.82l0.28,7.82l0.01,0.38l0.36-0.01c4-0.11,8-0.13,11.99,0.02l6,0.25c2,0.09,4,0.17,6,0.2l3,0.02l3-0.03
		c2-0.01,4-0.07,6-0.11c3.42-0.1,6.84-0.26,10.26-0.5l-0.01,0.24l0.45-0.02c3.29-0.15,6.58-0.2,9.87-0.1
		c3.29,0.1,6.58,0.39,9.87,0.48c1.65,0.05,3.29,0.05,4.94,0.02c1.65-0.01,3.29-0.06,4.94-0.11c3.29-0.12,6.58-0.28,9.87-0.63
		c0.04,0,0.12-0.11,0.13-0.13c0.29-0.77,0.47-1.54,0.67-2.32c0.21-0.77,0.38-1.55,0.56-2.33c0.34-1.56,0.65-3.12,0.94-4.68
		l0.12-0.66l-0.69-0.27L90,115.78l-1.34-0.49c0.4-0.92,0.79-1.84,1.19-2.76l1.52-3.78c0.5-1.26,1.01-2.52,1.48-3.8
		c0.25-0.67,0.49-1.34,0.73-2.01c0.06,0.41,0.13,0.82,0.18,1.23c0.15,1.07,0.27,2.15,0.37,3.23c0.21,2.16,0.24,4.33,0.29,6.51
		l0.01,0.58l0.68,0.01c1.05,0.02,2.11,0.02,3.16-0.01c0.04,0.83,0.09,1.67,0.14,2.5c0.07,1.11,0.17,2.22,0.26,3.33
		c0.21,2.22,0.47,4.44,0.88,6.65c0.01,0.04,0.04,0.07,0.08,0.08c0.03,0,0.11,0.01,0.14,0.02c1.36,0.17,2.73,0.32,4.09,0.43
		c1.36,0.11,2.73,0.2,4.09,0.27c1.36,0.08,2.73,0.13,4.09,0.17c1.36,0.03,2.73,0.07,4.09,0.05l0.94-0.01l0.07-0.94
		c0.14-1.78,0.2-3.57,0.28-5.35c0.08-1.79,0.16-3.57,0.17-5.36c0.01-1.79,0-3.58,0.05-5.37c0.05-1.79,0.18-3.57,0.38-5.35
		c0.2-1.78,0.51-3.54,0.76-5.32c0.26-1.77,0.43-3.55,0.51-5.34c0.18-3.4,0.27-6.81,0.06-10.24c1.66,1.75,3.27,3.55,4.85,5.39
		l0.26,0.3l0.33-0.27l2.75-2.22l0.43-0.35l-0.39-0.49C125.48,84.4,123.27,81.78,121.04,79.17z M90.58,56.65
		c-0.82,0.78-1.64,1.56-2.44,2.36c-0.79,0.8-1.6,1.59-2.37,2.42l-0.57,0.62l0.58,0.58c0.36,0.36,0.73,0.7,1.1,1.04
		c0.37,0.35,0.74,0.69,1.13,1.02c0.64,0.57,1.31,1.13,1.96,1.69c-1.19,1.65-2.43,3.24-3.76,4.77c-1.43,1.66-2.96,3.25-4.48,4.83
		l-2.43,2.53l3.22-1.59c2.62-1.29,5.15-2.72,7.7-4.13c1.27-0.7,2.54-1.42,3.79-2.16c1.26-0.73,2.48-1.51,3.72-2.28l0.52-0.32
		l-0.06-0.56c-0.22-2.18-0.49-4.36-0.79-6.53c1.91,2.49,3.92,4.87,5.96,7.23c1.11,1.26,2.22,2.53,3.36,3.77
		c1.13,1.25,2.27,2.48,3.44,3.68c2.1,2.16,4.32,4.2,6.46,6.31c-4.83-0.53-9.65-0.74-14.48-0.82c-2.57-0.02-5.14,0.04-7.71,0.12
		c-2.57,0.05-5.14,0.19-7.71,0.38c-2.57,0.18-5.14,0.28-7.71,0.21c-2.57-0.05-5.14-0.37-7.71-0.49c-2.57-0.11-5.14-0.05-7.71,0.05
		c-2.14,0.1-4.29,0.24-6.43,0.49c0.63-0.7,1.27-1.39,1.9-2.09c3.19-3.51,6.38-7.02,9.52-10.57c3.14-3.56,6.25-7.14,9.33-10.74
		l4.61-5.42l4.21-5.05c1,1.04,2,2.07,3.02,3.09c1.09,1.1,2.17,2.2,3.27,3.29C92.21,55.14,91.39,55.89,90.58,56.65z M56.57,76.28
		c3.35-3.81,6.83-7.51,10.33-11.19l5.23-5.54c1.73-1.86,3.43-3.74,5.11-5.64c3.2-3.64,6.38-7.28,9.51-10.98l1.84,1.95l2.35,2.47
		c1.58,1.61,3.14,3.25,4.74,4.84c-0.85,0.67-1.67,1.36-2.47,2.06c-0.98-1.21-1.97-2.4-2.96-3.59c-1.04-1.26-2.09-2.51-3.15-3.75
		l-0.36-0.41l-0.4,0.42l-4.88,5.18l-4.83,5.22c-3.21,3.49-6.39,7.01-9.55,10.55c-3.16,3.54-6.26,7.13-9.37,10.71
		c-2.97,3.41-5.92,6.85-8.84,10.3l-1.82-1.5C50.19,83.65,53.33,79.92,56.57,76.28z M53.9,85.48c0,0,0,0.01,0,0.01
		c-0.01,0-0.01,0-0.02,0.01C53.89,85.5,53.9,85.49,53.9,85.48z M33.59,95.14c-0.77-1.01-1.49-2.05-2.19-3.11
		c-1.21-1.86-2.27-3.83-3.44-5.72c0.21-0.11,0.42-0.22,0.63-0.33c0.47-0.25,0.94-0.52,1.41-0.78l0.87-0.48l-0.57-0.74
		c-0.31-0.41-0.55-0.66-0.83-0.99l-0.83-0.89c-0.55-0.6-1.12-1.17-1.69-1.74c-1.13-1.12-2.29-2.22-3.53-3.24
		c1.24,0.31,2.48,0.46,3.73,0.58c1.35,0.1,2.7,0.18,4.04,0.05c1.35-0.12,2.7-0.43,4.04-0.49c1.35-0.06,2.7,0.03,4.04,0.22
		c1.35,0.19,2.7,0.33,4.04,0.38c1.35,0.07,2.7,0.15,4.04,0.12c2.56-0.09,5.11-0.29,7.67-0.84c-3.02,3.35-6.12,6.64-9.21,9.93
		l-0.39,0.42l0.45,0.41l2.66,2.46l0.49,0.45l0.47-0.51c1.47-1.58,2.93-3.17,4.39-4.76c-0.01,0.01-0.02,0.03-0.02,0.05
		c0,0.03,0.02,0.06,0.04,0.07c-0.46,3.01-0.85,6.02-1.19,9.04c-0.03,0.28-0.06,0.57-0.09,0.86c-1.54-0.47-3.07-0.67-4.61-0.79
		c-1.62-0.14-3.24,0.11-4.86,0.19c-1.62,0.08-3.24,0.18-4.86,0.29c-1.45,0.12-2.9,0.21-4.34,0.34
		C33.82,95.42,33.7,95.28,33.59,95.14z M6.43,93.07c0.63-0.77,1.39-1.43,2.2-2.04c0.82-0.6,1.6-1.23,2.32-1.93
		c0.73-0.68,1.47-1.36,2.13-2.11c1.26-1.48,2.43-3.06,3.34-4.88c0.66,0.73,1.36,1.41,2.03,2.11c0.56,0.55,1.12,1.09,1.69,1.63
		c-0.34,0.54-0.68,1.09-1.02,1.63l-0.36,0.58l0.59,0.49c1.01,0.84,2.01,1.68,3.05,2.49l1.54,1.22l1.57,1.18
		c0.94,0.69,1.89,1.37,2.84,2.04c-1.54-0.1-3.08-0.19-4.63-0.26l-6.42-0.27c-2.14-0.07-4.28-0.13-6.42-0.17
		c-1.85-0.05-3.7-0.06-5.54-0.09C5.67,94.14,6.01,93.57,6.43,93.07z M51.03,116.17c-0.2,3.52-0.25,7.06-0.34,10.59
		c-3.42-0.24-6.85-0.4-10.27-0.5c-2-0.04-4-0.1-6-0.11l-3-0.03l-3,0.02c-2,0.03-4,0.11-6,0.2l-6,0.25
		c-3.87,0.14-7.74,0.13-11.61,0.03l0.27-7.45c0.1-2.61,0.15-5.21,0.21-7.82l0.11-7.82c0.04-2.27,0.04-4.54,0.03-6.81
		c1.8-0.02,3.61-0.03,5.41-0.08c2.14-0.04,4.28-0.1,6.42-0.17l6.42-0.27c1.73-0.08,3.45-0.18,5.18-0.3c1,0.71,2,1.42,3.02,2.11
		l0.14,0.09l0.08,0.02c1.06,0.3,2.14,0.57,3.21,0.85l1.67,0.43l-1.04-1.28c-0.61-0.75-1.21-1.5-1.81-2.26
		c1.37,0.12,2.74,0.21,4.11,0.32c1.62,0.11,3.24,0.21,4.86,0.29c1.62,0.08,3.24,0.33,4.86,0.19c1.53-0.12,3.05-0.32,4.58-0.78
		c-0.35,3.17-0.65,6.35-0.9,9.53C51.39,108.99,51.22,112.58,51.03,116.17z M70.88,126.15c-3.29,0.08-6.58,0.38-9.87,0.48
		c-0.23,0.01-0.46,0.01-0.69,0.01c0.33-2.07,0.54-4.15,0.7-6.23c0.17-2.12,0.27-4.23,0.35-6.35c0.07-2.12,0.02-4.24-0.09-6.36
		c-0.11-2.03-0.2-4.05-0.16-6.08c2.17-0.01,4.33,0.08,6.5,0.23c1.96,0.13,3.92,0.25,5.88,0.31c-0.09,1.83-0.19,3.66-0.26,5.5
		c-0.07,2.12-0.09,4.24-0.09,6.36c0.04,4.03,0.15,8.06,0.49,12.1C72.71,126.12,71.8,126.12,70.88,126.15z M94.43,104.09
		c-0.08-1.08-0.12-2.17-0.16-3.25l-0.07-1.92l-0.9,1.77c-0.62,1.21-1.26,2.42-1.85,3.64c-0.47,0.96-0.92,1.92-1.37,2.89
		c-0.81-0.12-1.63-0.22-2.44-0.29c-0.57-0.06-1.15-0.11-1.72-0.15c0.58-1.9,1.11-3.82,1.59-5.75c0.27-1.08,0.53-2.16,0.73-3.25
		c0.19-0.95,0.35-1.91,0.5-2.88c1.46-0.12,2.91-0.22,4.37-0.25c1.63-0.04,3.25,0,4.88,0.07c1.63,0.08,3.25,0.2,4.88,0.31
		c1.24,0.08,2.49,0.13,3.73,0.17c-0.48,1.79-0.97,3.58-1.39,5.39c-0.27,1.08-0.5,2.17-0.74,3.25c-0.2,0.87-0.37,1.75-0.54,2.63
		c-0.6,0.03-1.2,0.06-1.81,0.09c-0.84,0.04-1.68,0.11-2.53,0.16c-0.84,0.07-1.68,0.12-2.53,0.22c-0.79,0.08-1.57,0.15-2.36,0.26
		C94.59,106.17,94.5,105.13,94.43,104.09z M117.65,94.85c-0.18,1.78-0.27,3.56-0.27,5.35c-0.01,1.79,0.05,3.59-0.01,5.37
		c-0.06,1.79-0.19,3.57-0.4,5.34c-0.21,1.78-0.48,3.55-0.73,5.32c-0.25,1.77-0.43,3.55-0.61,5.33c-0.14,1.46-0.29,2.93-0.41,4.39
		c-1.05,0-2.11,0.03-3.16,0.05c-1.36,0.04-2.73,0.09-4.09,0.17c-1.36,0.07-2.73,0.16-4.09,0.27c-1.36,0.11-2.73,0.26-4.09,0.43
		c-0.01,0-0.02,0.01-0.03,0.02c0.22-2.22,0.29-4.43,0.31-6.63c0-1.12,0.01-2.23-0.02-3.35c-0.03-1.11-0.04-2.23-0.11-3.34
		l-0.05-0.87l-0.84,0.05c-1.14,0.07-2.28,0.2-3.42,0.34c-0.34-1.88-0.68-3.76-0.89-5.66c0.78,0.1,1.56,0.17,2.33,0.25
		c0.84,0.09,1.68,0.15,2.53,0.22c0.84,0.05,1.68,0.12,2.53,0.16c0.84,0.04,1.68,0.1,2.53,0.12l0.65,0.02l0.19-0.69
		c0.3-1.07,0.61-2.14,0.88-3.22c0.28-1.08,0.57-2.15,0.81-3.23c0.53-2.16,0.96-4.34,1.42-6.52l0.24-1.13l-1.1,0.03
		c-1.63,0.04-3.25,0.1-4.88,0.21c-1.63,0.1-3.25,0.23-4.88,0.31c-1.63,0.07-3.25,0.11-4.88,0.07c-1.63-0.04-3.25-0.15-4.88-0.29
		l-0.42-0.03l-0.16,0.49c-0.34,1.06-0.69,2.12-0.98,3.19c-0.31,1.07-0.57,2.15-0.82,3.23c-0.49,2.17-0.93,4.35-1.31,6.55l-0.14,0.8
		l0.72-0.06c0.84-0.07,1.67-0.12,2.5-0.21c0.78-0.07,1.56-0.17,2.34-0.28c-0.09,0.19-0.18,0.39-0.27,0.58l-1.7,3.7
		c-0.54,1.25-1.11,2.48-1.61,3.74l-0.41,1.03l1.01,0.32l2.4,0.76l1.79,0.54c-0.11,1.34-0.22,2.67-0.31,4.01
		c-0.05,0.79-0.11,1.59-0.14,2.38c-0.04,0.79-0.08,1.59-0.16,2.36c-3.27-0.35-6.55-0.51-9.82-0.63c-1.65-0.05-3.29-0.1-4.94-0.11
		c-0.62-0.01-1.24-0.01-1.86-0.01c0.54-4.01,0.85-8.03,1.08-12.06c0.11-2.12,0.19-4.24,0.22-6.35c0.02-2.12,0.02-4.24,0.01-6.36
		l0-0.91l-0.86,0.02c-2.26,0.05-4.53,0.2-6.79,0.35c-2.26,0.15-4.53,0.25-6.79,0.23l-0.28,0l-0.01,0.29
		c-0.05,2.12-0.25,4.23-0.47,6.35c-0.22,2.11-0.37,4.23-0.4,6.35c-0.02,2.12-0.03,4.24,0.04,6.36c0.06,2.09,0.17,4.18,0.4,6.27
		c-2.82,0.06-5.65,0.02-8.47-0.1c0.41-3.42,0.86-6.83,1.15-10.25c0.33-3.58,0.68-7.15,0.92-10.73c0.23-3.58,0.42-7.17,0.52-10.76
		c0.1-3.03,0.15-6.07,0.12-9.12l15.87,0.37l16.28,0.29c5.43,0.08,10.86,0.33,16.28,0.19c5.36-0.13,10.73-0.33,16.09-0.85
		C118.3,88.73,117.93,91.79,117.65,94.85z M118.92,85.47c-5.38-0.52-10.76-0.72-16.14-0.85c-5.43-0.14-10.86,0.11-16.28,0.19
		L70.21,85.1l-15.88,0.37c0-0.15,0-0.31,0-0.46c0.81-0.89,1.62-1.78,2.43-2.67c2.28,0.29,4.56,0.43,6.85,0.54
		c2.57,0.11,5.14,0.17,7.71,0.05c2.57-0.12,5.14-0.43,7.71-0.49c2.57-0.06,5.14,0.03,7.71,0.21c2.57,0.19,5.14,0.33,7.71,0.38
		c2.57,0.08,5.14,0.13,7.71,0.12c4.95-0.08,9.9-0.3,14.85-0.86c0.13,0.13,0.26,0.26,0.39,0.39c0.58,0.58,1.15,1.17,1.71,1.76
		C119.04,84.79,118.98,85.13,118.92,85.47z M124.54,89.23c-2.28-2.27-4.5-4.6-6.62-7.03c-2.21-2.53-4.29-5.19-6.53-7.7
		c-1.11-1.26-2.26-2.49-3.43-3.7c-1.15-1.22-2.34-2.42-3.52-3.62c-2.3-2.3-4.63-4.57-7.09-6.73c-0.03-0.22-0.06-0.43-0.09-0.65
		c0.43-0.46,0.85-0.92,1.27-1.39c0.45-0.5,0.9-1.01,1.34-1.52c2.03,2.73,4.12,5.39,6.27,8.02c2.17,2.66,4.38,5.28,6.63,7.87
		c2.25,2.59,4.56,5.12,6.89,7.64c2.19,2.38,4.4,4.75,6.68,7.06L124.54,89.23z"/>
	<path class="st7" d="M14.07,102.44c-0.67,0.04-1.34,0.09-2,0.15c-0.67,0.05-1.34,0.19-2,0.31l-0.6,0.11l0.08,0.42
		c0.21,1.15,0.32,2.29,0.15,3.44l-0.05,0.31l0.41,0.06c0.69,0.1,1.41,0.28,2.14,0.37c0.74,0.11,1.48,0.09,2.18,0.04
		c0.71-0.05,1.39-0.14,2.03-0.26c0.63-0.12,1.23-0.26,1.72-0.45c0.15-0.44,0.3-0.98,0.44-1.58c0.14-0.6,0.25-1.26,0.32-1.93
		l0.08-0.72l-0.91-0.11C16.74,102.43,15.41,102.34,14.07,102.44z M15.73,106.36c-0.7-0.12-1.35-0.21-1.98-0.26
		c-0.63-0.05-1.23-0.07-1.82,0.04c-0.49,0.08-1.01,0.21-1.53,0.31c-0.07-0.8-0.02-1.6,0.1-2.41c0.53,0.1,1.05,0.19,1.58,0.23
		c0.67,0.06,1.34,0.11,2,0.15c1.12,0.09,2.24,0.04,3.36-0.08c0.04,0.2,0.09,0.39,0.14,0.6c0.14,0.55,0.29,1.16,0.44,1.86
		C17.17,106.61,16.43,106.48,15.73,106.36z"/>
	<path class="st7" d="M27.17,102.44c-0.67,0.04-1.34,0.09-2,0.15c-0.67,0.05-1.34,0.19-2,0.31l-0.6,0.11l0.08,0.42
		c0.21,1.15,0.32,2.29,0.15,3.44l-0.05,0.31l0.41,0.06c0.69,0.1,1.41,0.28,2.14,0.37c0.74,0.11,1.48,0.09,2.18,0.04
		c0.71-0.05,1.39-0.14,2.03-0.26c0.63-0.12,1.23-0.26,1.72-0.45c0.15-0.44,0.3-0.98,0.44-1.58c0.14-0.6,0.25-1.26,0.32-1.93
		l0.08-0.72l-0.91-0.11C29.84,102.43,28.5,102.34,27.17,102.44z M28.82,106.36c-0.7-0.12-1.35-0.21-1.98-0.26
		c-0.63-0.05-1.23-0.07-1.82,0.04c-0.49,0.08-1.01,0.21-1.53,0.31c-0.07-0.8-0.02-1.6,0.1-2.41c0.53,0.1,1.05,0.19,1.58,0.23
		c0.67,0.06,1.34,0.11,2,0.15c1.12,0.09,2.24,0.04,3.36-0.08c0.04,0.2,0.09,0.39,0.14,0.6c0.14,0.55,0.29,1.16,0.44,1.86
		C30.26,106.61,29.52,106.48,28.82,106.36z"/>
	<path class="st7" d="M41.18,102.44c-0.67,0.04-1.34,0.09-2,0.15c-0.67,0.05-1.34,0.19-2,0.31l-0.6,0.11l0.08,0.42
		c0.21,1.15,0.32,2.29,0.15,3.44l-0.05,0.31l0.41,0.06c0.69,0.1,1.41,0.28,2.14,0.37c0.74,0.11,1.48,0.09,2.18,0.04
		c0.71-0.05,1.39-0.14,2.03-0.26c0.63-0.12,1.23-0.26,1.72-0.45c0.15-0.44,0.3-0.98,0.44-1.58c0.14-0.6,0.25-1.26,0.32-1.93
		l0.08-0.72l-0.91-0.11C43.85,102.43,42.51,102.34,41.18,102.44z M42.83,106.36c-0.7-0.12-1.35-0.21-1.98-0.26
		c-0.63-0.05-1.23-0.07-1.82,0.04c-0.49,0.08-1.01,0.21-1.53,0.31c-0.07-0.8-0.02-1.6,0.1-2.41c0.53,0.1,1.05,0.19,1.58,0.23
		c0.67,0.06,1.34,0.11,2,0.15c1.12,0.09,2.24,0.04,3.36-0.08c0.04,0.2,0.09,0.39,0.14,0.6c0.14,0.55,0.29,1.16,0.44,1.86
		C44.27,106.61,43.53,106.48,42.83,106.36z"/>
</g>
</svg>
