<?xml version="1.0" encoding="utf-8"?>
<!-- Generator: Adobe Illustrator 24.1.2, SVG Export Plug-In . SVG Version: 6.00 Build 0)  -->
<svg version="1.1" id="Layer_1" xmlns="http://www.w3.org/2000/svg" xmlns:xlink="http://www.w3.org/1999/xlink" x="0px" y="0px"
	 viewBox="0 0 128 128" style="enable-background:new 0 0 128 128;" xml:space="preserve">
<style type="text/css">
	.st0{fill:#EAE4D6;}
	.st1{fill:#93825C;}
	.st2{fill:#66644D;}
	.st3{fill:#F7D3A4;}
	.st4{fill:#AD9C7A;}
	.st5{fill:#98A037;}
	.st6{fill:#B8B6A8;}
	.st7{fill:#7E7F42;}
	.st8{fill:#2D2D2D;}
</style>
<g>
	<path class="st0" d="M63.85,39.2c0.47-0.15,0.95-0.27,1.46-0.3c0.37-0.04,0.75-0.02,1.13,0.04c0.24-0.65,0.22-1.44,0.09-2.19
		c-0.14-0.78-0.39-1.55-0.72-2.3c-0.33-0.73-0.71-1.48-1.19-2.08c-0.54-0.63-1.05-1.29-1.56-1.96c-0.51-0.67-0.99-1.36-1.38-2.17
		c-0.09-0.19-0.17-0.46-0.24-0.63c-0.05-0.16-0.14-0.34-0.22-0.51c-0.08-0.15-0.17-0.29-0.25-0.44c-1.64-0.29-3.12-0.2-4.69-0.2
		c-0.85-0.02-1.71-0.04-2.58-0.02c-0.87,0.02-1.79-0.1-2.68,0c-0.89,0.09-1.74,0.41-2.47,0.94l-1.05,0.75l-0.45,0.31
		c-0.04,0.03-0.34,0.28-0.56,0.42c-0.97,0.58-1.94,0.74-2.89,0.8c-0.47,0.02-0.93,0.01-1.39-0.03c-0.03,0.01-0.06,0.02-0.08,0.03
		c-0.08,0.02-0.16,0.03-0.23,0.05c0.06,0.06,0.11,0.11,0.17,0.17c0.34,0.31,0.72,0.6,1.11,0.88c0.79,0.56,1.63,1.09,2.48,1.61
		c1.75,1.07,3.38,2.23,5.05,3.36l4.96,3.44l1.23,0.87c0.42,0.3,0.8,0.57,1.27,0.93c0.08,0.07,0.12,0.09,0.23,0.2
		c0.16,0.18,0.23,0.34,0.29,0.48c0.1,0.28,0.11,0.48,0.12,0.67c0,0.25-0.02,0.46-0.04,0.67c0.15-0.14,0.29-0.28,0.44-0.43
		c0.7-0.64,1.43-1.25,2.2-1.81C62.18,40.18,62.9,39.48,63.85,39.2z"/>
	<path class="st0" d="M42.56,12.18c-0.03,0.11-0.08,0.26-0.1,0.34c-0.02,0.08-0.04,0.19-0.05,0.29c-0.08,1.01-0.08,2.05-0.05,3.09
		c0,0.25,0.02,0.5,0.02,0.66c0.02,0.52,0.03,1.04,0.05,1.56c0.13,3.48,0.31,6.96,0.54,10.43c0.15-0.04,0.3-0.09,0.45-0.13
		c0.81-0.26,1.62-0.56,2.17-0.96c0.15-0.1,0.18-0.16,0.49-0.41c0.24-0.17,0.47-0.29,0.71-0.38c0.47-0.18,0.95-0.25,1.42-0.31
		c0.96-0.08,1.83-0.27,2.69-0.59c0.86-0.31,1.71-0.76,2.62-0.97c0.91-0.21,1.84-0.37,2.79-0.39c0.95-0.01,1.91,0.16,2.84,0.49
		c0.39,0.14,0.78,0.33,1.14,0.55c-0.74-1.19-1.53-2.37-2.3-3.53l-0.08-0.13l-0.04-0.24c-0.25-1.63-0.84-3.44-1.9-4.57
		c-1.09-1.14-2.89-1.69-4.63-2.42c-1.79-0.79-3.4-1.7-5.04-2.63c-1.59-0.92-3.17-1.86-4.71-2.87c0,0-0.01,0.01-0.01,0.01
		c-0.05,0.09,0.07,0.31,0.18,0.48l0.36,0.56c0.24,0.39,0.45,0.83,0.51,1.33C42.64,11.68,42.61,11.94,42.56,12.18z"/>
	<path class="st1" d="M62.55,68.83c-0.1-0.13-0.17-0.28-0.21-0.42c-0.12-0.46-0.04-0.87-0.03-1.24c0.02-0.38,0.03-0.76,0.02-1.15
		l-0.04-1.15l-0.09-1.15c-0.15-1.53-0.35-3.06-0.37-4.59c-0.03-1.53-0.01-3.06,0.04-4.6c0-0.1,0.01-0.21,0.01-0.31
		c-0.03-0.2-0.04-0.4-0.05-0.59c-0.08,0.28-0.15,0.56-0.2,0.84c-0.16,0.9-0.18,1.87-0.21,2.84c-0.03,0.98-0.07,1.96-0.14,2.95
		c-0.08,1-0.16,1.98-0.45,3.05c-0.08,0.26-0.18,0.57-0.37,0.86l-0.42,0.64l-0.82,1.22l-1.66,2.42l-3.34,4.81
		c-1.09,1.54-2.18,3.07-3.27,4.6c1.76-1.77,3.71-3.35,5.67-4.87C58.55,71.51,60.52,70.13,62.55,68.83z"/>
	<path class="st2" d="M38.8,93.63l-0.15,0.17l-0.19-0.03c-0.39-0.05-0.78-0.07-1.17-0.06c0.49,0.51,0.98,1.03,1.46,1.54l0.89,0.95
		c0.31,0.33,0.55,0.6,0.95,0.99c0.36,0.4,0.58,0.95,0.67,1.48c0.08,0.53,0.12,1.08,0.04,1.59c-0.09,0.51-0.36,0.94-0.7,1.31
		c-0.26,0.26-0.54,0.49-0.9,0.65c0.13,0.29,0.27,0.58,0.39,0.87c0.15,0.37,0.29,0.74,0.43,1.11l0.19,0.56l0.1,0.28l0.05,0.14
		l0.02,0.05c0,0,0.01,0,0.01,0l0.08-0.04l0.17-0.07l0.33-0.14c0.22-0.09,0.45-0.18,0.68-0.25c0.46-0.16,0.92-0.3,1.39-0.42
		c0.04-0.01,0.08-0.02,0.12-0.03c-0.1-0.64,0.01-1.14,0.25-1.55c0.08-0.12,0.18-0.22,0.3-0.31c0.12-0.1,0.21-0.17,0.36-0.32
		c0.26-0.27,0.53-0.48,0.82-0.65c0.58-0.35,1.22-0.52,1.84-0.56c0.57-0.02,1.12,0.05,1.63,0.23c0.04-0.13,0.07-0.27,0.12-0.4
		c0.21-0.6,0.54-1.16,0.93-1.68c0.11-0.13,0.22-0.26,0.34-0.39c-0.47,0.02-0.94,0.02-1.41,0.05l-0.41,0.03l-0.1,0.01
		c-0.07,0.01-0.17,0.01-0.26,0c-0.18-0.02-0.36-0.08-0.51-0.18c-0.3-0.2-0.49-0.51-0.51-0.87c-0.01-0.17,0.02-0.35,0.09-0.51
		c0.09-0.19,0.12-0.2,0.16-0.26l0.98-1.33c0.53-0.69,1.06-1.39,1.59-2.08c-1.01-0.19-2.01-0.52-2.95-1
		c-0.31-0.17-0.62-0.35-0.91-0.55c-0.26,0.6-0.53,1.2-0.8,1.8L44.59,95l-0.3,0.62l-0.15,0.31c-0.02,0.03,0.01,0-0.04,0.07
		c-0.03,0.05-0.07,0.1-0.12,0.14c-0.07,0.07-0.14,0.12-0.21,0.16c-0.12,0.07-0.22,0.11-0.32,0.14c-0.36,0.11-0.64,0.13-0.99,0.1
		c-0.18-0.03-0.36-0.03-0.68-0.23l-0.41-0.38c-0.34-0.31-0.71-0.6-0.98-0.97c-0.43-0.62-0.77-1.33-0.93-2.17
		C39.26,93.09,39.04,93.37,38.8,93.63z"/>
	<path class="st0" d="M49.27,12.21c0.85,0.37,1.71,0.75,2.55,1.03c0.87,0.29,1.77,0.57,2.69,0.93c0.91,0.35,1.86,0.87,2.63,1.63
		c0.79,0.77,1.3,1.71,1.66,2.66c0.35,0.91,0.55,1.8,0.63,2.79c0.8,1.39,1.54,2.81,2.2,4.28c0.17,0.38,0.34,0.78,0.49,1.18
		c0.07,0.21,0.15,0.41,0.2,0.65c0.06,0.23,0.08,0.36,0.15,0.55c0.25,0.72,0.68,1.43,1.12,2.11c0.45,0.68,0.96,1.32,1.48,1.97
		c0.54,0.7,0.93,1.43,1.3,2.2c0.36,0.76,0.67,1.56,0.87,2.4c0.16,0.65,0.25,1.35,0.17,2.07c0.97,0,1.95,0.01,2.92,0.04
		c-0.1-1.16-0.4-4-1.2-6.26c-0.02-0.01-0.03-0.01-0.05-0.02c-0.11-0.06-0.21-0.13-0.29-0.2c-0.17-0.14-0.3-0.28-0.43-0.43
		c-0.25-0.29-0.45-0.6-0.63-0.92c-0.37-0.63-0.7-1.27-0.94-1.94c-0.24-0.67-0.42-1.37-0.43-2.11c-0.01-0.37,0-0.74,0.01-1.1
		c0.01-0.18,0.01-0.36,0.03-0.55c0.01-0.09,0.02-0.18,0.05-0.28c0.02-0.09,0.08-0.2,0.2-0.24c0.25-0.02,0.37,0.16,0.51,0.27
		l0.38,0.39c0.25,0.27,0.51,0.53,0.74,0.81c0.47,0.56,0.8,1.2,0.98,1.9c0.19,0.69,0.23,1.42,0.38,2.11
		c0.07,0.35,0.17,0.68,0.25,1.04c0.02,0.1,0.04,0.2,0.06,0.3c0.13,0.07,1.56,6.13,1.65,7.28c0.51,0.02,1.02,0.04,1.52,0.07
		c-0.33-1.46-0.51-2.93-0.66-4.39c-0.14-1.48-0.24-2.96-0.25-4.44c-0.01-0.74,0.01-1.48,0.04-2.22l0.04-1.08
		c0.01-0.31-0.01-0.64-0.05-0.98c-0.09-0.67-0.24-1.36-0.41-2.05c-0.17-0.7-0.36-1.4-0.59-2.1c-0.46-1.39-1.1-2.74-1.92-3.96
		c-0.82-1.23-1.86-2.31-2.77-3.47c-0.9-1.16-1.69-2.4-2.48-3.64c-0.39-0.62-0.78-1.25-1.16-1.89c-0.19-0.32-0.37-0.65-0.56-0.97
		L62.13,7.2c-0.27,0.05-0.54,0.09-0.81,0.15c-0.99,0.19-2.02,0.33-3.09,0.18c-0.53-0.07-1.07-0.23-1.54-0.44
		c-0.43-0.19-0.82-0.39-1.21-0.55c-2.1,0.36-4.2,0.75-6.3,1.18l-3.22,0.65l-1.62,0.31l-0.81,0.14l-0.41,0.06
		c-0.15,0.01-0.25,0.05-0.46,0.02c-0.19-0.02-0.43-0.04-0.63-0.02c-0.08,0-0.17,0.02-0.24,0.04c1.65,0.7,3.28,1.43,4.91,2.16
		L49.27,12.21z"/>
	<path class="st3" d="M42.98,95.11C42.98,95.11,42.98,95.11,42.98,95.11c-0.02,0.02-0.05,0.05-0.06,0.08c-0.03,0.05,0.01,0,0.01,0
		L42.98,95.11z"/>
	<path class="st3" d="M42.69,95.02C42.61,94.98,42.65,95.02,42.69,95.02C42.69,95.02,42.69,95.02,42.69,95.02z"/>
	<path class="st0" d="M76.81,23.5c-0.32,0.97-0.68,1.94-1.14,2.87c-0.23,0.46-0.46,0.93-0.73,1.37c-0.22,0.34-0.44,0.67-0.68,0.99
		c0.01,0.42,0.02,0.84,0.01,1.26c-0.01,1.48-0.11,2.96-0.25,4.44c-0.15,1.47-0.33,2.94-0.66,4.4c0.43,0.03,0.85,0.05,1.28,0.08
		c0.62,0.05,1.23,0.11,1.85,0.18c0.59-1.73,2-6.01,2.59-8.48l-0.07-0.23l-0.04-0.22c-0.04-0.29-0.04-0.56-0.03-0.83
		c0.03-0.53,0.13-1.04,0.24-1.53c0.22-1,0.52-1.96,0.9-2.89c0.4-0.92,0.84-1.83,1.49-2.64c0.31-0.41,0.64-0.8,0.98-1.18
		c0.18-0.19,0.34-0.38,0.53-0.55c0.1-0.08,0.19-0.17,0.31-0.23c0.1-0.08,0.26-0.12,0.41-0.07c0.14,0.07,0.22,0.21,0.24,0.34
		c0.05,0.13,0.04,0.26,0.06,0.38c0.02,0.25,0.01,0.51,0.01,0.76c-0.02,0.51-0.03,1.02-0.09,1.53c-0.1,1.02-0.39,1.99-0.83,2.89
		c-0.44,0.91-1.02,1.74-1.5,2.61c-0.24,0.44-0.48,0.87-0.74,1.31c-0.14,0.22-0.27,0.43-0.44,0.65c-0.05,0.06-0.11,0.13-0.18,0.19
		c-0.57,2.45-1.91,6.5-2.54,8.37c0.25,0.03,0.49,0.06,0.74,0.1c0.45,0.07,0.9,0.15,1.35,0.23c0.29-1.34,0.76-2.62,1.28-3.86
		c0.62-1.43,1.32-2.81,2.11-4.14c0.79-1.33,1.69-2.58,2.57-3.84c0.88-1.27,1.92-2.42,2.88-3.63c0.49-0.6,0.92-1.22,1.36-1.87
		l1.34-1.9c0.89-1.28,1.77-2.59,2.84-3.72c1.08-1.13,2.29-2.12,3.56-3.03c0.65-0.44,1.31-0.87,2.02-1.23
		c0.07-0.03,0.14-0.07,0.21-0.1c-1.63-0.2-3.26-0.38-4.88-0.51l-0.06,0l-0.05-0.01c-1.5-0.35-2.87-0.79-4.26-1.25l-4.13-1.41
		l-4.1-1.44c-1.23-0.43-2.46-0.85-3.68-1.23c-0.05,1.66-0.15,3.32-0.27,4.98c-0.18,2.02-0.39,4.04-0.67,6.06
		C77.65,19.49,77.48,21.55,76.81,23.5z"/>
	<path class="st0" d="M115.86,27.79c-0.03-0.05-0.05-0.1-0.08-0.18c-0.04-0.19-0.02-0.16-0.03-0.22l-0.02-0.29
		c-0.04-0.58,0.05-1.14,0.2-1.68c-2.73,0.84-5.48,1.36-8.2,1.88c-1.42,0.26-2.89,0.36-4.27,0.68c-1.39,0.36-2.67,1.15-3.8,2.06
		c-1.14,0.93-2.16,1.98-3.27,2.93c-1.1,0.95-2.14,1.97-3.22,2.93c-1.02,0.92-2.07,1.8-3.12,2.7c0.12-0.07,0.24-0.15,0.36-0.22
		c1.34-0.8,2.74-1.51,4.19-2.11c1.45-0.59,2.96-1.04,4.51-1.4c1.54-0.35,3.18-0.59,4.85-0.24c1.58,0.37,3.01,0.9,4.53,1.28
		c1.5,0.39,3.06,0.63,4.55,1.07c0.75,0.22,1.47,0.49,2.18,0.79c0.72,0.29,1.42,0.62,2.12,0.96c1.26,0.63,2.5,1.3,3.67,2.12
		c0-0.03,0.01-0.05,0.01-0.08l0.08-0.58c0.04-0.24,0.06-0.31,0.03-0.46c-0.06-0.29-0.24-0.62-0.43-0.95
		c-0.19-0.33-0.39-0.67-0.58-1.02c-0.37-0.7-0.67-1.49-0.72-2.32c-0.02-0.2-0.01-0.43-0.01-0.6c0.01-0.17-0.02-0.34-0.05-0.52
		c-0.06-0.35-0.17-0.71-0.3-1.06c-0.54-1.4-1.36-2.71-2.21-3.99l-0.64-0.96C116.07,28.14,115.96,27.98,115.86,27.79z"/>
	<path class="st0" d="M95.43,17.84c-1.12,1.02-2.35,1.94-3.43,3.01c-0.53,0.54-1.04,1.11-1.46,1.74c-0.42,0.62-0.81,1.29-1.17,1.97
		c-0.71,1.36-1.34,2.78-2.1,4.11C86.51,30,85.79,31.35,85,32.65c-1.48,2.4-3.08,4.68-4.69,7.04c0.05,0.01,0.1,0.02,0.15,0.03
		c0.54,0.12,1.08,0.26,1.65,0.47c0.17-0.05,0.34-0.09,0.51-0.13c0.35-0.57,2.22-3.55,4.32-5.73c0.02-0.02,0.05-0.03,0.07-0.05
		c0.02-0.11,0.03-0.21,0.06-0.3c0.07-0.24,0.17-0.45,0.28-0.64c0.22-0.39,0.47-0.74,0.74-1.07c0.53-0.66,1.1-1.29,1.74-1.83
		c0.64-0.55,1.32-1.04,2.11-1.38c0.39-0.18,0.79-0.33,1.19-0.48c0.2-0.07,0.4-0.14,0.61-0.2c0.2-0.04,0.44-0.14,0.66,0.04
		c0.08,0.11,0.09,0.25,0.05,0.35c-0.01,0.11-0.06,0.21-0.1,0.31c-0.08,0.2-0.17,0.39-0.27,0.58c-0.19,0.38-0.38,0.76-0.6,1.13
		c-0.43,0.74-1.01,1.36-1.68,1.86c-0.67,0.5-1.44,0.88-2.12,1.34l-1.04,0.7c-0.18,0.11-0.36,0.23-0.57,0.33
		c-0.05,0.02-0.1,0.04-0.15,0.06c-0.02,0.04-0.04,0.09-0.08,0.12c-1.46,1.53-2.85,3.51-3.61,4.67c0.73-0.01,1.44,0.1,2.13,0.26
		c0.2,0.05,0.4,0.12,0.6,0.18c0.52-0.92,1.13-1.79,1.78-2.63c0.93-1.18,1.94-2.29,3.05-3.3c1.1-1.01,2.32-1.89,3.53-2.76
		c1.21-0.87,2.57-1.55,3.89-2.25c1.33-0.69,2.59-1.43,3.92-2.19c1.38-0.73,2.8-1.23,4.26-1.56c1.46-0.31,2.94-0.47,4.42-0.57
		c0.64-0.04,1.28-0.06,1.92-0.06c-0.01,0-0.02,0-0.02-0.01c-0.21-0.05-0.42-0.09-0.62-0.11c-0.31-0.02-0.59-0.17-0.8-0.31
		c-0.42-0.3-0.74-0.64-1.06-0.98c-0.62-0.69-1.19-1.39-1.8-2.03c-0.3-0.32-0.62-0.62-0.95-0.87c-0.3-0.21-0.76-0.47-1.13-0.72
		c-1.52-1.03-2.98-2.13-4.4-3.29c-0.35-0.29-0.71-0.59-1.05-0.91c-0.17-0.16-0.35-0.32-0.52-0.5c-0.17-0.18-0.36-0.36-0.53-0.68
		c-0.32-0.6-0.24-1.29-0.05-1.79c-0.15,0.13-0.3,0.26-0.45,0.39c-0.56,0.5-1.12,1.01-1.66,1.54C97.61,15.75,96.55,16.83,95.43,17.84
		z"/>
	<path class="st3" d="M48.75,101.38c-0.49,0.05-0.95,0.15-1.36,0.34c-0.47,0.21-0.88,0.5-1.19,0.83c-0.16,0.16-0.29,0.34-0.37,0.52
		c-0.03,0.07-0.08,0.24-0.12,0.37c-0.04,0.14-0.09,0.27-0.17,0.39c-0.02,0.03-0.05,0.06-0.08,0.09c0.32-0.04,0.64-0.07,0.96-0.08
		c0.66-0.02,1.36,0.01,2.05,0.19l-0.01-0.1c0-0.15-0.01-0.31-0.01-0.46c0-0.31,0.02-0.62,0.06-0.92
		C48.55,102.15,48.64,101.76,48.75,101.38z"/>
	<path class="st4" d="M80.57,29.82c0.29-0.38,0.53-0.81,0.73-1.25c0.41-0.89,0.61-1.87,0.88-2.8c0.27-0.94,0.62-1.84,1.04-2.73
		c0.2-0.45,0.41-0.89,0.55-1.36c0.08-0.23,0.11-0.47,0.14-0.71c0.01-0.23-0.01-0.51-0.17-0.61c-0.19-0.04-0.39,0.15-0.54,0.32
		c-0.14,0.19-0.28,0.39-0.38,0.61c-0.22,0.43-0.37,0.91-0.53,1.37c-0.28,0.94-0.63,1.84-0.97,2.75c-0.34,0.9-0.7,1.8-1,2.71
		c-0.15,0.45-0.28,0.91-0.39,1.36c-0.04,0.18-0.07,0.35-0.09,0.51c0.01,0,0.01,0,0.02,0c0.15,0.03,0.26,0.12,0.35,0.23
		C80.34,30.1,80.46,29.97,80.57,29.82z"/>
	<path class="st0" d="M63.72,7.98c0.54,0.52,1.05,1.07,1.54,1.64c0.49,0.57,0.96,1.15,1.41,1.75c0.45,0.6,0.88,1.21,1.25,1.86
		c0.75,1.3,1.3,2.72,1.98,4.04c0.68,1.33,1.45,2.6,2.23,3.89c0.77,1.3,1.51,2.66,1.86,4.24c0.09,0.4,0.15,0.8,0.19,1.23
		c0.01,0.14,0.02,0.27,0.02,0.4c0.24-1.36,0.5-2.68,0.77-4.02c0.38-1.95,1.02-3.85,1.47-5.81c0.46-1.95,0.86-3.93,1.22-5.91
		c0.33-1.64,0.61-3.29,0.88-4.94c-1.94,0.17-3.79,0.18-5.66,0.23c-1.95,0.04-3.9,0.09-5.83,0.18c-1.46,0.07-2.9,0.13-4.31,0.33
		l0.15,0.12C63.17,7.47,63.46,7.71,63.72,7.98z"/>
	<path class="st4" d="M88.43,34.32c0.36-0.17,0.7-0.4,1.01-0.66c0.63-0.51,1.11-1.19,1.65-1.79c0.53-0.61,1.13-1.14,1.79-1.62
		c0.32-0.25,0.66-0.49,0.94-0.78c0.15-0.14,0.27-0.3,0.38-0.47c0.1-0.16,0.18-0.38,0.1-0.5c-0.12-0.09-0.34-0.03-0.51,0.05
		c-0.18,0.08-0.35,0.2-0.5,0.33c-0.32,0.25-0.59,0.56-0.87,0.86c-0.54,0.61-1.12,1.16-1.7,1.71c-0.58,0.55-1.19,1.07-1.75,1.62
		c-0.28,0.28-0.55,0.56-0.79,0.84c-0.12,0.14-0.24,0.28-0.33,0.42c0,0,0,0,0,0.01c0.04,0.05,0.08,0.1,0.11,0.16
		C88.11,34.46,88.27,34.4,88.43,34.32z"/>
	<path class="st4" d="M68.29,28.41c-0.33-0.6-0.56-1.23-0.72-1.92c-0.08-0.34-0.16-0.68-0.29-1c-0.06-0.16-0.14-0.31-0.24-0.45
		c-0.09-0.13-0.23-0.27-0.35-0.26c-0.1,0.04-0.12,0.24-0.1,0.4c0.02,0.16,0.06,0.33,0.12,0.49c0.11,0.32,0.29,0.63,0.46,0.93
		c0.35,0.6,0.62,1.22,0.88,1.85l0.74,1.88c0.13,0.31,0.27,0.61,0.41,0.89c0.04,0.09,0.09,0.17,0.13,0.25
		c0.03-0.02,0.06-0.05,0.1-0.06c0.02-0.01,0.03,0,0.05-0.01c0-0.06,0-0.12-0.01-0.17c-0.03-0.33-0.11-0.67-0.22-0.99
		C69.04,29.6,68.61,29.02,68.29,28.41z"/>
	<path class="st1" d="M69.09,67.28c-0.69,0.37-1.45,0.62-2.16,0.94c-0.71,0.33-1.43,0.65-2.21,0.89c-0.3,0.08-0.6,0.17-0.94,0.19
		c-2.14,1.53-4.21,3.15-6.2,4.86l-1.79,1.63c-0.6,0.54-1.14,1.14-1.72,1.7c-0.58,0.56-1.14,1.13-1.69,1.72
		c-0.55,0.58-1.14,1.14-1.69,1.72c-2.06,2.13-3.94,4.38-5.86,6.72c-0.06,0.75,0.14,1.52,0.58,2.15c0.22,0.32,0.56,0.65,0.9,0.95
		c0.34,0.31,0.71,0.57,1.1,0.83c1.56,0.99,3.46,1.48,5.36,1.5c0.9,0.01,1.8-0.34,2.48-0.95c0.34-0.3,0.63-0.66,0.84-1.07l0.66-1.31
		c0.53-1,1.07-2,1.6-3c0-0.01,0.01-0.02,0.02-0.03c1.31-2.45,2.62-4.89,3.98-7.3c1.93-3.41,4.09-6.67,6.32-9.9
		c0.56-0.8,1.13-1.6,1.72-2.4c0.26-0.36,0.55-0.7,0.84-1.04c-0.03,0.02-0.06,0.04-0.1,0.06C70.47,66.54,69.79,66.93,69.09,67.28z"/>
	<path class="st5" d="M65.69,95.93c-2.34,0.06-4.69,0.39-7.02,0.85c-1.17,0.23-2.32,0.52-3.48,0.81c-0.58,0.15-1.15,0.31-1.72,0.48
		c-0.59,0.18-1.12,0.33-1.6,0.57c-0.97,0.49-1.78,1.31-2.3,2.34c-0.26,0.51-0.47,1.06-0.61,1.63c-0.07,0.29-0.13,0.57-0.18,0.87
		c-0.03,0.15-0.04,0.29-0.06,0.44l-0.02,0.16c0.05,0.02,0.11,0.04,0.16,0.06c0.14-0.09,0.27-0.17,0.39-0.24l0.76-0.3l0.8-0.2
		l0.81-0.12c0.27-0.03,0.55-0.05,0.82-0.06c2.29-0.33,4.61-0.46,6.93-0.44c2.93,0.04,5.9,0.3,8.78,1.25
		c0.72,0.24,1.43,0.51,2.13,0.87c0.35,0.17,0.69,0.37,1.03,0.59l0.49,0.34l0.42,0.33c1.12,0.86,2.31,1.67,3.52,2.43
		c2.02,1.24,4.11,2.41,6.25,3.48c3.25,0.53,6.36,1.48,9.37,2.66c-2.26-3.43-4.67-6.76-7.43-9.8c-1.63-1.77-3.35-3.46-5.26-4.89
		c-1.89-1.43-3.95-2.7-6.12-3.36l-0.4-0.13l-0.42-0.09l-0.84-0.18c-0.58-0.07-1.14-0.2-1.72-0.23
		C68.03,95.92,66.86,95.91,65.69,95.93z"/>
	<path class="st5" d="M57.29,90.04l-0.69,1.29c-0.25,0.46-0.57,0.88-0.96,1.23c-0.77,0.71-1.8,1.13-2.85,1.18
		c-0.86,0.02-1.73-0.03-2.59-0.17c-0.37,0.84-0.76,1.67-1.14,2.51l-0.54,1.13l0.06-0.01c1.07-0.24,2.13-0.65,3.23-0.66
		c0.35-0.01,0.7-0.01,1.05,0c1.03-1.55,2.44-2.87,4.09-3.82c1.79-1.06,3.83-1.49,5.77-1.9c1.95-0.41,3.88-0.77,5.73-1.41
		c1.86-0.61,3.62-1.51,5.21-2.7c0.03-0.02,0.07-0.02,0.09,0.01c0.02,0.03,0.02,0.06-0.01,0.09c-1.49,1.32-3.21,2.4-5.07,3.19
		c-1.86,0.78-3.82,1.27-5.72,1.8c-1.91,0.52-3.71,1.23-5.42,2.04c-1.5,0.71-2.88,1.66-4.25,2.72c0.06,0.01,0.13,0.01,0.19,0.01
		c0.16,0.01,0.32,0.03,0.48,0.06c0.28-0.1,0.56-0.2,0.84-0.3c1.16-0.39,2.33-0.74,3.52-1.02c2.38-0.61,4.82-0.97,7.3-1.09
		c1.58-0.02,3.19,0.04,4.77,0.33c0.59-0.47,1.15-0.97,1.66-1.53c0.68-0.77,1.3-1.61,1.7-2.54c0.1-0.23,0.18-0.47,0.22-0.7
		c0.04-0.22,0.06-0.5,0.11-0.78c0.11-0.55,0.33-1.06,0.59-1.54c0.37-0.66,0.82-1.24,1.32-1.79c-1.27,0.13-2.52,0.18-3.76,0.2
		c-0.77,0-1.54-0.05-2.31-0.12c-0.77-0.07-1.54-0.09-2.31-0.1c-1.54-0.02-3.09,0.05-4.62,0.22c-1.23,0.12-2.44,0.35-3.63,0.69
		C58.65,87.72,57.95,88.86,57.29,90.04z"/>
	<path class="st6" d="M74.15,55.28c-1.17-0.3-2.33-0.68-3.47-1.09c-0.57-0.21-1.13-0.43-1.69-0.67l-0.83-0.37
		c-0.12-0.05-0.34-0.16-0.49-0.25c-0.17-0.1-0.31-0.2-0.46-0.31c-1.1-0.86-1.84-1.83-2.59-2.79c-0.29-0.39-0.57-0.78-0.85-1.17
		c-0.08,0.64-0.19,1.27-0.34,1.91c-0.13,0.57-0.31,1.14-0.5,1.7c0.13,0.75,0.23,1.5,0.31,2.25c0.17,1.54,0.28,3.08,0.31,4.62
		c0.03,1.54-0.15,3.09-0.34,4.63c-0.09,0.77-0.17,1.54-0.24,2.31l-0.08,1.16c-0.01,0.39-0.05,0.76,0.04,1.05
		c0.03,0.11,0.08,0.19,0.14,0.25c0.57-0.36,1.14-0.72,1.72-1.07c1.72-1.01,3.47-1.97,5.24-2.87l0.04-0.03
		c1.2-0.93,2.44-1.78,3.74-2.6c0.08-0.05,0.15-0.1,0.23-0.14c0.1-0.16,0.2-0.31,0.31-0.47c0.49-0.72,1.01-1.41,1.58-2.06
		c0.56-0.66,1.17-1.28,1.81-1.87c0.43-0.38,0.87-0.77,1.36-1.11c-0.47-0.08-0.94-0.16-1.41-0.25C76.5,55.84,75.32,55.59,74.15,55.28
		z"/>
	<path class="st0" d="M114.6,39.34c-0.72-0.25-1.44-0.53-2.14-0.85c-1.4-0.63-2.74-1.43-4.18-1.97c-1.43-0.54-2.96-0.91-4.44-0.93
		c-0.72,0-1.41,0.16-2.13,0.35c-0.71,0.2-1.42,0.4-2.13,0.64c-1.42,0.47-2.82,1.05-4.24,1.59l-4.28,1.58
		c-0.92,0.35-1.86,0.68-2.79,1.03c0.07,0.03,0.15,0.06,0.22,0.09c0.66,0.3,1.25,0.64,1.88,1.08c1.69,0.87,3.36,1.77,5.01,2.74
		c0.42,0.25,0.84,0.49,1.26,0.78c0.1,0.07,0.22,0.15,0.34,0.24l0.26,0.19l0.58,0.38c0.8,0.51,1.63,1.02,2.43,1.56
		c1.61,1.06,3.19,2.18,4.69,3.42c0.74,0.62,1.47,1.27,2.14,1.97c0.4,0.41,0.78,0.85,1.14,1.3c0.05,0.02,0.09,0.05,0.14,0.07
		c0.06-0.16,0.12-0.31,0.19-0.46c0.19-0.4,0.41-0.75,0.64-1.09c0.46-0.67,0.98-1.28,1.51-1.87c0.54-0.58,1.09-1.14,1.68-1.67
		c0.29-0.27,0.59-0.52,0.91-0.77l0.48-0.36c0.15-0.11,0.29-0.22,0.43-0.34c1.15-0.96,2.25-2.06,3.38-3.12
		c0.56-0.53,1.13-1.07,1.73-1.58c0.15-0.13,0.31-0.25,0.46-0.38c0.14-0.11,0.28-0.23,0.4-0.35c0.25-0.25,0.46-0.52,0.6-0.82
		c0.09-0.18,0.14-0.38,0.18-0.58c-1.43-0.28-2.8-0.68-4.16-1.11C116.05,39.84,115.32,39.61,114.6,39.34z"/>
	<path class="st0" d="M104.41,51.95c-1.57-1.06-3.21-2.02-4.87-2.96l-2.51-1.39l-0.65-0.37l-0.34-0.22
		c-0.08-0.05-0.16-0.1-0.26-0.15c-0.39-0.22-0.81-0.44-1.23-0.65c-0.84-0.43-1.7-0.85-2.56-1.26l-2.57-1.25l-0.05-0.03l-0.09-0.06
		c-0.46-0.32-1.06-0.63-1.62-0.89c-0.57-0.26-1.16-0.48-1.76-0.62c-1.14-0.27-2.29-0.31-3.35-0.01c0.39,0.73,0.76,1.46,1.11,2.21
		c0.57,1.24,1.05,2.52,1.44,3.85c0.22,0.66,0.38,1.34,0.56,2.02c0.13,0.7,0.23,1.4,0.16,2.13c-0.03,0.36-0.06,0.72-0.15,1.08
		l-0.13,0.53l-0.07,0.26l-0.11,0.26c-0.15,0.34-0.29,0.68-0.49,0.99c-0.02,0.02-0.04,0.05-0.05,0.07c0.34-0.16,0.76-0.36,1.21-0.49
		c0.81-0.21,1.47-0.17,2.12-0.11c1.3,0.17,2.48,0.46,3.71,1.07c0.16,0.09,0.31,0.17,0.49,0.31c0.07,0.05,0.1,0.08,0.13,0.1
		c0.12,0.04,0.39,0.08,0.64,0.09c0.53,0.03,1.1,0.01,1.67-0.03c2.29-0.15,4.63-0.48,6.94-0.84c1.2-0.22,2.42-0.29,3.6-0.36
		l1.75-0.12c0.29-0.02,0.57-0.04,0.85-0.08c0.05,0,0.09-0.01,0.13-0.02c-0.05-0.1-0.1-0.2-0.14-0.3
		C106.85,53.67,105.65,52.78,104.41,51.95z"/>
	<path class="st5" d="M24.29,92.83c0.91,0.18,1.86,0.34,2.8,0.47c0.94,0.14,1.89,0.2,2.83,0.26c0.95,0.03,1.9,0.02,2.84-0.04
		c0.95-0.08,1.89-0.2,2.84-0.33c0.82-0.12,1.67-0.21,2.54-0.2c-0.8-1.15-1.65-2.22-2.6-3.2c-1.02-1.05-2.15-1.99-3.36-2.8
		c-2.42-1.62-5.11-2.89-7.91-3.97c-2.79-1.09-5.67-2.09-8.36-3.53c-2.68-1.45-5.1-3.41-6.88-5.86c-0.02-0.03-0.01-0.07,0.01-0.09
		c0.03-0.02,0.07-0.01,0.09,0.01c1.91,2.33,4.38,4.11,7.07,5.37c2.68,1.3,5.56,2.17,8.41,3.14c2.84,0.97,5.8,2,8.29,3.89
		c2.42,1.79,4.33,4.26,5.42,6.99c0.55-0.76,1.02-1.57,1.35-2.42c0.36-0.93,0.55-1.9,0.56-2.86c0.05-1.94-0.6-3.85-1.52-5.62
		c-0.9-1.77-2.15-3.31-3.76-4.29c-0.8-0.49-1.68-0.87-2.6-1.13c-0.93-0.25-1.89-0.4-2.88-0.48c-0.99-0.07-1.99-0.07-3,0
		c-0.98,0.05-2.08,0.19-3.17,0.22c-1.09,0.05-2.18-0.02-3.27-0.15c-1.08-0.16-2.16-0.39-3.2-0.72c-2.09-0.67-3.94-1.77-5.79-2.63
		c-0.92-0.4-1.91-0.78-2.88-1.13c-0.49-0.17-0.98-0.33-1.48-0.47l-0.75-0.19l-0.38-0.08l-0.14-0.02l0.07,0.09l0.23,0.28
		c0.15,0.19,0.3,0.39,0.43,0.59c0.27,0.4,0.53,0.82,0.75,1.25c0.46,0.86,0.85,1.78,1.08,2.76l0.14,0.74l0.08,0.76l0.01,0.77
		l0.01,0.28l0.05,0.3c0.17,0.81,0.56,1.65,1.03,2.42c1.89,3.15,4.62,5.83,7.59,8.02c1.5,1.09,3.08,2.05,4.78,2.77
		C22.51,92.37,23.39,92.64,24.29,92.83z"/>
	<path class="st0" d="M83.6,48.5c-0.21-1.29-0.5-2.58-0.85-3.87c-0.21-0.8-0.45-1.59-0.7-2.39l-0.06,0.02l-0.35-0.17
		c-0.45-0.22-1.04-0.4-1.62-0.55c-0.59-0.15-1.2-0.29-1.82-0.41c-1.23-0.23-2.49-0.43-3.75-0.61c-2.52-0.35-5.06-0.71-7.59-0.94
		l-0.35-0.03c-0.63,0.54-1.23,0.96-1.85,1.36c-0.38,0.24-0.77,0.43-1.19,0.59c-0.42,0.16-0.85,0.32-1.26,0.52
		c-0.73,0.36-1.46,0.75-2.18,1.15c0.27-0.03,0.53-0.07,0.81-0.1c0.16-0.01,0.31-0.03,0.5-0.03l0.07,0l0.03,0
		c0.04,0,0.11,0,0.16,0.01c0.22,0.03,0.33,0.09,0.43,0.14c0.18,0.1,0.28,0.18,0.37,0.26c0.33,0.3,0.52,0.54,0.73,0.79
		c0.39,0.5,0.74,0.98,1.08,1.47c0.68,0.97,1.35,1.92,2.04,2.84c0.69,0.9,1.43,1.81,2.19,2.4c0.09,0.07,0.19,0.14,0.27,0.19
		c0.1,0.06,0.14,0.08,0.29,0.15l0.79,0.35c0.53,0.23,1.06,0.44,1.6,0.64c1.08,0.4,2.17,0.75,3.28,1.05
		c1.11,0.31,2.23,0.56,3.37,0.78c1.15,0.23,2.29,0.4,3.54,0.72c0.31,0.09,0.64,0.18,0.98,0.34c0.09,0.04,0.17,0.08,0.26,0.13
		l0.23,0.13c0.11,0.06,0.21,0.13,0.31,0.17c0.2,0.1,0.39,0.16,0.53,0.17c0.04,0,0.08,0,0.12,0c0.07-1.23,0-2.32-0.11-3.44
		C83.76,51.1,83.81,49.8,83.6,48.5z"/>
	<path class="st2" d="M32.21,119.59l-1.18,2.61c-0.63,1.41-1.29,2.81-1.95,4.21l3.13-0.14c0.22-0.79,0.44-1.59,0.69-2.37
		c0.16-0.48,0.33-0.96,0.51-1.44c0.1-0.25,0.16-0.46,0.29-0.73c0.14-0.28,0.27-0.5,0.41-0.73c0.55-0.9,1.16-1.71,1.8-2.51
		c0.31-0.38,0.63-0.74,0.97-1.1c-1.31,0.16-2.61,0.23-3.91,0.24C32.76,118.32,32.5,118.96,32.21,119.59z"/>
	<path class="st7" d="M27,111.88c0.59-0.73,1.2-1.57,1.98-2.38c0.77-0.81,1.69-1.5,2.64-2.03c0.96-0.53,1.95-0.93,2.97-1.25
		c1.01-0.32,2.04-0.55,3.08-0.71c0.98-0.16,1.96-0.26,2.94-0.29l-0.05-0.08l-0.15-0.26l-0.3-0.51c-0.2-0.34-0.4-0.68-0.6-1.01
		c-0.4-0.67-0.84-1.31-1.29-1.93c-0.91-1.23-1.94-2.38-3.15-3.16c-1.19-0.81-2.58-1.17-3.9-0.93c-1.31,0.23-2.54,1.04-3.61,2.03
		c-2.14,2.03-3.91,4.66-5.26,7.45c-1.28,2.7-2.15,5.62-2.47,8.59c0.03,0,0.05,0.01,0.08,0.01c0.84-0.22,1.68-0.35,2.46-0.57
		c0.96-0.26,1.86-0.61,2.63-1.1C25.77,113.29,26.4,112.6,27,111.88z"/>
	<path class="st7" d="M26.38,98.17c0.6-0.58,1.27-1.12,2.02-1.57c0.75-0.43,1.6-0.76,2.51-0.89c1.8-0.3,3.65,0.36,4.99,1.41
		c1.35,1.06,2.34,2.4,3.13,3.8c0.03,0.06,0.06,0.11,0.09,0.17c0.01-0.09,0.02-0.17,0.02-0.26c0.05-0.41,0.12-0.78,0.26-1.1
		c0.16-0.32,0.33-0.65,0.36-0.98c0.04-0.33,0.01-0.65-0.11-0.97c-0.05-0.16-0.17-0.33-0.29-0.51l-0.37-0.54l-0.73-1.08
		c-0.44-0.64-0.87-1.29-1.29-1.94c-1.36,0.05-2.76,0.31-4.16,0.38c-1.93,0.15-3.86,0.12-5.79,0.03c-0.97-0.04-1.92-0.1-2.9-0.21
		c-0.99-0.12-1.97-0.34-2.91-0.65c-0.12-0.04-0.23-0.09-0.34-0.13c-0.9,0.49-1.82,0.89-2.77,1.24c-1.19,0.45-2.42,0.82-3.66,1.1
		c-1.25,0.28-2.55,0.35-3.84,0.35c-0.88-0.01-1.76,0-2.64-0.03c1.06,0.58,2.18,1.06,3.26,1.56c1.43,0.69,2.86,1.37,4.31,1.97
		c1.44,0.6,2.86,1.24,4.33,1.74c1.2,0.42,2.43,0.75,3.73,0.99C24.32,100.68,25.23,99.34,26.38,98.17z"/>
	<path class="st7" d="M62.96,108c-0.35-0.37-0.71-0.71-1.09-1c-0.19-0.15-0.38-0.28-0.57-0.38c-0.1-0.06-0.19-0.09-0.28-0.14
		c-0.1-0.05-0.24-0.1-0.36-0.14c-1.97-0.8-3.91-1.59-5.94-2.05c-1.01-0.22-2.03-0.41-3.07-0.41l-0.77,0.03l-0.77,0.1l-0.76,0.18
		c-0.07,0.03-0.14,0.05-0.21,0.07c0.09,0.04,0.17,0.07,0.25,0.12c1.93,0.11,3.78,0.92,5.45,1.82c1.91,1.06,3.68,2.28,5.48,3.45
		c1.78,1.19,3.66,2.21,5.36,3.45c1.05,0.75,2.08,1.51,3.13,2.25c-1.4-1.67-2.59-3.37-3.86-5C64.32,109.52,63.66,108.73,62.96,108z"
		/>
	<path class="st7" d="M75.2,109.59c-1.31-0.66-2.59-1.38-3.84-2.17l-0.89-0.55c-0.28-0.16-0.57-0.31-0.88-0.44
		c-0.61-0.27-1.27-0.46-1.94-0.63c-1.34-0.34-2.73-0.56-4.13-0.77c-1.21-0.18-2.43-0.33-3.66-0.46c0.43,0.13,0.87,0.27,1.29,0.4
		c0.13,0.04,0.24,0.07,0.39,0.13c0.15,0.06,0.31,0.11,0.45,0.19c0.28,0.14,0.54,0.29,0.78,0.46c0.49,0.33,0.92,0.7,1.33,1.08
		c0.82,0.76,1.54,1.57,2.25,2.39c1.41,1.62,2.68,3.36,4.03,4.89c0.33,0.37,0.69,0.74,0.99,0.95l0.09,0.06c0,0,0,0,0,0
		c0,0,0.01,0,0.01,0c0.02,0.02,0.06-0.02,0.1-0.01c0.05-0.02,0.11-0.05,0.17-0.08c0.28-0.17,0.66-0.52,1.04-0.88
		c0.39-0.37,0.82-0.76,1.3-1.12c0.95-0.74,2.23-1.22,3.47-1.28c0.93-0.04,1.84,0,2.73,0.09c-0.37-0.14-0.73-0.28-1.1-0.43
		C77.83,110.86,76.5,110.26,75.2,109.59z"/>
	<path class="st7" d="M48.86,105.47c-0.67-0.42-1.56-0.63-2.46-0.69c-0.91-0.06-1.84-0.01-2.77,0.11c-0.47,0.06-0.93,0.14-1.4,0.23
		l-0.7,0.15l-0.73,0.17c-0.02,0-0.04-0.02-0.05-0.03c-2,0.42-3.94,1.06-5.77,1.86c-0.91,0.42-1.8,0.88-2.61,1.42
		c-0.8,0.55-1.49,1.19-2.06,1.95c-0.56,0.76-1.07,1.66-1.82,2.5c-0.38,0.41-0.79,0.81-1.25,1.15c-0.46,0.34-0.95,0.67-1.48,0.9
		c-0.63,0.29-1.29,0.48-1.95,0.59c0.49,0.03,0.99,0.05,1.48,0.07c1.95,0.06,3.89,0.11,5.83,0.06c1.93-0.04,3.86-0.18,5.73-0.48
		c0.93-0.15,1.85-0.37,2.71-0.63c0.86-0.27,1.68-0.64,2.26-1.12l0.1-0.08l0.09-0.04c1.68-0.85,3.32-1.76,4.85-2.77
		c0.76-0.51,1.5-1.05,2.11-1.65c0.62-0.58,1.11-1.3,1.02-1.79C49.89,106.57,49.54,105.89,48.86,105.47z"/>
	<path class="st8" d="M118.65,24.11c-0.54-0.01-1.09-0.05-1.63,0.09l0.03-0.07l-0.23,0.13c-0.3,0.1-0.59,0.24-0.86,0.42
		c-0.61,0.14-1.31-0.14-2.07-0.35c-0.23-0.06-0.47-0.11-0.72-0.14c-0.15-0.01-0.28-0.09-0.45-0.2c-0.32-0.23-0.62-0.56-0.91-0.89
		c-0.58-0.68-1.12-1.41-1.73-2.11c-0.31-0.35-0.63-0.7-1.02-1.01c-0.43-0.33-0.76-0.52-1.13-0.8c-1.44-1.06-2.84-2.21-4.18-3.4
		c-0.33-0.3-0.66-0.6-0.98-0.91c-0.16-0.15-0.31-0.31-0.45-0.46c-0.14-0.15-0.27-0.31-0.3-0.39c-0.09-0.19-0.07-0.45,0.07-0.77
		c0.13-0.3,0.39-0.65,0.63-0.89l0.95-0.94l-1.33-0.24c-2.31-0.41-4.61-0.78-6.96-1c-1.31-0.33-2.69-0.82-4.04-1.26l-4.1-1.42
		l-4.12-1.41c-1.11-0.37-2.23-0.74-3.36-1.09c0.01-0.04,0.03-0.07,0.04-0.11c0.19-0.54,0.13-1.1,0.13-1.65
		c-0.01-1.09-0.14-2.16-0.37-3.2C79.53,0.02,79.51,0,79.49,0c-0.03,0-0.05,0.02-0.05,0.05c-0.03,0.53-0.05,1.06-0.11,1.58
		c-0.04,0.52-0.1,1.04-0.18,1.56c-0.08,0.51-0.26,1-0.3,1.5c0,0.01,0,0.02,0,0.03l-0.08-0.02L78.6,4.71
		c-1.85,0.19-3.83,0.24-5.77,0.34c-1.95,0.09-3.9,0.17-5.86,0.31c-1.94,0.16-3.95,0.32-5.89,0.83c-0.92,0.21-1.84,0.36-2.71,0.27
		C57.5,6.4,56.7,5.95,55.72,5.58l-0.13-0.05l-0.13,0.03c-2.17,0.43-4.29,1-6.41,1.55l-3.18,0.84l-1.59,0.43l-0.79,0.2
		c-0.25,0.06-0.57,0.14-0.75,0.16c-0.25-0.05-0.46-0.08-0.7-0.08c-0.12,0-0.24,0.01-0.36,0.04c-0.12,0.03-0.27,0.09-0.36,0.25
		c-0.09,0.16-0.04,0.32-0.01,0.44c0.04,0.12,0.09,0.23,0.15,0.33l0.32,0.59c0.2,0.38,0.37,0.78,0.38,1.18
		c0.02,0.2-0.02,0.39-0.07,0.58l-0.11,0.3c-0.05,0.14-0.06,0.25-0.09,0.37c-0.11,0.79-0.16,1.58-0.2,2.36
		c-0.29-0.31-0.63-0.59-0.93-0.92c-0.36-0.39-0.7-0.8-1.02-1.22c-0.34-0.42-0.65-0.85-0.97-1.3c-0.01-0.02-0.04-0.03-0.06-0.02
		c-0.02,0.01-0.04,0.04-0.03,0.06c0.38,1.03,0.87,2.01,1.47,2.94c0.3,0.46,0.57,0.98,1.04,1.32c0.14,0.11,0.29,0.21,0.45,0.3
		c-0.02,0.62-0.03,1.25-0.05,1.88c-0.03,3.44,0.02,6.87,0.1,10.3c-0.06,0.01-0.12,0.02-0.19,0.02c-0.23,0.02-0.49,0.02-0.74,0.02
		l-0.8-0.01l0.14,0.78c0.08,0.44,0.26,0.73,0.44,0.98c0.18,0.25,0.37,0.46,0.57,0.65c0.39,0.39,0.8,0.72,1.21,1.04
		c0.83,0.63,1.68,1.19,2.53,1.73c1.65,1.07,3.27,2.28,4.9,3.44l4.85,3.55l1.2,0.9c0.37,0.28,0.78,0.59,1.09,0.84
		c0,0.14-0.02,0.34-0.06,0.55c-0.08,0.42-0.21,0.89-0.35,1.3l-0.16,0.47c-0.48,0-0.96,0.08-1.46,0.08
		c-0.55,0.01-1.11-0.02-1.67-0.06c-0.56-0.03-1.12-0.09-1.68-0.16c-0.02,0-0.04,0.01-0.05,0.03c-0.01,0.02,0,0.05,0.03,0.06
		c1.06,0.41,2.17,0.71,3.32,0.89c0.39,0.06,0.78,0.13,1.18,0.15l-0.02,0.05l1.58-0.23c1.15-0.17,2.33-0.33,3.44-0.43
		c0.06,0,0.13-0.01,0.19-0.01c0.11,0.11,0.25,0.28,0.37,0.44c0.33,0.43,0.67,0.91,1,1.39c0.18,0.26,0.36,0.53,0.55,0.79
		c-0.1,0.2-0.19,0.4-0.27,0.6c-0.21,0.51-0.56,1.59-0.57,1.63c-0.01,0.09-0.02,0.17-0.03,0.26c-0.01,0.03-0.02,0.06-0.02,0.08
		c-0.16,0.67-0.27,1.35-0.33,2.04c0,0.03,0,0.07-0.01,0.1c-0.1,0.17-0.21,0.34-0.3,0.52c-0.24,0.44-0.46,0.89-0.64,1.37
		c-0.19,0.48-0.3,1-0.37,1.49l-0.21,1.46c-0.13,0.97-0.24,1.94-0.39,2.89c-0.16,0.94-0.31,1.91-0.59,2.71
		c-0.07,0.2-0.15,0.36-0.23,0.47l-0.42,0.56l-0.88,1.16l-1.77,2.33l-3.48,4.72c-2.27,3.19-4.49,6.41-6.59,9.74
		c-0.53,0.83-1.05,1.67-1.55,2.52c-0.24,0.45-0.5,0.81-0.75,1.39c-0.22,0.54-0.36,1.11-0.38,1.69c-0.05,1.15,0.32,2.33,1.07,3.2
		c0.38,0.45,0.79,0.77,1.2,1.08c0.02,0.02,0.04,0.03,0.07,0.05c-0.42,0.51-0.83,1.03-1.25,1.55l-0.84,1.09l-0.41,0.55l-0.1,0.13
		c-0.06,0.01-0.17,0.01-0.27,0l-0.08-0.14c-0.23-0.4-0.43-0.82-0.73-1.16c-0.55-0.6-1.22-1.11-2.1-1.45
		c0.9-1.33,1.56-2.87,1.74-4.53c0.24-2.26-0.37-4.51-1.3-6.48c-0.92-1.99-2.32-3.9-4.26-5.18c-1.94-1.29-4.24-1.84-6.44-1.93
		c-1.11-0.05-2.2-0.01-3.28,0.1c-1.1,0.12-2.09,0.3-3.09,0.35c-1.01,0.09-2.01,0.05-3.01,0c-1-0.09-1.99-0.25-2.96-0.5
		c-1.96-0.48-3.82-1.39-5.83-2.15c-1.02-0.38-2.04-0.62-3.08-0.84C7.82,71,7.3,70.91,6.77,70.84c-0.26-0.04-0.53-0.07-0.79-0.08
		l-0.4-0.02l-0.2,0l-0.1,0l-0.05,0l-0.03,0c0.02-0.01-0.1,0.01-0.11,0.06c0,0.03,0,0.09,0.03,0.13l0.03,0.05l0.05,0.08l0.09,0.15
		l0.17,0.31c0.11,0.21,0.22,0.42,0.32,0.63c0.21,0.42,0.41,0.85,0.57,1.29c0.34,0.87,0.57,1.78,0.69,2.68l0.06,0.68l0.01,0.67
		l-0.06,0.67l-0.02,0.43l0.03,0.41C7.21,80.05,7.6,81,8.05,81.89c0.93,1.77,2.1,3.37,3.43,4.82c1.33,1.45,2.79,2.78,4.42,3.9
		c0.81,0.57,1.66,1.07,2.54,1.53c0.44,0.22,0.88,0.42,1.33,0.61c-0.69,0.09-1.37,0.21-2.05,0.33c-1.24,0.22-2.46,0.48-3.68,0.74
		c-1.21,0.27-2.39,0.68-3.6,1.01c-1.2,0.33-2.47,0.53-3.66,0.32L5.5,94.92l1.08,0.77c1.31,0.94,2.51,2.07,3.84,3.02
		c1.34,0.94,2.77,1.76,4.26,2.49c1.5,0.71,3.11,1.19,4.77,1.46c1.25,0.19,2.54,0.24,3.79,0.03c-0.64,1.25-1.18,2.54-1.66,3.84
		c-1.1,2.98-2.02,6.01-2.54,9.17l-0.06,0.34l0.36,0.08c3.87,0.83,7.8,1.46,11.8,1.54c0.51,0.01,1.02,0.01,1.53,0.01
		c-0.28,0.58-0.59,1.14-0.91,1.7l-1.45,2.48c-0.97,1.65-1.9,3.32-2.84,4.97l-0.52,0.91l1.1,0.05l4.84,0.21l0.57,0.02l0.25-0.62
		c0.37-0.93,0.75-1.84,1.07-2.78c0.16-0.47,0.31-0.94,0.45-1.42l0.21-0.7c0.06-0.18,0.16-0.41,0.26-0.63l1.26-2.69l0.64-1.37
		c0.08-0.17,0.16-0.34,0.24-0.51c0.79-0.12,1.58-0.28,2.36-0.53c0.96-0.3,1.93-0.7,2.83-1.4c1.68-0.92,3.35-1.88,4.92-3.05
		c0.79-0.59,1.57-1.23,2.27-2c0.35-0.39,0.68-0.82,0.94-1.34c0.13-0.27,0.24-0.55,0.31-0.87c0.06-0.32,0.07-0.69-0.01-1.02
		c-0.12-0.54-0.35-1.08-0.69-1.56c-0.18-0.25-0.4-0.48-0.64-0.68c1.53,0.43,2.94,1.24,4.25,2.15c1.75,1.19,3.4,2.53,5.08,3.87
		c1.7,1.31,3.3,2.79,5.2,3.86c0.95,0.54,1.92,1.04,2.95,1.44c0.91,0.35,1.88,0.64,2.87,0.74c0.08,0.04,0.16,0.08,0.24,0.12
		c0.11,0.05,0.3,0.1,0.45,0.13c0.13,0.01,0.24,0.01,0.37,0.01c0.25,0.01,0.46-0.06,0.68-0.12c0.2-0.07,0.38-0.16,0.55-0.25
		c0.63-0.39,1.01-0.8,1.4-1.16c0.38-0.36,0.74-0.69,1.11-0.96c0.74-0.56,1.52-0.88,2.39-0.96c0.97-0.07,2-0.03,3.02,0.06
		c2.05,0.19,4.09,0.63,6.12,1.14c2.03,0.5,4.03,1.17,6.02,1.84l2.04,0.69l-1.26-1.67c-2.92-3.87-5.99-7.61-9.23-11.21
		c-1.62-1.8-3.31-3.54-5.12-5.19c-1.82-1.62-3.82-3.12-6.21-4.06c-0.76-0.3-1.54-0.51-2.33-0.68c0.56-0.42,1.1-0.87,1.6-1.37
		c0.74-0.76,1.41-1.6,1.88-2.58c0.11-0.25,0.21-0.51,0.28-0.78c0.07-0.29,0.09-0.54,0.14-0.77c0.11-0.48,0.33-0.93,0.58-1.36
		c0.52-0.85,1.22-1.63,1.98-2.26l0.46-0.38L77,84.89c-1.53-0.57-3.1-0.84-4.69-0.97c-0.79-0.05-1.59-0.02-2.38,0.05
		c-0.79,0.07-1.59,0.14-2.38,0.23c-1.58,0.17-3.16,0.41-4.71,0.79c-1.06,0.27-2.11,0.61-3.11,1.05c1.27-1.96,2.6-3.89,3.91-5.82
		c2.2-3.22,4.25-6.54,6.35-9.82c0.52-0.82,1.05-1.64,1.58-2.44c0.52-0.8,1.08-1.57,1.67-2.33c0.85-1.12,1.75-2.22,2.67-3.31
		c0.75-0.78,2.06-3.54,2.56-4.25c0.39-0.53,0.73-1.1,1.08-1.68c0.54,0.09,1.06,0.19,1.55,0.31c0.26,0.07,0.5,0.14,0.7,0.23
		c0.05,0.02,0.1,0.04,0.14,0.06l0.16,0.09c0.15,0.08,0.3,0.17,0.47,0.25c0.33,0.15,0.71,0.29,1.16,0.33
		c0.44,0.05,0.92-0.04,1.28-0.18c0.71-0.28,1.13-0.55,1.58-0.69c0.34-0.1,0.88-0.11,1.4-0.06c1.04,0.11,2.19,0.39,3.07,0.83
		c0.1,0.05,0.21,0.11,0.26,0.16l0.21,0.15l0.13,0.08l0.1,0.04c0.06,0.03,0.14,0.06,0.19,0.07c0.45,0.13,0.77,0.14,1.11,0.16
		c0.65,0.02,1.26-0.01,1.87-0.06c2.41-0.21,4.75-0.6,7.09-1.03c1.12-0.23,2.26-0.33,3.43-0.43l1.77-0.16
		c0.3-0.03,0.6-0.07,0.91-0.12c0.15-0.02,0.32-0.06,0.48-0.09l0.27-0.07c0.07-0.02,0.17-0.06,0.26-0.11
		c0.34,0.2,0.71,0.33,1.06,0.48c1.01,0.42,2.04,0.74,3.09,0.94c0.02,0,0.04-0.01,0.05-0.03c0.01-0.02,0-0.05-0.02-0.06
		c-0.48-0.24-0.95-0.47-1.41-0.73c-0.47-0.25-0.92-0.51-1.36-0.79c-0.34-0.21-0.65-0.48-0.97-0.7c0.03-0.17,0.09-0.38,0.18-0.58
		c0.13-0.31,0.31-0.62,0.5-0.93c0.39-0.62,0.85-1.21,1.34-1.78c0.49-0.57,1.01-1.13,1.54-1.65c0.27-0.26,0.55-0.52,0.83-0.76
		c0.14-0.13,0.27-0.23,0.43-0.36c0.16-0.13,0.32-0.26,0.46-0.39c1.18-1.06,2.24-2.18,3.33-3.28c0.54-0.55,1.08-1.09,1.64-1.6
		c0.14-0.13,0.28-0.25,0.42-0.37c0.16-0.13,0.31-0.27,0.46-0.42c0.29-0.3,0.55-0.66,0.72-1.06c0.17-0.4,0.25-0.83,0.29-1.22
		l0.07-0.57c0.03-0.14,0.08-0.46,0.02-0.69c-0.11-0.47-0.33-0.81-0.52-1.15c-0.2-0.34-0.4-0.66-0.58-0.99
		c-0.36-0.65-0.62-1.34-0.67-2.06c-0.02-0.19-0.01-0.34-0.01-0.55c0-0.22-0.03-0.43-0.06-0.63c-0.08-0.41-0.2-0.79-0.35-1.16
		c-0.59-1.48-1.45-2.79-2.29-4.09l-0.63-0.97c-0.1-0.16-0.21-0.32-0.29-0.47c-0.02-0.03-0.03-0.06-0.04-0.07c0-0.02,0-0.06,0-0.08
		l-0.02-0.29c-0.04-0.62,0.1-1.25,0.32-1.87c0.15-0.01,0.29-0.02,0.44-0.04c0.53-0.04,1.05-0.22,1.6-0.29
		c0.55-0.08,1.1-0.13,1.66-0.16c0.56-0.04,1.12-0.06,1.69-0.07c0.02,0,0.04-0.02,0.05-0.04c0.01-0.03-0.01-0.05-0.04-0.06
		C120.94,24.28,119.8,24.13,118.65,24.11z M100.82,12.8c-0.19,0.5-0.27,1.19,0.05,1.79c0.17,0.32,0.37,0.5,0.53,0.68
		c0.17,0.18,0.35,0.34,0.52,0.5c0.35,0.31,0.7,0.61,1.05,0.91c1.42,1.16,2.88,2.26,4.4,3.29c0.37,0.25,0.83,0.51,1.13,0.72
		c0.33,0.25,0.64,0.55,0.95,0.87c0.61,0.64,1.18,1.35,1.8,2.03c0.32,0.34,0.63,0.69,1.06,0.98c0.2,0.14,0.49,0.29,0.8,0.31
		c0.2,0.01,0.41,0.06,0.62,0.11c0.01,0,0.02,0,0.02,0.01c-0.64,0-1.28,0.02-1.92,0.06c-1.48,0.11-2.96,0.26-4.42,0.57
		c-1.46,0.33-2.88,0.83-4.26,1.56c-1.33,0.76-2.59,1.5-3.92,2.19c-1.32,0.69-2.67,1.37-3.89,2.25c-1.21,0.87-2.43,1.75-3.53,2.76
		c-1.11,1-2.12,2.12-3.05,3.3c-0.65,0.83-1.26,1.7-1.78,2.63c-0.2-0.06-0.39-0.13-0.6-0.18c-0.69-0.16-1.4-0.27-2.13-0.26
		c0.76-1.15,2.14-3.14,3.61-4.67c0.03-0.04,0.05-0.08,0.08-0.12c0.05-0.02,0.1-0.04,0.15-0.06c0.21-0.1,0.39-0.22,0.57-0.33
		l1.04-0.7c0.69-0.46,1.45-0.84,2.12-1.34c0.67-0.5,1.24-1.12,1.68-1.86c0.22-0.37,0.41-0.75,0.6-1.13
		c0.09-0.19,0.18-0.38,0.27-0.58c0.03-0.1,0.08-0.2,0.1-0.31c0.03-0.1,0.03-0.24-0.05-0.35c-0.22-0.18-0.46-0.08-0.66-0.04
		c-0.21,0.06-0.41,0.13-0.61,0.2c-0.4,0.15-0.8,0.3-1.19,0.48c-0.79,0.34-1.48,0.84-2.11,1.38c-0.64,0.55-1.21,1.17-1.74,1.83
		c-0.27,0.33-0.52,0.68-0.74,1.07c-0.11,0.2-0.21,0.4-0.28,0.64c-0.03,0.09-0.05,0.19-0.06,0.3c-0.02,0.02-0.05,0.03-0.07,0.05
		c-2.09,2.18-3.96,5.16-4.32,5.73c-0.17,0.04-0.34,0.08-0.51,0.13c-0.57-0.22-1.11-0.36-1.65-0.47c-0.05-0.01-0.1-0.02-0.15-0.03
		c1.61-2.35,3.21-4.64,4.69-7.04c0.79-1.3,1.51-2.65,2.27-3.98c0.76-1.32,1.39-2.74,2.1-4.11c0.35-0.68,0.75-1.35,1.17-1.97
		c0.42-0.63,0.93-1.19,1.46-1.74c1.08-1.08,2.31-2,3.43-3.01c1.12-1.02,2.18-2.09,3.29-3.12c0.54-0.52,1.1-1.03,1.66-1.54
		C100.52,13.06,100.67,12.93,100.82,12.8z M87.85,34.34C87.85,34.34,87.85,34.34,87.85,34.34c0.1-0.14,0.21-0.28,0.33-0.42
		c0.25-0.28,0.51-0.57,0.79-0.84c0.56-0.55,1.17-1.07,1.75-1.62c0.58-0.54,1.16-1.09,1.7-1.71c0.27-0.3,0.55-0.61,0.87-0.86
		c0.16-0.13,0.32-0.24,0.5-0.33c0.17-0.08,0.39-0.14,0.51-0.05c0.08,0.12-0.01,0.34-0.1,0.5c-0.11,0.17-0.23,0.33-0.38,0.47
		c-0.28,0.29-0.62,0.53-0.94,0.78c-0.66,0.48-1.25,1.01-1.79,1.62c-0.54,0.6-1.02,1.28-1.65,1.79c-0.31,0.26-0.65,0.48-1.01,0.66
		c-0.16,0.07-0.32,0.14-0.47,0.18C87.93,34.44,87.89,34.39,87.85,34.34z M78.61,11.42c0.11-1.66,0.22-3.32,0.27-4.98
		c1.22,0.38,2.46,0.8,3.68,1.23l4.1,1.44l4.13,1.41c1.39,0.46,2.76,0.9,4.26,1.25l0.05,0.01l0.06,0c1.62,0.12,3.25,0.3,4.88,0.51
		c-0.07,0.03-0.14,0.07-0.21,0.1c-0.71,0.36-1.37,0.79-2.02,1.23c-1.27,0.91-2.48,1.9-3.56,3.03c-1.07,1.13-1.95,2.44-2.84,3.72
		l-1.34,1.9c-0.45,0.64-0.87,1.27-1.36,1.87c-0.96,1.2-2,2.36-2.88,3.63c-0.88,1.26-1.79,2.51-2.57,3.84
		c-0.79,1.33-1.49,2.71-2.11,4.14c-0.53,1.24-1,2.52-1.28,3.86c-0.45-0.09-0.9-0.17-1.35-0.23c-0.25-0.04-0.49-0.06-0.74-0.1
		c0.63-1.88,1.96-5.92,2.54-8.37c0.07-0.06,0.13-0.12,0.18-0.19c0.18-0.21,0.31-0.43,0.44-0.65c0.26-0.44,0.5-0.87,0.74-1.31
		c0.48-0.87,1.07-1.71,1.5-2.61c0.44-0.91,0.72-1.88,0.83-2.89c0.05-0.51,0.07-1.02,0.09-1.53c0-0.25,0.01-0.51-0.01-0.76
		c-0.02-0.13-0.01-0.25-0.06-0.38c-0.02-0.13-0.1-0.26-0.24-0.34c-0.15-0.04-0.31,0-0.41,0.07c-0.12,0.06-0.21,0.15-0.31,0.23
		c-0.2,0.17-0.36,0.36-0.53,0.55c-0.34,0.38-0.67,0.77-0.98,1.18c-0.64,0.8-1.09,1.71-1.49,2.64c-0.38,0.93-0.68,1.9-0.9,2.89
		c-0.11,0.5-0.21,1-0.24,1.53c-0.01,0.27-0.02,0.54,0.03,0.83l0.04,0.22l0.07,0.23c-0.58,2.48-2,6.75-2.59,8.48
		c-0.62-0.07-1.23-0.13-1.85-0.18c-0.43-0.03-0.85-0.06-1.28-0.08c0.33-1.47,0.52-2.94,0.66-4.4c0.14-1.48,0.24-2.96,0.25-4.44
		c0.01-0.42,0-0.84-0.01-1.26c0.23-0.32,0.46-0.65,0.68-0.99c0.27-0.45,0.5-0.91,0.73-1.37c0.46-0.93,0.82-1.9,1.14-2.87
		c0.67-1.95,0.83-4.01,1.13-6.02C78.22,15.46,78.43,13.44,78.61,11.42z M79.85,29.99c0.02-0.17,0.05-0.34,0.09-0.51
		c0.11-0.45,0.24-0.9,0.39-1.36c0.3-0.91,0.66-1.81,1-2.71c0.33-0.91,0.69-1.81,0.97-2.75c0.15-0.46,0.31-0.94,0.53-1.37
		c0.1-0.22,0.24-0.42,0.38-0.61c0.14-0.18,0.35-0.37,0.54-0.32c0.17,0.1,0.19,0.38,0.17,0.61c-0.03,0.24-0.06,0.48-0.14,0.71
		c-0.14,0.47-0.35,0.92-0.55,1.36c-0.42,0.89-0.76,1.79-1.04,2.73c-0.28,0.93-0.47,1.92-0.88,2.8c-0.21,0.44-0.44,0.87-0.73,1.25
		c-0.11,0.14-0.23,0.28-0.36,0.4c-0.09-0.11-0.2-0.2-0.35-0.23C79.86,29.99,79.85,29.99,79.85,29.99z M67.04,6.76
		c1.94-0.08,3.88-0.13,5.83-0.18c1.88-0.05,3.73-0.06,5.66-0.23c-0.27,1.65-0.55,3.3-0.88,4.94c-0.36,1.98-0.76,3.95-1.22,5.91
		c-0.45,1.96-1.09,3.86-1.47,5.81c-0.27,1.33-0.53,2.66-0.77,4.02c-0.01-0.13-0.01-0.25-0.02-0.4c-0.03-0.43-0.1-0.83-0.19-1.23
		c-0.35-1.58-1.09-2.94-1.86-4.24c-0.78-1.3-1.56-2.56-2.23-3.89c-0.68-1.32-1.23-2.74-1.98-4.04c-0.37-0.65-0.79-1.27-1.25-1.86
		c-0.44-0.6-0.92-1.18-1.41-1.75c-0.49-0.56-1-1.12-1.54-1.64c-0.27-0.27-0.55-0.51-0.84-0.77l-0.15-0.12
		C64.15,6.89,65.59,6.83,67.04,6.76z M42.04,8.89c0.21-0.02,0.45,0,0.63,0.02c0.21,0.03,0.31-0.01,0.46-0.02l0.41-0.06l0.81-0.14
		l1.62-0.31l3.22-0.65c2.1-0.42,4.2-0.82,6.3-1.18c0.39,0.16,0.78,0.36,1.21,0.55c0.47,0.21,1,0.37,1.54,0.44
		c1.07,0.15,2.11,0.01,3.09-0.18c0.27-0.06,0.54-0.1,0.81-0.15l0.24,0.43c0.19,0.32,0.36,0.65,0.56,0.97
		c0.37,0.64,0.76,1.27,1.16,1.89c0.8,1.24,1.58,2.48,2.48,3.64c0.91,1.16,1.95,2.24,2.77,3.47c0.83,1.22,1.46,2.57,1.92,3.96
		c0.23,0.7,0.43,1.4,0.59,2.1c0.17,0.7,0.32,1.38,0.41,2.05c0.04,0.33,0.06,0.66,0.05,0.98l-0.04,1.08
		c-0.03,0.74-0.06,1.48-0.04,2.22c0.01,1.48,0.11,2.96,0.25,4.44c0.15,1.46,0.33,2.93,0.66,4.39c-0.51-0.03-1.02-0.05-1.52-0.07
		c-0.09-1.15-1.52-7.21-1.65-7.28c-0.02-0.1-0.04-0.2-0.06-0.3c-0.08-0.35-0.18-0.69-0.25-1.04c-0.16-0.69-0.2-1.42-0.38-2.11
		c-0.18-0.69-0.51-1.34-0.98-1.9c-0.23-0.28-0.49-0.55-0.74-0.81l-0.38-0.39c-0.14-0.11-0.26-0.28-0.51-0.27
		c-0.12,0.04-0.18,0.15-0.2,0.24c-0.03,0.09-0.04,0.19-0.05,0.28c-0.02,0.18-0.02,0.36-0.03,0.55c-0.01,0.36-0.02,0.73-0.01,1.1
		c0.01,0.74,0.19,1.44,0.43,2.11c0.24,0.68,0.57,1.32,0.94,1.94c0.19,0.31,0.38,0.62,0.63,0.92c0.13,0.15,0.26,0.29,0.43,0.43
		c0.08,0.07,0.18,0.14,0.29,0.2c0.01,0.01,0.03,0.01,0.05,0.02c0.8,2.26,1.11,5.1,1.2,6.26c-0.97-0.03-1.94-0.04-2.92-0.04
		c0.08-0.72-0.01-1.42-0.17-2.07c-0.2-0.84-0.51-1.64-0.87-2.4c-0.36-0.77-0.76-1.5-1.3-2.2c-0.51-0.65-1.03-1.29-1.48-1.97
		c-0.45-0.68-0.88-1.39-1.12-2.11c-0.07-0.19-0.09-0.32-0.15-0.55c-0.05-0.24-0.13-0.44-0.2-0.65c-0.15-0.4-0.32-0.8-0.49-1.18
		c-0.67-1.48-1.4-2.89-2.2-4.28c-0.09-0.98-0.29-1.88-0.63-2.79c-0.36-0.94-0.87-1.88-1.66-2.66c-0.78-0.76-1.72-1.28-2.63-1.63
		c-0.92-0.36-1.81-0.63-2.69-0.93c-0.84-0.29-1.7-0.66-2.55-1.03l-2.56-1.13c-1.63-0.72-3.26-1.46-4.91-2.16
		C41.87,8.91,41.96,8.89,42.04,8.89z M69.49,31.42c-0.02,0-0.03,0-0.05,0.01c-0.04,0.01-0.06,0.04-0.1,0.06
		c-0.04-0.08-0.09-0.17-0.13-0.25c-0.14-0.29-0.28-0.59-0.41-0.89l-0.74-1.88c-0.26-0.63-0.53-1.25-0.88-1.85
		c-0.17-0.3-0.35-0.61-0.46-0.93c-0.06-0.16-0.11-0.33-0.12-0.49c-0.02-0.16,0-0.35,0.1-0.4c0.11-0.01,0.25,0.13,0.35,0.26
		c0.1,0.14,0.18,0.29,0.24,0.45c0.13,0.32,0.21,0.67,0.29,1c0.15,0.68,0.39,1.31,0.72,1.92c0.32,0.6,0.75,1.18,0.97,1.84
		c0.11,0.32,0.19,0.66,0.22,0.99C69.49,31.3,69.49,31.36,69.49,31.42z M42.1,10.11l-0.36-0.56c-0.11-0.17-0.22-0.39-0.18-0.48
		c0,0,0.01-0.01,0.01-0.01c1.54,1.01,3.12,1.95,4.71,2.87c1.64,0.93,3.25,1.85,5.04,2.63c1.75,0.73,3.55,1.28,4.63,2.42
		c1.06,1.13,1.65,2.94,1.9,4.57l0.04,0.24l0.08,0.13c0.77,1.17,1.56,2.34,2.3,3.53c-0.36-0.22-0.75-0.41-1.14-0.55
		c-0.92-0.33-1.89-0.5-2.84-0.49c-0.95,0.02-1.88,0.18-2.79,0.39c-0.91,0.21-1.76,0.66-2.62,0.97c-0.86,0.32-1.74,0.5-2.69,0.59
		c-0.47,0.06-0.95,0.13-1.42,0.31c-0.23,0.09-0.47,0.21-0.71,0.38c-0.31,0.25-0.34,0.31-0.49,0.41c-0.55,0.4-1.35,0.7-2.17,0.96
		c-0.14,0.05-0.3,0.09-0.45,0.13c-0.22-3.47-0.41-6.96-0.54-10.43c-0.02-0.52-0.03-1.04-0.05-1.56c0-0.16-0.02-0.41-0.02-0.66
		c-0.02-1.04-0.03-2.08,0.05-3.09c0.02-0.1,0.03-0.21,0.05-0.29c0.01-0.07,0.07-0.23,0.1-0.34c0.05-0.24,0.08-0.5,0.04-0.75
		C42.56,10.94,42.34,10.5,42.1,10.11z M58.77,42.98c0.03-0.2,0.05-0.42,0.04-0.67c-0.01-0.19-0.02-0.39-0.12-0.67
		c-0.06-0.15-0.13-0.31-0.29-0.48c-0.11-0.11-0.15-0.13-0.23-0.2c-0.47-0.37-0.85-0.63-1.27-0.93l-1.23-0.87l-4.96-3.44
		c-1.67-1.13-3.3-2.29-5.05-3.36c-0.85-0.52-1.69-1.05-2.48-1.61c-0.39-0.28-0.77-0.57-1.11-0.88c-0.06-0.05-0.11-0.11-0.17-0.17
		c0.08-0.01,0.15-0.02,0.23-0.05c0.02-0.01,0.06-0.02,0.08-0.03c0.46,0.04,0.92,0.05,1.39,0.03c0.95-0.06,1.92-0.22,2.89-0.8
		c0.23-0.14,0.52-0.4,0.56-0.42l0.45-0.31l1.05-0.75c0.73-0.53,1.58-0.85,2.47-0.94c0.89-0.1,1.81,0.02,2.68,0
		c0.87-0.02,1.74,0,2.58,0.02c1.57,0,3.05-0.09,4.69,0.2c0.08,0.15,0.17,0.29,0.25,0.44c0.08,0.17,0.17,0.35,0.22,0.51
		c0.06,0.16,0.14,0.44,0.24,0.63c0.39,0.81,0.87,1.5,1.38,2.17c0.51,0.67,1.03,1.33,1.56,1.96c0.48,0.61,0.86,1.35,1.19,2.08
		c0.32,0.74,0.57,1.52,0.72,2.3c0.12,0.76,0.14,1.54-0.09,2.19c-0.38-0.07-0.77-0.08-1.13-0.04c-0.51,0.03-0.99,0.15-1.46,0.3
		c-0.95,0.28-1.68,0.99-2.45,1.54c-0.77,0.56-1.5,1.17-2.2,1.81C59.06,42.69,58.92,42.84,58.77,42.98z M54.22,73.25l3.34-4.81
		l1.66-2.42l0.82-1.22l0.42-0.64c0.19-0.3,0.29-0.6,0.37-0.86c0.29-1.07,0.37-2.05,0.45-3.05c0.07-0.99,0.11-1.97,0.14-2.95
		c0.03-0.98,0.06-1.94,0.21-2.84c0.05-0.28,0.12-0.56,0.2-0.84c0.01,0.2,0.03,0.39,0.05,0.59c0,0.1-0.01,0.21-0.01,0.31
		c-0.05,1.54-0.08,3.07-0.04,4.6c0.03,1.53,0.22,3.06,0.37,4.59l0.09,1.15l0.04,1.15c0.01,0.38-0.01,0.77-0.02,1.15
		c-0.01,0.37-0.09,0.78,0.03,1.24c0.04,0.14,0.11,0.28,0.21,0.42c-2.03,1.3-4.01,2.69-5.93,4.15c-1.96,1.52-3.91,3.1-5.67,4.87
		C52.04,76.32,53.13,74.79,54.22,73.25z M42.92,95.19c0.02-0.03,0.04-0.06,0.06-0.08c0,0,0,0,0,0L42.92,95.19
		C42.93,95.19,42.9,95.24,42.92,95.19z M42.69,95.02C42.69,95.02,42.69,95.02,42.69,95.02C42.65,95.02,42.61,94.98,42.69,95.02z
		 M40.41,94.97c0.27,0.37,0.63,0.66,0.98,0.97l0.41,0.38c0.32,0.2,0.5,0.2,0.68,0.23c0.35,0.03,0.63,0.01,0.99-0.1
		c0.09-0.03,0.2-0.07,0.32-0.14c0.06-0.04,0.14-0.09,0.21-0.16c0.04-0.04,0.08-0.09,0.12-0.14c0.05-0.07,0.02-0.04,0.04-0.07
		l0.15-0.31l0.3-0.62l0.58-1.25c0.26-0.6,0.53-1.2,0.8-1.8c0.3,0.2,0.6,0.38,0.91,0.55c0.94,0.48,1.94,0.81,2.95,1
		c-0.54,0.69-1.06,1.39-1.59,2.08l-0.98,1.33c-0.04,0.06-0.07,0.08-0.16,0.26c-0.07,0.16-0.1,0.33-0.09,0.51
		c0.02,0.35,0.21,0.67,0.51,0.87c0.15,0.1,0.33,0.16,0.51,0.18c0.09,0.01,0.18,0,0.26,0l0.1-0.01l0.41-0.03
		c0.47-0.03,0.94-0.04,1.41-0.05c-0.12,0.12-0.23,0.26-0.34,0.39c-0.39,0.52-0.72,1.08-0.93,1.68c-0.05,0.13-0.08,0.27-0.12,0.4
		c-0.51-0.17-1.06-0.25-1.63-0.23c-0.62,0.04-1.27,0.2-1.84,0.56c-0.29,0.17-0.56,0.38-0.82,0.65c-0.14,0.16-0.24,0.22-0.36,0.32
		c-0.11,0.09-0.22,0.19-0.3,0.31c-0.24,0.41-0.35,0.91-0.25,1.55c-0.04,0.01-0.08,0.02-0.12,0.03c-0.47,0.12-0.93,0.27-1.39,0.42
		c-0.23,0.08-0.45,0.16-0.68,0.25l-0.33,0.14l-0.17,0.07l-0.08,0.04c0,0-0.01,0-0.01,0l-0.02-0.05l-0.05-0.14l-0.1-0.28l-0.19-0.56
		c-0.14-0.37-0.28-0.74-0.43-1.11c-0.12-0.29-0.26-0.58-0.39-0.87c0.36-0.16,0.64-0.39,0.9-0.65c0.34-0.36,0.6-0.8,0.7-1.31
		c0.08-0.51,0.04-1.05-0.04-1.59c-0.08-0.53-0.3-1.08-0.67-1.48c-0.4-0.39-0.64-0.66-0.95-0.99l-0.89-0.95
		c-0.48-0.52-0.97-1.03-1.46-1.54c0.39,0,0.79,0.01,1.17,0.06l0.19,0.03l0.15-0.17c0.24-0.26,0.47-0.55,0.69-0.83
		C39.64,93.64,39.98,94.34,40.41,94.97z M48.45,103.92l0.01,0.1c-0.69-0.18-1.38-0.21-2.05-0.19c-0.32,0.01-0.64,0.04-0.96,0.08
		c0.02-0.03,0.06-0.06,0.08-0.09c0.08-0.12,0.13-0.25,0.17-0.39c0.04-0.13,0.09-0.3,0.12-0.37c0.08-0.18,0.21-0.36,0.37-0.52
		c0.32-0.33,0.72-0.62,1.19-0.83c0.41-0.19,0.88-0.29,1.36-0.34c-0.11,0.38-0.19,0.77-0.24,1.16c-0.04,0.31-0.06,0.62-0.06,0.92
		C48.44,103.61,48.45,103.77,48.45,103.92z M16.88,89.24c-2.97-2.19-5.7-4.87-7.59-8.02c-0.46-0.78-0.86-1.61-1.03-2.42l-0.05-0.3
		L8.2,78.21l-0.01-0.77l-0.08-0.76l-0.14-0.74c-0.23-0.98-0.62-1.9-1.08-2.76c-0.23-0.43-0.48-0.85-0.75-1.25
		c-0.14-0.2-0.28-0.4-0.43-0.59l-0.23-0.28l-0.07-0.09l0.14,0.02l0.38,0.08l0.75,0.19c0.5,0.14,0.99,0.3,1.48,0.47
		c0.97,0.35,1.96,0.73,2.88,1.13c1.85,0.85,3.71,1.96,5.79,2.63c1.04,0.33,2.11,0.56,3.2,0.72c1.09,0.13,2.18,0.2,3.27,0.15
		c1.09-0.02,2.18-0.17,3.17-0.22c1.01-0.07,2.02-0.08,3,0c0.99,0.08,1.96,0.22,2.88,0.48c0.93,0.26,1.8,0.64,2.6,1.13
		c1.61,0.98,2.86,2.52,3.76,4.29c0.91,1.77,1.56,3.67,1.52,5.62c-0.01,0.97-0.2,1.94-0.56,2.86c-0.33,0.85-0.8,1.66-1.35,2.42
		c-1.09-2.74-2.99-5.2-5.42-6.99c-2.5-1.89-5.45-2.91-8.29-3.89c-2.86-0.97-5.73-1.84-8.41-3.14c-2.69-1.26-5.16-3.04-7.07-5.37
		c-0.02-0.03-0.06-0.03-0.09-0.01c-0.03,0.02-0.03,0.06-0.01,0.09c1.78,2.45,4.21,4.41,6.88,5.86c2.68,1.45,5.56,2.45,8.36,3.53
		c2.8,1.08,5.48,2.35,7.91,3.97c1.21,0.81,2.34,1.75,3.36,2.8c0.94,0.98,1.8,2.06,2.6,3.2c-0.87-0.01-1.72,0.08-2.54,0.2
		c-0.95,0.14-1.89,0.26-2.84,0.33c-0.95,0.06-1.89,0.07-2.84,0.04c-0.95-0.06-1.89-0.12-2.83-0.26c-0.94-0.13-1.89-0.29-2.8-0.47
		c-0.9-0.19-1.78-0.46-2.63-0.82C19.97,91.29,18.38,90.33,16.88,89.24z M19.84,101.08c-1.47-0.5-2.89-1.13-4.33-1.74
		c-1.45-0.59-2.87-1.27-4.31-1.97c-1.08-0.51-2.2-0.98-3.26-1.56c0.88,0.03,1.75,0.02,2.64,0.03c1.29,0,2.59-0.07,3.84-0.35
		c1.25-0.28,2.47-0.65,3.66-1.1c0.94-0.35,1.87-0.76,2.77-1.24c0.11,0.04,0.23,0.09,0.34,0.13c0.94,0.31,1.92,0.53,2.91,0.65
		c0.98,0.1,1.93,0.16,2.9,0.21c1.93,0.08,3.86,0.11,5.79-0.03c1.4-0.07,2.8-0.33,4.16-0.38c0.43,0.65,0.86,1.3,1.29,1.94l0.73,1.08
		l0.37,0.54c0.13,0.18,0.24,0.35,0.29,0.51c0.12,0.32,0.15,0.64,0.11,0.97c-0.03,0.33-0.2,0.66-0.36,0.98
		c-0.14,0.33-0.21,0.69-0.26,1.1c-0.01,0.08-0.02,0.17-0.02,0.26c-0.03-0.06-0.06-0.11-0.09-0.17c-0.79-1.4-1.78-2.75-3.13-3.8
		c-1.33-1.04-3.18-1.71-4.99-1.41c-0.9,0.13-1.75,0.45-2.51,0.89c-0.75,0.44-1.42,0.98-2.02,1.57c-1.16,1.17-2.07,2.51-2.82,3.9
		C22.27,101.83,21.04,101.5,19.84,101.08z M19.9,115.43c-0.03,0-0.05-0.01-0.08-0.01c0.33-2.96,1.19-5.89,2.47-8.59
		c1.35-2.79,3.12-5.43,5.26-7.45c1.07-0.99,2.3-1.8,3.61-2.03c1.33-0.24,2.71,0.12,3.9,0.93c1.21,0.79,2.24,1.94,3.15,3.16
		c0.45,0.62,0.89,1.26,1.29,1.93c0.21,0.33,0.41,0.67,0.6,1.01l0.3,0.51l0.15,0.26l0.05,0.08c-0.99,0.03-1.97,0.13-2.94,0.29
		c-1.04,0.16-2.07,0.39-3.08,0.71c-1.01,0.31-2.01,0.71-2.97,1.25c-0.96,0.53-1.87,1.22-2.64,2.03c-0.78,0.8-1.39,1.65-1.98,2.38
		c-0.6,0.72-1.22,1.41-2.01,1.88c-0.77,0.5-1.67,0.85-2.63,1.1C21.58,115.08,20.74,115.21,19.9,115.43z M35.92,118.51
		c-0.65,0.8-1.26,1.61-1.8,2.51c-0.14,0.23-0.27,0.45-0.41,0.73c-0.13,0.27-0.2,0.48-0.29,0.73c-0.18,0.47-0.35,0.96-0.51,1.44
		c-0.26,0.78-0.48,1.57-0.69,2.37l-3.13,0.14c0.65-1.4,1.32-2.8,1.95-4.21l1.18-2.61c0.29-0.63,0.55-1.27,0.77-1.93
		c1.3-0.02,2.6-0.08,3.91-0.24C36.55,117.77,36.23,118.14,35.92,118.51z M48.99,109.14c-0.61,0.6-1.35,1.15-2.11,1.65
		c-1.54,1.01-3.18,1.93-4.85,2.77l-0.09,0.04l-0.1,0.08c-0.58,0.48-1.39,0.86-2.26,1.12c-0.87,0.27-1.78,0.48-2.71,0.63
		c-1.87,0.3-3.8,0.44-5.73,0.48c-1.94,0.05-3.88,0-5.83-0.06c-0.49-0.02-0.99-0.04-1.48-0.07c0.66-0.12,1.32-0.3,1.95-0.59
		c0.53-0.23,1.02-0.55,1.48-0.9c0.46-0.33,0.87-0.73,1.25-1.15c0.75-0.85,1.25-1.74,1.82-2.5c0.57-0.76,1.26-1.41,2.06-1.95
		c0.8-0.54,1.69-1,2.61-1.42c1.83-0.81,3.77-1.44,5.77-1.86c0.02,0.01,0.04,0.03,0.05,0.03l0.73-0.17l0.7-0.15
		c0.46-0.09,0.93-0.17,1.4-0.23c0.93-0.12,1.87-0.17,2.77-0.11c0.9,0.06,1.79,0.27,2.46,0.69c0.68,0.42,1.03,1.1,1.16,1.88
		C50.11,107.84,49.61,108.56,48.99,109.14z M65.7,113.1c-1.7-1.25-3.58-2.26-5.36-3.45c-1.79-1.16-3.57-2.39-5.48-3.45
		c-1.67-0.9-3.52-1.72-5.45-1.82c-0.08-0.04-0.17-0.08-0.25-0.12c0.07-0.02,0.14-0.05,0.21-0.07l0.76-0.18l0.77-0.1l0.77-0.03
		c1.03,0,2.06,0.19,3.07,0.41c2.03,0.47,3.97,1.26,5.94,2.05c0.12,0.05,0.26,0.1,0.36,0.14c0.09,0.05,0.18,0.08,0.28,0.14
		c0.19,0.1,0.38,0.24,0.57,0.38c0.37,0.29,0.74,0.63,1.09,1c0.7,0.73,1.36,1.53,2.01,2.35c1.28,1.63,2.46,3.33,3.86,5
		C67.78,114.6,66.75,113.84,65.7,113.1z M77.55,111.73c-1.25,0.07-2.53,0.54-3.47,1.28c-0.48,0.36-0.91,0.75-1.3,1.12
		c-0.38,0.36-0.76,0.71-1.04,0.88c-0.06,0.03-0.12,0.06-0.17,0.08c-0.04-0.01-0.08,0.03-0.1,0.01c0,0,0,0-0.01,0c0,0,0,0,0,0
		l-0.09-0.06c-0.29-0.21-0.66-0.58-0.99-0.95c-1.35-1.52-2.62-3.26-4.03-4.89c-0.7-0.82-1.42-1.63-2.25-2.39
		c-0.41-0.38-0.84-0.74-1.33-1.08c-0.24-0.17-0.5-0.32-0.78-0.46c-0.13-0.07-0.3-0.13-0.45-0.19c-0.15-0.06-0.26-0.09-0.39-0.13
		c-0.43-0.14-0.86-0.27-1.29-0.4c1.23,0.13,2.45,0.29,3.66,0.46c1.4,0.21,2.79,0.43,4.13,0.77c0.67,0.17,1.33,0.37,1.94,0.63
		c0.31,0.12,0.6,0.28,0.88,0.44l0.89,0.55c1.25,0.79,2.53,1.51,3.84,2.17c1.3,0.67,2.63,1.27,3.99,1.81
		c0.36,0.15,0.73,0.28,1.1,0.43C79.39,111.74,78.48,111.69,77.55,111.73z M70.9,96.28l0.84,0.18l0.42,0.09l0.4,0.13
		c2.17,0.66,4.22,1.93,6.12,3.36c1.91,1.43,3.63,3.13,5.26,4.89c2.76,3.04,5.17,6.38,7.43,9.8c-3.01-1.18-6.13-2.13-9.37-2.66
		c-2.14-1.07-4.23-2.23-6.25-3.48c-1.22-0.76-2.4-1.56-3.52-2.43l-0.42-0.33l-0.49-0.34c-0.34-0.22-0.68-0.42-1.03-0.59
		c-0.7-0.35-1.41-0.63-2.13-0.87c-2.88-0.95-5.85-1.21-8.78-1.25c-2.32-0.02-4.64,0.11-6.93,0.44c-0.27,0.01-0.55,0.03-0.82,0.06
		l-0.81,0.12l-0.8,0.2l-0.76,0.3c-0.13,0.07-0.26,0.16-0.39,0.24c-0.05-0.02-0.11-0.04-0.16-0.06l0.02-0.16
		c0.02-0.15,0.04-0.3,0.06-0.44c0.05-0.29,0.11-0.58,0.18-0.87c0.14-0.57,0.35-1.12,0.61-1.63c0.52-1.03,1.33-1.85,2.3-2.34
		c0.48-0.25,1.01-0.39,1.6-0.57c0.57-0.17,1.15-0.33,1.72-0.48c1.16-0.29,2.31-0.58,3.48-0.81c2.33-0.46,4.68-0.79,7.02-0.85
		c1.17-0.02,2.34-0.02,3.49,0.12C69.77,96.08,70.33,96.21,70.9,96.28z M63.01,85.89c1.53-0.18,3.07-0.24,4.62-0.22
		c0.77,0.01,1.54,0.03,2.31,0.1c0.77,0.07,1.54,0.12,2.31,0.12c1.25-0.02,2.5-0.07,3.76-0.2c-0.51,0.54-0.96,1.13-1.32,1.79
		c-0.26,0.48-0.48,0.99-0.59,1.54c-0.05,0.28-0.07,0.56-0.11,0.78c-0.05,0.23-0.13,0.47-0.22,0.7c-0.4,0.92-1.01,1.77-1.7,2.54
		c-0.5,0.56-1.07,1.06-1.66,1.53c-1.58-0.29-3.19-0.36-4.77-0.33c-2.48,0.12-4.93,0.48-7.3,1.09c-1.19,0.29-2.37,0.63-3.52,1.02
		c-0.28,0.09-0.56,0.2-0.84,0.3c-0.16-0.02-0.32-0.04-0.48-0.06c-0.06-0.01-0.13-0.01-0.19-0.01c1.37-1.06,2.75-2.01,4.25-2.72
		c1.71-0.81,3.51-1.52,5.42-2.04c1.9-0.53,3.86-1.02,5.72-1.8c1.86-0.79,3.58-1.87,5.07-3.19c0.02-0.02,0.03-0.06,0.01-0.09
		c-0.02-0.03-0.06-0.03-0.09-0.01c-1.59,1.18-3.35,2.09-5.21,2.7c-1.85,0.64-3.78,1-5.73,1.41c-1.94,0.42-3.98,0.84-5.77,1.9
		c-1.64,0.95-3.06,2.27-4.09,3.82c-0.35-0.01-0.7-0.02-1.05,0c-1.11,0.02-2.16,0.43-3.23,0.66l-0.06,0.01l0.54-1.13
		c0.38-0.84,0.77-1.67,1.14-2.51c0.86,0.14,1.73,0.19,2.59,0.17c1.06-0.05,2.08-0.47,2.85-1.18c0.39-0.35,0.71-0.77,0.96-1.23
		l0.69-1.29c0.65-1.18,1.36-2.32,2.08-3.46C60.57,86.24,61.78,86.01,63.01,85.89z M70.4,67.12c-0.59,0.79-1.16,1.59-1.72,2.4
		c-2.23,3.22-4.39,6.49-6.32,9.9c-1.37,2.41-2.68,4.86-3.98,7.3c-0.01,0.01-0.02,0.02-0.02,0.03c-0.53,1-1.06,2-1.6,3l-0.66,1.31
		c-0.21,0.41-0.5,0.77-0.84,1.07c-0.67,0.61-1.58,0.95-2.48,0.95c-1.89-0.02-3.8-0.51-5.36-1.5c-0.39-0.25-0.76-0.52-1.1-0.83
		c-0.34-0.3-0.68-0.63-0.9-0.95c-0.44-0.63-0.63-1.4-0.58-2.15c1.92-2.34,3.8-4.59,5.86-6.72c0.55-0.58,1.14-1.13,1.69-1.72
		c0.54-0.59,1.11-1.16,1.69-1.72c0.57-0.56,1.11-1.17,1.72-1.7l1.79-1.63c1.99-1.71,4.06-3.32,6.2-4.86
		c0.34-0.03,0.64-0.11,0.94-0.19c0.78-0.24,1.5-0.57,2.21-0.89c0.71-0.32,1.47-0.57,2.16-0.94c0.7-0.35,1.38-0.74,2.05-1.14
		c0.03-0.02,0.06-0.04,0.1-0.06C70.95,66.42,70.67,66.76,70.4,67.12z M77.72,57.4c-0.64,0.59-1.24,1.21-1.81,1.87
		c-0.57,0.65-1.09,1.34-1.58,2.06c-0.1,0.15-0.21,0.31-0.31,0.47c-0.08,0.05-0.15,0.1-0.23,0.14c-1.29,0.81-2.54,1.67-3.74,2.6
		l-0.04,0.03c-1.78,0.9-3.52,1.86-5.24,2.87c-0.58,0.35-1.15,0.71-1.72,1.07c-0.06-0.06-0.11-0.14-0.14-0.25
		c-0.09-0.29-0.05-0.66-0.04-1.05l0.08-1.16c0.07-0.77,0.15-1.54,0.24-2.31c0.19-1.54,0.36-3.09,0.34-4.63
		c-0.02-1.54-0.14-3.08-0.31-4.62c-0.08-0.75-0.18-1.5-0.31-2.25c0.2-0.56,0.37-1.12,0.5-1.7c0.15-0.63,0.26-1.26,0.34-1.91
		c0.28,0.39,0.55,0.78,0.85,1.17c0.75,0.96,1.49,1.93,2.59,2.79c0.14,0.11,0.29,0.21,0.46,0.31c0.15,0.09,0.38,0.2,0.49,0.25
		L69,53.51c0.56,0.24,1.12,0.46,1.69,0.67c1.14,0.42,2.29,0.79,3.47,1.09c1.17,0.31,2.35,0.56,3.53,0.77
		c0.47,0.09,0.94,0.17,1.41,0.25C78.6,56.63,78.16,57.02,77.72,57.4z M84.01,55.77c-0.04,0-0.08,0.01-0.12,0
		c-0.14-0.01-0.33-0.07-0.53-0.17c-0.1-0.04-0.21-0.11-0.31-0.17l-0.23-0.13c-0.09-0.05-0.17-0.09-0.26-0.13
		c-0.34-0.15-0.67-0.25-0.98-0.34c-1.24-0.32-2.39-0.48-3.54-0.72c-1.14-0.22-2.27-0.48-3.37-0.78c-1.11-0.31-2.2-0.65-3.28-1.05
		c-0.54-0.2-1.07-0.41-1.6-0.64l-0.79-0.35c-0.15-0.07-0.2-0.09-0.29-0.15c-0.09-0.05-0.18-0.12-0.27-0.19
		c-0.77-0.59-1.5-1.5-2.19-2.4c-0.69-0.92-1.36-1.87-2.04-2.84c-0.35-0.48-0.69-0.97-1.08-1.47c-0.21-0.25-0.39-0.5-0.73-0.79
		c-0.09-0.08-0.19-0.16-0.37-0.26c-0.1-0.05-0.21-0.1-0.43-0.14c-0.05-0.01-0.11-0.01-0.16-0.01l-0.03,0l-0.07,0
		c-0.19,0-0.34,0.02-0.5,0.03c-0.28,0.03-0.54,0.07-0.81,0.1c0.73-0.4,1.45-0.79,2.18-1.15c0.41-0.2,0.84-0.36,1.26-0.52
		c0.42-0.16,0.82-0.36,1.19-0.59c0.63-0.4,1.22-0.82,1.85-1.36l0.35,0.03c2.53,0.23,5.08,0.59,7.59,0.94
		c1.26,0.18,2.51,0.37,3.75,0.61c0.62,0.12,1.23,0.25,1.82,0.41c0.59,0.15,1.17,0.34,1.62,0.55l0.35,0.17l0.06-0.02
		c0.26,0.79,0.5,1.58,0.7,2.39c0.35,1.28,0.63,2.58,0.85,3.87c0.22,1.3,0.16,2.59,0.3,3.82C84.01,53.45,84.08,54.54,84.01,55.77z
		 M107.91,55.04c-0.27,0.03-0.56,0.06-0.85,0.08l-1.75,0.12c-1.17,0.07-2.4,0.15-3.6,0.36c-2.31,0.37-4.65,0.7-6.94,0.84
		c-0.57,0.04-1.14,0.06-1.67,0.03c-0.25-0.01-0.52-0.05-0.64-0.09c-0.02-0.02-0.06-0.04-0.13-0.1c-0.18-0.13-0.33-0.22-0.49-0.31
		c-1.24-0.62-2.42-0.91-3.71-1.07c-0.65-0.06-1.31-0.11-2.12,0.11c-0.46,0.13-0.87,0.33-1.21,0.49c0.02-0.02,0.04-0.05,0.05-0.07
		c0.2-0.31,0.34-0.65,0.49-0.99l0.11-0.26l0.07-0.26l0.13-0.53c0.09-0.36,0.12-0.72,0.15-1.08c0.07-0.73-0.03-1.43-0.16-2.13
		c-0.18-0.68-0.35-1.36-0.56-2.02c-0.38-1.33-0.87-2.61-1.44-3.85c-0.35-0.75-0.72-1.49-1.11-2.21c1.06-0.31,2.22-0.26,3.35,0.01
		c0.6,0.15,1.19,0.36,1.76,0.62c0.56,0.26,1.16,0.57,1.62,0.89l0.09,0.06l0.05,0.03l2.57,1.25c0.86,0.41,1.72,0.83,2.56,1.26
		c0.42,0.21,0.84,0.44,1.23,0.65c0.1,0.06,0.18,0.11,0.26,0.15l0.34,0.22l0.65,0.37L99.54,49c1.66,0.93,3.3,1.9,4.87,2.96
		c1.23,0.83,2.44,1.72,3.49,2.76c0.04,0.11,0.09,0.21,0.14,0.3C108,55.03,107.96,55.03,107.91,55.04z M120.76,41.78
		c-0.14,0.31-0.35,0.58-0.6,0.82c-0.13,0.12-0.26,0.24-0.4,0.35c-0.15,0.12-0.32,0.25-0.46,0.38c-0.6,0.51-1.16,1.05-1.73,1.58
		c-1.12,1.06-2.22,2.16-3.38,3.12c-0.14,0.12-0.29,0.23-0.43,0.34l-0.48,0.36c-0.31,0.25-0.61,0.51-0.91,0.77
		c-0.59,0.53-1.14,1.09-1.68,1.67c-0.53,0.58-1.05,1.19-1.51,1.87c-0.23,0.34-0.45,0.69-0.64,1.09c-0.07,0.15-0.13,0.3-0.19,0.46
		c-0.04-0.02-0.09-0.05-0.14-0.07c-0.35-0.46-0.73-0.89-1.14-1.3c-0.68-0.7-1.4-1.35-2.14-1.97c-1.49-1.24-3.08-2.36-4.69-3.42
		c-0.8-0.54-1.62-1.04-2.43-1.56l-0.58-0.38l-0.26-0.19c-0.12-0.09-0.24-0.17-0.34-0.24c-0.43-0.29-0.84-0.53-1.26-0.78
		c-1.65-0.97-3.32-1.86-5.01-2.74c-0.63-0.44-1.22-0.78-1.88-1.08c-0.07-0.03-0.15-0.06-0.22-0.09c0.93-0.35,1.86-0.68,2.79-1.03
		l4.28-1.58c1.42-0.54,2.81-1.12,4.24-1.59c0.71-0.23,1.42-0.44,2.13-0.64c0.72-0.19,1.41-0.35,2.13-0.35
		c1.48,0.02,3.01,0.39,4.44,0.93c1.44,0.54,2.78,1.33,4.18,1.97c0.7,0.32,1.41,0.6,2.14,0.85c0.72,0.27,1.45,0.5,2.18,0.74
		c1.36,0.43,2.73,0.83,4.16,1.11C120.9,41.4,120.84,41.6,120.76,41.78z M116.82,29.27c0.85,1.27,1.67,2.59,2.21,3.99
		c0.13,0.35,0.24,0.7,0.3,1.06c0.03,0.18,0.05,0.35,0.05,0.52c0,0.17-0.01,0.4,0.01,0.6c0.05,0.83,0.35,1.62,0.72,2.32
		c0.18,0.35,0.39,0.69,0.58,1.02c0.19,0.33,0.37,0.66,0.43,0.95c0.03,0.15,0.01,0.21-0.03,0.46l-0.08,0.58
		c0,0.03-0.01,0.05-0.01,0.08c-1.17-0.82-2.41-1.49-3.67-2.12c-0.7-0.34-1.4-0.67-2.12-0.96c-0.71-0.3-1.44-0.58-2.18-0.79
		c-1.49-0.44-3.05-0.68-4.55-1.07c-1.51-0.37-2.94-0.9-4.53-1.28c-1.67-0.35-3.31-0.11-4.85,0.24c-1.55,0.36-3.06,0.81-4.51,1.4
		c-1.45,0.6-2.85,1.31-4.19,2.11c-0.12,0.07-0.24,0.15-0.36,0.22c1.05-0.9,2.1-1.79,3.12-2.7c1.08-0.96,2.12-1.98,3.22-2.93
		c1.1-0.94,2.13-2,3.27-2.93c1.14-0.91,2.41-1.7,3.8-2.06c1.37-0.32,2.85-0.42,4.27-0.68c2.72-0.52,5.47-1.04,8.2-1.88
		c-0.15,0.54-0.24,1.1-0.2,1.68l0.02,0.29c0.01,0.06-0.01,0.03,0.03,0.22c0.03,0.08,0.06,0.13,0.08,0.18
		c0.11,0.19,0.21,0.35,0.32,0.51L116.82,29.27z"/>
</g>
</svg>
