<?xml version="1.0" encoding="utf-8"?>
<!-- Generator: Adobe Illustrator 23.0.0, SVG Export Plug-In . SVG Version: 6.00 Build 0)  -->
<svg version="1.1" id="Layer_1" xmlns="http://www.w3.org/2000/svg" xmlns:xlink="http://www.w3.org/1999/xlink" x="0px" y="0px"
	 viewBox="0 0 128 128" style="enable-background:new 0 0 128 128;" xml:space="preserve">
<style type="text/css">
	.st0{fill:#525B5B;}
	.st1{fill:#595F63;}
	.st2{fill:#535554;}
	.st3{fill:#505252;}
	.st4{fill:#4E5256;}
	.st5{fill:#DCC8D1;}
	.st6{fill:#B9C6C1;}
	.st7{fill:#2D2D2D;}
</style>
<g>
	<path class="st0" d="M74.4,24.1c0.6-0.2,1.2-0.4,1.8-0.6L78,23c0.6-0.2,1.2-0.3,1.8-0.4c1.2-0.3,2.5-0.4,3.8-0.4
		c2.5,0,4.9,0.3,7.3,0.6c-0.6-2-1.6-3.9-3.1-5.1C87,17,86,16.6,85,16.3c-1-0.3-2.1-0.6-3.2-0.8c-2.2-0.4-4.4-0.7-6.6-0.9
		c-2.2-0.3-4.5-0.5-6.7-0.5c-4.5,0.1-9,1.1-13.2,2.5c-2.1,0.7-4.2,1.5-6.3,2.3c-1.4,0.5-2.8,1.1-4.2,1.7c0.6,0.3,1.3,0.5,2,0.7
		c1.3,0.4,2.7,0.7,4.1,0.9c2.8,0.4,5.6,0.3,8.4-0.3l0.2,0l0.1,0c1.2,0.3,2.4,0.5,3.6,0.7l3.7,0.6c2.3,0.4,4.6,0.8,6.8,1.2
		C73.8,24.3,74.1,24.2,74.4,24.1z"/>
	<path class="st1" d="M65.4,31.7c1-0.4,2-0.8,3.1-1.2c1-0.4,2.1-0.7,3.1-1.1c2.1-0.7,4.2-1.4,6.3-2.2c1-0.4,2.1-0.7,3.2-0.9
		c1.1-0.3,2.2-0.5,3.3-0.6c2.2-0.2,4.5-0.1,6.7,0.2c2.1,0.3,4.2,0.6,6.2,1.3c-0.1-0.2-0.2-0.5-0.3-0.7c-0.4-1.1-1.3-2-2.4-2.4
		c-0.5-0.2-1.2-0.3-1.8-0.4c-0.6-0.1-1.2-0.2-1.8-0.3c-2.4-0.3-4.9-0.6-7.3-0.5c-1.2,0-2.4,0.2-3.6,0.5c-0.6,0.2-1.2,0.3-1.8,0.5
		l-1.7,0.6c-0.6,0.2-1.2,0.4-1.7,0.6c-0.6,0.2-1.1,0.4-1.7,0.7c-1.1,0.5-2.3,1-3.4,1.5c-4.4,2.1-8.7,4.6-12.8,7.3
		c-2.1,1.3-4.1,2.7-6.1,4.2c-0.5,0.3-0.9,0.7-1.4,1c3.2-2,6.5-3.7,9.9-5.4C61.3,33.4,63.3,32.5,65.4,31.7z"/>
	<path class="st2" d="M99.4,30.4l1.1,2c0.4,0.7,0.6,1.5,0.8,2.3c0.3,1.6,0,3.3-0.7,4.7c-0.2,0.3-0.4,0.6-0.5,0.9
		c0.2-0.2,0.4-0.3,0.7-0.4c0.2-0.1,0.5-0.2,0.8-0.3c0.5-0.2,1.1-0.3,1.6-0.4c0.5-0.1,1.1-0.1,1.6-0.3c0.5-0.1,1-0.4,1.6-0.5
		c0.6-0.1,1.2,0,1.7,0.3c0.3,0.1,0.6,0.4,0.9,0.6c0.3-0.3,0.6-0.5,0.9-0.8c0.7-0.6,1.4-1.2,2.3-1.8c-0.3-0.1-0.6-0.1-0.9-0.2
		c-0.4-0.1-0.7-0.2-1-0.4c-0.3-0.1-0.7-0.2-1-0.4c-0.6-0.4-1.3-0.8-1.8-1.3c-0.3-0.3-0.6-0.5-0.8-0.8c-0.2-0.3-0.5-0.6-0.7-0.9
		c-0.4-0.6-0.8-1.2-1.2-1.8c-0.2-0.3-0.5-0.6-0.7-0.9l-0.3-0.5c-0.1-0.2-0.2-0.3-0.3-0.5c-0.5-1.1-0.7-2.4-0.5-3.7
		c-0.8,0.1-1.7,0.2-2.5,0.2c-1,0.1-1.9,0.1-2.9,0.2c0,0.1,0.1,0.1,0.1,0.2C98,27.7,98.6,29.1,99.4,30.4z"/>
	<path class="st0" d="M2.1,97.9c0,0.1,0,0.2,0.1,0.3c0.2,0.7,0.5,1.1,1.2,1.4c0.4,0.2,1,0.2,1.5,0.2c-0.1-0.1-0.2-0.1-0.3-0.2
		c-0.3-0.3-0.6-0.7-0.8-1.3c-0.1-0.5,0-1.1,0.2-1.5c0.2-0.4,0.4-0.7,0.7-1c1-1.1,2.1-1.8,3.1-2.5c0.4-0.6,0.8-1.1,1.3-1.6
		c0.5-0.5,1.1-1,1.6-1.4c1.1-0.9,2.4-1.6,3.7-2.2c1.3-0.6,2.6-1,4-1.4c0.9-0.2,1.7-0.4,2.6-0.6c-0.5-0.1-1-0.2-1.5-0.3
		c-3.5-0.8-7-1.3-10.6-1.5c-0.1,0.8-0.3,1.6-0.6,2.3c-0.4,0.9-0.8,1.9-1.7,2.7c-0.3,0.2-0.4,0.3-0.6,0.4c-0.2,0.1-0.4,0.2-0.6,0.4
		c-0.4,0.3-0.8,0.6-1.1,0.9c-0.7,0.7-1.2,1.5-1.5,2.4c-0.2,0.4-0.3,0.9-0.4,1.4c-0.1,0.4-0.2,0.9-0.3,1.3C2,96.3,2,96.7,2,97.1
		c0,0.2,0,0.4,0.1,0.5C2,97.7,2.1,97.8,2.1,97.9z"/>
	<path class="st1" d="M22.2,85c1.4-0.1,2.7-0.3,4.1-0.4l4.6-0.5c1.5-0.2,3.1-0.3,4.6-0.5c1.4-0.1,2.8-0.5,4.3-1
		c5.8-1.7,11.6-3.9,17.4-5.9c2.9-1.1,5.8-2,8.7-3.1c2.9-1,5.8-2.2,8.7-3.2c1.5-0.5,2.9-0.9,4.4-1.3c1.5-0.4,3-0.8,4.3-1.3
		c0.6-0.2,1.2-0.6,1.7-1.1c0.5-0.5,1-1,1.5-1.6c0.7-0.9,1.4-1.9,2-2.9c-0.1-0.3-0.1-0.7-0.2-1c-0.4-2.4-0.4-4.9,0.2-7.4
		c0.5-2.4,1.6-4.7,3.2-6.6c0.1-0.2,0.3-0.3,0.4-0.5c-2.8,1-5.6,1.9-8.4,2.8c-3.1,1-6.1,2-9.1,3c-3.1,0.9-6.1,1.8-9.1,3.2
		c-1.4,0.7-2.9,1.4-4.2,2.3c-1.4,0.9-2.5,1.9-3.7,3c-1.2,1.1-2.5,2.1-3.8,3.1c-1.3,1-2.6,1.9-4,2.8c-2.7,1.8-5.4,3.5-8.3,5
		c-1.4,0.8-2.9,1.5-4.4,2.2c-0.4,0.2-0.8,0.3-1.1,0.5L35,75.1l-2.2,1l-8.7,4.1c0,0-0.1,0-0.1,0c0,0,0-0.1,0-0.1
		c2.7-1.8,5.4-3.6,8.2-5.2c0.7-0.4,1.4-0.8,2.1-1.2l1.1-0.6l1-0.6c1.4-0.8,2.8-1.6,4.2-2.4c2.7-1.6,5.5-3.2,8.3-4.9
		c1.4-0.8,2.7-1.7,4.1-2.6c1.4-0.9,2.7-1.7,4-2.6l2-1.4c0.7-0.5,1.4-0.9,2.1-1.3c1.4-0.8,2.8-1.6,4.3-2.3c2.9-1.4,5.8-2.9,8.8-4.1
		c3-1.2,6.1-2.1,9.3-2.9c3-0.7,6.1-1.4,9.2-1.8c0.6-0.6,1.2-1.2,1.9-1.7c1-0.7,2-1.2,3.1-1.7c0.9-1.2,1.7-2.5,2.4-3.8
		c0.6-1.3,0.8-2.7,0.6-4.1c-0.8-0.2-1.7-0.4-2.5-0.5c-1-0.1-2.1-0.2-3.1-0.2c-2.1,0-4.1,0.2-6,0.9c-4.1,1.2-8,2.3-12.1,3.4
		c-2,0.6-4,1.1-6,1.8c-1,0.4-2,0.7-2.9,1.1c-1,0.4-1.9,0.8-2.9,1.3c-1.9,0.9-3.7,1.9-5.5,3c-1.8,1.1-3.5,2.2-5.2,3.4L49.3,53
		l-5.1,3.6c-1.7,1.2-3.5,2.4-5.2,3.6l-5.2,3.5c-3.5,2.3-7,4.6-10.5,7c-1.7,1.2-3.5,2.4-5.1,3.6c-1.7,1.2-3.4,2.5-4.8,4
		c0,0-0.1,0-0.1,0c0,0,0-0.1,0-0.1c0.6-0.9,1.3-1.6,2.1-2.4c0.8-0.7,1.5-1.5,2.3-2.2c1.6-1.4,3.2-2.7,4.9-4
		c3.3-2.6,6.7-5.1,10.2-7.5l5.2-3.6l5.2-3.5l5.2-3.5c1.7-1.2,3.4-2.4,5.3-3.5c0.9-0.6,1.8-1.1,2.8-1.6c0.9-0.5,1.9-1,2.8-1.4
		c1.9-0.9,3.8-1.8,5.8-2.6l5.8-2.5c1-0.4,1.9-0.8,2.9-1.2c1-0.4,2-0.8,2.9-1.2c2-0.8,4-1.5,6-2c2-0.6,4.1-1.1,6.1-1.6
		c1-0.3,2.1-0.5,3.2-0.5c1.1-0.1,2.2-0.1,3.2,0.1c1.1,0.1,2.1,0.3,3.2,0.6c0.8,0.2,1.6,0.5,2.3,0.8c-0.1-0.7-0.4-1.4-0.7-2
		c-0.4-0.7-0.7-1.4-1-2.1c-0.5-1.1-1-2.2-1.4-3.3c-2.2,0-4.3,0-6.4-0.1c-2.2-0.1-4.3,0-6.5-0.1c-2.2-0.1-4.4-0.1-6.4,0.6
		c-2.1,0.7-4.1,1.6-6,2.6c-1.9,1-3.9,2-5.9,2.9c-2,1-3.9,1.9-5.9,2.8c-4,1.7-8.1,3.4-12.3,4.8c0,0,0,0,0,0c-1,0.7-1.9,1.5-2.7,2.3
		L45,43.4l-0.1,0.1c-2.4,1-4.7,2.2-7,3.6c-2.2,1.4-4.4,2.9-6.5,4.5c-4.2,3.3-8,7-11,11.3l0,0l0,0c-1.1,1-2.2,2-3.3,3.1
		c-1.1,1.1-2.1,2.2-3.1,3.3c-1,1.2-1.9,2.3-2.8,3.6c-0.4,0.6-0.8,1.3-1.2,1.9c-0.3,0.6-0.7,1.3-0.8,2l0,0.2l-0.1,0.1
		c-1.8,1.1-3.4,2.5-4.6,4.2c-0.3,0.4-0.6,0.9-0.8,1.3c-0.1,0.1-0.1,0.2-0.1,0.4c0,0-0.1,0.1-0.1,0.2c0,0,0,0,0,0c0,0,0,0.1,0,0.1
		c0,0,0,0,0,0l0.2,0c1.1,0,2.1,0,3.2,0c4.3,0.1,8.6,0.4,12.8,1.3C20.6,84.8,21.4,84.9,22.2,85z"/>
	<path class="st1" d="M89.3,64.9c-0.2-0.6-0.4-1.3-0.6-1.9c-0.4,0.9-0.8,1.9-1.4,2.7c-0.8,1.3-1.9,2.6-3.4,3.4
		c-0.8,0.4-1.5,0.6-2.2,0.9c-0.7,0.3-1.5,0.5-2.2,0.7c-1.5,0.5-2.9,0.9-4.4,1.3c-3,0.8-6,1.4-8.9,2.2c-3,0.8-5.8,1.9-8.6,3.3
		c-2.8,1.4-5.6,2.7-8.4,3.8c-2.9,1.2-5.7,2.3-8.8,3.1c-0.8,0.2-1.5,0.4-2.3,0.6c-0.4,0.1-0.8,0.1-1.2,0.2c-0.4,0.1-0.9,0.1-1.2,0.1
		c-1.5,0-3.1,0.1-4.6,0.1c-1.7,0-3.4,0-5.1,0c0.1,0,0.1,0,0.2,0c2.1,0.3,4.2,0.5,6.3,0.6c4.2,0.2,8.4,0.1,12.5-0.6
		c4.1-0.8,8.2-1.9,12.3-3.1c4.1-1.2,8.1-2.5,12.1-3.9c2-0.7,4-1.4,5.9-2.2c1-0.4,1.9-0.8,2.9-1.3c0.5-0.2,0.9-0.4,1.4-0.7l0.7-0.4
		l0.7-0.4l5.5-3.3l2.7-1.7c0.4-0.3,0.9-0.6,1.3-0.9c0.1-0.1,0.3-0.2,0.4-0.3c-0.2-0.3-0.4-0.6-0.6-0.9
		C89.8,66.1,89.5,65.5,89.3,64.9z"/>
	<path class="st3" d="M104.2,29c0,0.2,0.1,0.3,0.1,0.5l0.1,0.5c0,0.2,0.1,0.3,0.2,0.5c0.1,0.2,0.2,0.3,0.2,0.5
		c0.3,0.6,0.9,1.1,1.4,1.6c1.1,0.8,2.3,1.6,3.5,2.3c0.6,0.4,1.2,0.7,1.8,1.1c0.4,0.2,0.8,0.4,1.2,0.7l0.1-0.1l0,0
		c1.5-0.2,3.1-0.7,4.5-1.6c1.4-0.8,2.5-2.1,3.8-3.1c0.3-0.3,0.7-0.5,1-0.7c0.3-0.2,0.6-0.4,0.9-0.7c0.6-0.5,1.1-1,1.6-1.6
		c0.5-0.6,1-1.2,1.5-1.8c0.2-0.3,0.5-0.7,0.7-1c0.1-0.2,0.2-0.3,0.3-0.5l0.1-0.3c-0.6,0.3-1.1,0.6-1.7,0.9c-0.3,0.4-0.6,0.7-0.9,1.1
		c-0.4,0.4-0.8,0.8-1.2,1.1c-0.8,0.7-1.8,1.3-2.9,1.6c-0.1,0-0.1,0-0.1-0.1c0,0,0-0.1,0-0.1c0.9-0.6,1.6-1.3,2.2-2.1
		c0.3-0.4,0.6-0.8,0.9-1.2c0.3-0.4,0.6-0.9,0.8-1.3l0.1-0.1l0.2-0.2c0.5-0.3,0.9-0.6,1.4-0.9c0-0.2-0.1-0.5-0.2-0.7
		c-0.1-0.4-0.2-0.8-0.3-1.2c-0.1-0.4-0.3-0.8-0.4-1.1c-0.1-0.3-0.3-0.5-0.4-0.7c-1.7-0.8-3.5-1.3-5.4-1.7c-1-0.2-2-0.3-2.9-0.2
		c-1,0-2,0.2-2.9,0.5c-1.9,0.6-3.6,1.8-5.1,2.9c-0.8,0.6-1.6,1.1-2.3,1.8c-0.8,0.6-1.5,1.3-2.2,1.9l-0.2,0.2l-0.2,0c0,0,0,0-0.1,0
		l0.4,1.4L104.2,29z M118.6,25.1c0.3-0.5,0.9-1.3,1.5-1.5c0.6-0.1,1.5,0.3,2,0.6c0.3,0.2,0.3,0.5,0.2,0.7c-0.3,0.5-0.9,1.3-1.5,1.5
		c-0.6,0.1-1.5-0.3-2.1-0.6C118.5,25.7,118.4,25.3,118.6,25.1z"/>
	<path class="st0" d="M21.9,86.3c-1.1,0.4-2.2,0.7-3.2,1.1c-1.3,0.5-2.5,1.1-3.7,1.7c-1.2,0.6-2.3,1.4-3.3,2.2
		c-1,0.8-1.9,1.8-2.6,2.9L9,94.4l-0.1,0.1c-1,0.8-2.1,1.5-2.9,2.4c-0.8,1-0.8,1.2,0.3,1.9c0.3,0.1,0.5,0.3,0.8,0.4
		c0.5,0.2,0.8,0.6,1,1c0.1,0.1,0.1,0.2,0.1,0.3c0,0.1,0.1,0.2,0.1,0.3l0.1,0.5c0.1,0.3,0.1,0.7,0.2,1c0.1,0.7,0,1.5-0.4,2.2
		c-0.3,0.7-0.9,1.2-1.4,1.6c-0.5,0.5-1,1-1.4,1.6c-0.4,0.5-0.9,1.2-0.9,1.8c-0.1,0.6,0.6,0.9,1.3,1c0.7,0.1,1.4,0.2,2.1,0.2l0.3,0
		l0.1,0.3c0.2,1.1,0.4,2.1,0.5,3.1l0.1,0.8l0.1,0.4c0,0.1,0,0.2,0.1,0.3c0.1,0.4,0.4,0.7,0.7,1c0.2,0.1,0.3,0.2,0.5,0.2
		c0.2,0.1,0.5,0.1,0.7,0.2c0.5,0.1,1,0.2,1.5,0.2c1,0.1,1.9,0,2.8-0.3c0.9-0.3,1.7-0.8,2.3-1.4c0.3-0.3,0.6-0.7,0.9-1.1
		c0.3-0.4,0.6-0.8,0.9-1.2c1.2-1.7,2.3-3.4,3.4-5.2c1.1-1.8,2.2-3.5,3.4-5.3c0.3-0.4,0.6-0.9,0.9-1.3l0.9-1.3l1.8-2.6
		c2.2-3.1,4.4-6.3,6.7-9.4c-1.4,0-2.8-0.1-4.1-0.2C28.8,87.5,25.3,87,21.9,86.3z"/>
	<path class="st0" d="M104.7,39.5c-0.5,0.1-1,0.2-1.5,0.5c-0.2,0.1-0.4,0.3-0.7,0.4c-0.2,0.1-0.4,0.3-0.6,0.4
		c-0.4,0.3-0.8,0.6-1.2,0.8c-0.8,0.5-1.6,1-2.5,1.6c-0.1,0.1-0.2,0.2-0.2,0.3l0,0.1l-0.1,0c-1.1,0.5-2.1,1.1-3,1.8
		c-0.9,0.7-1.8,1.5-2.5,2.4c-1.4,1.8-2.3,4-2.7,6.3c-0.4,2.3-0.3,4.6,0.2,6.9c0.2,1.1,0.6,2.2,1,3.3c0.2,0.5,0.5,1,0.7,1.5
		c0.3,0.4,0.6,0.9,0.9,1l0.6,0.3c0.2-0.5,0.4-1,0.6-1.5c0.7-1.4,1.5-2.7,2.9-3.6c0,0,0.1,0,0.1,0c0,0,0,0.1,0,0.1
		c-0.6,0.5-1.1,1-1.5,1.7c-0.4,0.6-0.7,1.3-1,2c-0.3,0.7-0.5,1.4-0.7,2.1c-0.2,0.7-0.3,1.5-0.4,2.2l0,0l0,0
		c-0.2,0.8-0.1,1.7,0.1,2.5c0.2,0.9,0.5,1.7,0.9,2.6c0.7,1.7,1.6,3.3,2.5,4.9c0.9,1.6,1.9,3.2,2.9,4.7c1,1.6,2,3.1,3,4.7l0,0.1
		l0,0.1c1.7,4.4,3.4,8.7,5,13.1l4.9,13.1c0.4,1.1,0.8,2.1,1.3,3.1c0.5,1,1.1,2,1.7,2.9c0.6,0.9,1.3,1.8,2.1,2.6
		c0.4,0.4,0.8,0.8,1.2,1.1c0.4,0.3,0.9,0.6,1.3,0.7c0.2,0.1,0.4,0.1,0.4,0c0.1,0,0.1-0.1,0.2-0.2c0.2-0.4,0.3-0.9,0.3-1.5
		c0.1-1.1,0-2.3,0-3.4c-0.1-2.3-0.3-4.7,0-7.1l0,0l0,0c0.4-1.5,0.5-3,0.6-4.5c0.1-1.5,0.1-3.1,0-4.6c-0.1-3.1-0.3-6.2-0.5-9.2
		c-0.3-3.1-0.6-6.2-0.7-9.3c0-0.8-0.1-1.6-0.1-2.3c0-0.4,0-0.8,0-1.2l0-1.1c0-1.5,0-3-0.2-4.5c-0.1-1.5-0.3-3-0.6-4.6
		c-0.2-1.5-0.4-3.1-0.6-4.6c-0.2-1.5-0.3-3.1-0.4-4.6c-0.1-0.8-0.1-1.6-0.1-2.3c0-0.4-0.1-0.7-0.1-1.1c-0.1-0.4-0.1-0.7-0.2-1.1
		c-0.6-2.9-2.3-5.5-4.5-7.5c-2-1.9-4.3-3.4-6.9-4.5l0,0.1c0,0.1,0,0.1-0.1,0.1c0,0-0.1,0-0.1,0c-0.2-0.2-0.3-0.3-0.5-0.5
		c-0.1,0-0.2-0.1-0.2-0.1l0,0c0,0-0.1-0.1-0.1-0.1c0,0,0,0,0.1,0c-0.2-0.2-0.3-0.4-0.5-0.6c-0.2-0.3-0.3-0.5-0.5-0.8
		c-0.1-0.3-0.3-0.6-0.3-1c-0.1-0.4,0-0.9,0.3-1.3c0.2-0.4,0.5-0.7,0.7-0.9c0.5-0.4,1-0.8,1.4-1.1c0.4-0.3,0.8-0.6,1.1-0.9
		c-0.7-0.2-1.4-0.2-2.1-0.3C105.7,39.6,105.2,39.4,104.7,39.5z"/>
	<path class="st4" d="M96.5,27.2l1.2,0.1c0,0,3.5,6.1,3.4,7.2c-0.1,1.1-0.2,0.4-0.4,0.4s-4.9-1.2-7.6-1c-2.6,0.2-16.6,4.7-19.4,5.4
		c-2.7,0.7-15.6,6.3-19.9,9.1S20.1,72.6,18.6,73.4c-1.4,0.8-5.2,5-5.3,5c-0.2,0-8.5,2.7-7.3,0.9c1.9-1.5,3.1-2.6,3.1-2.6
		s1.1-3.8,5.3-8.2s5.8-5.9,5.8-5.9s5.2-7.2,8.9-9.8c3.8-2.7,11-8,15.8-10.1c1.2-1.5,14.3-6.6,15.2-7.2c0.9-0.6,14.2-7.3,19.2-8.3
		c5-1,14.5-0.2,14.5-0.2L96.5,27.2z"/>
	<path class="st5" d="M107.3,33.9c0,0,8.8-0.1,13.7-4.4c2.4-2.3,3.8-4.3,4-4.3c0.2,0,2.1-1.3,2.1-1.3s1,0.9-0.3,2.7
		c-1.3,1.8-5.4,6.2-6.5,6.8c-1.1,0.6-6.1,3.7-7,3.6C112.5,36.9,107.3,33.9,107.3,33.9z"/>
	<path class="st4" d="M17.5,84.4c0,0,6-4.1,8.3-5.4s18.7-9.4,21-11.5c2.3-2,10.3-6.7,12-8.2c1.7-1.5,8.3-4.9,10.3-5.6
		s17.6-6.1,19.6-6.4c2-0.3,4.2-0.7,4.2-0.7s-5.7,6.2-4.2,12.3s0.2,2.8,0.2,2.8s-2.2,4.7-3.2,5.4s-8.4,3.7-10.8,4.1
		c-2.4,0.4-16.6,5.4-18.2,6c-1.5,0.6-19.4,7.3-21.2,7.3S22.1,85.5,22,85.5S17.5,84.4,17.5,84.4z"/>
	<path class="st6" d="M107.5,34.1c0,0-3,3.1-6.5,4c-1.2,2.5-1.8,4.1-1.7,3.8c0.2-0.3,3.9-3,5.8-2.8c1.9,0.1,4.4,1.2,4.4,1.2
		s3.3-3.4,2.9-3.5S107.5,34.1,107.5,34.1z"/>
	<path class="st6" d="M89.1,62c0,0,0.2,3.6-0.9,4.8c-1.1,1.2-5.1,4.2-7.1,4.7s-9.9,3.7-12.9,3.9c-3,0.1-8.8,3.4-10.3,4.1
		S47,85.3,45.1,85.8c-3.3,0.8-10.6,0.2-12.2,0.1c-1.6-0.1-4.5-0.9-4.5-0.9s11-0.4,13.3-1.4s11.6-4.8,13.4-5.3
		c1.8-0.6,16.8-6,18.3-6.8c1.5-0.8,10.2-3.1,11.6-4S89.1,62,89.1,62z"/>
	<path class="st6" d="M35.4,87.3c-0.6,0.4-7.2,6.2-8.3,8.4s-2.5,5.6-4,8.3c-1.5,2.8-2.3,5.3-3.9,7.5c-1.7,2.2-8.3,7.4-10.2,3.6
		c0,1.4,2.2,3.9,4.9,3s7.7-4.3,8.6-7.5c0.9-3.2,10-15.1,10.6-16.6c0.6-1.5,4.2-6.9,4-6.9C36.9,87.1,35.4,87.3,35.4,87.3z"/>
	<path class="st6" d="M107.2,39.3c-1.7,0.6-3.9,3.1-3.5,4.9c0.4,1.8,0.3,3.3,2.3,4.1s5.6,1.7,6.9,3.8c1.3,2,4.6,5.1,6.1,11.4
		c1.4,0.9,0.7-3.8-0.2-5.3s-1.9-5.5-4-6.5c-2-1.1-3.6-3.1-5.7-3.7s-3.1-1.5-3.4-2.4c-0.3-0.9,0.2-2.7,1.3-3.3s2.5-2.2,2.3-2.3
		C109.1,40,107.2,39.3,107.2,39.3z"/>
	<path class="st7" d="M118.8,25.8c0.6,0.3,1.5,0.7,2.1,0.6c0.6-0.1,1.2-1,1.5-1.5c0.2-0.3,0.1-0.6-0.2-0.7c-0.5-0.3-1.5-0.8-2-0.6
		c-0.6,0.1-1.2,1-1.5,1.5C118.4,25.3,118.5,25.7,118.8,25.8z"/>
	<path class="st7" d="M0.1,98.4c0,0.1,0.1,0.3,0.1,0.4c0.2,0.6,0.6,1.1,1.1,1.5c0.5,0.4,1.2,0.6,1.8,0.6c1,0,1.9-0.3,2.5-0.9
		c0.3,0.1,0.7,0.3,0.9,0.4c0.1,0,0.3,0.1,0.4,0.3c0,0,0,0.1,0.1,0.1c0,0,0,0.1,0.1,0.2l0.1,0.5c0.1,0.3,0.2,0.6,0.2,0.9
		c0.1,0.6,0.1,1.1-0.1,1.6c-0.2,0.5-0.6,1-1.1,1.4l0,0l0,0c-0.5,0.6-0.9,1.1-1.4,1.7c-0.4,0.6-0.9,1.2-1,2.1c0,0.5,0.2,0.9,0.6,1.2
		c0.4,0.2,0.7,0.4,1.1,0.5c0.7,0.1,1.3,0.2,2,0.2c0.1,0.9,0.2,1.9,0.3,2.8l0,0.8l0,0.4c0,0.1,0,0.3,0.1,0.5c0.1,0.6,0.5,1.2,1,1.6
		c0.3,0.2,0.5,0.4,0.8,0.5c0.3,0.1,0.5,0.2,0.8,0.3c0.5,0.2,1.1,0.3,1.6,0.4c1.1,0.2,2.3,0.2,3.4-0.1c1.1-0.3,2.2-0.9,3.1-1.7
		c0.4-0.4,0.8-0.9,1.1-1.3c0.3-0.4,0.7-0.8,1-1.3c1.3-1.7,2.5-3.4,3.6-5.2c1.1-1.8,2.2-3.6,3.3-5.3c0.5-0.8,1.2-1.8,1.7-2.6
		c0.6-0.9,1.1-1.8,1.6-2.7c2-3.3,3.9-6.7,5.8-10.2c2.8,0,5.6-0.1,8.5-0.6c4.3-0.8,8.4-1.8,12.5-3C61.9,83.2,66,82,70,80.5
		c2-0.7,4-1.5,6-2.3c0.5-0.2,1-0.4,1.5-0.6c0.5-0.2,1-0.4,1.5-0.7c0.5-0.2,1-0.5,1.5-0.8l0.7-0.4l0.7-0.4l5.4-3.4
		c0.9-0.6,1.8-1.1,2.7-1.7c0.5-0.3,0.9-0.6,1.3-0.9c0.4-0.3,0.9-0.7,1.3-1.2c-0.2,0.6-0.4,1.2-0.5,1.8c-0.3,1-0.2,2,0,3
		c0.2,1,0.4,1.9,0.8,2.8c0.7,1.8,1.5,3.5,2.3,5.2c0.9,1.7,1.8,3.3,2.8,4.9c0.9,1.6,1.9,3.2,2.8,4.7c1.6,4.4,3.2,8.7,4.8,13.1
		c1.7,4.4,3.4,8.7,5.1,13.1c0.4,1.1,0.9,2.2,1.5,3.3c0.6,1.1,1.2,2.1,1.9,3.1c0.7,1,1.5,1.9,2.4,2.8c0.4,0.4,0.9,0.8,1.4,1.2
		c0.5,0.4,1.1,0.7,1.8,0.9c0.4,0.1,0.8,0.1,1.3,0c0.2-0.1,0.5-0.2,0.6-0.4c0.2-0.2,0.3-0.4,0.3-0.5c0.3-0.7,0.3-1.3,0.4-2
		c0-1.2-0.1-2.4-0.2-3.6c-0.2-2.3-0.5-4.7-0.3-6.9l0,0c0.3-1.6,0.4-3.1,0.5-4.7c0-1.6,0-3.1,0-4.7c-0.1-3.1-0.2-6.2-0.3-9.3
		c-0.1-3.1-0.2-6.2-0.2-9.3c0-0.8,0-1.5,0.1-2.3c0-0.4,0-0.8,0.1-1.1l0.1-1.2c0.1-1.6,0.1-3.2-0.1-4.7c-0.3-3.1-0.8-6.2-1.2-9.2
		c-0.2-1.5-0.4-3-0.5-4.6c-0.1-0.8-0.1-1.5-0.2-2.3c0-0.4-0.1-0.8-0.1-1.2c-0.1-0.4-0.1-0.8-0.2-1.2c-0.8-3.2-2.8-5.9-5.2-7.9
		c-1.2-1-2.6-1.9-4-2.6c-0.8-0.4-1.7-0.8-2.5-1.1c-0.7-0.3-1.2-0.9-1.4-1.6l0,0c-0.1-0.5-0.2-1.1-0.2-1.5c0-0.2,0.1-0.3,0.2-0.3
		c0.1-0.1,0.2-0.2,0.5-0.3c0.4-0.3,0.9-0.6,1.4-0.9c1-0.7,1.8-1.6,2.6-2.5c0.8-0.8,1.5-1.6,2.3-2.4c0.7-0.3,1.4-0.7,2.1-1l2.2-1.2
		c1.4-0.8,3-1.4,4.4-2.2c0.3-0.2,0.7-0.4,1.1-0.7c0.4-0.3,0.7-0.5,1-0.8c0.6-0.6,1.2-1.3,1.7-2c0.5-0.7,0.9-1.5,1.2-2.3
		c0.2-0.4,0.3-0.8,0.4-1.2c0-0.2,0.1-0.4,0.1-0.6c0-0.1,0-0.2,0-0.3c0-0.1,0-0.1,0-0.2c0,0,0,0,0,0l0.5-0.2l-0.1-0.7
		c0-0.5-0.1-0.9-0.2-1.4c-0.1-0.5-0.2-0.9-0.3-1.4c-0.1-0.5-0.3-0.9-0.5-1.4c-0.2-0.5-0.5-0.9-1.1-1.4l-0.1-0.1l-0.1,0
		c-2-0.8-4.1-1.3-6.2-1.2c-2.1,0-4.2,0.5-6.1,1c-1,0.3-2,0.5-3,0.9c-1,0.3-2,0.7-2.9,1.3c-0.9,0.5-1.7,1.2-2.5,1.9
		c-0.4,0.3-0.8,0.7-1.1,1.1c-0.3,0.3-0.6,0.7-0.9,1.1c-0.9,0.2-1.8,0.4-2.7,0.6c-1,0.2-1.9,0.5-2.9,0.8c-0.5-1-1.4-1.9-2.5-2.3
		c-0.3-0.1-0.6-0.2-0.9-0.3l-0.9-0.2c-0.6-0.1-1.1-0.2-1.7-0.3c0-1-0.3-2.1-0.6-3.1c-0.4-1.1-1-2.2-1.9-3c-0.9-0.9-2-1.5-3.1-1.9
		c-1.1-0.4-2.2-0.7-3.4-1c-2.3-0.5-4.6-0.8-6.8-0.8c-2.3-0.1-4.6,0-6.9,0.3c-4.5,0.5-9,1.3-13.5,2.2c-4.5,1-8.8,2.4-13.1,4.2
		l-1.7,0.7l1.7,1c1.4,0.8,2.8,1.3,4.2,1.8c1.4,0.4,2.9,0.7,4.4,0.8c1.5,0.2,3,0.1,4.5,0c1.5-0.2,2.9-0.4,4.3-0.8
		c1.2,0.2,2.4,0.3,3.6,0.5l3.7,0.4c2.1,0.2,4.3,0.4,6.4,0.6c-0.1,0-0.2,0.1-0.3,0.1c-1.1,0.5-2.3,0.9-3.4,1.5
		c-4.5,2.1-8.9,4.4-13.2,7c-2.1,1.3-4.2,2.7-6.3,4.1c-2,1.4-3.9,2.9-5.7,4.7c-2.5,1.1-4.7,2.4-7,3.9c-2.3,1.5-4.4,3.1-6.5,4.8
		c-2.1,1.7-4,3.6-5.9,5.5c-1.8,2-3.5,4-5,6.3c-2.3,2-4.4,4.2-6.3,6.5c-1,1.2-1.9,2.4-2.8,3.6c-0.4,0.6-0.9,1.3-1.2,2
		c-0.3,0.6-0.7,1.3-0.8,2.1c-1.8,1.1-3.5,2.5-4.7,4.2c-0.3,0.5-0.6,0.9-0.8,1.4C3,82.5,3,82.6,2.9,82.8c0,0.1,0,0.1-0.1,0.2
		c0,0.1,0,0.2,0,0.4c0,0.2,0.2,0.5,0.4,0.6C3.3,84,3.4,84,3.5,84c0.1,0,0.1,0,0.1,0l0.1,0c1.1,0,2.1,0.1,3.2,0.1
		c0.4,0,0.9,0,1.3,0.1c-0.4,0.6-0.8,1.1-1.2,1.7c-0.5,0.8-1.1,1.5-1.6,2C5.4,88,5.1,88.2,5,88.5c-0.2,0.2-0.3,0.4-0.5,0.6
		C4.2,89.5,4,90,3.8,90.4c-0.5,0.9-1.1,1.6-1.7,2.4c-0.6,0.8-1.3,1.6-1.6,2.6c-0.2,0.5-0.3,1-0.4,1.6c0,0.3,0,0.6,0,0.9
		C0,98.1,0.1,98.2,0.1,98.4z M29.7,97.3l-1.8,2.6l-0.9,1.3c-0.3,0.4-0.6,0.8-0.9,1.3c-1.2,1.8-2.3,3.5-3.4,5.3
		c-1.1,1.8-2.2,3.5-3.4,5.2c-0.3,0.4-0.6,0.8-0.9,1.2c-0.3,0.4-0.6,0.8-0.9,1.1c-0.6,0.6-1.4,1.1-2.3,1.4c-0.9,0.3-1.8,0.4-2.8,0.3
		c-0.5,0-1-0.1-1.5-0.2c-0.2,0-0.5-0.1-0.7-0.2c-0.2-0.1-0.4-0.1-0.5-0.2c-0.3-0.2-0.6-0.6-0.7-1c0-0.1-0.1-0.2-0.1-0.3l-0.1-0.4
		l-0.1-0.8c-0.1-1-0.3-2.1-0.5-3.1l-0.1-0.3l-0.3,0c-0.7,0-1.4,0-2.1-0.2c-0.7-0.1-1.3-0.5-1.3-1c0-0.6,0.5-1.2,0.9-1.8
		c0.4-0.5,0.9-1.1,1.4-1.6c0.5-0.4,1-0.9,1.4-1.6c0.4-0.7,0.5-1.5,0.4-2.2c0-0.4-0.1-0.7-0.2-1l-0.1-0.5c0-0.1,0-0.2-0.1-0.3
		c0-0.1-0.1-0.2-0.1-0.3c-0.2-0.4-0.6-0.8-1-1c-0.3-0.1-0.6-0.2-0.8-0.4C5.2,98,5.3,97.8,6,96.8c0.8-0.8,1.8-1.6,2.9-2.4L9,94.4
		l0.1-0.1c0.7-1.1,1.6-2,2.6-2.9c1-0.8,2.1-1.6,3.3-2.2c1.2-0.7,2.4-1.2,3.7-1.7c1.1-0.4,2.1-0.8,3.2-1.1c3.4,0.7,6.9,1.2,10.4,1.5
		c1.4,0.1,2.7,0.2,4.1,0.2C34.1,91,31.8,94.1,29.7,97.3z M90.3,67.8c-0.4,0.3-0.8,0.6-1.3,0.9l-2.7,1.7l-5.5,3.3l-0.7,0.4l-0.7,0.4
		c-0.4,0.3-0.9,0.5-1.4,0.7c-0.9,0.5-1.9,0.9-2.9,1.3c-1.9,0.8-3.9,1.5-5.9,2.2c-4,1.4-8,2.7-12.1,3.9c-4.1,1.2-8.2,2.3-12.3,3.1
		c-4.1,0.7-8.3,0.8-12.5,0.6c-2.1-0.1-4.2-0.3-6.3-0.6c-0.1,0-0.1,0-0.2,0c1.7,0.1,3.4,0,5.1,0c1.5,0,3.1-0.1,4.6-0.1
		c0.4,0,0.8,0,1.2-0.1c0.4-0.1,0.8-0.1,1.2-0.2c0.8-0.2,1.5-0.3,2.3-0.6c3-0.9,5.9-2,8.8-3.1c2.9-1.1,5.7-2.5,8.4-3.8
		c2.7-1.4,5.6-2.5,8.6-3.3c3-0.8,6-1.4,8.9-2.2c1.5-0.4,3-0.9,4.4-1.3c0.7-0.2,1.5-0.5,2.2-0.7c0.7-0.3,1.5-0.5,2.2-0.9
		c1.6-0.8,2.6-2.1,3.4-3.4c0.5-0.9,1-1.8,1.4-2.7c0.2,0.6,0.3,1.3,0.6,1.9c0.2,0.6,0.5,1.2,0.8,1.7c0.2,0.3,0.4,0.6,0.6,0.9
		C90.6,67.6,90.4,67.7,90.3,67.8z M107.2,40.9c-0.4,0.3-0.9,0.6-1.4,1.1c-0.2,0.2-0.5,0.5-0.7,0.9c-0.2,0.4-0.3,0.9-0.3,1.3
		c0,0.4,0.2,0.7,0.3,1c0.1,0.3,0.3,0.6,0.5,0.8c0.7,0.9,1.3,1.1,1.3,1.1c2.5,1.1,4.9,2.6,6.9,4.5c2.2,2.1,3.9,4.6,4.5,7.5
		c0.1,0.4,0.1,0.7,0.2,1.1c0,0.4,0.1,0.7,0.1,1.1c0,0.8,0.1,1.6,0.1,2.3c0.1,1.6,0.3,3.1,0.4,4.6c0.2,1.5,0.4,3.1,0.6,4.6
		c0.2,1.5,0.4,3,0.6,4.6c0.2,1.5,0.2,3,0.2,4.5l0,1.1c0,0.4,0,0.8,0,1.2c0,0.8,0,1.6,0.1,2.3c0.1,3.1,0.4,6.2,0.7,9.3
		c0.2,3.1,0.5,6.2,0.5,9.2c0,1.5,0,3.1,0,4.6c-0.1,1.5-0.2,3.1-0.6,4.5l0,0l0,0c-0.3,2.4-0.1,4.7,0,7.1c0,1.2,0.1,2.3,0,3.4
		c0,0.5-0.1,1.1-0.3,1.5c-0.1,0.2-0.2,0.2-0.2,0.2c-0.1,0-0.2,0-0.4,0c-0.4-0.1-0.9-0.4-1.3-0.7c-0.4-0.3-0.8-0.7-1.2-1.1
		c-0.8-0.8-1.5-1.7-2.1-2.6c-0.6-0.9-1.2-1.9-1.7-2.9c-0.5-1-0.9-2-1.3-3.1l-4.9-13.1c-1.6-4.4-3.3-8.7-5-13.1l0-0.1l0-0.1
		c-1-1.6-2-3.2-3-4.7c-1-1.6-2-3.1-2.9-4.7c-0.9-1.6-1.8-3.2-2.5-4.9c-0.4-0.8-0.7-1.7-0.9-2.6c-0.2-0.9-0.3-1.7-0.1-2.5l0,0l0,0
		c0.1-0.7,0.3-1.4,0.4-2.2c0.2-0.7,0.4-1.4,0.7-2.1c0.3-0.7,0.6-1.4,1-2c0.4-0.6,0.9-1.2,1.5-1.7c0,0,0-0.1,0-0.1c0,0-0.1-0.1-0.1,0
		c-1.3,0.8-2.2,2.2-2.9,3.6c-0.2,0.5-0.4,1-0.6,1.5l-0.6-0.3c-0.2-0.1-0.6-0.6-0.9-1c-0.3-0.5-0.5-1-0.7-1.5c-0.4-1-0.8-2.1-1-3.3
		c-0.5-2.3-0.5-4.6-0.2-6.9c0.4-2.3,1.2-4.5,2.7-6.3c0.7-0.9,1.5-1.7,2.5-2.4c0.9-0.7,2-1.3,3-1.8l0.1,0l0-0.1
		c0.1-0.1,0.2-0.2,0.2-0.3c0.9-0.6,1.7-1.1,2.5-1.6c0.4-0.3,0.8-0.6,1.2-0.8c0.2-0.1,0.4-0.3,0.6-0.4c0.2-0.1,0.4-0.3,0.7-0.4
		c0.4-0.3,0.9-0.5,1.5-0.5c0.5-0.1,1,0.1,1.5,0.2c0.7,0.1,1.4,0.1,2.1,0.3C108,40.3,107.6,40.6,107.2,40.9z M103.3,25.6l0.2,0
		l0.2-0.2c0.7-0.6,1.4-1.3,2.2-1.9c0.8-0.6,1.6-1.2,2.3-1.8c1.6-1.1,3.2-2.4,5.1-2.9c1-0.3,1.9-0.4,2.9-0.5c1,0,2,0.1,2.9,0.2
		c1.9,0.4,3.7,0.9,5.4,1.7c0.1,0.2,0.3,0.4,0.4,0.7c0.2,0.3,0.3,0.7,0.4,1.1c0.1,0.4,0.2,0.8,0.3,1.2c0.1,0.2,0.1,0.5,0.2,0.7
		c-0.5,0.3-0.9,0.6-1.4,0.9l-0.2,0.2l-0.1,0.1c-0.2,0.4-0.5,0.9-0.8,1.3c-0.3,0.4-0.6,0.8-0.9,1.2c-0.6,0.8-1.3,1.5-2.2,2.1
		c0,0-0.1,0.1,0,0.1c0,0.1,0.1,0.1,0.1,0.1c1.1-0.3,2-0.9,2.9-1.6c0.4-0.3,0.8-0.7,1.2-1.1c0.3-0.3,0.6-0.7,0.9-1.1
		c0.6-0.3,1.1-0.6,1.7-0.9l-0.1,0.3c-0.1,0.2-0.2,0.3-0.3,0.5c-0.2,0.3-0.4,0.7-0.7,1c-0.5,0.6-0.9,1.3-1.5,1.8
		c-0.5,0.6-1.1,1.1-1.6,1.6c-0.3,0.2-0.6,0.5-0.9,0.7c-0.3,0.2-0.6,0.4-1,0.7c-1.3,1-2.4,2.2-3.8,3.1c-1.4,0.9-2.9,1.4-4.5,1.6l0,0
		l-0.1,0.1c-0.4-0.2-0.8-0.5-1.2-0.7c-0.6-0.4-1.2-0.7-1.8-1.1c-1.2-0.7-2.3-1.4-3.5-2.3c-0.5-0.4-1.1-0.9-1.4-1.6
		c-0.1-0.2-0.2-0.3-0.2-0.5c-0.1-0.2-0.1-0.3-0.2-0.5l-0.1-0.5c0-0.2-0.1-0.3-0.1-0.5l-0.6-2L103.3,25.6
		C103.3,25.6,103.3,25.6,103.3,25.6z M100.3,25.9c0.8-0.1,1.7-0.1,2.5-0.2c-0.3,1.2-0.1,2.5,0.5,3.7c0.1,0.2,0.2,0.3,0.3,0.5
		l0.3,0.5c0.2,0.3,0.4,0.6,0.7,0.9c0.4,0.6,0.8,1.2,1.2,1.8c0.2,0.3,0.4,0.6,0.7,0.9c0.2,0.3,0.5,0.5,0.8,0.8
		c0.5,0.5,1.2,0.9,1.8,1.3c0.3,0.2,0.7,0.3,1,0.4c0.3,0.1,0.7,0.3,1,0.4c0.3,0.1,0.6,0.1,0.9,0.2c-0.8,0.5-1.6,1.2-2.3,1.8
		c-0.3,0.3-0.6,0.6-0.9,0.8c-0.2-0.3-0.6-0.5-0.9-0.6c-0.5-0.2-1.1-0.3-1.7-0.3c-0.6,0.1-1.1,0.3-1.6,0.5c-0.5,0.1-1,0.2-1.6,0.3
		c-0.6,0.1-1.1,0.2-1.6,0.4c-0.3,0.1-0.5,0.2-0.8,0.3c-0.2,0.1-0.5,0.2-0.7,0.4c0.2-0.3,0.4-0.6,0.5-0.9c0.7-1.4,1-3.1,0.7-4.7
		c-0.1-0.8-0.4-1.6-0.8-2.3l-1.1-2c-0.7-1.4-1.4-2.8-2-4.2c0-0.1-0.1-0.1-0.1-0.2C98.3,26,99.3,26,100.3,25.9z M66.7,23.2L63,22.6
		c-1.2-0.2-2.5-0.4-3.6-0.7l-0.1,0l-0.2,0c-2.8,0.5-5.6,0.6-8.4,0.3c-1.4-0.2-2.7-0.5-4.1-0.9c-0.7-0.2-1.3-0.4-2-0.7
		c1.4-0.6,2.8-1.2,4.2-1.7c2.1-0.8,4.2-1.6,6.3-2.3c4.3-1.4,8.7-2.4,13.2-2.5c2.2-0.1,4.5,0.2,6.7,0.5c2.2,0.3,4.4,0.5,6.6,0.9
		c1.1,0.2,2.2,0.5,3.2,0.8c1,0.3,2,0.7,2.8,1.4c1.5,1.2,2.5,3.1,3.1,5.1c-2.4-0.4-4.8-0.6-7.3-0.6c-1.2,0-2.5,0.1-3.8,0.4
		c-0.6,0.1-1.2,0.3-1.8,0.4l-1.8,0.5c-0.6,0.2-1.2,0.4-1.8,0.6c-0.3,0.1-0.6,0.2-0.9,0.3C71.2,24,69,23.6,66.7,23.2z M50.8,38.7
		c2-1.4,4-2.8,6.1-4.2c4.1-2.7,8.4-5.1,12.8-7.3c1.1-0.6,2.2-1,3.4-1.5c0.6-0.2,1.1-0.4,1.7-0.7c0.6-0.2,1.1-0.5,1.7-0.6l1.7-0.6
		c0.6-0.2,1.2-0.3,1.8-0.5c1.2-0.3,2.4-0.4,3.6-0.5c2.4-0.1,4.9,0.2,7.3,0.5c0.6,0.1,1.2,0.2,1.8,0.3c0.6,0.1,1.2,0.2,1.8,0.4
		c1.1,0.4,2,1.3,2.4,2.4c0.1,0.2,0.2,0.5,0.3,0.7c-2-0.6-4.1-1-6.2-1.3c-2.2-0.2-4.4-0.4-6.7-0.2c-1.1,0.1-2.2,0.3-3.3,0.6
		c-1.1,0.2-2.2,0.6-3.2,0.9c-2.1,0.7-4.2,1.5-6.3,2.2c-1.1,0.3-2.1,0.7-3.1,1.1c-1,0.4-2,0.8-3.1,1.2c-2,0.8-4.1,1.7-6,2.6
		c-3.4,1.6-6.7,3.4-9.9,5.4C49.9,39.3,50.4,39,50.8,38.7z M7,83.3c-1.1,0-2.1,0-3.2,0l-0.2,0c0,0,0,0,0,0c0,0,0,0,0-0.1c0,0,0,0,0,0
		c0,0,0-0.1,0.1-0.2c0-0.1,0.1-0.2,0.1-0.4c0.2-0.5,0.5-0.9,0.8-1.3c1.2-1.7,2.8-3.1,4.6-4.2l0.1-0.1l0-0.2c0.1-0.7,0.4-1.4,0.8-2
		c0.4-0.7,0.7-1.3,1.2-1.9c0.8-1.2,1.8-2.4,2.8-3.6c1-1.2,2-2.3,3.1-3.3c1.1-1.1,2.2-2.1,3.3-3.1l0,0l0,0c3-4.3,6.9-8.1,11-11.3
		c2.1-1.6,4.3-3.1,6.5-4.5c2.2-1.4,4.6-2.7,7-3.6l0.1-0.1l0.1-0.1c0.8-0.8,1.7-1.6,2.7-2.3c0,0,0,0,0,0c4.2-1.4,8.3-3,12.3-4.8
		c2-0.9,4-1.8,5.9-2.8c2-0.9,3.9-1.9,5.9-2.9c1.9-1,3.9-2,6-2.6c2.1-0.7,4.3-0.6,6.4-0.6c2.2,0.1,4.3,0.1,6.5,0.1
		c2.1,0,4.3,0.1,6.4,0.1c0.5,1.1,0.9,2.2,1.4,3.3c0.3,0.7,0.7,1.4,1,2.1c0.3,0.6,0.6,1.3,0.7,2c-0.7-0.3-1.5-0.6-2.3-0.8
		c-1-0.3-2.1-0.5-3.2-0.6c-1.1-0.1-2.2-0.2-3.2-0.1c-1.1,0-2.2,0.3-3.2,0.5c-2,0.5-4.1,1-6.1,1.6c-2,0.6-4,1.3-6,2
		c-1,0.4-2,0.8-2.9,1.2c-1,0.4-1.9,0.8-2.9,1.2l-5.8,2.5c-1.9,0.8-3.9,1.7-5.8,2.6c-0.9,0.5-1.9,0.9-2.8,1.4c-0.9,0.5-1.9,1-2.8,1.6
		c-1.8,1.1-3.5,2.3-5.3,3.5L43,55.1l-5.2,3.5l-5.2,3.6c-3.4,2.4-6.8,4.9-10.2,7.5c-1.7,1.3-3.3,2.6-4.9,4c-0.8,0.7-1.6,1.4-2.3,2.2
		c-0.8,0.7-1.5,1.5-2.1,2.4c0,0,0,0.1,0,0.1c0,0,0.1,0,0.1,0c1.5-1.5,3.1-2.8,4.8-4c1.7-1.3,3.4-2.4,5.1-3.6c3.5-2.3,7-4.7,10.5-7
		l5.2-3.5c1.7-1.2,3.5-2.4,5.2-3.6l5.1-3.6l5.1-3.7c1.7-1.2,3.4-2.3,5.2-3.4c1.8-1.1,3.6-2.1,5.5-3c0.9-0.5,1.9-0.9,2.9-1.3
		c1-0.4,1.9-0.8,2.9-1.1c2-0.7,4-1.3,6-1.8c4.1-1.1,8.1-2.2,12.1-3.4c1.9-0.6,3.9-0.9,6-0.9c1,0,2.1,0.1,3.1,0.2
		c0.8,0.1,1.7,0.3,2.5,0.5c0.2,1.4,0,2.8-0.6,4.1c-0.7,1.3-1.5,2.6-2.4,3.8c-1.1,0.5-2.2,1-3.1,1.7c-0.7,0.5-1.3,1-1.9,1.7
		c-3.1,0.4-6.2,1-9.2,1.8C80.1,49,77,49.9,74,51.1c-3,1.2-5.9,2.7-8.8,4.1c-1.4,0.7-2.9,1.5-4.3,2.3c-0.7,0.4-1.4,0.8-2.1,1.3
		l-2,1.4c-1.3,0.9-2.7,1.8-4,2.6c-1.3,0.9-2.7,1.7-4.1,2.6c-2.7,1.7-5.5,3.3-8.3,4.9c-1.4,0.8-2.8,1.6-4.2,2.4l-1,0.6l-1.1,0.6
		c-0.7,0.4-1.4,0.8-2.1,1.2c-2.8,1.6-5.5,3.3-8.2,5.2c0,0-0.1,0.1,0,0.1c0,0,0.1,0.1,0.1,0l8.7-4.1l2.2-1l1.1-0.5
		c0.4-0.2,0.8-0.3,1.1-0.5c1.5-0.7,2.9-1.4,4.4-2.2c2.9-1.5,5.6-3.2,8.3-5c1.3-0.9,2.7-1.8,4-2.8c1.3-1,2.5-2,3.8-3.1
		c1.2-1.1,2.4-2.1,3.7-3c1.3-0.9,2.7-1.6,4.2-2.3c2.9-1.4,6-2.2,9.1-3.2c3.1-1,6.1-2,9.1-3c2.8-0.9,5.6-1.8,8.4-2.8
		c-0.1,0.1-0.3,0.3-0.4,0.5c-1.6,1.9-2.6,4.2-3.2,6.6c-0.5,2.4-0.5,4.9-0.2,7.4c0.1,0.3,0.1,0.7,0.2,1c-0.6,1-1.3,2-2,2.9
		c-0.5,0.6-1,1.1-1.5,1.6c-0.5,0.5-1.1,0.9-1.7,1.1c-1.3,0.5-2.9,0.9-4.3,1.3c-1.5,0.4-3,0.8-4.4,1.3c-2.9,0.9-5.8,2.1-8.7,3.2
		c-2.9,1-5.8,2-8.7,3.1c-5.8,2-11.6,4.2-17.4,5.9c-1.4,0.4-2.9,0.8-4.3,1c-1.5,0.1-3.1,0.3-4.6,0.5l-4.6,0.5
		c-1.4,0.2-2.7,0.3-4.1,0.4c-0.8-0.1-1.6-0.3-2.5-0.4C15.6,83.7,11.3,83.4,7,83.3z M2.1,95.9c0.1-0.4,0.2-0.9,0.3-1.3
		c0.1-0.4,0.2-0.9,0.4-1.4c0.3-0.9,0.8-1.7,1.5-2.4c0.3-0.3,0.7-0.6,1.1-0.9c0.2-0.1,0.4-0.3,0.6-0.4c0.2-0.1,0.3-0.2,0.6-0.4
		c0.9-0.8,1.3-1.7,1.7-2.7c0.3-0.7,0.5-1.5,0.6-2.3c3.6,0.2,7.2,0.7,10.6,1.5c0.5,0.1,1,0.2,1.5,0.3c-0.9,0.1-1.8,0.3-2.6,0.6
		c-1.3,0.4-2.7,0.8-4,1.4c-1.3,0.6-2.5,1.3-3.7,2.2c-0.6,0.4-1.1,0.9-1.6,1.4c-0.5,0.5-0.9,1-1.3,1.6c-1,0.7-2.1,1.4-3.1,2.5
		c-0.2,0.3-0.5,0.6-0.7,1c-0.2,0.4-0.3,0.9-0.2,1.5c0.1,0.5,0.4,1,0.8,1.3c0.1,0.1,0.2,0.2,0.3,0.2c-0.6,0-1.1,0-1.5-0.2
		c-0.7-0.3-1-0.7-1.2-1.4c0-0.1-0.1-0.2-0.1-0.3c0-0.1,0-0.1-0.1-0.2C2,97.5,2,97.3,2,97.1C2,96.7,2,96.3,2.1,95.9z"/>
	<path class="st7" d="M92.2,70C92.2,70,92.2,70,92.2,70C92.2,69.9,92.2,69.9,92.2,70L92.2,70z"/>
</g>
</svg>
