<?xml version="1.0" encoding="utf-8"?>
<!-- Generator: Adobe Illustrator 18.1.0, SVG Export Plug-In . SVG Version: 6.00 Build 0)  -->
<svg version="1.1" baseProfile="tiny" id="Layer_1" xmlns="http://www.w3.org/2000/svg" xmlns:xlink="http://www.w3.org/1999/xlink"
	 x="0px" y="0px" viewBox="0 0 128 128" 
width="128" height="128"
xml:space="preserve">
<g>
	<path fill="#EFC24C" d="M62.2,22.8c-6.7,0.2-10.7,2-10.7,3c0,1.1,4.6,3,12,3c7.4,0,12-1.9,12-3c0-1-4.3-2.9-11.3-3l0,2.8
		c0,0.5-0.4,1-1,1c0,0,0,0,0,0c-0.5,0-1-0.4-1-1L62.2,22.8z"/>
	<path fill="#D84F45" d="M68.3,30.4v16.9H51.1V28.1c2.4,1.7,7.4,2.6,12.4,2.6C65.1,30.7,66.8,30.6,68.3,30.4z"/>
	<path fill="#D84F45" d="M95,30.8v16.5H77.8V28.8c2.6,1.5,7.3,2.3,12,2.3C91.6,31.1,93.3,31,95,30.8z"/>
	<path fill="#EFC24C" d="M77.8,26.1c0,1.1,4.6,3,12,3c7.4,0,12-1.9,12-3c0-1-4.1-2.8-11-3c0,0.5,0,1.1,0,1.6l0,0.8c0,0.5-0.4,1-1,1
		c-0.5,0-1-0.4-1-1l0-0.8c0-0.5,0-1.1,0-1.6C82,23.3,77.8,25.1,77.8,26.1z"/>
	<rect x="51.1" y="59.7" fill="#D84F45" width="17.2" height="34.3"/>
	<rect x="25.1" y="59.7" fill="#D84F45" width="16.1" height="34.3"/>
	<rect x="22.9" y="95.9" fill="#8A6F64" width="81.1" height="8.4"/>
	<rect x="22.9" y="49.3" fill="#8A6F64" width="81.1" height="8.4"/>
	<rect x="77.8" y="59.7" fill="#D84F45" width="17.1" height="34.3"/>
	<path fill="#D84F45" d="M41.2,30.9v16.4H25.1V28.8c2.6,1.5,7.3,2.3,12,2.3C38.5,31.1,39.9,31,41.2,30.9z"/>
	<path fill="#D84F45" d="M95,106.3V126H80.1c-1.2,0-2.1-0.8-2.2-1.9v-0.6c0,0,0-0.1,0-0.1v-16.8c0-0.1,0-0.2-0.1-0.3H95z"/>
	<path fill="#D84F45" d="M41.2,106.3V126H27.4c-1.2,0-2.3-1-2.3-2.2v-17.6H41.2z"/>
	<path fill="#EFC24C" d="M37.1,29.1c7.4,0,12-1.9,12-3c0-1-4.2-2.8-11.1-3c0,0.4,0,0.7,0,1.1c0,0.4,0,0.9,0,1.3c0,0.5-0.4,1-1,1
		s-1-0.4-1-1c0-0.4,0-0.8,0-1.3c0-0.4,0-0.8,0-1.1c-6.8,0.2-10.9,2-10.9,3C25.1,27.2,29.7,29.1,37.1,29.1z"/>
	<path fill="#D84F45" d="M68.3,106.3V126H53.7c-2.4,0-2.6-0.4-2.6-0.9v-1c0-0.1,0-0.2,0-0.3v-17.1c0-0.2,0-0.3-0.1-0.4H68.3z"/>
	<path fill="#2D2D2D" d="M106,58.7V48.3c0-0.5-0.4-1-1-1h-1.2c0-0.1,0-0.1,0-0.2v-21c0-3.1-6.5-4.8-13.1-4.9c-0.3-1.8-1-3.6-2.8-5.3
		c-2.1-2-4.8-2-7.6-2c-2.6,0-5.3,0-8-1.4C66.9,9.8,64.3,5.9,64.3,1c0-0.5-0.4-1-1-1s-1,0.4-1,1c0,4.5-3.1,9.1-7.8,11.5
		c-2.7,1.4-5.4,1.4-8,1.4c-2.9,0-5.6,0-7.6,2c-1.8,1.7-2.5,3.5-2.7,5.3c-6.6,0.1-13,1.8-13,4.9v21.2h-1.2c-0.5,0-1,0.4-1,1v10.4
		c0,0.5,0.4,1,1,1h1.2v34.3h-1.2c-0.5,0-1,0.4-1,1v10.4c0,0.5,0.4,1,1,1h1.2v17.6c0,2.3,1.9,4.1,4.2,4.1h19.5c1.1,0,2.1-0.4,2.8-1.1
		c1,1.1,3,1.1,4,1.1h19.6c1,0,3,0,4-1.1c0.8,0.7,1.7,1.1,2.8,1.1h19.5c2.3,0,4.2-1.9,4.2-4.1v-17.6h1.2c0.5,0,1-0.4,1-1V94.9
		c0-0.5-0.4-1-1-1h-1.2V59.7c0,0,0-0.1,0-0.1h1.2C105.5,59.7,106,59.2,106,58.7z M101.9,47.3h-24V28.8c2.6,1.5,7.3,2.3,12,2.3
		s9.4-0.8,12-2.3v18.3C101.8,47.2,101.8,47.2,101.9,47.3z M88.9,24.8l0,0.8c0,0.5,0.4,1,1,1c0.5,0,1-0.4,1-1l0-0.8
		c0-0.5,0-1.1,0-1.6c6.8,0.2,11,2,11,3c0,1.1-4.6,3-12,3c-7.4,0-12-1.9-12-3c0-1,4.2-2.8,11-3C88.9,23.7,88.9,24.2,88.9,24.8z
		 M64.2,8c1.5,2.5,3.9,4.6,7,6.2c3.1,1.6,6.2,1.6,8.9,1.6c2.7,0,4.8,0,6.3,1.4c1.3,1.2,1.9,2.5,2.2,3.9c-5,0.1-9.9,1.2-11.8,3
		c-1.7-2.2-7.1-3.3-12.7-3.4L64.2,8z M63.2,26.5C63.2,26.5,63.2,26.5,63.2,26.5c0.5,0,1-0.4,1-1l0-2.8c7,0.1,11.3,2,11.3,3
		c0,1.1-4.6,3-12,3c-7.4,0-12-1.9-12-3c0-1,4-2.8,10.7-3l0,2.8C62.2,26.1,62.6,26.5,63.2,26.5z M75.9,28.1v19.2H51.1V28.1
		c2.4,1.7,7.4,2.6,12.4,2.6C68.4,30.7,73.4,29.8,75.9,28.1z M40.2,17.3c1.5-1.4,3.6-1.4,6.3-1.4c2.7,0,5.8,0,8.9-1.6
		c3-1.5,5.3-3.8,6.9-6.4l-0.1,12.9c-5.3,0.2-10.4,1.3-12.1,3.4c-2-1.9-6.9-2.9-12-3C38.3,19.8,38.9,18.6,40.2,17.3z M36,23.2
		c0,0.4,0,0.8,0,1.1c0,0.4,0,0.8,0,1.3c0,0.5,0.4,1,1,1s1-0.4,1-1c0-0.4,0-0.9,0-1.3c0-0.4,0-0.7,0-1.1c6.9,0.2,11.1,2,11.1,3
		c0,1.1-4.6,3-12,3c-7.4,0-12-1.9-12-3C25.1,25.1,29.2,23.3,36,23.2z M25.1,28.8c2.6,1.5,7.3,2.3,12,2.3c4.7,0,9.4-0.8,12-2.3v18.5
		h-24V28.8z M49.1,106.7v16.7c0,0,0,0.1,0,0.1v0.6c-0.1,1.1-1.1,1.9-2.2,1.9H27.4c-1.2,0-2.3-1-2.3-2.2v-17.6h24.1
		C49.1,106.4,49.1,106.6,49.1,106.7z M75.9,124.1v1c0,0.5-0.2,0.8-2.6,0.8H53.7c-2.4,0-2.6-0.4-2.6-0.8v-1c0-0.1,0-0.2,0-0.3v-17.1
		c0-0.2,0-0.3-0.1-0.4h25c0,0.1-0.1,0.2-0.1,0.3v17.3C75.9,124,75.9,124,75.9,124.1z M101.8,123.9c0,1.2-1,2.2-2.3,2.2H80.1
		c-1.2,0-2.1-0.8-2.2-1.9v-0.6c0,0,0-0.1,0-0.1v-16.8c0-0.1,0-0.2-0.1-0.3h24V123.9z M104,95.9v8.4H22.9v-8.4H104z M25.1,93.9V59.7
		h24v34.3H25.1z M51.1,93.9V59.7h24.8v34.3H51.1z M77.8,93.9V59.7h24c0,0,0,0.1,0,0.1v34.2H77.8z M104,57.7H22.9v-8.4H104V57.7z"/>
	<path fill="#CE3F3C" d="M49.2,106.3c-0.1,0.1-0.1,0.3-0.1,0.4v16.7c0,0,0,0.1,0,0.1v0.6c-0.1,1.1-1.1,1.9-2.2,1.9h-5.6v-19.8H49.2z
		"/>
	<rect x="41.2" y="59.7" fill="#CE3F3C" width="7.8" height="34.3"/>
	<path fill="#CE3F3C" d="M49.1,28.8v18.5h-7.8V30.9C44.4,30.6,47.3,29.9,49.1,28.8z"/>
	<path fill="#CE3F3C" d="M75.9,28.1v19.2h-7.6V30.4C71.5,30,74.2,29.3,75.9,28.1z"/>
	<rect x="68.3" y="59.7" fill="#CE3F3C" width="7.6" height="34.3"/>
	<path fill="#CE3F3C" d="M75.9,123.9c0,0.1,0,0.2,0,0.3v1c0,0.5-0.2,0.9-2.6,0.9h-5v-19.8h7.6c0,0.1-0.1,0.2-0.1,0.3V123.9z"/>
	<path fill="#CE3F3C" d="M101.8,106.3v17.6c0,1.2-1,2.2-2.3,2.2H95v-19.8H101.8z"/>
	<path fill="#CE3F3C" d="M101.8,59.7C101.8,59.7,101.8,59.7,101.8,59.7l0,34.3H95V59.7H101.8z"/>
	<path fill="#CE3F3C" d="M101.9,47.3H95V30.8c2.8-0.4,5.3-1,6.9-2v18.3C101.8,47.2,101.8,47.3,101.9,47.3z"/>
</g>
</svg>
