<?xml version="1.0" encoding="utf-8"?>
<!-- Generator: Adobe Illustrator 23.0.0, SVG Export Plug-In . SVG Version: 6.00 Build 0)  -->
<svg version="1.1" id="Layer_1" xmlns="http://www.w3.org/2000/svg" xmlns:xlink="http://www.w3.org/1999/xlink" x="0px" y="0px"
	 viewBox="0 0 128 128" 
width="128" height="128"
style="enable-background:new 0 0 128 128;" xml:space="preserve">
<style type="text/css">
	.st0{fill:#A15E42;}
	.st1{fill:#E5AF6E;}
	.st2{fill:#965438;}
	.st3{fill:#E3C4A3;}
	.st4{fill:#F2DEC4;}
	.st5{fill:#735D51;}
	.st6{fill:#91563D;}
	.st7{fill:#E5B77A;}
	.st8{fill:#2D2D2D;}
</style>
<g>
	<path class="st0" d="M40.6,58.6c0.2,0.1,0.4,0.3,0.6,0.4c0.2,0.1,0.3,0.2,0.4,0.2c0.3,0,0.6,0,1,0c0.5,0,0.9-0.1,1.3-0.3
		c0.8-0.4,1.5-1.1,2.3-1.4c0.8-0.4,1.6-0.8,2.5-1c0.8-0.2,1.7-0.3,2.6-0.2l0.5-0.4c0.3-0.3,0.6-0.6,0.7-1c0.2-0.4,0.3-0.8,0.5-1.2
		c0.1-0.4,0.4-0.8,0.6-1.1l0.3-0.5c0.1-0.1,0.1-0.2,0.1-0.2c0-0.1,0.1-0.2,0.1-0.2l0.1-0.2c0.3-0.4,0.6-0.7,0.9-0.9
		c0.4-0.3,0.7-0.6,1.1-0.9c-0.2,0-0.4-0.1-0.6-0.2c-0.5-0.2-1-0.4-1.5-0.8c0,0-0.1,0.1-0.1,0.1l-0.1,0.1L53.7,49
		c-0.6,0.2-1.3,0.5-2,0.7c-0.7,0.3-1.3,0.6-2,0.9c-1.3,0.6-2.6,1.3-3.9,2c-1.3,0.7-2.5,1.5-3.6,2.4c-1.1,0.8-2.1,1.7-2.9,2.8l0,0
		C39.8,58,40.2,58.3,40.6,58.6z"/>
	<path class="st0" d="M48.4,67.7c0.2-0.6,0.4-1.1,0.6-1.6c0.4-1.1,0.9-2.1,1.4-3.1c0.5-1,1.1-2,1.8-2.9c0.2-0.2,0.3-0.4,0.5-0.6
		c-0.2-0.1-0.4-0.2-0.6-0.4c-0.2-0.2-0.5-0.4-0.7-0.6c-0.2-0.2-0.4-0.4-0.6-0.9l-0.1-0.2c-0.4,0.4-0.9,0.7-1.4,0.9
		c-0.8,0.5-1.6,0.7-2.5,0.9c-0.9,0.3-1.9,0.1-2.7,0.3c-0.4,0.1-0.8,0.3-1.2,0.6c-0.3,0.2-0.6,0.4-0.9,0.6c-0.3,0.1-0.5,0.4-0.6,0.7
		c-0.2,0.4-0.5,1-0.6,1.4c-0.2,0.9-0.4,1.7-0.6,2.6c-0.2,0.8-0.6,1.7-0.9,2.5c-0.3,0.7-0.5,1.5-0.8,2.2c0.2,0.2,0.4,0.3,0.6,0.5
		c0.3,0.3,0.7,0.5,1.1,0.7c0.7,0.4,1.6,0.6,2.4,0.7l0.1,0c0.4,0.1,0.9,0.1,1.4,0.2l1.5,0.3c0.5,0.1,1,0.2,1.5,0.3
		c0.5,0.1,0.9,0.3,1.4,0.5c0,0,0,0,0,0c0-1.2-0.1-2.5-0.2-3.7l0-0.4c0-0.2,0-0.3,0-0.5C48.2,68.3,48.3,68,48.4,67.7z"/>
	<path class="st1" d="M43.8,53.5c-0.3,0.6,0.2,6.1,0.6,8.6c0.5,2.4,1.2-0.9,1.2-2.7c0-1.8,0.7-3.8,0.7-3.8l0.8,4.1l0.4-5.6
		c0,0-2.7-1-3-1.3c-0.3-0.3,0.1,3,0.1,3L43.8,53.5z"/>
	<path class="st2" d="M67.7,87.1c0.9-0.9,1.9-1.9,2.7-2.8c0.9-1.6,1.7-3.1,2.5-4.7c-0.4-0.2-0.7-0.5-1.1-0.8c-0.5-0.4-1-0.9-1.5-1.4
		c-0.9-1-1.7-2-2.5-3c-0.8-1.1-1.5-2.2-2.1-3.3c-0.3-0.6-0.6-1.2-0.9-1.8c-0.3-0.6-0.6-1.2-0.8-1.9L64,67l0.3-0.2
		c0,0,0.1-0.1,0.1-0.2c0-0.1,0-0.3-0.1-0.5c-0.1-0.4-0.4-0.8-0.6-1.3c-0.3-0.4-0.5-0.8-0.8-1.3c-0.3-0.4-0.6-0.8-0.8-1.3l0-0.1
		l0-0.1c0-0.4,0.1-0.8,0.2-1.1c0-0.1-4.3-0.2-6.5-0.3c-0.6,0-1.1,0-1.7-0.1l-0.1,0c-0.1,0.2-0.3,0.4-0.4,0.5
		c-0.6,0.9-1.3,1.8-1.9,2.7c-0.7,0.9-1.3,1.8-1.9,2.7c-0.3,0.5-0.6,1-0.8,1.4c-0.1,0.2-0.2,0.5-0.3,0.7c0,0.1,0,0.2,0,0.3
		c0,0.1,0,0.3,0,0.4c0.1,1.1,0.3,2.2,0.5,3.3c0.1,0.6,0.2,1.1,0.3,1.7c0,0.3,0.1,0.6,0.1,0.9c0,0.2,0,0.3,0,0.5c0,0,0,0.1,0,0.1
		c0.5,0.5,0.8,1.1,1.1,1.7c0.3,0.7,0.6,1.4,0.8,2c0.2,0.7,0.5,1.4,0.6,2.1c0.1,0.4,0.2,0.7,0.3,1.1c0,0.2,0.1,0.5,0.1,0.7
		c0.7,0.6,1.4,1.2,2.1,1.9c0.8,0.8,1.5,1.5,2.2,2.3c0.7,0.8,1.4,1.7,2,2.6c0.5,0.8,1,1.8,1.2,2.8c0.5-0.3,1.1-0.6,1.6-0.9l0.8-0.5
		c0.3-0.2,0.5-0.4,0.8-0.6c0.5-0.4,1-0.9,1.5-1.3C65.8,88.9,66.8,88,67.7,87.1z"/>
	<path class="st1" d="M59.8,60.9c-0.2,0.4,0.1,4.1,0.5,5.7s0.9-0.6,0.9-1.8c0-1.2,0.5-2.6,0.5-2.6l0.6,2.7l0.3-4.2
		c0,0-2-0.2-2.2-0.4c-0.2-0.2,0.1,2,0.1,2L59.8,60.9z"/>
	<path class="st1" d="M9.5,89.1c0.2,0.5,0.5,1,0.8,1.5c0.3,0.5,0.5,1,0.8,1.4c0.1,0.2,0.3,0.5,0.4,0.7c0.1,0.2,0.2,0.4,0.3,0.5
		c1.3,0.4,2.5,0.8,3.8,1.2l0,0c0-0.5,0.1-1,0.2-1.5c0.2-0.7,0.4-1.3,0.6-1.9c0.3-0.6,0.6-1.2,0.9-1.8c0.3-0.5,0.9-1.6,0.8-1.6
		c-0.2-0.1-0.4-0.1-0.7-0.2c-0.2-0.1-0.5-0.1-0.7-0.3l0,0L16.8,87c-0.3-0.5-0.5-1-0.5-1.5c0-0.4,0-0.7,0.1-1
		c-0.2,0.2-0.4,0.3-0.6,0.4c-0.6,0.3-1.1,0.5-1.7,0.6c-0.6,0.1-1.2,0.2-1.8,0.2c-0.4,0-0.7-0.1-1.1-0.2c-0.7,0.7-1.3,1.5-2,2.2
		c-0.2,0.2,0,0.5,0.1,0.7C9.2,88.6,9.4,88.9,9.5,89.1z"/>
	<path class="st1" d="M26.6,88.8c-0.7,0.3-1.5,0.4-2.2,0.4c-0.9,0-1.7,0-2.5-0.3c-0.8-0.3-1.6-0.7-2.4-1c-0.2-0.1-0.5-0.1-0.7-0.2
		c0.2,0.7,0.2,1.4,0.1,2c-0.1,0.7-0.3,1.4-0.6,2c-0.3,0.6-0.6,1.2-1,1.8c-0.3,0.4-0.6,0.7-0.9,1l3.2,1c2.1,0.6,4.2,1.2,6.3,1.8
		c0-0.2-0.1-0.3-0.1-0.5c-0.1-0.4-0.1-0.7-0.2-1.1c-0.1-0.7-0.1-1.5,0-2.2c0.1-0.7,0.2-1.4,0.4-2.1c0.2-0.7,0.4-1.4,0.7-2.1
		C26.5,89.2,26.6,89,26.6,88.8z"/>
	<path class="st2" d="M40.3,96c-0.9-1.3-1.8-2.6-2.5-4c-0.7-1.4-1.4-2.8-2.1-4.2l-0.9-2.2c-0.2-0.4-0.3-0.7-0.5-1.1
		c-0.2-0.3-0.4-0.7-0.6-1l-0.2-0.3c0,0-1-0.2-1.7-0.4c-0.7-0.2-1.4-0.4-2-0.7c-0.5-0.2-0.9-0.6-1.4-1c0.1,0.6,0.2,1.2,0.2,1.7
		c0,0.7-0.1,1.4-0.3,2.1c-0.2,0.7-0.6,1.4-0.8,2.1c-0.2,0.7-0.2,1.4-0.1,2.2c0.1,0.7,0.1,1.5,0.1,2.2c0,0.7,0,1.4-0.2,2.1
		c-0.2,1.3-0.6,2.5-1,3.7c0.3,0.1,0.6,0.2,0.9,0.2c1.3,0.3,2.6,0.6,3.9,0.8c1.3,0.2,2.5,0.4,3.9,0.4c2.5,0,5,0.1,7.5,0
		c-0.3-0.3-0.6-0.7-0.9-1C41.2,97.3,40.7,96.7,40.3,96z"/>
	<path class="st2" d="M59.8,93.2c-0.4-0.9-1.1-1.6-1.7-2.3c-0.7-0.7-1.5-1.5-2.3-2.1c-0.8-0.7-1.6-1.4-2.4-2c-0.8-0.7-1.6-1.3-2.4-2
		l-0.3-0.3l0-0.4c0-0.3-0.1-0.6-0.2-0.9l-0.2-1c-0.1-0.7-0.3-1.3-0.5-2c-0.2-0.7-0.4-1.3-0.6-1.9c-0.2-0.6-0.5-1.2-0.8-1.7l-0.1-0.8
		c0,0,0,0,0,0l0,0c0,0,0-0.1,0-0.1c0-0.1,0-0.2,0-0.4c0-0.3,0-0.5,0-0.8c0-0.3,0-0.7,0-1c-1,0.3-2.1,0.5-3.1,0.5
		c-0.5,0-1.1,0-1.6-0.1c-0.5-0.1-1.1-0.3-1.6-0.7l0.1,0c-0.2-0.1-0.3-0.2-0.5-0.4c-0.4,0.7-0.8,1.4-1.2,2c-0.5,0.8-1,1.6-1.6,2.3
		c-0.6,0.8-1.1,1.5-1.8,2.2c-0.6,0.7-1.3,1.3-2,1.9c-0.1,0.4-0.2,0.7-0.3,1.1c-0.1,0.2-0.1,0.4-0.2,0.6c-0.1,0.1-0.1,0.3-0.2,0.4
		c0.2,0.3,0.4,0.5,0.6,0.8c0.2,0.3,0.5,0.6,0.7,1c0.5,0.6,1,1.3,1.4,1.9c0.9,1.3,1.7,2.6,2.5,4c0.8,1.3,1.5,2.7,2.2,4.2
		c0.6,1.2,1.1,2.5,1.6,3.7c0.6,0,1.2-0.1,1.7-0.2c0.6-0.1,1.3-0.3,1.9-0.5c1.3-0.4,2.6-0.8,3.8-1.2c2.5-0.9,5-1.8,7.4-3
		C58.7,93.8,59.3,93.5,59.8,93.2z"/>
	<path class="st3" d="M33.8,107.5c-0.1,0-0.2,0-0.5,0c-0.1,0-0.5-0.1-0.5-0.2c-0.1-0.1-0.2-0.2-0.2-0.2c-0.1-0.1-0.2-0.3-0.2-0.4
		c-0.2-0.4-0.3-0.8-0.3-1.2c0-0.1,0-0.2,0-0.3c-0.1,0.1-0.3,0.2-0.4,0.3c-0.1,0.1-0.3,0.2-0.4,0.2c-0.5,0.3-1.1,0.4-1.7,0.5
		c-0.6,0.1-1.1,0.2-1.6,0.5c-0.5,0.2-1,0.5-1.4,0.9c-0.5,0.3-1,0.6-1.7,0.6l-0.5,0l-0.2-0.5c-0.3-0.7-0.5-1.4-0.6-2.1
		c0-0.2,0-0.4,0-0.6c-0.2,0.1-0.3,0.1-0.5,0.2c-0.8,0.3-1.7,0.3-2.5,0.3c-0.3,0-0.6,0-0.9,0.1l0,0c-0.1,0.2-0.3,0.5-0.4,0.8
		c-0.1,0.3-0.3,0.5-0.5,0.8c-0.4,0.5-0.8,1-1.2,1.4c-0.5,0.4-0.9,0.7-1.3,1.1c-0.4,0.4-0.7,0.9-1,1.3c-1.2,1.9-2.4,4-2.9,6
		c-0.1,0.3-0.1,0.5-0.1,0.8c0,0.3,0,0.6,0,0.8c0,0.6,0,1.2,0,1.7c0.1,1.2,0.3,2.3,0.6,3.4c0.2,0.5,0.3,1.1,0.6,1.6
		c0.3,0.5,0.6,0.9,1.1,1.2c0.5,0.3,1,0.5,1.5,0.5c0.5,0,1.1-0.1,1.6-0.2c1.1-0.2,2.1-0.7,3.1-1.2c1-0.5,1.9-1.1,2.8-1.8
		c0.2-0.2,0.4-0.4,0.6-0.5c0.2-0.2,0.3-0.3,0.4-0.5c0.3-0.4,0.6-1,0.8-1.5l1.6-3.1c0.6-1,1.1-2.1,1.8-3.1c0.3-0.5,0.7-1,1.2-1.5
		c0.3-0.3,0.4-0.4,0.6-0.6c0.2-0.2,0.4-0.4,0.6-0.6c0.8-0.9,1.5-1.8,2.2-2.7c0.7-0.9,1.4-1.8,1.9-2.9c-0.3,0.2-0.7,0.4-1.1,0.6
		C34,107.4,33.9,107.4,33.8,107.5z"/>
	<path class="st4" d="M18.9,105.4c0.5,0.2,4.9,4.1,6.3,9.8c0.6,3.7-1.5,8.5-2.6,10.2c3-0.8,4.9-6.6,6.2-9s3.3-4.8,4.1-5.5
		c0.8-0.8,2.3-3.4,2.7-4.7c-1.7,0.5-2,0.3-2.2,0.3s-1.1-3-1.3-2.9s-2.2,2.3-3.2,2.7c-1.1,0.4-2.6,1.7-3.2,1.6
		c-0.6-0.1-1.8-3.2-1.9-3.8c-0.1-0.5-3.3,1.1-3.4,1S18.9,105.4,18.9,105.4z"/>
	<g>
		<path class="st5" d="M22.5,125.4c-1.5-1.2-3.3-2.9-1.8-3.8c1.5-0.8,1.7-2.4,2.7-0.4c1.1,2,1.6,2.2,1.8,2.5
			C25.4,124.1,22.5,125.4,22.5,125.4z"/>
		<path class="st5" d="M25.3,121.4c-0.4-1-1.2-1.1-1.5-2.3s-0.9-2.2,0.4-2.2s0.8-0.6,2.2,0.8s2.6,0.7,1.6,1.9
			C27,120.8,25.3,121.4,25.3,121.4z"/>
		<path class="st5" d="M26.7,113.5c-0.9,1.2-2,1.3-0.4,2.6c1.6,1.2,2.1,2.2,2.5,0.8c0.4-1.4,3-0.9,1.4-2.8c-1.7-1.9-1.5-2.5-2.4-2
			S26.7,113.5,26.7,113.5z"/>
		<path class="st5" d="M30.8,107.5c-1.3,1.5-3.1,0.8-1.7,2.1c1.5,1.3,1.2,0.4,1.7,1.8c0.6,1.3,0.7,2.2,1.2,1
			c0.5-1.2,1.7-2.5,1.8-3.1c0.1-0.6,1.5-0.7,0.1-0.9S30.8,107.5,30.8,107.5z"/>
		<path class="st5" d="M16.9,123.7c-0.4,1.3,0.9,1.4-0.1,2.5s-1.7,1.5-0.4,1.3s4.3-0.4,3.8-1.2c-0.5-0.9-0.9-1.2-1.9-2
			C17.3,123.6,16.9,123.7,16.9,123.7z"/>
		<path class="st5" d="M12.3,120.7c1.4,1.2,4.7-0.1,3,1.5c-1.7,1.6-1.4,1.4-1.2,2.6s-0.2,2.3-0.9,1.3s-1.5-3.7-1.5-4.2
			S12.3,120.7,12.3,120.7z"/>
		<path class="st5" d="M17.6,119.2c-0.5,1.2-2,2-0.8,2.4c1.3,0.3,1.1,1.1,1.9-0.3c0.8-1.4,1.6-1.3,2-1.9s0.8-1.9-1.3-1.9
			C17.3,117.3,17.6,119.2,17.6,119.2z"/>
		<path class="st5" d="M21.1,114.9c-0.2,1.2-0.8,2,0.6,1c1.4-1,2.3-0.2,2-1.6c-0.3-1.4,0.3-2.3-0.5-2.1s-1.7,2.5-1.7,2.5L21.1,114.9
			z"/>
		<path class="st5" d="M15.6,114.7c-1.7,2.3-3.8,4-1.7,3.6s2.2-0.4,3-2.1s2-1.5,1.7-2.6c-0.2-1,0.1-1.3-1.4-1S15.6,114.7,15.6,114.7
			z"/>
		<path class="st5" d="M25.4,109.4c-0.4,1.5-1.2,3.9-0.2,2.4c1-1.5,2.4-0.8,1.8-2.3C26.5,108.1,25.4,109.4,25.4,109.4z"/>
		<path class="st5" d="M18.4,109.5c-0.8,0.6-2.3,1.4-1.1,1.6s1.3-0.7,2,0.5s1.1,1.6,1.6,0.9c0.5-0.7,0.9-1.2,0-2s-0.2-1.3-1-1.5
			C19,108.9,18.4,109.5,18.4,109.5z"/>
		<path class="st5" d="M20.5,107c0.8,1.2,1.8,2.8,2.2,2.1c0.3-0.7,0.6-1.1,0.2-1.8c-0.4-0.7,0.4-1.4-0.8-1.1S20.5,107,20.5,107z"/>
	</g>
	<path class="st3" d="M124.7,38.9c-0.6-0.8-1.3-1.5-1.9-2.3c-0.4-0.4-0.6-0.7-1-1c-0.3-0.3-0.7-0.5-1.1-0.7
		c-0.8-0.4-1.7-0.7-2.6-0.9c-1.9-0.4-3.9-0.4-5.9-0.4c-1,0-2,0.1-3,0.2c-1,0.2-2,0.4-2.9,0.7c-1,0.3-1.9,0.7-2.8,1.2
		c-0.5,0.2-0.9,0.5-1.3,0.8c-0.4,0.3-0.8,0.6-1.2,0.9c-1.5,1.4-3,2.8-4.6,4.1c-0.8,0.6-1.6,1.3-2.6,1.8c-0.2,0.1-0.5,0.3-0.8,0.4
		c-0.3,0.1-0.6,0.2-0.8,0.3c-0.6,0.1-1.1,0.2-1.6,0.2c-1.1,0.1-2.1,0-3.2-0.1c-0.3,0-0.6-0.1-0.9-0.1c0,0,0,0,0,0
		c0.5,0.6,0.8,1.2,1,1.8c0.2,0.6,0.3,1.3,0.3,1.9c0,0.6-0.1,1.3-0.1,1.9c0,0.6,0,1.2,0.2,1.8c0.2,0.6,0.4,1.2,0.4,1.9
		c0,0.6-0.2,1.3-0.4,1.9c-0.1,0.3-0.3,0.6-0.5,0.9c-0.2,0.2-0.3,0.3-0.5,0.5c0.2,0.2,0.3,0.5,0.5,0.7c0.1,0.4,0.2,0.8,0.1,1.2
		c0,0.2-0.1,0.4-0.1,0.5L87,59.5c-0.1,0.3-0.1,0.6-0.2,0.9c-0.1,0.6-0.1,1.3-0.1,1.9c0,0.6-0.2,1.3-0.3,1.9
		c-0.2,1.3-0.7,2.4-1.3,3.6L85,68.1l0,0c-0.3,0.2-0.5,0.3-0.7,0.3c-0.2,0.1-0.3,0.1-0.5,0.1c0.5,0.5,0.7,1.1,0.8,1.6
		c0.1,0.3,0.1,0.7,0.2,1c0,0.4,0,0.6,0.1,1c0.1,0.6,0.1,1.3,0,1.9c-0.1,0.6-0.2,1.3-0.4,1.9c-0.2,0.6-0.6,1.2-1,1.7
		c-0.3,0.4-0.8,0.8-1.3,1c0,0,0.1,0.1,0.1,0.1l0,0l0.1,0.1l0.1,0.1l0,0c0,0.1,0.1,0.1,0.1,0.2c0.1,0.1,0.1,0.3,0.1,0.5l0,0.1l0,0.1
		c0,0.1,0,0.1,0,0.1c0,0.2-0.1,0.3-0.1,0.4c-0.1,0.3-0.2,0.5-0.3,0.8c-0.2,0.5-0.4,1-0.7,1.5c-0.5,0.9-1.1,1.8-1.6,2.6
		c1.6-0.1,3.3-0.3,4.9-0.7c1.7-0.4,3.4-1,4.9-2.1c1.5-1.1,2.9-2.2,4.2-3.5c1.3-1.3,2.5-2.8,2.7-4.7c-0.1,1.2-0.5,2.4-1.2,3.4
		c0.7,1.7,1,3.6,0.9,5.4c0,1.9-0.3,3.7-0.8,5.5l-0.3,1.3c-0.1,0.5-0.3,1-0.5,1.4c-0.2,0.5-0.5,0.9-0.8,1.3c-0.3,0.4-0.5,0.7-0.7,1.1
		c-1,1.5-1.9,3.1-2.8,4.6c-0.5,0.8-1,1.6-1.6,2.4c-0.6,0.7-1,1.4-1.4,2.1c-0.2,0.4-0.4,0.7-0.5,1.1c0,0.1-0.1,0.2-0.1,0.2
		c0,0,0,0,0,0c0,0,0,0.1,0,0.1c0,0,0.1,0.1,0.1,0.1c0,0,0,0,0.1,0c0,0,0,0,0,0c0,0,0,0,0.1,0c0.4-0.1,0.8-0.1,1.2-0.3
		c1.7-0.4,3.3-1.1,4.9-1.9c1.6-0.8,3.1-1.7,4.6-2.7c3-2,6-4,8.4-6.7c2.4-2.7,4.4-5.8,5.5-9.2c0.3-0.9,0.5-1.7,0.7-2.6
		c0.2-0.9,0.3-1.8,0.5-2.6l0.2-1.3c0-0.1,0-0.2,0.1-0.3l0-0.3l0-0.6c0-0.2-0.1-0.4-0.1-0.6c0-0.2,0-0.4-0.1-0.6
		c-0.1-0.4-0.2-0.8-0.3-1.2c-0.5-1.6-1.5-3-2.6-4.3c-0.6-0.7-1.2-1.3-1.9-1.8c-0.6-0.6-1.3-1.1-2-1.6c-0.8-0.3-1.7-0.4-2.6-0.3
		c-0.9,0-1.9,0.2-2.9,0.5c-1,0.3-1.9,0.6-2.8,0.9c-0.9,0.4-1.9,0.8-2.8,1.2c0,0-0.1,0-0.1,0c0,0,0-0.1,0-0.1c0.1,0,0.1-0.1,0.2-0.1
		c0,0,0-0.1,0-0.1c0.4-0.6,0.6-1.1,0.7-1.8c0.1-0.6,0.1-1.2,0-1.8c-0.1-0.6-0.2-1.3-0.3-2c-0.1-0.7,0-1.6,0.4-2.4l0-0.1l0.1-0.1
		c1.5-1.4,2.8-3.1,4.1-4.8l2-2.6c0.2-0.2,0.3-0.4,0.6-0.7c0.4-0.4,0.7-0.5,1-0.6c0.6-0.2,1.1-0.4,1.6-0.6c2.1-0.6,4.2-1.2,6.3-1.9
		c2-0.7,4-1.5,5.7-2.8l0.1-0.1l0.1,0c0.6-0.1,1.2-0.2,1.8-0.5c0.6-0.2,1.2-0.5,1.7-0.8c0.5-0.3,1-0.7,1.5-1.2
		c0.4-0.5,0.8-0.9,1.2-1.5c-0.5,0-0.9,0-1.4,0.1c-0.3,0.1-0.7,0.1-1,0.2c-0.2,0.1-0.3,0.1-0.4,0.2c-0.2,0.1-0.3,0.2-0.5,0.3
		c-0.6,0.4-1.2,0.9-1.7,1.4l0,0c0,0-0.1,0-0.1,0c0,0,0-0.1,0-0.1c0.4-0.7,0.9-1.3,1.4-1.8c0.1-0.1,0.3-0.3,0.4-0.4
		c0.2-0.1,0.3-0.3,0.5-0.4c0.4-0.2,0.7-0.4,1.1-0.5c0.7-0.2,1.5-0.4,2.3-0.5c0.3,0,0.6,0,0.9-0.1c0,0,0,0,0-0.1
		C125.3,39.7,125,39.3,124.7,38.9z M113.5,40.1c-1.2,0.2-3.1-0.8-3.2-1.4c-0.1-0.6,1.4-2.1,2.6-2.3c1.2-0.2,2.3,0.5,2.5,1.5
		C115.6,38.9,114.8,39.9,113.5,40.1z M121.7,38.7c-0.1,0.6-0.7,0.4-1.2,0.3c-0.5-0.1-2.2,0.4-2.1-0.2c0.1-0.6,1.9-1.5,2.5-1.4
		C121.5,37.6,121.8,38.1,121.7,38.7z"/>
	<path class="st1" d="M118.2,45.6c-5.8,1.6-6,2-17.4,2.9c-3.4,2.3-3.1,1-5.6,4.4c-2.5,3.4-5.8,7.7-10.4,8.8
		c-4.6,1.1-3.4,9.2-3.4,9.2s-5.4,16-1.5,15.4c11.6-1.8,16.2-8,17-12.6c0.6-3.4-1.5-5.8-1.5-5.8s1.9-2.9,0.9-4.9c-1.1-2,0-0.6,0.5-2
		c0.5-1.4,4.9-4.8,5.5-6.1c0.5-1.3,2.3-3.4,2.3-3.4l10.8-3.8L118.2,45.6z"/>
	<path class="st1" d="M95,72.2c-0.2-0.3,3.2,1.2,3.9,3.7c0.8,2.5,2.9,10.5-2.1,18c-2.2,3.2-8.2,6.7-8.3,6.4c-0.1-0.4,4.6-7.3,5-8.3
		s2.6-6.5,2.5-7.9c-0.1-1.4,0.2-3.5-0.2-4.2c-0.4-0.8-0.7-1.5-0.7-1.5L95,72.2z"/>
	<g>
		<path class="st5" d="M108.2,89.9c-0.3-0.6-0.4-1.6-0.7-2.4c-0.3-0.8-1.3-1.6,0-1.4c1.3,0.2,2-0.2,2.3,0.4c0.3,0.6,0.9,0.8,0,1.9
			c-0.9,1.2-1.2,1.6-1.3,1.6S108.2,89.9,108.2,89.9z"/>
		<path class="st5" d="M110.9,85.5c-1.7-0.2-2,0.6-2.7-0.4c-0.7-1-1.4-1.3-0.8-1.8c0.6-0.6-0.2-1,1.4-0.9c1.6,0.1,3.4-0.5,3.3,0.1
			C112,83,110.9,85.5,110.9,85.5z"/>
		<path class="st5" d="M108.3,81.2c-0.6-0.9-1.1-1.3-0.7-2c0.4-0.7-0.2-1.5,0.9-1.4c1.1,0,3.6,0.4,3.9,0.3c0.3,0,0.6,2.1,0.2,2.5
			C112.1,80.9,108.3,81.2,108.3,81.2z"/>
		<path class="st5" d="M108.7,76.4c1.4,0.1,2.6,0.5,3.4,0.3s2-1,1.2-1.4s-0.3-0.6-2.2-0.4c-1.8,0.1-1.9-0.6-2.4,0.2
			C108.1,75.9,108.7,76.4,108.7,76.4z"/>
		<path class="st5" d="M109.6,72.8c-0.9,0.6-1.9,0.9-0.5,1.2c1.5,0.3,2.7,0.7,2.8,0s1.1-0.8,0-1.3s-1.2-0.8-1.8-0.4
			C109.7,72.7,109.6,72.8,109.6,72.8z"/>
		<path class="st5" d="M108.9,69.2c-1,0.3-2.1,0.1-1.6,1.4c0.5,1.3,0.2,2.4,0.9,2c0.8-0.4,0.4-0.8,1.6-1.1s2.1-0.3,1.3-0.9
			c-0.8-0.6-0.2-0.6-1.2-1C108.9,69.4,108.9,69.2,108.9,69.2z"/>
		<path class="st5" d="M106.5,67.2c-0.7,1.1-1.5,2.6-0.6,2.1c0.9-0.5,1.2-0.6,1.7-0.9c0.5-0.3,1.1-0.4,0.4-0.8
			S106.5,67.2,106.5,67.2z"/>
		<path class="st5" d="M105.1,89.6c0.7,1.1,2.3,1.3,1.6,2.2c-0.7,0.9-0.8,2.3-1.7,1.6c-0.8-0.6-1.3-0.2-1.3-1.5s-0.2-1.6,0.3-2
			C104.6,89.5,105.1,89.6,105.1,89.6z"/>
		<path class="st5" d="M102.4,94.2c-1.4,1.3-1.8,1.8-2.1,2.9c-0.4,1-1.7,3.3,0.1,1.5c1.8-1.7,3.1-3.2,3.5-3.6s0.5-1.7-0.3-1.6
			C102.8,93.6,102.4,94.2,102.4,94.2z"/>
		<path class="st5" d="M95.7,99.3c-0.7,0.6-0.9-0.8-1.8,0c-0.9,0.8-1.8,1.9-1.3,2.6c0.5,0.7,0.4,1.6,2,0.5c1.6-1,2.8-1.3,2.9-2
			C97.5,99.6,95.7,99.3,95.7,99.3z"/>
		<path class="st5" d="M97.1,97.2c0.7-1.1,1.6-3.4,1.8-1.6c0.2,1.8,0.9,1.1,0.2,2.3c-0.7,1.1,0.3,2.4-0.8,1.4
			c-1.1-0.9-1.4-0.9-1.3-1.4C97.1,97.4,97.1,97.2,97.1,97.2z"/>
	</g>
	<g>
		<path class="st5" d="M100.3,84.4c-0.8,0.6-2.6,1.9-1.9,2.9c0.7,1,1.3,2.1,1.9,1.3s0-0.6,0.8-1.7s1.7-1,1.7-1.6
			c0-0.6,0.1-1.3-1-1.3C100.8,84.1,100.3,84.4,100.3,84.4z"/>
		<path class="st5" d="M100.8,83.1c1.8-0.3,2.7,0.3,3,0.2c0.4-0.1,0.5-0.7,0.4-1.2c0-0.5,1-1.3-0.4-1.4s-1.6-0.7-2.3,0
			c-0.8,0.7-1,0.9-0.8,1.3S100.8,83.1,100.8,83.1z"/>
		<path class="st5" d="M101.8,79.3c1.8,0.2,2.6,1.5,2.5,0.6c-0.1-1,0.3-1.3,0.4-2.2s0.7-1.5-0.7-1c-1.4,0.5-2.2,0.5-2.1,1.2
			C101.9,78.5,101.8,79.3,101.8,79.3z"/>
		<path class="st5" d="M102,73.4c1.4-0.4-1.3,2.4-0.2,2.5s1.6,0.1,2.3,0c0.7-0.1,1-0.3,1-1.3c-0.1-1,1.3-1.4,0.1-1.6
			c-1.2-0.2-1.7-0.6-2.3-0.3C102.3,72.9,102,73.4,102,73.4z"/>
		<path class="st5" d="M101.2,70.2c0,0.8-0.6,1.1,0.9,1.1c1.5,0,2,0.7,2.2,0.2c0.1-0.5,0.4-1.5-0.6-2.2c-1-0.7-0.5-0.9-1.6-0.9
			c-1.1,0-1.9,0.1-1.5,0.7S101.2,70.2,101.2,70.2z"/>
		<path class="st5" d="M97.8,89.5c1.3,0.5,3.7-1,2.4,0.7c-1.3,1.7-0.8,1.3-1.8,2.5c-1.1,1.2-2.2,1.7-1.8,0.7
			c0.4-1.1,0.6-1.1,1.1-1.8C98.1,91,97.8,89.5,97.8,89.5z"/>
		<path class="st5" d="M95.2,95c-0.8,1.1-2.1,1.9-0.7,1.6c1.4-0.3,1.8-0.3,1.9-0.8c0.1-0.5,0.7-0.9-0.2-0.9
			C95.4,94.8,95.2,95,95.2,95z"/>
	</g>
	<path class="st2" d="M67.5,70.2c0.7,1.1,1.4,2.1,2,3.2c0.7,1.1,1.3,2.2,2,3.3c0.5,0.8,1.1,1.7,1.7,2.5c0.4-0.7,0.8-1.4,1.1-2.1
		c0.6-1.2,1.3-2.5,1.9-3.7c0.3-0.6,0.6-1.3,0.8-1.9l0.2-0.5c0.1-0.2,0.1-0.3,0.1-0.4c0.1-0.3,0.1-0.6,0.2-1c0.5-2.7,0.9-5.5,1.4-8.3
		c0.2-1.4,0.5-2.8,0.8-4.1c0-0.2,0.1-0.3,0.1-0.6c0-0.2,0.1-0.3,0.2-0.4c0.1-0.1,0.2-0.1,0.2-0.2c0.3-0.2,0.6-0.4,0.9-0.6
		c0.5-0.4,1.1-0.7,1.6-1c0-0.1,0-0.1,0-0.2c-1.3-0.2-2.6-0.4-3.8-0.8c-1.3-0.4-2.6-0.8-3.8-1.4c-1.2-0.6-2.5-1.2-3.7-1.9
		c-0.4-0.3-0.6-0.4-1.1-0.6c-0.5,1.1-1.3,2-1.9,3c-0.7,1.1-1.3,2.2-2,3.2c-0.7,1.1-1.4,2.1-2.2,3.1c-0.7,1-1.4,2.1-1.6,3.3
		c0.2,0.4,0.5,0.8,0.8,1.1c0.3,0.4,0.7,0.7,1,1.1c0.3,0.4,0.7,0.8,1,1.3c0.2,0.3,0.3,0.5,0.4,0.9c0,0.2,0,0.5,0,0.7
		C66.2,68.2,66.9,69.2,67.5,70.2z"/>
	<path class="st1" d="M73.6,79.7c-0.1-0.2-1.9-5.4-1.9-5.4l2.8-0.3l-4.3-5.5l5,2.5c0,0,0.8-3.4-0.2-4.1c-1-0.7,0.3-1.3,1.4-1.3
		s1.6-2.1,0.1-2.8c-1.5-0.7,1.9-0.8,2.3-0.8s0-2.9-0.7-3.1s1.9-0.3,1.9-0.3s-1,7.1-1.1,9.2C78.9,69.8,73.6,79.7,73.6,79.7z"/>
	<path class="st4" d="M85.4,43.8c2.2,0.6-6.5,18.8-0.7,18.8c4.3,0,20.7-13.6,25-14.9c4.6-1.4,5.1,0.9,8.6-1.7c0.3,0,3.4-1.2,4.3-2.3
		c0.9-1.1,2.5-2.9,2.5-2.9s1.9-1.7,1-2.2c-0.8-0.5-7.6-7-14.2-5.9c-1.6,0.2-8.3,1.8-9.7,2.7c-1.4,1-4.7,3.8-6.1,4.9
		C91.3,44.5,85.4,43.8,85.4,43.8z"/>
	<path class="st0" d="M15.3,83.7c0.4,0,0.8-0.1,1.2-0.1c0.2-0.7,0.4-1.5,0.7-2.1c0.4-0.8,0.9-1.5,1.5-2.2c0.3-0.3,0.6-0.7,0.9-1
		c0.1-0.1,0.2-0.2,0.3-0.2c-0.1-0.1-0.2-0.1-0.3-0.2c-0.2-0.2-0.4-0.4-0.6-0.6c-0.2-0.2-0.4-0.5-0.5-0.7c-0.1-0.2-0.2-0.3-0.2-0.5
		c-0.7,1-1.3,2-2,2.9c-0.7,1.1-1.5,2.1-2.3,3.1c-0.6,0.8-1.3,1.6-1.9,2.3c0.5-0.2,1.1-0.3,1.6-0.5C14.2,83.8,14.7,83.8,15.3,83.7z"
		/>
	<path class="st6" d="M24.9,103.8l-0.1,0.1l0,0l-0.1,0.1c0,0.1-0.1,0.1-0.1,0.2c-0.1,0.2-0.2,0.3-0.4,0.3c0.1,0.2,0.2,0.5,0.3,0.7
		c0.2,0.4,0.4,0.8,0.6,1.1c0.3,0,0.6,0,0.9,0c0.5,0,1.1,0,1.6-0.2c1-0.3,1.8-1.3,2.6-1.8c0.1-0.1,0.2-0.1,0.3-0.2
		c0.1-0.1,0.1-0.1,0.2-0.2c0.1-0.2,0.3-0.4,0.4-0.6c0.3-0.4,0.6-0.8,1-1.2c0.5-0.5,1-1.1,1.6-1.6c-1-0.1-1.9-0.2-2.8-0.4
		c-1.4-0.3-2.7-0.6-4-1c-0.2-0.1-0.4-0.1-0.6-0.2c-0.1,0.7-0.2,1.3-0.3,1.9c-0.2,0.8-0.4,1.6-0.8,2.3
		C25.1,103.4,25,103.6,24.9,103.8z"/>
	<path class="st0" d="M55.8,48c0.6,0,1.2,0,1.7,0.2c0.5,0.2,1.1,0.6,1.7,0.6c0.3,0,0.6,0,0.9-0.1c0.3-0.1,0.6-0.2,0.8-0.3
		c0.6-0.3,1.1-0.4,1.7-0.6c0.6-0.2,1.1-0.3,1.7-0.3c1-0.1,2.1,0,3.2,0.2c0-0.4,0.2-0.8,0.3-1.1c0.2-0.4,0.4-0.7,0.6-1.1
		c0.4-0.7,1-1.2,1.5-1.7c0.6-0.5,1.2-1,1.8-1.4c0.5-0.3,0.9-0.6,1.4-0.9c-0.9,0.1-1.7,0.3-2.6,0.4c-2,0.3-4.1,0.6-6.1,1.1
		c-1,0.2-2,0.5-2.9,0.8c-0.9,0.4-1.8,0.8-2.7,1.3c-1.5,0.8-2.8,1.9-4.1,3c0.1,0,0.1,0,0.2,0C55.2,48,55.5,48,55.8,48z"/>
	<path class="st0" d="M71,45c-0.5,0.5-1,1-1.6,1.5c-0.5,0.4-1,0.8-1.2,1.2c1.1,0.6,2.3,0.9,3.6,1.2c1.4,0.3,2.7,0.7,4,1.2
		c1.3,0.4,2.6,1,3.8,1.7c1.1,0.6,2.1,1.2,3.1,1.9c-0.4-2.1-0.8-4.3-1-6.5c-0.1-0.6-0.1-1.2-0.1-1.9c0-0.3,0-0.6,0.1-1
		c0-0.2,0.1-0.3,0.2-0.5c0.1-0.2,0.2-0.3,0.3-0.5c0.4-0.5,0.9-1,1.4-1.4l0.2-0.1c0.1,0,0.1-0.1,0.1-0.1c0.1-0.1,0.1-0.1,0.1-0.2
		c0-0.2,0-0.4-0.2-0.5c-0.5-0.4-1-0.7-1.6-0.9c-0.6-0.2-1.2-0.3-1.8-0.3c-0.6,0-1.2,0.1-1.8,0.3c-0.6,0.2-1.2,0.4-1.8,0.7l0,0l0,0
		l0,0c-1,0.2-2,0.3-3,0.5c-0.3,0.7-0.8,1.3-1.2,1.9C72,43.9,71.5,44.5,71,45z"/>
	<path class="st0" d="M20,76.1c0.2,0.1,0.5,0.3,0.7,0.5c0.2,0.2,0.4,0.4,0.5,0.7c0,0,0.1,0.2,0.4,0.3c0.2,0.1,0.5,0.1,0.8,0
		c0.3-0.1,0.5-0.2,0.8-0.3c0.3-0.1,0.5-0.1,0.8-0.2c0.5-0.1,1-0.1,1.4,0c0.2,0,0.4,0.1,0.6,0.2c0-0.7,0-1.4,0.1-2
		c0.1-0.7,0.3-1.4,0.6-2.1c0.2-0.5,0.4-1,0.7-1.4c-0.6-0.1-1.1-0.3-1.6-0.5c-0.3-0.1-0.7-0.3-1-0.5c-0.3-0.2-0.6-0.4-0.9-0.6
		c-0.2,0.2-0.5,0.4-0.7,0.6c-1.6,1.5-3.2,3-4.5,4.8c0.2,0,0.4,0.1,0.6,0.1C19.4,75.8,19.7,76,20,76.1z"/>
	<path class="st0" d="M24.9,69.8c0.4,0,0.8,0,1.1,0c0.7,0.1,1.4,0.2,2,0.5c0.4-0.1,0.8-0.2,1.1-0.3c0.5-0.2,1-0.5,1.4-0.8
		c0.4-0.3,0.8-0.7,1.2-1.1c0.4-0.4,0.8-0.7,1.2-1c0.4-0.3,0.9-0.6,1.3-0.9c0.4-0.3,0.9-0.5,1.4-0.7c0.8-0.3,1.6-0.6,2.5-0.8
		c0,0,0,0,0,0c0.3-0.8,0.7-1.6,1.1-2.4c0.2-0.4,0.4-0.9,0.6-1.4c0.1-0.4,0.1-0.7-0.2-1c-0.1-0.1-0.1-0.2-0.2-0.3
		c-0.2-0.3-0.3-0.6-0.4-0.8c-0.1-0.3-0.4-0.6-0.4-0.6c-0.9,0.5-1.7,1.2-2.6,1.8c-0.9,0.7-1.8,1.4-2.7,2.1c-1.8,1.4-3.6,2.8-5.3,4.3
		c-1.3,1.1-2.5,2.2-3.8,3.3C24.3,69.7,24.7,69.8,24.9,69.8z"/>
	<path class="st7" d="M80.7,79.7C80.7,79.7,80.7,79.7,80.7,79.7C80.7,79.7,80.7,79.7,80.7,79.7C80.7,79.7,80.7,79.7,80.7,79.7
		C80.7,79.7,80.7,79.7,80.7,79.7L80.7,79.7z"/>
	<path class="st0" d="M53.7,58.9c0.1,0,0.1,0,0.1,0l0,0l0,0l0.4,0l1.7,0.2c2.2,0.3,4.4,0.6,6.5,1.2c0-0.1,0-0.2,0.1-0.3
		c0.2-0.6,0.4-1.3,0.6-1.9c0.5-1.2,1.1-2.4,1.8-3.5c0.7-1.1,1.5-2.1,2.4-3.1c0.8-0.9,1.4-1.9,2.2-2.6c-0.7-0.4-1.2-0.5-1.9-0.8
		l-0.1,0c-1,0.6-2,1-3,1.2c-0.6,0.1-1.2,0.2-1.8,0.2c-0.6,0-1.2,0-1.8-0.1c-0.6-0.1-1.2-0.2-1.8-0.2c-0.6,0-1.2,0.3-1.8,0.4
		c0,0,0,0-0.1,0c-0.2,0.7-0.5,1.3-0.8,1.9c-0.2,0.4-0.4,0.7-0.7,1l-0.1,0.1c0,0,0,0,0,0c-0.1,0.1-0.2,0.2-0.2,0.3
		c-0.2,0.2-0.3,0.3-0.4,0.5c-0.3,0.3-0.6,0.6-0.9,0.9c-0.3,0.3-0.7,0.5-1,0.8c-0.3,0.3-0.5,0.6-0.7,1c-0.1,0.2-0.1,0.4-0.1,0.6
		c0.1,0.1,0.3,0.3,0.4,0.4c0.2,0.2,0.4,0.4,0.5,0.7c0.2,0.2,0.3,0.5,0.5,0.8c0,0,0,0,0,0.1C53.7,58.9,53.7,58.9,53.7,58.9z"/>
	<path class="st6" d="M9.3,90.4c-0.2-0.3-0.3-0.6-0.4-1c-0.1-0.2-0.1-0.3-0.2-0.5c0,0,0,0,0,0c-0.1,0-1.5,0.7-3.6,1.4
		C6.7,90.7,8.5,90.5,9.3,90.4z"/>
	<path class="st0" d="M28.1,81c-0.3-0.2-0.5-0.4-0.8-0.6c-0.3-0.2-0.6-0.3-1-0.6l-0.1-0.1l0-0.2c-0.1-0.3-0.1-0.7-0.2-1
		c-0.2,0.1-0.4,0.2-0.6,0.3c-0.6,0.2-1.1,0.2-1.6,0.1c-0.3-0.1-0.5-0.1-0.8-0.2c-0.3-0.1-0.5-0.3-0.8-0.4c-0.3-0.1-0.5-0.2-0.8-0.2
		c-0.3,0-0.5,0.1-0.8,0.2c0,0-0.6,1.1-0.8,1.6c-0.3,0.8-0.6,1.5-0.9,2.3c-0.3,0.7-0.7,1.4-0.9,2.2c-0.1,0.4-0.2,0.7-0.3,1
		c-0.1,0.3-0.1,0.7-0.1,0.9l-0.1-0.1c0,0.1,0.2,0.2,0.3,0.3c0.2,0.1,0.3,0.2,0.5,0.3c0.4,0.2,0.8,0.3,1.2,0.4c0.8,0.2,1.7,0,2.5,0
		c0.8,0,1.6,0.2,2.4,0.3c0.7,0.2,1.5,0.4,2.2,0.7c0.1-0.4,0.2-0.8,0.2-1.2c0.1-0.7-0.1-1.5-0.1-2.2c0-0.7,0.2-1.4,0.4-2.1
		C27.4,82.2,27.7,81.6,28.1,81z"/>
	<path class="st7" d="M53.5,60.5C53.5,60.5,53.5,60.5,53.5,60.5c0.1,0,0.1,0,0.1,0c0,0,0,0,0,0L53.5,60.5L53.5,60.5z"/>
	<path class="st0" d="M35.7,78.3c0.5-0.8,1.1-1.5,1.7-2.2c0.6-0.7,1.3-1.4,1.9-2c0.6-0.5,1.1-1.1,1.8-1.5c-0.4-0.3-0.9-0.6-1.3-0.9
		c-0.4-0.2-0.8-0.4-1.1-0.6c-0.4-0.2-0.8-0.3-1.2-0.5l-0.2-0.1l0-0.4c0-1,0.1-1.9,0.3-2.8c0.1-0.4,0.2-0.8,0.3-1.2
		c-0.4,0.4-0.8,0.7-1.2,1c-0.4,0.3-0.8,0.6-1.3,0.9c-0.5,0.3-0.9,0.5-1.4,0.7c-0.5,0.2-1,0.4-1.5,0.6c-0.5,0.2-1,0.3-1.5,0.5
		c-0.5,0.2-0.9,0.5-1.3,0.8c-0.4,0.3-0.8,0.8-1.2,1.1l-0.1,0.1c0,0-0.2,1.1-0.2,1.6c0,0.7,0,1.4-0.1,2.1c-0.1,0.7-0.3,1.4-0.5,2
		c-0.2,0.6-0.5,1.3-0.6,1.9c0.2,0.2,0.4,0.3,0.6,0.4c0.3,0.2,0.6,0.3,1,0.4c0.7,0.2,1.4,0.2,2,0.4c0.6,0.2,1.2,0.6,1.8,0.9
		c0.5,0.3,1.1,0.7,1.6,1.2c0,0,0,0,0-0.1c0.1-0.2,0.1-0.4,0.1-0.6c0.1-0.4,0.1-0.8,0-1.2l0-0.1l0.1-0.2
		C34.7,79.9,35.2,79.1,35.7,78.3z"/>
	<path class="st6" d="M70.7,86.9c-0.5,0.5-1,1.1-1.6,1.6c-1,1-2,1.9-3,2.8c-0.5,0.4-1,0.9-1.6,1.3c-0.1,0-0.1,0.1-0.2,0.1
		c0.1,0.6,0.1,1.1,0,1.7c0,0.2,0,0.4-0.1,0.5c0,0.1,0.1,0.1,0.1,0.2c0.2,0.3,0.4,0.5,0.6,0.5c0.1,0,0.1,0,0,0c0,0,0.2-0.1,0.3-0.1
		c0.3-0.1,0.6-0.2,0.9-0.3c0.6-0.2,1.4-0.3,2-0.7c0.6-0.3,1.1-0.9,1.5-1.5c0.2-0.3,0.3-0.6,0.5-0.9l0.4-0.9c0.1-0.3,0.2-0.6,0.3-0.9
		l0.1-0.2c0-0.1,0-0.1,0-0.1c0-0.1,0-0.2,0-0.3c0-0.5-0.1-1.2-0.2-1.9C70.8,87.5,70.7,87.2,70.7,86.9z"/>
	<path class="st1" d="M59.3,94.2c0-0.2,0.8-5.7,0.8-5.7l0.6,0.3c0.9,0.4,1.8-0.4,1.6-1.3l-0.8-4.7l2.3,3.2c0.5,0.7,1.5,0.7,2,0
		c0.5-0.8,1-1.8,0.7-2.3c-0.5-1.1,0.9-1,1.8-0.5s2.4-1.1,1.4-2.5s2,0.2,2.4,0.4c0.4,0.2,1.3-2.5,0.9-3c-0.5-0.5,1.8,0.7,1.8,0.7
		s-4.2,5.8-5.2,7.6C68.6,88,59.3,94.2,59.3,94.2z"/>
	<path class="st1" d="M42.9,99.1c0.1-0.1,2.1-4.3,2.1-4.3l0.5,0.5c0.7,0.7,1.6,0.5,1.7-0.4l0.5-4.2l1.2,3.7c0.2,0.8,1.1,1.2,1.7,0.8
		c0.6-0.4,1.3-1,1.2-1.6c-0.2-1.1,1-0.4,1.7,0.4s2.3,0.1,1.8-1.4c-0.6-1.5,1.7,1.1,2,1.4s1.8-1.5,1.5-2.1c-0.3-0.6,1.4,1.4,1.4,1.4
		s-5,2.9-6.3,3.8C52.4,98.2,42.9,99.1,42.9,99.1z"/>
	<path class="st1" d="M25.7,98.1c0.1-0.1,3.2-3.2,3.2-3.2l0.3,0.6c0.4,0.9,1.3,1,1.7,0.3l1.7-3.8l0,3.8c0,0.8,0.7,1.5,1.3,1.4
		c0.7-0.2,1.5-0.5,1.5-1.1c0.2-1.1,1,0,1.4,1s2.1,0.9,2-0.7c-0.1-1.6,1.2,1.6,1.4,2s2-0.7,2-1.4c-0.1-0.7,0.8,1.8,0.8,1.8
		s-5.4,0.9-6.9,1.4C34.6,100.6,25.7,98.1,25.7,98.1z"/>
	<path class="st1" d="M11.5,84.1c0.1-0.1,3.7-2.5,3.7-2.5l0.1,0.7c0.2,0.9,1.1,1.3,1.5,0.6l2.3-3.3l-0.8,3.7
		c-0.2,0.8,0.3,1.6,0.9,1.6c0.7,0,1.5-0.2,1.7-0.7c0.4-1,1,0.2,1.1,1.2c0.1,1.1,1.8,1.4,2-0.2c0.3-1.6,0.8,1.8,0.9,2.3
		s2.1-0.3,2.1-1s0.4,1.9,0.4,1.9s-5.3-0.3-6.8-0.2S11.5,84.1,11.5,84.1z"/>
	<path class="st1" d="M48.2,73.3c0,0.1-2.1,3.4-2.1,3.4l-0.7-0.2c-0.9-0.3-1.6,0.2-1.3,0.9l1.5,3.8l-2.7-2.7
		c-0.6-0.6-1.5-0.6-1.9-0.1c-0.4,0.6-0.7,1.3-0.3,1.8c0.7,0.9-0.7,0.7-1.6,0.3s-2.1,0.8-0.9,1.9c1.2,1.1-2-0.3-2.4-0.4
		c-0.4-0.2-0.9,1.9-0.3,2.3s-1.8-0.7-1.8-0.7s3.1-4.3,3.8-5.6c0.4-0.6,4.2-5.4,4.2-5.4L48.2,73.3z"/>
	<path class="st1" d="M40.3,59.4c0,0.1-2.6,3-2.6,3l-0.4-0.2c-0.5-0.3-1.2,0.2-1.3,0.8L36,66.5L34.9,64c-0.2-0.5-0.9-0.6-1.3-0.1
		c-0.5,0.5-0.9,1.2-0.8,1.6c0.2,0.8-0.7,0.6-1.3,0.2c-0.6-0.4-1.7,0.7-1.2,1.7c0.5,1-1.3-0.2-1.6-0.4s-1.2,1.7-1,2.1
		c0.3,0.4-1.1-0.6-1.1-0.6s3.6-3.9,4.5-5c0.5-0.6,4.7-4.8,4.7-4.8L40.3,59.4z"/>
	<path class="st1" d="M64.1,48.3c0,0.1-2.6,3-2.6,3l-0.4-0.2c-0.5-0.3-1.2,0.2-1.3,0.8l-0.1,3.4l-1.1-2.4c-0.2-0.5-0.9-0.6-1.3-0.1
		c-0.5,0.5-0.9,1.2-0.8,1.6c0.2,0.8-0.7,0.6-1.3,0.2c-0.6-0.4-1.7,0.7-1.2,1.7c0.5,1-1.3-0.2-1.6-0.4c-0.2-0.2-1.2,1.7-1,2.1
		c0.3,0.4-1.1-0.6-1.1-0.6s3.6-3.9,4.5-5c0.5-0.6,4.7-4.8,4.7-4.8L64.1,48.3z"/>
	<path class="st1" d="M61.7,60.9c0,0.1-2.1,3.4-2.1,3.4L59,64c-0.9-0.3-1.6,0.2-1.3,0.9l1.4,2.5L56.4,66c-0.6-0.6-1.5-0.6-1.9-0.1
		c-0.4,0.6-0.7,1.3-0.3,1.8c0.7,0.9-0.7,0.7-1.6,0.3c-1-0.5-0.2,1.7,0.9,2.8c1.2,1.1-3.8-1.2-4.2-1.4c-0.4-0.2-0.9,1.9-0.3,2.3
		c0.5,0.4-0.5-0.2-0.5-0.2s-0.8-4,2.2-7.1c0.5-0.5,3.1-4.6,3.1-4.6L61.7,60.9z"/>
	<path class="st1" d="M80.4,53.7c-0.1,0.1-3.8,3.9-3.8,3.9l-0.2-0.7c-0.3-0.9-0.9-1.2-1.2-0.6l-0.6,2.6L74,56c0-0.8-0.5-1.6-0.9-1.6
		c-0.5,0-1,0.2-1.1,0.7c-0.1,1-0.7-0.1-1-1.2c-0.3-1-1,0.8-1,2.3c0,1.6-1.3-3.8-1.4-4.2c-0.1-0.4-1.5,0.4-1.4,1
		c0.1,0.7-0.1-0.5-0.1-0.5s1.7-4,4.9-3.2c0.5,0.1,4,0.9,4,0.9L80.4,53.7z"/>
	<path class="st1" d="M83.1,43.3c0,0-2.2,2.3-2.2,2.3l-0.1-0.4c-0.2-0.5-0.5-0.7-0.7-0.3l-0.3,1.5l-0.3-1.7c0-0.5-0.3-0.9-0.5-0.9
		c-0.3,0-0.6,0.1-0.6,0.4c-0.1,0.6-0.4-0.1-0.6-0.7c-0.1-0.6-0.6,0.4-0.6,1.4c0,0.9-0.8-2.2-0.8-2.4c-0.1-0.3-0.8,0.2-0.8,0.6
		c0,0.4-0.1-0.3-0.1-0.3s1-2.3,2.8-1.9c0.3,0.1,2.3,0.5,2.3,0.5L83.1,43.3z"/>
	<path class="st6" d="M59,95.8c-1.6,0.7-3.2,1.4-4.8,1.9c0,0.5-0.1,1.1-0.2,1.6c-0.1,0.2-0.1,0.4-0.2,0.6c0,0,0,0,0,0
		c0.1,0.2,0.2,0.4,0.3,0.5l0.2-0.1c0.3-0.1,0.6-0.2,1-0.3c0.7-0.2,1.5-0.2,2.1-0.4c0.7-0.3,1.3-0.7,1.8-1.2c0.5-0.5,1-1,1.6-1.4
		c0.3-0.2,0.5-0.4,0.7-0.7c0.2-0.2,0.4-0.5,0.4-0.5c0,0,0,0,0,0l0-0.1l0.1-0.2c0.1-0.2,0.1-0.3,0.2-0.5c0.1-0.3,0.3-0.6,0.5-1
		c0.1-0.2,0.2-0.3,0.3-0.5l-0.4,0.3C61.5,94.6,60.3,95.3,59,95.8z"/>
	<path class="st7" d="M54.3,100.6C54.3,100.6,54.4,100.7,54.3,100.6C54.4,100.7,54.4,100.7,54.3,100.6
		C54.4,100.6,54.3,100.6,54.3,100.6z"/>
	<path class="st7" d="M7.4,100.4C7.4,100.4,7.4,100.4,7.4,100.4c0,0,0,0.1,0.1,0.2C7.5,100.5,7.5,100.5,7.4,100.4
		C7.4,100.4,7.4,100.4,7.4,100.4z"/>
	<path class="st6" d="M80.5,80.8l0.1-0.6l-2.2-1.3l-1.3-0.8c-0.3-0.2-0.7-0.4-1-0.6c-0.1,0.1-0.1,0.2-0.2,0.3
		c-1.2,2.5-2.5,5-3.8,7.5l0,0.1l0,0.1c-0.2,0.2-0.4,0.4-0.6,0.7c0.3,0.4,0.6,0.7,0.8,1.1c0.4,0.7,0.7,1.4,0.8,2.3c0,0.2,0,0.4,0,0.5
		c0,0,0,0,0,0c0.2-0.1,0.3-0.1,0.5-0.2c0.3-0.1,0.6-0.3,1-0.5c0.6-0.3,1.2-0.7,1.7-1.1c0.5-0.4,1.2-0.7,1.7-1.2
		c0.2-0.2,0.4-0.4,0.6-0.6c0.3-0.3,0.4-0.6,0.6-0.9c0-0.1,0.1-0.1,0.1-0.2l0,0c0.5-0.9,0.6-2,0.8-3L80.5,80.8z"/>
	<path class="st6" d="M35,100.6c-0.1,0-0.3,0-0.4,0c-0.2,0.9-0.5,1.8-1,2.6c-0.2,0.4-0.4,0.7-0.7,1c0.2,0.3,0.3,0.6,0.4,1
		c0.1,0.3,0.2,0.5,0.3,0.7c0,0,0,0,0,0c0.6,0,1.4,0.1,2-0.1c0.7-0.2,1.3-0.5,1.8-0.9c0.6-0.4,1.1-0.8,1.7-1.2
		c0.3-0.2,0.6-0.4,0.8-0.5c0.2-0.2,0.5-0.4,0.7-0.5c0,0,0.1,0,0.1,0c0,0,0,0.1,0,0l0.1-0.1c0.1-0.1,0.2-0.3,0.3-0.4
		c0.2-0.3,0.4-0.6,0.6-0.8c0.2-0.2,0.4-0.4,0.5-0.6C39.9,100.7,37.5,100.7,35,100.6z"/>
	<path class="st6" d="M47.4,99.9c-0.7,0.2-1.3,0.3-2,0.5c-0.7,0.1-1.3,0.2-1.9,0.2c-0.1,0.5-0.2,0.9-0.3,1.3c-0.1,0.3-0.2,0.7-0.3,1
		c0,0,0,0,0,0.1c0.2,0.3,0.3,0.6,0.5,0.9l0,0c0.3-0.1,0.6-0.2,1-0.3c0.7-0.1,1.5-0.1,2.1-0.3c0.7-0.2,1.3-0.6,1.8-1.1
		c0.6-0.5,1.1-0.9,1.7-1.3c0.6-0.4,1.1-0.8,1.7-1.1l0.4-0.2c0.1-0.1,0.2-0.2,0.2-0.1c0.2-0.2,0.4-0.5,0.6-0.8
		c0.1-0.2,0.3-0.4,0.4-0.6c-0.6,0.2-1.2,0.4-1.8,0.6C50,99.2,48.7,99.6,47.4,99.9z"/>
	<path class="st6" d="M11.5,94.1c-0.2,0.4-0.4,0.9-0.7,1.3c-0.3,0.5-0.8,1-1.2,1.3l-0.1,0c0,0-0.1,0-0.1,0.1C9.2,97.5,9,98,8.8,98.6
		c-0.3,0.7-0.7,1.5-1.1,2.1c0,0,0,0,0.1,0c0.3,0.2,0.7,0.4,1.1,0.6c0.8,0.3,1.6,0.4,2.5,0.3c0.4,0,0.8-0.1,1.2-0.2
		c0.4-0.1,0.8-0.1,1.1-0.2c0.3-0.1,0.7-0.2,0.9-0.4c0.1,0,0.1-0.1,0.1-0.1c0,0,0,0,0.1-0.1c0.1-0.1,0.2-0.3,0.3-0.4
		c0.9-1.1,1.6-2.4,2.4-3.9C15.5,95.5,13.5,94.8,11.5,94.1z"/>
	<path class="st6" d="M21.3,104.1l1-0.5c0.3-0.2,0.6-0.4,0.8-0.5c0,0,0-0.1,0,0c0,0,0,0,0,0l0,0l0,0l0.1-0.1
		c0.1-0.2,0.2-0.4,0.2-0.5c0.4-0.7,0.8-1.4,1.2-2.1c0.3-0.5,0.7-1,1.1-1.5c-2.6-0.7-5.2-1.6-7.8-2.5c0.1,0.8,0,1.6-0.1,2.4
		c-0.2,0.9-0.5,1.8-1.1,2.6c-0.1,0.2-0.3,0.4-0.5,0.6c-0.1,0.1-0.2,0.2-0.3,0.3c0,0,0,0,0,0c0,0.5,0,1.1,0,1.6l0,1.1
		c0.6,0.1,1.3,0.2,2,0.2c0.8,0,1.6-0.2,2.3-0.6C20.6,104.4,20.9,104.2,21.3,104.1z"/>
	<path class="st6" d="M8.6,95.2c0.5-0.2,0.9-0.4,1.3-0.7l0.7-0.4c0.1-0.1,0.3-0.2,0.5-0.3c-0.2-0.2-0.3-0.4-0.4-0.7
		c-0.1-0.2-0.3-0.5-0.4-0.7c-0.1-0.1-0.1-0.3-0.2-0.4c-0.1,0.1-0.3,0.2-0.4,0.2c-0.7,0.1-1.7,0.2-2.7,0.2c-0.3,0-0.5,0-0.8,0
		c-0.2,0.2-0.5,0.4-0.7,0.6c-0.4,0.3-0.8,0.6-1.3,0.8c-0.4,0.2-0.9,0.5-1.3,0.6l-0.7,0.2c-0.1,0-0.2,0.1-0.3,0.1l0,0c0,0,0,0,0,0
		c0.1,0.1,0.2,0.2,0.4,0.3c0.3,0.2,0.6,0.3,0.9,0.4c0.7,0.2,1.4,0.2,2,0.2c0.6,0,1.2,0,1.8-0.1C7.6,95.5,8.1,95.4,8.6,95.2L8.6,95.2
		z"/>
	<path class="st7" d="M43.5,104.2L43.5,104.2C43.4,104.2,43.4,104.1,43.5,104.2C43.4,104.2,43.5,104.2,43.5,104.2
		C43.5,104.2,43.5,104.2,43.5,104.2C43.5,104.2,43.5,104.2,43.5,104.2C43.5,104.2,43.5,104.2,43.5,104.2z"/>
	<path class="st6" d="M82.4,44.1c0,0.1-0.1,0.2-0.1,0.4c-0.1,0.3-0.1,0.6-0.1,0.9c0,0.6,0,1.2,0.1,1.8c0.1,1.2,0.3,2.4,0.4,3.6
		c0.2,1.2,0.4,2.4,0.6,3.6l0,0.2l-0.2,0.1l0,0L82.8,55c0.3,0,0.6,0,0.8,0c0.3,0,0.7,0.1,1,0.2c0.6,0.2,1.7,0,1.7-0.4
		c0-0.5,0-1.1,0.1-1.6c0.1-0.6,0.3-1.1,0.5-1.7c0.1-0.6,0.1-1.2-0.1-1.8c-0.2-0.6-0.4-1.1-0.7-1.7c-0.2-0.5-0.4-1.1-0.6-1.5
		c-0.2-0.5-0.4-0.9-0.7-1.3c-0.2-0.4-0.4-0.7-0.8-0.9C84,44.3,82.9,43.6,82.4,44.1z"/>
	<path class="st8" d="M120.9,37.5c-0.6-0.1-2.4,0.8-2.5,1.4c-0.1,0.6,1.5,0.1,2.1,0.2c0.6,0.1,1.1,0.2,1.2-0.3
		C121.8,38.1,121.5,37.6,120.9,37.5z"/>
	<path class="st8" d="M112.9,36.4c-1.2,0.2-2.7,1.7-2.6,2.3c0.1,0.6,2,1.6,3.2,1.4c1.2-0.2,2.1-1.2,1.9-2.2
		C115.3,36.9,114.2,36.2,112.9,36.4z"/>
	<path class="st8" d="M127.1,39.2c-0.3-0.5-0.5-1-0.8-1.4c-0.6-0.9-1.3-1.7-2-2.5l-0.6-0.6c-0.2-0.2-0.4-0.4-0.7-0.6
		c-0.5-0.4-1-0.7-1.5-0.9c-1-0.5-2.1-0.8-3.2-1c-2.2-0.3-4.3-0.2-6.4,0.1c-1,0.2-2.1,0.4-3.1,0.7c-1,0.3-2,0.6-3,1
		c-1,0.4-1.9,0.7-2.9,1.1c-0.5,0.2-1,0.4-1.4,0.6c-0.5,0.2-1,0.5-1.4,0.8c-1.8,1.1-3.4,2.3-5,3.6c-0.8,0.7-1.6,1.3-2.4,1.9
		c-0.6,0.5-1.6,0.7-2.5,0.9c-1.6,0.2-3.2,0.3-4.8,0.4c0,0,0,0,0,0c-0.2-0.1-0.4-0.2-0.6-0.2c-0.7-0.1-1.5,0.1-1.9,0.2
		c0.3-0.3,0.5-0.5,0.8-0.8l0.2-0.1c0.1,0,0.2-0.1,0.3-0.2c0.2-0.2,0.3-0.4,0.3-0.6c0.1-0.4-0.1-0.9-0.4-1.2
		c-0.6-0.4-1.2-0.7-1.8-0.9c-0.7-0.2-1.3-0.3-2-0.2c-0.7,0-1.3,0.2-2,0.4c-0.6,0.2-1.2,0.5-1.7,0.9l-6.2,0.5
		c-2.1,0.2-4.1,0.4-6.2,0.7c-1,0.2-2.1,0.4-3.1,0.8c-1,0.4-2,0.8-2.9,1.3c-1.8,1-3.5,2.2-5.1,3.6c-1.4,0.4-2.7,1-4.1,1.6
		c-1.4,0.6-2.7,1.3-4,2c-1.3,0.7-2.6,1.6-3.8,2.5c-1.2,0.9-2.3,1.9-3.3,3.1c-1,0.6-1.8,1.3-2.7,2c-0.9,0.7-1.8,1.4-2.7,2.1
		c-1.8,1.5-3.5,2.9-5.2,4.5c-1.7,1.5-3.4,3.1-5,4.8c-1.6,1.6-3.3,3.2-4.5,5.2c-1.3,0.6-2.2,1.5-3.2,2.4c-1,0.9-1.8,1.9-2.6,3
		c-0.8,1-1.5,2.1-2.2,3.3c-0.1,0.2-0.2,0.3-0.3,0.5c-1.2,2.2-3.1,3.8-5.5,4.4c-0.6,0.2-1.3,0.3-2.1,0.5L0,89.8L1.6,91
		c0.7,0.6,1.6,0.9,2.5,1.2c-0.2,0.1-0.4,0.1-0.6,0.2c-0.5,0.2-1,0.4-1.4,0.8c-0.2,0.2-0.4,0.4-0.6,0.6c-0.1,0.1-0.2,0.2-0.3,0.3
		L1,94.2c-0.1,0.1-0.1,0.2-0.2,0.3l-0.1,0.2l0.1,0.1c0.2,0.2,0.4,0.3,0.5,0.4l0.5,0.3c0.3,0.2,0.6,0.4,0.9,0.6
		c0.6,0.4,1.3,0.9,2,1.1c0.8,0.2,1.6,0.3,2.4,0.3c0.2,0,0.4,0,0.6-0.1c-0.1,0.1-0.2,0.2-0.2,0.3c-0.3,0.3-0.5,0.7-0.8,1.1
		c-0.2,0.4-0.5,0.7-0.6,1.2c0,0.1-0.1,0.2-0.1,0.5l0,0.1c0,0.1,0,0.3,0.1,0.3c0,0.1,0.1,0.2,0.1,0.2c0,0,0.1,0.1,0.1,0.1
		c0.1,0.1,0.2,0.2,0.3,0.2c0.3,0.1,0.5,0.2,0.8,0.2l1.3,0.2c0.9,0.1,1.7,0.4,2.5,0.6c0.9,0.3,1.8,0.4,2.7,0.3c0.3,0,0.6-0.1,0.9-0.2
		c-0.1,0.3-0.2,0.6-0.3,0.9c-0.1,0.4-0.2,0.8-0.3,1.3c0,0.2-0.1,0.4,0,0.8c0,0.1,0,0.2,0.2,0.5c0,0.1,0.1,0.1,0.2,0.2
		c0.1,0.1,0.2,0.1,0.2,0.1c0.1,0.1,0.2,0.1,0.2,0.1c0.2,0,0.3,0,0.5,0c0.9-0.1,1.7-0.5,2.4-0.7c0.4-0.1,0.8-0.2,1.2-0.3
		c-0.1,0.1-0.1,0.1-0.2,0.2l-0.3,0.3c-0.2,0.2-0.4,0.4-0.6,0.6c-0.4,0.4-0.9,0.7-1.3,1c-0.2,0.2-0.5,0.2-0.8,0.4
		c-0.3,0.2-0.5,0.4-0.8,0.6c-0.5,0.4-0.9,0.9-1.3,1.3c-0.8,1-1.5,2-2,3.1c-0.6,1.1-1,2.3-1.2,3.6c-0.1,0.3,0,0.7,0,1
		c0,0.3,0,0.6,0.1,0.9c0.1,0.6,0.2,1.2,0.3,1.8c0.3,1.2,0.6,2.3,1,3.5c0.2,0.6,0.4,1.1,0.7,1.7c0.3,0.6,0.7,1,1.2,1.4
		c0.5,0.4,1.1,0.7,1.8,0.8c0.7,0.1,1.3,0.1,1.9,0c2.5-0.2,4.9-1.2,6.9-2.6c0.3-0.2,0.5-0.4,0.7-0.6c0.3-0.2,0.5-0.5,0.8-0.8
		c0.4-0.6,0.7-1,1-1.6c0.6-1,1.2-2.1,1.7-3.2c0.5-1.1,1-2.1,1.6-3.1c0.3-0.5,0.6-1,0.9-1.4c0.1-0.2,0.4-0.5,0.6-0.7
		c0.2-0.2,0.4-0.5,0.6-0.7c0.7-1,1.3-2,1.9-3.1c0.3-0.5,0.5-1.1,0.8-1.6c0.2-0.6,0.6-1.1,0.6-1.8c0.1-0.1,0.3-0.3,0.5-0.4
		c0.6-0.3,1.3-0.4,2-0.5c0.7-0.1,1.4-0.2,2.1-0.5c0.3-0.1,0.7-0.3,1-0.4c0.3-0.1,0.6-0.3,0.9-0.5c0,0.1,0,0.2,0.1,0.3
		c0,0.1,0.1,0.2,0.1,0.3c0,0.1,0.1,0.1,0.1,0.2c0,0,0.1,0.1,0.1,0.1l0.1,0.1l0,0c0,0,0.1,0.1,0.2,0.1c0.1,0.1,0.2,0.1,0.2,0.1
		c0.1,0,0.1,0,0.1,0c0.1,0,0.1,0,0.2,0c0.1,0,0.2,0,0.2,0c0.1,0,0.2,0,0.3-0.1c0.4-0.1,0.7-0.2,1.1-0.4c0.6-0.4,1.2-0.9,1.8-1.2
		c0.6-0.3,1.3-0.5,2-0.7c0.7-0.1,1.4-0.3,2.1-0.6c0.7-0.3,1.4-0.6,2-1.1c0.1-0.1,0.2-0.2,0.3-0.3c0,0.1,0.1,0.1,0.1,0.2
		c0.1,0.1,0.2,0.3,0.4,0.4c0.1,0.1,0.2,0.1,0.4,0.2c0.1,0,0.2,0,0.3,0c0.1,0,0.1,0,0.1,0c0.3,0,0.5-0.1,0.7-0.1
		c0.4-0.1,0.7-0.3,1-0.5c0.6-0.4,1.2-1,1.8-1.4c0.6-0.4,1.3-0.6,2-0.8c0.7-0.2,1.4-0.5,2.1-0.8c0.3-0.2,0.7-0.4,1-0.6
		c0.3-0.3,0.7-0.5,1-1.1c0,0,0-0.1,0-0.1c0,0.1,0.1,0.1,0.1,0.2c0.2,0.2,0.6,0.4,0.9,0.4c0.4,0,0.6,0,0.8-0.1
		c0.4-0.1,0.8-0.3,1.1-0.5c0.7-0.4,1.1-1.1,1.7-1.6c0.5-0.5,1.1-0.9,1.8-1.4c0.6-0.4,1.3-0.9,1.7-1.6c0.2-0.3,0.4-0.7,0.6-1l0.1-0.3
		c0,0,0-0.1,0-0.1c0.1,0,0.1,0,0.2,0.1c0.2,0,0.4,0.1,0.6,0.1c0.4,0,0.8,0,1.2-0.1c0.8-0.2,1.6-0.5,2.3-1c0.7-0.5,1.2-1.2,1.5-1.9
		c0.1-0.2,0.2-0.3,0.3-0.5c0.4-0.1,4.4-0.5,6.2-1.1c1.8-0.6,3.6-1.4,5.1-2.7c1.4-1.2,2.8-2.5,4-3.9c0.4-0.4,0.5-0.6,0.8-1
		c0.3,0.8,0.5,1.3,0.5,2.1c0,0.9,0,1.8-0.1,2.7c-0.2,1.8-0.6,3.5-1.2,5.2l-0.4,1.3c-0.1,0.4-0.3,0.8-0.5,1.1c-0.2,0.4-0.4,0.6-0.7,1
		c-0.3,0.4-0.6,0.7-0.8,1.1c-1.1,1.5-2.1,3.1-3,4.6c-0.5,0.7-1,1.5-1.5,2.1c-0.6,0.7-1.2,1.5-1.6,2.4c-0.2,0.4-0.4,0.9-0.6,1.4
		c0,0.1-0.1,0.2-0.1,0.4c0,0.2-0.1,0.4,0,0.6c0,0.4,0.2,0.8,0.5,1.2c0.3,0.3,0.6,0.6,1,0.7c0.2,0.1,0.4,0.1,0.6,0.1
		c0.1,0,0.2,0,0.3,0c0.1,0,0.2,0,0.3,0c0.5-0.1,0.9-0.2,1.4-0.3c1.8-0.5,3.6-1.3,5.2-2.2c1.6-0.9,3.2-1.9,4.6-3
		c1.5-1.1,2.9-2.3,4.3-3.5c1.4-1.2,2.7-2.5,3.8-4c2.3-2.8,4.3-6,5.7-9.4c0.4-0.8,0.7-1.7,1-2.6c0.3-0.9,0.5-1.8,0.8-2.7l0.4-1.4
		c0-0.1,0.1-0.2,0.1-0.3l0-0.4l0.1-0.8c0-1-0.1-2-0.4-2.9c-0.1-0.2-0.1-0.5-0.2-0.7l-0.3-0.7c-0.2-0.5-0.5-0.9-0.7-1.3
		c-0.5-0.8-1.1-1.6-1.8-2.3c-1.3-1.4-2.7-2.6-4.4-3.6l-0.1,0l0,0c-1.1-0.4-2.3-0.4-3.3-0.3c-1.1,0.1-2.1,0.4-3.1,0.8
		c-1,0.4-1.9,0.8-2.8,1.3c-0.6,0.3-1.2,0.7-1.8,1.1c0.3-0.4,0.6-0.8,0.8-1.3c0.3-0.7,0.4-1.4,0.4-2.1c0-0.7,0-1.4,0-2
		c0-0.6,0.1-1,0.3-1.4c1.8-1.4,3.3-3,4.6-4.8c0.7-0.9,1.3-1.8,1.8-2.8c0.1-0.2,0.3-0.5,0.4-0.6c0,0,0.2-0.2,0.4-0.3
		c0.4-0.2,0.9-0.4,1.4-0.6c2-0.7,4.1-1.4,6.2-2.2c2-0.8,4-1.8,5.7-3.3c0.6-0.2,1.2-0.3,1.8-0.6c0.6-0.3,1.2-0.6,1.7-1
		c0.5-0.4,1-0.9,1.5-1.4c0.4-0.5,1-0.9,1.3-1.5c0,0,0.2-0.3,0.4-0.3c0.3,0,0.7,0,1,0.1c0.2,0,0.3,0,0.5,0.1c0.2,0,0.3,0.1,0.3,0.1
		l1.4,0.6l-0.3-1.6C127.6,40.2,127.3,39.7,127.1,39.2z M7.4,100.4C7.4,100.4,7.4,100.4,7.4,100.4C7.4,100.4,7.4,100.4,7.4,100.4
		c0.1,0.1,0.1,0.1,0.1,0.1C7.4,100.5,7.4,100.4,7.4,100.4z M84,44.3c0.4,0.2,0.6,0.5,0.8,0.9c0.2,0.4,0.4,0.8,0.7,1.3
		c0.2,0.5,0.4,1,0.6,1.5c0.2,0.5,0.5,1.1,0.7,1.7c0.1,0.6,0.2,1.2,0.1,1.8c-0.1,0.6-0.4,1.2-0.5,1.7c-0.1,0.6-0.1,1.1-0.1,1.6
		c0,0.4-1.1,0.6-1.7,0.4c-0.3-0.1-0.6-0.2-1-0.2c-0.3,0-0.5,0-0.8,0l0.4-0.3l0,0l0.2-0.1l0-0.2c-0.2-1.2-0.4-2.4-0.6-3.6
		c-0.2-1.2-0.3-2.4-0.4-3.6c0-0.6-0.1-1.2-0.1-1.8c0-0.3,0-0.6,0.1-0.9c0-0.1,0.1-0.3,0.1-0.4C82.9,43.6,84,44.3,84,44.3z M80.6,78
		c-0.5-0.2-1-0.4-1.5-0.5c-0.5-0.2-1.1-0.3-1.6-0.3c-0.3,0-0.6-0.1-0.9,0c-0.1,0-0.2,0-0.3,0c0.5-1,1-2,1.4-3c0.3-0.7,0.6-1.3,0.8-2
		l0.2-0.5c0.1-0.2,0.1-0.4,0.2-0.6c0.1-0.4,0.1-0.7,0.2-1.1c0.1-0.4,0.1-0.7,0.1-1.1c0.4,0.3,0.9,0.5,1.3,0.6
		c0.3,0.1,1.3,0.2,1.6,0.3c0.1,0,0.3,0.1,0.4,0.1l0.3,0c0.2,0,0.4,0.1,0.7,0.2c0.2,0.1,0.5,0.3,0.6,0.5c0.1,0.2,0.2,0.5,0.1,0.8
		c-0.1,0.3-0.2,0.6-0.3,0.9c-0.3,0.6-0.5,1.1-0.7,1.7c-0.2,0.6-0.4,1.1-0.6,1.7c-0.1,0.6-0.3,1.1-0.4,1.7c-0.1,0.5-0.2,0.9-0.4,1.4
		c-0.1-0.1-0.2-0.1-0.3-0.2C81.1,78.2,80.9,78.1,80.6,78z M80.7,79.7C80.7,79.7,80.7,79.7,80.7,79.7C80.7,79.7,80.7,79.7,80.7,79.7
		L80.7,79.7C80.7,79.7,80.7,79.7,80.7,79.7C80.7,79.7,80.7,79.7,80.7,79.7z M65.8,66.5c-0.1-0.4-0.2-0.7-0.4-0.9
		c-0.3-0.5-0.7-0.9-1-1.3c-0.3-0.4-0.7-0.7-1-1.1c-0.3-0.4-0.6-0.7-0.8-1.1c0.2-1.2,0.9-2.3,1.6-3.3c0.7-1,1.5-2,2.2-3.1
		c0.7-1.1,1.4-2.1,2-3.2c0.6-1,1.4-1.9,1.9-3c0.4,0.2,0.6,0.3,1.1,0.6c1.2,0.8,2.4,1.3,3.7,1.9c1.2,0.6,2.5,1.1,3.8,1.4
		c1.2,0.4,2.5,0.7,3.8,0.8c0,0.1,0,0.1,0,0.2c-0.5,0.3-1.1,0.7-1.6,1c-0.3,0.2-0.6,0.4-0.9,0.6c-0.1,0.1-0.1,0.1-0.2,0.2
		c-0.1,0.1-0.2,0.2-0.2,0.4c-0.1,0.2-0.1,0.4-0.1,0.6c-0.3,1.4-0.5,2.8-0.8,4.1c-0.5,2.8-0.9,5.5-1.4,8.3c-0.1,0.3-0.1,0.7-0.2,1
		c0,0.1-0.1,0.3-0.1,0.4L77,71.4c-0.2,0.6-0.5,1.2-0.8,1.9c-0.6,1.2-1.2,2.5-1.9,3.7c-0.4,0.7-0.7,1.4-1.1,2.1
		c-0.6-0.8-1.1-1.7-1.7-2.5c-0.7-1.1-1.3-2.2-2-3.3c-0.7-1.1-1.3-2.2-2-3.2c-0.6-1-1.3-2-1.8-3C65.8,66.9,65.8,66.7,65.8,66.5z
		 M53.6,58.8c-0.1-0.3-0.3-0.5-0.5-0.8c-0.2-0.2-0.3-0.5-0.5-0.7c-0.1-0.2-0.3-0.3-0.4-0.4c0-0.2,0.1-0.4,0.1-0.6
		c0.1-0.4,0.4-0.7,0.7-1c0.3-0.3,0.7-0.5,1-0.8c0.4-0.3,0.6-0.6,0.9-0.9c0.1-0.2,0.3-0.3,0.4-0.5c0.1-0.1,0.2-0.2,0.2-0.3
		c0,0,0,0,0,0l0.1-0.1c0.2-0.3,0.5-0.7,0.7-1c0.3-0.6,0.6-1.2,0.8-1.9c0,0,0,0,0.1,0c0.6-0.1,1.2-0.4,1.8-0.4c0.6,0,1.2,0.1,1.8,0.2
		c0.6,0.1,1.2,0.1,1.8,0.1c0.6,0,1.2,0,1.8-0.2c1-0.2,2-0.6,3-1.2l0.1,0c0.8,0.2,1.2,0.4,1.9,0.8c-0.9,0.8-1.5,1.7-2.2,2.6
		c-0.9,1-1.7,2-2.4,3.1c-0.7,1.1-1.3,2.2-1.8,3.5c-0.2,0.6-0.5,1.2-0.6,1.9c0,0.1,0,0.2-0.1,0.3c-2.2-0.5-4.3-0.9-6.5-1.2l-1.7-0.2
		l-0.4,0l0,0l0,0c0,0-0.1,0-0.1,0C53.7,58.9,53.7,58.9,53.6,58.8C53.6,58.9,53.6,58.8,53.6,58.8z M53.6,60.5
		C53.6,60.5,53.6,60.5,53.6,60.5c-0.1,0-0.1,0-0.1,0L53.6,60.5L53.6,60.5C53.6,60.5,53.6,60.5,53.6,60.5z M48.1,69.5
		c0.1,1.2,0.2,2.5,0.2,3.7c0,0,0,0,0,0c-0.5-0.2-1-0.3-1.4-0.5c-0.5-0.1-1-0.2-1.5-0.3l-1.5-0.3c-0.5-0.1-1-0.1-1.4-0.2l-0.1,0
		c-0.8-0.1-1.7-0.3-2.4-0.7c-0.4-0.2-0.7-0.4-1.1-0.7c-0.2-0.2-0.4-0.3-0.6-0.5c0.3-0.7,0.6-1.4,0.8-2.2c0.3-0.8,0.6-1.6,0.9-2.5
		c0.2-0.8,0.4-1.7,0.6-2.6c0.1-0.4,0.3-1,0.6-1.4c0.1-0.3,0.4-0.5,0.6-0.7c0.3-0.2,0.6-0.4,0.9-0.6c0.4-0.3,0.8-0.5,1.2-0.6
		c0.9-0.2,1.9-0.1,2.7-0.3c0.9-0.2,1.7-0.4,2.5-0.9c0.5-0.3,0.9-0.6,1.4-0.9l0.1,0.2c0.2,0.5,0.4,0.7,0.6,0.9
		c0.2,0.2,0.5,0.4,0.7,0.6c0.2,0.1,0.4,0.3,0.6,0.4c-0.2,0.2-0.3,0.4-0.5,0.6C51.5,61,50.9,62,50.4,63c-0.5,1-1,2.1-1.4,3.1
		c-0.2,0.5-0.4,1.1-0.6,1.6c-0.1,0.3-0.2,0.6-0.2,0.9c0,0.2-0.1,0.3,0,0.5L48.1,69.5z M34.2,81c0,0.4,0,0.8,0,1.2
		c0,0.2-0.1,0.4-0.1,0.6c0,0,0,0,0,0.1c-0.5-0.5-1-0.8-1.6-1.2c-0.6-0.3-1.2-0.7-1.8-0.9c-0.6-0.2-1.4-0.3-2-0.4
		c-0.3-0.1-0.7-0.2-1-0.4c-0.2-0.1-0.5-0.3-0.6-0.4c0.1-0.6,0.4-1.2,0.6-1.9c0.2-0.7,0.4-1.3,0.5-2c0.1-0.7,0.1-1.4,0.1-2.1
		c0-0.5,0.2-1.6,0.2-1.6l0.1-0.1c0.4-0.4,0.8-0.8,1.2-1.1c0.4-0.4,0.9-0.6,1.3-0.8c0.5-0.2,1-0.3,1.5-0.5c0.5-0.2,1-0.4,1.5-0.6
		c0.5-0.2,1-0.4,1.4-0.7c0.5-0.3,0.9-0.6,1.3-0.9c0.4-0.3,0.8-0.7,1.2-1c-0.1,0.4-0.2,0.8-0.3,1.2c-0.2,0.9-0.3,1.8-0.3,2.8l0,0.4
		l0.2,0.1c0.4,0.2,0.8,0.3,1.2,0.5c0.4,0.2,0.8,0.4,1.1,0.6c0.5,0.2,0.9,0.6,1.3,0.9c-0.6,0.5-1.2,1-1.8,1.5c-0.7,0.7-1.3,1.3-1.9,2
		c-0.6,0.7-1.2,1.4-1.7,2.2c-0.5,0.8-1,1.6-1.5,2.4L34.2,81L34.2,81z M27,87.2c0,0.4-0.1,0.8-0.2,1.2c-0.8-0.3-1.5-0.5-2.2-0.7
		c-0.8-0.2-1.6-0.3-2.4-0.3c-0.8,0-1.7,0.1-2.5,0c-0.4-0.1-0.8-0.2-1.2-0.4c-0.2-0.1-0.3-0.2-0.5-0.3c-0.1-0.1-0.3-0.3-0.3-0.3
		l0.1,0.1c0-0.3,0-0.6,0.1-0.9c0.1-0.3,0.2-0.7,0.3-1c0.2-0.7,0.6-1.4,0.9-2.2c0.3-0.7,0.6-1.5,0.9-2.3c0.2-0.5,0.8-1.6,0.8-1.6
		c0.3-0.1,0.6-0.2,0.8-0.2c0.3,0,0.5,0,0.8,0.2c0.3,0.1,0.5,0.3,0.8,0.4c0.3,0.1,0.5,0.2,0.8,0.2c0.5,0.1,1.1,0.1,1.6-0.1
		c0.2-0.1,0.4-0.2,0.6-0.3c0.1,0.3,0.1,0.6,0.2,1l0,0.2l0.1,0.1c0.4,0.3,0.7,0.4,1,0.6c0.3,0.2,0.6,0.4,0.8,0.6
		c-0.4,0.6-0.7,1.2-0.9,1.8c-0.2,0.7-0.4,1.4-0.4,2.1C26.9,85.7,27,86.5,27,87.2z M25.8,91.4c-0.2,0.7-0.3,1.4-0.4,2.1
		c-0.1,0.7,0,1.5,0,2.2c0,0.4,0.1,0.7,0.2,1.1c0,0.2,0.1,0.3,0.1,0.5c-2.1-0.5-4.2-1.1-6.3-1.8l-3.2-1c0.4-0.3,0.7-0.7,0.9-1
		c0.4-0.6,0.8-1.2,1-1.8c0.3-0.6,0.5-1.3,0.6-2c0.1-0.6,0.1-1.3-0.1-2c0.3,0.1,0.5,0.1,0.7,0.2c0.8,0.2,1.6,0.7,2.4,1
		c0.8,0.3,1.7,0.3,2.5,0.3c0.7,0,1.5-0.1,2.2-0.4c-0.1,0.2-0.1,0.3-0.2,0.5C26.2,90,25.9,90.7,25.8,91.4z M26.3,99
		c0.2,0.1,0.4,0.1,0.6,0.2c1.3,0.4,2.6,0.7,4,1c0.9,0.2,1.9,0.3,2.8,0.4c-0.6,0.5-1.1,1-1.6,1.6c-0.4,0.4-0.7,0.8-1,1.2
		c-0.1,0.2-0.3,0.4-0.4,0.6c-0.1,0.1-0.1,0.1-0.2,0.2c-0.1,0.1-0.2,0.1-0.3,0.2c-0.8,0.6-1.6,1.5-2.6,1.8c-0.5,0.2-1.1,0.2-1.6,0.2
		c-0.3,0-0.6,0-0.9,0c-0.2-0.4-0.4-0.7-0.6-1.1c-0.1-0.2-0.2-0.5-0.3-0.7c0.1-0.1,0.2-0.2,0.4-0.3c0,0,0.1-0.1,0.1-0.2l0.1-0.1l0,0
		l0.1-0.1c0.1-0.2,0.2-0.4,0.3-0.6c0.3-0.7,0.6-1.5,0.8-2.3C26.1,100.3,26.2,99.7,26.3,99z M83.6,67.3c-0.1,0.1-0.3,0.2-0.4,0.4
		c-0.1,0.1-0.3,0.2-0.5,0.4c-0.2,0-0.3-0.1-0.4-0.1c-0.3,0-1.3-0.1-1.6-0.1c-0.3,0-0.6,0-1,0.1c-0.2,0-0.3,0.1-0.5,0.1
		c0.3-2.2,0.5-4.4,0.8-6.6c0.2-1.4,0.3-2.8,0.5-4.2l0.1-0.5c0,0,0,0,0,0c0.1,0,0.1-0.1,0.2-0.2c0.2-0.2,0.5-0.4,0.8-0.7l1-0.8l0,0
		c0.9,0.9,1.9,1.6,2.7,2.3c0.4,0.3,0.8,0.6,1,1c0.2,0.5,0.1,1.2,0,1.8c-0.2,0.6-0.5,1.1-0.8,1.7c-0.3,0.6-0.5,1.1-0.8,1.7
		c-0.5,1.1-0.8,2.3-1,3.5C83.7,67.2,83.6,67.3,83.6,67.3z M76.6,40.9L76.6,40.9L76.6,40.9L76.6,40.9c0.6-0.3,1.2-0.6,1.8-0.7
		c0.6-0.2,1.2-0.3,1.8-0.3c0.6,0,1.2,0.1,1.8,0.3c0.6,0.2,1.1,0.5,1.6,0.9c0.1,0.1,0.2,0.3,0.2,0.5c0,0.1-0.1,0.2-0.1,0.2
		c0,0,0,0-0.1,0.1L83.4,42c-0.5,0.4-1,0.8-1.4,1.4c-0.1,0.1-0.2,0.3-0.3,0.5c-0.1,0.2-0.1,0.4-0.2,0.5c-0.1,0.3-0.1,0.7-0.1,1
		c0,0.6,0,1.3,0.1,1.9c0.2,2.2,0.6,4.3,1,6.5c-1-0.7-2-1.3-3.1-1.9c-1.2-0.7-2.5-1.2-3.8-1.7c-1.3-0.4-2.6-0.9-4-1.2
		c-1.2-0.3-2.5-0.6-3.6-1.2c0.2-0.4,0.8-0.9,1.2-1.2c0.6-0.5,1.1-1,1.6-1.5c0.5-0.5,1-1.1,1.5-1.7c0.4-0.6,0.9-1.2,1.2-1.9
		C74.7,41.3,75.7,41.1,76.6,40.9z M58.8,45.1c0.9-0.5,1.8-0.9,2.7-1.3c0.9-0.4,1.9-0.6,2.9-0.8c2-0.4,4-0.7,6.1-1.1
		c0.9-0.1,1.7-0.3,2.6-0.4c-0.5,0.3-1,0.6-1.4,0.9c-0.6,0.4-1.2,0.9-1.8,1.4c-0.6,0.5-1.1,1.1-1.5,1.7c-0.2,0.3-0.4,0.7-0.6,1.1
		c-0.1,0.3-0.3,0.7-0.3,1.1c-1.1-0.3-2.1-0.3-3.2-0.2c-0.6,0-1.2,0.2-1.7,0.3c-0.6,0.1-1.1,0.3-1.7,0.6c-0.3,0.1-0.6,0.2-0.8,0.3
		c-0.3,0.1-0.6,0.1-0.9,0.1c-0.6,0-1.1-0.4-1.7-0.6C56.9,48,56.3,48,55.8,48c-0.3,0-0.6,0-0.9,0.1c-0.1,0-0.1,0-0.2,0
		C56,47,57.3,46,58.8,45.1z M42.2,54.9c1.1-0.9,2.4-1.6,3.6-2.4c1.3-0.7,2.5-1.4,3.9-2c0.7-0.3,1.3-0.6,2-0.9c0.7-0.3,1.4-0.5,2-0.7
		l0.2-0.1l0.1-0.1c0,0,0.1-0.1,0.1-0.1c0.4,0.4,1,0.6,1.5,0.8c0.2,0.1,0.4,0.1,0.6,0.2c-0.4,0.3-0.8,0.5-1.1,0.9
		c-0.3,0.3-0.6,0.6-0.9,0.9L54,51.6c0,0-0.1,0.2-0.1,0.2c0,0.1-0.1,0.1-0.1,0.2l-0.3,0.5c-0.2,0.4-0.4,0.7-0.6,1.1
		c-0.2,0.4-0.3,0.8-0.5,1.2c-0.2,0.4-0.4,0.7-0.7,1l-0.5,0.4c-0.9-0.1-1.8,0-2.6,0.2c-0.9,0.2-1.7,0.6-2.5,1
		c-0.8,0.3-1.5,1.1-2.3,1.4c-0.4,0.2-0.8,0.3-1.3,0.3c-0.3,0-0.7,0-1,0c-0.1-0.1-0.2-0.1-0.4-0.2c-0.2-0.1-0.4-0.2-0.6-0.4
		c-0.4-0.3-0.8-0.6-1.4-0.9l0,0C40.1,56.7,41.1,55.8,42.2,54.9z M24.4,69.6c1.2-1.1,2.5-2.2,3.8-3.3c1.7-1.5,3.5-2.9,5.3-4.3
		c0.9-0.7,1.8-1.4,2.7-2.1c0.9-0.7,1.7-1.3,2.6-1.8c0,0,0.4,0.3,0.4,0.6c0.1,0.3,0.2,0.6,0.4,0.8c0.1,0.1,0.1,0.2,0.2,0.3
		c0.2,0.3,0.3,0.7,0.2,1c-0.2,0.4-0.4,1-0.6,1.4c-0.4,0.8-0.8,1.6-1.1,2.4c0,0,0,0,0,0c-0.9,0.2-1.7,0.5-2.5,0.8
		c-0.5,0.2-1,0.4-1.4,0.7c-0.4,0.3-0.9,0.6-1.3,0.9c-0.4,0.3-0.9,0.6-1.2,1c-0.4,0.4-0.8,0.8-1.2,1.1c-0.4,0.3-0.9,0.6-1.4,0.8
		c-0.4,0.1-0.7,0.2-1.1,0.3c-0.6-0.3-1.3-0.4-2-0.5c-0.4,0-0.7-0.1-1.1,0C24.7,69.8,24.3,69.7,24.4,69.6z M23.1,70.8
		c0.2-0.2,0.5-0.4,0.7-0.6c0.3,0.2,0.6,0.4,0.9,0.6c0.3,0.2,0.7,0.4,1,0.5c0.5,0.2,1.1,0.4,1.6,0.5c-0.3,0.5-0.5,0.9-0.7,1.4
		c-0.3,0.7-0.5,1.4-0.6,2.1c-0.1,0.7-0.1,1.3-0.1,2c-0.2-0.1-0.4-0.1-0.6-0.2c-0.5-0.1-0.9-0.1-1.4,0c-0.2,0-0.5,0.1-0.8,0.2
		c-0.3,0.1-0.5,0.2-0.8,0.3c-0.3,0.1-0.5,0.1-0.8,0c-0.2-0.1-0.4-0.3-0.4-0.3c-0.1-0.3-0.3-0.5-0.5-0.7c-0.2-0.2-0.5-0.3-0.7-0.5
		c-0.3-0.1-0.5-0.3-0.8-0.4c-0.2-0.1-0.4-0.1-0.6-0.1C19.9,73.9,21.5,72.3,23.1,70.8z M13.9,82.1c0.8-1,1.6-2,2.3-3.1
		c0.7-1,1.3-2,2-2.9c0.1,0.2,0.2,0.4,0.2,0.5c0.1,0.3,0.3,0.5,0.5,0.7c0.2,0.2,0.4,0.4,0.6,0.6c0.1,0.1,0.2,0.1,0.3,0.2
		c-0.1,0.1-0.2,0.2-0.3,0.2c-0.3,0.3-0.6,0.6-0.9,1c-0.6,0.7-1.1,1.4-1.5,2.2c-0.3,0.7-0.6,1.4-0.7,2.1c-0.4,0-0.8,0.1-1.2,0.1
		c-0.6,0.1-1.1,0.2-1.7,0.3c-0.5,0.1-1.1,0.3-1.6,0.5C12.6,83.7,13.3,82.9,13.9,82.1z M9,87.7c0.7-0.7,1.4-1.4,2-2.2
		c0.4,0.1,0.7,0.1,1.1,0.2c0.6,0,1.2,0,1.8-0.2c0.6-0.1,1.2-0.3,1.7-0.6c0.2-0.1,0.4-0.3,0.6-0.4c0,0.3-0.1,0.7-0.1,1
		c0,0.5,0.2,1,0.5,1.5l0.1,0.1l0,0c0.3,0.2,0.5,0.3,0.7,0.3c0.2,0.1,0.4,0.1,0.7,0.2c0.1,0-0.5,1.1-0.8,1.6
		c-0.4,0.6-0.7,1.2-0.9,1.8c-0.3,0.6-0.5,1.2-0.6,1.9c-0.1,0.5-0.2,1-0.2,1.5l0,0c-1.3-0.4-2.5-0.8-3.8-1.2
		c-0.1-0.1-0.2-0.3-0.3-0.5c-0.1-0.2-0.3-0.5-0.4-0.7c-0.3-0.5-0.5-1-0.8-1.4c-0.3-0.5-0.5-1-0.8-1.5c-0.1-0.3-0.3-0.5-0.4-0.8
		C9,88.1,8.8,87.9,9,87.7z M8.6,89C8.6,89,8.6,89,8.6,89c0.1,0.1,0.2,0.3,0.2,0.5c0.1,0.3,0.3,0.6,0.4,1c-0.8,0.1-2.6,0.3-4.3,0
		C7.1,89.7,8.5,89,8.6,89z M7,95.6c-0.6,0.1-1.2,0.2-1.8,0.1c-0.6,0-1.3,0-2-0.2c-0.3-0.1-0.6-0.2-0.9-0.4c-0.1-0.1-0.3-0.2-0.4-0.3
		c0,0,0,0,0,0l0,0c0.1,0,0.2-0.1,0.3-0.1l0.7-0.2c0.5-0.1,0.9-0.4,1.3-0.6C4.6,93.6,5,93.3,5.4,93c0.2-0.2,0.5-0.4,0.7-0.6
		c0.3,0,0.5,0,0.8,0c1,0,2-0.1,2.7-0.2c0.2,0,0.3-0.1,0.4-0.2c0.1,0.1,0.1,0.3,0.2,0.4c0.1,0.2,0.3,0.5,0.4,0.7
		c0.1,0.2,0.2,0.4,0.4,0.7c-0.2,0.1-0.3,0.2-0.5,0.3L10,94.5c-0.5,0.3-0.9,0.5-1.3,0.7l0.1,0C8.1,95.4,7.6,95.5,7,95.6z M15.1,100.1
		c-0.1,0.2-0.2,0.3-0.3,0.4c-0.1,0.1-0.1,0.1-0.1,0.1c0,0-0.1,0.1-0.1,0.1c-0.2,0.1-0.5,0.3-0.9,0.4c-0.3,0.1-0.7,0.2-1.1,0.2
		c-0.4,0.1-0.8,0.2-1.2,0.2c-0.8,0.1-1.7,0-2.5-0.3c-0.4-0.1-0.8-0.4-1.1-0.6c0,0,0,0-0.1,0c0.4-0.6,0.7-1.4,1.1-2.1
		C9,98,9.2,97.5,9.4,96.9c0,0,0.1,0,0.1-0.1l0.1,0c0.5-0.4,0.9-0.8,1.2-1.3c0.3-0.4,0.5-0.9,0.7-1.3c2,0.7,4,1.4,6.1,2.1
		C16.7,97.7,16,99.1,15.1,100.1z M17.9,105.2c-0.7,0-1.4-0.1-2-0.2l0-1.1c0-0.5,0-1.1,0-1.6c0,0,0,0,0,0c0.1-0.1,0.3-0.2,0.3-0.3
		c0.2-0.2,0.3-0.4,0.5-0.6c0.6-0.8,0.9-1.7,1.1-2.6c0.2-0.8,0.2-1.6,0.1-2.4c2.6,0.9,5.2,1.7,7.8,2.5c-0.4,0.5-0.8,1-1.1,1.5
		c-0.5,0.7-0.9,1.4-1.2,2.1c-0.1,0.2-0.2,0.4-0.2,0.5l-0.1,0.1l0,0l0,0c0,0,0,0,0,0c0,0,0,0,0,0c-0.1,0.1-0.5,0.3-0.8,0.5l-1,0.5
		c-0.3,0.2-0.7,0.4-1.1,0.5C19.5,104.9,18.7,105.2,17.9,105.2z M33.3,109.6c-0.7,0.9-1.4,1.8-2.2,2.7c-0.2,0.2-0.4,0.4-0.6,0.6
		c-0.2,0.2-0.4,0.4-0.6,0.6c-0.5,0.5-0.8,1-1.2,1.5c-0.7,1-1.2,2.1-1.8,3.1l-1.6,3.1c-0.3,0.5-0.6,1-0.8,1.5
		c-0.1,0.2-0.3,0.4-0.4,0.5c-0.2,0.2-0.4,0.4-0.6,0.5c-0.9,0.7-1.8,1.3-2.8,1.8c-1,0.5-2,1-3.1,1.2c-0.5,0.1-1.1,0.2-1.6,0.2
		c-0.5,0-1-0.2-1.5-0.5c-0.5-0.3-0.8-0.7-1.1-1.2c-0.3-0.5-0.4-1.1-0.6-1.6c-0.3-1.1-0.5-2.3-0.6-3.4c0-0.6-0.1-1.2,0-1.7
		c0-0.3,0-0.6,0-0.8c0-0.3,0.1-0.5,0.1-0.8c0.5-2.1,1.6-4.2,2.9-6c0.3-0.5,0.7-0.9,1-1.3c0.4-0.4,0.7-0.7,1.3-1.1
		c0.5-0.4,0.9-0.9,1.2-1.4c0.2-0.3,0.3-0.5,0.5-0.8c0.1-0.2,0.3-0.6,0.4-0.8l0,0c0.3,0,0.6-0.1,0.9-0.1c0.8,0,1.7,0,2.5-0.3
		c0.2,0,0.3-0.1,0.5-0.2c0,0.2,0,0.4,0,0.6c0.1,0.7,0.3,1.4,0.6,2.1l0.2,0.5l0.5,0c0.7,0,1.2-0.3,1.7-0.6c0.5-0.3,0.9-0.7,1.4-0.9
		c0.5-0.2,1-0.4,1.6-0.5c0.6-0.1,1.1-0.2,1.7-0.5c0.1-0.1,0.3-0.1,0.4-0.2c0.1-0.1,0.3-0.2,0.4-0.3c0,0.1,0,0.2,0,0.3
		c0,0.4,0.1,0.7,0.3,1.2c0,0.1,0.1,0.2,0.2,0.4c0,0.1,0.2,0.2,0.2,0.2c0,0.1,0.4,0.2,0.5,0.2c0.2,0,0.3,0,0.5,0
		c0.1,0,0.2-0.1,0.3-0.1c0.4-0.2,0.8-0.4,1.1-0.6C34.7,107.8,34,108.7,33.3,109.6z M33.6,105.8C33.5,105.8,33.6,105.8,33.6,105.8
		C33.5,105.8,33.5,105.8,33.6,105.8z M41.8,101.3c-0.2,0.3-0.4,0.6-0.6,0.8c-0.1,0.1-0.2,0.3-0.3,0.4l-0.1,0.1c0,0,0,0,0,0
		c0,0,0,0-0.1,0c-0.2,0.1-0.4,0.3-0.7,0.5c-0.3,0.2-0.5,0.4-0.8,0.5c-0.6,0.3-1.1,0.7-1.7,1.2c-0.6,0.4-1.2,0.8-1.8,0.9
		c-0.7,0.2-1.4,0.1-2,0.1c0,0,0,0,0,0c-0.1-0.2-0.2-0.4-0.3-0.7c-0.1-0.3-0.3-0.6-0.4-1c0.3-0.3,0.5-0.7,0.7-1
		c0.4-0.8,0.8-1.7,1-2.6c0.1,0,0.3,0,0.4,0c2.4,0.1,4.9,0.2,7.3,0.1C42.2,100.9,42,101.1,41.8,101.3z M35.1,98.9
		c-1.4,0-2.6-0.1-3.9-0.4c-1.3-0.2-2.6-0.5-3.9-0.8c-0.3-0.1-0.6-0.2-0.9-0.2c0.5-1.2,0.8-2.5,1-3.7c0.1-0.7,0.1-1.4,0.2-2.1
		c0-0.7,0-1.4-0.1-2.2c-0.1-0.7-0.1-1.5,0.1-2.2c0.2-0.7,0.6-1.4,0.8-2.1c0.2-0.7,0.3-1.4,0.3-2.1c0-0.6,0-1.1-0.2-1.7
		c0.4,0.4,0.9,0.7,1.4,1c0.6,0.3,1.3,0.5,2,0.7c0.6,0.1,1.7,0.4,1.7,0.4l0.2,0.3c0.2,0.2,0.4,0.6,0.6,1c0.2,0.3,0.3,0.7,0.5,1.1
		l0.9,2.2c0.6,1.4,1.4,2.8,2.1,4.2c0.7,1.4,1.6,2.7,2.5,4c0.5,0.6,0.9,1.3,1.4,1.9c0.3,0.3,0.6,0.7,0.9,1C40.1,99,37.6,99,35.1,98.9
		z M43.5,104.2C43.5,104.2,43.4,104.2,43.5,104.2C43.4,104.1,43.4,104.2,43.5,104.2L43.5,104.2C43.5,104.2,43.5,104.2,43.5,104.2
		C43.5,104.2,43.5,104.2,43.5,104.2C43.5,104.2,43.5,104.2,43.5,104.2z M52.7,98.8c-0.2,0.3-0.4,0.6-0.6,0.8c0,0-0.1,0.1-0.2,0.1
		l-0.4,0.2c-0.5,0.3-1.1,0.7-1.7,1.1c-0.6,0.4-1.1,0.8-1.7,1.3c-0.6,0.5-1.2,0.8-1.8,1.1c-0.7,0.2-1.4,0.2-2.1,0.3
		c-0.3,0.1-0.7,0.2-1,0.3l0,0c-0.2-0.3-0.3-0.6-0.5-0.9c0,0,0,0,0-0.1c0.1-0.3,0.2-0.7,0.3-1c0.1-0.4,0.2-0.9,0.3-1.3
		c0.6,0,1.3-0.1,1.9-0.2c0.7-0.1,1.4-0.3,2-0.5c1.3-0.3,2.6-0.7,3.9-1.2c0.6-0.2,1.2-0.4,1.8-0.6C53,98.4,52.9,98.6,52.7,98.8z
		 M50.8,97c-1.3,0.4-2.5,0.8-3.8,1.2c-0.6,0.2-1.3,0.3-1.9,0.5c-0.6,0.1-1.1,0.2-1.7,0.2c-0.5-1.2-1-2.5-1.6-3.7
		c-0.7-1.4-1.4-2.8-2.2-4.2c-0.8-1.3-1.6-2.7-2.5-4c-0.5-0.6-0.9-1.3-1.4-1.9c-0.2-0.3-0.5-0.6-0.7-1c-0.2-0.3-0.3-0.5-0.6-0.8
		c0.1-0.1,0.2-0.3,0.2-0.4c0.1-0.2,0.1-0.4,0.2-0.6c0.1-0.4,0.2-0.7,0.3-1.1c0.7-0.6,1.3-1.3,2-1.9c0.6-0.7,1.2-1.4,1.8-2.2
		c0.6-0.8,1.1-1.5,1.6-2.3c0.4-0.7,0.8-1.4,1.2-2c0.2,0.1,0.3,0.2,0.5,0.4l-0.1,0c0.5,0.4,1.1,0.6,1.6,0.7c0.5,0.1,1.1,0.1,1.6,0.1
		c1,0,2.1-0.1,3.1-0.5c0,0.4,0,0.7,0,1c0,0.3,0,0.5,0,0.8c0,0.1,0,0.3,0,0.4c0,0,0,0.1,0,0.1l0.1,0.8c0.3,0.5,0.6,1,0.8,1.7
		c0.2,0.6,0.4,1.3,0.6,1.9c0.2,0.7,0.3,1.3,0.5,2l0.2,1c0.1,0.3,0.1,0.7,0.2,0.9l0,0.4l0.3,0.3c0.8,0.7,1.6,1.3,2.4,2
		c0.8,0.7,1.6,1.3,2.4,2c0.8,0.7,1.5,1.4,2.3,2.1c0.6,0.7,1.3,1.4,1.7,2.3c-0.5,0.3-1.1,0.6-1.6,0.8C55.8,95.2,53.3,96.2,50.8,97z
		 M54.4,100.7C54.4,100.7,54.3,100.6,54.4,100.7C54.3,100.6,54.4,100.6,54.4,100.7C54.4,100.7,54.4,100.7,54.4,100.7z M62.9,94.1
		c-0.2,0.3-0.3,0.6-0.5,1c-0.1,0.2-0.1,0.3-0.2,0.5l-0.1,0.2l0,0.1c0,0,0,0,0,0c0,0-0.2,0.3-0.4,0.5c-0.2,0.2-0.5,0.4-0.7,0.7
		c-0.5,0.4-1,0.9-1.6,1.4c-0.5,0.5-1.1,0.9-1.8,1.2c-0.7,0.3-1.4,0.3-2.1,0.4c-0.3,0.1-0.7,0.2-1,0.3l-0.2,0.1
		c-0.1-0.1-0.2-0.3-0.3-0.5c0,0,0,0,0,0c0.1-0.2,0.1-0.4,0.2-0.6c0.1-0.5,0.2-1.1,0.2-1.6c1.6-0.6,3.2-1.2,4.8-1.9
		c1.3-0.6,2.5-1.2,3.7-2l0.4-0.3C63,93.8,62.9,93.9,62.9,94.1z M63.2,91.1c-0.3,0.2-0.5,0.4-0.8,0.6l-0.8,0.5
		c-0.5,0.3-1.1,0.6-1.6,0.9c-0.2-1-0.6-1.9-1.2-2.8c-0.6-0.9-1.3-1.8-2-2.6c-0.7-0.8-1.5-1.6-2.2-2.3c-0.7-0.6-1.4-1.3-2.1-1.9
		c0-0.2-0.1-0.5-0.1-0.7c-0.1-0.4-0.2-0.7-0.3-1.1c-0.2-0.7-0.4-1.4-0.6-2.1c-0.2-0.7-0.5-1.4-0.8-2c-0.3-0.6-0.6-1.1-1.1-1.7
		c0,0,0-0.1,0-0.1c0-0.2,0-0.3,0-0.5c0-0.3-0.1-0.6-0.1-0.9c-0.1-0.6-0.2-1.1-0.3-1.7c-0.2-1.1-0.4-2.2-0.5-3.3c0-0.1,0-0.3,0-0.4
		c0-0.1,0-0.2,0-0.3c0.1-0.2,0.2-0.5,0.3-0.7c0.2-0.5,0.5-1,0.8-1.4c0.6-0.9,1.3-1.8,1.9-2.7c0.7-0.9,1.3-1.8,1.9-2.7
		c0.1-0.2,0.3-0.4,0.4-0.5l0.1,0c0.6,0,1.1,0.1,1.7,0.1c2.2,0.1,6.5,0.1,6.5,0.3c-0.1,0.4-0.2,0.7-0.2,1.1l0,0.1l0,0.1
		c0.2,0.5,0.5,0.9,0.8,1.3c0.3,0.4,0.6,0.8,0.8,1.3c0.2,0.4,0.5,0.9,0.6,1.3c0.1,0.2,0.1,0.4,0.1,0.5c0,0.1-0.1,0.2-0.1,0.2L64,67
		l0.2,0.5c0.2,0.7,0.5,1.3,0.8,1.9c0.3,0.6,0.6,1.2,0.9,1.8c0.6,1.2,1.3,2.3,2.1,3.3c0.8,1.1,1.6,2.1,2.5,3c0.5,0.5,0.9,0.9,1.5,1.4
		c0.3,0.3,0.7,0.5,1.1,0.8c-0.8,1.6-1.7,3.1-2.5,4.7c-0.8,0.9-1.8,1.9-2.7,2.8c-1,0.9-2,1.8-3,2.7C64.2,90.2,63.7,90.7,63.2,91.1z
		 M71,90c0,0,0,0,0,0.1l-0.1,0.2c-0.1,0.3-0.2,0.6-0.3,0.9l-0.4,0.9c-0.1,0.3-0.3,0.6-0.5,0.9c-0.4,0.6-0.8,1.2-1.5,1.5
		c-0.6,0.4-1.4,0.5-2,0.7c-0.3,0.1-0.6,0.2-0.9,0.3c-0.1,0.1-0.3,0.1-0.3,0.1c0,0,0,0.1,0,0c-0.1,0-0.4-0.3-0.6-0.5
		c0-0.1-0.1-0.1-0.1-0.2c0-0.2,0-0.4,0.1-0.5c0-0.6,0.1-1.1,0-1.7c0.1,0,0.1-0.1,0.2-0.1c0.6-0.4,1.1-0.9,1.6-1.3
		c1-0.9,2.1-1.8,3-2.8c0.5-0.5,1.1-1.1,1.6-1.6c0,0.3,0.1,0.6,0.1,0.9c0.1,0.7,0.2,1.4,0.2,1.9C71,89.8,71,89.9,71,90z M79.3,85.4
		c0,0.1-0.1,0.1-0.1,0.2c-0.2,0.4-0.4,0.6-0.6,0.9c-0.2,0.2-0.4,0.4-0.6,0.6c-0.6,0.5-1.2,0.8-1.7,1.2c-0.5,0.4-1.1,0.8-1.7,1.1
		c-0.3,0.2-0.6,0.3-1,0.5c-0.2,0.1-0.3,0.2-0.5,0.2c0,0,0,0,0,0c0-0.2,0-0.4,0-0.5c-0.1-0.9-0.4-1.7-0.8-2.3
		c-0.2-0.4-0.5-0.8-0.8-1.1c0.2-0.2,0.4-0.4,0.6-0.7l0-0.1l0-0.1c1.3-2.5,2.6-5,3.8-7.5c0.1-0.1,0.1-0.2,0.2-0.3
		c0.3,0.1,0.7,0.4,1,0.6l1.3,0.8l2.2,1.3l-0.1,0.6l-0.3,1.5C79.9,83.4,79.8,84.4,79.3,85.4L79.3,85.4z M124.7,40.2
		c-0.8,0.1-1.5,0.2-2.3,0.5c-0.4,0.1-0.7,0.3-1.1,0.5c-0.2,0.1-0.4,0.2-0.5,0.4c-0.1,0.1-0.3,0.3-0.4,0.4c-0.5,0.5-1,1.1-1.4,1.8
		c0,0,0,0.1,0,0.1c0,0,0.1,0,0.1,0l0,0c0.5-0.5,1.1-1,1.7-1.4c0.2-0.1,0.3-0.2,0.5-0.3c0.2-0.1,0.3-0.1,0.4-0.2
		c0.3-0.1,0.6-0.2,1-0.2c0.4-0.1,0.9-0.1,1.4-0.1c-0.3,0.6-0.7,1.1-1.2,1.5c-0.4,0.5-0.9,0.9-1.5,1.2c-0.5,0.3-1.1,0.6-1.7,0.8
		c-0.6,0.2-1.2,0.3-1.8,0.5l-0.1,0l-0.1,0.1c-1.6,1.3-3.7,2.1-5.7,2.8c-2,0.7-4.1,1.2-6.3,1.9c-0.5,0.2-1.1,0.3-1.6,0.6
		c-0.3,0.1-0.6,0.2-1,0.6c-0.2,0.3-0.4,0.5-0.6,0.7l-2,2.6c-1.3,1.7-2.6,3.4-4.1,4.8l-0.1,0.1l0,0.1c-0.5,0.8-0.5,1.7-0.4,2.4
		c0.1,0.7,0.2,1.4,0.3,2c0.1,0.6,0.1,1.2,0,1.8c-0.1,0.6-0.4,1.2-0.7,1.8c0,0,0,0.1,0,0.1c-0.1,0-0.1,0.1-0.2,0.1c0,0,0,0.1,0,0.1
		c0,0,0.1,0.1,0.1,0c0.9-0.4,1.8-0.8,2.8-1.2c0.9-0.4,1.9-0.7,2.8-0.9c1-0.3,1.9-0.4,2.9-0.5c0.9-0.1,1.8,0,2.6,0.3
		c0.7,0.5,1.4,1,2,1.6c0.7,0.6,1.3,1.2,1.9,1.8c1.1,1.3,2.1,2.8,2.6,4.3c0.2,0.4,0.2,0.8,0.3,1.2c0.1,0.2,0.1,0.4,0.1,0.6
		c0,0.2,0.1,0.4,0.1,0.6l0,0.6l0,0.3c0,0.1,0,0.2-0.1,0.3l-0.2,1.3c-0.2,0.9-0.3,1.8-0.5,2.6c-0.2,0.9-0.5,1.7-0.7,2.6
		c-1.1,3.4-3.1,6.6-5.5,9.2c-2.4,2.7-5.4,4.7-8.4,6.7c-1.5,1-3,1.9-4.6,2.7c-1.6,0.8-3.2,1.5-4.9,1.9c-0.4,0.1-0.8,0.2-1.2,0.3
		c-0.1,0-0.1,0-0.1,0c0,0,0,0,0,0c0,0,0,0-0.1,0c0,0-0.1,0-0.1-0.1c0,0,0-0.1,0-0.1c0,0,0,0,0,0c0,0,0-0.2,0.1-0.2
		c0.1-0.4,0.3-0.7,0.5-1.1c0.4-0.7,0.9-1.4,1.4-2.1c0.6-0.8,1.1-1.6,1.6-2.4c1-1.6,1.8-3.1,2.8-4.6c0.2-0.4,0.5-0.7,0.7-1.1
		c0.3-0.4,0.6-0.8,0.8-1.3c0.2-0.5,0.4-1,0.5-1.4l0.3-1.3c0.4-1.8,0.7-3.7,0.8-5.5c0-1.9-0.3-3.7-0.9-5.4c0.7-1,1.1-2.2,1.2-3.4
		c-0.2,1.9-1.4,3.4-2.7,4.7c-1.3,1.3-2.8,2.4-4.2,3.5c-1.4,1.1-3.1,1.6-4.9,2.1c-1.6,0.4-3.3,0.6-4.9,0.7c0.6-0.9,1.2-1.7,1.6-2.6
		c0.2-0.5,0.5-1,0.7-1.5c0.1-0.3,0.2-0.5,0.3-0.8c0-0.1,0.1-0.3,0.1-0.4c0-0.1,0-0.1,0-0.1l0-0.1l0-0.1c0-0.1,0-0.3-0.1-0.5
		c0-0.1-0.1-0.2-0.1-0.2l0,0L82.4,79L82.3,79l0,0c0,0-0.1-0.1-0.1-0.1c0.5-0.2,0.9-0.6,1.3-1c0.4-0.5,0.8-1.1,1-1.7
		c0.2-0.6,0.3-1.3,0.4-1.9c0.1-0.6,0.1-1.3,0-1.9c0-0.3-0.1-0.6-0.1-1c0-0.4-0.1-0.7-0.2-1c-0.1-0.5-0.4-1.1-0.8-1.6
		c0.2,0,0.3-0.1,0.5-0.1c0.2-0.1,0.4-0.2,0.7-0.3l0,0l0.2-0.3c0.6-1.1,1.1-2.3,1.3-3.6c0.1-0.6,0.3-1.2,0.3-1.9c0-0.6,0-1.3,0.1-1.9
		c0-0.3,0.1-0.6,0.2-0.9l0.1-0.5c0-0.2,0.1-0.3,0.1-0.5c0.1-0.4,0-0.8-0.1-1.2c-0.1-0.3-0.3-0.5-0.5-0.7c0.2-0.1,0.4-0.3,0.5-0.5
		c0.2-0.3,0.4-0.6,0.5-0.9c0.3-0.6,0.4-1.2,0.4-1.9c0-0.6-0.2-1.3-0.4-1.9c-0.2-0.6-0.3-1.2-0.2-1.8c0-0.6,0.2-1.2,0.1-1.9
		c0-0.6-0.1-1.3-0.3-1.9c-0.2-0.6-0.5-1.3-1-1.8c0,0,0,0,0,0c0.3,0,0.6,0.1,0.9,0.1c1,0.1,2.1,0.2,3.2,0.1c0.5,0,1.1-0.1,1.6-0.2
		c0.3-0.1,0.6-0.2,0.8-0.3c0.3-0.1,0.6-0.3,0.8-0.4c0.9-0.6,1.7-1.2,2.6-1.8c1.6-1.3,3.1-2.7,4.6-4.1c0.4-0.3,0.7-0.6,1.2-0.9
		c0.4-0.3,0.9-0.5,1.3-0.8c0.9-0.5,1.8-0.9,2.8-1.2c1-0.3,2-0.6,2.9-0.7c1-0.2,2-0.2,3-0.2c2,0,4,0,5.9,0.4c0.9,0.2,1.8,0.5,2.6,0.9
		c0.4,0.2,0.8,0.5,1.1,0.7c0.4,0.3,0.6,0.6,1,1c0.7,0.8,1.3,1.5,1.9,2.3c0.3,0.4,0.6,0.8,0.8,1.2c0,0,0,0,0,0.1
		C125.2,40.2,124.9,40.2,124.7,40.2z"/>
	<path class="st8" d="M48.2,75.8L48.2,75.8C48.2,75.9,48.2,75.9,48.2,75.8z"/>
	<path class="st6" d="M85.5,62c0.3-0.6,0.6-1.1,0.8-1.7c0.2-0.6,0.2-1.2,0-1.8c-0.2-0.5-0.6-0.7-1-1c-0.8-0.7-1.7-1.4-2.7-2.3l0,0
		l-1,0.8c-0.3,0.2-0.5,0.4-0.8,0.7c-0.1,0.1-0.1,0.1-0.2,0.2c0,0,0,0,0,0l-0.1,0.5c-0.2,1.4-0.3,2.8-0.5,4.2
		c-0.3,2.2-0.5,4.4-0.8,6.6c0.2,0,0.3-0.1,0.5-0.1c0.3-0.1,0.6-0.1,1-0.1c0.3,0,1.3,0,1.6,0.1c0.1,0,0.3,0,0.4,0.1
		c0.2-0.1,0.3-0.2,0.5-0.4c0.1-0.1,0.3-0.2,0.4-0.4c0,0,0.1-0.1,0.1-0.1c0.2-1.2,0.5-2.4,1-3.5C84.9,63.1,85.2,62.6,85.5,62z"/>
	<path class="st6" d="M81.7,78.5c0.2-0.5,0.3-0.9,0.4-1.4c0.1-0.6,0.3-1.1,0.4-1.7c0.1-0.6,0.4-1.1,0.6-1.7c0.2-0.6,0.4-1.1,0.7-1.7
		c0.1-0.3,0.3-0.6,0.3-0.9c0.1-0.3,0-0.5-0.1-0.8c-0.1-0.2-0.3-0.4-0.6-0.5c-0.2-0.1-0.5-0.1-0.7-0.2l-0.3,0c-0.1,0-0.3,0-0.4-0.1
		c-0.3-0.1-1.3-0.2-1.6-0.3c-0.4-0.2-0.9-0.4-1.3-0.6c0,0.4-0.1,0.7-0.1,1.1c-0.1,0.4-0.1,0.7-0.2,1.1c-0.1,0.2-0.1,0.4-0.2,0.6
		L78.5,72c-0.2,0.7-0.5,1.3-0.8,2c-0.5,1-0.9,2-1.4,3c0.1,0,0.2,0,0.3,0c0.3,0,0.6,0,0.9,0c0.6,0.1,1.1,0.2,1.6,0.3
		c0.5,0.2,1,0.3,1.5,0.5c0.3,0.1,0.5,0.2,0.7,0.4C81.5,78.4,81.6,78.4,81.7,78.5z"/>
	<g>
		<path class="st5" d="M104.9,42.8c-0.6,0.8-1.2,1.3-0.9,1.9c0.3,0.6-0.7,1.3,1.2,0.7c1.9-0.5,2.2-0.6,2.8-1.7s1.3-1.9,0.9-2
			C108.4,41.6,104.9,42.8,104.9,42.8z"/>
		<path class="st5" d="M106.4,46.2c1.6-0.4,1.7-0.2,2-0.7c0.3-0.5,0.3-0.9,0.7-0.8s1.7,0.8,1.7,1.1c0,0.3,1,0.5-0.3,1
			c-1.3,0.5-2.3,1.7-3.4,1.6c-1.1-0.1-1.6-0.1-1.4-0.7C105.7,47.1,106.4,46.2,106.4,46.2z"/>
		<path class="st5" d="M102.6,44.2c0.5-0.8,2.2-1.2,0.9-1.9c-1.4-0.8-0.8-1.1-2.4-1.4c-1.6-0.3-2.6-1-2,0.4c0.6,1.4-0.2,0.8,0.8,2
			c1,1.2,0.6,1.7,1.5,1.3C102.3,44.3,102.6,44.2,102.6,44.2z"/>
		<path class="st5" d="M105.3,41.5c1.3-0.4,3-0.4,3-0.8c0-0.4,1.5-2.5-0.7-1.6c-2.2,0.8-2.3,0.8-2.7,1.3
			C104.6,41,105.3,41.5,105.3,41.5z"/>
		<path class="st5" d="M103.8,40.1c0.8-0.9,0.8-1.1,1.8-1.4c1-0.2,2.2-0.7,1.2-1.2s0.3-2.5-1.9-0.8c-2.2,1.8-3.6,1.7-3,2.5
			C102.6,40,103.8,40.1,103.8,40.1z"/>
		<path class="st5" d="M109.4,36.7c0.7-0.6,2.4-1.4,2.2-1.6c-0.2-0.2,0.1-1.1-2-0.4s-3.8,0.4-2.7,1.2s1,1.3,1.6,1.1
			C109.1,36.7,109.4,36.7,109.4,36.7z"/>
		<path class="st5" d="M110.7,42.8c1.7-0.2,3-0.7,3.2-0.7c0.1,0,0.9-1,0,0.5c-0.9,1.5-0.1,2.3-1.3,2c-1.1-0.4-1.9,0-1.8-0.5
			S110.7,42.8,110.7,42.8z"/>
	</g>
	<path class="st5" d="M104,85.6c-0.8,0.6-1.7,0.9-1.4,1.6c0.3,0.8,0.7,1.2,1.5,1c0.8-0.2,1.9,0.4,1.7-0.7c-0.2-1.1,0.1-1.8-0.4-2.4
		c-0.4-0.5-0.4-0.8-0.9-0.5S104,85.6,104,85.6z"/>
	<path class="st5" d="M101.5,90c-0.2,0.7,0.4,1-0.7,1.5c-1.1,0.5-1.9,0.4-1.3,1.1c0.6,0.7,0.5,2.2,1.3,1.3c0.8-0.9,1.6-1.6,1.6-2.4
		c0-0.8,0.1-1.4-0.3-1.7C101.7,89.6,101.5,90,101.5,90z"/>
	<path class="st5" d="M105.7,81.3c-0.5,0.8-1.5,0.7-0.6,1.3c0.8,0.6,0.9,1.7,1.3,1c0.4-0.8,1.3-1.2,0.7-1.9
		c-0.6-0.7-0.4-0.9-0.9-0.9C105.8,80.9,105.7,81.3,105.7,81.3z"/>
	<path class="st5" d="M105.5,78.5c-0.5,1.3-1.1,2.7-0.2,2c0.9-0.7,1.3-1.1,1.5-1.7c0.2-0.6,0.8-1.1-0.1-1.5c-1-0.4-0.7-1.3-1-0.4
		C105.6,77.6,105.5,78.5,105.5,78.5z"/>
	<path class="st5" d="M106.7,73.9c-0.5,0.5-1.1,0.7-0.4,1.1c0.7,0.3,1.3,0.8,1.3,0c0-0.8,0.5-1-0.1-1.3
		C106.9,73.3,106.7,73.9,106.7,73.9z"/>
	<path class="st5" d="M105.6,70.6c-0.2,0.9-0.7,1.5,0.3,1.3c1-0.2,1.6,0.5,1.2-0.4c-0.4-1,0-1.5-0.5-1.6
		C106,69.8,105.6,70.6,105.6,70.6z"/>
	<path class="st5" d="M102.7,67.1c1.5,0.8,2,2.1,2.3,1.1s2.5-1.4,0.8-1.7c-1.7-0.3-2-0.2-2.3-0.1C103.1,66.5,102.7,67.1,102.7,67.1z
		"/>
	<path class="st5" d="M96.9,69.1c-1,0.7-1.1,1.7-0.1,2.3c1.1,0.6,1.9,1.4,1.7,0.2c-0.2-1.2,1.9-1.7,0.1-2.2S96.9,69.1,96.9,69.1z"/>
	<path class="st5" d="M97.6,74.4c0.2,1.2,0.1,2.1,0.8,1.7c0.7-0.4,0.9-0.7,1.1-1.6s0.7-2-0.4-1.4C98.1,73.8,97.6,74.4,97.6,74.4z"/>
	<path class="st5" d="M98.5,79.4c0.1,0.7-0.5,1.8,0.3,1.6c0.7-0.3,1.1-0.7,1-1.6c-0.1-0.9,1.1-1.7,0-1.7s-2,0.1-1.9,0.5
		C98.1,78.6,98.5,79.4,98.5,79.4z"/>
	<path class="st5" d="M97.6,83.6c0.2,0.8,1.1,0.7,1.1,0.3c0.1-0.5,0.9-0.9,0-1.3C97.8,82.2,97.6,83.6,97.6,83.6z"/>
	<path class="st5" d="M89.9,99.2c0.5,0.9,2.2,0.7,1,2.1s-0.4,2.8-1.8,2.2c-1.4-0.6-2.4-1.2-1.8-2C87.9,100.7,89.9,99.2,89.9,99.2z"
		/>
	<path class="st5" d="M92.1,95.6c-0.7,1.2-1,2.8-0.2,2.3c0.8-0.6,0.8-1.3,1-2.3c0.2-1-0.5-1-0.7-0.9C92.1,94.8,92.1,95.6,92.1,95.6z
		"/>
	<path class="st5" d="M94.7,90.5c-0.5,1.9,0.1,3.3,0.5,2.1c0.5-1.2,1.1-2.6,0.9-3.1c-0.2-0.5,0.5-1.3-0.3-1.1
		C95.1,88.6,94.7,90.5,94.7,90.5z"/>
	<path class="st5" d="M95.9,84.6c0.6,0.7,2,1.2,1.3,1.9s-0.5,1.3-1,1.1c-0.5-0.2-0.6-0.9-0.7-1.1C95.5,86.2,95.9,84.6,95.9,84.6z"/>
	<path class="st5" d="M95.6,78.4c0.4-0.6,0.8-2.1,1.1-0.7c0.3,1.4,0.8,1.5,0.4,2.2s-0.2,1-0.6,0.8c-0.4-0.2-0.7-0.8-0.8-1.1
		C95.6,79.4,95.6,78.4,95.6,78.4z"/>
	<path class="st1" d="M54,77.7c-0.5-0.5-1.7-0.8-0.5,1c1.2,1.8,2.8,5.1,2.7,4.7c-0.2-0.3-0.5-3.1-0.7-3.7c-0.2-0.6,0.8-0.8,0.8-0.6
		c0.1,0.2,1.5,1.9,1.5,1.9s-1.6-3.6-1.7-4s-1.4-2.5-1.4-2.5l0.1,2.4L54,77.7z"/>
	<path class="st1" d="M41.2,83.6c-0.3,0.6,0.2,5.6,0.6,7.8s1.2-0.8,1.2-2.5c0-1.7,0.7-3.5,0.7-3.5l0.8,3.8l0.4-5.1c0,0-2.7-1-3-1.2
		c-0.3-0.2,0.1,2.7,0.1,2.7L41.2,83.6z"/>
</g>
</svg>
