<?xml version="1.0" encoding="utf-8"?>
<!-- Generator: Adobe Illustrator 18.1.0, SVG Export Plug-In . SVG Version: 6.00 Build 0)  -->
<svg version="1.1" baseProfile="tiny" id="Layer_1" xmlns="http://www.w3.org/2000/svg" xmlns:xlink="http://www.w3.org/1999/xlink"
	 x="0px" y="0px" viewBox="0 0 162 128" 
width="162" height="128"
xml:space="preserve">
<g>
	<g>
		<path fill="#A86B41" d="M49,73.8l-7.7,7.4c-1,0.9-1.8,1.9-2.5,3.1L35,91.6c-0.7,1.4-1.6,2.6-2.7,3.7L8.1,119.5L2,112.6l24.4-22.1
			c0.4-0.3,0.9-0.4,1.5-0.2c1.3,0.4,3-0.3,5-2.1c3.6-3.3,4.4-8.4,4.5-9.4c0-0.4,0.2-0.8,0.6-1.1l4.3-3.8l0.3-0.3
			c0.9-0.8,2.1-1.3,3.2-1.3C47,72.4,48.1,72.9,49,73.8z"/>
		<path fill="#A86B41" d="M86.5,44.1L66.1,62c-0.3-0.4-0.7-0.7-1.1-0.9c-0.2-0.1-0.4-0.2-0.6-0.3l21.3-18.7
			C86.2,42.8,86.4,43.4,86.5,44.1z"/>
		<path fill="#A3A9AE" d="M53.9,63.7l1.7,2c0.1,0.1,0.2,0.1,0.3,0l4.5-4c0,0,0.1,0,0.1-0.1c0,0,0,0,0,0l26-22.8c0,0,0,0,0,0
			l39.9-34.9l-1.8-2.1L53.9,63.7z"/>
		<path fill="#A3A9AE" d="M55.3,67.7l-4.9,4.7c-1.1-1.2-2.6-1.9-4.2-2.1l6.1-5.4l1.7,2C54.4,67.4,54.8,67.6,55.3,67.7z"/>
		<path fill="#2D2D2D" d="M126.1,0.4c-0.3-0.4-0.8-0.6-1.3-0.7c-0.5,0-1,0.1-1.4,0.5l-82.2,72c0,0,0,0,0,0l-4.6,4
			c-0.7,0.6-1.1,1.4-1.2,2.4c-0.1,0.9-0.7,5.3-3.8,8.2c-1.7,1.6-2.6,1.7-2.9,1.7c-0.1,0-0.1,0-0.2,0C27.2,88,26,88.2,25.1,89
			L0.6,111.2C0.2,111.5,0,112,0,112.5c0,0.5,0.1,1,0.5,1.4l11.7,13.2c0.4,0.4,0.9,0.6,1.4,0.6c0.6,0,1.1-0.3,1.4-0.7l19.4-24.3
			c0.2-0.3,0.5-0.5,0.8-0.6c0.8-0.2,2-0.6,3.2-0.9c2.1-0.6,3.4-2.7,3.1-5c-0.1-0.9-0.1-1.9,0.1-3c0.4-2.4,1.4-4.8,3-6.8
			c1.9,1.3,3.5,2,4.9,2c1.5,0,2.9-0.9,4.3-2.6c1.5-1.9,2.4-4.3,2.2-6.4c-0.1-1-0.4-1.9-1-2.5l10-8.7c0,0,0,0,0,0l19.7-17.3
			c2.1-1.8,3.3-3.5,3.7-5.3c0.4-1.6,0-3.3-1.1-4.8l0.4-0.4c0,0,0,0,0,0l40.1-35.1c0.4-0.3,0.6-0.8,0.7-1.3c0-0.5-0.1-1-0.5-1.4
			L126.1,0.4z M39.6,92.9c-0.2,1.3-0.2,2.5-0.1,3.6c0.2,1.3-0.5,2.4-1.7,2.8c-1.2,0.3-2.4,0.7-3.2,0.9c-0.7,0.2-1.3,0.6-1.8,1.2
			l-19.3,24.1L2,112.6l24.4-22.1c0.4-0.3,0.9-0.4,1.5-0.2c1.3,0.4,3-0.3,5-2.1c3.6-3.3,4.4-8.4,4.5-9.4c0-0.4,0.2-0.8,0.6-1.1
			l4.3-3.8c0,0,0,0,0,0l0.3-0.3c0.9-0.8,2.1-1.3,3.2-1.3c1.3,0,2.4,0.5,3.3,1.5c0.7,0.8,1.1,1.9,1,3c0,1.1-0.5,2.1-1.3,2.8l-0.2,0.2
			l-0.7,0.6c0,0,0,0,0,0l-3,2.6C42,85.8,40.2,89.3,39.6,92.9z M52.2,84.5c-1.8,2.1-2.8,2.7-6.3,0.4c0.1-0.1,0.2-0.2,0.3-0.3L48,83
			l2.6,0.6c0.1,0,0.1,0,0.2,0c0.4,0,0.9-0.3,1-0.8c0.1-0.5-0.2-1.1-0.7-1.2l-1.2-0.3l0.1-0.1l3.5-3.1c0.3,0.4,0.5,1,0.5,1.4
			C54.1,81.2,53.5,83.1,52.2,84.5z M64.2,66.2L52,76.8c0-1.5-0.5-3-1.5-4.3c-1.1-1.3-2.6-2.1-4.3-2.2l6.1-5.4l1.7,2
			c0.4,0.4,0.9,0.7,1.5,0.8c0.6,0,1.1-0.1,1.6-0.5l4.6-4c0.7-0.6,1.6-0.7,2.4-0.3c0.5,0.3,0.9,0.8,0.9,1.4
			C65.1,65,64.8,65.7,64.2,66.2z M86.4,45.2c-0.3,1.3-1.3,2.7-3,4.2L66.9,63.8c-0.2-1.1-0.9-2.1-1.9-2.7c-0.2-0.1-0.4-0.2-0.6-0.3
			l21.3-18.7C86.4,43.2,86.6,44.2,86.4,45.2z M86.6,38.8C86.6,38.8,86.5,38.8,86.6,38.8L60.5,61.6c0,0,0,0,0,0c0,0-0.1,0-0.1,0.1
			l-4.5,4c-0.1,0.1-0.2,0.1-0.3,0l-1.7-2l70.8-62l1.8,2.1L86.6,38.8z"/>
		<path fill="#915E3C" d="M50,76.9c0,1.1-0.5,2.1-1.3,2.8l-0.2,0.2l-0.7,0.6c0,0,0,0,0,0l-3,2.7c-2.8,2.7-4.7,6.1-5.3,9.8
			c-0.2,1.3-0.2,2.5-0.1,3.6c0.2,1.3-0.5,2.5-1.7,2.8c-1.2,0.3-2.4,0.7-3.2,0.9c-0.7,0.2-1.3,0.6-1.8,1.2l-19.3,24.1l-5.4-6.1
			l24.1-24.3c1.1-1.1,2-2.3,2.7-3.7l3.8-7.2c0.6-1.2,1.5-2.2,2.5-3.1l7.7-7.4c0,0,0,0,0.1,0.1C49.7,74.7,50.1,75.8,50,76.9z"/>
		<path fill="#915E3C" d="M86.4,45.2c-0.3,1.3-1.3,2.7-3,4.2L66.9,63.8c-0.1-0.7-0.4-1.3-0.8-1.8l20.4-17.9
			C86.5,44.5,86.5,44.8,86.4,45.2z"/>
		<path fill="#909293" d="M65,64.3c0.1,0.7-0.2,1.4-0.8,1.9L52,76.8c0-1.5-0.5-3-1.5-4.3c0-0.1-0.1-0.1-0.1-0.1l4.9-4.7
			c0.1,0,0.2,0,0.2,0.1c0.6,0,1.1-0.2,1.6-0.5l4.5-4c0.7-0.6,1.6-0.7,2.4-0.3C64.6,63.2,65,63.7,65,64.3z"/>
	</g>
	<g>
		<rect x="73.2" y="98.3" fill="#54A74B" width="3.7" height="16.7"/>
		<rect x="82.2" y="106.6" fill="#54A74B" width="6.7" height="7.6"/>
		<rect x="83.1" y="94.2" fill="#F4A742" width="5.7" height="0.8"/>
		<rect x="83.9" y="96.1" fill="#F4A742" width="4.9" height="6"/>
		<rect x="83.9" y="103.2" fill="#CE3F3C" width="4.9" height="2.3"/>
		<rect x="83.9" y="115.3" fill="#CE3F3C" width="4.9" height="11.3"/>
		<g>
			<path fill="#EFC24C" d="M142.4,107c0,0.2,0,0.4,0.1,0.6h-2.3v-1.1h2.3C142.4,106.7,142.4,106.8,142.4,107z"/>
			<rect x="138.9" y="71" fill="#EFC24C" width="2.8" height="3.4"/>
			<rect x="125.3" y="71" fill="#EFC24C" width="2.7" height="3.4"/>
			<rect x="141.4" y="88.6" fill="#67666D" width="1.5" height="5.9"/>
			<rect x="140.2" y="108.7" fill="#EFC24C" width="3" height="0.9"/>
			<rect x="117" y="83.8" fill="#535259" width="3.4" height="6.9"/>
			<path fill="#EFC24C" d="M125.3,56.8v13h2.7v-3.3C128,64.6,126.2,58.8,125.3,56.8z"/>
			<path fill="#EFC24C" d="M138.9,78.5v18.8h0.3c0.6,0,1,0.4,1,1v7.1h2.7v-9.8h-1.7c-0.5,0-1-0.4-1-1v-6.2c0-0.5,0.4-1,1-1h1.7v-9
				H138.9z"/>
			<rect x="135.2" y="98.3" fill="#54A74B" width="3.9" height="16.7"/>
			<path fill="#67666D" d="M135.2,88.6h1.7v5.9h-1.7v-2.8c0,0,0,0,0,0c0,0,0-0.1,0-0.1L135.2,88.6z"/>
			<polygon fill="#EFC24C" points="138.9,75.5 138.9,77.3 142.7,77.3 141.9,75.5 			"/>
			<path fill="#EFC24C" d="M138.9,56.8v13.1h2.8v-3.3C141.6,64.6,139.8,58.6,138.9,56.8C138.9,56.7,138.9,56.7,138.9,56.8z"/>
			<rect x="154.8" y="88.6" fill="#67666D" width="1.5" height="5.9"/>
			<polygon fill="#EFC24C" points="152.4,75.5 152.4,77.3 156.1,77.3 155.4,75.5 			"/>
			<rect x="157.5" y="83.8" fill="#535259" width="3.4" height="15.3"/>
			<path fill="#EFC24C" d="M152.4,56.8v13.1h2.7v-3.3C155.1,64.6,153.2,58.6,152.4,56.8z"/>
			<rect x="152.4" y="71" fill="#EFC24C" width="2.7" height="3.4"/>
			<rect x="144" y="83.8" fill="#535259" width="3.5" height="15.3"/>
			<rect x="152.4" y="108.7" fill="#EFC24C" width="4.3" height="0.9"/>
			<path fill="#EFC24C" d="M152.4,106.5v1.1h3.6c-0.1-0.2-0.1-0.4-0.1-0.6c0-0.2,0-0.3,0.1-0.5H152.4z"/>
			<path fill="#EFC24C" d="M152.4,78.5v26.9h4v-9.8h-1.7c-0.5,0-1-0.4-1-1v-6.2c0-0.5,0.4-1,1-1h1.7v-9H152.4z"/>
			<rect x="148.6" y="88.6" fill="#67666D" width="1.7" height="5.9"/>
			<rect x="88.9" y="106.6" fill="#62B257" width="6.7" height="7.6"/>
			<polygon fill="#EFC24C" points="125.3,75.5 125.3,77.3 129,77.3 128.3,75.5 			"/>
			<rect x="88.9" y="115.3" fill="#D84F45" width="4.9" height="11.3"/>
			<rect x="106" y="103.2" fill="#D84F45" width="4.9" height="2.3"/>
			<rect x="106" y="96.1" fill="#EFC24C" width="4.9" height="6"/>
			<rect x="106" y="94.2" fill="#EFC24C" width="5.7" height="0.8"/>
			<rect x="88.9" y="103.2" fill="#D84F45" width="4.9" height="2.3"/>
			<rect x="88.9" y="94.2" fill="#EFC24C" width="5.7" height="0.8"/>
			<path fill="#62B257" d="M78,91.8v29.8h4.8v-6.2h-0.6c-0.6,0-1.1-0.5-1.1-1.1v-7.6c0-0.6,0.5-1.1,1.1-1.1h0.6V96
				C82.3,95.9,82,95.5,82,95v-1.9h13.7V95c0,0.5-0.3,0.9-0.8,1.1v9.5h0.6c0.6,0,1.1,0.5,1.1,1.1v7.6c0,0.1,0,0.3-0.1,0.4h1.7
				c-0.1-0.1-0.1-0.3-0.1-0.4v-7.6c0-0.6,0.5-1.1,1.1-1.1h0.6V96c-0.5-0.1-0.8-0.6-0.8-1.1v-1.9h13.7V95c0,0.5-0.3,0.9-0.8,1.1v9.5
				h0.6c0.6,0,1.1,0.5,1.1,1.1v7.6c0,0.1,0,0.3-0.1,0.4h1.7c-0.1-0.1-0.1-0.3-0.1-0.4v-7.6c0-0.6,0.5-1.1,1.1-1.1h0.6V96
				c-0.5-0.1-0.8-0.6-0.8-1.1v-1.9h13.7V95c0,0.5-0.3,0.9-0.8,1.1v9.5h0.6c0.6,0,1.1,0.5,1.1,1.1v7.6c0,0.6-0.5,1.1-1.1,1.1h-0.6
				v6.2h4.8V91.8H78z"/>
			<rect x="88.9" y="96.1" fill="#EFC24C" width="4.9" height="6"/>
			<rect x="127.8" y="88.6" fill="#67666D" width="1.5" height="2.1"/>
			<rect x="123.2" y="115.3" fill="#D84F45" width="5" height="11.3"/>
			<rect x="130.4" y="83.8" fill="#535259" width="3.7" height="6.9"/>
			<path fill="#EFC24C" d="M125.3,78.5v12.2h1.3v-2.2c0-0.5,0.4-1,1-1h1.7v-9H125.3z"/>
			<rect x="121.6" y="88.6" fill="#67666D" width="1.7" height="2.1"/>
			<rect x="123.2" y="103.2" fill="#D84F45" width="5" height="2.3"/>
			<rect x="106" y="115.3" fill="#D84F45" width="4.9" height="11.3"/>
			<rect x="123.2" y="94.2" fill="#EFC24C" width="5.8" height="0.8"/>
			<rect x="123.2" y="106.6" fill="#62B257" width="6.7" height="7.6"/>
			<rect x="123.2" y="96.1" fill="#EFC24C" width="5" height="6"/>
			<rect x="106" y="106.6" fill="#62B257" width="6.7" height="7.6"/>
			<path fill="#2D2D2D" d="M72.1,98.2v16.9c0,0.6,0.5,1,1,1h3.8v5.5c0,0.6,0.5,1,1,1h4.9v4.2c0,0.5,0.4,0.9,0.9,0.9H94
				c0.5,0,0.9-0.4,0.9-0.9v-4.2h5.1v4.2c0,0.5,0.4,0.9,0.9,0.9h10.3c0.5,0,0.9-0.4,0.9-0.9v-4.2h5.1v4.2c0,0.5,0.4,0.9,0.9,0.9h10.3
				c0.5,0,0.9-0.4,0.9-0.9v-4.2h4.9c0.6,0,1-0.4,1-1v-5.5h4c0.6,0,1-0.4,1-1v-4.4h3.1c0.6,0,1.1-0.5,1.1-1.1v-1
				c0-0.3-0.1-0.6-0.3-0.8c0-0.1-0.1-0.1-0.1-0.2c-0.2-0.2-0.4-0.5-0.4-0.8c0-0.3,0.1-0.5,0.4-0.8c0.1-0.1,0.2-0.3,0.2-0.5
				c0-0.1,0-0.1,0-0.2v-5.3h3.5l0,5c0,0.2,0,0.4,0,0.6c0,0.1,0,0.2,0.1,0.3c0,0.1,0.1,0.2,0.2,0.2c0.1,0.2,0.2,0.4,0.2,0.6
				c0,0.3-0.2,0.7-0.4,0.9c0,0,0,0.1-0.1,0.1c-0.2,0.2-0.3,0.5-0.3,0.8v0.9c0,0.6,0.5,1.1,1.1,1.1h8.3c0.6,0,1.1-0.5,1.1-1.1v-0.9
				c0-0.3-0.1-0.6-0.3-0.8c0-0.1-0.1-0.1-0.1-0.2c-0.2-0.2-0.4-0.5-0.4-0.8c0-0.3,0.1-0.5,0.4-0.8c0.1-0.1,0.2-0.3,0.2-0.5
				c0-0.1,0-0.1,0-0.2v-5.3h3.5c0.5,0,1-0.4,1-1V83.7c0-0.5-0.4-1-1-1h-3.5v-4.7c0-0.1,0-0.2,0-0.2l-1.2-3.2v-4.7h0v-3.3
				c0-1.3-0.7-4.2-1.4-6.4c-1.5-4.9-2-4.9-2.4-4.9c-0.4,0-0.9,0-2.4,4.8c-0.7,2.2-1.5,5-1.5,6.3v3.5h0v4.9l-0.9,3c0,0,0,0.1,0,0.1
				c0,0,0,0.1,0,0.1l0,4.8H144v-4.7c0-0.1,0-0.2,0-0.2l-1.2-3.2v-4.7h0v-3.3c0-1.3-0.7-4.2-1.4-6.4c-1.5-4.9-2-4.9-2.4-4.9
				c-0.4,0-0.9,0-2.4,4.8c-0.7,2.2-1.5,5-1.5,6.3v3.5h0v5.1c0,0,0,0,0,0.1l-0.9,2.8c0,0,0,0.1,0,0.1c0,0,0,0.1,0,0.1l0,4.8h-3.7
				v-4.7c0-0.1,0-0.2,0-0.2l-1.2-3.2v-4.7h0v-3.3c0-1.3-0.7-4.2-1.4-6.4c-1.5-4.9-2-4.9-2.4-4.9c-0.4,0-0.9,0-2.4,4.8
				c-0.7,2.2-1.5,5-1.5,6.3v3.5h0v5.1l0,0l-0.9,2.8c0,0,0,0.1,0,0.1c0,0,0,0.1,0,0.1l0,4.8h-3.6c-0.5,0-1,0.4-1,1v7h-38
				c-0.6,0-1,0.4-1,1v5.5h-3.8C72.6,97.2,72.1,97.7,72.1,98.2z M157.5,83.8h3.4v15.3h-3.4V83.8z M155.1,69.9h-5.5v-3.5
				c0-1.9,1.9-7.8,2.7-9.7c0.9,1.8,2.7,7.9,2.7,9.8V69.9z M155.1,74.4h-5.5V71h5.5V74.4z M156.1,77.3h-7.3l0.6-1.9h6L156.1,77.3z
				 M156.4,94.5h-1.5v-5.9h1.5V94.5z M156.4,105.4h-7.7c0,0,0-0.1,0-0.1l0-5.6c0,0,0,0,0,0l0,0l0-4h1.8c0.5,0,1-0.4,1-1v-6.2
				c0-0.5-0.4-1-1-1h-1.8l0-9h7.7v9h-1.7c-0.5,0-1,0.4-1,1v6.2c0,0.5,0.4,1,1,1h1.7V105.4z M150.3,88.6v5.9h-1.7l0-5.9H150.3z
				 M155.8,107c0,0.2,0,0.4,0.1,0.6H149c0.1-0.2,0.1-0.5,0.1-0.7c0-0.2,0-0.3-0.1-0.5h6.8C155.9,106.7,155.8,106.8,155.8,107z
				 M148.3,109.6l0-0.9h8.3v0.9H148.3z M144,83.8h3.5l0,15.3H144V83.8z M141.6,69.9h-5.5v-3.5c0-1.9,1.9-7.8,2.7-9.7
				c0.9,1.8,2.7,7.9,2.7,9.8V69.9z M141.7,74.4h-5.5V71h5.5V74.4z M142.7,77.3h-7.3l0.6-1.9h5.9L142.7,77.3z M142.9,94.5h-1.5v-5.9
				h1.5V94.5z M140.2,108.7h3v0.9h-3V108.7z M140.2,106.5h2.3c0,0.2-0.1,0.3-0.1,0.5c0,0.2,0,0.4,0.1,0.6h-2.3V106.5z M135.2,98.3
				h3.9V115h-3.9V98.3z M135.2,95.6h1.8c0.5,0,1-0.4,1-1v-6.2c0-0.5-0.4-1-1-1h-1.8l0-9h7.7v9h-1.7c-0.5,0-1,0.4-1,1v6.2
				c0,0.5,0.4,1,1,1h1.7v9.8h-2.7v-7.1c0-0.6-0.5-1-1-1h-4V95.6z M135.2,91.6c0,0,0-0.1,0-0.1l0-2.9h1.7v5.9h-1.7L135.2,91.6
				C135.2,91.7,135.2,91.7,135.2,91.6z M120.4,90.7H117v-6.9h3.4L120.4,90.7z M128,69.9h-5.5v-3.5c0-1.9,1.9-7.8,2.7-9.7
				c0.9,1.8,2.7,7.9,2.7,9.8V69.9z M128,74.4h-5.5V71h5.5V74.4z M129,77.3h-7.3l0.6-1.9h5.9L129,77.3z M129.3,87.5h-1.7
				c-0.5,0-1,0.4-1,1v2.2h-2.3v-2.2c0-0.5-0.4-1-1-1h-1.8l0-9h7.7V87.5z M123.3,88.6v2.1h-1.7l0-2.1H123.3z M129.3,90.7h-1.5v-2.1
				h1.5V90.7z M134.1,90.7h-3.7v-6.9h3.7L134.1,90.7z M118.3,115.3h9.9v11.3h-9.9V115.3z M116.5,114.2l0-7.6h13.3v7.6H116.5z
				 M118.3,102.1v-6h9.9v6H118.3z M128.1,103.2v2.3h-9.9v-2.3H128.1z M117.5,95l0-0.8h11.5V95H117.5z M101.1,115.3h9.9v11.3h-9.9
				V115.3z M99.4,114.2l0-7.6h13.3v7.6H99.4z M101.1,102.1v-6h9.9v6H101.1z M111,103.2v2.3h-9.9v-2.3H111z M100.3,95l0-0.8h11.5V95
				H100.3z M83.9,115.3h9.9v11.3h-9.9V115.3z M82.2,114.2l0-7.6h13.3v7.6H82.2z M83.9,102.1v-6h9.9v6H83.9z M93.8,103.2v2.3h-9.9
				v-2.3H93.8z M83.1,95v-0.8h11.5V95H83.1z M78,91.8h56v29.7h-4.8v-6.2h0.6c0.6,0,1.1-0.5,1.1-1.1v-7.6c0-0.6-0.5-1.1-1.1-1.1h-0.6
				V96c0.5-0.1,0.8-0.6,0.8-1.1v-1.9h-13.7V95c0,0.5,0.3,0.9,0.8,1.1v9.5h-0.6c-0.6,0-1.1,0.5-1.1,1.1v7.6c0,0.6,0.5,1.1,1.1,1.1
				h0.6v6.2h-5.1v-6.2h0.6c0.6,0,1.1-0.5,1.1-1.1v-7.6c0-0.6-0.5-1.1-1.1-1.1h-0.6V96c0.5-0.1,0.8-0.6,0.8-1.1v-1.9H99.2V95
				c0,0.5,0.3,0.9,0.8,1.1v9.5h-0.6c-0.6,0-1.1,0.5-1.1,1.1v7.6c0,0.6,0.5,1.1,1.1,1.1h0.6v6.2h-5.1v-6.2h0.6c0.6,0,1.1-0.5,1.1-1.1
				v-7.6c0-0.6-0.5-1.1-1.1-1.1h-0.6V96c0.5-0.1,0.8-0.6,0.8-1.1v-1.9H82V95c0,0.5,0.3,0.9,0.8,1.1v9.5h-0.6c-0.6,0-1.1,0.5-1.1,1.1
				v7.6c0,0.6,0.5,1.1,1.1,1.1h0.6v6.2H78V91.8z M73.2,98.3h3.7V115h-3.7V98.3z"/>
			<polygon fill="#54A74B" points="116.5,114.2 123.2,114.2 123.2,106.6 116.5,106.6 			"/>
			<rect x="99.4" y="106.6" fill="#54A74B" width="6.7" height="7.6"/>
			<rect x="100.3" y="94.2" fill="#F4A742" width="5.7" height="0.8"/>
			<rect x="101.1" y="96.1" fill="#F4A742" width="4.9" height="6"/>
			<rect x="101.1" y="103.2" fill="#CE3F3C" width="4.9" height="2.3"/>
			<rect x="101.1" y="115.3" fill="#CE3F3C" width="4.9" height="11.3"/>
			<path fill="#54A74B" d="M112.1,115.3v6.2h5.1v-6.2h-0.6c-0.5,0-0.9-0.3-1-0.7h-1.7c-0.2,0.4-0.6,0.7-1,0.7H112.1z"/>
			<path fill="#54A74B" d="M94.9,115.3v6.2h5.1v-6.2h-0.6c-0.5,0-0.9-0.3-1-0.7h-1.7c-0.2,0.4-0.6,0.7-1,0.7H94.9z"/>
			<rect x="117.5" y="94.2" fill="#F4A742" width="5.7" height="0.8"/>
			<rect x="118.3" y="96.1" fill="#F4A742" width="4.9" height="6"/>
			<rect x="118.3" y="103.2" fill="#CE3F3C" width="4.9" height="2.3"/>
			<rect x="118.3" y="115.3" fill="#CE3F3C" width="4.9" height="11.3"/>
			<path fill="#F4A742" d="M149.6,66.4v3.5h2.8V56.8c0,0,0,0,0,0C151.5,58.6,149.6,64.5,149.6,66.4z"/>
			<rect x="149.6" y="71" fill="#F4A742" width="2.8" height="3.4"/>
			<polygon fill="#F4A742" points="148.8,77.3 152.4,77.3 152.4,75.5 149.4,75.5 			"/>
			<path fill="#F4A742" d="M151.4,88.5v6.2c0,0.5-0.4,1-1,1h-1.8v9.8h3.7V78.5h-3.7l0,9h1.8C151,87.5,151.4,87.9,151.4,88.5z"/>
			<path fill="#F4A742" d="M149,107.6h3.4v-1.1h-3.3c0,0.1,0.1,0.3,0.1,0.5C149.1,107.2,149.1,107.4,149,107.6z"/>
			<rect x="148.3" y="108.7" fill="#F4A742" width="4" height="0.9"/>
			<path fill="#F4A742" d="M136.2,66.4v3.5h2.7V56.8C138,58.6,136.2,64.5,136.2,66.4z"/>
			<rect x="136.1" y="71" fill="#F4A742" width="2.7" height="3.4"/>
			<polygon fill="#F4A742" points="135.4,77.3 138.9,77.3 138.9,75.5 136,75.5 			"/>
			<path fill="#F4A742" d="M135.2,95.6v1.6h3.7V78.5h-3.7v9h1.8c0.5,0,1,0.4,1,1v6.2c0,0.5-0.4,1-1,1H135.2z"/>
			<path fill="#F4A742" d="M122.5,66.4v3.5h2.8v-13c0,0,0-0.1-0.1-0.1C124.4,58.6,122.5,64.5,122.5,66.4z"/>
			<rect x="122.5" y="71" fill="#F4A742" width="2.8" height="3.4"/>
			<polygon fill="#F4A742" points="121.8,77.3 125.3,77.3 125.3,75.5 122.4,75.5 			"/>
			<path fill="#F4A742" d="M121.6,78.5v9h1.8c0.5,0,1,0.4,1,1v2.2h0.9V78.5H121.6z"/>
		</g>
	</g>
</g>
</svg>
