<?xml version="1.0" encoding="utf-8"?>
<!-- Generator: Adobe Illustrator 24.1.2, SVG Export Plug-In . SVG Version: 6.00 Build 0)  -->
<svg version="1.1" id="Layer_1" xmlns="http://www.w3.org/2000/svg" xmlns:xlink="http://www.w3.org/1999/xlink" x="0px" y="0px"
	 viewBox="0 0 128 128" style="enable-background:new 0 0 128 128;" xml:space="preserve">
<style type="text/css">
	.st0{fill:#E3B08B;}
	.st1{fill:#CC9A79;}
	.st2{fill:#2D2D2D;}
	.st3{fill:#C49778;}
	.st4{fill:#47423C;}
	.st5{fill:#AA6B4F;}
	.st6{fill:#F4ECE9;}
	.st7{fill:#5E453B;}
	.st8{fill:#5C89AA;}
	.st9{fill:#595855;}
</style>
<g>
	<path class="st0" d="M39.58,73.77c0.34-0.47,0.7-0.9,1.05-1.34c0.71-0.87,1.43-1.72,2.15-2.57l2.15-2.56l1.05-1.29
		c0.17-0.22,0.34-0.43,0.5-0.65c0.13-0.18,0.27-0.37,0.36-0.53c-0.01-0.01-0.02-0.03-0.01-0.05c0.01-0.02,0.02-0.03,0.04-0.03
		c-0.12-0.58-0.1-1.14-0.08-1.68c0.02-0.59,0.06-1.17,0.07-1.75c0-0.17,0-0.35-0.01-0.52c-0.5-0.01-1-0.02-1.5-0.01
		c-0.63,0.02-1.28,0.03-1.86,0.16c-0.07,0.02-0.14,0.04-0.21,0.06c-0.06,0.02-0.12,0.05-0.19,0.09c-0.14,0.07-0.27,0.15-0.41,0.23
		c-0.27,0.16-0.52,0.34-0.78,0.52c-0.26,0.18-0.53,0.38-0.87,0.51c-0.33,0.14-0.73,0.16-1.06,0.09c-0.68-0.14-1.25-0.46-1.82-0.76
		l-0.03-0.01l-0.02-0.02c-0.5-0.5-1.08-0.93-1.67-1.35c-0.59-0.42-1.2-0.81-1.83-1.18c-0.63-0.37-1.26-0.73-1.9-1.08
		c-0.59-0.31-1.18-0.62-1.78-0.9l0.14,0.59c0.47,2.11,0.83,4.23,1.09,6.37c0.13,1.07,0.22,2.15,0.26,3.23
		c0.02,0.54,0.02,1.09-0.01,1.64c-0.01,0.28-0.06,0.56-0.09,0.83c-0.07,0.28-0.12,0.57-0.23,0.83c-0.4,1.06-0.99,1.99-1.59,2.89
		c-0.62,0.9-1.28,1.76-1.97,2.6c-0.7,0.83-1.43,1.64-2.22,2.4c-0.73,0.7-1.47,1.38-2.41,1.94c-0.45,1.66-0.9,3.35-1.37,5.02
		c-0.5,1.74-1.01,3.48-1.63,5.2c-0.32,0.86-0.64,1.72-1.13,2.59c-0.43,0.74-0.82,1.54-1.19,2.35c-0.71,1.55-1.36,3.14-1.98,4.73
		l0.71,2.94l1.11-0.22c-0.06-0.12-0.12-0.25-0.18-0.38c-0.22-0.52-0.4-1.12-0.34-1.81c0.02-0.33,0.15-0.71,0.29-1
		c0.1-0.19,0.2-0.4,0.3-0.62l0.6-1.32l2.37-5.35c0.81-1.78,1.59-3.55,2.53-5.34c0.11-0.21,0.28-0.49,0.43-0.71l0.45-0.6l0.9-1.15
		c0.29-0.38,0.57-0.76,0.82-1.13c0.25-0.37,0.46-0.78,0.52-1.05l0.09-0.42l0.4-0.14c0.42-0.15,0.92-0.39,1.39-0.65
		c0.48-0.25,0.96-0.53,1.43-0.81c0.95-0.56,1.88-1.15,2.8-1.77c1.84-1.22,3.67-2.51,5.3-3.93c0.21-0.18,0.38-0.36,0.57-0.55
		C39.25,74.19,39.4,74.03,39.58,73.77z"/>
	<path class="st1" d="M43.43,70.4c-0.69,0.88-1.38,1.76-2.04,2.64c-0.33,0.44-0.67,0.89-0.97,1.33c-0.13,0.21-0.34,0.48-0.54,0.72
		c-0.2,0.21-0.4,0.44-0.61,0.63c-0.04,0.04-0.08,0.08-0.13,0.12c-0.05,1.51-0.18,3.02-0.39,4.52c-0.12,0.83-0.26,1.66-0.46,2.49
		c-0.1,0.41-0.21,0.83-0.36,1.25c-0.11,0.32-0.24,0.65-0.43,0.98c0.11,0.3,0.24,0.62,0.39,0.94c0.18,0.4,0.37,0.79,0.56,1.19
		c0.37,0.79,0.76,1.59,1.15,2.38c0.78,1.58,1.55,3.17,2.27,4.79c0.73,1.62,1.44,3.23,2.14,4.88c0.69,1.58,1.54,3.13,2.39,4.65
		l1.68,1.02l1.25,0.74c0.26,0.19,0.36,0.11,0.55-0.09l0.93-0.94c-0.57-0.29-1.12-0.6-1.65-0.98c-0.34-0.24-0.67-0.5-0.98-0.8
		c-0.16-0.15-0.3-0.31-0.45-0.49c-0.14-0.18-0.27-0.37-0.37-0.53c-0.87-1.36-1.63-2.74-2.4-4.14c-0.76-1.4-1.5-2.8-2.21-4.24
		c-0.35-0.72-0.69-1.44-0.99-2.22c-0.15-0.4-0.3-0.76-0.4-1.32l-0.18-1.15c-0.11-0.79-0.23-1.6-0.24-2.47
		c0-0.44,0.02-0.89,0.14-1.37c0.06-0.24,0.14-0.49,0.28-0.74l0.17-0.28c0.04-0.07,0.09-0.14,0.14-0.23
		c0.74-1.34,1.45-2.78,2.17-4.18c0.72-1.41,1.43-2.82,2.18-4.22c0.1-0.18,0.16-0.33,0.32-0.56c0.15-0.2,0.29-0.34,0.44-0.48
		l0.87-0.82c0.28-0.27,0.56-0.55,0.8-0.85c0.15-0.19,0.31-0.4,0.41-0.61c-1.57-0.81-3.05-1.8-4.37-2.92L43.43,70.4z"/>
	<path class="st2" d="M19.22,104.56l-2.03,0.37l0.43,0.75h3.21l-1.57-1.08C19.24,104.59,19.23,104.58,19.22,104.56z"/>
	<path class="st2" d="M50.33,106.12h3.21l-1.57-1.07c-0.11-0.07-0.32-0.19-0.32-0.19l-1.36,1.19L50.33,106.12z"/>
	<path class="st3" d="M30.6,57.83l-0.18-0.78c-0.06-0.25-0.12-0.57-0.1-0.86c0.01-0.11,0.03-0.22,0.05-0.33
		c-0.38,0.51-0.71,1.04-0.96,1.61c-0.48,1.05-0.69,2.18-0.57,3.27c0.06,0.54,0.19,1.09,0.43,1.56c0.24,0.47,0.53,0.91,0.82,1.38
		c0.48,0.8,1.07,1.57,1.67,2.43c-0.04-0.64-0.09-1.29-0.16-1.93C31.38,62.04,31.04,59.92,30.6,57.83z"/>
	<path class="st4" d="M103.06,37.84c0.45,0.05,0.89,0.03,1.32-0.07c0.21-0.05,0.42-0.11,0.62-0.19c0.2-0.07,0.41-0.18,0.56-0.27
		l0.12-0.07c-0.09-1.18-0.44-2.31-0.95-3.35c-0.54-1.12-1.24-2.17-2.08-3c-0.21-0.21-0.43-0.4-0.65-0.55
		c-0.22-0.17-0.46-0.27-0.73-0.39c-0.54-0.23-1.13-0.43-1.73-0.6l-3.69-1.03c-0.62-0.18-1.24-0.39-1.87-0.61
		c-0.63-0.24-1.23-0.47-1.9-0.87c-0.72-0.47-1.17-1.15-1.47-1.8c-0.31-0.66-0.49-1.33-0.63-1.99c-0.19-0.94-0.3-1.87-0.35-2.8
		c0,0.78,0.03,1.55,0.13,2.32c0.16,1.21,0.43,2.43,0.94,3.48c0.13,0.26,0.28,0.5,0.44,0.69c0.14,0.17,0.39,0.35,0.61,0.55
		c0.46,0.36,0.95,0.67,1.46,0.96c1.03,0.56,2.14,0.99,3.29,1.41l1.75,0.62l0.88,0.33l0.44,0.17c0.15,0.06,0.33,0.14,0.48,0.22
		c0.64,0.34,1.15,0.84,1.55,1.39c0.4,0.55,0.68,1.16,0.89,1.77c0.41,1.2,0.58,2.45,0.55,3.68L103.06,37.84z"/>
	<path class="st5" d="M114.51,46.09l-0.05-0.03l-0.01-0.01c-0.4-0.42-0.87-0.83-1.34-1.2c-0.47-0.38-0.97-0.72-1.47-1.07l-1.51-1.02
		l-1.47-1.04l-0.1-0.07l-0.07-0.15c-0.13-0.26-0.37-0.57-0.61-0.86c-0.25-0.29-0.5-0.59-0.78-0.87l-0.81-0.87l-0.63-0.66
		c-0.14,0.05-0.28,0.09-0.42,0.12c-0.25,0.06-0.51,0.1-0.77,0.11c-0.5,0.03-1.01-0.05-1.48-0.21c-0.44,0.11-0.88,0.19-1.32,0.27
		c0.21,0.11,0.43,0.22,0.65,0.35l0.02,0.01c0.04,0.02,0.05,0.07,0.03,0.1c-0.01,0.02-0.04,0.04-0.06,0.04
		c-0.49,0.03-0.99,0.01-1.51-0.04l-0.1-0.01l-0.15-0.18c-0.58-0.72-1.14-1.46-1.68-2.17c-0.27-0.35-0.55-0.7-0.81-1.01l-0.19-0.21
		c-0.06-0.06-0.1-0.12-0.2-0.2l-0.52-0.44c-0.7-0.59-1.48-1.15-2.34-1.42c-0.21-0.07-0.43-0.13-0.63-0.13c-0.08,0-0.14,0-0.18,0.02
		c0,0.01,0,0.03,0,0.07c0,0.35,0.13,0.82,0.27,1.23c0.3,0.84,0.6,1.68,1.01,2.44c0.2,0.37,0.43,0.73,0.66,0.99
		c0.12,0.14,0.19,0.2,0.37,0.32c0.15,0.11,0.32,0.22,0.5,0.32c0.7,0.41,1.53,0.7,2.43,1.07c0.23,0.1,0.46,0.2,0.74,0.41
		c0.24,0.2,0.39,0.42,0.52,0.64c0.26,0.43,0.45,0.88,0.58,1.35c0.01,0.04-0.01,0.08-0.05,0.1c-0.03,0.01-0.06,0-0.08-0.02l0,0
		c-0.34-0.33-0.67-0.66-1.02-0.94c-0.17-0.14-0.35-0.26-0.49-0.32c-0.11-0.04-0.33-0.08-0.55-0.11c-0.34-0.06-0.71-0.12-1.07-0.2
		c-1.13,1.69-2.3,3.36-3.51,4.99c-0.64,0.87-1.3,1.72-1.99,2.56c-0.35,0.42-0.71,0.82-1.11,1.22c-0.19,0.19-0.45,0.4-0.66,0.56
		c-0.23,0.16-0.45,0.31-0.68,0.46c-0.93,0.59-1.89,1.1-2.91,1.54c-1.02,0.42-2.09,0.78-3.24,0.89c-0.57,0.07-1.17,0.05-1.76-0.07
		c-0.59-0.11-1.12-0.32-1.64-0.54c-1.02-0.45-1.96-1-2.9-1.48c-0.94-0.48-1.88-0.94-2.83-1.16c-0.48-0.13-0.94-0.15-1.4-0.14
		l-0.85,0.02l-0.82-0.01c-2.17-0.06-4.3-0.17-6.45-0.27c-4.29-0.22-8.57-0.45-12.84-0.58c-2.14-0.06-4.28-0.06-6.38,0.1
		c-0.54,0.02-1.04,0.11-1.55,0.18c-0.26,0.02-0.49,0.12-0.74,0.18c-0.25,0.09-0.5,0.16-0.75,0.26c-0.99,0.37-1.98,0.78-2.96,1.21
		c-1.95,0.87-3.88,1.82-5.76,2.84c-0.92,0.52-1.89,1.06-2.71,1.64c-0.36,0.31-0.59,0.77-0.62,1.25c-0.01,0.25,0.02,0.46,0.09,0.73
		l0.03,0.13c0.64,0.24,1.26,0.52,1.88,0.81c0.66,0.31,1.32,0.64,1.96,1c0.64,0.35,1.27,0.73,1.89,1.13c0.61,0.4,1.19,0.83,1.73,1.34
		c0.55,0.28,1.12,0.57,1.69,0.68c0.29,0.05,0.56,0.04,0.82-0.07c0.26-0.11,0.51-0.29,0.77-0.48c0.26-0.19,0.53-0.37,0.82-0.53
		c0.14-0.08,0.29-0.16,0.43-0.24c0.07-0.04,0.15-0.08,0.24-0.11c0.09-0.03,0.17-0.05,0.26-0.07c0.67-0.14,1.31-0.14,1.96-0.14
		c0.5,0.01,1,0.04,1.49,0.07c-0.01-0.29-0.04-0.57-0.09-0.86c-0.09-0.56-0.27-1.12-0.6-1.59c-0.02-0.03-0.02-0.08,0.02-0.11
		c0.03-0.02,0.08-0.02,0.1,0.01c0.38,0.47,0.6,1.05,0.74,1.63c0.07,0.31,0.12,0.61,0.15,0.92c1.96,0.13,3.9,0.38,5.84,0.62
		c2.54,0.33,5.07,0.68,7.6,1.13c1.26,0.22,2.52,0.47,3.77,0.78c0.62,0.16,1.25,0.32,1.86,0.52c0.53,0.18,1.06,0.37,1.57,0.64
		c0.67-0.61,1.37-1.19,2.1-1.72c0.03-0.02,0.08-0.02,0.11,0.02c0.02,0.03,0.02,0.07-0.01,0.1c-0.56,0.57-1.11,1.16-1.65,1.75
		c0.79,0.09,1.6,0.01,2.37-0.23c0.9-0.27,1.75-0.71,2.57-1.2c0.82-0.49,1.62-1.04,2.45-1.56c0.83-0.51,1.68-1.03,2.66-1.32
		c0.49-0.14,1.01-0.22,1.53-0.16c0.26,0.03,0.52,0.09,0.76,0.17c0.24,0.08,0.47,0.17,0.69,0.28c0.91,0.41,1.74,0.94,2.54,1.5
		c0.8,0.55,1.55,1.17,2.36,1.68c0.41,0.25,0.82,0.49,1.28,0.62c0.39,0.11,0.82,0.09,1.2-0.09c0.1-0.1,0.2-0.19,0.29-0.3
		c0.43-0.45,0.85-0.91,1.26-1.38c0.83-0.93,1.69-1.84,2.54-2.75c1.7-1.83,3.41-3.65,5.25-5.36c1.78-1.68,3.58-3.33,5.52-4.86
		c-0.16-0.01-0.32-0.02-0.48-0.04c-0.3-0.03-0.59-0.1-0.88-0.19l-0.43-0.15l-0.48-0.15c-0.27-0.1-0.47-0.34-0.52-0.61l-0.07-0.46
		l-0.11-0.9c-0.06-0.6-0.14-1.2-0.18-1.81c0-0.03,0.02-0.05,0.05-0.05c0.02,0,0.04,0.01,0.05,0.03c0.21,0.57,0.38,1.15,0.58,1.72
		l0.27,0.86l0.13,0.42c0.02,0.02,0.05,0.03,0.07,0.03l0.86,0.09c0.3,0.03,0.6,0.09,0.88,0.18c0.52,0.17,1.03,0.38,1.51,0.71
		c0.63,0.13,1.26,0.26,1.89,0.35c0.83,0.12,1.66,0.22,2.45,0.17l0.05,0l0.09,0.03c0.42,0.13,0.87,0.18,1.34,0.19l0.74,0
		c0.26,0.02,0.54,0,0.92,0.18l0.13,0.07l0.06,0.04l0.14,0.08l0.29,0.17c0.2,0.11,0.4,0.22,0.61,0.32c0.4,0.19,0.83,0.38,1.19,0.41
		c0.19-0.11,0.39-0.32,0.54-0.55l-0.36-0.12c-0.68-0.26-1.38-0.52-1.96-1c-0.02-0.02-0.02-0.05-0.01-0.07
		c0.01-0.02,0.04-0.02,0.05-0.02l0.01,0c0.67,0.22,1.38,0.32,2.07,0.46l0.52,0.09l0.01,0l0.03-0.04c0.1-0.15,0.19-0.3,0.28-0.46
		c-0.36-0.06-1.18-0.82-0.54-0.82c0.66,0,0.26-0.83,0.59-0.83c0.03,0,0.06,0.01,0.1,0.01c-0.04-0.06-0.09-0.12-0.13-0.18
		C115.55,46.99,115.07,46.43,114.51,46.09z M106.95,42.56c-0.16,0.36-0.51,0.6-0.92,0.6c-0.56,0-1.01-0.45-1.01-1.01
		s0.45-1.01,1.01-1.01c0.26,0,0.5,0.1,0.67,0.26c0.48,0.14,1.25,0.55,1.9,1.71C108.12,42.81,107.53,42.51,106.95,42.56z"/>
	<path class="st0" d="M87.52,64.23c-0.49-0.1-0.95-0.31-1.37-0.55c-0.85-0.49-1.65-1.05-2.46-1.57c-0.81-0.53-1.63-1.01-2.51-1.38
		c-0.44-0.18-0.88-0.36-1.31-0.39c-0.44-0.05-0.9,0.02-1.34,0.15c-0.88,0.27-1.71,0.76-2.52,1.27c-0.81,0.52-1.61,1.07-2.45,1.57
		c-0.84,0.5-1.73,0.95-2.7,1.23c-0.93,0.28-1.94,0.35-2.9,0.18c-0.55,0.64-1.08,1.29-1.54,1.98c-0.25,0.37-0.48,0.75-0.63,1.14
		c-0.08,0.19-0.13,0.38-0.15,0.54c-0.02,0.17-0.02,0.4-0.01,0.61c0.05,0.87,0.23,1.76,0.4,2.66c0.17,0.92,0.39,1.78,0.48,2.82
		c0,0.14,0.01,0.28-0.02,0.46c-0.05,0.25-0.07,0.28-0.09,0.4l-0.16,0.67l-0.31,1.35c-0.4,1.81-0.83,3.61-1.29,5.4l-0.02,0.09
		l-0.03,0.06c-0.14,0.26-0.27,0.56-0.4,0.85c-0.12,0.29-0.24,0.59-0.33,0.89c-0.19,0.6-0.31,1.21-0.28,1.78l0.01,0.1l-0.01,0.04
		c-0.29,1.2-0.64,2.28-0.98,3.41c-0.35,1.12-0.68,2.24-1.01,3.36c-0.32,1.12-0.65,2.25-0.95,3.37c-0.3,1.11-0.6,2.22-0.89,3.34
		c0.05,0.94,0.13,1.87,0.2,2.81l0.47,0.48l1.82-0.91c-0.34-0.33-0.64-0.7-0.89-1.16c-0.17-0.34-0.33-0.78-0.25-1.29
		c0.02-0.12,0.06-0.25,0.11-0.36l0.09-0.22c0.05-0.12,0.1-0.28,0.15-0.43c0.4-1.21,0.76-2.48,1.12-3.73
		c0.74-2.5,1.46-5.02,2.17-7.53l0.03-0.1l0.07-0.11c0.2-0.32,0.4-0.67,0.6-1.01c0.19-0.34,0.38-0.69,0.55-1.04
		c0.17-0.35,0.33-0.7,0.45-1.05c0.12-0.35,0.22-0.7,0.26-1l0.02-0.16l0.06-0.12c0.93-1.75,1.9-3.39,2.88-5.07
		c0.99-1.66,1.98-3.31,3-4.96l0.1-0.15l0.05-0.09c0.04-0.06,0.1-0.14,0.13-0.16c0.15-0.15,0.27-0.22,0.38-0.3
		c0.23-0.15,0.45-0.27,0.66-0.39l1.29-0.67c0.84-0.45,1.68-0.9,2.35-1.49c0.16-0.15,0.31-0.3,0.41-0.46
		c0.09-0.17,0.2-0.39,0.28-0.59c0.16-0.42,0.27-0.87,0.33-1.34c0.11-0.93,0.08-1.89-0.07-2.84l0,0c-0.01-0.04,0.02-0.08,0.06-0.09
		c0.04-0.01,0.07,0.02,0.08,0.05c0.29,0.94,0.43,1.91,0.42,2.91c-0.01,0.5-0.07,1-0.2,1.5c-0.06,0.25-0.15,0.48-0.27,0.74
		c-0.14,0.26-0.31,0.47-0.49,0.67c-0.73,0.75-1.57,1.28-2.39,1.81l-1.22,0.77c-0.2,0.13-0.39,0.25-0.56,0.37
		c0.7,0.06,1.4,0.1,2.09,0.11c0.89,0.01,1.77-0.04,2.58-0.21c0.41-0.08,0.78-0.23,1.13-0.38c0.39-0.2,0.79-0.41,1.17-0.63
		c0.75-0.42,1.54-0.87,2.2-1.31c0.69-1.01,1.45-1.95,2.18-2.92c0.78-0.99,1.51-2.02,2.38-2.97c0.21-0.24,0.46-0.47,0.69-0.69
		c0.07-0.07,0.13-0.13,0.2-0.19C88.26,64.28,87.88,64.31,87.52,64.23z"/>
	<path class="st6" d="M64.62,69.29c-0.2,0.11-0.42,0.2-0.64,0.27c-0.26,0.09-0.53,0.15-0.79,0.21c-0.53,0.11-1.07,0.19-1.61,0.25
		c-1.07,0.1-2.16,0.14-3.23,0.05c-1.07-0.09-2.14-0.24-3.21-0.43c-1.06-0.21-2.13-0.43-3.14-0.95l-0.08-0.04l-0.04-0.07
		c-0.5-0.89-1.31-1.62-2.18-2.23c-0.74-0.51-1.53-0.94-2.36-1.3c-0.12,0.25-0.25,0.44-0.38,0.65c-0.16,0.24-0.32,0.47-0.48,0.7
		c-0.33,0.46-0.66,0.91-1,1.35l-0.87,1.12c1.55,1.01,3.14,1.86,4.83,2.5c0.86,0.33,1.74,0.62,2.64,0.81
		c0.44,0.12,0.9,0.16,1.34,0.24c0.45,0.04,0.9,0.1,1.35,0.1c0.88,0.02,1.85-0.06,2.77-0.12c0.94-0.06,1.87-0.09,2.81-0.07
		c1.54,0.03,3.08,0.09,4.63,0.26c-0.04-0.24-0.08-0.48-0.11-0.71C64.74,71.03,64.63,70.18,64.62,69.29z"/>
	<path class="st1" d="M81.6,73.43c-0.42,0.22-0.83,0.42-1.26,0.62c-0.49,0.21-0.99,0.34-1.49,0.39c-0.78,0.1-1.54,0.06-2.28-0.04
		c0.6,0.92,1.44,2.28,1.91,3.01c0.55,0.87,1.1,1.75,1.62,2.64c0.53,0.88,1.06,1.77,1.57,2.67c0.52,0.89,1.03,1.79,1.53,2.69
		l0.06,0.11l0.02,0.18c0.03,0.27,0.12,0.65,0.25,0.97c0.13,0.32,0.27,0.65,0.47,0.94c0.19,0.29,0.41,0.57,0.67,0.82
		c0.24,0.26,0.53,0.48,0.82,0.69l0.18,0.13l0.06,0.13c0.98,2.32,1.84,4.7,2.81,7.02c0.24,0.58,0.49,1.16,0.75,1.73
		c0.25,0.58,0.51,1.15,0.78,1.72c0.27,0.57,0.53,1.14,0.81,1.7c0.24,0.44,0.48,0.87,0.72,1.31l0.53-0.44l0.26-0.21l0.24,0.27
		l0.35,0.4l1.31-1.2c-0.86-0.76-1.63-1.57-2.35-2.45c-0.84-1.02-1.59-2.15-2.23-3.31c-0.64-1.16-1.2-2.34-1.73-3.54
		c-0.51-1.21-1.01-2.4-1.43-3.65l-0.05-0.14l0-0.14c0-0.29-0.03-0.68-0.08-1.02c-0.05-0.35-0.13-0.7-0.24-1.03
		c-0.1-0.34-0.23-0.66-0.38-0.97c-0.14-0.32-0.34-0.6-0.54-0.88l-0.09-0.13l-0.02-0.08c-0.32-1-0.55-1.96-0.79-2.93
		c-0.25-0.97-0.47-1.95-0.69-2.92c-0.22-0.98-0.43-1.95-0.63-2.93c-0.17-0.88-0.35-1.76-0.51-2.64C82.2,73.08,81.9,73.26,81.6,73.43
		z"/>
	<polygon class="st2" points="61.15,104.12 64.36,104.12 62.92,103.13 61.06,103.96 	"/>
	<path class="st0" d="M67.42,64.5c-0.42-0.21-0.88-0.39-1.34-0.55c-0.6-0.2-1.21-0.39-1.82-0.56c-1.23-0.33-2.47-0.62-3.72-0.89
		c-2.5-0.53-5.02-0.96-7.56-1.26c-1.92-0.23-3.86-0.39-5.79-0.44c0.01,0.17,0.02,0.34,0.03,0.51c0.02,0.59,0.01,1.18,0.02,1.76
		c0.01,0.58,0.03,1.16,0.18,1.66l0.03,0.09l-0.03,0.07c0,0.01-0.01,0.02-0.01,0.03c0.86,0.3,1.69,0.68,2.48,1.14
		c0.91,0.54,1.79,1.2,2.41,2.14c0.91,0.38,1.94,0.54,2.96,0.66c1.04,0.12,2.09,0.15,3.14,0.17c1.05,0,2.1,0.07,3.15,0.11l1.58,0.05
		c0.5,0,1,0.02,1.48-0.05c0-0.04,0-0.08,0-0.12c0.01-0.25,0.01-0.48,0.06-0.77c0.06-0.29,0.15-0.55,0.27-0.78
		c0.23-0.46,0.52-0.85,0.82-1.23C66.27,65.61,66.84,65.04,67.42,64.5z"/>
	<path class="st2" d="M93.67,103.73h3.21l-1.57-1.08c-0.13-0.09-0.19-0.22-0.21-0.36l-1.56,1.19L93.67,103.73z"/>
	<path class="st6" d="M100.49,45.06c-0.04,0.06-2.5,3.24-1.6,5.6c0.24,0.62,1.54,2.15,1.54,2.15l3.59-3.83c0,0-2.5-0.18-2.7-0.65
		C101.13,47.87,100.49,45.06,100.49,45.06z"/>
	<path class="st0" d="M100.81,39.01c0.04-0.01,1.94,0.82,2.33,1.93c0.39,1.11,0.32,3.59,2.4,3.7c2.08,0.11,5.42,2.44,5.96,3.12
		c0.54,0.68,1.18,1.58,1.9,1.83c0.72,0.25,2.07,0.91,2.45,0.51c0.38-0.4,1.05-1.63,0.67-2.25s-0.8-1.32-1.38-1.74
		s-4.2-3.15-4.73-3.79c-0.54-0.65-4.26-4.2-4.58-4.51c-1.23,0.11-2.58,0.4-2.94,0.23c-0.5,0.23-1.94,0.7-1.94,0.7L100.81,39.01z"/>
	<path class="st7" d="M101.09,42.09c0,0-0.86-2.52-0.28-3.08c-0.26-0.87-3.54-5.01-4.75-5.43c-1.2-0.43-1.92-0.55-2.02-0.53
		c-0.1,0.02-0.69,2.16-0.04,3.12c0.65,0.96,2.3,3.63,3.49,3.71c1.18,0.08,2.37,0.8,2.37,0.8L101.09,42.09z"/>
	<path class="st6" d="M106.13,40.83c-0.35-0.03-0.7,0.01-1.03,0.11c-0.56,0.17-0.98,0.37-0.78,0.98c0.25,0.77,0.18,1.3,1.28,1.55
		s2.99,1.45,3.44,1.12c0.41-0.31,0.37-0.74,0.05-1.31c-0.32-0.57-1.08-1.83-1.81-2.17C106.91,40.93,106.47,40.86,106.13,40.83z"/>
	<path class="st6" d="M30.51,56.56c-0.31,0.54-0.49,3.04-0.26,4.6c0.23,1.56,0.89,4.57,1.56,5.21c0.18-1.18-0.46-6.62-0.74-7.61
		C30.79,57.76,30.51,56.56,30.51,56.56z"/>
	<path class="st2" d="M106.7,41.41c-0.18-0.16-0.41-0.26-0.67-0.26c-0.56,0-1.01,0.45-1.01,1.01s0.45,1.01,1.01,1.01
		c0.41,0,0.77-0.25,0.92-0.6c0.58-0.05,1.17,0.25,1.65,0.56C107.95,41.96,107.18,41.56,106.7,41.41z"/>
	<path class="st2" d="M83.94,71.78l0.1-0.1l0.03-0.06c0.53-1.11,1.06-2.25,1.71-3.31c0.32-0.53,0.68-1.05,1.06-1.53
		c0.16-0.2,0.33-0.4,0.5-0.6c0.05,0.01,0.1,0.03,0.15,0.03H128v-4.44H92.6c0.43-0.39,0.86-0.79,1.29-1.18
		c1.83-1.72,3.61-3.49,5.26-5.38c1.65-1.88,3.26-3.8,4.71-5.87c0.34,0.01,0.7-0.02,1.06-0.1c0.57,0.21,1.15,0.4,1.74,0.56
		c0.79,0.22,1.6,0.39,2.47,0.44c0.48,0.2,0.99,0.31,1.48,0.37l0.72,0.1c0.22,0.04,0.44,0.09,0.5,0.13l0.13,0.08l0.18,0.1
		c0.11,0.07,0.23,0.13,0.35,0.18c0.23,0.11,0.48,0.19,0.73,0.27c0.5,0.13,1.03,0.27,1.65,0.1l0.08-0.03l0.03-0.02
		c0.16-0.16,0.27-0.34,0.33-0.51c0.06-0.17,0.08-0.34,0.09-0.51l0.05,0.01l0.13,0.04c0.11,0.03,0.24,0.03,0.35-0.02
		c0.11-0.04,0.22-0.11,0.29-0.21l0.09-0.11c0.23-0.29,0.45-0.58,0.65-0.9c0.09-0.16,0.2-0.32,0.29-0.51
		c0.03-0.05,0.04-0.1,0.07-0.16c0.03-0.1,0.04-0.2,0.04-0.29c-0.01-0.18-0.05-0.3-0.09-0.42c-0.18-0.44-0.44-0.72-0.71-0.99
		c-0.27-0.27-0.57-0.5-0.88-0.72c-0.3-0.21-0.61-0.4-0.98-0.53c-0.48-0.39-0.94-0.74-1.38-1.13c-0.46-0.39-0.9-0.81-1.34-1.23
		c-0.44-0.42-0.87-0.85-1.33-1.25c-0.42-0.37-0.84-0.74-1.3-1.1c-0.18-0.41-0.41-0.72-0.63-1.03c-0.25-0.34-0.53-0.65-0.81-0.95
		c-0.28-0.3-0.58-0.58-0.87-0.86c-0.3-0.29-0.61-0.54-0.92-0.81l-0.21-0.18c0.06-0.54,0.05-1.1-0.01-1.65
		c-0.08-0.66-0.22-1.31-0.43-1.94c-0.42-1.26-1.04-2.46-1.92-3.52c-0.23-0.26-0.47-0.52-0.75-0.75c-0.28-0.24-0.61-0.44-0.91-0.6
		c-0.62-0.32-1.24-0.56-1.86-0.79c-1.24-0.45-2.47-0.79-3.68-1.18c-0.6-0.19-1.2-0.37-1.79-0.58c-0.29-0.11-0.58-0.21-0.85-0.34
		c-0.14-0.06-0.28-0.11-0.41-0.18c-0.12-0.06-0.28-0.13-0.35-0.18c-0.37-0.22-0.7-0.63-0.95-1.12c-0.26-0.49-0.45-1.06-0.61-1.65
		c-0.3-1.18-0.46-2.43-0.6-3.69c-0.13-1.25-0.23-2.53-0.32-3.81l-0.15-2.44l-0.6,2.32c-0.33,1.25-0.46,2.51-0.51,3.76
		c-0.05,1.25-0.03,2.5,0.06,3.76c0.09,1.25,0.22,2.5,0.63,3.76c0.11,0.32,0.25,0.63,0.44,0.94c0.22,0.34,0.46,0.54,0.68,0.79
		c0.47,0.46,0.99,0.87,1.55,1.22c0.55,0.36,1.13,0.65,1.73,0.9c0.59,0.25,1.19,0.46,1.79,0.66l1.78,0.56l0.87,0.27l0.44,0.14
		c0.15,0.05,0.25,0.09,0.37,0.15c0.97,0.42,1.7,1.37,2.23,2.43c0.52,1.05,0.87,2.22,1.12,3.41c-0.46,0.21-0.94,0.39-1.42,0.58
		c-0.08-0.04-0.16-0.08-0.25-0.11c-0.33-0.86-0.73-1.68-1.25-2.46c-0.27-0.41-0.56-0.8-0.95-1.16c-0.11-0.09-0.21-0.17-0.33-0.25
		c-0.12-0.09-0.26-0.17-0.36-0.22c-0.22-0.11-0.44-0.2-0.67-0.29c-0.91-0.34-1.79-0.67-2.67-1.03c-0.22-0.08-0.46-0.16-0.72-0.22
		c-0.13-0.03-0.29-0.04-0.48,0.01c-0.11,0.04-0.22,0.1-0.3,0.22c-0.06,0.1-0.08,0.18-0.11,0.25c-0.14,0.58-0.11,1.05-0.1,1.55
		c0.05,0.99,0.3,1.94,0.67,2.88c0.2,0.47,0.41,0.94,0.78,1.39c0.16,0.23,0.45,0.48,0.67,0.61c0.22,0.16,0.46,0.29,0.7,0.41
		c0.52,0.25,1.05,0.41,1.57,0.52c-1.24,1.58-2.47,3.16-3.75,4.7c-0.68,0.82-1.38,1.63-2.1,2.41c-0.35,0.39-0.72,0.78-1.1,1.13
		c-0.09,0.09-0.18,0.16-0.28,0.23c-0.1,0.08-0.18,0.15-0.3,0.22c-0.22,0.14-0.44,0.28-0.67,0.41c-0.91,0.53-1.86,0.99-2.83,1.38
		c-0.97,0.36-1.98,0.65-2.97,0.71c-1,0.09-1.89-0.17-2.84-0.61c-0.93-0.44-1.84-0.98-2.8-1.5c-0.96-0.51-1.95-1.04-3.09-1.32
		c-0.56-0.16-1.18-0.21-1.79-0.2l-0.76,0.01l-0.79-0.02c-1.77-0.06-3.56-0.17-5.35-0.27V0h-4.44v47.62
		c-3.17-0.13-6.35-0.22-9.54-0.18c-2.15,0.03-4.32,0.1-6.48,0.34c-0.54,0.04-1.09,0.16-1.64,0.26c-0.27,0.03-0.54,0.15-0.81,0.23
		c-0.25,0.1-0.51,0.2-0.77,0.3c-1,0.42-1.98,0.87-2.95,1.34c-1.94,0.94-3.85,1.93-5.72,3c-0.94,0.54-1.86,1.05-2.78,1.72
		c-0.11,0.09-0.2,0.2-0.29,0.3c-0.78,0.61-1.46,1.35-2.02,2.2c-0.68,1.06-1.1,2.34-1.09,3.67c0,0.33,0.03,0.66,0.06,0.99H0v4.44
		h30.81c0.31,0.16,0.63,0.3,0.98,0.39c0.01,0.25,0.01,0.49,0.01,0.74c0.01,0.53-0.01,1.06-0.06,1.58c-0.02,0.26-0.07,0.51-0.11,0.76
		c-0.06,0.24-0.11,0.48-0.22,0.71c-0.38,0.94-0.98,1.83-1.59,2.68c-0.62,0.86-1.29,1.68-2,2.46c-0.71,0.79-1.45,1.55-2.23,2.26
		c-0.77,0.7-1.6,1.39-2.44,1.81l-0.23,0.11l-0.07,0.24c-0.52,1.74-1.01,3.46-1.55,5.18c-0.53,1.71-1.08,3.42-1.71,5.08
		c-0.31,0.82-0.65,1.65-1.06,2.34c-0.48,0.82-0.89,1.63-1.29,2.46c-0.78,1.65-1.49,3.31-2.17,5.01l-0.09,0.22l0.06,0.23l0.89,3.91
		l0.12,0.51c0,0.03,0.01,0.04,0.01,0.06l0.03,0.15h0.01l0.89,1.57h7.07l-2.93-2.48l-0.8-1.06c-0.48-0.62-0.91-1.51-0.84-2.09
		c0.01-0.16,0.05-0.25,0.11-0.39c0.12-0.24,0.23-0.48,0.34-0.7l0.61-1.34l2.36-5.35c0.78-1.77,1.57-3.59,2.41-5.26
		c0.11-0.23,0.2-0.36,0.32-0.55l0.42-0.57l0.88-1.17c0.3-0.41,0.59-0.81,0.87-1.25c0.21-0.35,0.42-0.72,0.58-1.19
		c0.17-0.07,0.34-0.15,0.48-0.22c0.27-0.13,0.52-0.27,0.77-0.41c0.5-0.28,0.99-0.57,1.46-0.87c0.96-0.6,1.89-1.22,2.82-1.86
		c0.92-0.64,1.83-1.31,2.72-1.99c0.75-0.58,1.48-1.17,2.19-1.81c-0.28,1.38-0.56,2.75-0.88,4.11c-0.19,0.8-0.41,1.6-0.65,2.37
		c-0.12,0.39-0.25,0.77-0.41,1.12c-0.15,0.35-0.33,0.71-0.52,0.95l-0.17,0.22l0.07,0.27c0.13,0.51,0.3,0.92,0.46,1.34
		c0.16,0.42,0.34,0.84,0.51,1.24c0.36,0.82,0.73,1.62,1.12,2.43c0.75,1.61,1.57,3.19,2.42,4.74c0.84,1.56,1.77,3.08,2.58,4.64
		c0.44,0.79,0.88,1.55,1.32,2.32l1.32,2.31l0.03,0.05l0.05,0.03l1.72,1.08l1.43,0.93l0.48,0.87h7.07l-4.25-2.91
		c-0.2-0.15-2.2-0.89-2.78-1.37c-0.29-0.24-0.56-0.5-0.79-0.77c-0.13-0.13-0.22-0.28-0.32-0.42c-0.09-0.13-0.18-0.29-0.27-0.46
		c-0.73-1.37-1.45-2.78-2.15-4.19c-0.7-1.41-1.39-2.83-2.04-4.25c-0.32-0.72-0.63-1.43-0.91-2.14c-0.13-0.34-0.27-0.72-0.3-0.95
		l-0.18-1.19c-0.13-0.77-0.25-1.53-0.28-2.24c-0.01-0.35,0-0.7,0.06-0.99c0.03-0.15,0.08-0.27,0.12-0.37l0.13-0.23
		c0.06-0.1,0.11-0.2,0.15-0.29c0.72-1.46,1.34-2.9,1.96-4.37c0.61-1.46,1.21-2.93,1.79-4.4c0.07-0.17,0.16-0.4,0.21-0.5
		c0.08-0.13,0.2-0.29,0.32-0.44l0.75-0.92c0.25-0.32,0.49-0.64,0.71-0.98c0.13-0.22,0.25-0.46,0.33-0.71
		c0.03,0.01,0.04,0.03,0.07,0.04c0.86,0.41,1.76,0.79,2.69,1.06c0.46,0.16,0.94,0.25,1.41,0.37c0.48,0.08,0.96,0.18,1.46,0.22
		c0.49,0.05,0.99,0.09,1.45,0.1l1.42,0.07c0.94,0.03,1.89,0.01,2.84-0.06c0.08-0.01,0.17-0.01,0.25-0.03
		c0.37-0.03,0.75-0.08,1.13-0.12v16.59c-0.22,0.99-0.46,1.97-0.7,2.95c-0.29,1.13-0.58,2.26-0.9,3.38
		c-0.32,1.13-0.64,2.25-0.98,3.36l-0.01,0.04v0.04c0.03,1,0.03,2,0.04,3v0.11l0.1,0.11l1.23,1.85h1.23V128h4.44v-22.87h1.4
		l-1.4-0.96V88.26c0.22-0.32,0.41-0.63,0.6-0.96c0.22-0.37,0.41-0.75,0.6-1.13c0.19-0.39,0.37-0.79,0.52-1.21
		c0.13-0.37,0.24-0.75,0.31-1.18c0.84-1.64,1.78-3.31,2.68-4.97l2.76-5.08l0.04-0.08c0.72,0.29,1.48,0.52,2.25,0.67
		c0.1,0.02,0.2,0.03,0.3,0.05c0.45,1,1.24,2.54,1.62,3.37c0.43,0.94,0.87,1.88,1.32,2.8c0.46,0.93,0.91,1.85,1.38,2.77
		c0.44,0.88,0.91,1.76,1.36,2.62c0.05,0.46,0.15,0.82,0.29,1.21c0.15,0.43,0.36,0.84,0.61,1.21c0.26,0.37,0.54,0.73,0.87,1.04
		c0.29,0.27,0.6,0.49,0.92,0.7c1.1,2.2,2.29,4.35,3.38,6.56c0.28,0.56,0.56,1.13,0.82,1.7c0.27,0.57,0.54,1.14,0.79,1.72l0.76,1.72
		c0.28,0.57,0.55,1.14,0.82,1.71l0.15,0.33l0.32-0.22l0.57-0.41c0,0,0.27,0.58,0.32,0.67l0.49,0.89h7.07l-4.26-3.04l-0.46-0.46
		c-0.87-0.86-1.7-1.84-2.45-2.85c-0.75-1.01-1.4-2.07-1.96-3.19c-0.56-1.13-1.08-2.29-1.57-3.47c-0.49-1.13-0.93-2.31-1.38-3.45
		c-0.01-0.41-0.06-0.75-0.13-1.13c-0.08-0.42-0.19-0.84-0.33-1.25c-0.13-0.41-0.31-0.8-0.53-1.18c-0.18-0.35-0.42-0.67-0.67-0.98
		c-0.32-0.86-0.61-1.79-0.92-2.69l-0.94-2.84c-0.32-0.94-0.63-1.89-0.97-2.83c-0.31-0.87-0.6-1.74-0.93-2.6
		c0.04-0.03,0.09-0.06,0.13-0.09C83.19,72.41,83.56,72.15,83.94,71.78z M126.73,63.05v1.9H88.69c0.04-0.03,0.08-0.06,0.11-0.08
		c0.25-0.2,0.53-0.37,0.77-0.57c0.51-0.39,1.03-0.82,1.52-1.22c0.06-0.04,0.32-0.03,0.44-0.03H126.73z M102.5,34.15
		c-0.22-0.61-0.49-1.22-0.89-1.77c-0.4-0.54-0.91-1.05-1.55-1.39c-0.15-0.08-0.34-0.16-0.48-0.22l-0.44-0.17l-0.88-0.33l-1.75-0.62
		c-1.15-0.42-2.26-0.85-3.29-1.41c-0.51-0.29-1-0.6-1.46-0.96c-0.22-0.19-0.48-0.37-0.61-0.54c-0.16-0.19-0.31-0.43-0.44-0.69
		c-0.51-1.05-0.79-2.27-0.94-3.47c-0.1-0.77-0.13-1.55-0.13-2.33c0.06,0.93,0.16,1.86,0.35,2.79c0.15,0.66,0.33,1.32,0.63,1.98
		c0.3,0.65,0.75,1.33,1.47,1.8c0.67,0.41,1.26,0.63,1.89,0.87c0.63,0.22,1.25,0.43,1.87,0.61l3.69,1.03c0.6,0.18,1.19,0.37,1.73,0.6
		c0.27,0.12,0.51,0.23,0.73,0.39c0.23,0.15,0.45,0.34,0.66,0.55c0.84,0.84,1.53,1.89,2.07,3c0.51,1.04,0.86,2.17,0.94,3.35
		l-0.11,0.07c-0.15,0.09-0.36,0.2-0.56,0.27c-0.2,0.08-0.41,0.13-0.62,0.18c-0.43,0.1-0.87,0.12-1.32,0.07l-0.02-0.01
		C103.07,36.6,102.9,35.36,102.5,34.15z M63.05,1.27h1.9v46.5c-0.63-0.03-1.27-0.06-1.9-0.09V1.27z M31.4,54.97
		c0.82-0.58,1.79-1.13,2.71-1.64c1.88-1.03,3.8-1.97,5.76-2.84c0.98-0.43,1.96-0.84,2.96-1.21c0.25-0.1,0.49-0.17,0.74-0.26
		c0.25-0.06,0.48-0.16,0.74-0.18c0.51-0.07,1.01-0.16,1.55-0.19c2.11-0.16,4.25-0.15,6.39-0.1c4.27,0.13,8.55,0.36,12.84,0.58
		c2.15,0.11,4.28,0.22,6.45,0.28l0.82,0.01l0.85-0.02c0.46-0.01,0.93,0.02,1.4,0.15c0.95,0.22,1.89,0.68,2.83,1.15
		c0.94,0.49,1.88,1.03,2.9,1.48c0.51,0.22,1.05,0.44,1.63,0.54c0.59,0.11,1.19,0.14,1.76,0.07c1.15-0.11,2.22-0.47,3.24-0.89
		c1.02-0.43,1.98-0.95,2.91-1.54c0.23-0.15,0.46-0.3,0.68-0.46c0.22-0.16,0.48-0.36,0.67-0.56c0.41-0.39,0.76-0.8,1.11-1.22
		c0.69-0.84,1.35-1.69,1.99-2.55c1.21-1.64,2.38-3.3,3.51-4.99c0.37,0.08,0.73,0.14,1.08,0.2c0.22,0.04,0.44,0.08,0.54,0.11
		c0.14,0.06,0.32,0.18,0.49,0.32c0.34,0.28,0.67,0.61,1.01,0.94v0.01c0.02,0.02,0.05,0.03,0.08,0.02c0.04-0.01,0.06-0.06,0.06-0.1
		c-0.13-0.47-0.32-0.91-0.58-1.34c-0.14-0.22-0.28-0.44-0.52-0.64c-0.29-0.22-0.52-0.31-0.75-0.41c-0.9-0.37-1.73-0.66-2.43-1.08
		c-0.17-0.1-0.34-0.2-0.49-0.32c-0.18-0.13-0.24-0.18-0.37-0.32c-0.23-0.25-0.46-0.61-0.66-0.98c-0.41-0.75-0.7-1.6-1.01-2.44
		c-0.14-0.41-0.27-0.87-0.27-1.23c0-0.04,0.01-0.06,0-0.07c0.04-0.01,0.1-0.03,0.18-0.02c0.2,0.01,0.42,0.06,0.63,0.13
		c0.86,0.27,1.63,0.83,2.34,1.42l0.52,0.44c0.1,0.08,0.15,0.14,0.2,0.2l0.19,0.22c0.25,0.31,0.53,0.66,0.8,1.01
		c0.54,0.71,1.1,1.44,1.68,2.16l0.15,0.18l0.1,0.01c0.51,0.04,1.01,0.06,1.5,0.04c0.03-0.01,0.05-0.02,0.06-0.04
		c0.02-0.04,0.01-0.08-0.03-0.11l-0.01-0.01c-0.22-0.13-0.44-0.24-0.65-0.35c0.44-0.08,0.87-0.16,1.32-0.27
		c0.46,0.16,0.98,0.24,1.48,0.21c0.26-0.01,0.52-0.05,0.77-0.11c0.15-0.04,0.29-0.08,0.42-0.13l0.63,0.66l0.8,0.87
		c0.27,0.29,0.52,0.58,0.77,0.87c0.25,0.29,0.49,0.6,0.62,0.86l0.07,0.15l0.09,0.06l1.46,1.04l1.51,1.02c0.5,0.34,1,0.68,1.47,1.06
		c0.47,0.37,0.94,0.78,1.34,1.2l0.01,0.01l0.05,0.03c0.56,0.34,1.04,0.89,1.44,1.43c0.04,0.06,0.09,0.12,0.13,0.18
		c-0.03-0.01-0.06-0.01-0.09-0.01c-0.32,0,0.08,0.83-0.59,0.83c-0.63,0,0.19,0.76,0.54,0.82c-0.09,0.15-0.18,0.3-0.28,0.46
		l-0.03,0.04l-0.01-0.01l-0.52-0.09c-0.7-0.13-1.4-0.23-2.07-0.46h-0.01c-0.02-0.01-0.04,0-0.06,0.01
		c-0.02,0.03-0.01,0.06,0.01,0.07c0.58,0.49,1.28,0.75,1.96,1l0.36,0.13c-0.16,0.23-0.35,0.44-0.54,0.55
		c-0.35-0.03-0.79-0.23-1.19-0.41c-0.21-0.1-0.41-0.22-0.61-0.32l-0.29-0.16l-0.13-0.08l-0.06-0.04l-0.13-0.07
		c-0.38-0.18-0.65-0.16-0.92-0.18h-0.74c-0.48-0.01-0.92-0.06-1.34-0.19l-0.09-0.03h-0.05c-0.79,0.05-1.63-0.05-2.45-0.17
		c-0.63-0.09-1.27-0.22-1.89-0.35c-0.49-0.33-0.99-0.54-1.51-0.71c-0.29-0.1-0.58-0.15-0.89-0.18l-0.86-0.09
		c-0.02,0.01-0.04,0-0.06-0.03l-0.13-0.42l-0.27-0.87c-0.19-0.57-0.37-1.15-0.58-1.72c-0.01-0.02-0.03-0.04-0.05-0.03
		c-0.03,0-0.05,0.03-0.05,0.05c0.05,0.61,0.13,1.2,0.18,1.81l0.11,0.9l0.07,0.46c0.05,0.27,0.25,0.51,0.52,0.61l0.48,0.15l0.43,0.15
		c0.29,0.1,0.58,0.16,0.88,0.2c0.16,0.01,0.32,0.03,0.48,0.03c-1.93,1.53-3.74,3.18-5.51,4.86c-1.83,1.71-3.54,3.53-5.25,5.36
		c-0.86,0.91-1.71,1.82-2.54,2.75c-0.42,0.47-0.84,0.93-1.26,1.38c-0.1,0.1-0.2,0.2-0.29,0.3c-0.38,0.17-0.81,0.2-1.2,0.08
		c-0.45-0.13-0.87-0.37-1.27-0.61c-0.81-0.51-1.57-1.13-2.36-1.69c-0.8-0.56-1.63-1.08-2.54-1.5c-0.22-0.1-0.46-0.2-0.69-0.28
		c-0.25-0.08-0.51-0.14-0.77-0.17c-0.52-0.06-1.05,0.02-1.53,0.16c-0.98,0.29-1.83,0.8-2.66,1.32c-0.82,0.53-1.62,1.07-2.45,1.56
		c-0.82,0.49-1.67,0.94-2.57,1.2c-0.77,0.24-1.57,0.32-2.36,0.23c0.53-0.6,1.08-1.18,1.65-1.76c0.03-0.03,0.03-0.07,0.01-0.1
		c-0.03-0.04-0.08-0.04-0.11-0.02c-0.73,0.53-1.43,1.12-2.1,1.72c-0.51-0.27-1.04-0.46-1.57-0.64c-0.61-0.2-1.24-0.37-1.86-0.53
		c-1.25-0.31-2.5-0.56-3.76-0.78c-2.52-0.44-5.06-0.8-7.6-1.13c-1.94-0.23-3.88-0.49-5.84-0.61c-0.03-0.31-0.08-0.62-0.15-0.93
		c-0.13-0.58-0.36-1.16-0.73-1.63c-0.03-0.03-0.07-0.04-0.1-0.01c-0.04,0.03-0.04,0.07-0.02,0.1c0.33,0.48,0.51,1.03,0.6,1.59
		c0.04,0.29,0.07,0.57,0.09,0.86c-0.5-0.03-0.99-0.06-1.5-0.07c-0.65,0-1.29,0.01-1.96,0.15c-0.08,0.01-0.17,0.04-0.25,0.07
		c-0.1,0.04-0.18,0.08-0.25,0.11c-0.15,0.08-0.29,0.16-0.43,0.24c-0.28,0.16-0.56,0.34-0.82,0.53c-0.26,0.18-0.51,0.37-0.77,0.48
		c-0.26,0.11-0.53,0.13-0.82,0.08c-0.57-0.11-1.14-0.4-1.69-0.68c-0.53-0.51-1.12-0.94-1.72-1.34c-0.62-0.41-1.25-0.78-1.89-1.13
		c-0.64-0.35-1.29-0.68-1.96-0.99c-0.62-0.29-1.24-0.58-1.88-0.82l-0.03-0.13c-0.07-0.27-0.11-0.48-0.09-0.72
		C30.81,55.74,31.04,55.28,31.4,54.97z M47.42,64.74c-0.15-0.5-0.17-1.09-0.18-1.67c-0.01-0.58,0-1.17-0.03-1.76
		c-0.01-0.16-0.01-0.34-0.03-0.51c1.93,0.06,3.87,0.22,5.79,0.44c2.53,0.3,5.06,0.72,7.56,1.25c1.25,0.27,2.49,0.56,3.72,0.89
		c0.61,0.16,1.22,0.35,1.82,0.56c0.46,0.16,0.92,0.33,1.34,0.54c-0.58,0.54-1.15,1.11-1.65,1.75c-0.3,0.37-0.59,0.76-0.82,1.22
		c-0.12,0.23-0.22,0.49-0.27,0.78c-0.05,0.29-0.06,0.52-0.06,0.77v0.12c-0.49,0.08-0.99,0.05-1.48,0.05l-1.58-0.04
		c-1.05-0.04-2.1-0.1-3.15-0.11c-1.05-0.02-2.1-0.04-3.14-0.17c-1.02-0.12-2.05-0.29-2.96-0.67c-0.62-0.93-1.51-1.59-2.41-2.14
		c-0.79-0.46-1.62-0.84-2.48-1.14c0.01-0.01,0.01-0.03,0.02-0.04l0.03-0.06L47.42,64.74z M1.27,64.95v-1.9h26.78
		c0.17,0.55,0.43,1.07,0.77,1.51c0.11,0.13,0.22,0.27,0.34,0.39H1.27z M31.58,65.84c-0.16-0.25-0.63-0.89-0.63-0.89
		c-0.3-0.43-0.6-0.86-0.86-1.28c-0.28-0.46-0.58-0.9-0.82-1.38c-0.23-0.47-0.37-1.03-0.42-1.56c-0.12-1.09,0.09-2.22,0.57-3.27
		c0.25-0.56,0.58-1.1,0.96-1.6c-0.02,0.11-0.04,0.22-0.05,0.32c-0.03,0.29,0.03,0.61,0.09,0.87l0.18,0.78
		c0.44,2.09,0.78,4.21,1.01,6.33c0.07,0.65,0.13,1.29,0.16,1.93C31.71,66.01,31.65,65.93,31.58,65.84z M20.82,105.68h-3.2
		l-0.43-0.75l2.03-0.37c0.01,0.01,0.03,0.03,0.04,0.04L20.82,105.68z M38.52,74.92c-1.63,1.42-3.46,2.71-5.3,3.93
		c-0.92,0.61-1.86,1.2-2.8,1.77c-0.48,0.28-0.95,0.55-1.43,0.8c-0.47,0.25-0.97,0.5-1.39,0.65l-0.4,0.14l-0.09,0.42
		c-0.06,0.27-0.27,0.68-0.52,1.05c-0.25,0.38-0.53,0.75-0.82,1.13l-0.9,1.15l-0.46,0.6c-0.15,0.22-0.32,0.5-0.43,0.71
		c-0.94,1.79-1.71,3.56-2.53,5.34l-2.37,5.35l-0.6,1.32c-0.1,0.22-0.2,0.43-0.3,0.62c-0.15,0.29-0.27,0.67-0.29,1
		c-0.06,0.69,0.11,1.29,0.34,1.81c0.06,0.13,0.11,0.25,0.18,0.37l-1.11,0.22l-0.72-2.94c0.62-1.58,1.27-3.17,1.98-4.72
		c0.37-0.8,0.75-1.61,1.18-2.35c0.49-0.87,0.82-1.73,1.13-2.59c0.62-1.72,1.13-3.46,1.62-5.2c0.48-1.67,0.93-3.36,1.38-5.02
		c0.94-0.56,1.68-1.24,2.41-1.94c0.79-0.77,1.51-1.57,2.22-2.4c0.7-0.84,1.36-1.7,1.97-2.6c0.61-0.91,1.2-1.83,1.6-2.9
		c0.11-0.26,0.16-0.55,0.23-0.83c0.03-0.28,0.08-0.56,0.09-0.84c0.04-0.55,0.04-1.1,0.01-1.64c-0.04-1.09-0.13-2.16-0.26-3.24
		c-0.26-2.14-0.62-4.26-1.09-6.37l-0.14-0.59c0.6,0.28,1.2,0.59,1.78,0.9c0.64,0.35,1.27,0.71,1.9,1.08
		c0.63,0.37,1.24,0.76,1.83,1.18c0.59,0.42,1.17,0.85,1.67,1.36l0.02,0.02l0.03,0.01c0.57,0.3,1.15,0.61,1.83,0.76
		c0.34,0.07,0.73,0.06,1.06-0.09c0.33-0.13,0.6-0.33,0.86-0.51c0.27-0.18,0.52-0.36,0.79-0.52c0.13-0.08,0.27-0.16,0.41-0.23
		c0.08-0.04,0.14-0.06,0.19-0.09c0.07-0.03,0.13-0.04,0.21-0.06c0.58-0.13,1.23-0.14,1.86-0.16c0.5-0.01,1,0.01,1.5,0.01
		c0,0.18,0.01,0.35,0.01,0.52c-0.01,0.58-0.05,1.16-0.07,1.75c-0.02,0.55-0.03,1.1,0.08,1.69c-0.02,0.01-0.03,0.01-0.04,0.03
		c-0.01,0.02,0,0.03,0.01,0.04c-0.09,0.16-0.22,0.36-0.35,0.54c-0.16,0.22-0.34,0.44-0.51,0.65l-1.05,1.29l-2.15,2.56
		c-0.72,0.85-1.44,1.7-2.15,2.57c-0.35,0.44-0.7,0.87-1.05,1.34c-0.18,0.25-0.32,0.41-0.48,0.6C38.9,74.56,38.73,74.75,38.52,74.92z
		 M51.97,105.05l1.57,1.08h-3.21l-0.04-0.08l1.36-1.19C51.65,104.86,51.87,104.98,51.97,105.05z M48.46,72.54
		c-0.24,0.3-0.52,0.57-0.8,0.84L46.8,74.2c-0.15,0.15-0.29,0.28-0.44,0.48c-0.15,0.23-0.22,0.37-0.32,0.56
		c-0.74,1.4-1.46,2.81-2.18,4.22c-0.72,1.4-1.43,2.84-2.17,4.18c-0.04,0.09-0.1,0.16-0.14,0.23l-0.16,0.28
		c-0.15,0.25-0.23,0.49-0.29,0.74c-0.12,0.49-0.14,0.94-0.14,1.37c0.01,0.87,0.13,1.68,0.23,2.47l0.18,1.15
		c0.09,0.56,0.25,0.92,0.4,1.32c0.3,0.77,0.64,1.5,0.99,2.22c0.7,1.44,1.44,2.85,2.21,4.24c0.77,1.4,1.53,2.78,2.4,4.14
		c0.1,0.16,0.23,0.35,0.37,0.53c0.15,0.18,0.29,0.34,0.45,0.49c0.31,0.3,0.64,0.57,0.98,0.8c0.54,0.37,1.08,0.69,1.65,0.98
		l-0.93,0.94c-0.2,0.2-0.29,0.29-0.55,0.1l-1.25-0.74l-1.69-1.03c-0.85-1.52-1.69-3.07-2.39-4.65c-0.69-1.64-1.41-3.26-2.14-4.87
		c-0.72-1.62-1.49-3.21-2.27-4.79c-0.39-0.79-0.78-1.58-1.15-2.38c-0.19-0.4-0.38-0.79-0.56-1.18c-0.15-0.32-0.28-0.64-0.39-0.94
		c0.19-0.33,0.32-0.65,0.43-0.98c0.15-0.42,0.25-0.83,0.35-1.25c0.2-0.83,0.34-1.66,0.46-2.49c0.21-1.5,0.34-3,0.39-4.52
		c0.04-0.04,0.09-0.08,0.13-0.11c0.21-0.19,0.41-0.42,0.61-0.63c0.2-0.24,0.41-0.52,0.54-0.72c0.3-0.44,0.63-0.89,0.96-1.33
		c0.67-0.89,1.36-1.76,2.05-2.64l1.08-1.39c1.31,1.12,2.8,2.11,4.37,2.92C48.77,72.14,48.61,72.35,48.46,72.54z M60.35,72.32
		c-0.94-0.01-1.88,0.01-2.81,0.08c-0.93,0.06-1.9,0.14-2.78,0.12c-0.45,0.01-0.89-0.06-1.35-0.1c-0.44-0.08-0.9-0.13-1.34-0.24
		c-0.9-0.19-1.77-0.48-2.64-0.8c-1.69-0.63-3.28-1.49-4.83-2.5l0.87-1.12c0.34-0.44,0.67-0.89,1-1.35c0.16-0.23,0.32-0.46,0.48-0.7
		c0.13-0.2,0.26-0.39,0.38-0.65c0.82,0.36,1.62,0.79,2.36,1.3c0.87,0.6,1.68,1.34,2.18,2.22l0.04,0.07L52,68.69
		c1.01,0.51,2.08,0.74,3.14,0.94c1.06,0.19,2.14,0.34,3.21,0.43c1.08,0.1,2.15,0.06,3.23-0.05c0.54-0.06,1.07-0.13,1.6-0.25
		c0.27-0.06,0.53-0.12,0.79-0.21c0.22-0.07,0.44-0.15,0.64-0.27c0.01,0.89,0.12,1.74,0.25,2.59c0.04,0.23,0.08,0.47,0.11,0.71
		C63.42,72.42,61.89,72.35,60.35,72.32z M64.62,77.07c-0.44,1.79-0.85,3.58-1.22,5.38c-0.14,0.3-0.25,0.58-0.35,0.88v-9.82
		c0.67-0.11,1.34-0.23,2.01-0.4c0.08,0.5,0.15,0.99,0.16,1.43c0,0.09,0,0.18-0.01,0.23l-0.08,0.27l-0.18,0.68L64.62,77.07z
		 M61.15,104.12l-0.09-0.16l1.86-0.82l1.43,0.98H61.15z M64.95,126.73h-1.9v-21.6h1.9V126.73z M64.95,103.3l-1.58-1.09l-0.02-0.01
		c-0.42-0.4-0.84-0.9-1.05-1.38c-0.1-0.24-0.13-0.47-0.09-0.61c0.01-0.04,0.02-0.07,0.04-0.1l0.1-0.23c0.08-0.18,0.13-0.33,0.2-0.49
		c0.48-1.25,0.89-2.48,1.31-3.73c0.37-1.14,0.73-2.27,1.1-3.42V103.3z M95.3,102.65l1.57,1.07h-3.2l-0.13-0.24l1.44-1.1
		C95.07,102.47,95.18,102.56,95.3,102.65z M83.01,75.53c0.2,0.98,0.41,1.96,0.63,2.93c0.23,0.97,0.44,1.95,0.69,2.91
		c0.25,0.98,0.48,1.93,0.79,2.93l0.03,0.08l0.09,0.13c0.2,0.28,0.39,0.56,0.54,0.88c0.15,0.31,0.28,0.63,0.38,0.97
		c0.1,0.34,0.18,0.68,0.24,1.03c0.05,0.34,0.08,0.73,0.08,1.02v0.15l0.05,0.14c0.42,1.25,0.92,2.45,1.43,3.65
		c0.53,1.2,1.1,2.38,1.73,3.54c0.64,1.16,1.39,2.29,2.23,3.31c0.72,0.88,1.49,1.69,2.35,2.45l-1.31,1.2l-0.35-0.4l-0.24-0.27
		l-0.25,0.22l-0.53,0.44c-0.25-0.44-0.49-0.87-0.72-1.31c-0.29-0.56-0.54-1.13-0.81-1.7c-0.27-0.57-0.53-1.15-0.78-1.72
		c-0.26-0.57-0.51-1.15-0.75-1.73c-0.98-2.33-1.84-4.7-2.81-7.03l-0.06-0.13l-0.18-0.13c-0.29-0.21-0.58-0.43-0.82-0.69
		c-0.25-0.25-0.47-0.53-0.67-0.82c-0.2-0.29-0.34-0.61-0.47-0.94c-0.13-0.31-0.22-0.7-0.25-0.96l-0.02-0.18l-0.06-0.11
		c-0.5-0.9-1.01-1.8-1.53-2.69c-0.51-0.9-1.04-1.78-1.57-2.67c-0.53-0.89-1.07-1.76-1.62-2.64c-0.46-0.74-1.3-2.09-1.91-3.02
		c0.74,0.11,1.5,0.15,2.28,0.04c0.49-0.05,0.99-0.18,1.48-0.39c0.44-0.2,0.85-0.4,1.27-0.61c0.3-0.17,0.6-0.35,0.9-0.54
		C82.66,73.77,82.83,74.65,83.01,75.53z M80.94,72.23c-0.38,0.22-0.78,0.44-1.17,0.63c-0.35,0.15-0.72,0.3-1.13,0.38
		c-0.81,0.18-1.69,0.22-2.59,0.22c-0.68-0.01-1.39-0.05-2.09-0.11c0.17-0.12,0.37-0.25,0.56-0.37l1.22-0.77
		c0.82-0.53,1.66-1.06,2.39-1.81c0.18-0.19,0.35-0.41,0.49-0.67c0.11-0.26,0.21-0.49,0.27-0.74c0.13-0.5,0.19-1,0.2-1.5
		c0.01-1-0.13-1.98-0.42-2.91c-0.01-0.04-0.04-0.06-0.08-0.06c-0.04,0.01-0.07,0.05-0.06,0.09v0.01c0.15,0.94,0.18,1.91,0.07,2.83
		c-0.06,0.46-0.16,0.92-0.33,1.34C78.2,69,78.09,69.21,78,69.39c-0.1,0.16-0.24,0.32-0.41,0.46c-0.66,0.58-1.51,1.05-2.34,1.49
		l-1.29,0.67c-0.22,0.11-0.43,0.24-0.67,0.39c-0.11,0.08-0.23,0.15-0.38,0.3c-0.03,0.03-0.09,0.1-0.13,0.16l-0.05,0.09l-0.1,0.15
		c-1.02,1.64-2.02,3.3-3,4.96c-0.98,1.67-1.95,3.31-2.88,5.07l-0.06,0.11l-0.02,0.16c-0.03,0.3-0.13,0.66-0.26,1
		c-0.12,0.35-0.28,0.7-0.44,1.05c-0.17,0.35-0.35,0.7-0.55,1.05c-0.19,0.34-0.39,0.69-0.6,1.01l-0.07,0.11l-0.03,0.1
		c-0.71,2.52-1.43,5.03-2.17,7.53c-0.36,1.25-0.72,2.52-1.12,3.73c-0.05,0.15-0.1,0.31-0.15,0.43l-0.09,0.22
		c-0.05,0.11-0.09,0.24-0.11,0.36c-0.08,0.51,0.08,0.94,0.25,1.29c0.25,0.46,0.56,0.83,0.89,1.16l-1.82,0.92l-0.47-0.48
		c-0.06-0.93-0.14-1.87-0.2-2.81c0.29-1.12,0.58-2.23,0.89-3.34c0.3-1.13,0.63-2.25,0.95-3.38c0.33-1.12,0.66-2.24,1.01-3.36
		c0.34-1.13,0.69-2.21,0.98-3.41l0.01-0.04l-0.01-0.1c-0.03-0.57,0.09-1.19,0.28-1.79c0.09-0.3,0.21-0.6,0.33-0.89
		c0.13-0.29,0.27-0.59,0.4-0.85l0.03-0.06l0.03-0.09c0.46-1.79,0.88-3.59,1.29-5.4l0.3-1.35l0.16-0.67
		c0.03-0.13,0.05-0.16,0.09-0.41c0.03-0.18,0.02-0.32,0.02-0.46c-0.09-1.05-0.32-1.91-0.48-2.83c-0.16-0.9-0.35-1.79-0.4-2.66
		c-0.01-0.21-0.01-0.44,0.01-0.61c0.01-0.16,0.07-0.35,0.15-0.54c0.15-0.39,0.39-0.77,0.63-1.14c0.46-0.68,0.99-1.34,1.54-1.98
		c0.97,0.18,1.98,0.11,2.9-0.17c0.96-0.29,1.86-0.74,2.7-1.24c0.84-0.51,1.64-1.06,2.45-1.57c0.81-0.51,1.63-1.01,2.52-1.27
		c0.44-0.13,0.89-0.2,1.34-0.15c0.44,0.04,0.87,0.22,1.31,0.4c0.87,0.36,1.7,0.85,2.51,1.38c0.81,0.53,1.6,1.08,2.46,1.57
		c0.42,0.24,0.88,0.45,1.37,0.55c0.36,0.08,0.74,0.05,1.08-0.09c-0.06,0.07-0.13,0.13-0.2,0.2c-0.2,0.2-0.68,0.63-0.88,0.84
		c0,0-1.64,2.12-2.19,2.82c-0.73,0.96-1.49,1.91-2.18,2.92C82.48,71.36,81.69,71.81,80.94,72.23z"/>
	<path class="st8" d="M64.95,1.27v46.5c-0.63-0.03-1.27-0.06-1.9-0.09V1.27H64.95z"/>
	<path class="st8" d="M126.73,63.05v1.9H88.69c0.04-0.03,0.08-0.06,0.11-0.08c0.25-0.2,0.53-0.37,0.77-0.57
		c0.51-0.39,1.03-0.82,1.52-1.22c0.06-0.04,0.32-0.03,0.44-0.03H126.73z"/>
	<path class="st8" d="M29.15,64.95H1.27v-1.9h26.78c0.17,0.55,0.43,1.07,0.77,1.51C28.93,64.7,29.04,64.83,29.15,64.95z"/>
	<rect x="63.05" y="105.13" class="st8" width="1.9" height="21.6"/>
	<path class="st8" d="M64.95,92.25v11.05l-1.58-1.09l-0.02-0.01c-0.42-0.4-0.84-0.9-1.05-1.38c-0.1-0.24-0.13-0.47-0.09-0.61
		c0.01-0.04,0.02-0.07,0.04-0.1l0.1-0.23c0.08-0.18,0.13-0.33,0.2-0.49c0.48-1.25,0.89-2.48,1.31-3.73
		C64.23,94.52,64.59,93.39,64.95,92.25z"/>
	<path class="st8" d="M65.22,74.54c0,0.09,0,0.18-0.01,0.23l-0.08,0.27l-0.18,0.68l-0.34,1.35c-0.44,1.79-0.85,3.58-1.22,5.38
		c-0.14,0.3-0.25,0.58-0.35,0.88v-9.82c0.67-0.11,1.34-0.23,2.01-0.4C65.13,73.61,65.2,74.1,65.22,74.54z"/>
	<path class="st9" d="M95.65,5.65c0.35,0,0.63-0.28,0.63-0.63V1.26c0-0.35-0.28-0.63-0.63-0.63c-0.35,0-0.63,0.28-0.63,0.63v3.76
		C95.03,5.37,95.31,5.65,95.65,5.65z"/>
	<path class="st9" d="M95.65,106.62c-0.35,0-0.63,0.28-0.63,0.63v7.86c0,0.35,0.28,0.63,0.63,0.63c0.35,0,0.63-0.28,0.63-0.63v-7.86
		C96.28,106.9,96,106.62,95.65,106.62z"/>
	<path class="st9" d="M95.65,21.38c0.35,0,0.63-0.28,0.63-0.63v-7.86c0-0.35-0.28-0.63-0.63-0.63c-0.35,0-0.63,0.28-0.63,0.63v7.86
		C95.03,21.1,95.31,21.38,95.65,21.38z"/>
	<path class="st9" d="M95.03,75.8v7.86c0,0.35,0.28,0.63,0.63,0.63c0.35,0,0.63-0.28,0.63-0.63V75.8c0-0.35-0.28-0.63-0.63-0.63
		C95.31,75.17,95.03,75.45,95.03,75.8z"/>
	<path class="st9" d="M95.65,122.35c-0.35,0-0.63,0.28-0.63,0.63v3.76c0,0.35,0.28,0.63,0.63,0.63c0.35,0,0.63-0.28,0.63-0.63v-3.76
		C96.28,122.63,96,122.35,95.65,122.35z"/>
	<path class="st9" d="M32.52,5.65c0.35,0,0.63-0.28,0.63-0.63V1.26c0-0.35-0.28-0.63-0.63-0.63c-0.35,0-0.63,0.28-0.63,0.63v3.76
		C31.89,5.37,32.18,5.65,32.52,5.65z"/>
	<path class="st9" d="M32.52,21.38c0.35,0,0.63-0.28,0.63-0.63v-7.86c0-0.35-0.28-0.63-0.63-0.63c-0.35,0-0.63,0.28-0.63,0.63v7.86
		C31.89,21.1,32.18,21.38,32.52,21.38z"/>
	<path class="st9" d="M32.52,106.62c-0.35,0-0.63,0.28-0.63,0.63v7.86c0,0.35,0.28,0.63,0.63,0.63c0.35,0,0.63-0.28,0.63-0.63v-7.86
		C33.15,106.9,32.87,106.62,32.52,106.62z"/>
	<path class="st9" d="M32.52,43.72c-0.35,0-0.63,0.28-0.63,0.63v6.6c0,0.35,0.28,0.63,0.63,0.63c0.35,0,0.63-0.28,0.63-0.63v-6.6
		C33.15,44,32.87,43.72,32.52,43.72z"/>
	<path class="st9" d="M32.52,122.35c-0.35,0-0.63,0.28-0.63,0.63v3.76c0,0.35,0.28,0.63,0.63,0.63c0.35,0,0.63-0.28,0.63-0.63v-3.76
		C33.15,122.63,32.87,122.35,32.52,122.35z"/>
	<path class="st9" d="M126.74,94.94h-3.76c-0.35,0-0.63,0.28-0.63,0.63c0,0.35,0.28,0.63,0.63,0.63h3.76c0.35,0,0.63-0.28,0.63-0.63
		C127.37,95.22,127.09,94.94,126.74,94.94z"/>
	<path class="st9" d="M36.48,94.94h-3.33v-3.42c0-0.35-0.28-0.63-0.63-0.63c-0.35,0-0.63,0.28-0.63,0.63v3.42h-3.28
		c-0.35,0-0.63,0.28-0.63,0.63c0,0.35,0.28,0.63,0.63,0.63h3.28v3.19c0,0.35,0.28,0.63,0.63,0.63c0.35,0,0.63-0.28,0.63-0.63v-3.19
		h3.33c0.35,0,0.63-0.28,0.63-0.63C37.11,95.22,36.83,94.94,36.48,94.94z"/>
	<path class="st9" d="M115.11,94.94h-7.86c-0.35,0-0.63,0.28-0.63,0.63c0,0.35,0.28,0.63,0.63,0.63h7.86c0.35,0,0.63-0.28,0.63-0.63
		C115.74,95.22,115.46,94.94,115.11,94.94z"/>
	<path class="st9" d="M83.66,94.94H75.8c-0.35,0-0.63,0.28-0.63,0.63c0,0.35,0.28,0.63,0.63,0.63h7.86c0.35,0,0.63-0.28,0.63-0.63
		C84.29,95.22,84.01,94.94,83.66,94.94z"/>
	<path class="st9" d="M122.98,33.06h3.76c0.35,0,0.63-0.28,0.63-0.63c0-0.35-0.28-0.63-0.63-0.63h-3.76c-0.35,0-0.63,0.28-0.63,0.63
		C122.35,32.78,122.63,33.06,122.98,33.06z"/>
	<path class="st9" d="M107.25,33.06h7.86c0.35,0,0.63-0.28,0.63-0.63c0-0.35-0.28-0.63-0.63-0.63h-7.86c-0.35,0-0.63,0.28-0.63,0.63
		C106.62,32.78,106.9,33.06,107.25,33.06z"/>
	<path class="st9" d="M75.8,33.06h7.86c0.35,0,0.63-0.28,0.63-0.63c0-0.35-0.28-0.63-0.63-0.63H75.8c-0.35,0-0.63,0.28-0.63,0.63
		C75.17,32.78,75.45,33.06,75.8,33.06z"/>
	<path class="st9" d="M28.62,33.06h3.28v3.42c0,0.35,0.28,0.63,0.63,0.63c0.35,0,0.63-0.28,0.63-0.63v-3.42h3.33
		c0.35,0,0.63-0.28,0.63-0.63c0-0.35-0.28-0.63-0.63-0.63h-3.33v-3.19c0-0.35-0.28-0.63-0.63-0.63c-0.35,0-0.63,0.28-0.63,0.63v3.19
		h-3.28c-0.35,0-0.63,0.28-0.63,0.63C27.99,32.78,28.27,33.06,28.62,33.06z"/>
	<path class="st9" d="M12.89,33.06h7.86c0.35,0,0.63-0.28,0.63-0.63c0-0.35-0.28-0.63-0.63-0.63h-7.86c-0.35,0-0.63,0.28-0.63,0.63
		C12.26,32.78,12.54,33.06,12.89,33.06z"/>
	<path class="st9" d="M44.34,33.06h7.86c0.35,0,0.63-0.28,0.63-0.63c0-0.35-0.28-0.63-0.63-0.63h-7.86c-0.35,0-0.63,0.28-0.63,0.63
		C43.72,32.78,44,33.06,44.34,33.06z"/>
	<path class="st9" d="M1.26,33.06h3.76c0.35,0,0.63-0.28,0.63-0.63c0-0.35-0.28-0.63-0.63-0.63H1.26c-0.35,0-0.63,0.28-0.63,0.63
		C0.64,32.78,0.92,33.06,1.26,33.06z"/>
	<path class="st9" d="M5.03,94.94H1.26c-0.35,0-0.63,0.28-0.63,0.63c0,0.35,0.28,0.63,0.63,0.63h3.76c0.35,0,0.63-0.28,0.63-0.63
		C5.65,95.22,5.37,94.94,5.03,94.94z"/>
	<path class="st9" d="M15.63,95.57c0-0.35-0.28-0.63-0.63-0.63H9.97c-0.35,0-0.63,0.28-0.63,0.63c0,0.35,0.28,0.63,0.63,0.63H15
		C15.35,96.19,15.63,95.91,15.63,95.57z"/>
</g>
</svg>
