<?xml version="1.0" encoding="utf-8"?>
<!-- Generator: Adobe Illustrator 18.1.0, SVG Export Plug-In . SVG Version: 6.00 Build 0)  -->
<svg version="1.1" baseProfile="tiny" id="Layer_1" xmlns="http://www.w3.org/2000/svg" xmlns:xlink="http://www.w3.org/1999/xlink"
	 x="0px" y="0px" viewBox="0 0 128 128" xml:space="preserve">
<g>
	<path fill="#EFC24C" d="M59.4,72.4h-35l3.1-12.2c0.1-0.4,0.4-0.6,0.8-0.6h27.4c0.4,0,0.7,0.2,0.8,0.6L59.4,72.4z"/>
	<path fill="#EFC24C" d="M81.5,48.2h-35l3-12.2c0.1-0.3,0.4-0.6,0.8-0.6h27.4c0.4,0,0.7,0.2,0.8,0.6L81.5,48.2z"/>
	<path fill="#EFC24C" d="M103.6,72.4h-35l3.1-12.2c0.1-0.4,0.4-0.6,0.8-0.6h27.4c0.4,0,0.7,0.2,0.8,0.6L103.6,72.4z"/>
	<path fill="#EFC24C" d="M125.5,96.4H90.6l3-12c0.1-0.4,0.4-0.6,0.8-0.6h27.4c0.4,0,0.7,0.2,0.8,0.6L125.5,96.4z"/>
	<path fill="#EFC24C" d="M37.4,96.4H2.5l3-12c0.1-0.4,0.4-0.6,0.8-0.6h27.4c0.4,0,0.7,0.2,0.8,0.6L37.4,96.4z"/>
	<path fill="#EFC24C" d="M81.6,96.4H46.7l3-12c0.1-0.4,0.4-0.6,0.8-0.6h27.4c0.4,0,0.7,0.2,0.8,0.6L81.6,96.4z"/>
	<path fill="#2D2D2D" d="M83.9,49.8l-0.4-1.5l-3.2-12.6c-0.3-1.2-1.4-2.1-2.7-2.1H50.3c-1.3,0-2.4,0.9-2.7,2.1l-3.2,12.6l-0.4,1.5
		c-0.2,0.8,0,1.7,0.5,2.4c0.5,0.7,1.3,1.1,2.2,1.1h34.5c0.8,0,1.6-0.4,2.2-1.1C83.9,51.4,84.1,50.6,83.9,49.8z M81.8,50.9
		c-0.2,0.2-0.4,0.3-0.6,0.3H46.8c-0.2,0-0.5-0.1-0.6-0.3C46,50.7,46,50.5,46,50.2l0.5-2l3-12.2c0.1-0.3,0.4-0.6,0.8-0.6h27.4
		c0.4,0,0.7,0.2,0.8,0.6l3,12.2l0.5,2C82,50.5,82,50.7,81.8,50.9z"/>
	<path fill="#2D2D2D" d="M106,73.9l-0.4-1.5l-3.2-12.7c-0.3-1.2-1.4-2.1-2.7-2.1H72.4c-1.3,0-2.4,0.9-2.7,2.1l-3.2,12.7l-0.4,1.5
		c-0.2,0.8,0,1.7,0.5,2.4c0.5,0.7,1.3,1.1,2.2,1.1h34.5c0.9,0,1.7-0.4,2.2-1.1C106,75.6,106.2,74.7,106,73.9z M103.9,75.1
		c-0.1,0.2-0.4,0.3-0.6,0.3H68.9c-0.2,0-0.5-0.1-0.6-0.3c-0.1-0.2-0.2-0.4-0.1-0.7l0.5-2l3.1-12.2c0.1-0.4,0.4-0.6,0.8-0.6h27.4
		c0.4,0,0.7,0.2,0.8,0.6l3.1,12.2l0.5,2C104.1,74.6,104.1,74.9,103.9,75.1z"/>
	<path fill="#2D2D2D" d="M61.8,73.9l-0.4-1.5l-3.2-12.7c-0.3-1.2-1.4-2.1-2.7-2.1H28.2c-1.3,0-2.4,0.9-2.7,2.1l-3.2,12.7L22,73.9
		c-0.2,0.8,0,1.7,0.5,2.4c0.5,0.7,1.3,1.1,2.2,1.1h34.5c0.9,0,1.6-0.4,2.2-1.1C61.8,75.6,62,74.7,61.8,73.9z M59.8,75.1
		c-0.1,0.2-0.4,0.3-0.6,0.3H24.7c-0.2,0-0.5-0.1-0.6-0.3c-0.2-0.2-0.2-0.4-0.1-0.7l0.5-2l3.1-12.2c0.1-0.4,0.4-0.6,0.8-0.6h27.4
		c0.4,0,0.7,0.2,0.8,0.6l3,12.2l0.5,2C60,74.6,59.9,74.9,59.8,75.1z"/>
	<path fill="#2D2D2D" d="M84,98.1l-0.4-1.7l-3.1-12.4c-0.3-1.2-1.4-2.1-2.7-2.1H50.5c-1.3,0-2.4,0.9-2.7,2.1l-3.1,12.4l-0.4,1.7
		c-0.2,0.8,0,1.7,0.5,2.4c0.5,0.7,1.3,1.1,2.2,1.1h34.5c0.9,0,1.6-0.4,2.2-1.1C84.1,99.8,84.3,98.9,84,98.1z M82,99.2
		c-0.1,0.2-0.4,0.3-0.6,0.3H46.9c-0.2,0-0.5-0.1-0.6-0.3c-0.2-0.2-0.2-0.4-0.1-0.7l0.6-2.2l3-12c0.1-0.4,0.4-0.6,0.8-0.6h27.4
		c0.4,0,0.7,0.2,0.8,0.6l3,12l0.6,2.2C82.2,98.8,82.1,99.1,82,99.2z"/>
	<path fill="#2D2D2D" d="M39.9,98.1l-0.4-1.7l-3.1-12.4c-0.3-1.2-1.4-2.1-2.7-2.1H6.3c-1.3,0-2.4,0.9-2.7,2.1L0.5,96.4l-0.4,1.7
		c-0.2,0.8,0,1.7,0.5,2.4c0.5,0.7,1.3,1.1,2.2,1.1h34.5c0.9,0,1.7-0.4,2.2-1.1C39.9,99.8,40.1,98.9,39.9,98.1z M37.8,99.2
		c-0.1,0.2-0.4,0.3-0.6,0.3H2.8c-0.2,0-0.5-0.1-0.6-0.3C2,99.1,1.9,98.8,2,98.6l0.6-2.2l3-12c0.1-0.4,0.4-0.6,0.8-0.6h27.4
		c0.4,0,0.7,0.2,0.8,0.6l3,12l0.6,2.2C38,98.8,38,99.1,37.8,99.2z"/>
	<path fill="#2D2D2D" d="M127.9,98.1l-0.4-1.7l-3.1-12.4c-0.3-1.2-1.4-2.1-2.7-2.1H94.3c-1.3,0-2.4,0.9-2.7,2.1l-3.1,12.4l-0.4,1.7
		c-0.2,0.8,0,1.7,0.5,2.4c0.5,0.7,1.3,1.1,2.2,1.1h34.5c0.9,0,1.6-0.4,2.2-1.1C127.9,99.8,128.1,98.9,127.9,98.1z M125.9,99.2
		c-0.1,0.2-0.4,0.3-0.6,0.3H90.8c-0.2,0-0.5-0.1-0.6-0.3C90,99.1,90,98.8,90,98.6l0.6-2.2l3-12c0.1-0.4,0.4-0.6,0.8-0.6h27.4
		c0.4,0,0.7,0.2,0.8,0.6l3,12l0.6,2.2C126.1,98.8,126,99.1,125.9,99.2z"/>
	<path fill="#E08C34" d="M37.8,99.2c-0.1,0.2-0.4,0.3-0.6,0.3H2.8c-0.2,0-0.5-0.1-0.6-0.3C2,99.1,1.9,98.8,2,98.6l0.6-2.2h34.9
		l0.6,2.2C38,98.8,38,99.1,37.8,99.2z"/>
	<path fill="#E08C34" d="M82,99.2c-0.1,0.2-0.4,0.3-0.6,0.3H46.9c-0.2,0-0.5-0.1-0.6-0.3c-0.2-0.2-0.2-0.4-0.1-0.7l0.6-2.2h34.9
		l0.6,2.2C82.2,98.8,82.1,99.1,82,99.2z"/>
	<path fill="#E08C34" d="M125.9,99.2c-0.1,0.2-0.4,0.3-0.6,0.3H90.8c-0.2,0-0.5-0.1-0.6-0.3C90,99.1,90,98.8,90,98.6l0.6-2.2h34.9
		l0.6,2.2C126.1,98.8,126,99.1,125.9,99.2z"/>
	<path fill="#E08C34" d="M59.8,75.1c-0.1,0.2-0.4,0.3-0.6,0.3H24.7c-0.2,0-0.5-0.1-0.6-0.3c-0.2-0.2-0.2-0.4-0.1-0.7l0.5-2h35l0.5,2
		C60,74.6,59.9,74.9,59.8,75.1z"/>
	<path fill="#E08C34" d="M103.9,75.1c-0.1,0.2-0.4,0.3-0.6,0.3H68.9c-0.2,0-0.5-0.1-0.6-0.3c-0.1-0.2-0.2-0.4-0.1-0.7l0.5-2h35
		l0.5,2C104.1,74.6,104.1,74.9,103.9,75.1z"/>
	<path fill="#E08C34" d="M81.8,50.9c-0.2,0.2-0.4,0.3-0.6,0.3H46.8c-0.2,0-0.5-0.1-0.6-0.3C46,50.7,46,50.5,46,50.2l0.5-2h35l0.5,2
		C82,50.5,82,50.7,81.8,50.9z"/>
</g>
</svg>
