<?xml version="1.0" encoding="utf-8"?>
<!-- Generator: Adobe Illustrator 18.1.0, SVG Export Plug-In . SVG Version: 6.00 Build 0)  -->
<svg version="1.1" baseProfile="tiny" id="Layer_1" xmlns="http://www.w3.org/2000/svg" xmlns:xlink="http://www.w3.org/1999/xlink"
	 x="0px" y="0px" viewBox="0 0 128 128" xml:space="preserve">
<g>
	<path fill="#68676C" d="M33.2,121c-0.1,0-0.2,0-0.3,0c0.1,0,0.3,0.1,0.4,0.1c0.4,0,0.9,0.1,1.2,0.2C34.1,121.1,33.7,121.1,33.2,121
		z M36.4,78.4c-0.6,0.8-1.1,1.6-1.4,2.2c-0.1,0.1-0.1,0.2-0.1,0.3c0.4-0.6,0.8-1.3,1.4-2.1c0.4-0.6,0.8-1.2,1.3-1.9
		C37,77.4,36.7,77.9,36.4,78.4z M83.3,80c-0.1,0.2-0.1,0.3-0.1,0.6c0.3-0.7,0.5-1.4,0.8-2c1.1-2.9,1.6-4.5,1.8-5.1
		C85.3,74.6,84.6,76.6,83.3,80z M126,34.7c-0.3-3.3-3.8-5.9-4.9-6.7c-0.6-0.4-1-1.1-1.1-1.8l-0.4-3c-0.1-0.6,0.1-1.2,0.4-1.7
		l0.9-1.5c0.1-0.2,0.1-0.4,0-0.6c-0.3-0.5-0.6-0.9-1-1.2c-0.5-0.4-0.8-0.9-0.9-1.4c-1.2-5-6.4-7.2-7.9-7.8c-0.4-0.1-0.9-0.4-1.2-0.8
		c-1-1.1-6-6.3-10.8-6.3c-4.8,0-9.4,5.9-13.1,10.6c-0.4,0.5-0.8,1-1.1,1.4l-0.2,0.2l-0.3,0.1c-5.8,2.2-7.3,5.8-8.3,8.4
		c-0.3,0.7-0.5,1.4-0.9,1.9c-1.6,2.7-16.6,11.3-23.4,11.3c-6.6,0-16.4-1.6-16.8-1.6l-0.1,0c-0.1,0-10.5-2.7-26,10
		C-5.4,56,6.3,79,10.6,87.6c0.8,1.6,0.9,3.6,0.3,5.4c-4.3,11.6-1,21,0.6,24.4c0.6,1.3,0.7,2.9,0.3,4.3l0,0.1
		c5.9,1.2,11.4-0.3,15.4-3.1c4-2.8,2.1-24.6,2.3-27.3c2.8-5.4,0.6-10.8,0-12.4c7-3.8,11.3-11.1,13.3-15c0.1-0.9,0.1-1.7,0-2.6
		c-0.1-0.5,0.3-1,0.9-1.1c0.5-0.1,1,0.3,1.1,0.8c0,0.5,0.1,1,0.1,1.4c0,0,0,0.1,0,0.1c0.2,1.5,0.4,3.9,0.3,6.1c0,3.2,2.2,6,5.3,6.7
		c13.9,3.4,23.9,0.2,28.2-1.7c1.4-0.6,2.1-2.1,1.8-3.6c-0.8-3.3-1.9-9.5-0.9-13.5c0-0.1,0-0.1,0-0.2c0.1-0.6,0.2-1.3,0.4-2
		c0.1-0.5,0.7-0.8,1.2-0.7c0.5,0.1,0.8,0.7,0.7,1.2c-0.2,0.6-0.3,1.3-0.4,1.9c-0.2,3,0.1,10.4,7,14.4c-1,3-3.3,7.5-2.3,13.6
		c0.1,3.9,2.4,14.8,3.8,21.5c1.5,4.4,3,8.4,3.9,10.8c0.6,1.6,1,2.9,1.3,3.5c6.4,0.6,8.8-8.9,9.9-15.3c2.9-11.8,1.1-31.3-0.6-37.6
		c2.8-4.5,4.6-10.4,5.8-15.5c0.3-2.2,0.3-3.9-1.5-4.9c-9.8-5.5-11.8-15.9-12-17.2v0c0,0,0,0,0,0c-0.1-0.5,0.2-0.9,0.7-1.1
		c0.5-0.2,1.1,0.1,1.2,0.7c0,0.1,0.1,0.3,0.1,0.4c1.1,1.7,7,10.2,15.4,7.9c1.3,1.6,8,2.9,10.1,1.2C125.5,37.8,126.1,36.2,126,34.7z
		 M104.5,17.9l-1,0.6c-1.3,0.8-2.1,2.2-2,3.8l0.1,1.4c0,0.2,0,0.3,0,0.5c-0.1,0.4-0.5,0.7-0.9,0.7c-0.1,0-0.2,0-0.3,0
		c-1.7-0.5-4.9-2.4-5.9-5.2c-0.5-1.3-0.6-3.3,1-5.6c1.2-1.8,3.4-2.9,5.4-2.7c1.8,0.2,3.4,1.4,4.3,3.4c0.2,0.4,0.1,0.9-0.2,1.2
		c0.1-0.1,0.2-0.2,0.3-0.3C105.5,16.4,105.3,17.5,104.5,17.9z M113.6,22.8c-1.1,0-2-0.9-2-2c0-1.1,0.9-2,2-2c1.1,0,2,0.9,2,2
		C115.6,21.9,114.7,22.8,113.6,22.8z"/>
	<path fill="#2D2D2D" d="M100.8,11.4c-2-0.2-4.2,0.9-5.4,2.7c-1.6,2.3-1.4,4.4-1,5.6c1,2.8,4.1,4.7,5.9,5.2c0.1,0,0.2,0,0.3,0
		c0.4,0,0.8-0.3,0.9-0.7c0.2-0.5-0.1-1.1-0.7-1.2c-1.4-0.4-3.8-1.9-4.5-3.9c-0.4-1.2-0.2-2.5,0.7-3.8c0.8-1.2,2.3-2,3.6-1.9
		c1.1,0.1,2,0.9,2.6,2.2c0.2,0.5,0.8,0.7,1.3,0.5c0.5-0.2,0.7-0.8,0.5-1.3C104.1,12.8,102.6,11.6,100.8,11.4z"/>
	<path fill="#2D2D2D" d="M100.8,17.5c0.5-0.1,0.9-0.6,0.8-1.1c-0.1-0.5-0.6-0.9-1.1-0.9c-0.2,0-1.8,0.3-2.4,1.6
		c-0.4,0.9-0.3,1.9,0.3,3c0.2,0.3,0.5,0.5,0.9,0.5c0.2,0,0.3,0,0.5-0.1c0.5-0.3,0.6-0.9,0.4-1.4c-0.3-0.5-0.4-0.9-0.3-1.1
		C100,17.7,100.6,17.5,100.8,17.5z"/>
	<circle fill="#2D2D2D" cx="113.6" cy="20.8" r="2"/>
	<path fill="#2D2D2D" d="M122.2,26.4c-0.2-0.1-0.3-0.3-0.3-0.5l-0.4-3c0-0.1,0-0.3,0.1-0.4l0.9-1.5c0.5-0.8,0.5-1.9,0-2.7
		c-0.4-0.7-0.9-1.2-1.5-1.7c-0.1-0.1-0.2-0.2-0.2-0.4c-1.4-6-7.4-8.5-9.2-9.2c-0.1,0-0.3-0.1-0.4-0.3C109.7,5.3,104.4,0,99,0
		c-5.8,0-10.7,6.3-14.7,11.3c-0.3,0.4-0.6,0.8-0.9,1.2c-6.4,2.5-8.1,6.7-9.2,9.5c-0.3,0.7-0.5,1.2-0.7,1.6
		c-1.2,2-15.4,10.3-21.7,10.3c-6.2,0-15.7-1.5-16.5-1.6c-1-0.3-11.8-2.6-27.7,10.4C-7.9,55.5,4.3,79.5,8.9,88.5
		c0.6,1.2,0.7,2.5,0.2,3.8c-4.5,12.3-1,22.2,0.6,25.9c0.4,0.9,0.5,1.9,0.2,2.9l-1,3.5c-0.2,0.8-0.1,1.6,0.4,2.3c0.5,0.7,1.3,1,2.1,1
		h28.1c1,0,1.8-0.5,2.3-1.4c0.5-0.9,0.4-1.9-0.1-2.7c-1.4-2-3.9-4.6-8.3-4.9c0-1.1,0.3-2.9,0.6-5c0.8-5.4,2-13.6,0.2-20.2
		c-0.1-0.2,0-0.7,0.1-0.9c1.4-2.4,2.6-6.5,2-10.1c0-0.3,0-0.6,0.2-0.9c0.4-0.6,0.8-1.3,1.4-2.1c0.7-1,1.4-2.1,2.2-3.4
		c2.1,1.3,9.5,5.5,19.8,5.5c6.8,0,14.9-1.8,23.5-7.5c-0.4,1.1-1,2.7-1.8,4.7c-1.7,4.3,4.3,22,10.4,38.7c0.4,1.1,0.8,2.1,1,2.8
		c-1.9,0.3-3.6,1.3-4.2,2.7c-0.4,1-0.2,2,0.6,2.7c2.1,2.2,11,2.2,13.7-0.5c2.6-2.6,4.3-11.3,4.5-14.5c0-0.4,0.1-0.7,0.3-1
		c7-16.9,4.9-30.4,4.1-35.5c-0.6-3.6,0.2-5.9,1.1-7.7c1.4-2.9,2.1-6.3,2-9.7c-0.1-3.1-0.5-6.4-0.8-9.6c-0.2-1.6-0.4-3.2-0.5-4.6
		c2,0.6,4.9,0.6,7,0.4c1.6-0.2,3.1-0.9,4.2-1.9c2.3-2.2,3.4-4.5,3.2-6.9C127.7,30.5,123.9,27.5,122.2,26.4z M123.4,40
		c-0.8,0.8-1.9,1.3-3.1,1.4c-2.1,0.2-5.2,0.1-6.8-0.5c-0.3-0.1-0.6-0.1-0.8-0.1l0-0.1c-1.6-0.1-6.5-0.4-10.5-4.6
		c-1.7-1.8-3-3.9-3.7-6.3c-0.2-0.5-0.7-0.8-1.2-0.7c-0.5,0.2-0.8,0.7-0.7,1.2c0.8,2.7,2.3,5.2,4.2,7.1c2.8,2.9,6.4,4.6,10.7,5.1
		c0.1,1.6,0.3,3.3,0.5,5.2c0.4,3.1,0.7,6.4,0.8,9.4c0.1,3.1-0.5,6.2-1.8,8.8c-1,2-1.9,4.7-1.2,8.9c0.8,4.9,2.9,18-3.9,34.4
		c-0.2,0.5-0.4,1.1-0.4,1.6c-0.3,3.5-2,11.3-4,13.3c-2,2-9.6,1.9-10.9,0.5c-0.3-0.3-0.2-0.4-0.2-0.6c0.3-0.7,1.7-1.5,3.2-1.5
		c0.4,0,0.8-0.2,1.1-0.6c0.2-0.3,0.3-0.8,0.2-1.2c-0.2-0.7-0.7-1.9-1.3-3.6c-3-8.2-12.1-33.1-10.4-37.3c2.2-5.6,2.7-7.6,2.7-7.7
		l0.1-0.6l-0.4-0.4c-0.1-0.1-6.6-6.6-4-16.3c0.1-0.5-0.2-1.1-0.7-1.2c-0.5-0.1-1.1,0.2-1.2,0.7c-2.3,8.8,1.9,15.1,3.8,17.3
		c-21.9,15.4-39.5,5-42.6,2.9c2.3-4,4.3-8.9,3.7-13.7c-0.1-0.5-0.6-0.9-1.1-0.9c-0.5,0.1-0.9,0.6-0.9,1.1c0.8,6.4-3.8,13.2-6.6,17.3
		c-0.6,0.8-1,1.5-1.4,2.1c-0.4,0.7-0.6,1.5-0.5,2.3c0.5,2.9-0.5,6.6-1.7,8.7c-0.4,0.7-0.5,1.7-0.3,2.4c1.6,6.3,0.5,13.9-0.3,19.4
		c-0.3,2.3-0.6,4.1-0.6,5.4c0,1,0.8,1.8,1.8,1.9c3.6,0.2,5.7,2.3,6.8,4c0.2,0.3,0.1,0.6,0,0.7c-0.1,0.1-0.2,0.3-0.5,0.3H11.4
		c-0.3,0-0.4-0.2-0.5-0.2c-0.1-0.1-0.2-0.3-0.1-0.5l1-3.5c0.4-1.4,0.3-2.9-0.3-4.3C9.9,114,6.7,104.6,10.9,93
		c0.6-1.8,0.5-3.7-0.3-5.4C6.3,79-5.4,56,8.9,44.3c15.5-12.7,25.9-10.1,26-10l0.1,0c0.4,0.1,10.2,1.6,16.8,1.6
		c6.8,0,21.8-8.6,23.4-11.3c0.3-0.5,0.6-1.2,0.9-1.9c1-2.6,2.5-6.2,8.3-8.4l0.3-0.1l0.2-0.2c0.4-0.5,0.7-0.9,1.1-1.4
		C89.6,7.9,94.2,2,99,2c4.7,0,9.8,5.3,10.8,6.3c0.3,0.4,0.7,0.6,1.2,0.8c1.6,0.5,6.7,2.7,7.9,7.7c0.1,0.6,0.4,1.1,0.9,1.4
		c0.4,0.3,0.8,0.7,1,1.2c0.1,0.2,0.1,0.4,0,0.6l-0.9,1.5c-0.3,0.5-0.4,1.1-0.4,1.7l0.4,3c0.1,0.7,0.5,1.4,1.1,1.8
		c1.1,0.7,4.6,3.4,4.9,6.7C126.1,36.5,125.3,38.3,123.4,40z"/>
	<path fill="#535259" d="M83.6,71.9c-21.9,15.4-39.5,5-42.6,2.9c2-3.5,3.9-7.8,3.8-12.1c0.2,1.5,0.4,3.9,0.3,6.1
		c0,3.2,2.2,6,5.3,6.7c13.9,3.4,23.9,0.2,28.2-1.7c1.4-0.6,2.1-2.1,1.8-3.6c-0.8-3.3-1.9-9.5-0.9-13.5
		C78.2,64.4,81.9,69.9,83.6,71.9z"/>
	<path fill="#535259" d="M40,125c0.2,0.3,0.1,0.6,0,0.7c-0.1,0.1-0.2,0.3-0.5,0.3h-28c-0.3,0-0.4-0.2-0.5-0.3
		c-0.1-0.1-0.2-0.3-0.1-0.5l1-3.5c5.9,1.2,11.4-0.3,15.4-3.1c4-2.8,2.1-24.6,2.3-27.3c2.8-5.4,0.6-10.8,0-12.4
		c7-3.8,11.3-11.1,13.3-15c-0.3,3.5-1.9,7.1-3.7,10.1c-0.1,0.2-0.2,0.3-0.3,0.5c-0.9,1.4-1.7,2.7-2.5,3.8c-0.6,0.8-1.1,1.6-1.4,2.2
		c-0.1,0.1-0.1,0.2-0.1,0.3c0,0-0.1,0.1-0.1,0.1c-0.4,0.7-0.6,1.5-0.4,2.2c0.5,2.9-0.5,6.6-1.7,8.7c-0.4,0.7-0.5,1.7-0.3,2.4
		c1.6,6.3,0.5,13.9-0.3,19.4c-0.3,2.3-0.6,4.1-0.6,5.4c0,0.9,0.6,1.7,1.5,1.8c0.1,0,0.3,0.1,0.4,0.1c0.4,0,0.9,0.1,1.2,0.2
		c0.2,0,0.3,0.1,0.5,0.1C37.5,122,39.1,123.6,40,125z"/>
	<path fill="#535259" d="M40.3,125.1c0.2,0.3,0.1,0.6,0,0.7c-0.1,0.1-0.2,0.3-0.5,0.3H11.4c-0.3,0-0.4-0.2-0.5-0.3
		c-0.1-0.1-0.2-0.3-0.1-0.6l1-3.6c0,0,0,0,0.1,0l-1,3.5c-0.1,0.3,0,0.5,0.1,0.5c0.1,0.1,0.2,0.3,0.5,0.3h28c0.3,0,0.5-0.2,0.5-0.3
		c0.1-0.1,0.2-0.4,0-0.7c-0.9-1.4-2.5-3-5-3.7C37.7,122,39.3,123.7,40.3,125.1z"/>
	<path fill="#535259" d="M111.1,66c-1,2-1.9,4.7-1.2,8.9c0.8,4.9,2.9,18-4,34.4c-0.2,0.5-0.4,1.1-0.4,1.6c-0.3,3.5-2,11.3-4,13.3
		c-2,2-9.6,1.9-10.9,0.5c-0.3-0.3-0.2-0.4-0.2-0.6c0.3-0.7,1.7-1.5,3.2-1.5c0.4,0,0.9-0.2,1.1-0.6c0.3-0.3,0.3-0.8,0.2-1.2
		c0,0,0-0.1,0-0.1c6.4,0.6,8.8-8.9,9.9-15.3c2.9-11.8,1.1-31.3-0.6-37.6c2.8-4.5,4.6-10.4,5.8-15.5c0.3-2.2,0.3-3.9-1.5-4.9
		c-9.8-5.5-11.8-15.9-12-17.2c0,0,0,0,0,0.1c0.3,1,0.7,1.9,1.1,2.8c0.1,0.3,0.3,0.5,0.4,0.7c0.1,0.1,0.1,0.2,0.2,0.3
		c0.2,0.3,0.3,0.5,0.5,0.8c0.1,0.1,0.1,0.2,0.2,0.3c0.1,0.2,0.3,0.4,0.5,0.6c0.2,0.3,0.4,0.5,0.6,0.7c0.2,0.2,0.4,0.4,0.6,0.7
		c0,0.1,0.1,0.1,0.2,0.2c2.8,2.9,6.4,4.6,10.7,5.1c0.1,1.6,0.3,3.3,0.5,5.2c0.4,3.1,0.7,6.4,0.8,9.4C113,60.3,112.4,63.4,111.1,66z"
		/>
	<path fill="#535259" d="M96.6,30.3C96.6,30.3,96.6,30.2,96.6,30.3L96.6,30.3C96.6,30.2,96.6,30.3,96.6,30.3c0.3,1,0.7,1.9,1.1,2.8
		C97.3,32.3,96.9,31.3,96.6,30.3C96.6,30.4,96.6,30.3,96.6,30.3z"/>
	<path fill="#535259" d="M86,72.3l0.1-0.5l-0.4-0.4c-0.1-0.1-5.8-5.8-4.4-14.4c-0.2,3,0.1,10.4,7,14.4c-1,3-3.3,7.5-2.3,13.6
		c0.1,3.9,2.4,14.8,3.8,21.5c-3.4-9.8-7.3-22.1-6.7-25.9c0.3-0.7,0.5-1.4,0.8-2c1.4-3.5,1.8-5.1,1.9-5.5c0,0,0,0,0,0c0,0,0,0,0,0
		l0-0.1l0-0.1C86,72.5,86,72.3,86,72.3z"/>
	<path fill="#535259" d="M85.5,72c-0.7-0.7-5.7-6.2-4.4-14.3c0.1-0.6,0.2-1.2,0.4-1.9c0,0.2-0.1,0.6-0.1,1.1
		c-1.3,8.7,4.4,14.3,4.4,14.4l0.4,0.4L86,72.3c0,0-0.1,0.2-0.2,0.6l0.1-0.4L85.5,72C85.5,72.1,85.5,72.1,85.5,72z"/>
	<path fill="#535259" d="M105.1,15.6c-0.1,0.1-0.1,0.2-0.3,0.3c-0.1,0-0.1,0.1-0.2,0.1h0c0,0,0,0,0,0c-0.5,0.2-1.1,0-1.3-0.5
		c-0.6-1.4-1.5-2.1-2.6-2.2c-1.3-0.1-2.8,0.7-3.6,1.9c-0.9,1.3-1.2,2.6-0.7,3.8c0.7,2,3.1,3.5,4.5,3.9c0.4,0.1,0.6,0.4,0.7,0.7
		l-0.1-1.4c-0.1-1.5,0.7-3,2-3.8l1-0.6C105.3,17.5,105.5,16.4,105.1,15.6z M100.8,17.5c-0.2,0-0.8,0.2-0.9,0.5
		c-0.1,0.2,0,0.6,0.3,1.1c0.3,0.5,0.1,1.1-0.4,1.4c-0.1,0.1-0.3,0.1-0.5,0.1c-0.3,0-0.7-0.2-0.9-0.5c-0.7-1.1-0.8-2.1-0.3-3
		c0.6-1.3,2.2-1.5,2.4-1.6c0.5-0.1,1,0.3,1.1,0.9C101.7,16.9,101.3,17.4,100.8,17.5z"/>
	<path fill="#535259" d="M124.2,39.3c-0.2,0.3-0.5,0.5-0.7,0.7c-0.8,0.8-1.9,1.3-3.1,1.4c-2.1,0.2-5.2,0.1-6.8-0.5
		c-0.3-0.1-0.6-0.1-0.8-0.1v-0.1c-1.6-0.1-6.5-0.4-10.5-4.6c-1.6-1.6-2.8-3.7-3.6-5.9c1.1,1.7,7,10.2,15.4,7.9
		C115.3,39.7,122,41,124.2,39.3z"/>
</g>
</svg>
