<?xml version="1.0" encoding="utf-8"?>
<!-- Generator: Adobe Illustrator 24.1.2, SVG Export Plug-In . SVG Version: 6.00 Build 0)  -->
<svg version="1.1" id="Layer_1" xmlns="http://www.w3.org/2000/svg" xmlns:xlink="http://www.w3.org/1999/xlink" x="0px" y="0px"
	 viewBox="0 0 128 128" style="enable-background:new 0 0 128 128;" xml:space="preserve">
<style type="text/css">
	.st0{fill:#A07A6D;}
	.st1{fill:#9E6A57;}
	.st2{fill:#2D2D2D;}
	.st3{fill:#4F4138;}
	.st4{fill:#A57456;}
	.st5{fill:#E5B693;}
	.st6{fill:#CEAD9D;}
	.st7{fill:#E0C8B0;}
	.st8{fill:#96685A;}
</style>
<g>
	<path class="st0" d="M26.92,85.6c-0.47-0.21-0.94-0.41-1.39-0.67c-0.39,0.44-0.81,0.87-1.25,1.28c-0.25,0.22-0.51,0.44-0.8,0.64
		c-0.39,0.25-0.65,0.31-0.88,0.45c-0.46,0.24-0.78,0.68-1.16,1.2c-0.2,0.26-0.35,0.5-0.59,0.79c-0.26,0.31-0.49,0.51-0.74,0.74
		c-0.49,0.44-0.99,0.85-1.49,1.26c-1.87,1.53-3.79,2.98-5.58,4.52c-0.28,1.02-0.59,2.03-0.9,3.04l3.62,4.63l1.85,2.39
		c0.61,0.8,1.22,1.59,1.86,2.35c1.34,1.67,2.37,3.41,3.32,5.25c0.47,0.91,0.9,1.85,1.29,2.81c0.33,0.83,0.64,1.67,0.83,2.59
		c0.13-0.02,0.26-0.03,0.4-0.02c0.15,0.01,0.31,0.04,0.45,0.09c0.15,0.05,0.27,0.1,0.43,0.23l0.05,0.03l0.03,0.05
		c0.5,0.81,1.02,1.6,1.55,2.39c0.41,0.63,0.83,1.24,1.26,1.85c0.1,0.13,0.26,0.13,0.65-0.09c0.71-0.5,1.41-1,2.1-1.51
		c-1.09-1.23-2.16-2.46-3.19-3.74c-0.57-0.7-1.11-1.42-1.63-2.17c-0.26-0.37-0.51-0.8-0.73-1.18l-0.66-1.15
		c-1.75-3.09-3.57-6.13-5.21-9.34l-0.31-0.63c-0.11-0.23-0.2-0.45-0.29-0.67c-0.17-0.44-0.32-0.91-0.43-1.4
		c-0.22-0.96-0.31-2.14,0.21-3.24c0.06-0.13,0.13-0.27,0.21-0.39l0.12-0.19L20,97.65l0.37-0.53l0.75-1.1
		c0.5-0.74,1.01-1.48,1.57-2.2c0.28-0.36,0.56-0.72,0.87-1.07c0.31-0.35,0.61-0.7,1.05-1.04c0.66-0.48,1.32-1.09,1.96-1.68
		c0.64-0.6,1.27-1.21,1.89-1.84c0.3-0.32,0.6-0.64,0.88-0.98c0.16-0.2,0.33-0.41,0.48-0.62c-0.3-0.08-0.6-0.17-0.89-0.26
		C28.24,86.12,27.58,85.87,26.92,85.6z"/>
	<path class="st1" d="M3.29,75.15c-0.19-0.4-0.27-0.8-0.32-1.18C2.92,73.58,2.9,73.2,2.9,72.82c0-1.51,0.19-2.99,0.44-4.46
		c0.22-1.25,0.5-2.48,0.82-3.71c-0.77,1.04-1.44,2.15-1.92,3.32c-0.56,1.35-0.9,2.78-0.78,4.14c0.05,0.67,0.26,1.33,0.55,1.92
		c0.31,0.59,0.66,1.1,1.05,1.61c0.51,0.67,1.18,1.27,1.96,1.83c-0.13-0.15-0.26-0.31-0.39-0.46C4.15,76.43,3.68,75.87,3.29,75.15z"
		/>
	<path class="st2" d="M30.26,124.1h3.94l-1.92-1.32c-0.06-0.04-0.11-0.1-0.15-0.15c-0.67,0.41-1.33,0.84-1.99,1.26L30.26,124.1z"/>
	<polygon class="st2" points="10.79,126.73 14.73,126.73 12.99,125.54 10.6,126.39 	"/>
	<path class="st2" d="M54.81,111.04c0.2-0.47,0.41-0.94,0.62-1.41l0.34-0.71l-2.89,2.23L54.81,111.04z"/>
	<path class="st3" d="M107.51,44.33c0.51-0.11,1.03-0.16,1.56-0.15c-0.29-0.32-0.56-0.65-0.84-0.98c-0.54-0.67-1.06-1.36-1.54-2.07
		c0.04,0.13,0.09,0.25,0.13,0.38c0.13,0.37,0.23,0.75,0.34,1.13C107.31,43.18,107.43,43.74,107.51,44.33z"/>
	<path class="st4" d="M125.42,60.82c-0.2-0.21-0.41-0.42-0.62-0.62c-0.27-0.25-0.62-0.52-0.77-0.6l-0.02-0.01c0,0,0-0.01-0.06-0.03
		l-0.24-0.09c-0.13-0.06-0.27-0.13-0.38-0.19c-0.23-0.13-0.44-0.27-0.64-0.42c-0.4-0.29-0.76-0.61-1.1-0.94
		c-1.37-1.3-2.37-2.9-3.12-4.55l-0.04-0.09l0-0.01c-0.26-1.27-0.85-2.48-1.7-3.5c-0.85-1.02-1.95-1.8-3.12-2.39
		c-0.58-0.3-1.17-0.57-1.77-0.81c-0.3-0.12-0.59-0.24-0.88-0.35c-0.29-0.1-0.54-0.19-0.84-0.28c-1.13-0.34-2.35-0.57-3.64-0.98
		c0.23,0.4,0.46,0.8,0.68,1.21c0.02,0.03,0,0.07-0.03,0.09c-0.02,0.01-0.05,0.01-0.07-0.01c-1.65-1.38-3.09-2.92-4.45-4.53
		c-0.62-0.75-1.19-1.54-1.77-2.33c0.41,0.7,0.87,1.37,1.24,2.09c0.45,0.87,0.81,1.77,1.16,2.69c0.07,0.19,0.13,0.37,0.2,0.56
		c0.06,0.22,0.16,0.54,0.28,0.86c0.14,0.46,0.26,0.93,0.36,1.41c0.01,0.04-0.02,0.07-0.05,0.08c-0.02,0-0.05-0.01-0.06-0.02
		c-0.28-0.36-0.53-0.73-0.78-1.11c-1.16,0.34-2.06,0.81-2.7,1.42c0.21,0.06,0.41,0.11,0.62,0.16l0.79,0.22
		c0.26,0.07,0.53,0.16,0.78,0.22l0.02,0c0.05,0.01,0.08,0.06,0.07,0.11c-0.01,0.04-0.04,0.07-0.09,0.07
		c-0.3,0.02-0.56,0.03-0.84,0.03l-0.83-0.01c-0.55-0.02-1.1-0.04-1.65-0.08l-0.17-0.01l-0.17-0.2c-1.34-1.59-2.7-3.18-4.06-4.7
		c-0.69-0.75-1.4-1.49-2.11-2.15c-0.18-0.15-0.36-0.32-0.54-0.45c-0.18-0.13-0.34-0.27-0.57-0.4l-1.33-0.79
		c-1.79-1.03-3.69-1.99-5.69-2.46c-0.5-0.12-1.01-0.21-1.49-0.2c-0.23,0-0.48,0.03-0.6,0.11c-0.08,0.03-0.06,0.07-0.08,0.1
		c-0.02,0.07-0.03,0.16-0.03,0.26c0.02,0.91,0.37,1.93,0.71,2.87c0.74,1.9,1.58,3.78,2.64,5.48c0.53,0.84,1.12,1.64,1.77,2.27
		c0.33,0.33,0.61,0.53,1.06,0.77c0.41,0.23,0.84,0.44,1.28,0.63c0.89,0.38,1.84,0.68,2.82,0.94l3.04,0.75
		c0.52,0.15,1.05,0.28,1.64,0.62c0.53,0.34,0.91,0.75,1.28,1.16c0.71,0.83,1.3,1.72,1.79,2.67c0.02,0.05,0.01,0.1-0.04,0.13
		c-0.04,0.02-0.09,0.01-0.11-0.02c-0.52-0.52-1.04-1.04-1.58-1.51c0.05,0.17,0.12,0.36,0.13,0.54c0.05,0.4,0.02,0.8-0.05,1.19
		c-0.14,0.78-0.46,1.46-0.81,2.11c-0.72,1.31-1.88,2.23-3,3.13c-0.28,0.23-0.57,0.44-0.87,0.65c-0.3,0.2-0.6,0.4-0.98,0.58
		c-0.75,0.34-1.54,0.42-2.28,0.37c-0.74-0.06-1.47-0.17-2.11-0.47c-2.45-1.15-4.61-2.71-5.2-3.03c-1.18-0.64-2.44-1.12-3.72-1.52
		c-1.28-0.4-2.6-0.67-3.92-0.92c-0.66-0.12-1.33-0.21-1.99-0.32l-2.01-0.23l-0.06-0.01l-0.07-0.03c-2.74-0.98-5.57-1.77-8.4-2.53
		c-2.83-0.77-5.68-1.49-8.53-2.3c-1.44-0.42-2.81-0.87-4.22-1.24c-1.4-0.38-2.82-0.72-4.24-1.02c-2.85-0.59-5.72-1.05-8.6-1.26
		c-2.88-0.22-5.78-0.18-8.61,0.27c-2.82,0.45-5.55,1.49-8.2,2.69c-2.65,1.21-5.2,2.66-7.65,4.26c-2.42,1.63-4.81,3.39-6.89,5.41
		c-0.45,0.46-0.72,1.17-0.98,1.83c-0.25,0.68-0.46,1.38-0.65,2.09c-0.38,1.41-0.69,2.85-0.92,4.29c-0.23,1.44-0.4,2.9-0.38,4.34
		c0.01,0.7,0.08,1.46,0.35,1.99c0.33,0.57,0.82,1.13,1.29,1.67c0.97,1.09,2.01,2.14,2.93,3.35c0.46,0.61,0.89,1.26,1.18,2.03
		c0.14,0.39,0.24,0.82,0.22,1.29c0,0.46-0.26,0.98-0.37,1.23c-0.53,1.28-0.75,2.72-1.15,4.19c-0.21,0.74-0.46,1.51-0.99,2.24
		c-0.16,0.17-0.29,0.36-0.48,0.5c-0.09,0.07-0.2,0.16-0.27,0.21l-0.21,0.15c-0.28,0.21-0.55,0.42-0.8,0.65
		c-1.01,0.9-1.77,2.06-1.66,3.21c0.01,0.29,0.09,0.57,0.2,0.85c0.1,0.3,0.28,0.73,0.38,1.07c0.24,0.73,0.44,1.45,0.63,2.17
		c0.75,2.89,1.35,5.78,1.81,8.75c0.06,0.37,0.1,0.75,0.15,1.14c0.01,0.21,0.04,0.38,0.05,0.61l0.01,0.34l0.01,0.2
		c0.05,0.6,0.18,1.36,0.31,2.07c0.26,1.43,0.55,2.87,0.85,4.31c0.52,2.51,1.08,5.01,1.63,7.51l1.95-0.7
		c-0.7-2.13-1.36-4.27-1.9-6.48c-0.15-0.64-0.29-1.28-0.4-1.97l-0.06-0.55l-0.04-0.45c-0.03-0.3-0.07-0.6-0.11-0.91
		c-0.18-1.22-0.44-2.44-0.73-3.67l-0.44-1.87c-0.16-0.72-0.22-1.39-0.25-2.06c-0.07-1.34-0.02-2.66,0.15-3.99
		c0.18-1.32,0.43-2.66,1.08-3.96c0.33-0.66,0.83-1.26,1.3-1.72c0.48-0.48,0.97-0.91,1.47-1.33c2-1.66,4.07-3.16,6.11-4.67
		c0.51-0.38,1.01-0.76,1.49-1.16c0.22-0.19,0.48-0.4,0.64-0.58c0.18-0.19,0.39-0.48,0.59-0.72c0.2-0.25,0.41-0.51,0.66-0.77
		c0.25-0.26,0.57-0.5,0.9-0.67c0.33-0.17,0.69-0.28,0.83-0.38c0.24-0.15,0.48-0.33,0.71-0.52c0.94-0.78,1.78-1.72,2.53-2.71
		c0.76-0.99,1.39-2.08,1.89-3.22c1.03-2.28,1.33-4.87,0.91-7.38c-0.01-0.05,0.02-0.1,0.07-0.11c0.05-0.01,0.1,0.02,0.11,0.07
		c0.62,2.5,0.46,5.22-0.49,7.66c-0.65,1.75-1.61,3.38-2.81,4.82c0.43,0.08,0.88,0.14,1.31,0.21l2.05,0.29l4.08,0.54
		c1.37,0.15,2.71,0.36,4.08,0.62c1.37,0.27,2.75,0.53,4.14,0.64c1.39,0.1,2.78,0.12,4.18,0.05c1.4-0.06,2.79-0.17,4.18-0.18
		l4.15-0.09c1.37-0.05,2.75-0.05,4.03-0.15l0.21-0.02l0.09,0.02c0.87,0.2,1.68,0.43,2.5,0.66c0.81,0.25,1.62,0.49,2.42,0.75
		c0.8,0.25,1.61,0.51,2.41,0.75c0.24,0.07,0.47,0.13,0.71,0.2c-0.72-0.66-1.43-1.32-2.12-2l-2.7-2.62c-0.45-0.43-0.9-0.86-1.36-1.26
		c-0.11-0.09-0.24-0.22-0.38-0.37c-0.13-0.14-0.27-0.27-0.37-0.46c-0.11-0.18-0.21-0.35-0.25-0.57l-0.08-0.31
		c-0.01-0.1,0-0.21,0-0.32c0.03-0.85,0.47-1.47,0.88-1.99c0.44-0.52,0.93-0.94,1.44-1.34c1.01-0.79,2.08-1.47,3.16-2.11
		c0.04-0.03,0.1-0.01,0.13,0.03c0.02,0.04,0.01,0.09-0.02,0.12c-0.96,0.82-1.94,1.61-2.81,2.48c-0.44,0.43-0.85,0.89-1.17,1.38
		c-0.33,0.47-0.57,1-0.53,1.42c0.03,0.43,0.31,0.72,0.78,1.09c0.51,0.39,1,0.8,1.49,1.2c0.97,0.81,1.9,1.66,2.84,2.49
		c0.94,0.83,1.87,1.68,2.8,2.47c0.47,0.4,0.95,0.79,1.41,1.11l0.19,0.13l0.23,0.18c0.17,0.12,0.29,0.25,0.42,0.37
		c0.26,0.26,0.48,0.52,0.69,0.79c0.83,1.05,1.45,2.13,2.17,3.09c0.71,0.95,1.49,1.83,2.44,2.14l0.29,0.1l0.11,0.2
		c0.29,0.52,0.64,1.02,1.01,1.59c0.17,0.3,0.38,0.58,0.47,1.1c0.05,0.25-0.02,0.59-0.18,0.82c-0.08,0.11-0.16,0.22-0.25,0.28
		c-0.09,0.08-0.18,0.14-0.26,0.19c-0.53,0.28-0.99,0.69-1.49,1.08c-0.49,0.4-0.99,0.8-1.47,1.21c-1.95,1.63-3.86,3.32-5.97,4.8
		c-0.53,0.36-1.08,0.71-1.64,1.03c-0.29,0.15-0.59,0.3-0.89,0.43l-0.88,0.38c-0.58,0.26-1.16,0.51-1.77,0.75
		c-0.31,0.12-0.61,0.24-0.98,0.31c-0.19,0.04-0.41,0.05-0.62,0.03c-0.21-0.03-0.35-0.06-0.52-0.1c-1.23-0.3-2.4-0.63-3.58-0.94
		l0,0.01l-0.34,0.87l-0.41,1.09c0.66,0.29,1.34,0.57,2.02,0.78c0.89,0.28,1.8,0.52,2.6,0.52c0.41-0.01,0.62-0.06,1.06-0.26
		c0.42-0.19,0.85-0.41,1.27-0.63c0.86-0.45,1.71-0.92,2.56-1.39l5.09-2.91l2.52-1.48c0.43-0.25,0.79-0.47,1.17-0.75
		c0.38-0.27,0.77-0.57,1.15-0.86l2.31-1.81c0.4-0.31,0.76-0.59,1.24-0.93c0.39-0.25,0.71-0.5,1-0.79c0.56-0.59,0.85-1.22,0.68-1.91
		c-0.07-0.29-0.31-0.84-0.47-1.3c-0.17-0.47-0.33-0.94-0.49-1.41c-0.31-0.93-0.61-1.87-0.96-2.75c-0.18-0.44-0.37-0.87-0.6-1.23
		c-0.06-0.09-0.1-0.15-0.19-0.25l-0.24-0.3l-0.45-0.61c-0.57-0.81-1.1-1.65-1.62-2.49c-0.52-0.84-1.04-1.67-1.46-2.59
		c-0.02-0.05,0-0.1,0.05-0.13c0.04-0.02,0.09-0.01,0.12,0.03l0.01,0.01c0.97,1.4,2.06,2.75,3.16,4.07c1.43-0.38,2.74-0.97,3.99-1.69
		c1.32-0.75,2.56-1.64,3.77-2.58c0.6-0.47,1.2-0.95,1.78-1.44l0.44-0.37l0.22-0.19l0.12-0.1l0.03-0.02l0.02-0.01
		c0,0,0.08-0.07,0.13-0.09c0.05-0.03,0.12-0.07,0.16-0.08l0.04-0.01l0.08-0.03c0.48-0.15,0.81-0.22,1.21-0.32l4.56-1.13
		c0.76-0.19,1.52-0.35,2.27-0.55c0.74-0.17,1.4-0.47,2.08-0.87c1.33-0.8,2.54-1.82,3.57-3c1.04-1.18,1.95-2.47,2.92-3.66
		c0.48-0.61,0.98-1.18,1.45-1.78c0.44-0.6,0.91-1.19,1.23-1.79c0.21-0.97,0.51-1.94,1.11-2.79c0.29-0.43,0.68-0.81,1.12-1.09
		c-0.41-0.05-0.81-0.1-1.21-0.18c-0.62-0.11-1.22-0.28-1.82-0.47c-0.6-0.19-1.2-0.37-1.8-0.54l-0.31-0.09l-0.04-0.26
		c-0.23-1.3-0.44-2.61-0.6-3.93c0-0.03,0.02-0.07,0.06-0.07c0.03,0,0.06,0.01,0.07,0.04c0.46,1.13,0.88,2.27,1.29,3.42
		c0.54,0.09,1.07,0.19,1.61,0.27c0.62,0.09,1.24,0.21,1.84,0.38c0.6,0.17,1.2,0.37,1.79,0.6c0.39,0.15,0.77,0.32,1.15,0.51
		c0.87-0.03,1.71-0.04,2.56,0c0.28,0.02,0.55,0.04,0.83,0.08l0.39,0.05l0.41,0.04c0.56,0.04,1.12,0.07,1.69,0.09
		c1.13,0.05,2.27,0.09,3.4,0.19c0.29,0.03,0.57,0.06,0.86,0.11c0.15,0.03,0.29,0.05,0.46,0.1c0.11,0.04,0.19,0.06,0.3,0.03
		c0.35-0.09,0.83-0.67,1.17-1.13c-0.21-0.02-0.41-0.06-0.61-0.09c-0.46-0.09-0.9-0.2-1.34-0.34c-0.87-0.26-1.71-0.58-2.52-0.97
		c-0.05-0.02-0.07-0.08-0.05-0.13c0.02-0.04,0.06-0.06,0.1-0.05l2.65,0.19c0.44,0.02,0.87,0.04,1.28,0.04c0.4,0,0.86-0.04,1.08-0.12
		c0.03-0.01,0.03-0.02,0.04-0.02c0-0.01-0.04,0.02-0.01-0.01c0.02-0.02,0.03-0.04,0.05-0.05l0.06-0.08
		c0.09-0.11,0.18-0.27,0.27-0.43c0.03-0.06,0.06-0.13,0.09-0.19c-0.71-0.32-1.77-1.35-0.71-1.35
		C125.48,61.94,125.38,61.25,125.42,60.82z M111.92,53.98c-0.24,0.71-0.9,1.23-1.69,1.23c-0.98,0-1.78-0.8-1.78-1.79
		c0-0.99,0.8-1.79,1.78-1.79c0.66,0,1.22,0.36,1.53,0.89c0.77,0.44,1.96,1.34,2.11,2.81C113.33,54.85,112.57,54.3,111.92,53.98z"/>
	<path class="st5" d="M89.29,85.19L89.29,85.19c0.01,0,0.01,0,0.01-0.01C89.3,85.19,89.29,85.19,89.29,85.19L89.29,85.19z"/>
	<path class="st6" d="M68.23,94.35c0.04,1.02,0.08,1.99,0.17,2.96c0.09,0.95,0.28,1.95,0.6,2.67l0.07,0.16l-0.03,0.3
		c-0.04,0.47-0.06,1.03-0.13,1.57c-0.06,0.54-0.12,1.09-0.2,1.65c-0.14,0.96-0.32,1.92-0.6,2.88c0.85-0.6,1.68-1.25,2.48-1.93
		c0.55-0.46,1.09-0.95,1.62-1.44c-0.22-0.71-0.35-1.34-0.37-2c-0.05-0.71,0.28-1.38,0.42-2.09c0.15-0.7,0.3-1.41,0.47-2.11
		c0.09-0.33,0.17-0.66,0.25-0.98c-0.38-0.35-0.71-0.72-1.01-1.11c-0.84-1.01-1.51-2.1-2.24-3.03c-0.18-0.23-0.37-0.45-0.56-0.63
		c-0.09-0.09-0.19-0.19-0.28-0.26l-0.14-0.11c-0.04-0.04-0.13-0.1-0.2-0.14c-0.52-0.38-0.98-0.77-1.43-1.17c0,0,0,0,0,0
		c0.19,0.57,0.37,1.15,0.53,1.74C67.92,92.28,68.18,93.25,68.23,94.35z"/>
	<path class="st0" d="M70.36,122.39c-0.12-0.24-0.24-0.53-0.25-0.92l0-0.6c0-1.51,0.06-2.99,0.2-4.47c0.13-1.48,0.31-2.96,0.52-4.44
		c0.12-0.81,0.26-1.62,0.41-2.42c-0.98,0.56-1.96,1.1-2.95,1.64c0.03,0.47,0.06,0.95,0.07,1.42c0.03,1,0.03,2,0,2.99
		c-0.02,0.99-0.08,1.99-0.17,2.98c-0.05,0.5-0.11,0.99-0.19,1.48l-0.14,0.74c-0.04,0.2-0.08,0.39-0.13,0.6
		c0.33,0.73,0.69,1.49,1.12,2.18c0.42,0.71,0.9,1.37,1.41,2.01c0.46-0.27,0.92-0.56,1.37-0.85l0.6-0.39
		c-0.36-0.25-0.7-0.53-1.03-0.86C70.9,123.19,70.61,122.87,70.36,122.39z"/>
	<path class="st7" d="M119.01,64.06c-0.42,0-4.67,0.14-8.91-1.28c-4.24-1.42-6.08-2.98-6.79-3.83c-2.12,0.14,0.28,7.09-1.56,9.5
		s-9.9,11.76-14.84,13.04c-3.53,2.41-8.91,6.09-11.45,4.96c1.41,2.98,2.84,4.03,2.84,4.03s10.17-4.46,10.45-6.3
		c7.44-0.83,16.47-6.77,18.13-10.76c2.37-5.7,4.08-7.24,4.08-7.24l7.07,1.04l4.16-0.46l1.11,0.12l1.79-2.27L119.01,64.06z"/>
	<path class="st7" d="M29.11,78.14c1.59,1.93,5.55,3.07,5.55,3.07s16.99,3.07,19.37,2.5c2.38-0.57,5.78-2.95,5.78-2.95l7.02,7.49
		l-0.2,1.11c0,0-6.86-1.74-8.88-1.6c-2.02,0.14-16.3-0.61-17.99-0.66c-1.69-0.05-14.14-2.45-14.7-2.68c1.13-0.8,2.21-2.21,2.68-3.25
		C28.21,80.14,29.11,78.14,29.11,78.14z"/>
	<path class="st8" d="M98.96,54.49c-1.89,2.53,3.37,9.41-5.09,12.16c-8.47,2.75-18.77,0.69-23.8-3.67c-5.04-4.36-27.69,0.46-33.87,0
		S10.23,74.82,9.36,81.86c-6.59-6.04-7.93-9.93-3.63-21.48c4.3-3.55,18.85-15.22,28.85-13.83s25.43,4.82,31.13,6.72
		c2.9,0.97,6.14,1.96,11.78,3.03c4.93,0.94,9.17,5.35,13.61,5.6c5.38-2.45,7.3-4.47,7.08-5.42S98.96,54.49,98.96,54.49z"/>
	<path class="st6" d="M30.5,86.22c0,0-4.16,4.49-5.3,5.64c-1.14,1.14-1.7,1.91-2.31,2.67c-0.61,0.77-6.88,4.6-10.96,4.02
		c0.8-1.82,1.4-3.96,1.4-3.96s7.58-5.43,7.77-6.39s1.88-1.56,2.68-2.11c0.8-0.54,1.62-1.53,1.62-1.53L30.5,86.22z"/>
	<path class="st3" d="M104.04,47.06c0,0,2.52-1.03,3.11-0.82c-1.18-1.67-6.6-8.05-6.6-8.05s0.28,1.67,0.57,2.32
		c0.28,0.64,1.03,2.99,1.18,3.14C102.45,43.81,104.04,47.06,104.04,47.06z"/>
	<path class="st7" d="M100.01,54.26c-0.49-0.7-0.91-5.33,0.7-6.17c-1.47-1.05-1.68-2.24-3.36-4.07c-1.68-1.82-10.7-7.57-13.15-7.64
		c-2.45-0.07-2.2,1.24-1.9,2.54s3.26,9.25,5.64,10.46c2.38,1.21,7.01,1.59,8.72,2.47C98.36,52.73,100.01,54.26,100.01,54.26z"/>
	<path class="st2" d="M71.05,126.02c0.07,0.11,0.08,0.17,0.14,0.27l0.24,0.45h3.94c0,0-2.07-1.46-2.11-1.55l-1.2,0.44
		C71.7,125.76,71.42,125.87,71.05,126.02z"/>
	<path class="st2" d="M127.64,60.33c-0.16-0.23-0.31-0.43-0.47-0.61c-0.32-0.37-0.65-0.71-1.02-1.04c-0.39-0.32-0.73-0.63-1.39-0.91
		l-0.23-0.08l-0.07-0.02c-0.07-0.03-0.13-0.05-0.22-0.09c-0.15-0.07-0.32-0.17-0.48-0.27c-0.33-0.2-0.66-0.45-0.98-0.71
		c-0.64-0.52-1.24-1.11-1.82-1.73c-0.58-0.62-1.14-1.28-1.64-1.98l0.04,0.1c-0.56-1.32-1.31-2.51-2.18-3.58
		c-0.88-1.07-1.82-2.1-2.89-3.03c-0.54-0.46-1.11-0.89-1.73-1.25c-0.31-0.18-0.63-0.35-0.96-0.49c-0.34-0.16-0.73-0.27-1.09-0.34
		c-0.24-0.04-0.47-0.07-0.71-0.09c-0.22-0.54-0.46-1.06-0.72-1.57c-0.41-0.8-0.84-1.59-1.32-2.35c-0.48-0.76-1.02-1.48-1.54-2.21
		c-0.52-0.73-1.12-1.41-1.7-2.1L102.86,34l1.14,2.23c0.02,0.04,0.04,0.09,0.06,0.13c0.08,0.17,0.16,0.33,0.24,0.5
		c0.23,0.51,0.43,1.03,0.57,1.57c0.21,0.76,0.3,1.57,0.52,2.33c0.1,0.38,0.24,0.75,0.39,1.11c0.14,0.37,0.31,0.73,0.47,1.08
		c0.24,0.5,0.5,1,0.8,1.48c-0.24,0.07-0.49,0.15-0.72,0.25c-0.81-1.34-1.71-2.61-2.66-3.83c-0.65-0.83-1.36-1.61-2.06-2.4
		c-0.69-0.8-1.46-1.53-2.21-2.28l-1.62-1.62l1.13,1.93c0.5,0.85,0.93,1.72,1.27,2.64c0.35,0.91,0.57,1.88,0.93,2.79
		c0.36,0.91,0.8,1.78,1.26,2.64c0.05,0.09,0.1,0.17,0.15,0.26c-1.31,0.42-2.35,1.02-3.09,1.8c-0.96-1.59-2.01-3.11-3.22-4.54
		c-0.69-0.82-1.41-1.62-2.31-2.31c-0.24-0.17-0.46-0.34-0.71-0.5c-0.26-0.15-0.54-0.3-0.78-0.4c-0.49-0.22-0.99-0.4-1.5-0.59
		c-2.01-0.7-4.01-1.35-6.06-1.93c-0.52-0.13-1.04-0.25-1.61-0.29c-0.29-0.01-0.58-0.02-0.94,0.12c-0.18,0.06-0.37,0.23-0.47,0.43
		c-0.08,0.18-0.12,0.34-0.15,0.5c-0.12,1.2,0.09,2.24,0.3,3.31c0.45,2.12,1.23,4.14,2.27,6.07c0.54,0.96,1.13,1.91,1.97,2.76
		c0.41,0.42,0.98,0.83,1.46,1.09c0.5,0.29,1.02,0.52,1.54,0.73c2.11,0.8,4.3,1,6.32,1.25c0.5,0.06,1.01,0.13,1.36,0.27
		c0.39,0.17,0.81,0.45,1.2,0.76c0.07,0.05,0.13,0.11,0.2,0.17c-0.06,0.67-0.36,1.17-0.67,1.69c-0.33,0.52-0.73,1.03-1.13,1.52
		c-0.4,0.5-0.8,1-1.18,1.53c-0.37,0.54-0.81,1.04-1.25,1.52c-0.23,0.24-0.47,0.46-0.71,0.68c-0.24,0.21-0.5,0.43-0.73,0.57
		c-0.47,0.31-1.07,0.48-1.7,0.54c-1.27,0.12-4.92-1.38-5.39-1.76c-0.53-0.44-1.09-0.85-1.68-1.21c-1.18-0.73-2.44-1.3-3.73-1.78
		c-1.3-0.48-2.62-0.85-3.97-1.16c-0.67-0.15-1.35-0.27-2.02-0.4l-1.96-0.3c-2.74-1.1-5.54-1.99-8.35-2.85
		c-2.83-0.84-5.67-1.62-8.46-2.47c-5.58-1.84-11.44-3.28-17.41-3.65c-2.98-0.18-6.01-0.07-8.97,0.54c-2.99,0.6-5.76,1.79-8.41,3.11
		c-2.66,1.33-5.17,2.93-7.6,4.62c-1.21,0.86-2.4,1.73-3.55,2.67c-1.15,0.94-2.29,1.87-3.35,2.94c-0.29,0.28-0.49,0.66-0.65,0.99
		c-0.17,0.34-0.3,0.69-0.44,1.05c-0.26,0.7-0.49,1.41-0.69,2.13c-0.01,0.03-0.02,0.06-0.02,0.09c-1.12,0.99-2.07,2.15-2.87,3.45
		c-0.8,1.35-1.41,2.9-1.43,4.59c-0.02,0.85,0.11,1.69,0.33,2.52c0.23,0.83,0.67,1.64,1.3,2.26c1.17,1.15,2.77,1.75,4.29,1.6
		c0.52,0.61,1.03,1.23,1.48,1.86c0.41,0.58,0.78,1.19,0.98,1.8c0.1,0.31,0.15,0.61,0.12,0.88c-0.03,0.29-0.12,0.44-0.32,0.85
		c-0.66,1.43-0.93,2.93-1.35,4.28c-0.21,0.67-0.47,1.31-0.83,1.76c-0.1,0.09-0.18,0.21-0.29,0.28c-0.06,0.04-0.09,0.07-0.17,0.13
		l-0.24,0.16C4.99,90.77,4.67,91,4.37,91.26c-0.6,0.52-1.16,1.11-1.59,1.85c-0.43,0.72-0.71,1.62-0.65,2.52
		c0.01,0.45,0.12,0.89,0.26,1.3c0.13,0.4,0.24,0.65,0.34,1.02c0.21,0.68,0.38,1.38,0.55,2.09c0.65,2.83,1.23,5.73,1.63,8.6
		C4.96,109,5,109.35,5.03,109.7c0.01,0.16,0.03,0.36,0.03,0.49l0.01,0.56c0.06,0.87,0.18,1.56,0.3,2.31
		c0.24,1.47,0.52,2.93,0.8,4.38c0.57,2.9,3.1,9.42,3.1,9.42l0.76,1.14h8.76l-4.76-3.27l-0.18-0.55c-0.79-2.4-1.55-4.84-2.19-7.26
		c-0.15-0.6-0.29-1.21-0.38-1.78l-0.05-0.41l-0.05-0.51c-0.04-0.33-0.08-0.67-0.13-1c-0.21-1.31-0.5-2.58-0.81-3.83l-0.47-1.86
		c-0.14-0.53-0.21-1.13-0.25-1.74c-0.09-1.21-0.07-2.46,0.04-3.67c0.13-1.2,0.35-2.42,0.82-3.43c0.4-0.87,0.92-1.37,1.78-2.15
		c-0.42,0.84-0.49,1.39-0.89,2.23l-0.08,0.17l0.12,0.21c1.04,1.77,2.14,3.46,3.26,5.15c1.14,1.68,2.28,3.35,3.58,4.97
		c0.58,0.75,1.16,1.57,1.7,2.4c0.57,0.82,1.1,1.67,1.64,2.51c0.53,0.85,1.05,1.7,1.53,2.57c0.47,0.87,0.92,1.77,1.15,2.67l0.14,0.54
		l0.44-0.23c0.17-0.09,0.34-0.14,0.52-0.15c0.09,0,0.17,0.01,0.26,0.03c0.07,0.01,0.14,0.05,0.19,0.07c0.55,0.74,1.08,1.5,1.6,2.26
		c0.55,0.78,1.06,1.57,1.59,2.36l0.59,1.05h8.76L33,121.73c-0.09-0.06-2.34-2.93-3.29-4.39c-0.48-0.74-0.96-1.47-1.38-2.22
		c-0.22-0.38-0.41-0.72-0.61-1.12l-0.61-1.19l-4.89-9.43c-0.72-1.46-1.37-3.16-0.88-4.24c0.03-0.07,0.06-0.14,0.1-0.2l0.06-0.1
		l0.09-0.14l0.36-0.58l0.69-1.14c0.46-0.76,0.92-1.5,1.38-2.23c0.24-0.36,0.48-0.72,0.73-1.06c0.25-0.34,0.51-0.67,0.76-0.9
		c0.7-0.65,1.29-1.32,1.87-2.02c0.57-0.7,1.13-1.41,1.63-2.16c0.4-0.62,1.1-1.18,1.37-1.9c0.97,0.26,1.7,0.4,2.69,0.57
		c1.39,0.24,2.82,0.29,4.22,0.24c1.4-0.06,2.8-0.13,4.2-0.07c1.39,0.07,2.78,0.22,4.16,0.43c1.39,0.21,2.77,0.43,4.17,0.54
		c2.76,0.18,5.48,0.45,8.36,0c0.75,0.11,1.52,0.25,2.3,0.39c0.83,0.13,1.67,0.29,2.51,0.41c0.84,0.13,1.69,0.23,2.55,0.3
		c0.4,0.03,0.81,0.05,1.21,0.04c0.1,0.62,0.19,1.24,0.27,1.86c0.11,0.98,0.21,1.99,0.14,2.9c-0.11,0.98-0.19,2.02-0.21,3.04
		c-0.01,0.52-0.02,1.04,0.01,1.57c0.02,0.45,0.05,0.91,0.16,1.41c-0.08,0.56-0.04,6.91-0.31,7.08c-0.27,0.16-0.54,0.3-0.82,0.45
		c-0.55,0.26-1.13,0.49-1.73,0.7c-0.6,0.22-1.19,0.43-1.78,0.62c-0.29,0.09-0.59,0.18-0.85,0.22c-0.13,0.02-0.22,0.01-0.33-0.01
		c-0.1-0.02-0.27-0.07-0.41-0.11c-1.18-0.37-2.38-0.82-3.59-1.23l-0.04-0.01c-0.06-0.11-0.15-0.21-0.28-0.26l-1.15-0.51l-6.94,5.36
		l6.06-0.33l0.06,0.03c0.91,0.49,1.81,0.91,2.78,1.28c0.96,0.36,1.96,0.67,3.13,0.72c0.3-0.01,0.6,0,0.94-0.08
		c0.36-0.07,0.57-0.18,0.85-0.28c0.48-0.2,0.94-0.42,1.39-0.63c0.9-0.44,1.78-0.89,2.65-1.35c0.23-0.12,0.46-0.25,0.69-0.37
		c-0.06,0.3-0.13,0.59-0.18,0.89c-0.18,0.98-0.33,1.97-0.46,2.95c-0.13,0.99-0.24,1.97-0.31,2.96c-0.03,0.49-0.05,0.99-0.06,1.48
		l0,1.41l0,0.37l0.07,0.1c0.3,0.39,0.61,0.74,0.91,1.1c0.3,0.36,0.6,0.71,0.89,1.08c0.58,0.72,1.7,2.78,1.78,2.93l0.6,1.11h8.76
		l-4.58-3.4l-0.95-0.84c-0.51-0.45-1.04-0.95-1.45-1.45c-0.2-0.24-0.38-0.51-0.45-0.7c-0.04-0.09-0.04-0.16-0.03-0.15l0.03-0.52
		c0.12-1.46,0.21-2.95,0.23-4.44c0.02-1.49,0-2.98-0.05-4.47c-0.04-0.98-0.1-1.97-0.19-2.95c0.82-0.48,1.64-0.94,2.45-1.45
		c0.41-0.25,0.89-0.56,1.29-0.87c0.41-0.31,0.8-0.62,1.19-0.93c0.77-0.63,1.53-1.26,2.27-1.89c0.36-0.31,0.77-0.65,1.08-0.89
		c0.43-0.3,0.88-0.67,1.26-1.09c0.38-0.43,0.73-0.95,0.92-1.57c0.2-0.61,0.2-1.31,0.01-1.92c-0.21-0.65-0.42-0.98-0.61-1.44
		l-0.57-1.34c-0.38-0.9-0.76-1.82-1.22-2.73c-0.23-0.45-0.47-0.91-0.81-1.35c-0.09-0.11-0.2-0.24-0.28-0.32l-0.24-0.26l-0.47-0.54
		c-0.07-0.08-0.13-0.16-0.2-0.24c1.45,0.09,2.94-0.23,4.31-0.73c1.54-0.57,2.99-1.35,4.33-2.26c0.67-0.45,1.32-0.95,1.94-1.47
		l0.46-0.4l0.22-0.2l0.04-0.03c0.27-0.09,0.62-0.2,0.93-0.3c1.5-0.48,3.01-0.96,4.5-1.54c0.74-0.29,1.47-0.62,2.2-0.96
		c0.76-0.34,1.47-0.84,2.09-1.32c1.27-0.98,2.46-2.02,3.73-3c1.25-0.98,2.54-1.96,3.63-3.15c0.55-0.59,1.04-1.23,1.51-1.9
		c0.47-0.67,0.89-1.38,1.23-2.22l0.05-0.12l0.01-0.08c0.04-0.46,0.08-0.92,0.18-1.37c0.09-0.45,0.21-0.89,0.39-1.29
		c0.18-0.4,0.4-0.79,0.72-1.1c0.15-0.15,0.33-0.28,0.52-0.39c0.23,0.02,0.45,0.03,0.68,0.04c0.88,0.49,1.86,0.7,2.81,0.86
		c0.29,0.04,0.57,0.06,0.86,0.06c0.14,0,0.3,0,0.46,0l0.44-0.03l1.7-0.11c1.13-0.07,2.26-0.14,3.38-0.17
		c0.28-0.01,0.56-0.02,0.83-0.01c0.14,0,0.27,0.01,0.38,0.03c0.16,0.04,0.38,0.05,0.53-0.02c0.33-0.12,0.54-0.35,0.73-0.58
		c0.13-0.17,0.37-0.58,0.54-0.89c0.22,0.02,0.46,0.01,0.75-0.03c0.08-0.01,0.18-0.04,0.27-0.07c0.1-0.04,0.24-0.11,0.3-0.15
		l0.21-0.15l0.17-0.15c0.22-0.2,0.39-0.41,0.54-0.62c0.3-0.42,0.54-0.84,0.75-1.27c0.22-0.44,0.39-0.86,0.54-1.43
		c0.02-0.07,0.03-0.18,0.05-0.28c0.02-0.19,0-0.39-0.08-0.59C127.79,60.54,127.72,60.47,127.64,60.33z M55.43,109.63
		c-0.22,0.47-0.42,0.94-0.62,1.41l-1.93,0.1l2.89-2.23L55.43,109.63z M106.83,41.49c-0.04-0.13-0.08-0.25-0.13-0.38
		c0.48,0.71,1,1.4,1.54,2.07c0.27,0.33,0.55,0.66,0.84,0.98c-0.53,0-1.05,0.05-1.56,0.15c-0.08-0.58-0.21-1.14-0.35-1.7
		C107.06,42.24,106.95,41.86,106.83,41.49z M3.06,75.65c-0.39-0.5-0.74-1.02-1.05-1.61c-0.3-0.59-0.5-1.25-0.55-1.92
		c-0.12-1.35,0.21-2.79,0.78-4.14c0.48-1.17,1.15-2.28,1.92-3.32c-0.33,1.22-0.61,2.46-0.82,3.71C3.09,69.83,2.9,71.3,2.9,72.82
		c0,0.38,0.02,0.76,0.07,1.15c0.05,0.39,0.12,0.78,0.32,1.18c0.39,0.72,0.86,1.28,1.34,1.86c0.13,0.16,0.26,0.31,0.39,0.46
		C4.24,76.91,3.58,76.32,3.06,75.65z M12.99,125.54l1.73,1.19h-3.94l-0.19-0.35L12.99,125.54z M32.28,122.78l1.92,1.32h-3.94
		l-0.12-0.21c0.66-0.42,1.32-0.85,1.99-1.26C32.18,122.68,32.22,122.74,32.28,122.78z M29.34,87.21c-0.28,0.34-0.58,0.66-0.88,0.98
		c-0.62,0.63-1.24,1.25-1.89,1.84c-0.64,0.59-1.3,1.19-1.96,1.68c-0.44,0.34-0.74,0.69-1.05,1.04c-0.31,0.35-0.59,0.71-0.87,1.07
		c-0.55,0.72-1.06,1.46-1.57,2.2l-0.75,1.1L20,97.65l-0.09,0.13l-0.12,0.19c-0.08,0.12-0.15,0.26-0.21,0.39
		c-0.52,1.1-0.43,2.28-0.21,3.24c0.11,0.49,0.26,0.96,0.43,1.4c0.08,0.22,0.18,0.44,0.29,0.67l0.31,0.63
		c1.63,3.21,3.45,6.24,5.21,9.34l0.66,1.15c0.22,0.38,0.47,0.81,0.73,1.18c0.52,0.76,1.06,1.48,1.63,2.17
		c1.03,1.28,2.1,2.52,3.19,3.74c-0.7,0.51-1.4,1.01-2.1,1.51c-0.38,0.22-0.55,0.22-0.65,0.09c-0.42-0.61-0.85-1.22-1.26-1.85
		c-0.53-0.79-1.05-1.58-1.55-2.39l-0.03-0.05l-0.05-0.03c-0.16-0.12-0.28-0.17-0.43-0.23c-0.15-0.05-0.3-0.08-0.45-0.09
		c-0.13-0.01-0.27,0-0.4,0.02c-0.19-0.91-0.51-1.76-0.83-2.59c-0.39-0.96-0.82-1.9-1.29-2.81c-0.95-1.83-1.97-3.58-3.32-5.25
		c-0.64-0.75-1.25-1.55-1.86-2.35l-1.85-2.39l-3.62-4.63c0.32-1.01,0.62-2.02,0.9-3.04c1.79-1.55,3.71-2.99,5.58-4.52
		c0.5-0.41,1-0.82,1.49-1.26c0.25-0.23,0.49-0.43,0.74-0.74c0.25-0.29,0.39-0.53,0.59-0.79c0.38-0.52,0.71-0.95,1.16-1.2
		c0.23-0.14,0.49-0.21,0.88-0.45c0.29-0.2,0.56-0.42,0.8-0.64c0.44-0.4,0.85-0.83,1.25-1.28c0.45,0.27,0.92,0.46,1.39,0.67
		c0.66,0.27,1.32,0.52,2,0.72c0.3,0.09,0.6,0.18,0.89,0.26C29.67,86.8,29.5,87,29.34,87.21z M67.13,89.55
		C67.13,89.55,67.13,89.55,67.13,89.55c0.46,0.4,0.91,0.79,1.44,1.17c0.06,0.05,0.15,0.11,0.2,0.14l0.14,0.11
		c0.09,0.06,0.18,0.17,0.28,0.26c0.19,0.18,0.37,0.4,0.56,0.63c0.73,0.92,1.4,2.01,2.24,3.03c0.31,0.38,0.64,0.76,1.01,1.11
		c-0.08,0.33-0.16,0.66-0.25,0.98c-0.17,0.71-0.32,1.41-0.47,2.11c-0.15,0.7-0.47,1.38-0.42,2.09c0.02,0.66,0.15,1.29,0.37,2
		c-0.53,0.49-1.07,0.97-1.62,1.44c-0.8,0.68-1.63,1.33-2.48,1.93c0.28-0.96,0.46-1.93,0.6-2.88c0.08-0.55,0.15-1.1,0.2-1.65
		c0.06-0.54,0.09-1.1,0.13-1.57l0.03-0.3L69,99.98c-0.31-0.72-0.51-1.72-0.6-2.67c-0.09-0.98-0.13-1.95-0.17-2.96
		c-0.05-1.09-0.31-2.07-0.57-3.05C67.5,90.71,67.32,90.13,67.13,89.55z M73.27,125.19c0.05,0.09,2.11,1.55,2.11,1.55h-3.94
		l-0.24-0.45c-0.06-0.1-0.07-0.16-0.14-0.27c0.37-0.15,0.64-0.25,1.01-0.39L73.27,125.19z M72.23,124.35l-0.6,0.39
		c-0.45,0.29-0.91,0.58-1.37,0.85c-0.51-0.64-0.99-1.31-1.41-2.01c-0.43-0.7-0.79-1.45-1.12-2.18c0.05-0.22,0.09-0.41,0.13-0.6
		l0.14-0.74c0.08-0.49,0.14-0.99,0.19-1.48c0.09-0.99,0.14-1.98,0.17-2.98c0.03-0.99,0.03-1.99,0-2.99
		c-0.02-0.47-0.04-0.95-0.07-1.42c0.99-0.53,1.98-1.08,2.95-1.64c-0.15,0.81-0.29,1.62-0.41,2.42c-0.21,1.48-0.39,2.96-0.52,4.44
		c-0.13,1.49-0.2,2.97-0.2,4.47l0,0.6c0.02,0.39,0.13,0.68,0.25,0.92c0.25,0.48,0.55,0.8,0.84,1.1
		C71.53,123.82,71.88,124.1,72.23,124.35z M89.3,85.19L89.3,85.19l-0.01,0C89.29,85.19,89.3,85.19,89.3,85.19
		C89.3,85.19,89.3,85.19,89.3,85.19z M125.32,63.29c-0.03,0.06-0.06,0.13-0.09,0.19c-0.09,0.16-0.18,0.32-0.27,0.43l-0.06,0.08
		c-0.02,0.02-0.03,0.03-0.05,0.05c-0.03,0.03,0.01,0,0.01,0.01c-0.01,0-0.01,0.02-0.04,0.02c-0.23,0.08-0.68,0.12-1.08,0.12
		c-0.42,0-0.85-0.02-1.28-0.04l-2.65-0.19c-0.04,0-0.08,0.02-0.1,0.05c-0.02,0.05,0,0.11,0.05,0.13c0.82,0.39,1.65,0.71,2.52,0.97
		c0.43,0.13,0.87,0.25,1.34,0.34c0.2,0.03,0.4,0.07,0.61,0.09c-0.34,0.46-0.82,1.04-1.17,1.13c-0.11,0.02-0.19,0.01-0.3-0.03
		c-0.17-0.05-0.31-0.08-0.46-0.1c-0.29-0.05-0.58-0.08-0.86-0.11c-1.14-0.1-2.27-0.14-3.4-0.19c-0.57-0.02-1.13-0.05-1.69-0.09
		l-0.41-0.04l-0.39-0.05c-0.27-0.04-0.55-0.06-0.83-0.08c-0.85-0.04-1.69-0.03-2.56,0c-0.38-0.19-0.76-0.36-1.15-0.51
		c-0.59-0.23-1.19-0.43-1.79-0.6c-0.6-0.17-1.22-0.29-1.84-0.38c-0.54-0.08-1.07-0.17-1.61-0.27c-0.41-1.15-0.82-2.29-1.29-3.42
		c-0.01-0.03-0.04-0.04-0.07-0.04c-0.04,0-0.06,0.04-0.06,0.07c0.16,1.32,0.37,2.63,0.6,3.93l0.04,0.26l0.31,0.09
		c0.6,0.17,1.2,0.35,1.8,0.54c0.6,0.19,1.2,0.36,1.82,0.47c0.4,0.07,0.81,0.13,1.21,0.18c-0.45,0.28-0.83,0.66-1.12,1.09
		c-0.6,0.85-0.9,1.82-1.11,2.79c-0.32,0.6-0.78,1.19-1.23,1.79c-0.47,0.6-0.97,1.18-1.45,1.78c-0.97,1.2-1.87,2.49-2.92,3.66
		c-1.04,1.17-2.24,2.2-3.57,3c-0.68,0.39-1.34,0.7-2.08,0.87c-0.75,0.2-1.52,0.37-2.27,0.55l-4.56,1.13
		c-0.4,0.1-0.73,0.18-1.21,0.32l-0.08,0.03l-0.04,0.01c-0.03,0.01-0.11,0.05-0.16,0.08c-0.04,0.02-0.13,0.09-0.13,0.09l-0.02,0.01
		l-0.03,0.02l-0.12,0.1l-0.22,0.19l-0.44,0.37c-0.59,0.49-1.18,0.97-1.78,1.44c-1.2,0.94-2.45,1.83-3.77,2.58
		c-1.24,0.72-2.55,1.31-3.99,1.69c-1.1-1.31-2.18-2.67-3.16-4.07l-0.01-0.01c-0.03-0.04-0.07-0.05-0.12-0.03
		c-0.05,0.02-0.07,0.08-0.05,0.13c0.42,0.92,0.95,1.75,1.46,2.59c0.52,0.84,1.05,1.67,1.62,2.49l0.45,0.61l0.24,0.3
		c0.08,0.1,0.12,0.17,0.19,0.25c0.23,0.36,0.42,0.79,0.6,1.23c0.35,0.88,0.65,1.81,0.96,2.75c0.15,0.47,0.32,0.94,0.49,1.41
		c0.16,0.46,0.4,1,0.47,1.3c0.16,0.69-0.12,1.32-0.68,1.91c-0.29,0.29-0.61,0.54-1,0.79c-0.48,0.33-0.84,0.62-1.24,0.93l-2.31,1.81
		c-0.38,0.3-0.77,0.59-1.15,0.86c-0.38,0.28-0.74,0.5-1.17,0.75l-2.52,1.48l-5.09,2.91c-0.85,0.48-1.71,0.94-2.56,1.39
		c-0.43,0.22-0.85,0.43-1.27,0.63c-0.44,0.19-0.65,0.25-1.06,0.26c-0.8-0.01-1.72-0.24-2.6-0.52c-0.68-0.22-1.36-0.49-2.02-0.78
		l0.41-1.09l0.34-0.87l0-0.01c1.18,0.31,2.35,0.64,3.58,0.94c0.17,0.04,0.31,0.07,0.52,0.1c0.21,0.03,0.43,0.01,0.62-0.03
		c0.37-0.08,0.67-0.2,0.98-0.31c0.6-0.24,1.19-0.5,1.77-0.75l0.88-0.38c0.29-0.13,0.59-0.28,0.89-0.43
		c0.57-0.32,1.11-0.67,1.64-1.03c2.1-1.48,4.02-3.16,5.97-4.8c0.48-0.41,0.98-0.81,1.47-1.21c0.5-0.39,0.96-0.8,1.49-1.08
		c0.09-0.05,0.17-0.11,0.26-0.19c0.09-0.07,0.17-0.17,0.25-0.28c0.15-0.23,0.23-0.57,0.18-0.82c-0.08-0.52-0.3-0.8-0.47-1.1
		c-0.36-0.57-0.71-1.06-1.01-1.59l-0.11-0.2l-0.29-0.1c-0.95-0.31-1.73-1.19-2.44-2.14c-0.72-0.96-1.34-2.04-2.17-3.09
		c-0.2-0.26-0.43-0.53-0.69-0.79c-0.13-0.13-0.26-0.26-0.42-0.37l-0.23-0.18l-0.19-0.13c-0.47-0.32-0.94-0.71-1.41-1.11
		c-0.94-0.8-1.86-1.65-2.8-2.47c-0.94-0.83-1.87-1.68-2.84-2.49c-0.49-0.41-0.97-0.81-1.49-1.2c-0.47-0.37-0.74-0.66-0.78-1.09
		c-0.04-0.42,0.2-0.95,0.53-1.42c0.32-0.48,0.73-0.94,1.17-1.38c0.87-0.87,1.85-1.66,2.81-2.48c0.03-0.03,0.04-0.08,0.02-0.12
		c-0.03-0.05-0.09-0.06-0.13-0.03c-1.08,0.65-2.15,1.32-3.16,2.11c-0.5,0.4-1,0.82-1.44,1.34c-0.42,0.52-0.85,1.14-0.88,1.99
		c0,0.1,0,0.21,0,0.32l0.08,0.31c0.04,0.22,0.15,0.39,0.25,0.57c0.1,0.19,0.23,0.33,0.37,0.46c0.14,0.14,0.27,0.28,0.38,0.37
		c0.46,0.4,0.91,0.83,1.36,1.26l2.7,2.62c0.69,0.67,1.39,1.34,2.12,2c-0.24-0.07-0.48-0.13-0.71-0.2c-0.8-0.24-1.6-0.5-2.41-0.75
		c-0.8-0.26-1.61-0.5-2.42-0.75c-0.82-0.23-1.63-0.47-2.5-0.66l-0.09-0.02l-0.21,0.02c-1.28,0.1-2.67,0.1-4.03,0.15l-4.15,0.09
		c-1.39,0.01-2.78,0.12-4.18,0.18c-1.4,0.07-2.79,0.06-4.18-0.05c-1.39-0.11-2.76-0.37-4.14-0.64c-1.38-0.26-2.72-0.47-4.08-0.62
		l-4.08-0.54l-2.05-0.29c-0.43-0.07-0.88-0.13-1.31-0.21c1.2-1.44,2.16-3.07,2.81-4.82c0.95-2.44,1.11-5.16,0.49-7.66
		c-0.01-0.05-0.06-0.08-0.11-0.07c-0.05,0.01-0.08,0.06-0.07,0.11c0.42,2.5,0.12,5.09-0.91,7.38c-0.5,1.14-1.13,2.23-1.89,3.22
		c-0.75,0.99-1.59,1.93-2.53,2.71c-0.24,0.19-0.47,0.37-0.71,0.52c-0.15,0.1-0.51,0.21-0.83,0.38c-0.33,0.17-0.65,0.41-0.9,0.67
		c-0.26,0.26-0.46,0.52-0.66,0.77c-0.2,0.24-0.41,0.53-0.59,0.72c-0.16,0.18-0.41,0.39-0.64,0.58c-0.48,0.39-0.98,0.78-1.49,1.16
		c-2.04,1.52-4.11,3.01-6.11,4.67c-0.5,0.42-0.99,0.85-1.47,1.33c-0.47,0.46-0.97,1.06-1.3,1.72c-0.64,1.31-0.89,2.64-1.08,3.96
		c-0.16,1.33-0.21,2.65-0.15,3.99c0.04,0.67,0.09,1.34,0.25,2.06l0.44,1.87c0.29,1.23,0.56,2.46,0.73,3.67
		c0.04,0.3,0.08,0.61,0.11,0.91l0.04,0.45l0.06,0.55c0.1,0.69,0.25,1.34,0.4,1.97c0.54,2.21,1.2,4.35,1.9,6.48l-1.95,0.7
		c-0.55-2.5-1.11-5-1.63-7.51c-0.3-1.44-0.59-2.88-0.85-4.31c-0.13-0.7-0.25-1.47-0.31-2.07l-0.01-0.2l-0.01-0.34
		c0-0.24-0.03-0.41-0.05-0.61c-0.04-0.39-0.09-0.77-0.15-1.14c-0.46-2.97-1.06-5.86-1.81-8.75c-0.2-0.72-0.39-1.44-0.63-2.17
		c-0.1-0.34-0.28-0.77-0.38-1.07c-0.1-0.28-0.18-0.57-0.2-0.85c-0.11-1.15,0.65-2.31,1.66-3.21c0.25-0.23,0.52-0.44,0.8-0.65
		l0.21-0.15c0.07-0.05,0.18-0.14,0.27-0.21c0.2-0.14,0.33-0.33,0.48-0.5c0.53-0.73,0.78-1.5,0.99-2.24c0.4-1.47,0.61-2.92,1.15-4.19
		c0.11-0.25,0.36-0.77,0.37-1.23c0.03-0.47-0.08-0.9-0.22-1.29c-0.29-0.78-0.73-1.42-1.18-2.03c-0.92-1.21-1.96-2.26-2.93-3.35
		c-0.48-0.54-0.97-1.1-1.29-1.67c-0.27-0.54-0.34-1.29-0.35-1.99c-0.02-1.44,0.15-2.9,0.38-4.34c0.23-1.44,0.54-2.88,0.92-4.29
		c0.19-0.7,0.4-1.4,0.65-2.09c0.27-0.66,0.53-1.37,0.98-1.83c2.08-2.02,4.46-3.78,6.89-5.41c2.45-1.6,5-3.06,7.65-4.26
		c2.66-1.19,5.39-2.24,8.2-2.69c2.83-0.45,5.73-0.49,8.61-0.27c2.89,0.21,5.76,0.67,8.6,1.26c1.42,0.3,2.84,0.64,4.24,1.02
		c1.41,0.37,2.78,0.82,4.22,1.24c2.85,0.81,5.7,1.52,8.53,2.3c2.83,0.76,5.66,1.55,8.4,2.53l0.07,0.03l0.06,0.01l2.01,0.23
		c0.66,0.11,1.33,0.2,1.99,0.32c1.32,0.25,2.64,0.52,3.92,0.92c1.28,0.4,2.54,0.88,3.72,1.52c0.59,0.32,2.76,1.88,5.2,3.03
		c0.64,0.3,1.37,0.42,2.11,0.47c0.74,0.05,1.53-0.04,2.28-0.37c0.39-0.18,0.68-0.38,0.98-0.58c0.3-0.21,0.59-0.42,0.87-0.65
		c1.11-0.9,2.28-1.82,3-3.13c0.35-0.65,0.67-1.34,0.81-2.11c0.07-0.39,0.1-0.78,0.05-1.19c-0.01-0.18-0.08-0.37-0.13-0.54
		c0.54,0.48,1.06,0.99,1.58,1.51c0.03,0.03,0.08,0.04,0.11,0.02c0.05-0.02,0.06-0.08,0.04-0.13c-0.5-0.95-1.08-1.84-1.79-2.67
		c-0.36-0.41-0.74-0.82-1.28-1.16c-0.59-0.33-1.12-0.47-1.64-0.62l-3.04-0.75c-0.98-0.26-1.93-0.56-2.82-0.94
		c-0.45-0.19-0.88-0.4-1.28-0.63c-0.44-0.24-0.72-0.44-1.06-0.77c-0.65-0.62-1.24-1.43-1.77-2.27c-1.06-1.7-1.9-3.58-2.64-5.48
		c-0.34-0.94-0.69-1.96-0.71-2.87c0.01-0.1,0.02-0.2,0.03-0.26c0.02-0.02,0.01-0.06,0.08-0.1c0.12-0.08,0.37-0.11,0.6-0.11
		c0.48-0.01,0.99,0.08,1.49,0.2c2.01,0.47,3.9,1.42,5.69,2.46l1.33,0.79c0.23,0.13,0.39,0.27,0.57,0.4c0.18,0.13,0.36,0.3,0.54,0.45
		c0.71,0.66,1.42,1.4,2.11,2.15c1.37,1.52,2.72,3.12,4.06,4.7l0.17,0.2l0.17,0.01c0.55,0.04,1.1,0.06,1.65,0.08l0.83,0.01
		c0.28,0,0.55,0,0.84-0.03c0.04,0,0.08-0.03,0.09-0.07c0.01-0.05-0.02-0.1-0.07-0.11l-0.02,0c-0.25-0.06-0.52-0.15-0.78-0.22
		l-0.79-0.22c-0.21-0.05-0.41-0.11-0.62-0.16c0.64-0.61,1.55-1.08,2.7-1.42c0.24,0.38,0.49,0.75,0.78,1.11
		c0.01,0.02,0.04,0.03,0.06,0.02c0.04-0.01,0.06-0.04,0.05-0.08c-0.09-0.48-0.22-0.95-0.36-1.41c-0.12-0.32-0.22-0.64-0.28-0.86
		c-0.06-0.19-0.13-0.37-0.2-0.56c-0.34-0.92-0.71-1.82-1.16-2.69c-0.38-0.71-0.83-1.39-1.24-2.09c0.58,0.79,1.15,1.58,1.77,2.33
		c1.36,1.61,2.8,3.16,4.45,4.53c0.02,0.02,0.05,0.02,0.07,0.01c0.03-0.02,0.04-0.06,0.03-0.09c-0.22-0.41-0.44-0.81-0.68-1.21
		c1.28,0.41,2.51,0.64,3.64,0.98c0.3,0.09,0.56,0.17,0.84,0.28c0.29,0.11,0.59,0.23,0.88,0.35c0.59,0.24,1.18,0.52,1.77,0.81
		c1.17,0.59,2.27,1.38,3.12,2.39c0.84,1.02,1.44,2.24,1.7,3.5l0,0.01l0.04,0.09c0.75,1.66,1.74,3.25,3.12,4.55
		c0.34,0.33,0.7,0.64,1.1,0.94c0.2,0.15,0.41,0.29,0.64,0.42c0.11,0.07,0.25,0.13,0.38,0.19l0.24,0.09
		c0.05,0.02,0.06,0.02,0.06,0.03l0.02,0.01c0.16,0.08,0.5,0.35,0.77,0.6c0.21,0.19,0.42,0.4,0.62,0.62
		c-0.04,0.43,0.06,1.12-0.81,1.12C123.55,61.94,124.61,62.96,125.32,63.29z M73.78,99.23c-0.01-0.73-0.04-1.45-0.1-2.18l-0.05-0.54
		c0.43,0.31,0.92,0.58,1.46,0.75c0.33,0.47,0.69,0.92,1,1.33c0.17,0.23,0.33,0.49,0.35,0.6c0.02,0.07,0.01,0.05,0.01,0.09
		c-0.02,0.03-0.07,0.11-0.17,0.17c-0.57,0.37-1.03,0.85-1.5,1.28l-1.24,1.19c0.07-0.17,0.13-0.34,0.18-0.51
		C73.96,100.71,73.79,99.96,73.78,99.23z"/>
	<path class="st2" d="M111.76,52.51c-0.31-0.53-0.88-0.89-1.53-0.89c-0.98,0-1.78,0.8-1.78,1.79c0,0.99,0.8,1.79,1.78,1.79
		c0.79,0,1.45-0.52,1.69-1.23c0.65,0.32,1.41,0.87,1.95,1.35C113.72,53.86,112.53,52.95,111.76,52.51z"/>
</g>
</svg>
