<?xml version="1.0" encoding="utf-8"?>
<!-- Generator: Adobe Illustrator 24.1.2, SVG Export Plug-In . SVG Version: 6.00 Build 0)  -->
<svg version="1.1" id="Layer_1" xmlns="http://www.w3.org/2000/svg" xmlns:xlink="http://www.w3.org/1999/xlink" x="0px" y="0px"
	 viewBox="0 0 128 128" style="enable-background:new 0 0 128 128;" xml:space="preserve">
<style type="text/css">
	.st0{fill:#474544;}
	.st1{fill:#FF525C;}
	.st2{fill:#515150;}
	.st3{fill:#EFE9DF;}
	.st4{fill:#2D2D2D;}
</style>
<g>
	<path class="st0" d="M3,114.9C3,114.9,3,114.9,3,114.9C3,114.9,3,114.9,3,114.9C3,114.9,3,114.9,3,114.9C3,114.9,3,114.9,3,114.9z"
		/>
	<g>
		<path class="st1" d="M99.2,125.8c0-0.2,0-0.4-0.1-0.6c-2.6-0.4-5.2-1-7.8-1.6c-1.4-0.4-2.8-0.8-4.1-1.3c-1.3-0.5-2.5-1.1-3.8-1.8
			c-2.4-0.2-4.9-0.2-7.3-0.3l-6-0.1c-0.2,0.2-0.5,0.3-0.7,0.5c-0.1,0.1-0.1,0.2-0.2,0.2c-0.2,0.1-0.3,0.2-0.5,0.4
			c-0.3,0.1-0.5,0.3-0.8,0.4c-0.5,0.2-0.9,0.3-1.3,0.4l-2.3,0.6c-0.7,0.2-1.4,0.4-2.1,0.7c-0.6,0.2-1.2,0.6-1.4,0.8l0,0
			c0.2,0.2,0.4,0.4,0.6,0.5c0.7,0.4,1.5,0.3,2.3,0.1c0.8-0.2,1.6-0.5,2.4-0.8c0.8-0.3,1.7-0.6,2.5-0.9c1.7-0.5,3.5-0.9,5.3-1.1
			c1.8-0.2,3.6-0.3,5.5,0c0.9,0.2,1.9,0.5,2.7,0.9l2.4,1.1c1.6,0.7,3.2,1.4,4.9,1.9c1.7,0.5,3.4,0.9,5.1,1.1
			c1.5,0.1,3.1,0.1,4.5-0.3c0,0,0-0.1,0-0.1L99.2,125.8z"/>
		<path class="st1" d="M74.6,117c-1.1,0.8-2.2,1.6-3.3,2.4c0.4-0.1,0.7-0.1,1.1-0.2c1.3-0.2,2.5-0.3,3.8-0.4
			c2.6-0.3,5.1-0.4,7.7-0.3l0.2,0l0.2,0.1c1.1,0.7,2.4,1.2,3.7,1.6c1.3,0.5,2.6,0.9,3.9,1.3c2.4,0.7,4.8,1.3,7.3,1.9
			c0-0.2,0-0.4,0-0.5c0-0.4-0.1-0.8-0.1-1.1c-2.8-0.4-5.5-0.9-8.2-1.6c-1.4-0.3-2.8-0.7-4.1-1.2c-1.3-0.4-2.5-0.9-3.8-1.6
			c-0.8,0-1.7,0-2.5,0c-0.9,0-1.8-0.1-2.7-0.1c-0.9-0.1-1.8-0.2-2.7-0.3C74.9,117,74.7,117,74.6,117z"/>
		<path class="st2" d="M33.5,87.8c1.5-2.5,3-5,4.8-7.5c0.1-2.7,0.6-5.3,1.5-7.8c-0.8,1.2-1.5,2.3-2.3,3.5c-1.6,2.7-3.2,5.4-4.6,8.1
			c-1.4,2.8-2.6,5.6-3.7,8.5c-0.5,1.4-1,2.9-1.4,4.4c0.3-0.5,0.6-1,0.9-1.5L33.5,87.8z"/>
		<path class="st0" d="M112.3,10.4C112.3,10.4,112.3,10.4,112.3,10.4C112.3,10.3,112.3,10.3,112.3,10.4z"/>
		<path class="st0" d="M52.6,108.8c3.4-1.9,6.8-3.9,10.2-6c-0.3,0-0.6,0.1-0.8,0.1c-1,0.1-2,0-3-0.1c-0.9-0.1-1.8-0.4-2.6-0.7
			c-0.8,0.3-1.5,0.4-2.3,0.4c-0.9,0-1.8-0.1-2.6-0.3c-0.8-0.2-1.7-0.3-2.5-0.5c-0.7-0.2-1.4-0.3-2.2-0.6c-0.7,0.3-1.5,0.6-2.3,0.7
			c-0.8,0.1-1.7,0.1-2.5-0.1c-0.8-0.1-1.6-0.3-2.4-0.6c-0.7-0.3-1.4-0.6-2-1.1l-0.1,0.5c-0.2,0.4-0.4,0.9-0.6,1.2l-0.7,0.9
			c-0.5,0.6-0.9,1.1-1.4,1.7c-0.9,1-1.9,2.1-2.9,3c-2,2-4,3.8-6.1,5.7c-2.1,1.8-4.2,3.6-6.3,5.4c-1.5,1.2-3,2.4-4.6,3.5
			c1.5,0,3-0.1,4.4-0.3c2.3-0.3,4.7-0.8,7-1.4c4.6-1.2,9.1-2.9,13.5-4.8C44.2,113.3,48.4,111.1,52.6,108.8z"/>
		<path class="st0" d="M123.4,12.9c-1.1-0.5-2.3-0.8-3.5-1.1c-2-0.4-4-0.4-6-0.8c-0.1,0.2-0.2,0.4-0.3,0.5c-0.5,0.5-0.9,0.7-1.3,0.9
			c-0.8,0.4-1.6,0.6-2.4,0.7c-0.5,0.1-1,0.2-1.5,0.3c2.4-0.2,4.9-0.3,7.3-0.3c1.7,0,3.3-0.1,5,0.1c0.8,0.1,1.7,0.2,2.5,0.4
			c0.7,0.2,1.4,0.4,2,0.7l0.1,0c-0.1-0.2-0.2-0.3-0.4-0.5C124.5,13.5,124,13.1,123.4,12.9z"/>
		<polygon class="st0" points="108.3,15.4 108.3,15.4 108.3,15.4 		"/>
		<path class="st3" d="M44.4,87.5C44.4,87.5,44.4,87.5,44.4,87.5C44.5,87.5,44.5,87.5,44.4,87.5c0.1,0.1,0.1,0.2,0.2,0.2l0.2,0.2
			c0.7,0.6,1.8,1,2.8,1.4c2.1,0.7,4.3,1.2,6.6,1.6c4.5,0.8,9.1,1.3,13.6,1c2.3-0.2,4.6-0.4,6.8-0.8c1.6-0.3,3.2-0.6,4.8-1.1
			c2.3-2.2,4.5-4.5,6.2-7.1c1.2-1.9,2.1-4,2.8-6.2c0.6-2,1-4.1,1.4-6.3c-0.1-0.5-0.2-1.1-0.5-1.5c-0.3-0.7-0.9-1.2-1.6-1.4
			c-0.7-0.3-1.4-0.2-2,0.1c-0.3,0.1-0.6,0.3-0.8,0.5c-0.2,0.2-0.6,0.7-0.9,0.9c-0.8,0.6-1.6,0.9-2.4,1.2l-2.4,0.9
			c-1.6,0.6-3,1.2-4.4,2.1c-3.2,1.7-6.6,2.2-9.9,2.8c-3.3,0.5-6.6,0.9-9.9,1.6c-1.9,1.2-3.8,2.5-5.7,3.8c-1,0.6-1.9,1.3-2.7,2
			c-0.8,0.7-1.5,1.6-1.9,2.4c-0.2,0.4-0.3,0.9-0.3,1.4C44.4,87.3,44.4,87.5,44.4,87.5z"/>
		<path class="st0" d="M115.7,13.8c-3.3-0.1-6.6-0.2-10-0.2c0,0-0.1,0-0.1,0c0,0,0,0,0,0c-0.2,0-0.4,0-0.7,0c-0.1,0-0.1,0-0.1-0.1
			c0,0,0-0.1,0.1-0.1c1.5-0.6,3-1.1,4.5-1.6c0.7-0.3,1.5-0.6,2.1-0.9c0.2-0.1,0.4-0.3,0.6-0.4l-2-2.1l0.7,0.2
			c-0.4-0.3-0.7-0.6-1.1-0.9c-0.7-0.6-1.5-1.2-2.3-1.7c-1.5-1-3.3-1.8-5.1-2.5c-1.8-0.6-3.6-1.1-5.5-1.3c-0.9-0.1-1.8-0.1-2.7,0
			c-0.4,0-0.9,0.1-1.3,0.2l-0.6,0.2l-0.7,0.2C90,3.4,88.4,4.2,87,5.3c-1.4,1.1-2.5,2.5-3.4,4c-0.9,1.5-1.4,3.3-1.8,5
			c-0.4,1.8-0.5,3.6-0.6,5.4l0,0.1c-0.1,0.9,0,2,0.1,3c0.1,1.1,0.2,2.2,0.3,3.3c0,0.1,0,0.2,0,0.2c0,0.1,0.1,0.1,0.1,0.2
			c0.4,0.7,0.8,1.3,1.2,1.9c0.8,1.2,1.2,2.7,2,3.9c0.8,1.2,1.8,2.4,3,3.4c1.1,1.1,2.4,2,3.8,2.8l0,0c0.1,0,0.1,0.1,0.1,0.2
			c0,0.1-0.1,0.1-0.2,0.1c-1.6-0.4-3.2-1-4.6-1.8l-1.1-0.7l-1-0.7c-0.6-0.5-1.3-1.1-1.9-1.7c-0.3-0.3-0.6-0.6-0.9-0.9
			c-0.3-0.3-0.6-0.6-0.8-1c0,0-0.1-0.1-0.1-0.1c-0.2,0.5-0.4,1-0.7,1.4c-0.3,0.7-0.7,1.2-1.1,1.8c-0.4,0.6-0.9,1.1-1.4,1.6
			c-1,1-2.1,1.9-3.2,2.7c-1.1,0.8-2.3,1.5-3.5,2.2c-0.6,0.3-1.2,0.6-1.8,0.9c-0.6,0.3-1.1,0.7-1.7,1c-4.5,2.9-8.8,6.3-12.6,10.1
			c-3.8,3.8-7.2,8-9.7,12.6c-2.6,4.5-4.3,9.6-4.3,14.6l0,0.4l-0.3,0.4c-1.7,2.4-3.2,5.1-4.7,7.7c-1.5,2.7-3,5.3-4.6,7.9
			c-1.6,2.6-3.3,5.2-5.3,7.7c-1,1.2-2,2.4-3.2,3.6c-1.2,1.1-2.5,2.2-4.3,2.9c-1,0.3-1.7,0.4-2.5,0.6l-2.3,0.4l-4.5,0.8
			c-1.5,0.3-3,0.6-4.4,1c-0.7,0.2-1.4,0.5-1.8,0.8c0,0,0,0,0,0c0,0,0,0,0,0c0.5,0.3,1.2,0.5,1.9,0.6c0.7,0.1,1.5,0.2,2.2,0.3
			c1.5,0.1,3,0.2,4.6,0.2c1.5,0,3.1-0.1,4.6-0.2c0.8-0.1,1.7-0.2,2.5-0.4c1.7-1.5,3.4-3,5-4.6c2-1.9,3.9-3.8,5.8-5.7
			c0.9-1,1.9-2,2.7-3c0.4-0.5,0.8-1,1.2-1.5l0.5-0.7c0.1-0.2,0.2-0.3,0.3-0.5l0-0.3c0-0.3,0-0.5,0.1-0.7l0.3-1.3
			c0.2-0.8,0.4-1.6,0.7-2.4c0.5-1.5,1-3.1,1.6-4.5c1.2-3,2.5-5.9,3.9-8.7c1.4-2.8,3-5.7,4.7-8.4c0.9-1.4,1.8-2.7,2.8-4
			c0.5-0.6,1-1.3,1.6-1.9c0.3-0.3,0.6-0.6,0.9-0.9l1-0.8c2.6-2.1,5.5-3.7,8.3-5.2c2.9-1.5,5.8-2.8,8.8-4c3-1.2,6-2.4,9.1-3.3
			c3.1-1,6.2-1.9,9.4-2.4c0.1,0,0.2,0,0.2,0.1c0,0.1,0,0.1-0.1,0.2l0,0c-3.1,0.8-6.1,2-9,3.2c-2.9,1.2-5.9,2.5-8.7,3.9
			c-2.9,1.4-5.7,2.9-8.4,4.4c-2.7,1.6-5.4,3.3-7.7,5.2c-2.2,1.9-3.8,4.6-5.4,7.2c-1.6,2.7-3,5.4-4.4,8.2c-1.4,2.8-2.7,5.6-3.9,8.5
			c-0.6,1.4-1.2,2.9-1.7,4.3c-0.3,0.7-0.5,1.4-0.7,2.2l-0.2,1c-0.1,0.2,0,0.3-0.1,0.4c0,0.1,0,0.1,0,0.2l2.2,0.2
			c0.8,0.1,1.5,0.1,2.3,0.1c0.7,0,1.5,0,2.2,0c0.7,0,1.5,0,2.2-0.1l0.4,0l0.1,0.1c0.5,0.5,1.3,0.9,2.1,1.1c0.8,0.2,1.6,0.3,2.4,0.3
			c0.8,0,1.6-0.2,2.4-0.4c0.7-0.2,1.5-0.4,2.1-0.8l0.3-0.2l0.5,0.1c0.8,0.2,1.7,0.4,2.6,0.5c0.9,0.1,1.8,0.2,2.7,0.3
			c1.2,0.1,2.5,0.1,3.7,0c3.6-2.4,7.2-5.1,10.6-7.9c0.7-0.6,1.5-1.3,2.2-1.9c0,0,0,0-0.1,0c-1.1,0.4-2.2,0.8-3.4,1.1
			c-2.3,0.6-4.6,1.1-6.9,1.4c-2.4,0.3-4.8,0.4-7.1,0.2c-2.4-0.1-4.7-0.4-7-0.8c-2.3-0.4-4.6-1.1-6.9-1.9c-1.1-0.5-2.2-0.9-3.3-1.8
			c-0.1-0.1-0.3-0.3-0.4-0.4c-0.1-0.2-0.3-0.3-0.4-0.5c-0.1-0.1-0.1-0.2-0.1-0.3c0-0.1-0.1-0.3-0.1-0.4c0-0.3,0-0.4,0-0.6
			c0.1-0.7,0.2-1.3,0.5-1.9c0.6-1.2,1.5-2.1,2.5-2.8c1-0.7,2-1.3,3-1.9c2-1.1,4-2.3,6-3.5l0.1,0l0.1,0c3.3-0.6,6.6-1.2,9.9-2.1
			c3.2-0.9,6.5-1.8,9.2-3.3c1.4-0.9,3.1-1.6,4.7-2.1c1.6-0.5,3.3-0.9,4.5-1.7c0.3-0.2,0.5-0.4,0.9-0.8c0.4-0.3,0.8-0.6,1.3-0.7
			c0.9-0.3,2-0.3,2.9,0.2c0.9,0.4,1.5,1.2,1.8,2.1c0.1,0.2,0.1,0.5,0.2,0.7c0-0.1,0.1-0.3,0.1-0.4c0.1-0.3,0.3-0.7,0.4-0.9
			c0.3-0.5,0.5-1,0.7-1.6c0.5-1.1,0.8-2.2,1.1-3.3c0.3-1.1,0.5-2.3,0.6-3.4c0-0.6,0-1.1-0.1-1.7c-0.1-0.5-0.3-1.1-0.7-1.4l0,0
			c-0.1,0-0.1-0.1,0-0.2c0-0.1,0.1-0.1,0.2,0c0.6,0.3,0.9,1,1.1,1.5c0.2,0.6,0.3,1.2,0.3,1.8c0,1.2-0.1,2.4-0.3,3.6
			c-0.2,1.2-0.5,2.4-0.9,3.5c-0.2,0.6-0.4,1.1-0.6,1.7c-0.1,0.3-0.2,0.5-0.3,0.7c-0.1,0.3-0.1,0.5-0.2,0.8c-0.3,2.2-0.6,4.7-1.2,7
			c-0.6,2.4-1.5,4.7-2.7,6.9c-2.6,4.3-6.1,7.7-9.8,10.8c-3.7,3.2-7.6,6-11.8,8.5c-8.4,4.8-17.1,8.8-26,12.6
			c-1.9,0.8-3.9,1.6-5.8,2.3c1.2,0.2,2.3,0.2,3.5,0.3c1.5,0,2.9-0.1,4.4-0.2c1.5-0.1,2.9-0.3,4.4-0.6c1.4-0.3,2.9-0.6,4.1-1l0.1,0
			c0.4-0.2,0.8-0.5,1.2-0.7c1.1-0.7,2.4-1.2,3.5-1.8c2.3-1.3,4.5-2.9,6.7-4.6c0,0,0.1,0,0.1,0c0,0,0,0.1,0,0.1
			c-0.9,1.1-1.8,2.1-2.8,3.1c-1,1-2,1.9-3.1,2.7c-1,0.7-1.9,1.5-3,2.1c1,0.4,2,0.8,3,1.3c1.2,0.6,2.4,1.5,3.5,2.4
			c0.4-0.3,0.9-0.5,1.3-0.7c0.8-0.4,1.6-0.6,2.4-0.9l2.2-0.7c0.4-0.1,0.7-0.2,1-0.3c0.1-0.1,0.2-0.1,0.3-0.2c0,0,0,0,0,0
			c-0.1,0-0.2,0.2-0.2,0.3l0.6-0.8c2.1-1.4,4.2-3,6.3-4.6c1-0.8,2-1.6,3-2.5c1-0.8,2-1.7,2.9-2.5c3.9-3.4,7.5-7.2,10.9-11.1
			c3.3-4,6.5-8.1,8.8-12.6c2.3-4.6,3.7-9.7,4.3-14.8c0.7-5.1,0.5-10.3,0.4-15.5c0-2.5-0.4-5.1-0.6-7.7l-0.8-7.7l-0.2-1.9l-0.1-0.5
			c0-0.1,0-0.2-0.1-0.4c0-0.2-0.1-0.6-0.2-0.9c-0.3-1.2-0.8-2.4-1.1-3.7c-0.4-1.3-0.8-2.5-1-3.9c-0.3-1.3-0.5-2.7-0.3-4.2
			c0.1-0.8,0.4-1.5,0.9-2.2c0.4-0.7,1-1.2,1.5-1.6c1.1-0.9,2.4-1.5,3.6-2.1c1.4-0.5,2.8-1,4.2-1.3c-0.4-0.1-0.8-0.2-1.2-0.4
			l-0.5-0.7c0.1,0.1,0,0.1,0,0c0-0.1-0.1-0.2-0.2-0.3c-0.2-0.2-0.5-0.3-0.8-0.5c-0.6-0.3-1.3-0.5-2-0.8c-0.1,0-0.1-0.1-0.1-0.1
			c0,0,0.1-0.1,0.1-0.1c0.7,0,1.5,0,2.2,0.2c0.4,0.1,0.7,0.2,1.1,0.4c0.2,0.1,0.4,0.2,0.6,0.4c0.1,0.1,0.1,0.2,0.2,0.3
			c1.2,0.2,2.5,0.2,3.8,0.2c1.4,0,2.8-0.1,4.2-0.2c1.4-0.1,2.8-0.2,4.3-0.3l2.4-0.2c-1.2-0.1-2.4-0.2-3.6-0.2
			C119,14.1,117.4,13.9,115.7,13.8z M95,11.3c-1.4,0-2.5-1.6-2.5-1.6S93.6,8,94.9,8c1.4,0,2.5,0.7,2.5,1.6S96.3,11.3,95,11.3z"/>
		<path class="st4" d="M94.9,8c-1.4,0-2.4,1.7-2.4,1.7s1.1,1.6,2.5,1.6c1.4,0,2.4-0.8,2.4-1.7S96.3,7.9,94.9,8z"/>
		<path class="st4" d="M125.5,13c-0.6-0.4-1.2-0.6-1.8-0.8c-1.2-0.4-2.4-0.7-3.6-1.1c-1.2-0.3-2.4-0.8-3.5-1.1
			c-1.2-0.4-2.4-0.7-3.5-1l-1.4-0.3c-1-1.3-2.3-2.5-3.5-3.6c-1.6-1.3-3.3-2.3-5.1-3.1c-1.8-0.8-3.7-1.5-5.8-1.8
			c-1-0.1-2.1-0.3-3.1-0.2c-0.5,0-1.1,0.1-1.6,0.2l-0.8,0.2c-0.3,0.1-0.5,0.2-0.7,0.2c-1.9,0.6-3.8,1.5-5.5,2.7
			c-1.7,1.2-3.1,2.9-4.1,4.7c-2.1,3.6-2.7,7.7-2.7,11.7l0-0.1c-0.1,1.3,0.1,2.5,0.2,3.6l0.5,3.3c0.1,1.1,0.3,2.1,0.2,3.2
			c0,1-0.2,2-0.6,2.7l-0.1,0.2l0,0.1c-0.1,0.4-0.5,1.1-0.8,1.6c-0.4,0.5-0.7,1-1.2,1.5c-0.8,1-1.8,1.9-2.8,2.7
			c-1,0.8-2.2,1.6-3.3,2.3c-0.6,0.3-1.2,0.7-1.8,1c-0.6,0.4-1.2,0.7-1.8,1.1c-4.5,3-8.8,6.4-12.9,10c-4,3.7-7.8,7.7-10.8,12.3
			c-0.9,1.4-1.6,2.8-2.3,4.3c-2,1.6-3.9,3.4-5.5,5.4c-2.1,2.5-3.9,5.3-5.4,8.2c-1.4,2.9-2.5,6-3.2,9.2c-0.5,2.4-0.7,4.9-0.7,7.3
			c-0.8,1.2-1.7,2.5-2.6,3.7c-0.9,1.2-1.8,2.3-2.8,3.3c-1,1-2.1,1.9-3.2,2.4c-0.5,0.2-1.3,0.4-2,0.6l-2.2,0.5c-1.5,0.3-3,0.6-4.6,1
			c-1.5,0.4-3.1,0.8-4.6,1.3c-0.8,0.3-1.5,0.6-2.4,1.2c-0.2,0.2-0.4,0.4-0.6,0.6c-0.2,0.3-0.4,0.7-0.3,1.2c0,0.2,0.1,0.5,0.2,0.7
			c0.1,0.1,0.1,0.2,0.2,0.3l0.2,0.2c0.1,0.1,0.3,0.2,0.4,0.3c0.1,0.1,0.2,0.1,0.4,0.2c0.9,0.4,1.7,0.5,2.5,0.6
			c0.8,0.1,1.6,0.1,2.4,0.2c1.6,0,3.2,0,4.7-0.2c1.6-0.1,3.1-0.4,4.7-0.7c0.5-0.1,0.9-0.2,1.4-0.3c0,0-0.1,0.1-0.1,0.1
			c-2,1.8-4.1,3.6-6.2,5.2l-2,1.5l2.5,0.1c5,0.2,9.8-0.9,14.5-2.3c2.4-0.7,4.8-1.6,7.1-2.4c1.3,0.5,2.7,0.7,4.1,0.9
			c1.5,0.2,3,0.3,4.5,0.3c1.5,0,3-0.1,4.5-0.2c1.4-0.1,2.7-0.3,4.1-0.6c1.5,0.7,3,1.3,4.3,2.1c1.4,0.8,2.6,1.8,3.6,3.1l1.1,1.3
			l0.8-1c0.2,0.2,0.3,0.4,0.6,0.6c0.8,0.6,1.9,0.6,2.8,0.6c0.9-0.1,1.8-0.3,2.7-0.6c0.8-0.2,1.7-0.5,2.5-0.6c3.4-0.7,6.9-1.2,10.2-1
			c0.8,0.1,1.5,0.2,2.4,0.5l2.5,0.8c1.7,0.5,3.4,1.1,5.1,1.6c1.7,0.5,3.4,1,5.2,1.3c1.8,0.3,3.6,0.5,5.5,0.1l0.4-0.1l0.1-0.5
			c0.1-0.3,0.1-0.5,0.1-0.8l0-0.7c0-0.5,0-0.9,0-1.4l0-0.6l-0.7-0.2c-0.2,0-0.4-0.1-0.6-0.1c0-0.2,0-0.4,0-0.6c0-0.5,0-0.9,0-1.4
			l0-0.2l-0.2,0c-2.7-0.6-5.5-1.4-8.1-2.2c-1.3-0.4-2.7-0.9-3.9-1.4c-1.3-0.5-2.5-1.1-3.6-1.8l-0.2-0.1l-0.3,0
			c-0.9-0.1-1.8-0.2-2.7-0.3c-0.9,0-1.8,0-2.7,0.1c-0.5,0-0.9,0.1-1.4,0.1c1.9-1.5,3.7-3.1,5.5-4.8c1.9-1.8,3.8-3.7,5.6-5.7
			c1.8-1.9,3.5-4,5.1-6.1c3.2-4.2,6.1-8.7,8.2-13.6c2-4.9,3.2-10.1,3.9-15.2c0.8-5.2,1.2-10.4,1.5-15.6c0.3-5.3-0.1-10.5-0.7-15.7
			l-0.3-1.9l-0.1-0.5c0-0.2-0.1-0.4-0.1-0.6c-0.1-0.4-0.2-0.7-0.3-1c-0.4-1.3-0.8-2.5-1.3-3.7c-0.4-1.2-0.8-2.4-1.2-3.6
			c-0.3-1.2-0.6-2.4-0.5-3.5c0.1-2,2.4-3.7,4.6-4.9c1.6-0.9,3.3-1.6,5.1-2.2c0.6,0.1,1.1,0.1,1.7,0.2c1.5,0.1,3,0.1,4.4,0
			c1.5-0.1,2.9-0.3,4.4-0.6c1.5-0.2,2.9-0.5,4.3-1l0.6-0.2l-0.1-0.5C126.7,13.9,126.1,13.3,125.5,13z M112.3,10.4
			C112.3,10.4,112.3,10.4,112.3,10.4C112.3,10.3,112.3,10.3,112.3,10.4z M29.3,92.7c1.1-2.9,2.3-5.8,3.7-8.5
			c1.4-2.8,2.9-5.5,4.6-8.1c0.7-1.2,1.5-2.3,2.3-3.5c-0.9,2.5-1.4,5.1-1.5,7.8c-1.8,2.5-3.3,5-4.8,7.5l-4.7,7.8
			c-0.3,0.5-0.6,1-0.9,1.5C28.3,95.6,28.7,94.1,29.3,92.7z M3,114.9C3,114.9,3,114.9,3,114.9C3,114.9,3,114.9,3,114.9
			C3,114.9,3,114.9,3,114.9C3,114.9,3,114.9,3,114.9z M26.3,120c-2.3,0.6-4.6,1.1-7,1.4c-1.5,0.2-3,0.3-4.4,0.3
			c1.6-1.1,3.1-2.3,4.6-3.5c2.1-1.7,4.3-3.5,6.3-5.4c2.1-1.8,4.1-3.7,6.1-5.7c1-1,2-2,2.9-3c0.5-0.5,0.9-1.1,1.4-1.7l0.7-0.9
			c0.2-0.4,0.4-0.8,0.6-1.2l0.1-0.5c0.6,0.5,1.3,0.8,2,1.1c0.8,0.3,1.6,0.5,2.4,0.6c0.8,0.1,1.7,0.2,2.5,0.1
			c0.8-0.1,1.6-0.4,2.3-0.7c0.8,0.3,1.5,0.4,2.2,0.6c0.8,0.2,1.7,0.4,2.5,0.5c0.8,0.2,1.7,0.3,2.6,0.3c0.8,0,1.5-0.1,2.3-0.4
			c0.9,0.4,1.8,0.6,2.6,0.7c1,0.2,2,0.2,3,0.1c0.3,0,0.6,0,0.8-0.1c-3.3,2.1-6.7,4.1-10.2,6c-4.2,2.3-8.4,4.5-12.8,6.4
			C35.4,117.1,30.9,118.7,26.3,120z M94.7,126.8c-1.7-0.1-3.4-0.6-5.1-1.1c-1.7-0.5-3.3-1.2-4.9-1.9l-2.4-1.1
			c-0.8-0.4-1.7-0.8-2.7-0.9c-1.9-0.3-3.7-0.2-5.5,0c-1.8,0.2-3.6,0.6-5.3,1.1c-0.9,0.3-1.7,0.6-2.5,0.9c-0.8,0.3-1.6,0.6-2.4,0.8
			c-0.8,0.2-1.6,0.3-2.3-0.1c-0.2-0.1-0.4-0.3-0.6-0.5l0,0c0.2-0.2,0.8-0.6,1.4-0.8c0.6-0.3,1.4-0.5,2.1-0.7l2.3-0.6
			c0.4-0.1,0.8-0.2,1.3-0.4c0.2-0.1,0.5-0.2,0.8-0.4c0.2-0.1,0.3-0.2,0.5-0.4c0.1-0.1,0.1-0.1,0.2-0.2c0.2-0.2,0.5-0.3,0.7-0.5
			l6,0.1c2.5,0.1,4.9,0.1,7.3,0.3c1.2,0.7,2.5,1.3,3.8,1.8c1.4,0.5,2.7,1,4.1,1.3c2.6,0.7,5.1,1.2,7.8,1.6c0,0.2,0,0.4,0.1,0.6
			l0,0.6c0,0,0,0.1,0,0.1C97.8,126.9,96.3,127,94.7,126.8z M77.8,117.3c0.9,0.1,1.8,0.1,2.7,0.1c0.8,0,1.7,0,2.5,0
			c1.2,0.7,2.5,1.1,3.8,1.6c1.4,0.5,2.7,0.8,4.1,1.2c2.7,0.7,5.4,1.2,8.2,1.6c0,0.4,0.1,0.8,0.1,1.1c0,0.2,0,0.4,0,0.5
			c-2.4-0.6-4.9-1.2-7.3-1.9c-1.3-0.4-2.7-0.8-3.9-1.3c-1.3-0.5-2.6-1-3.7-1.6l-0.2-0.1l-0.2,0c-2.6-0.1-5.2,0.1-7.7,0.3
			c-1.3,0.1-2.5,0.3-3.8,0.4c-0.4,0.1-0.7,0.1-1.1,0.2c1.1-0.8,2.2-1.6,3.3-2.4c0.2,0,0.3,0,0.5,0.1C76,117.2,76.9,117.3,77.8,117.3
			z M121.8,14.6c-1.4,0.1-2.9,0.2-4.3,0.3c-1.4,0.1-2.8,0.2-4.2,0.2c-1.3,0-2.6,0-3.8-0.2c-0.1-0.1-0.1-0.2-0.2-0.3
			c-0.2-0.2-0.4-0.3-0.6-0.4c-0.4-0.2-0.8-0.3-1.1-0.4c-0.7-0.1-1.5-0.2-2.2-0.2c0,0-0.1,0-0.1,0.1c0,0.1,0,0.1,0.1,0.1
			c0.7,0.2,1.4,0.5,2,0.8c0.3,0.2,0.6,0.3,0.8,0.5c0.1,0.1,0.2,0.2,0.2,0.3l0,0c0,0,0,0,0,0c0,0,0,0,0,0l0.5,0.7
			c0.4,0.2,0.8,0.3,1.2,0.4c-1.4,0.4-2.8,0.8-4.2,1.3c-1.3,0.5-2.5,1.1-3.6,2.1c-0.6,0.5-1.1,1-1.5,1.6c-0.4,0.6-0.7,1.4-0.9,2.2
			c-0.2,1.5,0,2.9,0.3,4.2c0.3,1.3,0.7,2.6,1,3.9c0.4,1.3,0.8,2.5,1.1,3.7c0.1,0.3,0.2,0.6,0.2,0.9c0,0.1,0.1,0.3,0.1,0.4l0.1,0.5
			l0.2,1.9l0.8,7.7c0.2,2.6,0.5,5.1,0.6,7.7c0.1,5.2,0.3,10.4-0.4,15.5c-0.7,5.1-2,10.2-4.3,14.8c-2.3,4.6-5.5,8.7-8.8,12.6
			c-3.4,3.9-7,7.7-10.9,11.1c-1,0.9-1.9,1.7-2.9,2.5c-1,0.9-2,1.7-3,2.5c-2,1.6-4.1,3.1-6.3,4.6l-0.6,0.8c0-0.1,0.2-0.3,0.2-0.3
			c0,0,0,0,0,0c-0.1,0-0.2,0.1-0.3,0.2c-0.3,0.1-0.6,0.2-1,0.3l-2.2,0.7c-0.8,0.3-1.6,0.5-2.4,0.9c-0.4,0.2-0.8,0.4-1.3,0.7
			c-1-1-2.2-1.8-3.5-2.4c-1-0.5-2-0.9-3-1.3c1.1-0.5,2.1-1.3,3-2.1c1.1-0.9,2.1-1.8,3.1-2.7c1-1,1.9-2,2.8-3.1c0,0,0-0.1,0-0.1
			c0,0-0.1,0-0.1,0c-2.1,1.7-4.3,3.3-6.7,4.6c-1.2,0.7-2.4,1.1-3.5,1.8c-0.4,0.2-0.8,0.5-1.2,0.7l-0.1,0c-1.3,0.5-2.7,0.8-4.1,1
			c-1.4,0.2-2.9,0.4-4.4,0.6c-1.5,0.1-2.9,0.2-4.4,0.2c-1.2,0-2.4-0.1-3.5-0.3c1.9-0.7,3.9-1.5,5.8-2.3c8.9-3.8,17.6-7.8,26-12.6
			c4.2-2.5,8.1-5.3,11.8-8.5c3.6-3.2,7.2-6.6,9.8-10.8c1.3-2.1,2.2-4.5,2.7-6.9c0.6-2.4,0.8-4.8,1.2-7c0-0.3,0.1-0.5,0.2-0.8
			c0.1-0.3,0.1-0.4,0.3-0.7c0.2-0.6,0.4-1.1,0.6-1.7c0.4-1.2,0.7-2.3,0.9-3.5c0.2-1.2,0.3-2.4,0.3-3.6c0-0.6-0.1-1.2-0.3-1.8
			c-0.2-0.6-0.5-1.2-1.1-1.5c-0.1,0-0.2,0-0.2,0c0,0.1,0,0.2,0,0.2l0,0c0.4,0.3,0.6,0.9,0.7,1.4c0.1,0.6,0.1,1.1,0.1,1.7
			c-0.1,1.1-0.3,2.3-0.6,3.4c-0.3,1.1-0.7,2.2-1.1,3.3c-0.2,0.5-0.5,1.1-0.7,1.6c-0.1,0.2-0.3,0.6-0.4,0.9c0,0.1-0.1,0.3-0.1,0.4
			c0-0.2-0.1-0.5-0.2-0.7c-0.3-0.8-0.9-1.6-1.8-2.1c-0.9-0.4-1.9-0.5-2.9-0.2c-0.5,0.1-0.9,0.4-1.3,0.7c-0.4,0.4-0.6,0.6-0.9,0.8
			c-1.2,0.8-2.9,1.1-4.5,1.7c-1.6,0.5-3.3,1.2-4.7,2.1c-2.8,1.5-6,2.4-9.2,3.3c-3.2,0.9-6.5,1.5-9.9,2.1l-0.1,0l-0.1,0
			c-2,1.2-4,2.3-6,3.5c-1,0.6-2.1,1.1-3,1.9c-1,0.7-1.9,1.6-2.5,2.8c-0.3,0.6-0.5,1.3-0.5,1.9c0,0.2,0,0.3,0,0.6
			c0,0.1,0,0.3,0.1,0.4c0,0.1,0.1,0.2,0.1,0.3c0.1,0.2,0.2,0.3,0.4,0.5c0.1,0.1,0.3,0.3,0.4,0.4c1.1,0.9,2.2,1.3,3.3,1.8
			c2.3,0.9,4.5,1.5,6.9,1.9c2.3,0.4,4.7,0.7,7,0.8c2.4,0.1,4.7,0.1,7.1-0.2c2.3-0.3,4.6-0.8,6.9-1.4c1.1-0.3,2.3-0.7,3.4-1.1
			c0,0,0,0,0.1,0c-0.7,0.6-1.5,1.3-2.2,1.9c-3.4,2.8-6.9,5.5-10.6,7.9c-1.2,0.1-2.5,0.1-3.7,0c-0.9-0.1-1.8-0.2-2.7-0.3
			c-0.9-0.1-1.8-0.3-2.6-0.5l-0.5-0.1l-0.3,0.2c-0.6,0.3-1.3,0.6-2.1,0.8c-0.7,0.2-1.5,0.3-2.4,0.4c-0.8,0-1.6-0.1-2.4-0.3
			c-0.8-0.2-1.5-0.6-2.1-1.1l-0.1-0.1l-0.4,0c-0.8,0.1-1.5,0.1-2.2,0.1c-0.7,0-1.5,0.1-2.2,0c-0.7,0-1.5-0.1-2.3-0.1l-2.2-0.2
			c0-0.1,0-0.1,0-0.2c0-0.1,0-0.2,0.1-0.4l0.2-1c0.2-0.7,0.4-1.4,0.7-2.2c0.5-1.4,1.1-2.9,1.7-4.3c1.2-2.9,2.5-5.7,3.9-8.5
			c1.4-2.8,2.8-5.6,4.4-8.2c1.6-2.6,3.3-5.3,5.4-7.2c2.2-2,5-3.6,7.7-5.2c2.7-1.6,5.5-3,8.4-4.4c2.9-1.4,5.8-2.7,8.7-3.9
			c2.9-1.2,5.9-2.4,9-3.2l0,0c0.1,0,0.1-0.1,0.1-0.2c0-0.1-0.1-0.1-0.2-0.1c-3.2,0.5-6.3,1.4-9.4,2.4c-3.1,1-6.1,2.1-9.1,3.3
			c-3,1.2-5.9,2.5-8.8,4c-2.9,1.5-5.7,3.1-8.3,5.2l-1,0.8c-0.3,0.3-0.6,0.6-0.9,0.9c-0.6,0.6-1.1,1.3-1.6,1.9c-1,1.3-1.9,2.7-2.8,4
			c-1.7,2.7-3.2,5.5-4.7,8.4c-1.4,2.9-2.7,5.8-3.9,8.7c-0.6,1.5-1.2,3-1.6,4.5c-0.3,0.8-0.5,1.6-0.7,2.4l-0.3,1.3
			c-0.1,0.2-0.1,0.5-0.1,0.7l0,0.3c-0.1,0.2-0.2,0.3-0.3,0.5l-0.5,0.7c-0.4,0.5-0.8,1-1.2,1.5c-0.9,1-1.8,2-2.7,3
			c-1.9,1.9-3.9,3.8-5.8,5.7c-1.6,1.6-3.3,3.1-5,4.6c-0.8,0.2-1.6,0.3-2.5,0.4c-1.5,0.2-3.1,0.2-4.6,0.2c-1.5,0-3.1,0-4.6-0.2
			c-0.8-0.1-1.5-0.2-2.2-0.3c-0.7-0.1-1.4-0.3-1.9-0.6c0,0,0,0,0,0c0,0,0,0,0,0c0.4-0.3,1.1-0.5,1.8-0.8c1.4-0.4,2.9-0.7,4.4-1
			l4.5-0.8l2.3-0.4c0.8-0.2,1.5-0.3,2.5-0.6c1.8-0.7,3.1-1.8,4.3-2.9c1.2-1.1,2.2-2.4,3.2-3.6c2-2.5,3.6-5.1,5.3-7.7
			c1.6-2.6,3.1-5.3,4.6-7.9c1.5-2.6,3-5.3,4.7-7.7l0.3-0.4l0-0.4c0-5,1.7-10.1,4.3-14.6c2.6-4.6,6-8.8,9.7-12.6
			c3.8-3.8,8-7.2,12.6-10.1c0.6-0.4,1.1-0.7,1.7-1c0.6-0.3,1.2-0.6,1.8-0.9c1.2-0.7,2.4-1.4,3.5-2.2c1.1-0.8,2.2-1.7,3.2-2.7
			c0.5-0.5,1-1,1.4-1.6c0.4-0.6,0.8-1.1,1.1-1.8c0.3-0.5,0.5-0.9,0.7-1.4c0,0,0.1,0.1,0.1,0.1c0.3,0.4,0.6,0.7,0.8,1
			c0.3,0.3,0.6,0.6,0.9,0.9c0.6,0.6,1.2,1.2,1.9,1.7l1,0.7l1.1,0.7c1.5,0.8,3,1.5,4.6,1.8c0.1,0,0.1,0,0.2-0.1c0-0.1,0-0.2-0.1-0.2
			l0,0c-1.4-0.8-2.7-1.7-3.8-2.8c-1.1-1-2.2-2.2-3-3.4c-0.8-1.2-1.3-2.7-2-3.9c-0.4-0.6-0.7-1.3-1.2-1.9c0-0.1-0.1-0.1-0.1-0.2
			c0-0.1,0-0.2,0-0.2c-0.1-1.1-0.2-2.2-0.3-3.3c-0.1-1.1-0.2-2.2-0.1-3l0-0.1c0.1-1.8,0.2-3.7,0.6-5.4c0.4-1.8,0.9-3.5,1.8-5
			c0.9-1.5,2-2.9,3.4-4c1.4-1.1,3-1.9,4.8-2.6l0.7-0.2L93,2.3c0.4-0.1,0.8-0.2,1.3-0.2c0.9-0.1,1.8,0,2.7,0c1.8,0.2,3.7,0.7,5.5,1.3
			c1.8,0.7,3.5,1.4,5.1,2.5c0.8,0.5,1.6,1.1,2.3,1.7c0.4,0.3,0.7,0.6,1.1,0.9l-0.7-0.2l2,2.1c-0.1,0.1-0.4,0.3-0.6,0.4
			c-0.6,0.3-1.4,0.6-2.1,0.9c-1.5,0.5-3,1-4.5,1.6c0,0-0.1,0.1-0.1,0.1c0,0.1,0,0.1,0.1,0.1c0.2,0,0.4,0,0.7,0c0,0,0,0,0,0
			c0,0,0,0,0.1,0c3.3,0,6.6,0.1,10,0.2c1.7,0.1,3.3,0.2,4.9,0.3c1.2,0.1,2.4,0.1,3.6,0.2L121.8,14.6z M44.4,87.2
			c0-0.5,0.1-0.9,0.3-1.4c0.4-0.9,1.1-1.7,1.9-2.4c0.8-0.7,1.7-1.4,2.7-2c1.9-1.3,3.8-2.6,5.7-3.8c3.3-0.6,6.6-1.1,9.9-1.6
			c3.3-0.6,6.7-1.1,9.9-2.8c1.5-0.8,2.9-1.5,4.4-2.1l2.4-0.9c0.8-0.3,1.7-0.6,2.4-1.2c0.4-0.3,0.8-0.7,0.9-0.9
			c0.2-0.2,0.5-0.4,0.8-0.5c0.6-0.3,1.4-0.3,2-0.1c0.7,0.2,1.2,0.7,1.6,1.4c0.2,0.5,0.4,1,0.5,1.5c-0.5,2.2-0.8,4.3-1.4,6.3
			c-0.6,2.2-1.6,4.3-2.8,6.2c-1.7,2.6-3.9,4.9-6.2,7.1c-1.6,0.5-3.2,0.8-4.8,1.1c-2.3,0.4-4.6,0.6-6.8,0.8c-4.5,0.3-9.1-0.2-13.6-1
			c-2.2-0.4-4.5-0.9-6.6-1.6c-1-0.4-2.1-0.8-2.8-1.4l-0.2-0.2c0-0.1-0.1-0.1-0.1-0.2c0,0,0,0,0-0.1c0,0,0,0,0,0
			C44.4,87.5,44.4,87.3,44.4,87.2z M125.2,14.3c-0.6-0.3-1.3-0.5-2-0.7c-0.8-0.2-1.7-0.3-2.5-0.4c-1.7-0.2-3.3-0.1-5-0.1
			c-2.4,0-4.9,0.1-7.3,0.3c0.5-0.1,1-0.2,1.5-0.3c0.8-0.2,1.6-0.4,2.4-0.7c0.4-0.2,0.8-0.4,1.3-0.9c0.1-0.1,0.2-0.3,0.3-0.5
			c2,0.3,4,0.4,6,0.8c1.2,0.3,2.4,0.6,3.5,1.1c0.5,0.3,1,0.6,1.5,0.9C125.1,14,125.2,14.1,125.2,14.3L125.2,14.3z"/>
		<path class="st4" d="M108.3,15.4L108.3,15.4L108.3,15.4C108.3,15.5,108.4,15.5,108.3,15.4z"/>
	</g>
</g>
</svg>
