<?xml version="1.0" encoding="utf-8"?>
<!-- Generator: Adobe Illustrator 24.1.2, SVG Export Plug-In . SVG Version: 6.00 Build 0)  -->
<svg version="1.1" id="Layer_1" xmlns="http://www.w3.org/2000/svg" xmlns:xlink="http://www.w3.org/1999/xlink" x="0px" y="0px"
	 viewBox="0 0 128 128" style="enable-background:new 0 0 128 128;" xml:space="preserve">
<style type="text/css">
	.st0{fill:#DB5240;}
	.st1{fill:#5C89AA;}
	.st2{fill:#F7D3A4;}
	.st3{fill:#8E634A;}
	.st4{fill:#66644D;}
	.st5{fill:#BFC3C4;}
	.st6{fill:#D4D8D8;}
	.st7{fill:#2D2D2D;}
	.st8{fill:#BC8057;}
	.st9{fill:#514646;}
	.st10{fill:#EAE4D6;}
	.st11{fill:#9F5730;}
</style>
<g>
	<g>
		<path class="st0" d="M32.77,14.35c-0.18,0.13-0.36,0.24-0.55,0.36L31.64,15l-0.02,0.01l-0.11,0.02c-1.38,0.31-2.61,0.23-3.85,0.13
			c-1.23-0.11-2.43-0.34-3.61-0.6c-1.18-0.26-2.36-0.55-3.52-0.89c-0.89-0.27-1.76-0.57-2.64-0.91c0.23,0.85,0.66,1.68,1.22,2.37
			c0.77,0.94,1.83,1.58,2.82,2.17c0.62,0.37,1.24,0.74,1.88,1.08c0.56,0.06,1.12,0.08,1.68,0.05c1.09-0.06,2.15-0.29,3.16-0.68
			c1.01-0.39,1.98-0.91,2.85-1.62c0.86-0.69,1.63-1.56,2.16-2.59C33.39,13.85,33.09,14.12,32.77,14.35z"/>
		<path class="st1" d="M18.77,15.82c-0.06-0.1-0.13-0.21-0.19-0.31c-0.44-0.74-0.87-1.45-1.26-2.22
			C17.64,14.22,18.13,15.08,18.77,15.82z"/>
		<path class="st2" d="M17.41,11.53c1.09,0.25,2.32,0.4,3.47,0.59c1.17,0.2,2.33,0.4,3.5,0.56c1.16,0.17,2.33,0.3,3.48,0.43
			c1.13,0.12,2.3,0.22,3.28,0.13c0.29-0.08,0.58-0.17,0.86-0.27c0.31-0.13,0.62-0.27,0.92-0.44c0.57-0.34,1.12-0.81,1.52-1.45
			c0.04-0.32,0.07-0.64,0.07-0.96c0-1.18-0.3-2.35-0.84-3.38c-0.53-1.03-1.31-1.91-2.18-2.61c-1.77-1.36-3.86-2.13-5.99-2.09
			c-2.12,0.01-4.22,0.81-5.8,2.28c-1.56,1.48-2.6,3.54-2.78,5.8c-0.04,0.43-0.02,0.86,0.01,1.29L17.41,11.53z"/>
		<path class="st3" d="M24.5,20.37c-0.13-0.03-0.25-0.08-0.38-0.12l-1.57,0.5l-5.38,1.71l-5.39,1.71l-0.67,0.21l-0.34,0.11
			c-0.12,0.04-0.22,0.06-0.3,0.11c-0.34,0.18-0.56,0.6-0.61,1.03c-0.03,0.21,0,0.44,0.01,0.68l0.04,0.7l0.08,1.41c0,0,0,0,0,0.01
			c1.73-0.65,3.47-1.25,5.21-1.86l5.36-1.8c3.59-1.16,7.18-2.31,10.79-3.37l-0.08,0.03c0.52-0.2,1.09-0.3,1.65-0.3
			c2.25-0.96,4.51-1.88,6.8-2.74c1.35-0.51,2.69-1.01,4.05-1.5l1.02-0.36c0.08-0.03,0.2-0.07,0.27-0.1c0,0,0-0.01,0.01-0.03
			c0.01-0.04,0.03-0.1,0.03-0.16l-0.04-0.4l-0.1-1.07l-0.1-1.07l-0.04-0.54l-0.01-0.13c0-0.01,0-0.03-0.01-0.04c0,0,0-0.01,0-0.01
			l-0.83,0.1c-1.42,0.17-2.85,0.33-4.28,0.48l-2.14,0.23l-1.07,0.12l-0.02,0c-0.01,0.01-0.01,0.01-0.02,0.02l-0.13,0.22l-2.18,3.72
			L34,18.06l-0.2,0.09c0,0-4.69,1.87-7.49,2.23C25.85,20.44,24.95,20.48,24.5,20.37z"/>
		<path class="st1" d="M36.47,13.86C36.47,13.86,36.47,13.87,36.47,13.86C36.47,13.87,36.47,13.87,36.47,13.86
			C36.48,13.86,36.48,13.86,36.47,13.86z"/>
		<path class="st1" d="M45.07,16.41C45.11,16.39,45.13,16.39,45.07,16.41C45.07,16.41,45.07,16.41,45.07,16.41z"/>
		<path class="st4" d="M23.02,56.05c-1.91,0.06-3.82,0.1-5.72,0.2c-1.9,0.1-3.8,0.26-5.69,0.49c-1.89,0.23-3.77,0.58-5.66,0.89l0,0
			c-0.17,3.72-0.4,7.43-0.61,11.14C5.1,72.7,4.83,76.61,4.55,80.53c-0.26,3.92-0.63,7.83-1,11.74c-0.37,3.89-0.74,7.78-1.15,11.67
			c0.01,1.07,0.42,2.14,1.18,2.92c0.75,0.79,1.82,1.27,2.93,1.31c1.11,0.05,2.23-0.36,3.06-1.12c0.84-0.76,1.36-1.86,1.42-3.01
			l0-0.04l0-0.02l1.67-10.95c0.26-1.83,0.54-3.65,0.78-5.49c0.24-1.83,0.54-3.66,0.64-5.5c0.3-3.68,0.58-7.36,0.83-11.04l0.36-5.52
			c0-0.52,0.21-1.15,0.62-1.56c0.4-0.43,0.98-0.69,1.58-0.71c0.59-0.02,1.2,0.2,1.63,0.61c0.41,0.37,0.66,0.9,0.72,1.45l3.88,8.52
			l3.85,8.59l0.06,0.13l0.01,0.16l0.97,13.45l0.24,3.36l0.12,1.68l0.06,0.76c0.04,0.22,0.08,0.44,0.15,0.65
			c0.27,0.85,0.82,1.62,1.56,2.12c0.74,0.5,1.64,0.76,2.54,0.69c1.79-0.09,3.42-1.55,3.69-3.34c0.05-0.23,0.05-0.43,0.06-0.66
			l-0.03-0.84l-0.06-1.68l-0.12-3.36l-0.36-13.36c-1.41-4.5-2.73-9.03-4.09-13.54c-0.69-2.27-1.36-4.56-2.02-6.84l-1.74-6.03
			C26.75,55.86,24.88,55.99,23.02,56.05z"/>
		<path class="st5" d="M59.54,11.58c-0.05-0.19-0.11-0.37-0.18-0.53c-0.04-0.1-0.1-0.2-0.15-0.27l-0.25,0.05l-0.61,0.11
			c0,0-10.63,1.45-11.7,1.36c0.04,0.11,0.07,0.22,0.09,0.33c0.01,0.07,0.02,0.15,0.03,0.22L46.79,13l0.04,0.54l0.07,1.07l0.07,1.07
			l0.02,0.27c0.01,0.08,0.01,0.27,0,0.41c0,0,0,0,0,0c0.52-0.23,4.13-1.09,4.16-1.08c0.43-0.47,0.86-0.95,1.3-1.41
			c0.1-0.1,0.28-0.29,0.43-0.42c0.16-0.14,0.33-0.27,0.51-0.38c0.36-0.23,0.76-0.4,1.16-0.52c0.82-0.23,1.7-0.2,2.5,0.06
			c0.8,0.27,1.5,0.77,2.02,1.42c0.02,0.03,0.04,0.07,0.07,0.1l0.18-0.05c0.08-0.03,0.23-0.06,0.26-0.09
			c0.02-0.02,0.06-0.08,0.09-0.15c0.11-0.32,0.1-0.73,0.08-1.12C59.71,12.35,59.64,11.95,59.54,11.58z"/>
		<path class="st6" d="M96.37,6.05l-0.26,0.04l-2.44,0.37l-4.89,0.76c-3.26,0.49-6.52,0.96-9.8,1.34
			c-6.3,0.73-12.61,1.38-18.97,1.76c0.08,0.16,0.12,0.31,0.17,0.46c0.06,0.23,0.09,0.45,0.12,0.66c0.05,0.44,0.05,0.86,0.02,1.29
			c-0.04,0.42-0.08,0.84-0.29,1.27l19.13-3.31l9.75-1.64l4.88-0.82l2.44-0.41l0.28-0.05l-0.08-0.99L96.37,6.05z"/>
		<path class="st1" d="M56.96,19.8c-0.47,0.7-0.95,1.4-1.43,2.09c-0.22,0.32-0.44,0.64-0.66,0.95c-1.52,2.17-3.12,4.28-4.84,6.29
			l-2.62,2.99l-1.31,1.5l-0.31,0.36c-0.08,0.09-0.17,0.18-0.26,0.25c-0.19,0.15-0.4,0.28-0.62,0.36c-0.44,0.17-0.93,0.2-1.39,0.08
			c-0.19-0.04-0.56-0.19-0.86-0.29l-0.93-0.34c-1.24-0.46-2.5-0.87-3.76-1.3c-1.26-0.4-2.52-0.8-3.8-1.16
			c-0.64-0.19-1.29-0.35-1.93-0.52c-0.12-0.03-0.23-0.05-0.35-0.08l2.12-0.84c0.37-0.15,0.7-0.25,1.2-0.52
			c0.43-0.25,0.83-0.58,1.15-0.95c0.67-0.76,1.06-1.74,1.13-2.75c0.02-0.45-0.04-0.9-0.14-1.32c0.76,0.36,1.52,0.71,2.28,1.07
			c0.61,0.29,1.83,0.82,2.51,1.11c0.29,0.13,0.61,0.06,0.84-0.15c0.05-0.05,0.1-0.1,0.16-0.16c0.06-0.06,0.12-0.12,0.19-0.19
			l0.21-0.21l0.35-0.35c0.12-0.12,0.24-0.25,0.38-0.39c0.2-0.2,0.43-0.43,0.66-0.67l0.33-0.33c0.56-0.58,1.18-1.21,1.84-1.88
			c0.26-0.26,0.52-0.54,0.8-0.82c0.4-0.41,0.81-0.84,1.23-1.27c0.59-0.61,1.18-1.23,1.75-1.83c0.09-0.1,0.18-0.19,0.27-0.28
			c0.26-0.28,0.52-0.55,0.77-0.82c0.08-0.08,0.16-0.17,0.24-0.26c0.24-0.26,0.47-0.5,0.68-0.74C53.94,17.63,56.07,19.21,56.96,19.8z
			"/>
		<path class="st0" d="M11.89,11.11c0.26-0.25,0.47-0.52,0.77-0.86c0.29-0.32,0.65-0.6,1.08-0.75c0.42-0.16,0.89-0.15,1.29-0.02
			c0.31,0.09,0.59,0.26,0.83,0.45c-0.01-0.34-0.01-0.67,0.01-1.01c-0.81-0.4-1.89-0.89-2.68-0.99c-0.85-0.13-1.74,0.01-2.37,0.4
			c-0.6,0.39-0.88,1.15-1.21,2.02c-0.17,0.43-0.36,0.88-0.58,1.32c0.35-0.04,0.7-0.06,1.04-0.05c0.4,0.01,0.76,0.01,1.04-0.04
			C11.38,11.51,11.64,11.35,11.89,11.11z"/>
		<path class="st0" d="M15.85,10c-0.64-0.31-1.37-0.36-1.91-0.04c-0.3,0.17-0.54,0.43-0.74,0.72c-0.19,0.27-0.38,0.69-0.65,1.02
			c-0.27,0.34-0.65,0.69-1.14,0.86c-0.28,0.1-0.55,0.13-0.8,0.15c0,0.06,0.03,0.09,0.06,0.09c0.04,0.03,0.18,0.14,0.31,0.26
			c0.13,0.13,0.26,0.28,0.38,0.44c0.21,0.31,0.34,0.66,0.42,1.01c0.32-0.17,0.69-0.29,1-0.35c0.17-0.04,0.31-0.07,0.37-0.09
			c0.06-0.02,0.08-0.02,0.13-0.09c0.11-0.16,0.18-0.48,0.24-0.78c0.07-0.29,0.08-0.68,0.19-1.03c0.11-0.35,0.29-0.71,0.59-0.98
			c0.3-0.27,0.69-0.37,1.04-0.37c0.21,0,0.41,0.04,0.6,0.1c-0.04-0.27-0.07-0.53-0.09-0.8C15.85,10.09,15.86,10.04,15.85,10z"/>
		<path class="st1" d="M9.52,39.38c-1.06,0.14-2.18-0.08-3.12-0.64c0.17,1.52,0.27,3.03,0.34,4.54c0.07,1.52,0.11,3.04,0.13,4.57
			c0.02,1.52,0.01,3.04-0.03,4.56c-0.02,1.28-0.12,2.56-0.22,3.84c1.64-0.03,3.28-0.05,4.92-0.16c1.9-0.13,3.8-0.32,5.69-0.58
			c1.89-0.26,3.77-0.58,5.66-0.87c1.62-0.25,3.25-0.45,4.87-0.65c0.08-1.75,0.16-3.49,0.29-5.24c0.06-1,0.14-1.99,0.24-2.99
			c0.09-1,0.18-1.99,0.29-2.98c0.4-3.71,0.87-7.42,1.54-11.11c-0.91,0.36-1.83,0.72-2.75,1.06L9.52,39.38z"/>
		<path class="st1" d="M31.5,29.18l-0.41,0.18c-0.23,0.1-0.46,0.2-0.69,0.3c-0.49,0.21-0.99,0.42-1.48,0.64
			c-0.72,0.31-1.45,0.63-2.17,0.95c-2.89,1.26-5.75,2.62-8.63,3.93c-1.43,0.66-2.87,1.31-4.33,1.94l-2.18,0.92l-1.09,0.45
			c-0.37,0.16-0.7,0.24-1.08,0.28c-1.46,0.19-3.03-0.52-3.71-1.77c-0.77-1.32-1.4-2.78-2.02-4.22l-0.91-2.18l-0.45-1.1
			c-0.12-0.35-0.26-0.67-0.35-1.02c-0.09-0.35-0.17-0.7-0.21-1.05c-0.07-0.35-0.06-0.71-0.1-1.06c0.01-0.71,0.07-1.43,0.26-2.12
			c0.31-1.4,1.08-2.67,2.06-3.71c0.51-0.51,1.07-0.96,1.7-1.32c0.31-0.19,0.64-0.33,0.98-0.49l1.09-0.48
			c0.93-0.4,1.85-0.82,2.77-1.24l0.49-0.22c1.75-0.8,4.13-1.85,5.89-2.71c0.49,0.99,1.13,1.9,1.89,2.69
			c0.57,0.61,1.21,1.15,1.91,1.61c0.08,0.07,0.14,0.15,0.22,0.22c0.49,0.42,1.04,0.78,1.63,1.06l-0.38,0.14l-5.3,1.96l-5.3,1.96
			l-0.67,0.25l-0.33,0.12c-0.1,0.04-0.23,0.08-0.36,0.15c-0.49,0.3-0.7,0.84-0.75,1.34c-0.03,0.26,0.02,0.49,0.04,0.73l0.08,0.7
			l0.15,1.41c0,0.03,0,0.11,0.01,0.14c0.01,0.05,0.06,0.09,0.12,0.08c1.85-0.37,3.69-0.79,5.54-1.2l5.5-1.3
			c1.17-0.29,2.34-0.59,3.51-0.89c1.15-0.29,2.29-0.58,3.44-0.88c0.4-0.1,0.8-0.2,1.2-0.31C29.4,25.47,30.81,28.06,31.5,29.18z"/>
		<path class="st7" d="M98.02,7.77l-0.01-0.15L98,7.31l-0.03-0.61l-0.03-0.62l-0.01-0.31c0-0.06-0.01-0.33-0.1-0.52
			c-0.08-0.21-0.2-0.43-0.44-0.61c-0.12-0.09-0.28-0.17-0.45-0.2c-0.16-0.04-0.44-0.01-0.42-0.01L95.9,4.49l-2.46,0.29l-4.91,0.57
			c-3.28,0.4-6.55,0.81-9.8,1.32c-6.32,0.99-19.33,3.12-19.41,3.12c-0.04-0.01-0.08-0.01-0.12,0h-0.04l-0.31,0.02l-0.61,0.03L57,9.9
			l-2.46,0.16c-1.64,0.11-10.84,1.06-10.84,1.06c-1.42,0.2-2.84,0.41-4.26,0.64l-2.12,0.33l-1.06,0.16l-0.08,0.01
			c-0.05,0.01-0.1,0.02-0.15,0.03c-0.1,0.03-0.2,0.06-0.28,0.11c-0.17,0.09-0.32,0.2-0.44,0.33c-0.12,0.12-0.21,0.26-0.28,0.38
			l-0.13,0.25l-1.77,2.09c0.24-0.31,1.13-1.77,1.4-3.41c0.09-0.29,0.13-0.6,0.12-0.92c0.03-0.33,0.04-0.67,0.05-0.99
			c0-2.39-0.69-4.88-2.32-6.89c-0.81-0.99-1.85-1.84-3.05-2.38C28.14,0.3,26.81,0.04,25.49,0c-2.66-0.03-5.29,1.13-7.08,3.05
			c-0.9,0.95-1.61,2.07-2.05,3.3c-0.29,0.81-0.44,1.64-0.49,2.48c-0.68-0.61-1.72-1.25-2.55-1.52c-0.93-0.29-1.99-0.33-3,0.13
			C9.81,7.68,9.4,8.12,9.13,8.56c-0.28,0.44-0.47,0.88-0.66,1.3c-0.35,0.84-0.75,1.59-1.22,2.3l-1.01,1.49l1.7-0.52
			c0.69-0.21,1.37-0.32,2.11-0.38c-0.01,0.08-0.02,0.17,0,0.24c0.16,0.54,0.33,0.7,0.4,0.99c0.17,0.51,0.17,1.08,0.15,1.68
			l-0.01,0.25c-1.1,0.37-2.2,0.74-3.28,1.12l-1.12,0.4c-0.38,0.15-0.79,0.31-1.16,0.51c-0.76,0.4-1.47,0.9-2.11,1.48
			c-0.62,0.6-1.18,1.26-1.61,2.02c-0.24,0.36-0.4,0.77-0.6,1.16c-0.14,0.41-0.32,0.81-0.41,1.23c-0.45,1.68-0.41,3.49,0.14,5.13
			c0.12,0.42,0.31,0.81,0.47,1.2l0.54,1.06l1.11,2.12c0.76,1.4,1.51,2.8,2.46,4.13c0.04,0.07,0.1,0.14,0.15,0.2
			c0.63,0.81,0.9,1.84,0.76,2.86c-0.12,0.91-0.21,1.81-0.29,2.71c-0.14,1.52-0.26,3.04-0.34,4.56c-0.09,1.52-0.15,3.04-0.19,4.56
			c-0.04,1.52,0.01,3.04,0.07,4.56c0,0-0.36,8.08-0.79,11.76C3.97,72.6,3.56,76.5,3.16,80.4c-0.36,3.91-0.84,7.81-1.25,11.71
			c-0.42,3.9-0.84,7.81-1.22,11.72l-0.01,0.04v0.04c-0.01,1.53,0.64,3.04,1.72,4.1c1.07,1.07,2.57,1.7,4.08,1.68
			c1.5,0,2.98-0.62,4.03-1.66c1.05-1.03,1.65-2.48,1.67-3.92l1.21-11c0.22-1.84,0.42-3.67,0.66-5.5c0.23-1.83,0.49-3.66,0.61-5.5
			c0.31-3.69,0.64-7.37,0.99-11.05l0.55-5.52c0.01-0.76,0.62-1.32,1.29-1.31c0.67-0.01,1.26,0.59,1.24,1.24v0.08l0.04,0.12l3.59,8.7
			l3.58,8.54l0.74,13.31l0.19,3.35l0.1,1.68l0.06,0.92c0.05,0.33,0.11,0.67,0.21,0.99c0.39,1.29,1.22,2.44,2.34,3.21
			c1.11,0.76,2.49,1.16,3.84,1.05c1.34-0.09,2.67-0.64,3.65-1.57c1-0.91,1.68-2.16,1.88-3.5c0.06-0.32,0.06-0.68,0.07-1.02
			l-0.04-0.84l-0.08-1.69l-0.16-3.37l-0.76-13.47l-0.01-0.11l-0.03-0.1c-1.5-4.51-3.1-8.99-4.64-13.48
			c-0.77-2.25-1.57-4.49-2.36-6.73l-1.48-5.89l0.08-0.79c0.19-1.99,0.4-3.98,0.53-5.98c0.08-0.99,0.15-1.99,0.19-2.99
			c0.05-1,0.11-2,0.14-3c0.13-3.72,0.19-7.45,0.06-11.19c0.3-0.2,0.38-0.26,0.68-0.45c0.29,0.13,0.58,0.27,0.86,0.4l1.81,0.82
			c1.2,0.55,2.42,1.08,3.64,1.6c1.22,0.5,2.44,1.02,3.67,1.5l0.92,0.36c0.33,0.13,0.56,0.24,1,0.38c0.83,0.22,1.72,0.15,2.5-0.19
			c0.38-0.18,0.74-0.42,1.05-0.7c0.15-0.15,0.29-0.31,0.42-0.47c0.12-0.15,0.2-0.28,0.29-0.42l1.11-1.64l2.21-3.31
			c1.49-2.19,3.12-4.28,4.81-6.32c0.84-1.02,1.72-2.02,2.59-3.02l0.65-0.75l0.33-0.38c0.12-0.16,0.24-0.31,0.34-0.49
			c0.42-0.68,0.61-1.51,0.56-2.32c-0.04-0.68-0.27-1.34-0.63-1.93l0.08-0.01c0.12-0.02,0.17-0.01,0.34-0.05
			c0.05-0.03,19.58-2.68,19.58-2.68l9.8-1.35l4.9-0.68l2.45-0.34l0.3-0.04l0.15-0.03c0.07-0.01,0.04,0.01,0.26-0.04
			c0.33-0.1,0.53-0.32,0.65-0.52c0.13-0.2,0.19-0.4,0.2-0.61C98.03,7.96,98.02,7.81,98.02,7.77z M45.55,18.18
			c0.04-0.01,0.27-0.07,0.45-0.17c0.32-0.19,0.52-0.43,0.67-0.68h0.5c0.57,0,1.14-0.05,1.71-0.09c0.17-0.01,0.33-0.01,0.49-0.01
			c-2.32,2.6-4.56,5.26-6.76,7.97c-0.2,0.26-0.54,0.36-0.86,0.28c-0.62-0.17-1.24-0.35-1.87-0.51c-0.86-0.22-1.73-0.45-2.6-0.66
			c0.12-0.08,0.29-0.16,0.42-0.26c0.15-0.1,0.29-0.2,0.42-0.31c0.26-0.21,0.54-0.43,0.77-0.72c0.24-0.28,0.35-0.68,0.4-1.01
			c0.06-0.29,0.09-0.6,0.07-0.9c-0.03-0.37-0.1-0.74-0.22-1.11c0.33-0.09,0.65-0.17,0.98-0.26c1.38-0.38,2.76-0.77,4.13-1.17
			l1.03-0.31L45.55,18.18z M35.96,21.38c-0.06-0.17-0.13-0.35-0.2-0.51c-0.01,0-0.01-0.01-0.01-0.01c0.83-0.2,1.64-0.42,2.46-0.64
			c-0.09,0.27-0.15,0.54-0.19,0.82c-0.04,0.29-0.03,0.6,0.01,0.9c0.04,0.27,0.04,0.47,0.06,0.75c0.02,0.26-0.03,0.56-0.23,0.74
			c-0.09,0.09-0.22,0.15-0.34,0.15c-0.13,0.01-0.23-0.05-0.4-0.12c-0.09-0.04-0.17-0.06-0.26-0.07c-0.06-0.12-0.12-0.24-0.2-0.35
			c-0.58-0.83-1.45-1.47-2.42-1.76c-0.05-0.01-0.1-0.02-0.15-0.03c0.15-0.03,0.31-0.07,0.45-0.11c0.01,0.04,0.01,0.09,0.03,0.13
			c0.04,0.19,0.28,0.2,0.44,0.29c0.15,0.09,0.32,0.17,0.49,0.25c0.18,0.06,0.34,0.14,0.53,0.2c0.01,0.01,0.03,0.01,0.04,0
			c0.04-0.01,0.06-0.04,0.06-0.08C36.08,21.73,36.02,21.57,35.96,21.38z M33.8,18.15l0.2-0.09l0.13-0.21l2.18-3.72l0.13-0.22
			c0.01-0.01,0.01-0.01,0.01-0.02h0.02l1.07-0.12l2.14-0.22c1.43-0.14,2.85-0.31,4.28-0.47l0.83-0.1c0.01,0,0.01,0.01,0.01,0.01
			c0.01,0.01,0,0.03,0.01,0.04l0.01,0.13l0.04,0.54l0.1,1.07l0.1,1.08l0.03,0.4c0,0.06-0.01,0.12-0.03,0.16
			c-0.01,0.02-0.01,0.03-0.01,0.03c-0.08,0.03-0.2,0.07-0.28,0.1l-1.02,0.36c-1.35,0.49-2.7,0.99-4.04,1.5
			c-2.28,0.86-4.55,1.78-6.8,2.75c-0.28,0-0.57,0.03-0.84,0.08c-0.12,0.02-0.24,0.04-0.35,0.08c-0.13,0.03-0.26,0.08-0.38,0.12
			l-0.08,0.03c-3.59,1.06-7.15,2.2-10.71,3.35l-5.36,1.8c-1.74,0.61-3.48,1.22-5.21,1.86c0,0,0,0,0-0.01L9.9,27.01l-0.04-0.7
			c-0.01-0.24-0.04-0.47-0.01-0.68c0.06-0.42,0.28-0.84,0.61-1.02c0.08-0.04,0.18-0.07,0.3-0.11l0.33-0.11l0.68-0.21l5.38-1.71
			l5.39-1.72l1.57-0.51c0.13,0.04,0.26,0.09,0.38,0.12c0.45,0.11,1.36,0.06,1.82,0.01C29.12,20.02,33.8,18.15,33.8,18.15z
			 M31.49,16.13c-0.87,0.71-1.84,1.24-2.85,1.62c-1,0.39-2.07,0.62-3.16,0.68c-0.56,0.03-1.11,0.01-1.68-0.05
			c-0.64-0.35-1.26-0.71-1.88-1.08c-0.99-0.59-2.05-1.22-2.82-2.17c-0.57-0.68-0.99-1.52-1.22-2.36c0.88,0.35,1.74,0.64,2.64,0.92
			c1.16,0.33,2.34,0.62,3.52,0.88c1.18,0.26,2.39,0.49,3.62,0.6c1.24,0.1,2.47,0.17,3.85-0.13l0.11-0.03L31.64,15l0.58-0.29
			c0.19-0.12,0.37-0.22,0.54-0.36c0.33-0.23,0.63-0.5,0.89-0.8C33.12,14.57,32.35,15.44,31.49,16.13z M16.9,10.13
			c0.19-2.25,1.23-4.32,2.78-5.8c1.58-1.47,3.68-2.27,5.8-2.28c2.13-0.04,4.22,0.74,5.99,2.09c0.87,0.7,1.64,1.57,2.18,2.6
			c0.54,1.03,0.84,2.2,0.84,3.39c0,0.32-0.03,0.64-0.07,0.96c-0.39,0.64-0.94,1.1-1.52,1.45c-0.29,0.17-0.6,0.31-0.92,0.44
			c-0.28,0.1-0.57,0.19-0.86,0.27c-0.99,0.09-2.15-0.01-3.28-0.13c-1.15-0.13-2.32-0.26-3.48-0.44c-1.16-0.16-2.33-0.36-3.49-0.56
			c-1.16-0.19-2.38-0.35-3.48-0.59l-0.49-0.12C16.89,10.99,16.87,10.56,16.9,10.13z M16.85,13.89c-0.84,0.26-2.19,0.72-2.94,0.97
			c0.13-0.13,0.24-0.28,0.29-0.42c0.17-0.45,0.16-0.81,0.15-1.16c-0.02-0.37-0.04-0.65,0-0.95c0.04-0.29,0.12-0.57,0.29-0.79
			c0.27-0.36,0.79-0.51,1.32-0.48C16.12,12.04,16.43,12.99,16.85,13.89z M15.95,10.93c-0.19-0.06-0.39-0.1-0.6-0.1
			c-0.35-0.01-0.75,0.1-1.04,0.36c-0.3,0.26-0.49,0.62-0.59,0.97c-0.11,0.36-0.13,0.74-0.19,1.04c-0.06,0.3-0.13,0.62-0.24,0.78
			c-0.06,0.07-0.08,0.06-0.13,0.09c-0.06,0.03-0.2,0.05-0.37,0.09c-0.31,0.06-0.68,0.18-1,0.35c-0.08-0.35-0.2-0.7-0.42-1.01
			c-0.12-0.17-0.25-0.32-0.38-0.45c-0.13-0.12-0.27-0.22-0.31-0.26c-0.03,0-0.06-0.03-0.06-0.09c0.25-0.02,0.51-0.06,0.8-0.15
			c0.49-0.17,0.87-0.52,1.14-0.86c0.27-0.33,0.46-0.75,0.65-1.02c0.2-0.29,0.44-0.56,0.74-0.73c0.53-0.31,1.27-0.26,1.91,0.04v0.13
			C15.87,10.4,15.91,10.67,15.95,10.93z M10.07,11.6c-0.34-0.01-0.69,0.01-1.04,0.04c0.22-0.44,0.4-0.88,0.58-1.32
			c0.33-0.87,0.61-1.63,1.21-2.02c0.63-0.39,1.52-0.52,2.37-0.4c0.79,0.1,1.88,0.58,2.68,0.99c-0.02,0.34-0.03,0.67-0.01,1.01
			c-0.24-0.2-0.52-0.36-0.83-0.45c-0.4-0.13-0.86-0.13-1.29,0.03c-0.42,0.15-0.79,0.43-1.08,0.75c-0.29,0.35-0.51,0.61-0.77,0.86
			c-0.26,0.24-0.51,0.4-0.78,0.45C10.84,11.61,10.47,11.61,10.07,11.6z M30.35,61.77c0.67,2.28,1.33,4.56,2.02,6.84
			c1.36,4.51,2.69,9.04,4.1,13.54l0.36,13.36l0.12,3.37l0.06,1.68l0.03,0.84c-0.01,0.23-0.02,0.43-0.06,0.65
			c-0.27,1.79-1.89,3.25-3.69,3.34c-0.9,0.08-1.8-0.19-2.54-0.69c-0.74-0.49-1.29-1.27-1.56-2.12c-0.07-0.21-0.11-0.43-0.15-0.65
			l-0.06-0.76l-0.12-1.68l-0.24-3.36l-0.97-13.45l-0.01-0.16l-0.06-0.12l-3.85-8.6l-3.88-8.52c-0.06-0.56-0.31-1.08-0.72-1.45
			c-0.44-0.41-1.04-0.63-1.64-0.61c-0.6,0.01-1.17,0.28-1.57,0.7c-0.41,0.41-0.63,1.04-0.62,1.56l-0.36,5.52
			c-0.26,3.68-0.54,7.37-0.84,11.04c-0.1,1.85-0.4,3.67-0.64,5.5c-0.24,1.83-0.52,3.65-0.78,5.48L11,103.99l-0.01,0.02v0.04
			c-0.06,1.15-0.58,2.25-1.42,3c-0.83,0.77-1.96,1.17-3.07,1.12c-1.11-0.04-2.18-0.51-2.93-1.31c-0.75-0.78-1.16-1.84-1.17-2.92
			c0.42-3.89,0.78-7.78,1.15-11.67c0.36-3.91,0.74-7.82,1-11.74c0.28-3.92,0.54-7.83,0.79-11.76c0.2-3.71,0.44-7.42,0.61-11.14
			c1.88-0.31,3.76-0.66,5.65-0.89c1.89-0.23,3.8-0.4,5.7-0.49c1.91-0.1,3.81-0.13,5.72-0.2c1.87-0.06,3.73-0.19,5.59-0.31
			L30.35,61.77z M28.58,42.78c-0.12,0.99-0.2,1.99-0.29,2.99c-0.1,0.99-0.18,1.99-0.24,2.99c-0.13,1.74-0.2,3.49-0.29,5.24
			c-1.63,0.2-3.25,0.4-4.88,0.65c-1.88,0.29-3.77,0.61-5.66,0.88c-1.89,0.26-3.78,0.45-5.68,0.58c-1.63,0.11-3.28,0.13-4.92,0.16
			c0.11-1.28,0.2-2.56,0.23-3.85c0.03-1.52,0.04-3.04,0.03-4.56c-0.01-1.52-0.06-3.05-0.13-4.57c-0.06-1.51-0.17-3.03-0.34-4.54
			c0.93,0.55,2.05,0.77,3.12,0.63l17.85-6.64c0.92-0.35,1.83-0.7,2.75-1.06C29.45,35.37,28.98,39.07,28.58,42.78z M28.92,30.3
			c-0.72,0.31-1.45,0.63-2.17,0.95c-2.89,1.26-5.75,2.62-8.63,3.93c-1.43,0.66-2.87,1.31-4.33,1.94l-2.18,0.92l-1.09,0.45
			c-0.37,0.16-0.7,0.24-1.08,0.28c-1.46,0.19-3.03-0.52-3.71-1.77c-0.77-1.32-1.4-2.78-2.02-4.22l-0.91-2.18l-0.45-1.1
			c-0.12-0.35-0.26-0.67-0.35-1.02c-0.09-0.35-0.17-0.7-0.21-1.05c-0.07-0.35-0.06-0.71-0.1-1.06c0.01-0.71,0.07-1.43,0.26-2.12
			c0.31-1.4,1.08-2.67,2.06-3.71c0.51-0.51,1.07-0.96,1.7-1.32c0.31-0.19,0.64-0.33,0.98-0.49l1.09-0.48
			c0.93-0.4,1.85-0.82,2.77-1.24l0.49-0.22c1.75-0.8,4.13-1.85,5.89-2.71c0.49,0.99,1.13,1.9,1.89,2.69
			c0.57,0.61,1.21,1.15,1.91,1.61c0.08,0.07,0.14,0.15,0.22,0.22c0.49,0.42,1.04,0.78,1.63,1.06l-0.38,0.14l-5.3,1.96l-5.3,1.96
			l-0.67,0.25l-0.33,0.12c-0.1,0.04-0.23,0.08-0.36,0.15c-0.49,0.3-0.7,0.84-0.75,1.34c-0.03,0.26,0.02,0.49,0.04,0.73l0.08,0.7
			l0.15,1.41c0,0.03,0,0.11,0.01,0.14c0.01,0.05,0.06,0.09,0.12,0.08c1.85-0.37,3.69-0.79,5.54-1.2l5.5-1.3
			c1.17-0.29,2.34-0.59,3.51-0.89c1.15-0.29,2.28-0.59,3.43-0.89c0,0,0,0.01,0.01,0.01c0.84,1.07,2.27,3.88,2.52,5.27
			C29.91,29.87,29.42,30.08,28.92,30.3z M29.08,24.07c0-0.01,0-0.01,0-0.01c0.93-0.25,1.87-0.49,2.8-0.74l0.03-0.01l0.05-0.02
			c0.62-0.22,1.31-0.18,1.91,0.08c0.16,0.08,0.39,0.13,0.66,0.4c0.17,0.14,0.32,0.29,0.45,0.47c0.67,0.93,0.63,2.28-0.11,3.17
			c-0.18,0.22-0.4,0.42-0.64,0.57c-0.19,0.12-0.61,0.29-0.97,0.45l-1.77,0.76C30.81,28.06,29.4,25.47,29.08,24.07z M54.87,22.84
			c-1.52,2.17-3.12,4.28-4.84,6.29l-2.62,2.99l-1.31,1.5l-0.31,0.36c-0.08,0.09-0.17,0.18-0.26,0.25c-0.19,0.15-0.4,0.28-0.62,0.36
			c-0.44,0.17-0.93,0.2-1.39,0.08c-0.19-0.04-0.56-0.19-0.86-0.29l-0.93-0.34c-1.24-0.46-2.5-0.87-3.76-1.3
			c-1.26-0.4-2.52-0.8-3.8-1.16c-0.64-0.19-1.29-0.35-1.93-0.52c-0.12-0.03-0.23-0.05-0.35-0.08l2.12-0.84
			c0.37-0.15,0.7-0.25,1.2-0.52c0.43-0.25,0.83-0.58,1.15-0.95c0.67-0.76,1.06-1.74,1.13-2.75c0.02-0.45-0.04-0.9-0.14-1.32
			c0.76,0.36,1.52,0.71,2.28,1.07c0.61,0.29,1.83,0.82,2.51,1.11c0.29,0.13,0.61,0.06,0.84-0.15c0.05-0.05,0.1-0.1,0.16-0.16
			c0.06-0.06,0.12-0.12,0.19-0.19l0.21-0.21l0.35-0.35c0.12-0.12,0.24-0.25,0.38-0.39c0.2-0.2,0.43-0.43,0.66-0.67
			c0.11-0.11,0.22-0.22,0.33-0.33c0.56-0.58,1.18-1.21,1.84-1.88c0.26-0.26,0.52-0.54,0.8-0.82c0.4-0.41,0.81-0.84,1.23-1.27
			c0.58-0.61,1.17-1.23,1.75-1.83c0.09-0.1,0.18-0.19,0.27-0.28c0.26-0.28,0.52-0.55,0.77-0.82c0.08-0.08,0.16-0.17,0.24-0.26
			c1.46,0.95,3.64,2.82,4.03,3.75c-0.22,0.33-0.44,0.65-0.65,0.97C55.31,22.21,55.09,22.53,54.87,22.84z M58.12,17.98
			c-0.04,0.12-0.12,0.23-0.18,0.35c-0.08,0.13-0.19,0.28-0.28,0.41l-0.55,0.82c-0.06,0.08-0.11,0.16-0.16,0.24
			c-0.89-0.59-3.02-2.17-4.12-3.37c0.39-0.43,0.76-0.83,1.08-1.2c0.12-0.14,0.17-0.2,0.26-0.29c0.09-0.08,0.18-0.15,0.28-0.22
			c0.19-0.13,0.4-0.24,0.63-0.31c0.45-0.15,0.95-0.16,1.41-0.04c0.93,0.26,1.71,1.09,1.83,2.11C58.41,16.98,58.34,17.51,58.12,17.98
			z M59.66,13.85c-0.03,0.08-0.06,0.13-0.09,0.15c-0.03,0.02-0.18,0.06-0.26,0.09l-0.18,0.05c-0.02-0.03-0.04-0.07-0.06-0.1
			c-0.52-0.65-1.22-1.15-2.02-1.42c-0.8-0.26-1.68-0.29-2.5-0.06c-0.41,0.12-0.81,0.29-1.16,0.52c-0.19,0.12-0.35,0.24-0.52,0.38
			c-0.15,0.13-0.33,0.32-0.43,0.42c-0.44,0.46-0.87,0.94-1.3,1.41c-0.01,0-0.04,0.01-0.1,0.02c-0.04,0.01-0.11,0.03-0.17,0.04
			c-0.06,0.01-0.13,0.03-0.2,0.04c-0.65,0.15-1.81,0.44-2.67,0.67c-0.11,0.03-0.21,0.06-0.31,0.08c-0.34,0.1-0.6,0.17-0.71,0.22
			v-0.01c0.01-0.13,0.01-0.33,0-0.4l-0.01-0.27l-0.07-1.08l-0.06-1.08L46.79,13l-0.01-0.14c-0.01-0.07-0.01-0.15-0.03-0.22
			c-0.02-0.12-0.06-0.22-0.09-0.33c1.07,0.09,11.7-1.36,11.7-1.36l0.6-0.11l0.26-0.04c0.04,0.06,0.1,0.17,0.15,0.26
			c0.07,0.16,0.13,0.35,0.17,0.53c0.1,0.37,0.17,0.76,0.19,1.15C59.77,13.12,59.77,13.54,59.66,13.85z M96.23,7.83l-2.44,0.41
			l-4.88,0.82l-9.75,1.63L60.04,14c0.21-0.43,0.25-0.84,0.29-1.27c0.03-0.43,0.03-0.86-0.02-1.29c-0.03-0.22-0.06-0.44-0.12-0.67
			c-0.04-0.15-0.08-0.29-0.17-0.45c6.35-0.37,12.66-1.02,18.96-1.75c3.28-0.38,6.53-0.86,9.8-1.34l4.88-0.76l2.44-0.38l0.26-0.04
			l0.06,0.74l0.08,0.99L96.23,7.83z"/>
		<path class="st2" d="M58.12,17.98c-0.04,0.12-0.12,0.23-0.18,0.35c-0.08,0.13-0.19,0.28-0.28,0.41l-0.55,0.82
			c-0.06,0.08-0.11,0.16-0.16,0.24c-0.89-0.59-3.02-2.17-4.12-3.37c0.39-0.43,0.76-0.83,1.08-1.2c0.12-0.14,0.17-0.2,0.26-0.29
			c0.09-0.08,0.18-0.15,0.28-0.22c0.19-0.13,0.4-0.24,0.63-0.31c0.45-0.15,0.95-0.16,1.41-0.04c0.93,0.26,1.71,1.09,1.83,2.11
			C58.41,16.98,58.34,17.51,58.12,17.98z"/>
		<path class="st2" d="M34.88,27.41c-0.18,0.22-0.4,0.42-0.64,0.57c-0.19,0.12-0.61,0.29-0.97,0.45l-1.77,0.76
			c-0.69-1.12-2.11-3.71-2.42-5.11c0.93-0.24,1.87-0.5,2.8-0.76l0.03-0.01l0.05-0.02c0.62-0.22,1.31-0.18,1.91,0.08
			c0.16,0.08,0.39,0.13,0.66,0.4c0.17,0.14,0.32,0.29,0.45,0.47C35.65,25.16,35.62,26.51,34.88,27.41z"/>
	</g>
	<g>
		<path class="st8" d="M35.57,117.81C35.58,117.81,35.57,117.81,35.57,117.81L35.57,117.81L35.57,117.81z"/>
		<path class="st9" d="M109.59,97.76c-0.14,0.13-0.32,0.21-0.52,0.24c-0.39,0.05-0.83,0.04-1.09-0.25c-0.25-0.29-0.3-0.71-0.33-1.11
			c-0.03-0.82-0.01-1.66-0.03-2.5c-0.07-1.67-0.1-3.39-0.87-5.08c-0.2-0.42-0.48-0.83-0.86-1.18c-0.41-0.36-0.81-0.56-1.21-0.76
			c-0.79-0.38-1.57-0.69-2.37-0.98c-0.79-0.29-1.59-0.54-2.39-0.78c-0.8-0.25-1.6-0.48-2.39-0.7c-0.78-0.24-1.61-0.44-2.3-0.71
			c-0.71-0.29-1.36-0.69-1.93-1.2c-1.14-1.03-1.85-2.55-2.15-4.14c-0.29-1.6-0.34-3.28-0.38-4.94c0-0.8,0-1.62,0.04-2.43l0,0.38
			c0.04,1.68,0.14,3.38,0.49,5.09c0.18,0.85,0.41,1.71,0.79,2.56c0.19,0.42,0.42,0.84,0.7,1.24c0.27,0.4,0.69,0.79,1,1.05
			c0.65,0.57,1.35,1.12,2.11,1.6c0.77,0.47,1.62,0.85,2.5,1.11c0.88,0.26,1.74,0.4,2.55,0.53c0.81,0.13,1.59,0.28,2.36,0.48
			c1.53,0.4,3.05,0.92,4.21,1.82c0.58,0.46,1.02,0.96,1.28,1.69c0.29,0.72,0.49,1.52,0.65,2.32c0.33,1.61,0.5,3.28,0.56,4.93l0,0.01
			l0,0c0.04,0.4,0.01,0.83-0.12,1.21C109.83,97.46,109.73,97.63,109.59,97.76z"/>
		<path class="st9" d="M95.11,85.52c0.05,0,0.09-0.04,0.09-0.09c0-0.03-0.01-0.06,0.07-0.02c0.65,0.29,1.15,0.48,1.79,0.7
			c0.79,0.28,1.58,0.54,2.38,0.79l2.37,0.74c0.78,0.25,1.58,0.47,2.32,0.75c0.36,0.15,0.74,0.28,0.97,0.45
			c0.26,0.18,0.5,0.45,0.7,0.75c0.41,0.62,0.7,1.38,0.91,2.16c0.22,0.78,0.36,1.6,0.46,2.42c0.13,0.82,0.14,1.64,0.23,2.49
			c0.03,0.19,0.06,0.39,0.11,0.59c-0.43-0.39-0.93-0.7-1.43-0.99l-0.02-0.15c-0.02-0.15-0.04-0.3-0.08-0.44
			c-0.06-0.29-0.12-0.59-0.21-0.87c-0.16-0.58-0.34-1.15-0.57-1.71c-0.22-0.56-0.48-1.11-0.78-1.65c-0.3-0.54-0.65-1.06-1.08-1.55
			c-0.95-1.04-2.13-1.54-3.27-1.99c-1.16-0.42-2.38-0.67-3.6-0.75c-0.61-0.05-1.24-0.03-1.83,0c-0.55,0.02-1.1,0.01-1.65-0.09
			c-1.1-0.17-2.18-0.6-3.11-1.25c-0.47-0.32-0.92-0.68-1.31-1.1c-0.4-0.41-0.77-0.85-1.07-1.33c-0.3-0.47-0.59-0.98-0.72-1.49
			c-0.15-0.52-0.2-1.09-0.23-1.65c-0.04-1.02,0.04-2.04,0.14-3.06c0.05,0.71,0.12,1.41,0.22,2.13c0.1,0.6,0.21,1.21,0.39,1.83
			c0.09,0.31,0.2,0.62,0.35,0.94c0.15,0.31,0.37,0.67,0.68,0.94c0.94,0.84,2.04,1.49,3.2,1.9C92.71,85.35,93.93,85.51,95.11,85.52
			L95.11,85.52z"/>
		<path class="st7" d="M38.79,126.31l0.66-1.76l0.61,0.06c0.01,0.04,0.02,0.08,0.02,0.11c0.03,0.18,0.06,0.37,0.07,0.55
			c0.02,0.25,0,0.49-0.04,0.72L38.79,126.31z"/>
		<path class="st7" d="M33.37,119.57c-0.03,0.11-0.05,0.2-0.08,0.31l-1.5,0.39l0.65-1.73l1.19,0.11l-0.1,0.36L33.37,119.57z"/>
		<path class="st10" d="M37.63,103.78l-0.05,0c0.52-0.02,0.96-0.12,1.41-0.3c0.45-0.17,0.88-0.44,1.22-0.81
			c0.34-0.37,0.56-0.85,0.65-1.33c0.04-0.24,0.06-0.48,0.05-0.71l-0.03-0.66c0-0.06-0.01-0.12-0.02-0.18
			c1.26,0.31,2.46,0.61,3.67,0.92c1.25,0.34,2.55,0.55,3.82,0.89c1.27,0.34,2.53,0.74,3.78,1.17c1.18,0.39,2.35,0.82,3.52,1.28
			c-0.09,0.68-0.12,1.34-0.2,1.96c-0.08,0.78-0.28,1.49-0.46,2.18c-0.18,0.73-0.44,1.45-0.74,2.21c-0.53-0.3-1.05-0.61-1.59-0.9
			c-0.68-0.39-1.49-0.67-2.21-0.92c-1.47-0.51-2.96-1.01-4.51-1.38c-0.78-0.18-1.57-0.33-2.39-0.42c-0.83-0.09-1.66-0.09-2.48-0.04
			c-0.82,0.04-1.63,0.16-2.42,0.33c-0.8,0.17-1.57,0.35-2.35,0.63c-1.57,0.54-3.01,1.33-4.33,2.24c-1.33,0.91-2.54,1.95-3.64,3.09
			c-1.11,1.13-2.12,2.34-3.11,3.56c-0.87,1.08-1.72,2.16-2.55,3.28c-0.16,0.22-0.39,0.01-0.39,0.01c-0.41-0.3-0.82-0.61-1.22-0.92
			c0.01-0.02,0-0.04,0.01-0.06c0.16-0.25,0.33-0.49,0.51-0.71l0.1-0.12c0,0,0.15-0.15,0.17-0.33c0.03-0.37-0.15-0.5-0.23-0.62
			c-0.07-0.07-0.13-0.12-0.2-0.17c1-0.94,2.03-1.85,3.02-2.79c1.11-1.04,2.15-2.14,3.18-3.26c1.03-1.11,2.04-2.26,3.01-3.44
			c0.72-0.88,1.4-1.78,2.06-2.71C34.34,104.32,35.97,103.98,37.63,103.78z"/>
		<path class="st7" d="M19.09,121.03l0.22-1.59l1.09-0.07c0.39,0.25,0.79,0.51,1.18,0.77L19.09,121.03z"/>
		<path class="st8" d="M106.26,106.97c-0.01-0.01-0.01-0.02-0.02-0.02C106.23,106.95,106.23,106.91,106.26,106.97z"/>
		<path class="st7" d="M9.13,116.58c0.1,0.1,0.21,0.19,0.31,0.29c0.21,0.18,0.42,0.34,0.64,0.49c0.17,0.12,0.35,0.22,0.52,0.32
			l-1.8,1.36l-0.68-2.37l0.81-0.3C9,116.45,9.06,116.51,9.13,116.58z"/>
		<path class="st8" d="M11.75,114.69l-0.84,0.9c0.08,0.06,0.16,0.13,0.25,0.19c0.13,0.09,0.28,0.15,0.42,0.24
			c1.39-1.87,3.04-3.5,4.82-4.93c2.01-1.62,4.2-2.98,6.49-4.13c2.29-1.15,4.67-2.09,7.12-2.81c2.45-0.7,4.98-1.16,7.52-1.32l0.03,0
			h0.02c0.72,0,1.54-0.22,2.04-0.71c0.26-0.24,0.44-0.56,0.54-0.92c0.1-0.35,0.1-0.76,0.11-1.19c0.01-0.84-0.04-1.69-0.14-2.54
			c-0.1-0.85-0.24-1.68-0.4-2.53c-0.01-0.05,0.02-0.09,0.06-0.1c0.05-0.01,0.1,0.02,0.11,0.06l0,0c0.23,0.82,0.47,1.65,0.63,2.51
			c0.14,0.73,0.24,1.47,0.31,2.22c1.3-0.3,2.64-0.24,3.93-0.07c1.35,0.18,2.61,0.71,3.87,1.15c1.26,0.46,2.5,0.98,3.71,1.53
			c1.12,0.53,2.24,1.07,3.32,1.68c0.02-0.12,0.03-0.24,0.06-0.36c0.08-0.4,0.19-0.94,0.48-1.36c0.28-0.42,0.66-0.75,1.05-0.98
			c0.8-0.46,1.64-0.65,2.46-0.79c1.65-0.26,3.27-0.23,4.88-0.39c0.04,0,0.09,0.02,0.1,0.07c0.01,0.05-0.02,0.1-0.07,0.11
			c-1.59,0.37-3.23,0.51-4.75,0.93c-0.76,0.21-1.5,0.48-2.07,0.89c-0.28,0.21-0.51,0.45-0.65,0.72c-0.15,0.27-0.18,0.55-0.21,0.95
			c-0.05,0.75,0.01,1.53,0.05,2.37c0.03,0.83,0.06,1.76-0.2,2.63c-0.26,0.87-0.72,1.66-1.27,2.33c-0.47,0.57-1.03,1.04-1.65,1.43
			c-0.64,1.16-1.5,2.22-2.55,3.09c-0.68,0.6-1.48,1.05-2.28,1.46c-0.81,0.4-1.68,0.67-2.54,0.9c-0.87,0.22-1.74,0.34-2.62,0.41
			c-0.44,0.04-0.87,0.05-1.31,0.06l-0.33,0.01l-0.36-0.02c-0.23-0.03-0.46-0.05-0.67-0.09c-0.88-0.15-1.72-0.34-2.56-0.5
			c-0.77-0.13-1.54-0.25-2.32-0.35c-0.07,0.13-0.13,0.26-0.2,0.39c-0.06,0.1-0.11,0.19-0.18,0.3c-0.03,0.05-0.07,0.1-0.12,0.16
			c-0.04,0.03-0.04,0.07-0.19,0.14c-0.02,0.02-0.21,0.02-0.18,0.01l-0.02,0l-0.04-0.01c-0.28-0.04-0.58-0.05-0.87-0.06
			c-0.19-0.15-0.11,0.04-0.15,0.08l-0.06,0.74l-0.06,0.46c0.1,0,0.2,0.02,0.29,0.06c1.08-0.02,2.16-0.11,3.26-0.17l4.11-0.23
			c1.38-0.06,2.77-0.09,4.17-0.01c0.35,0.01,0.7,0.04,1.06,0.08c0.37,0.03,0.71,0.09,1,0.11c0.29,0.02,0.56,0.01,0.72-0.03
			c0.08-0.02,0.11-0.04,0.13-0.05c0.01,0,0,0,0.02-0.01l0.45-0.5c0.9-0.43,1.82-1,2.72-1.58c0.92-0.57,1.82-1.19,2.76-1.77
			c0.93-0.59,1.89-1.15,2.88-1.66c0.85-0.41,1.72-0.79,2.63-1.05c0.24-0.12,0.49-0.24,0.73-0.35c0.74-0.32,1.51-0.55,2.29-0.74
			c0.78-0.19,1.58-0.3,2.38-0.35c0.8-0.03,1.6-0.03,2.4,0.02c0.4,0.01,0.8,0.06,1.19,0.09c0.4,0.03,0.75,0.06,1.13,0.07
			c0.75,0.01,1.5-0.08,2.23-0.25c1.47-0.34,2.87-1.1,3.97-2.19l0-0.01c0.02-0.02,0.05-0.02,0.08-0.01c0.03,0.02,0.03,0.06,0.01,0.08
			c-0.97,1.26-2.35,2.2-3.88,2.72c-0.77,0.25-1.57,0.42-2.39,0.47c-0.4,0.02-0.83,0.02-1.21,0.02c-0.38,0-0.77-0.02-1.15,0.01
			c-1.53,0.05-3.04,0.29-4.55,0.47c-1.2,0.18-2.41,0.36-3.6,0.68c-0.51,1.79-1.24,3.53-2.26,5.14c-0.51,0.82-1.11,1.59-1.8,2.29
			c-0.68,0.71-1.45,1.34-2.31,1.86c-1.7,1.07-3.7,1.6-5.68,1.71c-0.99,0.04-1.98-0.02-2.95-0.16c-0.56-0.1-0.99-0.23-1.46-0.37
			c-0.23-0.07-0.45-0.14-0.68-0.21l-0.11,0.34l-0.16,0.49l-0.49,0.01l-0.84,0.02c0.01,0.2,0.01,0.39-0.01,0.59
			c-0.02,0.23-0.05,0.46-0.1,0.7c4.74-0.02,9.47-0.46,14.13-1.3l1.83-0.34c0.3-0.06,0.57-0.12,0.8-0.22
			c0.23-0.09,0.38-0.2,0.51-0.35c0.28-0.32,0.59-0.94,0.94-1.46c0.35-0.53,0.72-1.06,1.11-1.57c0.79-1.02,1.67-2,2.68-2.85
			c1.01-0.86,2.18-1.57,3.46-2.06c1.27-0.48,2.64-0.7,3.99-0.71c0.38-0.01,0.56,0,0.84-0.02c0.26-0.02,0.52-0.07,0.79-0.13
			c0.53-0.13,1.08-0.32,1.61-0.55c1.06-0.47,2.17-1.06,3.23-1.66c1.07-0.61,2.13-1.24,3.16-1.91l0.78-0.5
			c0.31-0.21,0.63-0.36,0.94-0.49c0.63-0.25,1.27-0.41,1.9-0.54c1.27-0.25,2.53-0.36,3.8-0.39c1.27-0.03,2.53,0.03,3.79,0.2
			c0.9,0.12,1.82,0.29,2.68,0.6c-0.1-0.07-0.21-0.13-0.31-0.2c-0.04-0.03-0.05-0.08-0.03-0.12c0.03-0.04,0.08-0.06,0.12-0.03
			c2.14,1.21,4.57,1.81,6.98,1.93c1.21,0.04,2.42-0.03,3.57-0.3c0.58-0.14,1.15-0.3,1.68-0.54l0.4-0.17
			c0.15-0.08,0.3-0.15,0.46-0.22c0.31-0.13,0.63-0.24,0.95-0.33c0.28-0.07,0.57-0.13,0.85-0.18c-0.45-0.16-0.89-0.34-1.33-0.53
			c-0.43-0.19-0.85-0.4-1.26-0.63c-0.21-0.12-0.42-0.24-0.63-0.39c-0.11-0.08-0.21-0.15-0.34-0.28c-0.06-0.08-0.13-0.11-0.23-0.38
			c-0.05-0.23-0.02-0.21-0.03-0.26l0-0.11c0.02-0.55,0.19-0.97,0.38-1.41c0.2-0.43,0.44-0.84,0.79-1.21
			c0.01-0.01,0.02-0.02,0.04-0.02c0.04-0.01,0.07,0.02,0.08,0.05c0.09,0.5,0.09,0.97,0.07,1.42c-0.02,0.44-0.07,0.88-0.13,1.24
			c0.03,0.03,0.05,0.06,0.08,0.08c0.14,0.14,0.31,0.27,0.48,0.4c0.35,0.26,0.72,0.5,1.1,0.73c0.74,0.44,1.53,0.82,2.34,1.16
			c0.55-0.02,1.1-0.01,1.65,0.03c0.64,0.05,1.27,0.11,1.9,0.22c0.31,0.05,0.61,0.11,0.94,0.17c0.32,0.08,0.63,0.16,0.94,0.25
			c1.23,0.36,2.35,0.9,3.48,1.21c0.56,0.15,1.15,0.23,1.72,0.19c0.53-0.04,1.1-0.2,1.38-0.56c-0.31-0.06-0.62-0.1-0.92-0.17
			c-0.55-0.14-1.13-0.2-1.6-0.49c-0.48-0.28-0.93-0.61-1.32-1.11c-0.01-0.01-0.01-0.02-0.01-0.03c-0.01-0.04,0.02-0.07,0.06-0.08
			c0.63-0.11,1.2-0.02,1.73,0.11c0.54,0.13,0.98,0.47,1.46,0.7c0.49,0.22,0.98,0.44,1.49,0.64c0.12,0.05,0.24,0.09,0.36,0.14
			c0.28,0,0.55,0.03,0.8,0.08c0.3,0.05,0.58,0.11,0.84,0.13c0.26,0.02,0.48-0.02,0.66-0.12c0.17-0.09,0.33-0.26,0.46-0.46
			c-0.07,0.01-0.14,0.04-0.21,0.03c-0.53-0.04-1.77-1.23-0.89-1.17c0.87,0.06,0.52-1.05,1.03-1.04c-0.49-0.56-1.25-1.03-2.03-1.35
			c-0.42-0.17-1.12-0.38-1.69-0.71c-0.58-0.32-1.11-0.74-1.57-1.19c-0.46-0.44-0.84-0.93-1.2-1.37c-0.37-0.44-0.7-0.85-1.06-1.21
			c-0.18-0.18-0.37-0.35-0.56-0.5c-0.17-0.15-0.46-0.33-0.68-0.5c-0.46-0.35-0.91-0.68-1.37-0.99c-0.46-0.31-0.91-0.6-1.39-0.84
			c-0.24-0.12-0.48-0.22-0.73-0.32c-0.28-0.11-0.57-0.23-0.84-0.37c-0.55-0.28-1.06-0.6-1.54-0.95c-0.47-0.34-0.9-0.68-1.41-0.88
			c-0.03,0.14-0.05,0.28-0.1,0.41c-0.08,0.21-0.2,0.41-0.37,0.56c-0.17,0.16-0.4,0.25-0.62,0.28c-0.41,0.06-0.92,0.06-1.25-0.29
			c-0.04-0.05-0.07-0.1-0.1-0.15c-0.66-0.36-1.36-0.59-2.08-0.76c-0.73-0.18-1.47-0.33-2.21-0.43c-0.37-0.05-0.75-0.09-1.13-0.12
			c-0.38-0.02-0.76-0.03-1.13-0.1c-0.49-0.1-0.97-0.27-1.45-0.47c0.13,0.36,0.32,0.71,0.57,1.03c0.43,0.55,1.01,1.01,1.63,1.4
			c1.26,0.77,2.71,1.28,4.18,1.55l0.71,0.13l-0.54,0.46c-0.62,0.52-1.38,0.87-2.15,1.02c-0.78,0.15-1.56,0.14-2.32,0.04
			c-0.91-0.12-1.78-0.34-2.64-0.59c-1.26-0.29-2.55-0.48-3.83-0.69l-5.35-0.77c-1.79-0.27-3.57-0.57-5.35-1.08
			c-0.44-0.13-0.89-0.27-1.33-0.46c-0.44-0.18-0.9-0.42-1.28-0.7c-0.78-0.54-1.46-1.14-2.16-1.71c-1.38-1.15-2.76-2.25-4.26-3.1
			c-0.75-0.42-1.53-0.77-2.33-1c-0.4-0.11-0.8-0.21-1.21-0.26l-1.33-0.15c-3.57-0.42-7.16-0.74-10.74-1.35
			c-3.59-0.59-7.11-1.6-10.52-2.81c-0.86-0.31-1.69-0.6-2.53-0.85c-0.85-0.24-1.71-0.43-2.59-0.55c-1.75-0.25-3.54-0.26-5.31-0.04
			c-3.54,0.42-6.94,1.67-10.18,3.19c-1.62,0.74-3.19,1.58-4.38,2.82c-0.59,0.62-1.07,1.32-1.35,2.09c-0.14,0.38-0.23,0.78-0.26,1.18
			c-0.01,0.09-0.01,0.18-0.01,0.28l2.01-1.78l0.57-0.5l0.29,0.71c0.23,0.57,0.39,1.12,0.47,1.74c0.04,0.3,0.02,0.68-0.01,0.94
			c-0.02,0.28-0.06,0.56-0.1,0.85c-0.16,1.13-0.5,2.26-1.03,3.32c-0.53,1.06-1.31,2.01-2.23,2.77c-0.47,0.37-0.96,0.71-1.48,0.99
			c-0.26,0.13-0.52,0.28-0.79,0.39c-0.25,0.11-0.63,0.26-0.58,0.26c-0.07,0.05-0.19,0.2-0.32,0.4c-0.13,0.2-0.27,0.45-0.44,0.71
			c-0.09,0.13-0.19,0.27-0.32,0.41c-0.13,0.15-0.2,0.21-0.3,0.32l-0.57,0.59l-2.27,2.36l-3.94,4.09l0.51,0.59L11.75,114.69z
			 M112.05,101.56l0.59-0.26l-0.26-0.59c-0.14-0.3,0-0.66,0.3-0.79c0.3-0.14,0.66,0,0.79,0.3l0.26,0.59l0.59-0.26
			c0.3-0.14,0.66,0,0.79,0.3c0.14,0.3,0,0.66-0.3,0.79l-0.59,0.26l0.26,0.59c0.14,0.3,0,0.66-0.3,0.79
			c-0.08,0.04-0.16,0.05-0.24,0.05c-0.23,0-0.45-0.13-0.55-0.35l-0.26-0.59l-0.59,0.26c-0.08,0.04-0.16,0.05-0.25,0.05
			c-0.23,0-0.45-0.13-0.55-0.35C111.61,102.05,111.75,101.69,112.05,101.56z"/>
		<path class="st10" d="M71.39,112c0.92,0.19,5.32-0.63,6.14,0.97c-2.03,1.21-6.24,2.9-7.6,2.9c-1.35,0-2.37,0.34-3.36,0.25
			c-8.87,3.32-7.38,1.22-8.39,1.72c-1.33,0.65,1.83-3.75,1.65-4.17c1.11-0.7,6.86-1.62,7.98-1.67C68.92,111.95,71.39,112,71.39,112z
			"/>
		<path class="st10" d="M22.88,94.93c0,0,1.32-3.03,3.54-3.24c3.43,1.48,4.26,10.22-5.68,11.93c1.68-1.23,3.71-2.84,3.92-5.27
			s0.52-4.13,0.52-4.13L22.88,94.93z"/>
		<path class="st10" d="M107.95,97.77c-3.11-0.24-1.21,2.39-2.98,2.15c-1.77-0.24-4.9-1.85-4.42-3.38s6.3,0.75,6.78,0.83
			L107.95,97.77z"/>
		<path class="st11" d="M83.32,97.89c-0.23,0.84-6.08,0.47-13.24,0.47s-10.74-2.91-17.46-6.04c-6.72-3.13-17.71-6.59-21.29-5.03
			c3.13-2.24,4.17-1.62,7.64-2.2c3.47-0.58,9.04,0.51,12.87,2.02c3.83,0.65,16.85,2.53,20.1,3.04
			C75.2,90.65,83.32,97.89,83.32,97.89z"/>
		<path class="st10" d="M125.73,109.24l-6.04-1.15c-1.27-0.24-2.53,0.44-3.02,1.63l-0.53,1.28c0,0,4.17,1.66,5.42,0.78
			c1.88-1.32,4.75-0.77,4.75-0.77l0.59-1.08L125.73,109.24z"/>
		<path class="st10" d="M114.73,99.12c1.29,0.66-0.83,2.65-0.03,3.82c0.8,1.17-1.5,1.01-2.59,0.82c-3.88-0.67-4.62-3.69-5.77-3.75
			c-1.16-0.06-1.52-3.26-0.18-2.13c2.78,2.34,3.47,1.89,5.36,1.34c1.89-0.55,2.98-0.43,2.98-0.43L114.73,99.12z"/>
		<path class="st7" d="M8.67,115.19l-2.01,0.75l1.47,5.12l4.05-2.59l0.47-0.67c1.36-1.96,3.05-3.74,4.93-5.29
			c1.89-1.55,3.93-2.93,6.09-4.11c2.16-1.18,4.43-2.17,6.77-2.95c0.4-0.13,0.8-0.25,1.2-0.37c-0.6,0.53-1.2,1.06-1.79,1.6
			c-1.12,1.03-2.22,2.07-3.3,3.15c-1.08,1.07-2.15,2.15-3.14,3.32c-0.99,1.16-1.91,2.39-2.86,3.59l-0.29,0.36l0.34,0.21l0.17,0.11
			l0.12,0.08c0.07,0.05,0.13,0.1,0.18,0.15c-0.02,0.03-0.04,0.05-0.06,0.07c-0.13,0.16-0.24,0.33-0.35,0.49
			c-0.06-0.01-2.39,0.11-2.39,0.11l-0.64,4.52l5.12-1.83c0.3-0.11,2.05-2.95,3.01-3.96c1.07-1.11,2.22-2.14,3.43-3.09
			c2.4-1.87,4.94-3.61,7.73-4.45c1.4-0.43,2.89-0.71,4.34-0.88c0.73-0.08,1.46-0.09,2.18-0.06c0.74,0.03,1.48,0.11,2.23,0.23
			c1.5,0.22,3.01,0.54,4.54,0.84c0.79,0.14,1.48,0.27,2.23,0.51c0.58,0.17,1.15,0.37,1.74,0.55c-0.15,0.39-0.31,0.79-0.47,1.2
			c-0.95,1.03-1.96,1.96-3.09,2.67c-1.37,0.87-2.87,1.45-4.47,1.8c-0.79,0.2-1.61,0.32-2.43,0.48l-1.24,0.21l-0.59,0.1
			c-0.2,0.02-0.4,0.05-0.61,0.06c-1.67,0.13-3.4-0.04-5.05-0.41l-0.22-0.05l-0.11,0.21c-0.1,0.18-0.2,0.37-0.3,0.55
			c-0.05,0.09-0.11,0.18-0.16,0.25c-0.01,0.01-0.01,0.01-0.02,0.02c-0.33-0.05-1.2-0.28-1.35-0.3l-2.44-0.23l-1.77,4.76l4.58-1.2
			c0,0,0,0,0,0c2.54,0.34,5.04,0.25,7.52,0.3c1.36,0.02,2.71,0.05,4.04,0.11l1,0.06l1.05,0.08c0.39,0.01,0.82,0.02,1.32-0.12
			c0.25-0.07,0.53-0.2,0.79-0.4c0.16-0.13,0.29-0.29,0.39-0.47c0.93-0.53,1.75-1.14,2.56-1.74c0.87-0.68,1.73-1.36,2.57-2.05
			c0.85-0.68,1.69-1.36,2.57-1.99c0.38-0.28,0.77-0.55,1.17-0.8c0.14-0.05,0.27-0.08,0.41-0.13c-0.82,1.59-1.73,3.12-2.81,4.48
			c-1.13,1.43-2.48,2.65-4.02,3.49c-1.54,0.84-3.27,1.27-5.03,1.33c-0.88,0.04-1.78-0.01-2.66-0.12c-0.37-0.05-0.84-0.16-1.28-0.27
			l-1.33-0.36l-0.73-0.2l-0.19,0.68l-0.16,0.59l-1.03,0.06l-0.64,0.04l-1.3-0.12L36.88,128l4.03-0.96c0.05-0.01,0.09-0.04,0.14-0.06
			c4.81-0.6,9.61-0.98,14.45-1.31l1.87-0.16c0.32-0.03,0.66-0.06,1.02-0.16c0.36-0.09,0.78-0.29,1.09-0.58
			c0.3-0.29,0.5-0.57,0.69-0.83l0.54-0.75c0.36-0.49,0.73-0.97,1.12-1.43c1.54-1.84,3.37-3.42,5.53-4.14
			c1.07-0.38,2.19-0.57,3.34-0.57c0.24-0.01,0.68,0,1.03-0.05c0.36-0.04,0.71-0.12,1.05-0.21c0.67-0.18,1.3-0.44,1.9-0.72
			c2.34-1.18,4.4-2.6,6.42-4.12l0.74-0.58c0.2-0.15,0.44-0.29,0.69-0.41c0.52-0.24,1.08-0.42,1.67-0.58c1.16-0.31,2.38-0.5,3.6-0.62
			c1.22-0.12,2.46-0.17,3.69-0.12c1.22,0.07,2.47,0.19,3.61,0.65l0,0c0.02,0.01,0.05,0.01,0.07,0c1.76,0.96,3.74,1.54,5.76,1.75
			c1.26,0.13,2.55,0.12,3.82-0.1c0.63-0.12,1.27-0.26,1.88-0.5l0.46-0.17l0.4-0.12c0.27-0.07,0.55-0.13,0.83-0.17
			c2.26-0.31,4.72,0.18,7.03,0.59c1.17,0.23,2.38,0.56,3.69,0.69c0.65,0.06,1.32,0.05,1.97-0.07c0.33-0.06,0.66-0.15,0.97-0.3
			c0.27-0.13,0.54-0.32,0.75-0.59c0.48-0.17,0.99-0.14,1.51-0.01c0.27,0.07,0.55,0.16,0.86,0.22c0.31,0.06,0.69,0.09,1.05-0.03
			c0.36-0.12,0.66-0.34,0.9-0.58c0.24-0.24,0.44-0.48,0.61-0.8c0.17-0.31,0.29-0.68,0.31-1.07c0.02-0.39-0.05-0.78-0.19-1.13
			c-0.29-0.69-0.76-1.22-1.26-1.64c-0.5-0.42-1.05-0.76-1.62-1.04c-0.63-0.29-1.04-0.45-1.47-0.73c-0.42-0.26-0.79-0.59-1.14-0.97
			c-0.71-0.74-1.35-1.76-2.33-2.63c-0.24-0.21-0.5-0.42-0.77-0.61c-0.29-0.2-0.49-0.33-0.75-0.49c-0.49-0.31-1-0.62-1.54-0.91
			c-0.53-0.29-1.1-0.54-1.69-0.75c-0.3-0.1-0.6-0.19-0.91-0.25c-0.28-0.06-0.54-0.11-0.8-0.18c-0.53-0.14-1.06-0.33-1.6-0.53
			c-0.53-0.18-1.08-0.43-1.69-0.44c0.03-0.23,0.05-0.47,0.04-0.7l0,0.01c0.05-1.67,0.05-3.34-0.04-5.04
			c-0.06-0.85-0.14-1.7-0.35-2.56c-0.1-0.42-0.26-0.91-0.51-1.32c-0.24-0.42-0.54-0.8-0.88-1.13c-0.68-0.65-1.45-1.16-2.25-1.54
			c-0.8-0.39-1.63-0.7-2.46-0.94c-0.83-0.24-1.68-0.43-2.51-0.59c-0.83-0.16-1.61-0.29-2.34-0.5c-1.44-0.42-2.74-1.24-3.97-2.26
			c-0.34-0.27-0.53-0.45-0.75-0.73c-0.21-0.27-0.4-0.58-0.56-0.91c-0.33-0.66-0.57-1.41-0.76-2.18c-0.38-1.54-0.58-3.17-0.75-4.81
			l-0.26-2.49c-0.02-0.21-0.05-0.42-0.09-0.64c-0.05-0.23-0.06-0.42-0.2-0.76c-0.02-0.04-0.06-0.1-0.11-0.17
			c-0.04-0.04-0.06-0.07-0.12-0.11c-0.07-0.04-0.13-0.08-0.22-0.1c-0.2-0.04-0.31,0.01-0.4,0.06c-0.1,0.05-0.15,0.1-0.2,0.15
			c-0.16,0.2-0.19,0.33-0.23,0.45c-0.07,0.25-0.1,0.47-0.13,0.69c-0.09,0.87-0.09,1.71-0.08,2.55c0,0.84,0.03,1.68,0.06,2.51
			c0.02,0.84,0.08,1.67,0.12,2.51c0.04,0.84,0.1,1.67,0.21,2.52c0.24,1.68,0.81,3.41,2.02,4.77c0.6,0.67,1.33,1.24,2.13,1.66
			c0.13,0.06,0.26,0.11,0.39,0.17c-2.24-0.63-4.24-1.72-5.67-3.35c-0.21-0.23-0.37-0.73-0.48-1.24c-0.11-0.52-0.17-1.07-0.22-1.63
			c-0.1-1.12-0.14-2.28-0.16-3.44c-0.06-1.17-0.05-2.32-0.18-3.56c-0.04-0.33-0.06-0.61-0.19-1.07c-0.02-0.07-0.04-0.13-0.09-0.22
			c-0.02-0.05-0.04-0.08-0.09-0.16l-0.07-0.09c-0.04-0.04-0.09-0.1-0.14-0.14l-0.08-0.06c-0.04-0.03-0.09-0.06-0.14-0.08
			c-0.1-0.05-0.19-0.08-0.32-0.09c-0.12-0.01-0.26,0-0.35,0.02c-0.09,0.02-0.17,0.06-0.25,0.1c-0.23,0.14-0.31,0.26-0.37,0.33
			c-0.2,0.31-0.23,0.45-0.3,0.64c-0.21,0.67-0.3,1.25-0.39,1.86c-0.34,2.4-0.39,4.8,0.02,7.21c0.11,0.6,0.25,1.2,0.48,1.79
			c0.24,0.6,0.58,1.1,0.94,1.6c0.72,0.97,1.58,1.83,2.55,2.54c0.97,0.72,2.05,1.31,3.24,1.66c0.59,0.2,1.21,0.3,1.83,0.37
			c0.58,0.07,1.12,0.14,1.68,0.25c0.55,0.12,1.1,0.22,1.64,0.38c0.54,0.13,1.08,0.29,1.6,0.47c1.04,0.35,2.09,0.81,2.79,1.46
			c0.76,0.73,1.41,1.67,2.01,2.65c0.29,0.49,0.58,0.99,0.85,1.51l0.4,0.78l0.13,0.26c-0.63-0.32-1.27-0.59-1.93-0.84l-1.12-0.41
			c-0.37-0.14-0.75-0.28-1.14-0.35c-0.78-0.13-1.58-0.09-2.4,0.11l-0.56,0.14l0.04,0.38c0.09,0.86,0.48,1.68,1.02,2.33
			c0.54,0.65,1.2,1.15,1.9,1.55c0.7,0.4,1.43,0.71,2.18,0.96c0.51,0.17,1.02,0.3,1.55,0.41c-0.38,0.24-0.8,0.42-1.24,0.53
			c-0.69,0.17-1.42,0.2-2.15,0.15c-0.95-0.07-1.91-0.26-2.85-0.49c-1.18-0.34-2.38-0.6-3.57-0.85l-5.3-1.04
			c-1.75-0.37-3.52-0.72-5.18-1.27c-0.84-0.29-1.61-0.59-2.26-1.1c-0.68-0.51-1.34-1.12-2.02-1.71c-1.35-1.2-2.74-2.42-4.36-3.37
			c-0.81-0.48-1.67-0.89-2.6-1.18c-0.46-0.14-0.93-0.27-1.42-0.33l-1.35-0.2c-3.58-0.49-7.15-0.89-10.68-1.41
			c-1.76-0.26-3.52-0.55-5.27-0.9c-1.75-0.36-3.48-0.79-5.2-1.28c-0.85-0.24-1.74-0.5-2.63-0.71c-0.9-0.2-1.8-0.34-2.71-0.44
			c-1.82-0.19-3.66-0.14-5.46,0.09c-3.62,0.47-7.07,1.68-10.41,3.07c-1.67,0.67-3.36,1.54-4.72,2.87c-1.33,1.31-2.36,3.24-1.85,5.36
			l0.19,0.77l0.64-0.55l2.09-1.81c0.04,0.22,0.07,0.45,0.08,0.65c0.01,0.24-0.02,0.41-0.06,0.7c-0.04,0.26-0.08,0.52-0.13,0.77
			c-0.21,1.02-0.52,2-1.01,2.87c-0.48,0.88-1.14,1.62-1.92,2.23c-0.4,0.3-0.82,0.56-1.27,0.78c-0.23,0.1-0.45,0.23-0.69,0.31
			l-0.35,0.14c-0.06,0.02-0.37,0.14-0.55,0.28c-0.37,0.28-0.57,0.58-0.74,0.83c-0.17,0.26-0.3,0.48-0.43,0.67
			c-0.18,0.28-0.67,0.7-1.03,1.08l-2.31,2.31l-4.63,4.62l-0.61,0.61L9.78,114l-0.92,0.99L8.67,115.19
			C8.67,115.19,8.67,115.19,8.67,115.19z M40.15,125.27c0.02,0.25,0,0.49-0.04,0.72l-1.32,0.32l0.66-1.76l0.61,0.06
			c0.01,0.04,0.02,0.08,0.02,0.11C40.11,124.9,40.14,125.09,40.15,125.27z M33.63,118.65l-0.1,0.36l-0.16,0.55
			c-0.03,0.11-0.05,0.2-0.08,0.31l-1.5,0.39l0.65-1.73L33.63,118.65z M95.11,85.52L95.11,85.52c0.05,0,1.32,0.37,1.96,0.59
			c0.79,0.28,1.58,0.54,2.38,0.79l2.37,0.74c0.78,0.25,1.58,0.47,2.32,0.75c0.36,0.15,0.74,0.28,0.97,0.45
			c0.26,0.18,0.5,0.45,0.7,0.75c0.41,0.62,0.7,1.38,0.91,2.16c0.22,0.78,0.36,1.6,0.46,2.42c0.13,0.82,0.14,1.64,0.23,2.49
			c0.03,0.19,0.06,0.39,0.11,0.59c-0.43-0.39-0.93-0.7-1.43-0.99l-0.02-0.15c-0.02-0.15-0.04-0.3-0.08-0.44
			c-0.06-0.29-0.12-0.59-0.21-0.87c-0.16-0.58-0.34-1.15-0.57-1.71c-0.22-0.56-0.48-1.11-0.78-1.65c-0.3-0.54-0.65-1.06-1.08-1.55
			c-0.95-1.04-2.13-1.54-3.27-1.99c-1.16-0.42-2.38-0.67-3.6-0.75c-0.61-0.05-1.24-0.03-1.83,0c-0.55,0.02-1.1,0.01-1.65-0.09
			c-1.1-0.17-2.18-0.6-3.11-1.25c-0.47-0.32-0.92-0.68-1.31-1.1c-0.4-0.41-0.77-0.85-1.07-1.33c-0.3-0.47-0.59-0.98-0.72-1.49
			c-0.15-0.52-0.2-1.09-0.23-1.65c-0.04-1.02,0.04-2.04,0.14-3.06c0.05,0.71,0.12,1.41,0.22,2.13c0.1,0.6,0.21,1.21,0.39,1.83
			c0.09,0.31,0.2,0.62,0.35,0.94c0.15,0.31,0.37,0.67,0.68,0.94c0.94,0.84,2.04,1.49,3.2,1.9C92.71,85.35,93.93,85.51,95.11,85.52z
			 M109.9,97.27c-0.07,0.19-0.17,0.36-0.31,0.49c-0.14,0.13-0.32,0.21-0.52,0.24c-0.39,0.05-0.83,0.04-1.09-0.25
			c-0.25-0.29-0.3-0.71-0.33-1.11c-0.03-0.82-0.01-1.66-0.03-2.5c-0.07-1.67-0.1-3.39-0.87-5.08c-0.2-0.42-0.48-0.83-0.86-1.18
			c-0.41-0.36-0.81-0.56-1.21-0.76c-0.79-0.38-1.57-0.69-2.37-0.98c-0.79-0.29-1.59-0.54-2.39-0.78c-0.8-0.25-1.6-0.48-2.39-0.7
			c-0.78-0.24-1.61-0.44-2.3-0.71c-0.71-0.29-1.36-0.69-1.93-1.2c-1.14-1.03-1.85-2.55-2.15-4.14c-0.29-1.6-0.34-3.28-0.38-4.94
			c0-0.8,0-1.62,0.04-2.43l0,0.38c0.04,1.68,0.14,3.38,0.49,5.09c0.18,0.85,0.41,1.71,0.79,2.56c0.19,0.42,0.42,0.84,0.7,1.24
			c0.27,0.4,0.69,0.79,1,1.05c0.65,0.57,1.35,1.12,2.11,1.6c0.77,0.47,1.62,0.85,2.5,1.11c0.88,0.26,1.74,0.4,2.55,0.53
			c0.81,0.13,1.59,0.28,2.36,0.48c1.53,0.4,3.05,0.92,4.21,1.82c0.58,0.46,1.02,0.96,1.28,1.69c0.29,0.72,0.49,1.52,0.65,2.32
			c0.33,1.61,0.5,3.28,0.56,4.93l0,0.01l0,0C110.06,96.46,110.03,96.89,109.9,97.27z M35.57,117.81L35.57,117.81L35.57,117.81
			C35.58,117.81,35.57,117.81,35.57,117.81z M21.57,120.15l-2.49,0.89l0.22-1.59l1.09-0.07C20.79,119.63,21.18,119.89,21.57,120.15z
			 M32.73,104.76c1.61-0.44,3.24-0.78,4.9-0.98l-0.05,0c0.52-0.02,0.96-0.12,1.41-0.3c0.45-0.17,0.88-0.44,1.22-0.81
			c0.34-0.37,0.56-0.85,0.65-1.33c0.04-0.24,0.06-0.48,0.05-0.71l-0.03-0.66c0-0.06-0.01-0.12-0.02-0.18
			c1.26,0.31,2.46,0.61,3.67,0.92c1.25,0.34,2.55,0.55,3.82,0.89c1.27,0.34,2.53,0.74,3.78,1.17c1.18,0.39,2.35,0.82,3.52,1.28
			c-0.09,0.68-0.12,1.34-0.2,1.96c-0.08,0.78-0.28,1.49-0.46,2.18c-0.18,0.73-0.44,1.45-0.74,2.21c-0.53-0.3-1.05-0.61-1.59-0.9
			c-0.68-0.39-1.49-0.67-2.21-0.92c-1.47-0.51-2.96-1.01-4.51-1.38c-0.78-0.18-1.57-0.33-2.39-0.42c-0.83-0.09-1.66-0.09-2.48-0.04
			c-0.82,0.04-1.63,0.16-2.42,0.33c-0.8,0.17-1.57,0.35-2.35,0.63c-1.57,0.54-3.01,1.33-4.33,2.24c-1.33,0.91-2.54,1.95-3.64,3.09
			c-1.11,1.13-2.12,2.34-3.11,3.56c-0.87,1.08-1.72,2.16-2.55,3.28c-0.15,0.22-0.39,0.01-0.39,0.01c-0.41-0.3-0.82-0.61-1.22-0.92
			c0.01-0.02,0-0.04,0.01-0.06c0.16-0.25,0.33-0.49,0.51-0.71l0.1-0.12c0,0,0.15-0.15,0.17-0.33c0.03-0.37-0.15-0.5-0.23-0.62
			c-0.07-0.07-0.13-0.12-0.2-0.17c1-0.94,2.03-1.85,3.02-2.79c1.11-1.04,2.15-2.14,3.18-3.26c1.03-1.11,2.04-2.26,3.01-3.44
			C31.38,106.59,32.07,105.69,32.73,104.76z M10.92,115.59l0.84-0.9l0.58-0.63l-0.51-0.59l3.94-4.09l2.27-2.36l0.57-0.59
			c0.1-0.11,0.17-0.17,0.3-0.32c0.13-0.14,0.22-0.28,0.32-0.41c0.18-0.26,0.31-0.51,0.44-0.71c0.13-0.2,0.25-0.35,0.32-0.4
			c-0.05,0.01,0.34-0.15,0.58-0.26c0.27-0.11,0.53-0.26,0.79-0.39c0.52-0.28,1.01-0.61,1.48-0.99c0.92-0.76,1.7-1.71,2.23-2.77
			c0.53-1.06,0.87-2.19,1.03-3.32c0.04-0.28,0.08-0.56,0.1-0.85c0.03-0.26,0.05-0.63,0.01-0.94c-0.08-0.63-0.24-1.17-0.47-1.74
			l-0.29-0.71l-0.57,0.5l-2.01,1.78c0-0.09,0-0.19,0.01-0.28c0.03-0.4,0.12-0.8,0.26-1.18c0.28-0.77,0.77-1.47,1.35-2.09
			c1.2-1.24,2.76-2.08,4.38-2.82c3.24-1.51,6.64-2.76,10.18-3.19c1.77-0.22,3.56-0.21,5.31,0.04c0.88,0.12,1.74,0.31,2.59,0.55
			c0.85,0.25,1.67,0.54,2.53,0.85c3.41,1.21,6.93,2.21,10.52,2.81c3.58,0.61,7.17,0.93,10.74,1.35l1.33,0.15
			c0.41,0.05,0.81,0.15,1.21,0.26c0.8,0.23,1.58,0.58,2.33,1c1.5,0.85,2.89,1.95,4.26,3.1c0.69,0.57,1.38,1.16,2.16,1.71
			c0.38,0.27,0.85,0.52,1.28,0.7c0.44,0.19,0.88,0.33,1.33,0.46c1.78,0.51,3.56,0.81,5.35,1.08l5.35,0.77
			c1.28,0.21,2.57,0.4,3.83,0.69c0.86,0.26,1.74,0.48,2.64,0.59c0.76,0.09,1.54,0.11,2.32-0.04c0.78-0.15,1.54-0.49,2.15-1.02
			l0.54-0.46l-0.71-0.13c-1.46-0.27-2.9-0.82-4.18-1.55c-2.2-1.27-1.24-2.05-0.75-1.96c0.37,0.07,0.75,0.08,1.13,0.1
			c0.38,0.03,0.75,0.07,1.13,0.12c0.75,0.1,1.49,0.25,2.21,0.43c0.72,0.17,1.42,0.4,2.08,0.76c0.03,0.05,0.06,0.1,0.1,0.15
			c0.34,0.35,0.85,0.35,1.25,0.29c0.22-0.03,0.45-0.12,0.62-0.28c0.17-0.16,0.29-0.36,0.37-0.56c0.05-0.13,0.07-0.27,0.1-0.41
			c0.51,0.2,0.94,0.54,1.41,0.88c0.47,0.35,0.99,0.67,1.54,0.95c0.27,0.14,0.56,0.26,0.84,0.37c0.25,0.1,0.49,0.21,0.73,0.32
			c0.48,0.24,0.94,0.53,1.39,0.84c0.46,0.31,0.91,0.64,1.37,0.99c0.21,0.17,0.5,0.35,0.68,0.5c0.2,0.15,0.38,0.32,0.56,0.5
			c0.36,0.36,0.69,0.77,1.06,1.21c0.37,0.44,0.74,0.92,1.2,1.37c0.46,0.45,0.99,0.87,1.57,1.19c0.57,0.33,1.27,0.54,1.69,0.71
			c0.78,0.33,1.54,0.79,2.03,1.35c-0.51-0.02-0.16,1.1-1.03,1.04c-0.88-0.06,0.35,1.14,0.89,1.17c0.07,0.01,0.14-0.02,0.21-0.03
			c-0.13,0.2-0.29,0.37-0.46,0.46c-0.18,0.1-0.4,0.13-0.66,0.12c-0.26-0.02-0.54-0.08-0.84-0.13c-0.26-0.05-0.53-0.08-0.8-0.08
			c-0.12-0.05-0.24-0.09-0.36-0.14c-0.51-0.2-1-0.41-1.49-0.64c-0.49-0.23-0.93-0.57-1.46-0.7c-0.53-0.13-1.1-0.23-1.73-0.11
			c-0.04,0.01-0.06,0.04-0.06,0.08c0,0.01,0.01,0.02,0.01,0.03c0.39,0.5,0.84,0.83,1.32,1.11c0.48,0.29,1.06,0.35,1.6,0.49
			c0.3,0.08,0.61,0.12,0.92,0.17c-0.29,0.36-0.85,0.52-1.38,0.56c-0.57,0.03-1.16-0.04-1.72-0.19c-1.13-0.3-2.25-0.84-3.48-1.21
			c-0.31-0.09-0.62-0.18-0.94-0.25c-0.33-0.07-0.63-0.12-0.94-0.17c-0.62-0.11-1.26-0.17-1.9-0.22c-0.54-0.04-1.09-0.05-1.65-0.03
			c-0.81-0.34-1.59-0.72-2.34-1.16c-0.38-0.23-0.75-0.46-1.1-0.73c-0.17-0.13-0.34-0.26-0.48-0.4c-0.03-0.03-0.05-0.06-0.08-0.08
			c0.07-0.35,0.11-0.8,0.13-1.24c0.02-0.45,0.02-0.92-0.07-1.42c-0.01-0.04-0.04-0.06-0.08-0.05c-0.01,0-0.03,0.01-0.04,0.02
			c-0.35,0.37-0.59,0.78-0.79,1.21c-0.19,0.44-0.36,0.86-0.38,1.41l0,0.11c0.01,0.04-0.02,0.03,0.03,0.26
			c0.1,0.27,0.17,0.3,0.23,0.38c0.12,0.12,0.23,0.2,0.34,0.28c0.21,0.15,0.42,0.27,0.63,0.39c0.42,0.23,0.84,0.44,1.26,0.63
			c0.44,0.19,0.88,0.37,1.33,0.53c-0.28,0.05-0.57,0.1-0.85,0.18c-0.32,0.09-0.64,0.2-0.95,0.33c-0.16,0.07-0.31,0.14-0.46,0.22
			l-0.4,0.17c-0.53,0.24-1.1,0.4-1.68,0.54c-1.16,0.27-2.37,0.34-3.57,0.3c-2.41-0.11-4.84-0.71-6.98-1.93
			c-0.04-0.03-0.1-0.01-0.12,0.03c-0.02,0.04-0.01,0.09,0.03,0.12c0.1,0.07,0.21,0.13,0.31,0.2c-0.87-0.31-1.78-0.48-2.68-0.6
			c-1.25-0.16-2.52-0.22-3.79-0.2c-1.27,0.04-2.53,0.14-3.8,0.39c-0.63,0.13-1.27,0.29-1.9,0.54c-0.31,0.13-0.64,0.29-0.94,0.49
			l-0.78,0.5c-1.04,0.67-2.1,1.3-3.16,1.91c-1.06,0.6-2.17,1.19-3.23,1.66c-0.54,0.23-1.08,0.43-1.61,0.55
			c-0.27,0.06-0.53,0.11-0.79,0.13c-0.27,0.03-0.46,0.01-0.84,0.02c-1.34,0.01-2.71,0.23-3.99,0.71c-1.27,0.48-2.45,1.2-3.46,2.06
			c-1.02,0.86-1.9,1.83-2.68,2.85c-0.39,0.51-0.76,1.04-1.11,1.57c-0.36,0.53-0.66,1.15-0.94,1.46c-0.14,0.15-0.28,0.25-0.51,0.35
			c-0.23,0.09-0.51,0.16-0.8,0.22l-1.83,0.34c-4.66,0.84-9.39,1.28-14.13,1.3c0.05-0.23,0.09-0.46,0.1-0.7
			c0.02-0.2,0.01-0.4,0.01-0.59l0.84-0.02l0.49-0.01l0.16-0.49l0.11-0.34c0.22,0.07,0.45,0.15,0.68,0.21
			c0.47,0.13,0.9,0.27,1.46,0.37c0.97,0.14,1.96,0.21,2.95,0.16c1.98-0.11,3.98-0.64,5.68-1.71c0.85-0.51,1.63-1.15,2.31-1.86
			c0.69-0.7,1.29-1.47,1.8-2.29c1.02-1.6,1.75-3.35,2.26-5.14c1.18-0.33,2.4-0.5,3.6-0.68c1.51-0.17,3.02-0.42,4.55-0.47
			c0.38-0.02,0.77-0.01,1.15-0.01c0.38,0,0.81,0,1.21-0.02c0.81-0.05,1.62-0.22,2.39-0.47c1.53-0.53,2.91-1.46,3.88-2.72
			c0.02-0.03,0.02-0.06-0.01-0.08c-0.02-0.02-0.06-0.02-0.08,0.01l0,0.01c-1.09,1.09-2.5,1.85-3.97,2.19
			c-0.73,0.17-1.48,0.26-2.23,0.25c-0.38-0.01-0.74-0.04-1.13-0.07c-0.4-0.03-0.8-0.08-1.19-0.09c-0.8-0.05-1.6-0.05-2.4-0.02
			c-0.8,0.05-1.6,0.16-2.38,0.35c-0.78,0.19-1.55,0.42-2.29,0.74c-0.24,0.11-0.49,0.23-0.73,0.35c-0.91,0.25-1.78,0.64-2.63,1.05
			c-0.99,0.5-1.95,1.07-2.88,1.66c-0.94,0.58-1.84,1.2-2.76,1.77c-0.9,0.59-1.82,1.15-2.72,1.58l-0.45,0.5
			c-0.02,0.01-0.01,0.01-0.02,0.01c-0.02,0-0.05,0.03-0.13,0.05c-0.16,0.04-0.43,0.05-0.72,0.03c-0.29-0.02-0.63-0.07-1-0.11
			c-0.35-0.04-0.7-0.07-1.06-0.08c-1.4-0.08-2.79-0.05-4.17,0.01l-4.11,0.23c-1.09,0.06-3.44,0.11-3.55,0.11l0.06-0.46l0.08-0.84
			c0.03-0.04,0.04,0.01,0.12,0.03c0.29,0.01,0.59,0.02,0.87,0.06l0.04,0.01l0.02,0c-0.03,0,0.16,0.01,0.18-0.01
			c0.16-0.07,0.16-0.11,0.19-0.14c0.06-0.06,0.09-0.11,0.12-0.16c0.07-0.1,0.12-0.2,0.18-0.3c0.07-0.13,0.14-0.26,0.2-0.39
			c0.78,0.1,1.55,0.22,2.32,0.35c0.85,0.16,1.68,0.35,2.56,0.5c0.22,0.04,0.45,0.07,0.67,0.09l0.36,0.02l0.33-0.01
			c0.43-0.01,0.87-0.02,1.31-0.06c0.87-0.07,1.75-0.19,2.62-0.41c0.86-0.24,1.73-0.5,2.54-0.9c0.81-0.41,1.6-0.86,2.28-1.46
			c1.05-0.87,1.9-1.94,2.55-3.09c0.62-0.39,1.18-0.86,1.65-1.43c0.55-0.67,1.02-1.46,1.27-2.33c0.26-0.87,0.24-1.79,0.2-2.63
			c-0.04-0.84-0.1-1.63-0.05-2.37c0.03-0.4,0.06-0.68,0.21-0.95c0.14-0.27,0.37-0.51,0.65-0.72c0.58-0.41,1.32-0.69,2.07-0.89
			c1.53-0.42,3.16-0.56,4.75-0.93c0.05-0.01,0.08-0.06,0.07-0.11c-0.01-0.04-0.05-0.07-0.1-0.07c-1.6,0.15-3.23,0.13-4.88,0.39
			c-0.82,0.14-1.66,0.32-2.46,0.79c-0.39,0.24-0.77,0.56-1.05,0.98c-0.29,0.42-0.4,0.96-0.48,1.36c-0.02,0.12-0.04,0.24-0.06,0.36
			c-1.08-0.6-2.2-1.15-3.32-1.68c-1.22-0.55-2.45-1.07-3.71-1.53c-1.26-0.45-2.52-0.98-3.87-1.15c-1.29-0.18-2.64-0.24-3.93,0.07
			c-0.07-0.75-0.17-1.49-0.31-2.22c-0.16-0.85-0.4-1.68-0.63-2.51l0,0c-0.01-0.05-0.06-0.08-0.11-0.06
			c-0.05,0.01-0.07,0.06-0.06,0.1c0.15,0.85,0.3,1.69,0.4,2.53c0.1,0.84,0.15,1.69,0.14,2.54c-0.01,0.43-0.01,0.84-0.11,1.19
			c-0.1,0.36-0.28,0.68-0.54,0.92c-0.5,0.49-1.32,0.71-2.04,0.71h-0.02l-0.03,0c-2.54,0.17-5.07,0.62-7.52,1.32
			c-2.45,0.72-4.84,1.66-7.12,2.81c-2.29,1.15-4.48,2.51-6.49,4.13c-1.78,1.44-3.44,3.06-4.82,4.93c-0.14-0.08-0.29-0.15-0.42-0.24
			C11.08,115.72,11,115.65,10.92,115.59z M106.24,106.95c-0.01,0-0.01-0.04,0.02,0.02C106.25,106.97,106.24,106.96,106.24,106.95z
			 M8.12,116.67l0.81-0.3c0.07,0.08,0.13,0.14,0.2,0.21c0.1,0.1,0.21,0.19,0.31,0.29c0.21,0.18,0.42,0.34,0.64,0.49
			c0.17,0.12,0.35,0.22,0.52,0.32l-1.8,1.36L8.12,116.67z"/>
		<path class="st7" d="M112.05,101.56l0.59-0.26l-0.26-0.59c-0.14-0.3,0-0.66,0.3-0.79c0.3-0.14,0.66,0,0.79,0.3l0.26,0.59
			l0.59-0.26c0.3-0.14,0.66,0,0.79,0.3c0.14,0.3,0,0.66-0.3,0.79l-0.59,0.26l0.26,0.59c0.14,0.3,0,0.66-0.3,0.79
			c-0.08,0.04-0.16,0.05-0.24,0.05c-0.23,0-0.45-0.13-0.55-0.35l-0.26-0.59l-0.59,0.26c-0.08,0.04-0.16,0.05-0.25,0.05
			c-0.23,0-0.45-0.13-0.55-0.35C111.61,102.05,111.75,101.69,112.05,101.56z"/>
		<path class="st10" d="M125.73,109.78"/>
	</g>
</g>
</svg>
