<?xml version="1.0" encoding="utf-8"?>
<!-- Generator: Adobe Illustrator 24.1.2, SVG Export Plug-In . SVG Version: 6.00 Build 0)  -->
<svg version="1.1" id="Layer_1" xmlns="http://www.w3.org/2000/svg" xmlns:xlink="http://www.w3.org/1999/xlink" x="0px" y="0px"
	 viewBox="0 0 128 128" style="enable-background:new 0 0 128 128;" xml:space="preserve">
<style type="text/css">
	.st0{fill:#A99F95;}
	.st1{fill:#D9CFC3;}
	.st2{fill:#BC8860;}
	.st3{fill:#474544;}
	.st4{fill:#DD8C55;}
	.st5{fill:#EAE4D6;}
	.st6{fill:#A79F97;}
	.st7{fill:#2D2D2D;}
	.st8{fill:#595550;}
	.st9{fill:#C97E4B;}
	.st10{fill:#FCB042;}
</style>
<g>
	<g>
		<path class="st0" d="M57.6,27c-0.7-0.6-1.3-1.3-1.9-2c-0.6,0-1.2,0-1.8,0l-1.8,0c-0.9,0-1.7,0-2.6,0.1c-3.9,2.4-0.6,3.9,0.9,4.5
			c0.2,0,0.4,0,0.6,0c1.3,0,2.7-0.1,4-0.2c1.3-0.1,2.6-0.2,3.9-0.6c-0.1-0.3-0.2-0.6-0.4-0.8C58.3,27.5,58,27.3,57.6,27z"/>
		<path class="st1" d="M54,22.6c0,0,0-0.1-0.1-0.1c-1.3-0.4-2.6-0.6-3.9-0.8c-1.1-0.1-2.1-0.2-3.2-0.3c-3.2,1.2-0.8,2.5,0.8,3
			c0.2,0,0.5,0,0.7,0c2.4,0,4.9,0.2,7.3,0.5c0,0,0,0,0,0C55.1,24.2,54.5,23.4,54,22.6z"/>
		<path class="st1" d="M54.7,46c-0.3,0.7-0.7,2-0.5,2.9c0.3,0.9,3.1,1.1,4.5,1.1c0.9-0.4,1.9-0.8,2.8-1.4c-0.1-2-0.3-3.9-0.6-5.9
			C59,44.1,56.8,45.1,54.7,46z"/>
		<path class="st1" d="M58.9,28.7c-1.2,0.6-2.6,0.8-3.9,1c-0.9,0.1-1.7,0.2-2.6,0.3c-0.5,0.3-1,0.6-1,0.9c0,0.4,0.8,0.8,1.3,1.1
			c1-0.1,2.1-0.3,3.1-0.5c1.1-0.2,2.2-0.4,3.3-0.8c0-0.6-0.1-1.2-0.2-1.7C59,28.9,59,28.8,58.9,28.7z"/>
		<path class="st0" d="M60.2,38.4c-2,1.1-4.1,1.9-6.2,2.7c-0.3,0.1-0.5,0.2-0.8,0.3c-1,0.9-1.8,2.1-1.4,2.8c0.3,0.6,2.3,1,3.2,1.2
			c1-0.4,1.9-0.7,2.9-1.1c1-0.4,2.1-0.9,3.1-1.4c-0.1-0.9-0.3-1.9-0.4-2.8C60.4,39.4,60.3,38.9,60.2,38.4z"/>
		<path class="st0" d="M59.2,30.7c-2.1,1-4.4,1.5-6.7,2c-0.1,0-0.3,0-0.4,0.1c-0.3,0.4-0.9,1.1-0.9,1.7c0,0.5,0.9,0.7,1.7,0.8
			c1.1-0.2,2.1-0.4,3.2-0.7c1.2-0.3,2.3-0.5,3.4-1c-0.1-0.6-0.2-1.2-0.2-1.8C59.2,31.4,59.2,31,59.2,30.7z"/>
		<path class="st1" d="M59.5,33.5c-2.2,1.1-4.6,1.7-7,2.3c-0.2,0-0.3,0.1-0.5,0.1c-0.1,0.3-0.7,1.5-0.6,3.1c0.1,1.1,1.4,1.3,2.5,1.3
			c1.2-0.3,2.3-0.7,3.5-1.1c1-0.3,1.9-0.6,2.8-1c-0.2-1.3-0.4-2.6-0.6-3.9C59.6,34.1,59.5,33.8,59.5,33.5z"/>
		<path class="st0" d="M61.6,50.9c0-0.7,0-1.5-0.1-2.2c-0.6,0.5-1.3,0.9-2,1.3c0,0,0,0,0,0c0,0,0,0,0,0c-0.5,0.3-0.9,0.5-1.4,0.8
			c-0.6,1-1.7,3.3,2.3,2.8c0.4-0.3,0.8-0.6,1.1-0.9C61.5,52.1,61.5,51.5,61.6,50.9z"/>
		<path class="st2" d="M47.9,5.7L49.1,6C48.7,5.9,48.3,5.8,47.9,5.7C47.9,5.7,47.9,5.7,47.9,5.7C47.9,5.7,47.9,5.7,47.9,5.7z"/>
		<path class="st0" d="M51.1,11.5c1.4,0.8,2.9,1.6,4.3,2.4c-1.5-0.5-2.9-1.2-4.4-1.8c-0.2-0.1-0.4-0.2-0.6-0.3
			c-2.5-0.1-2.8,0.5-2.8,1c2.4,1,4.8,1.9,7.2,2.9c-2.5-0.7-4.9-1.5-7.4-2.3c-0.7,0.3-1.4,1.2-0.9,1.8l3.7,1.2c-1.5-0.3-3-0.7-4.4-1
			c-2.1,0.6-1.2,1.5-0.3,2.1c1.5,0.3,2.9,0.8,4.3,1.5c-0.9-0.3-1.9-0.6-2.9-0.8c-0.9,0-2.4,0.1-2.5,0.7c-0.1,0.5,0.7,1.3,1.3,1.8
			c0,0,0,0,0,0c2.8,0.3,5.6,0.6,8.2,1.7c-0.2-0.4-0.4-0.7-0.5-1.1c-0.1-0.5-0.2-1,0-1.6c0.2-1.2,0.8-2.4,1.6-3.2
			c0.9-0.9,2-1.4,3.2-1.7c1.8-0.3,3.5-0.1,5.2,0.3l-3.5-2.7c-0.9-0.7-1.8-1.4-2.8-2.1c-0.5,0.2-0.8,0.7-0.8,1.2
			c0.6,0.5,1.3,1,1.9,1.4c-1.5-0.6-3-1.4-4.5-2.2C52.4,10.5,50.2,10.2,51.1,11.5z"/>
		<path class="st0" d="M38.7,5.2c1.6,0.7,3.2,1.5,4.7,2.3c0.1-0.7,0.3-1.8,1.1-2c-0.9-0.5-1.8-1-2.7-1.5c-0.5-0.3-1.1-0.5-1.6-0.7
			l-1.8-0.6c-0.1,0-0.2-0.1-0.3-0.1c-0.9,0.3-1.8,0.9-1,2.1C37.7,4.8,38.2,5,38.7,5.2z"/>
		<path class="st1" d="M33,7.6c0.9,0.3,1.8,0.6,2.7,0.9c1.3,0.4,2.6,0.9,3.9,1.4c-0.1-0.7,0-1.8,1.6-2c-1-0.4-2.1-0.9-3.1-1.3
			c-2.9-1.2-5.8-2.4-8.7-3.4c-0.5-0.2-1-0.3-1.5-0.5C27,3,26.1,3.5,26.7,4.4c0.4,0.2,0.7,0.4,1.1,0.6l3.6,1.8L33,7.6z"/>
		<path class="st0" d="M36.1,12c-0.3-0.7-0.2-1.3,1.4-1.6c-0.7-0.2-1.5-0.5-2.2-0.7c-3.3-1-6.5-1.9-9.8-2.8c-0.5-0.1-1-0.2-1.6-0.4
			c-0.2,0.4-0.3,0.9,0,1.4c0.2,0.1,0.3,0.1,0.5,0.2c2.9,1,5.7,1.9,8.6,2.8L36.1,12z"/>
		<path class="st0" d="M48.3,65.3c-2,1.9,0.8,1.8,2.6,1.6c1.1-0.9,2.2-1.8,3.3-2.6c0.4-0.7,0.9-1.2,1.4-1.6c0,0,0,0,0,0c0,0,0,0,0,0
			c-1,0.6-2,1.1-3.1,1.5C51.1,64.7,49.7,65.1,48.3,65.3z"/>
		<path class="st0" d="M54,9.9c0.2-0.3,1.1-0.4,2.1-0.3c-0.1-0.1-0.3-0.2-0.4-0.3c-1-0.6-2-1.2-3-1.8c-0.4,0.2-0.8,0.4-1,0.7
			c0.2,0.1,0.4,0.2,0.5,0.4C52.8,9,53.4,9.4,54,9.9z"/>
		<path class="st0" d="M101,95.2c0-0.3,0-0.6,0.1-0.9c0-2-0.6-3.9-1.7-5.5c0,0,0,0,0-0.1c-0.3,1.1-0.8,2.1-1.4,3.1
			C96.2,98.9,99.6,96.5,101,95.2z"/>
		<path class="st2" d="M58.4,60.8C58.4,60.8,58.4,60.8,58.4,60.8C58.4,60.8,58.4,60.8,58.4,60.8C58.4,60.8,58.4,60.8,58.4,60.8z"/>
		<path class="st0" d="M91.9,83.4c-0.8,0.2-1.4,0.8-2,1.3c-0.5,0.5-1,1-1.5,1.5c-1.1,2.7,2,4.2,5,3.2c1.2-1,2.3-2.1,3.2-3.4
			c-0.5-0.4-1.1-0.8-1.6-1.1C94,84.3,93,83.8,91.9,83.4z"/>
		<path class="st0" d="M82.4,91.5l1.5-1.4c0.9-0.9,1.8-1.8,2.8-2.7c-5.4,3.7-4.8-0.2-3.9-2.2c-0.9,0.7-1.7,1.4-2.6,2.1
			C78.7,89.7,79.2,93.2,82.4,91.5z"/>
		<path class="st1" d="M86.5,81.5c-0.8,1-1.8,1.9-2.8,2.7c-0.5,1.4,1.6,3.3,3,3c0.3-0.3,0.7-0.7,1-1c0.7-0.6,1.3-1.2,2-1.8
			c0.6-0.5,1.3-1,2.1-1.2c-0.8-0.3-1.6-0.6-2.4-0.9C88.5,82.1,87.5,81.8,86.5,81.5z"/>
		<path class="st0" d="M82.7,84.6c-0.1,0.1-0.2,0.2-0.3,0.3c0.2-0.1,0.4-0.3,0.5-0.4c0.1-0.1,0.3-0.2,0.4-0.3c0,0,0.1-0.1,0.3-0.3
			c1-0.7,1.9-1.5,2.7-2.4c-1.9-0.5-3.8-0.9-5.7-1.2c0,0,0,0,0,0c-0.4,0.5-0.8,1-1.3,1.4C78.7,83.3,81.3,85,82.7,84.6z"/>
		<path class="st3" d="M109.5,55c0.3,0.1,0.6,0.2,0.9,0.4l-0.1,0c-0.1,0-0.3,0.1-0.4,0.1s-0.2,0.1-0.3,0.1c-0.1,0-0.3,0-0.4,0
			c-0.5,0.1-0.9,0-1.4,0c-0.5-0.1-1-0.2-1.5-0.3c-0.4-0.1-0.9-0.3-1.2-0.6c0.3-0.2,0.6-0.3,0.8-0.5c0.2-0.1,0.3-0.2,0.5-0.3
			c0,0,0.1,0,0.1-0.1h0c0.1,0.2,0.2,0.4,0.4,0.6c0,0-0.1,0-0.1,0c0,0,0,0,0,0c0,0,0,0,0,0c0.5,0.1,0.9,0.1,1.3,0.2
			C108.7,54.8,109.1,54.9,109.5,55z"/>
		<path class="st3" d="M111.5,55.2c-0.2-0.1-0.3-0.3-0.5-0.4c-0.3-0.2-0.5-0.3-0.8-0.4v0c0-0.6-0.5-1.2-1.1-1.7
			c0.2,0.1,0.4,0.2,0.6,0.2c0.6,0.2,1.2,0.7,1.5,1.2C111.4,54.5,111.5,54.9,111.5,55.2z"/>
		<path class="st4" d="M108.3,56.6c-2,0.7-9.3,2-16.4-1.5c-3.1-1.5-4.9-2.5-7.2-5.2c0,0,0,0,0,0c-0.1-0.1-0.2-0.2-0.3-0.3
			c-0.8-0.7-1.4-1.6-1.7-2.5c-0.4-0.9-0.6-1.9-0.7-2.8c-0.2-1.9,0-3.7,0.3-5.5c0.1-0.9,0.3-1.8,0.4-2.6c0.1-0.9,0.2-1.7,0.1-2.6
			c-0.1-1.7-0.9-3.3-2-4.7c-1.1-1.3-2.4-2.3-3.9-3.4l-4.3-3.2l-8.6-6.4l-0.4-0.3c-1.8-0.3-3.7-0.5-5.5-0.1c-1.1,0.3-2.1,0.8-2.9,1.6
			c-0.8,0.8-1.2,1.9-1.4,2.9v0.1l0,0.1C54,20.2,54,20.6,54.1,21c0.1,0.4,0.3,0.8,0.6,1.2c0.5,0.8,1,1.5,1.6,2.2
			c0.6,0.7,1.2,1.4,1.9,2c0.3,0.3,0.8,0.6,1.1,1c0.3,0.4,0.5,0.9,0.5,1.4c0.2,1,0.1,1.9,0.2,2.8c0.1,0.9,0.2,1.8,0.3,2.7
			c0.2,1.2,0.3,2.5,0.5,3.7c0,0,0.1,0,0.1-0.1c0,0-0.1,0.1-0.1,0.1c0.1,0.6,0.2,1.2,0.3,1.8c0.5,3.7,1,7.4,0.9,11.1
			c-0.1,2.7-0.5,5.4-1.5,7.8c0,0,0,0,0,0c0,0,0,0.1,0,0.1c-0.1,0.2-0.2,0.4-0.3,0.6c-0.1,0.1-0.1,0.2-0.2,0.3c0,0.1-0.1,0.1-0.1,0.2
			c0.3-0.2,0.7-0.4,1-0.5c1.3-0.6,2.5-1.1,3.8-1.6c1.3-0.5,2.6-0.9,4-1.2c0,0,0.1,0,0.1,0.1c0,0,0,0.1,0,0.1
			c-1.3,0.5-2.5,1.2-3.7,1.8c-1.2,0.6-2.4,1.3-3.6,1.9c-1.2,0.7-2.3,1.4-3.4,2.1c-0.5,0.4-1.1,0.8-1.6,1.2c-0.5,0.4-1,0.9-1.2,1.3
			l-0.1,0.2L55,65.4c-0.8,0.5-1.6,1-2.4,1.5c-0.1,0.1-0.1,0.1-0.2,0.1c0.4-0.2,0.8-0.3,1.2-0.5c1-0.4,2.1-0.7,3.2-1
			c2.1-0.6,4.3-1,6.5-1.1c0.3,0,0.6,0,0.8,0c0.3,0,0.6,0,0.9,0.1c0.7,0.3,1.1,1,1,1.7c0,0.3-0.2,0.7-0.4,0.9
			c-0.3,0.3-0.5,0.4-0.7,0.6l-1.3,1c-1.7,1.4-3.3,2.9-4.8,4.4c-0.4,0.4-0.8,0.8-1.1,1.2c-0.2,0.2-0.1,0.7,0.2,0.8
			c0.2,0.1,0.3,0.1,0.6,0c0.3-0.1,0.6-0.1,0.8-0.2c0.5-0.1,1.1-0.2,1.7-0.2c2.2-0.2,4.5-0.2,6.7,0c0.5,0.1,1.1,0.2,1.7,0.3
			c0.3,0.1,0.6,0.2,0.8,0.3c0.1,0.1,0.3,0.1,0.4,0.3c0.1,0,0.1,0.1,0.2,0.2c0,0.1,0.1,0.2,0.1,0.2c0.1,0.7-0.2,1.2-0.5,1.7
			c-0.3,0.5-0.7,0.9-1.1,1.3c-1.4,1.4-3.1,2.6-4.7,3.7l1.6-0.5c1-0.3,2-0.7,2.9-1.1c0.9-0.4,2-0.8,3-1.1c2-0.7,4-1.3,6-1.9
			c2-0.7,4-1.3,5.9-2.2c0,0,0.1,0,0.1,0c0,0,0,0.1,0,0.1c4-1.8,14.3-6,19.7-11c0-0.1-0.1-0.3-0.1-0.4c-0.1-0.8,0.2-1.5,0.5-2.1
			c0.3-0.6,0.8-1.1,1.3-1.6l0.1,0c0.7-0.5,1.3-1.3,1.8-2.3c0.3-0.5,0.5-1,0.8-1.4c0.2-0.2,0.3-0.5,0.6-0.7
			C108.5,56.6,108.4,56.6,108.3,56.6z M108.7,70c-0.5-0.3-1.1-0.5-1.5-0.8l-0.5-0.3c0.8,0.7,1.6,1.3,2.6,1.4
			C109,70.2,108.9,70.1,108.7,70z"/>
		<path class="st1" d="M80.6,80.3C80.6,80.3,80.6,80.3,80.6,80.3c-0.4,0.5-0.9,0.9-1.3,1.3c-0.3,0.2-0.4,0.3-0.4,0.3c0,0,0,0-0.1,0
			c-0.9,0-3-0.1-2.2-1.9c0.3-0.1,0.5-0.2,0.8-0.3h0c0,0,0.1,0,0.2,0c0,0,0,0,0,0c0,0,0,0,0,0c0.5,0.1,1,0.1,1.5,0.2
			c0.1,0,0.1,0,0.2,0C79.7,80.2,80.2,80.2,80.6,80.3z"/>
		<path class="st1" d="M79.9,86.7c0.6-0.4,1.1-0.8,1.7-1.3c-3.2,2.2-3.4-1.4-2.9-2.9c-0.3,0.3-0.7,0.6-1,1c-0.5,0.5-1.1,0.9-1.6,1.4
			C74.5,87.2,76.5,87.8,79.9,86.7z"/>
		<path class="st1" d="M103,105.6c0,1.4,0.2,3.9,1.6,4.4c1.4,0.5,2.5-1.4,3.4-2.7c0.4-1.4,0.9-2.8,1.4-4.1c-0.8,0.2-1.7,0.4-2.6,0.4
			c-0.9,0-1.9-0.1-2.8-0.6C103.6,103.8,103.3,104.7,103,105.6z"/>
		<path class="st1" d="M72.6,81.7c-0.9,0.3-1.8,0.7-2.7,1c-1.5,2.4,1.6,3.2,5.6,1.9c0.5-0.4,1-0.8,1.5-1.2c-4,1.2-2.4-1.4-1-3.1
			C75,80.8,73.8,81.3,72.6,81.7z"/>
		<path class="st1" d="M96.6,86.1c-0.9,1.4-2,2.6-3.1,3.7c-2.7,4.5,1.2,4.4,3.7,2.5c0.8-1.1,1.6-2.3,2-3.6
			C98.5,87.7,97.6,86.8,96.6,86.1z"/>
		<path class="st1" d="M86.7,95c0.7-0.6,1.5-1.2,2.2-1.8c0.9-0.7,1.8-1.5,2.6-2.2c-7.6,4.4-4.6-2.3-3.9-4c-1.1,1.2-2.2,2.4-3.4,3.6
			c-0.4,0.4-0.7,0.8-1.1,1.1C82.4,94.2,84.1,96,86.7,95z"/>
		<path class="st0" d="M61.5,52.7c-0.5,0.7-1.3,1.3-2,1.8c-0.6,0.4-1.2,0.8-1.9,1.2c0.1,0.4,0.3,1.1,0.2,1.9
			c-0.1,1.1,1.2,1.2,2.3,1.1c0-0.1,0.1-0.1,0.1-0.2C61,56.7,61.4,54.7,61.5,52.7z"/>
		<polygon class="st2" points="60.3,58.8 60.3,58.8 60.3,58.8 		"/>
		<path class="st0" d="M92.7,97.4c0.4-0.4,0.8-0.8,1.2-1.2c0.6-0.6,1.1-1.2,1.7-1.9c-4.4,3.6-6.7,1.7-4.2-2.5
			c-0.7,0.6-1.4,1.2-2.1,1.9l-1.8,1.6C86.7,98,88.7,98.9,92.7,97.4z"/>
		<path class="st1" d="M97.8,101.5c0.7-1,1.4-2,2-3.1c-5.2,4.4-4.6-1.3-3.2-4.7c-0.7,1-1.5,1.9-2.2,2.9c-0.6,0.7-1.2,1.4-1.8,2.1
			C91.3,102.3,94,104.7,97.8,101.5z"/>
		<g>
			<path class="st1" d="M44.2,29.5c1.2,0,2.4,0,3.6,0c-4.6-1.1-1-3.7,0.5-4.5l-7.1,0.3C40.8,26.2,42.5,28.4,44.2,29.5z"/>
			<path class="st0" d="M45.3,32.8c2.1-0.2,4.1-0.4,6.2-0.7c-1.1-0.1-2.3-0.4-2.3-1.1c0-0.4,0.6-0.8,1.3-1c-2.2,0.2-4.4,0.2-6.5,0.2
				c-0.2,0.7,0.5,1.9,1.1,2.5C45.1,32.8,45.2,32.8,45.3,32.8z"/>
			<path class="st1" d="M45.8,36.4c1.8-0.3,3.7-0.6,5.5-0.9c-3.2-0.4-1.4-1.9,0-2.6c-2,0.3-3.9,0.6-5.9,0.7c0,0-0.1,0-0.1,0
				C43.7,34.9,44.5,35.8,45.8,36.4z"/>
			<path class="st0" d="M46.6,42.4c1.8-0.4,3.6-0.9,5.4-1.4c-4.9-0.6-1.4-4.2-0.2-4.9c-2,0.5-4,0.9-6.1,1.2
				C44.3,38.4,45.4,41.5,46.6,42.4z"/>
			<path class="st1" d="M47.2,9.4c1,0.5,1.9,1,2.9,1.6c-0.4-0.7,0-1.5,1-1.7c-1.5-0.9-3.1-1.8-4.6-2.7c-1,0.1-1.8,0.7-1.9,1.5
				C45.4,8.5,46.3,8.9,47.2,9.4z"/>
			<path class="st1" d="M48.4,47.5c1.9-0.6,3.9-1.3,5.8-2c-1.3,0.2-3.2,0.2-3.8-0.8c-0.5-1,0.7-2.3,1.9-3.1
				c-1.8,0.6-3.7,1.1-5.5,1.5c-0.2,0-0.4,0.1-0.5,0.1C43.7,45.5,46.7,46.9,48.4,47.5z"/>
			<path class="st1" d="M55.2,56.3c0.5-0.2,0.9-0.4,1.4-0.6c0.4-0.2,0.8-0.4,1.2-0.6c-0.9-0.1-3.7-1.2-1.7-3.4
				c-0.2,0.1-0.3,0.1-0.5,0.2c-1,0.5-2,0.9-3.1,1.3C52.2,54.2,51.7,56.4,55.2,56.3z"/>
			<path class="st0" d="M53.1,60.6c-0.4,1.2,1.4,1.3,2.8,1.1c0.2-0.1,0.4-0.2,0.6-0.3c0.4-0.2,0.8-0.4,1.2-0.7
				c-1.4-0.3-1-3.4-0.5-4.7c-0.1,0.1-0.2,0.1-0.4,0.2c-0.8,0.5-1.7,0.9-2.5,1.3C54.1,58.2,53.5,59.3,53.1,60.6z"/>
			<path class="st0" d="M52.2,52.5c1.1-0.4,2.2-0.8,3.2-1.2c0.3-0.1,0.7-0.3,1-0.4c-5.3-0.2-3.7-3.2-2.4-4.7
				c-1.9,0.8-3.9,1.5-5.9,2.1C46.8,50.3,50.6,52,52.2,52.5z"/>
			<path class="st0" d="M36.6,16.5c2.1,0.2,4.2,0.3,6.2,0.6c0.3,0,0.7,0.1,1,0.2c-2-1.2-0.2-1.8,0.9-2c-1.1-0.3-2.2-0.5-3.3-0.8
				c-1-0.2-1.9-0.5-2.9-0.7c0,0,0,0,0,0C37.7,13.7,35.7,15.1,36.6,16.5z"/>
			<path class="st1" d="M38.7,20.3c2.1,0.1,4.1,0.2,6.2,0.4c-1.1-0.5-2.5-1.3-2.2-1.9c0.3-0.7,1.7-0.8,3-0.7c-1-0.2-2-0.3-3-0.4
				c-1.8-0.2-3.6-0.3-5.4-0.4C37.1,18.1,37.8,19.6,38.7,20.3z"/>
			<path class="st0" d="M41.4,24.6c1.3,0,2.5-0.1,3.8-0.1c-3.7-1.5-1.1-2.7,0.4-3.1c-2.4-0.1-4.8-0.2-7.2-0.3
				C37.4,21.9,39.8,23.6,41.4,24.6z"/>
			<path class="st1" d="M38.1,12.6l3.5,1.1l3.9,1.3c-0.6-0.4-1.3-1-1.1-1.4c0.2-0.4,0.9-0.6,1.8-0.5c-0.4-0.1-0.8-0.2-1.2-0.4
				c-1.7-0.5-3.4-1.1-5.1-1.6C39,11.3,37.9,11.6,38.1,12.6z"/>
			<path class="st0" d="M48.6,11.1c-0.6-0.3-1.3-0.5-1.9-0.8c-1.2-0.5-2.5-1.1-3.7-1.6c-1.2,0.1-2.5,0.5-2.2,1.6
				c1.5,0.6,3,1.1,4.5,1.7c0.3,0.1,0.6,0.2,0.9,0.4C46,11.5,47.6,11.2,48.6,11.1z"/>
		</g>
		<path class="st1" d="M101,103.5c0.1-0.1,0.2-0.2,0.2-0.3c0.4-0.4,0.8-0.8,1.2-1.3c-0.4-0.4-0.7-1-0.9-1.5
			c-0.5-1.2-0.6-2.4-0.6-3.6c-0.2,0.3-0.3,0.6-0.6,1c-0.6,1.7-1.5,3.3-2.6,4.7C97.7,105.2,99.7,104.3,101,103.5z"/>
		<path class="st0" d="M123.7,104.1c-0.5,0.1-0.9,0.2-1.2,0.1c0.1,1,0.2,2.1,0.3,3.1c0.7,0.1,2-1.3,2-4.1c0,0,0,0,0,0
			C124.5,103.8,124,104,123.7,104.1z"/>
		<path class="st0" d="M81,92.8c-2.1,0.9-4.1,0.3-2.2-4.4c-1.1,0.9-2.2,1.8-3.3,2.7c-0.9,0.7-1.9,1.4-2.8,2.1
			c-0.1,1.6,3,3.2,4.8,3.1c0.9-0.8,1.7-1.6,2.5-2.4L81,92.8z"/>
		<path class="st1" d="M75,90.4c0.8-0.7,1.6-1.3,2.5-2c-2.4,1.1-6.4,2.4-2.9-2.4c-0.1,0.1-0.2,0.2-0.3,0.3c-1.2,0.9-2.3,1.8-3.6,2.6
			c-0.4,0.2-0.8,0.5-1.2,0.7c-1.1,2,1.1,3.6,3.3,2.9C73.5,91.8,74.2,91.1,75,90.4z"/>
		<path class="st1" d="M84.8,96.7c0.1-0.1,0.1-0.1,0.2-0.2c-3.8,1.3-4.5-0.8-3.5-3.1c-0.3,0.3-0.7,0.6-1,0.9c-0.8,0.7-1.7,1.4-2.5,2
			c0.1,1.7,1.9,4.3,5.2,2.2C83.7,97.9,84.2,97.3,84.8,96.7z"/>
		<path class="st0" d="M90.6,99.7c0.1-0.1,0.2-0.2,0.3-0.3c-4.4,3-5.9,0-5.4-2.2l-0.2,0.2c-0.7,0.6-1.3,1.2-1.9,1.9
			c-0.2,0.2-0.3,0.3-0.5,0.5c0.2,1.7,2.5,4.1,5.3,3.2c0.2-0.4,0.5-0.8,0.8-1.2C89.6,100.9,90.1,100.3,90.6,99.7z"/>
		<path class="st1" d="M96,103.7c-4,2.3-5.4-0.8-4.7-3.6c0,0-0.1,0.1-0.1,0.1l-1.7,1.7c-0.4,0.4-0.7,0.8-1.1,1.2
			c0,0.2-0.1,0.3-0.1,0.5c0.3,0.5,0.7,1.1,1,1.5c1,0.8,2.7,1.3,4,1.1c0.4-0.3,0.7-0.7,1.1-1C95,104.7,95.5,104.2,96,103.7z"/>
		<path class="st2" d="M83,102c0.3,0.2,0.6,0.4,0.9,0.5c-0.5-0.4-1.1-0.8-1.5-1.1C82.6,101.6,82.8,101.8,83,102z"/>
		<path class="st5" d="M41.8,99.5c-0.6,1.1-1.2,2.3-1.8,3.4c-0.1,0.2-0.3,0.5-0.4,0.7c-0.7,4.4,0.5,3.5,2.8,1.8
			c0.7-1.5,1.4-3,2.1-4.5C43.1,101.4,42.2,100.6,41.8,99.5z"/>
		<path class="st0" d="M73.4,86.2c-5.9,2-5.7-1.2-5-3c-0.6,0.2-1.2,0.4-1.8,0.5c-1,0.3-1.9,0.5-2.9,0.7c-0.3,1-0.7,2.3,2.1,2
			c-0.8,1.2,0.7,2.9,3.1,2.7c0.4-0.3,0.8-0.6,1.3-0.9C71.2,87.6,72.3,86.9,73.4,86.2z"/>
		<path class="st6" d="M38,106.5c-0.7,1.1-1.3,2.3-2,3.4c-0.8,1.3-1.7,2.6-2.6,3.9c-0.5,2.9,2.2,2.6,4.8,1.2
			c1.1-2.5,2.2-5.1,3.3-7.6C37.9,112.2,37.3,109.8,38,106.5z"/>
		<path class="st5" d="M69.9,77.6c-0.3,0.4-0.6,0.9-1,1.3c-1.3,1.5-2.9,2.8-4.5,4l-4.3,1.4c-2,0.6-4.1,1.2-6.1,1.6
			c-2.1,0.4-4.2,0.5-6.3,0.8c-1.7,0.3-3.4,0.8-5,1.4c1-0.7,1.9-1.4,2.7-2.3c0,0,0-0.1,0-0.1c0,0,0-0.1-0.1,0l0,0
			c-2.4,0.9-4.8,1.9-7,3.1c-0.9,0.5-1.9,1.1-2.8,1.7c-0.7-0.5-0.7-1.7,0.1-3c0.3-0.1,0.7-0.2,1-0.4c0.4-0.1,0.7-0.2,1.1-0.3l0.5-0.1
			c0.2-0.1,0.4-0.1,0.6-0.2c0.8-0.3,1.6-0.8,2.2-1.4c0.6-0.6,0.9-1.4,1.3-2.1v0c0,0,0,0,0-0.1c0,0-0.1-0.1-0.1-0.1
			c-0.4,0.1-0.8,0.4-1.1,0.6c-0.3,0.2-0.6,0.4-0.9,0.6c-0.6,0.4-1.3,0.6-1.9,0.8c-0.2,0-0.3,0.1-0.5,0.2c-0.2,0.1-0.4,0.1-0.6,0.2
			c-0.4,0.2-0.7,0.3-1.1,0.5c-0.7,0.4-1.4,0.7-2.1,1.1c-0.5,0.3-1,0.6-1.5,0.9c-1.8,0.3-1.9-0.6-2.2-0.8c0,0-0.1-0.1-0.1-0.1
			c-0.3,0.1-0.6,0.2-0.9,0.3c-1.5,0.4-2.9,0.9-4.3,1.5c-0.4,0.2-0.8,0.4-1.2,0.6c-0.9-0.1-2-0.4-2.7-0.9c2.4-0.7,4.8-1.5,7-2.5
			c2.3-1,4.6-2.2,6.7-3.6c2.1-1.4,4.2-2.9,6-4.6c0.9-0.8,1.8-1.8,2.7-2.7c0.9-0.9,1.7-1.8,2.7-2.5l0,0l0-0.1
			c0.3-0.6,0.7-1.1,1.1-1.6c0,0,0.1,0.1,0.1,0.1c0,0-0.1-0.1-0.1-0.1c0.2-0.2,0.3-0.4,0.5-0.5c0.7-0.7,1.4-1.3,2.1-1.8
			c0.5-0.4,1.1-0.7,1.7-1.1c0.1,0,0.1-0.1,0.2-0.1c0.5-0.2,1-0.3,1.6-0.5c1-0.3,2.1-0.6,3.2-0.8c2.1-0.5,4.3-0.8,6.5-0.9
			c0.3,0,0.5,0,0.8,0c0.3,0,0.5,0,0.7,0.1c0.4,0.2,0.6,0.6,0.6,1c0,0.2-0.1,0.4-0.2,0.5c-0.1,0.1-0.4,0.3-0.6,0.5l-1.3,1
			c-1.7,1.4-3.4,2.9-4.9,4.5c-0.4,0.4-0.8,0.8-1.1,1.2c-0.3,0.3-0.4,0.7-0.3,1.1c0.1,0.4,0.4,0.7,0.7,0.9c0.2,0.1,0.4,0.1,0.6,0.1
			c0.1,0,0.2,0,0.3,0l0.2-0.1c0.3-0.1,0.5-0.1,0.8-0.2c0.5-0.1,1.1-0.2,1.6-0.2c2.2-0.2,4.4-0.3,6.5-0.1c0.5,0.1,1.1,0.1,1.6,0.3
			c0.5,0.1,1.1,0.3,1.1,0.7C70.5,76.6,70.2,77.2,69.9,77.6z"/>
		<path class="st6" d="M45.6,88.6c-0.5,2.4-1.3,4.8-2.1,7.1c-0.1,0.4-0.3,0.7-0.5,1.1c0.5,2,1.7,2,2.8,1.5c0.4-0.7,0.7-1.5,1.1-2.2
			c1.5-3.1,3.1-6.1,4.7-9.1c-1.2,0.3-2.4,0.7-3.5,1C47.2,88.2,46.4,88.4,45.6,88.6z"/>
		<path class="st1" d="M125.4,94.5c-0.3-1-0.7-2-1.1-3.1c-0.4-1.1-0.9-2.3-1.3-3.5c-0.1,0.8-0.4,1.6-0.6,2.3
			c-0.6,1.6-1.4,3.1-2.4,4.5c-1,1.4-2.1,2.7-3.3,3.8c-1.2,1.2-2.5,2.3-3.9,3.3l0,0l0,0c-1.1,0.5-2.2,0.9-3.3,1.2l-0.9,5.5
			c0.8,2,2.5,2.1,3.7,0.9c0.3-1.5,0.6-3.1,0.9-4.6c-0.1,1.3-0.2,2.6-0.3,3.9c0.8,4.5,2.7,3.9,4.3,1.3c0.3-2.9,0.6-5.8,1-8.7
			c0.1,2.3,0.1,4.7,0,7c1.3,2.7,2.5-0.7,3.1-3.5c0-2.5,0-5.1,0.2-7.6c0.2,1.4,0.5,2.9,0.7,4.3c0.5,1.2,1.5,2.5,2.2-0.7
			c-0.2-0.8-0.3-1.5-0.5-2.3c-0.4-2-0.9-3.9-1.3-5.9c1,1.8,1.8,3.7,2.5,5.6c0.3,0.8,0.5,1.6,0.8,2.4c0.3-0.5,0.5-1,0.7-1.6
			c-0.1-0.5-0.1-0.9-0.2-1.4C126,96.6,125.8,95.5,125.4,94.5z"/>
		<path class="st5" d="M34.8,110.4c-0.2,0.4-0.4,0.8-0.6,1.2c0.4-0.7,0.8-1.4,1.1-2.1c0.9-1.6,1.7-3.2,2.5-4.9
			c-8.7,7.6-6-1.9-4.9-4.6c-0.4,0.5-0.8,1-1.2,1.5l-4.1,5.2l-0.1,0.1C23.7,114.6,32.5,112.9,34.8,110.4z"/>
		<path class="st2" d="M118.7,122.4c0.5-0.1,0.8-0.3,1-0.7c-0.4,0.4-0.9,0.6-1.5,0.8C118.4,122.5,118.5,122.5,118.7,122.4z"/>
		<path class="st0" d="M118.1,112.4c0,0.5,0,1.1-0.1,1.6c-0.1,1.8-0.2,3.5-0.4,5.3c1.1,0,2.7-1.2,3.7-5c0-0.6,0-1.1,0-1.7
			c0-1.2,0-2.4,0-3.5C120.5,112.1,118.9,113.6,118.1,112.4z"/>
		<path class="st1" d="M31.9,15.6c1.1,0.3,2.2,0.5,3.3,0.7l0.2,0c-1.1-1-1.5-3,1.5-3.1c0,0,0,0,0,0c-1.4-0.4-2.8-0.8-4.3-1.2
			c-0.1,0-0.3-0.1-0.4-0.1c-3.4-0.3-7.1-0.5-10.3-0.8c-0.7,0-1.4-0.1-2.2-0.1c-0.5,0.5,0,1.4,1,2.2c0,0,0.1,0,0.1,0
			c1.8,0.4,3.7,0.8,5.5,1.2L31.9,15.6z"/>
		<path class="st0" d="M96.4,104.4c-0.4,0.5-0.9,1-1.4,1.4c-0.4,0.3-0.8,0.6-1.2,0.9c0,0.9,1.1,2,3.3,1.4c0.4-0.5,0.8-1,1.2-1.5
			C96.5,107.4,96.2,105.7,96.4,104.4z"/>
		<path class="st1" d="M112.6,112.4l-0.2,1.9c-0.1,1-0.3,2.1-0.3,3.1c0,1.3,0.1,2.5,0.2,3.8c1.2,0.7,2.7,0.9,3.8-1c0,0,0,0,0-0.1
			c0.3-2,0.5-4.1,0.7-6.2c0-0.2,0-0.4,0.1-0.6C114.6,117.6,113.1,114.8,112.6,112.4z"/>
		<path class="st2" d="M95.9,110.2C96,110.2,96,110.1,95.9,110.2C95.9,110.1,95.9,110.2,95.9,110.2
			C95.9,110.2,95.9,110.2,95.9,110.2z"/>
		<path class="st0" d="M103.6,102.8c-0.4-0.2-0.7-0.5-1-0.8c-0.2,0.6-0.5,1.1-0.7,1.6c-0.4,0.6-0.7,1.3-1.1,1.9
			c-0.8,1.2-1.6,2.4-2.4,3.5c0,0,0,0.1-0.1,0.1c0.1,1.8,0.8,4.3,2.5,1.8c0.7-2.8,1.8-5.5,3.2-8.1
			C103.8,102.9,103.7,102.9,103.6,102.8z"/>
		<path class="st0" d="M108,111.9c-0.4,2.7-0.9,5.4-1.3,8.1c-0.1,0.5-0.2,1-0.2,1.5c1,1.6,2.6,2.3,4.3-1.5c0-0.9,0-1.8,0.1-2.7
			c0-0.5,0.1-1.1,0.2-1.6l0.3-1.6l0.5-2.6C109.4,115,108.5,113.8,108,111.9z"/>
		<path class="st1" d="M103.9,112.4c-1.4-0.6-1.8-2.3-1.7-3.9c-0.3,1.2-0.6,2.4-0.8,3.6c-0.1,0.4-0.1,0.8-0.2,1.2
			c0.4,2.7,1.6,5.7,2.9,5.6c0.2-0.6,0.4-1.1,0.6-1.7l1.5-4.6c0.2-0.5,0.4-1.1,0.6-1.6C106.1,112.1,105.1,112.9,103.9,112.4z"/>
		<path class="st5" d="M27.5,95.2C27.5,95.2,27.5,95.3,27.5,95.2c-0.1,0.4-0.2,0.8-0.3,1.1l-0.5,1c-0.2,0.4-0.5,0.8-0.7,1.1
			c0.3,1.6,1.5,3.3,5.2,1.5c0.6-1,1.2-1.9,1.9-2.9c0,0-0.1,0.1-0.1,0.1C29.7,99.7,28,97.2,27.5,95.2z"/>
		<path class="st2" d="M37.8,56.4C37.8,56.4,37.9,56.4,37.8,56.4C37.9,56.4,37.8,56.4,37.8,56.4L37.8,56.4z"/>
		<path class="st1" d="M38.7,43.9c0.2,0,0.4,0,0.6-0.1c1.6-0.2,3.3-0.6,4.9-0.9c-4.4-2-1.8-4.4-0.1-5.5c-2.1,0.3-4.3,0.5-6.5,0.5
			c-0.6,0-1.2,0-1.8,0c-1.6,1-4,3.8,1.9,5.9C38,43.9,38.4,43.9,38.7,43.9z"/>
		<path class="st0" d="M45.9,48.3C42,47.4,43,45,43.9,43.8c-1.3,0.2-2.6,0.5-3.9,0.6c-0.1,0-0.1,0.1-0.2,0.1c0.1,0,0.1,0,0.2,0.1
			c-0.1,0-0.2,0-0.4,0c-6.7,3-1.5,4.7,1.3,5.1C42.6,49.2,44.3,48.7,45.9,48.3z"/>
		<path class="st0" d="M37.6,37.3c2.1-0.1,4.2-0.4,6.3-0.6c-2.3-0.6-1.4-2-0.4-2.9c-1.8,0.1-3.6,0.1-5.4,0c-0.8,0-1.7-0.1-2.5-0.2
			c-4.3,0.9-2.2,3.1,0.2,3.8C36.4,37.4,37,37.4,37.6,37.3z"/>
		<path class="st1" d="M48.4,53.8c-3.6-0.2-3.5-3.2-2.7-4.7c-1.5,0.4-3,0.8-4.5,1c-5.4,3.5-0.3,4.7,2.7,4.9
			C45.4,54.7,46.9,54.3,48.4,53.8z"/>
		<path class="st0" d="M50.9,58.2c1.3-0.5,2.6-1,3.8-1.6c-2.8,0.5-9,1.1-6.3-1.9c-1.4,0.4-2.9,0.8-4.4,1.1c-3.2,2.3,0,3.6,2.3,3.9
			C47.9,59.2,49.4,58.7,50.9,58.2z"/>
		<path class="st0" d="M36.3,17.3c-0.3,0-0.5,0-0.8-0.1c-2.2-0.2-4.4-0.3-6.6-0.6c-1.1,0-2.3,0.1-3.4,0.1c-0.7,0-1.4,0.1-2.1,0.1
			c-0.7,0.8-1,2,0.1,2.8c0,0,0.1,0,0.1,0c1.5,0.1,2.9,0.2,4.4,0.3l6.9,0.2C32.8,18.9,35.1,17.8,36.3,17.3z"/>
		<path class="st2" d="M26.7,24.7C26.7,24.7,26.7,24.7,26.7,24.7C26.7,24.7,26.8,24.7,26.7,24.7C26.7,24.7,26.7,24.7,26.7,24.7
			C26.7,24.7,26.7,24.7,26.7,24.7z"/>
		<path class="st1" d="M52.1,63.5c0.5-0.2,1-0.4,1.4-0.6c-4.7-0.3-3.7-2.5-2-4.1c-0.1,0.1-0.3,0.1-0.4,0.2c-1.1,0.4-2.3,0.8-3.4,1.1
			c-4.3,1.9-1,3.9,1.1,4.5C50,64.2,51.1,63.9,52.1,63.5z"/>
		<path class="st1" d="M34.6,33.1c1.2,0.1,2.4,0.1,3.6,0.1c1.4,0,2.9-0.1,4.3-0.2c-1.9-0.6-1.5-2-0.6-2.7c-2.4-0.1-4.7-0.2-7.1-0.4
			c-0.7-0.1-1.4-0.2-2.1-0.3c-2.2,0.7-1.3,2.4,1.1,3.4C34,33,34.3,33,34.6,33.1z"/>
		<path class="st1" d="M34,24.9c1.5-0.1,2.9-0.1,4.4-0.2c-2.4-0.9-3-3-2.7-3.8c-1.1,0-2.2-0.1-3.2-0.1C31.2,21.5,29.8,23.4,34,24.9z
			"/>
		<path class="st0" d="M34.4,29.2c0.1,0,0.2,0,0.4,0c2.2,0.1,4.4,0.2,6.7,0.2c-3.2-1.2-2.8-3.2-2.3-4.1c-1.8,0.1-3.6,0.1-5.5,0.1
			c-0.2,0-0.3,0-0.5,0C29.1,26.7,32.3,28.4,34.4,29.2z"/>
		<path class="st6" d="M35.8,92l-0.9,0.4c-0.3,0.1-0.6,0.2-0.9,0.3c-0.6,0.2-1.3,0.4-1.9,0.5c-0.9,0.2-1.8,0.4-2.7,0.6
			c0,5.3,3.6,2.7,5.2,1.3c1.1-1.4,2.3-2.8,3.5-4.1c-0.2,0.1-0.4,0.1-0.6,0.2C37,91.5,36.4,91.7,35.8,92z"/>
		<path class="st5" d="M22.5,91.7c-1.9,5,1.4,4.8,3.2,4.4c0.5-0.7,0.9-1.4,1.4-2.2c-0.3,0-0.6-0.1-0.9-0.2c-0.7-0.3-1.4-0.8-1.8-1.6
			c-0.2-0.4-0.2-0.8-0.1-1.2C23.7,91.2,23.1,91.4,22.5,91.7z"/>
		<path class="st5" d="M41.1,97c0.1-0.2,0.2-0.3,0.2-0.5c0-0.1,0.1-0.3,0.1-0.3c0,0,0,0,0.1-0.1c0.1-0.3,0.3-0.6,0.4-1
			c1-2.1,2-4.3,3.2-6.4c-1.1,0.3-2.1,0.6-3.2,0.9c-1.1,0.3-2.2,0.7-3.3,1.1c0,0,0,0,0,0l-0.2,0.4c-0.1,0.2-0.2,0.4-0.3,0.7
			c0,0,0,0,0.1-0.1C37.1,97.3,39.3,97.6,41.1,97z"/>
		<path class="st5" d="M29.9,101.9c-2.6,2.1-5.9,3.5-5.9-1.3c-0.1,0.1-0.1,0.1-0.2,0.2c-0.7,0.6-1.4,1.1-2.1,1.6
			c-4.6,6.7,1.1,6.9,4.8,4.7c0.2-0.2,0.3-0.5,0.5-0.7L29.9,101.9z"/>
		<path class="st6" d="M38.6,102.8c0.1-0.1,0.1-0.3,0.2-0.4c0.5-1,0.9-2,1.3-3c-3.4,1.2-4.2-1.4-4.2-3.5c-0.1,0.1-0.2,0.3-0.2,0.4
			c-0.5,0.8-1.1,1.6-1.6,2.3c0.1,0,0.1-0.1,0.2-0.1C31.8,105,35.9,103.9,38.6,102.8z"/>
		<path class="st6" d="M23,99.8c0.6-0.6,1.1-1.3,1.5-2c-0.2,0.1-0.5,0.3-0.7,0.4c-5.8,2.5-4.6-3.3-3.5-5.6c-0.8,0.4-1.7,0.7-2.5,1
			c-6,6.4-3,9.8,4.5,6.9C22.4,100.3,22.7,100.1,23,99.8z"/>
		<path class="st5" d="M29.5,80.1c0.8-0.1,1.5-0.3,2.3-0.4c-2.6-0.9-1.5-2.1,0.1-2.9c-0.7,0-1.3,0-2,0c-1.6,0-3.2-0.1-4.8-0.1
			c-2.2,1.2-1.4,3.4-0.7,4.6C26.2,80.8,27.8,80.4,29.5,80.1z"/>
		<path class="st5" d="M20.5,91.1c0,0,0.1,0,0.1-0.1c-7.2,0.3-3.2-5.5-1.1-7.3c-2,0.4-4.1,0.8-6.1,1.1c-0.3,0-0.6,0.1-0.8,0.1
			c-11.4,8.4-0.8,8.6,4.2,8.1C18,92.4,19.2,91.8,20.5,91.1z"/>
		<path class="st6" d="M21.1,88.2c1.1-0.6,2.2-1.2,3.3-1.8c1.1-0.6,2.2-1.2,3.3-1.8c2.2-1.2,4.3-2.5,6.4-3.8
			c0.6-0.3,1.1-0.7,1.7-1.1c-1.9,0.7-3.8,1.3-5.8,1.8c-2.3,0.6-4.6,1-6.9,1.5C20.3,85.8,20.2,87.3,21.1,88.2z"/>
		<path class="st5" d="M37.1,78.9c1-0.7,2-1.4,3-2.2c0.6-0.4,1.1-0.8,1.7-1.3c-1.7,0.6-3.5,0.9-5.2,1.1c-0.4,0-0.9,0.1-1.3,0.1
			c-0.7,0.8-0.2,1.9,0.2,2.5C36,79,36.6,79,37.1,78.9z"/>
		<path class="st6" d="M19,82.7c-6.8-2-1.9-4.9,2-6.2c-1.5-0.1-2.9-0.2-4.4-0.3c-1.4-0.1-2.9-0.2-4.3-0.3c-3.9,1.6-10.7,6.7,1.2,8.2
			C15.4,83.6,17.2,83.1,19,82.7z"/>
		<path class="st7" d="M127.6,94c-0.3-1.2-0.6-2.3-0.9-3.3c-0.7-2.2-1.5-4.3-2.4-6.4c-0.9-2.1-1.7-4.2-2.6-6.2l-1.5-3.1
			c-0.2-0.5-0.5-1-0.7-1.5c-0.2-0.5-0.5-1.1-0.8-1.6c-0.7-1-1.7-1.7-2.9-2.2c-0.6-0.2-1.2-0.3-1.8-0.4c-0.3,0-0.6,0-0.9,0.1
			c-0.3,0-0.6,0-0.8,0.1c-1.1,0.1-1.9-0.3-2.7-0.9c-0.4-0.3-0.9-0.6-1.3-1l-0.7-0.5c-0.2-0.2-0.4-0.3-0.6-0.5
			c-0.7-0.6-1.3-1.4-1.4-2.1c-0.1-0.7,0.3-1.6,0.9-2.3c0.4-0.4,0.8-1,1.1-1.5c0.3-0.5,0.4-1.1,0.6-1.6c0.2-0.5,0.3-1,0.5-1.5
			c0.1-0.4,0.3-0.8,0.6-1.2c0.1,0,0.1,0,0.2-0.1c0.1-0.1,0.2-0.1,0.4-0.1c0.2-0.1,0.3-0.1,0.4-0.2c0.1-0.1,0.2-0.2,0.3-0.3l0.1-0.1
			c0.3,0.2,0.6,0.4,0.9,0.7l0.5,0.5l0.2-0.6c0.2-0.9-0.2-1.6-0.7-2.1c-0.5-0.6-1-1-1.5-1.5c-0.5-0.5-1.2-0.8-1.9-1
			c-0.6-0.2-1.3-0.3-1.9-0.1c-0.7-0.6-1.6-0.9-2.5-1.2c-0.9-0.3-1.8-0.5-2.7-0.6c-0.9-0.1-1.8-0.2-2.8-0.2c-0.9,0-2,0.1-2.8,0.2
			c-1.7,0.2-3.5,0.2-5.1,0c-1.7-0.2-3.3-0.7-4.5-1.6c-1.1-0.9-1.9-2.4-2.4-4c-0.4-1.6-0.4-3.4-0.3-5.2c0.1-0.9,0.3-1.7,0.4-2.7
			c0.1-0.9,0.2-1.8,0.2-2.7c-0.1-1.9-0.7-3.7-1.7-5.3c-1-1.6-2.4-2.9-3.7-4.2c-1.3-1.2-2.7-2.4-4.1-3.5c-2.8-2.3-5.6-4.6-8.5-6.7
			c-3-2.1-5.8-4.2-9.1-6c-0.8-0.4-1.7-0.8-2.5-1.2c-0.9-0.4-1.7-0.7-2.6-0.9C49.9,5.2,48.4,5,46.8,5c-0.3-0.2-0.6-0.4-1-0.6
			c-1.1-0.6-2.2-1.2-3.4-1.8c-0.6-0.3-1.2-0.5-1.8-0.7c-0.6-0.2-1.2-0.3-1.8-0.5c-1.2-0.3-2.5-0.6-3.8-0.7c-0.7,0-1.3-0.1-2,0.1
			c-0.3,0.1-0.7,0.2-0.9,0.6c-0.1,0.4,0.1,0.7,0.2,1c-0.1-0.2-0.1-0.5,0-0.7c-0.1,0.3,0,0.7,0.3,1.1c-0.9-0.3-1.8-0.7-2.8-1
			c-1.5-0.5-3-1-4.6-1.3C24.5,0.2,23.7,0,22.9,0c-0.4,0-0.9,0-1.3,0.1c-0.5,0.1-1,0.3-1.4,0.7l-0.4,0.4l0.4,0.5
			c0.6,0.7,1.2,1,1.8,1.4c0.6,0.4,1.2,0.7,1.8,1c1.2,0.6,2.5,1.2,3.7,1.7c0.3,0.1,0.5,0.2,0.7,0.3c-0.7-0.2-1.4-0.4-2.2-0.6
			c-1.7-0.4-3.3-0.8-5-1.1c-0.9-0.1-1.7-0.3-2.6-0.3c-0.5,0-0.9,0-1.4,0.1c-0.3,0-0.5,0.1-0.8,0.2c-0.3,0.1-0.6,0.3-0.9,0.6
			l-0.4,0.5L15.2,6c0.5,0.5,0.8,0.6,1.2,0.8c0.4,0.2,0.7,0.3,1.1,0.5c0.7,0.3,1.4,0.6,2.2,0.9c1.4,0.5,2.9,1,4.3,1.5
			c1.7,0.5,3.3,1,5,1.5c-2.3-0.4-4.7-0.7-6.9-1c-1.9-0.3-3.8-0.5-5.8-0.4c-0.5,0-1,0.1-1.5,0.1c-0.5,0.1-1.1,0.2-1.7,0.6
			c-0.1,0.1-0.2,0.1-0.2,0.2c0,0-0.1,0.1-0.1,0.1c0,0.1-0.1,0.1-0.1,0.2c-0.2,0.3-0.1,0.8,0.1,1c0.3,0.4,0.6,0.6,0.8,0.7
			c0.5,0.3,1,0.5,1.4,0.6c3.2,1,6.5,1.6,9.7,2.1c-0.6,0-1.2-0.1-1.7-0.1c-0.4,0-0.5,0-0.8,0c-1,0-2,0-3.1,0.1
			c-0.6,0.1-1.1,0.1-1.7,0.2c-0.3,0.1-0.6,0.1-0.9,0.2c-0.3,0.1-0.6,0.2-1,0.5c-0.2,0.1-0.4,0.4-0.4,0.7c-0.1,0.3,0,0.7,0.2,0.9
			c0.3,0.4,0.6,0.6,0.9,0.7c0.6,0.3,1.1,0.5,1.6,0.6c1.6,0.4,3.3,0.6,4.9,0.7c-0.1,0.1-0.1,0.2-0.2,0.3c-0.1,0.1-0.1,0.2-0.1,0.3
			c0,0.3,0.1,0.6,0.3,0.8c0.3,0.5,0.7,0.8,1.2,1.2c0.4,0.4,0.9,0.7,1.3,1c0.2,0.2,0.4,0.3,0.6,0.5c0.2,0.1,0.3,0.3,0.4,0.4
			c-0.3,0.3-0.4,0.8-0.4,1.2c0,0.5,0.1,0.9,0.3,1.3c0.3,0.7,0.8,1.4,1.5,1.8c-0.1,0.2-0.1,0.5-0.1,0.7c0,0.4,0,0.7,0.1,1
			c0.1,0.6,0.3,1.3,0.6,1.9c0.3,0.6,0.6,1.1,1,1.6c0.3,0.4,0.7,0.7,1.1,1c-0.3,0.8-0.4,1.7-0.4,2.6c0,0.5,0,1.1,0.2,1.7
			c0.1,0.4,0.2,0.7,0.5,1.1c-0.1,0.2-0.2,0.4-0.3,0.6c-0.2,0.4-0.3,0.9-0.3,1.4c0,0.5,0.1,1,0.4,1.5c0.2,0.3,0.5,0.6,0.8,0.8
			c0.1,0.5,0.3,1,0.4,1.5c0.2,0.6,0.3,1.2,0.6,1.8c0.2,0.6,0.5,1.2,0.9,1.8c0.3,0.4,0.6,0.8,0.9,1.1c-0.2,0.5-0.3,1-0.3,1.4
			c0,0.7,0.2,1.4,0.5,2c0.5,1.1,1.4,1.9,2.3,2.5c0,0.5,0.2,0.9,0.3,1.4c0.2,0.6,0.5,1.1,0.8,1.5c0.6,0.8,1.3,1.6,2.3,2
			c0,0.2,0.1,0.5,0.1,0.6c0.1,0.3,0.3,0.6,0.4,0.8c0.3,0.5,0.7,0.9,1.1,1.3c0.4,0.4,0.9,0.7,1.4,0.9c0.4,0.2,0.9,0.4,1.5,0.4
			c0.2,1,0.6,1.9,1.1,2.7c0.3,0.4,0.5,0.8,0.9,1.2c0.3,0.3,0.5,0.6,0.8,0.7c-0.4,0.5-0.8,1-1.1,1.6c-1,0.7-2,1.5-2.9,2.3
			c-0.1,0.1-0.3,0.2-0.4,0.3c-2,0.6-4.1,0.8-6.2,0.8c-2.2,0-4.4-0.1-6.6-0.3c-4.4-0.3-8.8-0.7-13.2-1.1c-2.2-0.2-4.4-0.4-6.6-0.6
			l-1.7-0.1c-0.5,0-1.2-0.1-1.8,0c-1.3,0.1-2.5,0.6-3.5,1.3c-2.1,1.4-3.3,3.9-3.2,6.4c0.1,1.2,0.5,2.4,1.2,3.4
			c0.5,0.7,1.3,1.3,2.2,1.6c-0.3,0.3-0.5,0.6-0.7,0.9c-0.4,0.6-0.6,1.4-0.5,2.1c0,1.5,0.7,2.8,1.6,3.9c0.9,1.1,2,1.9,3.2,2.5
			c0.9,0.4,1.9,0.8,3,0.9c-0.2,0.2-0.3,0.5-0.5,0.8c-0.3,0.6-0.4,1.3-0.4,1.9c0.1,1.3,0.6,2.5,1.3,3.6c0.7,1.1,1.7,1.9,2.9,2.5
			c0.7,0.3,1.4,0.5,2.1,0.6c-0.3,0.6-0.5,1.3-0.4,2.1c0,1.4,0.7,2.6,1.7,3.4c1,0.9,2.2,1.3,3.4,1.5c0.8,0.1,1.5,0.1,2.3,0.1
			c0.1,0.7,0.4,1.4,0.8,1.9c0.6,0.9,1.5,1.6,2.4,2.1c0.9,0.5,1.9,0.9,2.9,1c0.6,0.1,1.3,0.1,2,0c0.1,0.1,0.1,0.3,0.2,0.4
			c0.4,0.5,0.8,0.9,1.3,1.3c1,0.6,2.1,1,3.3,1c1.2,0,2.4-0.6,3.2-1.4c0.8-0.8,1.3-1.8,1.7-2.7l4-10l3.2-8c0.2-0.4,0.3-0.7,0.4-1
			l0.4-1c1.3-3.2,2.6-6.5,3.8-9.7c0.7-0.2,1.5-0.4,2.2-0.6c1.7-0.4,3.5-0.7,5.3-1c0.2,0.7,0.5,1.5,0.9,2.2c0.4,0.6,0.9,1.2,1.5,1.6
			c0,0.2,0.1,0.4,0.1,0.6c0.1,0.3,0.3,0.6,0.5,0.8c0.4,0.5,0.8,0.8,1.2,1.1c0.7,0.4,1.3,0.8,2,1c0.2,0.4,0.4,0.8,0.6,1.1
			c0.4,0.5,0.9,0.9,1.4,1.2c0.8,0.4,1.6,0.7,2.5,0.8c0,0.1,0.1,0.1,0.1,0.2c0.2,0.3,0.4,0.6,0.7,0.9c0.5,0.5,1.1,1,1.7,1.3
			c0.7,0.4,1.4,0.6,2.1,0.6c0.6,0,1.1-0.1,1.7-0.2c0.6,0.7,1.1,1.5,1.9,2.2c0.5,0.4,1.1,0.7,1.7,0.7c0.5,0.1,0.9,0,1.4,0
			c0.1,0.5,0.4,1.1,0.7,1.5c0.4,0.5,1,1,1.5,1.3c1,0.6,2,0.9,3.1,1.1c0.2,0.3,0.4,0.7,0.6,1c0.3,0.5,0.7,1,1.3,1.4
			c0.6,0.4,1.3,0.7,1.9,0.8c0.6,0.1,1.2,0.1,1.7,0c0.2,0.1,0.4,0.2,0.6,0.4c0.3,0.2,0.5,0.5,0.8,0.8c0.3,0.3,0.6,0.6,1.1,0.8
			c0.3,0.2,0.7,0.2,1.1,0.2c-0.1,0.9,0.1,1.7,0.5,2.4c0.4,0.7,1,1.3,1.7,1.7c0.4,0.2,0.8,0.3,1.2,0.3c0.2,0,0.4-0.1,0.6-0.2
			c-0.1,0.7-0.2,1.4-0.2,2c-0.1,1.7-0.1,3.4,0.3,5.1c0.1,0.4,0.2,0.9,0.5,1.3c0.1,0.2,0.3,0.5,0.5,0.7c0.2,0.2,0.6,0.4,1,0.5
			c0.4,0,0.8-0.1,1.1-0.3c0.3-0.2,0.4-0.4,0.6-0.6c0.3-0.4,0.5-0.8,0.8-1.2c0.2-0.4,0.4-0.8,0.6-1.2c0,0.3-0.1,0.6-0.1,0.9
			c0,0.7,0,1.5,0.1,2.3c0.1,0.8,0.2,1.6,0.6,2.3c0.2,0.4,0.5,0.8,0.9,1.1c0.2,0.2,0.5,0.3,0.7,0.3c0.1,0,0.3,0.1,0.5,0
			c0.2,0,0.3-0.1,0.4-0.2c0.5-0.3,0.7-0.6,0.9-0.9c0.2-0.3,0.4-0.7,0.6-1c0.2-0.5,0.4-0.9,0.6-1.4c0.3-0.5,0.6-1,0.8-1.4
			c0,0.2,0,0.4,0.1,0.6c0.1,0.5,0.2,1.1,0.3,1.6c0.1,0.5,0.3,1.1,0.5,1.7c0.1,0.2,0.2,0.3,0.3,0.5c0.1,0.2,0.3,0.4,0.7,0.5
			c0.1,0,0.2,0,0.3,0.1c0.1,0,0.1,0,0.2,0l0.3,0c0.2,0,0.4,0,0.5-0.1c0.4-0.1,0.7-0.3,1-0.6c0.3-0.3,0.5-0.5,0.6-0.8
			c0.3-0.5,0.5-1,0.7-1.5l0.3-0.7c0.1-0.2,0.2-0.5,0.3-0.8c0.1-0.3,0.2-0.6,0.2-0.9c0.2,0.2,0.3,0.3,0.5,0.4
			c0.3,0.2,0.8,0.2,1.1,0.1c0.3,0,0.7-0.1,1.1-0.3c0.4-0.2,0.7-0.5,0.8-0.8c0.4-0.6,0.6-1.3,0.8-1.8c0.2-0.6,0.4-1.2,0.7-1.7
			c0.1-0.3,0.2-0.7,0.3-1l0.2-1c0-0.1,0-0.3,0-0.4c0.2-0.5,0.5-0.9,0.7-1.3c0.5-0.3,1-0.7,1.4-1.3c0.6-0.9,1-1.9,1.3-2.9
			c0.2-0.5,0.3-1,0.4-1.5c0-0.3,0.1-0.6,0.1-0.8l0-0.8c0-1.1-0.1-2.1-0.3-3.1c0,0,0-0.1,0-0.1c0-0.1,0.1-0.3,0.1-0.4
			c0.5-0.7,0.8-1.6,1-2.4c0.2-0.3,0.3-0.7,0.2-1.1c0.1-0.9,0.2-1.8,0.1-2.7C127.9,96.3,127.8,95.1,127.6,94z M107,52.1
			c-0.1-0.2-0.3-0.3-0.4-0.4c0.4,0.1,0.8,0.3,1.2,0.5c0.3,0.1,0.6,0.3,0.9,0.4c0.1,0.1,0.2,0.1,0.3,0.1c0.2,0.1,0.4,0.2,0.6,0.2
			c0.6,0.2,1.2,0.7,1.5,1.2c0.2,0.3,0.3,0.7,0.3,1c-0.2-0.1-0.3-0.3-0.5-0.4c-0.3-0.2-0.5-0.3-0.8-0.4v0c-0.2-0.1-0.3-0.1-0.5-0.1
			c-0.9-0.2-1.8-0.1-2.6,0.1c0,0-0.1,0-0.1,0c0,0,0,0,0,0c0,0,0,0,0,0c0.5,0.1,0.9,0.1,1.3,0.2c0.4,0.1,0.8,0.2,1.2,0.3
			c0.3,0.1,0.6,0.2,0.9,0.4l-0.1,0c-0.1,0-0.3,0.1-0.4,0.1s-0.2,0.1-0.3,0.1c-0.1,0-0.3,0-0.4,0c-0.5,0.1-0.9,0-1.4,0
			c-0.5-0.1-1-0.2-1.5-0.3c-0.4-0.1-0.9-0.3-1.2-0.6c0.3-0.2,0.6-0.3,0.8-0.5c0.2-0.1,0.3-0.2,0.5-0.3c0,0,0.1,0,0.1-0.1h0
			c0.1-0.1,0.2-0.2,0.3-0.3c0.1-0.2,0.3-0.4,0.3-0.7C107.2,52.6,107.1,52.3,107,52.1z M64.2,15.7l8.6,6.4l4.3,3.2
			c1.4,1.1,2.8,2.1,3.9,3.4c1.1,1.3,1.8,2.9,2,4.7c0.1,0.9,0,1.7-0.1,2.6c-0.1,0.9-0.3,1.7-0.4,2.6c-0.3,1.8-0.5,3.6-0.3,5.5
			c0.1,1,0.3,1.9,0.7,2.8c0.4,0.9,0.9,1.8,1.7,2.5c0.1,0.1,0.2,0.2,0.3,0.3c0.3,0.2,0.6,0.4,0.9,0.6c0.4,0.2,0.9,0.4,1.4,0.6
			c0.9,0.3,1.9,0.5,2.9,0.6c1.9,0.2,3.8,0,5.6-0.3c0.4-0.1,1-0.2,1.3-0.3c0.4-0.1,0.8-0.1,1.2-0.2c0.9-0.1,1.7-0.1,2.6-0.1
			c0.9,0,1.8,0.1,2.6,0.2c0.9,0.1,1.8,0.2,2.5,0.6l0,0c0,0,0,0,0,0c0.2,0.3,0.4,0.5,0.5,0.8c0.1,0.2,0.1,0.3,0,0.4
			c0,0.1,0,0.1-0.1,0.2c0,0,0,0.1-0.1,0.1l-0.4,0.4c-0.1,0.1-0.3,0.3-0.4,0.4c-0.3,0.3-0.5,0.6-0.8,0.8l-0.1,0.1l0.1,0.1
			c0.4,0.4,0.8,0.8,1.2,1.1c0.5,0.3,1,0.5,1.6,0.6c0.2,0.1,0.4,0.1,0.7,0.1h0c0.1,0,0.1,0,0.2,0c-0.2,0.2-0.4,0.4-0.6,0.7
			c-0.3,0.5-0.6,1-0.8,1.4c-0.5,0.9-1.1,1.7-1.8,2.3l-0.1,0c-0.5,0.4-0.9,0.9-1.3,1.6c-0.3,0.6-0.5,1.4-0.5,2.1c0,0.1,0,0.3,0.1,0.4
			c0.1,0.5,0.3,1,0.5,1.4c0.1,0.1,0.1,0.2,0.2,0.4c0.3,0.5,0.8,1,1.2,1.3c0.3,0.2,0.5,0.4,0.8,0.6l0.2,0.1h0
			c0.1,0.1,0.1,0.1,0.2,0.1l0.3,0.2c0.1,0,0.1,0.1,0.1,0.1c0.2,0.1,0.4,0.3,0.6,0.4c0.3,0.1,0.5,0.3,0.8,0.4
			c0.2,0.1,0.4,0.2,0.6,0.3c0.4,0.2,0.8,0.3,1.2,0.4c0.7,0.1,1.3,0,1.9-0.1c0.3-0.1,0.6-0.1,0.9-0.2c0.2-0.1,0.5-0.1,0.8-0.1
			c0.5,0,1,0,1.5,0.2c1,0.3,1.9,1,2.4,1.9c0.3,0.4,0.4,0.9,0.6,1.5l0.5,1.6l0.9,3.3c0.9,3,1.9,5.9,2.9,8.9c0,0.1,0,0.2-0.1,0.3
			c-0.2,0.8-0.5,1.6-0.8,2.4c-0.6,1.5-1.5,2.9-2.5,4.3c-1,1.3-2.1,2.6-3.3,3.7c-1.2,1.1-2.5,2.2-3.8,3.1c-1.8,0.8-3.7,1.5-5.6,1.5
			c-1,0-1.9-0.1-2.8-0.5c-0.8-0.4-1.4-1.2-1.8-2.1c-0.4-0.9-0.5-1.9-0.6-2.8c-0.1-0.8,0-1.6,0.1-2.4c0-0.2,0-0.3,0-0.3
			c0-0.1,0-0.2,0-0.3c0-2.1-0.7-4.1-1.9-5.8c-1.2-1.7-2.9-3-4.6-4c-1.8-1-3.7-1.8-5.6-2.4c-0.9-0.3-1.9-0.6-2.9-0.8c0,0,0,0,0-0.1
			c0,0-0.1,0-0.1,0c0,0,0,0,0,0c-2.9-0.7-5.9-1.2-8.9-1.5c0,0,0,0,0,0c0,0,0,0,0,0c0,0,0,0,0,0c0.5,0.1,1,0.1,1.5,0.2
			c0.5,0.1,1,0.1,1.5,0.2c-0.4,0.5-0.9,0.9-1.3,1.3c-0.3,0.2-0.4,0.3-0.4,0.3c0,0,0,0-0.1,0c-0.9,0-3-0.1-2.2-1.9
			c0.3-0.1,0.5-0.2,0.8-0.3c0.3-0.1,0.7-0.3,1-0.4c1.9-0.9,3.9-1.9,5.5-3.3c0,0,0,0,0,0c0,0,0-0.1,0-0.1c0,0-0.1-0.1-0.1,0
			c-1.9,1-3.9,1.6-5.9,2.2c-2,0.6-4,1.2-6,1.9c-1,0.3-2,0.7-3,1.1c-0.9,0.4-1.9,0.7-2.9,1.1l-1.6,0.5c1.6-1.2,3.2-2.3,4.7-3.7
			c0.4-0.4,0.8-0.8,1.1-1.3c0.3-0.5,0.6-1,0.5-1.7c0-0.1-0.1-0.2-0.1-0.2c0-0.1-0.1-0.2-0.2-0.2c-0.1-0.1-0.3-0.2-0.4-0.3
			c-0.3-0.1-0.5-0.2-0.8-0.3c-0.6-0.2-1.1-0.3-1.7-0.3c-2.2-0.3-4.5-0.2-6.7,0c-0.5,0.1-1.1,0.1-1.7,0.2c-0.3,0.1-0.6,0.1-0.8,0.2
			c-0.3,0.1-0.4,0.1-0.6,0c-0.3-0.1-0.4-0.5-0.2-0.8c0.4-0.4,0.7-0.8,1.1-1.2c1.5-1.6,3.1-3.1,4.8-4.4l1.3-1
			c0.2-0.2,0.4-0.3,0.7-0.6c0.2-0.3,0.4-0.6,0.4-0.9c0.1-0.7-0.3-1.4-1-1.7c-0.3-0.1-0.7-0.1-0.9-0.1c-0.3,0-0.6,0-0.8,0
			c-2.2,0.1-4.4,0.6-6.5,1.1c-1.1,0.3-2.1,0.6-3.2,1c-0.4,0.2-0.8,0.3-1.2,0.5c0.1,0,0.1-0.1,0.2-0.1c0.8-0.5,1.6-1,2.4-1.5l0.1-0.1
			l0.1-0.2c0.3-0.4,0.7-0.9,1.2-1.3c0.5-0.4,1-0.8,1.6-1.2c1.1-0.7,2.3-1.4,3.4-2.1c1.2-0.7,2.4-1.3,3.6-1.9
			c1.2-0.6,2.4-1.2,3.7-1.8c0,0,0-0.1,0-0.1c0,0,0-0.1-0.1-0.1c-1.4,0.2-2.7,0.7-4,1.2c-1.3,0.5-2.5,1-3.8,1.6
			c-0.4,0.2-0.7,0.4-1,0.5c0-0.1,0.1-0.1,0.1-0.2c0.1-0.1,0.1-0.2,0.2-0.3c0.1-0.2,0.2-0.4,0.3-0.6c0,0,0-0.1,0-0.1c0,0,0,0,0,0
			c1-2.5,1.4-5.2,1.5-7.8c0.1-3.7-0.3-7.4-0.9-11.1c-0.1-0.6-0.2-1.2-0.3-1.8c0,0,0.1,0,0.1-0.1c0,0-0.1,0-0.1,0.1
			c-0.2-1.2-0.4-2.5-0.5-3.7c-0.1-0.9-0.2-1.8-0.3-2.7c-0.1-0.9,0-1.8-0.2-2.8c-0.1-0.5-0.3-1-0.5-1.4c-0.3-0.5-0.8-0.8-1.1-1
			c-0.7-0.6-1.3-1.3-1.9-2c-0.6-0.7-1.1-1.4-1.6-2.2c-0.2-0.4-0.4-0.8-0.6-1.2c-0.1-0.4-0.2-0.8-0.1-1.1l0-0.1v-0.1
			c0.1-1,0.6-2.1,1.4-2.9c0.8-0.8,1.8-1.3,2.9-1.6c1.8-0.4,3.6-0.3,5.5,0.1L64.2,15.7z M109.3,103.2c-0.6,1.3-1,2.7-1.4,4.1
			c-0.8,1.3-2,3.2-3.4,2.7c-1.3-0.5-1.6-3-1.6-4.4c0.3-0.9,0.6-1.7,0.9-2.6c0.9,0.4,1.9,0.6,2.8,0.6
			C107.6,103.5,108.5,103.4,109.3,103.2z M77.1,83.4c-0.5,0.4-1,0.8-1.5,1.2c-4.1,1.4-7.1,0.5-5.7-1.9c0.9-0.3,1.8-0.7,2.7-1
			c1.2-0.4,2.3-0.9,3.5-1.4C74.7,82.1,73.1,84.6,77.1,83.4z M76,84.9c0.5-0.5,1.1-0.9,1.6-1.4c0.3-0.3,0.7-0.6,1-0.9
			c-0.5,1.5-0.3,5.1,2.9,2.9c-0.6,0.4-1.1,0.8-1.7,1.3C76.5,87.8,74.5,87.2,76,84.9z M80.7,80.3c1.9,0.3,3.8,0.7,5.7,1.2
			c-0.8,0.9-1.8,1.6-2.7,2.4c-0.3,0.1-0.4,0.2-0.3,0.3c-0.1,0.1-0.3,0.2-0.4,0.3c-0.2,0.1-0.4,0.3-0.6,0.4c0.1-0.1,0.2-0.2,0.3-0.3
			c-1.4,0.4-3.9-1.3-3.3-2.8C79.9,81.3,80.3,80.8,80.7,80.3C80.7,80.3,80.7,80.3,80.7,80.3z M97.2,92.2c-2.5,1.9-6.4,2.1-3.7-2.4
			c1.2-1.1,2.3-2.3,3.1-3.7c1,0.7,1.9,1.6,2.6,2.6C98.8,90,98,91.1,97.2,92.2z M99.3,88.8C99.3,88.8,99.3,88.8,99.3,88.8
			c1.2,1.6,1.8,3.6,1.8,5.6c0,0.3,0,0.6-0.1,0.9c-1.4,1.3-4.8,3.7-3.1-3.4C98.5,90.9,99,89.8,99.3,88.8z M93.3,89.4
			c-2.9,1-6.1-0.5-5-3.2c0.5-0.5,1-1,1.6-1.5c0.6-0.5,1.3-1.1,2-1.3c1,0.4,2,0.9,3,1.5c0.6,0.3,1.1,0.7,1.6,1.1
			C95.7,87.3,94.5,88.4,93.3,89.4z M89.8,84.5c-0.7,0.6-1.4,1.2-2,1.8c-0.3,0.3-0.7,0.7-1,1c-1.4,0.2-3.5-1.6-3-3
			c1-0.9,1.9-1.7,2.8-2.7c1,0.3,2,0.6,3,0.9c0.8,0.3,1.6,0.6,2.4,0.9C91,83.6,90.4,84.1,89.8,84.5z M80.1,87.3
			c0.9-0.7,1.7-1.4,2.6-2.1c-0.9,2-1.5,6,3.9,2.2c-0.9,0.9-1.8,1.8-2.8,2.7l-1.5,1.4C79.2,93.2,78.7,89.7,80.1,87.3z M83.2,91.7
			c0.4-0.4,0.7-0.8,1.1-1.1c1.1-1.2,2.2-2.4,3.4-3.6c-0.8,1.7-3.8,8.4,3.9,4c-0.9,0.7-1.8,1.5-2.6,2.2c-0.7,0.6-1.5,1.2-2.2,1.8
			C84.1,96,82.4,94.2,83.2,91.7z M87.5,95.3l1.8-1.6c0.7-0.6,1.4-1.2,2.1-1.9c-2.4,4.2-0.2,6.1,4.2,2.5c-0.6,0.6-1.1,1.3-1.7,1.9
			c-0.4,0.4-0.8,0.8-1.2,1.2C88.7,98.9,86.7,98,87.5,95.3z M92.6,98.7c0.6-0.7,1.2-1.4,1.8-2.1c0.8-0.9,1.5-1.9,2.2-2.9
			c-1.4,3.4-2,9.1,3.2,4.7c-0.6,1.1-1.2,2.1-2,3.1C94,104.7,91.3,102.3,92.6,98.7z M97.9,102.5c1.1-1.4,1.9-3,2.6-4.7
			c0.2-0.4,0.4-0.7,0.5-1c0,1.2,0.1,2.4,0.6,3.6c0.2,0.5,0.5,1.1,0.9,1.5c-0.4,0.5-0.8,0.9-1.2,1.3c-0.1,0.1-0.2,0.2-0.3,0.3
			C99.7,104.3,97.7,105.2,97.9,102.5z M46.3,12.4c-0.3-0.1-0.6-0.2-0.9-0.4c-1.5-0.6-3-1.1-4.5-1.7c-0.3-1.1,1-1.5,2.2-1.6
			c1.2,0.5,2.5,1.1,3.7,1.6c0.6,0.3,1.3,0.5,1.9,0.8C47.6,11.2,46,11.5,46.3,12.4z M45.1,12.8c0.4,0.1,0.8,0.2,1.2,0.4
			c-0.9,0-1.6,0.1-1.8,0.5c-0.2,0.4,0.5,1,1.1,1.4l-3.9-1.3l-3.5-1.1c-0.2-1,0.9-1.3,1.9-1.5C41.7,11.7,43.4,12.2,45.1,12.8z
			 M38.6,13.8C38.6,13.7,38.6,13.7,38.6,13.8c0.9,0.2,1.9,0.5,2.8,0.7c1.1,0.3,2.2,0.5,3.3,0.8c-1.1,0.2-2.9,0.8-0.9,2
			c-0.3-0.1-0.6-0.1-1-0.2c-2.1-0.3-4.1-0.5-6.2-0.6C35.7,15.1,37.7,13.7,38.6,13.8z M37.3,17.3c1.8,0.1,3.6,0.2,5.4,0.4
			c1,0.1,2,0.2,3,0.4c-1.3-0.1-2.7-0.1-3,0.6c-0.3,0.7,1.1,1.4,2.2,1.9c-2.1-0.2-4.1-0.3-6.2-0.4C37.8,19.6,37.1,18.1,37.3,17.3z
			 M38.3,21c2.4,0.1,4.8,0.2,7.2,0.3c-1.5,0.5-4.1,1.6-0.4,3.1c-1.3,0-2.5,0.1-3.8,0.1C39.8,23.6,37.4,21.9,38.3,21z M57.9,57.6
			c0.1-0.8-0.1-1.5-0.2-1.9c0.6-0.4,1.3-0.8,1.9-1.2c0.7-0.6,1.4-1.1,2-1.8c-0.1,2-0.5,4-1.2,5.9c-0.1,0.1-0.1,0.1-0.1,0.2
			C59.1,58.9,57.8,58.8,57.9,57.6z M58.4,60.8L58.4,60.8C58.4,60.8,58.4,60.8,58.4,60.8C58.4,60.8,58.4,60.8,58.4,60.8z M60.4,53.6
			c-4,0.5-2.9-1.8-2.3-2.8c0.5-0.2,0.9-0.5,1.4-0.8l0,0c0.7-0.4,1.4-0.8,2-1.3c0,0.7,0.1,1.5,0.1,2.2c0,0.6,0,1.1-0.1,1.7
			C61.2,53,60.8,53.3,60.4,53.6z M58.7,50c-1.4,0-4.2-0.1-4.5-1.1c-0.3-0.9,0.2-2.2,0.5-2.9c2.1-0.9,4.3-1.9,6.2-3.3
			c0.3,2,0.5,3.9,0.6,5.9C60.6,49.2,59.7,49.6,58.7,50z M57.8,44.2c-0.9,0.4-1.9,0.8-2.9,1.1c-0.9-0.2-2.9-0.6-3.2-1.2
			c-0.3-0.6,0.4-1.9,1.4-2.8c0.3-0.1,0.5-0.2,0.8-0.3c2.1-0.8,4.3-1.5,6.2-2.7c0.1,0.5,0.2,1,0.3,1.5c0.2,0.9,0.3,1.9,0.4,2.8
			C59.9,43.3,58.9,43.7,57.8,44.2z M57.4,39.4c-1.2,0.4-2.3,0.7-3.5,1.1c-1.1,0-2.4-0.3-2.5-1.3c-0.1-1.6,0.5-2.8,0.6-3.1
			c0.2,0,0.3-0.1,0.5-0.1c2.4-0.6,4.8-1.2,7-2.3c0,0.3,0.1,0.6,0.1,0.9c0.2,1.3,0.4,2.6,0.6,3.9C59.3,38.7,58.4,39,57.4,39.4z
			 M56,34.5c-1,0.2-2.1,0.5-3.2,0.7c-0.8-0.1-1.8-0.3-1.7-0.8c0-0.6,0.6-1.3,0.9-1.7c0.1,0,0.3-0.1,0.4-0.1c2.3-0.5,4.6-0.9,6.7-2
			c0,0.3,0,0.6,0.1,1c0.1,0.6,0.1,1.2,0.2,1.9C58.4,34,57.2,34.2,56,34.5z M55.9,31.5c-1,0.2-2.1,0.4-3.1,0.5
			c-0.5-0.3-1.3-0.8-1.3-1.1c0-0.4,0.4-0.7,1-0.9c0.9-0.1,1.7-0.2,2.6-0.3c1.3-0.2,2.7-0.4,3.9-1c0,0.1,0.1,0.2,0.1,0.3
			c0.1,0.6,0.2,1.1,0.2,1.7C58.1,31.1,57,31.3,55.9,31.5z M55,29.3c-1.3,0.1-2.7,0.2-4,0.2c-0.2,0-0.4,0-0.6,0
			c-1.5-0.5-4.8-2.1-0.9-4.5c0.9,0,1.7-0.1,2.6-0.1l1.8,0c0.6,0,1.2,0,1.8,0c0.6,0.7,1.2,1.4,1.9,2c0.4,0.3,0.7,0.5,0.9,0.9
			c0.2,0.2,0.3,0.5,0.4,0.8C57.7,29.1,56.3,29.2,55,29.3z M48.4,24.4c-0.2,0-0.5,0-0.7,0c-1.6-0.6-4-1.8-0.8-3
			c1.1,0.1,2.1,0.2,3.2,0.3c1.3,0.1,2.6,0.4,3.9,0.8c0,0,0,0.1,0.1,0.1c0.5,0.8,1,1.6,1.6,2.3c0,0,0,0,0,0
			C53.3,24.6,50.8,24.5,48.4,24.4z M41.1,25.4l7.1-0.3c-1.5,0.8-5.1,3.4-0.5,4.5c-1.2,0-2.4,0-3.5,0C42.5,28.4,40.8,26.2,41.1,25.4z
			 M43.9,30.3c2.2,0,4.4-0.1,6.5-0.2c-0.7,0.2-1.3,0.5-1.3,1c0,0.6,1.2,0.9,2.3,1.1c-2,0.3-4.1,0.5-6.2,0.7c-0.1,0-0.1,0-0.2,0
			C44.4,32.2,43.7,31,43.9,30.3z M45.2,33.6h0.1c2-0.2,4-0.4,5.9-0.7c-1.4,0.7-3.2,2.2,0,2.6c-1.8,0.3-3.7,0.7-5.5,0.9
			C44.5,35.8,43.7,34.9,45.2,33.6z M45.7,37.2c2-0.3,4.1-0.7,6.1-1.2c-1.2,0.7-4.7,4.3,0.3,4.9c-1.8,0.5-3.6,1-5.4,1.4
			C45.4,41.5,44.3,38.4,45.7,37.2z M46.3,43.3c0.2,0,0.4-0.1,0.5-0.1c1.9-0.5,3.7-1,5.5-1.5c-1.2,0.8-2.4,2.1-1.9,3.1
			c0.5,1.1,2.4,1,3.8,0.9c-1.9,0.7-3.8,1.3-5.8,1.9C46.7,46.9,43.7,45.5,46.3,43.3z M48.1,48.4c2-0.6,4-1.3,5.9-2.1
			c-1.3,1.4-2.9,4.4,2.4,4.6c-0.3,0.1-0.7,0.3-1,0.4c-1.1,0.4-2.1,0.8-3.2,1.2C50.6,52,46.8,50.4,48.1,48.4z M52.6,53.2
			c1-0.4,2.1-0.8,3.1-1.3c0.1-0.1,0.3-0.1,0.5-0.2c-2.1,2.1,0.7,3.3,1.7,3.4c-0.4,0.2-0.8,0.4-1.2,0.6c-0.4,0.2-0.9,0.4-1.4,0.6
			C51.7,56.4,52.2,54.2,52.6,53.2z M56.8,56.2c0.1-0.1,0.2-0.1,0.4-0.2c-0.5,1.3-0.9,4.4,0.5,4.7c-0.4,0.2-0.8,0.5-1.2,0.7
			c-0.2,0.1-0.4,0.2-0.6,0.3c-1.5,0.1-3.2,0-2.8-1.1c0.4-1.3,1-2.4,1.2-3C55.2,57.1,56,56.7,56.8,56.2z M55.5,62.7
			C55.5,62.7,55.6,62.7,55.5,62.7C55.6,62.7,55.5,62.8,55.5,62.7c-0.5,0.4-1,0.9-1.4,1.6c-1.1,0.8-2.2,1.7-3.3,2.6
			c-1.8,0.2-4.6,0.3-2.6-1.6c1.4-0.2,2.8-0.6,4.1-1.1C53.5,63.8,54.5,63.3,55.5,62.7z M52.6,7.5c1,0.5,2,1.1,3,1.8
			c0.1,0.1,0.3,0.2,0.4,0.3c-1-0.1-1.8,0-2.1,0.3c-0.6-0.4-1.2-0.9-1.8-1.3c-0.2-0.1-0.4-0.2-0.5-0.4C51.8,7.9,52.2,7.7,52.6,7.5z
			 M53.8,10.8c1.5,0.8,2.9,1.6,4.5,2.2c-0.6-0.5-1.3-1-1.9-1.4c0.1-0.5,0.3-1,0.8-1.2c0.9,0.7,1.8,1.3,2.8,2.1l3.5,2.7
			c-1.7-0.4-3.4-0.6-5.2-0.3c-1.2,0.2-2.3,0.8-3.2,1.7c-0.9,0.9-1.4,2-1.6,3.2c-0.2,0.6-0.1,1.1,0,1.6c0.1,0.4,0.3,0.8,0.5,1.1
			c-2.6-1.1-5.4-1.4-8.2-1.7c0,0,0,0,0,0c-0.5-0.5-1.3-1.3-1.3-1.8c0.1-0.6,1.6-0.6,2.5-0.7c1,0.2,1.9,0.4,2.9,0.8
			c-1.3-0.7-2.8-1.1-4.3-1.4c-0.9-0.6-1.8-1.5,0.3-2.1c1.5,0.4,2.9,0.7,4.4,1l-3.6-1.2c-0.5-0.7,0.1-1.5,0.9-1.9
			c2.4,0.8,4.9,1.6,7.4,2.3c-2.4-1-4.8-1.9-7.2-2.9c0-0.5,0.3-1.2,2.8-1c0.2,0.1,0.4,0.2,0.6,0.3c1.4,0.6,2.9,1.3,4.4,1.8
			c-1.4-0.8-2.9-1.6-4.3-2.4C50.2,10.2,52.4,10.6,53.8,10.8z M47.9,5.7C47.9,5.7,47.9,5.7,47.9,5.7C47.9,5.7,47.9,5.7,47.9,5.7
			C47.9,5.7,47.9,5.7,47.9,5.7z M46.4,6.6c1.5,0.9,3.1,1.8,4.6,2.7c-1,0.2-1.3,0.9-1,1.7c-1-0.5-1.9-1.1-2.9-1.6
			c-0.9-0.5-1.8-0.9-2.6-1.3C44.6,7.3,45.5,6.7,46.4,6.6z M38.2,2.5c0.1,0,0.2,0.1,0.3,0.1l1.8,0.6c0.5,0.2,1.1,0.5,1.6,0.7
			c0.9,0.5,1.8,1,2.7,1.5c-0.8,0.2-1,1.3-1.1,2c-1.6-0.8-3.1-1.5-4.7-2.3c-0.5-0.2-1-0.4-1.5-0.7C36.4,3.5,37.3,2.8,38.2,2.5z
			 M27.8,5c-0.4-0.2-0.7-0.4-1.1-0.6C26.1,3.5,27,3,27.9,2.7c0.5,0.2,1,0.3,1.5,0.5c2.9,1,5.8,2.2,8.7,3.4c1,0.4,2.1,0.9,3.1,1.3
			c-1.6,0.2-1.7,1.3-1.6,2C38.3,9.4,37,9,35.7,8.5c-0.9-0.3-1.8-0.6-2.7-0.9l-1.6-0.8L27.8,5z M24.4,8.2c-0.2-0.1-0.3-0.1-0.5-0.2
			c-0.2-0.5-0.2-1,0.1-1.4c0.5,0.1,1,0.2,1.6,0.4c3.3,0.8,6.6,1.8,9.8,2.7c0.7,0.2,1.5,0.5,2.2,0.7c-1.6,0.3-1.7,0.9-1.4,1.6L33,11
			C30.1,10.1,27.2,9.2,24.4,8.2z M20.9,13.3C20.9,13.3,20.8,13.3,20.9,13.3c-1.1-0.8-1.6-1.7-1.1-2.2c0.7,0,1.4,0.1,2.2,0.1
			c3.2,0.3,7,0.4,10.3,0.8c0.1,0,0.3,0.1,0.4,0.1c1.4,0.4,2.8,0.8,4.3,1.2c0,0,0,0,0,0c-3,0.1-2.5,2.1-1.5,3.1l-0.2,0
			c-1.1-0.3-2.2-0.5-3.3-0.7l-5.5-1.2C24.6,14.1,22.7,13.7,20.9,13.3z M26.7,24.7C26.7,24.7,26.7,24.7,26.7,24.7
			C26.7,24.7,26.7,24.7,26.7,24.7C26.7,24.7,26.7,24.7,26.7,24.7C26.8,24.7,26.7,24.7,26.7,24.7z M28,19.9c-1.5-0.1-2.9-0.1-4.4-0.3
			c0,0-0.1,0-0.1,0c-1.1-0.7-0.7-2-0.1-2.8c0.7,0,1.4,0,2.1-0.1c1.1,0,2.3-0.1,3.4-0.1c2.2,0.2,4.4,0.4,6.6,0.6c0.3,0,0.5,0,0.8,0
			c-1.2,0.6-3.5,1.6-1.4,2.9L28,19.9z M32.5,20.8c1.1,0.1,2.2,0.1,3.2,0.1c-0.4,0.8,0.3,2.8,2.7,3.8c-1.5,0.1-2.9,0.1-4.4,0.2
			C29.8,23.4,31.2,21.5,32.5,20.8z M33.2,25.5c0.2,0,0.3,0,0.5,0c1.8,0.1,3.6,0,5.5-0.1c-0.5,0.9-0.9,2.9,2.3,4.1
			c-2.2,0-4.5-0.1-6.7-0.2c-0.1,0-0.3,0-0.4,0C32.3,28.4,29.1,26.7,33.2,25.5z M32.7,29.6c0.7,0.1,1.4,0.2,2.1,0.3
			c2.4,0.3,4.7,0.4,7.1,0.4C41,31,40.6,32.4,42.4,33c-1.4,0.1-2.9,0.1-4.3,0.2c-1.2,0-2.4,0-3.6-0.1c-0.3,0-0.5,0-0.8-0.1
			C31.4,32,30.5,30.3,32.7,29.6z M35.6,33.6c0.8,0.1,1.7,0.1,2.5,0.2c1.8,0.1,3.6,0.1,5.4,0c-1.1,0.9-1.9,2.4,0.4,2.9
			c-2.1,0.3-4.2,0.5-6.3,0.7c-0.6,0-1.2,0.1-1.8,0.1C33.4,36.7,31.4,34.5,35.6,33.6z M35.8,37.9c0.6,0,1.2,0,1.8,0
			c2.2,0,4.3-0.2,6.5-0.5c-1.7,1.1-4.3,3.4,0.1,5.5c-1.6,0.4-3.3,0.7-4.9,0.9c-0.2,0-0.4,0.1-0.6,0.1c-0.3,0-0.7,0-1-0.1
			C31.8,41.7,34.2,38.9,35.8,37.9z M37.8,56.4L37.8,56.4L37.8,56.4C37.9,56.4,37.8,56.4,37.8,56.4z M39.6,44.5c0.1,0,0.3,0,0.4,0
			c-0.1,0-0.1,0-0.2-0.1c0.1,0,0.1-0.1,0.2-0.1c1.3-0.1,2.6-0.4,3.9-0.6C43,45,42,47.4,45.9,48.3c-1.7,0.5-3.3,0.9-5,1.3
			C38,49.2,32.9,47.5,39.6,44.5z M41.2,50.2c1.5-0.3,3-0.6,4.5-1c-0.8,1.5-0.9,4.4,2.7,4.7c-1.5,0.5-3,0.9-4.5,1.3
			C40.9,54.9,35.8,53.7,41.2,50.2z M44.1,55.8c1.5-0.3,2.9-0.7,4.4-1.1c-2.8,3,3.5,2.4,6.3,1.9c-1.3,0.6-2.6,1.1-3.9,1.6
			c-1.5,0.6-3,1-4.5,1.5C44,59.4,40.9,58.1,44.1,55.8z M47.7,60c1.2-0.3,2.3-0.7,3.4-1.1c0.1-0.1,0.3-0.1,0.4-0.2
			c-1.7,1.6-2.6,3.9,2,4.1c-0.5,0.2-0.9,0.4-1.4,0.6c-1.1,0.4-2.2,0.8-3.3,1C46.8,63.9,43.5,61.9,47.7,60z M35.3,76.6
			c0.4,0,0.9-0.1,1.3-0.1c1.8-0.2,3.5-0.5,5.2-1.1c-0.6,0.4-1.1,0.9-1.7,1.3c-1,0.7-2,1.5-3,2.2C36.6,79,36,79,35.5,79.1
			C35.1,78.5,34.6,77.4,35.3,76.6z M25.1,76.6c1.6,0.1,3.2,0.1,4.8,0.1c0.7,0,1.3,0,2,0c-1.6,0.8-2.7,2-0.1,2.9
			c-0.8,0.1-1.5,0.3-2.3,0.4c-1.7,0.3-3.4,0.8-5.1,1.2C23.7,80.1,22.9,77.8,25.1,76.6z M29.9,81.6c1.9-0.5,3.9-1.1,5.8-1.8
			c-0.5,0.4-1.1,0.7-1.7,1.1c-2.1,1.3-4.2,2.6-6.4,3.8c-1.1,0.6-2.2,1.2-3.3,1.8c-1.1,0.6-2.2,1.1-3.3,1.7c-0.9-0.9-0.8-2.4,1.9-5.1
			C25.3,82.6,27.6,82.2,29.9,81.6z M12.4,75.9c1.4,0.1,2.9,0.2,4.3,0.3c1.5,0.1,2.9,0.2,4.4,0.3c-3.9,1.3-8.8,4.3-2,6.2
			c-1.8,0.4-3.6,0.9-5.5,1.3C1.7,82.6,8.5,77.4,12.4,75.9z M12.6,85c0.3-0.1,0.6-0.1,0.8-0.1c2-0.4,4.1-0.7,6.1-1.1
			c-2.1,1.8-6.1,7.6,1.1,7.3c0,0-0.1,0.1-0.1,0.1c-1.2,0.7-2.5,1.3-3.7,2C11.8,93.6,1.2,93.4,12.6,85z M17.7,93.6
			c0.8-0.3,1.7-0.7,2.5-1c-1.1,2.3-2.3,8.1,3.5,5.6c0.3-0.1,0.5-0.3,0.7-0.4c-0.5,0.7-1,1.4-1.5,2c-0.2,0.3-0.5,0.5-0.8,0.8
			C14.7,103.4,11.8,100.1,17.7,93.6z M24.4,92.1c0.4,0.8,1.1,1.3,1.8,1.6c0.3,0.1,0.6,0.2,0.9,0.2c-0.5,0.7-0.9,1.5-1.4,2.2
			c-1.8,0.4-5.1,0.6-3.2-4.4c0.6-0.2,1.2-0.5,1.8-0.8C24.2,91.3,24.2,91.7,24.4,92.1z M38.3,91.8c0.1-0.2,0.2-0.4,0.3-0.6l0.2-0.4
			c0,0,0,0,0,0c1.1-0.4,2.2-0.7,3.3-1.1c1.1-0.3,2.1-0.6,3.2-0.9C44.1,90.9,43,93,42,95.1c-0.1,0.3-0.3,0.6-0.4,0.9
			c-0.1,0.1-0.1,0.1-0.1,0.1c0,0.1-0.1,0.2-0.1,0.3c-0.1,0.2-0.2,0.3-0.2,0.5C39.3,97.6,37.1,97.3,38.3,91.8
			C38.3,91.8,38.3,91.8,38.3,91.8z M34,98.5c0.6-0.7,1.1-1.5,1.6-2.3c0.1-0.1,0.2-0.3,0.2-0.4c0,2.2,0.8,4.8,4.2,3.5
			c-0.4,1-0.8,2-1.3,3c-0.1,0.1-0.1,0.3-0.2,0.4c-2.7,1.1-6.8,2.2-4.4-4.4C34.1,98.5,34.1,98.5,34,98.5z M34.6,95
			c-1.6,1.4-5.1,4.1-5.2-1.3c0.9-0.2,1.8-0.4,2.7-0.6c0.6-0.2,1.3-0.3,1.9-0.5c0.3-0.1,0.6-0.2,1-0.3l0.9-0.4
			c0.6-0.3,1.1-0.5,1.7-0.8c0.2-0.1,0.4-0.1,0.6-0.2C36.9,92.3,35.7,93.6,34.6,95z M33.1,97.1c-0.7,0.9-1.3,1.9-1.9,2.9
			c-3.6,1.8-4.9,0.1-5.2-1.5c0.3-0.4,0.5-0.7,0.7-1.1l0.5-1c0.1-0.4,0.2-0.7,0.3-1.1c0,0,0,0,0,0c0.5,2,2.2,4.5,5.4,2
			C33,97.2,33,97.1,33.1,97.1z M21.8,102.3c0.7-0.5,1.4-1,2.1-1.6c0.1-0.1,0.1-0.1,0.2-0.2c0,4.8,3.3,3.4,5.9,1.3l-3,4.4
			c-0.2,0.2-0.3,0.5-0.5,0.7C22.9,109.2,17.2,109,21.8,102.3z M27.5,106.9l0.1-0.1l4.1-5.2c0.4-0.5,0.8-1,1.2-1.6
			c-1.1,2.7-3.8,12.2,4.9,4.6c-0.8,1.6-1.6,3.3-2.5,4.9c-0.4,0.7-0.8,1.4-1.1,2.1c0.2-0.4,0.4-0.8,0.6-1.2
			C32.5,112.9,23.7,114.7,27.5,106.9z M38.2,114.9c-2.6,1.4-5.3,1.7-4.8-1.2c0.9-1.3,1.8-2.6,2.6-3.9c0.7-1.1,1.4-2.2,2-3.4
			c-0.8,3.3-0.1,5.7,3.5,0.8C40.4,109.8,39.3,112.4,38.2,114.9z M42.4,105.4c-2.4,1.7-3.5,2.7-2.8-1.8c0.1-0.2,0.3-0.5,0.4-0.7
			c0.6-1.1,1.2-2.3,1.8-3.4c0.5,1.1,1.3,1.9,2.7,1.4C43.8,102.4,43.1,103.9,42.4,105.4z M46.9,96.1c-0.4,0.7-0.7,1.5-1.1,2.2
			c-1.1,0.5-2.3,0.6-2.8-1.5c0.2-0.4,0.3-0.7,0.5-1.1c0.9-2.3,1.7-4.7,2.2-7.1c0.8-0.2,1.6-0.4,2.4-0.7c1.2-0.3,2.4-0.6,3.5-1
			C49.9,90,48.4,93,46.9,96.1z M60.1,84.3c-2,0.6-4.1,1.2-6.1,1.6c-2.1,0.4-4.2,0.5-6.3,0.8c-1.7,0.3-3.4,0.8-5,1.4
			c1-0.7,1.9-1.4,2.7-2.3c0,0,0-0.1,0-0.1c0,0,0-0.1-0.1,0l0,0c-2.4,0.9-4.8,1.9-7,3.1c-0.9,0.5-1.9,1.1-2.8,1.7
			c-0.2,0.1-0.3,0.2-0.5,0.3c-0.5,0.3-1,0.7-1.6,1.1c-0.5,0.3-1.1,0.6-1.7,0.8c-1.2,0.4-2.5,0.5-3.7,0.2c-0.4-0.1-0.8-0.2-1.2-0.4
			c1-1,2.2-1.8,3.4-2.5c1.3-0.8,2.7-1.5,4.1-2.1c0.4-0.2,0.8-0.3,1.2-0.5c0.3-0.1,0.7-0.2,1-0.4c0.4-0.1,0.7-0.2,1.1-0.3l0.5-0.1
			c0.2-0.1,0.4-0.1,0.6-0.2c0.8-0.3,1.6-0.8,2.2-1.4c0.6-0.6,0.9-1.4,1.3-2.1v0c0,0,0,0,0-0.1c0,0-0.1-0.1-0.1-0.1
			c-0.4,0.1-0.8,0.4-1.1,0.6c-0.3,0.2-0.6,0.4-0.9,0.6c-0.6,0.4-1.3,0.6-1.9,0.8c-0.2,0-0.3,0.1-0.5,0.2c-0.2,0.1-0.4,0.1-0.6,0.2
			c-0.4,0.2-0.7,0.3-1.1,0.5c-0.7,0.4-1.4,0.7-2.1,1.1c-0.5,0.3-1,0.6-1.5,0.9c-0.8,0.5-1.7,1.1-2.5,1.7c-1.2,0.9-2.3,1.9-3.2,3
			c-0.1,0-0.1,0-0.2-0.1c-0.5-0.2-0.9-0.5-1.1-0.8c-0.1-0.1-0.1-0.2,0-0.4c0.1-0.2,0.2-0.4,0.4-0.6c0.3-0.4,0.7-0.8,1.2-1.1
			c1-0.6,1.9-1.2,2.8-2c0.2-0.1,0.3-0.2,0.4-0.3c0,0,0-0.1,0-0.1c0,0-0.1-0.1-0.1-0.1c-0.3,0.1-0.6,0.2-0.9,0.3
			c-1.5,0.4-2.9,0.9-4.3,1.5c-0.4,0.2-0.8,0.4-1.2,0.6c-0.9-0.1-2-0.4-2.7-0.9c2.4-0.7,4.8-1.5,7-2.5c2.3-1,4.6-2.2,6.7-3.6
			c2.1-1.4,4.2-2.9,6-4.6c0.9-0.8,1.8-1.8,2.7-2.7c0.9-0.9,1.7-1.8,2.7-2.5l0,0l0-0.1c0.3-0.6,0.7-1.1,1.1-1.6c0,0,0.1,0.1,0.1,0.1
			c0,0-0.1-0.1-0.1-0.1c0.2-0.2,0.3-0.4,0.5-0.5c0.7-0.7,1.4-1.3,2.1-1.8c0.5-0.4,1.1-0.7,1.7-1.1c0.1,0,0.1-0.1,0.2-0.1
			c0.5-0.2,1-0.3,1.6-0.5c1-0.3,2.1-0.6,3.2-0.8c2.1-0.5,4.3-0.8,6.5-0.9c0.3,0,0.5,0,0.8,0c0.3,0,0.5,0,0.7,0.1
			c0.4,0.2,0.6,0.6,0.6,1c0,0.2-0.1,0.4-0.2,0.5c-0.1,0.1-0.4,0.3-0.6,0.5l-1.3,1c-1.7,1.4-3.4,2.9-4.9,4.5
			c-0.4,0.4-0.8,0.8-1.1,1.2c-0.3,0.3-0.4,0.7-0.3,1.1c0.1,0.4,0.4,0.7,0.7,0.9c0.2,0.1,0.4,0.1,0.6,0.1c0.1,0,0.2,0,0.3,0l0.2-0.1
			c0.3-0.1,0.5-0.1,0.8-0.2c0.5-0.1,1.1-0.2,1.6-0.2c2.2-0.2,4.4-0.3,6.5-0.1c0.5,0.1,1.1,0.1,1.6,0.3c0.5,0.1,1.1,0.3,1.1,0.7
			c0.1,0.4-0.1,0.9-0.4,1.4c-0.3,0.4-0.6,0.9-1,1.3c-1.3,1.5-2.9,2.8-4.5,4L60.1,84.3z M65.8,86.5c-2.8,0.3-2.5-0.9-2.1-2
			c1-0.2,2-0.4,2.9-0.7c0.6-0.2,1.2-0.4,1.8-0.6c-0.7,1.7-0.9,5,5,3c-1.1,0.7-2.1,1.4-3.2,2.1c-0.4,0.3-0.8,0.6-1.3,0.9
			C66.5,89.4,64.9,87.6,65.8,86.5z M69.4,89.7c0.4-0.2,0.8-0.4,1.2-0.7c1.3-0.8,2.4-1.7,3.6-2.6c0.1-0.1,0.2-0.2,0.3-0.3
			c-3.5,4.8,0.5,3.5,2.9,2.4c-0.8,0.6-1.7,1.3-2.5,2c-0.8,0.7-1.5,1.4-2.3,2.1C70.5,93.3,68.3,91.7,69.4,89.7z M77.4,96.2
			c-1.8,0.2-4.9-1.5-4.8-3.1c1-0.7,1.9-1.4,2.8-2.1c1.1-0.9,2.2-1.8,3.3-2.7c-1.9,4.7,0.1,5.3,2.2,4.4l-1,1
			C79.1,94.6,78.3,95.4,77.4,96.2z M78,96.4c0.9-0.6,1.7-1.3,2.5-2c0.4-0.3,0.7-0.6,1-0.9c-1,2.2-0.3,4.4,3.5,3.1
			c-0.1,0.1-0.1,0.1-0.2,0.2c-0.6,0.6-1.1,1.2-1.6,1.9C79.9,100.7,78.1,98,78,96.4z M83,99.6c0.2-0.2,0.3-0.3,0.5-0.5
			c0.6-0.7,1.2-1.3,1.9-1.9l0.2-0.2c-0.6,2.3,1,5.2,5.4,2.2c-0.1,0.1-0.2,0.2-0.3,0.3c-0.5,0.6-1.1,1.2-1.5,1.9
			c-0.3,0.4-0.5,0.8-0.8,1.2C85.5,103.7,83.2,101.4,83,99.6z M93.4,106.2c-1.3,0.3-3-0.2-4-1.1c-0.3-0.5-0.6-1-1-1.5
			c0-0.2,0-0.3,0-0.5c0.3-0.4,0.7-0.8,1-1.2l1.7-1.7c0.1,0,0.1-0.1,0.1-0.1c-0.7,2.9,0.7,5.9,4.7,3.6c-0.5,0.5-1,1-1.5,1.5
			C94.1,105.5,93.7,105.9,93.4,106.2z M96,110.2C95.9,110.2,95.9,110.2,96,110.2C95.9,110.2,95.9,110.1,96,110.2
			C96,110.1,96,110.2,96,110.2z M97.1,108.1c-2.2,0.6-3.3-0.5-3.3-1.4c0.4-0.3,0.8-0.6,1.2-0.9c0.5-0.4,1-0.9,1.4-1.4
			c-0.2,1.4,0.1,3.1,1.8,2.2C97.8,107.1,97.4,107.6,97.1,108.1z M100.7,111c-1.6,2.4-2.4,0-2.5-1.9c0,0,0-0.1,0.1-0.1
			c0.8-1.2,1.6-2.3,2.4-3.5c0.4-0.6,0.8-1.2,1.1-1.9c0.3-0.5,0.6-1,0.8-1.6c0.3,0.3,0.6,0.6,1,0.8c0.1,0.1,0.2,0.1,0.3,0.1
			C102.5,105.5,101.5,108.2,100.7,111z M106.3,112.5l-1.5,4.6c-0.2,0.6-0.4,1.2-0.6,1.7c-1.3,0.1-2.4-2.9-2.9-5.6
			c0.1-0.4,0.1-0.8,0.2-1.2c0.2-1.2,0.5-2.4,0.8-3.6c-0.1,1.7,0.3,3.3,1.7,3.9c1.3,0.5,2.2-0.3,2.9-1.5
			C106.6,111.4,106.4,112,106.3,112.5z M111.4,114.2l-0.3,1.6c-0.1,0.5-0.2,1.1-0.2,1.6c-0.1,0.9-0.1,1.8-0.1,2.7
			c-1.8,3.8-3.3,3.1-4.3,1.5c0-0.5,0.1-1,0.2-1.5c0.4-2.7,0.9-5.4,1.3-8.1c0.5,1.9,1.4,3.1,3.8-0.4L111.4,114.2z M116.8,113.9
			c-0.2,2.1-0.4,4.1-0.7,6.2c0,0,0,0,0,0.1c-1,1.9-2.6,1.7-3.8,1c-0.1-1.3-0.2-2.5-0.2-3.8c0-1,0.2-2,0.3-3l0.2-1.9
			c0.5,2.4,2,5.2,4.3,0.9C116.8,113.5,116.8,113.7,116.8,113.9z M121.4,114.2c-1,3.9-2.7,5-3.7,5c0.2-1.8,0.3-3.5,0.4-5.3
			c0-0.5,0-1.1,0.1-1.6c0.8,1.2,2.4-0.2,3.3-3.4c0,1.2,0,2.4,0,3.5C121.4,113.1,121.4,113.7,121.4,114.2z M122.7,107.3
			c-0.1-1-0.2-2.1-0.3-3.1c0.3,0.1,0.7,0,1.2-0.1c0.4-0.1,0.8-0.4,1.1-0.9c0,0,0,0,0,0.1C124.7,106,123.5,107.5,122.7,107.3z
			 M125.7,100.7c-0.2-0.8-0.5-1.6-0.8-2.4c-0.7-1.9-1.5-3.8-2.5-5.6c0.4,2,0.8,4,1.3,5.9c0.2,0.8,0.3,1.5,0.5,2.3
			c-0.7,3.2-1.6,1.9-2.2,0.7c-0.2-1.4-0.4-2.9-0.7-4.3c-0.2,2.6-0.2,5.1-0.2,7.6c-0.6,2.8-1.8,6.2-3.1,3.5c0-2.3,0-4.7,0-7
			c-0.4,2.9-0.7,5.8-1,8.7c-1.5,2.6-3.4,3.3-4.3-1.3c0.1-1.3,0.2-2.6,0.3-3.9c-0.3,1.5-0.6,3-0.9,4.6c-1.3,1.2-2.9,1.1-3.7-0.9
			l0.9-5.5c1.2-0.3,2.3-0.7,3.4-1.2l0,0l0,0c1.4-1,2.7-2.1,3.9-3.3c1.2-1.2,2.3-2.5,3.3-3.8c1-1.4,1.8-2.9,2.4-4.5
			c0.3-0.8,0.5-1.6,0.6-2.3c0.4,1.2,0.8,2.3,1.3,3.5c0.4,1,0.8,2.1,1.1,3.1c0.3,1,0.6,2.1,0.8,3.1c0.1,0.5,0.2,0.9,0.2,1.4
			C126.3,99.7,126,100.2,125.7,100.7z"/>
		<path class="st7" d="M102.2,54c0.9,0.1,1.7-0.3,1.8-1c0.1-0.6-0.6-1.2-1.5-1.3c-0.9-0.1-1.8,1-1.8,1S101.3,53.9,102.2,54z"/>
		<path class="st8" d="M107.6,56.5c-0.5-0.1-1.1-0.3-1.6-0.6c-0.5-0.3-0.9-0.7-1.2-1.1l-0.1-0.1l0.1-0.1c0.3-0.2,0.6-0.5,0.8-0.8
			c0.1-0.1,0.2-0.3,0.4-0.4l0.4-0.4c0.2-0.2,0.2-0.4,0.1-0.7c-0.1-0.3-0.3-0.5-0.5-0.8c0,0,0,0,0,0l0,0c-0.8-0.4-1.7-0.5-2.5-0.6
			c-0.9-0.1-1.8-0.1-2.6-0.2c-0.9,0-1.8,0-2.6,0.1c-0.4,0-0.8,0.1-1.2,0.2c-0.4,0.1-0.9,0.2-1.3,0.3c-1.8,0.3-3.7,0.5-5.6,0.3
			c-1-0.1-1.9-0.2-2.9-0.6c-0.5-0.2-0.9-0.4-1.4-0.6c-0.3-0.2-0.6-0.4-0.9-0.6c2.3,2.8,4,3.7,7.2,5.2c7.1,3.4,14.3,2.2,16.4,1.5
			C108.1,56.6,107.9,56.5,107.6,56.5z M102.2,54c-0.9-0.1-1.5-1.3-1.5-1.3s0.9-1.1,1.8-1c0.9,0.1,1.6,0.7,1.5,1.3
			C103.9,53.7,103.1,54.1,102.2,54z"/>
		<path class="st5" d="M75.2,69.5c-0.6,2.7,1.9,2.8,3.1,4.7c-1.3,0.9-3.1,0.5-3.9-0.8C73.6,72.1,73.9,70.3,75.2,69.5z"/>
		<path class="st5" d="M75.3,59.3c-0.7,1.4,0.6,1.8,1,3c-0.8,0.3-1.7-0.2-2-1S74.4,59.5,75.3,59.3z"/>
		<path class="st2" d="M59.6,66.8c-0.7,1.4,0.6,1.8,1,3c-0.8,0.3-1.7-0.2-2-1C58.4,68,58.8,67.1,59.6,66.8z"/>
		<path class="st2" d="M65.7,76c-0.6,1.2,0.5,1.5,0.8,2.6c-0.7,0.2-1.5-0.2-1.7-0.9S65,76.2,65.7,76z"/>
		<path class="st2" d="M59.8,77c-0.3,1.7,1.3,1.5,2.1,2.5c-0.8,0.7-1.9,0.7-2.5,0C58.8,78.8,59,77.7,59.8,77z"/>
		<path class="st5" d="M81.4,62.5c-0.6,2,1.2,2.2,2,3.7c-1,0.6-2.3,0.2-2.9-0.8C80,64.4,80.4,63.1,81.4,62.5z"/>
		<path class="st5" d="M70.1,64.2c-0.4,2.2,1.5,2.2,2.5,3.7c-1,0.7-2.4,0.4-3.1-0.6C68.8,66.3,69.1,64.9,70.1,64.2z"/>
		<path class="st5" d="M61.7,60.9c-0.6,1.3,0.6,1.6,1,2.7c-0.7,0.3-1.6-0.1-1.8-0.8C60.6,62,60.9,61.2,61.7,60.9z"/>
		<path class="st5" d="M68.4,69.3c-0.6,1.3,0.6,1.6,1,2.7c-0.7,0.3-1.6-0.1-1.8-0.8S67.7,69.6,68.4,69.3z"/>
		<path class="st5" d="M82.3,70.2c-0.9,2,0.9,2.5,1.6,4.2c-1.2,0.4-2.5-0.2-2.9-1.3S81.2,70.7,82.3,70.2z"/>
		<path class="st5" d="M86.2,67.6c-0.7,1.4,0.7,1.8,1.1,3c-0.8,0.3-1.7-0.1-2.1-0.9S85.4,67.9,86.2,67.6z"/>
		<path class="st5" d="M89.1,62.2c-0.4,1.5,1,1.7,1.6,2.8c-0.8,0.4-1.7,0.2-2.2-0.6C88,63.6,88.3,62.6,89.1,62.2z"/>
		<path class="st5" d="M91.6,67.4c0.5,1.5,1.7,0.8,2.9,1.4c-0.4,0.8-1.3,1.1-2.1,0.7C91.6,69.2,91.3,68.2,91.6,67.4z"/>
		<path class="st5" d="M87.5,57.7c-0.2,0.9,0.5,0.9,0.9,1.6c-0.4,0.2-1,0.1-1.2-0.3C86.9,58.5,87,57.9,87.5,57.7z"/>
		<path class="st5" d="M93.4,63.7c0,0.9,0.8,0.7,1.3,1.2c-0.3,0.4-0.9,0.4-1.3,0S93,64,93.4,63.7z"/>
		<path class="st5" d="M83.6,57.9c-0.4,0.8,0.3,1,0.5,1.7c-0.5,0.1-1-0.1-1.1-0.6C82.8,58.6,83.1,58.1,83.6,57.9z"/>
		<path class="st9" d="M122.9,87.5c0,0.1,0,0.2-0.1,0.3c-0.2,0.8-0.5,1.6-0.8,2.4c-0.6,1.5-1.5,2.9-2.5,4.3c-1,1.3-2.1,2.6-3.3,3.7
			c-1.2,1.1-2.5,2.2-3.8,3.1c-1.8,0.8-3.7,1.5-5.6,1.5c-1,0-1.9-0.1-2.8-0.5c-0.8-0.4-1.4-1.2-1.8-2.1c-0.4-0.9-0.5-1.9-0.6-2.8
			c-0.1-0.8,0-1.6,0.1-2.4c0-0.2,0-0.3,0-0.3c0-0.1,0-0.2,0-0.3c0-2.1-0.7-4.1-1.9-5.8c-1.2-1.7-2.9-3-4.6-4c-1.8-1-3.7-1.8-5.6-2.4
			c-0.9-0.3-1.9-0.6-2.9-0.8c0,0,0,0,0-0.1c0,0-0.1,0-0.1,0c0,0,0,0,0,0c-2.9-0.7-5.9-1.2-8.9-1.5c0,0,0,0,0,0c-0.1,0-0.1,0-0.2,0
			c0.3-0.1,0.7-0.3,1-0.4c1.9-0.9,3.9-1.9,5.5-3.3c0,0,0,0,0,0c4-1.8,14.3-6,19.7-11c0.3,1.3,1.1,2.4,2,3.1c0.3,0.2,0.5,0.4,0.8,0.6
			l0.2,0.1c0.5,0.3,0.9,0.5,1.3,0.8c0.5,0.3,0.9,0.4,1.3,0.6c0.4,0.2,0.8,0.3,1.2,0.4c0.7,0.1,1.3,0,1.9-0.1
			c0.3-0.1,0.6-0.1,0.9-0.2c0.2-0.1,0.5-0.1,0.8-0.1c0.5,0,1,0,1.5,0.2c1,0.3,1.9,1,2.4,1.9c0.3,0.4,0.4,0.9,0.6,1.5l0.5,1.6
			l0.9,3.3C120.9,81.6,121.8,84.6,122.9,87.5z"/>
		<g>
			<path class="st3" d="M104.4,73.2c0.4,1.5,1.7,1,2.7,1.6c-0.4,0.8-1.4,1-2.2,0.6S104,74,104.4,73.2z"/>
			<path class="st3" d="M96.5,78.7c0.4,1.5,1.7,1,2.7,1.6c-0.4,0.8-1.4,1-2.2,0.6S96,79.5,96.5,78.7z"/>
			<path class="st3" d="M96.6,71.4c0.4,1.5,1.7,1,2.7,1.6c-0.4,0.8-1.4,1-2.2,0.6S96.2,72.2,96.6,71.4z"/>
		</g>
		<g>
			<path class="st3" d="M76.8,37.2c-0.6,1.5,0.7,1.8,1.2,2.9c-0.8,0.3-1.7,0-2.1-0.9C75.6,38.5,76,37.6,76.8,37.2z"/>
			<path class="st3" d="M67.2,36.8c-0.6,1.5,0.7,1.8,1.2,2.9c-0.8,0.3-1.7,0-2.1-0.9C66,38.1,66.4,37.2,67.2,36.8z"/>
			<path class="st3" d="M71.7,31.1c-0.6,1.5,0.7,1.8,1.2,2.9c-0.8,0.3-1.7,0-2.1-0.9C70.5,32.4,70.8,31.4,71.7,31.1z"/>
		</g>
		<g>
			<path class="st3" d="M76.7,50.2c-0.7,1.4,0.7,1.8,1.1,3c-0.8,0.3-1.7-0.1-2-0.9C75.4,51.4,75.8,50.5,76.7,50.2z"/>
			<path class="st3" d="M67,49.4c-0.7,1.4,0.7,1.8,1.1,3c-0.8,0.3-1.7-0.1-2-0.9C65.8,50.6,66.2,49.7,67,49.4z"/>
			<path class="st3" d="M71.8,43.9c-0.7,1.4,0.7,1.8,1.1,3c-0.8,0.3-1.7-0.1-2-0.9C70.5,45.1,70.9,44.2,71.8,43.9z"/>
		</g>
	</g>
	<path class="st10" d="M110.2,54.4c-0.2-0.1-0.3-0.1-0.5-0.1c-0.9-0.2-1.8-0.1-2.6,0.1c-0.2-0.2-0.4-0.4-0.4-0.6
		c0.1-0.1,0.2-0.2,0.3-0.3c0.1-0.2,0.3-0.4,0.3-0.7c0-0.3-0.1-0.5-0.2-0.7c-0.1-0.2-0.3-0.3-0.4-0.4c0.4,0.1,0.8,0.3,1.2,0.5
		c0.3,0.1,0.6,0.3,0.9,0.4c0.1,0.1,0.2,0.1,0.3,0.1C109.7,53.2,110.2,53.8,110.2,54.4z"/>
	<path class="st10" d="M35.6,90.5c-0.2,0.1-0.3,0.2-0.5,0.3c-0.5,0.3-1,0.7-1.6,1.1c-0.5,0.3-1.1,0.6-1.7,0.8
		c-1.2,0.4-2.5,0.5-3.7,0.2c-0.4-0.1-0.8-0.2-1.2-0.4c1-1,2.2-1.8,3.4-2.5c1.3-0.8,2.7-1.5,4.1-2.1c0.4-0.2,0.8-0.3,1.2-0.5
		C35,88.8,35,90,35.6,90.5z"/>
	<path class="st10" d="M32.5,87.8c-0.8,0.5-1.7,1.1-2.5,1.7c-1.2,0.9-2.3,1.9-3.2,3c-0.1,0-0.1,0-0.2-0.1c-0.5-0.2-0.9-0.5-1.1-0.8
		c-0.1-0.1-0.1-0.2,0-0.4c0.1-0.2,0.2-0.4,0.4-0.6c0.3-0.4,0.7-0.8,1.2-1.1c1-0.6,1.9-1.2,2.8-2c0.2-0.1,0.3-0.2,0.4-0.3
		c0,0,0-0.1,0-0.1C30.6,87.1,30.7,88,32.5,87.8z"/>
</g>
</svg>
