<?xml version="1.0" encoding="utf-8"?>
<!-- Generator: Adobe Illustrator 24.1.2, SVG Export Plug-In . SVG Version: 6.00 Build 0)  -->
<svg version="1.1" id="Layer_1" xmlns="http://www.w3.org/2000/svg" xmlns:xlink="http://www.w3.org/1999/xlink" x="0px" y="0px"
	 viewBox="0 0 128 128" style="enable-background:new 0 0 128 128;" xml:space="preserve">
<style type="text/css">
	.st0{fill:#EFE9E1;}
	.st1{fill:#95CFE8;}
	.st2{fill:#2D2D2D;}
</style>
<g>
	<path class="st0" d="M64,2C29.8,2,2,29.8,2,64s27.8,62,62,62s62-27.8,62-62S98.2,2,64,2z M22.1,66.5c-0.1,0.8-0.4,1.6-0.6,2.4
		c-0.2,0.8-0.6,1.5-0.9,2.1c-0.3,0.6-0.7,1.2-1.1,1.7c-0.8,1-1.6,1.7-2.2,2.1c-0.3,0.2-0.5,0.4-0.7,0.5c-0.2,0.1-0.3,0.1-0.3,0.1
		s0.3-0.3,0.7-0.9c0.4-0.6,1-1.4,1.5-2.4c0.3-0.5,0.5-1.1,0.7-1.7c0.2-0.6,0.4-1.3,0.6-2c0.2-0.7,0.3-1.4,0.4-2.2
		c0.1-0.8,0.1-1.5,0.1-2.3c0-0.7,0-1.5-0.1-2.2c-0.1-0.7-0.2-1.5-0.4-2.2c-0.2-0.7-0.4-1.4-0.6-2c-0.2-0.6-0.5-1.2-0.7-1.7
		c-0.5-1-1.1-1.9-1.5-2.4c-0.4-0.6-0.7-0.9-0.7-0.9s0.1,0.1,0.3,0.2c0.2,0.1,0.4,0.2,0.7,0.5c0.6,0.4,1.4,1.1,2.2,2.1
		c0.8,1,1.5,2.3,2.1,3.8c0.3,0.8,0.5,1.6,0.6,2.4c0.1,0.8,0.2,1.7,0.2,2.6C22.2,64.8,22.2,65.7,22.1,66.5z M29.8,79.4
		c-1.3,1.8-2.6,3.1-3.6,3.9c-0.5,0.4-0.9,0.7-1.2,0.9c-0.3,0.2-0.4,0.3-0.4,0.3s0.1-0.1,0.4-0.4c0.2-0.2,0.6-0.6,1-1.1
		c0.4-0.5,0.9-1.1,1.4-1.8c0.5-0.7,1-1.5,1.5-2.5c0.5-0.9,1-2,1.5-3.1c0.4-1.1,0.9-2.3,1.2-3.6c0.4-1.3,0.6-2.6,0.8-4
		c0.2-1.4,0.2-2.7,0.3-4.2c0-1.3-0.1-2.8-0.3-4.1c-0.2-1.4-0.4-2.7-0.8-4c-0.3-1.3-0.7-2.5-1.2-3.6c-0.5-1.1-0.9-2.2-1.5-3.1
		c-0.5-0.9-1-1.7-1.5-2.5c-0.5-0.7-1-1.3-1.4-1.8c-0.4-0.5-0.7-0.8-1-1.1c-0.2-0.2-0.4-0.4-0.4-0.4s0.1,0.1,0.4,0.3
		c0.3,0.2,0.7,0.5,1.2,0.9c1,0.8,2.3,2.1,3.6,3.9c0.7,0.9,1.3,1.9,1.9,3.1c0.6,1.1,1.1,2.4,1.5,3.7c0.4,1.3,0.8,2.7,1,4.2
		c0.2,1.5,0.3,2.9,0.4,4.5c0,1.4-0.1,3-0.4,4.4c-0.2,1.5-0.6,2.9-1,4.2c-0.4,1.3-1,2.6-1.5,3.7C31.1,77.5,30.4,78.5,29.8,79.4z
		 M46.1,70.1c-0.3,2-0.8,3.9-1.3,5.8c-0.5,1.8-1.3,3.6-2.1,5.1c-0.8,1.6-1.6,3-2.5,4.3c-0.9,1.3-1.8,2.3-2.6,3.3
		c-0.8,0.9-1.6,1.7-2.3,2.2c-0.6,0.6-1.2,1-1.6,1.3c-0.4,0.3-0.6,0.4-0.6,0.4s0.2-0.2,0.5-0.5c0.3-0.3,0.8-0.8,1.4-1.5
		c1.2-1.3,2.7-3.3,4.2-5.8c0.4-0.6,0.7-1.3,1.1-2c0.4-0.7,0.7-1.5,1-2.2c0.6-1.6,1.2-3.2,1.7-5c0.5-1.8,0.8-3.6,1.1-5.6
		c0.3-1.9,0.4-3.8,0.4-5.9c0-1.9-0.1-3.9-0.4-5.8c-0.3-1.9-0.6-3.8-1.1-5.6c-0.5-1.8-1.1-3.5-1.7-5c-0.3-0.8-0.7-1.5-1-2.2
		c-0.3-0.7-0.7-1.4-1.1-2c-1.5-2.6-3-4.5-4.2-5.8c-0.6-0.7-1.1-1.1-1.4-1.5c-0.3-0.3-0.5-0.5-0.5-0.5s0.2,0.1,0.6,0.4
		c0.4,0.3,0.9,0.7,1.6,1.3c0.7,0.6,1.4,1.3,2.3,2.2c0.8,0.9,1.7,2,2.6,3.3c0.9,1.2,1.7,2.7,2.5,4.3c0.8,1.6,1.5,3.3,2.1,5.1
		c0.6,1.8,1,3.8,1.3,5.8c0.3,2,0.4,4,0.5,6.1C46.5,66,46.4,68.1,46.1,70.1z M105.1,43.4c-0.5,0-1-0.4-1-0.9
		c-0.4-7.3-3.5-12.9-8.9-16c-7.6-4.4-17.7-3.1-23.9-0.1C66,29,62,33.9,60.4,39.9c-1.5,5.4-0.9,11,1.7,15c1,1.6,2,3.1,3.1,4.7
		c3.2,4.8,6.2,9.4,8.1,13.9c1.6,3.9,2.8,10,3.7,14.5c0.5,2.3,2.4,10,8.3,11.8c13.3,4,17.5-7.6,17.7-8.1c0.2-0.5,0.7-0.8,1.2-0.6
		c0.5,0.2,0.8,0.7,0.6,1.2c0,0.1-3.6,10.3-14.2,10.3c-1.8,0-3.7-0.3-5.9-0.9c-4.7-1.4-8.3-6.4-9.7-13.3C74.2,84,73,78,71.5,74.3
		c-1.8-4.3-4.8-8.8-8-13.6c-1-1.6-2.1-3.1-3.1-4.7c-2.8-4.4-3.6-10.6-1.9-16.6c1.8-6.5,6.1-11.9,11.9-14.8
		c6.6-3.3,17.5-4.7,25.7,0.1c4.2,2.4,9.3,7.5,9.9,17.6C106.1,42.9,105.6,43.3,105.1,43.4z M94.6,63.1c-1.5-1.9-2.9-3.6-3.2-5.6
		c-0.3-2,0.6-3.5,1.6-5.2c0.1-0.1,0.1-0.2,0.2-0.3c-2.6-4.7-6.1-7.2-9.8-6.9c-2.8,0.3-4.8,2.1-5.3,3.7c-1.1,3.4,1.8,6.8,2.7,7.8
		c7.6,8,6.6,12,4.3,15.1c-0.2,0.3-0.5,0.4-0.8,0.4c-0.2,0-0.4-0.1-0.6-0.2c-0.4-0.3-0.6-0.9-0.2-1.4c1.3-1.9,3.3-4.7-4.2-12.6
		c-2.9-3.1-4.1-6.7-3.2-9.7c0.8-2.7,3.7-4.8,7-5.1c2-0.2,7,0.2,11.1,6.8c0.8-1.9,1.2-4.2,0.2-7.7c-0.8-2.8-2.3-4.7-4.5-5.8
		c-4.7-2.4-11.1-0.1-11.2-0.1c-0.5,0.2-1.1-0.1-1.3-0.6c-0.2-0.5,0.1-1.1,0.6-1.3c0.3-0.1,7.2-2.6,12.7,0.2c2.7,1.4,4.5,3.7,5.5,7
		c1.7,6-0.2,9.1-1.7,11.7c-0.9,1.4-1.5,2.5-1.3,3.8c0.2,1.4,1.4,2.9,2.8,4.7c2.2,2.7,4.9,6.1,4.5,10.9c-0.4,4.2-1.5,6.9-3.6,8.6
		c-1.7,1.4-3.9,2-6.8,2c-0.8,0-1.7,0-2.6-0.1c-0.5-0.1-0.9-0.5-0.9-1.1c0.1-0.5,0.6-0.9,1.1-0.9c3.8,0.4,6.3-0.1,8-1.4
		c1.6-1.4,2.6-3.7,2.9-7.3C99,68.7,96.8,65.8,94.6,63.1z"/>
	<path class="st1" d="M107.4,53.7L105,42.4c-1-15-12-17.4-13.9-18.3c-17-4.9-27.1,6.5-29,9.1c-5.4,6.6-2.7,19.2-2,21.1
		c1.8,2.1,10.3,16.1,11.8,19.1c1.6,3,3.7,11.3,5,17.3c1.3,6,6.7,11.5,14.2,11.5c7.5,0,13.3-9.8,13.3-9.8l2.9-12.8l0.8-14
		C108.4,61.5,108.1,57.6,107.4,53.7z"/>
	<path class="st2" d="M34.2,68.4c0.2-1.4,0.3-3,0.4-4.4c0-1.5-0.1-3-0.4-4.5c-0.2-1.5-0.6-2.9-1-4.2c-0.4-1.3-1-2.6-1.5-3.7
		c-0.6-1.1-1.2-2.2-1.9-3.1c-1.3-1.8-2.6-3.1-3.6-3.9c-0.5-0.4-0.9-0.7-1.2-0.9c-0.3-0.2-0.4-0.3-0.4-0.3s0.1,0.1,0.4,0.4
		c0.2,0.2,0.6,0.6,1,1.1c0.4,0.5,0.9,1.1,1.4,1.8c0.5,0.7,1,1.5,1.5,2.5c0.5,0.9,1,2,1.5,3.1c0.4,1.1,0.9,2.3,1.2,3.6
		c0.4,1.3,0.6,2.6,0.8,4c0.2,1.4,0.3,2.8,0.3,4.1c0,1.5-0.1,2.8-0.3,4.2c-0.2,1.4-0.4,2.7-0.8,4c-0.3,1.3-0.7,2.5-1.2,3.6
		c-0.5,1.1-1,2.2-1.5,3.1c-0.5,0.9-1,1.7-1.5,2.5c-0.5,0.7-1,1.3-1.4,1.8c-0.4,0.5-0.7,0.8-1,1.1c-0.2,0.2-0.4,0.4-0.4,0.4
		s0.1-0.1,0.4-0.3c0.3-0.2,0.7-0.5,1.2-0.9c1-0.8,2.3-2.1,3.6-3.9c0.7-0.9,1.3-1.9,1.9-3.1c0.6-1.1,1.1-2.4,1.5-3.7
		C33.6,71.3,33.9,69.9,34.2,68.4z"/>
	<path class="st2" d="M95.8,79.9c-1.7,1.4-4.2,1.8-8,1.4c-0.5-0.1-1,0.3-1.1,0.9c-0.1,0.5,0.3,1,0.9,1.1c0.9,0.1,1.8,0.1,2.6,0.1
		c3,0,5.2-0.7,6.8-2c2.1-1.7,3.2-4.5,3.6-8.6c0.4-4.8-2.3-8.2-4.5-10.9c-1.4-1.7-2.6-3.2-2.8-4.7c-0.2-1.3,0.5-2.4,1.3-3.8
		c1.5-2.5,3.4-5.7,1.7-11.7c-1-3.3-2.8-5.7-5.5-7c-5.5-2.8-12.4-0.3-12.7-0.2c-0.5,0.2-0.8,0.8-0.6,1.3c0.2,0.5,0.7,0.8,1.3,0.6
		c0.1,0,6.5-2.3,11.2,0.1c2.2,1.1,3.7,3.1,4.5,5.8c1,3.5,0.6,5.9-0.2,7.7c-4.1-6.6-9.1-7-11.1-6.8c-3.3,0.3-6.2,2.4-7,5.1
		c-0.9,3,0.3,6.6,3.2,9.7c7.5,7.9,5.5,10.7,4.2,12.6c-0.3,0.4-0.2,1.1,0.2,1.4c0.2,0.1,0.4,0.2,0.6,0.2c0.3,0,0.6-0.1,0.8-0.4
		c2.2-3.1,3.2-7.1-4.3-15.1c-0.9-1-3.8-4.4-2.7-7.8c0.5-1.7,2.5-3.5,5.3-3.7c3.7-0.3,7.3,2.2,9.8,6.9c-0.1,0.1-0.1,0.2-0.2,0.3
		c-0.3,0.5-0.6,1-0.9,1.6c-0.6,1.1-0.9,2.2-0.7,3.6c0.3,2,1.7,3.7,3.2,5.6c2.2,2.7,4.4,5.5,4.1,9.5C98.4,76.3,97.5,78.6,95.8,79.9z"
		/>
	<path class="st2" d="M21.4,59.1c-0.5-1.5-1.3-2.8-2.1-3.8c-0.8-1-1.6-1.7-2.2-2.1c-0.3-0.2-0.5-0.4-0.7-0.5
		c-0.2-0.1-0.3-0.2-0.3-0.2s0.3,0.3,0.7,0.9c0.4,0.6,1,1.4,1.5,2.4c0.3,0.5,0.5,1.1,0.7,1.7c0.2,0.6,0.4,1.3,0.6,2
		c0.2,0.7,0.3,1.4,0.4,2.2c0.1,0.7,0.1,1.5,0.1,2.2c0,0.8,0,1.5-0.1,2.3c-0.1,0.7-0.2,1.5-0.4,2.2c-0.2,0.7-0.4,1.4-0.6,2
		c-0.2,0.6-0.5,1.2-0.7,1.7c-0.5,1-1.1,1.9-1.5,2.4c-0.4,0.6-0.7,0.9-0.7,0.9s0.1-0.1,0.3-0.1c0.2-0.1,0.4-0.2,0.7-0.5
		c0.6-0.4,1.4-1.1,2.2-2.1c0.4-0.5,0.8-1.1,1.1-1.7c0.3-0.6,0.7-1.3,0.9-2.1c0.3-0.8,0.5-1.6,0.6-2.4c0.1-0.8,0.2-1.7,0.2-2.5
		c0-0.9-0.1-1.7-0.2-2.6C21.9,60.6,21.7,59.8,21.4,59.1z"/>
	<path class="st2" d="M44.7,52.1c-0.5-1.8-1.3-3.6-2.1-5.1c-0.8-1.6-1.6-3-2.5-4.3c-0.9-1.3-1.8-2.3-2.6-3.3
		c-0.8-0.9-1.6-1.7-2.3-2.2c-0.7-0.6-1.2-1-1.6-1.3c-0.4-0.3-0.6-0.4-0.6-0.4s0.2,0.2,0.5,0.5c0.3,0.3,0.8,0.8,1.4,1.5
		c1.2,1.3,2.7,3.3,4.2,5.8c0.4,0.6,0.7,1.3,1.1,2c0.4,0.7,0.7,1.5,1,2.2c0.6,1.6,1.2,3.2,1.7,5c0.5,1.8,0.8,3.6,1.1,5.6
		c0.3,1.9,0.4,3.9,0.4,5.8c0,2-0.1,3.9-0.4,5.9c-0.3,1.9-0.6,3.8-1.1,5.6c-0.5,1.8-1.1,3.5-1.7,5c-0.3,0.8-0.7,1.5-1,2.2
		c-0.3,0.7-0.7,1.4-1.1,2c-1.5,2.6-3,4.5-4.2,5.8c-0.6,0.7-1.1,1.1-1.4,1.5c-0.3,0.3-0.5,0.5-0.5,0.5s0.2-0.2,0.6-0.4
		c0.4-0.3,1-0.7,1.6-1.3c0.7-0.6,1.4-1.3,2.3-2.2c0.8-0.9,1.7-2,2.6-3.3c0.9-1.2,1.7-2.7,2.5-4.3c0.8-1.6,1.5-3.3,2.1-5.1
		c0.6-1.8,1-3.8,1.3-5.8c0.3-2,0.4-4.1,0.5-6.1c0-2.1-0.2-4.1-0.5-6.1C45.8,55.9,45.3,54,44.7,52.1z"/>
	<path class="st2" d="M64,0C28.7,0,0,28.7,0,64s28.7,64,64,64s64-28.7,64-64S99.3,0,64,0z M64,126C29.8,126,2,98.2,2,64S29.8,2,64,2
		s62,27.8,62,62S98.2,126,64,126z"/>
	<path class="st2" d="M96.1,24.7c-8.3-4.8-19.1-3.4-25.7-0.1c-5.8,2.9-10.1,8.3-11.9,14.8c-1.6,5.9-0.9,12.1,1.9,16.6
		c1,1.6,2.1,3.2,3.1,4.7c3.2,4.8,6.1,9.2,8,13.6C73,78,74.2,84,75.1,88.4c1.4,6.9,5,11.9,9.7,13.3c2.2,0.7,4.1,0.9,5.9,0.9
		c10.6,0,14.2-10.2,14.2-10.3c0.2-0.5-0.1-1.1-0.6-1.2c-0.5-0.2-1.1,0.1-1.2,0.6c-0.2,0.5-4.3,12.2-17.7,8.1
		C79.4,98,77.5,90.3,77,88c-0.9-4.5-2.1-10.6-3.7-14.5c-1.9-4.5-4.9-9.1-8.1-13.9c-1-1.6-2.1-3.1-3.1-4.7c-2.5-4-3.2-9.6-1.7-15
		C62,33.9,66,29,71.3,26.4c6.1-3.1,16.2-4.4,23.9,0.1c5.4,3.1,8.5,8.7,8.9,16c0,0.5,0.5,1,1,0.9c0.5,0,1-0.5,0.9-1
		C105.4,32.2,100.3,27.1,96.1,24.7z"/>
</g>
</svg>
