<?xml version="1.0" encoding="utf-8"?>
<!-- Generator: Adobe Illustrator 23.0.0, SVG Export Plug-In . SVG Version: 6.00 Build 0)  -->
<svg version="1.1" id="Layer_1" xmlns="http://www.w3.org/2000/svg" xmlns:xlink="http://www.w3.org/1999/xlink" x="0px" y="0px"
	 viewBox="0 0 128 128" style="enable-background:new 0 0 128 128;" xml:space="preserve">
<style type="text/css">
	.st0{fill:#605451;}
	.st1{fill:#514745;}
	.st2{fill:#2D2D2D;}
</style>
<g>
	<g>
		<path class="st0" d="M127.6,115.7c-0.3-0.6-0.8-1-1.3-1.3c-0.7-1.6-1.2-3.2-1.6-4.9c-0.5-1.7-0.8-3.4-0.9-5.1l-0.1-1.3
			c0-0.4,0-0.8,0.1-1c0-0.1,0-0.1,0.1-0.2l0.2-0.3c0.1-0.2,0.2-0.5,0.3-0.7c0.2-0.5,0.2-1.1,0.2-1.6c-0.1-0.6-0.2-1.1-0.5-1.5
			c-0.3-0.5-0.6-0.8-1-1.2c-0.7-0.6-1.4-1-2.1-1.4c0-0.5-0.1-1-0.3-1.5c-0.2-0.6-0.4-1.2-0.7-1.7c-0.3-0.5-0.7-1-1.1-1.5
			c-0.2-0.2-0.4-0.4-0.5-0.6c0.1-0.1,0.3-0.1,0.4-0.2c0.9-0.5,1.6-1.4,1.8-2.5c0.1-0.5,0-1.1-0.2-1.6c-0.2-0.5-0.5-0.9-0.9-1.3
			c-0.4-0.4-0.8-0.6-1.3-0.8c-0.2-0.1-0.5-0.2-0.8-0.2c-0.3,0-0.6-0.1-0.8,0c-0.3,0-0.5,0.1-0.8,0.2c-0.2,0.1-0.5,0.3-0.7,0.4
			c-0.4,0.3-0.7,0.7-1,1.1c-0.1,0.2-0.2,0.3-0.3,0.5c-0.1,0.1-0.3,0.1-0.4,0c-0.4-0.5-0.9-0.8-1.5-1.3c-0.8-0.7-1.7-1.4-2.5-2.1
			c-1.8-1.3-3.6-2.5-5.4-3.7c-1.8-1.2-3.7-2.3-5.6-3.4l-2.8-1.6c-0.9-0.5-1.8-1-2.7-1.6c-1.3-2.1-3.4-3.6-5.7-4.5
			c-0.6-0.2-1.2-0.4-1.8-0.6l-0.5-0.1l-0.2,0l-0.1,0l-0.1,0c-0.2,0-0.5-0.1-0.8-0.2c-1.1-0.3-2.2-0.8-3.3-1.2
			c-2.2-0.8-4.4-1.6-6.7-2.3c-0.6-0.2-1.2-0.3-1.8-0.4c-0.6-0.1-1.2-0.2-1.8-0.3c-1.2-0.1-2.4-0.2-3.5-0.3
			c-4.7-0.3-9.4-0.5-14.1-0.7C51,61.1,49.8,61,48.7,61c-1.2,0-2.4,0-3.6,0.1c-2.4,0.1-4.7,0.5-7,0.9c-2.3,0.5-4.6,1.1-6.8,1.9
			c-2.2,0.8-4.4,1.7-6.5,2.7c-1,0.5-2.1,0.8-3.3,1.1c-1.1,0.3-2.3,0.7-3.4,1.2c-2.2,0.9-4.3,2.2-6.1,3.9c-0.9,0.8-1.7,1.8-2.3,2.9
			c0,0.1-0.1,0.2-0.1,0.2c-0.8,0.7-1.7,1.4-2.5,2c-0.7,0.5-1.4,1-2.2,1.4c-0.9,0.4-1.6,1-2.3,1.7c-1.3,1.4-2.2,3.1-2.5,5
			C-0.1,87,0,88,0.1,88.9c0.2,0.9,0.5,1.8,0.9,2.7l0.2,0.4L1.8,92c0.6-0.1,1.2-0.3,1.6-0.7c0.5-0.3,0.9-0.7,1.2-1.2
			c0.7-0.9,1.1-1.8,1.5-2.7c0.4-0.9,0.7-1.9,0.9-2.8c0.1-0.5,0.3-0.9,0.4-1.4c0.1-0.2,0.2-0.4,0.3-0.6c0,0,0,0,0,0
			c-0.1,1.3-0.1,2.6,0,3.8c0.1,1.2,0.2,2.4,0.4,3.5c0.1,0.6,0.2,1.1,0.3,1.7c0.1,0.6,0.4,1.2,0.6,1.7c0.5,1.1,2.6,5.4,3.2,6.4
			c-0.3,0.3-0.4,0.4-0.6,0.8c-0.5,0.7-1,1.5-1.4,2.3c-0.4,0.8-0.7,1.6-1,2.4c-0.3,0.8-0.5,1.7-0.7,2.5l-0.2,0.6L8.4,109
			c0,0.2-0.1,0.5-0.1,0.7c0,0.2,0,0.5,0,0.7c0,1.8,0.3,3.6,0.7,5.3c0.4,1.7,1,3.4,1.6,5c0.3,0.8,0.6,1.6,1,2.4l0.5,1.2l0.3,0.6
			c0.1,0.2,0.2,0.5,0.4,0.7c0.6,0.8,1.5,1.4,2.5,1.6c0.2,0.1,0.5,0.1,0.7,0.1c0.3,0,0.5,0,0.7,0l1.3,0c1.7,0,3.4-0.1,5.1-0.2
			l2.6-0.1l1.3,0l0.6,0l0.2,0c0,0,0.1,0,0.2,0c0.2,0,0.3-0.1,0.4-0.2c0.1-0.1,0.2-0.3,0.2-0.4c0-0.2,0-0.4-0.1-0.5
			c-0.1-0.1-0.2-0.2-0.3-0.2l-0.3-0.2c-0.4-0.3-0.7-0.5-1.1-0.7c-0.4-0.2-0.8-0.4-1.1-0.6c-0.3-0.2-0.6-0.5-0.9-0.8
			c-0.5-0.6-0.8-1.4-0.8-2.2l-0.3-5.1l-0.1-1.3c0-0.1,0-0.3,0.1-0.4c0-0.1,0.1-0.1,0.1-0.2c0,0,0-0.1,0.1-0.1l0,0l0.1-0.1
			c0.2-0.2,0.3-0.5,0.5-0.7c0.7,3.1,2.6,9.3,6.9,11.7c0.7,0.4,1.5,0.6,2.3,0.6h12c0.7,0,1.3-0.4,1.4-1c0.1-0.6-0.2-1.1-0.7-1.4
			c-1-0.5-2.9-1.4-4.5-1.9c-0.6-0.2-1.1-0.6-1.2-1c-0.2-0.5-0.4-1-0.6-1.6c-0.7-1.9-1.9-5.2-1.8-6c0.1-1.3,1-2.8,1.1-2.8
			c0,0,0-0.1,0.1-0.1c0.1,0,0.2,0,0.3,0.1c4.3,0.7,8.6,0.9,12.9,0.9c2.1,0,4.3-0.1,6.5-0.3c2.1-0.2,4.3-0.4,6.4-0.9
			c0.7-0.1,1.4-0.3,2-0.4c-0.3,2-0.2,5.8,1.2,8.7c0.3,0.5,0.4,1.1,0.3,1.7c0,0.7-0.1,1.4-0.1,2.2c-0.2,2.5,1.6,4.7,4,5.1l8,1.3
			c0.1,0,0.2,0,0.2,0c0.3,0,0.7-0.1,0.9-0.3c0.4,0.4,0.9,0.6,1.5,0.6h11.1c0.4,0,0.8-0.2,1-0.5c0.4-0.5,0.3-1.2-0.1-1.6
			c-1.1-1.1-2.6-2.5-4.1-3.2c-0.5-0.2-0.8-0.7-0.8-1.2c-0.1-1-0.1-2.1,0-3.1c0-1.9,0-3.6-0.4-4.5c-0.3-0.6-0.2-1.9-0.1-3.1
			c0-0.4,0.1-0.8,0.1-1.1c0.2,0.2,0.3,0.3,0.6,0.4c0.3,0.2,0.7,0.3,1.1,0.3h0c0.4,0,0.8-0.1,1.2-0.3c0,0,0,0,0,0
			c0.3,0.7,0.9,1.8,1.8,2.3c0.5,0.3,1.1,0.4,1.6,0.4c0.2,0,0.3,0,0.5,0c0.4,0.8,1.7,2.7,3.9,3.3c0.4,0.1,0.8,0.2,1.3,0.2
			c1.4,0,2.8-0.5,4.3-1.6c0.1,0,0.1-0.1,0.2-0.2c0.3,0.8,0.8,1.7,1.3,2.4c0.4,0.7,1,1.3,1.6,1.9c0.6,0.6,1.3,1.1,2,1.5
			c0.7,0.4,1.3,0.7,2.1,0.9c0.6,0.8,1.5,1.4,2.4,1.6c0.5,0.1,1,0.2,1.5,0.2c0.4,0,0.8-0.1,1.2-0.1c0,0,0.1,0,0.1,0
			c0.3,0.1,0.5,0.2,0.8,0.3c0.3,0.1,0.7,0.1,1,0.1c0.7,0,1.3-0.2,1.9-0.3c0.6-0.2,1.2-0.5,1.8-0.8c0.5-0.3,1-0.7,1.5-1.1
			c0.3-0.1,0.6-0.3,0.8-0.5c0.2-0.2,0.4-0.5,0.6-0.8c0.3-0.6,0.5-1.2,0.6-1.8C128,117,127.9,116.3,127.6,115.7z M81,123.7
			c-0.7-0.7-1.3-1.3-1.9-1.6c0.3-0.6,0.7-1.4,1-2.1c0.1,0.1,0.1,0.2,0.2,0.2c0.1,0.7,0.3,1.4,0.4,2.2
			C80.8,122.8,80.9,123.3,81,123.7z M8.3,79.2c-0.2,1-0.4,1.9-0.5,2.9c-0.1,0.1-0.3,0.2-0.4,0.3c-0.2,0.2-0.3,0.4-0.5,0.6
			c-0.3,0.4-0.5,0.9-0.8,1.3c-0.5,0.9-0.9,1.8-1.3,2.6c-0.4,0.8-0.9,1.7-1.4,2.4c-0.4,0.6-0.9,1-1.4,1.3c-0.3-0.6-0.6-1.2-0.8-1.8
			c-0.3-0.8-0.5-1.7-0.5-2.5c0-0.9,0.2-1.7,0.6-2.5c0.4-0.8,1.1-1.4,1.8-1.9c0.7-0.5,1.5-0.9,2.3-1.2c0.2-0.1,0.4-0.2,0.7-0.3
			c0.2-0.1,0.4-0.2,0.6-0.4c0.4-0.3,0.8-0.6,1.1-0.9c0.3-0.2,0.5-0.5,0.8-0.7C8.5,78.5,8.4,78.8,8.3,79.2z M38.7,118.8
			c0.2,0.6,0.4,1.1,0.6,1.6c0.3,0.9,1.1,1.6,2.1,1.9c1.2,0.4,2.7,1.1,3.7,1.5H33.7c-0.6,0-1.2-0.1-1.6-0.4
			c-5.1-2.8-6.5-12.3-6.5-12.4c0,0,0,0,0,0c0.3-0.7,0.6-1.3,0.9-2c0.3-0.8,0.7-1.5,1.1-2.3c0.1-0.2,0.2-0.4,0.4-0.6
			c3.2,1.4,6.6,2.3,10,3c-0.3,0.6-0.9,1.9-1.1,3C36.7,113.2,37.5,115.6,38.7,118.8z M81.2,126.2C81.2,126.3,81.2,126.3,81.2,126.2
			l-8.1-1.2c-1.7-0.3-3-1.8-2.8-3.6c0.1-0.7,0.1-1.5,0.1-2.2c0-0.8-0.1-1.6-0.5-2.4c-1.2-2.6-1.4-6.3-1-8.1c0.9,0,1.8,0.1,2.8,0.2
			c1.1,0.1,2.1,0.1,3.2,0.2c0.7,0,1.4,0.1,2.1,0c0.3,2.4,0.9,6.4,2.1,9.1v0c0.1,0.6-0.8,2.4-1.6,3.8l-0.5,0.8l0.9,0.2
			C78.7,123.3,79.9,124.4,81.2,126.2C81.2,126.2,81.3,126.2,81.2,126.2z"/>
		<ellipse class="st1" cx="118.8" cy="100.6" rx="2.4" ry="2.4"/>
		<path class="st1" d="M15.9,103.7c0,0-4.1,4.5-4.1,7.2c1.3,3,3.4,10.9,5.1,12.3c1.7,1.5,6.4-0.4,7.1-0.6c0.7,0.8,4.1,3.1,4.3,3.3
			c0.1,0.4,0.1,0.7-1.1,0.7c-1.3,0.1-11.1,0.1-12.2-0.4s-1.8-1.4-2.4-2.6c-0.6-1.2-3.8-11.5-3.6-13.8s2.4-8.8,3.2-9.3
			C13,101.4,15.9,103.7,15.9,103.7z"/>
		<path class="st1" d="M35.5,100.6c0,0,12,5.1,20.9,5s17.3-3,17.3-3l3.7,4.6l0.2,1.6c0,0-0.7,0.3-2.6,0c-1.4,0-7-0.7-7-0.7
			s-11.6,1.5-18.4,1.4s-17.6-1.3-22.2-3.8c2-1.9,8-5.2,8-5.2"/>
		<path class="st1" d="M24.4,67.6c0,0-12.7,8.1-12.6,13.7c0.1,5.6-0.5,12.2,3.2,13.6c-0.3,2.1-0.8,3.7-2.3,4.7
			c-0.9-1.5-3.6-6.3-3.9-8.8c-0.4-2.5-0.7-10.4,0.5-13.2s5.6-6.8,7.1-7.3S24.4,67.6,24.4,67.6z"/>
		<path class="st1" d="M88.1,101c0,0,3.2,5.9,4.7,3.4c0.3,2.7,3.7,3.4,3.9,1.9c0.7,2.8,7,6.9,8.4,4.4c1.2,3,1.3,4.5-1.6,4.7
			s-5.6-2.6-5.8-3.3c-1.4,0-3.7-2.3-4-2.8c-1,0.6-3.2,0.7-3.8-1.3C89.3,106.2,88.1,101,88.1,101z"/>
		<path class="st1" d="M104.7,107.3c0,0,2,5.9,5.2,7.9c3.2,2,6.8,2.6,7.7,2.6c0.7,0.6,7.5,4.6,8.1-2.7c1,0.1,3.8,2,0.6,5.3
			c-0.7,0.1-1.2,0.8-1.5,0.9c-0.3,0.2-3.7,1.9-5.7,1c-1.5,0-4.2-0.1-5-1.9c-0.9-0.3-4.6-2-6.2-4.6c-0.7-0.9-1.6-2.7-1.9-3.1
			c-0.3-0.4-1.2-3.8-1.2-4.2C104.7,108.1,104.7,107.3,104.7,107.3z"/>
		<path class="st1" d="M112.3,89.2c0,0,2.2,0.5,2.3,2.1c0.8-1.2,1.3-1.7,2.2-1.7c0.9-0.1,4.1-2.5,2.1-4.8c-1.1-1-4.4-0.3-4.9,0.8
			c-0.4,1.1-0.6,2.3-0.9,2.7S112.3,89.2,112.3,89.2z"/>
		<path class="st1" d="M83.6,81.1c0,0,3.2-3.9,4.2,5.6c-0.1-5.1,5.4-3.3,5.5,0c0.5-5.5,0.6-9.1,4-11.3c-0.6-0.4-5-2.8-5-2.8
			s-3.9-4.2-5.5-4.2C85.7,69.6,82.4,74,83.6,81.1z"/>
		<path class="st1" d="M8.6,78.2c-0.1,0.3-0.2,0.6-0.3,0.9c-0.2,1-0.4,1.9-0.5,2.9c-0.1,0.1-0.3,0.2-0.4,0.3
			c-0.2,0.2-0.3,0.4-0.5,0.6c-0.3,0.4-0.5,0.9-0.8,1.3c-0.5,0.9-0.9,1.8-1.3,2.6c-0.4,0.8-0.9,1.7-1.4,2.4c-0.4,0.6-0.9,1-1.4,1.3
			c-0.3-0.6-0.6-1.2-0.8-1.8c-0.3-0.8-0.5-1.7-0.5-2.5c0-0.9,0.2-1.7,0.6-2.5c0.4-0.8,1.1-1.4,1.8-1.9c0.7-0.5,1.5-0.9,2.3-1.2
			c0.2-0.1,0.4-0.2,0.7-0.3c0.2-0.1,0.4-0.2,0.6-0.4C7,79.6,7.4,79.3,7.8,79C8.1,78.7,8.3,78.5,8.6,78.2z"/>
		<path class="st1" d="M45.1,123.8H33.7c-0.6,0-1.2-0.1-1.6-0.4c-5.1-2.8-6.5-12.3-6.5-12.4c0,0,0,0,0,0c0.3-0.7,0.6-1.3,0.9-2
			c0.3-0.8,0.7-1.5,1.1-2.3c0.1-0.2,0.2-0.4,0.4-0.6c3.2,1.4,6.6,2.3,10,3c-0.3,0.6-0.9,1.9-1.1,3c-0.1,1,0.7,3.4,1.9,6.6
			c0.2,0.6,0.4,1.1,0.6,1.6c0.3,0.9,1.1,1.6,2.1,1.9C42.6,122.7,44.1,123.4,45.1,123.8z"/>
		<path class="st1" d="M81.2,126.2C81.2,126.3,81.2,126.3,81.2,126.2l-8.1-1.2c-1.7-0.3-3-1.8-2.8-3.6c0.1-0.7,0.1-1.5,0.1-2.2
			c0-0.8-0.1-1.6-0.5-2.4c-1.2-2.6-1.4-6.3-1-8.1c0.9,0,1.8,0.1,2.8,0.2c1.1,0.1,2.1,0.1,3.2,0.2c0.7,0,1.4,0.1,2.1,0
			c0.3,2.4,0.9,6.4,2.1,9.1v0c0.1,0.6-0.8,2.4-1.6,3.8l-0.5,0.8l0.9,0.2C78.7,123.3,79.9,124.4,81.2,126.2
			C81.2,126.2,81.3,126.2,81.2,126.2z"/>
		<path class="st1" d="M105.9,96.6c0,0-2.2,4.2,1.2,5.3c5.2,1.7,4.2-4.2,4.2-4.2L105.9,96.6z"/>
		<path class="st1" d="M110.7,99.4c0,0-2.3,2.3-3.8-0.3c-1.4-2.6,1.7-3.5,2.2-3.6c0.5,0,2.2,0.5,2,2.4
			C111,98.5,110.7,99.4,110.7,99.4z"/>
	</g>
	<g>
		<path class="st2" d="M118.8,98.3c-0.4-0.1-0.7,0.2-0.8,0.6c-0.1,0.5,0,1.2,0.3,1.7c0.4,0.5,1.1,0.7,1.6,0.7c0.3,0,0.6-0.2,0.6-0.5
			c0.1-0.5,0.2-1-0.3-1.7C120,98.4,119.3,98.3,118.8,98.3z"/>
		<path class="st2" d="M125,116.5c-0.5,0.4-0.7,2-0.3,2.5c0.3,0.5,1,0.5,1.5,0.2c0.5-0.4,0.2-0.8-0.2-1.3
			C125.7,117.4,125.5,116.1,125,116.5z"/>
		<path class="st2" d="M126.2,114.4c-0.6-1.6-1.2-3.2-1.6-4.9c-0.5-1.7-0.8-3.4-0.9-5.1l-0.1-1.3c0-0.4,0-0.8,0.1-1
			c0-0.1,0-0.1,0.1-0.2l0.2-0.3c0.1-0.2,0.2-0.5,0.3-0.7c0.2-0.5,0.2-1.1,0.2-1.6c-0.1-0.6-0.2-1.1-0.5-1.5c-0.3-0.5-0.6-0.8-1-1.2
			c-0.7-0.6-1.4-1-2.1-1.4c0-0.5-0.1-1-0.3-1.5c-0.2-0.6-0.4-1.2-0.7-1.7c-0.3-0.5-0.7-1-1.1-1.5c-0.2-0.2-0.4-0.4-0.5-0.6
			c0.1-0.1,0.3-0.1,0.4-0.2c0.9-0.5,1.6-1.4,1.8-2.5c0.1-0.5,0-1.1-0.2-1.6c-0.2-0.5-0.5-0.9-0.9-1.3c-0.4-0.4-0.8-0.6-1.3-0.8
			c-0.2-0.1-0.5-0.2-0.8-0.2c-0.3,0-0.6-0.1-0.8,0c-0.3,0-0.5,0.1-0.8,0.2c-0.2,0.1-0.5,0.3-0.7,0.4c-0.4,0.3-0.7,0.7-1,1.1
			c-0.2,0.3-0.2,0.4-0.4,0.7c-0.6-0.6-3.5-3-4.4-3.6c-1.8-1.3-3.6-2.5-5.4-3.7c-1.8-1.2-3.7-2.3-5.6-3.4l-2.8-1.6
			c-0.9-0.5-1.8-1-2.7-1.6c-1.3-2.1-3.4-3.6-5.7-4.5c-0.6-0.2-1.2-0.4-1.8-0.6l-0.5-0.1l-0.2,0l-0.1,0l-0.1,0
			c-0.2,0-0.5-0.1-0.8-0.2c-1.1-0.3-2.2-0.8-3.3-1.2c-2.2-0.8-4.4-1.6-6.7-2.3c-0.6-0.2-1.2-0.3-1.8-0.4c-0.6-0.1-1.2-0.2-1.8-0.3
			c-1.2-0.1-2.4-0.2-3.5-0.3c-4.7-0.3-9.4-0.5-14.1-0.7C51,61.1,49.8,61,48.7,61c-1.2,0-2.4,0-3.6,0.1c-2.4,0.1-4.7,0.5-7,0.9
			c-2.3,0.5-4.6,1.1-6.8,1.9c-2.2,0.8-4.4,1.7-6.5,2.7c-1,0.5-2.1,0.8-3.3,1.1c-1.1,0.3-2.3,0.7-3.4,1.2c-2.2,0.9-4.3,2.2-6.1,3.9
			c-0.9,0.8-1.7,1.8-2.3,2.9c0,0.1-0.1,0.2-0.1,0.3c-0.8,0.7-1.7,1.4-2.5,2c-0.7,0.5-1.4,1-2.2,1.4c-0.9,0.4-1.6,1-2.3,1.7
			c-1.3,1.4-2.2,3.1-2.5,5C0,87,0,88,0.1,89c0.2,0.9,0.5,1.8,0.9,2.7l0.2,0.4L1.8,92c0.6-0.1,1.2-0.3,1.6-0.7
			c0.5-0.3,0.9-0.7,1.2-1.2c0.7-0.9,1.1-1.8,1.5-2.7c0.4-0.9,0.7-1.9,0.9-2.8c0.1-0.5,0.3-0.9,0.4-1.4c0.1-0.2,0.3-0.7,0.3-0.7
			c-0.1,1.3-0.1,2.6,0,3.8c0.1,1.2,0.3,2.4,0.4,3.5c0.1,0.6,0.2,1.1,0.3,1.8c0.1,0.6,0.4,1.2,0.6,1.7c0.5,1.1,2.5,5.5,3.1,6.5
			c-0.2,0.2-0.3,0.3-0.5,0.7c-0.5,0.7-1,1.5-1.4,2.3c-0.4,0.8-0.7,1.6-1,2.4c-0.3,0.8-0.5,1.7-0.7,2.5l-0.2,0.6L8.4,109
			c0,0.2-0.1,0.5-0.1,0.7c0,0.2,0,0.5,0,0.7c0,1.8,0.3,3.6,0.7,5.3c0.4,1.7,1,3.4,1.6,5c0.3,0.8,0.6,1.6,1,2.4l0.5,1.2l0.3,0.6
			c0.1,0.2,0.2,0.5,0.4,0.7c0.6,0.8,1.5,1.4,2.5,1.6c0.2,0.1,0.5,0.1,0.7,0.1c0.3,0,0.5,0,0.7,0l1.3,0c1.7,0,3.4-0.1,5.1-0.2
			l2.6-0.1l1.3,0l0.6,0l0.2,0c0,0,0.1,0,0.2,0c0.2,0,0.3-0.1,0.4-0.2c0.1-0.1,0.2-0.3,0.2-0.4c0-0.2,0-0.3-0.1-0.5
			c-0.1-0.1-0.2-0.2-0.3-0.2l-0.3-0.2c-0.4-0.3-0.7-0.5-1.1-0.7c-0.4-0.2-0.8-0.4-1.1-0.6c-0.3-0.2-0.6-0.5-0.9-0.8
			c-0.5-0.6-0.8-1.4-0.8-2.2l-0.1-2.6l-0.1-2.6l-0.1-1.3c0-0.1,0-0.3,0.1-0.4c0-0.1,0.1-0.1,0.1-0.2c0,0,0-0.1,0.1-0.1l0,0l0.1-0.1
			c0.2-0.2,0.3-0.4,0.5-0.7c0.7,3.1,2.6,9.3,6.9,11.7c0.7,0.4,1.5,0.6,2.3,0.6h12c0.7,0,1.3-0.4,1.4-1c0.1-0.6-0.2-1.1-0.7-1.4
			c-1-0.5-2.9-1.4-4.5-1.9c-0.6-0.2-1.1-0.6-1.2-1c-0.2-0.5-0.4-1-0.6-1.6c-0.7-1.9-1.9-5.2-1.8-6c0.1-1.3,1-2.8,1.1-2.8
			c0,0,0-0.1,0.1-0.1c0.1,0,0.2,0,0.3,0.1c4.3,0.7,8.6,0.9,12.9,0.9c2.1,0,4.3-0.1,6.5-0.3c2.1-0.2,4.3-0.4,6.4-0.9
			c0.7-0.1,1.4-0.3,2-0.4c-0.3,2-0.2,5.8,1.2,8.7c0.3,0.5,0.4,1.1,0.4,1.7c0,0.7-0.1,1.4-0.1,2.2c-0.2,2.5,1.6,4.7,4,5.1l8,1.3
			c0.1,0,0.2,0,0.2,0c0.3,0,0.7-0.1,0.9-0.3c0.4,0.4,0.9,0.6,1.5,0.6h11.2c0.5,0,0.9-0.3,1.1-0.7c0.2-0.4,0.1-1-0.3-1.3
			c-1.1-1.1-2.6-2.5-4.1-3.2c-0.5-0.2-0.8-0.7-0.8-1.2c-0.1-1-0.1-2.1-0.1-3.1c0-1.9,0-3.6-0.4-4.5c-0.3-0.6-0.2-1.9-0.1-3.1
			c0-0.4,0.1-0.8,0.1-1.1c0.2,0.2,0.4,0.3,0.6,0.4c0.3,0.2,0.7,0.3,1.1,0.3l0,0c0.4-0.1,0.8-0.1,1.2-0.3c0,0,0,0,0,0
			c0.3,0.7,0.9,1.8,1.8,2.3c0.5,0.3,1.1,0.4,1.6,0.4c0.2,0,0.3,0,0.5,0c0.4,0.8,1.7,2.7,3.9,3.3c0.4,0.1,0.8,0.2,1.3,0.2
			c1.4,0,2.8-0.5,4.3-1.6c0.3,0.6,0.6,1.1,1,1.7c0.5,0.7,1.1,1.4,1.7,2.1c0.6,0.6,1.3,1.2,2.1,1.7c0.7,0.4,1.5,0.8,2.3,1.1
			c0.6,0.8,1.5,1.4,2.4,1.6c0.5,0.1,1,0.2,1.5,0.2c0.4,0,0.8-0.1,1.2-0.1c0,0,0.1,0,0.1,0c0.3,0.2,0.5,0.2,0.8,0.3
			c0.4,0.1,0.7,0.1,1,0.1c0.7,0,1.3-0.2,1.9-0.4c0.6-0.2,1.2-0.5,1.8-0.8c0.5-0.3,1-0.7,1.5-1.1c0.3-0.1,0.6-0.3,0.8-0.5
			c0.2-0.2,0.4-0.5,0.6-0.8c0.3-0.6,0.5-1.2,0.6-1.8c0-0.6-0.1-1.3-0.4-1.9C127.3,115.1,126.8,114.7,126.2,114.4z M8.3,79.2
			c-0.2,1-0.4,1.9-0.5,2.9c-0.1,0.1-0.3,0.2-0.4,0.3c-0.2,0.2-0.3,0.4-0.5,0.6c-0.3,0.4-0.5,0.9-0.8,1.3c-0.5,0.9-0.9,1.8-1.3,2.6
			c-0.4,0.8-0.9,1.7-1.4,2.4c-0.4,0.6-0.9,1-1.4,1.3c-0.3-0.6-0.6-1.2-0.8-1.8c-0.3-0.8-0.5-1.7-0.5-2.5c0-0.9,0.2-1.7,0.6-2.5
			c0.4-0.8,1.1-1.4,1.8-1.9c0.7-0.5,1.5-0.9,2.3-1.2c0.2-0.1,0.4-0.2,0.6-0.3c0.2-0.1,0.4-0.2,0.6-0.4c0.4-0.3,0.8-0.6,1.1-0.9
			c0.3-0.2,0.5-0.5,0.8-0.7C8.5,78.5,8.4,78.9,8.3,79.2z M38.7,118.8c0.2,0.6,0.4,1.1,0.6,1.6c0.3,0.9,1.1,1.6,2.1,1.9
			c1.2,0.4,2.7,1.1,3.7,1.5H33.7c-0.6,0-1.2-0.1-1.6-0.4c-5.1-2.8-6.5-12.3-6.5-12.4c0,0,0,0,0,0c0.3-0.7,0.6-1.3,0.9-2
			c0.3-0.8,0.7-1.5,1.1-2.3c0.1-0.2,7,1.7,10.4,2.4c-0.3,0.6-0.9,1.9-1.1,3C36.7,113.2,37.5,115.6,38.7,118.8z M81.2,126.2
			C81.2,126.3,81.2,126.3,81.2,126.2l-8.1-1.2c-1.7-0.3-3-1.8-2.8-3.6c0.1-0.7,0.1-1.5,0.1-2.2c0-0.8-0.1-1.6-0.5-2.4
			c-1.2-2.6-1.4-6.3-1-8.1c0.9,0,1.8,0.1,2.8,0.2c1.1,0.1,2.1,0.2,3.2,0.2c0.7,0,1.4,0.1,2.1,0c0.3,2.4,0.8,6.4,2.1,9.1c0,0,0,0,0,0
			c0.1,0.6-0.8,2.4-1.6,3.8l-0.5,0.8l0.9,0.2C78.7,123.3,79.9,124.4,81.2,126.2C81.2,126.2,81.3,126.2,81.2,126.2z M79.1,122.1
			c0.3-0.6,0.7-1.4,1-2.1c0.1,0.1,0.1,0.2,0.2,0.2c0.1,0.7,0.3,1.4,0.4,2.2c0.1,0.4,0.2,0.9,0.3,1.3
			C80.3,122.9,79.7,122.4,79.1,122.1z M127,119.3c-0.1,0.3-0.3,0.5-0.5,0.7c-0.2,0.2-0.4,0.3-0.7,0.4l-0.1,0l-0.1,0.1
			c-0.8,0.8-2,1.3-3.1,1.5c-0.6,0.1-1.2,0.1-1.7,0.1c-0.3,0-0.6-0.1-0.8-0.1c-0.1,0-0.2-0.1-0.3-0.1c-0.3-0.2-0.6-0.6-0.6-0.7
			c-0.1-0.1-0.2-0.3-0.3-0.4c-0.2-0.3-0.3-0.7-0.4-1.1c-0.2-0.8-0.3-1.6-0.3-2.5c0-0.8,0.1-1.6,0.4-2.4c0.1-0.4,0.3-0.8,0.5-1.2
			c0.1-0.4,0.2-0.9,0.2-1.4c0-0.5-0.1-0.9-0.3-1.3c-0.1-0.4-0.4-0.9-0.7-1.2c-0.6-0.7-1.3-1.2-1.9-1.8c-0.6-0.6-1.1-1.3-1.4-2.1
			c-0.3-0.8-0.3-1.7-0.2-2.6c-0.1,0.9-0.2,1.7,0,2.6c0.2,0.9,0.7,1.6,1.3,2.3c0.6,0.6,1.3,1.2,1.8,1.9c0.2,0.3,0.4,0.7,0.5,1.1
			c0.1,0.4,0.2,0.8,0.1,1.2c0,0.8-0.4,1.5-0.8,2.3c-0.2,0.4-0.4,0.8-0.5,1.3c-0.1,0.5-0.2,0.9-0.2,1.4c0,0.9,0,1.8,0.1,2.7
			c0.1,0.5,0.2,0.9,0.4,1.4c0,0.1,0.1,0.2,0.1,0.3c0,0,0,0,0,0c-0.4,0-0.8-0.1-1.2-0.2c-0.8-0.2-1.4-0.6-1.9-1.2l-0.1-0.2l-0.2-0.1
			c-0.8-0.2-1.6-0.5-2.3-0.9c-0.7-0.4-1.4-0.9-2.1-1.4c-0.7-0.5-1.3-1.1-1.8-1.8c-0.4-0.5-0.8-1-1.2-1.5c0-0.1,0.1-0.1,0.1-0.2
			c0.1-0.2,0.1-0.5-0.1-0.7l0,0c-0.3-0.4-0.6-0.9-0.8-1.3c-0.2-0.5-0.5-1-0.6-1.5c-0.2-0.5-0.3-1.1-0.4-1.6
			c-0.1-0.6-0.2-1.1-0.2-1.7c-0.1,0.6-0.1,1.1-0.1,1.7c0,0.6,0,1.2,0.1,1.8c0.1,0.6,0.2,1.2,0.3,1.8c0.1,0.4,0.2,0.8,0.4,1.2
			c-1.4,0.9-2.7,1.2-3.9,0.9c-1.8-0.5-2.8-2.1-3.1-2.7c0-0.1,0-0.3-0.1-0.4l0,0c-0.3-0.6-0.6-1.4-0.8-2.1c-0.2-0.7-0.4-1.5-0.6-2.2
			c-0.1-0.8-0.3-1.5-0.3-2.3c-0.1-0.8-0.1-1.5-0.2-2.3c-0.1,0.8-0.2,1.6-0.2,2.3c0,0.8,0,1.6,0,2.4c0,0.8,0.1,1.6,0.2,2.4
			c0.1,0.6,0.2,1.1,0.3,1.7c-0.4,0-0.7,0-1-0.2c-1.1-0.6-1.4-2.2-1.4-2.2c0,0,0-0.1,0-0.1c0-0.1,0-0.2-0.1-0.3
			c-0.1-0.2-0.3-0.5-0.4-0.7c-0.1-0.3-0.2-0.5-0.3-0.8c-0.2-0.6-0.3-1.1-0.4-1.7c-0.1-0.6-0.2-1.2-0.2-1.8c0-0.6-0.1-1.2-0.1-1.8
			c-0.1,0.6-0.2,1.2-0.3,1.8c-0.1,0.6-0.1,1.2-0.1,1.9c0,0.6,0,1.3,0.1,1.9c0,0.3,0.1,0.6,0.2,1c0.1,0.3,0.1,0.6,0.3,1l0,0
			c0,0,0,0,0,0c0,0,0,0,0,0c0,0,0,0.1,0,0.2c0,0,0,0-0.1,0c-0.3,0-0.6,0-0.9-0.1l0,0c-0.7-0.3-1.2-1.2-1.7-2.2
			c-0.5-0.9-0.9-2-1.3-3.1c-0.7-2.1-1.2-4.4-1.7-6.6c0,0,0-0.1-0.1-0.1c0,0-0.1,0-0.1,0.1c0,1.2,0.1,2.3,0.3,3.4
			c0.1,1.1,0.3,2.3,0.6,3.4c0.2,0.8,0.4,1.6,0.6,2.4c0,0.1,0,0.2,0,0.3c0.3,0.8,0.2,2.2,0,3.5c-0.1,1.5-0.2,3,0.2,3.9
			c0.3,0.6,0.3,2.3,0.3,3.9c0,1.1,0,2.2,0.1,3.3c0.1,1.1,0.7,2,1.6,2.4c1.1,0.5,2.4,1.7,3.3,2.5H83.6c-0.4,0-0.7-0.3-0.8-0.7
			c-0.1-1.1-0.4-2.5-0.7-3.8c-0.2-0.9-0.4-1.7-0.5-2.4l0-0.2l-0.2-0.2c-1.8-1.7-3-7.4-3.3-12.2c0-0.2-0.1-0.4-0.3-0.5c0,0,0,0,0,0
			c0,0,0,0-0.1,0c0,0,0,0-0.1,0l0,0c-0.3-0.1-0.6-0.4-0.9-0.6c-0.3-0.3-0.6-0.5-0.9-0.8c-0.6-0.6-1.1-1.3-1.5-2
			c-0.4-0.7-0.8-1.5-1-2.3c-0.2-0.4-0.2-0.8-0.3-1.2c-0.1-0.4-0.2-0.8-0.2-1.3c0,0.4,0,0.9,0.1,1.3c0.1,0.4,0.1,0.9,0.2,1.3
			c0.1,0.9,0.4,1.7,0.7,2.5c0.3,0.8,0.8,1.6,1.3,2.3c0.3,0.4,0.6,0.7,0.9,1.1c0.3,0.3,0.5,0.5,0.8,0.8c0,0.4,0,0.3,0.1,0.9
			c-0.1,0-7.2-0.6-8.3-0.7c-0.6-0.1-1.2,0-1.7,0.1l-1.6,0.2c-2.1,0.3-4.2,0.5-6.3,0.6c-2.1,0.1-4.2,0.2-6.4,0.2
			c-4.3,0.1-8.5,0-12.7-0.5c-4-0.5-11.8-2.5-11.7-2.6c0.2-0.2,0.6-0.5,0.9-0.8c1.3-1,2.7-2,4.2-2.9c1.4-0.9,2.9-1.8,4.4-2.6
			c0,0,0-0.1,0-0.1c0,0-0.1-0.1-0.1,0c-3.2,1.2-6.3,2.7-9.2,4.7c-0.4,0.3-0.7,0.5-1.1,0.9c-0.3,0.4-0.6,0.7-0.8,1.1
			c-0.5,0.8-0.8,1.6-1.2,2.4c-0.3,0.7-0.6,1.4-0.9,2.2c-0.1,0.1-0.1,0.2-0.2,0.4c-0.3,0.7-0.6,1.4-1.1,1.9l0,0.1l-0.1,0.1
			c0,0.1-0.1,0.1-0.1,0.2c-0.1,0.1-0.1,0.3-0.2,0.4c-0.1,0.3-0.1,0.6-0.1,0.9l0.2,1.3l0.3,2.6l0.3,2.6c0.1,0.9,0.5,1.8,1,2.5
			c0.3,0.3,0.6,0.7,1,0.9c0.4,0.3,0.8,0.4,1.1,0.7c0.4,0.2,0.7,0.4,1.1,0.7l0.2,0.2c0.1,0.1,0.2,0.1,0.2,0.2c0.1,0.1,0,0.2,0,0.3
			c0,0-0.1,0.1-0.2,0.1c0,0-0.1,0-0.1,0l-0.2,0l-0.6,0l-1.3,0l-2.6-0.1c-1.7-0.1-3.4-0.1-5.1-0.2l-1.3,0c-0.2,0-0.4,0-0.6,0
			c-0.2,0-0.4,0-0.5-0.1c-0.7-0.2-1.3-0.6-1.7-1.1c-0.1-0.1-0.2-0.3-0.2-0.4l-0.2-0.6l-0.5-1.2c-0.3-0.8-0.6-1.6-0.9-2.4
			c-0.5-1.6-1.1-3.2-1.5-4.8c-0.4-1.6-0.7-3.3-0.8-4.9c0-0.2,0-0.4,0-0.6c0-0.2,0-0.4,0-0.6l0.1-0.6l0.1-0.6
			c0.2-0.8,0.4-1.6,0.6-2.5c0.4-1.4,0.9-2.8,1.6-4.1c0.5,0.5,1.1,0.9,1.7,1.3c0.6,0.4,1.3,0.7,2,1c0.7,0.3,1.4,0.5,2.1,0.7
			c0.7,0.2,1.4,0.3,2.1,0.3c-0.7-0.2-1.4-0.4-2-0.7c-0.7-0.3-1.3-0.6-1.9-1c-0.6-0.4-1.1-0.8-1.6-1.2c-0.5-0.4-1-1-1.3-1.5l0,0
			c0,0,2.4-3.3,3-5.6c0.2-0.9,0.5-1.7,0.8-2.6c0.3-0.9,0.7-1.7,1.2-2.4c0.5-0.8,1-1.5,1.7-2.2c-0.7,0.6-1.4,1.2-2,2
			c-0.6,0.7-1.1,1.5-1.5,2.4c-0.4,0.8-1.1,1.6-1.2,2.6c-0.1,1,0.3,2.3-2.3,5c-1.1-2.1-2.1-4.1-2.9-6.3c-0.2-0.5-0.4-1.1-0.5-1.6
			c-0.1-0.6-0.2-1.2-0.2-1.7c-0.2-1.2-0.3-2.3-0.3-3.5c-0.1-2.3,0.1-4.6,0.7-6.8c0.3-1.1,0.7-2.1,1.3-3.1c0.6-1,1.3-1.8,2.1-2.6
			c1.6-1.6,3.6-2.8,5.6-3.8c1-0.5,2.1-0.9,3.2-1.3c1.1-0.4,2.2-0.8,3.3-1.4c4.1-2.3,8.5-4,13.1-4.9c2.3-0.5,4.6-0.7,7-0.8
			c1.2,0,2.3,0,3.5,0.1c1.2,0.1,2.3,0.2,3.5,0.3c4.7,0.5,9.4,0.8,14.1,1.2c1.2,0.1,2.3,0.2,3.5,0.3c1.2,0.1,2.2,0.4,3.3,0.7
			c2.2,0.7,4.4,1.5,6.6,2.3c1.1,0.4,2.2,0.8,3.4,1.2c0.3,0.1,0.6,0.2,0.9,0.3c0.1,0,0.2,0,0.2,0l0.2,0l0.4,0.1
			c0.4,0.1,0.8,0.2,1.3,0.4c0,0-0.1,0.1-0.1,0.1c-0.2,0.3-0.5,0.5-0.7,0.8c-0.4,0.6-0.7,1.2-1,1.8c-0.6,1.3-0.9,2.6-1,3.9
			c-0.2,1.3-0.1,2.7,0,4c0.1,0.7,0.2,1.3,0.3,2l0.4,1.9l-0.2-1.9c0-0.7-0.1-1.3-0.1-1.9c0-1.3,0.1-2.6,0.4-3.8
			c0.3-1.2,0.7-2.5,1.3-3.5c0.3-0.5,0.7-1.1,1.1-1.5c0.2-0.2,0.4-0.4,0.6-0.6c0.1-0.1,0.2-0.2,0.3-0.3c0.1-0.1,0.2-0.1,0.3-0.2
			c0.6,0.3,1.2,0.7,1.8,1.1c0.9,0.7,1.6,1.5,2.3,2.4l0.1,0.1l0,0c0,0,0,0,0,0c-0.2,0.2-0.3,0.4-0.5,0.6l-0.4,0.6l-0.4,0.6
			c-0.2,0.4-0.4,0.8-0.6,1.3c-0.2,0.4-0.4,0.9-0.5,1.3c-0.6,1.8-1,3.6-1.3,5.4c-0.1,0.9-0.2,1.8-0.3,2.7c0,0.9-0.1,1.8-0.1,2.7
			c0,0.9,0,1.8,0.1,2.7l0.2,2.7l0-2.7c0-0.9,0.1-1.8,0.1-2.7c0.1-0.9,0.1-1.8,0.2-2.7c0.1-0.9,0.2-1.8,0.4-2.7
			c0.3-1.8,0.8-3.5,1.6-5.1c0.2-0.4,0.4-0.8,0.6-1.2c0.2-0.4,0.4-0.8,0.7-1.1l0.4-0.5l0.4-0.5c0.1-0.2,0.3-0.3,0.4-0.5
			c0.1-0.1,0.2-0.2,0.2-0.2c0.6,0.3,1.2,0.6,1.8,0.9l1.7,0.9c-0.1,0.1-0.2,0.2-0.3,0.3c-0.2,0.3-0.5,0.6-0.7,0.9
			c-0.2,0.3-0.4,0.6-0.6,1c-0.2,0.3-0.3,0.7-0.5,1c-0.6,1.4-0.9,2.8-1,4.2c-0.2,1.4-0.1,2.9,0,4.3c0.1,0.7,0.2,1.4,0.3,2.1l0.4,2.1
			l-0.2-2.1c0-0.7-0.1-1.4-0.1-2.1c0-1.4,0.1-2.8,0.4-4.2c0.3-1.4,0.7-2.7,1.3-3.9c0.2-0.3,0.3-0.6,0.5-0.9c0.2-0.3,0.4-0.6,0.6-0.8
			c0.2-0.3,0.4-0.5,0.6-0.7c0.1-0.1,0.2-0.2,0.4-0.3c0.1-0.1,0.2-0.2,0.3-0.2c1.9,1,3.7,2,5.6,3.1c1.9,1.1,3.8,2.2,5.6,3.4
			c0.9,0.6,1.8,1.2,2.6,1.9c0.7,0.5,1.3,1.1,1.9,1.7c-0.2,0.5-0.2,0.9-0.3,1.4l0,0.3c0,0.1,0,0.2,0,0.3c0,0.2-0.1,0.3-0.2,0.5
			c-0.2,0.3-0.6,0.5-1,0.7c0.4,0,0.9-0.1,1.3-0.4c0.2-0.2,0.3-0.4,0.4-0.6c0.1-0.1,0.1-0.2,0.1-0.4l0.1-0.3c0.2-0.8,0.6-1.5,1.1-2.1
			c0.2-0.3,0.5-0.6,0.8-0.7c0.1-0.1,0.3-0.2,0.4-0.2c0.2,0,0.3-0.1,0.4-0.1c0.6-0.1,1.2,0.3,1.7,0.8c0.3,0.2,0.4,0.5,0.6,0.8
			c0.1,0.3,0.2,0.6,0.2,0.9c0,0.3-0.1,0.6-0.3,0.9c-0.2,0.3-0.4,0.5-0.7,0.8c-0.3,0.2-0.6,0.4-1,0.5c-0.2,0.1-0.4,0.1-0.6,0.2
			c-0.2,0.1-0.5,0.2-0.7,0.3c-0.4,0.3-0.8,0.6-0.9,1.1c-0.2,0.5-0.1,1,0.1,1.3c-0.1-0.4,0-0.8,0.2-1.2c0.2-0.3,0.5-0.5,0.9-0.7
			c0.2-0.1,0.4-0.1,0.5-0.1c0.2,0,0.4,0,0.6-0.1l0.4-0.1l0.3-0.1c0.5,0.7,1,1.5,1.3,2.3c0.2,0.5,0.4,1.1,0.5,1.6
			c0.1,0.6,0.1,1.1,0.1,1.7l0,0.3l0.3,0.2c0.7,0.4,1.4,0.9,2,1.5c0.6,0.6,0.9,1.2,1,1.9c0,0.3,0,0.7-0.2,1c-0.1,0.2-0.1,0.3-0.2,0.5
			l-0.1,0.3c-0.1,0.1-0.1,0.3-0.2,0.4c-0.2,0.6-0.2,1.2-0.1,1.6l0.1,0.7l0.1,0.7c0.2,1.8,0.6,3.6,1.2,5.3c0.6,1.7,1.2,3.4,2.1,5
			l0.1,0.2l0.1,0c0.5,0.2,1,0.5,1.3,0.9c0.3,0.4,0.5,1,0.4,1.6C127.5,118.2,127.3,118.8,127,119.3z"/>
		<path class="st2" d="M110.8,95.3c-0.3-0.3-0.8-0.5-1.2-0.5c-0.4,0-0.8,0-1.1,0.1c-0.3,0.1-0.7,0.2-1,0.4c-0.2,0.1-0.3,0.1-0.5,0.2
			c-0.2,0.1-0.3,0.2-0.5,0.4c-0.6,0.6-0.9,1.5-0.7,2.3c0.1,0.8,0.6,1.4,1.2,1.9c0.6,0.5,1.4,0.7,2.1,0.5c0.7-0.2,1.2-0.7,1.6-1.2
			c-0.5,0.3-1.1,0.6-1.7,0.6c-0.6,0-1.1-0.2-1.4-0.6c-0.4-0.4-0.6-0.9-0.7-1.4c0-0.5,0.1-0.9,0.4-1.2c0.2-0.1,0.4-0.3,0.7-0.4
			c0.3-0.1,0.5-0.2,0.8-0.3c0.5-0.2,1.1-0.2,1.3,0c0.3,0.2,0.5,0.8,0.6,1.4c0.1,0.6,0.1,1.2,0,1.9c0.3-0.6,0.5-1.2,0.6-1.9
			c0-0.3,0-0.7,0-1.1C111.2,96,111.1,95.6,110.8,95.3z"/>
	</g>
</g>
</svg>
