<?xml version="1.0" encoding="utf-8"?>
<!-- Generator: Adobe Illustrator 18.1.0, SVG Export Plug-In . SVG Version: 6.00 Build 0)  -->
<svg version="1.1" baseProfile="tiny" id="Layer_1" xmlns="http://www.w3.org/2000/svg" xmlns:xlink="http://www.w3.org/1999/xlink"
	 x="0px" y="0px" viewBox="0 0 128 128" 
width="128" height="128"
xml:space="preserve">
<g>
	<path fill="#71858E" d="M35,38.9L35,38.9c0.7-0.1,1.4-0.2,2.2-0.3C36.4,38.7,35.7,38.8,35,38.9z M63.9,31.7l-0.4,0.2l-0.4-0.2
		l0.4,0.2L63.9,31.7c1.1-0.5,2.3-1,3.5-1.5C66.2,30.7,65,31.2,63.9,31.7z M125.8,36.7c-0.4-1.7-1.3-3.4-2.4-5.4
		c-1.1-1.9-2.3-4.1-3.3-6.7c-2.1-5.6-5-8.9-8.6-9.9c-5-1.4-10.5,2.1-13.2,4.3c-1.7,1.4-3.6,2.3-5.7,2.9c-4.1,1.1-13.1,3.6-21.5,6.8
		c-2.8,1.5-5.4,3.6-6.7,5.2c-15.3-7.9-19.5,2.9-21.8,5.2c-2.3,0.6-4.4,3.7-5.2,4.9v0c0,0.3-0.2,0.6-0.5,0.8c-0.4,0.2-1,0.1-1.3-0.3
		c-3.3,0.2-5.6,1.7-6.9,2.8c-0.3,0.3-0.8,0.2-1-0.1c-8.1-12-5.3-19.4-2.7-20.4c1.3-0.5,2.5,0.1,3.6,1c-1.8-2.8-3.5-3.8-4.8-4
		c-2.6-0.4-4.8,1.8-5.4,2.6c-4.2,6.3,0.8,17,2.6,21c0.8,1.7,1,2.1,0.8,2.6c-0.1,0.4-0.5,0.6-0.9,0.6c-0.1,0-0.2,0-0.4-0.1
		c-0.4-0.1-0.6-0.5-0.6-0.9c-0.1-0.2-0.4-0.8-0.6-1.4c-0.3-0.6-0.6-1.4-1-2.2C9.5,51.7,4.6,59,2.5,62.9c-0.7,1.3-0.6,2.9,0.1,4.1
		c2.8,4.5,9,15.9,6,25.6c-1.9,5.9-1.4,12.2-0.4,17.5c2.7,0.6,15.6,3.5,30,3.9c0.9,0,1.8-0.1,2.6-0.2c4.2-1,13.4-2.2,19-8
		c0.2,0.4,0.4,0.8,0.6,1.2c-0.6-1.1-1-2.3-1.2-3.7c-0.1-0.5,0.3-1,0.9-1.1c0.5-0.1,1,0.3,1.1,0.9c0.4,4.2,4.6,6.9,5.3,7.3
		c0,0,0.1,0,0.1,0c0,0,0,0,0,0c0.1,0,0.2,0.1,0.3,0.2c0.3,0.2,0.7,0.5,1.2,0.9c0,0,0,0,0,0c4.1,2.4,10,4.3,18.2,4.6
		c15,0.5,22.5-4.9,26.2-11.7c-15.6-3-26.3-9.7-31.8-19.7c-7.8-14.1-3.1-30.3-1.4-35h-0.1c-22.8,1.7-17.3,16.8-14.6,22
		c0.1,0.3-0.1,0.6-0.4,0.5c-2.6-0.4-4.2,1-4.7,1.5c0,0,0,0,0,0c-0.1,0.2-0.3,0.4-0.5,0.5c-0.1,0-0.3,0.1-0.4,0.1
		c-0.4,0-0.7-0.2-0.9-0.6c-3-6.9-3.2-12.7-0.4-17.1c4.8-7.6,16.9-8.8,21.8-8.9c4.6-0.1,9,0.9,12.9,2.9c7.4,4,14.9,5.1,22.1,3.3
		C121.4,52.2,127.2,43.6,125.8,36.7z M53.2,42.2c-2.2,0-3.9-1.8-3.9-3.9c0-2.2,1.8-3.9,3.9-3.9c2.2,0,3.9,1.8,3.9,3.9
		C57.1,40.5,55.4,42.2,53.2,42.2z M114.2,29.5c-0.6,0.6-1.4,1-2.4,1c-1.5,0-3.3-0.8-4.8-2.2c-1.1-1-2-2.3-2.4-3.5
		c-0.5-1.4-0.3-2.7,0.5-3.5c0.6-0.6,1.4-0.9,2.4-0.9c1.5,0,3.3,0.8,4.8,2.2C114.9,24.7,115.7,27.8,114.2,29.5z M63.9,111
		c-0.4,0.2-0.8,0.4-1.4,0.6C63.1,111.4,63.5,111.2,63.9,111c-1.1-0.9-2.5-2.3-3.5-4C61.4,108.8,62.8,110.1,63.9,111z"/>
	<path fill="#475C63" d="M107.5,22.2c-0.3,0-0.7,0.1-0.9,0.3c-0.3,0.3-0.3,0.9-0.1,1.6c0.3,0.9,1,1.9,1.8,2.7c1.1,1,2.5,1.6,3.5,1.6
		c0.3,0,0.7-0.1,0.9-0.3c0.6-0.7,0-2.6-1.8-4.2C109.9,22.9,108.5,22.2,107.5,22.2z"/>
	<path fill="#EDEBED" d="M107.7,101.4c-1.2-0.3-2.4-0.7-3.6-1.1c1.9-3.8,2.3-7.6,2.2-10.4c0,0,0,0,0,0
		C107.3,94,107.6,99.4,107.7,101.4z"/>
	<path fill="#EDEBED" d="M117.5,54.9c-0.1,2.4-0.5,7-1.3,10.6c-0.3-4.7-1.2-8.1-1.6-9.5c0,0,0,0,0,0
		C115.6,55.7,116.6,55.4,117.5,54.9z"/>
	<ellipse fill="#2D2D2D" cx="53.2" cy="38.3" rx="3.9" ry="3.9"/>
	<path fill="#2D2D2D" d="M125.1,30.4c-1-1.8-2.2-3.9-3.2-6.5c-2.4-6.2-5.7-9.9-9.9-11.1c-5.9-1.6-11.9,2.2-15,4.7
		c-1.5,1.2-3.2,2-5,2.5c-6.6,1.8-19,5.3-28.6,9.7c-10.3-4.5-17.3-2.8-22.1,5.3c-0.5,0.8-1.3,1.3-2.2,1.4c-1.7,0.1-3.3,0.3-4.9,0.6
		c-0.1-0.3-0.2-0.5-0.2-0.8c-2.5-8.8-5.9-13.7-10-14.4c-3.7-0.6-6.5,2.3-7.4,3.4c-3.7,5.5-1.5,13.5,0.7,18.9C8.2,50.1,3,57.8,0.7,62
		c-1,1.9-1,4.2,0.2,6.1c2.7,4.2,8.6,15.1,5.8,24c-3.1,9.8-0.2,20.8,1.8,26.4c0.9,2.4,3.1,4,5.7,4c0.2,0,0.5,0,0.7,0
		c6.7-0.8,18.9-2,24.8-2c7.6,0,22.7-6.5,26.1-8c2.2,1.8,12.2,8.9,28,8.9c15.2,0,20.3-7,24-12.1c0.8-1.1,1-2.5,0.5-3.7
		c-0.5-1.3-1.6-2.1-3-2.4c-1.9-0.3-3.8-0.7-5.6-1.1c0-1.3-0.3-8.1-1.6-13c-0.2-0.8-0.9-1.3-1.7-1.3c-0.8,0-1.5,0.4-1.8,1.2
		c-1.5,3.9-5,9.6-5,9.7c0,0.1-0.1,0.1-0.1,0.2c-7.9-3.4-13.6-8.3-17.1-14.7c-7.7-13.9-2.3-30.6-1-34c3.4,0.2,6.7,1.1,9.6,2.7
		c6.2,3.3,12.3,4.7,18.4,4.3c0,0.1,0,0.2,0.1,0.3c0,0.1,3.5,5.8,5,9.7c0.3,0.7,0.9,1.2,1.7,1.2c0,0,0.1,0,0.1,0
		c0.8,0,1.5-0.6,1.7-1.3c1.2-4.7,1.5-11.1,1.6-12.8c5.8-3.8,9.5-11.1,8.2-17.4C127.3,34.4,126.3,32.5,125.1,30.4z M106.3,89.9
		c1,4.1,1.3,9.5,1.4,11.5c-2.2-0.6-4.3-1.3-6.3-2.1C101.8,98.7,104.8,93.7,106.3,89.9z M116.2,65.5c-1.3-3.3-3.8-7.5-4.6-9
		c1-0.1,2-0.3,3-0.6c1-0.3,2-0.6,3-1.1C117.4,57.3,117.1,61.9,116.2,65.5z M114.1,54.1c-7.2,1.8-14.6,0.7-22.1-3.3
		c-3.8-2.1-8.3-3.1-12.9-2.9c-5,0.1-17,1.3-21.8,8.9c-2.8,4.4-2.7,10.1,0.4,17.1c0.2,0.4,0.5,0.6,0.9,0.6c0.1,0,0.3,0,0.4-0.1
		c0.5-0.2,0.7-0.8,0.5-1.3c-2.8-6.3-2.9-11.4-0.5-15.2c4.3-6.8,15.6-7.9,20.2-8c0.1,0,0.1,0,0.2,0c-1.7,4.7-6.4,21,1.4,35
		c5.8,10.5,17.4,17.3,34.2,20.1c0.7,0.1,1.2,0.5,1.5,1.2c0.3,0.6,0.2,1.3-0.2,1.8c-3.7,5-8.2,11.3-22.4,11.3
		c-15.5,0-25.1-7.2-26.9-8.6c-0.1-0.1-0.2-0.1-0.3-0.2l0,0c0,0,0,0,0,0c0,0-0.1,0-0.1-0.1c-0.7-0.4-4.9-3.1-5.3-7.3
		c-0.1-0.5-0.5-0.9-1.1-0.9c-0.5,0.1-0.9,0.5-0.9,1.1c0.4,3.6,2.9,6.3,4.7,7.7c-4.4,1.9-17.7,7.4-24.3,7.4c-6.1,0-18.3,1.3-25.1,2
		c-1.9,0.2-3.7-0.9-4.3-2.7c-1.9-5.4-4.7-15.8-1.8-25.1c3-9.7-3.2-21.1-6-25.6c-0.8-1.2-0.8-2.8-0.1-4.1C4.6,59,9.5,51.7,18.1,46
		c0.4,0.9,0.7,1.6,1,2.2c0.3,0.6,0.6,1.2,0.6,1.4c0,0.4,0.3,0.7,0.6,0.9c0.1,0,0.2,0.1,0.4,0.1c0.4,0,0.8-0.2,0.9-0.6
		c0.2-0.5,0-0.9-0.8-2.6c-1.9-4-6.9-14.7-2.6-21c0.6-0.8,2.8-3,5.4-2.6c2.3,0.4,5.6,2.9,8.5,13c0.9,3.1,3.3,7.4,3.4,7.6
		c0.3,0.5,0.9,0.6,1.3,0.4c0.5-0.3,0.6-0.9,0.4-1.3c0,0-1.2-2.2-2.2-4.5c1.4-0.2,2.9-0.4,4.3-0.5c1.6-0.1,3-1,3.8-2.4
		c3.1-5.2,7.8-9.8,20-4.4l0.4,0.2l0.4-0.2c9.9-4.6,23.4-8.4,28.7-9.8c2.1-0.6,4-1.5,5.7-2.9c2.8-2.2,8.2-5.7,13.2-4.3
		c3.6,1,6.5,4.3,8.6,9.9c1,2.7,2.2,4.8,3.3,6.7c1.1,2,2.1,3.7,2.4,5.4C127.2,43.6,121.4,52.2,114.1,54.1z"/>
	<path fill="#2D2D2D" d="M107.5,20.3c-1,0-1.8,0.3-2.4,1c-0.8,0.9-1,2.1-0.5,3.5c0.4,1.2,1.2,2.5,2.4,3.5c1.5,1.4,3.3,2.2,4.8,2.2
		c1,0,1.8-0.3,2.4-1c1.5-1.6,0.7-4.7-1.9-7C110.8,21.1,109,20.3,107.5,20.3z M112.7,28.1c-0.2,0.3-0.6,0.3-0.9,0.3
		c-1,0-2.4-0.6-3.5-1.6c-0.9-0.8-1.5-1.8-1.8-2.7c-0.2-0.7-0.2-1.3,0.1-1.6c0.2-0.3,0.6-0.3,0.9-0.3c1,0,2.4,0.6,3.5,1.6
		C112.7,25.5,113.4,27.5,112.7,28.1z"/>
	<path fill="#475C63" d="M64.6,71.8c0.1,0.3-0.1,0.6-0.4,0.5c-2.6-0.4-4.2,1-4.7,1.5c0.1-0.2,0.1-0.4,0.1-0.6c0-0.1,0-0.1-0.1-0.2
		c-2.8-6.3-2.9-11.4-0.5-15.2c0.5-0.8,1.2-1.6,1.9-2.3c1.1-1,2.4-1.9,3.7-2.6c0.9-0.5,1.9-0.9,2.8-1.2c4.4-1.5,9.1-1.9,11.7-2h0.1
		C56.4,51.5,62,66.7,64.6,71.8z"/>
	<path fill="#475C63" d="M59.5,73.3c0,0.2,0,0.4-0.1,0.6c0,0,0,0,0,0c0,0,0,0-0.1,0.1C59.5,73.8,59.6,73.5,59.5,73.3z"/>
	<path fill="#475C63" d="M60.9,55.6c1.1-1,2.4-1.9,3.7-2.6C63.2,53.7,62,54.5,60.9,55.6z"/>
	<path fill="#475C63" d="M64.6,53c0.9-0.5,1.9-0.9,2.8-1.2C66.5,52.1,65.5,52.5,64.6,53z"/>
	<path fill="#475C63" d="M79.3,49.8c0,0-0.1,0-0.1,0h-0.1c-2.6,0.1-7.3,0.4-11.7,2c4.4-1.5,9.1-1.9,11.7-2H79.3z"/>
	<path fill="#475C63" d="M63.9,111c-0.4,0.2-0.8,0.4-1.4,0.6c-0.6,0.2-1.2,0.5-1.9,0.8c-5.8,2.4-15.6,6-20.9,6c-6,0-18.3,1.3-25,2
		c-1.9,0.2-3.7-0.9-4.3-2.7c-0.7-2-1.5-4.6-2.1-7.7c2.7,0.6,15.6,3.5,30,3.9c0.9,0,1.8-0.1,2.6-0.2c4.2-1,13.4-2.2,19-8
		c0.2,0.4,0.4,0.8,0.6,1.2C61.4,108.8,62.8,110.1,63.9,111z"/>
	<path fill="#475C63" d="M116.2,108c-3.6,5-8.2,11.3-22.4,11.3c-13.3,0-22.2-5.2-25.6-7.7c4.1,2.4,10,4.3,18.2,4.6
		c15,0.5,22.5-4.9,26.2-11.7c0.8,0.2,1.6,0.3,2.4,0.4c0.7,0.1,1.2,0.5,1.5,1.2C116.7,106.8,116.6,107.5,116.2,108z"/>
	<path fill="#475C63" d="M71.1,28.7c-2.8,1.5-5.4,3.6-6.7,5.2c-15.3-7.9-19.5,2.9-21.8,5.2c-2.3,0.6-4.4,3.7-5.2,4.9
		c0-0.2,0-0.4-0.1-0.5c0,0,0,0,0,0c0,0,0,0,0,0c0,0-0.1-0.1-0.1-0.2v0c-0.1-0.1-0.2-0.3-0.3-0.6c-0.1-0.2-0.2-0.4-0.3-0.6
		c-0.1-0.2-0.2-0.4-0.3-0.7c-0.2-0.4-0.4-0.7-0.6-1.2c-0.1-0.3-0.3-0.5-0.4-0.8c-0.1-0.1-0.1-0.3-0.2-0.4c0.7-0.1,1.4-0.2,2.2-0.3
		c0.7-0.1,1.4-0.1,2.2-0.2c0.2,0,0.4,0,0.6-0.1c0.2,0,0.3-0.1,0.5-0.1c0.1,0,0.3-0.1,0.4-0.1c0.1,0,0.2-0.1,0.3-0.1
		c0.3-0.1,0.5-0.3,0.8-0.5c0.1-0.1,0.2-0.2,0.3-0.3c0.1,0,0.1-0.1,0.2-0.2c0.3-0.3,0.5-0.6,0.7-0.9c0.2-0.3,0.4-0.7,0.6-1
		c0.2-0.3,0.4-0.6,0.6-1c0.2-0.3,0.4-0.6,0.7-0.8c0,0,0.1-0.1,0.1-0.1c0.2-0.3,0.5-0.5,0.7-0.8c0.5-0.5,1-1,1.6-1.3
		c0.1-0.1,0.2-0.1,0.3-0.2c0,0,0.1,0,0.1-0.1c0.1-0.1,0.3-0.2,0.4-0.3c0.3-0.2,0.6-0.3,0.9-0.4c0.2-0.1,0.4-0.1,0.6-0.2
		c0,0,0.1,0,0.1,0c0.3-0.1,0.5-0.2,0.8-0.2c0.3-0.1,0.5-0.1,0.8-0.2c0,0,0,0,0.1,0c0.3,0,0.6-0.1,0.9-0.1h0c0.3,0,0.6,0,1,0
		c2.6,0,5.7,0.7,9.6,2.5h0l0.4,0.2l0.4-0.2c1.1-0.5,2.3-1,3.5-1.5C68.6,29.7,69.8,29.2,71.1,28.7z"/>
	<path fill="#475C63" d="M37.1,43.2c-0.1-0.1-0.2-0.3-0.3-0.6C36.9,42.9,37,43.1,37.1,43.2z"/>
	<path fill="#475C63" d="M37.2,43.4c0,0-0.1-0.1-0.1-0.2C37.2,43.3,37.2,43.4,37.2,43.4z"/>
	<path fill="#475C63" d="M37.2,43.4c0.1,0.2,0.1,0.3,0.1,0.5v0c0,0,0,0,0,0C37.4,43.8,37.3,43.6,37.2,43.4
		C37.2,43.5,37.2,43.4,37.2,43.4C37.2,43.4,37.2,43.4,37.2,43.4z"/>
	<path fill="#475C63" d="M43.1,36.1c0.2-0.3,0.4-0.7,0.6-1C43.5,35.4,43.3,35.7,43.1,36.1c-0.2,0.3-0.4,0.7-0.7,0.9
		C42.7,36.7,42.9,36.4,43.1,36.1z"/>
	<path fill="#475C63" d="M35.6,44.5c-3.3,0.2-5.6,1.7-6.9,2.8c-0.3,0.3-0.8,0.2-1-0.1c-8.1-12-5.3-19.4-2.7-20.4
		c1.3-0.5,2.5,0.1,3.6,1c0.7,1.1,1.3,2.4,2,4.1c0.6,1.4,1.1,3,1.6,4.9c0.6,2.2,2,5.1,2.8,6.6c0.1,0.1,0.1,0.2,0.2,0.3
		c0.1,0.1,0.1,0.2,0.2,0.3c0.1,0.1,0.1,0.2,0.2,0.3v0C35.5,44.4,35.5,44.4,35.6,44.5C35.5,44.4,35.6,44.5,35.6,44.5z"/>
	<path fill="#475C63" d="M28.5,27.9c0.7,1.1,1.3,2.4,2,4C29.9,30.3,29.2,28.9,28.5,27.9L28.5,27.9z"/>
	<path fill="#475C63" d="M35.5,44.3c0-0.1-0.1-0.2-0.2-0.3C35.4,44.2,35.5,44.3,35.5,44.3z"/>
	<path fill="#475C63" d="M35.6,44.5L35.6,44.5C35.6,44.5,35.5,44.4,35.6,44.5c-0.1-0.1-0.1-0.1-0.1-0.2c0,0,0,0.1,0,0.1
		C35.6,44.4,35.6,44.5,35.6,44.5z"/>
	<path fill="#DBD9DC" d="M116.2,65.5c-1.3-3.3-3.8-7.5-4.6-8.9c1-0.1,2-0.3,3-0.6C115,57.5,115.9,60.9,116.2,65.5z"/>
	<path fill="#DBD9DC" d="M106.3,89.9c0.1,2.8-0.3,6.6-2.2,10.4c-0.9-0.3-1.9-0.6-2.7-1C101.8,98.6,104.7,93.8,106.3,89.9z"/>
</g>
</svg>
