<?xml version="1.0" encoding="utf-8"?>
<!-- Generator: Adobe Illustrator 18.1.0, SVG Export Plug-In . SVG Version: 6.00 Build 0)  -->
<svg version="1.1" baseProfile="tiny" id="Layer_1" xmlns="http://www.w3.org/2000/svg" xmlns:xlink="http://www.w3.org/1999/xlink"
	 x="0px" y="0px" viewBox="0 0 184 128" 
width="184" height="128"
xml:space="preserve">
<g>
	<g>
		<path fill="#71858E" d="M181.6,70.6c-0.1-0.5-0.4-1-0.6-1.5c-0.1-0.2-0.2-0.3-0.3-0.5c-0.4-0.6-0.8-1.2-1.3-1.7
			c-0.2-0.2-0.3-0.3-0.5-0.5c-0.2-0.2-0.4-0.3-0.6-0.5c-0.1-0.1-0.3-0.2-0.4-0.3c-0.2-0.1-0.4-0.3-0.6-0.4c-3.9-2.2-5.5-4.1-7.2-6.4
			c-0.6-0.8-1.1-1.9-1.2-2.9c-0.6-3.8-1.8-8.4-3.3-10.2c-2-2.5-4.8-7.4-5.4-8.5c0,0,0,0,0,0c-0.9-1.2-1.9-2.4-2.8-3
			c-0.3-0.2-0.3-0.5-0.2-0.8c1.6-2.7,3.1-4.7,4.4-5.8c0,0,0-0.1,0-0.1c-0.2-0.4-0.7-0.6-1.4-0.7c-1.3-0.2-2.1,1-3.3,2.9
			c-0.6,1-1.1,1.9-1.9,2.6c-1.1,1-2.7,1.2-3.9,0.5c-4-2.1-12.6-3.1-16-3.4c-1.9-0.2-3.8-0.7-5.6-1.5c-4.2-2-14.7-6.8-20.4-8.4
			c-4.9-1.4-14.3-0.4-21.8,0.4c-3.8,0.4-7.1,0.8-9.5,0.8c-3.5,0-7.3-0.8-11.3-1.7c-4.6-1-9.4-2.1-14.1-1.9
			c-6.4,0.2-22.7,2.2-37,16.7c-12.6,12.8-5.9,29-5.9,29.2l0,0.1c0.2,0.6,4.1,15.5,4.9,20.7c0.6,4.1-0.3,20.8-1.8,27.7
			c-0.1,0.4,0,0.9,0.3,1.2c0.3,0.3,0.7,0.5,1.1,0.5h17.8c0.1-3.9-2.5-12.4-3.9-16.1c-0.3-0.8-0.1-1.7,0.3-2.5
			c1.6-3,4.9-9.6,6.8-12.8c0.1-0.1,0.1-0.2,0.2-0.3c0.1-0.1,0.1-0.2,0.2-0.3c0.1-0.1,0.2-0.2,0.3-0.4c0.2-0.2,0.4-0.5,0.6-0.7
			c0.1-0.1,0.2-0.2,0.3-0.3c1.5-1.2,4.8-3.9,7.8-7.6c0.3-0.4,0.6-0.8,0.9-1.3c0.2-0.2,0.3-0.4,0.5-0.6c0.1-0.2,0.3-0.4,0.4-0.7
			c0.6-0.9,1.1-1.8,1.6-2.8c0.1-0.3,0.2-0.5,0.4-0.8c0.1-0.2,0.1-0.3,0.2-0.5c0.1-0.2,0.1-0.3,0.2-0.5c0.1-0.2,0.2-0.4,0.2-0.6
			c0.1-0.2,0.2-0.4,0.2-0.7c0.1-0.2,0.2-0.5,0.2-0.7c0.1-0.2,0.1-0.4,0.2-0.6c0-0.1,0.1-0.3,0.1-0.4c0.1-0.5,0.2-1,0.3-1.5
			c0-0.1,0-0.2,0-0.3c0-0.3,0.1-0.5,0.1-0.8c0-0.2,0-0.5,0.1-0.7c0-0.2,0-0.4,0-0.6c0-0.5,0.5-1,1-0.9c0.5,0,1,0.5,1,1
			c0,0.1,0,0.1,0,0.2c0,0.1,0,0.3,0,0.5c0,0,0,0,0,0c0,0.2,0,0.3,0,0.4c0,0,0,0.1,0,0.1c-0.3,4.1-1.7,16.4-7.7,23.9
			c0.8,0.3,1.7,0.6,2.6,0.9c0.3,0.1,0.5,0.2,0.8,0.2c1.4,0.4,3,0.8,4.7,1.1c0.4,0.1,0.7,0.1,1.1,0.2c0.4,0.1,0.7,0.1,1.1,0.2
			c0.7,0.1,1.4,0.2,2.1,0.2c0.5,0.1,1.1,0.1,1.7,0.1c0.8,0,1.6,0,2.4,0c0.9,0,1.8,0,2.6-0.1c0.2,0,0.5,0,0.7,0c0.3,0,0.5,0,0.8-0.1
			c0.4,0,0.7-0.1,1-0.1c0.3,0,0.5,0,0.8-0.1c0.7-0.1,1.4-0.2,2.1-0.3c0.3-0.1,0.6-0.1,0.8-0.2c0.3,0,0.5-0.1,0.8-0.1
			c0.3-0.1,0.6-0.1,0.9-0.2c0.4-0.1,0.7-0.2,1.1-0.3c0.6-0.1,1.3-0.3,1.8-0.5c0.3-0.1,0.6-0.2,0.9-0.3c0.8-0.3,1.6-0.5,2.3-0.8
			c0.2-0.1,0.4-0.1,0.6-0.2c-4.3-8-4-20.3-3.7-24.7c0-0.1,0-0.1,0-0.2v0c0-0.3,0-0.6,0.1-0.9c0-0.2,0-0.4,0.1-0.5
			c0.1-0.5,0.6-0.9,1.1-0.8c0.1,0,0.2,0,0.3,0.1c0.1,0,0.1,0,0.1,0.1c0.1,0,0.1,0.1,0.2,0.1c0,0,0.1,0.1,0.1,0.2
			c0,0,0.1,0.1,0.1,0.1c0,0,0,0.1,0,0.1c0,0,0,0.1,0,0.1c0,0.1,0,0.1,0,0.2c0,0,0,0.1,0,0.1c-0.1,0.9-0.1,1.8-0.1,2.7
			c0,0.2,0,0.5,0.1,0.7v0c0,0.1,0,0.3,0,0.4c0,0.2,0.1,0.5,0.1,0.7c0,0.2,0.1,0.4,0.1,0.7c0,0.2,0.1,0.3,0.1,0.5
			c0.1,0.3,0.1,0.5,0.2,0.8c0.3,1.3,0.7,2.5,1.2,3.8c0.2,0.5,0.4,1,0.6,1.5c0.2,0.5,0.4,1,0.7,1.4c0.2,0.5,0.5,0.9,0.7,1.4
			c0.1,0.2,0.3,0.5,0.4,0.7c0.3,0.4,0.5,0.9,0.8,1.3c0.1,0.2,0.3,0.4,0.4,0.6c2.1,3.4,4.4,6.1,5.5,7.5c0.7,0.8,1.1,1.7,1.3,2.7
			c0.7,3.7,3.8,10.1,5.1,12.7c0.7,1.3,0.9,2.9,0.6,4.4l-1.6,9.7c-0.1,0.4,0.1,0.8,0.3,1.2c0.3,0.3,0.7,0.5,1.1,0.5h11.7
			c0.1-2.5,0.2-10.1-1.7-15.9c-0.5-1.5-0.4-3.2,0.3-4.6c1.9-4.3,4.7-10.5,4.8-16.6c0-1.2,1-2.1,2.2-2.1c8.6,0.2,21.1-5.9,20-12.2
			c3.5,7.8,5.6,11.7,20.2,10.6c0-0.4,0-0.7,0-1.1c0.1-0.5,0.5-0.9,1.1-0.9c0.5,0.1,0.9,0.5,0.9,1.1c0,0.5,0,0.9,0,1.4
			c0,0.1,0,0.2,0,0.3c0,0.2,0,0.3,0.1,0.5c1.3,2.3,6.8,10.8,12.9,10.5c7.2-0.4,13.7-2.5,15.4-13.1C181.7,70.8,181.7,70.7,181.6,70.6
			z M157.6,50.2c-1.3,0-2.4-1.1-2.4-2.4c0-1.3,1.1-2.4,2.4-2.4c1.3,0,2.4,1.1,2.4,2.4C160,49.1,158.9,50.2,157.6,50.2z M175.3,76.6
			c-0.5,0.5-1.2,0.8-2,0.8c-1.1,0-2.2-0.5-3.1-1.4c-0.7-0.7-1.2-1.6-1.4-2.5c-0.2-1,0.1-1.9,0.7-2.6c0.5-0.5,1.2-0.8,2-0.8
			c1.1,0,2.2,0.5,3.1,1.4c0.7,0.7,1.2,1.6,1.3,2.5C176.2,75.1,175.9,76,175.3,76.6z"/>
		<path fill="#475C63" d="M173.3,72.9c-0.5-0.5-1.2-0.8-1.7-0.8c-0.2,0-0.4,0-0.6,0.2c-0.3,0.3-0.2,0.7-0.2,0.9
			c0.1,0.5,0.4,1,0.8,1.4c0.5,0.5,1.2,0.8,1.7,0.8c0.2,0,0.4,0,0.6-0.2c0.3-0.3,0.2-0.7,0.2-0.9C174,73.9,173.7,73.3,173.3,72.9z"/>
		<path fill="#475C63" d="M52.4,87.7c-8.8-1.4-13.9-4.6-15.1-5.4c0,0.1,0.1,0.1,0.1,0.2c0.9,4.5,2.5,11.8,3.1,13.1
			c0.1,0.3,0.3,0.6,0.4,0.9c0.7,1.5,1.8,3.9,2.5,4.7c0.7,0.7,1,1.8,0.8,2.8l-0.6,3l0.1,0.1h14.6c0,0,0.1,0,0.1-0.1
			c0-0.1,0-0.1,0-0.1C55.6,102.9,51.3,94.6,52.4,87.7z"/>
		<path fill="#475C63" d="M85.6,83.3c-0.3-0.4-0.7-0.8-1.1-1.3c-0.1,0.1-0.1,0.1-0.2,0.2c-0.3,0.2-4.8,3.4-13.1,5.2
			c0,0.1,0,0.2,0,0.3c0,0-0.9,4-0.1,7.7c0.4,1.7,0.3,3.5-0.2,5.3c-0.6,2-1.4,4.5-2,6.3l0.1,0.1h17.2c0,0,0.1,0,0.1-0.1
			c-1.4-2.7-2.2-7.1-2.4-8.5c-0.5-4.2,3.9-8,4.1-8.1c0,0,0.1,0,0.1-0.1c-0.7-1.9-1.4-3.7-1.6-5.2C86.4,84.4,86.1,83.8,85.6,83.3z"/>
		<path fill="#475C63" d="M5.7,50.2C3.7,53,1,58.3,2.3,64c1-4.5,2.8-5.9,3.8-6.3C5.7,55.6,5.5,53,5.7,50.2z"/>
		<ellipse fill="#2D2D2D" cx="157.6" cy="47.8" rx="2.4" ry="2.4"/>
		<path fill="#2D2D2D" d="M181.8,70.9C181.7,70.9,181.7,70.9,181.8,70.9c0,0.1,0.1,0.3,0.1,0.4C181.8,71.2,181.8,71.1,181.8,70.9z
			 M178.3,63.5c-3.6-2-5-3.7-6.6-5.8c-0.4-0.6-0.7-1.3-0.9-2c-0.2-1.3-1.4-8.2-3.6-11.1c-1.7-2.1-4.2-6.3-5.4-8.4
			c-0.2-0.3-0.4-0.8-0.3-1.3c0.1-0.5,0.4-1.4,0.8-2.3c0.9-2,1.9-4.2,1-5.9c-0.5-0.9-1.4-1.5-2.8-1.8c-2.7-0.5-4.2,1.9-5.3,3.9
			c-0.5,0.9-1,1.7-1.5,2.2c-0.5,0.4-1.1,0.5-1.7,0.2c-4.1-2.2-12.3-3.2-16.8-3.7c-1.7-0.2-3.4-0.6-4.9-1.3
			c-5.3-2.5-15.1-6.9-20.7-8.5C104.3,16,95.1,17,87,17.9c-3.6,0.4-7,0.8-9.3,0.8c-3.2,0-6.9-0.8-10.9-1.6c-4.8-1.1-9.7-2.1-14.6-2
			c-6.6,0.2-23.6,2.3-38.3,17.2c-4.5,4.6-6.7,9.6-7.7,14.3c0,0-0.1,0-0.1,0.1C6,46.7-4.1,57.2,1.9,68.2L3.4,71l0.3-3.2
			c0.6-5.8,2.1-7.6,2.8-8.1c0.5,2.1,1,3.5,1.1,3.8c0.3,1,4.1,15.5,4.8,20.4c0.6,4-0.4,20.3-1.8,27c-0.2,1,0,2,0.7,2.8
			c0.7,0.8,1.6,1.3,2.7,1.3h19.9c1.2,0,2.2-0.6,2.9-1.6c0.6-1,0.7-2.2,0.2-3.2c-1.6-3.5-3.6-8.3-4.5-11c-0.9-3,1.7-10,3.3-14.5
			c0.7,3.4,2.1,10.1,2.9,11.7c0.1,0.3,0.3,0.5,0.4,0.9c1,2.2,2,4.3,2.9,5.2c0.3,0.3,0.4,0.7,0.3,1l-0.6,3c-0.1,0.6,0,1.2,0.4,1.7
			c0.4,0.5,1,0.8,1.6,0.8h14.6c0.8,0,1.5-0.4,1.8-1.1c0.4-0.7,0.3-1.5-0.1-2.1c-2.5-3.5-6.7-11.5-5.6-17.8c2,0.2,4.1,0.4,6.4,0.4
			c3.2,0,6-0.3,8.6-0.7c-0.2,1.3-0.8,4.8,0,8.1c0.3,1.3,0.3,2.8-0.2,4.3c-0.6,2-1.4,4.5-2,6.2c-0.2,0.6-0.1,1.3,0.3,1.8
			c0.4,0.5,1,0.9,1.7,0.9h17.2c0.7,0,1.4-0.4,1.8-1c0.4-0.6,0.4-1.4,0-2c-1.1-1.9-1.9-5.7-2.2-7.7c-0.3-2.5,2.1-5.2,3-6.1
			c1,2.3,2,4.5,2.8,6.1c0.5,1,0.7,2.1,0.5,3.2l-1.6,9.7c-0.2,1,0.1,2,0.8,2.7C92,114.6,93,115,94,115h17.1c1.2,0,2.3-0.6,2.9-1.7
			c0.6-1.1,0.6-2.3,0-3.4c-1.5-2.6-3.5-6.2-4.5-8.9c-0.3-0.9-0.4-1.9-0.2-2.8c1.3-5.9,3.1-14.3,3.3-18.2c0-0.1,0.1-0.2,0.2-0.2
			c5.9-0.2,13.4-4.4,17.3-6.8c1.3-0.8,2.9-0.7,4.1,0.1c1.6,1.1,4.1,2.7,7.4,4.2c3.4,1.6,6.3,1.5,8.4,1.5c1.7,0,2.7,0,3.3,0.6
			c1.3,3.2,3.3,5.7,6.1,7.5c4.5,2.8,10.3,2.9,15,0.1c0.6-0.4,1.2-0.7,1.9-1.1c4.8-2.6,7.7-7.4,7.7-12.7v-0.1
			C183.9,69.1,181.8,65.4,178.3,63.5z M2.3,64C1,58.3,3.7,53,5.7,50.2c-0.2,2.8,0,5.4,0.4,7.5C5.1,58.1,3.3,59.4,2.3,64z
			 M58.4,106.9C58.4,106.9,58.4,106.9,58.4,106.9c0,0.2-0.1,0.2-0.1,0.2H43.7l-0.1-0.1l0.6-3c0.2-1-0.1-2-0.8-2.8
			c-0.8-0.8-1.9-3.2-2.5-4.7c-0.2-0.3-0.3-0.7-0.4-0.9c-0.6-1.3-2.2-8.6-3.1-13.1c0-0.1-0.1-0.1-0.1-0.2c1.2,0.8,6.3,4,15.1,5.4
			C51.3,94.6,55.6,102.9,58.4,106.9z M88,90.3c-0.2,0.2-4.6,3.9-4.1,8.1c0.2,1.5,1,5.9,2.4,8.5c0,0.1-0.1,0.1-0.1,0.1H69.1l-0.1-0.1
			c0.6-1.7,1.4-4.2,2-6.3c0.5-1.8,0.6-3.6,0.2-5.3c-0.8-3.7,0.1-7.7,0.1-7.7c0-0.1,0-0.2,0-0.3c8.3-1.7,12.8-5,13.1-5.2
			c0.1-0.1,0.1-0.1,0.2-0.2c0.4,0.5,0.8,1,1.1,1.3c0.5,0.5,0.8,1.1,0.9,1.7c0.3,1.5,0.9,3.3,1.6,5.2C88.1,90.3,88.1,90.3,88,90.3z
			 M182,73.3c0,4.5-2.5,8.7-6.6,11c-0.7,0.4-1.3,0.7-1.9,1.1c-4.1,2.4-9.1,2.4-13-0.1c-2.4-1.5-4.3-3.8-5.3-6.7l0,0c0,0,0,0,0,0
			c0,0,0,0,0,0c0,0,0,0,0-0.1c-0.1-0.2-0.3-0.5-0.4-1c0-0.1-0.1-0.1-0.1-0.2c-0.1-0.3-0.3-0.7-0.4-1.1c-0.1-0.2-0.1-0.3-0.2-0.5
			c-0.1-0.2-0.1-0.5-0.2-0.7c0-0.1-0.1-0.3-0.1-0.4c0-0.2-0.1-0.4-0.1-0.6c0-0.1,0-0.3-0.1-0.4c0-0.2-0.1-0.3-0.1-0.5
			c0-0.1,0-0.2,0-0.3c0-0.5-0.1-1,0-1.4c0.1-0.5-0.3-1-0.9-1.1c-0.5,0-1,0.3-1.1,0.9c0,0.4,0,0.7,0,1.1c0,0.2,0,0.4,0,0.6
			c0,0.3,0.1,0.7,0.1,1.1c0,0.2,0.1,0.4,0.1,0.6c0.2,0.9,0.4,1.7,0.7,2.4c-0.7-0.1-1.5-0.1-2.3-0.1c-2,0-4.6,0.1-7.6-1.3
			c-3.1-1.4-5.5-3-7-4c-1.9-1.3-4.3-1.4-6.3-0.2c-3.8,2.4-10.9,6.4-16.4,6.6c-1.1,0-2,0.9-2.1,2c-0.3,4.2-2.5,14.1-3.3,17.9
			c-0.3,1.3-0.2,2.6,0.3,3.9c1,2.8,3.1,6.5,4.6,9.2c0.3,0.5,0.3,1,0,1.4c-0.3,0.5-0.7,0.7-1.3,0.7H94c-0.4,0-0.8-0.2-1.1-0.5
			c-0.3-0.3-0.4-0.8-0.3-1.2l1.6-9.7c0.3-1.5,0.1-3-0.6-4.4c-1.3-2.6-4.4-9-5.1-12.7c-0.2-1-0.6-1.9-1.3-2.7
			c-1.2-1.4-3.4-4.1-5.5-7.5c-0.1-0.2-0.3-0.4-0.4-0.6c-0.3-0.4-0.5-0.9-0.8-1.3c-0.1-0.2-0.3-0.5-0.4-0.7c-0.3-0.5-0.5-0.9-0.7-1.4
			c-0.2-0.5-0.5-1-0.7-1.4s-0.4-1-0.6-1.5c-0.5-1.2-0.9-2.5-1.2-3.8c-0.1-0.3-0.1-0.5-0.2-0.8c0-0.2-0.1-0.3-0.1-0.5
			c0-0.2-0.1-0.4-0.1-0.7c0-0.2-0.1-0.5-0.1-0.7c0-0.2,0-0.3,0-0.4v0c0-0.3,0-0.5-0.1-0.7c0-0.9,0-1.8,0.1-2.7c0,0,0-0.1,0-0.1
			c0-0.1,0-0.1,0-0.2c0,0,0-0.1,0-0.1c0,0,0-0.1,0-0.1c0,0,0-0.1-0.1-0.1c0-0.1-0.1-0.1-0.1-0.2c-0.1,0-0.1-0.1-0.2-0.1
			c0,0-0.1-0.1-0.1-0.1c-0.1,0-0.2-0.1-0.3-0.1c-0.5-0.1-1,0.3-1.1,0.8c0,0.2-0.1,0.4-0.1,0.5c0,0.3,0,0.6-0.1,0.9v0
			c0,0.1,0,0.1,0,0.2c-0.3,8.2,5.4,17,9.2,21.9c-0.1,0-0.1,0-0.2,0.1c0,0-0.1,0.1-0.2,0.2c-0.1,0.1-0.2,0.1-0.3,0.2
			c-0.4,0.3-1,0.6-1.8,1c-0.1,0.1-0.3,0.2-0.5,0.2c-0.3,0.2-0.7,0.3-1.1,0.5c-0.2,0.1-0.4,0.2-0.6,0.3c-0.3,0.1-0.5,0.2-0.8,0.3
			c-0.2,0.1-0.4,0.1-0.6,0.2c-0.7,0.3-1.5,0.6-2.3,0.8c-0.3,0.1-0.6,0.2-0.9,0.3c-0.6,0.2-1.2,0.3-1.8,0.5c-0.3,0.1-0.7,0.2-1.1,0.3
			c-0.3,0.1-0.6,0.1-0.9,0.2c-0.3,0.1-0.5,0.1-0.8,0.1c-0.3,0.1-0.6,0.1-0.8,0.2c-0.7,0.1-1.4,0.2-2.1,0.3c-0.3,0-0.5,0.1-0.8,0.1
			c-0.3,0-0.7,0.1-1,0.1c-0.3,0-0.5,0-0.8,0.1c-0.2,0-0.4,0-0.7,0c-0.8,0-1.7,0.1-2.6,0.1c-0.8,0-1.6,0-2.4,0
			c-0.6,0-1.2-0.1-1.7-0.1c-0.7-0.1-1.4-0.1-2.1-0.2c-0.4,0-0.8-0.1-1.1-0.2c-0.4,0-0.7-0.1-1.1-0.2c-1.7-0.3-3.3-0.7-4.7-1.1
			c-0.3-0.1-0.5-0.1-0.8-0.2c-0.9-0.3-1.8-0.6-2.6-0.9c-0.4-0.2-0.8-0.3-1.1-0.4c-0.5-0.2-1-0.4-1.4-0.6c-0.7-0.3-1.2-0.6-1.7-0.9
			c-0.1-0.1-0.2-0.1-0.3-0.2c-0.5-0.3-0.9-0.5-1.2-0.7c0.5-0.4,1.1-0.9,1.7-1.4c0.2-0.1,0.3-0.3,0.5-0.4c1.1-1,2.5-2.3,3.8-3.8
			c0.2-0.2,0.4-0.4,0.5-0.6c0.3-0.3,0.5-0.6,0.8-0.9c0.3-0.4,0.6-0.8,0.9-1.2c0.2-0.2,0.4-0.5,0.5-0.7c0.4-0.5,0.7-1,1-1.5
			c0.2-0.3,0.3-0.5,0.5-0.8c0.1-0.2,0.3-0.4,0.4-0.7c0.8-1.4,1.5-3,2-4.6c0.1-0.3,0.2-0.6,0.3-0.9c0.2-0.6,0.3-1.1,0.4-1.7
			c0-0.2,0.1-0.4,0.1-0.6c0-0.1,0.1-0.3,0.1-0.4l0.1-0.5c0-0.1,0-0.2,0-0.3c0,0,0-0.1,0-0.1c0-0.1,0-0.3,0-0.4c0,0,0,0,0,0
			c0-0.2,0-0.4,0-0.5c0-0.1,0-0.1,0-0.2c0-0.5-0.4-1-1-1c-0.5,0-1,0.4-1,0.9c0,0.2,0,0.4,0,0.6c0,0.3,0,0.5-0.1,0.7
			c0,0.3-0.1,0.5-0.1,0.8c0,0.1,0,0.2,0,0.3c-0.1,0.5-0.2,1-0.3,1.5c0,0.1-0.1,0.3-0.1,0.4c-0.1,0.2-0.1,0.4-0.2,0.6
			c-0.1,0.2-0.1,0.5-0.2,0.7c-0.1,0.2-0.1,0.4-0.2,0.7c-0.1,0.2-0.1,0.4-0.2,0.6c-0.1,0.2-0.1,0.3-0.2,0.5c-0.1,0.2-0.1,0.3-0.2,0.5
			c-0.1,0.3-0.2,0.5-0.4,0.8c-0.5,1-1,1.9-1.6,2.8c-0.1,0.2-0.3,0.5-0.4,0.7c-0.2,0.2-0.3,0.4-0.5,0.6c-0.3,0.4-0.6,0.8-0.9,1.3
			c-2.9,3.7-6.2,6.4-7.8,7.6c-0.1,0.1-0.2,0.2-0.3,0.3c-0.2,0.2-0.4,0.4-0.6,0.7c-0.1,0.1-0.2,0.2-0.3,0.4c-0.1,0.1-0.1,0.2-0.2,0.3
			c-0.1,0.1-0.1,0.2-0.2,0.3c-0.1,0.2-0.2,0.5-0.3,0.8l-0.4,1.1c-1.9,5-4.7,12.5-3.6,16.3c0.8,2.8,2.9,7.7,4.5,11.2
			c0.2,0.5,0.2,1-0.1,1.4c-0.3,0.4-0.7,0.7-1.2,0.7H14c-0.4,0-0.9-0.2-1.1-0.5c-0.3-0.3-0.4-0.8-0.3-1.2c1.5-6.8,2.4-23.5,1.8-27.7
			C13.6,78.5,9.6,63.6,9.5,63l0-0.1c-0.1-0.2-6.8-16.4,5.9-29.2c14.3-14.4,30.6-16.5,37-16.7c4.7-0.1,9.5,0.9,14.1,1.9
			c4.1,0.9,7.9,1.8,11.3,1.7c2.4,0,5.7-0.4,9.5-0.8c7.5-0.8,16.9-1.9,21.8-0.4c5.7,1.7,16.1,6.5,20.4,8.4c1.8,0.8,3.6,1.3,5.6,1.5
			c3.5,0.3,12.1,1.3,16,3.4c1.3,0.7,2.8,0.5,3.9-0.5c0.7-0.7,1.3-1.6,1.9-2.6c1.2-2,2-3.2,3.3-2.9c0.8,0.1,1.2,0.4,1.4,0.7
			c0,0,0,0,0,0.1c0.4,0.9-0.4,2.8-1.1,4.2c-0.5,1.1-0.9,2.1-1,2.9c-0.1,0.8,0.1,1.7,0.6,2.5c0,0,0.1,0.1,0.1,0.1c0,0,0,0,0,0
			c0.6,1.1,3.4,6,5.4,8.5c1.5,1.9,2.7,6.5,3.3,10.2c0.2,1.1,0.6,2.1,1.2,2.9c1.7,2.3,3.3,4.2,7.2,6.4c0.2,0.1,0.4,0.2,0.6,0.4
			c0.1,0.1,0.3,0.2,0.4,0.3c0.2,0.2,0.4,0.3,0.6,0.5c0.2,0.2,0.3,0.3,0.5,0.5c0.5,0.5,0.9,1.1,1.3,1.7c0.1,0.2,0.2,0.3,0.3,0.5
			c0.3,0.5,0.5,1,0.6,1.5c0.1,0.1,0.1,0.2,0.1,0.4l0,0c0,0.1,0.1,0.3,0.1,0.4c0,0.2,0.1,0.4,0.1,0.6C182,72.4,182,72.8,182,73.3
			L182,73.3z"/>
		<path fill="#2D2D2D" d="M174.7,71.5c-0.9-0.9-2-1.4-3.1-1.4c-0.8,0-1.5,0.3-2,0.8c-0.6,0.6-0.9,1.6-0.7,2.6
			c0.1,0.9,0.6,1.8,1.3,2.5c0.9,0.9,2,1.4,3.1,1.4c0.8,0,1.5-0.3,2-0.8c0.6-0.6,0.9-1.6,0.7-2.6C175.9,73.1,175.4,72.3,174.7,71.5z
			 M173.9,75.2c-0.2,0.2-0.4,0.2-0.6,0.2c-0.6,0-1.2-0.3-1.7-0.8c-0.4-0.4-0.7-1-0.8-1.4c0-0.2-0.1-0.6,0.2-0.9
			c0.2-0.2,0.4-0.2,0.6-0.2c0.6,0,1.2,0.3,1.7,0.8c0.4,0.4,0.7,1,0.8,1.4C174.1,74.6,174.2,75,173.9,75.2z"/>
		<path fill="#475C63" d="M152.4,77c-0.7-0.1-1.5-0.1-2.3-0.1c-2,0-4.6,0.1-7.6-1.3c-3.1-1.4-5.5-3-7-4c-1.9-1.3-4.3-1.4-6.3-0.2
			c-3.8,2.4-10.9,6.4-16.4,6.6c-1.1,0-2,0.9-2.1,2c-0.3,4.2-2.5,14.1-3.3,17.9c-0.3,1.3-0.2,2.6,0.3,3.9c1,2.8,3.1,6.5,4.6,9.2
			c0.3,0.5,0.3,1,0,1.4c-0.3,0.5-0.7,0.7-1.3,0.7h-5.5c0.1-2.5,0.2-10.1-1.7-15.9c-0.5-1.5-0.4-3.2,0.3-4.6
			c1.9-4.3,4.7-10.5,4.8-16.6c0-1.2,1-2.1,2.2-2.1c8.6,0.2,21.1-5.9,20-12.2c3.5,7.8,5.6,11.7,20.2,10.6
			C151.4,73.9,151.9,75.7,152.4,77z"/>
		<path fill="#475C63" d="M182,73.2L182,73.2c0,4.6-2.5,8.8-6.6,11.1c-0.7,0.4-1.3,0.7-1.9,1.1c-4.1,2.4-9.1,2.4-13-0.1
			c-2.4-1.5-4.3-3.8-5.3-6.7l0,0c0,0,0,0,0,0c0,0-1.2-2.5-1.6-4.9c1.3,2.3,6.8,10.8,12.9,10.5c7.2-0.4,13.7-2.5,15.4-13.1l0,0
			c0,0.1,0.1,0.3,0.1,0.4c0,0.2,0.1,0.4,0.1,0.6C182,72.4,182,72.8,182,73.2z"/>
		<path fill="#475C63" d="M181.8,71.3c0-0.1-0.1-0.3-0.1-0.4c0,0,0,0,0,0C181.8,71.1,181.8,71.2,181.8,71.3z"/>
		<path fill="#475C63" d="M35.1,112.4c-0.3,0.4-0.7,0.7-1.2,0.7h-2.1c0.1-3.9-2.5-12.4-3.9-16.1c-0.3-0.8-0.1-1.7,0.3-2.5
			c1.6-3,4.9-9.6,6.8-12.8c-0.1,0.2-0.2,0.5-0.3,0.8l-0.4,1.1c-1.9,5-4.7,12.5-3.6,16.3c0.8,2.8,2.9,7.7,4.5,11.2
			C35.4,111.5,35.4,112,35.1,112.4z"/>
		<path fill="#475C63" d="M51.9,59.7c-0.3,4.1-1.7,16.4-7.7,23.9c-3.1-1.2-5.1-2.4-5.7-2.8C42.3,77.8,51,69.8,51.9,59.7z"/>
		<path fill="#475C63" d="M83.4,80.5c-0.1,0-0.1,0-0.2,0.1c0,0-1.9,1.3-5.3,2.7c-4.4-8.1-4-20.7-3.7-24.9
			C73.9,66.7,79.6,75.6,83.4,80.5z"/>
	</g>
	<path fill="#475C63" d="M159.5,34.5c-0.1,0.8,0.1,1.7,0.6,2.5c0,0,0.1,0.1,0.1,0.1c-0.9-1.2-1.9-2.4-2.8-3
		c-0.3-0.2-0.3-0.5-0.2-0.8c1.6-2.7,3.1-4.7,4.4-5.8c0.4,0.9-0.4,2.8-1.1,4.2C160,32.7,159.6,33.7,159.5,34.5z"/>
</g>
</svg>
