<?xml version="1.0" encoding="utf-8"?>
<!-- Generator: Adobe Illustrator 18.1.0, SVG Export Plug-In . SVG Version: 6.00 Build 0)  -->
<svg version="1.1" baseProfile="tiny" id="Layer_1" xmlns="http://www.w3.org/2000/svg" xmlns:xlink="http://www.w3.org/1999/xlink"
	 x="0px" y="0px" viewBox="0 0 128 128" xml:space="preserve">
<g>
	<path fill="#62B257" d="M60,25.5h-6.5l-8,8.1C38.1,40.9,34,50.8,34,61.3c0,8.1,6.1,16.3,19.4,18.6c12.7-1,24.6-4.7,24.6-21
		C77.9,42.8,60.8,26.2,60,25.5z M62.5,62.3h-1v3c0,0.5-0.4,1-1,1c-0.6,0-1-0.4-1-1v-3h-5.7c-0.5,0-1-0.4-1-1c0-0.5,0.4-1,1-1h8.7
		c2,0,3.7-1.7,3.7-3.7c0-2-1.7-3.7-3.7-3.7h-5.4c-3.1,0-5.7-2.5-5.7-5.7c0-3.1,2.5-5.7,5.7-5.7h2.4v-3c0-0.5,0.4-1,1-1
		c0.5,0,1,0.4,1,1v3h4.4c0.5,0,1,0.4,1,1c0,0.6-0.4,1-1,1h-8.7c-2,0-3.7,1.7-3.7,3.7c0,2,1.7,3.7,3.7,3.7h5.4c3.1,0,5.7,2.5,5.7,5.7
		S65.6,62.3,62.5,62.3z"/>
	<polygon fill="#F4A742" points="56.9,20.1 56.9,20.1 53.9,20.1 53.9,23.5 65.3,23.5 65.3,20.1 56.9,20.1 	"/>
	<path fill="#62B257" d="M66.6,5.5l-2.7,7.3c-0.5-0.2-1.1,0.1-1.2,0.6l-1.6,4.7h-3.4l-2.5-8.7C55,8.9,54.5,8.6,54,8.8
		c-0.5,0.1-0.8,0.7-0.7,1.2l2.3,8.1h-2.8L45.9,4.3c-0.2-0.3-0.2-0.6-0.1-0.9c0.2-0.5,0.7-0.9,1.5-1.2c1-0.4,5.2-0.6,7.6,1.6
		C57.8,6.3,62.8,6.4,66.6,5.5z"/>
	<path fill="#FFE1B2" d="M89.7,97.2v18.5c-2.8-0.1-9.3-0.3-11.6-0.1c-2.9,0.3-10.3,3.1-13,2.7c-6.3-1-32.7-15.6-41.9-20.7
		c1.9-1.5,4.4-1.8,6.7-0.9l13.6,5.8c-0.3,0.6-0.3,1.3,0,1.8c0.3,0.6,0.8,1.1,1.5,1.3l20,6.2c0.1,0,0.2,0,0.3,0
		c0.4,0,0.8-0.3,0.9-0.7c0.2-0.5-0.1-1.1-0.7-1.2l-20-6.2c-0.1,0-0.2-0.1-0.2-0.2c0-0.1,0-0.2,0-0.3l0.8-1.5c1.3-2.6,4.2-3.9,7-3.2
		l12.6,3.1c2.4,0.6,4.9,0.3,7-0.8l5.7-2.9c1.1-0.6,2.4-0.9,3.7-0.9H89.7z"/>
	<path fill="#FFE1B2" d="M83,119.3h6.7v0h-6.8c-0.3,0-0.5,0-0.8,0C82.4,119.3,82.7,119.3,83,119.3z"/>
	<path fill="#5094CC" d="M98.3,117.2V91.8h-6.6V126h6.6v-4.9c-1.1,0-2-0.9-2-2C96.3,118.1,97.2,117.2,98.3,117.2z"/>
	<circle fill="#2D2D2D" cx="98.3" cy="119.1" r="2"/>
	<path fill="#2D2D2D" d="M91.7,128h14.1c1.1,0,2-0.9,2-2V91.8c0-1.1-0.9-2-2-2H91.7c-1.1,0-2,0.9-2,2v3.4h-7.6
		c-1.6,0-3.2,0.4-4.6,1.1l-5.7,2.9c-1.8,0.9-3.8,1.1-5.7,0.6l-12.6-3.2c-3.7-0.9-7.4,0.8-9.1,4.1l-13.7-5.9
		c-3.5-1.5-7.7-0.5-10.1,2.5l-0.1,0.1c-0.6,0.7-0.8,1.7-0.7,2.7c0.2,0.9,0.8,1.7,1.6,2.2l37.3,21.1c2.4,1.2,5,1.8,7.6,1.8
		c2.1,0,4.1-0.4,6-1.1l5.3-2c1.7-0.6,3.5-1,5.3-1h6.8v4.7C89.7,127.1,90.6,128,91.7,128z M91.7,91.8h14.1l0,34.2H91.7V91.8z
		 M82.9,119.3c-2.1,0-4.1,0.4-6,1.1l-5.3,2c-3.9,1.5-8.4,1.2-12-0.6l-37.2-21.1c-0.3-0.2-0.6-0.5-0.6-0.9c-0.1-0.4,0-0.8,0.3-1.1
		l0.1-0.1c1.8-2.3,5-3.1,7.7-1.9l13.6,5.8c-0.3,0.6-0.3,1.2,0,1.8c0.3,0.6,0.8,1.1,1.4,1.3l20,6.2c0.1,0,0.2,0,0.3,0
		c0.4,0,0.8-0.3,0.9-0.7c0.2-0.5-0.1-1.1-0.6-1.2l-20-6.2c-0.1,0-0.2-0.1-0.2-0.2c0-0.1-0.1-0.2,0-0.3l0.8-1.5
		c1.3-2.6,4.2-3.9,7-3.2l12.6,3.2c2.4,0.6,4.9,0.3,7-0.8l5.7-2.9c1.1-0.6,2.4-0.9,3.7-0.9h7.6v22.2H82.9z"/>
	<path fill="#2D2D2D" d="M44.1,32.1C36.3,39.9,32,50.2,32,61.3c0,10.5,9,21.2,29.2,21.2c20.9,0,26.5-13.3,26.5-21.2
		c0-11-4.3-21.4-12.1-29.1l-8.3-8.3v-3.1c0.8-1.6,6.4-12.2,7.9-14.4c1-1.5,0.9-3.1-0.2-4.1c-1.1-1-3.1-1.4-5.2,0.1
		c-2.5,1.8-10.2,3-13.5,0.1c-3.1-2.7-8.1-2.5-9.6-1.9c-1.3,0.5-2.2,1.3-2.6,2.3c-0.3,0.8-0.3,1.7,0.1,2.5l7.7,15.5v3.6L44.1,32.1z
		 M45.9,4.3c-0.2-0.3-0.2-0.6-0.1-0.9c0.2-0.5,0.7-0.9,1.5-1.2c0.9-0.4,5.2-0.6,7.6,1.6c4.2,3.7,12.9,2.2,16,0.1
		c1.2-0.8,2.3-0.8,2.7-0.3c0.4,0.4,0.4,1-0.1,1.6c-1.3,1.9-5.3,9.4-7.1,13h-3.3l1.4-4.1c0.2-0.5-0.1-1.1-0.6-1.3
		c-0.5-0.2-1.1,0.1-1.3,0.6l-1.6,4.7h-3.4l-2.5-8.7C55,8.9,54.5,8.6,54,8.8c-0.5,0.1-0.8,0.7-0.7,1.2l2.3,8.1h-2.8L45.9,4.3z
		 M65.3,20.1v3.4H53.9v-3.4h3c0,0,0,0,0,0c0,0,0,0,0,0H65.3z M53.5,25.5h12.6l8,8c7.4,7.4,11.5,17.3,11.5,27.7
		c0,7.1-5.2,19.2-24.5,19.2C42.4,80.4,34,70.8,34,61.3c0-10.5,4.1-20.3,11.5-27.7L53.5,25.5z"/>
	<path fill="#2D2D2D" d="M57.1,52.9h0.7h4h0.7c2,0,3.7,1.7,3.7,3.7c0,2-1.7,3.7-3.7,3.7h-8.7c-0.5,0-1,0.4-1,1c0,0.5,0.4,1,1,1h5.7
		v3c0,0.5,0.4,1,1,1c0.5,0,1-0.4,1-1v-3h1c3.1,0,5.7-2.5,5.7-5.7s-2.5-5.7-5.7-5.7h-0.7h-4h-0.7c-2,0-3.7-1.7-3.7-3.7
		s1.7-3.7,3.7-3.7h8.7c0.5,0,1-0.4,1-1s-0.4-1-1-1h-4.4v-3c0-0.5-0.4-1-1-1c-0.5,0-1,0.4-1,1v3h-2.4c-3.1,0-5.7,2.5-5.7,5.7
		C51.5,50.4,54,52.9,57.1,52.9z"/>
	<path fill="#3E80AD" d="M105.8,91.8V126h-7.5v-4.9h0c1.1,0,2-0.9,2-2c0-1.1-0.9-2-2-2h0V91.8H105.8z"/>
	<path fill="#54A74B" d="M85.7,61.3c0,7.1-5.2,19.2-24.5,19.2c-2.8,0-5.5-0.2-7.8-0.6c12.7-1,24.6-4.7,24.6-21
		c0-16.1-17.1-32.6-17.9-33.4h6.1l8,8.1C81.6,40.9,85.7,50.8,85.7,61.3z"/>
	<path fill="#54A74B" d="M73.5,5.2c-1.3,2-5.3,9.4-7.1,13h-3.3l1.4-4.1c0.2-0.5-0.1-1.1-0.6-1.3c0,0,0,0,0,0l2.7-7.3
		c1.8-0.4,3.3-1,4.3-1.7c1.2-0.8,2.3-0.8,2.7-0.3C74,3.9,74,4.5,73.5,5.2z"/>
	<path fill="#F4C995" d="M89.7,115.6v3.7H83c-0.3,0-0.6,0-0.9,0c-0.5,0-1,0.1-1.5,0.1c-0.5,0.1-1,0.2-1.4,0.3
		c-0.5,0.1-1,0.3-1.5,0.4c-0.3,0.1-0.5,0.2-0.8,0.3l-5.3,2c-3.9,1.5-8.4,1.2-12-0.6l-37.2-21.1c-0.3-0.2-0.6-0.5-0.6-0.9
		s0-0.8,0.3-1.1l0.1-0.1c0.3-0.4,0.7-0.8,1.1-1.1c9.2,5.2,35.7,19.7,41.9,20.7c2.7,0.4,10.1-2.5,13-2.7
		C80.4,115.3,86.9,115.5,89.7,115.6z"/>
</g>
</svg>
