<?xml version="1.0" encoding="utf-8"?>
<!-- Generator: Adobe Illustrator 23.0.0, SVG Export Plug-In . SVG Version: 6.00 Build 0)  -->
<svg version="1.1" id="Layer_1" xmlns="http://www.w3.org/2000/svg" xmlns:xlink="http://www.w3.org/1999/xlink" x="0px" y="0px"
	 viewBox="0 0 128 128" 
width="128" height="128"
style="enable-background:new 0 0 128 128;" xml:space="preserve">
<style type="text/css">
	.st0{fill:#DCDCDE;}
	.st1{fill:#3F4142;}
	.st2{fill:#4B4D4F;}
	.st3{fill:#E5B77A;}
	.st4{fill:#918B71;}
	.st5{fill:#827D65;}
	.st6{fill:#2D2D2D;}
	.st7{fill:#595B5E;}
	.st8{fill:#D1D1D3;}
	.st9{fill:#BFBFC1;}
	.st10{fill:#838541;}
</style>
<g>
	<path class="st0" d="M78.8,10c0,0,3.6-4.1,4.8-3.9c1.1,0.2,6.5,3.6,7.3,6.3c0.8,2.7-0.4,9-4.4,11.5c1.2-2.4,2.4-8.2,0.1-10.3
		C84.3,11.5,78.8,10,78.8,10z"/>
	<path class="st0" d="M56.5,9.8c0,0-3.6-4.1-4.8-3.9s-6.5,3.6-7.3,6.3c-0.8,2.7,0.4,9,4.4,11.5c-1.2-2.4-2.4-8.2-0.1-10.3
		C51,11.4,56.5,9.8,56.5,9.8z"/>
	<path class="st1" d="M77.3,10.7c0,0,3.6-4.1,4.8-3.9c1.1,0.2,6.5,3.6,7.3,6.3c0.8,2.7-0.4,9-4.4,11.5c1.2-2.4,2.4-8.2,0.1-10.3
		C82.7,12.3,77.3,10.7,77.3,10.7z"/>
	<path class="st1" d="M57.9,10.9c0,0-3.6-4.1-4.8-3.9s-6.5,3.6-7.3,6.3s0.4,9,4.4,11.5c-1.2-2.4-2.4-8.2-0.1-10.3
		C52.4,12.5,57.9,10.9,57.9,10.9z"/>
	<path class="st2" d="M117.7,83.6l-0.1-1.2l0-0.6l-0.1-0.6l-0.3-2.4l-0.5-2.4c-0.2-0.8-0.5-1.6-0.7-2.4c-0.2-0.8-0.5-1.5-0.8-2.3
		c-1-2.5-2.2-4.8-3.7-7.1c-0.3-0.5-0.6-1-1-1.5l-0.7-1l-0.8-1c-0.3-0.3-0.5-0.6-0.8-1l-0.8-0.9c-1.1-1.2-2.2-2.4-3.4-3.5
		c-1.2-1.1-2.5-2.1-3.8-3.1c-1.3-1-2.7-1.8-4.1-2.6c-0.7-0.4-1.4-0.7-2.2-1.1l-1.1-0.6c-0.4-0.2-0.7-0.4-1.1-0.6
		c-1.5-0.9-2.8-1.8-4.1-2.9c-1.3-1.1-2.5-2.2-3.7-3.4c-1.2-1.2-4.3-2.8-5-2.3c-0.8,0.6-1.6,1.1-2.5,1.4c-0.9,0.4-1.8,0.5-2.7,0.6
		c0.9-0.3,1.7-0.5,2.5-1c0.8-0.5,1.5-1,2.1-1.7c0.6-0.6,1.2-1.3,1.7-2.1c0.5-0.7,0.9-1.6,1.1-2.3l0,0c0,0,0-0.1,0.1-0.1
		c0,0,0-0.1,0-0.1c1.3-3.1,1.9-6.6,2.2-8.7c0-0.3,0.1-0.6,0.1-0.9l0-0.3l0.2-0.2c3.2-2.9,3.9-7.1,1.5-10.3c-2.4-3.2-7-2.7-9.5-2
		l-0.3,0.1l-0.3-0.2c-7.5-4.1-16.7-0.3-16.8-0.2l-0.2,0.1l-0.3-0.1c-0.1,0-6.4-1.4-9,2.4c-2.7,3.9,0.1,8.3,2.2,10.3l0.3,0.3l0,0.4
		c-0.8,7.1,3.6,11.1,5,12.4c0.5,0.5,0.8,0.8,0.7,1.3l0,0.2l0,0.2c-0.1,1.2,0.2,4.4,1,5.6c1.1-0.7,2.4-1,3.8-1h0.1
		c8.8,0.2,21.1,20.9,25.3,31.9c0,0,0,0,0,0c0,0,0,0,0,0.1c0,0,0,0.1,0,0.1c0.6,1.8,1.2,3.7,1.7,5.5c0.5,1.8,1,3.7,1.3,5.6
		c0.4,1.9,0.7,3.8,0.8,5.7c0.2,1.9,0.2,3.8,0,5.7c0.1-1.9-0.1-3.8-0.5-5.6c-0.3-1.9-0.8-3.7-1.3-5.5c-0.5-1.8-1.1-3.6-1.8-5.3
		c-0.7-1.8-1.3-3.5-2.1-5.2l0,0c0,0,0-0.1,0-0.1c0,0,0-0.1-0.1-0.1C81,63.6,69.1,45.4,62.1,45.3c-5.5-0.1-9.1,8-10.4,17.6
		c-0.4,2.5-0.6,5.1-0.6,7.6c-0.2,9.7,3,22.8,4.5,28.3c1.7,2,4.3,3.8,5.2,3.8c1,0,3.8,1.4,4.8-0.9c-0.2-0.5-0.5-1.1-0.7-1.6
		c-1.3-3.1-2.4-6.3-3.2-9.5c-0.8-3.3-1.3-6.7-0.8-10.1v0l0,0c0.3-1.2,0.7-2.4,1.1-3.5c0.4-1.1,0.8-2.2,0.9-3.4
		c0.2-1.1,0.1-2.4,0.3-3.5c0.1-1.2,0.2-2.4,0.4-3.6c0-0.1,0.1-0.1,0.1-0.1c0.1,0,0.1,0.1,0.1,0.1c-0.1,1.2-0.1,2.4-0.1,3.6
		c0,0.6,0,1.2,0,1.8c0,0.6,0,1.2,0,1.8c-0.1,1.2-0.4,2.5-0.8,3.6c-0.3,1.1-0.6,2.3-0.9,3.4c-0.1,1.6-0.1,3.2,0.2,4.8l0.2,1.2
		l0.2,1.2c0.2,0.8,0.4,1.6,0.6,2.4c0.9,3.1,2,6.2,3.4,9.2c1.3,3,2.9,5.9,4.8,8.4c0.2,0.3,0.5,0.6,0.7,0.9c0.1,0.2,0.2,0.3,0.4,0.4
		c0.1,0.1,0.2,0.2,0.4,0.3c0.3,0.2,0.6,0.4,0.9,0.6c0.3,0.2,0.7,0.3,1,0.5c1.4,0.6,3,0.9,4.6,1.2c3.2,0.5,6.5,0.6,9.7,0.6
		c1.6,0,3.3-0.1,4.9-0.2c1.6-0.1,3.2-0.3,4.8-0.7c1.6-0.4,3.1-0.9,4.6-1.5c1.5-0.6,2.9-1.4,4.2-2.4c2.6-1.9,4.9-4.3,6.5-7.1
		c0.2-0.3,0.4-0.7,0.6-1.1c0.2-0.4,0.4-0.7,0.5-1.1c0.3-0.7,0.6-1.5,0.9-2.3c0.5-1.5,0.9-3.1,1.2-4.8c0.3-1.6,0.4-3.3,0.4-4.9
		C117.8,85.3,117.7,84.4,117.7,83.6z M78.9,13.1C79,13.1,79,13,78.9,13.1c0.9-0.5,1.9-0.6,2.8-0.3c0.5,0.1,0.9,0.4,1.3,0.8
		c0.4,0.4,0.6,0.9,0.9,1.3c0.4,1,0.4,2,0.2,2.8c-0.1,0.4-0.3,0.9-0.4,1.3c-0.1,0.2-0.2,0.4-0.3,0.6c-0.1,0.1-0.1,0.2-0.2,0.3
		L83.1,20l-0.1,0.1l0,0c0,0,0,0,0,0c0,0-0.1,0-0.1,0c-0.1,0-0.1-0.1-0.1-0.1c0,0,0,0,0,0c0,0,0,0,0,0s0,0,0,0l0,0l0-0.1l0-0.1
		c0-0.1,0-0.2,0.1-0.3c0-0.2,0.1-0.4,0.1-0.6c0.1-0.4,0.1-0.8,0-1.2c0-0.8-0.2-1.5-0.6-2c-0.2-0.3-0.4-0.4-0.7-0.6
		c-0.3-0.1-0.5-0.3-0.8-0.5c-0.3-0.2-0.6-0.4-0.9-0.6c-0.3-0.2-0.7-0.4-1.1-0.8C78.9,13.2,78.9,13.1,78.9,13.1z M52.6,15.1
		c-0.3,0.1-0.5,0.3-0.7,0.6c-0.4,0.5-0.6,1.2-0.6,2c0,0.4,0,0.8,0,1.2c0,0.2,0.1,0.4,0.1,0.6c0,0.1,0,0.2,0.1,0.3l0,0.1l0,0.1l0,0
		c0,0,0,0,0,0c0,0,0,0,0,0c0,0.1,0,0.1-0.1,0.1c0,0-0.1,0-0.1,0c0,0,0,0,0,0l0,0L51.3,20l-0.1-0.1c-0.1-0.1-0.1-0.2-0.2-0.3
		c-0.1-0.2-0.2-0.4-0.3-0.6c-0.2-0.4-0.3-0.8-0.4-1.3c-0.2-0.9-0.2-1.9,0.2-2.8c0.2-0.5,0.5-0.9,0.9-1.3c0.4-0.4,0.8-0.7,1.3-0.8
		c1-0.3,1.9-0.2,2.8,0.3c0.1,0,0.1,0.1,0,0.2c0,0,0,0,0,0c-0.4,0.3-0.8,0.6-1.1,0.8c-0.3,0.2-0.7,0.4-0.9,0.6
		C53.1,14.8,52.9,14.9,52.6,15.1z M67.4,39.4c-1.4,0-2.8-0.2-4.1-0.6c-1.3-0.4-2.6-1.2-3.7-2.2c-1-1.1-1.7-2.5-2.1-3.9
		c-0.3-1.3-0.3-2.5-0.1-3.8c-0.7-0.6-1.4-1.2-2-2c-0.7-0.9-1.3-2-1.6-3.1c-0.3-1.2-0.4-2.4-0.1-3.6c0.1-0.3,0.1-0.6,0.2-0.9
		c0.1-0.3,0.2-0.6,0.4-0.8c0.3-0.5,0.6-1,1-1.5c1.5-1.9,3.7-3,5.8-3.5c2.2-0.5,4.3-0.5,6.4-0.4c1.1,0.1,2.1,0.1,3.2,0.3
		c1.1,0.1,2.1,0.4,3.1,0.7c1,0.3,2,0.7,2.9,1.3c0.9,0.6,1.8,1.3,2.4,2.2c0.4,0.4,0.6,0.9,0.9,1.4c0.3,0.5,0.4,1.1,0.5,1.7
		c0.1,1.1,0,2.3-0.3,3.3c-0.5,2-1.6,3.9-3.2,5.4c0,1.2-0.1,2.5-0.4,3.7c-0.4,1.3-1,2.6-1.9,3.7c-0.9,1.1-2.2,1.8-3.4,2.1
		C70,39.2,68.7,39.3,67.4,39.4z"/>
	<path class="st3" d="M61.1,18.5L61.1,18.5c-0.7,0-1.3,0.3-1.7,0.7c-0.4,0.4-0.7,1-0.7,1.7c0,1.3,1.1,2.4,2.4,2.4c0,0,0,0,0,0
		c0.7,0,1.3-0.3,1.7-0.7c0.4-0.4,0.7-1,0.7-1.7C63.6,19.6,62.5,18.5,61.1,18.5z M61.1,22.1c-0.6,0-1.2-0.5-1.2-1.1
		c0-0.6,0.5-1.1,1.1-1.1c0.6,0,1.2,0.5,1.2,1.1C62.3,21.6,61.8,22.1,61.1,22.1z"/>
	<path class="st3" d="M73.6,18.5L73.6,18.5c-0.7,0-1.3,0.3-1.7,0.7c-0.4,0.4-0.7,1-0.7,1.7c0,1.3,1.1,2.4,2.4,2.4c0,0,0,0,0,0
		c0.7,0,1.3-0.3,1.7-0.7c0.4-0.4,0.7-1,0.7-1.7C76,19.5,74.9,18.5,73.6,18.5z M73.6,22c-0.6,0-1.2-0.5-1.2-1.1
		c0-0.6,0.5-1.1,1.1-1.1c0.6,0,1.2,0.5,1.2,1.1C74.7,21.5,74.2,22,73.6,22z"/>
	<path class="st3" d="M69.8,34c-0.3,0.2-0.5,0.4-0.9,0.5c-0.2,0.1-0.5,0.2-0.7,0.2c-0.2,0-0.6,0.1-0.9,0.1c-0.6,0.1-1.2,0.1-1.7,0
		c-0.5-0.1-1-0.4-1.4-0.9c-0.1-0.1-0.1-0.2-0.2-0.3c0.5,0.2,1,0.4,1.6,0.4c0.4,0,0.8-0.1,1.2-0.3c0.2-0.1,0.3-0.2,0.5-0.3
		c0.2,0.1,0.3,0.2,0.5,0.3c0.4,0.2,0.8,0.3,1.2,0.3C69.3,34.1,69.6,34.1,69.8,34z"/>
	<path class="st3" d="M66.7,32C66.7,32,66.7,32,66.7,32l0,0.4l0,0c0,0-0.1,0.1-0.1,0.1c-0.1,0.1-0.2,0.2-0.3,0.2
		c-0.2,0.1-0.5,0.3-0.8,0.4c-0.5,0.2-1.1,0.2-1.7,0.3c0,0,0-0.1,0-0.1c-0.1-0.1-0.1-0.3-0.1-0.4l-0.1-0.4c-0.1-0.6-0.3-1.2-0.4-1.8
		l-0.1-0.4c0-0.1-0.1-0.2-0.1-0.3c0-0.2-0.1-0.4,0-0.7c0-0.5,0.2-1,0.5-1.5c0.1-0.2,0.3-0.5,0.4-0.7c0.2-0.2,0.3-0.5,0.5-0.7
		c0.2-0.4,0.5-0.6,0.8-0.8l-0.7,1.9c-0.4,1.1-0.2,2.3,0.5,3.2l0.2,0.2C65.4,31.4,66,31.8,66.7,32z"/>
	<path class="st3" d="M71.8,29.2c0,0.2,0,0.5-0.1,0.7c0,0.1-0.1,0.2-0.1,0.3l-0.2,0.4c-0.2,0.6-0.4,1.1-0.6,1.7l-0.1,0.4
		c0,0.1-0.1,0.2-0.1,0.3c0,0.1-0.1,0.2-0.1,0.2c-0.5-0.1-0.9-0.1-1.3-0.3c-0.3-0.1-0.5-0.2-0.7-0.4c-0.1-0.1-0.2-0.2-0.3-0.2
		c0,0-0.1-0.1-0.1-0.1l0,0V32c0,0,0,0,0-0.1c0.7-0.2,1.3-0.6,1.7-1.2l0.2-0.3c0.6-0.9,0.8-2.1,0.4-3.1l-0.7-1.9
		c0.1,0.1,0.3,0.1,0.4,0.2c0.2,0.2,0.3,0.4,0.5,0.6c0.2,0.3,0.3,0.5,0.5,0.7c0.2,0.2,0.3,0.5,0.4,0.7C71.6,28.3,71.8,28.8,71.8,29.2
		z"/>
	<path class="st3" d="M68.8,29.8l-0.2,0.3c-0.3,0.4-0.7,0.7-1.3,0.7c-0.5,0-1-0.2-1.3-0.6l-0.2-0.2c-0.4-0.6-0.5-1.3-0.3-1.9
		l1.6-4.4l0,0c0,0,0,0,0.1,0c0.1,0,0.1,0,0.1,0.1l1.7,4.3C69.3,28.5,69.2,29.2,68.8,29.8z"/>
	<path class="st4" d="M126.3,118.4c0,0.2,0,0.4,0,0.6l-0.1,0.6c-0.3,1.5-1,2.9-1.9,4c-1,1.1-2.3,2-3.7,2.5c-0.7,0.2-1.5,0.4-2.2,0.4
		c-0.2,0-0.4,0-0.6,0l-0.6,0c-0.4,0-0.8-0.1-1.2-0.1c-1.7-0.2-3.3-0.4-5-0.6c-1.7-0.2-3.3-0.3-5-0.5c-1.7-0.2-3.3-0.3-5-0.4
		c-6.7-0.4-13.4-0.7-20-1.1c-3.3-0.2-6.7-0.5-10-0.8c-3.3-0.3-6.6-0.7-9.8-1.4c-3.2-0.7-6.5-1.5-9.7-2.4l-4.8-1.4l-2.4-0.7l-1.2-0.4
		l-0.3-0.1l-0.1,0c-0.1,0-0.3-0.1-0.4-0.1c-0.4,0-0.6,0-0.8,0.1c-1.8,0.3-3.4,0.7-5,1.1c-0.8,0.2-1.6,0.4-2.5,0.6
		c-0.4,0.1-0.8,0.2-1.2,0.3c-0.4,0.1-0.7,0.2-1.1,0.3c-0.7,0.1-1.4,0.1-2.1,0c-0.2,0-0.4-0.1-0.5-0.1l-0.6-0.2l-1.2-0.4l-1.2-0.4
		l-0.1,0c0,0,0,0,0,0c0,0,0,0,0,0s0,0,0,0c0,0,0-0.1,0-0.1c0,0,0,0,0.1,0c0.4-0.1,0.8-0.2,1.2-0.3c1.6-0.4,3.2-0.8,4.9-1.2l0.6-0.2
		l0.3-0.1c0.1,0,0.3-0.1,0.5-0.2c0.4-0.3,0.5-0.7,0.4-1.2c0-0.2-0.1-0.4-0.3-0.6c-0.1-0.2-0.4-0.3-0.4-0.3c-0.8-0.3-1.5-0.6-2.3-1
		c-2.8-1.2-4.9-3.7-7.6-5c0.3-0.5,1.2-2.6,2.5-3.9c0.6-0.6,1.1-1.1,1.6-1.6c2.6-2.7,3.6-3.7,6.9-3.8c0.8,0,1.7-0.1,2.6-0.3l8.4,4.1
		c2,1.8,14,9.5,16.9,9.8c0.5,0,1,0.1,1.6,0.2c0.9,0.1,1.9,0.3,2.8,0.3c1.7,0,3.3-0.4,4.5-2c0.3,0.3,0.6,0.5,0.8,0.8
		c0.4,0.2,0.8,0.5,1.2,0.7c0.4,0.2,0.8,0.4,1.2,0.6c1.7,0.7,3.4,1,5,1.2c3.4,0.5,6.7,0.5,10.1,0.4c1.7-0.1,3.3-0.2,5-0.3
		c1.7-0.1,3.4-0.4,5-0.9c2.2-0.6,3.1-0.8,5.1-2c3.9,0.6,8.4-0.9,10.1-1.1l2.5-0.3c0.4,0,0.8-0.1,1.2,0l0.6,0l0.6,0.1
		c1.5,0.2,3,0.9,4.1,1.9c1.2,1,2.1,2.3,2.6,3.7c0.2,0.7,0.4,1.5,0.4,2.2C126.3,117.6,126.3,118,126.3,118.4z"/>
	<path class="st5" d="M2.6,92.5c0,0,5.4,1.7,10.2,4.3s12.2,9.8,17.4,11.3s8.3,4.8,16.7,6.5c8.3,1.7,19,2,25,4c6,2,7.8,1.2,19.2,2.7
		s19.5,2.3,23.2,0.2c5.8-3.3,11.4-4.5,8.8-10.2c2.6,0.3,5,2.4,3.9,6.5c-1.1,4.1-2.3,9.4-8.1,9.5c-5.8,0.1-8.4-1.6-11.2-1.6
		c-2.8,0-29-1.8-34.6-1.6c-5.2-0.9-25.2-3.7-31.3-6.7c-4,0.4-10.6,2.5-11.1,2.4c-0.5-0.1-6.5-1.8-5.9-3c1.4-0.6,8-2.6,8-2.6
		s-8.1-4.4-9.1-4.9c-1-0.6-12-6.6-14.4-8.7s-6.6-6.5-6.6-6.5L2.6,92.5z"/>
	<path class="st4" d="M12,95.3c-0.1,1.1-0.2,2.3,0.1,3.5c0.1,0.6,0.4,1.2,0.7,1.7c0.2,0.2,0.4,0.4,0.6,0.6c-0.1,0.4-0.4,0.6-0.7,0.6
		c-0.2,0-0.4-0.1-0.5-0.2c-1.8-2-3.8-3.6-5.8-5.5c-0.7-0.6-1.4-1.2-2.1-1.8c-0.7-0.5-1.2-1.1-1.6-1.7c-0.4-0.7-0.8-1.4-1-2.2
		s-0.3-1.6-0.3-2.5c0-0.8,0.3-1.7,0.7-2.5c0.4-0.8,1-1.5,1.6-2C5,82.3,6.8,82,8.4,82.1c0.8,0.1,1.6,0.2,2.4,0.5
		c0.2,0.1,0.4,0.1,0.6,0.2c0.2,0.1,0.4,0.2,0.5,0.3c0.3,0.2,0.7,0.4,1.1,0.7c1.4,0.9,2.9,1.8,4.4,2.5c-1,0.7-2,1.5-2.9,2.4
		c-0.4,0.4-0.8,0.9-1.2,1.4c-0.4,0.5-0.7,1.1-0.9,1.7c-0.2,0.6-0.3,1.2-0.3,1.9C12.1,94.3,12,94.8,12,95.3z"/>
	<path class="st2" d="M73.1,29.1c0.1,0.4,0.1,0.7,0,1.1c0,0.2-0.1,0.4-0.1,0.5l-0.1,0.4c-0.2,0.6-0.4,1.1-0.6,1.7L72,33.3
		c-0.1,0.2-0.2,0.3-0.3,0.5c-0.2,0.3-0.4,0.6-0.7,0.8c-0.5,0.5-1.1,0.8-1.8,1c-0.3,0.1-0.7,0.1-1,0.1c-0.4,0-0.6-0.1-0.9-0.1
		l-0.9-0.1c-0.3,0-0.6-0.1-0.9-0.2c-0.6-0.2-1.1-0.5-1.6-1c-0.2-0.2-0.4-0.5-0.6-0.7c-0.1-0.1-0.2-0.3-0.3-0.4l-0.2-0.4
		c-0.3-0.5-0.5-1.1-0.8-1.6l-0.2-0.4c-0.1-0.2-0.1-0.3-0.2-0.5c-0.1-0.4-0.1-0.7-0.1-1.1c0.1-0.7,0.4-1.3,0.8-1.9
		c0.2-0.3,0.4-0.5,0.6-0.7c0.2-0.2,0.4-0.4,0.6-0.6c0.1-0.1,0.2-0.2,0.4-0.3c0.1-0.1,0.3-0.2,0.5-0.2c0.2-0.1,0.4-0.1,0.7-0.1
		l0.8-2.1c0.2-0.6,0.7-1,1.3-1h0c0.6,0,1.2,0.4,1.3,1l0.8,2.1c0.5,0,1.1,0.3,1.5,0.7c0.2,0.2,0.4,0.4,0.7,0.6
		c0.2,0.2,0.4,0.5,0.6,0.7C72.6,27.7,72.9,28.4,73.1,29.1z"/>
	<path class="st2" d="M87,14.4c-1.6-3.7-6.2-3.9-11.1-3.7c-6.2-2.9-15.5-0.9-17.8-0.5c-2.7-0.4-8.8,0-10.3,3.4
		C46.2,17,49,23,50.4,25.4c0.1,3.8,3.7,11.5,6.8,13.2c0,0,0,0,0,0c5.4,5.9,16.5,2.8,16.5,2.8c0,0,0,0,0,0c0,0,0,0,0,0
		c0.3-0.1,1.4-0.4,2.3-0.7c1-0.4,2.4-1.7,4-2.7c1.6-1,4.3-11.8,4.5-13.5C85.3,23.8,88.6,18.1,87,14.4z M67.4,39.2
		c-1.4,0-2.7-0.3-4-0.8s-2.3-1.4-3-2.5c-0.7-1.1-1.1-2.3-1.2-3.6c-0.1-1.3,0-2.5,0.3-3.8l0.1-0.6L59,27.6c-1.5-1.2-2.8-2.7-3.2-4.4
		c-0.2-0.9-0.3-1.8-0.1-2.6c0-0.2,0.1-0.4,0.1-0.6c0.1-0.2,0.1-0.4,0.2-0.6c0.2-0.4,0.4-0.8,0.7-1.2c1.1-1.5,2.8-2.5,4.7-3.1
		c1.9-0.6,3.9-0.9,6-1c2.1-0.1,4.1,0,6.1,0.5c2,0.5,3.8,1.7,4.9,3.4c0.3,0.4,0.5,0.9,0.7,1.3c0.2,0.4,0.2,0.9,0.2,1.3
		c0,1-0.3,1.9-0.6,2.8c-0.3,0.9-0.8,1.8-1.3,2.6c-0.5,0.8-1.1,1.6-1.8,2.2l-0.3,0.3l0,0.4c0.1,1.2,0.1,2.5-0.1,3.7
		c-0.2,1.2-0.5,2.4-1.2,3.5c-0.7,1-1.7,1.8-2.9,2.3C70,39,68.7,39.1,67.4,39.2z"/>
	<path class="st2" d="M51.2,89.4c-7.5,4.3-13.5,6.6-17.4,6.7c-4.1,0.1-5.5,1.7-8.2,4.5c-0.5,0.5-1,1-1.6,1.6c-1.5,1.5-2.2,3-2.7,4.2
		c-0.2,0.5-0.5,1-0.7,1.4c-0.9,1.4-2.4,2.3-4.1,2.5l-0.1,0c-0.2,0-0.4,0-0.5-0.1c-1.6-1.4-1.2-4.5-0.8-7c0.1-0.5,0.2-1,0.2-1.5
		c0.1-0.8,0.3-1.4,0.6-2c1.2-2.3,3.9-5.1,6.1-7c0.5-0.4,1.1-0.8,1.8-1c4.3-1.4,7.6-3.3,11.1-6.2c4.3-3.6,11.6-6.9,14.5-8.2
		C49.8,81.5,50.5,85.7,51.2,89.4z"/>
	<path class="st1" d="M49.2,75.3c-2.4,1-10.7,4.6-15.6,8.7c-3.4,2.8-6.4,4.5-10.5,5.8c-0.9,0.3-1.7,0.8-2.4,1.4
		c-1.1,1-4.9,4.4-6.6,7.6c-0.3,0.5-0.4,1.1-0.6,1.7c0-0.1-0.1-0.2-0.1-0.3c-0.2-0.5-0.3-1-0.3-1.5c0-1,0.2-2.1,0.4-3.2
		c0.1-0.5,0.2-1.1,0.3-1.7c0.1-0.5,0.2-1,0.4-1.4c0.4-0.8,1-1.6,1.8-2.3c1.5-1.5,3.2-2.8,5.1-3.9c0.5-0.3,0.9-0.5,1.4-0.7l0.3-0.1
		l0.4-0.2c0.3-0.1,0.5-0.2,0.8-0.3c1.1-0.4,2.1-1,3.1-1.6c2-1.2,3.8-2.5,5.6-3.8c0.9-0.7,1.8-1.4,2.7-2c0.9-0.6,1.9-1.2,2.8-1.7
		l5.7-3.3c1.7-1,3.4-1.9,5.2-3c0,0.3,0,0.6,0,0.8C49,72,49.1,73.7,49.2,75.3z"/>
	<path class="st6" d="M80.5,20.6c-0.1-0.6-0.2-1.1-0.5-1.7c-0.3-0.5-0.6-1-0.9-1.4c-0.7-0.9-1.5-1.6-2.4-2.2c-0.9-0.6-1.9-1-2.9-1.3
		c-1-0.3-2.1-0.5-3.1-0.7c-1.1-0.2-2.1-0.2-3.2-0.3c-2.1-0.1-4.3-0.1-6.4,0.4c-2.1,0.5-4.3,1.6-5.8,3.5c-0.4,0.5-0.7,1-1,1.5
		c-0.1,0.2-0.3,0.5-0.4,0.8c-0.1,0.3-0.2,0.6-0.2,0.9c-0.3,1.2-0.2,2.4,0.1,3.6c0.3,1.2,0.9,2.2,1.6,3.1c0.6,0.8,1.3,1.4,2,2
		c-0.2,1.3-0.2,2.6,0.1,3.8c0.3,1.5,1.1,2.9,2.1,3.9c1,1.1,2.3,1.8,3.7,2.2c1.3,0.4,2.7,0.6,4.1,0.6c1.3,0,2.6-0.1,3.9-0.5
		c1.3-0.4,2.5-1.1,3.4-2.1c0.9-1.1,1.5-2.4,1.9-3.7c0.3-1.2,0.4-2.4,0.4-3.7c1.6-1.5,2.6-3.4,3.2-5.4C80.5,22.8,80.6,21.7,80.5,20.6
		z M78.7,23.5c-0.3,0.9-0.8,1.8-1.3,2.6c-0.5,0.8-1.1,1.6-1.8,2.2l-0.3,0.3l0,0.4c0.1,1.2,0.1,2.5-0.1,3.7c-0.2,1.2-0.5,2.4-1.2,3.5
		c-0.7,1-1.7,1.8-2.9,2.3c-1.2,0.5-2.5,0.7-3.8,0.7c-1.4,0-2.7-0.3-4-0.8s-2.3-1.4-3-2.5c-0.7-1.1-1.1-2.3-1.2-3.6
		c-0.1-1.3,0-2.5,0.3-3.8l0.1-0.6L59,27.6c-1.5-1.2-2.8-2.7-3.2-4.4c-0.2-0.9-0.3-1.8-0.1-2.6c0-0.2,0.1-0.4,0.1-0.6
		c0.1-0.2,0.1-0.4,0.2-0.6c0.2-0.4,0.4-0.8,0.7-1.2c1.1-1.5,2.8-2.5,4.7-3.1c1.9-0.6,3.9-0.9,6-1c2.1-0.1,4.1,0,6.1,0.5
		c2,0.5,3.8,1.7,4.9,3.4c0.3,0.4,0.5,0.9,0.7,1.3c0.2,0.4,0.2,0.9,0.2,1.3C79.3,21.6,79.1,22.5,78.7,23.5z"/>
	<path class="st7" d="M79.1,19.3c-0.2-0.4-0.4-0.9-0.7-1.3c-1.1-1.7-2.9-2.8-4.9-3.4c-2-0.6-4.1-0.6-6.1-0.5c-2.1,0.1-4.1,0.4-6,1
		c-1.9,0.6-3.6,1.6-4.7,3.1c-0.3,0.4-0.5,0.8-0.7,1.2c-0.1,0.2-0.2,0.4-0.2,0.6c-0.1,0.2-0.1,0.4-0.1,0.6c-0.1,0.9-0.1,1.8,0.1,2.6
		c0.5,1.7,1.7,3.2,3.2,4.4l0.5,0.4l-0.1,0.6c-0.3,1.2-0.4,2.5-0.3,3.8c0.1,1.3,0.5,2.5,1.2,3.6c0.7,1.1,1.8,1.9,3,2.5s2.6,0.8,4,0.8
		c1.3,0,2.6-0.2,3.8-0.7c1.2-0.5,2.2-1.3,2.9-2.3c0.7-1,1-2.2,1.2-3.5c0.2-1.2,0.2-2.5,0.1-3.7l0-0.4l0.3-0.3
		c0.7-0.6,1.3-1.4,1.8-2.2c0.5-0.8,1-1.7,1.3-2.6c0.3-0.9,0.6-1.9,0.6-2.8C79.3,20.2,79.3,19.7,79.1,19.3z M61.1,24.6
		c-2.1,0-3.7-1.7-3.8-3.7c0-1,0.4-1.9,1.1-2.6c0.7-0.7,1.7-1.1,2.7-1.1c0,0,0,0,0,0c2.1,0,3.8,1.7,3.8,3.7c0,1-0.4,1.9-1.1,2.6
		C63.1,24.2,62.2,24.6,61.1,24.6C61.1,24.6,61.1,24.6,61.1,24.6z M73,30.2c0,0.2-0.1,0.4-0.1,0.5l-0.1,0.4c-0.2,0.6-0.4,1.1-0.6,1.7
		L72,33.3c-0.1,0.2-0.2,0.3-0.3,0.5c-0.2,0.3-0.4,0.6-0.7,0.8c-0.5,0.5-1.1,0.8-1.8,1c-0.3,0.1-0.7,0.1-1,0.1
		c-0.4,0-0.6-0.1-0.9-0.1l-0.9-0.1c-0.3,0-0.6-0.1-0.9-0.2c-0.6-0.2-1.1-0.5-1.6-1c-0.2-0.2-0.4-0.5-0.6-0.7
		c-0.1-0.1-0.2-0.3-0.3-0.4l-0.2-0.4c-0.3-0.5-0.5-1.1-0.8-1.6l-0.2-0.4c-0.1-0.2-0.1-0.3-0.2-0.5c-0.1-0.4-0.1-0.7-0.1-1.1
		c0.1-0.7,0.4-1.3,0.8-1.9c0.2-0.3,0.4-0.5,0.6-0.7c0.2-0.2,0.4-0.4,0.6-0.6c0.1-0.1,0.2-0.2,0.4-0.3c0.1-0.1,0.3-0.2,0.5-0.2
		c0.2-0.1,0.4-0.1,0.7-0.1l0.8-2.1c0.2-0.6,0.7-1,1.3-1h0c0.6,0,1.2,0.4,1.3,1l0.8,2.1c0.5,0,1.1,0.3,1.5,0.7
		c0.2,0.2,0.4,0.4,0.7,0.6c0.2,0.2,0.4,0.5,0.6,0.7c0.4,0.5,0.7,1.1,0.8,1.9C73.1,29.4,73.1,29.8,73,30.2z M76.2,23.4
		c-0.7,0.7-1.7,1.1-2.7,1.1c0,0,0,0,0,0c-2.1,0-3.7-1.7-3.8-3.7c0-1,0.4-1.9,1.1-2.6c0.7-0.7,1.7-1.1,2.7-1.1h0
		c2.1,0,3.8,1.7,3.8,3.7C77.3,21.8,76.9,22.7,76.2,23.4z"/>
	<path class="st8" d="M116.9,94.2c-0.4,0.7-0.9,2.1-1.7,3.8c-0.2,0.4-0.4,0.7-0.5,1.1c-2.1,4.2-5.6,9.6-11,11.2
		c-8.2,2.5-22,3.8-26.7,1.7c-4.7-2-8.3-5.5-11.1-11.8c0,0.6-0.1,1-0.3,1.4c-1,2.3-3.9,0.9-4.8,0.9c-0.9,0-3.5-1.8-5.2-3.8
		c-0.5-0.5-0.8-1.1-1.1-1.6c-1.2-2.5-4-20.2-4-23.7c0-3.4,1-10.2,1-10.2s0.1-0.2,0.3-0.5c1.4-2,7-9.6,12-6.6c3.5,2.1,5.3,5.8,6.1,8
		c-2.9,0.3-6.2,2.1-6.2,2.1s-0.5,8-0.8,9.2c-0.3,1.2-1,6.1,3,10c3.9,3.9,11.3,15.6,15.1,15.7c0.4,0,0.8-0.1,1-0.4
		c1,2,2.5,3.3,5.5,3.6c6.4,0.6,12-0.1,14.9-2.5c3.3-2.7,9.7-7.7,10.8-12.9c0.7-3.4,0.7-16-0.3-19.5c-0.4-1.5-0.9-3.4-1.4-4.9
		c-0.6-2-1.2-3.7-1.2-3.8c0.2,0.3,4.4,7,4.8,8.6C115.5,71.1,120.1,83.3,116.9,94.2z"/>
	<path class="st6" d="M73.1,29.1c-0.1-0.7-0.4-1.3-0.8-1.9c-0.2-0.3-0.4-0.5-0.6-0.7c-0.2-0.2-0.4-0.4-0.7-0.6
		c-0.4-0.4-1-0.7-1.5-0.7l-0.8-2.1c-0.2-0.6-0.7-1-1.3-1h0c-0.6,0-1.1,0.4-1.3,1l-0.8,2.1c-0.2,0-0.4,0-0.7,0.1
		c-0.2,0.1-0.3,0.1-0.5,0.2c-0.2,0.1-0.3,0.2-0.4,0.3c-0.2,0.2-0.4,0.4-0.6,0.6c-0.2,0.2-0.4,0.5-0.6,0.7c-0.4,0.5-0.7,1.1-0.8,1.9
		c-0.1,0.4,0,0.7,0.1,1.1c0,0.2,0.1,0.4,0.2,0.5l0.2,0.4c0.2,0.5,0.5,1.1,0.8,1.6l0.2,0.4c0.1,0.1,0.2,0.3,0.3,0.4
		c0.2,0.3,0.4,0.5,0.6,0.7c0.5,0.4,1,0.8,1.6,1c0.3,0.1,0.6,0.2,0.9,0.2l0.9,0.1c0.3,0,0.6,0.1,0.9,0.1c0.3,0,0.7,0,1-0.1
		c0.7-0.2,1.3-0.5,1.8-1c0.3-0.2,0.5-0.5,0.7-0.8c0.1-0.1,0.2-0.3,0.3-0.5l0.2-0.4c0.2-0.6,0.4-1.1,0.6-1.7l0.1-0.4
		c0-0.2,0.1-0.3,0.1-0.5C73.1,29.8,73.1,29.4,73.1,29.1z M65.6,27.9l1.6-4.4l0,0c0,0,0,0,0.1,0c0.1,0,0.1,0,0.1,0.1l1.7,4.3
		c0.2,0.6,0.2,1.3-0.2,1.9l-0.2,0.3c-0.3,0.4-0.7,0.7-1.3,0.7c-0.5,0-1-0.2-1.3-0.6l-0.2-0.2C65.5,29.3,65.4,28.6,65.6,27.9z
		 M63.8,33.4C63.8,33.4,63.8,33.3,63.8,33.4c-0.1-0.2-0.1-0.3-0.2-0.5l-0.1-0.4c-0.1-0.6-0.3-1.2-0.4-1.8l-0.1-0.4
		c0-0.1-0.1-0.2-0.1-0.3c0-0.2-0.1-0.4,0-0.7c0-0.5,0.2-1,0.5-1.5c0.1-0.2,0.3-0.5,0.4-0.7c0.2-0.2,0.3-0.5,0.5-0.7
		c0.2-0.4,0.5-0.6,0.8-0.8l-0.7,1.9c-0.4,1.1-0.2,2.3,0.5,3.2l0.2,0.2c0.4,0.6,1,0.9,1.7,1.1c0,0,0,0,0,0.1v0.3l0,0
		c0,0-0.1,0.1-0.1,0.1c-0.1,0.1-0.2,0.2-0.3,0.2c-0.2,0.1-0.5,0.3-0.8,0.4C65,33.2,64.4,33.3,63.8,33.4z M69,34.6
		c-0.2,0.1-0.5,0.2-0.7,0.2c-0.2,0-0.6,0.1-0.9,0.1c-0.6,0.1-1.2,0.1-1.7,0c-0.5-0.1-1-0.4-1.4-0.9c-0.1-0.1-0.1-0.2-0.2-0.3
		c0.5,0.2,1,0.4,1.6,0.4c0.4,0,0.8-0.1,1.2-0.3c0.2-0.1,0.3-0.2,0.5-0.3c0.2,0.1,0.3,0.2,0.5,0.3c0.4,0.2,0.8,0.3,1.2,0.3
		c0.3,0,0.5,0,0.8-0.1C69.6,34.2,69.3,34.4,69,34.6z M71.7,29.9c0,0.1-0.1,0.2-0.1,0.3l-0.2,0.4c-0.2,0.6-0.4,1.1-0.6,1.7l-0.1,0.4
		c0,0.1-0.1,0.2-0.1,0.3c0,0.1-0.1,0.2-0.1,0.2c-0.5-0.1-0.9-0.1-1.3-0.3c-0.3-0.1-0.5-0.2-0.7-0.4c-0.1-0.1-0.2-0.2-0.3-0.2
		c0,0-0.1-0.1-0.1-0.1l0,0V32c0,0,0,0,0-0.1c0.7-0.2,1.3-0.6,1.7-1.2l0.2-0.3c0.6-0.9,0.8-2.1,0.4-3.1l-0.7-1.9
		c0.1,0.1,0.3,0.1,0.4,0.2c0.2,0.2,0.3,0.4,0.5,0.6c0.2,0.3,0.3,0.5,0.5,0.7c0.2,0.2,0.3,0.5,0.4,0.7c0.2,0.5,0.4,1,0.4,1.5
		C71.8,29.5,71.8,29.7,71.7,29.9z"/>
	<path class="st6" d="M73.6,17.1L73.6,17.1c-1,0-2,0.4-2.7,1.1c-0.7,0.7-1.1,1.6-1.1,2.6c0,2,1.7,3.7,3.8,3.7c0,0,0,0,0,0
		c1,0,2-0.4,2.7-1.1c0.7-0.7,1.1-1.6,1.1-2.6C77.3,18.8,75.6,17.1,73.6,17.1z M75.3,22.5c-0.5,0.5-1.1,0.7-1.7,0.7c0,0,0,0,0,0
		c-1.3,0-2.4-1.1-2.4-2.4c0-0.6,0.2-1.2,0.7-1.7c0.5-0.5,1.1-0.7,1.7-0.7h0c1.3,0,2.4,1.1,2.4,2.4C76,21.5,75.8,22.1,75.3,22.5z"/>
	<path class="st6" d="M61.1,17.2C61.1,17.2,61.1,17.2,61.1,17.2c-1,0-2,0.4-2.7,1.1c-0.7,0.7-1.1,1.6-1.1,2.6c0,2,1.7,3.7,3.8,3.7
		c0,0,0,0,0,0c1,0,2-0.4,2.7-1.1c0.7-0.7,1.1-1.6,1.1-2.6C64.9,18.9,63.2,17.2,61.1,17.2z M62.9,22.6c-0.5,0.5-1.1,0.7-1.7,0.7
		c0,0,0,0,0,0c-1.3,0-2.4-1.1-2.4-2.4c0-0.6,0.2-1.2,0.7-1.7c0.5-0.5,1.1-0.7,1.7-0.7h0c1.3,0,2.4,1.1,2.4,2.4
		C63.6,21.6,63.3,22.2,62.9,22.6z"/>
	<path class="st6" d="M55.5,13.2C55.5,13.2,55.5,13.2,55.5,13.2c-0.4,0.4-0.8,0.6-1.1,0.8c-0.3,0.2-0.7,0.4-0.9,0.6
		c-0.3,0.2-0.5,0.3-0.8,0.5c-0.3,0.1-0.5,0.3-0.7,0.6c-0.4,0.5-0.6,1.2-0.6,2c0,0.4,0,0.8,0,1.2c0,0.2,0.1,0.4,0.1,0.6
		c0,0.1,0,0.2,0.1,0.3l0,0.1l0,0.1l0,0c0,0,0,0,0,0s0,0,0,0c0,0,0,0-0.1,0c0,0,0,0,0.1,0c0,0,0,0,0,0c0,0.1,0,0.1-0.1,0.1
		c0,0-0.1,0-0.1,0c0,0,0,0,0,0l0,0L51.3,20l-0.1-0.1c-0.1-0.1-0.1-0.2-0.2-0.3c-0.1-0.2-0.2-0.4-0.3-0.6c-0.2-0.4-0.3-0.8-0.4-1.3
		c-0.2-0.9-0.2-1.9,0.2-2.8c0.2-0.5,0.5-0.9,0.9-1.3c0.4-0.4,0.8-0.7,1.3-0.8c1-0.3,1.9-0.2,2.8,0.3C55.5,13.1,55.5,13.1,55.5,13.2z
		"/>
	<path class="st6" d="M84.1,17.8c-0.1,0.4-0.3,0.9-0.4,1.3c-0.1,0.2-0.2,0.4-0.3,0.6c-0.1,0.1-0.1,0.2-0.2,0.3L83.1,20l-0.1,0.1l0,0
		c0,0,0,0,0,0c0,0-0.1,0-0.1,0c-0.1,0-0.1-0.1-0.1-0.1c0,0,0,0,0,0c0,0,0,0,0.1,0c0,0,0,0,0,0c0,0,0,0,0,0c0,0,0,0,0,0l0,0l0-0.1
		l0-0.1c0-0.1,0-0.2,0.1-0.3c0-0.2,0.1-0.4,0.1-0.6c0.1-0.4,0.1-0.8,0-1.2c0-0.8-0.2-1.5-0.6-2c-0.2-0.3-0.4-0.4-0.7-0.6
		c-0.3-0.1-0.5-0.3-0.8-0.5c-0.3-0.2-0.6-0.4-0.9-0.6c-0.3-0.2-0.7-0.4-1.1-0.8c-0.1,0-0.1-0.1,0-0.2c0,0,0,0,0,0
		c0.9-0.5,1.8-0.5,2.8-0.3c0.5,0.1,0.9,0.4,1.3,0.8c0.4,0.4,0.6,0.9,0.9,1.3C84.4,15.9,84.3,16.9,84.1,17.8z"/>
	<path class="st0" d="M81,62.9c0,0,7-1.3,10.9,2.3c3.7,3.4,9.6,4.9,8,11.2c-1.6,6.3-2.8,7.1-4,10.4c-1.2,3.3-4.5,5.4-4.9,4
		s-2-10.3-3.7-13.5C85.7,74.2,81,62.9,81,62.9z"/>
	<path class="st8" d="M33.3,96.3c0,0,4.3-5.4,7-6c2.7-0.6,7-0.2,8.3-0.6c1.3-0.4,3.2-1.4,3.2-1.4l0.5,2.3c0,0-7.9,4.5-10.8,5.1
		c-2.8,0.6-8.3,1.5-8.3,1.5L33.3,96.3z"/>
	<path class="st1" d="M73.8,41.4c0,0-9.5,1.5-16.5-3.5C56.5,38,56.4,39,56.4,39s1.2,6.6,1.3,6.7s6.1-1.3,6.5-1
		c0.4,0.3,3.8,2.1,4.4,2.7s5.6,5.8,6.2,6.6c-1.1-2.1-2.1-7.8,0-9.4s4.7-5.1,7.3-2.7s7.4,4,7.4,4s-7.1-6.1-7.8-6.7
		c-0.7-0.5-3.3-0.1-3.3-0.1S77,40.9,73.8,41.4z"/>
	<path class="st6" d="M128,117.1c0-0.9-0.3-1.8-0.6-2.7c-0.6-1.7-1.8-3.2-3.2-4.4c-1.4-1.1-3.2-1.8-4.9-2l-0.7-0.1l-0.7,0
		c-0.4,0-0.9,0.1-1.3,0.1l-2.5,0.4c-2.7,0.4-5.4,0.8-8.1,1.2c3.6-2.3,6.6-5.5,8.6-9.2c1.6-2.9,2.7-6.2,3.2-9.5
		c0.6-3.3,0.6-6.7,0.4-10l-0.2-2.5l-0.4-2.5c-0.1-0.8-0.4-1.6-0.6-2.5c-0.2-0.8-0.5-1.6-0.7-2.4c-1.1-3.2-2.6-6.3-4.5-9.1
		c-1.9-2.8-4.2-5.3-6.7-7.6c-1.3-1.1-2.6-2.2-3.9-3.2c-1.4-1-2.9-1.8-4.4-2.6c-0.8-0.4-1.5-0.7-2.3-1l-1.1-0.5
		c-0.4-0.2-0.7-0.4-1.1-0.6c-1.4-0.8-2.8-1.6-4.1-2.6c-2.7-1.9-7.2-6.8-7.1-6.9c0.6-0.8,1.2-1.5,1.7-2.5c0,0,0-0.1,0-0.1
		c0,0,0-0.1,0-0.1c0,0,0,0,0,0c1.4-3.3,2-6.9,2.3-9.1c0-0.2,0.1-0.4,0.1-0.6c3.7-3.4,4.3-8.6,1.5-12.3c-3-4-8.4-3.3-10.9-2.7
		C68.4,6,59.8,9,58.2,9.7c-1.4-0.3-7.6-1.1-10.5,3.1c-3.2,4.6-0.3,9.6,2.1,12.1c-0.7,7.7,4,12,5.6,13.4c0.1,0.1,0.1,0.1,0.2,0.1v0
		c0,0.1-0.2,4.7,1.3,6.8c-4.9,4.1-7.4,14.2-7.8,23.9c-2,0.5-4,1.2-5.9,2c-1,0.5-2.1,1-3,1.5c-1,0.5-2,1.1-2.9,1.8
		c-0.5,0.3-0.9,0.7-1.3,1.1c-0.4,0.4-0.9,0.8-1.3,1.2c-0.8,0.8-1.6,1.6-2.4,2.3c-1.7,1.4-3.6,2.6-5.7,3.4c-1,0.4-2.1,0.7-3.1,1
		c-0.3,0.1-0.5,0.1-0.8,0.2l-0.4,0.1L21.9,84c-0.6,0.2-1.1,0.4-1.7,0.7c-0.9,0.4-1.7,0.9-2.5,1.4c-1.2-1.3-2.5-2.4-3.8-3.6
		c-0.3-0.3-0.7-0.6-1.1-0.9c-0.2-0.1-0.4-0.2-0.7-0.4c-0.2-0.1-0.4-0.2-0.7-0.3c-0.9-0.4-2-0.6-3-0.5c-1,0.1-2,0.3-2.9,0.8
		c-0.9,0.4-1.7,1-2.4,1.6c-0.7,0.6-1.3,1.4-1.8,2.2c-0.5,0.8-0.9,1.7-1.1,2.6c-0.5,1.9-0.3,4,0.7,5.8c0.5,0.9,1.2,1.7,1.9,2.4
		c0.7,0.6,1.3,1.2,2,1.8c2.6,2.2,5.1,5.1,8,7c-0.4,2.7-0.6,5.2,1.7,7.1c0.5,0.4,1.1,0.6,1.8,0.6c0.1,0,0.2,0,0.3,0l0.1,0
		c2.3-0.2,3.8-0.9,5-2.8c1.2,0.7,6.9,3.1,8.4,3.8c0.7,0.4,1.4,0.7,2.1,1c0,0,0.1,0,0.1,0.1c-0.1,0-0.2,0.1-0.3,0.1l-0.6,0.1
		l-0.3,0.1l-4.6,0.9c-0.4,0.1-0.8,0.2-1.3,0.3c-0.3,0.1-0.7,0.3-1,0.6c-0.2,0.3-0.4,0.7-0.4,1.1c0,0.4,0.2,0.8,0.4,1.1
		c0.1,0.2,0.3,0.3,0.5,0.4c0.1,0,0.2,0.1,0.3,0.1l0.2,0.1l1.2,0.4l1.2,0.4l0.6,0.2c0.2,0.1,0.4,0.1,0.7,0.2c0.9,0.2,1.9,0.3,2.8,0.1
		c0.5-0.1,1-0.2,1.3-0.3l1.2-0.3c0.8-0.2,1.6-0.4,2.4-0.6c1.6-0.4,3.3-0.7,4.8-0.9c0.2,0,0.4,0,0.4,0l0,0l0.3,0.1l1.2,0.4l2.4,0.7
		c1.6,0.5,3.2,1,4.9,1.4c3.3,0.9,6.5,1.6,9.8,2.3c1.7,0.3,3.3,0.6,5,0.8c1.7,0.2,3.4,0.3,5,0.4c3.4,0.2,6.7,0.2,10.1,0.3
		c6.7,0.1,13.4,0.2,20,0.7c3.3,0.3,6.6,0.8,9.9,1.3l4.9,0.8c0.4,0.1,0.8,0.2,1.3,0.2l0.7,0.1c0.2,0,0.5,0,0.7,0
		c0.9,0,1.8-0.1,2.7-0.4c1.7-0.5,3.4-1.5,4.6-2.9c1.2-1.4,2.1-3.1,2.3-4.9l0.1-0.7c0-0.2,0-0.5,0-0.7C128,118,128,117.6,128,117.1z
		 M62.1,45.3c7,0.1,18.9,18.4,23.5,30.7c0,0,0,0.1,0.1,0.1c0,0,0,0.1,0,0.1l0,0c0.8,1.7,1.5,3.4,2.1,5.2c0.6,1.8,1.3,3.5,1.8,5.3
		c0.5,1.8,1,3.6,1.3,5.5c0.3,1.9,0.5,3.7,0.5,5.6c0.2-1.9,0.2-3.8,0-5.7c-0.1-1.9-0.5-3.8-0.8-5.7c-0.4-1.9-0.8-3.7-1.3-5.6
		c-0.5-1.8-1-3.7-1.7-5.5c0,0,0-0.1,0-0.1c0,0,0,0,0-0.1c0,0,0,0,0,0c-4.2-11.1-16.5-31.8-25.3-31.9H62c-1.4,0-2.6,0.4-3.8,1
		c-0.8-1.1-1.1-4.4-1-5.6l0-0.2l0-0.2c0.1-0.5-0.2-0.8-0.7-1.3c-1.4-1.3-5.8-5.3-5-12.4l0-0.4L51.2,24c-2.1-2-4.9-6.4-2.2-10.3
		c2.6-3.7,9-2.4,9-2.4l0.3,0.1l0.2-0.1c0.1,0,9.3-3.9,16.8,0.2l0.3,0.2l0.3-0.1c2.5-0.6,7.1-1.2,9.5,2c2.4,3.2,1.8,7.4-1.5,10.3
		l-0.2,0.2l0,0.3c0,0.3-0.1,0.6-0.1,0.9c-0.3,2.1-0.8,5.6-2.2,8.7c0,0,0,0.1,0,0.1c0,0,0,0.1-0.1,0.1l0,0c-0.3,0.8-0.7,1.6-1.1,2.3
		c-0.5,0.8-1,1.5-1.7,2.1c-0.6,0.6-1.4,1.2-2.1,1.7c-0.8,0.5-1.6,0.8-2.5,1c0.9-0.1,1.8-0.3,2.7-0.6c0.9-0.4,1.7-0.8,2.5-1.4
		c0.6-0.5,3.8,1.1,5,2.3c1.2,1.2,2.4,2.4,3.7,3.4c1.3,1.1,2.7,2,4.1,2.9c0.4,0.2,0.7,0.4,1.1,0.6l1.1,0.6c0.8,0.4,1.5,0.7,2.2,1.1
		c1.4,0.8,2.8,1.6,4.1,2.6c1.3,1,2.5,2,3.8,3.1c1.2,1.1,2.3,2.3,3.4,3.5l0.8,0.9c0.3,0.3,0.5,0.6,0.8,1l0.8,1l0.7,1
		c0.3,0.5,0.7,1,1,1.5c1.4,2.2,2.7,4.6,3.7,7.1c0.3,0.8,0.6,1.5,0.8,2.3c0.2,0.8,0.5,1.6,0.7,2.4l0.5,2.4l0.3,2.4l0.1,0.6l0,0.6
		l0.1,1.2c0,0.8,0.1,1.6,0.1,2.5c0,1.6-0.2,3.3-0.4,4.9c-0.3,1.6-0.7,3.2-1.2,4.8c-0.3,0.8-0.6,1.5-0.9,2.3
		c-0.2,0.4-0.4,0.7-0.5,1.1c-0.2,0.4-0.4,0.7-0.6,1.1c-1.7,2.8-3.9,5.2-6.5,7.1c-1.3,0.9-2.7,1.7-4.2,2.4c-1.5,0.7-3,1.2-4.6,1.5
		c-1.6,0.4-3.1,0.6-4.8,0.7c-1.6,0.1-3.3,0.2-4.9,0.2c-3.3,0-6.6-0.1-9.7-0.6c-1.6-0.3-3.2-0.6-4.6-1.2c-0.4-0.1-0.7-0.3-1-0.5
		c-0.3-0.2-0.6-0.4-0.9-0.6c-0.1-0.1-0.2-0.2-0.4-0.3c-0.1-0.1-0.3-0.2-0.4-0.4c-0.2-0.3-0.5-0.6-0.7-0.9c-1.9-2.5-3.4-5.5-4.8-8.4
		c-1.4-3-2.5-6-3.4-9.2c-0.2-0.8-0.4-1.6-0.6-2.4l-0.2-1.2l-0.2-1.2c-0.3-1.6-0.3-3.2-0.2-4.8c0.2-1.1,0.5-2.3,0.9-3.4
		c0.3-1.1,0.7-2.4,0.8-3.6c0.1-0.6,0-1.2,0-1.8c0-0.6,0-1.2,0-1.8c0-1.2,0-2.4,0.1-3.6c0-0.1,0-0.1-0.1-0.1c-0.1,0-0.1,0-0.1,0.1
		c-0.2,1.2-0.3,2.4-0.4,3.6c-0.1,1.2-0.1,2.4-0.3,3.5c-0.2,1.1-0.5,2.2-0.9,3.4c-0.4,1.1-0.8,2.3-1.1,3.5l0,0v0
		c-0.5,3.4,0,6.8,0.8,10.1c0.8,3.3,1.9,6.5,3.2,9.5c0.2,0.5,0.5,1.1,0.7,1.6c1.1,2.4,2.3,4.7,3.9,7c-1.1,2-2.9,1.8-5.8,1.4
		c-0.6-0.1-1.1-0.2-1.7-0.2c-1.9-0.2-10.4-5.4-14.2-8.1c4.7-0.7,6.9,0.7,6.9,0.8l2.3,1.6l-0.8-2.7c0,0-0.3-1-0.7-2.6
		c-1.5-5.5-4.7-18.6-4.5-28.3c0.1-2.6,0.3-5.2,0.6-7.6C53,53.2,56.6,45.2,62.1,45.3z M53.8,100c-1.7-0.4-4.4-0.7-8.2,0.1l-6.2-3
		c3.4-1.1,7.5-3,12.3-5.6C52.5,95.1,53.3,98.1,53.8,100z M21,86.3c0.5-0.3,0.9-0.5,1.4-0.7l0.3-0.1l0.4-0.2c0.3-0.1,0.5-0.2,0.8-0.3
		c1.1-0.4,2.1-1,3.1-1.6c2-1.2,3.8-2.5,5.6-3.8c0.9-0.7,1.8-1.4,2.7-2c0.9-0.6,1.9-1.2,2.8-1.7l5.7-3.3c1.7-1,3.4-1.9,5.2-3
		c0,0.3,0,0.6,0,0.8c0,1.6,0,3.2,0.1,4.9c-2.4,1-10.7,4.6-15.6,8.7c-3.4,2.8-6.4,4.5-10.5,5.8c-0.9,0.3-1.7,0.8-2.4,1.4
		c-1,0.9-4.2,3.7-6,6.6c-0.2,0.3-0.4,0.7-0.6,1c-0.3,0.5-0.4,1.1-0.6,1.7c0-0.1-0.1-0.2-0.1-0.3c-0.2-0.5-0.3-1-0.3-1.5
		c0-0.6,0-1.1,0.2-1.7c0.1-0.5,0.2-1,0.3-1.4c0.1-0.5,0.2-1.1,0.3-1.7c0.1-0.5,0.2-1,0.4-1.4c0.4-0.8,1-1.6,1.8-2.3
		C17.5,88.7,19.2,87.4,21,86.3z M1.6,90.3c-0.2-0.8-0.3-1.6-0.3-2.5c0-0.8,0.3-1.7,0.7-2.5c0.4-0.8,1-1.5,1.6-2
		C5,82.3,6.8,82,8.4,82.1c0.8,0.1,1.6,0.2,2.4,0.5c0.2,0.1,0.4,0.1,0.6,0.2c0.2,0.1,0.4,0.2,0.5,0.3c0.3,0.2,0.7,0.4,1.1,0.7
		c1.4,0.9,2.9,1.8,4.4,2.5c-1,0.7-2,1.5-2.9,2.4c-0.4,0.4-0.8,0.9-1.2,1.4c-0.4,0.5-0.7,1.1-0.9,1.7c-0.2,0.6-0.3,1.2-0.3,1.9
		c0,0.6,0,1.1-0.1,1.7c0,0.3,0,0.6-0.1,1c0,0.8,0,1.7,0.2,2.5c0.1,0.6,0.4,1.2,0.7,1.7c0.2,0.2,0.4,0.4,0.6,0.6
		c-0.1,0.4-0.4,0.6-0.7,0.6c-0.2,0-0.4-0.1-0.5-0.2c-1.8-2-3.8-3.6-5.8-5.5c-0.7-0.6-1.4-1.2-2.1-1.8c-0.7-0.5-1.2-1.1-1.6-1.7
		C2.2,91.9,1.8,91.1,1.6,90.3z M20.6,107.9c-0.9,1.4-2.4,2.3-4.1,2.5l-0.1,0c-0.2,0-0.4,0-0.5-0.1c-1.4-1.2-1.3-3.7-0.9-6
		c0-0.4,0.1-0.7,0.2-1c0.1-0.5,0.2-1,0.2-1.5c0.1-0.8,0.3-1.4,0.6-2c0.1-0.2,0.3-0.5,0.4-0.8c1.3-2.1,3.7-4.6,5.7-6.2
		c0.5-0.4,1.1-0.8,1.8-1c4.3-1.4,7.6-3.3,11.1-6.2c4.3-3.6,11.6-6.9,14.5-8.2c0.4,4.1,1.1,8.3,1.9,12c-7.5,4.3-13.5,6.6-17.4,6.7
		c-4.1,0.1-5.5,1.7-8.2,4.5c-0.5,0.5-1,1-1.6,1.6c-0.5,0.5-1,1.1-1.3,1.6c-0.7,1-1.1,1.9-1.4,2.7c-0.2,0.4-0.4,0.8-0.5,1.1
		C20.7,107.7,20.6,107.8,20.6,107.9z M31.8,115.9l0.6-0.2l0.3-0.1c0.1,0,0.3-0.1,0.5-0.2c0.4-0.3,0.5-0.7,0.4-1.2
		c0-0.2-0.1-0.4-0.3-0.6c-0.1-0.2-0.4-0.3-0.4-0.3c-0.8-0.3-1.5-0.6-2.3-1c-2.8-1.2-4.9-3.7-7.6-5c0.2-0.3,0.7-1.5,1.4-2.5
		c0.3-0.5,0.7-1,1.1-1.4c0.6-0.6,1.1-1.1,1.6-1.6c2.6-2.7,3.6-3.7,6.9-3.8c0.8,0,1.7-0.1,2.6-0.3l8.4,4.1c2,1.8,14,9.5,16.9,9.8
		c0.5,0,1,0.1,1.6,0.2c0.9,0.1,1.9,0.3,2.8,0.3c1.7,0,3.3-0.4,4.5-2c0.3,0.3,0.6,0.5,0.8,0.8c0.4,0.2,0.8,0.5,1.2,0.7
		c0.4,0.2,0.8,0.4,1.2,0.6c1.7,0.7,3.4,1,5,1.2c3.4,0.5,6.7,0.5,10.1,0.4c1.7-0.1,3.3-0.2,5-0.3c1.7-0.1,3.4-0.4,5-0.9
		c2.2-0.6,3.1-0.8,5.1-2c3.9,0.6,8.4-0.9,10.1-1.1l2.5-0.3c0.4,0,0.8-0.1,1.2,0l0.6,0l0.6,0.1c1.5,0.2,3,0.9,4.1,1.9
		c0,0,0,0,0.1,0.1c1.1,1,2,2.3,2.5,3.7c0.2,0.7,0.4,1.5,0.4,2.2c0,0.4,0,0.8,0,1.2c0,0.2,0,0.4,0,0.6l-0.1,0.6c-0.3,1.5-1,2.9-1.9,4
		c-1,1.1-2.3,2-3.7,2.5c-0.7,0.2-1.5,0.4-2.2,0.4c-0.2,0-0.4,0-0.6,0l-0.6,0c-0.4,0-0.8-0.1-1.2-0.1c-1.7-0.2-3.3-0.4-5-0.6
		c-1.7-0.2-3.3-0.3-5-0.5c-1.7-0.2-3.3-0.3-5-0.4c-6.7-0.4-13.4-0.7-20-1.1c-3.3-0.2-6.7-0.5-10-0.8c-3.3-0.3-6.6-0.7-9.8-1.4
		c-3.2-0.7-6.5-1.5-9.7-2.4l-4.8-1.4l-2.4-0.7l-1.2-0.4l-0.3-0.1l-0.1,0c-0.1,0-0.3-0.1-0.4-0.1c-0.4,0-0.6,0-0.8,0.1
		c-1.8,0.3-3.4,0.7-5,1.1c-0.8,0.2-1.6,0.4-2.5,0.6c-0.4,0.1-0.8,0.2-1.2,0.4c-0.4,0.1-0.7,0.2-1.1,0.3c-0.7,0.1-1.4,0.1-2.1,0
		c-0.2,0-0.4-0.1-0.5-0.1l-0.6-0.2l-1.2-0.4l-1.2-0.4l-0.1,0c0,0,0,0,0,0c0,0,0,0,0,0c0,0,0,0,0,0c0,0,0-0.1,0-0.1c0,0,0,0,0.1,0
		c0.4-0.1,0.8-0.2,1.2-0.3C28.5,116.8,30.1,116.4,31.8,115.9z"/>
	<path class="st9" d="M81.9,100.9c-0.3,0.3-0.6,0.5-1,0.4c-3.8-0.1-11.1-11.8-15.1-15.7c-3.9-3.9-3.3-8.8-3-10
		c0.3-1.2,0.8-9.2,0.8-9.2s0.9-5.4,6.2-2.1c0.4,1.2,0.6,2,0.6,2s7.1,18.2,9,25.5C80.5,95.5,80.9,98.7,81.9,100.9z"/>
	<path class="st1" d="M69.4,108.6c-1.1,2-2.9,1.8-5.8,1.4c-0.6-0.1-1.1-0.2-1.7-0.2c-1.9-0.2-10.4-5.4-14.2-8.1
		c4.7-0.7,6.9,0.7,6.9,0.8l2.3,1.6l-0.8-2.7c0,0-0.3-1-0.7-2.6c1.7,2,4.3,3.8,5.2,3.8c1,0,3.8,1.4,4.8-0.9
		C66.6,104,67.8,106.3,69.4,108.6z"/>
	<g>
		<path class="st6" d="M92.2,14.7c0-0.2-0.1-0.4-0.1-0.6L92,13.6c-0.1-0.4-0.3-0.7-0.4-1.1c-0.2-0.3-0.4-0.7-0.6-1
			c-0.2-0.3-0.5-0.6-0.7-0.8c-1-1.1-2-2-3.1-3l-1.6-1.4c-0.3-0.2-0.5-0.5-0.8-0.7C84.4,5.3,84,5.1,83.5,5c-0.5-0.1-1,0-1.4,0.1
			c-0.2,0.1-0.4,0.2-0.6,0.3c-0.1,0.1-0.2,0.1-0.3,0.2L81,5.9c-0.5,0.5-1,0.9-1.5,1.4c-1,1-1.9,2-2.7,3.2c0,0,0,0.1,0,0.1
			c0,0.1,0.1,0.1,0.1,0c1.3-0.6,2.5-1.4,3.6-2.2c0.6-0.4,1.1-0.8,1.6-1.3l0.2-0.2L82.5,7c0.1-0.1,0.2-0.1,0.3-0.1
			c0.2-0.1,0.4-0.1,0.6-0.1c0.2,0,0.5,0,0.7,0.1C84.4,6.9,84.7,7,85,7.2c0.6,0.3,1.2,0.6,1.8,1c1.1,0.8,2,1.9,2.6,3.1
			c0.6,1.2,0.9,2.4,1,3.6c0,0.6-0.1,1.2-0.2,1.8c-0.2,0.6-0.3,1.2-0.6,1.7c-0.9,2.3-2.7,4.4-4.6,6.5c0,0,0,0.1,0,0.1
			c0,0.1,0.1,0.1,0.1,0.1c1.3-0.5,2.6-1.3,3.7-2.2c1.1-1,2.1-2.1,2.7-3.5C92.2,17.9,92.5,16.3,92.2,14.7z"/>
		<path class="st6" d="M55.7,7.3c-0.5-0.5-1-1-1.5-1.4l-0.2-0.2c-0.1-0.1-0.2-0.2-0.3-0.2c-0.2-0.1-0.4-0.2-0.6-0.3
			C52.6,5,52.1,5,51.6,5c-0.5,0.1-0.9,0.3-1.3,0.5c-0.3,0.2-0.6,0.5-0.8,0.7L48,7.7c-1,0.9-2.1,1.9-3.1,3c-0.2,0.3-0.5,0.6-0.7,0.8
			c-0.2,0.3-0.4,0.6-0.6,1c-0.2,0.3-0.3,0.7-0.4,1.1L43,14.2c0,0.2-0.1,0.4-0.1,0.6c-0.2,1.6,0,3.2,0.7,4.6c0.7,1.4,1.6,2.6,2.7,3.5
			c1.1,1,2.3,1.7,3.7,2.2c0,0,0.1,0,0.1,0c0,0,0-0.1,0-0.1c-1.9-2.1-3.6-4.1-4.6-6.5c-0.2-0.6-0.4-1.2-0.6-1.7
			c-0.1-0.6-0.2-1.2-0.2-1.8c0.1-1.2,0.4-2.4,1-3.6c0.6-1.2,1.5-2.3,2.6-3.1c0.5-0.4,1.1-0.7,1.8-1c0.3-0.1,0.6-0.3,0.9-0.4
			c0.2-0.1,0.5-0.1,0.7-0.1c0.2,0,0.4,0.1,0.6,0.1c0.1,0,0.2,0.1,0.3,0.1l0.1,0.1L53,7.2c0.5,0.4,1.1,0.9,1.6,1.3
			c1.1,0.8,2.3,1.6,3.6,2.2c0,0,0.1,0,0.1,0c0,0,0.1-0.1,0-0.1C57.6,9.3,56.6,8.3,55.7,7.3z"/>
	</g>
	<path class="st10" d="M70.9,20.9c0-0.7,0.3-1.3,0.8-1.8c0.5-0.5,1.2-0.8,1.9-0.8h0c1.5,0,2.6,1.2,2.6,2.6c0,0.7-0.3,1.3-0.8,1.8
		c-0.5,0.5-1.2,0.8-1.9,0.8c0,0,0,0,0,0C72.1,23.5,70.9,22.3,70.9,20.9z"/>
	<path class="st6" d="M74.4,20.8c0,0.4-0.4,0.8-0.8,0.8c-0.5,0-0.8-0.4-0.8-0.8c0-0.4,0.4-0.8,0.8-0.8C74,20,74.4,20.4,74.4,20.8z"
		/>
	<path class="st10" d="M63,22.8c-0.5,0.5-1.2,0.8-1.9,0.8c0,0,0,0,0,0c-1.5,0-2.6-1.2-2.6-2.6c0-0.7,0.3-1.3,0.8-1.8
		c0.5-0.5,1.2-0.8,1.9-0.8c0,0,0,0,0,0c1.5,0,2.6,1.2,2.6,2.6C63.8,21.6,63.5,22.3,63,22.8z"/>
	<path class="st6" d="M62,20.9c0,0.4-0.4,0.8-0.8,0.8c-0.5,0-0.8-0.4-0.8-0.8c0-0.4,0.4-0.8,0.8-0.8C61.6,20.1,62,20.5,62,20.9z"/>
</g>
</svg>
