<?xml version="1.0" encoding="utf-8"?>
<!-- Generator: Adobe Illustrator 24.1.2, SVG Export Plug-In . SVG Version: 6.00 Build 0)  -->
<svg version="1.1" id="Layer_1" xmlns="http://www.w3.org/2000/svg" xmlns:xlink="http://www.w3.org/1999/xlink" x="0px" y="0px"
	 viewBox="0 0 128 128" style="enable-background:new 0 0 128 128;" xml:space="preserve">
<style type="text/css">
	.st0{fill:#ACDEF9;}
	.st1{fill:#BDD8E5;}
	.st2{fill:#936047;}
	.st3{fill:#A3A9AE;}
	.st4{fill:#DB5240;}
	.st5{fill:#898989;}
	.st6{fill:#EAE4D6;}
	.st7{fill:#2D2D2D;}
</style>
<g>
	<path class="st0" d="M78.9,78.2c-2.1,2.2-4.5,4.1-7.2,5.5c-2.5,1.4-5.3,2.4-8.1,2.7c0.1,0.3,0.2,0.6,0.4,0.8
		c1.1,2.1,2.5,3.9,4.2,5.5c1.7,1.5,3.6,2.8,5.8,3.7c2.1,0.9,4.4,1.5,6.7,1.7c2.3,0.2,4.8,0,7.1-0.8c2.3-0.8,4.4-2.1,6.2-3.8
		c1.7-1.7,3-3.8,3.8-6.1c0.8-2.3,1-4.7,0.8-7c-0.4-4.6-2.4-8.9-5.7-12.1c-1.9-1.9-4.3-3.3-6.8-4.2c-0.2,2.3-0.9,4.5-1.9,6.6
		C82.8,73.5,81,76,78.9,78.2z"/>
	<path class="st1" d="M67.8,67.8c-3.6,3.1-5.8,7.8-5.6,12.6c0,2,0.5,4,1.3,5.8c2.5-1.3,4.8-2.8,6.9-4.4c2.2-1.7,4.4-3.6,6.3-5.6
		c2-2,3.7-4.2,5.4-6.5c1.2-1.8,2.3-3.7,3.2-5.7c-1.5-0.5-3.1-0.7-4.7-0.8C76,63.1,71.4,64.7,67.8,67.8z"/>
	<path class="st2" d="M104.4,98.8c-0.7,0.8-1.5,1.5-2.2,2.3c-1.2,1.2-2.4,2.3-3.6,3.4c4.6,3.9,8.9,8.1,13,12.5
		c1.1,1.2,2.1,2.4,3.2,3.6l3.1,3.6c1.3,1.9,4.6,1.7,6.9-0.1c1.1-0.9,2-2.2,2.2-3.7c0.1-0.7,0.1-1.5-0.2-2.1
		c-0.2-0.7-0.7-1.2-1.3-1.7c-2.5-2-5.2-3.8-7.7-5.8c-1.3-1-2.5-2.1-3.6-3.1c-1.2-1.1-2.3-2.2-3.5-3.3c-2-2-3.9-4-5.8-6.1L104.4,98.8
		z"/>
	<path class="st3" d="M80.6,57.2c-6.1,0.4-12,3-16.2,7.2c-4.2,4.2-6.8,10-6.9,16c-0.1,6,2.1,12,6.3,16.5c2.1,2.2,4.7,4.1,7.6,5.3
		c2.9,1.2,6,1.9,9.2,1.8c3.1,0,6.3-0.8,9.1-2.1c2.8-1.3,5.3-3.1,7.4-5.3c4.2-4.4,6.7-10.1,7.1-16.2c0.2-3-0.2-6.2-1.3-9.1
		c-1.1-2.9-2.8-5.6-5.1-7.9c-2.3-2.2-5-3.9-8-5C86.8,57.4,83.7,57,80.6,57.2z M95.1,66.1c1.8,1.9,3.4,4.1,4.3,6.6
		c1,2.5,1.3,5.1,1.1,7.7c-0.4,5.2-2.9,9.8-6.4,13.3c-3.5,3.4-8.2,5.9-13.5,6.3c-2.6,0.2-5.3-0.2-7.7-1.2c-2.5-1-4.7-2.5-6.5-4.4
		c-1.8-1.9-3.1-4.2-4-6.6c-0.8-2.4-1.2-4.9-1.2-7.4c0.1-5,2-10,5.4-13.8c1.7-1.9,3.8-3.5,6.2-4.6c2.4-1.1,5-1.7,7.7-1.7
		c2.7-0.1,5.3,0.4,7.8,1.4C90.9,62.7,93.2,64.2,95.1,66.1z"/>
	<path class="st4" d="M50.2,67.7c-0.1-2.1-0.4-4.2-0.6-6.4c-0.5-4.2-0.5-8.5-0.6-12.7c0-2.1,0-4.2,0-6.4l0.1-3.2l0-1.6l0-0.3l-0.5,0
		l-1.6,0c-1.1,0-2.1-0.1-3.2-0.1c-2.1-0.1-4.3-0.3-6.4-0.4c-0.1,0-0.2,0-0.3,0.2l-0.1,1.6c-0.1,1.1-0.1,2.1-0.1,3.2
		c-0.1,2.1-0.1,4.2,0,6.4c0.1,4.2,0.6,8.5,0.8,12.7c0.1,2.1,0.1,4.2,0.1,6.4c0,1.1-0.1,2.1-0.1,3.2c0,0.5-0.1,1.1-0.1,1.6l0,0.4
		l0,0.2c0,0.1,0,0.2,0,0.1c0,0,0,0,0,0c0,0,0,0,0,0c0,0,0,0,0.1,0l0.8,0.1l1.6,0.1c1.1,0.1,2.1,0.2,3.2,0.3c2.1,0.1,4.3,0.2,6.4,0.2
		c0.5,0,0.9-0.4,0.8-0.9l-0.1-1.6C50.3,69.8,50.3,68.8,50.2,67.7z"/>
	<path class="st5" d="M98.8,98.4c-1.7,1.5-3.6,2.8-5.6,3.9c0.6,0.4,1.1,0.8,1.7,1.2c0.4,0.3,0.9,0.7,1.3,1c0,0,0.1,0.1,0.1,0.1
		c0,0,0,0,0,0c0,0,0,0,0,0c0,0,0,0,0,0c0,0,0,0,0,0l0.1-0.1c1.4-1.6,2.9-3.1,4.4-4.6c0.8-0.7,1.5-1.5,2.3-2.2l1.2-1.1
		c0.2-0.2,0.4-0.4,0.6-0.5c0.1-0.1,0.1,0,0.1-0.1c0,0,0,0,0,0c0,0,0.1,0-0.2-0.2l-0.5-0.6l-1-1.2c-0.1-0.2-0.3-0.4-0.4-0.5
		C101.8,95.1,100.4,96.9,98.8,98.4z"/>
	<path class="st4" d="M48.9,16.7c-1.5-1.3-3.4-1.8-5.3-1.6c-1.8,0.2-3.4,1.1-4.5,2.4c-1.1,1.3-1.7,2.8-1.7,4.4
		c0,1.6,0.6,3.2,1.7,4.4c1.1,1.3,2.7,2.2,4.5,2.4c1.8,0.2,3.8-0.3,5.3-1.6c1.5-1.3,2.4-3.2,2.4-5.2C51.3,19.9,50.4,17.9,48.9,16.7z"
		/>
	<path class="st6" d="M7.8,65.2c2.5,3.9,5.5,7.4,9,10.3c3.5,2.9,7.5,5.3,11.8,7l1.6,0.6c0.5,0.2,1.1,0.4,1.6,0.6
		c1.1,0.3,2.2,0.6,3.4,0.9l3.4,0.6c0.6,0.1,1.2,0.2,1.7,0.2l1.7,0.1c4.3,0.4,8.7,0,13-0.9c-0.3-1.4-0.4-2.8-0.4-4.3
		c0-3.3,0.6-6.7,1.8-9.8c1.3-3.1,3.2-6,5.6-8.4c2.4-2.3,5.3-4.3,8.5-5.4c3.2-1.2,6.6-1.7,9.9-1.5c1.4,0.1,2.8,0.3,4.2,0.6
		c1-4.4,1.5-8.9,1.1-13.3c-0.1-1.2-0.1-2.3-0.3-3.4l-0.6-3.4c-0.3-1.1-0.6-2.2-1-3.3l-0.2-0.8l-0.3-0.8l-0.6-1.6
		C81,25,78.6,21,75.6,17.6c-3-3.4-6.6-6.4-10.5-8.7c-3.9-2.3-8.2-4.1-12.7-5c-4.5-1-9.1-1.2-13.7-0.7c-9.2,1-18,5-24.8,11.3
		C7.1,20.8,2.4,29.5,1.4,38.8c-0.5,4.6-0.2,9.3,0.9,13.8C3.4,57.1,5.3,61.3,7.8,65.2z M52,36.6l0,0.9l0,1.6l0.1,3.2
		c0,2.1,0,4.2,0,6.4c-0.1,4.2-0.2,8.5-0.6,12.7c-0.2,2.1-0.4,4.2-0.6,6.4c-0.1,1.1-0.1,2.1-0.2,3.2l-0.1,1.6c0,0.6-0.5,1.2-1.2,1.2
		c-2.1,0-4.3,0.1-6.4,0.2C42.1,74,41,74.1,40,74.2l-1.6,0.1l-0.8,0.1c-0.1,0-0.4,0-0.7,0c-0.3-0.1-0.5-0.2-0.7-0.3
		c-0.4-0.3-0.7-0.8-0.8-1.3l-0.1-0.9c0-0.5-0.1-1.1-0.1-1.6c-0.1-1.1-0.1-2.1-0.1-3.2c0-2.1,0-4.2,0.1-6.4c0.2-4.2,0.7-8.5,0.8-12.7
		c0-2.1,0-4.2,0-6.4c0-1.1-0.1-2.1-0.1-3.2l-0.1-1.6c0-0.4,0.1-0.9,0.4-1.2c0.3-0.4,0.8-0.6,1.3-0.6c2.1-0.1,4.3-0.3,6.4-0.4
		c1.1-0.1,2.1-0.1,3.2-0.1l1.6,0l0.8,0c0,0,0.5,0,0.8,0.1c0.3,0.1,0.6,0.2,0.9,0.4C51.6,35.4,52,36,52,36.6z M37.3,15.6
		c1.7-1.5,4.1-2.3,6.3-2c2.2,0.2,4.2,1.3,5.5,2.8c1.4,1.5,2.1,3.5,2.1,5.5c0,2-0.7,3.9-2.1,5.5c-1.3,1.5-3.3,2.6-5.5,2.8
		c-2.2,0.2-4.6-0.5-6.3-2c-1.8-1.5-2.8-3.9-2.8-6.2C34.5,19.5,35.6,17.2,37.3,15.6z"/>
	<path class="st7" d="M50.3,34.5c-0.3-0.1-0.7-0.1-0.8-0.1l-0.8,0l-1.6,0c-1.1,0-2.1,0.1-3.2,0.1c-2.1,0.1-4.3,0.3-6.4,0.4
		c-0.5,0-1,0.2-1.3,0.6c-0.3,0.3-0.5,0.9-0.4,1.2l0.1,1.6c0.1,1.1,0.1,2.1,0.1,3.2c0.1,2.1,0.1,4.2,0,6.4c-0.1,4.2-0.6,8.5-0.8,12.7
		c-0.1,2.1-0.1,4.2-0.1,6.4c0,1.1,0.1,2.1,0.1,3.2c0,0.5,0.1,1.1,0.1,1.6l0.1,0.9c0.1,0.5,0.4,1,0.8,1.3c0.2,0.2,0.4,0.3,0.7,0.3
		c0.2,0.1,0.6,0.1,0.7,0l0.8-0.1l1.6-0.1c1.1-0.1,2.1-0.2,3.2-0.3c2.1-0.1,4.3-0.2,6.4-0.2c0.6,0,1.2-0.6,1.2-1.2l0.1-1.6
		c0.1-1.1,0.1-2.1,0.2-3.2c0.1-2.1,0.4-4.2,0.6-6.4c0.5-4.2,0.5-8.5,0.6-12.7c0-2.1,0-4.2,0-6.4l-0.1-3.2l0-1.6l0-0.9
		C52,36,51.6,35.4,51.1,35C50.9,34.8,50.6,34.6,50.3,34.5z M49.6,73.4c-2.1,0-4.3-0.1-6.4-0.2C42.1,73.1,41,73,40,72.9l-1.6-0.1
		l-0.8-0.1c-0.2,0-0.1,0-0.1,0c0,0,0,0,0,0c0,0,0,0,0,0c0,0,0-0.1,0-0.1l0-0.2l0-0.4c0-0.5,0.1-1.1,0.1-1.6c0.1-1.1,0.1-2.1,0.1-3.2
		c0-2.1,0-4.2-0.1-6.4c-0.2-4.2-0.7-8.5-0.8-12.7c0-2.1,0-4.2,0-6.4c0-1.1,0.1-2.1,0.1-3.2l0.1-1.6c0-0.2,0.2-0.2,0.3-0.2
		c2.1,0.1,4.3,0.3,6.4,0.4c1.1,0.1,2.1,0.1,3.2,0.1l1.6,0l0.5,0l0,0.3l0,1.6l-0.1,3.2c0,2.1,0,4.2,0,6.4c0.1,4.2,0.2,8.5,0.6,12.7
		c0.2,2.1,0.4,4.2,0.6,6.4c0.1,1.1,0.1,2.1,0.2,3.2l0.1,1.6C50.5,72.9,50.1,73.4,49.6,73.4z"/>
	<path class="st7" d="M37.3,28.1c1.8,1.5,4.1,2.3,6.3,2c2.2-0.2,4.2-1.3,5.5-2.8c1.4-1.5,2.1-3.5,2.1-5.5c0,2-0.9,3.9-2.4,5.2
		c-1.5,1.3-3.4,1.8-5.3,1.6c-1.8-0.2-3.4-1.1-4.5-2.4c-1.1-1.3-1.7-2.8-1.7-4.4c0-1.6,0.6-3.2,1.7-4.4c1.1-1.3,2.7-2.2,4.5-2.4
		c1.8-0.2,3.8,0.3,5.3,1.6c1.5,1.3,2.4,3.2,2.4,5.2c0-2-0.7-3.9-2.1-5.5c-1.3-1.5-3.3-2.6-5.5-2.8c-2.2-0.2-4.6,0.5-6.3,2
		c-1.8,1.5-2.8,3.9-2.8,6.2C34.5,24.2,35.6,26.6,37.3,28.1z"/>
	<path class="st7" d="M72.9,62.1c-2.4,1.1-4.5,2.7-6.2,4.6c-3.5,3.8-5.3,8.8-5.4,13.8c-0.1,2.5,0.3,5,1.2,7.4c0.8,2.4,2.2,4.7,4,6.6
		c1.8,1.9,4,3.4,6.5,4.4c2.5,1,5.1,1.3,7.7,1.2c5.2-0.4,9.9-2.9,13.5-6.3c3.5-3.5,6-8.1,6.4-13.3c0.2-2.6-0.1-5.2-1.1-7.7
		c-0.9-2.5-2.4-4.7-4.3-6.6c-1.9-1.9-4.2-3.4-6.7-4.4c-2.5-1-5.2-1.4-7.8-1.4C77.9,60.4,75.3,61,72.9,62.1z M92.8,68.3
		c3.3,3.1,5.2,7.5,5.7,12.1c0.2,2.3,0,4.7-0.8,7c-0.8,2.3-2.1,4.4-3.8,6.1c-1.7,1.7-3.9,3-6.2,3.8c-2.3,0.8-4.7,1-7.1,0.8
		c-2.4-0.2-4.6-0.8-6.7-1.7c-2.1-0.9-4.1-2.2-5.8-3.7c-1.7-1.5-3.2-3.4-4.2-5.5c-0.1-0.3-0.2-0.6-0.4-0.8c2.9-0.3,5.6-1.3,8.1-2.7
		c2.7-1.5,5.1-3.4,7.2-5.5c2.1-2.2,3.9-4.7,5.2-7.4c1-2.1,1.7-4.3,1.9-6.6C88.6,65,90.9,66.4,92.8,68.3z M82.1,69.6
		c-1.6,2.3-3.4,4.5-5.4,6.5c-2,2-4.1,3.9-6.3,5.6c-2.2,1.6-4.4,3.1-6.9,4.4c-0.8-1.8-1.2-3.8-1.3-5.8c-0.1-4.8,2.1-9.5,5.6-12.6
		c3.6-3.1,8.2-4.7,12.8-4.6c1.6,0,3.2,0.3,4.7,0.8C84.4,66,83.3,67.8,82.1,69.6z"/>
	<path class="st7" d="M0.7,52.9c0.9,4.7,2.6,9.3,5,13.5c2.5,4.2,5.6,8,9.4,11.1c3.8,3.1,8.1,5.5,12.7,7.2l1.7,0.6l0.9,0.3
		c0.3,0.1,0.6,0.1,0.9,0.2c1.2,0.3,2.4,0.6,3.6,0.8l3.6,0.5c0.6,0.1,1.2,0.1,1.8,0.1l1.8,0c2.4,0.1,4.8-0.2,7.2-0.6
		c2-0.3,4-0.8,5.9-1.5c1.1,5,3.7,9.6,7.5,13c4.9,4.5,11.4,6.9,17.9,7c3.3,0,6.6-0.4,9.7-1.6c0.9-0.3,1.7-0.7,2.5-1.1
		c0.4,0.6,0.9,1.2,1.3,1.8c0.3,0.4,0.7,0.8,1,1.2c0.1,0.1,0.1,0.1,0.2,0.2c0.1,0.1,0.2,0.2,0.3,0.2c0.2,0.1,0.5,0.2,0.8,0.2
		c0.3,0,0.5-0.1,0.8-0.2c0.1-0.1,0.3-0.2,0.3-0.2l0.2-0.1c0.2-0.2,0.4-0.4,0.6-0.6c3.4,5,7.2,9.6,11.1,14.1c1,1.2,2.1,2.4,3.2,3.5
		l3.3,3.5c0.1,0.1,0.3,0.3,0.5,0.5c0.2,0.2,0.4,0.3,0.6,0.5c0.4,0.3,0.9,0.5,1.4,0.7c1,0.3,2,0.3,3,0.2c1.9-0.3,3.5-1.4,4.7-2.7
		c1.1-1.3,1.9-3,2-4.7c0.1-0.9,0-1.7-0.3-2.6c-0.3-0.8-0.8-1.6-1.5-2.2c-2.3-2.2-4.4-4.7-6.7-6.9c-1.1-1.1-2.3-2.2-3.6-3.2
		c-1.2-1-2.5-2-3.7-3c-2.2-1.7-4.4-3.4-6.8-4.9l0.1-0.1c0.2-0.2,0.4-0.4,0.5-0.6c0,0,0.3-0.3,0.4-0.6c0.1-0.2,0.1-0.5,0.1-0.8
		c0-0.3-0.1-0.5-0.3-0.7c-0.2-0.2-0.3-0.2-0.4-0.4l-0.6-0.5l-1.2-1c-0.2-0.2-0.5-0.4-0.7-0.5c0.4-0.8,0.8-1.6,1.2-2.4
		c1.3-3.1,1.8-6.5,1.6-9.7c-0.4-6.6-3.5-12.7-8-17.2c-3.5-3.4-7.9-6-12.9-7.2c0.7-2,1.3-4.2,1.7-6.3c0.4-2.3,0.7-4.7,0.6-7.1
		c0-1.2,0-2.4-0.1-3.6l-0.4-3.6c-0.2-1.2-0.5-2.3-0.8-3.5l-0.2-0.9l-0.3-0.9L85,28.4c-1.6-4.6-4.1-8.8-7.2-12.6
		c-3.1-3.8-6.9-7-11.1-9.5l-1.6-1c-0.5-0.3-1.1-0.5-1.7-0.8l-1.7-0.8c-0.3-0.1-0.6-0.3-0.8-0.4l-0.9-0.3c-1.2-0.4-2.3-0.9-3.5-1.2
		L53,0.8c-4.8-0.9-9.8-1.1-14.7-0.5c-9.8,1.2-19,6-25.7,12.9c-3.3,3.5-6,7.5-8.1,11.8c-2,4.3-3.5,8.9-4.1,13.6l-0.1,0.9l-0.1,0.9
		l-0.1,1.8C0.1,42.8,0,43.4,0,44l0.1,1.8C0,48.2,0.4,50.5,0.7,52.9z M110.7,104.3c1.1,1.1,2.3,2.2,3.5,3.3c1.2,1.1,2.4,2.2,3.6,3.1
		c2.5,2,5.2,3.8,7.7,5.8c0.6,0.4,1.1,1,1.3,1.7c0.2,0.7,0.3,1.4,0.2,2.1c-0.2,1.5-1.1,2.8-2.2,3.7c-2.2,1.8-5.6,2.1-6.9,0.1
		l-3.1-3.6c-1.1-1.2-2.1-2.4-3.2-3.6c-4.1-4.3-8.4-8.6-13-12.5c1.2-1.1,2.4-2.2,3.6-3.4c0.7-0.8,1.5-1.5,2.2-2.3l0.6-0.6
		C106.8,100.4,108.7,102.4,110.7,104.3z M103.3,93.8l1,1.2l0.5,0.6c0.3,0.3,0.2,0.2,0.2,0.2c0,0,0,0,0,0c0,0,0-0.1-0.1,0.1
		c-0.2,0.2-0.4,0.3-0.6,0.5l-1.2,1.1c-0.8,0.7-1.5,1.5-2.3,2.2c-1.5,1.5-3,3-4.4,4.6l-0.1,0.1c0,0.1,0,0,0,0c0,0,0,0,0,0
		c0,0,0,0,0,0c0,0,0,0,0,0c0,0-0.1-0.1-0.1-0.1c-0.4-0.3-0.8-0.7-1.3-1c-0.5-0.4-1.1-0.8-1.7-1.2c2-1,3.9-2.3,5.6-3.9
		c1.6-1.5,3-3.2,4.1-5.1C103,93.4,103.2,93.6,103.3,93.8z M89.8,58.4c3,1,5.7,2.8,8,5c2.2,2.2,4,4.9,5.1,7.9
		c1.1,2.9,1.5,6.1,1.3,9.1c-0.4,6.1-2.9,11.8-7.1,16.2c-2.1,2.2-4.6,4.1-7.4,5.3c-2.8,1.3-5.9,2.1-9.1,2.1c-3.1,0-6.3-0.6-9.2-1.8
		c-2.9-1.2-5.4-3.1-7.6-5.3c-4.2-4.5-6.4-10.5-6.3-16.5c0.1-6,2.7-11.8,6.9-16c4.2-4.3,10-6.8,16.2-7.2C83.7,57,86.8,57.4,89.8,58.4
		z M1.4,38.8c1-9.3,5.6-18,12.4-24.4C20.7,8.1,29.5,4.1,38.6,3.1c4.6-0.5,9.2-0.2,13.7,0.7c4.5,1,8.8,2.7,12.7,5
		c3.9,2.3,7.5,5.2,10.5,8.7c3,3.5,5.4,7.4,7.2,11.6l0.6,1.6l0.3,0.8l0.2,0.8c0.3,1.1,0.7,2.2,1,3.3l0.6,3.4c0.2,1.1,0.2,2.3,0.3,3.4
		c0.4,4.4-0.1,8.9-1.1,13.3c-1.4-0.3-2.8-0.5-4.2-0.6c-3.3-0.2-6.8,0.3-9.9,1.5c-3.2,1.2-6.1,3.1-8.5,5.4c-2.4,2.4-4.4,5.2-5.6,8.4
		c-1.3,3.1-1.9,6.5-1.8,9.8c0,1.4,0.2,2.9,0.4,4.3c-4.3,0.9-8.7,1.3-13,0.9l-1.7-0.1c-0.6-0.1-1.2-0.1-1.7-0.2l-3.4-0.6
		c-1.1-0.3-2.2-0.6-3.4-0.9c-0.6-0.1-1.1-0.3-1.6-0.6l-1.6-0.6c-4.3-1.7-8.3-4.1-11.8-7c-3.5-2.9-6.5-6.5-9-10.3
		c-2.5-3.9-4.4-8.1-5.5-12.6C1.2,48.1,0.9,43.4,1.4,38.8z"/>
</g>
</svg>
