<?xml version="1.0" encoding="utf-8"?>
<!-- Generator: Adobe Illustrator 23.0.0, SVG Export Plug-In . SVG Version: 6.00 Build 0)  -->
<svg version="1.1" id="Layer_1" xmlns="http://www.w3.org/2000/svg" xmlns:xlink="http://www.w3.org/1999/xlink" x="0px" y="0px"
	 viewBox="0 0 128 128" 
width="128" height="128"
style="enable-background:new 0 0 128 128;" xml:space="preserve">
<style type="text/css">
	.st0{fill:#C6C7BF;}
	.st1{fill:#E5B77A;}
	.st2{fill:#9C9E98;}
	.st3{fill:#7D7F7A;}
	.st4{fill:#DBAFBB;}
	.st5{fill:#D6ABB6;}
	.st6{fill:#2D2D2D;}
</style>
<g>
	<path class="st0" d="M61,117.6c0.1-0.7,0.3-1.4,0.7-2.1c0.4-0.6,0.7-1.1,1-1.6c0.7-1,1.4-2,2.1-3c0.4-0.5,0.8-1,1.2-1.5
		c0.1-0.1,0.2-0.2,0.3-0.4c0.1-0.1,0.2-0.1,0.2-0.2c0-0.1,0.4-0.3,0.5-0.3c0.1,0,0.2,0,0.3-0.1l0.1,0l0.1,0l0.3,0c0.2,0,0.3,0,0.5,0
		c1.3,0.1,2.5,0.2,3.7,0.4c0.1,0,0.2,0,0.3,0c0.2-10.4-3.9-11.9-4.3-12.1c-0.8,0.7-1.8,1.4-2.7,1.9c-1.3,0.8-2.6,1.5-4.1,2.1
		c-0.4,0.1-0.7,0.3-1.1,0.4c-0.4,0.1-0.8,0.2-1.1,0.3c-0.4,0.1-0.8,0.1-1.2,0.2c-0.4,0.1-0.8,0.1-1.2,0.1c-1.6,0.1-3.1-0.1-4.6-0.4
		c-3-0.7-5.8-2-8.3-3.8c0,0-0.1-0.1,0-0.1c0,0,0.1,0,0.1,0c3,0.6,5.8,1.4,8.6,1.9c1.4,0.2,2.8,0.5,4.2,0.6c1.4,0.1,2.8,0.1,4.3-0.1
		c1.4-0.2,2.8-0.7,4-1.6c1.2-0.9,2-2.1,2.7-3.3c0.8-1.2,1.5-2.4,2.1-3.7c0.2-0.3,0.3-0.7,0.5-1.1c-0.1,0.2-0.2,0.3-0.4,0.5
		c-0.8,1-1.8,1.8-2.9,2.5c-1.1,0.6-2.4,1-3.6,1.4c-1.2,0.4-2.4,0.9-3.7,1.1c-0.3,0.1-0.7,0.1-1,0.1c-0.4,0-0.7,0-1-0.1
		c-0.3,0-0.7-0.2-1-0.3c-0.3-0.1-0.6-0.2-0.9-0.4c-1.2-0.5-2.3-1.3-3.3-2.1c-1.9-1.8-3.4-3.9-4.4-6.1l0,0c0,0,0-0.1,0-0.1
		c0,0,0.1,0,0.1,0c2,1.5,3.8,3.2,5.6,4.7c0.9,0.7,1.8,1.5,2.8,2.1c1,0.6,2,1,3.1,1.2c1.1,0.2,2.4-0.1,3.5-0.6c1.1-0.5,2-1.4,2.9-2.2
		c0.9-0.8,1.9-1.5,2.8-2.2c0.8-0.6,1.8-2.6,1.9-3C75.1,73.2,85.6,67.9,89,66.1c0.3-0.2,0.6-0.3,0.8-0.4c7.4-4.6,31.6-16.2,35.3-17.8
		c0.6-0.8,0.3-1.7-0.1-2.3c-3.7,1.6-21.3,9.4-28.3,12.2c-7.8,3.2-20.1,9.5-20.3,9.6c0,0-0.1,0-0.1,0c-1.3,0.7-2.7,1.2-4,1.9
		c-1.4,0.7-2.7,1.3-4.1,1.8c-1.4,0.4-3.2,0.8-4.7,0.8c-1.5,0-3.9-0.6-5.2-1.1c0,0,0,0,0-0.1c0,0,4.2-2.2,5.8-3.3
		c1.7-1.1,3.3-2.3,4.9-3.5c0,0,0,0,0,0c5.4-4.3,35.4-19.5,48.2-26c2.1-1.1,3.9-2,4.9-2.5c-0.5-0.6-1-1.1-1.7-1.3
		c-2-0.7-4.4,0.6-4.4,0.6l-0.1,0c0,0-43.2,17.6-46.2,17.8c-0.5,0-1.1,0.1-1.6,0c-0.5-0.1-1.1-0.3-1.6-0.6l-0.1,0l-0.1-0.1
		c-1.4-2.2-3.5-3.9-5.9-4.5c-2.4-0.7-5.1-0.7-7.8-0.2c-2.7,0.4-4.7,2.4-6.6,4.3c-1,1-1.9,2-2.8,3.1c-0.4,0.5-1,1.1-1.5,1.5
		c-0.6,0.5-1.2,0.9-1.8,1.2c-2.4,1.5-5.1,2.5-7.3,3.7c-1.1,0.6-1.9,1.5-2.7,2.5c-0.8,1-1.5,2.2-2.4,3.4c-0.1,0.1-0.2,0.3-0.4,0.4
		L27,67.5c0,0-0.1,0.1-0.1,0.1c-0.2,0.2-0.3,0.5-0.5,0.8c-0.3,0.6-0.7,1.1-1,1.7c-0.6,1.2-1.3,2.4-1.9,3.6l-1.9,3.7l-0.9,1.8
		l-0.5,0.9l-0.2,0.5l-0.1,0.1c-0.1,1.2-0.3,2.4-0.7,3.6c-0.2,0.6-0.3,1.2-0.5,1.7c-0.2,0.6-0.4,1.1-0.6,1.7
		c-0.5,1.1-1.1,2.2-1.7,3.2c-0.7,1-1.2,2.1-1.7,3.2c-0.5,1.1-0.9,2.2-1.3,3.4c-0.4,1.1-0.9,2.3-1.5,3.3c-1,2.2-2.3,4.2-3.8,6.1
		c-0.6,1.4-0.9,3-1.1,4.5c-0.2,1.6-0.4,3.3-0.5,4.9c-0.2,3.3-0.2,6.6-0.2,9.9c0.6-0.1,1.2-0.2,1.8-0.3c2.6-0.4,5.3-1,7.9-1.4
		c1.3-0.2,2.7-0.4,4-0.5c1.4-0.1,2.7,0,4.1,0.1c2.7,0.3,5.3,0.7,8,1.1c2.6,0.4,5.3,0.7,7.9,0.8c2.6,0.1,5.3,0,7.9-0.3
		c2.6-0.3,5.3-0.8,7.9-1.3c2.6-0.5,4.7-1,7.5-1c0.1,0,0.2,0,0.4,0c-0.5-1-0.8-1.6-1.5-2.4C61.3,120.5,60.8,119,61,117.6z M54.4,72
		c0,0-0.7,2-2.3,2.6c-1.6,0.5-3.4-0.6-3.4-0.6s0.6-2.4,2.1-3C52.5,70.4,54.4,72,54.4,72z M39.2,66.3c-1.4,0.5-2.8,1.2-4.3,1.7
		c0,0-0.1,0-0.1-0.1c0,0,0-0.1,0-0.1l0,0c1.3-0.8,2.6-1.6,4-2.4c1.3-0.8,2.7-1.5,4.1-2.2c1.4-0.7,2.7-1.5,4.2-1.9
		c0.8-0.2,1.5-0.4,2.3-0.5c0.8-0.1,1.6-0.2,2.4-0.2c0.1,0,0.1,0,0.1,0.1c0,0,0,0.1,0,0.1c-1.3,1-2.7,1.7-4.1,2.3
		c-1.4,0.7-2.9,1-4.3,1.6C42,65.1,40.6,65.7,39.2,66.3z"/>
	<polygon class="st1" points="67.7,110.5 67.7,110.5 67.7,110.5 	"/>
	<path class="st2" d="M59.6,74c-1.7-0.2-2.9-1.7-2.7-3.4c0.2-1.6,0.8-3.5,2.4-4.8c3.2-2.6,5.1-6,10.5-7.2c5.4-1.2,14.1-7.8,18.6-9.7
		s19.2-7.6,21.3-8.4c4-1.6,10.1-9.1,13.8-4.7c-3.8,2-36.7,20-36.7,20L61.1,69.5l-1.5,1.3l3.1,0.8l4.2-0.3c0,0-0.6,1.7-2.2,2.4
		c-1,0.5-2.8,0.1-3.6,0.3C60.6,74,60.1,74,59.6,74z"/>
	<path class="st3" d="M66.7,51.9c-0.2-0.3-2.8-3-7.4-3.1c-4.6-0.1-9.3-0.7-11.9,1.2c3.8-3.4,3.8-4.7,8.1-4.1c4.3,0.6,6.9-0.5,8.4,1
		C65.5,48.6,66.7,51.9,66.7,51.9z"/>
	<path class="st2" d="M40.1,57.2c0.5-0.4-7,5.6-9.2,8.6c-2.2,3-2.2,9.4-5.4,12.8S20,90.2,18.4,94.3s-5.4,9-5.6,14.1
		c-0.2,5.1,1.7,14.1,1.9,14.8c0.2,0.8,0.6,1.8,0.6,1.8s-7.9,1.5-9.5,1.4c0-1.4-0.3-17,1.7-20.2s5.6-9.6,6.1-10.6
		c0.5-1,5.1-10.2,5.2-11.2c0.1-1,1.6-5.2,2.1-6.6c0.5-1.4,4.4-10.5,6.2-12.1c1.8-1.6,2.9-4.7,5.6-5.6C35.3,59.2,40.1,57.2,40.1,57.2
		z"/>
	<path class="st4" d="M67.2,70.7c-0.3,0.4-1.5,4.3-7.9,7.3s-11.1,6.9-10.4,9.6c0.7,2.7-0.1,4.2,0.9,7c1,2.8-0.3,5.7-0.3,5.7
		s4.3,2.1,7.7,1s7.8-1.1,10.6-4.8c2.7-3.8,4.2-9.3,4.7-11.4c0.5-2.1,4.8-10.5,9.4-13.5c4.7-3,23-12.9,27.4-14.6
		c4.4-1.7,16.6-8.5,16.6-8.5s-0.2-3.8-0.8-4.2c-2.3,1.3-38.4,17-38.4,17l-14.6,7.5L67.2,70.7z"/>
	<path class="st4" d="M49.5,100.3c0,0-5.6,8-1.5,11.9c4.1,3.9-0.9,5.9-3.5,6.9c-2.7,1.1-10.2,5.7-10.2,7.3c5,0.9,12.4,0.8,16.2,0
		c3.8-0.8,13.8-1.6,14-1.6c0.2-0.1-0.5-1.6-1.2-2.6c-0.7-1.1-2.2-3.5-1.5-4.8c0.7-1.3,3.9-8,5.9-7.7s4.9,0.5,5.1,0.4
		c0.2-0.1,1.2-0.9,0.6-3.5s-0.5-7.5-2.2-8.5c-1.6-1-2.8-2-2.9-1.9c-0.2,0.2-2.5,2.1-4.8,3.5c-2.3,1.4-6,1.8-8.1,1.5
		C53.4,101,49.5,100.3,49.5,100.3z"/>
	<path class="st5" d="M98.6,121.1c-2.2-1-4.4-2.1-6.5-3.3c-4.2-2.5-8.2-5.6-13.1-6.2c-1.2-0.2-2.4-0.4-3.6-0.5
		c-1.2-0.2-2.4-0.3-3.6-0.4c-1.2-0.1-2.4-0.2-3.6-0.2c-0.1,0-0.3,0-0.4,0l-0.1,0c0,0,0,0,0,0c-0.1,0.1-0.2,0.2-0.3,0.3
		c-0.4,0.4-0.7,0.9-1.1,1.4c-0.8,0.9-1.5,1.9-2.2,2.9c-0.4,0.5-0.8,1-1.1,1.4c-0.3,0.4-0.5,0.9-0.6,1.4c-0.2,1,0,2.1,0.6,3
		c0.5,0.9,1.5,2,2.4,2.9c0.1,0.1,0.3,0.2,0.5,0.2c2.4,0.1,3.8,0.4,6.2,0.8c2.7,0.4,5.3,0.8,7.9,1.1c1.3,0.1,2.6,0.2,3.9,0.2
		c0.6,0,1.3,0,2,0c0.7,0,1.3,0,2-0.1c2.6-0.1,5.3-0.4,7.9-0.9c2.6-0.4,5.3-0.9,8-1.1C104.3,123.9,100.8,122.1,98.6,121.1z"/>
	<path class="st5" d="M74.3,109.3c1.7,0.3,3.4,0.8,5,1.3c1.2,0.4,2.3,0.8,3.5,1.3c1.1,0.5,2.2,1,3.3,1.6c2.2,1.1,4.5,1.9,6.7,2.9
		c2,0.9,4,2,5.9,3.1c1.3-0.1,2.5-0.3,3.8-0.6c0.7-0.1,1.4-0.3,2.2-0.4c0.7-0.1,1.3-0.4,2-0.7c1.2-0.6,2.4-1.4,3.3-2.4
		c0.7-0.7,1.3-1.5,1.9-2.3c-1.2-0.4-2.4-0.9-3.6-1.3c-1.6-0.6-3.2-1.2-4.8-1.9c-3.2-1.4-6.3-2.7-9.7-3.6c-0.8-0.2-1.7-0.4-2.5-0.6
		c-0.8-0.2-1.6-0.3-2.5-0.5c-1.7-0.2-3.3-0.4-5-0.5c-1.7-0.1-3.4-0.2-5.1-0.3l-2.6-0.1c-0.7,0-1.5,0-2.1,0
		C74.2,105.8,74.3,107.4,74.3,109.3z"/>
	<path class="st6" d="M50.9,71c-1.6,0.5-2.1,3-2.1,3s1.8,1.1,3.4,0.6c1.6-0.5,2.3-2.6,2.3-2.6C54.4,72,52.5,70.4,50.9,71z"/>
	<path class="st6" d="M127.9,126.9c-2.7-0.2-5.3-0.5-8-1c-2.6-0.5-5.3-1-7.9-1.5c-1.3-0.2-2.7-0.4-4.1-0.5c-0.8-0.1-1.6-0.1-2.4,0
		c0,0,0,0,0,0c-2-1.4-4-2.7-6.1-3.9c0.3,0,0.7,0,1,0c0.8,0,1.5,0,2.3-0.1c0.7,0,1.5-0.1,2.2-0.2c0.8-0.1,1.6-0.2,2.3-0.5
		c1.5-0.5,2.9-1.4,4.1-2.4c1.2-1.1,2.2-2.2,3-3.7l0.6-1.1l-1.2-0.4c-1.6-0.6-3.3-1.1-4.9-1.6c-1.6-0.5-3.3-1-5-1.4
		c-1.7-0.4-3.3-0.9-5-1.3c-1.7-0.5-3.3-1-4.9-1.6c-0.8-0.3-1.6-0.6-2.4-1c-0.8-0.3-1.6-0.7-2.5-0.9c-1.7-0.5-3.5-0.7-5.2-0.8
		c-0.9,0-1.7-0.1-2.6,0c-0.9,0-1.7,0.1-2.6,0.2c-0.9,0.1-1.7,0.2-2.6,0.3c-0.4,0.1-0.9,0.2-1.3,0.3c-0.3,0.1-0.6,0.1-0.8,0.2
		c-0.8-5.7-3.2-7.9-4.5-8.7c0.8-1.1,1.4-2.3,1.8-3.5c0.2-0.7,0.4-1.5,0.5-2.3c0.1-0.6,0.8-2,0.9-2.4c4-12.7,13.9-17.7,17.2-19.4
		c0.4-0.2,0.7-0.4,0.9-0.5c7.5-4.7,32.4-16.6,35.2-17.8l0.2-0.1l0.1-0.2c1.9-2.1,0.6-4.6-0.4-5.6l-0.5-0.5l-0.6,0.3
		c-0.2,0.1-21.2,9.3-29,12.5c-7.4,3-18.8,8.8-20.3,9.5c-0.1,0-0.2,0.1-0.2,0.1l0,0c-1.2,0.8-2.5,1.6-3.7,2.3c-1.3,0.7-2.6,1.4-4,1.9
		c-1.4,0.5-2.8,1.1-4.2,1.2c-1.4,0.2-2.3-0.1-3.7-0.5c1.8-0.7,3.1-1.5,4.8-2.3c1.7-0.8,35.3-19.1,50.3-27c-0.2-0.2-0.4-0.4-0.4-0.4
		l1.9-1l-0.1,0.6c0.4-0.2,0.7-0.4,1-0.5c-0.3-0.2-0.5-0.4-0.5-0.5l1.8-0.9l-0.1,0.7c0.4-0.2,0.7-0.4,1-0.5c-0.3-0.2-0.5-0.4-0.6-0.4
		l1.8-1.2v1c0.3-0.2,0.6-0.3,0.8-0.4c-0.2-0.1-0.3-0.2-0.4-0.2l1.8-1.2v0.7c0.6-0.3,0.9-0.5,1-0.6l0.8-0.4l-0.4-0.8
		c-0.8-1.6-1.9-2.6-3.3-3.1c-2.6-0.9-5.4,0.5-5.9,0.8c0,0-44,18.3-45.2,18.8c-0.1,0-0.2,0-0.3,0c-0.5,0-0.9-0.1-1.3-0.2
		c-0.4-0.1-0.7-0.3-1-0.5c-0.7-1.2-1.4-2.5-2.6-3.4c-1.1-1-2.5-1.7-3.9-2.1c-1.4-0.4-2.9-0.5-4.3-0.4c-1.4,0.1-2.8,0.4-4.2,0.9
		c-0.7,0.3-1.3,0.5-2,0.8c-0.6,0.4-1.2,0.8-1.7,1.2c-0.5,0.5-1.1,0.9-1.6,1.4c-0.5,0.5-1,0.9-1.5,1.4c-1,1-2,1.9-3,2.8
		c-0.5,0.5-1,0.9-1.5,1.2c-0.6,0.4-1.1,0.7-1.7,0.9c-1.2,0.6-2.5,1.1-3.7,1.6c-1.3,0.5-2.6,1-3.9,1.7c-1.4,0.7-2.5,1.8-3.4,2.9
		c-0.9,1.1-1.6,2.4-2.4,3.4c-0.1,0.1-0.2,0.2-0.3,0.3l-0.2,0.2c-0.1,0.1-0.2,0.2-0.2,0.3c-0.3,0.3-0.4,0.7-0.6,1
		c-0.3,0.6-0.7,1.3-1,1.9c-0.6,1.3-1.1,2.6-1.6,3.8c-0.5,1.3-1,2.6-1.4,3.9c-0.2,0.7-0.4,1.3-0.6,2l-0.3,1l-0.1,0.5l-0.1,0.3l0,0.1
		c-0.6,1-1.1,2-1.6,3c-0.5,1.1-1,2.2-1.5,3.3c-0.4,1.1-0.8,2.3-1.1,3.4c-0.3,1.2-0.7,2.3-1.3,3.4c-1.1,2.1-2.7,4-3.9,6.1l-1,1.5
		c-0.3,0.5-0.6,1-0.9,1.5c-0.6,1-1.2,2.1-1.8,3.1l-0.1,0.1l0,0c-0.6,1.7-0.8,3.4-1,5.1c-0.2,1.7-0.2,3.4-0.2,5.1
		c0.1,3.3-0.4,6.8,0.1,10c-2,0.3-3.3,0.3-5.3,0.4C0,126.9,0,127,0,127c0,0.1,0,0.1,0.1,0.1c2.7,0,5.4-0.2,8-0.6
		c2.7-0.3,5.3-0.8,8-1.2c1.3-0.2,2.7-0.3,4-0.4c1.3,0,2.6,0.1,4,0.2c2.6,0.3,5.3,0.9,7.9,1.3c2.7,0.4,5.3,0.8,8,1
		c2.7,0.1,5.4,0.1,8.1-0.2c2.7-0.3,5.4-0.7,8-1.1c2.6-0.4,5.3-0.9,7.9-0.8c2.6,0.1,5.2,0.6,7.9,1c2.6,0.5,5.3,1,8,1.3
		c1.4,0.2,2.7,0.3,4.1,0.3c0.7,0,1.4,0,2,0c0.7,0,1.4,0,2.1,0c2.7-0.1,5.4-0.5,8.1-1c2.7-0.5,5.3-1,7.9-1.3c1.3-0.2,2.6-0.3,3.9-0.2
		c1.3,0,2.6,0.2,3.9,0.3c2.6,0.3,5.3,0.7,8,1c2.7,0.3,5.4,0.5,8.1,0.3c0,0,0.1,0,0.1-0.1C128,127,128,126.9,127.9,126.9z
		 M76.2,104.4l2.6,0.1c1.7,0.1,3.4,0.2,5.1,0.3c1.7,0.2,3.4,0.3,5,0.5c0.8,0.1,1.6,0.3,2.5,0.5c0.8,0.2,1.7,0.4,2.5,0.6
		c3.3,0.9,6.5,2.3,9.7,3.6c1.6,0.7,3.2,1.3,4.8,1.9c1.2,0.4,2.4,0.9,3.6,1.3c-0.5,0.8-1.2,1.6-1.9,2.3c-1,1-2.1,1.8-3.3,2.4
		c-0.6,0.3-1.3,0.5-2,0.7c-0.7,0.1-1.4,0.3-2.2,0.4c-1.3,0.2-2.5,0.5-3.8,0.6c-1.9-1.1-3.9-2.2-5.9-3.1c-2.2-1-4.5-1.9-6.7-2.9
		c-1.1-0.5-2.2-1.1-3.3-1.6c-1.1-0.5-2.3-0.9-3.5-1.3c-1.6-0.6-3.3-1-5-1.3c0-1.9,0-3.5-0.2-4.9C74.8,104.3,75.5,104.4,76.2,104.4z
		 M63.4,123.9c-2.8,0-4.9,0.5-7.5,1c-2.6,0.5-5.3,1-7.9,1.3c-2.6,0.3-5.3,0.4-7.9,0.3c-2.7-0.1-5.3-0.4-7.9-0.8
		c-2.6-0.4-5.3-0.9-8-1.1c-1.3-0.1-2.7-0.2-4.1-0.1c-1.4,0.1-2.7,0.3-4,0.5c-2.7,0.4-5.3,1-7.9,1.4c-0.6,0.1-1.2,0.2-1.8,0.3
		c0-3.3,0-6.6,0.2-9.9c0.1-1.7,0.2-3.3,0.5-4.9c0.2-1.6,0.5-3.2,1.1-4.5c1.5-1.9,2.7-4,3.8-6.1c0.6-1.1,1-2.2,1.5-3.3
		c0.4-1.2,0.8-2.3,1.3-3.4c0.5-1.1,1.1-2.2,1.7-3.2c0.6-1,1.3-2.1,1.7-3.2c0.2-0.6,0.4-1.1,0.6-1.7c0.2-0.6,0.4-1.2,0.5-1.7
		c0.3-1.2,0.6-2.4,0.7-3.6l0.1-0.1l0.2-0.5l0.5-0.9l0.9-1.8l1.9-3.7c0.6-1.2,1.3-2.4,1.9-3.6c0.3-0.6,0.7-1.2,1-1.7
		c0.2-0.3,0.3-0.6,0.5-0.8c0-0.1,0.1-0.1,0.1-0.1l0.2-0.2c0.1-0.1,0.3-0.3,0.4-0.4c1-1.2,1.6-2.3,2.4-3.4c0.8-1,1.6-1.9,2.7-2.5
		c2.3-1.3,4.9-2.2,7.3-3.7c0.6-0.4,1.2-0.8,1.8-1.2c0.6-0.4,1.1-1,1.5-1.5c0.9-1,1.8-2.1,2.8-3.1c1.9-1.9,3.9-4,6.6-4.3
		c2.6-0.5,5.3-0.5,7.8,0.2c2.5,0.6,4.5,2.3,5.9,4.5l0.1,0.1l0.1,0c0.5,0.4,1.1,0.5,1.6,0.6c0.5,0.1,1.1,0.1,1.6,0
		c3-0.3,46.2-17.8,46.2-17.8l0.1,0c0,0,2.4-1.3,4.4-0.6c0.7,0.2,1.3,0.7,1.7,1.3c-1,0.5-2.8,1.4-4.9,2.5
		c-12.8,6.5-42.8,21.7-48.2,26c0,0,0,0,0,0c-1.6,1.2-3.3,2.3-4.9,3.5c-1.6,1.1-5.8,3.3-5.8,3.3c-0.1,0,0,0.1,0,0.1
		c1.4,0.5,3.7,1.1,5.2,1.1c1.5,0,3.3-0.4,4.7-0.8c1.3-0.5,2.7-1.1,4.1-1.8c1.3-0.7,2.7-1.2,4-1.9c0,0,0.1,0,0.1,0
		c0.1-0.1,12.5-6.4,20.3-9.6c7-2.9,24.6-10.6,28.3-12.2c0.3,0.6,0.7,1.5,0.1,2.3c-3.7,1.6-27.8,13.2-35.3,17.8
		c-0.2,0.1-0.4,0.2-0.8,0.4c-3.4,1.7-13.9,7.1-18.1,20.5c-0.1,0.4-1.1,2.4-1.9,3c-0.9,0.8-1.9,1.4-2.8,2.2c-0.9,0.8-1.8,1.7-2.9,2.2
		c-1.1,0.5-2.3,0.8-3.5,0.6c-1.1-0.2-2.1-0.7-3.1-1.2c-1-0.6-1.9-1.3-2.8-2.1c-1.9-1.5-3.6-3.2-5.6-4.7c0,0-0.1,0-0.1,0
		c0,0-0.1,0.1,0,0.1l0,0c1.1,2.3,2.5,4.4,4.4,6.1c1,0.9,2.1,1.6,3.3,2.1c0.3,0.1,0.6,0.3,0.9,0.4c0.3,0.1,0.6,0.2,1,0.3
		c0.3,0.1,0.7,0.1,1,0.1c0.3,0,0.7,0,1-0.1c1.3-0.2,2.5-0.7,3.7-1.1c1.2-0.4,2.4-0.8,3.6-1.4c1.1-0.6,2.1-1.5,2.9-2.5
		c0.1-0.2,0.2-0.3,0.4-0.5c-0.2,0.4-0.3,0.7-0.5,1.1c-0.6,1.3-1.4,2.5-2.1,3.7c-0.7,1.2-1.6,2.4-2.7,3.3c-1.2,0.9-2.6,1.4-4,1.6
		c-1.4,0.2-2.9,0.2-4.3,0.1c-1.4-0.1-2.8-0.4-4.2-0.6c-2.8-0.5-5.6-1.3-8.6-1.9c0,0-0.1,0-0.1,0c0,0,0,0.1,0,0.1
		c2.5,1.8,5.3,3,8.3,3.8c1.5,0.3,3.1,0.5,4.6,0.4c0.4,0,0.8,0,1.2-0.1c0.4-0.1,0.8-0.1,1.2-0.2c0.4-0.1,0.8-0.2,1.1-0.3
		c0.4-0.1,0.7-0.3,1.1-0.4c1.4-0.6,2.8-1.3,4.1-2.1c0.9-0.6,1.9-1.2,2.7-1.9c0.3,0.1,4.4,1.7,4.3,12.1c-0.1,0-0.2,0-0.3,0
		c-1.2-0.2-2.4-0.3-3.7-0.4c-0.2,0-0.3,0-0.5,0l-0.3,0l-0.1,0l-0.1,0c-0.1,0-0.2,0-0.3,0.1c-0.1,0-0.5,0.3-0.5,0.3
		c-0.1,0.1-0.2,0.2-0.2,0.2c-0.1,0.1-0.2,0.3-0.3,0.4c-0.4,0.5-0.8,1-1.2,1.5c-0.7,1-1.5,2-2.1,3c-0.3,0.5-0.7,1-1,1.6
		c-0.4,0.6-0.6,1.3-0.7,2.1c-0.2,1.4,0.4,2.9,1.3,3.9c0.7,0.8,1,1.5,1.5,2.4C63.6,123.9,63.5,123.9,63.4,123.9z M67.7,110.5
		C67.7,110.5,67.7,110.5,67.7,110.5L67.7,110.5L67.7,110.5z M103.8,124c-2.7,0.3-5.4,0.8-8,1.1c-2.6,0.4-5.3,0.8-7.9,0.9
		c-0.7,0-1.3,0-2,0.1c-0.7,0-1.3,0-2,0c-1.3,0-2.6-0.1-3.9-0.2c-2.6-0.2-5.3-0.7-7.9-1.1c-2.3-0.3-3.8-0.7-6.2-0.8
		c-0.2,0-0.3-0.1-0.5-0.2c-0.9-0.8-1.9-1.9-2.4-2.9c-0.6-1-0.8-2-0.6-3c0.1-0.5,0.3-1,0.6-1.4c0.3-0.4,0.7-1,1.1-1.4
		c0.8-1,1.5-1.9,2.2-2.9c0.4-0.5,0.7-1,1.1-1.4c0.1-0.1,0.2-0.2,0.3-0.3c0,0,0,0,0,0l0.1,0c0.1,0,0.3,0,0.4,0c1.2,0,2.4,0.1,3.6,0.2
		c1.2,0.1,2.4,0.2,3.6,0.4c1.2,0.2,2.4,0.3,3.6,0.5c4.9,0.6,8.9,3.7,13.1,6.2c2.1,1.2,4.3,2.3,6.5,3.3
		C100.8,122.1,104.3,123.9,103.8,124z"/>
	<path class="st6" d="M51.8,60.7C51.9,60.7,51.9,60.7,51.8,60.7c0-0.1,0-0.2-0.1-0.2c-0.8,0-1.6,0-2.4,0.2c-0.8,0.1-1.5,0.3-2.3,0.5
		c-1.5,0.4-2.9,1.2-4.2,1.9c-1.4,0.7-2.8,1.4-4.1,2.2c-1.3,0.8-2.7,1.6-4,2.4l0,0c0,0-0.1,0.1,0,0.1c0,0,0.1,0.1,0.1,0.1
		c1.5-0.5,2.9-1.2,4.3-1.7c1.4-0.6,2.9-1.1,4.3-1.7c1.4-0.5,2.9-0.9,4.3-1.6C49.2,62.4,50.5,61.7,51.8,60.7z"/>
	<path class="st6" d="M119.1,38.5c0,0,0.3,0.2,0.6,0.4c0.3,0.3,0.7,0.6,1,0.8c0.1,0.1,0.2,0,0.2-0.1v-1.3v-1L119.1,38.5z"/>
	<path class="st6" d="M121.3,37.7c0,0,0.2,0.1,0.4,0.2c0.4,0.3,0.9,0.7,1.2,1c0.1,0.1,0.2,0,0.2-0.1v-1.6v-0.7L121.3,37.7z"/>
	<path class="st6" d="M116.9,39.6c0,0,0.2,0.2,0.5,0.5c0.3,0.3,0.6,0.6,0.8,0.9c0.1,0.1,0.2,0,0.2-0.1l0.2-1.4l0.1-0.7L116.9,39.6z"
		/>
	<path class="st6" d="M114.5,41c0,0,0.2,0.2,0.4,0.4c0.3,0.3,0.7,0.7,1,1c0.1,0.1,0.2,0,0.2-0.1l0.2-1.6l0.1-0.6L114.5,41z"/>
</g>
</svg>
