<?xml version="1.0" encoding="utf-8"?>
<!-- Generator: Adobe Illustrator 18.1.0, SVG Export Plug-In . SVG Version: 6.00 Build 0)  -->
<svg version="1.1" baseProfile="tiny" id="Layer_1" xmlns="http://www.w3.org/2000/svg" xmlns:xlink="http://www.w3.org/1999/xlink"
	 x="0px" y="0px" viewBox="0 0 230 128" xml:space="preserve">
<g>
	<path fill="#E08C34" d="M69.9,104.4c0.2,0.6,0.5,1.7,1.1,4.1c0.8,3.3,1.9,7.8,3,11.1c0.4,1.1,0.3,2.2,0.2,3c0,0.1,0,0.3,0,0.5h3.2
		c-0.7-1.3-1.2-1.8-1.3-1.9c-0.3-0.2-0.5-0.5-0.6-0.9c-0.5-2.1-2.8-14-3.6-18.6C71.1,102.5,70.5,103.4,69.9,104.4z"/>
	<circle fill="#FFFFFF" cx="52" cy="58.4" r="0.9"/>
	<path fill="#E08C34" d="M95.7,93l-4.4,9.8l-3.1,17l0,3.3h3.5l-0.9-1.4c-0.2-0.3-0.3-0.8-0.2-1.2c0.1-0.4,0.2-1.5,0.4-2.9
		c0.6-5.5,1.3-11.1,2.4-13c1.5-2.8,3.6-8.5,3.6-8.6l0,0c-0.2-0.7-0.3-1.4-0.5-1.9C96.3,93.9,96.1,93.5,95.7,93z"/>
	<path fill="#E08C34" d="M140.8,98c0.2,0.7,0.6,2.1,1.4,5.4c1.1,4.3,2.5,10.1,3.8,14.2c0.4,1.4,0.4,2.8,0.3,3.8c0,0.3,0,0.7,0,0.9
		h4.9c-1-1.9-1.7-2.8-2-3c-0.3-0.2-0.6-0.6-0.7-1c-0.7-2.8-3.7-19-4.8-24.5C142.7,95.1,141.7,96.5,140.8,98z"/>
	<path fill="#EFC24C" d="M70.8,99.9c0.2-0.2,0.3-0.3,0.5-0.5c0,0,0,0,0,0C71.2,99.5,71,99.7,70.8,99.9z M79.5,91.4
		c0,0.1-0.1,0.1-0.1,0.1c-0.1,0.1-0.1,0.1-0.2,0.2c0.2-0.2,0.3-0.3,0.4-0.4L79.5,91.4z M80.1,90.5c0.1-0.1,0.2-0.3,0.3-0.5
		c0.1-0.1,0.1-0.2,0.2-0.3c-0.1,0.1-0.1,0.2-0.2,0.3C80.3,90.2,80.2,90.4,80.1,90.5z M81.1,88.7C81.1,88.7,81.1,88.7,81.1,88.7
		c0-0.1,0.1-0.2,0.1-0.3L81.1,88.7z M133,39.5c-1.9-1.2-3-2.8-3.7-3.9c-0.1-0.2-0.3-0.3-0.4-0.2c-0.9,0.1-1.6,0-2.1-0.3
		c-0.3-0.1-0.9-0.4-2.1-3.5l0.3,2.5c0.1,0.6-0.3,1.1-1.1,1.8c-0.5,0.4-1.3,0.4-1.7,0c-1.3-1.2-2.9-1.6-3.9-1.7c0.4,0.6,1,1.4,2.1,2
		c0.1,0,0.5,0.2,0.9,0.3l0.2,0.1l0.1,0.1c0.6,0.5,0.8,1.5,0.3,2.1c-0.1,0.2-0.4,0.5-0.7,0.8c-0.4,0.4-0.8,1-1.3,1.6
		c-0.5,0.7-1.7,2.4-3,4.5c-2,3.1-4.6,7-6.5,9.4c-3.3,4.3-11.3,9.1-13.1,9.8c-1,0.4-2,0.5-3,0.5c-0.8,0-1.5,0-2.2,0.2
		c-0.9,0.3-2.5,1.1-4,2c-1.2,0.6-2.4,1.3-3.5,1.8c-1.7,0.8-3.8,1.2-5.9,1.7c-1.2,0.3-2.4,0.5-3.7,0.9c-3.2,0.9-6.5,4.5-7.6,8.2
		c-0.9,3.4,0.7,12.4,1.2,14.4c0.1,0.4,0,0.9-0.2,1.2l-3.2,5.7c-0.1,0.2-0.2,0.4-0.2,0.5l-2.4,17.7c0,0.1,0.1,0.2,0.1,0.3
		c0.3,1.1,1,3.6,0.8,5.7l3,0l-1.6-3.7c-0.1-0.2-0.1-0.4-0.1-0.5l0-0.2c0.4-3.9,1.1-10.6,1.2-11.7c0.3-2.2,2-6.6,4.6-9.4
		c0.8-3.3,6.3-6.2,6.6-8.5c0.1-0.4,0.4-0.8,0.8-1c3.7-1.9,3.2-7.2,3-8.6c-0.1-0.1-0.1-0.2-0.2-0.3c-0.4-0.4-0.3-1,0.1-1.4
		c0.4-0.3,1-0.3,1.4,0.1c0.6,0.8,1.1,1.5,1.3,2.3c0.6,1.1,0.9,2.7,1,4.5c0.1,1,0.8,1.8,1.7,2.1c1.5,0.4,3.7,0.1,5.2-0.3
		c0.5-0.1,0.8-0.5,0.8-1c0-1.8,0.1-5.4,0.9-7c0-0.1,0-0.1,0-0.2c0.1-0.5,0.6-0.9,1.2-0.7c0.5,0.1,0.9,0.6,0.7,1.2
		C93.9,86.9,97.3,92,98.1,93c0.1,0.2,0.3,0.5,0.3,0.7c0.6,2.7,2.2,9.1,2.5,10.6c0.4,1.7,1.9,6.8,1.9,6.9l3,14.5h3
		c-0.4-0.5-0.9-1.1-1.1-1.6c-0.9-2.2-3.1-11.4-3.1-12.6c0.1-1.5-0.4-3.5-0.8-5.4c-0.2-0.7-0.3-1.3-0.4-2c-0.1-0.4-0.2-0.8-0.3-1.2
		c-0.6-2.7-1.3-6-1-8.5c0.2-2.1,1.1-4.1,2-6.2c0.4-0.9,0.8-1.9,1.2-2.9c0.9-2.4,0.4-5.7,0.1-7.7l-0.1-0.8c-0.1-0.5,0-1.1,0.4-1.6
		c0.8-1.2,2.8-4.5,4.7-7.7c0.3-0.5,0.6-0.9,0.9-1.4c0,0,0-0.1,0.1-0.1c3.1-5.5,9.1-16.4,12.5-24.5c0,0,8.4,2.2,13.3,1.8
		C136,41.8,134.5,40.5,133,39.5z M127.6,38.9c-0.7,0-1.2-0.5-1.2-1.2c0-0.7,0.5-1.2,1.2-1.2c0.7,0,1.2,0.5,1.2,1.2
		C128.8,38.3,128.2,38.9,127.6,38.9z"/>
	<path fill="#E08C34" d="M175.6,84.8C175.6,84.8,175.5,84.7,175.6,84.8c-0.3-0.4-0.7-1.1-1.3-2L168.5,96l-4,21.8l0,4.5h5.2l-1.4-2.2
		c-0.2-0.4-0.3-0.8-0.2-1.3c0.1-0.5,0.3-1.9,0.5-3.7c0.8-7.1,1.7-14.2,3-16.6c2-3.6,4.6-11,4.6-11.1c0,0,0,0,0-0.1
		c-0.2-0.7-0.3-1.4-0.5-2.1L175.6,84.8z"/>
	<path fill="#EFC24C" d="M227.9,19.1c-1.5-1.6-3.5-3.4-5.5-4.7c-2.4-1.6-3.8-3.5-4.6-4.9c-0.2-0.3-0.5-0.5-0.8-0.4
		c-1.1,0.1-2,0-2.6-0.3c-0.4-0.2-1.3-0.6-3.3-6.5l0.6,5.5c0.1,0.6-0.3,1.2-1.3,2c-0.6,0.5-1.4,0.4-1.9,0c-1.9-1.8-4.4-2.2-5.7-2.3
		c0.4,0.8,1.4,2.2,3,3.1c0.1,0.1,0.7,0.3,1.2,0.4l0.2,0.1l0.1,0.1c0.7,0.6,0.8,1.6,0.3,2.4c-0.2,0.2-0.5,0.6-0.9,1.1
		c-0.5,0.6-1.1,1.3-1.6,2c-0.7,0.9-2.1,3.1-3.9,5.7c-2.6,4-5.9,9-8.3,12.1c-4.1,5.4-14.6,11.6-16.7,12.5c-1.3,0.5-2.6,0.6-3.8,0.6
		c-1,0-1.9,0-2.9,0.3c-1.3,0.4-3.2,1.4-5.2,2.5c-1.5,0.8-3,1.7-4.4,2.3c-2.2,1-4.8,1.6-7.6,2.2c-1.5,0.3-3.1,0.7-4.8,1.1
		c-4.1,1.1-8.6,5.9-9.9,10.7c-1.3,4.5,0.9,16,1.6,18.7c0.1,0.5,0.1,1-0.2,1.4l-4.1,7.3c-0.2,0.3-0.3,0.5-0.3,0.8l-3.2,22.8
		c0,0,0.1,0.2,0.1,0.4c0.4,1.5,1.3,4.9,1,7.5l4.6-0.1l-2.3-5.1c-0.1-0.2-0.1-0.4,0-0.6c0-0.1,1.4-13.4,1.6-15.3
		c0.3-2.8,2.5-8.2,5.8-11.8v0c1.1-4.4,8.1-8.1,8.6-11c0.1-0.6,0.5-1.1,1-1.3c5-2.6,4.1-9.9,3.8-11.4c-0.1-0.1-0.2-0.2-0.3-0.3
		c-0.4-0.4-0.3-1,0.1-1.4c0.4-0.4,1-0.3,1.4,0.1c0.7,0.8,1.2,1.6,1.5,2.5c0,0,0,0,0,0c0.9,1.5,1.5,3.6,1.6,6.1
		c0.1,1.3,1,2.4,2.3,2.8c2,0.6,4.9,0.1,6.9-0.3c0.6-0.1,1.1-0.7,1.1-1.3c0-2.4,0.1-7.6,1.3-9.5c0,0,0-0.1,0-0.1
		c0.2-0.4,0.6-0.6,1.1-0.5c0.5,0.1,0.9,0.6,0.7,1.2c-1.6,7.4,2.9,14,3.8,15.3c0.2,0.2,0.3,0.5,0.4,0.8l0.1,0.5
		c1.8,7.4,2.8,11.8,3.1,13.1c0.5,2.2,2.4,8.8,2.4,8.9l3.9,18.8h4.6c-0.1-0.1-0.1-0.2-0.2-0.3c-0.5-0.7-1.2-1.5-1.5-2.2
		c-1.2-2.8-4-14.6-3.9-16.1c0.1-2-0.5-4.5-1-7c-0.2-0.9-0.4-1.7-0.6-2.5c-0.1-0.5-0.2-1-0.3-1.6c-0.7-3.4-1.6-7.7-1.3-10.9
		c0.2-2.6,1.4-5.2,2.6-7.9c0.5-1.2,1.1-2.5,1.6-3.7c1.2-3.1,0.6-7.3,0.2-10.1c-0.1-0.4-0.1-0.7-0.1-1c-0.1-0.6,0.1-1.3,0.4-1.8
		c0.8-1.2,2.5-4,4.3-7l-0.1,0c0,0,12.7-21.5,18.9-36.3c0,0,11,2.8,17.4,2.3c0,0,0.1,0,0.1,0C228,19.4,228,19.3,227.9,19.1z
		 M215.3,13.8c-0.9,0-1.5-0.7-1.5-1.5c0-0.8,0.7-1.5,1.5-1.5c0.9,0,1.6,0.7,1.6,1.5C216.8,13.1,216.1,13.8,215.3,13.8z M154.4,80.7
		c0.1-0.2,0.3-0.5,0.5-1c0.3-0.5,0.6-1,0.8-1.6c-0.3,0.6-0.6,1.2-0.9,1.6C154.7,80.1,154.5,80.4,154.4,80.7z M153.6,81.7
		c0-0.1,0.1-0.1,0.2-0.2c-0.1,0.1-0.2,0.3-0.4,0.4C153.4,81.8,153.5,81.7,153.6,81.7z"/>
	<circle fill="#2D2D2D" cx="127.6" cy="37.7" r="1.2"/>
	<path fill="#2D2D2D" d="M137.1,45.6c0.9,0,1.6-0.6,2-1.4c0.3-0.8,0.2-1.7-0.4-2.4c-1.2-1.4-3-2.9-4.7-4c-1.6-1-2.5-2.3-3-3.2
		c-0.5-0.8-1.4-1.3-2.3-1.2c-0.6,0.1-0.9,0-1,0c-0.3-0.3-1-1.8-2-4.7c-0.2-0.7-0.9-1.1-1.6-1.1c-0.5,0-0.9,0.2-1.2,0.6
		c-0.3,0.3-0.5,0.8-0.4,1.3l0.5,4.6c-2.6-2.1-5.8-1.8-5.9-1.8c-0.5,0-0.9,0.3-1.1,0.7c-0.2,0.4-0.2,0.8,0,1.2
		c0.2,0.5,1.1,2.6,3.3,3.8c0.1,0.1,0.3,0.1,0.5,0.2c-0.1,0.1-0.2,0.2-0.2,0.3c-0.4,0.5-0.9,1-1.3,1.6c-0.6,0.7-1.7,2.4-3.1,4.6
		c-2,3.1-4.6,6.9-6.4,9.3c-2.9,3.9-10.8,8.5-12.3,9.2c-0.7,0.3-1.4,0.3-2.3,0.3c-0.8,0-1.7,0-2.7,0.3c-1.2,0.3-2.7,1.2-4.4,2.1
		c-1.1,0.6-2.3,1.3-3.3,1.7c-1.6,0.7-3.5,1.1-5.6,1.6c-1.2,0.3-2.5,0.5-3.8,0.9c-3.8,1-7.7,5.2-8.9,9.5c-0.2,0.9-0.3,2.1-0.3,3.3
		c-0.1,0.3-0.2,0.6-0.4,0.9c-0.2,0.5-0.6,1-0.9,1.6c-0.2,0.3-0.4,0.6-0.5,0.9l-0.3,0.4l-0.3,0.4c-0.2,0.3-0.4,0.5-0.7,0.8
		c-0.2,0.2-0.5,0.5-0.7,0.7c-0.4,0.5-0.6,1-0.8,1.6c-0.2,0.5-0.4,1-0.4,1.3c-0.1,0.4-0.1,0.6-0.1,0.6s0,0,0,0c0,0.1,0.1,0.2,0.2,0.2
		c0,0,1,0,2.1-0.6c0.5-0.3,1.1-0.8,1.6-1.4c0.2-0.3,0.4-0.7,0.5-1.1c0.1-0.4,0.3-0.8,0.4-1.2c0.2-0.6,0.4-1.1,0.5-1.7
		c0.4,3.6,1.1,7.3,1.3,8.3l-3.1,5.6c-0.2,0.4-0.4,0.8-0.4,1.2l-2.5,17.8c0,0.2,0,0.4,0,0.6c0,0.1,0.1,0.3,0.1,0.5
		c0.3,1,1,3.5,0.7,5.2c-0.1,0.5,0.1,1,0.4,1.4c0.3,0.3,0.7,0.5,1.2,0.5l4,0c0.5,0,1-0.2,1.3-0.6c0.3-0.4,0.4-0.9,0.3-1.4l-1.8-4.2
		l0-0.1c0.7-6.7,1.1-10.9,1.2-11.7c0.1-0.6,0.3-1.5,0.7-2.4c0.1,0.6,0.3,1.2,0.4,1.8c0.8,3.3,2,7.9,3,11.2c0.2,0.8,0.2,1.6,0.1,2.3
		c0,0.5-0.1,0.9,0,1.3c0.2,0.7,0.8,1.3,1.6,1.3H78c0.6,0,1.1-0.3,1.4-0.8c0.3-0.5,0.3-1.1,0-1.6c-1.1-2.1-1.8-2.8-2.1-3
		c-0.6-2.7-3.3-17.2-3.8-19.8c0.8-0.8,2.1-2,3.2-3.1c2.6-2.4,4-3.7,4.6-4.5c0.9,0.3,2.7,0.8,5.9,0.8c1.8,0,4-0.2,6.6-0.6l-4.3,9.7
		l-3.2,17.2c0,0.1,0,0.3,0,0.4v3.6c0,0.9,0.7,1.6,1.6,1.6h4.4c0.6,0,1.1-0.3,1.4-0.8c0.3-0.5,0.3-1.1,0-1.6l-1.1-1.8
		c0.1-0.5,0.2-1.5,0.4-2.9c0.4-3.7,1.2-10.5,2.1-12.3c0.9-1.6,1.9-4.2,2.7-6.1c0.5,2.3,1,4.4,1.2,5.2c0.4,1.7,1.9,6.8,1.9,6.9
		l3.1,14.7c0.2,0.7,0.8,1.3,1.6,1.3h4c0.6,0,1.2-0.3,1.4-0.9c0.3-0.5,0.2-1.2-0.1-1.7c-0.1-0.1-0.2-0.3-0.4-0.5
		c-0.3-0.4-0.8-1-0.9-1.3c-0.9-2-2.9-10.7-2.9-11.7c0.1-1.8-0.4-3.9-0.9-5.9c-0.2-0.7-0.3-1.3-0.4-1.9c-0.1-0.4-0.2-0.8-0.3-1.2
		c-0.5-2.5-1.2-5.7-1-8c0.2-1.8,1-3.6,1.9-5.6c0.4-1,0.9-2,1.3-3c1.1-2.8,0.6-6.4,0.2-8.7l-0.1-0.8c0-0.1,0-0.2,0.1-0.2
		c0.8-1.3,2.8-4.6,4.7-7.7c1.5-2.5,3-4.9,3.9-6.4c2.2-3.5,8-13.7,9.8-17.1C128.5,45.5,133.9,45.7,137.1,45.6z M75.5,120.3
		c0.1,0.4,0.3,0.7,0.6,0.9c0.2,0.1,0.6,0.7,1.3,1.9h-3.2c0-0.1,0-0.3,0-0.5c0-0.8,0.1-1.9-0.2-3c-1-3.2-2.2-7.7-3-11.1
		c-0.6-2.4-0.9-3.5-1.1-4.1c0.5-1,1.2-2,1.9-2.8C72.7,106.3,74.9,118.1,75.5,120.3z M96.9,96c0,0.1-2,5.8-3.6,8.6
		c-1.1,2-1.8,7.5-2.4,13c-0.1,1.3-0.3,2.5-0.4,2.9c-0.1,0.4,0,0.8,0.2,1.2l0.9,1.4h-3.5l0-3.3l3.1-17l4.4-9.8
		c0.3,0.5,0.6,0.9,0.7,1.1C96.6,94.6,96.8,95.3,96.9,96L96.9,96z M125.8,42.9c-0.6-0.2-1.3,0.1-1.6,0.7c-1.5,2.9-7.7,13.7-9.9,17.3
		c-0.9,1.5-2.4,4-3.9,6.5c-1.9,3.2-3.9,6.4-4.7,7.7c-0.3,0.5-0.4,1-0.4,1.6l0.1,0.8c0.3,2,0.8,5.4-0.1,7.7c-0.4,1-0.8,1.9-1.2,2.9
		c-0.9,2.1-1.8,4.1-2,6.2c-0.2,2.6,0.5,5.9,1,8.6c0.1,0.4,0.2,0.8,0.3,1.2c0.1,0.6,0.3,1.3,0.4,2c0.4,1.9,0.9,3.9,0.8,5.4
		c-0.1,1.2,2.1,10.5,3.1,12.6c0.2,0.5,0.7,1.1,1.1,1.6h-3l-3-14.5c0-0.1-1.5-5.2-1.9-6.9c-0.3-1.4-1.8-7.9-2.5-10.6
		c-0.1-0.3-0.2-0.5-0.3-0.7c-0.7-1-4.1-6-2.9-11.7c0.1-0.5-0.2-1.1-0.7-1.2c-0.5-0.1-1.1,0.2-1.2,0.7c-0.8,3.6,0.1,7.1,1.1,9.5
		c-6.9,1.3-10.6,0.6-12,0.1c1.1-2,3.1-6.4-0.1-10.1c-0.4-0.4-1-0.5-1.4-0.1c-0.4,0.4-0.5,1-0.1,1.4c2.5,3,0.6,6.6-0.4,8.3
		c-0.2,0.4-0.3,0.6-0.4,0.8c-0.3,0.5-2.9,3-4.6,4.6c-2.2,2-3.6,3.4-4.1,4c-3,2.7-5,7.6-5.3,10c-0.1,1.1-0.8,7.8-1.2,11.7l0,0.2
		c0,0.2,0,0.4,0,0.6l1.6,3.7l-3,0c0.2-2.1-0.5-4.6-0.8-5.7c0-0.1-0.1-0.2-0.1-0.3l2.4-17.7c0-0.2,0.1-0.3,0.2-0.5l3.1-5.7
		c0.2-0.4,0.3-0.8,0.2-1.2c-0.5-2-2.2-11-1.2-14.4c1-3.6,4.4-7.3,7.5-8.2c1.3-0.3,2.5-0.6,3.7-0.9c2.2-0.5,4.2-0.9,6-1.7
		c1.1-0.5,2.3-1.2,3.5-1.8c1.5-0.8,3-1.7,4-1.9c0.7-0.2,1.4-0.2,2.2-0.2c1,0,2,0,3-0.5c1.7-0.7,9.8-5.5,13.1-9.8
		c1.9-2.5,4.4-6.3,6.5-9.4c1.3-2,2.5-3.8,3-4.5c0.4-0.6,0.9-1.1,1.3-1.5c0.3-0.4,0.6-0.7,0.7-0.8c0.5-0.7,0.4-1.6-0.3-2.1l-0.1-0.1
		l-0.2-0.1c-0.4-0.1-0.8-0.3-0.9-0.3c-1-0.6-1.7-1.4-2.1-2c1,0.1,2.6,0.5,3.9,1.7c0.5,0.5,1.2,0.5,1.7,0c0.8-0.7,1.2-1.2,1.1-1.8
		l-0.3-2.5c1.2,3.1,1.8,3.4,2.1,3.6c0.5,0.3,1.2,0.4,2.1,0.3c0.2,0,0.3,0.1,0.4,0.2c0.6,1.1,1.8,2.6,3.7,3.9c1.5,1,3.1,2.4,4.3,3.6
		c0.1,0.1,0.1,0.2,0,0.3c0,0.1-0.1,0.2-0.3,0.2C133.8,43.7,128.1,43.5,125.8,42.9z"/>
	<circle fill="#2D2D2D" cx="215.3" cy="12.3" r="1.5"/>
	<path fill="#2D2D2D" d="M223.4,12.8c-2.1-1.3-3.3-3-4-4.2c-0.6-1-1.6-1.5-2.7-1.4c-1,0.1-1.4-0.1-1.4-0.1c-0.4-0.3-1.4-2.4-2.6-6.2
		c-0.3-0.8-1-1.3-1.8-1.3c-0.5,0-1,0.2-1.4,0.6c-0.4,0.4-0.5,0.9-0.5,1.4l0.6,6.1c-0.1,0.1-0.1,0.1-0.2,0.3
		c-3.3-2.8-7.5-2.5-7.6-2.5c-0.5,0-1,0.3-1.2,0.8c-0.2,0.4-0.2,0.9,0,1.3c0.2,0.6,1.4,3.2,4.2,4.8c0.2,0.1,0.6,0.3,0.9,0.4
		c-0.2,0.2-0.3,0.4-0.6,0.7c-0.5,0.6-1.1,1.3-1.7,2.1c-0.7,0.9-2.1,3.1-4,5.9c-2.6,4-5.9,8.9-8.3,12c-3.8,5-14,11-15.9,11.9
		c-0.9,0.4-1.9,0.4-3,0.4c-1,0-2.2,0-3.4,0.4c-1.5,0.4-3.5,1.5-5.6,2.7c-1.5,0.8-3,1.6-4.3,2.2c-2,0.9-4.5,1.5-7.2,2
		c-1.6,0.3-3.2,0.7-4.9,1.2c-4.8,1.3-9.8,6.6-11.3,12.1c-0.3,1-0.4,2.3-0.4,3.7c0,0,0,0.1,0,0.1c-0.1,0.4-0.3,0.9-0.6,1.6
		c-0.3,0.6-0.7,1.4-1.1,2.1c-0.2,0.4-0.4,0.8-0.7,1.2l-0.3,0.6l-0.4,0.6c-0.3,0.4-0.5,0.7-0.8,1.1c-0.3,0.3-0.6,0.6-0.8,1
		c-0.5,0.7-0.8,1.3-1.1,2c-0.3,0.6-0.6,1.2-0.7,1.6c-0.2,0.4-0.2,0.7-0.2,0.7c0,0,0,0,0,0.1c0,0.1,0.1,0.2,0.2,0.2
		c0,0,0.3,0,0.8-0.1c0.5-0.1,1.1-0.4,1.7-0.8c0.7-0.4,1.4-1,1.9-1.8c0.3-0.4,0.5-0.9,0.7-1.3c0.2-0.5,0.4-1,0.6-1.4
		c0.5-1.3,0.8-2.5,1.1-3.7c0.4,5.3,1.5,11.1,1.9,12.4l-4,7.3c-0.3,0.5-0.5,1-0.5,1.5l-3.2,22.8c0,0.2,0,0.4,0,0.6
		c0,0.1,0.1,0.3,0.2,0.6c0.4,1.4,1.2,4.6,0.9,6.8c-0.1,0.6,0.1,1.1,0.4,1.6c0.3,0.4,0.8,0.6,1.3,0.6l5.1-0.1c0.6,0,1.1-0.3,1.4-0.7
		s0.5-1,0.3-1.5l-2.4-5.4c0.1-1.1,1.4-13.4,1.6-15.2c0.1-0.9,0.5-2.4,1.2-4c0.2,0.9,0.5,2.1,0.8,3.2c1.1,4.3,2.5,10.1,3.9,14.3
		c0.3,1,0.3,2.2,0.2,3.1c0,0.6-0.1,1.1,0,1.5c0.2,0.8,0.9,1.4,1.8,1.4h5.3c0.6,0,1.2-0.3,1.5-0.9c0.3-0.5,0.3-1.2,0-1.8
		c-1.5-2.8-2.3-3.6-2.7-3.8c-0.8-3.3-4.4-22.7-5-25.7c1-1,2.8-2.7,4.2-4.1c3.5-3.3,5.3-5,6-6c1,0.4,3.4,1.1,7.7,1.1
		c2.4,0,5.3-0.2,8.9-0.8l-5.8,12.9l-4.1,22.1c0,0.1-0.1,0.3-0.1,0.4v4.7c0,1,0.8,1.8,1.8,1.8h5.7c0.7,0,1.3-0.4,1.6-0.9
		c0.3-0.6,0.3-1.3,0-1.8l-1.5-2.4c0.1-0.6,0.3-2,0.5-3.8c0.5-4.7,1.5-13.6,2.8-15.9c1.3-2.4,2.8-6.1,3.7-8.6c1,4.1,1.6,6.7,1.8,7.6
		c0.5,2.2,2.4,8.7,2.4,8.9l3.9,18.9c0.2,0.8,0.9,1.4,1.8,1.4h5.1c0.7,0,1.3-0.4,1.6-1c0.3-0.6,0.3-1.3-0.1-1.8
		c-0.1-0.2-0.3-0.4-0.5-0.6c-0.4-0.5-1-1.4-1.2-1.8c-1.1-2.6-3.8-14-3.7-15.2c0.1-2.3-0.5-4.9-1.1-7.5c-0.2-0.8-0.4-1.7-0.5-2.5
		c-0.1-0.5-0.2-1-0.3-1.6c-0.7-3.3-1.6-7.4-1.3-10.3c0.2-2.3,1.3-4.7,2.4-7.3c0.5-1.2,1.1-2.5,1.6-3.8c1.3-3.6,0.7-8.1,0.3-11
		c-0.1-0.4-0.1-0.7-0.1-1c0-0.2,0-0.3,0.1-0.5c1.1-1.6,3.6-5.8,6.1-9.9c1.9-3.1,3.8-6.3,5-8.3c2.8-4.5,10.5-18,12.7-22.1
		c3.5,0.9,10.6,1,14.7,0.9c1,0,1.9-0.6,2.3-1.6c0.4-0.9,0.2-2-0.4-2.7C227.8,16.1,225.6,14.2,223.4,12.8z M148.6,118.4
		c0.1,0.4,0.3,0.8,0.7,1c0.3,0.2,1,1.1,2,3h-4.9c0-0.2,0-0.6,0-0.9c0.1-1,0.1-2.4-0.3-3.8c-1.3-4.1-2.8-10-3.8-14.2
		c-0.8-3.3-1.2-4.7-1.4-5.4c0.8-1.5,1.8-3,2.9-4.1C144.8,99.4,147.8,115.5,148.6,118.4z M176.1,87.4c0,0.1-2.6,7.4-4.6,11.1
		c-1.4,2.5-2.2,9.6-3,16.6c-0.2,1.8-0.4,3.2-0.5,3.7c-0.1,0.4,0,0.9,0.2,1.3l1.4,2.2h-5.2l0-4.5l4-21.8l5.9-13.2
		c0.5,0.9,1,1.6,1.2,1.9c0,0,0,0.1,0,0.1l0.1,0.5C175.9,86,176,86.7,176.1,87.4C176.2,87.4,176.1,87.4,176.1,87.4z M228,19.8
		c0,0.1-0.2,0.4-0.6,0.4c-4.1,0.1-11.5-0.1-14.4-0.9c-0.7-0.2-1.4,0.1-1.8,0.8c-2,3.7-9.9,17.7-12.8,22.3c-1.2,1.9-3.1,5.2-5,8.3
		c-2.5,4.1-5,8.3-6,9.9c-0.4,0.5-0.5,1.2-0.4,1.8c0,0.3,0.1,0.6,0.1,1c0.4,2.8,1,7-0.2,10.1c-0.5,1.3-1,2.5-1.6,3.7
		c-1.2,2.7-2.3,5.3-2.6,7.9c-0.3,3.2,0.6,7.5,1.3,10.9c0.1,0.5,0.2,1.1,0.3,1.6c0.2,0.8,0.4,1.7,0.6,2.5c0.6,2.5,1.2,5,1,7
		c-0.1,1.5,2.7,13.4,3.9,16.1c0.3,0.7,0.9,1.5,1.5,2.2c0.1,0.1,0.1,0.2,0.2,0.3H187l-3.9-18.8c0-0.1-1.9-6.7-2.4-8.9
		c-0.3-1.3-1.3-5.7-3.1-13.1l-0.1-0.5c-0.1-0.3-0.2-0.6-0.4-0.8c-0.9-1.3-5.4-7.9-3.8-15.3c0.1-0.5-0.2-1.1-0.7-1.2
		c-0.5-0.1-1.1,0.2-1.2,0.7c-1.1,4.8,0.2,9.2,1.6,12.4c-9.7,1.8-14.7,0.7-16.3,0.1c1.3-2.4,4.2-8.1,0.1-13c-0.4-0.4-1-0.5-1.4-0.1
		c-0.4,0.4-0.5,1-0.1,1.4c3.4,4,0.8,8.7-0.5,11c-0.2,0.4-0.4,0.8-0.5,1c-0.4,0.7-3.8,3.9-6,6c-2.8,2.6-4.6,4.3-5.2,5.1
		c-3.8,3.4-6.4,9.7-6.8,12.7c-0.2,1.9-1.6,15.2-1.6,15.3c0,0.2,0,0.4,0,0.6l2.3,5.1l-4.6,0c0.3-2.7-0.6-6.1-1-7.5
		c-0.1-0.2-0.1-0.4-0.1-0.4l3.2-22.8c0-0.3,0.1-0.5,0.3-0.8l4.1-7.3c0.3-0.4,0.3-0.9,0.2-1.4c-0.7-2.7-2.8-14.1-1.5-18.7
		c1.3-4.8,5.8-9.6,9.9-10.7c1.6-0.4,3.2-0.8,4.8-1.1c2.8-0.6,5.4-1.2,7.6-2.2c1.4-0.6,2.9-1.5,4.4-2.3c2-1.1,3.9-2.2,5.2-2.5
		c1-0.3,1.9-0.3,2.9-0.3c1.2,0,2.5,0,3.8-0.6c2.1-0.9,12.6-7.1,16.7-12.5c2.4-3.2,5.7-8.1,8.3-12.1c1.7-2.6,3.2-4.9,3.9-5.7
		c0.6-0.7,1.1-1.4,1.6-2c0.4-0.5,0.7-0.8,0.9-1.1c0.5-0.7,0.4-1.8-0.3-2.4l-0.1-0.1l-0.2-0.1c-0.4-0.1-1-0.4-1.2-0.4
		c-1.6-0.9-2.6-2.3-3-3.1c1.3,0.1,3.8,0.4,5.7,2.3c0.5,0.5,1.3,0.5,1.9,0.1c1-0.8,1.4-1.4,1.3-2L211,2.3c2,5.9,2.9,6.3,3.3,6.5
		c0.6,0.3,1.5,0.4,2.6,0.3c0.3,0,0.7,0.1,0.8,0.4c0.8,1.4,2.2,3.3,4.6,4.9c2,1.3,4.1,3.1,5.5,4.7C228.1,19.4,228,19.7,228,19.8z"/>
	<path fill="#2D2D2D" d="M11.8,123.5c-0.2-0.1-0.3-0.3-0.4-0.5c-0.4-1.8-2.4-12-2.9-15.1c-0.8,0.8-1.5,1.8-2,2.8
		c0.1,0.4,0.4,1.2,0.9,3.3c0.6,2.6,1.5,6.1,2.3,8.7c0.3,0.8,0.2,1.7,0.2,2.3c0,0.3,0,0.5,0,0.7l3.3,0
		C12.3,124,11.9,123.6,11.8,123.5z"/>
	<path fill="#2D2D2D" d="M56.3,59.6c-1.4-0.9-2.1-2.1-2.6-2.9c-0.2-0.3-0.4-0.4-0.8-0.3c-0.6,0.1-1.1,0-1.5-0.2
		c-0.2-0.1-0.3-0.4-1.9-4.3c0,0-0.3-0.3-0.4-0.2c-0.2,0-0.3,0.1-0.3,0.5l0.4,3.9c0,0.4,0,0.6-0.3,0.8c-0.3,0.2-0.7,0.2-0.9-0.1
		c-1.4-1.7-3.2-1.4-3.9-1.5c0.2,0.5,0.6,1.7,1.9,2.3c0.3,0.1,0.4,0.3,0.7,0.3l0.1,0l0.1,0c0.4,0.3,0.5,0.7,0.2,1.1
		c-0.1,0.1-0.3,0.4-0.5,0.6c-0.3,0.3-0.7,0.8-1,1.2c-0.4,0.5-1.3,1.9-2.4,3.5c-1.6,2.4-3.6,5.5-5.1,7.4c-2.5,3.3-8.8,7-10.1,7.6
		c-0.8,0.3-1.5,0.3-2.2,0.3c-0.6,0-1.2,0-1.8,0.2c-0.8,0.2-2,0.9-3.2,1.5c-0.9,0.5-1.8,1-2.7,1.4c-1.3,0.6-2.9,1-4.6,1.3
		c-0.9,0.2-1.9,0.4-2.9,0.7c-2.6,0.7-5.3,3.7-6.1,6.6c-0.1,0.5-0.2,1.1-0.2,1.7c0,0.1,0,0.2-0.1,0.3c-0.1,0.2-0.2,0.6-0.3,1
		c-0.2,0.4-0.4,0.9-0.6,1.3c-0.1,0.2-0.3,0.5-0.4,0.7c-0.1,0.1-0.1,0.2-0.2,0.4l-0.2,0.4c-0.2,0.3-0.3,0.4-0.5,0.7
		c-0.2,0.2-0.3,0.4-0.5,0.6c-0.3,0.4-0.5,0.8-0.7,1.2c-0.2,0.4-0.4,0.7-0.5,0.9C0.1,101,0,101.1,0,101.1c0,0,0,0,0,0
		c0,0,0.1,0.1,0.1,0.1c0,0,0.2,0,0.4-0.1c0.3-0.1,0.6-0.3,1-0.5c0.4-0.3,0.8-0.6,1.1-1.1c0.2-0.2,0.3-0.5,0.4-0.8
		c0.1-0.3,0.3-0.6,0.4-0.8c0.4-1,0.7-2,0.8-2.9c0.1,3.1,0.9,6.9,1.2,8c0.1,0.3,0,0.5-0.1,0.7l-2.5,4.5c-0.1,0.2-0.2,0.3-0.2,0.5
		l-1.9,13.9c0,0.1,0,0.2,0.1,0.3c0.2,0.9,0.8,3,0.6,4.6c0,0.1,0,0.1,0,0.1l3.1,0l-1.5-3.3c0-0.1,0-0.2,0-0.3c0.2-1.9,0.9-8.3,1-9.3
		c0.2-1.8,1.8-5.6,4.1-7.7c0.3-0.5,1.4-1.5,3.2-3.1c1.4-1.3,3.5-3.3,3.7-3.7c0.1-0.1,0.2-0.3,0.3-0.6c0.8-1.4,2.4-4.3,0.3-6.8
		c-0.2-0.2-0.1-0.5,0.1-0.7c0.2-0.2,0.5-0.1,0.7,0.1c2.5,3,0.7,6.4-0.1,7.9c0.8,0.3,3.9,1.2,10.3-0.1c-0.9-1.9-1.7-4.7-1-7.6
		c0.1-0.3,0.3-0.4,0.6-0.4c0.3,0.1,0.4,0.3,0.4,0.6c-1,4.5,1.7,8.6,2.3,9.4c0.1,0.1,0.2,0.3,0.2,0.4c0.1,0.3,1.7,6.9,1.9,8.3
		c0.3,1.3,1.5,5.4,1.5,5.4l2.4,11.5l3.1,0c0-0.1-0.1-0.2-0.2-0.4c-0.3-0.4-0.7-0.9-0.9-1.3c-0.7-1.6-2.4-8.9-2.4-9.8
		c0.1-1.2-0.3-2.8-0.6-4.3c-0.1-0.5-0.2-1-0.3-1.5c-0.1-0.3-0.1-0.6-0.2-0.9c-0.4-2.1-1-4.7-0.8-6.6c0.1-1.6,0.8-3.1,1.6-4.8
		c0.3-0.7,0.7-1.5,1-2.3c0.7-1.9,0.3-4.5,0.1-6.2c0-0.2-0.1-0.4-0.1-0.6c0-0.4,0-0.7,0.2-1c0.6-1,2.2-3.5,3.7-6
		c1.1-1.9,2.3-3.9,3.1-5.1c1.7-2.8,6.4-11,7.6-13.3c0.2-0.3,0.6-0.5,0.9-0.4c1.9,0.5,6.4,0.6,8.8,0.6c0.2,0,0.5-0.2,0.7-0.4
		c0.1-0.3,0-0.6-0.1-0.7C58.8,61.5,57.6,60.4,56.3,59.6z M52,59.4c-0.5,0-0.9-0.4-0.9-0.9c0-0.5,0.4-0.9,0.9-0.9
		c0.5,0,0.9,0.4,0.9,0.9C52.9,58.9,52.5,59.4,52,59.4z"/>
	<path fill="#2D2D2D" d="M27.8,102.5c-0.2-0.2-0.5-0.7-0.8-1.3l-3.7,8.2l-2.5,13.3l0,2.9l3.5,0l-0.9-1.5c-0.1-0.2-0.2-0.5-0.1-0.7
		c0.1-0.3,0.2-1.2,0.3-2.3c0.5-4.3,1-8.6,1.8-10.1c1.2-2.2,2.8-6.7,2.8-6.8c0,0,0,0,0-0.1c-0.2-0.9-0.4-1.5-0.4-1.6
		C27.9,102.5,27.9,102.5,27.8,102.5z"/>
	<path fill="#2D2D2D" d="M27.3,100.2C27.3,100.2,27.3,100.2,27.3,100.2C27.3,100.3,27.3,100.2,27.3,100.2
		C27.3,100.2,27.3,100.2,27.3,100.2z"/>
	<path fill="#E08C34" d="M173,80.2c-9.7,1.8-14.7,0.7-16.3,0.1c1.1-2,3.3-6.3,1.6-10.5c0.9,1.5,1.5,3.6,1.6,6.1
		c0.1,1.3,1,2.4,2.3,2.8c2,0.6,4.9,0.1,6.9-0.3c0.6-0.1,1.1-0.7,1.1-1.3c0-2.4,0.1-7.6,1.3-9.5c0,0,0,0.1-0.1,0.2
		C170.4,72.6,171.6,77.1,173,80.2z"/>
	<g>
		<path fill="#AA6D43" d="M181.9,56.1c0,1.3-1.3,2.3-2.8,2.3s-2.8-1-2.8-2.3s2.3-3.8,3.8-3.4C181.6,53.1,181.9,54.8,181.9,56.1z"/>
		<path fill="#AA6D43" d="M192,48.6c0,1-1,1.8-2.1,1.8s-2.1-0.8-2.1-1.8s1.7-2.9,2.9-2.6C191.8,46.4,192,47.6,192,48.6z"/>
		<path fill="#AA6D43" d="M184.5,61.3c-0.2,0.8-1.2,1.2-2.1,0.9s-1.5-1.1-1.2-1.9c0.2-0.8,2.1-1.8,2.9-1.3
			C184.9,59.5,184.8,60.5,184.5,61.3z"/>
		<path fill="#AA6D43" d="M149.2,74.6c-0.2,0.8-1.2,1.2-2.1,0.9c-0.9-0.3-1.5-1.1-1.2-1.9s2.1-1.8,2.9-1.3
			C149.6,72.7,149.5,73.8,149.2,74.6z"/>
		<path fill="#AA6D43" d="M191.9,42.7c-0.2,0.6-0.9,0.8-1.5,0.6c-0.7-0.2-1.1-0.8-0.9-1.4c0.2-0.6,1.5-1.3,2.1-1
			C192.2,41.4,192.1,42.2,191.9,42.7z"/>
		<path fill="#AA6D43" d="M196.7,42.2c0.1,0.6-0.4,1.1-1.1,1.2c-0.7,0.1-1.3-0.3-1.4-0.9c-0.1-0.6,0.8-1.8,1.5-1.8
			C196.4,40.9,196.6,41.6,196.7,42.2z"/>
		<path fill="#AA6D43" d="M195.5,38.1c0.1,0.5-0.4,1-1,1.1c-0.6,0.1-1.2-0.3-1.3-0.8s0.7-1.7,1.4-1.6
			C195.2,36.9,195.4,37.5,195.5,38.1z"/>
		<path fill="#AA6D43" d="M198.9,36.1c0.1,0.5-0.4,1-1,1.1c-0.6,0.1-1.2-0.3-1.3-0.8s0.7-1.7,1.4-1.6
			C198.6,34.9,198.8,35.5,198.9,36.1z"/>
		<path fill="#AA6D43" d="M153,76.7c-0.2,0.6-0.9,0.8-1.5,0.6c-0.7-0.2-1.1-0.8-0.9-1.4c0.2-0.6,1.5-1.3,2.1-1
			C153.3,75.3,153.2,76.1,153,76.7z"/>
		<path fill="#AA6D43" d="M156.9,58.2c-0.2,0.8-1.2,1.2-2.1,0.9s-1.5-1.1-1.2-1.9c0.2-0.8,2.1-1.8,2.9-1.3
			C157.3,56.3,157.2,57.4,156.9,58.2z"/>
		<path fill="#AA6D43" d="M179.7,61.7c0.7,1.2,0.1,2.9-1.4,3.8c-1.5,0.9-3.3,0.6-4-0.6c-0.7-1.2,0-4.9,1.7-5.4
			C177.7,59,178.9,60.5,179.7,61.7z"/>
		<path fill="#AA6D43" d="M169.9,62.3c0.7,1.2,0.1,2.9-1.4,3.8c-1.5,0.9-3.3,0.6-4-0.6c-0.7-1.2,0-4.9,1.7-5.4
			C168,59.6,169.2,61.1,169.9,62.3z"/>
		<path fill="#AA6D43" d="M168.7,70.3c0.6,0.9,0.1,2.2-1,2.9s-2.5,0.5-3-0.5c-0.6-0.9,0-3.7,1.3-4.1
			C167.3,68.3,168.2,69.4,168.7,70.3z"/>
		<path fill="#AA6D43" d="M162.4,60.9c0.6,0.9,0.1,2.2-1,2.9s-2.5,0.5-3-0.5c-0.6-0.9,0-3.7,1.3-4.1C161,58.9,161.9,60,162.4,60.9z"
			/>
		<path fill="#AA6D43" d="M167.3,56.2c0.6,0.6,0.4,1.7-0.4,2.4c-0.8,0.7-1.8,0.7-2.4,0.1c-0.6-0.6-0.5-2.8,0.4-3.3
			C165.8,54.9,166.7,55.6,167.3,56.2z"/>
		<path fill="#AA6D43" d="M182.5,48.7c0.6,0.6,0.4,1.7-0.4,2.4c-0.8,0.7-1.8,0.7-2.4,0.1s-0.5-2.8,0.4-3.3
			C181.1,47.3,181.9,48,182.5,48.7z"/>
		<path fill="#AA6D43" d="M182.5,66.5c0.4,0.7,0,1.7-0.9,2.2c-0.9,0.5-1.9,0.3-2.3-0.4c-0.4-0.7,0.1-2.9,1.1-3.1
			C181.4,64.8,182.1,65.7,182.5,66.5z"/>
		<path fill="#AA6D43" d="M186.8,46.4c-0.2,0.8-1.2,1.2-2.1,0.9c-0.9-0.3-1.5-1.1-1.2-1.9c0.2-0.8,2.1-1.8,2.9-1.3
			C187.2,44.6,187,45.7,186.8,46.4z"/>
		<path fill="#AA6D43" d="M186.8,52.2c0.4,0.7,0,1.7-0.9,2.2c-0.9,0.5-1.9,0.3-2.3-0.4c-0.4-0.7,0.1-2.9,1.1-3.1
			C185.7,50.6,186.4,51.5,186.8,52.2z"/>
		<path fill="#AA6D43" d="M174,57.4c0.2,1.2-0.2,2.7-1.6,2.9s-2.5-1.4-2.8-2.6c-0.2-1.2,1.2-3,2.7-2.9C173.8,55,173.7,56.2,174,57.4
			z"/>
		<path fill="#AA6D43" d="M176.4,52.1c-0.3,0.9-1.1,1.7-2.1,1.3c-1.1-0.4-1.2-1.8-0.9-2.7c0.3-0.9,1.9-1.5,2.8-0.9
			C177.2,50.5,176.7,51.3,176.4,52.1z"/>
		<path fill="#AA6D43" d="M153.2,64.2c-0.8,0.8-2.1,0.6-3.1-0.3c-0.9-0.9-1.1-2.3-0.3-3.1s3.6-0.9,4.3,0.2
			C154.8,62.3,153.9,63.5,153.2,64.2z"/>
		<path fill="#AA6D43" d="M153.3,68.7c0.4,0.7,0,1.7-0.9,2.2c-0.9,0.5-1.9,0.3-2.3-0.4c-0.4-0.7,0.1-2.9,1.1-3.1
			C152.2,67,152.9,67.9,153.3,68.7z"/>
		<path fill="#AA6D43" d="M148.3,68.4c-0.3,0.9-1.1,1.7-2.1,1.3s-1.2-1.8-0.9-2.7c0.3-0.9,1.9-1.5,2.8-0.9
			C149.1,66.7,148.6,67.5,148.3,68.4z"/>
		<path fill="#AA6D43" d="M177.4,68.8c0.8,0.6,1.4,1.8,0.6,2.7c-0.8,1-2.4,0.5-3.2-0.1c-0.8-0.6-0.9-2.6,0.1-3.3
			C176,67.4,176.6,68.2,177.4,68.8z"/>
	</g>
	<g>
		<path fill="#AA6D43" d="M101.7,72.1c0,1-1,1.8-2.2,1.8s-2.2-0.8-2.2-1.8c0-1,1.8-2.9,3-2.6C101.5,69.8,101.7,71.1,101.7,72.1z"/>
		<path fill="#AA6D43" d="M109.5,66.3c0,0.8-0.7,1.4-1.7,1.4s-1.7-0.6-1.7-1.4c0-0.8,1.4-2.2,2.2-2
			C109.4,64.5,109.5,65.5,109.5,66.3z"/>
		<path fill="#AA6D43" d="M103.8,76.1c-0.2,0.6-0.9,0.9-1.6,0.7c-0.7-0.2-1.2-0.9-1-1.5c0.2-0.6,1.6-1.4,2.3-1
			C104.1,74.7,103.9,75.6,103.8,76.1z"/>
		<path fill="#AA6D43" d="M76.2,86.5c-0.2,0.6-0.9,0.9-1.6,0.7c-0.7-0.2-1.2-0.9-1-1.5c0.2-0.6,1.6-1.4,2.3-1
			C76.5,85.1,76.4,85.9,76.2,86.5z"/>
		<path fill="#AA6D43" d="M109.5,61.7c-0.1,0.4-0.7,0.7-1.2,0.5c-0.5-0.2-0.8-0.7-0.7-1.1c0.1-0.4,1.2-1,1.6-0.7
			C109.7,60.6,109.6,61.3,109.5,61.7z"/>
		<path fill="#AA6D43" d="M113.3,61.3c0.1,0.5-0.3,0.9-0.9,1c-0.5,0.1-1-0.2-1.1-0.7s0.6-1.4,1.2-1.4
			C113,60.2,113.2,60.8,113.3,61.3z"/>
		<path fill="#AA6D43" d="M112.3,58c0.1,0.4-0.3,0.8-0.8,0.9c-0.5,0.1-0.9-0.2-1-0.6s0.6-1.3,1.1-1.2
			C112.1,57.1,112.2,57.6,112.3,58z"/>
		<path fill="#AA6D43" d="M115,56.5c0.1,0.4-0.3,0.8-0.8,0.9c-0.5,0.1-0.9-0.2-1-0.6c-0.1-0.4,0.6-1.3,1.1-1.2
			C114.8,55.5,114.9,56.1,115,56.5z"/>
		<path fill="#AA6D43" d="M79.2,88.1c-0.1,0.4-0.7,0.7-1.2,0.5c-0.5-0.2-0.8-0.7-0.7-1.1c0.1-0.4,1.2-1,1.6-0.7
			C79.4,87.1,79.3,87.7,79.2,88.1z"/>
		<path fill="#AA6D43" d="M82.3,73.6c-0.2,0.6-0.9,0.9-1.6,0.7c-0.7-0.2-1.2-0.9-1-1.5c0.2-0.6,1.6-1.4,2.3-1
			C82.6,72.2,82.5,73,82.3,73.6z"/>
		<path fill="#AA6D43" d="M100,76.5c0.6,1,0.1,2.3-1.1,3c-1.2,0.7-2.6,0.5-3.1-0.5c-0.6-1,0-3.8,1.3-4.2
			C98.4,74.4,99.4,75.5,100,76.5z"/>
		<path fill="#AA6D43" d="M92.4,76.9c0.6,1,0.1,2.3-1.1,3c-1.2,0.7-2.6,0.5-3.1-0.5c-0.6-1,0-3.8,1.3-4.2
			C90.8,74.8,91.8,76,92.4,76.9z"/>
		<path fill="#AA6D43" d="M91.4,83.2c0.4,0.7,0.1,1.7-0.8,2.3s-1.9,0.4-2.4-0.4c-0.4-0.7,0-2.9,1-3.2C90.3,81.6,91,82.5,91.4,83.2z"
			/>
		<path fill="#AA6D43" d="M86.5,75.8c0.4,0.7,0.1,1.7-0.8,2.3s-1.9,0.4-2.4-0.4c-0.4-0.7,0-2.9,1-3.2C85.4,74.2,86.1,75.1,86.5,75.8
			z"/>
		<path fill="#AA6D43" d="M90.3,72.2c0.4,0.5,0.3,1.3-0.3,1.8c-0.6,0.5-1.4,0.6-1.9,0.1c-0.4-0.5-0.4-2.2,0.3-2.6
			C89.2,71.2,89.9,71.7,90.3,72.2z"/>
		<path fill="#AA6D43" d="M102.2,66.3c0.4,0.5,0.3,1.3-0.3,1.8c-0.6,0.5-1.4,0.6-1.9,0.1c-0.4-0.5-0.4-2.2,0.3-2.6
			C101.1,65.3,101.7,65.8,102.2,66.3z"/>
		<path fill="#AA6D43" d="M102.2,80.2c0.3,0.6,0,1.3-0.7,1.7c-0.7,0.4-1.5,0.2-1.8-0.3c-0.3-0.6,0.1-2.3,0.9-2.4
			C101.3,78.9,101.9,79.6,102.2,80.2z"/>
		<path fill="#AA6D43" d="M105.5,64.6c-0.2,0.6-0.9,0.9-1.6,0.7c-0.7-0.2-1.2-0.9-1-1.5s1.6-1.4,2.3-1
			C105.8,63.1,105.7,64,105.5,64.6z"/>
		<path fill="#AA6D43" d="M105.5,69c0.3,0.6,0,1.3-0.7,1.7c-0.7,0.4-1.5,0.2-1.8-0.3c-0.3-0.6,0.1-2.3,0.9-2.4
			C104.6,67.8,105.2,68.5,105.5,69z"/>
		<path fill="#AA6D43" d="M95.5,73.1c0.2,0.9-0.1,2.1-1.3,2.3c-1.1,0.2-2-1.1-2.2-2c-0.2-0.9,1-2.3,2.1-2.3
			C95.4,71.2,95.4,72.2,95.5,73.1z"/>
		<path fill="#AA6D43" d="M97.5,69c-0.2,0.7-0.8,1.3-1.7,1.1c-0.8-0.3-0.9-1.4-0.7-2.1c0.2-0.7,1.5-1.2,2.2-0.7
			C98.1,67.7,97.7,68.3,97.5,69z"/>
		<path fill="#AA6D43" d="M79.3,78.4c-0.6,0.6-1.7,0.5-2.4-0.2c-0.7-0.7-0.8-1.8-0.2-2.4c0.6-0.6,2.8-0.7,3.3,0.2
			C80.5,76.9,79.9,77.8,79.3,78.4z"/>
		<path fill="#AA6D43" d="M79.4,81.9c0.3,0.6,0,1.3-0.7,1.7c-0.7,0.4-1.5,0.2-1.8-0.3c-0.3-0.6,0.1-2.3,0.9-2.4
			C78.5,80.6,79.1,81.3,79.4,81.9z"/>
		<path fill="#AA6D43" d="M75.5,81.7c-0.2,0.7-0.8,1.3-1.7,1.1c-0.8-0.3-0.9-1.4-0.7-2.1s1.5-1.2,2.2-0.7
			C76.1,80.4,75.7,81,75.5,81.7z"/>
		<path fill="#AA6D43" d="M98.2,82c0.6,0.5,1.1,1.4,0.5,2.1c-0.6,0.8-1.8,0.4-2.5-0.1c-0.6-0.5-0.7-2,0.1-2.6
			C97.1,80.9,97.6,81.5,98.2,82z"/>
	</g>
	<path fill="#E08C34" d="M156.8,75c0,0.2-0.1,0.4-0.2,0.6c0,0.1-0.1,0.2-0.1,0.4c-0.2,0.6-0.4,1.1-0.6,1.6l-0.2,0.4c0,0,0,0,0,0
		c-0.3,0.6-0.6,1.2-0.9,1.6c-0.2,0.4-0.4,0.8-0.5,1c0,0,0,0.1,0,0.1c0,0.1-0.1,0.1-0.1,0.2c-0.1,0.1-0.3,0.3-0.5,0.5
		c-0.1,0.1-0.1,0.1-0.2,0.2c-0.1,0.1-0.2,0.2-0.2,0.3c-1.3,1.3-3.4,3.3-5,4.8c-0.3,0.3-0.6,0.5-0.8,0.8c-0.1,0.1-0.2,0.2-0.3,0.3
		c-1.7,1.6-3,2.8-3.6,3.6c-0.2,0.2-0.3,0.3-0.4,0.5c-0.3,0.3-0.7,0.6-1,1c1.1-4.4,8.1-8.1,8.6-11c0.1-0.6,0.5-1.1,1-1.3
		c5-2.6,4.1-9.9,3.8-11.4C157.1,71,157.2,73.1,156.8,75z"/>
	<path fill="#E08C34" d="M94.4,90.4c-6.9,1.3-10.6,0.6-12,0.1c0.8-1.4,2-4.1,1.5-6.8c-0.1-0.3-0.1-0.7-0.3-1c0.6,1.1,0.9,2.7,1,4.5
		c0.1,1,0.8,1.8,1.7,2.1c1.5,0.4,3.7,0.1,5.2-0.3c0.5-0.1,0.8-0.5,0.8-1c0-1.8,0.1-5.4,0.9-7c-0.3,1.3-0.3,2.5-0.2,3.7
		c0,0.3,0.1,0.6,0.1,0.9C93.3,87.4,93.8,89,94.4,90.4z"/>
	<path fill="#E08C34" d="M83.6,82.7c0.1,0.3,0.2,0.7,0.3,1c-0.1-0.4-0.2-0.8-0.3-1.2C83.6,82.6,83.6,82.7,83.6,82.7z"/>
	<path fill="#E08C34" d="M93,84.8c-0.1-1.2,0-2.4,0.2-3.7c0-0.1,0.1-0.1,0.1-0.2c0,0,0,0.1,0,0.1C93,82.3,92.9,83.6,93,84.8z"/>
	<path fill="#E08C34" d="M81.9,86.5c0,0.2-0.1,0.4-0.2,0.7c-0.1,0.2-0.2,0.5-0.3,0.7c-0.1,0.2-0.2,0.4-0.2,0.6l-0.1,0.3c0,0,0,0,0,0
		c0,0,0,0,0,0c-0.2,0.5-0.5,0.9-0.7,1.2c-0.1,0.3-0.3,0.5-0.3,0.7c0,0,0,0.1-0.1,0.1c0,0,0,0,0,0.1c0,0,0,0,0,0c0,0-0.1,0.1-0.1,0.1
		c0,0-0.1,0.1-0.1,0.1c-0.1,0.1-0.1,0.1-0.2,0.2l-0.1,0.1c0,0.1-0.1,0.1-0.1,0.1c-0.1,0.1-0.1,0.1-0.2,0.2c-0.1,0.1-0.2,0.2-0.3,0.3
		c-0.1,0.1-0.2,0.2-0.3,0.3c-0.1,0.1-0.3,0.3-0.4,0.4c-0.2,0.2-0.4,0.4-0.6,0.6c-0.7,0.7-1.5,1.4-2.2,2c-0.2,0.2-0.4,0.4-0.6,0.6
		c-0.1,0.1-0.2,0.1-0.2,0.2c-0.6,0.5-1.1,1-1.5,1.4c-0.2,0.2-0.4,0.3-0.5,0.5c-0.1,0.1-0.2,0.1-0.2,0.2c-0.1,0.2-0.3,0.3-0.4,0.4
		c-0.1,0.1-0.2,0.2-0.3,0.3c0,0,0,0,0,0c-0.1,0.1-0.1,0.1-0.2,0.2c-0.2,0.2-0.4,0.4-0.5,0.5c-0.1,0-0.1,0.1-0.2,0.2
		c0.8-3.3,6.3-6.2,6.6-8.5c0.1-0.4,0.4-0.8,0.8-1c3.7-1.9,3.2-7.2,3-8.6C82.1,83.4,82.2,85,81.9,86.5z"/>
	<path fill="#E08C34" d="M71.3,99.3c0.1-0.1,0.1-0.1,0.2-0.2C71.5,99.2,71.4,99.2,71.3,99.3C71.4,99.3,71.4,99.3,71.3,99.3z"/>
	<path fill="#E08C34" d="M71.5,99.1c0.1-0.1,0.2-0.2,0.3-0.3c0,0.1-0.1,0.1-0.1,0.2C71.7,99,71.6,99,71.5,99.1z"/>
	<path fill="#E08C34" d="M81.7,87.2c0.1-0.2,0.1-0.4,0.2-0.7c0,0.1,0,0.3-0.1,0.4C81.8,87,81.7,87.1,81.7,87.2z"/>
	<path fill="#E08C34" d="M142.2,92.7c0.3-0.3,0.6-0.7,1-1c0,0,0,0.1-0.1,0.1C142.8,92.1,142.5,92.4,142.2,92.7z"/>
	<path fill="#E08C34" d="M147.2,87.7c-1.7,1.6-3,2.8-3.6,3.6C144.2,90.5,145.5,89.4,147.2,87.7z"/>
	<path fill="#E08C34" d="M228,19.5c0,0.1,0,0.3,0,0.4c-0.1,0.1-0.2,0.4-0.6,0.4c-4.1,0.1-11.5-0.1-14.4-0.9
		c-0.7-0.2-1.4,0.1-1.8,0.8c-2,3.7-9.9,17.7-12.8,22.3c-1.2,1.9-3.1,5.2-5,8.3c-0.6,1-1.2,1.9-1.7,2.9l-0.1,0
		c0,0,12.7-21.5,18.9-36.3c0,0,11,2.8,17.4,2.3C227.9,19.5,228,19.5,228,19.5z"/>
	<path fill="#E08C34" d="M137.3,43.4c0,0.1-0.1,0.2-0.3,0.2c-3.2,0.1-8.9-0.1-11.2-0.7c-0.6-0.2-1.3,0.1-1.6,0.7
		c-1.5,2.9-7.7,13.8-9.9,17.3c-0.8,1.2-1.8,3-3,4.9c3.1-5.5,9.1-16.4,12.5-24.5c0,0,8.4,2.2,13.3,1.8l0.1,0.1
		C137.3,43.2,137.3,43.3,137.3,43.4z"/>
</g>
</svg>
