<?xml version="1.0" encoding="utf-8"?>
<!-- Generator: Adobe Illustrator 23.0.0, SVG Export Plug-In . SVG Version: 6.00 Build 0)  -->
<svg version="1.1" id="Layer_1" xmlns="http://www.w3.org/2000/svg" xmlns:xlink="http://www.w3.org/1999/xlink" x="0px" y="0px"
	 viewBox="0 0 128 128" style="enable-background:new 0 0 128 128;" xml:space="preserve">
<style type="text/css">
	.st0{fill:#937F63;}
	.st1{fill:#D3B48C;}
	.st2{fill:#B7A07B;}
	.st3{fill:#846D4E;}
	.st4{fill:#665C48;}
	.st5{fill:#705D50;}
	.st6{fill:#5B5241;}
	.st7{fill:#E7D6A3;}
	.st8{fill:#DDC280;}
	.st9{fill:#826E56;}
	.st10{fill:#A08B6D;}
	.st11{fill:#2D2D2D;}
</style>
<g>
	<path class="st0" d="M69.1,45.2c1.5-0.2,2.9-0.2,4.3-0.1c1.4,0,2.8,0.1,4.2,0.3c4.4,0.4,8.8,1.2,13,2.4c-0.5-1-1.1-1.9-1.8-2.8
		c-0.8-1.1-1.7-2.1-2.6-3.1c-0.9-0.8-2-1.5-3.2-2.1c-1.2-0.5-2.4-1-3.7-1.4c-2.5-0.8-5.2-1.4-7.8-2.1l-2-0.5c-0.7-0.2-1.3-0.3-2-0.4
		c-1.3-0.2-2.7-0.4-4-0.5c-5.4-0.4-10.9,0.1-16.2,1c-2.7,0.5-5.3,1-8,1.6c-2,0.4-3.9,0.9-5.8,1.4c0.2,0.1,0.4,0.2,0.5,0.3
		c0.8,0.5,1.6,0.9,2.4,1.2c1.6,0.7,3.3,1.4,5,1.9c1.7,0.5,3.5,0.8,5.3,1c1.8,0.2,3.6,0.2,5.4,0.2l0.2,0l0.1,0
		c0.8,0.3,1.7,0.6,2.5,0.9c0.9,0.3,1.8,0.5,2.6,0.8l4.7,1.4C64.6,46,66.8,45.5,69.1,45.2z"/>
	<polygon class="st1" points="126.2,39.5 126.2,39.5 126.2,39.5 126.2,39.5 	"/>
	<path class="st2" d="M116.7,52.5c-0.8,0-1.6,0-2.3,0c-0.8,0-1.6,0-2.3,0.1c-1.2,0.2-2.5,0.4-3.7,0.3c-1.3-0.1-2.5-0.3-3.8-0.4
		c-0.6-0.1-1.3-0.2-1.9-0.4c-0.6-0.2-1.2-0.6-1.7-1.1c-0.8-0.7-1.4-1.7-1.7-2.7c-0.6,0.2-1.1,0.4-1.7,0.6c-0.6,0.2-1.2,0.4-1.8,0.6
		c0,0,0,0,0.1,0c0.6,0.3,1.2,0.7,1.6,1.1c0.5,0.5,0.8,1,1.1,1.6c0.3,0.6,0.4,1.2,0.5,1.8c0.6,0.5,0.9,1.3,1.3,1.9
		c0.3,0.7,0.6,1.5,0.9,2.2c0.5,1.5,0.9,3,1.3,4.5l0,0.1l0,0.1c-0.5,2.4-1.1,4.8-1.6,7.2l-0.8,3.6c-0.3,1.2-0.5,2.3-0.9,3.5
		c0,1.7-0.4,3.4-0.9,5c-0.6,1.6-1.3,3.1-2.1,4.5c-0.8,1.4-1.7,2.8-2.7,4.2c-0.3,0.4-0.6,0.8-0.9,1.1c1.4-0.5,2.7-1.2,3.9-2.1
		c0.7-0.5,1.3-1,1.9-1.5c0.5-0.4,2-1.8,2.7-2.5c0.1-0.1,0.3,0,0.3,0.2c-0.3,1-0.8,3.1-1,3.7c-0.1,0.4-0.2,0.8-0.3,1.2
		c-0.1,0.4-0.2,0.8-0.2,1.2l0,0.2l-0.1,0.2c-0.8,1.2-1.4,2.6-1.8,4c-0.4,1.4-0.8,2.9-1,4.4c-0.6,3-0.9,6.1-1.4,9.2
		c-0.1,0.8-0.2,1.5-0.4,2.3c-0.1,0.8-0.4,1.6-0.7,2.4c-0.6,1.5-1.3,2.9-2.1,4.3c-0.8,1.4-1.6,2.7-2.4,4c-0.5,0.7-0.9,1.5-1.4,2.2
		l0.3-0.1l2.2-0.7c0.7-0.2,1.5-0.5,2.2-0.8c0.7-0.3,1.4-0.6,2.1-0.9c2.8-1.3,5.4-3,7.6-5.2c2.2-2.2,3.9-4.8,5.5-7.5
		c0.8-1.4,1.6-2.7,2.3-4.1c0.7-1.4,1.3-2.8,1.8-4.3c1-2.9,1.9-5.9,2.4-8.9c0.6-3,0.9-6.1,0.9-9.2c0-1.5-0.1-3.1-0.5-4.5
		c-0.2-0.7-0.4-1.4-0.8-1.9c-0.4-0.6-0.9-1-1.6-1.4c-1.3-0.7-2.8-1-4.3-1.1c-1.5-0.1-4.5,0.3-4.7,0.2s-0.2-0.2,0.2-2.5
		c0.2-0.8,0.4-1.5,0.6-2.3c0.5-1.5,1.1-3,2-4.3c0.4-0.7,1-1.4,1.7-1.9c0.6-0.5,1.3-0.9,1.9-1.4c0.6-0.4,1.1-0.8,1.4-1.3
		c0.4-0.5,0.6-1.1,0.9-1.8l0.2-0.6l0.5,0.1c0.9,0.2,1.7,0.2,2.6,0.1c0.9-0.1,1.7-0.6,2.3-1.2c0.7-0.6,1.1-1.4,1.5-2.2
		c0.3-0.6,0.5-1.3,0.7-1.9c-0.5-0.5-1.2-0.7-1.8-0.8C118.3,52.6,117.5,52.5,116.7,52.5z"/>
	<path class="st3" d="M124.2,37.3c-0.4-0.5-0.9-0.9-1.3-1.1c-2.2-0.5-4.4-0.6-6.7-0.5c-1.2,0.1-2.3,0.2-3.4,0.5
		c-1.1,0.3-2.2,0.8-3.3,1.3c-2.1,1.2-3.7,3-5.2,4.7c-0.8,0.9-1.5,1.7-2.3,2.7c-0.7,0.9-1.4,1.9-2,2.8L99.9,48L99.8,48c0,0,0,0,0,0
		c0.6,0.8,1.2,1.5,1.9,2c0.5,0.3,0.9,0.7,1.4,1c0.5,0.3,1,0.6,1.6,0.8c1.1,0.4,2.4,0.4,3.6,0.2c1.2-0.2,2.4-0.5,3.5-0.8l0,0l0.1,0
		c0.8-0.1,1.6-0.1,2.5-0.1c0.8,0,1.6,0.1,2.5,0.2c0.8,0.1,1.6,0.3,2.4,0.7c0.4,0.2,0.8,0.4,1.1,0.7c0.2,0.2,0.4,0.4,0.6,0.6
		c0.1-0.1,0.1-0.3,0.2-0.4c0.3-0.9,0.7-1.8,1.5-2.6c0.5-0.6,1-1.3,1.4-2.1c0.4-0.8,0.7-1.6,0.9-2.5c0.1-0.4,0.3-0.9,0.4-1.3
		c0-0.1,0-0.2,0.1-0.3c-0.2,0.4-0.4,0.8-0.7,1.2c-0.3,0.5-0.7,1-1.2,1.4c-0.4,0.4-0.9,0.8-1.4,1c0,0-0.1,0-0.1,0c0,0,0-0.1,0-0.1
		l0,0c0.4-0.4,0.7-0.9,1-1.3c0.3-0.5,0.6-1,0.8-1.5c0.2-0.5,0.4-1,0.5-1.5c0.1-0.5,0.3-1.1,0.3-1.6l0-0.2l0.2-0.2
		c0.4-0.6,0.9-1.1,1.3-1.7c-0.2-0.3-0.3-0.5-0.5-0.8C125.1,38.4,124.7,37.8,124.2,37.3z M121.5,42.4c-0.2,0.7-0.7,1.8-1.4,2.1
		c-0.6,0.3-1.8,0.1-2.5-0.2c-0.4-0.1-0.5-0.5-0.4-0.8c0.3-0.7,0.7-1.8,1.4-2.1c0.6-0.3,1.8,0,2.5,0.2
		C121.4,41.7,121.6,42.1,121.5,42.4z"/>
	<path class="st0" d="M12,81.5C12,81.5,12,81.5,12,81.5c0.9-1.2,1.8-2.4,2.7-3.5c1.6-1.9,3.1-3.9,4.8-5.7c0.4-0.5,0.9-1,1.3-1.4
		c-1.6-0.2-3.2-0.5-4.8-0.8c-1.7-0.3-3.5-0.6-5.2-0.9c-1.7-0.4-3.5-0.6-5.3-0.3c-0.9,0.2-1.7,0.5-2.5,0.9c-0.6,0.4-1.2,0.8-1.7,1.4
		c0,0.3,0.1,0.7,0.2,1.1c0.1,0.4,0.2,0.9,0.4,1.3c0.1,0.4,0.3,0.9,0.5,1.3c0.1,0.3,0.2,0.6,0.4,0.9c0.8,0.4,1.5,0.8,2.3,1.3
		c0.4,0.3,0.8,0.6,1.2,0.9c0.2,0.2,0.4,0.4,0.6,0.6c0.2,0.2,0.3,0.3,0.5,0.6c0.4,0.2,0.6,0.4,0.9,0.6l1.1,0.7
		c0.4,0.2,0.8,0.5,1.2,0.7C11.1,81.3,11.5,81.5,12,81.5L12,81.5z"/>
	<path class="st0" d="M21.5,97.6c-0.3,0.5-0.8,0.9-1.3,1.3c-0.3,0.2-0.6,0.3-0.9,0.4c-0.3,0.1-0.6,0.2-0.9,0.3
		c-1.1,0.4-2.1,0.9-3.1,1.6c-1.8,1.4-3.3,3.2-4.5,5.2c-1.2,2-2.2,4.2-3,6.4c-0.2,0.6-0.4,1.1-0.5,1.7c-0.1,0.5-0.1,1.1,0,1.7
		c0.2,1.2,0.6,2.3,0.9,3.5c0.1,0.3,0.1,0.6,0.2,0.9c0,0.2,0,0.3,0.1,0.5c0,0.1,0,0.2,0.1,0.4c0.2,0.5,0.6,0.9,1,1.3
		c0.8,0.7,1.9,1.3,3,1.4c0.5,0.1,1.1,0.1,1.6,0c0.5-0.1,0.9-0.3,1.4-0.6c0.9-0.6,1.8-1.4,2.7-2.2c1.7-1.6,3.4-3.3,4.9-5.1
		c0.8-0.9,1.5-1.8,2.2-2.8c0.7-0.9,1.3-1.9,1.7-2.9l0.1-0.3l0.2-0.1c0.5-0.4,1.1-1,1.6-1.5c0.5-0.6,1-1.2,1.5-1.8
		c0.9-1.2,1.8-2.3,2.7-3.5c-3.9-1.8-7.7-3.7-11.5-5.7C21.6,97.7,21.6,97.7,21.5,97.6z"/>
	<g>
		<path class="st4" d="M98.9,54.2L98.9,54.2L98.9,54.2L98.9,54.2c-0.3-0.7-0.5-1.2-0.8-1.7c-0.3-0.5-0.7-1-1.1-1.3
			c-0.4-0.4-0.9-0.6-1.4-0.9c0.1,0.1,0.1,0.2,0.2,0.3c0.5,0.6,0.8,1.3,1,2.1c0.2,0.7,0.4,1.5,0.5,2.2l0.2,1.1c0,0.3,0.1,0.5,0.1,0.8
			c0.1-0.1,0.3-0.2,0.4-0.2c0.3-0.1,0.5-0.2,0.8-0.2c0.3,0,0.5,0,0.8,0.1c0.2,0.1,0.4,0.1,0.6,0.3c-0.1-0.2-0.1-0.3-0.2-0.5
			C99.7,55.5,99.5,54.7,98.9,54.2z"/>
		<path class="st5" d="M100.3,57c-0.2,0.2-0.4,0.3-0.6,0.4c-0.3,0.1-0.5,0.2-0.8,0.2c-0.2,0-0.5,0-0.7-0.1c0.1,0.1,0.1,0.3,0.2,0.4
			c0.1,0.4,0.1,0.8,0.2,1.2c0,0.4,0.1,0.7,0.1,1.1c0,0.3,0.1,0.5,0.2,0.8c0.3,0,0.5,0,0.7,0c0.4,0.1,0.7,0.2,1,0.3
			c0.3,0.1,0.6,0.3,0.9,0.6c0,0,0,0,0.1,0c-0.3-1.2-0.5-2.4-0.9-3.5C100.6,57.9,100.5,57.4,100.3,57z"/>
		<path class="st6" d="M83.8,51.4c0.1,0.2,0.3,0.4,0.4,0.5c0.3,0.5,0.6,1.1,0.8,1.6c0.2,0.6,0.3,1.2,0.4,1.8c0,0.5,0,1.1-0.1,1.7
			c1,0.3,2,0.5,3,0.7c1.3,0.2,2.7,0.3,4,0.3l0.4,0c0.2-0.1,0.3-0.2,0.5-0.3c0.5-0.2,1-0.4,1.5-0.5c0.5-0.1,1-0.2,1.5-0.3
			c0.3,0,0.6,0,1,0c-0.1-0.3-0.1-0.6-0.1-0.9l-0.1-1.1c-0.1-0.7-0.2-1.5-0.4-2.2c-0.2-0.7-0.4-1.4-0.8-2c-0.1-0.2-0.2-0.3-0.4-0.5
			c-1.2-0.1-2.4-0.2-3.5-0.4c-1.1-0.2-2.2-0.4-3.2-0.6C86.9,50.1,85.3,50.8,83.8,51.4z"/>
		<path class="st6" d="M32.6,65c0.2,0.3,0.4,0.6,0.6,1c0.1,0.2,0.1,0.3,0.2,0.5c0.8-0.4,1.6-0.9,2.4-1.3c0.9-0.4,1.8-0.8,2.7-1.1
			c0.9-0.3,1.9-0.5,2.8-0.7c0.6-0.1,1.2-0.2,1.9-0.2l0-0.1l0.2-0.1c0.8-0.3,1.6-0.6,2.3-1.1c0.7-0.4,1.3-1.1,1.9-1.8
			c0.6-0.6,1.3-1,2.1-1.4c0.3-0.2,0.7-0.3,1-0.4c-0.3-0.2-0.5-0.5-0.7-0.7c-0.3-0.4-0.6-0.7-0.9-1.2c-0.3-0.4-0.6-0.8-0.8-1.3
			c-0.2-0.3-0.4-0.7-0.5-1c-0.7,0.3-1.3,0.6-2,1c-5,2.5-9.8,5.3-14.4,8.4l0,0l0,0c-0.1,0.1-0.2,0.2-0.4,0.2c0.3,0.1,0.5,0.3,0.7,0.4
			C32.1,64.5,32.4,64.7,32.6,65z"/>
		<path class="st6" d="M23.5,83.5c0.5-1.3,1-2.6,1.7-3.8c0.7-1.1,1.3-2.3,1.7-3.5c-0.5-0.6-1-1.2-1.5-1.9c-1,0.1-2.1,0.1-3.1,0.1
			c-0.6,0-1.2-0.1-1.7-0.1c-0.4-0.1-0.9-0.1-1.3-0.2c-1.3,1.5-2.7,2.9-4,4.5c-0.2,0.2-0.4,0.5-0.6,0.8c-0.3,1.8-0.7,3.6-1,5.4
			c2,1.5,3.9,2.9,5.8,4.4c1,0.8,2,1.5,3.1,2.2c-0.2-0.5-0.2-1.1-0.2-1.7c0-0.7,0-1.4,0.1-2.1C22.7,86.1,23,84.8,23.5,83.5z"/>
		<path class="st4" d="M101.8,62.8c-0.2,0-0.4,0-0.6,0c-0.4-0.1-0.7-0.2-1-0.3c-0.3-0.1-0.6-0.3-0.9-0.6c-0.1-0.1-0.3-0.2-0.4-0.4
			l0,0.1c0.1,0,0,0,0,0.1c0,0.1-0.1,0.2-0.1,0.3c-0.1,0.2-0.1,0.4-0.1,0.6c-0.1,0.4-0.2,0.8-0.2,1.3c-0.1,0.4-0.1,0.9-0.1,1.3
			c0,0.4,0,0.8,0,1.1c0.1,0,0.3,0,0.4,0c0.3,0,0.6,0,0.9,0.1c0.3,0.1,0.5,0.2,0.8,0.4c0.1,0.1,0.2,0.1,0.3,0.2L101.8,62.8z"/>
		<path class="st4" d="M50.5,55.2c0.4,0.3,0.8,0.6,1.1,1c0.2,0.2,0.5,0.5,0.7,0.8c0.4,0,0.7-0.1,1.1-0.1c0.6,0,1.1,0,1.7,0
			c1.1,0,2.2-0.1,3.3-0.5c0.5-0.2,1-0.5,1.6-0.7c0.5-0.2,1.1-0.3,1.6-0.3c0.5-0.1,1.1-0.1,1.6-0.1c0.2-0.1,0.4-0.3,0.6-0.3l-0.1,0
			c0.9-0.4,1.7-0.8,2.6-1.2c0.9-0.4,1.8-0.6,2.7-0.9c0.9-0.3,1.8-0.6,2.7-0.9c0.9-0.4,1.7-0.8,2.6-1.2l0,0l0.1,0c0.1,0,0.2,0,0.3,0
			c-0.2-0.1-0.4-0.2-0.6-0.3c-0.3-0.2-0.7-0.3-1-0.5c-0.7-0.3-1.4-0.6-2.1-1c-0.7-0.3-1.4-0.7-2.1-1.1c-0.4-0.2-0.8-0.5-1.2-0.8
			c-2.2,0.4-4.3,1-6.5,1.7c-4.4,1.4-8.7,3.2-12.9,5.2c0.3,0.1,0.6,0.3,0.8,0.5C49.7,54.6,50.1,54.9,50.5,55.2z"/>
		<path class="st4" d="M32.5,96c2.2,0.7,4.4,1.3,6.7,1.6c-0.5-1.9-0.9-3.9-1.2-5.8c-0.3-2.1-0.6-4.1-0.7-6.2
			c-0.1-2.1-0.2-4.1-0.2-6.2c0-2,0.1-3.9-0.1-5.9c-0.7,0.3-1.4,0.6-2,1c-0.8,0.4-1.6,0.8-2.4,1c-0.8,0.2-1.7,0.4-2.5,0.6
			c-0.8,0.1-1.5,0.2-2.3,0.2l0,0c-0.6,1.2-0.9,2.5-1.2,3.9c-0.3,1.3-0.7,2.6-1,3.9c-0.3,1.3-0.8,2.6-1.2,3.8
			c-0.2,0.6-0.4,1.2-0.7,1.9c-0.2,0.6-0.4,1.1-0.5,1.8c0.9,0.6,1.8,1.1,2.7,1.6C27.9,94.3,30.1,95.2,32.5,96z"/>
		<path class="st6" d="M86.8,47.9c-3.1-0.6-6.2-1-9.3-1.2c-1.4-0.1-2.8-0.2-4.1-0.2c-1.4,0-2.8,0-4.1,0.2c-0.1,0-0.2,0-0.3,0.1
			c0.1,0,0.2,0.1,0.3,0.1c0.8,0.2,1.5,0.5,2.2,0.8c0.7,0.3,1.4,0.7,2.1,1.3c0.3,0.2,0.6,0.5,0.9,0.9c0.2,0.2,0.4,0.5,0.5,0.8
			c1.2-0.2,2.5-0.4,3.7-0.6c1.4-0.2,2.8-0.3,4.2-0.4C84.2,49,85.5,48.4,86.8,47.9z"/>
		<path class="st5" d="M98.1,76.3c0.6-2.1,1.2-4.3,1.8-6.5l0.5-2c-0.1,0-0.3,0-0.4,0c-0.3,0-0.6,0-0.9-0.1c-0.3-0.1-0.5-0.2-0.8-0.4
			c-0.1-0.1-0.3-0.2-0.4-0.3l0,0c0.1,0,0,0,0,0.1c0,0-0.1,0.1-0.1,0.2c-0.1,0.1-0.2,0.3-0.2,0.4c-0.1,0.3-0.3,0.6-0.4,1
			c-0.3,0.7-0.5,1.3-0.7,2c-0.2,0.7-0.4,1.4-0.6,2.1c-0.1,0.3-0.2,0.7-0.2,1c0,0.2-0.1,0.3-0.1,0.5c0,0.1,0,0.1,0,0.2c0,0,0,0.1,0,0
			l-0.1,0.3c0.2,0,0.5,0.1,0.7,0.2c0.3,0.1,0.7,0.3,1,0.5c0.3,0.2,0.6,0.5,0.8,0.7C98,76.2,98,76.2,98.1,76.3z"/>
		<path class="st6" d="M64.1,56.8l0.1,0.2l0.2,0.4l0.3,0.7c0.3,0.7,0.6,1.4,0.9,2.2c2.2-0.1,4.4,0,6.6-0.1l1.8-0.1l1.7-0.1
			c1.2-0.1,2.3-0.2,3.5-0.3l0.3,0c0.2-0.2,0.4-0.5,0.7-0.7c0.4-0.3,0.8-0.6,1.2-0.9c0.4-0.3,0.8-0.5,1.3-0.7
			c0.4-0.2,0.9-0.3,1.4-0.4l0.3-0.1l0.1,0c0.1,0,0.3,0.1,0.4,0.1c-0.3-0.3-0.6-0.7-0.8-1.1c-0.3-0.5-0.6-1.1-0.8-1.6
			c-0.2-0.6-0.3-1.2-0.4-1.8c0-0.3,0-0.6,0-0.9c-1.3,0-2.6,0-3.9,0c-1.4,0-2.9-0.2-4.4-0.2c-0.9,0.3-1.7,0.7-2.6,1.1
			c-0.9,0.4-1.7,0.9-2.5,1.4c-0.8,0.5-1.6,1-2.5,1.4c-0.9,0.4-1.7,0.8-2.6,1.1l-0.1,0h0C64.2,56.5,64,56.6,64.1,56.8
			C64.1,56.7,64,56.7,64.1,56.8z"/>
		<path class="st6" d="M63.2,57.9l-0.2-0.3l-0.1-0.2c0,0-0.1-0.2-0.1-0.3c-0.1-0.1-0.1-0.3-0.1-0.4c-0.3,0.1-0.5,0.2-0.8,0.2
			c-0.5,0.1-1.1,0.3-1.6,0.3c-0.6,0-1.1,0-1.7-0.1c-1.1-0.1-2.2,0.2-3.3,0.7c-0.5,0.2-1,0.4-1.6,0.6c-0.5,0.2-1.1,0.3-1.6,0.4
			L51.8,59c-0.3,0.4-0.7,0.7-1.1,1.1c-0.7,0.5-1.3,1.1-2.1,1.4c-0.8,0.3-1.7,0.5-2.4,1c-0.5,0.3-0.9,0.7-1.4,1.1
			c0.1,0.1,0.2,0.3,0.4,0.4c0.2,0.3,0.4,0.5,0.5,0.8c0.1,0.3,0.2,0.6,0.2,1c0,0.1,0,0.2,0,0.3c1.5,0.1,2.9,0.2,4.4,0.3
			c0.8,0,1.7,0.1,2.5,0c0.8,0,1.7-0.1,2.5-0.1l0.3,0l0.1,0.3c1.4-1.2,2.8-2.2,4.2-3.2c0.8-0.5,1.6-1.1,2.4-1.6
			c0.8-0.5,1.6-1,2.5-1.5l0.2-0.1c-0.4-0.5-0.9-1.1-1.3-1.6L63.2,57.9z"/>
		<path class="st4" d="M97.3,63.8c0.1-0.5,0.2-0.9,0.3-1.4c0.1-0.2,0.1-0.5,0.2-0.7c0-0.1,0.1-0.2,0.1-0.4c0-0.1,0.1-0.1,0.1-0.2
			c-0.1-0.3-0.1-0.6-0.2-0.9c0-0.4-0.1-0.8-0.1-1.1c0-0.4,0-0.7-0.1-1.1c-0.1-0.3-0.2-0.6-0.4-0.7l0,0c-0.3,0.2-0.6,0.4-0.9,0.5
			c-0.5,0.2-1,0.4-1.5,0.5c-0.5,0.1-1,0.2-1.5,0.3c-0.2,0-0.4,0-0.5,0c0.3,1.3,0.6,2.6,0.8,3.9c0.3,1.4,0.5,2.7,0.6,4.1
			c0.2,1.4,0.3,2.7,0.3,4.1c0,0.6,0,1.1,0.1,1.7c0,0,0,0,0,0c0.2-0.7,0.4-1.4,0.7-2.1c0.2-0.7,0.5-1.4,0.8-2.1
			c0.1-0.3,0.3-0.7,0.5-1c0.1-0.2,0.2-0.3,0.3-0.5c0.1-0.1,0.1-0.2,0.2-0.3c0,0,0,0,0.1-0.1c0-0.4,0-0.8,0-1.1
			C97.2,64.7,97.2,64.3,97.3,63.8z"/>
		<path class="st6" d="M85.5,88.7c0.4-0.2,0.7-0.5,1.1-0.7c0.3-0.2,0.6-0.4,1-0.6c0.5-1,1.1-2,1.7-3c0.3-0.5,0.7-1,1-1.5
			c0.2-0.3,0.4-0.5,0.6-0.8c0.2-0.2,0.3-0.4,0.6-0.5c0.1-0.6,0.3-1.2,0.4-1.7c0.2-0.6,0.4-1.3,0.6-1.9c0.2-0.6,0.5-1.3,0.8-1.9
			c0.1-0.3,0.3-0.6,0.5-0.9c0.1-0.2,0.2-0.3,0.3-0.5c0-0.1,0.1-0.1,0.2-0.2L94.1,74c-0.1-0.3-0.2-0.7-0.3-1c-0.2-0.7-0.4-1.3-0.6-2
			c-0.3-1.3-0.6-2.7-0.9-4c-0.2-1.4-0.4-2.7-0.5-4.1c-0.1-1.2-0.2-2.5-0.3-3.7c-1.1-0.3-2.2-0.7-3.4-0.9c-1.2-0.3-2.5-0.3-3.7-0.4
			c-0.4,0.3-0.7,0.6-1.1,0.9c-0.4,0.3-0.9,0.5-1.3,0.6c-0.5,0.2-0.9,0.3-1.4,0.5c-0.3,0.1-0.7,0.2-1.1,0.2c0.5,2.4,1.2,4.9,1.6,7.3
			c0.5,2.5,1,5,1.4,7.6c0.4,2.5,0.7,5.1,1,7.6c0.2,2.3,0.4,4.7,0.5,7C84.5,89.3,85,89,85.5,88.7z"/>
		<path class="st4" d="M58.7,82.2c0.4,2.6,0.7,5.2,0.9,7.9c0.2,2.6,0.4,5.2,0.4,7.8c0.7-0.2,1.5-0.4,2.3-0.6c1-0.2,1.9-0.4,2.9-0.4
			c0.9,0,1.9,0,2.8,0.3c1.3-0.6,2.6-1,3.9-1.5c1.3-0.5,2.7-1,4-1.5c1.3-0.5,2.6-1.1,3.9-1.7c1.2-0.6,2.5-1.3,3.4-2.2l0,0l0,0
			c0.1-0.1,0.3-0.2,0.4-0.3c-0.7-2.3-1.3-4.7-1.8-7c-0.5-2.5-1-5-1.4-7.6c-0.4-2.5-0.7-5.1-1-7.6c-0.3-2.4-0.5-4.9-0.7-7.4
			c-1.1,0-2.1,0.1-3.1,0.2l-1.7,0.2l-1.7,0.2c-2.2,0.3-4.5,0.7-6.7,1c-0.8,0.5-1.5,0.9-2.3,1.4c-0.8,0.5-1.7,0.9-2.5,1.4
			c-1.6,0.8-3.2,1.6-4.9,2.3c0.5,2.5,1.2,5,1.6,7.5C57.8,77,58.3,79.6,58.7,82.2z"/>
		<path class="st4" d="M93.5,81.8c0.4,0,0.7,0.1,1.1,0.2c0.3,0.1,0.7,0.3,1,0.5c0.2,0.2,0.5,0.3,0.7,0.6c0.2-0.5,0.5-1,0.7-1.5
			c0.6-1.4,1-3,1-4.4c-0.2,0-0.4-0.1-0.5-0.2c-0.3-0.1-0.7-0.3-1-0.5c-0.3-0.2-0.6-0.5-0.8-0.7c-0.1-0.1-0.2-0.3-0.3-0.5l-0.1,0.1
			c0.1,0,0,0-0.1,0.1c-0.1,0.1-0.2,0.2-0.2,0.3c-0.1,0.3-0.3,0.5-0.4,0.8c-0.3,0.6-0.5,1.2-0.7,1.8c-0.2,0.6-0.4,1.2-0.6,1.8
			c-0.2,0.5-0.3,1.1-0.4,1.6C93,81.7,93.3,81.7,93.5,81.8z"/>
		<path class="st4" d="M68,99c0.1-0.4,0.2-0.7,0.3-1.1c0,0,0,0-0.1,0l-0.1,0l-0.1,0c-0.9-0.3-1.8-0.4-2.8-0.4
			c-0.9,0-1.9,0.1-2.8,0.3c-0.9,0.2-1.9,0.4-2.8,0.7c-0.9,0.3-1.8,0.6-2.6,1.1l-0.1,0l0,0c0.3,0.4,0.5,0.9,0.6,1.3
			c0.1,0.5,0.1,1.1,0,1.7c-0.1,0.5-0.3,1.1-0.5,1.6c0,0,0,0,0,0.1c1.9,0,3.9-0.2,5.7-0.4c1.8-0.3,3.6-0.7,5.4-1.3
			c-0.1-0.4-0.1-0.8-0.2-1.1c0-0.4,0-0.8,0-1.2C67.9,99.8,67.9,99.4,68,99z"/>
		<path class="st5" d="M79.2,96.5c-0.1-0.4-0.2-0.8-0.3-1.2c-0.1-0.3-0.1-0.7-0.1-1.1c-0.8,0.3-1.7,0.6-2.5,0.9
			c-1.4,0.5-2.7,0.9-4.1,1.4c-1.3,0.4-2.6,0.8-3.8,1.3c0.3,0.3,0.4,0.7,0.6,1.1c0.1,0.4,0.2,0.9,0.1,1.4c0,0.5-0.1,0.9-0.3,1.3
			c-0.1,0.3-0.3,0.6-0.5,0.9c1.1-0.4,2.3-0.8,3.4-1.2c2.7-1,5.3-2.1,7.9-3.4c0-0.1-0.1-0.2-0.1-0.3C79.4,97.2,79.3,96.9,79.2,96.5z"
			/>
		<path class="st5" d="M96.1,83.4c-0.3,0.1-0.6,0.1-0.8,0c-0.4,0-0.7-0.1-1.1-0.2c-0.3-0.1-0.7-0.3-1-0.5c-0.2-0.1-0.4-0.3-0.6-0.5
			l0,0.1l-0.3,0.2c-0.1,0.1-0.3,0.2-0.5,0.4c-0.2,0.2-0.3,0.4-0.5,0.7c-0.3,0.5-0.7,1-1,1.4c-0.6,1-1.2,2-1.8,3.1l-0.1,0.2
			c0.3,0.1,0.5,0.2,0.8,0.4c0.4,0.3,0.7,0.6,1,1c0.3,0.4,0.5,0.8,0.6,1.2c0,0.1,0,0.2,0.1,0.2c0.4-0.5,0.8-1,1.2-1.4
			c1-1.3,1.9-2.6,2.7-3.9C95.3,85,95.7,84.2,96.1,83.4z"/>
		<path class="st5" d="M54.5,99.6c-0.8,0-1.6,0.1-2.4,0.1c-1.5,0.1-3.1,0.3-4.6,0.4c0.2,0.3,0.3,0.7,0.4,1.1c0,0.5-0.1,1-0.2,1.5
			c-0.1,0.4-0.3,0.9-0.5,1.3c2,0.2,4,0.3,6,0.3c1,0,1.9,0,2.9,0c0-0.6,0.1-1.2,0.2-1.8c0.1-0.5,0.1-0.9,0.1-1.5
			c0.1-0.4,0.2-0.9,0.3-1.4C56,99.5,55.2,99.6,54.5,99.6z"/>
		<path class="st6" d="M59.8,97.9c-0.6-2.5-1.2-5.1-1.7-7.6c-0.5-2.6-1-5.2-1.4-7.8c-0.4-2.6-0.7-5.2-1-7.9
			c-0.3-2.5-0.5-5.1-0.7-7.6c-0.7,0-1.5,0-2.2,0c-0.8,0-1.7,0.1-2.5,0.1c-1.6,0.1-3.2,0.4-4.7,0.5c-0.6,0.5-1.2,0.9-1.8,1.4
			c-0.7,0.5-1.4,1-2,1.4c-1.4,0.9-2.7,1.8-4.2,2.5l0,0.1c0.1,2.1,0.6,4.1,0.9,6.2c0.4,2.1,0.6,4.1,0.8,6.2c0.2,2.1,0.3,4.1,0.4,6.2
			c0,2,0,4-0.2,6c0.1,0,0.1,0,0.2,0l0.1,0l0.1,0c1.2,0.5,2.4,0.9,3.7,1.2c1.3,0.3,2.6,0.5,3.8,0.7l4.8-0.3c0.8,0,1.6-0.1,2.4-0.1
			c0.8,0,1.6-0.1,2.4,0c0.8-0.5,1.7-0.9,2.6-1.2C59.6,98,59.7,98,59.8,97.9z"/>
		<path class="st5" d="M8.6,86.1c0.3-0.2,0.6-0.3,0.9-0.5c0.6-0.3,1.3-0.4,1.9-0.6c0.5-0.1,1.1-0.2,1.6-0.2l0-0.1
			c0.4-1.7,0.9-3.4,1.3-5.1c-1.3,1.6-2.5,3.1-3.7,4.7l0,0l0,0c-0.7,0.5-1.4,1-2.1,1.6c-0.3,0.3-0.6,0.6-0.9,0.9
			c-0.3,0.3-0.6,0.7-0.7,1c0,0.1,0,0.2,0,0.2c0,0,0,0.1,0,0.1c0.2-0.6,0.5-1,0.9-1.4C8,86.5,8.3,86.3,8.6,86.1z"/>
		<path class="st5" d="M18.7,91.8c0.1-0.2,0.2-0.4,0.3-0.6c0.2-0.3,0.4-0.5,0.7-0.8c-0.2-0.2-0.5-0.4-0.7-0.6
			c-1.9-1.6-3.9-3.2-5.8-4.8l0,0c-1,0.7-2.1,1.2-3.2,1.7c-0.3,0.1-0.5,0.3-0.8,0.4l-0.7,0.5c-0.4,0.3-0.9,0.5-1.4,0.8
			c0,0,0.1,0.1,0.2,0.1C7.6,88.7,8,88.9,8.4,89c0.8,0.2,1.8,0.4,2.5,1.2l0,0c1.7,1.4,3.6,2.5,5.5,3.6c0.3,0.2,0.7,0.4,1,0.6
			c0.3-0.7,0.7-1.3,1-1.9C18.5,92.1,18.6,92,18.7,91.8z"/>
		<path class="st6" d="M40.8,69.4c0.6-0.5,1.3-1.1,1.9-1.6c0.6-0.5,1.2-0.9,1.8-1.4c-0.2-0.2-0.4-0.4-0.6-0.6
			c-0.2-0.3-0.3-0.6-0.4-0.9c-0.1-0.2-0.1-0.5-0.2-0.7c-0.5,0.3-0.9,0.5-1.4,0.8c-0.9,0.4-1.8,0.9-2.7,1.2c-0.9,0.3-1.9,0.5-2.8,0.8
			c-0.9,0.2-1.9,0.3-2.9,0.5c-0.7,0.4-1.3,0.9-1.8,1.5c-0.5,0.6-1,1.4-1.6,2c-0.6,0.6-1.3,1.1-2,1.6c-0.5,0.3-1.1,0.7-1.7,0.9
			c0.3,0.8,0.6,1.7,0.9,2.5c0.7-0.4,1.3-0.8,2-1.1c0.8-0.4,1.6-0.7,2.4-1c0.8-0.3,1.7-0.4,2.6-0.5c0.9-0.1,1.7-0.2,2.6-0.5l0.3-0.1
			C38.5,71.5,39.6,70.4,40.8,69.4z"/>
		<path class="st4" d="M19.8,73.5c0.2-0.1,0.5-0.1,0.7-0.2c0.6-0.1,1.1-0.2,1.7-0.3c1.1-0.2,2.3-0.3,3.4-0.2l0.5,0
			c0.3-0.5,0.7-0.9,1-1.3c0.6-0.6,1.1-1.2,1.8-1.7c0.7-0.5,1.5-0.8,2.2-1.3c0.6-0.4,1.2-0.9,1.7-1.4c-0.2-0.1-0.3-0.2-0.5-0.3
			c-0.3-0.2-0.6-0.5-0.8-0.8c-0.2-0.3-0.4-0.6-0.6-1c-0.1-0.3-0.2-0.6-0.3-0.9c-1.8,1.1-3.6,2.5-5.2,3.9c-1.9,1.6-3.6,3.3-5.3,5.1
			C20.1,73.1,20,73.3,19.8,73.5z"/>
		<path class="st4" d="M26.5,98.8c0.1-0.5,0.3-1,0.4-1.4c0.1-0.2,0.1-0.4,0.2-0.6c0.1-0.2,0.1-0.4,0.2-0.6c0.1-0.3,0.3-0.5,0.5-0.8
			c-0.9-0.4-1.7-0.8-2.6-1.3c-1.7-1-3.4-2.1-5-3.3c0,0.3,0,0.6-0.1,0.9c-0.1,0.2-0.1,0.5-0.3,0.7c-0.1,0.2-0.2,0.5-0.4,0.7
			c-0.3,0.4-0.6,0.8-1,1.1c-0.2,0.1-0.3,0.3-0.5,0.4c1.4,0.8,2.9,1.5,4.3,2.3C23.6,97.5,25.1,98.1,26.5,98.8z"/>
		<path class="st5" d="M35.7,98.8c0.1-0.2,0.2-0.5,0.3-0.7c-1.3-0.3-2.6-0.6-3.9-1c-1.3-0.4-2.6-0.9-3.8-1.5
			c0.1,0.3,0.1,0.5,0.1,0.8c0,0.2,0,0.5-0.1,0.7c-0.1,0.2-0.1,0.5-0.2,0.7c-0.2,0.4-0.4,0.9-0.8,1.2c0,0-0.1,0.1-0.1,0.1
			c2.3,1.1,4.6,2.2,6.9,3.2c0.2,0,0.4,0.1,0.6,0.1c0-0.2,0.1-0.5,0.2-0.7c0.1-0.5,0.3-1,0.4-1.5l0.2-0.7
			C35.5,99.3,35.6,99,35.7,98.8z"/>
		<path class="st4" d="M39.5,98.6c-0.9-0.1-1.8-0.2-2.6-0.3c0,0.3,0,0.5,0,0.8c-0.1,0.5-0.3,1.1-0.5,1.6c-0.2,0.5-0.5,1-0.8,1.4
			c-0.1,0.2-0.2,0.3-0.3,0.4c3.7,0.6,7.4,1.1,11.1,1.4c0,0,0-0.1,0-0.1c0-0.5,0.1-0.9,0.1-1.4l0.1-0.6c0-0.2,0-0.4,0.1-0.6
			c0.1-0.3,0.2-0.7,0.4-1c-1.2-0.1-2.5-0.3-3.7-0.5C42,99.4,40.7,99.1,39.5,98.6z"/>
		<path class="st4" d="M89.2,90.4c-0.2-0.3-0.4-0.7-0.7-1c-0.1-0.3-0.3-0.6-0.4-0.9c-0.3,0.2-0.6,0.3-0.9,0.5
			c-0.4,0.2-0.7,0.4-1.1,0.7c-0.7,0.5-1.4,0.9-2.1,1.5c-1.1,1.1-2.4,1.7-3.7,2.3c-0.4,0.2-0.9,0.4-1.3,0.6c0.3,0.2,0.6,0.5,0.8,0.8
			c0.3,0.4,0.5,0.8,0.6,1.2c0.1,0.4,0.2,0.9,0.2,1.3c0,0,0,0,0,0c0,0,0,0,0,0c2.9-1.4,5.7-2.9,8.4-4.6c0.3-0.2,0.7-0.4,0.9-0.6
			c0.1-0.1,0,0,0.1-0.1l0.2-0.2l0.2-0.2c-0.1-0.1-0.3-0.3-0.4-0.4C89.7,91.1,89.5,90.8,89.2,90.4z"/>
	</g>
	<path class="st7" d="M97.8,83.5c0.6-0.3,3.8-2.2,5.3-1c1.5,1.2,1.9,4.4-0.4,7.9c-2.9,4.4-5.2,9.5-5.7,12.3s-0.4-4-0.3-4.5
		s2.3-5.9,3.1-7.1c0.8-1.2,0.6-3.4,0.6-3.4s-2.3,1.9-2.8,2s-4.6,2.6-5.9,2.6C93.5,89.8,97.8,83.5,97.8,83.5z"/>
	<path class="st7" d="M125.1,42.1c0,0-1.7,4.5-2.9,5.4c-1.2,0.9-5.7,3.5-9.3,4c4.9,0.8,8.1,1.2,8.3,2.6c1.2-2.8,3.7-5,3.9-6.4
		c0.2-1.4,0.6-3.2,0.4-3.8"/>
	<path class="st8" d="M103.3,51.9c7.4,1.5,9.2-0.4,11.5,0.1c2.4,0.5,5.2-0.5,6,1.6s-1.3,5.4-3.5,5.6s-3.8,0.2-3.8,0.2
		s0.9,2.3-1.5,3.5c-2.4,1.2-6.7,7.4-7.7,11.5c-1.5-0.5-2.8-1.8-5.9,2.9c0.9-3.1,3.8-14.5,3.8-14.5s-1-4-1.4-4.9
		c-0.6-1.4-0.6-2.5-1.2-3.1c0.8,0.3,1.2,1.4,3.1-0.6C103.5,53.3,103.3,51.9,103.3,51.9z"/>
	<path class="st9" d="M25.9,99.6c0,0.3-1.3,11.4-5.1,13.8c-3.8,2.4-6.7,6-8.9,3.7s-3.7-6.3-3.7-6.3s-1.5,2.6-1.3,4.5
		c0.2,1.9,1.4,5.4,1.3,6.1c0.5,1.2,3,4.2,6.4,3.4c3.3-0.8,11.2-9.8,11.7-10.9c0.5-1.1,3.2-5,3.9-5.7c0.6-0.7,3.7-5.4,3.4-5.4
		C33.4,102.8,25.9,99.6,25.9,99.6z"/>
	<path class="st9" d="M2.9,75.8c0,0-0.4-3.9,5.2-4.3c2.9-0.2,5.2,1.8,7.1,1.7c3.4-0.2,6.4-2.4,6.4-2.4s-9.3,11-9.4,11
		s-2.8-0.2-4.5-1.4S3,75.7,2.9,75.8z"/>
	<path class="st10" d="M113.2,83.6c-1.7,3.9-0.9,8.9-5.5,15.6c-2.8,3.7-4.4,9.4-5.8,12.8s-9.1,9.5-9.8,7.4c-3,3-5,7.3-5,7.3
		s10.4-3.5,13.3-6.1c3-2.6,10.7-12.7,11.8-15.9c1.1-3.2,4.9-14.7,4.6-19.3c-0.4-4.6-0.8-8.2-2.1-9.1c-1.4-1-4.6-2.1-6.1-2
		c-1.6,0.1-3.9,0.4-3.9,0.4S114.9,79.7,113.2,83.6z"/>
	<path class="st11" d="M127.8,38.9l-0.1-0.1c-0.2-0.3-0.4-0.7-0.6-1c-0.4-0.6-0.9-1.3-1.4-1.8c-0.5-0.6-1.1-1.2-2-1.6l-0.1-0.1
		l-0.1,0c-1.2-0.2-2.5-0.3-3.7-0.3c-1.2,0-2.5,0.1-3.7,0.4c-2.4,0.6-4.7,1.6-6.8,2.7c-1.1,0.6-2.1,1.2-3.2,1.8c-1,0.7-2,1.4-2.9,2.2
		c-0.9,0.8-1.7,1.8-2.4,2.8c-0.4,0.5-0.7,1-1,1.6c-0.3,0.5-0.5,1-0.8,1.5c-0.6,0.3-1.2,0.7-1.7,1.1c-0.6,0.4-1.2,0.8-1.8,1.2
		c-0.5-0.2-0.9-0.4-1.4-0.5c-1-0.4-2.1-0.7-3.1-1c-0.4-1.2-0.9-2.3-1.4-3.4c-0.7-1.2-1.4-2.4-2.4-3.5c-1-1.1-2.2-1.9-3.5-2.6
		c-1.3-0.7-2.6-1.1-3.9-1.6c-2.6-0.9-5.3-1.4-8.1-1.8c-1.4-0.2-2.7-0.4-4.1-0.5c-1.4-0.1-2.7-0.1-4.1-0.2c-5.5-0.1-10.9,0-16.4,0.5
		c-5.5,0.5-10.8,1.5-16.2,2.9l-1.8,0.5l1.5,1.2c1.6,1.3,3.2,2.2,4.9,3c1.7,0.8,3.5,1.4,5.4,1.9c1.8,0.5,3.7,0.7,5.6,0.9
		c1.9,0.1,3.7,0,5.5-0.2c0.9,0.3,1.7,0.4,2.6,0.6c0.9,0.2,1.8,0.4,2.7,0.5c1.4,0.2,2.9,0.5,4.3,0.7c-0.3,0.1-0.7,0.2-1,0.3
		c-5.4,1.7-10.6,3.9-15.6,6.5c-5,2.6-9.9,5.5-14.5,8.7l0,0c-2.2,1.3-4.1,2.9-6,4.6c-1.3,1.2-2.5,2.4-3.7,3.6c-1.5-0.9-3.1-1.5-4.7-2
		c-1.8-0.5-3.6-0.9-5.4-0.9c-1.9,0-3.7,0.3-5.5,0.6c-1.8,0.3-3.7,0.8-5.2,2.1l-0.2,0.1l0,0.3C0,71.4,0,72,0.1,72.5
		c0.1,0.5,0.2,1,0.3,1.5c0.1,0.5,0.2,1,0.4,1.5c0.1,0.5,0.3,0.9,0.5,1.4l0.1,0.3l0.4,0.2c0.8,0.4,1.7,0.9,2.5,1.3
		C4.6,79,5,79.2,5.3,79.4c0.2,0.1,0.4,0.2,0.5,0.4C6,79.9,6.1,80,6.1,80l0.5,0.5c0.3,0.1,0.8,0.3,1.2,0.4c0.4,0.2,0.9,0.3,1.3,0.5
		c0.4,0.1,0.9,0.3,1.4,0.3c0.4,0.1,0.9,0.1,1.3,0c-0.5,0.7-1.1,1.5-1.6,2.2c-0.7,0.5-1.4,1-2.1,1.6c-0.3,0.3-0.7,0.6-1,0.9
		c-0.3,0.3-0.6,0.7-0.8,1.2c0,0.1-0.1,0.3-0.1,0.4c0,0.2,0.1,0.3,0.1,0.5c0.1,0.3,0.3,0.5,0.6,0.6c0.4,0.3,0.9,0.4,1.3,0.5
		c0.8,0.3,1.7,0.5,2.2,1l0,0l0,0c1.7,1.5,3.6,2.6,5.5,3.8c1.8,1.1,3.5,2.1,5.3,3c-0.4,0.4-0.9,0.6-1.4,0.8c-0.3,0.1-0.5,0.2-0.8,0.2
		c-0.3,0.1-0.5,0.1-0.9,0.1c-1.2,0.2-2.5,0.7-3.6,1.3c-2.2,1.3-3.9,3.3-5.2,5.5c-1.3,2.2-2,4.6-2.5,7c-0.1,0.6-0.2,1.2-0.3,1.9
		c-0.1,0.7,0,1.3,0.1,1.9c0.3,1.2,0.7,2.4,0.9,3.6c0.1,0.3,0.1,0.6,0.1,0.9c0,0.1,0,0.3,0,0.4c0,0.2,0,0.4,0.1,0.5
		c0.2,0.7,0.6,1.2,1,1.7c0.9,1,2,1.7,3.3,2.1c0.6,0.2,1.3,0.3,2,0.2c0.7,0,1.4-0.3,2-0.6c1.2-0.6,2.1-1.4,3.1-2.2
		c1.9-1.6,3.7-3.3,5.3-5.2c0.8-1,1.5-1.9,2.2-3c0.6-1,1.3-2,1.6-3.3c0.6-0.6,1-1.2,1.5-1.8c0.5-0.7,0.9-1.4,1.3-2.1
		c0.4-0.7,0.8-1.4,1.2-2.1c0.3-0.6,0.6-1.2,0.9-1.9c0.1,0,0.1,0.1,0.2,0.1l0.1,0l0.1,0c6.4,1.2,12.8,2.1,19.3,2.3
		c3.3,0.1,6.5,0.1,9.8-0.3c3.3-0.5,6.5-1.4,9.5-2.6c6.1-2.3,12-5.1,17.6-8.6c0.4-0.2,0.7-0.4,1.1-0.8c0.1,0,0.3-0.3,0.3-0.3l0.2-0.2
		l0.4-0.5c0.1-0.2,0.3-0.3,0.4-0.5c0.8-0.2,1.5-0.4,2.2-0.7c0.8-0.3,1.5-0.7,2.2-1.1c0.7-0.4,1.4-0.9,2.1-1.3
		c0.2-0.1,0.4-0.3,0.6-0.4c-0.1,0.3-0.2,0.5-0.3,0.8c-0.1,0.4-0.2,0.8-0.4,1.2c-0.1,0.4-0.2,0.7-0.2,1.1c-1,1.3-1.6,2.7-2.2,4.2
		c-0.5,1.5-0.9,3-1.3,4.6c-0.7,3.1-1.1,6.2-1.6,9.2c-0.1,0.8-0.2,1.5-0.4,2.3c-0.1,0.8-0.3,1.4-0.6,2.1c-0.5,1.4-1.2,2.7-1.9,4.1
		c-0.7,1.3-1.5,2.7-2.3,4c-0.8,1.3-1.6,2.6-2.3,4.1l-0.8,1.7l1.7-0.6c3-1,5.9-2.1,8.7-3.7c1.4-0.8,2.8-1.6,4-2.6
		c0.7-0.5,1.2-1,1.8-1.5c0.6-0.6,1.2-1.1,1.7-1.7c2.2-2.3,4-4.9,5.8-7.5c0.9-1.3,1.8-2.6,2.6-4c0.8-1.4,1.5-2.8,2.1-4.3
		c1.2-3,2.1-6,2.7-9.2c0.6-3.1,0.9-6.3,0.8-9.6c-0.1-1.6-0.2-3.2-0.7-4.8c-0.2-0.8-0.6-1.6-1.1-2.3c-0.5-0.7-1.2-1.2-2-1.6
		c-1.5-0.8-3.2-0.9-4.8-0.9c-1.4,0-2.7,0.2-4,0.5c-0.2,0-0.3-0.1-0.3-0.3c0.5-1.2,1.2-2.4,1.8-3.5c0.7-1.3,1.5-2.6,2.4-3.8
		c0.4-0.6,0.9-1,1.4-1.5c0.5-0.5,1.1-0.9,1.8-1.4c0.6-0.5,1.3-1.2,1.7-2c0.4-0.6,0.6-1.3,0.7-2c0.8,0,1.5-0.2,2.3-0.4
		c0.5-0.2,0.9-0.4,1.3-0.6c0.4-0.3,0.8-0.6,1.2-0.9c1.4-1.4,2.3-3.1,3.3-4.6c0.5-0.8,0.9-1.5,1.5-2.1c0.7-0.8,1.2-1.7,1.5-2.7
		c0.3-0.9,0.5-1.9,0.6-2.9c0-0.5,0-1,0-1.5c0-0.2,0-0.5-0.1-0.7c0-0.1,0-0.2-0.1-0.4c0,0,0-0.1-0.1-0.1c0.1-0.3,0.2-0.6,0.3-0.9
		c0.5-0.5,1-1,1.4-1.5l0.1-0.1l0,0l0,0l0.1-0.1c0.1-0.2,0.3-0.4,0.3-0.6c0.1-0.2,0-0.5,0-0.7C127.9,39.2,127.9,39,127.8,38.9z
		 M64.1,56.7c0-0.1,0.1-0.2,0.2-0.2h0l0.1,0c0.9-0.4,1.8-0.7,2.6-1.1c0.9-0.4,1.7-0.9,2.5-1.4c0.8-0.5,1.7-1,2.5-1.4
		c0.8-0.4,1.7-0.7,2.6-1.1c1.4,0,2.9,0.2,4.4,0.2c1.3,0,2.6,0,3.9,0c0,0.3,0,0.6,0,0.9c0.1,0.6,0.2,1.2,0.4,1.8
		c0.2,0.6,0.4,1.1,0.8,1.6c0.2,0.4,0.5,0.7,0.8,1.1c-0.1,0-0.3-0.1-0.4-0.1l-0.1,0L84,56.8c-0.5,0.1-1,0.2-1.4,0.4
		c-0.4,0.2-0.9,0.5-1.3,0.7c-0.4,0.3-0.8,0.6-1.2,0.9c-0.2,0.2-0.5,0.4-0.7,0.7l-0.3,0c-1.2,0.1-2.3,0.3-3.5,0.3L73.9,60l-1.8,0.1
		c-2.2,0-4.4,0-6.6,0.1c-0.3-0.7-0.6-1.5-0.9-2.2l-0.3-0.7l-0.2-0.4L64.1,56.7C64,56.7,64.1,56.7,64.1,56.7z M75,50.6
		c-0.1-0.3-0.3-0.6-0.5-0.8c-0.3-0.3-0.6-0.6-0.9-0.9c-0.7-0.5-1.4-0.9-2.1-1.3c-0.7-0.3-1.5-0.6-2.2-0.8c-0.1,0-0.2-0.1-0.3-0.1
		c0.1,0,0.2,0,0.3-0.1c1.3-0.2,2.7-0.2,4.1-0.2c1.4,0,2.8,0.1,4.1,0.2c3.1,0.2,6.3,0.6,9.3,1.2c-1.3,0.5-2.6,1.1-3.9,1.7
		c-1.4,0.1-2.8,0.3-4.2,0.4C77.5,50.2,76.3,50.4,75,50.6z M64.9,60.2l-0.2,0.1c-0.8,0.5-1.7,1-2.5,1.5c-0.8,0.5-1.6,1-2.4,1.6
		c-1.5,1-2.9,2-4.2,3.2l-0.1-0.3l-0.3,0c-0.8,0.1-1.7,0.1-2.5,0.1c-0.8,0-1.7,0-2.5,0c-1.5-0.1-2.9-0.2-4.4-0.3c0-0.1,0-0.2,0-0.3
		c0-0.4-0.1-0.7-0.2-1c-0.1-0.3-0.3-0.6-0.5-0.8c-0.1-0.1-0.2-0.3-0.4-0.4c0.4-0.4,0.9-0.8,1.4-1.1c0.7-0.5,1.6-0.7,2.4-1
		c0.8-0.3,1.5-0.8,2.1-1.4c0.4-0.3,0.7-0.7,1.1-1.1l0.3-0.1c0.5-0.1,1.1-0.3,1.6-0.4c0.5-0.2,1.1-0.4,1.6-0.6
		c1.1-0.4,2.1-0.7,3.3-0.7c0.6,0,1.1,0.1,1.7,0.1c0.6,0,1.1-0.1,1.6-0.3c0.3-0.1,0.5-0.1,0.8-0.2c0,0.1,0,0.3,0.1,0.4
		c0,0.1,0.1,0.3,0.1,0.3l0.1,0.2l0.2,0.3l0.5,0.6C64,59.1,64.5,59.7,64.9,60.2z M60.6,64.6c0.8-0.5,1.7-0.9,2.5-1.4
		c0.8-0.4,1.6-0.9,2.3-1.4c2.2-0.2,4.5-0.7,6.7-1l1.7-0.2l1.7-0.2c1-0.1,2.1-0.1,3.1-0.2c0.3,2.5,0.4,4.9,0.7,7.4
		c0.3,2.5,0.6,5.1,1,7.6c0.4,2.5,0.9,5.1,1.4,7.6c0.5,2.3,1.1,4.7,1.8,7c-0.1,0.1-0.3,0.2-0.4,0.3l0,0l0,0c-0.9,0.9-2.2,1.6-3.4,2.2
		c-1.3,0.6-2.6,1.2-3.9,1.7c-1.3,0.5-2.7,1-4,1.5c-1.3,0.5-2.6,1-3.9,1.5c-0.9-0.3-1.9-0.3-2.8-0.3c-1,0-2,0.2-2.9,0.4
		c-0.8,0.2-1.5,0.4-2.3,0.6c0.1-2.6-0.2-5.2-0.4-7.8c-0.2-2.6-0.5-5.3-0.9-7.9c-0.4-2.6-0.9-5.2-1.4-7.8c-0.5-2.5-1.1-5-1.6-7.5
		C57.4,66.2,59,65.4,60.6,64.6z M83.6,82.6c-0.3-2.6-0.6-5.1-1-7.6c-0.4-2.5-0.9-5.1-1.4-7.6c-0.5-2.4-1.1-4.9-1.6-7.3
		c0.4,0,0.7-0.1,1.1-0.2c0.5-0.1,1-0.3,1.4-0.5c0.5-0.2,0.9-0.4,1.3-0.6c0.4-0.2,0.7-0.5,1.1-0.9c1.3,0,2.5,0.1,3.7,0.4
		c1.1,0.2,2.3,0.5,3.4,0.9c0,1.2,0.2,2.5,0.3,3.7c0.1,1.4,0.3,2.7,0.5,4.1c0.2,1.4,0.5,2.7,0.9,4c0.2,0.7,0.4,1.3,0.6,2
		c0.1,0.3,0.2,0.7,0.3,1l0.2,0.4c-0.1,0.1-0.1,0.1-0.2,0.2c-0.1,0.2-0.2,0.3-0.3,0.5c-0.2,0.3-0.3,0.6-0.5,0.9
		c-0.3,0.6-0.5,1.2-0.8,1.9c-0.2,0.6-0.5,1.3-0.6,1.9c-0.2,0.6-0.3,1.1-0.4,1.7c-0.2,0.2-0.4,0.4-0.6,0.5c-0.2,0.2-0.4,0.5-0.6,0.8
		c-0.4,0.5-0.7,1-1,1.5c-0.6,1-1.1,2-1.7,3c-0.3,0.2-0.7,0.4-1,0.6c-0.4,0.2-0.7,0.5-1.1,0.7c-0.5,0.3-0.9,0.7-1.4,1
		C84,87.3,83.8,85,83.6,82.6z M97.2,66.3C97.1,66.4,97.1,66.4,97.2,66.3c-0.1,0.2-0.2,0.3-0.2,0.3c-0.1,0.2-0.2,0.3-0.3,0.5
		c-0.2,0.3-0.3,0.7-0.5,1c-0.3,0.7-0.6,1.4-0.8,2.1c-0.2,0.7-0.5,1.4-0.7,2.1c0,0,0,0,0,0c0-0.6,0-1.1-0.1-1.7
		c-0.1-1.4-0.2-2.7-0.3-4.1c-0.1-1.4-0.4-2.7-0.6-4.1c-0.2-1.3-0.5-2.6-0.8-3.9c0.2,0,0.4,0,0.5,0c0.5,0,1-0.1,1.5-0.3
		c0.5-0.1,1-0.3,1.5-0.5c0.3-0.2,0.6-0.3,0.9-0.5l0,0c0.2,0.1,0.3,0.4,0.4,0.7c0.1,0.3,0.1,0.7,0.1,1.1c0,0.4,0,0.8,0.1,1.1
		c0,0.3,0.1,0.6,0.2,0.9c0,0.1-0.1,0.1-0.1,0.2c-0.1,0.1-0.1,0.2-0.1,0.4c-0.1,0.2-0.1,0.5-0.2,0.7c-0.1,0.5-0.2,0.9-0.3,1.4
		c-0.1,0.5-0.1,0.9-0.2,1.4C97.1,65.6,97.1,65.9,97.2,66.3z M93.2,80.2c0.2-0.6,0.4-1.2,0.6-1.8c0.2-0.6,0.5-1.2,0.7-1.8
		c0.1-0.3,0.3-0.6,0.4-0.8c0.1-0.1,0.2-0.2,0.2-0.3c0.1-0.1,0.2-0.2,0.1-0.1l0.1-0.1c0.1,0.2,0.2,0.3,0.3,0.5
		c0.2,0.3,0.5,0.5,0.8,0.7c0.3,0.2,0.6,0.4,1,0.5c0.2,0.1,0.3,0.1,0.5,0.2c0,1.5-0.4,3-1,4.4c-0.2,0.5-0.4,1-0.7,1.5
		c-0.2-0.2-0.4-0.4-0.7-0.6c-0.3-0.2-0.6-0.4-1-0.5c-0.3-0.1-0.7-0.2-1.1-0.2c-0.3,0-0.5,0-0.8,0C92.8,81.3,93,80.8,93.2,80.2z
		 M97.1,75.4c-0.3-0.2-0.6-0.4-1-0.5c-0.2-0.1-0.4-0.1-0.7-0.2l0.1-0.3c0.1,0.1,0,0.1,0,0c0-0.1,0-0.1,0-0.2c0-0.1,0-0.3,0.1-0.5
		c0.1-0.3,0.1-0.7,0.2-1c0.2-0.7,0.4-1.4,0.6-2.1c0.2-0.7,0.5-1.4,0.7-2c0.1-0.3,0.3-0.7,0.4-1c0.1-0.2,0.2-0.3,0.2-0.4
		c0-0.1,0.1-0.1,0.1-0.2c0,0,0.1-0.1,0-0.1l0,0c0.1,0.1,0.2,0.2,0.4,0.3c0.3,0.2,0.5,0.3,0.8,0.4c0.3,0.1,0.6,0.1,0.9,0.1
		c0.1,0,0.3,0,0.4,0l-0.5,2c-0.6,2.2-1.2,4.4-1.8,6.5c0-0.1-0.1-0.1-0.1-0.2C97.7,75.8,97.4,75.6,97.1,75.4z M100.3,66.9
		c-0.3-0.2-0.5-0.3-0.8-0.4c-0.3-0.1-0.6-0.1-0.9-0.1c-0.1,0-0.3,0-0.4,0c-0.1-0.3-0.1-0.7,0-1.1c0-0.4,0.1-0.9,0.1-1.3
		c0.1-0.4,0.1-0.9,0.2-1.3c0-0.2,0.1-0.4,0.1-0.6c0-0.1,0.1-0.2,0.1-0.3c0-0.1,0.1-0.1,0-0.1l0-0.1c0.1,0.1,0.2,0.2,0.4,0.4
		c0.3,0.2,0.6,0.4,0.9,0.6c0.3,0.1,0.7,0.2,1,0.3c0.2,0,0.4,0,0.6,0l-1.2,4.3C100.5,67,100.4,66.9,100.3,66.9z M101.5,61.9
		c-0.3-0.2-0.6-0.4-0.9-0.6c-0.3-0.1-0.7-0.2-1-0.3c-0.2,0-0.5,0-0.7,0c-0.1-0.2-0.2-0.5-0.2-0.8c-0.1-0.4-0.1-0.7-0.1-1.1
		c0-0.4-0.1-0.8-0.2-1.2c0-0.1-0.1-0.3-0.2-0.4c0.2,0.1,0.5,0.1,0.7,0.1c0.3,0,0.5-0.1,0.8-0.2c0.2-0.1,0.4-0.2,0.6-0.4
		c0.2,0.5,0.3,0.9,0.4,1.4C101.1,59.5,101.3,60.7,101.5,61.9C101.6,61.9,101.5,61.9,101.5,61.9z M99.6,56.4
		c-0.3-0.1-0.5-0.1-0.8-0.1c-0.3,0-0.5,0.1-0.8,0.2c-0.1,0.1-0.3,0.1-0.4,0.2c-0.1-0.2-0.1-0.5-0.1-0.8l-0.2-1.1
		c-0.1-0.7-0.3-1.5-0.5-2.2c-0.2-0.7-0.6-1.4-1-2.1c-0.1-0.1-0.1-0.2-0.2-0.3c0.5,0.2,1,0.5,1.4,0.9c0.4,0.4,0.8,0.8,1.1,1.3
		c0.3,0.5,0.5,1.1,0.8,1.6l0,0.1l0,0h0c0.5,0.5,0.8,1.2,1.1,1.9c0.1,0.2,0.1,0.3,0.2,0.5C100,56.5,99.8,56.5,99.6,56.4z M91.6,49.9
		c1.2,0.2,2.3,0.3,3.5,0.4c0.1,0.2,0.2,0.3,0.4,0.5c0.4,0.6,0.6,1.3,0.8,2c0.2,0.7,0.3,1.4,0.4,2.2l0.1,1.1c0,0.3,0.1,0.6,0.1,0.9
		c-0.3,0-0.6,0-1,0c-0.5,0-1,0.1-1.5,0.3c-0.5,0.1-1,0.3-1.5,0.5c-0.2,0.1-0.3,0.2-0.5,0.3l-0.4,0c-1.3-0.1-2.7-0.1-4-0.3
		c-1-0.1-2-0.4-3-0.7c0.1-0.6,0.1-1.2,0.1-1.7c-0.1-0.6-0.2-1.2-0.4-1.8c-0.2-0.6-0.4-1.1-0.8-1.6c-0.1-0.2-0.2-0.4-0.4-0.5
		c1.6-0.6,3.1-1.3,4.6-2.1C89.5,49.5,90.5,49.7,91.6,49.9z M57.6,45.3c-0.9-0.2-1.8-0.5-2.6-0.8c-0.9-0.3-1.8-0.5-2.5-0.9l-0.1,0
		l-0.2,0c-1.8,0.1-3.6,0-5.4-0.2c-1.8-0.2-3.5-0.5-5.3-1c-1.7-0.5-3.4-1.1-5-1.9c-0.8-0.4-1.6-0.8-2.4-1.2c-0.2-0.1-0.4-0.2-0.5-0.3
		c1.9-0.5,3.9-1,5.8-1.4c2.6-0.6,5.3-1.1,8-1.6c5.3-0.9,10.8-1.4,16.2-1c1.3,0.1,2.7,0.3,4,0.5c0.7,0.1,1.3,0.2,2,0.4l2,0.5
		c2.6,0.7,5.3,1.3,7.8,2.1c1.3,0.4,2.5,0.9,3.7,1.4c1.2,0.5,2.3,1.2,3.2,2.1c0.9,0.9,1.8,2,2.6,3.1c0.7,0.9,1.2,1.8,1.8,2.8
		c-4.3-1.2-8.6-1.9-13-2.4c-1.4-0.1-2.8-0.2-4.2-0.3c-1.4,0-2.8-0.1-4.3,0.1c-2.3,0.4-4.5,0.9-6.7,1.5L57.6,45.3z M61.3,48.7
		c2.1-0.7,4.3-1.3,6.5-1.7c0.4,0.3,0.8,0.5,1.2,0.8c0.7,0.4,1.4,0.7,2.1,1.1c0.7,0.3,1.4,0.6,2.1,1c0.3,0.2,0.7,0.3,1,0.5
		c0.2,0.1,0.4,0.2,0.6,0.3c-0.1,0-0.2,0-0.3,0l-0.1,0l0,0c-0.8,0.4-1.7,0.9-2.6,1.2c-0.9,0.4-1.8,0.7-2.7,0.9
		c-0.9,0.3-1.8,0.6-2.7,0.9c-0.9,0.3-1.7,0.8-2.6,1.2l0.1,0c-0.2,0.1-0.4,0.2-0.6,0.3c-0.6,0-1.1,0-1.6,0.1
		c-0.6,0.1-1.1,0.1-1.6,0.3c-0.5,0.2-1,0.4-1.6,0.7c-1,0.5-2.2,0.6-3.3,0.5c-0.6,0-1.1,0-1.7,0c-0.4,0-0.7,0.1-1.1,0.1
		c-0.2-0.3-0.4-0.5-0.7-0.8c-0.3-0.3-0.7-0.7-1.1-1c-0.4-0.3-0.8-0.6-1.2-0.9c-0.3-0.2-0.5-0.3-0.8-0.5
		C52.6,51.9,56.9,50.1,61.3,48.7z M31.4,63.6L31.4,63.6L31.4,63.6c4.7-3.1,9.5-5.9,14.5-8.4c0.7-0.3,1.3-0.7,2-1
		c0.2,0.4,0.3,0.7,0.5,1c0.3,0.4,0.5,0.9,0.8,1.3c0.3,0.4,0.6,0.8,0.9,1.2c0.2,0.3,0.5,0.5,0.7,0.7c-0.3,0.1-0.7,0.3-1,0.4
		c-0.8,0.4-1.5,0.8-2.1,1.4c-0.6,0.6-1.2,1.3-1.9,1.8c-0.7,0.5-1.5,0.8-2.3,1.1l-0.2,0.1l0,0.1c-0.6,0-1.3,0.1-1.9,0.2
		c-1,0.2-1.9,0.4-2.8,0.7c-0.9,0.3-1.8,0.7-2.7,1.1c-0.8,0.3-1.6,0.8-2.4,1.3c-0.1-0.2-0.1-0.4-0.2-0.5c-0.2-0.4-0.4-0.7-0.6-1
		c-0.2-0.3-0.5-0.6-0.8-0.8c-0.2-0.2-0.5-0.3-0.7-0.4C31.2,63.7,31.3,63.6,31.4,63.6z M22.6,91.3c-1.1-0.7-2.1-1.4-3.1-2.2
		c-1.9-1.5-3.9-3-5.8-4.4c0.3-1.8,0.7-3.6,1-5.4c0.2-0.2,0.4-0.5,0.6-0.8c1.3-1.5,2.6-3,4-4.5c0.4,0.1,0.9,0.2,1.3,0.2
		c0.6,0.1,1.2,0.1,1.7,0.1c1,0,2.1,0,3.1-0.1c0.5,0.6,1,1.2,1.5,1.9c-0.4,1.2-1.1,2.4-1.7,3.5c-0.7,1.2-1.2,2.5-1.7,3.8
		c-0.5,1.3-0.8,2.6-1,4c-0.1,0.7-0.1,1.4-0.1,2.1C22.4,90.2,22.4,90.7,22.6,91.3z M23.5,89.8c0.2-0.6,0.4-1.3,0.7-1.9
		c0.4-1.3,0.9-2.5,1.2-3.8c0.3-1.3,0.7-2.6,1-3.9c0.3-1.3,0.6-2.7,1.2-3.9l0,0c0.8,0,1.6-0.1,2.3-0.2c0.9-0.1,1.7-0.3,2.5-0.6
		c0.8-0.2,1.6-0.6,2.4-1c0.7-0.4,1.3-0.7,2-1c0.2,1.9,0.1,3.9,0.1,5.9c0,2.1,0.1,4.2,0.2,6.2c0.1,2.1,0.4,4.1,0.7,6.2
		c0.3,2,0.7,3.9,1.2,5.8c-2.3-0.3-4.5-0.8-6.7-1.6c-2.3-0.8-4.6-1.8-6.7-2.9c-0.9-0.5-1.8-1-2.7-1.6C23.1,90.9,23.3,90.3,23.5,89.8z
		 M37.1,72.8c-0.8,0.2-1.7,0.4-2.6,0.5c-0.9,0.1-1.7,0.3-2.6,0.5c-0.8,0.3-1.6,0.6-2.4,1c-0.7,0.3-1.4,0.7-2,1.1
		c-0.4-0.8-0.6-1.6-0.9-2.5c0.6-0.3,1.1-0.6,1.7-0.9c0.7-0.5,1.4-1,2-1.6c0.6-0.6,1-1.4,1.6-2c0.5-0.6,1.1-1.1,1.8-1.5
		c1-0.2,2-0.2,2.9-0.5c0.9-0.2,1.9-0.5,2.8-0.8c0.9-0.3,1.8-0.7,2.7-1.2c0.5-0.2,0.9-0.5,1.4-0.8c0,0.2,0.1,0.5,0.2,0.7
		c0.1,0.3,0.2,0.6,0.4,0.9c0.2,0.2,0.4,0.4,0.6,0.6c-0.6,0.4-1.2,0.9-1.8,1.4c-0.6,0.5-1.3,1.1-1.9,1.6c-1.2,1.1-2.3,2.1-3.4,3.3
		L37.1,72.8z M25.6,67.9c1.6-1.4,3.4-2.8,5.2-3.9c0.1,0.3,0.2,0.6,0.3,0.9c0.2,0.4,0.4,0.7,0.6,1c0.2,0.3,0.5,0.6,0.8,0.8
		c0.1,0.1,0.3,0.2,0.5,0.3c-0.5,0.6-1,1-1.7,1.4c-0.7,0.5-1.5,0.8-2.2,1.3c-0.7,0.5-1.2,1.1-1.8,1.7c-0.4,0.4-0.7,0.9-1,1.3l-0.5,0
		c-1.2-0.1-2.3,0.1-3.4,0.2c-0.6,0.1-1.1,0.2-1.7,0.3c-0.2,0.1-0.5,0.1-0.7,0.2c0.1-0.2,0.3-0.3,0.4-0.5
		C21.9,71.2,23.7,69.5,25.6,67.9z M10.7,81.1c-0.4-0.2-0.8-0.4-1.2-0.7l-1.1-0.7c-0.3-0.2-0.6-0.4-0.9-0.6c-0.2-0.3-0.3-0.4-0.5-0.6
		c-0.2-0.2-0.4-0.4-0.6-0.6C6,77.6,5.6,77.3,5.2,77c-0.7-0.5-1.5-0.9-2.3-1.3c-0.1-0.3-0.3-0.6-0.4-0.9C2.3,74.4,2.2,74,2,73.5
		c-0.1-0.4-0.3-0.9-0.4-1.3c-0.1-0.4-0.2-0.7-0.2-1.1c0.5-0.5,1-1,1.7-1.4c0.7-0.4,1.6-0.7,2.5-0.9c1.7-0.4,3.5-0.1,5.3,0.3
		c1.7,0.4,3.5,0.6,5.2,0.9c1.6,0.3,3.1,0.6,4.8,0.8c-0.4,0.5-0.9,0.9-1.3,1.4c-1.7,1.9-3.3,3.8-4.8,5.7c-0.9,1.2-1.8,2.3-2.7,3.5
		c0,0,0,0,0,0l0,0C11.5,81.5,11.1,81.3,10.7,81.1z M6.9,88.2c0,0,0-0.1,0-0.1c0-0.1,0-0.1,0-0.2c0.1-0.3,0.4-0.7,0.7-1
		c0.3-0.3,0.6-0.6,0.9-0.9c0.7-0.6,1.4-1.1,2.1-1.6l0,0l0,0c1.2-1.6,2.5-3.2,3.7-4.7c-0.4,1.7-0.9,3.4-1.3,5.1l0,0.1
		c-0.5,0-1.1,0.1-1.6,0.2c-0.7,0.1-1.3,0.3-1.9,0.6c-0.3,0.1-0.6,0.3-0.9,0.5c-0.3,0.2-0.6,0.4-0.8,0.7C7.4,87.1,7,87.6,6.9,88.2z
		 M16.4,93.7c-1.9-1.1-3.8-2.2-5.5-3.6l0,0c-0.8-0.7-1.7-0.9-2.5-1.2c-0.4-0.1-0.8-0.2-1.2-0.4c-0.1,0-0.1-0.1-0.2-0.1
		c0.5-0.3,1-0.5,1.4-0.8l0.7-0.5c0.3-0.1,0.5-0.3,0.8-0.4c1-0.5,2.1-1.1,3.2-1.7l0,0c1.9,1.6,3.8,3.2,5.8,4.8
		c0.2,0.2,0.5,0.4,0.7,0.6c-0.3,0.3-0.5,0.5-0.7,0.8c-0.1,0.2-0.2,0.4-0.3,0.6c-0.1,0.2-0.2,0.4-0.3,0.6c-0.3,0.6-0.7,1.2-1,1.9
		C17.1,94,16.8,93.9,16.4,93.7z M17.9,94.5c0.2-0.1,0.4-0.3,0.5-0.4c0.4-0.3,0.7-0.7,1-1.1c0.1-0.2,0.3-0.4,0.4-0.7
		c0.1-0.2,0.2-0.5,0.3-0.7c0.1-0.3,0.1-0.6,0.1-0.9c1.6,1.2,3.3,2.3,5,3.3c0.8,0.5,1.7,0.9,2.6,1.3c-0.2,0.3-0.4,0.5-0.5,0.8
		c-0.1,0.2-0.2,0.4-0.2,0.6C27,97,27,97.2,26.9,97.4c-0.1,0.5-0.3,0.9-0.4,1.4c-1.4-0.7-2.8-1.4-4.2-2.1
		C20.8,96,19.3,95.3,17.9,94.5z M30.5,107c-0.5,0.6-1,1.2-1.5,1.8c-0.5,0.6-1.1,1.2-1.6,1.5l-0.2,0.1l-0.1,0.3c-0.3,1-1,2-1.7,2.9
		c-0.7,0.9-1.4,1.9-2.2,2.8c-1.6,1.8-3.2,3.5-4.9,5.1c-0.9,0.8-1.8,1.6-2.7,2.2c-0.5,0.3-0.9,0.5-1.4,0.6c-0.5,0.1-1,0.1-1.6,0
		c-1.1-0.2-2.1-0.7-3-1.4c-0.4-0.4-0.8-0.8-1-1.3c0-0.1-0.1-0.2-0.1-0.4c0-0.2,0-0.3-0.1-0.5c-0.1-0.3-0.1-0.6-0.2-0.9
		c-0.3-1.2-0.7-2.4-0.9-3.5c-0.1-0.6-0.1-1.1,0-1.7c0.1-0.6,0.3-1.2,0.5-1.7c0.8-2.3,1.8-4.4,3-6.4c1.2-2,2.6-3.9,4.5-5.2
		c0.9-0.7,2-1.2,3.1-1.6c0.3-0.1,0.6-0.2,0.9-0.3c0.3-0.1,0.6-0.3,0.9-0.4c0.5-0.3,1-0.8,1.3-1.3c0.1,0,0.2,0.1,0.2,0.1
		c3.8,2,7.6,3.9,11.5,5.7C32.3,104.7,31.4,105.9,30.5,107z M34.8,101.7c-0.1,0.2-0.1,0.5-0.2,0.7c-0.2,0-0.4-0.1-0.6-0.1
		c-2.3-1-4.6-2.1-6.9-3.2c0,0,0.1-0.1,0.1-0.1c0.3-0.4,0.6-0.8,0.8-1.2c0.1-0.2,0.2-0.5,0.2-0.7c0.1-0.2,0.1-0.4,0.1-0.7
		c0-0.3,0-0.5-0.1-0.8c1.2,0.6,2.5,1.1,3.8,1.5c1.3,0.4,2.6,0.8,3.9,1c-0.1,0.2-0.2,0.4-0.3,0.7c-0.1,0.2-0.1,0.5-0.2,0.7l-0.2,0.7
		C35.1,100.7,35,101.2,34.8,101.7z M46.6,101.2c0,0.2-0.1,0.4-0.1,0.6l-0.1,0.6c-0.1,0.4-0.1,0.9-0.1,1.4c0,0,0,0.1,0,0.1
		c-3.7-0.3-7.4-0.8-11.1-1.4c0.1-0.1,0.2-0.3,0.3-0.4c0.3-0.4,0.6-0.9,0.8-1.4c0.2-0.5,0.4-1.1,0.5-1.6c0-0.3,0-0.5,0-0.8
		c0.9,0.1,1.8,0.3,2.6,0.3c1.3,0.5,2.5,0.8,3.8,1c1.2,0.2,2.4,0.4,3.7,0.5C46.8,100.5,46.7,100.8,46.6,101.2z M56.3,101
		c-0.1,0.5-0.1,1-0.1,1.5c-0.1,0.6-0.1,1.2-0.2,1.8c-1,0-1.9,0-2.9,0c-2-0.1-4-0.2-6-0.3c0.2-0.4,0.4-0.8,0.5-1.3
		c0.1-0.5,0.2-1,0.2-1.5c0-0.3-0.1-0.7-0.4-1.1c1.5-0.2,3.1-0.3,4.6-0.4c0.8-0.1,1.6-0.1,2.4-0.1c0.7,0,1.5-0.1,2.2,0
		C56.5,100.1,56.4,100.6,56.3,101z M54.4,99.2c-0.8,0-1.6,0.1-2.4,0.1l-4.8,0.3c-1.3-0.2-2.6-0.4-3.8-0.7c-1.3-0.3-2.5-0.7-3.7-1.2
		l-0.1,0l-0.1,0c-0.1,0-0.1,0-0.2,0c0.2-2,0.2-4,0.2-6c0-2.1-0.1-4.2-0.4-6.2c-0.3-2.1-0.5-4.1-0.8-6.2c-0.4-2-0.8-4.1-0.9-6.2
		l0-0.1c1.5-0.7,2.9-1.6,4.2-2.5c0.7-0.5,1.4-0.9,2-1.4c0.6-0.4,1.2-0.9,1.8-1.4c1.6-0.1,3.2-0.4,4.7-0.5c0.8-0.1,1.7-0.1,2.5-0.1
		c0.7,0,1.5,0,2.2,0c0.3,2.5,0.4,5.1,0.7,7.6c0.3,2.6,0.6,5.2,1,7.9c0.4,2.6,0.9,5.2,1.4,7.8c0.5,2.6,1.1,5.1,1.7,7.6
		c-0.1,0-0.2,0.1-0.4,0.1c-0.9,0.3-1.8,0.6-2.6,1.2C56,99.1,55.2,99.2,54.4,99.2z M67.8,101.4c0,0.4,0.1,0.7,0.2,1.1
		c-1.8,0.5-3.6,1-5.4,1.3c-1.9,0.3-3.8,0.4-5.7,0.4c0,0,0,0,0-0.1c0.2-0.5,0.4-1,0.5-1.6c0.1-0.6,0.1-1.1,0-1.7
		c-0.1-0.5-0.3-0.9-0.6-1.3l0,0l0.1,0c0.8-0.5,1.7-0.8,2.6-1.1c0.9-0.3,1.8-0.5,2.8-0.7c0.9-0.2,1.9-0.3,2.8-0.3
		c0.9,0,1.9,0.1,2.8,0.4l0.1,0l0.1,0c0,0,0,0,0.1,0C68.1,98.2,68,98.6,68,99c-0.1,0.4-0.1,0.8-0.1,1.2
		C67.8,100.6,67.8,101,67.8,101.4z M71.8,101.3c-1.1,0.4-2.3,0.8-3.4,1.2c0.2-0.3,0.4-0.6,0.5-0.9c0.2-0.4,0.3-0.9,0.3-1.3
		c0-0.5,0-0.9-0.1-1.4c-0.1-0.4-0.3-0.8-0.6-1.1c1.2-0.5,2.5-0.9,3.8-1.3c1.4-0.4,2.7-0.9,4.1-1.4c0.8-0.3,1.7-0.6,2.5-0.9
		c0,0.4,0,0.8,0.1,1.1c0.1,0.4,0.2,0.8,0.3,1.2c0.1,0.4,0.2,0.8,0.4,1.2c0,0.1,0.1,0.2,0.1,0.3C77.1,99.1,74.5,100.3,71.8,101.3z
		 M90.2,92L90,92.2c-0.1,0.1,0,0-0.1,0.1c-0.2,0.2-0.6,0.4-0.9,0.6c-2.7,1.7-5.6,3.2-8.4,4.6c0,0,0,0,0,0c0,0,0,0,0,0
		c0-0.5,0-0.9-0.2-1.3c-0.1-0.4-0.3-0.9-0.6-1.2c-0.2-0.3-0.5-0.6-0.8-0.8c0.4-0.2,0.9-0.4,1.3-0.6c1.3-0.6,2.6-1.3,3.7-2.3
		c0.7-0.5,1.4-1,2.1-1.5c0.4-0.2,0.7-0.5,1.1-0.7c0.3-0.2,0.6-0.3,0.9-0.5c0.1,0.3,0.3,0.6,0.4,0.9c0.2,0.4,0.4,0.7,0.7,1
		c0.2,0.3,0.5,0.7,0.8,1c0.1,0.1,0.3,0.3,0.4,0.4L90.2,92z M92.1,89.7c-0.4,0.5-0.8,1-1.2,1.4c0-0.1,0-0.2-0.1-0.2
		c-0.1-0.4-0.3-0.8-0.6-1.2c-0.3-0.4-0.6-0.7-1-1c-0.2-0.2-0.5-0.3-0.8-0.4l0.1-0.2c0.6-1,1.1-2.1,1.8-3.1c0.3-0.5,0.6-1,1-1.4
		c0.2-0.2,0.3-0.5,0.5-0.7c0.2-0.2,0.4-0.4,0.5-0.4l0.3-0.2l0-0.1c0.2,0.2,0.4,0.3,0.6,0.5c0.3,0.2,0.6,0.4,1,0.5
		c0.3,0.1,0.7,0.2,1.1,0.2c0.3,0,0.5,0,0.8,0c-0.4,0.8-0.8,1.6-1.3,2.4C94,87.1,93.1,88.4,92.1,89.7z M120.1,55.5
		c-0.4,0.8-0.8,1.6-1.5,2.2c-0.6,0.6-1.5,1-2.3,1.2c-0.9,0.1-1.7,0.1-2.6-0.1l-0.5-0.1l-0.2,0.6c-0.2,0.7-0.5,1.3-0.9,1.8
		c-0.4,0.5-0.9,0.9-1.4,1.3c-0.6,0.4-1.3,0.8-1.9,1.4c-0.7,0.5-1.3,1.2-1.7,1.9c-0.9,1.4-1.5,2.9-2,4.3c-0.3,0.7-0.5,1.5-0.6,2.3
		c-0.5,2.3-0.3,2.4-0.2,2.5s3.1-0.3,4.7-0.2c1.5,0.1,3,0.4,4.3,1.1c0.6,0.4,1.2,0.8,1.6,1.4c0.4,0.6,0.6,1.2,0.8,1.9
		c0.4,1.4,0.4,3,0.5,4.5c0,3.1-0.3,6.2-0.9,9.2c-0.6,3-1.4,6-2.4,8.9c-0.5,1.5-1.1,2.9-1.8,4.3c-0.7,1.4-1.5,2.7-2.3,4.1
		c-1.6,2.7-3.3,5.3-5.5,7.5c-2.1,2.3-4.8,3.9-7.6,5.2c-0.7,0.3-1.4,0.6-2.1,0.9c-0.7,0.3-1.4,0.5-2.2,0.8l-2.2,0.7l-0.3,0.1
		c0.4-0.7,0.9-1.5,1.4-2.2c0.8-1.3,1.6-2.6,2.4-4c0.8-1.4,1.5-2.8,2.1-4.3c0.3-0.8,0.5-1.6,0.7-2.4c0.2-0.8,0.3-1.6,0.4-2.3
		c0.5-3.1,0.8-6.1,1.4-9.2c0.3-1.5,0.6-3,1-4.4c0.4-1.4,1-2.8,1.8-4l0.1-0.2l0-0.2c0-0.3,0.1-0.8,0.2-1.2c0.1-0.4,0.2-0.8,0.3-1.2
		c0.1-0.6,0.7-2.7,1-3.7c0-0.2-0.1-0.3-0.3-0.2c-0.7,0.7-2.3,2.2-2.7,2.5c-0.6,0.5-1.3,1-1.9,1.5c-1.2,0.8-2.5,1.6-3.9,2.1
		c0.3-0.4,0.6-0.8,0.9-1.1c1-1.3,1.9-2.7,2.7-4.2c0.8-1.4,1.6-2.9,2.1-4.5c0.5-1.6,1-3.2,0.9-5c0.3-1.2,0.6-2.3,0.9-3.5l0.8-3.6
		c0.5-2.4,1.1-4.8,1.6-7.2l0-0.1l0-0.1c-0.4-1.5-0.8-3-1.3-4.5c-0.3-0.7-0.5-1.5-0.9-2.2c-0.3-0.7-0.6-1.4-1.3-1.9
		c-0.1-0.6-0.3-1.2-0.5-1.8c-0.3-0.6-0.7-1.1-1.1-1.6c-0.5-0.5-1-0.9-1.6-1.1c0,0,0,0-0.1,0c0.6-0.2,1.2-0.4,1.8-0.6
		c0.6-0.2,1.1-0.4,1.7-0.6c0.2,1,0.9,2,1.7,2.7c0.5,0.5,1.1,0.8,1.7,1.1c0.6,0.2,1.3,0.3,1.9,0.4c1.3,0.2,2.5,0.3,3.8,0.4
		c1.2,0.1,2.5,0,3.7-0.3c0.8,0,1.6-0.1,2.3-0.1c0.8,0,1.6,0,2.3,0c0.8,0,1.6,0.1,2.3,0.2c0.7,0.1,1.3,0.3,1.8,0.8
		C120.6,54.2,120.4,54.9,120.1,55.5z M124.7,41.4l-0.2,0.2l0,0.2c-0.1,0.5-0.2,1-0.3,1.6c-0.1,0.5-0.3,1-0.5,1.5
		c-0.2,0.5-0.5,1-0.8,1.5c-0.3,0.5-0.6,0.9-1,1.3l0,0c0,0,0,0.1,0,0.1c0,0,0.1,0.1,0.1,0c0.5-0.3,1-0.6,1.4-1
		c0.4-0.4,0.8-0.9,1.2-1.4c0.3-0.4,0.5-0.8,0.7-1.2c0,0.1,0,0.2-0.1,0.3c-0.1,0.4-0.2,0.9-0.4,1.3c-0.3,0.9-0.6,1.7-0.9,2.5
		c-0.4,0.8-0.8,1.5-1.4,2.1c-0.8,0.8-1.1,1.8-1.5,2.6c-0.1,0.1-0.1,0.3-0.2,0.4c-0.2-0.2-0.4-0.5-0.6-0.6c-0.3-0.3-0.7-0.5-1.1-0.7
		c-0.8-0.3-1.6-0.5-2.4-0.7c-0.8-0.1-1.6-0.2-2.5-0.2c-0.8,0-1.6,0-2.5,0.1l-0.1,0l0,0c-1.2,0.3-2.3,0.6-3.5,0.8
		c-1.2,0.2-2.5,0.2-3.6-0.2c-0.6-0.2-1.1-0.5-1.6-0.8c-0.5-0.3-1-0.6-1.4-1c-0.7-0.6-1.4-1.2-1.9-2c0,0,0,0,0,0l0.1-0.1l0.1-0.2
		c0.6-0.9,1.3-1.9,2-2.8c0.7-0.9,1.5-1.8,2.3-2.7c1.5-1.7,3.1-3.5,5.2-4.7c1-0.6,2.1-1,3.3-1.3c1.1-0.3,2.3-0.5,3.4-0.5
		c2.2-0.1,4.5,0,6.7,0.5c0.4,0.3,0.9,0.7,1.3,1.1c0.4,0.5,0.9,1,1.3,1.6c0.2,0.2,0.4,0.5,0.5,0.8C125.6,40.3,125.1,40.8,124.7,41.4z
		 M126.2,39.5L126.2,39.5C126.2,39.5,126.2,39.5,126.2,39.5L126.2,39.5L126.2,39.5z"/>
	<path class="st11" d="M121.1,41.6c-0.7-0.2-1.9-0.5-2.5-0.2c-0.6,0.3-1.1,1.4-1.4,2.1c-0.1,0.4,0,0.7,0.4,0.8
		c0.7,0.2,1.9,0.5,2.5,0.2c0.6-0.3,1.1-1.4,1.4-2.1C121.6,42.1,121.4,41.7,121.1,41.6z"/>
</g>
</svg>
