<?xml version="1.0" encoding="utf-8"?>
<!-- Generator: Adobe Illustrator 23.0.0, SVG Export Plug-In . SVG Version: 6.00 Build 0)  -->
<svg version="1.1" id="Layer_1" xmlns="http://www.w3.org/2000/svg" xmlns:xlink="http://www.w3.org/1999/xlink" x="0px" y="0px"
	 viewBox="0 0 128 128" 
width="128" height="128"
style="enable-background:new 0 0 128 128;" xml:space="preserve">
<style type="text/css">
	.st0{fill:#9B8C79;}
	.st1{fill:#E5B77A;}
	.st2{fill:#474747;}
	.st3{fill:#C6B5A3;}
	.st4{fill:#AB9C8D;}
	.st5{fill:#EEEEE2;}
	.st6{fill:#C6C7BF;}
	.st7{fill:#E8BF8B;}
	.st8{fill:#FAC249;}
	.st9{fill:#2D2D2D;}
	.st10{fill:#EDA745;}
</style>
<g>
	<path class="st0" d="M72.4,64.7c-0.3,0.1-0.5,0.2-0.8,0.3c-0.3,0.1-0.6,0.2-0.8,0.2c0,0.1,0,0.1,0,0.1c0,0.1,0.1,0.5,0.1,1
		c0.9,6.3,2,15,1.8,17.6c0,0.2,0,0.5-0.1,0.7c-0.2,1.8-0.5,4.4,1.5,7.1l0.1,0.1l0,0.1c1,2.9,8.7,24.6,9.2,25.9
		c0.1,0.1,0.1,0.2,0.1,0.4c0.1,0.5-0.3,1-0.8,1.1c-1.3,0.2-4,0.5-5.4,0.7l0,0.9l6.2-0.7l5.2,5.4l0.8-0.5l-3.5-4.3l13.7,0.5
		c0.1-0.2,0.7-1.2,0.8-1.4c-5.4,0.1-12.7-0.2-14.1-0.5c0,0,0,0-0.1,0c-0.3,0-0.6-0.2-0.8-0.4c-0.1-0.1-0.1-0.2-0.2-0.4
		c-1.1-3.1-8.3-23.8-8.5-25.8l0-0.2l0.1-0.2c0.4-1.3-1.2-4.5-2.6-6.4l-0.2-0.2L72.4,64.7C72.4,64.8,72.4,64.7,72.4,64.7z"/>
	<path class="st1" d="M65.7,63.8C65.7,63.8,65.7,63.8,65.7,63.8C65.7,63.8,65.7,63.8,65.7,63.8z"/>
	<path class="st0" d="M40.2,83.3L40,83.4c-2.1,1.5-2.8,2.1-2.7,4.3l0,0.2l-0.1,0.2c-1,2.6-8.3,23.3-8.4,23.5
		c-0.1,0.4-0.5,0.6-0.9,0.6c0,0-0.1,0-0.1,0c-0.2,0-0.4,0-0.5-0.2c-1-0.7-2.9-1.9-3.9-2.5l-0.5,0.6l4.4,3l-0.6,7.8l1.8,0.3l0.1-6.1
		c0-0.3,0.5-0.4,0.6-0.1l0.9,1.8c0,0,1.5,2.8,3.5,5c1.6,1.8,3.8,3.3,4.7,3.7c0,0,1.4-0.8,1.4-0.8c-6.3-3.4-10.2-9.9-10.3-10.3
		c-0.6-1.4,8.5-24,9-25.3l0.1-0.2c1.3-1.8,2.9-5.6,2.9-5.7l0.1-0.1l0.1-0.1c2.6-3.2,10.1-12.3,13.2-16.1c-0.7,0-1.4,0-2.1,0
		C51.5,68.8,42.3,80.9,40.2,83.3z"/>
	<path class="st2" d="M18.5,59.1L18.5,59.1C18.5,59.1,18.5,59.1,18.5,59.1C18.5,59.1,18.5,59.1,18.5,59.1c0.1-0.1,0.2-0.1,0.2,0l0,0
		c0.5,0.6,1.2,1,1.9,1.1c0.7,0.2,1.4,0.1,2.1-0.2c1.4-0.5,2.5-1.5,3.6-2.6l0.5-0.5l0.5,0.6c0.2,0.2,0.5,0.5,0.9,0.6
		c0.4,0.2,0.8,0.3,1.2,0.4c0.8,0.2,1.7,0.2,2.6,0.1c1.7-0.2,3.4-0.9,4.9-1.8l0.9,0c0,0,0.1,0,0.3,0.1c0.2,0,0.4,0,0.6,0
		c0.4,0,0.9,0,1.3,0c0.9-0.1,1.8-0.1,2.7-0.2c1.8-0.2,3.6-0.5,5.4-0.8c1.8-0.3,3.6-0.7,5.3-1.2c1.7-0.5,3.5-1,5-2l0.1-0.1l0.1,0
		c3.2,0,6.5-0.4,9.6-1.2c1.6-0.4,3.1-0.9,4.6-1.4c0.6-0.2,1.2-0.5,1.8-0.7c-0.3,0-0.6,0-0.9-0.1c-0.3,0-0.6-0.1-1-0.2
		c-0.2-0.1-0.4-0.1-0.7-0.2c-1,0.5-2.1,0.8-3.2,0.8c-0.6,0-1.2,0-1.8-0.2c-0.5-0.1-0.9-0.3-1.4-0.6c-1.2,0.5-2.4,0.6-3.6,0.5
		c-0.7-0.1-1.3-0.2-2-0.4c-0.3-0.1-0.7-0.2-1-0.4c-0.2-0.1-0.4-0.2-0.6-0.4c-1.1,0.4-2.2,0.7-3.4,0.6c-0.7,0-1.3-0.1-1.9-0.3
		c-0.6-0.2-1.2-0.4-1.6-0.9c-1.3,0.4-2.6,0.5-3.9,0.3c-0.7-0.1-1.4-0.3-2-0.6c-0.5-0.3-1-0.6-1.4-1.2c-0.6,0.2-1.1,0.3-1.8,0.4
		c-0.7,0-1.5-0.1-2.2-0.4c-0.7-0.3-1.3-0.8-1.8-1.4c-0.4-0.5-0.6-1-0.8-1.6c-0.7,0-1.4-0.1-2.1-0.4c-0.4-0.1-0.9-0.4-1.2-0.7
		c-0.4-0.3-0.6-0.8-0.7-1.3c-0.1-1,0.2-1.8,0.5-2.6c0.1-0.1,0.1-0.2,0.2-0.3c-0.1,0-0.1,0.1-0.2,0.1l-3.7,2.7
		c-1.2,0.9-2.4,1.9-3.5,2.9l0,0l-0.1,0l-3.5,2.3c-1.1,0.8-2.2,1.6-3.3,2.4c-1.1,0.9-2.1,1.8-3.1,2.7l-2.9,3c-1.9,2-3.9,4-5.8,6
		c-0.9,1-1.9,2-2.8,3.1c-0.4,0.5-0.9,1-1.3,1.6c-0.2,0.3-0.4,0.5-0.6,0.8l-0.2,0.3c0.1,0,0.2,0.1,0.3,0.1c0.3,0.1,0.8,0.1,1.2,0
		c0.4,0,0.9-0.1,1.3-0.2c0.4-0.1,0.9-0.3,1.3-0.4l5.4-3.1l2.7-1.6C16.7,60.2,17.6,59.7,18.5,59.1z"/>
	<path class="st2" d="M35.9,41.9c0.7,0.2,1.5,0.2,2.2,0.2l0.5,0l0.1,0.5c0.1,0.5,0.4,1,0.7,1.5c0.3,0.4,0.8,0.8,1.3,1.1
		c0.5,0.3,1.1,0.4,1.7,0.4c0.6,0,1.2,0,1.8-0.2l0.4-0.1l0.1,0.4c0.1,0.5,0.6,1,1.1,1.3c0.5,0.3,1.1,0.5,1.8,0.6
		c1.3,0.2,2.6,0,3.8-0.4l0.2-0.1l0.1,0.2c0.3,0.4,0.9,0.6,1.4,0.7c0.6,0.1,1.2,0.1,1.7,0.1c1.2-0.1,2.3-0.4,3.3-1l0.4-0.2l0.3,0.4
		c0.1,0.1,0.3,0.2,0.5,0.3c0.2,0.1,0.5,0.2,0.8,0.3c0.6,0.1,1.1,0.2,1.7,0.2c1.2,0,2.3-0.1,3.3-0.6l0.5-0.3l0.4,0.4
		c0.2,0.2,0.6,0.5,1.1,0.6c0.5,0.1,0.9,0.2,1.4,0.2c1,0,2-0.2,2.9-0.6l0.4-0.2l0.2,0.2c0.1,0.1,0.4,0.2,0.6,0.3
		c0.3,0.1,0.5,0.2,0.8,0.2c0.6,0.1,1.2,0.2,1.9,0.3c0.3-0.1,0.8-0.1,1-0.2c0.2-0.1,0.3-0.1,0.5-0.2c2.9-1.4,5.7-2.9,8.4-4.7
		c1.3-0.9,2.6-1.8,3.8-2.9c0.6-0.5,1.2-1,1.7-1.6c0.5-0.5,1-1.2,1-1.6c0.3-1.6,0.7-3.1,0.7-4.5c0-0.7-0.2-1.3-0.4-1.8
		c-0.3-0.5-0.7-0.9-1.3-1.2c-0.6-0.3-1.2-0.5-1.9-0.5c-0.3,0-0.7,0-1,0.1c-0.3,0-0.7,0.1-1.1,0.2c-1.6,0.4-3.2,0.8-4.8,1.1
		c-1.6,0.3-3.2,0.6-4.9,0.7c-0.4,0-0.8,0.1-1.3,0c-0.4,0-0.9-0.1-1.3-0.1l-2.4-0.4c-3.2-0.5-6.4-1-9.6-1.5c-0.1,0-0.1-0.1-0.1-0.1
		c0-0.1,0.1-0.1,0.1-0.1c3.3,0.1,6.5,0.2,9.8,0.5l2.4,0.2c0.4,0,0.7,0.1,1.1,0c0.4,0,0.8-0.1,1.1-0.1c1.6-0.2,3.1-0.6,4.7-1
		c1.6-0.4,3.1-0.8,4.7-1.3c0.4-0.1,0.8-0.2,1.3-0.3c0.5-0.1,0.9-0.1,1.4-0.1c1,0,1.9,0.2,2.8,0.7c0.9,0.4,1.7,1.1,2.2,2.1
		c0.2,0.4,0.4,0.8,0.5,1.2c0.4-0.8,0.5-1.7,0.6-2.6c0-0.6,0.1-1.2,0-1.8c0-0.3-0.1-0.6-0.1-0.9c0-0.1-0.1-0.2-0.1-0.4
		c-0.1-0.3-0.2-0.6-0.1-0.8c0.1-0.5,0.4-0.8,0.6-1c0.2-0.3,0.4-0.5,0.6-0.8c0.3-0.6,0.4-1.3,0.1-1.7c-0.1-0.1-0.3-0.2-0.5-0.3
		c-0.2-0.1-0.5-0.3-0.8-0.4c-0.4-0.2-0.8-0.3-1.2-0.5c-0.4-0.1-0.9-0.1-1.3-0.1c-0.5,0-1,0-1.5,0c-2,0-4.1,0.3-6.1,0.7
		c-1,0.2-2,0.5-3,0.8c-1,0.3-1.9,0.6-2.9,1l-2.9,1.1L73,24.6l-0.2,0.1l-0.2,0c-1.3,0.1-2.7,0.2-4,0.4c-1.4,0.1-2.7,0.3-4.1,0.4
		c-2.7,0.3-5.4,0.7-8.1,1.2c-2.7,0.5-5.3,1.1-7.9,2c-1.3,0.5-2.5,1-3.7,1.7c-1.2,0.6-2.3,1.4-3.1,2.4l0,0l0,0
		c-2.2,1.5-4.4,3-6.6,4.6c-0.2,0.4-0.3,0.7-0.5,1.1c-0.2,0.7-0.4,1.5-0.2,2.2C34.7,41.3,35.2,41.7,35.9,41.9z"/>
	<path class="st3" d="M122.6,36.1l0-0.1c0.1-2.4-1.2-8.6-2.2-11.1l-0.1-0.1v-0.1c0-2.7-1.5-8.4-2.3-11c-0.8,0.8-1.7,1.1-2.4,1.3
		c-1,0.2-2.2,0.1-3-0.3c-0.1,0.1-0.1,0.1-0.1,0.1c1.3,3.1,2.5,6.2,3.6,9.4c1.1,3.1,2.2,6.3,3.3,9.5c1,3.2,2.1,6.4,3,9.6l1.4,4.8
		c0.4,1.5,0.9,3.1,1.3,4.6c0,0.1,0.1,0.2,0.1,0.2c0-5.7-1.9-14.3-2.5-16.6L122.6,36.1z"/>
	<path class="st3" d="M118.2,34c-1-3.2-2.1-6.4-3-9.6c-1-3.2-1.9-6.4-2.8-9.6c-0.3,0.7-0.8,1.2-1.5,1.6c-1,0.5-2.1,0.5-2.9,0.4
		c3,7.6,12.9,28.4,16.8,35.6c-1.3-2.9-2.3-5.9-3.4-8.9C120.3,40.3,119.2,37.1,118.2,34z"/>
	<path class="st4" d="M107.3,16c0,0,4.3,0.1,4.9-1.6c0.6,1.9,3.5,10.3,3.5,10.3l6.4,19.2l3.7,11.7l-4.8-9.3L115.5,35l-7-15.2
		L107.3,16z"/>
	<path class="st5" d="M106.4,16.5c0,0,0-0.1-0.1-0.1l-0.7-2l-0.2-0.7c-0.1-0.3-0.3-0.8-0.3-1.1c-0.2-0.8-0.3-1.7-0.3-2.5
		c0-0.4,0-0.7,0.1-1.1c0-0.3,0.1-0.7,0.2-1c-0.1,0.3,0,0.7,0,1c0,0.3,0.1,0.7,0.2,1c0.2,0.7,0.4,1.3,0.7,1.9
		c0.1,0.3,0.3,0.6,0.5,0.9l0.5,0.9l0.8,1.4c0.5,0.1,1.6,0.3,2.5-0.1c0.6-0.3,0.9-0.8,1.1-1.7l0.3-1.1l0.9,0.7
		c0.5,0.4,1.7,0.7,2.8,0.5c0.7-0.1,1.7-0.5,2.3-1.7l0.6-1.2l0.1,0.1l0-0.1c0-0.2,0-0.5-0.1-0.7c-0.1-0.5-0.2-1-0.3-1.4
		c-0.3-0.9-0.7-1.8-1.2-2.6c-0.6-0.8-1.2-1.4-2-2.1c-0.8-0.6-1.5-1.3-2.3-1.8c-0.8-0.6-1.6-1-2.6-1.3c-0.9-0.3-1.9-0.3-2.9-0.2
		c-1,0.1-2,0.3-2.9,0.8c-0.9,0.4-1.7,1.1-2.3,1.8c-1.2,1.5-1.7,3.4-1.7,5.3c0,0.9,0.1,2,0.2,3c0.1,1,0.2,2,0.3,3
		c0.2,2,0.6,3.9,1.3,5.8c0.6,1.9,1.5,3.7,2.5,5.4c0,0,0,0.1,0,0.1c0,0-0.1,0-0.1,0c-1.3-1.4-2.4-3.1-3.3-4.8
		c-0.2,0.3-0.4,0.5-0.7,0.6c-0.6,0.3-1.3,0.3-1.9,0.2c-0.5-0.1-0.9-0.3-1.3-0.5c-0.1,0.7-0.5,1.3-0.7,1.8c-0.2,0.3-0.3,0.6-0.4,0.9
		c-0.1,0.3-0.2,0.6-0.2,0.8c0,0.1,0.1,0.1,0.1,0.2c0.1,0.2,0.2,0.4,0.3,0.5c0.2,0.4,0.3,0.7,0.3,1.1c0.2,0.7,0.2,1.5,0.1,2.2
		c-0.1,0.7-0.4,1.5-0.8,2.1c-0.3,0.4-0.7,0.8-1.1,1.1c0,0.3,0.1,0.6,0.1,0.9c0,1.9-0.4,3.5-0.8,5.1c0,0.1-0.1,0.3-0.1,0.4
		c-0.1,0.1-0.1,0.3-0.2,0.4c-0.1,0.2-0.3,0.4-0.4,0.6c-0.3,0.4-0.6,0.7-0.9,1c-0.6,0.6-1.2,1.2-1.9,1.7c-1.3,1.1-2.7,2-4.1,2.9
		c-2.8,1.7-5.8,3.2-8.9,4.4c-3.1,1.2-6.2,2.1-9.4,2.8c-3.2,0.7-6.4,1.1-9.6,1.3c-1.6,1.1-3.3,1.8-5,2.4c-1.8,0.6-3.5,1.2-5.3,1.6
		c-1.8,0.5-3.6,0.8-5.5,1.1c-0.9,0.1-1.9,0.2-2.8,0.3c-0.5,0-1,0-1.5,0c-0.3,0-0.5,0-0.8-0.1c-0.1,0-0.3-0.1-0.5-0.1
		c-1.6,0.9-3.4,1.5-5.3,1.6c-1,0.1-2.1,0-3.1-0.3c-0.5-0.1-1-0.3-1.5-0.6c-0.3-0.2-0.6-0.4-0.8-0.6c-0.5,0.4-0.9,0.7-1.4,1.1
		c-0.7,0.4-1.5,0.8-2.3,1c-0.8,0.2-1.7,0.2-2.5-0.1c-0.8-0.3-1.4-0.8-1.8-1.4c-0.8,0.7-1.6,1.3-2.4,1.9L14,62.8c0,0.2,0,0.2,0,0.4
		c0.3,0.2,0.6,0.4,0.9,0.5c0.6,0.2,1.2,0.4,1.8,0.5c1.2,0.1,2.5-0.1,3.7-0.5c0.6-0.2,1.2-0.4,1.7-0.7l0.2-0.1l0.1-0.1l0,0l0,0l0,0
		c-0.1,0,0.2,0,0.2,0l0.1,0l0.5,0l1,0c1.3,0,2.5,0.1,3.8,0.1c2.5,0,5.1-0.2,7.5-0.6c2.5-0.4,4.9-1.1,7-2.3l0.5-0.3l0.4,0.4
		c0.6,0.6,1.3,1.1,2,1.5c0.8,0.4,1.6,0.7,2.4,0.8c0.4,0.1,0.8,0.1,1.2,0.2l0.7,0c0.3,0,0.7,0.1,1,0.2c0.6,0.3,1.2,0.8,1.5,1.4
		c0.1,0.2,0.2,0.4,0.3,0.7c1.4,0,2.8-0.1,4.2-0.1l1.8-0.9c0.6-0.3,1.4-0.7,2.2-1c0.8-0.3,1.6-0.5,2.4-0.6c0.4-0.1,0.8-0.1,1.2-0.1
		l1.1-0.1l0.3,0l0.1,0l0.1,0l0,0c0,0,0.2,0,0.2,0c0.2,0,0.2,0.1,0.3,0.1l0.2,0.1l0.3,0.2c0.3,0.2,0.6,0.4,0.9,0.7l1,0.5
		c0.3,0.2,1.1,0.5,1.2,0.5c0.1,0,0.5,0,0.5,0c0.4,0,0.7-0.1,1.1-0.1c0.4-0.1,1.5-0.6,1.8-0.7c0.2,0,2.5-0.5,3.4-1
		c1.6-0.9,3.1-1.8,4.6-2.8c3-1.9,5.9-4,8.7-6.2c1.4-1.1,2.8-2.2,4-3.4c0.6-0.6,1.2-1.2,1.7-1.8c0.2-0.3,0.4-0.8,0.7-1.1l0.7-1.1
		c1-1.5,2-2.9,2.9-4.4c0.2-0.4,0.5-0.7,0.7-1.1c0.2-0.4,0.4-0.8,0.6-1.1c0.2-0.5,0.5-1,0.7-1.5c-1.1-0.2-2.1-0.6-2.9-1.3
		c0,0,0-0.1,0-0.1c0,0,0,0,0.1,0c1.6,0.2,3.1,0.3,4.6,0c0.4,0,0.7-0.1,1.1-0.2c0.4-0.1,0.7-0.2,1-0.3c0.3-0.1,0.7-0.3,1-0.5
		c0.1-0.1,0.3-0.1,0.4-0.2c0.2-0.1,0.4-0.2,0.5-0.3c0.2-0.1,0.4-0.2,0.5-0.4c0.1-0.1,0.3-0.3,0.4-0.4c0.3-0.3,0.5-0.6,0.7-1
		c0.4-0.7,0.5-1.5,0.6-2.2c0.1-0.8,0.4-1.5,0.6-2.2c0.1-0.6,0.3-1.1,0.4-1.7C109,22.6,107.3,18.7,106.4,16.5
		C106.5,16.5,106.4,16.5,106.4,16.5z M113.7,8.3c0.8,0,1.5,0.7,1.5,1.5s-0.7,1.5-1.5,1.5s-1.5-0.7-1.5-1.5S112.9,8.3,113.7,8.3z"/>
	<path class="st6" d="M44.1,57.6c-0.1,0.1-1.5,3.4-2.3,3.9c-0.8,0.5-10.1,2.6-15,2c-4.9-0.6-4.2-0.4-4.2-0.4s-2.8,1.3-4,1.3
		s-2.7,0-3.8-0.5s-1.3-1.1-1.3-1.1l4.3-3.1l0.9-0.5c0,0,0.2,0.9,1.1,1.1c0.9,0.2,2.1,0.5,3.2,0.2c1.1-0.4,3.7-2.5,3.7-2.5
		s1,1.2,2.7,1.2c1.6,0,7.1-1,7.4-1.3c0.3-0.2,6.7-0.7,6.7-0.7L44.1,57.6z"/>
	<path class="st6" d="M95.8,48.3c0,0-12.4,9.3-19.2,10.7c-3.3,0.4-9.5,3.7-11.2,1.3c-2.1-1-6.5,1-8.6,1.1c-2.1,0.1-7.8-4.4-7.8-4.4
		s-7.2,0.6-7.4,0.9c-0.2,0.2,0.9,2.8,0.9,2.8s8.8,3.3,8.8,3.5c0,0.2,0.6,1.9,0.8,1.9c0.2,0,5,0.1,5,0.1s7-3.7,8.9-3s3.6,1.8,3.6,1.8
		l6.6-2.1c0,0,6.6-3.3,7.8-4.3c1.2-1,10.5-7.1,11-8S95.8,48.3,95.8,48.3z"/>
	<path class="st7" d="M107.2,15.5c0,0.1,3.6,1.6,4.9-1.9c1.9,0.9,6.1,0.5,6.2-1.4c0.1-1.9,0.3-4.8-1.3-6.8s-6-5-8.1-5.1
		c-2.1,0-3.6,0.8-4,1.1s-0.8,5.7-0.6,6.3c0.2,0.6,0.7,2.1,0.7,2.1s1.1,4.4,1.1,4.5C106.2,14.4,107.2,15.5,107.2,15.5z"/>
	<path class="st8" d="M99.5,36.7c0.9,0.3,5.3,1,6.9,0c1.6-1,2.9-2.7,3.4-3.5c0.5-0.8,1.9-6.6,1.9-6.6s-5.1-11.3-5.4-12.1
		c-0.2-0.8-1.1-5-1.2-5.2s-1.4-7.1,2.3-8.9c-4,0.9-5.9,0.8-7.4,4.9c-0.6,2.1-1.4,8-0.5,9.5s1.4,5.4,1.5,5.8c-0.3,0.3-0.6,1-1.8,0.9
		s-2.7-0.7-2.7-0.7s0.2,2-0.7,3c-0.9,1,0.2,2.4,0.2,2.4s-0.1,3.5-0.6,4.1c-0.5,0.6-0.9,1.5-0.9,1.5S96.9,36,99.5,36.7z"/>
	<ellipse class="st9" cx="113.7" cy="9.8" rx="1.5" ry="1.5"/>
	<path class="st10" d="M104.8,10.5c0,0-2.9,8.1-0.4,15.2c2.1,6.5,0.3,11.2-4.8,10.8c1.5,1.1,4,2,6.1,0.7c2.1-1.3,3.2-1.7,3.8-3.2
		c0.6-1.5,2.2-6.8,2.1-7.4s-4.3-9.9-4.5-10.7C106.9,15,104.8,10.5,104.8,10.5z"/>
	<path class="st9" d="M121.7,24.5c-0.1-3.5-2.1-11.1-2.9-12.6l-0.3-0.6l0-0.1c0-0.1,0.1-0.2,0.1-0.3c0-0.2,0.1-0.5,0.1-0.7
		c0-0.6,0-1.1-0.1-1.7c-0.1-1-0.5-2.1-1.1-3c-0.5-0.9-1.3-1.7-2.1-2.4c-0.8-0.7-1.6-1.4-2.5-1.9c-0.9-0.5-2-0.9-3-1.1
		c-1.1-0.2-2.1-0.1-3.1,0.1c-2,0.3-4.1,1-5.6,2.5c-0.8,0.7-1.4,1.7-1.8,2.7c-0.4,1-0.6,2.1-0.6,3.2c0,1.1,0.1,2.1,0.1,3.1
		c0,1,0.2,2,0.3,3.1c0.3,1.9,0.8,3.9,1.6,5.7c-0.3,0.1-0.6,0.2-0.8,0.2c-0.4,0-0.9,0-1.3-0.1c-0.5-0.1-0.9-0.2-1.4-0.4
		c-0.2-0.1-0.5-0.1-0.7-0.2c-0.1,0-0.1-0.1-0.2-0.1c-0.4-0.2-0.7-0.3-1.1-0.4c-0.5-0.1-0.9-0.1-1.4,0c-0.5-0.1-0.9-0.2-1.4-0.3
		c-0.5-0.1-1.1-0.2-1.6-0.2c-0.5,0-1.1-0.1-1.6-0.1l-1.6,0c-1.1,0.1-2.1,0.2-3.2,0.3c-1.1,0.1-2.1,0.4-3.1,0.6c-1,0.3-2,0.6-3.1,0.9
		c-1,0.4-2,0.7-3,1.1l-2.8,1.2c-2.7,0.2-5.4,0.5-8,1c-2.7,0.5-5.4,1.1-8.1,1.8c-2.7,0.7-5.3,1.5-7.9,2.4c-1.3,0.5-2.6,1-3.8,1.7
		c-1.2,0.7-2.4,1.4-3.3,2.4c-2.6,1.6-5.2,3.2-7.8,4.8c-2.6,1.6-5.1,3.3-7.6,5.2l-3.6,2.2c-1.2,0.7-2.4,1.6-3.5,2.4
		c-1.1,0.9-2.2,1.8-3.3,2.8c-1.1,1-2,2-3,3c-2,2-3.9,4-5.8,6.1c-0.9,1-1.8,2.1-2.7,3.2c-0.4,0.6-0.9,1.1-1.3,1.7
		c-0.2,0.3-0.4,0.6-0.6,0.9l-0.3,0.5c-0.1,0.2-0.2,0.5-0.3,0.7l-0.1,0.3l0.2,0.3c0.4,0.7,1.2,1,1.8,1.1c0.6,0.1,1.2,0.1,1.7,0
		c0.5-0.1,1.1-0.2,1.6-0.4c0.5-0.2,1-0.4,1.5-0.6l0.1,0l0,0c1.7-1.2,3.5-2.3,5.2-3.5c0.1,0.1,0.2,0.2,0.3,0.3
		c0.3,0.2,0.5,0.4,0.8,0.5c0.6,0.3,1.2,0.5,1.9,0.6c1.3,0.2,2.6,0,3.9-0.3c0.6-0.2,1.2-0.4,1.8-0.6l0.2-0.1l0.1,0l0.5,0l1,0.1
		c1.3,0.1,2.6,0.2,3.8,0.3c2.6,0.1,5.2,0,7.7-0.3c2.4-0.3,4.8-0.9,7-1.9c0.6,0.6,1.3,1,2,1.5c0.9,0.5,1.8,0.9,2.8,1.1
		c0.5,0.1,1,0.2,1.5,0.3l0.7,0.1c0.1,0,0.2,0.1,0.3,0.1c0.2,0.1,0.3,0.3,0.4,0.5c0.1,0.4,0.3,0.8,0.4,1.1l0.1,0.3
		c-2.3,3-10,13.1-12,15.4c-1.9,1.4-3.5,2.5-3.5,5.7c-1.1,2.9-6.4,18-8,22.3c-0.9-0.6-2.3-1.5-3.3-2.2c-0.6-0.4-1.4-0.3-1.9,0.3
		l-1.1,1.3c-0.5,0.7-0.4,1.6,0.3,2.1l4,2.8l0,7.3c0,0.6,0.4,1.1,1,1.2l2.1,0.4c0.7,0.1,1.3-0.4,1.4-1.1l0.2-1.7
		c0.6,0.9,1.4,1.9,2.2,2.9c1.5,1.7,4.1,2.9,5.5,3.6c0.7,0.3,1.6,0.3,2.3,0c0.5-0.2,1.2-0.6,1.8-1c0.5-0.4,0.5-1.2-0.1-1.5l0,0
		c-5.9-2.2-9.4-8.3-10.2-10c2.8-7.8,8.1-22.5,8.8-24.1c1.3-1.8,2.7-5.1,3-5.8c5.6-6.8,14-17,14.4-17.5c0,0,0,0,0,0l1.6-0.9
		c0.7-0.4,1.2-0.7,1.9-1c0.6-0.3,1.3-0.5,2-0.6c0.3-0.1,0.7-0.1,1-0.2l1.1-0.2l0.3,0l0.1,0l0.2,0.1c0.3,0.2,0.6,0.3,1,0.5l1,0.5
		c0.3,0.1,0.5,0.3,0.9,0.4c0,0,0,0,0,0.1c0,0.1,0,0.1,0.2,1.2c1.3,9.6,2,15.4,1.8,17.2c0,0.2,0,0.4-0.1,0.7c-0.2,1.9-0.5,5,1.7,8.3
		c1,3,7.3,20.5,8.9,24.9c-1.2,0.2-3,0.4-4.3,0.5c-1,0.1-1.7,1-1.6,1.9l0.1,2.1c0,0.5,0.5,0.9,0.9,0.8l6.4-0.7l4.9,5.1
		c0.4,0.5,1.1,0.5,1.7,0.2l1.7-1c0.7-0.4,0.9-1.4,0.4-2l-1.3-1.6l9.8,0.4c0.5,0,1-0.3,1.2-0.8c0.4-0.8,0.9-2,1.1-2.8
		c0.1-0.4-0.2-0.8-0.6-0.9l-0.4,0c-5,0.4-12.3-0.8-14.4-1.2c-3.1-8.9-7.9-22.8-8.3-24.8c0.6-2.5-1.9-6.4-2.7-7.6l-1.8-20.9
		c0-0.2-0.1-0.4-0.2-0.5c1-0.3,2-0.7,2.9-1.1c1.7-0.7,3.3-1.6,4.8-2.4c3.2-1.7,6.2-3.6,9.2-5.7c1.5-1.1,2.9-2.1,4.3-3.4
		c0.7-0.6,1.4-1.2,2-2.1l0.8-1.1l0.8-1.1c1-1.5,2-3,2.8-4.7c0.6-1.4,0.9-2.9,0.9-4.4c0.5,0.1,1,0.1,1.5,0c1.7-0.3,3.4-1.1,4.4-2.5
		c0.1-0.2,0.3-0.3,0.4-0.5c0.1-0.2,0.2-0.4,0.3-0.5c0.3-0.3,0.5-0.7,0.7-1c0.5-0.7,1-1.4,1.3-2.1c0.2-0.4,0.3-0.8,0.4-1.2l0.1-0.6
		l0-0.6c0-0.2,0-0.3,0-0.5c5.1,11.1,11.9,25.1,13.4,27l1,1.3l0.2-1.7c0.7-5.9-1.8-17-2.4-19.2C124,33.3,122.8,27.2,121.7,24.5z
		 M34.7,38.5c0.1-0.4,0.3-0.7,0.5-1.1c2.2-1.6,4.4-3.1,6.6-4.6l0,0l0,0c0.8-1,1.9-1.8,3.1-2.4c1.2-0.7,2.4-1.2,3.7-1.7
		c2.5-0.9,5.2-1.5,7.9-2c2.7-0.5,5.4-0.9,8.1-1.2c1.4-0.1,2.7-0.3,4.1-0.4c1.3-0.2,2.7-0.3,4-0.4l0.2,0l0.2-0.1l2.8-1.3l2.9-1.1
		c1-0.3,1.9-0.7,2.9-1c1-0.3,2-0.6,3-0.8c2-0.4,4-0.7,6.1-0.7c0.5,0,1,0,1.5,0c0.4,0,0.9,0.1,1.3,0.1c0.4,0.2,0.9,0.3,1.2,0.5
		c0.3,0.1,0.6,0.2,0.8,0.4c0.2,0.1,0.4,0.2,0.5,0.3c0.3,0.5,0.2,1.2-0.1,1.7c-0.2,0.3-0.4,0.6-0.6,0.8c-0.2,0.3-0.5,0.6-0.6,1
		c-0.1,0.2,0,0.6,0.1,0.8c0,0.1,0.1,0.2,0.1,0.4c0.1,0.3,0.1,0.6,0.1,0.9c0,0.6,0,1.2,0,1.8c-0.1,0.9-0.2,1.8-0.6,2.6
		c-0.1-0.4-0.3-0.8-0.5-1.2c-0.5-0.9-1.4-1.6-2.2-2.1C91,27.6,90,27.3,89,27.3c-0.5,0-1,0-1.4,0.1c-0.5,0.1-0.9,0.2-1.3,0.3
		c-1.5,0.5-3.1,0.9-4.7,1.3c-1.6,0.4-3.1,0.8-4.7,1c-0.4,0.1-0.8,0.1-1.1,0.1c-0.4,0-0.7,0-1.1,0l-2.4-0.2c-3.2-0.2-6.5-0.4-9.8-0.5
		c-0.1,0-0.1,0-0.1,0.1c0,0.1,0,0.1,0.1,0.1c3.2,0.5,6.4,1,9.6,1.5l2.4,0.4c0.4,0.1,0.9,0.1,1.3,0.1c0.4,0,0.9,0,1.3,0
		c1.7-0.1,3.3-0.4,4.9-0.7c1.6-0.3,3.2-0.7,4.8-1.1c0.4-0.1,0.7-0.2,1.1-0.2c0.3,0,0.7-0.1,1-0.1c0.7,0,1.3,0.2,1.9,0.5
		c0.6,0.3,1,0.7,1.3,1.2c0.3,0.5,0.4,1.1,0.4,1.8c0,1.4-0.3,2.9-0.7,4.5c0,0.4-0.5,1-1,1.6c-0.5,0.6-1.1,1.1-1.7,1.6
		c-1.2,1-2.5,2-3.8,2.9c-2.6,1.8-5.5,3.3-8.4,4.7c-0.2,0.1-0.3,0.2-0.5,0.2c-0.3,0.1-0.8,0.1-1,0.2c-0.6,0-1.3-0.1-1.9-0.3
		c-0.3-0.1-0.6-0.1-0.8-0.2c-0.3-0.1-0.5-0.2-0.6-0.3L72,47.6l-0.4,0.2c-0.9,0.4-1.9,0.6-2.9,0.6c-0.5,0-1-0.1-1.4-0.2
		c-0.5-0.1-0.8-0.4-1.1-0.6l-0.4-0.4l-0.5,0.3c-0.9,0.5-2.1,0.7-3.3,0.6c-0.6,0-1.2-0.1-1.7-0.2c-0.3-0.1-0.5-0.2-0.8-0.3
		c-0.2-0.1-0.5-0.2-0.5-0.3l-0.3-0.4L58.2,47c-1,0.5-2.1,0.9-3.3,1c-0.6,0.1-1.2,0-1.7-0.1c-0.6-0.1-1.1-0.3-1.4-0.7l-0.1-0.2
		l-0.2,0.1c-1.2,0.5-2.5,0.7-3.8,0.4c-0.6-0.1-1.2-0.3-1.8-0.6c-0.5-0.3-1-0.8-1.1-1.3l-0.1-0.4l-0.4,0.1c-0.6,0.1-1.2,0.2-1.8,0.2
		c-0.6,0-1.2-0.2-1.7-0.4c-0.5-0.3-0.9-0.6-1.3-1.1c-0.4-0.4-0.6-1-0.7-1.5l-0.1-0.5l-0.5,0c-0.8,0-1.6,0-2.2-0.2
		c-0.7-0.2-1.2-0.6-1.4-1.2C34.3,40.1,34.5,39.3,34.7,38.5z M13.1,62.3l-5.4,3.1c-0.4,0.2-0.9,0.3-1.3,0.4C5.9,65.9,5.5,66,5.1,66
		c-0.4,0-0.9,0-1.2,0c-0.1,0-0.2-0.1-0.3-0.1l0.2-0.3c0.2-0.3,0.4-0.5,0.6-0.8c0.4-0.5,0.8-1.1,1.3-1.6c0.9-1,1.9-2,2.8-3.1
		c1.9-2,3.9-4,5.8-6l2.9-3c1-1,2-1.9,3.1-2.7c1.1-0.9,2.2-1.7,3.3-2.4l3.5-2.3l0.1,0l0,0c1.1-1,2.3-1.9,3.5-2.9l3.7-2.7
		c0.1,0,0.1-0.1,0.2-0.1c-0.1,0.1-0.1,0.2-0.2,0.3c-0.4,0.7-0.7,1.6-0.5,2.6c0.1,0.5,0.3,1,0.7,1.3c0.4,0.4,0.8,0.6,1.2,0.7
		c0.7,0.3,1.4,0.4,2.1,0.4c0.2,0.6,0.5,1.1,0.8,1.6c0.5,0.6,1.1,1.1,1.8,1.4c0.7,0.3,1.4,0.4,2.2,0.4c0.6,0,1.2-0.2,1.8-0.4
		c0.3,0.6,0.9,0.9,1.4,1.2c0.6,0.3,1.3,0.5,2,0.6c1.3,0.2,2.6,0,3.9-0.3c0.4,0.5,1,0.8,1.6,0.9c0.6,0.2,1.3,0.3,1.9,0.3
		c1.2,0,2.3-0.2,3.4-0.6c0.2,0.2,0.4,0.3,0.6,0.4c0.3,0.2,0.7,0.3,1,0.4c0.7,0.2,1.3,0.3,2,0.4c1.2,0.1,2.4,0,3.6-0.5
		c0.4,0.3,0.9,0.5,1.4,0.6c0.6,0.2,1.2,0.2,1.8,0.2c1.1,0,2.2-0.3,3.2-0.8c0.2,0.1,0.5,0.2,0.7,0.2c0.3,0.1,0.6,0.1,1,0.2
		c0.3,0,0.6,0,0.9,0.1c-0.6,0.2-1.2,0.5-1.8,0.7c-1.5,0.6-3.1,1-4.6,1.4c-3.1,0.8-6.4,1.2-9.6,1.2l-0.1,0l-0.1,0.1
		c-1.5,0.9-3.3,1.5-5,2c-1.8,0.5-3.5,0.9-5.3,1.2c-1.8,0.3-3.6,0.6-5.4,0.8c-0.9,0.1-1.8,0.2-2.7,0.2c-0.4,0-0.9,0-1.3,0
		c-0.2,0-0.4,0-0.6,0c-0.2,0-0.3-0.1-0.3-0.1l-0.9,0c-1.5,0.9-3.2,1.6-4.9,1.8c-0.9,0.1-1.7,0.1-2.6-0.1c-0.4-0.1-0.8-0.2-1.2-0.4
		c-0.4-0.2-0.7-0.4-0.9-0.6L26.7,57l-0.5,0.5c-1,1.1-2.2,2.1-3.6,2.6c-0.7,0.2-1.4,0.3-2.1,0.2c-0.7-0.2-1.4-0.6-1.9-1.1l0,0
		c0,0-0.1,0-0.1,0c0,0,0,0,0,0.1c0,0,0,0,0,0l0,0c-0.8,0.6-1.8,1.1-2.7,1.6L13.1,62.3z M41.8,83.1l-0.1,0.1l-0.1,0.1
		c0,0-1.6,3.9-2.9,5.7l-0.1,0.2c-0.6,1.3-9.7,23.9-9,25.3c0.1,0.3,4,6.8,10.3,10.3c0,0-1.4,0.8-1.4,0.8c-0.9-0.4-3.1-1.9-4.7-3.7
		c-2-2.2-3.5-5-3.5-5l-0.9-1.8c-0.2-0.3-0.6-0.2-0.6,0.1l-0.1,6.1l-1.8-0.3l0.6-7.8l-4.4-3l0.5-0.6c1,0.7,2.9,1.9,3.9,2.5
		c0.2,0.1,0.4,0.2,0.5,0.2c0,0,0.1,0,0.1,0c0.4,0,0.8-0.2,0.9-0.6c0.1-0.2,7.4-20.9,8.4-23.5l0.1-0.2l0-0.2
		c-0.1-2.2,0.7-2.8,2.7-4.3l0.2-0.1c2.1-2.4,11.3-14.5,12.7-16.2c0.7,0,1.4,0,2.1,0C51.8,70.9,44.4,79.9,41.8,83.1z M65.7,63.8
		C65.7,63.8,65.7,63.8,65.7,63.8C65.7,63.8,65.7,63.8,65.7,63.8z M74.2,86.2l0.2,0.2c1.3,1.8,3,5,2.6,6.4L76.9,93l0,0.2
		c0.2,2,7.4,22.7,8.5,25.8c0,0.1,0.1,0.3,0.2,0.4c0.2,0.3,0.5,0.4,0.8,0.4c0,0,0,0,0.1,0c1.5,0.3,8.7,0.6,14.1,0.5
		c-0.1,0.2-0.7,1.2-0.8,1.4l-13.7-0.5l3.5,4.3l-0.8,0.5l-5.2-5.4l-6.2,0.7l0-0.9c1.4-0.2,4.1-0.5,5.4-0.7c0.5-0.1,0.9-0.6,0.8-1.1
		c0-0.1-0.1-0.3-0.1-0.4c-0.5-1.4-8.2-23.1-9.2-25.9l0-0.1l-0.1-0.1c-1.9-2.7-1.7-5.3-1.5-7.1c0-0.3,0.1-0.5,0.1-0.7
		c0.2-2.6-1-11.3-1.8-17.6c-0.1-0.6-0.1-0.9-0.1-1c0-0.1,0-0.1,0-0.1c0.3-0.1,0.6-0.2,0.8-0.2c0.3-0.1,0.5-0.2,0.8-0.3c0,0,0,0,0,0
		L74.2,86.2z M110.7,28.8c-0.2,0.8-0.4,1.5-0.6,2.2c-0.2,0.7-0.2,1.6-0.6,2.2c-0.2,0.3-0.4,0.7-0.7,1c-0.1,0.1-0.3,0.3-0.4,0.4
		c-0.2,0.1-0.4,0.2-0.5,0.4c-0.2,0.1-0.3,0.2-0.5,0.3c-0.1,0.1-0.3,0.1-0.4,0.2c-0.3,0.2-0.7,0.3-1,0.5c-0.3,0.2-0.7,0.2-1,0.3
		c-0.4,0.1-0.7,0.2-1.1,0.2c-1.5,0.3-2.9,0.2-4.6,0c0,0,0,0-0.1,0c0,0,0,0.1,0,0.1c0.8,0.7,1.8,1.1,2.9,1.3c-0.2,0.5-0.4,1-0.7,1.5
		c-0.2,0.4-0.4,0.8-0.6,1.1c-0.2,0.4-0.4,0.7-0.7,1.1c-0.9,1.5-1.9,2.9-2.9,4.4l-0.7,1.1c-0.2,0.4-0.5,0.8-0.7,1.1
		c-0.4,0.6-1,1.2-1.7,1.8c-1.3,1.2-2.6,2.3-4,3.4c-2.8,2.2-5.7,4.2-8.7,6.2c-1.5,1-3,1.9-4.6,2.8c-0.9,0.5-3.2,1-3.4,1
		c-0.3,0-1.5,0.6-1.8,0.7c-0.4,0.1-0.7,0.1-1.1,0.1c0,0-0.5,0-0.5,0c-0.1,0-0.9-0.3-1.2-0.5l-1-0.5c-0.3-0.2-0.6-0.4-0.9-0.7
		l-0.3-0.2l-0.2-0.1c-0.1,0-0.1-0.1-0.3-0.1c-0.1,0-0.2,0-0.2,0l0,0l-0.1,0l-0.1,0l-0.3,0l-1.1,0.1c-0.4,0-0.8,0-1.2,0.1
		c-0.8,0.1-1.6,0.3-2.4,0.6c-0.8,0.3-1.5,0.6-2.2,1l-1.8,0.9c-1.4,0-2.8,0-4.2,0.1c-0.1-0.2-0.2-0.4-0.3-0.7
		c-0.3-0.6-0.8-1.2-1.5-1.4c-0.3-0.1-0.7-0.2-1-0.2l-0.7,0c-0.4,0-0.8-0.1-1.2-0.2c-0.8-0.2-1.6-0.4-2.4-0.8c-0.7-0.4-1.5-0.9-2-1.5
		l-0.4-0.4L42.4,60c-2.1,1.2-4.5,1.9-7,2.3c-2.5,0.4-5,0.6-7.5,0.6c-1.3,0-2.5,0-3.8-0.1l-1,0l-0.5,0l-0.1,0c0,0-0.3,0.1-0.2,0l0,0
		l0,0l0,0l-0.1,0.1L22,63c-0.6,0.3-1.1,0.5-1.7,0.7c-1.2,0.4-2.4,0.6-3.7,0.5c-0.6-0.1-1.2-0.2-1.8-0.5c-0.3-0.1-0.6-0.3-0.9-0.5
		c0-0.2,0-0.2,0-0.4l2.2-1.6c0.8-0.6,1.7-1.2,2.4-1.9c0.4,0.6,1,1.2,1.8,1.4c0.8,0.3,1.7,0.3,2.5,0.1c0.8-0.2,1.6-0.5,2.3-1
		c0.5-0.3,1-0.7,1.4-1.1c0.3,0.2,0.5,0.4,0.8,0.6c0.5,0.3,1,0.5,1.5,0.6c1,0.3,2,0.4,3.1,0.3c1.9-0.1,3.7-0.8,5.3-1.6
		c0.2,0.1,0.3,0.1,0.5,0.1c0.3,0,0.5,0.1,0.8,0.1c0.5,0,1,0,1.5,0c1,0,1.9-0.1,2.8-0.3c1.9-0.2,3.7-0.6,5.5-1.1
		c1.8-0.5,3.6-1,5.3-1.6c1.7-0.6,3.4-1.3,5-2.4c3.2-0.2,6.4-0.6,9.6-1.3c3.2-0.7,6.4-1.6,9.4-2.8c3.1-1.2,6-2.6,8.9-4.4
		c1.4-0.9,2.8-1.8,4.1-2.9c0.6-0.5,1.3-1.1,1.9-1.7c0.3-0.3,0.6-0.7,0.9-1c0.1-0.2,0.3-0.4,0.4-0.6c0.1-0.1,0.1-0.2,0.2-0.4
		c0.1-0.1,0.1-0.4,0.1-0.4c0.4-1.5,0.9-3.2,0.8-5.1c0-0.3,0-0.6-0.1-0.9c0.4-0.3,0.8-0.7,1.1-1.1c0.4-0.6,0.7-1.4,0.8-2.1
		c0.1-0.7,0.1-1.5-0.1-2.2c-0.1-0.4-0.2-0.7-0.3-1.1c-0.1-0.2-0.2-0.4-0.3-0.5c0,0-0.1-0.1-0.1-0.2c0-0.2,0-0.5,0.2-0.8
		c0.1-0.3,0.3-0.6,0.4-0.9c0.3-0.5,0.6-1.1,0.7-1.8c0.4,0.2,0.8,0.4,1.3,0.5c0.6,0.1,1.3,0.1,1.9-0.2c0.3-0.2,0.6-0.4,0.7-0.6
		c0.9,1.8,2,3.4,3.3,4.8c0,0,0.1,0,0.1,0c0,0,0-0.1,0-0.1c-1-1.8-1.9-3.6-2.5-5.4c-0.6-1.9-1.1-3.8-1.3-5.8c-0.1-1-0.2-2-0.3-3
		c-0.1-1-0.2-2-0.2-3c0-1.9,0.5-3.8,1.7-5.3c0.6-0.7,1.4-1.4,2.3-1.8c0.9-0.4,1.9-0.7,2.9-0.8c1-0.1,2,0,2.9,0.2
		c0.9,0.3,1.8,0.7,2.6,1.3c0.8,0.6,1.5,1.2,2.3,1.8c0.8,0.7,1.5,1.3,2,2.1c0.5,0.8,1,1.6,1.2,2.6c0.1,0.5,0.2,0.9,0.3,1.4
		c0,0.2,0.1,0.5,0.1,0.7l0,0.1l-0.1-0.1l-0.6,1.2c-0.6,1.1-1.6,1.5-2.3,1.7c-1.1,0.2-2.3-0.1-2.8-0.5l-0.9-0.7l-0.3,1.1
		c-0.2,0.8-0.6,1.3-1.1,1.7c-0.9,0.5-2,0.3-2.5,0.1l-0.8-1.4l-0.5-0.9c-0.2-0.3-0.3-0.6-0.5-0.9c-0.3-0.6-0.5-1.2-0.7-1.9
		c-0.1-0.3-0.1-0.7-0.2-1c0-0.3-0.1-0.7,0-1c-0.2,0.3-0.2,0.7-0.2,1c0,0.4-0.1,0.7-0.1,1.1c0,0.8,0.1,1.7,0.3,2.5
		c0.1,0.3,0.2,0.8,0.3,1.1l0.2,0.7l0.7,2c0,0,0,0.1,0.1,0.1c0,0,0,0,0,0.1c0.8,2.2,2.6,6.1,4.6,10.6C111,27.7,110.8,28.3,110.7,28.8
		z M108,16.7c0.8,0.1,1.9,0.1,2.9-0.4c0.6-0.3,1.1-0.9,1.5-1.6c0.9,3.2,1.8,6.5,2.8,9.6c1,3.2,2,6.4,3,9.6c1.1,3.2,2.1,6.3,3.3,9.5
		c1.1,3,2.2,6,3.4,8.9C120.9,45.1,111.1,24.3,108,16.7z M125,52.6c-0.5-1.5-0.9-3.1-1.3-4.6l-1.4-4.8c-1-3.2-2-6.4-3-9.6
		c-1.1-3.2-2.1-6.3-3.3-9.5c-1.1-3.2-2.3-6.3-3.6-9.4c0.1-0.1,0.1-0.1,0.1-0.1c0.9,0.4,2,0.5,3,0.3c0.7-0.1,1.7-0.5,2.4-1.3
		c0.9,2.6,2.3,8.3,2.3,11v0.1l0.1,0.1c1.1,2.5,2.3,8.7,2.2,11.1l0,0.1l0,0.1c0.7,2.2,2.5,10.9,2.5,16.6
		C125.1,52.7,125,52.7,125,52.6z"/>
</g>
</svg>
