<?xml version="1.0" encoding="utf-8"?>
<!-- Generator: Adobe Illustrator 23.0.0, SVG Export Plug-In . SVG Version: 6.00 Build 0)  -->
<svg version="1.1" id="Layer_1" xmlns="http://www.w3.org/2000/svg" xmlns:xlink="http://www.w3.org/1999/xlink" x="0px" y="0px"
	 viewBox="0 0 128 128" style="enable-background:new 0 0 128 128;" xml:space="preserve">
<style type="text/css">
	.st0{fill:#9E806F;}
	.st1{fill:#2D2D2D;}
	.st2{fill:#6A4532;}
	.st3{fill:#754E3C;}
	.st4{fill:#DBD0C6;}
	.st5{fill:#775140;}
	.st6{fill:#684435;}
</style>
<g>
	<path class="st0" d="M125.2,52.5c0.4-0.8,0.3-1.4,0.6-1.7c0,0-0.1-0.1-0.1-0.1c-0.6-0.5-1.3-0.9-2-1.2l0,0l-0.1-0.1
		c-1.2-1-2.5-1.9-3.9-2.7c-1.4-0.8-2.8-1.4-4.3-1.9c-3-1-6.1-1.4-9.2-1c-1.5,0.1-3.1,0.4-4.7,0.8c-1.6,0.3-3.1,0.8-4.6,1.2
		c-3.1,0.9-6.1,2.1-8.9,3.6l-0.1,0l0,0c-2.4,0.7-4.8,1.4-7.4,1.5c-1.3,0.1-2.6,0-3.8-0.4c-1.2-0.4-2.4-0.8-3.5-1.3
		c-0.9-0.4-1.9-0.8-2.8-1.2c-0.7-0.3-1.4-0.6-2.1-0.8c-3.1,2.9-23.2,21.6-29.5,27c0.1-0.1,0.2-0.1,0.3-0.1c0.9-0.4,1.7-0.7,2.7-0.8
		c0.9-0.1,1.9,0,2.8,0c0.9,0,1.8,0,2.8-0.1c0.9-0.1,1.9-0.1,2.9,0c0.9,0.2,1.9,0.3,2.7,0.7c0.9,0.3,1.7,0.8,2.5,1.2
		c0.6,0.4,1.2,0.8,1.7,1.3c0.2-1.4,0.6-2.7,1.2-4c0.7-1.6,1.7-3.2,3-4.3c0,0,0.1,0,0.1,0c0,0,0,0.1,0,0.1c-1.1,1.3-1.9,2.8-2.4,4.5
		c-0.5,1.6-0.8,3.3-0.9,5c-0.1,1.7,0.1,3.4,0.6,4.9c0.5,1.5,1.4,2.9,2.4,4.2c1,1.3,2.2,2.6,3.4,3.7c0.3,0.3,0.6,0.6,0.9,0.8
		c0.3,0.2,0.6,0.4,0.9,0.5c0.3,0.1,0.6,0.2,1,0.2c0.1,0,0.2,0,0.2,0h1l5.2,0l4.2,0.1c-0.1-0.2-0.1-0.5-0.2-0.6
		c-0.1-0.2-0.3-0.4-0.4-0.5c-0.1,0-0.2-0.1-0.4-0.2c-0.1-0.1-0.3-0.1-0.4-0.1c-1.2-0.3-2.6-0.4-4.1-0.5c-0.7-0.1-1.5-0.1-2.3-0.3
		c-0.2-0.1-0.4-0.1-0.7-0.3c-0.2-0.1-0.4-0.3-0.6-0.4c-0.4-0.3-0.7-1-0.6-1.5c0-0.6,0.2-1,0.4-1.3c0.2-0.4,0.4-0.7,0.7-1
		c0.5-0.6,1-1.1,1.5-1.6c0.5-0.5,1.1-1,1.7-1.5c0.6-0.4,1.2-0.8,1.8-1.2c0.8-0.5,1.5-0.9,2.3-1.4c0.5-0.3,1-0.5,1.5-0.8
		c0,0,0,0,0.1,0c-0.1-0.1-0.1-0.2-0.2-0.2c-0.2-0.4-0.3-0.8-0.3-1.2c0-0.8,0.4-1.5,0.7-2.2c0.8-1.3,1.9-2.4,3.1-3.4
		c1.2-0.9,2.5-1.8,3.9-2.5c1.4-0.7,2.9-1,4.2-1.6c1.3-0.5,2.4-1.4,3.5-2.4c1.1-1,2.1-2.1,3.2-3.1c1.1-1,2.2-2,3.5-2.9
		c1.1-0.7,2.4-1.3,3.8-1.4c-0.1-0.2-0.2-0.3-0.2-0.5c-0.3-0.5-0.5-1.1-0.8-1.6c-0.3-0.5-0.5-1.1-0.7-1.6l0,0c0,0,0-0.1,0-0.1
		c0,0,0.1,0,0.1,0c0.4,0.5,0.7,1,1,1.5c0.3,0.5,0.7,1,1,1.5c0.3,0.5,0.7,0.9,1.1,1.2c0.4,0.3,0.9,0.5,1.4,0.6c1,0.3,2.1,0.4,3.3,0.4
		c0.6,0,1.2,0,1.8,0c0.6-0.1,1.1-0.3,1.7-0.4l0.3-0.1l0.2,0.1c1,0.4,2,0.8,3.1,1c1.1,0.3,2.2,0.5,3.3,0.6c0.5,0.1,1.1,0.1,1.6,0.1
		c0.3,0,0.5,0,0.8,0c0.1,0,0.2,0,0.4-0.1c0.1,0,0.2-0.1,0.2-0.2c0.3-0.3,0.6-0.9,0.8-1.4c0.2-0.5,0.3-0.9,0.5-1.4
		c-0.2,0.1-0.5,0.3-0.8,0.4c-0.5,0.2-1,0.4-1.5,0.5c-1,0.2-2.1,0.2-3.1,0.1c-1-0.1-2.1-0.4-3-0.8c-0.9-0.4-1.8-1.1-2.4-1.8l0,0
		c0,0,0-0.1,0-0.1c0,0,0.1,0,0.1,0c0.8,0.6,1.7,1.1,2.6,1.4c0.9,0.3,1.9,0.4,2.8,0.4l0.7,0l0.7-0.1c0.5,0,0.9-0.2,1.4-0.2
		c0.5,0,1-0.1,1.5-0.1c0.4,0,0.9-0.1,1.3-0.1c0.4-0.2,0.8-0.6,1.1-1c0.1-0.2,0.2-0.4,0.3-0.7l0.2-0.7l0.4-1.2
		C126,53.9,124.7,53.5,125.2,52.5z M106.3,49.5c-0.2,0-0.4,0-0.5,0.1c-0.1,0.1-0.1,0.1-0.2,0.3c-0.1,0.3-0.2,0.7-0.2,1.2
		c0,0.5,0.1,1,0.2,1.6c-0.6-0.3-0.9-0.8-1.1-1.4c-0.2-0.6-0.3-1.3,0-2c0.2-0.3,0.5-0.7,0.9-0.8c0.4-0.1,0.8-0.1,1.1,0.1
		c0.6,0.3,1,0.7,1.3,1.2C107.3,49.7,106.8,49.5,106.3,49.5z M116.9,51.3c-0.7,0-1.3-0.6-1.3-1.3c0-0.7,0.6-1.3,1.3-1.3
		c0.7,0,1.3,0.6,1.3,1.3C118.2,50.7,117.6,51.3,116.9,51.3z"/>
	<path class="st1" d="M125.2,52.5c-0.5,1,0.8,1.4,1.5,1.3l0.1-0.2c0.1-0.4,0.3-0.9,0.4-1.3c-0.1-0.1-0.1-0.2-0.2-0.3
		c-0.1-0.1-0.2-0.3-0.4-0.4c-0.2-0.2-0.5-0.5-0.8-0.7C125.5,51.1,125.6,51.6,125.2,52.5z"/>
	<path class="st1" d="M116.9,48.7c-0.7,0-1.3,0.6-1.3,1.3c0,0.7,0.6,1.3,1.3,1.3c0.7,0,1.3-0.6,1.3-1.3
		C118.2,49.2,117.6,48.7,116.9,48.7z"/>
	<path class="st2" d="M105.6,52.6c0,0,0.8-2.9,2.3-2.8c-0.7-0.5-2.1-1.2-2.4-0.4c-0.3,0.8-0.8,1.9-0.5,2.2
		C105.2,51.9,105.6,52.6,105.6,52.6z"/>
	<path class="st3" d="M78.7,53.3c-4.9-0.8-6.9-3.5-8.5-5.2c-0.6-0.6-1.1-1-1.7-1.2c0,0-0.1,0.1-0.4,0.4c-0.7-0.3-1.4-0.5-2.1-0.7
		c-2.3-0.8-4.7-1.4-7.1-1.5h-0.1l-0.1,0c-0.4-0.1-1.1-0.2-1.7-0.3c-0.6-0.1-1.2-0.1-1.8-0.1c-1.2-0.1-2.5-0.1-3.7-0.2
		c-2.5-0.1-4.9-0.1-7.4-0.1c-4.9,0-9.9,0.2-14.7,0.8c-1.2,0.2-2.4,0.4-3.5,0.7c-1.1,0.4-2.3,0.7-3.4,1.2c-2.2,0.9-4.3,2.1-6.3,3.5
		c-3.6,2.5-6.5,5.9-8.8,9.6c-0.1,0.2-0.2,0.4-0.4,0.6c0,4,0.9,18.2,11.5,12.3c0.6-1.6,1.6-3.1,3-4.1c0,0,0.1,0,0.1,0
		c0,0,0,0.1,0,0.1c-0.7,0.7-1.2,1.4-1.6,2.2c-0.4,0.8-0.6,1.7-0.8,2.6c-0.1,0.9-0.1,1.8-0.1,2.7c0,0.9,0.2,1.8,0.1,2.9
		c0,0.8,0.2,1.7,0.3,2.6c0.2,0.9,0.4,1.8,0.8,2.6c0.3,0.8,0.7,1.7,1.1,2.4c0.2,0.4,0.5,0.7,0.7,1c0.3,0.3,0.6,0.7,0.9,1.1
		c1.2,1.4,2.4,2.9,3.7,3.4c0.2,0.1,0.7,0.2,1.1,0.2c0.4,0,0.9,0.1,1.4,0.1c0.9,0,1.9,0.1,2.8,0.1c3.6,0,7.2-0.1,10.8,0.1
		c0-0.4-0.1-0.7-0.2-1.1c-0.1-0.5-0.4-1-0.7-1.2c-0.4-0.2-1-0.4-1.5-0.5c-0.6-0.1-1.1-0.2-1.7-0.2c-1.1-0.1-2.3-0.1-3.4,0
		c-1.2,0-2.3,0.1-3.5-0.1l0,0l-0.1,0c-0.6-0.3-1.2-0.8-1.6-1.3c-0.5-0.5-0.9-1-1.2-1.6c-0.7-1.1-1.3-2.3-1.5-3.8
		c-0.1-0.4-0.1-0.8,0.1-1.3c0-0.1,0.1-0.3,0.2-0.4l0.2-0.3c0.1-0.2,0.2-0.3,0.4-0.4c0.5-0.6,1-1,1.5-1.4c1.1-0.8,2.2-1.5,3.2-2.2
		c0.6-0.3,1.1-0.7,1.6-1l0.8-0.5c0.3-0.2,0.5-0.3,0.7-0.5c0.8-0.7,1.1-1.8,1.1-3c0-1.2-0.1-2.4-0.4-3.7c-0.1-0.6-0.3-1.2-0.5-1.8
		L36.2,66l-0.1-0.5L36,65.3l0-0.1c0-0.1,0-0.1,0-0.2c0,0,0-0.1,0.1-0.1c0,0,0,0,0,0l0,0.1l0.4,0.8c0.1,0.3,0.3,0.6,0.4,0.9
		c0.3,0.6,0.5,1.2,0.7,1.8c0.4,1.2,0.8,2.5,0.9,3.9c0,0.7,0,1.4-0.2,2c0.1-0.1,0.2-0.1,0.3-0.2c-0.7,0.6-1.3,1.1-1.6,1.3
		c7.4-3.2,11.3-1.7,14.4-1.1c3.1,0.6,5.8,2.4,5.8,2.4s0.5,4.6,0.9,6.9c0.5,2.3,7.9,9.1,7.9,9.1l12.4,0.3c0,0,0-1.8-0.4-2.9
		c-0.4-1.1-8-1.1-9.5-2.1c-0.4-1.9,0.5-2.8,5.1-6.5c-7.8-6.8,3.3-16.1,7.1-19.3C84.7,59.3,85.3,54.4,78.7,53.3z"/>
	<path class="st4" d="M104.4,59.4c-0.3-0.3-3.2-0.1-4.2,0.7c-1.1,0.9-2.2,2-3.2,3.1c-1,1.1-2,2.2-3.1,3.3c-1.1,1.1-2.4,2-3.8,2.7
		c-1.5,0.6-2.9,0.9-4.2,1.5c-1.3,0.6-2.6,1.3-3.8,2.1c-1.2,0.8-2.3,1.8-3.2,2.9c-0.4,0.6-0.8,1.2-0.9,1.9c-0.1,0.3-0.1,0.7,0.1,1
		c0,0.1,0.1,0.2,0.2,0.3c2.5-1.4,4.9-2.7,7.5-3.9l0,0l0,0c2.4-1,4.7-2.5,6.9-3.9c2.2-1.5,4.3-3.1,6.5-4.7l3.2-2.4l1.6-1.2
		c0.5-0.4,1.1-0.8,1.7-1.2c0.6-0.3,1.1-0.6,1.7-0.8c-0.4,0-0.8-0.1-1.2-0.3C105.4,60.2,104.8,59.8,104.4,59.4z"/>
	<path class="st5" d="M33.6,78c1.3,0.2,4.4-2.5,4.4-3.6c0-1-0.1-4.2-2.2-4.5c-6.4-0.8-8.4,6.6-9.9,7.7c-1.5,1.2-3.3,2.3-1.7,5.1
		s4.1,6.8,5.7,7.4s2.1-0.7,1.9-0.8c-0.2-0.1-3-4.8-3.4-6.5c-0.4-1.6-0.5-2,1.2-2.6S33.5,78,33.6,78z"/>
	<path class="st0" d="M37.1,67.4c0,0-0.3,1.9,3.4,2.1s2.1-0.1,6.4-1.1c4.3-1,5.7-3.9,8.3-0.6c2.6,3.3,3.4,4.8,3.6,6.3
		c0.2,1.6,1.2,5.3,2.6,5.9s3,3.4,2.3,5.2c-0.7,1.8-1.9,5.5-3.1,3.5s-3.1-5.1-3.4-7.2s0.2-4.4-0.2-4.8c-1.2-0.1-4.9-1.6-6.8-2.1
		c-1.9-0.5-3.3-1.2-5.8-0.7c-2.5,0.5-8.4,2.8-8.6,2.7c0.7-1,2.8-2.3,2.4-3.5C37.8,71.9,37.1,67.4,37.1,67.4z"/>
	<path class="st3" d="M66.1,46.6c0.2,0.4-0.6,4,6.9,6.7c7.5,2.7,10.9,4,13.9,2.3c3-1.7,6.1-4.8,8.6-6.2c2.5-1.4,5.2-2.3,7.8-2.6
		c2.6-0.3,10.2-3.7,16.4,0c-4.9-2.6-11.4-4.8-15.1-3.8s-14.3,4.7-16.2,5.7c-1.9,1-7.3,2.5-9.6,2.2c-2.3-0.3-8.1-2.8-9.1-3.3
		C68.7,47.1,66.1,46.6,66.1,46.6z"/>
	<path class="st4" d="M101.9,54.5c0,0,1.5,2.7,3.9,3.3c2.4,0.6,4.3-0.1,5-0.6c0.7-0.4,3-0.9,3-0.9c0,0.1,1.5,2.1,5.6,2.2
		c4.1,0.1,5.1-1,5-0.8c-0.1,0.1-0.4,2.7-1.2,3.4c-1.9,0.2-9-1-10-1.4c-1.7,0.8-7.5,0.2-8.5-0.6s-2.3-3.4-2.4-3.5
		C102.3,55.5,101.9,54.5,101.9,54.5z"/>
	<path class="st1" d="M128,52.1c-0.1-0.3-0.2-0.5-0.4-0.7c-0.1-0.2-0.3-0.4-0.4-0.5c-0.3-0.3-0.6-0.6-0.9-0.9c-0.6-0.5-1.3-1-2-1.4
		c-1.2-1.2-2.5-2.1-3.9-3c-1.4-0.9-2.9-1.6-4.5-2.2c-3.1-1.1-6.6-1.6-9.9-1.3c-3.3,0.3-6.5,1.2-9.6,2.3c-3.1,1.1-6.1,2.5-8.9,4.1
		c-1.2,0.4-2.3,0.8-3.5,1.1c-1.2,0.3-2.4,0.6-3.6,0.7c-1.2,0.1-2.4,0-3.6-0.3c-1.2-0.3-2.3-0.8-3.5-1.3c-2.3-1-4.6-2-6.9-2.9
		c-2.3-0.9-4.7-1.7-7.3-1.9c-0.7-0.2-1.3-0.3-1.9-0.4c-0.6-0.1-1.2-0.2-1.9-0.2c-1.2-0.1-2.5-0.2-3.7-0.3c-2.5-0.2-5-0.3-7.5-0.3
		c-2.5,0-5,0-7.5,0c-2.5,0.1-5,0.2-7.5,0.5c-1.3,0.2-2.5,0.4-3.8,0.7c-1.2,0.4-2.4,0.8-3.6,1.3c-2.3,1-4.6,2.3-6.6,3.8
		c-2,1.5-3.9,3.3-5.5,5.3c-1.6,2-3,4.1-4.1,6.3c-1.6,2.2-3.1,4.5-4,7c-0.5,1.3-0.8,2.6-1,4C-0.1,76,0,80.1,0,82.6
		c0,2.5,0.1,4.9,0.4,7.3c0.5,4.9,1.4,9.8,3.2,14.4c1.7,4.6,4.2,9.1,7.5,12.8c3.4,3.7,7.7,6.6,12.4,8.4c2.4,0.9,4.8,1.5,7.3,1.9
		c2.5,0.4,4.9,0.6,7.5,0.5c5-0.1,10-1.4,14.6-3.1c4.6-1.7,9-4.1,13.4-6.2c1.1-0.5,2.2-1,3.3-1.3c1.1-0.3,2.3-0.5,3.5-0.6
		c0.6,0,1.2-0.1,1.8-0.1l1.8,0.1l3.7,0.1c1.4,0,2.7-0.6,3.6-1.7c0.9-1.1,1.2-2.5,0.9-3.8c-0.3-1.3-1.2-2.4-2.5-3
		c-0.6-0.3-1.3-0.4-1.9-0.4l-1.8,0c-4.9,0-9.8,0.9-14.4,2.7c-4.6,1.7-8.8,4.3-13.3,6c-2.2,0.9-4.6,1.5-6.9,1.6
		c-2.4,0.2-4.8,0-7.1-0.4c-2.3-0.4-4.5-1.3-6.5-2.6c-2-1.2-3.9-2.7-5.6-4.4c-1.7-1.7-3.3-3.5-4.7-5.4c-1.4-1.9-2.7-4-3.7-6.1
		c-1-2.2-1.9-4.4-2.2-6.7c-0.4-2.4-0.5-4.8-0.4-7.2c0.2-2.4,0.6-4.8,1.6-7c0.8-1.9,2-3.6,3.5-5.1c0,0.1-0.1,0.2-0.1,0.3
		c-0.2,1-0.4,1.9-0.4,2.9c-0.1,1,0,1.9-0.1,2.8c-0.1,1.1,0,2,0.2,3c0.2,1,0.4,1.9,0.7,2.9c0.3,0.9,0.7,1.9,1.2,2.8
		c0.2,0.4,0.5,0.9,0.9,1.3c0.3,0.4,0.6,0.7,0.9,1.1c0.6,0.7,1.2,1.5,1.9,2.2c0.7,0.7,1.6,1.4,2.7,1.8c0.7,0.2,1.1,0.2,1.7,0.3
		c0.5,0,1,0,1.5,0c1,0,1.9,0,2.9-0.1c1.9-0.1,3.8-0.2,5.7-0.3c1.9-0.1,3.8-0.3,5.6-0.4l0.5,0l0-0.5c0-0.7-0.2-1.2-0.4-1.8
		c-0.2-0.6-0.5-1.2-1.1-1.6c-0.6-0.3-1.2-0.4-1.8-0.5c-0.6-0.1-1.2-0.1-1.8-0.2c-1.2-0.1-2.3-0.1-3.5-0.1c-0.6,0-1.2,0-1.7,0
		c-0.5,0-1.1-0.1-1.6-0.2c-1-0.6-1.7-1.7-2.2-2.7c-0.3-0.5-0.5-1.1-0.7-1.7c-0.2-0.6-0.3-1.2-0.4-1.7c0-0.3,0-0.5,0-0.6
		c0,0,0,0,0-0.1l0.1-0.1c0.1-0.1,0.2-0.2,0.3-0.3c0.4-0.4,0.9-0.8,1.4-1.1c1-0.7,2.1-1.4,3.1-2.2l1.6-1.1l0.8-0.5
		c0.2-0.2,0.6-0.5,0.9-0.7c1.6-1,3.4-1.2,4.8-1.5c0.8-0.3,1.7-0.7,2.5-0.9c0.9-0.2,1.8-0.2,2.6-0.1c0.9,0.2,1.7,0.6,2.5,0.9
		c0.8,0.3,1.6,0.6,2.5,0.9c0.8,0.3,1.7,0.5,2.6,0.8c0.7,0.2,1.5,0.3,2.2,0.4c0,0.2-0.1,0.4-0.1,0.6c-0.2,1.8-0.2,3.6,0.3,5.4
		c0.5,1.9,1.4,3.4,2.5,4.9c1,1.5,2.2,2.8,3.5,4.1c0.3,0.3,0.6,0.6,1,1c0.4,0.3,0.9,0.6,1.4,0.8c0.5,0.2,1,0.3,1.5,0.4
		c0.1,0,0.3,0,0.4,0l0.3,0h0.7l5.2,0l5.2-0.1l1,0l0-0.9c0-0.8-0.2-1.7-0.7-2.5c-0.2-0.4-0.6-0.8-1.1-1.1c-0.2-0.1-0.4-0.2-0.6-0.3
		c-0.2-0.1-0.4-0.1-0.6-0.2c-1.6-0.4-3.1-0.4-4.5-0.4c-0.7,0-1.4,0-2-0.2c-0.1,0-0.2-0.1-0.3-0.1c-0.1-0.1-0.2-0.1-0.3-0.2
		c-0.2-0.1-0.2-0.2-0.2-0.4c0-0.4,0.3-1,0.7-1.5c0.4-0.6,0.9-1.1,1.3-1.6c0.5-0.6,0.9-1,1.5-1.5c0.5-0.4,1.1-0.9,1.7-1.3
		c1.2-0.8,2.4-1.6,3.6-2.3c2.5-1.5,5-2.8,7.6-4c2.5-1,4.9-2.2,7.2-3.6c2.3-1.3,4.6-2.8,6.8-4.3c1.1-0.8,2.2-1.6,3.3-2.4
		c0.5-0.4,1.1-0.8,1.6-1.2c0.5-0.4,1-0.8,1.5-1.1c1.1-0.6,2.2-1.1,3.5-1.4c1.3-0.3,2.5-0.7,3.7-1.1c2.1,0.7,4.3,1.1,6.5,1.2
		c0.6,0,1.2,0,1.7,0c0.3,0,0.6-0.1,0.9-0.1c0.1,0,0.3-0.1,0.5-0.1c0.2-0.1,0.3-0.2,0.4-0.3c0.4-0.5,0.6-1.1,0.7-1.6
		c0.2-0.6,0.4-1.7,0.4-1.7c0.1-0.1,0.2-0.1,0.3-0.2c0,0,0.8-0.5,1.1-0.9c0.3-0.5,0.5-1,0.7-1.4l0.6-1.5c0.2-0.5,0.4-0.9,0.6-1.5
		l0-0.1L128,52.1z M105.5,61.6c-0.6,0.3-1.2,0.8-1.7,1.2l-1.6,1.2L99,66.3c-2.1,1.6-4.2,3.2-6.5,4.7c-2.2,1.5-4.4,2.9-6.9,3.9l0,0h0
		c-2.5,1.2-5,2.6-7.5,3.9c-0.1-0.1-0.1-0.2-0.2-0.3c-0.1-0.3-0.1-0.7-0.1-1c0.1-0.7,0.5-1.3,0.9-1.9c0.9-1.2,2-2.1,3.2-2.9
		c1.2-0.8,2.5-1.6,3.8-2.1c1.3-0.6,2.7-0.9,4.2-1.5c1.5-0.6,2.7-1.6,3.8-2.7c1.1-1.1,2.1-2.2,3.1-3.3c1-1.1,2-2.2,3.2-3.1
		c1-0.8,3.9-1.1,4.2-0.7c0.5,0.5,1.1,0.9,1.7,1.1c0.4,0.1,0.8,0.2,1.2,0.3C106.6,61,106,61.3,105.5,61.6z M126.8,53.5l-0.1,0.3
		l-0.4,1.2l-0.2,0.7c-0.1,0.2-0.2,0.5-0.3,0.7c-0.2,0.4-0.6,0.8-1.1,1c-0.5,0-0.9,0-1.3,0.1c-0.5,0-1,0.1-1.5,0.1
		c-0.5,0-1,0.1-1.4,0.2l-0.7,0.1l-0.7,0c-1,0-1.9-0.1-2.8-0.4c-0.9-0.3-1.8-0.7-2.6-1.4c0,0-0.1,0-0.1,0c0,0,0,0.1,0,0.1l0,0
		c0.6,0.8,1.5,1.4,2.4,1.8c0.9,0.4,2,0.7,3,0.8c1,0.1,2.1,0.2,3.1-0.1c0.5-0.1,1-0.3,1.5-0.5c0.3-0.1,0.5-0.3,0.8-0.4
		c-0.1,0.5-0.3,0.9-0.5,1.4c-0.2,0.5-0.4,1-0.8,1.4c-0.1,0.1-0.2,0.1-0.2,0.2c-0.1,0-0.2,0.1-0.4,0.1c-0.2,0-0.5,0-0.8,0
		c-0.5,0-1.1-0.1-1.6-0.1c-1.1-0.1-2.2-0.3-3.3-0.6c-1.1-0.3-2.1-0.6-3.1-1l-0.2-0.1l-0.3,0.1c-0.6,0.2-1.1,0.3-1.7,0.4
		c-0.6,0-1.2,0-1.8,0c-1.2,0-2.3-0.1-3.3-0.4c-0.5-0.1-1-0.3-1.4-0.6c-0.4-0.3-0.8-0.8-1.1-1.2c-0.3-0.5-0.7-1-1-1.5
		c-0.3-0.5-0.6-1-1-1.5c0,0-0.1,0-0.1,0c0,0,0,0.1,0,0.1l0,0c0.2,0.5,0.5,1.1,0.7,1.6c0.3,0.6,0.5,1.1,0.8,1.6
		c0.1,0.2,0.2,0.3,0.2,0.5c-1.3,0.1-2.6,0.6-3.8,1.4c-1.3,0.8-2.4,1.8-3.5,2.9c-1.1,1-2.1,2.1-3.2,3.1c-1.1,1-2.2,1.8-3.5,2.4
		c-1.3,0.6-2.8,0.9-4.2,1.6c-1.4,0.7-2.7,1.5-3.9,2.5c-1.2,0.9-2.3,2-3.1,3.4c-0.4,0.7-0.7,1.4-0.7,2.2c0,0.4,0.1,0.8,0.3,1.2
		c0.1,0.1,0.1,0.2,0.2,0.2c0,0,0,0-0.1,0c-1.3,0.7-2.5,1.4-3.8,2.2c-0.6,0.4-1.2,0.8-1.8,1.2c-0.6,0.4-1.2,1-1.7,1.5
		c-0.5,0.5-1,1-1.5,1.6c-0.2,0.3-0.5,0.6-0.7,1c-0.2,0.4-0.4,0.8-0.4,1.3c0,0.6,0.2,1.2,0.6,1.5c0.2,0.2,0.4,0.3,0.6,0.4
		c0.2,0.1,0.5,0.2,0.7,0.3c0.8,0.2,1.6,0.2,2.3,0.3c1.4,0.1,2.9,0.1,4.1,0.5c0.1,0,0.3,0.1,0.4,0.1c0.1,0.1,0.3,0.1,0.4,0.2
		c0.2,0.1,0.3,0.3,0.4,0.5c0.1,0.2,0.2,0.4,0.2,0.6l-4.2-0.1l-5.2,0h-1c-0.1,0-0.2,0-0.2,0c-0.3,0-0.7-0.1-1-0.2
		c-0.3-0.1-0.6-0.3-0.9-0.5c-0.2-0.2-0.6-0.5-0.9-0.8c-1.2-1.2-2.4-2.4-3.4-3.7c-1-1.3-1.9-2.7-2.4-4.2c-0.5-1.6-0.6-3.2-0.6-4.9
		c0.1-1.7,0.4-3.4,0.9-5c0.5-1.6,1.3-3.2,2.4-4.5c0,0,0-0.1,0-0.1c0,0-0.1,0-0.1,0c-1.3,1.2-2.3,2.7-3,4.3c-0.6,1.3-0.9,2.6-1.2,4
		c-0.5-0.5-1.1-0.9-1.7-1.3c-0.8-0.5-1.6-0.9-2.5-1.2c-0.9-0.3-1.8-0.5-2.7-0.7c-0.9-0.2-1.9-0.1-2.9,0c-0.9,0.1-1.8,0.1-2.8,0.1
		c-0.9,0-1.9-0.1-2.8,0c-0.9,0.1-1.8,0.5-2.7,0.8c-0.2,0.1-0.4,0.2-0.6,0.3c0.2-0.7,0.2-1.4,0.2-2c-0.1-1.4-0.4-2.7-0.9-3.9
		c-0.2-0.6-0.5-1.2-0.7-1.8c-0.1-0.3-0.3-0.6-0.4-0.9l-0.4-0.8l0-0.1c0,0,0,0,0,0c0,0-0.1,0-0.1,0.1c0,0.1,0,0.1,0,0.2l0,0.1
		l0.1,0.2l0.1,0.5l0.3,0.9c0.2,0.6,0.3,1.2,0.5,1.8c0.3,1.2,0.5,2.5,0.4,3.7c0,1.2-0.4,2.3-1.1,3c-0.2,0.2-0.4,0.3-0.7,0.5l-0.8,0.5
		c-0.6,0.3-1.1,0.7-1.6,1c-1.1,0.7-2.2,1.4-3.2,2.2c-0.5,0.4-1.1,0.8-1.5,1.4c-0.1,0.1-0.2,0.3-0.4,0.4l-0.2,0.3
		c0,0.1-0.1,0.3-0.2,0.4c-0.1,0.5-0.1,0.9-0.1,1.3c0.2,1.5,0.8,2.7,1.5,3.8c0.4,0.6,0.8,1.1,1.2,1.6c0.5,0.5,1,1,1.6,1.3l0.1,0l0,0
		c1.3,0.2,2.4,0.1,3.5,0.1c1.2,0,2.3,0,3.4,0c0.6,0,1.1,0.1,1.7,0.2c0.5,0.1,1.1,0.3,1.5,0.5c0.3,0.2,0.6,0.7,0.7,1.2
		c0.1,0.3,0.1,0.7,0.2,1.1c-3.6-0.1-7.2-0.1-10.8-0.1c-0.9,0-1.9,0-2.8-0.1c-0.5,0-0.9,0-1.4-0.1c-0.4,0-0.9-0.1-1.1-0.2
		c-1.4-0.5-2.5-2-3.7-3.4c-0.3-0.4-0.6-0.7-0.9-1.1c-0.3-0.3-0.5-0.7-0.7-1c-0.4-0.7-0.8-1.6-1.1-2.4c-0.3-0.8-0.6-1.7-0.8-2.6
		c-0.2-0.9-0.3-1.8-0.3-2.6c0-1-0.1-2-0.1-2.9c0-0.9,0-1.8,0.1-2.7c0.1-0.9,0.4-1.8,0.8-2.6c0.4-0.8,0.9-1.6,1.6-2.2
		c0,0,0-0.1,0-0.1c0,0-0.1-0.1-0.1,0c-1.4,0.9-2.4,2.4-3,4.1c-1.8,1.4-3.2,3.2-4.2,5.3c-1.1,2.2-1.7,4.7-2,7.2
		c-0.2,2.5-0.2,5,0.1,7.4c0.3,2.5,1.1,4.9,2.1,7.2c2.1,4.5,5,8.7,8.5,12.2c1.8,1.8,3.8,3.3,5.9,4.6c2.2,1.3,4.6,2.2,7.1,2.7
		c2.5,0.4,5,0.4,7.5,0.1c2.5-0.3,4.9-1,7.2-2c2.3-1,4.4-2.2,6.6-3.3c2.2-1.1,4.3-2.2,6.6-3.1c2.3-0.9,4.6-1.6,7-2
		c2.4-0.4,4.8-0.6,7.2-0.6l1.8,0c0.6,0,1.1,0.1,1.6,0.4c1,0.5,1.7,1.5,2,2.5c0.2,1.1-0.1,2.2-0.8,3c-0.7,0.8-1.8,1.3-2.8,1.2
		l-3.6-0.3l-1.8-0.1c-0.6,0-1.3,0-1.9,0c-1.3,0.1-2.5,0.3-3.8,0.6c-1.2,0.3-2.4,0.8-3.5,1.3c-4.5,2-8.8,4.2-13.3,5.9
		c-4.5,1.7-9.2,2.8-14,2.8c-4.7,0-9.6-0.7-14-2.4c-4.5-1.6-8.5-4.3-11.7-7.7c-3.3-3.5-5.7-7.7-7.5-12.1c-1.8-4.5-2.9-9.2-3.6-14
		c-0.7-4.6-0.9-17.6,1.1-21.7c1.1-2.4,2.6-4.6,4.3-6.6l0,0l0-0.1C6.9,61.2,7,61,7.1,60.8c0.1-0.2,0.2-0.4,0.4-0.6
		c2.4-3.7,5.3-7.1,8.8-9.6c1.9-1.4,4.1-2.6,6.3-3.5c1.1-0.5,2.3-0.8,3.4-1.2c1.1-0.3,2.3-0.5,3.5-0.7c4.8-0.6,9.8-0.8,14.7-0.8
		c2.5,0,4.9,0,7.4,0.1c1.2,0,2.5,0.1,3.7,0.2c0.6,0,1.2,0.1,1.8,0.1c0.6,0.1,1.2,0.1,1.7,0.3l0.1,0H59c2.4,0,4.8,0.7,7.1,1.5
		c2.3,0.8,4.6,1.8,6.9,2.7c1.2,0.5,2.3,0.9,3.5,1.3c1.2,0.4,2.5,0.4,3.8,0.4c2.5-0.1,5-0.9,7.4-1.5l0,0l0.1,0
		c2.8-1.5,5.8-2.6,8.9-3.6c1.5-0.5,3.1-0.9,4.6-1.2c1.6-0.4,3.1-0.7,4.7-0.8c3.1-0.3,6.3,0.1,9.2,1c1.5,0.5,2.9,1.1,4.3,1.9
		c1.4,0.8,2.7,1.7,3.9,2.7l0.1,0.1l0,0c0.7,0.4,1.4,0.8,2,1.2c0,0,0.1,0.1,0.1,0.1c0.3,0.2,0.6,0.4,0.8,0.7c0.1,0.1,0.3,0.3,0.4,0.4
		c0.1,0.1,0.2,0.2,0.2,0.3C127,52.6,126.9,53.1,126.8,53.5z"/>
	<path class="st6" d="M83,114.6c-0.7,0.8-1.8,1.3-2.8,1.2l-3.6-0.3l-1.8-0.1c-0.6,0-1.3,0-1.9,0c-1.3,0.1-2.5,0.3-3.8,0.6
		c-1.2,0.3-2.4,0.8-3.5,1.3c-4.5,2-8.8,4.2-13.3,5.9c-4.5,1.7-9.2,2.8-14,2.8c-4.7,0-9.6-0.7-14-2.4c-4.5-1.6-8.5-4.3-11.7-7.7
		c-3.3-3.5-5.7-7.7-7.5-12.1c-1.8-4.5-2.9-9.2-3.6-14c-0.7-4.6-0.9-17.6,1.1-21.7c1.1-2.4,2.6-4.6,4.3-6.6l0,0l0-0.1
		C6.9,61.2,7,61,7.1,60.8c0,4,0.9,18.2,11.5,12.3c-1.8,1.4-3.2,3.2-4.2,5.3c-1.1,2.2-1.7,4.7-2,7.2c-0.2,2.5-0.2,5,0.1,7.4
		c0.3,2.5,1.1,4.9,2.1,7.2c2.1,4.5,5,8.7,8.5,12.2c1.8,1.8,3.8,3.3,5.9,4.6c2.2,1.3,4.6,2.2,7.1,2.7c2.5,0.4,5,0.4,7.5,0.1
		c2.5-0.3,4.9-1,7.2-2c2.3-1,4.4-2.2,6.6-3.3c2.2-1.1,4.3-2.2,6.6-3.1c2.3-0.9,4.6-1.6,7-2c2.4-0.4,4.8-0.6,7.2-0.6l1.8,0
		c0.6,0,1.1,0.1,1.6,0.4c1,0.5,1.7,1.5,2,2.5C84,112.6,83.7,113.8,83,114.6z"/>
	<path class="st2" d="M36.8,75.8c0.1,0,0.2-0.1,0.3-0.1C36.8,75.9,36.8,75.9,36.8,75.8z"/>
	<path class="st1" d="M106.6,48.5c-0.3-0.1-0.7-0.2-1.1-0.1c-0.4,0.1-0.8,0.5-0.9,0.8c-0.4,0.7-0.3,1.4,0,2c0.2,0.6,0.6,1.1,1.1,1.4
		c-0.1-0.6-0.1-1.1-0.2-1.6c0-0.5,0-0.9,0.2-1.2c0.1-0.2,0.1-0.2,0.2-0.3c0.1-0.1,0.3-0.1,0.5-0.1c0.4,0,1,0.1,1.5,0.2
		C107.6,49.2,107.2,48.8,106.6,48.5z"/>
</g>
</svg>
