<?xml version="1.0" encoding="utf-8"?>
<!-- Generator: Adobe Illustrator 24.1.2, SVG Export Plug-In . SVG Version: 6.00 Build 0)  -->
<svg version="1.1" id="Layer_1" xmlns="http://www.w3.org/2000/svg" xmlns:xlink="http://www.w3.org/1999/xlink" x="0px" y="0px"
	 viewBox="0 0 128 128" style="enable-background:new 0 0 128 128;" xml:space="preserve">
<style type="text/css">
	.st0{fill:#847F55;}
	.st1{fill:#936047;}
	.st2{fill:#7FA43C;}
	.st3{fill:#EDBF7E;}
	.st4{fill:#ACE585;}
	.st5{fill:#775142;}
	.st6{fill:#2D2D2D;}
</style>
<g>
	<path class="st0" d="M107.06,113.82c0.63,0.61,1.26,1.21,1.89,1.81c-0.12-1.34-0.09-2.61-0.21-3.86c-0.14-1.63-0.47-3.2-0.94-4.73
		c-0.1-0.33-0.22-0.66-0.34-0.99c0.38,1.44,0.39,3,0.22,4.46C107.53,111.64,107.31,112.74,107.06,113.82z"/>
	<path class="st0" d="M101.94,95.64c0.14,1.34,0.22,2.68,0.26,4.02c0.07,2.44,0.09,6.44-0.05,9.16c1.44,1.51,2.89,3.01,4.37,4.48
		c0.31-0.91,0.5-1.85,0.48-2.8c-0.04-1.41-0.58-2.71-1.08-3.99l-1.52-3.95c-0.25-0.67-0.5-1.34-0.73-2.03
		c-0.1-0.3-0.28-0.78-0.37-1.2c-0.09-0.43-0.13-0.76-0.23-1.02c0.14,0.11,0.33,0.18,0.57,0.32c0.23,0.13,0.46,0.32,0.61,0.44
		c0.34,0.27,0.68,0.54,1,0.84c0.33,0.29,0.65,0.6,0.95,0.92c-0.06-2.07-0.18-4.13-0.36-6.17l-0.06-0.01
		c-0.75-1.54-1.56-3.15-2.35-4.69c-0.8-1.55-1.64-3.05-2.48-4.55c-0.86-1.48-1.73-2.95-2.79-4.27c-0.38-0.5-0.81-0.98-1.25-1.45
		c0.7,1.4,1.35,2.82,1.94,4.27c1.01,2.48,1.95,5.04,2.5,7.69C101.64,92.96,101.82,94.3,101.94,95.64z"/>
	<path class="st1" d="M33.66,86.68c0.73-0.05,1.47-0.05,2.19-0.03c-0.55-3.31-0.83-6.65-1.1-9.99c-0.26-3.53-0.47-7.06-0.62-10.59
		c-0.17-3.53-0.3-7.06-0.38-10.59c-0.09-3.54-0.03-7.08,0-10.62c0.06-7.07,0.15-14.14,0.26-21.2l0.46-21.13
		c-0.29,0.18-2.44,0.45-3.64,0.11c0.41,3.52,0.62,7.05,0.76,10.58c0.13,3.59,0.25,7.18,0.09,10.77c-0.15,3.59-0.4,7.18-0.37,10.77
		c-0.01,3.59,0.19,7.18,0.37,10.77c0.34,7.18,0.27,14.4-0.21,21.57c-0.22,3.59-0.57,7.17-0.98,10.75
		c-0.42,3.36-0.88,6.72-1.67,10.02c0.31-0.15,0.63-0.28,0.95-0.4C31.03,87.01,32.35,86.78,33.66,86.68z"/>
	<path class="st0" d="M99.05,105.52c0.84,0.89,1.68,1.78,2.52,2.67c-0.36-2-0.79-4.68-1.27-6.12c-0.59-1.8-1.3-3.55-2.14-5.22
		c-0.84-1.67-1.75-3.3-2.85-4.82c-0.28-0.39-0.58-0.77-0.88-1.15c0.17,0.34,0.34,0.68,0.51,1.02c0.83,1.62,1.79,3.21,2.52,4.91
		c0.72,1.71,1.13,3.53,1.39,5.36C99,103.28,99.08,104.4,99.05,105.52z"/>
	<path class="st2" d="M26.48,93.99c0.57-0.3,1.39-0.63,1.9-0.81c0.6-0.21,1.21-0.4,1.82-0.56c1.21-0.34,2.42-0.6,3.66-0.85
		c0.93-0.38,1.9-0.67,2.86-0.93c0.47-0.13,1.01-0.23,1.36-0.38c0.18-0.08,0.33-0.18,0.41-0.28c0.04-0.05,0.06-0.1,0.07-0.14
		c0.01-0.03,0-0.12,0.01-0.08c0,0,0.47-1.84,0.84-2.58c0.36-0.73,0.81-1.44,1.37-2.07c0.56-0.63,1.24-1.18,2.02-1.56
		c0.78-0.39,1.65-0.58,2.5-0.62l2.17-0.09l-1.77,1.3c-0.89,0.65-1.72,1.48-2.37,2.39c-0.32,0.46-0.59,0.94-0.74,1.42
		c-0.02,0.06-0.03,0.13-0.05,0.19c1.36-1.24,2.82-2.43,4.5-3.3c1.04-0.54,2.19-0.93,3.39-1.06c1.2-0.13,2.44,0.04,3.54,0.52
		l1.35,0.58l-1.42,0.27c-0.77,0.15-1.58,0.41-2.35,0.7c-0.78,0.29-1.54,0.63-2.27,1.02c-0.73,0.39-1.45,0.82-2.06,1.35
		c-0.55,0.47-1.07,1.16-0.85,1.79c1.15-0.25,2.3-0.45,3.47-0.6c1.22-0.15,2.46-0.23,3.7-0.21c1.24,0.03,2.5,0.15,3.72,0.57
		c1.2,0.41,2.39,1.21,3.04,2.42l0.51,0.95l-1.07-0.32c-0.91-0.27-1.99-0.35-3.03-0.44c-1.05-0.07-2.1-0.12-3.16-0.15
		c-0.82-0.01-1.64-0.02-2.46-0.02c0.72,0.21,1.44,0.47,2.12,0.82c0.93,0.47,1.79,1.12,2.46,1.92c0.5,0.59,0.89,1.26,1.18,1.96
		c0.54,0.09,1.07,0.2,1.6,0.32c0.59,0.12,1.17,0.3,1.75,0.46c0.29,0.08,0.59,0.2,0.89,0.3c0.29,0.11,0.6,0.2,0.88,0.35
		c0.9,0.39,1.74,0.91,2.53,1.5c0.07-0.44,0.1-0.89,0.13-1.34c0.04-0.95,0.01-1.9-0.08-2.84c-0.18-1.89-0.52-3.73-1.12-5.49
		c-0.61-1.81-1.23-3.65-2.33-5.24c-1.07-1.59-2.61-2.87-4.37-3.58c-0.88-0.36-1.81-0.58-2.74-0.71c-0.93-0.12-1.91-0.15-2.85-0.19
		c-1.9-0.06-3.8,0.05-5.62,0.44c-0.91,0.2-1.8,0.45-2.64,0.78c-0.42,0.17-0.83,0.35-1.23,0.55c-0.2,0.09-0.39,0.21-0.58,0.32
		c-0.16,0.12-0.33,0.21-0.47,0.35c-1.2,1.04-1.96,2.85-2.27,4.61l-0.14,0.82l-0.75-0.1c-1.28-0.17-2.46-0.31-3.69-0.3
		c-1.22,0-2.43,0.11-3.6,0.42c-1.17,0.3-2.29,0.8-3.26,1.52c-0.96,0.71-1.73,1.66-2.34,2.72c0.4,0.18,0.81,0.37,1.2,0.61
		C25.99,93.56,26.24,93.77,26.48,93.99z"/>
	<path class="st3" d="M47.65,97.26c1.17-0.28,2.37-0.43,3.58-0.5c1.32-0.07,2.65-0.03,3.97,0.12c-1.38-0.68-2.86-1.06-4.35-1.26
		c-0.87-0.12-1.76-0.14-2.63-0.11c-0.58,0.01-1.17-0.02-1.75-0.05c0.1,0.18,0.18,0.36,0.24,0.55c0.15,0.48,0.19,0.99,0.13,1.47
		C47.1,97.41,47.37,97.33,47.65,97.26z"/>
	<path class="st0" d="M121.51,98.09c0.41-0.81,0.83-1.61,1.25-2.42c-0.01-0.29-0.01-0.57-0.02-0.86c-0.74,0.82-1.45,1.67-2.08,2.58
		c-1.5,2.19-2.64,4.6-3.57,7.11c-0.76,2-1.34,4.07-1.84,6.18c-0.17,3.19-0.34,6.38-0.58,9.57c0.33,0.2,0.67,0.39,1.02,0.55
		c0.21,0.1,0.43,0.18,0.65,0.25c0.32,0.07,0.65,0.14,0.97,0.2c0.24,0.04,0.49,0.08,0.72,0.12c-1.02-2.39-1.44-5.04-1.41-7.65
		c0.05-2.79,0.54-5.56,1.49-8.16C119.05,102.97,120.3,100.53,121.51,98.09z"/>
	<path class="st1" d="M119.59,71.66l0.48-0.58l0.23-0.29c0.04-0.04,0.07-0.1,0.15-0.18c0.07-0.07,0.15-0.11,0.2-0.15
		c-0.07,0.24-0.12,0.49-0.18,0.77c-0.06,0.28-0.14,0.59-0.23,0.86l-0.43,1.51c-0.27,1.01-0.51,2.03-0.76,3.04
		c-0.1,0.43-0.2,0.85-0.29,1.28c0.14,1.84,0.39,3.66,0.61,5.5c0.21,1.87,0.38,3.75,0.46,5.65c0.07,1.89,0.21,3.83-0.17,5.72
		c-0.09,0.46-0.19,0.91-0.3,1.36c0.82-1.06,1.74-2.06,2.74-2.95c0.19-0.17,0.39-0.33,0.59-0.49c-0.11-4.14-0.19-8.27-0.28-12.41
		c-0.09-5.19,0-10.4,0.1-15.59c0.22-10.38,0.49-20.75,0.81-31.13c0.34-10.35,0.73-20.69,1.14-31.04c-0.46,0.17-0.86,0.32-1.3,0.46
		c-0.49,0.16-1.04,0.15-1.57,0.19c-0.53,0.04-1.08,0.07-1.64,0.01c-0.28-0.04-0.56-0.11-0.82-0.23c-0.18-0.08-0.33-0.21-0.47-0.33
		c0.33,2.92,0.46,5.85,0.56,8.77c0.08,2.98,0.12,5.95,0,8.93c-0.14,2.97-0.46,5.95-0.53,8.92c-0.08,2.97,0,5.95,0.15,8.93
		c0.16,2.98,0.28,5.95,0.32,8.93c0.06,2.98,0.09,5.95,0.06,8.93c-0.12,5.76-0.37,11.53-0.96,17.29c0.13-0.16,0.26-0.33,0.39-0.49
		L119.59,71.66z"/>
	<path class="st0" d="M107.31,93.77c-0.01,2.52-0.23,5.04-0.7,7.51c0.15,0.17,0.3,0.33,0.45,0.51c1.12,1.36,2.02,2.94,2.63,4.63
		c0.05,0.13,0.09,0.26,0.13,0.4l0.1-2.21c0.15-3.99,0.32-7.99,0.84-11.97c-0.33-1.8-0.71-3.57-1.16-5.32
		c-0.53-2.18-1.2-4.31-1.92-6.42c-0.72-2.11-1.4-4.25-2.41-6.27c-0.71-1.42-1.59-2.74-2.61-3.95l0.05,0.13l0.76,2
		c0.5,1.33,0.94,2.69,1.33,4.06c0.76,2.74,1.44,5.52,1.87,8.35C107.11,88.04,107.33,90.9,107.31,93.77z"/>
	<path class="st4" d="M56.53,97.06c-0.34-0.59-0.74-1.14-1.22-1.6c-0.7-0.68-1.54-1.2-2.43-1.58c-1.8-0.76-3.78-1.01-5.77-1.21
		l-2.64-0.28l2.55-0.71c0.63-0.18,1.14-0.2,1.69-0.26c0.54-0.04,1.08-0.07,1.62-0.09c1.08-0.03,2.15-0.05,3.22-0.01
		c1.07,0.03,2.15,0.09,3.22,0.21c0.68,0.08,1.35,0.17,2.03,0.32c-0.49-0.53-1.12-0.94-1.82-1.23c-1.08-0.45-2.29-0.67-3.49-0.74
		c-2.42-0.14-4.87,0.21-7.24,0.77l-0.15,0.03l-0.08-0.14c-0.26-0.43-0.21-1,0-1.41c0.21-0.42,0.51-0.76,0.82-1.07
		c0.63-0.61,1.35-1.09,2.09-1.53c0.74-0.44,1.51-0.82,2.29-1.17c0.3-0.13,0.6-0.25,0.9-0.37c-0.53-0.06-1.07-0.06-1.6,0.02
		c-1.04,0.15-2.04,0.54-2.98,1.05c-0.94,0.51-1.83,1.15-2.67,1.85c-0.84,0.7-1.63,1.47-2.43,2.26l-0.6,0.59l-0.42-0.75
		c-0.21-0.37-0.3-0.79-0.3-1.18c0-0.39,0.07-0.76,0.17-1.09c0.21-0.67,0.55-1.25,0.91-1.78c0.19-0.26,0.38-0.52,0.59-0.77
		c-0.41,0.26-0.8,0.58-1.15,0.95c-0.49,0.52-0.91,1.12-1.25,1.77c-0.34,0.63-0.95,2.68-1.15,2.93c-0.25,0.28-0.54,0.43-0.82,0.54
		c-0.58,0.2-1.04,0.25-1.53,0.36c-0.97,0.19-1.91,0.41-2.83,0.73l-0.05,0.02l-0.03,0c-1.24,0.16-2.48,0.37-3.71,0.59
		c-0.62,0.11-1.23,0.25-1.83,0.4c-0.5,0.13-1.29,0.39-1.87,0.63c0.09,0.09,0.19,0.17,0.27,0.26c0.16-0.06,0.74-0.27,1.21-0.35
		c8.57-1.59,9.45-1.31,9.68-0.81c0.11,0.24,0,0.5-0.32,0.76c-1.34,1.09-1.9,2.46-1.97,3.39c-0.02,0.29,0,0.55,0.06,0.76
		c0.98-1.47,3.1-4.33,4.3-4.56c0.11-0.02,0.22,0.02,0.29,0.1c0.44-0.06,0.91,0,1.31,0.13c0.68,0.2,1.17,0.71,1.65,1.15
		c0.49,0.45,0.91,0.96,1.26,1.51c0.32,0.53,0.59,1.08,0.74,1.67c0.52-0.24,1.05-0.42,1.59-0.58c-0.21-0.95-0.72-1.75-1.43-2.22
		l-0.82-0.54l1.06-0.27c0.91-0.23,1.85-0.35,2.78-0.27c0.93,0.1,1.85,0.28,2.75,0.5c1.69,0.42,3.33,1.13,4.68,2.2
		C55.97,96.98,56.25,97.02,56.53,97.06z"/>
	<path class="st0" d="M117.8,94.55c0.1-1.83,0.44-3.64,0.53-5.5c0.11-1.85,0.12-3.71,0.1-5.59c0.01-1.4-0.01-2.8,0.04-4.21
		c-0.23,1.17-0.45,2.34-0.64,3.52c-0.69,4.11-1.16,8.26-1.53,12.42l-0.49,6.25c-0.02,0.31-0.04,0.63-0.06,0.95
		c0.51-1.26,1.12-2.49,1.82-3.66C117.62,97.31,117.72,95.93,117.8,94.55z"/>
	<path class="st0" d="M110.32,108.88c0.15,0.94,0.22,1.88,0.23,2.81c0.01,0.88-0.03,1.75-0.1,2.61c-0.05,0.6-0.12,1.2-0.17,1.77
		l0.02,0.21c0.03,0.01,0.07,0.02,0.1,0.04c0.17,0.07,0.28,0.15,0.4,0.24c0.22,0.17,0.41,0.34,0.58,0.52
		c0.35,0.35,0.66,0.71,0.98,1.06c0.3,0.33,0.59,0.66,0.89,0.95l-0.03-0.79c-0.02-0.69-0.04-1.39-0.03-2.08
		c0.01-1.39,0.1-2.78,0.24-4.17c0.02-0.2,0.05-0.39,0.08-0.59c0.02-1.27,0.04-2.54,0.07-3.81c0.06-2.11,0.13-4.21,0.24-6.32
		c0.14-2.11,0.27-4.21,0.51-6.31c0.45-4.2,1.1-8.4,2.08-12.52c0.49-2.06,1.08-4.1,1.74-6.11c0.33-1.01,0.71-1.99,1.09-2.98
		l0.61-1.46c0.03-0.07,0.06-0.13,0.09-0.2l-0.08,0.13l-0.85,1.25c-0.56,0.83-1.14,1.67-1.62,2.52c-0.84,1.78-1.6,3.66-2.25,5.52
		c-0.66,1.87-1.18,3.78-1.63,5.71c-0.43,1.94-0.78,3.9-1.16,5.87c-0.76,3.93-1.42,7.9-1.79,11.91
		C110.45,106.06,110.37,107.47,110.32,108.88z"/>
	<path class="st2" d="M37.04,93.48c0.01-0.01,0.01-0.01,0.02-0.02c-0.62-0.12-2.75,0.03-8.87,1.17c-0.61,0.11-0.84,0.16-0.95,0.17
		c0.51,0.65,0.91,1.36,1.25,2.06c0.29,0.63,0.54,1.26,0.73,1.95c0.09-0.02,0.19-0.04,0.28-0.06c1.36-0.26,2.74-0.37,4.12-0.34
		c0.46,0.01,0.93,0.05,1.39,0.11c-0.15-0.34-0.22-0.75-0.18-1.22C34.94,95.94,35.77,94.51,37.04,93.48z"/>
	<path class="st5" d="M111.91,124.54c-0.55-0.27-1.08-0.55-1.6-0.85c-2.07-1.18-4.02-2.51-5.97-3.82l-5.71-4.08l-0.72-0.49
		l-0.75-0.53c-0.49-0.37-0.97-0.75-1.41-1.18c-0.9-0.83-1.67-1.8-2.36-2.78c-0.35-0.48-0.66-0.99-1.01-1.38
		c-0.18-0.18-0.34-0.3-0.47-0.3c-0.17,0.02-0.25,0.05-0.28,0.24c-0.03,0.19,0.02,0.47,0.12,0.73c0.09,0.26,0.21,0.52,0.33,0.78
		c0.25,0.52,0.58,1,0.9,1.48c0.67,0.95,1.42,1.85,2.21,2.72c0.78,0.85,1.62,1.6,2.5,2.36l5.25,4.59l2.65,2.3l1.33,1.15
		c0.32,0.27,0.64,0.54,0.97,0.79c2.6,0.06,5.21,0.14,7.81,0.23c-0.7-0.47-1.42-0.89-2.17-1.23
		C113.01,125,112.5,124.82,111.91,124.54z"/>
	<path class="st5" d="M81.49,123.14c-0.28-1.3-0.65-2.6-0.96-3.93c-0.58-2.66-1.24-5.35-1.39-8.21c-0.04-0.74-0.07-1.37-0.24-2.04
		c-0.16-0.66-0.42-1.29-0.77-1.86c-0.34-0.57-0.78-1.08-1.23-1.49c-0.44-0.41-0.94-0.69-1.17-0.68c-0.06,0-0.11,0-0.18,0.02
		c-0.03,0.01-0.07,0.03-0.1,0.04c-0.04,0.02-0.11,0.07-0.16,0.11c-0.23,0.15-0.47,0.36-0.7,0.57c-0.46,0.43-0.92,0.93-1.37,1.43
		c-0.76,0.86-1.49,1.77-2.31,2.64c0.01,0.04,0.03,0.09,0.04,0.13c0.19,0.58,0.36,1.16,0.51,1.74l0.12,0.44
		c0.04,0.15,0.07,0.33,0.1,0.49l0.09,0.49l0.04,0.48c0.19,2.58-0.34,4.97-1.01,7.3c-0.35,1.16-0.79,2.29-1.29,3.4
		c-0.29,0.62-0.6,1.23-0.97,1.83c4.41-0.04,8.82-0.09,13.24-0.11c0.03-0.28,0.03-0.57,0.02-0.85
		C81.75,124.44,81.63,123.79,81.49,123.14z"/>
	<path class="st4" d="M55.37,112.96c1.63,0.85,3.14,1.88,4.57,3c1.43,1.13,2.76,2.37,3.98,3.73c0.82,0.92,1.6,1.9,2.27,2.96
		c-0.06-1.18-0.34-2.34-0.85-3.41c-0.75-1.6-1.95-2.97-3.33-4.12c-1.38-1.15-2.95-2.1-4.58-2.9c-1.64-0.79-3.34-1.46-5.09-1.96
		l-1.14-0.33l1.17-0.12c0.74-0.07,1.41,0.01,2.11,0.05c0.69,0.06,1.37,0.14,2.06,0.23c1.37,0.18,2.72,0.41,4.08,0.66
		c1.35,0.26,2.71,0.52,4.05,0.85c1.15,0.29,2.3,0.6,3.42,1.08c-0.56-1.21-1.6-2.16-2.79-2.79c-1.35-0.73-2.86-1.16-4.39-1.44
		c-3.07-0.54-6.23-0.55-9.33-0.29l-0.37,0.03l-0.12-0.35c-0.11-0.33-0.16-0.71-0.09-1.07c0.08-0.35,0.22-0.67,0.41-0.93
		c0.37-0.53,0.85-0.89,1.33-1.22c0.97-0.64,1.99-1.07,3.03-1.46c1.04-0.38,2.1-0.69,3.17-0.95c0.42-0.1,0.84-0.19,1.26-0.27
		c-0.67-0.2-1.37-0.32-2.08-0.35c-1.36-0.06-2.75,0.2-4.07,0.63c-1.33,0.43-2.61,1.04-3.85,1.74c-1.24,0.7-2.42,1.5-3.62,2.31
		l-0.5,0.33l-0.19-0.55c-0.31-0.91-0.06-1.85,0.32-2.58c0.39-0.74,0.91-1.36,1.47-1.93c0.84-0.83,1.78-1.55,2.79-2.14
		c-0.56,0-1.12,0.06-1.66,0.22c-0.92,0.26-1.8,0.69-2.57,1.27c-0.77,0.59-1.46,1.29-2.07,2.07c-0.6,0.77-1.15,1.62-1.56,2.49
		c-0.04,0.32-0.35,0.51-0.61,0.61c-0.27,0.1-0.56,0.14-0.84,0.16c-0.57,0.02-1.11-0.03-1.66-0.01c-1.1,0.03-2.2,0.14-3.28,0.33
		c-1.08,0.19-2.14,0.47-3.12,0.91c-0.56,0.25-1.09,0.59-1.5,1.02c0.53-0.19,1.09-0.27,1.62-0.32c0.97-0.07,1.93,0,2.87,0.1
		c0.94,0.11,1.87,0.25,2.79,0.38c0.91,0.13,1.86,0.28,2.65,0.21l1.18-0.11l-0.74,0.92c-0.41,0.51-0.66,1.19-0.8,1.9
		c-0.14,0.71-0.17,1.45-0.12,2.19c0.03,0.48,0.11,0.95,0.21,1.42c0.09-0.77,0.24-1.53,0.49-2.28c0.3-0.86,0.71-1.76,1.55-2.45
		c0.41-0.33,0.96-0.57,1.51-0.61c0.54-0.04,1.1,0.06,1.58,0.31c0.98,0.51,1.53,1.4,1.92,2.23c0.39,0.85,0.62,1.72,0.8,2.6
		c0.22,1.11,0.33,2.22,0.38,3.34c0.37-0.68,0.62-1.43,0.76-2.2c0.12-0.69,0.14-1.4,0.03-2.07c-0.11-0.67-0.35-1.31-0.73-1.75
		l-1.02-1.19l1.52,0.13C52,111.4,53.74,112.12,55.37,112.96z"/>
	<path class="st2" d="M69.95,113.7l-0.04-0.4l-0.08-0.37c-0.03-0.13-0.05-0.24-0.08-0.38l-0.12-0.41c-0.16-0.55-0.33-1.1-0.53-1.64
		c-0.38-1.08-0.79-2.14-1.29-3.15c-0.99-2.02-2.29-3.87-3.93-5.32c-0.84-0.69-1.74-1.33-2.73-1.79c-0.24-0.14-0.5-0.23-0.75-0.33
		c-0.26-0.1-0.5-0.21-0.77-0.31c-0.55-0.17-1.09-0.36-1.64-0.52c-1.09-0.35-2.21-0.59-3.34-0.81c-1.13-0.22-2.27-0.36-3.42-0.41
		c-1.15-0.05-2.3-0.01-3.44,0.14c-1.13,0.15-2.29,0.44-3.29,0.93c-0.99,0.55-1.81,1.42-2.51,2.34c-0.34,0.47-0.65,0.97-0.93,1.48
		c-0.14,0.26-0.27,0.52-0.38,0.79c-0.06,0.13-0.11,0.27-0.15,0.4c-0.02,0.07-0.04,0.14-0.05,0.2c0,0.03-0.01,0.07-0.01,0.09
		c0,0,0.01,0.01,0.03,0.02c0.07,0.07,0.01,0.16-0.07,0.16c-0.04-0.01-0.07-0.02-0.09-0.04l-0.04-0.02l-0.12-0.04l-0.25-0.08
		l-0.51-0.14c-0.34-0.09-0.69-0.16-1.04-0.23c-0.7-0.14-1.4-0.26-2.1-0.33c-1.41-0.15-2.83-0.2-4.23-0.05
		c-1.4,0.14-2.77,0.47-3.99,1.07c-0.6,0.3-1.16,0.68-1.64,1.12c-0.47,0.44-0.89,0.98-1.18,1.52c-0.29,0.55-0.41,1.13-0.39,1.7
		c0.02,0.57,0.23,1.14,0.54,1.67c0.61,1.09,1.62,2.02,2.68,2.85c0.54,0.42,1.1,0.81,1.68,1.18c0.56,0.33,1.26,0.79,1.82,1.21
		c0.51,0.37,1.01,0.73,1.52,1.1c0.03-0.02,0.08-0.03,0.11-0.01c0.02,0.01,0.03,0.03,0.04,0.05c0.01,0.03,0.01,0.06,0.02,0.08
		c0.58,0.42,1.17,0.84,1.76,1.24c2.34,1.57,4.79,2.98,7.43,3.96c1.31,0.5,2.68,0.85,4.07,1.06c0.7,0.07,1.39,0.17,2.09,0.15
		c0.7,0.03,1.41-0.02,2.12-0.06c2.85-0.13,5.71-0.32,8.61-0.1c1.44,0.12,2.9,0.36,4.31,0.83c1.1,0.37,2.19,0.91,3.14,1.66
		l-0.59-1.17c-0.77-1.53-1.87-2.92-3.06-4.21c-1.2-1.28-2.5-2.48-3.89-3.55c-1.39-1.07-2.86-2.04-4.41-2.83
		c-1.15-0.58-2.36-1.08-3.58-1.34c0.15,0.38,0.26,0.77,0.32,1.15c0.14,0.84,0.12,1.68,0,2.5c-0.26,1.63-1.01,3.21-2.26,4.38
		l-1.17,1.09l0.07-1.61c0.07-1.65-0.04-3.35-0.35-4.97c-0.16-0.81-0.38-1.6-0.7-2.32c-0.32-0.71-0.77-1.35-1.33-1.63
		c-0.27-0.14-0.59-0.21-0.9-0.18c-0.3,0.03-0.58,0.14-0.83,0.34c-0.51,0.4-0.89,1.12-1.15,1.86c-0.26,0.75-0.43,1.56-0.52,2.37
		c-0.05,0.41-0.07,0.82-0.07,1.22c0,0.39,0.02,0.84,0.1,1.09l0.91,3.09l-1.91-2.54c-0.54-0.72-0.85-1.51-1.07-2.3
		c-0.22-0.79-0.34-1.6-0.38-2.42c-0.04-0.81,0.01-1.64,0.18-2.45c0.11-0.52,0.29-1.03,0.54-1.52c-0.69-0.04-1.32-0.16-1.97-0.26
		c-0.92-0.16-1.84-0.33-2.75-0.47c-0.91-0.13-1.83-0.22-2.72-0.18c-0.88,0.04-1.78,0.21-2.4,0.75l-1.03,0.89l0.48-1.23
		c0.23-0.58,0.57-1.13,1.05-1.49c0.21-0.22,0.48-0.34,0.72-0.51c0.25-0.14,0.52-0.26,0.78-0.38c1.06-0.43,2.17-0.66,3.28-0.81
		c1.11-0.15,2.22-0.2,3.34-0.19c0.56,0,1.12,0.08,1.66,0.08c0.27-0.01,0.54-0.03,0.79-0.11c0.24-0.08,0.5-0.23,0.54-0.48
		c0.38-0.95,0.87-1.81,1.45-2.64c0.58-0.82,1.26-1.58,2.04-2.23c0.78-0.65,1.7-1.15,2.68-1.47c0.98-0.35,2.04-0.35,3.07-0.29
		l1.17,0.07l-1.07,0.54c-1.33,0.67-2.56,1.6-3.58,2.67c-0.51,0.54-0.97,1.13-1.28,1.76c-0.2,0.41-0.31,0.84-0.31,1.25
		c2.18-1.53,4.49-2.97,7.08-3.86c1.41-0.48,2.91-0.78,4.43-0.73c1.52,0.04,3.05,0.46,4.39,1.22l1.62,0.93l-1.87,0.12
		c-1.01,0.06-2.08,0.26-3.11,0.49c-1.04,0.24-2.06,0.53-3.06,0.88c-0.99,0.36-1.97,0.77-2.82,1.32c-0.71,0.45-1.35,1.07-1.37,1.68
		c3.04-0.13,6.1-0.02,9.1,0.6c1.56,0.33,3.12,0.82,4.53,1.64c1.39,0.81,2.65,2.03,3.16,3.63l0.17,0.53l-0.5-0.26
		c-1.17-0.61-2.52-0.97-3.83-1.32c-1.33-0.34-2.66-0.64-4.01-0.87c-1.35-0.24-2.7-0.45-4.06-0.62c-0.83-0.09-1.68-0.19-2.51-0.24
		c1.26,0.41,2.5,0.87,3.71,1.43c1.68,0.77,3.31,1.7,4.78,2.87c1.47,1.16,2.79,2.58,3.65,4.3c0.88,1.71,1.21,3.7,1,5.62l-0.15,1.35
		c0.43-0.67,0.79-1.45,1.11-2.23c0.43-1.05,0.79-2.15,1.09-3.25C69.75,118.15,70.17,115.83,69.95,113.7z"/>
	<path class="st1" d="M121.44,123.84c-1.15-0.88-2.47-1.55-3.86-1.74c-0.17-0.03-0.35-0.04-0.52-0.05c-0.16-0.01-0.41-0.02-0.6-0.06
		c-0.4-0.07-0.78-0.19-1.15-0.33c-0.66-0.25-1.26-0.58-1.85-0.92c-0.03-0.01-0.05-0.03-0.07-0.04c-0.04-0.03-0.09-0.05-0.13-0.07
		c-1.3-0.78-2.51-1.67-3.69-2.6c-2.34-1.86-4.55-3.87-6.69-5.93c-2.15-2.06-4.23-4.17-6.29-6.31c-1.04-1.07-2.05-2.12-3.08-3.23
		c-1.09-1.22-1.87-2.56-2.59-3.9c-1.39-2.71-2.45-5.52-3.43-8.34c-0.97-2.82-1.84-5.68-2.61-8.55c-0.79-2.87-1.48-5.76-2.11-8.66
		c-0.65-2.9-1.25-5.81-1.83-8.72l-1.75-8.73c-0.57-2.91-1.14-5.84-1.53-8.79c-0.41-2.95-0.75-5.89-1.09-8.84
		c-0.62-5.9-0.99-11.82-1.32-17.74c-0.32-5.9-0.53-11.81-0.57-17.73c-1.32,0.1-2.54,0.35-3.8,0.64c-1.28,0.3-2.62,0.46-3.95,0.63
		c-1.32,0.17-2.68,0.33-4.04,0.24c-0.68-0.06-1.36-0.17-2.01-0.43c-0.62-0.23-1.12-0.66-1.61-1.04c0.41,3.24,0.64,6.48,0.83,9.72
		c0.19,3.28,0.34,6.55,0.34,9.83c-0.01,3.28-0.19,6.57-0.1,9.85c0.08,3.28,0.34,6.55,0.71,9.81l0.58,4.88
		c0.1,0.81,0.18,1.63,0.27,2.44l0.3,2.43c0.21,1.62,0.48,3.17,0.73,4.85c0.25,1.65,0.38,3.32,0.47,4.98
		c0.12,3.33-0.05,6.67-0.54,9.96c-0.26,1.64-0.57,3.28-1.02,4.88c-0.22,0.8-0.49,1.59-0.79,2.37c-0.29,0.68-1.35,2.76-1.97,3.68
		c0.92,0.73,1.77,1.55,2.53,2.45c1.29,1.54,2.42,3.26,3.23,5.1c0.43,0.93,0.73,1.95,0.89,2.96c0.17,1.01,0.25,2.04,0.22,3.06
		c-0.02,1.02-0.13,2.04-0.39,3.04c-0.14,0.54-0.32,1.09-0.57,1.6c0.04,0.03,0.08,0.06,0.13,0.1c0.96,0.82,1.82,1.74,2.57,2.74
		c0.73,1.01,1.35,2.08,1.89,3.19c0.43,0.88,0.79,1.78,1.11,2.69c0.43-0.97,0.91-1.92,1.48-2.82c0.38-0.6,0.79-1.19,1.29-1.75
		c0.25-0.28,0.52-0.55,0.85-0.8c0.09-0.06,0.15-0.12,0.26-0.19c0.11-0.07,0.23-0.14,0.36-0.19c0.25-0.11,0.55-0.17,0.83-0.16
		c0.58,0.01,1.05,0.26,1.4,0.53c0.36,0.28,0.61,0.6,0.83,0.93c0.43,0.66,0.67,1.37,0.88,2.06c0.21,0.69,0.38,1.38,0.56,2.06
		c0.19,0.67,0.29,1.41,0.47,2.04c0.39,1.3,0.99,2.56,1.39,3.88c0.42,1.32,0.87,2.64,1.18,4c0.31,1.37,0.5,2.78,0.52,4.22
		c0.01,0.72-0.04,1.46-0.22,2.2c-0.06,0.25-0.15,0.51-0.27,0.75c4.49-0.02,8.99-0.02,13.48,0.05c0.05,0,0.11,0,0.16,0
		c-2.11-1.74-4.12-3.55-6.1-5.4c-0.58-0.56-1.16-1.12-1.72-1.71l-0.85-0.87l-0.86-0.93c-1.12-1.25-2.14-2.68-2.67-4.34
		c-0.58-1.63-0.66-3.29-1.15-4.82c-0.12-0.38-0.27-0.75-0.43-1.12c-0.18-0.36-0.34-0.72-0.56-1.06c-0.2-0.34-0.4-0.68-0.63-1.01
		l-0.66-1.01c-0.22-0.35-0.43-0.72-0.62-1.12c-0.18-0.4-0.36-0.8-0.45-1.38c-0.01-0.17-0.04-0.32,0.01-0.59
		c0.03-0.23,0.23-0.61,0.55-0.79c0.3-0.16,0.55-0.17,0.72-0.16c0.18,0.01,0.32,0.04,0.45,0.07c0.5,0.14,0.87,0.32,1.26,0.5
		c1.49,0.74,2.82,1.54,4.34,2.17c0.05,0.02,0.07,0.08,0.05,0.12c-0.01,0.04-0.05,0.06-0.08,0.06c-1.7,0.07-3.35-0.51-4.86-1
		c-0.23-0.08-0.46-0.15-0.68-0.2c0.06,0.16,0.13,0.34,0.21,0.52l0.47,1.07c0.68,1.49,1.14,3.18,1.49,4.78
		c0.38,1.6,0.67,3.23,1.51,4.56c0.18,0.34,0.43,0.65,0.64,0.96c0.25,0.3,0.48,0.6,0.74,0.89c0.51,0.58,1.06,1.14,1.62,1.68
		l1.79,1.61c0.61,0.54,1.2,1.11,1.77,1.7c2.02,2.11,3.92,4.36,5.52,6.85c3.34,0.07,6.68,0.14,10.01,0.22
		c-0.15-0.08-0.3-0.15-0.45-0.22c-0.53-0.28-1.04-0.57-1.55-0.88c-1.02-0.61-2-1.28-2.97-1.96c-0.96-0.69-1.9-1.41-2.81-2.17
		c-0.92-0.75-1.79-1.56-2.62-2.43c-0.82-0.87-1.59-1.84-2.24-2.85c-0.64-1-1.28-2-1.9-3.01c-0.32-0.5-0.61-1.02-0.9-1.55
		c-0.14-0.27-0.27-0.54-0.38-0.84c-0.1-0.3-0.21-0.6-0.19-1c0-0.1,0.02-0.2,0.07-0.31c0.03-0.11,0.1-0.21,0.19-0.29
		c0.08-0.1,0.18-0.14,0.28-0.19c0.1-0.05,0.21-0.07,0.32-0.08c0.46-0.05,0.82,0.21,1.07,0.42c0.48,0.44,0.86,0.89,1.26,1.31
		c0.79,0.85,1.64,1.6,2.54,2.28c0.45,0.33,0.91,0.66,1.38,0.96l1.49,0.91c2.03,1.24,3.99,2.56,5.9,3.93
		c1.89,1.39,3.76,2.82,5.61,4.22c0.47,0.34,0.93,0.68,1.4,1c0.44,0.29,1,0.6,1.49,0.95c0.5,0.34,0.97,0.73,1.42,1.14
		c0.32,0.3,0.61,0.61,0.89,0.95c2.67,0.09,5.35,0.2,8.02,0.34C123.52,125.7,122.53,124.68,121.44,123.84z"/>
	<path class="st1" d="M122.79,96.87c-0.26,0.49-0.52,0.98-0.76,1.48c-1.18,2.42-1.97,5.02-2.56,7.62c-0.58,2.6-1.11,5.19-1.27,7.82
		c-0.18,2.62-0.01,5.27,0.67,7.85l0.01,0.04c1.08,0.41,2.04,1.04,2.89,1.78c1.04,0.91,1.92,1.96,2.66,3.12
		c-0.58-5.04-0.83-10.1-1.08-15.16C123.1,106.56,122.93,101.71,122.79,96.87z"/>
	<path class="st2" d="M13.68,93.98c-0.63,0.12-1.28,0.26-1.87,0.43c-0.6,0.17-1.18,0.39-1.75,0.65c-1.13,0.52-2.18,1.22-3.09,2.08
		c-1.86,1.72-3.18,4.05-4.09,6.52c-0.22,0.62-0.43,1.26-0.61,1.88c-0.17,0.62-0.25,1.27-0.29,1.92c-0.08,1.31,0.02,2.64,0.21,3.94
		c0.2,1.31,0.51,2.6,0.91,3.85c0.2,0.62,0.43,1.24,0.69,1.82c0.14,0.32,0.3,0.63,0.46,0.92c0.68-0.58,1.46-1.05,2.28-1.37
		c1.07-0.45,2.2-0.64,3.31-0.77c2.23-0.19,4.41,0,6.54,0.3c0.69,0.09,1.38,0.2,2.06,0.32l0.1,0c0.18,0.02,0.37,0.06,0.56,0.1
		c0.03,0.01,0.05,0.02,0.08,0.03c0.12,0.02,0.25,0.04,0.37,0.06c0.98,0.15,2.02,0.17,3.05,0.11c1.9-0.13,3.81-0.47,5.62-1.15
		c-0.4-0.27-0.8-0.55-1.19-0.84c-1.17-0.92-2.28-2-3.06-3.42c-0.36-0.72-0.62-1.55-0.6-2.41c0.01-0.86,0.29-1.71,0.73-2.38
		c0.27-0.42,0.59-0.79,0.93-1.13c-0.71,0.16-1.31,0.68-1.79,1.24c-0.57,0.68-1.02,1.46-1.39,2.27c-0.37,0.81-0.67,1.66-0.9,2.52
		c-0.23,0.86-0.4,1.74-0.42,2.6l-0.02,0.89l-0.59-0.67c-1-1.13-1.52-2.6-1.66-4.06c-0.07-0.74-0.05-1.49,0.12-2.23
		c0.09-0.4,0.22-0.81,0.41-1.2c-1.04,0.12-2.08,0.4-3.08,0.76c-1.31,0.49-2.57,1.13-3.76,1.88c-1.19,0.74-2.32,1.6-3.32,2.57
		c-1,0.97-1.89,2.05-2.54,3.23l-1.18,2.17l-0.08-2.46c-0.05-1.58,0.18-3.23,0.93-4.7c0.74-1.47,1.94-2.65,3.27-3.49
		c1.32-0.84,2.76-1.41,4.21-1.86c-0.82,0.06-1.63,0.12-2.45,0.2c-1.17,0.12-2.34,0.26-3.5,0.46c-1.15,0.2-2.33,0.42-3.34,0.87
		l-0.73,0.33l0.29-0.73c0.55-1.37,1.68-2.43,2.95-3.05c1.27-0.64,2.65-0.98,4.03-1.16c1.38-0.18,2.77-0.22,4.16-0.16
		c1.32,0.04,2.64,0.16,3.95,0.35c0.09-0.35,0.04-0.72-0.15-1.05c-0.21-0.38-0.53-0.71-0.88-1c-0.71-0.59-1.54-1.03-2.39-1.43
		c-0.85-0.39-1.73-0.72-2.62-1c-0.89-0.27-1.81-0.52-2.7-0.63L8.6,96.75l1.12-0.62c1.16-0.65,2.51-0.99,3.86-0.95
		c1.35,0.03,2.64,0.41,3.84,0.93c1.2,0.53,2.3,1.23,3.34,1.99c0.77,0.56,1.5,1.16,2.2,1.78c-0.02-0.25-0.08-0.51-0.17-0.77
		c-0.21-0.58-0.55-1.14-0.94-1.66c-0.79-1.05-1.79-1.99-2.89-2.7l-1.26-0.82l1.48-0.07c0.95-0.05,1.92,0.11,2.78,0.5
		c0.87,0.38,1.63,0.96,2.27,1.63c0.64,0.67,1.16,1.43,1.6,2.22c0.43,0.8,1.09,3.03,1.23,3.19c0.13,0.17,0.35,0.3,0.58,0.39
		c0.47,0.17,1.05,0.23,1.59,0.33c1.1,0.19,2.19,0.45,3.25,0.81c0.02,0.01,0.03,0.02,0.04,0.04c1.27,0.01,2.54,0.12,3.78,0.31
		c0.71,0.12,1.41,0.24,2.11,0.39c0.35,0.08,0.7,0.16,1.04,0.25l0.52,0.15l0.26,0.08l0.06,0.02c0-0.01,0-0.03,0-0.05
		c0.01-0.08,0.03-0.15,0.05-0.23c0.04-0.15,0.09-0.29,0.15-0.43c0.11-0.28,0.24-0.55,0.37-0.81c0.27-0.53,0.58-1.04,0.91-1.53
		c0.66-0.98,1.45-1.91,2.49-2.58c0.22-0.13,0.44-0.24,0.67-0.35c-0.31-0.5-0.67-0.95-1.09-1.35c-0.43-0.42-0.9-0.79-1.39-1.12
		c-0.5-0.33-1.06-0.49-1.53-0.79c-0.39-0.23-0.75-0.46-1.19-0.69c-0.93,0.46-2.74,2.74-3.82,4.42c0.61,0.12,1.21,0.27,1.8,0.49
		c1.29,0.5,2.51,1.32,3.25,2.48c0.03,0.04,0.02,0.1-0.03,0.13c-0.04,0.03-0.09,0.02-0.12-0.01c-0.91-0.96-2.09-1.57-3.34-1.85
		c-1.25-0.3-2.54-0.34-3.83-0.26c-1.28,0.09-2.57,0.31-3.81,0.63c-0.3,0.08-0.96,0.32-1,0.34c-0.11,0.05-0.25,0.07-0.37,0.07
		c-0.42,0.03-0.81-1.23-0.84-1.32c-0.18-0.56-0.44-1.14-0.74-1.69c-0.59-1.07-1.34-2.13-2.21-2.65c-1-0.55-2.22-0.93-3.43-1.17
		C18.8,93.41,16.21,93.49,13.68,93.98z"/>
	<path class="st1" d="M5.97,96.15c0.95-1.04,2.1-1.93,3.36-2.58c0.63-0.33,1.29-0.6,1.97-0.83c0.68-0.22,1.33-0.38,2.01-0.54
		c2.68-0.62,5.52-0.84,8.32-0.32c0.71,0.13,1.41,0.31,2.09,0.55c-1.05-1.18-1.82-2.6-2.47-4.04c-0.78-1.8-1.37-3.66-1.85-5.54
		c-0.96-3.77-1.5-7.61-1.82-11.45c-0.3-3.84-0.51-7.68-0.49-11.52c-0.01-3.84,0-7.68-0.5-11.47c-1.25-7.58-1.76-15.28-1.94-22.94
		c-0.19-7.65-0.22-15.29,0.12-22.94c-1.13,0.1-2.13,0.35-3.19,0.64C10.49,3.48,9.33,3.63,8.19,3.8C7.06,3.97,5.89,4.13,4.71,4.03
		C4.12,3.97,3.53,3.85,2.99,3.58c-0.49-0.22-0.86-0.6-1.23-0.95C2.19,6.2,2.44,9.78,2.66,13.36c0.11,1.82,0.19,3.63,0.27,5.45
		c0.09,1.82,0.12,3.64,0.13,5.46c0.01,3.64-0.16,7.29-0.06,10.92c0.09,3.64,0.35,7.27,0.73,10.89l0.56,5.43l0.53,5.42
		c0.21,1.8,0.39,3.6,0.67,5.36l0.38,2.73c0.12,0.92,0.18,1.85,0.26,2.77c0.16,3.71-0.05,7.43-0.74,11.06
		c-0.32,1.82-0.77,3.61-1.34,5.36c-0.27,0.88-0.61,1.74-0.97,2.59C2.7,87.63,2.58,88.45,2,89.18c0.06,0.32-0.15,0.66-0.13,0.98
		l0.1,1.22l-0.55,2.41l0.23,4.89l0.17,6.17c0.12-0.47,0.25-0.94,0.39-1.41C2.98,100.86,4.06,98.26,5.97,96.15z"/>
	<path class="st4" d="M19.3,108.2c-0.15,0.63-0.21,1.29-0.17,1.95c0.05,1.02,0.32,2.05,0.82,2.94c0.1-0.61,0.25-1.21,0.43-1.79
		c0.28-0.88,0.64-1.73,1.06-2.55c0.43-0.81,0.93-1.6,1.57-2.28c0.57-0.61,1.32-1.16,2.18-1.21c0.73-0.67,1.58-1.19,2.48-1.53
		c1.41-0.55,2.88-0.72,4.33-0.76c0.03,0,0.07,0,0.1,0c-0.96-0.22-1.94-0.37-2.92-0.49c-0.55-0.08-1.1-0.09-1.69-0.26
		c-0.29-0.09-0.58-0.24-0.81-0.49c-0.21-0.23-0.34-0.52-0.33-0.87c-0.58-1.6-1.46-3.15-2.66-4.32c-0.6-0.58-1.3-1.07-2.06-1.36
		c-0.26-0.1-0.52-0.17-0.79-0.23c0.67,0.56,1.29,1.18,1.84,1.87c0.45,0.58,0.84,1.21,1.12,1.93c0.27,0.71,0.4,1.6,0.05,2.43
		l-0.29,0.7l-0.57-0.5c-0.95-0.83-1.9-1.63-2.89-2.36c-0.99-0.73-2.04-1.38-3.13-1.9c-1.09-0.51-2.26-0.86-3.43-0.94
		c-0.74-0.05-1.47,0.04-2.18,0.24c0.49,0.14,0.96,0.3,1.44,0.46c0.91,0.33,1.8,0.7,2.66,1.14c0.86,0.44,1.69,0.95,2.44,1.59
		c0.37,0.33,0.72,0.7,0.96,1.16c0.25,0.45,0.32,1.07,0.09,1.56l-0.07,0.15l-0.15-0.02c-2.7-0.43-5.47-0.58-8.17-0.19
		c-1.34,0.2-2.68,0.53-3.85,1.18c-0.93,0.5-1.73,1.23-2.24,2.12c0.89-0.33,1.8-0.53,2.71-0.73c1.17-0.24,2.35-0.44,3.54-0.6
		c1.18-0.17,2.37-0.29,3.57-0.38c0.6-0.04,1.2-0.08,1.8-0.1c0.3-0.01,0.61-0.01,0.92,0c0.31,0.01,0.61,0.02,0.99,0.09l2.44,0.49
		l-2.45,0.58c-1.46,0.35-2.91,0.67-4.3,1.12c-1.39,0.45-2.74,1.01-3.93,1.8c-1.18,0.78-2.18,1.8-2.78,3.04
		c-0.26,0.52-0.44,1.07-0.57,1.64c0.42-0.5,0.87-0.98,1.35-1.43c1.09-1.03,2.29-1.92,3.56-2.69c1.28-0.76,2.62-1.4,4.04-1.88
		c1.41-0.47,2.9-0.8,4.44-0.77l1.17,0.03l-0.82,0.83C19.72,106.98,19.45,107.57,19.3,108.2z"/>
	<path class="st1" d="M59.23,124.19c-2.78-0.38-5.64-0.34-8.48-0.2c-0.71,0.04-1.42,0.07-2.15,0.06c-0.73,0.03-1.45-0.06-2.17-0.12
		c-0.72-0.09-1.43-0.22-2.14-0.36c-0.7-0.18-1.41-0.33-2.1-0.56c-2.78-0.82-5.41-2.1-7.91-3.54c-0.29-0.17-0.57-0.35-0.86-0.52
		c-0.01,0.1-0.01,0.2-0.02,0.29c-0.04,0.34-0.07,0.66-0.06,0.85c0.02,0.2,0.04,0.3,0.11,0.54c0.16,0.48,0.61,1.16,1.18,1.53
		c0.58,0.4,1.26,0.6,1.98,0.77c0.72,0.16,1.39,0.42,2.05,0.71c0.66,0.28,1.32,0.57,1.92,0.95c0.75,0.49,1.46,1.04,2.12,1.68
		l21.33-0.18c0.3,0,0.61-0.01,0.91-0.01c-0.52-0.34-1.09-0.64-1.68-0.88C61.98,124.69,60.61,124.38,59.23,124.19z"/>
	<path class="st5" d="M20.59,123.67c-0.35-0.57-0.61-1.18-0.75-1.77c-0.29-1.18-0.34-2.34-0.59-3.24c-0.15-0.45-0.3-0.7-0.58-0.8
		c-0.04-0.01-0.07-0.02-0.11-0.03l-0.52-0.05c-0.17,0-0.33,0.03-0.49,0.11c-0.74,0.34-1.34,1.31-1.77,2.26
		c-0.46,0.97-0.81,2.01-1.13,3.06c-0.31,0.93-0.76,2.38-1.22,3.43l2.6-0.05l8.77-0.12c-0.98-0.31-1.95-0.74-2.85-1.4
		C21.45,124.69,20.98,124.24,20.59,123.67z"/>
	<path class="st5" d="M14.08,123.07c0.21-1.09,0.45-2.19,0.82-3.28c0.2-0.54,0.42-1.08,0.74-1.6c0.13-0.2,0.27-0.4,0.43-0.59
		c-2.05-0.16-4.1-0.29-6.07-0.07c-2.01,0.19-3.94,0.75-5.39,2.04l-0.63,0.56l-0.42-0.64c-0.44-0.67-0.67-1.33-0.9-1.99
		c-0.18-0.56-0.32-1.11-0.45-1.67c-0.02,0.32-0.04,0.65-0.07,0.97c-0.05,0.54-0.1,1.08-0.15,1.62c-0.04,0.66-0.09,1.33-0.13,1.99
		c-0.03,1.07,0.13,2.11,0.07,3.12c-0.04,1.08-0.05,2.12-0.06,3.36c0.72-0.03,1.43-0.05,2.14-0.07l4-0.1l5.16-0.09
		c0.21-0.57,0.51-1.49,0.59-1.93L14.08,123.07z"/>
	<path class="st5" d="M36.08,123.93c-0.54-0.48-1.12-0.95-1.75-1.28c-0.32-0.18-0.66-0.3-1.02-0.46c-0.36-0.16-0.74-0.32-1.09-0.67
		c-0.35-0.32-0.6-0.92-0.56-1.44c0.01-0.52,0.17-0.9,0.3-1.24c0.09-0.22,0.2-0.42,0.3-0.62c-0.55-0.35-1.1-0.71-1.63-1.08
		c-0.6-0.41-1.12-0.71-1.78-1.11c-0.13-0.08-0.26-0.17-0.38-0.25c-1.75,1.04-3.74,1.64-5.77,1.97c-0.7,0.11-1.42,0.17-2.14,0.18
		l0.1,0.2c0.24,0.61,0.37,1.17,0.51,1.71c0.14,0.54,0.28,1.04,0.45,1.51c0.16,0.47,0.38,0.87,0.61,1.24
		c0.24,0.34,0.54,0.7,0.91,1.02c1.25,1.12,2.88,1.98,4.58,2.81l4.32-0.06l7.51-0.06c-0.61-0.3-1.18-0.69-1.75-1.07
		C37.2,124.84,36.62,124.43,36.08,123.93z"/>
	<path class="st6" d="M124.48,91.39c-0.03-3.71-0.08-7.42-0.14-11.13c-0.13-5.18-0.19-10.35-0.22-15.54
		c-0.03-10.37,0.07-20.75,0.18-31.12c0,0,0.35-31.14,0.35-31.14c0-0.04,0.01-0.06-0.01-0.08c-0.5-0.35-1.13-0.4-1.66-0.36
		c-0.55,0.03-1.02,0.26-1.53,0.39c-0.51,0.14-1,0.26-1.49,0.3c-0.48,0.06-0.93-0.01-1.37-0.29c0,0-0.03-0.02-0.04-0.02
		c-0.01,0-0.01-0.01-0.02-0.01c-0.02-0.01-0.05-0.01-0.06,0.01c-0.02,0.02-0.56,6.03-0.7,9c-0.12,2.97-0.2,5.95-0.11,8.93
		c0.1,2.98,0.39,5.95,0.42,8.93c0.04,2.98-0.07,5.95-0.27,8.92c-0.2,2.97-0.36,5.95-0.43,8.92c-0.1,2.97-0.17,5.95-0.17,8.93
		c0.05,5.87,0.22,11.75,0.77,17.63c-0.41,0.52-0.82,1.04-1.21,1.61c-1.11,1.75-2.05,3.53-2.87,5.42c-1.23,2.85-2.06,5.85-2.63,8.88
		c-0.06-0.84-0.16-1.68-0.28-2.51c-0.19-1.14-0.4-2.28-0.7-3.39c-0.28-1.12-0.62-2.23-1.04-3.31c-0.85-2.16-2.03-4.17-3.31-6.08
		c-1.27-1.92-2.6-3.78-4.08-5.54l-0.21-0.25l-0.28,0.2c-0.05,0.04-0.12,0.12-0.14,0.23c-0.03,0.09,0.01,0.22,0.01,0.19l0.01,0.02
		l0.01,0.04l0.02,0.07l0.04,0.13l0.07,0.25l0.14,0.51l0.27,1.02c0.17,0.68,0.34,1.37,0.49,2.05l0.91,4.11
		c0.61,2.74,1.07,5.5,1.51,8.25c0.33,2.13,0.63,4.27,0.88,6.42c-0.19-0.88-0.43-1.74-0.72-2.59c-0.57-1.7-1.26-3.38-2.18-4.95
		c-0.9-1.57-2.02-3.04-3.3-4.36c-0.32-0.33-0.66-0.64-1.02-0.94l-1.07-0.84l-2.09-1.63l-2.96-2.31l2.28,2.92
		c1.61,2.07,2.88,4.43,3.71,6.93c0.84,2.51,1.18,5.14,1.54,7.74l0.52,3.91l0.16,1.38c-0.16-0.41-0.32-0.82-0.5-1.22
		c-0.83-1.83-1.95-3.53-3.23-5.07c-0.64-0.78-1.33-1.5-2.06-2.19c-0.38-0.32-0.74-0.67-1.14-0.97l-1.2-0.89l-3.82-2.82l3.01,3.57
		c1.16,1.37,2.15,2.89,2.9,4.53c0.75,1.64,1.16,3.42,1.59,5.15c0.44,1.73,0.97,3.42,1.4,5.15c0.16,0.6,0.3,1.2,0.44,1.81L95,101.19
		c-0.89-0.99-1.64-2.22-2.31-3.49c-1.36-2.54-2.47-5.26-3.49-8.02c-2.02-5.52-3.71-11.19-5.34-16.88c-1.6-5.7-3.04-11.45-4.08-17.28
		c-0.27-1.45-0.49-2.92-0.7-4.38c-0.2-1.46-0.31-2.93-0.43-4.41c-0.22-2.95-0.38-5.91-0.55-8.87c-0.36-5.91-0.86-11.82-1.38-17.72
		c-0.52-5.9-1.12-11.8-1.84-17.7c-0.01-0.05-0.05-0.08-0.09-0.08c-0.03,0-2.76-0.37-4.06-0.19c-1.34,0.18-2.61,0.56-3.91,0.83
		c-1.3,0.27-2.59,0.52-3.9,0.53c-0.65,0.01-1.3-0.03-1.92-0.21c-0.63-0.17-1.16-0.54-1.74-0.91c-0.01-0.01-0.04-0.03-0.07-0.04
		c-0.05,0-0.1,0.03-0.1,0.09c-0.3,3.29-0.38,6.57-0.42,9.86c-0.01,1.64,0,3.28,0.03,4.93c0.02,1.64,0.09,3.28,0.2,4.92
		c0.22,3.28,0.66,6.55,0.85,9.82c0.2,3.28,0.28,6.56,0.3,9.85c0.04,3.29,0.1,6.58,0.42,9.88c0.14,1.64,0.37,3.33,0.55,4.91
		c0.19,1.6,0.32,3.21,0.42,4.82c0.21,3.22,0.17,6.46-0.02,9.7c-0.11,1.62-0.26,3.23-0.49,4.84c-0.24,1.49-1.33,4.51-2.03,6.09
		c-0.59-0.45-1.21-0.88-1.88-1.23c-0.89-0.48-1.84-0.87-2.82-1.15c-0.99-0.28-1.96-0.46-2.97-0.61c-2-0.24-4.06-0.24-6.1,0.08
		c-1.02,0.16-2.03,0.42-3.01,0.8c-0.49,0.19-0.98,0.4-1.44,0.67c-0.24,0.12-0.46,0.28-0.69,0.42c-0.23,0.17-0.49,0.34-0.7,0.54
		c-0.87,0.79-1.46,1.77-1.86,2.76c-0.31,0.76-0.52,1.53-0.66,2.32c-0.22-0.01-0.44-0.02-0.66-0.03c-0.14-3.35-0.11-6.7-0.13-10.05
		c-0.02-3.53-0.03-7.06-0.07-10.59c-0.03-3.53-0.09-7.06-0.22-10.6c-0.12-3.52-0.25-7.04-0.34-10.58
		c-0.17-7.06-0.26-14.13-0.36-21.19l-0.33-21.2c0-0.04-0.06-0.1-0.06-0.1c-0.3-0.33-1.21-0.1-1.52,0c-0.32,0.11-1.15,0.14-1.46,0.18
		c-0.31,0.06-0.58,0.03-0.89-0.18c-0.02-0.01-0.04-0.01-0.05,0c-0.01,0.01-0.05,0.07-0.06,0.1c-0.33,3.59-0.45,7.18-0.52,10.77
		c-0.05,3.59-0.1,7.18,0.12,10.76c0.21,3.59,0.51,7.17,0.52,10.76c0.04,3.59-0.14,7.18-0.32,10.76l-0.88,21.47l-0.44,10.74
		l-0.25,5.37c-0.08,1.64-0.18,3.29-0.33,4.92c-0.78,0.4-1.51,0.88-2.13,1.49c-0.48,0.46-0.89,0.97-1.25,1.51
		c-0.34,0.51-0.59,1.07-0.81,1.63c-0.94-1.42-1.53-3.02-2.02-4.64c-0.54-1.8-0.93-3.65-1.26-5.51c-0.65-3.73-1.09-7.5-1.54-11.28
		c-0.46-3.78-0.77-7.59-1.24-11.4c-0.47-3.81-0.8-7.63-1.01-11.47c-0.11-1.94-0.32-3.81-0.38-5.73c-0.08-1.91-0.13-3.82-0.18-5.73
		c-0.1-3.82-0.24-7.65-0.42-11.47c-0.34-7.65-0.7-15.3-1.32-22.96c0-0.05-0.04-0.08-0.09-0.09c-0.02,0-2.39-0.37-3.5-0.18
		c-1.15,0.17-2.21,0.58-3.32,0.83c-1.11,0.27-2.2,0.51-3.31,0.52c-0.55,0-1.11-0.04-1.62-0.23C2.61,3.14,1.71,2.38,1.66,2.38
		c-0.05,0-0.1,0.03-0.1,0.09C1.28,6.11,1.22,9.76,1.21,13.4c0,3.64,0.05,7.28,0.29,10.92c0.24,3.64,0.68,7.26,0.89,10.9
		c0.22,3.63,0.28,7.27,0.31,10.92c0,3.65,0.11,7.29,0.35,10.94c0.14,1.83,0.25,3.65,0.5,5.49c0.1,0.94,0.22,1.8,0.34,2.68
		c0.12,0.88,0.16,1.77,0.25,2.66c0.24,3.56,0.17,7.15-0.21,10.72c-0.18,1.79-0.45,3.57-0.81,5.33c-0.36,1.68-1.62,4.98-1.62,4.98
		c0.07,0.4,0.08,0.8,0.07,1.21l0,1.22l-0.75,2.41l-0.17,4.89l-0.34,9.78c-0.13,3.26-0.38,6.52-0.29,9.78c0.05,1,0.09,2.01,0.14,3.01
		c-0.14,0.79-0.23,1.61-0.08,2.43c0.07,0.42,0.19,0.85,0.34,1.26c0.06,0.68,0.15,1.36,0.24,2.04c0.02,0.12,0.04,0.21,0.04,0.21
		c0.21-0.01,2.36-0.06,3.33-0.06l4,0l8,0.06l16,0.17l31.99,0.34c0.92,0.01,1.84,0.03,2.76,0.04c0,0,19.64,0.34,29.23,0.25
		c10.66-0.15,17.99-0.25,28.66-0.78c0,0-0.01-0.14-0.02-0.36c-0.23-10.33-0.04-20.68-0.12-31.02c0-0.59-0.01-1.18-0.01-1.78
		c0.58-0.86,1.18-1.71,1.81-2.53l1.68-2.16l0,0l0,0l-2.44,1.38C125.19,90.94,124.84,91.16,124.48,91.39z M119.2,56.02
		c0.04-2.97,0-5.95-0.06-8.93c-0.03-2.98-0.15-5.95-0.32-8.93c-0.16-2.98-0.23-5.95-0.15-8.93c0.07-2.97,0.4-5.95,0.53-8.92
		c0.13-2.97,0.09-5.95,0-8.93c-0.1-2.92-0.23-5.84-0.56-8.77c0.14,0.13,0.29,0.25,0.47,0.33c0.26,0.12,0.54,0.19,0.82,0.23
		c0.56,0.07,1.11,0.03,1.64-0.01c0.53-0.04,1.09-0.03,1.57-0.19c0.44-0.14,0.83-0.29,1.3-0.46c-0.41,10.34-0.8,20.69-1.14,31.04
		c-0.32,10.37-0.59,20.75-0.81,31.13c-0.1,5.19-0.19,10.39-0.1,15.59c0.08,4.14,0.17,8.27,0.28,12.41c-0.2,0.16-0.39,0.32-0.59,0.49
		c-1,0.89-1.91,1.89-2.74,2.95c0.11-0.45,0.21-0.9,0.3-1.36c0.38-1.89,0.24-3.82,0.17-5.72c-0.08-1.9-0.25-3.78-0.46-5.65
		c-0.23-1.84-0.48-3.66-0.61-5.5c0.09-0.43,0.19-0.86,0.29-1.28c0.25-1.01,0.49-2.03,0.76-3.04l0.43-1.51
		c0.09-0.27,0.17-0.58,0.23-0.86c0.06-0.28,0.11-0.53,0.18-0.77c-0.05,0.04-0.13,0.08-0.2,0.15c-0.07,0.08-0.11,0.14-0.15,0.18
		l-0.23,0.29l-0.48,0.58l-0.96,1.17c-0.13,0.16-0.26,0.33-0.39,0.49C118.83,67.55,119.08,61.79,119.2,56.02z M118.03,121.38
		c-0.24-0.03-0.49-0.08-0.72-0.12c-0.32-0.06-0.65-0.13-0.97-0.2c-0.22-0.07-0.44-0.15-0.65-0.25c-0.35-0.16-0.69-0.35-1.02-0.55
		c0.24-3.19,0.41-6.39,0.58-9.57c0.5-2.11,1.09-4.18,1.84-6.18c0.93-2.5,2.07-4.92,3.57-7.11c0.63-0.91,1.33-1.76,2.08-2.58
		c0.01,0.29,0.01,0.57,0.02,0.86c-0.42,0.8-0.84,1.61-1.25,2.42c-1.21,2.44-2.45,4.88-3.4,7.48c-0.95,2.59-1.44,5.37-1.49,8.16
		C116.59,116.33,117.01,118.98,118.03,121.38z M115.76,102.39c0.02-0.31,0.04-0.63,0.06-0.95l0.49-6.25
		c0.36-4.16,0.83-8.31,1.53-12.42c0.19-1.18,0.41-2.35,0.64-3.52c-0.05,1.41-0.02,2.81-0.04,4.21c0.02,1.87,0,3.74-0.1,5.59
		c-0.09,1.85-0.44,3.67-0.53,5.5c-0.08,1.38-0.18,2.76-0.22,4.18C116.88,99.9,116.27,101.13,115.76,102.39z M112.36,92.74
		c0.38-1.97,0.73-3.93,1.16-5.87c0.45-1.93,0.96-3.84,1.63-5.71c0.66-1.86,1.42-3.74,2.25-5.52c0.48-0.85,1.06-1.68,1.62-2.52
		l0.85-1.25l0.08-0.13c-0.03,0.06-0.06,0.13-0.09,0.2l-0.61,1.46c-0.38,0.98-0.77,1.97-1.09,2.98c-0.66,2.01-1.24,4.05-1.74,6.11
		c-0.98,4.12-1.63,8.32-2.08,12.52c-0.24,2.1-0.37,4.21-0.51,6.31c-0.11,2.11-0.18,4.21-0.24,6.32c-0.04,1.27-0.05,2.54-0.07,3.81
		c-0.02,0.2-0.06,0.39-0.08,0.59c-0.15,1.39-0.23,2.78-0.24,4.17c-0.02,0.69,0.01,1.39,0.03,2.08l0.03,0.79
		c-0.3-0.29-0.6-0.62-0.89-0.95c-0.31-0.35-0.63-0.71-0.98-1.06c-0.18-0.18-0.36-0.35-0.58-0.52c-0.12-0.08-0.23-0.17-0.4-0.24
		c-0.03-0.01-0.06-0.02-0.1-0.04l-0.02-0.21c0.04-0.58,0.12-1.17,0.17-1.77c0.07-0.85,0.11-1.73,0.1-2.61
		c-0.01-0.93-0.08-1.88-0.23-2.81c0.05-1.41,0.13-2.82,0.25-4.23C110.94,100.64,111.6,96.67,112.36,92.74z M104.8,76.87
		c-0.39-1.37-0.83-2.73-1.33-4.06l-0.76-2l-0.05-0.13c1.02,1.21,1.91,2.53,2.61,3.95c1.02,2.01,1.7,4.16,2.41,6.27
		c0.71,2.11,1.39,4.24,1.92,6.42c0.45,1.75,0.83,3.52,1.16,5.32c-0.53,3.98-0.69,7.99-0.84,11.97l-0.1,2.21
		c-0.04-0.13-0.08-0.26-0.13-0.4c-0.61-1.69-1.51-3.27-2.63-4.63c-0.14-0.18-0.3-0.34-0.45-0.51c0.47-2.47,0.69-4.99,0.7-7.51
		c0.02-2.86-0.2-5.72-0.64-8.55C106.25,82.39,105.56,79.61,104.8,76.87z M107.47,106.05c0.12,0.33,0.24,0.66,0.34,0.99
		c0.46,1.53,0.8,3.1,0.94,4.73c0.12,1.25,0.09,2.52,0.21,3.86c-0.64-0.6-1.27-1.2-1.89-1.81c0.24-1.09,0.47-2.18,0.62-3.3
		C107.86,109.06,107.85,107.5,107.47,106.05z M98.85,83.95c-0.59-1.45-1.24-2.87-1.94-4.27c0.45,0.48,0.88,0.96,1.25,1.45
		c1.06,1.32,1.93,2.79,2.79,4.27c0.84,1.49,1.68,3,2.48,4.55c0.79,1.53,1.6,3.15,2.35,4.69l0.06,0.01c0.18,2.04,0.3,4.1,0.36,6.17
		c-0.3-0.32-0.62-0.63-0.95-0.92c-0.32-0.3-0.66-0.57-1-0.84c-0.15-0.12-0.38-0.3-0.61-0.44c-0.24-0.13-0.43-0.21-0.57-0.32
		c0.1,0.26,0.14,0.59,0.23,1.02c0.09,0.42,0.27,0.9,0.37,1.2c0.23,0.69,0.49,1.36,0.73,2.03l1.52,3.95c0.5,1.28,1.04,2.58,1.08,3.99
		c0.02,0.95-0.17,1.89-0.48,2.8c-1.48-1.46-2.93-2.97-4.37-4.48c0.14-2.72,0.12-6.71,0.05-9.16c-0.04-1.34-0.12-2.68-0.26-4.02
		c-0.12-1.34-0.3-2.68-0.59-4C100.8,88.99,99.86,86.44,98.85,83.95z M97.47,96.81c-0.73-1.7-1.69-3.29-2.52-4.91
		c-0.17-0.34-0.34-0.68-0.51-1.02c0.3,0.38,0.6,0.76,0.88,1.15c1.1,1.52,2.01,3.15,2.85,4.82c0.84,1.67,1.55,3.42,2.14,5.22
		c0.48,1.44,0.9,4.12,1.27,6.12c-0.84-0.89-1.69-1.78-2.52-2.67c0.03-1.12-0.05-2.24-0.19-3.35C98.6,100.33,98.19,98.51,97.47,96.81
		z M30.5,77.84c0.41-3.57,0.76-7.16,0.98-10.75c0.48-7.17,0.54-14.39,0.21-21.57c-0.17-3.59-0.38-7.18-0.37-10.77
		c-0.02-3.59,0.23-7.18,0.37-10.77c0.15-3.59,0.04-7.18-0.09-10.77c-0.15-3.53-0.35-7.05-0.76-10.58c1.2,0.34,3.35,0.07,3.64-0.11
		l-0.46,21.13c-0.11,7.07-0.2,14.13-0.26,21.2c-0.02,3.53-0.08,7.08,0,10.62c0.08,3.53,0.2,7.06,0.38,10.59
		c0.16,3.53,0.36,7.06,0.62,10.59c0.26,3.33,0.55,6.68,1.1,9.99c-0.73-0.02-1.47-0.02-2.19,0.03c-1.31,0.1-2.62,0.33-3.88,0.78
		c-0.32,0.12-0.64,0.25-0.95,0.4C29.63,84.56,30.09,81.19,30.5,77.84z M26.84,90.04c0.98-0.73,2.09-1.22,3.26-1.52
		c1.17-0.31,2.39-0.42,3.6-0.42c1.23-0.01,2.41,0.13,3.69,0.3l0.75,0.1l0.14-0.82c0.31-1.76,1.07-3.57,2.27-4.61
		c0.15-0.14,0.31-0.23,0.47-0.35c0.19-0.11,0.38-0.22,0.58-0.32c0.4-0.2,0.81-0.38,1.23-0.55c0.85-0.33,1.74-0.58,2.64-0.78
		c1.82-0.39,3.72-0.5,5.62-0.44c0.94,0.04,1.93,0.07,2.85,0.19c0.93,0.13,1.86,0.34,2.74,0.71c1.77,0.71,3.3,2,4.37,3.58
		c1.09,1.59,1.72,3.43,2.33,5.24c0.6,1.76,0.95,3.6,1.12,5.49c0.08,0.94,0.11,1.89,0.08,2.84c-0.03,0.45-0.06,0.89-0.13,1.34
		c-0.79-0.58-1.63-1.11-2.53-1.5c-0.28-0.15-0.58-0.24-0.88-0.35c-0.3-0.1-0.59-0.22-0.89-0.3c-0.58-0.16-1.16-0.34-1.75-0.46
		c-0.53-0.12-1.06-0.23-1.6-0.32c-0.29-0.7-0.68-1.37-1.18-1.96c-0.67-0.81-1.53-1.45-2.46-1.92c-0.68-0.35-1.39-0.61-2.12-0.82
		c0.82,0,1.64,0.01,2.46,0.02c1.06,0.02,2.11,0.07,3.16,0.15c1.03,0.09,2.11,0.17,3.03,0.44l1.07,0.32l-0.51-0.95
		c-0.65-1.22-1.83-2.02-3.04-2.42c-1.21-0.42-2.48-0.54-3.72-0.57c-1.24-0.02-2.48,0.06-3.7,0.21c-1.17,0.15-2.32,0.34-3.47,0.6
		c-0.22-0.62,0.29-1.31,0.85-1.79c0.61-0.53,1.33-0.97,2.06-1.35c0.73-0.39,1.5-0.72,2.27-1.02c0.77-0.29,1.58-0.56,2.35-0.7
		l1.42-0.27l-1.35-0.58c-1.1-0.48-2.34-0.65-3.54-0.52c-1.2,0.13-2.34,0.52-3.39,1.06c-1.68,0.87-3.15,2.06-4.5,3.3
		c0.02-0.06,0.03-0.13,0.05-0.19c0.15-0.48,0.42-0.96,0.74-1.42c0.64-0.91,1.47-1.74,2.37-2.39l1.77-1.3l-2.17,0.09
		c-0.86,0.04-1.73,0.23-2.5,0.62c-0.78,0.38-1.46,0.93-2.02,1.56c-0.56,0.63-1.01,1.33-1.37,2.07c-0.36,0.74-0.84,2.58-0.84,2.58
		c-0.01-0.05,0.01,0.05-0.01,0.08c-0.01,0.04-0.03,0.09-0.07,0.14c-0.08,0.1-0.23,0.2-0.41,0.28c-0.35,0.15-0.88,0.25-1.36,0.38
		c-0.96,0.25-1.93,0.55-2.86,0.93c-1.23,0.24-2.45,0.5-3.66,0.85c-0.61,0.17-1.22,0.36-1.82,0.56c-0.52,0.18-1.33,0.51-1.9,0.81
		c-0.24-0.22-0.48-0.43-0.77-0.62c-0.4-0.24-0.8-0.43-1.2-0.61C25.11,91.69,25.89,90.74,26.84,90.04z M46.7,96.02
		c-0.06-0.19-0.15-0.37-0.24-0.55c0.59,0.03,1.17,0.06,1.75,0.05c0.88-0.03,1.76-0.01,2.63,0.11c1.49,0.2,2.98,0.58,4.35,1.26
		c-1.32-0.14-2.65-0.19-3.97-0.12c-1.2,0.06-2.4,0.22-3.58,0.5c-0.28,0.07-0.55,0.14-0.82,0.22C46.89,97.01,46.85,96.5,46.7,96.02z
		 M51.01,94.74c-0.9-0.22-1.82-0.4-2.75-0.5c-0.93-0.08-1.87,0.03-2.78,0.27l-1.06,0.27l0.82,0.54c0.71,0.46,1.22,1.26,1.43,2.22
		c-0.54,0.16-1.07,0.35-1.59,0.58c-0.15-0.59-0.42-1.14-0.74-1.67c-0.35-0.55-0.77-1.06-1.26-1.51c-0.48-0.45-0.97-0.96-1.65-1.15
		c-0.41-0.12-0.87-0.19-1.31-0.13c-0.07-0.08-0.18-0.12-0.29-0.1c-1.2,0.23-3.32,3.09-4.3,4.56c-0.06-0.21-0.08-0.47-0.06-0.76
		c0.07-0.92,0.63-2.3,1.97-3.39c0.32-0.26,0.43-0.52,0.32-0.76c-0.23-0.5-1.11-0.78-9.68,0.81c-0.46,0.09-1.04,0.29-1.21,0.35
		c-0.08-0.09-0.18-0.18-0.27-0.26c0.58-0.24,1.37-0.5,1.87-0.63c0.61-0.15,1.22-0.29,1.83-0.4c1.23-0.22,2.47-0.43,3.71-0.59l0.03,0
		l0.05-0.02c0.92-0.31,1.87-0.54,2.83-0.73c0.49-0.11,0.95-0.16,1.53-0.36c0.28-0.11,0.57-0.26,0.82-0.54
		c0.2-0.25,0.81-2.3,1.15-2.93c0.35-0.65,0.77-1.25,1.25-1.77c0.35-0.36,0.73-0.69,1.15-0.95c-0.21,0.25-0.4,0.5-0.59,0.77
		c-0.37,0.53-0.7,1.11-0.91,1.78c-0.1,0.34-0.17,0.7-0.17,1.09c0.01,0.39,0.1,0.81,0.3,1.18l0.42,0.75l0.6-0.59
		c0.8-0.79,1.59-1.56,2.43-2.26c0.84-0.7,1.73-1.34,2.67-1.85c0.94-0.51,1.94-0.9,2.98-1.05c0.53-0.08,1.07-0.09,1.6-0.02
		c-0.3,0.12-0.6,0.24-0.9,0.37c-0.78,0.35-1.55,0.74-2.29,1.17c-0.74,0.44-1.46,0.92-2.09,1.53c-0.31,0.31-0.61,0.64-0.82,1.07
		c-0.21,0.41-0.26,0.98,0,1.41l0.08,0.14l0.15-0.03c2.37-0.56,4.81-0.91,7.24-0.77c1.21,0.07,2.41,0.29,3.49,0.74
		c0.7,0.29,1.33,0.7,1.82,1.23c-0.68-0.15-1.35-0.24-2.03-0.32c-1.08-0.12-2.15-0.18-3.22-0.21c-1.07-0.04-2.15-0.02-3.22,0.01
		c-0.54,0.02-1.08,0.05-1.62,0.09c-0.56,0.06-1.06,0.08-1.69,0.26l-2.55,0.71l2.64,0.28c1.99,0.21,3.97,0.45,5.77,1.21
		c0.89,0.38,1.73,0.9,2.43,1.58c0.48,0.47,0.88,1.01,1.22,1.6c-0.28-0.04-0.55-0.08-0.83-0.12C54.35,95.87,52.7,95.16,51.01,94.74z
		 M35.02,98.53c-0.46-0.05-0.93-0.09-1.39-0.11c-1.38-0.04-2.76,0.08-4.12,0.34c-0.09,0.02-0.19,0.04-0.28,0.06
		c-0.19-0.69-0.44-1.32-0.73-1.95c-0.35-0.71-0.74-1.41-1.25-2.06c0.11-0.01,0.34-0.06,0.95-0.17c6.12-1.14,8.25-1.29,8.87-1.17
		c-0.01,0-0.01,0.01-0.02,0.02c-1.27,1.03-2.1,2.46-2.2,3.83C34.8,97.78,34.87,98.19,35.02,98.53z M24.69,95.03
		c0.86,0.52,1.62,1.57,2.21,2.65c0.29,0.54,0.55,1.13,0.74,1.69c0.03,0.08,0.42,1.35,0.84,1.32c0.13,0.01,0.26-0.02,0.37-0.07
		c0.04-0.02,0.7-0.26,1-0.34c1.24-0.32,2.52-0.54,3.81-0.63c1.28-0.08,2.58-0.04,3.83,0.26c1.25,0.28,2.43,0.89,3.34,1.85
		c0.03,0.03,0.08,0.04,0.12,0.01c0.04-0.03,0.06-0.09,0.03-0.13c-0.74-1.16-1.96-1.98-3.25-2.48c-0.58-0.22-1.19-0.38-1.8-0.49
		c1.09-1.68,2.89-3.96,3.82-4.42c0.44,0.23,0.8,0.45,1.19,0.69c0.46,0.3,1.03,0.47,1.53,0.79c0.49,0.32,0.96,0.7,1.39,1.12
		c0.42,0.39,0.78,0.85,1.09,1.35c-0.23,0.11-0.45,0.22-0.67,0.35c-1.03,0.67-1.82,1.6-2.49,2.58c-0.34,0.49-0.64,1-0.91,1.53
		c-0.13,0.27-0.26,0.53-0.37,0.81c-0.06,0.14-0.11,0.28-0.15,0.43c-0.02,0.07-0.04,0.15-0.05,0.23c0,0.02,0,0.03,0,0.05l-0.06-0.02
		l-0.26-0.08l-0.52-0.15c-0.35-0.09-0.69-0.17-1.04-0.25c-0.7-0.15-1.41-0.27-2.11-0.39c-1.25-0.19-2.51-0.3-3.78-0.31
		c-0.01-0.02-0.02-0.04-0.04-0.04c-1.06-0.36-2.15-0.62-3.25-0.81c-0.54-0.11-1.12-0.17-1.59-0.33c-0.23-0.09-0.45-0.22-0.58-0.39
		c-0.14-0.16-0.79-2.39-1.23-3.19c-0.44-0.79-0.96-1.55-1.6-2.22c-0.64-0.67-1.39-1.25-2.27-1.63c-0.87-0.39-1.84-0.55-2.78-0.5
		l-1.48,0.07l1.26,0.82c1.1,0.71,2.1,1.66,2.89,2.7c0.39,0.53,0.73,1.08,0.94,1.66c0.1,0.26,0.15,0.52,0.17,0.77
		c-0.71-0.62-1.43-1.22-2.2-1.78c-1.04-0.75-2.14-1.46-3.34-1.99c-1.2-0.53-2.49-0.91-3.84-0.93c-1.34-0.04-2.7,0.3-3.86,0.95
		L8.6,96.75l1.26,0.15c0.89,0.11,1.81,0.36,2.7,0.63c0.89,0.28,1.77,0.61,2.62,1c0.85,0.4,1.68,0.84,2.39,1.43
		c0.35,0.29,0.67,0.62,0.88,1c0.18,0.33,0.24,0.7,0.15,1.05c-1.31-0.19-2.63-0.31-3.95-0.35c-1.38-0.05-2.77-0.02-4.16,0.16
		c-1.38,0.18-2.76,0.52-4.03,1.16c-1.26,0.63-2.4,1.68-2.95,3.05l-0.29,0.73l0.73-0.33c1.01-0.45,2.19-0.67,3.34-0.87
		c1.16-0.19,2.33-0.34,3.5-0.46c0.82-0.08,1.63-0.15,2.45-0.2c-1.45,0.45-2.88,1.01-4.21,1.86c-1.33,0.85-2.53,2.02-3.27,3.49
		c-0.75,1.46-0.98,3.12-0.93,4.7l0.08,2.46l1.18-2.17c0.64-1.19,1.54-2.27,2.54-3.23c1-0.97,2.13-1.83,3.32-2.57
		c1.19-0.75,2.45-1.4,3.76-1.88c1-0.37,2.04-0.65,3.08-0.76c-0.19,0.39-0.32,0.79-0.41,1.2c-0.16,0.74-0.18,1.5-0.12,2.23
		c0.14,1.47,0.66,2.93,1.66,4.06l0.59,0.67l0.02-0.89c0.02-0.86,0.19-1.74,0.42-2.6c0.23-0.86,0.53-1.71,0.9-2.52
		c0.37-0.81,0.82-1.6,1.39-2.27c0.47-0.56,1.07-1.08,1.79-1.24c-0.34,0.34-0.66,0.71-0.93,1.13c-0.45,0.67-0.73,1.52-0.73,2.38
		c-0.02,0.86,0.25,1.69,0.6,2.41c0.77,1.43,1.88,2.51,3.06,3.42c0.39,0.3,0.79,0.57,1.19,0.84c-1.81,0.68-3.72,1.02-5.62,1.15
		c-1.03,0.06-2.07,0.04-3.05-0.11c-0.12-0.02-0.25-0.04-0.37-0.06c-0.03-0.01-0.05-0.02-0.08-0.03c-0.19-0.04-0.38-0.08-0.56-0.1
		l-0.1,0c-0.68-0.12-1.37-0.23-2.06-0.32c-2.13-0.3-4.31-0.49-6.54-0.3c-1.11,0.13-2.24,0.32-3.31,0.77
		c-0.82,0.33-1.6,0.79-2.28,1.37c-0.17-0.29-0.32-0.6-0.46-0.92c-0.26-0.59-0.49-1.2-0.69-1.82c-0.4-1.25-0.71-2.54-0.91-3.85
		c-0.19-1.31-0.29-2.63-0.21-3.94c0.04-0.65,0.12-1.3,0.29-1.92c0.18-0.63,0.39-1.26,0.61-1.88c0.91-2.47,2.23-4.81,4.09-6.52
		c0.92-0.86,1.97-1.56,3.09-2.08c0.57-0.26,1.15-0.47,1.75-0.65c0.59-0.17,1.24-0.3,1.87-0.43c2.53-0.49,5.12-0.57,7.58-0.12
		C22.47,94.09,23.69,94.48,24.69,95.03z M19.76,105.72c-1.54-0.04-3.02,0.29-4.44,0.77c-1.41,0.48-2.76,1.12-4.04,1.88
		c-1.27,0.77-2.47,1.66-3.56,2.69c-0.47,0.45-0.93,0.92-1.35,1.43c0.13-0.57,0.31-1.12,0.57-1.64c0.6-1.24,1.59-2.26,2.78-3.04
		c1.18-0.78,2.53-1.35,3.93-1.8c1.4-0.45,2.84-0.77,4.3-1.12l2.45-0.58l-2.44-0.49c-0.38-0.07-0.68-0.08-0.99-0.09
		c-0.31-0.01-0.61,0-0.92,0c-0.6,0.02-1.2,0.05-1.8,0.1c-1.19,0.09-2.38,0.21-3.57,0.38c-1.18,0.16-2.36,0.36-3.54,0.6
		c-0.91,0.2-1.81,0.4-2.71,0.73c0.51-0.89,1.31-1.62,2.24-2.12c1.17-0.65,2.51-0.98,3.85-1.18c2.7-0.39,5.47-0.23,8.17,0.19
		l0.15,0.02l0.07-0.15c0.23-0.5,0.16-1.11-0.09-1.56c-0.24-0.46-0.59-0.83-0.96-1.16c-0.75-0.65-1.58-1.15-2.44-1.59
		c-0.86-0.44-1.75-0.82-2.66-1.14c-0.47-0.17-0.95-0.33-1.44-0.46c0.71-0.2,1.45-0.29,2.18-0.24c1.18,0.08,2.34,0.43,3.43,0.94
		c1.09,0.52,2.14,1.17,3.13,1.9c0.99,0.73,1.94,1.53,2.89,2.36l0.57,0.5l0.29-0.7c0.35-0.83,0.22-1.72-0.05-2.43
		c-0.27-0.72-0.67-1.36-1.12-1.93c-0.55-0.69-1.17-1.31-1.84-1.87c0.27,0.06,0.53,0.13,0.79,0.23c0.76,0.3,1.45,0.78,2.06,1.36
		c1.2,1.18,2.08,2.73,2.66,4.32c-0.01,0.35,0.12,0.64,0.33,0.87c0.23,0.25,0.53,0.4,0.81,0.49c0.59,0.17,1.14,0.18,1.69,0.26
		c0.98,0.12,1.96,0.27,2.92,0.49c-0.03,0-0.07,0-0.1,0c-1.44,0.04-2.92,0.22-4.33,0.76c-0.9,0.35-1.75,0.86-2.48,1.53
		c-0.86,0.06-1.62,0.6-2.18,1.21c-0.64,0.68-1.14,1.46-1.57,2.28c-0.42,0.82-0.79,1.67-1.06,2.55c-0.18,0.58-0.33,1.18-0.43,1.79
		c-0.5-0.89-0.76-1.91-0.82-2.94c-0.03-0.66,0.02-1.33,0.17-1.95c0.15-0.62,0.42-1.22,0.82-1.62l0.82-0.83L19.76,105.72z
		 M1.65,98.68l-0.23-4.89l0.55-2.41l-0.1-1.22C1.85,89.84,2.06,89.5,2,89.18c0.58-0.73,0.7-1.55,1.07-2.38
		c0.37-0.85,0.7-1.71,0.97-2.59c0.57-1.75,1.02-3.55,1.34-5.36c0.69-3.63,0.9-7.35,0.74-11.06c-0.08-0.93-0.14-1.85-0.26-2.77
		l-0.38-2.73c-0.28-1.76-0.46-3.57-0.67-5.36l-0.53-5.42l-0.56-5.43c-0.38-3.62-0.64-7.25-0.73-10.89
		c-0.1-3.64,0.07-7.29,0.06-10.92c-0.01-1.82-0.04-3.64-0.13-5.46c-0.07-1.82-0.16-3.63-0.27-5.45C2.44,9.78,2.19,6.2,1.76,2.63
		c0.36,0.35,0.74,0.73,1.23,0.95c0.53,0.27,1.13,0.39,1.72,0.46c1.18,0.1,2.35-0.06,3.49-0.23c1.14-0.18,2.29-0.32,3.38-0.63
		c1.06-0.29,2.07-0.54,3.19-0.64c-0.34,7.65-0.31,15.3-0.12,22.94c0.18,7.66,0.69,15.36,1.94,22.94c0.5,3.79,0.49,7.63,0.5,11.47
		c-0.02,3.84,0.19,7.68,0.49,11.52c0.32,3.84,0.86,7.68,1.82,11.45c0.48,1.88,1.07,3.75,1.85,5.54c0.65,1.43,1.42,2.85,2.47,4.04
		c-0.69-0.24-1.38-0.42-2.09-0.55c-2.8-0.52-5.63-0.3-8.32,0.32c-0.68,0.16-1.33,0.32-2.01,0.54c-0.67,0.22-1.33,0.49-1.97,0.83
		c-1.27,0.65-2.41,1.54-3.36,2.58c-1.91,2.11-3,4.7-3.77,7.28c-0.14,0.47-0.26,0.94-0.39,1.41L1.65,98.68z M8.03,126.73l-4,0.1
		c-0.71,0.02-1.42,0.04-2.14,0.07c0.01-1.24,0.02-2.28,0.06-3.36c0.06-1.01-0.1-2.05-0.07-3.12c0.05-0.66,0.09-1.33,0.13-1.99
		c0.05-0.54,0.1-1.07,0.15-1.62c0.03-0.32,0.05-0.65,0.07-0.97c0.13,0.56,0.27,1.12,0.45,1.67c0.22,0.66,0.45,1.32,0.9,1.99
		l0.42,0.64l0.63-0.56c1.44-1.28,3.38-1.84,5.39-2.04c1.97-0.21,4.02-0.08,6.07,0.07c-0.16,0.19-0.3,0.39-0.43,0.59
		c-0.31,0.52-0.54,1.06-0.74,1.6c-0.37,1.09-0.61,2.18-0.82,3.28l-0.3,1.64c-0.09,0.45-0.38,1.36-0.59,1.93L8.03,126.73z
		 M16.02,126.59l-2.6,0.05c0.46-1.04,0.92-2.5,1.22-3.43c0.32-1.05,0.68-2.09,1.13-3.06c0.43-0.95,1.03-1.92,1.77-2.26
		c0.16-0.08,0.32-0.1,0.49-0.11l0.52,0.05c0.03,0.01,0.07,0.02,0.11,0.03c0.28,0.11,0.44,0.36,0.58,0.8c0.26,0.9,0.3,2.05,0.59,3.24
		c0.14,0.59,0.4,1.2,0.75,1.77c0.39,0.57,0.86,1.02,1.35,1.39c0.9,0.65,1.86,1.08,2.85,1.4L16.02,126.59z M32.02,126.36l-4.32,0.06
		c-1.69-0.84-3.33-1.69-4.58-2.81c-0.36-0.32-0.67-0.68-0.91-1.02c-0.23-0.37-0.45-0.77-0.61-1.24c-0.17-0.47-0.32-0.96-0.45-1.51
		c-0.14-0.54-0.26-1.1-0.51-1.71l-0.1-0.2c0.73-0.01,1.44-0.07,2.14-0.18c2.02-0.32,4.02-0.93,5.77-1.97
		c0.13,0.08,0.25,0.17,0.38,0.25c0.66,0.4,1.18,0.7,1.78,1.11c0.53,0.37,1.08,0.73,1.63,1.08c-0.11,0.2-0.21,0.4-0.3,0.62
		c-0.14,0.34-0.29,0.73-0.3,1.24c-0.04,0.52,0.21,1.12,0.56,1.44c0.34,0.34,0.73,0.51,1.09,0.67c0.36,0.16,0.7,0.29,1.02,0.46
		c0.63,0.34,1.21,0.8,1.75,1.28c0.54,0.5,1.12,0.91,1.71,1.29c0.57,0.38,1.14,0.77,1.75,1.07L32.02,126.36z M64.02,126.09
		l-21.33,0.18c-0.66-0.64-1.37-1.19-2.12-1.68c-0.6-0.39-1.26-0.67-1.92-0.95c-0.65-0.29-1.33-0.55-2.05-0.71
		c-0.71-0.17-1.4-0.37-1.98-0.77c-0.57-0.38-1.02-1.05-1.18-1.53c-0.08-0.25-0.09-0.35-0.11-0.54c-0.01-0.2,0.02-0.51,0.06-0.85
		c0.01-0.09,0.02-0.19,0.02-0.29c0.29,0.17,0.57,0.36,0.86,0.52c2.5,1.45,5.13,2.72,7.91,3.54c0.69,0.23,1.4,0.38,2.1,0.56
		c0.71,0.14,1.42,0.27,2.14,0.36c0.72,0.07,1.44,0.16,2.17,0.12c0.73,0.01,1.44-0.03,2.15-0.06c2.84-0.13,5.7-0.18,8.48,0.2
		c1.39,0.2,2.76,0.5,4.02,1.02c0.59,0.24,1.16,0.54,1.68,0.88C64.62,126.09,64.32,126.09,64.02,126.09z M66.97,125.82l0.15-1.35
		c0.21-1.92-0.12-3.91-1-5.62c-0.87-1.72-2.19-3.14-3.65-4.3c-1.47-1.16-3.1-2.09-4.78-2.87c-1.21-0.56-2.45-1.02-3.71-1.43
		c0.83,0.05,1.68,0.15,2.51,0.24c1.36,0.17,2.71,0.38,4.06,0.62c1.35,0.23,2.69,0.53,4.01,0.87c1.31,0.35,2.66,0.71,3.83,1.32
		l0.5,0.26l-0.17-0.53c-0.51-1.59-1.77-2.82-3.16-3.63c-1.41-0.82-2.96-1.3-4.53-1.64c-3-0.62-6.06-0.73-9.1-0.6
		c0.02-0.61,0.66-1.23,1.37-1.68c0.85-0.55,1.83-0.97,2.82-1.32c1-0.35,2.02-0.64,3.06-0.88c1.03-0.23,2.09-0.43,3.11-0.49
		l1.87-0.12l-1.62-0.93c-1.34-0.76-2.87-1.19-4.39-1.22c-1.53-0.04-3.03,0.26-4.43,0.73c-2.59,0.89-4.9,2.33-7.08,3.86
		c0-0.41,0.11-0.84,0.31-1.25c0.31-0.63,0.77-1.22,1.28-1.76c1.03-1.07,2.25-1.99,3.58-2.67l1.07-0.54l-1.17-0.07
		c-1.03-0.07-2.09-0.06-3.07,0.29c-0.98,0.32-1.89,0.82-2.68,1.47c-0.78,0.65-1.46,1.41-2.04,2.23c-0.58,0.83-1.07,1.69-1.45,2.64
		c-0.04,0.25-0.29,0.4-0.54,0.48c-0.25,0.08-0.52,0.1-0.79,0.11c-0.54,0-1.1-0.08-1.66-0.08c-1.11-0.02-2.23,0.04-3.34,0.19
		c-1.11,0.15-2.22,0.38-3.28,0.81c-0.26,0.12-0.52,0.24-0.78,0.38c-0.24,0.17-0.51,0.29-0.72,0.51c-0.48,0.36-0.82,0.9-1.05,1.49
		l-0.48,1.23l1.03-0.89c0.61-0.53,1.51-0.71,2.4-0.75c0.89-0.04,1.81,0.05,2.72,0.18c0.91,0.13,1.82,0.3,2.75,0.47
		c0.65,0.1,1.28,0.22,1.97,0.26c-0.25,0.49-0.43,1.01-0.54,1.52c-0.17,0.81-0.22,1.64-0.18,2.45c0.04,0.81,0.16,1.62,0.38,2.42
		c0.22,0.79,0.53,1.58,1.07,2.3l1.91,2.54l-0.91-3.09c-0.07-0.25-0.1-0.7-0.1-1.09c0-0.4,0.03-0.81,0.07-1.22
		c0.09-0.81,0.26-1.62,0.52-2.37c0.26-0.74,0.63-1.46,1.15-1.86c0.26-0.2,0.53-0.32,0.83-0.34c0.31-0.02,0.63,0.04,0.9,0.18
		c0.56,0.28,1.01,0.92,1.33,1.63c0.32,0.71,0.54,1.51,0.7,2.32c0.31,1.62,0.42,3.32,0.35,4.97l-0.07,1.61l1.17-1.09
		c1.25-1.17,1.99-2.75,2.26-4.38c0.13-0.82,0.15-1.66,0-2.5c-0.07-0.38-0.17-0.77-0.32-1.15c1.22,0.26,2.43,0.76,3.58,1.34
		c1.55,0.79,3.02,1.76,4.41,2.83c1.39,1.07,2.69,2.27,3.89,3.55c1.19,1.28,2.29,2.68,3.06,4.21l0.59,1.17
		c-0.95-0.75-2.03-1.29-3.14-1.66c-1.42-0.47-2.87-0.7-4.31-0.83c-2.89-0.22-5.76-0.03-8.61,0.1c-0.71,0.04-1.43,0.09-2.12,0.06
		c-0.7,0.02-1.4-0.08-2.09-0.15c-1.39-0.21-2.75-0.56-4.07-1.06c-2.64-0.99-5.09-2.4-7.43-3.96c-0.59-0.4-1.18-0.82-1.76-1.24
		c-0.01-0.03-0.01-0.06-0.02-0.08c-0.01-0.02-0.02-0.04-0.04-0.05c-0.04-0.02-0.08-0.02-0.11,0.01c-0.5-0.36-1.01-0.73-1.52-1.1
		c-0.56-0.42-1.25-0.88-1.82-1.21c-0.58-0.37-1.15-0.76-1.68-1.18c-1.06-0.83-2.07-1.76-2.68-2.85c-0.3-0.54-0.51-1.1-0.54-1.67
		c-0.02-0.57,0.1-1.15,0.39-1.7c0.29-0.55,0.7-1.08,1.18-1.52c0.48-0.45,1.04-0.82,1.64-1.12c1.21-0.6,2.59-0.94,3.99-1.07
		c1.4-0.15,2.82-0.1,4.23,0.05c0.71,0.07,1.41,0.19,2.1,0.33c0.35,0.07,0.69,0.15,1.04,0.23l0.51,0.14l0.25,0.08l0.12,0.04
		l0.04,0.02c0.02,0.02,0.05,0.03,0.09,0.04c0.08,0,0.14-0.1,0.07-0.16c-0.02-0.02-0.03-0.02-0.03-0.02c0-0.02,0.01-0.06,0.01-0.09
		c0.01-0.07,0.03-0.13,0.05-0.2c0.04-0.14,0.09-0.27,0.15-0.4c0.11-0.27,0.24-0.53,0.38-0.79c0.27-0.52,0.59-1.01,0.93-1.48
		c0.7-0.93,1.52-1.79,2.51-2.34c1.01-0.49,2.16-0.77,3.29-0.93c1.14-0.16,2.3-0.19,3.44-0.14c1.15,0.05,2.29,0.19,3.42,0.41
		c1.13,0.22,2.25,0.47,3.34,0.81c0.55,0.15,1.09,0.34,1.64,0.52c0.27,0.09,0.51,0.21,0.77,0.31c0.25,0.11,0.51,0.19,0.75,0.33
		c0.99,0.46,1.89,1.1,2.73,1.79c1.64,1.45,2.93,3.3,3.93,5.32c0.5,1.01,0.91,2.07,1.29,3.15c0.19,0.54,0.36,1.09,0.53,1.64
		l0.12,0.41c0.04,0.13,0.05,0.25,0.08,0.38l0.08,0.37l0.04,0.4c0.22,2.14-0.2,4.45-0.78,6.65c-0.3,1.11-0.66,2.2-1.09,3.25
		C67.76,124.37,67.4,125.15,66.97,125.82z M49.55,112.31c0.38,0.45,0.63,1.09,0.73,1.75c0.11,0.67,0.09,1.38-0.03,2.07
		c-0.13,0.77-0.39,1.52-0.76,2.2c-0.05-1.12-0.16-2.23-0.38-3.34c-0.18-0.87-0.41-1.75-0.8-2.6c-0.39-0.83-0.94-1.72-1.92-2.23
		c-0.49-0.25-1.04-0.36-1.58-0.31c-0.55,0.04-1.1,0.28-1.51,0.61c-0.83,0.68-1.24,1.58-1.55,2.45c-0.25,0.75-0.4,1.52-0.49,2.28
		c-0.1-0.47-0.18-0.94-0.21-1.42c-0.05-0.74-0.02-1.48,0.12-2.19c0.14-0.7,0.39-1.38,0.8-1.9l0.74-0.92l-1.18,0.11
		c-0.78,0.07-1.74-0.08-2.65-0.21c-0.92-0.13-1.85-0.28-2.79-0.38c-0.94-0.11-1.9-0.17-2.87-0.1c-0.53,0.04-1.09,0.13-1.62,0.32
		c0.4-0.42,0.93-0.76,1.5-1.02c0.97-0.45,2.04-0.72,3.12-0.91c1.08-0.19,2.18-0.3,3.28-0.33c0.55-0.02,1.09,0.03,1.66,0.01
		c0.28-0.02,0.57-0.06,0.84-0.16c0.26-0.09,0.56-0.28,0.61-0.61c0.41-0.87,0.96-1.72,1.56-2.49c0.6-0.78,1.3-1.48,2.07-2.07
		c0.78-0.59,1.66-1.01,2.57-1.27c0.54-0.16,1.1-0.22,1.66-0.22c-1.01,0.59-1.94,1.31-2.79,2.14c-0.56,0.56-1.08,1.18-1.47,1.93
		c-0.38,0.72-0.63,1.66-0.32,2.58l0.19,0.55l0.5-0.33c1.2-0.8,2.38-1.61,3.62-2.31c1.24-0.7,2.52-1.31,3.85-1.74
		c1.33-0.43,2.71-0.69,4.07-0.63c0.71,0.03,1.41,0.15,2.08,0.35c-0.42,0.08-0.84,0.17-1.26,0.27c-1.07,0.26-2.13,0.57-3.17,0.95
		c-1.04,0.39-2.07,0.83-3.03,1.46c-0.48,0.32-0.95,0.69-1.33,1.22c-0.19,0.26-0.34,0.58-0.41,0.93c-0.07,0.36-0.02,0.73,0.09,1.07
		l0.12,0.35l0.37-0.03c3.11-0.25,6.27-0.24,9.33,0.29c1.53,0.28,3.04,0.7,4.39,1.44c1.19,0.63,2.22,1.58,2.79,2.79
		c-1.12-0.49-2.27-0.79-3.42-1.08c-1.34-0.33-2.69-0.59-4.05-0.85c-1.35-0.25-2.71-0.48-4.08-0.66c-0.68-0.09-1.37-0.17-2.06-0.23
		c-0.7-0.04-1.37-0.13-2.11-0.05l-1.17,0.12l1.14,0.33c1.75,0.51,3.46,1.17,5.09,1.96c1.63,0.8,3.2,1.74,4.58,2.9
		c1.38,1.15,2.58,2.53,3.33,4.12c0.51,1.07,0.79,2.23,0.85,3.41c-0.67-1.06-1.45-2.04-2.27-2.96c-1.22-1.36-2.55-2.6-3.98-3.73
		c-1.43-1.13-2.95-2.15-4.57-3c-1.63-0.84-3.37-1.55-5.32-1.71l-1.52-0.13L49.55,112.31z M81.78,125.94
		c-4.41,0.03-8.82,0.07-13.24,0.11c0.37-0.6,0.67-1.21,0.97-1.83c0.5-1.11,0.94-2.24,1.29-3.4c0.67-2.33,1.2-4.72,1.01-7.3
		l-0.04-0.48l-0.09-0.49c-0.03-0.16-0.06-0.34-0.1-0.49l-0.12-0.44c-0.16-0.58-0.32-1.16-0.51-1.74c-0.01-0.04-0.03-0.09-0.04-0.13
		c0.82-0.87,1.55-1.78,2.31-2.64c0.45-0.5,0.9-0.99,1.37-1.43c0.23-0.21,0.47-0.42,0.7-0.57c0.05-0.03,0.12-0.09,0.16-0.11
		c0.04-0.02,0.07-0.04,0.1-0.04c0.06-0.02,0.12-0.03,0.18-0.02c0.23-0.01,0.73,0.27,1.17,0.68c0.44,0.41,0.88,0.92,1.23,1.49
		c0.35,0.57,0.62,1.2,0.77,1.86c0.17,0.67,0.2,1.3,0.24,2.04c0.16,2.86,0.82,5.55,1.39,8.21c0.31,1.32,0.68,2.63,0.96,3.93
		c0.13,0.65,0.26,1.3,0.31,1.94C81.81,125.37,81.82,125.66,81.78,125.94z M107.9,126.24c-0.33-0.25-0.65-0.52-0.97-0.79l-1.33-1.15
		l-2.65-2.3l-5.25-4.59c-0.88-0.76-1.72-1.51-2.5-2.36c-0.79-0.86-1.54-1.76-2.21-2.72c-0.32-0.49-0.65-0.97-0.9-1.48
		c-0.13-0.26-0.24-0.52-0.33-0.78c-0.09-0.25-0.15-0.53-0.12-0.73c0.03-0.19,0.11-0.22,0.28-0.24c0.14,0,0.3,0.11,0.47,0.3
		c0.35,0.39,0.67,0.9,1.01,1.38c0.69,0.98,1.46,1.95,2.36,2.78c0.44,0.43,0.92,0.81,1.41,1.18l0.75,0.53l0.72,0.49l5.71,4.08
		c1.95,1.32,3.89,2.64,5.97,3.82c0.51,0.3,1.05,0.58,1.6,0.85c0.59,0.28,1.1,0.45,1.62,0.7c0.75,0.34,1.48,0.76,2.17,1.23
		C113.1,126.38,110.5,126.31,107.9,126.24z M116.32,126.49c-0.28-0.33-0.57-0.65-0.89-0.95c-0.44-0.41-0.91-0.8-1.42-1.14
		c-0.49-0.35-1.05-0.66-1.49-0.95c-0.47-0.32-0.93-0.66-1.4-1c-1.86-1.4-3.72-2.83-5.61-4.22c-1.91-1.37-3.87-2.69-5.9-3.93
		l-1.49-0.91c-0.47-0.3-0.93-0.63-1.38-0.96c-0.9-0.68-1.75-1.43-2.54-2.28c-0.4-0.42-0.78-0.87-1.26-1.31
		c-0.25-0.2-0.61-0.47-1.07-0.42c-0.11,0.01-0.22,0.03-0.32,0.08c-0.1,0.05-0.2,0.09-0.28,0.19c-0.09,0.08-0.16,0.18-0.19,0.29
		c-0.05,0.11-0.07,0.21-0.07,0.31c-0.02,0.4,0.09,0.7,0.19,1c0.11,0.3,0.24,0.57,0.38,0.84c0.28,0.54,0.58,1.05,0.9,1.55
		c0.62,1.01,1.26,2.01,1.9,3.01c0.65,1.01,1.42,1.98,2.24,2.85c0.83,0.87,1.7,1.68,2.62,2.43c0.91,0.76,1.85,1.48,2.81,2.17
		c0.97,0.69,1.95,1.35,2.97,1.96c0.51,0.31,1.02,0.6,1.55,0.88c0.15,0.08,0.3,0.15,0.45,0.22c-3.34-0.08-6.68-0.15-10.01-0.22
		c-1.6-2.49-3.5-4.73-5.52-6.85c-0.57-0.58-1.16-1.15-1.77-1.7l-1.79-1.61c-0.57-0.54-1.11-1.1-1.62-1.68
		c-0.26-0.29-0.49-0.59-0.74-0.89c-0.21-0.32-0.46-0.62-0.64-0.96c-0.83-1.32-1.12-2.96-1.51-4.56c-0.35-1.6-0.8-3.29-1.49-4.78
		l-0.47-1.07c-0.07-0.17-0.15-0.35-0.21-0.52c0.22,0.06,0.45,0.13,0.68,0.2c1.51,0.49,3.16,1.08,4.86,1c0.04,0,0.07-0.02,0.08-0.06
		c0.02-0.05,0-0.1-0.05-0.12c-1.52-0.63-2.85-1.43-4.34-2.17c-0.38-0.18-0.76-0.36-1.26-0.5c-0.14-0.03-0.27-0.06-0.45-0.07
		c-0.17-0.01-0.42,0-0.72,0.16c-0.32,0.18-0.52,0.56-0.55,0.79c-0.05,0.26-0.03,0.41-0.01,0.59c0.09,0.58,0.27,0.98,0.45,1.38
		c0.19,0.39,0.39,0.76,0.62,1.12l0.66,1.01c0.23,0.32,0.43,0.67,0.63,1.01c0.22,0.34,0.37,0.7,0.56,1.06
		c0.16,0.37,0.31,0.74,0.43,1.12c0.49,1.53,0.58,3.19,1.15,4.82c0.53,1.66,1.55,3.1,2.67,4.34l0.86,0.93l0.85,0.87
		c0.56,0.58,1.14,1.15,1.72,1.71c1.97,1.85,3.98,3.66,6.1,5.4c-0.05,0-0.11,0-0.16,0c-4.49-0.07-8.99-0.07-13.48-0.05
		c0.11-0.25,0.2-0.5,0.27-0.75c0.18-0.74,0.23-1.48,0.22-2.2c-0.02-1.45-0.21-2.86-0.52-4.22c-0.31-1.37-0.76-2.69-1.18-4
		c-0.41-1.32-1-2.58-1.39-3.88c-0.18-0.63-0.28-1.37-0.47-2.04c-0.17-0.68-0.35-1.37-0.56-2.06c-0.22-0.69-0.46-1.4-0.88-2.06
		c-0.21-0.33-0.47-0.66-0.83-0.93c-0.35-0.27-0.82-0.52-1.4-0.53c-0.28-0.01-0.58,0.05-0.83,0.16c-0.13,0.05-0.25,0.12-0.36,0.19
		c-0.11,0.07-0.17,0.13-0.26,0.19c-0.33,0.25-0.6,0.52-0.85,0.8c-0.5,0.56-0.91,1.14-1.29,1.75c-0.57,0.91-1.05,1.86-1.48,2.82
		c-0.32-0.91-0.68-1.81-1.11-2.69c-0.54-1.1-1.17-2.17-1.89-3.19c-0.76-0.99-1.61-1.92-2.57-2.74c-0.04-0.03-0.08-0.06-0.13-0.1
		c0.25-0.51,0.43-1.06,0.57-1.6c0.25-0.99,0.37-2.02,0.39-3.04c0.02-1.02-0.05-2.04-0.22-3.06c-0.16-1.01-0.46-2.03-0.89-2.96
		c-0.81-1.84-1.94-3.56-3.23-5.1c-0.76-0.9-1.6-1.72-2.53-2.45c0.61-0.92,1.67-2.99,1.97-3.68c0.3-0.78,0.56-1.57,0.79-2.37
		c0.45-1.6,0.76-3.24,1.02-4.88c0.49-3.29,0.66-6.63,0.54-9.96c-0.09-1.66-0.22-3.33-0.47-4.98c-0.25-1.68-0.52-3.23-0.73-4.85
		l-0.3-2.43c-0.09-0.81-0.17-1.63-0.27-2.44l-0.58-4.88c-0.37-3.26-0.64-6.53-0.71-9.81c-0.09-3.28,0.09-6.57,0.1-9.85
		c0-3.28-0.15-6.56-0.34-9.83c-0.2-3.24-0.43-6.48-0.83-9.72c0.48,0.39,0.99,0.81,1.61,1.04c0.64,0.25,1.33,0.37,2.01,0.43
		c1.36,0.09,2.72-0.07,4.04-0.24c1.33-0.16,2.67-0.33,3.95-0.63c1.26-0.3,2.48-0.54,3.8-0.64c0.04,5.92,0.25,11.83,0.57,17.73
		c0.32,5.92,0.69,11.84,1.32,17.74c0.34,2.95,0.68,5.9,1.09,8.84c0.39,2.95,0.96,5.88,1.53,8.79l1.75,8.73
		c0.59,2.91,1.19,5.82,1.83,8.72c0.64,2.9,1.33,5.79,2.11,8.66c0.77,2.88,1.63,5.73,2.61,8.55c0.98,2.82,2.04,5.63,3.43,8.34
		c0.72,1.35,1.5,2.68,2.59,3.9c1.03,1.12,2.04,2.16,3.08,3.23c2.06,2.14,4.14,4.26,6.29,6.31c2.14,2.06,4.35,4.07,6.69,5.93
		c1.18,0.92,2.39,1.81,3.69,2.6c0.04,0.03,0.09,0.05,0.13,0.07c0.02,0.01,0.04,0.03,0.07,0.04c0.59,0.34,1.2,0.67,1.85,0.92
		c0.36,0.14,0.74,0.26,1.15,0.33c0.19,0.03,0.44,0.05,0.6,0.06c0.17,0.01,0.35,0.03,0.52,0.05c1.39,0.2,2.71,0.86,3.86,1.74
		c1.09,0.84,2.07,1.86,2.89,2.99C121.66,126.69,118.99,126.58,116.32,126.49z M121.76,123.45c-0.85-0.73-1.82-1.37-2.89-1.78
		l-0.01-0.04c-0.68-2.58-0.84-5.23-0.67-7.85c0.16-2.63,0.7-5.22,1.27-7.82c0.59-2.6,1.38-5.2,2.56-7.62
		c0.24-0.5,0.5-0.99,0.76-1.48c0.14,4.85,0.31,9.7,0.55,14.54c0.25,5.06,0.5,10.12,1.08,15.16
		C123.68,125.42,122.8,124.36,121.76,123.45z"/>
</g>
</svg>
