<?xml version="1.0" encoding="utf-8"?>
<!-- Generator: Adobe Illustrator 23.0.0, SVG Export Plug-In . SVG Version: 6.00 Build 0)  -->
<svg version="1.1" id="Layer_1" xmlns="http://www.w3.org/2000/svg" xmlns:xlink="http://www.w3.org/1999/xlink" x="0px" y="0px"
	 viewBox="0 0 128 128" style="enable-background:new 0 0 128 128;" xml:space="preserve">
<style type="text/css">
	.st0{fill:#2D2D2D;}
	.st1{fill:#B39E8A;}
	.st2{fill:#997B5D;}
	.st3{fill:#B39272;}
	.st4{fill:#F4F4ED;}
	.st5{fill:#CFA9B2;}
	.st6{fill:#F0CCD4;}
	.st7{fill:#E3E3DC;}
	.st8{fill:#9E7F60;}
	.st9{fill:#9E8872;}
</style>
<g>
	<path class="st0" d="M124.8,56.7c-0.8-1.1-1.4-0.7-1.9-1.3c-0.4-0.5-0.3-1.3,0.2-1.4c0.5-0.2,1-0.1,1.4,0.4
		C124.8,54.9,125.1,57.1,124.8,56.7z"/>
	<path class="st0" d="M121.7,47.3c-0.1,0.7-0.9,1.1-1.7,0.9c-0.9-0.2-1.1-1-1.2-1.3c0-0.1,0-0.2,0.1-0.3c0.2-0.3,0.7-1,1.6-0.8
		C121.3,46,121.8,46.6,121.7,47.3z"/>
	<path class="st1" d="M61,124.2c-0.2,0.9-1,1.3-1.7,1.3c-20.3,0.9-35.3-3.2-44.8-12.3C6.1,105.1,1.9,92.9,1.9,76.7
		c0-18.4,15.5-23.1,22.8-24.8c-0.2,0.3-0.5,0.6-0.7,0.9c-1.3,1.9-2.2,4-2.7,6.1c-0.1,0.4-0.1,0.7-0.2,1.1c-5.2,0.9-14.4,5.5-14.4,17
		c0,15.2,4.3,26.9,12.9,34.7c13,11.8,32.3,11.2,40,10.4c0.5-0.1,0.8,0.2,1,0.4C60.9,123,61.1,123.6,61,124.2z"/>
	<path class="st2" d="M72.2,122.5C72.1,122.6,72.1,122.6,72.2,122.5l-9.5,0c-0.2-0.5-0.4-0.9-0.7-1.2c-0.7-0.8-1.6-1.1-2.6-1
		c-2.1,0.2-5.1,0.4-8.5,0.4c0-0.6,0.1-1.4,0.3-2.2c0.2-0.9,0.1-1.9-0.2-2.8c-3-9.1-5.5-20.5-5.4-22.5l0-0.5l-0.4-0.3
		c-3.4-2.3-5.2-6.9-5.3-6.9c0,0,0,0,0-0.1c0.1-1.2,0.2-2.4,0.3-3.6c0.2-2,0.5-4,0.9-6c0.2-0.7,0.3-1.5,0.5-2.2
		c2.8,2.4,6.5,5.1,9.5,7c0.6,0.4,1.2,0.8,1.9,1.1c0.1,0.6,1,4.1,2.4,7.8c0.1,1.2,0.2,3.7,0.4,6.8c0.6,10,1.1,19,1.5,20.7
		c0.7,2.9,5.9,2.8,10.2,2.7c0.6,0,1.1,0,1.6,0C70.6,119.7,71.6,121.2,72.2,122.5C72.2,122.5,72.2,122.5,72.2,122.5z"/>
	<path class="st3" d="M115.4,124.7l-0.2,0l-1,0c-0.7,0-1.3,0.1-2,0.1c-2,0.1-3.9,0.3-5.9,0.5c-0.1-0.2-0.2-0.3-0.3-0.4
		c-0.6-0.7-1.3-1.5-2.2-2.3c-0.3-0.3-0.5-0.7-0.5-1.1c0.4-3.8-2.3-13.7-3.1-16.6c0-0.1-0.1-0.3,0-0.4c0.1-2.6,0.1-4.9-0.4-6.3
		c-0.6-3.4,0.2-8.5,0.8-11.3c0,0,0,0,0,0c0.6-1,1.1-2,1.6-3c0.5-1,0.9-2,1.2-3.1c0.3-1.1,0.6-2.1,0.7-3.2c0.2-1.1,0.2-2.2,0.1-3.3
		c-0.1,1.1-0.3,2.1-0.6,3.2c-0.3,1-0.7,2-1.2,3c-0.5,1-1,1.9-1.6,2.8c-0.5,0.7-1,1.5-1.6,2.2c-0.3,0.1-0.5,0.3-0.5,0.6
		c-0.2,0.8-1.8,7.8-0.9,12.6l0,0.1c0.4,1.1,0.4,3.4,0.3,5.9c0,0,0,0,0,0.1c-0.1,2.1-0.3,4.2-0.5,6c-0.2,2.1-0.3,3.7-0.3,4.6
		c0,2.6,0,2.9,0.6,5.4c0.2,0.9,0.9,1.6,1.8,1.8c1.8,0.4,3.3,1.9,4.2,3c0,0,0,0.1,0.1,0.1c0.1,0.1,0.1,0.2,0.2,0.2
		c-2.9,0-8.6,0.1-11.8,0.1c-0.2,0-0.4-0.2-0.4-0.4c0-0.5,0-1,0-1.7l0-1.3c0-1.2-0.2-2.3-0.6-3.5c-1.8-4.7-2.8-11.7-3.5-17.3
		c-0.3-2-0.5-3.7-0.7-5.2l0-0.1l-0.1-0.1c-3.5-6.8-1.9-14.8-1.3-17.2c0.2-0.2,0.3-0.6,0.2-0.9c0-0.3-0.1-0.5-0.2-0.7
		c-0.4-1.2-0.7-2.5-1-3.8c-0.3-1.5-0.6-3-0.7-4.5c-0.1-1.5-0.1-3.1,0-4.6c0.2-1.5,0.5-3,1.1-4.5c-0.7,1.4-1.3,2.9-1.6,4.4
		c-0.3,1.5-0.5,3.1-0.5,4.7c0,1.6,0.1,3.2,0.2,4.7c0.1,1.3,0.3,2.6,0.6,3.9c0,0.2,0,0.4,0,0.6c-0.2,0.6-0.4,1.4-0.6,2.6
		c-0.1,0.6-1,0.8-1.6,1c-3.1,1-5.8,1.1-9,1.4c-0.9,0.1-1.9,0.1-2.8,0.2c-0.9,0-1.9,0.1-2.8,0.1c-1.9,0-3.7,0-5.5-0.4l-0.6-0.1
		c0,0-0.1,0-0.1,0l-0.6-0.2c-0.4-0.1-0.9-0.2-1.3-0.4c-0.9-0.3-1.7-0.7-2.6-1c-0.8-0.4-1.6-0.7-2.5-1.1c-0.1-0.1-0.2-0.1-0.3-0.1
		c-0.8-0.4-1.6-0.8-2.3-1.2c-2.8-1.5-6.3-3.6-9.3-5.3c-0.5-0.3-0.8-0.9-0.6-1.5c0.2-0.8,0.5-1.7,0.8-2.5c0.7-1.9,1.5-3.8,2.5-5.5
		c-1.2,1.7-2.1,3.5-3,5.3c-0.5,1.1-0.9,2.2-1.2,3.3c0,0,0,0-0.1,0c0,0,0,0,0.1,0c-0.3,0.8-0.5,1.7-0.8,2.5c-0.6,2-1,4-1.4,6
		c-0.2,1.3-0.5,2.6-0.6,3.9c-0.1,0.1-0.1,0.3-0.1,0.4c-0.1,0.5-0.1,1.1-0.2,1.6c0,0.1-0.1,0.1-0.1,0.2c-0.2,1.3-0.6,3.1-1.1,5.7
		c-0.4,1.7-0.8,3.7-1.3,6C34.7,103,32,110,30,114.7c-0.3,0.7-1.1,1-1.8,0.7c-1.4-0.8-2.8-1.6-4.2-2.6c-0.3-0.2-0.5-0.6-0.6-1
		c-0.5-6.2,0.6-16.6,1.3-23c0.2-1.9,0.4-3.4,0.4-4.4l0-0.2l-0.1-0.2c-3.8-12-2.9-19.8-1.9-24.7c0.4-1.9,1.2-3.8,2.4-5.4
		c0.5-0.7,1.1-1.4,1.8-2.1c0.2-0.2,0.3-0.4,0.3-0.6c0.2-0.1,0.3-0.1,0.4-0.1c0.3-0.1,0.5-0.4,0.5-0.7c0.1-0.4,0.3-0.8,0.7-0.9
		c2.4-1.2,4.9-2.1,7.4-2.7c0.8-0.2,1.5-0.3,2.3-0.4c0.8-0.1,1.6-0.1,2.4-0.1c1.6-0.1,3.2-0.2,4.9-0.3c3.2-0.3,6.5-0.5,9.8-0.3
		c3.3,0.2,6.5,0.6,9.7,1.1l0.1,0c0.6,0,1.2,0.1,1.9,0.2l2,0.3c1.3,0.2,2.7,0.4,4,0.6c2.7,0.3,5.4,0.5,8.1,0.4
		c2.7-0.1,5.5-0.5,8.1-1.3c2-0.6,4-1.2,5.8-2.2c0.6-0.3,1.3-0.2,1.7,0.4c0,0,0,0.1,0.1,0.1c0.7,1,1.7,1.5,2.8,1.7l0.1,0
		c-0.5,0.5-1,0.9-1.5,1.3c-0.3,0.2-0.6,0.4-0.9,0.6c-0.3,0.2-0.6,0.3-0.9,0.4l-1.1,0.5l1,0.7c0.5,0.4,1.1,0.6,1.8,0.7
		c0.3,0,0.7,0,1-0.2c0,0,0.1,0,0.1-0.1c0,0.1,0,0.2,0,0.3c-0.1,0.4-0.2,0.8-0.4,1.1c-0.3,0.7-0.8,1.3-1.4,1.7l-1,0.7l1.4,0.2
		c0.6,0.1,1.3,0.1,2,0c0.1,0,0.3-0.1,0.4-0.1c0,0.2,0,0.4-0.1,0.6c-0.1,0.6-0.4,1.2-0.7,1.9l-0.8,1.7l1.6-0.8
		c0.6-0.3,1.4-0.5,2.2-0.4c0.4,0.1,0.8,0.1,1.1,0.3c0.3,0.2,0.6,0.4,0.7,0.8c-0.5,0-1,0-1.5,0l-0.4,0l0.3,0.3
		c0.4,0.5,0.9,0.9,1.4,1.2c0.3,0.2,0.6,0.3,0.8,0.4c0.2,0.1,0.4,0.1,0.6,0.2c0,0.1,0,0.2-0.1,0.3c0,0.1-0.1,0.3-0.2,0.3
		c-0.2,0.2-0.3,0.3-0.6,0.4l-2.3,0.7l2.4,0.4c0.7,0.1,1.4,0.4,2,0.8c0.3,0.2,0.4,0.4,0.4,0.5c0,0.1,0,0.4-0.2,0.7l-1.5,1.8l2.1-0.9
		c0.7-0.3,1.4-0.6,2.1-0.9c0.1,0,0.3-0.1,0.4-0.2c0.5-0.2,1,0,1.3,0.3c0.5,0.4,1.1,0.8,1.7,1c0.8,0.3,1.1,1.2,0.7,1.9c0,0,0,0,0,0
		c-0.4,0.6-0.8,1.3-1.1,1.9c-0.4,0.6-0.8,1.3-1.1,1.9l-0.6,1c-0.2,0.3-0.4,0.6-0.6,1l-0.2,0.4l0.1,0.2c0.4,0.9,0.8,2,0.9,3
		c0.1,0.5,0,1.1-0.1,1.6c-0.1,0.5-0.3,1.1-0.4,1.6c-0.3,1-0.5,2.1-0.5,3.1c-0.1,0.9-0.1,1.9-0.1,2.8c0,0.1,0,0.2,0,0.2
		c-0.3,1.7-0.5,3.5-0.7,5.2c-0.2,2.1-0.5,4.3-0.7,6.4c-0.2,2.1-0.2,4.3-0.4,6.5c-0.2,2.2-0.6,4.3-1.1,6.4l0,0l0,0.1
		c0,1.3-0.1,2.6-0.3,3.9c-0.1,1.3-0.3,2.6-0.2,4.1c0,0.2,0,0.4,0.1,0.5c0,0.2,0.1,0.5,0.2,0.7c0.2,0.5,0.6,0.9,1.1,1.1
		c0.2,0.1,0.5,0.2,0.7,0.2c0.1,0,0.3,0,0.4,0l0.2,0c0.3,0,0.6,0,0.9,0.1c1.2,0.1,2.4,0.4,3.2,1c0.4,0.3,0.8,0.7,1.1,1.1
		C115.2,124.5,115.3,124.6,115.4,124.7z"/>
	<path class="st4" d="M119.8,64.3C119.8,64.4,119.8,64.4,119.8,64.3l-2.2,0.4c-0.7,0.1-1.4,0.1-2.1,0.1c-0.9,0-2.7-0.3-3.8-0.7
		c-0.2-0.1-0.5-0.1-0.8,0c-0.4,0.1-0.6,0.1-0.9,0.2c-0.3,0.1-0.6,0.1-1,0.2c0-0.1,0-0.2,0-0.3c-0.1-0.7-0.5-1.2-0.9-1.5
		c-0.4-0.3-0.8-0.5-1.3-0.6c-0.1,0-0.2,0-0.2-0.1c0,0,0-0.1,0.1-0.1c0.1-0.2,0.1-0.5,0.1-0.7c0-0.2,0-0.4-0.1-0.7l-0.1-0.2l-0.2,0
		c-0.3,0-0.6-0.1-0.8-0.2c-0.3-0.1-0.5-0.2-0.8-0.3c-0.4-0.2-0.7-0.4-1-0.7c0.8,0,1.7,0.1,2.5,0.1c1,0.1,2,0.2,3,0
		c1-0.1,2-0.3,3-0.7c0.5-0.2,1-0.5,1.4-0.8c0.2-0.2,0.4-0.4,0.5-0.6c0.1,0.5,0.2,0.9,0.4,1.4c0.5,1.4,1.2,2.6,2.2,3.7
		C117.5,63.2,118.6,63.9,119.8,64.3z"/>
	<path class="st5" d="M123,59.5c-0.7-0.1-1.4-0.2-2.2-0.4l-0.5-0.2c-0.2-0.1-0.3-0.1-0.5-0.1c-0.3-0.1-0.7-0.1-1-0.1
		c-0.1,0-0.1,0-0.1-0.1c0-0.1,0-0.1,0.1-0.1c0.4-0.1,0.7-0.1,1.1-0.1c0.2,0,0.4,0,0.5,0.1l0.3,0.1l0.2,0c0.7,0,1.4,0,2.1-0.1
		c1.1-0.1,2.2-0.4,3.3-0.7c-0.1-1.1-0.3-2.1-0.7-3c-0.5-1.1-1.1-2.1-2-3l-0.4-0.4c-0.1-0.2-0.3-0.4-0.4-0.6c0,0,0,0,0,0c0,0,0,0,0,0
		c-0.6,0.5-1.3,0.9-2.2,0.9c-0.8,0-1.5-0.3-2-0.8c0,0.3-0.1,0.7-0.3,0.9c-0.2,0.4-0.6,0.7-0.9,0.9l-0.3,0.1c-0.1,0-0.1,0.1-0.2,0.1
		c-0.1,0.1-0.2,0.2-0.4,0.3c-0.5,0.4-0.9,1-1.3,1.5c-0.2,0.3-0.4,0.6-0.5,0.9c-0.1,0.3-0.2,0.5-0.2,0.9c0,0.7,0.1,1.3,0.3,2
		c0.4,1.3,1,2.6,2,3.6c0.9,1,2,1.8,3.3,2.3c0.6-0.1,1.2-0.3,1.8-0.5c0.3-0.2,0.7-0.4,1-0.5c0.3-0.2,0.5-0.5,0.7-0.7
		c0.4-0.6,0.8-1.1,1.2-1.7c0.3-0.4,0.6-0.9,0.9-1.3C124.8,59.5,123.9,59.5,123,59.5z M123.1,54c0.5-0.2,1-0.1,1.4,0.4
		c0.3,0.5,0.7,2.6,0.4,2.2c-0.8-1.1-1.4-0.7-1.9-1.3C122.5,54.9,122.7,54.2,123.1,54z"/>
	<path class="st6" d="M121,44.7c-1.3,0.1-2.7,0.2-3.9,0.5c-0.3,0.1-0.5,0.2-0.7,0.3c-0.2,0.1-0.2,0.2-0.2,0.3c0,0.1,0.1,0.4,0.2,0.6
		c0.1,0.1,0.1,0.2,0.3,0.3c0.1,0.1,0.3,0.3,0.4,0.4c0.5,0.6,0.9,1.2,1.2,1.9c0.1,0.2,0.2,0.4,0.2,0.6c0.1,0.1,0.2,0.2,0.4,0.3
		c0.6,0.3,1.1,0.5,1.7,0.5c0.6,0,1.2-0.2,1.7-0.5c0.1,0,0.1-0.1,0.2-0.1c-0.1-0.2-0.1-0.4-0.1-0.6c-0.1-0.9,0.1-1.7,0.3-2.4
		c0.3-0.7,0.6-1.4,1.1-2c0.1-0.1,0.1-0.1,0.2-0.2C123,44.7,122,44.7,121,44.7z M121.7,47.3c-0.1,0.7-0.9,1.1-1.7,0.9
		c-0.9-0.2-1.1-1-1.2-1.3c0-0.1,0-0.2,0.1-0.3c0.2-0.3,0.7-1,1.6-0.8C121.3,46,121.8,46.6,121.7,47.3z"/>
	<path class="st4" d="M125.2,43.6c-0.3,0.1-0.5,0.3-0.7,0.4c-0.1,0.1-0.1,0.1-0.2,0.2c-1-0.5-2.2-0.7-3.3-0.9
		c-1.4-0.2-2.9-0.2-4.5,0.3c-0.4,0.1-0.8,0.3-1.2,0.7c-0.2,0.2-0.4,0.4-0.5,0.7c-0.1,0.3-0.2,0.6-0.2,0.9c0.1,0.6,0.3,1,0.6,1.3
		c0.1,0.2,0.3,0.3,0.4,0.4c0.1,0.1,0.2,0.2,0.3,0.4c0.4,0.5,0.8,1,1.1,1.6c0.3,0.6,0.4,1.1,0.2,1.6c-0.1,0.2-0.3,0.4-0.5,0.6
		l-0.2,0.1c-0.1,0.1-0.2,0.1-0.3,0.2c-0.2,0.1-0.3,0.3-0.4,0.4c-0.5,0.5-1,1.1-1.3,1.8c-0.2,0.3-0.4,0.6-0.5,1
		c-0.1,0.3-0.2,0.8-0.2,1.2c0,0.1,0,0.2,0,0.3c-0.6,0.6-1.3,0.8-2.1,1c-0.9,0.2-1.9,0.3-2.8,0.4c-1,0.1-1.9,0.3-2.9,0.4
		c-0.4,0.1-0.8,0.1-1.2,0.1c0-0.4-0.3-0.9-0.6-1.2c-0.4-0.3-0.8-0.6-1.3-0.7c-0.4-0.1-0.9-0.2-1.3-0.2c0.2-0.3,0.3-0.6,0.4-1
		c0.1-0.4,0.2-0.8,0.2-1.2l0.1-1l0.3-2.4l-1.6,1.6c-0.3,0.3-0.7,0.6-1.2,0.7c-0.2,0.1-0.4,0.1-0.7,0.2c0.2-0.4,0.4-0.8,0.5-1.2
		c0.2-0.4,0.3-0.8,0.4-1.2c0.1-0.4,0.2-0.8,0.3-1.2l0.2-0.9l-0.9,0.6c-0.3,0.2-0.7,0.2-1.1,0.1c-0.1,0-0.1,0-0.2-0.1
		c0.3-0.3,0.6-0.5,0.8-0.8c0.5-0.6,0.9-1.3,1.1-2l0,0l0.1-0.2c0.3-0.5,0.6-0.9,0.9-1.5c0,0,0-0.1,0-0.1c0-0.1-0.1-0.1-0.1,0h0
		c-0.4,0.2-0.7,0.4-1.1,0.7c-0.6-0.4-1.2-1-1.5-1.6c-0.2-0.3-0.3-0.7-0.3-1c-0.1-0.4-0.1-0.8-0.1-1.2c0-0.8,0.1-1.8,0.2-2.6
		c0.1-0.4,0.2-0.9,0.3-1.3c0.1-0.2,0.1-0.4,0.2-0.6c0.2,0.1,0.4,0.2,0.6,0.3c0.4,0.2,0.9,0.4,1.3,0.7c0.4,0.2,0.8,0.4,1.2,0.7
		c0.4,0.2,0.7,0.5,1,0.7c0,0,0,0.1,0,0.1c0,0.1,0,0.2,0,0.3l0.1,0.5c0,0,0,0.1,0.1,0.1c0.1,0,0.1,0,0.1-0.1v0l0.1-0.5l0-0.2
		c0-0.1,0-0.2,0.1-0.2l0-0.1l-0.1-0.1c-0.3-0.4-0.7-0.7-1.1-1c-0.4-0.3-0.2-0.2-0.6-0.4c0,0,0,0-0.1,0c2.1-1.2,3.7-2.6,5.9-3
		c2.4-0.5,4.7-0.3,7,0.4c2.4,0.8,4.9,1.5,7,2.9c1.1,0.7,2,1.5,2.6,2.5C125.1,41.6,125.2,42.6,125.2,43.6z"/>
	<path class="st2" d="M101.4,45c0,0,0-3,2.1-4.3c0.1-0.7,0.4-1.1-0.4-1.6c-0.8-0.4-4.1-2.6-4.2-2.5s-2.2,5-1.5,6.4
		c0.7,1.4,2.1,3.2,2.6,3.2C100.5,46.3,101.4,45,101.4,45z"/>
	<path class="st4" d="M83.9,70.8c0,0-12.1,5.7-16.5,6.4c-4.3,0.7-13.7-0.5-15.9-1.7c-2.2-1.2-8.8-5.3-8.8-5.3l-1.5,3.9
		c0,0,11.4,6.7,13.8,7.8c2.3,1.2,8.7,3,14.5,2.7s15-2.7,15-2.7l0.7-4.1L83.9,70.8z"/>
	<path class="st7" d="M41.5,74.7c0,0,7.7,3.5,8.4,7.1s1.8,5.1,1.2,8.9c-0.4,2.4,0.9,13.7,1.3,18.2c0.3,3.4,0.8,7.7,0.6,9
		c-0.3,1.6-1.4-0.3-1.4-0.3s-2.4-2.6-2.7-4.8c-0.2-2.2-5-17.6-4.5-19.4c-1.7-1.7-6.2-6.2-5.8-7.2S41.5,74.7,41.5,74.7z"/>
	<path class="st8" d="M98.3,45.1c0,0-5.5,5-8.8,6.4s-12.6,0.3-15.6-0.9s-14.5-2.3-17.3-1.2s-14.1-0.7-17.7-0.2S23,56.3,22.1,61.7
		c0.3-6.7,3.2-10.4,7.8-13c4.6-2.6,11.8-3.8,13.6-3.6c1.8,0.2,20.4,0.9,24.5,1.3c4.2,0.4,14.1,1.7,16.7,1c2.6-0.7,11.5-3.8,12.6-4.5
		C98,43.7,98.3,45.1,98.3,45.1z"/>
	<path class="st4" d="M111.9,76.9c-0.1-1.3-0.2-2.3-0.1-2.4c0.2-0.2,2.9-6.6,4.4-8.4c-0.1-0.1-2.3-0.9-2.5-0.9
		c-1.2-0.7-2.7-0.6-3.9-0.2c-0.9-2-2.9-4.5-2.9-4.7c0-0.3-3.4-3-3.4-3l-3.3,0.8c0,0,2.5,10.5-1.2,14.6c-2.6,2-5.1,8.3-4.9,10.2
		c0.9,9.9,3.2,10.6,3.7,11.7c0.5,1.1,1.6-3.8,1.2-0.3c0.2-0.3,0.6-0.7,1.1-1.3c1.1-1,2.8-2.5,5.2-4.1c3.1-2.1,3.9-3.9,5.9-6.5
		c0.2-0.3,0.3-0.8,0.4-1.2c0.1-0.4,0.2-0.8,0.2-1.3C112,78.9,112,77.8,111.9,76.9C111.9,76.9,111.9,76.9,111.9,76.9z"/>
	<path class="st3" d="M116.6,43.7c-0.2-0.1-2.6-7.8-11.5-7.6c2.3-2.5,6.2-3.1,8.6-2.1c2.4,1,7,3.3,8.1,3.8c1.1,0.5,3.7,3,3.9,4.3
		c0.2,1.3-0.1,2-0.2,2.1c-0.1,0-1.9,0-3.1,0s-5.7,0-5.7,0L116.6,43.7z"/>
	<path class="st9" d="M9.2,57.6c-0.6,0.3-6.1,19.6-1.4,28.6C7,73.3,8.2,66.6,14.7,63.4c4.4-1.9,7.4-2.5,7.4-2.5s1.7-8.5,4.5-10.3
		c-3.8,0.7-17.4,6.8-17.4,6.8"/>
	<path class="st0" d="M127.4,54c-0.3-0.7-0.6-1.4-1-2c-0.4-0.6-0.9-1.2-1.4-1.7l-0.3-0.3c-0.1-0.1-0.1-0.1-0.2-0.2
		c-0.1-0.2-0.2-0.4-0.2-0.6c-0.1-0.5,0-1,0.1-1.6c0.2-0.6,0.4-1.1,0.7-1.6c0.2-0.2,0.3-0.5,0.5-0.7c0.2-0.2,0.4-0.4,0.5-0.4l0.6-0.3
		l0-0.5c-0.1-1.3-0.5-2.8-1.4-3.9c-0.8-1.1-2-1.8-3.1-2.5c-1.1-0.6-2.3-1.2-3.4-1.8c-1.1-0.6-2.2-1.2-3.4-1.8
		c-1.2-0.6-2.5-1-3.9-1.1c-0.7-0.1-1.4,0-2,0c-0.7,0.1-1.3,0.2-2,0.4c-1.3,0.4-2.5,0.9-3.6,1.6c-1,0.6-2,1.4-2.7,2.3
		c-0.7-0.5-1.4-0.9-1.9-1.4l-0.6-0.5l-0.4,0.7c-0.3,0.5-0.5,0.9-0.7,1.4s-0.3,0.9-0.5,1.4c-0.3,0.9-0.6,1.9-0.7,2.9
		c0,0.4,0,0.8,0,1.3c-2.3,1.1-4.7,1.9-7.1,2.4c-2.6,0.5-5.2,0.7-7.8,0.7l-1,0l-1,0c-0.7,0-1.3,0-2-0.1c-1.3-0.1-2.6-0.1-3.9-0.2
		c-1.3-0.1-2.6-0.2-4-0.4l-2-0.2c-0.7-0.1-1.3-0.1-2.1-0.1c-3.3-0.2-6.5-0.2-9.7-0.3c-1.6-0.1-3.3-0.1-4.9-0.2
		c-1.6-0.1-3.3-0.2-4.9-0.3c-1.6-0.1-3.3-0.1-4.9,0c-0.8,0-1.6,0.1-2.5,0.2c-0.9,0.1-1.7,0.3-2.5,0.5c-1.6,0.5-3.1,1.2-4.6,2
		c-1.2,0.7-4.1,2-4.5,2.1c-0.2,0.1-1,0.3-1.7,0.5c-6.3,1.5-25.4,6-25.4,27c0,16.7,4.4,29.4,13.2,37.8c2,1.9,4.3,3.6,6.8,5.2
		c-0.7,1.4-0.8,2.5-0.5,4.6c0.2,1.4,1.4,2.4,2.8,2.4H41c0,0,0.1,0,0.1,0c4,0.6,8.3,0.8,12.9,0.8c1.8,0,3.6,0,5.4-0.1
		c1.7-0.1,3.1-1.2,3.5-2.8c0,0,0-0.1,0-0.1h9.3c0.7,0,1.3-0.3,1.6-0.9c0.4-0.6,0.4-1.3,0.2-1.9c-1.1-2.5-2.8-3.9-4.8-3.9
		c-0.5,0-1,0-1.6,0c-2.4,0-8,0.2-8.3-1.2c-0.4-1.7-1-13-1.4-20.4c-0.2-3.3-0.3-5.8-0.4-7l0-0.2l-0.1-0.1c-0.9-2.2-1.6-4.5-2-6
		c0.3,0.2,0.6,0.3,0.9,0.5c0.9,0.4,1.8,0.8,2.7,1.2c0.4,0.2,0.9,0.3,1.4,0.5l0.7,0.2l0.7,0.1c2,0.3,3.9,0.4,5.9,0.3
		c1.9-0.1,3.8-0.3,5.7-0.7c3.5-0.6,6.8,0,10.1-1.2c-0.5,3.8-0.5,8.2,2.2,13.5c0.2,1.4,0.5,3,0.7,4.9c0.8,5.7,1.7,12.8,3.6,17.7
		c0.4,0.9,0.5,1.9,0.5,2.8l0,1.3c0,0.7,0,1.2,0,1.8c0,1.3,1,2.3,2.3,2.3c0,0,0,0,0,0c3.2,0,9.1-0.1,11.9-0.1c0.7,0,1.3-0.4,1.6-1
		c0.1-0.3,0.2-0.5,0.2-0.8c1.9,0.2,3.8,0.3,5.8,0.4c0.7,0,1.3,0.1,2,0.1l1,0l0.5,0h0.1c0.1,0,0.2,0,0.3,0c0.2,0,0.4-0.1,0.5-0.2
		c0.7-0.4,1-1.2,0.8-2c-0.1-0.2-0.1-0.2-0.1-0.3l-0.1-0.3c-0.1-0.2-0.2-0.3-0.3-0.5c-0.4-0.7-1-1.3-1.6-1.7
		c-1.3-0.9-2.9-1.2-4.2-1.3c-0.3,0-0.7,0-1,0l-0.3,0c-0.1,0-0.1,0-0.1,0c-0.1,0-0.1,0-0.2,0c-0.1-0.1-0.2-0.2-0.3-0.3
		c0-0.1-0.1-0.1-0.1-0.2c0-0.1-0.1-0.3-0.1-0.4c-0.1-1.2-0.2-2.6-0.2-3.9c0-1.3,0.1-2.7,0-4c0.4-2.1,0.6-4.2,1.1-6.3
		c0.5-2.1,0.9-4.2,1.2-6.4c0.3-2.2,0.4-4.3,0.4-6.5c0-1.8,0-3.6-0.2-5.5c0.5-0.8,0.8-1.7,1.1-2.6c0.3-1.1,0.5-2.2,0.4-3.3l-0.2-1.7
		c-0.1-0.6-0.1-1.1-0.1-1.7c0-0.9,0.1-1.9,0-2.9c0.5-0.5,0.9-1.1,1.4-1.6c0.5-0.6,0.9-1.3,1.2-2.1c0.3-0.7,0.6-1.5,0.7-2.3
		c0.1-0.7,0.2-1.3,0.1-2c0.7,0,1.5-0.1,2.2-0.3c0.8-0.2,1.5-0.5,2.2-0.9c0.7-0.4,1.4-0.8,2.1-1.1c0.4-0.1,0.7-0.2,1.1-0.3
		c0.5-0.1,0.9-0.3,1.3-0.5c0.7-0.5,1.1-1.3,1.4-2.1c0.2-0.6,0.3-1.3,0.3-1.9c0.4-0.1,0.7-0.1,1.1-0.2l0.6-0.1l0-0.7
		C128,56.9,127.9,55.4,127.4,54z M115.8,124.7C115.8,124.7,115.8,124.7,115.8,124.7L115.8,124.7L115.8,124.7z M98.7,39.3
		c0.1-0.4,0.2-0.9,0.3-1.3c0.1-0.2,0.1-0.4,0.2-0.6c0.2,0.1,0.4,0.2,0.6,0.3c0.4,0.2,0.9,0.4,1.3,0.7c0.4,0.2,0.8,0.4,1.2,0.7
		c0.4,0.2,0.7,0.5,1,0.7c0,0,0,0.1,0,0.1c0,0.1,0,0.2,0,0.3l0.1,0.5c0,0,0,0.1,0.1,0.1c0.1,0,0.1,0,0.1-0.1v0l0.1-0.5l0-0.2
		c0-0.1,0-0.2,0.1-0.2l0-0.1l-0.1-0.1c-0.3-0.4-0.7-0.7-1.1-1c-0.4-0.3-0.2-0.2-0.6-0.4c0,0,0,0-0.1,0c2.1-1.2,3.7-2.6,5.9-3
		c2.4-0.5,4.7-0.3,7,0.4c2.4,0.8,4.9,1.5,7,2.9c1.1,0.7,2,1.5,2.6,2.5c0.5,0.9,0.7,1.9,0.7,2.9c-0.3,0.1-0.5,0.3-0.7,0.4
		c-0.1,0.1-0.1,0.1-0.2,0.2c-1-0.5-2.2-0.7-3.3-0.9c-1.4-0.2-2.9-0.2-4.5,0.3c-0.4,0.1-0.8,0.3-1.2,0.7c-0.2,0.2-0.4,0.4-0.5,0.7
		c-0.1,0.3-0.2,0.6-0.2,0.9c0.1,0.6,0.3,1,0.6,1.3c0.1,0.2,0.3,0.3,0.4,0.4c0.1,0.1,0.2,0.2,0.3,0.4c0.4,0.5,0.8,1,1.1,1.6
		c0.3,0.6,0.4,1.1,0.2,1.6c-0.1,0.2-0.3,0.4-0.5,0.6l-0.2,0.1c-0.1,0.1-0.2,0.1-0.3,0.2c-0.2,0.1-0.3,0.3-0.4,0.4
		c-0.5,0.5-1,1.1-1.3,1.8c-0.2,0.3-0.4,0.6-0.5,1c-0.1,0.3-0.2,0.8-0.2,1.2c0,0.1,0,0.2,0,0.3c-0.6,0.6-1.3,0.8-2.1,1
		c-0.9,0.2-1.9,0.3-2.8,0.4c-1,0.1-1.9,0.3-2.9,0.4c-0.4,0.1-0.8,0.1-1.2,0.1c0-0.4-0.3-0.9-0.6-1.2c-0.4-0.3-0.8-0.6-1.3-0.7
		c-0.4-0.1-0.9-0.2-1.3-0.2c0.2-0.3,0.3-0.6,0.4-1c0.1-0.4,0.2-0.8,0.2-1.2l0.1-1l0.3-2.4l-1.6,1.6c-0.3,0.3-0.7,0.6-1.2,0.7
		c-0.2,0.1-0.4,0.1-0.7,0.2c0.2-0.4,0.4-0.8,0.5-1.2c0.2-0.4,0.3-0.8,0.4-1.2c0.1-0.4,0.2-0.8,0.3-1.2l0.2-0.9l-0.9,0.6
		c-0.3,0.2-0.7,0.2-1.1,0.1c-0.1,0-0.1,0-0.2-0.1c0.3-0.3,0.6-0.5,0.8-0.8c0.5-0.6,0.9-1.3,1.1-2l0,0l0.1-0.2
		c0.3-0.5,0.6-0.9,0.9-1.5c0,0,0-0.1,0-0.1c0-0.1-0.1-0.1-0.1,0h0c-0.4,0.2-0.7,0.4-1.1,0.7c-0.6-0.4-1.2-1-1.5-1.6
		c-0.2-0.3-0.3-0.7-0.3-1c-0.1-0.4-0.1-0.8-0.1-1.2C98.5,41.1,98.5,40.2,98.7,39.3z M122.4,49.4c0,0.2,0.1,0.4,0.1,0.6
		c-0.1,0-0.1,0.1-0.2,0.1c-0.6,0.3-1.1,0.5-1.7,0.5c-0.6,0-1.2-0.2-1.7-0.5c-0.1-0.1-0.2-0.2-0.4-0.3c-0.1-0.2-0.1-0.4-0.2-0.6
		c-0.3-0.7-0.7-1.4-1.2-1.9c-0.1-0.1-0.2-0.3-0.4-0.4c-0.1-0.1-0.2-0.2-0.3-0.3c-0.2-0.2-0.3-0.5-0.2-0.6c0-0.1,0.1-0.1,0.2-0.3
		c0.2-0.1,0.4-0.2,0.7-0.3c1.2-0.3,2.5-0.5,3.9-0.5c1,0,1.9,0,2.9,0c-0.1,0.1-0.1,0.1-0.2,0.2c-0.5,0.6-0.8,1.3-1.1,2
		C122.5,47.7,122.3,48.5,122.4,49.4z M22.3,124.8c-0.5,0-0.9-0.3-0.9-0.8c-0.2-1.7-0.2-2.5,0.3-3.3c3.1,1.7,6.5,3.1,10.3,4.1H22.3z
		 M61,124.2c-0.2,0.9-1,1.3-1.7,1.3c-20.3,0.9-35.3-3.2-44.8-12.3C6.1,105.1,1.9,92.9,1.9,76.7c0-18.4,15.5-23.1,22.8-24.8
		c-0.2,0.3-0.5,0.6-0.7,0.9c-1.3,1.9-2.2,4-2.7,6.1c-0.1,0.4-0.1,0.7-0.2,1.1c-5.2,0.9-14.4,5.5-14.4,17c0,15.2,4.3,26.9,12.9,34.7
		c13,11.8,32.3,11.2,40,10.4c0.5-0.1,0.8,0.2,1,0.4C60.9,123,61.1,123.6,61,124.2z M21.4,110.8c-0.2-0.2-0.4-0.3-0.6-0.5
		c-8.2-7.4-12.3-18.6-12.3-33.3c0-11.1,9.2-14.2,12.2-15c-0.7,5.1-0.7,12.4,2.5,22.4c-0.1,1-0.2,2.4-0.4,4.2
		C22.2,94.7,21.1,104.4,21.4,110.8z M31.1,116.8c2.1-4.7,5.3-12.9,6.1-17c0.5-2.3,0.9-4.3,1.3-6c0.5-2,0.8-3.6,1-4.9
		c0.9,1.5,2.3,3.4,4.1,4.7c0.2,3.5,2.9,14.8,5.5,22.7c0.2,0.6,0.2,1.2,0.1,1.8c-0.2,0.9-0.3,1.7-0.3,2.5
		C43.6,120.3,37.2,119.3,31.1,116.8z M55.4,89.5c0.1,1.2,0.2,3.7,0.4,6.8c0.6,10,1.1,19,1.5,20.7c0.7,2.9,5.9,2.8,10.2,2.7
		c0.6,0,1.1,0,1.6,0c1.6,0,2.6,1.5,3.1,2.8c0,0,0,0.1,0,0.1c0,0-0.1,0-0.1,0h-9.4c-0.2-0.5-0.4-0.9-0.7-1.2c-0.7-0.8-1.6-1.1-2.6-1
		c-2.1,0.2-5.1,0.4-8.5,0.4c0-0.6,0.1-1.4,0.3-2.2c0.2-0.9,0.1-1.9-0.2-2.8c-3-9.1-5.5-20.5-5.4-22.5l0-0.5l-0.4-0.3
		c-3.4-2.3-5.2-6.9-5.3-6.9c0,0,0,0,0-0.1c0.1-1.2,0.2-2.4,0.3-3.6c0.2-2,0.5-4,0.9-6c0.2-0.7,0.3-1.5,0.5-2.2
		c2.8,2.4,6.5,5.1,9.5,7c0.6,0.4,1.2,0.8,1.9,1.1C53.1,82.3,53.9,85.8,55.4,89.5z M114.3,68C114.3,68,114.3,68,114.3,68
		c-0.4,0.7-0.8,1.3-1.2,1.9c-0.4,0.6-0.8,1.3-1.1,1.9l-0.6,1c-0.2,0.3-0.4,0.6-0.6,1l-0.2,0.4l0.1,0.2c0.4,0.9,0.8,2,0.9,3
		c0.1,0.5,0,1.1-0.1,1.6c-0.1,0.5-0.3,1.1-0.4,1.6c-0.3,1-0.5,2.1-0.5,3.1c-0.1,0.9-0.1,1.9-0.1,2.8c0,0.1,0,0.2,0,0.2
		c-0.3,1.7-0.5,3.5-0.7,5.2c-0.2,2.1-0.5,4.3-0.7,6.4c-0.2,2.1-0.2,4.3-0.4,6.5c-0.2,2.2-0.6,4.3-1.1,6.4l0,0l0,0.1
		c0,1.3-0.1,2.6-0.3,3.9c-0.1,1.3-0.3,2.6-0.2,4.1c0,0.2,0,0.4,0.1,0.5c0,0.2,0.1,0.5,0.2,0.7c0.2,0.5,0.6,0.9,1.1,1.1
		c0.2,0.1,0.5,0.2,0.7,0.2c0.1,0,0.3,0,0.4,0l0.2,0c0.3,0,0.6,0,0.9,0.1c1.2,0.1,2.4,0.4,3.2,1c0.4,0.3,0.8,0.7,1.1,1.1
		c0.1,0.1,0.2,0.2,0.2,0.4l-0.2,0l-1,0c-0.7,0-1.3,0.1-2,0.1c-2,0.1-3.9,0.3-5.9,0.5c-0.1-0.2-0.2-0.3-0.3-0.4
		c-0.6-0.7-1.3-1.5-2.2-2.3c-0.3-0.3-0.5-0.7-0.5-1.1c0.4-3.8-2.3-13.7-3.1-16.6c0-0.1-0.1-0.3,0-0.4c0.1-2.6,0.1-4.9-0.4-6.3
		c-0.6-3.4,0.2-8.5,0.8-11.3c0,0,0,0,0,0c0.6-1,1.1-2,1.6-3c0.5-1,0.9-2,1.2-3.1c0.3-1.1,0.6-2.1,0.7-3.2c0.2-1.1,0.2-2.2,0.1-3.3
		c-0.1,1.1-0.3,2.1-0.6,3.2c-0.3,1-0.7,2-1.2,3c-0.5,1-1,1.9-1.6,2.8c-0.5,0.7-1,1.5-1.6,2.2c-0.3,0.1-0.5,0.3-0.5,0.6
		c-0.2,0.8-1.8,7.8-0.9,12.6l0,0.1c0.4,1.1,0.4,3.4,0.3,5.9c0,0,0,0,0,0.1c-0.1,2.1-0.3,4.2-0.5,6c-0.2,2.1-0.3,3.7-0.3,4.6
		c0,2.6,0,2.9,0.6,5.4c0.2,0.9,0.9,1.6,1.8,1.8c1.8,0.4,3.3,1.9,4.2,3c0,0,0,0.1,0.1,0.1c0.1,0.1,0.1,0.2,0.2,0.2
		c-2.9,0-8.6,0.1-11.8,0.1c-0.2,0-0.4-0.2-0.4-0.4c0-0.5,0-1,0-1.7l0-1.3c0-1.2-0.2-2.3-0.6-3.5c-1.8-4.7-2.8-11.7-3.5-17.3
		c-0.3-2-0.5-3.7-0.7-5.2l0-0.1l-0.1-0.1c-3.5-6.8-1.9-14.8-1.3-17.2c0.2-0.2,0.3-0.6,0.2-0.9c0-0.3-0.1-0.5-0.2-0.7
		c-0.4-1.2-0.7-2.5-1-3.8c-0.3-1.5-0.6-3-0.7-4.5c-0.1-1.5-0.1-3.1,0-4.6c0.2-1.5,0.5-3,1.1-4.5c-0.7,1.4-1.3,2.9-1.6,4.4
		c-0.3,1.5-0.5,3.1-0.5,4.7c0,1.6,0.1,3.2,0.2,4.7c0.1,1.3,0.3,2.6,0.6,3.9c0,0.2,0,0.4,0,0.6c-0.2,0.6-0.4,1.4-0.6,2.6
		c-0.1,0.6-1,0.8-1.6,1c-3.1,1-5.8,1.1-9,1.4c-0.9,0.1-1.9,0.1-2.8,0.2c-0.9,0-1.9,0.1-2.8,0.1c-1.9,0-3.7,0-5.5-0.4l-0.6-0.1
		c0,0-0.1,0-0.1,0l-0.6-0.2c-0.4-0.1-0.9-0.2-1.3-0.4c-0.9-0.3-1.7-0.7-2.6-1c-0.8-0.4-1.6-0.7-2.5-1.1c-0.1-0.1-0.2-0.1-0.3-0.1
		c-0.8-0.4-1.6-0.8-2.3-1.2c-2.8-1.5-6.3-3.6-9.3-5.3c-0.5-0.3-0.8-0.9-0.6-1.5c0.2-0.8,0.5-1.7,0.8-2.5c0.7-1.9,1.5-3.8,2.5-5.5
		c-1.2,1.7-2.1,3.5-3,5.3c-0.5,1.1-0.9,2.2-1.2,3.3c0,0,0,0-0.1,0c0,0,0,0,0.1,0c-0.3,0.8-0.5,1.7-0.8,2.5c-0.6,2-1,4-1.4,6
		c-0.2,1.3-0.5,2.6-0.6,3.9c-0.1,0.1-0.1,0.3-0.1,0.4c-0.1,0.5-0.1,1.1-0.2,1.6c0,0.1-0.1,0.1-0.1,0.2c-0.2,1.3-0.6,3.1-1.1,5.7
		c-0.4,1.7-0.8,3.7-1.3,6C34.7,103,32,110,30,114.7c-0.3,0.7-1.1,1-1.8,0.7c-1.4-0.8-2.8-1.6-4.2-2.6c-0.3-0.2-0.5-0.6-0.6-1
		c-0.5-6.2,0.6-16.6,1.3-23c0.2-1.9,0.4-3.4,0.4-4.4l0-0.2l-0.1-0.2c-3.8-12-2.9-19.8-1.9-24.7c0.4-1.9,1.2-3.8,2.4-5.4
		c0.5-0.7,1.1-1.4,1.8-2.1c0.2-0.2,0.6-0.7,0.7-0.8c0.3-0.1,0.5-0.4,0.5-0.7c0.1-0.4,0.3-0.8,0.7-0.9c2.4-1.2,4.9-2.1,7.4-2.7
		c0.8-0.2,1.5-0.3,2.3-0.4c0.8-0.1,1.6-0.1,2.4-0.1c1.6-0.1,3.2-0.2,4.9-0.3c3.2-0.3,6.5-0.5,9.8-0.3c3.3,0.2,6.5,0.6,9.7,1.1l0.1,0
		c0.6,0,1.2,0.1,1.9,0.2l2,0.3c1.3,0.2,2.7,0.4,4,0.6c2.7,0.3,5.4,0.5,8.1,0.4c2.7-0.1,5.5-0.5,8.1-1.3c2-0.6,4-1.2,5.8-2.2
		c0.6-0.3,1.3-0.2,1.7,0.4c0,0,0,0.1,0.1,0.1c0.7,1,1.7,1.5,2.8,1.7l0.1,0c-0.5,0.5-1,0.9-1.5,1.3c-0.3,0.2-0.6,0.4-0.9,0.6
		c-0.3,0.2-0.6,0.3-0.9,0.4l-1.1,0.5l1,0.7c0.5,0.4,1.1,0.6,1.8,0.7c0.3,0,0.7,0,1-0.2c0,0,0.1,0,0.1-0.1c0,0.1,0,0.2,0,0.3
		c-0.1,0.4-0.2,0.8-0.4,1.1c-0.3,0.7-0.8,1.3-1.4,1.7l-1,0.7l1.4,0.2c0.6,0.1,1.3,0.1,2,0c0.1,0,0.3-0.1,0.4-0.1
		c0,0.2,0,0.4-0.1,0.6c-0.1,0.6-0.4,1.2-0.7,1.9l-0.8,1.7l1.6-0.8c0.6-0.3,1.4-0.5,2.2-0.4c0.4,0.1,0.8,0.1,1.1,0.3
		c0.3,0.2,0.6,0.4,0.7,0.8c-0.5,0-1,0-1.5,0l-0.4,0l0.3,0.3c0.4,0.5,0.9,0.9,1.4,1.2c0.3,0.2,0.6,0.3,0.8,0.4
		c0.2,0.1,0.4,0.1,0.6,0.2c0,0.1,0,0.2-0.1,0.3c0,0.1-0.1,0.3-0.2,0.3c-0.2,0.2-0.3,0.3-0.6,0.4l-2.3,0.7l2.4,0.4
		c0.7,0.1,1.4,0.4,2,0.8c0.3,0.2,0.4,0.4,0.4,0.5c0,0.1,0,0.4-0.2,0.7l-1.5,1.8l2.1-0.9c0.7-0.3,1.4-0.6,2.1-0.9
		c0.1,0,0.3-0.1,0.4-0.2c0.5-0.2,1,0,1.3,0.3c0.5,0.4,1.1,0.8,1.7,1C114.4,66.4,114.7,67.3,114.3,68z M101.6,121.2
		c-0.4-0.2-0.7-0.3-1.1-0.4c-0.2,0-0.3-0.2-0.4-0.4c-0.5-2.3-0.5-2.5-0.6-5c0-0.8,0.1-2.5,0.3-4.5c0-0.1,0-0.2,0-0.3
		C100.9,115,101.7,119.5,101.6,121.2z M119.8,64.4l-2.2,0.3c-0.7,0.1-1.4,0.1-2.1,0.1c-0.9,0-2.7-0.3-3.8-0.7
		c-0.2-0.1-0.5-0.1-0.8,0c-0.4,0.1-0.6,0.1-0.9,0.2c-0.3,0.1-0.6,0.1-1,0.2c0-0.1,0-0.2,0-0.3c-0.1-0.7-0.5-1.2-0.9-1.5
		c-0.4-0.3-0.8-0.5-1.3-0.6c-0.1,0-0.2,0-0.2-0.1c0,0,0-0.1,0.1-0.1c0.1-0.2,0.1-0.5,0.1-0.7c0-0.2,0-0.4-0.1-0.7l-0.1-0.2l-0.2,0
		c-0.3,0-0.6-0.1-0.8-0.2c-0.3-0.1-0.5-0.2-0.8-0.3c-0.4-0.2-0.7-0.4-1-0.7c0.8,0,1.7,0.1,2.5,0.1c1,0.1,2,0.2,3,0
		c1-0.1,2-0.3,3-0.7c0.5-0.2,1-0.5,1.4-0.8c0.2-0.2,0.4-0.4,0.5-0.6c0.1,0.5,0.2,0.9,0.4,1.4c0.5,1.4,1.2,2.6,2.2,3.7
		C117.5,63.2,118.6,63.9,119.8,64.4C119.8,64.4,119.8,64.4,119.8,64.4z M123,58.4c-0.7,0.1-1.4,0.1-2.1,0.1l-0.2,0l-0.3-0.1
		c-0.2,0-0.4-0.1-0.5-0.1c-0.4,0-0.7,0-1.1,0.1c-0.1,0-0.1,0-0.1,0.1c0,0.1,0,0.1,0.1,0.1c0.3,0,0.7,0,1,0.1c0.2,0,0.3,0.1,0.5,0.1
		l0.5,0.2c0.7,0.2,1.4,0.3,2.2,0.4c0.9,0.1,1.8,0,2.7-0.1c-0.3,0.5-0.6,0.9-0.9,1.3c-0.4,0.6-0.8,1.2-1.2,1.7
		c-0.2,0.3-0.4,0.5-0.7,0.7c-0.3,0.2-0.7,0.4-1,0.5c-0.6,0.3-1.2,0.4-1.8,0.5c-1.3-0.4-2.4-1.2-3.3-2.3c-0.9-1-1.6-2.3-2-3.6
		c-0.2-0.7-0.3-1.3-0.3-2c0-0.3,0.1-0.6,0.2-0.9c0.1-0.3,0.3-0.6,0.5-0.9c0.4-0.6,0.8-1.1,1.3-1.5c0.1-0.1,0.2-0.2,0.4-0.3
		c0.1,0,0.1-0.1,0.2-0.1l0.3-0.1c0.4-0.2,0.7-0.5,0.9-0.9c0.2-0.3,0.3-0.6,0.3-0.9c0.5,0.5,1.2,0.8,2,0.8c0.8,0,1.6-0.4,2.2-0.9
		c0,0,0,0,0,0c0,0,0,0,0,0c0.1,0.2,0.3,0.4,0.4,0.6l0.4,0.4c0.9,0.9,1.6,1.9,2,3c0.4,0.9,0.6,2,0.7,3
		C125.2,58.1,124.1,58.3,123,58.4z"/>
</g>
</svg>
