<?xml version="1.0" encoding="utf-8"?>
<!-- Generator: Adobe Illustrator 18.1.0, SVG Export Plug-In . SVG Version: 6.00 Build 0)  -->
<svg version="1.1" baseProfile="tiny" id="Layer_1" xmlns="http://www.w3.org/2000/svg" xmlns:xlink="http://www.w3.org/1999/xlink"
	 x="0px" y="0px" viewBox="0 0 128 128" 
width="128" height="128"
xml:space="preserve">
<g>
	<polygon fill="#AA6D43" points="87.5,32.2 77.9,41.7 63.5,27.3 63.4,27.3 72.9,17.8 	"/>
	<path fill="#A3A9AE" d="M112.3,10.3L32.8,89.2l6.4,6.3l67.5-64.1C113.3,24.9,115.2,17.5,112.3,10.3z"/>
	<path fill="#AA6D43" d="M34.5,93.6L4.2,123.5c-1.3-1.4-2.2-3.1-2.2-4.4c0-0.5,0.1-0.9,0.4-1.2c0.4-0.4,1.1-0.4,1.5-0.4l0.5,0.1
		l27-27L34.5,93.6z"/>
	<polygon fill="#AA6D43" points="87.9,14.4 88.5,8.3 83.6,10.2 87.9,14.4 	"/>
	<polygon fill="#915E3C" points="73.4,94.6 77.7,94.6 76.5,85.3 	"/>
	<path fill="#E1E1E1" d="M125.7,17.3c0.1-5.3-1.9-10.3-5.9-14.5l-6.1,6.1c3.7,8.2,1.7,16.7-5.7,24L40.7,97l4.3,4.2l74.3-69.3
		C123.3,27.8,125.6,22.6,125.7,17.3z"/>
	<path fill="#AA6D43" d="M126,71.5l-9,9l-15.3-15.2l3.3,0.3l0.9-6.8l4.7-2.3c0,0,0,0,0.1,0L126,71.5z"/>
	<polygon fill="#915E3C" points="112.2,47.8 123.7,45.9 117.9,42.7 	"/>
	<path fill="#FEDBAB" d="M94.7,62.6l8.6,0.9l0.8-6l5.1-2.5l-1.5-1.4l-7.1-1.8L87.6,64c0,0.1,0.1,0.2,0.1,0.2l0.9,8.4l1.5,1.5l1-1.4
		l6.7,0.2L94.7,62.6z"/>
	<path fill="#2D2D2D" d="M108.7,51.8l-6.4-1.6l18.2-17c4.5-4.5,7-10.1,7.1-15.9c0.1-6.1-2.3-11.9-7.1-16.7L119.9,0l-31,30.8
		L74.3,16.4c-0.8-0.7-2-0.7-2.7,0L52.2,35.7c-0.4,0.4-0.6,0.8-0.6,1.4c0,0.5,0.2,1,0.6,1.4l14.5,14.4L30.7,88.5L30,89.2l0,0
		L3.6,115.6c-1.1,0-2,0.3-2.6,1c-0.6,0.6-1,1.5-1,2.5c0,1.9,1.1,4.1,3,6c1.9,1.9,4.2,2.9,6,2.9c1,0,1.9-0.3,2.6-1
		c0.7-0.7,1-1.6,1-2.6L39,98.1l5.9,5.9l41-38.2l0.9,8l18.6,18.6c0.4,0.4,0.9,0.6,1.4,0.6c0.5,0,1-0.2,1.4-0.6l19.4-19.3
		c0.4-0.4,0.6-0.8,0.6-1.4c0-0.5-0.2-1-0.6-1.4L108.7,51.8z M53.5,37.1l19.3-19.3l14.6,14.4L68,51.5L53.5,37.1z M10.9,123.2
		l-0.5,0.5l0.1,0.5c0.1,0.5,0,1.1-0.4,1.5c-0.9,0.9-3.5,0.3-5.8-2c-1.4-1.4-2.4-3.2-2.4-4.6c0-0.5,0.1-0.9,0.4-1.2
		c0.4-0.4,1.1-0.4,1.5-0.4l0.5,0.1l27-27l6.1,6L10.9,123.2z M32.8,89.2l79.4-78.9c2.9,7.2,1,14.6-5.6,21.1L39.3,95.6L32.8,89.2z
		 M44.9,101.2L40.7,97l67.4-64.1c7.4-7.4,9.4-15.9,5.7-24l6.1-6.1c4,4.3,6,9.3,5.9,14.5c-0.1,5.3-2.4,10.4-6.5,14.5L44.9,101.2z
		 M90.1,74.2l-1.5-1.5l-0.9-8.4c0-0.1,0-0.2-0.1-0.2l13.1-12.2l7.1,1.8l1.5,1.4l-5.1,2.5l-0.8,6l-8.6-0.9L97.8,73l-6.7-0.2
		L90.1,74.2z M106.7,90.8L91.5,75.6l0.6-0.8l8.4,0.3l-3.1-10.2l7.6,0.8l0.9-6.8l4.7-2.3c0,0,0,0,0,0L126,71.5L106.7,90.8z"/>
	<path fill="#2D2D2D" d="M118.9,41c-0.7-0.4-1.6-0.3-2.3,0.2l-5.8,5.1c-0.6,0.5-0.8,1.4-0.5,2.2c0.3,0.8,1,1.3,1.8,1.3
		c0.1,0,0.2,0,0.3,0l11.5-1.9c0.8-0.1,1.5-0.8,1.6-1.6c0.1-0.8-0.2-1.6-1-2L118.9,41z M112.2,47.8l5.7-5.1l5.8,3.2L112.2,47.8z"/>
	<path fill="#2D2D2D" d="M86.5,15.8c0.4,0.4,0.9,0.6,1.4,0.6c1,0,1.9-0.8,2-1.8l0.6-6.1C90.5,8,90.3,7.4,90,7
		c-0.5-0.6-1.4-0.8-2.1-0.5l-4.9,1.8c-0.6,0.2-1.1,0.8-1.2,1.4c-0.1,0.7,0.1,1.3,0.5,1.8L86.5,15.8z M88.5,8.3l-0.6,6.1l0,0
		l-4.3-4.3L88.5,8.3z"/>
	<path fill="#2D2D2D" d="M78.4,85c-0.1-1-1-1.7-2-1.7c-0.9,0-1.6,0.5-1.9,1.3L71.5,94c-0.2,0.6-0.1,1.3,0.3,1.8
		c0.4,0.5,1,0.8,1.6,0.8h4.4c0.6,0,1.1-0.2,1.5-0.7c0.4-0.4,0.5-1,0.5-1.5L78.4,85z M73.4,94.6l3.1-9.3l1.3,9.3L73.4,94.6z"/>
	<polygon fill="#915E3C" points="77.9,41.7 68,51.5 53.5,37.1 63.4,27.3 63.5,27.3 	"/>
	<polygon fill="#915E3C" points="117,80.5 106.7,90.8 91.5,75.6 92.1,74.8 100.5,75.1 97.4,64.9 101.7,65.3 	"/>
	<path fill="#915E3C" d="M11,123.2l-0.5,0.5l0.1,0.5c0,0.5,0,1.1-0.4,1.5c-0.9,0.9-3.5,0.3-5.8-2c-0.1-0.1-0.1-0.1-0.2-0.2
		l30.3-29.9l3.1,3.1L11,123.2z"/>
</g>
</svg>
