<?xml version="1.0" encoding="utf-8"?>
<!-- Generator: Adobe Illustrator 23.0.0, SVG Export Plug-In . SVG Version: 6.00 Build 0)  -->
<svg version="1.1" id="Layer_1" xmlns="http://www.w3.org/2000/svg" xmlns:xlink="http://www.w3.org/1999/xlink" x="0px" y="0px"
	 viewBox="0 0 128 128" style="enable-background:new 0 0 128 128;" xml:space="preserve">
<style type="text/css">
	.st0{fill:#DEE2E5;}
	.st1{fill:#4F5356;}
	.st2{fill:#3A3D3F;}
	.st3{fill:#848789;}
	.st4{fill:#2D2D2D;}
</style>
<g>
	<path class="st0" d="M62.6,53.9L62.6,53.9l-0.2-0.1c-0.3-0.2-0.6-0.5-0.7-0.7c-0.3-0.5-0.4-1-0.5-1.5c-0.2-0.9-0.2-1.8-0.3-2.6
		c-0.1-1.7,0-3.4-0.1-5c-0.1-1.6-0.3-3.2-0.8-4.7c-0.3-0.7-0.6-1.4-1.1-2c-0.1-0.2-0.2-0.3-0.4-0.5c-0.1,0-0.2,0.1-0.3,0.1
		c-0.2,0.2-0.3,0.4-0.4,0.7c-0.2,0.5-0.3,1.1-0.3,1.7c0,1.1,0.3,2.3,0.9,3.1c0.1,0.1,0.2,0.2,0.3,0.3c0.1,0.1,0.2,0.2,0.3,0.4
		c0.2,0.3,0.4,0.6,0.6,0.9c0.3,0.6,0.5,1.3,0.5,2c0.1,1.4-0.3,2.6-0.9,3.8c-0.1,0.3-0.3,0.6-0.5,0.9c-0.2,0.3-0.4,0.6-0.5,0.7
		c-0.3,0.4-0.3,0.8-0.3,1.3c0.1,1,0.5,2.2,0.8,3.4c0.3,1.2,0.5,2.5,0.5,3.7c0,1.3-0.2,2.5-0.7,3.7c-0.5,1.2-1.3,2.3-2.5,2.9
		c-0.6,0.3-1.2,0.5-1.9,0.5c-0.7,0-1.3-0.4-1.8-0.8c-0.9-0.9-1.4-2.1-1.6-3.3c-0.1-0.6-0.2-1.2-0.1-1.9c0-0.6,0.2-1.2,0.3-1.8
		c0.3-1.2,0.6-2.4,0.7-3.5c0-0.6,0-1.1-0.1-1.7c-0.1-0.6-0.2-1.1-0.4-1.6c-0.4-1.1-0.9-2.2-1.3-3.3c-0.2-0.5-0.5-1.1-0.8-1.4
		c-0.2-0.1-0.4-0.2-0.6-0.2c-0.2,0-0.4,0.1-0.6,0.3l0.4,0.7c0.4,0.8,0.8,1.6,1,2.5c0.1,0.4,0.1,1,0.1,1.4c-0.1,0.5-0.2,0.9-0.3,1.3
		c-0.5,1.7-1.2,3.3-1.5,5c-0.2,0.8-0.3,1.7-0.3,2.5c0,0.8,0.1,1.6,0.3,2.5c0.7,3.4,1.4,6.8,2.1,10.3l1.1,5.1l0.5,2.6
		c0.1,0.4,0.2,0.9,0.2,1.4c0.1,0.4,0.1,0.9,0.2,1.3c0.3,3.5,0.4,7.1,0.4,10.6c0,3.5-0.1,7-0.3,10.6c0,0.4-0.1,0.9-0.1,1.4
		c-0.1,0.4-0.1,0.8-0.1,1.2c0,0.8,0,1.6,0.3,2.2c0.1,0.3,0.3,0.5,0.5,0.6c0.1,0,0.2,0.1,0.3,0.1c0.1,0,0.2,0,0.4-0.1
		c0.8-0.2,1.5-0.5,2.2-0.9c1.4-0.8,2.5-1.9,3.1-3.4c0.3-0.7,0.5-1.5,0.6-2.3c0.1-0.8,0-1.6,0-2.5l0-0.5l0.5-0.1
		c0.3-0.1,0.5-0.1,0.7-0.2c0.2-0.1,0.2-0.2,0.3-0.3c0-0.1,0-0.4,0-0.7c0-0.3-0.1-0.6-0.2-0.8c-0.2-0.5-0.4-1.1-0.5-1.6
		c-0.1-0.6,0-1.2,0.2-1.8c0.2-0.6,0.4-1.1,0.8-1.6c0.3-0.4,0.6-0.8,0.9-1.1c-0.5-0.8-0.8-1.7-0.9-2.7c-0.1-1.1,0-2.1,0.1-3.1l0-0.1
		l0-0.1c0.2-0.5,0.5-0.9,0.6-1.4c0.1-0.4,0-0.9-0.1-1.4c-0.2-0.5-0.5-1-0.6-1.6c-0.1-0.3-0.1-0.6,0-0.9c0.1-0.3,0.3-0.6,0.5-0.8
		c0.4-0.4,0.9-0.7,1.3-1c0.4-0.3,0.9-0.6,1.3-0.9c0.4-0.3,0.7-0.7,0.7-1.2c0.1-0.4-0.1-0.9-0.3-1.4c-0.5-0.9-1.3-1.6-2.2-2.2
		l-0.3-0.2l0.2-0.3c0.5-0.8,0.6-1.7,0.5-2.6c-0.1-0.9-0.5-1.8-1-2.5L61,67.9l0.2-0.4c0.4-0.7,0.5-1.7,0.5-2.7c0-0.5-0.1-1-0.2-1.4
		c-0.1-0.5-0.3-1-0.5-1.2l-0.3-0.5l0.4-0.5c0.1-0.1,0.3-0.4,0.4-0.8c0.1-0.3,0.2-0.7,0.4-1.1c0.2-0.8,0.4-1.6,0.9-2.4l0.1-0.2
		l0.2-0.1c0.3-0.2,0.5-0.4,0.7-0.6c0.2-0.2,0.2-0.4,0.2-0.6c0-0.4-0.5-1-1-1.3C62.9,54,62.8,54,62.6,53.9L62.6,53.9z"/>
	<path class="st0" d="M79.2,50.9c-0.4,0.2-0.8,0.4-1.3,0.4c-0.5,0-1-0.3-1.4-0.6c-0.6-0.7-0.9-1.5-1.1-2.2c-0.2-0.7-0.4-1.5-0.5-2.2
		l-0.2-1.1c-0.1-0.3-0.1-0.7-0.2-1c-0.2-0.6-0.5-1.2-1.1-1.4c-0.2-0.1-0.4-0.1-0.6-0.1c-0.6,0.7-1.3,1.3-1.9,1.9
		c-0.7,0.7-1.5,1.3-2.2,2c0.6,0.7,1.1,1.4,1.6,2.2c0.6,1,1.2,2,1.5,3.2c0.2,1.1,0.7,2.1,1.1,3.1c0.5,1,1,2,1.5,3
		c0.5,1,1.1,1.9,1.8,2.9c0.3,0.5,0.6,0.9,1,1.3l0.5,0.7l0.5,0.7c1.3,1.9,2.4,4,3.4,6.1c0.5,1.1,0.9,2.1,1.3,3.2
		c0.2,0.6,0.3,1.2,0.5,1.7c0.2,0.5,0.4,1,0.6,1.5c0.5,1,1.2,1.9,1.7,3c0.1,0.1,0.1,0.3,0.1,0.5c0,0.1,0,0.2,0,0.3l0,0.2
		c0,0.3,0,0.6,0,0.8c0.1,0.6,0.1,1.1,0.2,1.7c0.1,0.5,0.3,1.1,0.5,1.6c0.2,0.5,0.5,1,0.9,1.2c0.4,0.3,0.9,0.3,1.3,0.1
		c0.4-0.2,0.8-0.6,1.1-1c0.6-0.9,0.9-2,1.1-3.1c0.2-1.1,0.3-2.2,0.3-3.3l0-0.3l0.3-0.2c0.2-0.2,0.3-0.7,0.2-1.2
		c-0.1-0.5-0.3-1.1-0.5-1.6c-0.2-0.5-0.5-1-0.9-1.4c-0.4-0.4-0.8-0.7-1.1-0.9L89,72.6l-0.1-0.5c-0.2-0.8-0.6-1.7-0.9-2.6
		c-0.2-0.5-0.4-0.9-0.5-1.5c-0.1-0.3-0.1-0.6-0.2-0.9c0-0.3,0-0.8,0.3-1.3c0.1-0.2,0.4-0.4,0.6-0.5l0.3-0.1c0,0,0.1,0,0.1,0
		c0.1-0.1,0.2-0.1,0.3-0.2c0.1-0.2,0.2-0.3,0.1-0.5c-0.1-0.4-0.7-0.9-1.4-1.2l-0.3-0.1l-0.2-0.3c-0.3-0.6-0.4-1.2-0.4-1.7
		c-0.1-0.5-0.1-1-0.2-1.3c-0.1-0.4-0.2-0.6-0.3-0.8c-0.2-0.2-0.4-0.3-0.8-0.4l-0.6-0.2l-0.1-0.5c-0.1-0.3-0.2-0.7-0.4-1.1
		c-0.2-0.4-0.3-0.8-0.5-1.3c-0.1-0.5-0.3-0.9-0.4-1.5c0-0.3,0-0.6,0-0.9c0.1-0.3,0.2-0.7,0.5-1.1l0.1-0.1l0,0c0.1,0,0.2-0.3,0.3-0.5
		c0.1-0.3,0.1-0.6,0.1-0.8c0-0.6-0.2-1.1-0.6-1.3c-0.1-0.1-0.2-0.1-0.3-0.2c-0.1,0-0.1,0-0.2-0.1L83,48.8c-0.6-0.1-1-0.5-1.3-0.8
		c-0.1-0.1-0.2-0.2-0.3-0.3c-0.1,0.5-0.3,0.9-0.6,1.4C80.4,49.8,79.9,50.5,79.2,50.9z"/>
	<path class="st1" d="M10.7,114.9c0.8-1,1.5-1.9,2.4-2.8l0.4-0.3l0.3-0.3l0.6-0.6c0.4-0.4,0.8-0.8,1.2-1.2c0.8-0.9,1.6-1.7,2.3-2.7
		c0.4-0.5,0.7-0.9,1-1.4c0.3-0.5,0.6-1,0.7-1.4l0.2-0.5l0.9-0.2c0.1,0,0.1,0,0.2,0c0.1,0,0.2,0,0.3,0c0.2,0,0.4-0.1,0.6-0.1
		c0.4-0.1,0.9-0.2,1.4-0.3c0.9-0.2,1.8-0.5,2.7-0.8l5.5-1.6c0.9-0.3,1.9-0.5,2.8-0.7c0.5-0.1,1-0.2,1.4-0.3l0.8-0.1
		c0.3,0,0.6-0.1,0.9-0.1l4.6,0c-0.1-0.2-0.1-0.5-0.2-0.7c-0.2-0.6-0.5-1.1-0.9-1.6c-0.7-1-1.8-1.7-2.9-2c-0.3-0.1-0.6-0.2-0.9-0.2
		c-0.3,0-0.6-0.1-0.9-0.1l-1,0l-1,0c-1.4,0-2.8,0.1-4.2,0.2c-1.4,0.1-2.8,0.2-4.3,0.2c-0.7-0.1-1.5-0.1-2.3-0.4
		c-0.8-0.3-1.5-0.7-2.1-1.4c-0.1-0.2-0.2-0.3-0.4-0.5c-0.1-0.2-0.2-0.4-0.3-0.5l-0.2-0.6c-0.1-0.2-0.1-0.3-0.2-0.5
		c-0.2-0.7-0.4-1.4-0.6-2c-0.2-0.7-0.4-1.4-0.4-2.2c-0.1-0.8-0.1-1.5,0.1-2.3c0-0.2,0.1-0.4,0.2-0.7c0.1-1,0.3-1.9,0.5-2.9
		c0.3-1.1,0.6-2.1,1.1-3.1c0.5-1,1-1.9,1.7-2.8c0.7-0.9,1.5-1.6,2.3-2.3c-0.8,0.8-1.5,1.5-2,2.5c-0.6,0.9-1,1.8-1.4,2.8
		c-0.4,1-0.6,2-0.8,3c0,0.2,0,0.4-0.1,0.5c0.3-0.3,0.7-0.7,1.1-1c0.3-0.2,0.6-0.4,0.9-0.6l0.9-0.6l1.8-1.1c2.4-1.5,4.8-2.9,7.2-4.3
		l7.3-4.2c1.2-0.7,2.4-1.4,3.6-2.2c1.1-0.7,2.1-1.3,3.1-2.1c-0.1-0.6-0.2-1.3-0.3-1.9c-0.1-0.8-0.2-1.8-0.2-2.7
		c0-0.9,0.2-1.8,0.5-2.7c0.5-1.7,1.2-3.4,1.8-5c0.1-0.4,0.3-0.8,0.4-1.2c0.1-0.4,0.1-0.8,0-1.2c-0.2-0.8-0.5-1.6-0.9-2.4
		c-0.4-0.8-0.8-1.6-1.1-2.4c-0.2-0.4-0.4-0.8-0.5-1.2C46,44.7,46,44.5,46,44.2c0-0.2,0.2-0.5,0.4-0.6l0,0c0,0,0,0,0,0
		c0.7-0.3,1.5-0.8,2.1-1.2c0.7-0.5,1.3-1,1.7-1.7c0.1-0.2,0.2-0.3,0.3-0.5l0.1-0.3l0.1-0.3c0.2-0.4,0.4-0.8,0.6-1.2
		c0.4-0.7,0.9-1.5,1.5-2.1c0.6-0.7,1.2-1.3,2.1-1.7c0.4-0.2,0.9-0.4,1.4-0.4c0.5,0,1.1,0.1,1.5,0.4c0.2,0.1,0.4,0.3,0.6,0.4
		c0.2,0.1,0.3,0.3,0.5,0.4c0.3,0.3,0.6,0.6,0.9,1c0.6,0.7,1.1,1.5,1.4,2.3c0.7,1.7,0.9,3.4,1.1,5.1c0.1,0.9,0.1,1.7,0.1,2.5
		c0,0.8,0,1.7,0.1,2.5c0,0.8,0.1,1.6,0.3,2.4c0,0,0,0.1,0,0.1c0.8-0.9,1.5-1.7,2.3-2.6l2.4-2.6l2.4-2.6c0.8-0.9,1.6-1.8,2.3-2.6l0,0
		l0.1-0.1c1.8-1.6,3.6-3.4,5.4-5.1c1.8-1.7,3.7-3.4,5.5-5.1c1.9-1.7,3.7-3.4,5.6-5c1.9-1.6,3.8-3.3,5.6-4.9l0.1-0.1l0.1,0
		c0.7-0.1,1.4-0.5,2.1-0.8c0.7-0.3,1.4-0.7,2-1.1c0.7-0.4,1.3-0.8,2-1.2c0.6-0.4,1.3-0.9,1.9-1.3c1.2-0.9,2.5-1.9,3.6-2.9
		c0.3-0.3,0.5-0.5,0.8-0.8c0.4-0.4,0.9-0.6,1.5-0.7c0.1,0,0.3,0,0.4,0l0.3,0l0.6,0c0.4,0,0.7,0,1.1,0c0.7,0,1.4-0.1,2-0.3
		c0.3-0.1,0.5-0.2,0.7-0.4c0.2-0.2,0.4-0.5,0.6-0.8c0.8-1.2,1.5-2.6,2.2-3.9c0.3-0.7,0.7-1.4,1-2.1l0.5-1.1l0.2-0.5
		c0-0.1,0.1-0.2,0.1-0.2c0-0.1,0-0.1,0-0.2c0-0.2-0.1-0.5-0.3-0.7c-0.1-0.1-0.2-0.2-0.4-0.2L117,1.4c-0.6-0.2-1.2-0.4-1.8-0.6
		c0,0,0,0,0,0c-1.1,0-2.3,0.2-3.4,0.3c-1.1,0.2-2.2,0.4-3.4,0.6c-1.1,0.2-2.2,0.5-3.3,0.7c-1.1,0.3-2.2,0.5-3.3,0.8l-0.1,0l-0.1,0
		c-2.1,0.2-4.3,0.8-6.4,1.4c-1.1,0.3-2.1,0.6-3.2,1c-1.1,0.4-2.1,0.8-3.1,1.2l0,0l0,0c-0.7,0.2-1.4,0.4-2.1,0.6
		c-0.7,0.3-1.3,0.5-2,0.8c-0.7,0.3-1.3,0.5-2,0.8c-0.3,0.1-0.6,0.3-1,0.4l-1,0.4c-1.3,0.6-2.5,1.2-3.8,1.9c-1.2,0.7-2.4,1.5-3.5,2.4
		l0,0c0,0-0.1,0-0.1,0c0,0,0-0.1,0-0.1c0.8-1.2,1.9-2.2,3.1-3c1.2-0.9,2.5-1.6,3.8-2.2c1.3-0.6,2.7-1,4.1-1.4
		c0.7-0.2,1.4-0.3,2.1-0.5c0.7-0.1,1.4-0.3,2.1-0.5c1-0.4,2-0.9,3.1-1.4c1-0.5,2-0.9,3.1-1.4c1-0.4,2.1-0.8,3.2-1.1
		c1.1-0.3,2.2-0.6,3.3-0.7c1.1-0.3,2.2-0.6,3.4-0.8c1.1-0.2,2.3-0.4,3.4-0.5c1.2-0.1,2.3-0.2,3.5-0.2c0,0,0,0,0,0
		c-1.1,0-2.3,0-3.4,0c-2.2,0.1-4.3,0.3-6.5,0.7c-2.1,0.4-4.3,0.9-6.3,1.6c-2.1,0.6-4.1,1.5-6.1,2.3l-0.1,0l-0.1,0
		c-2.8,0.2-5.6,0.7-8.3,1.5c-2.7,0.8-5.4,1.9-7.7,3.4l-0.1,0l-0.1,0c-1.8,0.7-3.5,1.5-5.2,2.4c-1.7,0.9-3.4,1.8-5.1,2.7
		c-3.3,1.9-6.6,4-9.8,6.1c-3.2,2.2-6.3,4.5-9.2,6.9c-3,2.4-5.8,5-8.5,7.7l-0.1,0.1l-0.1,0c-1.2,0.7-2.3,1.5-3.4,2.3
		c-1.1,0.8-2.2,1.7-3.3,2.6c-2.2,1.8-4.3,3.6-6.3,5.5c-2.1,1.9-4,3.9-6,5.9c-0.5,0.5-1,1-1.3,1.6c-0.4,0.6-0.7,1.2-0.9,1.8
		c-0.5,1.3-0.6,2.7-0.4,4l0,0.1l-0.1,0.1c-1.4,2.4-2.2,5.1-2.6,7.9c-0.4,2.8-0.5,5.6-0.2,8.3l0.3,2.1l0.1,0.5l0.1,0.5l0.2,1
		c0.3,1.4,0.7,2.7,1.1,4c0.2,0.7,0.5,1.3,0.7,2l0.8,1.9c0.6,1.3,1.2,2.5,1.8,3.8l0.1,0.1l0,0.1c0.1,1.5,0.4,3.1,0.2,4.8
		c-0.1,1.7-0.8,3.3-1.8,4.6c-0.2,0.4-0.5,0.6-0.8,1c-0.3,0.3-0.6,0.6-0.9,0.9l-0.8,0.8l-0.7,0.9c-1,1.2-1.9,2.4-2.7,3.8
		c-1.6,2.6-3,5.4-4,8.3c-0.5,1.5-0.9,2.9-1.2,4.4c-0.1,0.9-0.2,1.8-0.2,2.7c1.2-1.2,2.4-2.5,3.5-3.9C7.8,118.7,9.2,116.8,10.7,114.9
		z M66.4,19.7c0.2-0.4,0.7-1.3,1.6-1.6c0.9-0.3,1.8,0,2.3,0.2c0.2,0.1,0.2,0.3,0.1,0.4c-0.2,0.4-0.8,1.3-1.6,1.6
		c-0.9,0.3-1.8,0-2.2-0.1C66.3,20.1,66.3,19.9,66.4,19.7z"/>
	<path class="st2" d="M76.3,39.7c-0.9,0.8-1.9,1.6-2.9,2.4c0,0,0,0-0.1,0.1c0.1,0,0.2,0,0.2,0c0.4,0.1,0.8,0.3,1.2,0.6
		c0.3,0.3,0.5,0.7,0.7,1.1c0.2,0.4,0.3,0.8,0.4,1.1l0.2,1.1c0.2,0.7,0.3,1.4,0.5,2.1c0.2,0.7,0.4,1.3,0.8,1.7
		c0.2,0.2,0.3,0.3,0.6,0.3c0.2,0,0.5,0,0.8-0.2c0.6-0.3,1.1-0.7,1.5-1.2c0.3-0.4,0.6-0.8,0.9-1.2c-0.4-0.5-0.7-0.9-1-1.4
		c-0.8-1.4-1.5-2.7-2-4.2c-0.4-1-0.8-1.9-1.1-2.9C76.8,39.3,76.6,39.5,76.3,39.7z"/>
	<path class="st2" d="M57.4,37.5c0.2-0.3,0.4-0.5,0.6-0.7c0.1-0.1,0.2-0.1,0.3-0.1c-0.1-0.1-0.1-0.2-0.2-0.2
		c-0.1-0.1-0.3-0.3-0.4-0.4c-0.2-0.1-0.3-0.3-0.4-0.3c-0.5-0.3-1.2-0.3-1.8,0c-0.7,0.3-1.3,0.8-1.8,1.4c-0.6,0.6-1.1,1.2-1.5,1.9
		c-0.2,0.3-0.4,0.7-0.6,1l-0.1,0.3l-0.2,0.3c-0.1,0.2-0.3,0.4-0.4,0.6c-1.2,1.4-2.7,2.2-4.3,2.7c0,0,0,0,0,0c-0.3,0.2-0.2,0.7-0.1,1
		c0.1,0.4,0.3,0.8,0.5,1.2l0.8,1.5c0.2-0.2,0.3-0.4,0.6-0.5c0.3-0.2,0.8-0.2,1.1,0c0.7,0.4,1,1,1.3,1.5c0.3,0.5,0.6,1.1,0.8,1.7
		c0.3,0.6,0.5,1.1,0.7,1.7c0.4,1.2,0.6,2.6,0.4,3.8c-0.2,1.3-0.6,2.4-1,3.6c-0.2,0.6-0.4,1.1-0.5,1.7c-0.1,0.6-0.1,1.2,0,1.8
		c0.2,1.2,0.7,2.3,1.5,3.1c0.4,0.4,0.9,0.6,1.5,0.6c0.5,0,1.1-0.2,1.5-0.5c1-0.6,1.6-1.6,1.9-2.7c0.3-1.1,0.5-2.2,0.4-3.4
		c-0.1-1.2-0.2-2.3-0.6-3.4c-0.3-1.1-0.8-2.2-1-3.6c-0.1-0.7,0.1-1.5,0.5-2.1c0.2-0.3,0.4-0.5,0.6-0.7c0.2-0.2,0.3-0.5,0.4-0.7
		c0.5-1,0.8-2.1,0.8-3.2c0-0.5-0.1-1.1-0.3-1.5c-0.1-0.2-0.2-0.5-0.4-0.7c-0.1-0.1-0.2-0.2-0.2-0.3c-0.1-0.1-0.2-0.3-0.3-0.4
		c-0.8-1.2-0.9-2.5-0.8-3.8C56.9,38.7,57.1,38,57.4,37.5z"/>
	<path class="st2" d="M24.8,72.9c0,0,8-0.9,11.9-8.1c4.2-7.8,10.2-12.5,12.2-14c0.2,1.5,0.4,1.1-0.5,2.9c-0.9,1.8-1.9,6.7-1.9,8.1
		s0.4,3.7,0.4,3.7s-12.1,7.8-13.2,8.4s-13.8,9.7-13.8,9.7s0.2-2.7,0.5-4.1c0.4-1.3,1.8-4,2.4-4.7C23.4,74.2,24.8,72.9,24.8,72.9z"/>
	<path class="st2" d="M15.4,91.8c-0.2-0.2,3.5,11.3,12.6,10s10.4-1.5,11.3-1.5s1.5-0.5,3.1,0c-0.7-2.7-1.6-7.9-8.6-7
		C26.8,94.2,21.2,96.4,15.4,91.8z"/>
	<path class="st2" d="M103.8,2.4c0.4-0.3-5.5,11-10.3,14.5c-4.8,3.5-12.2,12.4-18,15c-5.8,2.5-13.8,9.6-13.8,9.6s-1.2,9.9,0,10.6
		c1.3,0.2,9.5-9.3,10-9.6c0.4-0.3,19.8-17,21.7-19.9c1.8-2.7,1.3-1.6,1.3-1.6s7.8-2.9,12-7.1c0.9-1.2,0.8-1.3,1.7-1.1
		c0.8,0.1,4.5,1.1,5.5-0.5s4.6-8.3,4.6-9.7s-2.4-1.7-4.3-1.8C112.5,0.6,103.8,2.4,103.8,2.4z"/>
	<path class="st3" d="M82.3,5.7c-0.7,0.1-9.6,6-6.7,6.9c2.3-0.3,5.2-1.5,9.9-3.4c4.8-1.9,12.6-3.4,15.2-5c2.6-1.5,4.5-2.6,4.1-2.6
		S98.7,0.7,95.6,2c-3.2,1.3-6.8,2.8-7.4,2.8S82.3,5.7,82.3,5.7z"/>
	<path class="st4" d="M66.5,20.1c0.5,0.2,1.4,0.5,2.2,0.1c0.9-0.3,1.4-1.1,1.6-1.6c0.1-0.2,0-0.3-0.1-0.4c-0.5-0.2-1.4-0.5-2.3-0.2
		c-0.9,0.3-1.4,1.2-1.6,1.6C66.3,19.9,66.3,20.1,66.5,20.1z"/>
	<path class="st4" d="M1.4,128l1.2-1c2-1.6,3.6-3.4,5.1-5.3c1.5-1.9,3-3.8,4.5-5.6c0.7-0.9,1.5-1.9,2.2-2.6l0.3-0.3l0.4-0.3l0.7-0.6
		c0.4-0.4,0.9-0.9,1.3-1.3c0.8-0.9,1.6-1.8,2.4-2.8c0.4-0.5,0.7-1,1.1-1.5c0.2-0.4,0.5-0.7,0.7-1.2c0.1,0,0.1,0,0.2,0
		c0.3,0,0.5-0.1,0.8-0.2c0.5-0.1,1-0.2,1.4-0.3c0.9-0.2,1.9-0.5,2.8-0.8l5.5-1.6c0.9-0.3,1.8-0.5,2.7-0.7c0.5-0.1,0.9-0.2,1.4-0.3
		l0.7-0.1c0.2,0,0.3,0,0.6-0.1l5.7,0l1.1,0l-0.1-1c-0.1-0.9-0.3-1.6-0.6-2.3c-0.3-0.7-0.7-1.4-1.2-2.1c-1-1.3-2.4-2.2-3.9-2.6
		c-0.4-0.1-0.7-0.2-1.1-0.3c-0.4,0-0.8-0.1-1.1-0.1l-1.1,0l-1.1,0c-1.4,0.1-2.8,0.2-4.2,0.3c-1.4,0.1-2.8,0.3-4.1,0.2
		c-0.7,0-1.3-0.1-1.9-0.3c-0.5-0.2-1-0.5-1.4-0.9c-0.1-0.1-0.2-0.2-0.2-0.3c-0.1-0.1-0.2-0.2-0.2-0.4l-0.2-0.4
		c-0.1-0.1-0.1-0.3-0.2-0.5c-0.2-0.7-0.4-1.3-0.6-2c-0.4-1.3-0.6-2.6-0.4-3.8c0.2-1.2,1-2.2,2-3.1c0.3-0.2,0.5-0.4,0.8-0.6l0.9-0.6
		l1.8-1.2c2.3-1.5,4.7-3,7.1-4.5l7.1-4.5c2.2-1.4,4.4-2.8,6.4-4.5c0.4,2.7,1,5.5,1.4,8.2l1,5.2l0.5,2.6c0.1,0.4,0.1,0.8,0.2,1.2
		c0,0.4,0.1,0.8,0.1,1.3c0.3,3.4,0.3,6.9,0.4,10.4c0,3.5,0,7-0.2,10.4c0,0.4-0.1,0.8-0.1,1.2c-0.1,0.4-0.1,0.9-0.1,1.4
		c0,1,0,2,0.5,3c0.2,0.5,0.6,1,1.3,1.4c0.3,0.2,0.7,0.2,1,0.2c0.3,0,0.7-0.1,0.9-0.1c0.9-0.3,1.8-0.6,2.6-1.1
		c0.8-0.5,1.6-1.1,2.2-1.8c0.6-0.7,1.1-1.6,1.5-2.5c0.6-1.6,0.6-3.4,0.5-5c0.2-0.1,0.3-0.1,0.5-0.2c0.3-0.2,0.7-0.6,0.8-1.1
		c0.1-0.4,0-0.8-0.1-1.1c-0.1-0.3-0.2-0.6-0.2-0.9l0-0.1l0,0c-0.2-0.4-0.4-0.9-0.5-1.4c-0.1-0.5-0.1-1,0.1-1.4
		c0.1-0.5,0.3-0.9,0.6-1.3c0.3-0.4,0.6-0.8,1-1.3l0.2-0.2l-0.1-0.2c-0.5-0.8-0.9-1.7-1.1-2.6c-0.1-0.9,0-1.9,0-2.9
		c0.2-0.5,0.5-0.9,0.6-1.5c0.1-0.3,0-0.6,0-0.9c0-0.3-0.1-0.5-0.1-0.8l0,0l0,0c-0.5-0.9-1-2-0.2-2.7c0.4-0.3,0.8-0.6,1.3-0.9
		c0.5-0.3,0.9-0.6,1.4-1c0.5-0.4,0.9-0.9,1-1.5c0.1-0.6-0.1-1.3-0.3-1.8c-0.5-0.9-1.2-1.7-2-2.3c0.5-0.9,0.7-1.9,0.6-2.9
		c-0.1-1-0.3-1.9-0.9-2.8c0.2-0.4,0.4-0.9,0.5-1.4c0.1-0.6,0.2-1.1,0.1-1.7c0-0.6-0.1-1.1-0.2-1.7c-0.1-0.4-0.2-0.8-0.3-1.2
		c0.2-0.3,0.3-0.6,0.5-0.9c0.2-0.4,0.3-0.8,0.4-1.2c0.2-0.7,0.5-1.4,0.7-2c0.3-0.2,0.7-0.5,1-0.9c0.3-0.4,0.6-1.1,0.5-1.7
		c-0.1-0.7-0.4-1.2-0.7-1.6c-0.3-0.4-0.7-0.7-1.2-1c-0.1-0.1-0.2-0.1-0.3-0.2c-0.1,0-0.1-0.1-0.2-0.1c0,0-0.1,0,0,0l0,0
		c0,0-0.1-0.1-0.1-0.1C63,52,63,51.8,62.9,51.6c0.9-0.7,1.8-1.5,2.8-2.3c0.9-0.8,1.8-1.5,2.7-2.3c0.1-0.1,0.2-0.1,0.2-0.2
		c0.5,0.8,0.9,1.5,1.3,2.3c0.5,1,1,2.1,1.1,3.1c0,0.2,0.1,0.6,0.1,0.9c0.1,0.3,0.1,0.6,0.2,0.9c0.2,0.6,0.3,1.1,0.6,1.7
		c0.4,1.1,0.9,2.2,1.4,3.2c0.5,1,1.1,2.1,1.7,3.1c0.3,0.5,0.6,1,1,1.5l0.5,0.7l0.5,0.7c1.2,1.9,2.4,3.8,3.4,5.8c0.5,1,1.1,2,1.5,3
		c0.2,0.5,0.4,1,0.6,1.6c0.2,0.6,0.5,1.1,0.9,1.6c0.3,0.5,0.7,1,1,1.4c0.3,0.5,0.7,0.9,0.9,1.4c0.1,0.1,0.1,0.2,0.1,0.3
		c0,0.1,0,0.1,0,0.2l0,0.2c0,0.3,0.1,0.6,0.1,0.9c0.1,0.6,0.2,1.2,0.3,1.7c0.1,0.6,0.3,1.1,0.5,1.7c0.2,0.5,0.6,1.1,1.1,1.5
		c0.5,0.4,1.3,0.5,1.9,0.3c0.6-0.2,1.1-0.7,1.5-1.2c0.7-1,1.1-2.1,1.4-3.3c0.3-1.1,0.5-2.1,0.5-3.2c0.3-0.3,0.4-0.6,0.5-0.9
		c0.1-0.4,0.1-0.8,0.1-1.2c-0.1-0.7-0.3-1.4-0.5-2c-0.3-0.6-0.6-1.3-1-1.8c-0.4-0.4-0.8-0.9-1.4-1.2c-0.2-0.9-0.5-1.7-0.8-2.5
		c-0.2-0.4-0.3-0.9-0.4-1.3c0-0.2-0.1-0.4-0.1-0.5c0,0,0-0.1,0-0.1c0.2-0.1,0.8-0.4,1.1-0.8c0.5-0.6,0.7-1.4,0.6-2.1
		c-0.1-0.8-0.6-1.4-1-1.8c-0.3-0.3-0.7-0.5-1.1-0.7c-0.1-0.2-0.1-0.5-0.1-0.8c0-0.4-0.1-1-0.2-1.5c-0.1-0.6-0.4-1.3-0.9-1.8
		c-0.4-0.4-0.8-0.6-1.2-0.8c-0.1-0.3-0.2-0.6-0.3-0.8c-0.2-0.4-0.3-0.8-0.5-1.2c-0.1-0.4-0.3-0.8-0.3-1.1c0-0.2,0-0.3,0-0.4
		c0-0.1,0-0.1,0-0.1l-0.1,0.1c0.5-0.5,0.7-1,0.8-1.4c0.1-0.5,0.2-0.9,0.1-1.4c0-0.5-0.2-1-0.4-1.4c-0.2-0.5-0.6-0.9-1.1-1.1
		c-0.2-0.1-0.5-0.2-0.7-0.3c-0.1,0-0.2-0.1-0.4-0.1l-0.3,0c-0.1,0-0.4-0.2-0.7-0.4c-0.5-0.4-1-1-1.4-1.6c-0.9-1.2-1.6-2.5-2.3-3.8
		c-0.5-0.9-1-1.9-1.5-2.9c0.6-0.5,1.2-1,1.7-1.6c1.8-1.7,3.6-3.4,5.4-5.2c1.8-1.8,3.6-3.5,5.3-5.3l5.1-5.4c6.4-2.7,10.8-6,12.1-6.9
		c0.3-0.2,0.7-0.5,0.9-0.7c0.2-0.1,0.4-0.2,0.6-0.2l1.1,0.1c0.4,0,0.8,0.1,1.2,0.1c0.8,0,1.7,0,2.6-0.4c0.4-0.2,0.9-0.4,1.3-0.8
		c0.4-0.4,0.6-0.7,0.8-1c0.9-1.4,1.5-2.8,2.1-4.3c0.3-0.7,0.5-1.5,0.8-2.2c0.1-0.4,0.2-0.7,0.4-1.1l0.2-0.6c0-0.1,0.1-0.2,0.1-0.3
		c0-0.1,0-0.3,0-0.4c0-0.5-0.3-1-0.7-1.3c-0.2-0.1-0.5-0.2-0.7-0.3l-0.6-0.1c-0.8-0.1-1.5-0.2-2.3-0.3c0,0,0,0,0,0
		c-2.1-0.4-4.3-0.5-6.5-0.5c-2.2,0-4.4,0.2-6.6,0.5c-2.2,0.3-4.4,0.7-6.5,1.4c-2.1,0.6-4.1,1.3-6.1,2.2c-2.9,0.1-5.8,0.6-8.6,1.4
		c-1.4,0.4-2.8,0.9-4.2,1.5c-1.3,0.6-2.6,1.2-3.9,2c-1.8,0.7-3.6,1.5-5.3,2.4c-1.8,0.9-3.5,1.8-5.2,2.7c-3.4,1.9-6.7,3.9-9.9,6.1
		c-3.2,2.2-6.3,4.6-9.3,7.1c-2.9,2.5-5.7,5.2-8.4,8c-1.2,0.7-2.3,1.6-3.4,2.4c-1.1,0.9-2.2,1.8-3.3,2.7c-2.1,1.9-4.2,3.8-6.2,5.7
		c-2,2-4,4-5.9,6c-0.5,0.5-1,1-1.4,1.7c-0.4,0.6-0.7,1.3-1,1.9c-0.5,1.3-0.6,2.8-0.4,4.2c-1.4,2.5-2.2,5.2-2.7,8
		c-0.5,2.8-0.5,5.7-0.3,8.5c0.2,1.4,0.3,2.8,0.7,4.2c0.2,1.4,0.7,2.8,1.1,4.1c0.2,0.7,0.4,1.3,0.7,2l0.8,2c0.6,1.3,1.2,2.5,1.7,3.8
		c0.1,1.6,0.3,3.1,0.1,4.5c-0.2,1.5-0.8,2.8-1.7,4c-0.2,0.3-0.5,0.6-0.7,0.8c-0.3,0.3-0.5,0.5-0.8,0.8l-0.9,0.8l-0.8,0.9
		c-1.1,1.2-2,2.5-2.9,3.9c-1.7,2.7-3.2,5.6-4.3,8.6c-0.6,1.5-1,3.1-1.3,4.7c-0.3,1.6-0.4,3.3-0.2,5L1.4,128z M63,54.1
		c0.6,0.3,1,0.9,1,1.3c0,0.2,0,0.4-0.2,0.6c-0.2,0.2-0.4,0.4-0.7,0.6l-0.2,0.1l-0.1,0.2c-0.4,0.9-0.6,1.7-0.9,2.4
		c-0.1,0.4-0.2,0.8-0.4,1.1c-0.1,0.3-0.3,0.7-0.4,0.8l-0.4,0.5l0.3,0.5c0.2,0.3,0.4,0.8,0.5,1.2c0.1,0.5,0.2,1,0.2,1.4
		c0.1,1,0,2-0.5,2.7L61,67.9l0.2,0.3c0.5,0.7,0.9,1.6,1,2.5c0.1,0.9,0,1.9-0.5,2.6l-0.2,0.3l0.3,0.2c0.8,0.6,1.7,1.4,2.2,2.2
		c0.2,0.4,0.4,0.9,0.3,1.4c-0.1,0.4-0.3,0.9-0.7,1.2c-0.4,0.3-0.9,0.6-1.3,0.9c-0.4,0.3-0.9,0.6-1.3,1c-0.2,0.2-0.4,0.5-0.5,0.8
		c-0.1,0.3-0.1,0.7,0,0.9c0.1,0.6,0.3,1.1,0.6,1.6c0.1,0.5,0.2,1,0.1,1.4c-0.1,0.4-0.4,0.9-0.6,1.4l0,0.1l0,0.1
		c-0.1,1-0.2,2-0.1,3.1c0.1,1,0.5,1.9,0.9,2.7c-0.3,0.3-0.6,0.7-0.9,1.1c-0.3,0.5-0.6,1-0.8,1.6c-0.2,0.6-0.2,1.2-0.2,1.8
		c0.1,0.6,0.2,1.1,0.5,1.6c0.1,0.3,0.1,0.6,0.2,0.8c0,0.3,0.1,0.5,0,0.7c0,0.1-0.1,0.2-0.3,0.3c-0.2,0.1-0.4,0.2-0.7,0.2l-0.5,0.1
		l0,0.5c0.1,0.9,0.1,1.7,0,2.5c-0.1,0.8-0.3,1.6-0.6,2.3c-0.6,1.5-1.7,2.7-3.1,3.4c-0.7,0.4-1.5,0.7-2.2,0.9
		c-0.2,0.1-0.3,0.1-0.4,0.1c-0.1,0-0.2,0-0.3-0.1c-0.2-0.1-0.3-0.3-0.5-0.6c-0.3-0.6-0.3-1.4-0.3-2.2c0-0.4,0.1-0.8,0.1-1.2
		c0.1-0.5,0.1-0.9,0.1-1.4c0.3-3.6,0.3-7.1,0.3-10.6c0-3.5-0.1-7-0.4-10.6c0-0.4-0.1-0.9-0.2-1.3c-0.1-0.4-0.1-0.9-0.2-1.4l-0.5-2.6
		l-1.1-5.1c-0.7-3.4-1.5-6.8-2.1-10.3c-0.2-0.9-0.3-1.7-0.3-2.5c0-0.8,0.1-1.7,0.3-2.5c0.3-1.7,1-3.3,1.5-5c0.1-0.4,0.2-0.9,0.3-1.3
		c0.1-0.5,0.1-1-0.1-1.4c-0.2-0.9-0.6-1.7-1-2.5l-0.4-0.7c0.2-0.1,0.4-0.2,0.6-0.3c0.3-0.1,0.5,0,0.6,0.2c0.3,0.3,0.6,0.9,0.8,1.4
		c0.5,1.1,0.9,2.2,1.3,3.3c0.2,0.5,0.3,1.1,0.4,1.6c0.1,0.6,0.1,1.1,0.1,1.7c-0.1,1.1-0.4,2.3-0.7,3.5c-0.1,0.6-0.3,1.2-0.3,1.8
		c-0.1,0.6,0,1.3,0.1,1.9c0.2,1.2,0.7,2.4,1.6,3.3c0.5,0.4,1.1,0.8,1.8,0.8c0.7,0,1.3-0.2,1.9-0.5c1.1-0.6,2-1.7,2.5-2.9
		c0.5-1.2,0.7-2.5,0.7-3.7c0-1.2-0.2-2.5-0.5-3.7c-0.3-1.2-0.8-2.3-0.8-3.4c0-0.5,0.1-0.9,0.3-1.3c0.1-0.2,0.4-0.4,0.5-0.7
		c0.2-0.3,0.4-0.6,0.5-0.9c0.6-1.2,0.9-2.5,0.9-3.8c0-0.7-0.2-1.4-0.5-2c-0.1-0.3-0.3-0.6-0.6-0.9c-0.1-0.1-0.2-0.3-0.3-0.4
		c-0.1-0.1-0.2-0.2-0.3-0.3c-0.7-0.8-1-2-0.9-3.1c0-0.6,0.1-1.2,0.3-1.7c0.1-0.3,0.2-0.5,0.4-0.7c0.1-0.1,0.2-0.1,0.3-0.1
		c0.1,0.1,0.3,0.3,0.4,0.5c0.5,0.6,0.8,1.3,1.1,2c0.6,1.4,0.8,3.1,0.8,4.7c0,1.6,0,3.3,0.1,5c0,0.9,0.1,1.7,0.3,2.6
		c0.1,0.5,0.2,0.9,0.5,1.5c0.2,0.3,0.4,0.5,0.7,0.7l0.1,0.1l0.1,0l0.1,0C62.8,54,62.9,54,63,54.1z M57.6,43.1
		c0.1,0.1,0.2,0.3,0.3,0.4c0.1,0.1,0.2,0.2,0.2,0.3c0.2,0.2,0.3,0.4,0.4,0.7c0.2,0.5,0.3,1,0.3,1.5c0,1.1-0.3,2.2-0.8,3.2
		c-0.1,0.2-0.3,0.5-0.4,0.7c-0.2,0.2-0.3,0.4-0.6,0.7c-0.4,0.6-0.6,1.4-0.5,2.1c0.1,1.4,0.6,2.5,1,3.6c0.4,1.1,0.5,2.2,0.6,3.4
		c0.1,1.2-0.1,2.3-0.4,3.4c-0.3,1.1-1,2.1-1.9,2.7c-0.5,0.3-1,0.5-1.5,0.5c-0.5,0-1.1-0.3-1.5-0.6c-0.8-0.8-1.3-1.9-1.5-3.1
		c-0.1-0.6-0.1-1.2,0-1.8c0.1-0.6,0.3-1.1,0.5-1.7c0.4-1.2,0.8-2.3,1-3.6c0.2-1.3,0.1-2.6-0.4-3.8c-0.2-0.6-0.5-1.2-0.7-1.7
		c-0.2-0.6-0.5-1.1-0.8-1.7C50.4,48,50,47.4,49.4,47c-0.3-0.2-0.8-0.2-1.1,0c-0.2,0.1-0.4,0.3-0.6,0.5L46.9,46
		c-0.2-0.4-0.4-0.8-0.5-1.2c-0.1-0.4-0.2-0.8,0.1-1c0,0,0,0,0,0c1.6-0.6,3.1-1.4,4.3-2.7c0.1-0.2,0.3-0.3,0.4-0.6l0.2-0.3l0.1-0.3
		c0.2-0.4,0.4-0.7,0.6-1c0.5-0.7,1-1.3,1.5-1.9c0.6-0.6,1.2-1.1,1.8-1.4c0.7-0.3,1.3-0.3,1.8,0c0.1,0.1,0.3,0.2,0.4,0.3
		c0.2,0.1,0.3,0.3,0.4,0.4c0.1,0.1,0.1,0.1,0.2,0.2c-0.1,0-0.2,0.1-0.3,0.1c-0.3,0.2-0.5,0.5-0.6,0.7c-0.3,0.6-0.5,1.2-0.6,1.8
		C56.7,40.5,56.8,41.9,57.6,43.1z M81.4,47.7c0.1,0.1,0.2,0.2,0.3,0.3c0.3,0.3,0.7,0.6,1.3,0.8l0.3,0.1c0.1,0,0.1,0,0.2,0.1
		c0.1,0,0.2,0.1,0.3,0.2c0.4,0.3,0.6,0.7,0.6,1.3c0,0.3,0,0.6-0.1,0.8c-0.1,0.3-0.2,0.5-0.3,0.5l0,0L84,51.9
		c-0.3,0.3-0.4,0.7-0.5,1.1c-0.1,0.3,0,0.6,0,0.9c0.1,0.6,0.2,1,0.4,1.5c0.2,0.4,0.3,0.9,0.5,1.3c0.2,0.4,0.3,0.8,0.4,1.1l0.1,0.5
		l0.6,0.2c0.4,0.1,0.6,0.3,0.8,0.4c0.2,0.2,0.3,0.4,0.3,0.8c0.1,0.4,0.1,0.8,0.2,1.3c0.1,0.5,0.1,1.1,0.4,1.7l0.2,0.3l0.3,0.1
		c0.7,0.3,1.3,0.8,1.4,1.2c0,0.2,0,0.4-0.1,0.5c-0.1,0.1-0.2,0.2-0.3,0.2c0,0-0.1,0-0.1,0l-0.3,0.1c-0.2,0.1-0.4,0.3-0.6,0.5
		c-0.3,0.5-0.3,0.9-0.3,1.3c0,0.3,0.1,0.6,0.2,0.9c0.1,0.5,0.3,1,0.5,1.5c0.4,0.9,0.7,1.8,0.9,2.6l0.1,0.5l0.4,0.1
		c0.4,0.1,0.8,0.5,1.1,0.9c0.4,0.4,0.7,0.9,0.9,1.4c0.2,0.5,0.4,1.1,0.5,1.6c0.1,0.5,0,1-0.2,1.2L91.6,78l0,0.3
		c0,1.1-0.1,2.2-0.3,3.3c-0.2,1.1-0.5,2.2-1.1,3.1c-0.3,0.4-0.7,0.8-1.1,1c-0.4,0.2-1,0.2-1.3-0.1c-0.4-0.3-0.7-0.7-0.9-1.2
		c-0.2-0.5-0.4-1-0.5-1.6c-0.1-0.5-0.2-1.1-0.2-1.7c0-0.3,0-0.6,0-0.8l0-0.2c0-0.1,0-0.2,0-0.3c0-0.2-0.1-0.3-0.1-0.5
		c-0.5-1.2-1.2-2-1.7-3c-0.3-0.5-0.5-1-0.6-1.5c-0.1-0.5-0.3-1.1-0.5-1.7c-0.4-1.1-0.8-2.2-1.3-3.2c-1-2.1-2.1-4.1-3.4-6.1l-0.5-0.7
		l-0.5-0.7c-0.3-0.4-0.6-0.9-1-1.3c-0.6-0.9-1.2-1.9-1.8-2.9c-0.5-1-1.1-2-1.5-3c-0.5-1-0.9-2-1.1-3.1c-0.3-1.2-0.9-2.2-1.5-3.2
		c-0.5-0.8-1-1.5-1.6-2.2c0.7-0.7,1.5-1.3,2.2-2c0.7-0.6,1.3-1.2,1.9-1.9c0.2,0,0.4,0,0.6,0.1c0.6,0.2,0.9,0.8,1.1,1.4
		c0.1,0.3,0.1,0.7,0.2,1l0.2,1.1c0.1,0.7,0.3,1.5,0.5,2.2c0.2,0.7,0.5,1.5,1.1,2.2c0.3,0.3,0.8,0.6,1.4,0.6c0.5,0,0.9-0.2,1.3-0.4
		c0.7-0.4,1.2-1.1,1.6-1.8C81,48.7,81.2,48.2,81.4,47.7z M78.2,42c0.6,1.4,1.2,2.8,2,4.2c0.3,0.5,0.6,1,1,1.4
		c-0.3,0.4-0.6,0.9-0.9,1.2c-0.5,0.5-1,1-1.5,1.2c-0.3,0.1-0.6,0.2-0.8,0.2c-0.2,0-0.4-0.1-0.6-0.3c-0.3-0.4-0.6-1.1-0.8-1.7
		c-0.2-0.7-0.4-1.4-0.5-2.1L75.8,45c-0.1-0.4-0.2-0.8-0.4-1.1c-0.2-0.4-0.4-0.7-0.7-1.1c-0.3-0.3-0.7-0.5-1.2-0.6
		c-0.1,0-0.2,0-0.2,0c0,0,0,0,0.1-0.1c1-0.8,1.9-1.6,2.9-2.4c0.3-0.2,0.5-0.5,0.8-0.7C77.4,40,77.8,41,78.2,42z M3.1,121.8
		c0.3-1.5,0.7-3,1.2-4.4c1-2.9,2.4-5.7,4-8.3c0.8-1.3,1.7-2.6,2.7-3.8l0.7-0.9l0.8-0.8c0.3-0.3,0.6-0.6,0.9-0.9
		c0.3-0.3,0.6-0.6,0.8-1c1-1.3,1.7-3,1.8-4.6c0.2-1.7-0.1-3.3-0.2-4.8l0-0.1l-0.1-0.1c-0.6-1.3-1.2-2.5-1.8-3.8l-0.8-1.9
		c-0.3-0.6-0.5-1.3-0.7-2c-0.4-1.3-0.9-2.7-1.1-4l-0.2-1L11,78.9l-0.1-0.5l-0.3-2.1c-0.3-2.8-0.2-5.6,0.2-8.3
		c0.4-2.7,1.2-5.5,2.6-7.9l0.1-0.1l0-0.1c-0.2-1.3,0-2.7,0.4-4c0.2-0.6,0.5-1.2,0.9-1.8c0.4-0.6,0.8-1,1.3-1.6c1.9-2,3.9-4,6-5.9
		c2.1-1.9,4.2-3.8,6.3-5.5c1.1-0.9,2.2-1.8,3.3-2.6c1.1-0.8,2.3-1.6,3.4-2.3l0.1,0l0.1-0.1c2.7-2.7,5.5-5.3,8.5-7.7
		c3-2.4,6.1-4.7,9.2-6.9c3.2-2.2,6.4-4.2,9.8-6.1c1.7-0.9,3.4-1.9,5.1-2.7c1.7-0.9,3.4-1.7,5.2-2.4l0.1,0l0.1,0
		c2.4-1.5,5-2.6,7.7-3.4c2.7-0.8,5.5-1.4,8.3-1.5l0.1,0l0.1,0c2-0.9,4-1.7,6.1-2.3c2.1-0.7,4.2-1.1,6.3-1.6c2.1-0.4,4.3-0.6,6.5-0.7
		c1.1,0,2.3-0.1,3.4,0c0,0,0,0,0,0c-1.2,0-2.3,0.1-3.5,0.2c-1.2,0.1-2.3,0.3-3.4,0.5c-1.1,0.2-2.2,0.5-3.4,0.8
		c-1.1,0.1-2.2,0.4-3.3,0.7C97,3,95.9,3.4,94.9,3.8c-1,0.4-2.1,0.9-3.1,1.4c-1,0.5-2,0.9-3.1,1.4c-0.7,0.2-1.4,0.3-2.1,0.5
		c-0.7,0.2-1.4,0.3-2.1,0.5c-1.4,0.4-2.8,0.8-4.1,1.4c-1.3,0.6-2.6,1.3-3.8,2.2c-1.2,0.9-2.3,1.8-3.1,3c0,0,0,0.1,0,0.1
		c0,0,0.1,0,0.1,0l0,0c1.1-0.9,2.3-1.7,3.5-2.4c1.2-0.7,2.5-1.3,3.8-1.9l1-0.4c0.3-0.1,0.6-0.3,1-0.4c0.6-0.3,1.3-0.6,2-0.8
		c0.7-0.3,1.3-0.5,2-0.8c0.7-0.2,1.4-0.4,2.1-0.6l0,0l0,0c1-0.4,2.1-0.9,3.1-1.2c1.1-0.4,2.1-0.7,3.2-1c2.1-0.6,4.3-1.2,6.4-1.4
		l0.1,0l0.1,0c1.1-0.3,2.2-0.6,3.3-0.8c1.1-0.2,2.2-0.5,3.3-0.7c1.1-0.2,2.2-0.4,3.4-0.6c1.1-0.2,2.3-0.3,3.4-0.3c0,0,0,0,0,0
		c0.6,0.2,1.2,0.4,1.8,0.6l0.6,0.2c0.2,0.1,0.3,0.1,0.4,0.2c0.2,0.2,0.3,0.5,0.3,0.7c0,0.1,0,0.1,0,0.2c0,0.1,0,0.1-0.1,0.2
		l-0.2,0.5l-0.5,1.1c-0.3,0.7-0.6,1.4-1,2.1c-0.7,1.4-1.4,2.7-2.2,3.9c-0.2,0.3-0.4,0.6-0.6,0.8c-0.2,0.2-0.4,0.3-0.7,0.4
		c-0.6,0.2-1.3,0.3-2,0.3c-0.4,0-0.7,0-1.1,0l-0.6,0l-0.3,0c-0.1,0-0.3,0-0.4,0c-0.6,0.1-1.1,0.3-1.5,0.7c-0.3,0.3-0.5,0.5-0.8,0.8
		c-1.1,1-2.3,2-3.6,2.9c-0.6,0.5-1.3,0.9-1.9,1.3c-0.7,0.4-1.3,0.8-2,1.2c-0.7,0.4-1.4,0.7-2,1.1c-0.7,0.3-1.4,0.6-2.1,0.8l-0.1,0
		l-0.1,0.1c-1.8,1.7-3.8,3.3-5.6,4.9c-1.9,1.6-3.7,3.3-5.6,5c-1.9,1.7-3.7,3.3-5.5,5.1c-1.8,1.7-3.6,3.4-5.4,5.1l-0.1,0.1l0,0
		c-0.7,0.9-1.5,1.7-2.3,2.6l-2.4,2.6l-2.4,2.6c-0.8,0.9-1.5,1.7-2.3,2.6c0,0,0-0.1,0-0.1c-0.2-0.7-0.2-1.5-0.3-2.4
		c0-0.8-0.1-1.6-0.1-2.5c0-0.8,0-1.7-0.1-2.5c-0.1-1.7-0.4-3.5-1.1-5.1c-0.3-0.8-0.8-1.6-1.4-2.3c-0.3-0.3-0.6-0.7-0.9-1
		c-0.2-0.1-0.3-0.3-0.5-0.4c-0.2-0.1-0.3-0.3-0.6-0.4c-0.4-0.3-1-0.4-1.5-0.4c-0.5,0-1,0.2-1.4,0.4c-0.8,0.5-1.5,1.1-2.1,1.7
		c-0.6,0.7-1.1,1.4-1.5,2.1c-0.2,0.4-0.4,0.8-0.6,1.2L50.7,40l-0.1,0.3c-0.1,0.2-0.2,0.3-0.3,0.5c-0.5,0.6-1.1,1.2-1.7,1.7
		c-0.7,0.5-1.4,0.9-2.1,1.2c0,0,0,0,0,0l0,0C46.1,43.7,46,44,46,44.2c0,0.2,0,0.5,0.1,0.7c0.1,0.4,0.3,0.8,0.5,1.2
		c0.4,0.8,0.8,1.6,1.1,2.4c0.4,0.8,0.7,1.6,0.9,2.4c0.1,0.4,0.1,0.8,0,1.2c-0.1,0.4-0.2,0.8-0.4,1.2c-0.6,1.6-1.3,3.2-1.8,5
		c-0.2,0.9-0.4,1.8-0.5,2.7c-0.1,0.9,0.1,1.9,0.2,2.7c0.1,0.6,0.2,1.3,0.3,1.9c-1,0.8-2,1.5-3.1,2.1c-1.2,0.7-2.4,1.5-3.6,2.2
		l-7.3,4.2c-2.4,1.4-4.8,2.9-7.2,4.3l-1.8,1.1l-0.9,0.6c-0.3,0.2-0.6,0.4-0.9,0.6c-0.4,0.3-0.7,0.6-1.1,1c0-0.2,0-0.4,0.1-0.5
		c0.2-1,0.4-2.1,0.8-3c0.3-1,0.8-1.9,1.4-2.8c0.5-0.9,1.3-1.7,2-2.5c-0.8,0.7-1.7,1.4-2.3,2.3c-0.7,0.9-1.3,1.8-1.7,2.8
		c-0.5,1-0.8,2-1.1,3.1c-0.2,0.9-0.4,1.9-0.5,2.9c-0.1,0.2-0.1,0.4-0.2,0.7c-0.2,0.8-0.2,1.6-0.1,2.3c0.1,0.8,0.3,1.5,0.4,2.2
		c0.2,0.7,0.4,1.4,0.6,2c0.1,0.2,0.1,0.3,0.2,0.5l0.2,0.6c0.1,0.2,0.2,0.4,0.3,0.5c0.1,0.2,0.2,0.4,0.4,0.5c0.5,0.7,1.3,1.1,2.1,1.4
		c0.8,0.3,1.5,0.3,2.3,0.4c1.5,0.1,2.9-0.1,4.3-0.2c1.4-0.1,2.8-0.2,4.2-0.2l1,0l1,0c0.3,0,0.6,0.1,0.9,0.1c0.3,0,0.6,0.1,0.9,0.2
		c1.2,0.4,2.2,1.1,2.9,2c0.4,0.5,0.7,1,0.9,1.6c0.1,0.2,0.2,0.5,0.2,0.7l-4.6,0c-0.2,0-0.6,0-0.9,0.1l-0.8,0.1
		c-0.5,0.1-1,0.2-1.4,0.3c-0.9,0.2-1.9,0.5-2.8,0.7l-5.5,1.6c-0.9,0.3-1.8,0.5-2.7,0.8c-0.5,0.1-0.9,0.2-1.4,0.3
		c-0.2,0.1-0.4,0.1-0.6,0.1c-0.1,0-0.2,0-0.3,0c-0.1,0-0.1,0-0.2,0l-0.9,0.2l-0.2,0.5c-0.1,0.4-0.4,0.9-0.7,1.4
		c-0.3,0.5-0.6,0.9-1,1.4c-0.7,0.9-1.5,1.8-2.3,2.7c-0.4,0.4-0.8,0.8-1.2,1.2l-0.6,0.6l-0.3,0.3l-0.4,0.3c-0.9,0.9-1.6,1.9-2.4,2.8
		c-1.5,1.9-2.9,3.8-4.4,5.7c-1.1,1.3-2.2,2.7-3.5,3.9C2.9,123.5,3,122.6,3.1,121.8z"/>
</g>
</svg>
