<?xml version="1.0" encoding="utf-8"?>
<!-- Generator: Adobe Illustrator 24.1.2, SVG Export Plug-In . SVG Version: 6.00 Build 0)  -->
<svg version="1.1" id="Layer_1" xmlns="http://www.w3.org/2000/svg" xmlns:xlink="http://www.w3.org/1999/xlink" x="0px" y="0px"
	 viewBox="0 0 128 128" style="enable-background:new 0 0 128 128;" xml:space="preserve">
<style type="text/css">
	.st0{fill:#ECEBEB;}
	.st1{fill:#6E6E84;}
	.st2{fill:#7FA43C;}
	.st3{fill:#936047;}
	.st4{fill:#EDBF7E;}
	.st5{fill:#5F5F74;}
	.st6{fill:#2D2D2D;}
</style>
<g>
	<path class="st0" d="M22.34,34.14c0.49-0.73,0.99-1.45,1.54-2.14c0.81-1.04,1.67-2.04,2.43-3.11c0.77-1.07,1.48-2.17,2.14-3.31
		c0.68-1.13,1.31-2.29,2.01-3.4l0.38-0.61l0.48,0.59c0.69,0.85,1.36,1.71,2.04,2.57c0.33,0.43,0.68,0.85,1.01,1.29
		c0.14,0.19,0.28,0.38,0.43,0.57c0.26-0.38,0.52-0.77,0.79-1.15c0.45-0.64,0.9-1.27,1.36-1.89c0.84-1.14,1.71-2.25,2.62-3.34
		c-0.51-0.53-1.02-1.05-1.52-1.58c-0.92-0.97-1.82-1.95-2.72-2.94c-0.67-0.72-1.33-1.47-1.98-2.2c-1.47,2.04-3,4.04-4.59,5.99
		c-1.81,2.22-3.61,4.44-5.29,6.76c-0.78,1.05-1.54,2.12-2.28,3.21c0.3,0.97,0.54,1.94,0.77,2.92C22.1,32.96,22.22,33.55,22.34,34.14
		z"/>
	<path class="st1" d="M24.85,49.73c2.64-4.14,5.39-8.18,8.23-12.17c2.96-4.15,5.93-8.3,9.13-12.27c0.36-0.45,0.72-0.91,1.09-1.36
		c-1.21-1.16-2.39-2.35-3.56-3.55c-0.62,1.26-1.28,2.5-1.97,3.71c-0.38,0.68-0.78,1.35-1.18,2.02c-0.39,0.67-0.81,1.33-1.22,1.99
		l-0.49,0.79l-0.59-0.76c-0.34-0.43-0.65-0.88-0.98-1.31c-0.33-0.44-0.63-0.89-0.95-1.33c-0.49-0.7-0.99-1.4-1.48-2.11
		c-0.64,0.85-1.31,1.68-1.95,2.52c-0.81,1.03-1.57,2.11-2.28,3.21c-0.71,1.11-1.32,2.28-1.99,3.42c-0.66,1.14-1.39,2.23-2.16,3.3
		l-0.79,1.1l-0.18-1.33c-0.14-1.04-0.25-2.08-0.34-3.13c-0.08-0.94-0.13-1.88-0.15-2.82c-2.44,3.57-4.72,7.25-7.18,10.8
		c-3.25,4.71-6.49,9.43-9.96,13.97l-0.76,0.99c1.39,0.06,2.78,0.1,4.17,0.17c2.77,0.12,5.53,0.3,8.3,0.54l6.92-9.69L24.85,49.73z"/>
	<path class="st0" d="M38.24,33.48c1.2-1.08,2.41-2.14,3.64-3.18c1.23-1.04,2.47-2.06,3.73-3.06c1.25-1.01,2.57-1.93,3.9-2.85
		l0.94-0.65l0.09,1.09c0.25,3.05,0.45,6.11,0.73,9.16c0.24,2.68,0.55,5.35,0.87,8.02c1.83-4,3.61-8.03,5.39-12.05
		c0.96-2.19,1.95-4.35,2.93-6.52c0.98-2.17,1.98-4.34,2.98-6.5l0.44-0.95l0.87,0.62c1.98,1.41,3.98,2.79,5.93,4.23
		c1.97,1.43,3.89,2.91,5.81,4.4c1.91,1.5,3.82,3,5.69,4.57c1.48,1.22,2.94,2.46,4.39,3.73c-2.1-2.44-4.19-4.9-6.26-7.37
		c-3.41-4.03-6.73-8.12-10.03-12.23l-4.97-6.16l-4.39-5.54c-2.99,3.76-6,7.51-8.86,11.37c-3.07,4.07-5.87,8.34-8.76,12.55
		c-1.82,2.7-3.74,5.32-5.69,7.91C37.83,33.86,38.03,33.67,38.24,33.48z"/>
	<polygon class="st2" points="36.47,96.9 33.51,96.9 34.96,98.76 	"/>
	<polygon class="st2" points="31.53,83.05 36.24,89.53 40.83,83.89 35.82,83.89 36.5,83.05 	"/>
	<path class="st3" d="M20.82,111.78v14.27h3.36v-14.27c0-0.04,0.01-0.08,0.01-0.12h-3.38C20.81,111.7,20.82,111.74,20.82,111.78z"/>
	<polygon class="st2" points="29.67,95.01 37.92,95.01 27.84,81.16 34.74,81.16 26.34,69.13 31.98,69.13 24.86,59.17 29.26,59.17 
		22.51,49.69 15.74,59.17 20.14,59.17 13.02,69.13 18.66,69.13 10.26,81.16 17.14,81.16 7.29,95.01 15.33,95.01 3.84,109.77 
		41.16,109.77 	"/>
	<path class="st2" d="M81.1,94.64l1.38-2.01h-2.47c-0.08,0-0.15-0.02-0.23-0.03L81.1,94.64z"/>
	<path class="st0" d="M96.62,35.91c0.1,0.23,0.21,0.46,0.31,0.68c0.49-0.53,1-1.05,1.51-1.57c0.36-0.36,0.71-0.73,1.05-1.12
		c0.33-0.39,0.66-0.78,0.97-1.19l0.14-0.18l0.16,0.17c1.49,1.55,3.14,2.96,4.64,4.5c1.05,1.09,2.12,2.16,3.15,3.27
		c-0.05-0.7-0.1-1.4-0.14-2.11c-0.03-0.68-0.07-1.35-0.08-2.03c-0.01-0.53-0.02-1.07-0.02-1.6c-1.07-1.51-2.18-2.99-3.34-4.44
		c-1.3-1.63-2.6-3.26-3.83-4.94c-0.67,0.75-1.34,1.49-2.02,2.24c-0.91,1-1.83,1.98-2.76,2.96c-0.54,0.57-1.1,1.13-1.64,1.69
		c0.44,0.72,0.84,1.46,1.21,2.2C96.16,34.93,96.4,35.41,96.62,35.91z"/>
	<path class="st4" d="M1.74,55.39L1.74,55.39C1.74,55.39,1.73,55.39,1.74,55.39C1.72,55.39,1.74,55.39,1.74,55.39z"/>
	<path class="st2" d="M77.03,88.3l1.64,2.56c0.04-0.15,0.1-0.3,0.19-0.43l1.45-2.16c-0.09,0.02-0.18,0.04-0.27,0.04H77.03z"/>
	<path class="st5" d="M75.44,26.71c-1.99-1.4-3.98-2.79-5.92-4.25c-1.67-1.23-3.31-2.51-4.96-3.78c-0.89,1.82-1.77,3.63-2.68,5.44
		c-1.06,2.13-2.11,4.27-3.2,6.39c-2.16,4.25-4.33,8.49-6.43,12.78l-0.48,0.97l-0.11-1.07c-0.31-3.05-0.65-6.09-1.06-9.12
		c-0.35-2.63-0.77-5.26-1.15-7.89c-0.92,0.82-1.84,1.63-2.81,2.39c-1.26,1.01-2.54,1.98-3.83,2.95c-1.29,0.96-2.59,1.91-3.92,2.82
		c-0.66,0.46-1.33,0.91-2.01,1.35c-0.32,0.21-0.65,0.42-0.97,0.63c-0.55,0.72-1.09,1.43-1.64,2.15c-3,3.9-6.07,7.74-9.27,11.49
		l7.9,11.1h-4.39l7.12,9.96h-5.7l7.55,10.83l4.62-5.65h-3.74l9.43-13.12l9.4,13.12h-3.73l5.33,6.49l3.41-5h-4.87l6.13-8.79h-3.72
		l9.23-13.21l9.2,13.21h-3.72l6.13,8.79h-4.88l5.52,8.22c0.14,0.18,0.22,0.4,0.26,0.61l2.24-3.35h-4.21l5.34-7.83h-3.04l8.12-14.18
		l3.12,5.46l5.67-7.46h-4.49l6.71-9.36c-1.73-1.87-3.42-3.77-5.12-5.67l-5.23-5.94c-1.02-1.18-2.04-2.37-3.06-3.55
		c-2.06-1.23-4.07-2.53-6.07-3.84C79.43,29.47,77.43,28.09,75.44,26.71z"/>
	<path class="st1" d="M96.52,43.55c1.53,2.01,3.06,4.03,4.56,6.07l3.86-5.39l10.67,14.93h-4.55l1.11,1.55
		c4.04-0.76,8.1-1.34,12.17-1.85l-0.99-1.37c-0.71-0.98-1.39-1.99-2.09-2.99c-1.37-2.01-2.72-4.03-4.06-6.06
		c-2.73-4.03-5.12-8.29-7.89-12.29c-0.21-0.3-0.43-0.6-0.64-0.9c0.08,0.34,0.16,0.68,0.24,1.01c0.15,0.66,0.28,1.33,0.41,1.99
		c0.25,1.33,0.48,2.66,0.67,4l0.27,1.92l-1.38-1.4c-1.51-1.53-2.9-3.18-4.31-4.8c-1.36-1.57-2.59-3.26-3.96-4.82
		c-0.28,0.33-0.55,0.67-0.81,1.01c-0.3,0.41-0.6,0.83-0.87,1.27c-0.57,0.85-1.11,1.73-1.74,2.53l-0.56,0.71l-0.38-0.85
		c-0.22-0.49-0.41-1-0.61-1.5c-0.2-0.5-0.37-1.01-0.55-1.52c-0.25-0.74-0.48-1.49-0.68-2.25c-0.29,0.3-0.58,0.6-0.87,0.9l-2.74,2.71
		c0.29,0.37,0.59,0.75,0.89,1.12L96.52,43.55z"/>
	<path class="st2" d="M101.27,101.64l-7.48-10.89h5.15l-6.34-9.47h4.18l-5.34-7.83h3.36l-4.86-8.52l-4.88,8.52h3.35l-5.34,7.83h4.18
		l-6.34,9.47h5.15l-7.48,10.89h5.82l-6.92,12.1H102c0.08-0.02,0.16-0.04,0.24-0.04c0.04,0,0.08,0.01,0.12,0.01l-6.9-12.08H101.27z"
		/>
	<polygon class="st2" points="97.5,69.41 94.67,69.44 96.07,71.9 	"/>
	<path class="st2" d="M112.4,94.13h8.25l-10.16-14.24h7.1l-8.67-12.38h5.84l-7.36-10.24h4.56l-7.02-9.83l-7.05,9.83h4.62
		l-7.82,10.28l6.06-0.06l-3.61,6.29l0.88,1.54h-3.03l5.34,7.83h-4.21l6.34,9.47h-5.1l7.48,10.89h-6.15l3.68,6.44
		c0.01,0,0.02,0,0.03,0h21.85L112.4,94.13z"/>
	<polygon class="st3" points="105.61,115.63 103.17,115.63 103.17,126.05 106.68,126.05 106.68,111.84 103.45,111.84 	"/>
	<path class="st3" d="M88.8,126c0.75-0.01,1.5-0.01,2.24-0.01v-10.36H88.8V126z"/>
	<rect x="67.6" y="112.86" class="st3" width="2.75" height="13.19"/>
	<path class="st2" d="M56.4,85.09c0.19,0.18,0.29,0.43,0.29,0.68l1.28-1.88h-2.84L56.4,85.09z"/>
	<polygon class="st2" points="38.92,93.21 39.18,93.56 39.47,93.21 	"/>
	<path class="st2" d="M62.79,112.86h-13.8l9.98-12.32h-6.68l8.54-12.23h-5.86l1.13-1.65c-0.32,0.12-0.7,0.07-0.97-0.19l-4.71-4.46
		h5.41l-6.32-7.7h4.04l-5.74-8.02l-5.76,8.02h4.03l-6.29,7.7h5.01l-7.4,9.09l0.17,0.23c0,0,0,0,0,0h5.87l-3.09,3.81l1.29,1.77h-2.72
		l-2.74,3.38l0.71,0.91c0.02,0,0.03,0,0.05,0c1.64,0.04,3.47,0.1,3.47,0.1l2.05,0.06l-2.95,3.21l5.53,7.1H34.61l-3.13,4.22h33.29
		L62.79,112.86z"/>
	<path class="st2" d="M81.15,103.52H75l5.06-7.36c-0.17-0.07-0.33-0.19-0.44-0.36l-6.03-9.38h5.73l-7.13-10.63h4.81L70.87,67h3.72
		l-5.61-8.05L63.35,67h3.72l-6.13,8.79h4.82l-7.25,10.63h5.91l-8.54,12.23h7.02l-9.98,12.32H76.9L81.15,103.52z"/>
	<rect x="46.41" y="117.76" class="st3" width="2.75" height="8.29"/>
	<path class="st6" d="M128,111.84l-11.85-15.82h8.15l-10.16-14.24h7.06l-8.67-12.38h5.89l-5.97-8.3c4.38-0.02,8.73-0.23,13.08-0.51
		l0.23-0.01l0.06,0l0.03,0c0.06-0.01,0.12-0.02,0.19-0.03c0.25-0.07,0.48-0.23,0.62-0.45c0.14-0.21,0.21-0.47,0.18-0.74
		c-0.01-0.13-0.05-0.26-0.11-0.38c-0.02-0.05-0.08-0.13-0.08-0.14l-0.02-0.02l-0.13-0.19l-0.51-0.76l-1.02-1.51
		c-0.68-1.01-1.39-1.99-2.09-2.99c-1.41-1.98-2.85-3.94-4.29-5.9c-2.84-3.95-6.02-7.65-8.82-11.63c-1.41-1.98-2.74-4.02-4-6.1
		c-1.26-2.08-2.53-4.17-3.91-6.17l-0.59-0.85l-0.71,0.78c-0.91,1-1.77,2.03-2.66,3.06c-0.88,1.03-1.73,2.07-2.58,3.12
		c-0.85,1.05-1.68,2.12-2.5,3.2c-0.75,1.02-1.52,2.03-2.2,3.13c-2.92-3.71-5.84-7.41-8.82-11.06c-3.31-4.11-6.7-8.15-10.1-12.18
		l-5.1-6.05l-5.15-6L60.88,0l-0.49,0.71c-2.89,4.21-5.75,8.43-8.77,12.54c-2.59,3.58-5.38,7.01-8.15,10.46
		c-1.43-2.02-2.93-3.97-4.47-5.9c-0.83-1.05-1.67-2.08-2.52-3.12c-0.84-1.04-1.72-2.05-2.57-3.07l-0.66-0.79l-0.63,0.85
		c-1.7,2.3-3.31,4.66-4.85,7.08c-1.54,2.41-3.09,4.83-4.76,7.15c-3.29,4.68-7.05,9.01-10.49,13.58C9.07,44.05,5.6,48.6,2.38,53.33
		L1.16,55.1l-0.15,0.22l-0.08,0.11L0.9,55.49c-0.04,0.04-0.14,0.22-0.17,0.35c-0.16,0.6,0.27,1.22,0.87,1.28l0.1,0.01l0.03,0l0.03,0
		l0.07,0l0.13,0l1.07-0.03c1.42-0.06,2.84-0.1,4.26-0.17c2.71-0.12,5.42-0.3,8.13-0.53l-3.33,4.67h4.4l-7.12,9.96h5.7l-8.4,12.04
		h6.83L3.65,96.9h7.84L0,111.66h18.96c0,0.04-0.01,0.08-0.01,0.12v14.45c-0.64,0.01-1.27,0.02-1.91,0.03
		c-5.19,0.11-10.37,0.3-15.56,0.64c-0.05,0-0.08,0.04-0.09,0.09c0,0.05,0.04,0.1,0.09,0.1c5.19,0.34,17.47,0.85,17.47,0.85
		s11.47-0.11,13.65-0.16l11.94,0.16h6.49h14.7h6.48c0,0,17.45,0.09,22.64,0.06c2.15-0.02,4.3-0.04,6.45-0.08v0.01
		c0,0,18.86-0.52,24.67-0.85c0.05,0,0.09-0.04,0.09-0.09c0-0.05-0.04-0.1-0.09-0.1c-5.81-0.33-11.62-0.55-17.43-0.69v-14.36H128z
		 M1.74,55.39C1.74,55.39,1.72,55.39,1.74,55.39C1.73,55.39,1.74,55.39,1.74,55.39L1.74,55.39z M96.35,30.55
		c0.93-0.98,1.85-1.96,2.76-2.96c0.67-0.75,1.35-1.49,2.02-2.24c1.23,1.68,2.53,3.31,3.83,4.94c1.16,1.45,2.27,2.93,3.34,4.44
		c0,0.53,0.01,1.07,0.02,1.6c0.02,0.68,0.05,1.36,0.08,2.03c0.04,0.7,0.09,1.41,0.14,2.11c-1.03-1.11-2.1-2.19-3.15-3.27
		c-1.5-1.54-3.15-2.95-4.64-4.5l-0.16-0.17l-0.14,0.18c-0.31,0.41-0.64,0.8-0.97,1.19c-0.34,0.38-0.69,0.76-1.05,1.12
		c-0.51,0.52-1.01,1.04-1.51,1.57c-0.1-0.23-0.2-0.46-0.31-0.68c-0.22-0.49-0.46-0.98-0.7-1.46c-0.38-0.75-0.77-1.48-1.21-2.2
		C95.26,31.68,95.81,31.12,96.35,30.55z M93.53,33.45c0.29-0.3,0.58-0.6,0.87-0.9c0.2,0.76,0.43,1.51,0.68,2.25
		c0.18,0.51,0.35,1.02,0.55,1.52c0.2,0.5,0.39,1.01,0.61,1.5l0.38,0.85l0.56-0.71c0.63-0.8,1.18-1.68,1.74-2.53
		c0.28-0.43,0.57-0.85,0.87-1.27c0.26-0.34,0.53-0.68,0.81-1.01c1.36,1.57,2.59,3.26,3.96,4.82c1.42,1.62,2.8,3.27,4.31,4.8
		l1.38,1.4l-0.27-1.92c-0.19-1.34-0.43-2.67-0.67-4c-0.13-0.66-0.26-1.33-0.41-1.99c-0.08-0.34-0.16-0.68-0.24-1.01
		c0.21,0.3,0.44,0.6,0.64,0.9c2.77,4,5.16,8.27,7.89,12.29c1.35,2.03,2.69,4.05,4.06,6.06c0.7,1,1.38,2,2.09,2.99l0.99,1.37
		c-4.07,0.51-8.13,1.09-12.17,1.85l-1.11-1.55h4.55l-10.67-14.93l-3.86,5.39c-1.5-2.04-3.03-4.05-4.56-6.07l-4.84-6.27
		c-0.29-0.37-0.59-0.75-0.89-1.12L93.53,33.45z M90.6,38.19l5.23,5.94c1.7,1.9,3.39,3.8,5.12,5.67l-6.71,9.36h4.49l-5.67,7.46
		l-3.12-5.46l-8.12,14.18h3.04l-5.34,7.83h4.21l-2.24,3.35c-0.04-0.22-0.12-0.43-0.26-0.61l-5.52-8.22h4.88l-6.13-8.79h3.72
		l-9.2-13.21l-9.23,13.21h3.72l-6.13,8.79h4.87l-3.41,5l-5.33-6.49h3.73l-9.4-13.12l-9.43,13.12h3.74l-4.62,5.65l-7.55-10.83h5.7
		l-7.12-9.96h4.39l-7.9-11.1c3.19-3.75,6.27-7.59,9.27-11.49c0.55-0.71,1.09-1.43,1.64-2.15c0.33-0.21,0.65-0.42,0.97-0.63
		c0.68-0.43,1.35-0.89,2.01-1.35c1.32-0.92,2.63-1.86,3.92-2.82c1.29-0.96,2.57-1.94,3.83-2.95c0.97-0.76,1.89-1.57,2.81-2.39
		c0.39,2.63,0.8,5.26,1.15,7.89c0.42,3.03,0.75,6.07,1.06,9.12l0.11,1.07l0.48-0.97c2.09-4.28,4.27-8.52,6.43-12.78
		c1.09-2.12,2.14-4.26,3.2-6.39c0.91-1.81,1.79-3.62,2.68-5.44c1.65,1.27,3.29,2.55,4.96,3.78c1.94,1.46,3.93,2.85,5.92,4.25
		c2,1.38,3.99,2.77,6.04,4.09c2,1.32,4.01,2.61,6.07,3.84C88.56,35.82,89.58,37.01,90.6,38.19z M78.86,90.43
		c-0.09,0.13-0.15,0.28-0.19,0.43l-1.64-2.56h3.01c0.09,0,0.18-0.02,0.27-0.04L78.86,90.43z M82.49,92.63l-1.38,2.01l-1.31-2.04
		c0.07,0.01,0.15,0.03,0.23,0.03H82.49z M40.83,83.89l-4.59,5.63l-4.71-6.47h4.97l-0.69,0.84H40.83z M52.08,13.59
		c2.86-3.86,5.87-7.61,8.86-11.37l4.39,5.54l4.97,6.16c3.31,4.11,6.63,8.21,10.03,12.23c2.06,2.47,4.16,4.93,6.26,7.37
		c-1.45-1.27-2.91-2.51-4.39-3.73c-1.87-1.56-3.78-3.07-5.69-4.57c-1.92-1.49-3.84-2.98-5.81-4.4c-1.95-1.45-3.96-2.82-5.93-4.23
		l-0.87-0.62l-0.44,0.95c-1,2.16-2,4.33-2.98,6.5c-0.98,2.17-1.98,4.34-2.93,6.52c-1.78,4.02-3.56,8.05-5.39,12.05
		c-0.33-2.67-0.63-5.34-0.87-8.02c-0.28-3.05-0.48-6.11-0.73-9.16l-0.09-1.09l-0.94,0.65c-1.32,0.92-2.64,1.84-3.9,2.85
		c-1.26,0.99-2.5,2.02-3.73,3.06c-1.23,1.04-2.44,2.1-3.64,3.18c-0.21,0.19-0.41,0.38-0.61,0.57c1.95-2.6,3.87-5.22,5.69-7.91
		C46.21,21.93,49.01,17.66,52.08,13.59z M23.47,26.25c1.68-2.31,3.49-4.54,5.29-6.76c1.59-1.95,3.13-3.95,4.59-5.99
		c0.66,0.74,1.31,1.48,1.98,2.2c0.9,0.99,1.8,1.97,2.72,2.94c0.5,0.53,1.01,1.05,1.52,1.58c-0.91,1.09-1.78,2.2-2.62,3.34
		c-0.46,0.63-0.92,1.26-1.36,1.89c-0.27,0.38-0.53,0.76-0.79,1.15c-0.14-0.19-0.29-0.38-0.43-0.57c-0.32-0.44-0.67-0.86-1.01-1.29
		c-0.68-0.86-1.35-1.72-2.04-2.57l-0.48-0.59l-0.38,0.61c-0.7,1.11-1.33,2.27-2.01,3.4c-0.66,1.14-1.37,2.24-2.14,3.31
		c-0.77,1.07-1.62,2.07-2.43,3.11c-0.55,0.69-1.05,1.41-1.54,2.14c-0.12-0.59-0.24-1.18-0.38-1.78c-0.23-0.98-0.47-1.95-0.77-2.92
		C21.93,28.37,22.69,27.3,23.47,26.25z M7.3,55.61c-1.39-0.07-2.78-0.11-4.17-0.17l0.76-0.99c3.47-4.54,6.71-9.26,9.96-13.97
		c2.46-3.55,4.75-7.24,7.18-10.8c0.02,0.95,0.07,1.89,0.15,2.82c0.09,1.05,0.21,2.09,0.34,3.13l0.18,1.33l0.79-1.1
		c0.77-1.07,1.5-2.15,2.16-3.3c0.66-1.14,1.28-2.31,1.99-3.42c0.71-1.11,1.47-2.18,2.28-3.21c0.64-0.85,1.31-1.68,1.95-2.52
		c0.49,0.7,0.99,1.4,1.48,2.11c0.32,0.44,0.62,0.9,0.95,1.33c0.33,0.44,0.65,0.88,0.98,1.31l0.59,0.76l0.49-0.79
		c0.4-0.66,0.83-1.32,1.22-1.99c0.4-0.67,0.79-1.34,1.18-2.02c0.69-1.21,1.35-2.45,1.97-3.71c1.16,1.2,2.34,2.39,3.56,3.55
		c-0.36,0.45-0.73,0.91-1.09,1.36c-3.2,3.97-6.17,8.11-9.13,12.27c-2.83,3.99-5.59,8.04-8.23,12.17l-2.33-3.28l-6.92,9.69
		C12.83,55.91,10.06,55.73,7.3,55.61z M3.84,109.77l11.49-14.76H7.29l9.85-13.85h-6.87l8.4-12.04h-5.64l7.12-9.96h-4.4l6.77-9.48
		l6.75,9.48h-4.4l7.12,9.96h-5.64l8.4,12.04h-6.9l10.08,13.85h-8.24l11.49,14.76H3.84z M36.47,96.9l-1.51,1.86l-1.45-1.86H36.47z
		 M24.18,111.78v14.27h-3.36v-14.27c0-0.04-0.01-0.08-0.01-0.12h3.38C24.19,111.7,24.18,111.74,24.18,111.78z M44.55,126.26
		c-1.39-0.04-2.77,0.26-4.16,0.21l-7.78-0.26c-2.19-0.05-4.37-0.06-6.56-0.05v-14.37c0-0.04-0.01-0.08-0.01-0.12h6.24l-4.53,6.1
		h16.81V126.26z M49.16,126.05h-2.75v-8.29h2.75V126.05z M31.48,115.88l3.13-4.22H45l-5.53-7.1l2.95-3.21l-2.05-0.06
		c0,0-1.83-0.05-3.47-0.1c-0.02,0-0.03,0-0.05,0l-0.71-0.91l2.74-3.38h2.72l-1.29-1.77l3.09-3.81h-5.87c0,0,0,0,0,0l-0.17-0.23
		l7.4-9.09h-5.01l6.29-7.7h-4.03l5.76-8.02l5.74,8.02H49.5l6.32,7.7h-5.41l4.71,4.46c0.27,0.25,0.65,0.31,0.97,0.19l-1.13,1.65h5.86
		l-8.54,12.23h6.68l-9.98,12.32h13.8l1.97,3.02H31.48z M38.92,93.21h0.55l-0.29,0.36L38.92,93.21z M57.97,83.89l-1.28,1.88
		c0-0.25-0.1-0.5-0.29-0.68l-1.26-1.2H57.97z M65.73,126.41c-0.67,0.02-1.33,0.04-2,0.06c-4.23,0.13-8.46-0.17-12.7-0.17v-8.54
		h14.54c0.06,0,0.11-0.02,0.16-0.02V126.41z M65.73,113.93l-0.7-1.07h0.7V113.93z M70.34,126.05H67.6v-13.19h2.75V126.05z
		 M52.93,110.97l9.98-12.32h-7.02l8.54-12.23h-5.91l7.25-10.63h-4.82L67.07,67h-3.72l5.63-8.05L74.59,67h-3.72l6.13,8.79h-4.81
		l7.13,10.63h-5.73l6.03,9.38c0.11,0.17,0.26,0.29,0.44,0.36L75,103.52h6.15l-4.26,7.45H52.93z M86.93,126.01
		c-2.55,0.02-5.09,0.06-7.64,0.09c-2.36,0.03-4.72,0.07-7.08,0.13v-13.37h3.61l-1.58,2.77h12.7V126.01z M91.04,125.98
		c-0.75,0-1.5,0.01-2.24,0.01v-10.37h2.24V125.98z M101.31,126.06c-2.15-0.03-4.3-0.06-6.45-0.08c-0.65,0-1.29,0-1.94,0v-10.36h8.39
		V126.06z M102.24,113.71c-0.08,0-0.16,0.01-0.24,0.04H77.47l6.92-12.1h-5.82l7.48-10.89H80.9l6.34-9.47h-4.18l5.34-7.83h-3.35
		l4.88-8.52l4.86,8.52h-3.36l5.34,7.83H92.6l6.34,9.47h-5.15l7.48,10.89h-5.82l6.9,12.08C102.32,113.71,102.28,113.71,102.24,113.71
		z M94.67,69.44l2.83-0.03l-1.43,2.49L94.67,69.44z M106.68,126.05h-3.51v-10.42h2.44l-2.16-3.78h3.23V126.05z M102.4,109.96
		c-0.01,0-0.02,0-0.03,0l-3.68-6.44h6.15l-7.48-10.89h5.1l-6.34-9.47h4.21l-5.34-7.83h3.03l-0.88-1.54l3.61-6.29l-6.06,0.06
		l7.82-10.28h-4.62l7.05-9.83l7.02,9.83h-4.56l7.36,10.24h-5.84l8.67,12.38h-7.1l10.16,14.24h-8.25l11.85,15.82H102.4z"/>
</g>
</svg>
