<?xml version="1.0" encoding="utf-8"?>
<!-- Generator: Adobe Illustrator 24.1.2, SVG Export Plug-In . SVG Version: 6.00 Build 0)  -->
<svg version="1.1" id="Layer_1" xmlns="http://www.w3.org/2000/svg" xmlns:xlink="http://www.w3.org/1999/xlink" x="0px" y="0px"
	 viewBox="0 0 128 128" style="enable-background:new 0 0 128 128;" xml:space="preserve">
<style type="text/css">
	.st0{fill:#916547;}
	.st1{fill:#A0704D;}
	.st2{fill:#C9BBB1;}
	.st3{fill:#2D2D2D;}
	.st4{fill:#936047;}
</style>
<g>
	<path class="st0" d="M114.4,91.2c-0.7,0.3-1.4,0.3-2.1,0.3c-1.3,0-2.4-0.3-3.5-0.7c-1.1-0.4-2.1-0.8-3.1-1.4
		c-0.5-0.3-1-0.6-1.4-0.9c-0.2-0.1-0.4-0.3-0.5-0.4c0,0.2-0.1,0.5-0.1,0.7l-0.2,1.3c0,0.3-0.1,0.7-0.1,1l0,0
		c0.1,0.1,0.3,0.2,0.5,0.3c0.3,0.2,0.7,0.4,1.1,0.6c0.7,0.4,1.5,0.7,2.2,0.9c0.8,0.2,1.5,0.4,2.2,0.5c0.3,0,0.7,0,1-0.1
		c0.1,0,0.3-0.1,0.4-0.1l0.2-0.1c0.1-0.1,0.3-0.1,0.4-0.2c1.1-0.5,2.3-0.5,3.3-0.2c1,0.3,1.9,0.7,2.7,1.3c0.8,0.6,1.5,1.3,2,2.4
		c0.1,0.1,0.1,0.2,0.1,0.4c0.4-0.4,0.8-0.8,1-1.3c0.5-0.9,0.5-1.9,0-2.6c-0.5-0.8-1.3-1.4-2.2-1.8c-0.9-0.4-1.8-0.7-2.6-0.4
		c-0.2,0-0.4,0.1-0.5,0.2c-0.1,0-0.2,0.1-0.2,0.1C114.8,91,114.6,91.1,114.4,91.2z"/>
	<path class="st0" d="M65.7,107.3c-0.2,0.1-0.3,0.2-0.5,0.3c0.7-0.1,1.3-0.2,2-0.2c0.8-0.1,1.6-0.2,2.3-0.2c0.8-0.1,1.6-0.1,2.3-0.2
		c2.5-0.1,5-0.1,7.5-0.1c-0.4-0.3-0.8-0.6-1.3-0.9c-1.1-0.5-2.4-0.8-3.8-1c-1.7-0.2-3.4-0.3-5.2-0.2C68,105.8,66.8,106.6,65.7,107.3
		z"/>
	<path class="st1" d="M103.4,91.2C103.4,91.2,103.4,91.2,103.4,91.2C103.4,91.3,103.4,91.3,103.4,91.2z"/>
	<path class="st1" d="M30,112.2c0,0,0.1,0,0.1,0c0.5,0.1,1.1,0.1,1.6,0.1C31.2,112.4,30.6,112.3,30,112.2z M117.1,97.4
		c-0.2-0.5-0.7-1-1.3-1.4c-1.1-0.9-2.5-1.4-3.5-0.9c-0.1,0-0.1,0.1-0.2,0.1c-0.1,0-0.3,0.1-0.4,0.2c-0.3,0.1-0.6,0.2-0.9,0.2
		c-0.6,0.1-1.1,0.1-1.6,0c-1-0.1-1.9-0.4-2.7-0.7c-0.8-0.4-1.6-0.8-2.4-1.2c-0.1-0.1-0.2-0.1-0.2-0.1c-1.4,0.6-2.8,2.8-1.8,4
		c0.5,0,0.9,0,1.3,0.1c0.6,0.1,1.1,0.2,1.7,0.3c0.6,0.2,1.1,0.3,1.6,0.5c1,0.3,2,0.6,3,0.9l0.1,0l0.2,0.1c1.3,0.8,2.9,1.6,4.1,1.6
		c0.3,0,0.5-0.1,0.7-0.2c0.3-0.2,0.6-0.4,0.9-0.6c0.6-0.4,1-0.9,1.2-1.4C117.3,98.3,117.3,97.9,117.1,97.4z M126.3,79.9
		c-0.5-1.9-1.1-3.8-1.8-5.7c-0.3-0.9-0.7-1.9-1.1-2.7c-0.1-0.2-0.2-0.4-0.3-0.6l-0.4-0.7l-0.7-1.3c-1-1.8-1.9-3.5-3-5.1
		c-1.1-1.6-2.2-3.3-3.5-4.8c-0.2-0.2-0.3-0.4-0.5-0.6c-5.5,0.8-7.7,4.2-11.5,1.9c-2.2-1.3-3-3-4.1-4.3c-1.5-0.3-3-0.7-4.4-0.9
		c-0.7-0.1-1.5-0.2-2.2-0.2c-0.7,0-1.3,0.2-1.5,0.4c-0.1,0.1-0.1,0.1-0.1,0.3c0,0.1-0.1,0.3-0.1,0.4c0,0.2,0,0.3,0,0.4
		c0,0.2,0,0.3,0,0.5c0,0.7,0.3,1.3,0.6,2c0.3,0.7,0.7,1.3,1,2c0.2,0.3,0.4,0.6,0.6,1c0.2,0.3,0.4,0.6,0.8,0.9
		c-0.4-0.1-0.8-0.3-1.1-0.6c-0.3-0.2-0.6-0.5-0.9-0.8c-0.6-0.6-1.1-1.2-1.5-1.9c-0.4-0.7-0.8-1.5-1-2.4c-0.1-0.5-0.1-0.9,0-1.4
		c0-0.2,0.1-0.5,0.2-0.7c0.1-0.3,0.2-0.5,0.4-0.7c0.4-0.4,0.8-0.6,1.3-0.8c-1.9-0.7-3.5-2-6.6-4.3c-5.2-3.8-13.8-7.4-18.5-6.4
		c-0.9-1-0.5-3.5-4.9-3.6c-4.4-0.1-12.5-1.4-14.9-0.4c-1.1,1.5-12.2,3.2-10.5,5.6c-3.5,3.2-14.3,13.7-10.3,14.7
		c3.9,1,0.5,6.6-2.6,8.9c-3.1,2.4-7,28.4-7.8,32c0-0.1,0-0.2,0-0.3c-0.1,0.5-0.2,1-0.4,1.4c1.9,1.7,14.5,5.9,17.1,0.7
		c0.4-1.5,0.5-3.1,0.2-4.2c-0.3-0.1-0.5-0.3-0.7-0.4l-0.7-0.4c-0.2-0.1-0.5-0.3-0.7-0.5c-0.9-0.8-1.5-1.9-1.8-2.9
		c-0.6-2.2-0.3-4.3,0-6.2c0.4-2,1-3.9,1.7-5.7c0.7-1.8,1.5-3.6,2.5-5.4c0-0.1,0.1-0.1,0.2-0.1c0,0,0.1,0.1,0,0.1
		c-1.3,3.7-2.5,7.5-3,11.3c-0.2,1.9-0.3,3.8,0.3,5.5c0.3,0.8,0.7,1.5,1.3,2c0.2,0.1,0.3,0.2,0.5,0.3l0.6,0.3
		c0.4,0.2,0.8,0.4,1.3,0.6c1.7,0.8,3.5,1.4,5.4,2c0.9,0.3,1.9,0.7,2.8,1.1c0.9,0.4,1.9,0.9,2.8,1.8c0,0,0.1,0.1,0.1,0.1
		c1.6,0.6,5.1,2.2,7.6,4.2c3.3,2.8,7.1-3.6,13.7-6.6c5.2-2.4,4.5-10.4,2.7-14.9l0,0c-0.3-0.4-0.7-0.7-1-1.1
		c-2.8-2.9-5.9-5.5-9.1-7.9h0c0,0-0.1-0.1,0-0.2c0-0.1,0.1-0.1,0.1,0c3.5,2,6.9,4.4,10,7.1c1.5,1.4,3,2.8,4.3,4.5
		c1.3,1.7,2.5,3.5,3,5.8c0.1,0.5,0.2,1.1,0.2,1.6c0.5-1.9,1.3-3.7,2.1-5.5c1-2,2-3.9,3.3-5.6c0-0.1,0.1-0.1,0.2,0c0,0,0.1,0.1,0,0.2
		c-0.2,0.5-0.4,0.9-0.5,1.4c0,0,0,0,0,0c-0.1,1.8-1.3,7.6,5.2,8.4c6.4,0.9,13.2,0.3,15.4-0.5c0,0,0-0.1-0.1-0.1
		c-0.2-0.3-0.1-0.5-0.1-0.7c0-0.6,0.1-1,0.2-1.4l0.3-1.2c0.2-0.8,0.4-1.6,0.4-2.4c0.1-0.7,0-1.5-0.4-2.1c-1.1-0.2-2.2-0.3-3.4-0.5
		c-0.6-0.1-1.3-0.3-1.9-0.6c-0.7-0.3-1.3-0.5-2.1-1.4c-0.6-0.9-0.6-1.8-0.6-2.5c0.1-0.7,0.2-1.4,0.4-2.1c0.2-0.7,0.5-1.3,0.8-1.8
		c0.4-0.6,0.7-1.1,1.4-1.5c0.1,0,0.1,0,0.2,0c0,0,0,0.1,0,0.1l0,0c-0.3,0.5-0.4,1.1-0.5,1.7c-0.1,0.6-0.2,1.2-0.2,1.8
		c0,0.6,0,1.2,0,1.7c0,0.5,0.2,1,0.4,1.1c0.1,0.1,0.6,0.4,1.1,0.6c0.5,0.2,1.1,0.4,1.6,0.6c1.1,0.4,2.3,0.7,3.5,1l1.8,0.4
		c0.6,0.1,1.2,0.2,1.9,0.5c0.7,0.3,1.3,0.6,1.8,1c0.2,0.1,0.3,0.2,0.4,0.3c-0.2-0.8-0.3-1.6-0.6-2.7c-0.8-2.7-2.4-2.9,0.8-3.3
		c3.2-0.5,3.5,0.6,9.8,0.2c4.8-0.4,4.2,1.7,5.1,3.6c0.9-0.3,0.4-1.7,1.3-1.7c0.3,0,0.6,0.1,0.8,0.2
		C126.4,80.4,126.3,80.2,126.3,79.9z M114.1,71.4c-1,0-1.8-0.8-1.8-1.8c0-1,0.8-1.8,1.8-1.8c1,0,1.8,0.8,1.8,1.8
		C115.9,70.6,115.1,71.4,114.1,71.4z M96.8,54.5c0.9,0.4,1.7,0.8,2.5,1.4C98.6,55.3,97.9,54.8,96.8,54.5z M68.9,36.2
		c1.6,0.6,3.6,1.2,5.5,2C72.6,37.4,70.7,36.7,68.9,36.2z M15.3,90c0-2,0.1-3.9,0.2-5.7c-0.1,0.5-0.1,1-0.2,1.5c-0.1,1.2,0,2.6,0,3.8
		L15.3,90z"/>
	<path class="st2" d="M125.3,83.9c-0.2,0.2-0.4,0.3-0.6,0.5c-0.8,0.6-1.6,1.1-2.5,1.6c-0.4,0.2-0.9,0.5-1.3,0.7
		c-0.5,0.2-0.9,0.5-1.3,0.6c-0.9,0.2-1.9,0.1-2.8-0.2c-0.5-0.2-0.9-0.4-1.3-0.6c-0.2-0.1-0.4-0.3-0.6-0.4c-0.1-0.1-0.2-0.2-0.3-0.3
		c-0.1-0.1-0.2-0.2-0.2-0.2l0-0.1c0,0-0.1-0.1-0.1-0.1c-0.1,0-0.1,0.1-0.1,0.1c0.1,0.2,0.1,0.3,0.2,0.4c0.1,0.1,0.2,0.2,0.3,0.3
		c0.2,0.2,0.4,0.4,0.6,0.5c0.3,0.2,0.6,0.4,0.9,0.6c0,0,0,0-0.1,0c-0.5,0.4-1,0.8-1.5,1c-0.3,0.1-0.5,0.1-0.7,0
		c-0.2-0.1-0.4-0.3-0.7-0.5c-0.9-0.8-1.9-1.7-2.9-2.5c-0.4-0.3-0.7-0.6-1.1-0.8c-0.2-0.8-0.3-1.6-0.6-2.7c-0.8-2.7-2.4-2.9,0.8-3.3
		c3.2-0.5,3.5,0.6,9.8,0.2c4.8-0.4,4.2,1.7,5.1,3.6c-0.1,0.1-0.3,0.1-0.5,0.1C122.4,82.2,124.3,83.7,125.3,83.9z"/>
	<path class="st0" d="M124.7,84.7c-5.7-2.6-8.1-8.2-10-9.9c-3.9-1.2-10.9-8.4-12.6-12.6s10.4-5.3,13.5-3.9s3.1,2,5.3,7
		s7,13.4,6.3,15.8C126.4,83.5,124.7,84.7,124.7,84.7z"/>
	<ellipse class="st3" cx="114.1" cy="69.6" rx="1.8" ry="1.8"/>
	<path class="st3" d="M127.6,79.6c-0.4-2-1-4-1.6-5.9c-0.3-1-0.7-1.9-1.1-2.9c-0.1-0.2-0.2-0.5-0.3-0.7l-0.3-0.7l-0.7-1.4
		c-0.9-1.8-1.9-3.6-3-5.3c-1.1-1.7-2.3-3.4-3.6-5c-1.3-1.6-2.8-3-4.5-4.2l-5.2-4.7c-1.7-1.6-3.4-3.2-4.8-4.9l-0.4-0.5l-0.6,0.1
		c-0.2,0.1-0.5,0.2-0.7,0.4c-0.2,0.2-0.2,0.4-0.3,0.5c-0.1,0.3-0.1,0.5-0.1,0.7c0,0.4,0,0.7,0.1,1c0,0.2,0.1,0.5,0.2,0.7
		c-1.4,0.1-2.8,0.1-4.2,0.1c-0.9,0-1.8-0.1-2.6-0.2c-0.4-0.1-0.9-0.1-1.3-0.2c-0.4-0.1-0.8-0.2-1-0.4l-0.7-0.5l-0.3,0.8
		c-0.2,0.6-0.2,1.1-0.2,1.6c0,0.1,0,0.2,0.1,0.3c-2.1-0.7-4.1-1.6-5.8-3.1c-0.2-0.2-0.5-0.4-0.7-0.7l-0.6-0.7
		c-0.4-0.5-0.9-1-1.4-1.4c-1-0.9-2.1-1.7-3.2-2.4c-2.2-1.4-4.6-2.6-7-3.5c-2.5-0.9-5-1.6-7.6-2l-1.7-0.2l1.4,1.1
		c0.3,0.3,0.7,0.6,1,0.9c-1.9-0.4-3.7-0.8-5.6-1.1c-2.4-0.4-4.8-0.7-7.2-0.8c-4.9-0.4-9.8-0.3-14.7,0.8l-6.1,1.3l6.2,0.8
		c1.1,0.1,2.1,0.3,3.1,0.6c-1.8,0.5-3.5,1.1-5.3,1.7c-2.2,0.8-4.4,1.8-6.4,3c-2,1.2-4.1,2.7-5.6,4.9L22.2,49l2.1,0.2
		c0.9,0.1,1.7,0.1,2.6,0.1c-1,1-1.9,2.1-2.8,3.1c-1.6,1.9-3.2,3.8-4.7,5.8c-1.5,2-3,4-4.3,6.2c-1.3,2.1-2.5,4.4-3.4,6.8L11,72.8
		l1.8-0.3c1.4-0.3,2.8-0.6,4.1-0.9c-0.6,2-1.1,4.1-1.5,6.1c-0.6,2.6-1.1,5.2-1.3,7.9c-0.1,1.4,0.1,2.7,0.2,4l0.5,3.9
		c0.1,1.3,0.3,2.6,0.3,3.9c0,0.7,0,1.3,0,1.9c0,0.4-0.1,0.9-0.2,1.3c-0.4,0.5-0.5,1.1-0.5,1.7c-0.1,0.6-0.1,1.2-0.2,1.7
		c-0.2,1.1-0.5,2.1-1.2,2.9c-0.7,0.8-1.5,1.3-2.6,1.7l-3.2,1.2c-1.1,0.4-2.2,0.9-3.3,1.5c-1.1,0.6-2.2,1.4-2.9,2.6
		c-0.8,1.2-1.1,2.6-0.9,3.9c0.1,0.9,0.6,1.5,1,2c0.5,0.4,1,0.8,1.6,1.1c2.1,1.1,4.4,1.8,6.6,2.5c2.2,0.7,4.4,1.4,6.7,2
		c2.2,0.6,4.5,1.1,6.8,1.5c2.3,0.4,4.6,0.7,7,0.9l4.6,0.3l-3.8-2.6c-1.7-1.1-3.5-1.9-5.2-2.6c-1.8-0.7-3.6-1.2-5.4-1.7
		c-1.8-0.5-3.6-0.9-5.4-1.4c-0.5-0.1-0.9-0.2-1.4-0.4c0,0,0,0,0,0c-0.3-0.4-0.6-1.1-0.8-1.5c-0.2-0.4-0.2-0.8,0-1.1
		c0.4-0.6,1.4-0.8,2.3-1c1.8-0.4,3.8-0.7,5.8-1.3c1-0.3,2-0.7,2.9-1.3l0.7-0.5c0.2-0.2,0.4-0.3,0.6-0.5c0.2-0.2,0.4-0.4,0.6-0.6
		l0.5-0.5c0.1-0.1,0.3-0.3,0.4-0.4c0.1,0.2,0.2,0.4,0.3,0.6c0.3,0.4,0.7,0.7,1,1c0.8,0.5,1.7,0.9,2.5,1.1c0.9,0.3,1.8,0.4,2.7,0.6
		c0.9,0.1,1.8,0.1,2.7,0.1c1.8,0,3.7,0,5.4-0.5c0.9-0.3,1.7-0.5,2.5-0.9c0.1-0.1,0.3-0.1,0.4-0.2l-0.8,0.8l1.7-0.1
		c2.9-0.1,5.9-0.2,8.8-0.3c2.9,0,5.9,0,8.8,0c2.9,0,5.9,0.1,8.8,0.2l8.8,0.3l2.1,0.1l-1.5-1.5c-0.4-0.4-0.8-0.7-1.2-1
		c-0.4-0.3-0.8-0.5-1.2-0.7c-0.8-0.4-1.7-0.8-2.5-1c0,0,0,0-0.1,0c1.9,0,3.7,0,5.6,0l1.2,0l-0.1-1.1c0-0.3-0.1-0.3-0.1-0.5
		c0-0.1-0.1-0.2-0.1-0.4c-0.1-0.2-0.2-0.4-0.3-0.6c-0.2-0.4-0.5-0.7-0.9-1c-0.6-0.6-1.4-1-2.1-1.3c-1.5-0.5-3-0.7-4.4-0.7
		c-1.4,0-2.8,0.1-4.1,0.4c0.1-0.1,0.3-0.2,0.4-0.3c1.6-1.4,3.1-2.9,4.3-4.8c0.3-0.5,0.6-1.1,0.8-1.7c0,0.3,0,0.6,0,0.9
		c0,0.6,0.1,1.3,0.4,1.9c0.2,0.6,0.7,1.3,1.4,1.7c1.3,0.8,2.5,0.9,3.6,0.9c1.1,0,2.3-0.1,3.4-0.2c2.2-0.3,4.3-0.8,6.4-1.4
		c2.1-0.6,4.2-1.1,6.3-1.8c2-0.7,4.1-0.9,6.1-0.4c0.5,0.1,1,0.3,1.5,0.4c0.5,0.2,0.9,0.4,1.4,0.6c0.9,0.4,1.9,0.8,2.9,1.2
		c0.7,0.5,1.4,1,2.2,1.4c0.8,0.4,1.8,0.7,2.9,0.8c0.5,0,1.2-0.1,1.7-0.3c0.4-0.2,0.9-0.4,1.3-0.7c0.8-0.6,1.6-1.3,2.1-2.3
		c0.4-0.8,0.5-1.8,0.4-2.7c0.6-0.3,1.1-0.8,1.5-1.3c0.4-0.5,0.7-1.1,0.7-1.7c0.1-0.6,0-1.3-0.3-1.9c-0.6-1.2-1.4-2-2.5-2.7
		c-1-0.7-2.3-1.2-3.7-1c-0.1,0-0.3,0-0.4,0.1c0.5-0.3,0.9-0.7,1.2-1.1l0,0c0,0,0-0.1,0-0.1c0.1,0.1,0.2,0.1,0.4,0.2
		c0.9,0.4,2,0.6,3.1,0.4c0.5-0.1,1.1-0.3,1.5-0.5c0.5-0.2,0.9-0.4,1.4-0.6c0.9-0.4,1.8-0.9,2.7-1.5c0.4-0.3,0.9-0.6,1.3-0.9
		c0.4-0.4,0.8-0.7,1.1-1.3c0.2-0.3,0.2-0.8,0.2-1c0-0.3,0-0.6-0.1-0.8C127.9,80.6,127.8,80.1,127.6,79.6z M74.3,105.1
		c1.3,0.2,2.7,0.5,3.8,1c0.5,0.2,0.9,0.5,1.3,0.9c-2.5,0-5,0-7.5,0.1c-0.8,0-1.6,0.1-2.3,0.2c-0.8,0.1-1.6,0.1-2.3,0.2
		c-0.7,0.1-1.3,0.2-2,0.2c0.2-0.1,0.3-0.2,0.5-0.3c1.1-0.8,2.3-1.6,3.4-2.5C70.9,104.9,72.6,104.9,74.3,105.1z M115.2,90.7
		c0.2-0.1,0.3-0.2,0.5-0.2c0.8-0.2,1.7,0,2.6,0.4c0.9,0.4,1.7,1.1,2.2,1.8c0.5,0.7,0.5,1.7,0,2.6c-0.3,0.5-0.6,0.9-1,1.3
		c0-0.1-0.1-0.2-0.1-0.4c-0.5-1.1-1.2-1.8-2-2.4c-0.8-0.6-1.7-1.1-2.7-1.3c-1-0.3-2.2-0.3-3.3,0.2c-0.1,0.1-0.3,0.1-0.4,0.2
		l-0.2,0.1c-0.1,0-0.2,0.1-0.4,0.1c-0.3,0.1-0.6,0.1-1,0.1c-0.7,0-1.5-0.2-2.2-0.5c-0.8-0.2-1.5-0.5-2.2-0.9
		c-0.4-0.2-0.7-0.4-1.1-0.6c-0.2-0.1-0.3-0.2-0.5-0.3l0,0c0-0.3,0-0.6,0.1-1l0.2-1.3c0-0.2,0.1-0.5,0.1-0.7c0.2,0.1,0.4,0.3,0.5,0.4
		c0.5,0.3,1,0.6,1.4,0.9c1,0.5,2,1,3.1,1.4c1.1,0.4,2.2,0.7,3.5,0.7c0.6,0,1.3,0,2.1-0.3c0.2-0.1,0.4-0.2,0.6-0.3
		C115.1,90.8,115.1,90.8,115.2,90.7z M103.4,91.2C103.4,91.2,103.4,91.2,103.4,91.2C103.4,91.3,103.4,91.3,103.4,91.2z M103.3,84.2
		l1.4,0.2c0.6,0.1,1.3,0.1,1.8,0.2c0.5,0.1,1,0.4,1.6,0.6c0.5,0.3,1.1,0.6,1.6,0.9c1,0.7,2.1,1.4,3.1,2.1l0.4,0.3
		c0.1,0.1,0.3,0.2,0.5,0.2c0.1,0,0.3,0.1,0.4,0.1c-0.1,0-0.2,0.1-0.2,0.1c-0.1,0-0.1,0-0.2,0.1c-0.3,0.1-0.7,0.1-1.2,0.1
		c-0.9,0-2-0.2-3-0.4c-1-0.2-2.1-0.4-3.1-0.7c-0.8-0.2-1.7-0.4-2.5-0.6c0-0.4,0-0.8,0-1.2C103.8,85.5,103.7,84.8,103.3,84.2z
		 M125.6,80.4c-1,0-0.1,1.8-1.8,1.8c-1.5,0,0.4,1.5,1.5,1.7c-0.2,0.2-0.4,0.3-0.6,0.4c-0.8,0.6-1.6,1.1-2.5,1.6
		c-0.4,0.2-0.9,0.5-1.3,0.7c-0.5,0.2-0.9,0.5-1.3,0.6c-0.9,0.2-1.9,0.1-2.8-0.2c-0.5-0.2-0.9-0.4-1.3-0.6c-0.2-0.1-0.4-0.3-0.6-0.4
		c-0.1-0.1-0.2-0.2-0.3-0.2c-0.1-0.1-0.2-0.2-0.2-0.2l0-0.1c0,0-0.1-0.1-0.1-0.1c-0.1,0-0.1,0.1-0.1,0.1c0,0.2,0.1,0.3,0.2,0.4
		c0.1,0.1,0.2,0.2,0.3,0.3c0.2,0.2,0.4,0.4,0.6,0.5c0.3,0.2,0.6,0.4,0.9,0.6c0,0-0.1,0-0.1,0c-0.5,0.4-1,0.8-1.5,1
		c-0.3,0.1-0.5,0.1-0.7,0c-0.2-0.1-0.4-0.3-0.7-0.5c-0.9-0.8-1.9-1.7-2.9-2.5c-0.5-0.4-1-0.8-1.6-1.1c-0.6-0.4-1.1-0.7-1.8-1
		c-0.7-0.2-1.3-0.3-1.9-0.5l-1.8-0.4c-1.2-0.3-2.4-0.6-3.5-1c-0.6-0.2-1.1-0.4-1.6-0.6c-0.5-0.2-1-0.5-1.1-0.6
		c-0.2-0.1-0.3-0.6-0.4-1.1c-0.1-0.5-0.1-1.1,0-1.7c0-0.6,0.1-1.2,0.2-1.8c0.1-0.6,0.2-1.2,0.5-1.7l0,0c0,0,0-0.1,0-0.1
		c0-0.1-0.1-0.1-0.2,0c-0.6,0.4-1,1-1.4,1.5c-0.3,0.6-0.6,1.2-0.8,1.8c-0.2,0.6-0.4,1.3-0.4,2.1c0,0.7,0,1.6,0.6,2.5
		c0.8,0.9,1.4,1.1,2.1,1.4c0.7,0.3,1.3,0.4,1.9,0.6c1.1,0.2,2.3,0.4,3.4,0.5c0.4,0.6,0.4,1.3,0.4,2.1c-0.1,0.8-0.2,1.6-0.4,2.4
		l-0.3,1.2c-0.1,0.4-0.2,0.8-0.2,1.4c0,0.2,0,0.3,0.2,0.7c0,0.1,0.1,0.2,0.2,0.3l0.1,0.1l0.2,0.1c0.2,0.2,0.4,0.3,0.6,0.4
		c0.4,0.3,0.8,0.5,1.1,0.7c0.8,0.5,1.6,0.9,2.4,1.2c0.8,0.3,1.7,0.6,2.7,0.7c0.5,0.1,1,0.1,1.6,0c0.3,0,0.6-0.1,0.9-0.2
		c0.1-0.1,0.3-0.2,0.4-0.2c0.1,0,0.1-0.1,0.2-0.1c1-0.4,2.4,0.1,3.5,0.9c0.6,0.4,1.1,1,1.3,1.4c0.2,0.5,0.2,0.9,0,1.4
		c-0.2,0.5-0.7,1-1.2,1.4c-0.3,0.2-0.6,0.4-0.9,0.6c-0.2,0.1-0.4,0.2-0.7,0.2c-1.3,0-2.8-0.8-4.1-1.6l-0.2-0.1l-0.1,0
		c-1-0.3-2-0.6-3-0.9c-0.5-0.2-1-0.3-1.6-0.5c-0.6-0.1-1.1-0.2-1.7-0.3c-2.2-0.3-4.6,0.1-6.6,0.9c-4,1.4-8.3,2.1-12.6,2.2
		c-1,0-2.1,0-3.1-0.1c-0.5,0-1-0.1-1.4-0.2c-0.4-0.1-0.9-0.3-1.1-0.4c-0.5-0.3-0.8-1.1-0.9-2c-0.1-0.9,0-1.9,0.2-3
		c0.4-2,1-4.1,1.7-6.1c0.7-2,1.5-4,2.3-6c0-0.1,0-0.1,0-0.1c-0.1,0-0.1,0-0.2,0c-1.3,1.8-2.4,3.7-3.3,5.6c-0.8,1.7-1.6,3.6-2.1,5.5
		c0-0.6-0.1-1.1-0.2-1.6c-0.5-2.2-1.7-4.1-3-5.8c-1.3-1.7-2.7-3.2-4.3-4.5c-3.1-2.8-6.4-5.1-10-7.1c-0.1,0-0.1,0-0.2,0
		c0,0.1,0,0.1,0,0.2l0,0c3.2,2.4,6.3,5.1,9.1,7.9c1.4,1.4,2.7,3,3.8,4.6c1.1,1.6,2,3.3,2.3,5.1c0.4,1.7-0.1,3.5-1.1,5
		c-1,1.6-2.4,2.9-3.8,4.2c-1.5,1.2-3.1,2.4-4.8,3.5c-0.8,0.6-1.7,1.1-2.5,1.8c-0.8,0.6-1.7,1.2-2.5,2.2l-2.1,2.5l3.2-0.5l2.5-0.4
		l2.5-0.3c1.7-0.1,3.3-0.2,5-0.1c1.6,0.1,3.3,0.3,4.8,0.7c0.6,0.2,1.2,0.4,1.7,0.6l-5.8,0.2c-2.9,0.1-5.9,0.2-8.8,0.2
		c-2.9,0-5.9,0-8.8,0c-2.5,0-4.9-0.1-7.4-0.2c0.4-0.5,0.6-1,0.8-1.6c0.4-1.1,0.4-2.2,0.3-3.3c-0.1-1.1-0.4-2.1-0.8-3
		c-0.2-0.5-0.4-0.9-0.5-1.4c-0.1-0.3-0.3-0.6-0.5-0.8c-0.2-0.2-0.4-0.5-0.6-0.7c-0.9-0.9-1.9-1.3-2.8-1.8c-1-0.4-1.9-0.8-2.8-1.1
		c-1.9-0.6-3.7-1.2-5.4-2c-0.4-0.2-0.9-0.4-1.2-0.6l-0.6-0.3c-0.2-0.1-0.3-0.2-0.5-0.3c-0.6-0.5-1-1.2-1.3-2
		c-0.5-1.6-0.5-3.6-0.3-5.5c0.5-3.8,1.7-7.6,3-11.3c0-0.1,0-0.1-0.1-0.1c-0.1,0-0.1,0-0.2,0.1c-0.9,1.7-1.7,3.5-2.5,5.4
		c-0.7,1.8-1.3,3.8-1.7,5.7c-0.4,2-0.6,4.1,0,6.2c0.3,1.1,0.9,2.1,1.8,2.9c0.2,0.2,0.5,0.4,0.7,0.5l0.7,0.4c0.4,0.3,0.9,0.5,1.3,0.7
		c1.8,0.9,3.7,1.6,5.6,2.2c0.9,0.3,1.8,0.6,2.7,1c0.9,0.4,1.6,0.8,2.2,1.3c0.1,0.1,0.2,0.3,0.4,0.4l0.3,0.5c0.2,0.4,0.4,0.9,0.6,1.3
		c0.4,0.9,0.7,1.7,0.9,2.6c0.3,1.3,0.1,2.6-0.5,3.7c-1.6-0.1-3.1,0-4.6,0.2c-1.7,0.1-3.4,0.7-5.1,0.9c-1.7,0.2-3.4,0.3-5.1,0
		c-0.8-0.1-1.7-0.3-2.4-0.6c-0.4-0.2-0.7-0.4-1-0.7c-0.1-0.1-0.3-0.3-0.4-0.5c0,0,0-0.1,0-0.1c1-1.1,2.1-2,3.6-2.6l0,0
		c0,0,0.1,0,0.1-0.1c0-0.1,0-0.1-0.1-0.2c-1-0.4-2.2-0.2-3.2,0.2c-1,0.4-1.9,1-2.8,1.7l-0.6,0.5l-0.5,0.4c-0.3,0.3-0.6,0.6-1,0.9
		c-0.7,0.6-1.4,1-2.3,1.4c-1.7,0.8-3.6,1.2-5.5,2c-0.5,0.2-0.9,0.4-1.4,0.7c-0.4,0.3-0.9,0.6-1.2,1.2c-0.1,0.3-0.2,0.6-0.1,0.9
		c0.1,0.3,0.2,0.5,0.3,0.8c0.2,0.4,0.5,0.8,0.8,1.2c-1.2-0.3-2.4-0.6-3.5-1.1c-0.1,0-0.1,0-0.1,0c0,0.1,0,0.1,0,0.2
		c1.6,1.1,3.3,1.9,5,2.6c1.7,0.7,3.5,1.4,5.2,2c1.3,0.5,2.6,1,3.9,1.5c-2.3-0.3-4.6-0.6-7-0.8c-2.3-0.3-4.6-0.6-6.8-1.2
		C7.2,122,5,121.2,3.2,120c-0.4-0.3-0.9-0.7-1.2-1.1c-0.3-0.4-0.5-0.8-0.4-1.1c0.1-1,0.4-2,1-2.7c0.6-0.7,1.4-1.4,2.3-1.9
		c0.9-0.6,1.9-1,3-1.5c1-0.5,2.1-1,3.2-1.5c1.1-0.5,2.2-1.3,3-2.4c0.7-1.1,1-2.4,1-3.6c0-0.6-0.1-1.2-0.1-1.8c0-0.4,0-0.8,0-1.2
		c0.3-0.5,0.4-1.1,0.5-1.7c0.1-0.7,0.1-1.3,0.2-2c0-1.3,0-2.7-0.1-4l-0.2-3.9c-0.1-1.3-0.1-2.6,0-3.9c0.3-2.5,0.9-5.1,1.6-7.6
		c0.7-2.5,1.4-5,2.2-7.5l0.5-1.6L18,69.4c-1.2,0.3-2.5,0.5-3.7,0.7c0.8-1.6,1.7-3.1,2.6-4.6c1.3-2,2.8-4,4.3-5.9
		c1.5-1.9,3.1-3.8,4.7-5.6c1.6-1.8,3.3-3.6,5-5.3l2.6-2.6l-3.6,0.4c-0.4,0-0.9,0.1-1.3,0.1c-0.5,0-0.9,0-1.4,0.1c-0.1,0-0.1,0-0.2,0
		c0.9-0.9,2-1.6,3.1-2.3c1.9-1.1,3.9-2.1,6-2.9c2.1-0.8,4.2-1.6,6.4-2.2l0.4-0.1l0.2-0.1l0.1,0c0,0,0.1,0,0.2-0.1
		c0.1,0,0.2-0.1,0.2-0.1c0.3-0.2,0.4-0.5,0.4-0.7c0.1-0.4,0-0.7-0.1-0.9c-0.1-0.2-0.2-0.3-0.3-0.5c-0.2-0.2-0.4-0.4-0.5-0.5
		c-0.1-0.1-0.2-0.1-0.4-0.2c0.7-0.1,1.3-0.1,2-0.2c2.4-0.2,4.8-0.2,7.1-0.1c2.4,0.1,4.8,0.3,7.2,0.5c2.4,0.3,4.8,0.6,7.1,1.1
		l1.3,0.3l-0.8-1.1c-0.2-0.2-0.3-0.4-0.5-0.6c-0.1-0.2-0.3-0.3-0.5-0.5c4.5,0.8,8.9,2.5,12.7,5c1.1,0.7,2.1,1.5,3,2.3
		c0.5,0.4,0.9,0.9,1.3,1.4l0.6,0.8c0.2,0.3,0.5,0.5,0.7,0.7c1,0.9,2.1,1.7,3.3,2.3c1.2,0.6,2.4,1.2,3.7,1.6l1,0.3l-0.3-1
		c-0.1-0.4-0.2-0.8-0.2-1.2c0-0.1,0-0.1,0-0.2c0.2,0.1,0.4,0.1,0.6,0.2c0.5,0.1,0.9,0.2,1.4,0.3c0.9,0.2,1.9,0.2,2.8,0.3
		c1.8,0.1,3.7,0.2,5.5,0.1l1.1,0l-0.3-1.1c0-0.1-0.1-0.2-0.1-0.4c0.2,0.3,0.5,0.5,0.7,0.8c0.8,0.9,1.7,1.7,2.5,2.5l5.2,4.8l0.1,0.1
		l0.1,0c1.6,1,2.9,2.4,4.2,3.9c1.3,1.5,2.4,3.1,3.5,4.8c1.1,1.7,2.1,3.4,3,5.1l0.7,1.3l0.4,0.7c0.1,0.2,0.2,0.4,0.3,0.6
		c0.4,0.9,0.8,1.8,1.1,2.7c0.7,1.9,1.3,3.8,1.8,5.7c0.1,0.2,0.1,0.5,0.2,0.7C126.2,80.5,125.9,80.4,125.6,80.4z"/>
	<path class="st0" d="M76.9,111.8l-5.8,0.2c-2.9,0.1-5.9,0.2-8.8,0.2c-2.9,0-5.9,0-8.8,0c-2.5,0-4.9-0.1-7.4-0.2
		c0.3-0.5,0.6-1,0.8-1.6c0.4-1.1,0.4-2.2,0.3-3.3c-0.1-1.1-0.4-2.1-0.8-3c-0.2-0.5-0.4-0.9-0.5-1.4c-0.1-0.3-0.3-0.6-0.5-0.8
		c-0.2-0.2-0.3-0.4-0.5-0.6c1.6,0.6,5.1,2.2,7.6,4.2c3.3,2.8,7.1-3.6,13.7-6.6c5.2-2.4,4.5-10.4,2.7-14.9c1,1.1,1.9,2.3,2.7,3.5
		c1.1,1.6,2,3.3,2.3,5.1c0.4,1.7-0.1,3.5-1.1,5c-1,1.6-2.3,2.9-3.8,4.2c-1.5,1.2-3.1,2.4-4.8,3.5c-0.8,0.6-1.7,1.1-2.5,1.8
		c-0.8,0.6-1.7,1.2-2.5,2.3l-2.1,2.5l3.2-0.5l2.5-0.4l2.5-0.3c1.7-0.1,3.3-0.2,5-0.1c1.6,0.1,3.3,0.3,4.8,0.7
		C75.7,111.4,76.3,111.6,76.9,111.8z"/>
	<path class="st0" d="M44.9,111.1c-1.6-0.1-3.1,0.1-4.6,0.2c-1.7,0.2-3.4,0.7-5.1,0.9c-1.2,0.1-2.3,0.2-3.4,0.2
		c-0.6-0.1-1.2-0.1-1.8-0.2c-0.8-0.1-1.6-0.3-2.3-0.6c-0.4-0.2-0.7-0.4-1-0.7c-0.1-0.1-0.3-0.3-0.4-0.5c0,0,0-0.1,0-0.1
		c1-1.1,2.1-2,3.6-2.6l0,0c0,0,0.1,0,0.1-0.1c0-0.1,0-0.1-0.1-0.2c-0.4-0.2-0.8-0.2-1.3-0.2c2.9-1.7,4.2-7,3.7-9.7
		c0.2,0.1,0.4,0.2,0.6,0.3c1.8,0.9,3.7,1.6,5.6,2.2c0.9,0.3,1.8,0.6,2.7,1c0.8,0.4,1.6,0.8,2.2,1.3c0.1,0.1,0.2,0.3,0.4,0.4l0.3,0.5
		c0.2,0.4,0.4,0.9,0.6,1.3c0.4,0.9,0.7,1.7,0.9,2.6C45.7,108.7,45.5,110,44.9,111.1z"/>
	<path class="st0" d="M32.1,101.9c-0.5,2.2-1.7,4.5-3.4,5.5h0c-0.6,0-1.3,0.2-1.9,0.4c-1,0.4-2,1-2.8,1.7l-0.6,0.5l-0.5,0.5
		c-0.3,0.3-0.6,0.6-1,0.9c-0.7,0.6-1.4,1-2.3,1.4c-1.7,0.8-3.6,1.2-5.5,2c-0.5,0.2-0.9,0.4-1.4,0.7c-0.5,0.3-0.9,0.6-1.2,1.2
		c-0.1,0.3-0.2,0.6-0.1,0.9c0.1,0.3,0.2,0.5,0.3,0.8c0.2,0.4,0.5,0.8,0.8,1.2c-1.2-0.3-2.4-0.6-3.5-1.1c0,0-0.1,0-0.1,0
		c0,0.1,0,0.1,0,0.2c1.6,1.1,3.3,1.9,5,2.6c1.7,0.7,3.5,1.4,5.2,2c1.3,0.5,2.6,1,3.9,1.5c-2.3-0.3-4.7-0.6-7-0.8
		c-2.3-0.3-4.6-0.6-6.8-1.2C7.2,122,5,121.2,3.2,120c-0.4-0.3-0.9-0.7-1.2-1.1c-0.3-0.4-0.5-0.8-0.4-1.1c0.1-1,0.4-1.9,1-2.7
		c0.6-0.7,1.4-1.4,2.3-1.9c0.9-0.6,2-1,3-1.5c1-0.5,2.1-1,3.2-1.5c1.1-0.5,2.2-1.3,3-2.4c0.8-1.1,1-2.4,1-3.6c0-0.6,0-1.2-0.1-1.8
		c0-0.4,0-0.8,0-1.2C16.9,102.9,29.4,107.1,32.1,101.9z"/>
	<path class="st0" d="M102.1,97.5c-1.8,0-3.6,0.4-5.2,1c-4,1.4-8.3,2.1-12.6,2.2c-1,0-2.1,0-3.1-0.1c-0.5,0-1-0.1-1.4-0.2
		c-0.5-0.1-0.9-0.3-1.1-0.4c-0.5-0.3-0.8-1.1-0.9-2c-0.1-0.9,0-1.9,0.2-2.9c0.4-2,1-4.1,1.7-6.1c0.5-1.5,1.1-3.1,1.7-4.6
		c-0.1,1.8-1.3,7.6,5.2,8.4c6.4,0.9,13.2,0.3,15.4-0.5c0,0.1,0.1,0.1,0.1,0.2l0.1,0.1l0.2,0.1c0.2,0.2,0.4,0.3,0.6,0.5
		c0.3,0.2,0.6,0.4,0.9,0.6C102.5,94.1,101.1,96.3,102.1,97.5z"/>
	<path class="st0" d="M115,58.4c-5.5,0.8-7.7,4.2-11.5,1.9c-2.2-1.3-3-3-4.1-4.3c0,0,0.1,0,0.1,0c-0.1-0.1-0.2-0.1-0.3-0.2
		c-0.6-0.7-1.3-1.2-2.5-1.4c-0.5-0.2-1-0.4-1.5-0.6c-0.8-0.3-1.6-0.4-2.4-0.5c-0.4,0-0.9,0-1.4,0.1c0,0-0.1,0-0.1,0
		c-1.9-0.7-3.5-2-6.6-4.3c-5.2-3.8-13.8-7.4-18.5-6.4c-0.9-1-0.5-3.5-4.9-3.6c-4.4-0.1-12.5-1.4-14.9-0.4
		c-1.1,1.5-12.2,3.2-10.5,5.6c-3.5,3.2-14.3,13.7-10.3,14.7c3.9,1,0.5,6.6-2.6,8.9c-3.1,2.4-7,28.4-7.8,32c0-0.1,0-0.2,0-0.3
		c0-0.1,0-0.2,0.1-0.3c0.1-0.7,0.1-1.3,0.2-2c0-1.3,0-2.7-0.1-4L15.3,90c0-2,0.1-3.9,0.2-5.7c0.3-2,0.9-4.1,1.4-6.1
		c0.7-2.5,1.5-5,2.2-7.5l0.5-1.6L18,69.4c-1.2,0.3-2.5,0.5-3.7,0.7c0.8-1.6,1.7-3.1,2.6-4.6c1.3-2,2.8-4,4.3-5.9
		c1.5-1.9,3.1-3.8,4.7-5.6c1.6-1.8,3.3-3.6,5-5.3l2.6-2.6l-3.6,0.4c-0.4,0-0.9,0.1-1.3,0.1c-0.5,0-0.9,0-1.4,0.1H27
		c0.9-0.9,2-1.6,3.1-2.3c1.9-1.1,3.9-2.1,6-2.9c2.1-0.8,4.2-1.6,6.4-2.2l0.4-0.1l0.2-0.1l0.1,0c0,0,0.1,0,0.2-0.1
		c0.1,0,0.2-0.1,0.2-0.2c0.3-0.2,0.4-0.5,0.4-0.7c0.1-0.4,0-0.7-0.1-0.9c-0.1-0.2-0.2-0.3-0.3-0.5c-0.2-0.2-0.4-0.4-0.5-0.5
		c-0.1-0.1-0.3-0.1-0.4-0.2c0.7-0.1,1.3-0.1,2-0.2c2.4-0.2,4.8-0.2,7.1-0.1c2.4,0.1,4.8,0.3,7.2,0.5c2.4,0.3,4.8,0.6,7.1,1.1
		l1.3,0.3l-0.8-1.1c-0.2-0.3-0.4-0.4-0.5-0.6c-0.1-0.2-0.3-0.3-0.5-0.5c1,0.2,2,0.4,3,0.7c0,0,0.1,0,0.1,0c1.6,0.6,3.6,1.2,5.5,2
		c0,0,0,0,0.1,0c1.4,0.7,2.8,1.4,4.2,2.3c1.1,0.7,2.1,1.5,3,2.3c0.5,0.4,0.9,0.9,1.3,1.4l0.6,0.8c0.2,0.3,0.5,0.5,0.7,0.7
		c1,0.9,2.1,1.7,3.3,2.3c1.2,0.6,2.4,1.1,3.7,1.6l1,0.3l-0.3-1c-0.1-0.4-0.2-0.8-0.2-1.2c0-0.1,0-0.2,0-0.2c0.2,0.1,0.4,0.1,0.6,0.2
		c0.5,0.1,0.9,0.2,1.4,0.3c0.9,0.2,1.8,0.2,2.8,0.3c1.8,0.1,3.7,0.2,5.5,0.1l1.1,0l-0.3-1.1c0-0.1-0.1-0.3-0.1-0.4
		c0.2,0.3,0.5,0.5,0.7,0.8c0.8,0.9,1.7,1.7,2.5,2.5l5.2,4.8l0.1,0.1l0.1,0C112.6,56,113.8,57.2,115,58.4z"/>
	<path class="st4" d="M15.5,93.5c0.1,1.3,0.1,2.6,0.1,4c0,0.7-0.1,1.3-0.2,2c0,0.1,0,0.2-0.1,0.3c-0.1-3.1-0.1-6.5-0.1-9.8
		L15.5,93.5z"/>
	<path class="st4" d="M95.3,54c0.5,0.2,1,0.4,1.5,0.6c-0.2,0-0.5-0.1-0.8-0.1c-2-0.1-3.4-0.4-4.6-0.9c0,0,0.1,0,0.1,0
		c0.5-0.1,0.9-0.1,1.4-0.1C93.7,53.5,94.5,53.7,95.3,54z"/>
	<path class="st4" d="M99.2,55.9c0.1,0.1,0.2,0.1,0.3,0.2c0,0-0.1,0-0.1,0C99.3,56.1,99.3,56,99.2,55.9z"/>
	<path class="st4" d="M94,62.8c0,0,1.7-5.7,5.5-6.7c-2.7-0.9-7-2.4-8.6-1.2C88.5,56.7,94,62.8,94,62.8z"/>
	<path class="st3" d="M92.9,53.5c-0.4,0-0.9,0-1.4,0.1c-0.5,0.1-1,0.3-1.4,0.8c-0.2,0.2-0.4,0.5-0.4,0.7c-0.1,0.2-0.2,0.5-0.2,0.7
		c-0.1,0.5,0,1,0,1.4c0.2,0.9,0.5,1.7,1,2.4c0.4,0.7,1,1.3,1.5,1.9c0.3,0.3,0.6,0.5,0.9,0.8c0.3,0.2,0.7,0.5,1.1,0.6
		c-0.3-0.2-0.5-0.6-0.8-0.9c-0.2-0.3-0.4-0.6-0.6-1c-0.4-0.6-0.7-1.3-1-2c-0.3-0.7-0.5-1.4-0.6-2c0-0.2,0-0.3,0-0.5
		c0-0.2,0-0.3,0-0.4c0-0.1,0.1-0.3,0.1-0.4c0-0.1,0.1-0.2,0.2-0.3c0.2-0.3,0.9-0.4,1.5-0.4c0.7,0,1.4,0.1,2.2,0.2
		c1.5,0.3,3,0.6,4.5,1c-1.3-0.9-2.7-1.7-4.2-2.2C94.5,53.7,93.7,53.5,92.9,53.5z"/>
</g>
</svg>
