<?xml version="1.0" encoding="utf-8"?>
<!-- Generator: Adobe Illustrator 18.1.0, SVG Export Plug-In . SVG Version: 6.00 Build 0)  -->
<svg version="1.1" baseProfile="tiny" id="Layer_1" xmlns="http://www.w3.org/2000/svg" xmlns:xlink="http://www.w3.org/1999/xlink"
	 x="0px" y="0px" viewBox="0 0 128 128" 
width="128" height="128"
xml:space="preserve">
<g>
	<path fill="#62B257" d="M11.8,63.1l5.8,2.3c-1-1.7-2.6-4-5-4.9c-1.1-0.4-2.5-0.7-4.2-0.7c-2.3,0-4.5,0.4-5.9,0.7
		c1.3,1.9,4.2,5.7,7.3,6.9c0.9,0.3,1.9,0.5,2.9,0.5c1.5,0,3-0.4,4.1-0.7l-5.9-2.3c-0.5-0.2-0.8-0.8-0.6-1.3
		C10.7,63.1,11.3,62.9,11.8,63.1z"/>
	<path fill="#F4A742" d="M72.6,54.7c18.1,0,44.2-4.4,49.4-16.2c-21.7,7.7-76.8,7.7-98.9,0c0,0,0,0,0,0
		C28.3,50.3,54.4,54.7,72.6,54.7z"/>
	<path fill="#915E3C" d="M119.8,65.3c-4.2,3.1-18.9,12.4-44.4,12.4c-9.5,0-31.1-3.9-43.5-6.4l9.5,4.2c0.3,0.2,0.6,0.5,0.6,0.9
		c0,0.4-0.2,0.7-0.5,0.9c0,0-1.8,1-4.2,2.3c4-0.8,8.9-1.5,14.7-1.5c2.2,0,4.4,0.1,6.7,0.3c3.1,0.3,6.1,0.8,8.9,1.6
		c1.5,0.4,4.9,0.8,9.9,0.8c9.4,0,25.3-1.5,48.1-8.5c-0.2-0.1-0.4-0.3-0.8-0.5C123.3,70.9,121.1,69.6,119.8,65.3z"/>
	<path fill="#EFC24C" d="M42.2,71.3c11.8,2.2,26.1,4.5,33.2,4.5c13.3,0,23.6-2.6,30.9-5.5c10.7-7.3,16.9-18.1,17-29.7
		c-7,12.7-35,16.3-50.7,16.3c-15.7,0-43.4-3.5-50.6-16.1c0,0,0,0,0,0C22,53.8,28.7,64.1,42.2,71.3C42.1,71.2,42.2,71.2,42.2,71.3z
		 M108.5,59.6c5.1-3.1,7.7-7.1,7.7-7.1c0.3-0.5,0.9-0.6,1.4-0.3c0.5,0.3,0.6,0.9,0.3,1.4c-0.1,0.2-2.9,4.3-8.3,7.7
		c-0.2,0.1-0.3,0.1-0.5,0.1c-0.3,0-0.7-0.2-0.8-0.5C107.9,60.5,108,59.9,108.5,59.6z M76.6,68.8c6.6-0.2,11.3-2.3,14.4-4.3
		c-1.9,0-3-0.2-3.1-0.3c-0.5-0.1-0.9-0.6-0.8-1.2c0.1-0.5,0.6-0.9,1.2-0.8c0,0,2.2,0.4,5.5,0c1.4-1.3,2.1-2.2,2.1-2.3
		c0.3-0.5,0.9-0.6,1.4-0.3c0.4,0.3,0.6,0.9,0.3,1.4c0,0-0.2,0.2-0.4,0.5c1-0.3,2-0.6,3.1-1c0.5-0.2,1.1,0.1,1.3,0.6
		c0.2,0.5-0.1,1.1-0.6,1.3c-2.3,0.9-4.4,1.4-6.3,1.7c-3.1,2.7-8.9,6.3-18.1,6.6c0,0,0,0,0,0c-0.5,0-1-0.4-1-1
		C75.6,69.3,76,68.8,76.6,68.8z M43.1,60.9c0.3-0.5,0.9-0.6,1.4-0.3c0.1,0.1,7.4,4.7,14.3,5.4c-2.3-1.2-3.6-2.4-3.8-2.5
		c-0.4-0.4-0.4-1-0.1-1.4c0.4-0.4,1-0.5,1.4-0.1c0.1,0.1,7.1,6.2,17.3,4.7c0.6-0.1,1,0.3,1.1,0.8c0.1,0.5-0.3,1-0.8,1.1
		c-1.2,0.2-2.4,0.3-3.6,0.3c-2.7,0-5.1-0.5-7.2-1.1c0,0,0,0,0,0c-0.9,0.2-1.8,0.3-2.8,0.3c-7.8,0-16.5-5.5-16.9-5.7
		C42.9,61.9,42.8,61.3,43.1,60.9z M38.2,62.5c-0.2,0.3-0.5,0.5-0.8,0.5c-0.2,0-0.3,0-0.5-0.1c-0.2-0.1-3.9-2.4-7.9-8.5
		c-0.3-0.5-0.2-1.1,0.3-1.4c0.5-0.3,1.1-0.2,1.4,0.3c3.7,5.7,7.2,7.9,7.3,7.9C38.4,61.4,38.5,62,38.2,62.5z"/>
	<path fill="#2D2D2D" d="M76.6,70.8C76.6,70.8,76.6,70.8,76.6,70.8c9.2-0.3,15-3.9,18.1-6.6c1.9-0.3,4-0.8,6.3-1.7
		c0.5-0.2,0.8-0.8,0.6-1.3c-0.2-0.5-0.8-0.8-1.3-0.6c-1.1,0.4-2.1,0.8-3.1,1c0.2-0.3,0.4-0.5,0.4-0.5c0.3-0.5,0.2-1.1-0.3-1.4
		c-0.4-0.3-1.1-0.2-1.4,0.3c0,0-0.7,1-2.1,2.3c-3.3,0.4-5.5,0-5.5,0c-0.5-0.1-1.1,0.2-1.2,0.8c-0.1,0.5,0.2,1.1,0.8,1.2
		c0.1,0,1.3,0.3,3.1,0.3c-3.1,2.1-7.9,4.1-14.4,4.3c-0.5,0-1,0.5-1,1C75.6,70.4,76.1,70.8,76.6,70.8z"/>
	<path fill="#2D2D2D" d="M109,61.4c0.2,0,0.4,0,0.5-0.1c5.5-3.4,8.2-7.5,8.3-7.7c0.3-0.5,0.2-1.1-0.3-1.4c-0.5-0.3-1.1-0.2-1.4,0.3
		c0,0-2.6,4-7.7,7.1c-0.5,0.3-0.6,0.9-0.3,1.4C108.4,61.3,108.7,61.4,109,61.4z"/>
	<path fill="#2D2D2D" d="M37.9,61.1c0,0-3.5-2.2-7.3-7.9c-0.3-0.5-0.9-0.6-1.4-0.3c-0.5,0.3-0.6,0.9-0.3,1.4c4,6.1,7.7,8.4,7.9,8.5
		c0.2,0.1,0.3,0.1,0.5,0.1c0.3,0,0.7-0.2,0.8-0.5C38.5,62,38.4,61.4,37.9,61.1z"/>
	<path fill="#2D2D2D" d="M43.4,62.2c0.4,0.3,9.1,5.7,16.9,5.7c0.9,0,1.9-0.1,2.8-0.3c0,0,0,0,0,0c2.1,0.6,4.5,1.1,7.2,1.1
		c1.1,0,2.3-0.1,3.6-0.3c0.5-0.1,0.9-0.6,0.8-1.1c-0.1-0.5-0.6-0.9-1.1-0.8c-10.2,1.5-17.2-4.6-17.3-4.7c-0.4-0.4-1-0.3-1.4,0.1
		c-0.4,0.4-0.3,1,0.1,1.4c0.1,0.1,1.5,1.3,3.8,2.5c-6.9-0.7-14.2-5.3-14.3-5.4c-0.5-0.3-1.1-0.2-1.4,0.3
		C42.8,61.3,42.9,61.9,43.4,62.2z"/>
	<path fill="#2D2D2D" d="M125.8,70.1c-1.5-0.9-3.4-2-4.4-6.7c-0.1-0.3-0.3-0.6-0.6-0.7c-0.3-0.1-0.7,0-1,0.2c-0.1,0-2.1,1.8-6.1,4
		c7.5-7.3,11.7-16.7,11.7-26.6c0-1-0.3-2-0.8-2.7c0.3-1.1,0.5-2.2,0.5-3.4c0-0.5-0.4-1-1-1s-1,0.4-1,1c0,0.8-0.1,1.6-0.3,2.3
		c-0.3,0-0.7,0-1,0.1c-20.7,7.5-76.5,7.5-97.9,0.1c-0.4-0.2-0.9-0.2-1.3-0.1c-0.2-0.8-0.3-1.6-0.3-2.4c0-0.5-0.4-1-1-1s-1,0.4-1,1
		c0,1.3,0.2,2.5,0.5,3.7c-0.5,0.8-0.8,1.7-0.8,2.8c0,12.4,5.6,22.3,16.6,29.5c-7.3-1.4-12.8-2.5-13.3-2.6c0,0,0,0-0.1,0l-2.9-1.1
		c-0.6-1.5-2.8-6.2-7-7.8c-1.3-0.5-3-0.8-4.9-0.8c-3.9,0-7.6,1.1-7.7,1.1c-0.3,0.1-0.5,0.3-0.6,0.6C0,59.8,0,60.1,0.1,60.4
		c0.2,0.3,4.2,7,9.1,8.9c1.1,0.4,2.3,0.7,3.6,0.7c3.1,0,5.8-1.2,6.8-1.7l2.8,1.1c0,0,0,0,0.1,0c0,0,0,0,0.1,0l16.2,7.1
		c-2.7,1.5-8.1,4.4-12.1,6.4c-0.2,0.1-0.4,0.2-0.6,0.3l-0.1,0l0,0c-0.4,0.3-0.7,0.6-0.6,1.1c0.1,0.5,0.5,0.8,1,0.8
		c0.1,0,0.3,0,0.5-0.1l0.6-0.3c2.4-1.1,11.4-4.7,24.5-4.7c2.1,0,4.3,0.1,6.5,0.3c3,0.3,5.8,0.8,8.5,1.5c0.8,0.2,3.9,0.9,10.4,0.9
		c9.7,0,26.2-1.6,49.9-8.9c0.5-0.1,0.7-0.6,0.7-1.1C127.8,71.3,126.8,70.7,125.8,70.1z M11.1,64.9l5.9,2.3c-1.1,0.4-2.6,0.7-4.1,0.7
		c-1.1,0-2.1-0.2-2.9-0.5c-3.1-1.2-6-5-7.3-6.9c1.4-0.3,3.6-0.7,5.9-0.7c1.7,0,3.1,0.2,4.2,0.7c2.4,0.9,4,3.2,5,4.9l-5.8-2.3
		c-0.5-0.2-1.1,0.1-1.3,0.6C10.3,64.2,10.6,64.7,11.1,64.9z M23.1,38.5c22,7.7,77.2,7.7,98.9,0c-5.3,11.8-31.3,16.2-49.4,16.2
		C54.4,54.7,28.3,50.3,23.1,38.5C23.1,38.5,23.1,38.5,23.1,38.5z M22,40.7C22,40.6,22,40.6,22,40.7c7.2,12.5,34.9,16.1,50.6,16.1
		c15.7,0,43.7-3.6,50.7-16.3c-0.1,11.6-6.3,22.4-17,29.7c-7.3,2.9-17.7,5.5-30.9,5.5c-7.1,0-21.4-2.3-33.2-4.5c0,0-0.1-0.1-0.1-0.1
		C28.7,64.1,22,53.8,22,40.7z M77.4,80.8c-5,0-8.3-0.4-9.9-0.8c-2.8-0.8-5.8-1.3-8.9-1.6c-2.2-0.2-4.5-0.3-6.7-0.3
		c-5.7,0-10.7,0.7-14.7,1.5c2.4-1.3,4.1-2.3,4.2-2.3c0.3-0.2,0.5-0.5,0.5-0.9c0-0.4-0.2-0.7-0.6-0.9l-9.5-4.2
		c12.4,2.4,34,6.4,43.5,6.4c25.5,0,40.2-9.3,44.4-12.4c1.3,4.3,3.5,5.6,5,6.5c0.3,0.2,0.6,0.3,0.8,0.5
		C102.7,79.3,86.8,80.8,77.4,80.8z"/>
</g>
</svg>
