<?xml version="1.0" encoding="utf-8"?>
<!-- Generator: Adobe Illustrator 24.1.2, SVG Export Plug-In . SVG Version: 6.00 Build 0)  -->
<svg version="1.1" id="Layer_1" xmlns="http://www.w3.org/2000/svg" xmlns:xlink="http://www.w3.org/1999/xlink" x="0px" y="0px"
	 viewBox="0 0 128 128" style="enable-background:new 0 0 128 128;" xml:space="preserve">
<style type="text/css">
	.st0{fill:#DB5240;}
	.st1{fill:#EAE4D6;}
	.st2{fill:#2D2D2D;}
</style>
<g>
	<path class="st0" d="M20.2,108.6c5.6,5.9,12.3,10.8,19.8,14.1c7.5,3.3,15.6,5,23.8,5c8.2,0,16.4-1.7,23.8-5.1
		c7.5-3.3,14.2-8.2,19.8-14.1c11.1-11.9,17.6-28,17.5-44.2c0-8.1-1.6-16.2-4.6-23.7c-3-7.5-7.5-14.4-13.1-20.2
		c-5.6-5.8-12.4-10.5-19.8-13.7c-7.4-3.2-15.4-5-23.5-5.1C55.7,1.5,47.6,3,40.1,6.1c-7.5,3.1-14.5,7.8-20.2,13.6
		c-2.9,2.9-5.4,6.2-7.6,9.6c-2.2,3.5-4.1,7.1-5.5,11c-3,7.6-4.4,15.8-4.3,24c0.1,8.2,1.7,16.3,4.7,23.8
		C10.2,95.7,14.6,102.7,20.2,108.6z M12.5,42.8c2.9-6.8,7.1-12.9,12.3-18.1c5.2-5.1,11.2-9.3,17.9-12.2c6.7-2.8,13.9-4.5,21.2-4.6
		c7.3-0.1,14.6,1.2,21.4,4c6.8,2.8,13.1,6.9,18.3,12.1c5.2,5.2,9.4,11.5,12.3,18.4c2.9,6.9,4.3,14.4,4.3,21.9
		c-0.1,7.5-1.5,15-4.4,21.8c-2.9,6.9-7.2,13.1-12.5,18.2c-5.3,5.1-11.6,9.1-18.3,11.7c-6.7,2.6-13.9,4-21.1,4
		c-7.2,0-14.4-1.4-21.1-4c-6.7-2.6-13-6.6-18.3-11.7C19.2,99.2,14.9,93,12,86.1c-2.9-6.9-4.3-14.3-4.2-21.8
		C8,56.9,9.5,49.5,12.5,42.8z"/>
	<path class="st1" d="M25.7,103c4.9,5.2,10.8,9.4,17.3,12.3c6.5,2.9,13.7,4.4,20.8,4.4c7.2,0,14.3-1.5,20.8-4.5
		c6.5-2.9,12.4-7.2,17.2-12.4c9.7-10.4,15.3-24.4,15.2-38.6c0-14.1-5.6-28.2-15.5-38.3c-4.9-5-10.8-9.1-17.2-11.9
		c-6.5-2.8-13.4-4.4-20.5-4.5c-7.1-0.1-14.2,1.1-20.8,3.9c-6.6,2.7-12.6,6.8-17.6,11.9C15.4,35.7,10,50.1,10.3,64.3
		c0.1,7.1,1.5,14.2,4.1,20.8C17.1,91.7,20.9,97.8,25.7,103z M31.3,85.3c0.1-0.1,0.2-0.2,0.2-0.3l0.1-0.1l0.2-0.2l0.8-0.8l1.7-1.7
		l13.4-13.4l3.3-3.3l0.8-0.8c0.1-0.1,0.2-0.2,0.3-0.3l-0.6-0.6l-6.5-6.8c-4.4-4.5-8.7-9.1-13-13.7c-0.5-0.5-0.7-1.3-0.4-2
		c0.1-0.2,0.2-0.3,0.3-0.4c0.1-0.2,0.2-0.2,0.2-0.3l0.4-0.4l1.7-1.7l3.4-3.3l1.7-1.7l0.8-0.8c0.2-0.1,0.2-0.3,0.5-0.5
		c0.3-0.2,0.6-0.2,0.9-0.2c0.3,0,0.6,0.1,0.8,0.3c0.1,0,0.1,0.1,0.2,0.1l0.1,0.1l0.2,0.2l0.8,0.9l1.6,1.7c4.4,4.5,8.8,9,13.2,13.5
		l3.4,3.3l0.8,0.8c0.3,0.3,0.6,0.6,0.7,0.6c0.2,0.1,0.3,0,0.5-0.1l0.8-0.9l6.5-6.9l13-13.7c0.6-0.6,1.6-0.8,2.4-0.5
		c0.2,0.1,0.4,0.2,0.6,0.4l0.2,0.2l0.1,0.1l0.4,0.4l1.7,1.7l3.3,3.3l1.7,1.7l0.8,0.8l0.2,0.2c0,0,0.3,0.3,0.4,0.4
		c0.3,0.4,0.4,0.9,0.4,1.3c0,0.5-0.2,0.9-0.4,1.3c-0.1,0.1-0.1,0.2-0.2,0.3l-0.1,0.1l-0.2,0.2l-0.8,0.8l-1.7,1.7
		c-4.4,4.5-9,8.8-13.5,13.2l-3.4,3.3l-0.9,0.8c-0.3,0.3-0.7,0.6-0.6,0.6c0,0.1-0.1,0.2,0.1,0.3l0.8,0.9l6.4,6.9
		c4.3,4.6,8.7,9.1,13.1,13.6c0.3,0.3,0.4,0.8,0.2,1.3c-0.1,0.2-0.3,0.4-0.4,0.5l-0.4,0.4l-1.6,1.7l-3.3,3.4L87.9,95l-0.8,0.9
		c-0.1,0.1-0.2,0.3-0.5,0.4c-0.2,0.1-0.5,0.2-0.7,0.2c-0.3,0-0.5-0.1-0.7-0.2c-0.2-0.2-0.3-0.3-0.5-0.4L83.9,95l-1.7-1.6L68.5,80.3
		l-3.4-3.3l-0.9-0.8c-0.1-0.1-0.3-0.3-0.4-0.4l-0.7,0.7c-2.2,2.3-4.3,4.6-6.5,6.9c-4.4,4.6-8.8,9-13.2,13.6c-0.7,0.7-1.9,1-2.8,0.5
		c-0.2-0.1-0.5-0.2-0.6-0.4L39.8,97l-0.1-0.1l-0.4-0.4l-1.7-1.7l-3.3-3.4l-1.7-1.7l-0.8-0.8l-0.2-0.2l-0.2-0.2
		c-0.1-0.1-0.2-0.2-0.2-0.3c-0.3-0.4-0.4-1-0.4-1.5C30.9,86.2,31,85.7,31.3,85.3z"/>
	<path class="st0" d="M36.6,89.2l3.3,3.4l1.7,1.7l0.2,0.2c4.3-4.3,8.6-8.7,13-12.9c2.2-2.2,4.5-4.4,6.8-6.6l0.8-0.8
		c0.2-0.3,0.7-0.5,1.1-0.6c0.4-0.1,0.9-0.1,1.3,0.1c0.4,0.1,0.8,0.6,0.9,0.6l0.4,0.4l0.8,0.9l3.2,3.5l12.9,13.9l1.6,1.7l0.8,0.9
		c0.3,0.3,0.5,0.5,0.8,0.5c0.3,0,0.5-0.1,0.8-0.5l0.8-0.8l1.7-1.7l3.3-3.3l1.7-1.7c0.3-0.3,0.6-0.5,0.7-0.8c0.1-0.3,0.1-0.7-0.2-0.9
		c-4.4-4.5-8.9-8.9-13.4-13.3l-6.8-6.5l-0.9-0.8c-0.5-0.4-0.7-1.2-0.4-1.8c0.1-0.3,0.4-0.6,0.5-0.7l0.4-0.4l0.8-0.9l3.2-3.5
		c4.3-4.6,8.6-9.2,13-13.7l1.6-1.7l0.8-0.8l0.1-0.1c0,0,0,0,0,0L92.9,41l-1.7-1.7L88,35.9l-1.6-1.7l-0.4-0.4l-13.4,13l-6.8,6.6
		L65,54.2c-0.4,0.4-1.1,0.6-1.7,0.4c-0.3-0.1-0.6-0.4-0.6-0.5l-0.4-0.4l-0.8-0.9l-3.3-3.4c-4.4-4.5-8.8-9-13.3-13.4l-1.7-1.7
		l-0.8-0.8l-0.2-0.2L42,33.1c0,0,0,0-0.1,0C41.9,33,41.8,33,41.7,33c-0.2,0-0.2,0.1-0.6,0.4l-0.8,0.9L38.7,36l-3.3,3.4l-1.6,1.7
		l-0.4,0.4c0,0.1-0.2,0.2-0.2,0.2c0,0,0,0,0,0.1c0,0.1,0,0.2,0.1,0.2c4.5,4.4,9.1,8.8,13.5,13.2l6.7,6.6l0.8,0.8
		c0.3,0.2,0.6,0.7,0.6,1.2c0.1,0.5,0.1,0.9-0.1,1.4c-0.1,0.4-0.6,0.9-0.6,0.9l-0.4,0.4L53,67.4l-3.3,3.4L36.6,84.4L34.9,86l-0.7,0.7
		l0.7,0.7L36.6,89.2z"/>
	<path class="st2" d="M18.9,109.9c6,5.8,13.1,10.4,20.8,13.5c7.7,3,15.9,4.6,24.1,4.6c8.2,0,16.4-1.6,24.1-4.6
		c7.7-3,14.8-7.6,20.8-13.5c6-5.8,10.9-12.9,14.2-20.7c3.3-7.8,5-16.3,5-24.9c0-8.5-1.6-17.1-4.9-24.9c-3.3-7.9-8.1-15-14-21
		c-5.9-6-13.1-10.7-20.8-13.9C80.5,1.4,72.1-0.1,63.8,0c-8.3,0.1-16.5,1.9-24.2,5.2c-7.6,3.3-14.6,8-20.4,13.9
		C13.4,25,8.5,32,5.2,39.7C1.9,47.4,0.1,55.9,0,64.3c-0.1,8.5,1.5,17,4.8,24.8C8,97,12.9,104.1,18.9,109.9z M6.7,40.3
		c1.5-3.8,3.3-7.5,5.5-11c2.2-3.5,4.8-6.7,7.6-9.6c5.7-5.9,12.6-10.5,20.2-13.6C47.6,3,55.7,1.5,63.8,1.6c8.1,0.1,16.1,1.9,23.5,5.1
		c7.4,3.2,14.1,7.9,19.8,13.7c5.6,5.8,10.1,12.7,13.1,20.2c3,7.5,4.6,15.6,4.6,23.7c0.1,16.3-6.3,32.4-17.5,44.2
		c-5.6,5.9-12.3,10.8-19.8,14.1c-7.5,3.3-15.6,5-23.8,5.1c-8.2,0-16.4-1.7-23.8-5c-7.5-3.3-14.2-8.1-19.8-14.1
		c-5.6-5.9-10-12.9-13-20.4c-3-7.5-4.6-15.6-4.7-23.8C2.3,56.2,3.8,48,6.7,40.3z"/>
	<path class="st2" d="M24.4,104.3c5.3,5.1,11.5,9.1,18.3,11.7c6.7,2.6,13.9,4,21.1,4c7.2,0,14.4-1.4,21.1-4
		c6.7-2.6,13-6.6,18.3-11.7c5.3-5.1,9.6-11.3,12.5-18.2c2.9-6.9,4.4-14.3,4.4-21.8c0-7.5-1.4-15-4.3-21.9
		c-2.9-6.9-7.1-13.2-12.3-18.4c-5.2-5.2-11.5-9.4-18.3-12.1c-6.8-2.8-14.1-4.1-21.4-4c-7.3,0.1-14.5,1.7-21.2,4.6
		c-6.7,2.9-12.8,7-17.9,12.2c-5.1,5.2-9.4,11.3-12.3,18.1C9.5,49.5,8,56.9,7.8,64.3C7.8,71.8,9.2,79.2,12,86.1
		C14.9,93,19.2,99.2,24.4,104.3z M25.4,25.4c5-5.1,11.1-9.2,17.6-11.9c6.6-2.8,13.7-4,20.8-3.9c7.1,0.1,14.1,1.7,20.5,4.5
		c6.5,2.8,12.3,6.9,17.2,11.9c9.9,10.1,15.5,24.2,15.5,38.3c0.1,14.2-5.5,28.2-15.2,38.6c-4.8,5.2-10.7,9.4-17.2,12.4
		c-6.5,2.9-13.7,4.4-20.8,4.5c-7.2,0-14.3-1.5-20.8-4.4c-6.5-2.9-12.4-7.2-17.3-12.3c-4.8-5.2-8.7-11.3-11.3-17.9
		c-2.6-6.6-4-13.6-4.1-20.8C10,50.1,15.4,35.7,25.4,25.4z"/>
	<path class="st2" d="M31.5,88.5l0.2,0.2l0.2,0.2l0.8,0.8l1.7,1.7l3.3,3.4l1.7,1.7l0.4,0.4l0.1,0.1l0.2,0.2c0.2,0.2,0.4,0.3,0.6,0.4
		c0.9,0.4,2.1,0.2,2.8-0.5c4.4-4.5,8.8-9,13.2-13.6c2.2-2.3,4.4-4.6,6.5-6.9l0.7-0.7c0.1,0.1,0.3,0.3,0.4,0.4l0.9,0.8l3.4,3.3
		l13.7,13.1l1.7,1.6l0.8,0.8c0.2,0.1,0.2,0.3,0.5,0.4c0.2,0.2,0.5,0.2,0.7,0.2c0.3,0,0.5-0.1,0.7-0.2c0.2-0.2,0.3-0.3,0.5-0.4
		l0.8-0.9l1.6-1.7l3.3-3.4l1.6-1.7l0.4-0.4c0.1-0.1,0.3-0.3,0.4-0.5c0.2-0.4,0.1-0.9-0.2-1.3c-4.4-4.5-8.8-9-13.1-13.6l-6.4-6.9
		l-0.8-0.9c-0.1-0.1-0.1-0.2-0.1-0.3c0,0,0.4-0.4,0.6-0.6l0.9-0.8l3.4-3.3c4.6-4.3,9.1-8.7,13.5-13.2l1.7-1.7l0.8-0.8l0.2-0.2
		l0.1-0.1c0.1-0.1,0.2-0.2,0.2-0.3c0.3-0.4,0.4-0.8,0.4-1.3c0-0.5-0.1-0.9-0.4-1.3c-0.1-0.2-0.3-0.4-0.4-0.4L95.6,40l-0.8-0.8
		l-1.7-1.7l-3.3-3.3l-1.7-1.7L87.7,32l-0.1-0.1l-0.2-0.2c-0.2-0.1-0.4-0.3-0.6-0.4C86,31,85,31.2,84.4,31.9l-13,13.7l-6.5,6.9
		l-0.8,0.9c-0.1,0.2-0.3,0.2-0.5,0.1c-0.1,0-0.4-0.4-0.7-0.6L62.1,52l-3.4-3.3c-4.5-4.5-8.9-8.9-13.2-13.5l-1.6-1.7l-0.8-0.9
		l-0.2-0.2l-0.1-0.1c-0.1-0.1-0.1-0.1-0.2-0.1c-0.2-0.2-0.5-0.3-0.8-0.3c-0.3,0-0.6,0.1-0.9,0.2c-0.3,0.2-0.4,0.3-0.5,0.5l-0.8,0.8
		l-1.7,1.7l-3.4,3.3l-1.7,1.7l-0.4,0.4c-0.1,0.1-0.1,0.1-0.2,0.3c-0.1,0.1-0.2,0.3-0.3,0.4c-0.3,0.7-0.2,1.5,0.4,2
		c4.3,4.6,8.6,9.2,13,13.7l6.5,6.8l0.6,0.6c-0.1,0.1-0.2,0.2-0.3,0.3l-0.8,0.8l-3.3,3.3L34.4,82.2l-1.7,1.7l-0.8,0.8l-0.2,0.2
		L31.6,85c-0.1,0.1-0.2,0.2-0.2,0.3c-0.3,0.4-0.5,0.9-0.5,1.4c0,0.5,0.1,1,0.4,1.5C31.3,88.3,31.4,88.4,31.5,88.5z M34.9,86l1.6-1.7
		l13.2-13.6l3.3-3.4l0.8-0.8l0.4-0.4c0.1,0,0.5-0.5,0.6-0.9c0.2-0.4,0.2-0.9,0.1-1.4c-0.1-0.4-0.4-0.9-0.6-1.2l-0.8-0.8l-6.7-6.6
		c-4.5-4.4-9-8.8-13.5-13.2c-0.1,0-0.1-0.1-0.1-0.2c0,0,0,0,0-0.1c0,0,0.1-0.1,0.2-0.2l0.4-0.4l1.6-1.7l3.3-3.4l1.6-1.7l0.8-0.9
		c0.3-0.4,0.4-0.4,0.6-0.4c0.1,0,0.2,0,0.2,0.1c0,0,0,0,0.1,0l0.1,0.1l0.2,0.2l0.8,0.8l1.7,1.7c4.5,4.4,8.9,8.9,13.3,13.4l3.3,3.4
		l0.8,0.9l0.4,0.4c0.1,0.1,0.4,0.4,0.6,0.5c0.6,0.3,1.3,0.1,1.7-0.4l0.8-0.8l6.8-6.6l13.4-13l0.4,0.4l1.6,1.7l3.3,3.4l1.7,1.7
		l0.8,0.8c0,0,0,0,0,0l-0.1,0.1l-0.8,0.8l-1.6,1.7c-4.4,4.5-8.7,9.1-13,13.7L75,61.7l-0.8,0.9L73.8,63c-0.1,0.1-0.4,0.4-0.5,0.7
		c-0.3,0.6,0,1.4,0.4,1.8l0.9,0.8l6.8,6.5c4.5,4.4,9,8.8,13.4,13.3c0.2,0.2,0.3,0.6,0.2,0.9c-0.1,0.3-0.5,0.5-0.7,0.8l-1.7,1.7
		L89.3,93l-1.7,1.7l-0.8,0.8c-0.3,0.3-0.5,0.5-0.8,0.5c-0.3,0-0.5-0.2-0.8-0.5l-0.8-0.9l-1.6-1.7L69.9,78.9l-3.2-3.5l-0.8-0.9
		l-0.4-0.4c-0.1-0.1-0.5-0.5-0.9-0.6c-0.4-0.2-0.8-0.2-1.3-0.1c-0.4,0.1-0.9,0.4-1.1,0.6l-0.8,0.8c-2.3,2.2-4.5,4.4-6.8,6.6
		c-4.4,4.3-8.6,8.6-13,12.9l-0.2-0.2l-1.7-1.7l-3.3-3.4l-1.7-1.7l-0.7-0.7L34.9,86z"/>
</g>
</svg>
