<?xml version="1.0" encoding="utf-8"?>
<!-- Generator: Adobe Illustrator 18.1.0, SVG Export Plug-In . SVG Version: 6.00 Build 0)  -->
<svg version="1.1" baseProfile="tiny" id="Layer_1" xmlns="http://www.w3.org/2000/svg" xmlns:xlink="http://www.w3.org/1999/xlink"
	 x="0px" y="0px" viewBox="0 0 128 128" 
width="128" height="128"
xml:space="preserve">
<g>
	<path fill="#ACDEF9" d="M64,96.1c31.4,0,57.2-27.5,62-33c-4.9-5.5-30.6-33-62-33c-31.4,0-57.2,27.5-62,33
		C6.8,68.6,32.6,96.1,64,96.1z M64,37.1c14.2,0,25.7,11.7,25.7,26c0,14.3-11.5,26-25.7,26c-14.2,0-25.7-11.7-25.7-26
		C38.3,48.7,49.8,37.1,64,37.1z"/>
	<path fill="#FFFFFF" d="M64,87.1c13.1,0,23.8-10.8,23.8-24c0-13.2-10.7-24-23.8-24s-23.8,10.8-23.8,24C40.2,76.3,50.9,87.1,64,87.1
		z M64,51.1c6.5,0,11.9,5.4,11.9,12c0,6.6-5.3,12-11.9,12c-6.5,0-11.9-5.4-11.9-12C52.1,56.5,57.5,51.1,64,51.1z"/>
	<path fill="#2D2D2D" d="M64,73.1c5.5,0,9.9-4.5,9.9-10c0-5.5-4.4-10-9.9-10c-5.5,0-9.9,4.5-9.9,10C54.1,68.6,58.5,73.1,64,73.1z"/>
	<path fill="#2D2D2D" d="M64,98.1c32.2,0,58.6-28.1,63.5-33.7c0.7-0.8,0.7-1.9,0-2.6c-4.9-5.6-31.3-33.7-63.5-33.7
		c-32.2,0-58.6,28.1-63.5,33.7c-0.7,0.8-0.7,1.9,0,2.6C5.4,70,31.8,98.1,64,98.1z M64,30.1c31.4,0,57.2,27.5,62,33
		c-4.9,5.5-30.6,33-62,33c-31.4,0-57.2-27.5-62-33C6.8,57.6,32.6,30.1,64,30.1z"/>
	<path fill="#2D2D2D" d="M64,89.1c14.2,0,25.7-11.7,25.7-26c0-14.3-11.5-26-25.7-26c-14.2,0-25.7,11.7-25.7,26
		C38.3,77.4,49.8,89.1,64,89.1z M64,39.1c13.1,0,23.8,10.8,23.8,24c0,13.2-10.7,24-23.8,24s-23.8-10.8-23.8-24
		C40.2,49.8,50.9,39.1,64,39.1z"/>
	<path fill="#2D2D2D" d="M64,75.1c6.5,0,11.9-5.4,11.9-12c0-6.6-5.3-12-11.9-12c-6.5,0-11.9,5.4-11.9,12
		C52.1,69.7,57.5,75.1,64,75.1z M64,53.1c5.5,0,9.9,4.5,9.9,10c0,5.5-4.4,10-9.9,10c-5.5,0-9.9-4.5-9.9-10
		C54.1,57.6,58.5,53.1,64,53.1z"/>
</g>
</svg>
