<?xml version="1.0" encoding="utf-8"?>
<!-- Generator: Adobe Illustrator 23.0.0, SVG Export Plug-In . SVG Version: 6.00 Build 0)  -->
<svg version="1.1" id="Layer_1" xmlns="http://www.w3.org/2000/svg" xmlns:xlink="http://www.w3.org/1999/xlink" x="0px" y="0px"
	 viewBox="0 0 128 128" 
width="128" height="128"
style="enable-background:new 0 0 128 128;" xml:space="preserve">
<style type="text/css">
	.st0{fill:#3A3A3A;}
	.st1{fill:#E5B77A;}
	.st2{fill:#F0E4B9;}
	.st3{fill:#E3CC7B;}
	.st4{fill:#474747;}
	.st5{fill:#E8BA6D;}
	.st6{fill:#FEE58C;}
	.st7{fill:#FEDF72;}
	.st8{fill:#A1A1A1;}
	.st9{fill:#808080;}
	.st10{fill:#8F8F8F;}
	.st11{fill:#2D2D2D;}
</style>
<g>
	<path class="st0" d="M81.5,74.2c3.7-0.3,4.4-1.2,6.4-5c-0.3-1.6-4.6-10-4.6-9.8c0,0-0.2,0.2-0.4,0.5c0,0,0,0,0,0
		c-0.2,0.2-0.4,0.5-0.7,0.9c-0.5,0.6-1.2,1.4-2,2.2c-1,1-2.3,2-3.5,2.7c-2.7,1.4-11.4,1.3-11.4,1.3s5.6,8,6.1,8.1
		C71.4,75.1,78.5,74.5,81.5,74.2z"/>
	<path class="st1" d="M55,41.9C55,41.8,55,41.8,55,41.9L55,41.9C55,41.9,55,41.9,55,41.9z"/>
	<path class="st2" d="M75.3,39.9C75.3,39.9,75.3,39.9,75.3,39.9c0.2-0.2,0.4-0.3,0.5-0.4c0.8-0.3,1.8,0.6,2.1,1.9
		c0.3,1.2,0,2.4-0.7,2.8c-0.1,0.2-0.2,0.4-0.4,0.6c-0.4,0.5-0.9,0.9-1.3,1.3c0,0-0.1,0.1-0.1,0.1c0.8,1.7,1.4,2.7,2.4,4.4
		c0.9-0.6,1.5-1,2.1-1.9c0.6-1,1.3-1.9,2-2.8c0.3-0.5,0.7-0.9,1.1-1.3c0.3-0.4,0.6-0.9,0.9-1.4c0.3-0.5,0.5-1,0.7-1.5
		c0.2-0.5,0.4-1.1,0.6-1.6c0.3-1.1,0.5-2.3,0.2-3.3c-0.3-1.1-0.8-2.2-1.2-3.3c-0.4-1.1-0.7-2.1-1.2-3.2c-0.1-0.1-0.1-0.3-0.2-0.4
		c-0.6-1.3-1.7-2.4-3.1-2.8c-0.4-0.1-0.7-0.2-1-0.4c-1.8-0.7-3.5-1.4-5.3-2.1c0,0.1,0.1,0.1,0.1,0.2c0.2,0.2,0.2,0.6,0.2,0.9
		c-0.1,0.3-0.2,0.6-0.4,0.8c-0.1,0.2-0.3,0.4-0.4,0.7c-0.2,0.4-0.4,0.9-0.6,1.4c-0.7,1.9-0.8,4-0.7,6c0.1,2,0.6,4,1.2,6
		c0.1,0.4,0.3,0.8,0.4,1.2C74.8,40.9,74.8,40.5,75.3,39.9z"/>
	<path class="st3" d="M72.7,26.7c0.2-0.2,0.3-0.4,0.5-0.6c0.2-0.2,0.3-0.4,0.4-0.6c0.1-0.4-0.2-0.9-0.6-1.2
		c-0.1-0.1-0.2-0.2-0.4-0.2c-0.3-0.2-0.7-0.3-1-0.5c-0.4-0.1-0.8-0.2-1.3-0.2c-1.2-0.1-2.5,0-3.7,0.3c-2.4,0.6-4.5,2-6.3,3.8
		c-0.1,0.1-0.2,0.2-0.2,0.3c0.8,0.3,1.6,0.5,2.3,0.7c1.2,0.4,2.4,0.7,3.6,0.9c0.6,0.1,1.2,0.2,1.8,0.1c0.6,0,1.2,0,1.8-0.1
		c0.6-0.1,1.2-0.2,1.7-0.5c0.1,0,0.1-0.1,0.1-0.1c0.1-0.2,0.2-0.4,0.3-0.6C72.1,27.6,72.4,27.1,72.7,26.7z"/>
	<path class="st3" d="M60.4,33.5c1.4,0.4,2.7,0.8,4.1,1c0.7,0.1,1.3,0.2,2,0.2c0.7,0,1.4,0,2.1-0.1c0.7-0.1,1.3-0.3,1.9-0.6
		c0,0,0.1-0.1,0.1-0.1c0-1.4,0.2-2.9,0.6-4.3c-0.4,0.2-0.9,0.4-1.3,0.5c-1.3,0.3-2.7,0.4-4,0.2c-1.3-0.2-2.6-0.7-3.7-1.2
		c-0.6-0.3-1.2-0.6-1.7-0.9c-0.2-0.1-0.4-0.2-0.6-0.4c-1.2,1.3-2.2,2.9-3,4.5c0.5,0.2,1,0.3,1.5,0.5C59,33.1,59.7,33.3,60.4,33.5z"
		/>
	<path class="st2" d="M54.8,49.8c-0.5-0.3-1-0.6-1.5-1.1c-0.5-0.4-0.8-0.8-1-1.2c-0.4-0.3-0.8-0.8-1.4-1.6c-0.2-0.3-0.3-0.6-0.4-0.8
		c-0.8-0.4-1.2-1.8-0.9-3.2c0.3-1.6,1.4-2.6,2.3-2.4c0.2,0.1,0.4,0.2,0.5,0.3c0,0,0.1,0,0.1,0.1c0.4,0.4,0.5,0.8,0.9,1.1
		c0-0.1,0-0.1,0-0.2c0-2.6,0.5-5.3,1.5-7.8c1-2.5,2.5-4.8,4.5-6.6c2-1.8,4.4-3.2,7.1-3.7c2.2-0.4,4.5-0.1,6.4,0.9
		c0.7,0.2,1.4,0.4,2.2,0.6l4.3,1.2c2.8,0.8,5.7,1.5,8.5,2.1c0.7,0.1,1.4,0.3,2.1,0.4l1,0.2l1,0.1c1.4,0.1,2.8,0.1,4-0.2
		c0.3-0.1,0.7-0.2,1-0.4c-0.7-0.1-1.4-0.2-2.1-0.4c-1.4-0.3-2.7-0.7-4.1-1.1c-1.3-0.4-2.7-0.8-4-1.3c-1.3-0.5-2.6-0.9-4-1.3
		c1.4,0.3,2.7,0.7,4.1,1c1.3,0.4,2.7,0.8,4,1.1c1.4,0.3,2.7,0.5,4.1,0.7c1.2,0.1,2.3,0.2,3.5,0.2c0,0,0.1,0,0.1-0.1l0.4-0.3
		c0.1-0.1,0.2-0.2,0.3-0.3c0.7-0.8,0.7-2.3-0.3-3.1c-2.2-2-4.6-3.7-7.2-5c-2.6-1.3-5.5-2.1-8.3-2.3c-0.7-0.1-1.4-0.1-2.1-0.1l-1.1,0
		c-0.4,0-0.7,0.1-1.1,0.1c-1.4,0.1-2.8,0.4-4.2,0.8c-0.7,0.2-1.4,0.4-2.1,0.6c-0.7,0.2-1.4,0.5-2.1,0.7c-1.4,0.4-2.9,0.8-4.4,0.8
		c0,0,0,0,0,0c-2.2,0.4-4.4,0.8-6.5,1.4c-1.4,0.7-2.7,1.4-4.1,2.3c-1.8,1.1-3.4,2.3-4.9,3.7c-2.8,2.9-5.4,6.3-6.3,10.4
		c-0.5,2-0.7,4.1-0.3,6.1c0.2,1,0.5,2,0.8,3c0.4,1,0.8,1.9,1.3,2.9c0.4,1,0.7,2,1,3.1c0.2,1,0.4,2,0.7,3c0.2,1,0.6,1.9,1,2.8
		c0.3,0.5,0.5,1,0.9,1.5c0.2,0.1,0.3,0.2,0.5,0.3c1.1,0.8,2.2,1.4,3.4,2l0.1,0l0,0c1.3,0.8,2.7,1.5,4.1,2.2c1.4,0.8,2.8,1.6,4.1,2.5
		c1,0.7,1.9,1.5,2.8,2.3c-3.1-3.8-5.8-7.9-7.9-12.3C56.2,53.9,55.4,51.9,54.8,49.8z M88.7,19.5c0.9,0,1.6,0.7,1.6,1.6
		c0,0.9-0.7,1.6-1.6,1.6c-0.9,0-1.6-0.7-1.6-1.6C87.1,20.2,87.8,19.5,88.7,19.5z"/>
	<path class="st3" d="M56.4,33.6c-0.9,2.3-1.5,4.8-1.7,7.3c0,0.2,0,0.3,0,0.5c0.5,0.2,1,0.4,1.5,0.5c0.9,0.3,1.7,0.6,2.6,0.8
		c0.9,0.3,1.7,0.5,2.6,0.7c0.9,0.2,1.7,0.4,2.6,0.5l0.6,0.1l0.6,0c0.4,0,0.9,0,1.3-0.1c0.9,0,1.7-0.2,2.6-0.4
		c0.8-0.2,1.7-0.5,2.3-1.1c0.2-0.2,0.4-0.3,0.6-0.6c-0.1-0.4-0.3-0.8-0.4-1.1c-0.6-2-1-4-1-6.1c-0.6,0.4-1.2,0.7-1.9,0.9
		c-1.5,0.4-3,0.4-4.5,0.2c-1.5-0.3-2.9-0.7-4.2-1.3c-0.7-0.3-1.3-0.6-2-1c-0.4-0.3-0.9-0.5-1.3-0.8C56.7,32.9,56.5,33.2,56.4,33.6z"
		/>
	<g>
		<path class="st4" d="M74,25.1c0.5,0.3,1,0.7,1.4,1.1c0.4,0.4,0.9,0.8,1.3,1.2c0.2,0.2,0.2,0.6,0,0.9c-0.2,0.2-0.6,0.2-0.9,0
			c0,0,0,0-0.1-0.1c-0.3-0.5-0.7-0.9-1-1.4c-0.3-0.5-0.6-1-0.9-1.5C73.8,25.2,73.9,25.1,74,25.1C73.9,25.1,73.9,25.1,74,25.1z"/>
		<path class="st4" d="M78.1,29.4c0.3,0.6,0.6,1.2,0.9,1.8c0.3,0.6,0.7,1.2,1,1.8c0.4,0.6,0.8,1.1,1.2,1.7c0.4,0.6,0.7,1.2,1,1.8
			c0.2,0.3,0,0.8-0.3,0.9c-0.3,0.2-0.8,0-0.9-0.3c0,0,0,0,0-0.1c-0.2-0.6-0.5-1.2-0.7-1.9c-0.2-0.6-0.4-1.3-0.7-1.9
			c-0.3-0.6-0.6-1.2-1.1-1.7c-0.4-0.5-0.9-1-1.4-1.5c-0.2-0.2-0.2-0.6,0-0.8c0.2-0.2,0.6-0.2,0.8,0C78.1,29.3,78.1,29.4,78.1,29.4z"
			/>
		<path class="st4" d="M83.9,40.6c0.1,0.6,0.3,1.1,0.3,1.7c0.1,0.6,0.1,1.2,0.1,1.8c0,0,0,0.1-0.1,0.1c0,0-0.1,0-0.1,0
			c-0.6-1-1.1-2.1-1.6-3.1c-0.2-0.3,0-0.7,0.3-0.9c0.3-0.2,0.7,0,0.9,0.3C83.9,40.5,83.9,40.5,83.9,40.6z"/>
	</g>
	<g>
		<path class="st4" d="M72.1,28.4c0.5,0.3,1,0.7,1.4,1.1c0.4,0.4,0.9,0.8,1.3,1.2c0.2,0.2,0.2,0.6,0,0.8c-0.2,0.2-0.6,0.2-0.8,0
			c0,0,0,0,0-0.1c-0.7-0.9-1.3-1.9-1.9-2.9C72,28.5,72,28.4,72.1,28.4C72.1,28.4,72.1,28.4,72.1,28.4z"/>
		<path class="st4" d="M76.4,32.6c0.3,0.6,0.6,1.2,0.9,1.8c0.3,0.6,0.6,1.2,0.9,1.8c0.3,0.6,0.6,1.2,1,1.7c0.4,0.6,0.7,1.2,0.9,1.8
			c0.2,0.3,0,0.7-0.3,0.9c-0.3,0.2-0.7,0-0.9-0.3c0,0,0,0,0-0.1c-0.2-0.6-0.4-1.3-0.5-1.9c-0.2-0.6-0.3-1.3-0.6-1.9
			c-0.2-0.6-0.6-1.2-1-1.7c-0.4-0.5-0.9-1-1.3-1.5c-0.2-0.3-0.2-0.6,0.1-0.9C75.7,32.3,76.1,32.3,76.4,32.6
			C76.3,32.6,76.3,32.6,76.4,32.6z"/>
		<path class="st4" d="M81.4,43.9c0.1,0.6,0.2,1.2,0.2,1.7c0,0.6,0.1,1.2,0,1.8c0,0,0,0.1-0.1,0.1c0,0,0,0-0.1,0
			c-0.3-0.5-0.5-1.1-0.7-1.6c-0.2-0.5-0.5-1.1-0.7-1.6c-0.1-0.3,0-0.7,0.4-0.9c0.3-0.1,0.7,0,0.9,0.4C81.4,43.9,81.4,43.9,81.4,43.9
			z"/>
	</g>
	<g>
		<path class="st4" d="M56.5,21.7c-0.2,0.6-0.5,1.1-0.8,1.6c-0.3,0.5-0.6,1-1,1.4l0,0c-0.2,0.3-0.6,0.3-0.9,0.1
			c-0.3-0.2-0.3-0.6-0.1-0.9c0,0,0,0,0.1-0.1c0.4-0.4,0.8-0.8,1.2-1.2c0.4-0.4,0.9-0.8,1.4-1.1C56.5,21.6,56.5,21.6,56.5,21.7
			C56.6,21.7,56.6,21.7,56.5,21.7L56.5,21.7z"/>
		<path class="st4" d="M53.3,26.6c-0.4,0.5-0.9,0.9-1.4,1.4c-0.4,0.5-0.8,1-1.1,1.6c-0.7,1.1-1.2,2.3-1.5,3.5
			c-0.1,0.2-0.2,0.3-0.4,0.2c-0.2-0.1-0.3-0.2-0.2-0.4c0,0,0,0,0,0c0.5-1.2,1.1-2.4,1.8-3.5c0.3-0.6,0.7-1.1,1-1.7
			c0.3-0.6,0.6-1.2,0.9-1.8c0.2-0.3,0.5-0.4,0.8-0.2c0.3,0.2,0.4,0.5,0.2,0.8C53.3,26.6,53.3,26.6,53.3,26.6z"/>
		<path class="st4" d="M48.5,37.2c-0.1,1.2-0.2,2.3-0.2,3.5c0,1.2,0.1,2.3,0.2,3.5c0,0.4-0.2,0.8-0.7,0.8c-0.4,0-0.8-0.2-0.8-0.7
			c0,0,0,0,0,0C47,43.2,47,41.9,47,40.7c0-1.2,0.2-2.5,0.4-3.7c0.1-0.3,0.4-0.5,0.7-0.4C48.4,36.6,48.5,36.9,48.5,37.2z"/>
		<path class="st4" d="M48.9,46.6c0.2,1.3,0.4,2.5,0.8,3.8c0.3,1.3,0.6,2.5,1,3.7c0.1,0.3-0.1,0.6-0.4,0.7c-0.3,0.1-0.6-0.1-0.7-0.4
			c-0.5-1.2-0.9-2.5-1.3-3.8c-0.3-1.3-0.7-2.6-0.9-3.9c-0.1-0.4,0.2-0.8,0.6-0.9C48.5,45.9,48.9,46.2,48.9,46.6z"/>
		<path class="st4" d="M52,58c0.4,1.1,0.8,2.2,1.2,3.2c0,0,0,0.1,0,0.1c0,0-0.1,0-0.1,0c-0.3-0.5-0.6-1-0.9-1.5
			c-0.3-0.5-0.6-1-0.8-1.5l0,0c-0.1-0.2,0-0.4,0.2-0.5C51.6,57.7,51.8,57.8,52,58C51.9,58,51.9,58,52,58z"/>
	</g>
	<g>
		<path class="st4" d="M64.5,20.8c-0.8,0.6-1.6,1.2-2.5,1.8l0,0c-0.2,0.1-0.4,0.1-0.6-0.1c-0.1-0.2-0.1-0.4,0.1-0.6c0,0,0,0,0.1,0
			c0.9-0.4,1.8-0.9,2.8-1.2C64.5,20.7,64.6,20.7,64.5,20.8C64.6,20.8,64.6,20.8,64.5,20.8z"/>
		<path class="st4" d="M60.8,23.8c-0.4,0.5-0.8,1-1.3,1.4c-0.4,0.5-0.9,0.9-1.3,1.4l0,0c-0.2,0.3-0.7,0.3-0.9,0
			c-0.3-0.2-0.3-0.7,0-0.9l0,0c0.4-0.5,0.9-0.9,1.4-1.4c0.5-0.4,0.9-0.9,1.4-1.3c0.2-0.2,0.6-0.2,0.8,0C61,23.3,61,23.6,60.8,23.8
			L60.8,23.8z"/>
		<path class="st4" d="M56,28.7l-0.6,0.6l0,0c-0.2,0.2-0.5,0.2-0.8,0c-0.2-0.2-0.2-0.5,0-0.7l0.5-0.7c0.2-0.3,0.6-0.3,0.8-0.1
			C56.2,28,56.3,28.4,56,28.7C56.1,28.7,56.1,28.7,56,28.7L56,28.7z"/>
		<path class="st4" d="M53.8,31.3c-0.2,0.3-0.5,0.6-0.7,0.9c-0.1,0.1-0.2,0.1-0.3,0.1c-0.1-0.1-0.1-0.2-0.1-0.3
			c0.2-0.3,0.4-0.7,0.6-1c0.1-0.1,0.2-0.2,0.4-0.1C53.8,31,53.8,31.2,53.8,31.3C53.8,31.3,53.8,31.3,53.8,31.3z"/>
		<path class="st4" d="M52.2,34.7c-0.1,0.7-0.2,1.3-0.3,2c0,0.2-0.2,0.4-0.4,0.4c-0.2,0-0.4-0.2-0.4-0.4c0,0,0,0,0,0
			c0.1-0.7,0.3-1.4,0.5-2.1c0-0.2,0.2-0.2,0.4-0.2C52.1,34.4,52.2,34.6,52.2,34.7z"/>
		<path class="st4" d="M51.6,38.7c0,1.2,0,2.3,0.1,3.5c0,0.3-0.2,0.6-0.6,0.7c-0.3,0-0.6-0.2-0.7-0.6c0,0,0,0,0,0
			c0-1.2,0-2.4,0.2-3.6c0-0.2,0.3-0.4,0.5-0.4C51.4,38.2,51.6,38.4,51.6,38.7z"/>
		<path class="st4" d="M51.8,43.3c0.2,1.2,0.4,2.5,0.7,3.7c0.1,0.4-0.2,0.8-0.6,0.9c-0.4,0.1-0.8-0.2-0.9-0.6c0,0,0,0,0,0
			c-0.2-1.3-0.4-2.6-0.5-3.9c0-0.4,0.2-0.7,0.6-0.7C51.5,42.7,51.8,42.9,51.8,43.3z"/>
		<path class="st4" d="M53,48.9l0.2,0.8l0,0c0.1,0.4-0.1,0.8-0.5,0.9c-0.4,0.1-0.8-0.1-0.9-0.5l0,0l-0.2-0.9
			c-0.1-0.4,0.1-0.8,0.5-0.9C52.4,48.3,52.9,48.5,53,48.9L53,48.9z"/>
		<path class="st4" d="M54.2,53.1c0.1,0.4,0.2,0.7,0.4,1.1l0,0c0.1,0.4-0.1,0.8-0.5,0.9c-0.4,0.1-0.7-0.1-0.9-0.4l-0.4-1.1
			c-0.1-0.4,0-0.8,0.4-0.9C53.6,52.5,54,52.7,54.2,53.1C54.2,53.1,54.2,53.1,54.2,53.1L54.2,53.1z"/>
		<path class="st4" d="M55.8,57.8l0.7,1.9l0,0c0.1,0.2,0,0.5-0.3,0.6c-0.2,0.1-0.4,0-0.5-0.2l-1-1.8c-0.1-0.3,0-0.6,0.2-0.7
			C55.3,57.4,55.7,57.5,55.8,57.8C55.8,57.8,55.8,57.8,55.8,57.8L55.8,57.8z"/>
		<path class="st4" d="M56.9,60.6l0.6,1.6l0.7,1.6c0,0,0,0.1,0,0.1c0,0-0.1,0-0.1,0c-0.3-0.5-0.7-1-1-1.5c-0.3-0.5-0.6-1-0.9-1.5
			c-0.1-0.2,0-0.4,0.1-0.5C56.5,60.3,56.8,60.3,56.9,60.6C56.9,60.5,56.9,60.6,56.9,60.6z"/>
	</g>
	<path class="st5" d="M69.7,22.6c0,0-3.3-3.5-9.8-2.7c2-1,4-1.5,4.4-1.5c0.4,0,4.2-0.3,4.2-0.3s5.4,1.2,5.5,1.2s11.2,4.1,11.5,4.3
		c0.3,0.1,10.2,2.4,11.5,2.5c1.3,0,2.3,1.1,2.1,1.2c-0.2,0-1.8,1.8-3.8,1.7c-2-0.1-12-1.5-13.6-2.1c-1.6-0.6-7.5-2.7-8.3-3
		C72.5,23.6,69.7,22.6,69.7,22.6z"/>
	<path class="st4" d="M82.9,23.6c0,0-8.6-4.6-16.5-5.1c2.8-0.6,8.6-2.8,9.6-3.2c1.1-0.3,9.1-0.8,10.9,0.1c1.8,0.8,5.4,2.3,6.1,2.8
		s6.2,3.7,6.7,4.7s1.1,3.6-0.4,4c-1.5,0.5-3.3,0.2-4.4-0.1c-1.1-0.3-7.3-1.8-8.1-2S82.9,23.6,82.9,23.6z"/>
	<path class="st6" d="M88,82.8c-0.4,0.2-0.8,0.5-1.2,0.7c-0.4,0.2-0.9,0.4-1.3,0.6c-1.8,0.6-3.6,0.8-5.4,0.9c-0.9,0-1.8,0-2.7,0
		c-0.5,0-1-0.1-1.5-0.1c0.2,0.6,0.3,1.2,0.4,1.8c0.4,1.8,0.6,3.8,0.6,5.7c0.7,0,1.3-0.1,2-0.2c0.8-0.1,1.7-0.2,2.5-0.3
		c1.7-0.2,3.4-0.4,5-0.8c1.6-0.3,3.2-0.8,4.4-1.9c0.7-0.6,1.2-1.4,1.7-2.2c-0.3-2.3-0.8-4.6-1.3-6.9c-0.3,0.4-0.6,0.8-0.9,1.1
		C89.5,81.7,88.7,82.3,88,82.8z"/>
	<path class="st7" d="M72.8,48.7c-0.3,0.4-0.7,0.7-1.1,1.1c-0.8,0.6-1.7,1.1-2.5,1.5c-0.5,0.2-0.9,0.4-1.4,0.5
		c-0.5,0.2-1,0.3-1.5,0.3c-2,0.2-4,0-5.8-0.4c-0.9-0.2-1.9-0.5-2.8-0.7c-0.7-0.2-1.3-0.5-2-0.8c0.2,0.6,0.4,1.2,0.5,1.8
		c0.4,1.2,0.9,2.4,1.5,3.6c0.8,1.6,1.6,3.1,2.6,4.6c0.9,0,1.8-0.1,2.7-0.2c0.9-0.1,1.9-0.2,2.8-0.3c1.8-0.2,3.7-0.6,5.4-1.1
		c0.9-0.3,1.7-0.6,2.5-1.1c0.8-0.4,1.6-0.9,2.3-1.4c0.7-0.5,1.4-1.2,1.8-1.9c0.2-0.4,0.4-0.8,0.4-1.2c0,0,0-0.1,0-0.1
		c-1.4-1.8-2.6-3.6-3.8-5.6C73.9,47.9,73.3,48.4,72.8,48.7z"/>
	<path class="st8" d="M89.2,91.3c-0.8,0.4-1.7,0.6-2.6,0.8c-1.7,0.4-3.4,0.5-5.2,0.6c-0.9,0-1.7,0-2.6,0c-0.7-0.1-1.3-0.1-2-0.2
		c0,1-0.1,2-0.2,3c0.2,1.2,0.2,2.4,0.2,3.7c0.6,0.1,1.2,0.1,1.8,0.2c0.8,0.1,1.7,0.1,2.5,0.2c1.7,0.1,3.3,0.2,4.9,0.1
		c0.8,0,1.6-0.1,2.4-0.3c0.8-0.2,1.5-0.5,2.1-0.9c1.1-0.7,1.9-1.6,2.6-2.8c0-1.2-0.1-2.4-0.2-3.5c-0.1-1.4-0.3-2.8-0.4-4.2
		c-0.3,0.6-0.7,1.3-1.2,1.8C90.8,90.3,90,90.9,89.2,91.3z"/>
	<path class="st4" d="M85.5,29.2c0-0.2-0.1-0.3-0.1-0.5c-1-0.3-1.9-0.6-2.9-0.9c0.6,0.6,1.1,1.3,1.6,2c0.6,1,1,2.2,1.3,3.3
		c0.2,1.2,0.3,2.3,0.6,3.4c0.2,0.6,0.2,1.2,0.2,1.8c0,0.6,0,1.2-0.1,1.8c-0.2,1.2-0.4,2.3-0.9,3.4c-0.2,0.6-0.5,1.1-0.9,1.6
		c-0.3,0.5-0.7,0.9-1,1.4c-0.7,0.9-1.5,1.8-2.2,2.7c-0.7,0.8-1.5,1.6-2.3,2.4c1.1,1.7,2.2,3.4,3.4,5c0.4,0.5,0.8,1.1,1.1,1.6
		c0,0,0,0,0,0c0,0,0,0,0,0.1c0,0,0,0.1,0.1,0.1c-0.1-0.4-0.2-0.8-0.2-1.3c-0.2-1.5-0.2-3-0.1-4.4c0.1-1.5,0.5-2.9,0.9-4.3
		c0.2-0.7,0.5-1.4,0.7-2.1c0.3-0.7,0.6-1.3,1-2c0.3-0.6,0.7-1.3,1.1-1.9c0.3-0.6,0.6-1.3,0.7-2c0.3-1.4,0.1-2.8-0.1-4.1
		c-0.2-1.3-0.5-2.7-0.8-4c-0.2-0.7-0.4-1.3-0.6-2L85.5,29.2z"/>
	<path class="st4" d="M45.5,48.7c-0.3-0.9-0.8-1.9-1-3c-0.3-1-0.5-2.1-0.6-3.1c-0.2-2.1,0.1-4.3,0.5-6.3c0.5-2,1.1-4.1,2.1-6
		c0.5-0.9,1.1-1.8,1.7-2.7c0.6-0.9,1.4-1.7,2.1-2.4c1.6-1.5,3.4-2.7,5.2-3.7c0.3-0.2,0.7-0.4,1.1-0.5c-1.2,0.4-2.4,0.9-3.6,1.5
		c-2.4,1.2-4.7,2.6-6.7,4.4c-2,1.8-3.5,4.2-4.2,6.8c-0.2,0.7-0.3,1.3-0.4,2c-0.1,0.3-0.1,0.7-0.1,1c0,0.3,0,0.7,0,1
		c0,1.4,0,2.7,0.2,4.1c0.3,2.7,0.9,5.4,1.8,7.9c0.9,2.5,2.3,4.8,4.1,6.8c0.2,0.2,0.4,0.4,0.7,0.7c-0.5-0.8-0.9-1.6-1.1-2.4
		C46.3,52.7,46.1,50.6,45.5,48.7z"/>
	<path class="st7" d="M59.3,44.7c0.4,0.6-0.7,0.8-1.3,2.3c-0.5,1.2,0.3,2.6,0.9,3.7c-0.1,0-0.2,0-0.3,0c0.7,0.1,1.3,0.2,2,0.3
		c1.9,0.2,3.7,0.3,5.5,0.1c0.4-0.1,0.9-0.1,1.3-0.3c0.4-0.1,0.9-0.3,1.3-0.5c0.5-0.2,1-0.4,1.5-0.7c0.5-1,0.9-2.1,0.5-3
		c-0.6-1.3-1.6-1.4-1.3-2c0-0.1,0.1-0.1,0.1-0.2c0,0-0.1,0-0.1,0c-0.9,0.3-1.8,0.5-2.8,0.6c-0.5,0-0.9,0.1-1.4,0.1l-0.7,0
		c-0.2,0-0.5,0-0.7-0.1c-1.9-0.2-3.7-0.8-5.4-1.5c-0.1-0.1-0.3-0.1-0.4-0.2C58.5,43.7,59,44.1,59.3,44.7z"/>
	<path class="st9" d="M76,123c-1.7-0.5-3.4-1.2-5-2c-0.8-0.4-1.6-0.8-2.4-1.2c-0.6-0.3-1.1-0.7-1.6-1c-1.5,1.3-3.2,2.4-4.9,3.3
		c-1.2,0.7-2.6,1.2-3.9,1.5c-0.7,0.2-1.4,0.3-2,0.5c-0.7,0.1-1.4,0.3-2.1,0.3c-2.7,0.4-5.5,0.5-8.2,0.5c-4.7,0-9.4-0.2-14-0.6l7,0.8
		c1.3,0.1,2.6,0.3,3.8,0.5c1.3,0.1,2.5,0.3,3.8,0.4c2.5,0.2,5.1,0.4,7.6,0.5l1.9,0.1l1.9,0c1.3,0,2.5,0,3.8-0.1
		c1.3-0.1,2.5-0.1,3.8-0.2c1.3-0.1,2.5-0.2,3.8-0.4c2.5-0.3,5-0.8,7.4-1.5c0.8-0.3,1.6-0.5,2.4-0.8c-0.1,0-0.2,0-0.3,0
		C77.7,123.4,76.8,123.2,76,123z"/>
	<path class="st4" d="M53.8,122.8c0.7,0,1.3-0.1,2-0.2c0.6-0.1,1.3-0.2,1.9-0.4c0.6-0.1,1.3-0.3,1.9-0.5c0.6-0.2,1.2-0.5,1.8-0.8
		c1.2-0.6,2.3-1.3,3.4-2l0.8-0.6l0.8-0.6c0.5-0.4,1-0.9,1.5-1.3c2-1.8,3.7-3.9,5-6.2c1.3-2.3,2.3-4.9,2.9-7.5
		c0.2-1.2,0.4-2.4,0.5-3.6c0,0,0-0.1,0-0.1c0.1-0.9,0.1-1.8,0-2.8c-0.1,0.3-0.1,0.6-0.2,0.9c-0.4,1.7-1.1,3.4-1.9,4.9
		c-0.8,1.4-1.7,2.8-2.8,4c0,0-0.3,0.3-0.3,0.3c-0.7,0.6-1.4,1-2.1,1.4c-0.9,0.5-1.7,0.9-2.6,1.4c-1.8,0.8-3.6,1.6-5.5,2.1
		c-1.9,0.5-4,0.8-6,0.7c-0.5,0-1-0.1-1.5-0.1l-1.5-0.2c-1-0.1-1.9-0.3-2.9-0.5c-1-0.2-1.9-0.4-2.9-0.6c-1-0.2-1.9-0.5-2.8-0.6
		c-0.5-0.1-0.9-0.1-1.4-0.1c-0.5,0-1,0-1.5,0c-1,0-2,0-2.9,0.1c-3.9,0.1-7.8,0.3-11.7,0.2c-3.9-0.1-7.9-0.2-11.8-2
		c-0.1-0.1-0.2-0.1-0.4-0.2c-0.1-0.1-0.3-0.2-0.4-0.2c-0.3-0.2-0.5-0.4-0.7-0.6c-0.4-0.5-0.7-1-0.9-1.6c-0.3-1.2-0.1-2.6,0.8-3.5
		c0.4-0.5,1-0.8,1.5-1.1c0.6-0.2,1.2-0.3,1.8-0.3c1.1,0,2.2,0.3,3.1,0.6c1.9,0.7,3.7,1.6,5.4,2.4c1.7,0.9,3.5,1.8,5.2,2.6
		c3,1.4,6.2,2.6,9.6,2.8c0.4,0,0.8-0.1,1.2-0.1c0.5-0.1,1-0.1,1.5-0.1c0.5,0,1,0,1.5,0c2,0.2,3.9,0.6,5.8,0.8l2.9,0.5l1.4,0.2
		c0.5,0.1,0.9,0.1,1.4,0.2c0.4,0,0.7,0,1.1,0c-3.5-1.2-6.9-2.8-10.1-4.6c-3.5-1.9-6.9-4-10.4-5.9c-3.5-2-7-3.8-10.6-5.3
		c-1.8-0.7-3.7-1.3-5.6-1.7c-1.9-0.4-3.8-0.5-5.6-0.1c-2.4,0.7-4.6,1.8-6.4,3.4C5.4,97.8,4,99.8,3.1,102c-0.9,2.2-1.3,4.7-1.2,7.1
		c0,2.5,0.5,4.9,1.6,7c1.1,2.1,2.9,3.8,5.1,4.8c2.2,1,4.7,1.5,7.2,1.7c1.3,0.1,2.5,0.1,3.8,0.2c1.3,0.1,2.6,0.2,3.8,0.4
		c2,0.2,4,0.5,5.9,0.7c0,0,0,0,0,0c0,0,0-0.1,0.1-0.1c5.4-0.5,10.9-0.6,16.3-0.7C48.5,123,51.2,123,53.8,122.8z"/>
	<path class="st10" d="M91.1,99.1c-0.7,0.6-1.5,0.9-2.4,1.2c-0.9,0.2-1.8,0.3-2.6,0.3c-1.7,0-3.4-0.1-5.1-0.4
		c-0.8-0.1-1.7-0.3-2.5-0.5c-0.6-0.2-1.2-0.3-1.8-0.5c0,1.2-0.2,2.4-0.4,3.5c-0.5,2.7-1.4,5.3-2.6,7.8c-1.3,2.4-3,4.7-5,6.6
		c-0.5,0.5-1.1,1-1.6,1.4c0.6,0.2,1.1,0.5,1.7,0.7l2.5,0.9c1.6,0.6,3.3,1.2,5,1.7c0.8,0.2,1.7,0.5,2.5,0.6c0.8,0.1,1.6,0.1,2.5-0.1
		c0.3-0.1,0.7-0.2,1-0.3c0.4-0.2,0.8-0.5,1.2-0.7c2.1-1.3,4.1-3.1,5.2-5.3l0,0c0,0,0,0,0,0c0.3-0.6,0.6-1.2,0.9-1.8
		c-0.6,0.8-1.4,1.5-2.3,1.9c-0.8,0.4-1.7,0.6-2.6,0.7c-0.9,0.1-1.8,0-2.7-0.2c-1.7-0.3-3.4-0.8-5-1.3c-0.8-0.3-1.6-0.6-2.4-1
		c-0.8-0.4-1.6-0.7-2.3-1.3c0.8,0.3,1.6,0.5,2.5,0.7c0.8,0.2,1.7,0.4,2.5,0.6c1.7,0.4,3.3,0.8,5,1.1c1.7,0.3,3.3,0.3,4.8-0.2
		c1.3-0.5,2.4-1.4,3.3-2.5c0.9-2,1.5-4.1,2-6.3c-0.3,0.4-0.7,0.8-1.1,1.1c-0.7,0.6-1.6,0.9-2.5,1.2c-0.9,0.2-1.8,0.3-2.7,0.3
		c-1.8,0-3.5-0.2-5.2-0.4c-0.9-0.1-1.7-0.3-2.5-0.5c-0.8-0.2-1.7-0.4-2.5-0.8c0.8,0.2,1.7,0.2,2.5,0.3c0.8,0.1,1.7,0.1,2.5,0.2
		c1.7,0.1,3.4,0.2,5.1,0.2c1.7,0,3.3-0.2,4.6-1.1c0.7-0.4,1.4-1,1.9-1.7c0-0.3,0.1-0.5,0.1-0.8c0.4-2.7,0.6-5.4,0.6-8.1
		C92.7,97.4,92,98.4,91.1,99.1z"/>
	<path class="st0" d="M11.9,103.3c0,0,0.7-7.1,9.8-3.3c3.4,1.4,13.1,8.4,17,9.2c-4.2-0.3-6-1.2-7.2-1.6c-1.2-0.4-8.6-3.3-10.1-4.1
		c-1.4-0.8-5.4-2.2-6.4-2S11.9,103.3,11.9,103.3z"/>
	<path class="st4" d="M124.6,112.9c-0.5-0.5-1.1-1-1.7-1.5c-0.6-0.5-1.3-0.9-2-1.2c-2.7-1.5-5.7-2.3-8.7-3
		c-5.9-1.5-12.1-2.1-18.3-2.2c-0.3,1.1-0.5,2-0.8,2.9c-0.1,0.4,0.2,0.9,0.7,0.8c1.7-0.1,3.3,0,5-0.1c1.1,0,2.1,0,3.2,0.1
		c1.1,0.1,2.2,0.2,3.2,0.4c2.1,0.4,4.2,1.1,6.1,2.3c0.9,0.6,1.8,1.2,2.6,2c0.7,0.8,1.3,1.8,1.7,2.8c0.2,0.5,0.3,1.1,0.4,1.6
		c0,0.3,0.1,0.6,0.1,0.8c0,0.3,0,0.7-0.1,1c-0.2,0.6-0.7,1.1-1.1,1.5c-0.4,0.4-0.9,0.7-1.4,1c-1,0.6-2,1-3,1.4c-1,0.4-2.1,0.7-3.1,1
		c-0.7,0.2-1.5,0.4-2.2,0.5c2.7-0.3,5.4-0.6,8-0.9c3-0.4,6.1-0.9,9-1.8c0.7-0.2,1.4-0.5,2.1-0.8c0.7-0.3,1.3-0.7,1.8-1.1
		c0.5-0.4,0.9-1,1-1.6c0.1-0.7,0.1-1.4-0.1-2.2C126.6,115.3,125.7,114,124.6,112.9z"/>
	<path class="st0" d="M5.6,97.8c-0.9,1.3-3.3,14.5,0.5,17.8s8.2,4.9,13.8,5.8s10.1-1.5,14.6-2.2s22.8,1.9,26.5,0.1
		c3.7-1.8,9-3.8,10.2-5.2c-4.2,4.5-9.4,8.6-12.6,9c-3.1,0.4-15.5,1.1-18.6,0.8s-11,0.3-13.5,0.2c-2.5-0.1-11.3-0.9-14-1.2
		c-2.7-0.3-7.3-2.6-10-6.5c-2.7-3.9-1.8-10.9-1.2-13.3c0.6-2.4,3.7-5.9,3.8-6.1C5.4,96.9,5.6,97.8,5.6,97.8z"/>
	<path class="st6" d="M77.3,84.4c0.9-0.1,1.8-0.2,2.7-0.3c1.8-0.3,3.5-0.6,5.1-1.1c0.4-0.1,0.8-0.3,1.2-0.5c0.4-0.2,0.8-0.4,1.2-0.6
		c0.8-0.4,1.5-0.9,2.1-1.4c0.5-0.4,1-0.9,1.3-1.4c-0.8-3.3-1.8-6.6-3-9.8c0,0,0,0.1-0.1,0.1c-0.3,1.4-0.9,2.7-2.1,3.6
		c-0.7,0.6-1.5,1-2.4,1.3c-0.8,0.3-1.7,0.5-2.6,0.6C80,74.9,79.1,75,78.2,75c-0.9,0.1-1.7,0.1-2.6,0.1c-0.9,0-1.7-0.1-2.6-0.1
		c-0.2,0-0.4,0-0.6-0.1c-0.5,0-0.9,0-1.2,0.1c0.4,0.6,0.7,1.2,1.1,1.8c1.4,2.4,2.5,5,3.3,7.8C76.3,84.5,76.8,84.4,77.3,84.4z"/>
	<path class="st7" d="M82.7,60.6c0.2-0.3,0.3-0.7,0.4-1.1c0-0.1,0-0.2,0-0.3c-0.5-0.8-1-1.6-1.6-2.3c-1-1.2-2-2.4-2.9-3.6
		c0,0.4-0.1,0.8-0.2,1.1c-0.4,0.9-1,1.7-1.7,2.4c-1.5,1.3-3.2,2.3-5.1,2.9c-1.9,0.6-3.8,0.8-5.7,0.9c-1,0-1.9,0-2.9,0
		c-0.9-0.1-1.8-0.1-2.7-0.4c1.5,2.3,3.2,4.5,5.1,6.5c0.8,0,1.7-0.1,2.5-0.2c0.9-0.1,1.9-0.2,2.8-0.3c1.8-0.2,3.7-0.6,5.4-1.1
		c0.9-0.3,1.7-0.6,2.5-1.1c0.8-0.4,1.5-0.8,2.2-1.3C81.5,62,82.2,61.2,82.7,60.6z"/>
	<path class="st11" d="M88.7,22.7c0.9,0,1.6-0.7,1.6-1.6c0-0.9-0.7-1.6-1.6-1.6c-0.9,0-1.6,0.7-1.6,1.6C87.1,22,87.8,22.7,88.7,22.7
		z"/>
	<path class="st11" d="M125,112.5c-1.1-1.1-2.4-2-3.8-2.9c-2.7-1.7-5.6-3-8.6-3.9c-1.5-0.4-3.1-0.8-4.6-1c-1.6-0.3-3.1-0.4-4.7-0.5
		c-3.1-0.1-9.1-0.1-9.1-0.2c0.9-4.2,1-7.9,0.7-12.1c-0.3-4.2-1.1-8.4-2.2-12.5c-1.1-4.1-2.6-8.1-4.4-11.9c-0.9-1.9-1.9-3.8-2.9-5.6
		c-0.3-0.6-0.6-1.1-1-1.7c-0.2-1.1-0.1-2.2-0.1-3.3c0.1-1.4,0.2-2.8,0.4-4.1c0.2-1.4,0.4-2.7,0.7-4.1c0.3-1.4,0.7-2.7,1.1-4.1
		c0.1-0.3,0.2-0.7,0.3-1l0.4-1c0.1-0.3,0.3-0.7,0.4-1c0.1-0.4,0.2-0.7,0.3-1.1c0.4-1.4,0.8-2.9,0.8-4.4c0-1.5-0.4-3-1-4.3
		c-0.4-1-1-2-1.7-2.9c0.5,0.1,0.9,0.2,1.4,0.4c1.4,0.3,2.9,0.7,4.5,0.8c0.8,0,1.6,0.1,2.3,0c0.8-0.1,1.6-0.2,2.4-0.5
		c0.8-0.3,1.5-0.6,2.2-1.1c0.3-0.2,0.6-0.5,0.9-0.7c0.1-0.1,0.3-0.2,0.4-0.4c0.2-0.2,0.3-0.3,0.5-0.5c0.5-0.8,0.7-1.7,0.6-2.6
		c-0.2-0.9-0.7-1.7-1.4-2.2c-2.4-1.7-5-3.3-7.6-4.7c-1.3-0.7-2.6-1.3-4-1.9c-1.4-0.6-2.8-1-4.4-1.3C83,14.1,82.2,14,81.5,14l-1.1,0
		c-0.4,0-0.8,0.1-1.1,0.1c-1.5,0.2-3,0.5-4.4,1c-1.4,0.5-2.8,1.1-4.1,1.7c-0.9,0.4-1.9,0.8-2.8,1.2c-2.5,0-5,0.2-7.5,0.6
		c-2.8,0.5-5.5,1.3-8,2.5c-2.6,1.2-4.9,2.9-6.8,5.1c-1.9,2.2-3.2,4.7-3.9,7.4c-0.2,0.7-0.4,1.4-0.5,2c-0.1,0.7-0.2,1.4-0.2,2.1
		c-0.1,1.4-0.1,2.8-0.1,4.2c0,2.8,0.4,5.6,1.3,8.3c0.9,2.7,2.3,5.3,4.2,7.5c0.9,1.1,2,2.1,3.2,2.9c1.2,0.8,2.4,1.5,3.7,2.1
		c1.4,0.8,2.9,1.4,4.3,2.1c1.4,0.7,2.8,1.4,4.2,2.2c1.3,0.8,2.6,1.7,3.8,2.7c0.6,0.5,1.2,1,1.8,1.6c0.4,0.6,0.8,1.3,1.2,1.9
		c0.9,1.4,1.8,2.9,2.5,4.4c1.5,3,2.8,6.2,3.6,9.4c0.8,3.2,1,6.6,0.5,9.9c-0.5,3-2,5.4-3.7,8c-0.3,0.5-0.8,1-1.2,1.3
		c-1.3,1-2.5,1.6-4,2.2c-1.8,0.7-3.7,1.3-5.5,1.7c-0.9,0.2-1.8,0.3-2.7,0.4c-0.8,0.1-1.6,0-2.3-0.3c-3.2-1.3-6.3-3-9.3-4.8
		c-3.4-2-6.8-4.2-10.2-6.3c-3.4-2.1-6.9-4.1-10.6-5.7c-1.9-0.8-3.8-1.5-5.8-1.9c-2-0.4-4.1-0.6-6.2-0.2l0,0l0,0
		c-2.6,0.7-5.1,1.8-7.1,3.5c-2.1,1.7-3.8,3.9-4.8,6.4c-1,2.5-1.4,5.3-1.3,7.9c0.1,2.6,0.6,5.4,1.9,7.8c1.3,2.4,3.5,4.3,6,5.4
		c2.5,1.1,5.1,1.5,7.7,1.6c1.3,0.1,2.6,0,3.9,0c1.3,0,2.5,0.1,3.8,0.2c2.6,0.2,5.1,0.4,7.7,0.6c2.5,0.2,5.1,0.5,7.6,0.8
		c1.3,0.2,2.5,0.3,3.8,0.5c1.3,0.2,2.5,0.4,3.8,0.6c2.5,0.4,5.1,0.7,7.7,0.9c2.6,0.3,5.1,0.4,7.7,0.4c5.2-0.1,10.4-0.7,15.3-2.4
		c2.5-0.9,4.9-2,7-3.5c1.1-0.8,2-1.7,2.9-2.6c0.8-1,1.6-2,2-3.3c1.6-2,2.8-4.3,3.8-6.7c4.2,0.5,8.4,0.6,12.4,1.2
		c2.1,0.3,4.1,0.5,6,1.4c0.9,0.4,1.8,1,2.5,1.8c0.7,0.8,1.1,1.7,1.4,2.7c0.1,0.5,0.2,1,0.2,1.5c0,0.3,0,0.5,0,0.8
		c0,0.2-0.1,0.4-0.2,0.5c-0.4,0.7-1.3,1.2-2.2,1.6c-1.8,0.9-3.9,1.4-5.9,1.9l-6.1,1.7c-1.9,0.5-3.7,1.1-5.6,1.7
		c-0.2,0-0.4,0-0.5,0.1c0,0-0.1,0-0.1,0.1c0,0,0,0.1,0,0.1c0,0,0,0,0,0.1c0,0,0,0.1,0.1,0.1c0.3,0,0.6,0,1-0.1
		c2.8,0.2,5.6,0.3,8.4,0.2c3.1,0,6.3-0.2,9.4-0.6c1.6-0.2,3.1-0.5,4.7-0.8c1.5-0.3,3.1-0.8,4.6-1.3c1.5-0.6,3-1.3,4.2-2.5
		c0.6-0.6,1.1-1.5,1.1-2.4c0-0.9-0.1-1.7-0.3-2.5C127.1,115,126.1,113.6,125,112.5z M93,92.1c0.1,1.2,0.2,2.4,0.2,3.5
		c-0.7,1.1-1.6,2.1-2.6,2.8c-0.7,0.4-1.4,0.7-2.1,0.9c-0.7,0.2-1.5,0.2-2.4,0.3c-1.6,0.1-3.3,0-4.9-0.1c-0.8-0.1-1.7-0.1-2.5-0.2
		c-0.6-0.1-1.2-0.1-1.8-0.2c0-1.2,0-2.5-0.2-3.7c0.2-1,0.2-2,0.2-3c0.7,0.1,1.3,0.2,2,0.2c0.9,0,1.7,0.1,2.6,0
		c1.7,0,3.5-0.2,5.2-0.6c0.9-0.2,1.7-0.4,2.6-0.8c0.8-0.4,1.6-0.9,2.2-1.6c0.5-0.5,0.9-1.2,1.2-1.8C92.7,89.3,92.9,90.7,93,92.1z
		 M92.4,86.8c-0.4,0.9-1,1.6-1.7,2.2c-1.2,1.1-2.7,1.6-4.4,1.9c-1.6,0.4-3.3,0.6-5,0.8c-0.8,0.1-1.7,0.2-2.5,0.3
		c-0.7,0.1-1.3,0.1-2,0.2c0-1.9-0.2-3.8-0.6-5.7c-0.1-0.6-0.3-1.2-0.4-1.8c0.5,0.1,1,0.1,1.5,0.1c0.9,0,1.8,0.1,2.7,0
		c1.8-0.1,3.6-0.3,5.4-0.9c0.4-0.2,0.9-0.3,1.3-0.6c0.4-0.2,0.8-0.4,1.2-0.7c0.8-0.5,1.5-1,2.2-1.7c0.3-0.3,0.7-0.7,0.9-1.1
		C91.6,82.2,92.1,84.5,92.4,86.8z M86.4,32.3c0.4,1.3,0.6,2.7,0.8,4c0.3,1.3,0.4,2.8,0.1,4.1c-0.2,0.7-0.4,1.3-0.7,2
		c-0.3,0.6-0.7,1.2-1.1,1.9c-0.4,0.6-0.7,1.3-1,2c-0.3,0.7-0.5,1.4-0.7,2.1c-0.4,1.4-0.8,2.8-0.9,4.3c-0.1,1.5-0.1,3,0.1,4.4
		c0.1,0.4,0.1,0.8,0.2,1.3c0,0,0-0.1-0.1-0.1c0,0,0,0,0-0.1c0,0,0,0,0,0c-0.4-0.5-0.7-1.1-1.1-1.6c-1.2-1.6-2.4-3.3-3.4-5
		c0.8-0.8,1.6-1.5,2.3-2.4c0.8-0.9,1.5-1.7,2.2-2.7c0.4-0.5,0.7-0.9,1-1.4c0.4-0.5,0.6-1.1,0.9-1.6c0.5-1.1,0.8-2.3,0.9-3.4
		c0.1-0.6,0.1-1.2,0.1-1.8c0-0.6,0-1.2-0.2-1.8c-0.3-1.1-0.4-2.3-0.6-3.4C85,32,84.6,30.9,84,29.8c-0.4-0.7-0.9-1.4-1.6-2
		c1,0.3,1.9,0.6,2.9,0.9c0,0.2,0.1,0.3,0.1,0.5l0.3,1C86,30.9,86.2,31.6,86.4,32.3z M47.5,56.5c-1.8-1.9-3.2-4.2-4.1-6.8
		c-0.9-2.5-1.5-5.2-1.8-7.9c-0.1-1.4-0.2-2.7-0.2-4.1c0-0.3,0-0.7,0-1c0-0.3,0.1-0.7,0.1-1c0.1-0.7,0.2-1.3,0.4-2
		c0.7-2.6,2.3-5,4.2-6.8c2-1.8,4.2-3.3,6.7-4.4c1.2-0.6,2.4-1.1,3.6-1.5c-0.4,0.2-0.7,0.3-1.1,0.5c-1.9,1-3.6,2.2-5.2,3.7
		c-0.8,0.7-1.5,1.5-2.1,2.4c-0.6,0.9-1.2,1.8-1.7,2.7c-1,1.9-1.6,3.9-2.1,6c-0.5,2-0.8,4.2-0.5,6.3c0.1,1.1,0.3,2.1,0.6,3.1
		c0.3,1,0.8,2,1,3c0.7,1.9,0.8,4,1.5,6c0.3,0.9,0.7,1.7,1.1,2.4C47.9,56.9,47.7,56.7,47.5,56.5z M62.2,65.9
		c-1.3-0.9-2.7-1.8-4.1-2.5c-1.4-0.8-2.9-1.5-4.1-2.2l0,0l-0.1,0c-1.2-0.6-2.3-1.2-3.4-2c-0.2-0.1-0.3-0.2-0.5-0.3
		c-0.3-0.5-0.6-1-0.9-1.5c-0.4-0.9-0.8-1.9-1-2.8c-0.3-1-0.5-2-0.7-3c-0.3-1-0.6-2.1-1-3.1c-0.5-1-0.9-1.9-1.3-2.9
		c-0.4-1-0.7-1.9-0.8-3c-0.4-2-0.2-4.1,0.3-6.1c0.9-4.1,3.5-7.6,6.3-10.4c1.5-1.4,3.2-2.6,4.9-3.7c1.3-0.8,2.7-1.6,4.1-2.3
		c2.1-0.6,4.3-1,6.5-1.4c0,0,0,0,0,0c1.5,0,3-0.4,4.4-0.8c0.7-0.2,1.4-0.4,2.1-0.7c0.7-0.2,1.4-0.4,2.1-0.6c1.4-0.4,2.8-0.6,4.2-0.8
		c0.4,0,0.7-0.1,1.1-0.1l1.1,0c0.7,0,1.4,0,2.1,0.1c2.8,0.2,5.7,1,8.3,2.3c2.6,1.3,5,3,7.2,5c1,0.8,1,2.3,0.3,3.1
		c-0.1,0.1-0.2,0.2-0.3,0.3l-0.4,0.3c0,0-0.1,0.1-0.1,0.1c-1.1,0-2.3-0.1-3.5-0.2c-1.4-0.2-2.7-0.4-4.1-0.7c-1.4-0.3-2.7-0.7-4-1.1
		c-1.3-0.4-2.7-0.8-4.1-1c1.4,0.3,2.7,0.8,4,1.3c1.3,0.5,2.6,0.9,4,1.3c1.3,0.4,2.7,0.8,4.1,1.1c0.7,0.1,1.4,0.3,2.1,0.4
		c-0.3,0.2-0.7,0.3-1,0.4c-1.3,0.4-2.7,0.4-4,0.2l-1-0.1l-1-0.2c-0.7-0.2-1.4-0.3-2.1-0.4c-2.8-0.6-5.7-1.4-8.5-2.1L75,24.2
		c-0.7-0.2-1.4-0.4-2.2-0.6c-1.9-1-4.2-1.3-6.4-0.9c-2.7,0.5-5.1,1.9-7.1,3.7c-2,1.8-3.5,4.1-4.5,6.6c-1,2.5-1.5,5.1-1.5,7.8
		c0,0.1,0,0.1,0,0.2c0.3,0.3,0.8,0.5,1.6,0.8l0,0.1c0,0,0,0,0.1,0c0.4,0,0.8-0.1,1,0.2c0.3,0.4,1.2,0.7,2,1.3
		c0.1,0.1,0.3,0.1,0.4,0.2c1.7,0.7,3.5,1.2,5.4,1.5c0.2,0,0.5,0,0.7,0.1l0.7,0c0.5,0,0.9,0,1.4-0.1c0.9-0.1,1.9-0.3,2.8-0.6
		c0,0,0.1,0,0.1,0c0.8-1.3,2.4-1.7,2.7-2.3c0.2-0.4,0.7,0.2,1.1,0.1l-0.2-0.5c0.2-0.1,0.3-0.1,0.4-0.2c-0.2-0.4-0.3-0.8-0.4-1.2
		c-0.6-1.9-1.1-3.9-1.2-6c-0.2-2,0-4.1,0.7-6c0.2-0.5,0.4-0.9,0.6-1.4c0.1-0.2,0.3-0.4,0.4-0.7c0.1-0.2,0.3-0.5,0.4-0.8
		c0.1-0.3,0-0.6-0.2-0.9c0-0.1-0.1-0.1-0.1-0.2c1.7,0.8,3.5,1.5,5.3,2.1c0.3,0.1,0.7,0.3,1,0.4c1.4,0.5,2.5,1.5,3.1,2.8
		c0.1,0.1,0.1,0.3,0.2,0.4c0.4,1,0.8,2.1,1.2,3.2c0.4,1.1,0.8,2.2,1.2,3.3c0.3,1.1,0.1,2.2-0.2,3.3c-0.2,0.5-0.4,1.1-0.6,1.6
		c-0.2,0.5-0.4,1-0.7,1.5c-0.3,0.5-0.5,1-0.9,1.4c-0.4,0.4-0.7,0.9-1.1,1.3c-0.7,0.9-1.4,1.9-2,2.8c-0.6,0.9-1.2,1.3-2.1,1.9
		c-1-1.7-1.6-2.7-2.4-4.4c-0.2,0.2-0.6,0.5-1,1c0,0-0.1,0.1-0.1,0.1c1.1,2,2.4,3.8,3.8,5.6c0,0,0,0.1,0,0.1
		c-0.1,0.4-0.2,0.9-0.4,1.2c-0.4,0.8-1.1,1.4-1.8,1.9c-0.7,0.5-1.5,1-2.3,1.4c-0.8,0.4-1.6,0.8-2.5,1.1c-1.7,0.5-3.6,0.8-5.4,1.1
		C64.9,59.9,63.9,60,63,60c-0.9,0.1-1.8,0.2-2.7,0.2c-1-1.5-1.9-3-2.6-4.6c-0.5-1.2-1-2.3-1.5-3.6c-0.2-0.6-0.4-1.2-0.5-1.8
		c0.6,0.3,1.3,0.5,2,0.8c0.9,0.3,1.8,0.6,2.8,0.7c1.9,0.4,3.8,0.6,5.8,0.4c0.5-0.1,1-0.2,1.5-0.3c0.5-0.2,0.9-0.3,1.4-0.5
		c0.9-0.4,1.8-0.9,2.5-1.5c0.4-0.3,0.8-0.7,1.1-1.1c-1.2,0.8-2.2,1.1-2.8,1.2c0-0.1,0.1-0.2,0.2-0.3c-0.5,0.3-1,0.5-1.5,0.7
		c-0.4,0.2-0.9,0.3-1.3,0.5C67,50.9,66.5,51,66.1,51c-1.8,0.2-3.7,0.1-5.5-0.1c-0.7-0.1-1.3-0.2-2-0.3c-0.8,0-2.2,0-3.7-0.9
		c0.6,2.1,1.4,4.1,2.4,6.1c2.1,4.4,4.8,8.5,7.9,12.3C64.2,67.3,63.2,66.6,62.2,65.9z M58.1,33.4c0.6,0.4,1.3,0.7,2,1
		c1.3,0.6,2.7,1.1,4.2,1.3c1.5,0.3,3,0.2,4.5-0.2c0.6-0.2,1.3-0.4,1.9-0.9c0.1,2.1,0.4,4.1,1,6.1c0.1,0.4,0.2,0.8,0.4,1.1
		c-0.2,0.2-0.4,0.4-0.6,0.6c-0.7,0.5-1.5,0.8-2.3,1.1c-0.8,0.2-1.7,0.3-2.6,0.4c-0.4,0-0.9,0.1-1.3,0.1l-0.6,0l-0.6-0.1
		c-0.9-0.1-1.7-0.3-2.6-0.5c-0.9-0.2-1.7-0.5-2.6-0.7c-0.9-0.3-1.7-0.5-2.6-0.8c-0.5-0.2-1-0.3-1.5-0.5c0-0.2,0-0.3,0-0.5
		c0.2-2.5,0.7-5,1.7-7.3c0.1-0.3,0.3-0.7,0.4-1C57.2,32.9,57.7,33.1,58.1,33.4z M56.9,32.4c0.8-1.6,1.8-3.1,3-4.5
		c0.2,0.1,0.4,0.2,0.6,0.4c0.6,0.3,1.1,0.6,1.7,0.9c1.2,0.5,2.4,1,3.7,1.2c1.4,0.2,2.7,0.2,4-0.2c0.4-0.1,0.9-0.3,1.3-0.5
		c-0.4,1.4-0.6,2.8-0.6,4.3c0,0-0.1,0.1-0.1,0.1c-0.6,0.3-1.2,0.5-1.9,0.6c-0.7,0.1-1.4,0.1-2.1,0.1c-0.7,0-1.4-0.1-2-0.2
		c-1.4-0.2-2.7-0.6-4.1-1c-0.7-0.2-1.4-0.4-2-0.7C57.9,32.7,57.4,32.6,56.9,32.4z M71.6,28.7c0,0-0.1,0.1-0.1,0.1
		c-0.5,0.3-1.1,0.4-1.7,0.5c-0.6,0.1-1.2,0.1-1.8,0.1c-0.6,0-1.2-0.1-1.8-0.1c-1.2-0.2-2.4-0.5-3.6-0.9c-0.8-0.2-1.6-0.5-2.3-0.7
		c0.1-0.1,0.2-0.2,0.2-0.3c1.7-1.7,3.9-3.1,6.3-3.8c1.2-0.3,2.5-0.4,3.7-0.3c0.4,0,0.8,0.1,1.3,0.2c0.3,0.2,0.7,0.3,1,0.5
		c0.1,0.1,0.3,0.1,0.4,0.2c0.4,0.3,0.7,0.8,0.6,1.2c-0.1,0.2-0.2,0.4-0.4,0.6c-0.2,0.2-0.3,0.4-0.5,0.6c-0.3,0.4-0.6,0.9-0.8,1.4
		C71.8,28.3,71.7,28.5,71.6,28.7z M72.4,76.8c-0.3-0.6-0.7-1.2-1.1-1.8c-0.3-0.4-5.9-8-5.9-8c0.1,0,0.2,0,0.3,0
		c2.5,0,8.7,0,11.4-1.4c1.3-0.7,2.5-1.7,3.5-2.7c-0.7,0.5-1.4,0.9-2.2,1.3c-0.8,0.4-1.6,0.8-2.5,1.1c-1.7,0.5-3.6,0.8-5.4,1.1
		c-0.9,0.1-1.9,0.2-2.8,0.3c-0.8,0.1-1.7,0.2-2.5,0.2c-1.9-2-3.6-4.2-5.1-6.5c0.9,0.2,1.8,0.3,2.7,0.4c0.9,0,1.9,0.1,2.9,0
		c1.9-0.1,3.8-0.3,5.7-0.9c1.9-0.6,3.6-1.6,5.1-2.9c0.7-0.7,1.4-1.5,1.7-2.4c0.1-0.4,0.2-0.8,0.2-1.1c1,1.2,1.9,2.4,2.9,3.6
		c0.6,0.7,1.1,1.5,1.6,2.3c0,0.1,0,0.2,0,0.3c-0.1,0.4-0.2,0.7-0.4,1.1c0.3-0.3,0.5-0.6,0.7-0.9c0,0,4.5,9.2,4.4,9.4
		c1.2,3.2,2.2,6.5,3,9.8c-0.4,0.5-0.8,1-1.3,1.4c-0.7,0.5-1.4,1-2.1,1.4c-0.4,0.2-0.8,0.4-1.2,0.6c-0.4,0.2-0.8,0.3-1.2,0.5
		c-1.6,0.6-3.4,0.9-5.1,1.1c-0.9,0.1-1.8,0.2-2.7,0.3c-0.5,0-1,0.1-1.5,0.1C75,81.8,73.8,79.2,72.4,76.8z M29.5,123.8
		C29.4,123.8,29.4,123.9,29.5,123.8C29.4,123.9,29.4,123.9,29.5,123.8c-2.1-0.1-4-0.4-6-0.6c-1.3-0.1-2.6-0.3-3.8-0.4
		c-1.3-0.1-2.6-0.1-3.8-0.2c-2.5-0.2-5-0.7-7.2-1.7c-2.2-1-4-2.7-5.1-4.8c-1.1-2.1-1.6-4.6-1.6-7c-0.1-2.5,0.3-4.9,1.2-7.1
		c0.9-2.2,2.4-4.2,4.2-5.8c1.9-1.5,4.1-2.7,6.4-3.4c1.8-0.3,3.8-0.2,5.6,0.1c1.9,0.4,3.8,1,5.6,1.7c3.6,1.5,7.2,3.4,10.6,5.3
		c3.5,2,6.9,4,10.4,5.9c3.3,1.7,6.6,3.4,10.1,4.6c-0.4,0-0.7,0-1.1,0c-0.5,0-0.9-0.1-1.4-0.2l-1.4-0.2l-2.9-0.5
		c-1.9-0.3-3.8-0.7-5.8-0.8c-0.5,0-1,0-1.5,0c-0.5,0-1,0.1-1.5,0.1c-0.4,0-0.8,0.1-1.2,0.1c-3.4-0.3-6.6-1.4-9.6-2.8
		c-1.8-0.8-3.5-1.7-5.2-2.6c-1.8-0.9-3.5-1.8-5.4-2.4c-1-0.3-2-0.6-3.1-0.6c-0.6,0-1.2,0.1-1.8,0.3c-0.6,0.2-1.1,0.6-1.5,1.1
		c-0.9,1-1.1,2.4-0.8,3.5c0.2,0.6,0.5,1.1,0.9,1.6c0.2,0.2,0.4,0.4,0.7,0.6c0.1,0.1,0.3,0.2,0.4,0.2c0.1,0.1,0.2,0.1,0.4,0.2
		c3.8,1.7,7.8,1.9,11.8,2c3.9,0,7.8-0.1,11.7-0.2c1,0,2,0,2.9-0.1c0.5,0,1,0,1.5,0c0.5,0,0.9,0,1.4,0.1c0.9,0.2,1.9,0.4,2.8,0.6
		c1,0.2,1.9,0.4,2.9,0.6c1,0.2,1.9,0.3,2.9,0.5l1.5,0.2c0.5,0.1,1,0.1,1.5,0.1c2,0.1,4.1-0.2,6-0.7c1.9-0.5,3.8-1.3,5.5-2.1
		c0.9-0.4,1.8-0.9,2.6-1.4c0.7-0.4,1.5-0.9,2.1-1.4c0,0,0.3-0.3,0.3-0.3c1.1-1.2,2-2.5,2.8-4c0.8-1.5,1.5-3.2,1.9-4.9
		c0.1-0.3,0.1-0.6,0.2-0.9c0,0.9,0,1.8,0,2.8c0,0,0,0,0,0.1c-0.1,1.2-0.3,2.4-0.5,3.6c-0.6,2.6-1.5,5.2-2.9,7.5
		c-1.3,2.3-3.1,4.4-5,6.2c-0.5,0.4-1,0.9-1.5,1.3l-0.8,0.6l-0.8,0.6c-1.1,0.8-2.2,1.5-3.4,2c-0.6,0.3-1.2,0.5-1.8,0.8
		c-0.6,0.2-1.2,0.4-1.9,0.5c-0.6,0.2-1.3,0.3-1.9,0.4c-0.7,0.1-1.3,0.2-2,0.2c-2.7,0.2-5.4,0.3-8.1,0.4
		C40.3,123.3,34.9,123.4,29.5,123.8z M36.1,109.3c-3.4,0.2-6.8,0.3-10.2-0.1c-1.9-0.2-3.9-0.4-5.7-0.8c-1.9-0.4-3.7-0.9-5.3-1.7
		c-0.1-0.1-0.2-0.1-0.3-0.2c-0.1,0-0.2-0.1-0.2-0.2c-0.1-0.1-0.3-0.2-0.4-0.4c-0.2-0.3-0.4-0.6-0.5-1c-0.2-0.7,0-1.5,0.5-1.9
		c0.5-0.5,1.2-0.7,2-0.7c0.8,0,1.7,0.2,2.6,0.5c1.8,0.6,3.5,1.4,5.3,2.2c1.8,0.8,3.6,1.6,5.4,2.3c1.8,0.7,3.8,1.3,5.7,1.6
		C35.3,109.2,35.7,109.3,36.1,109.3z M76.6,124.4c-2.4,0.7-4.9,1.2-7.4,1.5c-1.3,0.1-2.5,0.3-3.8,0.4c-1.3,0.1-2.5,0.1-3.8,0.2
		c-1.3,0-2.5,0.1-3.8,0.1l-1.9,0l-1.9-0.1c-2.5-0.1-5.1-0.3-7.6-0.5c-1.3-0.1-2.5-0.3-3.8-0.4c-1.3-0.2-2.5-0.3-3.8-0.5l-7-0.8
		c4.7,0.4,9.3,0.6,14,0.6c2.7,0,5.5-0.1,8.2-0.5c0.7-0.1,1.4-0.2,2.1-0.3c0.7-0.2,1.4-0.3,2-0.5c1.4-0.4,2.7-0.9,3.9-1.5
		c1.8-1,3.4-2.1,4.9-3.3c0.5,0.4,1.1,0.7,1.6,1c0.8,0.4,1.6,0.9,2.4,1.2c1.6,0.8,3.2,1.5,5,2c0.9,0.3,1.7,0.5,2.7,0.6
		c0.1,0,0.2,0,0.3,0C78.2,123.9,77.4,124.1,76.6,124.4z M92.5,105.1c-0.6,0.7-1.2,1.3-1.9,1.7c-1.4,0.8-3,1.1-4.6,1.1
		c-1.7,0-3.4-0.1-5.1-0.2c-0.8-0.1-1.7-0.1-2.5-0.2c-0.8-0.1-1.7-0.1-2.5-0.3c0.8,0.4,1.6,0.6,2.5,0.8c0.8,0.2,1.7,0.4,2.5,0.5
		c1.7,0.3,3.4,0.5,5.2,0.4c0.9,0,1.8-0.1,2.7-0.3c0.9-0.2,1.7-0.6,2.5-1.2c0.4-0.3,0.8-0.7,1.1-1.1c-0.5,2.2-1.1,4.3-2,6.3
		c-1,1.1-2.1,2-3.3,2.5c-1.5,0.6-3.1,0.5-4.8,0.2c-1.7-0.3-3.3-0.6-5-1.1c-0.8-0.2-1.6-0.4-2.5-0.6c-0.8-0.2-1.7-0.4-2.5-0.7
		c0.7,0.5,1.5,0.9,2.3,1.3c0.8,0.4,1.6,0.7,2.4,1c1.6,0.6,3.3,1.1,5,1.3c0.9,0.1,1.7,0.2,2.7,0.2c0.9-0.1,1.8-0.3,2.6-0.7
		c0.9-0.5,1.7-1.1,2.3-1.9c-0.3,0.6-0.6,1.2-0.9,1.8c0,0,0,0,0,0l0,0c-1.1,2.3-3.1,4-5.2,5.3c-0.4,0.3-0.8,0.5-1.2,0.7
		c-0.3,0.1-0.7,0.2-1,0.3c-0.8,0.2-1.6,0.2-2.5,0.1c-0.8-0.1-1.6-0.3-2.5-0.6c-1.7-0.5-3.3-1.1-5-1.7l-2.5-0.9
		c-0.6-0.2-1.2-0.4-1.7-0.7c0.6-0.5,1.1-0.9,1.6-1.4c2-1.9,3.7-4.1,5-6.6c1.3-2.4,2.2-5.1,2.6-7.8c0.2-1.2,0.3-2.4,0.4-3.5
		c0.6,0.2,1.2,0.4,1.8,0.5c0.8,0.2,1.6,0.4,2.5,0.5c1.7,0.3,3.4,0.4,5.1,0.4c0.8,0,1.7-0.1,2.6-0.3c0.9-0.2,1.7-0.6,2.4-1.2
		c1-0.7,1.7-1.7,2.1-2.8c0,2.7-0.1,5.4-0.6,8.1C92.6,104.6,92.6,104.9,92.5,105.1z M127,118.9c-0.1,0.6-0.5,1.2-1,1.6
		c-0.5,0.4-1.1,0.8-1.8,1.1c-0.7,0.3-1.4,0.6-2.1,0.8c-2.9,0.9-5.9,1.3-9,1.8c-2.7,0.4-5.4,0.7-8,0.9c0.7-0.2,1.5-0.3,2.2-0.5
		c1-0.3,2.1-0.6,3.1-1c1-0.4,2-0.8,3-1.4c0.5-0.3,1-0.6,1.4-1c0.4-0.4,0.9-0.9,1.1-1.5c0.1-0.3,0.2-0.7,0.1-1c0-0.3-0.1-0.6-0.1-0.8
		c-0.1-0.6-0.2-1.1-0.4-1.6c-0.4-1.1-0.9-2-1.7-2.8c-0.7-0.8-1.6-1.5-2.6-2c-1.9-1.1-4-1.9-6.1-2.3c-1.1-0.2-2.1-0.3-3.2-0.4
		c-1.1-0.1-2.2-0.1-3.2-0.1c-1.7,0-3.3-0.1-5,0.1c-0.5,0-0.8-0.4-0.7-0.8c0.3-1,0.6-1.8,0.8-2.9c6.2,0.1,12.4,0.7,18.3,2.2
		c3,0.7,6,1.6,8.7,3c0.7,0.4,1.3,0.8,2,1.2c0.6,0.4,1.2,0.9,1.7,1.5c1.1,1.1,1.9,2.4,2.3,3.8C127.1,117.5,127.1,118.2,127,118.9z"/>
	<path class="st11" d="M82.1,74.1c-2.9,0.3-7.1,0.6-9.5,0.8c0.2,0,0.4,0,0.6,0.1c0.8,0.1,1.7,0.1,2.6,0.1c0.9,0,1.7,0,2.6-0.1
		c0.9,0,1.7-0.1,2.6-0.3c0.9-0.1,1.7-0.3,2.6-0.6c0.9-0.3,1.7-0.7,2.4-1.3c1.1-0.9,1.8-2.3,2.1-3.6C86.9,71,85.9,73.8,82.1,74.1z"/>
	<path class="st11" d="M70.6,46.5c0.5,0.9,0,2.1-0.5,3c-0.1,0.1-0.1,0.2-0.2,0.3c0.6,0,1.6-0.3,2.8-1.2c0.5-0.4,1.1-0.8,1.7-1.4
		c0,0,0.1-0.1,0.1-0.1c0.4-0.4,0.7-0.7,1-1c0,0,0.1-0.1,0.1-0.1c-0.6,0.5-1,0.8-1,0.8c0,0-1.1-1.8-0.9-1.9c0.1-0.1-0.3-2.4-0.3-2.4
		l-0.1-0.4c-0.4,0-0.8-0.5-1.1-0.1c-0.4,0.6-1.9,1-2.7,2.3c0,0.1-0.1,0.1-0.1,0.2C69.1,45.1,70,45.3,70.6,46.5z"/>
	<path class="st11" d="M73.7,45c-0.1,0.1,0.9,2,0.9,1.9c0,0,0.5-0.3,1-0.8c0.4-0.3,0.8-0.8,1.3-1.3c0.2-0.2,0.3-0.4,0.4-0.6
		c-0.1,0-0.2,0.1-0.2,0.1c-0.8,0.3-1.8-0.6-2.1-1.9c-0.3-1-0.1-2,0.4-2.6c0,0,0,0,0,0c-0.5,0.6-0.5,1-1.8,1.6
		c-0.1,0.1-0.3,0.1-0.4,0.2l0.2,0.5l0.1,0.4C73.4,42.6,73.8,44.9,73.7,45z"/>
	<path class="st11" d="M78,41.4c-0.3-1.3-1.3-2.2-2.1-1.9c-0.2,0.1-0.4,0.2-0.5,0.3c-0.5,0.5-0.7,1.5-0.4,2.6
		c0.3,1.3,1.3,2.2,2.1,1.9c0.1,0,0.2-0.1,0.2-0.1C78,43.8,78.3,42.6,78,41.4z"/>
	<path class="st11" d="M55,41.9l-0.3,0.9c0,0-0.3,2.6-0.2,2.7c0.1,0.1-0.9,2.2-0.9,2.2c0,0-0.1,1-1.3-0.2c0.2,0.4,0.5,0.7,1,1.2
		c0.5,0.5,1,0.9,1.5,1.1c1.5,0.8,2.9,0.9,3.7,0.9c0.1,0,0.2,0,0.3,0c-0.6-1.1-1.4-2.5-0.9-3.7c0.6-1.5,1.7-1.6,1.3-2.3
		c-0.3-0.6-0.8-1-1.3-1.3c-0.8-0.6-1.7-0.9-2-1.3C55.8,41.7,55.4,41.8,55,41.9C55,41.9,55,41.9,55,41.9z"/>
	<path class="st11" d="M52.5,39.8C52.5,39.8,52.4,39.8,52.5,39.8c0.5,0.5,0.8,1.7,0.5,2.9c-0.3,1.6-1.4,2.6-2.3,2.4
		c-0.1,0-0.1-0.1-0.2-0.1c0.1,0.2,0.2,0.5,0.4,0.8c0.6,0.8,1,1.3,1.4,1.6c1.2,1.2,1.3,0.1,1.3,0.2c0.1,0,1.1-2.1,0.9-2.2
		c-0.1-0.1,0.2-2.7,0.2-2.7l0.3-0.9l0,0l0-0.1c-0.8-0.3-1.3-0.6-1.6-0.8C53,40.6,52.9,40.3,52.5,39.8z"/>
	<path class="st11" d="M53,42.7c0.3-1.2,0-2.4-0.6-3c-0.2-0.1-0.3-0.3-0.5-0.3c-0.9-0.3-2,0.8-2.3,2.4c-0.3,1.4,0.1,2.8,0.9,3.2
		c0.1,0,0.1,0.1,0.2,0.1C51.7,45.4,52.7,44.3,53,42.7z"/>
</g>
</svg>
