<?xml version="1.0" encoding="utf-8"?>
<!-- Generator: Adobe Illustrator 24.1.2, SVG Export Plug-In . SVG Version: 6.00 Build 0)  -->
<svg version="1.1" id="Layer_1" xmlns="http://www.w3.org/2000/svg" xmlns:xlink="http://www.w3.org/1999/xlink" x="0px" y="0px"
	 viewBox="0 0 128 128" style="enable-background:new 0 0 128 128;" xml:space="preserve">
<style type="text/css">
	.st0{fill:#95CFE8;}
	.st1{fill:#93825C;}
	.st2{fill:#4C85A5;}
	.st3{fill:#DB5240;}
	.st4{fill:#EAE4D6;}
	.st5{fill:#333333;}
</style>
<g>
	<path class="st0" d="M42.7,64.5c0-0.3-0.1-0.5-0.1-0.7c-4.5,0.5-8.7,0.9-12.8,1.2c-2.1,0.1-4.1,0.2-6.1,0.3c-1.6,0-3.3,0-4.9,0
		c-0.9,3.3-0.5,7,1.3,10.1c1,1.7,2.5,3.2,4.3,4.2c1.8,1,3.9,1.4,5.9,1.2c2-0.2,3.9-0.9,5.5-1.9c1.6-1,3.1-2.3,4.3-3.8
		c1.2-1.5,2-3.3,2.4-5.2c0.2-1,0.4-2,0.4-3c0-0.5,0-1-0.1-1.5L42.7,64.5z"/>
	<path class="st1" d="M56.7,94.9c-0.5-2.2-2-4.3-3.9-5.6c-1-0.7-2.1-1.1-3.2-1.4c-1.2-0.3-2.3-0.3-3.7-0.4c-5.3-0.1-10.7-0.2-16-0.4
		c-5.3-0.1-10.7-0.3-16-0.4c-1.4,0-2.6,0-3.9,0.3c-1.2,0.3-2.4,0.8-3.5,1.5c-2.1,1.4-3.7,3.6-4.3,6.1c-0.3,1.2-0.3,2.5-0.2,3.9
		l0.1,4l0.3,8c0.2,4.9,0.3,9.8,0.2,14.7c2.6,0,5.2,0,7.8,0.1c0.1-3.8,0.2-7.7,0.4-11.5c0.1-2.1,0.2-4.2,0.3-6.4
		c0.1-2.1,0.2-4.2,0.4-6.4c0-0.1,0.1-0.1,0.2-0.1c0.1,0,0.1,0.1,0.1,0.1c0.2,2.1,0.3,4.2,0.4,6.4c0.1,2.1,0.2,4.2,0.3,6.4
		c0.1,3.9,0.2,7.8,0.3,11.7c1.1-0.1,2.2-0.1,3.3-0.2c2.4-0.1,4.8-0.2,7.2-0.2l7.2-0.1l7.2,0.1c2.4,0.1,4.8,0.1,7.2,0.2
		c0.8,0,1.5,0.1,2.3,0.1c0.1-3.9,0.3-7.8,0.4-11.7c0.1-2.1,0.2-4.2,0.3-6.4c0.1-2.1,0.2-4.2,0.4-6.4c0-0.1,0.1-0.1,0.2-0.1
		c0.1,0,0.1,0.1,0.1,0.1c0.1,2.1,0.2,4.2,0.3,6.4c0.1,2.1,0.2,4.2,0.3,6.4c0.1,3.8,0.3,7.7,0.4,11.5c2.5-0.1,5.1-0.1,7.6-0.2
		l-0.1-6.6c0-2.7-0.1-5.3,0-8c0-2.7,0-5.3,0.1-8l0.1-4c0-0.6,0-1.4,0-1.9C56.9,96,56.9,95.4,56.7,94.9z"/>
	<path class="st1" d="M17.8,56.2l0.1,1c0.4,0,0.8,0,1.3,0.1c0.1,0,0.3,0,0.4,0.1c1.4-0.1,2.7-0.2,4.1-0.2c2.2-0.1,4.4-0.2,6.6-0.2
		c2.1,0,4.3,0,6.4,0.1c1.6-0.1,3.1-0.2,4.7-0.1c0.5,0,1.1,0,1.6,0.1c0.1-0.6,0.2-1.2,0.2-1.8c0-0.6,0.1-1.1,0-1.6
		c-0.1-0.5-0.4-1-0.7-1.3c-2.2-2.1-4.8-3.8-7.3-5.6l-0.5-0.3c-0.1-0.1-0.2-0.1-0.3-0.1c-0.2,0-0.3,0-0.4,0c-0.6,0.2-1.5,0.4-2.3,0.5
		c-0.8,0.1-1.7,0.1-2.5,0c-0.8-0.1-1.7-0.3-2.4-0.5c-0.2-0.1-0.2-0.1-0.3-0.1c-0.1,0-0.2,0-0.3,0c-0.1,0-0.2,0-0.3,0.1
		c-0.1,0-0.1,0-0.1,0.1l-0.2,0.2l-1.8,1.4c-1.2,0.9-2.4,1.9-3.5,2.9l-1.7,1.6c-0.5,0.5-0.8,1-0.8,1.7c0,0.3,0,0.7,0.1,1.1L17.8,56.2
		z"/>
	<path class="st2" d="M125.7,17.5l-1-0.2l-4-0.9c-1.3-0.3-2.7-0.6-4-0.8c-0.7-0.1-1.3-0.3-2-0.4l-0.5-0.1c-0.2,0-0.4-0.1-0.5-0.2
		c-0.3-0.2-0.6-0.6-0.6-0.9c-0.2-1.2-0.4-2.5-0.6-3.7c-0.2-1.2-0.5-2.4-0.8-3.7l-0.9-3.7l-0.1-0.5l-0.1-0.2l0-0.1
		c-0.1-0.1-0.1,0-0.1,0c-0.1,0-0.1,0-0.1,0.1c0,0,0.1,0,0.1,0.1l0,0.1c-1,2.6-2.2,5.2-3.4,7.7c-1.2,2.6-2.4,5.1-3.7,7.6
		c-2.6,5-5.1,10-7.9,14.8c0,0.1-0.1,0.1,0,0.2c0.1,0.1,0.2,0.2,0.4,0.1l-0.1,0c5.2-2.1,10.3-4.5,15.1-7.4c2.4-1.4,4.8-2.9,7.3-4.2
		c2.5-1.3,5-2.6,7.6-3.7l0.1,0c0,0,0,0.1,0,0.1c0,0,0,0,0.1-0.1C125.8,17.6,125.9,17.5,125.7,17.5z"/>
	<path class="st3" d="M93.6,31.6c0.8-2,1.7-4,2.6-6c-3.2,0.2-5.8,1.8-7.1,4.2C88.4,31.1,88,32.5,88,34c0,0.7,0.2,1.5,0.4,2.2
		c0.3,0.7,0.6,1.5,1,2.1c0.9,1.3,2.5,2.3,4.2,2.4c0.8,0.1,1.7-0.1,2.5-0.4c0.8-0.3,1.4-0.8,2-1.2c1.2-0.9,2.3-2,3-3.4
		c0.7-1.4,1.1-3,1.2-4.8c0,0,0,0,0,0c-2,1.1-4.1,2.1-6.1,3.3l-0.1,0c-0.7,0.3-1.6,0.2-2.1-0.4c-0.3-0.3-0.5-0.6-0.6-1
		C93.4,32.5,93.5,32,93.6,31.6L93.6,31.6z"/>
	<path class="st4" d="M100.2,16.7c-3.6-0.8-7.2-0.5-10.4,0.7c-3.5,1.3-6.5,3.8-8.6,6.8c-2,3.1-3,6.8-2.8,10.5
		c0.1,1.9,0.6,3.7,1.3,5.4c0.7,1.7,1.6,3.4,2.9,4.9c2.5,2.9,6.2,5,10.1,5.3c3.9,0.3,7.8-1,10.8-3.2c3-2.2,5.5-5.1,6.8-8.7
		c0.7-1.8,1-3.6,1.2-5.6c0.1-1.9-0.1-3.9-0.5-5.9c0,0,0-0.1,0-0.1c-2.9,1.2-5.8,2.5-8.6,4c0,0,0.1,0,0.1,0c0.5,0.8,0.9,1.7,1,2.7
		c0.1,1,0,2-0.3,3c-0.6,1.9-2,3.8-3.9,4.7c-0.9,0.4-2,0.7-3,0.7c-1,0-2-0.1-2.9-0.2c-1.9-0.3-3.6-1-5.2-2.2
		c-3.3-2.4-4.3-7.6-1.9-11.3c1.1-1.8,3-3.1,5-3.6c1-0.3,2-0.3,3-0.2c0.7,0.1,1.4,0.3,2.1,0.6C97.7,22.2,99,19.4,100.2,16.7z"/>
	<path class="st3" d="M111.4,26.7c0,0-0.1,0-0.1,0c0.1,0,0.1,0,0.1,0.1c1,1.8,1.6,3.8,1.8,5.9c0.2,2.1,0,4.3-0.6,6.3
		c-0.6,2.1-1.6,4-2.9,5.7c-1.3,1.7-2.9,3.2-4.8,4.3c-1.9,1.1-3.9,1.8-6,2.1c-2.1,0.3-4.2,0.3-6.2,0c-4.1-0.6-8-2.3-11.2-5.1
		c-1.6-1.4-2.9-3.1-3.9-5c-1-1.9-1.6-4-1.9-6.2c-0.5-4.3,0.5-8.8,3-12.5c2.5-3.6,6.3-6.3,10.5-7.3c2.1-0.5,4.3-0.6,6.3-0.4
		c1.7,0.2,3.4,0.7,5,1.4c1.2-2.5,2.4-5,3.6-7.4C98.6,7.1,92.7,7.2,87.4,9c-5.5,1.9-10.3,5.5-13.5,10.3c-3.2,4.8-4.8,10.6-4.4,16.3
		c0.5,5.7,2.8,11.4,6.7,15.8c4,4.4,9.6,7.3,15.6,7.8c6,0.5,12-1.4,16.7-4.8c2.4-1.7,4.5-3.7,6.2-6c1.8-2.3,3.1-4.9,4.1-7.6l0.6-2.1
		c0.2-0.7,0.3-1.4,0.4-2.1c0.2-0.7,0.2-1.5,0.3-2.2c0.1-0.7,0.2-1.5,0.1-2.2c0-2.9-0.4-5.8-1.2-8.7
		C116.6,24.7,113.9,25.7,111.4,26.7z"/>
	<path class="st5" d="M43.2,64.3c-0.1-0.2-0.2-0.5-0.4-0.8c-3.8-0.5-8-0.9-12.2-1.2c-2.1-0.1-4.3-0.2-6.4-0.3c-2.2,0-4.3,0-6.5,0.1
		l-1.1,0l-0.3,1c-0.7,2.3-0.8,4.6-0.4,6.9c0.4,2.3,1.4,4.4,2.9,6.1c1.5,1.7,3.2,3.1,5.2,4.1c2,0.9,4.1,1.6,6.3,1.7
		c2.2,0.2,4.5-0.1,6.7-1.1c2.1-0.9,3.9-2.6,5.2-4.5c1.3-1.9,2-4.2,2.2-6.4c0.1-1.1,0-2.3-0.3-3.4c-0.1-0.5-0.3-1.1-0.5-1.6
		C43.5,64.8,43.4,64.6,43.2,64.3z M42.5,69.8C42,71.7,41.2,73.5,40,75c-1.2,1.5-2.6,2.8-4.3,3.8c-1.6,1-3.5,1.7-5.5,1.9
		c-2,0.2-4.1-0.3-5.9-1.2c-1.8-0.9-3.3-2.5-4.3-4.2c-1.8-3.1-2.2-6.8-1.3-10.1c1.6,0,3.3,0,4.9,0c2,0,4-0.1,6.1-0.3
		c4.1-0.3,8.3-0.6,12.8-1.2c0,0.2,0,0.4,0.1,0.7l0.1,0.8c0,0.5,0.1,1,0.1,1.5C42.8,67.8,42.7,68.8,42.5,69.8z"/>
	<path class="st5" d="M8.1,58.6c1.8,0.6,3.7,0.8,5.5,1c1.8,0.1,3.7,0.3,5.5,0.1c0.1,0,0.3,0,0.4-0.1c1.4,0.1,2.7,0.2,4.1,0.2
		c2.2,0.1,4.4,0.2,6.6,0.2c2.1,0,4.3,0,6.4-0.1c1.6,0.1,3.1,0.2,4.7,0.1c3.7-0.1,7.4-0.5,11.1-1.4c0.1,0,0.1-0.1,0.1-0.1
		c0-0.1,0-0.2-0.1-0.2c-2.8-0.7-5.6-1.1-8.5-1.3c-0.1-0.6-0.2-1.2-0.2-1.9c-0.1-0.5,0-1.1-0.2-1.7c-0.2-0.6-0.5-1.1-0.9-1.5
		c-2.3-2-4.2-4.5-6.1-6.9l-0.4-0.4c-0.2-0.2-0.4-0.4-0.7-0.6c-0.5-0.3-1.2-0.5-1.8-0.4c-0.9,0.1-1.5,0.2-2.2,0.3
		c-1.4,0.1-2.7,0.1-4.2-0.1c-0.1,0-0.5-0.1-0.8,0c-0.3,0-0.6,0.1-0.9,0.2c-0.3,0.1-0.5,0.3-0.8,0.5c-0.1,0.1-0.2,0.2-0.3,0.3
		L24.3,45l-1.5,1.7c-1,1.2-2.1,2.3-3.2,3.3l-1.7,1.5c-0.3,0.2-0.7,0.6-0.9,1c-0.2,0.4-0.4,0.8-0.5,1.3l-0.3,3.4
		c-0.9,0-1.7,0.1-2.6,0.2c-1.8,0.2-3.7,0.4-5.5,1c0,0-0.1,0.1-0.1,0.1C8,58.5,8,58.6,8.1,58.6z M18.5,52.3l1.7-1.6
		c1.1-1,2.3-2,3.5-2.9l1.8-1.4l0.2-0.2c0.1-0.1,0.1-0.1,0.1-0.1c0.1,0,0.2-0.1,0.3-0.1c0.1,0,0.2,0,0.3,0c0.1,0,0.1,0,0.3,0.1
		c0.7,0.2,1.6,0.4,2.4,0.5c0.8,0.1,1.7,0.1,2.5,0c0.8-0.1,1.7-0.3,2.3-0.5c0.1,0,0.3-0.1,0.4,0c0.1,0,0.1,0,0.3,0.1l0.5,0.3
		c2.5,1.8,5.1,3.5,7.3,5.6c0.4,0.4,0.6,0.8,0.7,1.3c0.1,0.5,0,1,0,1.6c-0.1,0.6-0.1,1.2-0.2,1.8c-0.5,0-1.1-0.1-1.6-0.1
		c-1.6,0-3.1,0-4.7,0.1c-2.1-0.1-4.3-0.2-6.4-0.1c-2.2,0-4.4,0.1-6.6,0.2c-1.4,0-2.7,0.1-4.1,0.2c-0.1,0-0.3,0-0.4-0.1
		c-0.4,0-0.8-0.1-1.3-0.1l-0.1-1L17.7,55c0-0.4-0.1-0.8-0.1-1.1C17.7,53.3,17.9,52.8,18.5,52.3z"/>
	<path class="st5" d="M59.9,98.5c0-0.7,0-1.3,0-2.1c0-0.8-0.2-1.5-0.4-2.2c-0.8-3-2.7-5.5-5.2-7.1c-1.3-0.8-2.6-1.4-4.1-1.7
		c-1.4-0.4-3-0.3-4.3-0.3c-5.3,0.1-10.7,0.2-16,0.4c-5.3,0.1-10.7,0.3-16,0.4c-1.3,0-2.7,0-4.1,0.4C8.4,86.5,7.2,87,6,87.8
		c-2.3,1.5-4.1,3.9-4.8,6.6c-0.2,0.7-0.3,1.4-0.3,2.1l-0.1,2l-0.2,4l-0.3,8C0,115.8,0,121.2,0,126.5l0,1.3l1.3,0
		c3.4,0,6.8,0,10.3-0.1l1.2,0l0-0.2c1.1,0.1,2.2,0.1,3.2,0.2c2.4,0.1,4.8,0.2,7.2,0.2l7.2,0.1l7.2-0.1c2.4-0.1,4.8-0.1,7.2-0.2
		c0.8,0,1.5-0.1,2.3-0.1l0,0.1l1.2,0c3.4,0.1,6.8,0.2,10.3,0.2l1.4,0l0-1.4c0.1-5.3,0.1-10.7,0.2-16c0-2.7,0-5.3,0-8L59.9,98.5z
		 M57,98.5l-0.1,4c-0.1,2.7,0,5.3-0.1,8c0,2.7,0,5.3,0,8l0.1,6.6c-2.5,0-5.1,0.1-7.6,0.2c-0.1-3.8-0.2-7.7-0.4-11.5
		c-0.1-2.1-0.2-4.2-0.3-6.4c-0.1-2.1-0.2-4.2-0.3-6.4c0-0.1-0.1-0.1-0.1-0.1c-0.1,0-0.2,0.1-0.2,0.1c-0.1,2.1-0.3,4.2-0.4,6.4
		c-0.1,2.1-0.2,4.2-0.3,6.4c-0.1,3.9-0.3,7.8-0.4,11.7c-0.8,0-1.5-0.1-2.3-0.1c-2.4-0.1-4.8-0.2-7.2-0.2l-7.2-0.1l-7.2,0.1
		c-2.4,0.1-4.8,0.1-7.2,0.2c-1.1,0-2.2,0.1-3.3,0.2c-0.1-3.9-0.2-7.8-0.3-11.7c-0.1-2.1-0.2-4.2-0.3-6.4c-0.1-2.1-0.2-4.2-0.4-6.4
		c0-0.1-0.1-0.1-0.1-0.1c-0.1,0-0.2,0.1-0.2,0.1c-0.2,2.1-0.3,4.2-0.4,6.4c-0.1,2.1-0.2,4.2-0.3,6.4c-0.2,3.8-0.3,7.7-0.4,11.5
		c-2.6-0.1-5.2-0.1-7.8-0.1c0-4.9,0-9.8-0.2-14.7l-0.3-8l-0.1-4c-0.1-1.4-0.1-2.6,0.2-3.9c0.5-2.5,2.2-4.7,4.3-6.1
		c1.1-0.7,2.3-1.2,3.5-1.5c1.3-0.3,2.5-0.3,3.9-0.3c5.3,0,10.7,0.2,16,0.4c5.3,0.2,10.7,0.3,16,0.4c1.4,0,2.5,0,3.7,0.4
		c1.1,0.3,2.2,0.8,3.2,1.4c2,1.3,3.4,3.3,3.9,5.6c0.1,0.6,0.2,1.1,0.2,1.7C57,97.1,57,97.9,57,98.5z"/>
	<path class="st5" d="M126,15.5l-1-0.1l-4.1-0.2c-1.4-0.1-2.7-0.2-4.1-0.3c-0.7-0.1-1.4-0.1-2-0.2c-0.3-0.1-0.7,0-0.9-0.2
		c-0.3-0.2-0.4-0.4-0.5-0.7c-0.2-1.2-0.3-2.5-0.4-3.7c-0.1-1.2-0.2-2.5-0.3-3.7l-0.2-3.8l0-0.5l0-0.2c0-0.1,0-0.3-0.1-0.4
		c-0.1-0.5-0.6-1-1.1-1.3c-0.5-0.3-1.1-0.3-1.7-0.1c-0.6,0.2-1.1,0.7-1.3,1.2l0-0.1c-1.4,2.3-2.6,4.7-3.9,7.1
		c-2.5-1.2-5.3-2-8.2-2.3c-3.1-0.3-6.3-0.2-9.4,0.7C80.6,8.4,75,12.3,71.3,17.6c-3.6,5.3-5.2,12-4.5,18.3c0.4,3.2,1.3,6.3,2.7,9.1
		c1.4,2.8,3.4,5.4,5.7,7.5c4.6,4.3,10.5,6.9,16.7,7.7c3.1,0.3,6.2,0.3,9.3-0.3c3.1-0.6,6.1-1.7,8.8-3.4c5.4-3.4,9.4-8.9,11.2-15
		c0.9-3.1,1.1-6.3,0.8-9.4c-0.3-3.1-1.1-6-2.5-8.7c2.5-1.1,4.9-2.3,7.3-3.6l-0.1,0c0.6-0.3,1.2-0.8,1.3-1.5c0.2-0.7,0-1.4-0.3-1.9
		C127.2,15.8,126.5,15.5,126,15.5z M120.3,32.2c0,0.7-0.1,1.5-0.1,2.2c-0.1,0.7-0.1,1.5-0.3,2.2c-0.2,0.7-0.2,1.4-0.4,2.1l-0.6,2.1
		c-1,2.7-2.4,5.3-4.1,7.6c-1.8,2.3-3.9,4.3-6.2,6c-4.7,3.4-10.7,5.3-16.7,4.8c-6-0.5-11.7-3.5-15.6-7.8c-4-4.4-6.3-10-6.7-15.8
		c-0.4-5.8,1.2-11.6,4.4-16.3c3.2-4.8,8-8.4,13.5-10.3c5.3-1.8,11.2-1.9,16.7-0.2c-1.3,2.4-2.5,4.9-3.6,7.4c-1.5-0.7-3.2-1.2-5-1.4
		c-2.1-0.2-4.3-0.1-6.3,0.4c-4.2,1-8,3.7-10.5,7.3c-2.5,3.6-3.5,8.2-3,12.5c0.3,2.2,0.9,4.3,1.9,6.2c1,1.9,2.3,3.6,3.9,5
		c3.2,2.8,7.1,4.6,11.2,5.1c2,0.3,4.1,0.3,6.2,0c2.1-0.3,4.2-1,6-2.1c1.9-1.1,3.5-2.6,4.8-4.3c1.3-1.7,2.3-3.7,2.9-5.7
		c0.6-2.1,0.8-4.2,0.6-6.3c-0.2-2.1-0.8-4.1-1.8-5.9c0,0-0.1-0.1-0.1-0.1c0,0,0.1,0,0.1,0c2.6-1.1,5.2-2.1,7.7-3.2
		C119.9,26.4,120.4,29.3,120.3,32.2z M93.5,32.9c0.1,0.4,0.3,0.7,0.6,1c0.6,0.5,1.5,0.7,2.1,0.4l0.1,0c2-1.1,4-2.2,6.1-3.3
		c0,0,0,0,0,0c-0.1,1.8-0.4,3.4-1.2,4.8c-0.7,1.4-1.8,2.5-3,3.4c-0.6,0.5-1.3,0.9-2,1.2c-0.8,0.3-1.6,0.5-2.5,0.4
		c-1.7-0.1-3.3-1.1-4.2-2.4c-0.5-0.7-0.8-1.4-1-2.1C88.2,35.5,88,34.8,88,34c-0.1-1.5,0.4-2.9,1.1-4.2c1.3-2.4,3.8-4,7.1-4.2
		c-0.9,2-1.7,4-2.6,6l0,0.1C93.5,32,93.4,32.5,93.5,32.9z M94.4,24.4c-1-0.1-2-0.1-3,0.2c-2,0.5-3.8,1.8-5,3.6
		c-2.4,3.6-1.4,8.9,1.9,11.3c1.6,1.2,3.4,1.9,5.2,2.2c0.9,0.2,1.9,0.3,2.9,0.2c1-0.1,2-0.3,3-0.7c1.9-0.9,3.3-2.7,3.9-4.7
		c0.3-1,0.4-2,0.3-3c-0.1-1-0.4-1.9-1-2.7c0,0,0,0-0.1,0c2.8-1.4,5.7-2.8,8.6-4c0,0-0.1,0.1,0,0.1c0.4,2,0.6,3.9,0.5,5.9
		c-0.2,1.9-0.5,3.8-1.2,5.6c-1.3,3.5-3.8,6.5-6.8,8.7c-3,2.2-6.9,3.6-10.8,3.2C88.8,50,85.1,48,82.6,45c-1.3-1.4-2.2-3.1-2.9-4.9
		c-0.7-1.7-1.1-3.6-1.3-5.4c-0.2-3.7,0.8-7.4,2.8-10.5c2-3.1,5-5.5,8.6-6.8c3.2-1.2,6.8-1.5,10.4-0.7c-1.3,2.7-2.5,5.5-3.8,8.3
		C95.8,24.6,95.1,24.4,94.4,24.4z M125.8,17.6C125.8,17.6,125.7,17.7,125.8,17.6C125.7,17.6,125.7,17.6,125.8,17.6l-0.2,0
		c-2.6,1.1-5.1,2.3-7.6,3.7c-2.5,1.3-4.9,2.8-7.3,4.2c-4.9,2.8-9.9,5.2-15.1,7.4l0.1,0c-0.2,0-0.3,0-0.4-0.1c-0.1-0.1,0-0.2,0-0.2
		c2.8-4.9,5.3-9.9,7.9-14.8c1.3-2.5,2.5-5,3.7-7.6c1.2-2.5,2.3-5.1,3.4-7.7l0-0.1c0,0-0.1,0-0.1-0.1c0,0,0.1-0.1,0.1-0.1
		c0.1,0,0.1,0,0.1,0l0,0.1l0.1,0.2l0.1,0.5l0.9,3.7c0.3,1.2,0.5,2.4,0.8,3.7c0.2,1.2,0.4,2.5,0.6,3.7c0.1,0.4,0.3,0.7,0.6,0.9
		c0.2,0.1,0.4,0.2,0.5,0.2l0.5,0.1c0.7,0.1,1.4,0.2,2,0.4c1.4,0.2,2.7,0.5,4,0.8l4,0.9l1,0.2C125.9,17.5,125.8,17.6,125.8,17.6z"/>
</g>
</svg>
