<?xml version="1.0" encoding="utf-8"?>
<!-- Generator: Adobe Illustrator 23.0.0, SVG Export Plug-In . SVG Version: 6.00 Build 0)  -->
<svg version="1.1" id="Layer_1" xmlns="http://www.w3.org/2000/svg" xmlns:xlink="http://www.w3.org/1999/xlink" x="0px" y="0px"
	 viewBox="0 0 128 128" style="enable-background:new 0 0 128 128;" xml:space="preserve">
<style type="text/css">
	.st0{fill:#5CB4C4;}
	.st1{fill:#44909E;}
	.st2{fill:#93AD99;}
	.st3{fill:#3B7580;}
	.st4{fill:#325EA1;}
	.st5{fill:#E5AF6E;}
	.st6{fill:#305182;}
	.st7{fill:#EEEEE2;}
	.st8{fill:#B46D36;}
	.st9{fill:#474747;}
	.st10{fill:#735D51;}
	.st11{fill:#9B8C79;}
	.st12{fill:#5FE8B9;}
	.st13{fill:#EBEBDF;}
	.st14{fill:#C6C7BF;}
	.st15{fill:#2D2D2D;}
</style>
<g>
	<path class="st0" d="M17.3,118c0.2-0.1,0.4-0.1,0.6-0.2c0.2-0.1,0.4-0.1,0.5-0.2c0.4-0.2,0.7-0.4,1.1-0.6c0.7-0.4,1.4-0.9,2.1-1.4
		c0.6-0.5,1.3-1,1.9-1.5c-1.7,0.9-3.5,1.5-5.5,1.9c-1.7,0.4-3.5,0.4-5.3,0.3c-1.8-0.1-3.5-0.5-5.1-1l-1.2-0.4
		c-0.4-0.1-0.8-0.3-1.2-0.4c-0.8-0.2-1.6-0.1-2.3,0.3c-0.7,0.4-1.2,1.1-1.4,1.8c-0.2,0.7-0.2,1.4,0.1,2.1c0,0.2,0.1,0.3,0.2,0.5
		c0.1,0.1,0.2,0.3,0.3,0.5c0.1,0.2,0.2,0.3,0.3,0.5l0.3,0.5c0.5,0.6,1,1.2,1.6,1.7c0.6,0.5,1.3,0.9,2,1.2c0.4,0.2,0.7,0.3,1.1,0.4
		c0.2,0.1,0.4,0.1,0.6,0.1c0.3,0,0.4-0.2,0.4-0.2l0.1,0l0.2-0.2c1.3-1,2.7-2.1,4-3C14.2,119.5,15.6,118.5,17.3,118z"/>
	<path class="st1" d="M65.2,78.9c-0.2-0.1-0.4-0.2-0.5-0.3c-0.7,0.1-1.4,0.2-2.1,0.3c-1.7,0.2-3.5,0.2-5.2,0.1l-1.1,0l0.2-1.1
		c0-0.1,0.1-0.3,0.1-0.3l0.1-0.2c0.1-0.1,0.1-0.3,0.2-0.4c0.1-0.2,0.2-0.5,0.3-0.7c0.2-0.4,0.5-0.9,0.7-1.3c0.2-0.3,0.4-0.6,0.5-0.9
		c-0.3,0-0.6-0.1-0.9-0.2c-0.5-0.1-0.9-0.2-1.4-0.4c-0.2-0.1-0.5-0.2-0.7-0.4c0,0-0.1-0.1-0.1-0.1c0,0-0.1,0-0.1,0.1
		c-1,1.2-2,2.3-2.9,3.5c-1.1,1.3-2,2.6-3,4c-2,2.7-3.8,5.5-5.5,8.3c-1.7,2.9-3.3,5.8-4.8,8.8c-0.8,1.5-1.6,3-2.4,4.4
		c-0.4,0.7-0.9,1.5-1.3,2.2c-0.5,0.7-0.9,1.4-1.5,2.1c-1.1,1.4-2.3,2.5-3.6,3.7c-1.3,1.1-2.6,2.2-3.9,3.3c-1.3,1-2.7,2-4.1,3
		c-0.7,0.5-1.4,0.9-2.2,1.3c-0.7,0.4-1.6,0.8-2.4,1c-1.5,0.4-3,1.4-4.4,2.3c-1.4,0.9-2.7,2-4,3l-0.2,0.2c0.1,0.1,0.2,0.2,0.3,0.3
		c0.3,0.2,0.6,0.4,1,0.6c0.7,0.3,1.5,0.6,2.3,0.7c0.4,0,0.8,0,1.2,0c0.4,0,0.7-0.2,1.1-0.3l2.4-0.8l0.5-0.2l0.1,0.6
		c0,0.2,0.1,0.4,0.3,0.6c0.2,0.2,0.3,0.3,0.6,0.4c0.5,0.2,1,0.1,1.6,0c0.6-0.1,1.1-0.3,1.7-0.5c0.6-0.2,1.1-0.5,1.6-0.8l0.8-0.4
		l0.2,0.9c0.1,0.3,0.2,0.4,0.5,0.5c0.3,0.1,0.8,0.1,1.2,0.1c0.9-0.1,1.8-0.4,2.7-0.8c1.8-0.8,3.4-1.9,4.8-3.2l0.5-0.5l0.7,0.5
		c0.1,0.1,0.3,0.2,0.4,0.2c0.2,0,0.4,0,0.7-0.1c0.5-0.2,1-0.6,1.5-1c1-0.9,1.7-2,2.3-3.3l1-2.1l0.7,2.3c0,0.1,0.1,0.3,0.1,0.3
		c0,0,0,0,0,0c0.1,0,0.3-0.1,0.5-0.2c0.2-0.1,0.4-0.3,0.6-0.4c0.8-0.6,1.6-1.5,2.4-2.3c1.5-1.7,3-3.6,4.3-5.4c0.7-0.9,1.4-1.9,2-2.8
		c0.6-1,1.3-1.9,1.9-2.9c1.2-2,2.5-4,3.8-6c2.6-4,5.2-7.9,8.2-11.6c1.5-1.8,3.1-3.6,4.8-5.3c0.8-0.7,1.6-1.4,2.4-2.1
		C68.7,79.9,65.4,78.9,65.2,78.9z"/>
	<path class="st2" d="M113.3,23c0.4,0.4,0.9,0.7,1.4,1c1,0.5,2.2,0.5,3.3,0.1c0-0.1,0.1-0.3,0.1-0.4c0,0,0.7-1.5,1.3-2.1
		c0.7-0.5,1.5-0.8,2.3-1c0.8-0.2,1.6-0.2,2.4-0.1c0.6,0.1,1.2,0.2,1.8,0.3c-0.1-0.3-0.2-0.5-0.5-0.7c-0.4-0.4-0.9-0.5-1.4-0.6
		c-0.5-0.1-1-0.3-1.5-0.5c-0.5-0.2-1-0.3-1.6-0.6c0,0-0.1,0-0.1,0c-0.5-0.3-0.9-0.7-1.4-1c-0.5-0.3-0.9-0.6-1.4-0.9
		c-0.9-0.5-1.8-1-2.8-1.4c-0.2,0-0.4,0.1-0.7,0.2c-0.3,0.1-0.5,0.2-0.8,0.4c-0.4,0.2-0.7,0.5-1.1,0.8c-0.4,0.7-0.7,1.4-1,2.1
		c-0.3,1.1-0.2,2.2,0.3,3.1C112.4,22.2,112.8,22.6,113.3,23z M116.8,18.1c0.5,0,0.9,0.4,0.9,0.9c0,0.5-0.4,0.9-0.9,0.9
		s-0.9-0.4-0.9-0.9C115.9,18.5,116.3,18.1,116.8,18.1z"/>
	<path class="st3" d="M12.3,121.2c0,0,1.7,3.3,5.4,1.7c1.4,0.5,5.5,0.9,7.6-0.9c1.4,1.5,7.6-0.7,8.8-3.1c1.4,0.4,8-4.6,9.6-8.4
		c-0.4,3.7-1,8.5-1.3,8.5c-0.3,0-1.9-0.4-2.1-0.3c-0.2,0.1-1.7,3.1-3.1,3.5s-2.7,0.1-2.7,0.1s-4.6,3.5-6.8,3.8
		c-2.2,0.3-3.6-0.5-3.8-1c-1.4,0.7-4.6,2.5-6.5-0.1c-2.3,0.5-5.1,1.6-7.1,0.5c-2-1.2-1.6-1.7-1.6-1.7L12.3,121.2z"/>
	<path class="st3" d="M60,78c1.5,0.4,3.4,6.7-5.5,16.1c-5.6,5.8-11.3,15.7-13.3,21.3c-0.6,2.9,0.1,3.5,0.4,3.5
		c0.3,0,8.5-6.1,9.5-9.1c1.1-3,10.5-16.8,12.6-19.9c2.1-3,6.7-8.5,8.5-10.3c1.4-0.7,2.2-2.4,1.9-2.3c-0.3,0.2-6.2,1.2-7.4,1
		C65.5,78,60,78,60,78z"/>
	<path class="st4" d="M124.1,36.9c-0.3-0.7-0.7-1.4-1.1-2.1c-0.4-0.7-0.9-1.4-1.3-2.1c-0.9-1.4-1.7-2.8-2.6-4.2
		c-0.4-0.7-0.8-1.4-1.1-2.3c-0.2-0.7-0.3-1.2-0.1-1.9c-0.9,0.8-2.3,1-3.6,0.6c-0.7-0.2-1.3-0.6-1.8-1c-0.5-0.4-1-0.9-1.4-1.5
		c-0.4-0.6-0.6-1.3-0.6-2c0-0.2,0-0.3,0-0.5c0,0,0,0.1-0.1,0.1c-0.1,0.3-0.2,0.6-0.3,0.9c-0.1,0.3-0.2,0.6-0.3,0.9l-0.3,0.9
		c-0.1,0.3-0.1,0.6-0.2,0.9c-0.1,1.2,0,2.5,0.3,3.7c0.3,1.3,0.8,2.5,1.5,3.6c0.2,0.3,0.3,0.6,0.5,0.9c0.1,0.3,0.3,0.6,0.4,0.9
		c0.3,0.6,0.5,1.3,0.7,1.9c0.5,1.3,0.9,2.5,1.3,3.8c0.4,1.3,0.8,2.6,1,4c0.1,0.7,0.2,1.4,0,2.3c0,0.2-0.1,0.4-0.2,0.6
		c-0.1,0.2-0.1,0.3-0.2,0.5c-0.2,0.3-0.4,0.7-0.6,1c-0.9,1.2-2.3,2.1-3.8,2.5c-1.5,0.4-3,0.3-4.4,0c-0.3-0.1-0.7-0.2-1.1-0.3l-1-0.3
		l-1.9-0.6c-2.5-0.7-5.1-1.4-7.7-1.9c-1.3-0.2-2.6-0.4-3.9-0.5c-1.3-0.1-2.6,0-4,0.2c0,0-0.1,0-0.1,0c-2,0.5-3.9,1.3-5.8,2
		c-1.9,0.7-3.8,1.6-5.6,2.4c-1.8,0.9-3.6,1.8-5.4,2.9c-1.7,1-3.4,2.2-5,3.4l-0.1,0.1l-0.1,0c-0.7,0.2-1.4,0.5-2,0.8
		c-0.7,0.3-1.3,0.7-2,1.1c-1.3,0.8-2.5,1.8-3.5,2.9c-1.1,1.1-2,2.3-2.8,3.6c-0.4,0.6-0.8,1.3-1.2,2c-0.3,0.7-0.6,1.3-1,2
		c-0.3,1-0.6,2-0.9,3c0,0,0,0,0,0c0.5-0.1,1.1-0.2,1.6-0.3c0.4-0.1,0.9-0.2,1.3-0.3c0.4-0.1,0.8-0.3,1-0.5l1.3,0.2
		c0,0,0.1,0.1,0.2,0.1c0.1,0.1,0.3,0.1,0.4,0.2c0.3,0.1,0.7,0.2,1.1,0.3c0.4,0.1,0.8,0.1,1.1,0.1c0.4,0,0.7,0,0.9-0.1l2.9-1L61,73.6
		c-0.5,0.7-1,1.5-1.5,2.3c-0.2,0.4-0.4,0.8-0.6,1.1c1.2,0,2.4,0,3.6,0c1.7-0.1,3.3-0.3,4.9-0.6c1.6-0.4,3.2-0.9,4.7-1.6
		c1.5-0.6,3-1.4,4.6-1.9c1.7-1.1,3.4-2.3,4.9-3.6c0.8-0.7,1.5-1.3,2.2-2c0.4-0.3,0.7-0.7,1.1-1c0.2-0.2,0.3-0.4,0.5-0.5l0.6-0.6
		c1-0.8,2-1.1,3-1.5c1-0.3,2-0.6,3-0.9c2-0.6,4-1.3,5.9-2c0.5-0.2,0.9-0.4,1.4-0.7c0.5-0.2,0.9-0.5,1.4-0.7c0.9-0.5,1.7-1,2.5-1.6
		c0.7-0.6,1.3-1.3,1.4-1.9c0.1-0.3,0-0.6-0.1-1c0-0.1-0.1-0.2-0.1-0.3l-0.2-0.3c-0.1-0.2-0.2-0.4-0.3-0.6c-0.5-0.8-1.1-1.5-1.8-2
		c-0.7-0.5-1.6-0.9-2.6-1.1c-1.9-0.4-4-0.3-6.1-0.1c-0.1,0-0.1,0-0.1-0.1c0,0,0-0.1,0.1-0.1c1.9-0.8,4.1-1.4,6.3-1.2
		c1.1,0.1,2.3,0.4,3.3,1c1,0.6,1.9,1.4,2.5,2.4c0.2,0.2,0.3,0.5,0.4,0.7l0.2,0.4c0.1,0.1,0.1,0.3,0.2,0.5c0.2,0.6,0.3,1.4,0.2,2.1
		c-0.1,0.6-0.4,1.1-0.8,1.6c-0.2,0.6-0.5,1.2-0.8,1.8c-0.7,1.5-1.7,2.9-2.8,4.1c-2.2,2.5-5.1,4.4-8,5.9c-2.9,1.6-6,2.8-9.1,3.9
		c-3,1-6.1,1.9-9.3,2.5c1.1,0.3,2.3,0.4,3.4,0.4l4.8-0.1l0,0c1.9-0.7,3.8-1.5,5.6-2.3c2.7-1.2,5.4-2.3,7.9-3.7
		c1.3-0.7,2.6-1.4,3.7-2.2c1.2-0.8,2.2-1.7,3.1-2.9c1.6-2.3,2.2-5.3,1.9-8.2c0.9,2.8,0.6,6.1-1,8.7c-0.8,1.3-2,2.4-3.2,3.3
		c-1.2,0.9-2.5,1.6-3.8,2.3C95.7,72.8,93,74,90.2,75c-2,0.7-4.1,1.4-6.2,1.9L78.7,89c0,0.1-1.1,2.5-1.8,3.7
		c-0.2,0.3-0.4,1.3-0.5,4.4c0,0.2,0,0.4,0,0.5l0,0.2c-0.2,0.6-2.5,11.3-4.1,18.3c-0.1,0.4-1.6,0.5-1.7,0.3c-0.9-0.6-2.8-2-3.7-2.6
		l-0.4,0.5l4,2.8l0.3,5.5l0.1,0l0.4-3.5c0.1-0.7,1-0.9,1.3-0.3l0.3,0.4c0,0,1.8,3.1,3.2,4.6c1,1.1,1.9,2.4,2.6,2.8
		c0.1-0.1,1.2-0.8,1.3-0.9c-4.2-2.8-6.7-8.9-6.8-9.2c0,0,0-0.1,0-0.1c0,0,0-0.1-0.1-0.1c-0.1-0.4-0.1-0.7,1.6-7.7
		c0.4-1.6,0.7-3,0.9-3.7c0.4-1.9,1.6-7,1.6-7l0.1-0.3l0.2-0.2c0,0,1.9-1.9,1.7-3.7c0-0.4,1.4-3.2,1.9-4.3c0.6-1.4,1.4-2.7,2.3-4
		c0.9-1.3,1.9-2.4,2.9-3.6c0.7-0.7,1.9-1.8,2.7-2.6c0.5-0.5,1.2-0.8,1.9-0.8l4.1-0.1c1.5-0.1,3-0.1,4.4-0.2c0.1,0,0.2-0.1,0.3-0.1
		c0,0,0,0,0,0c0,0,0.1,0,0.1,0c0.3,0,0.6-0.2,1-0.3c0.4-0.2,0.7-0.3,1.1-0.5c0.7-0.4,1.4-0.7,2.1-1.1c1.4-0.8,2.7-1.8,3.9-2.9
		c0.4-0.4,0.8-0.7,1.1-1.1c0.1-0.1,0.4-0.5,1-1.2c0.3-0.5,0.7-0.9,1-1.4c0.9-1.4,2-2.7,3.3-3.8c0.3-0.3,0.6-0.5,1-0.8l0.5-0.4
		c0.1-0.1,0.2-0.2,0.4-0.3c0.5-0.5,1.1-1.2,1.6-1.8c1-1.2,2.1-2.5,3-3.8c1-1.3,1.9-2.6,2.7-4c0.4-0.7,0.8-1.4,1.1-2.1l0.5-1.1
		c0.1-0.1,0.1-0.3,0.2-0.4c0.6-1.7,0.9-3.4,1-5.2c0.1-1.5-0.1-3.1-0.4-4.6C125.2,39.8,124.7,38.3,124.1,36.9z"/>
	<path class="st5" d="M120.9,18.6c0,0-2,1.1-0.6,2.6c1.6,0.4,5.7,0.1,6.1,0.3c-0.5-0.9-1.7-2.4-2.6-2.5
		C122.9,18.8,120.9,18.6,120.9,18.6z"/>
	<path class="st6" d="M119.6,29.3c0.2,0.4,4.7,10.6,3.1,17.3c-0.8,3.4-2.2,7.6-6.7,12.2c-2.3,2.3-4.7,5.1-10.3,5.5
		c-1.6,1.9,1.4,5.9,1.4,5.9L115,66c0,0,6.9-6.4,7.6-7.7c0.7-1.3,4.9-10.8,4.6-13.2s-1.6-9.1-3.7-11.3
		C121.3,31.7,119.6,29.3,119.6,29.3z"/>
	<path class="st7" d="M113.4,17.4c0.2,0.4,0.6,0.8,1.1,0.2c0.5-0.6,1.4-0.8,2.3-0.5s2.6,1.5,3.5,1.5c0.9,0,0.6-0.2,0.6-0.2
		s-0.3-0.6-1.4-0.8c-1-0.2-0.9-0.4-2.2-0.8c-1.2-0.4-2.6-0.6-3.5-0.3S113.4,17.4,113.4,17.4z"/>
	<path class="st7" d="M111.7,18.3c0.1,0,2.6,1.5,5.2,0.6c0.6,1.3,3,2.4,4.2,2.4c-1.4,0.4-7.2,0.6-9.3-3"/>
	<path class="st8" d="M106.4,56.8c0,0,0.7,4.9-0.3,6.7c-1,1.8-1.7,5.3-12.3,9.5c-3.3,1.3-10.5,3.7-11,3.7c-0.5,0-7.4-0.1-7.6-0.2
		c-0.1,0,0.9-2,0.9-2L92,67.7c0,0,9.6-4.9,10.2-5.4C102.9,61.8,106.4,56.8,106.4,56.8z"/>
	<path class="st9" d="M111.7,20.5c-0.1,0.1-2.5,7,8.5,8.9c-1-1-2.3-4.6-2.1-5.2c-0.4,0-0.7,1-2.7,0.4c-2-0.6-3.5-1.8-3.6-2.6
		C111.7,21.3,111.7,20.5,111.7,20.5z"/>
	<path class="st10" d="M104.5,66.6c0,0,4.4,0.6,9.4-0.5c-1.4,1.7-4,6.1-4.6,6.5c-0.6,0.4-6.5,5.8-10,6.6c-2.5,0.3-9.1,0.7-9.3,0.7
		c-0.2,0-7.3-1.4-7.3-1.4s0.9-1.8,1-1.8c0.1,0,6-1.9,7.5-2.6s8.4-3.9,9.5-4.8C101.6,68.3,104.5,66.6,104.5,66.6z"/>
	<path class="st11" d="M83.4,77.9c0.3,0.1,3.7,1.7,7.3,0.9c-2.3,1.7-7.2,7-7.9,8.1c-0.6,1.2-2.3,5.6-2.6,6.6c-0.3,1-2.6,6.4-2.7,6.4
		c-0.1,0-3.7,16.2-3.7,16.2s5,8.7,6.9,9.5c-0.8,0.6-2.5,1.7-2.7,1.6c-0.1-0.1-5.8-7.2-6.1-7.9c-0.1,2.7-0.6,3.9-0.7,4
		s-1.8-0.2-1.8-0.2s0.2-5.4-0.3-5.8s-4-3-4-3l1.4-1.6l4.4,2.8l1-4.9c0,0,3.9-13.2,3.8-13.4c-0.1-0.2-0.4-5.7,0.9-6.9
		C77.9,89,83.4,77.9,83.4,77.9z"/>
	<path class="st9" d="M93.7,68.5c2.8-1.5,5.6-3.3,7.8-5.6c1.1-1.1,2.1-2.4,3-3.7c0.1-0.1,0.1-0.2,0.2-0.3c-0.1,0.1-0.2,0.1-0.3,0.2
		c-0.9,0.7-1.9,1.2-2.9,1.6c-1,0.4-2,0.8-3,1c-2.1,0.5-4.1,0.8-6.1,1.5c-1,0.3-2,0.7-2.9,1.2c-0.5,0.2-0.9,0.5-1.3,0.8
		c-0.4,0.3-0.8,0.6-1,0.9l-0.4,0.6c-0.2,0.2-0.3,0.4-0.5,0.6c-0.4,0.4-0.7,0.8-1.1,1.2c-0.4,0.4-0.8,0.7-1.2,1.1
		c-0.4,0.4-0.8,0.7-1.3,1c-1.7,1.2-3.6,2.2-5.7,2.6c-1.5,0.7-2.9,1.7-4.3,2.6c-1.2,0.7-2.4,1.3-3.7,1.8c1.8,0,4.2-0.2,6.5-1.3
		l0.3-0.1l0.2,0.1c3-1.1,6-2.2,9-3.4C87.9,71.4,90.9,70.1,93.7,68.5z"/>
	<path class="st12" d="M103.9,47.8c-0.3,0.1-1.7,2.8-0.4,3.9c-3.6-2-46,18.3-48.3,20.2c-2.4,1.3-5.2,1-5.2,1s2.9-10,10-14.5
		c2.6-1.5,6.6-4.2,6.6-4.2s12.6-7.1,15.2-7.7c2.6-0.6,7.3-1.4,9-1.3c1.7,0.2,8.8,0.6,10.2,1.2C102.5,47,103.9,47.8,103.9,47.8z"/>
	<path class="st13" d="M93.5,50.6c-0.4,0.1-22.5,1.1-37.9,20.7c0,1.5,2.5,1.9,3.2,1.8c0.7-0.1-1,4.5-1.1,4.7
		C57.5,78,68,77.1,68,77.1l7.5-3.5l2.5-1.1c0,0,7.2-5.4,8.5-6.7c1.3-1.3,7.3-3.3,7.5-3.4c0.3,0,9.4-3.1,9.6-3.5
		c0.3-0.4,3.6-3.5,1.8-5.5c-1.8-1.9-4.7-4.1-6.5-3.7C97.2,50.2,93.5,50.6,93.5,50.6z"/>
	<path class="st14" d="M96.5,50.3c0,0,5.7,2.2,5.4,3.7c-0.3,1.5-0.3,2.6-1.1,3.3c-2.6,2-6.4,1.7-10.2,3.4c-3.4,1.6-8.2,2.9-9.2,5
		c-1.1,2.1-5.2,6.8-7.7,7.4s-10.8,2.8-12.2,3.1c0-0.7-0.1-3.3,0.5-4c-1.2,0.8-4.2,4.6-4.1,5.3c1.5,0.5,10.3-0.3,11.6-0.9
		s6.1-2.8,6.6-3.1c0.5-0.3,2.4-1.1,2.5-1.1s7.1-5.2,7.8-5.9c0.7-0.7,1.5-2,2.4-2.2c0.9-0.2,6.8-2.2,9.5-2.9c2.7-0.8,8.5-3.9,7.8-5.5
		c-0.8-1.6-1.9-5-3.6-5.3c-1.8-0.4-5.7-0.6-5.8-0.6S96.5,50.3,96.5,50.3z"/>
	<path class="st11" d="M102.3,78.3c-0.4,0.2-0.7,0.4-1.1,0.6c-0.2,0.1-0.4,0.2-0.6,0.3c0,0.9,0,8.2-0.7,11.7
		c-0.2,0.9-0.4,3.6,1.6,5.4l0.3,0.2l0,0.4c0.1,1.1,1.3,6.3,2.3,10.5c1.2,5,1.5,6.6,1.6,7.3c0,0.1,0,0.2,0,0.3c0,0.5-0.4,0.9-0.9,0.9
		c-0.9,0-3.1-0.1-4.6-0.1l-0.1,0.5l5.7,0.1l3.3,5.1l1.1-0.2l-2.9-4.4l11.4,2.3c0.1,0,0.3,0,0.3-0.2c0-0.1,0.1-0.1,0.1-0.2
		c-7.8-1.6-11.6-3.8-11.8-3.9c0,0,0,0,0,0c-0.3-0.1-0.5-0.4-0.6-0.7c-0.1-0.7-3.5-16-3.9-17.8l-0.1-0.3l0.1-0.3
		c1-2.4-0.7-4.8-0.7-4.8l-0.2-0.3l0-0.4c0-0.3,0.9-7.7,1.2-9.1l0.1-0.3l0.2-0.2c0.7-0.7,2.1-2.4,4.5-7c-1.1,1.1-2.3,2-3.6,2.9
		C103.7,77.4,103,77.9,102.3,78.3z"/>
	<path class="st15" d="M116.8,20.4c0.8,0,1.4-0.6,1.4-1.4c0-0.8-0.6-1.4-1.4-1.4s-1.4,0.6-1.4,1.4C115.4,19.8,116.1,20.4,116.8,20.4
		z"/>
	<path class="st15" d="M118.1,4.9C118.1,4.9,118.1,4.9,118.1,4.9c0,0.4-0.1,0.8-0.1,1.1c0.9,0.1,2.4-1.1,2.3-1.5
		c-0.2-0.4-1.9-2.1-3.7-1.3l-0.1,0.2c-0.1,0.3,0.3,1.6,0.9,2.3C117.5,5.4,117.7,5.1,118.1,4.9C118,4.9,118.1,4.9,118.1,4.9z"/>
	<path class="st15" d="M109.6,6.5C109.6,6.5,109.6,6.5,109.6,6.5L109.6,6.5c0.2,0.3,0.3,0.5,0.5,0.8c0.6-0.7,0.4-2.7-0.1-2.7
		c-0.5-0.1-2.8,0.4-3.1,2.4l0.1,0.2c0.2,0.2,1.5,0.6,2.4,0.5C109.4,7.2,109.4,6.9,109.6,6.5C109.5,6.5,109.6,6.5,109.6,6.5z"/>
	<path class="st15" d="M114.5,5.5C114.5,5.6,114.5,5.6,114.5,5.5L114.5,5.5c0.1,0.2,0.1,0.4,0.1,0.5c0,0,0,0,0,0
		c0.7-0.4,1.2-2.2,0.8-2.4c-0.4-0.2-2.6-0.5-3.4,1.1l0,0.2c0.1,0.2,1.1,1,2,1.2C114.2,5.9,114.3,5.7,114.5,5.5
		C114.4,5.5,114.5,5.5,114.5,5.5z"/>
	<path class="st15" d="M125.6,36.2c-0.4-0.8-0.9-1.5-1.3-2.2c-0.5-0.7-1-1.3-1.5-2c-1-1.3-2-2.6-2.9-3.9c-0.5-0.7-1-1.3-1.3-2
		c-0.3-0.7-0.5-1.5-0.3-2.3l0,0c0,0,0-0.1,0-0.1c1-1.2,2.3-1.5,3.7-1.7c0.7-0.1,1.4-0.2,2.1-0.2c0.7,0,1.5,0,2.2,0.1l0.7,0l-0.3-0.5
		c-0.3-0.6-0.6-1-1-1.5c-0.4-0.4-0.8-0.9-1.3-1.3c-0.5-0.3-1.1-0.5-1.7-0.5c-0.6,0-1.1,0-1.7,0.2l0,0c-0.3-0.4-0.7-0.9-1.1-1.2
		c-0.4-0.4-0.8-0.8-1.3-1.1c-0.9-0.7-1.8-1.4-2.8-1.9l-0.1-0.1l-0.1,0c0,0-0.1,0-0.1,0c0-0.2,0-0.5,0-0.7c0.1-0.4,0.2-0.8,0.3-1.2
		c0.2-0.8,0.5-1.6,0.9-2.3c0.2-0.4,0.3-0.8,0.6-1.1c0.2-0.4,0.3-0.8,0.5-1.2c0.1-0.5,0.3-0.9,0.4-1.4c0.1-0.3,0.1-0.7,0.2-1.1
		c0,0,0,0,0-0.1c0,0-0.1,0-0.1,0c-0.3,0.2-0.5,0.5-0.7,0.8c-0.3,0.4-0.6,0.9-0.9,1.3c-0.4,0.8-0.6,1.6-0.8,2.4
		c-0.2,0.8-0.4,1.7-0.5,2.6c0,0.4-0.1,0.9,0,1.3c0,0.2,0,0.5,0.1,0.7c0,0-0.1,0-0.1,0c-0.2-0.4-0.4-0.8-0.5-1.3
		c-0.2-0.8-0.2-1.6-0.1-2.3c0.1-0.8,0.3-1.6,0.3-2.4c0-0.4,0-0.8,0-1.2c0-0.3,0-0.5-0.1-0.8c0-0.2,0-0.3-0.1-0.5l0,0c0,0,0,0,0,0
		c0,0-0.1,0-0.1,0c-0.1,0.2-0.2,0.4-0.3,0.6c-0.3,0.6-0.5,1.2-0.6,1.8c-0.2,0.8-0.1,1.7,0,2.5c0.1,0.8,0.2,1.7,0.6,2.5
		c0.2,0.4,0.4,0.8,0.7,1.1c-0.1,0-0.2,0-0.3,0.1c-0.1,0-0.1,0-0.2,0.1c-0.4-0.3-0.8-0.7-1.2-1.2c-0.5-0.6-0.9-1.3-1.3-2l-0.2-0.6
		c-0.1-0.2-0.1-0.4-0.2-0.6c-0.1-0.4-0.2-0.8-0.4-1.1c-0.2-0.4-0.3-0.8-0.5-1.1c-0.1-0.1-0.1-0.3-0.2-0.4c-0.1-0.2-0.2-0.5-0.4-0.7
		l0,0c0,0,0,0,0,0c0,0-0.1,0-0.1,0.1c-0.1,0.3-0.1,0.7-0.1,1c0,0.1,0,0.2,0,0.3c0,0.4,0.1,0.9,0.2,1.3c0.2,0.9,0.7,1.6,1.2,2.4
		c0.5,0.7,1.1,1.4,1.7,2c0.4,0.3,0.8,0.6,1.2,0.8c-0.2,0.1-0.3,0.1-0.5,0.2c-0.7,0.3-1.3,0.7-1.9,1.2c-1.1,1-1.9,2.2-2.4,3.6
		c-0.1,0.3-0.3,0.7-0.4,1c-0.1,0.3-0.2,0.7-0.3,1l-0.2,1c-0.1,0.4-0.1,0.7-0.1,1.1c0,1.5,0.4,2.9,0.9,4.1c0.5,1.3,1.2,2.5,1.8,3.6
		c0.2,0.3,0.4,0.6,0.5,0.9c0.1,0.3,0.3,0.6,0.4,0.9c0.2,0.6,0.5,1.2,0.7,1.9c0.4,1.3,0.7,2.5,1,3.8c0.3,1.3,0.5,2.6,0.5,3.9
		c0,0.6,0,1.3-0.1,1.7c0,0.1-0.1,0.3-0.2,0.4c-0.1,0.1-0.1,0.2-0.2,0.3c-0.1,0.3-0.3,0.5-0.5,0.7c-0.7,0.9-1.7,1.5-2.9,1.7
		c-1.1,0.2-2.4,0.1-3.6-0.1c-0.3-0.1-0.6-0.1-0.9-0.2l-1-0.3c-0.7-0.2-1.3-0.4-2-0.5c-2.6-0.7-5.3-1.2-8.1-1.4
		c-1.4-0.1-2.7-0.1-4.1,0c-1.4,0.1-2.7,0.4-4,0.9c0,0,0,0-0.1,0c-2.1,0.2-4.1,0.6-6.1,1.2c-2,0.6-4,1.2-5.9,2.1
		c-1.9,0.8-3.8,1.7-5.6,2.8c-1.8,1.1-3.4,2.3-4.9,3.8c-0.7,0.3-1.4,0.7-2,1.1c-0.7,0.4-1.3,0.9-1.9,1.4c-1.2,1-2.4,2.1-3.4,3.2
		c-1.1,1.1-2.1,2.3-3,3.6c-0.9,1.3-1.7,2.6-2.5,3.9l0,0l0,0.1c-0.5,1.3-1.1,2.7-1.6,4l-0.4,1l1.1,0c0.5,0,1,0,1.5-0.1
		c0.5,0,1-0.1,1.5-0.2c0.5-0.1,1-0.2,1.5-0.3c0.1,0,0.1,0,0.2-0.1c-1,0.9-1.9,1.9-2.8,2.9c-1.2,1.2-2.3,2.5-3.3,3.8
		c-2.1,2.6-4.1,5.4-5.9,8.2c-1.8,2.8-3.5,5.8-5.1,8.7c-1.6,2.9-3.2,5.9-5.1,8.5c-1.8,2.3-4,4.4-6.2,6.4c-1.3,0.4-2.5,0.8-3.7,1.2
		c-1.6,0.4-3.2,0.8-4.8,1.1c-1.6,0.3-3.2,0.5-4.8,0.5c-1.6,0-3.3-0.1-5-0.3c-0.8-0.1-1.6-0.2-2.5-0.4c-0.9-0.1-1.8,0-2.7,0.4
		c-0.8,0.4-1.5,1-2,1.9c-0.5,0.8-0.7,1.9-0.5,2.9c0,0.1,0,0.3,0.1,0.4l0.1,0.4c0.1,0.3,0.2,0.4,0.3,0.6c0.1,0.2,0.2,0.4,0.3,0.6
		l0.4,0.6c0.6,0.7,1.2,1.4,2,1.9c0.8,0.5,1.7,0.8,2.6,1c0.4,0.1,0.9,0.1,1.4,0.1c0.3,0,0.7-0.1,1-0.2c0.1,0.3,0.3,0.4,0.5,0.6
		c0.3,0.3,0.7,0.5,1.1,0.7c0.8,0.4,1.6,0.7,2.5,0.8c0.4,0.1,0.9,0.1,1.3,0c0.5,0,0.9-0.2,1.3-0.3l2-0.6c0.2,0.6,0.7,1.1,1.3,1.3
		c0.7,0.3,1.5,0.3,2.1,0.2c0.7-0.1,1.3-0.3,1.9-0.5c0.4-0.1,0.8-0.3,1.1-0.5c0,0.1,0.1,0.2,0.2,0.2c0.3,0.3,0.6,0.5,0.9,0.6
		c0.6,0.2,1.2,0.3,1.8,0.2c1.1-0.1,2.2-0.4,3.2-0.8c1.8-0.7,3.4-1.7,4.8-3c0.3,0.1,0.6,0.2,0.8,0.2c0.5,0,1-0.1,1.4-0.2
		c0.9-0.3,1.5-0.8,2.1-1.4c0.8-0.7,1.5-1.6,2-2.4c0.1,0.1,0.3,0.1,0.4,0.2c0.3,0.1,0.6,0.1,0.8,0.1c0.5-0.1,0.9-0.2,1.2-0.4
		c0.3-0.2,0.6-0.4,0.9-0.6c1-0.8,1.9-1.7,2.7-2.5c1.6-1.8,3.1-3.7,4.5-5.6c0.7-1,1.4-1.9,2.1-2.9c0.7-1,1.3-2,1.9-3
		c1.2-2,2.4-4,3.6-6c2.4-4,4.9-8,7.6-11.8c1.4-1.9,2.8-3.7,4.4-5.4c0.9-1,1.9-2,3-2.9c0.7-0.2,1.3-0.4,2-0.8
		c1.4,0.2,3.8,0.3,5.4,0.3l-4.4,10c0,0-1,2.4-1.7,3.4c-0.6,1-0.7,3.2-0.8,5.4c0,0.1,0,0.2,0,0.3c-0.4,1.4-2.9,12.9-3.8,17
		c-0.9-0.6-2-1.4-3.1-2.2c-0.6-0.4-1.5-0.3-1.9,0.3l-0.9,1c-0.2,0.3-0.4,0.7-0.3,1.1s0.3,0.7,0.6,1l3.5,2.5l0.2,4.9
		c0,0.7,0.5,1.3,1.2,1.4l0.6,0.1c0.4,0.1,0.8,0,1.2-0.3c0.3-0.2,0.6-0.6,0.6-1l0.1-0.8c0.6,0.9,1.4,2,2.1,2.8c1,1.1,2.5,2.1,3.4,2.7
		c0.5,0.3,1.2,0.3,1.7,0c0.5-0.3,1.1-0.6,1.4-0.8c0.4-0.2,0.6-0.6,0.6-1c0-0.4-0.2-0.8-0.6-0.9c-4-1.8-6-8.3-6.3-9.3
		c0-0.1,0-0.1,0-0.2c0.1-0.6,1-4.2,1.6-6.6c0.4-1.6,0.7-3.1,0.9-3.7c0.4-1.6,1.3-5.7,1.6-6.7c0.6-0.7,2.3-2.7,2.1-5
		c0-0.4,0.2-2.8,0.8-3.8c0.8-1.3,1.6-2.5,2.5-3.6c0.9-1.1,1.9-2.2,3-3.2c1-0.9,2-1.9,3.1-2.8c1.6,0,3.1-0.1,4.7-0.2
		c0.8-0.1,1.7-0.1,2.5-0.2c0.4-0.1,0.8-0.1,1.3-0.2c0,1.8-0.1,7.9-0.7,10.8c-0.4,1.4-0.4,4.6,2,7c0.2,1.5,1.1,5.3,2.3,10.4
		c0.6,2.4,1.2,5,1.4,6.3c-1.2,0-2.9-0.1-3.8-0.1c-0.7,0-1.4,0.5-1.4,1.2l-0.1,1.3c0,0.4,0.1,0.8,0.3,1c0.3,0.3,0.6,0.5,1,0.5
		l5.1,0.1l2.9,4.5c0.3,0.4,0.8,0.7,1.3,0.7c0.2,0,0.3,0,0.5-0.1l1-0.4c0.4-0.2,0.8-0.5,0.9-0.9c0.1-0.4,0.1-0.9-0.2-1.3l-0.8-1.3
		l7.9,1.5c0.9,0.2,1.8-0.2,2.2-1c0.1-0.2,0.2-0.4,0.3-0.6c0.2-0.4,0.2-0.9,0-1.3c-0.2-0.4-0.6-0.7-1-0.8c-6.7-1.3-10.5-3.1-11.4-3.6
		c-0.4-2-3.2-14.7-3.8-17.2c1-2.7-0.3-5.2-0.8-6c0.3-2.2,0.8-6.9,1.1-8.3c1.3-1.4,6.1-11.8,6.4-12.2c0.9-1.3,2.1-2.5,3.3-3.4
		c0.3-0.2,0.6-0.5,1-0.7l0.5-0.3c0.2-0.1,0.4-0.3,0.6-0.4c0.7-0.6,1.3-1.1,1.8-1.7c1.2-1.2,2.2-2.4,3.3-3.7c1-1.3,2-2.6,2.9-4
		c0.4-0.7,0.9-1.4,1.3-2.2l0.5-1.2c0.2-0.4,0.3-0.8,0.5-1.2c0.5-1.7,0.8-3.4,0.9-5.1c0-1.7-0.2-3.4-0.6-5.1
		C127,39.3,126.4,37.7,125.6,36.2z M111.8,18.7c0.2-0.7,0.5-1.4,1-2.1c0.3-0.3,0.7-0.5,1.1-0.8c0.3-0.1,0.5-0.3,0.8-0.4
		c0.2-0.1,0.5-0.1,0.7-0.2c0.9,0.4,1.9,0.9,2.8,1.4c0.5,0.3,0.9,0.6,1.4,0.9c0.5,0.3,0.9,0.6,1.4,1c0,0,0.1,0,0.1,0
		c0.5,0.2,1.1,0.4,1.6,0.6c0.5,0.2,1,0.3,1.5,0.5c0.5,0.1,1,0.2,1.4,0.6c0.2,0.2,0.4,0.5,0.5,0.7c-0.6-0.2-1.2-0.3-1.8-0.3
		c-0.8-0.1-1.6-0.1-2.4,0.1c-0.8,0.2-1.6,0.5-2.3,1c-0.7,0.5-1.3,2.1-1.3,2.1c0,0.1-0.1,0.2-0.1,0.4c-1.2,0.4-2.4,0.3-3.3-0.1
		c-0.5-0.2-1-0.6-1.4-1c-0.4-0.4-0.8-0.8-1.1-1.3C111.6,20.9,111.5,19.8,111.8,18.7z M8.7,123.4l-0.2,0.2l-0.1,0
		c0,0-0.2,0.2-0.4,0.2c-0.2,0-0.4-0.1-0.6-0.1c-0.4-0.1-0.8-0.2-1.1-0.4c-0.7-0.3-1.4-0.7-2-1.2c-0.6-0.5-1.1-1.1-1.6-1.7L2.4,120
		c-0.1-0.2-0.2-0.3-0.3-0.5c-0.1-0.2-0.2-0.3-0.3-0.5c-0.1-0.1-0.2-0.3-0.2-0.5c-0.2-0.6-0.3-1.3-0.1-2.1c0.2-0.7,0.7-1.4,1.4-1.8
		c0.7-0.4,1.5-0.5,2.3-0.3c0.4,0.1,0.8,0.2,1.2,0.4l1.2,0.4c1.6,0.5,3.4,0.9,5.1,1c1.8,0.1,3.5,0.1,5.3-0.3c1.9-0.4,3.7-1.1,5.5-1.9
		c-0.6,0.5-1.2,1-1.9,1.5c-0.7,0.5-1.3,1-2.1,1.4c-0.4,0.2-0.7,0.4-1.1,0.6c-0.2,0.1-0.4,0.2-0.5,0.2c-0.2,0.1-0.4,0.1-0.6,0.2
		c-1.7,0.5-3.1,1.5-4.5,2.4C11.4,121.4,10.1,122.4,8.7,123.4z M70.3,81.1c-1.7,1.6-3.3,3.4-4.8,5.3c-3,3.7-5.6,7.6-8.2,11.6
		c-1.3,2-2.5,4-3.8,6c-0.6,1-1.2,2-1.9,2.9c-0.6,0.9-1.4,1.9-2,2.8c-1.4,1.9-2.8,3.7-4.3,5.4c-0.8,0.8-1.6,1.7-2.4,2.3
		c-0.2,0.2-0.4,0.3-0.6,0.4c-0.2,0.1-0.4,0.2-0.5,0.2c0,0,0,0,0,0c0-0.1-0.1-0.2-0.1-0.3l-0.7-2.3l-1,2.1c-0.6,1.2-1.4,2.4-2.3,3.3
		c-0.5,0.4-1,0.8-1.5,1c-0.3,0.1-0.5,0.1-0.7,0.1c-0.2,0-0.3-0.1-0.4-0.2l-0.7-0.5l-0.5,0.5c-1.4,1.3-3,2.5-4.8,3.2
		c-0.9,0.4-1.8,0.7-2.7,0.8c-0.4,0-0.9,0-1.2-0.1c-0.3-0.1-0.5-0.3-0.5-0.5l-0.2-0.9l-0.8,0.4c-0.5,0.3-1.1,0.6-1.6,0.8
		c-0.6,0.2-1.1,0.4-1.7,0.5c-0.6,0.1-1.1,0.1-1.6,0c-0.2-0.1-0.4-0.2-0.6-0.4c-0.2-0.2-0.3-0.4-0.3-0.6l-0.1-0.6l-0.5,0.2l-2.4,0.8
		c-0.4,0.1-0.8,0.3-1.1,0.3c-0.4,0.1-0.8,0.1-1.2,0c-0.8-0.1-1.6-0.3-2.3-0.7c-0.4-0.2-0.7-0.4-1-0.6c-0.1-0.1-0.2-0.2-0.3-0.3
		l0.2-0.2c1.3-1.1,2.6-2.1,4-3c1.4-0.9,2.8-1.8,4.4-2.3c0.8-0.2,1.7-0.6,2.4-1c0.7-0.4,1.5-0.9,2.2-1.3c1.4-0.9,2.8-1.9,4.1-3
		c1.3-1,2.6-2.1,3.9-3.3c1.3-1.1,2.5-2.3,3.6-3.7c0.6-0.7,1-1.4,1.5-2.1c0.4-0.7,0.9-1.4,1.3-2.2c0.9-1.5,1.6-2.9,2.4-4.4
		c1.6-3,3.1-5.9,4.8-8.8c1.7-2.9,3.5-5.6,5.5-8.3c1-1.3,2-2.7,3-4c0.9-1.2,1.9-2.3,2.9-3.5c0,0,0.1,0,0.1-0.1c0,0,0.1,0.1,0.1,0.1
		c0.2,0.2,0.5,0.3,0.7,0.4c0.5,0.2,0.9,0.3,1.4,0.4c0.3,0.1,0.6,0.1,0.9,0.2c-0.2,0.3-0.4,0.6-0.5,0.9c-0.2,0.4-0.5,0.8-0.7,1.3
		c-0.1,0.2-0.2,0.4-0.3,0.7c-0.1,0.1-0.1,0.3-0.2,0.4l-0.1,0.2c0,0.1-0.1,0.2-0.1,0.3L56.2,79l1.1,0c1.7,0,3.5,0.1,5.2-0.1
		c0.7-0.1,1.4-0.2,2.1-0.3c0.1,0.1,0.3,0.3,0.5,0.3c0.2,0.1,3.5,1,7.5,0.1C71.9,79.6,71.1,80.3,70.3,81.1z M75.9,76L75.7,76
		l-0.3,0.1c-2.4,1.1-4.7,1.4-6.5,1.3c1.3-0.5,2.6-1.1,3.7-1.8c1.5-0.9,2.8-1.8,4.3-2.6c2.1-0.4,4-1.4,5.7-2.6c0.4-0.3,0.9-0.6,1.3-1
		c0.4-0.3,0.8-0.7,1.2-1.1c0.4-0.4,0.7-0.8,1.1-1.2c0.2-0.2,0.3-0.4,0.5-0.6l0.4-0.6c0.2-0.3,0.6-0.6,1-0.9c0.4-0.3,0.8-0.5,1.3-0.8
		c0.9-0.5,1.9-0.8,2.9-1.2c2-0.6,4-1,6.1-1.5c1.1-0.3,2.1-0.6,3-1c1-0.4,2-0.9,2.9-1.6c0.1-0.1,0.2-0.1,0.3-0.2
		c-0.1,0.1-0.1,0.2-0.2,0.3c-0.9,1.3-1.9,2.6-3,3.7c-2.2,2.3-4.9,4-7.8,5.6c-2.8,1.5-5.8,2.8-8.8,4.1C82,73.8,79,75,75.9,76z
		 M103.5,81l-0.2,0.2l-0.1,0.3c-0.3,1.4-1.2,8.8-1.2,9.1l0,0.4l0.2,0.3c0,0,1.7,2.4,0.7,4.8l-0.1,0.3l0.1,0.3
		c0.4,1.8,3.7,17.1,3.9,17.8c0.1,0.3,0.3,0.6,0.6,0.7c0,0,0,0,0,0c0.2,0.1,4,2.3,11.8,3.9c0,0.1-0.1,0.1-0.1,0.2
		c-0.1,0.1-0.2,0.2-0.3,0.2l-11.4-2.3l2.9,4.4l-1.1,0.2l-3.3-5.1l-5.7-0.1l0.1-0.5c1.5,0.1,3.7,0.1,4.6,0.1c0.5,0,0.9-0.4,0.9-0.9
		c0-0.1,0-0.2,0-0.3c0-0.7-0.4-2.4-1.6-7.3c-1-4.2-2.2-9.5-2.3-10.5l0-0.4l-0.3-0.2c-2-1.8-1.9-4.5-1.6-5.4
		c0.7-3.5,0.7-10.8,0.7-11.7c0.2-0.1,0.4-0.2,0.6-0.3c0.4-0.2,0.7-0.4,1.1-0.6c0.7-0.4,1.4-0.9,2.1-1.4c1.3-0.9,2.5-1.9,3.6-2.9
		C105.6,78.5,104.2,80.3,103.5,81z M126,45.9c0,1.8-0.4,3.6-1,5.2c0,0.1-0.1,0.3-0.2,0.4l-0.5,1.1c-0.3,0.7-0.7,1.4-1.1,2.1
		c-0.8,1.4-1.7,2.7-2.7,4c-0.9,1.3-2,2.6-3,3.8c-0.5,0.6-1.1,1.2-1.6,1.8c-0.1,0.1-0.3,0.2-0.4,0.3l-0.5,0.4c-0.3,0.3-0.7,0.5-1,0.8
		c-1.3,1.1-2.4,2.4-3.3,3.8c-0.3,0.5-0.6,1-1,1.4c-0.6,0.7-0.9,1-1,1.2c-0.4,0.4-0.7,0.8-1.1,1.1c-1.2,1.1-2.5,2.1-3.9,2.9
		c-0.7,0.4-1.4,0.8-2.1,1.1c-0.4,0.2-0.7,0.3-1.1,0.5c-0.3,0.1-0.7,0.3-1,0.3c0,0-0.1,0-0.1,0c0,0,0,0,0,0c-0.1,0-0.2,0-0.3,0.1
		c-1.4,0.2-2.9,0.1-4.4,0.2l-4.1,0.1c-0.7,0-1.4,0.3-1.9,0.8c-0.8,0.7-2.1,1.9-2.7,2.6c-1,1.1-2,2.3-2.9,3.6c-0.9,1.3-1.6,2.6-2.3,4
		c-0.5,1.1-2,3.9-1.9,4.3c0.2,1.8-1.7,3.7-1.7,3.7l-0.2,0.2L77.1,98c0,0-1.2,5.1-1.6,7c-0.2,0.6-0.5,2.1-0.9,3.7
		c-1.7,6.9-1.7,7.3-1.6,7.7c0,0,0,0.1,0.1,0.1c0,0,0,0.1,0,0.1c0.1,0.3,2.6,6.4,6.8,9.2c-0.1,0.1-1.2,0.8-1.3,0.9
		c-0.7-0.4-1.6-1.8-2.6-2.8c-1.4-1.5-3.2-4.6-3.2-4.6l-0.3-0.4c-0.3-0.6-1.2-0.4-1.3,0.3l-0.4,3.5l-0.1,0l-0.3-5.5l-4-2.8l0.4-0.5
		c0.9,0.6,2.8,2,3.7,2.6c0.1,0.2,1.6,0.1,1.7-0.3c1.6-7.1,4-17.8,4.1-18.3l0-0.2c0-0.1,0-0.2,0-0.5c0.1-3.1,0.3-4.1,0.5-4.4
		c0.7-1.1,1.7-3.6,1.8-3.7L84,76.8c2.1-0.5,4.2-1.2,6.2-1.9c2.8-1,5.5-2.1,8.2-3.5c1.3-0.7,2.6-1.4,3.8-2.3c1.2-0.9,2.4-2,3.2-3.3
		c1.6-2.6,1.9-5.9,1-8.7c0.3,2.9-0.2,5.9-1.9,8.2c-0.8,1.1-1.9,2.1-3.1,2.9c-1.2,0.8-2.4,1.5-3.7,2.2c-2.6,1.4-5.2,2.5-7.9,3.7
		c-1.9,0.8-3.7,1.6-5.6,2.3l0,0l-4.8,0.1c-1.2,0-2.3-0.1-3.4-0.4c3.2-0.6,6.3-1.5,9.3-2.5c3.1-1.1,6.1-2.3,9.1-3.9
		c2.9-1.6,5.7-3.4,8-5.9c1.1-1.3,2.1-2.6,2.8-4.1c0.3-0.6,0.6-1.2,0.8-1.8c0.3-0.4,0.6-1,0.8-1.6c0.2-0.7,0.1-1.5-0.2-2.1
		c-0.1-0.2-0.1-0.3-0.2-0.5l-0.2-0.4c-0.1-0.3-0.3-0.5-0.4-0.7c-0.6-1-1.5-1.8-2.5-2.4c-1-0.6-2.2-0.9-3.3-1
		c-2.3-0.2-4.4,0.4-6.3,1.2c0,0-0.1,0.1-0.1,0.1c0,0.1,0.1,0.1,0.1,0.1c2.1-0.2,4.2-0.4,6.1,0.1c0.9,0.2,1.8,0.6,2.6,1.1
		c0.7,0.5,1.3,1.2,1.8,2c0.1,0.2,0.2,0.4,0.3,0.6l0.2,0.3c0,0.1,0.1,0.2,0.1,0.3c0.1,0.3,0.2,0.7,0.1,1c-0.1,0.6-0.7,1.3-1.4,1.9
		c-0.7,0.6-1.6,1.1-2.5,1.6c-0.4,0.2-0.9,0.5-1.4,0.7c-0.5,0.2-0.9,0.5-1.4,0.7c-1.9,0.8-3.9,1.4-5.9,2c-1,0.3-2,0.6-3,0.9
		c-1,0.4-2,0.7-3,1.5l-0.6,0.6c-0.2,0.2-0.4,0.4-0.5,0.5c-0.4,0.3-0.7,0.7-1.1,1c-0.7,0.7-1.5,1.4-2.2,2c-1.5,1.3-3.2,2.5-4.9,3.6
		c-1.6,0.5-3.1,1.3-4.6,1.9c-1.5,0.7-3.1,1.2-4.7,1.6c-1.6,0.4-3.3,0.5-4.9,0.6c-1.2,0.1-2.4,0.1-3.6,0c0.2-0.4,0.4-0.8,0.6-1.1
		c0.5-0.8,1-1.6,1.5-2.3l1.8-2.5l-2.9,1c-0.2,0.1-0.6,0.1-0.9,0.1c-0.4,0-0.8-0.1-1.1-0.1c-0.4-0.1-0.8-0.2-1.1-0.3
		c-0.2-0.1-0.3-0.1-0.4-0.2c-0.1-0.1-0.2-0.2-0.2-0.1l-1.3-0.2c-0.2,0.2-0.6,0.4-1,0.5c-0.4,0.1-0.8,0.2-1.3,0.3
		c-0.5,0.1-1.1,0.2-1.6,0.3c0,0,0,0,0,0c0.3-1,0.6-2,0.9-3c0.3-0.7,0.6-1.4,1-2c0.4-0.7,0.7-1.3,1.2-2c0.8-1.3,1.8-2.5,2.8-3.6
		c1.1-1.1,2.2-2.1,3.5-2.9c0.6-0.4,1.3-0.8,2-1.1c0.7-0.3,1.4-0.6,2-0.8l0.1,0l0.1-0.1c1.6-1.3,3.2-2.4,5-3.4c1.7-1,3.5-2,5.4-2.9
		c1.8-0.9,3.7-1.7,5.6-2.4c1.9-0.7,3.8-1.5,5.8-2c0,0,0,0,0.1,0c1.3-0.3,2.6-0.3,4-0.2c1.3,0.1,2.6,0.2,3.9,0.5
		c2.6,0.4,5.2,1.1,7.7,1.9l1.9,0.6l1,0.3c0.3,0.1,0.7,0.2,1.1,0.3c1.4,0.3,2.9,0.4,4.4,0c1.5-0.4,2.9-1.3,3.8-2.5
		c0.2-0.3,0.4-0.6,0.6-1c0.1-0.2,0.2-0.3,0.2-0.5c0.1-0.2,0.2-0.4,0.2-0.6c0.2-0.8,0.1-1.6,0-2.3c-0.2-1.4-0.6-2.7-1-4
		c-0.4-1.3-0.9-2.5-1.3-3.8c-0.2-0.6-0.5-1.3-0.7-1.9c-0.1-0.3-0.3-0.6-0.4-0.9c-0.2-0.3-0.3-0.6-0.5-0.9c-0.6-1.2-1.1-2.4-1.5-3.6
		c-0.3-1.2-0.5-2.5-0.3-3.7c0-0.3,0.1-0.6,0.2-0.9l0.3-0.9c0.1-0.3,0.2-0.6,0.3-0.9c0.1-0.3,0.2-0.6,0.3-0.9c0,0,0-0.1,0.1-0.1
		c0,0.2,0,0.3,0,0.5c0,0.7,0.2,1.4,0.6,2c0.4,0.6,0.8,1.1,1.4,1.5c0.5,0.4,1.1,0.8,1.8,1c1.3,0.4,2.7,0.2,3.6-0.6
		c-0.2,0.7-0.1,1.3,0.1,1.9c0.3,0.8,0.7,1.5,1.1,2.3c0.8,1.4,1.7,2.8,2.6,4.2c0.4,0.7,0.9,1.4,1.3,2.1c0.4,0.7,0.8,1.4,1.1,2.1
		c0.7,1.4,1.2,2.9,1.5,4.4C125.9,42.8,126,44.4,126,45.9z"/>
</g>
</svg>
