<?xml version="1.0" encoding="utf-8"?>
<!-- Generator: Adobe Illustrator 24.1.2, SVG Export Plug-In . SVG Version: 6.00 Build 0)  -->
<svg version="1.1" id="Layer_1" xmlns="http://www.w3.org/2000/svg" xmlns:xlink="http://www.w3.org/1999/xlink" x="0px" y="0px"
	 viewBox="0 0 128 128" style="enable-background:new 0 0 128 128;" xml:space="preserve">
<style type="text/css">
	.st0{fill:#7FABEA;}
	.st1{fill:#F0865B;}
	.st2{fill:#2D2D2D;}
</style>
<g>
	<path class="st0" d="M27.85,75.41c-0.23,0.26-0.43,0.56-0.7,0.79c-1,0.99-2.22,1.72-3.49,2.3c-2.57,1.13-5.36,1.63-8.15,1.74
		c-1.4,0.04-2.81-0.01-4.22-0.17c-1.41-0.18-2.8-0.55-4.12-1.13c-1.31-0.6-2.57-1.38-3.57-2.47c-0.26-0.25-0.47-0.58-0.69-0.87
		c-0.18-0.33-0.38-0.64-0.51-0.99c-0.02-0.04-0.03-0.09-0.04-0.13c-0.02,0.14-0.04,0.28-0.05,0.42c-0.07,1.33,0.44,2.7,1.34,3.79
		c0.9,1.1,2.12,1.94,3.42,2.56c2.64,1.26,5.63,1.44,8.46,1.36c1.43-0.07,2.84-0.23,4.23-0.49c0.7-0.13,1.38-0.29,2.07-0.46
		c0.34-0.11,0.67-0.22,1.02-0.31c0.34-0.11,0.66-0.24,1-0.36c1.31-0.53,2.6-1.22,3.61-2.24c1-1.01,1.7-2.39,1.71-3.84
		c-0.01-0.64-0.15-1.25-0.39-1.83c-0.05,0.49-0.17,0.99-0.4,1.44C28.25,74.83,28.04,75.12,27.85,75.41z"/>
	<path class="st0" d="M56.92,43.23c-0.11,0.17-0.21,0.35-0.34,0.51c-0.27,0.3-0.5,0.64-0.81,0.9c-1.16,1.13-2.57,1.97-4.04,2.63
		c-2.96,1.29-6.19,1.85-9.41,1.97c-1.61,0.04-3.24-0.03-4.86-0.23c-1.62-0.21-3.22-0.64-4.73-1.3c-1.5-0.68-2.95-1.56-4.11-2.79
		c-0.3-0.29-0.54-0.66-0.8-0.98c-0.12-0.17-0.21-0.37-0.32-0.55c-0.1-0.19-0.21-0.36-0.28-0.57c-0.06-0.13-0.1-0.27-0.14-0.41
		c-0.05,0.25-0.1,0.51-0.11,0.77c-0.07,1.56,0.55,3.15,1.6,4.42c1.05,1.28,2.47,2.25,3.98,2.97c1.52,0.72,3.16,1.17,4.82,1.4
		c1.66,0.24,3.33,0.3,4.99,0.25c1.66-0.07,3.3-0.25,4.92-0.56c0.81-0.15,1.61-0.35,2.41-0.55c0.39-0.13,0.78-0.26,1.18-0.37
		c0.39-0.13,0.77-0.29,1.16-0.44c1.52-0.63,3.01-1.46,4.17-2.66c1.15-1.19,1.95-2.78,1.97-4.47c-0.01-0.76-0.19-1.5-0.47-2.2
		c-0.06,0.59-0.21,1.19-0.49,1.72C57.15,42.9,57.03,43.06,56.92,43.23z"/>
	<path class="st1" d="M23.86,68.84c-0.34-0.12-0.67-0.25-1-0.35c-0.34-0.09-0.68-0.2-1.02-0.3c-0.69-0.16-1.38-0.32-2.07-0.43
		c-1.39-0.22-2.8-0.36-4.22-0.34c-2.81,0.05-5.67,0.49-8.19,1.66C6.1,69.67,4.93,70.43,4,71.4c-0.55,0.59-1.01,1.26-1.31,1.99
		c0.41,0.87,1.06,1.56,1.83,2.11c1.01,0.73,2.17,1.27,3.37,1.69c2.41,0.82,4.97,1.44,7.62,1.55c2.63,0.07,5.31-0.21,7.8-1.11
		c1.24-0.44,2.44-1.02,3.45-1.85c0.97-0.77,1.7-1.86,1.86-3.11c-0.3-0.59-0.69-1.13-1.15-1.6C26.46,70.05,25.17,69.36,23.86,68.84z"
		/>
	<path class="st1" d="M3.61,11.61c1.17,0.87,2.52,1.52,3.92,2.02c2.8,0.98,5.8,1.66,8.87,1.77c3.06,0.07,6.17-0.27,9.05-1.33
		c1.44-0.51,2.83-1.21,3.99-2.18c1.12-0.91,1.97-2.19,2.14-3.64c-0.34-0.68-0.79-1.32-1.32-1.86c-1.16-1.2-2.65-2.02-4.17-2.65
		c-0.39-0.14-0.77-0.3-1.16-0.42c-0.4-0.11-0.79-0.24-1.18-0.36c-0.8-0.19-1.6-0.39-2.41-0.52C19.72,2.16,18.08,2,16.43,2.02
		c-1.65,0.02-3.28,0.18-4.89,0.48C9.93,2.8,8.35,3.29,6.89,3.98C5.43,4.67,4.06,5.56,2.98,6.71c-0.63,0.68-1.15,1.46-1.5,2.3
		C1.93,10.08,2.69,10.93,3.61,11.61z"/>
	<path class="st0" d="M63.4,25.8c1.52,0.72,3.16,1.17,4.82,1.4c1.66,0.24,3.33,0.3,4.99,0.25c1.66-0.07,3.3-0.25,4.92-0.56
		c0.81-0.15,1.61-0.35,2.41-0.55c0.39-0.13,0.78-0.26,1.18-0.37c0.39-0.13,0.77-0.29,1.16-0.44c1.52-0.63,3.01-1.46,4.17-2.66
		c1.15-1.19,1.95-2.78,1.97-4.47c-0.01-0.76-0.19-1.5-0.47-2.2c-0.06,0.59-0.21,1.19-0.49,1.72c-0.07,0.19-0.19,0.35-0.3,0.53
		c-0.11,0.17-0.21,0.35-0.34,0.51c-0.27,0.3-0.5,0.64-0.81,0.9c-1.16,1.13-2.57,1.97-4.04,2.63c-2.96,1.29-6.19,1.85-9.41,1.97
		c-1.61,0.04-3.24-0.03-4.86-0.23c-1.62-0.21-3.22-0.64-4.73-1.3c-1.5-0.68-2.95-1.56-4.11-2.79c-0.3-0.29-0.54-0.66-0.8-0.98
		c-0.12-0.17-0.21-0.37-0.32-0.55c-0.1-0.19-0.21-0.36-0.28-0.57c-0.06-0.13-0.1-0.27-0.14-0.41c-0.05,0.25-0.1,0.51-0.11,0.77
		c-0.07,1.56,0.55,3.15,1.6,4.42C60.47,24.11,61.89,25.08,63.4,25.8z"/>
	<path class="st1" d="M101.72,10.59c1.06,0.77,2.28,1.35,3.55,1.8c2.54,0.87,5.24,1.51,8.02,1.62c2.77,0.07,5.59-0.23,8.2-1.18
		c1.3-0.46,2.57-1.08,3.63-1.96c1.02-0.82,1.79-1.96,1.95-3.28c-0.31-0.62-0.72-1.19-1.2-1.68c-1.06-1.08-2.41-1.81-3.79-2.37
		c-0.35-0.12-0.7-0.26-1.06-0.37c-0.36-0.1-0.72-0.21-1.07-0.32c-0.73-0.17-1.45-0.34-2.18-0.46c-1.47-0.24-2.95-0.38-4.44-0.36
		c-1.49,0.01-2.97,0.17-4.43,0.44c-1.46,0.27-2.88,0.7-4.2,1.32c-1.32,0.62-2.55,1.42-3.53,2.45c-0.58,0.62-1.05,1.32-1.37,2.09
		C100.21,9.25,100.9,10,101.72,10.59z"/>
	<path class="st0" d="M6.62,18.23c1.52,0.72,3.16,1.17,4.82,1.4c1.66,0.24,3.33,0.3,4.99,0.25c1.66-0.07,3.3-0.25,4.92-0.56
		c0.81-0.15,1.61-0.35,2.41-0.55c0.39-0.13,0.78-0.26,1.18-0.37c0.39-0.13,0.77-0.29,1.16-0.44c1.52-0.63,3.01-1.46,4.17-2.66
		c1.15-1.19,1.95-2.78,1.97-4.47c-0.01-0.76-0.19-1.5-0.47-2.2c-0.06,0.59-0.21,1.19-0.49,1.72c-0.07,0.19-0.19,0.35-0.3,0.53
		c-0.11,0.17-0.21,0.35-0.34,0.51c-0.27,0.3-0.5,0.64-0.81,0.9c-1.16,1.13-2.57,1.97-4.04,2.63c-2.96,1.29-6.19,1.85-9.41,1.97
		c-1.61,0.04-3.24-0.03-4.86-0.23c-1.62-0.21-3.22-0.64-4.73-1.3c-1.5-0.68-2.95-1.56-4.11-2.79c-0.3-0.29-0.54-0.66-0.8-0.98
		c-0.12-0.17-0.21-0.37-0.32-0.55c-0.1-0.19-0.21-0.36-0.28-0.57c-0.06-0.13-0.1-0.27-0.14-0.41c-0.05,0.25-0.1,0.51-0.11,0.77
		C0.98,12.4,1.6,14,2.65,15.26C3.7,16.54,5.12,17.51,6.62,18.23z"/>
	<path class="st0" d="M104.43,16.63c1.38,0.65,2.87,1.05,4.37,1.25c1.51,0.21,3.02,0.25,4.52,0.2c1.5-0.07,2.99-0.23,4.46-0.51
		c0.73-0.13,1.46-0.31,2.18-0.49c0.35-0.11,0.71-0.23,1.07-0.33c0.35-0.12,0.7-0.26,1.05-0.39c1.38-0.56,2.73-1.29,3.79-2.38
		c1.05-1.07,1.78-2.52,1.79-4.05c-0.01-0.68-0.16-1.33-0.42-1.95c-0.06,0.53-0.19,1.05-0.43,1.53c-0.15,0.34-0.37,0.64-0.57,0.94
		c-0.24,0.27-0.45,0.59-0.73,0.83c-1.05,1.03-2.33,1.8-3.67,2.41c-2.69,1.19-5.63,1.7-8.56,1.82c-1.47,0.04-2.95-0.02-4.42-0.19
		c-1.47-0.19-2.94-0.58-4.32-1.19c-1.37-0.62-2.69-1.43-3.74-2.57c-0.28-0.26-0.49-0.6-0.72-0.9c-0.19-0.34-0.4-0.67-0.53-1.03
		c-0.03-0.08-0.05-0.16-0.08-0.23c-0.03,0.18-0.06,0.36-0.07,0.54c-0.07,1.4,0.48,2.85,1.43,4
		C101.77,15.09,103.06,15.97,104.43,16.63z"/>
	<path class="st1" d="M60.38,19.17c1.17,0.87,2.52,1.52,3.92,2.02c2.8,0.98,5.8,1.66,8.87,1.77c3.06,0.07,6.17-0.27,9.05-1.33
		c1.44-0.51,2.83-1.21,3.99-2.18c1.12-0.91,1.97-2.19,2.14-3.64c-0.34-0.68-0.79-1.32-1.32-1.86c-1.16-1.2-2.65-2.02-4.17-2.65
		c-0.39-0.14-0.77-0.3-1.16-0.42c-0.4-0.11-0.79-0.24-1.18-0.36c-0.8-0.19-1.6-0.39-2.41-0.52c-1.62-0.27-3.26-0.43-4.91-0.41
		c-1.65,0.02-3.28,0.18-4.89,0.48c-1.61,0.3-3.18,0.78-4.65,1.47c-1.46,0.69-2.83,1.59-3.91,2.73c-0.63,0.68-1.15,1.46-1.5,2.3
		C58.71,17.64,59.47,18.5,60.38,19.17z"/>
	<path class="st0" d="M98.4,60.69c1.52,0.72,3.16,1.17,4.82,1.4c1.66,0.24,3.33,0.3,4.99,0.25c1.66-0.07,3.3-0.25,4.92-0.56
		c0.81-0.15,1.61-0.35,2.41-0.55c0.39-0.13,0.78-0.26,1.18-0.37c0.39-0.13,0.77-0.29,1.16-0.44c1.52-0.63,3.01-1.46,4.17-2.66
		c1.15-1.19,1.95-2.78,1.97-4.47c-0.01-0.76-0.19-1.5-0.47-2.2c-0.06,0.59-0.21,1.19-0.49,1.72c-0.07,0.19-0.19,0.35-0.3,0.53
		c-0.11,0.17-0.21,0.35-0.34,0.51c-0.27,0.3-0.5,0.64-0.81,0.9c-1.16,1.13-2.57,1.97-4.04,2.63c-2.96,1.29-6.19,1.85-9.41,1.97
		c-1.61,0.04-3.24-0.03-4.86-0.23c-1.62-0.21-3.22-0.64-4.73-1.3c-1.5-0.68-2.95-1.56-4.11-2.79c-0.3-0.29-0.54-0.66-0.8-0.98
		c-0.12-0.17-0.21-0.37-0.32-0.55c-0.1-0.19-0.21-0.36-0.28-0.57c-0.06-0.13-0.1-0.27-0.14-0.41c-0.05,0.25-0.1,0.51-0.11,0.77
		c-0.07,1.56,0.55,3.15,1.6,4.42C95.48,58.99,96.89,59.96,98.4,60.69z"/>
	<path class="st1" d="M95.38,54.06c1.17,0.87,2.52,1.52,3.92,2.02c2.8,0.98,5.8,1.66,8.87,1.77c3.06,0.07,6.17-0.27,9.05-1.33
		c1.44-0.51,2.83-1.21,4-2.18c1.12-0.91,1.97-2.19,2.14-3.64c-0.34-0.68-0.79-1.32-1.32-1.86c-1.16-1.2-2.65-2.02-4.17-2.65
		c-0.39-0.14-0.77-0.3-1.16-0.42c-0.4-0.11-0.79-0.24-1.18-0.36c-0.8-0.19-1.6-0.39-2.41-0.52c-1.62-0.27-3.26-0.43-4.91-0.41
		c-1.65,0.02-3.28,0.18-4.89,0.48c-1.61,0.3-3.18,0.78-4.65,1.47c-1.46,0.69-2.83,1.59-3.91,2.73c-0.63,0.68-1.15,1.46-1.5,2.3
		C93.71,52.53,94.47,53.39,95.38,54.06z"/>
	<path class="st1" d="M27.43,41.35c0.45,1.07,1.2,1.92,2.12,2.6c1.17,0.87,2.52,1.52,3.92,2.02c2.8,0.98,5.8,1.66,8.87,1.77
		c3.06,0.07,6.17-0.27,9.05-1.33c1.44-0.51,2.83-1.21,3.99-2.18c1.12-0.91,1.97-2.19,2.14-3.64c-0.34-0.68-0.79-1.32-1.32-1.86
		c-1.16-1.2-2.65-2.02-4.17-2.65c-0.39-0.14-0.77-0.3-1.16-0.42c-0.4-0.11-0.79-0.24-1.18-0.36c-0.8-0.19-1.6-0.39-2.41-0.52
		c-1.62-0.27-3.26-0.43-4.91-0.41c-1.65,0.02-3.28,0.18-4.89,0.48c-1.61,0.3-3.18,0.78-4.65,1.47C31.37,37,30,37.9,28.92,39.04
		C28.29,39.72,27.77,40.5,27.43,41.35z"/>
	<path class="st0" d="M98.53,119.81c-1.51,0.71-3.1,1.23-4.74,1.53c-1.64,0.29-3.3,0.39-4.95,0.35c-3.31-0.15-6.56-0.91-9.58-2.15
		c-1.51-0.62-2.97-1.4-4.25-2.46c-0.64-0.53-1.21-1.16-1.67-1.89c-0.22-0.34-0.38-0.72-0.52-1.11c0.04,0.36,0.09,0.72,0.16,1.08
		c0.19,0.99,0.19,2.24,0.62,3.14c0.84,1.82,2.17,3.33,3.83,4.4c1.65,1.08,3.53,1.82,5.48,2.24c1.95,0.43,3.97,0.61,5.99,0.56
		c2.03-0.02,4.07-0.15,6.02-0.57c1.96-0.39,3.84-1.1,5.42-2.24c0.8-0.56,1.49-1.26,2.07-2.05c0.26-0.35,0.49-0.7,0.68-1.06
		c-0.48-0.57-0.94-1.16-1.37-1.78C100.76,118.59,99.67,119.26,98.53,119.81z"/>
	<path class="st1" d="M75.44,116.59c1.14,1.06,2.56,1.82,4.04,2.37c1.49,0.54,3.05,0.87,4.63,1.03c1.58,0.15,3.16,0.17,4.73,0.12
		c3.13-0.15,6.25-0.52,9.24-1.42c1.14-0.35,2.28-0.8,3.31-1.42c-0.13-0.2-0.27-0.4-0.4-0.6c-1.09-1.83-1.93-3.86-2.22-6
		c-0.15-1.06-0.19-2.16-0.02-3.23c0.02-0.11,0.05-0.23,0.07-0.34c-2.98-0.83-6.96-1.58-9.98-1.56c-3.11,0.04-6.24,0.42-9.14,1.47
		c-1.44,0.53-2.81,1.22-3.96,2.15c-0.31,0.21-0.54,0.49-0.81,0.74c-0.14,0.13-0.23,0.28-0.35,0.41c-0.1,0.14-0.24,0.27-0.32,0.43
		c-0.4,0.6-0.6,1.27-0.68,1.97C73.52,114.12,74.27,115.57,75.44,116.59z"/>
	<path class="st1" d="M51.5,73.5c1.17,0.87,2.52,1.52,3.92,2.02c2.8,0.98,5.8,1.66,8.87,1.77c3.06,0.07,6.17-0.27,9.05-1.33
		c1.44-0.51,2.83-1.21,3.99-2.18c1.12-0.91,1.97-2.19,2.14-3.64c-0.34-0.68-0.79-1.32-1.32-1.86c-1.16-1.2-2.65-2.02-4.17-2.65
		c-0.39-0.14-0.77-0.3-1.16-0.42c-0.4-0.11-0.79-0.24-1.18-0.36c-0.8-0.19-1.6-0.39-2.41-0.52c-1.62-0.27-3.26-0.43-4.91-0.41
		c-1.65,0.02-3.28,0.18-4.89,0.48c-1.61,0.3-3.18,0.78-4.65,1.47c-1.46,0.69-2.83,1.59-3.91,2.73c-0.63,0.68-1.15,1.46-1.5,2.3
		C49.82,71.97,50.58,72.83,51.5,73.5z"/>
	<path class="st0" d="M80.13,72.74c-0.01-0.76-0.19-1.5-0.47-2.2c-0.06,0.59-0.21,1.19-0.49,1.72c-0.07,0.19-0.19,0.35-0.3,0.53
		c-0.11,0.17-0.21,0.35-0.34,0.51c-0.27,0.3-0.5,0.64-0.81,0.9c-1.16,1.13-2.57,1.97-4.04,2.63c-2.96,1.29-6.19,1.85-9.41,1.97
		c-1.61,0.04-3.24-0.03-4.86-0.23c-1.62-0.21-3.22-0.64-4.73-1.3c-1.5-0.68-2.95-1.56-4.11-2.79c-0.3-0.29-0.54-0.66-0.8-0.98
		c-0.12-0.17-0.21-0.37-0.32-0.55c-0.1-0.19-0.21-0.36-0.28-0.57c-0.06-0.13-0.1-0.27-0.14-0.41c-0.05,0.25-0.1,0.51-0.11,0.77
		c-0.07,1.56,0.55,3.15,1.6,4.42c1.05,1.28,2.47,2.25,3.98,2.97c1.52,0.72,3.16,1.17,4.82,1.4c1.66,0.24,3.33,0.3,4.99,0.25
		c1.66-0.07,3.3-0.25,4.92-0.56c0.81-0.15,1.61-0.35,2.41-0.55c0.39-0.13,0.78-0.26,1.18-0.37c0.39-0.13,0.77-0.29,1.16-0.44
		c1.52-0.63,3.01-1.46,4.17-2.66C79.32,76.02,80.12,74.43,80.13,72.74z"/>
	<path class="st0" d="M116.96,123.19c-1.57-0.56-3.07-1.31-4.44-2.24c-1.36-0.94-2.61-2.04-3.75-3.22
		c-2.24-2.43-3.99-5.25-5.24-8.24c-0.62-1.5-1.11-3.07-1.25-4.72c-0.08-0.82-0.02-1.67,0.17-2.5c0.14-0.6,0.4-1.17,0.75-1.7
		c-0.54,0.47-1.09,0.95-1.4,1.42c-0.57,0.84-1.04,1.74-1.38,2.67c-0.7,1.88-0.84,3.87-0.43,5.8c0.4,1.92,1.19,3.76,2.28,5.43
		c1.07,1.67,2.37,3.21,3.84,4.6c1.45,1.42,2.99,2.74,4.67,3.82c1.66,1.1,3.5,1.92,5.43,2.22c0.96,0.16,1.95,0.15,2.92,0
		c0.98-0.15,1.94-0.41,2.82-0.87c1.2-0.55,2.22-1.41,3.25-2.3c-1.02,0.53-2.2,0.76-3.36,0.74
		C120.18,124.08,118.53,123.74,116.96,123.19z"/>
	<path class="st1" d="M120.29,106.29c-2.23-2.15-4.72-4.08-7.51-5.37c-1.39-0.64-2.86-1.11-4.34-1.26c-0.37-0.07-0.73-0.03-1.1-0.04
		c-0.18-0.01-0.36,0.04-0.54,0.05c-0.18,0.03-0.37,0.02-0.53,0.08c-0.71,0.14-1.33,0.48-1.89,0.92c-1.05,0.96-1.56,2.51-1.46,4.05
		c0.05,1.55,0.52,3.08,1.17,4.51c0.67,1.43,1.54,2.76,2.54,3.97c1.01,1.21,2.11,2.33,3.26,3.4c2.32,2.09,4.79,4.01,7.55,5.48
		c1.38,0.72,2.86,1.32,4.42,1.51c0.39,0.08,0.78,0.05,1.18,0.05c0.2,0,0.39-0.04,0.59-0.06c0.19-0.03,0.4-0.03,0.58-0.1
		c0.77-0.17,1.46-0.59,2.05-1.11c0.52-0.58,0.94-1.27,1.11-2.03c0.07-0.18,0.07-0.38,0.1-0.57c0.02-0.19,0.07-0.38,0.06-0.58
		c-0.01-0.39,0.02-0.78-0.06-1.17c-0.19-1.55-0.8-3.02-1.52-4.38C124.45,110.92,122.51,108.47,120.29,106.29z"/>
	<path class="st1" d="M42.93,97.79c-0.39-0.14-0.77-0.3-1.16-0.42c-0.4-0.11-0.79-0.24-1.18-0.36c-0.8-0.19-1.6-0.39-2.41-0.52
		c-1.62-0.27-3.26-0.43-4.91-0.41c-1.65,0.02-3.28,0.18-4.89,0.48c-1.61,0.3-3.18,0.78-4.65,1.47c-1.46,0.69-2.83,1.59-3.91,2.73
		c-0.49,0.53-1.03,1.46-1.41,2.5c0.45,0.98,1.18,1.77,2.03,2.4c1.17,0.87,2.52,1.52,3.92,2.02c2.8,0.98,5.8,1.66,8.87,1.77
		c3.06,0.07,6.17-0.27,9.05-1.33c1.44-0.51,2.83-1.21,3.99-2.18c1.12-0.91,1.97-2.19,2.14-3.64c-0.34-0.68-0.79-1.32-1.32-1.86
		C45.94,99.24,44.45,98.42,42.93,97.79z"/>
	<path class="st0" d="M31.73,115.44c-0.07,0.5-0.21,1-0.45,1.46c-0.07,0.19-0.19,0.35-0.3,0.53c-0.11,0.17-0.21,0.35-0.34,0.51
		c-0.27,0.3-0.5,0.64-0.81,0.9c-1.16,1.13-2.57,1.97-4.04,2.63c-2.96,1.29-6.19,1.85-9.41,1.97c-1.61,0.04-3.24-0.03-4.86-0.23
		c-1.62-0.21-3.22-0.64-4.73-1.3c-1.5-0.68-2.95-1.56-4.11-2.79c-0.3-0.29-0.54-0.66-0.8-0.98c-0.12-0.17-0.21-0.37-0.32-0.55
		c-0.1-0.19-0.21-0.36-0.28-0.57c-0.06-0.13-0.1-0.27-0.14-0.41c-0.05,0.25-0.1,0.51-0.11,0.77c-0.07,1.56,0.55,3.15,1.6,4.42
		c1.05,1.28,2.47,2.25,3.98,2.97c1.52,0.72,3.16,1.17,4.82,1.4c1.66,0.24,3.33,0.3,4.99,0.25c1.66-0.07,3.3-0.25,4.92-0.56
		c0.81-0.15,1.61-0.35,2.41-0.55c0.39-0.13,0.78-0.26,1.18-0.37c0.39-0.13,0.77-0.29,1.16-0.44c1.52-0.63,3.01-1.46,4.17-2.66
		c1.15-1.19,1.95-2.78,1.97-4.47c-0.01-0.66-0.14-1.31-0.37-1.93C31.83,115.44,31.77,115.44,31.73,115.44z"/>
	<path class="st0" d="M47.82,104.96c-0.11,0.17-0.21,0.35-0.34,0.51c-0.27,0.3-0.5,0.64-0.81,0.9c-1.16,1.13-2.57,1.97-4.04,2.63
		c-2.96,1.29-6.19,1.85-9.41,1.97c-1.42,0.03-2.84-0.02-4.27-0.17c0.62,0.54,1.2,1.13,1.7,1.77c0.31,0.4,0.58,0.84,0.82,1.28
		c1.69-0.07,5.11-0.17,6.71-0.47c0.81-0.15,1.61-0.35,2.41-0.55c0.39-0.13,0.78-0.26,1.18-0.37c0.39-0.13,0.77-0.29,1.16-0.44
		c1.52-0.63,3.01-1.46,4.17-2.66c1.15-1.19,1.95-2.78,1.97-4.47c-0.01-0.76-0.19-1.5-0.47-2.2c-0.06,0.59-0.21,1.19-0.49,1.72
		C48.04,104.62,47.92,104.78,47.82,104.96z"/>
	<path class="st1" d="M3.61,118.14c1.17,0.87,2.52,1.52,3.92,2.02c2.8,0.98,5.8,1.66,8.87,1.77c3.06,0.07,6.17-0.27,9.05-1.33
		c1.44-0.51,2.83-1.21,3.99-2.18c1.11-0.89,1.94-2.15,2.13-3.57l-0.02-0.13c-0.34-0.66-0.77-1.27-1.28-1.79
		c-1.13-1.17-2.57-1.97-4.05-2.59c-0.84-0.22-1.66-0.49-2.46-0.84c-0.8-0.19-1.6-0.39-2.41-0.52c-1.62-0.27-3.26-0.43-4.91-0.41
		c-1.65,0.02-3.28,0.18-4.89,0.48c-1.61,0.3-3.18,0.78-4.65,1.47c-1.46,0.69-2.83,1.59-3.91,2.73c-0.63,0.68-1.15,1.46-1.5,2.3
		C1.93,116.6,2.69,117.46,3.61,118.14z"/>
	<path class="st2" d="M124.89,108.7c-0.92-1.38-2.01-2.64-3.15-3.84c-1.19-1.16-2.45-2.24-3.82-3.19c-1.38-0.94-2.85-1.75-4.41-2.39
		c-1.56-0.63-3.22-1.1-4.97-1.14c-0.43-0.04-0.88,0.04-1.31,0.06c-0.22,0.02-0.44,0.09-0.65,0.13c-0.22,0.06-0.44,0.08-0.65,0.18
		c-0.86,0.27-1.64,0.79-2.27,1.43c-0.03,0.03-0.05,0.07-0.08,0.1c-0.75,0.52-1.63,1.09-2.13,1.66c-0.7,0.79-1.28,1.68-1.75,2.64
		c-0.22,0.46-0.41,0.95-0.57,1.44c-1.54-0.69-3.84-1.51-5.33-1.8c-1.64-0.33-3.3-0.45-4.97-0.5c-1.66,0.01-3.33,0.13-4.98,0.43
		c-1.64,0.3-3.26,0.76-4.82,1.4c-1.55,0.65-3.06,1.49-4.32,2.68c-0.33,0.28-0.59,0.64-0.88,0.97c-0.14,0.16-0.25,0.37-0.37,0.55
		c-0.11,0.19-0.25,0.36-0.33,0.58c-0.41,0.8-0.59,1.71-0.59,2.6c0.01,0.11,0.03,0.22,0.05,0.34c-0.06,0.72-0.1,1.44-0.04,2.18
		c0.06,1.05-0.01,2.37,0.34,3.38c0.36,1.01,0.88,1.96,1.52,2.83c0.64,0.88,1.46,1.63,2.32,2.27c1.73,1.31,3.77,2.15,5.85,2.69
		c2.09,0.51,4.24,0.7,6.36,0.68c2.11-0.05,4.24-0.19,6.34-0.7c2.08-0.51,4.16-1.31,5.86-2.73c0.85-0.69,1.6-1.51,2.16-2.44
		c0.21-0.34,0.36-0.61,0.49-0.87c0.4,0.43,0.8,0.86,1.22,1.27c1.53,1.45,3.14,2.84,4.98,3.95c1.83,1.1,3.88,1.99,6.09,2.18
		c1.09,0.11,2.21,0.05,3.27-0.21c1.06-0.25,2.09-0.63,3.01-1.21c0.91-0.57,1.73-1.26,2.44-2.03c0.47-0.52,0.93-1.06,1.39-1.59
		c0.08-0.06,0.16-0.12,0.23-0.19c1.15-1.19,1.64-2.88,1.61-4.52c0-1.65-0.34-3.29-0.89-4.85
		C126.56,111.58,125.82,110.07,124.89,108.7z M74.26,110.73c0.07-0.16,0.21-0.29,0.32-0.43c0.12-0.14,0.21-0.29,0.35-0.41
		c0.27-0.25,0.5-0.53,0.81-0.74c1.15-0.93,2.53-1.62,3.96-2.15c2.89-1.05,6.03-1.43,9.14-1.47c3.01-0.01,7,0.73,9.98,1.56
		c-0.02,0.11-0.05,0.23-0.07,0.34c-0.17,1.07-0.13,2.17,0.02,3.23c0.29,2.14,1.13,4.17,2.22,6c0.13,0.21,0.27,0.4,0.4,0.6
		c-1.03,0.62-2.16,1.07-3.31,1.42c-3,0.9-6.11,1.27-9.24,1.42c-1.57,0.05-3.15,0.03-4.73-0.12c-1.58-0.16-3.14-0.49-4.63-1.03
		c-1.48-0.55-2.9-1.31-4.04-2.37c-1.17-1.02-1.91-2.47-1.86-3.89C73.67,112,73.86,111.32,74.26,110.73z M102.43,120.63
		c-0.58,0.79-1.27,1.49-2.07,2.05c-1.58,1.14-3.47,1.85-5.42,2.24c-1.96,0.42-3.99,0.56-6.02,0.57c-2.03,0.05-4.04-0.13-5.99-0.56
		c-1.95-0.41-3.83-1.16-5.48-2.24c-1.66-1.07-2.99-2.58-3.83-4.4c-0.43-0.9-0.43-2.15-0.62-3.14c-0.07-0.35-0.12-0.72-0.16-1.08
		c0.13,0.39,0.3,0.76,0.52,1.11c0.46,0.72,1.03,1.36,1.67,1.89c1.28,1.07,2.74,1.84,4.25,2.46c3.02,1.24,6.27,2.01,9.58,2.15
		c1.65,0.04,3.32-0.06,4.95-0.35c1.63-0.3,3.23-0.82,4.74-1.53c1.14-0.55,2.23-1.22,3.21-2.01c0.43,0.62,0.89,1.21,1.37,1.78
		C102.91,119.93,102.69,120.27,102.43,120.63z M121.95,125.64c-0.89,0.46-1.85,0.72-2.82,0.87c-0.97,0.15-1.96,0.16-2.92,0
		c-1.93-0.3-3.77-1.13-5.43-2.22c-1.68-1.08-3.22-2.4-4.67-3.82c-1.47-1.39-2.77-2.92-3.84-4.6c-1.09-1.66-1.88-3.5-2.28-5.43
		c-0.41-1.92-0.28-3.92,0.43-5.8c0.34-0.94,0.8-1.84,1.38-2.67c0.31-0.47,0.86-0.95,1.4-1.42c-0.35,0.53-0.61,1.1-0.75,1.7
		c-0.19,0.83-0.24,1.68-0.17,2.5c0.14,1.65,0.62,3.22,1.25,4.72c1.25,3,3,5.82,5.24,8.24c1.14,1.19,2.39,2.28,3.75,3.22
		c1.37,0.94,2.87,1.69,4.44,2.24c1.57,0.55,3.23,0.88,4.88,0.89c1.16,0.02,2.34-0.21,3.36-0.74
		C124.18,124.23,123.15,125.09,121.95,125.64z M127.54,119.18c0,0.2-0.04,0.39-0.06,0.58c-0.03,0.19-0.03,0.39-0.1,0.57
		c-0.17,0.77-0.59,1.45-1.11,2.03c-0.59,0.52-1.27,0.94-2.05,1.11c-0.18,0.07-0.39,0.07-0.58,0.1c-0.2,0.02-0.39,0.07-0.59,0.06
		c-0.4-0.01-0.79,0.02-1.18-0.05c-1.57-0.19-3.04-0.79-4.42-1.51c-2.76-1.46-5.23-3.39-7.55-5.48c-1.14-1.07-2.25-2.19-3.26-3.4
		c-1-1.22-1.87-2.55-2.54-3.97c-0.65-1.43-1.12-2.96-1.17-4.51c-0.1-1.54,0.41-3.09,1.46-4.05c0.56-0.44,1.18-0.78,1.89-0.92
		c0.16-0.06,0.36-0.06,0.53-0.08c0.18-0.01,0.35-0.06,0.54-0.05c0.37,0.01,0.73-0.03,1.1,0.04c1.48,0.15,2.94,0.62,4.34,1.26
		c2.79,1.29,5.28,3.22,7.51,5.37c2.21,2.18,4.16,4.62,5.66,7.34c0.73,1.37,1.33,2.83,1.52,4.38
		C127.56,118.4,127.53,118.79,127.54,119.18z"/>
	<path class="st2" d="M6.35,18.78c3.09,1.6,6.56,2.52,10.09,2.68c3.52,0.08,7.15-0.6,10.22-2.42c1.53-0.9,2.92-2.03,4-3.42
		c1.06-1.38,1.76-3.06,1.78-4.79c-0.02-1.73-0.71-3.41-1.77-4.8c-1.07-1.39-2.47-2.53-4-3.43C23.59,0.77,19.97,0.08,16.43,0
		C12.88,0.03,9.28,0.69,6.08,2.38c-1.59,0.84-3.1,1.9-4.26,3.34C0.66,7.14-0.06,8.99,0,10.84c0.1,1.86,0.99,3.53,2.15,4.84
		C3.34,16.99,4.81,17.98,6.35,18.78z M2.98,6.71c1.08-1.15,2.45-2.04,3.91-2.73C8.35,3.29,9.93,2.8,11.54,2.5
		c1.61-0.3,3.25-0.47,4.89-0.48c1.65-0.02,3.29,0.14,4.91,0.41c0.81,0.14,1.61,0.33,2.41,0.52c0.39,0.12,0.78,0.25,1.18,0.36
		c0.39,0.13,0.77,0.28,1.16,0.42c1.52,0.63,3,1.45,4.17,2.65c0.53,0.54,0.98,1.17,1.32,1.86c-0.17,1.46-1.02,2.73-2.14,3.64
		c-1.17,0.97-2.56,1.67-3.99,2.18c-2.88,1.06-5.99,1.4-9.05,1.33c-3.07-0.11-6.07-0.79-8.87-1.77c-1.4-0.5-2.75-1.15-3.92-2.02
		c-0.91-0.67-1.67-1.53-2.12-2.6C1.83,8.16,2.35,7.39,2.98,6.71z M1.16,10.07c0.04,0.14,0.08,0.28,0.14,0.41
		c0.06,0.21,0.18,0.38,0.28,0.57c0.11,0.18,0.2,0.38,0.32,0.55c0.26,0.33,0.49,0.7,0.8,0.98c1.16,1.23,2.61,2.12,4.11,2.79
		c1.51,0.66,3.11,1.09,4.73,1.3c1.62,0.2,3.24,0.26,4.86,0.23c3.22-0.12,6.45-0.68,9.41-1.97c1.47-0.66,2.88-1.5,4.04-2.63
		c0.31-0.26,0.54-0.61,0.81-0.9c0.12-0.16,0.22-0.34,0.34-0.51c0.11-0.17,0.23-0.33,0.3-0.53c0.28-0.54,0.43-1.13,0.49-1.72
		c0.29,0.69,0.46,1.43,0.47,2.2c-0.01,1.69-0.81,3.28-1.97,4.47c-1.16,1.2-2.65,2.03-4.17,2.66c-0.39,0.14-0.77,0.3-1.16,0.44
		c-0.4,0.12-0.79,0.25-1.18,0.37c-0.8,0.2-1.6,0.4-2.41,0.55c-1.62,0.31-3.26,0.49-4.92,0.56c-1.66,0.05-3.33-0.01-4.99-0.25
		c-1.66-0.23-3.3-0.69-4.82-1.4c-1.51-0.72-2.93-1.69-3.98-2.97C1.6,14,0.98,12.4,1.05,10.84C1.07,10.58,1.11,10.32,1.16,10.07z"/>
	<path class="st2" d="M104.15,17.18c2.81,1.46,5.96,2.32,9.17,2.48c3.2,0.09,6.52-0.54,9.31-2.22c1.39-0.83,2.65-1.87,3.62-3.14
		c0.96-1.27,1.59-2.79,1.61-4.36c-0.02-1.57-0.64-3.1-1.6-4.37c-0.97-1.27-2.24-2.32-3.62-3.15c-2.78-1.71-6.09-2.34-9.32-2.42
		c-3.24,0.02-6.52,0.64-9.44,2.18c-1.45,0.77-2.83,1.74-3.89,3.06c-1.05,1.31-1.71,3.01-1.64,4.7c0.1,1.7,0.92,3.23,1.98,4.41
		C101.42,15.54,102.75,16.44,104.15,17.18z M101.16,6.23c0.98-1.03,2.21-1.83,3.53-2.45c1.32-0.62,2.75-1.05,4.2-1.32
		c1.46-0.27,2.94-0.42,4.43-0.44c1.49-0.02,2.97,0.12,4.44,0.36c0.73,0.12,1.46,0.29,2.18,0.46c0.35,0.11,0.71,0.22,1.07,0.32
		c0.36,0.11,0.7,0.25,1.06,0.37c1.38,0.56,2.73,1.29,3.79,2.37c0.48,0.49,0.89,1.06,1.2,1.68c-0.16,1.31-0.93,2.46-1.95,3.28
		c-1.06,0.88-2.32,1.5-3.63,1.96c-2.61,0.95-5.43,1.25-8.2,1.18c-2.78-0.11-5.49-0.74-8.02-1.62c-1.27-0.44-2.49-1.02-3.55-1.8
		c-0.82-0.59-1.5-1.33-1.92-2.27C100.11,7.55,100.59,6.85,101.16,6.23z M99.47,9.4c0.03,0.08,0.05,0.16,0.08,0.23
		c0.13,0.36,0.34,0.69,0.53,1.03c0.23,0.3,0.45,0.64,0.72,0.9c1.05,1.14,2.37,1.95,3.74,2.57c1.38,0.61,2.84,1,4.32,1.19
		c1.48,0.17,2.96,0.23,4.42,0.19c2.93-0.12,5.87-0.63,8.56-1.82c1.33-0.6,2.61-1.37,3.67-2.41c0.28-0.24,0.49-0.55,0.73-0.83
		c0.2-0.31,0.42-0.61,0.57-0.94c0.25-0.48,0.38-1,0.43-1.53c0.25,0.62,0.41,1.27,0.42,1.95c-0.01,1.53-0.74,2.98-1.79,4.05
		c-1.06,1.08-2.41,1.82-3.79,2.38c-0.35,0.13-0.7,0.27-1.05,0.39c-0.36,0.1-0.72,0.22-1.07,0.33c-0.73,0.18-1.45,0.36-2.18,0.49
		c-1.47,0.28-2.95,0.44-4.46,0.51c-1.5,0.05-3.02,0.01-4.52-0.2c-1.51-0.2-2.99-0.61-4.37-1.25c-1.37-0.65-2.65-1.53-3.6-2.69
		c-0.95-1.15-1.49-2.59-1.43-4C99.41,9.76,99.44,9.58,99.47,9.4z"/>
	<path class="st2" d="M63.12,26.35c3.09,1.6,6.56,2.52,10.09,2.68c3.52,0.08,7.15-0.6,10.22-2.42c1.53-0.9,2.92-2.03,4-3.42
		c1.06-1.38,1.76-3.06,1.78-4.79c-0.02-1.73-0.71-3.41-1.77-4.8c-1.07-1.39-2.47-2.53-4-3.43c-3.07-1.85-6.69-2.54-10.23-2.62
		c-3.55,0.03-7.15,0.69-10.35,2.38c-1.59,0.84-3.1,1.9-4.26,3.34c-1.16,1.42-1.88,3.27-1.82,5.12c0.11,1.86,0.99,3.53,2.15,4.84
		C60.12,24.55,61.58,25.55,63.12,26.35z M59.76,14.27c1.08-1.15,2.45-2.04,3.91-2.73c1.47-0.69,3.04-1.17,4.65-1.47
		c1.61-0.3,3.25-0.47,4.89-0.48c1.65-0.02,3.29,0.14,4.91,0.41c0.81,0.14,1.61,0.33,2.41,0.52c0.39,0.12,0.78,0.25,1.18,0.36
		c0.39,0.13,0.77,0.28,1.16,0.42c1.52,0.63,3,1.45,4.17,2.65c0.53,0.54,0.98,1.17,1.32,1.86c-0.17,1.46-1.02,2.73-2.14,3.64
		c-1.17,0.97-2.56,1.67-3.99,2.18c-2.88,1.06-5.99,1.4-9.05,1.33c-3.07-0.11-6.07-0.79-8.87-1.77c-1.4-0.5-2.75-1.15-3.92-2.02
		c-0.91-0.67-1.67-1.53-2.12-2.6C58.61,15.73,59.13,14.95,59.76,14.27z M57.94,17.64c0.04,0.14,0.08,0.28,0.14,0.41
		c0.06,0.21,0.18,0.38,0.28,0.57c0.11,0.18,0.2,0.38,0.32,0.55c0.26,0.33,0.49,0.7,0.8,0.98c1.16,1.23,2.61,2.12,4.11,2.79
		c1.51,0.66,3.11,1.09,4.73,1.3c1.62,0.2,3.24,0.26,4.86,0.23c3.22-0.12,6.45-0.68,9.41-1.97c1.47-0.66,2.88-1.5,4.04-2.63
		c0.31-0.26,0.54-0.61,0.81-0.9c0.12-0.16,0.22-0.34,0.34-0.51c0.11-0.17,0.23-0.33,0.3-0.53c0.28-0.54,0.43-1.13,0.49-1.72
		c0.29,0.69,0.46,1.43,0.47,2.2c-0.01,1.69-0.81,3.28-1.97,4.47c-1.16,1.2-2.65,2.03-4.17,2.66c-0.39,0.14-0.77,0.3-1.16,0.44
		c-0.4,0.12-0.79,0.25-1.18,0.37c-0.8,0.2-1.6,0.4-2.41,0.55c-1.62,0.31-3.26,0.49-4.92,0.56c-1.66,0.05-3.33-0.01-4.99-0.25
		c-1.66-0.23-3.3-0.69-4.82-1.4c-1.51-0.72-2.93-1.69-3.98-2.97c-1.05-1.27-1.66-2.86-1.6-4.42C57.84,18.15,57.89,17.89,57.94,17.64
		z"/>
	<path class="st2" d="M98.12,61.24c3.09,1.6,6.56,2.52,10.09,2.68c3.52,0.08,7.15-0.6,10.22-2.42c1.53-0.9,2.92-2.03,4-3.42
		c1.06-1.38,1.76-3.06,1.78-4.79c-0.02-1.73-0.71-3.41-1.77-4.8c-1.07-1.39-2.47-2.53-4-3.43c-3.07-1.85-6.69-2.54-10.23-2.62
		c-3.55,0.03-7.15,0.69-10.35,2.38c-1.59,0.84-3.1,1.9-4.26,3.34c-1.16,1.42-1.88,3.27-1.82,5.12c0.11,1.86,0.99,3.53,2.15,4.84
		C95.12,59.44,96.58,60.43,98.12,61.24z M94.76,49.16c1.08-1.15,2.45-2.04,3.91-2.73c1.47-0.69,3.04-1.17,4.65-1.47
		c1.61-0.3,3.25-0.47,4.89-0.48c1.65-0.02,3.29,0.14,4.91,0.41c0.81,0.14,1.61,0.33,2.41,0.52c0.39,0.12,0.78,0.25,1.18,0.36
		c0.39,0.13,0.77,0.28,1.16,0.42c1.52,0.63,3,1.45,4.17,2.65c0.53,0.54,0.98,1.17,1.32,1.86c-0.17,1.46-1.02,2.73-2.14,3.64
		c-1.17,0.97-2.56,1.67-4,2.18c-2.88,1.06-5.99,1.4-9.05,1.33c-3.07-0.11-6.07-0.79-8.87-1.77c-1.4-0.5-2.75-1.15-3.92-2.02
		c-0.91-0.67-1.67-1.53-2.12-2.6C93.61,50.62,94.13,49.84,94.76,49.16z M92.94,52.52c0.04,0.14,0.08,0.28,0.14,0.41
		c0.06,0.21,0.18,0.38,0.28,0.57c0.11,0.18,0.2,0.38,0.32,0.55c0.26,0.33,0.49,0.7,0.8,0.98c1.16,1.23,2.61,2.12,4.11,2.79
		c1.51,0.66,3.11,1.09,4.73,1.3c1.62,0.2,3.24,0.26,4.86,0.23c3.22-0.12,6.45-0.68,9.41-1.97c1.47-0.66,2.88-1.5,4.04-2.63
		c0.31-0.26,0.54-0.61,0.81-0.9c0.12-0.16,0.22-0.34,0.34-0.51c0.11-0.17,0.23-0.33,0.3-0.53c0.28-0.54,0.43-1.13,0.49-1.72
		c0.29,0.69,0.46,1.43,0.47,2.2c-0.01,1.69-0.81,3.28-1.97,4.47c-1.16,1.2-2.65,2.03-4.17,2.66c-0.39,0.14-0.77,0.3-1.16,0.44
		c-0.4,0.12-0.79,0.25-1.18,0.37c-0.8,0.2-1.6,0.4-2.41,0.55c-1.62,0.31-3.26,0.49-4.92,0.56c-1.66,0.05-3.33-0.01-4.99-0.25
		c-1.66-0.23-3.3-0.69-4.82-1.4c-1.51-0.72-2.93-1.69-3.98-2.97c-1.05-1.27-1.66-2.86-1.6-4.42C92.85,53.03,92.89,52.78,92.94,52.52
		z"/>
	<path class="st2" d="M27.76,38.06c-1.16,1.42-1.88,3.27-1.82,5.12c0.11,1.86,0.99,3.53,2.15,4.84c1.19,1.31,2.65,2.3,4.19,3.1
		c3.09,1.6,6.56,2.52,10.09,2.68c3.52,0.08,7.15-0.6,10.22-2.42c1.53-0.9,2.92-2.03,4-3.42c1.06-1.38,1.76-3.06,1.78-4.79
		c-0.02-1.73-0.71-3.41-1.77-4.8c-1.07-1.39-2.47-2.53-4-3.43c-3.07-1.85-6.69-2.54-10.23-2.62c-3.55,0.03-7.15,0.69-10.35,2.38
		C30.43,35.55,28.92,36.62,27.76,38.06z M58.18,43.18c-0.01,1.69-0.81,3.28-1.97,4.47c-1.16,1.2-2.65,2.03-4.17,2.66
		c-0.39,0.14-0.77,0.3-1.16,0.44c-0.4,0.12-0.79,0.25-1.18,0.37c-0.8,0.2-1.6,0.4-2.41,0.55c-1.62,0.31-3.26,0.49-4.92,0.56
		c-1.66,0.05-3.33-0.01-4.99-0.25c-1.66-0.23-3.3-0.69-4.82-1.4c-1.51-0.72-2.93-1.69-3.98-2.97c-1.05-1.27-1.66-2.86-1.6-4.42
		c0.02-0.26,0.06-0.52,0.11-0.77c0.04,0.14,0.08,0.28,0.14,0.41c0.06,0.21,0.18,0.38,0.28,0.57c0.11,0.18,0.2,0.38,0.32,0.55
		c0.26,0.33,0.49,0.7,0.8,0.98c1.16,1.23,2.61,2.12,4.11,2.79c1.51,0.66,3.11,1.09,4.73,1.3c1.62,0.2,3.24,0.26,4.86,0.23
		c3.22-0.12,6.45-0.68,9.41-1.97c1.47-0.66,2.88-1.5,4.04-2.63c0.31-0.26,0.54-0.61,0.81-0.9c0.12-0.16,0.22-0.34,0.34-0.51
		c0.11-0.17,0.23-0.33,0.3-0.53c0.28-0.54,0.43-1.13,0.49-1.72C58,41.68,58.17,42.42,58.18,43.18z M37.48,34.84
		c1.61-0.3,3.25-0.47,4.89-0.48c1.65-0.02,3.29,0.14,4.91,0.41c0.81,0.14,1.61,0.33,2.41,0.52c0.39,0.12,0.78,0.25,1.18,0.36
		c0.39,0.13,0.77,0.28,1.16,0.42c1.52,0.63,3,1.45,4.17,2.65c0.53,0.54,0.98,1.17,1.32,1.86c-0.17,1.46-1.02,2.73-2.14,3.64
		c-1.17,0.97-2.56,1.67-3.99,2.18c-2.88,1.06-5.99,1.4-9.05,1.33c-3.07-0.11-6.07-0.79-8.87-1.77c-1.4-0.5-2.75-1.15-3.92-2.02
		c-0.91-0.67-1.67-1.53-2.12-2.6c0.35-0.85,0.87-1.62,1.5-2.3C30,37.9,31.37,37,32.83,36.31C34.29,35.62,35.87,35.14,37.48,34.84z"
		/>
	<path class="st2" d="M78.54,77.53c1.06-1.38,1.76-3.06,1.78-4.79c-0.02-1.73-0.71-3.41-1.77-4.8c-1.07-1.39-2.47-2.53-4-3.43
		c-3.07-1.85-6.69-2.54-10.23-2.62c-3.55,0.03-7.15,0.69-10.35,2.38c-1.59,0.84-3.1,1.9-4.26,3.34c-1.16,1.42-1.88,3.27-1.82,5.12
		c0.11,1.86,0.99,3.53,2.15,4.84c1.19,1.31,2.65,2.3,4.19,3.1c3.09,1.6,6.56,2.52,10.09,2.68c3.52,0.08,7.15-0.6,10.22-2.42
		C76.07,80.05,77.46,78.91,78.54,77.53z M50.87,68.6c1.08-1.15,2.45-2.04,3.91-2.73c1.47-0.69,3.04-1.17,4.65-1.47
		c1.61-0.3,3.25-0.47,4.89-0.48c1.65-0.02,3.29,0.14,4.91,0.41c0.81,0.14,1.61,0.33,2.41,0.52c0.39,0.12,0.78,0.25,1.18,0.36
		c0.39,0.13,0.77,0.28,1.16,0.42c1.52,0.63,3,1.45,4.17,2.65c0.53,0.54,0.98,1.17,1.32,1.86c-0.17,1.46-1.02,2.73-2.14,3.64
		c-1.17,0.97-2.56,1.67-3.99,2.18c-2.88,1.06-5.99,1.4-9.05,1.33c-3.07-0.11-6.07-0.79-8.87-1.77c-1.4-0.5-2.75-1.15-3.92-2.02
		c-0.91-0.67-1.67-1.53-2.12-2.6C49.72,70.06,50.24,69.28,50.87,68.6z M72.84,80.3c-0.4,0.12-0.79,0.25-1.18,0.37
		c-0.8,0.2-1.6,0.4-2.41,0.55c-1.62,0.31-3.26,0.49-4.92,0.56c-1.66,0.05-3.33-0.01-4.99-0.25c-1.66-0.23-3.3-0.69-4.82-1.4
		c-1.51-0.72-2.93-1.69-3.98-2.97c-1.05-1.27-1.66-2.86-1.6-4.42c0.02-0.26,0.06-0.52,0.11-0.77c0.04,0.14,0.08,0.28,0.14,0.41
		c0.06,0.21,0.18,0.38,0.28,0.57c0.11,0.18,0.2,0.38,0.32,0.55c0.26,0.33,0.49,0.7,0.8,0.98c1.16,1.23,2.61,2.12,4.11,2.79
		c1.51,0.66,3.11,1.09,4.73,1.3c1.62,0.2,3.24,0.26,4.86,0.23c3.22-0.12,6.45-0.68,9.41-1.97c1.47-0.66,2.88-1.5,4.04-2.63
		c0.31-0.26,0.54-0.61,0.81-0.9c0.12-0.16,0.22-0.34,0.34-0.51c0.11-0.17,0.23-0.33,0.3-0.53c0.28-0.54,0.43-1.13,0.49-1.72
		c0.29,0.69,0.46,1.43,0.47,2.2c-0.01,1.69-0.81,3.28-1.97,4.47c-1.16,1.2-2.65,2.03-4.17,2.66C73.61,80.01,73.23,80.17,72.84,80.3z
		"/>
	<path class="st2" d="M43.49,96.68c-3.07-1.85-6.69-2.54-10.23-2.62c-3.55,0.03-7.15,0.69-10.35,2.38
		c-1.59,0.84-2.87,2.12-4.26,3.34c-2.53,2.22-1.9,5.27-0.44,6.81c-0.13,0-0.27-0.01-0.4-0.02c-3.55,0.03-8.53,0.65-11.73,2.33
		c-1.59,0.84-3.1,1.9-4.26,3.34c-1.16,1.42-1.88,3.27-1.82,5.12c0.1,1.86,0.99,3.53,2.15,4.84c1.19,1.31,2.65,2.3,4.19,3.1
		c3.09,1.6,6.56,2.52,10.09,2.68c3.52,0.08,7.15-0.6,10.22-2.42c1.53-0.9,2.92-2.03,4-3.42c1.06-1.38,1.76-3.06,1.78-4.79
		c-0.01-0.65-0.11-1.3-0.29-1.92c3.5,0.02,8.4-0.6,11.35-2.34c1.53-0.9,2.92-2.03,4-3.42c1.06-1.38,1.76-3.06,1.78-4.79
		c-0.02-1.73-0.71-3.41-1.77-4.8C46.42,98.72,45.02,97.58,43.49,96.68z M2.98,113.24c1.08-1.15,2.45-2.04,3.91-2.73
		c1.47-0.69,3.04-1.17,4.65-1.47c1.61-0.3,3.25-0.47,4.89-0.48c1.65-0.02,3.29,0.14,4.91,0.41c0.81,0.14,1.61,0.33,2.41,0.52
		c0.8,0.34,1.63,0.62,2.46,0.84c1.48,0.62,2.92,1.43,4.05,2.59c0.51,0.53,0.95,1.13,1.28,1.79l0.02,0.13
		c-0.19,1.43-1.03,2.68-2.13,3.57c-1.17,0.97-2.56,1.67-3.99,2.18c-2.88,1.06-5.99,1.4-9.05,1.33c-3.07-0.11-6.07-0.79-8.87-1.77
		c-1.4-0.5-2.75-1.15-3.92-2.02c-0.91-0.67-1.67-1.53-2.12-2.6C1.83,114.69,2.35,113.92,2.98,113.24z M32.24,117.37
		c-0.01,1.69-0.81,3.28-1.97,4.47c-1.16,1.2-2.65,2.02-4.17,2.66c-0.39,0.14-0.77,0.3-1.16,0.44c-0.4,0.12-0.79,0.25-1.18,0.37
		c-0.8,0.2-1.6,0.4-2.41,0.55c-1.62,0.31-3.26,0.49-4.92,0.56c-1.66,0.05-3.33-0.01-4.99-0.25c-1.66-0.23-3.3-0.69-4.82-1.4
		c-1.51-0.72-2.93-1.69-3.98-2.97c-1.05-1.27-1.66-2.86-1.6-4.42c0.02-0.26,0.06-0.52,0.11-0.77c0.04,0.14,0.08,0.28,0.14,0.41
		c0.06,0.21,0.18,0.38,0.28,0.57c0.11,0.18,0.2,0.38,0.32,0.55c0.26,0.33,0.49,0.7,0.8,0.98c1.16,1.23,2.61,2.12,4.11,2.79
		c1.51,0.66,3.11,1.09,4.73,1.3c1.62,0.2,3.24,0.26,4.86,0.23c3.22-0.12,6.45-0.68,9.41-1.97c1.47-0.66,2.88-1.5,4.04-2.63
		c0.31-0.26,0.54-0.61,0.81-0.9c0.12-0.16,0.22-0.34,0.34-0.51c0.11-0.17,0.23-0.33,0.3-0.53c0.24-0.46,0.37-0.95,0.45-1.46
		c0.05,0,0.1,0,0.15,0C32.1,116.06,32.23,116.71,32.24,117.37z M49.08,104.9c-0.01,1.69-0.81,3.28-1.97,4.47
		c-1.16,1.2-2.65,2.02-4.17,2.66c-0.39,0.14-0.77,0.3-1.16,0.44c-0.4,0.12-0.79,0.25-1.18,0.37c-0.8,0.2-1.6,0.4-2.41,0.55
		c-1.59,0.3-5.02,0.4-6.71,0.47c-0.24-0.45-0.51-0.88-0.82-1.28c-0.5-0.65-1.08-1.23-1.7-1.77c1.42,0.15,2.85,0.2,4.27,0.17
		c3.22-0.12,6.45-0.68,9.41-1.97c1.47-0.66,2.88-1.5,4.04-2.63c0.31-0.26,0.54-0.61,0.81-0.9c0.12-0.16,0.22-0.34,0.34-0.51
		c0.11-0.17,0.23-0.33,0.3-0.53c0.28-0.54,0.43-1.13,0.49-1.72C48.89,103.4,49.07,104.14,49.08,104.9z M46.27,105.94
		c-1.17,0.97-2.56,1.67-3.99,2.18c-2.88,1.06-5.99,1.4-9.05,1.33c-3.07-0.11-6.07-0.79-8.87-1.77c-1.4-0.5-2.75-1.15-3.92-2.02
		c-0.86-0.63-1.58-1.43-2.03-2.4c0.38-1.04,0.92-1.97,1.41-2.5c1.08-1.15,2.45-2.04,3.91-2.73c1.47-0.69,3.04-1.17,4.65-1.47
		c1.61-0.3,3.25-0.47,4.89-0.48c1.65-0.02,3.29,0.14,4.91,0.41c0.81,0.14,1.61,0.33,2.41,0.52c0.39,0.12,0.78,0.25,1.18,0.36
		c0.39,0.13,0.77,0.28,1.16,0.42c1.52,0.63,3,1.45,4.17,2.65c0.53,0.54,0.98,1.17,1.32,1.86C48.25,103.75,47.4,105.03,46.27,105.94z
		"/>
	<path class="st2" d="M24.42,67.72c-2.65-1.65-5.8-2.25-8.88-2.33c-3.09,0.02-6.22,0.61-9,2.08c-1.38,0.73-2.7,1.67-3.71,2.93
		c-1.01,1.25-1.63,2.88-1.56,4.5c0.1,1.63,0.88,3.08,1.9,4.21c1.03,1.13,2.3,1.99,3.64,2.69c2.67,1.39,5.67,2.23,8.73,2.39
		c3.05,0.09,6.21-0.51,8.87-2.12c1.32-0.79,2.52-1.8,3.44-3.01c0.91-1.21,1.5-2.66,1.53-4.16c-0.01-1.5-0.6-2.96-1.52-4.17
		C26.94,69.52,25.74,68.52,24.42,67.72z M29.19,74.9c-0.01,1.46-0.71,2.83-1.71,3.84c-1.01,1.02-2.3,1.72-3.61,2.24
		c-0.34,0.12-0.66,0.25-1,0.36c-0.34,0.1-0.68,0.21-1.02,0.31c-0.69,0.17-1.38,0.33-2.07,0.46c-1.39,0.26-2.8,0.42-4.23,0.49
		c-2.83,0.09-5.82-0.1-8.46-1.36c-1.3-0.62-2.52-1.46-3.42-2.56c-0.9-1.09-1.41-2.46-1.34-3.79c0.01-0.14,0.03-0.28,0.05-0.42
		c0.02,0.04,0.02,0.09,0.04,0.13c0.13,0.35,0.32,0.66,0.51,0.99c0.22,0.29,0.42,0.62,0.69,0.87c1,1.09,2.26,1.87,3.57,2.47
		c1.32,0.58,2.71,0.96,4.12,1.13c1.41,0.16,2.82,0.21,4.22,0.17c2.79-0.12,5.59-0.61,8.15-1.74c1.27-0.58,2.49-1.31,3.49-2.3
		c0.27-0.23,0.46-0.53,0.7-0.79c0.19-0.29,0.4-0.58,0.55-0.9c0.23-0.45,0.35-0.94,0.4-1.44C29.04,73.65,29.18,74.27,29.19,74.9z
		 M26.76,75.77c-1.01,0.83-2.21,1.42-3.45,1.85c-2.48,0.9-5.17,1.18-7.8,1.11c-2.64-0.11-5.21-0.72-7.62-1.55
		c-1.21-0.42-2.36-0.96-3.37-1.69c-0.77-0.55-1.42-1.24-1.83-2.11c0.3-0.73,0.76-1.4,1.31-1.99c0.93-0.97,2.1-1.73,3.35-2.32
		c2.53-1.18,5.38-1.61,8.19-1.66c1.41-0.02,2.82,0.12,4.22,0.34c0.7,0.12,1.38,0.28,2.07,0.43c0.34,0.1,0.67,0.21,1.02,0.3
		c0.34,0.11,0.67,0.23,1,0.35c1.31,0.52,2.6,1.21,3.61,2.24c0.46,0.46,0.85,1.01,1.15,1.6C28.46,73.91,27.72,75,26.76,75.77z"/>
</g>
</svg>
