<?xml version="1.0" encoding="utf-8"?>
<!-- Generator: Adobe Illustrator 18.1.0, SVG Export Plug-In . SVG Version: 6.00 Build 0)  -->
<svg version="1.1" baseProfile="tiny" id="Layer_1" xmlns="http://www.w3.org/2000/svg" xmlns:xlink="http://www.w3.org/1999/xlink"
	 x="0px" y="0px" viewBox="0 0 128 128" 
width="128" height="128"
xml:space="preserve">
<g>
	<path fill="#62B257" d="M67.1,22.7c0.5-0.1,1.1,0.2,1.2,0.7c0.1,0.5-0.2,1.1-0.7,1.2c-1.8,0.4-5,1.6-7.8,4.5
		c1.4,1.5,3.8,2.5,6.2,2.5c1.1,0,2.2-0.2,3.2-0.6c1.6-0.7,2.9-2.1,4.3-3.8c2.8-3.2,6.2-7.2,14.2-7.4c-3.3-2.2-7.8-4.8-13.8-4.8
		c-1.8,0-3.6,0.2-5.4,0.7c-5.3,1.3-8.8,3.6-10.1,6.5c-0.7,1.7-0.7,3.6,0.1,5.3C61.7,24.4,65.2,23.1,67.1,22.7z"/>
	<path fill="#AA6D43" d="M84.7,78.1v35.7h-3.3V97.1c0-5.9,0.9-11.7,2.7-17.3L84.7,78.1L84.7,78.1z"/>
	<path fill="#62B257" d="M40.8,22.8c-0.8-0.1-1.6-0.2-2.4-0.2c-5,0-8.5,2.2-11,4.3c0.3,0,0.5,0,0.8,0c5.2,0,7.9,2.5,10.1,4.6
		c1.2,1.1,2.2,2.1,3.5,2.5c0.5,0.2,1.1,0.2,1.7,0.2c1.7,0,3.5-0.7,4.6-1.8c-2.7-2.5-5.6-3.5-7.3-3.9c-0.5-0.1-0.8-0.7-0.7-1.2
		c0.1-0.5,0.7-0.8,1.2-0.7c1.8,0.5,5,1.6,7.9,4.2c0.5-1.4,0.4-2.8-0.3-4C47.6,24.8,44.9,23.4,40.8,22.8z"/>
	<path fill="#AA6D43" d="M64,78.1v35.8h-3.3V97.1c0-5.9,0.9-11.7,2.7-17.3L64,78.1z"/>
	<path fill="#915E3C" d="M2.4,67.6h5.5c0,0,0,0,0,0c0.1,0,0.1,0,0.2,0c0.1,0,0.1,0,0.2,0c0.1,0,0.1,0.1,0.2,0.1
		c0.1,0,0.1,0.1,0.1,0.1c0,0,0.1,0.1,0.1,0.1c0,0.1,0.1,0.1,0.1,0.2c0,0,0,0,0,0l17.9,54.1c1,2.2,3.3,3.6,5.7,3.6h62.3
		c2.4,0,4.7-1.4,5.7-3.6l18.7-54.1c0,0,0,0,0,0c0-0.1,0.1-0.1,0.1-0.2c0,0,0.1-0.1,0.1-0.1c0,0,0.1-0.1,0.2-0.1c0,0,0.1-0.1,0.1-0.1
		c0.1,0,0.1,0,0.2,0c0.1,0,0.1,0,0.2,0c0,0,0,0,0,0h5.5c0.3,0,0.5-0.2,0.5-0.5v-2.9c0-0.3-0.2-0.5-0.5-0.5h-8.4L98.3,117
		c-1.2,2.7-3.9,4.3-6.7,4.3H35.5c-2.9,0-5.5-1.7-6.7-4.3l0-0.1L10.7,63.7H2.4c-0.3,0-0.5,0.2-0.5,0.5v2.9C2,67.4,2.2,67.6,2.4,67.6z
		"/>
	<path fill="#AA6D43" d="M43.3,78.2v35.7H40V97.1c0-5.9,0.9-11.7,2.7-17.3L43.3,78.2z"/>
	<path fill="#2D2D2D" d="M2.4,69.5h4.8L24.9,123l0,0.1c1.4,2.9,4.3,4.8,7.5,4.8h62.3c3.2,0,6.2-1.9,7.5-4.8l18.6-53.6h4.8
		c1.3,0,2.4-1.1,2.4-2.4v-2.9c0-1.3-1.1-2.4-2.4-2.4h-9.1c0,0,0,0,0,0c-0.1,0-0.1,0-0.2,0c-0.1,0-0.1,0-0.2,0c0,0-0.1,0.1-0.1,0.1
		c-0.1,0-0.1,0.1-0.2,0.1c0,0-0.1,0.1-0.1,0.1c0,0.1-0.1,0.1-0.1,0.2c0,0,0,0,0,0l-19,53.8c-0.9,1.9-2.8,3.1-4.9,3.1H35.5
		c-2.1,0-4-1.2-4.9-3.1L12.3,62.4c0,0,0,0,0,0c0-0.1-0.1-0.1-0.1-0.2c0,0-0.1-0.1-0.1-0.1c0,0-0.1-0.1-0.1-0.1
		c-0.1,0-0.1-0.1-0.2-0.1c-0.1,0-0.1,0-0.2,0c-0.1,0-0.1,0-0.2,0c0,0,0,0,0,0h-9c-1.3,0-2.4,1.1-2.4,2.4v2.9
		C0,68.4,1.1,69.5,2.4,69.5z M2,64.2c0-0.3,0.2-0.5,0.5-0.5h8.2L28.8,117l0,0.1c1.2,2.6,3.8,4.3,6.7,4.3h56.1c2.9,0,5.5-1.7,6.7-4.3
		l18.8-53.3h8.4c0.3,0,0.5,0.2,0.5,0.5v2.9c0,0.3-0.2,0.5-0.5,0.5h-5.5c0,0,0,0,0,0c-0.1,0-0.1,0-0.2,0c-0.1,0-0.1,0-0.2,0
		c-0.1,0-0.1,0.1-0.1,0.1c-0.1,0-0.1,0.1-0.2,0.1c0,0-0.1,0.1-0.1,0.1c0,0.1-0.1,0.1-0.1,0.2c0,0,0,0,0,0l-18.7,54.1
		c-1,2.2-3.3,3.6-5.7,3.6H32.4c-2.4,0-4.7-1.4-5.7-3.6L8.8,68.2c0,0,0,0,0,0c0-0.1-0.1-0.1-0.1-0.2c0,0-0.1-0.1-0.1-0.1
		c0,0-0.1-0.1-0.1-0.1c-0.1,0-0.1-0.1-0.2-0.1c-0.1,0-0.1,0-0.2,0c-0.1,0-0.1,0-0.2,0c0,0,0,0,0,0H2.4c-0.3,0-0.5-0.2-0.5-0.5V64.2z
		"/>
	<path fill="#2D2D2D" d="M40.9,79.2C39,85,38.1,91,38.1,97.1v17.1c0,0.9,0.7,1.6,1.5,1.6H47c0.8,0,1.5-0.7,1.5-1.6V97.1
		c0-6.1-0.9-12.1-2.8-17.9l-2.4-7.6L40.9,79.2z M46.6,97.1v16.8H40V97.1c0-5.9,0.9-11.7,2.7-17.3l0.6-1.7l0.6,1.7
		C45.7,85.4,46.6,91.2,46.6,97.1z"/>
	<path fill="#2D2D2D" d="M82.3,79.2C80.4,85,79.5,91,79.5,97.1v17.1c0,0.9,0.7,1.6,1.5,1.6h7.4c0.8,0,1.5-0.7,1.5-1.6V97.1
		c0-6.1-0.9-12.1-2.8-17.9l-2.4-7.6L82.3,79.2z M88,97.1v16.8h-6.5V97.1c0-5.9,0.9-11.7,2.7-17.3l0.6-1.7l0.6,1.7
		C87,85.4,88,91.2,88,97.1z"/>
	<path fill="#2D2D2D" d="M61.6,79.2C59.7,85,58.8,91,58.8,97.1v17.1c0,0.9,0.7,1.6,1.5,1.6h7.4c0.8,0,1.5-0.7,1.5-1.6V97.1
		c0-6.1-0.9-12.1-2.8-17.9L64,71.6L61.6,79.2z M67.3,97.1v16.8h-6.5V97.1c0-5.9,0.9-11.7,2.7-17.3L64,78l0.6,1.7
		C66.4,85.4,67.3,91.2,67.3,97.1z"/>
	<path fill="#2D2D2D" d="M1,56.6h126c0.5,0,1-0.4,1-1c0-0.5-0.4-1-1-1H55.1V38.4c0.3-2.1,1.1-5.1,3.3-7.9c1.8,1.8,4.6,2.9,7.5,2.9
		c1.4,0,2.7-0.3,3.9-0.8c2.1-0.9,3.5-2.5,5.1-4.3c2.7-3.1,5.8-6.7,13.2-6.7c0.7,0,1.4,0,2.2,0.1c0.5,0,1-0.3,1.1-0.8
		c0.2-0.5,0-1-0.4-1.3l-0.5-0.4c-3.3-2.4-8.9-6.4-16.6-6.4c-1.9,0-3.9,0.2-5.9,0.7c-7.5,1.9-10.3,5.2-11.4,7.6
		c-1,2.4-0.9,5.2,0.5,7.6c-2.2,2.7-3.2,5.5-3.7,7.7c-0.6-1.2-1.4-2.5-2.4-3.8c-0.2-0.2-0.3-0.4-0.5-0.6c0.1-0.1,0.1-0.2,0.2-0.3
		c0.9-2,0.8-4.3-0.2-6.1c-1-1.8-3.5-4.1-9.4-5c-0.9-0.1-1.8-0.2-2.7-0.2c-7,0-11.4,4-14.1,6.3L24,27.3c-0.3,0.3-0.5,0.8-0.3,1.2
		c0.2,0.4,0.6,0.7,1.1,0.7l0.2,0c1.1-0.2,2.2-0.3,3.2-0.3c4.4,0,6.6,2.1,8.7,4c1.3,1.2,2.6,2.4,4.3,2.9c0.7,0.2,1.5,0.3,2.2,0.3
		c2.3,0,4.5-0.9,6-2.4c0.1,0.1,0.1,0.2,0.2,0.2c2.5,3,3.3,6.2,3.6,8.3l0,12.2H1c-0.5,0-1,0.4-1,1C0,56.2,0.4,56.6,1,56.6z M58.5,22
		c1.3-2.9,4.7-5.2,10.1-6.5c1.8-0.5,3.6-0.7,5.4-0.7c6,0,10.5,2.6,13.8,4.8c-8,0.2-11.4,4.2-14.2,7.4c-1.4,1.7-2.7,3.1-4.3,3.8
		c-1,0.4-2.1,0.6-3.2,0.6c-2.4,0-4.8-1-6.2-2.5c2.8-2.8,6.1-4,7.8-4.5c0.5-0.1,0.8-0.7,0.7-1.2c-0.1-0.5-0.7-0.8-1.2-0.7
		c-1.9,0.5-5.4,1.7-8.5,4.7C57.9,25.6,57.8,23.7,58.5,22z M49.1,30.8c-2.9-2.6-6.1-3.7-7.9-4.2c-0.5-0.1-1.1,0.2-1.2,0.7
		c-0.1,0.5,0.2,1.1,0.7,1.2c1.7,0.4,4.6,1.5,7.3,3.9c-1.1,1.1-2.9,1.8-4.6,1.8c-0.6,0-1.1-0.1-1.7-0.2c-1.2-0.4-2.3-1.3-3.5-2.5
		c-2.2-2-4.9-4.6-10.1-4.6c-0.3,0-0.5,0-0.8,0c2.5-2.1,6-4.3,11-4.3c0.8,0,1.6,0.1,2.4,0.2c4.1,0.6,6.8,1.9,8,4
		C49.4,28,49.5,29.4,49.1,30.8z"/>
	<path fill="#915E3C" d="M46.6,97.1v16.8h-3.3V78.2l0-0.1l0.6,1.7C45.7,85.4,46.6,91.2,46.6,97.1z"/>
	<path fill="#915E3C" d="M67.3,97.1v16.8H64V78.1l0,0l0.5,1.7C66.4,85.4,67.3,91.2,67.3,97.1z"/>
	<path fill="#915E3C" d="M88,97.1v16.8h-3.2V78.1l0.5,1.6C87,85.4,88,91.2,88,97.1z"/>
</g>
</svg>
