<?xml version="1.0" encoding="utf-8"?>
<!-- Generator: Adobe Illustrator 24.1.2, SVG Export Plug-In . SVG Version: 6.00 Build 0)  -->
<svg version="1.1" id="Layer_1" xmlns="http://www.w3.org/2000/svg" xmlns:xlink="http://www.w3.org/1999/xlink" x="0px" y="0px"
	 viewBox="0 0 128 128" style="enable-background:new 0 0 128 128;" xml:space="preserve">
<style type="text/css">
	.st0{fill:#5268AF;}
	.st1{fill:#7FA43C;}
	.st2{fill:#3C497E;}
	.st3{fill:#47588E;}
	.st4{fill:#5C76B7;}
	.st5{fill:#6577B7;}
	.st6{fill:#333333;}
</style>
<g>
	<path class="st0" d="M67.5,45.2c-3.2,1.4-5.8,3.7-8,6.2c-2.2,2.5-4.2,5.2-5.6,8.3c-1.4,2.9-2.3,6-2.8,9.3c3.3,0.2,6.5,1,9.5,2.3
		c3.5,1.5,6.7,3.9,9.2,6.7c2.2,2.4,3.9,5.2,5.2,8.2c1.8-5.6,5.7-10.7,10.9-13.9c5.3-3.3,11.8-4.6,18-3.5c-0.5-3.3-1.4-6.4-2.8-9.2
		c-1.5-3-3.4-5.7-5.8-8c-2.3-2.3-5.1-4.2-8.1-5.6c-3-1.3-6.3-2.2-9.7-2.5C74.2,43.2,70.7,43.8,67.5,45.2z M79,50.8
		c0.2-0.8,0.8-1.5,1.6-2c0.7-0.4,1.5-0.6,2.2-0.7c1.5-0.1,2.9,0.1,4.2,0.8c1.3,0.6,2.4,1.6,3,3c0.6,1.4,0.7,2.9,0.1,4.1
		c-0.6,1.1-1.8,2-3.2,2.5c-1.4,0.4-2.9,0.1-4.1-0.6c-1.2-0.8-2-1.9-2.7-3c-0.4-0.5-0.7-1.1-1-1.8C78.9,52.4,78.7,51.6,79,50.8z"/>
	<path class="st1" d="M33.9,53c2.4,0,4.7,0.1,7,0.5c1.2,0.2,2.3,0.4,3.4,0.8c1.1,0.3,2.2,0.6,3.3,1c1.7,0.6,3.3,1.1,4.9,1.8
		c1.3-2.8,3-5.4,5.3-7.4c2.7-2.5,6-4.1,9.3-5.4c3.3-1.3,6.8-2.1,10.4-2.4l2.7-0.1c0.9,0,1.7,0.1,2.6,0.2c-0.8-2.3-1.8-4.5-2.8-6.6
		c-1.3-2.4-2.9-4.7-4.6-6.9c-1.7-2.2-3.6-4.2-5.6-6.1c-2-1.9-4.1-3.6-6.4-5.2c-4.5-3.2-9.2-6-14.2-8.3c-4.6-2.2-9.4-4-14.2-5.4
		c-1.4,3.7-2.5,7.6-3.4,11.5c-1,4.3-1.8,8.7-2.2,13.2c-0.4,4.4-0.5,8.9-0.1,13.4c0.3,3.9,1.1,7.8,2.2,11.6
		C32.3,53.1,33.1,53,33.9,53z"/>
	<path class="st1" d="M28.5,77.8c2.7-2.8,5.9-5,9.5-6.5c3.6-1.5,7.5-2.3,11.3-2.3c0.4,0,0.9,0,1.3,0.1c-0.5-3.9,0.2-8,1.8-11.7
		c-1.6-0.6-3.3-1-5-1.4c-1.1-0.3-2.2-0.6-3.3-0.8c-1.1-0.1-2.3-0.2-3.4-0.3c-4.5-0.2-9,0.3-13.4,1.3c-4.4,1-8.7,2.5-12.8,4.3
		c-3.7,1.7-7.4,3.6-10.7,5.8c1.1,1.7,2.3,3.4,3.6,5c1.5,2,3.2,3.9,4.9,5.8c1.7,1.9,3.5,3.7,5.4,5.4c1.6,1.5,3.3,2.8,5.1,4.2
		C24.1,83.3,26.1,80.3,28.5,77.8z"/>
	<path class="st2" d="M80.8,54.2c0.8,0.8,2,1.1,3,1.4c1,0.3,2,0.6,3,1c0.5,0.2,1.1,0.3,1.6,0.2c0.6-0.1,1.1-0.4,1.3-0.9
		c0.2-0.5,0.1-1.1-0.2-1.6c-0.3-0.5-0.8-0.8-1.2-1.1c-0.5-0.3-1-0.5-1.4-0.7c-0.5-0.2-0.9-0.5-1.4-0.7c-0.9-0.4-1.9-0.7-2.8-0.8
		c-0.5,0-0.9,0-1.3,0.1c-0.4,0.1-0.8,0.2-1.1,0.5c-0.3,0.3-0.4,0.8-0.3,1.3C80.2,53.3,80.4,53.8,80.8,54.2z"/>
	<path class="st3" d="M51.2,76.4c-0.8-0.1-1.6,0.1-2.4,0.3c-0.8,0.2-1.5,0.6-2.2,0.9c-0.7,0.3-1.4,0.7-2,1.1
		c-1.3,0.8-2.5,1.7-3.4,2.9c-0.9,1.2-1.5,2.5-1.1,3.7c0.2,0.6,0.7,1.2,1.5,1.5c0.7,0.3,1.6,0.4,2.4,0.3c1.7-0.2,3.1-1.2,4.3-2.2
		c1.2-1,2.5-1.9,3.6-2.9c0.6-0.5,1.1-1.2,1.4-1.9c0.3-0.7,0.3-1.7-0.1-2.4C52.8,76.9,52,76.5,51.2,76.4z"/>
	<path class="st2" d="M108.6,98.8c-0.7,0.2-1.5,0.4-2.2,0.7c-1.4,0.6-2.8,1.3-3.9,2.3c-1,1-1.9,2.2-1.7,3.5c0.1,0.6,0.5,1.3,1.2,1.7
		c0.7,0.4,1.5,0.7,2.3,0.7c1.7,0.1,3.2-0.7,4.6-1.4c1.4-0.7,2.7-1.4,4.1-2.3c0.7-0.4,1.3-1,1.7-1.7c0.4-0.7,0.6-1.6,0.3-2.4
		c-0.3-0.8-1-1.3-1.8-1.6c-0.8-0.3-1.6-0.2-2.4-0.1C110,98.4,109.3,98.6,108.6,98.8z"/>
	<path class="st1" d="M122.3,64.6c1.4-3.8,2.2-7.8,2.7-11.9c0.4-4,0.4-8.1,0.1-12.2c-0.3-3.6-0.8-7.3-1.5-10.8
		c-2.8,0.4-5.7,1.1-8.6,1.9c-3.3,0.9-6.5,2-9.6,3.3c-3.1,1.3-6.1,2.9-9,4.8c-2.1,1.4-4.1,2.9-6,4.7c2.6,1.3,5,3,7.1,5
		c5,5.2,7.7,12.6,6.9,19.5c3.1,0.6,6.1,1.8,8.7,3.4c1.2,0.8,2.4,1.6,3.5,2.5c1.2-1.5,2.2-3.1,3.1-4.7
		C120.7,68.4,121.6,66.5,122.3,64.6z"/>
	<path class="st4" d="M104,71.3c-5.8-0.8-11.7,0.2-16.8,3c-5,2.7-9.2,7.1-11.8,12.4c1.5,3.8,2.3,7.8,2.3,11.8c0,3.2-0.5,6.4-1.5,9.5
		c1.5,2.6,3.4,4.9,5.6,6.8c2.2,2,4.7,3.6,7.4,4.7c5.4,2.3,11.4,2.7,16.9,1.3c5.6-1.4,10.6-4.7,14.2-9.2c1.8-2.3,3.2-4.9,4.1-7.6
		c0.9-2.8,1.4-5.7,1.4-8.7c0.1-5.9-2.2-11.9-6.3-16.3c-2-2.2-4.5-4-7.1-5.3C109.7,72.5,106.9,71.7,104,71.3z M115.3,99.9
		c0.6,1.7,0.1,3.7-0.9,5.4c-1,1.7-2.8,2.8-4.6,3.3c-1.9,0.5-3.8,0.3-5.6,0c-0.9-0.2-1.8-0.4-2.7-0.8c-0.8-0.4-1.7-1.1-2.2-2
		c-0.5-1-0.6-2.2-0.3-3.2c0.3-1,0.9-1.9,1.5-2.7c1.3-1.5,3-2.6,4.8-3.3c1.8-0.6,3.8-0.9,5.7-0.2C112.9,97,114.6,98.2,115.3,99.9z"/>
	<path class="st5" d="M74.9,88c-1.5-3.3-3.8-6.2-6.4-8.6C63.2,74.7,56.3,72,49.4,72c-6.9,0-13.9,2.7-18.9,7.7
		c-5,4.9-8.1,11.7-8.4,18.9c-0.1,3.6,0.4,7.2,1.8,10.6c1.3,3.4,3.4,6.5,6,9c5.2,5.1,12.5,7.6,19.5,7.4c7-0.2,13.9-2.9,19.2-7.7
		c2.6-2.4,4.9-5.3,6.4-8.6c1.5-3.3,2.3-7,2.3-10.6C77.3,95,76.5,91.3,74.9,88z M53.5,83c-0.7,1.8-2.3,3.2-4,4c-1.8,0.8-3.7,1-5.5,1
		c-0.9,0-1.8-0.1-2.7-0.3c-0.9-0.3-1.9-0.7-2.5-1.6c-0.6-0.9-0.9-2.1-0.8-3.1c0.1-1.1,0.5-2,1-2.9c1-1.7,2.5-3.1,4.2-4.1
		c1.7-0.9,3.6-1.5,5.6-1.2c1.9,0.3,3.8,1.2,4.7,2.8C54.3,79.1,54.2,81.2,53.5,83z"/>
	<path class="st6" d="M120.4,70.6c1.3-1.7,2.3-3.5,3.2-5.4c0.9-1.9,1.7-3.9,2.3-5.9c0.6-2,1-4.1,1.4-6.2c0.7-4.2,0.8-8.5,0.6-12.7
		c-0.3-4.2-0.8-8.4-1.9-12.6l-0.3-1.2l-1.2,0.2c-3.6,0.5-6.9,1.3-10.3,2.4c-1.7,0.5-3.3,1.1-4.9,1.8c-1.6,0.7-3.2,1.4-4.8,2.2
		c-1.6,0.8-3.1,1.6-4.6,2.6c-1.5,0.9-2.9,1.9-4.3,3.1c-2.1,1.7-3.9,3.5-5.6,5.6c-0.6-0.3-1.2-0.5-1.8-0.7c-0.9-0.3-1.7-0.6-2.6-0.8
		c-0.9-0.2-1.8-0.4-2.7-0.5c0,0,0,0,0,0c-0.6-2.3-1.4-4.7-2.3-6.9c-1.1-2.6-2.5-5.1-4.1-7.4c-3.2-4.7-7.2-8.8-11.7-12.3
		c-4.5-3.5-9.3-6.5-14.4-9c-5.1-2.5-10.3-4.6-15.9-6L33.3,0l-0.4,1.2C31.2,5.5,30,9.9,29,14.4c-0.5,2.2-0.9,4.5-1.2,6.8
		c-0.3,2.3-0.5,4.6-0.6,6.8c-0.1,2.3-0.1,4.6,0,6.9c0.1,2.3,0.3,4.6,0.7,6.8c0.6,3.9,1.7,7.8,3.2,11.5c-0.3,0-0.6,0-0.9,0.1
		c-1.2,0.1-2.3,0.2-3.5,0.5c-4.6,0.8-9.2,2.2-13.5,4.1c-2.2,0.9-4.3,1.9-6.3,3.1c-2.1,1.2-4,2.3-6,3.8L0,65.4l0.7,1.1
		c1.5,2.2,3.1,4.3,4.7,6.3c1.7,2,3.5,3.8,5.4,5.6c1.9,1.8,3.9,3.4,6.1,4.9c1.8,1.3,3.8,2.4,5.7,3.4c-1.6,3.8-2.3,7.9-2.2,11.9
		c0.2,7.6,3.5,14.9,8.7,20.2c2.6,2.7,5.7,4.9,9.1,6.5c3.4,1.6,7.2,2.5,11.1,2.6c3.8,0.1,7.7-0.6,11.2-2.2c3.5-1.5,6.7-3.8,9.3-6.6
		c2.8-3.1,4.8-6.7,6.1-10.6c1.1,2.7,2.7,5.2,4.7,7.4c2.1,2.3,4.7,4.3,7.5,5.7c2.8,1.5,5.9,2.4,9.1,2.8c0.8,0.1,1.6,0.1,2.4,0.2
		c0.8,0,1.6,0,2.4-0.1c0.8,0,1.6-0.1,2.4-0.3l1.2-0.2l1.2-0.3c3.1-0.8,6.1-2.1,8.8-3.9c2.6-1.8,5-4.1,6.8-6.7
		c1.9-2.6,3.3-5.5,4.2-8.6c0.8-3.1,1.1-6.3,0.8-9.4c-0.5-6.3-3.1-12.2-7.2-16.9c-1.1-1.3-2.3-2.4-3.5-3.5
		C118.1,73.6,119.3,72.2,120.4,70.6z M87.3,46c3,1.4,5.7,3.3,8.1,5.6c2.4,2.3,4.3,5,5.8,8c1.4,2.8,2.3,5.9,2.8,9.2
		c-6.2-1.1-12.7,0.3-18,3.5c-5.2,3.2-9.1,8.2-10.9,13.9c-1.3-3-3-5.8-5.2-8.2c-2.5-2.8-5.7-5.2-9.2-6.7c-3-1.3-6.2-2.1-9.5-2.3
		c0.6-3.3,1.5-6.4,2.8-9.3c1.4-3,3.4-5.8,5.6-8.3c2.2-2.5,4.8-4.8,8-6.2c3.1-1.4,6.6-1.9,10-1.7C81,43.8,84.2,44.7,87.3,46z
		 M29.3,41.5c-0.4-4.5-0.3-8.9,0.1-13.4c0.4-4.4,1.2-8.8,2.2-13.2c0.9-3.9,2.1-7.8,3.4-11.5c4.8,1.4,9.6,3.3,14.2,5.4
		c5,2.4,9.8,5.1,14.2,8.3c2.2,1.6,4.4,3.4,6.4,5.2c2,1.9,3.9,3.9,5.6,6.1c1.7,2.2,3.2,4.5,4.6,6.9c1.1,2.1,2,4.4,2.8,6.6
		c-0.9-0.1-1.7-0.2-2.6-0.2l-2.7,0.1c-3.6,0.3-7.1,1.1-10.4,2.4c-3.3,1.3-6.6,2.9-9.3,5.4c-2.2,2.1-4,4.6-5.3,7.4
		c-1.6-0.7-3.3-1.3-4.9-1.8c-1.1-0.4-2.2-0.7-3.3-1c-1.1-0.3-2.3-0.6-3.4-0.8c-2.3-0.4-4.7-0.5-7-0.5c-0.8,0-1.6,0.1-2.4,0.1
		C30.4,49.3,29.6,45.5,29.3,41.5z M17.6,82.3c-1.9-1.7-3.7-3.5-5.4-5.4c-1.7-1.9-3.4-3.8-4.9-5.8c-1.3-1.6-2.5-3.3-3.6-5
		c3.4-2.2,7-4.1,10.7-5.8c4.1-1.8,8.4-3.3,12.8-4.3c4.4-1,8.9-1.6,13.4-1.3c1.1,0.1,2.3,0.2,3.4,0.3c1.1,0.2,2.2,0.5,3.3,0.8
		c1.7,0.5,3.4,0.9,5,1.4c-1.6,3.7-2.3,7.8-1.8,11.7c-0.4,0-0.9,0-1.3-0.1c-3.9,0-7.8,0.8-11.3,2.3c-3.6,1.5-6.8,3.8-9.5,6.5
		c-2.5,2.5-4.4,5.5-5.8,8.8C21,85.2,19.3,83.8,17.6,82.3z M75,109.3c-1.5,3.3-3.8,6.2-6.4,8.6c-5.3,4.8-12.2,7.5-19.2,7.7
		c-7,0.2-14.3-2.3-19.5-7.4c-2.6-2.5-4.6-5.6-6-9c-1.3-3.4-1.9-7-1.8-10.6c0.3-7.2,3.4-14,8.4-18.9c5-4.9,11.9-7.6,18.9-7.7
		c7-0.1,13.9,2.6,19.2,7.4c2.6,2.4,4.9,5.3,6.4,8.6c1.5,3.3,2.3,7,2.4,10.6C77.3,102.3,76.5,106,75,109.3z M119.5,79.1
		c4.1,4.4,6.4,10.4,6.3,16.3c0,3-0.5,5.9-1.4,8.7c-1,2.8-2.4,5.3-4.1,7.6c-3.5,4.6-8.6,7.9-14.2,9.2c-5.5,1.5-11.6,1-16.9-1.3
		c-2.7-1.2-5.2-2.7-7.4-4.7c-2.2-1.9-4-4.2-5.6-6.8c1-3.1,1.5-6.3,1.5-9.5c0-4-0.8-8.1-2.3-11.8c2.7-5.3,6.8-9.7,11.8-12.4
		c5.1-2.8,11.1-3.8,16.8-3c2.9,0.4,5.7,1.2,8.4,2.4C115.1,75,117.5,76.9,119.5,79.1z M116.6,74.9c-1.1-0.9-2.2-1.8-3.5-2.5
		c-2.7-1.6-5.6-2.8-8.7-3.4c0.8-6.9-1.9-14.3-6.9-19.5c-2-2.1-4.5-3.8-7.1-5c1.9-1.7,3.9-3.3,6-4.7c2.8-1.9,5.9-3.4,9-4.8
		c3.1-1.3,6.3-2.4,9.6-3.3c2.8-0.8,5.7-1.4,8.6-1.9c0.8,3.5,1.3,7.2,1.5,10.8c0.3,4.1,0.3,8.2-0.1,12.2c-0.4,4-1.2,8.1-2.7,11.9
		c-0.7,1.9-1.5,3.8-2.6,5.6C118.8,71.8,117.8,73.4,116.6,74.9z"/>
	<path class="st6" d="M80.1,54.8c0.7,1.1,1.6,2.2,2.7,3c1.2,0.7,2.7,1.1,4.1,0.6c1.4-0.4,2.6-1.3,3.2-2.5c0.5-1.2,0.4-2.7-0.1-4.1
		c-0.6-1.4-1.7-2.4-3-3c-1.3-0.6-2.7-0.9-4.2-0.8c-0.7,0.1-1.5,0.3-2.2,0.7c-0.7,0.4-1.3,1.1-1.6,2c-0.2,0.8-0.1,1.6,0.2,2.3
		C79.4,53.7,79.7,54.2,80.1,54.8z M80.4,51.4c0.3-0.3,0.7-0.4,1.1-0.5c0.4-0.1,0.9-0.1,1.3-0.1c1,0.1,1.9,0.5,2.8,0.8
		c0.5,0.2,0.9,0.4,1.4,0.7c0.5,0.2,0.9,0.5,1.4,0.7c0.5,0.3,0.9,0.6,1.2,1.1c0.3,0.5,0.4,1.1,0.2,1.6c-0.2,0.5-0.8,0.9-1.3,0.9
		c-0.6,0.1-1.1-0.1-1.6-0.2c-1-0.4-1.9-0.7-3-1c-1-0.3-2.2-0.5-3-1.4c-0.4-0.4-0.7-0.9-0.8-1.4C80,52.2,80.1,51.7,80.4,51.4z"/>
	<path class="st6" d="M48.7,74.7c-2-0.3-3.9,0.3-5.6,1.2c-1.7,0.9-3.2,2.3-4.2,4.1c-0.5,0.9-0.9,1.8-1,2.9c-0.1,1.1,0.2,2.3,0.8,3.1
		c0.7,0.9,1.6,1.4,2.5,1.6c0.9,0.2,1.8,0.3,2.7,0.3c1.8,0,3.7-0.2,5.5-1c1.7-0.8,3.2-2.2,4-4c0.7-1.8,0.9-3.9,0-5.5
		C52.6,75.9,50.7,75,48.7,74.7z M53.3,80c-0.3,0.8-0.9,1.4-1.4,1.9c-1.2,1.1-2.4,2-3.6,2.9c-1.2,0.9-2.7,2-4.3,2.2
		c-0.8,0.1-1.7,0-2.4-0.3c-0.7-0.3-1.3-0.9-1.5-1.5c-0.4-1.3,0.3-2.6,1.1-3.7c0.9-1.2,2.2-2.1,3.4-2.9c0.7-0.4,1.3-0.8,2-1.1
		c0.7-0.3,1.4-0.6,2.2-0.9c0.7-0.2,1.6-0.4,2.4-0.3c0.8,0.1,1.6,0.5,2,1.3C53.6,78.3,53.6,79.3,53.3,80z"/>
	<path class="st6" d="M105.3,96.6c-1.8,0.6-3.5,1.8-4.8,3.3c-0.6,0.8-1.2,1.7-1.5,2.7c-0.3,1-0.2,2.3,0.3,3.2c0.5,1,1.4,1.6,2.2,2
		c0.9,0.4,1.8,0.6,2.7,0.8c1.8,0.3,3.7,0.4,5.6,0c1.8-0.5,3.6-1.6,4.6-3.3c1-1.7,1.5-3.7,0.9-5.4c-0.6-1.7-2.4-2.9-4.2-3.5
		C109.2,95.7,107.1,96,105.3,96.6z M113.2,98.4c0.8,0.2,1.5,0.8,1.8,1.6c0.3,0.8,0.1,1.7-0.3,2.4c-0.4,0.7-1.1,1.2-1.7,1.7
		c-1.3,0.9-2.7,1.5-4.1,2.3c-1.4,0.7-3,1.5-4.6,1.4c-0.8,0-1.6-0.3-2.3-0.7c-0.7-0.4-1.1-1.1-1.2-1.7c-0.1-1.3,0.7-2.5,1.7-3.5
		c1.1-1,2.5-1.7,3.9-2.3c0.7-0.3,1.4-0.5,2.2-0.7c0.7-0.2,1.5-0.4,2.3-0.5C111.6,98.2,112.4,98.2,113.2,98.4z"/>
</g>
</svg>
