<?xml version="1.0" encoding="utf-8"?>
<!-- Generator: Adobe Illustrator 18.1.0, SVG Export Plug-In . SVG Version: 6.00 Build 0)  -->
<svg version="1.1" baseProfile="tiny" id="Layer_1" xmlns="http://www.w3.org/2000/svg" xmlns:xlink="http://www.w3.org/1999/xlink"
	 x="0px" y="0px" viewBox="0 0 128 128" 
width="128" height="128"
xml:space="preserve">
<g>
	<path fill="#67666D" d="M74,94.1l9.1,6.2c0.4,0.3,0.5,0.8,0.4,1.2c-0.4,1-0.1,2.1,0.8,2.7c1,0.7,2.4,0.4,3.1-0.6
		c0.3-0.5,0.5-1.1,0.4-1.7c-0.1-0.5,0.3-1,0.8-1.1c0.6-0.1,1.1-0.4,1.4-0.9c0.3-0.5,0.5-1.1,0.4-1.7c-0.1-0.6-0.4-1.1-0.9-1.4
		c-0.9-0.6-2.1-0.5-2.8,0.2c-0.3,0.3-0.8,0.4-1.2,0.1l-8.4-5.6C76,92.5,75.1,93.4,74,94.1z"/>
	<path fill="#62B257" d="M64.9,115.1V126H35.2c-3,0-5.4-2.4-5.4-5.4v-5.6H64.9z"/>
	<path fill="#67666D" d="M85.3,73.2c0.4-0.3,0.9-0.2,1.2,0.1c0.8,0.7,2,0.8,2.8,0.2c1-0.7,1.3-2.1,0.6-3.1c-0.3-0.5-0.8-0.8-1.4-0.9
		c-0.5-0.1-0.9-0.6-0.8-1.1c0.1-0.6,0-1.2-0.4-1.7c-0.3-0.5-0.9-0.8-1.4-0.9c-0.6-0.1-1.2,0-1.7,0.4c-0.9,0.6-1.2,1.7-0.8,2.7
		c0.2,0.4,0,0.9-0.4,1.2l-4.5,3c0.7,1.1,1.2,2.3,1.5,3.6L85.3,73.2z"/>
	<path fill="#EFC24C" d="M70.8,82.7c1.4,0,2.5-1.1,2.5-2.5c0-1.4-1.1-2.5-2.5-2.5c-1.4,0-2.5,1.1-2.5,2.5
		C68.3,81.6,69.4,82.7,70.8,82.7z"/>
	<path fill="#67666D" d="M46.6,70c-0.4-0.3-0.5-0.8-0.4-1.2c0.4-1,0.1-2.1-0.8-2.7c-0.5-0.3-1.1-0.5-1.7-0.4
		c-0.6,0.1-1.1,0.4-1.4,0.9c-0.3,0.5-0.5,1.1-0.4,1.7c0.1,0.5-0.3,1-0.8,1.1c-0.6,0.1-1.1,0.4-1.4,0.9c-0.7,1-0.4,2.4,0.6,3.1
		c0.9,0.6,2.1,0.5,2.8-0.2c0.3-0.3,0.9-0.4,1.2-0.1l5.1,3.4c0.4-1.3,0.9-2.5,1.6-3.6L46.6,70z"/>
	<path fill="#EFC24C" d="M64.9,2v9.7h-8.6L54,3.2c0-0.3,0.1-0.6,0.3-0.9C54.5,2.1,54.8,2,55.2,2H64.9z"/>
	<rect x="51" y="13.6" fill="#62B257" width="13.9" height="7.5"/>
	<path fill="#62B257" d="M64.9,23.1V55h-34c2.2-6.1,7.5-10.3,12.7-14.5c6-4.8,12.2-9.8,12.7-17.4H64.9z"/>
	<path fill="#67666D" d="M57.2,92.8c0.3,0.2,0.5,0.5,0.5,0.8v7.4c0,0.1,0.1,0.3,0.3,0.3h3.4v-4.6c0-0.5,0.4-1,1-1s1,0.4,1,1v4.6h3
		v-4.6c0-0.5,0.4-1,1-1c0.5,0,1,0.4,1,1v4.6h3.4c0.1,0,0.3-0.1,0.3-0.3v-7.4c0-0.3,0.2-0.6,0.5-0.8c4-2.6,6.4-7,6.4-11.8
		c0-7.7-6.3-14-14-14c-0.2,0-0.4,0-0.6,0c-7.3,0.3-13.2,6.2-13.5,13.4C50.6,85.5,53,90.1,57.2,92.8z M70.8,75.7c2.5,0,4.5,2,4.5,4.5
		s-2,4.5-4.5,4.5c-2.5,0-4.5-2-4.5-4.5S68.4,75.7,70.8,75.7z M58.8,75.7c2.5,0,4.5,2,4.5,4.5s-2,4.5-4.5,4.5c-2.5,0-4.5-2-4.5-4.5
		S56.3,75.7,58.8,75.7z"/>
	<ellipse fill="#EFC24C" cx="58.8" cy="80.2" rx="2.5" ry="2.5"/>
	<path fill="#67666D" d="M43.2,97.1c-0.8-0.7-2-0.8-2.8-0.2c-0.5,0.3-0.8,0.9-0.9,1.4c-0.1,0.6,0,1.2,0.4,1.7
		c0.3,0.5,0.8,0.8,1.4,0.9c0.5,0.1,0.9,0.6,0.8,1.1c-0.1,0.6,0,1.2,0.4,1.7c0.7,1,2.1,1.3,3.1,0.6c0.9-0.6,1.2-1.7,0.8-2.7
		c-0.2-0.4,0-0.9,0.4-1.2l9.1-6.2c-1.1-0.8-2.1-1.7-3-2.6l-8.3,5.7C44.1,97.4,43.5,97.4,43.2,97.1z"/>
	<path fill="#EFC24C" d="M52.2,71.4c2.8-3.7,7.2-6.1,12.1-6.3c0.2,0,0.5,0,0.7,0v-8.1H30.3c-0.3,1.3-0.5,2.7-0.5,4.2v52h35v-9.9H58
		c-1.2,0-2.2-1-2.2-2.2v-4.5l-7.4,5.1c0.3,1.6-0.3,3.4-1.8,4.3c-0.7,0.5-1.6,0.7-2.4,0.7c-1.4,0-2.7-0.6-3.5-1.8
		c-0.5-0.7-0.7-1.4-0.7-2.2c-0.7-0.3-1.4-0.8-1.8-1.5c-1.3-1.9-0.8-4.6,1.1-5.9c1.4-1,3.3-1,4.7-0.1l7.6-5.2
		c-1.9-2.8-2.8-6.1-2.7-9.6c0-0.6,0.1-1.2,0.2-1.7l-5.1-3.5c-1.4,0.9-3.3,0.9-4.7-0.1c-1.9-1.3-2.4-3.9-1.1-5.9
		c0.5-0.7,1.1-1.2,1.8-1.5c0-0.8,0.3-1.6,0.7-2.2c0.6-0.9,1.6-1.6,2.7-1.8s2.2,0,3.2,0.7c1.4,1,2.1,2.7,1.8,4.3L52.2,71.4z"/>
	<path fill="#2D2D2D" d="M42.4,39c-7.1,5.7-14.5,11.6-14.5,22.2v59.5c0,4,3.3,7.3,7.3,7.3h59.3c4,0,7.3-3.3,7.3-7.3V61.1
		c0-10.5-7.3-16.4-14.4-22c-5.9-4.7-11.5-9.2-12-16h4.3c0.5,0,1-0.4,1-1v-9.5c0-0.5-0.4-1-1-1h-3.9l1.8-8.1c0.1-0.9-0.1-1.8-0.7-2.5
		C76.3,0.4,75.5,0,74.6,0H55.2c-0.9,0-1.8,0.4-2.4,1.1c-0.6,0.7-0.8,1.6-0.7,2.5c0,0,0,0.1,0,0.1l2.1,7.9H50c-0.5,0-1,0.4-1,1v9.5
		c0,0.5,0.4,1,1,1h4.3C53.8,29.8,48.2,34.3,42.4,39z M99.9,120.7c0,3-2.4,5.4-5.4,5.4H35.2c-3,0-5.4-2.4-5.4-5.4v-5.6h70.1V120.7z
		 M99.9,61.1v52H29.8v-52c0-1.5,0.2-2.9,0.5-4.2h69.1C99.7,58.3,99.9,59.6,99.9,61.1z M54,3.2c0-0.3,0.1-0.6,0.3-0.9
		C54.5,2.1,54.8,2,55.2,2h19.4c0.3,0,0.6,0.1,0.9,0.4c0.2,0.3,0.3,0.6,0.3,0.8l-1.9,8.4H56.3L54,3.2z M51,21.1v-7.5h4.5c0,0,0,0,0,0
		c0,0,0,0,0,0h23.2v7.5H51z M56.3,23.1h17.2c0.5,7.8,6.7,12.8,12.8,17.6C91.4,44.8,96.6,49,98.8,55H30.9c2.2-6.1,7.5-10.3,12.7-14.5
		C49.6,35.7,55.8,30.7,56.3,23.1z"/>
	<path fill="#2D2D2D" d="M70.8,84.7c2.5,0,4.5-2,4.5-4.5s-2-4.5-4.5-4.5c-2.5,0-4.5,2-4.5,4.5S68.4,84.7,70.8,84.7z M70.8,77.7
		c1.4,0,2.5,1.1,2.5,2.5c0,1.4-1.1,2.5-2.5,2.5c-1.4,0-2.5-1.1-2.5-2.5C68.3,78.8,69.4,77.7,70.8,77.7z"/>
	<path fill="#2D2D2D" d="M58.8,84.7c2.5,0,4.5-2,4.5-4.5s-2-4.5-4.5-4.5c-2.5,0-4.5,2-4.5,4.5S56.3,84.7,58.8,84.7z M58.8,77.7
		c1.4,0,2.5,1.1,2.5,2.5c0,1.4-1.1,2.5-2.5,2.5c-1.4,0-2.5-1.1-2.5-2.5C56.3,78.8,57.4,77.7,58.8,77.7z"/>
	<path fill="#2D2D2D" d="M39.2,95.2c-1.9,1.3-2.4,3.9-1.1,5.9c0.5,0.7,1.1,1.2,1.8,1.5c0,0.8,0.3,1.6,0.7,2.2
		c0.8,1.2,2.1,1.8,3.5,1.8c0.8,0,1.6-0.2,2.4-0.7c1.4-1,2.1-2.7,1.8-4.3l7.4-5v4.5c0,1.2,1,2.2,2.2,2.2h13.8c1.2,0,2.2-1,2.2-2.2
		v-4.5l7.5,5.1c-0.3,1.6,0.3,3.4,1.8,4.3c0.7,0.5,1.5,0.7,2.4,0.7c0.3,0,0.5,0,0.8-0.1c1.1-0.2,2.1-0.8,2.7-1.8
		c0.5-0.7,0.7-1.4,0.7-2.2c0.7-0.3,1.4-0.8,1.8-1.5c0.6-0.9,0.9-2.1,0.7-3.2c-0.2-1.1-0.8-2.1-1.8-2.7c-1.4-1-3.3-1-4.7-0.1L78.1,90
		c1.8-2.6,2.7-5.7,2.7-8.9c0-0.8-0.1-1.6-0.2-2.4c0.1,0,0.2-0.1,0.3-0.1l4.9-3.3c1.4,0.9,3.3,0.9,4.7-0.1c1.9-1.3,2.4-3.9,1.1-5.9
		c-0.5-0.7-1.1-1.2-1.8-1.5c0-0.8-0.3-1.6-0.7-2.2c-0.6-0.9-1.6-1.6-2.7-1.8c-1.1-0.2-2.2,0-3.2,0.7c-1.4,1-2.1,2.7-1.8,4.3
		l-3.9,2.6c-3-4-7.9-6.5-13.3-6.3c-4.9,0.2-9.2,2.6-12.1,6.3l-3.8-2.6c0.3-1.6-0.3-3.4-1.8-4.3c-0.9-0.6-2.1-0.9-3.2-0.7
		c-1.1,0.2-2.1,0.8-2.7,1.8C40.2,66.2,40,67,40,67.8c-0.7,0.3-1.4,0.8-1.8,1.5c-1.3,1.9-0.8,4.5,1.1,5.9c1.4,1,3.3,1,4.7,0.1
		l5.1,3.5c-0.1,0.6-0.1,1.1-0.2,1.7c-0.1,3.5,0.8,6.8,2.7,9.6l-7.6,5.2C42.5,94.2,40.7,94.2,39.2,95.2z M85.3,97.2
		c0.4,0.3,0.9,0.2,1.2-0.1c0.8-0.7,2-0.8,2.8-0.2c0.5,0.3,0.8,0.9,0.9,1.4c0.1,0.6,0,1.2-0.4,1.7c-0.3,0.5-0.8,0.8-1.4,0.9
		c-0.5,0.1-0.9,0.6-0.8,1.1c0.1,0.6,0,1.2-0.4,1.7c-0.7,1-2.1,1.3-3.1,0.6c-0.9-0.6-1.2-1.7-0.8-2.7c0.2-0.4,0-0.9-0.4-1.2L74,94.1
		c1.1-0.8,2-1.6,2.9-2.6L85.3,97.2z M83.1,70c0.4-0.3,0.5-0.8,0.4-1.2c-0.4-1-0.1-2.1,0.8-2.7c0.5-0.3,1.1-0.5,1.7-0.4
		c0.6,0.1,1.1,0.4,1.4,0.9c0.3,0.5,0.5,1.1,0.4,1.7c-0.1,0.5,0.3,1,0.8,1.1c0.6,0.1,1.1,0.4,1.4,0.9c0.7,1,0.4,2.4-0.6,3.1
		c-0.9,0.6-2.1,0.5-2.8-0.2c-0.3-0.3-0.9-0.4-1.2-0.1l-5.1,3.4c-0.4-1.3-0.9-2.5-1.5-3.6L83.1,70z M44.4,73.2
		c-0.4-0.3-0.9-0.2-1.2,0.1c-0.8,0.7-2,0.8-2.8,0.2c-1-0.7-1.3-2.1-0.6-3.1c0.3-0.5,0.8-0.8,1.4-0.9c0.5-0.1,0.9-0.6,0.8-1.1
		c-0.1-0.6,0-1.2,0.4-1.7c0.3-0.5,0.9-0.8,1.4-0.9c0.6-0.1,1.2,0,1.7,0.4c0.9,0.6,1.2,1.7,0.8,2.7c-0.2,0.4,0,0.9,0.4,1.2l4.4,3
		c-0.7,1.1-1.2,2.3-1.6,3.6L44.4,73.2z M50.8,80.5c0.3-7.2,6.2-13.1,13.5-13.4c0.2,0,0.4,0,0.6,0c7.7,0,14,6.3,14,14
		c0,4.8-2.4,9.2-6.4,11.8C72.2,93,72,93.3,72,93.6v7.4c0,0.1-0.1,0.3-0.3,0.3h-3.4v-4.6c0-0.5-0.4-1-1-1c-0.5,0-1,0.4-1,1v4.6h-3
		v-4.6c0-0.5-0.4-1-1-1s-1,0.4-1,1v4.6H58c-0.1,0-0.3-0.1-0.3-0.3v-7.4c0-0.3-0.2-0.6-0.5-0.8C53,90.1,50.6,85.5,50.8,80.5z
		 M52.8,91.5c0.9,1,1.9,1.9,3,2.6l-9.1,6.2c-0.4,0.3-0.5,0.8-0.4,1.2c0.4,1,0.1,2.1-0.8,2.7c-1,0.7-2.4,0.4-3.1-0.6
		c-0.3-0.5-0.5-1.1-0.4-1.7c0.1-0.5-0.3-1-0.8-1.1c-0.6-0.1-1.1-0.4-1.4-0.9c-0.3-0.5-0.5-1.1-0.4-1.7c0.1-0.6,0.4-1.1,0.9-1.4
		c0.9-0.6,2.1-0.5,2.8,0.2c0.3,0.3,0.9,0.4,1.2,0.1L52.8,91.5z"/>
	<path fill="#54A74B" d="M99.9,115.1v5.6c0,3-2.4,5.4-5.4,5.4H64.9v-10.9H99.9z"/>
	<path fill="#54A74B" d="M98.8,55H64.9V23.1h8.6c0.5,7.8,6.7,12.8,12.8,17.6C91.4,44.8,96.6,49,98.8,55z"/>
	<rect x="64.9" y="13.6" fill="#54A74B" width="13.8" height="7.5"/>
	<path fill="#F4A742" d="M99.9,61.1v52h-35v-9.9h6.8c1.2,0,2.2-1,2.2-2.2v-4.5l7.5,5.1c-0.3,1.6,0.3,3.4,1.8,4.3
		c0.7,0.5,1.5,0.7,2.4,0.7c0.3,0,0.5,0,0.8-0.1c1.1-0.2,2.1-0.8,2.7-1.8c0.5-0.7,0.7-1.4,0.7-2.2c0.7-0.3,1.4-0.8,1.8-1.5
		c0.6-0.9,0.9-2.1,0.7-3.1c-0.2-1.1-0.8-2.1-1.8-2.7c-1.4-1-3.3-1-4.7-0.1L78.1,90c1.8-2.6,2.7-5.7,2.7-8.9c0-0.8-0.1-1.6-0.2-2.4
		c0.1,0,0.2-0.1,0.3-0.1l4.9-3.3c1.4,0.9,3.3,0.9,4.7-0.1c1.9-1.3,2.4-3.9,1.1-5.9c-0.5-0.7-1.1-1.2-1.8-1.5c0-0.8-0.3-1.6-0.7-2.2
		c-0.6-0.9-1.6-1.6-2.7-1.8c-1.1-0.2-2.2,0-3.2,0.7c-1.4,1-2.1,2.7-1.8,4.3l-3.9,2.6c-2.9-3.8-7.5-6.3-12.6-6.3v-8.1h34.5
		C99.7,58.3,99.9,59.6,99.9,61.1z"/>
	<path fill="#F4A742" d="M75.7,3.2l-1.9,8.4h-8.9V2h9.7c0.3,0,0.6,0.1,0.9,0.4C75.7,2.6,75.7,2.9,75.7,3.2z"/>
</g>
</svg>
