<?xml version="1.0" encoding="utf-8"?>
<!-- Generator: Adobe Illustrator 23.0.0, SVG Export Plug-In . SVG Version: 6.00 Build 0)  -->
<svg version="1.1" id="Layer_1" xmlns="http://www.w3.org/2000/svg" xmlns:xlink="http://www.w3.org/1999/xlink" x="0px" y="0px"
	 viewBox="0 0 128 128" 
width="128" height="128"
style="enable-background:new 0 0 128 128;" xml:space="preserve">
<style type="text/css">
	.st0{fill:#2D2D2D;}
	.st1{fill:#E3E3DC;}
	.st2{fill:#826947;}
	.st3{fill:#6E593C;}
	.st4{fill:#F4F4ED;}
	.st5{fill:#873E2A;}
	.st6{fill:#434547;}
	.st7{fill:#4F5254;}
	.st8{fill:#EE860A;}
</style>
<g>
	<path class="st0" d="M46,20c-0.2,0.6-0.8,1.5-1.6,1c-0.4-0.2,0.3-0.4,0.3-1.3c0-0.4,0-0.8,0.6-0.7C45.9,19.2,46.1,19.6,46,20z"/>
	<path class="st0" d="M42.6,21.1c-0.8,0.4-1.5-0.4-1.6-1c-0.1-0.4,0.2-0.9,0.6-0.9c0.7-0.1,0.6,0.3,0.6,0.7
		C42.2,20.6,43,20.8,42.6,21.1z"/>
	<path class="st1" d="M120.4,79.1c-0.2,0.7-0.8,1.3-1.5,1.5c-0.2,0.1-0.4,0.1-0.5,0.1l-0.3,0l-0.1,0l-0.1,0l0,0l-0.1,0l-1.4,0
		c-0.9,0.1-1.9,0.1-2.8,0.3c-1.9,0.4-3.7,1-5.3,1.9c-3.4,1.8-6.1,4.6-8.4,7.4c-2.3,2.9-4.4,6-6.4,9.1c-2,3.1-3.9,6.2-6.1,9
		c-2.2,2.9-4.6,5.6-7.5,7.5c-3,1.9-6.4,3.2-9.9,4.1c-1.7,0.4-3.5,0.8-5.3,1.1c-1.6,0.2-3,0.3-4.4-0.1c0.3-0.6,0.3-0.6,0.5-1.1
		c0.6-1.4,1.1-2.7,1.7-4.1c0.3-0.9,0.5-1,0.8-1.9c1.2-0.7,2.6-0.8,3.7-1c1.5-0.2,2.9-0.4,4.3-0.8c1.4-0.4,2.8-0.9,4.2-1.6
		c0.7-0.3,1.3-0.7,1.9-1.2c0.6-0.4,1.2-0.9,1.8-1.4c2.2-2,4.2-4.2,5.9-6.6c1.8-2.4,3.4-4.8,5-7.2c1.6-2.4,3.2-4.8,4.9-7.2
		c1.7-2.3,3.6-4.5,5.7-6.4c1.1-0.9,2.2-1.8,3.5-2.6c0.6-0.4,1.2-0.7,1.9-1.1c0.7-0.3,1.3-0.6,2-0.8c2.7-1,5.6-1.4,8.4-1.4h0l1.4-0.1
		c0.4,0,0.8,0,1.2,0.2c0.7,0.3,1.3,1,1.5,1.7c0,0.2,0.1,0.4,0.1,0.6v0.7C120.5,78.4,120.5,78.7,120.4,79.1z"/>
	<path class="st1" d="M44.5,115.7c-0.4,0.8-2.7,6.5-2.7,6.5c-2.4-0.3-4.9-0.3-7.2-0.7c-2.5-0.3-4.9-0.7-7.3-1.2
		c-2.4-0.4-4.9-0.8-7.2-1.7c-2.3-0.9-4.5-2.2-6.3-3.9c-1.8-1.7-3.2-3.7-3.9-5.9c-0.7-2.2-0.7-4.6,0-6.9c0.6-2.3,1.7-4.5,3-6.6
		c0.3-0.5,0.7-1,1-1.5c0.4-0.5,0.7-1,1.1-1.5c0.6-0.8,1.2-1.5,1.8-2.3c0.7,0.4,1.4,0.9,2.2,1.3c1.7,1.3,3.6,2.5,5.4,3.6l0,0
		c-3.2,1.4-5.5,4.8-5.6,8.5c0,0.5,0,1,0.1,1.4c0.1,0.5,0.1,0.9,0.2,1.4c0.2,1,0.7,1.8,1.3,2.6c1.1,1.5,2.6,2.7,4.1,3.7
		c0.8,0.5,1.6,1,2.4,1.3c0.8,0.4,1.7,0.7,2.6,1c1.7,0.6,3.5,1,5.4,1.2c1.8,0.2,3.7,0.2,5.5,0.1C41.7,115.9,43,116.1,44.5,115.7z"/>
	<path class="st2" d="M67.5,99.8c-2.6,5-4.9,10.1-7,15.3c-0.6,1.4-1.1,2.7-1.6,4.1c-0.3,0.7-0.5,1.3-0.8,1.9
		c-0.3,0.6-0.7,1.2-1.1,1.7c-0.9,1.1-1.9,2-3.1,2.7c-1.2,0.7-2.5,1.2-3.9,1.4c-0.7,0.1-1.4,0.2-2.2,0.2c-0.7,0-1.5,0.1-2.2,0.1
		c-0.4,0-0.7,0-1.1,0l-0.5,0c-0.2,0-0.3,0-0.5,0c-0.6-0.1-1.2-0.6-1.5-1.1c-0.3-0.6-0.3-1.3-0.1-1.9c0.1-0.3,0.3-0.6,0.5-0.9l0.5-1
		c0.7-1.3,1.5-2.6,2.2-3.9c1.4-2.6,2.6-5.3,3.8-8c1.2-2.7,3.1-5.7,4.1-8.5C56.9,100.7,62,99.5,67.5,99.8z"/>
	<path class="st2" d="M83.9,54.7c-0.7,1.1-1.2,2.3-1.8,3.4c-0.7,1.5-1.4,3-1.9,4.6c-0.5,1.6-0.8,3.3-1.4,4.8c-0.5,1.6-1.2,3.1-2,4.6
		c-0.8,1.5-1.5,3-2.2,4.5c-0.7,1.5-1.3,3.1-1.9,4.6c-1.1,3-2.6,5.7-3.2,8.8c-0.7-0.3-1-0.3-1.9-0.5c-2.2-0.3-4.2-1.7-4.2-1.7
		c-0.2-0.1-0.3-0.2-0.4-0.3c0.2-0.4,0.3-0.7,0.5-1.1c0.6-1.3,1.1-2.7,1.5-4.1c0.4-1.4,0.8-2.7,1.1-4.1c0,0,0,0,0,0
		c0.4-1.3,0.5-2.8,0.6-4.3c0-0.1,0.1-0.1,0.1-0.2c0.7-1.8,4.6-11.2,5.5-13.8c2.3-1.4,3.9-2.5,4.3-2.9C77.4,57,81.1,55.6,83.9,54.7z"
		/>
	<path class="st2" d="M102,2.6c0,0,0,0.1,0,0.1l-0.1,0.1l-0.1,0.3l-0.9,2.3c-2.2,5.9-4.2,11.9-5.9,18l0,0l-0.3,0
		c-3.2,0.4-6,4.2-6.6,6.2l-0.3,1l1,0.2c1.9,0.5,1.7,1.8,1.6,2.2c0,0.2,0,0.3,0,0.5c-0.3,0.7-0.9,2.2-1.5,3.7
		c-0.7,1.8-1.5,3.6-1.9,4.6l-0.2,0.3c-2.3,3.7-7.6,3.5-9.3,2.6c0,0,0,0-0.1,0c1.5-2.8,2.9-5.6,4.2-8.5c0.7-1.5,1.3-3,2-4.5
		c0.7-1.5,1.3-3,1.8-4.5c1.2-3.1,2.1-6.2,3.3-9.2c1.2-3,2.5-6,3.9-9l2.1-4.4c0.6-1.3,1.8-2.2,3.1-2.5c0.3-0.1,0.7-0.1,1-0.1h1.2
		l1.2,0h0.2l0.1,0c0,0,0.1,0,0.1,0c0.1,0,0.1,0.1,0.2,0.1c0.1,0.1,0.2,0.2,0.2,0.4C102,2.5,102,2.6,102,2.6z"/>
	<path class="st3" d="M97.5,1.9c0,0-5.7,23.7-9.2,27.8s-5.5,15.4-6.1,20.6c-0.7,5.2-4.9,17.2-7.4,19.4s-4.3,10.2-4.5,13.1
		s-3.8,11.3-6.5,13.1c-2.7,1.8-4.7,16-6.5,17.2s-9.6,13.7-13.5,13.9c7.6,0.8,11.7-1.1,11.7-1.1s4-3.2,4.8-6.6
		c0.9-3.3,11.6-31.6,12.2-32.8C73,85.4,82.4,59.8,83,58.8c0.6-1,8-22.4,8.5-23.5c0.5-1.1,8.1-22.7,8.7-23.6s3.4-8.9,3.1-9.5
		s-1.3-1.8-2.5-1.6s-3.1,1.5-3.1,1.5"/>
	<path class="st4" d="M94.8,26.9c0,1.5-0.7,3.5-2.5,5.1c-0.1-0.4-0.2-0.8-0.4-1.2c-0.4-0.6-0.9-1.1-1.6-1.4c0.8-1.5,2.5-3.5,4.2-4
		C94.6,25.7,94.8,26.1,94.8,26.9z"/>
	<path class="st4" d="M84.2,52.6c-3.1,0.9-8.1,2.8-8.3,2.9l-0.2,0.1c-0.2,0.1-15.6,11.1-24.2,11.5c-1.6-0.6-3-1.6-4.6-2.8
		c-2.7-2-5.9-4.2-11.1-5c0,0,0,0-0.1,0l0,0c-0.9-0.5-1.9-1.1-2.7-1.7c-0.9-0.6-1.7-1.3-2.5-2.1c-0.8-0.7-1.5-1.6-2.2-2.4
		c-0.6-0.9-1.2-1.9-1.6-2.9c0.2,1.1,0.6,2.2,1.2,3.2c0.5,1,1.2,1.9,1.9,2.8c0.7,0.9,1.5,1.7,2.3,2.5c0.8,0.8,1.7,1.5,2.6,2.2
		c0.1,0.2,0.3,0.3,0.6,0.3c2.7,0.4,4.7,1.1,6.5,2.1c-3.5,2.1-7.2,4.3-9.9,5.9c-2,1.2-3.8,2.3-4.1,2.5c0,0,0,0-0.1,0
		c-0.1,0-0.2,0.1-0.3,0.2c-0.9,0.8-1.6,1.8-2.2,2.7c-0.6,0.9-1.1,1.9-1.5,2.9c-0.4,1-0.8,2-0.9,3.1c-0.2,1.1-0.3,2.2,0,3.2
		c-0.1-1.1,0.2-2.1,0.5-3.1c0.3-1,0.8-1.9,1.3-2.8c0.5-0.9,1.1-1.7,1.8-2.5c0.6-0.8,1.4-1.5,2.1-2l0,0c0.3-0.1,1-0.5,4.4-2.6
		c3-1.8,7-4.2,10.8-6.4c0.7,0.5,1.4,1,2.1,1.5c1.7,1.3,3.3,2.4,5.3,3.1l0.2,0.1h0.2c3.8-0.1,8.7-2.1,13.2-4.4c0,0.5,0.1,1,0.1,1.6
		c0.2,3.4,0.6,8.1-0.4,11.6c0,0.1,0,0.1,0,0.2v0c-0.2,1.4-0.4,2.8-0.7,4.2c-0.3,1.4-0.6,2.8-1,4.1c-0.4,1.3-0.9,2.7-1.6,3.9
		c-0.7,1.2-1.6,2.4-2.9,3c1.4-0.5,2.4-1.6,3.3-2.8c0.3-0.3,0.5-0.7,0.7-1.1c0.1,0.1,0.1,0.1,0.2,0.2c0.1,0.1,2.4,1.7,5,2
		c1.7,0.3,3,1,3.8,2.1c0.8,1.2,1.1,2.9,0.7,4.5c0,0.1-0.1,0.2-0.2,0.2c-0.1,0-0.2,0.1-0.3,0.1c-7.6-1.9-16.7,0.8-21.6,2.3
		c-1.2,0.3-2.4,0.7-2.7,0.7c-1.4-0.4-2.2-1.1-2.6-2.1c-0.6-1.6,0.1-3.5,0.3-3.8c0.1-0.1,0.1-0.1,0.1-0.2l0.1-0.1l0.1-0.2l0.2-0.3
		l0.4-0.7l0.7-1.3c0.5-0.9,0.9-1.8,1.4-2.7c0.9-1.8,1.8-3.6,2.6-5.4c1.6-3.7,3.2-7.4,4.2-11.3c-1.4,3.8-3.1,7.4-5.1,10.8
		c-1,1.7-2,3.5-3,5.2c-0.5,0.8-1.1,1.7-1.6,2.5l-0.8,1.2l-0.4,0.6L43.6,94l-0.1,0.1c-0.1,0.1-0.2,0.3-0.3,0.4
		c-0.2,0.3-0.4,0.8-0.6,1.5c-0.8,0.2-1.6,0.3-2.4,0.5c-1.1,0.2-2.1,0.2-3.2,0.3c-2.1,0.1-4.2-0.2-6.3-0.7c-1-0.3-2-0.6-2.9-1
		c-0.1-0.1-0.2-0.1-0.3-0.2l-0.3-0.2l-0.7-0.4l-1.4-0.8c-1.8-1.1-3.6-2.3-5.2-3.7l-0.1-0.1l-0.1-0.1c-1.6-0.8-3.1-1.7-4.5-2.8
		c-1.4-1-2.7-2.2-3.7-3.6c-1.1-1.4-1.9-2.9-2.4-4.5c-0.6-1.6-0.9-3.4-1.3-5.2c-0.4-3.3-0.5-6.6-0.3-9.9C7.7,62,8,60.4,8.3,58.8
		c0.4-1.6,0.8-3.2,1.4-4.8c1.2-3.1,2.8-6,4.8-8.6c1.9-2.6,4.1-5,6.7-7l0.2-0.2l0.1-0.2l0.8-2.2c0.3-0.7,0.6-1.5,0.9-2.2
		c0.7-1.4,1.4-2.9,2.3-4.2c0.8-1.3,1.8-2.6,2.8-3.8c1-1.1,2.1-2.2,3.3-3c0.2,0.3,0.3,0.5,0.5,0.8c0.6,1,1.3,1.8,2.1,2.6
		c0.8,0.8,1.8,1.4,2.8,2c1,0.5,2.1,0.9,3.2,1.1c1,0.2,2,0.4,3,0.3c1,0.2,2.1,0,3.1-0.2c1.1-0.2,2.2-0.5,3.3-1c1-0.5,1.9-1.1,2.6-1.9
		c0.4,0.2,2.4,1.2,3.1,1.4c2.9,0.9,5.9,1.4,8.9,1.4c1.6,0,3.3-0.1,4.9-0.4c5-0.9,11.1-1.9,14.8-2c-0.7,1.5-1.3,3-1.9,4.5
		c-0.6,1.5-1.2,3-1.8,4.6c-0.1,0.3-0.2,0.5-0.3,0.8c0,0,0,0-0.1,0c-4,0-7.6,1.2-16.2,4.7c-3.3,1.4-6.7,7.2-7.3,8.4
		c-0.2-0.1-0.3-0.1-0.5-0.2l0,0c0,0-0.2-0.2-0.3-0.3l-0.4-0.4c-0.3-0.3-0.6-0.5-0.9-0.8c-0.6-0.5-1.2-1-1.8-1.5
		c-1.2-1-2.5-1.9-3.9-2.7c-1.3-0.8-2.8-1.5-4.2-2.1c-1.4-0.6-2.9-1-4.4-1.4c1.5,0.5,2.9,1.1,4.2,1.8c1.4,0.7,2.7,1.6,3.9,2.5
		c1.2,0.9,2.4,1.9,3.5,3c0.5,0.5,1.1,1.1,1.6,1.6l0.8,0.8l0.4,0.4c0.1,0.1,0.2,0.2,0.2,0.3c0.1,0.2,0.3,0.4,0.5,0.5
		c0.1,0.1,3.6,1.3,5.9,1c2.1-0.3,11.6-2.2,12-2.2l0.7-0.1l0.1-0.7c0.2-2,0.6-4.1,1-5c0.2,0.7,0.5,1.7,2,2.4
		c2.1,1.1,6.9,1.3,10.1-1.3C86.7,47.9,86.6,51.3,84.2,52.6z"/>
	<path class="st4" d="M54.7,8.8c-0.1-0.1-0.2-0.3-0.2-0.5c0-0.7-0.2-2.4-0.8-3.1c-0.8-0.9-1.9-1.5-3-1.9c-1.1-0.4-2.3-0.7-3.6-0.9
		C45.9,2.1,44.6,2,43.4,2c-2.5,0-5.1,0.1-7.4,0.9c-1.2,0.4-2.3,1-3.1,2C32,5.8,32,8.5,32,8.5c-1,0.8-2,2-2,3.3
		c0,1.3,0.5,2.5,1.2,3.6l0,0.1v0.1c0,1.3,0.1,2.6,0.3,3.8c0.2,1.2,0.7,2.4,1.5,3.2l0,0l0.1,0.1c0.6,0.8,1.3,1.6,2.1,2.3
		c0.8,0.7,1.6,1.3,2.4,1.9c0.9,0.5,1.8,1,2.8,1.3c0.8,0.3,1.6,0.4,2.4,0.6c0.3,0,0.7,0.1,1,0c1.9-0.2,3.7-0.8,5.2-1.8
		c0.9-0.5,1.7-1.2,2.4-1.9c0.7-0.7,1.4-1.5,1.9-2.4l0.1-0.1l0,0c0.8-0.8,1.3-2,1.5-3.2c0.3-1.2,0.3-2.5,0.3-3.8v-0.1l0-0.1
		c0.7-1.1,1.2-2.3,1.2-3.6C56.7,10.8,55.3,9.3,54.7,8.8z M52.5,13.9c-0.2,1-0.6,2-1.2,2.9c0.3,0.6,0.5,1.3,0.5,2
		c0,0.8-0.1,1.6-0.4,2.4c-0.3,0.8-0.8,1.4-1.3,2c-0.5,0.5-1.2,0.9-1.9,1.2c0,0,0,0,0,0.1c-0.1,0.1-0.2,0.2-0.3,0.3
		c-0.6,0.5-1.2,0.9-1.8,1.2c-0.4,0.2-0.8,0.3-1.3,0.4c-0.4,0.1-0.9,0.1-1.3,0.1c-0.4,0.1-0.9,0-1.3,0c-0.4-0.1-0.9-0.2-1.3-0.4
		c-0.7-0.3-1.4-0.8-1.9-1.3c0,0,0,0,0,0c0,0-0.1-0.1-0.1-0.1c-0.7-0.3-1.4-0.7-1.9-1.2c-0.6-0.6-1.1-1.2-1.3-2
		c-0.3-0.8-0.4-1.6-0.4-2.4c0-0.7,0.2-1.4,0.5-2c-0.7-0.9-1.1-1.9-1.2-2.9c-0.1-0.6-0.2-1.1-0.1-1.7c0-0.6,0.1-1.1,0.3-1.7l0,0
		c0.3-0.8,0.8-1.6,1.5-2.3c0.7-0.6,1.6-1,2.5-1.2c0.9-0.2,1.8-0.1,2.7,0c0.8,0.2,1.7,0.4,2.4,0.9c0.7-0.4,1.5-0.7,2.4-0.9
		c0.9-0.2,1.8-0.2,2.7,0c0.9,0.2,1.8,0.5,2.5,1.2c0.7,0.6,1.1,1.4,1.5,2.3l0,0c0.2,0.6,0.2,1.1,0.3,1.7
		C52.6,12.8,52.6,13.4,52.5,13.9z"/>
	<g>
		<path class="st5" d="M30.1,77c0,0-11.5,13.7-4,17.9c3.7,2,10.2,4.1,10.8,1.6c1.2-5.1,0.6-14.6,4.9-17.7c6-4.3,10.5-9.9,9.2-10.9
			c-1.3-1-4.5-3.5-6.1-3.9c-1.6-0.4-5,1.6-7.7,3.5C34.4,69.4,30.1,77,30.1,77z"/>
		<path class="st5" d="M35.9,27.2c-0.2,0.4,0,9.1,5.8,13.1c1.8,1.2,9.1,4.2,10.1,6.2c3.7-9.2,21.4-15.4,25.1-16.5s8.1-3.1,8.1-3.1
			s-1.2-1.6-1.6-1.5c-0.4,0.1-13.6,1.9-16.1,2.3c-2.5,0.4-10-0.6-10-0.6l-4.8-1.8c0,0-4.2,3.3-6.5,3.7
			C40.6,29.9,35.9,27.2,35.9,27.2z"/>
		<path class="st5" d="M37.5,39c-2.8-1.7-6.5-0.7-8,2.3c-1.8,3.7-3.1,7.6-2.9,8.6c0.5,1.8,4.5,9.2,8.7,10.2c4.2,1,7.8,2.1,11.6,5.1
			c3.8,3,9.9-2.5,12.7-5c2.7-2.4,13.6-8.8,13.9-10.4c0.3-1.6-0.8-1.9-2.5-1.1c-1.6,0.8-3.9,1.8-9.2,2.3S59,51.4,56.5,50
			c-2.4-1.4-6.7-5.5-8.5-6.4s-6.2-3.2-8.7-3.7C38.7,39.7,38.1,39.4,37.5,39z"/>
	</g>
	<path class="st6" d="M31.5,8.4c-0.8,0.5-1.3,1.3-1.6,2.2c0-0.5-0.1-1.1-0.1-1.5c0-0.6,0-1.2,0.2-1.6c0.1-0.2,0.2-0.4,0.3-0.6
		c0.2-0.2,0.4-0.4,0.6-0.6C31.3,6,31.6,5.7,32,5.4C31.5,6.3,31.3,7.4,31.5,8.4z"/>
	<path class="st6" d="M56.9,9c0,0.5-0.1,1.1-0.1,1.6c-0.3-0.8-0.7-1.5-1.3-2.1c-0.2-0.2-0.3-0.4-0.3-0.7c0.1-0.8-0.1-1.7-0.4-2.5
		c0.3,0.3,0.7,0.5,1,0.8c0.2,0.2,0.4,0.4,0.6,0.6c0.2,0.2,0.3,0.3,0.3,0.6C56.9,7.9,57,8.5,56.9,9z"/>
	<path class="st7" d="M52.2,12.3c0-0.5-0.2-1.1-0.4-1.5l0,0c-0.4-0.7-1-1.3-1.6-1.7c-0.6-0.4-1.3-0.8-2-0.9c-1.5-0.4-3.2-0.3-4.8,0
		h0l0,0l0,0c-1.7-0.3-3.3-0.4-4.8,0c-0.7,0.2-1.4,0.5-2,0.9c-0.6,0.4-1.2,1-1.6,1.7c-0.2,0.5-0.4,1-0.4,1.5c0,0.5,0,1.1,0.2,1.6
		c0.3,1,0.9,2,1.7,2.6l0.2,0.2L36.4,17c-0.2,0.6-0.3,1.2-0.3,1.9c0,0.6,0.2,1.3,0.4,1.9c0.3,0.6,0.6,1.1,1.1,1.5
		c0.1,0.1,0.3,0.2,0.4,0.3c-0.2-2.1,1-4.2,1.7-5.4c0.1-0.2,0.2-0.4,0.3-0.5c0,0,0,0,0,0c0,0,0-0.1,0.1-0.1l0,0
		c0.3-0.4,0.6-0.9,0.8-1.4c0.1-0.2,0.2-0.5,0.3-0.7c0-0.1,0.1-0.2,0.1-0.4l0-0.4c0.1-0.6,0.1-1.1,0-1.7c-0.1-0.6-0.3-1.1-0.5-1.6
		c0.4,0.4,0.7,1,0.8,1.5c0.2,0.6,0.3,1.2,0.3,1.8l0,0.4c0,0.1,0,0.3,0,0.5c0,0.3-0.1,0.6-0.2,0.9c-0.2,0.6-0.4,1.1-0.6,1.6
		c0,0,0,0,0,0c0,0,0,0,0,0.1c0,0,0,0,0,0l0,0c-0.1,0.2-0.2,0.4-0.3,0.6c-0.7,1.2-2,3.5-1.4,5.4c0.6-0.2,1.1-0.3,1.6-0.5l0.5-0.2
		c0.2-0.1,0.4-0.1,0.6-0.2c0.4-0.1,0.8-0.2,1.2-0.1c0.4,0,0.8,0.1,1.3,0.2c0.4,0.1,0.7,0.3,1.1,0.4l1.5,0.5c0.7-1.9-0.7-4.2-1.4-5.4
		c-0.2-0.3-0.3-0.5-0.3-0.6c0,0,0,0,0,0c0,0,0,0,0,0c0,0,0,0,0-0.1c0,0,0,0,0,0c-0.2-0.5-0.4-1.1-0.6-1.6c-0.1-0.3-0.2-0.6-0.2-0.9
		c0-0.2,0-0.4,0-0.5l0-0.4c0-0.6,0.1-1.2,0.3-1.8c0.2-0.6,0.5-1.1,0.8-1.5c-0.3,0.5-0.5,1.1-0.5,1.6c-0.1,0.6-0.1,1.1,0,1.7l0,0.4
		c0,0.2,0,0.2,0.1,0.4c0.1,0.2,0.2,0.5,0.3,0.7c0.2,0.5,0.5,1,0.9,1.4l0,0c0,0,0,0,0,0.1c0,0,0,0,0,0c0,0.1,0.2,0.3,0.3,0.6
		c0.7,1.2,1.9,3.3,1.7,5.3c0.1-0.1,0.2-0.2,0.3-0.3c0.5-0.4,0.8-1,1.1-1.5c0.3-0.6,0.4-1.2,0.4-1.9c0-0.6-0.1-1.3-0.3-1.9l-0.1-0.4
		l0.2-0.2c0.8-0.6,1.4-1.5,1.7-2.6C52.2,13.3,52.2,12.8,52.2,12.3z M42.6,21.1c-0.8,0.4-1.5-0.4-1.6-1c-0.1-0.4,0.2-0.9,0.6-0.9
		c0.7-0.1,0.6,0.3,0.6,0.7C42.2,20.6,43,20.8,42.6,21.1z M44.8,19.8c0-0.4,0-0.8,0.6-0.7c0.4,0.1,0.7,0.5,0.6,0.9
		c-0.2,0.6-0.8,1.5-1.6,1C44,20.8,44.8,20.6,44.8,19.8z"/>
	<path class="st6" d="M47.1,23.6c0,0,0,0.1-0.1,0.1c-0.4,0.5-0.9,0.9-1.5,1.4c-0.7,0.5-1.4,0.9-2.2,1.1c-0.8-0.2-1.6-0.6-2.2-1
		c-0.5-0.4-0.9-0.8-1.3-1.2c0-0.1,0-0.1-0.1-0.2c0-0.1-0.1-0.1-0.1-0.2c0.5,0.1,1.1,0.1,1.7,0.1c0.2,0,0.4-0.1,0.6-0.1
		c0.2,0,0.3-0.1,0.5-0.1c0.3,0,0.7-0.1,1-0.1c0.3,0,0.7,0,1,0.1c0.3,0,0.7,0.1,1.1,0.2C46.1,23.7,46.6,23.7,47.1,23.6z"/>
	<path class="st0" d="M121.5,77.8l0-0.7c0-0.2,0-0.5-0.1-0.8c-0.3-1-1.1-1.9-2-2.2c-0.5-0.2-1-0.2-1.5-0.2l-1.4,0.2
		c-0.7,0-1.4,0.1-2.2,0.1c-0.7,0.1-1.5,0.1-2.2,0.3c-0.7,0.1-1.4,0.3-2.2,0.5c-0.7,0.2-1.4,0.4-2.1,0.6c-2.8,1-5.3,2.5-7.7,4.3
		c-2.3,1.8-4.4,4-6.2,6.3c-1.9,2.3-3.6,4.6-5.2,7.1c-3.3,4.8-6.4,9.7-10.5,13.7c-0.5,0.5-1,1-1.6,1.4c-0.5,0.4-1.1,0.8-1.7,1.2
		c-1.2,0.7-2.5,1.3-3.9,1.7c-2.4,0.8-5,1.3-7.5,1.7c1.6-4.3,3.1-8.6,4.4-13.1c1.1,0.1,2.1,0.2,3.1,0.5c0.6,0.2,1.3,0,1.8-0.3
		c0.5-0.3,0.9-0.9,1-1.5c0.2-1,0.5-3.7-1-6c-0.6-0.8-1-1.3-1.9-1.8c1.6-2.7,2.6-5.8,3.8-8.7c0.6-1.5,1.2-3.1,1.7-4.7
		c0.6-1.6,1-3.2,1.5-4.8c0.4-1.6,1-3.2,1.6-4.7c0.7-1.5,1.5-3,2.3-4.5c0.7-1.5,1.3-3.1,1.8-4.7c0.4-1.4,0.8-2.8,1.1-4.2
		c0.1,0,0.2-0.1,0.3-0.1l0.2-0.1c3.7-1.9,3.6-6.7,3.5-9.8c0-0.5,0-1,0-1.4c0-0.1,0.1-0.1,0.1-0.2c0.2-0.7,1.2-3,2-5
		c0.6-1.4,1.1-2.8,1.5-3.6c0,0,0.1,0,0.1,0c3.4-2.1,4.5-5.4,4.5-7.7c0-1.5-0.5-2.6-1.4-3.1c2.8-5.7,5.2-11.5,7.5-17.4l0.9-2.3
		l0.1-0.3l0.1-0.1c0,0,0-0.1,0.1-0.2c0.1-0.3,0.2-0.7,0.1-1c-0.1-0.7-0.4-1.3-0.9-1.7c-0.3-0.2-0.6-0.4-0.9-0.5
		C102,0,101.9,0,101.7,0l-0.2,0l-0.2,0l-1.2,0.1l-1.2,0.1c-0.5,0-0.9,0.1-1.4,0.2c-1.8,0.5-3.4,1.9-4,3.7l-1.7,4.6
		c-1.1,3.1-2.3,6.1-3.6,9.1c-1,2.4-2.2,4.6-3.3,7c-3.7,0-10.2,1.1-16.1,2.1c-4.3,0.7-8.7,0.4-12.8-0.9c-0.4-0.1-1.5-0.7-2.4-1.1
		c0.3-0.4,0.6-0.9,0.9-1.4c0.9-1.1,1.3-2.5,1.5-3.8c0.2-1.3,0.2-2.6,0.1-3.9c0.6-1.2,1.1-2.5,1-3.9c0-0.3-0.1-0.6-0.2-0.9
		c0.4-0.5,0.7-1.1,1-1.7C58.1,8.6,58.2,7.8,58,7c-0.1-0.4-0.4-0.8-0.7-1s-0.6-0.4-0.9-0.6c-0.5-0.2-1.1-0.4-1.7-0.4
		c-0.1-0.2-0.2-0.3-0.3-0.4c-0.8-1.1-2-2-3.2-2.5C48.7,1,45.9,0.9,43.4,1c-2.6,0.1-5.2,0.3-7.7,1.3c-1.2,0.5-2.4,1.3-3.2,2.3
		c-0.1,0.1-0.2,0.3-0.3,0.4c-0.6,0-1.2,0.1-1.8,0.4c-0.3,0.1-0.6,0.3-0.9,0.6c-0.3,0.2-0.6,0.6-0.7,1c-0.2,0.8-0.1,1.5,0.1,2.2
		c0.2,0.6,0.5,1.2,0.9,1.6c-0.1,0.3-0.1,0.6-0.2,1c-0.1,1.4,0.4,2.7,1,3.9c0,1.3-0.1,2.6,0.1,3.9c0.1,0.9,0.2,1.4,0.6,2.3
		C29.9,22.5,29,24,27.8,25c-1.2,1.1-2.3,2.4-3.3,3.7l-0.7,1l-0.7,1.1c-0.5,0.7-0.8,1.4-1.2,2.2c-0.4,0.7-0.7,1.5-1.1,2.2
		c-0.3,0.7-0.6,1.4-0.8,2.1c-2.7,2-5,4.5-6.8,7.3c-1.8,2.9-3.2,6-4.2,9.2c-0.5,1.6-0.9,3.2-1.3,4.9c-0.3,1.6-0.6,3.3-0.8,5
		c-0.4,3.3-0.5,6.7-0.4,10.1l0,0.1c0.3,1.7,0.5,3.6,1,5.4c0.5,1.8,1.4,3.6,2.5,5.1c1.1,1.5,2.5,2.9,4,4c0.7,0.5,1.4,1,2.1,1.5
		c-1.8,1.3-3.4,2.9-4.8,4.7c-1.6,2-2.9,4.3-3.7,6.9c-0.7,2.6-0.7,5.5,0.3,8c0.5,1.3,1.2,2.4,2.1,3.4c0.9,1,1.9,1.9,2.9,2.6
		c2.1,1.5,4.4,2.6,6.7,3.7c2.3,1,4.7,2,7.1,2.7c1.2,0.3,2.5,0.6,3.7,0.7c1.3,0.2,2.5,0.3,3.8,0.3c2.4,0.1,4.6,0.6,7,0.2l-0.1,0.2
		c-0.1,0.4-0.1,0.1-0.2,0.5c-0.3,0.8-0.1,1.7,0.3,2.4c0.4,0.7,1.1,1.2,1.9,1.4c0.2,0.1,0.4,0.1,0.6,0.1l0.5,0c0.4,0,0.7,0,1.1,0
		c0.7,0,1.5,0,2.2,0.1l1.1,0.1c0.4,0,0.8,0,1.2,0c3.1-0.1,6.2-1.6,8.3-4c0.5-0.6,1-1.2,1.4-1.9c0,0,0-0.1,0.1-0.1
		c1.6,0,3.3,0,4.9-0.1c1.8-0.1,3.7-0.4,5.5-0.7c1.8-0.4,3.6-0.8,5.4-1.4c1.8-0.6,3.5-1.4,5.1-2.4c1.6-1,3.1-2.2,4.5-3.5
		c1.3-1.3,2.6-2.7,3.7-4.2c2.3-2.9,4.3-6,6.3-9.1c2-3.1,3.9-6.2,6.1-9c2.2-2.8,4.7-5.4,7.8-7.2c1.5-0.9,3.2-1.5,4.9-1.9
		c0.8-0.2,1.7-0.3,2.6-0.4l1.3-0.1h0l0.1,0l0.2,0c0.1,0,0.3,0,0.4,0c0.3,0,0.5-0.1,0.8-0.2c1-0.4,1.9-1.2,2.1-2.3
		C121.5,78.8,121.5,78.3,121.5,77.8z M82.1,58.1c-0.7,1.5-1.4,3-1.9,4.6c-0.5,1.6-0.8,3.3-1.4,4.8c-0.5,1.6-1.2,3.1-2,4.6
		c-0.8,1.5-1.5,3-2.2,4.5c-0.7,1.5-1.3,3.1-1.9,4.6c-1.1,3-2.6,5.7-3.2,8.8c-0.7-0.3-1-0.3-1.9-0.5c-2.2-0.3-4.2-1.7-4.2-1.7
		c-0.2-0.1-0.3-0.2-0.4-0.3c0.2-0.4,0.3-0.7,0.5-1.1c0.6-1.3,1.1-2.7,1.5-4.1c0.4-1.4,0.8-2.7,1.1-4.1c0,0,0,0,0,0
		c0.4-1.3,0.5-2.8,0.6-4.3c0-0.1,0.1-0.1,0.1-0.2c0.7-1.8,4.6-11.2,5.5-13.8c2.3-1.4,3.9-2.5,4.3-2.9c0.7-0.3,4.4-1.6,7.1-2.5
		C83.2,55.8,82.6,57,82.1,58.1z M66.5,63.6c1.2-0.6,2.3-1.3,3.3-1.9c-0.8,2.1-2,5.1-3,7.5c-0.1-1.1-0.1-2.2-0.2-3.2
		C66.6,65.2,66.5,64.3,66.5,63.6z M92.3,32c-0.1-0.4-0.2-0.8-0.4-1.2c-0.4-0.6-0.9-1.1-1.6-1.4c0.8-1.5,2.5-3.5,4.2-4
		c0.1,0.2,0.3,0.7,0.3,1.5C94.8,28.4,94.1,30.4,92.3,32z M85.5,27.2c1.2-3.1,2.1-6.2,3.3-9.2c1.2-3,2.5-6,3.9-9l2.1-4.4
		c0.6-1.3,1.8-2.2,3.1-2.5c0.3-0.1,0.7-0.1,1-0.1h1.2l1.2,0h0.2l0.1,0c0,0,0.1,0,0.1,0c0.1,0,0.1,0.1,0.2,0.1
		c0.1,0.1,0.2,0.2,0.2,0.4c0,0.1,0,0.1,0,0.2c0,0,0,0.1,0,0.1l-0.1,0.1l-0.1,0.3l-0.9,2.3c-2.2,5.9-4.2,11.9-5.9,18l0,0l-0.3,0
		c-3.2,0.4-6,4.2-6.6,6.2l-0.3,1l1,0.2c1.9,0.5,1.7,1.8,1.6,2.2c0,0.2,0,0.3,0,0.5c-0.3,0.7-0.9,2.2-1.5,3.7
		c-0.7,1.8-1.5,3.6-1.9,4.6l-0.2,0.3c-2.3,3.7-7.6,3.5-9.3,2.6c0,0,0,0-0.1,0c1.5-2.8,2.9-5.6,4.2-8.5c0.7-1.5,1.3-3,2-4.5
		C84.3,30.3,84.9,28.7,85.5,27.2z M77.2,44.6c-0.6-0.4-0.6-0.7-0.8-1.2c-0.1-0.5-0.3-1.4-1.4-1.6l-0.1,0c-0.3,0-0.7,0-1.2,0.3
		c-1.2,1-1.7,4.3-1.9,6c-2.3,0.4-9.5,1.8-11.2,2.1c-0.7,0.1-1.5,0-2.3-0.2c1.2-2.1,3.9-6.2,6.2-7.1c7.8-3.2,11.3-4.4,14.8-4.5
		C78.6,40.4,77.9,42.5,77.2,44.6z M55.8,6.3c0.2,0.2,0.4,0.4,0.6,0.6c0.2,0.2,0.3,0.3,0.3,0.6c0.2,0.4,0.2,1,0.2,1.6
		c0,0.5-0.1,1.1-0.1,1.6c-0.3-0.8-0.7-1.5-1.3-2.1c-0.2-0.2-0.3-0.4-0.3-0.7c0.1-0.8-0.1-1.7-0.4-2.5C55.2,5.8,55.5,6.1,55.8,6.3z
		 M29.8,9c0-0.6,0-1.2,0.2-1.6c0.1-0.2,0.2-0.4,0.3-0.6c0.2-0.2,0.4-0.4,0.6-0.6C31.3,6,31.6,5.7,32,5.4c-0.5,0.9-0.7,1.9-0.5,2.9
		c-0.8,0.5-1.3,1.3-1.6,2.2C29.8,10.1,29.8,9.5,29.8,9z M31.3,15.6v-0.1l0-0.1c-0.7-1.1-1.2-2.3-1.2-3.6c0-1.3,1-2.5,2-3.3
		c0,0-0.1-2.7,0.8-3.7c0.8-0.9,1.9-1.6,3.1-2c2.4-0.8,4.9-1,7.4-0.9c1.3,0,2.5,0.2,3.7,0.4c1.2,0.2,2.4,0.5,3.6,0.9
		c1.1,0.4,2.2,1,3,1.9c0.7,0.7,0.8,2.4,0.8,3.1c0,0.2,0.1,0.4,0.2,0.5c0.6,0.6,2,2.1,2,3c0,1.3-0.5,2.5-1.2,3.6l0,0.1v0.1
		c0,1.3-0.1,2.6-0.3,3.8c-0.2,1.2-0.7,2.4-1.5,3.2l0,0l-0.1,0.1c-0.5,0.8-1.2,1.7-1.9,2.4c-0.7,0.7-1.5,1.4-2.4,1.9
		c-1.6,0.9-3.3,1.5-5.2,1.8c-0.3,0-0.7,0-1,0c-0.8-0.1-1.6-0.3-2.4-0.6c-1-0.3-1.9-0.8-2.8-1.3c-0.9-0.6-1.7-1.2-2.4-1.9
		c-0.8-0.7-1.5-1.5-2.1-2.3l-0.1-0.1l0,0c-0.8-0.8-1.3-2-1.5-3.2C31.4,18.2,31.3,16.9,31.3,15.6z M15.3,86.8c-1.4-1-2.7-2.2-3.7-3.6
		c-1.1-1.4-1.9-2.9-2.4-4.5c-0.6-1.6-0.9-3.4-1.3-5.2c-0.4-3.3-0.5-6.6-0.3-9.9C7.7,62,8,60.4,8.3,58.8c0.4-1.6,0.8-3.2,1.4-4.8
		c1.2-3.1,2.8-6,4.8-8.6c1.9-2.6,4.1-5,6.7-7l0.2-0.2l0.1-0.2l0.8-2.2c0.3-0.7,0.6-1.5,0.9-2.2c0.7-1.4,1.4-2.9,2.3-4.2
		c0.8-1.3,1.8-2.6,2.8-3.8c1-1.1,2.1-2.2,3.3-3c0.2,0.3,0.3,0.5,0.5,0.8c0.6,1,1.3,1.8,2.1,2.6c0.8,0.8,1.8,1.4,2.8,2
		c1,0.5,2.1,0.9,3.2,1.1c1,0.2,2,0.4,3,0.3c1,0.2,2.1,0,3.1-0.2c1.1-0.2,2.2-0.5,3.3-1c1-0.5,1.9-1.1,2.6-1.9
		c0.4,0.2,2.4,1.2,3.1,1.4c2.9,0.9,5.9,1.4,8.9,1.4c1.6,0,3.3-0.1,4.9-0.4c5-0.9,11.1-1.9,14.8-2c-0.7,1.5-1.3,3-1.9,4.5
		c-0.6,1.5-1.2,3-1.8,4.6c-0.1,0.3-0.2,0.5-0.3,0.8c0,0,0,0-0.1,0c-4,0-7.6,1.2-16.2,4.7c-3.3,1.4-6.7,7.2-7.3,8.4
		c-0.2-0.1-0.3-0.1-0.5-0.2l0,0c0,0-0.2-0.2-0.3-0.3l-0.4-0.4c-0.3-0.3-0.6-0.5-0.9-0.8c-0.6-0.5-1.2-1-1.8-1.5
		c-1.2-1-2.5-1.9-3.9-2.7c-1.3-0.8-2.8-1.5-4.2-2.1c-1.4-0.6-2.9-1-4.4-1.4c1.5,0.5,2.9,1.1,4.2,1.8c1.4,0.7,2.7,1.6,3.9,2.5
		c1.2,0.9,2.4,1.9,3.5,3c0.5,0.5,1.1,1.1,1.6,1.6l0.8,0.8l0.4,0.4c0.1,0.1,0.2,0.2,0.2,0.3c0.1,0.2,0.3,0.4,0.5,0.5
		c0.1,0.1,3.6,1.3,5.9,1c2.1-0.3,11.6-2.2,12-2.2l0.7-0.1l0.1-0.7c0.2-2,0.6-4.1,1-5c0.2,0.7,0.5,1.7,2,2.4
		c2.1,1.1,6.9,1.3,10.1-1.3c0,2.7-0.1,6.2-2.5,7.4c-3.1,0.9-8.1,2.8-8.3,2.9l-0.2,0.1c-0.2,0.1-15.6,11.1-24.2,11.5
		c-1.6-0.6-3-1.6-4.6-2.8c-2.7-2-5.9-4.2-11.1-5c0,0,0,0-0.1,0l0,0c-0.9-0.5-1.9-1.1-2.7-1.7c-0.9-0.6-1.7-1.3-2.5-2.1
		c-0.8-0.7-1.5-1.6-2.2-2.4c-0.6-0.9-1.2-1.9-1.6-2.9c0.2,1.1,0.6,2.2,1.2,3.2c0.5,1,1.2,1.9,1.9,2.8c0.7,0.9,1.5,1.7,2.3,2.5
		c0.8,0.8,1.7,1.5,2.6,2.2c0.1,0.2,0.3,0.3,0.6,0.3c2.7,0.4,4.7,1.1,6.5,2.1c-3.5,2.1-7.2,4.3-9.9,5.9c-2,1.2-3.8,2.3-4.1,2.5
		c0,0,0,0-0.1,0c-0.1,0-0.2,0.1-0.3,0.2c-0.9,0.8-1.6,1.8-2.2,2.7c-0.6,0.9-1.1,1.9-1.5,2.9c-0.4,1-0.8,2-0.9,3.1
		c-0.2,1.1-0.3,2.2,0,3.2c-0.1-1.1,0.2-2.1,0.5-3.1c0.3-1,0.8-1.9,1.3-2.8c0.5-0.9,1.1-1.7,1.8-2.5c0.6-0.8,1.4-1.5,2.1-2l0,0
		c0.3-0.1,1-0.5,4.4-2.6c3-1.8,7-4.2,10.8-6.4c0.7,0.5,1.4,1,2.1,1.5c1.7,1.3,3.3,2.4,5.3,3.1l0.2,0.1h0.2c3.8-0.1,8.7-2.1,13.2-4.4
		c0,0.5,0.1,1,0.1,1.6c0.2,3.4,0.6,8.1-0.4,11.6c0,0.1,0,0.1,0,0.2v0c-0.2,1.4-0.4,2.8-0.7,4.2c-0.3,1.4-0.6,2.8-1,4.1
		c-0.4,1.3-0.9,2.7-1.6,3.9c-0.7,1.2-1.6,2.4-2.9,3c1.4-0.5,2.4-1.6,3.3-2.8c0.3-0.3,0.5-0.7,0.7-1.1c0.1,0.1,0.1,0.1,0.2,0.2
		c0.1,0.1,2.4,1.7,5,2c1.7,0.3,3,1,3.8,2.1c0.8,1.2,1.1,2.9,0.7,4.5c0,0.1-0.1,0.2-0.2,0.2c-0.1,0-0.2,0.1-0.3,0.1
		c-7.6-1.9-16.7,0.8-21.6,2.3c-1.2,0.3-2.4,0.7-2.7,0.7c-1.4-0.4-2.2-1.1-2.6-2.1c-0.6-1.6,0.1-3.5,0.3-3.8c0.1-0.1,0.1-0.1,0.1-0.2
		l0.1-0.1l0.1-0.2l0.2-0.3l0.4-0.7l0.7-1.3c0.5-0.9,0.9-1.8,1.4-2.7c0.9-1.8,1.8-3.6,2.6-5.4c1.6-3.7,3.2-7.4,4.2-11.3
		c-1.4,3.8-3.1,7.4-5.1,10.8c-1,1.7-2,3.5-3,5.2c-0.5,0.8-1.1,1.7-1.6,2.5l-0.8,1.2l-0.4,0.6L43.6,94l-0.1,0.1
		c-0.1,0.1-0.2,0.3-0.3,0.4c-0.2,0.3-0.4,0.8-0.6,1.5c-0.8,0.2-1.6,0.3-2.4,0.5c-1.1,0.2-2.1,0.2-3.2,0.3c-2.1,0.1-4.2-0.2-6.3-0.7
		c-1-0.3-2-0.6-2.9-1c-0.1-0.1-0.2-0.1-0.3-0.2l-0.3-0.2l-0.7-0.4l-1.4-0.8c-1.8-1.1-3.6-2.3-5.2-3.7l-0.1-0.1l-0.1-0.1
		C18.2,88.8,16.7,87.8,15.3,86.8z M42.7,99.9c0.4,1.2,1.4,2.8,4.1,3.5c0.1,0,0.2,0,0.3,0c0.5,0,1.4-0.2,3.3-0.8
		c0.4-0.1,0.3-0.1,0.8-0.2c-1.5,2.5-2.4,4.8-3.7,7.4c-0.9,1.7-1.7,3.3-2.5,5c-3.4-0.1-6.7-0.3-10-0.8c-1.7-0.3-3.5-0.5-5.1-0.9
		c-1.7-0.4-3.4-0.9-5-1.5c-0.8-0.3-1.6-0.7-2.3-1.2s-1.3-1.1-1.8-1.9c-0.5-0.7-0.7-1.6-0.7-2.4c0-0.4,0-0.8,0.1-1.3
		c0-0.2,0-0.4,0.1-0.6c0-0.2,0.1-0.4,0.1-0.6c0-0.4,0.2-0.8,0.2-1.2c0.1-0.4,0.2-0.8,0.3-1.2c0.3-0.8,0.6-1.6,1-2.3
		c0.7-1.3,1.7-2.6,2.9-3.7l1,0.6l0.7,0.4l0.4,0.2c0.2,0.1,0.3,0.1,0.4,0.2c1.1,0.4,2.2,0.7,3.3,0.9c2.2,0.4,4.5,0.5,6.7,0.2
		c1.9-0.2,3.7-0.7,5.4-1.3C42.3,97.4,42.3,98.7,42.7,99.9z M34.5,121.5c-2.5-0.3-4.9-0.7-7.3-1.2c-2.4-0.4-4.9-0.8-7.2-1.7
		c-2.3-0.9-4.5-2.2-6.3-3.9c-1.8-1.7-3.2-3.7-3.9-5.9c-0.7-2.2-0.7-4.6,0-6.9c0.6-2.3,1.7-4.5,3-6.6c0.3-0.5,0.7-1,1-1.5
		c0.4-0.5,0.7-1,1.1-1.5c0.6-0.8,1.2-1.5,1.8-2.3c0.7,0.4,1.4,0.9,2.2,1.3c1.7,1.3,3.6,2.5,5.4,3.6l0,0c-3.2,1.4-5.5,4.8-5.6,8.5
		c0,0.5,0,1,0.1,1.4c0.1,0.5,0.1,0.9,0.2,1.4c0.2,1,0.7,1.8,1.3,2.6c1.1,1.5,2.6,2.7,4.1,3.7c0.8,0.5,1.6,1,2.4,1.3
		c0.8,0.4,1.7,0.7,2.6,1c1.7,0.6,3.5,1,5.4,1.2c1.8,0.2,3.7,0.2,5.5,0.1c1.5-0.1,2.9,0.1,4.4-0.3c-0.4,0.8-2.7,6.5-2.7,6.5
		C39.3,121.9,36.9,121.9,34.5,121.5z M58.8,119.2c-0.3,0.7-0.5,1.3-0.8,1.9c-0.3,0.6-0.7,1.2-1.1,1.7c-0.9,1.1-1.9,2-3.1,2.7
		c-1.2,0.7-2.5,1.2-3.9,1.4c-0.7,0.1-1.4,0.2-2.2,0.2c-0.7,0-1.5,0.1-2.2,0.1c-0.4,0-0.7,0-1.1,0l-0.5,0c-0.2,0-0.3,0-0.5,0
		c-0.6-0.1-1.2-0.6-1.5-1.1c-0.3-0.6-0.3-1.3-0.1-1.9c0.1-0.3,0.3-0.6,0.5-0.9l0.5-1c0.7-1.3,1.5-2.6,2.2-3.9c1.4-2.6,2.6-5.3,3.8-8
		c1.2-2.7,3.1-5.7,4.1-8.5c4.1-1.2,9.2-2.4,14.7-2.1c-2.6,5-4.9,10.1-7,15.3C59.9,116.5,59.4,117.8,58.8,119.2z M120.4,79.1
		c-0.2,0.7-0.8,1.3-1.5,1.5c-0.2,0.1-0.4,0.1-0.5,0.1l-0.3,0l-0.1,0l-0.1,0l0,0l-0.1,0l-1.4,0c-0.9,0.1-1.9,0.1-2.8,0.3
		c-1.9,0.4-3.7,1-5.3,1.9c-3.4,1.8-6.1,4.6-8.4,7.4c-2.3,2.9-4.4,6-6.4,9.1c-2,3.1-3.9,6.2-6.1,9c-2.2,2.9-4.6,5.6-7.5,7.5
		c-3,1.9-6.4,3.2-9.9,4.1c-1.7,0.4-3.5,0.8-5.3,1.1c-1.6,0.2-3,0.3-4.4-0.1c0.3-0.6,0.3-0.6,0.5-1.1c0.6-1.4,1.1-2.7,1.7-4.1
		c0.3-0.9,0.5-1,0.8-1.9c1.2-0.7,2.6-0.8,3.7-1c1.5-0.2,2.9-0.4,4.3-0.8c1.4-0.4,2.8-0.9,4.2-1.6c0.7-0.3,1.3-0.7,1.9-1.2
		c0.6-0.4,1.2-0.9,1.8-1.4c2.2-2,4.2-4.2,5.9-6.6c1.8-2.4,3.4-4.8,5-7.2c1.6-2.4,3.2-4.8,4.9-7.2c1.7-2.3,3.6-4.5,5.7-6.4
		c1.1-0.9,2.2-1.8,3.5-2.6c0.6-0.4,1.2-0.7,1.9-1.1c0.7-0.3,1.3-0.6,2-0.8c2.7-1,5.6-1.4,8.4-1.4h0l1.4-0.1c0.4,0,0.8,0,1.2,0.2
		c0.7,0.3,1.3,1,1.5,1.7c0,0.2,0.1,0.4,0.1,0.6v0.7C120.5,78.4,120.5,78.7,120.4,79.1z"/>
	<path class="st4" d="M40.8,10.2c0,0,1.4-0.5,0.1-2.5c1.7,0.1,2.4,0.6,4.9-0.1c0.1,0.5-1.4,1.4,0,2.8c-0.4,0.7-1,3.6-0.7,4.4
		c0.3,0.8,1.4,3.4,1.4,3.4s-2.5-2.5-6.1-0.4c1.3-1.9,1.3-5.4,1.1-6.1C41.3,11,40.8,10.2,40.8,10.2z"/>
	<path class="st0" d="M52.6,12.2c0-0.6-0.1-1.1-0.3-1.7l0,0c-0.3-0.8-0.8-1.6-1.5-2.3c-0.7-0.6-1.6-1-2.5-1.2
		c-0.9-0.2-1.8-0.1-2.7,0c-0.8,0.2-1.7,0.4-2.4,0.9c-0.7-0.4-1.5-0.7-2.4-0.9c-0.9-0.2-1.8-0.2-2.7,0c-0.9,0.2-1.8,0.5-2.5,1.2
		c-0.7,0.6-1.1,1.4-1.5,2.3l0,0c-0.2,0.6-0.2,1.1-0.3,1.7c0,0.6,0,1.1,0.1,1.7c0.2,1,0.6,2,1.2,2.9c-0.3,0.6-0.5,1.3-0.5,2
		c0,0.8,0.1,1.6,0.4,2.4c0.3,0.8,0.8,1.4,1.3,2c0.6,0.5,1.2,0.9,1.9,1.2c0,0.1,0.1,0.1,0.1,0.1c0,0,0,0,0,0c0.6,0.6,1.2,1,1.9,1.3
		c0.4,0.2,0.9,0.3,1.3,0.4c0.4,0.1,0.9,0.1,1.3,0c0.4,0.1,0.9,0,1.3-0.1c0.4-0.1,0.9-0.2,1.3-0.4c0.6-0.3,1.3-0.7,1.8-1.2
		c0.1,0,0.2-0.1,0.3-0.3c0,0,0,0,0-0.1c0.7-0.3,1.3-0.7,1.9-1.2c0.6-0.6,1.1-1.2,1.3-2c0.3-0.8,0.4-1.6,0.4-2.4c0-0.7-0.2-1.4-0.5-2
		c0.7-0.9,1-1.9,1.2-2.9C52.6,13.4,52.6,12.8,52.6,12.2z M47,23.7c-0.4,0.5-0.9,0.9-1.5,1.4c-0.7,0.5-1.4,0.9-2.2,1.1
		c-0.8-0.2-1.6-0.6-2.2-1c-0.5-0.4-0.9-0.8-1.3-1.2c0-0.1,0-0.1-0.1-0.2c0-0.1-0.1-0.1-0.1-0.2c0.5,0.1,1.1,0.1,1.7,0.1
		c0.2,0,0.4-0.1,0.6-0.1c0.2,0,0.3-0.1,0.5-0.1c0.3,0,0.7-0.1,1-0.1c0.3,0,0.7,0,1,0.1c0.3,0,0.7,0.1,1.1,0.2c0.5,0,1,0,1.5,0
		C47.1,23.6,47,23.7,47,23.7z M52,13.8c-0.3,1-0.9,2-1.7,2.6l-0.2,0.2l0.1,0.4c0.2,0.6,0.3,1.2,0.3,1.9c0,0.6-0.2,1.3-0.4,1.9
		c-0.3,0.6-0.6,1.1-1.1,1.5c-0.1,0.1-0.2,0.2-0.3,0.3c0.2-2.1-1.1-4.2-1.7-5.3c-0.1-0.2-0.3-0.5-0.3-0.6c0,0,0,0,0,0c0,0,0,0,0-0.1
		l0,0c-0.3-0.4-0.6-0.9-0.9-1.4c-0.1-0.2-0.2-0.5-0.3-0.7c0-0.1-0.1-0.2-0.1-0.4l0-0.4c-0.1-0.6-0.1-1.1,0-1.7
		c0.1-0.6,0.3-1.1,0.5-1.6c-0.4,0.4-0.7,1-0.8,1.5c-0.2,0.6-0.3,1.2-0.3,1.8l0,0.4c0,0.1,0,0.3,0,0.5c0,0.3,0.1,0.6,0.2,0.9
		c0.2,0.6,0.4,1.1,0.6,1.6c0,0,0,0,0,0c0,0,0,0,0,0.1c0,0,0,0,0,0c0,0,0,0,0,0c0.1,0.2,0.2,0.4,0.3,0.6c0.7,1.2,2,3.5,1.4,5.4
		l-1.5-0.5c-0.4-0.1-0.7-0.3-1.1-0.4c-0.4-0.1-0.8-0.2-1.3-0.2c-0.4,0-0.8,0-1.2,0.1c-0.2,0.1-0.4,0.1-0.6,0.2l-0.5,0.2
		c-0.5,0.2-1.1,0.4-1.6,0.5c-0.7-1.9,0.7-4.2,1.4-5.4c0.2-0.3,0.3-0.5,0.3-0.6l0,0c0,0,0,0,0,0c0,0,0,0,0-0.1c0,0,0,0,0,0
		c0.2-0.5,0.4-1.1,0.6-1.6c0.1-0.3,0.1-0.6,0.2-0.9c0-0.2,0-0.4,0-0.5l0-0.4c-0.1-0.6-0.1-1.2-0.3-1.8c-0.2-0.6-0.5-1.1-0.8-1.5
		c0.3,0.5,0.5,1.1,0.5,1.6c0.1,0.6,0.1,1.1,0,1.7l0,0.4c0,0.2,0,0.2-0.1,0.4c-0.1,0.2-0.2,0.5-0.3,0.7c-0.2,0.5-0.5,1-0.8,1.4l0,0
		c0,0,0,0.1-0.1,0.1c0,0,0,0,0,0c-0.1,0.1-0.2,0.3-0.3,0.5c-0.7,1.2-1.9,3.3-1.7,5.4c-0.1-0.1-0.3-0.2-0.4-0.3
		c-0.5-0.4-0.8-1-1.1-1.5c-0.3-0.6-0.4-1.2-0.4-1.9c0-0.6,0.1-1.3,0.3-1.9l0.1-0.4l-0.2-0.2c-0.8-0.6-1.4-1.5-1.7-2.6
		c-0.1-0.5-0.2-1.1-0.2-1.6c0-0.5,0.2-1.1,0.4-1.5c0.4-0.7,1-1.3,1.6-1.7c0.6-0.4,1.3-0.8,2-0.9c1.5-0.4,3.2-0.3,4.8,0l0,0l0,0h0
		c1.7-0.3,3.3-0.4,4.8,0c0.7,0.2,1.4,0.5,2,0.9c0.6,0.4,1.2,1,1.6,1.7l0,0c0.2,0.5,0.4,1,0.4,1.5C52.2,12.8,52.2,13.3,52,13.8z"/>
	<path class="st8" d="M49.1,14.3c-0.5,0.1-0.9,0-1.2-0.1c-1.1-0.5-1.4-1.8-0.6-2.7c0.2-0.3,0.6-0.6,1.1-0.7c1.1-0.3,2.3,0.3,2.5,1.3
		C51,13,50.2,14,49.1,14.3z"/>
	<path class="st8" d="M39.4,11.1c1.2,0.9,0.7,2.9-0.7,3.2c-0.3,0-0.5,0.1-0.8,0c-1.2-0.3-1.9-1.3-1.7-2.2c0.2-1,1.3-1.6,2.5-1.3
		C38.9,10.8,39.2,11,39.4,11.1z"/>
	<ellipse class="st0" cx="48.6" cy="12.6" rx="0.8" ry="0.8"/>
	<ellipse class="st0" cx="38.3" cy="12.6" rx="0.9" ry="0.9"/>
</g>
</svg>
