<?xml version="1.0" encoding="utf-8"?>
<!-- Generator: Adobe Illustrator 23.0.0, SVG Export Plug-In . SVG Version: 6.00 Build 0)  -->
<svg version="1.1" id="Layer_1" xmlns="http://www.w3.org/2000/svg" xmlns:xlink="http://www.w3.org/1999/xlink" x="0px" y="0px"
	 viewBox="0 0 128 128" style="enable-background:new 0 0 128 128;" xml:space="preserve">
<style type="text/css">
	.st0{fill:#856241;}
	.st1{fill:#E3E3DC;}
	.st2{fill:#755537;}
	.st3{fill:#434547;}
	.st4{fill:#F4F4ED;}
	.st5{fill:#D98B3F;}
	.st6{fill:#A6A8A2;}
	.st7{fill:#7D7F7A;}
	.st8{fill:#4F5254;}
	.st9{fill:#2D2D2D;}
	.st10{fill:#8A391A;}
</style>
<g>
	<path class="st0" d="M67.5,99.7c-2.6,5.1-5,10.3-7.2,15.5c-0.6,1.4-1.1,2.8-1.7,4.2l-0.8,2.1l-0.2,0.5l-0.2,0.5
		c-0.1,0.3-0.3,0.6-0.5,0.9c-0.7,1.1-1.7,2-3,2.6c-0.6,0.3-1.3,0.5-1.9,0.6c-0.3,0.1-0.7,0.1-1,0.1l-1.1,0.1c-1.5,0.1-3,0.2-4.5,0.2
		c-0.7,0-1.5,0-2.2,0c-0.7,0-1.3-0.3-1.7-0.8c-0.4-0.5-0.4-1.3,0-1.8l1.1-2c0.7-1.3,1.5-2.6,2.2-3.9c1.4-2.7,2.6-5.4,3.8-8.1
		c1.2-2.7,2.3-5.5,3.3-8.4C56.1,100.8,62,99.3,67.5,99.7z"/>
	<path class="st1" d="M44.4,115.7c-0.3,0.7-1.2,2.6-1.8,4.1c-0.3,0.8-1,1.3-1.9,1.4c-1.7,0.2-4.7,0.4-6.3,0.2
		c-2.5-0.3-4.9-0.7-7.3-1.2c-2.4-0.4-4.9-0.8-7.2-1.7c-2.3-0.9-4.5-2.2-6.3-3.9c-1.8-1.7-3.2-3.7-3.9-5.9c-0.7-2.2-0.6-4.6,0-6.9
		c0.6-2.3,1.7-4.5,3-6.6c0.3-0.5,0.7-1,1-1.5c0.4-0.5,0.7-1,1.1-1.5c0.6-0.8,1.2-1.5,1.8-2.3c0.7,0.4,1.4,0.9,2.2,1.3
		c1.5,1.2,3.2,2.2,4.8,3.2c-3.2,1.4-4.8,5.2-5,8.8c0,0.5,0,1,0.1,1.4c0.1,0.5,0.1,0.9,0.2,1.4c0.3,1,0.7,1.8,1.3,2.6
		c1.1,1.5,2.6,2.7,4.1,3.7c0.8,0.5,1.6,1,2.4,1.3c0.8,0.4,1.7,0.7,2.6,1c1.8,0.6,3.6,1,5.4,1.2c1.8,0.2,3.6,0.2,5.5,0.1
		C41.7,115.8,42.9,116.1,44.4,115.7z"/>
	<path class="st1" d="M120.4,79c-0.2,0.7-0.8,1.3-1.5,1.5c-0.2,0.1-0.4,0.1-0.5,0.1l-0.3,0l-0.1,0l-0.1,0l0,0l-0.1,0l-1.4,0
		c-0.9,0.1-1.9,0.1-2.8,0.3c-1.9,0.4-3.7,1-5.3,1.9c-3.4,1.8-6.1,4.6-8.4,7.4c-2.3,2.9-4.4,6-6.4,9.1c-2,3.1-3.9,6.2-6.1,9
		c-2.2,2.9-4.6,5.6-7.5,7.5c-3,1.9-6.4,3.2-9.9,4.1c-1.8,0.4-3.5,0.8-5.3,1.1c-1.3,0.2-2.6,0.3-3.9,0.5c-0.3,0-0.6-0.3-0.5-0.6
		l0.3-0.7c0.6-1.4,1.1-2.8,1.7-4.2c0.2-0.4,0.3-0.7,0.4-0.9c0.3-0.8,1-1.4,1.8-1.7c0.9-0.3,1.7-0.5,2.5-0.6c1.5-0.2,2.9-0.4,4.3-0.8
		c1.4-0.4,2.8-0.9,4.2-1.6c0.7-0.3,1.3-0.7,1.9-1.2c0.6-0.4,1.2-0.9,1.8-1.4c2.2-2,4.2-4.2,5.9-6.6c1.8-2.4,3.4-4.8,5-7.2
		c1.6-2.4,3.2-4.8,4.9-7.2c1.7-2.3,3.6-4.5,5.7-6.4c1.1-0.9,2.2-1.8,3.4-2.6c0.6-0.4,1.3-0.7,1.9-1c0.7-0.3,1.3-0.6,2-0.8
		c2.7-1,5.6-1.4,8.4-1.4h0l1.4-0.1c0.4,0,0.8,0,1.2,0.2c0.7,0.3,1.3,1,1.5,1.7c0,0.2,0.1,0.4,0.1,0.6l0,0.7
		C120.5,78.3,120.5,78.6,120.4,79z"/>
	<path class="st0" d="M101.8,3.3l-0.9,2.3c-2.1,5.9-4.2,11.8-5.8,17.9l0,0l-0.3,0c-3.2,0.4-6,4.2-6.6,6.2l-0.3,1l1,0.2
		c1.9,0.5,1.7,1.8,1.6,2.2c0,0.2,0,0.3,0,0.5c-0.3,0.7-0.9,2.2-1.5,3.7c-0.7,1.8-1.5,3.6-1.9,4.6l-0.2,0.3c-2.3,3.6-7.6,3.5-9.3,2.6
		c0,0-0.1,0-0.1-0.1c1.5-2.8,2.9-5.6,4.2-8.4c0.7-1.5,1.3-3,2-4.4c0.6-1.5,1.3-3,1.8-4.5c1.2-3,2.1-6.2,3.3-9.2c1.2-3,2.5-6,3.9-8.9
		l2.1-4.4c0.1-0.2,0.2-0.4,0.3-0.5c0.1-0.2,0.2-0.3,0.3-0.4c0.2-0.3,0.4-0.5,0.6-0.8c0.5-0.5,1.1-0.8,1.7-1c0.3-0.1,0.6-0.1,1-0.1
		h1.2l0.6,0c0.2,0,0.5,0,0.5,0c0.2,0,0.4,0.1,0.5,0.2C101.8,2.4,101.9,2.9,101.8,3.3z"/>
	<path class="st0" d="M83.9,54.6c-0.7,1.1-1.2,2.2-1.8,3.4c-0.7,1.5-1.4,3-1.8,4.6c-0.5,1.6-0.8,3.2-1.3,4.8c-0.5,1.6-1.2,3-2,4.5
		c-0.8,1.5-1.5,2.9-2.1,4.4c-0.7,1.5-1.3,3-1.9,4.5c-1.1,3.1-2.4,6.1-3,9.4c-0.1,0-1.4-0.5-2.3-0.7c-2.2-0.3-4.2-1.7-4.2-1.7
		c-0.1-0.1-0.3-0.1-0.4-0.2c0.2-0.4,0.4-0.8,0.6-1.3c0.6-1.3,1.1-2.7,1.5-4.1c0.4-1.4,0.8-2.7,1.1-4.1c0,0,0,0,0,0
		c0.4-1.3,0.6-2.8,0.6-4.3c0-0.1,0.1-0.1,0.1-0.2c0.7-1.8,4.6-11.2,5.5-13.8c2.3-1.4,3.9-2.5,4.3-2.9C77.4,56.9,81.1,55.5,83.9,54.6
		z"/>
	<path class="st2" d="M96.9,2.1c0,0-5.7,23.6-9.2,27.7s-5.5,15.4-6.1,20.6c-0.7,5.2-4.9,17.2-7.4,19.4c-2.5,2.3-4.3,10.2-4.5,13.1
		s-3.8,11.3-6.5,13.1c-2.7,1.8-4.7,16-6.5,17.2c-1.8,1.1-9.6,13.7-13.5,13.9c7.6,0.8,11.7-1.1,11.7-1.1s4-3.2,4.8-6.6
		c0.9-3.3,11.6-31.5,12.2-32.7C72.4,85.6,81.8,60,82.4,59c0.6-1,8-22.3,8.5-23.5c0.5-1.1,8.1-22.6,8.7-23.6s3.4-8.9,3.1-9.5
		c-0.3-0.6-1.3-1.8-2.5-1.6S97,2.2,97,2.2"/>
	<path class="st1" d="M84.2,52.5c-3.1,0.9-8.1,2.8-8.3,2.9l-0.2,0.1C75.6,55.7,60.1,66.7,51.5,67c-1.6-0.6-3-1.6-4.6-2.8
		c-2.7-2-5.8-4.2-11.1-5c0,0,0,0-0.1,0l0,0c-0.9-0.5-1.9-1.1-2.7-1.7c-0.9-0.6-1.7-1.3-2.6-2.1c-0.8-0.7-1.5-1.6-2.2-2.4
		c-0.6-0.9-1.2-1.9-1.6-2.9c0.2,1.1,0.6,2.2,1.2,3.2c0.5,1,1.2,1.9,1.9,2.8c0.7,0.9,1.5,1.7,2.3,2.5c0.8,0.8,1.7,1.5,2.6,2.2
		c0.1,0.2,0.3,0.3,0.6,0.3c2.7,0.4,4.8,1.2,6.6,2.1c-3.1,1.8-6.2,3.7-8.8,5.2c-2.5,1.5-4.9,2.9-5.3,3.1c0,0,0,0-0.1,0
		c-0.1,0-0.2,0.1-0.3,0.2c-0.9,0.8-1.6,1.8-2.2,2.7c-0.6,0.9-1.1,1.9-1.5,2.9c-0.4,1-0.7,2-0.9,3.1c-0.2,1.1-0.3,2.2,0,3.2
		c-0.1-1.1,0.2-2.1,0.5-3.1s0.8-1.9,1.3-2.8c0.5-0.9,1.1-1.7,1.8-2.5c0.6-0.8,1.4-1.5,2.1-2l0,0c0.3-0.1,1.1-0.6,5.5-3.2
		c2.8-1.7,6.4-3.8,9.7-5.7c0.7,0.5,1.4,1,2,1.4c1.7,1.3,3.3,2.4,5.3,3.1l0.2,0.1h0.2c3.8-0.1,8.8-2.1,13.3-4.4
		c0,0.5,0.1,1.1,0.1,1.6c0.2,3.4,0.5,8-0.4,11.5c0,0.1,0,0.1-0.1,0.2v0c-0.1,1.4-0.4,2.8-0.6,4.2c-0.3,1.4-0.6,2.8-1,4.1
		c-0.4,1.3-0.9,2.7-1.6,3.9c-0.7,1.2-1.6,2.4-2.9,3c1.4-0.5,2.4-1.6,3.3-2.8c0.2-0.3,0.5-0.7,0.7-1c0.1,0.1,0.1,0.1,0.2,0.2
		c0.1,0.1,2.4,1.7,5.1,2c1.8,0.3,3.2,1.1,3.9,2.3c0.9,1.5,0.9,3.4,0.5,4.7c-7.6-2.1-17,0.7-22,2.2c-1.2,0.3-2.4,0.7-2.7,0.7
		c-1.4-0.4-2.2-1.1-2.6-2.1c-0.6-1.6,0.1-3.5,0.3-3.8c0.1-0.1,0.1-0.1,0.1-0.2l0.1-0.1l0.1-0.2l0.2-0.3l0.4-0.7l0.7-1.3
		c0.5-0.9,0.9-1.8,1.4-2.7c0.9-1.8,1.8-3.6,2.6-5.4c1.6-3.7,3.1-7.4,4.2-11.3c-1.4,3.8-3.1,7.3-5,10.8c-1,1.7-2,3.5-3,5.2
		c-0.5,0.8-1,1.7-1.6,2.5L44.2,93l-0.4,0.6l-0.2,0.3L43.5,94c-0.1,0.1-0.2,0.3-0.3,0.4c-0.2,0.3-0.4,0.8-0.6,1.5
		c-0.8,0.2-1.6,0.3-2.4,0.5c-1.1,0.2-2.1,0.2-3.2,0.3c-2.1,0.1-4.2-0.2-6.3-0.7c-1-0.3-2-0.6-2.9-1c-0.1-0.1-0.2-0.1-0.3-0.2
		l-0.3-0.2l-0.7-0.4l-1.4-0.8c-1.8-1.1-3.6-2.3-5.2-3.7l-0.1-0.1l-0.1-0.1c-1.6-0.8-3.1-1.7-4.5-2.8c-1.4-1-2.7-2.2-3.7-3.6
		c-1.1-1.4-1.9-2.9-2.4-4.5c-0.6-1.6-0.9-3.4-1.3-5.2c-0.4-3.3-0.5-6.6-0.3-9.8c0.1-1.6,0.4-3.3,0.7-4.9c0.4-1.6,0.8-3.2,1.4-4.7
		c1.2-3.1,2.8-6,4.8-8.6c1.9-2.6,4.1-5,6.7-7l0.2-0.1l0.1-0.2l0.8-1.8l0.8-1.8l0.8-1.7c0.3-0.6,0.6-1.1,0.9-1.7
		c0.6-1.1,1.3-2.2,2-3.3c0.6-0.8,1.2-1.7,1.9-2.4c0.7,1.8,1.5,3.6,2.8,5.2c0.8,0.9,1.7,1.8,2.7,2.4c1,0.7,2.2,1.1,3.3,1.4
		c2.3,0.6,4.6,0.6,6.8,0c2.2,0.7,4.6,0.5,6.7-0.3c0.3-0.1,0.5-0.2,0.8-0.3c0.3-0.1,0.5-0.2,0.8-0.4c0.5-0.2,1-0.5,1.5-0.8
		c1-0.6,1.9-1.3,2.8-2.2c0.6-0.6,1.1-1.3,1.6-2c1.3,0.4,3.3,0.7,5.8,0.7c1.6,0,3.3-0.1,5.1-0.4c5-0.9,11.1-1.9,14.8-2c0,0,0,0,0,0.1
		c-0.7,1.5-1.3,3-1.9,4.5c-0.6,1.5-1.2,3-1.8,4.5c-0.1,0.3-0.2,0.5-0.3,0.8h0c-4,0-7.6,1.2-16.2,4.7c-3.3,1.4-6.7,7.2-7.3,8.4
		c-0.2-0.1-0.3-0.1-0.4-0.2l0,0c0,0-0.2-0.2-0.3-0.3l-0.4-0.4c-0.3-0.3-0.6-0.5-0.9-0.8c-0.6-0.5-1.2-1-1.8-1.5
		c-1.2-1-2.5-1.9-3.9-2.7c-1.3-0.8-2.8-1.5-4.2-2.1c-1.4-0.6-2.9-1-4.4-1.4c1.5,0.5,2.9,1.1,4.2,1.8c1.3,0.7,2.6,1.6,3.9,2.5
		c1.2,0.9,2.4,1.9,3.5,3c0.5,0.5,1.1,1.1,1.6,1.6l0.8,0.8l0.4,0.4c0.1,0.1,0.2,0.2,0.2,0.3c0.1,0.2,0.3,0.4,0.5,0.5
		c0.1,0.1,3.6,1.3,5.9,1c2.1-0.3,11.6-2.2,12-2.2l0.7-0.1l0.1-0.7c0.2-2,0.6-4.1,1-5c0.2,0.7,0.5,1.7,2,2.4
		c2.1,1.1,6.9,1.3,10.1-1.3C86.7,47.8,86.6,51.3,84.2,52.5z"/>
	<path class="st3" d="M94.8,26.8c0,1.5-0.7,3.5-2.5,5.1c-0.1-0.4-0.2-0.8-0.4-1.2c-0.4-0.6-0.9-1.1-1.6-1.4c0.8-1.5,2.5-3.5,4.2-4
		C94.6,25.6,94.8,26.1,94.8,26.8z"/>
	<path class="st4" d="M59.4,11.1c-0.4-1-0.9-2-1.4-2.9c-0.6-0.9-1.3-1.6-2.1-2.3c-0.6-0.5-1.3-0.9-2-1.3c-0.7-0.1-1.4,0-2,0.1
		c-1,0.1-1.9,0.4-2.9,0.7c-1.9,0.6-3.6,1.6-5.2,2.7l-0.1,0.1l-0.1,0c-0.8-0.5-1.6-0.9-2.4-1.3c-0.8-0.4-1.7-0.7-2.6-1
		c-1.5-0.5-3-0.9-4.5-1.1C33.5,5,32.8,5.5,32.1,6c-0.8,0.6-1.6,1.4-2.3,2.2C29.1,9,28.6,10,28.2,11c-0.8,2.1-0.9,4.3-0.5,6.5
		c0.2,1.1,0.5,2.1,0.9,3.2c0.4,1,0.8,2,1.3,3.1c0.9,2.1,1.8,4,3.1,5.7c2.4,3.4,6.8,4.9,11.3,4.9h0c0,0,0,0,0,0
		c2.2,0.1,4.3-0.5,6.1-1.4c0.2-0.1,0.5-0.2,0.7-0.4c0.2-0.1,0.4-0.3,0.7-0.4l0.7-0.5l0.6-0.5c0.8-0.6,1.6-1.3,2.3-2.1
		c1.4-1.5,2.4-3.3,3.2-5.3c0.4-1,0.8-2,1.1-3c0.3-1,0.5-2.1,0.6-3.2C60.5,15.4,60.2,13.1,59.4,11.1z M54.6,17.3
		c-0.2,0.9-0.5,1.9-1.2,2.6c-0.3,0.3-0.8,0.6-1.3,0.7c-0.5,0.1-0.9,0.1-1.4,0.2c-0.8,0.1-1.7,0.1-2.5,0c0.2,0.3,0.4,0.5,0.6,0.8
		c0.3,0.4,0.6,0.9,0.8,1.4c0.3,0.5,0.5,0.9,0.7,1.4l0.1,0.2l-0.1,0.2c-0.6,1.2-1.4,2.2-2.4,3.2c-0.5,0.4-1.1,0.8-1.7,1.1
		c-0.6,0.3-1.3,0.5-2.1,0.5c-1.5,0.1-2.9-0.7-3.8-1.6c-1-0.9-1.7-2.1-2.3-3.2L38,24.6l0-0.1c0.2-1,0.6-2,1-2.8
		c0.1-0.2,0.3-0.5,0.4-0.7c-0.9,0-1.7-0.1-2.6-0.2c-0.9-0.1-1.8-0.3-2.6-1c-0.8-0.6-1.2-1.6-1.2-2.6c-0.1-1,0.2-2,0.7-2.8
		c0.2-0.4,0.6-0.8,1-1.1c0.4-0.3,0.8-0.6,1.3-0.7c1-0.3,2-0.3,2.9-0.2c0.5,0.1,0.9,0.2,1.4,0.4c0.5,0.2,0.8,0.3,1.2,0.4
		s0.8,0.1,1.2,0.1l1.3,0c0.4,0,0.9,0,1.3,0c0.4,0,0.8-0.1,1.2-0.2c0.4-0.1,0.8-0.3,1.3-0.4c0.4-0.1,0.9-0.2,1.4-0.3
		c0.9-0.1,1.9-0.2,2.9,0.1c0.5,0.2,1,0.4,1.4,0.8c0.4,0.4,0.6,0.8,0.8,1.3C54.6,15.4,54.7,16.4,54.6,17.3z"/>
	<path class="st5" d="M52.7,34.1c0,0,2.4,1.7,5.7,2.7c3.4,1,4.6,0.9,6.9-1.2c2.3-2.1,2.7-3.5,7.9-4c5.2-0.4,10.1-1.4,10.1-1.4
		s2.2-4.8,1.9-4.8c-0.3,0-8.8,0.8-12.6,1.4c-3.7,0.6-11.1,1.3-12.7,0.9c-1.7-0.4-2-0.5-3.2,0.8c-1.1,1.3-3.2,3.2-4,3.5
		C52,32.4,52.7,34.1,52.7,34.1z"/>
	<path class="st3" d="M29.5,26.5c0,0-3,2.8-1.1,7.1s6.2,5.1,8.7,5.2c3.9,0.1,8.1-0.8,11-1.6c5.5-1.6,12.9-7.9,12.7-8.8
		c-2-0.6-3-1.2-4.9,0.9c-2,2.1-6.4,5-11.7,5.1c-3.6,0.1-7.4,0.2-9.9-1.9S30,26.6,30,26.6"/>
	<path class="st5" d="M40,40c0,0-8,0.3-9.1,2.3c-1.2,2-0.5,13.5,1.9,15.9s5.4,2.5,7.1,2.8c1.7,0.4,8.7,7.1,11.4,7.2
		c2.7,0.1,12.3-3.9,15.2-5.2c2.8-1.3,8.5-6.3,10.2-6.9c1.7-0.5,2.8-1.8,1.4-2.9c-1.5-1.1-4.5-4.7-5.7-4.4s-6.8,1.5-10.1,2
		s-5,0.4-7.9-2.4c-2-1.9-6.4-5.1-8.5-6.1C43.6,41.3,40,40,40,40z"/>
	<path class="st5" d="M22.7,83.7c0,0-0.1-5.4,2.9-8.7s11.6-7.3,13-8.1c1.4-0.8,5-3.8,5.4-3.7s7.6,4.8,7.6,4.8s10.1-2.5,11.5-3.6
		s2.8-2.1,2.8-2.1S65,78.5,64.5,80.4c-0.5,1.9-2.4,7.6-2.4,8c0,0.4-1.5,3.5-4,4.7c-1,0.5-3.6,1.5-6,1.4c-3.4-0.2-6.6-1.9-5.4-4
		c1.3-2.1,4.4-9,5.5-10.6c1-1.6,1.6-4.7,1.8-5.4s-4.8,9.6-13.8,15.8c-3.6,2.4-8.6,7-14.2,3.9C20.5,91.2,22.7,83.7,22.7,83.7z"/>
	<path class="st6" d="M29.6,25.8c0,0-1.6,8.8,10.4,14.3c-10,1.5-10.6,15.8-5.1,19.3c-5.5-0.3,6.2,2.1,6.2,2.1s3.1,2.1,2.7,2.1
		c-0.4,0-13,7.6-13.4,7.6c-0.4,0-4.5,3-5.2,4.1c-0.7,1-5.7,11.9,0.5,18.7c-6.9-4-13.9-6.2-15.8-12.6c-1.9-6.4-3.9-12.9-2-22.1
		s7.1-17.3,9.4-18.6s3.7-3.4,3.7-3.4s3.2-6.9,4.7-8.5c1.6-1.6,3.7-4.6,3.7-4.6L29.6,25.8z"/>
	<path class="st7" d="M7.8,73.4c0,0,6.1,13.3,15,10.3c-0.5,3.5-0.3,5.8,2.8,10.4c-2.6-1.7-8.3-4.5-9.9-5.9s-6.8-6.1-7.3-9
		C8,76.4,7.8,73.4,7.8,73.4z"/>
	<path class="st8" d="M53.1,4c-0.4,0-0.8-0.1-1.2-0.1c-1,0-2.1,0.1-3.1,0.4c-1,0.2-2,0.6-3,1.1c-0.7,0.4-1.4,0.8-2.1,1.2
		c-0.6-0.4-1.3-0.7-2-1C40.9,5.3,40,4.9,39,4.7c-0.9-0.2-1.9-0.4-2.8-0.4c-0.5,0-0.9-0.1-1.4-0.1c0.9-0.5,1.9-0.9,2.9-1.3
		c2-0.7,4.2-1.1,6.4-1.5c2.2,0.4,4.3,0.8,6.3,1.4C51.4,3.2,52.2,3.6,53.1,4z"/>
	<path class="st7" d="M28.1,53.4c0,0-0.9,5.5,5.3,9.3c-3.9,3.6-6.3,8.7-7.8,12.3c2.8-2.6,14.9-10.9,17.9-11.5
		c-2.3-1.5-6.9-3.1-8.3-3.5c-1.4-0.4-5.3-4.4-6.9-6.7"/>
	<path class="st3" d="M48.7,25.3c-0.5,0.6-1,1.2-1.6,1.6c-0.9,0.7-2,1.3-3,1.3c-1.1,0.1-2.1-0.5-3-1.2c-0.6-0.5-1.1-1.1-1.6-1.8
		c1.6-0.1,3.2-0.2,4.7-0.1c0.9,0,1.7,0,2.6,0.1C47.5,25.2,48.1,25.3,48.7,25.3z"/>
	<path class="st3" d="M74.2,43.3C74,43,72.5,49,72.6,49.1c0.1,0.1,4.6,2.6,3.1,6.5c2.3,0,9.6-2.2,10.4-3.2s1.4-8.7,1.2-8.9
		c-0.1-0.2-4.3,2.7-6.3,2.9C79.1,46.6,76.3,45.5,74.2,43.3z"/>
	<path class="st6" d="M15.2,91.1c0,0,4.8,5.8,3.9,12.7c2.3-6.6,5-9.1,5.8-9.5c-3.2-2.2-8.2-5.5-8.2-5.5L15.2,91.1z"/>
	<path class="st3" d="M46.7,91.2c-0.2,0.2-2.9,4.9-3.2,5.5c-0.3,0.6,1.3,6.7,3.8,5.7c2.5-1,14.8-5,24.3-3c0.9-1,1.9-3.7,1.4-5.1
		c-0.5-1.3-2-3.2-3.9-3.5c-1.8-0.3-6-1.9-6.2-2.2c-0.3-0.4-0.5-0.3-0.7-0.2s-2,3.4-2.6,3.7c-0.6,0.3-2,2.2-8.7,1.8
		C48.8,93.8,46.7,91.2,46.7,91.2z"/>
	<path class="st9" d="M54.3,14.4c-0.2-0.5-0.4-0.9-0.8-1.3c-0.4-0.4-0.9-0.7-1.4-0.8c-1-0.3-2-0.2-2.9-0.1c-0.5,0.1-0.9,0.2-1.4,0.3
		c-0.4,0.1-0.9,0.3-1.3,0.4c-0.4,0.1-0.8,0.2-1.2,0.2c-0.4,0-0.9,0-1.3,0l-1.3,0c-0.4,0-0.8-0.1-1.2-0.1s-0.7-0.2-1.2-0.4
		c-0.5-0.2-0.9-0.3-1.4-0.4c-0.9-0.2-2-0.2-2.9,0.2c-0.5,0.2-0.9,0.4-1.3,0.7c-0.4,0.3-0.7,0.7-1,1.1c-0.5,0.9-0.8,1.9-0.7,2.8
		c0.1,1,0.5,2,1.2,2.6c0.7,0.6,1.7,0.9,2.6,1c0.9,0.1,1.7,0.2,2.6,0.2c-0.2,0.2-0.3,0.4-0.4,0.7c-0.5,0.9-0.9,1.8-1,2.8l0,0.1
		l0.1,0.2c0.6,1.1,1.3,2.2,2.3,3.2c0.9,0.9,2.3,1.7,3.8,1.6c0.7,0,1.4-0.2,2.1-0.5c0.6-0.3,1.2-0.7,1.7-1.1c1-0.9,1.8-1.9,2.4-3.2
		l0.1-0.2l-0.1-0.2c-0.2-0.4-0.4-0.9-0.7-1.4c-0.3-0.5-0.5-0.9-0.8-1.4c-0.2-0.3-0.4-0.6-0.6-0.8c0.8,0.1,1.7,0.1,2.5,0
		c0.5,0,0.9-0.1,1.4-0.2c0.5-0.1,0.9-0.4,1.3-0.7c0.7-0.7,1.1-1.6,1.2-2.6C54.7,16.4,54.6,15.4,54.3,14.4z M47.1,27
		c-0.9,0.7-2,1.3-3,1.3c-1.1,0.1-2.1-0.5-3-1.2c-0.6-0.5-1.1-1.1-1.6-1.8c1.6-0.1,3.2-0.2,4.7-0.1c0.9,0,1.7,0,2.6,0.1
		c0.6,0,1.3,0.1,1.9,0.1C48.3,25.9,47.7,26.5,47.1,27z M53.8,17.2c-0.1,0.8-0.4,1.6-0.9,2.3c-0.3,0.3-0.6,0.6-1,0.7
		c-0.4,0.1-0.8,0.2-1.3,0.3c-0.8,0.1-1.6,0.2-2.5,0.3c-0.4-0.5-0.9-1-1.5-1.5c0.7,0.8,1.2,1.7,1.6,2.6c0.2,0.5,0.4,0.9,0.6,1.4
		l0.5,1.2c-0.1,0.2-0.3,0.4-0.4,0.6c-0.6-0.4-1.3-0.6-2-0.8c-0.9-0.3-1.8-0.4-2.7-0.4c-0.9,0-1.8,0.1-2.7,0.3
		c-0.7,0.2-1.5,0.5-2.1,0.9c-0.2-0.2-0.3-0.4-0.5-0.7c0-0.4,0.1-0.8,0.2-1.2c0.1-0.4,0.3-0.9,0.4-1.3c0.3-0.9,0.8-1.8,1.2-2.6
		c-0.5,0.5-0.9,1.1-1.3,1.7c-0.9-0.2-1.7-0.3-2.5-0.5c-0.9-0.2-1.7-0.5-2.2-1.1c-1.2-1.2-1-3.2-0.1-4.4c0.5-0.7,1.1-1.2,1.8-1.4
		c0.7-0.2,1.6-0.2,2.4,0c0.4,0.1,0.8,0.2,1.2,0.3c0.4,0.1,0.8,0.3,1.3,0.4c0.5,0.1,1,0.2,1.5,0.2l1.3,0c0.5,0,0.9,0,1.4,0
		c0.5,0,1-0.1,1.5-0.2c0.5-0.2,0.9-0.3,1.3-0.4c0.4-0.1,0.8-0.2,1.2-0.3c0.8-0.2,1.7-0.2,2.4,0c0.4,0.1,0.7,0.3,0.9,0.5
		c0.2,0.2,0.5,0.6,0.6,1C53.7,15.5,53.8,16.4,53.8,17.2z"/>
	<path class="st8" d="M53.4,14.8c-0.2-0.3-0.4-0.7-0.6-1c-0.3-0.2-0.6-0.4-0.9-0.5c-0.7-0.2-1.6-0.1-2.4,0c-0.4,0.1-0.8,0.2-1.2,0.3
		c-0.4,0.1-0.8,0.3-1.3,0.4c-0.5,0.1-1,0.2-1.5,0.2c-0.5,0-0.9,0-1.4,0l-1.3,0c-0.5,0-1-0.1-1.5-0.2c-0.5-0.1-1-0.3-1.3-0.4
		c-0.4-0.1-0.8-0.2-1.2-0.3c-0.8-0.2-1.6-0.2-2.4,0c-0.7,0.2-1.4,0.7-1.8,1.4c-0.9,1.3-1,3.3,0.1,4.4c0.6,0.6,1.4,0.9,2.2,1.1
		c0.8,0.2,1.7,0.4,2.5,0.5c0.4-0.6,0.8-1.2,1.3-1.7c-0.5,0.8-0.9,1.7-1.2,2.6c-0.2,0.4-0.3,0.9-0.4,1.3C39,23.6,39,24,38.9,24.4
		c0.2,0.2,0.3,0.4,0.5,0.7c0.7-0.4,1.4-0.7,2.1-0.9c0.9-0.2,1.8-0.3,2.7-0.3c0.9,0,1.8,0.1,2.7,0.4c0.7,0.2,1.4,0.5,2,0.8
		c0.2-0.2,0.3-0.4,0.4-0.6l-0.5-1.2c-0.2-0.5-0.4-0.9-0.6-1.4c-0.4-0.9-1-1.8-1.6-2.6c0.5,0.4,1,0.9,1.5,1.5c0.8,0,1.7-0.1,2.5-0.3
		c0.4-0.1,0.9-0.2,1.3-0.3c0.4-0.1,0.7-0.4,1-0.7c0.5-0.6,0.8-1.4,0.9-2.3C53.8,16.4,53.7,15.5,53.4,14.8z M43.3,22.5
		c-0.8,0.5-1.5-0.4-1.7-1.1c-0.1-0.4,0.2-0.9,0.7-1c0.7-0.1,0.7,0.3,0.7,0.7C43,22.1,43.8,22.2,43.3,22.5z M46.9,21.4
		c-0.2,0.7-0.9,1.5-1.7,1.1c-0.5-0.2,0.3-0.4,0.4-1.3c0-0.4,0-0.8,0.7-0.7C46.7,20.5,47,21,46.9,21.4z"/>
	<path class="st9" d="M121.5,77.8l0-0.7c0-0.2,0-0.5-0.1-0.8c-0.3-1-1.1-1.9-2-2.2c-0.5-0.2-1-0.2-1.5-0.2l-1.4,0.2
		c-0.7,0-1.4,0.1-2.2,0.1c-0.7,0.1-1.5,0.1-2.2,0.3c-0.7,0.1-1.4,0.3-2.2,0.5c-0.7,0.2-1.4,0.4-2.1,0.6c-2.8,1-5.3,2.5-7.7,4.3
		c-2.3,1.8-4.4,4-6.2,6.2c-1.9,2.3-3.6,4.6-5.2,7.1c-3.3,4.8-6.4,9.7-10.5,13.7c-0.5,0.5-1,1-1.6,1.4c-0.5,0.4-1.1,0.8-1.7,1.2
		c-1.2,0.7-2.5,1.3-3.9,1.7c-2.4,0.8-5,1.3-7.5,1.6c1.6-4.3,3.1-8.6,4.4-13.1c1.2,0.1,2.5,0.3,3.6,0.6c0.9,0.2,1.7-0.2,2-1.1
		c0.6-1.8,0.7-4.4-0.6-6.6c-0.5-0.8-1.7-1.7-2.2-2.1c-0.2-0.1-0.2-0.3-0.1-0.5c1.7-2.8,3-5.7,4.2-8.6c0.6-1.5,1.1-3.1,1.7-4.6
		c0.5-1.5,1-3.1,1.4-4.7c0.4-1.6,0.9-3.2,1.6-4.7c0.6-1.5,1.5-2.9,2.2-4.4c0.7-1.5,1.2-3,1.7-4.6c0.4-1.3,0.8-2.7,1.1-4.1
		c0.1,0,0.2-0.1,0.3-0.1l0.2-0.1c3.7-1.9,3.6-6.7,3.5-9.8c0-0.5,0-1,0-1.4c0-0.1,0.1-0.1,0.1-0.2c0.3-0.7,1.2-3,2-4.9
		c0.6-1.4,1.2-2.8,1.5-3.6c0,0,0.1,0,0.1,0c3.4-2.1,4.5-5.4,4.5-7.7c0-1.5-0.5-2.6-1.4-3.1c2.8-5.7,5.2-11.5,7.5-17.3l0.9-2.3
		c0.2-0.6,0.3-1.2,0.1-1.8c-0.2-0.6-0.5-1.1-1-1.5c-0.5-0.4-1.1-0.6-1.7-0.6c-0.3,0-0.5,0-0.7,0l-0.6,0l-1.2,0.1
		c-0.5,0-1,0.1-1.4,0.2c-0.9,0.3-1.8,0.8-2.4,1.5c-0.3,0.3-0.6,0.7-0.8,1.1c-0.1,0.2-0.2,0.4-0.3,0.6l-0.2,0.6l-1.7,4.6
		c-1.1,3.1-2.3,6.1-3.6,9.1c-1,2.3-2.2,4.6-3.3,6.8c-3.7,0-10.2,1-16,2.1c-4,0.7-7.5,0.4-9.6-0.1c0.4-0.8,0.6-1.6,0.9-2.3
		c0.4-1,0.8-2.2,0.9-3.3c0.2-1.2,0.2-2.3,0.2-3.5c-0.1-2.3-0.6-4.5-1.2-6.7c-0.3-1.1-0.6-2.1-1.1-3.2c-0.5-1.1-1.1-2.1-2-3
		c-0.8-0.9-1.8-1.5-2.9-2c-0.5-0.3-1.1-0.5-1.6-0.7c-0.6-0.2-1.1-0.3-1.7-0.5c-2.2-0.5-4.5-0.6-6.7-0.2C41.9,1,39.6,1,37.3,1.6
		c-0.6,0.1-1.1,0.3-1.7,0.5c-0.5,0.2-1.1,0.4-1.6,0.7c-1.1,0.5-2.1,1.2-2.9,2c-0.9,0.8-1.6,1.8-2.2,2.8c-0.6,1-1,2.1-1.3,3.2
		c-0.7,2.2-1,4.5-0.9,6.8c0,1.2,0.2,2.3,0.5,3.5c0.3,1.1,0.7,2.2,1,3.3c0.1,0.2,0.2,0.5,0.3,0.7c-0.9,0.6-1.6,1.4-2.4,2.2
		c-0.9,1-1.6,2.1-2.4,3.2c-0.7,1.1-1.4,2.2-2,3.4c-0.6,1.1-1.1,2.2-1.6,3.3c-2.7,2-5,4.5-6.8,7.3c-1.8,2.9-3.2,6-4.2,9.2
		c-0.5,1.6-0.9,3.2-1.3,4.9c-0.3,1.6-0.6,3.3-0.8,5c-0.4,3.3-0.5,6.7-0.4,10.1l0,0.1c0.3,1.7,0.5,3.6,1,5.4c0.5,1.8,1.4,3.6,2.5,5.1
		c1.1,1.5,2.5,2.9,4,4c0.7,0.5,0.7,0.6,1.4,1.1c-1.8,1.3-2.7,3.3-4.1,5.1c-1.6,2-2.9,4.3-3.7,6.9c-0.7,2.6-0.7,5.5,0.3,8
		c0.5,1.3,1.2,2.4,2.1,3.4c0.8,1,1.9,1.9,2.9,2.6c2.1,1.5,4.4,2.6,6.7,3.7c2.3,1,4.7,2,7.1,2.7c1.2,0.3,2.5,0.6,3.7,0.7
		c1.3,0.2,2.5,0.3,3.8,0.3c2.4,0.1,4.8,0,7.1-0.3l-0.6,1.6c-0.4,0.8-0.3,1.8,0.2,2.5c0.2,0.4,0.6,0.6,1,0.8c0.4,0.2,0.8,0.3,1.2,0.3
		c0.7,0,1.5,0,2.2,0c1.5,0,3,0.1,4.5,0.2l1.1,0.1c0.4,0,0.8,0,1.2,0c0.8-0.1,1.6-0.2,2.4-0.5c1.5-0.6,2.9-1.7,3.8-3
		c0.2-0.3,0.4-0.7,0.6-1.1l0.3-0.6c0.2-0.6,0.8-0.9,1.4-0.9c1.3,0,2.6-0.1,3.8-0.1c1.8-0.1,3.7-0.4,5.5-0.7c1.8-0.4,3.6-0.8,5.4-1.4
		c1.8-0.6,3.5-1.4,5.1-2.4c1.6-1,3.1-2.2,4.5-3.5c1.3-1.3,2.6-2.7,3.7-4.2c2.3-2.9,4.3-6,6.3-9.1c2-3.1,3.9-6.2,6.1-9
		c2.2-2.8,4.7-5.4,7.8-7.2c1.5-0.9,3.1-1.5,4.9-1.9c0.8-0.2,1.7-0.3,2.6-0.4l1.3-0.1l0.1,0l0.2,0c0.1,0,0.3,0,0.4,0
		c0.3,0,0.5-0.1,0.8-0.2c1-0.4,1.9-1.2,2.1-2.3C121.5,78.8,121.5,78.2,121.5,77.8z M82.1,58c-0.7,1.5-1.4,3-1.8,4.6
		c-0.5,1.6-0.8,3.2-1.3,4.8c-0.5,1.6-1.2,3-2,4.5c-0.8,1.5-1.5,2.9-2.1,4.4c-0.7,1.5-1.3,3-1.9,4.5c-1.1,3.1-2.4,6.1-3,9.4
		c-0.1,0-1.4-0.5-2.3-0.7c-2.2-0.3-4.2-1.7-4.2-1.7c-0.1-0.1-0.3-0.1-0.4-0.2c0.2-0.4,0.4-0.8,0.6-1.3c0.6-1.3,1.1-2.7,1.5-4.1
		c0.4-1.4,0.8-2.7,1.1-4.1c0,0,0,0,0,0c0.4-1.3,0.6-2.8,0.6-4.3c0-0.1,0.1-0.1,0.1-0.2c0.7-1.8,4.6-11.2,5.5-13.8
		c2.3-1.4,3.9-2.5,4.3-2.9c0.7-0.3,4.4-1.6,7.1-2.5C83.2,55.7,82.7,56.9,82.1,58z M66.5,63.5c1.2-0.6,2.3-1.3,3.3-1.9
		c-0.8,2.1-2,5-3,7.4c0-1.1-0.1-2.1-0.2-3C66.6,65.1,66.6,64.2,66.5,63.5z M92.3,31.9c-0.1-0.4-0.2-0.8-0.4-1.2
		c-0.4-0.6-0.9-1.1-1.6-1.4c0.8-1.5,2.5-3.5,4.2-4c0.1,0.2,0.3,0.7,0.3,1.5C94.8,28.3,94.1,30.4,92.3,31.9z M85.4,27.3
		c1.2-3,2.1-6.2,3.3-9.2c1.2-3,2.5-6,3.9-8.9l2.1-4.4c0.1-0.2,0.2-0.4,0.3-0.5c0.1-0.2,0.2-0.3,0.3-0.4c0.2-0.3,0.4-0.5,0.6-0.8
		c0.5-0.5,1.1-0.8,1.7-1c0.3-0.1,0.6-0.1,1-0.1h1.2l0.6,0c0.2,0,0.5,0,0.5,0c0.2,0,0.4,0.1,0.5,0.2c0.3,0.3,0.4,0.7,0.3,1.1
		l-0.9,2.3c-2.1,5.9-4.2,11.8-5.8,17.9l0,0l-0.3,0c-3.2,0.4-6,4.2-6.6,6.2l-0.3,1l1,0.2c1.9,0.5,1.7,1.8,1.6,2.2c0,0.2,0,0.3,0,0.5
		c-0.3,0.7-0.9,2.2-1.5,3.7c-0.7,1.8-1.5,3.6-1.9,4.6l-0.2,0.3c-2.3,3.6-7.6,3.5-9.3,2.6c0,0-0.1,0-0.1-0.1c1.5-2.8,2.9-5.6,4.2-8.4
		c0.7-1.5,1.3-3,2-4.4C84.2,30.3,84.8,28.8,85.4,27.3z M77.2,44.5c-0.5-0.4-0.6-0.7-0.7-1.2c-0.1-0.5-0.3-1.4-1.4-1.6l-0.1,0
		c-0.3,0-0.8,0-1.2,0.3c-1.2,1-1.7,4.3-1.9,6c-2.3,0.4-9.5,1.8-11.2,2.1c-0.6,0.1-1.5,0-2.3-0.2c1.2-2.1,3.9-6.2,6.2-7.1
		c7.8-3.2,11.3-4.4,14.8-4.5C78.5,40.4,77.8,42.4,77.2,44.5z M37.7,3c2-0.7,4.2-1.1,6.4-1.5c2.2,0.4,4.3,0.8,6.3,1.4
		c0.9,0.3,1.7,0.7,2.6,1.1c-0.4,0-0.8-0.1-1.2-0.1c-1,0-2.1,0.1-3.1,0.4c-1,0.2-2,0.6-3,1.1c-0.7,0.4-1.4,0.8-2.1,1.2
		c-0.6-0.4-1.3-0.7-2-1C40.9,5.3,40,4.9,39,4.7c-0.9-0.2-1.9-0.4-2.8-0.4c-0.5,0-0.9-0.1-1.4-0.1C35.7,3.7,36.7,3.3,37.7,3z
		 M27.6,17.5c-0.4-2.2-0.3-4.4,0.5-6.5c0.4-1,1-2,1.7-2.8c0.7-0.8,1.5-1.6,2.3-2.2c0.7-0.5,1.4-1,2.1-1.4c1.5,0.2,3,0.6,4.5,1.1
		c0.9,0.3,1.7,0.6,2.6,1c0.8,0.4,1.6,0.8,2.4,1.3l0.1,0L43.9,8c1.6-1.2,3.4-2.1,5.2-2.7C50,4.9,51,4.7,52,4.6c0.7-0.1,1.4-0.1,2-0.1
		c0.7,0.4,1.4,0.8,2,1.3c0.8,0.7,1.5,1.4,2.1,2.3c0.6,0.9,1,1.9,1.4,2.9c0.7,2.1,1,4.3,0.8,6.4c-0.1,1.1-0.3,2.1-0.6,3.2
		c-0.3,1-0.7,2-1.1,3c-0.8,2-1.8,3.8-3.2,5.3c-0.7,0.8-1.5,1.4-2.3,2.1l-0.6,0.5L51.7,32c-0.2,0.2-0.4,0.3-0.7,0.4
		c-0.2,0.1-0.4,0.3-0.7,0.4c-1.8,1-4,1.5-6.1,1.4c0,0,0,0,0,0h0c-4.4,0-8.9-1.5-11.3-4.9c-1.3-1.6-2.2-3.6-3.1-5.7
		c-0.5-1-0.9-2-1.3-3.1C28.1,19.6,27.8,18.6,27.6,17.5z M15.3,86.7c-1.4-1-2.7-2.2-3.7-3.6c-1.1-1.4-1.9-2.9-2.4-4.5
		c-0.6-1.6-0.9-3.4-1.3-5.2c-0.4-3.3-0.5-6.6-0.3-9.8c0.1-1.6,0.4-3.3,0.7-4.9c0.4-1.6,0.8-3.2,1.4-4.7c1.2-3.1,2.8-6,4.8-8.6
		c1.9-2.6,4.1-5,6.7-7l0.2-0.1l0.1-0.2l0.8-1.8l0.8-1.8l0.8-1.7c0.3-0.6,0.6-1.1,0.9-1.7c0.6-1.1,1.3-2.2,2-3.3
		c0.6-0.8,1.2-1.7,1.9-2.4c0.7,1.8,1.5,3.6,2.8,5.2c0.8,0.9,1.7,1.8,2.7,2.4c1,0.7,2.2,1.1,3.3,1.4c2.3,0.6,4.6,0.6,6.8,0
		c2.2,0.7,4.6,0.5,6.7-0.3c0.3-0.1,0.5-0.2,0.8-0.3c0.3-0.1,0.5-0.2,0.8-0.4c0.5-0.2,1-0.5,1.5-0.8c1-0.6,1.9-1.3,2.8-2.2
		c0.6-0.6,1.1-1.3,1.6-2c1.3,0.4,3.3,0.7,5.8,0.7c1.6,0,3.3-0.1,5.1-0.4c5-0.9,11.1-1.9,14.8-2c0,0,0,0,0,0.1
		c-0.7,1.5-1.3,3-1.9,4.5c-0.6,1.5-1.2,3-1.8,4.5c-0.1,0.3-0.2,0.5-0.3,0.8h0c-4,0-7.6,1.2-16.2,4.7c-3.3,1.4-6.7,7.2-7.3,8.4
		c-0.2-0.1-0.3-0.1-0.4-0.2l0,0c0,0-0.2-0.2-0.3-0.3l-0.4-0.4c-0.3-0.3-0.6-0.5-0.9-0.8c-0.6-0.5-1.2-1-1.8-1.5
		c-1.2-1-2.5-1.9-3.9-2.7c-1.3-0.8-2.8-1.5-4.2-2.1c-1.4-0.6-2.9-1-4.4-1.4c1.5,0.5,2.9,1.1,4.2,1.8c1.3,0.7,2.6,1.6,3.9,2.5
		c1.2,0.9,2.4,1.9,3.5,3c0.5,0.5,1.1,1.1,1.6,1.6l0.8,0.8l0.4,0.4c0.1,0.1,0.2,0.2,0.2,0.3c0.1,0.2,0.3,0.4,0.5,0.5
		c0.1,0.1,3.6,1.3,5.9,1c2.1-0.3,11.6-2.2,12-2.2l0.7-0.1l0.1-0.7c0.2-2,0.6-4.1,1-5c0.2,0.7,0.5,1.7,2,2.4
		c2.1,1.1,6.9,1.3,10.1-1.3c0.1,2.7-0.1,6.2-2.5,7.4c-3.1,0.9-8.1,2.8-8.3,2.9l-0.2,0.1C75.6,55.7,60.1,66.7,51.5,67
		c-1.6-0.6-3-1.6-4.6-2.8c-2.7-2-5.8-4.2-11.1-5c0,0,0,0-0.1,0l0,0c-0.9-0.5-1.9-1.1-2.7-1.7c-0.9-0.6-1.7-1.3-2.6-2.1
		c-0.8-0.7-1.5-1.6-2.2-2.4c-0.6-0.9-1.2-1.9-1.6-2.9c0.2,1.1,0.6,2.2,1.2,3.2c0.5,1,1.2,1.9,1.9,2.8c0.7,0.9,1.5,1.7,2.3,2.5
		c0.8,0.8,1.7,1.5,2.6,2.2c0.1,0.2,0.3,0.3,0.6,0.3c2.7,0.4,4.8,1.2,6.6,2.1c-3.1,1.8-6.2,3.7-8.8,5.2c-2.5,1.5-4.9,2.9-5.3,3.1
		c0,0,0,0-0.1,0c-0.1,0-0.2,0.1-0.3,0.2c-0.9,0.8-1.6,1.8-2.2,2.7c-0.6,0.9-1.1,1.9-1.5,2.9c-0.4,1-0.7,2-0.9,3.1
		c-0.2,1.1-0.3,2.2,0,3.2c-0.1-1.1,0.2-2.1,0.5-3.1s0.8-1.9,1.3-2.8c0.5-0.9,1.1-1.7,1.8-2.5c0.6-0.8,1.4-1.5,2.1-2l0,0
		c0.3-0.1,1.1-0.6,5.5-3.2c2.8-1.7,6.4-3.8,9.7-5.7c0.7,0.5,1.4,1,2,1.4c1.7,1.3,3.3,2.4,5.3,3.1l0.2,0.1h0.2
		c3.8-0.1,8.8-2.1,13.3-4.4c0,0.5,0.1,1.1,0.1,1.6c0.2,3.4,0.5,8-0.4,11.5c0,0.1,0,0.1-0.1,0.2v0c-0.1,1.4-0.4,2.8-0.6,4.2
		c-0.3,1.4-0.6,2.8-1,4.1c-0.4,1.3-0.9,2.7-1.6,3.9c-0.7,1.2-1.6,2.4-2.9,3c1.4-0.5,2.4-1.6,3.3-2.8c0.2-0.3,0.5-0.7,0.7-1
		c0.1,0.1,0.1,0.1,0.2,0.2c0.1,0.1,2.4,1.7,5.1,2c1.8,0.3,3.2,1.1,3.9,2.3c0.9,1.5,0.9,3.4,0.5,4.7c-7.6-2.1-17,0.7-22,2.2
		c-1.2,0.3-2.4,0.7-2.7,0.7c-1.4-0.4-2.2-1.1-2.6-2.1c-0.6-1.6,0.1-3.5,0.3-3.8c0.1-0.1,0.1-0.1,0.1-0.2l0.1-0.1l0.1-0.2l0.2-0.3
		l0.4-0.7l0.7-1.3c0.5-0.9,0.9-1.8,1.4-2.7c0.9-1.8,1.8-3.6,2.6-5.4c1.6-3.7,3.1-7.4,4.2-11.3c-1.4,3.8-3.1,7.3-5,10.8
		c-1,1.7-2,3.5-3,5.2c-0.5,0.8-1,1.7-1.6,2.5L44.2,93l-0.4,0.6l-0.2,0.3L43.5,94c-0.1,0.1-0.2,0.3-0.3,0.4c-0.2,0.3-0.4,0.8-0.6,1.5
		c-0.8,0.2-1.6,0.3-2.4,0.5c-1.1,0.2-2.1,0.2-3.2,0.3c-2.1,0.1-4.2-0.2-6.3-0.7c-1-0.3-2-0.6-2.9-1c-0.1-0.1-0.2-0.1-0.3-0.2
		l-0.3-0.2l-0.7-0.4l-1.4-0.8c-1.8-1.1-3.6-2.3-5.2-3.7l-0.1-0.1l-0.1-0.1C18.2,88.7,16.7,87.7,15.3,86.7z M42.7,99.8
		c0.4,1.2,1.4,2.8,4.1,3.5c0.1,0,0.2,0,0.3,0c0.5,0,1.4-0.2,3.3-0.8c0.4-0.1,0.9-0.3,1.3-0.4c-1.6,2.5-3,5.1-4.3,7.7
		c-0.8,1.6-1.7,3.2-2.5,4.9c-3.4-0.1-6.7-0.3-10-0.8c-1.7-0.3-3.5-0.5-5.2-0.9c-1.7-0.4-3.4-0.9-5-1.5c-0.8-0.3-1.6-0.7-2.3-1.2
		c-0.7-0.5-1.3-1.1-1.8-1.9c-0.4-0.7-0.7-1.6-0.7-2.4c0-0.4,0-0.8,0.1-1.3c0-0.2,0-0.4,0.1-0.6c0-0.2,0.1-0.4,0.1-0.6
		c0-0.4,0.2-0.8,0.2-1.2c0.1-0.4,0.2-0.8,0.3-1.2c0.3-0.8,0.6-1.6,1-2.3c0.7-1.3,1.7-2.6,2.9-3.7l1,0.5l0.7,0.4l0.4,0.2
		c0.1,0.1,0.3,0.1,0.4,0.2c1.1,0.4,2.2,0.7,3.3,0.9c2.2,0.4,4.5,0.5,6.7,0.2c1.9-0.2,3.7-0.7,5.4-1.3C42.3,97.3,42.3,98.6,42.7,99.8
		z M40.8,121.2c-1.7,0.2-4.7,0.4-6.3,0.2c-2.5-0.3-4.9-0.7-7.3-1.2c-2.4-0.4-4.9-0.8-7.2-1.7c-2.3-0.9-4.5-2.2-6.3-3.9
		c-1.8-1.7-3.2-3.7-3.9-5.9c-0.7-2.2-0.6-4.6,0-6.9c0.6-2.3,1.7-4.5,3-6.6c0.3-0.5,0.7-1,1-1.5c0.4-0.5,0.7-1,1.1-1.5
		c0.6-0.8,1.2-1.5,1.8-2.3c0.7,0.4,1.4,0.9,2.2,1.3c1.5,1.2,3.2,2.2,4.8,3.2c-3.2,1.4-4.8,5.2-5,8.8c0,0.5,0,1,0.1,1.4
		c0.1,0.5,0.1,0.9,0.2,1.4c0.3,1,0.7,1.8,1.3,2.6c1.1,1.5,2.6,2.7,4.1,3.7c0.8,0.5,1.6,1,2.4,1.3c0.8,0.4,1.7,0.7,2.6,1
		c1.8,0.6,3.6,1,5.4,1.2c1.8,0.2,3.6,0.2,5.5,0.1c1.5-0.1,2.8,0.2,4.3-0.3c-0.3,0.7-1.2,2.6-1.8,4.1
		C42.3,120.6,41.6,121.1,40.8,121.2z M58.7,119.4l-0.8,2.1l-0.2,0.5l-0.2,0.5c-0.1,0.3-0.3,0.6-0.5,0.9c-0.7,1.1-1.7,2-3,2.6
		c-0.6,0.3-1.3,0.5-1.9,0.6c-0.3,0.1-0.7,0.1-1,0.1l-1.1,0.1c-1.5,0.1-3,0.2-4.5,0.2c-0.7,0-1.5,0-2.2,0c-0.7,0-1.3-0.3-1.7-0.8
		c-0.4-0.5-0.4-1.3,0-1.8l1.1-2c0.7-1.3,1.5-2.6,2.2-3.9c1.4-2.7,2.6-5.4,3.8-8.1c1.2-2.7,2.3-5.5,3.3-8.4c4.1-1.2,10-2.7,15.5-2.3
		c-2.6,5.1-5,10.3-7.2,15.5C59.8,116.6,59.2,118,58.7,119.4z M120.4,79c-0.2,0.7-0.8,1.3-1.5,1.5c-0.2,0.1-0.4,0.1-0.5,0.1l-0.3,0
		l-0.1,0l-0.1,0l0,0l-0.1,0l-1.4,0c-0.9,0.1-1.9,0.1-2.8,0.3c-1.9,0.4-3.7,1-5.3,1.9c-3.4,1.8-6.1,4.6-8.4,7.4
		c-2.3,2.9-4.4,6-6.4,9.1c-2,3.1-3.9,6.2-6.1,9c-2.2,2.9-4.6,5.6-7.5,7.5c-3,1.9-6.4,3.2-9.9,4.1c-1.8,0.4-3.5,0.8-5.3,1.1
		c-1.3,0.2-2.6,0.3-3.9,0.5c-0.3,0-0.6-0.3-0.5-0.6l0.3-0.7c0.6-1.4,1.1-2.8,1.7-4.2c0.2-0.4,0.3-0.7,0.4-0.9c0.3-0.8,1-1.4,1.8-1.7
		c0.9-0.3,1.7-0.5,2.5-0.6c1.5-0.2,2.9-0.4,4.3-0.8c1.4-0.4,2.8-0.9,4.2-1.6c0.7-0.3,1.3-0.7,1.9-1.2c0.6-0.4,1.2-0.9,1.8-1.4
		c2.2-2,4.2-4.2,5.9-6.6c1.8-2.4,3.4-4.8,5-7.2c1.6-2.4,3.2-4.8,4.9-7.2c1.7-2.3,3.6-4.5,5.7-6.4c1.1-0.9,2.2-1.8,3.4-2.6
		c0.6-0.4,1.3-0.7,1.9-1c0.7-0.3,1.3-0.6,2-0.8c2.7-1,5.6-1.4,8.4-1.4h0l1.4-0.1c0.4,0,0.8,0,1.2,0.2c0.7,0.3,1.3,1,1.5,1.7
		c0,0.2,0.1,0.4,0.1,0.6l0,0.7C120.5,78.3,120.5,78.6,120.4,79z"/>
	<path class="st10" d="M49.3,18.7c-0.6,0.1-1,0-1.4-0.1c-1.3-0.6-1.6-2.1-0.7-3.2c0.3-0.3,0.7-0.6,1.3-0.8c1.3-0.3,2.6,0.4,2.9,1.5
		C51.6,17.2,50.7,18.4,49.3,18.7z"/>
	<path class="st10" d="M40.5,15c1.3,1,0.8,3.3-0.8,3.6c-0.3,0.1-0.6,0.1-0.9,0c-1.3-0.3-2.2-1.4-1.9-2.5c0.2-1.1,1.5-1.8,2.8-1.5
		C40,14.7,40.3,14.8,40.5,15z"/>
	<ellipse class="st9" cx="48.8" cy="16.8" rx="0.9" ry="0.9"/>
	<ellipse class="st9" cx="39.3" cy="16.7" rx="1" ry="1"/>
	<path class="st9" d="M46.9,21.4c-0.2,0.7-0.9,1.5-1.7,1.1c-0.5-0.2,0.3-0.4,0.4-1.3c0-0.4,0-0.8,0.7-0.7C46.7,20.5,47,21,46.9,21.4
		z"/>
	<path class="st9" d="M43.3,22.5c-0.8,0.5-1.5-0.4-1.7-1.1c-0.1-0.4,0.2-0.9,0.7-1c0.7-0.1,0.7,0.3,0.7,0.7
		C43,22.1,43.8,22.2,43.3,22.5z"/>
</g>
</svg>
