<?xml version="1.0" encoding="utf-8"?>
<!-- Generator: Adobe Illustrator 23.0.0, SVG Export Plug-In . SVG Version: 6.00 Build 0)  -->
<svg version="1.1" id="Layer_1" xmlns="http://www.w3.org/2000/svg" xmlns:xlink="http://www.w3.org/1999/xlink" x="0px" y="0px"
	 viewBox="0 0 128 128" style="enable-background:new 0 0 128 128;" xml:space="preserve">
<style type="text/css">
	.st0{fill:#E5B77A;}
	.st1{fill:#B48662;}
	.st2{fill:#C6AC98;}
	.st3{fill:#9C704E;}
	.st4{fill:#E3D6C1;}
	.st5{fill:#2D2D2D;}
	.st6{fill:#EDDFD3;}
</style>
<g>
	<path class="st0" d="M113.5,55.3C113.5,55.3,113.5,55.3,113.5,55.3C113.5,55.3,113.5,55.3,113.5,55.3z"/>
	<path class="st1" d="M53.5,94c0,0-0.1,0.1-0.1,0.1c-0.8,0.5-1.5,1-2.1,1.7c-0.3,0.3-0.6,0.6-0.9,1c-0.3,0.3-0.6,0.7-0.9,1.1
		c0,0,0,0.1-0.1,0.1c-1.5,1.3-3.6,4-5.5,6.6c-0.9,1.3-3.5,3.8-6,6.2c-0.3,0.3-0.6,0.5-0.8,0.8c0.7,2.7,3.5,9.6,4.8,11.3
		c0,0,0.1,0,0.1,0l8,0.1c0.1,0,0.1,0,0.1-0.1c0-0.1,0-0.1,0-0.1c-0.6-1.4-2-3-4.8-3.1l-0.1,0c-0.9-0.1-1.9-1-2.5-2.3
		c-0.9-1.8-0.8-3.8,0.1-5.4c0.5-1,2.5-2.9,5.6-5.9c2.4-2.3,5.1-5,6-6.2c0.3-0.5,0.6-0.9,0.8-1.3c0.6-1,1.1-1.8,2-2.7L56.9,96
		C55.7,95.4,54.6,94.8,53.5,94z"/>
	<path class="st2" d="M44.1,102.7c-0.4,0.4-5.8,7.9-4,12.4c1.2,3.3,3.1,5.2,4.5,5.4c1.4,0.2,4.4-0.6,4.1-0.6
		c-0.4-0.1-4.1-0.9-4.6-1.9s-2.6-4.9-1-6c1.6-1.1,11.3-10.3,12.2-12c0.9-1.7,3.4-4.1,3.1-4.2c-0.3-0.1-5.6-1.8-5.6-1.8L44.1,102.7z"
		/>
	<path class="st0" d="M117,55.4l0-0.1c0,0,0,0,0,0l0,0C117,55.3,117,55.3,117,55.4C117,55.4,117,55.4,117,55.4L117,55.4z"/>
	<path class="st1" d="M124.5,71.7c0.2-0.2,0.7,0.1,1,0.3c0.2-0.3,0.8-0.4,1-0.5c0,0,0,0,0-0.1c0,0,0,0,0-0.1l-0.1-0.1
		c-0.2-0.4-0.5-0.7-0.7-1.1c-0.5-0.7-0.9-1.5-1.4-2.3l-0.1-0.1l0,0c-0.1-0.5-0.1-1-0.3-1.5c-0.1-0.5-0.3-1-0.6-1.4
		c-0.3-0.5-0.6-0.9-1-1.2c-0.4-0.3-0.8-0.6-1.3-0.8l-0.1-0.1c-0.4-0.3-0.8-0.7-1.2-1c-0.4-0.3-0.8-0.6-1.3-0.9c-0.9-0.5-1.9-1-3-1.4
		l0,0c0,0-0.1-0.1,0-0.1c0,0,0,0,0.1,0c0.6-0.1,1.2,0,1.8,0c0,0,0,0,0,0c-0.1-0.2-0.2-0.3-0.2-0.5c-0.1-0.4-0.2-0.7-0.2-1.1
		c0-0.4,0.2-0.7,0.3-1.1c0-0.4,0-0.7-0.1-1.1l0-0.1c0,0,0,0-0.1,0c-0.3,0.1-0.5,0.2-0.7,0.3c-0.3,0.1-0.6,0.4-0.9,0.6
		c0,0,0,0.1,0,0.1c0,0.2,0,0.4,0,0.6c0,0.2-0.1,0.4-0.1,0.6c-0.1,0.3-0.2,0.6-0.2,0.9c-0.1,0.6,0.2,1.3,0.3,2c-0.4-0.6-0.9-1.2-1-2
		c-0.1-0.4-0.1-0.8,0-1.2c0-0.2,0-0.3,0-0.5c0-0.1,0-0.3,0-0.4c-0.1-0.3-0.2-0.6-0.3-0.8c-0.1-0.2-0.3-0.4-0.4-0.5c0,0,0,0-0.1,0.1
		c-0.2,0.2-0.3,0.5-0.5,0.7l-0.1,0.2c0,0.1-0.1,0.2-0.2,0.3c-0.1,0.2-0.3,0.4-0.4,0.5c-0.1,0.1-0.1,0.1-0.2,0.2
		c0,0.2-0.1,0.4-0.1,0.7c0,0.2-0.1,0.5-0.2,0.7c0,0.2-0.1,0.4-0.2,0.6l0.2,0.9c0.1,0.3,0.1,0.7,0.1,1c0,0.4-0.1,0.7-0.2,1.1
		c-0.1,0.3-0.3,0.7-0.6,0.9c0,0-0.1,0-0.1,0c0,0,0,0,0,0l0,0c0.1-0.4,0-0.8,0-1.2c0-0.2,0-0.3-0.1-0.5c-0.1-0.4-0.1-0.8-0.1-1.2
		c0-0.3,0-0.7-0.1-1l0-0.2l0.1-0.1c0.1-0.2,0.2-0.4,0.3-0.6c0.1-0.2,0.2-0.4,0.3-0.6c0-0.1,0.1-0.1,0.1-0.2
		c-0.1,0.1-0.2,0.1-0.2,0.2c-0.3,0.2-0.6,0.4-0.9,0.6l-0.2,0.1l-0.2,0.1c-0.1,0.1-0.2,0.2-0.4,0.3c-0.9,0.9-1.8,2.1-2.6,3.2
		c0.1-0.7,0.4-1.3,0.6-1.9c-1,0.2-2,0.7-2.9,1.1c-1,0.5-2,1.1-2.9,1.7c-0.9,0.6-1.9,1.2-2.7,1.9c-0.9,0.7-1.7,1.4-2.4,2.2l-0.1,0.2
		l-0.2,0c-0.7,0.1-1.3,0.2-1.9,0.2c-0.6,0.1-1.2,0.1-1.8,0.2c-1.2,0.1-2.4,0.4-3.5,0.7c-0.6,0.2-1.1,0.4-1.6,0.7
		c-0.1,0.1-0.2,0.2-0.4,0.2l-0.2,0.1c-0.1,0-0.2,0.1-0.2,0.2c-0.4,0.2-0.8,0.3-1.2,0.3l-1.9-0.3L82,69.6c-2.5-0.4-4.9-0.6-7.4-0.7
		c-2.5-0.1-5-0.2-7.4,0.1l0,0l0,0c-1.5,0-3.1,0-4.6,0l-4.7,0c-1.6,0-3.1-0.1-4.7-0.1c-0.8,0-1.6-0.1-2.4-0.1c-0.4,0-0.8-0.1-1.2-0.1
		l-0.6-0.1l-0.5-0.1c-2,0.1-3.9,1-6.1,1.4c-0.3,0-0.6,0.1-0.9,0.1c-0.3,0-0.5,0-0.8,0.1c-0.5,0.1-1,0.1-1.6,0.2
		c-1,0.2-2.1,0.4-3.1,0.8c-0.5,0.1-1,0.3-1.5,0.5c-0.5,0.2-1,0.4-1.4,0.6c-0.5,0.2-1,0.4-1.4,0.7c-0.2,0.1-0.5,0.3-0.7,0.4l-0.7,0.4
		c-1.7,1.2-5.8,8-6.3,9.8c-0.5,1.8-0.9,3.7-1.2,5.5l-0.2,1.4l-0.2,1.4c-0.1,0.9-0.2,1.9-0.3,2.8c0,0.9-0.1,1.9-0.2,2.8
		c0,0.5,0,0.9,0,1.4l-0.1,1.4c-0.3,3.9-1.5,7.6-2.8,11.2c-0.3,0.9-0.7,1.8-1.1,2.7c-0.4,0.9-0.8,1.7-1.3,2.6c-0.9,1.7-2,3.3-3.6,4.6
		c-0.8,0.6-1.7,1.1-2.8,1.3c-1.1,0.1-2.1,0-3.1-0.4c-1-0.3-1.9-0.9-2.6-1.5c-0.2-0.2-0.4-0.3-0.6-0.5l-0.3-0.3c0,0,0,0,0,0
		c-0.2-0.3-0.7-0.5-1.1-0.4c-0.3,0-0.6,0.1-0.9,0.4c-0.2,0.2-0.4,0.5-0.5,0.8c-0.1,0.3,0,0.6,0.2,0.9c0.1,0.1,0.2,0.3,0.3,0.4
		c0.1,0.1,0.4,0.3,0.5,0.4c1.5,1.1,3,2.2,4.7,2.9c1.7,0.7,3.5,1.1,5.2,0.9c1.7-0.3,3.3-1.2,4.7-2.4c1.4-1.2,2.6-2.6,3.7-4.2
		c0.5-0.8,1.1-1.6,1.6-2.4c0.4-0.7,1.1-2.6,1-2.8c-0.3-0.9-0.1-1.9,0.4-2.6c0,0,0.1-0.1,0.1-0.1c1.3-2.5,3.6-9.3,5.5-20.4
		c-0.1-0.7-0.3-1.4-0.3-2.2c-0.1-1.1-0.2-2.3-0.1-3.4c0.1-1.1,0.3-2.3,0.7-3.3c-0.3,1.1-0.4,2.2-0.3,3.3c0,1.1,0.2,2.2,0.4,3.3
		c0.2,1.1,0.6,2.1,0.9,3.2c0.3,0.9,0.7,1.9,1.1,2.7c0.2,0.2,0.3,0.4,0.2,0.7c-0.1,0.4-2.5,10.8-6.9,16.8c0,0,0,0,0,0
		c0,0.1-0.1,0.1-0.1,0.2c0,0,0,0,0,0c-0.3,0.4-0.4,0.9-0.2,1.4c1.2,3.6,4.3,10.8,5.5,12.6c0,0,0.1,0,0.1,0l7.9,0.1
		c0.1,0,0.1,0,0.1-0.1c0-0.1,0-0.1,0-0.1c-0.6-1.4-2-3-4.8-3.1l-0.1,0c-0.9-0.1-1.9-1-2.5-2.3c-0.9-1.8-0.8-3.8,0.1-5.4
		c0.5-1,2.5-2.9,5.7-6c2.4-2.4,5-4.8,5.8-6c1.9-2.7,4-5.3,5.6-6.8c0,0,0,0,0,0c0,0,0,0,0.1-0.1l0,0c0.3-0.3,0.7-0.6,1-1
		c0.4-0.3,0.7-0.6,1.1-0.9c0.8-0.6,1.6-1.1,2.5-1.5c0.9-0.4,1.8-0.7,2.7-0.9c0.9-0.2,1.9-0.2,2.8-0.2c-0.9,0.1-1.8,0.2-2.7,0.5
		c-0.7,0.2-1,0.3-1.7,0.7c0.8,0.6,2,1,3.2,1.3l1.9,0.6c0.6,0.2,1.3,0.4,1.9,0.6c1.3,0.4,2.5,0.9,3.8,1.2c1.3,0.3,2.7,0.3,4,0.2
		c0.7-0.1,1.3-0.2,2-0.3l2-0.3c1.3-0.2,2.6-0.5,3.9-0.8c0.7-0.1,1.3-0.2,2-0.3c0.7-0.1,1.3-0.2,2.2-0.1c0.1,0,0.2,0,0.3,0.1l0.3,0.1
		L82,96c0.3,0.1,0.5,0.2,0.8,0.3c0.5,0.2,0.8,0.4,1.4,0.4c-0.3-2-0.5-3.2-0.6-3.5c0-0.1-0.1-0.2,0-0.3c0,0,0-0.1,0-0.1
		c0.2-0.9,0.5-1.8,0.7-2.6c0.3-0.8,0.6-1.7,1-2.5c0.4-0.8,0.8-1.6,1.3-2.3c0.5-0.7,1-1.4,1.6-2.1c-0.5,0.7-0.9,1.5-1.3,2.3
		c-0.4,0.8-0.7,1.6-0.9,2.4c-0.3,0.8-0.5,1.6-0.7,2.5c-0.2,0.8-0.3,1.6-0.4,2.4c0,0,0,0,0,0c0,0.1,1.9,12.3,2.6,15
		c0.7,2.4,2.9,13.1,2.8,14.2c-0.1,1.2,0.1,2.2,0.3,2.8l8.4,0.1l0.7-0.3l-0.7,0.2c-0.5-1.3-1.7-2.9-4.3-2.9l-0.5,0l-0.1-0.5
		c-0.3-1.2,0.8-16.4,1.7-20.1c0-0.2,0.1-0.3,0.2-0.4c0.7-0.8,1.4-1.7,2-2.6c0.7-0.9,1.4-1.9,2-2.8c1.3-1.9,2.5-3.9,3.6-5.9
		c-0.8,2.2-1.8,4.2-3,6.3c-0.6,1-1.1,2-1.7,3c-0.6,1-1.2,1.9-1.8,2.9c-0.1,0.4-0.2,0.9-0.2,1.4c0,0.1,0.1,0.1,0.1,0.2
		c1.2,4.6,3.9,8.1,5.9,10.7c0.7,0.9,1.3,1.7,1.7,2.3c0.3,0.5,0.5,1,0.6,1.6c0.1,0.9,0.7,2.3,1.6,3.8l8.5,0.1c0,0,0,0,0,0
		c-0.7-1.5-3.8-2.6-5.6-2.6l-0.7,0l0-0.7c0-0.8-0.5-3.3-1.1-6.2c-1.5-7.7-2.6-13.7-2-15.5l0.1-0.1c3-5.5,1.6-16,2.6-18.2
		c0.1-0.5,0.4-1.1,0.6-1.5c0.2-0.3,0.4-0.7,0.7-1c0.3-0.3,0.6-0.6,0.9-0.8c0.3-0.2,0.7-0.4,1.1-0.6c0.4-0.1,0.9-0.2,1.3-0.2
		c0.8,0,1.6,0.2,2.3,0.5c0.7,0.3,1.4,0.6,2.1,0.9c0.7,0.3,1.4,0.6,2.1,0.8c0.3,0.1,0.7,0.3,1,0.4l0.5,0.2c0.1,0,0.2,0.1,0.3,0.1
		c0.2,0,0.5-0.1,0.8-0.3c0.2-0.1,0.3-0.3,0.3-0.6c-0.3,0-0.3,0-0.5-0.1c-0.3,0-1.5-0.3-1.6-0.4c-0.3-0.1-0.5-0.2-0.8-0.3
		c-0.3-0.2-0.5-0.3-0.7-0.5l-1.3-1l1.4,0.7c0.2,0.1,0.5,0.2,0.7,0.3c0.1,0,0.2,0,0.2,0.1c-0.1-0.2-0.3-0.4-0.4-0.7
		c-0.1-0.3-0.2-0.6-0.2-0.9c0-0.3,0.1-0.6,0.3-0.9c0.3-0.5,0.8-0.9,1.2-1.2c0.5-0.3,1-0.5,1.6-0.5c-0.5,0.1-1,0.4-1.4,0.7
		c-0.4,0.3-0.8,0.8-0.9,1.2c-0.2,0.4-0.1,0.9,0.1,1.3c0.1,0.2,0.3,0.4,0.5,0.6c0.1,0.1,0.2,0.2,0.3,0.2c0.1,0.1,0.3,0.3,0.5,0.4
		c0.2,0,0.4,0,0.5,0c0.5,0,1.5-0.1,1.5-0.1s0,0,0,0c0,0,0.1,0,0.2,0c0.3,0,0.5-0.2,0.7-0.4c0.3-0.4,0.5-0.7,0.7-1.2
		c0.1-0.1,0.1-0.2,0.1-0.3C124.8,73.5,124.3,71.9,124.5,71.7z M121,67.9c-0.2-0.1-0.3-0.2-0.5-0.3c-0.2,0.1-0.5,0.1-0.8,0.1
		c-0.9-0.2-1-1.3-1-1.3s0.5-0.9,1.4-0.7c0.6,0.1,1,0.6,1,1.1c0.2,0.2,0.3,0.4,0.4,0.6c0.3,0.5,0.4,0.9,0.5,1.4
		C121.7,68.5,121.4,68.1,121,67.9z"/>
	<path class="st3" d="M114.8,59.3C114.8,59.3,114.9,59.3,114.8,59.3c0.3,0,1.4,0.2,1.5,0.3c0.2,0.1,1.3,0.3,1.3,0.3
		s-0.4-2.9-0.4-2.9s0-1.9,0-1.9s-2,0.6-2,0.6c0,0-0.6,2.1-0.6,2.1L114.8,59.3z"/>
	<path class="st3" d="M58.5,92.4c0,0,1.4,1.9,5.2,2.7c3.8,0.8,3.8,1.8,6.6,0.2c6.7-4,13.4-2.5,13.4-2.5l0.9,3.1c0,0-0.2,1.6-0.2,1.5
		s-2.1-1.6-4.6-1c-2.4,0.6-9.2,1.7-12.1,1.5s-8.7-1.8-10-2.2c-1.3-0.4-4-2.2-4-2.2s2.1-1,2.8-1C57.1,92.5,58.5,92.4,58.5,92.4z"/>
	<path class="st3" d="M32.2,72.7c-0.5,0.2-3.6,6.6-2.6,9.6c-0.5,2.2-0.8,6,0.5,9.3c-0.4,1.6-4.2,16.3-4.2,16.3l-1.9,5.5
		c0,0-0.7,2.9-1.3,3.6c-0.6,0.7-3.7,6.8-7.8,8.7c-4.1,1.9-6.3,0.8-7.8,0.1s-6.4-3.9-6.4-3.9s0.7-3.8,3.2-2.6c2.5,1.1,4,3.2,6.1,3.2
		s3.1-1,4.3-2.4c1.2-1.4,2.5-3.2,3-4.3c0.5-1.1,2.7-5.8,2.7-6.9c0-1.1,1.7-9.3,1.5-11.8s1.2-9.2,1.7-11.1c0.4-1.9,1.4-5,2.6-6.8
		c1.2-1.8,2.8-4.7,4.1-5.4C31.2,72.8,32.2,72.7,32.2,72.7z"/>
	<path class="st4" d="M111.2,63.4c0,0,2.4-2.5,4.2-2.6c-0.6-1-1-1.4-0.8-2.6c0.1-1.3,0.5-2.7-0.3-3.2c-0.8-0.5-1.4,0.2-1.8,0.7
		c-0.4,0.5-0.9,2.6-1,2.9c-0.2,0.2-0.2,1.6-0.2,1.7C111.2,60.3,111.2,63.4,111.2,63.4z"/>
	<path class="st3" d="M107.2,62.4c0,0,2.7-0.5,4.1,1c0.1-0.4,0.4-2.7,0.2-3.4c-0.2-0.7,0.2-0.9,0.2-1.2c0-0.3-0.1-1.3,0.2-1.7
		s-1.5,0.7-2.3,1.6s-1.8,2.3-2,2.7C107.5,61.8,107.2,62.4,107.2,62.4z"/>
	<path class="st5" d="M119.9,67.4c-0.4,0-0.7-0.4-0.7-0.8c0-0.4,0.4-0.7,0.8-0.7c0.2,0,0.3,0.1,0.4,0.2l0.1,0.1
		c0.3,0.2,0.4,0.4,0.6,0.6c0,0,0,0,0,0c0-0.5-0.4-1-1-1.1c-0.9-0.2-1.4,0.7-1.4,0.7s0.1,1.1,1,1.3c0.3,0.1,0.6,0,0.8-0.1
		c0,0,0,0-0.1,0C120.3,67.5,120,67.4,119.9,67.4z"/>
	<path class="st3" d="M87.9,83.1c0,0,0.1,7.5-1.1,9.3c1.2,2,4.4,4.8,4.5,6.8c0.1,2,0.8,8.6-0.2,10.5s-0.3,8.4-0.2,9.3
		c0.1,1,0.6,3,1.6,2.6s1.9-0.8,2.2-0.6c0.3,0.2,4.9,1.8,4.9,3.7c-2.2,0.9-8.2,0.6-9,0.5c-0.9-0.2-1.4-1.9-1.3-2.6
		c0.2-0.7-1.4-9.7-1.4-9.7l-3.5-20.1c0,0,0.2-4.2,0.9-5.2C85.9,86.6,87.9,83.1,87.9,83.1z"/>
	<path class="st3" d="M58.3,92.5c0,0-5.8-1.6-12.2,1.7c-6.5,3.4-7.3,5-9.6,8.7c-1.8,3-1.7,6.6-4.5,8.4c-2.8,1.8-4.6,5.6-4.4,7.3
		c0.1,1.7,1.2,7,1.9,7.7c0.7,0.7,4.5,0.9,6.4,1c1.8,0.1,4.1-0.2,3.3-1.1s-0.3-3.2-3.4-3.2s-3.5-0.9-4.2-2.8s-0.5-3.4,1.8-5.9
		c2.2-2.5,8.2-7.6,8.9-8.9c0.7-1.3,5.2-7.1,6.5-8.1c1.3-1,3.7-3.9,5.4-4.2S58.3,92.5,58.3,92.5z"/>
	<path class="st6" d="M119.9,73.9c-0.1-0.2-0.8-1.3-2.6-2.8c-1.8-1.5-4.1-4.2-5.2-2.3c-1.1,1.9-0.4,1.8-1.4,3.6
		c-1.1,1.8-2.1,2.7-2.1,3.8s-2.2,1.5-1.1,2.9c1.1,1.4,1.6,1.1,1.4,0.8c-0.1-0.3,0.2-1.6,1-2.6c0.8-1,0.9-2.7,2.6-2.3
		s2.3,0.2,3.4,0.6c1,0.4,2.9,1,3.6,1.6s1.5,1.1,2.2,0.9s1.6-1.6,1.5-1.7s-0.9,0.2-1.8-0.5C120.4,75.2,119.9,73.9,119.9,73.9z"/>
	<path class="st6" d="M109,82.5c0,0,1-8.1-3.2-2.5c-2.8,3.7-1.6,7.5-6.1,14.5c-2.7,4.2-3.7,7-3.7,7s0.6,2.7,1,2.9
		c0.5,0.2,0.6-0.7,2.6-3.3c2-2.6,4-5.1,5.9-4.1s1.8-0.5,1.8-0.5s2.5-8.1,1.9-9.5S109,82.5,109,82.5z"/>
	<path class="st5" d="M125.4,72c-0.2-0.2-0.7-0.4-1-0.3c-0.2,0.1,0.3,1.8,1.1,2.1c0.3-0.6,0.6-1.3,0.9-2c0-0.1,0-0.2,0-0.3
		c0,0,0,0,0-0.1C126.2,71.6,125.7,71.7,125.4,72z"/>
	<path class="st5" d="M121.1,66.8C121.1,66.8,121.1,66.8,121.1,66.8c-0.2-0.2-0.3-0.4-0.6-0.6l-0.1-0.1c-0.1-0.1-0.3-0.1-0.4-0.2
		c-0.4,0-0.8,0.3-0.8,0.7c0,0.4,0.3,0.8,0.7,0.8c0.1,0,0.4,0.1,0.6,0.2c0,0,0,0,0.1,0c0.2,0.1,0.3,0.2,0.5,0.3
		c0.4,0.2,0.7,0.6,1,0.9c-0.1-0.5-0.2-1-0.5-1.4C121.4,67.2,121.3,67,121.1,66.8z"/>
	<path class="st5" d="M127.8,70.9c0-0.1-0.1-0.2-0.1-0.2l-0.1-0.1l0-0.1c-0.3-0.4-0.5-0.7-0.8-1.1c-0.5-0.7-1.1-1.4-1.6-2
		c-0.4-1-0.9-1.9-1.5-2.8c-0.3-0.5-0.6-0.9-1-1.3c-0.3-0.4-0.7-0.9-1.1-1.2l0.1,0.1c-0.3-0.5-0.7-1-1.2-1.3c-0.5-0.4-1-0.7-1.6-0.9
		c-0.3-0.1-0.7-0.3-1.1-0.3c0.1-0.3,0.1-0.5,0.1-0.7c0-0.3,0-0.7-0.1-1c-0.1-0.3-0.3-0.7-0.3-1c0-0.3,0-0.7,0.2-1l0.1-0.3l0-0.1
		c0,0,0,0,0,0c0,0,0-0.1,0-0.1c0-0.1,0-0.1,0-0.2c-0.1-0.2-0.3-0.5-0.6-0.5c-0.2,0-0.2,0-0.3,0c-0.4,0-0.9,0.1-1.3,0.3
		c-0.2,0.1-0.4,0.3-0.5,0.5c-0.2-0.4-0.4-0.7-0.7-1c-0.1-0.1-0.2-0.2-0.4-0.3c-0.2-0.1-0.5-0.1-0.7,0c-0.4,0.1-0.6,0.3-0.7,0.5
		c-0.3,0.3-0.5,0.7-0.7,1l-0.1,0.3c0,0.1,0,0.1-0.1,0.1c-0.1,0.1-0.1,0.2-0.2,0.3c-0.2,0.2-0.5,0.4-0.7,0.6l-0.8,0.7l-0.2,0.2
		l-0.2,0.2c-0.1,0.1-0.3,0.3-0.4,0.4c-0.5,0.6-0.8,1.2-1.1,1.8c-1.1,0.1-2.2,0.4-3.2,0.8c-1.1,0.4-2.1,0.9-3.1,1.4
		c-1,0.5-2,1.1-2.9,1.8c-0.9,0.6-1.7,1.3-2.5,2.1c-1.1,0.1-2.3,0.2-3.5,0.3c-0.6,0.1-1.3,0.2-1.9,0.3c-0.6,0.1-1.3,0.3-1.9,0.5
		c-0.6,0.2-1.2,0.5-1.8,0.9c-0.1,0.1-0.3,0.2-0.4,0.3L86.3,69c-0.2,0.1-0.4,0.2-0.6,0.2l-1.8-0.2L82,68.9l-7.5-0.4
		c-1.2-0.1-2.5-0.1-3.7-0.2c-1.2-0.1-2.5-0.1-3.7,0c-1.6-0.1-3.1-0.2-4.7-0.3l-4.7-0.2c-1.6-0.1-3.1-0.1-4.6-0.2
		c-0.8-0.1-1.5-0.1-2.3-0.2c-0.4,0-0.8-0.1-1.1-0.1l-0.5-0.1L48.6,67l-0.1,0l-0.1,0c-1.2,0-2.3,0.3-3.4,0.6c-1.1,0.3-2.1,0.7-3,0.9
		c-0.2,0-0.5,0.1-0.7,0.1c-0.3,0-0.6,0.1-0.8,0.1c-0.6,0.1-1.1,0.2-1.6,0.3c-1.1,0.3-2.1,0.5-3.2,0.9c-2.1,0.7-4,1.8-5.8,3.2
		c-1.7,1.4-4.1,5-4.1,5.1c-2,3.3-3.2,6.9-4,10.7c-0.4,1.9-0.7,3.8-0.8,5.7c-0.1,1-0.1,1.9-0.2,2.9c0,0.9,0,1.9,0,2.9
		c0,1.9-0.3,3.7-0.6,5.6c-0.3,1.9-0.8,3.7-1.4,5.5c-0.6,1.8-1.4,3.5-2.3,5.2c-0.9,1.6-2.1,3.2-3.6,4.2c-0.7,0.5-1.6,0.9-2.4,0.9
		c-0.4,0-0.9,0-1.3-0.1c-0.4-0.1-0.9-0.2-1.3-0.4c-0.8-0.3-1.6-0.8-2.2-1.4c-0.2-0.2-0.3-0.3-0.5-0.5L4.8,119
		c-0.1-0.1-0.2-0.2-0.3-0.3c-0.5-0.4-1.1-0.6-1.8-0.6c-0.6,0-1.3,0.3-1.7,0.6c-0.5,0.4-0.9,1-1,1.6c-0.1,0.6,0,1.3,0.3,1.9
		c0.2,0.3,0.3,0.5,0.6,0.8c0.2,0.2,0.4,0.3,0.6,0.5c1.5,1.2,3.2,2.3,5,3.1c0.9,0.4,1.9,0.7,2.9,0.9c1,0.2,2.1,0.2,3.1,0
		c2.1-0.4,3.8-1.5,5.2-2.9c2.7-2.6,4.4-5.9,5.9-9.2c1.3,3.7,4.1,10.2,5.4,12c0.3,0.4,0.7,0.6,1.2,0.6l7.9,0.1c0,0,0,0,0,0
		c0.5,0,1-0.3,1.3-0.7c0.3-0.4,0.3-1,0.1-1.5c-0.7-1.4-2.3-3.8-6-3.9c-0.4-0.1-0.9-0.6-1.4-1.5c-0.5-1.1-0.8-2.7,0.1-4.1l0,0
		c0.3-0.6,1.8-2.1,3.5-3.8c1,3.2,3.6,9.3,4.9,11c0.3,0.4,0.7,0.6,1.2,0.6l8,0.1c0,0,0,0,0,0c0.5,0,1-0.3,1.3-0.7
		c0.3-0.4,0.3-1,0.1-1.5c-0.7-1.4-2.3-3.8-6-3.9c-0.4-0.1-0.9-0.6-1.4-1.5c-0.5-1.1-0.8-2.7,0.1-4.1l0,0c0.4-0.8,3-3.3,5.3-5.5
		c2.6-2.5,5.3-5.1,6.2-6.4c0.3-0.5,0.6-0.9,0.8-1.3c0.7-1.1,1.2-1.9,2.2-2.8l0.3,0.1c0.6,0.2,1.3,0.4,2,0.6c1.3,0.3,2.7,0.4,4.1,0.6
		c1.4,0.1,2.7,0.3,4.1,0.4c0.7,0,1.4,0.1,2.1,0.1c0.7,0,1.4,0,2.1-0.1c1.4-0.1,2.7-0.3,4-0.6c0.7-0.1,1.3-0.3,2-0.5
		c0.3-0.1,0.6-0.2,1-0.2c0.3-0.1,0.6-0.1,0.9-0.1c0.1,0,0.1,0,0.2,0l0.2,0l0.5,0.1l1,0.2c0.5,0.1,1,0.2,1.5,0.3
		c0.6,3.8,1.5,9.1,2,10.9c0.8,2.9,2.8,12.8,2.8,13.7c-0.1,1.3,0.1,2.5,0.3,3.3c0.2,0.6,0.7,1,1.4,1l8.3,0.1c0,0,0,0,0,0
		c0.5,0,0.9-0.2,1.2-0.6c0.3-0.4,0.3-0.9,0.2-1.3c-0.5-1.3-1.8-3.5-5-3.8c0-2,0.5-9,1-14.1c1.4,3.6,3.6,6.4,5.2,8.5
		c0.7,0.9,1.2,1.6,1.6,2.2c0.2,0.3,0.3,0.7,0.4,1c0.2,1.5,1.2,3.4,1.7,4.3c0.3,0.4,0.7,0.7,1.2,0.7l8.5,0.1c0,0,0,0,0,0
		c0.5,0,1-0.2,1.2-0.7c0.3-0.4,0.3-0.9,0.1-1.3c-0.9-2-4-3.2-6.2-3.4c-0.1-1.2-0.6-3.3-1-5.8c-1-5.2-2.5-13-2.1-14.8
		c3.2-6,1.6-17.1,1.7-18.7c0.3-0.4,0.6-0.8,1-1.1c0.5-0.5,1-0.9,1.6-1.3c0.3-0.2,0.6-0.3,0.9-0.5c0.3-0.1,0.6-0.2,0.9-0.2
		c0.7-0.1,1.4,0,2.1,0c0.7,0.1,1.5,0.2,2.1,0.5c0.7,0.3,1.2,0.9,1.8,1.3c0.3,0.2,0.6,0.4,1,0.6c0.2,0.1,0.3,0.1,0.6,0.2
		c0.2,0.1,0.5,0.1,0.8,0.1c0.5-0.1,0.9-0.4,1.1-0.8c0.2-0.3,0.3-0.6,0.4-1c0.3-0.2,1.1-0.6,1.2-0.7c0.7-0.3,1.3-0.8,1.8-1.4
		c0.6-0.7,1.1-1.5,1.5-2.3c0.1-0.3,0.2-0.7,0.2-1C128,71.2,127.9,71,127.8,70.9z M113.5,55.3C113.5,55.3,113.5,55.3,113.5,55.3
		C113.5,55.3,113.5,55.3,113.5,55.3z M55.2,98.7c-0.2,0.4-0.5,0.8-0.8,1.3c-0.8,1.2-3.6,3.9-6,6.2c-3.1,3-5.1,4.9-5.6,5.9
		c-1,1.6-1,3.6-0.1,5.4c0.6,1.3,1.6,2.1,2.5,2.3l0.1,0c2.8,0,4.2,1.7,4.8,3.1c0,0,0,0.1,0,0.1c0,0,0,0.1-0.1,0.1l-8-0.1
		c0,0-0.1,0-0.1,0c-1.3-1.7-4.1-8.6-4.8-11.3c0.3-0.3,0.6-0.5,0.8-0.8c2.5-2.4,5.1-4.9,6-6.2c1.9-2.7,4-5.3,5.5-6.6
		c0,0,0-0.1,0.1-0.1c0.3-0.4,0.6-0.7,0.9-1.1c0.3-0.3,0.6-0.7,0.9-1c0.6-0.6,1.4-1.2,2.1-1.7c0,0,0.1-0.1,0.1-0.1
		c1.1,0.8,2.3,1.4,3.5,2l0.2,0.1C56.3,97,55.8,97.8,55.2,98.7z M124.7,75.3c-0.2,0.2-0.4,0.4-0.7,0.4c-0.1,0-0.1,0-0.2,0
		c0,0,0,0,0,0s-1,0.1-1.5,0.1c-0.2,0-0.4,0-0.5,0c-0.2-0.1-0.4-0.3-0.5-0.4c-0.1-0.1-0.2-0.2-0.3-0.2c-0.2-0.2-0.3-0.4-0.5-0.6
		c-0.2-0.4-0.3-0.9-0.1-1.3c0.2-0.5,0.5-0.9,0.9-1.2c0.4-0.3,0.9-0.6,1.4-0.7c-0.5,0.1-1.1,0.2-1.6,0.5c-0.5,0.3-0.9,0.7-1.2,1.2
		c-0.2,0.3-0.3,0.6-0.3,0.9c0,0.3,0.1,0.7,0.2,0.9c0.1,0.2,0.2,0.5,0.4,0.7c-0.1,0-0.2,0-0.2-0.1c-0.2-0.1-0.5-0.2-0.7-0.3l-1.4-0.7
		l1.3,1c0.2,0.2,0.4,0.3,0.7,0.5c0.2,0.1,0.5,0.3,0.8,0.3c0.1,0.1,1.3,0.4,1.6,0.4c0.3,0,0.3,0,0.5,0.1c-0.1,0.3-0.1,0.4-0.3,0.6
		c-0.3,0.2-0.5,0.3-0.8,0.3c-0.1,0-0.2,0-0.3-0.1l-0.5-0.2c-0.3-0.2-0.6-0.3-1-0.4c-0.7-0.3-1.4-0.6-2.1-0.8
		c-0.7-0.3-1.4-0.6-2.1-0.9c-0.7-0.3-1.5-0.5-2.3-0.5c-0.4,0-0.8,0-1.3,0.2c-0.4,0.2-0.8,0.3-1.1,0.6c-0.3,0.2-0.6,0.5-0.9,0.8
		c-0.3,0.3-0.5,0.6-0.7,1c-0.3,0.5-0.5,1-0.6,1.5c-1,2.2,0.3,12.7-2.6,18.2l-0.1,0.1c-0.5,1.8,0.5,7.8,2,15.5c0.6,2.9,1,5.5,1.1,6.2
		l0,0.7l0.7,0c1.8,0,4.9,1,5.6,2.6c0,0,0,0,0,0l-8.5-0.1c-0.9-1.5-1.5-2.9-1.6-3.8c-0.1-0.6-0.3-1.1-0.6-1.6c-0.4-0.7-1-1.4-1.7-2.3
		c-2-2.6-4.7-6.1-5.9-10.7c0-0.1,0-0.1-0.1-0.2c0.1-0.5,0.2-1,0.2-1.4c0.6-1,1.2-1.9,1.8-2.9c0.6-1,1.2-2,1.7-3c1.1-2,2.1-4.1,3-6.3
		c-1,2.1-2.3,4-3.6,5.9c-0.7,0.9-1.3,1.9-2,2.8c-0.7,0.9-1.3,1.8-2,2.6c-0.1,0.1-0.2,0.2-0.2,0.4c-0.8,3.7-2,18.8-1.7,20.1l0.1,0.5
		l0.5,0c2.7,0,3.8,1.6,4.3,2.9l0.7-0.2l-0.7,0.3l-8.4-0.1c-0.2-0.5-0.4-1.6-0.3-2.8c0.1-1-2.2-11.8-2.8-14.2
		c-0.8-2.7-2.6-14.8-2.6-15c0,0,0,0,0,0c0.1-0.8,0.2-1.6,0.4-2.4c0.2-0.8,0.4-1.7,0.7-2.5c0.3-0.8,0.6-1.6,0.9-2.4
		c0.4-0.8,0.8-1.5,1.3-2.3c-0.6,0.7-1.1,1.3-1.6,2.1c-0.5,0.7-0.9,1.5-1.3,2.3c-0.4,0.8-0.7,1.6-1,2.5c-0.3,0.8-0.5,1.7-0.7,2.6
		c0,0,0,0.1,0,0.1c0,0.1,0,0.2,0,0.3c0.1,0.3,0.3,1.6,0.6,3.5c-0.6,0-0.9-0.2-1.4-0.4c-0.3-0.1-0.5-0.2-0.8-0.3l-0.5-0.2l-0.3-0.1
		c-0.1,0-0.2-0.1-0.3-0.1c-0.8-0.1-1.5,0.1-2.2,0.1c-0.7,0.1-1.3,0.2-2,0.3c-1.3,0.2-2.6,0.5-3.9,0.8l-2,0.3c-0.7,0.1-1.3,0.2-2,0.3
		c-1.3,0.2-2.7,0.1-4-0.2c-1.3-0.3-2.6-0.8-3.8-1.2c-0.6-0.2-1.3-0.4-1.9-0.6L57.3,95c-1.2-0.4-2.4-0.8-3.2-1.3
		c0.7-0.4,0.9-0.4,1.7-0.7c0.9-0.3,1.8-0.4,2.7-0.5c-0.9,0-1.9,0-2.8,0.2c-0.9,0.2-1.8,0.5-2.7,0.9c-0.9,0.4-1.7,0.9-2.5,1.5
		c-0.4,0.3-0.8,0.6-1.1,0.9c-0.4,0.3-0.7,0.7-1,1l0,0c0,0,0,0-0.1,0.1c0,0,0,0,0,0c-1.5,1.5-3.7,4-5.6,6.8c-0.8,1.2-3.4,3.6-5.8,6
		c-3.2,3.1-5.2,5.1-5.7,6c-1,1.6-1,3.6-0.1,5.4c0.6,1.3,1.6,2.1,2.5,2.3l0.1,0c2.8,0,4.2,1.7,4.8,3.1c0,0,0,0.1,0,0.1
		c0,0,0,0.1-0.1,0.1l-7.9-0.1c0,0-0.1,0-0.1,0c-1.3-1.7-4.4-9-5.5-12.6c-0.1-0.5-0.1-1,0.2-1.4c0,0,0,0,0,0c0,0,0.1-0.1,0.1-0.2
		c0,0,0,0,0,0c4.3-6,6.8-16.4,6.9-16.8c0.1-0.3,0-0.5-0.2-0.7c-0.4-0.9-0.8-1.8-1.1-2.7c-0.4-1-0.7-2.1-0.9-3.2
		c-0.2-1.1-0.4-2.2-0.4-3.3c0-1.1,0.1-2.2,0.3-3.3c-0.4,1-0.6,2.2-0.7,3.3c-0.1,1.1,0,2.3,0.1,3.4c0.1,0.7,0.2,1.4,0.3,2.2
		c-1.9,11.2-4.2,17.9-5.5,20.4c0,0-0.1,0.1-0.1,0.1c-0.6,0.8-0.7,1.7-0.4,2.6c0.1,0.2-0.6,2.1-1,2.8c-0.5,0.8-1,1.6-1.6,2.4
		c-1.1,1.5-2.3,3-3.7,4.2c-1.4,1.2-3,2.1-4.7,2.4c-1.7,0.3-3.5-0.1-5.2-0.9c-1.7-0.7-3.2-1.7-4.7-2.9c-0.2-0.1-0.4-0.3-0.5-0.4
		c-0.1-0.1-0.2-0.2-0.3-0.4c-0.2-0.3-0.2-0.6-0.2-0.9c0.1-0.3,0.2-0.6,0.5-0.8c0.3-0.2,0.6-0.4,0.9-0.4c0.3,0,0.8,0.2,1.1,0.4
		c0,0,0,0,0,0l0.3,0.3c0.2,0.2,0.4,0.4,0.6,0.5c0.8,0.7,1.7,1.2,2.6,1.5c1,0.3,2,0.5,3.1,0.4c1.1-0.1,2-0.6,2.8-1.3
		c1.6-1.3,2.6-2.9,3.6-4.6c0.5-0.8,0.9-1.7,1.3-2.6c0.4-0.9,0.8-1.8,1.1-2.7c1.3-3.6,2.5-7.3,2.8-11.2l0.1-1.4c0-0.5,0-0.9,0-1.4
		c0-0.9,0.1-1.9,0.2-2.8c0.1-0.9,0.1-1.9,0.3-2.8l0.2-1.4l0.2-1.4c0.3-1.9,0.7-3.7,1.2-5.5c0.5-1.8,4.6-8.6,6.3-9.8l0.7-0.4
		c0.2-0.1,0.5-0.3,0.7-0.4c0.5-0.3,0.9-0.5,1.4-0.7c0.5-0.2,1-0.4,1.4-0.6c0.5-0.2,1-0.4,1.5-0.5c1-0.3,2-0.6,3.1-0.8
		c0.5-0.1,1-0.2,1.6-0.2c0.3,0,0.5-0.1,0.8-0.1c0.3,0,0.6-0.1,0.9-0.1c2.2-0.4,4.2-1.3,6.1-1.4l0.5,0.1l0.6,0.1
		c0.4,0.1,0.8,0.1,1.2,0.1c0.8,0.1,1.6,0.1,2.4,0.1c1.6,0.1,3.1,0.1,4.7,0.1l4.7,0c1.6,0,3.1,0,4.6,0l0,0l0,0
		c2.4-0.3,4.9-0.2,7.4-0.1c2.5,0.1,5,0.4,7.4,0.7l1.8,0.3l1.9,0.3c0.4,0,0.8-0.1,1.2-0.3c0.1,0,0.2-0.1,0.2-0.2l0.2-0.1
		c0.1-0.1,0.2-0.2,0.4-0.2c0.5-0.3,1-0.5,1.6-0.7c1.1-0.4,2.3-0.6,3.5-0.7c0.6-0.1,1.2-0.1,1.8-0.2c0.6-0.1,1.2-0.1,1.9-0.2l0.2,0
		l0.1-0.2c0.7-0.8,1.5-1.5,2.4-2.2c0.9-0.7,1.8-1.3,2.7-1.9c0.9-0.6,1.9-1.1,2.9-1.7c0.9-0.5,1.9-0.9,2.9-1.1
		c-0.3,0.6-0.5,1.3-0.6,1.9c0.9-1.2,1.7-2.3,2.6-3.2c0.1-0.1,0.2-0.2,0.4-0.3l0.2-0.1l0.2-0.1c0.3-0.2,0.6-0.4,0.9-0.6
		c0.1-0.1,0.2-0.1,0.2-0.2c0,0.1-0.1,0.1-0.1,0.2c-0.1,0.2-0.2,0.4-0.3,0.6c-0.1,0.2-0.2,0.4-0.3,0.6l-0.1,0.1l0,0.2
		c0,0.3,0.1,0.6,0.1,1c0,0.4,0,0.8,0.1,1.2c0,0.2,0,0.3,0.1,0.5c0,0.4,0.1,0.7,0,1.2l0,0c0,0,0,0,0,0c0,0,0,0,0.1,0
		c0.3-0.2,0.5-0.6,0.6-0.9c0.1-0.4,0.2-0.7,0.2-1.1c0-0.4,0-0.7-0.1-1l-0.2-0.9c0.1-0.2,0.1-0.4,0.2-0.6c0.1-0.2,0.1-0.5,0.2-0.7
		c0-0.2,0.1-0.4,0.1-0.7c0.1-0.1,0.1-0.1,0.2-0.2c0.2-0.1,0.3-0.3,0.4-0.5c0.1-0.1,0.1-0.2,0.2-0.3l0.1-0.2c0.1-0.3,0.3-0.5,0.5-0.7
		c0,0,0,0,0.1-0.1c0.1,0.1,0.3,0.3,0.4,0.5c0.1,0.3,0.2,0.5,0.3,0.8c0,0.1,0,0.3,0,0.4c0,0.1,0,0.3,0,0.5c0,0.4,0,0.8,0,1.2
		c0.2,0.8,0.6,1.4,1,2c-0.2-0.7-0.4-1.4-0.3-2c0-0.3,0.1-0.6,0.2-0.9c0.1-0.1,0.1-0.4,0.1-0.6c0-0.2,0-0.4,0-0.6c0,0,0-0.1,0-0.1
		c0.3-0.3,0.6-0.5,0.9-0.6c0.2-0.1,0.4-0.2,0.7-0.3c0,0,0,0,0.1,0l0,0.1c0.1,0.4,0.1,0.7,0.1,1.1c0,0.4-0.2,0.7-0.3,1.1
		c0,0.4,0,0.7,0.2,1.1c0.1,0.2,0.1,0.3,0.2,0.5c0,0,0,0,0,0c-0.6-0.1-1.2-0.1-1.8,0c0,0,0,0-0.1,0c0,0,0,0.1,0,0.1l0,0
		c1.1,0.4,2.1,0.9,3,1.4c0.5,0.3,0.9,0.6,1.3,0.9c0.4,0.3,0.8,0.6,1.2,1l0.1,0.1c0.5,0.2,0.9,0.5,1.3,0.8c0.4,0.3,0.7,0.7,1,1.2
		c0.3,0.4,0.4,0.9,0.6,1.4c0.1,0.5,0.2,1,0.3,1.5l0,0l0.1,0.1c0.4,0.8,0.9,1.5,1.4,2.3c0.2,0.4,0.5,0.7,0.7,1.1l0.1,0.1
		c0,0,0,0,0,0.1c0,0,0,0,0,0.1c0,0,0,0,0,0.1c0,0.1,0,0.1,0,0.3c-0.2,0.7-0.5,1.3-0.9,2c-0.1,0.1-0.1,0.2-0.1,0.3
		C125.2,74.6,125,74.9,124.7,75.3z M27.3,105.2c0.9-3.6,1.8-7.7,2.4-10.5c0.1-0.4,0.2-0.8,0.2-1.1c0.2,0.6,0.4,1.2,0.6,1.9
		C30.2,96.6,29.1,100.9,27.3,105.2z"/>
</g>
</svg>
