<?xml version="1.0" encoding="utf-8"?>
<!-- Generator: Adobe Illustrator 23.0.0, SVG Export Plug-In . SVG Version: 6.00 Build 0)  -->
<svg version="1.1" id="Layer_1" xmlns="http://www.w3.org/2000/svg" xmlns:xlink="http://www.w3.org/1999/xlink" x="0px" y="0px"
	 viewBox="0 0 128 128" style="enable-background:new 0 0 128 128;" xml:space="preserve">
<style type="text/css">
	.st0{fill:#E5B77A;}
	.st1{fill:#E2AB69;}
	.st2{fill:#EAAC60;}
	.st3{fill:#FAD09D;}
	.st4{fill:#A0945A;}
	.st5{fill:#E5A55A;}
	.st6{fill:#C48E4E;}
	.st7{fill:#897D49;}
	.st8{fill:#C4AF47;}
	.st9{fill:#2D2D2D;}
</style>
<g>
	<path class="st0" d="M100.4,93c0.5-0.8,1.5-2.1,1.6-2.8c0.1-0.5,0.1-0.9,0.1-1.4c0-0.4-0.2-0.8-0.5-1.2c-0.4-0.5-0.8-0.9-1.3-1.3
		c-0.7-0.6-1.5-1.2-2.3-1.7c-0.8-0.5-1.7-0.9-2.6-1.3c-0.6-0.2-1.2-0.4-1.8-0.6l-0.1,0c-0.3,0.1-0.7,0.4-1.1,0.8
		c-0.4,0.4-0.7,0.8-1,1.2c-0.3,0.4-0.6,0.9-0.9,1.3c-0.2,0.4-0.4,0.7-0.6,1.1c0.5,0.1,1,0.3,1.6,0.5c1.1,0.4,2.1,1,3.2,1.6
		c1,0.6,2,1.3,2.9,2c0.7,0.6,1.5,1.2,2.2,1.8C99.9,93.2,100.2,93.2,100.4,93z M97.6,88.9c-1.9-0.4-3.3-0.7-3.8-1.6
		c-0.2-0.3-0.3-0.5-0.3-0.7c-0.1-0.5,0.3-1,0.8-0.8c1.4,0.5,3.9,1.4,5.3,1.9c0.4,0.1,0.5,0.6,0.3,0.9C99.5,89.1,98.9,89.2,97.6,88.9
		z"/>
	<path class="st0" d="M91.4,101.3c0.1,0.1,0.1,0.2,0.3,0.2c0,0,1.9-0.8,2.8-1.4c0.9-0.6,1.8-1.3,2.5-2.1c0.7-0.7,1.3-1.5,1.8-2.3
		c0.2-0.4,0.2-0.9-0.1-1.2c-0.6-0.7-1.6-1.8-2.1-2.3c-0.8-0.8-1.7-1.6-2.6-2.3c-0.9-0.7-1.8-1.4-2.9-1.9c-0.5-0.2-1-0.5-1.5-0.7
		c0,0,0,0.1-0.1,0.1l0,0l-0.1,0.1c-0.4,0.5-0.7,0.9-1.1,1.4c-0.4,0.4-0.8,0.8-1.2,1.3l-2.1,2.3c0.5,0.4,0.9,0.9,1.4,1.3
		c0.6,0.7,1.1,1.4,1.7,2.1c0.6,0.9,1.2,1.8,1.7,2.7C90.5,99.5,90.9,100.4,91.4,101.3z M89.2,91.8c0.6-0.7,0.8-1.6,1.7-1.5
		c0.2,0,5,3.4,5.5,4.8c-0.3,1.5-0.3,3.3-1.2,3c-0.9-0.3-1.7-1.5-3.5-1.8c-1.1-0.2-2-1.4-2.6-2.4C88.7,93.3,88.7,92.4,89.2,91.8z"/>
	<path class="st0" d="M80.1,103.4c0.2,0.6,0.3,1.2,0.4,1.8c0.1,0.3,0.3,0.6,0.7,0.6c0.8,0.1,1.5,0,2.3-0.1c1-0.2,2-0.5,3-0.8
		c1-0.4,1.9-0.9,2.7-1.4c0.5-0.3,0.9-1.2,0.7-1.5c0,0,0-0.1,0-0.1l0,0c-0.3-0.9-0.6-1.8-1-2.7c-0.4-0.9-0.8-1.8-1.2-2.6
		c-0.4-0.8-0.9-1.7-1.4-2.5c-0.4-0.5-0.7-1-1.2-1.5l-0.2,0.2l-0.1,0.1L84.8,93c-2.2,1.6-4.4,3.2-6.7,4.7l-0.3,0.2
		c0.6,1,1.1,2.1,1.6,3.2C79.6,101.8,79.9,102.6,80.1,103.4z M84.6,97.4c1.1,0.9,2.5,2.2,2.7,2.2c0.3,0.1-0.4,3.1-0.5,3.5
		c-0.1,0.5-2-0.3-2.5-1.4c0.2-0.8-0.1-2.6-0.4-3.9C83.9,97.4,84.3,97.1,84.6,97.4z"/>
	<path class="st1" d="M77.8,71.3c0.2,0.2,0.3,0.3,0.5,0.5c0.4,0.4,0.9,0.7,1.4,1.1c0.9,0.7,1.9,1.3,2.9,2c0.9,0.7,1.8,1.4,2.7,2.1
		c1.8,1.5,3.3,3.2,4.8,5l-0.2-0.1c0.6,0.3,1.1,0.7,1.7,1.1c0,0,0.1-0.1,0.1-0.1c0.2-0.2,0.5-0.3,0.8-0.5c0.2-0.1,0.4-0.2,0.6-0.2
		c0-0.4,0.1-0.7,0.2-1.1c0.1-0.5,0.2-0.9,0.4-1.3c0.1-0.4,0.3-0.9,0.5-1.3c0.1-0.1,0.1-0.3,0.2-0.4c-0.3-0.1-0.5-0.2-0.8-0.3
		c-0.8-0.3-1.5-0.8-2.1-1.3c-1.3-1-2.4-2.3-3.2-3.7c-0.8-1.4-1.9-2.6-3.2-3.5c-1.3-1-2.7-1.8-4.1-2.5c-1.5-0.8-3.1-1.5-4.7-2.1
		l1.4,6.2C77.8,70.8,77.8,70.9,77.8,71.3z M86.9,73.3c0.4-0.2,4.7,4.4,5.4,4.8c0.8,0.4,0,2.2-1.3,1.7C89.8,79.3,85.5,73.8,86.9,73.3
		z M85.2,71.8c-0.2,1.2,1.6,3.8-0.2,3.5C83,75,82.2,73,82.2,72.7C82.4,71.9,85.4,70.5,85.2,71.8z M79.5,69.9c0.2-1,0.7-2.6,1.4-2.6
		c1,0,2.7,3,2.5,3.3c-0.4,0.7-2,0-3.4,0C79.7,70.6,79.5,70.2,79.5,69.9z"/>
	<path class="st1" d="M47,71.2c-1.1,0.3-2.1,0.6-3.1,0.9c-0.3,1.6-0.4,3.3-0.6,4.9c-0.2,1.7-0.4,3.4-0.7,5.1l-0.2,1.3
		c0,0.2,0,0.4-0.1,0.5c0,0,0,0,0,0c0,0.1,0,0.1,0,0.1l0.1,0.4c0.2,0.9,0.4,1.7,0.5,2.6c0.3,1.7,0.5,3.4,0.7,5.2l0,0.2l-0.1,0.1
		c-0.7,1.1-1.5,2.2-2.3,3.3c0.7-0.2,1.4-0.4,2.1-0.6c1.1-0.3,2.3-0.5,3.5-0.6c1.2-0.1,2.4-0.1,3.6,0c1,0.1,2.1,0.4,3.1,1.1
		c1.2-0.5,2.4-0.9,3.5-1.3c1.4-0.4,2.7-0.8,4.1-1.2l0.3-0.1c0-0.1,0-0.2,0-0.3l0.2-1.4c0.1-0.9,0.2-1.9,0.4-2.8
		c0.3-1.9,0.6-3.7,0.9-5.6c0.4-1.8,0.7-3.7,1.1-5.5c0.3-1.6,0.7-3.1,1.1-4.7l-3.9-1.8c-1.4-0.7-2.9-1.4-4.3-2.1c-0.1,0-0.1,0-0.2,0
		c0,0,0,0,0,0c-0.1,0-0.2,0-0.2,0c-2.1,0.4-4.2,0.8-6.3,1.3C49.3,70.7,48.2,70.9,47,71.2z M44.5,77.9c0.2-0.6,1.1-1.7,1.7-2.4
		c0.3-0.4,0.8-0.6,1.3-0.5c1.4,0.2,3.2-0.2,2.4,1.8c-0.9,2.3-1.6,1.9-3.4,2.5C44.6,79.8,44.2,78.9,44.5,77.9z M58.4,87.8
		c-1,1.5,0.9,2.5-2.2,2.6c-3.1,0.1-4,0.1-6.5-0.1c-2.5-0.1-3.7-1.6-4.6-2.8c-0.9-1.2-1.2-3,1.2-4c1.4-0.6,2.3-1.4,2.8-2
		c0.3-0.4,0.8-0.6,1.4-0.6c1.7,0,4-0.2,5.1,0.3c0.3,0.1,3.3,1.6,3.6,2.9C59.5,85.4,59.4,86.4,58.4,87.8z M61.6,79
		c-0.4,1-0.4,1.1-1,1.7c-0.6,0.6-1.8-0.3-3.8-1.2c-1.8-0.9-0.8-1.1,0.3-1.6c0.2-0.1,0.5-0.2,0.8-0.2c0.6,0,1.8,0.1,3.1-0.3
		C62.9,77,62,78,61.6,79z M57.1,71.1c1.7,0.2,2.4,1.4,4.6,1.9c2.2,0.5-0.1,1.6-0.1,2.3c-0.1,0.7-3.4,0.4-4.9-0.1
		c-1.4-0.5-3-0.4-5-0.4c-0.4,0-0.8-0.2-1.2-0.4c-0.7-0.6-1.9-1.8-1.1-2.1c1.1-0.5,2.1-0.1,4.5-0.9C56.2,70.5,55.4,70.9,57.1,71.1z"
		/>
	<path class="st0" d="M67.3,104.8c0.1,0.8,0.3,2.4,0.4,3.1c0,0.2,0.1,0.3,0.3,0.4l1.1,0.3c0.2,0.1,0.4,0.1,0.7,0
		c1.8-0.3,3.5-0.7,5.3-1.1c0.9-0.2,1.9-0.4,2.8-0.7c0.5-0.1,0.7-0.2,1.1-0.4c0,0,0,0,0,0c0.2-0.2,0.1-0.5,0.1-0.5
		c0-0.8-0.1-1.6-0.2-2.4c-0.1-0.8-0.2-1.6-0.4-2.4c-0.2-1.2-0.6-2.4-1.1-3.5l-0.1,0c-0.8-0.2-1.8-0.3-2.8-0.3
		c-1.2,0-2.4,0.1-3.5,0.2c-1.8,0.2-3.5,0.5-5.3,0.8l-0.1,0c0,0,0,0.1,0.1,0.1c0.4,1,0.8,2,1,3C67,102.7,67.2,103.7,67.3,104.8z
		 M68.1,101.8c0.1-0.4,0.3-0.9,0.4-1.4c0.3-0.7,0.9-1.2,1.6-1.2c1.8,0,5,0,5.2,0.9c0.3,1.3-1.7,2.2-1.4,3.5c0.2,1.3,0.5,2-0.2,2.6
		c-0.7,0.6-3.1,1.8-4.3,1C68.3,106.5,67.9,102.8,68.1,101.8z"/>
	<path class="st1" d="M67.6,72.3l-0.1,0.4c-0.4,1.8-0.8,3.7-1.3,5.5c-0.4,1.8-0.9,3.6-1.4,5.4c-0.5,1.8-1,3.6-1.5,5.4l-0.8,2.7
		l-0.4,1.3L62,93.4l0.2,0.2l3.6,2.9c0.9-0.2,1.7-0.3,2.6-0.4c1-0.2,2-0.3,3.1-0.4c1-0.1,2.1-0.2,3.1-0.2c0.9,0,1.8,0,2.8,0.2
		c2.1-1.3,4.2-2.8,6.2-4.3l2.3-2.5c0.4-0.4,0.8-0.9,1.2-1.3c0.4-0.4,0.8-0.8,1.3-1.2l-0.1,0.1c0.4-0.5,0.7-0.9,1.1-1.3
		c0.4-0.4,0.8-0.8,1.2-1.3c0.3-0.3,0.6-0.6,0.9-0.8c-0.6-0.1-1.2-0.2-1.8-0.3l0,0l-0.2-0.1c-1.9-1.3-3.8-2.6-5.5-4.2
		c-0.8-0.8-1.6-1.6-2.4-2.5c-0.8-0.8-1.5-1.8-2.3-2.6c-0.4-0.4-0.8-0.8-1.2-1.2c-0.2-0.1-0.3-0.3-0.5-0.4c-0.3-0.1-0.9-0.3-1.2-0.2
		c-0.9,0.2-1.8,0.5-2.8,0.6C71.5,72.4,69.5,72.5,67.6,72.3z M66.7,79.2c0.1-0.3,0.4-0.5,0.7-0.4c1.1,0.5,3.2,1.6,3.2,1.9
		c-0.1,0.8-3.7,1.4-4.1,1.1C66.3,81.7,66.5,80.1,66.7,79.2z M72.9,91.1c-1.8,0.1-4.7,0.2-6.4-0.4c-1.8-0.6-1.9-1.7-1.6-2.8
		c0.2-1.1,1.3-4.3,1.3-4.3c1.1,0,6.6-1,7.1,0.1c0.5,1.1,1.9,3.9,1.8,5.5C75,90.8,74.6,90.9,72.9,91.1z M85.9,84.2
		c0.1,0.3-4.4,6.5-5.6,6.1c-1.3-0.4-3.7-6.2-3.7-6.2c1-1.4,1.2-3.1,2.5-2.8C80.6,81.5,85.9,83.9,85.9,84.2z M81.5,77.7
		c0.4,0.4,5.7,1.9,1.3,2.2c-4.4,0.2-4.9,0.6-4.9,0.2c0-0.4,1-1.4,1-1.4C79.3,78.5,81.1,77.3,81.5,77.7z M74.7,73.9
		c1.7,0,3.5,1.5,4.4,2.1c0.8,0.6-5.6,3-6,3.1c-0.4,0.1-4-2.3-4.7-2.4c0,0,0.2-1.7,1.7-2.3C71.5,73.8,73,73.9,74.7,73.9z"/>
	<path class="st1" d="M62.2,69.5l4.7,2l0.4,0.2c0.8-0.3,1.7-0.5,2.5-0.7c1.1-0.2,2.3-0.4,3.4-0.5c0.9,0,1.7,0,2.6,0.1l-1.8-7
		c-0.7-0.2-1.3-0.5-2-0.7l0,0l0,0c-1.5-0.8-3.1-1.2-4.7-1.5c-0.8-0.2-1.6-0.3-2.5-0.3c-0.8,0-1.7,0-2.4,0.2l0,0l0,0
		c-0.9,0-1.7-0.2-2.5-0.4c-0.7-0.1-1.3-0.2-2-0.3l0.1,7.2C59.4,68.3,60.8,68.9,62.2,69.5z M69.9,65.8c0.7-0.2,1.9-0.4,3.1,0
		c1.9,0.6-0.6,1.7-1.7,2.7c-0.9,0.8-1.4-0.6-1.9-1.8C69.4,66.3,69.6,65.9,69.9,65.8z M61.7,64.1c0.5-0.3,1.1-0.4,1.7-0.2
		c1.2,0.4,3.2,1.2,3.7,1.3c0.7,0.2,1.1,2.9,0.8,3.2c-0.2,0.3-7.8-1.7-8.3-2.2C59.2,65.9,60.6,64.8,61.7,64.1z"/>
	<path class="st0" d="M93.9,81c0,0.4-0.1,0.9-0.1,1.3l0,0.3c0.6,0.1,1.1,0.2,1.7,0.3c1,0.2,1.9,0.5,2.8,0.9c0.9,0.4,1.8,0.9,2.7,1.4
		c0.2,0.2,0.5,0.3,0.7,0.5c0.2,0.1,0.5,0.1,0.6-0.2c0.1-0.3,0.3-0.7,0.5-1c0.3-0.5,0.6-0.9,0.9-1.3c0.3-0.4,0.2-1-0.2-1.3
		c-1-0.6-2.1-1.2-3.2-1.7c-1.4-0.7-2.9-1.5-4.4-2c-0.4-0.2-0.9-0.3-1.4-0.4c0,0,0,0,0,0c-0.2,0.6-0.3,1.2-0.4,1.8
		C94,80.1,94,80.6,93.9,81z M96.2,81.7c1.4,0,4.1,0.1,4.9,0.2c0.8,0.1,1.1,1.1,0.6,1.9c-0.1,0.2-0.4,0.3-0.6,0.1
		c-0.9-0.7-3.5-1.6-4.9-2C96,81.9,96.1,81.7,96.2,81.7z"/>
	<path class="st0" d="M22.7,98.5c0.1,0.1,0.2,0.1,0.3,0.1C22.9,98.6,22.8,98.5,22.7,98.5z"/>
	<path class="st2" d="M27.9,84.9c-0.3,1.4-0.7,2.8-1.2,4.2c-0.4,1.4-0.9,2.8-1.4,4.1c-0.4,1-0.8,2-1.2,3c0.3,0,0.7,0,1,0
		c0.6,0,1.2,0,1.9,0c1.1,0.1,2.2,0.3,3.3,0.9c0.7-0.3,1.5-0.5,2.2-0.7c0.9-0.2,1.8-0.4,2.7-0.5c0.9-0.1,1.8-0.1,2.8-0.1
		c0.8,0,1.6,0.1,2.5,0.4c0.1,0,0.2-0.1,0.4-0.1c0.6-1.3,1.1-2.6,1.8-3.9c-0.4-1.6-0.8-3.3-1.2-4.9c-0.2-0.8-0.4-1.7-0.6-2.5
		l-0.1-0.3c0,0,0-0.1,0-0.1c0,0,0,0,0,0l0,0l0,0l-0.1-0.1c0-0.1-0.1-0.2-0.1-0.3c0-0.1,0-0.1,0-0.1l0,0c0-0.4,0-0.5,0.1-0.8
		c0.1-0.5,0.1-0.9,0.2-1.3c0.6-3.4,1.6-6.8,2.4-10.1c-1.4-0.7-2.8-1.5-4.1-2.2c-0.7-0.4-1.5-0.9-2.2-1.3c-0.1-0.1-0.2-0.1-0.3-0.2
		l-0.9,0.7c-1.4,1-2.9,1.8-4.3,2.7c-1.2,0.8-2.3,1.7-3.4,2.6c-0.2,0.2-0.4,0.5-0.3,1c0.2,0.7,0.3,1.4,0.5,2.1c0.2,1,0.5,2,0.6,3
		l0,0.1l0,0.2C28.5,82,28.2,83.4,27.9,84.9z M30,74.8c0.5-0.1,3.9-2.5,4.6-2.6c0.7-0.1,3.7,0.1,4.6,0.2c0.9,0.1,0.1,3.1,0.3,3.5
		c0.2,0.4-5.3,2.5-5.9,3c-0.6,0.5-3.5-2.9-3.7-3.1C29.8,75.9,29.5,74.9,30,74.8z M38.8,81c-0.6,0.1-2-0.3-2.2-0.7
		c-0.1-0.1,1-1,1.8-1.6c0.3-0.2,0.7,0,0.7,0.3C39.2,79.8,39.1,81,38.8,81z M30.1,80.4c0.1-0.4,0.5-0.7,0.9-0.5c1.1,0.3,2.7,1,2,1.3
		c-1,0.4-3.5,3.2-3.5,2.6C29.5,83.3,29.9,81.5,30.1,80.4z M30,88c0-0.4,0.1-0.9,0.1-1.4c0.1-0.9,0.6-1.7,1.4-2.1
		c0.7-0.4,1.6-0.8,1.8-0.7c0.4,0.1,1.7,1,2.9,1.4S39,85,39,86c0,1,2.2,2.9,0.2,3.8c-2,0.9-2.2,1.7-5,2.8c-2.7,1.1-3.7,2.8-4.6,1
		C28.8,91.8,29.9,89.1,30,88z"/>
	<path class="st0" d="M23.2,108.9c1.5,0.6,3.1,0.8,4.7,1c0.8,0.1,1.7,0.1,2.5,0c0.6,0,1.2-0.1,1.9-0.1c0.3,0,0.4-0.3,0.3-0.5
		c-0.9-1.4-1.4-3.1-1.8-4.7c-0.2-0.7-0.4-1.5-0.6-2.3c-0.2-1.1-0.4-2.1-0.5-3.2l0,0c-0.8-0.5-1.8-0.8-2.9-0.9c-0.5,0-1.1,0-1.7,0
		c-0.4,0-0.7,0-1.1,0l0,0l-0.1,0.4l-0.1,0.7l-0.2,1.4c-0.1,0.9-0.3,1.9-0.4,2.8c-0.1,0.9-0.2,1.9-0.3,2.8c0,0.6,0,1.8,0.1,2.3
		C23,108.7,23.1,108.8,23.2,108.9z M24.8,102.1c0.1-0.6,0.6-1.1,1.1-1.2c0.8-0.1,2.1-0.2,3,0.3c0.3,0.2,0.5,0.6,0.5,1
		c-0.1,1.4-0.3,3.3,0,4.1c0.1,0.3,0.1,0.7-0.1,1c-0.3,0.7-0.9,1.2-1.8,0.8c-1.3-0.4-2.3-2.2-2.7-3.4C24.4,104,24.6,102.9,24.8,102.1
		z"/>
	<path class="st3" d="M37.2,66.4c0.2,0.1,0.4,0.2,0.6,0.4c0.8,0.5,1.4,1,2.1,1.5c1.2,1,2.4,2,3.5,3.2l0.1,0c1.1-0.2,2.3-0.5,3.4-0.8
		c1.1-0.3,2.3-0.6,3.4-1c1.9-0.6,3.8-1.2,5.7-1.8l-0.1-7.5c-1.2-0.1-2.3-0.1-3.5,0l0,0l0,0c-0.6-0.2-1.2-0.3-1.8-0.4
		c-0.6-0.1-1.3-0.1-1.9-0.1c-0.6,0-1.3,0.1-1.9,0.3c-0.6,0.1-1.2,0.3-1.8,0.6l0,0l0,0c-1.8,0.4-3.7,0.9-5.5,1.4
		c-1.8,0.5-3.6,1.1-5.3,1.8l0,0l0,0c-0.1,0-0.1,0-0.2,0l2.8,2.1C36.8,66.2,37.1,66.4,37.2,66.4z M48.7,64.2c0.1-0.4,0.4-0.7,0.8-0.8
		c0.4-0.1,0.9-0.2,1.3-0.2c0.7,0,2.3,0.7,3.6,1.6c1.2,1-1.5,0.6-3.9,1.3C48.3,66.8,48.5,65.5,48.7,64.2z M45.8,62.8
		c0.9-1.2,3.2,5.8,0.6,5.9c-2.6,0.1-6.1-1.6-5.9-2.5C40.7,65.2,44.2,64.9,45.8,62.8z"/>
	<path class="st0" d="M43.7,105.2c0.2,0.9,0.4,1.9,0.5,2.8c0,0.4,0.3,0.7,0.6,0.9c0.6,0.3,1.2,0.5,1.9,0.7c1,0.2,2,0.4,3,0.4
		c1,0,2-0.1,3-0.2c0.5-0.1,1-0.2,1.5-0.3c0.1,0,0.2-0.1,0.3-0.1c0.3-0.1,0.5-0.4,0.5-0.7c0-0.9-0.1-2.5-0.2-3.4
		c-0.1-1.1-0.2-2.3-0.4-3.4c-0.2-1.1-0.5-2.2-0.9-3.3c-0.1-0.3-0.2-0.6-0.4-0.8L53,97.7c-0.7-0.6-1.7-0.9-2.7-1
		c-1-0.1-2.1-0.1-3.2,0C46,96.8,45,97,43.9,97.2c-1.1,0.2-2.1,0.6-3.1,0.9c0.3,0.3,0.5,0.7,0.7,1c0.5,0.9,0.9,1.9,1.3,2.8
		C43.2,103.1,43.4,104.1,43.7,105.2z M44.1,101.6c0.2-0.6,0.8-1.6,1.5-1.7c1.2-0.1,3.7-0.8,5.1-0.2c0.5,0.2,1.2,1,1.2,1.5
		c-0.1,1.4-0.6,3.7-0.2,4.6c0.2,0.3,0.1,0.7,0,1c-0.4,0.7-1.2,0.5-2.6,0.7c-2,0.4-2.9,0.4-3.5-0.9C45.2,105.9,43.9,102.5,44.1,101.6
		z"/>
	<path class="st0" d="M42.2,83.7L42.2,83.7c0,0.1,0,0.1,0.1,0.1C42.3,83.7,42.3,83.7,42.2,83.7C42.2,83.7,42.2,83.6,42.2,83.7
		L42.2,83.7z"/>
	<path class="st0" d="M56.1,106.3c0.1,0.7,0.1,1.5,0.1,2.2c0,0.4,0.3,0.7,0.6,0.8c0.4,0.1,0.8,0.2,1.2,0.2c0.8,0.1,1.7,0.1,2.5,0.1
		c1.7,0,3.3-0.3,5-0.6l0.1-0.1c0.4-0.2,0.7-0.7,0.6-1.2c-0.1-0.9-0.2-2.2-0.2-2.8c-0.1-1-0.1-2.1-0.3-3.1c-0.1-1-0.4-2-0.7-3
		c0-0.2-0.1-0.3-0.2-0.5l-0.1-0.1l-3.6-2.9c-1.2,0.3-2.4,0.7-3.5,1.1c-1.3,0.4-2.6,0.9-3.9,1.4L53.6,98c0.1,0.1,0.2,0.3,0.2,0.4
		c0.6,1,1,2.1,1.3,3.2C55.6,103.2,55.9,104.7,56.1,106.3z M56.6,102.2c0.2-0.6,0.4-2.6,1.1-2.7c1.1-0.1,3.8,0,5.1,0.6
		c0.5,0.2,1.3,1.2,1.2,1.6c-0.1,1.4-0.6,3.7-0.2,4.6c0.2,0.3,0.5,0.9,0.3,1.2c-0.4,0.7-1.3,0.3-2.7,0.5c-1.9,0.4-3.9-1.1-4.6-2.4
		C56.6,104.9,56.4,103,56.6,102.2z"/>
	<path class="st0" d="M33.8,109.9c0.6,0.2,1.3,0.3,1.9,0.4c0.9,0.1,1.9,0.1,2.8,0c0.9-0.1,1.9-0.3,2.8-0.6c0.3-0.1,0.6-0.2,0.8-0.3
		c0.3-0.2,0.6-0.5,0.5-0.9c-0.1-1-0.1-2.9-0.2-3.9c-0.1-0.7-0.2-1.5-0.3-2.2c-0.2-1.1-0.5-2.1-0.9-3.1C41,99,40,98.2,40,98.2
		c-0.6-0.2-1.4-0.3-2.2-0.4c-0.8,0-1.6,0-2.5,0.1c-0.8,0.1-1.6,0.2-2.4,0.4c-0.2,0-0.3,0.1-0.4,0.1c-0.7,0.2-1.2,0.9-1.2,1.6
		c0,0.4,0,0.9,0,1.3c0,0.9,0.1,1.9,0.2,2.8c0.2,1.3,0.8,3.4,1.2,4.6C32.8,109.4,33.2,109.8,33.8,109.9z M32.6,101.8
		c0.1-0.8,0.6-1.4,1.4-1.6c1.2-0.3,3.1-0.5,4.5-0.1c0.5,0.2,0.9,0.6,0.9,1.1c0.1,1.6,0.2,3.9,0.8,4.8c0.2,0.3,0.2,0.8,0.1,1.1
		c-0.3,0.8-1,1.5-2.6,1.3c-2-0.3-3.9-2.1-4.7-3.6C32.5,104.2,32.5,102.8,32.6,101.8z"/>
	<path class="st4" d="M22.5,109.4c-1.6,0.2-3.1,0-4.6-0.3c-1.6-0.4-3.2-1.1-4.7-1.8c-0.4,0-0.8-0.1-1.2-0.2c0,0.2-0.2,0.5-0.2,0.7
		l-0.2,1.2c-0.1,0.8-0.2,1.7-0.2,2.5l0,0.1l-0.1,0.2c-1.3,1.9-2.8,3.5-4.3,5.1c-0.8,0.8-1.5,1.6-2.3,2.3l-1.2,1.1
		c-0.4,0.4-0.8,0.8-1,1.1l-0.1,0.1c-0.6,0.7-1.2,1.3-1.6,2c-0.2,0.4-0.2,0.7-0.1,1.1c0.1,0.4,0.3,0.7,0.6,1c0.6,0.5,1.4,1.1,2.2,1.3
		c0.4,0.1,0.8,0.2,1.1,0.1c0.4-0.1,0.6-0.3,0.7-0.5l0.1-0.4l0.5,0.1c0.5,0.1,1.1,0.2,1.6,0.2c0.3,0,0.5-0.1,0.7-0.1
		c0.2-0.1,0.2-0.2,0.2-0.2l1-0.4c0.4,0.2,0.9,0.3,1.2,0.3c0.1,0,0.2,0,0.2,0c-0.3-0.9-0.4-1.7-0.4-2.6c0-1.1,0.1-2.2,0.6-3.2
		c0.1-0.3,0.2-0.5,0.4-0.8c0.1-0.2,0.2-0.4,0.4-0.6l0.7-1.3c0.5-0.8,1-1.6,1.6-2.4l0.2-0.2l0.2-0.1c0.7-0.4,1.5-0.8,2.3-1.2
		c0.7-0.4,1.5-0.9,2.2-1.4C20.3,111.6,21.5,110.6,22.5,109.4z"/>
	<path class="st0" d="M22.7,98.4C22.7,98.4,22.7,98.4,22.7,98.4C22.7,98.4,22.7,98.4,22.7,98.4C22.7,98.4,22.7,98.4,22.7,98.4z"/>
	<path class="st3" d="M12.3,95.2c0.6,0.5,1.3,0.9,2,1.2c0.7,0.3,1.4,0.4,2,0.2l0.1-0.1l0.3,0.1c0.4,0.1,1,0.2,1.5,0.2
		c0.6,0,1.1,0,1.7-0.1l1.6-0.2c0.3,0,0.5-0.1,0.8-0.1c0.1,0,0.2-0.1,0.3-0.1c0.1,0,0.2-0.1,0.2-0.1l0.7-0.2c0,0,0,0,0,0
		c0.1-1.1,0.3-2.2,0.4-3.3c0.2-1.4,0.5-2.9,0.8-4.3c0.3-1.4,0.7-2.8,1.1-4.2c0.4-1.4,0.8-2.7,1.2-4c-0.1-0.9-0.2-1.9-0.2-2.8
		c0-0.7-0.1-1.4-0.1-2.1c-0.1,0-0.1,0-0.2-0.1l-4-2.1c-0.2,0.2-0.4,0.3-0.7,0.5c-0.5,0.3-1,0.6-1.6,0.9c-1.1,0.6-2.1,1.1-3.2,1.7
		c-1,0.6-2.1,1.2-2.6,2.3c-0.6,1-0.9,2.2-1.3,3.4c-0.3,1.2-0.6,2.4-0.8,3.5c-0.2,1.2-0.8,2.3-1.3,3.4c-0.6,1.1-1.1,2.2-1.6,3.4
		c-0.1,0.3-0.1,0.6,0.2,0.9C10.6,93.9,11.4,94.6,12.3,95.2z M20.5,93.4c-0.7-0.4-1,0.1-2.5,2c-1.5,1.8-0.4-1.5,0-2.7
		c0.4-1.2,0.7-5.3,1.1-6.3c0,0-0.4-0.2,0.1-0.4c0.6-0.2,0.9,1.4,2,3.4c1.1,2.1,0.3,2.2,0.7,3.7C22.3,94.6,21.2,93.8,20.5,93.4z
		 M23.7,86.2c-0.3,0-1-0.9-2.3-2.7c-1-1.4,0.6-1.4,1.8-1.6c0.4-0.1,0.8,0.2,0.8,0.7c0,0.4,0.1,1,0.1,1.7
		C24.3,85.9,24,86.2,23.7,86.2z M16.6,79.7c0.6-1.1,1.3-1.1,3.8-2.9c2.5-1.8,1.4-1,3.9-0.6c2.5,0.4,0.7,0.9,0.4,1.5
		c-0.4,0.7-1.8,0.9-2.8,2c-1,1.1-3,1.3-4.3,1.8C17.6,81.7,16,80.8,16.6,79.7z M14.2,82.6c0.1-0.2,0.4-0.3,0.6-0.2
		c0.7,0.4,1.7,1.3,1,1.7c-0.8,0.5-2.2,1.6-2.4,1C13.3,84.9,13.9,83.3,14.2,82.6z M12.7,89.4c1.2-1.1,2.6-4.4,3-4.5
		c0.8-0.3,2.3,0,1.7,1.6c-0.6,1.6-0.2,1.5-0.9,3.4c-0.7,1.8,1.3,3.6-1.1,3.5c-2.4-0.1-2.6-0.2-3-1.4C12.1,90.8,11.5,90.5,12.7,89.4z
		"/>
	<path class="st5" d="M13.3,105.8c0-1.1,0.2-2.3,0.4-3.4c0.2-0.8,0.4-1.6,0.6-2.4c0.2-0.7,0.4-1.4,0.7-2.1c-0.4-0.1-0.8-0.3-1.1-0.5
		c-0.8-0.4-1.4-1-2-1.6c-0.7-0.7-1.3-1.4-1.9-2.1c-0.3-0.3-0.8-0.3-1,0.1c-0.2,0.5-0.4,1.1-0.6,1.6c-0.4,1.1-0.7,2.3-0.8,3.5
		c-0.1,1.2,0,2.4,0.4,3.5c0.2,0.6,0.5,1.1,0.8,1.6c0.4,0.5,0.8,0.9,1.3,1.2c0.8,0.5,1.6,0.9,2.5,1.1C13,106.4,13.3,106.2,13.3,105.8
		z M10.9,104.4c-0.2-0.1-1.5-1.2-2-2.6c-0.4-1.1,0.3-3,0.8-4.1c0.2-0.4,0.7-0.5,1.1-0.3c0.4,0.2,0.8,0.6,0.8,0.8
		c0,0.5-0.4,0.7-0.7,1.9C10.6,101.4,11.1,104.4,10.9,104.4z"/>
	<path class="st0" d="M22.4,98.5c-0.2,0-0.4,0.1-0.6,0.1c-0.6,0.1-1.2,0.1-1.9,0.1c-0.6,0-1.2-0.1-1.9-0.2c-0.4-0.1-0.8-0.1-1.2-0.3
		c0,0,0,0.1,0,0.1c0,0.1-0.1,0.1-0.1,0.2l0,0c-0.4,0.6-0.8,1.3-1.2,2c-0.4,0.7-0.7,1.4-1,2.1c-0.4,0.9-0.7,1.9-1,2.9
		c-0.1,0.6,0.1,1.1,0.6,1.4c1.2,0.6,2.5,1.1,3.8,1.5c1.2,0.3,2.5,0.5,3.7,0.5c0.6,0,1-0.6,0.9-1.2c-0.1-0.5-0.1-0.9-0.2-1.4
		c-0.1-1-0.1-1.9-0.2-2.9c0-1,0-1.9,0-2.9l0-1.4L22.4,98.5z M20.6,106.1c-1.5,1.6-3.4,1.6-3.7,0.7c-0.2-0.6,0.5-4.1,1-6
		c0.2-0.7,0.8-1.2,1.6-1.2c0.6,0,1.3,0.1,1.5,0.4C21.5,100.4,22.1,104.5,20.6,106.1z"/>
	<path class="st4" d="M126.4,86.9c-0.1-0.5-0.3-0.9-0.6-1.2c-0.1-0.1-0.4-0.4-0.6-0.6l-0.6-0.6l-0.3-0.3c-0.1-0.1-0.2-0.1-0.2-0.2
		c-0.2-0.1-0.4-0.2-0.6-0.3c-0.1,0-0.2-0.1-0.3-0.1l-0.5-0.1l-0.9-0.3c-1.2-0.3-2.4-0.8-3.5-1.4l0,0c-1.1-0.4-2.2-0.7-3.4-0.6
		c-1.2,0-2.3,0.4-3.3,0.6c-1.1,0.2-2.2,0.4-3.2,0.7c-0.7,0.2-1.4,0.4-2.1,0.6l-0.5,0.5c-0.5,0.5-1.1,1.3-1.5,1.9
		c-0.2,0.3-0.4,0.7-0.5,1c-0.1,0.2-0.1,0.3-0.1,0.4l0,0.2c0,0,0,0.2,0,0.3c0,0.4,0,0.9,0.1,1.4c0,0.5,0,1.1-0.1,1.8
		c-0.1,0.7-0.5,1.3-0.8,1.9c-0.3,0.4-0.6,0.7-0.9,1c-0.6,1.4-1.3,2.7-2.2,3.9c2-0.4,3.9-0.6,5.9-0.8l1.8-0.1l0.9,0
		c0.3,0,0.6,0,0.8-0.1c0.4-0.1,0.9-0.1,1.3-0.3l-1.4-0.9l0,0c-0.3-0.1-0.6-0.4-0.7-0.8l0-0.1l0,0l-0.4-3.9l1.2,3.7l0-0.1
		c0.1,0.1,0.2,0.2,0.3,0.2l0,0l2.9,0.8c0.5-0.3,1.1-0.5,1.7-0.6c0.6-0.2,1.3-0.2,1.9-0.3c1.2-0.1,2.4-0.2,3.6-0.2l1.8-0.1l0.4,0
		c0.1,0,0.3,0,0.4,0c0.3,0,0.5-0.1,0.7-0.2c0.8-0.3,0.7-1.1,1-2.1l-1.8-0.1c-0.7,0.2-1.4,0.3-2.2,0.4c-0.8,0.1-1.6,0-2.3-0.2
		c0.7,0.2,1.5,0.1,2.2-0.1c0.7-0.2,1.4-0.4,2.1-0.7c0,0,0,0,0.1,0l0,0l4.3-0.4c0-0.5,0-1.1,0-1.6c0-0.3,0-0.7,0-1
		C126.5,87.4,126.5,87.2,126.4,86.9z M120.1,89.8c-1.2,0-2.1-0.8-2.1-1.8c0-1,1-1.8,2.1-1.8c1.2,0,2.1,0.8,2.1,1.8
		C122.3,89,121.3,89.8,120.1,89.8z"/>
	<path class="st4" d="M99.4,97.8c-0.4,0.5-0.8,0.9-1.2,1.3c-0.9,0.9-1.8,1.6-2.8,2.3c-0.9,0.6-2,1.1-3,1.4c-0.8,0.7-1.6,1.3-2.4,1.8
		c-0.1,0.3-0.2,0.6-0.3,0.9c-0.2,0.5-0.3,1-0.5,1.5c-0.1,0.5-0.3,1-0.3,1.4c0,0.1,0,0.2,0,0.1c0,0,0,0,0.1,0
		c0.1,0.1,0.3,0.1,0.5,0.1c0.5,0.1,1,0.1,1.5,0.1c1,0,2.1,0,3.2,0.1l0.6,0.1l0,0.7c0,0.5-0.1,1-0.4,1.4c0,0,0,0,0,0
		c-0.4,0.6-0.5,1.4-0.5,2.1c0.1,1.1,0.2,2.3,0.3,3.4c0.1,0.9,0.4,1.7,0.8,2.5c0.4,0.8,1,1.5,1.6,2.2c0.6,0.6,1.3,1.1,2,1.4
		c0.2,0.1,0.4,0.1,0.6,0.2c0.2,0.1,0.4,0.1,0.6,0.1c0.4,0.1,0.9,0.1,1.3,0.1c0.9,0,1.8,0,2.7-0.2c0.4-0.1,0.8-0.2,1.2-0.4
		c0.1,0,0.2-0.1,0.2-0.1c-0.4-0.3-0.7-0.6-1-1c-0.4-0.5-0.6-1.1-0.8-1.6c-0.4-1.1-0.6-2.2-0.9-3.3l0,0l0,0c0-1,0.1-1.9,0.1-2.8
		c0.1-0.9,0.1-1.8,0.1-2.7c0-1.8,0.1-3.6,0.2-5.4c0.1-0.9,0.2-1.8,0.1-2.5c0-0.8-0.3-1.5-0.7-2.2c-0.4-0.7-1-1.3-1.6-1.9
		c-0.3-0.3-0.6-0.6-1-0.9C99.8,98.1,99.6,98,99.4,97.8z"/>
	<path class="st6" d="M89.3,110c-0.3-0.1-0.6-0.2-0.9-0.4c-0.2-0.1-0.4-0.3-0.5-0.6c-0.1-0.3-0.1-0.5-0.1-0.7
		c0.1-0.6,0.3-1.1,0.5-1.6c0.2-0.5,0.5-1,0.7-1.5c0,0,0-0.1,0-0.1c-0.7,0.4-1.4,0.7-2.2,1c-1,0.4-2.1,0.7-3.3,0.9c-1,0.1-2,0.2-3,0
		c-0.1,0.1-0.2,0.1-0.3,0.2c-0.3,0.2-0.5,0.2-0.8,0.3c-0.5,0.2-1,0.3-1.5,0.5c-1,0.3-1.9,0.5-2.9,0.7c-1.9,0.4-3.8,0.7-5.7,1l-0.3,0
		l-0.2-0.1l-1.6-0.6L66,110l-0.1,0.1l-0.1,0c-0.9,0.2-1.7,0.3-2.6,0.4c-0.9,0.1-1.7,0.1-2.6,0.1c-0.9,0-1.8,0-2.7-0.2
		c-0.8-0.1-1.5-0.3-2.3-0.7c-0.4,0.2-0.8,0.3-1.2,0.4c-0.5,0.1-1.1,0.2-1.6,0.3c-1.1,0.1-2.1,0.2-3.2,0.1c-1.1,0-2.1-0.2-3.1-0.5
		c-0.8-0.2-1.7-0.6-2.5-1c-0.3,0.1-0.7,0.3-0.8,0.3c-0.1,0.1-0.2,0.1-0.4,0.2c-0.5,0.2-0.9,0.4-1.4,0.5c-0.9,0.3-1.9,0.5-2.9,0.5
		c-1,0.1-2,0-2.9-0.1c-1-0.2-1.9-0.4-2.8-0.8c-0.8,0.2-1.6,0.2-2.5,0.3c-0.8,0.1-1.7,0.1-2.5,0.1c-0.8,0-1.7-0.1-2.5-0.2
		c-0.8-0.1-1.6-0.4-2.4-0.6c0,0,0,0,0,0c-0.3,0.7-0.8,1.4-1.3,2.1c-0.5,0.6-0.8,1-1.4,1.5c0.4,0.6,1,1.2,1.7,1.5
		c0.2,0.1,0.5,0.2,0.7,0.2c0.2,0,0.5,0,0.8,0l1.6,0c1.1,0,2.2-0.1,3.3-0.1l1.6-0.1c0.5,0,1.1-0.1,1.5-0.2l0.1,0l0.1,0
		c2.9,0.1,5.9,0.3,8.8,0.5c2.9,0.2,5.8,0.6,8.8,0.8c2.9,0.2,5.7,0.1,8.6-0.2c2.9-0.3,5.9-0.8,8.8-1.4l0,0l0.1,0
		c2.1,0.1,4.3,0.2,6.4,0.2c1.1,0,2.1,0,3.1-0.1c1-0.1,2.1-0.2,2.9-0.5l0.1,0l0.1,0c1.4-0.1,2.7-0.2,4-0.3c1.3-0.1,2.6-0.3,3.9-0.5
		c1.3-0.2,2.6-0.5,3.7-0.9c0.6-0.2,1.1-0.5,1.5-0.8c0.2-0.1,0.3-0.2,0.4-0.4c-0.7-0.1-1.3-0.1-2-0.2C90.4,110.2,89.9,110.2,89.3,110
		z"/>
	<path class="st7" d="M11.2,108.6c0,0.2,1,5.2,1.8,5.5c-1,0.7-11.4,10.1-5.5,12.4c1.9,0.7,4.1,0.2,4.1,0.2s-0.4-4.4,0.5-6
		c0.9-1.6,2.7-4.5,3.2-5c0.6-0.4,4.6-3.4,5.5-4c0.9-0.7,1.9-2.5,2-2.8c-1.3,0.3-5.5-0.2-6.9-0.8s-3.3-1.4-3.5-1.4
		c-0.2,0-0.9,0.4-0.9,0.4L11.2,108.6z"/>
	<path class="st7" d="M93.6,107.4c1.5-5,8.7-5.9,9-0.4c-0.2,3.3-4.8,10.9-4.8,12.8c-0.1,2,1.1,4,3.8,4.2s4.7-1.3,4.8-1.6
		c-1.4-0.8-3.4-4.5-3.3-6.2c0.1-1.7,0.9-8.2,0.9-8.2s0.3-5.4-0.2-6.3s-4.9-4.5-4.9-4.5s-6.4,5.1-7.6,5.4c-1.1,0.3-2.1,1.7-2.1,1.7
		s-1,4-0.7,4.4c0.3,0.4,4.3,1.1,4.5,1.1C93.3,110,93.6,107.4,93.6,107.4z"/>
	<path class="st7" d="M100.4,94.8c0.1,0,5.8-0.6,8.1-2.7c0.1,1.2,0.8,2.6,0.8,2.6l2.8,1.3c0,0-2,1.1-3.5,1.2s-8.8,0.5-8.9,0.5
		s-0.5-0.8-0.5-0.8L100.4,94.8z"/>
	<path class="st3" d="M27.5,73.6c1.2-0.8,2.3-1.7,3.4-2.7c1.3-1.2,2.4-2.4,3.8-3.5c0.1-0.1,0.1-0.1,0.2-0.2l-3.3-2.5
		c0,0-0.1-0.1-0.1-0.1c-0.3,0.1-0.6,0.2-0.8,0.3c-1.1,0.5-2.1,1.1-3,1.8c-0.9,0.8-1.7,1.7-2.4,2.6c-0.3,0.5-0.6,1-0.9,1.5
		c-0.1,0.2-0.3,0.5-0.4,0.7L27.5,73.6C27.5,73.5,27.5,73.5,27.5,73.6z M26.8,71.4c-0.2-0.4,0.1-0.9,0.5-1.2c0.3-0.3,0.4-0.7,0.2-1.1
		c-0.2-0.3-0.1-0.6,0.2-1c0.4-0.6,0.8-1.1,1.6-1.3c0.8-0.3,2.9-0.8,2.3,0.4c-0.6,1.2-1.8,1.9-2.3,3.3C28.6,72,27.2,72.3,26.8,71.4z"
		/>
	<path class="st8" d="M119.2,85.2c-1.8,0-3.2,1.2-3.2,2.7c0,1.5,1.4,2.7,3.2,2.7c1.8,0,3.2-1.2,3.2-2.7
		C122.3,86.5,120.9,85.2,119.2,85.2z"/>
	<path class="st9" d="M120.1,86.2c-1.2,0-2.1,0.8-2.1,1.8c0,1,1,1.8,2.1,1.8c1.2,0,2.1-0.8,2.1-1.8C122.3,87,121.3,86.2,120.1,86.2z
		"/>
	<path class="st9" d="M126.7,83.7l-0.7-0.7l-0.3-0.4c-0.1-0.1-0.3-0.3-0.5-0.4c-0.3-0.2-0.7-0.4-1.1-0.5c-0.2-0.1-0.4-0.1-0.6-0.1
		l-0.5-0.1l-0.9-0.1c-0.6-0.1-1.2-0.2-1.8-0.3c-0.6-0.1-1.2-0.1-1.8-0.2l0,0c-0.6,0-1.2-0.1-1.8-0.2c-0.6,0-1.2-0.1-1.8-0.2
		c-1.2-0.2-2.4-0.4-3.6-0.4c-0.3,0-0.6,0.1-0.9,0.1c-0.3,0.1-0.6,0.1-0.9,0.2c-0.6,0.2-1.2,0.4-1.7,0.6c-0.4,0.2-0.8,0.4-1.2,0.7
		l-1.2-0.7c-1.4-0.8-2.9-1.6-4.3-2.4c-1.5-0.8-2.9-1.5-4.6-2.1c-0.2-0.1-0.4-0.2-0.7-0.2l-0.6-0.2c-0.3-0.1-0.6-0.2-0.9-0.3
		c-0.6-0.3-1.2-0.6-1.7-1c-1.1-0.9-2-2-2.8-3.3l-0.1-0.2c0-0.1-0.1-0.2-0.2-0.3l-0.4-0.6c-0.3-0.4-0.6-0.7-0.9-1.1
		c-0.6-0.7-1.3-1.3-2-1.8c-1.4-1.1-2.9-2-4.4-2.7c-3-1.5-6-2.7-9.2-3.7c-0.8-0.4-1.6-0.7-2.5-1c-0.9-0.3-1.7-0.5-2.6-0.6
		c-0.9-0.2-1.8-0.3-2.7-0.3c-0.5,0-0.9,0-1.4,0c-0.4,0-0.8,0.1-1.3,0.2c-0.2,0-0.5-0.1-0.8-0.1L60.1,59c-0.8-0.1-1.7-0.3-2.5-0.4
		c-1.6-0.2-3.3-0.3-5-0.2c-0.6-0.2-1.2-0.3-1.8-0.4C49.9,58,49.2,58,48.5,58c-0.7,0-1.5,0.2-2.2,0.3c-0.4,0.1-0.7,0.2-1.1,0.3
		c-0.3,0.1-0.6,0.2-0.9,0.4c-1.8,0.4-3.6,0.9-5.4,1.4c-0.9,0.3-1.8,0.5-2.8,0.8c-0.9,0.3-1.7,0.6-2.6,1c-1.2,0.3-2.4,0.6-3.6,1.1
		c-1.2,0.5-2.4,1.2-3.4,2.1c-1,0.9-1.9,1.9-2.7,3c-0.4,0.6-0.7,1.1-1,1.7L22.5,71l-0.1,0.2c0,0.1,0,0.1-0.1,0.1c0,0,0,0.1,0,0.1
		c0,0-0.1,0.1-0.1,0.1c-0.3,0.3-0.7,0.6-1.1,0.9c-0.4,0.3-0.9,0.6-1.4,0.9c-1,0.6-2.1,1.1-3.1,1.8c-0.5,0.3-1.1,0.7-1.6,1.1
		c-0.3,0.2-0.6,0.5-0.8,0.8c-0.3,0.3-0.4,0.6-0.6,0.9c-0.7,1.3-1,2.5-1.3,3.7c-0.3,1.2-0.5,2.4-0.8,3.6c-0.1,0.3-0.1,0.6-0.2,0.8
		c-0.1,0.2-0.1,0.5-0.2,0.7c-0.2,0.5-0.4,1-0.7,1.6c-1,2.2-2.1,4.4-2.9,6.8c-0.4,1.2-0.7,2.5-0.8,3.8c-0.1,1.3,0.1,2.7,0.6,4
		c0.2,0.6,0.6,1.2,1,1.8c0.4,0.5,0.9,1,1.5,1.4c0.3,0.2,0.6,0.4,0.9,0.6c0.4,0.2,0.7,0.7,0.6,1.2c-0.1,0.4-0.2,0.9-0.2,1.1
		c-0.2,0.7-0.4,1.5-0.6,2.3c-0.7,0.8-1.5,1.5-2.2,2.2l-2.3,2.3c-0.8,0.8-1.5,1.6-2.3,2.4c-0.4,0.4-0.7,0.9-1,1.3
		c-0.3,0.5-0.7,0.9-1,1.5c-0.5,0.7-1,1.5-1.3,2.4c-0.2,0.5-0.2,1-0.1,1.5c0.1,0.5,0.5,0.9,0.8,1.3c0.4,0.3,0.7,0.6,1.1,0.9
		c0.4,0.3,0.8,0.5,1.2,0.7c0.4,0.2,0.9,0.3,1.5,0.3c0.4,0,0.9-0.1,1.2-0.5c0.5,0.2,1,0.3,1.6,0.4c0.3,0,0.7,0.1,1.1,0
		c0.2,0,0.5-0.1,0.7-0.3c0.4,0.2,0.8,0.3,1.3,0.3c0.4,0,0.8,0,1.2-0.2c0.4-0.2,0.7-0.5,1-0.8l0.3-0.4l-0.2-0.5
		c-0.2-0.7-0.3-1.6-0.3-2.5c0-0.4,0.1-0.8,0.2-1.2c0.1-0.4,0.2-0.8,0.3-1.2c0.1-0.2,0.2-0.4,0.3-0.5l0.3-0.6l0.7-1.3l1.3-2.3
		c0.7-0.4,1.4-0.9,2-1.3c0.4-0.3,1-0.8,1.5-1.2c0.4-0.3,0.9-0.3,1.2,0.1c0.4,0.4,0.8,0.7,1.3,1c0.3,0.1,0.5,0.3,0.8,0.4
		c0.3,0.1,0.6,0.1,0.9,0.1c0.5,0.1,1,0.1,1.5,0.2c1,0.1,2,0.2,3.1,0.2c0.7,0,1.4,0,2.1,0c0.5,0,1,0,1.6-0.1c2.9,0.3,5.8,0.5,8.7,0.6
		c2.9,0.1,5.9,0.6,8.9,0.5c2.9-0.1,5.8,0,8.7-0.2c2.9-0.2,5.9-1.1,8.8-1.5c2.1,0.3,4.2,0.5,6.4,0.6c1.1,0,2.2,0.1,3.3,0
		c1.1,0,2.1-0.1,3.2-0.4c1.3,0,2.7-0.1,4-0.2c1.4-0.1,2.7-0.3,4.1-0.6c1.4-0.3,2.7-0.6,4.1-1.2c0.1-0.1,0.3-0.1,0.4-0.2
		c0.5-0.2,1.1,0.2,1,0.7c-0.1,1-0.2,1.9-0.2,2.9c0,0.5,0,1.2,0.2,1.7c0.1,0.5,0.3,1.1,0.5,1.6c0.4,1,1,2,1.7,2.8
		c0.7,0.8,1.7,1.5,2.8,2c0.3,0.1,0.6,0.2,0.8,0.3c0.3,0.1,0.5,0.1,0.8,0.1c0.5,0.1,1.1,0.1,1.6,0.1c1.1,0,2.1-0.2,3.2-0.5
		c0.5-0.2,1-0.4,1.6-0.7c0.3-0.2,0.5-0.4,0.8-0.8c0.2-0.4,0.3-1,0.1-1.4l-0.2-0.4l-0.2,0c-0.8-0.2-1.5-1-2-1.9
		c-0.5-0.9-0.8-2-1.1-3.1c-0.1-0.8,0.1-1.7,0.2-2.6c0.1-0.9,0.3-1.8,0.5-2.7c0.4-1.8,0.7-3.5,0.9-5.4c0-0.5,0.1-0.9,0.1-1.4
		c0-0.4,0-1,0-1.5c-0.2-1-0.6-2-1.2-2.8c-0.6-0.8-1.4-1.4-2.1-1.9c-0.4-0.2-0.8-0.5-1.2-0.6c1.8,0.1,3.6,0.2,5.4,0.3l1.8,0.1l0.9,0
		c0.3,0,0.6,0,1,0c0.7,0,1.4-0.1,2-0.4c0.7-0.2,1.2-0.6,1.7-0.9c0.5-0.3,0.9-0.4,1.5-0.6c0.5-0.1,1.1-0.3,1.7-0.3
		c1.1-0.2,2.3-0.3,3.5-0.6c0.6-0.1,1.2-0.2,1.8-0.4L122,95c0.2,0,0.3-0.1,0.5-0.1c0.3-0.1,0.6-0.3,0.9-0.5c0.6-0.4,1-1,1.2-1.7
		c0.1-0.4,0.2-0.8,0.4-1.2l1,0c0.4,0,0.8-0.3,0.9-0.7c0.2-0.7,0.4-1.7,0.6-2.1l0.3-0.9c0.1-0.4,0.2-0.7,0.2-1.1
		c0-0.8-0.2-1.6-0.6-2.3C127.1,84.2,126.9,84,126.7,83.7z M94.5,77.9c0.5,0.1,1,0.2,1.4,0.4c1.5,0.6,3,1.3,4.4,2
		c1.1,0.6,2.1,1.1,3.2,1.7c0.5,0.3,0.6,0.9,0.2,1.3c-0.3,0.4-0.6,0.9-0.9,1.3c-0.2,0.3-0.3,0.6-0.5,1c-0.1,0.2-0.4,0.3-0.6,0.2
		c-0.2-0.2-0.5-0.3-0.7-0.5c-0.9-0.6-1.8-1-2.7-1.4c-0.9-0.4-1.9-0.7-2.8-0.9c-0.5-0.1-1.1-0.2-1.7-0.3l0-0.3c0-0.4,0-0.9,0.1-1.3
		c0-0.4,0.1-0.9,0.2-1.3C94.2,79.1,94.3,78.5,94.5,77.9C94.5,77.9,94.5,77.9,94.5,77.9z M22.9,106.3c0-0.9,0.1-1.9,0.3-2.8
		c0.1-0.9,0.2-1.9,0.4-2.8l0.2-1.4l0.1-0.7l0.1-0.4l0,0c0.4,0,0.8,0,1.1,0c0.6,0,1.1,0,1.7,0c1.1,0.1,2.1,0.3,2.9,0.9l0,0
		c0.1,1.1,0.3,2.1,0.5,3.2c0.2,0.8,0.3,1.5,0.6,2.3c0.5,1.6,0.9,3.3,1.8,4.7c0.1,0.2,0,0.5-0.3,0.5c-0.6,0.1-1.2,0.1-1.9,0.1
		c-0.8,0-1.7,0-2.5,0c-1.6-0.1-3.2-0.4-4.7-1c-0.1,0-0.2-0.2-0.2-0.3C23,108.1,22.9,107,22.9,106.3z M22.7,98.5
		c0.1,0.1,0.2,0.1,0.3,0.1C22.9,98.6,22.8,98.5,22.7,98.5z M28.9,80.2c-0.2-1-0.4-2-0.6-3c-0.2-0.7-0.3-1.4-0.5-2.1
		c-0.1-0.5,0-0.8,0.3-1c1.1-0.9,2.2-1.8,3.4-2.6c1.4-0.9,3-1.7,4.3-2.7l0.9-0.7c0.1,0,0.2,0.1,0.3,0.2c0.7,0.4,1.4,0.8,2.2,1.3
		c1.3,0.8,2.7,1.6,4.1,2.2c-0.8,3.4-1.8,6.7-2.4,10.1c-0.1,0.4-0.1,0.9-0.2,1.3c0,0.2-0.1,0.4-0.1,0.8l0,0c0,0,0,0,0,0.1
		c0,0.1,0,0.2,0.1,0.3l0.1,0.1l0,0l0,0c0,0,0,0,0,0c0,0,0,0,0,0.1l0.1,0.3c0.2,0.8,0.4,1.7,0.6,2.5c0.4,1.6,0.7,3.3,1.2,4.9
		c-0.6,1.3-1.2,2.6-1.8,3.9c-0.1,0-0.2,0.1-0.4,0.1c-0.9-0.3-1.7-0.4-2.5-0.4c-0.9,0-1.8,0-2.8,0.1c-0.9,0.1-1.8,0.3-2.7,0.5
		c-0.7,0.2-1.5,0.4-2.2,0.7c-1.1-0.6-2.2-0.8-3.3-0.9c-0.6-0.1-1.3-0.1-1.9,0c-0.3,0-0.7,0-1,0c0.4-1,0.8-2,1.2-3
		c0.5-1.4,1-2.8,1.4-4.1c0.4-1.4,0.8-2.8,1.2-4.2c0.3-1.4,0.7-2.8,1-4.3l0-0.2L28.9,80.2z M42.3,83.8C42.3,83.8,42.3,83.8,42.3,83.8
		l-0.1-0.1l0,0C42.2,83.6,42.2,83.7,42.3,83.8C42.3,83.7,42.3,83.7,42.3,83.8z M31.5,104.2c-0.1-0.9-0.2-1.9-0.2-2.8
		c0-0.4,0-0.9,0-1.3c0-0.8,0.5-1.4,1.2-1.6c0.1,0,0.3-0.1,0.4-0.1c0.8-0.2,1.6-0.3,2.4-0.4c0.8-0.1,1.7-0.1,2.5-0.1
		c0.8,0,1.6,0.1,2.2,0.4c0,0,0.9,0.8,1.1,1.2c0.4,1,0.7,2,0.9,3.1c0.2,0.7,0.3,1.4,0.3,2.2c0.1,1,0.2,2.9,0.2,3.9
		c0,0.4-0.2,0.7-0.5,0.9c-0.3,0.1-0.5,0.2-0.8,0.3c-0.9,0.3-1.8,0.5-2.8,0.6c-0.9,0.1-1.9,0.1-2.8,0c-0.6-0.1-1.3-0.2-1.9-0.4
		c-0.5-0.2-1-0.6-1.1-1.1C32.3,107.6,31.6,105.5,31.5,104.2z M41.5,99.2c-0.2-0.4-0.5-0.7-0.7-1c1-0.4,2.1-0.7,3.1-0.9
		c1.1-0.2,2.2-0.4,3.2-0.5c1.1-0.1,2.2-0.1,3.2,0c1,0.1,2,0.5,2.7,1l0.1,0.1c0.1,0.3,0.3,0.6,0.4,0.8c0.4,1,0.7,2.2,0.9,3.3
		c0.2,1.1,0.3,2.2,0.4,3.4c0.1,0.8,0.2,2.5,0.2,3.4c0,0.3-0.2,0.6-0.5,0.7c-0.1,0-0.2,0.1-0.3,0.1c-0.5,0.1-1,0.2-1.5,0.3
		c-1,0.2-2,0.2-3,0.2c-1,0-2-0.1-3-0.4c-0.7-0.2-1.3-0.4-1.9-0.7c-0.3-0.2-0.6-0.5-0.6-0.9c-0.1-1-0.3-1.9-0.5-2.8
		c-0.2-1.1-0.5-2.1-0.9-3.2C42.4,101,42,100.1,41.5,99.2z M53.8,98.5c-0.1-0.1-0.2-0.3-0.2-0.4l0.4-0.2c1.2-0.5,2.5-1,3.9-1.4
		c1.2-0.4,2.3-0.7,3.5-1.1l3.6,2.9l0.1,0.1c0.1,0.2,0.1,0.3,0.2,0.5c0.3,1,0.5,2,0.7,3c0.1,1,0.2,2,0.3,3.1c0,0.7,0.1,2,0.2,2.8
		c0,0.5-0.2,0.9-0.6,1.2l-0.1,0.1c-1.6,0.3-3.3,0.6-5,0.6c-0.8,0-1.7,0-2.5-0.1c-0.4-0.1-0.8-0.1-1.2-0.2c-0.3-0.1-0.6-0.4-0.6-0.8
		c0-0.8,0-1.5-0.1-2.2c-0.2-1.5-0.5-3.1-1-4.6C54.8,100.6,54.4,99.5,53.8,98.5z M65.6,98.7c0,0,0-0.1-0.1-0.1l0.1,0
		c1.8-0.3,3.5-0.6,5.3-0.8c1.2-0.1,2.4-0.2,3.5-0.2c1,0,1.9,0,2.8,0.3l0.1,0c0.5,1.1,0.8,2.3,1.1,3.5c0.2,0.8,0.3,1.6,0.4,2.4
		c0.1,0.8,0.1,1.6,0.2,2.4c0,0,0.1,0.2-0.1,0.5c0,0,0,0,0,0c-0.4,0.2-0.7,0.2-1.1,0.4c-0.9,0.3-1.8,0.5-2.8,0.7
		c-1.7,0.4-3.5,0.7-5.3,1.1c-0.2,0-0.4,0-0.7,0l-1.1-0.3c-0.2-0.1-0.3-0.2-0.3-0.4c-0.1-0.6-0.2-2.2-0.4-3.1c-0.2-1-0.4-2.1-0.7-3.1
		C66.4,100.6,66.1,99.6,65.6,98.7z M77.7,97.8l0.3-0.2c2.4-1.5,4.5-3,6.7-4.7l0.1-0.1l0.1-0.1l0.2-0.2c0.4,0.5,0.8,1,1.2,1.5
		c0.5,0.8,1,1.6,1.4,2.5c0.4,0.9,0.8,1.7,1.2,2.6c0.4,0.9,0.7,1.8,1,2.7l0,0c0,0,0,0.1,0,0.1c0.1,0.3-0.3,1.1-0.7,1.5
		c-0.9,0.6-1.8,1-2.7,1.4c-1,0.4-1.9,0.7-3,0.8c-0.8,0.1-1.5,0.2-2.3,0.1c-0.3,0-0.6-0.3-0.7-0.6c-0.1-0.6-0.3-1.2-0.4-1.8
		c-0.2-0.8-0.5-1.6-0.8-2.4C78.9,99.9,78.4,98.8,77.7,97.8z M88.2,96c-0.5-0.7-1.1-1.4-1.7-2.1c-0.4-0.5-0.9-0.9-1.4-1.3l2.1-2.3
		c0.4-0.4,0.8-0.8,1.2-1.3c0.4-0.4,0.7-0.9,1.1-1.4l0.1-0.1l0,0c0,0,0-0.1,0.1-0.1c0.5,0.2,1,0.4,1.5,0.7c1,0.5,2,1.2,2.9,1.9
		c0.9,0.7,1.8,1.5,2.6,2.3c0.6,0.5,1.5,1.6,2.1,2.3c0.3,0.3,0.3,0.8,0.1,1.2c-0.5,0.8-1.1,1.6-1.8,2.3c-0.8,0.8-1.6,1.5-2.5,2.1
		c-0.9,0.6-2.8,1.4-2.8,1.4c-0.2,0-0.3-0.1-0.3-0.2c-0.4-0.9-0.9-1.8-1.4-2.6C89.4,97.8,88.9,96.9,88.2,96z M97.5,91.2
		c-0.9-0.7-1.9-1.4-2.9-2c-1-0.6-2-1.2-3.2-1.6c-0.5-0.2-1-0.3-1.6-0.5c0.2-0.4,0.4-0.7,0.6-1.1c0.3-0.5,0.6-0.9,0.9-1.3
		c0.3-0.4,0.6-0.8,1-1.2c0.3-0.4,0.8-0.7,1.1-0.8l0.1,0c0.6,0.2,1.2,0.4,1.8,0.6c0.9,0.3,1.8,0.8,2.6,1.3c0.8,0.5,1.6,1.1,2.3,1.7
		c0.5,0.4,0.9,0.9,1.3,1.3c0.3,0.3,0.4,0.7,0.5,1.2c0,0.5,0,1-0.1,1.4c-0.1,0.7-1.1,2-1.6,2.8c-0.2,0.3-0.5,0.3-0.7,0.1
		C98.9,92.4,98.2,91.8,97.5,91.2z M81,66.5c1.4,0.7,2.8,1.6,4.1,2.5c1.3,1,2.4,2.1,3.2,3.5c0.9,1.4,1.9,2.7,3.2,3.7
		c0.6,0.5,1.4,0.9,2.1,1.3c0.3,0.1,0.5,0.2,0.8,0.3c-0.1,0.1-0.1,0.3-0.2,0.4c-0.2,0.4-0.4,0.9-0.5,1.3c-0.1,0.4-0.3,0.9-0.4,1.3
		c-0.1,0.3-0.1,0.7-0.2,1.1c-0.2,0-0.5,0.1-0.6,0.2c-0.3,0.1-0.5,0.3-0.8,0.5c0,0-0.1,0.1-0.1,0.1c-0.5-0.4-1.1-0.7-1.7-1.1l0.2,0.1
		c-1.5-1.8-3-3.5-4.8-5c-0.9-0.7-1.8-1.4-2.7-2.1c-0.9-0.7-1.9-1.3-2.9-2c-0.5-0.3-0.9-0.7-1.4-1.1c-0.2-0.1-0.3-0.3-0.5-0.5
		c-0.1-0.3-0.1-0.5-0.1-0.7l-1.4-6.2C77.9,65,79.4,65.7,81,66.5z M77.4,71.8c0.2,0.1,0.3,0.3,0.5,0.4c0.4,0.4,0.8,0.8,1.2,1.2
		c0.8,0.9,1.5,1.8,2.3,2.6c0.8,0.8,1.6,1.6,2.4,2.5c1.7,1.6,3.5,3,5.5,4.2l0.2,0.1l0,0c0.6,0.1,1.2,0.2,1.8,0.3
		c-0.3,0.3-0.6,0.5-0.9,0.8c-0.4,0.4-0.8,0.8-1.2,1.3c-0.4,0.4-0.7,0.9-1.1,1.3l0.1-0.1c-0.4,0.4-0.9,0.8-1.3,1.2
		c-0.4,0.4-0.8,0.9-1.2,1.3l-2.3,2.5c-2,1.5-4.1,3-6.2,4.3c-1-0.2-1.9-0.2-2.8-0.2c-1.1,0-2.1,0.1-3.1,0.2c-1,0.1-2,0.2-3.1,0.4
		c-0.9,0.1-1.7,0.3-2.6,0.4l-3.6-2.9L62,93.4l0.1-0.3l0.4-1.3l0.8-2.7c0.5-1.8,1-3.6,1.5-5.4c0.5-1.8,1-3.6,1.4-5.4
		c0.5-1.8,0.9-3.6,1.3-5.5l0.1-0.4c2,0.2,3.9,0.1,5.8-0.1c0.9-0.1,1.9-0.4,2.8-0.6C76.5,71.5,77.1,71.6,77.4,71.8z M59.8,60.9
		c0.8,0.1,1.6,0.3,2.5,0.4l0,0l0,0C63.1,61,64,61,64.8,61c0.8,0,1.6,0.2,2.5,0.3c1.6,0.3,3.3,0.8,4.7,1.5l0,0l0,0
		c0.7,0.2,1.3,0.4,2,0.7l1.8,7c-0.9-0.1-1.7-0.1-2.6-0.1c-1.1,0.1-2.3,0.3-3.4,0.5c-0.8,0.2-1.7,0.4-2.5,0.7l-0.4-0.2l-4.7-2
		c-1.4-0.6-2.8-1.2-4.2-1.7l-0.1-7.2C58.5,60.6,59.2,60.7,59.8,60.9z M57,69.2C57,69.2,57,69.2,57,69.2c0.1,0,0.1,0,0.2,0
		c1.4,0.7,2.8,1.4,4.3,2.1l3.9,1.8c-0.4,1.5-0.7,3.1-1.1,4.7c-0.4,1.8-0.8,3.7-1.1,5.5c-0.3,1.8-0.7,3.7-0.9,5.6
		c-0.1,0.9-0.3,1.9-0.4,2.8L61.6,93c0,0.1,0,0.2,0,0.3l-0.3,0.1c-1.4,0.4-2.7,0.8-4.1,1.2c-1.2,0.4-2.4,0.8-3.5,1.3
		c-1-0.6-2.1-0.9-3.1-1.1c-1.2-0.2-2.4-0.1-3.6,0c-1.2,0.1-2.3,0.3-3.5,0.6c-0.7,0.2-1.4,0.4-2.1,0.6c0.8-1.1,1.5-2.2,2.3-3.3
		l0.1-0.1l0-0.2c-0.2-1.7-0.5-3.4-0.7-5.2c-0.1-0.9-0.3-1.7-0.5-2.6l-0.1-0.4c0,0,0,0,0-0.1c0,0,0,0,0,0c0-0.1,0-0.3,0.1-0.5
		l0.2-1.3c0.3-1.7,0.5-3.4,0.7-5.1c0.2-1.7,0.4-3.3,0.6-4.9c1-0.3,2.1-0.6,3.1-0.9c1.1-0.3,2.3-0.6,3.4-0.8c2.1-0.5,4.2-0.9,6.3-1.3
		C56.8,69.2,56.9,69.2,57,69.2z M34.1,63.9L34.1,63.9L34.1,63.9c1.8-0.7,3.6-1.3,5.4-1.8c1.8-0.5,3.6-1,5.5-1.4l0,0l0,0
		c0.6-0.3,1.2-0.5,1.8-0.6c0.6-0.1,1.2-0.2,1.9-0.3c0.6,0,1.3,0,1.9,0.1c0.6,0.1,1.2,0.2,1.8,0.4l0,0l0,0c1.2-0.1,2.3-0.1,3.5,0
		l0.1,7.5c-1.9,0.6-3.8,1.3-5.7,1.8c-1.1,0.3-2.2,0.7-3.4,1c-1.1,0.3-2.3,0.6-3.4,0.8l-0.1,0c-1.1-1.1-2.3-2.2-3.5-3.2
		c-0.7-0.5-1.4-1.1-2.1-1.5c-0.2-0.1-0.4-0.2-0.6-0.4c-0.1,0-0.4-0.3-0.4-0.3L33.9,64C34,64,34,63.9,34.1,63.9z M24.3,71
		c0.3-0.5,0.6-1,0.9-1.5c0.7-1,1.5-1.9,2.4-2.6c0.9-0.8,1.9-1.4,3-1.8c0.3-0.1,0.6-0.2,0.8-0.3c0,0,0.1,0.1,0.1,0.1l3.3,2.5
		c-0.1,0.1-0.1,0.1-0.2,0.2c-1.3,1.1-2.5,2.3-3.8,3.5c-1.1,1-2.2,1.9-3.4,2.7c0,0,0,0,0,0L24,71.7C24.1,71.4,24.2,71.2,24.3,71z
		 M9.6,92.3c0.5-1.1,1.1-2.3,1.6-3.4c0.5-1.1,1.1-2.2,1.3-3.4c0.3-1.2,0.5-2.4,0.8-3.5c0.3-1.2,0.7-2.3,1.3-3.4
		c0.5-1.1,1.6-1.7,2.6-2.3c1-0.6,2.1-1.1,3.2-1.7c0.5-0.3,1-0.6,1.6-0.9c0.2-0.1,0.4-0.3,0.7-0.5l4,2.1c0.1,0,0.1,0.1,0.2,0.1
		c0,0.7,0.1,1.4,0.1,2.1c0,0.9,0.1,1.9,0.2,2.8c-0.4,1.3-0.8,2.7-1.2,4c-0.4,1.4-0.7,2.8-1.1,4.2c-0.3,1.4-0.6,2.9-0.8,4.3
		c-0.2,1.1-0.3,2.2-0.4,3.3c0,0,0,0,0,0l-0.7,0.2c0,0-0.1,0-0.2,0.1c-0.1,0-0.2,0.1-0.3,0.1c-0.2,0-0.5,0.1-0.8,0.1l-1.6,0.2
		c-0.6,0.1-1.1,0.1-1.7,0.1c-0.5,0-1.1,0-1.5-0.2l-0.3-0.1l-0.1,0.1c-0.5,0.2-1.3,0.1-2-0.2c-0.7-0.3-1.4-0.7-2-1.2
		c-0.9-0.6-1.7-1.4-2.5-2.1C9.5,92.9,9.5,92.5,9.6,92.3z M22.4,103.5c0,1,0.1,1.9,0.2,2.9c0,0.5,0.1,0.9,0.2,1.4
		c0.1,0.6-0.3,1.2-0.9,1.2c-1.3,0.1-2.5-0.1-3.7-0.5c-1.3-0.4-2.6-0.9-3.8-1.5c-0.5-0.3-0.8-0.8-0.6-1.4c0.2-1,0.6-2,1-2.9
		c0.3-0.7,0.7-1.4,1-2.1c0.4-0.7,0.8-1.4,1.2-2l0,0c0-0.1,0.1-0.1,0.1-0.2c0,0,0-0.1,0-0.1c0.4,0.1,0.8,0.2,1.2,0.3
		c0.6,0.1,1.2,0.2,1.9,0.2c0.6,0,1.2,0,1.9-0.1c0.2,0,0.4-0.1,0.6-0.1l0,0.7l0,1.4C22.4,101.5,22.4,102.5,22.4,103.5z M22.7,98.4
		C22.7,98.4,22.7,98.4,22.7,98.4C22.7,98.4,22.7,98.4,22.7,98.4C22.7,98.4,22.7,98.4,22.7,98.4z M10.1,105.3
		c-0.5-0.3-0.9-0.8-1.3-1.2c-0.3-0.5-0.7-1-0.8-1.6c-0.4-1.1-0.5-2.3-0.4-3.5c0.1-1.2,0.4-2.4,0.8-3.5c0.2-0.6,0.4-1.1,0.6-1.6
		c0.2-0.4,0.7-0.5,1-0.1c0.6,0.7,1.2,1.5,1.9,2.1c0.6,0.6,1.3,1.1,2,1.6c0.3,0.2,0.7,0.4,1.1,0.5c-0.3,0.7-0.5,1.4-0.7,2.1
		c-0.2,0.8-0.4,1.6-0.6,2.4c-0.2,1.1-0.4,2.3-0.4,3.4c0,0.4-0.3,0.7-0.7,0.6C11.7,106.2,10.8,105.8,10.1,105.3z M19,112.4
		c-0.7,0.5-1.5,0.9-2.2,1.4c-0.8,0.4-1.5,0.8-2.3,1.2l-0.2,0.1l-0.2,0.2c-0.6,0.8-1.1,1.6-1.6,2.4l-0.7,1.3
		c-0.1,0.2-0.2,0.4-0.4,0.6c-0.1,0.2-0.3,0.5-0.4,0.8c-0.4,1-0.6,2.1-0.6,3.2c0,0.9,0.1,1.7,0.4,2.6c-0.1,0-0.1,0-0.2,0
		c-0.3,0-0.8-0.1-1.2-0.3l-1,0.4c0,0,0,0.1-0.2,0.2c-0.2,0.1-0.4,0.1-0.7,0.1c-0.5,0-1.1-0.1-1.6-0.2l-0.5-0.1l-0.1,0.4
		c-0.1,0.2-0.3,0.4-0.7,0.5c-0.3,0.1-0.8,0-1.1-0.1c-0.8-0.2-1.5-0.7-2.2-1.3c-0.3-0.3-0.5-0.6-0.6-1c-0.1-0.4,0-0.8,0.1-1.1
		c0.3-0.7,1-1.4,1.6-2l0.1-0.1c0.2-0.3,0.6-0.7,1-1.1l1.2-1.1c0.8-0.8,1.6-1.5,2.3-2.3c1.5-1.6,3-3.3,4.3-5.1l0.1-0.2l0-0.1
		c0-0.8,0.1-1.6,0.2-2.5l0.2-1.2c0-0.2,0.2-0.4,0.2-0.7c0.4,0.1,0.8,0.1,1.2,0.2c1.5,0.8,3,1.4,4.7,1.8c1.5,0.4,3.1,0.6,4.6,0.3
		C21.5,110.6,20.3,111.6,19,112.4z M92.6,110.8c-0.4,0.3-1,0.6-1.5,0.8c-1.2,0.4-2.4,0.7-3.7,0.9c-1.3,0.2-2.6,0.4-3.9,0.5
		c-1.3,0.1-2.6,0.2-4,0.3l-0.1,0l-0.1,0c-0.9,0.3-1.9,0.4-2.9,0.5c-1,0.1-2.1,0.1-3.1,0.1c-2.1,0-4.2-0.1-6.4-0.2l-0.1,0l0,0
		c-2.9,0.7-5.9,1.1-8.8,1.4c-2.9,0.3-5.6,0.5-8.6,0.2c-2.9-0.2-5.8-0.6-8.8-0.8c-2.9-0.2-5.9-0.3-8.8-0.5l-0.1,0l-0.1,0
		c-0.4,0.1-1,0.2-1.5,0.2l-1.6,0.1c-1.1,0.1-2.2,0.1-3.3,0.1l-1.6,0c-0.3,0-0.6,0-0.8,0c-0.2,0-0.5-0.1-0.7-0.2
		c-0.7-0.3-1.3-0.9-1.7-1.5c0.6-0.5,0.9-0.9,1.4-1.5c0.5-0.6,1-1.3,1.3-2.1c0,0,0,0,0,0c0.8,0.3,1.6,0.5,2.4,0.6
		c0.8,0.1,1.7,0.2,2.5,0.2c0.8,0,1.7,0,2.5-0.1c0.8-0.1,1.7-0.2,2.5-0.3c0.9,0.4,1.8,0.6,2.8,0.8c1,0.2,1.9,0.2,2.9,0.1
		c1-0.1,1.9-0.2,2.9-0.5c0.5-0.1,0.9-0.3,1.4-0.5c0.1-0.1,0.2-0.1,0.4-0.2c0.1-0.1,0.6-0.2,0.8-0.3c0.8,0.5,1.6,0.8,2.5,1
		c1,0.3,2.1,0.4,3.1,0.5c1.1,0,2.1,0,3.2-0.1c0.5-0.1,1.1-0.2,1.6-0.3c0.4-0.1,0.8-0.2,1.2-0.4c0.7,0.4,1.5,0.5,2.3,0.7
		c0.9,0.1,1.8,0.2,2.7,0.2c0.9,0,1.8,0,2.6-0.1c0.9-0.1,1.7-0.2,2.6-0.4l0.1,0L66,110l1.4-0.8l1.6,0.6l0.2,0.1l0.3,0
		c1.9-0.3,3.8-0.6,5.7-1c1-0.2,1.9-0.4,2.9-0.7c0.5-0.1,1-0.3,1.5-0.5c0.3-0.1,0.5-0.2,0.8-0.3c0.1-0.1,0.2-0.1,0.3-0.2
		c1,0.2,2,0.1,3,0c1.1-0.2,2.2-0.5,3.3-0.9c0.7-0.3,1.5-0.6,2.2-1c0,0,0,0.1,0,0.1c-0.2,0.5-0.5,1-0.7,1.5c-0.2,0.5-0.4,1-0.5,1.6
		c0,0.2-0.1,0.3,0.1,0.7c0.1,0.3,0.3,0.5,0.5,0.6c0.3,0.2,0.6,0.3,0.9,0.4c0.6,0.1,1.1,0.2,1.6,0.3c0.7,0.1,1.4,0.1,2,0.2
		C92.9,110.6,92.7,110.7,92.6,110.8z M101,99.1c0.6,0.6,1.2,1.2,1.6,1.9c0.4,0.7,0.7,1.4,0.7,2.2c0.1,0.7-0.1,1.7-0.1,2.5
		c-0.2,1.8-0.2,3.6-0.2,5.4c0,0.9,0,1.8-0.1,2.7c0,0.9-0.1,1.8-0.1,2.8l0,0l0,0c0.3,1.1,0.5,2.2,0.9,3.3c0.2,0.6,0.5,1.1,0.8,1.6
		c0.3,0.4,0.6,0.7,1,1c-0.1,0-0.1,0.1-0.2,0.1c-0.3,0.2-0.7,0.3-1.2,0.4c-0.9,0.2-1.8,0.3-2.7,0.2c-0.5,0-0.9-0.1-1.3-0.1
		c-0.2,0-0.4-0.1-0.6-0.1c-0.2-0.1-0.4-0.1-0.6-0.2c-0.7-0.3-1.4-0.8-2-1.4c-0.6-0.6-1.1-1.4-1.6-2.2c-0.4-0.8-0.8-1.6-0.8-2.5
		c-0.1-1.1-0.2-2.3-0.3-3.4c-0.1-0.7,0.1-1.5,0.5-2.1c0,0,0,0,0,0c0.2-0.4,0.4-0.9,0.4-1.4l0-0.7l-0.6-0.1c-1.2-0.2-2.2-0.1-3.2-0.1
		c-0.5,0-1,0-1.5-0.1c-0.2,0-0.4-0.1-0.5-0.1c-0.1,0-0.1,0-0.1,0c0,0.1,0,0,0-0.1c0-0.4,0.2-0.9,0.3-1.4c0.1-0.5,0.3-1,0.5-1.5
		c0.1-0.3,0.2-0.6,0.3-0.9c0.8-0.5,1.6-1.1,2.4-1.8c1-0.4,2-0.9,3-1.4c1-0.6,2-1.4,2.8-2.3c0.4-0.4,0.8-0.9,1.2-1.3
		c0.2,0.1,0.4,0.3,0.6,0.4C100.4,98.5,100.7,98.8,101,99.1z M126.4,90.3l-4.3,0.4l0,0c0,0,0,0-0.1,0c-0.7,0.3-1.4,0.5-2.1,0.7
		c-0.7,0.2-1.5,0.3-2.2,0.1c0.7,0.3,1.5,0.3,2.3,0.2c0.7-0.1,1.5-0.2,2.2-0.4l1.8,0.1c-0.2,0.9-0.2,1.8-1,2.1
		c-0.2,0.1-0.5,0.2-0.7,0.2c-0.1,0-0.3,0-0.4,0l-0.4,0l-1.8,0.1c-1.2,0-2.4,0.1-3.6,0.2c-0.6,0.1-1.2,0.2-1.9,0.3
		c-0.5,0.1-1.1,0.3-1.7,0.6l-2.9-0.8l0,0c-0.1,0-0.2-0.1-0.3-0.2l0,0.1l-1.2-3.7l0.4,3.9l0,0l0,0.1c0.1,0.4,0.4,0.7,0.7,0.8l0,0
		l1.4,0.9c-0.4,0.1-0.8,0.2-1.3,0.3c-0.3,0-0.5,0-0.8,0.1l-0.9,0l-1.8,0.1c-2,0.2-4,0.4-5.9,0.8c0.9-1.2,1.6-2.5,2.2-3.9
		c0.3-0.3,0.6-0.6,0.9-1c0.4-0.5,0.7-1.2,0.8-1.9c0.1-0.7,0.1-1.3,0.1-1.8c0-0.5-0.1-1-0.1-1.4c0-0.1,0-0.2,0-0.3l0-0.2
		c0-0.1,0.1-0.3,0.1-0.4c0.1-0.3,0.3-0.6,0.5-1c0.4-0.7,0.9-1.4,1.5-1.9l0.5-0.5c0.7-0.2,1.4-0.4,2.1-0.6c1.1-0.3,2.2-0.5,3.2-0.7
		c1.1-0.2,2.2-0.6,3.3-0.6c1.1-0.1,2.3,0.2,3.4,0.6l0,0c1.1,0.6,2.3,1.1,3.5,1.4l0.9,0.3l0.5,0.1c0.1,0,0.2,0.1,0.3,0.1
		c0.2,0.1,0.4,0.2,0.6,0.3c0.1,0.1,0.2,0.1,0.2,0.2l0.3,0.3l0.6,0.6c0.2,0.2,0.5,0.4,0.6,0.6c0.3,0.3,0.5,0.8,0.6,1.2
		c0,0.2,0.1,0.5,0.1,0.7c0,0.3,0,0.7,0,1C126.4,89.2,126.5,89.7,126.4,90.3z"/>
	<path class="st9" d="M27.4,108.2c1,0.3,1.5-0.2,1.8-0.8c0.1-0.3,0.2-0.7,0.1-1c-0.3-0.8-0.1-2.7,0-4.1c0-0.5-0.1-0.9-0.5-1
		c-0.9-0.5-2.2-0.4-3-0.3c-0.5,0.1-1,0.6-1.1,1.2c-0.2,0.8-0.3,1.9-0.1,2.7C25,106,26.1,107.8,27.4,108.2z"/>
	<path class="st9" d="M37.7,108.5c1.5,0.2,2.2-0.4,2.6-1.3c0.1-0.4,0.1-0.8-0.1-1.1c-0.6-0.9-0.7-3.2-0.8-4.8c0-0.5-0.4-1-0.9-1.1
		c-1.4-0.4-3.3-0.2-4.5,0.1c-0.7,0.2-1.3,0.8-1.4,1.6c-0.1,1-0.1,2.3,0.4,3.1C33.8,106.4,35.7,108.2,37.7,108.5z"/>
	<path class="st9" d="M49.1,107.5c1.5-0.3,2.2-0.1,2.6-0.7c0.2-0.3,0.2-0.7,0-1c-0.5-0.9,0-3.2,0.2-4.6c0-0.5-0.7-1.3-1.2-1.5
		c-1.4-0.6-3.9,0.2-5.1,0.2c-0.7,0-1.4,1-1.5,1.7c-0.2,0.8,1,4.2,1.4,5C46.2,108,47.1,107.9,49.1,107.5z"/>
	<path class="st9" d="M61.5,108.1c1.4-0.3,2.4,0.1,2.7-0.5c0.2-0.3-0.2-0.9-0.3-1.2c-0.4-0.9,0.1-3.2,0.2-4.6c0-0.5-0.8-1.5-1.2-1.6
		c-1.3-0.5-4-0.6-5.1-0.6c-0.7,0-0.9,2-1.1,2.7c-0.2,0.8,0,2.7,0.3,3.5C57.5,107,59.5,108.4,61.5,108.1z"/>
	<path class="st9" d="M69.4,107.3c1.2,0.8,3.6-0.5,4.3-1c0.7-0.6,0.5-1.3,0.2-2.6c-0.2-1.3,1.7-2.2,1.4-3.5c-0.2-0.9-3.4-1-5.2-0.9
		c-0.7,0-1.4,0.5-1.6,1.2c-0.2,0.5-0.3,1-0.4,1.4C67.9,102.8,68.3,106.5,69.4,107.3z"/>
	<path class="st9" d="M84.4,101.6c0.5,1.1,2.4,1.9,2.5,1.4c0.1-0.5,0.8-3.5,0.5-3.5c-0.2-0.1-1.7-1.3-2.7-2.2
		c-0.3-0.2-0.7,0-0.6,0.4C84.3,99,84.6,100.8,84.4,101.6z"/>
	<path class="st9" d="M91.7,96.3c1.7,0.4,2.6,1.5,3.5,1.8c0.9,0.3,0.9-1.5,1.2-3c-0.5-1.5-5.3-4.8-5.5-4.8c-0.8-0.1-1,0.8-1.7,1.5
		c-0.5,0.6-0.6,1.5-0.1,2.1C89.7,94.9,90.7,96.1,91.7,96.3z"/>
	<path class="st9" d="M99.8,88.6c0.3-0.3,0.1-0.8-0.3-0.9c-1.4-0.4-3.9-1.4-5.3-1.9c-0.5-0.2-1,0.3-0.8,0.8c0.1,0.2,0.2,0.5,0.3,0.7
		c0.6,0.9,1.9,1.2,3.8,1.6C98.9,89.2,99.5,89.1,99.8,88.6z"/>
	<path class="st9" d="M96.1,81.9c1.3,0.4,4,1.3,4.9,2c0.2,0.2,0.5,0.1,0.6-0.1c0.4-0.8,0.2-1.8-0.6-1.9c-0.7-0.1-3.5-0.1-4.9-0.2
		C96.1,81.7,96,81.9,96.1,81.9z"/>
	<path class="st9" d="M19.5,99.5c-0.7,0-1.4,0.5-1.6,1.2c-0.4,1.9-1.2,5.4-1,6c0.3,0.9,2.1,0.9,3.7-0.7c1.5-1.6,0.9-5.7,0.4-6.2
		C20.8,99.6,20.1,99.6,19.5,99.5z"/>
	<path class="st9" d="M11.6,98.3c0-0.3-0.4-0.6-0.8-0.8c-0.4-0.2-0.9-0.1-1.1,0.3c-0.6,1.1-1.2,3-0.8,4.1c0.5,1.4,1.8,2.5,2,2.6
		c0.2,0.1-0.3-3,0-4.2C11.2,99,11.6,98.8,11.6,98.3z"/>
	<path class="st9" d="M55.5,81.1c-1.2-0.5-3.4-0.3-5.1-0.3c-0.5,0-1,0.2-1.4,0.6c-0.5,0.5-1.3,1.4-2.8,2c-2.4,1-2.1,2.9-1.2,4
		c0.9,1.2,2.2,2.6,4.6,2.8c2.5,0.1,3.4,0.1,6.5,0.1c3.1-0.1,1.2-1.1,2.2-2.6c1-1.5,1.1-2.4,0.7-3.7C58.7,82.8,55.8,81.3,55.5,81.1z"
		/>
	<path class="st9" d="M46.5,79.2c1.8-0.6,2.5-0.2,3.4-2.5c0.7-1.9-1.1-1.6-2.4-1.8c-0.5-0.1-0.9,0.1-1.3,0.5
		c-0.6,0.7-1.5,1.8-1.7,2.4C44.2,78.9,44.6,79.8,46.5,79.2z"/>
	<path class="st9" d="M61,77.4c-1.3,0.3-2.5,0.3-3.1,0.3c-0.3,0-0.5,0-0.8,0.2c-1.2,0.6-2.2,0.8-0.3,1.6c2,1,3.3,1.8,3.8,1.2
		c0.6-0.6,0.7-0.7,1-1.7C62,78,62.9,77,61,77.4z"/>
	<path class="st9" d="M50.5,74.3c0.3,0.3,0.7,0.4,1.2,0.4c2,0,3.6,0,5,0.4c1.5,0.5,4.8,0.8,4.9,0.1c0.1-0.7,2.3-1.8,0.1-2.3
		c-2.2-0.5-2.8-1.7-4.6-1.9c-1.7-0.2-0.9-0.6-3.3,0.1c-2.4,0.7-3.4,0.4-4.5,0.9C48.6,72.5,49.7,73.6,50.5,74.3z"/>
	<path class="st9" d="M33.5,78.9c0.7-0.5,6.1-2.6,5.9-3c-0.2-0.4,0.7-3.4-0.3-3.5c-0.9-0.1-4-0.3-4.6-0.2c-0.6,0.1-4,2.4-4.6,2.6
		c-0.5,0.1-0.1,1.1-0.1,1.1C30,76.1,32.9,79.5,33.5,78.9z"/>
	<path class="st9" d="M34.3,92.6c2.7-1.1,3-1.9,5-2.8c2-0.9-0.2-2.9-0.2-3.8c0-1-1.6-0.4-2.8-0.9s-2.5-1.2-2.9-1.4
		c-0.2-0.1-1,0.3-1.8,0.7c-0.8,0.4-1.3,1.2-1.4,2.1c0,0.5-0.1,1-0.1,1.4c-0.1,1.1-1.2,3.9-0.3,5.7C30.6,95.4,31.5,93.7,34.3,92.6z"
		/>
	<path class="st9" d="M21.2,89.4c-1.1-2.1-1.4-3.7-2-3.4c-0.6,0.2-0.1,0.4-0.1,0.4c-0.4,1-0.7,5.1-1.1,6.3c-0.4,1.2-1.5,4.6,0,2.7
		c1.5-1.8,1.8-2.4,2.5-2c0.7,0.4,1.8,1.2,1.4-0.3C21.5,91.6,22.3,91.4,21.2,89.4z"/>
	<path class="st9" d="M15.4,93.3c2.4,0.1,0.4-1.7,1.1-3.5c0.7-1.8,0.4-1.8,0.9-3.4c0.6-1.6-1-1.9-1.7-1.6c-0.4,0.1-1.7,3.4-3,4.5
		c-1.2,1.1-0.6,1.4-0.3,2.6C12.8,93.1,13,93.3,15.4,93.3z"/>
	<path class="st9" d="M17.6,81.7c1.3-0.5,3.3-0.7,4.3-1.8c1-1.1,2.5-1.3,2.8-2c0.4-0.7,2.2-1.2-0.4-1.5c-2.5-0.4-1.4-1.2-3.9,0.6
		c-2.5,1.8-3.2,1.8-3.8,2.9C16,80.8,17.6,81.7,17.6,81.7z"/>
	<path class="st9" d="M24.1,82.6c0-0.4-0.4-0.7-0.8-0.7c-1.2,0.2-2.8,0.2-1.8,1.6c1.2,1.7,2,2.6,2.3,2.7c0.3,0,0.6-0.3,0.5-1.9
		C24.1,83.6,24.1,83,24.1,82.6z"/>
	<path class="st9" d="M38.4,78.6c-0.8,0.6-1.9,1.5-1.8,1.6c0.2,0.5,1.6,0.8,2.2,0.7c0.4,0,0.4-1.2,0.4-2
		C39.1,78.6,38.7,78.4,38.4,78.6z"/>
	<path class="st9" d="M33,81.2c0.7-0.3-0.9-1-2-1.3c-0.4-0.1-0.8,0.1-0.9,0.5c-0.2,1.1-0.6,3-0.6,3.4C29.5,84.4,32,81.6,33,81.2z"/>
	<path class="st9" d="M15.8,84.1c0.7-0.4-0.3-1.3-1-1.7c-0.2-0.1-0.5,0-0.6,0.2c-0.3,0.8-0.9,2.4-0.8,2.5
		C13.6,85.7,14.9,84.6,15.8,84.1z"/>
	<path class="st9" d="M70.6,80.7c0-0.3-2.1-1.4-3.2-1.9c-0.3-0.1-0.7,0-0.7,0.4c-0.2,0.9-0.4,2.5-0.2,2.6
		C66.9,82.2,70.6,81.5,70.6,80.7z"/>
	<path class="st9" d="M77.9,80.1c0,0.4,0.5,0.1,4.9-0.2c4.4-0.2-0.8-1.7-1.3-2.2s-2.2,0.7-2.7,1C78.9,78.7,77.9,79.7,77.9,80.1z"/>
	<path class="st9" d="M68.3,76.7c0.7,0.1,4.3,2.5,4.7,2.4c0.4-0.1,6.8-2.5,6-3.1c-0.8-0.6-2.7-2.1-4.4-2.1c-1.7,0-3.2-0.1-4.7,0.5
		C68.6,75,68.3,76.7,68.3,76.7z"/>
	<path class="st9" d="M66.1,83.6c0,0-1,3.2-1.3,4.3c-0.2,1.1-0.1,2.3,1.6,2.8c1.8,0.6,4.7,0.5,6.4,0.4c1.8-0.1,2.1-0.3,2.2-1.9
		c0.1-1.6-1.3-4.4-1.8-5.5C72.7,82.5,67.2,83.6,66.1,83.6z"/>
	<path class="st9" d="M76.6,84.1c0,0,2.4,5.8,3.7,6.2c1.3,0.4,5.7-5.8,5.6-6.1c-0.1-0.3-5.4-2.6-6.8-3
		C77.8,80.9,77.6,82.6,76.6,84.1z"/>
	<path class="st9" d="M82.2,72.7C82.2,73,83,75,84.9,75.3c1.9,0.2,0-2.3,0.2-3.5C85.4,70.5,82.4,71.9,82.2,72.7z"/>
	<path class="st9" d="M80.1,70.6c1.5,0,3.1,0.7,3.4,0c0.2-0.3-1.5-3.3-2.5-3.3c-0.7,0-1.2,1.6-1.4,2.6
		C79.5,70.2,79.7,70.6,80.1,70.6z"/>
	<path class="st9" d="M91.1,79.8c1.3,0.5,2.1-1.2,1.3-1.7c-0.8-0.4-5-5-5.4-4.8C85.5,73.8,89.8,79.3,91.1,79.8z"/>
	<path class="st9" d="M46.4,68.7c2.6-0.1,0.4-7.2-0.6-5.9c-1.6,2.1-5.1,2.4-5.3,3.5C40.3,67.1,43.8,68.8,46.4,68.7z"/>
	<path class="st9" d="M50.4,66.2c2.4-0.7,5.1-0.3,3.9-1.3c-1.2-1-2.8-1.6-3.6-1.6c-0.4,0-0.9,0.1-1.3,0.2c-0.4,0.1-0.7,0.4-0.8,0.8
		C48.5,65.5,48.3,66.8,50.4,66.2z"/>
	<path class="st9" d="M67.9,68.5c0.2-0.3-0.1-3-0.8-3.2c-0.5-0.2-2.5-0.9-3.7-1.3c-0.6-0.2-1.2-0.1-1.7,0.2
		c-1.1,0.7-2.5,1.8-2.1,2.1C60.2,66.7,67.7,68.8,67.9,68.5z"/>
	<path class="st9" d="M71.3,68.5c1.1-1,3.6-2.1,1.7-2.7c-1.2-0.4-2.4-0.2-3.1,0c-0.4,0.1-0.6,0.5-0.5,0.9
		C69.9,67.8,70.4,69.3,71.3,68.5z"/>
	<path class="st9" d="M29.1,70.6c0.5-1.4,1.8-2.1,2.3-3.3c0.6-1.2-1.5-0.7-2.3-0.4c-0.8,0.3-1.2,0.7-1.6,1.3c-0.3,0.4-0.4,0.6-0.2,1
		c0.2,0.3,0.1,0.8-0.2,1.1c-0.4,0.3-0.7,0.7-0.5,1.2C27.2,72.3,28.6,72,29.1,70.6z"/>
	<path class="st7" d="M108.2,90.9c0,0,1.3,1.7,2,2.1s1.9,0.9,2.8,0.5c1-0.4,2.5-0.6,3.2-1s1.4-0.9,1.4-0.9s1.9,0.6,4.1-0.3
		c0.9-0.4,2.8-0.2,2.8-0.2s-0.3,2.3-1.1,2.8s-7.2,1.2-8.6,1.6c-1.3,0.4-2.9,0.1-3.6-0.1c-0.6-0.2-2-0.9-2.1-0.9c0,0-0.6-1.6-0.7-1.7
		C108.5,92.6,108.2,90.9,108.2,90.9z"/>
</g>
</svg>
