<?xml version="1.0" encoding="utf-8"?>
<!-- Generator: Adobe Illustrator 18.1.0, SVG Export Plug-In . SVG Version: 6.00 Build 0)  -->
<svg version="1.1" baseProfile="tiny" id="Layer_1" xmlns="http://www.w3.org/2000/svg" xmlns:xlink="http://www.w3.org/1999/xlink"
	 x="0px" y="0px" viewBox="0 0 128 128" xml:space="preserve">
<g>
	<path fill="#E1E1E1" d="M45,101.8c2.1,0,3.9-1.7,3.9-3.9c0-2.1-1.7-3.9-3.9-3.9c-2.1,0-3.9,1.7-3.9,3.9
		C41.1,100.1,42.8,101.8,45,101.8z"/>
	<path fill="#EFC24C" d="M34,88.4c-1.1,1.2-2,2.6-2.6,4.1L5.7,117.8l-3.3-3.3l28.9-28.8L34,88.4z"/>
	<path fill="#A3A9AE" d="M44.9,85.5c-0.1,0-0.3,0-0.4,0c-3.4,0.1-6.5,1.5-8.8,3.9s-3.5,5.6-3.4,9c0.2,6.9,5.9,12.3,12.9,12.1
		c6.9-0.2,12.4-6,12.2-12.9C57.2,90.8,51.7,85.5,44.9,85.5z M45.7,105.2c-3,0-5.5-2.1-6.1-4.9c0,0,0,0,0,0c-0.3-0.7-0.5-1.4-0.5-2.2
		c0-3.2,2.6-5.8,5.8-5.8c1.4,0,2.8,0.5,3.8,1.4c1.9,1.1,3.2,3.1,3.2,5.4C51.9,102.4,49.1,105.2,45.7,105.2z"/>
	<path fill="#62B257" d="M117.6,6.1l-2.2,2.2l-1.9-1.9c-0.1-0.1-0.2-0.2-0.3-0.2l0.1-0.1C114.5,4.9,116.5,4.9,117.6,6.1
		C117.6,6.1,117.6,6.1,117.6,6.1z"/>
	<polygon fill="#62B257" points="75.1,48.7 53.7,70.2 51.3,67.8 72.8,46.4 	"/>
	<path fill="#62B257" d="M52.3,71.6l-13,13.1c-1.4,0.6-2.7,1.4-3.9,2.4l-1.7-1.7c0,0,0.1,0,0.1-0.1l16.1-16.1L52.3,71.6z"/>
	<path fill="#62B257" d="M114,9.7L99.3,24.4l-2.2-2.2l14.8-14.8c0.1,0.1,0.1,0.2,0.2,0.3L114,9.7z"/>
	<polygon fill="#62B257" points="98,25.8 76.5,47.3 74.2,45 95.7,23.6 	"/>
	<path fill="#2D2D2D" d="M39.1,98c0,3.2,2.6,5.8,5.8,5.8c3.2,0,5.8-2.6,5.8-5.8s-2.6-5.8-5.8-5.8C41.7,92.2,39.1,94.8,39.1,98z
		 M45,94.1c2.1,0,3.9,1.7,3.9,3.9c0,2.1-1.7,3.9-3.9,3.9c-2.1,0-3.9-1.7-3.9-3.9C41.1,95.8,42.8,94.1,45,94.1z"/>
	<path fill="#2D2D2D" d="M8,122.9c0.2,0.2,0.4,0.3,0.7,0.3s0.5-0.1,0.7-0.3l21.4-21.3c1.6,6.3,7.3,10.9,14.1,10.9c0.1,0,0.3,0,0.4,0
		c8-0.2,14.3-6.9,14.1-14.9c-0.2-7.1-5.5-12.9-12.3-13.9l70.7-70.9c5.8,4.1,8.8,10.2,8.1,17c-0.5,5.7-4.4,9.5-8.2,13.2
		c-0.9,0.9-1.8,1.7-2.6,2.6c-0.4,0.4-0.8,0.9-1.2,1.3c-6.6,6.9-12.9,13.5-12.2,37.6c-1.9,0.4-3.4,2.2-3.4,4.2c0,2.1,1.5,3.8,3.4,4.2
		v9c0,2.5,2.1,4.6,4.6,4.6c2.5,0,4.6-2.1,4.6-4.6V98c0-0.5-0.4-1-1-1s-1,0.4-1,1v4.1c0,1.5-1.2,2.6-2.7,2.6c-1.5,0-2.7-1.2-2.7-2.6
		v-9c1.9-0.4,3.4-2.2,3.4-4.2c0-2.1-1.5-3.8-3.4-4.2c-0.7-23.4,5.3-29.6,11.7-36.3c0.4-0.4,0.8-0.9,1.2-1.3c0.8-0.8,1.6-1.7,2.5-2.5
		c3.8-3.7,8.2-8,8.8-14.4c0.7-7.4-2.5-14.1-8.7-18.6c0.8-0.9,1.2-2,1.2-3.2c0-1.3-0.5-2.6-1.5-3.5c-0.9-0.9-2.2-1.5-3.5-1.5
		c-1.3,0-2.6,0.5-3.5,1.5L32.4,83.9c0,0,0,0.1-0.1,0.1L32,83.6c-0.4-0.4-1-0.4-1.4,0L0.3,113.8C0.1,114,0,114.3,0,114.5
		c0,0.3,0.1,0.5,0.3,0.7L8,122.9z M103.7,86.6c0.8,0.4,1.4,1.2,1.4,2.2c0,1.3-1.1,2.4-2.4,2.4c-1.3,0-2.4-1.1-2.4-2.4
		c0-1,0.6-1.9,1.5-2.2c0.1,0.5,0.5,0.9,1,0.9c0,0,0,0,0,0C103.3,87.4,103.6,87.1,103.7,86.6z M57.4,97.6c0.2,6.9-5.3,12.7-12.2,12.9
		c-7,0.2-12.7-5.2-12.9-12.1c-0.1-3.3,1.1-6.5,3.4-9c2.3-2.4,5.4-3.8,8.8-3.9c0.1,0,0.3,0,0.4,0C51.7,85.5,57.2,90.8,57.4,97.6z
		 M113.3,6.1c1.1-1.1,3.1-1.1,4.2,0c0.6,0.6,0.9,1.3,0.9,2.1s-0.3,1.5-0.9,2.1l0,0c-0.1,0-0.1-0.1-0.2-0.1l-3.8-3.8
		c-0.1-0.1-0.2-0.2-0.4-0.2L113.3,6.1z M111.9,7.4c0,0.1,0.1,0.2,0.2,0.3l3.9,3.9c0,0,0.1,0,0.1,0.1l-14.7,14.8l-4.3-4.3L111.9,7.4z
		 M95.7,23.6l4.3,4.3L78.6,49.4L74.2,45L95.7,23.6z M72.8,46.4l4.4,4.3L55.7,72.2l-4.4-4.4L72.8,46.4z M33.8,85.3l16.1-16.1l4.4,4.4
		c0,0,0,0,0,0l-9.9,9.9c0,0,0,0,0,0c-3.4,0.1-6.5,1.3-9,3.5L33.8,85.3C33.7,85.3,33.8,85.3,33.8,85.3z M31.3,85.7l2.7,2.7
		c-2.5,2.8-3.8,6.3-3.7,10c0,0.3,0,0.5,0.1,0.8L8.7,120.8l-6.4-6.3L31.3,85.7z"/>
	<path fill="#54A74B" d="M118.5,8.2c0,0.8-0.3,1.5-0.9,2.1l0,0c-0.1,0-0.1-0.1-0.2-0.1l-1.9-1.9l2.2-2.2
		C118.2,6.6,118.5,7.4,118.5,8.2z"/>
	<path fill="#54A74B" d="M116.1,11.7l-14.7,14.8l-2.1-2.1L114,9.7L116.1,11.7C116.1,11.7,116.1,11.7,116.1,11.7z"/>
	<polygon fill="#54A74B" points="100,27.9 78.6,49.4 76.5,47.3 98,25.8 	"/>
	<polygon fill="#54A74B" points="77.2,50.7 55.7,72.2 53.7,70.2 75.1,48.7 	"/>
	<path fill="#54A74B" d="M54.4,73.6l-9.9,9.9h0c-1.8,0-3.5,0.4-5.2,1.1l13-13.1L54.4,73.6L54.4,73.6z"/>
	<path fill="#F4A742" d="M30.3,98.4c0,0.3,0,0.5,0.1,0.8L8.7,120.8l-3-3l25.7-25.3C30.7,94.4,30.3,96.4,30.3,98.4z"/>
	<path fill="#909293" d="M51.9,99c0,3.4-2.8,6.2-6.2,6.2c-3,0-5.5-2.1-6.1-4.9c0.9,2.1,3,3.5,5.4,3.5c3.2,0,5.8-2.6,5.8-5.8
		c0-1.8-0.8-3.4-2.1-4.4C50.6,94.6,51.9,96.6,51.9,99z"/>
</g>
</svg>
