<?xml version="1.0" encoding="utf-8"?>
<!-- Generator: Adobe Illustrator 18.1.0, SVG Export Plug-In . SVG Version: 6.00 Build 0)  -->
<svg version="1.1" baseProfile="tiny" id="Layer_1" xmlns="http://www.w3.org/2000/svg" xmlns:xlink="http://www.w3.org/1999/xlink"
	 x="0px" y="0px" viewBox="0 0 128 128" xml:space="preserve">
<g>
	<path fill="#67666D" d="M22.4,29.1c-0.4,0.2-0.7,0.3-1.2,0.5c-0.8,0.2-1.6,0.4-2.4,0.4c-3.3,0-6.2-2.2-6.8-5.2
		c-0.7-3.3,0.6-13,2.3-17.7c3.7,3.3,7.9,7.9,8.6,11.8C24.2,24.4,23.5,26.7,22.4,29.1z"/>
	<path fill="#67666D" d="M43,24.5c-0.9,0.4-1.9,0.7-3,0.7c-1.7,0-3.3-0.7-4.6-2.1c-0.8-0.8-6-11.4,2.4-21c-0.3,1-0.3,2.1,0.1,2.9
		c1.1,1.9,5.6,5.6,6.2,8.2C44.6,15.3,45,21.8,43,24.5z"/>
	<path fill="#67666D" d="M2.6,28.7c-0.1-0.1-0.3-0.2-0.4-0.4v0C2.3,28.4,2.4,28.5,2.6,28.7z"/>
	<path fill="#67666D" d="M17.5,46.1c-0.6,0.7-3.1,2.3-6.2,2.3c-3.1,0-5.5-1.7-7.3-5c-0.8-1.6-2.5-9.1-1.9-15.2
		c1.5,2.7,4.1,5.9,8.5,7.9C12.6,37.1,17,40.9,17.5,46.1z"/>
	<path fill="#67666D" d="M28.8,38.6c-0.1,0.1-0.1,0.2-0.1,0.3c0,0,0,0,0,0C28.7,38.8,28.7,38.7,28.8,38.6z"/>
	<path fill="#67666D" d="M55.7,55.9c0.1,3.4-1.1,7.6-4.3,9.6c-0.5,0-1,0-1.6,0c-1.6,0-3.3-0.1-4.8-0.3c-1.8-0.2-3.6,0.3-5,1.4
		c-0.5,0.4-1,0.8-1.6,1.3c-2.4,2-5.2,4.3-8.5,4.5c-0.2,0-0.4,0-0.6,0c-4.8,0-10.5-4.5-11.2-10.4c-0.6-5.4,4-11.1,7.3-15.2
		c1.2-1.4,1.9-3.2,2.2-5c0.2-1,0.4-2,0.9-2.9c1.4-0.4,5-1.3,6.5-0.5c1.8,0.9,3.9,4.7,8,7c3.2,1.8,6.2,4.1,8.9,5.2
		C54.2,51.4,55.7,53.5,55.7,55.9z"/>
	<path fill="#67666D" d="M95.2,70.5c-1.2,2.4-3.4,14.7-3.2,22.3c0.2,7.6-3.1,22.7-10.5,25.7c-2.5-0.2-4.9-1.6-6.3-3.7
		c-2.6-3.8-3.4-9.6-2.5-17l0.1-0.4c2.3-10.8,7.4-19.2,14.6-24.2l0.2-0.1c0.7-0.8,5.4-3.9,9.6-5.2C96.3,68.8,95.5,69.7,95.2,70.5z"/>
	<path fill="#67666D" d="M123.6,93.1c-0.9,8.3-7.6,27.9-21.2,32.7c-0.2-0.1-0.4-0.1-0.5-0.2c-1.9-0.7-4.4-2.3-5.4-5.4
		c-1-3.2-0.7-9.2,6.5-19.3c0.4-0.6,9.8-14.1,11.7-17.9c1.4-2.7,4.9-7,6.5-8.8c0,0,0,0,0,0.1c0,0-0.1,0.1-0.1,0.1
		C122.6,80.4,124.1,88.3,123.6,93.1z"/>
	<path fill="#67666D" d="M59.7,22.5c-0.5-1.4-1-2.8-1.5-4.2c0,0,0,0,0,0C58.7,19.7,59.2,21.2,59.7,22.5z"/>
	<path fill="#67666D" d="M59.3,31c0.2,3.6-1.7,8.2-6.9,9.2c-1.9-0.5-3.4-1.9-4.2-3.7c-0.4-0.9-0.5-2-0.3-3.1
		c0.3-1.2,1.1-3.6,3.2-5.2c1.3-1,2.4-2.1,3.1-3.3c1.2-1.8,2.8-4.3,3.8-6.4C58.6,22.8,59.2,28.8,59.3,31z"/>
	<path fill="#2D2D2D" d="M121.2,71.9c-0.5,0-0.9,0.2-1.2,0.5c-1.6,1.9-5.6,6.6-7.1,9.7c-1.8,3.6-11.5,17.5-11.6,17.6
		c-6.1,8.6-8.4,15.7-6.8,21c1,3.1,3.2,5.4,6.6,6.7c1,0.4,2.1,0.6,3.2,0.6c6,0,11.5-5.5,13.5-7.9c17.9-19.3,7.1-42.9,4.7-47.4
		C122.4,72.2,121.8,71.9,121.2,71.9z M116.4,118.8c-1.5,1.7-6.7,7.2-12,7.2c-0.9,0-1.7-0.2-2.5-0.4c-1.9-0.7-4.4-2.3-5.4-5.4
		c-1-3.2-0.7-9.2,6.5-19.3c0.4-0.6,9.8-14.1,11.7-17.9c1.4-2.7,4.9-7,6.4-8.8C123.8,79.6,132.8,101.1,116.4,118.8z"/>
	<path fill="#2D2D2D" d="M97.4,90.2c0.1-2,0.1-3.7,0.3-4.7c0.3-1.8,0.8-6.1,1.2-10.3c0.3-3.3,0.7-6.4,0.9-7.8
		c0.1-0.4-0.1-0.9-0.4-1.2c-0.4-0.4-1-0.6-1.5-0.5c-4.7,1-10.4,4.6-11.7,6c-7.6,5.3-12.9,14-15.3,25.3l-0.1,0.4
		c-1,8-0.1,14.2,2.8,18.5c1.9,2.9,5.1,4.6,8.6,4.6c1.5,0,2.9-0.3,4.2-0.9c4.2-1.9,6-5.8,8-10.4C96.8,103.6,97.1,95.5,97.4,90.2z
		 M85.5,117.7c-1.1,0.5-2.2,0.7-3.4,0.7c-2.8,0-5.4-1.4-7-3.7c-2.6-3.9-3.4-9.6-2.5-17l0.1-0.4c2.3-10.8,7.4-19.2,14.6-24.2l0.2-0.1
		c0.7-0.8,5.8-4.2,10.2-5.3c-0.2,1.6-0.5,4.4-0.8,7.3c-0.4,4-0.9,8.4-1.2,10.2c-0.2,1.1-0.3,2.8-0.3,4.9c-0.2,5.2-0.5,13-2.9,18.2
		C90.5,112.7,89,116.1,85.5,117.7z"/>
	<path fill="#2D2D2D" d="M52.5,44.3c-2.2-1-4.5-2-6-3.1c-0.4-0.4-1-0.9-1.7-1.6C42,37,37.7,33,34.3,33c-0.4,0-0.8,0.1-1.2,0.2
		c-5.6,1.7-6.9,5.1-7.4,8.3c-0.2,1.5-0.9,2.9-1.8,4c-3.5,4.4-8.4,10.4-7.8,16.6c0.7,6.5,6.8,12.2,13.1,12.2c0.3,0,0.5,0,0.8,0
		c3.9-0.3,7.1-2.9,9.6-4.9c0.5-0.4,1.1-0.9,1.6-1.3c1-0.8,2.3-1.1,3.5-1c1.7,0.2,3.4,0.3,5.1,0.3c2,0,5.5-0.2,7.3-1.3
		c3.1-2.1,4.9-4.9,5.2-8.2c0.4-4.5-2-8.7-3.7-10.3C57.4,46.4,55,45.4,52.5,44.3z M60.4,57.9c-0.2,2.7-1.7,5-4.3,6.7
		c-0.9,0.6-3.3,0.9-6.2,0.9c-1.6,0-3.3-0.1-4.8-0.3c-1.8-0.2-3.6,0.3-5,1.4c-0.5,0.4-1.1,0.8-1.6,1.3c-2.4,2-5.2,4.2-8.5,4.5
		c-0.2,0-0.4,0-0.6,0c-4.8,0-10.5-4.5-11.2-10.4c-0.6-5.4,4-11.1,7.3-15.2c1.2-1.4,1.9-3.2,2.2-5c0.4-2.5,1.2-5.3,6-6.7
		c0.2-0.1,0.4-0.1,0.6-0.1c2.6,0,6.7,3.8,9.1,6.1c0.7,0.7,1.4,1.3,1.8,1.7c1.7,1.4,4.1,2.4,6.4,3.4c2.2,1,4.5,1.9,5.6,3
		C58.5,50.3,60.8,53.9,60.4,57.9z"/>
	<path fill="#2D2D2D" d="M19.2,47.1c2-2.8,2.6-5.4,1.8-7.7c-1.3-4.1-6.6-6-9.1-6.8c-3-1-7.8-5.2-9.3-6.4c-0.3-0.2-0.6-0.3-0.9-0.3
		c-0.7,0-1.2,0.5-1.4,1.1c-1.1,6.6,0.8,15.2,1.9,17.5c2.7,5,6.4,6.1,9.1,6.1C14.8,50.4,18.3,48.5,19.2,47.1z M11.3,48.5
		c-3.1,0-5.5-1.7-7.3-5c-0.8-1.7-2.6-9.1-1.9-15.2c2.2,1.9,6.3,5.1,9.1,6.1c2.2,0.8,6.9,2.4,7.9,5.6c0.5,1.7,0,3.7-1.6,6
		C17.2,46.6,14.5,48.5,11.3,48.5z"/>
	<path fill="#2D2D2D" d="M15.5,5.2c-0.3-0.2-0.7-0.3-1.1-0.3c-0.8,0-1.6,0.5-1.9,1.3c-1.7,4.6-3.2,15-2.3,18.9
		c0.8,3.9,4.4,6.7,8.7,6.7c1,0,1.9-0.1,2.9-0.4c5.2-1.6,6.3-6.6,6.2-9.1C28.6,14.3,19.5,7.7,15.5,5.2z M26,22.4
		c0,0.2,0.3,5.6-4.8,7.1c-0.8,0.2-1.6,0.4-2.4,0.4c-3.3,0-6.2-2.2-6.8-5.2c-0.7-3.3,0.6-13.3,2.4-17.9c2.9,1.8,12.2,8.3,11.6,15.4
		L26,22.4L26,22.4z"/>
	<path fill="#2D2D2D" d="M39.3,0.7c-0.8-0.9-2.3-0.9-3.1,0c-8.9,10.2-3.9,22.1-2.3,23.7c1.7,1.8,3.7,2.7,6,2.7
		c3.1,0,5.6-1.7,6.3-2.3c6-5,1.9-12.3,0.6-14.7l-0.2-0.3C45.7,8,41.6,3.3,39.3,0.7z M44.9,23.3c-0.5,0.5-2.6,1.8-5,1.8
		c-1.7,0-3.3-0.7-4.6-2.1c-0.8-0.8-6-11.4,2.4-21l0.1,0c3.8,4.4,6.5,7.6,7.1,8.8l0.2,0.3C47.3,14.9,49.2,19.7,44.9,23.3z"/>
	<path fill="#2D2D2D" d="M59.5,16c-0.2-0.5-0.7-0.9-1.2-0.9c-0.6,0-1.1,0.4-1.2,0.9c-0.7,2.4-3.4,6.4-4.3,7.8
		c-0.7,1-1.5,1.9-2.7,2.8c-2.6,2-3.6,4.8-3.9,6.3c-0.3,1.4-0.2,3,0.4,4.3c1.4,3.2,4.5,5.2,8.2,5.2c1.9,0,3.7-0.5,5.1-1.5
		c4.2-2.9,4.5-5.5,4.4-9.2C64.1,29.1,61.2,20.7,59.5,16z M58.6,39.3c-1.1,0.7-2.5,1.2-4,1.2c-2.9,0-5.3-1.5-6.4-4
		c-0.4-0.9-0.5-2-0.2-3.1c0.3-1.2,1.1-3.6,3.2-5.2c1.3-1,2.4-2.1,3.1-3.3c1.3-1.9,2.9-4.4,3.9-6.6c2,5.6,3.9,11.7,3.9,13.5
		C62.2,35.1,62.1,37,58.6,39.3z"/>
	<path fill="#535259" d="M17.6,46c0,0-0.1,0.1-0.1,0.1c-0.5-5.3-4.9-9-6.9-9.9c-4.3-1.9-7-5.2-8.5-7.9v0c0.1,0.1,0.3,0.2,0.4,0.4
		c0.3,0.3,0.6,0.5,1,0.8c0.4,0.3,0.7,0.6,1.1,0.9c0.2,0.1,0.4,0.3,0.6,0.4c0.6,0.4,1.2,0.9,1.8,1.3c0,0,0,0,0,0
		c1.4,1,2.9,1.8,4.1,2.3c2.2,0.8,6.9,2.4,7.9,5.6C19.7,41.7,19.2,43.7,17.6,46z"/>
	<path fill="#535259" d="M2.1,28.3C2.1,28.3,2.1,28.3,2.1,28.3L2.1,28.3C2.1,28.3,2.1,28.3,2.1,28.3z"/>
	<path fill="#535259" d="M17.6,46c0,0-0.1,0.1-0.1,0.1L17.6,46C17.5,46.1,17.5,46,17.6,46c1.6-2.4,2.1-4.4,1.6-6.1
		c-1-3.2-5.7-4.8-7.9-5.6C10,34,8.5,33.1,7.1,32.1c1.4,1,2.9,1.8,4.1,2.2c2.2,0.8,6.9,2.4,8,5.6C19.7,41.7,19.2,43.7,17.6,46z"/>
	<path fill="#535259" d="M26,22.4c0,0.2,0.2,4.8-3.6,6.7c1.1-2.4,1.8-4.7,0.6-10.2c-0.8-3.9-4.9-8.6-8.6-11.8c0-0.1,0-0.1,0.1-0.2
		c2.9,1.8,12.2,8.3,11.6,15.4V22.4z"/>
	<path fill="#535259" d="M45.9,22.4c-0.1,0.1-0.2,0.2-0.3,0.3c-0.2,0.2-0.4,0.4-0.6,0.6c-0.1,0.1-0.2,0.1-0.3,0.2c0,0,0,0,0,0
		c-0.1,0.1-0.2,0.2-0.4,0.3c-0.1,0.1-0.2,0.1-0.3,0.1c-0.3,0.2-0.7,0.4-1.1,0.5c2-2.6,1.7-9.1,1.1-11.4c-0.7-2.5-5.2-6.2-6.2-8.2
		C37.3,4.1,37.4,3,37.7,2c0,0,0,0,0,0h0.1c3.8,4.4,6.5,7.6,7.1,8.8v0l0.1,0.3C47.1,14.6,48.9,19,45.9,22.4z"/>
	<path fill="#535259" d="M37.8,1.9C37.8,2,37.8,2,37.8,1.9l-0.1,0c0,0,0,0,0,0c0,0,0,0,0,0L37.8,1.9z"/>
	<path fill="#535259" d="M45,23.3c0.2-0.2,0.4-0.4,0.6-0.6C45.4,22.9,45.2,23.1,45,23.3c-0.1,0.1-0.2,0.1-0.3,0.2
		C44.8,23.4,44.9,23.3,45,23.3z"/>
	<path fill="#535259" d="M45.9,22.4c3-3.4,1.2-7.8-0.8-11.4L45,10.7l0.2,0.3C47.1,14.6,48.9,19,45.9,22.4z"/>
	<path fill="#535259" d="M58.6,39.3c-1.1,0.7-2.5,1.1-4,1.1c-0.8,0-1.5-0.1-2.2-0.3c5.2-1,7.1-5.6,6.9-9.2
		c-0.1-2.2-0.7-8.1-1.2-12.5c0-0.1,0.1-0.1,0.1-0.1c0.5,1.4,1,2.8,1.5,4.2c0.1,0.3,0.2,0.7,0.3,1c1.2,3.7,2.1,7,2.1,8.2
		C62.2,35.1,62.1,37,58.6,39.3z"/>
	<path fill="#535259" d="M60.4,57.8c-0.2,2.7-1.7,5-4.3,6.7c-0.8,0.5-2.5,0.8-4.6,0.9c3.2-2,4.3-6.2,4.3-9.6
		c-0.1-2.4-1.6-4.5-3.8-5.3c-2.7-1.1-5.7-3.4-8.9-5.2c-4-2.3-6.2-6.1-8-7c-1.5-0.8-5.1,0.1-6.5,0.5c0.1-0.1,0.1-0.2,0.1-0.3
		c0.1-0.1,0.1-0.2,0.2-0.3c0.1-0.2,0.2-0.3,0.4-0.5c0.3-0.4,0.6-0.7,1-1c0.1-0.1,0.2-0.1,0.3-0.2c0.8-0.6,1.8-1.1,3.2-1.5
		c0.2-0.1,0.4-0.1,0.6-0.1c2.6,0,6.7,3.8,9.1,6.1c0.7,0.7,1.4,1.3,1.8,1.7c1.7,1.4,4.1,2.4,6.5,3.4c2.2,1,4.5,1.9,5.6,3
		C58.5,50.3,60.8,53.9,60.4,57.8z"/>
	<path fill="#535259" d="M97.7,67.7c-0.2,1.6-0.5,4.4-0.8,7.3c-0.4,3.9-0.9,8.4-1.2,10.2c-0.2,1.1-0.3,2.8-0.3,5
		c-0.2,5.2-0.5,13-2.9,18.2c-2,4.3-3.6,7.8-7.1,9.4c-1,0.5-2.2,0.7-3.4,0.7c-0.2,0-0.5,0-0.7,0c7.4-3,10.7-18.1,10.5-25.7
		c-0.1-7.6,2.1-19.9,3.2-22.3c0.4-0.8,1.1-1.7,2-2.6C97.3,67.8,97.5,67.8,97.7,67.7z"/>
	<path fill="#535259" d="M116.4,118.8c-1.5,1.7-6.7,7.2-12,7.2c-0.7,0-1.3-0.1-2-0.3c13.6-4.8,20.3-24.4,21.2-32.7
		c0.5-4.7-1-12.6-2.5-18.7c0,0,0.1-0.1,0.1-0.1C123.9,79.7,132.8,101.2,116.4,118.8z"/>
</g>
</svg>
