<?xml version="1.0" encoding="utf-8"?>
<!-- Generator: Adobe Illustrator 23.0.0, SVG Export Plug-In . SVG Version: 6.00 Build 0)  -->
<svg version="1.1" id="Layer_1" xmlns="http://www.w3.org/2000/svg" xmlns:xlink="http://www.w3.org/1999/xlink" x="0px" y="0px"
	 viewBox="0 0 128 128" style="enable-background:new 0 0 128 128;" xml:space="preserve">
<style type="text/css">
	.st0{fill:#444444;}
	.st1{fill:#3A3A3A;}
	.st2{fill:#E8E6DA;}
	.st3{fill:#595959;}
	.st4{fill:#B57A87;}
	.st5{fill:#D1D0CB;}
	.st6{fill:#2D2D2D;}
</style>
<g>
	<path class="st0" d="M71.6,58.8c0.5-1.2,1-2.2,1.8-3.2c0.4-0.5,0.7-1,1.1-1.5c0.1-0.1,0.4-1.7-2.2-1.4c-0.7,0.1-1.4,0.1-2,0.5
		c-1.2,0.8-2.3,1.8-3.3,2.8c-0.5,0.5-1,1-1.5,1.6l-0.8,0.8c-0.3,0.3-0.5,0.5-0.9,0.8c-1.3,0.9-2.9,1.2-4.3,1.6
		c-0.4,0.1-0.7,0.2-1,0.3c-0.2,0-0.3,0.1-0.4,0.1c-0.1,0.1-0.1,0.1-0.2,0.2c-0.2,0.2-0.3,0.4-0.5,0.7c-0.2,0.3-0.3,0.6-0.4,0.9
		c-0.5,1.3-0.9,2.6-1,3.9c-0.1,0.7,0,1.2,0.2,1.8c0.2,0.6,0.5,1.2,0.8,1.8c0.7,1.2,1.6,2.4,2.4,3.7c0.2,0.3,0.4,0.7,0.6,1
		c0.2,0.4,0.4,0.7,0.5,1.2c0.3,0.9,0.4,1.6,0.5,2.4c0.2,1.5,0.2,3,0.3,4.5c0.1,3,0.1,5.9,0,8.9c-0.1,2.9-0.2,5.9-0.3,8.8
		c0,1.5,0,2.9,0.1,4.3c0.1,0.7,0.2,1.4,0.3,2.1c0.1,0.3,0.2,0.6,0.4,0.8c0.2,0.2,0.3,0.2,0.5,0.2c2.2-1.1,4-2.8,5.3-4.9
		c1.3-2.1,2-4.5,2.6-7l0.8-3.7c0.3-1.2,0.6-2.5,0.8-3.6c0.2-1.2,0.2-2.4,0.2-3.7c0-1.2,0-2.5,0-3.7c-0.1-5-0.3-10-0.4-15l-0.1-3.8
		l0-0.9l0-0.5l0-0.5C71.1,60.1,71.3,59.4,71.6,58.8z"/>
	<path class="st1" d="M59,83.1c-0.1-1.4-0.2-2.9-0.4-4.3c0-0.3-0.1-0.6-0.1-0.9c-0.7,3.4-1.5,6.7-2.3,10c-0.5,1.9-1.1,3.8-1.5,5.7
		c-0.2,1-0.4,1.9-0.4,2.9c-0.1,1-0.1,1.9,0.1,2.9c0.3,1.9,0.9,3.8,1.4,5.6c0.3,0.9,0.6,1.7,0.9,2.6c0.4-1.8,0.8-3.6,1.3-5.4
		c0.2-1,0.5-1.9,0.8-2.8c0.1-0.5,0.3-0.9,0.5-1.4c0,0,0,0,0,0c0-0.5,0-1.1,0-1.6l0-4.4C59.2,88.9,59.2,86,59,83.1z"/>
	<path class="st2" d="M99.5,32.1c-0.9,0.7-1.6,1.5-2.3,2.4c-0.7,0.9-1.3,1.9-2.1,2.8c-0.4,0.5-0.8,0.9-1.2,1.3
		c-0.2,0.2-0.5,0.4-0.7,0.5c-0.2,0.2-0.4,0.4-0.6,0.5c-1.6,1.5-3,3.4-3.7,5.5c-0.2,0.5-0.3,1.1-0.5,1.6c-0.1,0.6-0.3,1.1-0.5,1.7
		c-0.4,1.1-0.9,2.2-1.5,3.2c-0.6,1-1.3,2-2,2.9c-0.4,0.5-0.8,0.9-1.2,1.3c-0.4,0.4-0.9,0.8-1.2,1.2c-0.7,0.8-1.4,1.7-2,2.7
		c-0.6,0.9-1.2,1.9-1.8,2.9c-1.2,2-2.2,4-3.3,6c-0.5,1-1,2.1-1.4,3.1c-0.2,0.5-0.4,1-0.6,1.4c0.2,2.8,0.3,5.5,0.3,8.3
		c0,2.5-0.2,5.1-0.7,7.6c-0.3,1.3-0.7,2.5-1.1,3.7l-1,3.6c-0.7,2.4-1.5,4.9-2.8,7.1c-1.3,2.2-3.2,4-5.4,5.3l0,0l0,0
		c-0.2,0.1-0.5,0.2-0.8,0.1c-0.3-0.1-0.5-0.2-0.7-0.4c-0.3-0.4-0.5-0.7-0.6-1.1c-0.3-0.7-0.4-1.5-0.5-2.2c-0.2-1.5-0.3-3-0.4-4.5
		c0-0.2,0-0.5,0-0.7c-0.1,0.8-0.3,1.6-0.4,2.4c-0.3,1.9-0.6,3.9-1.1,5.8l-0.2,0.7c0,0.1-0.1,0.3-0.1,0.4c0,0.1,0,0.1-0.1,0.3
		c0,0-0.1,0.2-0.3,0.3c-0.1,0.1-0.2,0.1-0.3,0.1c-0.1,0-0.1,0-0.2,0c0,0-0.1,0-0.1,0c-0.2-0.1-0.3-0.2-0.3-0.2
		c-0.2-0.2-0.2-0.3-0.3-0.4c-0.1-0.1-0.1-0.2-0.2-0.4c-0.1-0.2-0.2-0.5-0.3-0.7c-0.4-0.9-0.6-1.9-0.9-2.9c-0.5-1.9-0.8-3.9-0.9-5.9
		c-0.1-1,0-2,0.1-3c0.1-1,0.3-2,0.4-2.9c0.3-1.9,0.5-3.9,0.9-5.8c0.4-1.9,0.9-3.8,1.5-5.7c0.5-1.6,1.1-3.2,1.7-4.8
		c0-0.1-0.1-0.2-0.1-0.3c-0.1-0.3-0.2-0.6-0.4-0.9c-0.2-0.3-0.3-0.6-0.5-0.9c-0.7-1.2-1.6-2.4-2.3-3.7c0,0,0,0,0-0.1
		c-1.3,2.6-2.3,5.3-3,8c-0.8,3-1.3,6.1-1.7,9.2c-0.3,3.1-0.6,6.2-0.6,9.3c0,3.1,0.1,6.2,0.9,9.2c0.4,1.5,1,2.9,1.7,4.3
		c0.8,1.3,1.7,2.6,2.8,3.7c0.5,0.6,1.1,1.1,1.6,1.7l0.4,0.4c0.1,0.1,0.3,0.3,0.4,0.5c0.3,0.3,0.5,0.7,0.7,1c0.4,0.7,0.7,1.5,1,2.2
		l0.2,0.6c0.1,0.2,0.1,0.4,0.1,0.4c0,0,0.1,0,0.1,0c0,0,0,0,0,0c0,0,0,0,0,0l0.1-0.1c0.6-0.6,1.2-1.1,2-1.5c0.4-0.2,0.8-0.3,1.3-0.4
		c0.4,0,0.8,0,1.3,0c0.8,0.1,1.7,0.2,2.4,0.6c0.2,0.1,0.4,0.2,0.5,0.3c-0.2-0.6-0.4-1-0.7-1.6c-0.4-0.7-0.7-1.4-1-2.2
		c-0.3-0.7-0.5-1.5-0.7-2.3c-0.2-0.8-0.3-1.6-0.3-2.4c0,0,0-0.1,0.1-0.1c0,0,0.1,0,0.1,0.1l0,0c0.2,1.2,0.6,2.4,1.1,3.6
		c0.1,0,0.2,0,0.3-0.1c0.2,0,0.4-0.1,0.6-0.2c0.4-0.1,0.8-0.3,1.1-0.5c0.7-0.4,1.3-1,1.9-1.6c1.1-1.2,2.2-2.6,3.2-3.9
		c1-1.4,2-2.7,2.9-4.1c1-1.4,1.9-2.8,2.8-4.2l0,0l0,0c1.1-1.5,2.1-3,3.1-4.5c1-1.6,2-3.1,2.9-4.7c1.9-3.2,3.7-6.4,5.5-9.7
		c1.7-3.3,3.4-6.6,5-9.9l1.2-2.5c0.4-0.8,0.8-1.7,1.1-2.5c0.3-0.9,0.7-1.7,1-2.6c0.3-0.9,0.6-1.8,0.8-2.6c1-3.6,1.8-7.2,2.2-10.9
		c0.4-3.7,0.7-7.4,0.8-11.1c0-0.9,0.1-1.8,0.1-2.8c0-0.9,0-1.9,0-2.7c0-1.2-0.1-2.3-0.3-3.5c-0.4,0.1-0.8,0.1-1.2,0.3
		C100.5,31.5,100,31.8,99.5,32.1z"/>
	<path class="st0" d="M66.5,121.4c-0.7-0.3-1.4-0.4-2.1-0.4c-0.4,0-0.7,0-1.1,0c-0.3,0-0.6,0.1-0.9,0.3c-0.6,0.3-1.2,0.7-1.8,1.3
		l-0.1,0.1c-0.1,0-0.1,0.1-0.2,0.2c-0.1,0.1-0.3,0.1-0.5,0.1c0,0.5-0.1,1-0.2,1.5c-0.1,0.3-0.2,0.7-0.4,1c-0.1,0.3-0.4,0.7-0.3,0.8
		c0.1,0,0.4,0.1,0.7,0.1c0.5,0,1.1,0,1.7,0c1.2,0,2.4,0,3.6,0c1.2,0,2.4,0.1,3.6,0.2c1.2,0.1,2.4,0.3,3.6,0.3c2.4,0.2,4.7,0.1,7.1,0
		c1.7-0.1,3.4-0.3,5.1-0.4c-0.1-0.1-0.2-0.2-0.3-0.2c-0.6-0.3-1.3-0.4-2-0.5c-0.8-0.1-1.6-0.1-2.5-0.1c-0.9,0-1.7,0-2.6-0.1
		c-1.7-0.1-3.4-0.2-5.2-0.4c-0.4-0.1-0.9-0.1-1.3-0.3c-0.4-0.1-1-0.3-1.3-0.6c-0.7-0.6-1.2-1.4-1.3-2.2c0,0,0,0,0,0l-0.1,0l-0.1-0.1
		C67.1,121.7,66.8,121.6,66.5,121.4z"/>
	<path class="st2" d="M95.3,26.4c-1.3,1.1-2.7,2.1-4.3,2.7c-1.6,0.6-3.2,1.1-4.9,1.3c-0.2,0-0.4,0-0.7,0c-0.3,0-0.4,0-0.6,0
		c-0.4,0-0.8,0-1.1,0.1c-0.8,0.1-1.5,0.3-2.3,0.6c-0.7,0.3-1.4,0.7-2,1.2c-0.5,0.5-0.9,1.2-1,1.9c-0.2,1.6-0.2,3.3-0.3,5
		c-0.1,1.7-0.2,3.4-0.8,5c-0.2,0.4-0.4,0.8-0.6,1.1c-0.2,0.2-0.3,0.3-0.4,0.5c-0.1,0.2-0.2,0.3-0.2,0.5c-0.1,0.7,0.2,1.5,0.6,2.1
		c0.1,0.2,0.2,0.3,0.3,0.5c0.1,0.1,0.3,0.4,0.3,0.4c0.2,0.2,0.5,0.2,0.7,0.1c0.1-0.1,0.2-0.1,0.3-0.2c0,0,0.1-0.1,0.1-0.2l0.1-0.3
		c0.1-0.4,0.2-0.8,0.3-1.1c0.3-1.6,0.5-3.2,0.7-4.9l0.3-2.5l0.2-1.3c0.1-0.4,0.1-0.8,0.3-1.3c0.5-1.7,1.5-3.3,3-4.4
		c0.7-0.5,1.6-1,2.7-1c0.1,0,0.3,0,0.4,0l0.3,0c0.2,0,0.3,0,0.5,0c0.4,0,0.7-0.1,1.1-0.1c1.5-0.3,3.1-0.9,4.5-1.6
		c1.5-0.7,2.9-1.5,4.2-2.5c0.6-0.5,1.3-1,1.8-1.6c0.4-0.4,0.8-0.9,1.1-1.4c-0.1-0.2-0.3-0.4-0.4-0.6c-0.4-0.6-0.8-1.1-1.3-1.6
		C97.5,24.1,96.4,25.3,95.3,26.4z"/>
	<path class="st3" d="M100.2,8.4C98.6,8.6,97,9,95.4,9.3c-1.5,0.3-3,0.6-4.6,0.9l0.4,0.1c0.3,0,0.6,0.1,0.9,0.2
		c0.6,0.1,1.2,0.3,1.7,0.6c0.6,0.2,1.1,0.5,1.7,0.7c0.4,0.2,0.9,0.4,1.3,0.6c1-0.7,2.1-1.3,3.2-1.8c1.2-0.6,2.4-1.1,3.6-1.6
		c1.2-0.5,2.4-0.9,3.5-1.4c0.6-0.3,1.1-0.5,1.7-0.8c0.3-0.1,0.5-0.3,0.7-0.5c0.1-0.1,0.2-0.2,0.1-0.1l0,0l0,0l0,0c0,0,0-0.1,0-0.1
		c0-0.1,0-0.1,0-0.2c0-0.1-0.1-0.3-0.2-0.4c-1.5,0.6-2.9,1.3-4.4,1.9C103.5,7.6,101.8,8.2,100.2,8.4z"/>
	<path class="st0" d="M29.5,122.5c3.1-0.1,6.2-0.5,9.2-1.1c3-0.6,6-1.6,8.9-2.8l1.1-0.5c0.4-0.2,0.8-0.3,1.2-0.4
		c0.8-0.2,1.6-0.2,2.4-0.3c1.4-0.1,2.8-0.2,4.3-0.2l-0.1-0.1c-0.5-0.6-1.1-1.2-1.6-1.8c-1-1.2-2-2.4-2.9-3.8c-0.8-1.4-1.5-2.8-2-4.3
		c-0.5-1.5-0.9-3.1-1.1-4.7c-0.2-1.6-0.3-3.2-0.3-4.8c-0.1-3.2,0-6.4,0.4-9.5C49.4,85.2,50,82,51,79c0.9-2.8,2.2-5.5,3.9-8
		c-0.3-0.6-0.6-1.2-0.8-1.9c-0.3-0.8-0.3-1.8-0.2-2.6c0.2-1.6,0.7-3.1,1.4-4.5c0.2-0.4,0.4-0.7,0.6-1c0.2-0.3,0.5-0.7,0.8-1
		c0.2-0.2,0.5-0.4,0.7-0.4c0.2-0.1,0.4-0.1,0.6-0.2c0.4-0.1,0.8-0.1,1.1-0.2c1.4-0.2,2.9-0.4,4-1c0.5-0.3,1.1-0.9,1.7-1.3l1.7-1.4
		c1.1-0.9,2.3-1.9,3.6-2.6c0.3-0.2,0.7-0.3,1-0.5c0.4-0.1,0.7-0.2,1.1-0.2c0.7,0,1.5,0.1,2.2,0.3c0.3,0.1,0.6,0.4,0.7,0.7
		c0,0.2,0,0.4-0.1,0.5c-0.1,0.2-0.2,0.3-0.3,0.4c-0.4,0.5-0.8,1-1.1,1.5c-0.7,1-1.3,2.1-1.6,3.3c-0.2,0.6-0.3,1.2-0.3,1.8l0,0.4
		l0.1,0.5l0.1,0.9l0.5,3.7c0.2,1.8,0.4,3.6,0.6,5.4c0.3-1.2,0.7-2.4,1.2-3.5c0.8-2.2,1.9-4.3,3-6.3c1.2-2,2.4-4,4.1-5.7
		c0.5-0.5,0.9-0.8,1.3-1.1c0.4-0.4,0.8-0.8,1.2-1.2c0.8-0.8,1.5-1.7,2.2-2.6c0.7-0.9,1.3-1.9,1.7-2.9c0.2-0.5,0.4-1.1,0.5-1.6
		c0.1-0.6,0.3-1.1,0.4-1.7c0.3-1.1,0.8-2.2,1.3-3.3c0.5-1,1.2-2,2-2.9c0.2-0.2,0.4-0.4,0.6-0.6c0.2-0.2,0.4-0.4,0.6-0.6
		c0.4-0.4,0.8-0.8,1.1-1.2c0.7-0.8,1.4-1.8,2.2-2.6c0.8-0.9,1.6-1.8,2.7-2.4c0.9-0.5,2-0.8,3-0.7c-0.1-0.5-0.2-1.1-0.4-1.6
		c-0.4-1.4-0.9-2.7-1.7-4c-0.2,0.5-0.6,1-0.9,1.5c-0.5,0.7-1.1,1.3-1.7,1.8c-1.3,1.1-2.6,2.1-4.1,2.9c-1.5,0.8-3,1.5-4.7,1.9
		c-0.4,0.1-0.9,0.2-1.3,0.2c-0.2,0-0.5,0-0.7,0l-0.3,0c-0.1,0-0.1,0-0.2,0c-0.6,0-1.3,0.3-1.9,0.8c-1.2,0.9-2.1,2.2-2.5,3.7
		c-0.1,0.4-0.2,0.7-0.3,1.1l-0.2,1.2l-0.4,2.5c-0.2,1.6-0.5,3.3-0.9,5c-0.1,0.4-0.2,0.8-0.4,1.2l-0.1,0.3c0,0.1-0.1,0.2-0.2,0.3
		c-0.2,0.2-0.4,0.4-0.7,0.6c-0.5,0.2-1.2,0.1-1.6-0.3c-0.2-0.2-0.3-0.4-0.4-0.6c-0.1-0.2-0.2-0.4-0.3-0.6c-0.4-0.8-0.8-1.7-0.5-2.6
		c0.1-0.2,0.2-0.5,0.3-0.6c0.1-0.2,0.3-0.4,0.4-0.5c0.3-0.3,0.4-0.6,0.6-1c0.6-1.5,0.8-3.2,0.8-4.8c0.1-1.7,0-3.3,0-5
		c0-0.9,0.4-1.8,1.1-2.5c0.6-0.7,1.4-1.2,2.2-1.5c0.8-0.4,1.6-0.6,2.5-0.8c0.4-0.1,0.9-0.1,1.3-0.1c0.2,0,0.5,0,0.6,0
		c0.2,0,0.4,0,0.6,0c0.8-0.1,1.6-0.2,2.3-0.4c0.8-0.2,1.6-0.4,2.3-0.7c1.5-0.5,2.9-1.4,4.2-2.3c1.2-0.9,2.3-2,3.3-3.1
		c-0.1-0.1-0.2-0.2-0.3-0.4c-0.3-0.3-0.6-0.6-1-0.9l-0.5-0.5c0-0.1-0.1-0.1-0.1-0.2c-0.9,0.4-1.9,0.8-2.8,1.1
		c-0.3,0.1-0.6,0.2-1,0.2c-0.3,0-0.5,0.1-0.8,0.2c-0.5,0.2-1.1,0.5-1.7,0.8c-1.1,0.5-2.2,1.1-3.4,1.6c-1.2,0.4-2.5,0.9-3.8,0.9
		c-2.5,0-5.1-0.3-7.5-1.5c-1.2-0.6-2.2-1.5-3-2.5c-0.8-1.1-1.2-2.4-1.2-3.7c0-1.3,0.2-2.6,0.6-3.8c0.4-1.2,0.9-2.4,1.6-3.4
		c1.3-2.2,3.1-4.1,5.3-5.4c2.2-1.4,4.6-2.2,7.1-2.5c2.5-0.3,5.1-0.2,7.5,0.4c0,0,0,0,0,0c0,0,0,0,0,0c0,0,0,0,0,0c0,0,0,0,0,0
		c0,0,0,0,0,0c0,0,0,0,0,0c-1.9,0.3-3.7,0.8-5.4,1.4c-0.9,0.3-1.7,0.7-2.5,1.1c-0.8,0.5-1.5,1-1.9,1.7l-0.1,0.2l-0.2,0
		c-0.8,0.1-1.5,0.2-2.2,0.4c-0.7,0.2-1.4,0.5-2,0.9c-1.3,0.7-2.3,2-2.8,3.4c-0.5,1.4-0.7,3.1-0.6,4.5c0.1,1.5,1.2,2.6,2.5,3.2
		c1.3,0.6,2.8,0.7,4.3,0.5c1.5-0.2,3-0.5,4.5-0.9c0.8-0.2,1.5-0.4,2.3-0.5c0.4-0.1,0.9-0.1,1.2-0.1c0.4,0,0.8,0,1.2,0
		c1.5,0.1,3,0.1,4.4,0.3c-0.1-1.1-0.1-2.2,0.1-3.3c0.1-0.7,0.3-1.4,0.7-2c0.1-0.2,0.3-0.4,0.4-0.5l-0.2-0.1
		c-0.6-0.3-1.1-0.6-1.6-0.9c-0.5-0.3-1-0.6-1.5-0.9c-0.5-0.3-1-0.5-1.6-0.8c-0.3-0.1-0.5-0.2-0.8-0.3l-0.4-0.1
		c-0.2,0-0.4-0.1-0.5-0.2c0,0,0-0.1,0-0.1l0,0l0,0l0.1,0l0.1-0.1l0.2-0.2l0.5-0.3c0.3-0.2,0.6-0.5,0.9-0.7c0.6-0.5,1.1-1,1.7-1.5
		c0.3-0.3,0.5-0.5,0.7-0.8c0.1-0.1,0.2-0.3,0.2-0.4c0-0.1,0.1-0.3,0.1-0.5C94.9,5,95,4.2,95,3.6l0-0.3C91.6,1.9,87.9,1,84.2,1
		c-1.9,0-3.9,0.4-5.7,1c-1.8,0.7-3.4,1.7-4.8,3.1c-1.4,1.3-2.6,2.9-3.6,4.5c-1,1.6-1.9,3.4-2.6,5.2c-0.6,1.8-1.1,3.7-1.3,5.6
		c-0.2,1.9-0.2,3.9,0,5.8l0,0.4L66,27.1c-0.4,0.4-0.8,0.7-1.1,1.1c-0.4,0.4-0.8,0.8-1.1,1.2c-0.8,0.8-1.5,1.7-2.2,2.6
		c-1.4,1.7-2.9,3.5-4.3,5.3c-2.8,3.6-5.6,7.2-8.1,10.9c-2.6,3.7-5,7.6-7.2,11.5c-1.1,2-2.1,4-2.9,6.1c-0.4,1.1-0.8,2.1-1.2,3.2
		l-0.5,1.6l-0.5,1.6c-1.3,4.3-2.3,8.7-3.2,13.2c-0.9,4.4-1.7,8.9-2.3,13.4c-0.1,1.1-0.3,2.2-0.4,3.4c-0.1,1.1-0.2,2.3-0.4,3.4
		c-0.4,2.3-1.1,4.6-1.9,6.7c-0.8,2.2-1.9,4.3-3.1,6.3c-0.6,1-1.3,2-2.1,2.9c-0.3,0.3-0.6,0.6-0.8,0.9
		C24.8,122.5,27.2,122.6,29.5,122.5z M86.3,10.1c-1.3,0-2.4-1.5-2.4-1.5s1.1-1.5,2.4-1.5c1.3,0,2.4,1.5,2.4,1.5S87.6,10.1,86.3,10.1
		z"/>
	<path class="st2" d="M75,14.4c0.1-0.8,0.3-1.6,0.5-2.3c0.5-1.5,1.3-3,2.7-4c0.7-0.5,1.4-0.9,2.2-1.1c0.7-0.2,1.5-0.3,2.2-0.4
		c0.6-0.8,1.4-1.4,2.2-1.8c0.9-0.5,1.8-0.8,2.7-1c0.9-0.3,1.9-0.4,2.8-0.6c0.7-0.1,1.5-0.2,2.2-0.2C87.7,2.6,82.9,3.5,79,5.9
		c-1,0.6-2,1.4-2.9,2.2c-0.9,0.8-1.7,1.7-2.5,2.7c-0.7,1-1.3,2.1-1.7,3.3c-0.4,1.2-0.5,2.4-0.4,3.6c0.1,1.2,0.6,2.3,1.4,3.2
		c0.4,0.5,0.8,0.9,1.3,1.2c0.5,0.3,1,0.7,1.5,0.9c2.1,1,4.6,1.3,7,1.3c1.2,0,2.3-0.3,3.5-0.7c1.2-0.4,2.3-0.9,3.4-1.4
		c0.6-0.2,1.1-0.5,1.8-0.7c0.3-0.1,0.7-0.2,1-0.2c0.3,0,0.6-0.1,0.9-0.1c0.9-0.2,1.9-0.5,2.8-0.7c-0.1-0.1-0.2-0.2-0.3-0.4l0-0.1
		l0-0.1c0-0.2,0-0.4-0.1-0.7c-1.5,0.1-3,0.2-4.4,0.3c-0.8,0.1-1.6,0-2.2,0.2c-0.7,0.2-1.5,0.4-2.2,0.7c-1.5,0.5-3,0.9-4.6,1
		c-1.6,0.1-3.3-0.1-4.8-0.8c-0.7-0.4-1.4-0.9-1.9-1.6c-0.5-0.7-0.7-1.5-0.8-2.4c0-0.4,0-0.8,0.1-1.2C74.9,15.2,74.9,14.8,75,14.4z"
		/>
	<path class="st3" d="M94.4,8c-0.6,0.5-1.3,0.9-1.9,1.3c-0.3,0.2-0.6,0.3-0.9,0.5c1.2-0.5,2.4-1,3.6-1.4c0.8-0.3,1.6-0.5,2.4-0.7
		c0.8-0.2,1.6-0.4,2.5-0.6c1.6-0.2,3.1-0.6,4.7-1c0.8-0.2,1.6-0.4,2.4-0.6c0.8-0.1,1.5-0.3,2.3-0.3c-0.2-0.3-0.4-0.6-0.8-0.8
		c-0.5-0.4-1-0.7-1.6-0.9c-1.2-0.4-2.5-0.3-3.8-0.3c-2.4,0.2-4.8,0.6-7.1,0.9c0,0.2-0.1,0.5-0.1,0.7c-0.1,0.4-0.1,0.8-0.3,1.2
		c-0.1,0.2-0.1,0.4-0.2,0.6c-0.1,0.2-0.2,0.4-0.4,0.6C95,7.5,94.7,7.7,94.4,8z"/>
	<path class="st1" d="M71.4,61.5c-0.1,0.4-0.7,20.8-2,24.3c-1.3,3.5-1.4,8.9-2.6,12.1c-1.2,3.2-1.4,6.7-3.7,5.7
		c-2.2-1-2.9-2.7-2.9-2.7s0.4,6.2,0.9,7.1c0.4,0.9,0.6,0.6,2-0.1s4.4-3.8,5.5-6.9c1.2-3.1,4-11.5,3.9-14.1
		C72.5,84.2,73,74,72.5,71.3C72,68.7,71.4,61.5,71.4,61.5z"/>
	<path class="st1" d="M64.4,58.7c-0.9,0.1-4.3,4.9-5.1,6.4c-0.8,1.5,0.2,1.8,0.9,3.5c0.6,1.6,2.5,3.8,2.4,6.3
		c-0.1,2.5-2.2,8.9-2.4,10.7c-1-7.7-1.6-11.5-3.6-14.1c-1.9-2.6-1.7-7.1-0.9-8.2s1.7-3.2,2.1-3.2c0.4,0,3.3-0.4,4-0.6
		C62.4,59.1,64.4,58.7,64.4,58.7z"/>
	<path class="st1" d="M66,27.1c-0.1,0.4-4.6,9.5-4.7,16.8s-1.9,9.8-8.3,15.1S38.7,76.5,37.3,83.1s-5.7,19.7-4.2,24.5
		s8.5,7.1,11.5,6.8c3-0.4,7.1-4.1,7.1-4.1l5,7.1c0,0-5,0.1-6.6,0.6c-1.6,0.5-13.1,6.2-22.4,5.6c-5.5,0.3-6.6-0.7-6.6-0.7
		s5.6-5.2,6.1-9.1c0.5-3.9,4.6-17.1,4.4-21.3c-0.2-4.2,6.1-25.5,7.9-29.2s12.6-20,14.3-22.2c1.6-2.2,9.8-12.3,9.8-12.3L66,27.1z"/>
	<path class="st1" d="M95.4,3.3c-0.2,0.1-2.5-0.2-2.5-0.2s-7.8,0.5-10,3.9c-1.5,0.1-4.3,1-5.3,2.2S75,12.5,75,16.1
		c0,2,1.6,5.3,5.8,5.2c4.2-0.1,8.8-1.9,8.8-1.9s6.6-0.1,6.6,0c0,0-0.3-2.6,0.1-3.8c0.3-1.2,0.9-2.7,0.8-2.7c-0.1,0-6.2-2.6-6.5-2.6
		c0.8-0.8,3.6-2.3,4-2.9s1.1-3.3,1.1-3.5C95.7,3.7,95.4,3.3,95.4,3.3z"/>
	<path class="st1" d="M72.9,21.7c0,0,4.5,4.9,4.7,6.9c0.1,2.3,0.5,5.4,0.5,5.4s0.4-3,3.9-3.6c3.5-0.6,8.2-0.9,10.9-2.6
		c2.7-1.7,5.8-5.6,5.8-5.6s-1.9-1.7-2.1-1.7c-0.2,0-4.7,1.5-5.1,1.6s-7.1,3.3-8.9,3.1c-1.8-0.2-5.5-0.8-6.9-1.5
		C74.3,22.9,72.9,21.7,72.9,21.7z"/>
	<path class="st4" d="M86.4,6.2c-0.8,0-1.6,0.4-2.2,0.9c-0.8,0.6-0.8,1.8,0,2.4c0.6,0.5,1.3,0.9,2.2,0.9c0.8,0,1.6-0.4,2.2-0.9
		c0.8-0.6,0.8-1.8,0-2.4C88,6.7,87.2,6.2,86.4,6.2z"/>
	<path class="st4" d="M91.2,4.1c-0.5,0.5-0.8,0.3-1,0.6c-0.3,0.3-0.2,0.9,0.2,1.1c0.3,0.2,0.7,0.3,1.1,0.2c0.4-0.1,0.6-0.5,1-0.6
		s0.2-0.9-0.2-1.1C92,4.1,91.6,3.6,91.2,4.1z"/>
	<path class="st5" d="M94.6,37.4c0.2-0.3,8.8-2.8,5.6,3.6c-9.4,18.9-9.8,27.4-11.4,32.1c-1.6,4.7-6.1,20.7-16.2,31.9
		c-2.4,2.6-4.4,8.1-5.6,8.5s-2,0-2,0s0.7,2.5,0.8,2.5s4-0.6,6.2-3.9c2.2-3.3,16.6-23.7,18.4-27.7c1.8-3.9,8.2-18.4,8.6-20
		c0.3-1.6,3.4-11.9,3.4-16.8s0.7-15.6,0.5-16.5c-0.5-0.2-1.9-0.3-3,0.4s-4.2,4.1-4.3,4.4S94.6,37.4,94.6,37.4z"/>
	<path class="st5" d="M56.8,109.6c0,0,0.3,5.7,2.8,6.9c1.9,1.4,2.7,1.7,3.5,0.9s2.8-1.7,2.8-1.3s2.7,5.4,2.4,5.3
		c-0.3-0.1-4.8-1.5-6.3-0.6c-1.5,0.9-2.8,1.7-2.8,1.5s-0.3-3.1-1.4-4.2c-1.1-1.1-5.7-6.2-6.6-8.8c-0.9-2.5-3.1-8.8-1.9-17.9
		s3-14.1,3.4-15.4c0.4-1.3,2.4-5,3-5.6c0.6,1,3,5.5,3,5.5s-1.1,6.7-2.5,9.7c-1.4,3-2.4,11.7-2.6,13.7c-0.2,2,1.9,5.2,2,6.3
		S56.8,109.6,56.8,109.6z"/>
	<path class="st6" d="M86.3,7.1c-1.3,0-2.4,1.5-2.4,1.5s1.1,1.5,2.4,1.5c1.3,0,2.4-1.5,2.4-1.5S87.6,7.1,86.3,7.1z"/>
	<path class="st6" d="M29.6,124.2c3.2-0.2,6.3-0.7,9.4-1.5c3.1-0.8,6.1-1.9,8.9-3.3l1.1-0.5c0.3-0.2,0.7-0.3,1-0.4
		c0.7-0.2,1.5-0.3,2.3-0.4c1.5-0.2,2.9-0.4,4.4-0.6l0.1,0.2c0.1,0.1,0.2,0.3,0.3,0.4c0.2,0.3,0.4,0.6,0.6,1c0.3,0.7,0.6,1.4,0.8,2.2
		l0.1,0.6l0.1,0.3c0,0.1,0.1,0.3,0.2,0.4c0.1,0.2,0.4,0.4,0.6,0.5c-0.2,0.4-0.4,0.9-0.6,1.2c-0.3,0.5-1.2,1.6-1.2,2.1
		c0,0.1,0,0.3,0.1,0.5c0.1,0.2,0.2,0.3,0.3,0.4c0.1,0.1,0.2,0.2,0.3,0.2c0.4,0.2,0.7,0.3,1.1,0.3c0.6,0.1,1.2,0.2,1.8,0.2
		c1.2,0.1,2.4,0.1,3.6,0.1c1.2,0,2.4,0,3.6-0.1l3.6-0.3c2.4-0.2,4.8-0.1,7.1,0.1c2.4,0.2,4.8,0.4,7.1,0.3l1.7,0l-1-1.4
		c-0.5-0.7-1.1-1.5-2-2.1c-0.9-0.6-1.9-0.8-2.8-0.9c-0.9-0.1-1.8-0.1-2.7-0.1c-0.9,0-1.7,0-2.6,0.1c-1.7,0.1-3.4,0.2-5.1,0.2
		c-0.4,0-0.8,0-1.2,0c-0.4,0-0.7-0.1-1.1-0.2c-0.6-0.2-1-0.7-1.4-1.3c0.3,0,0.6-0.1,0.7-0.3c0.1-0.1,0.1-0.3,0.1-0.5
		c0-0.1,0-0.2-0.1-0.2l0-0.1l-0.1-0.3c-0.1-0.3-0.3-0.7-0.5-1.1c-0.2-0.4-0.4-0.7-0.6-1.1c-0.4-0.6-0.8-1.3-1.1-2
		c-0.1-0.2-0.2-0.4-0.3-0.6c0.1,0,0.1,0,0.2,0c0.2,0,0.4-0.1,0.6-0.1c0.4-0.1,0.8-0.2,1.2-0.4c0.8-0.3,1.5-0.9,2.2-1.5
		c1.3-1.1,2.4-2.4,3.6-3.7c1.1-1.3,2.2-2.6,3.3-4c1-1.3,2.1-2.7,3.1-4.1l0,0.1c4.7-5.9,8.4-12.5,11.7-19.2c1.7-3.3,3.2-6.7,4.7-10.2
		l1-2.6l1-2.7c0.3-0.9,0.6-1.8,0.8-2.7l0.7-2.7c0.9-3.6,1.6-7.3,2.3-11c0.7-3.7,1.2-7.4,1.6-11.1c0.1-0.9,0.1-1.9,0.2-2.8
		c0-0.9,0.1-1.9,0.1-2.8c0-1.9-0.3-3.9-0.9-5.7c-0.6-1.9-1.4-3.7-2.6-5.2c-0.6-0.8-1.3-1.5-2-2.1c-0.4-0.3-0.7-0.6-1.1-0.9l-0.5-0.4
		c-0.1-0.1-0.3-0.2-0.3-0.3c-0.2-1.2-0.4-2.5-0.4-3.7c0-0.6,0.2-1.3,0.4-1.8c0.3-0.5,0.6-1,1.1-1.4c0.8-0.4,1.7-0.8,2.5-1.2l3.5-1.5
		c1.1-0.5,2.4-1,3.5-1.6c0.6-0.3,1.2-0.6,1.7-1c0.3-0.2,0.6-0.4,0.8-0.7c0.1-0.2,0.3-0.3,0.4-0.7l0-0.1l0,0l0-0.1c0,0,0-0.1,0-0.1
		c0-0.1,0-0.2-0.1-0.3c-0.3-0.8-0.9-1.3-1.4-1.6c-0.6-0.4-1.2-0.6-1.8-0.8c-0.7-0.2-1.3-0.2-2-0.2c-0.6,0-1.3,0-1.9-0.1
		c-2.6,0-5.2-0.1-7.7,0.3L95.1,3c-1.5-0.8-3.2-1.5-4.8-2c-1.9-0.6-3.9-1-6-1c-1,0-2.1,0-3.1,0.1c-1,0.1-2,0.4-3,0.7
		c-2,0.7-3.8,1.8-5.4,3.2c-3,2.8-5.3,6.4-6.8,10.2c-0.7,1.9-1.2,4-1.4,6c-0.2,1.9-0.2,3.9,0,5.8c-0.3,0.3-0.7,0.7-0.9,1
		c-0.4,0.4-0.8,0.9-1.1,1.3c-0.7,0.9-1.4,1.8-2.1,2.7c-1.4,1.8-2.7,3.6-4.1,5.5c-2.6,3.7-5.2,7.4-7.8,11.2
		c-2.5,3.8-5.1,7.6-7.4,11.5c-1.2,1.9-2.2,4-3.2,6.1c-0.9,2.1-1.8,4.2-2.5,6.4c-2.9,8.7-4.8,17.6-6.2,26.7c-0.2,1.1-0.3,2.3-0.5,3.4
		c-0.1,1.1-0.2,2.3-0.4,3.3c-0.4,2.2-1,4.3-1.8,6.4c-0.8,2.1-1.8,4.1-2.9,5.9c-1.1,1.9-2.5,3.7-4.1,4.9l-2.1,1.6l2.6,0.1
		C23.2,124.3,26.4,124.4,29.6,124.2z M67.5,122L67.5,122C67.6,122,67.6,122,67.5,122c0.2,0.9,0.6,1.7,1.4,2.2
		c0.4,0.3,0.9,0.5,1.3,0.6c0.4,0.1,0.9,0.2,1.3,0.3c1.7,0.3,3.5,0.3,5.2,0.4c0.9,0,1.7,0.1,2.6,0.1c0.9,0,1.7,0,2.5,0.1
		c0.8,0.1,1.5,0.2,2,0.5c0.1,0.1,0.2,0.1,0.3,0.2c-1.7,0.1-3.4,0.3-5.1,0.4c-2.4,0.2-4.7,0.2-7.1,0c-1.2-0.1-2.4-0.2-3.6-0.3
		c-1.2-0.1-2.4-0.2-3.6-0.2c-1.2,0-2.4,0-3.6,0c-0.6,0-1.2,0-1.7,0c-0.3,0-0.5,0-0.7-0.1c0,0,0.2-0.5,0.3-0.8c0.2-0.3,0.3-0.7,0.4-1
		c0.1-0.5,0.2-1,0.2-1.5c0.2,0,0.3-0.1,0.5-0.1c0.1,0,0.2-0.1,0.2-0.2l0.1-0.1c0.5-0.5,1.1-1,1.8-1.3c0.3-0.1,0.6-0.2,0.9-0.3
		c0.3,0,0.7,0,1.1,0c0.7,0,1.5,0.2,2.1,0.4c0.3,0.1,0.7,0.3,0.9,0.5L67.5,122z M102.5,34.5c0,0.9,0,1.8,0,2.7c0,0.9,0,1.8-0.1,2.8
		c-0.1,3.7-0.3,7.4-0.8,11.1c-0.4,3.7-1.2,7.3-2.2,10.9c-0.2,0.9-0.6,1.8-0.8,2.6c-0.3,0.9-0.6,1.7-1,2.6c-0.4,0.8-0.7,1.7-1.1,2.5
		l-1.2,2.5c-1.6,3.3-3.3,6.6-5,9.9c-1.7,3.3-3.6,6.5-5.5,9.7c-1,1.6-1.9,3.2-2.9,4.7c-1,1.5-2,3.1-3.1,4.5l0,0l0,0
		c-0.9,1.4-1.9,2.8-2.8,4.2c-1,1.4-1.9,2.8-2.9,4.1c-1,1.4-2.1,2.7-3.2,3.9c-0.6,0.6-1.1,1.2-1.9,1.6c-0.4,0.2-0.7,0.4-1.1,0.5
		c-0.2,0.1-0.4,0.1-0.6,0.2c-0.1,0-0.2,0-0.3,0.1c-0.5-1.1-0.9-2.3-1.1-3.6l0,0c0,0,0-0.1-0.1-0.1c0,0-0.1,0-0.1,0.1
		c0,0.8,0.1,1.6,0.3,2.4c0.2,0.8,0.4,1.6,0.7,2.3c0.3,0.8,0.6,1.5,1,2.2c0.3,0.5,0.5,1,0.7,1.6c-0.2-0.1-0.4-0.2-0.5-0.3
		c-0.8-0.3-1.6-0.5-2.4-0.6c-0.4,0-0.8-0.1-1.3,0c-0.5,0-0.9,0.2-1.3,0.4c-0.8,0.4-1.4,0.9-2,1.5l-0.1,0.1c0,0,0,0,0,0c0,0,0,0,0,0
		c0,0-0.1,0-0.1,0c0,0-0.1-0.2-0.1-0.4l-0.2-0.6c-0.3-0.8-0.6-1.5-1-2.2c-0.2-0.4-0.4-0.7-0.7-1c-0.1-0.2-0.3-0.3-0.4-0.5l-0.4-0.4
		c-0.6-0.6-1.1-1.1-1.6-1.7c-1.1-1.2-2-2.4-2.8-3.7c-0.8-1.4-1.3-2.8-1.7-4.3c-0.8-3-0.9-6.1-0.9-9.2c0-3.1,0.2-6.2,0.6-9.3
		c0.3-3.1,0.9-6.2,1.7-9.2c0.7-2.8,1.7-5.5,3-8c0,0,0,0,0,0.1c0.8,1.4,1.6,2.5,2.3,3.7c0.2,0.3,0.3,0.6,0.5,0.9
		c0.2,0.3,0.3,0.6,0.4,0.9c0,0.1,0.1,0.2,0.1,0.3c-0.7,1.6-1.2,3.2-1.7,4.8c-0.6,1.9-1.1,3.8-1.5,5.7c-0.4,1.9-0.6,3.9-0.9,5.8
		c-0.1,1-0.3,1.9-0.4,2.9c-0.1,1-0.2,2-0.1,3c0.1,2,0.4,4,0.9,5.9c0.3,1,0.5,1.9,0.9,2.9c0.1,0.2,0.2,0.5,0.3,0.7
		c0.1,0.1,0.1,0.2,0.2,0.4c0.1,0.1,0.1,0.2,0.3,0.4c0.1,0.1,0.1,0.1,0.3,0.2c0,0,0.1,0,0.1,0c0.1,0,0.1,0,0.2,0c0.1,0,0.2,0,0.3-0.1
		c0.2-0.1,0.3-0.3,0.3-0.3c0.1-0.2,0.1-0.2,0.1-0.3c0-0.1,0.1-0.3,0.1-0.4l0.2-0.7c0.4-1.9,0.7-3.9,1.1-5.8c0.1-0.8,0.3-1.6,0.4-2.4
		c0,0.2,0,0.5,0,0.7c0.1,1.5,0.2,3,0.4,4.5c0.1,0.7,0.2,1.5,0.5,2.2c0.1,0.4,0.3,0.8,0.6,1.1c0.1,0.2,0.4,0.4,0.7,0.4
		c0.3,0.1,0.6,0,0.8-0.1l0,0l0,0c2.2-1.3,4.1-3.1,5.4-5.3c1.3-2.2,2.1-4.6,2.8-7.1l1-3.6c0.3-1.2,0.8-2.3,1.1-3.7
		c0.5-2.6,0.6-5.1,0.7-7.6c0-2.8-0.1-5.5-0.3-8.3c0.2-0.5,0.4-1,0.6-1.4c0.4-1.1,0.9-2.1,1.4-3.1c1-2,2.1-4,3.3-6
		c0.6-1,1.2-1.9,1.8-2.9c0.6-0.9,1.3-1.9,2-2.7c0.3-0.3,0.8-0.7,1.2-1.2c0.4-0.4,0.8-0.9,1.2-1.3c0.8-0.9,1.4-1.9,2-2.9
		c0.6-1,1.1-2.1,1.5-3.2c0.2-0.5,0.4-1.1,0.5-1.7c0.1-0.6,0.3-1.1,0.5-1.6c0.7-2.2,2.1-4.1,3.7-5.5c0.2-0.2,0.4-0.4,0.6-0.5
		c0.2-0.2,0.4-0.3,0.7-0.5c0.5-0.4,0.9-0.8,1.2-1.3c0.8-0.9,1.4-1.9,2.1-2.8c0.7-0.9,1.4-1.8,2.3-2.4c0.4-0.3,0.9-0.6,1.4-0.8
		c0.4-0.1,0.8-0.2,1.2-0.3C102.4,32.2,102.5,33.4,102.5,34.5z M71.1,61.7l0,0.9l0.1,3.8c0.1,5,0.3,10,0.4,15c0,1.2,0,2.5,0,3.7
		c0,1.2-0.1,2.5-0.2,3.7c-0.2,1.1-0.5,2.4-0.8,3.6l-0.8,3.7c-0.6,2.4-1.3,4.8-2.6,7c-1.2,2.1-3.1,3.8-5.3,4.9
		c-0.2,0.1-0.3,0-0.5-0.2c-0.2-0.2-0.3-0.5-0.4-0.8c-0.2-0.7-0.3-1.4-0.3-2.1c-0.1-1.4-0.1-2.9-0.1-4.3c0.1-2.9,0.3-5.9,0.3-8.8
		c0.1-2.9,0.1-5.9,0-8.9c-0.1-1.5-0.1-3-0.3-4.5c-0.1-0.8-0.2-1.5-0.5-2.4c-0.1-0.5-0.3-0.8-0.5-1.2c-0.2-0.4-0.4-0.7-0.6-1
		c-0.8-1.3-1.7-2.5-2.4-3.7c-0.3-0.6-0.6-1.2-0.8-1.8c-0.2-0.6-0.2-1.1-0.2-1.8c0.1-1.3,0.5-2.7,1-3.9c0.1-0.3,0.3-0.6,0.4-0.9
		c0.2-0.3,0.3-0.6,0.5-0.7c0.1-0.1,0.1-0.1,0.2-0.2c0.1,0,0.2-0.1,0.4-0.1c0.3-0.1,0.7-0.2,1-0.3c1.4-0.3,3-0.6,4.3-1.6
		c0.3-0.2,0.6-0.5,0.9-0.8l0.8-0.8c0.5-0.5,1-1,1.5-1.6c1-1,2.1-2,3.3-2.8c0.6-0.4,1.3-0.4,2-0.5c2.6-0.3,2.3,1.3,2.2,1.4
		c-0.4,0.5-0.7,1-1.1,1.5c-0.7,1-1.3,2-1.8,3.2c-0.2,0.6-0.4,1.2-0.5,1.9l0,0.5L71.1,61.7z M59.3,97.9
		C59.3,97.9,59.3,97.9,59.3,97.9c-0.2,0.5-0.4,1-0.5,1.4c-0.3,0.9-0.6,1.9-0.8,2.8c-0.5,1.8-0.9,3.6-1.3,5.4
		c-0.4-0.8-0.7-1.7-0.9-2.6c-0.6-1.8-1.1-3.7-1.4-5.6c-0.2-0.9-0.2-1.9-0.1-2.9c0.1-1,0.2-1.9,0.4-2.9c0.4-1.9,1-3.8,1.5-5.7
		c0.9-3.3,1.7-6.6,2.3-10c0.1,0.3,0.1,0.6,0.1,0.9c0.2,1.4,0.3,2.9,0.4,4.3c0.2,2.9,0.2,5.8,0.2,8.8l0,4.4
		C59.3,96.8,59.3,97.3,59.3,97.9z M99.6,24.4c0.1,0.2,0.3,0.4,0.4,0.6c-0.3,0.5-0.7,1-1.1,1.4c-0.6,0.6-1.2,1.1-1.8,1.6
		c-1.3,1-2.7,1.8-4.2,2.5c-1.5,0.7-3,1.3-4.5,1.6c-0.4,0.1-0.8,0.1-1.1,0.1c-0.2,0-0.4,0-0.5,0l-0.3,0c-0.1,0-0.3,0-0.4,0
		c-1.1,0-1.9,0.5-2.7,1c-1.5,1.1-2.5,2.7-3,4.4c-0.1,0.4-0.2,0.9-0.3,1.3l-0.2,1.3l-0.3,2.5c-0.2,1.6-0.4,3.3-0.7,4.9
		c-0.1,0.4-0.2,0.8-0.3,1.1l-0.1,0.3c0,0.1-0.1,0.2-0.1,0.2c-0.1,0.1-0.1,0.2-0.3,0.2c-0.2,0.1-0.5,0.1-0.7-0.1
		c-0.1-0.1-0.2-0.3-0.3-0.4c-0.1-0.2-0.2-0.3-0.3-0.5c-0.4-0.7-0.7-1.4-0.6-2.1c0-0.2,0.1-0.3,0.2-0.5c0.1-0.2,0.2-0.3,0.4-0.5
		c0.3-0.3,0.5-0.7,0.6-1.1c0.6-1.6,0.7-3.3,0.8-5c0.1-1.7,0.2-3.3,0.3-5c0.1-0.7,0.4-1.4,1-1.9c0.5-0.5,1.2-0.9,2-1.2
		c0.7-0.3,1.5-0.5,2.3-0.6c0.4-0.1,0.8-0.1,1.1-0.1c0.2,0,0.4,0,0.6,0c0.2,0,0.5,0,0.7,0c1.8-0.2,3.3-0.7,4.9-1.3
		c1.6-0.6,3-1.6,4.3-2.7c1.1-1.1,2.2-2.2,3-3.5C98.8,23.3,99.2,23.9,99.6,24.4z M109.6,5.6c0,0.1,0,0.1,0,0.2c0,0,0,0.1,0,0.1l0,0
		l0,0l0,0c0-0.1,0,0-0.1,0.1c-0.2,0.2-0.4,0.3-0.7,0.5c-0.5,0.3-1.1,0.6-1.7,0.8c-1.2,0.5-2.3,0.9-3.5,1.4c-1.2,0.5-2.4,1-3.6,1.6
		c-1.1,0.5-2.1,1.1-3.2,1.8c-0.4-0.2-0.9-0.4-1.3-0.6c-0.5-0.2-1.1-0.5-1.7-0.7c-0.6-0.2-1.1-0.4-1.7-0.6c-0.3-0.1-0.6-0.1-0.9-0.2
		l-0.4-0.1c1.5-0.2,3.1-0.6,4.6-0.9c1.6-0.3,3.2-0.7,4.8-0.9c1.7-0.2,3.3-0.7,4.9-1.3c1.5-0.5,2.9-1.2,4.4-1.9
		C109.5,5.4,109.6,5.5,109.6,5.6z M95.2,7.1c0.1-0.2,0.3-0.4,0.4-0.6c0.1-0.3,0.1-0.4,0.2-0.6C95.9,5.6,96,5.2,96,4.8
		c0-0.2,0.1-0.5,0.1-0.7c2.4-0.3,4.7-0.8,7.1-0.9c1.3-0.1,2.6-0.1,3.8,0.3c0.6,0.2,1.1,0.5,1.6,0.9c0.3,0.2,0.6,0.5,0.8,0.8
		c-0.8,0-1.5,0.2-2.3,0.3c-0.8,0.2-1.6,0.4-2.4,0.6c-1.6,0.4-3.1,0.8-4.7,1c-0.8,0.1-1.7,0.3-2.5,0.6c-0.8,0.2-1.6,0.5-2.4,0.7
		c-1.2,0.4-2.4,0.9-3.6,1.4c0.3-0.2,0.6-0.3,0.9-0.5c0.7-0.4,1.3-0.8,1.9-1.3C94.7,7.7,95,7.5,95.2,7.1z M23.3,121.5
		c0.8-0.9,1.4-1.9,2.1-2.9c1.2-2,2.3-4.1,3.1-6.3c0.8-2.2,1.5-4.4,1.9-6.7c0.2-1.2,0.3-2.3,0.4-3.4c0.1-1.1,0.3-2.2,0.4-3.4
		c0.6-4.5,1.4-8.9,2.3-13.4c0.9-4.4,2-8.8,3.2-13.2l0.5-1.6l0.5-1.6c0.3-1.1,0.8-2.1,1.2-3.2c0.8-2.1,1.8-4.1,2.9-6.1
		c2.2-4,4.7-7.8,7.2-11.5c2.6-3.7,5.3-7.4,8.1-10.9c1.4-1.8,2.8-3.5,4.3-5.3c0.7-0.9,1.5-1.7,2.2-2.6c0.4-0.4,0.8-0.8,1.1-1.2
		c0.4-0.4,0.8-0.8,1.1-1.1l0.3-0.3l0-0.4c-0.2-1.9-0.2-3.9,0-5.8c0.2-1.9,0.7-3.8,1.3-5.6c0.6-1.8,1.5-3.6,2.6-5.2
		c1-1.6,2.3-3.2,3.6-4.5c1.4-1.3,3-2.4,4.8-3.1c1.8-0.7,3.7-1,5.7-1c3.7,0,7.3,0.8,10.8,2.3l0,0.3c0,0.6-0.1,1.4-0.3,2.1
		c0,0.2-0.1,0.4-0.1,0.5c0,0.1-0.1,0.3-0.2,0.4c-0.2,0.3-0.4,0.5-0.7,0.8c-0.5,0.5-1.1,1-1.7,1.5c-0.3,0.2-0.6,0.5-0.9,0.7l-0.5,0.3
		L90.5,10l-0.1,0.1l-0.1,0l0,0l0,0c0,0-0.1,0.1,0,0.1c0.1,0,0.3,0.1,0.5,0.2l0.4,0.1c0.3,0.1,0.5,0.2,0.8,0.3
		c0.5,0.2,1.1,0.5,1.6,0.8c0.5,0.3,1,0.6,1.5,0.9c0.5,0.3,1,0.6,1.6,0.9l0.2,0.1c-0.2,0.2-0.3,0.3-0.4,0.5c-0.4,0.6-0.6,1.3-0.7,2
		c-0.2,1.1-0.2,2.2-0.1,3.3c-1.5-0.1-3-0.2-4.4-0.3c-0.4,0-0.8,0-1.2,0c-0.4,0-0.8,0-1.2,0.1c-0.8,0.1-1.6,0.4-2.3,0.5
		c-1.5,0.4-3,0.8-4.5,0.9c-1.5,0.2-3,0-4.3-0.5c-1.3-0.6-2.4-1.7-2.5-3.2c-0.1-1.5,0.1-3.1,0.6-4.5c0.5-1.5,1.5-2.7,2.8-3.4
		c0.6-0.4,1.3-0.7,2-0.9c0.7-0.2,1.4-0.2,2.2-0.4l0.2,0l0.1-0.2c0.4-0.7,1.2-1.3,1.9-1.7c0.8-0.4,1.6-0.8,2.5-1.1
		c1.8-0.6,3.6-1,5.4-1.4c0,0,0,0,0,0c0,0,0,0,0,0c0,0,0,0,0,0c0,0,0,0,0,0c0,0,0,0,0,0c0,0,0,0,0,0c-2.4-0.7-5-0.8-7.5-0.4
		c-2.5,0.3-5,1.2-7.1,2.5c-2.2,1.4-4,3.3-5.3,5.4c-0.6,1.1-1.2,2.2-1.6,3.4c-0.4,1.2-0.6,2.5-0.6,3.8c0,1.3,0.5,2.6,1.2,3.7
		c0.8,1.1,1.8,1.9,3,2.5c2.3,1.2,4.9,1.6,7.5,1.5c1.3,0,2.6-0.4,3.8-0.9c1.2-0.5,2.3-1,3.4-1.6c0.6-0.3,1.1-0.5,1.7-0.8
		c0.3-0.1,0.5-0.2,0.8-0.2c0.3,0,0.6-0.1,1-0.2c1-0.3,1.9-0.7,2.8-1.1c0.1,0.1,0.1,0.1,0.1,0.2l0.5,0.5c0.3,0.3,0.7,0.6,1,0.9
		c0.1,0.1,0.2,0.2,0.3,0.4c-1,1.2-2.1,2.2-3.3,3.1c-1.3,1-2.7,1.8-4.2,2.3c-0.7,0.3-1.6,0.5-2.3,0.7c-0.8,0.2-1.6,0.4-2.3,0.4
		c-0.2,0-0.4,0-0.6,0c-0.2,0-0.4,0-0.6,0c-0.4,0-0.9,0-1.3,0.1c-0.9,0.1-1.7,0.4-2.5,0.8c-0.8,0.4-1.6,0.9-2.2,1.5
		c-0.6,0.7-1,1.6-1.1,2.5c0,1.7,0.1,3.3,0,5c-0.1,1.6-0.2,3.3-0.8,4.8c-0.2,0.4-0.4,0.7-0.6,1c-0.1,0.1-0.3,0.3-0.4,0.5
		c-0.1,0.2-0.2,0.4-0.3,0.6c-0.2,1,0.1,1.9,0.5,2.6c0.1,0.2,0.2,0.4,0.3,0.6c0.1,0.2,0.2,0.3,0.4,0.6c0.4,0.4,1.1,0.6,1.6,0.3
		c0.3-0.1,0.5-0.3,0.7-0.6c0.1-0.1,0.1-0.2,0.2-0.3l0.1-0.3c0.2-0.4,0.3-0.8,0.4-1.2c0.4-1.7,0.7-3.3,0.9-5l0.4-2.5l0.2-1.2
		c0.1-0.4,0.2-0.8,0.3-1.1c0.4-1.4,1.3-2.8,2.5-3.7c0.6-0.4,1.3-0.8,1.9-0.8c0.1,0,0.1,0,0.2,0l0.3,0c0.2,0,0.5,0,0.7,0
		c0.5,0,0.9-0.1,1.3-0.2c1.7-0.4,3.3-1.1,4.7-1.9c1.5-0.8,2.9-1.8,4.1-2.9c0.6-0.6,1.2-1.2,1.7-1.8c0.4-0.5,0.7-1,0.9-1.5
		c0.7,1.2,1.3,2.6,1.7,4c0.1,0.5,0.3,1.1,0.4,1.6c-1-0.1-2.1,0.2-3,0.7c-1.1,0.6-1.9,1.5-2.7,2.4c-0.8,0.9-1.4,1.8-2.2,2.6
		c-0.4,0.4-0.7,0.8-1.1,1.2c-0.2,0.2-0.4,0.4-0.6,0.6c-0.2,0.2-0.4,0.4-0.6,0.6c-0.8,0.9-1.5,1.9-2,2.9c-0.5,1-1,2.1-1.3,3.3
		c-0.2,0.6-0.3,1.1-0.4,1.7c-0.1,0.6-0.3,1.1-0.5,1.6c-0.4,1-1,2-1.7,2.9c-0.7,0.9-1.4,1.8-2.2,2.6c-0.4,0.4-0.8,0.8-1.2,1.2
		c-0.4,0.4-0.8,0.7-1.3,1.1c-1.7,1.8-2.9,3.7-4.1,5.7c-1.1,2-2.2,4.1-3,6.3c-0.4,1.2-0.8,2.3-1.2,3.5c-0.2-1.8-0.4-3.6-0.6-5.4
		l-0.5-3.7l-0.1-0.9l-0.1-0.5l0-0.4c0-0.6,0.1-1.2,0.3-1.8c0.4-1.2,1-2.3,1.6-3.3c0.3-0.5,0.7-1,1.1-1.5c0.1-0.1,0.2-0.2,0.3-0.4
		c0.1-0.2,0.1-0.3,0.1-0.5c-0.1-0.3-0.3-0.6-0.7-0.7c-0.7-0.2-1.5-0.3-2.2-0.3c-0.4,0-0.7,0.1-1.1,0.2c-0.4,0.1-0.7,0.3-1,0.5
		c-1.3,0.7-2.4,1.7-3.6,2.6l-1.7,1.4c-0.6,0.5-1.1,1-1.7,1.3c-1.2,0.7-2.6,0.8-4,1c-0.4,0-0.7,0.1-1.1,0.2c-0.2,0-0.4,0.1-0.6,0.2
		c-0.2,0.1-0.5,0.3-0.7,0.4c-0.4,0.3-0.6,0.7-0.8,1c-0.2,0.3-0.4,0.7-0.6,1c-0.7,1.4-1.2,2.9-1.4,4.5c-0.1,0.8-0.1,1.8,0.2,2.6
		c0.2,0.7,0.5,1.3,0.8,1.9c-1.7,2.4-2.9,5.2-3.9,8c-1,3-1.6,6.2-2.1,9.3c-0.4,3.2-0.5,6.3-0.4,9.5c0,1.6,0.1,3.2,0.3,4.8
		c0.2,1.6,0.6,3.2,1.1,4.7c0.5,1.5,1.2,3,2,4.3c0.8,1.3,1.8,2.6,2.9,3.8c0.5,0.6,1,1.2,1.6,1.8l0.1,0.1c-1.4,0-2.8,0.1-4.3,0.2
		c-0.8,0.1-1.6,0.1-2.4,0.3c-0.4,0.1-0.8,0.3-1.2,0.4l-1.1,0.5c-2.9,1.2-5.8,2.2-8.9,2.8c-3,0.6-6.1,1-9.2,1.1c-2.3,0.1-4.7,0-7-0.1
		C22.8,122.1,23,121.8,23.3,121.5z M75.5,19.1c0.5,0.7,1.2,1.2,1.9,1.6c1.5,0.8,3.2,1,4.8,0.8c1.6-0.1,3.2-0.6,4.6-1
		c0.7-0.2,1.5-0.5,2.2-0.7c0.7-0.2,1.5-0.1,2.2-0.2c1.5-0.1,2.9-0.2,4.4-0.3c0,0.2,0,0.4,0.1,0.7l0,0.1l0,0.1
		c0.1,0.2,0.2,0.3,0.3,0.4c-0.9,0.3-1.9,0.5-2.8,0.7c-0.3,0.1-0.6,0.1-0.9,0.1c-0.3,0-0.7,0.1-1,0.2c-0.6,0.2-1.2,0.4-1.8,0.7
		c-1.1,0.5-2.3,1-3.4,1.4c-1.2,0.4-2.3,0.7-3.5,0.7c-2.4,0-4.9-0.2-7-1.3c-0.5-0.3-1-0.6-1.5-0.9c-0.5-0.4-0.9-0.8-1.3-1.2
		c-0.8-0.9-1.3-2-1.4-3.2c-0.1-1.2,0-2.5,0.4-3.6c0.4-1.2,0.9-2.3,1.7-3.3c0.7-1,1.6-1.9,2.5-2.7C77,7.3,77.9,6.6,79,5.9
		c3.9-2.5,8.8-3.3,13.5-2.8c-0.7,0-1.5,0.1-2.2,0.2c-0.9,0.1-1.9,0.3-2.8,0.6c-0.9,0.3-1.8,0.6-2.7,1c-0.8,0.4-1.6,1-2.2,1.8
		c-0.7,0.1-1.5,0.2-2.2,0.4c-0.8,0.2-1.5,0.6-2.2,1.1c-1.3,1-2.2,2.5-2.7,4c-0.2,0.8-0.4,1.5-0.5,2.3c-0.1,0.4-0.1,0.8-0.2,1.2
		c0,0.4-0.1,0.8-0.1,1.2C74.8,17.6,75,18.4,75.5,19.1z"/>
</g>
</svg>
