<?xml version="1.0" encoding="utf-8"?>
<!-- Generator: Adobe Illustrator 24.1.2, SVG Export Plug-In . SVG Version: 6.00 Build 0)  -->
<svg version="1.1" id="Layer_1" xmlns="http://www.w3.org/2000/svg" xmlns:xlink="http://www.w3.org/1999/xlink" x="0px" y="0px"
	 viewBox="0 0 128 128" style="enable-background:new 0 0 128 128;" xml:space="preserve">
<style type="text/css">
	.st0{fill:#333333;}
	.st1{fill:#977559;}
	.st2{fill:#EAE4D6;}
	.st3{fill:#AD8B65;}
</style>
<g>
	<path class="st0" d="M44.1,122.5c0.1,0.2,0.2,0.4,0.3,0.6c1.5,0,3,0,4.4-0.1l-2.3-1.9c-0.7,0.1-2,0.4-2.9,0.6
		C43.8,122,44,122.2,44.1,122.5z"/>
	<path class="st1" d="M45.7,120.5c-0.9,0.2-2.1,0.4-2.7,0.6c-0.2-0.2-0.4-0.4-0.6-0.6l0-0.1l-0.1,0c-0.8-0.3-1.5-0.9-2-1.7
		c-0.5-0.8-0.8-1.6-1.1-2.5c-0.8-1.8-1.6-3.5-2.4-5.2c-1.6-3.5-3.4-6.8-5.3-10.2c-0.9-1.7-1.9-3.3-3-5c-0.1-0.2-0.3-0.4-0.4-0.6
		c0-0.1-0.2-0.3-0.3-0.4l-0.2-0.2c-0.3-0.3-0.6-0.7-0.8-1c-0.5-0.7-0.9-1.5-0.8-2.2c0-0.3,0.1-0.6,0.3-0.9c0.1-0.2,0.2-0.2,0.4-0.4
		c0.2-0.2,0.4-0.3,0.6-0.6c0.4-0.4,0.7-0.9,1-1.3c0.5,0.2,1.8,0.3,3.2,0.2c-0.4,0.4-0.8,1-1,1.5c-0.3,0.8-0.4,1.6-0.5,2.3
		c0,0.4,0,0.7,0,1.1l0,0.5c0,0.2,0.1,0.5,0.1,0.7c0.4,1.5,0.9,2.7,1.4,3.9c1,2.5,2.2,4.8,3.4,7.1c1.2,2.3,2.4,4.7,3.8,6.9
		c0.3,0.6,0.7,1.1,1.1,1.7c0.1,0.1,0.2,0.3,0.5,0.6c0,0,0.1,0.1,0.2,0.2c0.2,0.2,0.4,0.4,0.5,0.7c0.4,0.5,0.7,1.1,1.1,1.6
		c0.2,0.3,0.4,0.5,0.6,0.9c0.2,0.3,0.3,0.3,0.5,0.4l0.4,0.3L45.7,120.5z"/>
	<path class="st2" d="M69.7,75c-0.1-0.2-0.3-0.5-0.4-0.7c-1.9,0.1-3.9,0-5.8-0.3c-2.2-0.3-4.5-0.7-6.6-1.5c-2.2-0.7-4.2-1.8-6.1-2.9
		c-1.8-1.1-3.4-2.3-5-3.6c-0.1,0.5-0.2,1-0.4,1.4c-0.5,1.4-1.2,2.8-2,4c2.2,1.3,4.3,2.6,6.6,3.5c2.5,1,4.9,2,7.5,2.7
		c2.6,0.7,5.2,1.3,7.8,1.8c2.4,0.4,4.9,0.8,7.4,1.1c-0.1-0.9-0.3-1.8-0.4-2.8C71.3,76.9,70.4,76,69.7,75z"/>
	<path class="st0" d="M10.6,125.4l3.1-0.1c-0.5-0.7-1-1.4-1.4-2.1c-0.6,0.1-1.7,0.3-2.4,0.5C10.1,124.2,10.3,124.8,10.6,125.4z"/>
	<path class="st1" d="M99.9,15.1c0.2,1.2,0.4,2.5,0.4,3.8c0.4,0,0.8,0,1.3,0c0.2,0,0.4,0,0.5,0c-0.1-0.4-0.3-0.7-0.5-1
		c-0.2-0.3-0.4-0.8-0.5-1.1c-0.1-0.4-0.3-0.8-0.4-1.2c-0.4-1.6-0.7-3.1-0.9-4.7c-0.2-1.6-0.3-3.2-0.3-4.8c0-0.9,0-1.8,0.1-2.8
		c-0.3,0.8-0.5,1.6-0.6,2.5c-0.2,1.6,0,3.1,0.2,4.7C99.4,12.1,99.6,13.6,99.9,15.1z"/>
	<path class="st1" d="M106.1,20.2c-0.3-1.2-0.5-2.5-0.6-3.8c-0.1-1.5-0.2-3-0.2-4.5c0-1.5,0.1-3,0.3-4.5c0.1-0.6,0.2-1.3,0.3-1.9
		c-0.3,0.5-0.6,1.1-0.7,1.7c-0.5,1.4-0.6,3-0.6,4.5l0,2.3c0,0.7,0,1.5,0,2.2c0,1.1,0,2.3-0.1,3.4C105,19.7,105.6,19.9,106.1,20.2z"
		/>
	<path class="st1" d="M15.1,60.6c0,0.1,0,0.2,0,0.1C15.1,60.7,15.1,60.7,15.1,60.6C15.1,60.6,15.1,60.6,15.1,60.6z"/>
	<path class="st0" d="M83,126.6l2.3-0.1c-0.3-0.3-0.7-0.6-1-0.9c-0.2-0.2-0.5-0.4-0.7-0.6c-0.5,0.1-1,0.3-1.4,0.4
		C82.4,125.7,82.7,126.1,83,126.6z"/>
	<path class="st1" d="M93.4,9.9c0.2,0.2,0.5,0.5,0.7,0.7c0.2,0.2,0.4,0.5,0.5,0.7c0.6,0.9,1.1,2,1.6,3c0.4,1,0.7,2.1,1,3.2
		c0.1,0.5,0.2,1.1,0.3,1.6c0,0.1,0,0.2,0,0.3c0.8-0.2,1.6-0.4,2.5-0.4c-0.4-1.2-0.8-2.3-1.2-3.5c-0.5-1.5-0.7-3.2-0.7-4.8
		c0-0.6,0.1-1.1,0.1-1.7c-0.8-0.8-1.6-1.4-2.5-1.9c-1-0.6-2.1-1.2-3.1-1.6C92,5.2,91.4,4.9,91,4.8c0,0-0.1,0-0.1,0
		c0,0.1-0.1,0.1-0.1,0.2c-0.2,0.4-0.4,1-0.6,1.6c-0.1,0.4-0.3,0.9-0.4,1.4c0.7,0.2,1.5,0.5,2.2,0.9C92.4,9.1,92.9,9.5,93.4,9.9z"/>
	<path class="st1" d="M91,4.6L91,4.6L91,4.6L91,4.6c-0.1,0-0.1,0.1-0.1,0.1C91,4.7,91,4.7,91,4.6L91,4.6z"/>
	<path class="st1" d="M83.1,122.2C83.1,122.2,83.1,122.2,83.1,122.2l-0.1,0.1C83,122.3,83.1,122.3,83.1,122.2
		C83.1,122.2,83.1,122.2,83.1,122.2z"/>
	<path class="st2" d="M92,67.8c-1.2,1.2-2.5,2.2-4,3.1c-0.7,0.4-1.5,0.8-2.2,1.2c-0.5,0.2-1.1,0.4-1.6,0.6c-0.5,1.9-0.8,3.7-1.2,5.6
		c-0.1,0.6-0.2,1.1-0.3,1.7c1.5-1,3-2,4.4-3.1c0.8-0.6,1.5-1.3,2.1-2c0.6-0.7,0.9-1.4,1.4-2.4c0.7-1.4,1.6-2.8,2.4-4.2
		c0-0.1,0-0.1,0.1-0.2c0.4-0.7,0.7-1.5,1.1-2.2c0.4-0.9,0.8-1.9,1.2-2.9c-0.1,0.3-0.3,0.5-0.4,0.8C94.2,65.3,93.2,66.7,92,67.8z"/>
	<path class="st3" d="M118.1,33.9c0-0.5,0.3-0.9,0.7-1l0,0l-0.9-0.7c-0.6-0.5-1.2-1-1.8-1.4c-0.3-0.2-0.6-0.3-1-0.6
		c-0.4-0.2-0.7-0.5-1-0.8c-0.6-0.5-1.2-1.1-1.7-1.7c-1-1.2-2-2.4-3.2-3.5c-0.6-0.5-1.2-1.1-1.8-1.6c-0.3-0.2-0.6-0.4-0.9-0.6
		c-0.3-0.2-0.6-0.4-1-0.5c-1.6-0.8-3.4-1.3-5.3-1.5c0,0,0,0-0.1,0c0,0,0,0,0,0c-0.9-0.1-1.9-0.2-2.8-0.3c0,0.3,0,0.7,0,1
		c0.4,0.5,0.8,1,1.1,1.5c0,0.1,0,0.1,0,0.2c0,0-0.1,0-0.1,0c-0.6-0.4-1.2-0.8-1.8-1.3l-0.1-0.1l0-0.3c-0.1-0.9-0.5-1.9-0.9-2.8
		c-0.4-0.9-0.8-1.9-1.3-2.7c-0.5-0.9-1-1.7-1.6-2.5c-0.1-0.2-0.3-0.4-0.5-0.6c-0.2-0.2-0.3-0.3-0.4-0.4c-0.3-0.3-0.7-0.5-1.1-0.7
		c-1.6-0.9-3.6-1.5-5.5-1.8c-0.5-0.1-1-0.1-1.5-0.2c-0.5,0-1,0-1.2,0c0,0,0,0,0,0c0,0,0.1-0.1,0-0.1c0,0-0.1,0.1-0.1,0.2
		c-0.1,0.1-0.1,0.3-0.2,0.5c-0.1,0.4,0,0.9,0,1.4c0.2,1,0.5,2,0.9,3c0.3,1,0.6,2,1,3c0.4,1,0.8,1.9,1.3,2.8c0.2,0.4,0.5,0.8,0.8,1.2
		c0.3,0.3,0.6,0.6,0.9,0.7c0.7,0.3,1.5,0.4,2.6,0.5c1,0.1,2.1,0.1,3.3,0.4c0.3,0.1,0.6,0.2,0.9,0.4c0.3,0.2,0.5,0.4,0.8,0.6
		c0.5,0.4,0.8,0.9,1.1,1.3c0.3,0.5,0.6,1,0.8,1.5c0.1,0.3,0.2,0.5,0.3,0.8c0,0.1,0.1,0.3,0.1,0.4l0,0.2l0,0.1l0,0.1
		c0,0.1,0,0.1,0,0.1c0,0-0.1,0-0.2,0c0,0,0-0.1,0-0.2c0,0,0,0,0,0c0,0,0,0,0,0l0-0.1l-0.1-0.2l-0.2-0.3c-0.2-0.2-0.3-0.4-0.5-0.6
		c-0.3-0.4-0.7-0.8-1-1.1c-0.2-0.2-0.4-0.3-0.6-0.5l0,0.5l0,1.4l-0.1,2.9C94,32,94,34,93.9,35.9c0,0.5-0.1,1-0.1,1.5
		c0,0.5-0.1,1-0.2,1.6c-0.2,1-0.6,2-1.1,3c-1,1.9-2.8,3.5-4.9,4.1c-0.5,0.2-1.1,0.3-1.6,0.3c-0.5,0-1.1,0-1.5,0
		c-1,0-1.9-0.1-2.9-0.2c-1.9-0.2-3.8-0.4-5.7-0.5c-1-0.1-1.9-0.1-2.9-0.1c-1,0-1.9,0-2.9,0c-1.9,0-3.8,0.2-5.8,0.2
		c-3.9,0.1-7.7-0.1-11.6-0.6c-1.9-0.2-3.9-0.5-5.8-1c-1.9-0.4-3.7-0.9-5.5-1.3c-1.8-0.4-3.7-0.6-5.4-0.6c-0.9,0-1.7,0.2-2.6,0.4
		c-0.9,0.2-1.8,0.4-2.7,0.7c-1.8,0.5-3.6,1.1-5.4,1.7c-1.7,0.6-3.4,1.2-4.9,2.1c-0.7,1.6-1.3,3.1-2,4.6c-0.3,0.8-0.8,1.5-1.3,2.3
		c-0.4,0.8-0.7,1.6-0.8,2.6c-0.1,0.9-0.2,2-0.6,2.9c-0.1,0.3-0.3,0.5-0.4,0.8c0.1,0,0.1,0,0.2,0c0.4,0.1,0.7,0,1.1,0
		c0.4,0,0.8,0,1.2-0.1c0.2-0.1,0.5-0.1,0.7-0.2c0-0.7,0-1.3,0-2c0.1-1.4,0.3-2.9,0.8-4.2c0-0.1,0.1-0.1,0.2-0.1
		c0.1,0,0.1,0.1,0.1,0.1l0,0c-0.5,2.7-0.4,5.6,0.3,8.2c0.3,1.3,0.8,2.5,1.5,3.8c0.7,1.4,0.7,3.1,0.5,4.6c-0.2,1.5-0.8,2.9-1.4,4.2
		c-0.6,1.3-1.4,2.6-2.2,3.7c-1.7,2.3-3.5,4.4-5.6,6.4c-0.6,0.8-0.9,1.8-1.1,2.7c-0.1,1,0.1,1.9,0.6,2.7l0.2,0.3l0,0.3l-2.5,17.8
		c-0.2,1.5-0.4,3-0.6,4.5c-0.1,0.7-0.2,1.5-0.4,2.2c0,0.2-0.1,0.4-0.1,0.6c0,0.1-0.1,0.2-0.1,0.3l-0.1,0.2c-0.2,0.3-0.3,0.6-0.4,1
		c-0.2,0.7-0.1,1.4,0.2,1.9c0.4,0.7,0.6,1.4,0.9,2.1c0.2,0.4,0.4,0.9,0.6,1.3c0.6-0.1,1.6-0.3,2.3-0.4c-0.1-0.2-0.2-0.4-0.4-0.6
		c-0.4-0.8-0.9-1.7-1.1-2.8c-0.1-0.3-0.1-0.6-0.1-0.8c0-0.3,0-0.5,0-0.7c0-0.5,0.1-0.9,0.1-1.4c0.3-3.6,0.8-7.2,1.3-10.7
		c0.5-3.6,1-7.1,1.5-10.7l0.4-2.6l0.1-0.7c0-0.3,0.1-0.6,0.2-0.9c0.2-0.6,0.5-1.1,0.9-1.6c0.8-0.9,1.8-1.4,2.7-1.8
		c0.5-0.2,0.9-0.3,1.4-0.5l0.3-0.1l0.2-0.1c0.2-0.1,0.4-0.1,0.6-0.2c3.1-1.4,6.3-3.2,9.4-5c1.5-0.9,3.1-1.8,4.6-2.8
		c0.7-0.5,1.5-1,2.2-1.5c0.3-0.3,0.7-0.5,1-0.8c0.2-0.1,0.3-0.3,0.4-0.4c0.1-0.1,0.1-0.1,0.2-0.2l0.2-0.3c0.7-0.8,1.4-1.3,2-1.9
		c0.7-0.6,1.3-1.2,1.9-1.8c1.1-1.3,2.1-2.8,2.7-4.4c1.3-3.3,1.5-6.9,1.3-10.5c0-0.1,0-0.1,0.1-0.1c0.1,0,0.1,0,0.1,0.1
		c0.4,3,0.4,6.2-0.3,9.2c1.9,0.9,3.7,1.8,5.5,2.7c2,0.9,4,1.8,6.1,2.5c1,0.4,2.1,0.7,3.1,0.9c1.1,0.3,2.1,0.5,3.2,0.8l5.4,1.2
		c-0.5-0.9-0.8-1.8-1.1-2.7c-0.4-1.3-0.6-2.6-0.7-3.9c-0.1-1.3-0.2-2.6,0.1-4c0-0.1,0.1-0.1,0.1-0.1c0.1,0,0.1,0.1,0.1,0.1l0,0.1
		c0,0.6,0.1,1.3,0.1,1.9c0.1,0.6,0.2,1.3,0.3,1.9c0.3,1.3,0.6,2.5,1.1,3.6c0.5,1.2,1.1,2.3,1.8,3.2c0.7,1,1.6,1.8,2.6,2.4l0.4,0.2
		l0.1,0.4c0.3,2.4,0.9,4.9,1.5,7.3c0.3,1.2,0.6,2.4,0.9,3.6c0.3,1.2,0.7,2.4,1.1,3.5l0.1,0.3l0,0.3c-0.2,1.3-0.5,2.6-0.7,3.8
		c-0.1,0.6-0.1,1.2-0.1,1.7c0.1,0.5,0.2,1,0.5,1.3l0.2,0.3l0,0.2l0.6,9.7l0.3,4.8l0.2,2.4c0,0.8,0.1,1.6,0.1,2.5l0,0l0,0
		c-0.2,0.7-0.1,1.5,0.3,2.1c0.2,0.3,0.3,0.7,0.6,1c0.1,0.1,0.2,0.3,0.4,0.4c0.1,0.1,0.2,0.2,0.3,0.2l0.2,0.2
		c0.5,0.6,0.9,1.2,1.4,1.8c0.3-0.1,0.8-0.2,1.2-0.3c-0.4-0.4-0.7-0.7-1.1-1.2c-0.1-0.1-0.2-0.3-0.3-0.4c-0.1-0.1-0.1-0.2-0.2-0.4
		c0,0-0.1-0.2-0.1-0.4c0,0,0-0.2,0-0.4c0-0.1,0-0.1,0.1-0.2l0-0.1l0,0c0,0.1-0.1,0.2-0.1,0.1c0,0,0,0,0-0.1c0-0.1,0-0.2,0-0.3
		c-0.1-0.4-0.2-1-0.4-1.5c-0.3-1-0.7-2-1.1-3l-0.1-0.2l0-0.2l-0.5-8.4c-0.2-2.8-0.3-5.6-0.4-8.4l0-0.2l0.1-0.3
		c0.2-0.5,0.3-1.1,0.5-1.7c0.1-0.6,0.2-1.2,0.3-1.7c0.1-1.1,0.1-2.3-0.3-3.1l-0.1-0.3l0-0.2c0-1.3,0.2-2.5,0.3-3.7
		c0.2-1.2,0.3-2.3,0.5-3.5c0.4-2.3,0.9-4.6,1.5-6.9c0.6-2.3,1.2-4.6,2.1-6.8c0.4-1.1,0.9-2.2,1.4-3.3c0.5-1.1,0.9-2.2,1.5-3.2
		c0-0.1,0.1-0.1,0.2,0c0.1,0,0.1,0.1,0.1,0.1l0,0c-0.8,2.2-1.4,4.4-2.1,6.7c-0.1,0.2-0.1,0.5-0.2,0.7c0.4-0.3,0.7-0.5,1.1-0.8
		c0.7-0.5,1.3-1,1.9-1.5c1.2-1,2.4-2.1,3.6-3.2l0.8-0.8l0.8-0.9c0.5-0.6,1-1.2,1.5-1.8c1-1.3,1.8-2.6,2.8-4c0,0,0,0,0,0
		c0.1-0.3,0.2-0.7,0.3-1c0.4-1,0.7-2,1.1-2.9l2.3-5.8c0.4-1,0.8-1.9,1.1-2.8c0.2-0.5,0.3-0.9,0.4-1.3l0.1-0.4c0-0.2,0-0.3,0.1-0.4
		c0.1-0.3,0.1-0.6,0.2-0.8c0.3-1.1,0.8-2.1,1.3-3c0.4-0.7,0.8-1.4,1.2-2.1c-0.7-0.2-1.4-0.5-2-0.9l-2.6-0.3L98.9,37l-0.4-0.1l-0.2,0
		c-0.1,0-0.1,0-0.2-0.1c0,0-0.1-0.1-0.2-0.1c-0.1-0.1-0.1-0.1-0.1-0.1l-0.1-0.1l-0.4-0.7c-0.2-0.4-0.3-0.9-0.3-1.4
		c0-0.5,0-1,0.3-1.5c0,0,0.1-0.1,0.1-0.1c0,0,0,0,0,0c0.4,0.4,0.7,0.8,1,1.2c0.2,0.4,0.4,0.9,0.4,1.4c0,0.1,0,0.3,0,0.5l0.2,0.1
		l1.4,0.4l5.1,1.4c0.3,0,0.6,0.1,0.9,0.1c0.7,0.1,1.5,0.2,2.2,0.3c0.7,0.1,1.4,0.1,2.1,0.2l4.4,0.2c0.4,0,0.6,0,0.9,0
		c0.3-0.1,0.5-0.2,0.7-0.5c0.3-0.4,0.6-0.8,1-1.2c0,0-0.1,0-0.1,0c-1.6-0.1-3.1-0.3-4.7-0.6c0,0-0.1-0.1-0.1-0.1c0,0,0-0.1,0.1-0.1
		c1.6-0.2,3.1-0.3,4.7-0.5c0.4,0,0.8-0.1,1.1-0.1c0.1,0,0.2,0,0.3,0c0,0,0,0,0-0.1c0,0,0-0.1,0-0.1C118.5,35,118.1,34.5,118.1,33.9z
		 M90.4,18.2c-0.4,0.1-0.9,0-1.3-0.2c-0.4-0.2-0.7-0.4-1-0.8c-0.3-0.3-0.5-0.7-0.5-1.2c0.5,0,0.9,0.1,1.2,0.2
		c0.3,0.1,0.6,0.2,0.9,0.3c0.3,0.1,0.5,0.2,0.8,0.4c0.3,0.1,0.6,0.3,1,0.5C91.3,17.9,90.8,18.1,90.4,18.2z M91.9,18.2
		c-0.3-0.5-0.5-1.1-0.7-1.7c0-0.2-0.1-0.3-0.1-0.5c0-0.2-0.1-0.2-0.1-0.3c0-0.1-0.1-0.2-0.1-0.3s-0.1-0.2-0.2-0.3
		c-0.5-0.8-1.3-1.6-2.1-2.3c-0.8-0.7-1.7-1.5-2.6-2.2c1.2,0.2,2.3,0.7,3.3,1.3c1,0.6,2,1.3,2.7,2.5c0.1,0.1,0.2,0.3,0.2,0.5
		c0.1,0.2,0.1,0.3,0.2,0.5c0,0.2,0.1,0.4,0.1,0.5c0,0.1,0,0.3,0,0.4c0.1,0.5,0.2,1,0.4,1.5c0.3,1,0.8,2.1,1.2,3.2
		C93.3,20.2,92.5,19.3,91.9,18.2z M108.5,28.9c-0.3,0.8-1.6,1.1-2.9,0.6c-1.3-0.5-1.8-2.4-1.8-2.4s1.6-1.1,2.9-0.6
		C108,27,108.8,28.1,108.5,28.9z"/>
	<path class="st1" d="M83.1,121.7C83.1,121.7,83.1,121.7,83.1,121.7C83.1,121.7,83.1,121.7,83.1,121.7z"/>
	<path class="st0" d="M90,124.5c0.7,0,1.4,0,2.1,0c0.3,0,0.7,0,1,0c-0.5-0.4-1.1-0.9-1.6-1.3c-0.2-0.2-0.4-0.3-0.6-0.5
		c-0.5,0.1-1.3,0.3-1.9,0.5C89.4,123.5,89.7,124,90,124.5z"/>
	<path class="st1" d="M90,119.8C90,119.8,90,119.9,90,119.8L90,119.8C90,119.8,90,119.8,90,119.8z"/>
	<path class="st1" d="M90.3,122c-0.5,0.1-1.2,0.3-1.6,0.4c-0.4-0.6-0.8-1.2-1.3-1.8l-0.2-0.3c-0.1-0.1-0.2-0.2-0.3-0.2
		c-0.1-0.1-0.2-0.3-0.3-0.4c-0.2-0.3-0.4-0.6-0.5-1c-0.3-0.7-0.4-1.5-0.1-2.1v0l0,0c0.1-0.8,0.1-1.5,0.2-2.2l0.1-2.1
		c0.1-1.4,0.1-2.8,0.1-4.3c0-1.4,0-2.8,0-4.3c0-1.4-0.1-2.8-0.2-4.3l0-0.4l-0.2-0.3c-0.3-0.3-0.4-0.7-0.5-1.2
		c-0.1-0.5-0.1-1.1,0-1.7c0.1-1.2,0.3-2.5,0.5-3.8l0-0.3l-0.1-0.2c-0.8-2-1.4-4.2-2-6.3c0-0.2-0.1-0.3-0.1-0.5
		c0.8-0.5,3.6-2.3,5.6-4.7c-0.4,1.6-0.7,3.3-1,4.9c-0.2,1.2-0.4,2.3-0.6,3.5c-0.1,1.2-0.3,2.3-0.3,3.6v0.2l0.1,0.3
		c0.4,0.8,0.4,2,0.3,3.1c0,0.6-0.1,1.1-0.3,1.7c-0.1,0.6-0.3,1.2-0.5,1.7L87,99.3l0,0.2c-0.1,1.2-0.1,2.4-0.2,3.6l-0.1,3.6l0,3.6
		c0,1.2,0,2.4,0.1,3.7l0,0.2l0.1,0.1c0.4,1,0.9,2,1.2,3c0.2,0.5,0.3,1,0.4,1.5c0,0.1,0,0.2,0,0.3c0,0.1,0,0.1,0,0.1
		c0,0.1,0,0.1-0.1,0.2c0,0.1,0,0.2,0,0.3c0,0.2,0,0.2,0.1,0.3c0.1,0.1,0.1,0.2,0.2,0.3c0.1,0.2,0.2,0.3,0.3,0.4
		C89.4,121.2,89.8,121.6,90.3,122z"/>
	<path class="st2" d="M106.5,25.8c-1.3-0.5-2.8,0.1-3.6,0.5c-0.3,0.2-0.5,0.5-0.4,0.9c0.3,0.8,1,2.3,2.3,2.8
		c1.8,0.7,3.7,0.4,4.1-0.8C109.4,28.1,108.3,26.6,106.5,25.8z"/>
	<path class="st2" d="M95.3,24.9c-0.6-1,0.1-4.1,1.7-3.8c-0.7-2.6-2.3-9.8-5-10.8s-9.2-2.8-10.2-1.7s0.7,4.9,1,6s2,6.7,3.6,7.9
		c1.6,1.2,6.5,1.3,6.5,1.4C93.1,23.9,95.3,24.9,95.3,24.9z"/>
	<path class="st0" d="M93,17.7c-0.1-0.5-0.3-1-0.4-1.5c0-0.1,0-0.3,0-0.4c0-0.1-0.1-0.4-0.1-0.5c0-0.2-0.1-0.3-0.2-0.5
		c-0.1-0.2-0.1-0.3-0.2-0.5c-0.7-1.2-1.7-1.9-2.7-2.5c-1-0.6-2.1-1-3.3-1.3c0.9,0.8,1.8,1.5,2.6,2.2c0.8,0.7,1.6,1.5,2.1,2.3
		c0.1,0.1,0.1,0.2,0.2,0.3s0.1,0.2,0.1,0.3c0,0.1,0.1,0.2,0.1,0.3c0,0.2,0.1,0.3,0.1,0.5c0.1,0.3,0.2,0.5,0.2,0.7
		c-0.4-0.1-0.8-0.2-1-0.2c-0.3-0.1-0.5-0.3-0.8-0.4c-0.3-0.1-0.6-0.2-0.9-0.3c-0.3-0.1-0.7-0.2-1.2-0.2c0,0.5,0.2,0.9,0.5,1.2
		c0.3,0.3,0.6,0.6,1,0.8c0.4,0.2,0.9,0.2,1.3,0.2c0.3,0,0.9-0.1,1.4-0.3c0,0.1,0.1,0.2,0.1,0.3c0.6,1.1,1.4,2,2.4,2.7
		C93.8,19.8,93.3,18.8,93,17.7z"/>
	<path class="st2" d="M48.5,76.3c-0.9,2.1-2.6,3.7-4.4,5.2c-2,1.6-4.2,3-6.4,4.2c-1.1,0.6-2.3,1.2-3.4,1.5c-0.3,0.1-0.3,0.1-0.9,0.2
		c-0.4,0.1-0.9,0.2-1.3,0.5c-0.3,0.2-0.5,0.3-0.7,0.6c-1.4,0.1-2.7,0-3.2-0.2c0.2-0.4,0.5-0.8,0.7-1.2c0.7-1.4,1.3-2.8,1.7-4.2
		c1.4-0.9,2.8-1.9,4.2-2.9c0.7-0.5,1.5-1.1,2.2-1.7c0.3-0.3,0.7-0.6,1-1c0.2-0.2,0.3-0.3,0.5-0.5c0.1-0.1,0.2-0.2,0.2-0.3l0.2-0.2
		c0.5-0.6,1.2-1.2,1.8-1.8c0.7-0.6,1.3-1.3,1.9-2c0.2-0.2,0.3-0.4,0.5-0.7c0.3,0.4,0.6,0.7,1,1.1c0.2,0.3,0.5,0.5,0.7,0.8l0.8,0.7
		c0.5,0.4,1.1,0.9,1.6,1.3C47.7,75.8,48.1,76,48.5,76.3z"/>
	<path class="st2" d="M89.9,77c-0.1,0.3-0.2,0.7-0.3,1c-0.2,0.7-0.3,1.3-0.5,2c-2,2.4-4.8,4.2-5.6,4.7c-0.3-1.4-0.7-2.8-1-4.1
		c0,0,0,0,0-0.1c1.9-0.4,3.7-1.2,5.5-2.3C88.7,78,89.4,77.5,89.9,77z"/>
	<path class="st0" d="M106.7,26.5c-1.3-0.5-2.9,0.6-2.9,0.6s0.5,1.9,1.8,2.4c1.3,0.5,2.6,0.3,2.9-0.6C108.8,28.1,108,27,106.7,26.5z
		"/>
	<path class="st2" d="M115.1,36.1c-1.6-0.1-3.1-0.5-4.4-0.3s-6.5,0.3-7.4,0.5c-0.9,0.2-1.1,0.6-0.2,1s8.1,1.5,9.7,1.7
		s3.8,0.1,4.2-0.4c0.4-0.5,1.3-2.5,1.3-2.5L115.1,36.1z"/>
	<path class="st0" d="M120.4,32c-0.1-0.1-0.2-0.2-0.3-0.2l-0.2-0.2c-0.3-0.3-0.6-0.5-0.9-0.8c-0.6-0.5-1.3-0.9-2-1.3
		c-0.3-0.2-0.8-0.4-1.1-0.5c-0.3-0.2-0.6-0.3-0.9-0.5c-0.6-0.4-1.2-0.9-1.9-1.3c-1.2-1-2.4-2-3.4-3.2c-0.5-0.6-1-1.2-1.5-1.8
		c-0.3-0.3-0.5-0.6-0.8-0.9c-0.3-0.2-0.6-0.5-0.9-0.7c0-0.6,0-1.2,0.1-1.8l0.1-2.2l0.3-4.4c0.1-1.5,0.2-2.9,0.3-4.4
		c0.1-1.5,0.3-2.9,0.5-4.3l0.3-2.1l-1.3,1.5c-1.2,1.3-1.5,2.9-2,4.4l-0.6,2.2c-0.2,0.8-0.4,1.5-0.6,2.3c-0.4,1.5-0.5,3.1-0.3,4.7
		c0.1,1,0.3,2.1,0.5,3.1c-0.3-0.1-0.7-0.2-1-0.2c0-0.5-0.1-1-0.2-1.5c-0.1-0.4-0.2-0.7-0.3-1.1c-0.1-0.4-0.1-0.7-0.2-1.1
		c-0.2-1.5-0.4-3.1-0.6-4.6c-0.2-1.5-0.4-3.1-0.5-4.6c-0.1-1.6-0.2-3.1-0.3-4.7l0-1.5l-0.8,1.2c-0.5,0.7-0.8,1.5-1,2.3
		c-0.2,0.8-0.3,1.6-0.5,2.4c-0.1,0.7-0.2,1.4-0.3,2.1c-0.3-0.8-0.9-1.6-1.4-2.3c-0.9-1-2.1-1.8-3.3-2.4c-0.6-0.3-1.3-0.5-2.1-0.7
		c-0.2,0-0.4-0.1-0.7,0c-0.1,0-0.2,0-0.3,0c-0.1,0-0.1,0-0.2,0c-0.1,0-0.2,0.1-0.2,0.1l-0.1,0.1l0,0l-0.1,0.1L89.5,3
		c-0.4,0.4-0.6,0.9-0.7,1.3c-0.2,0.8-0.1,1.5,0,2.2c0.1,0.4,0.2,0.9,0.4,1.3c-1.3-0.4-2.5-0.6-3.8-0.7c-0.6,0-1.1,0-1.7,0
		c-0.6,0.1-1.1,0.1-1.9,0.4c-0.1,0-0.2,0.1-0.3,0.2c-0.1,0.1-0.3,0.3-0.3,0.3C81,8.2,81,8.4,80.9,8.6c-0.1,0.4-0.2,0.7-0.1,1
		c0,0.6,0.2,1.2,0.4,1.7c0.4,1,0.9,2,1.2,3c0.4,1,0.6,2,0.9,3c0.3,1,0.5,2.1,0.8,3.1c0.2,0.5,0.4,1.1,0.7,1.6
		c0.3,0.5,0.8,1.1,1.3,1.5c1.2,0.8,2.5,0.8,3.5,0.8c1.1,0,2.1-0.1,3,0.1c0.1,0,0.2,0,0.3,0.1c0.1,0,0.2,0,0.3,0.1
		c0.2,0.1,0.4,0.2,0.6,0.3c0.1,0,0.1,0.1,0.2,0.1l0,0c-0.1,0.2-0.1,0.5-0.2,0.7l-0.3,1.4c-0.2,1-0.4,1.9-0.5,2.9
		c-0.3,1.9-0.5,3.8-0.8,5.7c-0.1,0.5-0.1,1-0.2,1.4c-0.1,0.4-0.2,0.9-0.3,1.3c-0.2,0.8-0.6,1.7-1,2.4c-0.9,1.5-2.2,2.6-3.7,3.2
		c-0.2,0.1-0.4,0.1-0.6,0.2c-0.2,0-0.4,0.1-0.6,0.1c-0.4,0.1-0.8,0.1-1.3,0.1c-0.9,0.1-1.9,0.1-2.8,0.2c-1.9,0.1-3.8,0.1-5.8,0.1
		l-2.9,0L70,44.7c-1.9-0.1-3.8,0-5.7-0.2c-1.9-0.2-3.8-0.4-5.7-0.7c-1.9-0.3-3.8-0.5-5.6-0.8c-1.9-0.3-3.7-0.7-5.5-1.2
		c-1.9-0.5-3.7-1-5.7-1.4c-1.9-0.3-3.9-0.6-6-0.4c-2.1,0.2-4,0.9-5.8,1.6c-1.8,0.7-3.6,1.5-5.3,2.4c-0.9,0.4-1.7,0.9-2.5,1.4
		c-0.7,0.4-1.4,0.9-2,1.5c-0.9,0.3-1.7,1-2.3,1.7c-0.6,0.7-1.1,1.6-1.5,2.4c-0.4,0.9-0.4,1.9-0.5,2.8c-0.1,0.9-0.1,1.9-0.4,2.7
		c-0.3,0.8-1,1.4-1.6,2c-0.3,0.3-0.6,0.6-0.9,1.1c-0.1,0.3-0.3,0.6-0.4,1.2c0,0.1,0,0.3,0,0.4c0,0.1,0,0.1,0,0.2
		c0,0.1,0.1,0.2,0.1,0.3c0.2,0.4,0.5,0.6,0.7,0.7c0.5,0.2,0.8,0.3,1.1,0.3c0.3,0,0.6,0,0.9,0c0.5-0.1,1-0.2,1.5-0.5
		c0.5-0.2,0.9-0.5,1.3-0.9c0,0,0.1-0.1,0.1-0.1c0,0.4,0.1,0.8,0.2,1.2c0.2,1.4,0.7,2.9,1.2,4.2c0.5,1.2,0.4,2.5,0.2,3.7
		c-0.6,2.5-2,4.9-3.6,7.1c-1.6,2.2-3.5,4.2-5.5,6.1l-0.1,0.1l0,0.1c-0.8,1.1-1.3,2.4-1.4,3.8c-0.1,0.7,0,1.4,0.2,2.1
		c0.2,0.6,0.4,1.1,0.7,1.6l-0.6,8.6l-0.3,4.5l-0.4,4.5c-0.2,1.5-0.3,3-0.6,4.5c-0.1,0.7-0.2,1.5-0.4,2.2c0,0.2-0.1,0.4-0.1,0.5
		c0,0.1,0,0.1-0.1,0.2l-0.2,0.3c-0.2,0.4-0.3,0.7-0.4,1.1c-0.2,0.8-0.2,1.7,0.2,2.5c0.3,0.7,0.6,1.4,0.8,2.1c0.5,1.4,1,2.8,1.5,4.2
		l0.1,0.4l0.4,0l4.9,0.2l1.4,0l-0.9-1.2c-1-1.4-1.9-3-2.7-4.5c-0.4-0.8-0.7-1.6-0.8-2.3c0-0.2,0-0.3,0-0.5c0-0.2,0-0.4,0-0.6
		c0-0.4,0.1-0.9,0.1-1.3c0.5-3.5,1-7.1,1.6-10.6c0.6-3.5,1.2-7.1,1.7-10.6l0.4-2.7l0-0.4l0-0.2l0-0.1c0-0.2,0.1-0.3,0.1-0.4
		c0.1-0.3,0.2-0.5,0.4-0.7c0.4-0.5,1-0.8,1.8-1.2c0.4-0.2,0.8-0.3,1.2-0.4l0.3-0.1l0.4-0.1c0.2-0.1,0.5-0.2,0.7-0.3
		c1.7-0.8,3.2-1.7,4.8-2.6c1.4-0.8,2.8-1.7,4.2-2.6c-0.6,1.2-1.2,2.3-1.9,3.3c-0.5,0.8-1.1,1.5-1.7,2.1c-0.2,0.2-0.3,0.3-0.5,0.4
		c-0.2,0.1-0.5,0.3-0.6,0.5c-0.4,0.4-0.7,1.1-0.8,1.7c-0.1,1.3,0.4,2.3,0.9,3.2c0.3,0.5,0.6,0.9,0.9,1.3l0.3,0.3
		c0.1,0.1,0.1,0.1,0.1,0.2c0.1,0.2,0.2,0.4,0.3,0.6c0.9,1.6,1.8,3.3,2.7,5c1.8,3.4,3.6,6.7,5.6,9.9c1,1.6,1.9,3.3,2.8,4.9
		c0.4,0.8,0.8,1.8,1.4,2.6c0.6,0.8,1.4,1.4,2.3,1.8c0.4,0.4,0.7,0.8,1.1,1.2c0.2,0.2,0.3,0.4,0.5,0.7c0.1,0.2,0.3,0.5,0.4,0.7
		l0.1,0.2l0.2,0c2,0,4,0,5.9,0.1l1.2,0l-0.9-0.8c-1.9-1.8-3.8-3.6-5.7-5.4l-0.3-0.3c-0.1-0.1-0.2-0.2-0.2-0.2
		c-0.1-0.2-0.3-0.5-0.4-0.8c-0.3-0.6-0.6-1.1-1-1.7c-0.2-0.3-0.4-0.6-0.6-0.9c-0.1-0.2-0.3-0.3-0.5-0.5c0.1,0.1,0,0-0.1-0.1
		c-0.3-0.5-0.6-1.1-0.9-1.7c-2.4-4.6-4.6-9.3-6.7-14.1c-0.3-0.6-0.5-1.2-0.7-1.8c-0.2-0.6-0.5-1.2-0.6-1.7c0-0.1,0-0.1-0.1-0.3
		l0-0.4c0-0.3,0-0.6,0-0.9c0-0.6,0.1-1.1,0.3-1.6c0.2-0.5,0.4-0.8,0.7-1c0.1-0.1,0.3-0.2,0.5-0.2l0.5-0.1c0.2,0,0.4-0.1,0.6-0.2
		c1.4-0.5,2.5-1.2,3.7-1.9c2.3-1.4,4.4-3.1,6.3-5c0.9-0.9,1.8-2,2.6-3.1c0.6-0.9,1-1.8,1.3-2.8c0.1,0.1,0.2,0.1,0.2,0.2
		c2.4,1.4,5,2.6,7.7,3.3c2.7,0.7,5.5,1.2,8.2,1.3c2.6,0.1,5.1,0,7.7-0.5c0,0.1,0,0.3,0.1,0.5c0.2,1.3,0.4,2.5,0.7,3.7
		c0.3,1.2,0.6,2.5,0.9,3.7c0.3,1.1,0.7,2.3,1.1,3.4c-0.2,1.2-0.4,2.4-0.5,3.7c-0.1,0.7-0.1,1.4,0.1,2.2c0.1,0.7,0.4,1.4,0.9,2
		c0.4,3.1,0.9,6.2,1.3,9.3c0.2,1.6,0.4,3.2,0.5,4.8c0.1,0.8,0.1,1.6,0.2,2.4c0,0.8,0.1,1.6,0,2.3l0,0c-0.3,0.9-0.1,1.8,0.2,2.7
		c0.2,0.4,0.4,0.8,0.6,1.2c0.1,0.2,0.3,0.4,0.5,0.5c0.1,0.1,0.1,0.1,0.2,0.2c0.1,0.1,0.1,0.1,0.2,0.2c0.5,0.6,0.9,1.3,1.3,2
		c0.4,0.7,0.8,1.4,1.2,2.1l0.2,0.3l0.4,0l4.6,0.2l2,0.1l-1.5-1.4c-0.8-0.7-1.6-1.5-2.4-2.3c-0.8-0.8-1.6-1.6-2.2-2.3
		c0,0-0.1-0.1-0.1-0.1c0,0,0-0.1,0-0.1c0-0.1,0-0.3,0-0.4c0-0.2,0-0.4,0-0.5c-0.1-0.7-0.2-1.2-0.4-1.8c-0.3-1.1-0.7-2.1-1.1-3.1
		l-0.3-8.2c-0.1-2.7-0.2-5.4-0.3-8.1c0.2-0.6,0.3-1.1,0.5-1.7c0.1-0.7,0.2-1.3,0.3-2c0.1-1.3,0.1-2.7-0.5-4.1c0-1,0.1-2.1,0.2-3.2
		c0.1-1.1,0.2-2.3,0.4-3.5c0.1-0.6,0.2-1.3,0.3-1.9c0.1,0.7,0.2,1.4,0.3,2.1c0.2,1.1,0.3,2.3,0.6,3.4c0.2,1,0.5,2.1,0.8,3.1
		c-0.2,1.2-0.5,2.4-0.7,3.7c-0.1,0.7-0.1,1.4,0,2.2c0.1,0.6,0.3,1.4,0.8,2l0.2,3.9c0.1,1.4,0.1,2.8,0.2,4.2l0.3,4.2l0.1,2.1
		c0,0.7,0.1,1.4,0,2l0-0.1c-0.2,1,0,1.9,0.3,2.7c0.2,0.4,0.4,0.8,0.7,1.1c0.1,0.2,0.3,0.3,0.5,0.5c0.1,0.1,0.1,0.1,0.2,0.2l0.2,0.2
		c0.5,0.6,0.9,1.2,1.3,1.8c0,0,0.2,0.3,0.3,0.4c0.4,0.6,0.8,1.2,1.2,1.8l0.1,0.2l0.2,0c0.8,0,1.5,0,2.3,0c0.8,0,1.5,0,2.3,0.1
		l1.3,0.1l-1-0.9c-0.8-0.7-1.6-1.5-2.4-2.3c-0.8-0.8-1.5-1.6-2.1-2.4c0-0.1-0.1-0.1-0.1-0.2c0.1-0.2,0.1-0.3,0.1-0.5
		c0-0.2,0-0.4,0-0.5c-0.1-0.6-0.2-1.2-0.3-1.8c-0.3-1-0.6-2.1-1-3.1c0-1.1,0-2.2,0-3.4l0.2-3.6l0.5-7c0.2-0.6,0.4-1.2,0.5-1.8
		c0.1-0.7,0.3-1.3,0.3-2c0.1-0.7,0.1-1.4,0-2.1c-0.1-0.6-0.2-1.3-0.5-1.9c0-1,0.1-2.1,0.2-3.1c0.1-1.1,0.2-2.3,0.4-3.4
		c0.3-2.3,0.6-4.6,1-6.9c0.2-1.5,0.5-2.9,0.8-4.4c0.1-0.3,0.2-0.5,0.3-0.8c0.8-2,1.3-4,2-6c0.7-2,1.6-3.9,2.6-5.7
		c1-1.8,2.1-3.6,3-5.5c1-1.9,1.9-3.8,2.7-5.8c0.4-1,0.7-2,1-3.1c0.1-0.6,0.2-1.1,0.2-1.8l0-0.4c0-0.1,0-0.2,0-0.3
		c0-0.2,0-0.5,0.1-0.7c0.2-1.7,0.7-3.5,1.2-5.3c0.3,0.1,0.6,0.2,1,0.3c0.7,0.2,1.4,0.4,2.2,0.6c0.8,0.2,1.5,0.2,2.3,0.3
		c1.5,0.1,3,0,4.5-0.2c0.2,0,0.3,0,0.6-0.1c0.2,0,0.5-0.1,0.7-0.2c0.4-0.2,0.7-0.6,0.9-1c0.2-0.5,0.4-1.1,0.6-1.6c0.3,0,0.6,0,0.9,0
		c0.2,0,0.4,0,0.8-0.1c0.1,0,0.2-0.1,0.3-0.2c0.1-0.1,0.2-0.2,0.3-0.3c0.1-0.1,0.2-0.3,0.2-0.4c0.2-0.5,0.3-0.9,0.4-1.3l0.1-0.3
		l0-0.2c0-0.1,0-0.1,0-0.2c0-0.3,0-0.6-0.1-0.9C120.8,32.5,120.6,32.3,120.4,32z M15.1,60.6C15.1,60.6,15.1,60.6,15.1,60.6
		c0,0.1,0,0.1,0,0.1C15,60.8,15,60.7,15.1,60.6z M104.6,16.1c0-0.7,0-1.5,0-2.2l0-2.3c0-1.5,0.1-3,0.6-4.5c0.2-0.6,0.4-1.1,0.7-1.7
		c-0.1,0.6-0.2,1.3-0.3,1.9c-0.2,1.5-0.3,3-0.3,4.5c0,1.5,0.1,3,0.2,4.5c0.1,1.3,0.3,2.5,0.6,3.8c-0.5-0.3-1-0.5-1.6-0.7
		C104.6,18.4,104.6,17.2,104.6,16.1z M99,5.9c0.1-0.8,0.3-1.7,0.6-2.5c-0.1,0.9-0.1,1.8-0.1,2.8c0,1.6,0.1,3.2,0.3,4.8
		c0.2,1.6,0.5,3.2,0.9,4.7c0.1,0.4,0.2,0.8,0.4,1.2c0.1,0.4,0.3,0.9,0.5,1.1c0.2,0.3,0.4,0.7,0.5,1c-0.2,0-0.4,0-0.5,0
		c-0.4,0-0.8,0-1.3,0c0-1.3-0.2-2.5-0.4-3.8c-0.3-1.5-0.5-3-0.8-4.6C98.9,9,98.8,7.5,99,5.9z M91,4.7L91,4.7L91,4.7L91,4.7L91,4.7
		C91,4.7,91,4.7,91,4.7C91,4.7,91,4.7,91,4.7z M90.1,6.6C90.3,6,90.4,5.4,90.7,5c0-0.1,0.1-0.1,0.1-0.2c0,0,0.1,0,0.1,0
		c0.4,0.1,1,0.3,1.5,0.6c1.1,0.5,2.1,1,3.1,1.6c0.9,0.5,1.7,1.1,2.5,1.9C98,9.5,98,10.1,98,10.6c0,1.6,0.2,3.3,0.7,4.8
		c0.3,1.2,0.7,2.4,1.2,3.5c-0.8,0.1-1.7,0.2-2.5,0.4c0-0.1,0-0.2,0-0.3c0-0.6-0.2-1.1-0.3-1.6c-0.2-1.1-0.6-2.1-1-3.2
		c-0.4-1-0.9-2-1.6-3c-0.1-0.2-0.3-0.5-0.5-0.7c-0.2-0.2-0.4-0.5-0.7-0.7c-0.5-0.4-1-0.8-1.5-1.1c-0.7-0.4-1.5-0.7-2.2-0.9
		C89.8,7.5,89.9,7,90.1,6.6z M12.2,123.2c0.4,0.7,0.9,1.4,1.4,2.1l-3.1,0.1c-0.2-0.6-0.5-1.1-0.7-1.7
		C10.6,123.5,11.6,123.3,12.2,123.2z M48.9,123c-1.5,0-3,0.1-4.4,0.1c-0.1-0.2-0.2-0.4-0.3-0.6c-0.1-0.3-0.3-0.5-0.5-0.7
		c0.9-0.2,2.2-0.5,2.9-0.6L48.9,123z M44.1,81.5c-2,1.6-4.2,3-6.4,4.2c-1.1,0.6-2.3,1.2-3.4,1.5c-0.3,0.1-0.3,0.1-0.9,0.2
		c-0.4,0.1-0.9,0.2-1.3,0.5c-0.8,0.5-1.4,1.3-1.7,2.1c-0.3,0.8-0.4,1.5-0.5,2.3c0,0.4,0,0.7,0,1.1l0,0.5c0,0.1,0.1,0.5,0.1,0.7
		c0.4,1.5,0.9,2.7,1.4,3.9c1,2.4,2.2,4.8,3.4,7.1c1.2,2.3,2.4,4.7,3.8,6.9c0.3,0.6,0.7,1.1,1.1,1.7c0.1,0.1,0.2,0.3,0.6,0.6
		c0,0,0.1,0.1,0.2,0.2c0.2,0.2,0.4,0.4,0.5,0.7c0.4,0.5,0.7,1.1,1.1,1.6c0.2,0.3,0.4,0.5,0.6,0.9c0.2,0.2,0.3,0.3,0.5,0.5l0.4,0.3
		l2,1.6c-0.9,0.2-2.1,0.4-2.6,0.6c-0.2-0.2-0.4-0.4-0.6-0.6l0,0l-0.1,0c-0.8-0.3-1.5-0.9-2-1.7c-0.5-0.7-0.8-1.6-1.1-2.5
		c-0.8-1.8-1.6-3.5-2.4-5.2c-1.6-3.5-3.4-6.8-5.3-10.2c-0.9-1.7-1.9-3.3-3-4.9c-0.1-0.2-0.3-0.4-0.4-0.6c0-0.1-0.2-0.3-0.3-0.4
		l-0.2-0.2c-0.3-0.3-0.6-0.7-0.8-1c-0.5-0.7-0.9-1.5-0.8-2.2c0-0.3,0.1-0.6,0.3-0.9c0.1-0.2,0.2-0.2,0.4-0.4
		c0.2-0.2,0.4-0.4,0.6-0.6c0.7-0.8,1.2-1.6,1.7-2.5c0.7-1.4,1.3-2.8,1.7-4.2c1.4-0.9,2.8-1.9,4.2-2.9c0.7-0.5,1.5-1.1,2.2-1.7
		c0.4-0.3,0.7-0.6,1-0.9c0.2-0.2,0.3-0.4,0.5-0.5c0.1-0.1,0.2-0.2,0.2-0.3l0.2-0.2c0.5-0.6,1.2-1.2,1.8-1.8c0.7-0.6,1.3-1.3,1.9-2
		c0.2-0.2,0.3-0.4,0.5-0.7c0.3,0.4,0.6,0.7,1,1.1c0.2,0.3,0.5,0.5,0.7,0.8l0.8,0.7c0.5,0.4,1.1,0.9,1.6,1.3c0.4,0.3,0.8,0.5,1.2,0.8
		C47.6,78.4,45.9,80,44.1,81.5z M65.2,79.4c-2.6-0.5-5.2-1-7.8-1.8c-2.6-0.7-5-1.6-7.5-2.7c-2.3-1-4.4-2.2-6.6-3.5
		c0.9-1.2,1.6-2.6,2-4c0.2-0.5,0.3-1,0.4-1.4c1.5,1.4,3.2,2.5,5,3.6c1.9,1.2,4,2.2,6.1,2.9c2.2,0.7,4.4,1.2,6.6,1.5
		c1.9,0.2,3.9,0.4,5.8,0.3c0.1,0.2,0.3,0.5,0.4,0.7c0.7,1,1.6,1.9,2.6,2.7c0.1,0.9,0.2,1.9,0.4,2.8C70.1,80.2,67.7,79.8,65.2,79.4z
		 M83.5,124.9c0.2,0.2,0.5,0.4,0.7,0.6c0.3,0.3,0.7,0.6,1,0.9l-2.3,0.1c-0.3-0.4-0.6-0.8-0.9-1.2C82.6,125.2,83.1,125.1,83.5,124.9z
		 M83.1,121.7C83.1,121.7,83.1,121.7,83.1,121.7C83.1,121.7,83.1,121.7,83.1,121.7z M83,122.3C83.1,122.2,83.1,122.2,83,122.3
		C83.1,122.2,83.1,122.2,83,122.3C83.1,122.3,83,122.3,83,122.3L83,122.3z M91.5,123.1c0.5,0.5,1.1,0.9,1.6,1.3c-0.3,0-0.7,0-1,0
		c-0.7,0-1.4,0-2.1,0c-0.3-0.5-0.6-0.9-0.9-1.4c0.6-0.2,1.4-0.4,1.9-0.5C91.1,122.7,91.3,122.9,91.5,123.1z M90,119.8
		C90,119.8,90,119.8,90,119.8L90,119.8C90,119.9,90,119.8,90,119.8z M89.7,78.1c-0.5,2.3-1,4.6-1.4,6.9c-0.2,1.2-0.4,2.3-0.6,3.5
		c-0.1,1.2-0.3,2.3-0.3,3.7l0,0.2l0.1,0.3c0.4,0.8,0.4,2,0.3,3.1c-0.1,0.6-0.1,1.1-0.3,1.7c-0.1,0.6-0.3,1.2-0.5,1.7L87,99.3l0,0.2
		c-0.1,1.2-0.1,2.4-0.2,3.6l-0.1,3.6l-0.1,3.6c0,1.2,0,2.4,0.1,3.7l0,0.2l0.1,0.1c0.4,1,0.9,2,1.2,3c0.2,0.5,0.3,1,0.4,1.5
		c0,0.1,0,0.2,0,0.3c0,0.1,0,0.2,0,0l0,0l0,0.1c0,0.1-0.1,0.1-0.1,0.2c0,0.1,0,0.2,0,0.3c0,0.2,0,0.2,0.1,0.3
		c0.1,0.1,0.1,0.2,0.2,0.3c0.1,0.2,0.2,0.3,0.3,0.4c0.4,0.5,0.8,0.9,1.2,1.3c-0.5,0.1-1.2,0.3-1.6,0.4c-0.4-0.6-0.8-1.2-1.3-1.8
		l-0.2-0.2c-0.1-0.1-0.2-0.2-0.3-0.2c-0.1-0.1-0.2-0.2-0.4-0.4c-0.2-0.3-0.4-0.6-0.5-1c-0.3-0.7-0.4-1.5-0.1-2.1l0,0l0,0
		c0.1-0.8,0.1-1.5,0.2-2.2l0.1-2.1c0.1-1.4,0.1-2.8,0.1-4.2c0-1.4,0-2.8,0-4.2c0-1.4-0.1-2.8-0.2-4.3l0-0.4l-0.2-0.3
		c-0.3-0.3-0.4-0.7-0.5-1.2c-0.1-0.5-0.1-1.1,0-1.7c0.1-1.2,0.3-2.5,0.5-3.8l0-0.3l-0.1-0.2c-0.8-2-1.4-4.2-2-6.3
		c-0.4-1.5-0.7-3.1-1.1-4.6c0,0,0,0,0,0c1.9-0.4,3.8-1.2,5.5-2.3c0.6-0.4,1.2-0.8,1.8-1.3C89.8,77.4,89.7,77.7,89.7,78.1z
		 M94.3,65.9c-0.4,0.7-0.8,1.4-1.1,2.2c0,0.1,0,0.1-0.1,0.2c-0.8,1.4-1.7,2.8-2.4,4.2c-0.5,1-0.8,1.7-1.4,2.4
		c-0.6,0.7-1.3,1.4-2.1,2c-1.4,1.1-2.8,2.1-4.4,3.1c0.1-0.6,0.2-1.1,0.3-1.7c0.3-1.9,0.7-3.8,1.2-5.6c0.5-0.1,1.1-0.4,1.6-0.6
		c0.8-0.3,1.5-0.7,2.2-1.2c1.4-0.9,2.8-1.9,4-3.1c1.2-1.2,2.2-2.6,3.1-4c0.2-0.3,0.3-0.5,0.4-0.8C95.1,64,94.7,65,94.3,65.9z
		 M119.1,35.1C119.1,35.1,119.1,35.1,119.1,35.1c-0.1,0.1-0.2,0.1-0.3,0.1c-0.4,0.1-0.7,0.1-1.1,0.1c-1.5,0.1-3.1,0.3-4.7,0.5
		c0,0-0.1,0-0.1,0.1c0,0,0,0.1,0.1,0.1c1.6,0.3,3.1,0.5,4.7,0.6c0,0,0.1,0,0.1,0c-0.3,0.4-0.7,0.8-1,1.2c-0.2,0.2-0.4,0.4-0.7,0.5
		c-0.3,0.1-0.5,0.1-0.9,0l-4.4-0.2c-0.7,0-1.4-0.1-2.1-0.2c-0.7-0.1-1.5-0.2-2.2-0.3c-0.3,0-0.6-0.1-0.9-0.1l-5.1-1.4l-1.4-0.4
		l-0.2-0.1c0-0.1,0-0.3,0-0.5c0-0.5-0.2-0.9-0.4-1.4c-0.2-0.4-0.5-0.9-1-1.2c0,0,0,0,0,0c0,0-0.1,0-0.1,0.1
		c-0.2,0.5-0.3,1.1-0.3,1.5c0,0.5,0.1,1,0.3,1.4l0.4,0.7l0.1,0.1c0,0,0,0,0.1,0.1c0.1,0.1,0.2,0.2,0.2,0.1c0.1,0,0.1,0,0.2,0.1
		l0.2,0l0.4,0.1l1.4,0.2l2.6,0.3c0.6,0.4,1.3,0.7,2,0.9c-0.4,0.7-0.9,1.3-1.2,2.1c-0.5,1-0.9,1.9-1.3,3c-0.1,0.3-0.2,0.6-0.2,0.8
		c0,0.1-0.1,0.3-0.1,0.4l-0.1,0.4c-0.1,0.4-0.2,0.8-0.4,1.3c-0.3,0.9-0.7,1.9-1.1,2.8l-2.3,5.8c-0.4,1-0.8,1.9-1.1,2.9
		c-0.1,0.3-0.2,0.7-0.3,1c0,0,0,0,0,0c-0.9,1.4-1.7,2.8-2.8,4c-0.5,0.6-1,1.3-1.5,1.8l-0.8,0.9l-0.8,0.8c-1.1,1.1-2.3,2.2-3.6,3.2
		c-0.6,0.5-1.3,1-1.9,1.5c-0.4,0.3-0.7,0.6-1.1,0.8c0.1-0.2,0.1-0.5,0.2-0.7c0.6-2.2,1.3-4.5,2.1-6.7l0,0c0-0.1,0-0.1-0.1-0.1
		c-0.1,0-0.1,0-0.2,0c-0.6,1.1-1,2.1-1.5,3.2c-0.5,1.1-0.9,2.2-1.4,3.3c-0.8,2.2-1.5,4.5-2.1,6.8c-0.6,2.3-1,4.6-1.5,6.9
		c-0.2,1.2-0.4,2.3-0.5,3.5c-0.2,1.2-0.3,2.3-0.3,3.7l0,0.2l0.1,0.3c0.4,0.8,0.4,2,0.3,3.1c-0.1,0.6-0.2,1.1-0.3,1.7
		c-0.1,0.6-0.3,1.2-0.5,1.7l-0.1,0.3l0,0.2c0.1,2.8,0.3,5.6,0.4,8.4l0.5,8.4l0,0.2l0.1,0.2c0.4,1,0.8,2,1.1,3c0.2,0.5,0.3,1,0.4,1.5
		c0,0.1,0,0.2,0,0.3c0,0.1,0,0.1,0,0.1c0,0,0-0.1,0.1-0.1l0,0l0,0.1c0,0.1-0.1,0.1-0.1,0.2c0,0.1,0,0.3,0,0.4c0,0.1,0.1,0.3,0.1,0.4
		c0.1,0.2,0.1,0.3,0.2,0.4c0.1,0.2,0.2,0.3,0.3,0.4c0.4,0.4,0.7,0.8,1.1,1.2c-0.4,0.1-0.9,0.2-1.2,0.3c-0.4-0.6-0.9-1.2-1.4-1.8
		l-0.2-0.2c-0.1-0.1-0.2-0.2-0.3-0.2c-0.1-0.1-0.2-0.2-0.4-0.4c-0.2-0.3-0.4-0.6-0.6-1c-0.3-0.7-0.4-1.5-0.3-2.1l0,0l0,0
		c0.1-0.9,0-1.7-0.1-2.5l-0.2-2.4l-0.3-4.8l-0.6-9.7l0-0.2L77.3,99c-0.3-0.3-0.4-0.8-0.5-1.3c-0.1-0.5,0-1.1,0.1-1.7
		c0.1-1.2,0.5-2.5,0.7-3.8l0-0.3l-0.1-0.3c-0.4-1.1-0.8-2.3-1.1-3.5c-0.3-1.2-0.7-2.4-0.9-3.6c-0.6-2.4-1.1-4.9-1.5-7.3l-0.1-0.4
		l-0.4-0.2c-1-0.6-1.9-1.4-2.6-2.4c-0.7-1-1.3-2.1-1.8-3.2c-0.5-1.2-0.8-2.4-1.1-3.6c-0.1-0.6-0.2-1.3-0.3-1.9
		c-0.1-0.6-0.2-1.3-0.1-1.9l0-0.1c0-0.1,0-0.1-0.1-0.1c-0.1,0-0.1,0-0.1,0.1c-0.3,1.4-0.2,2.7-0.1,4c0.1,1.3,0.3,2.6,0.7,3.9
		c0.3,0.9,0.6,1.8,1.1,2.7l-5.4-1.2c-1.1-0.3-2.2-0.5-3.2-0.8c-1.1-0.3-2.1-0.6-3.1-0.9c-2.1-0.7-4.1-1.6-6.1-2.5
		c-1.8-0.9-3.7-1.8-5.5-2.7c0.7-3,0.7-6.2,0.3-9.2c0-0.1-0.1-0.1-0.1-0.1c-0.1,0-0.1,0.1-0.1,0.1c0.2,3.6,0,7.2-1.3,10.5
		c-0.6,1.6-1.6,3.1-2.7,4.4c-0.6,0.7-1.2,1.3-1.9,1.8c-0.7,0.6-1.4,1.1-2,1.9l-0.2,0.3c-0.1,0.1-0.1,0.1-0.2,0.2
		c-0.1,0.1-0.3,0.3-0.4,0.4c-0.3,0.3-0.7,0.5-1,0.8c-0.7,0.5-1.4,1-2.2,1.5c-1.5,0.9-3,1.9-4.6,2.8c-3.1,1.8-6.2,3.5-9.4,5
		c-0.2,0.1-0.4,0.2-0.6,0.2l-0.2,0.1l-0.3,0.1c-0.4,0.1-0.9,0.3-1.4,0.5c-0.9,0.4-1.9,0.9-2.7,1.8c-0.4,0.4-0.7,1-0.9,1.6
		c-0.1,0.3-0.2,0.6-0.2,0.9l-0.1,0.7l-0.4,2.6c-0.5,3.5-1,7.1-1.5,10.7c-0.5,3.6-1,7.1-1.3,10.7c0,0.5-0.1,0.9-0.1,1.4
		c0,0.2,0,0.5,0,0.7c0,0.3,0,0.6,0.1,0.8c0.2,1.1,0.6,1.9,1.1,2.8c0.1,0.2,0.2,0.4,0.4,0.6c-0.7,0.1-1.6,0.3-2.3,0.4
		c-0.2-0.4-0.4-0.9-0.6-1.3c-0.3-0.7-0.6-1.4-0.9-2.1c-0.3-0.6-0.3-1.3-0.2-1.9c0.1-0.3,0.2-0.7,0.4-1l0.1-0.2
		c0-0.1,0.1-0.3,0.1-0.3c0.1-0.2,0.1-0.4,0.1-0.6c0.2-0.8,0.3-1.5,0.4-2.2c0.2-1.5,0.4-3,0.6-4.5l2.5-17.8l0-0.3L12,90.3
		c-0.5-0.8-0.8-1.8-0.6-2.7c0.1-0.9,0.5-1.9,1.1-2.7c2.1-1.9,4-4,5.6-6.4c0.8-1.2,1.6-2.4,2.2-3.7c0.6-1.3,1.2-2.7,1.4-4.2
		c0.2-1.5,0.2-3.1-0.5-4.6c-0.6-1.3-1.1-2.5-1.5-3.8c-0.7-2.6-0.9-5.5-0.3-8.2l0,0c0-0.1,0-0.1-0.1-0.1c-0.1,0-0.1,0-0.2,0.1
		c-0.5,1.4-0.7,2.8-0.8,4.2c0,0.7,0,1.3,0,2c-0.2,0.1-0.5,0.2-0.7,0.2c-0.4,0.1-0.8,0.1-1.2,0.1c-0.4,0-0.8,0-1.1,0
		c-0.1,0-0.1,0-0.2,0c0.1-0.2,0.2-0.5,0.4-0.8c0.4-0.9,0.5-2,0.6-2.9c0.1-0.9,0.3-1.8,0.8-2.6c0.4-0.8,0.9-1.5,1.3-2.3
		c0.6-1.5,1.2-3,2-4.6c1.5-0.9,3.2-1.5,4.9-2.1c1.8-0.6,3.6-1.2,5.4-1.7c0.9-0.3,1.8-0.5,2.7-0.7c0.9-0.2,1.8-0.4,2.6-0.4
		c1.8,0,3.6,0.2,5.4,0.6c1.8,0.3,3.7,0.8,5.5,1.3c1.9,0.5,3.9,0.8,5.8,1c3.9,0.5,7.7,0.6,11.6,0.6c2,0,3.9-0.2,5.8-0.2
		c1,0,1.9,0,2.9,0c1,0,1.9,0.1,2.9,0.1c1.9,0.1,3.8,0.3,5.7,0.5c1,0.1,1.9,0.2,2.9,0.2c0.5,0,1,0,1.5,0c0.5-0.1,1.1-0.2,1.6-0.3
		c2.1-0.6,3.9-2.2,4.9-4.1c0.5-0.9,0.9-1.9,1.1-3c0.1-0.5,0.2-1,0.2-1.6c0-0.5,0.1-1,0.1-1.5C94,34,94,32,94.1,30.1l0.1-2.9l0-1.4
		l0-0.5c0.2,0.2,0.4,0.3,0.6,0.5c0.4,0.3,0.7,0.7,1,1.1c0.2,0.2,0.3,0.4,0.5,0.6l0.2,0.3l0.1,0.2l0,0.1c0,0,0,0,0,0c0,0,0,0,0,0
		c0,0,0,0.1,0,0.2c0,0,0.1,0,0.2,0c0,0,0-0.1,0-0.1l0-0.1l0-0.1l0-0.2c0-0.1-0.1-0.3-0.1-0.4c-0.1-0.3-0.2-0.5-0.3-0.8
		c-0.2-0.5-0.5-1-0.8-1.5c-0.3-0.5-0.7-0.9-1.1-1.3c-0.2-0.2-0.5-0.4-0.8-0.6c-0.3-0.2-0.6-0.3-0.9-0.4c-1.2-0.3-2.3-0.3-3.3-0.4
		c-1-0.1-1.9-0.2-2.6-0.5c-0.3-0.2-0.6-0.4-0.9-0.7c-0.3-0.4-0.6-0.7-0.8-1.2c-0.5-0.9-1-1.8-1.3-2.8c-0.4-1-0.7-2-1-3
		c-0.4-1-0.7-2-0.9-3c-0.1-0.5-0.1-1,0-1.4c0-0.2,0.1-0.4,0.2-0.5c0-0.1,0.1-0.1,0.1-0.2c0,0-0.1,0.1,0,0.1c0,0,0,0,0,0
		c0.2,0,0.8-0.1,1.2,0c0.5,0,1,0.1,1.5,0.2c1.9,0.3,3.9,0.9,5.5,1.8c0.4,0.2,0.8,0.5,1.1,0.7c0.2,0.1,0.3,0.2,0.4,0.4
		c0.1,0.2,0.3,0.4,0.5,0.6c0.6,0.8,1.1,1.6,1.6,2.5c0.5,0.9,0.9,1.8,1.3,2.7c0.4,0.9,0.8,1.9,0.9,2.8l0,0.3l0.1,0.1
		c0.6,0.4,1.2,0.9,1.8,1.3c0,0,0.1,0,0.1,0c0.1,0,0.1-0.1,0-0.2c-0.4-0.5-0.8-1-1.1-1.5c0-0.3,0-0.7,0-1c1,0.1,1.9,0.1,2.8,0.3
		c0,0,0,0,0,0c0,0,0,0,0.1,0c1.9,0.3,3.7,0.7,5.3,1.5c0.3,0.1,0.6,0.3,1,0.5c0.3,0.2,0.6,0.4,0.9,0.6c0.6,0.5,1.2,1,1.8,1.6
		c1.1,1.1,2.1,2.3,3.2,3.5c0.5,0.6,1.1,1.2,1.7,1.7c0.3,0.3,0.6,0.5,1,0.8c0.4,0.2,0.7,0.4,1,0.6c0.6,0.4,1.2,0.9,1.8,1.4l0.9,0.7
		l0,0c-0.4,0.2-0.7,0.6-0.7,1C118.1,34.5,118.5,35,119.1,35.1C119.1,35.1,119.1,35.1,119.1,35.1z"/>
</g>
</svg>
