<?xml version="1.0" encoding="utf-8"?>
<!-- Generator: Adobe Illustrator 24.1.2, SVG Export Plug-In . SVG Version: 6.00 Build 0)  -->
<svg version="1.1" id="Layer_1" xmlns="http://www.w3.org/2000/svg" xmlns:xlink="http://www.w3.org/1999/xlink" x="0px" y="0px"
	 viewBox="0 0 128 128" style="enable-background:new 0 0 128 128;" xml:space="preserve">
<style type="text/css">
	.st0{fill:#563E2C;}
	.st1{fill:#6C543C;}
	.st2{fill:#2D2D2D;}
</style>
<g>
	<path class="st0" d="M18.94,87.93c0.13-0.54,0.24-1.09,0.35-1.64c-0.73,1.04-1.71,1.94-2.92,2.46c-1.39,0.62-2.97,0.78-4.47,0.58
		c-1.51-0.2-2.96-0.68-4.31-1.35c-0.68-0.34-1.33-0.72-1.96-1.17c-0.18-0.13-0.35-0.26-0.52-0.39c0.06,0.23,0.13,0.45,0.2,0.68
		c0.25,0.84,0.58,1.66,0.92,2.47c0.69,1.61,1.57,3.14,2.6,4.54c0.5,0.72,1.09,1.35,1.66,2c0.63,0.6,1.18,1.26,1.82,1.84
		c1.05,1.11,2.24,2.07,3.41,3.11c0.13-1.29,0.34-2.56,0.6-3.82c0.34-1.59,0.77-3.16,1.26-4.7C18.12,91,18.58,89.49,18.94,87.93z"/>
	<path class="st1" d="M2.13,72.82l0.07,1.01l0.14,1c0.1,0.66,0.18,1.34,0.29,2c0.51,2.62,1.3,5.18,2.43,7.59
		c0.36,0.48,0.83,0.95,1.35,1.37c0.54,0.43,1.12,0.82,1.72,1.17c1.21,0.69,2.54,1.22,3.91,1.48c1.37,0.25,2.8,0.26,4.12-0.22
		c1.29-0.44,2.38-1.36,3.24-2.46c0.16-0.84,0.31-1.69,0.43-2.54l0.33-2.38c0.12-0.8,0.16-1.58,0.36-2.41
		c0.01-0.05,0.06-0.08,0.11-0.07c0.05,0.01,0.08,0.06,0.07,0.1l0,0.03c-0.13,0.75-0.14,1.58-0.21,2.37c-0.05,0.8-0.12,1.61-0.2,2.41
		c-0.17,1.6-0.39,3.2-0.69,4.79c-0.29,1.59-0.71,3.18-1.15,4.71c-0.44,1.53-0.81,3.08-1.1,4.64c-0.56,3.12-0.77,6.31-0.35,9.41
		c0.42,3.09,1.46,6.09,3.25,8.62c1.77,2.53,4.21,4.56,6.94,6.06c2.77,1.48,5.7,2.67,8.73,3.53c6.07,1.6,12.51,1.85,18.72,0.6
		c6.21-1.22,12.15-3.76,17.43-7.36c5.36-3.52,10.66-7.17,16.1-10.59c5.44-3.43,11.04-6.63,16.96-9.21c2.49-1.07,5.06-1.98,7.7-2.65
		c-1.08,0.18-2.16,0.41-3.23,0.66c-4.78,1.14-9.44,2.85-13.97,4.82c-4.53,1.99-8.93,4.27-13.21,6.76
		c-4.29,2.47-8.42,5.21-12.42,8.12l-0.11,0.08l-0.11,0.04c-5.35,2.08-10.86,3.87-16.6,4.71c-2.86,0.42-5.78,0.64-8.69,0.42
		c-2.91-0.21-5.83-0.84-8.51-2.12c-0.65-0.35-1.3-0.71-1.94-1.07c-0.6-0.44-1.21-0.86-1.79-1.31c-1.1-0.95-2.19-1.93-3.12-3.08
		c-0.95-1.12-1.76-2.4-2.26-3.83c-0.51-1.41-0.66-2.97-0.44-4.44c0.21-1.48,0.74-2.87,1.36-4.17c0.32-0.65,0.64-1.28,0.99-1.92
		c0.36-0.64,0.76-1.26,1.24-1.81c0.93-1.13,2.09-2.03,3.28-2.82l1.8-1.15c0.58-0.39,1.17-0.8,1.54-1.39l0-0.01
		c0.03-0.04,0.08-0.06,0.13-0.03c0.04,0.03,0.05,0.08,0.03,0.12c-0.37,0.65-0.96,1.11-1.53,1.54l-1.74,1.24
		c-1.14,0.83-2.22,1.75-3.06,2.86c-0.43,0.54-0.78,1.14-1.1,1.76c-0.32,0.62-0.61,1.28-0.89,1.92c-0.55,1.29-1,2.62-1.15,3.97
		c-0.14,1.08-0.03,2.15,0.26,3.17c1.1,0.23,2.15,0.44,3.22,0.6c1.24,0.15,2.47,0.43,3.75,0.52c1.27,0.08,2.55,0.08,3.83,0.01
		c1.07-0.05,2.14-0.16,3.2-0.3c-0.65-0.37-1.26-0.78-1.83-1.24c-1.18-0.94-2.24-2.05-3.05-3.33c-0.82-1.27-1.35-2.77-1.38-4.3
		c-0.05-1.53,0.5-3,1.31-4.22c0.03-0.04,0.09-0.05,0.13-0.03c0.04,0.03,0.05,0.08,0.03,0.12c-0.67,1.28-1.06,2.7-0.9,4.1
		c0.13,1.4,0.74,2.69,1.55,3.82c0.82,1.13,1.86,2.11,3,2.91c0.57,0.4,1.17,0.76,1.79,1.07c0.6,0.29,1.23,0.53,1.81,0.65
		c2.66,0,5.3-0.38,7.89-1.03c0.65-0.18,1.29-0.39,1.93-0.58l0.96-0.3l0.94-0.36c0.63-0.24,1.27-0.46,1.89-0.72l1.85-0.82
		c4.9-2.3,9.54-5.17,13.96-8.36c2.21-1.6,4.37-3.27,6.48-5.02c2.12-1.72,4.11-3.56,6-5.52c3.8-3.88,6.98-8.41,9.07-13.46
		c2.04-5.07,2.99-10.56,3.06-16.03c0.19-5.46-0.84-10.88-3.33-15.64c-1.21-2.39-2.71-4.63-4.41-6.74c-1.69-2.12-3.56-4.1-5.41-6.18
		c-1.85-2.08-3.48-4.38-4.87-6.77c-0.7-1.19-1.37-2.34-2.32-3.31c-0.66-0.7-1.42-1.33-2.2-1.92c-0.87-0.45-1.76-0.87-2.67-1.18
		c-1.27-0.45-2.6-0.56-3.98-0.69c-2.75-0.24-5.52-0.74-8.19-1.54c-2.66-0.79-5.25-1.64-7.88-2.28c-2.63-0.64-5.3-1.05-7.97-1.13
		c-5.36-0.24-10.7,1.13-15.56,3.63c-4.92,2.38-9.48,5.57-13.2,9.58C12.44,26.9,9.69,31.7,7.8,36.79c-0.97,2.54-1.79,5.13-2.44,7.78
		c-0.68,2.65-1.28,5.32-1.79,8c-1.01,5.36-1.64,10.79-1.63,16.2l0.04,2.03C2,71.48,2.08,72.15,2.13,72.82z M70.15,40.36
		c0.29-0.91,0.91,0.85,1.6-1.29c0.69-2.14,0.83,1.08,0.54,1.99c-0.29,0.91-1.01,1.48-1.6,1.29C70.1,42.16,69.86,41.27,70.15,40.36z
		 M59.19,62.75l3.7-2.18l1.76-1.24l0.88-0.62c0.3-0.2,0.58-0.42,0.84-0.67c2.2-1.85,4.08-4.08,5.44-6.59
		c0.63-1.28,1.25-2.55,1.7-3.89c0.29-0.65,0.45-1.33,0.65-2.01c0.09-0.34,0.22-0.67,0.27-1.02l0.19-1.04
		c0.27-1.38,0.35-2.8,0.35-4.22l-0.04-1.06c-0.02-0.35-0.07-0.71-0.1-1.06c-0.09-0.7-0.21-1.43-0.44-2.07l-0.01-0.03
		c-0.01-0.03,0-0.06,0.04-0.08c0.03-0.01,0.06,0,0.07,0.02c0.41,0.65,0.6,1.35,0.81,2.06c0.08,0.36,0.19,0.71,0.25,1.08l0.16,1.09
		c0.06,0.37,0.05,0.73,0.08,1.1c0.02,0.37,0.05,0.74,0.03,1.11c-0.04,0.74-0.04,1.48-0.17,2.21c-0.1,0.73-0.21,1.47-0.43,2.18
		c-0.18,0.72-0.37,1.44-0.68,2.11c-0.51,1.4-1.3,2.66-2.08,3.9l-1.33,1.75l-0.33,0.43l-0.37,0.4l-0.73,0.81
		c-0.91,1.14-2.02,2.08-3.04,3.12c-0.49,0.54-1.09,0.96-1.64,1.44l-1.67,1.41c-1.13,0.82-2.29,1.58-3.45,2.37
		c-0.83,1.69-1.62,3.42-2.39,5.15l-1.22,2.65L55,74.02c-0.89,1.74-1.83,3.46-2.92,5.1c-0.54,0.82-1.12,1.61-1.73,2.38
		c-0.63,0.76-1.29,1.48-2.01,2.14c-0.02,0.02-0.06,0.02-0.09,0c-0.02-0.02-0.02-0.05-0.01-0.08l0,0c0.28-0.4,0.58-0.78,0.86-1.17
		c0.27-0.41,0.55-0.79,0.8-1.21c0.52-0.81,1.01-1.64,1.46-2.49c0.9-1.7,1.74-3.44,2.54-5.2l1.2-2.64l1.23-2.64
		c0.85-1.75,1.72-3.5,2.65-5.22l0.08-0.14L59.19,62.75z M54.79,30.59c-0.69,0.65-1.6,0.81-2.03,0.36c-0.42-0.45-0.21-1.35,0.49-2
		c0.69-0.65,3.67-1.89,2.02-0.36C53.64,30.13,55.49,29.94,54.79,30.59z M27.17,65.71c0.43-0.88,0.91-1.74,1.42-2.58
		c1.02-1.68,2.18-3.27,3.37-4.81l1.83-2.28l1.87-2.23c1.24-1.43,2.46-2.88,3.64-4.35c0.22-1.38,0.42-2.77,0.68-4.13l0.57-2.12
		c0.2-0.7,0.33-1.42,0.61-2.09c0.51-1.37,0.89-2.77,1.53-4.08l0.42-1.01l0.21-0.51l0.25-0.49l1.02-1.95c0.8-1.23,1.6-2.49,2.65-3.54
		c0.48-0.56,1.05-1.04,1.62-1.51c0.55-0.5,1.17-0.91,1.79-1.32c0.6-0.43,1.28-0.74,1.93-1.1c0.32-0.18,0.67-0.3,1.01-0.45
		c0.35-0.13,0.68-0.29,1.03-0.4l1.06-0.32c0.35-0.1,0.72-0.15,1.08-0.23c0.73-0.12,1.44-0.24,2.21-0.14c0.03,0,0.06,0.03,0.05,0.07
		c0,0.03-0.03,0.05-0.05,0.05l-0.03,0c-0.68,0.06-1.39,0.26-2.06,0.48c-0.34,0.12-0.67,0.23-1,0.36l-0.98,0.41
		c-1.28,0.6-2.53,1.28-3.66,2.11l-0.86,0.62c-0.29,0.2-0.54,0.46-0.81,0.68c-0.52,0.47-1.08,0.9-1.54,1.44
		c-1.02,0.98-1.9,2.08-2.79,3.19c-1.68,2.3-2.91,4.96-3.64,7.73c-0.11,0.34-0.2,0.69-0.25,1.05l-0.19,1.06l-0.37,2.12l-0.4,4.28
		l-0.01,0.16l-0.1,0.13c-1.16,1.57-2.38,3.1-3.6,4.62l-1.87,2.24l-1.88,2.21c-1.25,1.47-2.47,2.97-3.62,4.51
		c-0.58,0.77-1.13,1.56-1.64,2.38c-0.27,0.4-0.5,0.82-0.76,1.24c-0.24,0.42-0.45,0.85-0.69,1.28l0,0c-0.02,0.03-0.05,0.04-0.08,0.02
		c-0.03-0.01-0.04-0.05-0.03-0.07C26.38,67.51,26.75,66.6,27.17,65.71z"/>
	<path class="st0" d="M36.82,92.42c0,0-0.47,2.86,0,4.27c-1.25,2.1-1.85,5.8,0.3,8.39c2.15,2.59,5.17,4.31,5.17,4.31
		s-4.05,1.98-9.3,1.21s-6.03-2.07-6.03-2.07s-0.17-6.38,1.98-8.53c1.12-2.33,3.19-4.75,4.38-5.13S36.82,92.42,36.82,92.42z"/>
	<path class="st2" d="M0.95,77.17c0.61,2.76,1.58,5.43,2.89,7.94l0.03,0.06l0.03,0.03c0.27,0.34,0.56,0.63,0.86,0.9
		c0.06,0.36,0.13,0.72,0.2,1.08c0.18,0.88,0.44,1.74,0.72,2.6c0.59,1.7,1.39,3.34,2.36,4.87c0.46,0.79,1.02,1.5,1.56,2.24
		c0.6,0.68,1.19,1.39,1.91,1.95c1.25,1.09,2.7,1.92,4.21,2.55c-0.17,1.85-0.2,3.73,0,5.6c0.33,3.28,1.43,6.54,3.33,9.29
		c1.89,2.76,4.5,4.97,7.37,6.59c2.88,1.57,5.89,2.87,9.06,3.76c3.17,0.83,6.44,1.31,9.71,1.35c0.82-0.01,1.64,0.03,2.45-0.03
		l2.45-0.17l2.42-0.35c0.81-0.12,1.6-0.32,2.4-0.48c6.36-1.43,12.37-4.25,17.59-8.05c5.28-3.67,10.52-7.38,15.97-10.75
		c5.45-3.37,11.05-6.54,16.98-8.91c2.96-1.18,6.01-2.15,9.12-2.72c1.56-0.24,3.12-0.43,4.68-0.4c1.55,0.04,3.1,0.24,4.56,0.68
		l4.2,1.26l-3.62-2.5c-1.15-0.79-2.45-1.2-3.74-1.44c-1.29-0.23-2.59-0.33-3.87-0.29c-2.57,0.04-5.08,0.46-7.55,0.99
		c-4.94,1.11-9.69,2.82-14.32,4.77c-4.62,1.97-9.12,4.22-13.47,6.73c-4.3,2.49-8.49,5.2-12.48,8.18c-2.59,1.03-5.2,1.98-7.86,2.79
		c-2.69,0.81-5.42,1.49-8.18,1.96c-2.76,0.46-5.55,0.72-8.32,0.57c-2.76-0.15-5.51-0.69-8.01-1.82l-1.81-0.96
		c-0.56-0.39-1.14-0.76-1.69-1.16c-1.08-0.87-2.15-1.78-3.04-2.82c-0.98-1.06-1.77-2.29-2.24-3.62c0.85,0.56,1.81,0.94,2.78,1.21
		c1.3,0.34,2.65,0.31,3.97,0.29c1.32-0.04,2.63-0.17,3.92-0.36c1.15-0.2,2.29-0.44,3.41-0.76c0.6,0.33,1.24,0.62,1.97,0.79
		l0.04,0.01l0.06,0c2.83,0.12,5.66-0.14,8.41-0.76c2.73-0.67,5.41-1.55,7.96-2.71c0.65-0.26,1.27-0.59,1.9-0.89
		c0.62-0.31,1.27-0.59,1.87-0.94l1.83-1.01c0.61-0.34,1.19-0.72,1.79-1.07c2.38-1.44,4.66-3.04,6.88-4.71
		c2.22-1.67,4.37-3.41,6.47-5.22c2.11-1.79,4.09-3.79,5.95-5.85c3.71-4.16,6.67-9,8.64-14.18c1.94-5.2,2.92-10.7,3.33-16.22
		c0.26-2.75,0.2-5.59-0.21-8.37c-0.13-0.69-0.21-1.4-0.38-2.08l-0.54-2.05l-0.72-1.99c-0.25-0.66-0.57-1.29-0.87-1.93
		c-1.24-2.54-2.87-4.87-4.65-7.02c-1.77-2.16-3.76-4.11-5.64-6.09c-1.89-1.95-3.57-4.08-5.1-6.35c-0.77-1.13-1.61-2.3-2.68-3.23
		c-0.75-0.68-1.58-1.25-2.43-1.76c-0.83-0.56-1.7-1.07-2.65-1.46c-1.29-0.57-2.71-0.84-4.06-1.06c-2.7-0.43-5.34-1.04-7.91-1.93
		c-2.59-0.86-5.19-1.84-7.9-2.53c-2.7-0.7-5.49-1.19-8.32-1.23c-0.71,0.01-1.41-0.02-2.12,0.03l-2.11,0.19L38.6,8.6
		c-0.69,0.13-1.36,0.36-2.04,0.54c-2.69,0.81-5.28,1.96-7.65,3.36c-4.82,2.71-9.38,5.93-13.26,9.9c-3.85,3.99-6.97,8.72-9.16,13.85
		c-1.08,2.56-2.04,5.2-2.77,7.88c-0.74,2.67-1.41,5.36-1.97,8.08c-0.57,2.72-1.05,5.46-1.34,8.23c-0.07,0.69-0.16,1.38-0.21,2.08
		l-0.14,2.09c-0.06,0.7-0.04,1.4-0.05,2.1c0,0.7-0.04,1.4,0.01,2.1C0.05,71.61,0.4,74.41,0.95,77.17z M15.74,101.05
		c-1.18-1.04-2.36-2-3.41-3.11c-0.64-0.58-1.19-1.24-1.82-1.84c-0.57-0.65-1.17-1.28-1.66-2c-1.03-1.4-1.91-2.93-2.6-4.54
		c-0.34-0.81-0.67-1.63-0.92-2.47c-0.07-0.22-0.13-0.45-0.2-0.68c0.17,0.14,0.34,0.27,0.52,0.39c0.62,0.45,1.28,0.83,1.96,1.17
		c1.35,0.67,2.8,1.16,4.31,1.35c1.5,0.2,3.08,0.05,4.47-0.58c1.21-0.52,2.18-1.42,2.92-2.46c-0.11,0.55-0.22,1.1-0.35,1.64
		c-0.36,1.56-0.82,3.07-1.34,4.6c-0.49,1.54-0.92,3.11-1.26,4.7C16.08,98.49,15.88,99.76,15.74,101.05z M3.57,52.57
		c0.5-2.68,1.1-5.35,1.79-8c0.65-2.66,1.47-5.24,2.44-7.78c1.89-5.09,4.64-9.89,8.32-13.94c3.72-4,8.28-7.2,13.2-9.58
		c4.86-2.5,10.2-3.86,15.56-3.63c2.67,0.09,5.34,0.49,7.97,1.13c2.63,0.64,5.22,1.49,7.88,2.28c2.67,0.79,5.44,1.3,8.19,1.54
		c1.37,0.13,2.7,0.25,3.98,0.69c0.92,0.3,1.8,0.72,2.67,1.18c0.78,0.6,1.54,1.22,2.2,1.92c0.94,0.96,1.62,2.12,2.32,3.31
		c1.39,2.39,3.02,4.69,4.87,6.77c1.85,2.07,3.71,4.06,5.41,6.18c1.7,2.11,3.2,4.36,4.41,6.74c2.49,4.76,3.52,10.18,3.33,15.64
		c-0.07,5.47-1.02,10.96-3.06,16.03c-2.1,5.05-5.27,9.58-9.07,13.46c-1.89,1.96-3.87,3.8-6,5.52c-2.11,1.74-4.27,3.42-6.48,5.02
		c-4.42,3.19-9.06,6.07-13.96,8.36l-1.85,0.82c-0.62,0.26-1.26,0.48-1.89,0.72l-0.94,0.36l-0.96,0.3c-0.64,0.19-1.28,0.41-1.93,0.58
		c-2.59,0.65-5.23,1.02-7.89,1.03c-0.59-0.12-1.22-0.35-1.81-0.65c-0.62-0.3-1.22-0.66-1.79-1.07c-1.14-0.81-2.18-1.78-3-2.91
		c-0.81-1.13-1.42-2.43-1.55-3.82c-0.15-1.4,0.24-2.82,0.9-4.1c0.02-0.04,0.01-0.09-0.03-0.12c-0.04-0.03-0.1-0.02-0.13,0.03
		c-0.81,1.22-1.36,2.69-1.31,4.22c0.03,1.52,0.56,3.02,1.38,4.3c0.82,1.28,1.87,2.39,3.05,3.33c0.57,0.46,1.18,0.87,1.83,1.24
		c-1.06,0.15-2.13,0.26-3.2,0.3c-1.28,0.07-2.56,0.07-3.83-0.01c-1.27-0.09-2.5-0.37-3.75-0.52c-1.07-0.16-2.11-0.37-3.22-0.6
		c-0.29-1.02-0.39-2.09-0.26-3.17c0.15-1.35,0.6-2.68,1.15-3.97c0.28-0.64,0.58-1.3,0.89-1.92c0.32-0.61,0.66-1.22,1.1-1.76
		c0.84-1.11,1.91-2.03,3.06-2.86l1.74-1.24c0.57-0.43,1.16-0.89,1.53-1.54c0.02-0.04,0.01-0.1-0.03-0.12
		c-0.04-0.03-0.1-0.01-0.13,0.03l0,0.01c-0.37,0.58-0.96,0.99-1.54,1.39l-1.8,1.15c-1.19,0.79-2.35,1.69-3.28,2.82
		c-0.48,0.55-0.88,1.17-1.24,1.81c-0.35,0.63-0.67,1.27-0.99,1.92c-0.62,1.3-1.15,2.69-1.36,4.17c-0.22,1.48-0.07,3.03,0.44,4.44
		c0.5,1.42,1.31,2.71,2.26,3.83c0.92,1.15,2.01,2.13,3.12,3.08c0.58,0.45,1.19,0.87,1.79,1.31c0.64,0.37,1.29,0.72,1.94,1.07
		c2.68,1.27,5.6,1.9,8.51,2.12c2.92,0.22,5.83,0,8.69-0.42c5.74-0.84,11.25-2.63,16.6-4.71l0.11-0.04l0.11-0.08
		c4-2.91,8.13-5.65,12.42-8.12c4.28-2.49,8.68-4.77,13.21-6.76c4.53-1.97,9.19-3.69,13.97-4.82c1.07-0.25,2.15-0.47,3.23-0.66
		c-2.65,0.67-5.21,1.58-7.7,2.65c-5.92,2.59-11.53,5.78-16.96,9.21c-5.44,3.42-10.74,7.07-16.1,10.59
		c-5.28,3.6-11.22,6.15-17.43,7.36c-6.2,1.25-12.64,1-18.72-0.6c-3.02-0.85-5.95-2.05-8.73-3.53c-2.73-1.5-5.16-3.53-6.94-6.06
		c-1.79-2.53-2.82-5.53-3.25-8.62c-0.43-3.1-0.21-6.29,0.35-9.41c0.29-1.56,0.66-3.11,1.1-4.64c0.45-1.54,0.86-3.13,1.15-4.71
		c0.3-1.59,0.52-3.19,0.69-4.79c0.08-0.8,0.15-1.6,0.2-2.41c0.07-0.79,0.07-1.63,0.21-2.37l0-0.03c0.01-0.05-0.02-0.09-0.07-0.1
		c-0.05-0.01-0.1,0.02-0.11,0.07c-0.2,0.83-0.24,1.61-0.36,2.41l-0.33,2.38c-0.13,0.85-0.27,1.7-0.43,2.54
		c-0.86,1.1-1.95,2.02-3.24,2.46c-1.32,0.48-2.75,0.47-4.12,0.22c-1.37-0.26-2.69-0.79-3.91-1.48c-0.61-0.35-1.19-0.74-1.72-1.17
		c-0.52-0.41-1-0.88-1.35-1.37c-1.13-2.41-1.91-4.97-2.43-7.59c-0.12-0.66-0.19-1.33-0.29-2l-0.14-1l-0.07-1.01
		C2.08,72.15,2,71.48,1.98,70.8l-0.04-2.03C1.93,63.36,2.56,57.93,3.57,52.57z"/>
	<path class="st2" d="M26.2,68.5L26.2,68.5c0.24-0.43,0.46-0.86,0.69-1.28c0.25-0.41,0.48-0.84,0.76-1.24
		c0.51-0.82,1.06-1.61,1.64-2.38c1.15-1.54,2.37-3.03,3.62-4.51l1.88-2.21l1.87-2.24c1.22-1.52,2.44-3.04,3.6-4.62l0.1-0.13
		l0.01-0.16l0.4-4.28l0.37-2.12l0.19-1.06c0.05-0.36,0.14-0.71,0.25-1.05c0.74-2.78,1.96-5.43,3.64-7.73
		c0.89-1.12,1.77-2.22,2.79-3.19c0.46-0.54,1.02-0.97,1.54-1.44c0.27-0.22,0.51-0.48,0.81-0.68l0.86-0.62
		c1.14-0.83,2.38-1.51,3.66-2.11l0.98-0.41c0.33-0.13,0.67-0.24,1-0.36c0.67-0.22,1.38-0.42,2.06-0.48l0.03,0
		c0.03,0,0.05-0.02,0.05-0.05c0-0.03-0.02-0.06-0.05-0.07c-0.76-0.1-1.48,0.03-2.21,0.14c-0.36,0.08-0.73,0.13-1.08,0.23l-1.06,0.32
		c-0.35,0.1-0.69,0.27-1.03,0.4c-0.34,0.14-0.69,0.26-1.01,0.45c-0.65,0.35-1.33,0.66-1.93,1.1c-0.62,0.41-1.24,0.82-1.79,1.32
		c-0.57,0.47-1.14,0.95-1.62,1.51c-1.05,1.05-1.85,2.31-2.65,3.54l-1.02,1.95l-0.25,0.49l-0.21,0.51l-0.42,1.01
		c-0.64,1.31-1.02,2.72-1.53,4.08c-0.28,0.68-0.41,1.39-0.61,2.09l-0.57,2.12c-0.26,1.37-0.46,2.75-0.68,4.13
		c-1.18,1.47-2.4,2.92-3.64,4.35l-1.87,2.23l-1.83,2.28c-1.19,1.55-2.35,3.13-3.37,4.81c-0.51,0.84-0.98,1.7-1.42,2.58
		c-0.42,0.89-0.79,1.8-1.08,2.73c-0.01,0.03,0,0.06,0.03,0.07C26.14,68.54,26.18,68.53,26.2,68.5z"/>
	<path class="st2" d="M56.33,68.2l-1.23,2.64l-1.2,2.64c-0.8,1.76-1.63,3.5-2.54,5.2c-0.45,0.85-0.94,1.68-1.46,2.49
		c-0.24,0.42-0.53,0.8-0.8,1.21c-0.28,0.39-0.58,0.77-0.86,1.17l0,0c-0.02,0.02-0.02,0.06,0.01,0.08c0.02,0.03,0.06,0.03,0.09,0
		c0.72-0.66,1.38-1.39,2.01-2.14c0.61-0.77,1.19-1.56,1.73-2.38c1.09-1.64,2.03-3.36,2.92-5.1l1.29-2.63l1.22-2.65
		c0.77-1.73,1.56-3.45,2.39-5.15c1.16-0.79,2.32-1.55,3.45-2.37l1.67-1.41c0.55-0.48,1.14-0.9,1.64-1.44
		c1.02-1.04,2.13-1.98,3.04-3.12l0.73-0.81l0.37-0.4l0.33-0.43l1.33-1.75c0.77-1.24,1.57-2.5,2.08-3.9c0.31-0.68,0.49-1.4,0.68-2.11
		c0.22-0.71,0.33-1.45,0.43-2.18c0.14-0.73,0.13-1.48,0.17-2.21c0.03-0.37-0.01-0.74-0.03-1.11c-0.03-0.37-0.02-0.74-0.08-1.1
		l-0.16-1.09c-0.05-0.36-0.17-0.72-0.25-1.08c-0.2-0.71-0.4-1.41-0.81-2.06c-0.01-0.02-0.04-0.03-0.07-0.02
		c-0.03,0.01-0.05,0.04-0.04,0.08l0.01,0.03c0.23,0.64,0.35,1.37,0.44,2.07c0.03,0.36,0.08,0.71,0.1,1.06l0.04,1.06
		c0,1.42-0.08,2.83-0.35,4.22l-0.19,1.04c-0.05,0.35-0.18,0.68-0.27,1.02c-0.2,0.67-0.36,1.36-0.65,2.01
		c-0.45,1.34-1.07,2.61-1.7,3.89c-1.37,2.5-3.25,4.74-5.44,6.59c-0.26,0.25-0.54,0.47-0.84,0.67l-0.88,0.62l-1.76,1.24l-3.7,2.18
		l-0.14,0.08l-0.08,0.14C58.04,64.7,57.18,66.45,56.33,68.2z"/>
	<path class="st2" d="M53.26,28.95c-0.69,0.65-0.91,1.55-0.49,2c0.42,0.45,1.33,0.29,2.03-0.36c0.69-0.65-1.15-0.46,0.49-2
		C56.92,27.05,53.95,28.3,53.26,28.95z"/>
	<path class="st2" d="M70.69,42.35c0.59,0.19,1.31-0.39,1.6-1.29c0.29-0.91,0.16-4.13-0.54-1.99c-0.69,2.14-1.31,0.39-1.6,1.29
		C69.86,41.27,70.1,42.16,70.69,42.35z"/>
</g>
</svg>
