<?xml version="1.0" encoding="utf-8"?>
<!-- Generator: Adobe Illustrator 18.1.0, SVG Export Plug-In . SVG Version: 6.00 Build 0)  -->
<svg version="1.1" baseProfile="tiny" id="Layer_1" xmlns="http://www.w3.org/2000/svg" xmlns:xlink="http://www.w3.org/1999/xlink"
	 x="0px" y="0px" viewBox="0 0 200 128" xml:space="preserve">
<g>
	<path fill="#E5A495" d="M11.7,36.6c-1.8,0.9-3,2.6-3.6,4.9c-0.2,0.6,0.5,3.3,2.4,5.4c1.6,1.6,3.4,2.2,5.5,1.8
		c2.1-0.4,2.6-1.8,2.6-2.9c0-2.1-1.8-4.8-4.6-5.3c-0.7-0.1-1.2-0.7-1.2-1.4c0-0.7,0.4-1.3,1.1-1.6c3.1-1,6.1-0.8,8.8,0.7
		c0.1-0.5,0.3-1,0.4-1.4C21.6,36.3,15.7,34.5,11.7,36.6z M15.1,41.8c2,1.3,2.9,3.3,2.1,4.6c-0.4,0.6-1.1,0.9-2,0.9c-0.9,0-2-0.4-3-1
		c-0.9-0.6-1.6-1.3-2-2c-0.5-0.9-0.5-1.8-0.1-2.5c0.4-0.6,1.1-0.9,2-0.9C13,40.8,14.1,41.1,15.1,41.8z"/>
	<path fill="#E5A495" d="M71.1,88.4c-3.4-1-6.9-2.1-10.4-3.3c-0.1,0-0.1-0.1-0.2-0.1c-1.6,1.8-3.2,3.6-4.7,5.2
		c-0.2,0.2-0.4,0.5-0.7,0.7c1.6,2.3,9.3,13,12.4,16.5c0.7,0.8,1.1,2,1,3.1c-0.1,1.3,0,2.8,0.2,3.6h11.4l-5.1-4.4
		c-0.2-0.2-5.5-5.9-5.5-11C69.6,95.6,70.6,90.6,71.1,88.4z"/>
	<path fill="#E5A495" d="M3.1,46.1c1.4-1.4,2.8-2.9,3.2-3.4c0-0.2-0.1-0.4-0.1-0.6C5.2,42.9,4,44.3,3.1,46.1z"/>
	<path fill="#E5A495" d="M109.6,105.7l1.7,5.1l-0.7,3.4h9.2c-1.3-2-3.4-5.5-4.2-7c-0.2-0.3-0.2-0.7-0.2-1c0.4-3.8,3.5-12.1,4.9-15.7
		c-3.2,0.9-6.6,1.6-10.1,2C111.4,96.8,110.1,103.6,109.6,105.7z"/>
	<path fill="#ECC1B1" d="M142.4,80.4l0.4-1.6C142.7,79.2,142.5,79.8,142.4,80.4z M187.4,106.9c-1.3-3.8,0.3-9.4,0.4-9.6
		c0.2-0.7,0.2-1.3,0-1.9l-1.7-4c-0.2-0.4-0.3-0.9-0.3-1.4c0,0,0,0.1,0,0.1c-0.2-2.2-0.6-6.5-0.8-9.2c-0.1-1,0.6-1.8,1.5-2.1
		c4.8-1.4,8.4-1.9,11.1-1.8c-5.7-1.3-18.3-6-18.9-9c-5-24.8-20.2-35-35.8-42.4c-12.8-6-40.3-11.3-50.8-12.8c-2.1-0.3-4-0.6-5.8-0.9
		c-7.1-1.2-12.7-2.2-26.9-0.8c-20.5,2-34.1,15.2-36.4,35.3C21.2,62.3,30.3,71,36.3,76.9c2.8,2.7,4.8,4.6,4.8,6.5
		c0.3,5.8-2.7,8.1-4.5,9c-0.4,0.2-0.6,0.6-0.5,1l2.3,15.4l1.9,1.5c1.6,1.2,2.3,3.2,2.1,5.2l-0.3,2.3h10.5c-2.7-3-7.3-8.8-8.3-14.4
		c-0.5-2.7,3.1-6.8,9.9-14.3c9-9.9,21.2-23.5,21.2-34.9c0-0.5,0.4-1,1-1s1,0.4,1,1c0,1.1-0.1,2.2-0.3,3.4c0.1-0.4,0.2-0.8,0.2-1.2
		c-0.5,5.9-2.5,19.9-9.3,29.3c1.4,0.4,2.7,0.8,4,1.2c0.1,0,0.6,0.1,0.7,0.2c14.8,4.1,27.7,5.2,39.1,3.5c-7.7-14.2-5.1-25.3-5.1-25.3
		c0.1-0.5,0.5-0.8,1-0.8c0,0,0.1,0,0.1,0c0.5,0.1,0.9,0.6,0.8,1.1c-2,13.4,10.5,21.1,13.6,22.8c0,0,0,0,0,0c0,0,0,0,0,0c0,0,0,0,0,0
		c0,0,0.1,0,0.1,0.1c0.6,0.3,0.9,0.8,0.9,1.5c0.3,6.5,9.7,15.7,10.8,16.8c0.3,0.3,0.5,0.6,0.5,1l1.6,10.1h4.9c-6.1-13-6-25.4-6-25.4
		l0,0c0,0.2,0,0.3,0,0.4c0-0.7,0.1-1.3,0.3-1.9c0.7-4.1,4.8-11.8,5.8-13.8c0,0,0,0,0,0c0,0,0-0.1,0-0.1c0-0.1,0.1-0.2,0.1-0.3
		c0,0,0,0,0,0l0,0c0.3-0.3,0.7-0.4,1.1-0.3c0.5,0.2,0.7,0.8,0.6,1.2c0,0,0,0,0,0.1c-0.3,3.5-1.1,23,23.8,25.9
		c2,6.7,5.6,10.8,13,12.9c0.2,0,0.3,0,0.5,0.1c1,0.1,2,0.4,3.1,1c4,2,5.5,0.7,7.1-0.7c0.4-0.3,0.7-0.6,1.1-0.9
		c0.3-0.2,0.4-0.4,0.4-0.7c0-0.3-0.1-0.5-0.3-0.7C189.3,112.2,187.9,108.4,187.4,106.9z M176.7,87.6c-1.7,0-3.1-1.4-3.1-3.1
		c0-1.7,1.4-3.1,3.1-3.1s3.1,1.4,3.1,3.1C179.9,86.2,178.5,87.6,176.7,87.6z"/>
	<path fill="#2D2D2D" d="M198.6,75.3c-6.6-1.3-17.3-6.1-18-7.6c-5.9-29.1-26.8-39-36.9-43.7c-13-6.1-40.7-11.5-51.4-13
		c-2.1-0.3-3.9-0.6-5.7-0.9c-7-1.2-13-2.2-27.4-0.8c-17.4,1.7-30,11.1-35.5,25.7c-1.7-0.6-8.1-2.5-12.9-0.1
		c-1.8,0.9-3.1,2.4-3.9,4.3c-0.1,0-0.1,0-0.2,0.1c-0.2,0.1-5.8,3.6-6.4,9.6L0,51.2l1.8-1.4c1.8-1.4,3.9-3.7,5.1-5
		c0.5,1.1,1.2,2.3,2.1,3.3c1.2,1.3,3.1,2.7,5.7,2.7c0.5,0,1.1-0.1,1.7-0.2c2.6-0.5,4.1-2.3,4.1-4.8c0-2.5-1.8-5.6-4.9-6.8
		c2.3-0.5,4.5-0.1,6.5,1.1c-0.5,2-0.8,4-1.1,6.1c-1.9,16.7,8,26.3,13.9,32c2.3,2.2,4.2,4.1,4.3,5.2c0.2,4.7-2.1,6.6-3.4,7.2
		c-1.1,0.6-1.7,1.8-1.5,3l2.3,15.3c0.1,0.5,0.3,0.9,0.7,1.1l2,1.6c1,0.8,1.6,2.1,1.4,3.4l-0.3,2.4c-0.1,0.5,0.1,1,0.4,1.4
		c0.3,0.4,0.8,0.6,1.4,0.6H54c0.5,0,1-0.3,1.2-0.8c0.2-0.5,0.1-1.1-0.3-1.4c-1.8-1.9-7.6-8.4-8.7-14.4c-0.3-1.6,3.4-6,7.5-10.5
		c2.1,2.9,9.2,12.9,12.3,16.4c0.4,0.4,0.6,1,0.5,1.6c-0.2,1.5,0,3.1,0.2,4.2c0.1,0.9,0.9,1.5,1.8,1.5h11.7c0.8,0,1.4-0.5,1.7-1.2
		c0.3-0.7,0.1-1.5-0.5-2l-5.2-4.5c-0.4-0.5-4.9-5.5-4.9-9.7c0-3,1-7.8,1.5-9.9c10.3,2.8,19.8,4.2,28.4,4.2c2.4,0,4.7-0.1,7-0.3
		c0.9,3,0.3,8.3-0.6,12.5c-0.1,0.3-0.1,0.6,0.1,1l1.6,4.7l-0.6,3c-0.1,0.5,0,1.1,0.4,1.5c0.3,0.4,0.9,0.7,1.4,0.7h9.5
		c0.7,0,1.3-0.4,1.6-0.9c0.3-0.6,0.3-1.3,0-1.8c-1.2-2-3.4-5.5-4.2-7c0.3-3.3,3-10.6,4.5-14.5c1.7,6.7,9.3,14.4,11,15.9l1.6,10.2
		c0.1,0.9,0.9,1.5,1.8,1.5h9.9c0.7,0,1.2-0.3,1.6-0.9c0.3-0.6,0.3-1.2,0-1.8c-1.6-2.9-7-12.7-7.9-15l-0.2-0.4
		c-0.8-1.9-3.3-7.7-2.2-10.3c0.2-0.5,0.5-0.8,1-1c1.4-0.5,2,0.3,3.7,3.7c1.1,2.2,2.4,5,4.8,7.3c3.7,3.5,9.2,6.2,15.3,7.4
		c0.4,0.1,0.8,0.3,1,0.6c4.9,5.4,10.8,8.6,16.8,9.3c0.8,0.1,1.6,0.4,2.5,0.8c1.8,0.9,3.3,1.2,4.4,1.2c2.2,0,3.6-1.2,4.8-2.2
		c0.3-0.3,0.6-0.6,1-0.8c0.7-0.5,1.2-1.3,1.2-2.1c0.1-0.8-0.3-1.6-0.9-2.2c-2.1-2-3.4-5.5-3.9-6.9c-1.1-3.2,0.4-8.4,0.4-8.4
		c0.4-1.1,0.4-2.2-0.1-3.2l-1.7-4c-0.2-0.4-0.2-0.8-0.2-1.2l0.5-5.1c0.1-1.1,0.9-2,2-2.2c2.6-0.5,6.2-1.6,9.1-3.7
		c0.6-0.4,0.9-1.2,0.7-1.9C199.8,75.9,199.3,75.4,198.6,75.3z M3.1,46.1c0.9-1.8,2.1-3.1,3.1-4c0,0.2,0,0.4,0.1,0.6
		C5.8,43.2,4.5,44.6,3.1,46.1z M13.8,37.5c-0.7,0.2-1.1,0.8-1.1,1.6c0,0.7,0.5,1.3,1.2,1.4c2.7,0.6,4.6,3.2,4.6,5.3
		c0,1.1-0.4,2.4-2.6,2.9c-2.1,0.4-3.9-0.2-5.5-1.8c-1.9-2.1-2.6-4.8-2.4-5.4c0.6-2.3,1.8-4,3.6-4.9c4-2.1,9.9-0.3,11.3,0.2
		c-0.2,0.5-0.3,1-0.4,1.4C19.9,36.7,16.9,36.5,13.8,37.5z M75,109.8l5.1,4.4H68.7c-0.1-0.8-0.3-2.4-0.2-3.6c0.1-1.1-0.2-2.3-1-3.1
		C64.4,104,56.8,93.3,55.2,91c0.2-0.2,0.4-0.5,0.7-0.7c1.5-1.7,3.1-3.4,4.7-5.2c0.1,0,0.1,0.1,0.2,0.1c3.6,1.2,7,2.3,10.4,3.3
		c-0.5,2.1-1.5,7.2-1.5,10.4C69.6,103.9,74.8,109.6,75,109.8z M115.5,106.3c0,0.4,0,0.7,0.2,1c0.8,1.5,2.9,5,4.2,7h-9.2l0.7-3.4
		l-1.7-5.1c0.5-2.1,1.8-8.9,0.7-13.2c3.5-0.4,6.8-1.1,10.1-2C118.9,94.2,115.9,102.5,115.5,106.3z M189.7,80.3
		c-1.9,0.4-3.3,1.9-3.5,3.9l-0.5,5.1c-0.1,0.7,0,1.5,0.3,2.2l1.7,4c0.3,0.6,0.3,1.2,0,1.9c-0.1,0.2-1.6,5.8-0.4,9.6
		c0.5,1.5,1.9,5.3,4.4,7.6c0.2,0.2,0.3,0.5,0.3,0.7c0,0.3-0.2,0.5-0.4,0.7c-0.4,0.3-0.7,0.6-1.1,0.9c-1.7,1.4-3.1,2.7-7.1,0.7
		c-1-0.5-2.1-0.8-3.1-0.9c-7.1-0.9-12.4-5.2-15.6-8.7c-0.6-0.6-1.3-1-2.1-1.2c-5.6-1.1-11-3.7-14.4-6.9c-2.1-2-3.3-4.5-4.4-6.7
		c-0.1-0.3-0.3-0.6-0.4-0.9c0-0.1,0-0.1-0.1-0.2c-3.2-6.6-0.2-14.3-0.2-14.4c0.2-0.5-0.1-1-0.5-1.2c-0.5-0.2-1,0.1-1.2,0.5
		c-0.1,0.3-2.1,5.5-1.1,11.4c-0.7-0.3-1.5-0.3-2.5,0.1c-1,0.4-1.7,1-2.1,2c-1.2,2.9,0.5,7.8,2.2,11.8l0.2,0.4
		c0.9,2.3,5.8,11.2,7.9,15.1h-9.7l-1.6-10.1c-0.1-0.4-0.2-0.7-0.5-1c-1.1-1-10.5-10.3-10.8-16.8c0-0.6-0.4-1.2-0.9-1.5
		c0,0-0.1,0-0.1-0.1c0,0,0,0-0.1,0c0,0,0,0,0,0c-3.1-1.7-15.6-9.4-13.6-22.8c0.1-0.5-0.3-1-0.8-1.1c-0.5-0.1-1,0.3-1.1,0.8
		c-1.9,12.7,7.9,20.6,12.7,23.7c-13.1,3.7-28.5,3.1-46.7-1.9c-0.2,0-0.6-0.2-0.7-0.2c-3.4-0.9-6.8-2-10.3-3.2
		c7.8-9.1,15.7-19.8,15.7-29.4c0-0.5-0.4-1-1-1s-1,0.4-1,1c0,11.4-12.3,25-21.2,34.9c-6.9,7.6-10.4,11.7-9.9,14.3
		c1,5.6,5.6,11.4,8.3,14.4H42.2l0.3-2.3c0.3-2-0.5-4-2.1-5.2l-1.9-1.5l-2.3-15.3c-0.1-0.4,0.1-0.8,0.5-1c1.8-0.9,4.7-3.3,4.5-9
		c-0.1-1.9-2.1-3.8-4.8-6.5C30.3,71,21.2,62.3,23,46.4c2.2-20.1,15.8-33.3,36.4-35.3c14.2-1.4,19.8-0.4,26.9,0.8
		c1.8,0.3,3.7,0.6,5.8,0.9c10.6,1.5,38.1,6.8,50.8,12.8c15.7,7.4,30.8,17.6,35.8,42.4c0.6,3,13.7,7.9,19.2,9
		C195.3,78.9,192,79.9,189.7,80.3z"/>
	<path fill="#2D2D2D" d="M10,41.7c-0.5,0.7-0.4,1.6,0.1,2.5c0.4,0.7,1.1,1.5,2,2c1,0.6,2.1,1,3,1c0.9,0,1.6-0.3,2-0.9
		c0.8-1.3,0-3.2-2.1-4.6c-1-0.6-2.1-1-3-1C11.2,40.8,10.4,41.1,10,41.7z M15.6,45.3c0,0-0.1,0.1-0.4,0.1c-0.6,0-1.3-0.3-2-0.7
		c-1.3-0.8-1.6-1.8-1.5-1.9c0,0,0.1-0.1,0.4-0.1c0.6,0,1.3,0.3,2,0.7C15.3,44.2,15.6,45.1,15.6,45.3z"/>
	<ellipse fill="#2D2D2D" cx="176.7" cy="84.5" rx="3.1" ry="3.1"/>
	<path fill="#E5A495" d="M77.4,56.3c-0.5,5.9-2.5,19.9-9.3,29.3c-2.1-0.6-4.2-1.3-6.3-2c6.9-8,13.9-17.4,15.4-26.1
		C77.3,57.1,77.4,56.7,77.4,56.3z"/>
	<path fill="#E5A495" d="M140.2,88.4c-0.7-0.3-1.5-0.3-2.5,0.1c-1,0.4-1.6,1-2.1,2c-0.1,0.1-0.1,0.3-0.1,0.4
		c0.7-4.1,4.8-11.8,5.8-13.8C141,77.9,139.3,82.9,140.2,88.4z"/>
	<path fill="#E5A495" d="M146,117.7h-4.8c-6.1-13-6-25.4-6-25.4l0,0c0,0.2,0,0.3,0,0.4c0,0.2,0,0.3,0,0.5c0.1,2.8,1.4,6.1,2.6,9
		l0.2,0.4C138.9,105,143.8,113.9,146,117.7z"/>
	<path fill="#E5A495" d="M179.8,116.6c-6.8-1-12-5.2-15.1-8.6c-0.6-0.6-1.3-1-2.1-1.2c-5.7-1.1-11-3.7-14.4-6.9
		c-2.1-2-3.3-4.5-4.4-6.7c-0.1-0.3-0.3-0.6-0.4-0.8c0-0.1,0-0.1-0.1-0.2c-2-4.2-1.6-8.8-1-11.7v0l0.4-1.6c0.1-0.5,0.3-0.8,0.3-1
		c-0.3,3.5-1.1,23,23.8,25.9C168.9,110.4,172.4,114.5,179.8,116.6z"/>
	<path fill="#E5A495" d="M197.9,77.1c-2.6,1.8-5.9,2.8-8.2,3.2c-1.9,0.4-3.3,1.9-3.5,3.9l-0.5,5.1c0,0.3,0,0.5,0,0.8
		c0,0,0,0.1,0,0.1c-0.2-2.2-0.6-6.5-0.8-9.2c-0.1-1,0.6-1.8,1.5-2.1c4.8-1.4,8.4-1.9,11.1-1.8C197.7,77,197.8,77.1,197.9,77.1z"/>
	<path fill="#E5A495" d="M119.5,88.8c-2.4,0.7-5,1.2-7.6,1.6c-7.7-14.2-5.1-25.3-5.1-25.3C104.9,77.8,114.7,85.7,119.5,88.8z"/>
</g>
</svg>
