<?xml version="1.0" encoding="utf-8"?>
<!-- Generator: Adobe Illustrator 23.0.0, SVG Export Plug-In . SVG Version: 6.00 Build 0)  -->
<svg version="1.1" id="Layer_1" xmlns="http://www.w3.org/2000/svg" xmlns:xlink="http://www.w3.org/1999/xlink" x="0px" y="0px"
	 viewBox="0 0 128 128" style="enable-background:new 0 0 128 128;" xml:space="preserve">
<style type="text/css">
	.st0{fill:#896E52;}
	.st1{fill:#E8E6DA;}
	.st2{fill:#A38664;}
	.st3{fill:#F2F0E7;}
	.st4{fill:#2D2D2D;}
	.st5{fill:#896646;}
	.st6{fill:#84654C;}
	.st7{fill:#937557;}
	.st8{fill:#B5938A;}
</style>
<g>
	<path class="st0" d="M72.7,18.7c-1.6-2.9-2.8-6.2-2.8-9.8c0-1.7,0.5-3.6,1.5-5.1c0.1-0.2,0.2-0.3,0.3-0.4c-0.6,0.4-1.1,0.9-1.6,1.4
		c-0.5,0.6-1,1.3-1.3,2c-0.3,0.7-0.6,1.5-0.7,2.3c-0.4,1.6-0.5,3.4,0,5.1c0.4,1.7,1.3,3.3,2.5,4.6c0.6,0.7,1.2,1.3,1.8,1.9
		c0.6,0.6,1.3,1.2,1.9,1.7c0.7,0.6,1.5,1.1,2.3,1.6c-0.3-0.4-0.7-0.8-1-1.2C74.5,21.6,73.6,20.2,72.7,18.7z"/>
	<path class="st1" d="M119.2,50.8l-0.2-0.2c-0.5-0.5-1.3-0.8-2-1c-0.7-0.2-1.5-0.4-2.3-0.5c-0.4,0-0.8-0.1-1.2-0.1l-0.6,0
		c-0.2,0-0.3,0-0.5,0c-0.3,0-0.6,0.1-0.9,0.3c-0.1,0.1-0.3,0.2-0.4,0.3l-0.5,0.4c-0.7,0.5-1.4,0.9-2.2,1.3c-1.5,0.8-3.1,1.4-4.7,1.9
		c-3.2,1-6.6,1.3-9.9,1.1c-1.7-0.2-3.3-0.5-4.8-1.2c-0.7-0.3-1.4-0.7-2-1.1c0.7,0.7,1.4,1.3,2.2,1.8c0.3,0.3,0.7,0.5,1.1,0.7
		c0.4,0.2,0.7,0.4,1.2,0.6c0.4,0.2,0.8,0.4,1.2,0.6c0.4,0.2,0.8,0.3,1.2,0.5c0.4,0.2,0.8,0.4,1.2,0.5c0.4,0.2,0.8,0.3,1.2,0.5
		c0.1,0,0.1,0.1,0.2,0.1c1.5,0.6,3.2,0.8,4.7,0.4c0,0,0,0,0,0c1.2-0.3,2.5-0.7,3.6-1.2c1.2-0.5,2.3-1,3.4-1.7c0.5-0.3,1.1-0.6,1.6-1
		c0.3-0.2,0.5-0.4,0.7-0.5c0.2-0.2,0.4-0.4,0.5-0.5l0.2-0.2l0.8-0.2c0,0,0,0,0.1,0l0.2,0c0.2,0,0.3,0,0.5,0c0.3,0,0.7-0.1,1-0.1
		l2.1-0.3l3.5-0.5c-0.1-0.2-0.1-0.3-0.2-0.5L119.2,50.8z"/>
	<path class="st1" d="M100.4,63.8c-0.1,1.8-0.4,3.6-0.9,5.4c-0.3,0.9-0.6,1.8-1.1,2.6c-0.2,0.4-0.5,0.8-0.8,1.2
		c-0.2,0.2-0.3,0.4-0.5,0.6l-0.3,0.3l-0.3,0.2c-1.5,1.1-3.1,2.1-4.6,2.9c-1.5,0.9-2.8,1.8-3.9,3.1c-0.5,0.6-1,1.4-1.3,2
		c-0.3,0.7-0.4,1.5-0.5,2.4c-0.2,1.7-0.1,3.4,0.1,5.2c0.1,1.2,0.3,2.5,0.5,3.7c0-1.5,0.5-3,1.2-4.4c0.9-1.6,2.1-3.1,3.4-4.3
		c1.3-1.3,2.7-2.3,4.2-3.3c1.4-1,2.8-2.1,4-3.4c0.6-0.6,1.2-1.3,1.5-2.1c0.4-0.7,0.6-1.6,0.8-2.4c0.3-1.6,0.4-3.3,0.2-4.9
		c-0.2-1.7-0.4-3.3-0.7-5c-0.3-1.6-0.6-3.2-0.9-4.8C100.5,60.5,100.5,62.1,100.4,63.8z"/>
	<path class="st2" d="M8.8,101.8c1.8,4.5,4.3,8.7,7.6,12.3c3.1,3.4,7,6.1,11.4,7.9c0.3-0.4,0.6-0.7,1-0.9c0.6-0.4,1.1-0.7,1.5-1
		c0.4-0.3,0.7-0.8,0.8-1.3c0.1-0.5,0.2-1,0.1-1.6c-0.2-1.1-0.6-2.3-1.1-3.4c-0.5-1.1-1.1-2.2-1.7-3.3c0,0,0-0.1,0-0.1
		c0,0,0.1,0,0.1,0c0.8,1,1.5,2,2.1,3.1c0.6,1.1,1.2,2.2,1.5,3.5c0.3,1.3,0.1,2.9-1,4c-0.5,0.5-1.1,0.9-1.5,1.2
		c-0.4,0.3-0.7,0.7-0.8,1.1l-0.1,0.3l0,0.4c0,0.2,0,0.2,0.1,0.3c0.2,0.2,0.7,0.5,1.3,0.7c1.1,0.3,2.3,0.5,3.5,0.6
		c2.4,0.2,4.9,0.2,7.3,0.2c2.5,0,5,0.1,7.4,0.2l7.4,0.3c4.8,0.2,9.6,0.3,14.5,0.3c-0.2-1.3-0.9-2.6-1.7-3.6c-1-1.1-2.2-1.9-3.6-2.4
		c-0.3-0.1-0.7-0.3-1-0.3c-0.4-0.1-0.7-0.2-1.1-0.2c-0.7-0.1-1.5-0.2-2.2-0.2c-1.5-0.1-3,0-4.5,0.1c-0.1,0-0.2,0-0.2,0
		c0,0.1,0,0.1,0,0.2c0,0.4-0.1,0.8-0.4,1.1c-0.4,0.6-1.1,1.1-1.7,1.4c-0.7,0.4-1.4,0.5-2.1,0.7c-0.7,0.1-1.4,0.3-2.1,0.3
		c-2.8,0.3-5.7,0.4-8.5,0.3c-0.7,0-1.4-0.1-2.1-0.2c-0.7-0.1-1.4-0.1-2.3-0.5c-0.4-0.2-0.9-0.5-1.1-1.1c-0.2-0.5-0.2-1-0.1-1.4
		c0.2-0.8,0.5-1.5,0.8-2.2c0.3-0.6,0.7-1.3,1.1-1.8l0.6-0.9c0.2-0.3,0.3-0.6,0.4-0.9c0.5-1.2,0.9-2.7,1.7-3.9
		c0.7-1.3,1.7-2.4,2.8-3.3c1.1-0.9,2.3-1.7,3.5-2.4c2.5-1.3,4.8-2.8,6.7-4.7c1.9-1.9,3.4-4.3,4.3-6.9c0.4-1.3,0.7-2.7,0.9-4
		c0.1-1.1,0.2-2.1,0.1-3.2c-0.3-1-0.6-2-0.9-2.9c0-0.1,0-0.1,0.1-0.1c0,0,0.1,0,0.1,0c1.1,2,1.8,4.1,2.3,6.4
		c0.6-0.2,1.2-0.4,1.7-0.6c0.8-0.3,1.5-0.6,2.3-0.9c0.8-0.3,1.5-0.6,2.2-1c0.4-0.2,0.9-0.4,1.3-0.7c0.3-1.8,0.6-3.5,1-5.3
		c0.2-1.1,0.4-2.2,0.7-3.2c0.2-1.1,0.4-2.2,0.7-3.2c0-0.1,0.1-0.1,0.1-0.1c0,0,0.1,0.1,0.1,0.1c-0.1,1.2-0.2,2.4-0.3,3.7
		c0,0.4,0,1,0.1,1.4c0.2,0.9,0.5,1.7,0.8,2.6c0.5,1.2,1.2,2.4,1.7,3.6c0.3,0.6,0.6,1.3,0.7,2c0.1,0.6,0.4,1.3,0.7,1.9
		c0.6,1.2,1.4,2.4,1.9,3.7c0.6,1.3,0.9,2.7,1,4.1c0.1,0.7,0.1,1.3,0.2,2c0.1,0.7,0.2,1.3,0.3,2c0.3,2.2,0.8,4.4,1.3,6.6l0,0.1
		l1.6,3.5c0.6,1.1,1.1,2.3,1.7,3.4c1.2,2.3,2.4,4.5,3.8,6.6c0.7,1.1,1.4,2.1,2.2,3.1c0.2,0.2,0.4,0.5,0.6,0.7
		c0.2,0.2,0.5,0.4,0.6,0.4c0,0,0,0,0.1,0l0.2,0l0.5,0l1,0l3.8-0.1l3.8-0.1c2.1-0.1,4.2-0.1,6.3-0.1c-0.2-0.6-0.5-1.1-0.8-1.6
		c-0.6-0.9-1.2-1.6-2-2.2c-0.8-0.6-1.7-1.1-2.7-1.3c-1-0.2-2-0.3-3-0.3l-0.1,0l0,0c-0.5,0-1-0.2-1.3-0.5c-0.3-0.2-0.6-0.5-0.8-0.7
		c-0.5-0.5-0.8-1.1-1.1-1.6c-0.6-1.1-1.1-2.2-1.5-3.3c-0.8-2.2-1.4-4.4-2-6.6c-0.6-2.2-1.2-4.5-1.6-6.7c-0.3-1.7-0.6-3.4-0.7-5.2
		c-0.1-1.1-0.2-1.8-0.6-3c-0.4-1-0.6-2.1-0.9-3.1c-0.4-1.8-0.7-3.6-0.7-5.4c0-0.9,0.1-1.9,0.4-2.9c0.1-0.5,0.4-1,0.6-1.4
		c0.2-0.4,0.5-0.8,0.8-1.2c1.1-1.6,2.8-2.7,4.3-3.7c1.5-0.9,3.1-1.7,4.4-2.8c1.3-0.8,2-2.3,2.7-3.9c1.2-3.1,1.8-6.5,2.4-9.9
		c-0.7,0-1.4,0-2.2-0.1c-0.8,0.1-1.5,0.1-2.3,0c-0.9-0.1-1.9-0.2-2.8-0.6c-1.9-0.5-3.4-1.8-4.9-3c-0.4-0.3-0.7-0.6-1.1-1l-1-1
		c-0.3-0.4-0.6-0.7-0.9-1.1c-0.3-0.4-0.5-0.8-0.8-1.2c-0.2-0.4-0.5-0.8-0.7-1.2c-0.2-0.4-0.4-0.8-0.6-1.3c-0.4-0.9-0.6-1.8-0.8-2.7
		l0,0c0-0.1,0-0.1,0.1-0.1c0,0,0.1,0,0.1,0.1c0.7,1.7,1.6,3.3,2.7,4.6c0.2,0.3,0.4,0.5,0.7,0.8c0.9,0.8,2,1.3,3.1,1.7
		c1.5,0.5,3.1,0.8,4.7,0.9c3.2,0.1,6.5-0.4,9.5-1.5c1.5-0.5,3-1.2,4.3-2.1c0.7-0.4,1.4-0.8,2-1.3l0.5-0.3c0.2-0.1,0.4-0.3,0.6-0.4
		c0.4-0.2,0.9-0.4,1.4-0.4c0.2,0,0.5,0,0.7,0l0.6,0.1c0.4,0.1,0.8,0.1,1.2,0.2c0.8,0.2,1.7,0.4,2.4,0.7c0.8,0.3,1.6,0.8,2.1,1.5
		c0.3,0.4,0.4,0.8,0.5,1.2l0.3-0.1c0.4-0.1,0.8-0.3,1-0.7c0-0.1,0-0.1,0.1-0.2l0.1-0.2l0.2-0.5l0.4-0.9c-0.7-0.2-0.6-1.7-1.9-3.2
		c-1.4-1.7,0.6-3.5,1.7-3.6c-0.2-0.4-0.5-0.7-0.7-1.1c-1-1.4-2-2.7-3.2-3.8c-2.3-2.4-5.1-4.4-7.9-6c-2.8-1.6-5.9-2.7-9.1-3.5
		c-2.4-0.6-5.6-1.3-8.6-1.6c-1.1-0.1-2.1,0.9-2,2c0.1,0.9,0.2,1.8,0.5,2.8l0,0c0,0.1,0,0.1-0.1,0.1c0,0-0.1,0-0.1-0.1
		c-0.8-1.5-1.3-3.1-1.6-4.7c-0.3-1.6-0.5-3.3-0.6-4.9c-0.1-1.7,0-3.3,0.1-5c0.1-1.5,0-3.1-0.3-4.6c-0.3-1.5-0.7-3.1-1.3-4.5
		c-0.6-1.5-1.4-2.8-2.5-4c-1.1-1.1-2.5-2.1-4-2.4c-1.5-0.3-3.1,0-4.4,0.8c-1.4,0.7-2.5,1.7-3.2,3c-0.7,1.3-1,2.7-0.9,4.2
		c0,1.5,0.4,3,0.9,4.5c0.5,1.5,1.1,2.9,1.9,4.3c0.7,1.4,1.6,2.7,2.5,4c0.9,1.3,1.9,2.5,3,3.6c0.6,0.5,1.2,1,1.8,1.4
		c0.6,0.4,1.3,0.8,2,1.3c0.7,0.5,1.4,1.1,1.8,1.9c0.4,0.8,0.6,1.6,0.7,2.4c0,0,0,0,0,0c0,0,0,0,0,0c0,0.1,0,0.1-0.1,0.1
		c0,0-0.1,0-0.1,0c-0.5-0.8-1-1.4-1.7-1.9c-0.7-0.5-1.4-0.9-2.2-1.3c-0.6-0.3-1.2-0.5-1.9-0.8c-0.5,0.7-0.9,1.5-1.4,2.2
		c-0.7,1.1-1.3,2.2-1.9,3.4c-0.6,1.2-1.2,2.3-1.6,3.5c-0.5,1.2-0.9,2.4-1.1,3.6l0,0l0,0.1c-0.7,1.9-2.3,3.6-4.4,4.1
		c-0.3,0.1-0.5,0.1-0.8,0.1c-0.3,0-0.6,0-0.7,0c-0.4,0-0.9,0.1-1.3,0.1c-0.9,0.1-1.8,0.2-2.7,0.3c-1.8,0.2-3.6,0.5-5.4,0.8
		c-1.8,0.3-3.6,0.7-5.2,1.2l-0.2,0l-0.1,0c-1.3,0-2.5-0.1-3.7-0.2c-1.2-0.1-2.4-0.1-3.7-0.1c-2.4,0-4.9,0.1-7.3,0.3
		c-4.9,0.5-9.7,1.5-14.1,3.7c-0.5,0.3-1.1,0.5-1.6,0.8l-1.6,1l-0.8,0.5c-0.2,0.2-0.5,0.4-0.7,0.6l-1.4,1.1c-1.9,1.5-3.6,3.3-5.1,5.2
		c-1.5,1.9-2.8,3.9-4,6.1l-0.8,1.6c-0.3,0.5-0.5,1.1-0.7,1.7L7.8,71l-0.3,0.9l-0.6,1.7c-0.6,2.3-1.2,4.7-1.4,7.1
		c-0.1,0.6-0.1,1.2-0.2,1.8l-0.1,1.8c-0.1,1.2,0,2.4,0.1,3.6C5.8,92.5,7,97.3,8.8,101.8z M102.5,33.8c2.2,0.7,3.1,4.2,3.1,4.2
		s-2.7,2.4-4.9,1.7c-2.2-0.7-3.1-4.2-3.1-4.2S100.3,33.1,102.5,33.8z"/>
	<path class="st0" d="M89.8,89.6c0-0.2,0-0.4,0-0.6c-0.2,0.2-0.4,0.5-0.6,0.7c-0.8,1.1-1.2,2.4-1.5,3.8c-0.1,0.5-0.1,0.9-0.1,1.4
		c0.3,2,0.5,4,1,5.9c0.6,2.2,1.4,4.3,2.1,6.5c0.7,2.2,1.5,4.3,2.3,6.4c0.4,1,0.9,2,1.5,2.9c0.3,0.4,0.6,0.9,0.9,1.2
		c0.3,0.3,0.6,0.5,0.7,0.5c1.2-0.1,2.4,0,3.6,0.3c1.2,0.3,2.4,0.9,3.4,1.7c1,0.8,1.8,1.8,2.5,2.9c0.2,0.3,0.4,0.7,0.5,1
		c1.2-0.2,2.5-0.3,3.7-0.4c-0.3-0.9-0.8-1.7-1.5-2.5c-0.8-1-1.8-1.8-2.8-2.6c-1-0.8-2.1-1.4-3.3-1.9c-1.2-0.5-2.4-0.9-3.6-1l-0.3,0
		l-0.2-0.2c-0.6-0.5-0.9-1.1-1.2-1.7c-0.3-0.6-0.6-1.1-0.8-1.7c-0.5-1.2-0.9-2.3-1.3-3.5c-0.8-2.3-1.7-4.5-2.7-6.8
		c-0.5-1.1-0.9-2.3-1.2-3.5c-0.3-1.2-0.6-2.4-0.8-3.6c-0.2-1.2-0.4-2.4-0.5-3.6C89.8,90.8,89.8,90.2,89.8,89.6z"/>
	<path class="st3" d="M19.3,121.8c-1.4,0.2-3,0.1-4.3-0.5c-0.3-0.1-0.7-0.3-1-0.4c-0.3-0.1-0.6-0.3-1-0.4l-1-0.4
		c-0.4-0.1-0.7-0.3-1-0.4c-0.6-0.4-1.2-0.9-1.6-1.5c-0.3-0.5-0.6-0.9-0.8-1.5c0,0,0,0,0,0.1c-0.1,0.2-0.1,0.4,0,0.8
		c0.1,0.7,0.3,1.4,0.6,2c0.6,1.3,1.6,2.4,2.8,3c0.6,0.3,1.2,0.6,1.9,0.8c0.6,0.2,1.3,0.3,1.9,0.4c1.3,0.2,2.7,0.1,4.1,0.1
		c1.4,0,2.8-0.1,4.1-0.3c1.2-0.2,2.4-0.4,3.5-0.8c0.1-0.2,0.1-0.3,0.2-0.5c-1.6-0.5-3.2-1.1-4.8-1.9C21.8,121,20.6,121.6,19.3,121.8
		z"/>
	<path class="st1" d="M58.8,89.2c0,1.7-0.2,3.3-0.6,5c-0.8,2.8-2.3,5.4-4.3,7.5c-2.1,2-4.7,3.5-7.3,4.5c-1.3,0.5-2.5,1.2-3.6,2.1
		c-1.1,0.9-2,2-2.5,3.2c-0.6,1.2-0.8,2.6-1.2,4c-0.1,0.4-0.3,0.7-0.5,1.1l-0.5,0.9c-0.3,0.6-0.7,1.2-1,1.8c-0.3,0.6-0.6,1.2-0.6,1.8
		c0,0.3,0,0.5,0.1,0.7c0.1,0.1,0.2,0.2,0.4,0.3c0.2,0.1,0.5,0.2,0.9,0.2c0.3,0.1,0.7,0.1,1,0.1c0.7,0.1,1.4,0.1,2.1,0.2
		c2.8,0.2,5.6,0.2,8.3,0.1c0.7,0,1.4-0.1,2.1-0.1c0.7-0.1,1.4-0.2,2-0.4c0.6-0.3,1.2-0.6,1.6-1.1c0.2-0.2,0.4-0.5,0.4-0.8
		c0,0,0-0.1,0-0.1c-2.9,0.2-5.8,0.5-8.7,0.7c-0.8,0-1.6,0.1-2.4,0.1c-0.4,0-0.8,0-1.2,0c-0.2,0-0.4,0-0.7-0.1
		c-0.3,0-0.6-0.1-0.9-0.3c-0.2-0.1-0.4-0.3-0.5-0.6c-0.1-0.1-0.1-0.3-0.2-0.4c0-0.1,0-0.3,0-0.4c0-0.5,0.2-0.8,0.3-1
		c0.3-0.5,0.6-0.8,0.9-1.1c0.6-0.6,1.2-1.1,1.9-1.6l0,0l0,0c1.3-0.8,2.7-1.7,4-2.7c1.3-0.9,2.6-1.9,3.8-2.9c1.2-1,2.4-2.1,3.5-3.3
		c1.1-1.2,2-2.4,2.6-3.8c0.2-0.3,0.3-0.7,0.4-1l0.1-0.5l0.1-0.6c0.1-0.8,0.2-1.6,0.3-2.4c0.2-1.6,0.3-3.2,0.2-4.8
		C59.1,91.9,59,90.6,58.8,89.2z"/>
	<path class="st1" d="M75.4,100.3c-0.1-0.7-0.1-1.4-0.1-2.1c-0.1-1.3-0.3-2.6-0.5-3.9c-0.2-0.7-0.3-1.3-0.6-1.9
		c-0.3-0.6-0.6-1.2-0.9-1.8c-0.3-0.6-0.7-1.2-1-1.9c-0.2-0.5-0.7-1.1-1-1.7c-0.7-1.2-1.4-2.4-1.8-3.8c-0.1-0.2-0.1-0.5-0.2-0.7
		c-0.2,1.9-0.4,3.8-0.6,5.7c2.2,4.5,4.5,9.1,6.6,13.7l0.6,1.3c-0.1-0.2-0.1-0.5-0.2-0.7C75.5,101.7,75.4,101,75.4,100.3z"/>
	<path class="st1" d="M67.2,88.5l-0.1-0.2l0-0.2c0,0,0-0.1,0-0.1c-0.2,0.2-0.3,0.3-0.5,0.5c-0.7,0.5-1.5,1-2.3,1.3
		c-0.8,0.3-1.7,0.5-2.6,0.6c-0.6,0.1-1.2,0.1-1.9,0c0.2,0.9,0.3,1.8,0.4,2.7c0.2,1.7,0.2,3.3,0.1,5c0,0.8-0.1,1.7-0.2,2.5l-0.1,0.6
		l0,0.1c0,0,0.1,0,0.1,0c0.6-0.3,1.2-0.5,1.7-0.7c0.6-0.2,1.2-0.3,1.8-0.5c0.6-0.1,1.2-0.2,1.8-0.4c1.2-0.3,2.4-0.6,3.6-1
		c0.8-0.3,1.6-0.5,2.4-0.9c-0.4-0.8-0.7-1.6-1.1-2.3C69.2,93.3,68.2,90.9,67.2,88.5z"/>
	<path class="st0" d="M12.4,119.3c0.3,0.2,0.5,0.5,0.8,0.6c0.3,0.2,0.6,0.3,0.9,0.4c0.3,0.1,0.7,0.2,1,0.2c0.3,0,0.7,0,1,0
		c0.3,0,0.7,0,1,0c0.7-0.1,1.3-0.1,2-0.2c0.3,0,0.7,0,1-0.1c0.3-0.1,0.7-0.1,1-0.1c0.4,0,0.7-0.1,1.1-0.2c-0.2-0.1-0.5-0.3-0.7-0.4
		c-2-1.1-3.8-2.5-5.5-4.1c-0.5,0.4-1,0.8-1.6,1c-0.4,0.2-0.8,0.3-1.2,0.3c-0.4,0-0.9,0-1.3-0.1c-0.4-0.1-0.8-0.3-1.2-0.5
		c-0.2-0.1-0.3-0.2-0.4-0.2c-0.1,0-0.2-0.1-0.3-0.1c-0.4-0.1-0.8,0.1-1.1,0.3c0,0,0,0.1-0.1,0.1c1,0.9,1.9,1.6,2.8,2.4
		C11.9,118.9,12.1,119.1,12.4,119.3z"/>
	<path class="st4" d="M100.7,39.7c2.2,0.7,4.9-1.7,4.9-1.7s-0.9-3.5-3.1-4.2c-2.2-0.7-4.9,1.7-4.9,1.7S98.5,39,100.7,39.7z"/>
	<path class="st0" d="M86.5,32.3c0,0,1.2-3.1,4.3-1.3c-1-3.5-2.1-7-1.5-10.9s0.6-10.7-2-13.8S81-1.1,76.8,0.9
		c-4.2,2-6.9,5.8-5.2,11.2s2.2,8.7,5,10.3c2.8,1.6,6.7,6.1,7.8,6.5C85.4,29.3,86.5,32.3,86.5,32.3z"/>
	<path class="st5" d="M90.4,29.9c0,0,7.4-0.7,13.6,1.1c6.2,1.8,14.9,7.5,16.4,8.7c-5.4-6-9.1-10.6-14.5-11.6c-5.4-1-12-2.8-15.5-2.2
		c-0.5,1.3-0.5,2.4-0.5,2.4L90.4,29.9z"/>
	<path class="st6" d="M88,54.4c0,0,0.4,5,3.2,7.9c2.8,2.9,4.2,6.8-0.4,9.4c-4.5,2.7-8.3,10.7-4.9,17.9c-0.2-6.8-0.9-8.9,2.5-11.1
		s8.3-4.8,9.2-6.8s2.6-7.6,2.5-9.2c-0.1-1.6,0.1-4.3,0.1-4.3s-4.5-0.2-7.1-1.3C90.7,55.9,88,54.4,88,54.4z"/>
	<path class="st7" d="M76.7,102.8c0,0,5.4,3,8.8,11.3c1.8,4.4,6.8,4.6,9.6,4.9c4.7,0.3,9.2,2.7,10.2,7.2c-4.9,0-16.2,0.6-16.3,0.7
		c-0.1,0-3.6-4.9-4.3-5.8c-0.7-0.9-8-13.5-8-14.3C76.6,106,76.7,102.8,76.7,102.8z"/>
	<path class="st7" d="M12.4,97.5c18.5-24.3,41.9-5.9,37.5,6.4c-3.7,1.4-9,5.4-9.5,7c-0.6,2.1-1.3,3.9-1.8,4.8
		c-1.8,2.8-4.2,5.1-2.5,6.2c1.7,1.1,10.6,2,12.1,1.4s5.5-0.4,6.3-1.4s1.8-3,1.8-3s7.3,0.3,8.1,0.8c0.8,0.6,4.9,0.8,5.9,6.4
		c0.2,0.3,0.3,0.9,0.1,0.8c-0.2,0-26.9-0.1-28.2-0.2c-1.3-0.1-10.8-0.5-12-1s-2-1.3-2-1.9c0-0.6,0.3-2.4,1.1-2.7s2.5-1.3,2.5-2.9
		s-0.2-2.8-1-4s-2.3-3.9-2.3-3.9S8.9,102,12.4,97.5z"/>
	<path class="st7" d="M18.8,55.2c0,0-7.3,6.9-10.7,18.9c-3.3,11.3,0.6,27.4,20.3,36.3c2.7,3.9,4.6,7.4,3.1,9.1s-2.6,3-3,3
		c-0.3,0-8-3.2-11.3-6.6S4.8,99,4.3,87.8s1.9-18.2,4.8-21.9c2.9-3.7,7.2-9.1,7.4-9.1c0.2-0.1,2.3-1.9,2.3-1.9"/>
	<path class="st8" d="M90.8,31c-0.2-0.4-1.6-8.6-1.6-11.6s-0.5-10.6-1.4-12s-4.5-6.9-7.4-6.8c-6.8,0.3-4.1,11.9-0.7,13.8
		c3.4,1.8,3.8,4.6,3.5,6C82.5,24.5,90.8,31,90.8,31z"/>
	<path class="st4" d="M3.1,88c0.2,2.5,0.7,5,1.4,7.5c0.7,2.4,1.5,4.8,2.5,7.1c2,4.6,4.8,8.9,8.5,12.4c0.1,0,0.1,0.1,0.2,0.1
		c-1.2,0.3-2.5,0.5-3.3,0c-0.2-0.1-0.5-0.3-0.7-0.5c-0.1-0.1-0.3-0.2-0.5-0.4c-0.2-0.1-0.5-0.2-0.7-0.3c-1.1-0.3-2.2,0.2-2.8,1.1
		c-0.3,0.4-0.5,1-0.5,1.5c0,0.5,0.2,1,0.4,1.3c0.3,0.7,0.7,1.3,1.1,2c0.7,1.3,1.6,2.5,2.7,3.6c1.1,1.1,2.6,1.9,4.1,2.2
		c1.5,0.4,3,0.5,4.5,0.4c1.5-0.1,3-0.4,4.4-0.9c0.7-0.3,1.4-0.6,2.1-1c0.3-0.2,0.6-0.4,0.8-0.6l0,0.4c0,0.1,0,0.2,0,0.4
		c0,0.1,0,0.3,0.1,0.4c0.1,0.3,0.2,0.5,0.4,0.7c0.6,0.7,1.3,1,1.9,1.2c1.3,0.4,2.6,0.7,3.8,0.8c2.5,0.3,5,0.4,7.5,0.3
		c4.9,0,9.9-0.2,14.9-0.3c5-0.1,9.9-0.1,14.9,0l0.4,0l0-0.4c-0.1-0.8-0.3-1.6-0.6-2.4c-0.3-0.7-0.7-1.5-1.2-2.1
		c-1-1.3-2.4-2.3-3.8-2.9c-0.4-0.2-0.7-0.3-1.1-0.4c-0.4-0.1-0.8-0.2-1.2-0.3c-0.8-0.1-1.6-0.3-2.4-0.4c-1.6-0.2-3.1-0.1-4.7-0.1
		c-3.1,0.1-6.2,0.3-9.2,0.4c-0.8,0-1.5,0-2.3,0c-0.4,0-0.7,0-1.1,0c0,0-0.1,0-0.1,0c0.1-0.1,0.2-0.2,0.3-0.4
		c0.5-0.5,1.1-0.9,1.6-1.3c2.9-1.7,5.5-3.6,8-5.8c1.3-1.1,2.5-2.3,3.6-3.6c1.1-1.3,2.1-2.7,2.8-4.4c0.1-0.2,0.1-0.4,0.2-0.6
		c0.9,0.1,1.8,0,2.6-0.1c1.3-0.2,2.5-0.8,3.6-1.2c1.2-0.5,2.4-1,3.5-1.6c0.7-0.4,1.5-0.9,2.2-1.3c0.7,1.4,1.3,2.8,2.1,4.1
		c1.2,2.3,2.4,4.5,3.7,6.8l1.9,3.4l1.9,3.4c1.2,2.2,2.5,4.5,3.8,6.7c0.7,1.1,1.3,2.2,2.1,3.3c0.2,0.3,0.4,0.5,0.7,0.8
		c0.3,0.2,0.5,0.5,0.9,0.7c0.1,0,0.3,0.1,0.4,0.1l0.2,0l0.5,0l1,0l3.8,0.1l3.8,0.1c2.6,0.1,5.1,0.1,7.7,0.1l1.3,0l-0.3-1.2
		c-0.2-0.7-0.4-1.4-0.7-2c1.5,0.2,3,0.4,4.5,0.5l0.8,0.1l0-0.9c-0.1-1.6-0.7-3-1.6-4.2c-0.8-1.2-1.9-2.3-3.1-3.1
		c-1.2-0.9-2.5-1.6-3.8-2.1c-1.3-0.5-2.6-0.8-4.1-0.8c-0.3-0.2-0.6-0.6-0.9-0.9c-0.3-0.5-0.7-0.9-1-1.4c-0.6-1-1.2-2.1-1.6-3.2
		c-1-2.2-1.5-4.6-1.9-7c-0.2-1.2-0.5-2.4-0.8-3.5L92,94.7l-1-3.5c-0.2-0.9-0.5-1.9-0.7-2.8c0.7-0.8,1.5-1.6,2.3-2.4
		c2.5-2.4,4.8-5.1,7.3-7.6c0.6-0.6,1.2-1.3,1.8-2c0.6-0.7,1.1-1.5,1.5-2.4c0.7-1.8,0.9-3.7,0.9-5.5c-0.1-1.9-0.5-3.7-1.1-5.4
		c-0.3-0.9-0.7-1.7-1.1-2.5c-0.4-0.7-0.7-1.3-1.2-1.9c0.2,0,0.4,0,0.6,0c1.3-0.1,2.7-0.4,4-0.8c1.3-0.4,2.6-0.8,3.8-1.4
		c0.6-0.3,1.2-0.6,1.8-1c0.3-0.2,0.6-0.4,0.9-0.6c0.2-0.1,0.3-0.2,0.5-0.4l0.2,0c0.2,0,0.4,0,0.6,0c0.4,0,0.7-0.1,1.1-0.1
		c0.7-0.1,1.5-0.2,2.2-0.3c1.4-0.2,2.9-0.5,4.3-0.8c1-0.2,1.9-0.8,2.4-1.7c0.1-0.1,0.1-0.2,0.2-0.3l0.1-0.3l0.2-0.5l0.4-1
		c0.3-0.7,0.5-1.4,0.7-2.1c0.1-0.4,0.2-0.7,0.3-1.1c0.1-0.4,0.1-0.8,0.1-1.4l0-0.1l0,0c-0.3-1-0.8-1.7-1.3-2.4
		c-0.5-0.7-1.1-1.4-1.6-2c-1.1-1.3-2.3-2.5-3.5-3.7c-1.2-1.2-2.4-2.4-3.7-3.5c-1.2-1.2-2.5-2.3-3.9-3.3c-1.4-1-3-1.9-4.6-2.5
		c-1.6-0.6-3.3-1.1-5-1.4c-3.1-0.6-7.9-0.9-11.3-0.7C90,24,90,22.6,90,21.3c0-1.6,0.1-3.2,0.3-4.8c0.2-1.7,0-3.5-0.4-5.1
		c-0.4-1.6-1.1-3.2-1.9-4.7c-0.9-1.4-1.9-2.8-3.1-4c-1.2-1.2-2.6-2.1-4.3-2.6C79.8,0,78.9,0,78.1,0c-0.9,0.1-1.7,0.3-2.5,0.6
		c-0.7,0.3-1.4,0.6-2,1c-1.6,0.2-3.2,0.8-4.5,2c-1.5,1.3-2.5,3.2-2.7,5.2c-0.2,2,0.4,3.8,1,5.5c0.6,1.7,1.4,3.4,2.2,5
		c0.9,1.6,2,3.1,3.3,4.5c1.3,1.3,2.9,2.5,4.5,3.3c0.9,0.5,1.8,0.8,2.7,1.2c-0.5,0.7-1,1.3-1.5,2c-0.8,1.1-1.5,2.1-2.2,3.3
		c-1.3,2.2-2.6,4.6-3.2,7.2c-0.6,1.5-1.9,2.7-3.5,3c-0.2,0-0.4,0.1-0.6,0.1l-0.6,0c-0.5,0-1,0-1.4,0.1c-0.9,0.1-1.9,0.1-2.8,0.2
		c-1.8,0.2-3.7,0.4-5.5,0.8c-1.8,0.3-3.6,0.7-5.3,1.3c-0.5,0-1.1,0-1.7,0l-1.9,0c-1.2,0-2.5,0-3.7,0.1c-2.5,0.1-5,0.4-7.4,0.7
		c-4.9,0.7-9.8,1.9-14.3,4c-0.6,0.3-1.1,0.5-1.7,0.8l-1.6,0.9l-0.8,0.5c-0.3,0.2-0.5,0.4-0.8,0.5l-1.5,1.1c-2,1.4-3.9,3.2-5.6,5
		c-3.4,3.7-5.9,8.2-7.5,13c-0.7,2.4-1.4,4.9-1.7,7.4c-0.1,0.6-0.2,1.3-0.2,1.9l-0.1,1.9C3,84.8,3,85.4,3,86.1
		C3,86.7,3.1,87.3,3.1,88z M8.9,116.1c0.3-0.3,0.7-0.4,1.1-0.3c0.1,0,0.2,0.1,0.3,0.1c0.1,0.1,0.2,0.1,0.4,0.2
		c0.4,0.2,0.7,0.4,1.2,0.5c0.4,0.1,0.9,0.2,1.3,0.1c0.4,0,0.8-0.1,1.2-0.3c0.6-0.2,1.2-0.6,1.6-1c1.7,1.6,3.5,3,5.5,4.1
		c0.2,0.1,0.5,0.3,0.7,0.4c-0.4,0.1-0.7,0.1-1.1,0.2c-0.3,0-0.7,0.1-1,0.1c-0.3,0.1-0.7,0.1-1,0.1c-0.6,0.1-1.3,0.1-2,0.2
		c-0.3,0-0.7,0-1,0c-0.3,0-0.7,0-1,0c-0.3,0-0.7-0.1-1-0.2c-0.3-0.1-0.6-0.2-0.9-0.4c-0.3-0.1-0.6-0.4-0.8-0.6
		c-0.3-0.2-0.5-0.5-0.7-0.7C10.7,117.8,9.8,117.1,8.9,116.1C8.8,116.2,8.8,116.2,8.9,116.1z M27.4,122.7c-1.1,0.4-2.3,0.7-3.5,0.8
		c-1.4,0.2-2.8,0.3-4.1,0.3c-1.4,0-2.7,0.1-4.1-0.1c-0.7-0.1-1.3-0.2-1.9-0.4c-0.6-0.2-1.3-0.4-1.9-0.8c-1.2-0.7-2.2-1.7-2.8-3
		c-0.3-0.6-0.5-1.3-0.6-2c-0.1-0.4-0.1-0.6,0-0.8c0,0,0,0,0-0.1c0.2,0.5,0.5,1,0.8,1.5c0.5,0.6,1,1.1,1.6,1.5c0.3,0.2,0.7,0.3,1,0.4
		l1,0.4c0.3,0.1,0.6,0.3,1,0.4c0.3,0.1,0.6,0.3,1,0.4c1.3,0.6,2.9,0.7,4.3,0.5c1.3-0.2,2.5-0.7,3.5-1.5c1.5,0.8,3.1,1.4,4.8,1.9
		C27.5,122.3,27.4,122.5,27.4,122.7z M58.9,98c-0.1,0.8-0.2,1.6-0.3,2.4l-0.1,0.6l-0.1,0.5c-0.1,0.3-0.2,0.7-0.4,1
		c-0.6,1.4-1.6,2.6-2.6,3.8c-1.1,1.2-2.2,2.2-3.5,3.3c-1.2,1-2.5,2-3.8,2.9c-1.3,0.9-2.7,1.8-4,2.7l0,0l0,0c-0.7,0.5-1.3,1-1.9,1.6
		c-0.3,0.3-0.6,0.6-0.9,1.1c-0.1,0.2-0.3,0.5-0.3,1c0,0.1,0,0.3,0,0.4c0,0.1,0.1,0.3,0.2,0.4c0.1,0.3,0.4,0.5,0.5,0.6
		c0.4,0.2,0.7,0.3,0.9,0.3c0.3,0,0.5,0,0.7,0.1c0.4,0,0.8,0,1.2,0c0.8,0,1.6-0.1,2.4-0.1c2.9-0.2,5.8-0.5,8.7-0.7c0,0,0,0.1,0,0.1
		c0,0.3-0.2,0.6-0.4,0.8c-0.4,0.5-1,0.8-1.6,1.1c-0.6,0.2-1.3,0.3-2,0.4c-0.7,0.1-1.4,0.1-2.1,0.1c-2.8,0.1-5.6,0.1-8.3-0.1
		c-0.7,0-1.4-0.1-2.1-0.2c-0.3,0-0.7-0.1-1-0.1c-0.3-0.1-0.6-0.1-0.9-0.2c-0.2-0.1-0.3-0.2-0.4-0.3c-0.1-0.1-0.1-0.4-0.1-0.7
		c0.1-0.6,0.3-1.2,0.6-1.8c0.3-0.6,0.6-1.2,1-1.8l0.5-0.9c0.2-0.3,0.3-0.7,0.5-1.1c0.4-1.4,0.6-2.8,1.2-4c0.6-1.2,1.4-2.3,2.5-3.2
		c1.1-0.9,2.3-1.6,3.6-2.1c2.6-1,5.2-2.4,7.3-4.5c2.1-2,3.6-4.7,4.3-7.5c0.4-1.6,0.6-3.3,0.6-5c0.2,1.3,0.3,2.7,0.4,4
		C59.2,94.8,59.1,96.4,58.9,98z M69.1,98.8c-1.2,0.4-2.4,0.7-3.6,1c-0.6,0.1-1.2,0.3-1.8,0.4c-0.6,0.1-1.2,0.3-1.8,0.5
		c-0.6,0.2-1.2,0.4-1.7,0.7c0,0-0.1,0-0.1,0l0-0.1l0.1-0.6c0.1-0.8,0.2-1.7,0.2-2.5c0.1-1.7,0.1-3.3-0.1-5c-0.1-0.9-0.2-1.8-0.4-2.7
		c0.6,0.1,1.2,0.1,1.9,0c0.9-0.1,1.7-0.3,2.6-0.6c0.8-0.3,1.6-0.8,2.3-1.3c0.2-0.1,0.4-0.3,0.5-0.5c0,0,0,0.1,0,0.1l0,0.2l0.1,0.2
		c1,2.4,2.1,4.7,3.2,7c0.4,0.8,0.7,1.6,1.1,2.3C70.7,98.2,69.9,98.5,69.1,98.8z M75.2,101.7c-2.1-4.6-4.4-9.1-6.6-13.7
		c0.2-1.9,0.4-3.8,0.6-5.7c0.1,0.2,0.1,0.5,0.2,0.7c0.4,1.4,1,2.6,1.8,3.8c0.4,0.6,0.8,1.1,1,1.7c0.3,0.7,0.7,1.3,1,1.9
		c0.3,0.6,0.6,1.2,0.9,1.8c0.2,0.6,0.4,1.3,0.6,1.9c0.3,1.3,0.5,2.6,0.5,3.9c0,0.6,0,1.4,0.1,2.1c0.1,0.7,0.2,1.4,0.3,2.1
		c0.1,0.2,0.1,0.5,0.2,0.7L75.2,101.7z M90.4,95.1c0.2,1.2,0.5,2.4,0.8,3.6c0.3,1.2,0.7,2.3,1.2,3.5c0.9,2.3,1.9,4.5,2.7,6.8
		c0.4,1.1,0.8,2.3,1.3,3.5c0.2,0.6,0.5,1.1,0.8,1.7c0.3,0.6,0.6,1.1,1.2,1.7l0.2,0.2l0.3,0c1.2,0.1,2.4,0.5,3.6,1
		c1.2,0.5,2.3,1.2,3.3,1.9c1,0.8,2,1.6,2.8,2.6c0.6,0.8,1.2,1.6,1.5,2.5c-1.2,0.1-2.5,0.3-3.7,0.4c-0.2-0.3-0.3-0.7-0.5-1
		c-0.6-1.1-1.5-2.1-2.5-2.9c-1-0.8-2.2-1.4-3.4-1.7c-1.2-0.3-2.4-0.4-3.6-0.3c-0.1,0-0.4-0.2-0.7-0.5c-0.3-0.3-0.6-0.8-0.9-1.2
		c-0.5-0.9-1-1.9-1.5-2.9c-0.9-2.1-1.6-4.2-2.3-6.4c-0.7-2.2-1.5-4.3-2.1-6.5c-0.6-1.9-0.7-3.9-1-5.9c-0.1-0.5-0.1-1,0.1-1.4
		c0.4-1.4,0.7-2.6,1.5-3.8c0.2-0.2,0.4-0.5,0.6-0.7c0,0.2,0,0.4,0,0.6c0,0.6,0,1.2,0.1,1.8C90,92.7,90.1,93.9,90.4,95.1z
		 M101.3,63.6c0.3,1.7,0.5,3.4,0.7,5c0.2,1.7,0.1,3.3-0.2,4.9c-0.1,0.8-0.4,1.6-0.8,2.4c-0.4,0.7-1,1.4-1.5,2.1
		c-1.2,1.3-2.5,2.4-4,3.4c-1.4,1-2.9,2.1-4.2,3.3c-1.3,1.3-2.5,2.7-3.4,4.3c-0.7,1.4-1.2,2.9-1.2,4.4c-0.2-1.2-0.4-2.5-0.5-3.7
		c-0.2-1.7-0.2-3.5-0.1-5.2c0.1-0.8,0.2-1.7,0.5-2.4c0.3-0.7,0.8-1.4,1.3-2c1-1.3,2.4-2.2,3.9-3.1c1.5-0.9,3.1-1.8,4.6-2.9l0.3-0.2
		l0.3-0.3c0.2-0.2,0.4-0.4,0.5-0.6c0.3-0.4,0.6-0.8,0.8-1.2c0.5-0.9,0.8-1.7,1.1-2.6c0.5-1.8,0.8-3.6,0.9-5.4c0.1-1.7,0.1-3.3,0-5
		C100.7,60.4,101.1,62,101.3,63.6z M116.1,52l-2.1,0.3c-0.3,0-0.7,0.1-1,0.1c-0.2,0-0.3,0-0.5,0l-0.2,0c-0.1,0-0.1,0-0.1,0l-0.8,0.2
		l-0.2,0.2c-0.1,0.1-0.3,0.3-0.5,0.5c-0.2,0.2-0.5,0.4-0.7,0.5c-0.5,0.4-1.1,0.7-1.6,1c-1.1,0.6-2.3,1.2-3.4,1.7
		c-1.2,0.5-2.4,0.9-3.6,1.2c0,0,0,0,0,0c-1.6,0.4-3.2,0.2-4.7-0.4c-0.1,0-0.1-0.1-0.2-0.1c-0.4-0.2-0.8-0.4-1.2-0.5
		c-0.4-0.1-0.8-0.3-1.2-0.5c-0.4-0.2-0.8-0.4-1.2-0.5c-0.4-0.2-0.8-0.4-1.2-0.6c-0.4-0.2-0.8-0.4-1.2-0.6c-0.4-0.2-0.8-0.4-1.1-0.7
		c-0.8-0.5-1.5-1.1-2.2-1.8c0.6,0.4,1.3,0.8,2,1.1c1.5,0.6,3.2,1,4.8,1.2c3.3,0.2,6.7-0.1,9.9-1.1c1.6-0.5,3.2-1.1,4.7-1.9
		c0.7-0.4,1.5-0.8,2.2-1.3l0.5-0.4c0.1-0.1,0.3-0.2,0.4-0.3c0.3-0.2,0.6-0.3,0.9-0.3c0.2,0,0.3,0,0.5,0l0.6,0c0.4,0,0.8,0.1,1.2,0.1
		c0.8,0.1,1.6,0.2,2.3,0.5c0.7,0.2,1.5,0.5,2,1l0.2,0.2l0.1,0.2c0.1,0.1,0.2,0.3,0.2,0.5L116.1,52z M74.3,22.4
		c-0.7-0.5-1.3-1.1-1.9-1.7c-0.6-0.6-1.2-1.2-1.8-1.9c-1.1-1.3-2-2.9-2.5-4.6c-0.4-1.7-0.3-3.5,0-5.1c0.2-0.8,0.4-1.6,0.7-2.3
		c0.3-0.7,0.8-1.4,1.3-2c0.5-0.5,1-1,1.6-1.4c-0.1,0.1-0.2,0.3-0.3,0.4c-1,1.5-1.4,3.3-1.5,5.1c0,3.5,1.2,6.8,2.8,9.8
		c0.8,1.5,1.8,2.9,2.8,4.2c0.3,0.4,0.6,0.8,1,1.2C75.7,23.5,75,23,74.3,22.4z M5.2,84.2l0.1-1.8c0-0.6,0.1-1.2,0.2-1.8
		c0.2-2.4,0.8-4.8,1.4-7.1l0.6-1.7L7.8,71l0.4-0.8c0.2-0.6,0.5-1.1,0.7-1.7l0.8-1.6c1.1-2.1,2.5-4.2,4-6.1c1.5-1.9,3.2-3.7,5.1-5.2
		l1.4-1.1c0.2-0.2,0.5-0.4,0.7-0.6l0.8-0.5l1.6-1c0.5-0.3,1.1-0.5,1.6-0.8c4.4-2.2,9.3-3.2,14.1-3.7c2.4-0.2,4.9-0.3,7.3-0.3
		c1.2,0,2.4,0.1,3.7,0.1c1.2,0.1,2.4,0.2,3.7,0.2l0.1,0l0.2,0c1.7-0.5,3.5-0.9,5.2-1.2c1.8-0.3,3.6-0.6,5.4-0.8
		c0.9-0.1,1.8-0.2,2.7-0.3c0.4,0,0.9-0.1,1.3-0.1c0.2,0,0.5,0,0.7,0c0.3,0,0.5-0.1,0.8-0.1c2.1-0.5,3.8-2.1,4.4-4.1l0-0.1l0,0
		c0.2-1.2,0.6-2.4,1.1-3.6c0.5-1.2,1-2.4,1.6-3.5c0.6-1.2,1.2-2.3,1.9-3.4c0.5-0.7,0.9-1.5,1.4-2.2c0.6,0.3,1.3,0.5,1.9,0.8
		c0.8,0.4,1.5,0.7,2.2,1.3c0.7,0.5,1.2,1.2,1.7,1.9c0,0,0.1,0.1,0.1,0c0.1,0,0.1-0.1,0.1-0.1c0,0,0,0,0,0c0,0,0,0,0,0
		c-0.1-0.8-0.3-1.6-0.7-2.4c-0.4-0.8-1.1-1.4-1.8-1.9c-0.7-0.5-1.4-0.9-2-1.3c-0.7-0.4-1.2-0.9-1.8-1.4c-1.1-1-2.1-2.3-3-3.6
		c-0.9-1.3-1.8-2.6-2.5-4c-0.7-1.4-1.4-2.8-1.9-4.3c-0.5-1.5-0.8-3-0.9-4.5c0-1.5,0.2-3,0.9-4.2c0.7-1.3,1.8-2.3,3.2-3
		c1.4-0.7,2.9-1.1,4.4-0.8c1.5,0.3,2.9,1.2,4,2.4c1.1,1.2,1.9,2.5,2.5,4c0.6,1.5,1,3,1.3,4.5c0.3,1.5,0.4,3.1,0.3,4.6
		c-0.1,1.7-0.2,3.3-0.1,5c0.1,1.7,0.3,3.3,0.6,4.9c0.4,1.6,0.8,3.2,1.6,4.7c0,0,0.1,0.1,0.1,0.1c0.1,0,0.1-0.1,0.1-0.1l0,0
		c-0.2-1-0.4-1.9-0.5-2.8c-0.1-1.1,0.8-2.1,2-2c3,0.3,6.2,0.9,8.6,1.6c3.2,0.9,6.3,2,9.1,3.5c2.9,1.6,5.6,3.6,7.9,6
		c1.2,1.2,2.2,2.5,3.2,3.8c0.3,0.4,0.5,0.7,0.7,1.1c-1.1,0.1-3.1,1.9-1.7,3.6c1.3,1.5,1.2,3,1.9,3.2l-0.4,0.9l-0.2,0.5l-0.1,0.2
		c0,0.1-0.1,0.1-0.1,0.2c-0.2,0.4-0.6,0.6-1,0.7l-0.3,0.1c0-0.4-0.2-0.9-0.5-1.2c-0.6-0.7-1.3-1.2-2.1-1.5c-0.8-0.3-1.6-0.6-2.4-0.7
		c-0.4-0.1-0.8-0.2-1.2-0.2l-0.6-0.1c-0.2,0-0.5,0-0.7,0c-0.5,0.1-1,0.2-1.4,0.4c-0.2,0.1-0.4,0.2-0.6,0.4l-0.5,0.3
		c-0.6,0.5-1.3,0.9-2,1.3c-1.4,0.8-2.8,1.5-4.3,2.1c-3,1.1-6.3,1.6-9.5,1.5c-1.6-0.1-3.2-0.3-4.7-0.9c-1.1-0.4-2.2-1-3.1-1.7
		c-0.2-0.3-0.4-0.5-0.7-0.8c-1.1-1.4-2-2.9-2.7-4.6c0,0-0.1-0.1-0.1-0.1c-0.1,0-0.1,0.1-0.1,0.1l0,0c0.2,0.9,0.4,1.8,0.8,2.7
		c0.2,0.4,0.4,0.8,0.6,1.3c0.2,0.4,0.4,0.8,0.7,1.2c0.3,0.4,0.5,0.8,0.8,1.2c0.3,0.4,0.6,0.8,0.9,1.1l1,1c0.3,0.3,0.7,0.6,1.1,1
		c1.5,1.2,3,2.5,4.9,3c0.9,0.3,1.9,0.4,2.8,0.6c0.8,0.1,1.5,0.1,2.3,0c0.7,0.1,1.4,0.1,2.2,0.1c-0.6,3.4-1.2,6.8-2.4,9.9
		c-0.6,1.6-1.4,3.1-2.7,3.9c-1.4,1-2.9,1.8-4.4,2.8c-1.5,0.9-3.2,2.1-4.3,3.7c-0.3,0.4-0.6,0.8-0.8,1.2c-0.2,0.4-0.5,0.9-0.6,1.4
		c-0.3,1-0.4,1.9-0.4,2.9c0,1.9,0.3,3.7,0.7,5.4c0.2,1.1,0.5,2.1,0.9,3.1c0.4,1.2,0.6,1.9,0.6,3c0.1,1.7,0.4,3.5,0.7,5.2
		c0.5,2.3,1,4.5,1.6,6.7c0.6,2.2,1.2,4.5,2,6.6c0.4,1.1,0.9,2.2,1.5,3.3c0.3,0.5,0.7,1.1,1.1,1.6c0.2,0.3,0.5,0.5,0.8,0.7
		c0.3,0.2,0.8,0.4,1.3,0.5l0,0l0.1,0c1,0,2.1,0.1,3,0.3c1,0.3,1.9,0.7,2.7,1.3c0.8,0.6,1.5,1.4,2,2.2c0.3,0.5,0.6,1.1,0.8,1.6
		c-2.1,0-4.2,0.1-6.3,0.1l-3.8,0.1l-3.8,0.1l-1,0l-0.5,0l-0.2,0c0,0,0,0-0.1,0c-0.1,0-0.4-0.2-0.6-0.4c-0.2-0.2-0.4-0.4-0.6-0.7
		c-0.8-0.9-1.6-2-2.2-3.1c-1.4-2.1-2.7-4.4-3.8-6.6c-0.6-1.1-1.2-2.3-1.7-3.4l-1.6-3.5l0-0.1c-0.5-2.2-1-4.4-1.3-6.6
		c-0.1-0.7-0.2-1.3-0.3-2c-0.1-0.7-0.1-1.3-0.2-2c-0.1-1.4-0.5-2.8-1-4.1c-0.6-1.3-1.3-2.5-1.9-3.7c-0.3-0.6-0.6-1.2-0.7-1.9
		c-0.2-0.8-0.5-1.4-0.7-2c-0.6-1.3-1.2-2.4-1.7-3.6c-0.3-0.8-0.6-1.7-0.8-2.6c0-0.4,0-1-0.1-1.4c0.1-1.2,0.2-2.4,0.3-3.7
		c0,0,0-0.1-0.1-0.1c-0.1,0-0.1,0-0.1,0.1c-0.2,1.1-0.5,2.1-0.7,3.2c-0.2,1.1-0.5,2.2-0.7,3.2c-0.3,1.8-0.7,3.5-1,5.3
		c-0.4,0.2-0.9,0.5-1.3,0.7c-0.7,0.3-1.5,0.7-2.2,1c-0.8,0.3-1.5,0.6-2.3,0.9c-0.6,0.2-1.1,0.4-1.7,0.6c-0.5-2.2-1.2-4.4-2.3-6.4
		c0,0-0.1-0.1-0.1,0c-0.1,0-0.1,0.1-0.1,0.1c0.4,1,0.7,1.9,0.9,2.9c0.1,1.1,0,2.2-0.1,3.2c-0.1,1.4-0.4,2.7-0.9,4
		c-0.9,2.6-2.3,5-4.3,6.9c-1.9,1.9-4.2,3.5-6.7,4.7c-1.2,0.7-2.4,1.5-3.5,2.4c-1.1,0.9-2.1,2-2.8,3.3c-0.7,1.3-1.1,2.7-1.7,3.9
		c-0.1,0.3-0.3,0.6-0.4,0.9l-0.6,0.9c-0.4,0.6-0.8,1.2-1.1,1.8c-0.3,0.7-0.7,1.3-0.8,2.2c-0.1,0.4-0.1,0.9,0.1,1.4
		c0.2,0.5,0.7,0.9,1.1,1.1c0.9,0.4,1.5,0.4,2.3,0.5c0.7,0.1,1.4,0.1,2.1,0.2c2.8,0.1,5.7,0.1,8.5-0.3c0.7-0.1,1.4-0.2,2.1-0.3
		c0.7-0.2,1.4-0.3,2.1-0.7c0.6-0.3,1.3-0.8,1.7-1.4c0.2-0.3,0.4-0.7,0.4-1.1c0-0.1,0-0.1,0-0.2c0.1,0,0.2,0,0.2,0
		c1.5-0.1,3-0.2,4.5-0.1c0.8,0,1.5,0.1,2.2,0.2c0.4,0.1,0.7,0.2,1.1,0.2c0.4,0.1,0.7,0.2,1,0.3c1.4,0.5,2.6,1.3,3.6,2.4
		c0.9,1,1.5,2.3,1.7,3.6c-4.8,0-9.6-0.1-14.5-0.3l-7.4-0.3c-2.5-0.1-4.9-0.2-7.4-0.2c-2.5,0-4.9,0-7.3-0.2c-1.2-0.1-2.4-0.3-3.5-0.6
		c-0.5-0.2-1-0.4-1.3-0.7c-0.1-0.1-0.1-0.1-0.1-0.3l0-0.4l0.1-0.3c0.1-0.4,0.4-0.8,0.8-1.1c0.4-0.3,1-0.7,1.5-1.2c1.1-1,1.3-2.7,1-4
		c-0.3-1.3-0.9-2.4-1.5-3.5c-0.6-1.1-1.3-2.1-2.1-3.1c0,0-0.1,0-0.1,0c0,0-0.1,0.1,0,0.1c0.6,1.1,1.2,2.2,1.7,3.3
		c0.5,1.1,0.9,2.3,1.1,3.4c0.1,0.6,0.1,1.1-0.1,1.6c-0.2,0.5-0.4,0.9-0.8,1.3c-0.4,0.4-0.9,0.6-1.5,1c-0.3,0.2-0.7,0.6-1,0.9
		c-4.3-1.8-8.2-4.5-11.4-7.9c-3.3-3.6-5.8-7.8-7.6-12.3c-1.8-4.5-3-9.2-3.5-14C5.1,86.6,5.1,85.4,5.2,84.2z"/>
</g>
</svg>
