<?xml version="1.0" encoding="utf-8"?>
<!-- Generator: Adobe Illustrator 23.0.0, SVG Export Plug-In . SVG Version: 6.00 Build 0)  -->
<svg version="1.1" id="Layer_1" xmlns="http://www.w3.org/2000/svg" xmlns:xlink="http://www.w3.org/1999/xlink" x="0px" y="0px"
	 viewBox="0 0 128 128" style="enable-background:new 0 0 128 128;" xml:space="preserve">
<style type="text/css">
	.st0{fill:#464549;}
	.st1{fill:#DBD9D1;}
	.st2{fill:#4D4C51;}
	.st3{fill:#5B5A60;}
	.st4{fill:#403F42;}
	.st5{fill:#5D5C63;}
	.st6{fill:#2D2D2D;}
	.st7{fill:#BCBBBF;}
</style>
<g>
	<path class="st0" d="M67.3,114.1c-0.4-1.3-0.8-2.6-1-3.9c-0.2-1.3-0.4-2.7-0.5-4c0-0.2,0-0.5-0.1-0.7c-0.1,0.8-0.3,1.5-0.5,2.3
		c-0.3,0.9-0.7,1.9-0.9,2.8c-0.2,1-0.3,1.9-0.3,2.9c0,1-0.1,2-0.2,2.9l-0.1,0.7c0,0.1,0,0.2,0,0.3c0,0.1,0,0.2,0,0.3
		c0.1,0.3,0.2,0.7,0.5,0.9c0.2,0.3,0.6,0.4,0.9,0.5c0.5,0.1,1,0.2,1.4,0.3c0.9,0.2,1.9,0.4,2.8,0.7c-0.1-0.7-0.3-1.5-0.4-2.2
		C68.3,116.6,67.8,115.4,67.3,114.1z"/>
	<path class="st0" d="M115.2,85.1c0-0.4,0-0.8-0.1-1.2c-0.1-0.4-0.2-0.8-0.5-1l0,0c-0.3-0.1-0.6-0.2-0.9-0.2
		c-0.3,0.1-0.5,0.3-0.7,0.4c-0.1,0.1-0.2,0.2-0.3,0.2c0.9,0.8,1.7,1.7,2.4,2.7C115.1,85.8,115.1,85.4,115.2,85.1z"/>
	<path class="st0" d="M28.3,108.9c0-1.1,0-2.2,0.1-3.3c0.1-1.1,0.2-2.1,0.4-3.2c0.3-2,0.5-3.9,1-5.9c0-0.1-0.1-0.3-0.2-0.3
		c-0.6-0.1-1.1-0.2-1.8-0.3c-0.6,0.7-1.2,1.3-1.8,2c-1.1,1-2.1,2-3.3,3c0,0,0,0,0,0c-0.4,0.3-0.6,0.8-0.6,1.3c0,1.2,0,2.2-0.1,3.5
		c0,0.9-0.1,1.7-0.2,2.6c-0.1,0.7-0.2,1.5-0.5,2.2c0.5,0.7,1.1,1.5,1.7,2.3c0.6,0.9,1.3,1.7,1.9,2.6c1.2,1.8,2.4,3.6,3.6,5.3
		c0.3,0.4,0.6,0.9,0.9,1.3l0.5,0.7c0.1,0.2,0.3,0.4,0.5,0.5c0.4,0.3,0.8,0.4,1.4,0.4l1.6,0c1.8,0,3.7-0.1,5.5-0.3
		c-0.1-0.2-0.2-0.4-0.4-0.6c-0.3-0.4-0.6-0.7-1-1c-0.4-0.2-0.8-0.4-1.3-0.5c-0.2-0.1-0.5-0.1-0.7-0.1c-0.2,0-0.5,0-0.7,0l-0.4,0
		l-0.3-0.3c-0.4-0.4-0.8-0.9-1.1-1.3c-0.4-0.4-0.7-0.9-1-1.3c-0.6-0.9-1.2-1.8-1.7-2.8c-0.5-1-1-2-1.3-3.1
		C28.6,111.2,28.3,110,28.3,108.9z"/>
	<path class="st1" d="M122.4,113.4c-0.4-1-1.5-1.8-2.5-2.1c-0.3-0.1-0.5-0.1-0.8-0.1c-0.1,0-0.2,0-0.4,0c-0.1,0-0.3,0.1-0.5,0.1
		c-0.7,0.1-1.3,0.2-2,0.2c-1.3,0-2.7-0.3-4-1c-0.6-0.4-1.2-0.9-1.6-1.5c-0.4-0.6-0.6-1.4-0.6-2.1c0-1.4,0.5-2.7,0.9-3.9
		c0.1-0.3,0.2-0.6,0.3-0.8c0-0.2,0.1-0.5,0.2-0.8c0.2-0.6,0.4-1.2,0.2-1.8c-0.6-1.1-1.1-2-1.5-3.3c-0.1,0.1-0.1,0.1-0.2,0.2
		c0,0-0.1,0-0.1,0c0,0,0,0,0-0.1c0.5-0.9,1-1.8,1.4-2.7c0.4-0.9,0.6-1.8,0.8-2.7c0.1-0.9,0.1-1.8-0.1-2.7c-0.3-0.8-0.8-1.7-1.6-2
		c-0.4-0.1-0.9,0-1.3,0.1c-0.4,0.1-0.8,0.4-1,0.8c-0.4,0.8-0.2,1.7-0.2,2.6c0,0.9,0.1,1.8,0,2.8c0,0.5-0.1,1-0.3,1.4
		c-0.2,0.5-0.4,0.9-0.8,1.2c0,0-0.1,0-0.1,0c0,0,0,0,0-0.1l0,0c0.2-0.4,0.2-0.8,0.3-1.1c-1.4-0.2-3.1-0.6-4.4-0.8
		c-0.7-0.1-1.4-0.2-2.1,0c-0.7,0.2-1.3,0.6-1.7,1.2c-0.4,0.6-1,1.2-1.7,1.6c-0.7,0.4-1.4,0.7-2,1c-0.7,0.3-1.3,0.5-1.8,0.9
		c-0.3,0.2-0.4,0.5-0.5,1c0,0.2,0.1,0.4,0.3,0.4c0.3,0.1,0.7,0.2,0.9,0.3c0.5,0.2,0.9,0.5,1.3,0.8c0.8,0.6,1.4,1.3,2.1,2.1
		c0.6,0.7,1.2,1.4,1.8,2.2c0.6,0.7,1.1,1.5,1.6,2.2c0.6,0.7,1.1,1.4,1.8,2.1c0.7,0.6,1.5,1.1,2.3,1.6c1.6,0.9,3.5,1.3,5.2,1.7
		l0.2,0.1l0.2,0.2c0.7,0.8,1.6,1.5,2.5,2.1c0.9,0.6,1.9,1.2,2.9,1.8c1,0.5,2,1,3,1.3c1,0.3,2,0.4,2.9-0.1c-0.3-0.4-0.7-0.8-1.1-1.1
		c-0.7-0.5-1.4-0.8-2.2-1.1c0,0-0.1-0.1-0.1-0.1c0,0,0.1-0.1,0.1-0.1c0.9,0.1,1.7,0.3,2.5,0.7c0.5,0.3,1,0.6,1.4,1
		C122.7,115.5,122.7,114.4,122.4,113.4z"/>
	<path class="st0" d="M2.7,88.4c0.6,0.8,1.6,1.6,2.7,2.2c1,0.6,3.1,1.6,3.1,1.6c-1.2-0.6-2-1.3-3-2.2c-1-0.9-1.9-1.9-2.6-3
		c-0.6-1-1.1-2-1.5-3.1c0,0.5,0,1,0.1,1.5C1.7,86.5,2.1,87.5,2.7,88.4z"/>
	<path class="st2" d="M3.8,86.4c1.2,2.1,5,5.6,5,5.6c1.2,1.2,2.2,2.6,2.9,4.3c0.3,0.8,0.6,1.7,0.6,2.6c0.1,0.9-0.1,1.9-0.4,2.8
		c-0.2,0.5-0.4,0.8-0.6,1.2c-0.1,0.2-0.3,0.5-0.4,0.7c-0.5,0.9-1.1,1.7-1.7,2.5c-0.6,0.9-1.3,1.7-2.1,2.5c-0.6,0.7-0.9,1.6-0.6,2.5
		c0.5,1.6,0.9,3.1,1.4,4.7c0.7,2.2,1.4,4.4,2.3,6.5c0.4,1.1,0.8,2.1,1.3,3.2c0.2,0.5,0.5,0.8,0.9,1c0.2,0.1,0.4,0.1,0.6,0.1l0.9,0
		c1.8-0.1,3.5-0.2,5.3-0.2c0,0,0,0,0,0c-0.3-0.4-0.7-0.7-1.1-1c-0.8-0.6-1.7-0.9-2.7-0.9l-0.7,0l-0.2-0.7c-0.7-2-1.3-4.2-1.2-6.4
		c0-0.6,0.1-1.1,0.2-1.7c0.1-0.3,0.1-0.6,0.2-0.9c0.1-0.3,0.2-0.5,0.3-0.8c0.4-1,0.8-2,1.3-2.9c0.9-1.9,1.9-3.7,3.1-5.5
		c0.6-0.9,1.1-1.8,1.8-2.6c0.5-0.7,2.6-3.7,5.6-5.4c1.1-0.6,1.9-2.4,2.8-3.3c1-1,2-2.1,2.7-3.3c0.8-1.2,1.5-2.5,1.7-3.9
		c-0.1,1.4-0.7,2.8-1.3,4.1c-0.7,1.3-1.5,2.5-2.4,3.6c-0.3,0.4-0.4,0.5-0.7,0.8c1.1-0.2,2.1-0.2,3.2-0.3c0.6-0.1,1.2-0.1,1.9-0.2
		c0.6-0.1,1.2-0.1,1.8-0.2l0.2,0l0.3,0.1c0.4,0.1,1,0.3,1.5,0.5l1.7,0.5c1.1,0.4,2.3,0.7,3.4,0.8c2.3,0.3,4.7,0.1,7,0
		c2.3-0.1,4.6-0.5,7-0.6c1.1-0.1,2.1-0.1,3.2-0.1c0.4,0,0.7-0.3,0.6-0.7c-0.1-0.9-0.1-1.7,0-2.6c0.1-1.1,0.2-2.2,0.5-3.3
		c0.3-1.1,0.7-2.1,1.2-3.1c0.5-1,1.2-1.8,2-2.6c-0.7,0.9-1.3,1.8-1.7,2.8c-0.4,1-0.7,2-0.9,3.1C61,90.5,61,91.6,61,92.7
		c0,1,0.3,2.8,0.4,3.3c0.2,0.2,0.7,0.2,0.9,0c0,0,0-0.1,0-0.1c0-0.9,0.1-1.7,0.3-2.5c0.2-0.8,0.5-1.6,0.8-2.3c0.4-0.7,0.8-1.4,1.3-2
		c0.5-0.6,1.1-1.1,1.8-1.6C66,88,65.4,88.5,65,89.2c-0.4,0.6-0.8,1.3-1,2.1c-0.3,0.7-0.4,1.5-0.5,2.2c-0.1,0.7,0.1,2.3,0,2.4
		c1.2,2,2.2,4,3.3,6.1l0,0.1l0,0.2c0.1,1.3,0.3,2.6,0.5,3.9c0.2,1.3,0.4,2.6,0.6,3.9c0.2,1.3,0.4,2.6,0.7,3.8
		c0.3,1.3,0.6,2.5,1.2,3.7l0,0.1l0,0.1c0.2,1.6,0.3,3.1,0.4,4.7c0,0.2,0,0.4,0.1,0.5c0,0.2,0.1,0.3,0.2,0.5c0.2,0.3,0.4,0.5,0.7,0.7
		c0.2,0.1,0.3,0.1,0.5,0.1c0.2,0,0.3,0,0.5,0c0.4,0,0.8,0,1.2,0c2.7-0.1,5.4-0.3,8.2-0.4c-0.1-0.2-0.3-0.5-0.4-0.7
		c-0.4-0.5-0.9-0.9-1.4-1.2c-0.5-0.3-1.2-0.5-1.8-0.7c-0.6-0.1-1.3-0.2-2-0.2l-0.4,0l-0.3-0.2c-0.3-0.3-0.5-0.5-0.6-0.7
		c-0.1-0.2-0.3-0.5-0.4-0.7c-0.2-0.4-0.4-0.9-0.5-1.3c-0.3-0.9-0.5-1.8-0.7-2.7c-0.2-0.9-0.3-1.8-0.2-2.8c0-0.3,0-0.5,0.1-0.8
		l0.1-0.6l0.2-1.3c0.3-1.7,0.6-3.5,0.9-5.2c0.2-1.3,0.5-2.7,0.8-4c0.3-0.9,0.9-1.8,3.6-3.6c1.1-0.7,2.3-1.5,3.3-2.3
		c0.5-0.4,1-0.9,1.3-1.4c0.3-0.5,0.6-1.1,0.8-1.8c0.3-1.3,0.3-2.7,0-4c0.5,1.3,0.6,2.7,0.5,4.1c-0.1,0.7-0.3,1.4-0.6,2.1
		c-0.3,0.7-0.8,1.2-1.3,1.7c-1,1-2,1.9-3.1,2.8c-0.4,0.3-0.7,0.5-1.1,0.8c0.4-0.1,0.9-0.3,1.3-0.4l3.8-1.1l0.2,0l0.2,0
		c0.5,0,0.9,0.1,1.3,0.2c0.4,0.1,0.8,0.2,1.1,0.2c0.8,0.2,1.5,0.4,2.2,0.5c0.7,0.2,1.5,0.4,2.2,0.5c0.4,0.1,0.7,0.1,1.2,0.2
		c-0.1-0.3,0.1-0.6,0.1-0.9c0-0.4,0.2-0.8,0.5-1.2c0.5-0.7,1.3-1.1,2-1.4c0.7-0.3,1.4-0.5,2-0.8c0.6-0.3,1.2-0.6,1.8-1
		c0.6-0.5,1.3-0.8,2-1.1c0.7-0.3,1.5-0.6,2.3-0.6c0.4,0,0.8,0,1.2,0.1c0.4,0.1,0.8,0.2,1.1,0.3c0.6,0.2,1.5,0.7,2.1,1.1
		c0-0.4,0-0.8,0-1.2c-0.1-0.9-0.2-1.8-0.1-2.8c0.1-0.9,0.3-2,0.9-2.8c0.3-0.4,0.8-0.7,1.2-0.9c0.5-0.2,1-0.2,1.5-0.2l0,0
		c1.2,0.1,2.2,1,2.6,2.1c0.5,1,0.6,2.2,0.4,3.3c-0.2,1.1-0.6,2.1-1.2,3c-0.5,0.8-1.1,1.4-1.8,2c0.6,0.3,1.2,0.9,1.5,1.4
		c0.2,0.3,0.3,0.6,0.3,1c0,0.4,0,0.7,0,1c0,0.6,0.1,1.3,0.3,1.9c0,0.3,0.1,0.6,0,1c-0.1,0.4-0.2,0.7-0.3,1c-0.4,1.2-0.8,2.3-0.7,3.4
		c0,0.5,0.2,1,0.5,1.4c0.3,0.4,0.7,0.8,1.1,1.1c0.9,0.6,2.1,0.8,3.3,0.9c0.6,0,1.2,0,1.8-0.1l0.5-0.1c0.2,0,0.4,0,0.6,0
		c0.4,0,0.7,0.1,1.1,0.2c0.7,0.3,1.2,0.7,1.7,1.1c0.5,0.5,0.9,1,1.1,1.8c0.1,0.7,0.1,1.3,0,2c-0.1,0.5-0.3,1-0.5,1.5
		c0.2,0.2,0.4,0.4,0.5,0.6c0.6,0.7,0.9,1.6,1.1,2.5c0.1,0.5,0.2,0.9,0.2,1.4l0,0.3l0,0.1c0,0,0,0,0,0l0,0c0,0,0,0,0,0l0,0l0,0l0.1,0
		l0.3,0.1l0.6,0.2c0.2,0.1,0.5,0.1,0.6,0.1c0-0.1,0-0.2,0.1-0.4c0-0.4,0.1-0.8,0.1-1.2l0.3-5l0.2-2.5c0-0.8,0.1-1.7,0.1-2.5
		c-0.1-1.6-0.9-3.2-1.8-4.5c-1-1.4-2.1-2.6-3.3-3.8c-1.2-1.2-2.5-2.4-3.4-4l0-0.1l0-0.2c-0.3-1.7-0.8-3.4-1.4-5
		c-0.6-1.6-1.4-3.1-2.4-4.5c-1-1.4-2.1-2.7-3.3-3.9c-0.6-0.6-1.3-1.2-2-1.7c-0.3-0.3-0.7-0.5-1-0.7c-0.2-0.1-0.4-0.2-0.5-0.3
		l-0.3-0.2l-0.1-0.1c0,0-0.1,0,0,0l-0.4-0.3c-1.1-1.6-2.4-3.2-3.6-4.7c-1.3-1.5-2.6-3-4.1-4.2c0,0,0,0,0-0.1c-1.9-1.7-4-3.1-6.3-4.2
		c-2.3-1.2-4.7-2.1-7.2-2.8c-2.5-0.7-5-1.3-7.5-1.7c-2.6-0.4-5.2-0.9-7.8-1.5c-5.1-1.1-10.2-2.3-15.3-3.2
		c-5.1-0.8-10.3-1.2-15.5-1.5c-2.6-0.2-5.1,0.1-7.7,0.7c-2.5,0.6-5,1.4-7.4,2.4c-2.4,0.9-4.9,1.9-7.3,3c-2.4,1-4.7,2.2-6.7,3.7
		c-2,1.5-3.8,3.3-5.2,5.4c-1.4,2.1-2.2,4.4-2.5,6.9c-0.1,1.2-0.1,2.5,0.1,3.7C2.8,84.2,3.2,85.3,3.8,86.4z M114.6,105.1
		c0.3-0.6,1.1-0.7,1.7-0.4c0.6,0.4,0.9,1.1,0.5,1.7c-0.3,0.6-1.1,0.7-1.7,0.4C114.5,106.5,114.3,105.7,114.6,105.1z"/>
	<path class="st3" d="M106.7,95.1c0,0,3.3-0.3,3.3,1.3c1.6-2.2,3.3-5.5,2.6-7.5c-0.7-2-0.9-2.8-2.3-2.8c-1.4,0-2.6,0.4-2.7,1.2
		c-0.1,0.8-0.5,4-0.3,4.7C107.4,92.6,106.7,95.1,106.7,95.1z"/>
	<path class="st4" d="M43.3,92.9c7.4,1,8.9,1.9,11.3,0.1c2.4-1.8,6.2-3.9,6.2-3.9s-0.6,6-0.1,7c-2.2,0.6-13.4,1.2-15.4,1.1
		c-1.9-0.1-10.4-1.6-10.7-1.6c-0.3,0-7-0.1-7-0.1s3.2-4.3,3.2-4.3s1.4-2.7,1.4-2.7S35.9,91.9,43.3,92.9z"/>
	<path class="st4" d="M83.9,93.6c0,0-0.2,0.9,1.4,2.1s2.5,1.3,4.1,0.8c1.6-0.4,4.3-0.1,4.2,0c-0.1,0-1.2,2.8-1.4,2.8
		c-0.2,0-6.5-1.2-7.6-1.1c-1.1,0.1-7.1,1.1-7.1,1.1s2.2-1.9,3.3-2.6C81.7,95.9,83.9,93.6,83.9,93.6z"/>
	<path class="st4" d="M15.2,101.8c-1.7,3.5-2.6,4.9-4.9,6.7s-2,3.1-1.6,5.5c0.4,2.4,2.1,9,3.5,9.7s2.8,0.7,3.2,0.2
		c1,0.1,5,3.1,5,3.1s-7.9,0.8-8.6-0.1c-0.8-0.8-2.1-4.1-2.2-4.4c-0.1-0.3-4.5-13.1-4.5-13.1l5-6.1l1.8-2.9c0,0-1.6-5.9-1.9-6.5
		C9.7,93.3,16.9,98.3,15.2,101.8z"/>
	<path class="st4" d="M9.6,67.3c0-0.5-4.6,9.8-2.9,14c1.7,4.1,0.1,5.4,2.6,7.5c2.5,2.1,6.5,8.3,6.1,11c-1.9,0.4-2.4-1.1-2.6-1.3
		c-0.2-0.1-2-4.3-3.1-5.3c-1.1-1-6.7-6-7.5-9C1.3,81.2,2.3,74.4,4,72.3C5.7,70.2,9.6,67.3,9.6,67.3z"/>
	<path class="st5" d="M9.4,67.2c7-2.9,16.9-6.7,22.3-4.4c6.6,2.8,14,6,19.2,6.6c6.3,0.7,11.3-2.4,16.2-1.8c4.9,0.6,7.4-2.2,10.6-1.5
		c3.2,0.7,8,1.6,11.2,3.4s11.8,4.1,12,4.2c0.2,0.1-4.7-5.3-9-6.9c-4.3-1.6-18.6-6.1-28.7-7.6c-10.1-1.6-21.2-3.5-27.2-2.5
		C29.9,57.7,15.9,61.9,9.4,67.2z"/>
	<path class="st6" d="M115.1,106.8c0.6,0.4,1.4,0.2,1.7-0.4c0.3-0.6,0.1-1.3-0.5-1.7c-0.6-0.4-1.4-0.2-1.7,0.4
		C114.3,105.7,114.5,106.5,115.1,106.8z"/>
	<path class="st4" d="M110.7,82.9c-0.1-0.2-3.4-2.3-3.3-2.5c0.1-0.2-1.4-2.1-4.4-4.9c-2.9-2.6-8.8-2.6-10.9-2.6
		c-1.6-0.5-3.2-0.9-4.3-1.3c-3.9-1.3-6.7-2.3-13.5,2.9c-6.7,4.6-7.1,9.9-7.2,12.1c0,0.6-0.3,1.1-0.7,1.5c-0.6,0.6-1.5,1.7-1.9,2.2
		c-0.5,0.8-1.3,3.2-1.5,4.4c-0.1,1.3,1,3.3,2.7,5.6c1.7,2.3,1.4,8.8,2.2,11.5c0.5,1.7,1,3.5,1.5,5.8c0.3,1.6,2.1,2.5,3.6,1.8
		c0,0,0,0,0.1,0c1.1-0.5,1.7-1.7,1.5-2.8c-0.9-4.2,0.2-13,0.5-14.5c0.4-1.8,3.6-4.1,5.1-4.7c1.4-0.6,4-2.7,6.4-4.5
		c2.2-1.6,0.5-9.1,9.7-13.2c2.5,0,4.7,2.3,9,2.8c1.3,0.1,5.5,3.8,5.5,3.8l4.7,2.6C115.5,88.9,110.8,83,110.7,82.9z"/>
	<path class="st7" d="M76.4,120.3c0.3,0,1.8,1.4,0.6,2c-1.2,0.6-6.4,0.7-6.8-0.1c0.3,1.2,0.4,2,1.9,2.1c1.6,0.1,11.1,0,11-0.1
		c-0.1,0-3-3.7-4.1-4S76.4,120.3,76.4,120.3z"/>
	<path class="st7" d="M62.8,117.6c0.2,1.2,0.2,2,1.1,2.1c0.9,0.1,6.1,0.4,6,0.4c-0.1,0-0.4-3.3-1-3.6c0,0.4-0.1,1.5-1.2,1.8
		C65.9,118.6,63,118,62.8,117.6z"/>
	<path class="st7" d="M14.6,122.7c0.2,0,0.7,1.6-0.2,2.2c-0.9,0.6-3.3,0.9-3.6,0.1c0.2,1.2,0.8,2.2,2,2.3c1.2,0.1,8.5,0,8.4-0.1
		c-0.1,0-2.5-3.3-3.3-3.7S14.6,122.7,14.6,122.7z"/>
	<path class="st7" d="M34.3,119.9c0.2,0-0.2,1.1-1.1,1.7c-0.9,0.6-4,0.6-4.3-0.2c0.2,1.2,0.8,2.2,2,2.3c1.2,0.1,8.5,0,8.4-0.1
		s-1-2.7-1.8-3C36.7,120.2,34.3,119.9,34.3,119.9z"/>
	<path class="st6" d="M4.8,91.9c1.3,0.4,2.6,0.7,4,0.5c0.8,1.4,1.5,2.7,2,4.2c0.2,0.8,0.3,1.6,0.3,2.3c0,0.8-0.2,1.5-0.5,2.1
		c-0.2,0.3-0.4,0.6-0.6,1l-0.7,1c-0.5,0.7-1,1.3-1.5,2c-0.6,0.8-1.9,2.3-2.7,3.2c-0.5,0.6-0.6,1.4-0.3,2.1c0.6,1.5,1.8,4.2,2.4,5.7
		c0.9,2.1,1.6,4.3,2.4,6.5c0.4,1.1,0.7,2.2,1,3.3c0.1,0.3,0.2,0.7,0.4,0.9c0.2,0.3,0.5,0.5,0.8,0.7c0.3,0.2,0.7,0.3,1.1,0.3l0.9,0
		c2.3,0.1,4.6,0.2,7,0.3l1.4,0l-0.7-1.3c-0.3-0.6-0.7-1.1-1.1-1.6c-0.4-0.5-0.9-1-1.4-1.4c-0.8-0.7-1.9-1.2-3-1.4
		c-0.2-0.8-0.5-1.5-0.6-2.3c-0.2-1-0.4-1.9-0.4-2.9c0-0.5,0-0.9,0.1-1.4c0-0.2,0.1-0.4,0.1-0.7c0.1-0.2,0.1-0.5,0.2-0.7
		c0.3-1,0.7-1.9,1.1-2.9c0.8-1.9,1.6-3.8,2.5-5.7c0.8-1.6,1.5-3.2,2.5-4.6c-0.2,1.4-0.4,2.9-0.7,4.3c-0.1,0.8-0.3,1.7-0.5,2.5
		c-0.2,0.8-0.4,1.6-0.7,2.3l-0.1,0.4l0.2,0.3c1.2,1.9,2.4,3.6,3.8,5.3c1.3,1.7,2.8,3.3,4.2,4.9c0.4,0.4,0.7,0.8,1,1.2l0.5,0.6
		c0.2,0.2,0.4,0.4,0.7,0.6c0.5,0.3,1.1,0.5,1.7,0.4l1.6,0c2.1,0,4.3,0.2,6.4,0.3l0.8,0l-0.1-0.8c-0.1-0.7-0.3-1.2-0.7-1.8
		c-0.3-0.6-0.7-1.1-1.3-1.5c-0.5-0.4-1.1-0.7-1.8-0.9c-0.3-0.1-0.6-0.1-1-0.2c-0.2,0-0.3,0-0.5,0c-0.2-0.3-0.5-0.6-0.7-0.9
		c-0.3-0.4-0.6-0.8-0.9-1.3c-0.6-0.9-1.1-1.8-1.6-2.7c-0.9-1.8-1.8-3.7-1.9-5.6c-0.2-2-0.1-4.1,0-6.2c0.1-2.1,0.2-4.1,0.4-6.2
		c0.4,0,0.7,0.1,1.1,0.1c0.6,0.1,1.3,0.1,1.9,0.1c0.6,0,1.1,0,1.7,0c0.6,0.2,1.1,0.3,1.7,0.4c0.6,0.1,1.2,0.1,1.8,0.1
		c1.2,0,2.4,0,3.6,0.2c1.2,0.1,2.4,0.3,3.5,0.6c1.2,0.2,2.4,0.5,3.6,0.5c2.4,0.1,4.8,0,7.2-0.4c1.2-0.2,2.3-0.4,3.5-0.7
		c0.7-0.2,2-0.6,2.7-0.8c0.3-0.1,0.6,0.1,0.7,0.4c0.6,1.8,1.3,3.7,2.1,5.5c0,0.2,0,0.4,0,0.5c-0.3,0.6-0.5,1.2-0.7,1.9
		c-0.3,0.9-0.5,1.9-0.6,2.9c-0.1,1-0.1,2-0.2,2.9c-0.1,1-0.4,1.9-0.6,2.9c-0.3,0.9-0.5,1.9-0.7,2.9l-0.1,0.7c0,0.1,0,0.3-0.1,0.4
		c0,0.2,0,0.3,0,0.5c0.1,0.6,0.4,1.2,0.9,1.7c0.5,0.4,1.1,0.7,1.7,0.7c0.5,0,1,0,1.5,0c1,0,2,0,2.9-0.1c0.1,0.7,0.2,1.4,0.3,2.1
		l0,0.3c0,0.1,0,0.2,0.1,0.3c0.1,0.2,0.1,0.4,0.2,0.6c0.2,0.4,0.6,0.7,1,0.9c0.2,0.1,0.4,0.2,0.6,0.2c0.2,0,0.5,0,0.6,0
		c0.4,0,0.8,0,1.2,0c3.1,0.1,6.3,0.4,9.4,0.4l1,0l-0.2-1c-0.1-0.5-0.2-0.9-0.4-1.3c-0.2-0.4-0.4-0.8-0.7-1.1
		c-0.5-0.7-1.1-1.3-1.9-1.7c-0.7-0.4-1.5-0.8-2.3-1c-0.7-0.2-1.3-0.2-2-0.3c0,0,0,0,0-0.1c-0.1-0.1-0.2-0.3-0.3-0.5
		c-0.2-0.3-0.3-0.7-0.4-1.1c-0.3-0.8-0.5-1.6-0.7-2.4c-0.2-0.8-0.3-1.6-0.3-2.4c0-0.2,0-0.4,0-0.5l0.1-0.7c0-0.4,0.1-0.9,0.1-1.3
		c0.1-1.8,0.2-3.5,0.3-5.3c0-1,0.1-2,0.1-3c0-0.9,0.7-1.6,1.6-1.7l0,0c0.3,0,0.6,0,0.9,0c0.7,0,1.4,0,2.1-0.1
		c1.3-0.1,2.6-0.3,3.9-0.6c0.3,0,0.6,0.1,0.9,0.1c0.4,0.1,0.8,0.1,1.1,0.2c0.8,0.1,1.6,0.2,2.4,0.3c0.8,0.1,1.6,0.1,2.4,0
		c0.5-0.1,1-0.1,1.5-0.3c0.2-0.1,0.4-0.1,0.6,0c0.7,0.3,1.2,0.8,1.6,1.3c0.6,0.7,1.1,1.4,1.6,2.2c0.5,0.8,1.1,1.5,1.7,2.3
		c0.6,0.7,1.3,1.4,2.1,2c1.5,1.2,3.1,2.3,4.7,3.3c1.5,1,3.1,2,4.8,2.6c0.7,1,1.6,1.8,2.5,2.5c1,0.8,2,1.4,3.2,1.9
		c1.2,0.5,2.4,0.9,3.7,0.9c0.6,0,1.3,0,2-0.3c0.4-0.1,0.7-0.3,1-0.6c0.2,0,0.3,0,0.5,0.1c0.4,0.7,0.6,1.4,0.7,2.2c0,0.4,0,0.8,0,1.2
		l0,0.3l0,0.1l0,0.1c0,0.1,0,0.2,0,0.3c0.1,0.4,0.3,0.8,0.7,1c0.1,0.1,0.2,0.1,0.3,0.1c0,0,0.1,0,0.1,0l0.1,0l0.3,0.1l0.6,0.2
		c0.4,0.1,0.9,0.3,1.7,0.2c0.1,0,0.2,0,0.3-0.1l0.1,0l0,0l0,0l0.1,0c0.1,0,0.1-0.1,0.2-0.1c0,0,0.1-0.1,0.1-0.1
		c0.1-0.1,0.1-0.1,0.1-0.1c0.1-0.3,0.2-0.4,0.2-0.5c0.1-0.3,0.1-0.5,0.1-0.7c0.1-0.4,0.1-0.9,0.1-1.3c0.1-1.7,0.1-3.4,0.1-5.1
		c0-0.9-0.1-1.7-0.2-2.6l-0.1-1.3c0-0.4-0.1-0.9-0.1-1.3c-0.3-1.8-1.2-3.3-2.1-4.8c-1-1.4-2.1-2.8-3.1-4.1c-1-1.3-2.1-2.6-2.7-4
		c-0.4-3.6-1.6-7.2-3.6-10.3c0,0-0.1-0.1-0.1-0.1c0.1-0.1,0.2-0.3,0.2-0.4c0.2-0.5,0.4-1,0.4-1.6c0-0.6-0.1-1.1-0.3-1.7
		c-0.2-0.6-0.8-1-1.4-1.1l0,0c-0.3,0-0.7,0-1-0.1c-0.3-0.1-0.8-0.2-1.2-0.1c-0.3,0.1-0.5,0.3-0.6,0.5c-0.6-0.5-1.2-1-1.8-1.4
		c-0.4-0.3-0.8-0.5-1.2-0.8c-0.2-0.1-0.4-0.2-0.6-0.3l-0.3-0.2l-0.2-0.1c0,0,0,0,0,0c-0.6-0.7-1.2-1.4-1.8-2.1
		c-0.7-0.7-1.4-1.5-2.1-2.1c-0.7-0.7-1.5-1.4-2.3-2c-0.8-0.6-1.6-1.1-2.4-1.6c-1.7-2-3.9-3.6-6.1-5c-2.3-1.3-4.7-2.4-7.2-3.3
		c-2.5-0.9-5.1-1.6-7.7-2.1c-2.5-0.5-5.1-1.1-7.6-1.7c-2.5-0.6-5.1-1.2-7.7-1.8c-2.6-0.6-5.2-1-7.8-1.4c-5.2-0.7-10.5-1-15.8-0.9
		l-1,0l-1,0c-0.7,0.1-1.3,0.1-2,0.2c-1.3,0.2-2.6,0.5-3.9,0.9c-2.5,0.7-5,1.6-7.5,2.5c-2.5,0.9-4.9,1.8-7.4,2.7
		c-2.5,0.8-5,1.9-7.2,3.4c-1.1,0.7-2.2,1.6-3.2,2.5c-1,1-1.8,2-2.6,3.2c-1.5,2.3-2.4,5-2.6,7.7c0,0.7-0.1,1.4,0,2
		c0,0.4,0.1,0.7,0.1,1.1c-0.6,0.9-0.9,1.9-1,3c-0.1,1.4,0.3,3,1.2,4.2C2.2,90.7,3.5,91.4,4.8,91.9z M30.3,115.3
		c0.5,1,1.1,1.9,1.7,2.8c0.3,0.4,0.6,0.9,1,1.3c0.4,0.4,0.7,0.8,1.1,1.3l0.3,0.3l0.4,0c0.2,0,0.5,0,0.7,0c0.2,0,0.5,0,0.7,0.1
		c0.5,0.1,0.9,0.3,1.3,0.5c0.4,0.3,0.7,0.6,1,1c0.1,0.2,0.2,0.4,0.4,0.6c-1.8,0.1-3.7,0.2-5.5,0.3l-1.6,0c-0.5,0-1-0.1-1.4-0.4
		c-0.2-0.1-0.4-0.3-0.5-0.5l-0.5-0.7c-0.3-0.4-0.6-0.9-0.9-1.3c-1.2-1.8-2.3-3.6-3.6-5.3c-0.6-0.9-1.2-1.7-1.9-2.6
		c-0.6-0.8-1.1-1.5-1.7-2.3c0.2-0.7,0.3-1.5,0.5-2.2c0.1-0.9,0.2-1.7,0.2-2.6c0.1-1.3,0.2-2.3,0.1-3.5c0-0.5,0.2-1,0.6-1.3
		c0,0,0,0,0,0c1.2-0.9,2.2-1.9,3.3-3c0.6-0.6,1.2-1.3,1.8-2c0.7,0.2,1.2,0.2,1.8,0.3c0.1,0,0.2,0.2,0.2,0.3c-0.5,1.9-0.7,3.9-1,5.9
		c-0.2,1.1-0.3,2.1-0.4,3.2c-0.1,1.1-0.2,2.2-0.1,3.3c0,1.1,0.3,2.3,0.6,3.4C29.3,113.3,29.7,114.3,30.3,115.3z M66.6,119.3
		c-0.5-0.1-1-0.2-1.4-0.3c-0.4-0.1-0.7-0.2-0.9-0.5c-0.3-0.2-0.4-0.6-0.5-0.9c0-0.1,0-0.2,0-0.3c0-0.1,0-0.2,0-0.3l0.1-0.7
		c0.1-1,0.1-1.9,0.2-2.9c0-1,0.1-2,0.3-2.9c0.2-1,0.6-1.9,0.9-2.8c0.2-0.8,0.4-1.5,0.5-2.3c0,0.2,0,0.5,0.1,0.7
		c0.1,1.3,0.3,2.7,0.5,4c0.2,1.3,0.6,2.6,1,3.9c0.4,1.3,0.9,2.5,1.7,3.7c0.2,0.7,0.3,1.5,0.4,2.2C68.5,119.7,67.6,119.5,66.6,119.3z
		 M120.9,115.6c-0.8-0.4-1.7-0.6-2.5-0.7c0,0-0.1,0-0.1,0.1c0,0,0,0.1,0.1,0.1c0.8,0.3,1.6,0.7,2.2,1.1c0.4,0.3,0.8,0.7,1.1,1.1
		c-0.9,0.5-1.9,0.4-2.9,0.1c-1-0.3-2.1-0.8-3-1.3c-1-0.5-1.9-1.2-2.9-1.8c-0.9-0.6-1.8-1.3-2.5-2.1l-0.2-0.2l-0.2-0.1
		c-1.8-0.4-3.6-0.8-5.2-1.7c-0.8-0.4-1.6-0.9-2.3-1.6c-0.7-0.6-1.3-1.3-1.8-2.1c-0.5-0.7-1.1-1.5-1.6-2.2c-0.6-0.7-1.1-1.4-1.8-2.2
		c-0.6-0.7-1.3-1.4-2.1-2.1c-0.4-0.3-0.8-0.6-1.3-0.8c-0.2-0.1-0.6-0.2-0.9-0.3c-0.2,0-0.3-0.2-0.3-0.4c0.1-0.4,0.1-0.7,0.5-1
		c0.5-0.4,1.1-0.6,1.8-0.9c0.7-0.3,1.4-0.6,2-1c0.7-0.4,1.3-0.9,1.7-1.6c0.4-0.6,1-1,1.7-1.2c0.7-0.2,1.4,0,2.1,0
		c1.3,0.1,2.9,0.5,4.4,0.8c0,0.4-0.1,0.8-0.3,1.1l0,0c0,0,0,0,0,0.1c0,0,0.1,0,0.1,0c0.4-0.3,0.7-0.8,0.8-1.2c0.2-0.5,0.2-1,0.3-1.4
		c0.1-1,0-1.9,0-2.8c0-0.9-0.2-1.8,0.2-2.6c0.2-0.4,0.5-0.6,1-0.8c0.4-0.1,0.8-0.1,1.3-0.1c0.9,0.3,1.4,1.1,1.6,2
		c0.3,0.9,0.3,1.8,0.1,2.7c-0.1,0.9-0.4,1.8-0.8,2.7c-0.4,0.9-0.8,1.8-1.4,2.7c0,0,0,0,0,0.1c0,0,0.1,0,0.1,0
		c0.1-0.1,0.1-0.1,0.2-0.2c0.4,1.3,0.9,2.2,1.5,3.3c0.2,0.6,0,1.2-0.2,1.8c-0.1,0.3-0.2,0.6-0.2,0.8c-0.1,0.3-0.2,0.5-0.3,0.8
		c-0.4,1.2-0.9,2.4-0.9,3.9c0,0.7,0.2,1.5,0.6,2.1c0.4,0.6,1,1.1,1.6,1.5c1.2,0.7,2.6,1,4,1c0.7,0,1.3-0.1,2-0.2
		c0.2,0,0.4-0.1,0.5-0.1c0.1,0,0.2,0,0.4,0c0.2,0,0.5,0,0.8,0.1c1,0.3,2.1,1.1,2.5,2.1c0.3,1,0.2,2.1-0.1,3.2
		C121.9,116.2,121.4,115.8,120.9,115.6z M113.1,83.2c0.2-0.1,0.4-0.4,0.7-0.4c0.3-0.1,0.6,0,0.9,0.2l0,0c0.4,0.3,0.4,0.7,0.5,1
		c0.1,0.4,0.1,0.8,0.1,1.2c0,0.3,0,0.6,0,1c-0.7-1-1.5-1.9-2.4-2.7C112.8,83.3,112.9,83.2,113.1,83.2z M2.4,79.3
		c0.3-2.5,1.2-4.8,2.5-6.9c1.4-2.1,3.2-3.9,5.2-5.4c2-1.5,4.3-2.7,6.7-3.7c2.4-1,4.8-2.1,7.3-3c2.4-0.9,4.9-1.8,7.4-2.4
		c2.5-0.6,5.1-0.9,7.7-0.7c5.2,0.3,10.4,0.7,15.5,1.5c5.1,0.8,10.2,2.1,15.3,3.2c2.6,0.6,5.1,1.1,7.8,1.5c2.5,0.4,5.1,1,7.5,1.7
		c2.5,0.7,4.9,1.7,7.2,2.8c2.3,1.1,4.4,2.5,6.3,4.2c0,0,0,0.1,0,0.1c1.6,1.2,2.9,2.7,4.1,4.2c1.3,1.5,2.5,3.1,3.6,4.7l0.4,0.3
		c0,0,0,0,0,0l0.1,0.1l0.3,0.2c0.2,0.1,0.4,0.2,0.5,0.3c0.4,0.2,0.7,0.5,1,0.7c0.7,0.5,1.3,1.1,2,1.7c1.2,1.2,2.4,2.5,3.3,3.9
		c1,1.4,1.8,2.9,2.4,4.5c0.6,1.6,1.1,3.3,1.4,5l0,0.2l0,0.1c1,1.6,2.2,2.8,3.4,4c1.2,1.2,2.4,2.4,3.3,3.8c1,1.4,1.7,2.9,1.8,4.5
		c0,0.8,0,1.7-0.1,2.5l-0.2,2.5l-0.3,5c0,0.4-0.1,0.8-0.1,1.2c0,0.1,0,0.3-0.1,0.4c-0.2,0-0.4-0.1-0.6-0.1l-0.6-0.2l-0.3-0.1l-0.1,0
		l0,0l0,0c0,0,0,0,0,0l0,0c0,0,0,0,0,0l0-0.1l0-0.3c0-0.5-0.1-0.9-0.2-1.4c-0.2-0.9-0.6-1.8-1.1-2.5c-0.2-0.2-0.3-0.4-0.5-0.6
		c0.2-0.5,0.4-1,0.5-1.5c0.1-0.6,0.2-1.3,0-2c-0.2-0.7-0.6-1.3-1.1-1.8c-0.5-0.5-1-0.9-1.7-1.1c-0.3-0.1-0.7-0.2-1.1-0.2
		c-0.2,0-0.4,0-0.6,0l-0.5,0.1c-0.6,0.1-1.2,0.1-1.8,0.1c-1.2-0.1-2.4-0.3-3.3-0.9c-0.5-0.3-0.9-0.6-1.1-1.1
		c-0.3-0.4-0.4-0.9-0.5-1.4c-0.1-1.1,0.3-2.2,0.7-3.4c0.1-0.3,0.2-0.6,0.3-1c0.1-0.4,0-0.7,0-1c-0.1-0.7-0.3-1.3-0.3-1.9
		c0-0.3,0.1-0.7,0-1c0-0.3-0.1-0.7-0.3-1c-0.3-0.6-0.9-1.1-1.5-1.4c0.7-0.6,1.3-1.2,1.8-2c0.6-0.9,1-1.9,1.2-3
		c0.2-1.1,0-2.2-0.4-3.3c-0.4-1-1.4-2-2.6-2.1l0,0c-0.5,0-1,0.1-1.5,0.2c-0.5,0.2-0.9,0.5-1.2,0.9c-0.6,0.8-0.9,1.9-0.9,2.8
		c0,1,0.1,1.9,0.1,2.8c0,0.4,0.1,0.8,0,1.2c-0.6-0.4-1.5-0.9-2.1-1.1c-0.4-0.1-0.7-0.2-1.1-0.3c-0.4-0.1-0.8-0.1-1.2-0.1
		c-0.8,0-1.6,0.3-2.3,0.6c-0.7,0.3-1.4,0.6-2,1.1c-0.6,0.4-1.2,0.7-1.8,1c-0.6,0.3-1.3,0.5-2,0.8c-0.7,0.3-1.4,0.7-2,1.4
		c-0.3,0.3-0.4,0.8-0.5,1.2c0,0.3-0.2,0.6-0.1,0.9c-0.4-0.1-0.7-0.1-1.2-0.2c-0.7-0.2-1.5-0.4-2.2-0.5c-0.7-0.2-1.5-0.4-2.2-0.5
		c-0.4-0.1-0.8-0.2-1.1-0.2c-0.4-0.1-0.8-0.2-1.3-0.2l-0.2,0l-0.2,0l-3.8,1.1c-0.4,0.1-0.9,0.3-1.3,0.4c0.4-0.3,0.7-0.5,1.1-0.8
		c1.1-0.9,2.2-1.8,3.1-2.8c0.5-0.5,0.9-1.1,1.3-1.7c0.3-0.7,0.5-1.4,0.6-2.1c0.2-1.4,0-2.8-0.5-4.1c0.3,1.3,0.3,2.7,0,4
		c-0.2,0.6-0.4,1.2-0.8,1.8c-0.3,0.5-0.8,1-1.3,1.4c-1,0.9-2.1,1.6-3.3,2.3c-2.8,1.8-3.3,2.7-3.6,3.6c-0.3,1.3-0.6,2.6-0.8,4
		c-0.3,1.7-0.6,3.5-0.9,5.2l-0.2,1.3l-0.1,0.6c0,0.3-0.1,0.5-0.1,0.8c0,1,0.1,1.9,0.2,2.8c0.2,0.9,0.4,1.8,0.7,2.7
		c0.2,0.4,0.3,0.9,0.5,1.3c0.1,0.2,0.2,0.4,0.4,0.7c0.2,0.2,0.3,0.5,0.6,0.7l0.3,0.2l0.4,0c0.7,0,1.4,0,2,0.2
		c0.6,0.1,1.2,0.3,1.8,0.7c0.5,0.3,1,0.7,1.4,1.2c0.2,0.2,0.3,0.4,0.4,0.7c-2.7,0.1-5.4,0.3-8.2,0.4c-0.4,0-0.8,0-1.2,0
		c-0.2,0-0.4,0-0.5,0c-0.2,0-0.3-0.1-0.5-0.1c-0.3-0.1-0.6-0.4-0.7-0.7c-0.1-0.1-0.1-0.3-0.2-0.5c0-0.2-0.1-0.3-0.1-0.5
		c-0.1-1.6-0.3-3.1-0.4-4.7l0-0.1l0-0.1c-0.6-1.1-0.9-2.4-1.2-3.7c-0.3-1.3-0.5-2.6-0.7-3.8c-0.2-1.3-0.4-2.6-0.6-3.9
		c-0.2-1.3-0.3-2.6-0.5-3.9l0-0.2l0-0.1c-1-2-2.1-4.1-3.3-6.1c0,0-0.1-1.6,0-2.4c0.1-0.7,0.2-1.5,0.5-2.2c0.2-0.7,0.6-1.4,1-2.1
		c0.4-0.7,1-1.2,1.5-1.8c-0.6,0.5-1.3,1-1.8,1.6c-0.5,0.6-1,1.3-1.3,2c-0.4,0.7-0.7,1.5-0.8,2.3c-0.2,0.8-0.3,1.6-0.3,2.5
		c0,0,0,0.1,0,0.1c-0.2,0.2-0.7,0.2-0.9,0c-0.2-0.4-0.4-2.2-0.4-3.3c0-1.1,0-2.1,0.2-3.2c0.2-1.1,0.5-2.1,0.9-3.1
		c0.4-1,1-1.9,1.7-2.8c-0.8,0.8-1.5,1.6-2,2.6c-0.5,1-1,2-1.2,3.1c-0.3,1.1-0.5,2.2-0.5,3.3c0,0.9,0,1.7,0,2.6
		c0,0.4-0.3,0.7-0.6,0.7c-1.1,0-2.1,0.1-3.2,0.1c-2.3,0.1-4.7,0.5-7,0.6c-2.3,0.1-4.7,0.4-7,0c-1.2-0.2-2.3-0.5-3.4-0.8l-1.7-0.5
		c-0.5-0.2-1.1-0.3-1.5-0.5l-0.3-0.1l-0.2,0c-0.6,0.1-1.2,0.1-1.8,0.2c-0.6,0.1-1.2,0.1-1.9,0.2c-1.1,0.1-2.1,0-3.2,0.3
		c0.3-0.3,0.4-0.5,0.7-0.8c0.9-1.1,1.8-2.3,2.4-3.6c0.7-1.3,1.2-2.7,1.3-4.1c-0.3,1.4-1,2.7-1.7,3.9c-0.8,1.2-1.7,2.3-2.7,3.3
		c-0.9,0.9-1.6,2.7-2.8,3.3c-3,1.6-5.1,4.7-5.6,5.4c-0.6,0.8-1.2,1.7-1.8,2.6c-1.1,1.8-2.1,3.6-3.1,5.5c-0.5,0.9-0.9,1.9-1.3,2.9
		c-0.1,0.3-0.2,0.5-0.3,0.8c-0.1,0.3-0.2,0.6-0.2,0.9c-0.1,0.6-0.2,1.2-0.2,1.7c0,2.3,0.5,4.4,1.2,6.4l0.2,0.7l0.7,0
		c0.9,0,1.9,0.4,2.7,0.9c0.4,0.3,0.8,0.6,1.1,1c0,0,0,0,0,0c-1.8,0-3.5,0.1-5.3,0.2l-0.9,0c-0.2,0-0.4,0-0.6-0.1
		c-0.4-0.2-0.7-0.5-0.9-1c-0.4-1.1-0.9-2.1-1.3-3.2c-0.8-2.2-1.6-4.3-2.3-6.5c-0.5-1.6-0.9-3.1-1.4-4.7c-0.3-0.9,0-1.9,0.6-2.5
		c0.7-0.8,1.4-1.6,2.1-2.5c0.6-0.8,1.2-1.6,1.7-2.5c0.2-0.2,0.3-0.5,0.4-0.7c0.2-0.4,0.4-0.7,0.6-1.2c0.4-0.9,0.5-1.9,0.4-2.8
		c-0.1-0.9-0.3-1.8-0.6-2.6c-0.7-1.6-1.7-3-2.9-4.3c0,0-3.8-3.5-5-5.6c-0.6-1.1-1.1-2.3-1.3-3.5C2.3,81.8,2.3,80.5,2.4,79.3z
		 M2.9,87c0.7,1.1,1.6,2.1,2.6,3c1,0.9,1.8,1.6,3,2.2c0,0-2.1-1-3.1-1.6c-1-0.6-2-1.4-2.7-2.2c-0.7-0.9-1.1-1.9-1.2-3
		c-0.1-0.5-0.1-1-0.1-1.5C1.8,85,2.3,86,2.9,87z"/>
	<path class="st4" d="M29.4,74.8c0.1,0.1,4.8,8.6,3.3,12.4c-1.5,3.7-4.8,8.3-5.1,8.4c-0.3,0.1-4.5,4.2-4.5,4.2s3.6-4.4,4.6-5.9
		c0.9-1.6,4.2-5.6,3.4-9.1C30.3,81.3,29.4,74.8,29.4,74.8z"/>
</g>
</svg>
