<?xml version="1.0" encoding="utf-8"?>
<!-- Generator: Adobe Illustrator 23.0.0, SVG Export Plug-In . SVG Version: 6.00 Build 0)  -->
<svg version="1.1" id="Layer_1" xmlns="http://www.w3.org/2000/svg" xmlns:xlink="http://www.w3.org/1999/xlink" x="0px" y="0px"
	 viewBox="0 0 128 128" style="enable-background:new 0 0 128 128;" xml:space="preserve">
<style type="text/css">
	.st0{fill:#2D2D2D;}
	.st1{fill:#867E3F;}
	.st2{fill:#E68939;}
	.st3{fill:#D1782C;}
	.st4{fill:#DB883D;}
	.st5{fill:#434547;}
	.st6{fill:#5E6163;}
	.st7{fill:#E69D5E;}
	.st8{fill:#D97E30;}
	.st9{fill:#E69550;}
</style>
<g>
	<path class="st0" d="M74.5,17.7c-0.5,0.3-1.2,0.8-1.8,0.8c-0.9-0.1-1.5-0.7-1.5-1.5c0.1-0.7,0.8-1.2,1.7-1.1
		c0.6,0.1,1.3,0.7,1.6,1.2C74.7,17.2,74.7,17.5,74.5,17.7z"/>
	<path class="st0" d="M85.1,17c0.1,0.7-0.6,1.4-1.5,1.5c-0.6,0.1-1.4-0.4-1.8-0.8c-0.2-0.2-0.3-0.5-0.1-0.7c0.4-0.4,1-1.1,1.6-1.2
		C84.2,15.7,85,16.3,85.1,17z"/>
	<path class="st0" d="M80.4,20.9l0,0.1c0,0.7-0.1,1.4-0.4,2.1c-0.1,0.4-0.3,0.7-0.6,1.1c-0.3,0.3-0.8,0.6-1.3,0.6
		c-0.5,0-1-0.3-1.3-0.6c-0.3-0.3-0.4-0.7-0.6-1c-0.2-0.7-0.3-1.4-0.3-2.1V21l0-0.1c0.2-0.3,0.3-0.7,0.4-1c0.1-0.3,0.3-0.7,0.4-1.1
		c0.2-0.7,0.4-1.5,0.5-2.2c0.1,0.8,0,1.5-0.1,2.3c0,0.4-0.1,0.8-0.2,1.2c-0.1,0.3-0.2,0.7-0.3,1c0.1,0.6,0.3,1.2,0.5,1.7
		c0.1,0.3,0.3,0.5,0.4,0.6c0.2,0.1,0.3,0.2,0.4,0.2c0.1,0,0.2-0.1,0.4-0.2c0.1-0.1,0.3-0.4,0.4-0.6c0.2-0.5,0.3-1.1,0.4-1.7
		c-0.1-0.3-0.2-0.7-0.3-1c-0.1-0.4-0.1-0.8-0.2-1.2c0-0.4,0-0.8,0-1.2c0-0.4,0.1-0.8,0.2-1.2c0.1,0.4,0.2,0.8,0.3,1.1
		c0.1,0.4,0.2,0.7,0.3,1.1c0.1,0.4,0.2,0.7,0.4,1.1c0.1,0.3,0.3,0.7,0.4,1L80.4,20.9z"/>
	<path class="st1" d="M79.8,106l-1.6,0.2c-3.5,0.6-7,1.1-10.5,1.7c-3.3,0-6.6,0.3-9.8,0.5l-9.9,0.8c-3.3,0.3-6.6,0.6-9.9,1.2
		c-0.8,0.2-1.6,0.3-2.4,0.5l-2.4,0.6c-1.6,0.4-3.1,0.9-4.7,1.3c-0.3,0-0.8-0.1-1.2-0.2c-0.4-0.1-0.9-0.2-1.4-0.3
		c-0.9-0.2-1.8-0.5-2.7-0.7c-1.6-0.5-3.8-1.5-5.3-2.6c-0.7-1.2-0.6-1.2-0.9-2.5c-0.7-2.6-0.8-4.5-0.7-7.2c3.1,2.4,8.4,3.6,9.4,3.7
		c0.1,0,0.1,0,0.2,0l0.3,0l0.5,0.1l0.9,0.1c0.6,0,1.2,0.1,1.8,0.1c0.6,0,1.2,0,1.8,0c0.6,0,1.2,0,1.8,0c1.2,0,2.4-0.1,3.6-0.3
		l1.8-0.2c0.6-0.1,1.2-0.2,1.8-0.3c2.3-0.5,4.7-1.1,6.9-2c2.1-0.9,4.1-2.1,5.7-3.6c0.3,0.5,0.6,1.1,0.9,1.9
		c-0.2,1.9,0.3,3.4,1.3,4.5c2,1.9,5.3,1.4,5.4,1.4c0.1,0,6.6-0.8,13.3,0.1C75.7,105,77.8,105.5,79.8,106z"/>
	<path class="st1" d="M5.5,106.2c-0.3-0.1-0.6-0.2-1.1-0.3c-1.5-0.5-2.5-1.9-2.5-3.5v-6.8c0-0.2,0.1-0.3,0.1-0.3
		c0.1,0,0.2-0.1,0.3,0c0.9,0.3,1.5,0.3,2.3,1C5,96.5,5,102.8,5.5,106.2z"/>
	<path class="st1" d="M126.8,86.5c0,0.8-0.1,1.5-0.2,2.3c-0.2,1.5-0.4,3.1-0.4,4.6l-0.1,1.2c0,0.4,0,0.7-0.1,1
		c-0.1,0.6-0.3,1.2-0.6,1.8c-0.6,1.1-1.6,2-2.9,2.5c-1.5,0.5-4.5,0.4-4.6,0c-0.4-2.2-1.3-4.4-2.7-6.2c-0.2-0.3-0.5-0.6-0.8-0.9
		c1.5-0.2,2.9-0.8,4.2-1.5c1.4-0.7,2.7-1.6,3.9-2.6c0.6-0.5,1.1-1.1,1.7-1.6l0.8-0.8l0.4-0.4c0.2-0.2,0.2-0.2,0.4-0.3
		c0.3-0.1,0.6-0.1,0.8,0.1C126.7,85.9,126.8,86.2,126.8,86.5z"/>
	<path class="st2" d="M117.8,106.6c-0.1,2.2-0.5,4.4-1,6.5c-0.3,1.1-0.5,2.2-0.9,3.1c-0.4,0.9-1,1.8-1.7,2c-0.3,0.1-0.8,0.1-1.2,0
		c-0.4-0.1-0.7-0.3-1-0.6c-0.6-0.6-1-1.5-1-2.4l0-0.3l0-0.4c0-0.3,0.1-0.5,0.1-0.8c0.1-0.5,0.2-1.1,0.3-1.6c0.2-1.1,0.5-2.2,0.7-3.3
		c0.2-1.1,0.4-2.3,0.2-3.6c-0.1-1.2-0.4-2.4-0.9-3.5c-1-2.2-2.8-4.1-5-5.1c-1.1-0.5-2.4-0.7-3.6-0.7c-1.2,0.1-2.2,0.2-3.4,0.3
		c-2.2,0.3-4.4,0.9-6.5,1.8c-1,0.5-2,1-2.9,1.7c-2.8,2.2-5.2-1.2-5.7-1.5c-0.1-0.7-0.2-1.6-0.2-1.6c3.8-2.2,7.8-4.3,12-5.1
		c1.1-0.2,2.1-0.4,3.2-0.4c1.1-0.1,2.1-0.2,3.2-0.2c0.5,0,1.1,0,1.6,0l0.8,0l0.8,0c0.5,0,1,0.1,1.6,0.1c0.5,0.1,1,0.1,1.5,0.3
		c2,0.4,3.9,1.4,5.4,2.9c0.7,0.8,1.3,1.6,1.8,2.6c0.5,1,0.8,2,1.1,3.1C117.8,102.2,117.9,104.5,117.8,106.6z"/>
	<path class="st1" d="M109.6,102.7c0,0.2-6.7,0.8-10.1,1c-3.4,0.2-6.7,0.5-10.1,0.8c-0.3-0.9-0.8-1.8-1.3-2.5
		c3.3-2.8,7.4-3.8,11.5-4.1c1.1-0.1,2.2-0.1,3.2-0.1c1,0,1.9,0.3,2.8,0.7C107.4,99.3,108.8,100.8,109.6,102.7z"/>
	<path class="st3" d="M82.8,97.9c-0.5-0.1-1.1-0.2-3.5-0.7c-0.1-2.4-0.3-4.7-0.7-7c-0.2-1.2-0.4-2.3-0.7-3.5
		c-0.1-0.6-0.3-1.2-0.5-1.8c-0.1-0.3-0.2-0.6-0.4-0.9c-0.1-0.2-0.2-0.3-0.3-0.5l-0.2-0.3c-0.3-0.4-0.5-0.9-0.8-1.4l-0.8-1.5
		l-1.5-3.1c-1-2.1-2-4.1-3.2-6.2c0.1-0.8,0.2-1.6,0.4-2.4c0.1-0.8,0.3-1.7,0.5-2.5c0.2-0.8,0.4-1.7,0.6-2.5c0.2-0.8,0.4-1.7,0.5-2.6
		c0.1-0.9,0.2-1.7,0.2-2.6c0-0.9,0.2-4,0.3-4.2c0.1-0.2,1-3,1.9-5.8c0.2,1.7,0.3,3.5,0.4,5.2c0.1,2.4,0,4.7,0.2,7.1
		c0.1,2.4,0.3,4.8,0.2,7.1c-0.1,2.4-0.5,4.7-0.9,7.1l0,0.2l0.1,0.2c0.9,1.8,1.7,3.9,2.5,5.9c0.8,2,1.5,4.1,2.2,6.1
		c0.8,2,1.5,4,2.3,6C82.4,94.9,82.5,96.2,82.8,97.9z"/>
	<path class="st2" d="M78.5,108.1c0.9-0.1,0.8-0.1,1.7-0.2c-2.7,2.9-4.9,5.2-8.2,7.2c-3.6,2.2-7.3,4-11.1,5.7
		c-1.9,0.9-3.8,1.7-5.8,2.4c-2,0.7-4,1.4-6,2c-4.1,1.1-8.3,1.7-12.4,1.7c-4.1-0.1-8.3-0.9-12.1-2.3c-3.9-1.4-7.4-3.6-10.4-6.3
		c-3-2.7-5.3-6.2-6.7-10.1c-1.3-3.8-1.3-14.9-1.3-15.5l0.1-2.9c0.1-1.9,0.2-3.8,0.3-5.8v0l0-0.1c-0.2-1.7-0.4-3.4-0.6-5.2
		c-0.2-1.7-0.2-3.5-0.3-5.2c0-1.7,0-3.4,0-5.2c0.1-1.7,0.2-3.4,0.3-5.2c0.3-3.4,0.9-6.8,1.9-10.1c0.4-1.7,1-3.3,1.6-4.9
		c0.6-1.6,1.4-3.2,2.2-4.6l0,0v0c1.1-2.1,2.4-4,4-5.7c1.6-1.7,3.4-3.2,5.4-4.6s4-2.5,6.1-3.6c2.1-1.1,4.2-2,6.4-2.9
		c0.8-0.3,1.7-0.6,2.5-1c0.8-0.3,1.7-0.6,2.5-1c1.7-0.6,3.3-1.3,5-1.8c1.7-0.6,3.4-1.1,5.1-1.5c0.9-0.2,1.7-0.4,2.6-0.5
		c0.8-0.1,1.6-0.2,2.5-0.2c-0.2,0.3-0.5,0.6-0.7,0.9c-0.3,0.4-0.7,0.8-1.1,1.1c-0.4,0.3-0.8,0.5-1.3,0.6l-1.5,0.3l1.5,0.3
		c0.7,0.2,1.5,0.3,2.2,0.3c0.4,0,0.7,0,1.1,0c-0.3,0.4-0.7,0.8-1,1.2c-0.6,0.6-1.4,1.2-2.1,1.7l-2,1.4l2.5-0.1
		c1.3-0.1,2.5-0.3,3.7-0.6c0.3-0.1,0.7-0.2,1-0.3c-0.1,0.1-0.1,0.2-0.2,0.2c-0.5,0.8-0.9,1.6-1.4,2.2l-1.8,2.4l2.8-1
		c1.4-0.5,2.8-1,4.1-1.6c0.7-0.3,1.3-0.6,2-0.8c0.4-0.1,0.7-0.2,1-0.3L62.5,29c0,0.5-0.1,1-0.1,1.6c0,0.5,0,1.1,0.1,1.7
		c0.1,0.6,0.2,1.2,0.7,1.7l0.4,0.5L64,34c0.5-0.4,1.2-0.7,2-0.9c0.8-0.2,1.5-0.4,2.3-0.7c0.4-0.1,0.9-0.3,1.3-0.5
		c-0.1,0.2-0.1,0.4-0.1,0.5c0,0.4,0.1,0.8,0.3,1.1c0.2,0.4,0.4,0.7,0.7,0.9c0.3,0.2,0.7,0.4,1,0.5c0.7,0.3,1.2,0.6,1.9,1
		c0.6,0.3,1.2,0.5,1.8,0.6c0.1,0,0.1,0.1,0.2,0.1c0,0,0,0,0,0c0,0.1-0.8,3-1,5.7c-0.2,1.7-1.6,6.1-2.6,9.1c-0.1-0.4-0.3-0.7-0.4-1
		c0,0-0.1-0.1-0.1-0.1c-0.1,0-0.1,0.1-0.1,0.1v0c0.1,0.9,0,4.6-0.1,5.1c0,0.8-0.1,1.7-0.2,2.5c-0.1,0.8-0.1,1.7-0.2,2.5
		c-0.1,1.7-0.1,3.4-0.2,5.1c-0.2,1.7-0.6,3.4-1.1,5l0,0.1l0.1,0.2c0.8,2.1,1.5,4.4,2.4,6.6c0.4,1.1,0.9,2.2,1.3,3.3
		c0.5,1.1,0.9,2.1,1.6,3.3l0.3,0.4c0,0,0.1,0.1,0.1,0.2c0.1,0.2,0.2,0.4,0.3,0.7c0.2,0.5,0.4,1,0.5,1.6c0.4,1.1,0.7,2.2,1,3.3
		c0.6,2.2,0.8,3.8,0.7,6.4c-3.6-0.7-7.3-1.1-12.7-1.2c-1.1-1.6-2-5.9-2.6-9.4c-0.4-2.2-0.8-4.2-1.3-5.9c-0.5-1.8-1.3-4.3-2.1-6.9
		c-1.5-4.6-3.2-9.9-3.4-11.9c-0.1-1.2-0.6-2.3-1.3-3.2c0-0.1-0.1-0.2-0.1-0.3l0,0c-0.6-1.1-1.1-2.3-1.5-3.5
		c-0.4-1.2-0.8-2.4-1.1-3.7c-0.3-1.3-0.5-2.5-0.6-3.8c-0.1-1.3,0-2.6,0.3-3.9c-0.5,1.2-0.7,2.5-0.8,3.9c-0.1,1.3,0,2.7,0.1,4
		c0.1,1.3,0.4,2.6,0.6,4c0.1,0.2,0.1,0.4,0.2,0.7c-0.2-0.1-0.3-0.2-0.4-0.3c-0.5-0.4-0.9-0.7-1.2-1l-0.1-0.1c-3.5-2.6-6.7-1.2-7.8,0
		c0,0,0,0.1-0.1,0.1l-2.4,2.2l-1.2,1.1l-0.6,0.5l-0.3,0.3l-0.3,0.3c-1.4,1.8-2.7,3.6-3.9,5.4c-1.2,1.9-2.3,3.8-3.4,5.7
		c-1,2-2,4-2.7,6.1c0.9-2,2-3.9,3.1-5.8c1.2-1.9,2.4-3.6,3.8-5.4c1.3-1.7,2.7-3.4,4.2-5l0.3-0.3l0.3-0.2l0.6-0.5l1.3-1l2.6-2.1l0,0
		c0,0,0,0,0,0c0.1-0.1,0.1-0.1,0.1-0.2c0.4-0.3,2.4-1.9,5.3,0.2c0.4,0.3,0.8,0.7,1.3,1.1c1.6,1.3,3.6,2.8,3.8,5
		c0.2,2.2,1.9,7.3,3.5,12.3c0.8,2.6,1.6,5.1,2.1,6.8c0.4,1.6,0.8,3.6,1.3,5.8c0.9,4.7,1.8,9,3.4,10.7l0.3,0.3h0.4
		c7.4,0,14.6,1.5,17.5,2.1c1,0.2,1.9,0.7,2.7,1.4c0.9,0.8,2,2,2.6,3.6c0,0-10-1.5-13.6-2c-6.9-1-13.5-0.2-13.8-0.1
		c0,0-2.5,0.4-3.8-0.9c-0.7-0.7-0.9-1.7-0.7-3.1l0-0.2l-0.1-0.2c-1.1-2.8-2.2-4-3.2-5.1c-0.8-0.8-1.5-1.6-2.3-3.1
		c0-0.1-0.1-0.2-0.2-0.4h0c-0.4-0.6-0.9-1.2-1.3-1.8c-0.4-0.6-0.8-1.3-1.2-1.9c-0.4-0.7-0.7-1.3-1-2c-0.3-0.7-0.6-1.4-0.7-2.1
		c0,0.8,0.1,1.5,0.3,2.3c0.2,0.8,0.4,1.5,0.6,2.2c0.2,0.7,0.5,1.5,0.8,2.2c0.3,0.7,0.6,1.4,0.9,2.2c0,0,0,0,0,0c0,0.1,0,0.1,0.1,0.2
		c0.9,1.8,1.8,2.7,2.6,3.6c0.7,0.7,1.3,1.3,1.9,2.4c-2,1-4,1.9-6.1,2.5c-0.2,0.1-0.4,0.1-0.7,0.2c-0.7,0.2-2,0.5-2.7,0.7l-0.8,0.2
		l-0.9,0.2c-0.6,0.1-1.1,0.2-1.7,0.3c-2.3,0.4-4.6,0.5-6.9,0.7c-1.2,0.1-2.3,0.1-3.5,0.1c-0.6,0-1.2,0-1.7,0l-0.9,0l-0.4,0
		c0,0-1.2,0-2.8-0.4c-0.8-0.2-1.6-0.4-2.4-0.6c-0.8-0.3-1.6-0.5-2.4-0.9c-0.8-0.3-2.3-1.3-2.4-1.3c-0.1,0-0.1,0-0.1,0.1
		c-0.7,2.7-1.1,5.6-0.6,8.5c0.4,2.9,1.8,5.8,3.9,7.9c2.1,2.2,4.8,3.5,7.5,4.4c2.8,0.9,5.6,1.1,8.4,1c2.8-0.1,5.6-0.4,8.4-0.7
		c2.8-0.3,5.6-0.6,8.3-1.3c2.7-0.7,5.4-1.8,7.8-3.3c2.3-1.4,4.5-3.2,6-5.5c0.6,0,1.1,0.1,1.7,0.1h0l0.1,0
		C71.4,109,75,108.5,78.5,108.1z"/>
	<path class="st4" d="M71.5,29.7c-0.3,0.5-0.7,0.9-1.2,1.2c-0.6,0.4-1.4,0.6-2.2,0.8c-0.8,0.2-1.6,0.2-2.4,0.4
		c-0.6,0.1-1.2,0.3-1.8,0.6c-0.1-0.2-0.1-0.4-0.1-0.6c0-0.4,0-0.9,0-1.4c0-0.5,0.1-1,0.2-1.5l0.1-0.8c0-0.3,0.1-0.5,0-1l-0.1-0.6
		l-0.6-0.1c-0.9-0.2-1.8,0-2.5,0.3c-0.7,0.2-1.4,0.5-2.1,0.8c-0.5,0.2-1.1,0.4-1.6,0.6c0,0,0.1-0.1,0.1-0.1c0.4-0.8,0.9-1.5,1.5-2
		l2-1.8l-2.6,0.3c-0.5,0.1-0.7,0.2-1.1,0.3l-0.9,0.3c-0.6,0.2-1.1,0.4-1.7,0.6c-0.4,0.1-0.8,0.2-1.1,0.3c0.1-0.1,0.2-0.2,0.3-0.3
		c0.7-0.7,1.2-1.6,1.6-2.5L56,22l-1.3,0.9c-0.2,0.1-0.5,0.2-0.9,0.3c-0.3,0.1-0.7,0.1-1,0.1c-0.3,0-0.7,0-1,0
		c0.2-0.1,0.3-0.2,0.4-0.3c0.4-0.3,0.8-0.8,1.1-1.2l1-1.2c0.3-0.4,0.7-0.8,1.1-1l0.6-0.3L55.3,19c-0.4-0.2-0.9-0.4-1.4-0.5
		c-0.5-0.2-1-0.3-1.5-0.4C52,18,51.6,18,51.2,17.9c0,0,0,0,0,0c0.6-0.2,1.2-0.3,1.8-0.4c1.3-0.1,2.5-0.2,3.8-0.1
		c0.6,0,1.4,0.1,2.1,0c0.7-0.1,1.5-0.1,2.3-0.8c0.1-0.1,0.2-0.2,0.3-0.3c0.1-0.1,0.2-0.2,0.2-0.4c0.1-0.4,0.1-0.8-0.1-1.1
		c-0.1-0.2-0.2-0.3-0.4-0.4c-0.2-0.1-0.2-0.1-0.3-0.2c-0.1-0.1-0.3-0.1-0.4-0.2c-0.1-0.1-0.2-0.1-0.3-0.2c0.2,0,0.4,0,0.6,0
		c0.7,0.1,1.4,0.2,2.2,0.4c0.7,0.2,1.4,0.4,2.1,0.7c0.3,0.1,0.7,0.3,1,0.4l0.5,0.2c0.1,0,0.2,0.1,0.3,0.1c-0.4,0.8-0.7,1.7-0.8,2.7
		c0,0.7,0.1,1.4,0.3,2.1c0.3,0.7,0.7,1.3,1.2,1.8c0.8,0.8,1.9,1.4,2.9,1.9c-0.1,1,0,1.9,0.1,2.9C70.9,28,71.2,28.8,71.5,29.7z"/>
	<path class="st4" d="M103.9,24c-0.3,0-0.6,0-1,0c-0.3,0-0.7,0-1-0.1c-0.3-0.1-0.7-0.2-0.9-0.3l-1.4-0.8l0.8,1.5
		c0.4,0.8,1,1.6,1.6,2.3c0,0,0.1,0.1,0.1,0.1c-0.3-0.1-0.7-0.2-1-0.2c-0.6-0.2-1.1-0.3-1.7-0.5l-0.9-0.3c-0.3-0.1-0.6-0.2-1-0.2
		l-2.7-0.3l2.1,1.8c0.6,0.5,1,1.1,1.5,1.8c-0.5-0.2-1-0.4-1.5-0.5c-0.7-0.2-1.3-0.5-2.1-0.7c-0.7-0.2-1.6-0.4-2.5-0.3l-0.6,0.1
		l-0.1,0.6c0,0.4,0,0.7,0,0.9l0.1,0.7c0.1,0.5,0.1,0.9,0.2,1.4c0,0.4,0.1,0.9,0,1.3c0,0.2-0.1,0.3-0.1,0.5c-0.6-0.3-1.1-0.4-1.7-0.5
		c-0.8-0.1-1.5-0.2-2.2-0.3c-0.7-0.1-1.4-0.3-2-0.7c-0.5-0.4-1-0.9-1.3-1.5c0.3-0.8,0.5-1.6,0.6-2.5c0.2-1,0.2-1.9,0.1-2.9
		c1.1-0.5,2-1.4,2.6-2.3c0.8-1.1,1.3-2.4,1.3-3.8c0-0.8-0.1-1.5-0.3-2.2c0.7-0.1,1.3-0.2,1.9-0.3c0.7-0.1,1.3-0.2,2-0.2
		c0.9-0.1,1.8-0.1,2.6,0c-0.2,0.1-0.3,0.3-0.5,0.4L94.8,16l-0.2,0.2l-0.1,0.1c-0.1,0-0.1,0.1-0.2,0.2c-0.4,0.5-0.5,1.2-0.1,1.8
		c0.1,0.1,0.1,0.1,0.2,0.2l0.2,0.1c0.1,0.1,0.2,0.1,0.3,0.2c0.2,0.1,0.4,0.2,0.6,0.2c0.4,0.1,0.8,0.2,1.1,0.2c0.7,0.1,1.4,0,2.1,0
		c1.3-0.1,2.6-0.1,3.9-0.1c0.3,0,0.6,0,0.9,0c-0.1,0-0.1,0-0.2,0c-0.5,0.1-1,0.2-1.5,0.4c-0.5,0.1-1,0.3-1.4,0.5l-0.7,0.2l0.6,0.3
		c0.4,0.2,0.7,0.6,1.1,0.9l1,1.2c0.3,0.4,0.7,0.8,1.1,1.1C103.6,23.8,103.7,23.9,103.9,24z"/>
	<path class="st3" d="M87.1,32.3c-0.3,0.6-0.7,0.9-1.1,1.3c-0.2,0.2-0.5,0.4-0.7,0.6c-0.2,0.2-0.5,0.5-0.7,0.7
		c-0.5,0.4-1.2,0.6-1.9,0.6c-0.3,0-0.7,0-1,0c-0.3,0-0.7,0-1,0l-0.1,0l-0.2,0.1c-0.7,0.4-1.1,0.8-1.5,1.4c-0.2,0.3-0.3,0.6-0.5,0.9
		c-0.1,0.2-0.2,0.5-0.3,0.8c-0.2-0.6-0.5-1.2-0.9-1.7c-0.1-0.1-0.2-0.2-0.3-0.4c-0.1-0.1-0.1-0.2-0.2-0.2c-0.3-0.3-0.6-0.6-1.1-0.8
		l-0.2-0.1h-0.1c-0.6,0-1.2,0-1.9,0c-0.6,0-1.3-0.2-1.7-0.7c-0.2-0.2-0.4-0.5-0.5-0.8c-0.1-0.1-0.2-0.2-0.2-0.4
		c-0.1-0.1-0.2-0.2-0.3-0.3c-0.3-0.4-0.5-0.8-0.7-1.4c0.2-0.1,0.3-0.2,0.5-0.4c0.5-0.4,0.8-0.8,1.1-1.4c0.1,0.2,0.2,0.4,0.3,0.5
		c0.6,1.1,1.5,2,2.6,2.6c1.1,0.6,2.4,0.8,3.5,0.8c1.2,0,2.5-0.2,3.6-0.8c1.1-0.6,2-1.6,2.6-2.7c0.1-0.2,0.2-0.4,0.3-0.7
		c0.3,0.6,0.6,1.2,1.1,1.6C86.1,31.8,86.6,32.1,87.1,32.3z"/>
	<path class="st5" d="M83.3,28.2c-0.2,0.5-0.4,1-0.6,1.4c-0.5,0.8-1.1,1.5-1.9,1.9c-0.8,0.4-1.7,0.6-2.7,0.5c-0.5,0-1-0.1-1.4-0.2
		c-0.5-0.1-0.9-0.2-1.3-0.5c-0.8-0.4-1.5-1.1-1.9-1.9c-0.3-0.4-0.5-0.9-0.7-1.4c0.8,0,1.6,0.1,2.4,0.1l3,0l2.9,0
		C81.8,28.2,82.6,28.2,83.3,28.2z"/>
	<path class="st6" d="M88,14.5c-0.4-0.9-1.1-1.7-1.9-2.5C85,12.7,84,13.3,83,14.1l-0.3,0.2l-0.4-0.2C82,14.1,81.7,14,81.4,14
		c-0.3,0-0.7-0.1-1-0.1c-0.7,0-1.4,0-2.1,0h-0.2c-0.7,0-1.4,0-2.1,0c-0.3,0-0.7,0-1,0.1c-0.3,0-0.7,0.1-0.9,0.2l-0.4,0.2l-0.3-0.2
		c-1.1-0.8-2.2-1.5-3.4-2.2c-0.8,0.9-1.5,2-2,3c-0.5,1.1-0.9,2.3-0.9,3.5c0,1.2,0.6,2.2,1.4,2.9c0.9,0.7,1.9,1.3,3.1,1.6l0.5,0.2
		l0,0.6c0,1.4,0.1,2.8,0.4,4c0.7-0.4,1.5-0.6,2.3-0.8c1-0.2,2.1-0.4,3.1-0.4c1,0,2.1,0.1,3.1,0.4c0.8,0.2,1.5,0.5,2.2,0.9
		c0.4-1.3,0.5-2.7,0.5-4l0-0.6l0.5-0.1c1-0.3,1.9-1,2.6-1.9c0.7-0.9,1.2-2,1.4-3.1C88.7,16.8,88.5,15.6,88,14.5z M74.5,17.7
		c-0.5,0.3-1.2,0.8-1.8,0.8c-0.9-0.1-1.5-0.7-1.5-1.5c0.1-0.7,0.8-1.2,1.7-1.1c0.6,0.1,1.3,0.7,1.6,1.2
		C74.7,17.2,74.7,17.5,74.5,17.7z M80.4,21.1c0,0.7-0.1,1.4-0.4,2.1c-0.1,0.4-0.3,0.7-0.6,1.1c-0.3,0.3-0.8,0.6-1.3,0.6
		c-0.5,0-1-0.3-1.3-0.6c-0.3-0.3-0.4-0.7-0.6-1c-0.2-0.7-0.3-1.4-0.3-2.1V21l0-0.1c0.2-0.3,0.3-0.7,0.4-1c0.1-0.3,0.3-0.7,0.4-1.1
		c0.2-0.7,0.4-1.5,0.5-2.2c0.1,0.8,0,1.5-0.1,2.3c0,0.4-0.1,0.8-0.2,1.2c-0.1,0.3-0.2,0.7-0.3,1c0.1,0.6,0.3,1.2,0.5,1.7
		c0.1,0.3,0.3,0.5,0.4,0.6c0.2,0.1,0.3,0.2,0.4,0.2c0.1,0,0.2-0.1,0.4-0.2c0.1-0.1,0.3-0.4,0.4-0.6c0.2-0.5,0.3-1.1,0.4-1.7
		c-0.1-0.3-0.2-0.7-0.3-1c-0.1-0.4-0.1-0.8-0.2-1.2c0-0.4,0-0.8,0-1.2c0-0.4,0.1-0.8,0.2-1.2c0.1,0.4,0.2,0.8,0.3,1.1
		c0.1,0.4,0.2,0.7,0.3,1.1c0.1,0.4,0.2,0.7,0.4,1.1c0.1,0.3,0.3,0.7,0.4,1l0.1,0.1L80.4,21.1z M83.6,18.4c-0.6,0.1-1.4-0.4-1.8-0.8
		c-0.2-0.2-0.3-0.5-0.1-0.7c0.4-0.4,1-1.1,1.6-1.2c0.9-0.1,1.7,0.4,1.7,1.1C85.2,17.7,84.5,18.4,83.6,18.4z"/>
	<path class="st2" d="M96.7,10.3c-0.1,0.7-0.3,1.4-0.8,1.9c-0.5,0.6-1.1,1.1-1.9,1.5c-0.6,0.3-1.2,0.6-1.8,0.9
		c-0.4,0.1-0.8,0.2-1.3,0.3c-0.6,0.2-1.3,0.4-1.8,0.6c-0.2-0.5-0.4-1-0.7-1.4c-0.6-0.9-1.4-1.7-2.2-2.3c2.2-1.3,4.5-2.3,6.9-3.1
		c-3.7,0.7-7.3,2-10.6,3.8c-0.3-0.1-0.6-0.2-0.9-0.2c-0.4-0.1-0.8-0.2-1.1-0.2c-0.7-0.1-1.5-0.2-2.2-0.2h-0.1c0,0,0,0,0,0
		c0,0,0,0-0.1,0c-0.8,0-1.5,0.1-2.2,0.2c-0.4,0.1-0.7,0.1-1.1,0.2c-0.3,0.1-0.6,0.1-0.9,0.2c-3.4-1.8-6.9-3.1-10.6-3.8
		c2.4,0.8,4.6,1.8,6.8,3c-0.9,0.8-1.8,1.7-2.5,2.8c-0.2,0.3-0.4,0.6-0.5,0.9c-0.2-0.1-0.5-0.3-0.7-0.5c-0.3-0.2-0.7-0.4-1-0.6
		c-0.7-0.4-1.4-0.7-2.1-1c-0.2-0.1-0.4-0.1-0.7-0.2c-0.2-0.1-0.3-0.2-0.5-0.4c-0.5-0.4-1-0.9-1.4-1.5c-0.4-0.5-0.7-1.1-0.9-1.7
		c-0.2-0.5-0.2-1-0.2-1.5c1.2-1,2.4-1.9,3.8-2.8c1.4-0.9,2.9-1.8,4.5-2.5c3.1-1.5,6.6-2.1,10-1.9c1.7,0.1,3.4,0.4,5,0.7
		c1.6,0.4,3.3,0.9,4.8,1.6c1.5,0.7,3,1.5,4.4,2.5c1.4,0.9,2.8,1.8,4.1,2.7c0,0.1,0.1,0.2,0.1,0.2c0.1,0.2,0.1,0.3,0.1,0.5
		C96.7,9.6,96.7,9.9,96.7,10.3z"/>
	<path class="st7" d="M51.4,43.2c-0.5,0.2-4.9,4.8-5.5,6.5c-2.3,0-9.4,6.7-11.9,13.5c4.8-5.2,8.6-9.8,10.6-9.5
		c2,0.2,7.1,3.9,8.3,4.9s-1.2-4.5-1.2-4.5s-1-4.6-1-5.8C50.8,45.1,51.4,43.2,51.4,43.2z"/>
	<path class="st8" d="M48.7,28.2c0,0-10.5,2.6-14.6,2.8S16.9,43.2,16.5,47.6S7.1,79.6,6.4,91c-1.2-5.2,0-14.8-0.8-17.5
		c-0.8-2.7-1.4-20,4.9-29.1c2.3-4,8.3-11.8,17.7-15.9c3-1.1,14.1-7.3,21.5-8c2.5,0,4.4,0.1,4.4,0.1s-2.1,2.6-3.2,2.8
		c1.2,0.5,3.2,0.7,4,0.1c-0.8,1.1-1.6,3.1-2.6,3.5C51.1,27.4,48.7,28.2,48.7,28.2z"/>
	<path class="st9" d="M63,9l-3.6-0.7c0,0,5.6-7.6,19.2-7.6c4.2,0.1,14,4.4,15.6,5.5c1.6,1,2.6,1.9,2.5,1.9s-3.9,1-3.9,1
		s-8.1,2.4-10.5,4.7c-1.2-0.4-8.1-0.2-8.6-0.1C73,13.2,63,9,63,9z"/>
	<path class="st8" d="M7.6,81.9C7.2,82.1,8.6,93.1,17,96c3.9-1,8.5-0.4,10.6,0.5c2.1,1,5.2,1.4,9.9,0.4c4.7-1.1,9.9-9.1,9.9-9.1
		s5.4,7.9,5.7,8s-4.8,4.6-8.7,4.9c-3.9,0.2-22.4,1.8-24.1,0.2C14.7,96.1,7,94.4,6.3,90.4S7.6,81.9,7.6,81.9z"/>
	<path class="st8" d="M71.1,50.6c0,0-5.8-6.9-8.4,1.6c-1.3,4.3-0.5,13.4,1.3,17.1c1.8,3.6,6,5.5,6,6.6c0,1.1,2.3,18.9,1.4,20.1
		c4.5,1.7,6.3,1.8,6.3,1.8s1.9-9.5-1.1-13.1c-3-3.6-5.7-12.1-6.9-14c1.8-4.4,0.4-8.1,2-12.6C72.2,56.6,71,50.8,71.1,50.6z"/>
	<path class="st8" d="M42.4,55.9c-0.6,0.3-3,4.5-1.2,10.2c1.3,4.2,3.2,6.4,3.7,11.2c0.1,0.8,0.6,4.4,0.6,4.4s1.8,8,4.1,10.2
		c2.3,2.2,4.6,5,4.8,6.2c0.2,1.2-0.5,4.7,1.7,5.3s9.8-0.6,12.2,0c2.4,0.6,17.4,1.8,19.5,2.7c0.5-1.5-0.3-4.3-2.1-5.3
		c-1.8-1.1-4.2-2.7-7.9-3c-3.7-0.2-8.9-0.4-12.4-0.6c-3.5-0.2-4-12.3-4.2-13.2s-5.3-15.6-5.3-17.2s-1.6-7.1-2.3-7.9
		c-0.7-0.8-2.9-3.4-4.6-4.1c-1.7-0.7-4.6-1.4-5.4-0.7c-0.8,0.6-1.1,1.6-1.1,1.6"/>
	<path class="st0" d="M128,94.7l0-1.2c0-1.5-0.2-3.1-0.3-4.6c-0.1-0.8-0.2-1.6-0.2-2.3c0-0.2,0-0.5-0.1-0.7
		c-0.1-0.2-0.2-0.4-0.4-0.6c-0.4-0.3-0.9-0.4-1.4-0.3c-0.2,0.1-0.5,0.2-0.6,0.3c-0.2,0.1-0.3,0.2-0.5,0.3c-0.3,0.2-0.6,0.4-1,0.6
		l-2,1.2c-2.5,1.7-4.8,3.6-7.3,5.2c-1.4-1.3-3-2.2-4.8-2.7c-0.6-0.2-1.1-0.3-1.7-0.4c-0.6-0.1-1.1-0.2-1.7-0.2l-0.9,0l-0.8,0
		c-0.5,0-1.1,0-1.7,0c-2.2,0-4.5,0.3-6.7,0.8c-2.2,0.5-4.3,1.3-6.3,2.3c-0.5,0.2-4.5,2.2-5.8,2.7c0,0-0.4-1.4-0.7-2.6
		c-0.5-2.1-1.2-4.2-1.9-6.3c-0.7-2.1-1.5-4.1-2.4-6.1c-0.9-1.9-1.8-3.9-3.1-5.7c0.1-2.3,0.1-4.6,0.2-6.9c0.1-2.4,0.5-4.8,0.7-7.2
		c0.2-2.4,0.1-4.8-0.2-7.2c-0.1-1.2-0.3-2.4-0.6-3.6c-0.2-0.9-0.5-1.7-0.9-2.5c0.5-1.8,1-3.6,1.1-4.5c0.2-1.8,0.6-3.7,0.8-4.7
		c0.4,0.3,0.7,0.5,1.2,0.7v0c0,0,0,0,0.1,0c0,0,0,0,0,0c0,0,0,0,0.1,0c0.6-0.3,1.1-0.7,1.5-1.1c0.2-0.2,0.5-0.4,0.7-0.6
		c0.2-0.2,0.4-0.3,0.5-0.5c0.3,0,0.5-0.1,0.8-0.2c0.3-0.1,0.7-0.2,1-0.4c0.7-0.3,1.3-0.6,2-0.7c0.4-0.1,0.7-0.2,1.1-0.3
		c0.3-0.2,0.6-0.4,0.9-0.7c0.3-0.3,0.5-0.6,0.6-1c0.1-0.3,0.1-0.6,0-0.9c0.1,0.1,0.3,0.1,0.4,0.2c0.7,0.2,1.5,0.4,2.2,0.6
		c0.7,0.2,1.3,0.4,1.7,0.9l0.4,0.4l0.4-0.5c0.5-0.5,0.7-1.1,0.8-1.6c0.1-0.5,0.1-1.1,0.1-1.6c0-0.5-0.1-1-0.1-1.5l0-0.5
		c0.3,0.1,0.7,0.1,1,0.3c0.6,0.2,1.3,0.5,2,0.8c1.3,0.5,2.7,1,4.1,1.5l2.9,0.9l-1.9-2.4c-0.5-0.6-0.9-1.3-1.4-2.1c0,0,0,0-0.1-0.1
		c0.3,0.1,0.6,0.2,0.9,0.2c1.2,0.3,2.4,0.5,3.7,0.6l2.7,0.1l-2.3-1.4c-1.1-0.7-2.2-1.5-3.1-2.5c0.4,0,0.7,0,1,0
		c0.7,0,1.5-0.1,2.2-0.3l1.6-0.3l-1.6-0.3c-0.4-0.1-0.9-0.3-1.3-0.5c-0.4-0.3-0.7-0.6-1.1-1c-0.3-0.4-0.6-0.8-1-1.2
		c-0.2-0.2-0.4-0.5-0.7-0.7c0.3-0.1,0.6-0.2,0.9-0.2c0.4-0.1,0.8-0.2,1.3-0.2c1-0.1,2-0.1,3.1,0l1.2,0.1l-0.7-1
		c-0.3-0.4-0.7-0.6-1-0.8c-0.4-0.2-0.7-0.3-1-0.4c-0.7-0.2-1.4-0.3-2.1-0.3c-1.4-0.1-2.7-0.1-4,0c-0.7,0.1-1.3,0.1-1.9,0.1
		c-0.3,0-0.6-0.1-0.8-0.1c-0.1,0-0.2-0.1-0.3-0.1c0,0-0.1-0.1-0.1-0.1l0,0c0,0,0,0,0,0l0.7-0.6c0.5-0.5,1-1,1.4-1.6l0.7-1l-1.1,0
		c-0.6,0-1.2,0-1.7,0.1c0.5-0.3,1.1-0.6,1.6-1c0.8-0.7,1.4-1.6,1.6-2.7c0.1-0.5,0.1-1.1,0-1.6c0-0.3-0.1-0.5-0.2-0.8
		c-0.1-0.3-0.2-0.5-0.3-0.8l-0.1-0.2L97.7,7c-2.8-2.2-5.8-4.1-9.2-5.4c-3.4-1.3-7-1.8-10.5-1.5C74.5,0.3,71,1,67.7,2.1
		c-1.7,0.6-3.3,1.3-4.9,2.1c-1.6,0.8-3.1,1.7-4.5,3L58,7.4l0,0.4c-0.1,0.8,0.1,1.7,0.4,2.5c0.3,0.8,0.8,1.5,1.4,2.1
		c0.1,0.1,0.3,0.3,0.4,0.4c-0.5,0-1-0.1-1.5-0.1l-1.1,0l0.7,1c0.4,0.6,1,1.1,1.6,1.5c0.1,0.1,0.3,0.2,0.5,0.3c0,0,0,0,0,0
		c-0.3,0.2-0.9,0.4-1.4,0.4c-0.6,0-1.2,0-1.9-0.1c-1.4-0.1-2.7,0-4.1,0.2c-0.7,0.1-1.4,0.3-2,0.6c-0.3,0.1-0.7,0.3-1,0.5
		c-0.3,0.2-0.6,0.4-0.9,0.8l-0.6,1l1.1-0.1c1-0.1,2-0.1,3,0c0.4,0.1,0.9,0.1,1.3,0.2c0.3,0.1,0.6,0.2,0.9,0.3
		c-0.3,0.2-0.5,0.5-0.7,0.8c0,0-0.1,0.1-0.1,0.1c-1.8-0.3-3.6-0.3-5.4,0c-1.8,0.2-3.6,0.6-5.3,1.1c-0.9,0.2-1.7,0.5-2.6,0.8
		c-0.9,0.3-1.7,0.6-2.6,0.9c-1.7,0.6-3.4,1.3-5,2l0,0l0,0c-2.1,1.1-4.2,2.2-6.2,3.4c-2,1.2-4,2.6-5.9,4c-1.9,1.4-3.8,3-5.5,4.7
		c-1.7,1.7-3.2,3.6-4.4,5.7c-2.1,2.9-3.5,6.2-4.6,9.6C5.1,55.9,4.4,59.4,4,62.9C3.6,66.5,3.5,70,3.7,73.6c0.1,1.8,0.2,3.5,0.5,5.3
		C4.4,80.6,4.7,82.3,5,84c0,1.9,0.1,3.8,0.3,5.7c0.1,1,0.1,1.9,0.3,2.9c0.1,0.6,0.1,1.1,0.2,1.7c-1-0.3-2-0.6-2.8-0.9
		c-0.8-0.3-1.6-0.1-2.2,0.5C0.2,94.3,0,95,0,95.6v6.7c0,2.4,1.6,4.6,3.9,5.3c0.6,0.2,0.9,0.3,1.2,0.4l0.7,0.2c0,0,0.1,0,0.1,0
		c0,0.1,0,0.1,0.1,0.2c1.1,4.3,3.5,8.2,6.7,11.2c3.2,3,7.1,5.2,11.2,6.5c4.1,1.4,8.5,1.9,12.7,1.6c2.1-0.1,4.2-0.5,6.3-0.9
		c2.1-0.4,4.2-0.8,6.2-1.3c2.1-0.5,4.1-1,6.2-1.5c2-0.6,4.1-1.2,6.1-1.9c2-0.8,3.9-1.6,5.8-2.6c1.9-1,3.7-2.1,5.5-3.3
		c3.4-2.3,6.5-5.2,8.8-8.6c0.7-0.1,1.5-0.2,2.2-0.3l0.8-0.1c1.9,0.5,3.4,0.9,4.3,0.9h0.9v-1c0-0.3,0-0.5-0.1-0.8
		c3.3-0.4,6.5-0.9,9.8-1.3c2.8-0.4,5.6-0.8,8.3-1.3c1.1-0.2,2.3,0.6,2.4,1.8v0c0.1,0.9,0,2-0.2,3c-0.2,1.1-0.4,2.1-0.6,3.3
		c-0.1,0.6-0.2,1.1-0.3,1.7c0,0.3-0.1,0.6-0.1,0.9l0,0.4v0.5c0.1,1.3,0.6,2.6,1.6,3.6c1,0.9,2.6,1.3,3.9,0.8
		c0.7-0.3,1.2-0.8,1.6-1.3c0.4-0.5,0.6-1.1,0.8-1.7c0.2-0.6,0.3-1.2,0.4-1.7c0.1-0.6,0.2-1.1,0.3-1.7c0.4-2.2,0.5-4.5,0.6-6.7
		c0-1.6,0-3.2-0.2-4.8c0,0,0,0,0,0c1.6-0.1,3.1-0.2,4.6-0.5c1.7-0.3,3.3-1.3,4.3-2.9c0.5-0.8,0.8-1.7,0.9-2.6
		C128,95.5,128,95,128,94.7z M4.4,105.9c-1.5-0.5-2.5-1.9-2.5-3.5v-6.8c0-0.2,0.1-0.3,0.1-0.3c0.1,0,0.2-0.1,0.3,0
		c0.9,0.3,1.5,0.3,2.3,1c0.3,0.2,0.3,6.6,0.9,10C5.2,106.1,4.9,106,4.4,105.9z M75.1,53.5c0.1,2.4,0,4.7,0.2,7.1
		c0.1,2.4,0.3,4.8,0.2,7.1c-0.1,2.4-0.5,4.7-0.9,7.1l0,0.2l0.1,0.2c0.9,1.8,1.7,3.9,2.5,5.9c0.8,2,1.5,4.1,2.2,6.1
		c0.8,2,1.5,4,2.3,6c0.7,1.7,0.8,3,1,4.8c-0.5-0.1-1.1-0.2-3.5-0.7c-0.1-2.4-0.3-4.7-0.7-7c-0.2-1.2-0.4-2.3-0.7-3.5
		c-0.1-0.6-0.3-1.2-0.5-1.8c-0.1-0.3-0.2-0.6-0.4-0.9c-0.1-0.2-0.2-0.3-0.3-0.5l-0.2-0.3c-0.3-0.4-0.5-0.9-0.8-1.4l-0.8-1.5
		l-1.5-3.1c-1-2.1-2-4.1-3.2-6.2c0.1-0.8,0.2-1.6,0.4-2.4c0.1-0.8,0.3-1.7,0.5-2.5c0.2-0.8,0.4-1.7,0.6-2.5c0.2-0.8,0.4-1.7,0.5-2.6
		c0.1-0.9,0.2-1.7,0.2-2.6c0-0.9,0.2-4,0.3-4.2c0.1-0.2,1-3,1.9-5.8C75,50,75.1,51.8,75.1,53.5z M86,33.6c-0.2,0.2-0.5,0.4-0.7,0.6
		c-0.2,0.2-0.5,0.5-0.7,0.7c-0.5,0.4-1.2,0.6-1.9,0.6c-0.3,0-0.7,0-1,0c-0.3,0-0.7,0-1,0l-0.1,0l-0.2,0.1c-0.7,0.4-1.1,0.8-1.5,1.4
		c-0.2,0.3-0.3,0.6-0.5,0.9c-0.1,0.2-0.2,0.5-0.3,0.8c-0.2-0.6-0.5-1.2-0.9-1.7c-0.1-0.1-0.2-0.2-0.3-0.4c-0.1-0.1-0.1-0.2-0.2-0.2
		c-0.3-0.3-0.6-0.6-1.1-0.8l-0.2-0.1h-0.1c-0.6,0-1.2,0-1.9,0c-0.6,0-1.3-0.2-1.7-0.7c-0.2-0.2-0.4-0.5-0.5-0.8
		c-0.1-0.1-0.2-0.2-0.2-0.4c-0.1-0.1-0.2-0.2-0.3-0.3c-0.3-0.4-0.5-0.8-0.7-1.4c0.2-0.1,0.3-0.2,0.5-0.4c0.5-0.4,0.8-0.8,1.1-1.4
		c0.1,0.2,0.2,0.4,0.3,0.5c0.6,1.1,1.5,2,2.6,2.6c1.1,0.6,2.4,0.8,3.5,0.8c1.2,0,2.5-0.2,3.6-0.8c1.1-0.6,2-1.6,2.6-2.7
		c0.1-0.2,0.2-0.4,0.3-0.7c0.3,0.6,0.6,1.2,1.1,1.6c0.4,0.4,0.9,0.6,1.4,0.8C86.8,32.9,86.4,33.2,86,33.6z M84,23.8
		c0,1.3-0.1,2.7-0.5,4c-0.7-0.4-1.4-0.7-2.2-0.9c-1-0.2-2.1-0.4-3.1-0.4c-1,0-2.1,0.1-3.1,0.4c-0.8,0.2-1.6,0.5-2.3,0.8
		c-0.4-1.3-0.5-2.7-0.4-4l0-0.6L71.8,23c-1.1-0.4-2.2-0.9-3.1-1.6c-0.9-0.7-1.4-1.8-1.4-2.9c0-1.2,0.3-2.4,0.9-3.5
		c0.5-1.1,1.2-2.1,2-3c1.2,0.7,2.3,1.4,3.4,2.2l0.3,0.2l0.4-0.2c0.2-0.1,0.5-0.1,0.9-0.2c0.3,0,0.7-0.1,1-0.1c0.7,0,1.4,0,2.1,0h0.2
		c0.7,0,1.4,0,2.1,0c0.3,0,0.7,0,1,0.1c0.3,0,0.7,0.1,0.9,0.2l0.4,0.2l0.3-0.2c1-0.7,2.1-1.4,3.2-2.1c0.8,0.7,1.4,1.6,1.9,2.5
		c0.5,1.1,0.7,2.3,0.6,3.4c-0.2,1.1-0.7,2.2-1.4,3.1c-0.7,0.9-1.7,1.6-2.6,1.9L84,23.1L84,23.8z M83.3,28.2c-0.2,0.5-0.4,1-0.6,1.4
		c-0.5,0.8-1.1,1.5-1.9,1.9c-0.8,0.4-1.7,0.6-2.7,0.5c-0.5,0-1-0.1-1.4-0.2c-0.5-0.1-0.9-0.2-1.3-0.5c-0.8-0.4-1.5-1.1-1.9-1.9
		c-0.3-0.4-0.5-0.9-0.7-1.4c0.8,0,1.6,0.1,2.4,0.1l3,0l2.9,0C81.8,28.2,82.6,28.2,83.3,28.2z M95.6,15.3c-0.2,0.1-0.3,0.3-0.5,0.4
		L94.8,16l-0.2,0.2l-0.1,0.1c-0.1,0-0.1,0.1-0.2,0.2c-0.4,0.5-0.5,1.2-0.1,1.8c0.1,0.1,0.1,0.1,0.2,0.2l0.2,0.1
		c0.1,0.1,0.2,0.1,0.3,0.2c0.2,0.1,0.4,0.2,0.6,0.2c0.4,0.1,0.8,0.2,1.1,0.2c0.7,0.1,1.4,0,2.1,0c1.3-0.1,2.6-0.1,3.9-0.1
		c0.3,0,0.6,0,0.9,0c-0.1,0-0.1,0-0.2,0c-0.5,0.1-1,0.2-1.5,0.4c-0.5,0.1-1,0.3-1.4,0.5l-0.7,0.2l0.6,0.3c0.4,0.2,0.7,0.6,1.1,0.9
		l1,1.2c0.3,0.4,0.7,0.8,1.1,1.1c0.1,0.1,0.2,0.2,0.3,0.2c-0.3,0-0.6,0-1,0c-0.3,0-0.7,0-1-0.1c-0.3-0.1-0.7-0.2-0.9-0.3l-1.4-0.8
		l0.8,1.5c0.4,0.8,1,1.6,1.6,2.3c0,0,0.1,0.1,0.1,0.1c-0.3-0.1-0.7-0.2-1-0.2c-0.6-0.2-1.1-0.3-1.7-0.5l-0.9-0.3
		c-0.3-0.1-0.6-0.2-1-0.2l-2.7-0.3l2.1,1.8c0.6,0.5,1,1.1,1.5,1.8c-0.5-0.2-1-0.4-1.5-0.5c-0.7-0.2-1.3-0.5-2.1-0.7
		c-0.7-0.2-1.6-0.4-2.5-0.3l-0.6,0.1l-0.1,0.6c0,0.4,0,0.7,0,0.9l0.1,0.7c0.1,0.5,0.1,0.9,0.2,1.4c0,0.4,0.1,0.9,0,1.3
		c0,0.2-0.1,0.3-0.1,0.5c-0.6-0.3-1.1-0.4-1.7-0.5c-0.8-0.1-1.5-0.2-2.2-0.3c-0.7-0.1-1.4-0.3-2-0.7c-0.5-0.4-1-0.9-1.3-1.5
		c0.3-0.8,0.5-1.6,0.6-2.5c0.2-1,0.2-1.9,0.1-2.9c1.1-0.5,2-1.4,2.6-2.3c0.8-1.1,1.3-2.4,1.3-3.8c0-0.8-0.1-1.5-0.3-2.2
		c0.7-0.1,1.3-0.2,1.9-0.3c0.7-0.1,1.3-0.2,2-0.2C93.9,15.3,94.8,15.3,95.6,15.3z M59.9,9.8c-0.2-0.5-0.2-1-0.2-1.5
		c1.2-1,2.4-1.9,3.8-2.8c1.4-0.9,2.9-1.8,4.5-2.5c3.1-1.5,6.6-2.1,10-1.9c1.7,0.1,3.4,0.4,5,0.7c1.6,0.4,3.3,0.9,4.8,1.6
		c1.5,0.7,3,1.5,4.4,2.5c1.4,0.9,2.8,1.8,4.1,2.7c0,0.1,0.1,0.2,0.1,0.2c0.1,0.2,0.1,0.3,0.1,0.5c0.1,0.3,0.1,0.7,0.1,1
		c-0.1,0.7-0.3,1.4-0.8,1.9c-0.5,0.6-1.1,1.1-1.9,1.5c-0.6,0.3-1.2,0.6-1.8,0.9c-0.4,0.1-0.8,0.2-1.3,0.3c-0.6,0.2-1.3,0.4-1.8,0.6
		c-0.2-0.5-0.4-1-0.7-1.4c-0.6-0.9-1.4-1.7-2.2-2.3c2.2-1.3,4.5-2.3,6.9-3.1c-3.7,0.7-7.3,2-10.6,3.8c-0.3-0.1-0.6-0.2-0.9-0.2
		c-0.4-0.1-0.8-0.2-1.1-0.2c-0.7-0.1-1.5-0.2-2.2-0.2h-0.1c0,0,0,0,0,0c0,0,0,0-0.1,0c-0.8,0-1.5,0.1-2.2,0.2
		c-0.4,0.1-0.7,0.1-1.1,0.2c-0.3,0.1-0.6,0.1-0.9,0.2c-3.4-1.8-6.9-3.1-10.6-3.8c2.4,0.8,4.6,1.8,6.8,3c-0.9,0.8-1.8,1.7-2.5,2.8
		c-0.2,0.3-0.4,0.6-0.5,0.9c-0.2-0.1-0.5-0.3-0.7-0.5c-0.3-0.2-0.7-0.4-1-0.6c-0.7-0.4-1.4-0.7-2.1-1c-0.2-0.1-0.4-0.1-0.7-0.2
		c-0.2-0.1-0.3-0.2-0.5-0.4c-0.5-0.4-1-0.9-1.4-1.5C60.4,10.9,60.1,10.4,59.9,9.8z M54.3,20.6c0.3-0.4,0.7-0.8,1.1-1l0.6-0.3
		L55.3,19c-0.4-0.2-0.9-0.4-1.4-0.5c-0.5-0.2-1-0.3-1.5-0.4C52,18,51.6,18,51.2,17.9c0,0,0,0,0,0c0.6-0.2,1.2-0.3,1.8-0.4
		c1.3-0.1,2.5-0.2,3.8-0.1c0.6,0,1.4,0.1,2.1,0c0.7-0.1,1.5-0.1,2.3-0.8c0.1-0.1,0.2-0.2,0.3-0.3c0.1-0.1,0.2-0.2,0.2-0.4
		c0.1-0.4,0.1-0.8-0.1-1.1c-0.1-0.2-0.2-0.3-0.4-0.4c-0.2-0.1-0.2-0.1-0.3-0.2c-0.1-0.1-0.3-0.1-0.4-0.2c-0.1-0.1-0.2-0.1-0.3-0.2
		c0.2,0,0.4,0,0.6,0c0.7,0.1,1.4,0.2,2.2,0.4c0.7,0.2,1.4,0.4,2.1,0.7c0.3,0.1,0.7,0.3,1,0.4l0.5,0.2c0.1,0,0.2,0.1,0.3,0.1
		c-0.4,0.8-0.7,1.7-0.8,2.7c0,0.7,0.1,1.4,0.3,2.1c0.3,0.7,0.7,1.3,1.2,1.8c0.8,0.8,1.9,1.4,2.9,1.9c-0.1,1,0,1.9,0.1,2.9
		c0.1,0.9,0.3,1.7,0.7,2.6c-0.3,0.5-0.7,0.9-1.2,1.2c-0.6,0.4-1.4,0.6-2.2,0.8c-0.8,0.2-1.6,0.2-2.4,0.4c-0.6,0.1-1.2,0.3-1.8,0.6
		c-0.1-0.2-0.1-0.4-0.1-0.6c0-0.4,0-0.9,0-1.4c0-0.5,0.1-1,0.2-1.5l0.1-0.8c0-0.3,0.1-0.5,0-1l-0.1-0.6l-0.6-0.1
		c-0.9-0.2-1.8,0-2.5,0.3c-0.7,0.2-1.4,0.5-2.1,0.8c-0.5,0.2-1.1,0.4-1.6,0.6c0,0,0.1-0.1,0.1-0.1c0.4-0.8,0.9-1.5,1.5-2l2-1.8
		l-2.6,0.3c-0.5,0.1-0.7,0.2-1.1,0.3l-0.9,0.3c-0.6,0.2-1.1,0.4-1.7,0.6c-0.4,0.1-0.8,0.2-1.1,0.3c0.1-0.1,0.2-0.2,0.3-0.3
		c0.7-0.7,1.2-1.6,1.6-2.5L56,22l-1.3,0.9c-0.2,0.1-0.5,0.2-0.9,0.3c-0.3,0.1-0.7,0.1-1,0.1c-0.3,0-0.7,0-1,0
		c0.2-0.1,0.3-0.2,0.4-0.3c0.4-0.3,0.8-0.8,1.1-1.2L54.3,20.6z M73.8,102.8c-6.9-1-13.5-0.2-13.8-0.1c0,0-2.5,0.4-3.8-0.9
		c-0.7-0.7-0.9-1.7-0.7-3.1l0-0.2l-0.1-0.2c-1.1-2.8-2.2-4-3.2-5.1c-0.8-0.8-1.5-1.6-2.3-3.1c0-0.1-0.1-0.2-0.2-0.4h0
		c-0.4-0.6-0.9-1.2-1.3-1.8c-0.4-0.6-0.8-1.3-1.2-1.9c-0.4-0.7-0.7-1.3-1-2c-0.3-0.7-0.6-1.4-0.7-2.1c0,0.8,0.1,1.5,0.3,2.3
		c0.2,0.8,0.4,1.5,0.6,2.2c0.2,0.7,0.5,1.5,0.8,2.2c0.3,0.7,0.6,1.4,0.9,2.2c0,0,0,0,0,0c0,0.1,0,0.1,0.1,0.2
		c0.9,1.8,1.8,2.7,2.6,3.6c0.7,0.7,1.3,1.3,1.9,2.4c-2,1-4,1.9-6.1,2.5c-0.2,0.1-0.4,0.1-0.7,0.2c-0.7,0.2-2,0.5-2.7,0.7l-0.8,0.2
		l-0.9,0.2c-0.6,0.1-1.1,0.2-1.7,0.3c-2.3,0.4-4.6,0.5-6.9,0.7c-1.2,0.1-2.3,0.1-3.5,0.1c-0.6,0-1.2,0-1.7,0l-0.9,0l-0.4,0
		c0,0-1.2,0-2.8-0.4c-0.8-0.2-1.6-0.4-2.4-0.6c-0.8-0.3-1.6-0.5-2.4-0.9c-0.8-0.3-2.3-1.3-2.4-1.3c-0.1,0-0.1,0-0.1,0.1
		c-0.7,2.7-1.1,5.6-0.6,8.5c0.4,2.9,1.8,5.8,3.9,7.9c2.1,2.2,4.8,3.5,7.5,4.4c2.8,0.9,5.6,1.1,8.4,1c2.8-0.1,5.6-0.4,8.4-0.7
		c2.8-0.3,5.6-0.6,8.3-1.3c2.7-0.7,5.4-1.8,7.8-3.3c2.3-1.4,4.5-3.2,6-5.5c0.6,0,1.1,0.1,1.7,0.1h0l0.1,0c3.6-0.3,7.1-0.8,10.6-1.2
		c0.9-0.1,0.8-0.1,1.7-0.2c-2.7,2.9-4.9,5.2-8.2,7.2c-3.6,2.2-7.3,4-11.1,5.7c-1.9,0.9-3.8,1.7-5.8,2.4c-2,0.7-4,1.4-6,2
		c-4.1,1.1-8.3,1.7-12.4,1.7c-4.1-0.1-8.3-0.9-12.1-2.3c-3.9-1.4-7.4-3.6-10.4-6.3c-3-2.7-5.3-6.2-6.7-10.1
		c-1.3-3.8-1.3-14.9-1.3-15.5l0.1-2.9c0.1-1.9,0.2-3.8,0.3-5.8v0l0-0.1c-0.2-1.7-0.4-3.4-0.6-5.2c-0.2-1.7-0.2-3.5-0.3-5.2
		c0-1.7,0-3.4,0-5.2c0.1-1.7,0.2-3.4,0.3-5.2c0.3-3.4,0.9-6.8,1.9-10.1c0.4-1.7,1-3.3,1.6-4.9c0.6-1.6,1.4-3.2,2.2-4.6l0,0v0
		c1.1-2.1,2.4-4,4-5.7c1.6-1.7,3.4-3.2,5.4-4.6s4-2.5,6.1-3.6c2.1-1.1,4.2-2,6.4-2.9c0.8-0.3,1.7-0.6,2.5-1c0.8-0.3,1.7-0.6,2.5-1
		c1.7-0.6,3.3-1.3,5-1.8c1.7-0.6,3.4-1.1,5.1-1.5c0.9-0.2,1.7-0.4,2.6-0.5c0.8-0.1,1.6-0.2,2.5-0.2c-0.2,0.3-0.5,0.6-0.7,0.9
		c-0.3,0.4-0.7,0.8-1.1,1.1c-0.4,0.3-0.8,0.5-1.3,0.6l-1.5,0.3l1.5,0.3c0.7,0.2,1.5,0.3,2.2,0.3c0.4,0,0.7,0,1.1,0
		c-0.3,0.4-0.7,0.8-1,1.2c-0.6,0.6-1.4,1.2-2.1,1.7l-2,1.4l2.5-0.1c1.3-0.1,2.5-0.3,3.7-0.6c0.3-0.1,0.7-0.2,1-0.3
		c-0.1,0.1-0.1,0.2-0.2,0.2c-0.5,0.8-0.9,1.6-1.4,2.2l-1.8,2.4l2.8-1c1.4-0.5,2.8-1,4.1-1.6c0.7-0.3,1.3-0.6,2-0.8
		c0.4-0.1,0.7-0.2,1-0.3L62.5,29c0,0.5-0.1,1-0.1,1.6c0,0.5,0,1.1,0.1,1.7c0.1,0.6,0.2,1.2,0.7,1.7l0.4,0.5L64,34
		c0.5-0.4,1.2-0.7,2-0.9c0.8-0.2,1.5-0.4,2.3-0.7c0.4-0.1,0.9-0.3,1.3-0.5c-0.1,0.2-0.1,0.4-0.1,0.5c0,0.4,0.1,0.8,0.3,1.1
		c0.2,0.4,0.4,0.7,0.7,0.9c0.3,0.2,0.7,0.4,1,0.5c0.7,0.3,1.2,0.6,1.9,1c0.6,0.3,1.2,0.5,1.8,0.6c0.1,0,0.1,0.1,0.2,0.1c0,0,0,0,0,0
		c0,0.1-0.8,3-1,5.7c-0.2,1.7-1.6,6.1-2.6,9.1c-0.1-0.4-0.3-0.7-0.4-1c0,0-0.1-0.1-0.1-0.1c-0.1,0-0.1,0.1-0.1,0.1v0
		c0.1,0.9,0,4.6-0.1,5.1c0,0.8-0.1,1.7-0.2,2.5c-0.1,0.8-0.1,1.7-0.2,2.5c-0.1,1.7-0.1,3.4-0.2,5.1c-0.2,1.7-0.6,3.4-1.1,5l0,0.1
		l0.1,0.2c0.8,2.1,1.5,4.4,2.4,6.6c0.4,1.1,0.9,2.2,1.3,3.3c0.5,1.1,0.9,2.1,1.6,3.3l0.3,0.4c0,0,0.1,0.1,0.1,0.2
		c0.1,0.2,0.2,0.4,0.3,0.7c0.2,0.5,0.4,1,0.5,1.6c0.4,1.1,0.7,2.2,1,3.3c0.6,2.2,0.8,3.8,0.7,6.4c-3.6-0.7-7.3-1.1-12.7-1.2
		c-1.1-1.6-2-5.9-2.6-9.4c-0.4-2.2-0.8-4.2-1.3-5.9c-0.5-1.8-1.3-4.3-2.1-6.9c-1.5-4.6-3.2-9.9-3.4-11.9c-0.1-1.2-0.6-2.3-1.3-3.2
		c0-0.1-0.1-0.2-0.1-0.3l0,0c-0.6-1.1-1.1-2.3-1.5-3.5c-0.4-1.2-0.8-2.4-1.1-3.7c-0.3-1.3-0.5-2.5-0.6-3.8c-0.1-1.3,0-2.6,0.3-3.9
		c-0.5,1.2-0.7,2.5-0.8,3.9c-0.1,1.3,0,2.7,0.1,4c0.1,1.3,0.4,2.6,0.6,4c0.1,0.2,0.1,0.4,0.2,0.7c-0.2-0.1-0.3-0.2-0.4-0.3
		c-0.5-0.4-0.9-0.7-1.2-1l-0.1-0.1c-3.5-2.6-6.7-1.2-7.8,0c0,0,0,0.1-0.1,0.1l-2.4,2.2l-1.2,1.1l-0.6,0.5l-0.3,0.3l-0.3,0.3
		c-1.4,1.8-2.7,3.6-3.9,5.4c-1.2,1.9-2.3,3.8-3.4,5.7c-1,2-2,4-2.7,6.1c0.9-2,2-3.9,3.1-5.8c1.2-1.9,2.4-3.6,3.8-5.4
		c1.3-1.7,2.7-3.4,4.2-5l0.3-0.3l0.3-0.2l0.6-0.5l1.3-1l2.6-2.1l0,0c0,0,0,0,0,0c0.1-0.1,0.1-0.1,0.1-0.2c0.4-0.3,2.4-1.9,5.3,0.2
		c0.4,0.3,0.8,0.7,1.3,1.1c1.6,1.3,3.6,2.8,3.8,5c0.2,2.2,1.9,7.3,3.5,12.3c0.8,2.6,1.6,5.1,2.1,6.8c0.4,1.6,0.8,3.6,1.3,5.8
		c0.9,4.7,1.8,9,3.4,10.7l0.3,0.3h0.4c7.4,0,14.6,1.5,17.5,2.1c1,0.2,1.9,0.7,2.7,1.4c0.9,0.8,2,2,2.6,3.6
		C87.5,104.8,77.5,103.3,73.8,102.8z M57.9,108.5l-9.9,0.8c-3.3,0.3-6.6,0.6-9.9,1.2c-0.8,0.2-1.6,0.3-2.4,0.5l-2.4,0.6
		c-1.6,0.4-3.1,0.9-4.7,1.3c-0.3,0-0.8-0.1-1.2-0.2c-0.4-0.1-0.9-0.2-1.4-0.3c-0.9-0.2-1.8-0.5-2.7-0.7c-1.6-0.5-3.8-1.5-5.3-2.6
		c-0.7-1.2-0.6-1.2-0.9-2.5c-0.7-2.6-0.8-4.5-0.7-7.2c3.1,2.4,8.4,3.6,9.4,3.7c0.1,0,0.1,0,0.2,0l0.3,0l0.5,0.1l0.9,0.1
		c0.6,0,1.2,0.1,1.8,0.1c0.6,0,1.2,0,1.8,0c0.6,0,1.2,0,1.8,0c1.2,0,2.4-0.1,3.6-0.3l1.8-0.2c0.6-0.1,1.2-0.2,1.8-0.3
		c2.3-0.5,4.7-1.1,6.9-2c2.1-0.9,4.1-2.1,5.7-3.6c0.3,0.5,0.6,1.1,0.9,1.9c-0.2,1.9,0.3,3.4,1.3,4.5c2,1.9,5.3,1.4,5.4,1.4
		c0.1,0,6.6-0.8,13.3,0.1c2.1,0.3,4.2,0.8,6.2,1.3l-1.6,0.2c-3.5,0.6-7,1.1-10.5,1.7C64.4,108,61.1,108.2,57.9,108.5z M64.4,109.1
		c-4.1,3.5-7.6,5.6-12.6,7.3c-2.6,0.9-5.2,1.8-8,2.2c-2.7,0.4-5.5,0.5-8.2,0.3c-1.4-0.1-2.7-0.4-4-0.6c-1.3-0.3-2.6-0.6-3.9-1.1
		c-2.5-0.9-4.8-2.3-6.7-4.1c-0.8-0.7-1.4-1.6-2-2.5c0.5,0.3,1,0.5,1.5,0.7c0.9,0.4,1.7,0.8,2.6,1.1c0.9,0.4,1.8,0.7,2.7,1
		c0.5,0.2,0.9,0.3,1.4,0.4c0.5,0.1,0.9,0.3,1.5,0.3l0.1,0l0.1,0l2.4-0.6c0.8-0.2,1.6-0.4,2.4-0.6c1.6-0.3,3.2-0.7,4.8-1
		c3.2-0.7,6.4-1.4,9.7-2c3.2-0.6,6.5-0.9,9.8-1C60.5,109,61.8,109,64.4,109.1z M99.5,103.7c-3.4,0.2-6.7,0.5-10.1,0.8
		c-0.3-0.9-0.8-1.8-1.3-2.5c3.3-2.8,7.4-3.8,11.5-4.1c1.1-0.1,2.2-0.1,3.2-0.1c1,0,1.9,0.3,2.8,0.7c1.8,0.8,3.2,2.4,3.9,4.2
		C109.6,102.9,102.9,103.5,99.5,103.7z M117.8,106.6c-0.1,2.2-0.5,4.4-1,6.5c-0.3,1.1-0.5,2.2-0.9,3.1c-0.4,0.9-1,1.8-1.7,2
		c-0.3,0.1-0.8,0.1-1.2,0c-0.4-0.1-0.7-0.3-1-0.6c-0.6-0.6-1-1.5-1-2.4l0-0.3l0-0.4c0-0.3,0.1-0.5,0.1-0.8c0.1-0.5,0.2-1.1,0.3-1.6
		c0.2-1.1,0.5-2.2,0.7-3.3c0.2-1.1,0.4-2.3,0.2-3.6c-0.1-1.2-0.4-2.4-0.9-3.5c-1-2.2-2.8-4.1-5-5.1c-1.1-0.5-2.4-0.7-3.6-0.7
		c-1.2,0.1-2.2,0.2-3.4,0.3c-2.2,0.3-4.4,0.9-6.5,1.8c-1,0.5-2,1-2.9,1.7c-2.8,2.2-5.2-1.2-5.7-1.5c-0.1-0.7-0.2-1.6-0.2-1.6
		c3.8-2.2,7.8-4.3,12-5.1c1.1-0.2,2.1-0.4,3.2-0.4c1.1-0.1,2.1-0.2,3.2-0.2c0.5,0,1.1,0,1.6,0l0.8,0l0.8,0c0.5,0,1,0.1,1.6,0.1
		c0.5,0.1,1,0.1,1.5,0.3c2,0.4,3.9,1.4,5.4,2.9c0.7,0.8,1.3,1.6,1.8,2.6c0.5,1,0.8,2,1.1,3.1C117.8,102.2,117.9,104.5,117.8,106.6z
		 M126.8,86.5c0,0.8-0.1,1.5-0.2,2.3c-0.2,1.5-0.4,3.1-0.4,4.6l-0.1,1.2c0,0.4,0,0.7-0.1,1c-0.1,0.6-0.3,1.2-0.6,1.8
		c-0.6,1.1-1.6,2-2.9,2.5c-1.5,0.5-4.5,0.4-4.6,0c-0.4-2.2-1.3-4.4-2.7-6.2c-0.2-0.3-0.5-0.6-0.8-0.9c1.5-0.2,2.9-0.8,4.2-1.5
		c1.4-0.7,2.7-1.6,3.9-2.6c0.6-0.5,1.1-1.1,1.7-1.6l0.8-0.8l0.4-0.4c0.2-0.2,0.2-0.2,0.4-0.3c0.3-0.1,0.6-0.1,0.8,0.1
		C126.7,85.9,126.8,86.2,126.8,86.5z"/>
</g>
</svg>
