<?xml version="1.0" encoding="utf-8"?>
<!-- Generator: Adobe Illustrator 24.1.2, SVG Export Plug-In . SVG Version: 6.00 Build 0)  -->
<svg version="1.1" id="Layer_1" xmlns="http://www.w3.org/2000/svg" xmlns:xlink="http://www.w3.org/1999/xlink" x="0px" y="0px"
	 viewBox="0 0 128 128" style="enable-background:new 0 0 128 128;" xml:space="preserve">
<style type="text/css">
	.st0{fill:#5B5755;}
	.st1{fill:#6B5954;}
	.st2{fill:#826C65;}
	.st3{fill:#EFDECE;}
	.st4{fill:#2D2D2D;}
	.st5{fill:#60514D;}
	.st6{fill:#544640;}
</style>
<g>
	<path class="st0" d="M126.3,56.8c0,0.3-0.1,0.6-0.2,0.8c-0.1,0-0.2,0-0.3,0c-0.6,0-1.1,0-1.9-0.3c-0.1,0-0.2,0-0.3-0.1
		c-0.1,0-0.2-0.1-0.2-0.1l-2.2-0.2l0.2,0.1l-1-0.2c-0.2,0-0.3-0.1-0.5-0.1c-0.2,0-0.3-0.1-0.6,0l-2,0.5c0,0,0.6,1.3-0.5,2
		c-1.1,0.1-2-0.1-2.7-0.3c-1-1.7,1.5-4.3,3.4-4.8c5.1-0.3,1.3-5.5,0.7-6c2.9,2.1,5.4,4.4,7.5,6.9C126.1,55.4,126.4,56.1,126.3,56.8z
		"/>
	<path class="st1" d="M80.4,53.9c-3.3,0-10-1.3-13-3.2c-5.8,1.4-14.1,2.8-18.4,3.6c-2.5-0.6-10.6,0-14,1.7c-3.4,1.7-12.6,1.8-15.3,4
		c-2.6,2.2-4.1,4.1-5.7,8.1c-1.5,3.9,7.7,16.4,7.9,16.7C13.3,79,11.5,71.1,11.1,68c-0.1-0.7,0-1.5,0.3-2.2l1.3-3.6
		c0.3-0.7,1.1-1.6,1.8-2l4.5-2.3c0.5-0.2,0.9-0.5,1.3-0.8c0.9-0.7,3.3-2.2,6.4-2.5c1.2-0.1,3.5-0.4,6.1-0.7c5.9-0.7,14-1.6,18.4-1.8
		c1.4-0.1,2.7-0.3,4-0.8c4.6-1.6,13.2-3.9,19-0.7c0.4,0.2,1,0.5,1.5,0.8C77,52.2,78.6,53.2,80.4,53.9z"/>
	<path class="st2" d="M117.4,54c-1.9,0.5-4.4,3.1-3.4,4.8c-1-0.4-1.7-0.9-1.8-1c-0.1-0.1-0.2-0.2-0.3-0.2l-4.9-2.3l0,0
		c-0.1,0-0.2-0.1-0.3-0.2l0,0.1l0-0.1l-0.9-3.8l0.2,3.9l0,0l0,0c0,0,0.8,4.8-5.8,11.8c-7.2,7.6-12.4,6-15.7,5.8
		c-0.7,2.7-5.9,6.3-9,7.5c0.2-0.3,0.5-0.7,0.7-1c0.6-0.9,0.9-1.9,1.3-2.8c-0.5,0.9-0.9,1.8-1.6,2.6c-0.6,0.8-1.3,1.5-2.1,2.1
		c-0.8,0.6-1.6,1.1-2.5,1.6c-0.9,0.4-1.8,0.8-2.7,1l0,0c0,0-0.1,0-0.1,0c-0.1,0-0.2,0.1-0.3,0.2c-0.2,0.2-0.4,0.6-1.3,3.6
		c-1.1,3.8-3,10.1-3.8,11.6l0,0.1c-1.1,3.4-3.1,6.6-3.8,7.5c-2.2,2.9-4.6,14.1-5.1,16.2l-1.6,1.1l0-3.1l-1-0.2l6.3-14.9l0-0.1
		c0.1-0.2,1.7-5.7,1.7-8.4c0-0.5,0-1,0-1.7c0-2.8,0.1-7.6,0.6-9.3l0-0.2l0-0.2c-0.3-2.1,0.3-6,0.4-6.7c0-0.1,0.1-0.2,0.1-0.3v0
		c0-0.5,0.1-1.1,0.2-1.7c0.1-0.6,0.3-1.1,0.5-1.7c0.4-1.1,0.9-2.2,1.5-3.3c-0.9,0.9-1.6,1.8-2.3,2.9c-0.3,0.5-0.6,1.1-0.9,1.7
		c-0.3,0.6-0.5,1.1-0.7,1.8v0c0,0.1,0,0.1-0.1,0.2c0,0.1-0.2,1.3-0.4,2.9c-1,0-2.5,0.4-4.3,0.9c-2.5,0.7-5.5,1.5-8.3,1.6
		c-3.9,0.2-7.9-1-9.4-1.5c0.3-0.6,0.5-1.3,0.7-1.9c0.3-1,0.4-1.9,0.5-2.9c0.1-1,0.1-2,0-2.9c-0.1-1-0.4-1.9-0.6-2.8
		c0.2,0.9,0.3,1.9,0.2,2.8c0,0.9-0.1,1.9-0.4,2.8c-0.2,0.9-0.5,1.8-0.9,2.6c-0.4,0.8-0.8,1.7-1.3,2.4l0,0c0,0,0,0.1-0.1,0.1
		c0,0.1-0.1,0.1-0.1,0.2c-0.3,0.1-5.7,10.9-9.3,12.6c1.8,4.8,0.7,6.5,3.7,10.2v0c1.5,2.5,6.9,9.8,8.8,11.8c1.5,1.6,2.3,4.1,2.7,5.2
		l-1.5,1.1c-0.3-1-0.6-2.2-0.7-2.3c-0.2-0.7-1-0.7-1.5-0.7c-0.2,0-0.4,0-0.7,0c-0.8-1.4-3.5-5.1-6.3-9.1c-2.9-4.1-5.9-8.3-7.5-10.8
		c-0.6-0.9-0.7-2-0.3-3c1.8-4.8,1.7-11.7,0.3-13.4l-0.1-0.1L22,84.7c0,0,0,0,0,0c-0.3-0.4-9.5-12.8-7.9-16.7c1.6-4,3-5.9,5.7-8.1
		c2.7-2.2,11.9-2.3,15.3-4c3.4-1.7,11.4-2.3,14-1.7c4.3-0.8,12.6-2.2,18.4-3.6c3.1,1.9,9.7,3.2,13,3.2c2.1,0.8,4.4,1.2,6.7,0.5
		c2.4-0.8,4.9-2.4,7.3-3.9c2.4-1.6,4.7-3,6.2-3.2c0.1,0,0.2,0,0.2-0.1c0.1,0.1,0.2,0.2,0.4,0.3l0.4,0.2c0.5,0.3,1,0.5,1.5,0.7
		c1,0.3,2.1,0.4,3.2,0.1c0.3,0.4,0.6,0.8,1,1.2c-0.2-0.6-0.4-1.1-0.7-1.7c0-0.1-0.1-0.1-0.2-0.1l-0.1,0c-0.5,0-1,0-1.4-0.1
		c-0.5-0.1-0.9-0.3-1.4-0.5c-0.4-0.2-0.8-0.5-1.2-0.8l-0.3-0.2c-0.1-0.1-0.2-0.1-0.2-0.2c-0.2-0.1-0.3-0.3-0.4-0.5
		c-0.5-0.7-0.8-1.7-1-2.6c-0.1-0.6-0.2-1.3-0.2-2c0.1,0,0.2,0,0.3,0.1c0.4,0.1,0.8,0.2,1.2,0.4c0.8,0.3,1.5,0.7,2.2,1.1
		c0.7,0.5,1.3,1.1,1.8,1.7c0.5,0.7,1,1.4,1.3,2.2l0,0.1c0,0,0,0,0.1,0.1c0.3,0.2,0.7,0.4,1,0.5c0.4,0.1,0.8,0.2,1.1,0.1
		c-0.4-0.1-0.7-0.2-1-0.4c-0.1-0.1-0.3-0.2-0.4-0.3c-0.1-0.1-0.2-0.2-0.3-0.3c-0.1-0.5-0.3-1-0.5-1.5l0.9-0.2
		c0.1,0.3,0.3,0.6,0.7,0.7c0.4,0.1,0.8-0.2,0.9-0.6c0.7-0.2,1.7-0.3,2.8,0.1c0,0,0,0.1,0,0.1v0c0,0.5,0.4,0.8,0.9,0.8
		c0.3,0,0.5-0.2,0.7-0.4c1.4,0.8,2.8,1.7,4.1,2.6c0,0,0,0,0,0c0,0,0,0,0,0C118.8,48.5,122.5,53.7,117.4,54z"/>
	<path class="st1" d="M85.5,54.3c-0.4,0.8-0.8,1.8-1,2.7c-0.3,1-0.4,1.9-0.5,2.9c-0.1,1,0,2,0.1,3c0.1,1,0.5,2,0.9,2.9
		c-0.5-0.9-1-1.8-1.3-2.8c-0.3-1-0.5-2-0.6-3.1c-0.1-1.1,0-2.1,0.1-3.2c0.2-1.1,0.4-2.1,0.8-3.2c0.2-0.4,0.6-0.7,1.1-0.5
		c0.4,0.2,0.7,0.6,0.5,1.1C85.5,54.2,85.5,54.2,85.5,54.3L85.5,54.3z"/>
	<path class="st3" d="M117.8,50.5l-0.9-0.8l-0.7-0.7c0,0,0-0.1,0-0.1c0-0.9-0.7-1.7-1.7-1.7s-1.7,1-1.6,2c0.4,3.2,4.2,2.3,4.2,2.3
		c0.1,0,0.9,0.5,1.3,0.1C118.7,51.3,117.8,50.5,117.8,50.5z"/>
	<path class="st4" d="M117.8,50.5l-0.2-0.2l-0.3-0.3l-0.6-0.6l-0.5-0.5c0,0,0-0.1,0-0.1c0-0.7-0.5-1.2-1.2-1.2
		c-0.7,0-1.2,0.5-1.2,1.2s0.5,1.2,1.2,1.2c0.2,0,0.3,0,0.4-0.1l0.7,0.3c0.3,0.1,0.5,0.2,0.8,0.3l0.4,0.1l0.2,0.1
		c0.1,0,0.1,0.1,0.3,0C118,50.6,117.9,50.6,117.8,50.5z"/>
	<path class="st4" d="M124.5,56.1c0.4-0.3,0.4-0.8,0.1-1.2s-1.9-0.7-2.2-0.5c-0.4,0.3,0.9,0.8,1.2,1.2S124.1,56.4,124.5,56.1z"/>
	<path class="st3" d="M49.9,51.5c-0.1,1.2-0.2,2.3-0.3,3.4c0,1.1-0.5,2.2-0.5,3.4c0,1.2,0.4,2.3,0.6,3.4l0.4,1.7
		c0.1,0.6,0.3,1.1,0.3,1.7c0.2,1.1,0.4,2.3,0.5,3.5c0.1,1.2,0.1,2.4,0,3.6c-0.2,2.4-0.8,4.6-1.7,6.8c0,0-0.1,0.1-0.1,0
		c0,0,0,0,0-0.1c0.5-2.3,0.8-4.6,0.8-6.8c0-1.1-0.1-2.3-0.2-3.4c-0.2-1.1-0.4-2.2-0.7-3.3c-0.3-1.1-0.4-2.3-0.4-3.5
		c0-0.6,0-1.2,0.1-1.8c0-0.6,0-1.2,0-1.8c-0.1-0.6-0.2-1.2-0.3-1.8c-0.1-0.6-0.1-1.2,0-1.8c0.1-0.6,0.2-1.2,0.4-1.7
		c0.2-0.6,0.5-1.1,0.9-1.6C49.8,51.4,49.9,51.4,49.9,51.5C49.9,51.4,49.9,51.4,49.9,51.5L49.9,51.5z"/>
	<path class="st3" d="M39.1,52.4c0.2,1.1,0.3,2.1,0.3,3.1c0,0.5-0.1,1-0.2,1.6c0,0.3,0,0.5,0,0.8c0,0.3,0.1,0.5,0.1,0.8
		c0.1,0.5,0.3,1,0.6,1.5c0.2,0.5,0.3,1,0.5,1.5c0.3,1,0.6,2,0.9,3c0.6,2.1,1,4.2,1.1,6.4c0.1,2.1,0.1,4.3-0.2,6.4c0,0,0,0.1-0.1,0.1
		c0,0-0.1,0-0.1-0.1c-0.1-2.1-0.2-4.2-0.6-6.3c-0.3-2.1-0.8-4.1-1.5-6.1c-0.3-1-0.7-2-0.9-3.1c-0.1-0.5-0.2-1.1-0.2-1.6
		c0-0.5,0-1.1,0-1.6c0-0.5-0.1-1.1-0.3-1.6c-0.2-0.5-0.3-1.1-0.4-1.6c0-1.1,0.1-2.2,0.7-3.2C39,52.4,39.1,52.4,39.1,52.4
		C39.1,52.4,39.1,52.4,39.1,52.4L39.1,52.4z"/>
	<path class="st3" d="M25.3,54.4c0,0.8-0.1,1.5-0.2,2.2c-0.1,0.3-0.3,0.7-0.5,1c-0.1,0.2-0.1,0.4-0.2,0.5c0,0.2,0,0.4,0,0.6
		c0,0.4,0.2,0.8,0.3,1.2c0.1,0.4,0.2,0.8,0.2,1.1c0.2,0.8,0.2,1.5,0.3,2.3c0.2,1.6,0.2,3.1,0,4.6c-0.2,1.5-0.7,2.9-1.3,4.3
		c0,0,0,0-0.1,0c0,0,0,0,0-0.1c0.3-1.5,0.5-2.9,0.6-4.4c0.1-1.5-0.1-3-0.4-4.5c-0.1-0.8-0.4-1.5-0.4-2.3c0-0.4,0-0.8,0.1-1.1
		c0.1-0.4,0.2-0.7,0.3-1.1c0.1-0.4,0.1-0.7,0-1.1c-0.1-0.4-0.1-0.8-0.1-1.2c0.2-0.7,0.5-1.5,1.3-2C25.2,54.3,25.2,54.3,25.3,54.4
		C25.3,54.3,25.3,54.4,25.3,54.4L25.3,54.4z"/>
	<path class="st3" d="M61,49.3c-0.1,0.6-0.2,1-0.3,1.5c-0.1,0.2-0.1,0.5-0.2,0.7c-0.1,0.2-0.2,0.5-0.3,0.7c-0.3,0.5-0.5,1-0.5,1.5
		c0,0.5,0.1,1.1,0.2,1.6c0.1,0.5,0.1,1.1,0.1,1.6c0,0.3,0,0.5,0,0.8c0,0.3,0,0.5,0,0.8c0,1,0.1,2.1,0.1,3.2c0,2.2-0.1,4.3-0.4,6.5
		c-0.4,2.1-1,4.2-1.8,6.2c0,0-0.1,0-0.1,0c0,0,0,0,0-0.1c0.6-2.1,1-4.1,1.2-6.2c0.2-2.1,0.2-4.2,0-6.3l-0.2-3.2c0-0.6-0.1-1.1,0-1.6
		c0-0.3,0.1-0.5,0.1-0.8c0-0.3,0.1-0.5,0.1-0.8c0.1-0.5,0.4-1.1,0.5-1.6c0.1-0.5,0.1-1.1,0-1.6c0-0.3,0-0.6,0.1-0.8
		c0.1-0.3,0.2-0.5,0.3-0.8C60,50,60.3,49.5,61,49.3C61,49.2,61,49.2,61,49.3C61,49.3,61,49.3,61,49.3L61,49.3z"/>
	<path class="st1" d="M14.8,80.5c0.4,1.4,0.9,2.8,1.3,3.8c0.3,0.9,0.3,1.8-0.1,2.6c-1.4,2.6-4.8,7-7.1,9.1c-0.6,0.6-1,1.4-1.1,2.3
		c-0.4,5.3-1.5,17.7-1.7,20.9l1.6,0.3l1,2.3l1.4-0.6c-0.6-0.9-1.4-2.4-1.5-4c-0.1-2.5,1-11.6,3.7-15c2.5-3.2,8.5-8.7,8.8-9
		c0.1-0.1,0.2-0.1,0.3-0.2c0.4-3.3,0-6.2-0.5-7C18.4,84.3,16.4,82.4,14.8,80.5z"/>
	<path class="st4" d="M9.3,123.3l0.3,0.8l3.1,0l-1.6-1.5c0,0,0,0,0,0L9.3,123.3C9.3,123.3,9.3,123.3,9.3,123.3z"/>
	<path class="st5" d="M10.4,63.4l-0.6,1.7c-0.3,0.8-0.4,1.6-0.4,2.4c-1,0.9-2.2,3.2-1.6,9.8c0.1,3.6,1.6,8.5-3.1,11.3
		c2-2.9,2.4-9,1.5-18.9C5.8,65.8,8.7,64.1,10.4,63.4z"/>
	<path class="st4" d="M39.4,126.3l3.1,0l-1.6-1.5c0,0,0-0.1-0.1-0.1l-1.7,1.2L39.4,126.3z"/>
	<path class="st1" d="M81.9,105l0-0.1c0.2-0.7-0.2-5-0.8-7.4l0-0.1c-0.2-1.8-0.3-8.6-0.3-11.2c-0.4,0.2-0.7,0.4-1.1,0.6
		c-1.1,0.5-2.2,0.8-3.4,0.8c-0.6,0-1.2-0.1-1.8-0.2c-0.4-0.1-0.7-0.2-1.1-0.3c0.7,2.9,3.3,12.4,6.6,18.2l0.1,0.1
		c1,3.1,3.4,12,4,14.5l1.8-0.1l1.3,2.3l1.2-0.6c-0.9-1-2.5-2.9-3-4.7c-0.2-0.7-0.6-1.8-1-3C82.5,108.2,81.8,105.8,81.9,105z"/>
	<polygon class="st4" points="52.6,126 52.7,126.3 55.8,126.3 54.3,124.8 	"/>
	<polygon class="st4" points="88.1,124.1 91.1,124.1 89.7,122.6 87.8,123.6 	"/>
	<path class="st4" d="M114.5,43.7c-0.1-0.1-0.2-0.1-0.3-0.2c-0.1-0.1-0.2-0.1-0.3-0.1c-0.1-0.7-0.1-1.4-0.3-2.1
		c-0.2-1.2-0.4-2.3-0.9-3.5c-0.1-0.3-0.3-0.6-0.5-0.9c-0.1-0.1-0.2-0.3-0.4-0.4l-0.4-0.3c-0.5-0.4-1.1-0.8-1.7-1
		c-1.2-0.5-2.5-0.6-3.7-0.7c-1.2-0.1-2.3,0-3.4-0.1c-1.1-0.1-2.2-0.2-3.2-0.5c-1.1-0.3-2-0.7-2.9-1.2c-0.8-0.6-1.5-1.4-2.1-2.3
		c-0.5-0.9-0.8-2-1.1-3c-0.1-0.5-0.2-1.1-0.3-1.7c-0.1-0.6-0.2-1.2-0.4-1.8c-0.4-1.2-0.9-2.3-1.9-3.2c-0.5-0.4-1.1-0.8-1.7-1
		c-0.6-0.2-1.2-0.3-1.8-0.4c-2.3-0.2-4.5-0.8-6.7-1.3c-2.2-0.5-4.5-1.1-6.7-1.5c0,0,0,0,0,0c-0.1,0-0.1,0-0.2-0.1
		c1.8,1.1,3.8,1.8,5.7,2.7c1,0.4,1.9,0.8,2.9,1.2c1,0.4,1.9,0.8,3,1.2c0.9,0.3,1.8,0.8,2.4,1.5c0.6,0.7,1,1.6,1.1,2.6
		c0.3,2.1,0.7,4.2,1.6,6.3c0.4,1,0.9,2,1.5,2.9c0.3,0.5,0.7,0.9,1.1,1.3c0.4,0.4,0.9,0.7,1.5,1c1,0.5,2.1,0.8,3.2,1
		c1.1,0.2,2.2,0.3,3.2,0.4l3.1,0.2c0.5,0,1,0.1,1.5,0.2c0.5,0.1,1,0.2,1.3,0.4c0.6,0.3,1,1.1,1.1,2c0.1,0.5,0.1,1,0.1,1.5l-1.7,0.3
		c-0.1,0-0.1,0-0.2,0.1c-0.4-0.6-1-1.2-1.5-1.7c-0.7-0.6-1.6-1.1-2.4-1.5c-0.9-0.4-1.8-0.6-2.8-0.8c0,0,0,0,0,0
		c-0.4,0-0.8,0.3-0.8,0.8l0,0c-0.1,1.2,0,2.2,0.3,3.3c0.2,0.8,0.4,1.6,0.9,2.4c-1.8,0.5-3.9,1.8-6.2,3.3c-2.4,1.5-4.8,3.1-6.9,3.7
		c-3.5,1.1-7.3-1.1-10.1-2.7c-0.6-0.3-1.1-0.6-1.6-0.9c-6-3.3-14.4-1.5-20.3,0.6c-1.1,0.4-2.3,0.6-3.6,0.7
		c-4.5,0.2-12.6,1.1-18.5,1.8c-2.6,0.3-4.8,0.5-6.1,0.7c-3.6,0.3-6.3,2.1-7.3,2.9c-0.3,0.2-0.7,0.5-1,0.6l-4.5,2.3
		c-1,0.5-2.1,1.7-2.6,2.8c-2.6,0.6-7.1,3-6.6,8.5c1.3,13.8-0.5,17.8-2.2,18.7L0,89.9l2.6,0.3c0.4,0.1,1.1,0.1,1.8,0.1
		c2.2,0,5.3-0.7,6.4-4.9c0.7-2.6,0.4-6.2,0.2-9.3c-0.1-0.7-0.1-1.6-0.2-2.4c0.3,0.7,0.6,1.4,1,2.1c0,0.1,0,0.2,0,0.3
		c0.1,0.3,1.7,6.2,2.7,8.7c0.2,0.4,0.1,0.9-0.1,1.3c-1.3,2.5-4.6,6.7-6.7,8.7c-0.9,0.9-1.5,2.1-1.6,3.4c-0.4,6.1-1.8,21.4-1.8,21.6
		l-0.1,0.7l2.2,0.4l1.2,2.9c0,0.1,0,0.1,0,0.2l0.5,1.3c0.1,0.3,0.4,0.5,0.8,0.5c0,0,0,0,0,0l5.6-0.1c0.3,0,0.6-0.2,0.8-0.5
		s0.1-0.7-0.2-0.9l-2.9-2.8L12,121c0,0-1.6-1.8-1.7-3.9c-0.1-2.2,1-10.9,3.3-13.9c1.8-2.3,5.4-5.8,7.3-7.6c-0.2,0.7-0.4,1.4-0.6,2.1
		c-0.6,1.5-0.4,3.1,0.4,4.4c1.6,2.5,4.6,6.8,7.5,10.9c2.8,3.9,5.4,7.7,6.2,9c0.3,0.5,0.8,0.8,1.3,0.8c0.3,0,0.6,0,0.9,0
		c0.2,0.7,0.6,2,0.7,2.6c0,0.1,0.1,0.2,0.1,0.3c0,0.2,0,0.3,0,0.5l0.5,1.3c0.1,0.3,0.4,0.5,0.8,0.5c0,0,0,0,0,0l5.6-0.1
		c0.3,0,0.6-0.2,0.8-0.5c0.1-0.3,0.1-0.7-0.2-0.9l-2.9-2.9l-0.1-0.4c0-0.2-1-4.1-3.2-6.5c-2.2-2.2-8-10.3-8.8-11.9
		c-0.8-1.5-0.7-5.9,0-7.3c0.1-0.2,0.3-0.6,0.6-1.1c1.4-2.4,4.3-7.4,5.2-12c1.5,0.5,5.2,1.6,9.1,1.6c0.3,0,0.6,0,0.8,0
		c3-0.1,6.1-1,8.7-1.6c1.5-0.4,2.9-0.8,3.7-0.8c0,0.9,0,1.8,0.1,2.6c-0.5,2-0.6,6.3-0.6,9.5c0,0.6,0,1.2,0,1.7
		c-0.1,2.4-1.5,7.4-1.7,8l-7,16.7l1.7,0.4l0,2.9c0,0.2,0.1,0.4,0.2,0.6c0,0.1,0,0.2,0.1,0.2l0.5,1.3c0.1,0.3,0.4,0.5,0.8,0.5
		c0,0,0,0,0,0l5.6-0.1c0.3,0,0.6-0.2,0.8-0.5c0.1-0.3,0.1-0.7-0.2-0.9l-2.9-2.9c0.8-3.7,3.1-13.4,4.8-15.7c0.8-1,2.9-4.3,4.1-8
		c0.9-1.8,2.7-7.8,3.9-11.9c0.2-0.8,0.5-1.6,0.7-2.1c0.5,0.1,1.4,0.3,2.3,0.6c0.1,0,0.2,0,0.2,0.1c0.1,0.5,3,12.3,6.9,19.4
		c1.2,3.6,4.1,14.9,4.2,15l0.2,0.7l2.1-0.2l1.2,2.2c0,0.1,0,0.2,0.1,0.3l0.5,1.3c0.1,0.3,0.4,0.5,0.8,0.5c0,0,0,0,0,0l5.6-0.1
		c0.3,0,0.6-0.2,0.8-0.5c0.1-0.3,0.1-0.7-0.2-0.9l-3-2.9c-0.1-0.1-0.2-0.1-0.3-0.2l-0.2-0.2c0,0-2.7-2.5-3.4-4.8
		c-0.2-0.7-0.6-1.8-1-3c-0.8-2.5-2.4-7.2-2.4-8c0.3-1.3-0.2-5.8-0.8-8.1c-0.2-2.3-0.3-11.9-0.3-12c0,0,0,0,0,0
		c1.8-1.2,3.3-2.7,4.3-4.1c0.6-0.9,1.5-1.6,2.5-2.2c0.5-0.3,1.1-0.5,1.7-0.8c5.6-2.7,15.9-7.6,20.7-18.4c1.2,0.8,3.7,1.9,7.1,0.8
		c0.6,0,1.5,0.2,2.4,0.4c0.3,0.1,0.7,0.1,1,0.2c0.2,0,0.3,0,0.5,0c0.6,0,1.2-0.2,1.7-0.7c0.4-0.4,0.7-0.8,0.9-1.2c0.2,0,0.3,0,0.4,0
		c0.2,0,0.4,0,0.6,0c0,0,0.1,0,0.1,0c0.2,0,0.4-0.1,0.6-0.2c0.6-0.6,0.9-1.3,0.9-2.2c0-1.1-0.4-2.1-1.1-3
		C123.6,49.9,119.5,46.5,114.5,43.7z M9.8,65.2c-0.4,1-0.5,2-0.4,3c0.1,0.5,0.2,1.2,0.3,1.9c-0.8,0.9-0.6,3-0.4,6.2
		c0.2,2.9,0.5,6.4-0.1,8.8c-0.8,2.8-2.6,3.6-4.6,3.6c2-2.9,2.4-9,1.5-18.9c-0.4-4,2.5-5.7,4.2-6.3L9.8,65.2z M11.1,122.5
		C11.2,122.5,11.2,122.5,11.1,122.5l1.6,1.6l-3.1,0l-0.3-0.8c0,0,0,0,0-0.1L11.1,122.5z M21.4,93c-0.1,0-0.2,0.1-0.3,0.2
		c-0.3,0.2-6.3,5.7-8.8,9c-2.7,3.5-3.8,12.5-3.7,15c0.1,1.7,0.8,3.1,1.5,4l-1.4,0.6l-1-2.3l-1.6-0.3c0.3-3.2,1.4-15.6,1.7-20.9
		c0.1-0.9,0.4-1.7,1.1-2.3c2.3-2.1,5.7-6.5,7.1-9.1c0.4-0.8,0.5-1.8,0.1-2.6c-0.4-0.9-0.8-2.3-1.3-3.8c1.6,1.9,3.6,3.8,6.1,5.5
		C21.4,86.7,21.8,89.7,21.4,93z M40.9,124.8l1.6,1.5l-3.1,0l-0.2-0.5L40.9,124.8C40.9,124.7,40.9,124.7,40.9,124.8z M55.8,126.3
		l-3.1,0l-0.1-0.3l1.7-1.2L55.8,126.3z M91.1,124.1l-3.1,0l-0.2-0.5l1.8-1L91.1,124.1z M84.4,113.7c0.4,1.2,0.8,2.3,1,3
		c0.6,1.9,2.1,3.7,3,4.7l-1.2,0.6l-1.3-2.3l-1.8,0.1c-0.7-2.5-3-11.3-4-14.5l-0.1-0.1c-3.3-5.8-5.9-15.3-6.6-18.2
		c0.4,0.1,0.7,0.2,1.1,0.3c0.6,0.1,1.2,0.2,1.8,0.2c1.2,0,2.4-0.3,3.4-0.8c0.4-0.2,0.7-0.4,1.1-0.6c0,2.6,0.2,9.4,0.3,11.2l0,0.1
		c0.6,2.4,1,6.7,0.8,7.4l0,0.1C81.8,105.8,82.5,108.2,84.4,113.7z M126.1,57.6c-0.1,0-0.2,0-0.3,0c-0.6,0-1.1,0-1.9-0.3
		c-0.1,0-0.2-0.1-0.3-0.1c-0.1,0-0.2-0.1-0.2-0.1l-2.2-0.2l0.2,0.1l-1-0.3c-0.2,0-0.3-0.1-0.5-0.1c-0.2,0-0.3-0.1-0.6,0
		c0.1,0.3,0.2,0.3,0.4,0.4c0.1,0.1,0.3,0.2,0.4,0.3l0.8,0.6c0,0,0,0,0,0l0.1,0l2.1,0.7c0.1,0,0.1,0,0.2,0c0,0,0,0,0,0
		c0.1,0,0.2,0.1,0.3,0.1c-0.1,0.1-0.2,0.2-0.3,0.3c-0.2,0.2-0.4,0.2-0.7,0.2c-0.3-0.1-0.6-0.1-1-0.2c-1.1-0.2-2.1-0.4-2.8-0.5
		c-0.1,0-0.2,0-0.3,0c-3.7,1.2-6-0.7-6.3-0.9c-0.1-0.1-0.2-0.2-0.3-0.2l-4.9-2.3l0,0c-0.1,0-0.3-0.1-0.3-0.2l0,0.1l-0.9-3.9l0.2,3.9
		l0,0l0,0c0.1,0.3,0.3,0.6,0.7,0.8l0,0l3.8,2.5c0,0,0,0.1,0,0.1c-4.6,10.3-14.3,15-20,17.8c-0.6,0.3-1.2,0.6-1.8,0.9
		c-1.3,0.6-2.3,1.6-3.1,2.7c-1.6,2.3-4.4,4.2-6.5,5.3c-1.2,0.6-2.7,0.8-4.1,0.5c-1.1-0.3-2.2-0.5-3.1-0.8c-0.5-0.1-0.9-0.2-1.3-0.3
		c0.5-0.3,0.9-0.5,1.3-0.8c0.9-0.6,1.7-1.3,2.4-2c0.7-0.7,1.4-1.6,1.9-2.5c0.6-0.9,0.9-1.9,1.3-2.8c-0.5,0.9-0.9,1.8-1.6,2.6
		c-0.6,0.8-1.3,1.5-2.1,2.1c-0.8,0.6-1.6,1.1-2.5,1.6c-0.9,0.4-1.8,0.8-2.7,1l0,0c0,0-0.1,0-0.1,0c-0.1,0-0.2,0.1-0.3,0.2
		c-0.2,0.2-0.4,0.6-1.3,3.6c-1.1,3.8-3,10.1-3.8,11.6l0,0.1c-1.1,3.4-3.1,6.6-3.8,7.5c-2.2,2.9-4.6,14.1-5.1,16.2l-1.6,1.1l0-3.1
		l-1.1-0.2l6.3-14.9l0-0.1c0.1-0.2,1.7-5.7,1.7-8.4c0-0.5,0-1,0-1.7c0-2.8,0.1-7.6,0.6-9.3l0.1-0.2l0-0.2c-0.4-2.1,0.3-6,0.4-6.7
		c0-0.1,0.1-0.2,0.1-0.3l0,0c0-0.5,0.1-1.1,0.2-1.7c0.1-0.6,0.3-1.1,0.5-1.7c0.4-1.1,0.9-2.2,1.5-3.3c-0.9,0.9-1.6,1.8-2.3,2.9
		c-0.3,0.5-0.6,1.1-0.9,1.7c-0.3,0.6-0.5,1.1-0.7,1.8c0,0,0,0,0,0c0,0.1,0,0.1-0.1,0.2c0,0.1-0.2,1.3-0.4,2.9c-1,0-2.5,0.4-4.3,0.9
		c-2.5,0.7-5.5,1.5-8.3,1.6c-3.9,0.2-7.9-1-9.4-1.5c0.3-0.6,0.5-1.3,0.7-1.9c0.3-1,0.4-1.9,0.5-2.9c0.1-1,0.1-2,0-2.9
		c-0.1-1-0.4-1.9-0.6-2.8c0.2,0.9,0.3,1.9,0.2,2.8c0,0.9-0.1,1.9-0.4,2.8c-0.2,0.9-0.5,1.8-0.9,2.6c-0.4,0.8-0.8,1.7-1.3,2.4l0,0
		c0,0,0,0.1-0.1,0.1c0,0.1-0.1,0.2-0.1,0.2c0,0.1-0.1,0.1-0.1,0.2c-0.7,4.5-3.7,9.7-5.1,12.1c-0.3,0.5-0.5,0.9-0.6,1.1
		c-0.9,1.7-1.1,6.8,0,8.8c1,1.9,7,10.1,9.1,12.3c1.5,1.6,2.3,4.1,2.7,5.2l-1.5,1.1c-0.3-1-0.6-2.2-0.7-2.3c-0.2-0.7-1-0.7-1.5-0.7
		c-0.2,0-0.4,0-0.7,0c-0.8-1.4-3.5-5.1-6.3-9.1c-2.9-4.1-5.9-8.3-7.5-10.8c-0.6-0.9-0.7-2-0.3-3c1.8-4.8,1.7-11.7,0.3-13.4l-0.1-0.1
		L22,84.7C13.3,79,11.5,71.1,11.1,68c-0.1-0.7,0-1.5,0.3-2.2l1.3-3.6c0.3-0.7,1.1-1.6,1.8-2l4.5-2.3c0.4-0.2,0.9-0.5,1.3-0.8
		c0.9-0.7,3.3-2.2,6.4-2.5c1.2-0.1,3.5-0.4,6.1-0.7c5.9-0.7,14-1.6,18.4-1.8c1.4-0.1,2.7-0.3,4-0.8c4.6-1.6,13.2-3.9,19-0.7
		c0.4,0.2,1,0.5,1.5,0.8c2.9,1.7,7.2,4.2,11.4,2.8c2.4-0.8,4.9-2.4,7.3-3.9c2.4-1.5,4.7-3,6.2-3.2c0.1,0,0.2,0,0.2-0.1
		c0.1,0.1,0.2,0.2,0.4,0.3l0.4,0.2c0.5,0.3,1,0.5,1.5,0.7c1,0.3,2.1,0.4,3.2,0.1c0.3,0.4,0.6,0.8,1,1.2c-0.2-0.6-0.4-1.1-0.7-1.7
		c0-0.1-0.1-0.1-0.2-0.1l-0.1,0c-0.5,0-1,0-1.4-0.1c-0.5-0.1-0.9-0.3-1.4-0.5c-0.4-0.2-0.8-0.5-1.2-0.8l-0.3-0.2
		c-0.1-0.1-0.2-0.1-0.2-0.2c-0.2-0.1-0.3-0.3-0.4-0.5c-0.5-0.7-0.8-1.7-1-2.6c-0.1-0.6-0.2-1.3-0.2-2c0.1,0,0.2,0,0.3,0.1
		c0.4,0.1,0.8,0.2,1.2,0.4c0.8,0.3,1.5,0.7,2.2,1.1c0.7,0.5,1.3,1.1,1.8,1.7c0.5,0.7,1,1.4,1.3,2.2l0,0.1c0,0,0,0,0.1,0.1
		c0.3,0.2,0.7,0.4,1,0.5c0.4,0.1,0.8,0.2,1.1,0.1c-0.4-0.1-0.7-0.2-1-0.4c-0.1-0.1-0.3-0.2-0.4-0.3c-0.1-0.1-0.2-0.2-0.3-0.3
		c-0.1-0.5-0.3-1-0.5-1.5l0.9-0.2c0.1,0.3,0.3,0.6,0.7,0.7c0.5,0.1,0.9-0.3,0.9-0.7c0.2-1.2,0.2-2.3,0-3.4c-0.1-0.6-0.3-1.2-0.6-1.7
		c-0.3-0.6-0.8-1.1-1.5-1.4c-0.6-0.3-1.2-0.4-1.7-0.5c-0.6-0.1-1.1-0.1-1.6-0.2c-1.1-0.1-2.1-0.1-3.2-0.2c-2.1-0.1-4.2-0.3-5.9-1.2
		c-0.4-0.2-0.8-0.5-1.2-0.8c-0.3-0.3-0.6-0.7-0.9-1.1c-0.6-0.8-1.1-1.7-1.5-2.6c-0.8-1.9-1.2-3.9-1.6-6c-0.2-1.1-0.6-2.3-1.4-3.1
		c-0.8-0.9-1.8-1.4-2.9-1.7c-2-0.7-3.9-1.5-5.9-2.2c-0.1,0-0.1,0-0.2-0.1c0.3,0.1,0.6,0.2,0.9,0.3c2.2,0.6,4.4,1.3,6.7,1.7
		c1.1,0.2,2.1,0.5,2.8,1.2c0.7,0.7,1.2,1.7,1.4,2.7c0.3,1,0.3,2.2,0.6,3.3c0.2,1.2,0.6,2.3,1.2,3.4c0.6,1.1,1.4,2.1,2.5,2.8
		c1,0.7,2.2,1.2,3.4,1.5c2.4,0.7,4.8,0.6,7,0.7c1.1,0.1,2.2,0.2,3.1,0.6c0.5,0.2,0.9,0.4,1.3,0.8l0.3,0.2c0.1,0.1,0.1,0.1,0.2,0.2
		c0.1,0.2,0.2,0.4,0.3,0.6c0.4,0.9,0.6,2,0.8,3.1c0.2,1.1,0.3,2.2,0.4,3.3l0,0c0,0.5,0.4,0.8,0.9,0.8c0.3,0,0.5-0.2,0.7-0.4
		c4.7,2.7,8.6,5.9,11.7,9.6c0.5,0.6,0.7,1.3,0.7,2C126.3,57.1,126.3,57.4,126.1,57.6z"/>
	<path class="st3" d="M112.2,52.8c0.1,0.2,0.3,0.2,0.6,0.2c0.3-0.1,0.5-0.2,0.5-0.5c0.1-0.4-0.1-1.2-0.4-1.4c-0.2-0.1-0.6-0.3-1,0.2
		c-0.4,0.5-0.2,0.6-0.1,0.9C111.9,52.3,112.1,52.6,112.2,52.8z"/>
	<path class="st3" d="M112.8,55.8c0.1,0.1,0.3,0.2,0.5,0.1c0.2-0.1,0.4-0.2,0.5-0.4c0.1-0.3-0.1-1-0.3-1.2c-0.2-0.1-0.5-0.2-0.8,0.2
		c-0.3,0.4-0.2,0.5-0.1,0.7C112.5,55.4,112.7,55.7,112.8,55.8z"/>
	<path class="st1" d="M110.4,58.6C110.4,58.6,110.4,58.6,110.4,58.6C105.8,69,96.1,73.6,90.3,76.4c-0.6,0.3-1.2,0.6-1.8,0.9
		c-1.3,0.6-2.3,1.6-3.1,2.7c-1.6,2.3-4.4,4.2-6.5,5.3c-1.2,0.6-2.7,0.8-4.1,0.5c-1.1-0.3-2.2-0.5-3.1-0.8c-0.5-0.1-0.9-0.2-1.3-0.3
		c0.5-0.3,0.9-0.5,1.3-0.8c0.9-0.6,1.7-1.3,2.4-2c0.4-0.4,0.9-0.9,1.2-1.4c3.1-1.2,8.3-4.8,9-7.5c8.7,0.7,11.5-1.4,16.7-7.1
		c5.4-5.8,4.8-10.4,4.8-10.4c0.1,0.3,0.3,0.6,0.6,0.8L110.4,58.6z"/>
	<path class="st1" d="M34.4,83.3c0,0.1-0.1,0.1-0.1,0.2c-0.7,4.5-3.7,9.7-5.1,12.1c-0.3,0.5-0.5,0.9-0.6,1.1c-0.9,1.7-1.1,6.8,0,8.8
		c0.1,0.1,0.2,0.3,0.3,0.5v0c-3.1-3.6-1.9-5.4-3.7-10.2C28.7,94.2,34.1,83.4,34.4,83.3z"/>
	<path class="st3" d="M123.5,58.9c-0.1,0.1-0.2,0.2-0.3,0.3c-0.2,0.2-0.4,0.2-0.7,0.2c-0.3-0.1-0.6-0.1-1-0.2
		c-1.1-0.2-2.1-0.4-2.8-0.5c-0.1,0-0.2,0-0.3,0c-0.6,0.2-1.2,0.3-1.8,0.4c1.1-0.7,0.5-2,0.5-2l2-0.5c0.1,0.3,0.2,0.3,0.4,0.4
		c0.1,0.1,0.3,0.2,0.4,0.3l0.8,0.6c0,0,0,0,0,0l0.1,0l2.1,0.7c0.1,0,0.1,0,0.2,0h0C123.4,58.8,123.4,58.9,123.5,58.9z"/>
	<path class="st6" d="M112.4,44.7c-1.1-0.4-2.1-0.3-2.8-0.1c0,0,0-0.1,0-0.2c0.2-1.2,0.2-2.3,0-3.4c-0.1-0.6-0.3-1.2-0.6-1.7
		c-0.3-0.6-0.8-1.1-1.5-1.4c-0.6-0.3-1.2-0.4-1.7-0.5c-0.6-0.1-1.1-0.1-1.6-0.2c-1.1-0.1-2.1-0.1-3.2-0.2c-2.1-0.1-4.2-0.3-5.9-1.2
		c-0.4-0.2-0.8-0.5-1.2-0.8c-0.3-0.3-0.6-0.7-0.9-1.1c-0.6-0.8-1.1-1.7-1.5-2.6c-0.8-1.9-1.2-3.9-1.6-6c-0.2-1.1-0.6-2.3-1.4-3.1
		c-0.8-0.9-1.8-1.4-2.9-1.7c-2-0.7-3.9-1.5-5.9-2.2c-0.1,0-0.1,0-0.2-0.1c0.3,0.1,0.6,0.2,0.9,0.3c2.2,0.6,4.4,1.3,6.7,1.7
		c1.1,0.1,2.1,0.5,2.8,1.2c0.7,0.7,1.2,1.7,1.4,2.7c0.3,1,0.3,2.2,0.6,3.3c0.2,1.2,0.6,2.3,1.2,3.4c0.6,1.1,1.4,2.1,2.5,2.8
		c1,0.7,2.2,1.2,3.4,1.5c2.4,0.7,4.8,0.6,7,0.7c1.1,0.1,2.2,0.2,3.1,0.6c0.5,0.2,0.9,0.4,1.3,0.8l0.3,0.2c0.1,0.1,0.1,0.1,0.2,0.2
		c0.1,0.2,0.2,0.4,0.3,0.6c0.4,0.9,0.6,2,0.8,3.1C112.2,42.6,112.3,43.7,112.4,44.7z"/>
	<path class="st3" d="M9.4,76.3c0.2,2.9,0.5,6.4-0.1,8.8c-0.8,2.8-2.6,3.6-4.6,3.6c4.7-2.8,3.2-7.7,3.1-11.3
		c-0.6-6.5,0.6-8.9,1.6-9.8c0,0.2,0,0.4,0,0.6c0.1,0.5,0.2,1.2,0.3,1.9C9,71,9.1,73.1,9.4,76.3z"/>
</g>
</svg>
