<?xml version="1.0" encoding="utf-8"?>
<!-- Generator: Adobe Illustrator 24.1.2, SVG Export Plug-In . SVG Version: 6.00 Build 0)  -->
<svg version="1.1" id="Layer_1" xmlns="http://www.w3.org/2000/svg" xmlns:xlink="http://www.w3.org/1999/xlink" x="0px" y="0px"
	 viewBox="0 0 128 128" style="enable-background:new 0 0 128 128;" xml:space="preserve">
<style type="text/css">
	.st0{fill:#EFC24C;}
	.st1{fill:#DB5240;}
	.st2{fill:#D39C6A;}
	.st3{fill:#A3A9AE;}
	.st4{fill:#ACDEF9;}
	.st5{fill:#67666D;}
	.st6{fill:#E1E1E1;}
	.st7{fill:#3E80AD;}
	.st8{fill:#2D2D2D;}
</style>
<g>
	<path class="st0" d="M3.5,112.1l0-0.3l-0.1-0.7l-0.1-1.3l-0.1,0l-0.7,0.1L1.4,110l-0.1,0.6L1.2,112l0,0L2,112L3.5,112.1
		C3.5,112.2,3.5,112.2,3.5,112.1z"/>
	<path class="st1" d="M1,112L1,112L1,112L1,112C1.1,112,1.1,112,1,112L1,112z"/>
	<path class="st1" d="M3.3,109.6L3.3,109.6C3.3,109.6,3.3,109.6,3.3,109.6C3.3,109.6,3.3,109.6,3.3,109.6
		C3.3,109.6,3.3,109.6,3.3,109.6L3.3,109.6z"/>
	<path class="st1" d="M1.4,109.6L1.4,109.6C1.4,109.6,1.4,109.6,1.4,109.6C1.4,109.5,1.4,109.6,1.4,109.6z"/>
	<path class="st2" d="M30.7,118.6c0-0.3,0-0.4,0-0.6l0-0.6l-0.1-9.6c-2.2,0.3-4.4,0.4-6.5,0.5c-1.2,0-2.4,0.1-3.6,0l-3.6-0.1
		L9.4,108l-7.2-0.3l0,0.9l0.3,0l0.7,0.1l0.2,0c0.1,0,0.3,0,0.4,0.1c0.1,0.1,0.2,0.2,0.3,0.4c0,0.1,0.1,0.1,0.1,0.2c0,0,0,0.1,0,0.1
		l0,0l-0.1,1.5l-0.1,0.7l0,0.2c0,0,0,0.2-0.1,0.3c-0.1,0.2-0.3,0.3-0.5,0.3l-1.2,0.1c0.2,1.1,0.3,2.2,0.3,3.3c0.1,1,0.1,1.9,0.2,2.9
		c0.6,0.1,1.1,0.1,1.6,0.2c0.7,0.1,1.4,0.2,2.1,0.3c1.3,0.2,2.7,0.6,4,0.9c0.4-0.9,0.8-1.9,1.1-2.9c0.2-0.5,0.4-1.1,0.5-1.6l0.3-0.8
		l0.1-0.4c0-0.1,0.1-0.3,0.2-0.4c0.3-0.6,0.7-1.1,1.3-1.4c0.3-0.2,0.6-0.3,0.9-0.3c0.2,0,0.3,0,0.5-0.1l0.4,0
		c1.1-0.1,2.2-0.1,3.4-0.1l3.4-0.1l0.4,0l0.2,0l0.3,0c0.4,0,0.7,0.1,1,0.2c0.7,0.3,1.2,0.8,1.6,1.4c0.2,0.3,0.3,0.7,0.4,1l0.2,0.8
		c0.1,0.5,0.3,1.1,0.4,1.6c0.2,1,0.4,1.9,0.6,2.9c0.8,0,1.6,0.1,2.4,0.2c0.5,0,0.9,0.1,1.4,0.1c0,0,0,0,0.1,0
		c-0.1-0.1-0.3-0.3-0.4-0.4C30.9,119.6,30.7,119.1,30.7,118.6z"/>
	<path class="st3" d="M4.7,39.8c0.3,0.3,0.8,0.5,1.2,0.5h17.7l0.2-0.7c0.1-0.4,0.6-0.7,1-0.6c0.4,0.1,0.7,0.6,0.6,1l-3.9,13.7h1.8
		l10-14.2c0.3-0.4,0.8-0.5,1.2-0.2c0.3,0.2,0.4,0.6,0.3,0.9h15.7c2.8,0,4.6-1.1,4.6-3c0-2.5-2.5-3-4.6-3H6.6c-0.3,0-0.7-0.2-0.8-0.5
		l-2.5-6.7H1.7v8.9c0,0.4,0.2,0.8,0.4,1.1L4.7,39.8z"/>
	<polygon class="st3" points="31.1,32.7 23.3,21.8 21.5,21.8 24.3,32.7 	"/>
	<path class="st3" d="M67.7,119.8c-0.3-0.1-0.5-0.2-0.8-0.3c-0.2-0.1-0.5-0.1-0.7-0.1c-0.5,0-0.9,0.1-1.3,0.5
		c-0.4,0.3-0.7,0.8-0.8,1.3c-0.1,0.6,0,1.3,0.5,1.7c0.2,0.2,0.5,0.3,0.8,0.4c0.3,0,0.6,0,0.8,0c0.5-0.1,1-0.2,1.5-0.5
		c0.3-0.1,0.5-0.3,0.7-0.6c0.2-0.3,0.3-0.6,0.3-0.9c0-0.3-0.1-0.7-0.3-0.9C68.2,120.1,67.9,119.9,67.7,119.8z"/>
	<path class="st0" d="M75.5,111.5L75.5,111.5l-0.1,0c0,0-0.1,0-0.1,0.1c0,0-0.1,0.1-0.1,0.1c0,0,0,0,0,0.1c0,0,0,0,0,0
		c0,0,0,0,0,0.1c0,0.2-0.1,0.4-0.1,0.6c-0.1,0.4-0.2,0.7-0.5,1.1c0.3,0,0.6,0,0.9,0l1.7-0.1l-0.1-1.1c0-0.5-0.1-0.9-0.2-1.3
		c0-0.1,0-0.1-0.1-0.2c-0.4,0.3-0.8,0.4-1.2,0.5L75.5,111.5z"/>
	<path class="st4" d="M37.7,103.3c-0.3,0-0.6,0-0.8,0l-0.2,0l-0.2,0c-0.1,0-0.1,0-0.2,0c-0.3,0.1-0.5,0.3-0.6,0.6c0,0,0,0.2-0.1,0.3
		l-0.1,0.4l-0.1,0.8l-0.4,2.8c1.2,0,2.3,0.1,3.5,0.2c0.7,0,1.5,0.1,2.2,0.1l0.2-5.7c-0.6,0.1-1.1,0.1-1.7,0.2
		C38.8,103.2,38.3,103.2,37.7,103.3z"/>
	<path class="st3" d="M19.9,119.6c-0.2-0.1-0.5-0.1-0.7-0.1c-0.4,0-0.9,0.1-1.3,0.4c-0.4,0.3-0.7,0.7-0.8,1.3
		c-0.1,0.5,0,1.2,0.5,1.6c0.2,0.2,0.5,0.3,0.8,0.3c0.3,0,0.6,0,0.8,0c0.5-0.1,0.9-0.2,1.4-0.4c0.3-0.1,0.5-0.3,0.7-0.5
		c0.2-0.2,0.3-0.6,0.3-0.9c0-0.3-0.1-0.6-0.3-0.9c-0.2-0.3-0.4-0.4-0.7-0.5C20.4,119.8,20.1,119.7,19.9,119.6z"/>
	<path class="st5" d="M70.2,117.3c-1.2-0.9-2.6-1.4-4-1.3c-1.4,0-2.8,0.5-3.8,1.5c-1,1-1.7,2.3-1.9,3.8c-0.1,1.5,0.4,3.1,1.6,4.1
		c0.6,0.5,1.2,0.9,2,1.1c0.7,0.2,1.5,0.3,2.2,0.2c1.4-0.1,2.8-0.6,4-1.5c0.6-0.5,1.1-1,1.5-1.7c0.4-0.7,0.6-1.5,0.6-2.3
		c0-0.8-0.2-1.6-0.6-2.3C71.3,118.3,70.8,117.8,70.2,117.3z M68.8,122.3c-0.1,0.4-0.2,0.8-0.4,1.1c-0.4,0.7-1.3,1.1-2.2,1
		c-0.9-0.1-1.5-0.7-2-1.2c-0.5-0.6-0.9-1.2-1-2c-0.1-0.4-0.1-0.8,0.1-1.2c0.1-0.4,0.3-0.8,0.6-1.1c0.6-0.6,1.4-1.1,2.3-1.1
		c0.4,0,0.9,0.1,1.3,0.3c0.4,0.2,0.7,0.5,0.9,0.9c0.4,0.7,0.5,1.5,0.5,2.2C68.9,121.6,68.8,122,68.8,122.3z"/>
	<path class="st5" d="M23,117.5c-1.1-0.8-2.5-1.3-3.8-1.3c-1.3,0-2.6,0.5-3.6,1.4c-1,0.9-1.7,2.2-1.8,3.6c-0.1,1.4,0.4,3,1.5,4
		c0.5,0.5,1.2,0.9,1.9,1.1c0.7,0.2,1.4,0.3,2.1,0.2c1.4-0.1,2.7-0.6,3.8-1.4c0.6-0.4,1.1-1,1.4-1.6c0.4-0.7,0.5-1.4,0.5-2.2
		c0-0.8-0.2-1.5-0.6-2.2C24.1,118.5,23.6,117.9,23,117.5z M21.7,122.3c-0.1,0.4-0.2,0.7-0.4,1.1c-0.4,0.7-1.3,1.1-2.1,1
		c-0.8-0.1-1.5-0.6-1.9-1.2c-0.5-0.5-0.8-1.2-1-1.9c-0.1-0.4-0.1-0.8,0-1.2c0.1-0.4,0.3-0.8,0.6-1.1c0.5-0.6,1.4-1,2.2-1
		c0.4,0,0.9,0.1,1.2,0.3c0.4,0.2,0.7,0.5,0.9,0.8c0.4,0.7,0.5,1.4,0.5,2.1C21.8,121.6,21.8,122,21.7,122.3z"/>
	<path class="st6" d="M49.2,74.1c0.3,0.9,0.8,1.7,1.2,2.4h52.9l0.5-2.4H49.2z"/>
	<polygon class="st4" points="75.5,72.4 75.5,64 69.6,64 62,72.4 	"/>
	<path class="st4" d="M50.4,105.1c-0.2-0.3-0.3-0.5-0.5-0.7c-0.4-0.4-0.8-0.7-1.3-0.9c-0.5-0.2-1-0.3-1.6-0.4
		c-0.6,0-1.2-0.1-1.8-0.1l-2.9-0.3c-0.4,0.1-0.7,0.1-1.1,0.2l0.2,5.6c2-0.1,4-0.1,6-0.2l5.1-0.1c-0.5-0.8-1-1.5-1.6-2.3L50.4,105.1z
		"/>
	<path class="st1" d="M118.6,3.7c-1.1-0.5-2.2-0.9-3.4-1.1c-1.1-0.2-2.5-0.2-3.8-0.4c-2.4-0.2-4.8,0.5-6.9,1.7
		c-2.2,1.2-4.1,3-5.4,5.1c-0.7,1.1-1.3,2.2-1.7,3.4c-0.2,0.6-0.4,1.2-0.5,1.9c-0.1,0.3-0.1,0.6-0.2,1l-0.1,0.5c0,0.1,0,0.2-0.1,0.4
		l4.8-0.3c1.4-0.1,2.7-0.2,4-0.2c0.2-1.2,0.5-2.4,1-3.5c0.3-0.7,0.7-1.3,1.2-1.8c0.3-0.3,0.5-0.6,0.9-0.8l0.5-0.3
		c0.2-0.1,0.3-0.2,0.5-0.3c0.7-0.3,1.5-0.5,2.2-0.5c0.8-0.1,1.6,0,2.3,0.3c0.8,0.3,1.5,0.7,2,1.3c0.6,0.6,1,1.2,1.3,1.9
		c0.6,1.4,0.8,3.1,0.4,4.5c-0.2,0.7-0.5,1.5-0.9,2.1c-0.4,0.6-1,1.2-1.4,1.7c-0.9,0.9-1.8,1.9-2.7,2.8c-0.9,0.9-1.9,1.8-2.6,2.8
		c-0.7,1-1.3,2.1-1.8,3.3c-0.5,1.2-0.8,2.4-1.1,3.7c-0.3,1.3-0.4,2.6-0.4,3.9c0,0.2,0.1,0.3,0.2,0.4c0,0,0.2,0,0.4,0l0.5,0l2,0
		c1.3,0,2.6,0,3.9-0.1l1,0c0.1,0,0.4,0,0.4,0c0.1,0,0.1,0,0.1-0.1c0,0,0-0.1,0-0.1l0-0.5c0-0.3,0-0.7,0-1c0-1.4,0-2.8,0.8-4.2
		c0.4-0.7,0.9-1.1,1.4-1.6l1.4-1.4c1.8-1.9,3.5-3.8,4.8-6c1.3-2.1,2-4.4,2.1-6.9c0-2.4-0.6-4.8-1.8-6.8
		C122.6,6.4,120.7,4.7,118.6,3.7z"/>
	<path class="st1" d="M113.8,43.4c-0.5-0.2-0.9-0.4-1.4-0.5c-0.4-0.1-0.9-0.2-1.3-0.1c-0.9,0-1.7,0.3-2.4,0.9
		c-0.7,0.6-1.3,1.4-1.5,2.5c-0.2,1,0.1,2.3,1,3c0.4,0.4,0.9,0.6,1.5,0.7c0.5,0.1,1,0,1.5,0c0.9-0.2,1.8-0.4,2.7-0.9
		c0.5-0.2,0.9-0.6,1.2-1.1c0.3-0.5,0.5-1.1,0.5-1.6c0-0.6-0.2-1.2-0.5-1.6C114.7,44,114.2,43.6,113.8,43.4z"/>
	<path class="st7" d="M56,82.4C56,82.4,56,82.5,56,82.4c0.3-0.2,0.6-0.5,0.8-0.8c0.3-0.5,1.1-0.5,1.4,0c1.5,2.2,3.9,3.4,6.4,3.4
		c2.5,0,4.9-1.3,6.4-3.4c0.2-0.2,0.4-0.4,0.7-0.4c0.3,0,0.5,0.1,0.7,0.4c1.5,2.2,3.9,3.4,6.4,3.4c2.5,0,4.9-1.3,6.4-3.4
		c0.3-0.5,1.1-0.5,1.4,0c1.5,2.2,3.9,3.4,6.4,3.4c2.5,0,4.9-1.3,6.4-3.4c0.3-0.5,1.1-0.5,1.4,0c0.4,0.6,0.9,1.1,1.4,1.6l1-5H51.5
		C52.8,79.8,54.2,81.2,56,82.4z"/>
	<path class="st7" d="M68.7,62.6c0.2-0.2,0.4-0.3,0.6-0.3h7.1c0.5,0,0.8,0.4,0.8,0.8v9.3h1.5v-9.3c0-0.5,0.4-0.8,0.8-0.8h4
		c0.4,0,0.7-0.3,0.7-0.7c0-0.4-0.3-0.7-0.7-0.7H68L57.8,72.4h1.9L68.7,62.6z"/>
	<path class="st3" d="M77.9,114.3l-0.5,0l-2-0.1c-0.7,0-1.4-0.1-2.2-0.1c0,0.1,0.1,0.1,0.1,0.2c0.1,0.2,0.1,0.3,0.2,0.5l0.1,0.4
		l0.4,1.6l0.7,2.8l1.5,0c0.4,0,0.9-0.3,1-0.8c0.3-1.3,0.6-2.6,0.9-3.9l0.1-0.2c0,0,0-0.1,0-0.1c0-0.1,0-0.1-0.1-0.2
		C78.1,114.3,78.1,114.3,77.9,114.3z"/>
	<path class="st2" d="M73.8,112.5c-0.1-0.2-0.1-0.4-0.1-0.6c0,0,0-0.1,0-0.2c0-0.1,0-0.2,0-0.3c0-0.2,0.1-0.3,0.2-0.5
		c0.2-0.3,0.5-0.5,0.8-0.6c0.2-0.1,0.3-0.1,0.5-0.1l0.1,0l0.1,0l0.2,0c0.4,0.1,0.7,0.2,1.1,0.5c-0.3-0.7-0.9-1.2-1.6-1.5
		c-0.4-0.2-0.8-0.3-1.2-0.3l-1.4-0.1l-2.8-0.1c-1.9-0.1-3.7,0-5.5-0.3c-1.8-0.2-3.6-0.5-5.3-1c0,0,0,0,0,0c0,0-0.1,0-0.1,0l0,0
		c0,0,0,0-0.1-0.1c0,0,0,0,0,0c-2.4-2-4.4-4.5-7.1-6.1c-0.7-0.4-1.4-0.7-2.1-0.9c-0.7-0.2-1.5-0.4-2.2-0.5c-0.4-0.1-0.8-0.1-1.1-0.1
		l-1.2,0l-2.4,0l-4.8,0.1l-4.8,0c-0.5,0-0.9,0.4-1,0.8c0,0.1,0,0.1,0,0.2c0,0.1,0,0.2,0,0.3l0,0.6l0,1.2c0,1.6,0,3.2,0,4.8l-0.1,9.6
		l0,0.6c0,0.2,0,0.4,0,0.6c0,0.3,0.1,0.6,0.3,0.8c0.2,0.2,0.4,0.5,0.7,0.6c0.1,0.1,0.3,0.1,0.4,0.1c0.2,0,0.3,0,0.5,0
		c1.6,0,3.2,0.1,4.8,0.1c3.2,0.1,6.4,0.2,9.6,0.2c3.1,0,6.2,0,9.4,0l0.8-3l0.4-1.6L59,115c0-0.1,0.1-0.3,0.1-0.4
		c0.1-0.2,0.1-0.3,0.2-0.4c0.3-0.6,0.8-1.1,1.4-1.4c0.3-0.2,0.6-0.3,0.9-0.3c0.2,0,0.3,0,0.5,0l0.4,0c1.1,0,2.2-0.1,3.3-0.1
		c1.1,0,2.2,0,3.3,0l0.8,0c0.2,0,0.6,0,1,0.1c0.7,0.1,1.3,0.5,1.8,1c0.1,0.1,0.2,0.2,0.3,0.4c0.4,0,0.9,0,1.3-0.1
		C74.1,113.3,73.9,112.9,73.8,112.5z M44.3,112.2H42c-0.4,0-0.7-0.3-0.7-0.7c0-0.4,0.3-0.7,0.7-0.7h2.3c0.4,0,0.7,0.3,0.7,0.7
		C45,111.8,44.7,112.2,44.3,112.2z M53.7,109.4l-6.3-0.2c-2.1-0.1-4.2-0.1-6.3-0.2l-0.3,0l0-0.1c-0.7,0-1.5,0.1-2.2,0.1
		c-1.4,0.1-2.7,0.1-4.1,0.2l-0.5,0l0-0.5l0.1-3.3l0-0.8l0-0.4c0-0.1,0-0.3,0-0.5c0.1-0.8,0.7-1.5,1.5-1.8c0.2-0.1,0.4-0.1,0.6-0.1
		l0.2,0l0.1,0l0.2,0c0.3,0,0.6,0,0.8,0c0.6,0,1.1,0.1,1.7,0.1c0.9,0.1,1.9,0.2,2.8,0.4c0.9-0.1,1.8-0.2,2.7-0.3
		c0.7-0.1,1.4-0.1,2.1-0.1c0.7-0.1,1.5,0,2.2,0.3c0.7,0.2,1.4,0.7,1.9,1.2c0.3,0.3,0.5,0.6,0.7,0.9l0.5,0.8c0.7,1.1,1.3,2.2,2,3.3
		l0.6,1L53.7,109.4z"/>
	<path class="st8" d="M119.7,1.4c-1.3-0.6-2.7-1-4.1-1.2c-1.5-0.2-2.7-0.1-4.1-0.2c-2.9-0.1-5.7,0.9-8,2.4c-2.3,1.5-4.2,3.6-5.5,6
		c-0.7,1.2-1.1,2.5-1.4,3.8c-0.1,0.7-0.2,1.3-0.3,2c0,0.3,0,0.7,0,1l0,0.5c0,0.2,0,0.4,0.1,0.6l4.7,0.3c1.6,0.1,3.2,0.2,4.9,0.3
		l0.6,0l0.1-0.6c0.4-2.3,1.6-4.9,3.5-5.7c1-0.4,2.2-0.4,3.1-0.1c0.9,0.3,1.7,1.2,2.1,2.2c0.4,1,0.5,2.1,0.2,3.2
		c-0.1,0.5-0.3,1-0.6,1.5c-0.3,0.5-0.6,0.9-1.1,1.4c-0.9,1-1.7,2-2.6,3l-1.3,1.5c-0.4,0.5-0.9,1-1.2,1.6c-1.5,2.4-2.1,5.1-2.5,7.7
		c-0.2,1.3-0.3,2.6-0.3,4c0,0.2,0,0.5,0.2,0.7c0.1,0.2,0.4,0.4,0.6,0.4c0.3,0.1,0.4,0,0.6,0l0.5,0l2,0c1.3,0,2.6,0,3.9,0.1l1,0
		c0.2,0,0.3,0,0.5,0c0.3,0,0.5-0.1,0.7-0.3c0.2-0.2,0.3-0.5,0.3-0.8l0-0.5c0-0.3,0-0.6,0-1c0.1-1.2,0.3-2.6,0.9-3.4
		c0.3-0.4,0.8-0.8,1.3-1.3l1.5-1.3c2-1.8,3.8-3.8,5.4-6c1.6-2.3,2.5-5.1,2.6-7.9c0.1-2.8-0.5-5.7-2-8.2
		C124.5,4.6,122.3,2.6,119.7,1.4z M123.6,22.1c-1.3,2.2-3,4.1-4.8,6l-1.4,1.4c-0.5,0.5-0.9,0.9-1.4,1.6c-0.8,1.4-0.8,2.8-0.8,4.2
		c0,0.3,0,0.7,0,1l0,0.5c0,0,0,0.1,0,0.1c0,0-0.1,0.1-0.1,0.1c-0.1,0-0.3,0-0.4,0l-1,0c-1.3,0-2.6,0.1-3.9,0.1l-2,0l-0.5,0
		c-0.2,0-0.4,0-0.4,0c-0.2-0.1-0.3-0.2-0.2-0.4c0.1-1.3,0.2-2.6,0.4-3.9c0.2-1.3,0.6-2.5,1.1-3.7c0.5-1.2,1-2.3,1.8-3.3
		c0.7-1,1.7-1.9,2.6-2.8c0.9-0.9,1.8-1.8,2.7-2.8c0.4-0.4,1-1,1.4-1.7c0.4-0.6,0.7-1.4,0.9-2.1c0.4-1.5,0.3-3.1-0.4-4.5
		c-0.3-0.7-0.7-1.4-1.3-1.9c-0.6-0.6-1.2-1-2-1.3c-0.8-0.3-1.6-0.4-2.3-0.3c-0.8,0.1-1.5,0.2-2.2,0.5c-0.2,0.1-0.4,0.2-0.5,0.3
		l-0.5,0.3c-0.3,0.2-0.6,0.5-0.9,0.8c-0.5,0.6-0.9,1.2-1.2,1.8c-0.5,1.1-0.8,2.3-1,3.5c-1.3,0.1-2.6,0.1-4,0.2l-4.8,0.3
		c0-0.2,0.1-0.3,0.1-0.4l0.1-0.5c0-0.3,0.1-0.6,0.2-1c0.1-0.6,0.3-1.3,0.5-1.9c0.4-1.2,1-2.3,1.7-3.4c1.4-2.1,3.3-3.9,5.4-5.1
		c2.1-1.2,4.6-1.9,6.9-1.7c1.3,0.1,2.6,0.2,3.8,0.4c1.2,0.2,2.3,0.6,3.4,1.1c2.1,1,4,2.7,5.2,4.7c1.2,2,1.9,4.4,1.8,6.8
		C125.6,17.6,124.9,20,123.6,22.1z"/>
	<path class="st8" d="M113.3,40.8c-0.7-0.3-1.4-0.5-2.2-0.6c-1.5,0-3.1,0.7-4,1.8c-0.5,0.6-0.9,1.2-1.1,1.9
		c-0.2,0.7-0.2,1.4-0.1,2.1c0.2,1.4,0.9,2.5,1.7,3.5c0.8,1,2,1.9,3.5,2.1c1.5,0.2,3-0.6,3.8-1.8c0.8-1.2,0.9-2.6,0.9-3.8
		c0-1.2-0.1-2.5-0.9-3.8C114.5,41.7,113.9,41.1,113.3,40.8z M115.5,46.1c0,0.6-0.2,1.2-0.5,1.6c-0.3,0.5-0.8,0.8-1.2,1.1
		c-0.9,0.5-1.8,0.7-2.7,0.9c-0.5,0.1-1,0.1-1.5,0c-0.5-0.1-1.1-0.3-1.5-0.7c-0.9-0.7-1.2-1.9-1-3c0.2-1,0.8-1.9,1.5-2.5
		c0.7-0.6,1.6-0.8,2.4-0.9c0.4,0,0.9,0,1.3,0.1c0.4,0.1,0.9,0.2,1.4,0.5c0.5,0.2,0.9,0.6,1.3,1.1C115.3,44.9,115.5,45.5,115.5,46.1z
		"/>
	<path class="st8" d="M21.7,115.2c-0.8-0.4-1.6-0.6-2.5-0.6c-1.7,0-3.5,0.7-4.6,2c-0.6,0.6-1,1.4-1.3,2.2c-0.3,0.8-0.4,1.6-0.3,2.5
		c0.1,1.6,0.9,3.1,1.9,4.3c1.1,1.2,2.6,2.1,4.3,2.2c0.8,0,1.7-0.1,2.5-0.5c0.8-0.3,1.5-0.9,2-1.5c1-1.3,1.4-2.9,1.5-4.5
		c0-1.5-0.4-3.1-1.4-4.5C23.2,116.2,22.5,115.6,21.7,115.2z M25,121.3c0,0.8-0.2,1.5-0.5,2.2c-0.3,0.7-0.9,1.2-1.4,1.6
		c-1.1,0.9-2.4,1.3-3.8,1.4c-0.7,0-1.4,0-2.1-0.2c-0.7-0.2-1.3-0.6-1.9-1.1c-1.1-1-1.6-2.5-1.5-4c0.1-1.4,0.8-2.7,1.8-3.6
		c1-0.9,2.3-1.4,3.6-1.4c1.3,0,2.7,0.4,3.8,1.3c0.6,0.4,1.1,1,1.4,1.6C24.8,119.8,25,120.5,25,121.3z"/>
	<path class="st8" d="M20.5,118.3c-0.4-0.2-0.8-0.3-1.2-0.3c-0.9,0-1.7,0.4-2.2,1c-0.3,0.3-0.5,0.7-0.6,1.1c-0.1,0.4-0.1,0.8,0,1.2
		c0.1,0.8,0.5,1.4,1,1.9c0.5,0.5,1.1,1.1,1.9,1.2c0.8,0.1,1.7-0.3,2.1-1c0.2-0.3,0.3-0.7,0.4-1.1c0.1-0.4,0.1-0.7,0.1-1
		c0-0.7,0-1.4-0.5-2.1C21.1,118.8,20.8,118.5,20.5,118.3z M21.7,121.3c0,0.3-0.1,0.6-0.3,0.9c-0.2,0.3-0.4,0.4-0.7,0.5
		c-0.5,0.2-0.9,0.3-1.4,0.4c-0.2,0-0.5,0.1-0.8,0c-0.3,0-0.6-0.1-0.8-0.3c-0.5-0.4-0.6-1-0.5-1.6c0.1-0.5,0.5-1,0.8-1.3
		c0.4-0.3,0.8-0.4,1.3-0.4c0.2,0,0.4,0,0.7,0.1c0.2,0.1,0.5,0.1,0.7,0.2c0.3,0.1,0.5,0.3,0.7,0.5C21.5,120.7,21.6,121,21.7,121.3z"
		/>
	<path class="st8" d="M67.5,118.2c-0.4-0.2-0.8-0.3-1.3-0.3c-0.9,0-1.8,0.4-2.3,1.1c-0.3,0.3-0.5,0.7-0.6,1.1
		c-0.1,0.4-0.1,0.8-0.1,1.2c0.1,0.8,0.5,1.4,1,2c0.5,0.5,1.1,1.1,2,1.2c0.8,0.1,1.7-0.3,2.2-1c0.2-0.3,0.3-0.7,0.4-1.1
		c0.1-0.4,0.1-0.7,0.1-1.1c0-0.7-0.1-1.4-0.5-2.2C68.2,118.8,67.8,118.4,67.5,118.2z M68.7,121.3c0,0.3-0.1,0.7-0.3,0.9
		c-0.2,0.3-0.5,0.5-0.7,0.6c-0.5,0.2-1,0.4-1.5,0.5c-0.3,0-0.5,0.1-0.8,0c-0.3,0-0.6-0.2-0.8-0.4c-0.5-0.4-0.7-1.1-0.5-1.7
		c0.1-0.6,0.5-1,0.8-1.3c0.4-0.3,0.9-0.4,1.3-0.5c0.2,0,0.5,0,0.7,0.1c0.2,0.1,0.5,0.1,0.8,0.3c0.3,0.1,0.5,0.3,0.7,0.6
		C68.6,120.6,68.7,121,68.7,121.3z"/>
	<path class="st8" d="M68.8,115c-0.8-0.4-1.7-0.6-2.6-0.6c-1.8,0-3.6,0.8-4.8,2.1c-0.6,0.6-1.1,1.4-1.4,2.2
		c-0.3,0.8-0.4,1.7-0.3,2.6c0.1,1.7,0.9,3.3,2,4.5c1.1,1.2,2.7,2.1,4.5,2.2c0.9,0,1.8-0.1,2.6-0.5c0.8-0.4,1.5-0.9,2.1-1.6
		c1.1-1.4,1.5-3,1.5-4.6c0-1.6-0.4-3.3-1.5-4.7C70.3,116,69.6,115.4,68.8,115z M72.2,121.3c0,0.8-0.2,1.6-0.6,2.3
		c-0.4,0.7-0.9,1.3-1.5,1.7c-1.2,0.9-2.5,1.4-4,1.5c-0.7,0-1.5,0-2.2-0.2c-0.7-0.2-1.4-0.6-2-1.1c-1.1-1.1-1.7-2.7-1.6-4.1
		c0.1-1.5,0.8-2.9,1.9-3.8c1-1,2.4-1.5,3.8-1.5c1.4,0,2.8,0.5,4,1.3c0.6,0.4,1.1,1,1.5,1.7C72,119.7,72.2,120.5,72.2,121.3z"/>
	<path class="st8" d="M52.2,105.1l-0.5-0.8c-0.2-0.3-0.4-0.6-0.7-0.9c-0.5-0.5-1.2-1-1.9-1.2c-0.7-0.3-1.5-0.3-2.2-0.3
		c-0.7,0-1.4,0.1-2.1,0.1c-0.9,0.1-1.9,0.2-2.7,0.3c-0.9-0.2-1.9-0.3-2.8-0.4c-0.6-0.1-1.1-0.1-1.7-0.1c-0.3,0-0.6,0-0.8,0l-0.2,0
		l-0.1,0l-0.2,0c-0.2,0-0.4,0.1-0.6,0.1c-0.8,0.3-1.4,1-1.5,1.8c0,0.2,0,0.3,0,0.5l0,0.4l0,0.8l-0.1,3.3l0,0.5l0.5,0
		c1.4-0.1,2.7-0.1,4.1-0.2c0.7,0,1.5-0.1,2.2-0.1l0,0.1l0.3,0c2.1,0.1,4.2,0.1,6.3,0.2l6.3,0.2l1.1,0l-0.6-1
		C53.6,107.4,52.9,106.2,52.2,105.1z M40.8,108.6c-0.7,0-1.5-0.1-2.2-0.1c-1.2-0.1-2.3-0.1-3.5-0.2l0.4-2.8l0.1-0.8l0.1-0.4
		c0-0.1,0-0.3,0.1-0.3c0.1-0.3,0.3-0.5,0.6-0.6c0.1,0,0.1,0,0.2,0l0.2,0l0.2,0c0.3,0,0.6,0,0.8,0c0.6,0,1.1-0.1,1.7-0.1
		c0.6-0.1,1.1-0.1,1.7-0.2L40.8,108.6z M47.4,108.3c-2,0.1-4,0.1-6,0.2l-0.2-5.6c0.4-0.1,0.7-0.1,1.1-0.2l2.9,0.3
		c0.6,0.1,1.2,0.1,1.8,0.1c0.6,0,1.1,0.1,1.6,0.4c0.5,0.2,1,0.5,1.3,0.9c0.2,0.2,0.3,0.4,0.5,0.7l0.5,0.8c0.5,0.8,1,1.5,1.6,2.3
		L47.4,108.3z"/>
	<path class="st8" d="M44.3,110.7H42c-0.4,0-0.7,0.3-0.7,0.7c0,0.4,0.3,0.7,0.7,0.7h2.3c0.4,0,0.7-0.3,0.7-0.7
		C45,111,44.7,110.7,44.3,110.7z"/>
	<path class="st8" d="M78.6,113.7c-0.1-0.1-0.3-0.1-0.4-0.1c-0.2,0-0.2,0-0.3,0l-0.5,0l-0.1,0l0.1-1.1c0-0.5,0-1-0.1-1.4
		c-0.3-1-0.9-1.8-1.8-2.3c-0.4-0.3-0.9-0.4-1.4-0.5l-1.4-0.2l-2.8-0.3c-1.8-0.2-3.7-0.5-5.5-0.6c-1.8,0-3.7,0-5.5,0.2l-1.5-1.7
		l-1.6-1.8c-1.1-1.2-2.2-2.3-3.6-3.3c-0.7-0.5-1.4-0.9-2.2-1.2c-0.8-0.3-1.6-0.5-2.4-0.6c-0.4-0.1-0.8-0.1-1.2-0.2
		c-0.4,0-0.8,0-1.2-0.1l-2.4,0l-4.8-0.1l-4.8,0c-0.6,0-1.1,0.2-1.6,0.6c-0.4,0.4-0.7,0.9-0.8,1.5c0,0.1,0,0.3,0,0.4
		c0,0.1,0,0.2,0,0.3l0,0.6l0,1.2c0,1.5,0,3,0,4.5c-2.2-0.3-4.4-0.4-6.5-0.5c-1.2,0-2.4-0.1-3.6,0l-3.6,0.1l-7.3,0.2l-7.3,0.3l-0.1,0
		l0,0.1l0,1l-1-0.1c-0.2,0-0.4,0.1-0.6,0.2c-0.2,0.1-0.3,0.3-0.4,0.5c0,0.1-0.1,0.2-0.1,0.3c0,0.1,0,0.1,0,0.1l0,0l0,0.2l0.1,0.7
		l0.1,1.5c0,0,0,0.2,0.1,0.4c0.1,0.1,0.2,0.3,0.3,0.3c0.1,0,0.1,0.1,0.2,0.1c0,0,0.1,0,0.1,0l0.1,0l0,0l0.2,0l0.7-0.1l0.1,0
		c-0.1,1.1-0.3,2.2-0.3,3.3c-0.1,1.1-0.1,2.3-0.2,3.4l0,0.5l0.5,0.1c0.7,0.1,1.4,0.2,2.1,0.4c0.7,0.1,1.4,0.2,2.1,0.3
		c1.4,0.2,2.9,0.2,4.3,0.3l0.3,0l0.1-0.2c0.3-1.1,0.6-2.1,1-3.2c0.2-0.5,0.4-1.1,0.6-1.6l0.3-0.8l0.2-0.4c0.1-0.1,0.1-0.2,0.2-0.3
		c0.3-0.4,0.7-0.7,1.1-0.9c0.2-0.1,0.5-0.1,0.7-0.1c0.1,0,0.2,0,0.4,0l0.4,0c1.1,0.1,2.2,0.1,3.4,0.1l3.4,0.1l0.4,0l0.2,0l0.2,0
		c0.2,0,0.4,0.1,0.6,0.1c0.4,0.2,0.7,0.4,0.9,0.8c0.1,0.2,0.2,0.3,0.3,0.5l0.2,0.8c0.2,0.5,0.3,1.1,0.5,1.6c0.3,1.1,0.6,2.1,1,3.2
		l0.1,0.4l0.4,0l1.4-0.1c0.5,0,1-0.1,1.4-0.1c0.5,0,0.9-0.1,1.4-0.2c0.2,0,0.4,0,0.6-0.1c0.1,0.1,0.2,0.1,0.3,0.2
		c0.2,0.1,0.5,0.2,0.7,0.2c0.2,0,0.5,0,0.7,0c1.6,0,3.2-0.1,4.8-0.1c3.2-0.1,6.4-0.2,9.6-0.2c3.2,0,6.4,0,9.6,0l0.2,0l0.1-0.2
		l1.1-3.1l0.5-1.6l0.3-0.8c0-0.1,0.1-0.3,0.1-0.4c0-0.1,0.1-0.2,0.2-0.3c0.2-0.4,0.6-0.7,1-0.9c0.2-0.1,0.4-0.2,0.6-0.2
		c0.1,0,0.2,0,0.3,0l0.4,0c1.1,0,2.2,0.1,3.3,0.1c1.1,0,2.2,0,3.3,0c0.5,0,1.2,0,1.5,0c0.2,0,0.4,0.1,0.6,0.2c0,0,0,0,0,0
		c0,0,0,0.1,0.1,0.1c0,0,0.1,0,0.1,0c0.1,0.1,0.3,0.2,0.4,0.3c0.1,0.2,0.3,0.3,0.4,0.5c0,0.1,0.1,0.2,0.1,0.3l0.1,0.4l0.5,1.6
		l0.9,3.2l0.1,0.4l0.4,0l2.1,0c0.9,0,1.7-0.8,1.9-1.7c0.2-1.4,0.5-2.7,0.7-4l0-0.2c0-0.1,0-0.3,0-0.4C79,114,78.8,113.8,78.6,113.7z
		 M76.8,111.1c0.2,0.4,0.2,0.8,0.2,1.3l0.1,1.1l-1.7,0.1c-0.3,0-0.6,0-0.9,0c0.3-0.4,0.4-0.7,0.5-1.1c0.1-0.2,0.1-0.4,0.1-0.6
		c0-0.1,0-0.1,0-0.1c0,0,0,0,0,0c0,0,0,0,0-0.1c0,0,0.1-0.1,0.1-0.1c0,0,0.1,0,0.1-0.1l0,0l0.1,0l0.2,0c0.4-0.1,0.8-0.3,1.2-0.5
		C76.8,111,76.8,111.1,76.8,111.1z M1.4,109.6C1.4,109.6,1.4,109.5,1.4,109.6C1.4,109.6,1.4,109.6,1.4,109.6L1.4,109.6z M1,112
		L1,112L1,112L1,112C1.1,112,1.1,112,1,112L1,112z M2,112L1.2,112l0,0l0.1-1.4l0.1-0.6l1.1-0.1l0.7-0.1l0.1,0l0.1,1.3l0.1,0.7l0,0.3
		c0,0,0,0.1-0.1,0L2,112z M3.3,109.6C3.3,109.6,3.3,109.6,3.3,109.6L3.3,109.6L3.3,109.6C3.3,109.6,3.3,109.6,3.3,109.6
		C3.3,109.6,3.3,109.6,3.3,109.6z M31.5,120.4c-0.5,0-0.9-0.1-1.4-0.1c-0.8-0.1-1.6-0.1-2.4-0.2c-0.2-1-0.4-1.9-0.6-2.9
		c-0.1-0.5-0.3-1.1-0.4-1.6l-0.2-0.8c-0.1-0.3-0.2-0.7-0.4-1c-0.4-0.6-1-1.1-1.6-1.4c-0.3-0.1-0.7-0.2-1-0.2l-0.3,0l-0.2,0l-0.4,0
		l-3.4,0.1c-1.1,0-2.2,0.1-3.4,0.1l-0.4,0c-0.1,0-0.3,0-0.5,0.1c-0.3,0.1-0.6,0.2-0.9,0.3c-0.6,0.3-1,0.8-1.3,1.4
		c-0.1,0.1-0.1,0.3-0.2,0.4l-0.1,0.4l-0.3,0.8c-0.2,0.5-0.4,1.1-0.5,1.6c-0.3,1-0.7,1.9-1.1,2.9c-1.3-0.3-2.6-0.6-4-0.9
		c-0.7-0.1-1.4-0.2-2.1-0.3c-0.5-0.1-1.1-0.1-1.6-0.2c0-1-0.1-1.9-0.2-2.9c-0.1-1.1-0.2-2.2-0.3-3.3l1.2-0.1c0.2,0,0.4-0.1,0.5-0.3
		c0-0.1,0.1-0.2,0.1-0.3l0-0.2l0.1-0.7l0.1-1.5l0,0c0,0,0-0.1,0-0.1c0-0.1,0-0.2-0.1-0.2c-0.1-0.1-0.2-0.3-0.3-0.4
		c-0.1-0.1-0.3-0.1-0.4-0.1l-0.2,0l-0.7-0.1l-0.3,0l0-0.9l7.2,0.3l7.3,0.2l3.6,0.1c1.2,0,2.4,0,3.6,0c2.2-0.1,4.4-0.2,6.5-0.5
		l0.1,9.6l0,0.6c0,0.2,0,0.4,0,0.6c0,0.5,0.2,1,0.5,1.4C31.3,120.2,31.4,120.3,31.5,120.4C31.6,120.5,31.5,120.4,31.5,120.4z
		 M72.7,113.4c-0.5-0.5-1.1-0.9-1.8-1c-0.3-0.1-0.7-0.1-1-0.1l-0.8,0c-1.1,0-2.2,0-3.3,0c-1.1,0-2.2,0-3.3,0.1l-0.4,0
		c-0.2,0-0.3,0-0.5,0c-0.3,0.1-0.6,0.2-0.9,0.3c-0.6,0.3-1.1,0.8-1.4,1.4c-0.1,0.1-0.1,0.3-0.2,0.4c-0.1,0.2-0.1,0.3-0.1,0.4
		l-0.2,0.8l-0.4,1.6l-0.8,3c-3.1,0.1-6.2,0.1-9.4,0c-3.2,0-6.4-0.1-9.6-0.2c-1.6,0-3.2-0.1-4.8-0.1c-0.2,0-0.3,0-0.5,0
		c-0.1,0-0.3-0.1-0.4-0.1c-0.3-0.1-0.5-0.3-0.7-0.6c-0.2-0.2-0.3-0.5-0.3-0.8c0-0.1,0-0.4,0-0.6l0-0.6l0.1-9.6c0-1.6,0-3.2,0-4.8
		l0-1.2l0-0.6c0-0.1,0-0.2,0-0.3c0-0.1,0-0.1,0-0.2c0.1-0.4,0.5-0.8,1-0.8l4.8,0l4.8-0.1l2.4,0l1.2,0c0.4,0,0.8,0,1.1,0.1
		c0.8,0.1,1.5,0.3,2.2,0.5c0.7,0.2,1.4,0.6,2.1,0.9c2.6,1.6,4.7,4.1,7.1,6.1c0,0,0,0,0,0c0,0,0,0,0.1,0.1l0,0c0,0,0.1,0,0.1,0
		c0,0,0,0,0,0c1.8,0.5,3.5,0.8,5.3,1c1.8,0.3,3.7,0.2,5.5,0.3l2.8,0.1L74,109c0.4,0,0.8,0.1,1.2,0.3c0.7,0.3,1.2,0.9,1.6,1.5
		c-0.4-0.2-0.7-0.4-1.1-0.5l-0.2,0l-0.1,0l-0.1,0c-0.2,0-0.3,0-0.5,0.1c-0.3,0.1-0.6,0.3-0.8,0.6c-0.1,0.2-0.2,0.3-0.2,0.5
		c0,0.1,0,0.2,0,0.3c0,0.1,0,0.2,0,0.2c0,0.2,0.1,0.4,0.1,0.6c0.1,0.4,0.3,0.7,0.5,1.1c-0.4,0-0.9,0-1.3,0.1
		C72.9,113.6,72.8,113.5,72.7,113.4z M78.3,114.5l-0.1,0.2c-0.3,1.3-0.6,2.7-0.9,3.9c-0.1,0.4-0.5,0.8-1,0.8l-1.5,0l-0.7-2.8
		l-0.4-1.6l-0.1-0.4c-0.1-0.2-0.1-0.3-0.2-0.5c0-0.1-0.1-0.1-0.1-0.2c0.7,0,1.4,0.1,2.2,0.1l2,0.1l0.5,0c0.2,0,0.2,0,0.3,0
		C78.2,114.3,78.3,114.4,78.3,114.5C78.3,114.5,78.3,114.5,78.3,114.5z"/>
	<path class="st8" d="M107,85c-1.2,0-2.4-0.3-3.5-0.9l2.2-10.7c0-0.2,0-0.5-0.2-0.7c-0.2-0.2-0.4-0.3-0.6-0.3H80.4V64h3.2
		c1.3,0,2.3-1,2.3-2.3c0-1.3-1-2.3-2.3-2.3H67.7c-0.2,0-0.5,0.1-0.6,0.3L55.6,72.4H48c-0.3,0-0.5,0.1-0.7,0.3
		c-0.2,0.2-0.2,0.5-0.1,0.8c1.5,4.2,4,7.6,7.5,10.1C53.5,84.5,52,85,50.4,85c-0.5,0-0.8,0.4-0.8,0.8c0,0.5,0.4,0.8,0.8,0.8
		c2.7,0,5.3-1.2,7.1-3.3c1.8,2.1,4.4,3.3,7.1,3.3c2.7,0,5.3-1.2,7.1-3.3c1.8,2.1,4.4,3.3,7.1,3.3c2.7,0,5.3-1.2,7.1-3.3
		c1.8,2.1,4.4,3.3,7.1,3.3c2.7,0,5.3-1.2,7.1-3.3c1.8,2.1,4.4,3.3,7.1,3.3c0.5,0,0.8-0.4,0.8-0.8C107.8,85.4,107.4,85,107,85z
		 M68,61h15.5c0.4,0,0.7,0.3,0.7,0.7c0,0.4-0.3,0.7-0.7,0.7h-4c-0.5,0-0.8,0.4-0.8,0.8v9.3h-1.5v-9.3c0-0.5-0.4-0.8-0.8-0.8h-7.1
		c-0.2,0-0.5,0.1-0.6,0.3l-8.9,9.9h-1.9L68,61z M75.5,64v8.5H62l7.7-8.5H75.5z M102,83.2c-0.5-0.5-1-1-1.4-1.6
		c-0.3-0.5-1.1-0.5-1.4,0c-1.5,2.2-3.9,3.4-6.4,3.4c-2.5,0-4.9-1.3-6.4-3.4c-0.3-0.5-1.1-0.5-1.4,0c-1.5,2.2-3.9,3.4-6.4,3.4
		c-2.5,0-4.9-1.3-6.4-3.4c-0.2-0.2-0.4-0.4-0.7-0.4c-0.3,0-0.5,0.1-0.7,0.4C69.4,83.7,67,85,64.5,85c-2.5,0-4.9-1.3-6.4-3.4
		c-0.3-0.5-1.1-0.5-1.4,0c-0.2,0.3-0.5,0.6-0.7,0.9c0,0,0-0.1-0.1-0.1c-1.7-1.2-3.2-2.6-4.4-4.2H103L102,83.2z M50.4,76.5
		c-0.5-0.8-0.9-1.6-1.2-2.4h54.6l-0.5,2.4H50.4z"/>
	<path class="st8" d="M3.5,40.9c0.6,0.7,1.5,1,2.4,1h17.3l-3.5,12.4c-0.1,0.3,0,0.5,0.1,0.7c0.2,0.2,0.4,0.3,0.7,0.3h3.3
		c0.3,0,0.5-0.1,0.7-0.4L33.6,42h16.8c4.6,0,6.2-2.5,6.2-4.6c0-1.1-0.4-4.6-6.2-4.6H33.2l-8.8-12.2c-0.2-0.2-0.4-0.3-0.7-0.3h-3.3
		c-0.3,0-0.5,0.1-0.7,0.3c-0.2,0.2-0.2,0.5-0.1,0.7l3,11.5H7.2L4.7,26c-0.1-0.3-0.4-0.5-0.8-0.5H0.8c-0.5,0-0.8,0.4-0.8,0.8v9.7
		c0,0.8,0.3,1.7,0.9,2.2L3.5,40.9z M21.5,21.8h1.8l7.9,10.9h-6.8L21.5,21.8z M1.7,27.1h1.7l2.5,6.7c0.1,0.3,0.4,0.5,0.8,0.5h43.8
		c2.1,0,4.6,0.5,4.6,3c0,1.8-1.8,3-4.6,3H34.7c0.1-0.3,0-0.7-0.3-0.9c-0.4-0.3-0.9-0.2-1.2,0.2l-10,14.2h-1.8l3.9-13.7
		c0.1-0.4-0.1-0.9-0.6-1c-0.4-0.1-0.9,0.1-1,0.6l-0.2,0.7H5.9c-0.5,0-0.9-0.2-1.2-0.5l-2.6-2.6c-0.3-0.3-0.4-0.7-0.4-1.1V27.1z"/>
</g>
</svg>
