<?xml version="1.0" encoding="utf-8"?>
<!-- Generator: Adobe Illustrator 18.1.0, SVG Export Plug-In . SVG Version: 6.00 Build 0)  -->
<svg version="1.1" baseProfile="tiny" id="Layer_1" xmlns="http://www.w3.org/2000/svg" xmlns:xlink="http://www.w3.org/1999/xlink"
	 x="0px" y="0px" viewBox="0 0 128 128" xml:space="preserve">
<g>
	<path fill="#A3A9AE" d="M102.2,111c0,2.6,2.1,4.8,4.8,4.8s4.8-2.1,4.8-4.8c0-2.6-2.1-4.8-4.8-4.8S102.2,108.4,102.2,111z"/>
	<path fill="#A3A9AE" d="M8.3,100.3c0.5,0,0.9,0.3,1.2,0.7l5.6,8.5l6.3-8c0.3-0.4,0.8-0.6,1.2-0.6c0.5,0,0.9,0.3,1.2,0.7l5.6,8.5
		l6.3-8c0.3-0.4,0.8-0.6,1.2-0.6c0.5,0,0.9,0.3,1.2,0.7l5.6,8.5l6.3-8c0.3-0.4,0.8-0.6,1.2-0.6c0.5,0,0.9,0.3,1.2,0.7l5.6,8.5l6.3-8
		c0.3-0.4,0.8-0.6,1.2-0.6c0.5,0,0.9,0.3,1.2,0.7l5.6,8.6l6.3-7.5c0.3-0.4,0.8-0.6,1.2-0.5c0.4,0,0.8,0.2,1,0.5l6.1,5l5.9,0.4
		c0.4-5,3.4-9.3,7.7-11.5L3,90.3c-0.2,0-0.5,0.1-0.7,0.3C2.1,90.7,2,91,2,91.3v16.1l5.1-6.5C7.3,100.5,7.8,100.3,8.3,100.3z"/>
	<path fill="#E1E1E1" d="M95,110.9c0,6.6,5.4,12,12,12c6.6,0,12-5.4,12-12c0-6.6-5.4-12-12-12C100.4,98.9,95,104.3,95,110.9z
		 M113.8,111c0,3.7-3,6.8-6.8,6.8s-6.8-3-6.8-6.8s3-6.8,6.8-6.8S113.8,107.3,113.8,111z"/>
	<path fill="#898989" d="M3,122.9h96.9c-3.8-2.3-6.5-6.4-6.8-11.1l-5.9-0.4c-0.5,0.1-1-0.1-1.3-0.5l-5.8-4.8l-6.4,7.6
		c-0.3,0.3-0.7,0.5-1.1,0.5c0,0-0.1,0-0.1,0c-0.5,0-0.9-0.3-1.2-0.7l-5.6-8.6l-6.3,8c-0.3,0.4-0.8,0.6-1.2,0.6
		c-0.5,0-0.9-0.3-1.2-0.7l-5.6-8.5l-6.3,8c-0.3,0.4-0.8,0.6-1.2,0.6c-0.5,0-0.9-0.3-1.2-0.7l-5.6-8.5l-6.3,8
		c-0.3,0.4-0.8,0.6-1.2,0.6c-0.5,0-0.9-0.3-1.2-0.7l-5.6-8.5l-6.3,8c-0.3,0.4-0.8,0.6-1.2,0.6c-0.5,0-0.9-0.3-1.2-0.7l-5.6-8.5
		L2,110.6v11.3C2,122.4,2.4,122.9,3,122.9z"/>
	<path fill="#E1E1E1" d="M123.8,36.5c0.8-0.2,1.4-0.6,1.8-1.3c0.4-0.7,0.5-1.4,0.3-2.2c-0.3-1.3-1.5-2.2-2.8-2.2
		c-0.2,0-0.5,0-0.7,0.1c-1.6,0.4-2.5,1.9-2.1,3.5C120.7,35.9,122.3,36.9,123.8,36.5z"/>
	<path fill="#A3A9AE" d="M103,17.7l6.1-2.6l-3.7-8.5c-0.5-1.1-1.5-1.8-2.7-1.8c-0.4,0-0.8,0.1-1.1,0.2l-0.8,0.3
		c-0.7,0.3-1.3,0.9-1.5,1.6c-0.3,0.7-0.3,1.5,0,2.2L103,17.7z"/>
	<path fill="#2D2D2D" d="M100.2,111c0,3.7,3,6.8,6.8,6.8s6.8-3,6.8-6.8s-3-6.8-6.8-6.8S100.2,107.3,100.2,111z M111.8,111
		c0,2.6-2.1,4.8-4.8,4.8s-4.8-2.1-4.8-4.8c0-2.6,2.1-4.8,4.8-4.8S111.8,108.4,111.8,111z"/>
	<path fill="#2D2D2D" d="M101.2,18.6c0.3,0.7,1,1.1,1.7,1.1c0.3,0,0.5-0.1,0.7-0.2l6.3-2.7c0.5-0.2,0.8-0.6,1-1c0.2-0.5,0.2-1,0-1.4
		l-3.7-8.6c-0.8-1.8-2.5-2.9-4.5-2.9c-0.7,0-1.3,0.1-1.9,0.4l-0.8,0.3c-1.2,0.5-2.1,1.5-2.6,2.7C97,7.5,97,8.8,97.5,10L101.2,18.6z
		 M99.3,7c0.3-0.7,0.8-1.3,1.5-1.6l0.8-0.3c0.4-0.2,0.8-0.2,1.1-0.2c1.2,0,2.2,0.7,2.7,1.8l3.7,8.5l-6.1,2.6l-3.7-8.5
		C99,8.5,99,7.7,99.3,7z"/>
	<path fill="#2D2D2D" d="M3,124.9h104c7.7,0,14-6.3,14-14c0-6.9-5.1-12.7-11.7-13.8c15.2-23.2,9.1-51.3,6.8-59.4
		c-0.4-1.3-0.8-2.7-1.3-4l3.5,0.6c0,0.2,0,0.3,0.1,0.5c0.5,2.2,2.5,3.7,4.7,3.7c0.4,0,0.8,0,1.1-0.1c1.3-0.3,2.3-1.1,3-2.2
		c0.7-1.1,0.9-2.4,0.6-3.7c-0.5-2.2-2.5-3.7-4.7-3.7c-0.4,0-0.8,0-1.1,0.1c-1.8,0.4-3,1.7-3.5,3.4l-4.4-0.8
		c-0.7-1.8-1.4-3.5-2.2-5.2l1.6-0.7c0.5-0.2,0.7-0.8,0.5-1.3c-0.2-0.5-0.8-0.7-1.3-0.5l-5.4,2.3c-0.5,0.2-0.7,0.8-0.5,1.3
		c0.2,0.4,0.5,0.6,0.9,0.6c0.1,0,0.3,0,0.4-0.1l1.9-0.8c0.6,1.3,1.2,2.7,1.7,4c-39.5-7.3-73.4,1.5-88.7,23.3l-0.3,0.4
		c-7,9.8-9.8,19.7-8.4,29.4c0.3,1.7,0.6,3.5,1.1,5.2l-12.4-1c-0.8,0-1.6,0.3-2.2,0.8C0.3,89.7,0,90.5,0,91.3v30.6
		C0,123.5,1.3,124.9,3,124.9z M122.5,30.9c0.2-0.1,0.5-0.1,0.7-0.1c1.3,0,2.5,0.9,2.8,2.2c0.2,0.7,0.1,1.5-0.3,2.2
		c-0.4,0.7-1,1.1-1.8,1.3c-1.5,0.4-3.1-0.6-3.5-2.1C119.9,32.8,120.9,31.3,122.5,30.9z M119,110.9c0,6.6-5.4,12-12,12
		c-6.6,0-12-5.4-12-12c0-6.6,5.4-12,12-12C113.6,98.9,119,104.3,119,110.9z M24.5,55.9l0.3-0.4c15-21.3,48.6-29.8,87.9-22.2
		c0.6,1.6,1.1,3.3,1.6,4.9c2.2,8,8.3,36-7.1,58.7l-89.5-7.4c-0.5-1.9-1-3.7-1.2-5.6C15.1,74.7,17.8,65.3,24.5,55.9z M2,91.3
		c0-0.3,0.1-0.5,0.3-0.7c0.2-0.2,0.5-0.3,0.7-0.3l97.8,8.1c-4.3,2.1-7.4,6.4-7.7,11.5l-5.9-0.4l-6.1-5c-0.3-0.3-0.6-0.5-1-0.5
		c-0.5,0-0.9,0.2-1.2,0.5l-6.3,7.5l-5.6-8.6c-0.3-0.4-0.7-0.6-1.2-0.7c-0.5,0-0.9,0.2-1.2,0.6l-6.3,8l-5.6-8.5
		c-0.3-0.4-0.7-0.6-1.2-0.7c-0.5,0-0.9,0.2-1.2,0.6l-6.3,8l-5.6-8.5c-0.3-0.4-0.7-0.6-1.2-0.7c-0.5,0-0.9,0.2-1.2,0.6l-6.3,8
		l-5.6-8.5c-0.3-0.4-0.7-0.6-1.2-0.7c-0.5,0-0.9,0.2-1.2,0.6l-6.3,8L9.5,101c-0.3-0.4-0.7-0.6-1.2-0.7c-0.5,0-0.9,0.2-1.2,0.6
		L2,107.4V91.3z M2,110.6l6.2-7.9l5.6,8.5c0.3,0.4,0.7,0.6,1.2,0.7c0.5,0,0.9-0.2,1.2-0.6l6.3-8l5.6,8.5c0.3,0.4,0.7,0.6,1.2,0.7
		c0.5,0,0.9-0.2,1.2-0.6l6.3-8l5.6,8.5c0.3,0.4,0.7,0.6,1.2,0.7c0.5,0,0.9-0.2,1.2-0.6l6.3-8l5.6,8.5c0.3,0.4,0.7,0.6,1.2,0.7
		c0.5,0,0.9-0.2,1.2-0.6l6.3-8l5.6,8.6c0.3,0.4,0.7,0.6,1.2,0.7c0,0,0.1,0,0.1,0c0.4,0,0.9-0.2,1.1-0.5l6.4-7.6l5.8,4.8
		c0.3,0.4,0.8,0.6,1.3,0.5l5.9,0.4c0.3,4.7,3,8.8,6.8,11.1H3c-0.6,0-1-0.5-1-1V110.6z"/>
	<path fill="#2D2D2D" d="M106,23c-0.5,0.2-0.7,0.8-0.5,1.3c0.2,0.4,0.5,0.6,0.9,0.6c0.1,0,0.3,0,0.4-0.1l5.4-2.3
		c0.5-0.2,0.7-0.8,0.5-1.3c-0.2-0.5-0.8-0.7-1.3-0.5L106,23z"/>
	<path fill="#2D2D2D" d="M110.2,17.8l-5.4,2.3c-0.5,0.2-0.7,0.8-0.5,1.3c0.2,0.4,0.5,0.6,0.9,0.6c0.1,0,0.3,0,0.4-0.1l5.4-2.3
		c0.5-0.2,0.7-0.8,0.5-1.3C111.3,17.8,110.7,17.6,110.2,17.8z"/>
</g>
</svg>
