<?xml version="1.0" encoding="utf-8"?>
<!-- Generator: Adobe Illustrator 23.0.0, SVG Export Plug-In . SVG Version: 6.00 Build 0)  -->
<svg version="1.1" id="Layer_1" xmlns="http://www.w3.org/2000/svg" xmlns:xlink="http://www.w3.org/1999/xlink" x="0px" y="0px"
	 viewBox="0 0 128 128" style="enable-background:new 0 0 128 128;" xml:space="preserve">
<style type="text/css">
	.st0{fill:#BAA78C;}
	.st1{fill:#6B624D;}
	.st2{fill:#756B57;}
	.st3{fill:#D3B48C;}
	.st4{fill:#2D2D2D;}
	.st5{fill:#5E5646;}
	.st6{fill:#DDCAB3;}
	.st7{fill:#3F3A31;}
</style>
<g>
	<path class="st0" d="M94.7,81.3c0.1-0.2,0.1-0.4,0.2-0.7c0.1-0.3,0.2-0.7,0.4-1c0.3-0.7,0.7-1.4,1.2-2c0.2-0.3,0.3-0.7,0.3-1.1
		c-0.1-0.3-0.4-0.4-0.6-0.7c-0.3-0.4-0.7-0.7-1.1-1.2c0,0.9-0.1,1.7-0.2,2.6c-0.1,1-0.3,2-0.3,3.1C94.6,80.6,94.7,81,94.7,81.3z"/>
	<path class="st1" d="M62.8,84.8c0.9-0.2,1.8-0.4,2.6-0.5c0.4-0.1,0.8-0.1,1.1-0.2c0,0,0,0,0,0c-0.1-0.2,0-0.4,0-0.6
		c0-0.2,0.1-0.4,0.1-0.6c0-0.2-0.1-0.5-0.1-0.7c-1.5,0.1-3,0.3-4.5,0.4c0.1,0.2,0.3,0.4,0.4,0.6C62.6,83.7,62.9,84.2,62.8,84.8z"/>
	<path class="st1" d="M56.7,85.8c-0.1,0.3-0.2,0.6-0.4,0.8c1.2-0.5,2.5-0.9,3.7-1.2l1-0.3c-0.1-0.2-0.1-0.3-0.2-0.5
		c-0.1-0.2,0-0.4,0-0.6c0-0.2,0.1-0.4,0.1-0.6c0-0.3-0.1-0.6-0.2-0.9c-0.2,0-0.4,0-0.6,0c-1.5,0.1-3,0.3-4.6,0.4
		c0.3,0.3,0.6,0.7,0.7,1.1C56.6,84.7,56.9,85.3,56.7,85.8z"/>
	<path class="st1" d="M45.1,87.2c0.3,0.7,0.6,1.5,0.4,2.2c-0.1,0.3-0.2,0.6-0.3,0.9c0.5-0.2,1.1-0.3,1.6-0.5l1.3-0.4
		c0.4-0.1,0.9-0.3,1.3-0.4c0.3-0.1,0.6-0.2,0.9-0.3c-0.2-0.3-0.3-0.5-0.4-0.8c-0.1-0.3-0.2-0.5-0.2-0.8c-0.1-0.2,0-0.5,0-0.7
		l0.1-0.4c0-0.1,0-0.2,0-0.4c-0.1-0.5-0.2-1-0.4-1.4c-0.1-0.2-0.2-0.3-0.3-0.5c-1.4,0.2-2.9,0.4-4.3,0.7c-0.6,0.1-1.2,0.2-1.8,0.3
		c0.2,0.1,0.5,0.3,0.7,0.5C44.4,85.9,44.8,86.5,45.1,87.2z"/>
	<path class="st1" d="M93.6,118.5L93.6,118.5C93.5,118.5,93.5,118.5,93.6,118.5c0-0.1,0-0.1,0-0.1c0.4-0.2,0.9-0.2,1.3-0.3
		c-0.1,0-0.2,0-0.2-0.1c0,0-0.1,0,0-0.1c0,0,0,0,0,0c0.6-0.3,1.3-0.4,1.9-0.4c-0.3,0-0.7-0.1-1-0.2c0,0-0.1,0-0.1-0.1c0,0,0,0,0,0
		c0.3-0.2,0.5-0.3,0.8-0.5l-1.1,0l-1.1-0.1l-0.5,0l-0.1,0c0,0-0.2,0-0.3,0c-0.2,0-0.3-0.1-0.5-0.2c-0.5-0.3-0.7-0.7-0.9-1.1
		c-0.2-0.4-0.4-0.7-0.5-1.1c-0.1-0.4-0.3-0.7-0.4-1c-0.1-0.4-0.3-0.7-0.5-1.1l0,0l0,0c-0.1-0.5-0.3-1-0.6-1.4
		c-0.3-0.4-0.6-0.9-0.8-1.4c-0.3-0.7-0.5-1.5-0.6-2.3c-0.5,0.2-1.1,0.4-1.6,0.5c-0.8,0.1-1.6,0.2-2.4,0.1c0.3,0.6,0.5,1.2,0.8,1.7
		c0.4,0.7,0.8,1.4,1.2,2.1c0.4,0.7,0.7,1.4,1.1,2.2c0.3,0.7,0.6,1.4,0.9,2.1c0.2,0.3,0.3,0.5,0.5,0.8c0.1,0.2,0.1,0.2,0.2,0.3
		c0.1,0.1,0.1,0.2,0.2,0.3c0.3,0.3,0.8,0.6,1.3,0.7c0.7,0.1,1.4,0.3,2.1,0.5C92.9,118.3,93.3,118.4,93.6,118.5
		c0,0.1,0.1,0.1,0.1,0.1C93.7,118.6,93.6,118.5,93.6,118.5z"/>
	<path class="st1" d="M68.5,83.9c2.1-0.2,4.1-0.3,6.2-0.2c0,0,0-0.1-0.1-0.1c-0.1-0.2-0.2-0.3-0.2-0.5c-0.1-0.1,0-0.3,0-0.4
		c0.1-0.1,0.1-0.3,0.1-0.4c0-0.2,0-0.5-0.1-0.8c-2.2,0.2-4.4,0.4-6.5,0.6c0.1,0.1,0.2,0.3,0.2,0.4C68.3,82.9,68.5,83.4,68.5,83.9z"
		/>
	<path class="st1" d="M37.7,88.4c0.3,0.4,0.6,0.8,0.8,1.2c0.2,0.4,0.5,0.9,0.7,1.3c0.2,0.5,0.2,1,0.2,1.4c0,0.3-0.1,0.5-0.3,0.8
		c0.1,0,0.1-0.1,0.2-0.1c0.8-0.5,1.6-0.9,2.5-1.3c0.7-0.4,1.5-0.7,2.3-1c0-0.1-0.1-0.3-0.1-0.4c-0.1-0.3-0.2-0.6-0.2-0.9
		c-0.1-0.3,0-0.6,0-0.9l0-0.4c0-0.1,0-0.3,0-0.4c-0.1-0.6-0.2-1.2-0.5-1.7c-0.2-0.4-0.4-0.7-0.7-1c-0.8,0.2-1.7,0.3-2.5,0.5
		c-1.6,0.3-3.2,0.7-4.8,1.1c0.6,0.2,1.1,0.4,1.6,0.8C37,87.7,37.3,88,37.7,88.4z"/>
	<path class="st1" d="M76.3,83.2c0,0.1-0.1,0.2-0.2,0.3c1.3-0.8,2.6-1.7,4-2.5c-1.5,0.2-3,0.3-4.4,0.4c0.1,0.1,0.2,0.3,0.3,0.5
		C76.2,82.3,76.5,82.7,76.3,83.2z"/>
	<path class="st1" d="M51.4,85.4c0.3,0.6,0.6,1.3,0.4,1.9c-0.1,0.5-0.3,0.9-0.6,1.3c0.3-0.1,0.7-0.2,1-0.4c0.9-0.3,1.7-0.6,2.6-1
		c0.2-0.1,0.4-0.2,0.6-0.2c-0.2-0.2-0.3-0.4-0.3-0.6c-0.1-0.2-0.2-0.4-0.2-0.6c-0.1-0.2,0-0.4,0-0.6c0-0.2,0.1-0.4,0.1-0.6
		c0-0.4-0.1-0.8-0.3-1.1c0-0.1-0.1-0.2-0.1-0.3c-1.4,0.1-2.9,0.3-4.3,0.5c0,0,0,0,0.1,0C50.8,84.2,51.1,84.8,51.4,85.4z"/>
	<path class="st1" d="M29.8,90.9c0.3,0.3,0.6,0.6,0.9,1c0.3,0.3,0.6,0.7,0.8,1.1c0.2,0.4,0.4,0.8,0.4,1.3c0,0.8-0.3,1.5-0.9,2.2
		c1.3-0.2,2.7-0.3,4.1-0.5c0.6-0.5,1.3-1,1.9-1.5c-0.2-0.4-0.4-0.7-0.5-1c-0.2-0.4-0.3-0.7-0.4-1.1c-0.1-0.3-0.1-0.6-0.1-1
		c0.1-0.3,0.1-0.7,0.1-1c-0.1-0.3-0.1-0.7-0.2-1c-0.1-0.3-0.2-0.7-0.4-1c-0.3-0.6-0.7-1.1-1.3-1.6c-1.4,0.4-2.9,0.9-4.3,1.4
		c-1,0.4-1.9,0.8-2.9,1.2c0.6,0.1,1.2,0.4,1.7,0.7C29.1,90.4,29.5,90.6,29.8,90.9z"/>
	<path class="st0" d="M108.1,85.6c-0.3-0.1-0.6-0.2-1-0.2c-0.6-0.1-1.1-0.1-1.7-0.2c-1.1-0.2-2.1-0.6-3.2-0.8
		c-1.1-0.2-2.2-0.4-3.3-0.4c-1,0-1.4,0.3-2,0.5c-0.3,0.1-0.4,0.4-0.2,0.6c0.8,1.2,1.5,2,2.5,3c1.2,1.3,2.6,2.3,4.3,2.9
		c0.1,0,0.3-0.1,0.4-0.1c1.4-1.3,3.6-3.9,4.4-4.7C108.3,85.9,108.3,85.6,108.1,85.6z"/>
	<path class="st1" d="M127.1,70c-0.2-0.4-0.4-0.7-0.7-1c-1.9-0.7-3.9-1-5.9-1.3c-2-0.2-4.1-0.3-6.2-0.3c-2.1,0-4.1,0.2-6.1,0.4
		c-0.5,0.1-1,0.1-1.5,0.2l-1.6,0.3c-1,0.2-2,0.3-3,0.6c-0.9,0.3-1.9,0.6-2.8,1c-1,0.4-1.9,0.8-2.9,1.2c-0.4,0.2-0.8,0.4-1.2,0.6
		c0,0.8-0.1,1.6-0.1,2.4c0.3,0,0.6,0.1,0.9,0.3c0.4,0.2,0.8,0.4,1.1,0.8c0.3,0.4,0.4,1,0.3,1.5C97.1,77,97,77.3,97,77.8
		c0,0.8-0.1,1.7-0.4,2.4c-0.2,0.4-0.4,0.7-0.7,1c-0.2,0.2-0.3,0.3-0.5,0.4c-0.1,0.1-0.3,0.1-0.4,0.2c0.1,0.5,0.3,0.9,0.6,1.4
		c0.2,0.3,0.3,0.5,0.5,0.8l0.4-0.1c0.3-0.1,0.5-0.2,0.8-0.2c0.6-0.1,1.1-0.2,1.7-0.3c1.1-0.1,2.3-0.1,3.5,0c0.6,0,1.1,0.1,1.7,0.2
		c0.6,0.1,1.1,0.2,1.7,0.4c0.9,0.3,1.8,0.7,2.6,1.1c0.3,0.2,0.7,0.1,0.9-0.2c0.6-0.7,1.1-1.3,1.8-2c0.4-0.4,0.8-0.9,1.4-1.3
		c0.6-0.4,1.1-0.7,1.6-1l6.2-3.5c1-0.6,2-1.2,3-1.8c1-0.6,1.9-1.3,2.7-2.1l-0.1,0.1c0.3-0.4,0.6-0.8,0.8-1.1
		c0.2-0.3,0.4-0.7,0.5-1.1c0,0,0-0.1,0-0.1c-0.1,0.3-0.2,0.6-0.4,0.8c-0.4,0.5-0.9,0.9-1.4,1.3c-1.1,0.7-2.2,1.3-3.3,1.9
		c-1.2,0.5-2.3,1-3.5,1.4l-0.9,0.3c-0.3,0.1-0.6,0.2-0.9,0.3c-0.6,0.2-1.2,0.3-1.8,0.5c-1.2,0.3-2.5,0.5-3.8,0.7
		c-0.6,0.1-1.3,0.2-1.9,0.2c-0.6,0-1.3,0.1-1.9,0.1c-2.4,0.2-4.7,1.1-7.1,2.1c2-1.5,4.3-2.8,7-3.2c0.7-0.1,1.2-0.1,1.9-0.2
		c0.6-0.1,1.2-0.2,1.8-0.3c1.2-0.2,2.4-0.5,3.7-0.8c0.6-0.1,1.2-0.3,1.8-0.5l0.9-0.3l0.9-0.3c1.2-0.4,2.4-0.8,3.5-1.2
		c1.2-0.4,2.3-0.9,3.4-1.5c0.5-0.3,1.1-0.6,1.5-1.1C126.9,71.2,127.3,70.6,127.1,70c0,0.1,0.1,0.2,0.1,0.4
		C127.2,70.3,127.1,70.1,127.1,70z M110.9,72.5c-0.3,0.5-1,1.5-1.9,1.6c-0.9,0.2-1.9-0.5-2.4-0.8c-0.2-0.1-0.2-0.3-0.1-0.5
		c0.3-0.4,1-1.2,1.9-1.3c0.9-0.2,1.8,0.3,2.3,0.5C110.9,72.1,111,72.3,110.9,72.5z M123.6,71.1c-0.4-0.5,0-1-0.3-1.3
		c-0.3-0.3-0.8-0.2-0.8-0.5c0-0.2,2.3-0.3,2.4,0.8S124,71.6,123.6,71.1z"/>
	<path class="st2" d="M98.1,88.9c-1.5-1.6-2.6-3.5-3.3-5.5c-0.4-1-0.6-2.1-0.7-3.1c-0.2-1-0.4-2.1-0.4-3.2c0-1.1,0.1-2.1,0.3-3.2
		c0.1-0.5,0.2-1,0.4-1.5c0.1-0.2,0.1-0.4,0.2-0.5c-1.3,0.6-2.6,1.3-3.9,2c-0.9,0.5-1.8,1-2.7,1.6c-0.3,0.4-0.5,0.9-0.6,1.4
		c-0.2,0.8-0.2,1.5,0.1,2.2c0.3,0.7,0.8,1.3,1.4,1.8l0.5,0.4c0.2,0.2,0.4,0.4,0.5,0.6c0.3,0.4,0.5,0.9,0.7,1.3
		c0.3,0.9,0.3,1.9,0.3,2.7c0,0.9,0.1,1.7,0.2,2.5c0.3,1.7,1,3.3,1.9,4.7c0,0,0,0.1,0,0.1c0,0-0.1,0-0.1,0c-1.1-1.3-2-2.9-2.5-4.7
		c-0.2-0.9-0.3-1.8-0.4-2.6c-0.1-0.9-0.2-1.7-0.5-2.4c-0.1-0.3-0.3-0.6-0.6-0.9c-0.1-0.1-0.3-0.3-0.4-0.4l-0.5-0.4
		c-0.7-0.6-1.3-1.4-1.6-2.4c-0.3-1-0.2-2,0.2-2.9c0-0.1,0.1-0.2,0.2-0.3c-2.1,1.4-4.1,3.1-5.9,4.9c0.2,0.4,0.6,0.8,0.9,1.2l1.1,1.3
		c0.4,0.5,0.7,0.9,1,1.4c0.3,0.5,0.6,1.1,0.9,1.6c0.5,1.1,1,2.2,1.4,3.3c0.2,0.6,0.3,1.1,0.5,1.7c0.1,0.3,0.1,0.6,0.2,0.9
		c0,0.1,0,0.3,0.1,0.4c0,0.1,0,0.2,0,0.2c0,0.1,0,0.1-0.1,0.3c0,0-0.1,0-0.1,0c0,0,0,0,0-0.1l0,0c0-0.1,0-0.2-0.1-0.4
		c0-0.1-0.1-0.3-0.1-0.4c-0.1-0.3-0.2-0.5-0.3-0.8c-0.2-0.5-0.4-1.1-0.7-1.6c-0.5-1.1-1-2.1-1.6-3c-0.6-1-1.4-1.7-2.1-2.8
		c-0.3-0.5-0.6-1-0.8-1.6c-0.1-0.3-0.2-0.6-0.3-0.9c0-0.2-0.1-0.3-0.1-0.5c-1.9,1.4-3.9,2.9-5.9,4.3c-2,1.4-4.1,2.7-6.3,4
		c-2.2,1.2-4.4,2.3-6.7,3.2c-2.3,1-4.6,1.8-7.1,2.4c-2.4,0.7-4.9,1.1-7.3,1.4c-0.6,0.1-1.3,0.1-1.9,0.2c-0.7,0-1.3,0-1.9,0l-3.7,0
		c-4.9,0-9.8,0.1-14.7,0.5c-0.1,0-0.1,0-0.1-0.1c0,0,0-0.1,0.1-0.1c1.6-0.3,3.2-0.6,4.8-0.9c-0.3-0.3-0.5-0.6-0.7-0.8
		c-0.3-0.3-0.4-0.6-0.6-0.9c-0.1-0.3-0.2-0.5-0.2-0.8c0-0.3,0-0.6-0.1-0.9c-0.1-0.3-0.2-0.6-0.3-0.9c-0.1-0.3-0.3-0.6-0.5-0.9
		c-0.3-0.5-0.8-1.1-1.3-1.6c-2,0.9-3.9,1.9-5.7,3c-1.5,0.8-2.9,1.7-4.3,2.7c-0.7,0.5-1.3,1-2,1.5c-0.6,0.5-1.2,1.1-1.7,1.7
		c-0.2,0.3-0.5,0.6-0.7,1c-0.2,0.3-0.3,0.6-0.4,1c-0.2,0.8-0.3,1.6-0.3,2.4c0,1.4,0.6,2.8,1.6,3.8c1.3-0.8,2.7-1.4,4.2-1.8
		c0,0,0.1,0,0.1,0c0,0,0,0.1,0,0.1l0,0c-1.8,1.1-3.6,2.2-5.2,3.5c-1.6,1.3-3,2.8-4.1,4.6c-0.3,0.4-0.5,0.9-0.7,1.4l-0.2,0.7
		c-0.1,0.2-0.2,0.5-0.2,0.7c-0.2,1-0.2,2.1,0.1,3c0.3,1,1,1.8,1.9,2.3c0.9,0.5,1.9,0.8,2.8,0.9l0,0l0.1,0c0.8,0.3,1.7,0.5,2.6,0.7
		c0.9,0.2,1.8,0.3,2.6,0.3c1.8,0,3.5-0.3,5.2-0.9c1.5-0.5,2.8-1.9,3.3-3.5c0.3-0.8,0.3-1.7,0.2-2.6c-0.1-0.9-0.2-1.8-0.5-2.7l0,0
		c0,0,0-0.1,0-0.1c0,0,0.1,0,0.1,0c0.3,0.4,0.4,0.9,0.6,1.3c0.2,0.4,0.3,0.9,0.4,1.3c0.2,0.8,0.3,1.6,0.2,2.5
		c4.3,0.5,8.5,0.9,12.8,1.1c2.2,0.1,4.3,0.3,6.5,0.4c2.2,0,4.4-0.2,6.5-0.7c2.1-0.5,4.2-1.2,6.2-1.9c2.1-0.6,4.1-1.4,6.1-2.1
		c2-0.7,4.1-1.4,6.1-2.1c1.8-0.6,3.5-1.2,5.3-1.8c0,0,0-0.1-0.1-0.1c-0.6-1.1-1-2.2-1.2-3.3c-0.2-1-0.4-2.1-0.4-3.2
		c-3.6,1.5-7.4,2.7-11.1,3.9c-1.9,0.6-3.9,1.1-5.8,1.6c-1,0.3-2,0.5-2.9,0.8c-0.5,0.1-1,0.2-1.5,0.4l-1.5,0.3c-2,0.3-4,0.5-6.1,0.6
		c-2,0.2-4,0.4-6.1,0.4c-2,0-4.1-0.1-6.1-0.3c-2-0.2-4-0.5-6-1c0,0-0.1,0,0-0.1c0,0,0,0,0.1,0c2,0,4,0.1,6.1,0.2c2,0.1,4,0.1,6,0.3
		c1,0.1,2,0.1,3,0.2c1,0.1,2,0.1,3,0c2-0.1,4-0.4,5.9-0.9c3.8-1.2,7.7-2.5,11.5-3.7c3.8-1.1,7.6-2,11.5-2.8c0,0,0-0.1,0-0.1
		c0-0.6,0.1-1.2,0.3-1.8c0.2-0.6,0.5-1.2,1-1.6l0.1,0c0.9-0.6,1.8-1.2,2.8-1.7c1-0.5,2-0.8,3.1-1.1c1.1-0.3,2.1-0.5,3.2-0.6
		c1.1-0.1,2.2-0.2,3.3,0c0.1,0,0.1,0.1,0.1,0.1c0,0,0,0.1-0.1,0.1l-3,1c-1,0.3-2,0.7-3,1l-2.9,1c-1,0.3-2,0.6-3,1
		c-0.8,0.5-1.3,1.5-1.3,2.6c0,1.1,0.2,2.2,0.7,3.2c0.4,1,1,1.9,1.7,2.8c0.3,0.4,0.6,0.9,1,1.3l1.1,1.3c0.7,0.9,1.4,1.7,2.1,2.7
		c0.3,0.5,0.8,1.1,0.8,1.9l0.3,1.7l0.1,0.8c0,0.2,0.1,0.5,0.1,0.6c0,0,0.1,0.1,0.1,0.1c0.1,0.1,0.2,0.2,0.3,0.3
		c0.2,0.2,0.4,0.4,0.6,0.5c0.4,0.4,0.9,0.6,1.4,0.9c0.2-0.5,1-1,1.9-0.8c0.6,0.1,0.8,0.1,1.1,0.1c0.1,0,0.3-0.1,0.4-0.1
		c0.2,0,0.3-0.1,0.6-0.1c0.9-0.2,1.2,0,1.6-0.4c0.4-0.4,0.4-0.5,0.2-1.2c-0.1-0.4,0-0.7,0.1-0.9l-0.8,0c-0.9,0-1.8-0.3-2.5-0.8
		c-0.2-0.1-0.3-0.3-0.5-0.5c-0.1-0.2-0.3-0.4-0.4-0.5c-0.2-0.3-0.4-0.6-0.6-0.9l-0.1-0.1l0-0.1l-0.8-2.3c-0.3-0.8-0.5-1.5-0.7-2.3
		c-0.2-0.8-0.4-1.6-0.6-2.4c-0.2-0.8-0.5-1.5-0.9-2.2l-0.2-0.5l0.6,0.1c0.9,0.1,1.7-0.3,2.5-0.7c0.4-0.2,0.8-0.4,1.1-0.6l1.1-0.6
		l0.1,0c0.3-0.1,0.6-0.4,0.9-0.7c0.3-0.3,2.5-1.9,3.2-4l0-0.2l0.3-0.2c0,0,0,0,0.1,0c-0.2-0.4-0.4-0.7-0.6-1c-0.3-0.4-0.4-1-0.7-1.4
		c-0.3-0.5-0.6-0.9-1-1.4c-0.4-0.4-0.8-0.8-1.2-1.2c0,0,0-0.1,0-0.1c0,0,0,0,0.1,0c0.6,0.2,1.1,0.5,1.6,0.8c0.5,0.3,1,0.8,1.4,1.2
		c0.4,0.5,0.9,0.9,1.1,1.5c0.1,0.3,0.1,0.6,0.1,0.9c0,0,0.1-0.1,0.1-0.1c0.3-0.3,0.5-0.7,0.7-1c0.2-0.4,0.4-0.7,0.6-1.1
		c0.1-0.2,0.2-0.4,0.2-0.5c0.1-0.2,0.1-0.3,0.1-0.3l0.8-0.9c0.3,0,0.6-0.1,0.9-0.2c0.2-0.1,0.4-0.3,0.6-0.5c0.2-0.2,0.4-0.5,0.7-0.9
		l0.4-0.5c0.1-0.1,0.1-0.2,0.2-0.3l0.3-0.3c0.7-0.6,1.5-0.9,2.3-1.2c0.2-0.1,0.5-0.1,0.7-0.2c-0.5-0.1-0.9-0.2-1.4-0.4
		C99.9,90.4,98.9,89.7,98.1,88.9z"/>
	<path class="st3" d="M82.7,120.9C82.7,120.9,82.7,121,82.7,120.9C82.6,120.8,82.7,120.9,82.7,120.9z"/>
	<path class="st4" d="M8.4,121.9c-0.2,0-0.4,0-0.6,0c-0.5,0-1,0.3-1.5,0.4c-0.5,0.1-1,0.2-1.5,0.3c-0.5,0.1-1,0.1-1.6,0.1l0,0
		c0,0,0,0-0.1,0c0,0,0,0.1,0,0.1c0.5,0.2,1.1,0.3,1.6,0.4c0.5,0.1,1.1,0.1,1.6,0.1c0.5,0,1.1,0.1,1.7-0.2c0.4-0.2,0.8-0.4,1.1-0.7
		C8.9,122.3,8.7,122.1,8.4,121.9C8.4,121.9,8.4,121.9,8.4,121.9z"/>
	<path class="st4" d="M13,124c-0.7,0.2-1.2,0.7-1.8,1.1c-0.6,0.4-1.1,0.8-1.6,1.3c-0.5,0.5-1,1-1.4,1.5c0,0,0,0.1,0,0.1
		c0,0,0.1,0,0.1,0l0,0c0.5-0.4,1.1-0.8,1.7-1.1c0.6-0.3,1.2-0.6,1.7-0.9c0.6-0.3,1.2-0.4,1.8-0.8c0.4-0.2,0.8-0.5,1.1-0.8
		c-0.5-0.1-1-0.2-1.5-0.4C13.1,124,13.1,124,13,124z"/>
	<path class="st4" d="M15.7,124.5c-0.1,0.1-0.1,0.2-0.2,0.3c-0.3,0.4-0.6,0.8-0.7,1.3c-0.1,0.5-0.2,0.9-0.1,1.4c0,0,0,0,0,0.1
		c0,0,0.1,0,0.1,0l0,0c0.1-0.4,0.3-0.8,0.6-1.1c0.2-0.3,0.5-0.6,0.8-0.8c0.3-0.2,0.7-0.3,1-0.6c0.1-0.1,0.2-0.2,0.3-0.3
		c-0.2,0-0.4,0-0.6,0C16.5,124.6,16.1,124.6,15.7,124.5z"/>
	<path class="st4" d="M18.7,124.8c-0.1,0.2-0.3,0.3-0.4,0.5c-0.2,0.2-0.3,0.3-0.5,0.5l0,0c0,0,0,0,0,0c0,0,0,0.1,0.1,0.1
		c0.3,0,0.5,0,0.8,0c0.3,0,0.5-0.1,0.8-0.3c0.2-0.1,0.6-0.3,0.7-0.6c0.1-0.2,0.1-0.4,0-0.6c-0.4,0.1-0.8,0.1-1.2,0.1
		C18.8,124.7,18.7,124.8,18.7,124.8z"/>
	<path class="st4" d="M11,123.1c-0.7,0-1.3,0.1-1.9,0.3c-1.1,0.2-2.1,0.7-3.1,1.2c-2,0.8-4,1.8-5.9,2.8c0,0,0,0,0,0.1
		c0,0,0,0.1,0.1,0c1-0.3,2.1-0.7,3.1-1c1-0.3,2.1-0.7,3.1-1c1-0.3,2.1-0.5,3.1-0.9c0.9-0.3,1.7-0.7,2.6-1.1
		c-0.2-0.1-0.4-0.2-0.6-0.3C11.2,123.2,11.1,123.2,11,123.1z"/>
	<path class="st4" d="M93.7,118.6c0,0-0.1,0-0.1,0c0.4,0.2,0.7,0.3,1,0.6c0,0,0.1,0.1,0,0.1c0,0-0.1,0-0.1,0l0,0c-0.3,0-0.7,0-1,0
		c0,0.1,0,0.2-0.1,0.3c-0.2,0.5-0.1,0.7,0,1c0.2,0,0.4,0,0.6,0c0.3,0,0.6-0.1,0.9-0.1c0.6,0,1.2,0.1,1.7,0.2
		c0.6,0.1,1.2,0.3,1.7,0.7l0,0c0,0,0.1,0,0.1,0c0,0,0.1-0.1,0-0.1c-0.4-0.6-0.9-1-1.4-1.4c-0.1-0.1-0.2-0.1-0.3-0.2
		c-0.3-0.1-0.5-0.1-0.8-0.2C95.2,119.1,94.5,118.9,93.7,118.6z"/>
	<path class="st4" d="M90.8,122.8c-0.1,0-0.1,0-0.2,0c0.1,0.1,0.1,0.1,0.2,0.2c0.2,0.3,0.5,0.5,0.7,0.7c0.3,0.2,0.5,0.3,0.8,0.4
		c0.3,0.1,0.6,0.2,0.9,0.3c0.6,0.3,1.1,0.6,1.7,0.9c0.6,0.3,1.1,0.7,1.6,1.1l0,0c0,0,0.1,0,0.1,0c0,0,0.1-0.1,0-0.1
		c-0.3-0.6-0.7-1.2-1.1-1.7c-0.4-0.5-0.9-1-1.5-1.5c-0.5-0.4-1-1-1.7-1.2c-0.1,0-0.1,0-0.2,0C91.9,122.4,92.3,122.5,90.8,122.8z"/>
	<path class="st4" d="M88.2,122.9c-0.1,0-0.2,0.1-0.3,0.1c0,0.1,0.1,0.1,0.1,0.2c0.1,0.2,0.2,0.4,0.4,0.5c0.1,0.1,0.3,0.2,0.4,0.3
		c0.2,0,0.4,0.1,0.5,0.2c0.3,0.2,0.6,0.4,0.8,0.7c0.3,0.3,0.5,0.6,0.6,1l0,0c0,0,0,0,0.1,0.1c0.1,0,0.1,0,0.1-0.1
		c0.2-0.4,0.2-0.9,0.1-1.4c-0.1-0.5-0.3-1-0.6-1.4c-0.1-0.1-0.1-0.2-0.2-0.3C89,122.9,89.7,122.4,88.2,122.9z"/>
	<path class="st4" d="M88.6,122c-0.1,0-0.3,0-0.4,0.1C88.4,122.1,88.5,122,88.6,122z"/>
	<path class="st4" d="M86.2,123.7c-0.1,0-0.2-0.1-0.3-0.1c-0.2,0-0.4,0-0.5,0c0.1,0.4,0.5,0.5,0.8,0.6c0.3,0.1,0.6,0.2,0.9,0.2
		c0.3,0,0.6,0,0.9-0.1c0,0,0,0,0,0c0,0,0.1-0.1,0-0.2l0,0c-0.2-0.2-0.3-0.4-0.5-0.6c0-0.1-0.1-0.1-0.1-0.2
		C86.7,123.7,86.7,123.9,86.2,123.7z"/>
	<path class="st4" d="M92.8,121.4c-0.2,0.2-0.4,0.3-0.5,0.4c0.8,0.4,1.5,0.8,2.3,1.1c1.1,0.5,2.4,0.7,3.6,1l7.3,2c0,0,0.1,0,0.1,0
		c0,0,0-0.1,0-0.1c-1.1-0.6-2.2-1.2-3.4-1.7c-1.1-0.5-2.3-1.1-3.5-1.6c-0.6-0.2-1.2-0.5-1.7-0.8c-0.6-0.3-1.2-0.5-1.8-0.6
		c-0.6-0.1-1.2-0.2-1.8-0.3C93.2,121,93.1,121.2,92.8,121.4z"/>
	<path class="st4" d="M97.5,116.7C97.5,116.8,97.5,116.8,97.5,116.7l-1.2,0c-0.3,0.1-0.6,0.3-0.8,0.5c0,0,0,0,0,0c0,0,0,0.1,0.1,0.1
		c0.4,0.1,0.7,0.2,1,0.2c0.4,0,0.8,0,1.2,0c0.3,0,0.7,0.1,1,0.1c0.4,0,0.7-0.1,1.1-0.1c0.7,0,1.4,0.1,2.1,0.2
		c0.7,0.1,1.4,0.2,2.1,0.5l0,0c0,0,0.1,0,0.1,0c0,0,0-0.1,0-0.1c-0.6-0.4-1.3-0.7-2-1c-0.7-0.2-1.4-0.4-2.2-0.6
		c-0.7-0.1-1.5-0.3-2.3-0.2c-0.1,0-0.3,0.1-0.4,0.1C97.3,116.5,97.4,116.6,97.5,116.7C97.5,116.7,97.5,116.7,97.5,116.7z"/>
	<path class="st4" d="M94.9,118.1c-0.4,0-0.9,0.1-1.3,0.3c0,0,0,0,0,0c0,0,0,0.1,0,0.1l0,0c0,0,0.1,0,0.1,0.1
		c0.8,0.4,1.5,0.6,2.2,0.8c0.2,0.1,0.5,0.2,0.8,0.2c0.5,0.1,1,0.3,1.5,0.5c0.7,0.3,1.5,0.7,2.1,1.2c0.7,0.5,1.3,1,1.9,1.6l0,0
		c0,0,0.1,0,0.1,0c0,0,0-0.1,0-0.1c-0.4-0.7-1-1.4-1.6-2c-0.6-0.6-1.3-1.1-2.1-1.6c-0.3-0.2-0.5-0.3-0.8-0.5c-0.1,0-0.2,0-0.2,0
		C96.7,118.6,95.8,118.4,94.9,118.1z"/>
	<path class="st4" d="M96.5,117.5c-0.6,0.1-1.3,0.2-1.9,0.4c0,0,0,0,0,0c0,0,0,0.1,0,0.1c0.1,0,0.2,0,0.2,0.1
		c0.9,0.3,1.8,0.4,2.7,0.6c0.1,0,0.2,0,0.2,0c0.9,0.2,1.8,0.2,2.7,0.3c1,0.1,2,0.3,2.9,0.5c1,0.2,2,0.4,2.9,0.6c0,0,0.1,0,0.1,0
		c0,0,0-0.1,0-0.1c-1.8-0.8-3.8-1.5-5.7-2c-0.7-0.2-1.3-0.4-2-0.5c-0.3-0.1-0.7-0.1-1-0.1C97.3,117.5,96.9,117.5,96.5,117.5z"/>
	<path class="st4" d="M110.7,72c-0.5-0.3-1.4-0.7-2.3-0.5c-0.9,0.2-1.6,0.9-1.9,1.3c-0.1,0.2-0.1,0.4,0.1,0.5c0.5,0.4,1.4,1,2.4,0.8
		c0.9-0.2,1.6-1.1,1.9-1.6C111,72.3,110.9,72.1,110.7,72z"/>
	<path class="st0" d="M27.2,111.5c-0.3,0-1.2-0.3-2.3-1.9c0.1,2.5,0.4,4.2,0.6,4.8c0.1,0.6,0.7,4.5,0.7,4.5s0.9,0.3,4.9,0.8
		s15.1,1.1,17.5,0.6c2.4-0.5,13.5-2.1,14.9-2.9c1.3-0.8,13.4-5.8,13.6-6c-1-0.9-2.4-6.4-2.3-6.8c-0.6,0.2-8.8,2.6-10.1,3
		s-13.8,4.4-19.7,4.7c-5.9,0.2-14.3-0.4-14.5-0.4C30.1,112.1,27.2,111.5,27.2,111.5z"/>
	<path class="st0" d="M96.1,85.6c0.1,0.1,1.4,8.8-3.8,6.2c0.2,0.9,0.4,3.9-2.6,3c1.6,1.3,2.3,7.3,0.2,9.4c3.1-2.9,5.2-5.4,5.6-5.9
		c0.4-0.4,2.6-3.9,3.8-4.7c1.2-0.8,4.3-2.5,4.1-2.5c-0.2,0-4.6-2.5-5.7-3.5C96.5,86.7,96.1,85.6,96.1,85.6z"/>
	<path class="st4" d="M122.5,69.4c0,0.2,0.5,0.1,0.8,0.5c0.3,0.3-0.2,0.7,0.3,1.3c0.4,0.5,1.4,0.2,1.3-0.9S122.5,69.2,122.5,69.4z"
		/>
	<path class="st1" d="M25.1,113.7c0,0-0.3,5.3-5.2,6.8c-2.2,0.7-7.3,0.4-9.1-0.3s-2.9-7.8-0.7-10.1c-3.1,3.7-4.6,6.2-3.2,9.8
		c0.6,0.9,2.9,2.9,4.7,3.1c1.4,0.5,8.1,1.3,10,0.4c1.9-0.9,4.1-2.7,4.2-3.8c0.1-1.1,0.2-3.6-0.1-4.2
		C25.4,114.8,25.1,113.7,25.1,113.7z"/>
	<path class="st1" d="M17.2,105.1c0,0-3.6-1.1-3.2-3.7c0.5-2.8,8.4-9.9,12.6-11.7C21.8,90.6,13,96.9,12,98.7s-1.4,4.8-0.9,5.8
		s2.1,2.9,2.1,2.9L17.2,105.1z"/>
	<path class="st1" d="M80.5,100.6c-0.3,0-3.7,1.3-4.4,3.1s0.6,6.3,1.7,8.1c-2.5-2.9-3.3-5.2-3.3-6.3s-0.1-3.6,1.3-4.1
		C77.4,101,80.5,100.6,80.5,100.6z"/>
	<path class="st1" d="M91.2,103.3c-0.2,0.1-2.8-0.5-4.7,1.1c-1.7,1.5-3.3-0.6-4.8,0.7c-1.6,1.3-0.6,3.6,0.3,4.8s3,6.4,3.8,7
		c0.8,0.6,1.6,2.8-0.3,2.5c-1.9-0.4-3.3-1.1-3.5-0.7s-0.5,3.1,1,3.6c1.4,0.4,3,0.8,3.4,0.6c0.4-0.2,3.5-0.5,4.5-0.7
		c1-0.3,2.1-2,1.7-2.5c-0.4-0.5-0.9-1.2-2.3-1.5s-2.4-1.3-2.9-2c-0.5-0.8-2.7-6.7-2.9-6.8c-0.2-0.1-0.6-1.9-0.5-2
		c0.1-0.2,1.5,0,2.4-0.3C87.2,106.8,91.2,103.3,91.2,103.3z"/>
	<path class="st5" d="M30.7,93.1c0.2-0.2,3.6,0,6.4-3.3c1.1-1.5,6-2.4,7.6-2.2c1.6,0.2,4.8-1.4,6.1-1.9c1.3-0.5,4.3-0.8,6.7-1.6
		s5.2-1.9,7.6-2.2c2.5-0.3,2.6-0.6,2.5-0.6s0.2,3.5,0,3.5c-0.2,0-11.9,3-13.4,3.3c-1.5,0.3-8,2.9-10,4.1c-2,1.1-6.5,2.4-7.5,3.2
		c-1,0.8-2.8,1.4-2.9,1.4c-0.1,0-2.8,0-2.9,0s-0.5-2.2-0.5-2.2C30.3,94.4,30.7,93.1,30.7,93.1z"/>
	<path class="st5" d="M80.1,81.4c0,0,2.2,1.8,4.2,4.9c2,3.1,1.8,4.6,1.9,4.7c0.1,0.1,1-6.1,4.6-2.5c-0.7-3.8-1.1-5.9-2.9-7.6
		c-1.7-1.8-0.9-4.3-0.8-4.9C87.2,75.4,80,81.5,80.1,81.4z"/>
	<path class="st5" d="M87.8,75.2c0,0,5.9-3.8,7.1-3.9c-0.2,1.4-0.9,6.3-0.7,7.7s0.9,4.5,1.4,5.1c-0.6-0.4-4.6-0.6-4.9,0.9
		c-1.2-2.2-1.7-3.8-2.8-4.8s-0.9-2.6-0.8-3C87.4,76.7,87.8,75.1,87.8,75.2z"/>
	<path class="st5" d="M25.4,97.6c-0.1,0.1,4.1,1.7,11.4,3.1c7.5,1.5,16.6-0.7,22.9-2.8c8.4-2.8,16.2-8.3,18.8-11
		c2.6-2.6,3-6.2,2.6-6.1c-0.4,0.2-4.4,3.8-7.9,5.5c-3.5,1.7-13,6.8-17,7.9c-4,1.2-11.3,1.9-14.2,1.9c-2.9,0-11.6,0.6-12.6,0.8
		C28.4,97.2,25.4,97.6,25.4,97.6z"/>
	<path class="st6" d="M68,89.3c-0.1,0.2-0.3,0.5-0.4,0.8l-0.4,0.9c-0.2,0.6-0.5,1.1-0.7,1.7l0,0c-0.1,0.3-0.5,0.4-0.7,0.3
		c-0.3-0.1-0.4-0.4-0.3-0.7c0,0,0,0,0,0c0.3-0.6,0.6-1.2,1-1.7c0.2-0.3,0.4-0.5,0.7-0.7c0.1-0.1,0.2-0.2,0.4-0.3
		c0.1-0.1,0.2-0.2,0.5-0.3C68,89.1,68,89.1,68,89.3C68,89.2,68,89.2,68,89.3L68,89.3z"/>
	<path class="st6" d="M65.7,94.3c-0.1,0.2-0.2,0.4-0.3,0.7l0,0c-0.1,0.1-0.2,0.2-0.4,0.2c-0.1,0-0.2-0.2-0.2-0.3
		c0-0.3,0.1-0.5,0.1-0.8c0-0.2,0.2-0.4,0.4-0.4c0.2,0,0.4,0.2,0.4,0.4C65.7,94.2,65.7,94.2,65.7,94.3L65.7,94.3z"/>
	<path class="st6" d="M67.6,104c-0.1-0.2-0.1-0.5-0.2-0.7l0,0c0-0.1,0-0.3,0.2-0.4c0.1,0,0.3,0,0.3,0.1c0.1,0.2,0.3,0.4,0.4,0.6
		c0.1,0.2,0.1,0.4-0.1,0.6c-0.2,0.1-0.4,0.1-0.6-0.1C67.6,104.1,67.6,104.1,67.6,104L67.6,104z"/>
	<path class="st6" d="M74,95.8c-0.1-0.2-0.1-0.5-0.2-0.7l0,0c0-0.1,0-0.3,0.2-0.4c0.1,0,0.3,0,0.3,0.1c0.1,0.2,0.3,0.4,0.4,0.6
		c0.1,0.2,0.1,0.4-0.1,0.6c-0.2,0.1-0.4,0.1-0.6-0.1C74.1,95.9,74.1,95.9,74,95.8L74,95.8z"/>
	<path class="st6" d="M65.8,97.6c0.1,0.6,0.2,1.2,0.3,1.7c0.1,0.3,0.2,0.6,0.3,0.9c0.1,0.3,0.2,0.6,0.3,0.9l-0.1,0.1
		c-0.2-0.2-0.5-0.4-0.7-0.7c-0.2-0.2-0.4-0.5-0.6-0.8c-0.4-0.6-0.6-1.2-0.8-1.9c-0.1-0.3,0.1-0.7,0.5-0.8
		C65.4,97,65.7,97.2,65.8,97.6C65.8,97.6,65.8,97.6,65.8,97.6z"/>
	<path class="st6" d="M55.8,110.5c-0.3-0.2-0.6-0.3-0.8-0.5c-0.3-0.2-0.6-0.3-0.8-0.6c-0.5-0.4-1-0.9-1.4-1.5
		c-0.2-0.2-0.1-0.5,0.1-0.7c0.2-0.2,0.5-0.1,0.7,0.1c0,0,0,0,0,0l0,0c0.1,0.3,0.3,0.5,0.5,0.8c0.2,0.2,0.3,0.5,0.5,0.7
		c0.2,0.2,0.4,0.5,0.6,0.7C55.4,110,55.7,110.2,55.8,110.5C55.9,110.5,55.9,110.5,55.8,110.5C55.8,110.6,55.8,110.6,55.8,110.5
		L55.8,110.5z"/>
	<path class="st6" d="M51.3,104.5c-0.1-0.5-0.2-1-0.2-1.5c0-0.2,0.2-0.4,0.4-0.5c0.2,0,0.4,0.1,0.5,0.3l0,0l0.4,1.4
		c0.1,0.3-0.1,0.6-0.4,0.7S51.4,104.8,51.3,104.5C51.3,104.5,51.3,104.5,51.3,104.5z"/>
	<path class="st6" d="M57.2,100.6c0.6,0.5,1,1.2,1.1,1.9c0.1,0.3,0.1,0.7,0.1,1c0,0.3-0.1,0.7-0.2,1l-0.1,0c0-0.6-0.2-1.2-0.4-1.8
		c-0.1-0.3-0.3-0.5-0.4-0.7c-0.2-0.2-0.4-0.4-0.6-0.5l0,0c-0.2-0.1-0.3-0.5-0.1-0.7C56.6,100.5,56.9,100.4,57.2,100.6
		C57.1,100.5,57.2,100.6,57.2,100.6z"/>
	<g>
		<path class="st6" d="M46.3,96.1c-0.5,0.4-1,0.8-1.2,1.3c-0.3,0.5-0.3,1.1-0.4,1.7l0,0c0,0.3-0.3,0.5-0.5,0.5
			c-0.3,0-0.5-0.3-0.5-0.5c0,0,0,0,0-0.1c0.1-0.7,0.3-1.4,0.8-1.9c0.5-0.6,1.1-0.9,1.7-1C46.3,96,46.3,96,46.3,96.1
			C46.4,96.1,46.3,96.1,46.3,96.1z"/>
		<path class="st6" d="M45,103.9c0,0.7,0,1.3,0.1,2c0,0.1-0.1,0.2-0.2,0.3c-0.1,0-0.2-0.1-0.2-0.2l0,0c-0.1-0.6-0.3-1.3-0.4-1.9l0,0
			c0-0.2,0.1-0.4,0.3-0.5C44.7,103.5,44.9,103.6,45,103.9C44.9,103.8,45,103.9,45,103.9z"/>
		<path class="st6" d="M46.2,107.7c-0.1,0.7-0.2,1.5-0.6,2.2c-0.2,0.4-0.5,0.7-0.9,0.9c-0.4,0.2-0.8,0.4-1.2,0.5l0,0l0,0
			c-0.8,0.1-1.5,0.1-2.2,0.1c-0.3,0-0.6-0.3-0.6-0.6c0-0.3,0.3-0.6,0.6-0.6c0,0,0,0,0,0c0.7,0,1.4,0,2.2,0l0,0
			c0.6-0.1,1.1-0.3,1.5-0.8c0.4-0.5,0.6-1.1,0.8-1.8L46.2,107.7z"/>
		<path class="st6" d="M35.1,110.7c-0.6,0-1.3,0-2-0.1c-0.3,0-0.7-0.1-1-0.2c-0.2-0.1-0.4-0.1-0.6-0.3c-0.2-0.2-0.3-0.4-0.4-0.6
			l0.8-0.3c0,0.1,0.1,0.2,0.1,0.2c0,0,0.2,0.1,0.3,0.1c0.2,0.1,0.5,0.2,0.8,0.2c0.6,0.1,1.2,0.1,1.8,0.1c0.2,0,0.4,0.2,0.4,0.4
			C35.5,110.5,35.3,110.7,35.1,110.7z"/>
		<path class="st6" d="M37.6,107.2c0.6-0.3,1.2-0.5,1.7-0.8l0,0c0.3-0.2,0.6-0.1,0.8,0.2c0.2,0.3,0.1,0.6-0.2,0.8
			c-0.3,0.2-0.6,0.4-0.9,0.5l-0.9,0.4c-0.3,0.2-0.7,0-0.8-0.3C37.1,107.7,37.3,107.4,37.6,107.2C37.6,107.2,37.6,107.2,37.6,107.2
			L37.6,107.2z"/>
		<path class="st6" d="M37.7,104.7c-0.6-0.9-1.1-2-1.4-3.1c-0.1-0.5-0.2-1.1-0.2-1.7c0-0.6,0.1-1.1,0.3-1.7c0.1-0.1,0.2-0.2,0.3-0.1
			c0.1,0,0.2,0.2,0.2,0.3l0,0c-0.3,0.9-0.1,2,0.2,3c0.3,1,0.8,1.9,1.4,2.7L37.7,104.7z"/>
		<path class="st6" d="M36.5,98.3c0.3-0.6,0.8-1.2,1.4-1.5c0.6-0.3,1.3-0.3,1.9-0.3l0,0.1c-0.6,0-1.3,0.2-1.8,0.5
			c-0.5,0.3-0.9,0.8-1.1,1.3c0,0.1-0.2,0.2-0.3,0.2C36.5,98.6,36.4,98.5,36.5,98.3C36.5,98.3,36.5,98.3,36.5,98.3L36.5,98.3z"/>
	</g>
	<g>
		<path class="st6" d="M68.3,89.4c0.6,0.7,1.3,1.4,1.9,2c0.3,0.3,0.7,0.6,1,0.8c0.4,0.2,0.7,0.4,1.1,0.6l0,0
			c0.3,0.1,0.4,0.4,0.3,0.7C72.6,93.9,72.3,94,72,94c-0.5-0.2-1-0.4-1.4-0.7c-0.4-0.3-0.8-0.7-1.1-1.1c-0.6-0.8-1.1-1.7-1.3-2.6
			C68.2,89.5,68.2,89.4,68.3,89.4C68.2,89.4,68.3,89.4,68.3,89.4L68.3,89.4z"/>
		<path class="st6" d="M77.6,90.7c0.3-0.3,0.6-0.6,0.9-0.9c0.1-0.1,0.2-0.2,0.3-0.2c0.1-0.1,0.3-0.2,0.6-0.1
			c0.4,0.1,0.5,0.3,0.6,0.5c0.1,0.1,0.1,0.3,0.2,0.4c0.1,0.3-0.1,0.6-0.3,0.7c-0.3,0.1-0.6-0.1-0.7-0.3c0,0,0,0,0-0.1
			c0-0.1,0-0.2-0.1-0.2c0-0.1,0,0,0.1,0c0.1,0,0.1,0,0,0c-0.1,0-0.1,0.1-0.2,0.1c-0.3,0.2-0.7,0.4-1.1,0.7c-0.1,0.1-0.3,0.1-0.4-0.1
			C77.4,90.9,77.5,90.8,77.6,90.7z"/>
		<path class="st6" d="M79.1,94.8c-0.2,0.4-0.5,0.9-0.6,1.1c-0.1,0.5-0.3,0.7-0.5,0.9c-0.2,0.2-0.4,0.4-0.6,0.6
			c-0.4,0.3-0.9,0.6-1.3,0.8c-0.4,0.3-0.9,0.5-1.1,0.9l0,0c0,0-0.1,0-0.1,0c0,0,0,0,0-0.1c0-0.3,0.2-0.5,0.3-0.8
			c0.1-0.2,0.3-0.4,0.5-0.6l1-1.1c0.3-0.3,0.6-0.8,0.6-0.9c0.1-0.7,0.4-1.2,0.6-1.6c0.2-0.3,0.6-0.5,0.9-0.3
			C79.2,94,79.3,94.4,79.1,94.8C79.2,94.8,79.1,94.8,79.1,94.8L79.1,94.8z"/>
	</g>
	<g>
		<path class="st6" d="M109.2,66.9c0.8,0.5,1.6,1,2.4,1.3c0.4,0.2,0.8,0.3,1.2,0.4c0.4,0.1,0.8,0.2,1.3,0.2l0,0
			c0.2,0,0.3,0.1,0.3,0.3c0,0.1-0.1,0.2-0.2,0.3c-0.5,0.2-1,0.3-1.6,0.3c-0.6,0-1.1-0.2-1.5-0.5c-0.5-0.3-0.9-0.6-1.2-1
			c-0.3-0.4-0.6-0.8-0.8-1.3C109.1,67,109.1,66.9,109.2,66.9C109.1,66.9,109.2,66.9,109.2,66.9L109.2,66.9z"/>
		<path class="st6" d="M117.4,67c0.2-0.1,0.3-0.3,0.7-0.4c0.1,0,0.2-0.1,0.4,0c0.2,0,0.4,0.1,0.5,0.2c0.2,0.2,0.3,0.4,0.3,0.5
			l0.1,0.2c0,0.1,0,0.2,0.1,0.2c0,0.2,0,0.3,0,0.5c0,0.3-0.2,0.6-0.3,0.8l0,0c-0.2,0.3-0.6,0.5-0.9,0.3c-0.3-0.2-0.5-0.6-0.3-0.9
			c0,0,0,0,0-0.1c0.1-0.1,0.2-0.3,0.2-0.4c0,0,0-0.1,0-0.1c0,0,0,0,0-0.1l0-0.1c0-0.1-0.1-0.1,0-0.1c0,0,0.1,0.1,0.2,0.1
			c0.1,0,0.1,0,0,0c-0.1,0-0.3,0.1-0.5,0.1l0,0c-0.3,0.1-0.5,0-0.6-0.3C117.1,67.4,117.2,67.1,117.4,67z"/>
		<path class="st6" d="M115.4,72c-0.1,0-0.3-0.1-0.3-0.3c0-0.1,0.1-0.3,0.3-0.3c0.1,0,0.3,0.1,0.3,0.3C115.7,71.9,115.5,72,115.4,72
			z"/>
		<path class="st6" d="M115.5,72c-0.1,0-0.2,0.1-0.4,0.1c-0.1,0-0.2,0.1-0.3,0.2l0,0c0,0-0.1,0-0.1,0c0,0,0,0,0-0.1
			c0-0.2,0.1-0.3,0.2-0.4c0.1-0.1,0.2-0.2,0.3-0.3l0,0c0.1-0.1,0.3-0.1,0.4,0s0.1,0.3,0,0.4C115.6,72,115.6,72,115.5,72z"/>
	</g>
	<g>
		<path class="st6" d="M106.1,69.1c-1,0.2-1.9,0.4-2.7,0.7c-0.4,0.2-0.8,0.4-1.1,0.6c-0.4,0.2-0.7,0.5-1,0.8l0,0
			c-0.1,0.1-0.3,0.1-0.4,0c-0.1-0.1-0.1-0.2-0.1-0.3c0.2-0.5,0.5-1,0.9-1.3c0.4-0.4,0.9-0.6,1.4-0.8c0.5-0.1,1-0.2,1.5-0.2
			c0.5,0,1,0.1,1.5,0.3C106.2,69,106.2,69.1,106.1,69.1C106.2,69.1,106.2,69.1,106.1,69.1L106.1,69.1z"/>
		<path class="st6" d="M100.3,74.8c0,0.2-0.1,0.4-0.2,0.7c0,0.1-0.1,0.2-0.2,0.3c-0.1,0.1-0.3,0.2-0.5,0.2c-0.3,0-0.5-0.1-0.6-0.1
			l-0.2-0.1c-0.1,0-0.2-0.1-0.2-0.1c-0.1-0.1-0.3-0.2-0.4-0.4c-0.2-0.3-0.3-0.5-0.4-0.8l0,0c-0.1-0.4,0.1-0.7,0.4-0.8
			c0.4-0.1,0.7,0.1,0.9,0.4c0,0,0,0.1,0,0.1c0,0.2,0.1,0.3,0.1,0.4c0,0,0,0.1,0.1,0.1c0,0,0,0,0,0l0.1,0.1c0.1,0,0.1,0,0,0
			c0,0-0.1,0-0.2,0.1c0,0,0,0.1,0,0c0.1-0.1,0.2-0.3,0.2-0.4l0,0c0.1-0.2,0.4-0.4,0.6-0.2C100.2,74.3,100.3,74.6,100.3,74.8z"/>
		<path class="st6" d="M98.3,70.3c-0.1,0-0.3-0.1-0.3-0.3c0-0.1,0.1-0.3,0.3-0.3c0.1,0,0.3,0.1,0.3,0.3
			C98.6,70.2,98.4,70.3,98.3,70.3z"/>
		<path class="st6" d="M98,70c0.1-0.1,0.1-0.2,0.2-0.3c0-0.1,0.1-0.2,0.1-0.3l0,0c0,0,0-0.1,0.1-0.1c0,0,0,0,0.1,0
			c0.1,0.1,0.1,0.3,0.2,0.4c0,0.1,0,0.3,0,0.4l0,0c0,0.2-0.1,0.3-0.3,0.3c-0.2,0-0.3-0.1-0.3-0.3C98,70.1,98,70,98,70z"/>
	</g>
	<g>
		<path class="st6" d="M30.9,97c-1,0.8-2.1,1.4-2.9,2.3c-0.4,0.4-0.7,0.9-0.7,1.3c0,0.1,0,0.2,0,0.3c0,0.1,0,0.1,0,0.2l0.1,0.2
			c0,0.1,0.1,0.2,0.2,0.3l0.2,0.3l0.1,0.1c0.2,0.2,0.1,0.6-0.1,0.7c-0.2,0.2-0.6,0.1-0.7-0.1c-0.2-0.3-0.5-0.5-0.7-0.9l-0.1-0.3
			c0-0.1-0.1-0.2-0.1-0.3c-0.1-0.2-0.1-0.4-0.1-0.6c0.1-0.9,0.6-1.5,1.1-1.9c0.5-0.4,1.1-0.8,1.7-1c0.6-0.3,1.2-0.5,1.8-0.6
			C30.9,96.9,30.9,96.9,30.9,97C30.9,97,30.9,97,30.9,97z"/>
		<path class="st6" d="M27.8,106.1c-0.4,0.1-0.9,0.2-1.3,0.2c-0.4,0.1-0.9,0.1-1.3,0.1c-0.2,0-0.4-0.1-0.5-0.4
			c0-0.2,0.2-0.4,0.4-0.4c0,0,0.1,0,0.1,0c0.4,0,0.8,0.1,1.3,0.1c0.4,0,0.8,0,1.3,0c0.1,0,0.2,0.1,0.3,0.2
			C28,106,27.9,106.1,27.8,106.1z"/>
		<path class="st6" d="M21.8,106.8c0,0.2,0.1,0.5,0.2,0.8c0.1,0.3,0.3,0.6,0.5,0.8c0.4,0.5,0.9,1.1,1.4,1.7c0.2,0.3,0.2,0.7-0.1,0.9
			c-0.3,0.2-0.6,0.2-0.9-0.1c-0.5-0.5-1-1.1-1.5-1.7c-0.2-0.3-0.5-0.7-0.6-1.1c-0.2-0.4-0.3-0.8-0.2-1.4c0-0.3,0.3-0.6,0.7-0.6
			C21.5,106.2,21.8,106.4,21.8,106.8L21.8,106.8z"/>
		<path class="st6" d="M23.9,110.1l0.5,0.7c0,0.1,0.1,0.1,0.1,0.2c0,0.1,0.1,0.2,0.1,0.3c0.1,0.2,0.1,0.4,0,0.6
			c-0.2,0.8-0.7,1.2-1.1,1.5c-0.5,0.3-0.9,0.6-1.5,0.8c-0.5,0.2-1.1,0.3-1.6,0.1c0,0-0.1,0,0-0.1c0,0,0,0,0.1,0h0
			c0.5,0,0.9-0.2,1.4-0.5c0.4-0.3,0.8-0.6,1.1-0.9c0.3-0.3,0.6-0.7,0.6-1c0,0,0-0.1,0-0.1c0,0,0,0,0-0.1c0,0,0,0,0,0
			c0,0-0.1-0.1-0.1-0.1l-0.5-0.5l0,0c-0.2-0.3-0.2-0.7,0.1-0.9C23.2,109.8,23.6,109.8,23.9,110.1C23.8,110.1,23.8,110.1,23.9,110.1z
			"/>
	</g>
	<path class="st4" d="M126.5,68.9C126.5,68.9,126.5,68.9,126.5,68.9c-0.9-0.6-1.9-0.9-2.9-1.3c-1-0.3-2-0.6-3.1-0.8
		c-2.1-0.4-4.2-0.7-6.3-0.8c-2.1-0.1-4.2,0-6.4,0.2c-0.5,0.1-1.1,0.1-1.6,0.2l-1.5,0.2c-1,0.1-2.1,0.3-3.2,0.6
		c-2.1,0.7-4,1.7-5.8,2.7c-1.8,1-3.6,2.1-5.4,3.3c-3.4,2.3-6.8,4.7-9.8,7.5c-1.6-0.1-3.3-0.2-4.9-0.3c-0.5,0-0.9,0-1.4,0
		c-0.1,0-0.2,0-0.3,0c0,0,0,0-0.1,0c-1.2,0-2.3,0-3.5,0c-3.5,0-6.9,0.1-10.4,0.3c-3.5,0.3-6.9,0.7-10.3,1.3
		c-1.7,0.3-3.4,0.7-5.1,1.1c-1.7,0.4-3.3,0.9-5,1.4c-3.3,1-6.6,2.1-9.9,3.2c-3.3,1.1-6.6,2.1-9.8,3.7c-1.6,0.8-3.1,1.7-4.5,2.7
		c-1.4,1.1-2.8,2.3-3.8,3.8c-0.3,0.4-0.5,0.8-0.7,1.2c-0.2,0.4-0.4,1-0.4,1.4c-0.2,0.9-0.2,1.8-0.1,2.7c0.2,1.6,1.1,3,2.3,3.9
		c-0.4,0.3-0.9,0.5-1.3,0.8c-1.7,1.3-3.4,2.9-4.3,4.9c-0.2,0.5-0.4,1-0.6,1.6l-0.2,0.8c-0.1,0.3-0.1,0.5-0.1,0.8
		c-0.1,1.1,0,2.2,0.3,3.2c0.3,1,1,1.9,1.8,2.6c0,0,0,0,0.1,0.1c0.2,0.2,0.5,0.3,0.7,0.5c0.6,0.3,1.2,0.6,1.8,0.7
		c0.1,0,0.3,0.1,0.4,0.1c0.2,0.1,0.4,0.2,0.6,0.3c0.4,0.2,0.8,0.3,1.3,0.5c0.5,0.2,1,0.3,1.5,0.4c0.3,0.1,0.7,0.1,1,0.2
		c0.4,0,0.8,0.1,1.2,0.1c0.2,0,0.4,0,0.6,0c0.4,0,0.8,0,1.3,0c0.4,0,0.8-0.1,1.2-0.1c0.9-0.1,1.7-0.4,2.6-0.7c2-0.7,3.4-2.5,3.7-4.5
		c0-0.1,0-0.1,0-0.2c2,0.8,4.1,1.4,6.2,1.8c2.2,0.4,4.4,0.7,6.6,0.7c2.2,0,4.4-0.2,6.6-0.5l6.5-0.8c2.2-0.2,4.4-0.5,6.6-1
		c2.2-0.5,4.3-1.1,6.4-1.8c2.1-0.7,4.1-1.6,6.1-2.6c1.7-0.9,3.3-1.8,4.9-2.9c0.2,0.3,0.4,0.7,0.6,1l1,1.4c0.6,0.9,1.3,1.9,1.9,2.7
		c0.3,0.5,0.5,0.8,0.6,1.1c0.1,0.6,0.3,1.1,0.4,1.7c0.1,0.3,0.2,0.6,0.3,0.8l0.2,0.4c0.1,0.2,0.1,0.3,0.2,0.5c0,0.1,0.1,0.1,0.2,0.2
		c0.2,0.2,0.2,0.1,0.2,0.2c0,0,0.1,0.1,0.1,0.1l0.4,0.2c0.3,0.2,0.5,0.3,0.8,0.5c0.7,0.3,1.4,0.5,2.1,0.6c0.2,0,0.4,0,0.5,0
		c0.1,0,0.2,0.1,0.3,0.1c0.6,0.2,0.5,0,1.1-0.3c0.2-0.1,0.4-0.2,0.7-0.3c0.1,0,0.2-0.1,0.3-0.1c1.5-0.5,0.8,0,2-0.1
		c0.1,0,0.2,0,0.4,0c0.1,0,0.1,0,0.2,0c1.5-0.2,1.1-0.4,1.5-0.9c0,0,0-0.1,0.1-0.1c0.1-0.1,0.2-0.3,0.5-0.4c0.3-0.2,0.5-0.4,0.6-0.5
		c0.1-0.1,0.1-0.2,0.1-0.3c0-0.2-0.2-0.4,0-1c0-0.1,0.1-0.2,0.1-0.3c0.3,0,0.7,0,1,0l0,0c0,0,0.1,0,0.1,0c0,0,0-0.1,0-0.1
		c-0.3-0.2-0.7-0.4-1-0.6c-0.3-0.1-0.6-0.2-1-0.3c-0.7-0.2-1.4-0.4-2.1-0.5c-0.5-0.1-0.9-0.3-1.3-0.7c-0.1-0.1-0.2-0.2-0.2-0.3
		c-0.1-0.1-0.1-0.2-0.2-0.3c-0.2-0.3-0.3-0.5-0.5-0.8c-0.3-0.7-0.6-1.4-0.9-2.1c-0.3-0.7-0.7-1.5-1.1-2.2c-0.4-0.7-0.8-1.4-1.2-2.1
		c-0.3-0.6-0.6-1.1-0.8-1.7c0.8,0.1,1.6,0,2.4-0.1c0.6-0.1,1.1-0.3,1.6-0.5c0.1,0.8,0.3,1.6,0.6,2.3c0.2,0.5,0.5,0.9,0.8,1.4
		c0.3,0.4,0.5,0.9,0.6,1.4l0,0l0,0c0.2,0.3,0.3,0.7,0.5,1.1c0.1,0.3,0.3,0.7,0.4,1c0.1,0.4,0.3,0.7,0.5,1.1c0.2,0.4,0.4,0.7,0.9,1.1
		c0.1,0.1,0.3,0.2,0.5,0.2c0.1,0,0.2,0,0.3,0l0.1,0l0.5,0l1.1,0.1l1.1,0l1.2,0c0,0,0,0,0.1,0c0,0,0-0.1,0-0.1
		c-0.1-0.1-0.2-0.2-0.3-0.2c-0.6-0.4-1.2-0.7-1.8-0.9c-0.4-0.1-0.8-0.2-1.2-0.3c-0.2,0-0.4,0-0.6-0.1l-0.2,0c0,0,0,0,0,0
		c0,0,0,0-0.1,0c-0.2-0.1-0.4-0.3-0.6-0.6c-0.2-0.3-0.4-0.6-0.6-0.9c-0.2-0.3-0.4-0.7-0.7-0.9c-0.3-0.3-0.5-0.6-0.7-0.9
		c-0.2-0.5-0.3-1-0.4-1.5c-0.1-0.5-0.1-1.1-0.3-1.5c-0.2-0.5-0.4-1-0.7-1.4c-0.1-0.2-0.3-0.5-0.5-0.7c0.2-0.1,0.4-0.2,0.6-0.4
		l-0.1,0c0.5-0.3,0.9-0.7,1.2-1.1c0.3-0.4,0.6-0.8,0.8-1.3c0.2-0.3,0.3-0.7,0.4-1c0.3-0.3,0.6-0.6,0.9-0.9c0.2-0.2,0.4-0.5,0.6-0.7
		c0.1-0.2,0.2-0.4,0.3-0.6c0.5-0.2,0.8-0.5,1.1-0.8c0.4-0.3,0.7-0.7,1-1.1c0.3-0.4,0.6-0.8,0.8-1.2c0.1-0.2,0.2-0.4,0.4-0.7
		c0-0.1,0-0.1,0.1-0.2c0.3,0,0.5-0.1,0.8-0.2c0.5-0.2,0.9-0.6,1.2-0.9c0.3-0.4,0.5-0.7,0.7-1.1c0.2-0.3,0.4-0.7,0.6-0.9
		c0.4-0.5,1-0.9,1.7-1.3c0.7-0.4,1.4-0.7,2.1-0.9l0.1,0l0.1-0.1c0.8-0.9,1.5-1.8,2.4-2.7c0.8-0.9,1.7-1.7,2.6-2.5
		c0.9-0.8,1.8-1.6,2.7-2.3c0.5-0.4,0.9-0.8,1.3-1c0.4-0.3,1-0.5,1.5-0.8c2.1-1,4.3-2.1,6.4-3.4c1-0.6,2-1.3,3-2.1
		c1-0.8,1.9-1.6,2.7-2.7L127,74l0,0c0.2-0.4,0.4-0.8,0.6-1.2c0.2-0.4,0.4-0.9,0.4-1.5c0-0.5-0.1-1.1-0.4-1.5
		C127.3,69.4,126.9,69.1,126.5,68.9z M95,74.6c0.4,0.5,0.8,0.9,1.1,1.2c0.2,0.2,0.5,0.4,0.6,0.7c0.1,0.4-0.1,0.8-0.3,1.1
		c-0.5,0.7-0.9,1.3-1.2,2c-0.1,0.3-0.3,0.7-0.4,1c-0.1,0.2-0.1,0.4-0.2,0.7c-0.1-0.4-0.1-0.7-0.1-1.1c0-1,0.2-2.1,0.3-3.1
		C94.9,76.3,95,75.5,95,74.6z M80.1,81c-1.3,0.8-2.7,1.7-4,2.5c0.1-0.1,0.1-0.2,0.2-0.3c0.1-0.4-0.1-0.9-0.3-1.3
		c-0.1-0.2-0.2-0.3-0.3-0.5C77.2,81.3,78.7,81.1,80.1,81z M74.4,81.5c0.1,0.3,0.1,0.5,0.1,0.8c0,0.1-0.1,0.3-0.1,0.4
		c0,0.1-0.1,0.3,0,0.4c0,0.1,0.1,0.3,0.2,0.5c0,0,0,0.1,0.1,0.1c-2.1-0.1-4.1,0-6.2,0.2c0-0.5-0.2-0.9-0.4-1.3
		c-0.1-0.2-0.2-0.3-0.2-0.4C70.1,81.9,72.2,81.7,74.4,81.5z M74.6,84.4c-0.1,0.1-0.3,0.2-0.4,0.3c-2.1,1.2-4.2,2.4-6.4,3.5
		c-4.3,2.2-8.9,3.9-13.5,5.2c-2.3,0.6-4.7,1.2-7.1,1.5l-1.8,0.3c-0.6,0.1-1.2,0.1-1.8,0.1c-1.2,0.1-2.5,0.1-3.7,0.2
		c-1.2,0.1-2.4,0.2-3.6,0.3c1.2-0.5,2.3-0.9,3.5-1.4c1.7-0.7,3.3-1.4,5-2.2c1.6-0.8,3.2-1.8,4.9-2.4c0.9-0.3,1.7-0.6,2.6-0.9
		c0.9-0.2,1.8-0.4,2.7-0.6c0.9-0.2,1.8-0.3,2.7-0.5c0.9-0.2,1.8-0.4,2.7-0.5l2.7-0.5c0.9-0.2,1.8-0.3,2.7-0.5
		c1.8-0.4,3.6-0.7,5.3-1.1C72.3,84.9,73.5,84.7,74.6,84.4z M66.5,82.2c0.1,0.2,0.1,0.5,0.1,0.7c0,0.2,0,0.4-0.1,0.6
		c0,0.2-0.1,0.4,0,0.6c0,0,0,0,0,0c-0.4,0.1-0.8,0.1-1.1,0.2c-0.9,0.2-1.8,0.3-2.6,0.5c0.1-0.5-0.1-1.1-0.4-1.6
		c-0.1-0.2-0.2-0.4-0.4-0.6C63.5,82.4,65,82.3,66.5,82.2z M60.2,82.7c0.2,0,0.4,0,0.6,0c0.1,0.3,0.2,0.6,0.2,0.9
		c0,0.2,0,0.4-0.1,0.6c0,0.2-0.1,0.4,0,0.6c0,0.1,0.1,0.3,0.2,0.5l-1,0.3c-1.3,0.3-2.5,0.7-3.7,1.2c0.2-0.3,0.3-0.5,0.4-0.8
		c0.1-0.5-0.1-1.1-0.4-1.6c-0.2-0.4-0.4-0.8-0.7-1.1C57.1,83,58.7,82.8,60.2,82.7z M54.5,83.2c0,0.1,0.1,0.2,0.1,0.3
		c0.2,0.4,0.2,0.8,0.3,1.1c0,0.2,0,0.4-0.1,0.6c0,0.2-0.1,0.4,0,0.6c0,0.2,0.1,0.4,0.2,0.6c0.1,0.2,0.2,0.4,0.3,0.6
		c-0.2,0.1-0.4,0.2-0.6,0.2c-0.9,0.3-1.7,0.7-2.6,1c-0.3,0.1-0.7,0.3-1,0.4c0.3-0.4,0.5-0.8,0.6-1.3c0.1-0.7-0.1-1.3-0.4-1.9
		c-0.3-0.6-0.6-1.2-1.1-1.6c0,0,0,0-0.1,0C51.6,83.5,53.1,83.4,54.5,83.2z M44.9,84.5c1.4-0.3,2.9-0.5,4.3-0.7
		c0.1,0.2,0.2,0.3,0.3,0.5c0.2,0.5,0.4,0.9,0.4,1.4c0,0.1,0,0.2,0,0.4l-0.1,0.4c0,0.2,0,0.5,0,0.7c0,0.3,0.1,0.5,0.2,0.8
		c0.1,0.2,0.2,0.5,0.4,0.8c-0.3,0.1-0.6,0.2-0.9,0.3c-0.4,0.1-0.9,0.3-1.3,0.4l-1.3,0.4c-0.5,0.1-1.1,0.3-1.6,0.5
		c0.1-0.3,0.2-0.6,0.3-0.9c0.1-0.8-0.1-1.5-0.4-2.2c-0.3-0.7-0.7-1.4-1.3-1.9c-0.2-0.2-0.5-0.4-0.7-0.5
		C43.7,84.8,44.3,84.7,44.9,84.5z M39.8,85.5c0.8-0.2,1.7-0.3,2.5-0.5c0.3,0.3,0.6,0.6,0.7,1c0.3,0.5,0.5,1.1,0.5,1.7
		c0,0.1,0,0.3,0,0.4l0,0.4c0,0.3,0,0.6,0,0.9c0,0.3,0.1,0.6,0.2,0.9c0,0.1,0.1,0.3,0.1,0.4c-0.8,0.3-1.6,0.6-2.3,1
		c-0.8,0.4-1.7,0.8-2.5,1.3c-0.1,0-0.1,0.1-0.2,0.1c0.1-0.3,0.2-0.5,0.3-0.8c0.1-0.5,0.1-1-0.2-1.4c-0.2-0.5-0.5-0.9-0.7-1.3
		c-0.3-0.4-0.5-0.8-0.8-1.2c-0.3-0.4-0.7-0.7-1-1c-0.5-0.4-1-0.6-1.6-0.8C36.6,86.2,38.2,85.8,39.8,85.5z M29.9,88.3
		c1.4-0.5,2.8-1,4.3-1.4c0.5,0.5,1,1.1,1.3,1.6c0.2,0.3,0.3,0.6,0.4,1c0.1,0.3,0.2,0.7,0.2,1c0,0.3,0,0.7-0.1,1c0,0.3,0,0.6,0.1,1
		c0.1,0.3,0.2,0.7,0.4,1.1c0.1,0.3,0.3,0.6,0.5,1c-0.7,0.5-1.3,1-1.9,1.5c-1.4,0.1-2.7,0.3-4.1,0.5c0.6-0.6,0.9-1.4,0.9-2.2
		c0-0.5-0.1-0.9-0.4-1.3c-0.3-0.4-0.6-0.7-0.8-1.1c-0.3-0.4-0.6-0.7-0.9-1c-0.3-0.3-0.7-0.5-1.1-0.7c-0.6-0.3-1.1-0.5-1.7-0.7
		C28,89,28.9,88.6,29.9,88.3z M82.7,120.9C82.7,120.9,82.6,120.8,82.7,120.9C82.7,121,82.7,120.9,82.7,120.9z M101.5,91.4
		c-0.8,0.3-1.6,0.6-2.3,1.2L99,92.8c-0.1,0.1-0.1,0.2-0.2,0.3l-0.4,0.5c-0.2,0.3-0.5,0.6-0.7,0.9c-0.2,0.2-0.4,0.4-0.6,0.5
		c-0.2,0.1-0.5,0.2-0.9,0.2l-0.8,0.9c0,0,0,0.2-0.1,0.3c-0.1,0.2-0.1,0.4-0.2,0.5c-0.2,0.4-0.4,0.7-0.6,1.1c-0.2,0.4-0.5,0.7-0.7,1
		c0,0-0.1,0.1-0.1,0.1c0-0.3,0-0.6-0.1-0.9c-0.2-0.6-0.6-1.1-1.1-1.5c-0.4-0.5-0.9-0.9-1.4-1.2c-0.5-0.3-1-0.6-1.6-0.8
		c0,0-0.1,0-0.1,0c0,0,0,0.1,0,0.1c0.5,0.3,0.9,0.7,1.2,1.2c0.4,0.4,0.7,0.9,1,1.4c0.3,0.5,0.4,1,0.7,1.4c0.2,0.3,0.4,0.6,0.6,1
		c0,0,0,0-0.1,0l-0.3,0.2l0,0.2c-0.7,2-2.9,3.7-3.2,4c-0.3,0.3-0.6,0.5-0.9,0.7l-0.1,0l-1.1,0.6c-0.4,0.2-0.7,0.4-1.1,0.6
		c-0.8,0.4-1.6,0.8-2.5,0.7l-0.6-0.1l0.2,0.5c0.4,0.7,0.6,1.5,0.9,2.2c0.2,0.8,0.4,1.6,0.6,2.4c0.2,0.8,0.5,1.5,0.7,2.3l0.8,2.3
		l0,0.1l0.1,0.1c0.2,0.3,0.4,0.6,0.6,0.9c0.1,0.1,0.2,0.3,0.4,0.5c0.1,0.2,0.3,0.3,0.5,0.5c0.7,0.6,1.6,0.9,2.5,0.8l0.8,0
		c-0.1,0.2-0.2,0.5-0.1,0.9c0.1,0.8,0.2,0.9-0.2,1.2c-0.4,0.4-0.7,0.2-1.6,0.4c-0.2,0-0.4,0.1-0.6,0.1c-0.1,0-0.3,0.1-0.4,0.1
		c-0.3,0-0.6,0-1.1-0.1c-1-0.2-1.8,0.4-1.9,0.8c-0.5-0.2-1-0.5-1.4-0.9c-0.2-0.2-0.4-0.3-0.6-0.5c-0.1-0.1-0.2-0.2-0.3-0.3
		c0,0-0.1-0.1-0.1-0.1c0-0.1-0.1-0.4-0.1-0.6l-0.1-0.8l-0.3-1.7c-0.1-0.8-0.5-1.4-0.8-1.9c-0.7-1-1.4-1.8-2.1-2.7l-1.1-1.3
		c-0.3-0.4-0.7-0.8-1-1.3c-0.6-0.9-1.2-1.8-1.7-2.8c-0.4-1-0.7-2.1-0.7-3.2c0-1,0.5-2.1,1.3-2.6c1-0.4,2-0.7,3-1l2.9-1
		c1-0.3,2-0.7,3-1l3-1c0,0,0.1,0,0.1-0.1c0-0.1,0-0.1-0.1-0.1c-1.1-0.1-2.2-0.1-3.3,0c-1.1,0.1-2.1,0.3-3.2,0.6
		c-1.1,0.3-2.1,0.6-3.1,1.1c-1,0.5-1.9,1.1-2.8,1.7l-0.1,0c-0.5,0.5-0.8,1-1,1.6c-0.2,0.6-0.3,1.2-0.3,1.8c0,0,0,0.1,0,0.1
		c-3.9,0.7-7.7,1.7-11.5,2.8c-3.9,1.1-7.7,2.4-11.5,3.7c-1.9,0.5-3.9,0.8-5.9,0.9c-1,0-2,0-3,0c-1,0-2-0.1-3-0.2c-2-0.1-4-0.2-6-0.3
		c-2-0.1-4-0.1-6.1-0.2c0,0-0.1,0-0.1,0c0,0,0,0.1,0,0.1c2,0.5,4,0.8,6,1c2,0.2,4,0.4,6.1,0.3c2,0,4.1-0.3,6.1-0.4
		c2-0.2,4-0.3,6.1-0.6l1.5-0.3c0.5-0.1,1-0.2,1.5-0.4c1-0.2,2-0.5,2.9-0.8c2-0.5,3.9-1,5.8-1.6c3.7-1.2,7.5-2.4,11.1-3.9
		c0,1.1,0.1,2.1,0.4,3.2c0.3,1.1,0.7,2.3,1.2,3.3c0,0,0,0.1,0.1,0.1c-1.8,0.6-3.5,1.2-5.3,1.8c-2.1,0.7-4.1,1.4-6.1,2.1
		c-2,0.7-4.1,1.5-6.1,2.1c-2.1,0.6-4.1,1.4-6.2,1.9c-2.1,0.5-4.3,0.7-6.5,0.7c-2.2,0-4.3-0.3-6.5-0.4c-4.3-0.2-8.5-0.6-12.8-1.1
		c0.1-0.9,0-1.7-0.2-2.5c-0.1-0.5-0.3-0.9-0.4-1.3c-0.2-0.4-0.3-0.9-0.6-1.3c0,0,0,0-0.1,0c0,0-0.1,0,0,0.1l0,0
		c0.2,0.9,0.4,1.8,0.5,2.7c0.1,0.9,0.1,1.8-0.2,2.6c-0.5,1.6-1.7,3-3.3,3.5c-1.7,0.6-3.4,0.9-5.2,0.9c-0.9,0-1.8-0.1-2.6-0.3
		c-0.9-0.2-1.8-0.4-2.6-0.7l-0.1,0l0,0c-1-0.1-2-0.4-2.8-0.9c-0.9-0.5-1.5-1.4-1.9-2.3c-0.3-1-0.4-2-0.1-3c0-0.3,0.1-0.5,0.2-0.7
		l0.2-0.7c0.2-0.5,0.4-0.9,0.7-1.4c1.1-1.7,2.5-3.2,4.1-4.6c1.6-1.3,3.4-2.5,5.2-3.5l0,0c0,0,0,0,0-0.1c0,0,0-0.1-0.1,0
		c-1.5,0.4-2.9,1.1-4.2,1.8c-1-1.1-1.6-2.5-1.6-3.8c0-0.8,0.1-1.6,0.3-2.4c0.1-0.4,0.2-0.7,0.4-1c0.2-0.3,0.4-0.7,0.7-1
		c0.5-0.6,1.1-1.2,1.7-1.7c0.6-0.5,1.3-1.1,2-1.5c1.4-1,2.8-1.8,4.3-2.7c1.8-1.1,3.7-2.1,5.7-3c0.5,0.5,0.9,1,1.3,1.6
		c0.2,0.3,0.3,0.6,0.5,0.9c0.1,0.3,0.3,0.6,0.3,0.9c0.1,0.3,0.1,0.6,0.1,0.9c0,0.3,0.1,0.6,0.2,0.8c0.2,0.3,0.3,0.5,0.6,0.9
		c0.2,0.3,0.4,0.5,0.7,0.8c-1.6,0.2-3.2,0.5-4.8,0.9c0,0-0.1,0.1-0.1,0.1c0,0.1,0.1,0.1,0.1,0.1c4.9-0.4,9.8-0.5,14.7-0.5l3.7,0
		c0.6,0,1.2,0,1.9,0c0.6-0.1,1.3-0.1,1.9-0.2c2.5-0.3,4.9-0.8,7.3-1.4c2.4-0.6,4.8-1.5,7.1-2.4c2.3-1,4.5-2,6.7-3.2
		c2.2-1.2,4.3-2.5,6.3-4c2-1.4,3.9-2.9,5.9-4.3c0,0.2,0,0.3,0.1,0.5c0.1,0.3,0.2,0.6,0.3,0.9c0.2,0.6,0.5,1.1,0.8,1.6
		c0.6,1,1.5,1.8,2.1,2.8c0.6,1,1.2,2,1.6,3c0.2,0.5,0.5,1.1,0.7,1.6c0.1,0.3,0.2,0.5,0.3,0.8c0,0.1,0.1,0.3,0.1,0.4
		c0,0.1,0.1,0.3,0.1,0.4l0,0c0,0,0,0,0,0.1c0,0,0.1,0,0.1,0c0.1-0.1,0.1-0.2,0.1-0.3c0-0.1,0-0.2,0-0.2c0-0.1,0-0.3-0.1-0.4
		c0-0.3-0.1-0.6-0.2-0.9c-0.1-0.6-0.3-1.1-0.5-1.7c-0.4-1.1-0.8-2.2-1.4-3.3c-0.3-0.5-0.6-1.1-0.9-1.6c-0.3-0.5-0.7-1-1-1.4
		l-1.1-1.3c-0.3-0.4-0.6-0.8-0.9-1.2c1.8-1.8,3.8-3.5,5.9-4.9c-0.1,0.1-0.1,0.2-0.2,0.3c-0.4,0.8-0.6,1.9-0.2,2.9
		c0.3,1,0.9,1.8,1.6,2.4l0.5,0.4c0.1,0.1,0.3,0.2,0.4,0.4c0.3,0.3,0.5,0.6,0.6,0.9c0.3,0.7,0.4,1.5,0.5,2.4c0.1,0.9,0.2,1.8,0.4,2.6
		c0.4,1.7,1.3,3.3,2.5,4.7c0,0,0.1,0,0.1,0c0,0,0-0.1,0-0.1c-0.9-1.4-1.6-3-1.9-4.7C91,87.6,91,86.8,91,85.9c0-0.9,0-1.8-0.3-2.7
		c-0.1-0.5-0.4-0.9-0.7-1.3c-0.2-0.2-0.3-0.4-0.5-0.6L89,80.9c-0.6-0.6-1.1-1.2-1.4-1.8c-0.3-0.7-0.3-1.4-0.1-2.2
		c0.1-0.5,0.4-0.9,0.6-1.4c0.9-0.6,1.8-1.1,2.7-1.6c1.3-0.7,2.6-1.3,3.9-2c-0.1,0.2-0.1,0.4-0.2,0.5c-0.2,0.5-0.3,1-0.4,1.5
		c-0.2,1-0.3,2.1-0.3,3.2c0,1.1,0.2,2.1,0.4,3.2c0.2,1,0.3,2.1,0.7,3.1c0.6,2,1.7,3.9,3.3,5.5c0.8,0.8,1.7,1.4,2.7,1.8
		c0.4,0.2,0.9,0.3,1.4,0.4C102,91.2,101.8,91.3,101.5,91.4z M108.2,86c-0.8,0.9-3,3.4-4.4,4.7c-0.1,0-0.3,0.1-0.4,0.1
		c-1.7-0.6-3.1-1.6-4.3-2.9c-1-1-1.7-1.8-2.5-3c-0.2-0.2,0-0.5,0.2-0.6c0.6-0.2,1-0.4,2-0.5c1.1,0,2.2,0.2,3.3,0.4
		c1.1,0.2,2.1,0.6,3.2,0.8c0.5,0.1,1.1,0.2,1.7,0.2c0.4,0.1,0.7,0.1,1,0.2C108.3,85.6,108.3,85.9,108.2,86z M126.5,71.6
		c-0.4,0.4-1,0.8-1.5,1.1c-1.1,0.6-2.2,1.1-3.4,1.5c-1.2,0.4-2.4,0.8-3.5,1.2l-0.9,0.3l-0.9,0.3c-0.6,0.2-1.2,0.3-1.8,0.5
		c-1.2,0.3-2.4,0.6-3.7,0.8c-0.6,0.1-1.2,0.2-1.8,0.3c-0.6,0.1-1.2,0.1-1.9,0.2c-2.6,0.4-4.9,1.7-7,3.2c2.3-1,4.7-2,7.1-2.1
		c0.6,0,1.3,0,1.9-0.1c0.6-0.1,1.3-0.1,1.9-0.2c1.3-0.2,2.5-0.4,3.8-0.7c0.6-0.2,1.2-0.3,1.8-0.5c0.3-0.1,0.6-0.2,0.9-0.3l0.9-0.3
		c1.2-0.4,2.4-0.9,3.5-1.4c1.2-0.5,2.3-1.1,3.3-1.9c0.5-0.4,1-0.8,1.4-1.3c0.2-0.2,0.3-0.5,0.4-0.8c0,0,0,0.1,0,0.1
		c-0.1,0.4-0.3,0.7-0.5,1.1c-0.2,0.4-0.5,0.7-0.8,1.1l0.1-0.1c-0.7,0.8-1.7,1.4-2.7,2.1c-1,0.6-2,1.2-3,1.8l-6.2,3.5
		c-0.5,0.3-1,0.6-1.6,1c-0.6,0.4-1,0.9-1.4,1.3c-0.6,0.6-1.2,1.3-1.8,2c-0.2,0.3-0.6,0.4-0.9,0.2c-0.8-0.5-1.7-0.8-2.6-1.1
		c-0.5-0.2-1.1-0.3-1.7-0.4c-0.6,0-1.1-0.1-1.7-0.2c-1.1-0.1-2.3-0.1-3.5,0c-0.6,0.1-1.1,0.2-1.7,0.3c-0.3,0.1-0.6,0.1-0.8,0.2
		L95.9,84c-0.2-0.3-0.3-0.5-0.5-0.8c-0.3-0.4-0.5-0.9-0.6-1.4c0.2,0,0.3-0.1,0.4-0.2c0.2-0.1,0.4-0.3,0.5-0.4c0.3-0.3,0.6-0.7,0.7-1
		c0.3-0.8,0.5-1.6,0.4-2.4c0-0.4,0.1-0.8,0.3-1.2c0.2-0.5,0-1.1-0.3-1.5c-0.3-0.4-0.7-0.6-1.1-0.8c-0.3-0.1-0.6-0.2-0.9-0.3
		c0-0.8,0.1-1.6,0.1-2.4c0.4-0.2,0.8-0.4,1.2-0.6c0.9-0.4,1.9-0.8,2.9-1.2c1-0.4,1.9-0.8,2.8-1c0.9-0.3,1.9-0.4,3-0.6l1.6-0.3
		c0.5-0.1,1-0.1,1.5-0.2c2-0.2,4.1-0.4,6.1-0.4c2.1,0,4.1,0.1,6.2,0.3c2,0.2,4,0.6,5.9,1.3c0.3,0.3,0.6,0.6,0.7,1
		c0.1,0.1,0.1,0.3,0.1,0.4c0-0.2-0.1-0.3-0.2-0.4C127.3,70.6,126.9,71.2,126.5,71.6z"/>
	<path class="st6" d="M55.6,97.9c-0.2,0.6-0.3,0.6,0,1.1s0.7,0.5,0.8,0.4c0.1-0.2,0.1-0.4,0.1-0.9s1-0.8,0-0.9
		C55.4,97.5,55.6,97.9,55.6,97.9z"/>
	<path class="st7" d="M59.8,99.2c-0.2,0.6-0.3,0.6,0,1.1s0.7,0.5,0.8,0.4c0.1-0.2,0.1-0.4,0.1-0.9s1-0.8,0-0.9
		C59.7,98.8,59.8,99.2,59.8,99.2z"/>
	<path class="st7" d="M47.4,102.7c-0.2,0.6-0.3,0.6,0,1.1c0.3,0.4,0.7,0.5,0.8,0.4c0.1-0.2,0.1-0.4,0.1-0.9s1-0.8,0-0.9
		C47.2,102.3,47.4,102.7,47.4,102.7z"/>
	<path class="st6" d="M54.4,95.2c0.4,0.5,0.3,0.8,0.6,1.1s0.3,0.5,0.7,0.2c0.5-0.3,1.1-0.2,0.8-0.8c-0.3-0.6,1-1.2-0.4-1.1
		c-1.4,0.1-1.7,0-1.8,0.3S54.4,95.2,54.4,95.2z"/>
	<path class="st6" d="M59.1,106c-0.6,0.8-0.8,0.9-0.3,1.1c0.6,0.2,0.8,0.3,0.9,0c0.1-0.4,0.4-0.4,0.1-0.9s-0.1-0.7-0.4-0.8
		S59.1,106,59.1,106z"/>
	<path class="st7" d="M63.3,100.6c-0.6,0.8-0.8,0.9-0.3,1.1c0.6,0.2,0.8,0.3,0.9,0c0.1-0.4,0.4-0.4,0.1-0.9s-0.1-0.7-0.4-0.8
		C63.2,99.9,63.3,100.6,63.3,100.6z"/>
	<path class="st7" d="M48.5,106.9c-0.6,0.8-0.8,0.9-0.3,1.1c0.6,0.2,0.8,0.3,0.9,0c0.1-0.4,0.4-0.4,0.1-0.9s-0.1-0.7-0.4-0.8
		C48.5,106.2,48.5,106.9,48.5,106.9z"/>
	<path class="st6" d="M50.5,101.6c-0.9-0.4-1.4-0.7-1-1.1c0.3-0.4,0.6-0.7,0.8-0.5s0.2,0.1,0.4,0.6c0.2,0.5,0.8,0.4,0.4,0.7
		C50.8,101.6,50.5,101.6,50.5,101.6z"/>
	<path class="st6" d="M49.5,96.2c-0.4,0.7-1,0.9-0.4,1.3s1.1,0.5,1.4,0.3c0.3-0.2,0.6-0.1,0.4-0.5c-0.2-0.4,0.2-0.8-0.4-1
		C49.9,96,49.5,96.2,49.5,96.2z"/>
	<path class="st6" d="M78.6,84.7c-0.7,1.2-1.3,2.4-0.1,2.3c1.2-0.1,1.7-0.1,1.5-0.9c-0.2-0.8,0.1-1-0.1-1.5c-0.1-0.6-0.1-1.2-0.6-1
		S78.6,84.7,78.6,84.7z"/>
	<path class="st6" d="M28.1,104.1c0.1,0.5,0.5,0.8,0.9,0.5c0.4-0.3,0.9-0.5,0.4-0.8c-0.5-0.3-0.4-0.9-0.7-0.5
		C28.4,103.7,28.1,104.1,28.1,104.1z"/>
	<path class="st6" d="M20.9,99c-0.8,0.8-0.5,1.5,0.2,1.4c0.7-0.2,1.1-0.5,1-0.9C21.9,99,22.1,99,22,98.6c-0.1-0.4-0.1-1.5-0.4-0.7
		C21.3,98.7,20.9,99,20.9,99z"/>
	<path class="st6" d="M25.9,91.6c-0.6,0.5-0.5,0.8,0.1,0.8s1.2,0.1,0.9-0.3c-0.3-0.4,0.1-0.5-0.4-0.8S25.9,91.6,25.9,91.6z"/>
	<path class="st6" d="M27.5,95.1c-0.8,0.5-0.3,0.5-1.1,0.6s-1.6,0-0.8,0.2s1.3,0.3,1.7,0.2c0.4-0.1,0.8-0.1,0.7-0.4
		C27.9,95.4,27.5,95.1,27.5,95.1z"/>
	<path class="st6" d="M31.3,89.7c-0.4,0.4-0.5,0.6-0.3,0.7c0.2,0.2,0.3,0.2,0.5,0.1c0.2-0.1,0.3-0.3,0.3-0.3s0.4-0.4,0.2-0.6
		c-0.2-0.2-0.2-0.6-0.4-0.4C31.4,89.4,31.3,89.7,31.3,89.7z"/>
	<path class="st6" d="M39.5,87c-0.5,0.6-1.3,0.7-0.6,1c0.7,0.3,0.6,0.6,0.8,0.3c0.3-0.3,0.6-0.1,0.3-0.6C39.9,87,40,87,39.9,86.7
		c-0.1-0.2,0.2-0.6-0.1-0.2C39.6,86.8,39.5,87,39.5,87z"/>
	<path class="st6" d="M37.4,86.7c-0.2,0.4-0.5,0.5,0,0.5c0.5,0,0.8-0.2,0.7-0.4s0.4-0.5-0.1-0.4S37.4,86.7,37.4,86.7z"/>
	<path class="st6" d="M41.8,88.8c-0.7,0.5-1.2,0.6-0.6,0.7s0.9,0,1-0.1c0.1-0.2,0.4-0.3,0.1-0.6c-0.3-0.3,0-0.5-0.3-0.3
		C41.8,88.5,41.8,88.8,41.8,88.8z"/>
	<path class="st6" d="M47.1,85.3c-0.2,0.4-0.2,0.4-0.3,0.8s-0.2,0.6,0.3,0.4c0.5-0.2,0.9-0.2,0.7-0.6c-0.2-0.4,0-0.4-0.1-0.6
		C47.4,85.1,47.1,85.3,47.1,85.3z"/>
	<path class="st6" d="M52.7,84.9c-0.4,0.4-1.4,0.9-0.4,0.7s0.9-0.4,1-0.7c0.2-0.3,0.4-0.7,0-0.5C52.9,84.5,52.7,84.9,52.7,84.9z"/>
	<path class="st6" d="M58.4,84.7c0,0.5-0.2,0.8,0.3,0.6s0.9,0,0.6-0.5c-0.3-0.5-0.1-1.4-0.5-0.9C58.4,84.4,58.4,84.7,58.4,84.7z"/>
	<path class="st6" d="M64.8,82.9c-0.2,0.3-0.4,0.4-0.1,0.4c0.3,0,0.6-0.1,0.6-0.3c-0.1-0.2,0.3-0.5,0-0.5
		C65,82.6,64.8,82.9,64.8,82.9z"/>
	<path class="st6" d="M34.2,93.3c-0.5,0.8-0.9,1.4-0.2,1.4c0.7-0.1,1.4-0.2,1.3-0.5s0.1-0.8-0.2-1.1c-0.2-0.3,0.2-1.1-0.3-0.6
		C34.5,93,34.2,93.3,34.2,93.3z"/>
	<path class="st6" d="M34.2,90.1C33.8,90.9,33.5,91,34,91s1.2-0.1,1-0.4c-0.2-0.3-0.1-1-0.3-0.9C34.5,89.9,34.2,90.1,34.2,90.1z"/>
	<path class="st6" d="M49.3,87.5c-0.7,0.3-1.3,0.1-0.8,0.6c0.5,0.5,0.7,0.8,0.8,0.6s0.1-0.5,0.4-0.5s0.8-0.3,0.5-0.5
		c-0.3-0.2-0.6-0.3-0.8-0.2C49.3,87.5,49.3,87.5,49.3,87.5z"/>
	<path class="st6" d="M14,111.5c-1.1,0.8-1.6,1.3-1,2.1c0.6,0.8,1,1.3,1.3,0.8c0.3-0.6,0.5-1.3,0.8-1.8c0.3-0.5,1-0.4,1.1-0.8
		c0.1-0.4-0.4-1.1-1.1-1.2c-0.7-0.1-0.7-0.7-0.7-0.1S14,111.5,14,111.5z"/>
	<path class="st6" d="M17.6,117.2c-0.7,0.5-0.7,0.8,0.1,0.9s1.2,0.1,1.3-0.6c0.1-0.7,1.1-1.1,0.1-1.6c-1-0.4-0.9-1.3-1.5-0.6
		C17.1,116.2,17.6,117.2,17.6,117.2z"/>
	<path class="st6" d="M86.3,100.3c-0.3,0.6-0.3,1.1-0.2,1.5s1,0.4,1,0.1s0.1-0.4,0.3-0.8c0.2-0.4,1.3-0.7,0.6-0.9
		c-0.7-0.2-0.5-0.8-1.1-0.5S86.3,100.3,86.3,100.3z"/>
	<path class="st6" d="M81.6,102.9c-1,0.7-1.6,1.2-0.8,1.1c0.8-0.1,1-0.1,1.2-0.4s0.6-0.3,0.7-0.6c0.1-0.3,0.2-1.3-0.4-0.9
		C81.7,102.6,81.6,102.9,81.6,102.9z"/>
	<path class="st6" d="M85.3,104.7c-1,0.7-1.3,1-0.7,1.1c0.6,0.1,1.5,0.1,1.4-0.2c-0.1-0.3,0.3-0.6-0.1-0.8
		C85.6,104.6,85.3,104.7,85.3,104.7z"/>
	<path class="st6" d="M78.7,109.1c-0.6,0.8-0.7,0.7,0,1.1c0.7,0.4,1.2,0.5,1.1,0.1s0-1.3-0.1-1.6s0.5-1.3,0-0.6
		C79.1,108.8,78.7,109.1,78.7,109.1z"/>
	<path class="st6" d="M108.3,80.5c-0.8,0.6-3.4,1.8-1.3,1.4c2.1-0.4,2.4-0.8,2.5-1.1c0.2-0.3,0.8-0.7,0.1-0.9
		C108.8,79.8,108.3,80.5,108.3,80.5z"/>
	<path class="st6" d="M30.6,105.7c-0.3,0.8-0.6,0.7,0.2,1c0.8,0.3,1.7,0.4,1.5,0c-0.2-0.4,0.3-1.2-0.1-1.5c-0.4-0.3-0.5-0.7-0.7-0.3
		C31.2,105.3,30.6,105.7,30.6,105.7z"/>
	<path class="st7" d="M33.3,102.4c-0.3,0.8-0.6,0.7,0.2,1s1.7,0.4,1.5,0c-0.2-0.4,0.3-1.2-0.1-1.5c-0.4-0.3-0.5-0.7-0.7-0.3
		C33.9,102,33.3,102.4,33.3,102.4z"/>
	<path class="st7" d="M72.3,95.9c-0.3,0.4-0.4,0.6-0.1,1c0.3,0.5,1,0.7,0.9,0.5c-0.1-0.2-0.3-0.7-0.2-1c0.1-0.3,0.2-0.8,0.1-0.9
		c-0.2-0.1-0.4-0.2-0.5-0.1S72.3,95.9,72.3,95.9z"/>
	<path class="st7" d="M66.8,95.5c0.9,0.2-0.2,1.4,0.3,1.4s1,0,0.8-0.5c-0.2-0.4,0-0.9-0.1-1.1c-0.1-0.2-0.3-0.7-0.6-0.5
		C67,95.2,66.7,95.5,66.8,95.5z"/>
	<path class="st7" d="M60.2,94.8c0.5,0.5,0,0.5,0.5,0.8c0.5,0.3,1.3,0.3,1.2-0.2s0.5-0.8-0.3-1.1c-0.9-0.3-0.5-0.6-0.9-0.3
		C60.2,94.4,60.2,94.8,60.2,94.8z"/>
	<path class="st7" d="M72.4,102.7c-0.6,0.6-1.1,0.8-0.4,0.9c0.7,0.1,1.2,0.2,1.2-0.1s0.9-0.7,0-1C72.3,102.3,72.4,102.7,72.4,102.7z
		"/>
	<path class="st7" d="M82.7,92.2c-0.5,1-1,1.7-0.1,1.9c0.9,0.2,1.8,0.2,1.5-0.4c-0.3-0.6-0.6-0.7-0.4-1.4c0.2-0.7,0.3-2-0.2-1.3
		C82.9,91.8,82.7,92.2,82.7,92.2z"/>
	<path class="st7" d="M94.3,88.6c-0.3,0.7-0.8,1.1-0.2,1.1s1.1,0.2,1-0.1s-0.2-0.3-0.2-0.9c0-0.6,0-1.3-0.3-1.1
		C94.3,87.9,94.3,88.6,94.3,88.6z"/>
	<path class="st7" d="M103.6,81c-0.4,0.5-0.8,0.7-0.4,0.9c0.4,0.2,1.1,0.2,1.1,0c0-0.2-0.1-0.6,0.1-1s0.6-1.3,0-0.9
		C103.7,80.5,103.6,81,103.6,81z"/>
	<path class="st7" d="M98.5,77.8c0.1,0.5,0.4,0.8,0.4,1.2c0,0.4,0.2,0.7,0.4,0.3c0.2-0.4,0.5-0.7,0.2-1.2c-0.2-0.5,0.3-1.3-0.4-1
		C98.4,77.3,98.5,77.8,98.5,77.8z"/>
	<path class="st7" d="M103,73.4c0,0.1,0,0.1-0.1,0.2c-0.3,0.8-0.7,1-0.3,1.4c0.4,0.4,1.4,0.5,1.3,0.1c0-0.3,0-0.8,0-1.2
		c0-0.4,1.8-1.1,0.3-1.1C103,72.9,103,73.4,103,73.4z"/>
	<path class="st7" d="M22.9,103c-0.4,0.7-0.4,0.9-0.2,1.2s0.8,0.4,0.9,0.2s0.1-0.6,0.3-1c0.2-0.4,0.8-1.2,0.2-1.4
		c-0.6-0.1-1.6-0.8-1.5-0.3C22.6,102.2,22.9,103,22.9,103z"/>
	<path class="st7" d="M23,95.3c-0.5,0.6-0.9,0.9-0.4,1c0.5,0.1,1.3-0.3,1.2-0.6c-0.1-0.3,0.5-0.9,0.1-1.2c-0.3-0.4-0.8-0.9-0.9-0.6
		C22.9,94.3,23,95.3,23,95.3z"/>
	<path class="st7" d="M33.4,88.2c0.3,0.1-0.7,0.6-0.2,0.7c0.5,0.1,0.7,0,0.7-0.2s0.3-0.6,0-0.8c-0.3-0.1-0.4-0.3-0.5-0.2
		C33.3,87.8,33.4,88.1,33.4,88.2z"/>
	<path class="st7" d="M31.6,92.1c-0.5,0.5-0.8,0.3-0.5,0.7s0.1,0.6,0.6,0.6c0.5,0,1-0.1,0.9-0.5c-0.1-0.4,0.5-1.1,0-1
		C32.1,92,31.6,92.1,31.6,92.1z"/>
	<path class="st7" d="M45.3,87.9c0.4-0.3,0.7-1.1,1.1-0.5c0.3,0.6,1.1,0.6,0.6,1.3c-0.5,0.7-0.8,1-1.3,0.8c-0.5-0.3-0.7-0.5-0.6-0.8
		C45.1,88.3,45.3,87.9,45.3,87.9z"/>
	<path class="st7" d="M57.5,83.5c-0.4,0.5-0.4,1.1,0,0.9c0.5-0.2,1-0.6,1.1-1s1.9-1.3,0.4-1C57.5,82.7,57.5,83.5,57.5,83.5z"/>
	<path class="st7" d="M71.6,82.5c-0.6,0.3-1,0.5-0.6,0.8c0.3,0.2,0.9,0.2,1.2,0c0.3-0.1,1.1-0.3,0.6-0.6c-0.5-0.3-0.3-0.8-0.7-0.5
		S71.6,82.5,71.6,82.5z"/>
	<path class="st7" d="M58.9,111.9c-0.7,0.9-1,1.2-0.1,1.3c1,0.2,1.7,0,1.6-0.4c-0.1-0.4-0.2-0.8-0.1-1.2c0.1-0.4,0.6-1.3-0.1-0.9
		C59.5,111.1,58.9,111.9,58.9,111.9z"/>
	<path class="st7" d="M51.3,115.6c-0.7,1.2-1.3,1.5-0.3,1.6c1.1,0.1,1.6,0.3,1.8,0.1c0.2-0.2,0.4-1.2-0.1-1.6s0.3-1.5-0.5-0.8
		S51.3,115.6,51.3,115.6z"/>
	<path class="st7" d="M42.7,114.5c0.1,0.6,0.4,1.1,0.7,1.5c0.3,0.5,1,0.4,0.7-0.1c-0.3-0.5,0.2-0.8-0.2-1.1
		c-0.4-0.4,0.3-0.9-0.4-0.8C42.8,114.2,42.7,114.5,42.7,114.5z"/>
	<path class="st7" d="M36.7,116.8c-1.1,0.8-1.1,0.6-1.2,1.2c-0.1,0.6-0.6,0.9,0.4,1c0.9,0.1,1.5,0.8,1.5-0.2s0.5-1.9,0.7-2.1
		c0.3-0.2,0.6-0.7-0.1-0.4S36.7,116.8,36.7,116.8z"/>
	<path class="st7" d="M28.8,114.1c-0.5,0.7-0.5,1.4-0.1,1.4s1.3-0.3,1-0.9c-0.3-0.6,0.8-1.4-0.1-1.2
		C28.8,113.6,28.8,114.1,28.8,114.1z"/>
	<path class="st7" d="M71.7,107.8c-0.2,0.6,0.1,0.9-0.6,1.8c-0.8,0.9-1.3,1.6-0.5,1.3c0.8-0.2,1.8-0.3,1.8-0.8s-0.1-1.4-0.1-1.7
		c-0.1-0.3,0.1-0.7-0.1-0.9S71.8,107.6,71.7,107.8z"/>
	<path class="st7" d="M100.8,85.9c-0.1,0.6,0.1,1.7,0.4,1.7s1.3-0.5,1-0.9c-0.3-0.4-0.2-0.7-0.2-1c0-0.3,0.3-0.7-0.3-0.5
		C101.2,85.3,100.8,85.9,100.8,85.9z"/>
	<path class="st7" d="M97.4,90.8c-0.1,0.9-0.9,1.6-0.1,1.3c0.8-0.3,1.8-0.3,1.4-0.8c-0.4-0.6,0.1-1.4-0.5-1.3S97.4,90.8,97.4,90.8z"
		/>
	<path class="st7" d="M88.9,77.6c0.6,0.9,0.7,1.8,1.1,1.3c0.4-0.5,1.1-0.9,0.7-1.4c-0.4-0.5,0.3-1-0.6-1.1s-0.9-0.3-1.1,0.1
		C88.8,77,88.9,77.6,88.9,77.6z"/>
	<path class="st7" d="M86.9,84c-0.2,0.3-0.9,1-0.5,1.2c0.4,0.3,1.5,0.2,1.4-0.3c-0.1-0.5,0.7-1.1,0.1-1.6c-0.5-0.5-0.5-1.2-0.7-0.7
		C86.9,83.3,86.9,84,86.9,84z"/>
	<path class="st7" d="M15.3,99.5c-0.8,0.2-1.3,0.3-1.4,1.1c-0.1,0.8-0.5,0.9,0,1.1c0.5,0.2,0.1,0.9,0.5,0.8c0.5-0.1,1.1-0.9,0.8-1.4
		c-0.3-0.5-0.4-0.7-0.1-0.8C15.4,100.3,15.3,99.5,15.3,99.5z"/>
	<path class="st7" d="M11.1,117.5c-1,0.4-1.7-0.1-1.4,1.3c0.4,1.4,0,2,1.1,1.8s2.7-0.8,1.7-1.3c-1-0.5-1.3-0.6-1.3-1.1
		C11.3,117.7,11.1,117.5,11.1,117.5z"/>
</g>
</svg>
