<?xml version="1.0" encoding="utf-8"?>
<!-- Generator: Adobe Illustrator 24.1.2, SVG Export Plug-In . SVG Version: 6.00 Build 0)  -->
<svg version="1.1" id="Layer_1" xmlns="http://www.w3.org/2000/svg" xmlns:xlink="http://www.w3.org/1999/xlink" x="0px" y="0px"
	 viewBox="0 0 128 128" style="enable-background:new 0 0 128 128;" xml:space="preserve">
<style type="text/css">
	.st0{fill:#95CFE8;}
	.st1{fill:#2D2D2D;}
	.st2{fill:#F7EEED;}
</style>
<g>
	<path class="st0" d="M92.7,84.4c0,0.1,0,0.2,0,0.2l-0.1,0.3l-0.1,0.6c-0.1,0.4-0.2,0.8-0.3,1.2c-0.2,0.8-0.4,1.6-0.6,2.3
		c-0.9,3.1-1.9,6.1-3.1,9.1c-1.2,3-2.4,5.9-3.8,8.8c-0.7,1.5-1.4,2.9-2.1,4.3l-1.2,2.1c-0.4,0.7-1.2,2.2-1.2,2.2
		c-0.1,1.1-0.1,2.3-0.2,3.4c0,1.1-0.1,2.3-0.1,3.4c0,1.1-0.1,2.3-0.1,3.4c0,0.3-0.3,0.6-0.5,0.6c-0.1,0-0.1,0-0.2,0l-0.4,0l-0.9,0
		c-4.6-0.1-9.3-0.2-13.9-0.1l-7,0.3c-2.3,0.1-4.6,0.2-7,0.2c-2.3,0-4.6,0-7,0l-0.9,0c-0.2,0-0.4-0.1-0.6-0.2
		c-0.2-0.1-0.3-0.3-0.3-0.5c0-0.1,0-0.2,0-0.3l0-0.4l0.1-3.4l0.1-3.4l0.1-1.7l0-0.9c0-0.3,0-0.6,0-0.9c-0.1-1.2-0.4-2.5-0.9-3.6
		l-1.4-3.1c-1.8-4.1-3.2-8.4-4.2-12.8c-1.9-8.3-2.2-17-0.1-25.5c0.3,0.7,0.7,1.4,1.1,2.1c1.1,1.9,2.2,3.8,3.3,5.7
		c1.2,1.9,2.2,3.9,4.1,5.4c0.2,0.2,0.5,0.3,0.8,0.5c0.3,0.1,0.6,0.3,1,0.3c0.2,0,0.4,0.1,0.6,0.1c0.2,0,0.4,0,0.6-0.1l0.3-0.1
		c0.1,0,0.2-0.1,0.2-0.1l0.4-0.2c1-0.5,2-0.9,3-1.4c1.1-0.5,2.1-1.4,2.6-2.6c0.1-0.2,0.2-0.5,0.2-0.7c0,0,0,0,0,0
		c0.8,1.5,2.4,2.5,4.2,2.6c0.9,0.1,1.8-0.2,2.5-0.5c0.7-0.3,1.3-0.6,2-0.9l1-0.5c0.3-0.2,0.6-0.3,1-0.5c0.7-0.4,1.3-1.1,1.7-1.8
		c0.6-1.1,0.7-2.4,0.3-3.5c1,0,2,0,2.9-0.1c0.8,0,1.6-0.1,2.4-0.2c0.4,0,0.8,0,1,0c0,0.1,0.1,0.3,0.1,0.4c0.1,0.7,0.2,1.5,0.1,2.3
		c0,0.8-0.1,1.6-0.3,2.2c0,0.1-0.1,0.3-0.1,0.3l-0.1,0.1L72,78.9l-0.2,0.2l-0.9,0.8c-0.6,0.5-1.3,1-1.9,1.6
		c-1.3,1.1-2.5,2.2-3.6,3.4c-2.3,2.3-4.3,5.1-5.6,8.1c-1.3,3-1.9,6.3-1.8,9.5c0,0,0.1,0.1,0.1,0.1c0.1,0,0.1,0,0.1-0.1
		c0.1-3.2,0.8-6.4,2.2-9.3c1.4-2.9,3.4-5.4,5.7-7.7c1.2-1.1,2.4-2.2,3.7-3.2l1.9-1.5l1-0.8l0.2-0.2l0.1-0.1l0.1,0
		c0,0,0.1-0.1,0.1-0.1c0.3-0.3,0.3-0.5,0.4-0.8c0.3-0.9,0.3-1.7,0.4-2.6c0-0.8,0-1.7-0.1-2.6c0-0.2-0.1-0.4-0.2-0.6
		c0.3-0.2,0.6-0.5,0.9-0.8c0.4-0.5,0.7-1,1-1.5c0.2-0.5,0.4-1.1,0.5-1.6c0.1-0.3,0.1-0.6,0.1-0.8l0-0.8l-0.2,0.8
		c-0.1,0.3-0.2,0.5-0.3,0.8c-0.2,0.5-0.4,1-0.8,1.4c-0.3,0.4-0.7,0.8-1.1,1.1c-0.2,0.2-0.4,0.3-0.6,0.4c-0.2,0.1-0.3,0.1-0.5,0.2
		c0,0,0,0,0,0c-0.6-0.1-1-0.1-1.4-0.1c-0.9,0-1.7,0.1-2.5,0.1c-1.6,0.1-3.2,0.1-4.8-0.1c-1.6-0.2-3.1-0.6-4.6-1.2
		c-2.9-1.1-5.5-3.1-6.8-5.8c-0.4-0.7-0.6-1.4-0.8-2.1c0-0.1-0.1-0.2-0.1-0.3c-0.1-0.2-0.1-0.5-0.1-0.7c0-0.2,0-0.3,0-0.5
		c1.3,0.2,8.1,1.4,9.5,0.4c0.6-0.9,0.7-2.4,0.7-3.1c0.2,0,0.4,0,0.6,0.1c0.4,0,0.8,0.1,1.2,0.1c3.3,0.3,6.5,0.7,9.8,1.1
		c1.6,0.2,3.2,0.5,4.9,0.7c0.8,0.1,1.6,0.3,2.3,0.6c0.7,0.3,1.3,0.7,1.9,1.3c0.5,0.5,1,1.1,1.3,1.9l1.1,2.1c0.7,1.4,1.5,2.9,2.2,4.3
		c1.4,2.9,2.8,5.8,4.1,8.8c0.3,0.8,0.6,1.5,0.9,2.3C92.3,82.9,92.6,83.7,92.7,84.4z"/>
	<path class="st0" d="M37.1,71.6c0.7,2,1.7,4,2.9,5.8c1.2,1.8,2.8,3.4,4.5,4.4c0.2,0.1,0.4,0.2,0.6,0.3c0.2,0,0.4,0.1,0.6,0.1
		c0.1,0,0.2,0,0.3,0c0.1,0,0.2,0,0.2,0c0,0,0.1,0,0.1,0l0.1,0l0.1,0l0.4-0.2c1-0.4,2-0.8,3.1-1.2c0.5-0.2,0.9-0.4,1.3-0.7
		c0.4-0.3,0.7-0.6,1-1c0.3-0.5,0.5-1,0.6-1.6l-0.3-0.7l-0.8-2c-0.5-1.3-1.1-2.7-1.7-4c-1.2-2.6-2.6-5.1-3.9-7.7
		c-0.7-1.3-1.3-2.6-1.9-3.9l-0.9-1.9l-0.5-1c-0.1-0.1-0.1-0.3-0.2-0.5c-0.3-0.2-0.7-0.3-1-0.3c-0.5-0.1-1,0-1.4,0
		c-0.5,0.1-0.9,0.3-1.3,0.5c-1,0.5-2,1-3,1.5l-0.4,0.2c0,0-0.1,0-0.1,0l0,0c0,0,0,0-0.1,0.1c-0.1,0-0.1,0.1-0.1,0.1c0,0,0,0-0.1,0.1
		l-0.1,0.1c-0.2,0.3-0.3,0.7-0.3,1.2c-0.1,0.9-0.1,1.9,0.1,3c0.1,1,0.3,2.1,0.6,3.1C35.7,67.6,36.4,69.6,37.1,71.6z"/>
	<path class="st0" d="M44.3,55.2c0,0.1,0.1,0.3,0.2,0.4l0.4,1l0.8,2c0.6,1.3,1.1,2.7,1.6,4c1,2.7,2,5.4,3.2,8
		c0.6,1.3,1.2,2.6,1.9,3.9l1,1.9l0.5,0.9l0.3,0.5c0.1,0.1,0.2,0.3,0.3,0.4c0.7,1,1.9,1.6,3,1.6c0.3,0,0.6,0,0.9-0.1
		c0.3-0.1,0.5-0.1,0.9-0.3c0.7-0.3,1.3-0.6,2-0.8l1-0.4c0.3-0.1,0.7-0.3,1-0.4c0.6-0.3,1-0.7,1.4-1.2c0.4-0.5,0.6-1.1,0.8-1.8
		c0.1-0.4,0.1-0.8,0-1.2c-0.6,0-1.1,0-1.7-0.1c-1.7-0.2-3.4-0.6-5-1.2c-1.6-0.6-3.1-1.5-4.5-2.6c-1.3-1.1-2.5-2.4-3.3-4
		c-0.4-0.8-0.7-1.6-1-2.4C50,63,49.9,62.5,49.9,62c0-0.5,0.1-0.9,0.2-1.4c0.2-0.9,0.6-1.8,1.2-2.5c0.6-0.7,1.5-1.3,2.5-1.6
		c0.5-0.1,1.1-0.1,1.6-0.1l1.2,0.2l1.8,0.2c-1.1-1.9-2.2-3.9-3.3-5.8c-0.3-0.6-0.7-1.1-1.3-1.5c-0.5-0.4-1.1-0.6-1.7-0.7
		c-0.6-0.1-1.2-0.1-1.8,0.1c-0.5,0.2-1.2,0.6-1.9,0.9c-0.7,0.3-1.3,0.6-2,0.9c-0.2,0.1-0.4,0.2-0.5,0.2c-0.1,0.1-0.3,0.1-0.4,0.2
		c-0.2,0.1-0.4,0.3-0.6,0.5c-0.4,0.4-0.7,0.9-0.8,1.4c-0.1,0.5-0.2,1.1,0,1.6C44.2,54.9,44.3,55.1,44.3,55.2z"/>
	<path class="st0" d="M55.3,49.6c0.2,0.3,0.3,0.7,0.5,1c1,2.1,2,4.2,2.9,6.2l0.2,0l4.9,0.6c3.3,0.4,6.5,0.9,9.8,1.4
		c1.6,0.3,3.2,0.6,4.9,0.9c0.8,0.1,1.7,0.3,2.5,0.7c0.8,0.4,1.5,0.9,2.1,1.5c0.6,0.6,1.1,1.4,1.4,2.1l1.1,2.2l2.1,4.4
		c0.2,0.3-0.4-11.6-0.4-11.6l0,0l0,0L89,45.7l1.9-13.5c0.6-4.5,1.3-9,1.9-13.5l1-6.7c0.3-2-0.3-4.1-1.8-5.1C91.3,6.3,90.3,6,89.4,6
		c-0.9,0-1.9,0.4-2.6,0.9c-0.8,0.6-1.4,1.4-1.9,2.2c-0.2,0.4-0.4,0.9-0.5,1.4l-0.3,1.7l-2.8,13.4L78.5,39L77,45.6L76.3,49
		c-0.3,1.3-1.5,2.3-2.9,2.5c-0.7,0.1-1.3-0.1-1.9-0.4c-0.6-0.3-1.1-0.8-1.4-1.4c-0.1-0.3-0.3-0.6-0.3-0.9l-0.1-0.8l-0.3-1.7
		l-1.1-6.7c-0.4-2.2-0.7-4.5-1.1-6.7c-0.4-2.2-0.8-4.5-1.2-6.7c-0.8-4.5-1.6-8.9-2.5-13.4L63,9.3l-0.3-1.7l-0.2-0.8
		c-0.1-0.3-0.1-0.5-0.2-0.8c-0.5-2-2-3.7-4-4.2c-1-0.2-2-0.2-3,0.1c-1,0.3-1.8,0.8-2.5,1.6c-0.7,0.7-1.2,1.6-1.4,2.6
		c-0.1,0.5-0.2,1-0.2,1.5c0,0.5,0,1,0.1,1.6c0.5,4.5,1,9,1.4,13.6l1.3,13.6c0.2,2.3,0.4,4.5,0.6,6.8C55,45.3,55.1,47.4,55.3,49.6
		C55.3,49.6,55.3,49.6,55.3,49.6z"/>
	<path class="st1" d="M95.6,8.4c-0.4-1.3-1.2-2.4-2.4-3.2C92.1,4.4,90.7,4,89.3,4c-1.4,0-2.7,0.6-3.8,1.4c-1.1,0.8-1.9,1.9-2.4,3
		c-0.3,0.6-0.5,1.2-0.6,1.8l-0.3,1.7l-2.6,13.4l-2.5,13.4l-1.2,6.7l-0.6,3.3c-0.2,0.9-1,1.7-2,1.8c-1,0.2-2-0.4-2.5-1.2
		c-0.1-0.2-0.2-0.5-0.3-0.7l-0.2-0.8l-0.3-1.7L69,39.4c-0.4-2.2-0.8-4.5-1.1-6.7c-0.4-2.3-0.7-4.5-1-6.7c-0.7-4.5-1.3-9-2-13.5
		l-0.5-3.4l-0.2-1.7L64,6.5c-0.1-0.3-0.1-0.6-0.2-0.9c-0.3-1.2-0.8-2.4-1.7-3.3c-0.8-1-2-1.7-3.3-2.1c-1.3-0.3-2.6-0.3-3.9,0
		c-1.3,0.4-2.4,1.1-3.3,2c-0.9,0.9-1.5,2.1-1.8,3.3c-0.2,0.6-0.3,1.2-0.3,1.9c0,0.6,0.1,1.3,0.1,1.8c0.5,4.5,1.1,9,1.7,13.5
		l1.8,13.5c0.3,2.3,0.6,4.5,0.9,6.8c0.3,2,0.6,4.1,0.9,6.1c-0.1-0.2-0.3-0.4-0.4-0.5c-0.6-0.6-1.3-1-2.1-1.3
		c-0.8-0.2-1.7-0.3-2.5-0.1c-0.4,0.1-0.9,0.3-1.2,0.4l-1,0.4c-0.7,0.3-1.4,0.5-2,0.8c-0.2,0.1-0.3,0.1-0.5,0.2
		c-0.2,0.1-0.4,0.2-0.6,0.3c-0.4,0.2-0.7,0.5-1,0.8c-1.2,1.2-1.7,3-1.4,4.6c-0.2-0.1-0.3-0.1-0.5-0.2c-1.2-0.4-2.5-0.3-3.7,0.1
		c-1,0.4-2.1,0.8-3.1,1.2l-0.4,0.1l-0.1,0l-0.1,0.1L34,56.4c-0.2,0.1-0.3,0.3-0.5,0.4c-0.1,0.1-0.1,0.1-0.2,0.2l-0.2,0.2
		c-0.4,0.6-0.6,1.3-0.7,1.9c-0.2,1.2-0.1,2.4,0.1,3.5c0.2,1.1,0.5,2.2,0.8,3.3c0.4,1.2,0.9,2.4,1.4,3.6c-0.7,1.8-1.4,3.7-1.8,5.7
		c-0.5,2.3-0.9,4.5-1,6.9c-0.3,4.6,0.1,9.3,1.1,13.8l0.4,1.7c0.1,0.6,0.3,1.1,0.4,1.7c0.3,1.1,0.7,2.2,1,3.3
		c0.4,1.1,0.8,2.2,1.3,3.2l0.6,1.6l0.7,1.6l1.5,3.1c0.5,0.9,0.8,1.9,0.9,3c0,0.3,0.1,0.5,0.1,0.8l0,0.9l0.1,1.7l0.2,6.8l0,0.4
		c0,0.1,0,0.4,0.1,0.5c0.1,0.4,0.3,0.7,0.6,0.9c0.3,0.2,0.7,0.4,1,0.4l0.9,0c2.3-0.1,4.6-0.1,7,0c2.3,0,4.6,0.1,7,0.2l7,0.3
		c4.6,0.1,9.3,0,13.9-0.1l0.9,0l0.4,0c0.2,0,0.4,0,0.6-0.1c0.9-0.3,1.5-1.1,1.4-1.9c-0.1-1.2-0.1-2.3-0.2-3.4
		c-0.1-1.1-0.2-2.3-0.3-3.4c-0.1-0.6-0.1-1.5-0.1-2.2c0-0.6,0.2-1.2,0.5-1.7c0.3-0.4,0.5-0.9,0.9-1.3c0.5-0.6,1-1.3,1.5-1.9
		c1-1.3,1.9-2.7,2.7-4.1c1.7-2.8,3-5.8,4.1-8.9c1-3.1,1.9-6.3,2.3-9.5c0.1-0.8,0.2-1.6,0.3-2.4l0.1-1.2l0.1-0.6l0-0.3
		c0-0.1,0-0.3,0-0.4c-0.1-0.9-0.4-1.6-0.7-2.4c-0.3-0.8-0.6-1.5-0.9-2.3c-1.1-2.5-2.2-5-3.4-7.4c0,0,0,0,0,0l-0.3-13l2.3-13.4
		l2.2-13.5c0.7-4.5,1.5-9,2.2-13.5l1.1-6.8C96.1,11,96,9.6,95.6,8.4z M44.3,53.1c0.1-0.5,0.4-1,0.8-1.4c0.2-0.2,0.4-0.4,0.6-0.5
		c0.1-0.1,0.2-0.1,0.4-0.2c0.1-0.1,0.3-0.1,0.5-0.2c0.7-0.3,1.3-0.6,2-0.9c0.6-0.3,1.4-0.7,1.9-0.9c0.5-0.2,1.2-0.2,1.8-0.1
		c0.6,0.1,1.2,0.3,1.7,0.7c0.5,0.4,0.9,0.9,1.3,1.5c1.1,1.9,2.2,3.9,3.3,5.8l-1.8-0.2l-1.2-0.2c-0.5-0.1-1.1-0.1-1.6,0.1
		c-1,0.3-1.9,0.8-2.5,1.6c-0.6,0.7-1,1.6-1.2,2.5c-0.1,0.5-0.2,0.9-0.2,1.4c0,0.5,0.1,1,0.2,1.4c0.2,0.9,0.6,1.7,1,2.4
		c0.8,1.5,2,2.9,3.3,4c1.3,1.1,2.9,1.9,4.5,2.6c1.6,0.6,3.3,1,5,1.2c0.6,0.1,1.1,0.1,1.7,0.1c0,0.4,0,0.8,0,1.2
		c-0.1,0.7-0.4,1.3-0.8,1.8c-0.4,0.5-0.9,0.9-1.4,1.2c-0.3,0.1-0.6,0.2-0.9,0.4l-1,0.4c-0.7,0.3-1.4,0.5-2,0.8
		c-0.3,0.1-0.6,0.2-0.9,0.3c-0.3,0.1-0.6,0.1-0.9,0.1c-1.2,0-2.3-0.6-3-1.6c-0.1-0.1-0.2-0.3-0.3-0.4L54,77.4l-0.5-0.9l-1-1.9
		c-0.7-1.3-1.3-2.6-1.9-3.9c-1.2-2.6-2.2-5.3-3.2-8c-0.5-1.3-1.1-2.7-1.6-4l-0.8-2l-0.4-1c-0.1-0.2-0.1-0.3-0.2-0.4
		c-0.1-0.1-0.1-0.3-0.1-0.4C44.1,54.3,44.1,53.7,44.3,53.1z M61.2,62c-1.4,1-8.2-0.2-9.5-0.4h0c0,0,0,0,0,0c0-0.2,0-0.3,0.1-0.5
		c0.2-0.7,0.4-1.3,0.9-1.8c0.4-0.5,1-0.9,1.6-1c0.3-0.1,0.5-0.1,0.9,0l1.2,0.2l2.5,0.3c0.2,0,0.4,0,0.6,0.1c0,0,0,0,0,0
		c0.8,0.1,1.6,0.2,2.4,0.2C61.8,59.6,61.8,61.1,61.2,62z M34.6,62.4c-0.1-1-0.2-2-0.1-3c0.1-0.4,0.2-0.9,0.3-1.2l0.1-0.1
		c0,0,0.1-0.1,0.1-0.1c0,0,0.1-0.1,0.1-0.1c0,0,0,0,0.1-0.1l0,0c0,0,0.1,0,0.1,0l0.4-0.2c1-0.5,2-1,3-1.5c0.5-0.2,0.9-0.4,1.3-0.5
		c0.5-0.1,1-0.1,1.4-0.1c0.4,0.1,0.7,0.2,1,0.3c0.1,0.2,0.2,0.4,0.2,0.5l0.5,1l0.9,1.9c0.6,1.3,1.3,2.6,1.9,3.9
		c1.4,2.5,2.8,5.1,3.9,7.7c0.6,1.3,1.2,2.6,1.7,4l0.8,2l0.3,0.7c-0.1,0.6-0.3,1.1-0.6,1.6c-0.3,0.4-0.6,0.7-1,1
		c-0.4,0.3-0.8,0.5-1.3,0.7c-1,0.4-2.1,0.8-3.1,1.2l-0.4,0.2l-0.1,0l-0.1,0c0,0-0.1,0-0.1,0c-0.1,0-0.2,0-0.2,0c-0.1,0-0.2,0-0.3,0
		c-0.2,0-0.4-0.1-0.6-0.1c-0.2-0.1-0.4-0.2-0.6-0.3c-1.7-1-3.3-2.6-4.5-4.4c-1.2-1.8-2.1-3.8-2.9-5.8c-0.7-2-1.4-4.1-1.9-6.1
		C34.9,64.5,34.7,63.5,34.6,62.4z M91.2,79.9c0.3,0.8,0.6,1.5,0.9,2.3c0.3,0.7,0.6,1.5,0.6,2.3c0,0.1,0,0.2,0,0.2l-0.1,0.3l-0.1,0.6
		c-0.1,0.4-0.2,0.8-0.3,1.2c-0.2,0.8-0.4,1.6-0.6,2.3c-0.9,3.1-1.9,6.1-3.1,9.1c-1.2,3-2.4,5.9-3.8,8.8c-0.7,1.5-1.4,2.9-2.1,4.3
		l-1.2,2.1c-0.4,0.7-1.2,2.2-1.2,2.2c-0.1,1.1-0.1,2.3-0.2,3.4c0,1.1-0.1,2.3-0.1,3.4c0,1.1-0.1,2.3-0.1,3.4c0,0.3-0.3,0.6-0.5,0.6
		c-0.1,0-0.1,0-0.2,0l-0.4,0l-0.9,0c-4.6-0.1-9.3-0.2-13.9-0.1l-7,0.3c-2.3,0.1-4.6,0.2-7,0.2c-2.3,0-4.6,0-7,0l-0.9,0
		c-0.2,0-0.4-0.1-0.6-0.2c-0.2-0.1-0.3-0.3-0.3-0.5c0-0.1,0-0.2,0-0.3l0-0.4l0.1-3.4l0.1-3.4l0.1-1.7l0-0.9c0-0.3,0-0.6,0-0.9
		c-0.1-1.2-0.4-2.5-0.9-3.6l-1.4-3.1c-1.8-4.1-3.2-8.4-4.2-12.8c-1.9-8.3-2.2-17-0.1-25.5c0.3,0.7,0.7,1.4,1.1,2.1
		c1.1,1.9,2.2,3.8,3.3,5.7c1.2,1.9,2.2,3.9,4.1,5.4c0.2,0.2,0.5,0.3,0.8,0.5c0.3,0.1,0.6,0.3,1,0.3c0.2,0,0.4,0.1,0.6,0.1
		c0.2,0,0.4,0,0.6-0.1l0.3-0.1c0.1,0,0.2-0.1,0.2-0.1l0.4-0.2c1-0.5,2-0.9,3-1.4c1.1-0.5,2.1-1.4,2.6-2.6c0.1-0.2,0.2-0.5,0.2-0.7
		c0,0,0,0,0,0c0.8,1.5,2.4,2.5,4.2,2.6c0.9,0.1,1.8-0.2,2.5-0.5c0.7-0.3,1.3-0.6,2-0.9l1-0.5c0.3-0.2,0.6-0.3,1-0.5
		c0.7-0.4,1.3-1.1,1.7-1.8c0.6-1.1,0.7-2.4,0.3-3.5c1,0,2,0,2.9-0.1c0.8,0,1.6-0.1,2.4-0.2c0.4,0,0.8,0,1,0c0,0.1,0.1,0.3,0.1,0.4
		c0.1,0.7,0.2,1.5,0.1,2.3c0,0.8-0.1,1.6-0.3,2.2c0,0.1-0.1,0.3-0.1,0.3l-0.1,0.1L72,78.9l-0.2,0.2l-0.9,0.8c-0.6,0.5-1.3,1-1.9,1.6
		c-1.3,1.1-2.5,2.2-3.6,3.4c-2.3,2.3-4.3,5.1-5.6,8.1c-1.3,3-1.9,6.3-1.8,9.5c0,0,0.1,0.1,0.1,0.1c0.1,0,0.1,0,0.1-0.1
		c0.1-3.2,0.8-6.4,2.2-9.3c1.4-2.9,3.4-5.4,5.7-7.7c1.2-1.1,2.4-2.2,3.7-3.2l1.9-1.5l1-0.8l0.2-0.2l0.1-0.1l0.1,0
		c0,0,0.1-0.1,0.1-0.1c0.3-0.3,0.3-0.5,0.4-0.8c0.3-0.9,0.3-1.7,0.4-2.6c0-0.8,0-1.7-0.1-2.6c0-0.2-0.1-0.4-0.2-0.6
		c0.3-0.2,0.6-0.5,0.9-0.8c0.4-0.5,0.7-1,1-1.5c0.2-0.5,0.4-1.1,0.5-1.6c0.1-0.3,0.1-0.6,0.1-0.8l0-0.8l-0.2,0.8
		c-0.1,0.3-0.2,0.5-0.3,0.8c-0.2,0.5-0.4,1-0.8,1.4c-0.3,0.4-0.7,0.8-1.1,1.1c-0.2,0.2-0.4,0.3-0.6,0.4c-0.2,0.1-0.3,0.1-0.5,0.2
		c0,0,0,0,0,0c-0.6-0.1-1-0.1-1.4-0.1c-0.9,0-1.7,0.1-2.5,0.1c-1.6,0.1-3.2,0.1-4.8-0.1c-1.6-0.2-3.1-0.6-4.6-1.2
		c-2.9-1.1-5.5-3.1-6.8-5.8c-0.4-0.7-0.6-1.4-0.8-2.1c0-0.1-0.1-0.2-0.1-0.3c2,0.6,6.3,0.7,9.8,0.2c0.4-0.1,0.7-0.4,0.8-0.9
		c0.1-1,0.2-2.6,0.2-3.1c0.4,0,0.8,0.1,1.2,0.1c3.3,0.3,6.5,0.7,9.8,1.1c1.6,0.2,3.2,0.5,4.9,0.7c0.8,0.1,1.6,0.3,2.3,0.6
		c0.7,0.3,1.3,0.7,1.9,1.3c0.5,0.5,1,1.1,1.3,1.9l1.1,2.1c0.7,1.4,1.5,2.9,2.2,4.3C88.5,74,89.9,76.9,91.2,79.9z M93.8,11.9l-1,6.7
		c-0.7,4.5-1.3,9-1.9,13.5L89,45.6l-1.8,13.5v0.1c0,0,0.6,11.9,0.4,11.6l-2.1-4.4l-1.1-2.2c-0.3-0.7-0.8-1.5-1.4-2.1
		c-0.6-0.6-1.3-1.1-2.1-1.5c-0.8-0.4-1.7-0.6-2.5-0.7c-1.6-0.3-3.2-0.6-4.9-0.9c-3.2-0.5-6.5-1-9.8-1.4L59,57l-0.2,0
		c-1-2.1-2-4.2-2.9-6.3c-0.2-0.3-0.3-0.7-0.5-1c0,0,0,0,0,0c-0.2-2.2-0.3-4.4-0.5-6.5c-0.2-2.3-0.4-4.5-0.6-6.8l-1.3-13.6
		c-0.5-4.5-0.9-9.1-1.4-13.6c-0.1-0.6-0.1-1.1-0.1-1.6c0-0.5,0.1-1,0.2-1.5c0.3-1,0.8-1.9,1.4-2.6c0.7-0.7,1.5-1.3,2.5-1.6
		c0.9-0.3,2-0.3,3-0.1c2,0.5,3.4,2.1,4,4.2c0.1,0.2,0.1,0.5,0.2,0.8l0.2,0.8L63,9.3l0.6,3.3c0.8,4.5,1.7,9,2.5,13.4
		c0.4,2.2,0.8,4.5,1.2,6.7c0.4,2.2,0.7,4.5,1.1,6.7l1.1,6.7l0.3,1.7l0.1,0.9c0.1,0.3,0.2,0.6,0.3,0.9c0.3,0.6,0.8,1.1,1.4,1.4
		c0.6,0.3,1.3,0.4,1.9,0.4c1.3-0.1,2.5-1.1,2.8-2.5l0.7-3.4l1.5-6.7l2.8-13.3l2.8-13.4l0.3-1.7c0.1-0.5,0.3-1,0.5-1.4
		c0.4-0.9,1.1-1.7,1.9-2.3C87.5,6.4,88.5,6,89.4,6c0.9,0,1.9,0.3,2.6,0.8C93.6,7.8,94.2,9.9,93.8,11.9z"/>
	<path class="st2" d="M61.2,62c-1.4,1-8.2-0.2-9.5-0.4c0,0,0,0,0,0c0-0.2,0-0.3,0.1-0.5c0.2-0.7,0.4-1.3,0.9-1.8
		c0.4-0.5,1-0.9,1.6-1c0.3-0.1,0.5-0.1,0.9,0l1.2,0.2l2.5,0.3c0.2,0,0.4,0,0.6,0.1c0,0,0,0,0,0c0.8,0.1,1.6,0.2,2.4,0.2
		C61.8,59.6,61.8,61.1,61.2,62z"/>
</g>
</svg>
