<?xml version="1.0" encoding="utf-8"?>
<!-- Generator: Adobe Illustrator 24.1.2, SVG Export Plug-In . SVG Version: 6.00 Build 0)  -->
<svg version="1.1" id="Layer_1" xmlns="http://www.w3.org/2000/svg" xmlns:xlink="http://www.w3.org/1999/xlink" x="0px" y="0px"
	 viewBox="0 0 128 128" style="enable-background:new 0 0 128 128;" xml:space="preserve">
<style type="text/css">
	.st0{fill:#595855;}
	.st1{fill:#DB5240;}
	.st2{fill:#333333;}
	.st3{fill:#2D2D2D;}
</style>
<g>
	<rect x="1.5" y="56.6" class="st0" width="1.1" height="69.8"/>
	<path class="st1" d="M118.2,4.2c-1-0.5-2.1-0.9-3.3-1.1c-1.1-0.2-2.5-0.3-3.7-0.4c-2.3-0.2-4.7,0.4-6.8,1.6c-2.1,1.2-4,2.9-5.4,4.9
		c-0.7,1-1.3,2.1-1.7,3.3c-0.2,0.6-0.4,1.2-0.5,1.8c-0.1,0.3-0.1,0.6-0.2,0.9L96.5,16c0,0.1-0.1,0.2-0.1,0.4
		c3.1-0.2,5.9-0.5,8.6-0.7c0.1-1.2,0.5-2.3,1-3.4c0.3-0.7,0.7-1.3,1.2-1.9c0.5-0.6,1.2-1.1,1.9-1.4c0.7-0.4,1.5-0.5,2.3-0.6
		c0.8-0.1,1.6,0,2.4,0.3c0.8,0.3,1.5,0.8,2.1,1.4c0.6,0.6,1,1.3,1.4,2c0.7,1.5,0.8,3.2,0.4,4.7c-0.2,0.8-0.5,1.5-0.9,2.2
		c-0.4,0.7-1,1.3-1.4,1.7c-0.9,0.9-1.8,1.8-2.7,2.8c-0.9,0.9-1.9,1.8-2.6,2.7c-1.5,1.9-2.4,4.4-2.9,6.9c-0.3,1.3-0.4,2.5-0.4,3.8
		c0,0.2,0,0.2,0.2,0.3c0,0,0.2,0,0.4,0l0.5,0l2,0c1.3,0,2.6,0,3.9-0.1l1,0c0.1,0,0.4,0,0.4,0c0,0,0,0,0.1,0c0,0,0,0,0,0l0-0.4
		c0-0.3,0-0.7-0.1-1c0-1.4,0-2.8,0.8-4.2c0.5-0.7,0.9-1.2,1.4-1.7l1.4-1.4c1.8-1.9,3.4-3.8,4.7-5.9c1.3-2,2-4.4,2-6.7
		c0-2.4-0.6-4.7-1.8-6.6C122,6.8,120.3,5.2,118.2,4.2z"/>
	<path class="st1" d="M113.3,43.7c-0.5-0.2-0.9-0.3-1.3-0.4c-0.4-0.1-0.8-0.1-1.2-0.1c-0.8,0-1.6,0.2-2.2,0.7
		c-0.6,0.5-1.2,1.3-1.5,2.2c-0.3,1,0,2.2,0.9,2.9c0.4,0.3,0.9,0.5,1.5,0.6c0.5,0,1,0,1.4-0.1c0.9-0.2,1.6-0.4,2.6-0.8
		c0.5-0.2,1-0.5,1.3-1c0.4-0.4,0.6-1,0.5-1.6c0-0.6-0.2-1.2-0.6-1.6C114.3,44.2,113.8,43.9,113.3,43.7z"/>
	<rect x="100.1" y="56.6" class="st0" width="1.1" height="69.8"/>
	<path class="st2" d="M119.5,1.4c-1.3-0.6-2.7-1-4.2-1.2c-1.5-0.2-2.7-0.1-4.1-0.2c-2.9-0.1-5.8,0.9-8.1,2.5
		c-4.6,3.1-7.7,8.5-7,14.1c2.9,0.3,6.2,0.6,9.6,0.7l0.7,0l0.1-0.8c0.4-2.3,1.6-4.8,3.5-5.5c0.9-0.4,2.1-0.4,2.9,0
		c0.8,0.3,1.5,1.1,1.9,2c0.4,0.9,0.5,2,0.2,3c-0.1,0.5-0.3,1-0.6,1.4c-0.3,0.5-0.6,0.8-1,1.3c-0.9,1-1.7,2-2.6,3
		c-0.8,1-1.7,1.9-2.5,3.2c-1.4,2.4-2,5.1-2.4,7.7c-0.2,1.3-0.3,2.6-0.3,4c0,0.2,0,0.5,0.2,0.7c0.2,0.2,0.4,0.4,0.7,0.5
		c0.3,0.1,0.4,0,0.6,0l0.5,0l2,0c1.3,0,2.6,0,3.9,0.1l1,0c0.2,0,0.3,0,0.5,0c0.3,0,0.6-0.2,0.8-0.4c0.2-0.2,0.4-0.5,0.4-0.8l0-0.5
		c0-0.3,0-0.6,0-0.9c0.1-1.2,0.3-2.5,0.9-3.3c0.3-0.4,0.8-0.8,1.3-1.2l1.5-1.3c2-1.7,3.9-3.7,5.4-6c1.6-2.3,2.6-5.2,2.7-8
		c0.1-2.9-0.5-5.9-2-8.4C124.4,4.7,122.2,2.6,119.5,1.4z M123.1,22.2c-1.3,2.1-2.9,4.1-4.7,5.9l-1.4,1.4c-0.5,0.5-0.9,0.9-1.4,1.7
		c-0.8,1.5-0.8,2.9-0.8,4.2c0,0.3,0,0.7,0.1,1l0,0.4c0,0,0,0,0,0c0,0,0,0-0.1,0c-0.1,0-0.3,0-0.4,0l-1,0c-1.3,0-2.6,0.1-3.9,0.1
		l-2,0l-0.5,0c-0.2,0-0.4,0-0.4,0c-0.1-0.1-0.2-0.1-0.2-0.3c0.1-1.3,0.2-2.6,0.4-3.8c0.5-2.5,1.4-5,2.9-6.9c0.7-0.9,1.7-1.8,2.6-2.7
		c0.9-0.9,1.8-1.8,2.7-2.8c0.4-0.4,1-1,1.4-1.7c0.4-0.7,0.7-1.4,0.9-2.2c0.4-1.5,0.3-3.2-0.4-4.7c-0.3-0.7-0.8-1.4-1.4-2
		c-0.6-0.6-1.3-1.1-2.1-1.4c-0.8-0.3-1.6-0.4-2.4-0.3c-0.8,0.1-1.6,0.2-2.3,0.6c-0.8,0.3-1.4,0.9-1.9,1.4c-0.5,0.6-0.9,1.2-1.2,1.9
		c-0.5,1.1-0.8,2.2-1,3.4c-2.7,0.2-5.5,0.5-8.6,0.7c0-0.2,0.1-0.3,0.1-0.4l0.1-0.5c0-0.3,0.1-0.6,0.2-0.9c0.1-0.6,0.3-1.2,0.5-1.8
		c0.4-1.2,1-2.3,1.7-3.3c1.4-2.1,3.3-3.8,5.4-4.9c2.1-1.2,4.5-1.8,6.8-1.6c1.3,0.1,2.6,0.2,3.7,0.4c1.1,0.2,2.3,0.6,3.3,1.1
		c2.1,1,3.8,2.6,5,4.6c1.2,2,1.8,4.3,1.8,6.6C125,17.8,124.4,20.1,123.1,22.2z"/>
	<path class="st2" d="M113.1,40.7c-0.7-0.4-1.5-0.6-2.3-0.6c-1.6-0.1-3.2,0.7-4.2,1.9c-0.5,0.6-0.9,1.3-1.1,2
		c-0.2,0.7-0.2,1.5-0.1,2.2c0.3,1.4,1,2.6,1.8,3.6c0.8,1,2,2,3.6,2.2c1.5,0.2,3.2-0.6,3.9-1.9c0.4-0.6,0.6-1.4,0.7-2
		c0.1-0.7,0.1-1.3,0.2-1.9c0-1.2-0.1-2.6-0.8-3.9C114.4,41.7,113.8,41.1,113.1,40.7z M114.7,47.9c-0.4,0.5-0.8,0.8-1.3,1
		c-1,0.4-1.7,0.6-2.6,0.8c-0.4,0.1-0.9,0.2-1.4,0.1c-0.5,0-1-0.2-1.5-0.6c-0.9-0.7-1.2-1.9-0.9-2.9c0.3-1,0.9-1.7,1.5-2.2
		c0.7-0.5,1.5-0.7,2.2-0.7c0.4,0,0.8,0,1.2,0.1c0.4,0.1,0.9,0.2,1.3,0.4c0.5,0.2,1,0.5,1.3,0.9c0.4,0.4,0.6,1,0.6,1.6
		C115.2,46.8,115,47.4,114.7,47.9z"/>
	<path class="st3" d="M95.7,126.9l-3.4-0.1c0,0-0.1-0.1-0.1-0.1c0.6-0.4,1.1-0.8,1.6-1.3c0.7-0.6,1.5-1.3,2.1-2
		c0.1-0.1,0.3-0.3,0.4-0.4c0.7,0.7,1.5,1.4,2.2,2v-0.1c-0.7-0.7-1.3-1.4-2-2.2c0.5-0.5,0.9-1,1.4-1.5c0.2-0.2,0.4-0.5,0.6-0.7v-0.8
		c-0.4,0.3-0.8,0.6-1.2,1c-0.5,0.4-1,0.9-1.5,1.3c-1.1-1.2-2.2-2.3-3.3-3.5c1.1-1.1,2.2-2.2,3.2-3.3c0.1-0.1,0.2-0.3,0.3-0.4
		c0.8,0.7,1.6,1.4,2.4,2.1v-0.2c-0.7-0.8-1.4-1.5-2-2.3c0.7-0.8,1.4-1.5,2-2.3v-0.4c-0.9,0.7-1.7,1.5-2.5,2.2
		c-0.9-1-1.8-1.9-2.7-2.9c-0.2-0.3-0.5-0.5-0.7-0.8c0.4-0.4,0.7-0.8,1.1-1.1c0.9-0.9,1.7-1.8,2.5-2.7c0.8,0.7,1.6,1.5,2.3,2.2v-0.1
		c-0.7-0.8-1.4-1.5-2.1-2.3c0.7-0.8,1.4-1.6,2.1-2.4v-0.2c-0.8,0.7-1.7,1.5-2.5,2.2c-1.2-1.3-2.3-2.5-3.5-3.7
		c1.2-1.3,2.4-2.5,3.6-3.8c0.8,0.7,1.6,1.5,2.4,2.2v-0.1c-0.7-0.8-1.5-1.6-2.2-2.3c0.7-0.8,1.5-1.6,2.2-2.4v-0.2
		c-0.8,0.8-1.6,1.5-2.5,2.3c-1.2-1.3-2.4-2.5-3.5-3.7c1.2-1.3,2.4-2.5,3.6-3.8c0.8,0.7,1.6,1.5,2.4,2.2v-0.2
		c-0.7-0.8-1.4-1.6-2.1-2.3c0.7-0.8,1.4-1.6,2.1-2.3v-0.2c-0.8,0.7-1.6,1.5-2.4,2.2c-1.2-1.3-2.4-2.5-3.6-3.8
		c1.2-1.2,2.4-2.5,3.5-3.7c0.8,0.7,1.6,1.5,2.5,2.2v-0.2c-0.7-0.8-1.4-1.6-2.1-2.4c0.7-0.8,1.4-1.5,2.1-2.3v-0.2
		c-0.8,0.7-1.6,1.5-2.4,2.2c-0.7-0.8-1.4-1.5-2.1-2.3c-0.5-0.5-1-1-1.5-1.5c1.1-1.2,2.3-2.4,3.4-3.6c0.8,0.8,1.7,1.5,2.5,2.2v-0.3
		c-0.7-0.8-1.4-1.6-2.1-2.4c0.7-0.7,1.4-1.5,2.1-2.2v-0.2c-0.8,0.7-1.5,1.4-2.3,2.1c-0.1-0.1-0.3-0.3-0.4-0.5
		c-1.1-1.2-2.2-2.3-3.3-3.4c1.1-1.1,2.2-2.3,3.3-3.4c0.5,0.5,1.1,1,1.6,1.5c0.3,0.3,0.7,0.6,1.1,0.9v-0.8c-0.2-0.2-0.3-0.4-0.5-0.6
		c-0.5-0.6-1-1.1-1.5-1.7c0.6-0.6,1.1-1.2,1.7-1.7c0.1,0.1,0.2,0.1,0.4,0.2v-0.1c-0.1-0.1-0.2-0.1-0.2-0.2c0.1-0.1,0.2-0.2,0.2-0.2
		V63c-0.1,0.1-0.2,0.2-0.3,0.3c-0.7-0.4-1.4-0.7-2.1-1c-0.9-0.3-1.9-0.6-2.8-0.8c-1.9-0.4-3.9-0.6-5.8-0.6l-1.5,0
		c-0.5,0-1,0.1-1.5,0.1l-2.9,0.3c-1.9,0.2-3.8,0.2-5.7,0.2c-3.8,0-7.6-0.2-11.4-0.7c-3.8-0.5-7.6-1.1-11.3-2.1c0,0-0.1,0-0.1,0
		c0,0,0,0.1,0,0.1c3.7,1.1,7.4,1.9,11.2,2.5c0.9,0.1,1.8,0.3,2.8,0.4c-1.1,0.9-2.2,1.8-3.3,2.8c-0.2,0.2-0.4,0.4-0.7,0.6
		C62.3,64,61.2,63,60,61.9c1.1,1.2,2.1,2.3,3.2,3.4c-0.8,0.7-1.5,1.5-2.3,2.2c-0.5,0.5-0.9,1-1.4,1.5c-0.8-0.8-1.6-1.5-2.4-2.3
		c0.8,0.8,1.5,1.6,2.3,2.5c-0.5,0.5-1,1-1.4,1.6c-1,1.1-1.9,2.2-2.8,3.4c1.2-0.9,2.3-1.8,3.4-2.8c0.5-0.5,1-0.9,1.5-1.4
		c2.4,2.6,4.8,5.2,7.3,7.7c-0.8,0.9-1.7,1.9-2.5,2.8c1-0.8,1.9-1.6,2.8-2.4c1.2,1.2,2.4,2.5,3.6,3.7c-0.9,1-1.8,2-2.7,3
		c1-0.9,2.1-1.8,3.1-2.7c1.2,1.2,2.3,2.4,3.5,3.6c-2.6,2.6-5.2,5.2-7.8,7.8c-0.3-0.2-0.5-0.5-0.7-0.7c0.2,0.3,0.5,0.5,0.7,0.8
		c0,0-0.1,0.1-0.1,0.1c-3.5,3.6-7,7.2-10.5,10.9c3.7-3.4,7.4-6.8,11-10.3c0,0,0,0,0.1-0.1c1.2,1.3,2.4,2.6,3.6,3.9
		c-1.2,1.3-2.5,2.6-3.7,3.8c-0.7-0.6-1.4-1.3-2.1-1.9c0.6,0.7,1.3,1.4,1.9,2.1c-1.7,1.8-3.4,3.6-5.1,5.4c1.8-1.7,3.6-3.3,5.4-5
		c1.2,1.3,2.4,2.7,3.7,4c-1.2,1.3-2.4,2.6-3.7,3.9c-0.4-0.3-0.8-0.7-1.2-1c0.3,0.4,0.7,0.8,1,1.2c-0.6,0.7-1.2,1.3-1.8,2
		c0.7-0.6,1.3-1.2,1.9-1.8c1,1.2,2,2.3,3,3.4c0.2,0.2,0.4,0.4,0.5,0.6c-1.7,1.8-3.3,3.6-4.9,5.4c1.8-1.6,3.6-3.3,5.3-5
		c1.1,1.2,2.3,2.4,3.4,3.5c-0.1,0.1-0.1,0.1-0.2,0.2c-1.1,1.2-2.2,2.3-3.3,3.5c-0.1-0.1-0.2-0.1-0.3-0.2c-0.6-0.5-1.3-1-2-1.3
		c0.4,0.7,0.9,1.3,1.5,1.9c0.1,0.1,0.1,0.2,0.2,0.2c-1.1,1.2-2.2,2.4-3.3,3.6c-5.5,0-10.9,0.1-16.4,0.2l-16.1,0.1
		c-1.2-1.4-2.5-2.7-3.7-4.1c0.2-0.2,0.4-0.5,0.6-0.7c0.6-0.7,1.1-1.4,1.6-2.1c-0.8,0.5-1.5,1-2.1,1.6c-0.2,0.2-0.5,0.4-0.7,0.6
		c-1-1.1-2.1-2.2-3.2-3.3c-1.3-1.4-2.7-2.8-4-4.2c0,0,0.1-0.1,0.1-0.1c1.1-1.1,2.2-2.2,3.4-3.4c1.7,1.6,3.5,3.3,5.3,4.9
		c-1.6-1.8-3.2-3.6-4.9-5.3c0.9-0.9,1.9-1.9,2.8-2.8c0.3-0.3,0.7-0.7,1-1c0.4,0.4,0.9,0.8,1.3,1.2c-0.4-0.4-0.8-0.9-1.2-1.3
		c1.2-1.3,2.5-2.6,3.7-3.9c1.7,1.6,3.4,3.2,5.2,4.8c-1.6-1.8-3.2-3.5-4.8-5.2c0.4-0.5,0.8-0.9,1.3-1.4c-0.5,0.4-0.9,0.8-1.4,1.2
		c-1.3-1.4-2.6-2.7-3.9-4.1c0.1-0.1,0.1-0.1,0.2-0.2c1.1-1.1,2.1-2.2,3.2-3.4c3.5,3.5,7,6.9,10.7,10.1c-3.2-3.7-6.6-7.3-10-10.8
		c1.7-1.8,3.4-3.6,5.1-5.5c-1.8,1.7-3.7,3.4-5.5,5.1c-1.2-1.3-2.5-2.5-3.8-3.8c0.9-0.9,1.8-1.8,2.6-2.7c1.6-1.7,3.2-3.4,4.9-5.1
		c0.7,0.7,1.5,1.3,2.3,2c-0.7-0.8-1.3-1.5-2-2.3c1.6-1.7,3.2-3.5,4.8-5.2c-1.7,1.6-3.4,3.2-5.1,4.8c-1-1.1-1.9-2.1-2.9-3.2
		c-0.1-0.1-0.2-0.2-0.3-0.3c2.6-2.6,5.1-5.2,7.6-7.9l0.1-0.1l0,0c0.4,0.2,0.7,0.5,1.1,0.7l0,0c0,0,0,0,0.1,0c0,0,0-0.1,0-0.1
		c-0.3-0.3-0.7-0.7-1-1c0.2-0.7,0.4-1.3,0.6-2l0.4-1.1c0.1-0.4,0.2-0.8,0.3-1.1c-0.2,0.4-0.4,0.7-0.5,1.1l-0.5,1.1
		c-0.3,0.6-0.5,1.2-0.8,1.7c-0.9-0.7-1.9-1.3-2.8-1.9c-0.6-0.4-1.2-0.7-1.8-1c0.3-0.7,0.7-1.4,1-2.1c-0.4,0.6-0.9,1.3-1.3,1.9
		c-0.9-0.4-1.8-0.9-2.7-1.2c-0.5-0.2-1.1-0.4-1.6-0.7c1-0.3,2-0.7,2.9-1c-1.1,0.3-2.2,0.6-3.4,0.8c-1-0.4-2-0.7-3-1
		c-1.3-0.4-2.6-0.6-3.9-0.9c0.2-0.3,0.5-0.5,0.7-0.8c-0.3,0.3-0.6,0.5-0.9,0.8c-0.4-0.1-0.9-0.2-1.3-0.2c-3.6-0.6-7.2-0.8-10.8-0.9
		c-3.3,0-6.7,0.1-10,0.4v0.1c2.1-0.1,4.3-0.2,6.4-0.2c0,0,0,0,0.1,0.1c-0.7,0.5-1.4,1-2,1.5c-0.7,0.6-1.4,1.2-2,1.9
		c-0.1,0.1-0.1,0.1-0.2,0.2c-0.7-0.7-1.5-1.4-2.2-2.1v0.1c0.7,0.7,1.4,1.4,2,2.1c-0.5,0.5-1,1.1-1.5,1.7c-0.2,0.2-0.4,0.4-0.5,0.7
		v0.8c0.4-0.3,0.7-0.6,1.1-0.9c0.6-0.5,1.1-1,1.6-1.5c0.5,0.5,0.9,1,1.4,1.5l1.9,1.9c-1.1,1.1-2.2,2.3-3.3,3.4
		c-0.1,0.2-0.3,0.3-0.4,0.5c-0.8-0.7-1.6-1.4-2.3-2.2v0.2c0.7,0.8,1.4,1.5,2.1,2.3c-0.7,0.8-1.4,1.6-2.1,2.4v0.3
		c0.9-0.7,1.7-1.5,2.6-2.2c1.1,1.2,2.3,2.4,3.4,3.6c-0.4,0.4-0.9,0.9-1.3,1.3c-0.8,0.8-1.5,1.6-2.3,2.5C5.8,80.7,5,80,4.2,79.2v0.2
		c0.7,0.8,1.4,1.6,2.1,2.3c-0.7,0.8-1.4,1.6-2.1,2.4v0.2c0.8-0.7,1.7-1.5,2.5-2.2c1.2,1.3,2.3,2.5,3.5,3.7c-1.2,1.2-2.4,2.5-3.5,3.7
		c-0.8-0.8-1.6-1.5-2.5-2.3v0.2c0.7,0.8,1.4,1.6,2.2,2.4c-0.7,0.8-1.4,1.6-2.2,2.4v0.2C5,91.8,5.8,91,6.6,90.3
		c1.2,1.3,2.3,2.5,3.5,3.8c0,0,0,0,0.1,0.1c-1.2,1.2-2.4,2.5-3.5,3.7c-0.8-0.8-1.7-1.5-2.5-2.3v0.2c0.7,0.8,1.5,1.6,2.2,2.4
		c-0.7,0.8-1.5,1.6-2.2,2.4v0.1c0.8-0.8,1.6-1.5,2.4-2.3c1.2,1.3,2.4,2.6,3.7,3.9c-1.2,1.2-2.4,2.5-3.5,3.7
		c-0.8-0.8-1.7-1.5-2.5-2.3v0.2c0.7,0.8,1.5,1.6,2.2,2.5c-0.7,0.8-1.5,1.6-2.2,2.3v0.1c0.8-0.7,1.6-1.5,2.4-2.2
		c0.8,0.9,1.7,1.8,2.5,2.7c0.4,0.4,0.7,0.8,1.1,1.1c-1.1,1.2-2.3,2.4-3.4,3.6c-0.8-0.8-1.7-1.5-2.6-2.3v0.4c0.7,0.8,1.4,1.6,2.1,2.4
		c-0.7,0.8-1.4,1.5-2.1,2.3v0.1c0.8-0.7,1.5-1.5,2.3-2.2c0.1,0.2,0.3,0.3,0.4,0.5c1.1,1.1,2.1,2.3,3.2,3.4c-1.1,1.2-2.2,2.3-3.3,3.5
		c-0.5-0.5-1-0.9-1.5-1.4c-0.4-0.3-0.8-0.7-1.2-1v0.7c0.2,0.3,0.4,0.5,0.6,0.8c0.4,0.5,0.9,1,1.4,1.5c-0.7,0.7-1.4,1.5-2,2.2v0.1
		c0.7-0.7,1.5-1.4,2.2-2.1c0.1,0.1,0.3,0.3,0.4,0.4c0.7,0.7,1.4,1.3,2.1,2c0.5,0.5,1.1,0.9,1.7,1.3c-0.1,0.1-0.2,0.2-0.3,0.3
		l-6.1,0.1c0,0.1,0,0.2,0,0.2l22,0.3l25.3,0.2c8.4,0.1,16.9,0.3,25.3,0.2c4.2-0.1,8.4-0.1,12.7-0.2l6.3-0.2c1,0,2-0.1,3-0.1
		c-0.1-0.1-0.1-0.3-0.1-0.5C97.7,126.9,96.7,126.9,95.7,126.9z M23.1,113.7C23.1,113.7,23.1,113.8,23.1,113.7
		c-1.2-1-2.3-2.1-3.4-3.2c-0.1-0.1-0.1-0.1-0.2-0.2c1-1,2-2,3-3c0.1-0.1,0.2-0.2,0.4-0.4c0.6,0.6,1.3,1.3,1.9,1.9
		c0.6,0.5,1.1,1.1,1.7,1.6C25.4,111.5,24.3,112.6,23.1,113.7z M22.9,89.3c-0.3-0.3-0.5-0.5-0.8-0.8c-0.9-0.9-1.7-1.7-2.6-2.6
		c0.5-0.5,0.9-0.9,1.4-1.4c0.7-0.7,1.4-1.4,2-2c0.4,0.4,0.8,0.8,1.1,1.2l2.2,2.2C25.2,87,24,88.1,22.9,89.3
		C22.9,89.3,22.9,89.3,22.9,89.3z M26.1,93.9c-0.9,0.9-1.8,1.8-2.8,2.8c-0.2,0.2-0.4,0.4-0.6,0.6c-1.1-1.1-2.2-2.2-3.2-3.3
		c1.1-1.1,2.2-2.2,3.4-3.3C24,91.7,25,92.8,26.1,93.9z M22.9,81.1c-1.1-1.1-2.3-2.2-3.4-3.3c0.7-0.7,1.4-1.4,2.1-2.1
		c0.4-0.4,0.8-0.9,1.3-1.3c0.4,0.4,0.7,0.7,1.1,1.1c0.8,0.7,1.6,1.5,2.4,2.2C25.2,78.8,24,80,22.9,81.1z M22.3,81.7
		c-0.7,0.7-1.4,1.4-2,2.1c-0.5,0.5-0.9,0.9-1.4,1.4c-1.1-1.1-2.3-2.3-3.4-3.4c0.9-0.8,1.7-1.7,2.6-2.5c0.3-0.3,0.6-0.6,1-1
		C20.1,79.5,21.2,80.6,22.3,81.7z M21.4,89.2c0.3,0.3,0.5,0.5,0.8,0.8c-1.1,1.1-2.2,2.2-3.3,3.4c-0.2-0.2-0.4-0.4-0.6-0.6
		c-0.9-0.9-1.9-1.9-2.8-2.8c1.1-1.1,2.3-2.2,3.4-3.3C19.7,87.5,20.5,88.3,21.4,89.2z M18.8,94.7c1.1,1.1,2.2,2.2,3.3,3.3
		c-1.1,1.1-2.3,2.3-3.4,3.5c-0.2-0.2-0.4-0.4-0.6-0.6c-0.9-0.9-1.8-1.8-2.8-2.8C16.5,96.9,17.7,95.8,18.8,94.7z M18.7,102.8
		c1.2,1.2,2.3,2.3,3.5,3.5c-0.1,0.1-0.2,0.2-0.3,0.3c-1,1-2,2-3,3c-1.2-1.2-2.3-2.3-3.5-3.5C16.5,105,17.6,103.9,18.7,102.8z
		 M19.4,102.1c1.1-1.1,2.3-2.3,3.4-3.4c0.7,0.7,1.5,1.4,2.2,2.1c0.5,0.4,0.9,0.9,1.4,1.3c-1.2,1.2-2.4,2.3-3.6,3.5
		C21.7,104.4,20.6,103.3,19.4,102.1z M25.6,100.2c-0.7-0.7-1.4-1.5-2.1-2.2c0.2-0.2,0.4-0.4,0.6-0.6c0.9-0.9,1.8-1.9,2.7-2.8
		c1.2,1.2,2.4,2.4,3.6,3.6c-1.2,1.2-2.4,2.3-3.6,3.5C26.5,101.2,26,100.7,25.6,100.2z M26.8,93.2c-1.1-1.1-2.1-2.2-3.2-3.3
		c0,0,0,0,0,0c1.1-1.1,2.3-2.3,3.4-3.4l3.2,3.2C29.1,90.9,27.9,92.1,26.8,93.2z M27,85.2c-0.7-0.7-1.5-1.5-2.2-2.2
		c-0.4-0.4-0.8-0.8-1.2-1.1c1.2-1.2,2.3-2.3,3.5-3.5c0.6,0.5,1.1,1,1.7,1.5c-0.5-0.6-1-1.2-1.5-1.8c0.7-0.7,1.5-1.5,2.2-2.2
		c0.5-0.5,1-1,1.5-1.6c1.1,1.1,2.3,2.3,3.5,3.4c-0.6,0.5-1.1,1.1-1.7,1.6C30.9,81.2,28.9,83.2,27,85.2z M28.9,75.2
		c-0.7,0.7-1.4,1.4-2.2,2.1c-0.7-0.8-1.4-1.6-2.2-2.4c-0.4-0.4-0.7-0.8-1.1-1.1c0.6-0.6,1.1-1.1,1.7-1.7c0.6-0.6,1.2-1.3,1.8-1.9
		c1,1,2,2,3,3c0.2,0.2,0.3,0.3,0.5,0.5C29.9,74.2,29.4,74.7,28.9,75.2z M24.5,71.4c-0.6,0.5-1.1,1.1-1.7,1.7c-0.9-1-1.8-1.9-2.8-2.9
		c-0.2-0.2-0.4-0.4-0.6-0.6c0.7-0.7,1.3-1.3,2-2c0.5-0.5,1-1.1,1.5-1.7c0.5,0.6,1,1.1,1.6,1.7c0.6,0.7,1.3,1.3,1.9,2
		C25.8,70.2,25.1,70.8,24.5,71.4z M22.2,73.7c-0.4,0.4-0.9,0.8-1.3,1.3c-0.7,0.7-1.4,1.4-2.1,2.1c-1.1-1.1-2.3-2.2-3.4-3.3
		c0,0,0.1-0.1,0.1-0.1c1.1-1.1,2.2-2.2,3.2-3.3c0.2,0.2,0.4,0.4,0.5,0.6C20.2,71.9,21.2,72.8,22.2,73.7z M14.8,72.9
		c0,0-0.1,0.1-0.1,0.1c-0.2-0.2-0.4-0.4-0.7-0.6l-2.8-2.7c0.1-0.1,0.2-0.2,0.2-0.2c1.1-1.1,2.2-2.2,3.3-3.4c0,0,0,0,0.1,0.1
		c1.1,1.2,2.2,2.3,3.3,3.5C17,70.8,15.9,71.8,14.8,72.9z M14.9,74.2c1.1,1.1,2.2,2.3,3.3,3.4c-0.3,0.3-0.6,0.6-1,1
		c-0.9,0.9-1.7,1.7-2.5,2.6c-0.7-0.7-1.3-1.3-2-2c-0.5-0.5-1-0.9-1.4-1.4C12.5,76.6,13.7,75.4,14.9,74.2z M14.8,82.5
		c1.1,1.2,2.2,2.3,3.4,3.4c-1.1,1.1-2.2,2.3-3.3,3.4c-1.2-1.2-2.4-2.3-3.5-3.4C12.4,84.7,13.6,83.6,14.8,82.5z M17.5,93.4
		c0.2,0.2,0.4,0.4,0.6,0.6c-1.1,1.1-2.2,2.3-3.3,3.4c-1.2-1.2-2.4-2.4-3.6-3.5c0.3-0.3,0.7-0.6,1-0.9c0.8-0.8,1.7-1.6,2.5-2.4
		C15.7,91.5,16.6,92.5,17.5,93.4z M17.4,101.5c0.2,0.2,0.4,0.4,0.6,0.6c-1.1,1.1-2.2,2.3-3.3,3.4c-1.1-1-2.1-2.1-3.2-3.1
		c-0.1-0.1-0.2-0.2-0.4-0.3c1.2-1.1,2.3-2.2,3.5-3.4C15.6,99.7,16.5,100.6,17.4,101.5z M18.2,110.3c-1.1,1.1-2.2,2.3-3.3,3.4
		c-1.2-1.2-2.4-2.4-3.6-3.5c0.9-0.9,1.8-1.7,2.6-2.6c0.3-0.3,0.6-0.6,0.8-0.8C15.8,108,17,109.1,18.2,110.3z M15.1,115.4
		c1.1,1.1,2.1,2.1,3.2,3.2c-0.6,0.6-1.2,1.2-1.8,1.8c-0.5,0.6-1.1,1.1-1.6,1.7c-1.1-1.2-2.2-2.3-3.3-3.4c-0.1-0.1-0.2-0.2-0.3-0.3
		c0.6-0.6,1.3-1.2,1.9-1.8c0.5-0.5,1-1,1.5-1.5C14.9,115.2,15,115.3,15.1,115.4z M15.8,114.7c-0.1-0.1-0.2-0.2-0.3-0.3
		c1.1-1.1,2.3-2.2,3.4-3.3c0.1,0.1,0.1,0.1,0.2,0.2c1.1,1.1,2.2,2.2,3.3,3.3c-1.1,1.1-2.3,2.3-3.4,3.4
		C17.9,116.8,16.9,115.7,15.8,114.7z M29.9,107.2c-1,0.9-1.9,1.8-2.9,2.7c-0.5-0.6-1.1-1.1-1.6-1.7c-0.6-0.7-1.3-1.3-1.9-2
		c1.2-1.2,2.4-2.4,3.6-3.6c1.3,1.2,2.5,2.4,3.8,3.5C30.6,106.6,30.2,106.9,29.9,107.2z M35,102.5c-1.3,1.2-2.7,2.4-4,3.6
		c-1.2-1.3-2.4-2.6-3.6-3.8c1.2-1.2,2.3-2.4,3.5-3.6C32.4,100,33.7,101.3,35,102.5z M34.6,94.2c-1.1,1.1-2.2,2.1-3.4,3.2
		c-0.1,0.1-0.1,0.1-0.2,0.2c-1.2-1.2-2.4-2.4-3.6-3.7c1.1-1.2,2.3-2.3,3.4-3.5L34.6,94.2z M38.7,81.5c-1.7,1.6-3.4,3.3-5,4.9
		c-0.9,0.9-1.8,1.8-2.7,2.7c-1.1-1.1-2.2-2.1-3.2-3.2c2-2,3.9-3.9,5.9-5.9c0.5-0.6,1.1-1.1,1.6-1.7c0.1,0.1,0.2,0.2,0.3,0.3
		C36.5,79.6,37.6,80.6,38.7,81.5z M38,67c0.6,0.3,1.2,0.5,1.9,0.8c0.8,0.4,1.6,0.8,2.4,1.2c0.2,0.1,0.4,0.2,0.6,0.4
		c-2.6,2.5-5.2,5-7.8,7.6c-1.1-1.2-2.2-2.3-3.4-3.5C33.8,71.4,35.9,69.3,38,67L38,67z M32.1,64.7l0.4,0.1c0.8,0.3,1.7,0.6,2.5,0.9
		c0.9,0.3,1.7,0.7,2.6,1c-2.1,2-4.3,4.1-6.4,6.2c-0.2-0.2-0.3-0.3-0.5-0.5c-1-1-2-2-3-3C29.1,67.9,30.6,66.3,32.1,64.7
		C32.1,64.7,32.1,64.7,32.1,64.7z M30,64c0.4,0.1,0.8,0.3,1.3,0.4l0.5,0.2C30.1,66,28.6,67.5,27,69c-0.7-0.6-1.3-1.3-2-1.9
		c-0.6-0.5-1.1-1-1.7-1.6c0.8-0.9,1.6-1.7,2.4-2.6C27.2,63.2,28.6,63.6,30,64z M24.8,62.7c0.2,0,0.4,0.1,0.6,0.1
		c-0.8,0.8-1.7,1.5-2.5,2.3c-1.2-1.1-2.4-2.2-3.6-3.2C21.1,62.1,23,62.3,24.8,62.7z M19.3,61.9c1,1.2,2.1,2.4,3.2,3.6
		c-0.6,0.5-1.1,1-1.7,1.6c-0.7,0.6-1.4,1.3-2,2c-1.1-1.1-2.3-2.3-3.4-3.4c0,0-0.1,0-0.1-0.1c0,0,0,0,0,0c1.1-1.2,2.2-2.4,3.2-3.7
		C18.8,61.8,19.1,61.8,19.3,61.9z M14.2,61.5c1.4,0.1,2.8,0.2,4.3,0.3c-1.3,1-2.5,2.1-3.7,3.2c0,0,0,0-0.1,0.1
		c-1.3-1.2-2.6-2.4-4-3.6c0,0,0-0.1,0.1-0.1C11.9,61.4,13,61.4,14.2,61.5z M10.6,61.4c0,0,0.1,0,0.1,0
		C10.7,61.4,10.7,61.4,10.6,61.4C10.7,61.4,10.6,61.4,10.6,61.4z M8.6,67.2c-0.5-0.5-1-0.9-1.5-1.4c0.1-0.1,0.1-0.1,0.2-0.2
		c0.6-0.6,1.3-1.3,1.9-2c0.5-0.6,1.1-1.3,1.5-2c1.1,1.4,2.3,2.7,3.5,4c-1.2,1.1-2.3,2.2-3.4,3.3c-0.1,0.1-0.2,0.2-0.3,0.3L8.6,67.2z
		 M7,73.8c0.1-0.1,0.3-0.3,0.4-0.4c1.2-1.1,2.3-2.2,3.4-3.3l2.7,2.8c0.2,0.2,0.4,0.4,0.6,0.7c-1.2,1.2-2.4,2.4-3.6,3.7
		C9.4,76,8.2,74.9,7,73.8z M7,81.8c0.8-0.8,1.6-1.5,2.4-2.3c0.4-0.4,0.9-0.8,1.3-1.3c0.5,0.5,0.9,1,1.4,1.5c0.7,0.7,1.3,1.4,2,2
		c-1.1,1.2-2.3,2.4-3.4,3.5C9.5,84.1,8.3,83,7,81.8z M7,89.9c1.2-1.2,2.5-2.3,3.7-3.5c1.1,1.2,2.3,2.4,3.5,3.6
		c-0.8,0.8-1.6,1.7-2.4,2.5c-0.3,0.3-0.6,0.7-1,1c0,0,0,0,0,0C9.5,92.3,8.2,91.1,7,89.9z M6.9,98.1c1.2-1.2,2.5-2.3,3.7-3.5
		c1.2,1.2,2.3,2.4,3.5,3.6c-1.1,1.2-2.3,2.3-3.4,3.5C9.5,100.5,8.2,99.3,6.9,98.1z M9.6,108.7c-0.9-0.8-1.8-1.7-2.7-2.5
		c1.2-1.2,2.5-2.3,3.7-3.5c0.1,0.1,0.2,0.2,0.3,0.4c1,1.1,2.1,2.1,3.1,3.2c-0.3,0.3-0.6,0.6-0.8,0.9c-0.8,0.9-1.7,1.8-2.5,2.7
		C10.4,109.4,10,109,9.6,108.7z M7.5,114.6c-0.2-0.1-0.3-0.3-0.5-0.4c1.2-1.1,2.4-2.3,3.6-3.4c1.2,1.2,2.4,2.4,3.6,3.7
		c-0.5,0.5-1,1-1.5,1.5c-0.6,0.6-1.2,1.3-1.8,1.9C9.7,116.8,8.6,115.7,7.5,114.6z M9.5,124.8c-0.6-0.7-1.3-1.5-2-2.1
		c-0.1-0.1-0.3-0.3-0.4-0.4c1.2-1.1,2.3-2.2,3.5-3.3c0.1,0.1,0.2,0.2,0.3,0.3c1.1,1.1,2.3,2.2,3.4,3.3c-1.2,1.3-2.4,2.5-3.5,3.8
		C10.4,125.9,10,125.4,9.5,124.8z M10.3,127c0.1-0.1,0.2-0.2,0.3-0.3c0.1,0.1,0.3,0.2,0.4,0.3L10.3,127z M11.2,127
		c-0.1-0.2-0.2-0.3-0.3-0.5c1.3-1.1,2.6-2.3,3.9-3.5c0.1,0.1,0.2,0.2,0.3,0.3c1.3,1.2,2.7,2.4,4.1,3.6L11.2,127z M26.7,126.8l-0.6,0
		l-6.9,0.1c-1.2-1.4-2.4-2.8-3.6-4.1c-0.1-0.1-0.2-0.2-0.3-0.3c0.6-0.5,1.2-1.1,1.7-1.6c0.6-0.6,1.2-1.2,1.8-1.7
		c0.8,0.7,1.5,1.5,2.3,2.2c1.8,1.8,3.7,3.5,5.6,5.1C26.8,126.6,26.7,126.7,26.7,126.8z M21.8,120.8c-0.7-0.8-1.5-1.5-2.2-2.3
		c1.2-1.1,2.3-2.2,3.5-3.3c1.4,1.4,2.8,2.7,4.2,4.1c1.1,1.1,2.2,2.1,3.3,3.1c-0.3,0.2-0.5,0.5-0.8,0.8c-0.6,0.6-1.2,1.3-1.8,1.9
		c-0.4,0.4-0.7,0.9-1.1,1.4C25.2,124.5,23.5,122.7,21.8,120.8z M26.9,126.8c0,0,0.1-0.1,0.1-0.1c0,0,0.1,0.1,0.1,0.1L26.9,126.8z
		 M27.3,126.8c0,0-0.1-0.1-0.1-0.1c0.5-0.3,1-0.7,1.4-1.1c0.7-0.6,1.3-1.1,1.9-1.8c0.3-0.3,0.5-0.5,0.8-0.8c1.3,1.2,2.7,2.5,4,3.7
		L27.3,126.8z M92.8,111.7c0.9,0.9,1.9,1.8,2.9,2.7c-0.1,0.1-0.2,0.2-0.4,0.3c-1.1,1-2.2,2.1-3.3,3.2c-0.2-0.3-0.5-0.5-0.7-0.8
		c-0.9-0.9-1.7-1.8-2.6-2.7c1.1-1.1,2.2-2.3,3.4-3.4C92.3,111.2,92.6,111.4,92.8,111.7z M83.9,86.5c1.2,1.2,2.3,2.3,3.5,3.4
		c-1.1,1.1-2.2,2.2-3.4,3.3c-1.1-1.2-2.3-2.3-3.4-3.5c0.2-0.2,0.5-0.5,0.7-0.7C82.2,88.2,83.1,87.4,83.9,86.5z M83.9,85.2
		c-1.2-1.2-2.3-2.3-3.5-3.5c1.1-1.1,2.3-2.2,3.4-3.3c1.2,1.2,2.4,2.3,3.5,3.5C86.2,82.9,85.1,84,83.9,85.2z M84.1,94.7
		c1.1,1.1,2.3,2.2,3.4,3.4c-1.2,1.2-2.4,2.4-3.6,3.6c-1.1-1-2.1-2.1-3.2-3.1c-0.1-0.1-0.1-0.1-0.2-0.2c0.9-0.9,1.8-1.8,2.7-2.7
		C83.5,95.3,83.8,95,84.1,94.7z M83.3,102.3c-0.2,0.2-0.3,0.3-0.5,0.5c-0.9,0.9-1.8,1.8-2.7,2.8c-1.1-1.1-2.3-2.2-3.4-3.4
		c1.1-1.1,2.2-2.2,3.4-3.3c0.1,0.1,0.1,0.1,0.2,0.2C81.2,100.2,82.2,101.2,83.3,102.3z M83.5,103.5c0.2-0.2,0.3-0.3,0.5-0.5
		c0.8,0.8,1.6,1.6,2.5,2.5c0.3,0.3,0.6,0.6,0.9,0.9c-1.1,1.1-2.2,2.2-3.3,3.2c-0.3-0.3-0.5-0.5-0.8-0.8c-0.8-0.8-1.7-1.7-2.5-2.5
		C81.6,105.3,82.5,104.4,83.5,103.5z M88,107c1.2,1.1,2.3,2.3,3.5,3.4c-1.1,1.1-2.3,2.2-3.4,3.3c-1.1-1.1-2.2-2.3-3.3-3.4
		C85.8,109.2,86.9,108.1,88,107z M87.1,104.7c-0.8-0.8-1.7-1.6-2.5-2.4c1.2-1.2,2.4-2.4,3.5-3.6c0.1,0.1,0.3,0.3,0.4,0.4
		c1,1,2,2,3,3c-0.1,0.1-0.2,0.2-0.4,0.4c-1.1,1.1-2.2,2.1-3.3,3.2C87.7,105.3,87.4,105,87.1,104.7z M88.1,97.5
		c-1.1-1.1-2.2-2.3-3.3-3.4c1.1-1.1,2.2-2.3,3.3-3.4c0.4,0.4,0.8,0.8,1.2,1.2c0.8,0.7,1.5,1.5,2.3,2.2c-0.2,0.2-0.3,0.3-0.5,0.5
		C90.1,95.5,89.1,96.5,88.1,97.5z M88.1,89.4c-1.1-1.2-2.3-2.4-3.4-3.5c1.1-1.1,2.3-2.3,3.4-3.4c1.1,1.1,2.2,2.2,3.3,3.2
		c0.1,0.1,0.2,0.2,0.3,0.3c-0.2,0.2-0.4,0.4-0.6,0.6C90,87.4,89,88.4,88.1,89.4z M84.5,77.6c1.1-1.1,2.2-2.2,3.4-3.4
		c1.2,1.2,2.4,2.4,3.6,3.6c-0.5,0.5-1,0.9-1.4,1.4c-0.7,0.7-1.4,1.3-2.1,2C86.9,79.9,85.7,78.8,84.5,77.6z M84.6,69.5
		c0.6-0.6,1.1-1.2,1.7-1.8c0.6-0.6,1.1-1.2,1.7-1.8c1.1,1.2,2.3,2.4,3.4,3.5c0,0,0.1,0.1,0.1,0.1c-0.9,0.9-1.9,1.8-2.8,2.7
		c-0.2,0.2-0.4,0.4-0.6,0.6C86.9,71.8,85.7,70.6,84.6,69.5z M87.3,73.6c-1.1,1.1-2.3,2.2-3.4,3.3c-1.1-1.1-2.2-2.2-3.4-3.3
		c0,0,0,0,0,0c1.1-1.1,2.3-2.3,3.4-3.4C85,71.3,86.2,72.5,87.3,73.6z M79.8,72.8C79.8,72.9,79.8,72.9,79.8,72.8
		c-1.1-1.1-2.3-2.2-3.4-3.3c0.9-0.9,1.8-1.9,2.7-2.8c0.3-0.3,0.5-0.6,0.8-0.8c0.7,0.7,1.4,1.5,2.1,2.2c0.4,0.5,0.9,0.9,1.3,1.3
		C82.1,70.6,81,71.7,79.8,72.8z M79.1,73.5c-1.1,1.1-2.3,2.3-3.4,3.4c-1.1-1.1-2.3-2.2-3.4-3.3c0.7-0.7,1.5-1.4,2.2-2.2
		c0.4-0.4,0.9-0.9,1.3-1.3C76.9,71.3,78,72.4,79.1,73.5z M79.8,74.2c1.1,1.1,2.2,2.2,3.3,3.4c-1.1,1.1-2.3,2.2-3.4,3.3
		c-1.1-1.1-2.3-2.2-3.4-3.4C77.5,76.5,78.7,75.4,79.8,74.2z M83.2,85.8c-0.9,0.8-1.7,1.7-2.6,2.5c-0.2,0.2-0.5,0.5-0.7,0.7
		c-0.4-0.4-0.9-0.9-1.3-1.3c-0.7-0.7-1.5-1.5-2.2-2.2c0.7-0.7,1.4-1.3,2.1-2c0.4-0.4,0.8-0.8,1.2-1.2C80.9,83.5,82.1,84.7,83.2,85.8
		z M83.4,94c-0.3,0.3-0.6,0.6-1,1c-0.9,0.9-1.8,1.8-2.7,2.7c-1.2-1.1-2.4-2.3-3.7-3.4c1.3-1.3,2.6-2.5,3.9-3.8
		C81.1,91.7,82.3,92.8,83.4,94z M79.3,98.2c-1.1,1.1-2.2,2.3-3.3,3.4c-0.3-0.3-0.7-0.7-1-1c-0.9-0.9-1.8-1.7-2.7-2.6
		c1.2-1.2,2.4-2.3,3.6-3.5C77,95.7,78.1,97,79.3,98.2z M76,102.8c1.1,1.2,2.2,2.3,3.4,3.5c-1.1,1.1-2.2,2.3-3.3,3.4
		c-1.1-1.1-2.3-2.2-3.4-3.3c-0.1-0.1-0.1-0.1-0.2-0.1c0.7-0.7,1.4-1.4,2.2-2.1C75.1,103.7,75.5,103.2,76,102.8z M80,106.9
		c0.8,0.8,1.7,1.7,2.5,2.5c0.3,0.3,0.5,0.5,0.8,0.8c-0.1,0.1-0.2,0.2-0.2,0.2c-1,1-2.1,2.1-3.1,3.1c-0.2-0.2-0.3-0.3-0.5-0.5
		c-0.9-1-1.9-1.9-2.9-2.8C77.8,109.2,78.9,108.1,80,106.9z M79.9,115c1.1,1.1,2.3,2.3,3.4,3.4c-0.8,0.8-1.6,1.6-2.3,2.4
		c-0.4,0.4-0.7,0.8-1.1,1.2c-1.1-1.2-2.3-2.4-3.5-3.6C77.6,117.3,78.8,116.2,79.9,115z M80.6,114.3c1.1-1,2.1-2.1,3.2-3.1
		c0.1-0.1,0.2-0.2,0.2-0.2c1.1,1.1,2.2,2.2,3.4,3.3c-0.1,0.1-0.2,0.2-0.4,0.4c-1,1-2,2.1-3.1,3.1C82.9,116.6,81.8,115.5,80.6,114.3z
		 M87.8,115.4c0.1-0.1,0.2-0.2,0.4-0.4c0.9,0.9,1.8,1.7,2.6,2.6c0.3,0.2,0.5,0.5,0.8,0.7c-0.1,0.1-0.2,0.2-0.3,0.3
		c-1.1,1.1-2.2,2.2-3.2,3.4c-0.6-0.6-1.2-1.3-1.8-1.9c-0.5-0.5-1-1.1-1.5-1.6C85.7,117.4,86.7,116.4,87.8,115.4z M95.9,106.1
		c-0.9,0.8-1.8,1.7-2.7,2.5c-0.4,0.4-0.7,0.7-1.1,1.1c-1.1-1.2-2.3-2.3-3.4-3.5c1.1-1.1,2.1-2.2,3.2-3.3c0.1-0.1,0.2-0.3,0.4-0.4
		C93.4,103.8,94.7,105,95.9,106.1z M95.9,98.1c-1.3,1.2-2.5,2.4-3.8,3.6c-1-1-1.9-2.1-2.9-3.1c-0.1-0.2-0.3-0.3-0.4-0.5
		c1-1,2-2,3-3.1c0.2-0.2,0.3-0.3,0.5-0.5C93.4,95.7,94.7,96.9,95.9,98.1z M95.9,90c-1.3,1.2-2.5,2.4-3.8,3.6
		c-0.7-0.8-1.5-1.5-2.2-2.3c-0.4-0.4-0.8-0.8-1.2-1.2c1-1,1.9-2,2.9-3c0.2-0.2,0.4-0.4,0.6-0.6C93.4,87.6,94.6,88.8,95.9,90z
		 M93.6,79.7c0.8,0.7,1.5,1.4,2.3,2.1c-1.2,1.2-2.5,2.3-3.7,3.5c-0.1-0.1-0.2-0.2-0.3-0.3c-1.1-1.1-2.2-2.2-3.2-3.3
		c0.7-0.7,1.3-1.4,2-2.1c0.5-0.5,0.9-1,1.4-1.4C92.5,78.8,93,79.2,93.6,79.7z M95.3,73.4c0.1,0.1,0.3,0.3,0.4,0.4
		c-1.2,1.1-2.4,2.3-3.6,3.4c-1.2-1.2-2.4-2.5-3.6-3.7c0.2-0.2,0.4-0.4,0.6-0.6c0.9-0.9,1.8-1.8,2.7-2.8C93,71.2,94.2,72.3,95.3,73.4
		z M96,62.7c0.7,0.2,1.4,0.4,2.1,0.7C97.5,64,97,64.5,96.4,65c-0.1-0.1-0.1-0.1-0.2-0.2c-0.6-0.6-1.3-1.3-2-1.9
		c-0.3-0.3-0.7-0.5-1-0.8C94.2,62.3,95.1,62.5,96,62.7z M92.6,62.1c0.4,0.5,0.7,1,1.1,1.4c0.6,0.7,1.2,1.4,1.9,2
		c0,0,0.1,0.1,0.1,0.1c-1.2,1.1-2.3,2.2-3.5,3.2c0,0-0.1-0.1-0.1-0.1c-1.2-1.2-2.4-2.3-3.6-3.4c1-1.1,2-2.2,3-3.4
		C91.9,62.1,92.2,62.1,92.6,62.1z M86.2,62l1.4-0.1c1.3,0,2.6,0,3.9,0.1c-1.1,1-2.3,2-3.4,3c0,0,0,0,0,0c-1.1-1-2.1-1.9-3.3-2.9
		L86.2,62z M84.5,62.1c1,1.2,1.9,2.3,3,3.4c0,0,0,0,0,0c-0.6,0.6-1.2,1.1-1.8,1.7c-0.6,0.6-1.2,1.1-1.8,1.7
		c-0.5-0.4-0.9-0.9-1.4-1.3c-0.7-0.7-1.5-1.4-2.2-2.1c1-1.1,2-2.2,2.9-3.3L84.5,62.1z M81.9,62.3l1.2-0.1c-1.1,0.9-2.2,1.9-3.3,2.8
		c-1-0.9-2-1.8-3-2.7C78.5,62.4,80.2,62.4,81.9,62.3z M76.1,62.4c0.2,0,0.5,0,0.7,0c0.9,1,1.8,2,2.7,3c-0.3,0.3-0.6,0.5-0.9,0.8
		c-1,0.9-1.9,1.8-2.9,2.7c-2.5-2.4-5.1-4.8-7.6-7.1C70.7,62.1,73.4,62.3,76.1,62.4z M64.7,65c1-1.1,1.9-2.2,2.7-3.3
		c0.2,0,0.4,0,0.6,0.1c2.3,2.6,4.7,5.1,7.1,7.7c-0.4,0.4-0.9,0.9-1.3,1.3c-0.7,0.7-1.5,1.5-2.2,2.2c-0.5-0.5-1-1-1.5-1.5
		c-2-2-4-3.9-6.1-5.8C64.3,65.5,64.5,65.3,64.7,65z M60.2,69.6c0.5-0.5,1-0.9,1.4-1.4c0.7-0.7,1.4-1.5,2.2-2.3
		c1.9,2,3.8,4.1,5.8,6.1c0.5,0.5,1,1,1.5,1.5c-0.6,0.6-1.2,1.3-1.8,1.9c-0.5,0.5-0.9,1-1.4,1.5C65.3,74.5,62.8,72.1,60.2,69.6z
		 M68.3,77.4c0.5-0.5,1-0.9,1.5-1.4c0.6-0.6,1.3-1.2,1.9-1.8c1.1,1.1,2.2,2.3,3.3,3.4c-0.3,0.3-0.7,0.7-1,1
		c-0.7,0.8-1.5,1.5-2.2,2.3C70.7,79.8,69.5,78.6,68.3,77.4z M72.3,81.4c0.8-0.7,1.6-1.4,2.4-2.2c0.3-0.3,0.7-0.7,1-1
		c1.1,1.1,2.2,2.3,3.4,3.4c-0.4,0.4-0.8,0.8-1.2,1.2c-0.7,0.7-1.4,1.4-2.1,2C74.6,83.7,73.4,82.5,72.3,81.4z M67.9,93.9
		c2.6-2.5,5.3-5.1,7.9-7.6c0.7,0.7,1.4,1.5,2.2,2.2c0.4,0.4,0.9,0.9,1.3,1.3c-1.3,1.3-2.6,2.6-3.8,3.9c-0.4-0.4-0.9-0.8-1.3-1.2
		c0.4,0.4,0.8,0.9,1.2,1.3c-1.2,1.2-2.4,2.4-3.6,3.6C70.4,96.3,69.2,95.1,67.9,93.9z M68,102.1c1.3-1.2,2.6-2.4,3.8-3.6
		c0.9,0.9,1.7,1.8,2.6,2.7c0.3,0.3,0.7,0.7,1,1c-0.5,0.5-0.9,0.9-1.4,1.4c-0.7,0.7-1.4,1.5-2.1,2.2C70.7,104.5,69.4,103.3,68,102.1z
		 M71.4,113.4c-1.1-1-2.2-2-3.4-3c1.3-1.2,2.6-2.4,3.9-3.7c0.1,0.1,0.1,0.1,0.2,0.2c1.1,1.2,2.2,2.3,3.3,3.4
		c-0.3,0.3-0.6,0.6-0.9,0.9c-0.9,0.9-1.7,1.8-2.5,2.7C71.8,113.8,71.6,113.6,71.4,113.4z M72.4,114.4c0.9-0.9,1.8-1.7,2.7-2.6
		c0.3-0.3,0.6-0.6,0.9-0.9c0.9,1,1.9,1.9,2.8,2.9c0.2,0.2,0.3,0.3,0.5,0.5c-1.1,1.1-2.2,2.3-3.4,3.5
		C74.7,116.7,73.6,115.5,72.4,114.4z M67.9,126.4c1.2-1.1,2.4-2.2,3.6-3.3c0.4,0.4,0.7,0.8,1.1,1.1c0.6,0.5,1.2,1.1,1.8,1.6
		c0.3,0.2,0.6,0.4,0.8,0.6C72.8,126.4,70.4,126.4,67.9,126.4z M75.9,126.4c-0.3-0.4-0.6-0.8-1-1.2c-0.5-0.6-1.1-1.2-1.7-1.7
		c-0.4-0.3-0.7-0.7-1.1-1c1.2-1.1,2.3-2.2,3.5-3.3c0.1-0.1,0.1-0.1,0.2-0.2c1.2,1.2,2.4,2.4,3.6,3.5C78.2,123.9,77,125.1,75.9,126.4
		C75.9,126.4,75.9,126.4,75.9,126.4z M76.7,126.4c-0.2,0-0.4,0-0.6,0c1.3-1.1,2.5-2.3,3.8-3.4c1.3,1.2,2.6,2.4,4,3.5
		C81.5,126.5,79.1,126.5,76.7,126.4z M80.4,122.5c0.4-0.4,0.8-0.7,1.2-1.1c0.8-0.8,1.6-1.6,2.4-2.3c0.5,0.5,1.1,1,1.6,1.6
		c0.6,0.6,1.3,1.2,1.9,1.8c-0.1,0.1-0.2,0.2-0.3,0.3c-1.1,1.2-2.2,2.4-3.3,3.7C82.8,125.1,81.6,123.8,80.4,122.5z M91.8,126.8
		l-2.5-0.1c-1.8-0.1-3.5-0.1-5.3-0.1c1.3-1,2.5-2.1,3.7-3.2c0.1-0.1,0.2-0.2,0.4-0.3c1.3,1.2,2.5,2.4,3.8,3.5
		C91.9,126.6,91.9,126.7,91.8,126.8z M88.6,122.6c1.1-1.1,2.3-2.2,3.4-3.3c0.1-0.1,0.2-0.2,0.3-0.3c1.1,1.1,2.3,2.2,3.5,3.3
		c-0.1,0.1-0.3,0.2-0.4,0.4c-0.7,0.7-1.3,1.4-2,2.1c-0.4,0.5-0.9,1.1-1.3,1.6C90.9,125.2,89.7,123.9,88.6,122.6z M92.1,126.8
		C92.1,126.7,92.2,126.7,92.1,126.8c0.1,0,0.1,0,0.1,0L92.1,126.8z"/>
	<path class="st3" d="M4.2,126.9V125V125v-4.5v-0.7v-2.8v-0.1v-4.7v-0.4v-3v-0.1v-4.8v-0.2v-3v-0.1v-4.8v-0.2v-3v-0.2v-4.7v-0.2v-3
		v-0.2v-4.7v-0.2v-3v-0.3v-4.7v-0.2v-2.8v-0.8v-4.5V63v-1.5v-0.1v-5.3c0-0.6-0.4-1-1-1H1c-0.5,0-1,0.5-1,1v70.8c0,0.6,0.4,1,1,1h2.2
		c0.4,0,0.8-0.3,0.9-0.6c0-0.1,0-0.2,0-0.2C4.2,127,4.2,127,4.2,126.9z M1.5,56.6h1.1v69.8H1.5V56.6z"/>
	<path class="st3" d="M101.8,55.1h-2.2c-0.5,0-1,0.5-1,1V63v0.1v0.4v0.1v3.8v0.8v2.8v0.2v4.6v0.3v3v0.2v4.6v0.2v3.1v0.2v4.7v0.2v3.1
		v0.2v4.7v0.1v3.1v0.2v4.7v0.1v3v0.4v4.6v0.2v2.8v0.8v4.4v0.1v1.9c0,0,0,0,0,0c0,0.2,0.1,0.3,0.1,0.5c0.2,0.3,0.5,0.5,0.8,0.5h2.2
		c0.5,0,1-0.5,1-1V56.1C102.8,55.6,102.4,55.1,101.8,55.1z M100.1,56.6h1.1v69.8h-1.1V56.6z"/>
</g>
</svg>
