<?xml version="1.0" encoding="utf-8"?>
<!-- Generator: Adobe Illustrator 24.1.2, SVG Export Plug-In . SVG Version: 6.00 Build 0)  -->
<svg version="1.1" id="Layer_1" xmlns="http://www.w3.org/2000/svg" xmlns:xlink="http://www.w3.org/1999/xlink" x="0px" y="0px"
	 viewBox="0 0 128 128" style="enable-background:new 0 0 128 128;" xml:space="preserve">
<style type="text/css">
	.st0{fill:#EFC24C;}
	.st1{fill:#62B257;}
	.st2{fill:#AA6D43;}
	.st3{fill:#DB5240;}
	.st4{fill:#F4A742;}
	.st5{fill:#FEDBAB;}
	.st6{fill:#2D2D2D;}
</style>
<g>
	<path class="st0" d="M42,65.1c1.2-0.6,2.4-1.2,3.5-1.9c0.5-0.3,1.1-0.7,1.5-1.2c0.5-0.4,0.9-0.9,1-1.4l1.5-4.1L49,61
		c-0.3,2.7-0.6,5.4-1,8.1c-0.4,2.7-1,5.5-2.7,8c-0.8,1.2-1.9,2.3-3.1,3.1c-0.9,0.5-1.8,1-2.7,1.4c1.9,0.8,3.7,2,5.1,3.5
		c1,1,1.8,2.1,2.4,3.4c0.7,1.2,1.1,2.6,1.2,4c0,0.4,0.1,0.7,0.1,1.1l0,1.1c-0.1,0.9-0.5,1.6-1,2.2c-0.5,0.6-1.1,1-1.7,1.3
		c-0.6,0.3-1.2,0.6-1.8,0.9c-2.5,1-5,1.6-7.5,2.2c-0.2,0-0.3,0.1-0.5,0.1c0.6,1.8,1,3.6,1.5,5.4c1.6-0.9,3.3-1.6,5.1-2.2
		c2-0.6,4.1-1.1,6.2-1.4c1.1-0.1,2.1-0.3,3.2-0.3l1.6-0.1l1.6,0c1.1,0,2.1,0.1,3.2,0.2c1.1,0.1,2.1,0.2,3.2,0.3
		c1.1,0.1,2.1,0.4,3.1,0.6c1,0.2,2.1,0.4,3.1,0.7L69,105c0.5,0.1,1,0.3,1.5,0.4c1,0.2,2,0.4,3,0.6c3.6,0.6,7.4,0.4,11.2-0.3
		c0.1-6.7,0.2-13.4,0.4-20.1c0.1-3.7,0.2-7.5,0.2-11.2c0-1.9,0-3.7,0-5.6c0-0.9,0-1.9-0.1-2.8L85,64.7c-0.1-0.4-0.2-0.9-0.3-1.3
		c-0.5-1.7-1.4-3.4-2.5-4.8c-1.1-1.4-2.5-2.7-4-3.6c-1.5-1-3.2-1.6-4.9-2c-1.7-0.4-3.4-0.3-5.3-0.3c-3.7,0.1-7.4,0.1-11.1,0.1
		l-5.5,0l-2.8,0l-1.4,0c-0.4,0-0.8,0-1.2,0.1c-1.6,0.3-3.1,1.2-4.1,2.5c-0.1,0.2-0.2,0.3-0.4,0.5l-0.4,0.6l-0.7,1.2L39,60
		c-1,1.6-2,3.1-3,4.7c-0.9,1.4-1.8,2.8-2.7,4.1c0.5-0.2,1-0.4,1.5-0.6C37.1,67.2,39.6,66.3,42,65.1z M65.2,59c2.8,0,5.6-0.3,8.5-0.6
		c0.7-0.1,1.4-0.1,2.1-0.2l1.1-0.1c0.2,0,0.3,0,0.6,0c0.2,0,0.5,0,0.7,0.1c1,0.2,1.8,0.9,2.3,1.7c0.2,0.4,0.4,0.9,0.5,1.4
		c0,0.6,0,0.8,0,1.2c-0.1,2.9-0.5,5.7-0.6,8.6c0,1.4,0,2.9,0,4.3c0,0.7,0.1,1.4,0.1,2.1c0,0.2,0,0.3,0,0.5c0,0.2,0,0.4,0,0.6
		c-0.1,0.4-0.2,0.8-0.5,1.2c-0.5,0.7-1.3,1.3-2.2,1.5c-0.5,0.1-0.8,0.1-1.2,0.1l-1.1,0.1c-1.4,0.1-2.8,0.1-4.2,0.2
		c-1,0-2-0.4-2.7-1.2c-0.4-0.4-0.6-0.8-0.8-1.3l-0.4-1c-0.5-1.3-1-2.7-1.5-4c-1-2.7-1.9-5.4-2.6-8.2l-0.5-2.1l-0.3-1
		c-0.1-0.4-0.2-0.8-0.2-1.2C62.3,60.3,63.7,59,65.2,59z"/>
	<path class="st1" d="M9.5,92.6c2.5-0.7,4.9-1.5,7.2-2.6c2.4-1,4.6-2.2,6.7-3.6c1.1-0.7,2.1-1.4,3.1-2.3c0.5-0.4,0.9-0.8,1.4-1.3
		c0.4-0.4,0.9-0.9,1.2-1.3l0.4-0.5l0.6,0.1c1.2,0.1,2.5,0,3.8-0.1c1.3-0.2,2.5-0.4,3.7-0.8c1.2-0.4,2.4-0.9,3.5-1.5
		c1-0.6,1.9-1.4,2.7-2.5c1.4-2,2.2-4.6,2.8-7.2c0.4-2,0.8-4,1.1-6.1c0,0,0,0-0.1,0.1c-0.5,0.5-1.1,0.8-1.7,1.2
		c-1.2,0.7-2.4,1.3-3.6,1.8c-2.4,1.1-4.9,2-7.3,3.1c-1.2,0.5-2.4,1-3.6,1.7c-0.6,0.3-1.1,0.6-1.6,1c-0.4,0.5-0.7,1-0.9,1.5
		c-0.2,0.6-0.3,1.1-0.3,1.7c-0.1,0.6-0.1,1.2-0.2,1.8c-0.1,1.2-0.1,2.5,0,3.8l0,0.5l-0.3,0.2c-0.4,0.2-0.8,0.4-1.2,0.6L26.3,82
		c-0.2,0.1-0.4,0.2-0.6,0.3c-0.1,0-0.1,0-0.2-0.1c0,0,0,0,0,0c0,0,0,0,0,0c-0.6-0.9-1.1-1.8-1.8-2.5l0,0l-0.1-0.3
		c-0.3-0.8-0.4-1.7-0.8-2.5c-0.3-0.8-0.6-1.6-1.1-2.3c-0.4-0.7-0.9-1.4-1.4-2c-0.3-0.3-0.6-0.6-0.9-0.9c-0.3-0.3-0.6-0.5-0.9-0.8
		c-1.3-1-2.7-1.9-4.3-2.5c-1.3-0.5-2.7-0.9-4.2-1.2c0,0.2,0.1,0.3,0.2,0.5c0.2,0.5,0.3,0.9,0.5,1.4c0.3,0.9,0.6,1.8,1,2.7
		c0.3,0.9,0.8,1.8,1.1,2.7c0.2,0.5,0.4,0.8,0.6,1.3c0.1,0.2,0.2,0.4,0.3,0.6l0.3,0.6c0.9,1.4,2.1,2.6,3.7,3.4
		c0.8,0.4,1.6,0.7,2.5,0.9c0.9,0.2,1.8,0.4,2.8,0.6c0,0,0.1,0,0.1,0.1c0,0,0,0,0,0c0.3,0.5,0.3,1.1,0.2,1.6c-0.2,0.5-0.5,1-0.8,1.4
		c-0.7,0.8-1.5,1.4-2.3,1.9c-1.7,1.1-3.5,2-5.4,2.6c-1.9,0.7-3.8,1.2-5.7,1.8c-1.5,0.4-3.1,0.8-4.7,1.1c0,0.1,0,0.2,0,0.3
		c0,0.5-0.2,1-0.4,1.4C5.9,93.5,7.7,93.1,9.5,92.6z"/>
	<path class="st2" d="M17.2,87.2c0.9-0.4,1.8-0.7,2.6-1.2c0.8-0.5,1.7-1,2.4-1.6c0.3-0.3,0.6-0.7,0.8-1.1c0.2-0.4,0.2-0.9,0-1.3
		c-1.9,0.5-3.9,0.6-5.9,0c-0.2-0.1-0.4-0.1-0.6-0.2c-0.6,0.6-1.2,1.2-1.7,1.7l-2.2,2.2c-0.7,0.7-1.4,1.5-2.1,2.2l-1.4,1.5
		c1.8-0.4,3.6-0.8,5.4-1.3C15.4,87.9,16.3,87.6,17.2,87.2z"/>
	<path class="st3" d="M105.7,15.5c0.1-1.2,0.5-2.3,1-3.5c0.3-0.6,0.7-1.3,1.2-1.8c0.3-0.3,0.5-0.6,0.8-0.8l0.5-0.3
		c0.2-0.1,0.3-0.2,0.5-0.3c0.7-0.3,1.5-0.5,2.2-0.5c0.7-0.1,1.5,0,2.3,0.3c0.7,0.3,1.4,0.7,2,1.3c0.5,0.6,1,1.2,1.3,1.9
		c0.6,1.4,0.7,3,0.4,4.5c-0.2,0.7-0.5,1.4-0.9,2.1c-0.4,0.6-1,1.2-1.4,1.7c-0.9,0.9-1.8,1.9-2.7,2.8c-0.9,0.9-1.9,1.8-2.6,2.8
		c-0.7,1-1.3,2.1-1.7,3.3c-0.5,1.2-0.8,2.4-1,3.7c-0.2,1.3-0.4,2.5-0.4,3.8c0,0.2,0.1,0.3,0.2,0.4c0,0,0.2,0,0.4,0l0.5,0l1.9,0
		c1.3,0,2.6,0,3.9-0.1l1,0c0.1,0,0.4,0,0.4,0c0.1,0,0.1,0,0.1-0.1c0,0,0-0.1,0-0.1l0-0.5c0-0.3,0-0.7,0-1c0-1.3,0-2.7,0.8-4.1
		c0.4-0.7,0.9-1.1,1.3-1.6l1.3-1.4c1.8-1.9,3.4-3.8,4.7-5.9c1.3-2.1,2-4.4,2-6.8c0-2.4-0.6-4.8-1.8-6.8c-1.2-2-3-3.7-5.1-4.7
		c-1.1-0.5-2.2-0.9-3.3-1.1c-1.1-0.2-2.5-0.2-3.7-0.4c-2.3-0.2-4.7,0.5-6.8,1.7c-2.1,1.2-4,2.9-5.4,5c-0.7,1.1-1.3,2.2-1.7,3.4
		c-0.2,0.6-0.4,1.2-0.5,1.9c-0.1,0.3-0.1,0.6-0.2,1l-0.1,0.5c0,0.1,0,0.2-0.1,0.4l4.7-0.3C103.2,15.6,104.5,15.5,105.7,15.5z"/>
	<path class="st3" d="M114,43.2c-0.5-0.2-0.9-0.4-1.3-0.5c-0.4-0.1-0.9-0.2-1.3-0.1c-0.9,0-1.7,0.3-2.4,0.9
		c-0.7,0.6-1.2,1.4-1.5,2.4c-0.2,1,0.1,2.2,0.9,3c0.4,0.4,0.9,0.6,1.4,0.7c0.5,0.1,1,0,1.5,0c0.9-0.2,1.7-0.4,2.7-0.9
		c0.4-0.2,0.9-0.6,1.2-1.1c0.3-0.5,0.5-1,0.5-1.6c0-0.6-0.2-1.2-0.5-1.6C114.9,43.7,114.4,43.4,114,43.2z"/>
	<path class="st4" d="M73.3,107.9c-1.1-0.1-2.1-0.2-3.2-0.4c-0.5-0.1-1.1-0.2-1.6-0.3l-1.5-0.3c-1-0.2-2-0.5-3-0.6
		c-1-0.2-2-0.4-3-0.5c-4-0.6-8.1-0.8-12.2-0.7c-2,0.1-4.1,0.3-6.1,0.7c-1.8,0.3-3.5,0.8-5.3,1.2c0.2,0.7,0.3,1.3,0.5,2
		c0.3,1.3,0.6,2.7,0.9,4l0.4,2c0.1,0.7,0.2,1.5,0.2,2.2c0,2.7-1.1,5.3-2.8,7.3c0.2,0.4,0.5,0.8,0.9,1.1c0.7,0.5,1.6,0.7,2.5,0.7
		c0.9,0,1.8,0,2.7-0.1l2.8-0.1c3.7-0.1,7.4-0.3,11.1-0.3c3.7-0.1,7.4-0.2,11.1-0.2l5.5-0.1l2.8,0l1.4,0c0.5,0,0.9,0,1.3,0
		c1.5-0.1,3-0.8,4.1-1.9c1.1-1.1,1.7-2.6,1.8-4.2c0-0.4,0-0.9,0-1.3l0-1.4l0-2.8l0.1-5.6c0-0.7,0-1.4,0-2.1
		C81.1,107.5,77.2,108.1,73.3,107.9z"/>
	<path class="st4" d="M50.2,48.1c-0.5-0.1-0.9-0.1-1.4-0.2v2.8l2.6,0l5.5,0c1.1,0,2.1,0,3.2,0v-2.8c-0.3,0-0.5,0.1-0.8,0.1
		c-1.4,0.2-2.9,0.3-4.5,0.3C53.3,48.4,51.7,48.3,50.2,48.1z"/>
	<path class="st5" d="M36.6,115.3l-0.3-2c-0.2-1.3-0.3-2.7-0.4-4c-0.2-2.6-0.4-5.2-0.5-7.8c-2.3,0.5-4.6,0.8-7,0.9
		c-2.6,0.1-5.3,0.1-7.9-0.2c-0.1,0-0.3,0-0.4-0.1c-0.1,2.3-0.3,4.6-0.6,6.8c-0.2,1.3-0.4,2.7-0.6,4c-0.1,0.7-0.2,1.3-0.3,2
		c-0.1,0.3-0.1,0.7-0.2,0.9c-0.1,0.3-0.1,0.6-0.1,0.9c-0.1,1.2,0,2.5,0.3,3.7c0.3,1.2,1,2.4,1.8,3.4c1.7,1.9,4.4,3,6.9,2.8
		c2.5-0.2,4.8-1.3,6.5-3.1c1.7-1.8,2.6-4.1,2.6-6.5C36.8,116.5,36.7,116,36.6,115.3z"/>
	<path class="st0" d="M58.4,46.7c0.6,0.1,4.5,0.5,4.8,0.6c-0.2-1.4-0.4-2.7-0.6-3.8l-0.1-0.8l-0.1-0.4c0-0.1,0-0.1-0.1-0.2
		c-0.1-0.2-0.3-0.3-0.5-0.2c-2.5,0.2-4.9,0.3-7.4,0.2c-2.5-0.1-4.9-0.2-7.4-0.4c-0.3-0.1-0.6,0.1-0.8,0.4c0,0.1-0.1,0.1-0.1,0.3
		l0,0.5L46,43.6C46,44.7,46,45.8,46,46.9c0.3,0,0.5,0,0.8-0.1C47,46.6,56.9,46.5,58.4,46.7z"/>
	<path class="st2" d="M28.5,100.1c2.5,0,5.1,0,7.6-0.1c2.5-0.1,5.1-0.6,7.4-1.6c1.1-0.6,2.2-1.3,2.8-2.3c0.3-0.5,0.4-1,0.3-1.4
		l-0.1-0.9c0-0.3-0.1-0.6-0.2-0.9c-0.3-1.2-0.7-2.3-1.1-3.4c-0.5-1.1-1.2-2.1-1.9-3.1c-1.3-1.7-2.9-3.1-4.6-4.4
		c-0.1,0-0.2,0.1-0.4,0.1c-1.3,0.5-2.7,0.8-4.1,1c-1.2,0.2-2.4,0.3-3.6,0.2c-0.3,0.4-0.7,0.8-1,1.1c-0.5,0.5-1,1-1.5,1.4
		c-1,0.9-2.1,1.7-3.2,2.5c-2.3,1.5-4.7,2.8-7.1,3.9c-3.2,1.3-6.5,2.4-9.8,3.1c0.4,0.9,1.2,1.5,2.1,1.9c1.1,0.5,2.3,0.9,3.5,1.2
		c2.4,0.6,4.9,0.9,7.4,1.1C23.4,99.9,25.9,100,28.5,100.1z"/>
	<path class="st6" d="M96.9,16.2l4.6,0.3c1.6,0.1,3.2,0.2,4.8,0.3l0.6,0l0.1-0.6c0.4-2.3,1.5-4.9,3.5-5.6c0.9-0.4,2.1-0.4,3-0.1
		c0.9,0.3,1.6,1.2,2.1,2.2c0.4,1,0.5,2.1,0.2,3.2c-0.1,0.5-0.3,1-0.6,1.5c-0.3,0.5-0.6,0.9-1.1,1.4c-0.9,1-1.7,2-2.5,3l-1.3,1.5
		c-0.4,0.5-0.9,1-1.2,1.6c-1.4,2.4-2,5-2.4,7.6c-0.2,1.3-0.3,2.6-0.3,3.9c0,0.2,0,0.5,0.2,0.7c0.1,0.2,0.4,0.4,0.6,0.4
		c0.3,0.1,0.4,0,0.6,0l0.5,0l1.9,0c1.3,0,2.6,0,3.9,0.1l1,0c0.2,0,0.3,0,0.5,0c0.3,0,0.5-0.1,0.7-0.3c0.2-0.2,0.3-0.5,0.3-0.8l0-0.5
		c0-0.3,0-0.6,0-0.9c0.1-1.2,0.3-2.5,0.9-3.4c0.3-0.4,0.8-0.8,1.3-1.3l1.5-1.3c1.9-1.8,3.8-3.7,5.3-6c1.6-2.3,2.5-5.1,2.6-7.9
		c0.1-2.8-0.5-5.7-2-8.2c-1.5-2.4-3.6-4.5-6.2-5.6c-1.3-0.6-2.6-1-4-1.2c-1.4-0.2-2.7-0.1-4-0.2c-2.8-0.1-5.6,0.9-7.8,2.4
		c-2.3,1.5-4.1,3.6-5.4,6c-0.6,1.2-1.1,2.5-1.4,3.8c-0.1,0.7-0.2,1.3-0.3,2c0,0.3,0,0.7,0,1l0,0.5C96.9,15.8,96.9,16,96.9,16.2z
		 M97.2,15.6l0.1-0.5c0-0.3,0.1-0.6,0.2-1c0.1-0.6,0.3-1.2,0.5-1.9c0.4-1.2,1-2.3,1.7-3.4c1.4-2.1,3.2-3.8,5.4-5
		c2.1-1.2,4.5-1.9,6.8-1.7c1.2,0.1,2.6,0.2,3.7,0.4c1.2,0.2,2.3,0.6,3.3,1.1c2.1,1,3.9,2.7,5.1,4.7c1.2,2,1.9,4.4,1.8,6.8
		c0,2.4-0.7,4.8-2,6.8c-1.3,2.1-2.9,4.1-4.7,5.9l-1.3,1.4c-0.4,0.5-0.9,0.9-1.3,1.6c-0.8,1.4-0.8,2.8-0.8,4.1c0,0.3,0,0.7,0,1l0,0.5
		c0,0,0,0.1,0,0.1c0,0-0.1,0.1-0.1,0.1c-0.1,0-0.3,0-0.4,0l-1,0c-1.3,0-2.6,0.1-3.9,0.1l-1.9,0l-0.5,0c-0.2,0-0.4,0-0.4,0
		c-0.2-0.1-0.3-0.2-0.2-0.4c0.1-1.3,0.2-2.6,0.4-3.8c0.2-1.3,0.6-2.5,1-3.7c0.5-1.2,1-2.3,1.7-3.3c0.7-0.9,1.7-1.8,2.6-2.8
		c0.9-0.9,1.8-1.8,2.7-2.8c0.4-0.4,1-1,1.4-1.7c0.4-0.6,0.7-1.3,0.9-2.1c0.4-1.5,0.3-3.1-0.4-4.5c-0.3-0.7-0.7-1.4-1.3-1.9
		c-0.5-0.6-1.2-1-2-1.3c-0.7-0.3-1.5-0.4-2.3-0.3c-0.7,0.1-1.5,0.2-2.2,0.5c-0.2,0.1-0.3,0.2-0.5,0.3l-0.5,0.3
		c-0.3,0.2-0.6,0.5-0.8,0.8c-0.5,0.6-0.9,1.2-1.2,1.8c-0.5,1.1-0.8,2.3-1,3.5c-1.3,0.1-2.6,0.1-3.9,0.2L97.1,16
		C97.1,15.9,97.1,15.8,97.2,15.6z"/>
	<path class="st6" d="M113.5,40.6c-0.7-0.3-1.4-0.5-2.2-0.6c-1.5,0-3,0.7-4,1.8c-0.5,0.6-0.9,1.2-1.1,1.9c-0.2,0.7-0.2,1.4-0.1,2.1
		c0.2,1.4,0.9,2.5,1.7,3.5c0.8,1,2,1.9,3.5,2.1c1.4,0.2,3-0.6,3.7-1.8c0.8-1.2,0.9-2.6,0.9-3.8c0-1.2-0.1-2.5-0.9-3.8
		C114.7,41.4,114.2,40.9,113.5,40.6z M115.7,45.8c0,0.6-0.2,1.2-0.5,1.6c-0.3,0.5-0.8,0.8-1.2,1.1c-0.9,0.5-1.7,0.7-2.7,0.9
		c-0.5,0.1-1,0.1-1.5,0c-0.5-0.1-1-0.3-1.4-0.7c-0.8-0.7-1.2-1.9-0.9-3c0.2-1,0.8-1.8,1.5-2.4c0.7-0.6,1.6-0.8,2.4-0.9
		c0.4,0,0.9,0,1.3,0.1c0.4,0.1,0.9,0.2,1.3,0.5c0.5,0.2,0.9,0.6,1.2,1C115.5,44.7,115.7,45.2,115.7,45.8z"/>
	<path class="st6" d="M7.5,95.5c0.1,0.4,0.2,0.9,0.4,1.3c0.4,0.6,0.9,1.1,1.4,1.6c1.1,0.9,2.3,1.5,3.6,2c2.2,0.9,4.5,1.4,6.7,1.7
		c-0.7,2.2-1.2,4.4-1.7,6.6c-0.3,1.3-0.6,2.7-0.8,4c-0.1,0.7-0.3,1.3-0.4,2c-0.1,0.3-0.1,0.7-0.1,1.1c0,0.4-0.1,0.7,0,1.1
		c0,1.5,0.4,2.9,1.1,4.2c0.6,1.3,1.5,2.4,2.5,3.4c2,2,4.6,3.3,7.4,3.6c1.4,0.1,2.9,0,4.3-0.5c1.4-0.5,2.7-1.3,3.8-2.3
		c0.2-0.1,0.3-0.3,0.5-0.5c0.2,0.5,0.5,0.9,0.9,1.2c0.8,0.7,1.8,1,2.7,1.1c1,0.1,1.9,0.1,2.8,0.2l2.8,0.1c3.7,0.1,7.4,0.3,11.1,0.3
		c3.7,0.1,7.4,0.2,11.1,0.2l5.5,0.1l2.8,0l1.4,0c0.5,0,0.9,0,1.5,0c2.1-0.1,4.2-1.1,5.7-2.7c1.5-1.5,2.4-3.7,2.5-5.9
		c0-0.6,0-1,0-1.5l0-1.4l0-2.8l-0.1-5.6c-0.1-7.5-0.2-15-0.5-22.5c-0.1-3.7-0.2-7.5-0.2-11.2c0-1.9,0-3.7,0-5.6c0-0.9,0-1.9-0.1-2.8
		l-0.2-1.4c-0.1-0.5-0.2-0.9-0.3-1.4c-1-3.7-3.3-7-6.4-9.3c-1.6-1.1-3.4-2-5.2-2.5c-1.9-0.5-3.9-0.6-5.7-0.6c-1.9,0-3.7-0.1-5.6-0.1
		v-3.1c0,0,0,0,0,0c0.3-0.1,0.6-0.1,0.9-0.2c0.2-1.1,0.4-2.3,0.6-3.7l0.1-1l0.1-0.5c0-0.2,0-0.5,0-0.7c-0.2-1-1.2-1.8-2.2-1.9
		c-2.5-0.2-4.9-0.3-7.4-0.2c-2.5,0.1-4.9,0.2-7.4,0.4c-1,0-1.8,0.8-2,1.7c0,0.2,0,0.5,0,0.6l0,0.5l0.1,0.9c0.1,1.3,0.1,2.5,0.1,3.8
		l0,0.4l0.4,0c0.3,0,0.6,0,0.8,0.1v3.1c-0.3,0-0.5,0.1-0.8,0.1c-2,0.4-3.8,1.7-5,3.4c-0.2,0.2-0.3,0.4-0.4,0.7l-0.3,0.6l-0.7,1.2
		l-1.3,2.5c-0.9,1.6-1.8,3.3-2.7,4.9c-0.8,1.6-1.7,3.1-2.5,4.7c-0.6,0.3-1.2,0.5-1.8,0.8c-0.6,0.3-1.2,0.6-1.8,1.1
		c-0.6,0.4-1.2,0.9-1.6,1.6c-0.9,1.2-1.2,2.8-1.2,4.2c0,1.3,0.2,2.6,0.7,3.9c-0.2,0.2-0.4,0.4-0.6,0.6L26,81.6
		c-0.1,0.1-0.2,0.2-0.3,0.4c-0.2-0.9-0.4-1.9-0.9-2.8c0-0.5,0-0.9-0.1-1.4c0-0.5,0-1-0.2-1.4l-0.3-1.4c0-0.2-0.1-0.5-0.2-0.7
		l-0.3-0.7c-0.3-0.9-0.9-1.8-1.5-2.6c-0.3-0.4-0.7-0.7-1-1.1c-0.3-0.4-0.8-0.6-1.1-1c-1.6-1.2-3.4-2-5.2-2.5C13,66,11.1,65.9,9.2,66
		l-1.1,0.1l0.7,0.8C8.9,67,9,67.2,9.1,67.4c0.1,0.2,0.2,0.4,0.3,0.6c0.2,0.4,0.4,0.9,0.6,1.3c0.3,0.9,0.7,1.8,0.9,2.8
		c0.2,0.9,0.4,1.9,0.6,2.8c0.2,1,0.4,2,0.9,3c0.7,1.4,1.9,2.6,3.3,3.4c-0.6,0.2-1.2,0.4-1.8,0.6c-1,0.5-2,1.2-2.8,2
		c-0.8,0.8-1.5,1.8-2,2.9c-0.4,0.9-0.6,1.8-0.7,2.7c-1.7,0.3-3.5,0.7-5.1,0.8l-1.7,0.1l1,1.5c0.1,0.1,0.1,0.1,0.1,0.3
		c0,0.2-0.1,0.4-0.2,0.7c-0.1,0.3-0.3,0.5-0.5,0.8c-0.2,0.3-0.4,0.6-0.6,1L0,96.7l2.2-0.3C4,96.2,5.7,95.8,7.5,95.5z M13.4,98.5
		c-1.2-0.3-2.4-0.7-3.5-1.2c-0.8-0.4-1.7-1-2.1-1.9c3.3-0.7,6.6-1.8,9.8-3.1c2.5-1.1,4.9-2.3,7.1-3.9c1.1-0.8,2.2-1.6,3.2-2.5
		c0.5-0.5,1-0.9,1.5-1.4c0.4-0.4,0.7-0.7,1-1.1c1.3,0,2.4-0.1,3.6-0.2c1.4-0.2,2.8-0.5,4.1-1c0.1,0,0.2-0.1,0.4-0.1
		c1.7,1.3,3.3,2.7,4.6,4.4c0.7,1,1.4,2,1.9,3.1c0.5,1.1,0.9,2.2,1.1,3.4c0,0.3,0.1,0.6,0.2,0.9l0.1,0.9c0.1,0.5-0.1,0.9-0.3,1.4
		c-0.6,1-1.7,1.7-2.8,2.3c-2.3,1.1-4.9,1.5-7.4,1.6c-2.6,0.1-5.1,0.1-7.6,0.1c-2.5-0.1-5.1-0.2-7.6-0.5
		C18.4,99.4,15.9,99.1,13.4,98.5z M34.1,123.6c-1.7,1.7-4,2.9-6.5,3.1c-2.5,0.2-5.2-0.8-6.9-2.8c-0.9-1-1.5-2.1-1.8-3.4
		c-0.4-1.2-0.4-2.5-0.3-3.7c0-0.3,0.1-0.6,0.1-0.9c0-0.3,0.1-0.6,0.2-0.9c0.1-0.7,0.2-1.3,0.3-2c0.2-1.3,0.4-2.7,0.6-4
		c0.3-2.3,0.5-4.5,0.6-6.8c0.1,0,0.3,0,0.4,0.1c2.6,0.3,5.3,0.3,7.9,0.2c2.3-0.1,4.7-0.4,7-0.9c0.1,2.6,0.3,5.2,0.5,7.8
		c0.1,1.4,0.3,2.7,0.4,4l0.3,2c0.1,0.6,0.1,1.2,0.1,1.8C36.7,119.5,35.8,121.9,34.1,123.6z M84.6,108.1l-0.1,5.6l0,2.8l0,1.4
		c0,0.4,0,1,0,1.3c-0.1,1.6-0.7,3.1-1.8,4.2c-1.1,1.1-2.6,1.8-4.1,1.9c-0.4,0-0.8,0-1.3,0l-1.4,0l-2.8,0l-5.5,0.1
		c-3.7,0.1-7.4,0.1-11.1,0.2c-3.7,0.1-7.4,0.2-11.1,0.3l-2.8,0.1c-0.9,0-1.9,0.1-2.7,0.1c-0.9,0-1.8-0.2-2.5-0.7
		c-0.4-0.3-0.7-0.7-0.9-1.1c1.8-2,2.8-4.6,2.8-7.3c0-0.8-0.1-1.5-0.2-2.2l-0.4-2c-0.3-1.3-0.6-2.7-0.9-4c-0.2-0.7-0.3-1.3-0.5-2
		c1.8-0.5,3.5-0.9,5.3-1.2c2-0.4,4.1-0.6,6.1-0.7c4.1-0.2,8.2,0,12.2,0.7c1,0.1,2,0.3,3,0.5c1,0.2,2,0.4,3,0.6l1.5,0.3
		c0.5,0.1,1.1,0.2,1.6,0.3c1.1,0.2,2.1,0.3,3.2,0.4c3.9,0.3,7.8-0.4,11.3-1.8C84.6,106.7,84.6,107.4,84.6,108.1z M46,46.9
		c0-1.1,0-2.2,0.1-3.3l0.1-0.9l0-0.5c0-0.2,0-0.2,0.1-0.3c0.2-0.3,0.5-0.5,0.8-0.4c2.5,0.3,4.9,0.3,7.4,0.4c2.5,0.1,4.9,0,7.4-0.2
		c0.2-0.1,0.4,0,0.5,0.2c0,0.1,0,0.1,0.1,0.2l0.1,0.4l0.1,0.8c0.2,1.2,0.4,2.4,0.6,3.8c-0.3,0-4.1-0.5-4.8-0.6
		c-1.5-0.2-11.5-0.1-11.7,0.2C46.5,46.8,46.2,46.9,46,46.9z M60.1,47.9v2.8c-1.1,0-2.1,0-3.2,0l-5.5,0l-2.6,0V48
		c0.5,0.1,0.9,0.1,1.4,0.2c1.6,0.2,3.1,0.2,4.7,0.1c1.5-0.1,3-0.2,4.5-0.3C59.6,47.9,59.9,47.9,60.1,47.9z M35.9,64.7
		c1-1.6,2-3.1,3-4.7l1.5-2.4l0.7-1.2l0.4-0.6c0.1-0.2,0.2-0.4,0.4-0.5c1-1.3,2.5-2.2,4.1-2.5c0.4-0.1,0.8-0.1,1.2-0.1l1.4,0l2.8,0
		l5.5,0c3.7,0,7.4,0,11.1-0.1c1.9-0.1,3.6-0.1,5.3,0.3c1.7,0.4,3.4,1,4.9,2c1.5,1,2.9,2.2,4,3.6c1.1,1.4,1.9,3.1,2.5,4.8
		c0.1,0.4,0.2,0.9,0.3,1.3l0.2,1.4c0.1,0.9,0.1,1.8,0.1,2.8c0,1.9,0,3.7,0,5.6c0,3.7-0.2,7.5-0.2,11.2c-0.2,6.7-0.3,13.4-0.4,20.1
		c-3.8,0.7-7.5,0.8-11.2,0.3c-1-0.2-2-0.4-3-0.6c-0.5-0.1-1-0.3-1.5-0.4l-1.5-0.4c-1-0.3-2.1-0.5-3.1-0.7c-1-0.2-2.1-0.4-3.1-0.6
		c-1.1-0.1-2.1-0.3-3.2-0.3c-1.1-0.1-2.1-0.2-3.2-0.2l-1.6,0l-1.6,0.1c-1.1,0-2.1,0.2-3.2,0.3c-2.1,0.3-4.2,0.8-6.2,1.4
		c-1.8,0.6-3.4,1.3-5.1,2.2c-0.4-1.8-0.9-3.6-1.5-5.4c0.2,0,0.3-0.1,0.5-0.1c2.6-0.6,5.1-1.2,7.5-2.2c0.6-0.2,1.2-0.5,1.8-0.9
		c0.6-0.3,1.2-0.7,1.7-1.3c0.5-0.6,0.9-1.3,1-2.2l0-1.1c0-0.4,0-0.7-0.1-1.1c-0.1-1.4-0.6-2.8-1.2-4c-0.6-1.3-1.4-2.4-2.4-3.4
		c-1.5-1.5-3.2-2.7-5.1-3.5c0.9-0.4,1.8-0.8,2.7-1.4c1.2-0.8,2.3-1.9,3.1-3.1c1.6-2.5,2.2-5.3,2.7-8c0.4-2.7,0.7-5.4,1-8.1l0.5-4.3
		L48,60.7c-0.2,0.5-0.6,1-1,1.4c-0.5,0.4-1,0.8-1.5,1.2c-1.1,0.7-2.3,1.3-3.5,1.9c-2.4,1.1-4.9,2.1-7.3,3.1c-0.5,0.2-1,0.4-1.5,0.6
		C34.1,67.4,35,66.1,35.9,64.7z M10.5,87.9c0.7-0.8,1.4-1.5,2.1-2.2l2.2-2.2c0.6-0.6,1.2-1.1,1.7-1.7c0.2,0.1,0.4,0.1,0.6,0.2
		c2,0.6,4,0.5,5.9,0c0.2,0.4,0.2,0.9,0,1.3c-0.2,0.4-0.5,0.8-0.8,1.1c-0.7,0.6-1.5,1.2-2.4,1.6c-0.9,0.5-1.7,0.8-2.6,1.2
		c-0.9,0.4-1.8,0.7-2.7,0.9c-1.8,0.5-3.6,0.9-5.4,1.3L10.5,87.9z M4.5,92.2c1.6-0.3,3.1-0.6,4.7-1.1c1.9-0.5,3.8-1.1,5.7-1.8
		c1.9-0.7,3.7-1.6,5.4-2.6c0.8-0.6,1.7-1.2,2.3-1.9c0.3-0.4,0.6-0.8,0.8-1.4c0.2-0.5,0.1-1.1-0.2-1.6c0,0,0,0,0,0c0,0,0-0.1-0.1-0.1
		c-1-0.2-1.9-0.3-2.8-0.6c-0.9-0.2-1.8-0.5-2.5-0.9c-1.6-0.7-2.8-1.9-3.7-3.4l-0.3-0.6c-0.1-0.2-0.2-0.4-0.3-0.6
		c-0.2-0.4-0.4-0.8-0.6-1.3c-0.4-0.9-0.8-1.8-1.1-2.7c-0.4-0.9-0.7-1.8-1-2.7c-0.2-0.5-0.3-0.9-0.5-1.4c-0.1-0.2-0.1-0.3-0.2-0.5
		c1.4,0.3,2.8,0.7,4.2,1.2c1.6,0.6,3.1,1.4,4.3,2.5c0.3,0.3,0.7,0.5,0.9,0.8c0.3,0.3,0.6,0.6,0.9,0.9c0.5,0.7,1,1.3,1.4,2
		c0.5,0.7,0.8,1.5,1.1,2.3c0.3,0.8,0.5,1.7,0.8,2.5l0.1,0.3l0,0c0.7,0.7,1.2,1.6,1.8,2.5c0,0,0,0,0,0c0,0,0,0,0,0
		c0,0.1,0.1,0.1,0.2,0.1c0.2-0.1,0.4-0.2,0.6-0.3l0.6-0.3c0.4-0.2,0.8-0.4,1.2-0.6l0.3-0.2l0-0.5c-0.1-1.3-0.1-2.6,0-3.8
		c0-0.6,0.1-1.2,0.2-1.8c0.1-0.6,0.2-1.2,0.3-1.7c0.2-0.6,0.5-1.1,0.9-1.5c0.4-0.4,1-0.7,1.6-1c1.1-0.6,2.4-1.2,3.6-1.7
		c2.4-1,4.9-2,7.3-3.1c1.2-0.5,2.4-1.1,3.6-1.8c0.6-0.4,1.2-0.7,1.7-1.2c0,0,0,0,0.1-0.1c-0.3,2-0.7,4.1-1.1,6.1
		c-0.6,2.6-1.3,5.2-2.8,7.2c-0.7,1-1.6,1.8-2.7,2.5c-1.1,0.6-2.3,1.1-3.5,1.5c-1.2,0.4-2.5,0.7-3.7,0.8c-1.2,0.2-2.6,0.2-3.8,0.1
		L29.5,81l-0.4,0.5c-0.3,0.4-0.8,0.9-1.2,1.3c-0.4,0.4-0.9,0.9-1.4,1.3c-1,0.8-2,1.6-3.1,2.3c-2.1,1.4-4.4,2.6-6.7,3.6
		c-2.3,1-4.8,1.9-7.2,2.6c-1.8,0.5-3.5,0.9-5.3,1.3c0.2-0.4,0.3-0.8,0.4-1.4C4.5,92.4,4.5,92.3,4.5,92.2z"/>
	<path class="st6" d="M62.7,64.1l0.5,2.1c0.7,2.8,1.6,5.5,2.6,8.2c0.5,1.3,1,2.7,1.5,4l0.4,1c0.2,0.5,0.5,0.9,0.8,1.3
		c0.7,0.7,1.7,1.2,2.7,1.2c1.4,0,2.8-0.1,4.2-0.2l1.1-0.1c0.4,0,0.7,0,1.2-0.1c0.9-0.2,1.7-0.7,2.2-1.5c0.2-0.4,0.4-0.8,0.5-1.2
		c0-0.2,0-0.4,0-0.6c0-0.2,0-0.4,0-0.5c0-0.7-0.1-1.4-0.1-2.1c-0.1-1.4-0.1-2.9,0-4.3c0.1-2.9,0.4-5.7,0.6-8.6c0-0.4,0.1-0.6,0-1.2
		c0-0.5-0.2-1-0.5-1.4c-0.5-0.9-1.3-1.5-2.3-1.7c-0.2-0.1-0.5-0.1-0.7-0.1c-0.3,0-0.4,0-0.6,0l-1.1,0.1c-0.7,0-1.4,0.1-2.1,0.2
		c-2.8,0.3-5.6,0.7-8.5,0.6c-1.5,0-2.9,1.2-3,2.9c0,0.4,0.1,0.8,0.2,1.2L62.7,64.1z M63.4,60.1c0.4-0.5,1.1-0.8,1.8-0.8
		c2.8,0,5.6,0.3,8.5,0.6c0.7,0.1,1.4,0.1,2.1,0.2l1.1,0.1c0.2,0,0.4,0,0.5,0c0.1,0,0.2,0,0.3,0.1c0.4,0.1,0.8,0.4,1,0.8
		c0.1,0.2,0.2,0.4,0.2,0.6c0,0.2,0,0.6,0.1,0.9c0.1,2.9,0.5,5.7,0.6,8.6c0,1.4,0,2.9,0,4.3c0,0.7-0.1,1.4-0.1,2.1c0,0.2,0,0.4,0,0.5
		c0,0.1,0,0.3-0.1,0.4c-0.1,0.3-0.2,0.5-0.4,0.7c-0.4,0.4-0.9,0.6-1.4,0.7c-0.2,0-0.6,0-0.9-0.1l-1.1-0.1c-1.4-0.1-2.8-0.1-4.2-0.2
		c-0.4,0-0.8-0.2-1-0.5c-0.1-0.2-0.2-0.3-0.3-0.5l-0.4-1c-0.5-1.3-1-2.7-1.5-4c-1.1-2.6-2.1-5.3-3.5-7.8l-1-1.9l-0.5-1
		c-0.2-0.3-0.3-0.6-0.3-0.9C62.8,61.3,63,60.6,63.4,60.1z"/>
</g>
</svg>
