<?xml version="1.0" encoding="utf-8"?>
<!-- Generator: Adobe Illustrator 24.1.2, SVG Export Plug-In . SVG Version: 6.00 Build 0)  -->
<svg version="1.1" id="Layer_1" xmlns="http://www.w3.org/2000/svg" xmlns:xlink="http://www.w3.org/1999/xlink" x="0px" y="0px"
	 viewBox="0 0 128 128" style="enable-background:new 0 0 128 128;" xml:space="preserve">
<style type="text/css">
	.st0{fill:#DB5240;}
	.st1{fill:#605C58;}
	.st2{fill:#333333;}
</style>
<g>
	<path class="st0" d="M106.6,64.1C106.6,64.1,106.6,64.1,106.6,64.1C106.7,64.1,106.7,64.1,106.6,64.1z"/>
	<path class="st0" d="M89.5,125.5L89.5,125.5C89.5,125.5,89.5,125.5,89.5,125.5z"/>
	<path class="st1" d="M121.6,85.1c-0.6-0.4-1.2-0.7-1.9-1c-1.3-0.6-2.6-1.2-3.9-1.8l-0.6-0.3l-0.1-0.7c-0.1-0.6-0.2-1.3-0.2-1.9
		l-0.1-0.9c0-0.2,0-0.4-0.1-0.6c-0.1-0.4-0.3-0.8-0.5-1.2c-0.1-0.2-0.3-0.3-0.5-0.6c-0.2-0.2-0.4-0.5-0.6-0.7
		c-1.6-1.9-3.2-3.8-4.6-5.8c0-0.1,0-0.2,0-0.2c0.1,0,0.1,0,0.2,0l0,0c0.1,0.1,0.3,0.2,0.4,0.3c-0.6-1.1-1.1-2.2-1.5-3.2
		c-0.3-0.6-0.5-1.2-0.8-1.7c-0.1-0.2-0.2-0.4-0.3-0.5c0,0,0,0,0,0c-0.2,0.1-0.4,0.3-0.6,0.5c-0.5,0.4-0.9,0.9-1.4,1.4
		c-0.9,1-1.9,2.1-3,3.2c0.1-0.6,0.2-1.2,0.3-1.8c-1.2,0-2.5-0.2-3.7-0.3c-1.4-0.2-2.8-0.4-4.1-0.6c-1.4-0.2-2.7-0.5-4.1-0.8
		c-0.3-0.1-0.7-0.2-1.1-0.4c-0.4-0.2-0.7-0.4-1-0.6c-0.6-0.4-1.2-0.9-1.7-1.4c-1-0.9-2-1.8-3-2.2c-0.5-0.2-1-0.3-1.6-0.3
		c-0.6,0-1.2,0.1-1.8,0.2c-2.5,0.5-4.7,1.9-7.4,3.1L72,64.2l-0.2,0c-2.6,0.3-5,0.2-7.4,0c-2.4-0.2-4.8-0.5-7.1-0.8l-7-1
		c-2.3-0.3-4.6-0.5-6.8-0.5c-2.2,0-4.4,0.5-6.6,1.1c-2.2,0.6-4.3,1.6-6.3,2.6c-2,1.1-3.9,2.3-5.5,3.9c-1.7,1.5-3.2,3.3-4.6,5.1
		c-1.5,1.8-2.9,3.7-4.5,5.5l-1.1,1.3c-0.3,0.4-0.6,0.9-0.9,1.4c-0.5,1-0.9,2.1-1.2,3.2c-0.6,2.2-0.9,4.5-1,6.9c0,0.6,0,1.2,0,1.8
		c0,0.6,0.1,1.1-0.1,1.9c-0.3,1.3-0.8,2.3-1.3,3.4c-1.1,2.1-2.2,4.2-3.4,6.3c-1.1,2.1-2.3,4.1-3.4,6.2c-0.5,1-1,2.1-1.4,3.2
		c-0.4,1.1-0.5,2-0.3,3c0.4,1.9,1.8,3.6,3.3,4.9c1.9-0.1,3.8-0.1,5.7-0.1c0.5,0,0.9,0,1.4,0c-0.3-0.1-0.6-0.1-0.9-0.3
		c-0.3-0.1-0.7-0.3-1-0.7c-0.1-0.1-0.2-0.2-0.2-0.3c-0.1-0.1-0.1-0.2-0.2-0.4c-0.1-0.3-0.1-0.6-0.1-0.8c0.1-0.8,0.4-1.3,0.6-1.7
		c0.3-0.4,0.5-0.8,0.8-1.2c1.1-1.5,2.4-2.7,3.7-4c1.3-1.2,2.6-2.4,4-3.5c0.7-0.5,1.4-1.1,2.1-1.6c0.7-0.5,1.5-1,2.1-1.5
		c1.3-1,2.4-2.2,3.3-3.6c0.5-0.7,1-1.5,1.4-2.3c0-0.1,0.1-0.3,0.1-0.3c0.3-0.6,0.6-1.2,0.9-1.9c0.3-0.8,0.7-1.6,1-2.4l0.5-1.2
		l0.2-0.6l0.1-0.3l0.1-0.2c0.1-0.1,0-0.1,0.2-0.2c0,0,0.1,0,0.1,0c0,0,0,0,0,0.1l0,0.2L30.5,97c-0.2,0.8-0.5,1.7-0.7,2.5
		c-0.2,0.7-0.5,1.5-0.8,2.2c1.8,1.3,3.7,2.6,5.5,4.1c1,0.8,2.1,1.7,3,2.6c1,0.8,2,1.9,2.9,3c0.8,1.1,1.6,2.3,2.2,3.5
		c0.7,1.2,1.3,2.4,1.8,3.6c1,2.2,1.7,4.4,2.4,6.7c2.4,0.1,4.9,0.2,7.3,0.4l4.2,0.3c1.2,0.1,2.4,0.1,3.7,0.2
		c-0.1-0.5-0.3-0.9-0.7-1.3c-0.5-0.5-1.1-0.9-1.8-1.3c-1.4-0.7-2.9-1.2-4.3-1.9l-0.4-0.2l0-0.6c0.1-1.4-0.2-2.8-0.4-4.2
		c-0.3-1.4-0.6-2.8-0.9-4.2l-1-4.3c-0.2-0.7-0.3-1.5-0.4-2.2c-0.1-0.4-0.1-0.8-0.2-1.2c0-0.2,0-0.5,0-0.7l0-0.2l0-0.3
		c0-0.2,0.1-0.3,0.1-0.5l0.2-0.6l0.7,0c0.7,0,1.4,0,2-0.2c0.7-0.1,1.4-0.3,2-0.5c0.7-0.2,1.3-0.5,2-0.8c0.3-0.1,0.7-0.3,1-0.5
		l0.5-0.2c0.2-0.1,0.3-0.1,0.5-0.2l0.1-0.4c0.2-1,0.5-2,0.9-2.9c0.4-1,0.8-1.9,1.4-2.8c0.6-0.9,1.4-1.7,2.3-2.1c0.1,0,0.2,0,0.2,0.1
		c0,0.1,0,0.1,0,0.2l0,0c-1.4,1.4-1.9,3.2-2.2,5.1c-0.2,0.9-0.3,1.9-0.3,2.9l-0.2,1.5c0,0.3,0,0.9,0,1.3c0,1.9,0.2,3.9,0.3,5.8
		c0.1,1.9,0.2,3.9,0.4,5.8c0.2,1.9,0.4,3.8,0.7,5.7c0.2,0.9,0.4,1.8,0.8,2.5c0.2,0.5,0.9,1,1.7,1.5c1.5,0.9,3.4,1.3,5.4,1.5
		c1.8,0.2,3.7,0.2,5.5,0.2c0.1-0.6,0-1.1-0.4-1.5c-0.4-0.5-1-0.8-1.7-1.1c-1.4-0.5-2.9-0.7-4.5-1l-0.6-0.1l-0.2-0.6
		c-0.1-0.3-0.2-0.6-0.2-0.9c0-0.3,0-0.5-0.1-0.8c0-0.5,0-0.9,0.1-1.4c0.1-0.9,0.3-1.8,0.5-2.6c0.4-1.7,0.9-3.4,1.5-5
		c0.6-1.6,1.2-3.2,2-4.8c0.7-1.6,1.5-3.1,2.5-4.5c0-0.1,0.1-0.1,0.2,0c0.1,0,0.1,0.1,0.1,0.2l0,0c-0.5,1.6-0.8,3.3-1.3,4.9l-0.9,3.7
		c1.1,0.8,2.2,1.4,3.3,1.9c1.3,0.7,2.6,1.3,3.9,1.9c1.3,0.6,2.6,1.3,3.9,1.9c1.3,0.6,2.5,1.4,3.8,2.1c0.5-0.7,1.1-1.4,1.8-1.9
		c-0.5,0.8-1,1.7-1.3,2.6c-0.4,0.9-0.6,1.8-0.8,2.8c-0.2,0.9-0.3,1.9-0.3,2.7c0,0.4,0.1,0.9,0.2,1.1c0,0.1,0.1,0.2,0.1,0.2
		c1.2,0.1,2.3,0,3.1-0.7c0.8-0.7,1.4-1.8,1.8-3.1c0.4-1.3,0.7-2.6,0.9-4c0.1-0.7,0.2-1.4,0.3-2.2c0-0.4,0.1-0.7,0.2-1.2l0.1-0.3
		l0-0.2c0,0,0,0,0,0c0,0,0,0,0-0.1c0-0.3-0.4-0.9-0.8-1.4c-0.4-0.5-0.9-1.1-1.3-1.6c-1-1-2-2.1-3.1-3.2c-0.3-0.3-0.5-0.5-0.8-0.8
		c-0.3-0.3-0.5-0.6-0.8-1c-0.4-0.9-0.4-1.7-0.4-2.4c0.1-0.8,0.2-1.5,0.4-2.3c0.1-0.4,0.2-0.7,0.3-1.1c0-0.1,0-0.1,0.1-0.2
		c0-0.6-0.1-1.2-0.1-1.9c0-0.7,0-1.4,0.1-2.2c0.1-0.7,0.2-1.5,0.5-2.2c0.1-0.4,0.2-0.7,0.4-1.1c0.2-0.4,0.3-0.7,0.6-1.1l0.4-0.5
		c0.1-0.2,0.3-0.3,0.5-0.5c0.3-0.3,0.7-0.6,1.1-0.8c0.8-0.4,1.7-0.6,2.6-0.7c1.7-0.1,3.1,0.2,4.3,0.2l0,0l0.1,0
		c3,0.3,5.9,0.8,8.8,1.2c1.5,0.2,2.9,0.4,4.4,0.7l2.2,0.4l1.1,0.2c0.3,0,0.6,0.1,0.9,0c1.3-0.1,2.6-0.9,3.6-1.9c0.5-0.5,1-1,1.3-1.6
		c0.2-0.3,0.4-0.6,0.5-0.9c0.1-0.2,0.1-0.3,0.1-0.5c0.1-0.2,0-0.2,0-0.3C122.7,86,122.1,85.5,121.6,85.1z"/>
	<path class="st0" d="M118.3,4.2c-1-0.5-2.1-0.9-3.3-1.1c-1.1-0.2-2.5-0.2-3.7-0.4c-2.3-0.2-4.7,0.4-6.8,1.6c-2.1,1.2-4,2.9-5.4,4.9
		c-0.7,1-1.3,2.1-1.7,3.3c-0.2,0.6-0.4,1.2-0.5,1.8c-0.1,0.3-0.1,0.6-0.2,0.9l-0.1,0.5c0,0.1-0.1,0.2-0.1,0.4
		c3.1-0.2,5.8-0.5,8.5-0.7c0.1-1.2,0.4-2.3,1-3.4c0.3-0.7,0.7-1.3,1.2-1.9c0.5-0.5,1.2-1.1,1.9-1.4c0.7-0.4,1.5-0.5,2.3-0.6
		c0.8-0.1,1.6,0,2.4,0.3c0.8,0.3,1.5,0.8,2.1,1.3c0.6,0.6,1,1.3,1.3,2c0.7,1.5,0.8,3.1,0.4,4.6c-0.2,0.8-0.5,1.5-0.9,2.1
		c-0.4,0.7-1,1.3-1.4,1.7c-0.9,0.9-1.8,1.8-2.7,2.7c-0.9,0.9-1.9,1.8-2.6,2.7c-1.5,1.9-2.3,4.4-2.8,6.8c-0.3,1.2-0.4,2.5-0.4,3.8
		c0,0.2,0,0.2,0.2,0.3c0,0,0.2,0,0.4,0l0.5,0l1.9,0c1.3,0,2.6,0,3.9-0.1l1,0c0.1,0,0.4,0,0.4,0c0,0,0,0,0.1,0c0,0,0,0,0,0l0-0.4
		c0-0.3,0-0.7-0.1-1c0-1.3,0-2.8,0.8-4.2c0.4-0.7,0.9-1.1,1.4-1.6l1.3-1.4c1.8-1.9,3.4-3.8,4.6-5.9c1.3-2,1.9-4.3,2-6.7
		c0-2.3-0.6-4.6-1.8-6.6C122.1,6.8,120.3,5.2,118.3,4.2z"/>
	<path class="st0" d="M109.5,49.2c0.5,0,1,0,1.4-0.1c0.9-0.2,1.6-0.4,2.6-0.8c0.5-0.2,1-0.5,1.3-1c0.4-0.4,0.6-1,0.5-1.6
		c0-0.6-0.2-1.1-0.6-1.6c-0.3-0.4-0.8-0.7-1.3-0.9c-0.5-0.2-0.9-0.3-1.3-0.4c-0.4-0.1-0.8-0.1-1.2-0.1c-0.8,0-1.6,0.2-2.2,0.7
		c-0.6,0.5-1.2,1.2-1.5,2.2c-0.3,1,0,2.2,0.9,2.9C108.4,49,109,49.2,109.5,49.2z"/>
	<path class="st2" d="M119.6,1.4c-1.3-0.6-2.7-1-4.2-1.2c-1.5-0.2-2.7-0.1-4-0.2c-2.9-0.1-5.7,0.9-8,2.5c-4.6,3.1-7.6,8.4-7,13.9
		c2.9,0.2,6.2,0.6,9.5,0.7l0.7,0l0.1-0.8c0.4-2.3,1.6-4.7,3.4-5.4c0.9-0.4,2.1-0.4,2.9,0c0.8,0.3,1.5,1.1,1.9,2c0.4,0.9,0.5,2,0.2,3
		c-0.1,0.5-0.3,1-0.6,1.4c-0.3,0.5-0.6,0.8-1,1.3c-0.9,1-1.7,2-2.5,3c-0.8,1-1.7,1.9-2.5,3.2c-1.4,2.4-2,5.1-2.4,7.7
		c-0.2,1.3-0.3,2.6-0.3,3.9c0,0.2,0,0.5,0.2,0.7c0.2,0.2,0.4,0.4,0.7,0.4c0.3,0.1,0.4,0,0.6,0l0.5,0l1.9,0c1.3,0,2.6,0,3.9,0.1l1,0
		c0.2,0,0.3,0,0.5,0c0.3,0,0.6-0.2,0.8-0.4c0.2-0.2,0.3-0.5,0.4-0.8l0-0.5c0-0.3,0-0.6,0-0.9c0.1-1.2,0.3-2.5,0.9-3.3
		c0.3-0.4,0.8-0.8,1.3-1.2l1.5-1.3c2-1.7,3.9-3.7,5.4-6c1.6-2.3,2.6-5.1,2.7-8c0.1-2.8-0.5-5.8-2-8.3C124.4,4.6,122.2,2.6,119.6,1.4
		z M123.1,21.9c-1.3,2.1-2.9,4-4.6,5.9l-1.3,1.4c-0.5,0.5-0.9,0.9-1.4,1.6c-0.8,1.4-0.8,2.8-0.8,4.2c0,0.3,0,0.7,0.1,1l0,0.4
		c0,0,0,0,0,0c0,0,0,0-0.1,0c-0.1,0-0.3,0-0.4,0l-1,0c-1.3,0-2.6,0.1-3.9,0.1l-1.9,0l-0.5,0c-0.2,0-0.4,0-0.4,0
		c-0.1-0.1-0.2-0.1-0.2-0.3c0.1-1.3,0.2-2.5,0.4-3.8c0.5-2.5,1.4-4.9,2.8-6.8c0.7-0.9,1.7-1.8,2.6-2.7c0.9-0.9,1.8-1.8,2.7-2.7
		c0.4-0.4,1-1,1.4-1.7c0.4-0.7,0.7-1.4,0.9-2.1c0.4-1.5,0.3-3.2-0.4-4.6c-0.3-0.7-0.8-1.4-1.3-2c-0.6-0.6-1.3-1.1-2.1-1.3
		c-0.8-0.3-1.6-0.4-2.4-0.3c-0.8,0.1-1.6,0.2-2.3,0.6c-0.7,0.3-1.4,0.9-1.9,1.4c-0.5,0.6-0.9,1.2-1.2,1.9c-0.5,1.1-0.8,2.2-1,3.4
		c-2.7,0.2-5.5,0.5-8.5,0.7c0-0.2,0.1-0.3,0.1-0.4l0.1-0.5c0-0.3,0.1-0.6,0.2-0.9c0.1-0.6,0.3-1.2,0.5-1.8c0.4-1.2,1-2.3,1.7-3.3
		c1.4-2,3.3-3.7,5.4-4.9c2.1-1.2,4.5-1.8,6.8-1.6c1.2,0.1,2.6,0.2,3.7,0.4c1.1,0.2,2.2,0.6,3.3,1.1c2.1,1,3.8,2.6,5,4.5
		c1.2,1.9,1.8,4.2,1.8,6.6C125,17.6,124.4,19.9,123.1,21.9z"/>
	<path class="st2" d="M110.9,51.6c1.5,0.2,3.2-0.6,3.9-1.9c0.4-0.6,0.6-1.3,0.7-2c0.1-0.7,0.1-1.3,0.1-1.9c0-1.2-0.1-2.6-0.8-3.9
		c-0.4-0.6-0.9-1.2-1.6-1.6c-0.7-0.4-1.5-0.6-2.3-0.6c-1.6-0.1-3.2,0.7-4.2,1.9c-0.5,0.6-0.9,1.3-1.1,2c-0.2,0.7-0.2,1.5-0.1,2.2
		c0.3,1.4,1,2.5,1.8,3.5C108.2,50.3,109.4,51.4,110.9,51.6z M107.2,45.8c0.3-1,0.9-1.7,1.5-2.2c0.7-0.5,1.5-0.7,2.2-0.7
		c0.4,0,0.8,0,1.2,0.1c0.4,0.1,0.9,0.2,1.3,0.4c0.5,0.2,1,0.5,1.3,0.9c0.4,0.4,0.6,1,0.6,1.6c0,0.6-0.2,1.1-0.5,1.6
		c-0.4,0.4-0.8,0.8-1.3,1c-1,0.4-1.7,0.6-2.6,0.8c-0.4,0.1-0.9,0.2-1.4,0.1c-0.5,0-1-0.2-1.5-0.6C107.2,48,106.9,46.8,107.2,45.8z"
		/>
	<path class="st2" d="M122.6,83.9c-0.6-0.6-1.2-1.1-1.8-1.5c-1-0.8-2.1-1.5-3.2-2.1c0-0.4-0.1-0.8-0.1-1.1l-0.1-0.9
		c0-0.4-0.1-0.8-0.2-1.1c-0.2-0.7-0.6-1.4-1.1-2c-0.2-0.3-0.6-0.6-0.8-0.8c-0.2-0.2-0.5-0.4-0.7-0.6c-1.6-1.3-3.2-2.6-4.9-3.8
		c0.4-1.4,0.5-2.8,0.4-4.2c-0.1-0.8-0.2-1.5-0.6-2.3c-0.2-0.4-0.4-0.8-0.8-1.3c-0.4-0.4-1.1-1-2-0.9c-0.9,0.1-1.4,0.4-1.8,0.7
		c-0.4,0.3-0.7,0.6-0.9,1c-0.5,0.7-0.9,1.3-1.2,2c-0.3,0.7-0.6,1.4-0.8,2.2c-2.6-0.4-5.1-1.1-7.6-1.7c-1.3-0.4-2.7-0.7-3.9-1.1
		c-0.3-0.1-0.6-0.2-0.8-0.3c-0.2-0.1-0.5-0.3-0.7-0.5c-0.5-0.4-0.9-0.9-1.4-1.4c-0.9-1-2-2.1-3.5-2.9c-0.7-0.4-1.6-0.6-2.4-0.6
		c-0.8-0.1-1.6,0-2.3,0.1c-2.9,0.5-5.4,1.9-7.8,2.8c-2.1,0.2-4.4,0-6.6-0.3c-2.3-0.3-4.6-0.6-7-1c-2.3-0.4-4.7-0.7-7.1-1
		c-2.4-0.3-4.8-0.6-7.3-0.5c-2.6,0.1-5,0.6-7.4,1.4c-2.4,0.8-4.6,1.8-6.7,3c-2.1,1.2-4.2,2.7-5.9,4.5c-1.7,1.8-3.2,3.7-4.6,5.6
		c-1.4,1.9-2.7,3.9-4.1,5.8l-1.1,1.4c-0.4,0.5-0.7,1.1-0.9,1.7c-0.5,1.1-0.9,2.3-1.1,3.5c-0.5,2.4-0.6,4.8-0.7,7.2
		c0,0.6,0,1.2,0,1.8c0,0.6,0.1,1.2,0,1.7c-0.2,1.1-0.7,2.1-1.2,3.2c-2.1,4.2-4.7,8.2-7.1,12.3c-0.6,1-1.2,2.1-1.7,3.2
		c-0.3,0.6-0.5,1.2-0.6,1.9c-0.1,0.7-0.1,1.4,0,2c0.2,1.3,0.7,2.6,1.4,3.6c0.7,1.1,1.5,2,2.5,2.9l0.3,0.2l0.4,0c2,0.1,4,0.1,6.1,0.1
		c2,0,4,0,6.1,0l1.2,0l0.1-1.2c0.1-0.6,0-1.4-0.4-2.1c-0.5-0.7-1.1-1.1-1.7-1.3c-1.1-0.4-2.1-0.4-2.9-0.5c-0.3,0-0.6-0.1-0.8-0.1
		c0.1-0.1,0.1-0.3,0.2-0.4c0.2-0.3,0.4-0.6,0.6-1c1.9-2.6,4.5-5.1,7-7.3c0.6-0.6,1.3-1.1,2-1.6c0.7-0.5,1.4-1,2.1-1.6
		c1.4-1.2,2.5-2.7,3.4-4.3c0.4-0.7,0.7-1.4,1-2.1c1.4,1.7,2.9,3.3,4.4,4.9c1.7,2,3.6,3.9,4.9,5.9c1.3,2.1,2.4,4.4,3.5,6.8
		c1,2.3,2.1,4.8,3,7.2l0.4,1l1,0c2.8-0.1,5.6-0.2,8.3-0.4l4.2-0.3c1.4-0.1,2.8-0.2,4.2-0.2l0.5,0l0-0.5c0-0.9-0.4-1.8-1-2.4
		c-0.6-0.7-1.3-1.1-2-1.5c-1.2-0.7-2.4-1.4-3.5-2.1c0.3-1.4,0.3-2.8,0.2-4.2c-0.1-1.5-0.3-3.1-0.7-4.5c-0.3-1.5-0.8-2.9-1.1-4.3
		c-0.2-0.7-0.4-1.4-0.6-2.1c-0.1-0.3-0.2-0.7-0.2-1c0,0,0-0.1,0-0.1c0.5-0.1,0.9-0.2,1.4-0.3c0.8-0.3,1.5-0.6,2.2-0.9
		c0.7-0.4,1.3-0.8,1.9-1.3c0.3-0.2,0.6-0.5,0.9-0.7l0.5-0.5l-0.1,0.6c-0.1,0.6-0.2,1.1-0.2,1.6c-0.3,4-0.3,8,0.2,12
		c0.3,2,0.6,4,1.2,6c0.3,1,0.6,2,1.3,3.1c0.2,0.3,0.4,0.5,0.7,0.8l0.2,0.2l0.2,0.1l0.4,0.2c0.5,0.3,1,0.6,1.5,0.8
		c2.1,0.8,4.2,0.8,6.2,0.8c2,0,4-0.1,6-0.1l0.3,0l0.1-0.3c0.3-0.8,0.3-1.9-0.3-2.7c-0.5-0.8-1.3-1.3-2-1.8c-1.2-0.7-2.5-1.2-3.7-1.6
		c0-0.1,0-0.3,0-0.4c0-0.3,0.1-0.7,0.2-1.1c0.1-0.8,0.3-1.6,0.5-2.4c0.3-1.6,0.8-3.2,1.2-4.9l0.1-0.5c0.5,1.2,1.3,2.2,2.1,3
		c1.2,1.1,2.5,2,4,2.7c1.4,0.7,2.9,1.2,4.5,1.4c0.8,0.1,1.6,0.2,2.3,0.3c0.7,0,1.3,0,2-0.1c0,0,0,0.1-0.1,0.1
		c-0.6,0.8-1.1,1.8-1.5,2.7c-0.4,1-0.7,2-0.9,3.1c-0.1,0.6-0.1,1.1,0.1,1.8c0.1,0.3,0.2,0.7,0.4,1.1c0.2,0.4,0.7,0.7,1.1,0.9l0,0
		l0.1,0c0.8,0.2,1.7,0.3,2.7,0.2c0.9-0.1,1.9-0.5,2.6-1.1c1.6-1.2,2.4-2.8,2.9-4.3c0.6-1.5,0.8-3.1,1-4.6c0.1-0.8,0.2-1.5,0.2-2.2
		l0.1-1l0.1-0.6c0-0.4,0-0.7-0.1-1c-0.4-1.1-0.9-1.7-1.5-2.4c-0.6-0.6-1.1-1.1-1.7-1.6c-1.2-1-2.4-1.9-3.6-2.7l-0.9-0.6
		c-0.3-0.2-0.6-0.4-0.7-0.6c-0.3-0.4-0.5-1.2-0.5-1.9c-0.1-0.7-0.1-1.4,0-2.2c0-0.3,0.1-0.6,0.1-0.9c0.1,0,0.2,0,0.2-0.1l0,0
		c0.2-0.7,0.4-1.4,0.6-2c0.2-0.7,0.4-1.3,0.6-2c0.5-1.3,1.1-2.5,1.8-3.3c0.8-0.8,1.6-1.1,2.8-1.1c1.1,0,2.5,0.4,4.1,0.5l-0.1,0
		c2.9,0.4,5.9,0.6,8.9,0.8c1.5,0.1,3,0.2,4.5,0.2c0.7,0,1.5,0,2.3,0l1.1,0c0.4,0,0.9-0.1,1.3-0.2c1.7-0.5,2.9-1.5,4-2.6
		c0.5-0.6,1-1.2,1.5-1.8c0.2-0.3,0.4-0.7,0.6-1c0.1-0.2,0.2-0.4,0.3-0.6c0.1-0.1,0.1-0.6,0.1-0.8C123.7,85.1,123.1,84.5,122.6,83.9z
		 M106.6,64.1C106.6,64.1,106.6,64.1,106.6,64.1C106.7,64.1,106.7,64.1,106.6,64.1z M89.4,125.5L89.4,125.5
		C89.5,125.5,89.5,125.5,89.4,125.5z M122.9,86.6c0,0.1-0.1,0.3-0.1,0.5c-0.1,0.3-0.3,0.6-0.5,0.9c-0.4,0.6-0.8,1.2-1.3,1.6
		c-1,1-2.3,1.8-3.6,1.9c-0.3,0-0.6,0-0.9,0l-1.1-0.2l-2.2-0.4c-1.5-0.3-2.9-0.5-4.4-0.7c-2.9-0.4-5.9-0.9-8.8-1.2l-0.1,0l0,0
		c-1.2,0-2.6-0.3-4.3-0.2c-0.8,0-1.7,0.3-2.6,0.7c-0.4,0.2-0.8,0.5-1.1,0.8c-0.2,0.2-0.3,0.3-0.5,0.5L91,91.3
		c-0.3,0.3-0.4,0.7-0.6,1.1c-0.2,0.4-0.3,0.7-0.4,1.1c-0.3,0.7-0.3,1.5-0.5,2.2c-0.1,0.7-0.1,1.5-0.1,2.2c0,0.6,0,1.2,0.1,1.9
		c0,0.1,0,0.1-0.1,0.2c-0.1,0.4-0.2,0.7-0.3,1.1c-0.2,0.7-0.3,1.5-0.4,2.3c0,0.8,0,1.6,0.4,2.4c0.3,0.5,0.5,0.7,0.8,1
		c0.3,0.3,0.5,0.6,0.8,0.8c1,1.1,2.1,2.1,3.1,3.2c0.5,0.5,0.9,1.1,1.3,1.6c0.4,0.5,0.8,1.1,0.8,1.4c0,0.1,0,0.1,0,0.1c0,0,0,0,0,0
		l0,0.2l-0.1,0.3c-0.1,0.4-0.1,0.8-0.2,1.2c-0.1,0.7-0.2,1.5-0.3,2.2c-0.2,1.4-0.5,2.8-0.9,4c-0.4,1.3-1,2.4-1.8,3.1
		c-0.8,0.7-1.8,0.9-3.1,0.7c0,0-0.1-0.1-0.1-0.2c-0.1-0.3-0.2-0.7-0.2-1.1c0-0.9,0.1-1.8,0.3-2.7c0.2-0.9,0.5-1.9,0.8-2.8
		c0.3-0.9,0.8-1.8,1.3-2.6c-0.7,0.5-1.3,1.2-1.8,1.9c-1.3-0.7-2.5-1.4-3.8-2.1c-1.3-0.7-2.6-1.3-3.9-1.9c-1.3-0.6-2.6-1.2-3.9-1.9
		c-1.1-0.6-2.2-1.2-3.3-1.9l0.9-3.7c0.4-1.6,0.8-3.3,1.3-4.9l0,0c0-0.1,0-0.1-0.1-0.2c-0.1,0-0.2,0-0.2,0c-1,1.4-1.8,3-2.5,4.5
		c-0.7,1.6-1.4,3.2-2,4.8c-0.6,1.6-1.1,3.3-1.5,5c-0.2,0.9-0.4,1.7-0.5,2.6c0,0.5-0.1,0.9-0.1,1.4c0,0.3,0,0.5,0.1,0.8
		c0.1,0.3,0.1,0.6,0.2,0.9l0.2,0.6l0.6,0.1c1.6,0.3,3.1,0.5,4.5,1c0.7,0.3,1.3,0.6,1.7,1.1c0.4,0.4,0.5,0.9,0.4,1.5
		c-1.9,0-3.7,0-5.5-0.2c-1.9-0.2-3.8-0.7-5.4-1.5c-0.7-0.4-1.5-1-1.7-1.5c-0.3-0.7-0.6-1.6-0.8-2.5c-0.4-1.8-0.6-3.7-0.7-5.7
		c-0.2-1.9-0.3-3.9-0.4-5.8c-0.1-1.9-0.3-3.9-0.3-5.8c0-0.5,0-1,0-1.3l0.2-1.5c0.1-1,0.2-1.9,0.3-2.9c0.3-1.8,0.8-3.7,2.2-5.1l0,0
		c0,0,0.1-0.1,0-0.2c0-0.1-0.1-0.1-0.2-0.1c-0.9,0.4-1.7,1.2-2.3,2.1c-0.6,0.9-1,1.8-1.4,2.8c-0.3,1-0.6,2-0.9,2.9L61,100
		c-0.2,0.1-0.3,0.1-0.5,0.2l-0.5,0.2c-0.3,0.2-0.7,0.3-1,0.5c-0.7,0.3-1.3,0.6-2,0.8c-0.7,0.2-1.3,0.4-2,0.5c-0.7,0.1-1.4,0.2-2,0.2
		l-0.7,0L52,103c-0.1,0.2-0.1,0.3-0.1,0.5l0,0.3l0,0.2c0,0.2,0,0.5,0,0.7c0,0.4,0.1,0.8,0.2,1.2c0.1,0.8,0.3,1.5,0.4,2.2l1,4.3
		c0.3,1.4,0.7,2.8,0.9,4.2c0.3,1.4,0.5,2.8,0.4,4.2l0,0.6l0.4,0.2c1.5,0.7,3,1.2,4.3,1.9c0.7,0.4,1.3,0.8,1.8,1.3
		c0.3,0.4,0.6,0.9,0.7,1.3c-1.2,0-2.4-0.1-3.7-0.2l-4.2-0.3c-2.4-0.2-4.9-0.3-7.3-0.4c-0.7-2.3-1.5-4.5-2.4-6.7
		c-0.5-1.2-1.1-2.5-1.8-3.6c-0.7-1.2-1.4-2.4-2.2-3.5c-0.8-1.1-1.9-2.2-2.9-3c-1-0.9-2-1.8-3-2.6c-1.8-1.5-3.6-2.8-5.5-4.1
		c0.3-0.7,0.6-1.4,0.8-2.2c0.3-0.8,0.5-1.7,0.7-2.5l0.6-2.4l0-0.2c0,0,0,0,0-0.1c0,0-0.1-0.1-0.1,0c-0.2,0.1-0.1,0.2-0.2,0.2
		l-0.1,0.2L30.5,95l-0.2,0.6l-0.5,1.2c-0.3,0.8-0.6,1.6-1,2.4c-0.3,0.6-0.6,1.3-0.9,1.9c0,0-0.1,0.2-0.1,0.3
		c-0.4,0.8-0.9,1.6-1.4,2.3c-0.9,1.4-2.1,2.7-3.3,3.6c-0.6,0.5-1.4,0.9-2.1,1.5c-0.7,0.5-1.4,1-2.1,1.6c-1.4,1.1-2.7,2.2-4,3.5
		c-1.3,1.2-2.5,2.5-3.7,4c-0.3,0.4-0.5,0.8-0.8,1.2c-0.2,0.5-0.5,0.9-0.6,1.7c0,0.2,0,0.5,0.1,0.8c0.1,0.2,0.1,0.3,0.2,0.4
		c0.1,0.1,0.1,0.2,0.2,0.3c0.3,0.4,0.7,0.6,1,0.7c0.3,0.1,0.6,0.2,0.9,0.3c-0.5,0-0.9,0-1.4,0c-1.9,0-3.8,0.1-5.7,0.1
		c-1.5-1.3-2.9-3-3.3-4.9c-0.2-1-0.1-2,0.3-3c0.4-1.1,0.9-2.1,1.4-3.2c1-2.1,2.2-4.2,3.4-6.2c1.2-2.1,2.3-4.1,3.4-6.3
		c0.5-1.1,1-2.2,1.3-3.4c0.1-0.7,0-1.3,0.1-1.9c0-0.6,0-1.2,0-1.8c0.1-2.3,0.4-4.7,1-6.9c0.3-1.1,0.7-2.2,1.2-3.2
		c0.3-0.5,0.5-1,0.9-1.4l1.1-1.3c1.5-1.8,3-3.7,4.5-5.5c1.5-1.8,3-3.6,4.6-5.1c1.6-1.5,3.5-2.8,5.5-3.9c2-1.1,4.1-2,6.3-2.6
		c2.2-0.7,4.4-1.1,6.6-1.1c2.2,0,4.5,0.2,6.8,0.5l7,1c2.4,0.3,4.7,0.6,7.1,0.8c2.4,0.2,4.8,0.3,7.4,0l0.2,0l0.2-0.1
		c2.6-1.2,4.9-2.6,7.4-3.1c0.6-0.1,1.2-0.2,1.8-0.2c0.6,0,1.1,0.1,1.6,0.3c1.1,0.4,2,1.3,3,2.2c0.5,0.5,1,1,1.7,1.4
		c0.3,0.2,0.7,0.4,1,0.6c0.4,0.2,0.8,0.3,1.1,0.4c1.4,0.3,2.7,0.6,4.1,0.8c1.4,0.2,2.7,0.4,4.1,0.6c1.2,0.1,2.4,0.3,3.7,0.3
		c-0.1,0.6-0.3,1.2-0.3,1.8c1.1-1.1,2-2.1,3-3.2c0.5-0.5,0.9-1,1.4-1.4c0.2-0.2,0.4-0.4,0.6-0.5c0,0,0,0,0,0
		c0.1,0.1,0.2,0.3,0.3,0.5c0.3,0.5,0.5,1.1,0.8,1.7c0.5,1,0.9,2.1,1.5,3.2c-0.1-0.1-0.3-0.2-0.4-0.3l0,0c0,0-0.1,0-0.2,0
		c-0.1,0-0.1,0.1,0,0.2c1.4,2.1,3,4,4.6,5.8c0.2,0.2,0.4,0.5,0.6,0.7c0.2,0.2,0.3,0.4,0.5,0.6c0.3,0.4,0.4,0.8,0.5,1.2
		c0.1,0.2,0.1,0.4,0.1,0.6l0.1,0.9c0.1,0.6,0.1,1.3,0.2,1.9l0.1,0.7l0.6,0.3c1.3,0.6,2.6,1.2,3.9,1.8c0.6,0.3,1.3,0.7,1.9,1
		c0.6,0.4,1.2,0.8,1.3,1.2C122.9,86.5,123,86.4,122.9,86.6z"/>
</g>
</svg>
