<?xml version="1.0" encoding="utf-8"?>
<!-- Generator: Adobe Illustrator 24.1.2, SVG Export Plug-In . SVG Version: 6.00 Build 0)  -->
<svg version="1.1" id="Layer_1" xmlns="http://www.w3.org/2000/svg" xmlns:xlink="http://www.w3.org/1999/xlink" x="0px" y="0px"
	 viewBox="0 0 128 128" style="enable-background:new 0 0 128 128;" xml:space="preserve">
<style type="text/css">
	.st0{fill:#6D5E52;}
	.st1{fill:#F4933B;}
	.st2{fill:#98A037;}
	.st3{fill:#E5B693;}
	.st4{fill:#EAE4D6;}
	.st5{fill:#B75F74;}
	.st6{fill:#595855;}
	.st7{fill:#2D2D2D;}
</style>
<g>
	<rect y="77.54" class="st0" width="128" height="50.46"/>
	<g>
		<path class="st1" d="M73.55,65.91c-0.8-0.56-1.78-0.88-2.77-1.06c-0.99-0.17-2.01-0.23-3.02-0.18c-1.03,0.05-2.04,0.13-3.01,0.34
			c-0.96,0.21-1.87,0.55-2.52,1.09c-0.65,0.54-0.97,1.31-1.01,2.2c-0.02,0.41,0,0.97,0.02,1.48l0.06,1.47l4.69,0.58l-4.62,0.57
			c0.23,3.79,0.66,7.58,1.12,11.36c0.09,0.78,0.2,1.56,0.3,2.35l4.62,0.57l-4.47,0.55c0.4,2.98,0.83,5.95,1.25,8.93
			c0.32,2.06,0.65,4.13,1.14,6.16c0.24,1.02,0.54,2.02,0.89,2.99c0.18,0.49,0.39,0.96,0.64,1.41c0.13,0.22,0.26,0.44,0.43,0.63
			c0.16,0.18,0.36,0.36,0.57,0.37c0.22,0,0.42-0.17,0.59-0.35c0.17-0.19,0.31-0.4,0.44-0.62c0.25-0.45,0.47-0.92,0.66-1.41
			c0.36-0.98,0.66-1.98,0.9-2.99c0.45-1.84,0.75-3.71,1.05-5.57l-2.71-0.57l2.89-0.61c0.56-3.94,1.15-7.86,1.76-11.79
			c0.06-0.38,0.12-0.76,0.18-1.14l-4.37-0.54l4.55-0.56c0.21-1.32,0.41-2.63,0.58-3.95c0.28-2.07,0.52-4.15,0.63-6.24l0.05-1.56
			c0.01-0.52,0.04-1.06-0.02-1.53C74.92,67.31,74.36,66.45,73.55,65.91z"/>
		<path class="st2" d="M67.29,63.6c-0.55-1.54-1.25-3.03-1.9-4.53l-2.06-4.6c-0.69-1.52-1.32-3.07-2.06-4.55
			c-0.37-0.74-0.77-1.46-1.19-2.14c-0.28-0.44-0.58-0.89-0.91-1.25c-0.09,0.48-0.13,0.98-0.1,1.48c0.03,0.81,0.19,1.62,0.42,2.4
			c0.46,1.58,1.32,3.02,2.06,4.47c0.74,1.46,1.37,2.97,2.03,4.48c0.59,1.4,1.18,2.8,1.68,4.27C65.95,63.59,66.62,63.58,67.29,63.6z"
			/>
		<path class="st2" d="M69.29,63.73c0.29,0.03,0.57,0.08,0.85,0.13c0.51-1.6,1.08-3.15,1.63-4.7l0.9-2.51
			c0.28-0.84,0.6-1.66,0.91-2.49c0.64-1.64,1.35-3.3,1.59-5.07c0.2-1.53,0.11-3.14-0.44-4.52c-0.49,0.36-0.9,0.84-1.25,1.37
			c-0.45,0.67-0.81,1.43-1.11,2.22c-0.45,1.19-0.76,2.45-1.03,3.73c-0.11,1.53-0.29,3.06-0.52,4.58c-0.36,2.36-0.83,4.7-1.49,7.01
			C69.32,63.57,69.31,63.65,69.29,63.73z"/>
		<path class="st2" d="M66.45,55.99c0.13,0.92,0.27,1.84,0.41,2.75c0.19,0.78,0.37,1.58,0.49,2.38c0.11,0.69,0.2,1.4,0.2,2.11
			c0.02,0.13,0.04,0.25,0.06,0.38c0.05,0,0.1,0,0.15,0c0.4,0.02,0.79,0.05,1.19,0.09c0.01-0.24,0.02-0.48,0.03-0.71
			c-0.23-1.55-0.32-3.12-0.33-4.68c-0.01-1.83,0.12-3.67,0.42-5.5c0.17-1,0.41-2,0.72-2.98c0.03-0.44,0.06-0.88,0.1-1.32
			c0.21-2.59,0.52-5.21,0.29-7.81c-0.12-1.29-0.34-2.59-0.76-3.8c-0.36-1.04-0.9-2.07-1.67-2.7c-0.77,0.73-1.29,1.69-1.64,2.72
			c-0.39,1.15-0.61,2.39-0.72,3.65c-0.21,2.52-0.06,5.1,0.16,7.67C65.74,50.81,66.09,53.4,66.45,55.99z"/>
		<path class="st3" d="M102.23,97.7c0,0,0,0,0-0.01l0,0l0,0L102.23,97.7z"/>
		<path class="st4" d="M104.39,66.92c-0.66,1.74-1.11,3.56-1.41,5.39c-0.38,2.31-0.55,4.67-0.39,7c0.01,0.58,0.1,1.16,0.16,1.74
			c0.08,0.58,0.12,1.16,0.26,1.73l0.32,1.71c0.11,0.57,0.26,1.13,0.38,1.7c0.2,1.15,0.58,2.25,0.86,3.39
			c0.13,0.58,0.36,1.12,0.53,1.68c0.11,0.38,0.23,0.76,0.34,1.14c0.24,0,0.48,0.01,0.72,0.01c0.4-0.01,0.8-0.05,1.19-0.1
			c0.11-0.35,0.21-0.7,0.32-1.05c0.17-0.57,0.4-1.11,0.53-1.68c0.28-1.14,0.66-2.24,0.86-3.39c0.12-0.57,0.27-1.13,0.38-1.7
			l0.32-1.71c0.14-0.57,0.18-1.15,0.26-1.73c0.06-0.58,0.16-1.16,0.16-1.74c0.16-2.33,0-4.68-0.39-7c-0.29-1.82-0.74-3.63-1.39-5.36
			c-0.74-0.12-1.48-0.19-2.23-0.18C105.56,66.78,104.97,66.83,104.39,66.92z"/>
		<path class="st3" d="M32.04,92.78c0.02,0,0.04-0.01,0.06-0.01c0.01,0,0.03-0.01,0.04-0.02l-0.07,0.02
			C32.06,92.77,32,92.79,32.04,92.78z"/>
		<path class="st2" d="M15.59,29.56c0.22,0.89,0.7,1.77,1.24,2.6c0.55,0.83,1.19,1.62,1.84,2.4l0.81,0.98l-1.33,0.34
			c-0.12,0.03-0.2,0.08-0.31,0.23c-0.1,0.14-0.19,0.37-0.23,0.63c-0.09,0.52-0.07,1.13,0.06,1.74c0.25,1.22,0.79,2.43,1.45,3.57
			c0.67,1.14,1.48,2.21,2.38,3.2c0.9,0.99,1.87,1.94,2.9,2.82l0.29,0.25l-0.01,0.37l-0.26,7.8c-0.04,1.3-0.11,2.61-0.18,3.91
			c-0.05,0.99-0.1,1.97-0.16,2.96c1.33-0.16,2.67-0.2,4.01-0.11c-0.05-0.95-0.1-1.9-0.14-2.84c-0.07-1.3-0.13-2.61-0.17-3.91
			l-0.31-7.8l-0.01-0.37l0.3-0.26c1.02-0.87,1.96-1.82,2.82-2.82c0.86-1,1.61-2.09,2.19-3.23c0.58-1.14,0.99-2.37,1.07-3.56
			c0.03-0.59-0.01-1.17-0.19-1.64c-0.08-0.23-0.2-0.42-0.31-0.54c-0.12-0.12-0.21-0.16-0.28-0.17l-1.72-0.28l1.07-1.37
			c0.62-0.8,1.23-1.6,1.74-2.43c0.5-0.83,0.94-1.7,1.1-2.52c0.08-0.41,0.08-0.77,0-1.07c-0.08-0.29-0.24-0.54-0.52-0.76
			c-0.56-0.44-1.49-0.69-2.42-0.78l-1.51-0.15l0.78-1.29c0.46-0.76,0.89-1.54,1.23-2.33c0.17-0.39,0.31-0.79,0.41-1.18
			c0.1-0.39,0.15-0.77,0.13-1.08c-0.03-0.32-0.12-0.51-0.27-0.66c-0.16-0.15-0.44-0.28-0.79-0.33c-0.71-0.1-1.59,0.02-2.32,0.28
			l-1-1.03c-0.01,0.05,0.03-0.11,0.03-0.25c0-0.14,0-0.3-0.01-0.46c-0.02-0.32-0.07-0.65-0.13-0.98c-0.13-0.65-0.32-1.31-0.58-1.92
			c-0.5-1.21-1.39-2.29-2.57-2.3c-1.18-0.04-2.22,1.04-2.85,2.23c-0.33,0.6-0.6,1.25-0.78,1.92c-0.09,0.34-0.17,0.68-0.22,1.01
			c-0.05,0.32-0.07,0.72-0.01,0.91l0.2,0.66l-0.61-0.24c-0.8-0.32-1.72-0.47-2.56-0.39c-0.42,0.05-0.82,0.18-1.11,0.43
			c-0.28,0.26-0.44,0.63-0.47,1.04c-0.04,0.41,0.03,0.85,0.14,1.27c0.1,0.43,0.26,0.85,0.44,1.26c0.36,0.82,0.81,1.62,1.29,2.39
			l0.32,0.51l-0.62,0.08c-0.98,0.13-1.98,0.39-2.67,0.95C15.53,27.82,15.38,28.67,15.59,29.56z"/>
		<path class="st5" d="M41.31,70.74c-0.19-0.24-0.43-0.44-0.64-0.66c-0.42-0.45-0.91-0.82-1.38-1.2c-0.47-0.39-1.01-0.69-1.5-1.03
			c-0.54-0.28-1.06-0.6-1.61-0.84c-2.2-1.01-4.56-1.58-6.94-1.79c-2.38-0.19-4.8-0.05-7.1,0.55c-2.31,0.57-4.48,1.61-6.38,2.99
			c-1.91,1.37-3.46,3.23-4.4,5.36c-0.14,0.26-0.23,0.53-0.31,0.81c-0.09,0.28-0.19,0.55-0.27,0.83l-0.17,0.85
			c-0.03,0.14-0.06,0.28-0.09,0.43l-0.04,0.43c-0.17,1.16-0.05,2.34,0.19,3.49c0.49,2.3,1.73,4.45,3.4,6.19
			c0.85,0.86,1.8,1.63,2.83,2.3c1.04,0.65,2.13,1.21,3.29,1.64c0.28,0.12,0.58,0.2,0.87,0.3l0.44,0.14l0.11,0.03
			c0.06,0.02,0.12,0.05,0.17,0.08c0.13,0.06,0.17,0.13,0.25,0.21c0.48,0.58,0.66,1.19,0.89,1.79c0.41,1.21,0.75,2.42,1.08,3.63
			c0.67,2.41,1.31,4.87,2.24,7.13c0.12,0.28,0.25,0.54,0.39,0.79c0.1,0.17,0.21,0.33,0.31,0.44c0,0,0,0,0,0
			c0.11-0.19,0.23-0.44,0.32-0.72c0.39-1.1,0.64-2.34,0.91-3.55c0.54-2.44,0.99-4.9,1.74-7.37c0.2-0.63,0.39-1.23,0.77-1.92
			c0.11-0.18,0.23-0.37,0.49-0.59c0.04-0.05,0.19-0.12,0.28-0.17c0.06-0.03,0.11-0.05,0.17-0.07c0.07-0.02,0.05-0.01,0.08-0.02
			l0.22-0.05l0.88-0.21c1.15-0.34,2.31-0.69,3.4-1.23c1.09-0.52,2.15-1.13,3.11-1.89c0.97-0.74,1.87-1.59,2.6-2.59
			c0.75-0.98,1.36-2.07,1.77-3.24c0.4-1.18,0.6-2.41,0.63-3.66c-0.06-2.49-0.89-4.96-2.42-6.89L41.31,70.74z"/>
		<path class="st2" d="M34.83,34.89c0.35,0.39,0.56,0.82,0.71,1.24c0.29,0.84,0.31,1.66,0.26,2.45c-0.14,1.57-0.67,3-1.38,4.28
			c-1.36,2.47-3.29,4.47-5.4,6.17c-0.02,2.5-0.15,4.97-0.24,7.45c-0.05,1.3-0.12,2.61-0.19,3.91c-0.05,0.95-0.11,1.91-0.17,2.86
			c0.34,0.03,0.68,0.06,1.02,0.11c0.11,0.01,0.21,0.03,0.32,0.05c0.16-0.75,0.33-1.49,0.49-2.24c0.24-1.01,0.49-2.02,0.75-3.03
			c0.52-2.01,1.09-4.01,1.68-6l0.13-0.43l0.47-0.18c0.95-0.36,1.89-0.76,2.79-1.19c0.91-0.42,1.78-0.9,2.59-1.43
			c0.8-0.52,1.54-1.15,1.99-1.82c0.21-0.33,0.33-0.67,0.31-0.92c-0.02-0.24-0.12-0.43-0.37-0.59l-1.23-0.8l1.19-0.67
			c0.78-0.43,1.54-0.88,2.26-1.38c0.71-0.5,1.39-1.05,1.87-1.71c0.48-0.66,0.64-1.45,0.22-2.15c-0.41-0.7-1.18-1.21-1.97-1.59
			l-0.41-0.2l0.35-0.29c0.61-0.51,1.21-1.06,1.71-1.66c0.5-0.59,0.95-1.29,1.06-1.94c0.1-0.67-0.23-1.02-0.85-1.27
			c-0.6-0.24-1.37-0.31-2.03-0.28l-0.62-1.37c-0.05,0.06,0.02-0.05,0.04-0.15c0.03-0.1,0.06-0.23,0.09-0.35
			c0.06-0.25,0.11-0.52,0.15-0.79c0.07-0.54,0.1-1.1,0.07-1.64c-0.06-1.07-0.38-2.1-1.08-2.5c-0.37-0.2-0.85-0.32-1.33-0.27
			c-0.49,0.05-1.01,0.23-1.49,0.49c-0.48,0.27-0.96,0.6-1.38,1c-0.21,0.2-0.42,0.41-0.6,0.63c0,0-0.01,0.01-0.01,0.02
			c0.27,0.33,0.49,0.72,0.61,1.13c0.21,0.71,0.19,1.42,0.07,2.04c-0.25,1.24-0.79,2.25-1.36,3.21c-0.37,0.6-0.77,1.16-1.18,1.71
			C34.76,34.83,34.8,34.86,34.83,34.89z"/>
		<path class="st3" d="M27.04,105.71C27.04,105.71,27.04,105.71,27.04,105.71C27.05,105.7,27.09,105.74,27.04,105.71
			C27.04,105.71,27.04,105.71,27.04,105.71z"/>
		<path class="st2" d="M107.81,62.95c-0.06,0.01-0.11,0.01-0.17,0.02c-0.23,0.02-0.46,0.04-0.7,0.03c-0.23,0.01-0.47-0.03-0.71-0.04
			c0,0-2.11-0.28-2.09-0.09c0.03,0.36,0,0.71-0.04,1.07c-0.04,0.31-0.11,0.63-0.2,0.95c0.74-0.12,1.5-0.18,2.25-0.18
			c0.7,0.01,1.39,0.07,2.08,0.18c-0.12-0.34-0.2-0.68-0.28-1.03C107.9,63.57,107.85,63.26,107.81,62.95z"/>
		<path class="st2" d="M23.77,63.38c-0.07-1-0.14-1.99-0.19-2.99c-0.08-1.3-0.15-2.61-0.2-3.91c-0.06-1.3-0.1-2.61-0.14-3.91
			c-0.04-1.18-0.06-2.35-0.06-3.55c-2.11-1.71-4.04-3.7-5.51-6.09c-0.76-1.25-1.37-2.61-1.67-4.12c-0.14-0.76-0.21-1.56-0.03-2.4
			c0.09-0.42,0.25-0.87,0.56-1.28c0.08-0.11,0.19-0.22,0.31-0.32c-0.43-0.6-0.85-1.22-1.23-1.87c-0.53-0.95-1.01-1.96-1.22-3.13
			c-0.09-0.58-0.09-1.21,0.1-1.83c0.19-0.61,0.62-1.15,1.11-1.5c0,0,0.01-0.01,0.01-0.01c-0.07-0.12-0.16-0.24-0.25-0.35
			c-0.18-0.21-0.38-0.4-0.59-0.57c-0.42-0.35-0.9-0.62-1.38-0.81c-0.48-0.19-0.99-0.26-1.46-0.23c-0.46,0.03-0.95,0.21-1.24,0.44
			c-0.63,0.48-0.88,1.51-0.92,2.54c-0.02,0.52,0.03,1.05,0.1,1.57c0.04,0.26,0.08,0.52,0.15,0.75c0.03,0.12,0.07,0.23,0.1,0.33
			c0.02,0.09,0.09,0.2,0.03,0.13l-0.64,1.4c-0.66-0.03-1.43,0.06-2.02,0.29c-0.61,0.25-0.92,0.58-0.83,1.23
			c0.04,0.32,0.19,0.66,0.38,0.99c0.18,0.33,0.41,0.65,0.66,0.95c0.5,0.61,1.09,1.15,1.7,1.68l0.34,0.29l-0.4,0.19
			c-0.79,0.38-1.57,0.89-1.98,1.59c-0.43,0.7-0.27,1.51,0.21,2.16c0.48,0.67,1.16,1.22,1.87,1.72c0.72,0.5,1.49,0.94,2.27,1.37
			l1.19,0.66l-1.22,0.79c-0.26,0.17-0.36,0.36-0.37,0.6c-0.02,0.24,0.1,0.59,0.31,0.92c0.45,0.68,1.19,1.3,1.99,1.82
			c0.81,0.52,1.68,1.01,2.59,1.42c0.91,0.43,1.84,0.83,2.79,1.19l0.48,0.18l0.12,0.43c0.56,2.04,1.1,4.08,1.59,6.13
			c0.25,1.03,0.48,2.06,0.71,3.09c0.15,0.75,0.3,1.5,0.45,2.25C22.83,63.52,23.3,63.44,23.77,63.38z"/>
		<path class="st4" d="M115.31,70.24c-0.46-0.4-0.96-0.76-1.46-1.1c0.77,1.06,1.43,2.21,1.98,3.41c1,2.28,1.54,4.81,1.41,7.35
			c-0.1,2.53-0.74,5.08-2.02,7.27c-0.69,1.2-1.51,2.32-2.42,3.35c0.89-0.5,1.75-1.08,2.53-1.78c1.28-1.13,2.38-2.52,3.13-4.12
			c0.75-1.59,1.16-3.36,1.16-5.14c-0.01-1.78-0.42-3.55-1.17-5.14C117.69,72.75,116.59,71.36,115.31,70.24z"/>
		<path class="st4" d="M116.21,79.83c0.24-2.36-0.14-4.79-0.98-7.04c-0.54-1.45-1.25-2.84-2.13-4.13c-1.38-0.81-2.88-1.38-4.43-1.67
			c0.75,1.66,1.31,3.41,1.73,5.19c0.52,2.34,0.82,4.74,0.78,7.15c-0.04,2.4-0.16,4.86-0.9,7.17c-0.29,1.17-0.79,2.28-1.26,3.39
			c-0.36,0.82-0.82,1.59-1.28,2.35c1.12-0.17,2.23-0.45,3.28-0.88c0.09-0.03,0.17-0.08,0.26-0.12c1.05-1.52,2.01-3.07,2.8-4.69
			C115.12,84.44,116,82.21,116.21,79.83z"/>
		<polygon class="st3" points="104.08,95.56 104.08,95.56 104.08,95.55 		"/>
		<path class="st6" d="M106.16,94.01c-1.07-0.04-2.13-0.21-3.15-0.5c-0.03,0.57-0.11,1.13-0.21,1.68c-0.03,0.2-0.08,0.4-0.12,0.6
			l1.13-0.5l0.3-0.13l0.1-0.04l0.08-0.03l0.06-0.01c0.08-0.01,0.17,0,0.24,0.03c0.04,0.01,0.19,0.12,0.22,0.26
			c0.02,0.07,0.01,0.13,0,0.17c0,0.01,0-0.02,0-0.02c0,0,0-0.01,0-0.01c0,0,0,0,0-0.01l0-0.05c0,0,0-0.02,0,0.01l0,0.01
			c0,0.01,0,0.03,0,0.04c0.03,0.17,0.07,0.37,0.13,0.55c0.23,0.75,0.57,1.48,0.98,2.16c0.06,0.09,0.12,0.18,0.17,0.27
			c0.27-1.12,0.53-2.28,0.91-3.38l0.34-0.99l0.92,0.3c0.37,0.12,0.73,0.25,1.1,0.39c-0.03-0.37-0.06-0.74-0.07-1.12
			C108.25,93.94,107.2,94.04,106.16,94.01z"/>
		<path class="st2" d="M103.25,42.88c0.03,2.14,0.07,4.27,0.11,6.41c0.09,4.05,0.21,8.1,0.36,12.15c0.31,0.17,0.63,0.31,0.97,0.38
			c-0.08-3.68-0.02-7.36,0.13-11.04C104.38,48.12,103.88,45.48,103.25,42.88z"/>
		<path class="st3" d="M106.85,99.67C106.85,99.67,106.85,99.67,106.85,99.67c0,0.01,0.01,0.02,0.02,0.03
			c0.02,0.03,0.05,0.06,0.07,0.08c0.01,0.01,0.01,0.01,0-0.01C106.93,99.75,106.94,99.75,106.85,99.67z"/>
		<path class="st2" d="M103.42,61.25c0.06,0.03,0.11,0.07,0.17,0.1c-0.48-7.16-0.9-14.32-1.11-21.49c-0.16-0.58-0.33-1.17-0.5-1.75
			c-0.46-1.53-0.98-3.03-1.59-4.5c-0.61-1.47-1.29-2.9-2.1-4.24c-0.22-0.36-0.46-0.71-0.7-1.06c0.75,1.87,1.35,3.79,1.91,5.72
			c0.85,3.03,1.5,6.11,2.04,9.2c0.5,3.1,0.95,6.2,1.24,9.33c0.27,2.86,0.47,5.73,0.51,8.6L103.42,61.25z"/>
		<path class="st4" d="M103.73,89.9c-0.47-1.11-0.96-2.22-1.26-3.39c-0.74-2.31-0.86-4.77-0.9-7.17c-0.04-2.41,0.26-4.82,0.78-7.15
			c0.42-1.79,0.99-3.55,1.75-5.23c-1.46,0.24-2.88,0.73-4.18,1.45c-0.96,1.36-1.74,2.84-2.31,4.38c-0.85,2.25-1.22,4.67-0.98,7.04
			c0.21,2.38,1.09,4.61,2.13,6.73c0.9,1.86,2.05,3.62,3.27,5.36c1.01,0.28,2.04,0.43,3.07,0.47
			C104.61,91.59,104.12,90.77,103.73,89.9z"/>
		<path class="st2" d="M103.85,42.59c0.43,1.98,0.78,3.97,1.08,5.97c0.18-3.23,0.43-6.46,0.82-9.68c0.4-3.17,0.92-6.34,1.66-9.47
			c0,0,0-0.01-0.01-0.01c-0.07-1.38-0.2-2.75-0.34-4.13l-0.41-4.12l-0.54-5.33c-0.3,1.01-0.58,2.03-0.85,3.04
			c-0.49,1.97-0.92,3.95-1.26,5.96c-0.17,1-0.32,2.01-0.45,3.02c-0.12,1-0.18,2.01-0.23,3.03c-0.08,2.04-0.12,4.08-0.12,6.13
			c0,0.99,0.01,1.98,0.02,2.97C103.45,40.84,103.66,41.72,103.85,42.59z"/>
		<path class="st2" d="M105.1,52.51c-0.17,3.1-0.27,6.21-0.28,9.32c0.45,0.08,1.35-0.1,1.35-0.11
			C105.93,58.64,105.55,55.57,105.1,52.51z"/>
		<path class="st2" d="M105.22,50.46c0,0.02,0,0.03,0,0.05c0.07,0.53,0.15,1.07,0.22,1.6c0.39,3.18,0.7,6.37,0.87,9.57
			c0.1-0.06,0.21-0.12,0.32-0.16c0.21-0.11,0.43-0.19,0.64-0.27c0.26-0.09,0.52-0.19,0.78-0.28c-0.26-3.68-0.3-7.37-0.23-11.06
			c0.07-3.7,0.3-7.39,0.59-11.07c0.34-3.68,0.79-7.36,1.47-11.01c0.47-2.46,0.99-4.91,1.72-7.32c-0.34,0.59-0.65,1.2-0.94,1.82
			c-0.79,1.72-1.41,3.53-1.95,5.37c-1.06,3.68-1.76,7.47-2.31,11.27C105.85,42.78,105.47,46.62,105.22,50.46z"/>
		<path class="st4" d="M95.62,79.9c-0.12-2.54,0.41-5.07,1.41-7.35c0.6-1.33,1.35-2.59,2.22-3.74c-0.73,0.47-1.42,1-2.05,1.62
			c-2.38,2.34-3.89,5.6-4.07,9.05c-0.08,1.72,0.17,3.48,0.8,5.11c0.62,1.63,1.6,3.13,2.84,4.36c1.25,1.22,2.76,2.15,4.38,2.72
			c0.01,0,0.02,0.01,0.03,0.01c-1.39-1.31-2.59-2.83-3.55-4.51C96.36,84.98,95.72,82.43,95.62,79.9z"/>
		<path class="st7" d="M127.91,77.55c-2.67-0.15-5.6-0.28-8.28-0.39c-0.39-2.81-1.5-5.56-3.42-7.81c-1.21-1.43-2.75-2.62-4.49-3.4
			c-0.79-0.37-1.61-0.64-2.46-0.84c0.15-0.41,0.27-0.82,0.35-1.23c0.14-0.69,0.23-1.38,0.19-2.07l-0.07-1.33l-1.17,0.33
			c-0.13,0.04-0.26,0.08-0.4,0.13c0.05-1.83,0.1-3.65,0.21-5.47c0.08-1.84,0.19-3.68,0.32-5.51c0.26-3.67,0.55-7.34,0.97-10.99
			c0.39-3.65,0.86-7.3,1.45-10.91c0.61-3.6,1.34-7.22,2.63-10.6l1.01-2.64l-1.87,2.09c-1.34,1.5-2.3,3.25-3.09,5.04
			c-0.79,1.8-1.39,3.65-1.9,5.52c-0.11,0.42-0.21,0.84-0.31,1.26c0.07-1.16,0.06-2.32,0.07-3.48l-0.1-4.15
			c-0.03-1.39-0.13-2.77-0.2-4.15l-0.25-4.15l-0.17-2.8l-1.06,2.6c-1.59,3.92-2.4,7.97-2.99,12.06c-0.14,1.02-0.27,2.04-0.36,3.08
			c-0.03,0.52-0.08,1.04-0.11,1.56l-0.05,1.55c-0.04,2.03-0.03,4.06,0.02,6.09c-0.37-1.22-0.76-2.44-1.23-3.64
			c-0.59-1.51-1.26-3-2.08-4.41c-0.83-1.41-1.82-2.76-3.09-3.87l-2-1.75l1.21,2.4c1.37,2.72,2.27,5.71,3.05,8.7
			c0.77,3,1.42,6.05,2.01,9.1c0.63,3.05,1.13,6.13,1.61,9.21c0.24,1.54,0.47,3.08,0.67,4.63c0.18,1.23,0.33,2.47,0.49,3.71
			L103.01,61l-0.28,0.81c-0.12,0.36-0.24,0.71-0.28,1.07c-0.03,0.36,0,0.71,0.04,1.07c0.05,0.36,0.12,0.71,0.23,1.07
			c0.01,0.03,0.03,0.07,0.04,0.1c-0.75,0.18-1.49,0.43-2.2,0.74c-1.76,0.77-3.35,1.89-4.65,3.28c-1.31,1.38-2.34,3.02-2.99,4.8
			c-0.32,0.87-0.55,1.76-0.68,2.67c-3.87,0.02-8.48,0.07-12.26,0.12c-1.29,0.01-3.11,0.03-4.51,0.05c0.07-1.8,0.12-3.6,0.15-5.4
			l0.03-1.58c0-0.53,0.02-1.04-0.03-1.61c-0.06-0.56-0.25-1.11-0.55-1.6c-0.3-0.48-0.7-0.89-1.14-1.23
			c-1.04-0.74-2.21-1.18-3.42-1.44c1.04-1.3,1.88-2.71,2.64-4.18c0.42-0.81,0.79-1.65,1.13-2.5c0.35-0.85,0.63-1.72,0.84-2.62
			c0.42-1.8,0.54-3.66,0.68-5.48c0.11-1.82,0.2-3.68-0.33-5.56l-0.13-0.47l-0.56,0.17c-0.98,0.3-1.85,0.93-2.5,1.67
			c-0.34,0.39-0.64,0.81-0.9,1.24c-0.13-1.87-0.35-3.74-0.59-5.59c-0.18-1.32-0.39-2.63-0.75-3.93c-0.39-1.27-0.85-2.64-2.03-3.64
			l-0.26-0.22l-0.35,0.21c-1.25,0.76-2.16,1.99-2.73,3.27c-0.58,1.29-0.89,2.66-1.09,4.01c-0.39,2.71-0.33,5.43-0.06,8.09
			c0.09,0.76,0.19,1.52,0.31,2.27c-0.3-0.57-0.62-1.13-0.96-1.68c-0.46-0.75-0.95-1.48-1.53-2.17c-0.59-0.68-1.23-1.35-2.22-1.77
			l-0.64-0.27l-0.1,0.61c-0.16,0.93-0.06,1.8,0.05,2.65c0.12,0.85,0.3,1.67,0.48,2.49c0.37,1.64,0.66,3.33,1.19,4.94
			c0.53,1.61,1.32,3.1,2.17,4.54c0.77,1.27,1.6,2.5,2.59,3.63c-0.1,0.01-0.21,0.02-0.31,0.03c-1.09,0.14-2.24,0.44-3.24,1.19
			c-0.5,0.38-0.93,0.88-1.22,1.45c-0.3,0.57-0.46,1.19-0.53,1.79c-0.07,0.63-0.05,1.13-0.05,1.66l0.01,1.59
			c0.04,1.98,0.13,3.96,0.28,5.93c-1.55,0.03-3.66,0.04-6.12,0.01c-2.65-0.03-6.56-0.12-9.23-0.22c-0.08-0.85-0.22-1.69-0.5-2.5
			c-0.14-0.62-0.44-1.19-0.67-1.78c-0.13-0.29-0.3-0.56-0.45-0.84c-0.15-0.28-0.29-0.57-0.48-0.83c-1.41-2.13-3.3-3.98-5.55-5.28
			c-2.02-1.2-4.29-2.02-6.63-2.41c0.31-0.68,0.61-1.35,0.92-2.03c0.41-0.96,0.82-1.91,1.2-2.88c0.72-1.77,1.4-3.56,2.07-5.35
			c0.87-0.3,1.74-0.62,2.59-1c0.98-0.46,1.96-0.98,2.87-1.63c0.9-0.67,1.8-1.42,2.45-2.54c0.31-0.56,0.57-1.26,0.47-2.07
			c-0.05-0.37-0.19-0.73-0.4-1.05c0.47-0.34,0.92-0.69,1.36-1.08c0.7-0.66,1.39-1.37,1.87-2.29c0.24-0.46,0.41-0.98,0.42-1.53
			c0.01-0.55-0.18-1.1-0.48-1.52c-0.29-0.43-0.68-0.76-1.07-1.03c-0.27-0.19-0.56-0.35-0.85-0.5c0.51-0.44,1.02-0.89,1.5-1.37
			c0.3-0.3,0.58-0.61,0.83-0.96c0.26-0.34,0.5-0.73,0.65-1.2c0.16-0.45,0.18-1.06-0.07-1.58c-0.25-0.52-0.67-0.88-1.09-1.13
			c-0.48-0.27-0.97-0.45-1.47-0.56c0.08-0.32,0.15-0.63,0.19-0.94c0.1-0.66,0.11-1.33,0.06-2c-0.07-0.67-0.19-1.36-0.51-2.03
			c-0.31-0.66-0.85-1.32-1.59-1.66c-0.72-0.33-1.5-0.36-2.2-0.21c-0.71,0.15-1.31,0.5-1.83,0.9c-0.53,0.4-0.96,0.89-1.33,1.41
			c-0.16,0.23-0.3,0.48-0.42,0.73c-0.11-0.1-0.21-0.2-0.33-0.28c-0.67-0.48-1.37-0.74-2.05-0.9c0.22-0.44,0.44-0.9,0.63-1.37
			c0.18-0.46,0.35-0.94,0.46-1.45c0.12-0.51,0.2-1.06,0.14-1.67c-0.05-0.6-0.34-1.32-0.88-1.79c-0.54-0.47-1.18-0.63-1.73-0.69
			c-0.72-0.06-1.37,0.01-2,0.16c0-0.03,0-0.06,0-0.08c-0.05-0.4-0.12-0.78-0.21-1.16c-0.18-0.75-0.44-1.48-0.8-2.17
			c-0.36-0.69-0.8-1.37-1.43-1.91c-0.62-0.55-1.5-0.92-2.36-0.87c-0.87,0.02-1.67,0.46-2.24,1.02c-0.58,0.56-0.99,1.22-1.31,1.9
			c-0.33,0.68-0.55,1.39-0.74,2.12c-0.09,0.36-0.16,0.73-0.2,1.11c-0.02,0.19-0.03,0.38-0.03,0.58c0,0.03,0,0.06,0,0.09
			c-0.76-0.22-1.55-0.32-2.36-0.23c-0.49,0.06-1,0.22-1.42,0.59c-0.41,0.36-0.64,0.9-0.68,1.41c-0.09,1.03,0.24,1.96,0.57,2.84
			c0.27,0.69,0.6,1.35,0.95,2c-0.79,0.09-1.59,0.27-2.33,0.7c-0.11-0.45-0.39-0.84-0.65-1.21c-0.39-0.48-0.85-0.92-1.41-1.25
			c-1.1-0.67-2.62-0.88-3.95-0.11c-0.66,0.41-1.09,1.07-1.35,1.7c-0.27,0.64-0.37,1.3-0.42,1.95c-0.04,0.64-0.03,1.28,0.07,1.91
			c0.04,0.28,0.1,0.55,0.17,0.84c-0.5,0.11-0.99,0.28-1.48,0.56c-0.42,0.25-0.85,0.61-1.1,1.14c-0.25,0.53-0.23,1.14-0.07,1.6
			c0.33,0.93,0.93,1.56,1.51,2.16c0.49,0.48,1,0.93,1.52,1.36c-0.71,0.37-1.4,0.83-1.91,1.54c-0.29,0.42-0.49,0.97-0.48,1.51
			c0.01,0.55,0.18,1.07,0.42,1.52c0.48,0.91,1.16,1.63,1.87,2.28c0.44,0.39,0.9,0.75,1.36,1.09c-0.22,0.31-0.37,0.67-0.41,1.05
			c-0.1,0.81,0.16,1.51,0.46,2.07c0.65,1.12,1.55,1.88,2.45,2.54c0.91,0.66,1.89,1.16,2.87,1.63c0.85,0.38,1.71,0.7,2.58,0.99
			c0.63,1.83,1.29,3.66,1.98,5.48c0.37,0.98,0.76,1.96,1.16,2.94c0.3,0.69,0.59,1.38,0.89,2.07c-0.11,0.02-0.21,0.04-0.32,0.07
			c-2.55,0.63-4.99,1.76-7.09,3.38c-2.11,1.6-3.84,3.76-4.86,6.26c-0.15,0.3-0.25,0.63-0.34,0.95c-0.09,0.32-0.2,0.64-0.28,0.97
			l-0.18,1c-0.03,0.17-0.06,0.33-0.08,0.5l-0.01,0.32c-2.74,0.1-6.12,0.24-8.72,0.41C0.04,77.55,0,77.59,0,77.64
			c0,0.05,0.04,0.1,0.09,0.1c2.59,0.17,5.95,0.3,8.68,0.41c0,1.07,0.16,2.14,0.42,3.17c0.33,1.29,0.88,2.53,1.61,3.62
			c0.72,1.1,1.57,2.1,2.54,2.97c0.97,0.86,2.02,1.61,3.13,2.25c1.13,0.6,2.29,1.14,3.5,1.54c0.3,0.11,0.61,0.18,0.91,0.28l0.46,0.13
			l0.11,0.03c0.01,0.01,0.02,0.02,0.04,0.03c0.02-0.01,0.07,0.06,0.11,0.09c0.33,0.38,0.57,1,0.77,1.57
			c0.42,1.16,0.71,2.38,1.03,3.6l0.86,3.67c0.28,1.23,0.57,2.46,0.99,3.69c0.11,0.31,0.23,0.62,0.37,0.93
			c0.16,0.31,0.31,0.63,0.69,0.97c0.13,0.08,0.21,0.17,0.41,0.22c0.09,0.02,0.18,0.04,0.28,0.05c0.1-0.01,0.21-0.03,0.32-0.06
			c0.21-0.07,0.28-0.16,0.42-0.26c0.08-0.08,0.16-0.17,0.23-0.26c0.24-0.33,0.39-0.65,0.53-0.95c0.53-1.24,0.88-2.45,1.21-3.68
			c0.66-2.44,1.17-4.91,1.81-7.27c0.16-0.57,0.35-1.17,0.57-1.59c0.04-0.07,0.07-0.12,0.08-0.14l0.12-0.04l0.93-0.28
			c1.23-0.42,2.42-0.94,3.53-1.62c2.23-1.3,4.17-3.11,5.55-5.26c1.4-2.14,2.19-4.65,2.2-7.19c0-0.06-0.01-0.11-0.01-0.17
			c2.66-0.1,6.53-0.19,9.16-0.22c2.5-0.03,4.62-0.03,6.17,0.01c0.16,2.02,0.37,4.04,0.64,6.05c0.59,4.17,1.33,8.33,2.48,12.39
			c0.56,2.03,1.19,4.05,1.87,6.04c0.36,0.99,0.7,1.99,1.13,2.95c0.22,0.48,0.43,0.97,0.7,1.42c0.14,0.23,0.29,0.45,0.47,0.65
			c0.18,0.19,0.41,0.41,0.73,0.42c0.32-0.01,0.55-0.21,0.74-0.4c0.19-0.2,0.34-0.42,0.48-0.65c0.28-0.46,0.49-0.94,0.71-1.42
			c0.43-0.96,0.77-1.96,1.12-2.95c0.68-1.99,1.3-4.01,1.84-6.05c1.12-4.07,1.83-8.23,2.26-12.42c0.05-0.57,0.09-1.13,0.13-1.7
			c0.03-0.08,0.04-0.17,0.02-0.27c0,0,0-0.01,0-0.01c0.09-1.18,0.16-2.36,0.23-3.54c1.41,0.02,3.27,0.04,4.59,0.06
			c3.73,0.05,8.26,0.1,12.09,0.12c0,0.27,0,0.54,0.01,0.81c0.18,3.72,1.74,7.26,4.25,9.91c1.25,1.33,2.75,2.44,4.41,3.26
			c0.53,0.26,1.08,0.48,1.65,0.67c-0.31,0.48-0.58,0.97-0.83,1.46c-0.37,0.72-0.67,1.45-0.93,2.23l-0.05,0.16l-0.03,0.09l-0.02,0.06
			l-0.01,0.05l-0.01,0.03l-0.01,0.09l0,0.05c-0.01,0.15,0.05,0.36,0.15,0.5c-0.14,0,0.65,0.67,1.22,0.22
			c0.22-0.19,0.06-0.05,0.1-0.09l-0.04,0.03l0.01-0.01l0.05-0.04l0.11-0.08c0.15-0.12,0.3-0.24,0.45-0.37
			c0.3-0.26,0.58-0.54,0.86-0.82c0.28-0.28,0.55-0.58,0.83-0.83l0.09,0.23c0.31,0.74,0.56,1.5,0.76,2.29l0.3,1.19
			c0.06,0.2,0.11,0.4,0.19,0.62c0.02,0.06,0.04,0.11,0.08,0.18c0.02,0.03,0.04,0.08,0.08,0.13c0.03,0.04,0.04,0.06,0.14,0.15
			c0.01,0.01,0.18,0.15,0.38,0.17c0.1,0.02,0.22,0.01,0.33-0.02c0.1-0.02,0.24-0.12,0.22-0.11c0.03-0.02,0.06-0.05,0.09-0.07
			c0.06-0.05,0.11-0.11,0.15-0.18l0.02-0.04l0.05-0.08l0.05-0.1l0.08-0.16c0.36-0.77,0.63-1.51,0.92-2.26
			c0.17-0.45,0.33-0.91,0.47-1.37c0.07,0.01,0.13,0.03,0.2,0.04c0.4,0.07,0.8,0.16,1.2,0.22l1.51,0.21l-0.49-1.21
			c-0.32-0.79-0.67-1.58-1.09-2.35c0.58-0.16,1.15-0.36,1.7-0.6c1.74-0.76,3.28-1.93,4.5-3.35c2.45-2.86,3.59-6.53,3.61-10.12
			c0-0.45-0.02-0.9-0.05-1.35c2.64-0.11,5.53-0.24,8.16-0.39c0.05,0,0.09-0.04,0.09-0.09C128,77.6,127.96,77.55,127.91,77.55z
			 M37.27,29.87c0.12-0.62,0.14-1.33-0.07-2.04c-0.12-0.41-0.34-0.79-0.61-1.13c0-0.01,0.01-0.01,0.01-0.02
			c0.18-0.23,0.38-0.44,0.6-0.63c0.42-0.4,0.9-0.73,1.38-1c0.49-0.26,1-0.44,1.49-0.49c0.49-0.05,0.96,0.07,1.33,0.27
			c0.7,0.4,1.02,1.43,1.08,2.5c0.02,0.54-0.01,1.09-0.07,1.64c-0.04,0.27-0.08,0.54-0.15,0.79c-0.03,0.12-0.06,0.25-0.09,0.35
			c-0.02,0.1-0.09,0.21-0.04,0.15l0.62,1.37c0.66-0.03,1.43,0.04,2.03,0.28c0.62,0.25,0.94,0.6,0.85,1.27
			c-0.11,0.66-0.56,1.35-1.06,1.94c-0.51,0.61-1.1,1.15-1.71,1.66l-0.35,0.29l0.41,0.2c0.79,0.38,1.56,0.89,1.97,1.59
			c0.42,0.7,0.26,1.49-0.22,2.15c-0.48,0.66-1.16,1.21-1.87,1.71c-0.72,0.5-1.48,0.94-2.26,1.38l-1.19,0.67l1.23,0.8
			c0.25,0.17,0.36,0.35,0.37,0.59c0.02,0.24-0.1,0.58-0.31,0.92c-0.44,0.68-1.18,1.3-1.99,1.82c-0.81,0.53-1.68,1.01-2.59,1.43
			c-0.9,0.44-1.84,0.83-2.79,1.19l-0.47,0.18l-0.13,0.43c-0.59,1.99-1.16,3.99-1.68,6c-0.26,1-0.51,2.01-0.75,3.03
			c-0.16,0.75-0.33,1.49-0.49,2.24c-0.11-0.02-0.21-0.04-0.32-0.05c-0.34-0.05-0.68-0.08-1.02-0.11c0.06-0.95,0.12-1.91,0.17-2.86
			c0.08-1.3,0.15-2.61,0.19-3.91c0.09-2.48,0.22-4.94,0.24-7.45c2.1-1.69,4.03-3.69,5.4-6.17c0.71-1.29,1.24-2.72,1.38-4.28
			c0.06-0.78,0.03-1.6-0.26-2.45c-0.15-0.42-0.36-0.85-0.71-1.24c-0.03-0.04-0.07-0.07-0.11-0.1c0.41-0.55,0.82-1.11,1.18-1.71
			C36.48,32.13,37.02,31.11,37.27,29.87z M16.22,27.27c0.68-0.56,1.68-0.83,2.67-0.95l0.62-0.08l-0.32-0.51
			c-0.48-0.77-0.93-1.57-1.29-2.39c-0.18-0.41-0.34-0.83-0.44-1.26c-0.11-0.43-0.17-0.86-0.14-1.27c0.03-0.41,0.19-0.78,0.47-1.04
			c0.29-0.25,0.69-0.38,1.11-0.43c0.84-0.09,1.76,0.07,2.56,0.39l0.61,0.24l-0.2-0.66c-0.06-0.19-0.04-0.59,0.01-0.91
			c0.05-0.34,0.12-0.68,0.22-1.01c0.18-0.67,0.45-1.32,0.78-1.92c0.63-1.19,1.67-2.27,2.85-2.23c1.18,0.01,2.06,1.09,2.57,2.3
			c0.26,0.61,0.45,1.26,0.58,1.92c0.06,0.33,0.11,0.66,0.13,0.98c0.01,0.16,0.01,0.32,0.01,0.46c0,0.13-0.04,0.29-0.03,0.25l1,1.03
			c0.73-0.26,1.62-0.38,2.32-0.28c0.35,0.05,0.64,0.18,0.79,0.33c0.15,0.15,0.24,0.34,0.27,0.66c0.02,0.31-0.03,0.69-0.13,1.08
			c-0.1,0.39-0.24,0.78-0.41,1.18c-0.34,0.79-0.77,1.57-1.23,2.33l-0.78,1.29l1.51,0.15c0.93,0.09,1.86,0.34,2.42,0.78
			c0.28,0.22,0.44,0.46,0.52,0.76c0.08,0.3,0.08,0.66,0,1.07c-0.16,0.82-0.6,1.69-1.1,2.52c-0.51,0.83-1.12,1.64-1.74,2.43
			l-1.07,1.37l1.72,0.28c0.07,0.01,0.16,0.05,0.28,0.17c0.11,0.12,0.23,0.31,0.31,0.54c0.17,0.46,0.22,1.05,0.19,1.64
			c-0.08,1.19-0.49,2.41-1.07,3.56c-0.58,1.15-1.33,2.23-2.19,3.23c-0.86,1-1.8,1.95-2.82,2.82l-0.3,0.26l0.01,0.37l0.31,7.8
			c0.04,1.3,0.1,2.61,0.17,3.91c0.05,0.95,0.09,1.9,0.14,2.84c-1.33-0.09-2.68-0.05-4.01,0.11c0.06-0.99,0.11-1.97,0.16-2.96
			c0.07-1.3,0.13-2.61,0.18-3.91l0.26-7.8l0.01-0.37l-0.29-0.25c-1.04-0.87-2-1.82-2.9-2.82c-0.9-0.99-1.71-2.07-2.38-3.2
			c-0.66-1.14-1.2-2.34-1.45-3.57c-0.12-0.61-0.15-1.22-0.06-1.74c0.04-0.26,0.13-0.49,0.23-0.63c0.11-0.14,0.19-0.2,0.31-0.23
			l1.33-0.34l-0.81-0.98c-0.65-0.78-1.29-1.57-1.84-2.4c-0.54-0.83-1.02-1.71-1.24-2.6C15.38,28.67,15.53,27.82,16.22,27.27z
			 M21.91,61.37c-0.23-1.03-0.46-2.06-0.71-3.09c-0.49-2.06-1.03-4.1-1.59-6.13l-0.12-0.43l-0.48-0.18
			c-0.95-0.36-1.89-0.76-2.79-1.19c-0.91-0.42-1.78-0.9-2.59-1.42c-0.8-0.52-1.54-1.15-1.99-1.82c-0.21-0.34-0.33-0.68-0.31-0.92
			c0.02-0.24,0.12-0.43,0.37-0.6l1.22-0.79l-1.19-0.66c-0.78-0.43-1.55-0.88-2.27-1.37c-0.71-0.5-1.4-1.05-1.87-1.72
			c-0.48-0.66-0.64-1.46-0.21-2.16c0.41-0.7,1.19-1.21,1.98-1.59l0.4-0.19L9.43,36.8c-0.61-0.52-1.2-1.06-1.7-1.68
			c-0.25-0.3-0.48-0.62-0.66-0.95c-0.19-0.33-0.33-0.67-0.38-0.99c-0.09-0.66,0.22-0.98,0.83-1.23c0.59-0.23,1.36-0.32,2.02-0.29
			l0.64-1.4c0.06,0.07-0.01-0.04-0.03-0.13c-0.04-0.09-0.07-0.21-0.1-0.33c-0.06-0.24-0.11-0.49-0.15-0.75
			c-0.07-0.52-0.12-1.05-0.1-1.57c0.04-1.03,0.29-2.06,0.92-2.54c0.29-0.23,0.78-0.41,1.24-0.44c0.47-0.03,0.97,0.04,1.46,0.23
			c0.48,0.19,0.96,0.46,1.38,0.81c0.21,0.17,0.41,0.36,0.59,0.57c0.09,0.11,0.18,0.23,0.25,0.35c0,0-0.01,0.01-0.01,0.01
			c-0.5,0.34-0.92,0.88-1.11,1.5c-0.2,0.61-0.2,1.25-0.1,1.83c0.2,1.16,0.69,2.17,1.22,3.13c0.38,0.65,0.79,1.27,1.23,1.87
			c-0.12,0.1-0.22,0.21-0.31,0.32c-0.31,0.42-0.47,0.86-0.56,1.28c-0.18,0.85-0.11,1.65,0.03,2.4c0.29,1.51,0.91,2.88,1.67,4.12
			c1.46,2.39,3.4,4.38,5.51,6.09c0,1.19,0.02,2.37,0.06,3.55c0.04,1.31,0.08,2.61,0.14,3.91c0.05,1.3,0.12,2.61,0.2,3.91
			c0.06,1,0.12,1.99,0.19,2.99c-0.47,0.06-0.94,0.14-1.41,0.24C22.21,62.87,22.06,62.12,21.91,61.37z M27.04,105.71
			C27.04,105.71,27.04,105.71,27.04,105.71C27.04,105.71,27.04,105.71,27.04,105.71C27.09,105.74,27.05,105.7,27.04,105.71z
			 M32.1,92.77c-0.02,0.01-0.04,0.01-0.06,0.01c-0.03,0,0.02-0.01,0.03-0.01l0.07-0.02C32.13,92.76,32.11,92.77,32.1,92.77z
			 M43.68,82.01c-0.41,1.17-1.03,2.26-1.77,3.24c-0.73,0.99-1.63,1.84-2.6,2.59c-0.96,0.76-2.02,1.37-3.11,1.89
			c-1.09,0.54-2.25,0.89-3.4,1.23l-0.88,0.21l-0.22,0.05c-0.03,0.01-0.01,0-0.08,0.02c-0.06,0.02-0.11,0.04-0.17,0.07
			c-0.1,0.05-0.24,0.12-0.28,0.17c-0.26,0.22-0.37,0.41-0.49,0.59c-0.38,0.69-0.56,1.3-0.77,1.92c-0.76,2.47-1.2,4.94-1.74,7.37
			c-0.27,1.21-0.52,2.44-0.91,3.55c-0.1,0.27-0.21,0.53-0.32,0.72c0,0,0,0,0,0c-0.1-0.11-0.21-0.27-0.31-0.44
			c-0.14-0.25-0.27-0.51-0.39-0.79c-0.93-2.25-1.57-4.72-2.24-7.13c-0.33-1.22-0.67-2.43-1.08-3.63c-0.23-0.6-0.41-1.2-0.89-1.79
			c-0.08-0.07-0.13-0.15-0.25-0.21c-0.06-0.03-0.12-0.06-0.17-0.08l-0.11-0.03l-0.44-0.14c-0.29-0.1-0.59-0.18-0.87-0.3
			c-1.16-0.42-2.25-0.99-3.29-1.64c-1.03-0.67-1.97-1.44-2.83-2.3c-1.67-1.75-2.91-3.89-3.4-6.19c-0.23-1.15-0.35-2.33-0.19-3.49
			l0.04-0.43c0.02-0.14,0.06-0.29,0.09-0.43l0.17-0.85c0.08-0.28,0.18-0.55,0.27-0.83c0.09-0.28,0.18-0.55,0.31-0.81
			c0.94-2.13,2.49-3.99,4.4-5.36c1.9-1.39,4.08-2.42,6.38-2.99c2.3-0.6,4.72-0.75,7.1-0.55c2.38,0.22,4.74,0.79,6.94,1.79
			c0.55,0.24,1.07,0.56,1.61,0.84c0.49,0.35,1.03,0.65,1.5,1.03c0.47,0.38,0.96,0.76,1.38,1.2c0.21,0.22,0.45,0.42,0.64,0.66
			l0.58,0.72c1.53,1.93,2.36,4.41,2.42,6.89C44.29,79.6,44.08,80.83,43.68,82.01z M70.83,56.48c0.22-1.52,0.4-3.05,0.52-4.58
			c0.28-1.28,0.58-2.54,1.03-3.73c0.3-0.79,0.67-1.54,1.11-2.22c0.35-0.53,0.76-1,1.25-1.37c0.55,1.38,0.64,2.99,0.44,4.52
			c-0.24,1.77-0.96,3.43-1.59,5.07c-0.31,0.83-0.63,1.65-0.91,2.49l-0.9,2.51c-0.55,1.55-1.12,3.1-1.63,4.7
			c-0.28-0.05-0.57-0.09-0.85-0.13c0.02-0.08,0.03-0.17,0.04-0.25C70,61.18,70.46,58.84,70.83,56.48z M65.37,40.56
			c0.11-1.26,0.33-2.5,0.72-3.65c0.35-1.03,0.87-1.99,1.64-2.72c0.77,0.64,1.31,1.66,1.67,2.7c0.42,1.21,0.64,2.5,0.76,3.8
			c0.24,2.6-0.07,5.22-0.29,7.81c-0.04,0.44-0.06,0.88-0.1,1.32c-0.31,0.98-0.55,1.98-0.72,2.98c-0.3,1.83-0.43,3.67-0.42,5.5
			c0.01,1.57,0.1,3.13,0.33,4.68c-0.01,0.24-0.02,0.47-0.03,0.71c-0.4-0.04-0.8-0.07-1.19-0.09c-0.05,0-0.1,0-0.15,0
			c-0.02-0.13-0.04-0.25-0.06-0.38c0-0.71-0.09-1.42-0.2-2.11c-0.13-0.8-0.3-1.59-0.49-2.38c-0.14-0.92-0.28-1.84-0.41-2.75
			c-0.36-2.59-0.7-5.17-0.91-7.75C65.32,45.66,65.16,43.08,65.37,40.56z M63.58,59.37c-0.65-1.51-1.28-3.02-2.03-4.48
			c-0.74-1.46-1.6-2.89-2.06-4.47c-0.23-0.78-0.39-1.59-0.42-2.4c-0.03-0.5,0.01-1.01,0.1-1.48c0.33,0.36,0.63,0.81,0.91,1.25
			c0.42,0.68,0.82,1.4,1.19,2.14c0.74,1.48,1.38,3.02,2.06,4.55l2.06,4.6c0.65,1.5,1.35,2.98,1.9,4.53
			c-0.67-0.02-1.34-0.01-2.03,0.04C64.76,62.17,64.17,60.77,63.58,59.37z M75.05,69.81L75,71.37c-0.11,2.09-0.35,4.17-0.63,6.24
			c-0.18,1.32-0.38,2.64-0.58,3.95l-4.55,0.56l4.37,0.54c-0.06,0.38-0.12,0.76-0.18,1.14c-0.62,3.93-1.2,7.85-1.76,11.79l-2.89,0.61
			l2.71,0.57c-0.29,1.87-0.6,3.74-1.05,5.57c-0.23,1.02-0.54,2.02-0.9,2.99c-0.18,0.49-0.4,0.96-0.66,1.41
			c-0.13,0.22-0.27,0.44-0.44,0.62c-0.17,0.18-0.37,0.34-0.59,0.35c-0.21-0.01-0.41-0.18-0.57-0.37c-0.16-0.19-0.3-0.41-0.43-0.63
			c-0.25-0.45-0.46-0.92-0.64-1.41c-0.35-0.98-0.65-1.98-0.89-2.99c-0.49-2.03-0.82-4.1-1.14-6.16c-0.41-2.98-0.85-5.95-1.25-8.93
			l4.47-0.55l-4.62-0.57c-0.1-0.78-0.2-1.56-0.3-2.35c-0.46-3.78-0.89-7.57-1.12-11.36l4.62-0.57l-4.69-0.58l-0.06-1.47
			c-0.01-0.51-0.04-1.07-0.02-1.48c0.05-0.89,0.37-1.65,1.01-2.2c0.65-0.55,1.56-0.88,2.52-1.09c0.96-0.21,1.98-0.3,3.01-0.34
			c1.01-0.04,2.03,0.01,3.02,0.18c0.99,0.18,1.96,0.5,2.77,1.06c0.82,0.54,1.37,1.41,1.49,2.37C75.1,68.75,75.06,69.29,75.05,69.81z
			 M102.23,97.69c0,0.01,0,0.02,0,0.01L102.23,97.69L102.23,97.69L102.23,97.69z M109.78,72.31c0.38,2.31,0.55,4.67,0.39,7
			c-0.01,0.58-0.1,1.16-0.16,1.74c-0.08,0.58-0.12,1.16-0.26,1.73l-0.32,1.71c-0.11,0.57-0.26,1.13-0.38,1.7
			c-0.2,1.15-0.58,2.25-0.86,3.39c-0.13,0.58-0.36,1.12-0.53,1.68c-0.1,0.35-0.21,0.7-0.32,1.05c-0.39,0.05-0.79,0.08-1.19,0.1
			c-0.24,0.01-0.48,0-0.72-0.01c-0.11-0.38-0.23-0.76-0.34-1.14c-0.17-0.57-0.4-1.11-0.53-1.68c-0.28-1.14-0.66-2.24-0.86-3.39
			c-0.12-0.57-0.27-1.13-0.38-1.7l-0.32-1.71c-0.14-0.57-0.18-1.15-0.26-1.73c-0.06-0.58-0.16-1.16-0.16-1.74
			c-0.16-2.33,0-4.68,0.39-7c0.29-1.83,0.75-3.65,1.41-5.39c0.59-0.08,1.18-0.14,1.77-0.14c0.75-0.01,1.49,0.06,2.23,0.18
			C109.04,68.69,109.49,70.49,109.78,72.31z M108.24,64.9c-0.69-0.11-1.39-0.17-2.08-0.18c-0.75,0-1.5,0.06-2.25,0.18
			c0.09-0.32,0.16-0.63,0.2-0.95c0.04-0.36,0.07-0.71,0.04-1.07c-0.02-0.19,2.09,0.09,2.09,0.09c0.24,0.01,0.48,0.04,0.71,0.04
			c0.24,0.01,0.47-0.01,0.7-0.03c0.06-0.01,0.11-0.01,0.17-0.02c0.04,0.31,0.09,0.62,0.15,0.92
			C108.03,64.22,108.12,64.56,108.24,64.9z M104.69,61.81c-0.33-0.07-0.66-0.2-0.97-0.38c-0.15-4.05-0.27-8.1-0.36-12.15
			c-0.04-2.14-0.08-4.27-0.11-6.41c0.63,2.6,1.13,5.24,1.57,7.89C104.67,54.45,104.61,58.13,104.69,61.81z M104.82,61.83
			c0-3.11,0.11-6.22,0.28-9.32c0.46,3.06,0.83,6.13,1.07,9.21C106.17,61.73,105.27,61.92,104.82,61.83z M108.7,27.7
			c0.54-1.83,1.16-3.64,1.95-5.37c0.29-0.62,0.6-1.23,0.94-1.82c-0.72,2.41-1.25,4.86-1.72,7.32c-0.68,3.65-1.13,7.32-1.47,11.01
			c-0.3,3.69-0.53,7.38-0.59,11.07c-0.07,3.69-0.04,7.38,0.23,11.06c-0.26,0.09-0.52,0.18-0.78,0.28c-0.22,0.08-0.43,0.16-0.64,0.27
			c-0.11,0.05-0.21,0.11-0.32,0.16c-0.17-3.2-0.47-6.39-0.87-9.57c-0.07-0.53-0.14-1.07-0.22-1.6c0-0.02,0-0.04,0-0.05
			c0.26-3.84,0.63-7.68,1.17-11.49C106.93,35.17,107.64,31.38,108.7,27.7z M103.34,30.88c0.05-1.02,0.11-2.03,0.23-3.03
			c0.12-1,0.28-2.01,0.45-3.02c0.34-2.01,0.77-3.99,1.26-5.96c0.27-1.01,0.55-2.04,0.85-3.04l0.54,5.33l0.41,4.12
			c0.14,1.37,0.27,2.75,0.34,4.13c0,0,0,0.01,0.01,0.01c-0.74,3.13-1.26,6.29-1.66,9.47c-0.39,3.22-0.65,6.45-0.82,9.68
			c-0.31-2-0.66-3.99-1.08-5.97c-0.19-0.88-0.39-1.75-0.61-2.62c-0.01-0.99-0.02-1.98-0.02-2.97
			C103.22,34.96,103.25,32.91,103.34,30.88z M102.75,52.56c-0.3-3.12-0.74-6.23-1.24-9.33c-0.54-3.09-1.18-6.17-2.04-9.2
			c-0.55-1.93-1.15-3.85-1.91-5.72c0.24,0.35,0.48,0.7,0.7,1.06c0.82,1.34,1.5,2.78,2.1,4.24c0.61,1.47,1.13,2.97,1.59,4.5
			c0.18,0.58,0.34,1.16,0.5,1.75c0.21,7.18,0.63,14.34,1.11,21.49c-0.06-0.03-0.11-0.06-0.17-0.1l-0.15-0.09
			C103.22,58.29,103.03,55.42,102.75,52.56z M101.16,91.67c-1.62-0.57-3.13-1.5-4.38-2.72c-1.24-1.23-2.22-2.72-2.84-4.36
			c-0.63-1.63-0.88-3.39-0.8-5.11c0.18-3.45,1.69-6.71,4.07-9.05c0.63-0.61,1.32-1.15,2.05-1.62c-0.87,1.15-1.62,2.41-2.22,3.74
			c-1,2.28-1.54,4.81-1.41,7.35c0.1,2.53,0.74,5.08,2.02,7.27c0.96,1.68,2.16,3.2,3.55,4.51C101.18,91.67,101.17,91.67,101.16,91.67
			z M102.04,91.93c-1.22-1.75-2.37-3.5-3.27-5.36c-1.04-2.13-1.91-4.36-2.13-6.73c-0.24-2.36,0.14-4.79,0.98-7.04
			c0.57-1.54,1.35-3.02,2.31-4.38c1.3-0.72,2.72-1.21,4.18-1.45c-0.76,1.67-1.33,3.43-1.75,5.23c-0.52,2.34-0.82,4.74-0.78,7.15
			c0.04,2.4,0.16,4.86,0.9,7.17c0.29,1.17,0.79,2.28,1.26,3.39c0.38,0.87,0.88,1.69,1.37,2.5C104.07,92.36,103.04,92.2,102.04,91.93
			z M104.08,95.56C104.08,95.56,104.08,95.56,104.08,95.56C104.08,95.56,104.08,95.56,104.08,95.56
			C104.08,95.56,104.08,95.56,104.08,95.56z M106.94,99.78c-0.02-0.01-0.04-0.05-0.07-0.08c-0.01-0.01-0.02-0.02-0.02-0.03
			c0,0,0,0,0,0C106.94,99.75,106.93,99.75,106.94,99.78C106.95,99.79,106.95,99.79,106.94,99.78z M108.24,94.45l-0.92-0.3
			l-0.34,0.99c-0.37,1.1-0.64,2.25-0.91,3.38c-0.06-0.09-0.12-0.18-0.17-0.27c-0.41-0.69-0.75-1.41-0.98-2.16
			c-0.06-0.18-0.1-0.38-0.13-0.55c0,0.01,0,0.01,0,0.01c0,0.01-0.01,0.03,0,0.02c0.01-0.04,0.01-0.1,0-0.17
			c-0.03-0.15-0.18-0.25-0.22-0.26c-0.07-0.03-0.16-0.04-0.24-0.03l-0.06,0.01l-0.08,0.03l-0.1,0.04l-0.3,0.13l-1.13,0.5
			c0.04-0.2,0.09-0.4,0.12-0.6c0.1-0.55,0.17-1.11,0.21-1.68c1.02,0.29,2.08,0.47,3.15,0.5c1.04,0.03,2.09-0.07,3.11-0.29
			c0.01,0.38,0.04,0.75,0.07,1.12C108.97,94.7,108.61,94.57,108.24,94.45z M111.29,91.25c-0.09,0.04-0.17,0.08-0.26,0.12
			c-1.05,0.43-2.16,0.71-3.28,0.88c0.46-0.76,0.92-1.53,1.28-2.35c0.47-1.11,0.96-2.22,1.26-3.39c0.74-2.31,0.86-4.77,0.9-7.17
			c0.04-2.41-0.26-4.82-0.78-7.15c-0.42-1.78-0.98-3.53-1.73-5.19c1.55,0.29,3.04,0.86,4.43,1.67c0.88,1.29,1.6,2.68,2.13,4.13
			c0.85,2.25,1.22,4.67,0.98,7.04c-0.21,2.38-1.09,4.61-2.13,6.73C113.3,88.19,112.33,89.73,111.29,91.25z M118.45,84.62
			c-0.75,1.59-1.85,2.98-3.13,4.12c-0.78,0.7-1.63,1.28-2.53,1.78c0.91-1.02,1.73-2.14,2.42-3.35c1.28-2.19,1.91-4.74,2.02-7.27
			c0.12-2.54-0.41-5.07-1.41-7.35c-0.54-1.21-1.21-2.35-1.98-3.41c0.5,0.34,1,0.7,1.46,1.1c1.28,1.13,2.38,2.52,3.13,4.11
			c0.76,1.59,1.17,3.36,1.17,5.14C119.62,81.26,119.21,83.03,118.45,84.62z"/>
		<path class="st7" d="M104.8,95.47C104.8,95.45,104.8,95.47,104.8,95.47l0,0.05c0,0,0,0,0,0.01c0-0.02,0-0.03,0-0.04L104.8,95.47z"
			/>
	</g>
</g>
</svg>
