<?xml version="1.0" encoding="utf-8"?>
<!-- Generator: Adobe Illustrator 24.1.2, SVG Export Plug-In . SVG Version: 6.00 Build 0)  -->
<svg version="1.1" id="Layer_1" xmlns="http://www.w3.org/2000/svg" xmlns:xlink="http://www.w3.org/1999/xlink" x="0px" y="0px"
	 viewBox="0 0 128 128" style="enable-background:new 0 0 128 128;" xml:space="preserve">
<style type="text/css">
	.st0{fill:#936047;}
	.st1{fill:#EAE4D6;}
	.st2{fill:#976044;}
	.st3{fill:#333333;}
</style>
<g>
	<path class="st0" d="M120.4,54.5c-0.3,0.4-0.7,0.7-1.1,1c-0.1,0.1-0.3,0.2-0.4,0.3c0.4,0.5,0.7,1.1,1,1.6c0.2-0.1,0.3-0.3,0.5-0.4
		l0.8-0.7l0.8-0.7c0.2-0.2,0.5-0.4,0.6-0.5c0,0,0,0,0,0c0-0.1,0-0.2,0-0.3c0-0.3-0.1-0.6-0.2-0.9c-0.2-0.6-0.4-1.1-0.6-1.8
		c0,0,0,0,0,0c0,0.4-0.2,0.8-0.4,1.1C121,53.7,120.7,54.1,120.4,54.5z"/>
	<path class="st1" d="M122.3,57.1c-0.2,0.1-0.3,0.2-0.5,0.2c-0.3,0.1-0.7,0.2-1.1,0.3c-0.2,0-0.4,0.1-0.6,0.1c1.2,2,2.1,4.2,2.8,6.4
		c0.6,1.2,1.1,2.4,1.6,3.6l1.4,3.2c-0.4-1.9-0.8-3.9-1.2-5.8C124.1,62.6,123.2,59.9,122.3,57.1z"/>
	<path class="st2" d="M116.1,58.3c-0.5,0.2-1.1,0.4-1.7,0.3c-0.6-0.1-1.1-0.3-1.6-0.6c-0.4-0.3-0.8-0.7-1.1-1
		c-0.3-0.4-0.6-0.8-0.9-1.2c-0.5-0.9-0.7-2-0.6-2.9c0.1-1,0.6-1.9,1.2-2.7c0.6-0.8,1.2-1.4,2.1-1.9c0,0,0.1,0,0.1,0c0,0,0,0.1,0,0.1
		l0,0c-0.3,0.2-0.7,0.6-1,0.9c-0.3,0.3-0.6,0.7-0.8,1.1c-0.4,0.8-0.7,1.6-0.8,2.5c-0.1,1.7,1.1,3.2,2.5,4c1.4,0.8,2.4-0.3,3.7-1.7
		c0.1-0.1,0.2-0.2,0.3-0.3l0.1-0.1c0.1,0,0.1-0.1,0.2-0.1c0.1,0,0.1,0,0.2-0.1l0.1,0c0,0,0,0,0,0c0,0,0,0,0,0c0.1,0,0.3-0.1,0.4-0.2
		c0.4-0.2,0.7-0.4,1.1-0.7c0.4-0.3,0.7-0.5,1-0.8c0.3-0.2,0.5-0.5,0.7-0.8c0-0.8-0.2-1.5-0.5-2.2c-0.3-0.7-0.8-1.3-1.4-1.7
		c-0.6-0.5-1.2-0.8-1.9-1.1c-0.7-0.3-1.4-0.4-2.2-0.6c-1.6-0.3-3.1-0.4-4.7-0.4c-1.5,0-3.2,0.1-4.4,0.5c-0.2,0.3-0.4,0.5-0.6,0.8
		c-0.5,0.6-1.1,1.1-1.5,1.8c-0.4,0.7-0.7,1.5-0.8,2.3c-0.1,0.8-0.1,1.7,0,2.6c0,0,0,0.1-0.1,0.1c0,0-0.1,0-0.1-0.1l0,0
		c-0.3-0.8-0.5-1.7-0.6-2.7c-0.1-0.9,0.1-1.9,0.4-2.8c0.2-0.5,0.4-0.9,0.6-1.3c0.3-0.4,0.6-0.8,1-1.1c0.1-0.1,0.1-0.1,0.2-0.2
		c0,0-0.1,0-0.1-0.1c-0.3-0.1-0.6-0.2-1-0.3c-0.7-0.2-1.4-0.2-2.1-0.1c-0.7,0.1-1.4,0.3-1.9,0.7c-0.2,0.2-0.5,0.4-0.8,0.6
		c-0.2,0.9-0.5,1.8-0.6,2.7c-0.1,1-0.3,2-0.2,3.1c0.1,1,0.4,2.1,0.8,3c0.4,1,0.9,1.9,1.5,2.8c0,0,0,0,0,0.1c0,0,0,0-0.1,0
		c-0.7-0.8-1.3-1.7-1.8-2.7c-0.5-1-0.9-2-1.1-3.1c-0.2-1.1-0.2-2.2,0-3.3l0.2-0.8c0.1-0.3,0.2-0.5,0.3-0.8c0.1-0.2,0.2-0.5,0.4-0.7
		c-0.2,0.2-0.5,0.3-0.7,0.4c-1.3,0.8-2.7,1.5-3.9,2.4c-1.2,0.9-2.3,1.9-3.3,3l-0.1,0.1l-0.3,0.1c-1.5,0.6-3.1,1.5-4.6,2.3
		c-1.5,0.9-3,1.8-4.5,2.7c-1.5,1-2.9,1.9-4.3,2.9c-1.4,1-2.8,2.1-3.9,3.2l-0.3,0.3l-0.3,0.1c-0.7,0.1-1.6,0.6-2.5,1.2
		c-0.8,0.6-1.6,1.2-2.4,2c-0.7,0.7-1.5,1.5-2.1,2.3c-0.7,0.8-1.3,1.7-1.9,2.6c0,0.1-0.1,0.1-0.2,0c0,0-0.1-0.1,0-0.1
		c0.3-1,0.7-1.9,1.2-2.9c-5.4,1.3-10.8,2.8-15.9,5c-2.7,1.2-5.2,2.6-7.7,4.1l-3.7,2.3c-1.3,0.8-2.6,1.6-4.1,2.1
		c-1.5,0.5-3.2,0.9-4.8,0.7c-1.2-0.1-2.7,0.1-4,0.4c-1.4,0.3-2.8,0.6-4.1,1.1c-1.3,0.4-2.7,1-3.9,1.6c-2.5,1.3-4.9,2.8-6.9,4.8
		c-1,1-1.9,2.1-2.6,3.2l-0.3,0.4l-0.1,0.1l0,0.1l0,0c0,0-0.3,0.4-0.2,0.2l-0.2,0.2c-0.2,0.3-0.5,0.5-0.7,0.8
		c-0.4,0.5-0.8,1.1-1.2,1.7c-0.7,1.2-1.2,2.5-1.6,3.8C2.2,104,2,105.4,2,106.8c0,1.4,0.2,2.8,0.5,4.2c0.3,1.4,0.7,2.7,1.4,3.9
		c1.5,2.3,3.7,4.3,6.1,5.9c1.2,0.8,2.5,1.6,3.7,2.2c1.3,0.7,2.6,1.3,4,1.7c1.4,0.4,2.8,0.7,4.3,1c1.4,0.2,2.9,0.4,4.4,0.5
		c2.9,0.3,5.9,0.3,8.8,0.4c3,0,5.9,0,8.8-0.1c2.3-0.1,4.6-0.2,6.8-0.5c-0.3-0.1-0.6-0.2-0.9-0.3c-0.9-0.2-1.9-0.4-2.9-0.6
		c-0.2,0-0.4,0.1-0.6,0.1l-1.4,0.1c-1.8,0-3.6-0.3-5.3-0.6c-1.8-0.3-3.5-0.6-5.2-1c-1.7-0.4-3.5-0.8-5.2-1.3c0,0-0.1-0.1-0.1-0.1
		c0,0,0-0.1,0.1-0.1c1.8,0.2,3.5,0.5,5.3,0.6c1.8,0.2,3.5,0.4,5.3,0.5c1.7,0.1,3.5,0.1,5.2,0.3l1-0.6c0.8-0.5,1.7-1,2.6-1.3
		c0.1,0,0.1,0,0.2-0.1c-1.6-0.8-3.2-1.5-4.9-1.7c-1.3-0.2-2.6-0.2-3.9-0.1l-1,0.1c-0.4,0-0.8,0-1.1,0c-0.7,0-1.4-0.1-2.1-0.2
		c-2.8-0.5-5.4-1.3-8-2.1c-1.3-0.4-2.6-0.9-3.9-1.4l-1.9-0.7l-1-0.3c-0.3-0.1-0.7-0.2-0.9-0.2l-0.1,0c-0.1,0-0.1-0.1-0.1-0.1
		c0-0.1,0-0.1,0.1-0.1c0.3-0.1,0.4,0,0.6,0l0.5,0.1l1,0.2l2,0.5c0.1,0,0.2,0.1,0.3,0.1c0-1-0.1-1.9-0.1-2.9
		c-0.1-1.1,0.1-2.3,0.3-3.4c0.2-1.2,0.4-2.3,0.8-3.4c0.5-1.1,1.3-2.2,2.4-2.6c0,0,0.1,0,0.1,0c0,0,0,0.1,0,0.1
		c-0.9,0.7-1.4,1.7-1.7,2.7c-0.3,1-0.3,2.2-0.3,3.3c0,1.1,0.2,2.2,0,3.4c-0.1,0.6-0.2,1.2-0.4,1.7c-0.1,0.4-0.3,0.9-0.6,1.2
		c0.4,0.1,0.9,0.2,1.3,0.3c3.3-0.9,6.7-1.3,10-1.6c3.5-0.2,7-0.3,10.5-0.2c1.7,0,3.5,0.1,5.2,0.2c1.6,0.1,3.4,0,5.1-0.1
		c3.5-0.1,7-0.4,10.5-0.5c3.5,0.1,6.9-0.2,10.4-0.3l5.2-0.3c1.8-0.1,3.4-0.1,4.9-0.6c0.7-0.2,1.4-0.5,2-0.9c0.3-0.2,0.6-0.4,0.8-0.7
		c0.1-0.1,0.2-0.2,0.3-0.4c0,0,0,0,0,0l0.1-0.3c0.6-1.6,1.1-3.3,1.8-4.9c0.6-1.6,1.3-3.3,2.1-4.8c0.4-0.8,0.9-1.6,1.4-2.3
		c0.5-0.7,1.1-1.5,1.8-2c0.1,0,0.1,0,0.2,0c0,0,0,0.1,0,0.1l0,0c-1,1.4-1.6,3-2.2,4.6c-0.4,1.2-0.7,2.4-1.1,3.6
		c0.7-1.2,1.6-2.3,2.4-3.4c1-1.3,2-2.6,3.3-3.6c1.2-1,2.5-2,4-2.7c0,0,0.1,0,0.1,0c0,0,0,0.1,0,0.1l0,0c-1.3,0.9-2.5,2-3.5,3.1
		c-1.1,1.2-1.9,2.4-2.8,3.8c-0.8,1.3-1.5,2.8-2.4,4.1c-0.7,0.9-1.4,1.9-2.1,2.7c-0.2,0.8-0.4,1.5-0.6,2.3c0,0.1-0.1,0.2-0.1,0.4
		c-0.1,0.1-0.1,0.2-0.3,0.6c-0.2,0.2-0.3,0.4-0.5,0.6c-0.3,0.4-0.7,0.7-1.1,1.1c-0.2,0.1-0.3,0.2-0.5,0.3c0.1,0.2,0.3,0.3,0.5,0.3
		c0.3,0.1,0.7,0,1.1-0.1c0.4-0.1,0.7-0.2,1.1-0.4c0.3-0.2,0.7-0.4,0.9-0.6l1.2-1l0.2,1.8c0,0.4,0.4,0.7,0.8,0.8
		c0.5,0.1,1-0.1,1.5-0.4l1.3-0.9l0.5,1.8c0,0.1,0,0.1,0.2,0.2c0.1,0.1,0.4,0.2,0.7,0.2c0.3,0,0.6,0,1-0.1c0.3-0.1,0.6-0.2,0.7-0.3
		l1-0.9l0.9,1.2c0,0.1-0.1,0.1,0.1,0.1c0.2,0,0.5,0,0.9,0c0.8-0.1,1.6-0.4,2.6-0.6c1-0.2,1.9-0.2,2.8-0.2c0.9,0,1.7-0.1,2.6-0.3
		c0.4-0.1,0.8-0.2,1.2-0.4c0.2-0.1,0.4-0.2,0.6-0.3c0.2-0.1,0.3-0.2,0.4-0.3c0.5-0.5,0.5-1.5,0.3-2.3c-0.2-0.8-0.6-1.6-1-2.3
		c-0.2-0.4-0.4-0.7-0.7-1.1c-0.2-0.3-0.5-0.7-0.7-0.9l-0.2-0.1l-0.1-0.4c-0.1-0.7-0.4-1.7-0.7-2.6l-0.8-2.7
		c-0.3-0.9-0.6-1.8-0.8-2.8c-0.2-0.7-0.4-1.3-0.6-2c-0.1,0.1-0.2,0.1-0.3,0.2c-0.1,0-0.1,0-0.2-0.1c0,0,0-0.1,0-0.1
		c0.1-0.1,0.2-0.3,0.3-0.4c0-0.1-0.1-0.2-0.1-0.3l0,0c0-0.1,0-0.1,0.1-0.2c0,0,0.1,0,0.1,0c0,0,0.1,0.1,0.1,0.2c0,0,0,0,0,0
		c0,0,0,0,0,0c-0.1-1.6-0.3-3.1-1-4.3c-0.3-0.6-0.7-1-1.3-1.5c-0.5-0.4-1.2-0.7-1.9-1c-1.4-0.4-2.9-0.5-4.5-0.5
		c-1.5,0-3.1,0.2-4.6,0.5l0,0c0,0-0.1,0-0.1-0.1c0,0,0-0.1,0-0.1c1.5-0.6,3-0.9,4.6-1.1c1.6-0.2,3.2-0.3,4.9,0.1
		c0.8,0.2,1.6,0.4,2.4,0.9c0.8,0.5,1.4,1.2,1.8,2.1c0.2,0.4,0.3,0.9,0.4,1.3c0,0.4,0.1,0.9,0,1.3c0,0.7-0.2,1.3-0.4,1.9
		c0.5-0.9,1-1.8,1.3-2.8c0.1-0.4,0.3-0.8,0.4-1.1c0.1-0.3,0.2-0.7,0.3-1.1c0.2-0.7,0.3-1.5,0.5-2.3c0.3-1.6,0.6-3.1,0.9-4.7
		c0.2-0.8,0.3-1.6,0.4-2.4c0.1-0.7,0.2-1.5,0.2-2.3c0-3.2-0.3-6.4-0.6-9.7c-0.1-0.8-0.1-1.6-0.1-2.5c0-0.9,0.2-1.7,0.4-2.5
		c0.5-1.6,1.3-3.1,2.6-4c-0.1-0.1-0.1-0.2-0.2-0.3C116.8,59.2,116.5,58.7,116.1,58.3z M106.9,104c1.2-0.3,2.4-0.3,3.5,0
		c0,0,0.1,0.1,0.1,0.1c0,0,0,0.1-0.1,0.1h0c-1.1,0-2.3,0.2-3.3,0.6c-0.5,0.2-0.9,0.5-1.3,0.8c-0.4,0.4-0.8,0.8-1.3,1.2
		c-0.9,0.8-1.7,1.6-2.8,2.1c-1,0.5-2.1,1-3.3,1.3l0,0c0,0-0.1,0-0.1-0.1c0,0,0,0,0-0.1c0.7-1,1.6-1.7,2.5-2.5
		c0.9-0.7,1.9-1.2,2.9-1.8c0.5-0.3,0.9-0.6,1.4-1C105.7,104.4,106.3,104.1,106.9,104z M108.8,49.6c-0.6,0.3-1.3,0.1-1.7,0
		c-0.2,0-0.2-0.2-0.2-0.4c0.1-0.4,0.5-1,1.1-1.3c0.6-0.3,1.3-0.1,1.7,0c0.2,0,0.2,0.2,0.2,0.4C109.7,48.6,109.4,49.3,108.8,49.6z"/>
	<path class="st1" d="M122.4,68.5c-0.2-0.9-0.4-1.8-0.6-2.7c-0.4-1.8-0.9-3.5-1.5-5.2c-0.5-1.6-1.1-3.1-1.7-4.7c0,0-0.1,0-0.1,0.1
		c0,0,0,0,0,0c0,0,0,0,0,0l-0.2,0.2c-0.5,0.7-1.1,1.5-2.1,2c0.3,0.4,0.7,0.9,1,1.3c0.3,0.4,0.5,0.8,0.8,1.2c0.3,0.4,0.4,0.8,0.7,1.2
		c0.8,1.7,1.5,3.4,2.2,5.1c0.7,1.7,1.3,3.5,2,5.2l0.2,0.6c-0.1-0.6-0.2-1.1-0.3-1.7C122.8,70.3,122.6,69.4,122.4,68.5z"/>
	<path class="st0" d="M118.4,56C118.4,56,118.5,56,118.4,56C118.5,56,118.4,56,118.4,56C118.4,56,118.3,56,118.4,56L118.4,56z"/>
	<path class="st3" d="M100.9,107.5c-0.9,0.7-1.8,1.5-2.5,2.5c0,0,0,0,0,0.1c0,0,0.1,0.1,0.1,0.1l0,0c1.2-0.3,2.3-0.7,3.3-1.3
		c1-0.5,1.9-1.4,2.8-2.1c0.4-0.4,0.9-0.8,1.3-1.2c0.4-0.4,0.8-0.6,1.3-0.8c1-0.4,2.1-0.6,3.3-0.6h0c0,0,0.1,0,0.1-0.1
		c0,0,0-0.1-0.1-0.1c-1.1-0.3-2.3-0.3-3.5,0c-0.6,0.2-1.2,0.4-1.7,0.8c-0.5,0.4-0.9,0.7-1.4,1C102.8,106.4,101.8,106.8,100.9,107.5z
		"/>
	<path class="st3" d="M109.7,47.9c-0.4-0.1-1.1-0.3-1.7,0c-0.6,0.3-0.9,1-1.1,1.3c-0.1,0.2,0,0.3,0.2,0.4c0.4,0.1,1.1,0.3,1.7,0
		c0.6-0.3,0.9-1,1.1-1.3C109.9,48.1,109.8,47.9,109.7,47.9z"/>
	<path class="st3" d="M128,74.9L128,74.9l-0.1-0.3c0-0.2-0.1-0.4-0.1-0.6c-0.2-1.5-0.3-3-0.5-4.6c-0.2-1.5-0.6-3.1-1-4.5
		c-0.9-2.8-2.1-5.5-3.7-7.9c0.1-0.1,0.2-0.1,0.3-0.1c0.3-0.2,0.6-0.4,1-0.8c0.1-0.1,0.2-0.4,0.3-0.5c0-0.2,0.1-0.3,0-0.5
		c0-0.3-0.1-0.5-0.1-0.7c-0.1-0.4-0.3-0.7-0.6-1.1c-0.4-0.6-1-1.1-1.7-1.3c0.2-0.7,0.2-1.5,0-2.3c-0.2-0.9-0.7-1.7-1.3-2.4
		c-1.2-1.4-3-2.2-4.7-2.6c-0.8-0.2-1.7-0.4-2.5-0.5c-0.9-0.1-1.7-0.2-2.6-0.2c-0.9,0-1.7,0-2.6,0.2c-0.7,0.1-1.5,0.3-2.2,0.7
		c-0.1,0-0.1-0.1-0.2-0.1c-0.2-0.1-0.4-0.1-0.7-0.2c-0.4-0.1-0.8-0.2-1.3-0.2c-0.8,0-1.7,0-2.5,0.2c-0.8,0.2-1.6,0.6-2.2,1.1
		c-0.6,0.5-1.2,0.9-1.8,1.3c-1.3,0.8-2.7,1.5-4,2.2c-1.3,0.7-2.5,1.5-3.7,2.5c-1.8,0.4-3.4,1.2-5,1.9c-1.6,0.8-3.2,1.6-4.8,2.5
		c-1.6,0.9-3.1,1.9-4.5,3c-1.4,1.1-2.7,2.1-3.9,3.6c-1.1,0.4-2,1-2.7,1.7c-0.9,0.8-1.6,1.6-2.3,2.5c-0.6,0.8-1.2,1.7-1.7,2.6
		c-5.6,0.8-11.3,2-16.7,4c-2.8,1-5.5,2.4-8.1,3.8l-3.8,2.2c-1.3,0.7-2.5,1.4-3.8,1.8c-1.3,0.4-2.6,0.6-3.8,0.5
		c-1.7-0.1-3.2,0.1-4.7,0.3c-3,0.5-5.9,1.5-8.7,2.9c-2.7,1.4-5.3,3.1-7.5,5.4c-1.1,1.1-2,2.4-2.9,3.7l-0.3,0.5l-0.1,0.1l0,0
		l-0.1,0.1c-0.3,0.3-0.5,0.6-0.7,0.9c-0.5,0.6-0.9,1.3-1.3,2c-1.5,2.7-2.3,5.9-2.2,9.1c0.1,1.6,0.3,3.1,0.7,4.6
		c0.4,1.5,0.9,3,1.8,4.3c1.8,2.5,4.2,4.5,6.8,6c1.3,0.8,2.6,1.5,3.9,2.1c1.3,0.6,2.7,1.3,4.2,1.7c2.9,0.8,5.8,1.2,8.8,1.5
		c2.9,0.3,5.9,0.5,8.8,0.6c2.9,0.2,5.9,0.3,8.8,0.4c1.5,0,3,0,4.4,0c1.5,0,3-0.1,4.5-0.3l0.9-0.1l-0.1-0.9c0-0.5-0.2-1-0.5-1.4
		c-0.3-0.4-0.6-0.6-1-0.8c-0.7-0.4-1.3-0.6-1.9-0.8c-0.2-0.1-0.4-0.1-0.6-0.1c0.6-0.2,1.3-0.4,2-0.4l2.9-0.4l-2.5-1.5
		c-1.2-0.7-2.4-1.4-3.8-2c-1.3-0.6-2.7-1-4.2-1.2c-1.4-0.2-2.9-0.2-4.3,0l-1,0.1c-0.3,0-0.6,0.1-0.9,0.1c-0.6,0-1.3,0-2-0.1
		c-2.6-0.3-5.3-0.9-8-1.6c-0.3-0.1-0.6-0.2-0.9-0.2c6.5-0.3,13,0,19.5,0.1c1.7,0,3.5,0.1,5.2,0c0.9,0,1.8-0.2,2.7-0.3l2.6-0.5
		c3.4-0.6,6.9-0.9,10.3-0.7c0.8,0.1,1.7,0.2,2.6,0.3c0.9,0.1,1.7,0.2,2.6,0.3c1.7,0.2,3.5,0.2,5.2,0.3c1.7,0,3.5,0,5.2,0
		c0.9,0,1.7,0,2.7-0.1c0.9-0.1,1.9-0.2,2.8-0.5c0.6-0.2,1.3-0.4,1.9-0.8c0,0.1,0,0.1,0,0.2c0.1,0.3,0.3,0.5,0.6,0.6
		c0.5,0.3,1,0.3,1.5,0.4c0.5,0,1,0,1.4-0.1c0.1,0,0.2,0,0.3-0.1c0.1,0.2,0.2,0.4,0.3,0.6c0.4,0.5,0.9,0.9,1.5,1.1
		c0.7,0.2,1.4,0.2,2.1,0.1c0.2,0.3,0.4,0.5,0.7,0.7c0.6,0.4,1.3,0.6,1.9,0.7c0.6,0.1,1.2,0,1.8-0.1c0.3-0.1,0.5-0.2,0.8-0.3
		c0.4,0.2,0.7,0.3,1.1,0.3c0.7,0.1,1.2-0.1,1.7-0.2c1-0.3,1.8-0.7,2.6-0.9c0.7-0.2,1.6-0.4,2.5-0.7c0.9-0.2,1.8-0.5,2.6-0.8
		c0.4-0.2,0.9-0.3,1.3-0.6c0.2-0.1,0.4-0.2,0.6-0.4c0.2-0.1,0.4-0.3,0.6-0.5c0.3-0.4,0.5-0.9,0.6-1.4c0.1-0.5,0.1-1,0-1.4
		c-0.1-0.9-0.2-1.9-0.5-2.8c-0.1-0.5-0.3-0.9-0.5-1.4c-0.2-0.4-0.3-0.7-0.5-1.1c-0.1-1.1-0.4-1.9-0.7-2.8c-0.3-0.9-0.7-1.8-1.1-2.7
		c-0.4-0.9-0.9-1.8-1.4-2.6c-0.4-0.6-0.8-1.2-1.2-1.8c0.4-0.3,0.9-0.6,1.3-1c0.6-0.6,1.1-1.3,1.5-2.1c0.2-0.4,0.4-0.7,0.6-1.1
		c0.2-0.4,0.4-0.8,0.5-1.2c0.3-0.8,0.5-1.6,0.8-2.4c0.4-1.6,0.7-3.3,0.9-4.9c0.1-0.8,0.1-1.6,0.2-2.5c0.1-0.9,0-1.7,0-2.6
		c-0.2-3.3-0.8-6.6-1.3-9.8c-0.1-0.8-0.3-1.6-0.3-2.4c0-0.8,0-1.6,0.2-2.3c0.3-1.5,0.9-3,2.1-4c0.1,0.2,0.3,0.4,0.4,0.7
		c0.2,0.4,0.4,0.8,0.6,1.2c0.7,1.7,1.3,3.4,1.9,5.2l1.7,5.3l0.8,2.6l0.4,1.3l0.1,0.3l0.1,0.2l0,0.1c0,0,0,0,0.1,0.2
		c0.1,0.1,0.2,0.3,0.4,0.3c0.2,0.1,0.3,0,0.4,0c0.2-0.1,0.4-0.2,0.6-0.5c0.1-0.1,0.1-0.3,0-0.4l0-0.1l0-0.2
		c-0.2-1.8-0.3-3.7-0.5-5.5c-0.1-0.7-0.2-1.4-0.3-2.1l1.3,3.6l0.8,2.2l0.2,0.5l0.1,0.3c0,0.2,0.3,0.5,0.6,0.5c0.3,0,0.4,0,0.6-0.2
		c0.2-0.1,0.3-0.3,0.3-0.6C128,75,128,75,128,74.9L128,74.9z M121.7,52.1c0.2,0.6,0.4,1.2,0.6,1.8c0.1,0.3,0.2,0.6,0.2,0.9
		c0,0.1,0,0.2,0,0.3c0,0,0,0,0,0c-0.1,0.1-0.4,0.4-0.6,0.5l-0.8,0.7l-0.8,0.7c-0.2,0.1-0.3,0.3-0.5,0.4c-0.3-0.6-0.7-1.1-1-1.6
		c0.2-0.1,0.3-0.2,0.4-0.3c0.4-0.3,0.8-0.7,1.1-1c0.3-0.4,0.6-0.8,0.8-1.2C121.4,53,121.6,52.6,121.7,52.1
		C121.7,52.2,121.7,52.1,121.7,52.1z M114.7,64c-0.2,0.8-0.4,1.7-0.4,2.5c0,0.9,0,1.7,0.1,2.5c0.3,3.3,0.6,6.5,0.6,9.7
		c0,0.8-0.1,1.6-0.2,2.3c-0.1,0.8-0.3,1.6-0.4,2.4c-0.3,1.6-0.6,3.2-0.9,4.7c-0.1,0.8-0.3,1.6-0.5,2.3c-0.1,0.4-0.2,0.7-0.3,1.1
		c-0.1,0.3-0.3,0.7-0.4,1.1c-0.4,1-0.8,1.9-1.3,2.8c0.2-0.6,0.4-1.2,0.4-1.9c0.1-0.4,0-0.9,0-1.3c-0.1-0.4-0.2-0.9-0.4-1.3
		c-0.4-0.8-1-1.6-1.8-2.1c-0.8-0.5-1.6-0.7-2.4-0.9c-1.6-0.3-3.3-0.3-4.9-0.1c-1.6,0.2-3.1,0.6-4.6,1.1c0,0-0.1,0,0,0.1
		c0,0,0,0.1,0.1,0.1l0,0c1.5-0.3,3.1-0.5,4.6-0.5c1.5,0,3.1,0.1,4.5,0.5c0.7,0.2,1.3,0.5,1.9,1c0.5,0.4,0.9,0.9,1.3,1.5
		c0.7,1.1,0.8,2.7,1,4.3c0,0,0,0,0,0c0,0,0,0,0,0c0-0.1-0.1-0.1-0.1-0.2c0,0-0.1,0-0.1,0c-0.1,0-0.1,0.1-0.1,0.2l0,0
		c0,0.1,0.1,0.2,0.1,0.3c-0.1,0.1-0.2,0.3-0.3,0.4c0,0,0,0.1,0,0.1c0,0.1,0.1,0.1,0.2,0.1c0.1-0.1,0.2-0.1,0.3-0.2
		c0.2,0.7,0.4,1.3,0.6,2c0.3,0.9,0.5,1.8,0.8,2.8l0.8,2.7c0.3,0.9,0.5,1.8,0.7,2.6l0.1,0.4l0.2,0.1c0.2,0.2,0.5,0.6,0.7,0.9
		c0.2,0.3,0.5,0.7,0.7,1.1c0.4,0.7,0.8,1.5,1,2.3c0.2,0.8,0.2,1.7-0.3,2.3c-0.1,0.1-0.2,0.2-0.4,0.3c-0.2,0.1-0.4,0.2-0.6,0.3
		c-0.4,0.2-0.8,0.3-1.2,0.4c-0.8,0.2-1.7,0.2-2.6,0.3c-0.9,0.1-1.7,0-2.8,0.2c-1,0.2-1.8,0.5-2.6,0.6c-0.4,0.1-0.7,0.1-0.9,0
		c-0.2-0.1-0.1-0.1-0.1-0.1l-0.9-1.2l-1,0.9c-0.1,0.1-0.4,0.2-0.7,0.3c-0.3,0.1-0.7,0.1-1,0.1c-0.3,0-0.6-0.1-0.7-0.2
		c-0.1-0.1-0.1,0-0.2-0.2l-0.5-1.8l-1.3,0.9c-0.5,0.3-1.1,0.5-1.5,0.4c-0.5-0.1-0.8-0.4-0.8-0.8l-0.2-1.8l-1.2,1
		c-0.2,0.2-0.6,0.4-0.9,0.6c-0.4,0.2-0.7,0.3-1.1,0.4c-0.4,0.1-0.8,0.2-1.1,0.1c-0.2,0-0.4-0.1-0.5-0.3c0.2-0.1,0.3-0.2,0.5-0.3
		c0.4-0.3,0.8-0.7,1.1-1.1c0.2-0.2,0.3-0.4,0.5-0.6c0.2-0.3,0.2-0.5,0.3-0.6c0-0.1,0.1-0.2,0.1-0.4c0.2-0.8,0.4-1.6,0.6-2.3
		c0.8-0.9,1.5-1.8,2.1-2.7c0.9-1.3,1.6-2.7,2.4-4.1c0.8-1.4,1.7-2.6,2.8-3.8c1-1.2,2.2-2.3,3.5-3.1l0,0c0,0,0-0.1,0-0.1
		c0,0-0.1-0.1-0.1,0c-1.5,0.7-2.8,1.7-4,2.7c-1.2,1.1-2.3,2.3-3.3,3.6c-0.8,1.1-1.7,2.2-2.4,3.4c0.3-1.2,0.7-2.4,1.1-3.6
		c0.6-1.6,1.1-3.3,2.2-4.6l0,0c0,0,0-0.1,0-0.1c0-0.1-0.1-0.1-0.2,0c-0.7,0.6-1.3,1.3-1.8,2c-0.5,0.7-1,1.5-1.4,2.3
		c-0.8,1.6-1.5,3.2-2.1,4.8c-0.6,1.6-1.2,3.3-1.8,4.9l-0.1,0.3c0,0,0,0,0,0c-0.1,0.1-0.2,0.3-0.3,0.4c-0.2,0.3-0.5,0.5-0.8,0.7
		c-0.6,0.4-1.2,0.7-2,0.9c-1.5,0.4-3.1,0.5-4.9,0.6l-5.2,0.3c-3.5,0.2-6.9,0.4-10.4,0.3c-3.5,0.1-7,0.4-10.5,0.5
		c-1.7,0-3.5,0.1-5.1,0.1c-1.7-0.1-3.5-0.2-5.2-0.2c-3.5-0.1-7,0-10.5,0.2c-3.4,0.2-6.8,0.7-10,1.6c-0.4-0.1-0.9-0.2-1.3-0.3
		c0.3-0.4,0.5-0.8,0.6-1.2c0.2-0.6,0.3-1.2,0.4-1.7c0.2-1.2,0-2.3,0-3.4c0-1.1,0-2.2,0.3-3.3c0.2-1.1,0.8-2.1,1.7-2.7
		c0,0,0-0.1,0-0.1c0,0-0.1-0.1-0.1,0c-1.1,0.4-1.9,1.5-2.4,2.6c-0.5,1.1-0.7,2.3-0.8,3.4c-0.1,1.2-0.4,2.3-0.3,3.4
		c0,1,0.1,1.9,0.1,2.9c-0.1,0-0.2-0.1-0.3-0.1l-2-0.5l-1-0.2l-0.5-0.1c-0.2,0-0.3-0.1-0.6,0c0,0-0.1,0.1-0.1,0.1
		c0,0.1,0,0.1,0.1,0.1l0.1,0c0.2,0,0.6,0.1,0.9,0.2l1,0.3l1.9,0.7c1.3,0.5,2.6,0.9,3.9,1.4c2.6,0.9,5.3,1.7,8,2.1
		c0.7,0.1,1.4,0.2,2.1,0.2c0.4,0,0.7,0,1.1,0l1-0.1c1.3-0.1,2.6-0.1,3.9,0.1c1.7,0.3,3.3,0.9,4.9,1.7c-0.1,0-0.1,0-0.2,0.1
		c-1,0.3-1.8,0.8-2.6,1.3l-1,0.6c-1.7-0.2-3.5-0.2-5.2-0.3c-1.8-0.1-3.5-0.3-5.3-0.5c-1.8-0.2-3.5-0.4-5.3-0.6c0,0-0.1,0-0.1,0.1
		c0,0,0,0.1,0.1,0.1c1.7,0.5,3.4,0.9,5.2,1.3c1.7,0.4,3.5,0.7,5.2,1c1.8,0.3,3.5,0.7,5.3,0.6l1.4-0.1c0.2,0,0.4-0.1,0.6-0.1
		c1,0.2,2,0.4,2.9,0.6c0.3,0.1,0.6,0.2,0.9,0.3c-2.2,0.3-4.5,0.4-6.8,0.5c-2.9,0.1-5.9,0.1-8.8,0.1c-2.9,0-5.9-0.1-8.8-0.4
		c-1.5-0.1-2.9-0.3-4.4-0.5c-1.4-0.2-2.9-0.5-4.3-1c-1.4-0.4-2.7-1-4-1.7c-1.3-0.7-2.5-1.4-3.7-2.2c-2.4-1.6-4.6-3.6-6.1-5.9
		c-0.7-1.1-1.1-2.5-1.4-3.9c-0.3-1.4-0.5-2.8-0.5-4.2c0-1.4,0.2-2.8,0.5-4.1c0.3-1.3,0.9-2.6,1.6-3.8c0.3-0.6,0.7-1.2,1.2-1.7
		c0.2-0.3,0.4-0.5,0.7-0.8l0.2-0.2C6,96.4,6.3,96,6.3,96l0,0l0-0.1l0.1-0.1l0.3-0.4c0.8-1.2,1.6-2.2,2.6-3.2c2-2,4.3-3.5,6.9-4.8
		c1.3-0.6,2.6-1.2,3.9-1.6c1.3-0.5,2.7-0.8,4.1-1.1c1.4-0.3,2.8-0.5,4-0.4c1.7,0.2,3.4-0.1,4.8-0.7c1.5-0.5,2.9-1.3,4.1-2.1l3.7-2.3
		c2.5-1.5,5-2.9,7.7-4.1c5.1-2.2,10.5-3.7,15.9-5c-0.5,0.9-0.9,1.9-1.2,2.9c0,0,0,0.1,0,0.1c0.1,0,0.1,0,0.2,0
		c0.6-0.9,1.2-1.8,1.9-2.6c0.7-0.8,1.4-1.6,2.1-2.3c0.7-0.7,1.5-1.4,2.4-2c0.8-0.6,1.7-1.1,2.5-1.2l0.3-0.1l0.3-0.3
		c1.1-1.1,2.5-2.2,3.9-3.2c1.4-1,2.9-2,4.3-2.9c1.5-0.9,3-1.9,4.5-2.7c1.5-0.8,3.1-1.7,4.6-2.3l0.3-0.1l0.1-0.1c1-1.1,2.1-2.1,3.3-3
		c1.2-0.9,2.6-1.6,3.9-2.4c0.2-0.1,0.5-0.3,0.7-0.4c-0.1,0.2-0.3,0.4-0.4,0.7c-0.1,0.2-0.2,0.5-0.3,0.8l-0.2,0.8
		c-0.3,1.1-0.2,2.2,0,3.3c0.2,1.1,0.6,2.1,1.1,3.1c0.5,1,1.2,1.8,1.8,2.7c0,0,0,0,0.1,0c0,0,0,0,0-0.1c-0.6-0.9-1.1-1.8-1.5-2.8
		c-0.4-1-0.7-2-0.8-3c-0.1-1,0-2.1,0.2-3.1c0.1-0.9,0.4-1.8,0.6-2.7c0.3-0.2,0.5-0.4,0.8-0.6c0.6-0.4,1.2-0.7,1.9-0.7
		c0.7-0.1,1.4,0,2.1,0.1c0.3,0.1,0.7,0.2,1,0.3c0,0,0.1,0,0.1,0.1c-0.1,0.1-0.1,0.1-0.2,0.2c-0.4,0.3-0.7,0.7-1,1.1
		c-0.2,0.4-0.4,0.9-0.6,1.3c-0.4,0.9-0.5,1.9-0.4,2.8c0.1,0.9,0.3,1.8,0.6,2.7l0,0c0,0,0,0.1,0.1,0.1c0,0,0.1,0,0.1-0.1
		c0-0.9-0.1-1.8,0-2.6c0.1-0.8,0.4-1.6,0.8-2.3c0.4-0.7,1-1.2,1.5-1.8c0.2-0.3,0.4-0.5,0.6-0.8c1.3-0.4,2.9-0.5,4.4-0.5
		c1.6,0,3.2,0.1,4.7,0.4c0.8,0.1,1.5,0.3,2.2,0.6c0.7,0.3,1.3,0.6,1.9,1.1c0.6,0.5,1,1.1,1.4,1.7c0.3,0.7,0.5,1.4,0.5,2.2
		c-0.2,0.3-0.4,0.6-0.7,0.8c-0.3,0.3-0.7,0.6-1,0.8c-0.4,0.3-0.7,0.5-1.1,0.7c-0.2,0.1-0.4,0.2-0.4,0.2c0,0,0,0,0,0c0,0,0,0,0,0
		l-0.1,0c-0.1,0-0.1,0-0.2,0.1c-0.1,0-0.1,0.1-0.2,0.1l-0.1,0.1c-0.1,0.1-0.2,0.2-0.3,0.3c-1.3,1.4-2.3,2.5-3.7,1.7
		c-1.4-0.8-2.6-2.3-2.5-4c0-0.8,0.3-1.7,0.8-2.5c0.2-0.4,0.5-0.8,0.8-1.1c0.3-0.3,0.6-0.7,1-0.9l0,0c0,0,0-0.1,0-0.1
		c0,0-0.1-0.1-0.1,0c-0.9,0.5-1.5,1.1-2.1,1.9c-0.6,0.8-1,1.7-1.2,2.7c-0.1,1,0.1,2.1,0.6,2.9c0.2,0.4,0.5,0.9,0.9,1.2
		c0.3,0.4,0.7,0.7,1.1,1c0.4,0.3,1,0.6,1.6,0.6c0.6,0.1,1.2-0.1,1.7-0.3c0.3,0.5,0.6,0.9,1,1.4c0.1,0.1,0.1,0.2,0.2,0.3
		C115.9,60.9,115.1,62.5,114.7,64z M118.5,56C118.5,56,118.4,56,118.5,56l-0.1,0c0,0,0,0,0,0C118.4,56,118.5,56,118.5,56z
		 M122.9,72.2c-0.6-1.7-1.3-3.5-2-5.2c-0.7-1.7-1.4-3.4-2.2-5.1c-0.2-0.4-0.4-0.8-0.7-1.2c-0.2-0.4-0.5-0.8-0.8-1.2
		c-0.3-0.5-0.7-0.9-1-1.3c1-0.5,1.6-1.4,2.1-2l0.2-0.2c0,0,0,0,0,0c0,0,0,0,0,0c0,0,0.1,0,0.1-0.1c0.6,1.6,1.2,3.1,1.7,4.7
		c0.6,1.7,1.1,3.5,1.5,5.2c0.2,0.9,0.4,1.8,0.6,2.7c0.2,0.9,0.3,1.8,0.5,2.7c0.1,0.6,0.2,1.1,0.3,1.7L122.9,72.2z M124.6,67.8
		c-0.5-1.2-1.1-2.4-1.6-3.6c-0.7-2.2-1.7-4.4-2.8-6.4c0.2,0,0.4-0.1,0.6-0.1c0.4-0.1,0.7-0.2,1.1-0.3c0.2-0.1,0.3-0.2,0.5-0.2
		c0.9,2.7,1.8,5.4,2.5,8.2c0.5,1.9,0.9,3.8,1.2,5.8L124.6,67.8z"/>
</g>
</svg>
