<?xml version="1.0" encoding="utf-8"?>
<!-- Generator: Adobe Illustrator 18.1.0, SVG Export Plug-In . SVG Version: 6.00 Build 0)  -->
<svg version="1.1" baseProfile="tiny" id="Layer_1" xmlns="http://www.w3.org/2000/svg" xmlns:xlink="http://www.w3.org/1999/xlink"
	 x="0px" y="0px" viewBox="0 0 140 128" xml:space="preserve">
<g>
	<path fill="#6B676E" d="M124,33.7c0.4-0.1,0.9-0.1,1.3-0.1c-0.1-1-0.2-3-0.5-5.8c-0.3-3.5-1.8-3.8-3.8-4.4l-0.3-0.1
		c-2.5-0.5-9.1-1.8-12.9-3.8c-1.9-1-3.4-3.2-4.6-5.7c0.4,1.3,0.8,2.4,1.2,3.2c1.2,2.3,3.7,4.1,6.9,5c0.9,0.3,2.3,0.5,3.8,0.7
		c3.2,0.5,6.5,1.1,7.8,2.4C124.6,26.9,124.3,31.6,124,33.7z"/>
	<path fill="#ACDEF9" d="M30.7,34.2c14,0,25.7-11.6,28.5-14.7C56.3,16.3,44.7,4.7,30.7,4.7C16.7,4.7,5,16.3,2.1,19.4
		C5,22.5,16.7,34.2,30.7,34.2z M30.7,6.9c7,0,12.6,5.6,12.6,12.5s-5.7,12.5-12.6,12.5c-7,0-12.6-5.6-12.6-12.5S23.7,6.9,30.7,6.9z"
		/>
	<path fill="#8E5B39" d="M100.2,76.8c-1.1-1.9-2.3-4-3.2-6.1c-0.6,0.2-1.6,0.4-3.2,0.6c0.7,1.4,2,3.9,3,5.6c0.6,1,0.8,2.2,0.7,3.4
		c-0.2,2.4-0.4,6-0.4,7.1c0,0.3,0,0.6-0.1,0.9c-0.7,4.2-1.5,9-1.6,10v1.7H99l-1-1.6c-0.4-0.7-0.6-1.5-0.4-2.3l2.5-10.7
		c0.1-0.3,0.1-0.7,0.1-1L100.2,76.8C100.1,76.9,100.2,76.9,100.2,76.8z"/>
	<path fill="#AA6D43" d="M131.5,40.1c-0.4-0.2-0.7-0.6-0.9-1c-0.4-0.8-1.9-3.6-4.7-3.6c-1.1,0-2.2,0.2-3.2,0.6
		c0.2,0.5,0.3,0.8,0.3,0.8c0.1,0.5-0.2,1-0.8,1.1c-0.5,0.1-1-0.2-1.2-0.8c0,0-0.3-1.3-1.7-3.4c-0.7-1.1-2.3-1.9-3.5-2.4
		c0.1,1.3,0.5,2.9,1.4,3.8c1.7,1.8,3.2,2.7,3.2,2.7c0.5,0.3,0.6,0.9,0.4,1.3c-0.2,0.3-0.5,0.5-0.8,0.5c-0.2,0-0.3,0-0.5-0.1
		c0,0-0.3-0.2-0.8-0.5c0,0.1,0,0.1-0.1,0.2c-1.4,1.8-2.6,4.1-3.6,7.1c-0.7,1.9-2.3,3.4-4.3,3.8c-6.4,1.3-20.5,0.7-23.7-0.1
		c-3.6-0.9-13.6-2.6-18.6-2.8l-0.2,0c-0.2,0-0.4-0.1-0.6-0.1c-4.1,0.6-19.4,3.9-6.1,20.8c0.6,0.8,0.6,1.8,0.2,2.6
		c-3,5.1-6.4,8.9-8.1,10.4c0.5,0.3,0.9,0.6,1.3,0.9c0.6-0.9,1.7-2.4,3.6-4c0.3-0.2,0.6-0.5,1-0.8c2.5-2,7.8-6.2,10.8-10.4
		c0.7-0.9,1.3-1.9,1.6-2.8c0.3-0.8,0.5-1.6,0.5-2.3c0-0.5,0.4-1,1-1c0.5,0,1,0.4,1,1c0,0.9-0.2,1.8-0.6,2.7
		c3.9,0.8,13.1,2.1,21.1,0.1c-0.2-1-0.3-1.9-0.3-2.8c0-0.5,0.4-1,1-1c0.5,0,1,0.4,1,1c0,0.7,0.1,1.5,0.2,2.3c0.2,1.2,0.6,2.6,1.2,4
		c0,0,0,0,0,0c2,5.1,5.6,10.9,9.2,15.5c0.5,0.7,0.8,1.4,1,2.2c0.5,2.6,2,11.1,2.5,13.5c0.1,0.6,0.2,1.3,0.2,1.9v0.8h3.6l-1.1-1.1
		c-0.5-0.5-0.8-1.1-0.8-1.7c-0.1-0.5-0.2-1.3-0.3-2.3c-0.5-3.8-1.6-11.7-2-12.9c-0.6-1.8-1.6-9-1.8-12.1c0-0.8,0.3-1.5,0.8-2.2
		c0,0,0,0,0,0c2.6-4.4,4.7-6.2,7.7-8.9c0.7-0.6,1.2-1.3,1.5-2.1c2.2-5.6,4.8-8.8,6.2-10.2c1.1-1.9,4.8-1.4,7.5-0.9
		c0.7,0.1,1.5,0.2,1.8,0.2c1,0,4.1-0.1,4.1-1.9C138.1,44.5,135.5,42.3,131.5,40.1z M126.3,40.7c-0.8,0-1.4-0.6-1.4-1.4
		s0.6-1.4,1.4-1.4s1.4,0.6,1.4,1.4S127.1,40.7,126.3,40.7z"/>
	<path fill="#2D2D2D" d="M30.7,23.5c2.3,0,4.2-1.8,4.2-4.1s-1.9-4.1-4.2-4.1s-4.2,1.8-4.2,4.1S28.4,23.5,30.7,23.5z"/>
	<path fill="#FFFFFF" d="M30.7,30c5.9,0,10.7-4.7,10.7-10.6S36.5,8.8,30.7,8.8C24.8,8.8,20,13.6,20,19.4S24.8,30,30.7,30z
		 M30.7,13.4c3.4,0,6.1,2.7,6.1,6s-2.7,6-6.1,6c-3.4,0-6.1-2.7-6.1-6S27.3,13.4,30.7,13.4z"/>
	<path fill="#535259" d="M56.9,106.5c0.2-1.1,0.5-3,0.7-4.8c-1.5,2.2-3.6,4.5-6.6,6.9c0.2,0.6,0.6,1.9,1.1,3.2c0.6,1.7,6,5.8,8,7.4
		c0.3,0.2,0.5,0.6,0.5,1c0,0.4-0.1,0.8-0.4,1c-1,0.9-1.8,1.7-2.4,2.4c2.4-0.7,6.1-1.9,8.4-2.6c-0.9-3.1-5.1-8.3-8.4-11.8
		C56.9,108.5,56.7,107.5,56.9,106.5z"/>
	<path fill="#535259" d="M10.7,122.5c-0.6-0.1-1-0.5-1.2-1l-0.6-2c-0.1-0.3-0.1-0.6,0-0.9l0.1-0.3l1.5-2.1c0-0.1-0.1-0.2-0.1-0.3
		c-1-2.2-0.6-4.8,0.9-6.9c0.7-0.8,1.7-3.3,2.6-5.5c1-2.4,2-4.7,2.7-5.7c-0.1-0.4-0.4-2.3-0.6-4.8c-3.2,6.7-7.7,20.3-7.7,20.5l0,0.1
		l-1.2,2.7L7,120.8c-0.1,0.5,0.1,0.9,0.5,1.2l2.5,1.5c0.2,0.1,0.5,0.2,0.8,0.1l1.8-0.4l0.3-0.4c0,0,0,0,0,0L10.7,122.5z"/>
	<path fill="#67666D" d="M54.9,93.3c0,9.4-8.9,12.9-12.5,15c-0.5,1.8-4,10.9-7.5,11.2c1.2-3.9,2.5-10,2.8-11.6c0-0.1,0.8-3.8,3-7.2
		l0,0c0,0,0,0,0,0c1.5-2.3,3.7-4.5,6.7-5.2c0.5-0.1,0.9-0.6,0.7-1.2c-0.1-0.5-0.6-0.8-1.2-0.7c-0.4,0.1-0.8,0.2-1.2,0.3
		c-1.9,0.4-4.1,1.4-5.9,3.1c-0.3,0.3-0.7,0.3-1,0.1c-1.2-0.7-2.4-1.1-3.6-1.5c-2-0.6-3.5-2.3-3.6-4.4c-0.2-2.4-0.6-5.4-1.7-7.1
		c0,0,0,0,0,0.1c-0.1-0.5-0.6-0.8-1.1-0.7c-0.5,0.1-0.9,0.6-0.7,1.1c0,0.1,1.8,8.3-0.3,12.9c-2.1,4.7-11.3,13.1-11.4,13.2l-0.3,0.3
		l0,0.4c0,0.6-0.1,2.5-0.8,3.5c-0.2,0.3-0.3,0.6-0.3,0.8c-1.3,0.2-2.5-1-2.9-1.5c-0.4-1.5-0.1-3,0.9-4.3c0.2-0.2,0.3-0.5,0.5-0.8
		c0.3-0.4,0.5-1,0.8-1.6c0,0,0,0,0-0.1c2.2-4.1,4.9-7.2,7.4-9.3c-2.6-4.5-1.3-17.6-1.1-18.9c0,0,0-0.1,0.1-0.1
		c0.3-0.5,0.1-1-0.4-1.3c-0.5-0.3-1.1-0.1-1.3,0.3c-0.8,1.3-1.4,2.7-1.8,4.2c-0.2,0.7-0.4,1.3-0.5,2c-0.1-0.2-0.3-0.3-0.4-0.4
		c-0.3-0.4-0.5-0.6-0.6-0.7c-0.2-0.3-0.6-0.4-1-0.3c-0.4,0.1-0.6,0.4-0.7,0.8c-0.2,1.1-1.3,1.9-2.5,2.6c0.4-1.2,0.4-2.3,0.2-3.1
		c1.1-0.2,2.7-0.8,3.5-2.2c0.6-1,0.5-2.3-0.1-3.7c-0.7-1.4-2-2.4-3.2-2.6c-0.7-0.1-1.7,0.1-2.6,1.1c-0.8-0.9-2-2.3-3.8-2.7
		c1.1-1.1,2.8-2.1,5.5-2.4c6.2-0.6,8.2,3.6,8.3,3.8c0.2,0.4,0.6,0.6,1,0.6c12.1-2,22.6,2.7,22.7,2.7c0,0,0.1,0,0.1,0
		c2.3,0.7,4.4,1.6,6.2,2.6h-0.1C49.4,80.9,54.9,83,54.9,93.3z"/>
	<path fill="#FFE1B2" d="M13.3,78.5c-0.4-0.8-1-1.4-1.6-1.4c-0.5,0-1,0.5-1.3,0.9c-0.2,0.3-0.6,0.5-1,0.6c-0.5,0-0.9-0.2-1.2-0.6
		l-0.1-0.1c-0.7-0.9-2.1-2.7-3.9-2.4c-0.1,0.2-0.1,0.3-0.2,0.5c-0.2,0.6-0.5,1.2-0.8,1.7l-0.9,1.5c0.7,0.8,1.7,2.1,1.6,3.9
		c0,0.7,0,1.4,0,1.9c0.9-0.1,4-0.8,5.4-3.5c0.2,0.1,0.7,0.2,1.2,0.4c0,0,0,0,0,0c0.1-0.1,0.2-0.1,0.4-0.1c1-0.1,2.3-0.5,2.7-1.3
		C13.8,80,13.7,79.3,13.3,78.5z M5.3,80.2c-0.6,0-1-0.5-1-1c0-0.6,0.5-1,1-1c0.6,0,1,0.5,1,1C6.3,79.7,5.8,80.2,5.3,80.2z"/>
	<path fill="#8E5B39" d="M63,76.8l-1.5,5.9c-0.1,0.3,0,0.6,0.1,0.8l6.2,13.9c0.3,0.6,0.4,1.2,0.4,1.8v1.8h4.1l-1.3-1.3
		c-0.5-0.5-0.9-1-1.1-1.7c-1.8-5-4.9-13.6-4.9-15.4c0-2,6-8.9,9.2-12.4C73,69.9,71.9,69.5,71,69C68.6,72,65.5,74.8,63,76.8z"/>
	<path fill="#2D2D2D" d="M30.7,36.1C46.1,36.1,58.6,23,61,20.4c0.5-0.5,0.5-1.4,0-1.9C58.6,15.8,46.1,2.7,30.7,2.7
		C15.3,2.7,2.7,15.8,0.4,18.5c-0.5,0.5-0.5,1.4,0,1.9C2.7,23,15.3,36.1,30.7,36.1z M30.7,4.7c14,0,25.7,11.6,28.5,14.7
		c-2.9,3.1-14.5,14.7-28.5,14.7c-14,0-25.7-11.6-28.5-14.7C5,16.3,16.7,4.7,30.7,4.7z"/>
	<path fill="#2D2D2D" d="M30.7,31.9c7,0,12.6-5.6,12.6-12.5S37.6,6.9,30.7,6.9c-7,0-12.6,5.6-12.6,12.5S23.7,31.9,30.7,31.9z
		 M30.7,8.8c5.9,0,10.7,4.7,10.7,10.6S36.5,30,30.7,30C24.8,30,20,25.3,20,19.4S24.8,8.8,30.7,8.8z"/>
	<path fill="#2D2D2D" d="M30.7,25.5c3.4,0,6.1-2.7,6.1-6s-2.7-6-6.1-6c-3.4,0-6.1,2.7-6.1,6S27.3,25.5,30.7,25.5z M30.7,15.3
		c2.3,0,4.2,1.8,4.2,4.1s-1.9,4.1-4.2,4.1s-4.2-1.8-4.2-4.1S28.4,15.3,30.7,15.3z"/>
	<ellipse fill="#2D2D2D" cx="126.3" cy="39.3" rx="1.4" ry="1.4"/>
	<path fill="#2D2D2D" d="M50.9,55.9c-0.1,1-0.2,1.9-0.1,2.8c0,0,0,0,0,0c-0.2,0.4-0.4,0.9-0.7,1.5c-0.5,1.2-1,2.9-1.6,4.2
		c0,0-0.1,0.1,0,0.1l-0.1,0.1L48.1,65l-0.2,0.4c-0.2,0.3-0.4,0.6-0.6,0.9c-0.4,0.6-0.9,1.1-1.3,1.6c-0.4,0.5-0.8,1-1,1.3
		c-0.2,0.4-0.3,0.6-0.3,0.6s0.3,0,0.7-0.1c0.4-0.1,1-0.2,1.7-0.4c0.7-0.2,1.5-0.6,2.2-1.3c0.4-0.3,0.7-0.7,1-1.1
		c0.2-0.2,0.3-0.5,0.5-0.7l0.2-0.3l0.1-0.1c0.1-0.1,0.1-0.1,0.1-0.2c0.3-0.8,0.5-1.5,0.7-2.3c1.5,3.6,4.1,5.7,5.3,6.5
		c0.1,0.1,0.2,0.2,0.3,0.2c-0.1,0.5-0.9,1.8-1.9,2.8l-4.3,6.6c-2.1-1.2-4.6-2.2-7.3-3.1c-0.9-0.4-11-4.7-23.1-2.9
		c-0.9-1.5-3.8-4.9-9.9-4.3c-6,0.6-8.1,4.4-8.7,6c-0.2,0.5-0.4,0.9-0.6,1.3l-1.1,1.8C0,79,0.1,79.8,0.6,80.3C1,80.6,2,81.7,1.9,83
		c-0.1,2.3,0.2,4.1,0.8,5.3c0.2,0.3,0.5,0.6,0.9,0.6c0.2,0,0.4,0,0.7-0.1C3.9,89.3,4,89.4,4,89.6c0.1,0.3,0.2,0.5,0.5,0.7
		c2.3,1.2,3.9,0.2,4.9-0.5c0.2-0.1,0.5-0.3,0.9-0.4c1.5-0.7,3.7-1.7,4.9-3.4c0.3,0.4,0.7,0.8,1.1,1.1c-0.1,0.7-0.1,1.4-0.2,2.1
		c0,0-0.1,0.1-0.1,0.1c-3.2,4.7-9,22.3-9.4,23.6l-1.4,3l-0.1,4.5c-0.3,1.2,0.3,2.6,1.4,3.2l2.5,1.5c0.5,0.3,1,0.4,1.6,0.4
		c0.2,0,0.4,0,0.6-0.1l2-0.4c0.3-0.1,0.7-0.3,0.9-0.5l0.9-1.1l0.4-0.7c0.1-0.1,0.1-0.2,0.1-0.3c0.7,0.5,1.5,0.7,2.2,0.7
		c2.6,0,4.6-1.7,5.3-3.4c0.2-0.6,0.3-1.1,0.1-1.7c-0.1-0.5-0.5-2.1-2.3-2.5c-0.1,0-0.1,0-0.2-0.1c-0.3-0.1-0.9-0.3-1.4,0.1
		c-0.3,0.2-0.5,0.6-0.4,1c0,0.4-0.2,0.8-0.5,1.1c-0.3-0.4-0.7-1-1.1-1.6c0.8-1.4,1-3.1,1-4c1.7-1.6,9.5-8.9,11.6-13.6
		c0.2-0.4,0.3-0.8,0.4-1.2c2.8,2,6.3,3.1,8.3,3.5c-1.8,3.2-2.5,6.4-2.6,6.6c-0.8,4.3-2.5,11.3-3.5,13.5c-2.8-0.3-4.9-0.3-6.4,0.1
		c-1.2,0.3-2.1,0.7-2.6,1.5c-0.2,0.4-0.3,0.8-0.1,1.2c0.1,0.4,0.4,0.7,0.8,0.8c1.6,0.6,6.6,2.3,9.5,3.3c0.3,0.1,0.7,0.2,1,0.2
		c0.7,0,1.4-0.3,2-0.7c3.2-2.9,8.3-12.9,9.4-15.3c1.3-0.7,2.4-1.4,3.5-2.2c0.2,0.7,0.5,1.7,0.9,2.6c0.6,1.5,2.9,3.8,8.1,7.8
		c-1.2,1.1-2.7,2.6-3.2,3.8c-0.2,0.5-0.2,1.1,0.2,1.5c0.3,0.3,0.6,0.5,1,0.5c0.1,0,0.3,0,0.4-0.1c2.1-0.6,7.3-2.2,10.1-3.1
		c0.9-0.3,1.4-1.2,1.2-2.1c-1.2-4.5-7.7-11.5-9-12.8c-0.2-0.2-0.3-0.6-0.3-0.9c0.6-2.8,1.3-9.6,1.3-9.9c0-0.1,0-0.1,0-0.2
		c0.9-2.5,0.8-4.1,0.8-4.3c0-3.4-1.6-6.5-4.6-9.3c0.4-0.7,1.4-2.2,3.4-3.8c0.2-0.2,0.5-0.4,0.8-0.6l-0.8,3.5c-0.2,0.7-0.1,1.4,0.2,2
		L66,98.2c0.1,0.3,0.2,0.7,0.2,1v2.2c0,0.8,0.7,1.5,1.5,1.5h5.6c0.6,0,1.2-0.4,1.4-0.9c0.2-0.6,0.1-1.2-0.4-1.6l-2.1-2
		c-0.3-0.3-0.5-0.6-0.6-0.9c-2.9-7.8-4.8-13.7-4.8-14.7c0.1-1.2,5-7.1,9.4-11.9c2.8,0.6,5.8,1,9,1c2.6,0,4.7-0.1,6.4-0.2
		c0.5,1,2.2,4.2,3.3,6.3c0.4,0.7,0.6,1.5,0.5,2.3c-0.2,2.4-0.4,6.1-0.4,7.2c0,0.2,0,0.4-0.1,0.7c-1.3,7.4-1.7,9.6-1.6,10.5l0,2
		c0,0.8,0.7,1.5,1.5,1.5h5c0.6,0,1.1-0.4,1.4-0.9c0.2-0.5,0.1-1.1-0.2-1.5l-1.3-2.1c-0.2-0.3-0.2-0.6-0.1-0.9l2.5-10.7
		c0.1-0.5,0.2-1,0.2-1.5l-0.1-4.3c1.4,2.1,2.7,3.8,3.4,4.8c0.3,0.4,0.5,0.9,0.6,1.4c0.6,3.3,2,11.2,2.6,13.6c0.1,0.5,0.2,1,0.2,1.5
		v1.2c0,0.8,0.7,1.5,1.5,1.5h5.7c0.5,0,1-0.3,1.2-0.8c0.2-0.5,0.1-1-0.2-1.3l-2.2-2.3c-0.2-0.2-0.3-0.4-0.3-0.7
		c-0.1-0.5-0.2-1.3-0.3-2.3c-0.8-6-1.6-12-2.1-13.2c-0.5-1.5-1.5-8.5-1.7-11.6c-0.1-1.2,2.3-2.5,4.6-3.7c1.9-1,3.9-2.1,5.4-3.5
		c2.8-2.8,4.5-9.3,5.4-13.2c0.2-0.8,0.4-1.5,0.5-1.9c0.3-0.9,4.2-0.3,5.6-0.1c0.9,0.1,1.6,0.3,2.1,0.3c3.8,0,6.1-1.4,6.1-3.8
		c0-2.7-4.1-5.5-7.6-7.4c0,0-0.1-0.1-0.1-0.1c-0.5-1-2.1-3.9-5.1-4.6c-0.1-0.8-0.2-3-0.5-6.1c-0.4-4.8-3.1-5.5-5.3-6.1l-0.4-0.1
		c-2.4-0.5-8.8-1.8-12.4-3.6c-2.5-1.3-4.3-5.7-5.8-9.6c-0.6-1.5-1.1-2.9-1.7-4L99.1,0l0.2,4.7c0.1,2.7,1.6,10,3.3,13.2
		c2,3.8,5.9,5.4,8,6c1,0.3,2.5,0.5,4,0.8c2.5,0.4,5.9,1,6.8,1.8c1,1,0.9,5.2,0.5,7.9c0,0-0.1,0-0.1,0c-0.2-0.5-0.5-1-0.9-1.5
		c-1.7-2.5-5.8-3.6-5.9-3.6l-1.2-0.3l0,1.2c0,0.2-0.1,4.3,1.9,6.5c0.5,0.5,1,1,1.4,1.4c0,0-0.1,0.1-0.1,0.1
		c-1.5,1.9-2.8,4.4-3.9,7.7c-0.4,1.3-1.5,2.2-2.9,2.5c-6.1,1.2-19.8,0.7-22.8-0.1c-3.6-0.9-13.8-2.7-18.9-2.9
		c-3.5-0.7-9-0.3-12.9,2.5C52.9,49.8,51.3,52.5,50.9,55.9z M9.9,82.3c-0.2,0.3-0.3,0.7-0.2,1.1c0.2,0.6,0.6,2.7-1.3,4.8
		c0,0,0,0,0,0.1c-0.6,0.4-1.1,0.7-1.8,0.7c0.4-0.6,1-1.4,1.4-2c0.3-0.4,0.2-0.9-0.1-1.2c-0.3-0.3-0.8-0.4-1.2-0.2
		c-0.8,0.4-1.8,0.9-2.5,1.2c-0.3-0.9-0.4-2.2-0.3-3.7c0.1-1.8-0.9-3.2-1.6-3.9l0.9-1.5c0.3-0.5,0.6-1.1,0.8-1.7
		c0.1-0.1,0.1-0.3,0.2-0.5c1.7-0.3,3.2,1.5,3.9,2.4L8.2,78c0.3,0.4,0.8,0.6,1.2,0.6c0.4,0,0.8-0.2,1-0.6c0.3-0.4,0.8-1,1.3-0.9
		c0.6,0,1.2,0.6,1.6,1.4c0.4,0.8,0.4,1.5,0.2,1.9c-0.4,0.8-1.7,1.2-2.7,1.3C10.4,81.8,10.1,82,9.9,82.3z M12.5,123.2l-1.8,0.4
		c-0.3,0-0.5,0-0.8-0.1L7.5,122c-0.4-0.2-0.6-0.7-0.5-1.2l0.2-4.4l1.2-2.7l0-0.1c0.1-0.2,4.5-13.8,7.7-20.5c0.1,2.5,0.5,4.4,0.6,4.8
		c-0.8,1-1.7,3.3-2.7,5.7c-0.9,2.2-1.9,4.7-2.6,5.5c-1.6,2-1.9,4.6-0.9,6.9c0,0.1,0.1,0.2,0.1,0.3L9,118.3l-0.1,0.3
		c-0.1,0.3-0.1,0.6,0,0.9l0.6,2c0.2,0.5,0.6,0.9,1.2,1l2.1,0.3c0,0,0,0,0,0L12.5,123.2z M13.2,120.7l-0.3,0.1l-1.7-0.2l-0.5-1.5
		l0.7-1C12,119,12.6,119.9,13.2,120.7C13.3,120.7,13.3,120.7,13.2,120.7z M66.1,121c-2.3,0.7-5.9,1.8-8.4,2.6
		c0.6-0.7,1.4-1.5,2.4-2.4c0.3-0.3,0.5-0.7,0.4-1c0-0.4-0.2-0.8-0.5-1c-2-1.5-7.3-5.6-8-7.4c-0.5-1.3-0.9-2.5-1.1-3.2
		c3.1-2.4,5.2-4.7,6.6-6.9c-0.2,1.8-0.5,3.7-0.7,4.8c-0.2,0.9,0.1,1.9,0.7,2.6C61,112.7,65.1,117.9,66.1,121z M59,92.6
		c0,0.1,0.2,9.7-14.4,17.8c-0.2,0.1-0.3,0.3-0.4,0.5c-0.8,1.8-6.1,12.2-9.1,14.9c-0.3,0.2-0.7,0.3-1,0.2c-2.4-0.8-6.3-2.2-8.4-2.9
		c0.2-0.1,0.3-0.1,0.6-0.2c1.4-0.3,3.5-0.3,6.4,0c0.3,0,0.7-0.1,0.9-0.4c1.5-2,3.6-12.6,4.1-14.7c0-0.1,0.8-3.8,3-7.2c0,0,0,0,0,0
		c0,0,0,0,0,0c1.5-2.3,3.7-4.5,6.7-5.2c0.5-0.1,0.9-0.6,0.7-1.2c-0.1-0.5-0.6-0.8-1.2-0.7c-3.4,0.8-5.8,3-7.5,5.5
		c-1.4-0.2-5.8-1.4-8.9-3.8c0.8-4.9-0.4-10.6-0.5-10.9c-0.1-0.5-0.6-0.9-1.2-0.7c-0.5,0.1-0.9,0.6-0.7,1.1c0,0.1,1.8,8.3-0.3,12.9
		c-2.1,4.7-11.3,13.1-11.4,13.2l-0.3,0.3l0,0.5c0,0.6,0,2.5-0.8,3.5c-0.4,0.5-0.4,1.2,0,1.7c0.6,0.8,1.3,1.7,1.6,2.2
		c0.4,0.5,1.1,0.8,1.7,0.5c1-0.4,1.7-1.2,1.9-2.2c0.3,0.1,0.5,0.4,0.7,1c0.1,0.3,0.1,0.3,0,0.6c-0.4,1.1-1.9,2.2-3.5,2.2
		c-1.5,0-3.8-2.8-5-5.3c0,0,0-0.1-0.1-0.1c-0.1-0.2-0.2-0.4-0.2-0.6c-0.7-1.6-0.5-3.5,0.7-5c0.8-1.1,1.8-3.4,2.9-5.9
		c0.9-2.1,1.9-4.6,2.5-5.4c0.3-0.4,0.4-0.9,0.3-1.4c-0.8-3.8-1.4-12.4,2-18.1c0.3-0.5,0.1-1.1-0.3-1.3c-0.5-0.3-1.1-0.1-1.3,0.3
		c-1.1,1.9-1.8,4-2.3,6.2c-0.5-0.6-1-1.1-1-1.1c-0.2-0.3-0.6-0.4-1-0.3c-0.4,0.1-0.6,0.4-0.7,0.8c-0.2,1-1.3,1.9-2.5,2.6
		c0.4-1.2,0.4-2.3,0.2-3.1c1.1-0.2,2.7-0.8,3.5-2.2c0.6-1,0.5-2.3-0.1-3.7c-0.7-1.4-2-2.4-3.2-2.5c-0.7-0.1-1.7,0.1-2.6,1.1
		c-0.8-0.9-2-2.3-3.8-2.7c1.1-1.1,2.8-2.1,5.5-2.4c6.2-0.6,8.2,3.6,8.3,3.8c0.2,0.4,0.6,0.6,1,0.6c12.1-2,22.6,2.7,22.7,2.7
		c0,0,0.1,0,0.1,0C52.9,81.4,59,86.9,59,92.6z M64.9,82.7c0,1.8,3.1,10.4,4.9,15.4c0.2,0.6,0.6,1.2,1.1,1.7l1.3,1.3h-4.1v-1.8
		c0-0.6-0.1-1.2-0.4-1.8l-6.2-13.9c-0.1-0.3-0.1-0.5-0.1-0.8l1.5-5.9c2.5-2.1,5.6-4.9,8-7.8c1,0.5,2.1,0.9,3.2,1.2
		C70.9,73.8,64.9,80.7,64.9,82.7z M100.1,85.4l-2.5,10.7c-0.2,0.8-0.1,1.6,0.4,2.3l1,1.6h-3.7v-1.7c0.1-1,0.9-5.8,1.6-10
		c0-0.3,0.1-0.6,0.1-0.9c0-1.1,0.2-4.8,0.4-7.1c0.1-1.2-0.2-2.3-0.7-3.4c-1-1.7-2.3-4.2-3-5.6c1.6-0.2,2.6-0.4,3.2-0.6
		c0.9,2.1,2.1,4.2,3.2,6.1c0,0,0,0.1,0,0.1l0.1,7.4C100.3,84.7,100.2,85,100.1,85.4z M115,22.7c-1.5-0.2-2.8-0.5-3.8-0.7
		c-3.1-0.9-5.6-2.7-6.9-5c-0.4-0.8-0.8-1.9-1.2-3.2c1.2,2.5,2.7,4.7,4.6,5.7c3.8,2,10.4,3.3,12.9,3.8l0.3,0.1c2,0.5,3.5,0.9,3.8,4.4
		c0.2,2.8,0.4,4.8,0.5,5.8c-0.4,0-0.9,0.1-1.3,0.1c0.3-2.2,0.6-6.9-1.1-8.6C121.6,23.8,118.2,23.3,115,22.7z M68.1,47.3l0.2,0
		c5,0.1,15,1.9,18.6,2.8c3.2,0.8,17.3,1.3,23.7,0.1c2-0.4,3.6-1.8,4.3-3.8c1-3,2.2-5.3,3.6-7.1c0,0,0.1-0.1,0.1-0.2
		c0.5,0.3,0.8,0.5,0.8,0.5c0.1,0.1,0.3,0.1,0.5,0.1c0.3,0,0.7-0.2,0.9-0.5c0.3-0.5,0.1-1.1-0.4-1.3c0,0-1.5-0.9-3.2-2.7
		c-0.9-0.9-1.2-2.6-1.4-3.8c1.2,0.5,2.8,1.3,3.5,2.4c1.4,2.1,1.7,3.4,1.7,3.4c0.1,0.5,0.6,0.9,1.1,0.8c0.5-0.1,0.9-0.6,0.8-1.1
		c0,0-0.1-0.3-0.3-0.8c1-0.4,2.1-0.6,3.2-0.6c2.8,0,4.3,2.8,4.7,3.6c0.2,0.4,0.5,0.8,0.9,1c4,2.2,6.6,4.4,6.6,5.8
		c0,1.8-3.1,1.9-4.1,1.9c-0.3,0-1.1-0.1-1.8-0.2c-2.9-0.5-6.9-1.1-7.7,1.4c-0.1,0.4-0.3,1.1-0.5,2c-0.9,3.5-2.5,9.9-4.9,12.3
		c-1.2,1.2-3.1,2.2-4.9,3.2c-3,1.6-5.7,3-5.6,5.5c0.2,3.1,1.1,10.3,1.8,12.1c0.4,1.2,1.5,9.1,2,12.9c0.1,0.9,0.2,1.7,0.3,2.3
		c0.1,0.7,0.4,1.2,0.8,1.7l1.1,1.1h-3.6v-0.8c0-0.6-0.1-1.3-0.2-1.9c-0.5-2.4-2.1-11-2.5-13.5c-0.1-0.8-0.5-1.6-1-2.2
		c-5.1-6.7-10.6-15.9-10.6-21.8c0-0.5-0.4-1-1-1c-0.5,0-1,0.4-1,1c0,2.2,0.7,4.7,1.6,7.2c-1.3,0.3-4.6,0.9-10.9,0.9
		c-5,0-9.6-0.9-13.1-2.4c1.3-1.9,2.2-3.9,2.2-5.6c0-0.5-0.4-1-1-1c-0.5,0-1,0.4-1,1c0,5.1-9.4,12.6-12.9,15.4
		c-0.4,0.3-0.7,0.6-1,0.8c-2,1.6-3.1,3.1-3.6,4c-0.6-0.5-1.3-0.9-2-1.4l4.1-6.4c1.3-1.5,3.3-4.1,1.8-5.4c-0.1-0.1-0.3-0.3-0.6-0.5
		c-1.7-1.3-6.3-4.8-5.4-12.3c0.4-2.8,1.7-5.1,3.9-6.6C60.3,46.9,65.5,46.8,68.1,47.3z"/>
	<ellipse fill="#2D2D2D" cx="5.3" cy="79.1" rx="1" ry="1"/>
	<path fill="#FEDBAB" d="M96.2,69c-1.3,0.3-4.6,0.9-10.9,0.9c-5,0-9.6-0.9-13.1-2.4c0.7-1,1.2-2,1.6-3c3.9,0.8,13.1,2.1,21.1,0.1
		C95.1,66,95.6,67.5,96.2,69z"/>
	<path fill="#535259" d="M45.7,94c-2.8,1-4.9,3-6.4,5.2c-1.5-0.2-5.8-1.4-8.9-3.8c0.8-4.9-0.4-10.6-0.5-10.9c0,0,0,0,0-0.1
		c0,0,0,0,0-0.1c1.1,1.7,1.5,4.7,1.7,7.1c0.1,2.1,1.6,3.8,3.6,4.4c1.2,0.3,2.4,0.8,3.6,1.5c0.3,0.2,0.7,0.1,1-0.1
		C41.6,95.4,43.8,94.3,45.7,94z"/>
	<path fill="#F4C995" d="M9.9,82.3c-0.2,0.3-0.3,0.7-0.2,1.1c0.2,0.6,0.6,2.7-1.3,4.8c0,0,0,0,0,0.1c-0.6,0.4-1.2,0.7-1.8,0.7
		c0.4-0.6,1-1.4,1.4-2c0.3-0.4,0.2-0.9-0.1-1.2c-0.3-0.3-0.8-0.4-1.2-0.2c-0.8,0.5-1.8,0.9-2.5,1.2C4,86.2,4,85.7,3.9,85
		c0.9-0.1,4-0.8,5.4-3.5c0.2,0.1,0.7,0.2,1.2,0.4C10.2,82,10,82.1,9.9,82.3z"/>
	<path fill="#535259" d="M21.7,98.5c-2.6,2.1-5.3,5.3-7.4,9.3c0.5-1.1,1-2.3,1.5-3.5c0.9-2.1,1.9-4.6,2.5-5.3
		c0.3-0.4,0.4-0.9,0.3-1.4c-0.8-3.7-1.4-12.3,1.9-17.9C20.4,80.9,19.1,94,21.7,98.5z"/>
	<path fill="#535259" d="M21,119c-0.4,1.1-1.9,2.2-3.5,2.2c-1.5,0-3.8-2.8-5-5.3c0,0,0-0.1-0.1-0.1c-0.1-0.2-0.2-0.4-0.2-0.6
		c-0.1-0.2-0.2-0.5-0.3-0.7c0.5,0.6,1.6,1.7,2.9,1.5c0,0.3,0.1,0.6,0.3,0.8c0.6,0.8,1.3,1.7,1.6,2.2c0.4,0.5,1.1,0.8,1.7,0.5
		c1-0.4,1.7-1.2,1.9-2.2c0.3,0.1,0.5,0.4,0.7,1C21.1,118.7,21.1,118.8,21,119z"/>
	<path fill="#535259" d="M59,92.6c0,0.1,0.2,9.7-14.4,17.8c-0.2,0.1-0.3,0.3-0.4,0.5c-0.8,1.8-6.1,12.3-9.1,14.9
		c-0.3,0.2-0.6,0.3-1,0.2c-2.4-0.8-6.3-2.2-8.4-3c0.2,0,0.3-0.1,0.6-0.1c1.4-0.3,3.5-0.3,6.4,0c0.3,0,0.7-0.1,0.9-0.4
		c0.4-0.5,0.8-1.7,1.3-3.1c3.6-0.2,7-9.4,7.5-11.2c3.6-2.1,12.5-5.6,12.5-15c0-10.3-5.5-12.4-5.5-12.4h0.1C55.5,84,59,88.2,59,92.6z
		"/>
	<path fill="#915E3C" d="M61.5,68.1c0.6,0.8,0.6,1.8,0.2,2.6c-3,5.1-6.4,8.9-8.1,10.4c-0.2-0.1-0.5-0.3-0.7-0.5l4.1-6.3
		c1.3-1.5,3.3-4.1,1.8-5.4c-0.1-0.1-0.3-0.3-0.6-0.4c-1.7-1.3-6.3-4.8-5.4-12.3c0.4-2.8,1.7-5.1,3.9-6.6c3.4-2.4,8.1-2.7,10.9-2.3
		C63.5,47.8,48.2,51.2,61.5,68.1z"/>
	<path fill="#FEDBAB" d="M124.6,48.4c-0.1,0.1-0.2,0.3-0.2,0.5c-0.1,0.4-0.3,1.1-0.5,2c-0.9,3.4-2.5,9.9-4.9,12.3
		c-1.2,1.2-3.1,2.2-4.9,3.2c-1.9,1-3.8,2-4.8,3.3c2.6-4.4,4.7-6.2,7.7-8.9c0.7-0.6,1.2-1.3,1.5-2.1C120.6,53,123.2,49.8,124.6,48.4z
		"/>
</g>
</svg>
