<?xml version="1.0" encoding="utf-8"?>
<!-- Generator: Adobe Illustrator 24.1.2, SVG Export Plug-In . SVG Version: 6.00 Build 0)  -->
<svg version="1.1" id="Layer_1" xmlns="http://www.w3.org/2000/svg" xmlns:xlink="http://www.w3.org/1999/xlink" x="0px" y="0px"
	 viewBox="0 0 128 128" style="enable-background:new 0 0 128 128;" xml:space="preserve">
<style type="text/css">
	.st0{fill:#EFE9DF;}
	.st1{fill:#E2DCD3;}
	.st2{fill:#8DD687;}
	.st3{fill:#2D2D2D;}
	.st4{fill:#CEC1AA;}
</style>
<g>
	<path class="st0" d="M123.9,61.4c0.9-0.4,0.7-1.1,1.1-1.3c-0.7-0.8-1.4-1.6-2.1-2.4l-1.4-1.6c-0.2-0.3-0.5-0.5-0.7-0.8
		c-0.2-0.3-0.5-0.5-0.7-0.8c-0.2-0.3-0.4-0.7-0.4-1.1c0-0.3-0.1-0.7-0.2-1c-0.1-0.7-0.3-1.3-0.5-2c-0.2-0.6-0.4-1.3-0.7-1.9
		c-0.1-0.3-0.3-0.6-0.4-0.9c-0.1-0.3-0.3-0.5-0.5-0.8c-0.4-0.5-0.8-1-1.3-1.5c-0.4-0.5-0.9-1-1.4-1.4c-1-0.9-1.9-1.9-3-2.6
		c-0.1,0.5-0.1,1-0.2,1.6c0,0,0,0.1-0.1,0.1c0,0,0,0-0.1,0c-0.3-0.5-0.5-1.1-0.7-1.6c-0.1-0.6-0.2-1.2-0.2-1.8
		c0-0.3,0.1-0.5,0.1-0.8c-0.1,0.1-0.1,0.3-0.2,0.4c-0.4,0.8-0.8,1.5-1.2,2.3c-0.4,0.8-0.7,1.5-1,2.3c-0.3,0.8-0.5,1.6-0.7,2.5
		c-0.4-0.8-0.6-1.8-0.5-2.8c0.1-1,0.4-1.9,0.8-2.7c0.4-0.8,1-1.6,1.6-2.3c0.5-0.5,1-0.9,1.6-1.3c-0.5,0.2-0.9,0.4-1.4,0.7
		c-0.8,0.6-1.5,1.1-2.1,1.8c-0.6,0.7-1.2,1.4-1.8,2.1c-0.6,0.7-1.2,1.6-1.9,2.3c0,0-0.1,0-0.1,0c0,0,0-0.1,0-0.1
		c0-0.1,0-0.2,0.1-0.3c0.1-0.9,0.4-1.8,0.8-2.7c0.2-0.4,0.4-0.8,0.6-1.1c-2.5,0.9-5,2-7.1,3.5c-0.6,0.4-1.1,0.9-1.8,1.3
		c-0.3,0.2-0.6,0.4-1,0.6l-1,0.6c-1.3,0.7-2.7,1.3-4.1,1.9c-1.4,0.6-2.8,1.1-4.3,1.5c-1.4,0.4-2.9,0.8-4.4,1.1l-1.1,0.2
		c-0.3,0.1-0.7,0.1-1,0.2c-0.6,0.2-1.3,0.4-1.9,0.7c-1.3,0.6-2.5,1.3-3.7,2.1L73.8,54l-0.3,0c-2,0.1-4.2,0.5-6.3,0.7
		c-2.2,0.2-4.3,0.4-6.5,0.5c-1.1,0-2.2,0.1-3.3,0L54.2,55l-6.5-0.3l-12.9-0.4c-2.1,0.1-4.2,0.6-6.3,1.1c-1,0.3-2.1,0.6-3.1,0.9
		c-1,0.3-2,0.7-3.2,0.9h-0.1c-0.2,0-0.5,0.1-0.8,0.2c-0.3,0.1-0.6,0.2-0.9,0.4c-0.6,0.3-1.2,0.6-1.8,1c-1.2,0.7-2.3,1.5-3.4,2.4
		c-1,0.8-1.9,1.7-2.7,2.7c-0.9,1.1-1.7,2.3-2.1,3.6c-0.8,2.6-1.3,5.4-1.7,8.2l-1.3,8.5c-0.5,2.8-1,5.7-1.8,8.5
		c-0.4,1.4-0.9,2.8-1.6,4.2c-0.6,1.2-1,2.4-1.2,3.7c-0.4,2.6-0.3,5.4,0.2,8.1c0.3,1.3,0.6,2.7,1.1,3.9c0.3,0.9,0.8,1.9,1.3,2.7
		c0.6-0.6,1.2-1.2,1.7-1.9c0.7-1,1.5-2,2.1-3c1.3-2.1,2.4-4.3,3.4-6.7c1-2.3,1.8-4.7,2.4-7.1c0.4-1.8,0.8-3.6,0.9-5.4
		c-0.1-0.5-0.2-1-0.3-1.6c-0.3-1.7-0.5-3.4-0.7-5.2c-0.2-1.7-0.3-3.5-0.4-5.2c0-0.9,0-1.7,0-2.6c0-0.9,0-1.8,0.3-2.6
		c0-0.1,0.1-0.1,0.1-0.1c0.1,0,0.1,0.1,0.1,0.1l0,0c0,1.7,0.3,3.4,0.5,5.1c0.3,1.7,0.6,3.4,0.9,5.1s0.7,3.4,1,5
		c0.2,0.8,0.4,1.7,0.6,2.5c0.2,0.8,0.4,1.6,0.7,2.3l0.1,0.2l0,0.2c0,1.2-0.1,2.5-0.3,3.7c-0.2,1.3-0.4,2.5-0.7,3.7
		c-0.3,1.2-0.8,2.4-1.4,3.6c-0.6,1.1-1.3,2.1-2.1,3c-0.2,1.4-0.3,2.9-0.3,4.4c0,1.6,0,3.2,0,4.7c0,1.6,0.2,3.2,0.3,4.7
		c0.1,1.5,0.2,2.9,0.4,4.4c1.8,0,3.6-0.1,5.4-0.1l4-0.1l-0.2-0.2c-0.5-0.4-1-0.7-1.5-1c-0.5-0.3-1.1-0.5-1.7-0.6
		c-0.6-0.2-1.2-0.2-1.7-0.3l-1-0.1l0.1-1c0.1-2.2-0.2-4.5-0.1-6.9c0-1.2,0.1-2.5,0.4-3.7c0.1-0.6,0.3-1.2,0.6-1.8l0.6-1.6
		c0.8-2.2,1.6-4.4,2.7-6.5c0.5-1.1,1.1-2.2,1.9-3.2l2.1-2.8c1.4-1.9,2.7-3.8,4-5.7c1.3-1.9,2.6-3.8,3.7-5.8c0.5-1,1.1-2,1.3-3
		c0.2-1.1,0.2-2.2,0.1-3.4c-0.1-2.3-0.3-4.6-0.9-6.8v0c0-0.1,0-0.1,0.1-0.1c0.1,0,0.1,0,0.1,0.1c0.5,1.1,0.8,2.2,1.1,3.4
		c0.3,1.2,0.5,2.3,0.7,3.5c0.2,1.2,0.2,2.4,0.2,3.6c-0.1,0.6-0.2,1.2-0.4,1.7c0.5,0.2,1,0.6,1.5,0.9l2.1,1.4
		c1.4,0.9,2.8,1.7,4.2,2.4c1.5,0.7,2.9,1.2,4.5,1.6c0.8,0.2,1.5,0.3,2.3,0.4c0.8,0.1,1.6,0.1,2.4,0.1c6.1,0.1,12.3-0.3,18.6-0.4
		c0,0,0,0,0,0c-0.5-0.9-1-1.8-1.5-2.8l-0.8-1.4L69.4,86l-0.1-0.1c0-0.1-0.1-0.2-0.1-0.2c-0.1-0.3,0-0.4,0-0.6c0-0.3,0.1-0.6,0.2-0.9
		c0.8-2.1,1.8-3.9,2.7-5.8c0-0.1,0.1-0.1,0.2-0.1c0.1,0,0.1,0.1,0.1,0.1c-0.6,2-1.5,4-2,6c-0.1,0.2-0.1,0.5-0.1,0.7
		c0,0.1,0,0.1,0,0.2l0.1,0.1l0.1,0.2l0.9,1.3c0.6,0.9,1.2,1.8,1.7,2.7c0.5,0.9,1.1,1.9,1.5,2.9c0.2,0.5,0.4,1.1,0.5,1.7
		c0,0.2,0,0.3,0,0.5l0,0.4l0.1,0.8l0.6,6.3c0.5,4.2,0.9,8.4,1.3,12.6c0.1,1,0.2,2.1,0.3,3.1c0.1,0.5,0.1,1,0.2,1.5
		c0.1,0.5,0.1,1.1,0.3,1.3c0.3,0.6,0.5,1.1,0.7,1.6c0.2,0.5,0.3,1,0.5,1.5l0.4,1.5c0.1,0.3,0.1,0.5,0.2,0.8l0.1,0.4l0,0.1
		c1.1,0,2.1,0.1,3.1,0.1l3.4,0.1c2,0,4,0,6,0c-0.3-0.3-0.5-0.7-0.9-1c-0.5-0.5-1.1-0.9-1.6-1.3c-1.2-0.7-2.5-1.1-3.9-1.1h-0.2
		l-0.2-0.1c-0.9-0.7-1.5-1.6-2.1-2.5c-0.5-0.9-1-1.8-1.4-2.7c-0.7-1.9-1.3-3.8-1.5-5.9c-0.1-1.2,0.1-2.2,0.3-3.2
		c0.2-1,0.4-2,0.6-2.9c0.4-1.9,0.9-3.8,1.4-5.7c0.5-1.9,1-3.8,1.6-5.6l0.9-2.8l0.2-0.7c0.1-0.1,0.1-0.2,0.2-0.4
		c0.1-0.2,0.2-0.3,0.3-0.5c0.3-0.5,0.6-0.9,0.9-1.3c1.3-1.6,2.5-3,3.7-4.6c0.6-0.8,1.1-1.5,1.6-2.3c0.2-0.4,0.5-0.8,0.6-1.2
		c0.2-0.4,0.3-0.8,0.3-1l0-0.6l0.5-0.3c1.6-1,3.3-2.1,4.9-3.3c1.6-1.1,3.2-2.3,4.6-3.6c1.5-1.3,2.9-2.6,4.2-4c1.2-1.3,2.2-2.6,3-4.2
		c-1.4-0.6-2.7-1.2-4-1.9c-0.6-0.2-1.1-0.3-1.7-0.5c-1.4-0.5-2.7-1-4-1.6l-0.5-0.2l0-0.5c0-0.9,0.1-1.7,0.2-2.6
		c0.1-0.4,0.2-0.9,0.3-1.3c0.1-0.4,0.2-0.9,0.4-1.3c0.1,0.4,0.2,0.9,0.3,1.3c0.1,0.4,0.2,0.9,0.2,1.3c0.1,0.7,0.1,1.4,0.1,2.1
		c1.2,0.5,2.3,1.1,3.4,1.7c0.7,0.4,1.3,0.7,2,1.1l1.8,0.7c0.9,0.3,1.7,0.7,2.5,0.8c1.8,0.4,3.5,1,5.2,1.6c0.9,0.3,1.7,0.7,2.6,1
		l0.6,0.3c0.1,0,0.2-0.1,0.3-0.2c0.2-0.1,0.4-0.3,0.6-0.5c-0.4-0.2-0.8-0.4-1.3-0.6c-0.6-0.3-1.3-0.7-1.9-1
		c-0.6-0.4-1.2-0.7-1.8-1.1c-0.6-0.4-1.2-0.8-1.8-1.2c0,0,0-0.1,0-0.1c0,0,0.1,0,0.1,0c0.7,0.2,1.3,0.5,2,0.7l2,0.8
		c1.2,0.5,2.4,1,3.6,1.4c0.5-0.2,1-0.4,1.5-0.7c0.4-0.2,0.9-0.5,1.4-0.8C124,62.4,123.1,61.7,123.9,61.4z M116.7,52.9
		c0,0-1-0.1-1.6-0.5c-0.6-0.4-1.1-1.2-1.1-1.2s1.4-0.8,2.1-0.4C116.7,51.1,116.7,52.9,116.7,52.9z"/>
	<path class="st1" d="M92.5,123.1l1.2-0.1c0.8-0.1,1.5-0.1,2.3-0.1c-0.4-0.4-0.8-0.7-1.2-1c-1.1-0.7-2.3-1.1-3.6-1.1l-0.4,0
		l-0.3-0.2c-0.9-0.7-1.4-1.5-1.9-2.4c-0.5-0.8-0.9-1.7-1.2-2.5c-0.7-1.7-1.1-3.5-1.4-5.3c-0.1-0.5-0.1-0.9-0.1-1.4
		c0-0.5,0-1,0.1-1.5c0.1-0.9,0.3-1.8,0.5-2.7c0.4-1.7,0.9-3.5,1.3-5.2c0.5-1.7,1-3.4,1.6-5.1c0.3-0.8,0.6-1.7,0.9-2.5
		c0.3-0.9,0.7-1.7,1.1-2.4c0.8-1.6,1.5-3.2,2.2-4.8c0.2-0.4,0.3-0.8,0.5-1.1c-0.5,0.8-0.9,1.5-1.5,2.2c-1.2,1.6-2.4,3.2-3.6,4.7
		c-0.3,0.4-0.6,0.8-0.8,1.1c-0.1,0.1-0.1,0.2-0.1,0.2c0,0-0.1,0.1-0.1,0.2l-0.2,0.7l-0.9,2.8l-1.7,5.6c-0.6,1.9-1.1,3.7-1.6,5.6
		c-0.2,0.9-0.5,1.9-0.6,2.8c-0.2,0.9-0.4,1.9-0.3,2.6c0.1,1.8,0.5,3.7,1.1,5.4c0.3,0.9,0.6,1.8,1.1,2.6c0.4,0.8,0.9,1.5,1.4,2
		c1.4,0.2,2.8,0.6,4,1.4c0.3-0.1,0.7-0.1,1-0.2L92.5,123.1z"/>
	<path class="st1" d="M28,98.2l-2,2.9c-0.6,0.9-1.1,1.9-1.6,2.9c-0.9,1.9-1.7,4-2.6,6c0.5,0.6,0.8,1.3,1.2,2c0.7,1.3,1.2,2.6,1.8,4
		l1.5,4c0.4,1.1,0.9,2.3,1.4,3.2c1.5,0.1,3,0.2,4.4,0.3c0.8,0.1,1.7,0.1,2.5,0.2c0.6,0,1.3,0.1,1.9,0.1c-0.1-0.1-0.1-0.2-0.2-0.3
		c-0.2-0.3-0.4-0.5-0.7-0.7c-0.5-0.4-1.1-0.8-1.7-1.1c-1.2-0.6-2.6-0.7-4-0.6l-0.3,0l-0.2-0.3c-1-1.4-1.6-2.9-2-4.4
		c-0.4-1.5-0.7-3.1-0.7-4.7c0-1.6,0.1-3.3,0.8-5c0.7-1.5,1.5-2.8,2.5-4.1c1.9-2.5,4.1-4.7,6-7c1.8-2.1,3.3-4.4,4.4-7
		c-0.5-0.4-1-0.8-1.5-1.3c-0.6-0.6-1.2-1.2-1.8-1.8c-0.4-0.4-0.8-0.8-1.2-1.1c-0.2,0.6-0.4,1.1-0.7,1.7C33.3,90.3,30.7,94.3,28,98.2
		z"/>
	<path class="st2" d="M120,66.1C120,66.1,120.1,66.1,120,66.1C120,66.1,120,66.1,120,66.1z"/>
	<path class="st1" d="M115.9,38.6c0-0.1,0-0.1,0-0.2c-0.1,0.1-0.2,0.1-0.4,0.2c-0.4,0.2-0.8,0.5-1.3,0.8c-0.8,0.5-1.6,1-2.4,1.3
		c0,0.2,0,0.3-0.1,0.5c0.7,0.2,1.3,0.5,1.9,0.8c0.4,0.2,0.8,0.5,1.2,0.7c0.2-1,0.4-1.9,0.6-2.8C115.7,39.5,115.8,39,115.9,38.6z"/>
	<path class="st3" d="M36.1,95.5c-1.9,2.3-4.1,4.4-6,7c-0.9,1.3-1.8,2.6-2.5,4.1c-0.7,1.7-0.8,3.4-0.8,5c0,1.6,0.3,3.2,0.7,4.7
		c0.5,1.5,1,3,2,4.4l0.2,0.3l0.3,0c1.3-0.1,2.7,0.1,4,0.6c0.6,0.3,1.2,0.7,1.7,1.1c0.3,0.2,0.5,0.5,0.7,0.7c0.1,0.1,0.1,0.2,0.2,0.3
		c-0.6,0-1.3-0.1-1.9-0.1c-0.8-0.1-1.7-0.1-2.5-0.2c-1.5-0.1-3-0.2-4.4-0.3c-0.5-1-1-2.1-1.4-3.2l-1.5-4c-0.5-1.3-1.1-2.7-1.8-4
		c-0.4-0.7-0.7-1.3-1.2-2c-0.4-0.6-0.9-1.1-1.5-1.5c0,0-0.1,0-0.1,0c-0.1,0-0.1,0.1,0,0.2l0,0c0.5,0.7,0.9,1.5,1.2,2.4
		c0.2,0.5,0.3,1,0.5,1.4c0.4,1.3,0.8,2.7,1.2,4.1c0.4,1.4,0.8,2.7,1.3,4.1c0.5,1.4,1,2.7,1.9,4.1l0.3,0.5l0.5,0
		c1.7,0,3.4-0.2,5.1-0.3c0.8-0.1,1.7-0.1,2.5-0.2c0.8-0.1,1.7-0.1,2.5-0.1l0.4,0l0-0.4c0-0.2-0.1-0.3-0.1-0.4c0-0.1-0.1-0.2-0.1-0.3
		c-0.1-0.2-0.2-0.3-0.3-0.5c-0.2-0.3-0.5-0.6-0.8-0.8c-0.5-0.5-1.2-0.9-1.8-1.3c-0.7-0.4-1.4-0.6-2.1-0.8c-0.6-0.1-1.2-0.2-1.8-0.3
		c-0.6-1.2-0.9-2.5-1.1-3.9c-0.2-1.4-0.3-2.9-0.3-4.3c0.1-1.4,0.3-2.9,0.8-4c0.7-1.3,1.4-2.5,2.3-3.7c1.7-2.4,3.8-4.7,5.5-7.3
		c0.9-1.3,1.7-2.7,2.2-4.2c0.5-1.2,0.8-2.4,1-3.7c-0.1-0.1-0.3-0.2-0.4-0.3C39.4,91.1,37.9,93.4,36.1,95.5z"/>
	<path class="st4" d="M105.5,61.5c0.4,0.2-0.2,4.8-4.1,10.2c-1.8,2.6-5.3,4.4-8,7.8c10.9-5.8,15.1-11.8,15.9-13
		c0.6-0.9,1.6-2.9,1.6-2.9L105.5,61.5z"/>
	<path class="st3" d="M53.1,90.8c-0.8,0-1.6-0.1-2.4-0.1c-0.8-0.1-1.5-0.2-2.3-0.4c-1.5-0.3-3-0.9-4.5-1.6c-1.4-0.7-2.9-1.5-4.2-2.4
		L37.6,85c-0.5-0.3-1-0.6-1.5-0.9c-0.2-0.1-0.5-0.2-0.7-0.3c0.2,0.1,0.5,0.3,0.7,0.5c0.4,0.4,0.8,0.7,1.2,1.1
		c0.6,0.6,1.2,1.2,1.8,1.8c0.5,0.4,1,0.9,1.5,1.3c0.1,0.1,0.3,0.2,0.4,0.3c0.7,0.6,1.4,1.1,2.2,1.5c1.5,0.9,3.1,1.6,4.8,2.1
		c0.8,0.3,1.7,0.4,2.6,0.5c0.9,0.1,1.7,0.2,2.6,0.2c1.7,0.1,3.4,0,5.1-0.1c1.7-0.1,3.4-0.3,5-0.5c2.9-0.4,5.9-1,8.7-1.8
		c0-0.1-0.1-0.2-0.1-0.3C65.5,90.5,59.3,90.9,53.1,90.8z"/>
	<path class="st3" d="M107.5,68.3c-1.3,1.4-2.7,2.8-4.2,4c-1.5,1.3-3.1,2.4-4.6,3.6c-1.6,1.1-3.2,2.2-4.9,3.3l-0.5,0.3l0,0.6
		c0,0.2-0.1,0.6-0.3,1c-0.2,0.4-0.4,0.8-0.6,1.2c-0.5,0.8-1.1,1.5-1.6,2.3c-1.2,1.5-2.4,3-3.7,4.6c-0.3,0.4-0.6,0.8-0.9,1.3
		c-0.1,0.1-0.2,0.3-0.3,0.5c-0.1,0.3-0.1,0.3-0.2,0.5l-0.2,0.7l-0.9,2.8c-0.6,1.9-1.1,3.8-1.6,5.7c-0.5,1.9-1,3.8-1.4,5.7
		c-0.2,1-0.4,1.9-0.6,2.9c-0.2,1-0.3,2-0.3,3.2c0.2,2.1,0.8,4,1.5,5.9c0.4,0.9,0.8,1.9,1.4,2.7c0.5,0.9,1.2,1.7,2.1,2.4l0.2,0.1
		l0.2,0c1.4,0,2.7,0.4,3.9,1.1c0.6,0.3,1.1,0.8,1.6,1.3c0.3,0.3,0.6,0.6,0.9,1c-2,0-4,0-6,0l-3.4-0.1c-1,0-2.1-0.1-3.1-0.1l0-0.1
		l-0.1-0.4c-0.1-0.2-0.2-0.5-0.2-0.7l-0.4-1.5c-0.1-0.5-0.3-1-0.5-1.5c-0.2-0.5-0.3-1-0.7-1.6c-0.2-0.2-0.2-0.8-0.3-1.3
		c-0.1-0.5-0.1-1-0.2-1.5c-0.1-1-0.2-2.1-0.3-3.1c-0.4-4.2-0.8-8.4-1.3-12.6l-0.6-6.3l-0.1-0.8l0-0.4c0-0.2,0-0.3,0-0.5
		c-0.1-0.6-0.3-1.2-0.5-1.7c-0.4-1-0.9-2-1.5-2.9c-0.5-0.9-1.1-1.8-1.7-2.7l-0.9-1.3l-0.1-0.2l0-0.1c0,0,0-0.1,0-0.2
		c0-0.2,0-0.4,0.1-0.7c0.5-2,1.4-3.9,2-6c0-0.1,0-0.1-0.1-0.1c-0.1,0-0.1,0-0.2,0.1c-0.9,1.9-2,3.7-2.8,5.8
		c-0.1,0.3-0.2,0.5-0.2,0.9c0,0.2,0,0.3,0,0.6c0,0.1,0.1,0.1,0.1,0.2l0.1,0.1l0.1,0.2l0.8,1.4c0.5,0.9,1,1.8,1.5,2.8c0,0,0,0,0,0
		c0,0.1,0.1,0.2,0.1,0.3c0.4,0.8,0.8,1.7,1.1,2.5c0.1,0.5,0.3,0.9,0.3,1.3c0,0.1,0,0.2,0,0.3l0,0.4l0,0.8c0.1,2.1,0.3,4.2,0.4,6.3
		c0.3,4.2,0.8,8.4,1.5,12.6c0.2,1,0.4,2.1,0.6,3.1c0.1,0.5,0.2,1,0.3,1.6c0.1,0.3,0.1,0.5,0.2,0.8c0,0.1,0.1,0.3,0.1,0.4
		c0,0,0,0.1,0.1,0.1c0,0,0,0.1,0.1,0.2c0.1,0.1,0.1,0.1,0.1,0.1c0,0,0,0,0,0c0.2,0.3,0.4,0.8,0.6,1.3c0.2,0.5,0.4,1,0.6,1.5l0.5,1.5
		l0.3,0.8l0.2,0.4l0.1,0.2c0,0,0,0.1,0.1,0.1l0.1,0.1c0,0,0.1,0.1,0.1,0.1l0.1,0.1l0.1,0c1.1,0,2.3,0,3.4,0l3.4,0
		c2.3,0,4.5,0.1,6.8,0.2l0.7,0l-0.3-0.6c-0.4-0.7-0.8-1.3-1.3-1.9c-0.2-0.2-0.4-0.4-0.6-0.6l-0.3-0.1c-0.8-0.2-1.6-0.4-2.3-0.6
		c0.4-0.2,0.9-0.3,1.3-0.4c-1.2-0.8-2.6-1.2-4-1.4c-0.6-0.5-1-1.3-1.4-2c-0.4-0.8-0.8-1.7-1.1-2.6c-0.6-1.8-1-3.6-1.1-5.4
		c0-0.7,0.2-1.7,0.3-2.6c0.2-0.9,0.4-1.9,0.6-2.8c0.5-1.9,1-3.7,1.6-5.6l1.7-5.6l0.9-2.8l0.2-0.7c0-0.1,0.1-0.3,0.1-0.2
		c0,0,0.1-0.1,0.1-0.2c0.2-0.3,0.5-0.7,0.8-1.1c1.2-1.5,2.4-3.1,3.6-4.7c0.5-0.7,1-1.4,1.5-2.2c0.2-0.4,0.4-0.9,0.5-1.3
		c0.3-0.8,0.6-1.7,0.7-2.5c0,0.7-0.1,1.4-0.3,2.1c0,0,0,0,0-0.1c0.1-0.4,0.3-0.8,0.4-1.3c1.5-1,3-2.1,4.4-3.3c1.6-1.3,3-2.6,4.5-4
		c1.4-1.4,2.8-2.9,4-4.5c1-1.4,2-2.9,2.6-4.6c-0.1,0-0.2-0.1-0.3-0.1C109.7,65.6,108.7,67,107.5,68.3z"/>
	<path class="st3" d="M95.2,79.8c-0.1,0.9-0.4,1.7-0.7,2.5c-0.2,0.4-0.3,0.9-0.5,1.3c-0.2,0.4-0.3,0.8-0.5,1.1
		c-0.7,1.6-1.5,3.2-2.2,4.8c-0.4,0.8-0.8,1.6-1.1,2.4c-0.3,0.8-0.6,1.7-0.9,2.5c-0.6,1.7-1.1,3.4-1.6,5.1c-0.5,1.7-1,3.4-1.3,5.2
		c-0.2,0.9-0.4,1.8-0.5,2.7c-0.1,0.5-0.1,0.9-0.1,1.5c0,0.5,0.1,1,0.1,1.4c0.3,1.8,0.8,3.6,1.4,5.3c0.3,0.9,0.7,1.7,1.2,2.5
		c0.5,0.8,1,1.6,1.9,2.4l0.3,0.2l0.4,0c1.3,0.1,2.5,0.4,3.6,1.1c0.4,0.3,0.9,0.6,1.2,1c-0.8,0-1.5,0.1-2.3,0.1l-1.2,0.1l-1.2,0.2
		c-0.3,0.1-0.7,0.1-1,0.2c-0.4,0.1-0.9,0.2-1.3,0.4c0.8,0.3,1.6,0.5,2.3,0.6l0.3,0.1l0.8,0.2l1.2,0.2c0.8,0.1,1.6,0.2,2.3,0.2
		c0.8,0,1.6,0.1,2.4,0.1l2,0l-0.9-1.6c-0.5-0.8-0.9-1.4-1.5-2c-0.6-0.6-1.2-1.1-1.9-1.6c-1.3-0.8-2.8-1.3-4.3-1.4
		c-0.4-0.4-0.8-0.9-1.2-1.5c-0.4-0.7-0.8-1.4-1.1-2.2c-0.6-1.5-1.1-3.2-1.4-4.8c-0.1-0.4-0.1-0.8-0.1-1.2c0-0.4,0-0.8,0-1.2
		c0.1-0.8,0.2-1.7,0.3-2.5c0.3-1.7,0.7-3.4,1.1-5.1c0.4-1.7,0.8-3.4,1.3-5.1l0.7-2.5c0.2-0.8,0.6-1.6,0.9-2.4c0.7-1.6,1.3-3.3,1.9-5
		c0.3-0.8,0.5-1.7,0.8-2.5c0-0.2,0.1-0.3,0.1-0.5C95.1,81.2,95.3,80.5,95.2,79.8z"/>
	<path class="st3" d="M104.7,41.2c-0.4,0.9-0.7,1.9-0.8,3c0,0,0,0.1,0,0.1c0,0,0.1,0,0.1,0c0.7-0.8,1.3-1.6,1.9-2.3
		c0.6-0.8,1.2-1.5,1.8-2.1c0.6-0.7,1.3-1.2,2.1-1.8c0.4-0.3,0.9-0.5,1.3-0.7c0.2-0.1,0.5-0.2,0.7-0.3c-0.4,0.7-0.7,1.3-1.1,1.9
		c-0.1,0.3-0.1,0.5-0.1,0.8c0,0.6,0,1.2,0.2,1.8c0.1,0.6,0.3,1.1,0.7,1.6c0,0,0,0,0.1,0c0,0,0.1,0,0.1-0.1l0,0
		c0.1-0.5,0.1-1,0.2-1.5c0,0,0,0-0.1-0.1l0,0c0,0,0-0.1,0-0.1c0,0,0.1,0,0.1,0c0,0,0,0,0,0c0-0.2,0-0.3,0.1-0.5
		c-0.1,0.1-0.2,0.1-0.3,0.2c0.1-0.2,0.3-0.4,0.4-0.5c0-0.2,0-0.4,0.1-0.6c0.1-0.5,0.2-1,0.2-1.5c0.1-0.5,0.2-1,0.4-1.5L113,36
		l-0.7,0.3c-0.9,0.4-1.9,0.5-3,0.7c-1.1,0.2-2,0.8-2.8,1.5c-0.4,0.3-0.7,0.6-0.9,1c-0.1,0.1-0.2,0.3-0.3,0.4
		C105.1,40.4,104.9,40.8,104.7,41.2z"/>
	<path class="st3" d="M107.9,40.8c-0.4,0.8-0.7,1.8-0.8,2.7c-0.1,0.9,0,1.9,0.5,2.8c0.2-0.9,0.4-1.7,0.7-2.5c0.3-0.8,0.6-1.5,1-2.3
		c0.4-0.8,0.8-1.5,1.2-2.3c0.1-0.1,0.2-0.3,0.2-0.4c0.3-0.6,0.7-1.3,1.1-1.9c-0.2,0.1-0.5,0.2-0.7,0.3c-0.6,0.3-1.1,0.8-1.6,1.3
		C108.9,39.2,108.4,40,107.9,40.8z"/>
	<path class="st3" d="M127.4,60.4l-0.8-0.7c-2-1.9-4.3-3.5-6.1-5.5c-0.2-0.3-0.3-0.5-0.3-0.8l-0.1-1c0-0.7-0.1-1.4-0.2-2.1
		c-0.1-0.7-0.2-1.4-0.4-2.1c-0.1-0.3-0.2-0.7-0.4-1c-0.2-0.4-0.4-0.7-0.6-1c-0.9-1.2-2-2.1-3.1-2.9c-0.2-0.1-0.3-0.2-0.5-0.3
		c-0.1,0.1-0.1,0.1-0.2,0.2c0-0.1,0-0.2,0.1-0.3c-0.4-0.3-0.8-0.5-1.2-0.7c-0.6-0.3-1.2-0.7-1.9-0.8c0,0,0,0,0,0c0,0-0.1,0-0.1,0
		c0,0,0,0.1,0,0.1l0,0c0,0,0,0,0.1,0.1c1.1,0.8,2,1.7,3,2.6c0.5,0.5,1,0.9,1.4,1.4c0.5,0.5,0.9,1,1.3,1.5c0.2,0.3,0.4,0.5,0.5,0.7
		c0.1,0.3,0.3,0.6,0.4,0.9c0.3,0.6,0.5,1.2,0.7,1.9c0.2,0.6,0.4,1.3,0.5,2c0.1,0.3,0.1,0.7,0.2,1c0,0.4,0.2,0.8,0.4,1.1
		c0.2,0.3,0.5,0.5,0.7,0.8c0.2,0.2,0.5,0.5,0.7,0.8l1.4,1.6c0.7,0.8,1.4,1.6,2.1,2.4c0.1,0,0.2-0.1,0.3-0.1c0.8,0,1.4,0.6,1.4,1.4
		s-0.6,1.4-1.4,1.4c-0.1,0-0.3,0-0.5-0.1c-0.5,0.3-0.9,0.5-1.4,0.8c-0.5,0.3-1,0.5-1.5,0.7c-1.2-0.4-2.4-0.9-3.6-1.4l-2-0.8
		c-0.7-0.2-1.3-0.5-2-0.7c0,0-0.1,0-0.1,0c0,0,0,0.1,0,0.1c0.6,0.4,1.2,0.8,1.8,1.2c0.6,0.4,1.2,0.7,1.8,1.1c0.6,0.4,1.2,0.7,1.9,1
		c0.4,0.2,0.8,0.4,1.3,0.6c0.2-0.1,0.3-0.2,0.5-0.4c-0.1,0.2-0.2,0.3-0.2,0.5c0.2,0.1,0.3,0.1,0.5,0.2l0.2,0.1l0.3-0.1
		c1.5-0.5,2.7-1.2,3.9-1.9l0.9-0.6l0.2-0.1c0.1-0.1,0.2-0.2,0.3-0.3c0.2-0.2,0.4-0.5,0.4-0.8C128.1,61.4,127.8,60.8,127.4,60.4z"/>
	<path class="st3" d="M121,65.4c-0.2,0.2-0.4,0.3-0.6,0.5c-0.1,0.1-0.2,0.1-0.3,0.2c0,0,0,0,0,0l-0.6-0.3c-0.8-0.4-1.7-0.7-2.6-1
		c-1.7-0.6-3.5-1.2-5.2-1.6c-0.9-0.2-1.7-0.5-2.6-0.9l-1.8-0.7c0.6,0.4,1.2,0.8,1.7,1.2c-0.9-0.2-1.7-0.4-2.6-0.6
		c1.3,0.7,2.6,1.3,4,1.9c0.1,0,0.2,0.1,0.3,0.1c0.2,0.1,0.3,0.2,0.5,0.2c1.7,0.7,3.5,1.2,5.2,1.7c0.9,0.2,1.8,0.4,2.7,0.6l0.7,0.1
		c0.2,0,0.4-0.1,0.5-0.1c0.1-0.1,0.1-0.1,0.2-0.2c0.1-0.1,0.2-0.2,0.2-0.3c0.2-0.2,0.3-0.5,0.4-0.8c0.1-0.2,0.2-0.3,0.2-0.5
		C121.3,65.2,121.2,65.3,121,65.4z M120.1,66.1C120.1,66.1,120,66.1,120.1,66.1C120,66.1,120,66.1,120.1,66.1z"/>
	<path class="st3" d="M102,58.9c0-0.7-0.1-1.4-0.1-2.1c0-0.4-0.1-0.9-0.2-1.3c-0.1-0.4-0.2-0.9-0.3-1.3c-0.2,0.4-0.3,0.9-0.4,1.3
		c-0.1,0.4-0.2,0.9-0.3,1.3c-0.1,0.9-0.2,1.7-0.2,2.6l0,0.5l0.5,0.2c1.3,0.6,2.7,1.1,4,1.6c0.6,0.2,1.1,0.4,1.7,0.5
		c0.8,0.2,1.7,0.5,2.6,0.6c-0.6-0.4-1.1-0.8-1.7-1.2c-0.6-0.4-1.3-0.8-2-1.1C104.3,59.9,103.1,59.4,102,58.9z"/>
	<path class="st3" d="M111.9,40.7c0.9-0.4,1.7-0.9,2.4-1.3c0.4-0.3,0.9-0.6,1.3-0.8c0.1-0.1,0.2-0.1,0.4-0.2c0,0.1,0,0.1,0,0.2
		c-0.1,0.5-0.2,0.9-0.4,1.4c-0.2,0.9-0.5,1.8-0.6,2.8c0,0.1,0,0.2-0.1,0.3c0.1-0.1,0.1-0.1,0.2-0.2c0.7-0.7,1.2-1.5,1.7-2.4
		c0.3-0.5,0.5-1,0.7-1.5c0.1-0.3,0.2-0.5,0.2-0.9c0-0.2,0-0.3,0-0.6c0-0.1,0-0.1-0.1-0.2c0-0.1-0.1-0.2-0.1-0.3
		c-0.1-0.1-0.2-0.2-0.3-0.3c-0.1-0.1-0.2-0.1-0.3-0.1c-0.4-0.1-0.6,0-0.8,0.1c-0.2,0.1-0.3,0.1-0.5,0.2c-0.3,0.2-0.5,0.3-0.7,0.5
		c-0.4,0.3-0.8,0.7-1.2,1.1c-0.6,0.6-1.1,1.2-1.6,1.9c-0.1,0.2-0.3,0.3-0.4,0.5C111.7,40.8,111.8,40.8,111.9,40.7z"/>
	<path class="st4" d="M16,88.7c-2-0.7-5.5,0.2-5.5,5.6c-0.1,5.5-6.8,13.1-8.6,9.9C1,107.8,3,115.7,5.1,116.8c2-3.4,6.4-7.6,8.6-14.3
		c2.2-6.8,2.7-12.2,2.7-12.2L16,88.7z"/>
	<path class="st3" d="M115.1,52.4c0.6,0.4,1.6,0.5,1.6,0.5s0-1.7-0.6-2.1c-0.6-0.4-2.1,0.4-2.1,0.4S114.5,52,115.1,52.4z"/>
	<path class="st3" d="M123.9,61.4c-0.9,0.4,0.1,1.1,0.9,1.3c0.2,0.1,0.4,0.1,0.5,0.1c0.8,0,1.4-0.6,1.4-1.4s-0.6-1.4-1.4-1.4
		c-0.1,0-0.2,0-0.3,0.1C124.7,60.2,124.8,61,123.9,61.4z"/>
	<path class="st4" d="M95.4,56.8c-5.2-0.4-6.4-2.5-14.3,5.9s-15.6,8.5-23.9,9.8c-8.3,1.3-11.1-7-21.7-12.1
		c-10.6-5.2-18.3,0.8-23,3.4l-0.1-0.1c0.8-1,1.7-1.9,2.7-2.7c1.1-0.9,2.2-1.7,3.4-2.4c0.6-0.4,1.2-0.7,1.8-1
		c0.3-0.1,0.6-0.3,0.9-0.4c0.3-0.1,0.7-0.2,0.8-0.2h0.1c1.2-0.3,2.1-0.6,3.2-0.9c1-0.3,2.1-0.6,3.1-0.9c2.1-0.6,4.2-1,6.3-1.1
		l12.9,0.4l6.5,0.3l3.2,0.2c1.1,0.1,2.2,0.1,3.3,0c2.2-0.1,4.3-0.3,6.5-0.5c2.1-0.2,4.3-0.6,6.3-0.7l0.3,0l0.2-0.1
		c1.2-0.8,2.5-1.5,3.7-2.1c0.6-0.3,1.3-0.5,1.9-0.7c0.3-0.1,0.7-0.2,1-0.2l1.1-0.2c1.5-0.3,3-0.7,4.4-1.1c1.4-0.4,2.9-0.9,4.3-1.5
		c1.4-0.6,4.3-1.7,4.9-2.1C91.4,49.5,94.1,54.5,95.4,56.8z"/>
	<path class="st3" d="M15.8,91.1c-0.1,1.8-0.4,3.7-0.9,5.4c-0.6,2.4-1.4,4.8-2.4,7.1c-1,2.3-2.1,4.5-3.4,6.6c-0.7,1.1-1.4,2.1-2.1,3
		c-0.5,0.7-1.1,1.3-1.7,1.9c-0.5-0.8-0.9-1.8-1.3-2.7c-0.5-1.3-0.9-2.6-1.1-3.9c-0.5-2.7-0.7-5.5-0.2-8.1c0.2-1.3,0.6-2.5,1.2-3.7
		c0.7-1.4,1.2-2.8,1.6-4.2c0.8-2.8,1.3-5.7,1.8-8.5l1.3-8.5c0.5-2.8,0.9-5.6,1.7-8.2c0.8-2.5,2.7-4.6,4.8-6.3
		c1.1-0.9,2.2-1.7,3.4-2.4c0.6-0.3,1.2-0.7,1.8-1c0.3-0.1,0.6-0.3,0.9-0.4c0.3-0.1,0.6-0.2,0.8-0.2l0.1,0l0,0
		c1.2-0.3,2.1-0.6,3.2-0.9c1-0.3,2.1-0.6,3.1-0.9c2.1-0.6,4.2-1,6.3-1.1l12.9,0.4l6.5,0.3l3.2,0.2c1.1,0.1,2.2,0,3.3,0
		c2.2-0.1,4.4-0.3,6.5-0.5c2.1-0.2,4.3-0.6,6.3-0.7l0.3,0l0.2-0.1c1.2-0.8,2.5-1.5,3.7-2.1c0.6-0.3,1.3-0.5,1.9-0.7
		c0.3-0.1,0.7-0.2,1-0.2l1.1-0.2c1.5-0.3,3-0.7,4.4-1.1c1.4-0.4,2.9-0.9,4.2-1.5c1.4-0.6,2.8-1.2,4.1-1.9l1-0.6
		c0.3-0.2,0.6-0.4,1-0.6c0.7-0.5,1.2-0.9,1.8-1.3c2.1-1.5,4.6-2.6,7.1-3.5c0.1-0.1,0.2-0.3,0.3-0.4c-1.3,0.3-2.6,0.6-3.9,1.1
		c-1.4,0.5-2.8,1.1-4.1,1.9c-0.3,0.2-0.6,0.4-1,0.6l-0.9,0.6l-0.9,0.5l-1,0.5c-1.3,0.6-2.7,1.1-4,1.6c-2.8,0.9-5.6,1.8-8.4,2.2
		l-1.1,0.2c-0.4,0.1-0.8,0.2-1.2,0.3c-0.8,0.2-1.5,0.5-2.2,0.8c-1.3,0.6-2.6,1.3-3.8,2c-1.1,0.1-2,0.2-3,0.3
		c-1.1,0.1-2.1,0.3-3.2,0.4c-2.1,0.3-4.2,0.6-6.4,0.8c-1.1,0.1-2.1,0.2-3.1,0.2l-3.2,0l-6.5,0.1c-2.2,0-4.3,0-6.5,0
		c-1.1,0-2.1,0-3.2-0.1c-0.5,0-1.1-0.1-1.6-0.1c-0.5,0-1.1-0.1-1.7,0c-2.2,0.1-4.3,0.5-6.5,1c-1.1,0.2-2.1,0.5-3.2,0.7
		c-1,0.2-2.1,0.6-3,0.7c-0.5,0-0.8,0.1-1.2,0.2c-0.4,0.1-0.7,0.2-1.1,0.4c-0.7,0.3-1.4,0.6-2,0.9c-1.3,0.7-2.6,1.5-3.8,2.4
		c-1.2,0.9-2.3,1.9-3.3,3.1c-1,1.1-1.8,2.5-2.4,3.9c-0.5,1.4-0.9,2.8-1.2,4.3c-0.3,1.4-0.6,2.8-0.9,4.2l-1.5,8.4
		c-0.5,2.8-1,5.6-1.8,8.2c-0.4,1.3-0.8,2.6-1.4,3.8c-0.7,1.4-1.2,2.9-1.4,4.4c-0.5,3-0.2,6,0.5,8.9c0.3,1.4,0.8,2.9,1.4,4.2
		c0.6,1.4,1.3,2.7,2.3,4l0.6,0.8l0.7-0.6c1.1-0.9,1.9-1.9,2.7-3c0.8-1.1,1.4-2.2,2.1-3.3c1.3-2.3,2.3-4.6,3.2-7
		c0.9-2.4,1.6-4.9,2-7.4c0.2-1.3,0.4-2.6,0.5-3.8c-0.1-0.2-0.1-0.5-0.2-0.7C15.9,91.8,15.9,91.5,15.8,91.1z"/>
	<path class="st3" d="M20.2,108.6c0-0.1,0-0.1,0-0.2c0,0,0.1,0,0.1,0c0.6,0.4,1.1,1,1.5,1.5c0.9-2.1,1.7-4.1,2.6-6
		c0.5-1,1-2,1.6-2.9l2-2.9c2.6-3.9,5.2-7.8,7.3-12.1c0.2-0.6,0.5-1.1,0.7-1.7c-0.2-0.2-0.4-0.4-0.7-0.5c0.3,0.1,0.5,0.2,0.7,0.3
		c0.2-0.5,0.3-1.1,0.4-1.7c0.1-1.2,0-2.4-0.2-3.6c-0.2-1.2-0.4-2.3-0.7-3.5c-0.3-1.1-0.6-2.3-1.1-3.4c0,0-0.1-0.1-0.1-0.1
		c-0.1,0-0.1,0.1-0.1,0.1l0,0c0.6,2.2,0.9,4.6,0.9,6.8c0,1.1,0,2.3-0.1,3.4c-0.2,0.9-0.7,2-1.3,3c-1.1,2-2.4,3.9-3.7,5.8
		c-1.3,1.9-2.7,3.8-4,5.7L24,99.6c-0.7,1-1.4,2.1-1.9,3.2c-1.1,2.2-1.9,4.4-2.7,6.6l-0.6,1.6c-0.2,0.6-0.4,1.2-0.6,1.8
		c-0.3,1.2-0.4,2.5-0.4,3.7c0,2.4,0.3,4.7,0.1,6.9l-0.1,1l1,0.1c0.6,0,1.2,0.1,1.8,0.2c0.6,0.1,1.1,0.4,1.7,0.6
		c0.5,0.3,1.1,0.6,1.5,1c0.1,0,0.1,0.1,0.2,0.2l-4,0.1c-1.8,0.1-3.6,0.1-5.3,0.1c-0.2-1.5-0.3-2.9-0.4-4.4c-0.1-1.6-0.2-3.2-0.3-4.7
		c-0.1-1.6-0.1-3.2,0-4.7c0-1.5,0.1-3,0.3-4.4c0.8-0.9,1.5-1.9,2.1-3c0.6-1.1,1-2.4,1.4-3.6c0.3-1.2,0.5-2.5,0.7-3.7
		c0.2-1.2,0.2-2.5,0.3-3.7l0-0.2L18.7,94c-0.3-0.7-0.5-1.5-0.7-2.3c-0.2-0.8-0.4-1.6-0.6-2.5c-0.4-1.7-0.7-3.4-1-5
		c-0.3-1.7-0.6-3.4-0.9-5.1c-0.3-1.7-0.6-3.4-0.5-5.1l0,0c0-0.1,0-0.1-0.1-0.1c-0.1,0-0.1,0-0.1,0.1c-0.2,0.9-0.3,1.8-0.3,2.6
		c0,0.9,0,1.7,0,2.6c0.1,1.7,0.2,3.5,0.4,5.2c0.2,1.7,0.4,3.5,0.7,5.2c0.1,0.5,0.2,1,0.3,1.6c0.1,0.3,0.1,0.7,0.2,1
		c0.1,0.2,0.1,0.5,0.2,0.7c0.1,0.5,0.3,1.1,0.5,1.7c-0.1,1.1-0.2,2.3-0.3,3.4c-0.1,1.2-0.3,2.3-0.6,3.5c-0.3,1.1-0.6,2.2-1.1,3.3
		c-0.5,1.1-1,2.1-1.7,3l-0.2,0.2l0,0.2c-0.2,1.7-0.1,3.3,0,4.9l0.4,4.8l0.4,4.7l0.4,4.7l0,0.3l0.4,0c1.9,0,3.8,0.1,5.7,0.2l5.7,0.2
		l1.5,0.1l-0.9-1.2c-0.5-0.6-0.9-1.1-1.4-1.6c-0.5-0.5-1.1-0.9-1.7-1.3c-0.6-0.4-1.3-0.7-2-0.9c-0.4-0.1-0.8-0.2-1.2-0.3
		c0.2-2.1,0-4.2,0.1-6.1c0-1.1,0.2-2.2,0.5-3.2c0.1-0.5,0.3-1,0.5-1.5l0.4-0.9C21.1,110.1,20.7,109.3,20.2,108.6L20.2,108.6z"/>
</g>
</svg>
