<?xml version="1.0" encoding="utf-8"?>
<!-- Generator: Adobe Illustrator 18.1.0, SVG Export Plug-In . SVG Version: 6.00 Build 0)  -->
<svg version="1.1" baseProfile="tiny" id="Layer_1" xmlns="http://www.w3.org/2000/svg" xmlns:xlink="http://www.w3.org/1999/xlink"
	 x="0px" y="0px" viewBox="0 0 162 128" 
width="162" height="128"
xml:space="preserve">
<g>
	<path fill="#62B257" d="M72.7,43.6V80H62.2V57.1c0-0.9-0.7-1.6-1.6-1.6h-2.8c-0.9,0-1.5,0.7-1.5,1.6v20.6c0,1.1-0.8,2.1-1.8,2.3
		c-0.2,0-0.3,0.1-0.5,0.1c-0.2,0-0.3,0-0.5-0.1c-1-0.2-1.8-1.2-1.8-2.3V51.2c0-4.2,3.4-7.6,7.5-7.6H72.7z"/>
	<path fill="#FFE1B2" d="M135.1,21.9c5.5,0,9.9-4.5,9.9-9.9S140.6,2,135.1,2c-5.5,0-9.9,4.5-9.9,9.9S129.7,21.9,135.1,21.9z"/>
	<path fill="#62B257" d="M135.5,29V72h-12.9V45c0-0.9-0.7-1.6-1.6-1.6h-3.3c-0.9,0-1.6,0.7-1.6,1.6v24.2c0,1.4-1,2.6-2.3,2.8
		c-0.2,0-0.4,0.1-0.6,0.1c-0.2,0-0.4,0-0.6-0.1c-1.3-0.3-2.3-1.4-2.3-2.8V38.1c0-5,4-9.1,9-9.1H135.5z"/>
	<path fill="#FFE1B2" d="M72.7,37.2c4.6,0,8.3-3.7,8.3-8.3s-3.7-8.3-8.3-8.3c-4.6,0-8.3,3.7-8.3,8.3S68.1,37.2,72.7,37.2z"/>
	<path fill="#2D2D2D" d="M113.1,74.1c2.7,0,4.9-2.2,4.9-4.9V45.3h2.6v76.1c0,3.6,2.9,6.5,6.5,6.5c3.6,0,6.5-2.9,6.5-6.5l1.3-42.8
		h1.3l1.2,43.1c0,3.4,2.8,6.2,6.2,6.2c3.4,0,6.2-2.8,6.2-6.2V45.3h2.5v23.8c0,2.7,2.2,4.9,4.9,4.9c2.7,0,4.9-2.2,4.9-4.9V38.1
		c0-6.1-4.9-11.1-11-11.1h-31.7c-6.1,0-11,5-11,11.1v31.1C108.3,71.9,110.4,74.1,113.1,74.1z M110.3,38.1c0-5,4-9.1,9-9.1H151
		c5,0,9,4.1,9,9.1v31.1c0,1.6-1.3,3-2.9,3c-1.6,0-2.9-1.3-2.9-3V45c0-0.9-0.7-1.6-1.6-1.6h-3.2c-0.9,0-1.6,0.7-1.6,1.6v76.8
		c0,2.3-1.9,4.2-4.2,4.2c-2.3,0-4.2-1.9-4.2-4.3l-1.2-43.4c0-0.9-0.7-1.6-1.6-1.6h-2c-0.9,0-1.6,0.7-1.6,1.6l-1.3,43.2
		c0,2.5-2,4.6-4.5,4.6s-4.5-2-4.5-4.6V45c0-0.9-0.7-1.6-1.6-1.6h-3.3c-0.9,0-1.6,0.7-1.6,1.6v24.2c0,1.6-1.3,2.9-2.9,2.9
		c-1.6,0-2.9-1.3-2.9-2.9V38.1z"/>
	<path fill="#2D2D2D" d="M135.1,23.8c6.6,0,11.9-5.3,11.9-11.9S141.7,0,135.1,0c-6.6,0-11.9,5.3-11.9,11.9S128.6,23.8,135.1,23.8z
		 M135.1,2c5.5,0,9.9,4.5,9.9,9.9s-4.5,9.9-9.9,9.9c-5.5,0-9.9-4.5-9.9-9.9S129.7,2,135.1,2z"/>
	<path fill="#2D2D2D" d="M54,82c2.4,0,4.3-1.9,4.3-4.3V57.5h1.9v64.8c0,3.2,2.5,5.7,5.7,5.7c3.1,0,5.7-2.6,5.7-5.7l1.1-36.4h0.8
		l1,36.6c0,3,2.4,5.5,5.4,5.5c3,0,5.4-2.4,5.4-5.5v-65h1.8v20.2c0,2.4,1.9,4.4,4.3,4.4c2.4,0,4.3-2,4.3-4.4V51.2
		c0-5.3-4.3-9.6-9.5-9.6h-27c-5.3,0-9.5,4.3-9.5,9.6v26.5C49.7,80.1,51.6,82,54,82z M51.7,51.2c0-4.2,3.4-7.6,7.5-7.6h27
		c4.2,0,7.5,3.4,7.5,7.6v26.5c0,1.3-1,2.4-2.3,2.4c-1.3,0-2.3-1.1-2.3-2.4V57.1c0-0.9-0.7-1.6-1.5-1.6h-2.7c-0.9,0-1.5,0.7-1.5,1.6
		v65.5c0,1.9-1.5,3.5-3.4,3.5c-1.9,0-3.4-1.6-3.4-3.5l-1-37c0-0.9-0.7-1.6-1.5-1.6h-1.7c-0.9,0-1.5,0.7-1.5,1.5l-1.1,36.8
		c0,2.1-1.7,3.7-3.7,3.7c-2,0-3.7-1.7-3.7-3.7V57.1c0-0.9-0.7-1.6-1.5-1.6h-2.8c-0.9,0-1.5,0.7-1.5,1.6v20.7c0,1.3-1,2.3-2.3,2.3
		c-1.3,0-2.3-1-2.3-2.3V51.2z"/>
	<path fill="#2D2D2D" d="M72.7,39.2c5.7,0,10.3-4.6,10.3-10.3c0-5.7-4.6-10.3-10.3-10.3c-5.7,0-10.3,4.6-10.3,10.3
		C62.4,34.6,67.1,39.2,72.7,39.2z M72.7,20.6c4.6,0,8.3,3.7,8.3,8.3s-3.7,8.3-8.3,8.3c-4.6,0-8.3-3.7-8.3-8.3S68.1,20.6,72.7,20.6z"
		/>
	<path fill="#2D2D2D" d="M3.6,91.9c2,0,3.6-1.6,3.6-3.6V72.6h1.1v50.6c0,2.6,2.1,4.7,4.7,4.7c2.6,0,4.7-2.1,4.7-4.7L18.4,95h0.2
		l0.8,28.5c0,2.5,2,4.5,4.5,4.5s4.5-2,4.5-4.5V72.6h1v15.6c0,2,1.6,3.6,3.6,3.6c2,0,3.6-1.6,3.6-3.6V67.5c0-4.3-3.5-7.8-7.7-7.8H7.7
		c-4.2,0-7.7,3.5-7.7,7.8v20.8C0,90.3,1.6,91.9,3.6,91.9z"/>
	<path fill="#2D2D2D" d="M18.3,58.3c4.6,0,8.3-3.7,8.3-8.3c0-4.6-3.7-8.3-8.3-8.3c-4.6,0-8.3,3.7-8.3,8.3
		C10,54.5,13.7,58.3,18.3,58.3z"/>
	<path fill="#54A74B" d="M93.8,51.2v26.5c0,1.3-1,2.4-2.3,2.4c-1.3,0-2.3-1.1-2.3-2.4V57.1c0-0.9-0.7-1.6-1.6-1.6h-2.7
		c-0.9,0-1.5,0.7-1.5,1.6V80H72.7V43.6h13.5C90.4,43.6,93.8,47,93.8,51.2z"/>
	<path fill="#54A74B" d="M160,38.1v31.1c0,1.6-1.3,3-2.9,3c-1.6,0-2.9-1.3-2.9-3V45c0-0.9-0.7-1.6-1.6-1.6h-3.2
		c-0.9,0-1.6,0.7-1.6,1.6V72h-12.3V29H151C156,29,160,33.1,160,38.1z"/>
	<path fill="#5094CC" d="M72.7,80v3.9h-0.5c-0.9,0-1.6,0.7-1.6,1.5l-1.1,36.8c0,2.1-1.7,3.7-3.7,3.7s-3.7-1.7-3.7-3.7V80H72.7z"/>
	<path fill="#3E80AD" d="M83.3,80v42.5c0,1.9-1.5,3.5-3.4,3.5c-1.9,0-3.4-1.6-3.4-3.5l-1-37c0-0.9-0.7-1.6-1.5-1.6h-1.2V80H83.3z"/>
	<path fill="#5094CC" d="M135.5,72v4.6h-0.9c-0.9,0-1.6,0.7-1.6,1.6l-1.3,43.2c0,2.5-2,4.6-4.5,4.6c-2.5,0-4.5-2.1-4.5-4.6V72H135.5
		z"/>
	<path fill="#3E80AD" d="M147.7,72v49.7c0,2.3-1.9,4.2-4.2,4.2c-2.3,0-4.2-1.9-4.2-4.3l-1.2-43.4c0-0.9-0.7-1.6-1.6-1.6h-1.1V72
		H147.7z"/>
</g>
</svg>
