<?xml version="1.0" encoding="utf-8"?>
<!-- Generator: Adobe Illustrator 24.1.2, SVG Export Plug-In . SVG Version: 6.00 Build 0)  -->
<svg version="1.1" id="Layer_1" xmlns="http://www.w3.org/2000/svg" xmlns:xlink="http://www.w3.org/1999/xlink" x="0px" y="0px"
	 viewBox="0 0 128 128" style="enable-background:new 0 0 128 128;" xml:space="preserve">
<style type="text/css">
	.st0{fill:#2D2D2D;}
</style>
<g>
	<path class="st0" d="M126.01,109.08c-0.55-0.4-1.19-0.71-1.85-0.97c-1.32-0.53-2.72-0.89-4.13-1.17c-2.83-0.56-5.74-0.66-8.61-0.9
		c-2.87-0.24-5.74-0.56-8.61-0.89c-2.67-0.32-5.34-0.64-8.01-1.07c-0.14,1.01-0.24,2.02-0.22,3.03c0,1.08,0.1,2.17,0.23,3.25
		c0.13,1.08,0.28,2.17,0.33,3.25c0.06,0.99,0.1,1.99,0.14,2.98c5.39-0.77,10.77-1.37,16.12-2.08c2.85-0.36,5.71-0.71,8.51-1.23
		c1.4-0.27,2.78-0.58,4.11-1c0.66-0.21,1.31-0.45,1.87-0.76c0.57-0.3,1.03-0.72,1.06-1.13C127,110,126.57,109.45,126.01,109.08z"/>
	<path class="st0" d="M41.53,122.93c1.81-0.02,3.63,0.01,5.44,0.1c1.19,0.05,2.37,0.12,3.56,0.21c-0.38-5.93-0.68-11.86-0.89-17.79
		C49.42,99.3,49.24,93.15,49.14,87c-0.1-6.15,0-12.3,0.03-18.45c0.08-6.11,0.01-11.76-0.15-17.86c-0.71,0-1.21-0.02-1.82,0.11
		c-0.61,0.14-4.3,0.17-5.53,0.09c-1.23-0.08-2.46-0.18-3.69-0.29c-1.16-0.12-2.22-0.04-3.48-0.04c0.01,6.11-0.09,11.89-0.13,18
		c-0.04,6.15-0.17,12.3-0.34,18.45c-0.17,6.15-0.4,12.29-0.62,18.44l-0.41,9.22c-0.16,2.87-0.3,5.75-0.48,8.62
		c1.19-0.09,2.38-0.17,3.56-0.2C37.9,123.02,39.71,122.95,41.53,122.93z"/>
	<path class="st0" d="M37.98,49.65c1.23-0.11,2.46-0.21,3.69-0.29c1.23-0.08,6.6,0.15,7.15,0.06c-0.39-1.59-0.59-2.59-0.99-4.17
		l-12.35,0.28c-0.3,1.5-0.55,2.6-0.86,4.1C35.83,49.62,36.84,49.77,37.98,49.65z"/>
	<path class="st0" d="M46.97,124.87c-1.81,0.09-3.63,0.12-5.44,0.1c-1.81-0.02-3.63-0.09-5.44-0.15c-1.65-0.05-3.3-0.17-4.95-0.31
		c-0.08,1.09-0.15,2.17-0.17,3.26c1.69,0.03,3.39-0.05,5.03-0.21c1.75-0.17,3.45-0.31,5.21-0.29c1.76,0.03,3.54,0.11,5.38,0.23
		c1.84,0.12,3.73,0.28,5.76,0.5c-0.14-1.27-0.31-2.38-0.44-3.44C50.26,124.69,48.61,124.8,46.97,124.87z"/>
	<path class="st0" d="M47.23,39.02c-0.06-0.88-0.13-1.77-0.16-2.65c-0.02-0.57-0.02-1.13-0.02-1.7c-0.74-0.03-1.49-0.06-2.23-0.11
		c-1.08-0.05-2.17-0.2-3.25-0.33c-1.08-0.14-2.17-0.23-3.25-0.23c-0.88-0.02-1.77,0.06-2.65,0.17c0.1,0.73,0.2,1.46,0.24,2.19
		c0.05,0.88,0.01,1.77-0.03,2.65c-0.04,0.88-0.13,1.77-0.23,2.65c-0.11,0.83-0.25,1.67-0.45,2.5l12.89,0.29
		C47.71,42.76,47.36,40.65,47.23,39.02z"/>
	<path class="st0" d="M32.12,114.65l-0.08-9.23c0-1.2,0-2.41,0-3.61c-2.23,0.1-4.47,0.16-6.7,0.24l-7.08,0.16
		c-2.36,0.04-4.72,0.25-7.08,0.06c-2.15-0.16-4.24-0.12-6.39-0.08c0.09,1.16,0.1,1.53,0.13,2.69c0.06,1.81,0.13,3.63,0.15,5.44
		c0.02,1.81-0.01,3.63-0.1,5.44c-0.05,1.18-0.12,1.88-0.2,3.07c2.15,0,4.25,0.18,6.37,0.02l7.02-0.41c2.34-0.13,4.68-0.42,7.02-0.32
		c2.33,0.09,4.65,0.08,7.01,0.08C32.16,116.8,32.14,116.05,32.12,114.65z"/>
	<path class="st0" d="M3.49,99.93c-1.09-0.08-2.17-0.15-3.26-0.17c-0.03,1.69,0.05,3.39,0.21,5.03c0.17,1.75,0.31,3.45,0.29,5.21
		c-0.03,1.76-0.11,3.54-0.23,5.38c-0.12,1.84-0.28,3.73-0.5,5.76c1.27-0.14,2.38-0.31,3.44-0.44c-0.13-1.64-0.24-3.29-0.31-4.93
		c-0.09-1.81-0.12-3.63-0.1-5.44c0.02-1.81,0.09-3.63,0.15-5.44C3.23,103.23,3.35,101.58,3.49,99.93z"/>
	<path class="st0" d="M41.57,33.19c1.08-0.13,2.17-0.28,3.25-0.33c0.99-0.06,1.99-0.1,2.98-0.14c-0.77-5.39-1.37-10.77-2.08-16.12
		c-0.36-2.85-0.71-5.71-1.23-8.51c-0.27-1.4-0.58-2.78-1-4.11c-0.21-0.66-0.45-1.31-0.76-1.87c-0.3-0.57-0.72-1.03-1.13-1.06
		C41.21,1,40.66,1.43,40.29,1.99c-0.4,0.55-0.71,1.19-0.97,1.85c-0.53,1.32-0.89,2.72-1.17,4.13c-0.56,2.83-0.66,5.74-0.9,8.61
		c-0.24,2.87-0.56,5.74-0.89,8.61c-0.32,2.67-0.64,5.34-1.07,8.01c1.01,0.14,2.02,0.24,3.03,0.22
		C39.4,33.43,40.48,33.33,41.57,33.19z"/>
	<path class="st0" d="M91.63,104.69c-0.88,0.05-1.77,0.01-2.65-0.03c-0.88-0.04-1.77-0.13-2.65-0.23c-0.79-0.11-1.58-0.24-2.38-0.43
		c-0.07,2.1-0.19,4.21-0.3,6.31c-0.12,2.15-0.2,4.3-0.21,6.45c1.72-0.34,3.95-0.62,5.53-0.75c0.88-0.06,1.77-0.13,2.65-0.16
		c0.57-0.02,1.13-0.02,1.7-0.02c0.03-0.74,0.06-1.49,0.11-2.23c0.05-1.08,0.2-2.17,0.33-3.25c0.14-1.08,0.24-2.17,0.23-3.25
		c0.02-0.88-0.06-1.77-0.17-2.65C93.09,104.56,92.36,104.66,91.63,104.69z"/>
	<path class="st0" d="M82.36,104.39l-4.12-0.84c0,1.08,0,2.13,0.12,3.22c0.11,1.23,0.21,2.46,0.29,3.69
		c0.08,1.23,0.03,6.47,0.03,7.07c0.81-0.15,0.98-0.14,1.78-0.31c0.8-0.17,1.6-0.34,2.39-0.53c-0.01-2.12-0.09-4.25-0.21-6.37
		C82.54,108.34,82.43,106.37,82.36,104.39z"/>
	<path class="st0" d="M71.03,103.42c-2.29-0.06-4.57-0.13-6.86-0.25c-2.29-0.1-4.57-0.25-6.85-0.41c-2.1-0.16-4.22-0.15-6.31-0.15
		c0,1.08,0.01,1.73,0.01,2.81c0.01,4.35-0.06,8.08-0.15,12.43c2.22,0,4.87,0.17,6.96,0.02c2.23-0.15,4.46-0.27,6.68-0.34
		c2.23-0.08,4.46-0.12,6.69-0.07c2.18,0.05,3.73,0.13,5.91,0.19c0-0.62-0.08-5.96,0-7.19c0.08-1.23,0.36-5.88,0.36-7
		C75.24,103.47,73.26,103.46,71.03,103.42z"/>
	<rect x="77.66" y="15.67" class="st0" width="3.73" height="3.7"/>
	<path class="st0" d="M90.73,19.78c2.01,0,3.64-0.58,4.9-1.73c1.26-1.15,1.89-2.64,1.89-4.47c0-1.15-0.31-2.12-0.93-2.92
		c-0.62-0.79-1.47-1.33-2.55-1.6c0.82-0.27,1.48-0.76,1.96-1.47c0.48-0.7,0.73-1.52,0.73-2.45c0-1.53-0.55-2.78-1.64-3.73
		C93.99,0.47,92.56,0,90.79,0c-1.88,0-3.38,0.57-4.49,1.7c-1.11,1.13-1.7,2.69-1.75,4.66h2.99c0.09-2.52,1.16-3.78,3.21-3.78
		c0.89,0,1.61,0.26,2.14,0.77c0.53,0.51,0.79,1.19,0.79,2.03c0,0.59-0.11,1.07-0.33,1.47c-0.22,0.39-0.53,0.68-0.95,0.85
		c-0.41,0.17-0.82,0.29-1.22,0.36c-0.4,0.06-0.89,0.1-1.45,0.1h-0.27v2.36c0.31-0.02,0.64-0.03,0.99-0.03
		c1.13,0,2.05,0.26,2.77,0.77c0.71,0.51,1.07,1.32,1.07,2.44c0,1.06-0.31,1.9-0.93,2.51c-0.62,0.61-1.46,0.92-2.52,0.92
		c-2.39,0-3.63-1.34-3.73-4.03h-3.01v0.41c0,1.9,0.61,3.43,1.84,4.58C87.13,19.21,88.74,19.78,90.73,19.78z"/>
	<path class="st0" d="M106.24,19.76c2.16,0,3.79-0.83,4.9-2.49c1.11-1.66,1.67-4.09,1.67-7.29c0-6.63-2.23-9.95-6.69-9.95
		c-2.16,0-3.79,0.84-4.9,2.52c-1.12,1.68-1.67,4.14-1.67,7.37C99.56,16.48,101.78,19.76,106.24,19.76z M102.74,8.48
		c0.02-0.43,0.06-0.97,0.12-1.63c0.06-0.66,0.17-1.2,0.32-1.63c0.15-0.43,0.34-0.86,0.59-1.29c0.25-0.43,0.57-0.75,0.97-0.96
		c0.4-0.21,0.88-0.32,1.42-0.32c0.57,0,1.06,0.12,1.48,0.34c0.42,0.23,0.75,0.57,1,1.03c0.25,0.46,0.45,0.9,0.6,1.32
		c0.15,0.42,0.26,0.97,0.32,1.66c0.05,0.68,0.09,1.2,0.1,1.53c0.01,0.34,0.01,0.82,0.01,1.44c0,0.47,0,0.86-0.01,1.17
		c-0.01,0.3-0.04,0.73-0.08,1.29s-0.11,1.02-0.19,1.4c-0.08,0.37-0.21,0.79-0.37,1.25c-0.16,0.46-0.36,0.82-0.6,1.1
		c-0.24,0.27-0.54,0.51-0.92,0.7c-0.37,0.19-0.8,0.29-1.27,0.29c-1.22,0-2.12-0.56-2.67-1.67c-0.56-1.11-0.84-2.9-0.84-5.37
		C102.71,9.45,102.72,8.91,102.74,8.48z"/>
	<path class="st0" d="M121.21,19.78c2.01,0,3.64-0.58,4.9-1.73c1.26-1.15,1.89-2.64,1.89-4.47c0-1.15-0.31-2.12-0.93-2.92
		c-0.62-0.79-1.47-1.33-2.55-1.6c0.82-0.27,1.48-0.76,1.96-1.47c0.48-0.7,0.73-1.52,0.73-2.45c0-1.53-0.55-2.78-1.64-3.73
		c-1.1-0.95-2.53-1.42-4.3-1.42c-1.88,0-3.38,0.57-4.49,1.7c-1.11,1.13-1.7,2.69-1.75,4.66H118c0.09-2.52,1.16-3.78,3.21-3.78
		c0.89,0,1.61,0.26,2.14,0.77s0.8,1.19,0.8,2.03c0,0.59-0.11,1.07-0.33,1.47c-0.22,0.39-0.53,0.68-0.95,0.85
		c-0.41,0.17-0.82,0.29-1.22,0.36c-0.4,0.06-0.89,0.1-1.45,0.1h-0.27v2.36c0.31-0.02,0.64-0.03,0.99-0.03
		c1.13,0,2.05,0.26,2.77,0.77c0.71,0.51,1.07,1.32,1.07,2.44c0,1.06-0.31,1.9-0.93,2.51c-0.62,0.61-1.46,0.92-2.52,0.92
		c-2.39,0-3.63-1.34-3.73-4.03h-3.01v0.41c0,1.9,0.61,3.43,1.84,4.58C117.61,19.21,119.21,19.78,121.21,19.78z"/>
</g>
</svg>
