<?xml version="1.0" encoding="utf-8"?>
<!-- Generator: Adobe Illustrator 24.1.2, SVG Export Plug-In . SVG Version: 6.00 Build 0)  -->
<svg version="1.1" id="Layer_1" xmlns="http://www.w3.org/2000/svg" xmlns:xlink="http://www.w3.org/1999/xlink" x="0px" y="0px"
	 viewBox="0 0 128 128" style="enable-background:new 0 0 128 128;" xml:space="preserve">
<style type="text/css">
	.st0{fill:#2D2D2D;}
</style>
<g>
	<path class="st0" d="M3.95,109.39c-0.29-3.39-0.35-6.78-0.39-10.18c-0.02-3.39,0.04-6.78,0.12-10.18c0.04-3.25,0.18-6.51,0.35-9.76
		H3.98l-0.63-0.03l-1.27-0.06l-1.27-0.05l-0.57-0.01v0.07c-0.04,1.69-0.04,3.38-0.01,5.09c0.05,3.38,0.36,6.78,0.48,10.17
		c0.06,1.69,0.07,3.39,0.05,5.09c-0.03,1.69-0.12,3.4-0.24,5.09c-0.25,3.38-0.53,6.77-0.51,10.15h0.5l0.63-0.01l1.27-0.03l1.27-0.05
		l0.63-0.03h0.02l-0.02-0.19C4.22,112.79,4.07,111.09,3.95,109.39z"/>
	<path class="st0" d="M44.95,38.99c5.92-0.09,11.86-0.1,17.79-0.15c-1.24-7.3-2.7-14.55-4.96-21.49c-1.17-3.61-2.57-7.16-4.58-10.3
		c-1.01-1.56-2.23-2.97-3.67-4.07c-1.43-1.09-3.14-1.83-4.98-1.93c-1.82-0.12-3.7,0.35-5.27,1.39c-1.58,1.03-2.86,2.49-3.89,4.08
		c-2.08,3.23-3.15,6.96-4.11,10.64c-1.91,7.22-3.13,14.64-4.22,22.12l8.86-0.17L44.95,38.99z"/>
	<path class="st0" d="M9.2,89.85c0.12-2.2,0.22-4.4,0.35-6.6c-0.59,0.02-1.2-0.04-1.79-0.14c-0.4-0.06-0.8-0.17-1.2-0.28
		c-0.26-0.08-0.82-0.18-1.28-0.31c0.09,2.18,0.17,4.35,0.2,6.53c0.08,3.4,0.13,6.78,0.12,10.18c-0.05,3.4-0.1,6.79-0.39,10.18
		c-0.05,0.62-0.09,1.25-0.14,1.87c0.5-0.16,3.83-0.84,4.39-0.83c-0.43-2.16-0.62-4.3-0.75-6.46c-0.14-2.36,0.11-4.71,0.19-7.07
		L9.2,89.85z"/>
	<path class="st0" d="M28.21,114.51c-0.33-0.94-0.64-1.88-0.95-2.83c-0.56-0.11-1.04-0.56-1.14-1.15c-0.02-0.07-0.02-0.15-0.02-0.22
		l-0.01-0.12v-0.21l-0.01-0.41l-0.02-3.32c-0.04-4.42-0.02-8.86,0.04-13.29l0.25-13.29c0.01-0.23,0.01-0.45,0.02-0.68
		c-2.14,0.25-4.27,0.43-6.41,0.56l-1.79,0.1H18v0.12c0.06,1.19,0.06,2.39,0.1,3.59c0.01,2.39-0.04,4.78-0.12,7.16
		c-0.05,2.39-0.19,4.79-0.38,7.17c-0.18,2.39-0.27,4.78-0.21,7.17c0.05,2.39,0.36,4.78,0.48,7.16c0.02,0.59,0.06,1.2,0.06,1.79v0.22
		l0.14,0.01c1.19,0.01,2.39,0.04,3.59,0.1c2.21,0.11,4.41,0.26,6.62,0.57C28.26,114.65,28.23,114.58,28.21,114.51z"/>
	<path class="st0" d="M16.17,90.51c-0.07-2.39-0.13-4.78-0.11-7.16c0.03-1.2,0.04-2.39,0.09-3.58c-0.73,0.44-1.46,0.9-2.2,1.33
		c-0.56,0.34-1.14,0.67-1.71,0.99c-0.57,0.32-1.14,0.67-1.7,1.03c0,0-0.5,4.52-0.38,6.73l0.28,7.06c0.09,2.36,0.33,4.71,0.19,7.07
		c-0.11,2.16-0.16,6.55-0.16,6.55l0.07,0.04c0.56,0.36,1.13,0.71,1.7,1.03c0.57,0.32,1.15,0.64,1.71,0.99
		c0.77,0.45,1.52,0.92,2.28,1.38v-0.15c-0.01-0.59,0.03-1.2,0.05-1.79c0.12-2.39,0.43-4.78,0.48-7.16c0.07-2.4-0.03-4.79-0.21-7.17
		C16.37,95.3,16.23,92.9,16.17,90.51z"/>
	<path class="st0" d="M62.87,125.59l-0.06-1.27l-0.02-0.63v-0.01l-0.19,0.01c-1.69,0.09-3.4,0.25-5.09,0.36
		c-3.4,0.29-6.78,0.35-10.18,0.39c-3.4,0.02-6.79-0.03-10.18-0.11c-3.25-0.05-6.51-0.19-9.76-0.36v0.05l-0.03,0.63l-0.06,1.27
		l-0.05,1.28l-0.01,0.56h0.06c1.7,0.04,3.4,0.04,5.1,0.02c3.38-0.06,6.78-0.37,10.18-0.48c1.69-0.06,3.4-0.08,5.09-0.06
		c1.69,0.03,3.4,0.13,5.09,0.24c3.38,0.25,6.77,0.53,10.15,0.51v-0.49l-0.01-0.63L62.87,125.59z"/>
	<path class="st0" d="M62.68,108.71l-0.02-2.24c0,0,0.03-10.07-0.04-13.05c-0.14-5.96-0.37-11.92-0.47-17.88
		c-0.11-5.95-0.13-11.91-0.17-17.87c0-5.63,0.01-11.27,0.06-16.91c-5.7-0.04-11.39-0.06-17.09-0.14l-9.03-0.13l-8.52-0.16
		c-0.16,8.68-0.26,17.37-0.19,26.05c0.04,4.43,0.13,8.87,0.23,13.29l0.25,13.29c0.06,4.43,0.08,8.87,0.04,13.29l-0.02,3.32
		l-0.01,0.41v0.16l1.43,0.03c2.22,0.03,4.43,0.1,6.65,0.16c8.86,0.22,17.5,0.18,26.35,0.15c0.33-0.01,0.59-0.31,0.54-0.65V108.71z"
		/>
	<path class="st0" d="M121.48,87.29c-3.22-2.08-6.96-3.15-10.64-4.11c-7.18-1.9-14.55-3.12-21.99-4.2
		c-0.16,2.94-0.33,5.89-0.34,8.84c-0.03,3.01,0.04,6.01,0.17,9.03c0.14,3.01,0.3,6.01,0.36,9.03l0.16,8.75
		c7.28-1.24,14.52-2.69,21.45-4.94c3.61-1.18,7.16-2.58,10.31-4.59c1.55-1.01,2.96-2.23,4.06-3.67c1.09-1.43,1.83-3.13,1.93-4.98
		c0.13-1.82-0.35-3.7-1.39-5.27C124.54,89.6,123.07,88.32,121.48,87.29z"/>
	<path class="st0" d="M58.55,118.54c-2.16,0.43-4.31,0.62-6.46,0.75c-2.36,0.14-4.71-0.11-7.07-0.19l-7.06-0.29
		c-2.2-0.12-4.4-0.21-6.6-0.35c0.02,0.6-0.04,1.2-0.14,1.8c-0.07,0.39-0.17,0.8-0.28,1.19c-0.09,0.3-0.19,0.86-0.32,1.29
		c2.18-0.1,4.35-0.18,6.54-0.21c3.38-0.08,6.78-0.13,10.18-0.11c3.4,0.04,6.78,0.09,10.18,0.38c0.59,0.05,1.19,0.09,1.78,0.14
		c-0.12-0.51-0.22-1.2-0.31-1.49c-0.11-0.39-0.21-0.8-0.28-1.19C58.59,119.68,58.54,119.11,58.55,118.54z"/>
	<path class="st0" d="M60.7,114.05c0.61-1.03,1.24-2.05,1.87-3.06c-0.07,0.02-0.14,0.04-0.21,0.04c-8.87-0.03-17.72,0.27-26.58,0.49
		c-2.22,0.06-4.43,0.13-6.65,0.16l-0.83,0.01l-0.41,0.01h-0.11c0.48,0.79,0.97,1.56,1.43,2.35c0.34,0.56,0.66,1.14,0.99,1.71
		c0.32,0.58,0.66,1.15,1.03,1.7l0.04,0.08l0.04,0.32c0.02,0.11,0.02,0.23,0.03,0.34c2.21-0.14,4.41-0.24,6.62-0.36l7.06-0.28
		c2.36-0.08,4.71-0.33,7.07-0.19c2.16,0.12,4.32,0.31,6.49,0.75c0-0.08,0-0.17,0.02-0.25l0.04-0.32l0.04-0.08
		c0.36-0.55,0.71-1.12,1.03-1.7C60.03,115.18,60.36,114.61,60.7,114.05z"/>
	<path class="st0" d="M81.84,79.64c-2.13,0.01-4.25-0.03-6.37-0.07c-2.13-0.05-4.25-0.12-6.38-0.23c-1.76-0.09-3.54-0.21-5.31-0.37
		c-0.11,4.82-0.28,9.63-0.39,14.46c-0.07,2.97-0.18,5.95-0.21,8.94l-0.05,4.46l-0.01,2.24l-0.01,1.12c0.01,0.16-0.03,0.38-0.15,0.54
		c0,0,0,0.01,0,0.02c-0.39,1.27-0.82,2.52-1.25,3.77c-0.02,0.07-0.05,0.14-0.07,0.21c1.96-0.16,3.94-0.29,5.9-0.39
		c2.3-0.12,4.59-0.21,6.89-0.28c2.3-0.07,4.58-0.13,6.88-0.15c1.97-0.04,3.94-0.03,5.9-0.01l0.15-8.02
		c0.06-3.01,0.22-6.01,0.36-9.03c0.13-3.01,0.2-6.01,0.17-9.03c-0.01-2.78-0.16-5.56-0.31-8.34C85.66,79.56,83.75,79.64,81.84,79.64
		z"/>
	<path class="st0" d="M76.35,12.3c1.71,0,3.06-0.77,4.05-2.3c-0.19,4.22-1.38,6.33-3.58,6.33c-0.83,0-1.5-0.23-2-0.7
		c-0.5-0.47-0.79-1.07-0.86-1.81h-2.85c0.07,1.41,0.63,2.58,1.67,3.49c1.05,0.91,2.34,1.37,3.88,1.37c1.24,0,2.33-0.3,3.24-0.89
		c0.92-0.59,1.61-1.39,2.09-2.38c0.47-0.99,0.82-2.02,1.04-3.1c0.22-1.08,0.32-2.21,0.32-3.4c0-0.88-0.06-1.71-0.17-2.51
		c-0.11-0.79-0.32-1.59-0.62-2.39c-0.3-0.8-0.69-1.49-1.15-2.07c-0.47-0.58-1.09-1.05-1.85-1.41C78.78,0.18,77.91,0,76.92,0
		c-1.8,0-3.28,0.6-4.44,1.8c-1.16,1.2-1.74,2.72-1.74,4.56c0,1.74,0.53,3.17,1.58,4.28C73.38,11.74,74.72,12.3,76.35,12.3z
		 M74.57,3.53c0.56-0.7,1.31-1.05,2.24-1.05c0.99,0,1.77,0.34,2.36,1.03c0.59,0.69,0.88,1.61,0.88,2.76c0,1.09-0.29,1.96-0.88,2.64
		c-0.59,0.67-1.36,1.01-2.31,1.01s-1.71-0.33-2.28-0.98c-0.57-0.65-0.86-1.54-0.86-2.66C73.73,5.14,74.01,4.22,74.57,3.53z"/>
	<path class="st0" d="M88.93,10.65c0-1.07,0.26-1.92,0.78-2.57c0.52-0.65,1.28-0.97,2.28-0.97c0.9,0,1.49,0.24,1.78,0.72
		c0.29,0.48,0.43,1.2,0.43,2.14v8.35h2.96v-7.83c0-1.07,0.25-1.9,0.75-2.49c0.5-0.59,1.23-0.89,2.18-0.89c0.93,0,1.57,0.27,1.89,0.8
		c0.33,0.53,0.49,1.27,0.49,2.22v8.19h2.96V8.86c0-1.33-0.41-2.36-1.25-3.11c-0.83-0.75-1.88-1.12-3.14-1.12
		c-1.82,0-3.26,0.76-4.33,2.27c-0.31-0.72-0.79-1.28-1.44-1.68c-0.65-0.4-1.41-0.59-2.3-0.59c-1.7,0-3.1,0.75-4.2,2.25V4.99h-2.8
		v13.33h2.96V10.65z"/>
	<path class="st0" d="M126.75,5.75c-0.83-0.75-1.88-1.12-3.14-1.12c-1.82,0-3.26,0.76-4.33,2.27c-0.31-0.72-0.79-1.28-1.44-1.68
		c-0.65-0.4-1.41-0.59-2.3-0.59c-1.7,0-3.1,0.75-4.2,2.25V4.99h-2.8v13.33h2.96v-7.67c0-1.07,0.26-1.92,0.78-2.57
		c0.52-0.65,1.28-0.97,2.28-0.97c0.9,0,1.49,0.24,1.78,0.72c0.29,0.48,0.43,1.2,0.43,2.14v8.35h2.96v-7.83
		c0-1.07,0.25-1.9,0.75-2.49c0.5-0.59,1.23-0.89,2.18-0.89c0.93,0,1.57,0.27,1.89,0.8c0.33,0.53,0.49,1.27,0.49,2.22v8.19H128V8.86
		C128,7.54,127.59,6.5,126.75,5.75z"/>
</g>
</svg>
