<?xml version="1.0" encoding="utf-8"?>
<!-- Generator: Adobe Illustrator 18.1.0, SVG Export Plug-In . SVG Version: 6.00 Build 0)  -->
<svg version="1.1" baseProfile="basic" id="Layer_1"
	 xmlns="http://www.w3.org/2000/svg" xmlns:xlink="http://www.w3.org/1999/xlink" x="0px" y="0px" viewBox="0 0 162 128"
width="162" height="128"

	 xml:space="preserve">
<g>
	<path fill="#2D2D2D" d="M151,26.9h-31.7c-6.1,0-11,5-11,11.1v31.1c0,2.7,2.2,4.9,4.9,4.9s4.9-2.2,4.9-4.9V45.3h2.6v76.1
		c0,3.6,2.9,6.5,6.5,6.5c3.6,0,6.5-2.9,6.5-6.5l1.3-42.8h1.3l1.2,43.1c0,3.4,2.8,6.2,6.2,6.2s6.2-2.8,6.2-6.2V45.3h2.5v23.8
		c0,2.7,2.2,4.9,4.9,4.9s4.9-2.2,4.9-4.9V38C162,31.9,157.1,26.9,151,26.9z"/>
	<path fill="#2D2D2D" d="M135.1,23.8c6.6,0,11.9-5.3,11.9-11.9s-5.4-11.9-11.9-11.9c-6.6,0-11.9,5.3-11.9,11.9
		S128.6,23.8,135.1,23.8z"/>
	<path fill="#2D2D2D" d="M86.3,41.5h-27c-5.3,0-9.5,4.3-9.5,9.6v26.5c0,2.4,1.9,4.3,4.3,4.3c2.4,0,4.3-1.9,4.3-4.3V57.5h1.9v64.8
		c0,3.2,2.5,5.7,5.7,5.7c3.1,0,5.7-2.6,5.7-5.7l1.1-36.4h0.8l1,36.6c0,3,2.4,5.5,5.4,5.5s5.4-2.4,5.4-5.5v-65h1.8v20.2
		c0,2.4,1.9,4.4,4.3,4.4s4.3-2,4.3-4.4V51.2C95.8,45.8,91.5,41.5,86.3,41.5z M93.8,77.6c0,1.3-1,2.4-2.3,2.4s-2.3-1.1-2.3-2.4V57
		c0-0.9-0.7-1.6-1.5-1.6h-2.7c-0.9,0-1.5,0.7-1.5,1.6v65.5c0,1.9-1.5,3.5-3.4,3.5c-1.9,0-3.4-1.6-3.4-3.5l-1-37
		c0-0.9-0.7-1.5-1.5-1.5h-1.7c-0.9,0-1.5,0.7-1.5,1.5l-1.1,36.8c0,2.1-1.7,3.7-3.7,3.7c-2,0-3.7-1.7-3.7-3.7V57
		c0-0.9-0.7-1.6-1.5-1.6h-2.8c-0.9,0-1.5,0.7-1.5,1.6v20.7c0,1.3-1,2.3-2.3,2.3s-2.3-1-2.3-2.3V51.2c0-4.2,3.4-7.6,7.5-7.6h27
		c4.2,0,7.5,3.4,7.5,7.6V77.6z"/>
	<path fill="#2D2D2D" d="M72.7,39.1c5.7,0,10.3-4.6,10.3-10.3s-4.6-10.3-10.3-10.3s-10.3,4.6-10.3,10.3S67.1,39.1,72.7,39.1z
		 M72.7,20.5c4.6,0,8.3,3.7,8.3,8.3s-3.7,8.3-8.3,8.3c-4.6,0-8.3-3.7-8.3-8.3S68.1,20.5,72.7,20.5z"/>
	<path fill="#2D2D2D" d="M28.9,59.7H7.7c-4.2,0-7.7,3.5-7.7,7.8v20.8c0,2,1.6,3.6,3.6,3.6s3.6-1.6,3.6-3.6V72.6h1.1v50.6
		c0,2.6,2.1,4.7,4.7,4.7c2.6,0,4.7-2.1,4.7-4.7l0.9-28.4h0.2l0.8,28.5c0,2.5,2,4.5,4.5,4.5s4.5-2,4.5-4.5V72.6h1v15.6
		c0,2,1.6,3.6,3.6,3.6s3.6-1.6,3.6-3.6V67.4C36.6,63.1,33.2,59.7,28.9,59.7z M34.6,88.2c0,0.9-0.7,1.7-1.6,1.7s-1.6-0.7-1.6-1.7V72
		c0-0.8-0.6-1.4-1.4-1.4h-2.1c-0.8,0-1.4,0.6-1.4,1.4v51.4c0,1.4-1.1,2.5-2.5,2.5c-1.4,0-2.5-1.1-2.5-2.5l-0.8-29.1
		c0-0.8-0.6-1.4-1.4-1.4h-1.3c-0.8,0-1.4,0.6-1.4,1.4l-0.9,28.9c0,1.5-1.2,2.7-2.7,2.7s-2.7-1.2-2.7-2.7V72c0-0.8-0.6-1.4-1.4-1.4
		H6.6c-0.8,0-1.4,0.6-1.4,1.4v16.2c0,0.9-0.7,1.6-1.6,1.6S2,89.1,2,88.3V67.4c0-3.2,2.6-5.8,5.7-5.8h21.2c3.1,0,5.7,2.6,5.7,5.8
		V88.2z"/>
	<path fill="#2D2D2D" d="M18.3,58.2c4.6,0,8.3-3.7,8.3-8.3s-3.7-8.3-8.3-8.3S10,45.3,10,49.9S13.7,58.2,18.3,58.2z M18.3,43.6
		c3.5,0,6.3,2.8,6.3,6.3c0,3.5-2.8,6.3-6.3,6.3S12,53.4,12,49.9C12,46.4,14.8,43.6,18.3,43.6z"/>
</g>
</svg>
