<?xml version="1.0" encoding="utf-8"?>
<!-- Generator: Adobe Illustrator 23.0.0, SVG Export Plug-In . SVG Version: 6.00 Build 0)  -->
<svg version="1.1" id="Layer_1" xmlns="http://www.w3.org/2000/svg" xmlns:xlink="http://www.w3.org/1999/xlink" x="0px" y="0px"
	 viewBox="0 0 128 128" style="enable-background:new 0 0 128 128;" xml:space="preserve">
<style type="text/css">
	.st0{fill:#2D2D2D;}
</style>
<g>
	<path class="st0" d="M63.5,111.5c-0.1-1.4-0.2-2.7-0.3-3.6c-0.5,0.2-0.9,0.4-1.4,0.5c0,0.2,0.1,0.6,0.1,0.9c0.5,4.7,1,9.3,0.5,10.9
		c0,0-0.1,0.3-0.4,0.5c-0.2,0.2-4.8,2.6-6.4,2.8c0,0-0.1,0-0.1,0c0,0-0.1,0.1,0,0.2c0.8,0.2,2.8-0.3,3.1-0.4
		c1.1-0.4,4.2-1.3,4.8-1.2c0.1,0,0.3,0.1,0.7,0.2c1.1,0.4,4.1,1.6,7,1.7c0.2,0,0.3-0.1,0.1-0.3c-0.3-0.1-0.6-0.2-0.9-0.2
		c-1.5-0.4-3.3-0.9-4.6-1.7c-0.8-0.5-1.4-1.4-1.5-2.5C63.9,117,63.7,114,63.5,111.5z"/>
	<path class="st0" d="M54.5,125c-0.7-0.7-1.1-1.6-1.1-2.7l0-0.1c0.2-4.9,0.5-9.7,0.9-11.9c-0.4,0.1-0.9,0.1-1.3,0.2
		c0,0.2-0.8,11-1.5,12.6l-0.1,0.2l-0.2,0.1c-1.3,1-5,1.8-5.2,2s-0.5,0.5-0.3,0.6c1.5-0.3,6.1-1,6.6-0.9c0.7,0.1,4.4,2.5,7.3,3
		c0.7,0.2,0.4-0.4,0.1-0.5C58.1,126.8,55.6,126,54.5,125z"/>
	<path class="st0" d="M38,99.7C38,99.7,38,99.7,38,99.7c0.2,0,0.4,0,0.7-0.1c0.5-0.2,1.1-0.5,1.6-0.8c1-0.7,2-1.5,2.9-2.5
		c0.8-0.9,1.6-2,2.1-3.1c0.5-1.1,0.9-2.3,1-3.5l0.2-3.4l1.7,3c0.1,0.1,0.1,0.2,0.3,0.3c0.2,0.1,0.5,0.1,0.8,0.1
		c0.7-0.1,1.4-0.3,2.1-0.5c1.4-0.5,2.8-1.3,4.2-2.2c1.3-0.9,2.6-1.9,3.7-3c1.1-1.1,2.1-2.4,2.6-3.7l0.6-1.9l1,1.7
		c0.1,0.2,0.2,0.3,0.5,0.5c0.2,0.1,0.5,0.2,0.9,0.2c0.7,0,1.4-0.1,2.1-0.3c1.5-0.5,2.9-1.2,4.2-2.1c1.3-0.9,2.6-1.9,3.6-3
		c1.1-1.2,2-2.5,2.5-3.9l0.3-0.9l0.6,0.6c0.9,0.8,2.2,1.1,3.5,1c1.3-0.1,2.6-0.6,3.7-1.5c1.2-1,1.3-2.2,2-3.4c0.6-1.1,0.8-2.3,1-3.6
		c-0.3-0.1-1.3-0.4-1.8-0.4l-1,0.1l0.3-0.8c0.3-1,0.5-2.1,0.6-3.1c0.1-0.5,0.1-1.1,0.2-1.6c0.1-0.3,0.1-0.6,0.2-0.9
		c-0.4,0.1-0.8,0.2-1.3,0.2c-0.7,0.1-1.3,0.1-2,0c-0.6,0-1.2-0.1-1.8-0.2c-0.6,0-1.1-0.1-1.7,0L79.1,57l0.1-0.8
		c0.1-0.5,0.2-1,0.4-1.5c0.2-0.4,0.5-0.8,0.7-1.2c0.5-0.6,1-1.1,1.6-1.6c-2.1,0.4-4.2,0.7-6.3,0.9c-1.1,0.1-2.3,0.2-3.4,0.3
		c-1.1,0.1-2.3,0.1-3.4,0.2c-4.4,0.4-8.8,1.4-13.1,2.6c-2.1,0.6-4.3,1.3-6.4,2.1c-2.1,0.8-4.1,1.7-6.1,2.7c-4,2-7.8,4.3-11.4,7
		c-3.6,2.7-6.8,5.8-9.6,9.3c-1.4,1.8-2.7,3.6-3.9,5.5c-1.2,1.9-2.2,4-3.1,6c-1.8,4.2-3,8.6-3.7,13.1c-0.2,1.1-0.3,2.2-0.4,3.4
		c-0.1,1.1-0.1,2.3,0,3.4c0,0.6,0.1,1.1,0.2,1.6c0.1,0.5,0.2,1.1,0.5,1.4c0.3,0.4,0.5,0.6,0.9,0.5c0.4-0.1,0.9-0.3,1.3-0.6l0.6-0.4
		l0.3,0.7c0.3,0.7,0.7,1.4,1.2,1.9c0.5,0.5,1.1,0.8,1.7,0.8c0.6,0,1.3-0.4,1.8-0.9c0.6-0.5,1.1-1.1,1.5-1.7l0.7-0.9l0.6,1
		c0.2,0.4,0.7,0.6,1.2,0.5c0.5-0.1,1.1-0.4,1.6-0.9c1-0.9,1.8-2.2,2.5-3.5l0.4-0.7l0.8,0.4c0.2,0.1,0.6,0.1,1,0
		c0.4-0.1,0.9-0.3,1.3-0.5c0.9-0.5,1.7-1.1,2.4-1.8c0.7-0.7,1.4-1.5,1.9-2.4c0.5-0.9,0.8-1.8,0.8-2.6C36.2,100.3,37.9,99.7,38,99.7
		C38,99.7,38,99.7,38,99.7z"/>
	<path class="st0" d="M102.1,22.5L102.1,22.5C102.1,22.5,102.2,22.5,102.1,22.5c-0.2-0.7-0.6-2.7-0.6-4.1c0-0.8,0.1-1.5,0.3-2.3
		c0.1-0.7,0.3-1.3,0.4-2c-0.1,0.1-0.3,0.1-0.5,0.2l-1.1,0.5l0-1.3l0-7.3c0-1.4-0.1-4.9-0.2-6.3c-0.1,1.4-0.4,4.8-0.5,6.2
		c-0.1,0.8-0.2,1.9-0.2,3L99.4,12l-2.1-6.3L96.7,4c0.1,1.5,0.2,2.9,0.2,4.4l1,8.8l-1.2-0.5c-0.2-0.1-0.3-0.2-0.5-0.2
		c-0.1-0.1-0.2-0.1-0.3-0.2c0.4,1.2,1.3,5.7,1.5,7C98.8,22.5,100.7,22.3,102.1,22.5z"/>
	<path class="st0" d="M93.9,69.7c-0.3-0.7-0.6-1.5-0.8-2.2c-0.2-0.8-0.4-1.6-0.4-2.4c0-0.2,0-0.5,0-0.8c-0.2,0-0.3,0-0.5,0.1
		c-0.8,0-1.5-0.1-2.2-0.2c-0.2-0.1-0.5-0.1-0.7-0.2c-0.2,1.3-0.5,2.6-1,3.7c-0.6,1.3-1.4,2.6-2.6,3.5c-1.1,1-2.5,1.7-4,1.9
		c-1.2,0.2-2.6,0-3.7-0.7c-0.5,1.4-1.4,2.7-2.3,3.8c-1.1,1.3-2.4,2.4-3.8,3.4c-1.4,1-2.9,1.8-4.5,2.4c-0.8,0.3-1.7,0.5-2.7,0.5
		c-0.5,0-1-0.1-1.5-0.3c-0.1,0-0.1-0.1-0.2-0.1c-0.2,0.4-0.5,0.8-0.7,1.2c-0.5,0.7-1.1,1.4-1.7,2c-1.2,1.2-2.5,2.3-3.9,3.3
		c-1.4,1-2.9,1.8-4.5,2.5c-0.8,0.3-1.7,0.6-2.6,0.7c-0.5,0-0.9,0-1.5-0.1c-0.2,0.9-0.5,1.8-0.9,2.6c-0.6,1.3-1.5,2.5-2.5,3.6
		c-1,1.1-2.1,2-3.3,2.8c-0.6,0.4-1.3,0.7-2,1c-0.4,0.1-0.8,0.2-1.3,0.2c0,0-0.1,0-0.1,0c-0.2,0.8-0.6,1.6-1,2.3
		c-0.1,0.2-0.3,0.4-0.4,0.6c0.1,0.5,0.5,1.1,0.8,1.2c0.6,0.4,1.2,0.5,1.9,0.5c0.7,0,1.3-0.2,2-0.5c0.6-0.2,1.1-0.6,1.7-0.9
		c0.5-0.6,1.1-1.2,1.6-1.8l2.8-3.1l2.8-3.1c1-1,1.9-2.1,3-3.2c-0.4,1.4-1,2.8-1.8,4.1c-0.8,1.3-1.6,2.4-2.6,3.5
		c-1,1.1-2.1,2.1-3.2,2.9c-0.5,0.4-1,0.7-1.5,1l-0.2,0.3c-0.3,0.6-0.6,1.2-0.7,1.8c-0.1,0.6,0,1.1,0.4,1.5c0.4,0.3,0.9,0.5,1.6,0.6
		c0.6,0.1,1.3,0,2,0c0,0,0,0,0,0c1.6-1.2,3.2-2.5,4.7-3.8c0.9-0.8,1.8-1.5,2.7-2.4c0.2-0.2,0.4-0.4,0.7-0.6l0.6-0.6
		c0.4-0.4,0.9-0.8,1.3-1.3c1.7-1.7,3.2-3.5,4.6-5.4c1.4-1.9,2.6-3.9,3.9-6.1c-0.5,2.4-1.4,4.8-2.7,6.9c-1.3,2.1-2.8,4.1-4.5,5.9
		c-0.4,0.5-0.9,0.9-1.3,1.3c-0.4,0.4-0.9,0.8-1.4,1.2c-1,0.8-1.9,1.5-3,2.2c-1.4,0.9-2.8,1.8-4.3,2.5c1-0.1,2-0.2,3-0.3
		c1.4-0.2,2.8-0.3,4.2-0.6c0.6-0.1,1.3-0.2,1.9-0.4l0.3-0.2l0.8-0.7c0.6-0.4,1.1-0.9,1.7-1.3c0.5-0.5,1.1-0.9,1.6-1.4
		c2.1-1.8,4.1-3.8,6.1-5.8c0.5-0.5,1-1,1.4-1.5c0.5-0.5,0.9-1,1.4-1.6c0.5-0.5,0.9-1,1.4-1.6c0.4-0.5,0.9-1.1,1.4-1.6
		c1.8-2.2,3.5-4.4,5.3-6.7c-1.1,2.7-2.5,5.2-4.1,7.6c-0.8,1.2-1.7,2.3-2.6,3.5c-0.4,0.6-0.9,1.1-1.4,1.6c-0.5,0.5-0.9,1.1-1.5,1.6
		c-2,2.1-4.2,4-6.5,5.6c-0.6,0.4-1.2,0.8-1.8,1.2c-0.3,0.2-0.7,0.4-1,0.6c1.3-0.3,2.5-0.7,3.7-1.2c2.6-1,5.2-2.3,7.5-3.9
		c2.3-1.6,4.6-3.4,6.9-5.2c2.2-1.8,4.4-3.7,6.3-5.9c1.9-2.1,3.6-4.4,5-6.9c1.4-2.4,2.6-5,3.7-7.6c0.3-1.4,0.6-2.8,1-4.2
		c0.3-0.9,0.3-1.8-0.1-2.7C94,69.8,93.9,69.8,93.9,69.7z"/>
	<path class="st0" d="M112.5,33.3c-0.7-0.1-1.4-0.2-2.1-0.3c-0.7,0-1.3,0-2.1,0c-0.3,0-0.6,0-0.9,0c0.1,0,0.2,0.1,0.3,0.1
		c1,0.3,2,0.7,3,1c1,0.3,2.1,0.4,3.1,0.5c1,0.1,2,0.1,3.1,0l-0.3-0.1C115.4,33.8,114,33.5,112.5,33.3z"/>
	<path class="st0" d="M105,32.8c-0.2,0-0.4-0.2-0.5-0.3c-0.1-0.1-0.2-0.2-0.2-0.3c-0.1-0.1-0.1-0.3-0.1-0.4c0-0.1,0-0.2,0-0.3
		c0-0.2,0-0.3,0-0.4c0-0.2,0.1-0.4,0.2-0.6c0.2-0.4,0.3-0.8,0.6-1.1c0.2-0.3,0.4-0.7,0.8-1c0.3-0.3,0.7-0.4,1-0.6
		c0.2-0.1,0.6-0.3,1-0.3c0.2,0,0.4-0.3,0.2-0.5c-0.2-0.3-0.3-0.5-0.6-0.7c-0.5-0.5-1.1-0.9-1.7-1.3c-0.3-0.2-0.6-0.4-0.9-0.5
		c-0.7-0.2-1.3-0.4-2-0.7c-0.3-0.1-0.7-0.1-1-0.1l0,0c-1.5,0-3,0.4-4.1,1.4c-1.2,0.9-2,2.3-2.7,3.7c-0.2,0.3-0.4,0.7-0.5,1.1
		c-0.1,0.3-0.2,0.7-0.3,1.1c-0.2,0.7-0.3,1.5-0.3,2.3c0,0.3,0,0.6,0,0.9c0.4,0.5,0.8,1,1.2,1.5c0.6,0.8,1.3,1.5,2,1.9
		c0.1,0,0.2,0.1,0.2,0.1c0.1,0,0.2,0,0.2,0.1l0.3,0c0.1,0,0.2,0,0.3,0c0.4,0,0.8-0.1,1.2-0.2c0.4-0.2,0.9-0.4,1.4-0.6
		c0.2-0.1,0.4-0.2,0.6-0.3c0.2-0.2,0.4-0.5,0.7-0.6c0.2-0.2,0.5-0.3,0.8-0.4c0.3-0.1,0.5-0.2,0.8-0.2l1.5-0.4
		c0.7-0.2,1.5-0.5,2.2-0.7c-0.7-0.3-1.4-0.8-1.9-1.3L105,32.8z M100.9,30c-0.7,0-1.2-0.6-1.1-1.3c0-0.7,0.6-1.2,1.3-1.1
		s1.2,0.6,1.1,1.3C102.2,29.5,101.6,30,100.9,30z"/>
	<path class="st0" d="M110.7,31.2c0.8,0.2,1.5,0.4,2.2,0.7c1.2,0.5,2.3,1.2,3.4,1.7c-0.3-0.6-0.9-1.1-1.4-1.4
		c-0.8-0.5-1.5-1-2.3-1.5c-0.8-0.5-1.5-1.2-2.2-1.8c-0.3-0.3-0.7-0.5-1-0.7c-1.1-0.6-2.5-0.3-3.1,0.7c0,0,0,0,0,0
		c-0.1,0.2-0.2,0.6-0.2,1c0,0.3-0.1,0.7-0.1,1c0,0,0,0.1,0,0.1c0.1,0,0.2,0,0.3,0c0.7,0,1.4-0.1,2.2,0C109.2,31,110,31,110.7,31.2z"
		/>
	<path class="st0" d="M100.9,45.2c-0.2-1-0.3-2.1-0.4-3.1l-0.1-1.5c0-0.5-0.1-1-0.1-1.6c0-0.2,0-0.3,0-0.5c-0.1,0.1-0.3,0.2-0.4,0.4
		c-1,0.7-2.5,1.1-3.9,0.3c-0.6-0.3-1.1-0.8-1.4-1.3c-0.3-0.4-0.6-0.9-0.8-1.4c0,0.5,0,1.1,0.1,1.6c0.1,1.7-0.1,3.5-0.3,5.1
		c-0.1,0.6-0.2,1.3-0.4,2c0.3,0.6,0.6,1.3,0.9,1.8c0.6,1.1,1.4,2,2.3,2.7c0.9,0.7,1.9,1.1,3,0.9c0.7-0.1,1.4-0.4,2.1-0.9
		c0-0.6-0.1-1.1-0.1-1.7C101.2,47.1,101.1,46.1,100.9,45.2z"/>
	<path class="st0" d="M97.4,52c-0.7-0.2-1.4-0.5-2-1c-1.1-0.9-1.9-2.1-2.4-3.4c-0.1-0.4-0.3-0.8-0.3-1.2c-0.3,0.6-0.8,1.2-1.3,1.7
		c-1.3,1.2-2.9,2-4.5,2.6c-1.5,0.5-5.4,2.6-5.7,3.4c-0.2,0.4-0.3,0.8-0.4,1.1c0,0,0,0.1,0,0.1c1-0.1,2.1,0,3,0.2
		c1.2,0.2,2.3,0.6,3.6,0.5l1-0.1l-0.6,0.7c-0.3,0.3-0.5,0.8-0.6,1.4C87,58.5,87,59,87,59.5c0,0.5,0,1.1,0,1.6c0,0.3,0,0.5,0,0.8
		c0.5,0,1,0,1.4,0.1c0.7,0.1,1.3,0.2,1.9,0.3c0.6,0.1,1.2,0.1,1.7,0c0.5-0.1,1-0.2,1.4-0.5l2.4-1.4l-1,2.6c-0.2,0.6-0.3,1.2-0.4,1.9
		c0,0.7,0,1.4,0.1,2.2c0.1,0.7,0.2,1.5,0.3,2.2l0.2,1c0.1-0.2,0.2-0.3,0.3-0.5l0.3-0.4l0.2-0.3c0.3-0.4,0.6-0.8,0.9-1.2
		c0.5-0.8,1-1.7,1.5-2.5c0.9-1.7,1.6-3.6,2.1-5.5c0.3-1,0.5-1.9,0.7-2.9c0.1-0.5,0.1-1,0.2-1.5l0.1-0.7l0.1-0.7l0.1-1.5l0-1.5
		c0-0.1,0-0.3,0-0.4c-0.5,0.5-1.1,0.9-1.8,1.1C98.9,52.1,98.1,52.1,97.4,52z"/>
</g>
</svg>
