<?xml version="1.0" encoding="utf-8"?>
<!-- Generator: Adobe Illustrator 18.1.0, SVG Export Plug-In . SVG Version: 6.00 Build 0)  -->
<svg version="1.1" baseProfile="tiny" id="Layer_1" xmlns="http://www.w3.org/2000/svg" xmlns:xlink="http://www.w3.org/1999/xlink"
	 x="0px" y="0px" viewBox="0 0 128 128" xml:space="preserve">
<g>
	<path fill="#2D2D2D" d="M39.6,86.3c0,2.1,1.7,3.9,3.9,3.9s3.9-1.7,3.9-3.9c0-2.1-1.7-3.9-3.9-3.9S39.6,84.2,39.6,86.3z"/>
	<path fill="#2D2D2D" d="M49.2,87.5c-0.2,1.1-0.8,2.1-1.5,2.9l9.8,5.9c0.4,0.2,0.8,0.3,1.2,0.2c0.4-0.1,0.8-0.4,1-0.7
		c0.5-0.8,0.2-1.8-0.6-2.3L49.2,87.5z"/>
	<path fill="#2D2D2D" d="M45.1,80.7l0.1-21c0-0.9-0.7-1.6-1.6-1.6s-1.6,0.7-1.6,1.6l-0.1,21c0.5-0.2,1.1-0.2,1.7-0.2
		C44,80.4,44.6,80.5,45.1,80.7z"/>
	<path fill="#2D2D2D" d="M127.7,39.2L108.9,1.6c-0.5-1-1.5-1.6-2.6-1.6c-1.1,0-2.1,0.6-2.5,1.6L85,39.2c-0.4,0.9-0.4,1.9,0.1,2.8
		c0.5,0.8,1.4,1.4,2.4,1.4h37.6c1,0,1.9-0.5,2.4-1.3C128.1,41.1,128.1,40.1,127.7,39.2z M103.6,34.8c0-1.5,1.2-2.8,2.8-2.8
		c1.5,0,2.8,1.2,2.8,2.8c0,1.5-1.2,2.8-2.8,2.8C104.8,37.5,103.6,36.3,103.6,34.8z M108.6,28.4c-0.1,1.2-1.1,2.1-2.3,2.1
		c-1.2,0-2.2-0.9-2.3-2.1l-1.1-11.5c-0.1-0.7,0.2-1.3,0.6-1.8c0.4-0.5,1.1-0.8,1.7-0.8h2.3c0.7,0,1.3,0.3,1.7,0.8
		c0.4,0.5,0.7,1.1,0.6,1.8L108.6,28.4z"/>
	<path fill="#2D2D2D" d="M84.4,93.8L80,92.6c-0.9-0.2-1.8,0.3-2.1,1.2c-1.6,5.9-4.8,11.4-9.2,15.8C61.9,116.3,53,120,43.4,120
		c-9.5,0-18.4-3.7-25.1-10.4C11.6,102.9,7.9,94,7.9,84.5c0-9.5,3.7-18.5,10.5-25.2c6.8-6.8,15.7-10.5,25.3-10.5
		c9.2,0,17.8,3.4,24.4,9.7l-3.8,3.8L81,65.4l-3.7-16l-3.5,3.5c-8.1-7.8-18.7-12-30-12c-11.7,0-22.7,4.6-30.9,12.8
		c-17,17-17.1,44.7-0.1,61.6c8.2,8.2,19.1,12.7,30.7,12.7c11.7,0,22.7-4.6,30.9-12.8c5.4-5.4,9.3-12.1,11.3-19.3
		c0.1-0.4,0.1-0.9-0.2-1.3C85.2,94.2,84.8,93.9,84.4,93.8z"/>
</g>
</svg>
