<?xml version="1.0" encoding="utf-8"?>
<!-- Generator: Adobe Illustrator 23.0.0, SVG Export Plug-In . SVG Version: 6.00 Build 0)  -->
<svg version="1.1" id="Layer_1" xmlns="http://www.w3.org/2000/svg" xmlns:xlink="http://www.w3.org/1999/xlink" x="0px" y="0px"
	 viewBox="0 0 128 128" style="enable-background:new 0 0 128 128;" xml:space="preserve">
<style type="text/css">
	.st0{fill:#2D2D2D;}
</style>
<g>
	<path class="st0" d="M51.6,62.3c0.3,0.2,0.6,0.2,1,0.2c0.3-0.1,0.7-0.2,0.9-0.5c0.3-0.2,0.6-0.5,0.8-0.8l0.3-0.5
		c0.3-0.8,0.6-1.7,0.9-2.5c0.4-1.1,0.9-2.2,1.3-3.4c0.4-1.2,0.8-2.3,1.1-3.5c0.3-1.1,0.6-2.2,0.8-3.3c-0.1,0-0.1-0.1-0.2-0.1
		c-0.2-0.2-0.4-0.4-0.6-0.7c-0.2-0.3-0.3-0.7-0.4-1c-0.9,2.1-1.9,4.3-2.9,6.4c-0.3,0.6-0.6,1.2-0.9,1.8c-0.2,0.3-0.3,0.6-0.4,0.9
		c-0.1,0.3-0.2,0.6-0.4,0.9c-0.5,1.2-0.9,2.5-1.2,3.7c-0.2,0.7-0.4,1.3-0.6,2C51.3,62.1,51.4,62.2,51.6,62.3z"/>
	<path class="st0" d="M96.2,25.2c0,0.3,0,0.6,0,0.9c-0.1,1.4-0.3,2.7-0.5,4c-0.3,1.3-0.7,2.6-1.2,3.8c0.1,1.9-0.2,3.7-0.5,5.5
		c-0.3,1.8-0.7,3.6-1.1,5.4c-0.9,3.6-1.9,7.1-3.2,10.6c-0.3,0.7-0.5,1.4-0.8,2.1c0.8-1.8,1.6-3.6,2.3-5.5l1.8-4.4
		c0.6-1.5,1.2-3,1.8-4.5c0.6-1.5,1.1-3,1.5-4.6c0.2-0.8,0.4-1.6,0.5-2.4l0.5-2.3c0.3-1.5,0.6-3.1,0.6-4.6c0-0.8-0.1-1.5-0.3-2.2
		C97.3,26.4,96.8,25.7,96.2,25.2z"/>
	<path class="st0" d="M41.4,99.4l3.6-6.3c2.3-3.9,4.5-7.9,6.9-11.7c0,0,0,0,0,0c-0.7,0.4-1.4,0.8-2.2,1c-0.4,0.1-0.8,0.2-1.2,0.1
		c-0.4,0-0.9-0.1-1.2-0.4c-0.3-0.4-0.4-0.8-0.4-1.2c0,0,0-0.1,0-0.1c-1.7,3.4-3.4,6.9-5.1,10.2c-0.9,1.7-1.8,3.5-2.8,5.2l-2.8,5.2
		c-0.9,1.7-1.9,3.4-2.9,5.1l-3,5.1l-3,5.1c-1,1.7-2,3.4-3.1,5c-0.8,2-1.5,4.1-2,6.2c1.6-1.3,3.2-2.7,4.7-4.1
		c0.9-0.8,1.7-1.7,2.4-2.5c0.3-0.4,0.6-0.9,0.9-1.5l0.9-1.6c2.4-4.2,4.6-8.4,6.9-12.6L41.4,99.4z"/>
	<path class="st0" d="M73.5,51.8L73.5,51.8c0.5-0.9,1-1.7,1.5-2.6l0.1-0.1l0.1-0.1c1.2-1.2,2.1-2.7,2.9-4.3c0.8-1.6,1.4-3.2,2-4.9
		c0.1-0.3,0.2-0.7,0.3-1c-0.2,0.2-0.3,0.4-0.5,0.6c-0.5,0.5-1.1,0.9-1.8,1.3c-0.7,0.3-1.4,0.6-2.1,0.8c-0.4,0.1-0.8,0.1-1.2,0
		c-0.2,0-0.4-0.1-0.7-0.2c0,0.1-0.1,0.1-0.1,0.2c0.2,1,0.3,1.9,0.3,2.9c0.1,1.2,0,2.5-0.1,3.7C74.1,49.3,73.9,50.6,73.5,51.8z"/>
	<path class="st0" d="M101.1,16.2c0-0.1-0.1-0.2-0.2-0.2c-0.1-0.1-0.4-0.2-0.7-0.4c-0.1-0.1-0.3-0.2-0.4-0.4
		c-0.1-0.2-0.2-0.4-0.2-0.5c0-0.2,0-0.4,0-0.4c0-0.1,0-0.2-0.1-0.3c-0.1-0.5-0.4-0.9-0.6-1.4c-0.1-0.2-0.2-0.5-0.4-0.7
		c0,0,0,0,0-0.1c-0.6,0.3-1.1,0.6-1.6,0.9c-0.4,0.3-0.8,0.6-1.2,1c-0.4,0.4-0.7,0.7-1,1.1c-0.3,0.4-0.5,0.8-0.6,1.3
		c-0.1,0.4,0,0.9,0.3,1.2c0.2,0.3,0.8,0.5,1.3,0.6c0.5,0.1,1,0.1,1.6,0c1-0.2,2.1-0.5,3-1.1C100.6,16.6,100.9,16.4,101.1,16.2z"/>
	<path class="st0" d="M84.3,75c0,0-0.1,0-0.2,0c-0.4-0.1-0.8-0.2-1.2-0.4c-1.6-0.6-2.8-1.4-4.3-1.7l0,0l0,0
		c-0.6-0.2-1.2-0.3-1.8-0.4c-0.6-0.1-1.2-0.2-1.8-0.2c-0.6,0-1.2-0.1-1.9-0.1l-1.6,0c-0.4,0.2-0.8,0.4-1.3,0.6
		c-0.4,0.2-0.9,0.4-1.3,0.5c-0.4,0.2-0.9,0.3-1.4,0.4c-0.1,0-0.2,0.1-0.3,0.1c-0.1,0-0.2,0.1-0.3,0.1c0,0,0,0,0,0
		c-0.5,0.4-1,0.8-1.5,1.2c-0.3,0.2-0.6,0.5-1,0.7L64.1,76c-0.1,0.1-0.2,0.1-0.2,0.2c-0.1,0.1-0.2,0.2-0.2,0.4
		c-0.1,0.3-0.1,0.6,0,0.8c0.1,0.2,0.4,0.7,0.5,0.9c0,0,0.1,0,0.1,0c0,0,0,0,0,0c0,0,0,0,0,0l0.1,0l0.1-0.1l1-0.7
		c0.7-0.5,1.3-0.9,2-1.3c0.7-0.4,1.4-0.8,2.2-1.2c0.1,0,0.2-0.1,0.4-0.1l0.1,0l0.2,0l0.1,0c0.2,0,0.4-0.1,0.6-0.1
		c0.4-0.1,0.8-0.1,1.2-0.2c0.8-0.1,1.7-0.2,2.6,0c0.5,0.1,0.8,0.2,1.2,0.3c0.4,0.1,0.8,0.2,1.2,0.4c0.8,0.3,1.5,0.6,2.2,1
		c0.7,0.4,1.4,0.8,2.1,1.2l0.5,0.3c0.2,0.1,0.3,0.2,0.5,0.2c0.3,0.1,0.7,0,0.9-0.3c0.1-0.1,0.2-0.3,0.3-0.4l0.2-0.6
		c0.1-0.2,0.1-0.4,0.2-0.6l0.1-0.3c0-0.1,0.1-0.2,0.1-0.2c0-0.1,0-0.2-0.1-0.3C84.4,75.1,84.3,75.1,84.3,75z"/>
	<path class="st0" d="M40.9,90.7c1.9-3.4,3.9-6.8,5.9-10.1c0-0.3,0-0.5,0.1-0.8c0.2-1.5,0.7-3,1.1-4.5c0.1-0.8,0.2-1.6,0.3-2.4
		c-0.6,1.4-1.3,2.8-2,4.2c-0.4,0.8-0.9,1.6-1.3,2.4c-0.4,0.8-0.9,1.6-1.4,2.4c-1,1.6-2.1,3.1-3,4.6c-0.9,1.6-1.8,3.2-2.6,4.9
		c-0.8,1.7-1.6,3.3-2.5,4.9c-0.9,1.6-1.7,3.2-2.6,4.8l-1.4,2.4l-0.3,0.6l0,0.1c0,0,0,0,0,0c0,0,0,0,0,0.1l-0.1,0.3
		c-0.1,0.4-0.2,0.9-0.2,1.3c-0.1,0.9-0.3,1.8-0.4,2.7c-0.1,0.5-0.1,0.9-0.2,1.4c0,0,0,0.1,0,0.1c1.6-3.1,3.2-6.2,4.9-9.2
		C37,97.5,38.9,94.1,40.9,90.7z"/>
	<path class="st0" d="M63,53.2c-0.1,0.2-0.1,0.5-0.2,0.7c-0.1,0.2-0.1,0.5-0.2,0.7c-0.2,0.5-0.3,0.9-0.6,1.4c-0.4,0.8-1,1.6-1.7,2.2
		l0.1,0.1c0.2,0.3,0.6,0.2,1,0c0.4-0.2,0.8-0.4,1.1-0.7c0.7-0.6,1.2-1.3,1.5-2.1l0.2-0.5l0,0c0.1-0.2,0.1-0.4,0.2-0.6
		c0.3-0.8,0.7-1.6,0.9-2.5c0.3-0.8,0.4-1.7,0.5-2.6c0.1-0.8,0.1-1.6,0.1-2.4c-0.6,0.3-1.2,0.6-1.9,0.7c-0.2,0-0.4,0-0.6,0
		c0.1,0.9,0,1.7-0.1,2.6C63.4,51.3,63.2,52.2,63,53.2z"/>
	<path class="st0" d="M65.5,54.9c-0.1,0.2-0.2,0.4-0.3,0.6c0,0,0,0,0,0c0.1,0,0.2,0,0.4,0c0.2,0,0.5-0.1,0.7-0.2
		c0.2-0.1,0.5-0.3,0.7-0.4l0.3-0.3l0.3-0.3c0-0.1,0.1-0.3,0.1-0.4c0.1-0.5,0.3-0.9,0.4-1.4c0.1-0.2,0.1-0.5,0.2-0.7
		c0.1-0.2,0.1-0.5,0.2-0.7c0.1-0.2,0.1-0.5,0.2-0.7c0.1-0.2,0.1-0.5,0.2-0.7c0.2-1,0.2-1.9,0.2-2.9c0-0.9-0.1-1.7-0.3-2.6
		c0,0,0,0,0,0c-0.7,1.1-1.6,2-2.7,2.7c0,0,0,0,0,0c0.2,0.8,0.3,1.7,0.3,2.5c0,0.9,0,1.9-0.2,2.8C66.1,53.1,66,54.1,65.5,54.9z"/>
	<path class="st0" d="M105.6,59.8c-0.2-0.3-0.5-0.6-0.8-0.7c-0.2,0-0.3,0-0.5,0l-0.7,0.1l-1.4,0.2c-1.9,0.3-3.7,0.8-5.6,1.2
		c-3.7,0.9-7.3,2.1-10.6,4c-0.2,0.1-0.4,0.6-0.5,0.9c-0.4,0.8-0.8,1.7-1.3,2.5c-0.4,0.7-0.9,1.3-1.6,1.9c0.1,0,0.1,0,0.2,0
		c0.2,0,0.3,0,0.5,0.1c0.7,0.1,1.3,0.3,1.9,0.6c0.3,0.2,0.6,0.4,0.8,0.6c0.3,0.2,0.5,0.4,0.8,0.5c0.3,0.1,0.6,0.2,0.8,0.4
		c1.5-1,3.1-1.9,4.8-2.7c0.9-0.4,1.8-0.8,2.7-1.2c0.9-0.4,1.8-0.7,2.7-1c0.9-0.3,1.9-0.6,2.8-0.8l1.4-0.3c0.4-0.1,0.9-0.2,1.3-0.4
		c0.8-0.4,1.5-1.1,2-1.9c0.5-0.8,0.7-1.8,0.6-2.7c0-0.2,0-0.5-0.1-0.7C105.7,60.2,105.7,60,105.6,59.8z"/>
	<path class="st0" d="M59.4,72.9c-1,1.2-1.9,2.3-2.9,3.5c-0.3,0.7-0.7,1.4-1.2,2c-0.5,0.6-1,1.2-1.6,1.7c-0.5,0.4-1,0.8-1.5,1.2
		c-2.1,4.1-4.2,8.3-6.4,12.4l-3.3,6.4l-3.4,6.3c-2.3,4.1-4.6,8.3-7,12.4c1-0.5,2.1-1,3-1.7c0.2-0.2,0.5-0.4,0.7-0.5
		c0.2-0.2,0.3-0.4,0.5-0.6c0.3-0.5,0.6-0.9,0.9-1.4c1.1-2,2.2-4.1,3.4-6.1c0.6-1,1.2-2,1.9-3c0.3-0.5,0.7-1,1-1.5l1-1.4l1-1.4l1-1.4
		c0.7-1,1.3-1.9,1.9-2.9c1.2-2,2.3-4.1,3.3-6.2c0.5-1.1,1-2.1,1.4-3.2c0.2-0.5,0.5-1.1,0.7-1.6c0.2-0.5,0.5-1.1,0.7-1.6
		C56.3,80.4,57.9,76.7,59.4,72.9z"/>
	<path class="st0" d="M54.6,62.3C54.5,62.3,54.5,62.3,54.6,62.3c-0.3,1.7-0.6,3.3-1,4.9c-0.4,1.7-0.9,3.5-1.4,5.2
		c-0.5,1.7-1,3.5-1.7,5.1l-0.6,1.2c-0.2,0.4-0.4,0.8-0.6,1.2c-0.4,0.7-0.8,1.4-1.2,2.1c0.1,0,0.2,0,0.4,0c0.4,0,0.7-0.1,1.1-0.2
		c1.1-0.3,2-0.9,2.9-1.6c0.3-1.5,0.8-2.9,1.1-4.4c0.4-1.7,1.1-3.3,1.5-5c0.5-1.7,0.9-3.4,1.3-5.1c0.4-1.6,0.7-3.1,1.1-4.7
		c-0.4,0.3-0.8,0.6-1.3,0.9c-0.3,0.2-0.6,0.3-1,0.3C55.1,62.4,54.8,62.4,54.6,62.3C54.6,62.3,54.6,62.3,54.6,62.3z"/>
	<path class="st0" d="M63.1,66.4c0.3-0.7,0.5-1.3,0.8-1.9c0.4-1.1,1.1-2.2,1.5-3.3c0.5-1.1,0.9-2.2,1.4-3.4c0.2-0.6,0.5-1.2,0.7-1.9
		c-0.2,0.2-0.4,0.3-0.7,0.4c-0.4,0.2-0.8,0.3-1.2,0.3c-0.2,0-0.4,0-0.6-0.1c0,0,0,0-0.1,0c-0.4,0.7-1,1.4-1.7,1.9
		c-0.1,0.1-0.3,0.2-0.5,0.3c-0.2,1.2-0.4,2.5-0.6,3.7c-0.3,1.5-0.7,2.9-1.1,4.3c-0.4,1.4-0.8,2.9-1.4,4.2c0.4-0.5,0.9-1.1,1.3-1.6
		C61.6,68.4,62.4,67.4,63.1,66.4z"/>
	<path class="st0" d="M78.1,16.9c0.6,0.1,1.1,0.4,1.6,0.6c0.9,0.6,1.8,1.3,2.4,2.2c0.1,0.2,0.2,0.4,0.4,0.6c0.2-0.4,0.4-0.6,0.6-0.9
		c0.3-0.4,0.6-0.7,0.9-1c0-0.1,0-0.1,0-0.2c-0.2-0.2-0.5-0.3-0.8-0.5c-0.4-0.2-0.7-0.5-1-0.9c-0.2-0.2-0.4-0.5-0.5-0.8
		c-0.1-0.3-0.1-0.7,0-1c0.1-0.3,0.2-0.6,0.4-0.8c0.1-0.1,0.1-0.1,0.2-0.2c-0.1-0.1-0.1-0.3-0.2-0.4c-0.2-0.3-0.3-0.5-0.5-0.7
		l-0.8-0.7l1-0.3c0.2-0.1,0.4-0.2,0.6-0.4c0.2-0.2,0.4-0.4,0.6-0.6c0.4-0.5,0.8-1,1.1-1.5l0,0c0.3-0.5,0.6-1,1-1.4
		c0.4-0.4,0.9-0.7,1.4-0.9C87,7,87.6,6.9,88.1,6.8c0.5-0.1,1-0.1,1.5-0.3c0.8-0.9,1.7-1.8,2.8-2.5c1.1-0.7,2.4-1.1,3.8-1
		c1.3,0,2.6,0.5,3.7,1.2c0.3,0.2,0.5,0.4,0.8,0.5c0.1,0.1,0.4,0.1,0.7,0.1c0.6-0.1,1.2-0.2,1.8-0.4l0,0c0,0,0.1,0,0.1,0
		c0,0,0,0.1,0,0.1c-0.5,0.3-1.1,0.6-1.7,0.8c-0.2,0-0.3,0.1-0.5,0.1c-0.2,0-0.4,0-0.6-0.1c-0.3-0.2-0.6-0.3-0.8-0.4
		c-0.5-0.3-1.1-0.4-1.6-0.6c-0.6-0.1-1.1-0.2-1.7-0.2c-1.1,0-2.2,0.3-3.3,0.8c-1.1,0.5-2.1,1.2-3,2L89.8,7l-0.1,0
		c-0.3,0.1-0.6,0.1-0.8,0.1c-0.3,0-0.5,0.1-0.8,0.1c-0.5,0.1-1,0.2-1.5,0.4c-0.5,0.2-0.9,0.5-1.2,0.9c-0.3,0.4-0.6,0.8-0.7,1.3l0,0
		c-0.3,0.6-0.6,1.2-1,1.8c-0.2,0.3-0.4,0.6-0.7,0.8c-0.1,0.1-0.2,0.2-0.3,0.2c0.1,0.1,0.2,0.2,0.2,0.3c0.1,0.2,0.2,0.3,0.3,0.5
		c0.1,0.2,0.2,0.3,0.3,0.5l0.2,0.4l-0.4,0.3c-0.1,0.1-0.2,0.2-0.3,0.3c-0.1,0.1-0.1,0.2-0.1,0.3c0,0.1,0,0.1,0,0.2
		c0,0.1,0.1,0.2,0.2,0.3c0.2,0.3,0.5,0.5,0.8,0.7l0.5,0.4c0.2,0.1,0.4,0.3,0.6,0.5c0.1,0.1,0.2,0.3,0.3,0.5c0.1,0.2,0,0.6-0.1,0.8
		c-0.1,0.2-0.2,0.3-0.3,0.4c-0.1,0.1-0.2,0.2-0.3,0.2c-0.3,0.3-0.7,0.5-1,0.8c-0.3,0.2-0.6,0.5-0.8,0.8c0,0.1-0.1,0.1-0.1,0.2
		c0.2,0.6,0.4,1.2,0.5,1.7c0.4,2.2,0.1,4.4-0.5,6.5c0,0.5,0,0.9,0,1.3c0,0.5-0.1,0.9-0.1,1.4c-0.1,0.9-0.2,1.8-0.4,2.7
		c-0.3,1.8-0.7,3.6-1.2,5.3c-0.5,1.7-1.2,3.5-2,5.1c-0.8,1.6-1.8,3.2-3,4.6c-1.3,2.5-2.8,4.8-4.3,7.1c-1.6,2.3-3.2,4.5-4.9,6.7
		c-1.4,1.9-2.9,3.7-4.4,5.5c0.6,0.7,1.2,1.4,1.7,2c0.3,0.4,0.5,0.7,0.8,1.1c0.3,0.3,0.6,0.7,1,1c0.2,0.1,0.4,0.2,0.6,0.3
		c0.1,0,0.1,0,0.1,0c0,0,0,0,0,0c0.1-0.1,0.2-0.2,0.3-0.3c0.4-0.3,0.8-0.7,1.3-0.9c0.9-0.3,1.8-0.5,2.8-0.4c0.5-0.1,1.1-0.2,1.7-0.3
		c0.4-0.1,0.7-0.1,1.1-0.1c0.8-0.4,1.7-0.8,2.5-1.1l0,0l0.1,0c1.7,0.4,3.7,0.3,5-0.7c0.7-0.5,1.2-1.3,1.6-2c0.4-0.8,0.8-1.6,1.2-2.4
		c0.7-1.7,1.3-3.4,2-5.1l1-2.6c0.3-0.8,0.6-1.7,0.9-2.6c1.2-3.4,2.2-7,3.1-10.5c0.4-1.8,0.9-3.6,1.2-5.3c0.3-1.8,0.6-3.6,0.6-5.4
		l0-0.1l0-0.1c1.1-2.4,1.8-4.9,2.1-7.6c0.2-1.3,0.2-2.6,0.2-4c0-0.8-0.1-1.7-0.2-2.5c-0.1-0.7-0.6-1.3-1.3-1.5
		c-1.1-0.3-2.8-0.9-3.6-1.6c-0.7-0.6-1.4-1.4-1.8-2.3c-0.2-0.5-0.3-1-0.4-1.5c0-0.5,0.1-1.1,0.4-1.6c0.2-0.2,0.3-0.5,0.6-0.6
		c0.2-0.2,0.4-0.3,0.6-0.4c0.4-0.2,0.9-0.4,1.5-0.4c0.5,0,1,0.1,1.4,0.1c0.4,0.1,0.9,0.2,1.3,0.2c1.7,0.3,3.5-0.1,5-1l0,0
		c0,0,0.1,0,0.1,0c0,0,0,0.1,0,0.1c-1.4,1.1-3.3,1.7-5.1,1.6c-0.9,0-1.8-0.2-2.6-0.1c-0.4,0.1-0.7,0.2-1,0.4
		c-0.2,0.1-0.3,0.2-0.5,0.4c-0.1,0.1-0.2,0.2-0.3,0.4c-0.3,0.6-0.1,1.3,0.2,2c0.3,0.7,0.8,1.3,1.4,1.9c0.7,0.7,1.4,1.2,2.3,1.7
		c-0.2-0.4-0.3-0.8-0.3-1.3c0-0.6,0.3-1.2,0.6-1.7c0.6-1,1.4-1.8,2.3-2.5c0.5-0.3,0.9-0.7,1.4-0.9c0.3-0.1,0.5-0.3,0.8-0.4
		c0.1-0.1,0.3-0.1,0.4-0.1c0.1,0,0.1,0,0.2-0.1l0.2,0c0.4-0.1,0.8-0.3,1.3-0.6c0.4-0.3,0.9-0.6,1.3-0.9c0.8-0.7,1.6-1.4,2.5-2.1
		c-0.3-1-0.9-1.8-1.6-2.5c-0.7-0.7-1.6-1.3-2.5-1.8c-1.8-1-3.7-1.7-5.7-2c-2-0.3-4.1-0.3-6,0.2c-2,0.5-3.9,1.5-5.3,3l0,0l0,0
		c-0.8,0.6-1.5,1.3-2,2.1c-0.6,0.8-1,1.7-1.5,2.5c-0.4,0.9-0.9,1.7-1.3,2.6c-0.4,0.9-0.8,1.8-1.1,2.7l0,0.1l0,0
		c-1.2,1.4-2.4,2.7-3.7,4.1c0.8-0.4,1.7-0.7,2.7-0.9C77,16.8,77.5,16.8,78.1,16.9z M93.9,5.6c0.2-0.7,1.1-1.1,1.8-0.9
		c0.8,0.3,1.2,1.1,0.9,1.8c-0.2,0.7-1.1,1.1-1.8,0.9C94,7.1,93.6,6.3,93.9,5.6z M91.7,6.8c0.8,0,1.5,0.2,2.2,0.6
		c0.4,0.2,0.6,0.3,1,0.4c0.3,0.1,0.7,0.2,1,0.2c0.7,0,1.4-0.1,2.1-0.3c-0.6,0.4-1.3,0.7-2.1,0.8c-0.4,0-0.8,0-1.2-0.1
		C94.3,8.2,94,8,93.7,7.9c-0.6-0.3-1.3-0.5-2-0.6c-0.7-0.1-1.4,0-2.1,0.3C90.1,7,90.9,6.8,91.7,6.8z M96,9.6c-0.4,0-0.8,0-1.1-0.1
		c-0.4-0.1-0.7-0.3-1-0.4c-0.6-0.3-1.2-0.5-1.9-0.6c-0.7-0.1-1.3,0-2,0.3c0.5-0.6,1.3-0.8,2-0.8c0.8,0,1.5,0.2,2.2,0.6
		c0.3,0.2,0.6,0.3,0.9,0.4c0.3,0.1,0.6,0.2,1,0.2c0.7,0.1,1.4-0.1,2-0.3C97.5,9.3,96.8,9.6,96,9.6z M102.9,6.8
		c-0.3,0.3-0.7,0.4-0.9,0.2c-0.2-0.2-0.2-0.6,0.1-0.9c0.3-0.3,0.7-0.4,0.9-0.2C103.2,6.1,103.2,6.5,102.9,6.8z"/>
	<path class="st0" d="M59.5,47.5c0.4,0,0.8-0.2,1.2-0.4c0.4-0.2,0.8-0.5,1.2-0.8l0.4-0.3l0.3,0.4c0.1,0.1,0.3,0.3,0.6,0.4
		c0.3,0.1,0.6,0.1,0.9,0.1c0.6,0,1.3-0.1,1.9-0.4c0.6-0.3,1.2-0.7,1.6-1.2c0.5-0.5,0.8-1.1,1.1-1.7l0.2-0.4l0.3,0.4
		c0.3,0.4,0.7,0.5,1.2,0.3c0.4-0.2,0.9-0.5,1.2-0.9c0.7-0.8,1.3-1.8,1.8-2.8l0.3-0.6l0.6,0.4c0.4,0.3,1,0.3,1.6,0.3
		c0.6-0.1,1.3-0.2,1.9-0.5c0.6-0.2,1.2-0.6,1.8-0.9c0.4-0.3,0.8-0.6,1.1-0.9c0.3-1.1,0.6-2.2,0.8-3.4c0.2-0.9,0.3-1.8,0.4-2.6
		c0.1-0.9,0.2-1.8,0.2-2.6l0-0.1l0-0.1c0.6-2,1-4.1,0.7-6.2c-0.2-1-0.5-2-1.1-2.9c-0.6-0.9-1.3-1.6-2.2-2.1
		c-0.5-0.3-0.9-0.5-1.4-0.6c-0.5-0.1-1-0.1-1.5-0.1c-1,0.1-2,0.5-3,1c-0.9,0.5-1.8,1.1-2.6,1.8c-0.8,0.7-1.6,1.4-2.4,2.2
		c-1.5,1.5-2.8,3.2-3.9,5c-1,1.9-1.8,3.9-2.5,5.9c-1.4,4-2.8,8.1-4.1,12.2l0,0l0,0c-0.1,0.2-0.2,0.4-0.2,0.6c0.2,0.4,0.4,0.7,0.6,1
		C58.7,47.3,59.1,47.5,59.5,47.5z"/>
	<path class="st0" d="M86.5,72.1c-0.6-0.3-1.2-0.3-1.9-0.5c-0.6-0.1-1.2-0.4-1.7-0.6c-0.4-0.2-0.8-0.4-1.2-0.5
		c-0.7,0.4-1.5,0.6-2.3,0.6c-0.9,0-1.9-0.1-2.7-0.4c-0.7,0.3-1.5,0.5-2.3,0.8c0.2,0,0.3,0,0.5,0c0.6,0,1.3,0,2,0
		c0.7,0.1,1.3,0.2,2,0.3l-0.1,0c0.8,0.1,1.7,0.4,2.4,0.7c0.8,0.3,1.5,0.7,2.1,1.1c0.3,0.2,0.7,0.4,1,0.5c0.1,0,0.2,0.1,0.4,0.2
		c0.1,0.1,0.2,0.2,0.3,0.3c0.1,0.1,0.1,0.2,0.1,0.4c0.2-0.1,0.4-0.2,0.7-0.2c0.4-0.1,0.7,0,1.1,0c0.3,0.1,0.7,0.2,1,0.3
		c0,0,0.1,0,0.1,0.1l0.3-0.5l0.1-0.1l0-0.1c0,0,0-0.1,0.1-0.1c0-0.1,0.1-0.2,0.1-0.3c0.1-0.4-0.1-0.8-0.5-1.2
		C87.6,72.7,87.1,72.3,86.5,72.1z"/>
	<path class="st0" d="M48.1,75.3C48.1,75.4,48.1,75.4,48.1,75.3c-0.3,1.5-0.8,3-0.9,4.5c0,0.4,0,0.7,0,1.1c0,0.4,0.1,0.7,0.4,0.9
		c0.1,0.1,0.2,0.1,0.3,0.2c0.5-1.7,1-3.3,1.6-4.9c0.6-1.7,1.3-3.3,1.9-5c0.6-1.7,1.2-3.4,1.7-5.1c0.5-1.5,0.9-3.1,1.3-4.6
		c-0.1,0.1-0.2,0.2-0.4,0.3c-0.4,0.3-0.9,0.5-1.4,0.5c-0.5,0-1-0.2-1.4-0.6c0-0.1-0.1-0.1-0.1-0.2c-0.5,1.7-0.9,3.4-1.3,5.1
		C49.1,70.1,48.5,72.7,48.1,75.3C48.1,75.3,48.1,75.3,48.1,75.3z"/>
	<path class="st0" d="M73.4,42.3c-0.4,0.5-0.8,1-1.2,1.4c-0.5,0.4-1,0.8-1.7,1c-0.3,0.1-0.7,0.1-1.1-0.1c-0.1,0-0.2-0.1-0.2-0.1
		c0.3,0.7,0.5,1.5,0.6,2.3c0.1,1,0.2,2,0.1,3.1c-0.1,1-0.2,2.1-0.6,3c-0.2,0.5-0.5,0.9-0.8,1.4l0,0.1c0.1,0.1,0.2,0.3,0.4,0.4
		c0.1,0.1,0.3,0.2,0.5,0.3c0.3,0.2,0.8,0.2,1.2,0.1c0.3-0.1,0.6-0.2,0.9-0.3c0,0,0,0,0,0c0,0,0,0,0-0.1l0,0c0.4-1.2,0.8-2.3,1.1-3.5
		c0.3-1.2,0.7-2.3,0.9-3.5c0.2-1.2,0.3-2.4,0.4-3.6c0-0.8,0-1.7,0-2.6C73.6,41.9,73.5,42.1,73.4,42.3z"/>
	<path class="st0" d="M101.3,10.4c-0.5,0.4-1,0.7-1.6,0.9c-0.3,0.1-0.5,0.1-0.7,0.2c0.2,0.2,0.4,0.4,0.6,0.6
		c0.2,0.2,0.4,0.5,0.5,0.7c0.2,0.3,0.3,0.5,0.4,0.8c0,0.2,0.1,0.3,0.1,0.5c0,0.2,0,0.3,0,0.4c0,0.2,0.1,0.3,0.2,0.5
		c0.1,0.2,0.4,0.4,0.6,0.7c0,0.1,0,0.1,0.1,0.2c0.4-0.4,0.8-0.9,1-1.4l0.6-1.3l0.2,1.4c0.1,0.7,0.1,1.4-0.1,2.1
		c-0.2,0.7-0.4,1.3-0.7,1.9c-0.2,0.3-0.3,0.6-0.5,0.9c0.4-0.3,0.9-0.6,1.2-1c1-1,1.8-2.2,2.3-3.6c0.5-1.4,0.6-2.8,0.6-4.3
		c0-0.7-0.1-1.5-0.3-2.1c-0.1-0.3-0.2-0.7-0.4-1c-0.2-0.3-0.4-0.6-0.7-0.8c-0.6,0.9-1.2,1.8-2,2.6C102.2,9.7,101.8,10.1,101.3,10.4z
		"/>
	<path class="st0" d="M77,76.1c-0.4-0.1-0.8-0.2-1.1-0.3c-0.4-0.1-0.8-0.2-1.1-0.2c-0.7-0.1-1.5,0-2.2,0.1c-0.4,0.1-0.8,0.2-1.2,0.2
		c-0.2,0-0.4,0.1-0.6,0.1l-0.2,0l0,0l0,0c-0.1,0-0.1,0-0.2,0.1c-0.3,0.1-0.7,0.3-1,0.5c-0.3,0.2-0.7,0.4-1,0.6l-2.1,1.2l-0.1,0.1
		L66,78.9l-0.3,0.8c-0.2,0.6-0.4,1.1-0.6,1.7c-0.5,1.1-1,2.2-1.6,3.2c-1.2,2-2.8,3.9-4.5,5.6c-0.9,0.8-1.8,1.5-2.8,2.2
		c-0.5,0.3-1,0.7-1.5,1c-0.2,0.2-0.6,0.3-0.6,0.4c-0.1,0.1,0,0.4,0.2,0.4c0.1,0,0.2,0,0.4,0l0.4,0l0.9,0c0.6,0,1.2,0,1.8-0.1
		c1.2,0,2.4-0.1,3.5-0.2c1.2-0.1,2.4-0.2,3.5-0.2c0.6,0,1.1-0.1,1.7-0.2c0.5-0.1,1-0.3,1.5-0.5c0.9-0.5,1.7-1.3,2.2-2.2
		c0.3-0.5,0.4-0.9,0.7-1.5c0.2-0.6,0.5-1.1,0.7-1.6c1-2.2,2.2-4.3,3.7-6.2c0.7-0.9,1.6-1.8,2.5-2.6c0.8-0.7,1.6-1.2,2.6-1.6
		c-0.3-0.1-0.6-0.3-1-0.4C78.5,76.5,77.8,76.3,77,76.1z"/>
	<path class="st0" d="M62.2,47.3c-0.3,0.2-0.6,0.5-1,0.6c-0.3,0.1-0.5,0.2-0.8,0.3c-0.3,0.1-0.6,0.1-0.9,0c-0.2,0-0.4-0.1-0.5-0.2
		c-0.1,1.1-0.3,2.2-0.4,3.3c-0.2,1.2-0.5,2.4-0.8,3.6c-0.3,1.2-0.6,2.4-1.2,3.6c-0.4,0.8-0.9,1.6-1.5,2.4l0.1,0.4c0,0,0,0,0,0
		c0,0,0.1,0,0.1,0c0.2,0,0.5-0.1,0.7-0.2c0.5-0.2,1-0.4,1.5-0.7c0.5-0.3,1-0.6,1.4-1c0.4-0.4,0.9-0.8,1.2-1.3l0.1-0.1
		c0.2-0.9,0.6-1.7,0.9-2.6c0.3-0.9,0.8-1.7,1.1-2.6c0.3-0.9,0.6-1.8,0.8-2.8c0.2-0.8,0.3-1.7,0.4-2.5c-0.1,0-0.3,0-0.4-0.1
		C62.7,47.6,62.4,47.5,62.2,47.3z"/>
	<path class="st0" d="M69,55.9c-0.3-0.1-0.5-0.2-0.7-0.4c-0.1,0-0.1-0.1-0.2-0.1c-0.1,0.1-0.2,0.2-0.3,0.3c-0.2,0.8-0.3,1.6-0.5,2.4
		c-0.3,1.2-0.7,2.4-1.1,3.5c-0.1,0.4-0.3,0.9-0.4,1.3c0,0,0-0.1,0.1-0.1c1.6-2.2,3.2-4.4,4.8-6.7c0.1-0.1,0.1-0.2,0.2-0.2
		c-0.1,0-0.1,0-0.2,0.1C70.2,56,69.6,56.1,69,55.9z"/>
	<path class="st0" d="M54.7,77.9c0.4-0.6,0.8-1.2,1-1.9l0-0.1l0.1-0.1c0.6-0.8,1.2-1.6,1.9-2.4c0.3-1,0.6-1.9,0.9-2.9
		c0.4-1.4,1.1-2.7,1.5-4.1c0.5-1.4,0.9-2.8,1.4-4.2c0.3-1.1,0.7-2.3,1-3.4c-0.2,0.1-0.5,0.2-0.8,0.2c-0.3,0-0.5,0.1-0.8,0
		c-0.2,0-0.4-0.1-0.6-0.3c-0.4,0.4-0.7,0.7-1.1,1L57.8,61c0,0,0,0-0.1,0c-0.2,1.6-0.4,3.3-0.7,4.9c-0.3,1.7-0.7,3.4-1,5.2
		c-0.4,1.7-0.7,3.4-1.3,5.1l-0.5,1.2c-0.2,0.4-0.3,0.8-0.5,1.2c-0.1,0.3-0.3,0.6-0.5,1c0,0,0.1-0.1,0.1-0.1
		C53.8,79,54.3,78.5,54.7,77.9z"/>
</g>
</svg>
