<?xml version="1.0" encoding="utf-8"?>
<!-- Generator: Adobe Illustrator 18.1.0, SVG Export Plug-In . SVG Version: 6.00 Build 0)  -->
<svg version="1.1" baseProfile="tiny" id="Layer_1" xmlns="http://www.w3.org/2000/svg" xmlns:xlink="http://www.w3.org/1999/xlink"
	 x="0px" y="0px" viewBox="0 0 128 128" xml:space="preserve">
<g>
	<path fill="#2D2D2D" d="M59.5,108c0-9.9,1.1-18.3,1.1-18.4c0-0.4-0.1-0.7-0.4-0.9c-0.3-0.2-0.7-0.2-1.1,0c0,0-3.7,2.1-9.1,2.1
		c-5.4,0-9.1-2.1-9.1-2.1c-0.3-0.2-0.7-0.2-1,0c-0.3,0.2-0.5,0.6-0.4,0.9c0,0.1,1.1,9.4,1.1,18.4c0,9-1.1,16-1.1,16.1
		c-0.1,0.4,0.1,0.7,0.4,1c0.2,0.1,4.4,3,10.2,3c5.8,0,10-2.9,10.2-3c0.3-0.2,0.5-0.6,0.4-1C60.6,124,59.5,117.8,59.5,108z"/>
	<path fill="#2D2D2D" d="M94.6,93.4c-0.3-0.2-0.7-0.2-1,0c0,0-3.2,1.8-7.9,1.8c-4.7,0-7.9-1.8-7.9-1.8c-0.3-0.2-0.7-0.2-1.1,0
		c-0.3,0.2-0.5,0.6-0.4,0.9c0,0.1,1,7.4,1,16c0,8.6-1,14-1,14c-0.1,0.4,0.1,0.8,0.4,1c0.2,0.1,3.9,2.6,9,2.6c5.1,0,8.8-2.5,9-2.6
		c0.3-0.2,0.5-0.6,0.4-1c0-0.1-1-6.2-1-14.1c0-7.9,1-16,1-16.1C95.1,93.9,95,93.6,94.6,93.4z"/>
	<path fill="#2D2D2D" d="M59.5,68.2c0-9.9,1.1-18.3,1.1-18.4c0-0.4-0.1-0.7-0.4-0.9c-0.3-0.2-0.7-0.2-1.1,0c0,0-3.7,2.1-9.1,2.1
		c-5.4,0-9.1-2.1-9.1-2.1c-0.3-0.2-0.7-0.2-1,0c-0.3,0.2-0.5,0.6-0.4,0.9c0,0.1,0.9,7.9,1.1,16.1l-1.6-1.6c-0.5-1.4-3.3-9.3-10-15.8
		c-7.2-7.1-15.9-9.8-16.2-9.9c-0.4-0.1-0.7,0-1,0.2c-0.3,0.3-0.4,0.6-0.2,1c0.1,0.4,2.9,9,10,16c1.7,1.7,3.4,3.1,5.1,4.3
		c-0.6-0.1-1.2-0.2-1.7-0.2c-0.7-0.1-1.5-0.1-2.3-0.1c-6.5,0-11.5,2.1-11.8,2.2c-0.3,0.1-0.6,0.5-0.6,0.8c0,0.4,0.1,0.7,0.5,0.9
		c0.2,0.2,6,3.7,13.5,4.3c0.7,0.1,1.5,0.1,2.3,0.1c0,0,0,0,0,0c5.6,0,10.1-1.6,11.4-2l2.6,2.6c0,8.7-1.1,15.5-1.1,15.6
		c-0.1,0.4,0.1,0.7,0.4,1c0.2,0.1,4.4,3,10.2,3c5.8,0,10-2.9,10.2-3c0.3-0.2,0.5-0.6,0.4-1C60.6,84.2,59.5,78.1,59.5,68.2z"/>
	<path fill="#2D2D2D" d="M60.6,3.1C55,0,50.1-0.8,46.1,0.8c-5.4,2.2-7,7.9-7.1,8.2c-0.1,0.2,0,0.4,0,0.6c0,0.1,0,0.2,0,0.2
		c0,0.1,1.5,9.8,1.5,18.8c0,9-1.1,16-1.1,16.1c-0.1,0.4,0.1,0.8,0.5,1c0.2,0.1,4.4,2.6,10.2,2.6c5.8,0,10-2.5,10.2-2.6
		c0.4-0.2,0.5-0.6,0.5-1c0-0.1-1.1-6.2-1.1-16.1c0-9.9,1.5-24.1,1.5-24.2c0-0.1,0-0.1,0-0.2C61.1,3.8,61,3.3,60.6,3.1z M49.9,11.4
		c-0.6,0.1-1.2,0.2-1.9,0.2c-3.4,0-6-1.7-6.9-2.4c0.4-1.1,2-5,5.8-6.6c3.2-1.3,7.2-0.7,11.9,1.7C57.7,6,54.3,10.6,49.9,11.4z"/>
	<path fill="#2D2D2D" d="M43.3,7.2c-0.2,0.2-0.2,0.6-0.2,0.9c0.1,0.3,0.3,0.5,0.6,0.6c0.1,0,1.6,0.6,3.6,0.6c1,0,1.9-0.1,2.7-0.4
		c3.2-0.9,5.1-3.5,5.2-3.6c0.2-0.2,0.2-0.6,0.2-0.9c-0.1-0.3-0.3-0.5-0.6-0.6c-0.1,0-1.6-0.6-3.6-0.6c-1,0-1.9,0.1-2.7,0.4
		C45.4,4.5,43.4,7.1,43.3,7.2z"/>
	<path fill="#2D2D2D" d="M76.2,54.9c-0.1,0.4,0.1,0.8,0.5,1c0.2,0.1,3.9,2.3,8.9,2.3c5.1,0,8.8-2.2,8.9-2.3c0.3-0.2,0.5-0.6,0.5-1
		c0-0.1-1-6.2-1-14.1c0-7.8,1.3-16.3,1.3-16.4c0-0.2,0-0.4-0.1-0.5c0,0,0,0,0,0c-0.1-0.2-1.5-5.9-6.4-7.8c-3.5-1.4-7.7-0.5-12.5,2.5
		C76.2,18.8,76,19,76,19.3c0,0.1-0.1,0.3-0.1,0.4c0,0.1,1.3,12.5,1.3,21.2C77.2,49.5,76.3,54.9,76.2,54.9z M88.2,17.9
		c3.3,1.3,4.7,4.8,5.1,6.1c-0.9,0.6-3.1,1.9-5.8,1.9c-0.5,0-1.1-0.1-1.6-0.1c-3.7-0.7-6.5-4.4-7.6-5.9
		C82.2,17.5,85.5,16.9,88.2,17.9z"/>
	<path fill="#2D2D2D" d="M85.5,23.8c0.8,0.2,1.6,0.3,2.4,0.3c0,0,0,0,0,0c1.8,0,3.2-0.5,3.2-0.5c0.3-0.1,0.5-0.3,0.6-0.6
		c0.1-0.3,0-0.6-0.2-0.9c-0.1-0.1-1.8-2.4-4.6-3.2c-0.8-0.2-1.6-0.3-2.4-0.3c-1.8,0-3.2,0.5-3.2,0.5c-0.3,0.1-0.5,0.3-0.6,0.6
		c-0.1,0.3,0,0.6,0.2,0.9C81,20.7,82.7,23,85.5,23.8z"/>
	<path fill="#2D2D2D" d="M119.7,79.4c-0.2-0.1-4.5-1.9-9.9-1.9c-0.6,0-1.3,0-1.9,0.1c-0.3,0-0.6,0.1-0.9,0.1c1.3-0.9,2.6-2,3.8-3.2
		c6.1-6,8.4-13.2,8.5-13.5c0.1-0.3,0-0.7-0.2-1c-0.3-0.3-0.6-0.4-1-0.2c-0.3,0.1-7.7,2.4-13.7,8.4c-5.5,5.5-8,12-8.4,13.3l-1.5,1.5
		c-0.2-2.1-0.3-4.6-0.3-7.3c0-7.9,1-16,1-16.1c0-0.4-0.1-0.7-0.4-0.9c-0.3-0.2-0.7-0.2-1,0c0,0-3.2,1.8-7.9,1.8
		c-4.7,0-7.9-1.8-7.9-1.8c-0.3-0.2-0.7-0.2-1.1,0c-0.3,0.2-0.5,0.6-0.4,0.9c0,0.1,1,7.4,1,16c0,8.6-1,14-1,14
		c-0.1,0.4,0.1,0.8,0.4,1c0.2,0.1,3.9,2.6,9,2.6c5.1,0,8.8-2.5,9-2.6c0.3-0.2,0.5-0.6,0.4-1c0,0-0.3-1.6-0.5-4.2l2.4-2.3
		c1.2,0.4,4.9,1.7,9.5,1.7c0.6,0,1.3,0,1.9-0.1c6.4-0.5,11.2-3.5,11.4-3.7c0.3-0.2,0.5-0.5,0.5-0.9C120.3,79.9,120,79.5,119.7,79.4z
		"/>
</g>
</svg>
