<?xml version="1.0" encoding="utf-8"?>
<!-- Generator: Adobe Illustrator 18.1.0, SVG Export Plug-In . SVG Version: 6.00 Build 0)  -->
<svg version="1.1" baseProfile="tiny" id="Layer_1" xmlns="http://www.w3.org/2000/svg" xmlns:xlink="http://www.w3.org/1999/xlink"
	 x="0px" y="0px" viewBox="0 0 162 128" 
width="162" height="128"
xml:space="preserve">
<g>
	<path fill="#2D2D2D" d="M66,26.3h11c0.8,0,1.5,0.7,1.5,1.5v26.9h5.9V27.8c0-0.8,0.7-1.5,1.5-1.5h19.4c0.4,0,0.8,0.2,1.1,0.5
		l24.6,27.7c0.1,0.1,0.1,0.1,0.1,0.2h7.5l-29.6-33.8H66c-1.5,0-2.7,1.2-2.7,2.7C63.3,25.1,64.5,26.3,66,26.3z"/>
	<path fill="#2D2D2D" d="M158.1,66.2c1.6-2.7,2.9-5.5,4.1-8.5H8l1.7,8.5H158.1z"/>
	<path fill="#2D2D2D" d="M157.2,89.9c-5.4,0-10.5-2.1-14.6-5.7c3.2-2.3,11.7-9,14.9-16.3c-17.1,0-147.5,0-147.5,0l3.7,18.3
		c-3.6,2.4-7.7,3.8-12,3.8c-0.8,0-1.5,0.7-1.5,1.5c0,0.8,0.7,1.5,1.5,1.5c7.5,0,14.7-3.6,19.4-9.6c4.8,6.1,11.9,9.6,19.4,9.6
		c7.5,0,14.7-3.6,19.4-9.6c4.8,6.1,11.9,9.6,19.4,9.6c7.5,0,14.7-3.6,19.4-9.6c4.8,6.1,11.9,9.6,19.4,9.6c7.5,0,14.7-3.6,19.4-9.6
		c4.8,6.1,11.9,9.6,19.4,9.6c0.8,0,1.5-0.7,1.5-1.5C158.6,90.6,158,89.9,157.2,89.9z"/>
</g>
</svg>
