<?xml version="1.0" encoding="utf-8"?>
<!-- Generator: Adobe Illustrator 18.1.0, SVG Export Plug-In . SVG Version: 6.00 Build 0)  -->
<svg version="1.1" baseProfile="tiny" id="Layer_1" xmlns="http://www.w3.org/2000/svg" xmlns:xlink="http://www.w3.org/1999/xlink"
	 x="0px" y="0px" viewBox="0 0 128 128" xml:space="preserve">
<g>
	<path fill="#2D2D2D" d="M0,63.9c4.6,0.2,8.7,2.1,11.9,5.5c9.5,9.9,10.1,29.8,10.1,34.6h13.8c0.3-6.4,3.1-40.1,27.8-40.1
		C88,63.9,91,97.7,91.4,104h13.8c0.5-27.6,19.1-38,22.8-39.8V47.8H0V63.9z"/>
	<path fill="#2D2D2D" d="M0,32v4.1h3.7c0.6,0,1,0.5,1,1v8.6h5v-8.6c0-0.6,0.5-1,1-1h49.8c0.6,0,1,0.5,1,1v8.6h5v-8.6
		c0-0.6,0.5-1,1-1h48.8c0.6,0,1,0.5,1,1v8.6h5v-8.6c0-0.6,0.5-1,1-1h4.5V32H0z"/>
</g>
</svg>
