<?xml version="1.0" encoding="utf-8"?>
<!-- Generator: Adobe Illustrator 23.0.0, SVG Export Plug-In . SVG Version: 6.00 Build 0)  -->
<svg version="1.1" id="Layer_1" xmlns="http://www.w3.org/2000/svg" xmlns:xlink="http://www.w3.org/1999/xlink" x="0px" y="0px"
	 viewBox="0 0 128 128" style="enable-background:new 0 0 128 128;" xml:space="preserve">
<style type="text/css">
	.st0{fill:#2D2D2D;}
</style>
<g>
	<path class="st0" d="M54.4,87.5c1.2-0.3,2.3-0.7,3.5-1.1c0.5-0.5,1.1-1,1.6-1.5c1-1,2-2,2.9-3.1c0.4-0.6,0.9-1.1,1.3-1.7
		c0.4-0.6,0.8-1.1,1.3-1.7c0.5-0.5,0.9-1.1,1.4-1.6c0,0,0.1-0.1,0.1-0.1c-0.9,0.3-1.7,0.5-2.6,0.6c-1,0.1-2.1,0.1-3.1,0.1
		c-0.4,1.2-1,2.3-1.7,3.3c-0.8,1.3-1.9,2.3-3,3.4c-1,1.1-2.1,2.1-3.2,3.1c-0.4,0.3-0.8,0.7-1.2,1l0.2,0
		C52.6,87.9,53.5,87.7,54.4,87.5z"/>
	<path class="st0" d="M24.8,89c0.6,0.2,1.4,0.2,2.1,0l0,0l0,0c1-1.6,2.1-3.1,3.1-4.7c1.2-1.7,2.5-3.4,3.8-5.1
		c1.3-1.7,2.6-3.4,4.1-4.9l1.2-1.1c0.4-0.3,0.8-0.7,1.2-1c0.5-0.5,1.1-0.9,1.7-1.3c-0.4-0.3-0.7-0.7-0.9-1.1c-0.5-1-0.7-2.1-0.6-3.1
		c0-1,0.3-1.9,0.5-2.9c0.1-0.2,0.1-0.3,0.2-0.5l-0.3,0.4l-3.2,4c-2.1,2.7-4.4,5.3-6.5,7.9c-2.1,2.7-4.2,5.4-6.1,8.2
		c-0.5,0.7-0.9,1.4-1.2,2.1c-0.3,0.7-0.5,1.4-0.3,1.9C23.8,88.4,24.2,88.8,24.8,89z"/>
	<path class="st0" d="M69.8,81.1c0,0,0.1,0,0.1-0.1c1.4-0.9,2.7-2,3.9-3.1c1.2-1.1,2.3-2.3,3.5-3.5c0.2-0.2,0.5-0.5,0.7-0.7
		c-1.1,0.6-2.2,1-3.4,1.5c-1.2,0.4-2.5,0.8-3.8,1.1c-0.6,0.1-1.3,0.2-2,0.3c-0.3,0-0.7,0.1-1.1,0c-0.1,0-0.2,0-0.3,0
		c-0.4,1-0.9,1.9-1.4,2.8c-0.8,1.3-1.9,2.3-2.9,3.3c-1,1-2.1,2-3.3,2.9c-0.1,0.1-0.2,0.2-0.3,0.2c3.4-1.3,6.7-2.9,9.9-4.6
		C69.6,81.1,69.7,81.1,69.8,81.1z"/>
	<path class="st0" d="M11.1,110.8c0.9-0.5,1.9-0.9,2.7-1.3c1.7-0.9,3.4-2,5.1-3c3.3-2.2,6.6-4.6,10-6.8c6.2-4.1,13.3-6,19.7-9.4
		c-1.7,0-3.3-0.1-4.9-0.1c-1.8-0.1-3.7-0.2-5.5-0.2c-1.8,0-3.6,0-5.5,0.1c-1.8,0.1-3.6,0.3-5.4,0.6l0.1,0c-1,0.2-2,0.3-3,0
		c-0.5-0.1-0.9-0.4-1.4-0.7c-5.3,5.5-9.4,11.9-14.2,17.9c-1.3,1.5-2.6,3.1-4,4.6c-0.7,0.8-1.4,1.5-2,2.2l-2,2.2l-0.5,0.6
		C0,117.7,0,117.7,0,117.8c0,0,0.1,0.1,0.1,0.1c0,0,0,0,0.1,0c0,0,0,0,0.1-0.1l0.6-0.4c0.8-0.5,1.7-1.1,2.5-1.6
		c1.7-1.1,3.3-2.3,5-3.4C9.3,111.9,10.2,111.3,11.1,110.8z"/>
	<path class="st0" d="M42.5,69c0.4,0.6,1,1,1.7,1.2l0.4,0.1l0.2,0.4c0.4,0.8,0.9,1.5,1.5,2.2c0.6,0.7,1.3,1.3,2,1.8
		c0.8,0.5,1.6,0.9,2.6,1c0.5,0.1,0.9,0.1,1.4,0c0.5-0.1,0.9-0.2,1.4-0.3l0.2-0.1l0.1,0.1c0.1,0.1,0.4,0.2,0.6,0.3
		c0.2,0.1,0.5,0.2,0.8,0.2c0.5,0.1,1.1,0.2,1.6,0.2c1.1,0.1,2.2,0.1,3.3,0c1.1-0.1,2.2-0.3,3.3-0.5c1-0.2,2.1-0.5,2.9-1l0.3-0.2
		l0.4,0.1c0.1,0,0.4,0.1,0.6,0c0.3,0,0.6,0,0.8-0.1c0.6-0.1,1.2-0.2,1.8-0.4c1.2-0.3,2.4-0.7,3.5-1.1c1.2-0.4,3.9-2.3,4.8-3l0.4-0.3
		l0.3,0.2c0.3,0.2,0.8,0.3,1.3,0.3c0.5,0,1,0,1.5,0c0.5,0,1-0.1,1.5-0.2c0.3,0,0.5-0.1,0.7-0.2c0.2-0.1,1.4-0.6,1.7-0.8
		c3-2.1,5.7-4.6,8.1-7.4c2.4-2.8,4.5-5.9,5.8-9.3c1.4-3.4,2-7.1,1.2-10.7c-0.4-1.8-1.2-3.4-2.2-4.8c-1.1-1.4-2.4-2.7-3.9-3.7
		c-2.9-2.1-6.3-3.5-9.9-3.7c-3.5-0.3-7.1,0.5-10.4,1.9c-3.4,1.3-4.7,3.1-7.8,5.1l-4.7,2.9c-1.6,1-3,2-4.4,3.2
		c-2.8,2.3-5.3,5-7.7,7.8c-2.3,2.9-4.4,5.9-6.2,9.1l-1.8,2.3c-0.2,0.6-0.3,1.3-0.4,2c-0.1,0.9-0.2,1.8-0.1,2.6
		C41.9,67.6,42.1,68.4,42.5,69z"/>
	<path class="st0" d="M61.9,93.2c0-0.2-0.1-0.4-0.1-0.5c-0.3-1.9-0.3-4,0.2-5.9c-0.6,0.3-1.2,0.5-1.8,0.7c-1.7,0.7-3.5,1.3-5.3,1.8
		c-0.9,0.3-1.8,0.5-2.8,0.7l-1.4,0.3c-0.4,0-0.8,0.1-1.1,0.1c-0.4,0.3-0.9,0.6-1.3,0.9c-0.8,0.6-1.7,1.1-2.6,1.6
		c-1.8,1-3.5,1.9-5.3,2.9c-1.8,0.9-3.6,1.8-5.3,2.7c-0.9,0.5-1.7,0.9-2.6,1.4c-0.8,0.5-1.7,1.1-2.5,1.6c-3.3,2.2-6.7,4.5-10.1,6.6
		c-1.3,0.8-2.5,1.5-3.9,2.2c-2.6,3.8-5.4,7.5-8.3,11.1l-0.3,0.4l-0.2,0.2c-0.1,0.1-0.1,0.1-0.1,0.1C7,122.1,7,122.2,7,122.3
		c0,0.1,0.1,0.2,0.1,0.2c0,0,0.1,0,0.1,0.1l0.4,0.1c1.1,0.4,2.3,0.7,3.4,0.8c0.6,0,1.1,0,1.5-0.1c0.3-0.1,0.8-0.5,1.3-0.8
		c1-0.8,1.9-1.6,2.8-2.5c1.9-1.7,3.7-3.5,5.6-5.2c1-0.8,1.9-1.7,2.9-2.5c0.5-0.4,1-0.8,1.5-1.2c0.5-0.4,1.1-0.7,1.6-1.1
		c2-1.5,3.8-3.4,5.8-5c2-1.6,4.3-2.9,6.7-4l0,0l0.1,0l5.7-1.6c1.9-0.5,3.8-1.2,5.7-1.8c1.9-0.7,3.7-1.4,5.5-2.2
		C59.2,94.9,60.7,94.2,61.9,93.2z"/>
	<path class="st0" d="M42.6,88.3c0.6-0.6,1.2-1.3,1.8-1.9c1.1-1.1,2.1-2.3,3.1-3.5c1-1.2,1.8-2.5,2.9-3.6c1-1.1,1.9-2.1,3.1-3.1
		c-0.8,0.2-1.7,0.4-2.6,0.3c-1,0-2.1-0.3-3.1-0.7c-0.3-0.1-0.5-0.2-0.7-0.4c-0.6,1.2-1.2,2.4-2,3.5c-0.9,1.4-2.1,2.5-3.2,3.7
		c-1.1,1.2-2.3,2.3-3.5,3.5c-0.7,0.7-1.5,1.4-2.3,2c0.7,0,1.4,0,2.2,0C39.6,88.2,41.1,88.2,42.6,88.3z"/>
	<path class="st0" d="M43.7,78c0.9-1,1.8-1.9,2.8-2.8c-0.5-0.3-1-0.7-1.4-1.1c-0.4-0.4-0.7-0.8-1-1.2c-0.2-0.3-0.5-0.7-0.6-1.1
		c-0.3-0.1-0.6-0.3-0.9-0.5c-1.1,1.5-2.2,2.8-3.3,4.2c-1.3,1.6-2.9,3-4.3,4.6c-1.4,1.5-2.8,3.1-4.1,4.7c-1.2,1.4-2.3,2.7-3.4,4.1
		c2.7-0.4,5.4-0.7,8.1-0.7c0.8-0.9,1.5-1.7,2.2-2.6c1.1-1.2,2.1-2.5,3.1-3.8C41.8,80.5,42.6,79.2,43.7,78z"/>
	<path class="st0" d="M66.8,121.6c1.3,0,3-0.1,4.1-0.1c-0.4-0.4-1-1.3-1.3-1.8c-0.5-0.9-1-1.8-1.2-2.7c0.5,0.8,1.2,1.5,1.9,2.1
		c0.5,0.4,1.1,0.8,1.7,1.1c0.1-0.2,0.2-0.4,0.2-0.5c0.2-0.8,0.3-1.8,0.4-2.9c-0.5-0.6-0.9-1.2-1.2-1.9c-0.4-1-0.6-2-0.8-3
		c-0.1-1-0.1-2.1,0-3.1c0.1-0.9,0.3-1.8,0.7-2.6l-0.2,0c-0.2,0.1-0.5,0.1-0.7,0.2c-0.1,0-0.2,0.1-0.3,0.1l-0.2,0.1l-0.1,0l-0.1,0
		c-0.4,0.1-0.9,0.1-1.4,0c-0.1,2.4-0.4,7.2-1.1,10.3c-0.2,0.7-1.7,2.5-3.2,2.6c-0.8,0.1-3.5,0.1-5.1,0.1l-0.7,1.8
		C60.2,121.2,64.6,120.6,66.8,121.6z"/>
	<path class="st0" d="M83.7,123.8c-0.6,0-1.1-0.1-1.6-0.4c-4.4-3-4.8-13.8-4.8-16.6l-0.3,0c-0.3,0-0.7,0-1,0c-0.3,0-0.6,0-0.9,0.1
		l-0.2,0c0,1.5,0.1,9.4-0.8,13.3c-0.2,0.7-1,2.6-2.6,2.7c-0.7,0.1-4.9,0.2-4.9,0.2l-0.7,1.8c2.5-0.3,6.6-0.5,7.8-0.3
		c1.2,0.3,2.2,0.1,2.8-0.3c0.7-0.4,1-1.3,0.6-2c-0.3-0.6-0.6-1.2-0.7-1.7c0.6,1.1,1.5,2.1,2.5,2.8c0.5,0.4,1.2,1.3,1.7,1.5
		c0.3,0.1,0.6,0.2,0.9,0.3c0.2-0.1,4.7,1.4,8.6,0.5c0-0.3-1-1.3-1.5-1.9C88,123.8,85.1,123.8,83.7,123.8z"/>
	<path class="st0" d="M82.4,121c0.3,0.3,1,1,1.4,1.2c0.3,0,0.7,0,1,0c0.4-0.7,1.8-1.3,3.5-2.1c-0.1-0.1-1.3-1.1-1.5-1.3L82.4,121z"
		/>
	<path class="st0" d="M83.6,72.5l2.3-1.6c0.1-0.1,0.2-0.1,0.2-0.2c-0.1,0-0.2,0.1-0.2,0.1c-0.5,0.2-1,0.4-1.5,0.5
		c-0.5,0.1-1.1,0.2-1.6,0.3c-0.4,0-0.9,0-1.4-0.1c-0.3,0.3-0.7,0.6-1,0.8c-0.6,1-1.3,2-2.1,2.9c-0.7,0.8-1.5,1.6-2.4,2.3
		c1-0.6,2.1-1.3,3.1-1.9C80.5,74.6,82,73.6,83.6,72.5z"/>
	<path class="st0" d="M49.2,88.4c0.5,0,0.9-0.1,1.3-0.1l0.2,0c0.6-0.6,1.1-1.2,1.7-1.8c1-1.1,2-2.2,2.9-3.3c0.9-1.1,1.7-2.4,2.6-3.5
		c0.5-0.5,1-1.1,1.5-1.6c0.2-0.2,0.5-0.5,0.7-0.7c-1-0.1-2-0.2-3.1-0.3c-0.6-0.1-1.1-0.2-1.7-0.3c-0.3-0.1-0.6-0.1-0.8-0.3
		c-0.2-0.1-0.4-0.2-0.6-0.3c-0.3,0.7-0.6,1.5-0.9,2.1c-0.2,0.4-0.4,0.7-0.6,1l-0.7,1c-0.9,1.3-2.1,2.4-3.2,3.5
		c-1.1,1.1-2.3,2.2-3.4,3.2c-0.5,0.5-1.1,0.9-1.7,1.4c0.1,0,0.3,0,0.4,0C45.6,88.4,47.4,88.5,49.2,88.4z"/>
	<path class="st0" d="M93.8,122.6c-3-0.4-4,1-4,1l1.6,1.6c0,0,3.4-1.9,6.5,1.5C97.3,124.8,97,123,93.8,122.6z"/>
	<path class="st0" d="M95.7,119.7c-0.8-1.6-1.2-3.1-4.1-3.2c-2.7,0-3.5,1.3-3.5,1.3l1.6,1.3C89.7,119.1,92.6,117.1,95.7,119.7z"/>
	<path class="st0" d="M62.3,123.3c-2.6,1.4-2.3,3-2.3,4.7c1.6-3.8,5.1-3.2,5.1-3.2l0.9-1.9C66,122.9,64.7,122.1,62.3,123.3z"/>
	<path class="st0" d="M54.6,120c-2.6,1.4-2.3,3-2.3,4.7c1.6-3.8,5.1-3.2,5.1-3.2l0.9-1.9C58.3,119.6,57,118.7,54.6,120z"/>
	<path class="st0" d="M117.8,14.6c-0.1-0.5-0.2-1-0.5-1.5c-0.2-0.5-0.3-1-0.3-1.6c0-0.8,0.5-1.5,0.7-1.7c0,0-2.7-1.1-4.7-1.4
		c-2-0.3-3.9-0.6-5.9-0.5c-1.9,0.1-3.9,0.4-5.7,1.1c-1.8,0.6-3.5,1.6-5,2.8l0,0l0,0c-0.8,0.6-1.7,1.1-2.6,1.6
		c-0.9,0.6-1.7,1.3-2.3,2.1c-1.3,1.6-2,3.7-3.1,5.5c-0.6,0.9-1.1,1.8-1.8,2.7c-0.7,0.9-1.4,1.7-2.2,2.4c-0.9,0.8-1.8,1.6-2.8,2.2
		c1.9-0.3,3.8-0.5,5.8-0.3c3.8,0.4,7.5,2,10.4,4.3c1.5,1.1,2.9,2.5,4,4.1c1.1,1.6,1.8,3.4,2.2,5.2c0.4,1.9,0.4,3.8,0.1,5.6
		c-0.3,1.9-0.8,3.7-1.5,5.4c-1.4,3.5-3.5,6.6-5.8,9.5c-2.4,2.9-5,5.5-8,7.8c-0.4,0.3-0.8,0.6-1.1,0.8c-0.4,0.3-0.7,0.5-1.1,0.8
		l-2.2,1.7c-1.5,1.1-3,2.2-4.5,3.2c-3.1,2.1-6.2,4.1-9.5,5.9c-2.5,1.4-5.2,2.7-7.8,3.9l1.3,5.7l0.6,3c0.2,1,0.4,2,0.6,3.1
		c0.2,1,0.5,2.1,1,3c0.5,0.9,1.2,1.7,1.9,2.5l0.5,0.6c0.2,0.2,0.2,0.3,0.3,0.4c0.2,0.2,0.5,0.3,0.8,0.3h0.1l0.1,0c0.1,0,0.1,0,0.2,0
		c0.1,0,0.3,0,0.4,0c0.3,0,0.6,0,0.9,0c0,0,0.1,0,0.1,0c-0.4-0.6-0.8-1.3-1.1-1.9c-1.3-2.7-2.2-5.5-2.9-8.4
		c-0.6-2.9-0.9-5.8-0.6-8.8c0-0.1,0.1-0.1,0.1-0.1c0,0,0.1,0,0.1,0.1c0,1.4,0.2,2.9,0.4,4.3c0.3,1.4,0.6,2.8,1,4.2
		c0.4,1.4,0.9,2.7,1.5,4c0.5,1.3,1.1,2.6,1.8,3.8c0.3,0.6,0.7,1.2,1.1,1.8l0.3,0.4c0.1,0.1,0.1,0.1,0.2,0.2c0.2,0.1,0.3,0.2,0.5,0.2
		c0.1,0,0.2,0,0.3,0l0.2-0.1l0.3-0.1c0.4-0.1,0.8-0.1,1.2-0.2c0.4,0,0.8,0,1.2,0l0.5,0c0.1,0,0.2,0,0.3,0c0.2,0,0.3-0.1,0.4-0.3
		c0.1-0.1,0.1-0.1,0.1-0.2c0,0,0-0.1,0-0.1l0.1-0.2c0.2-0.7,0.4-1.4,0.6-2.2c0.5-1.4,1-2.8,1.7-4.2l0.1-0.1l0.1-0.1
		c1.9-2.3,3.3-5.2,4.6-8l2-4.3c0.3-0.7,0.7-1.4,1.1-2.2c0.4-0.7,0.8-1.5,1.3-2.1c1-1.3,2.3-2.4,3.7-3.3l2-1.3c0.6-0.5,1.3-1,1.9-1.4
		c2.5-2,4.8-4.2,6.7-6.6c2-2.5,3.7-5.1,5-7.9c1.4-2.8,2.5-5.7,3.3-8.7c0.8-3,1.3-6.1,1.4-9.2c0.1-3.1-0.1-6.2-0.7-9.3c0,0,0,0,0,0
		c-1.1-1.8-1.5-4-1.5-6.2c0-0.5,0.1-1.1,0.2-1.6c0.1-0.5,0.4-1,0.6-1.5c0.5-1,1.1-1.9,1.8-2.7c0.3-0.3,0.5-0.6,0.8-0.9
		c0.1-0.1,0.3-0.2,0.4-0.4c0.1-0.1,0.3-0.3,0.5-0.4c0,0,0,0,0,0c0,0,0,0,0,0c0.1-0.1,0.3-0.2,0.4-0.3c0.1-0.1,0.3-0.2,0.4-0.3
		c0.2-0.1,0.2-0.2,0.7-0.4c-0.2-0.4-0.2-0.8-0.2-1.3c0-0.3,0.2-0.6,0.4-0.8c0.1-0.1,0.2-0.2,0.3-0.3l0.1-0.1l-0.2-0.5
		C118,15.1,117.9,14.8,117.8,14.6z M113.6,13c-0.2,0.1-0.4,0.1-0.6,0.2c-0.1,0.2-0.2,0.5-0.3,0.7c-0.6,0.8-1.7,0.9-2.5,0.3
		c-0.8-0.6-0.9-1.7-0.3-2.5c0.6-0.8,1.7-0.9,2.5-0.3c0.2,0.1,0.3,0.3,0.4,0.5c0.3,0,0.6,0.1,0.9,0.2c0.6,0.2,1.2,0.5,1.7,0.9
		C114.7,12.9,114.1,12.9,113.6,13z"/>
	<path class="st0" d="M124.3,16.6c-0.7-0.1-1.5-0.1-2.3-0.2c-0.1,0-0.2,0-0.3,0c-0.1,0-0.2,0-0.3,0c-0.1,0-0.2,0-0.3,0
		c-0.5-0.1-0.9-0.2-1.3-0.4l0,0l0,0c-0.3,0.3-0.4,0.3-0.5,0.5c-0.1,0.2-0.2,0.3-0.3,0.5c-0.1,0.2-0.1,0.4-0.1,0.7c0,0.1,0,0.3,0,0.4
		l1.5-0.2c1-0.1,2-0.2,3-0.2c0.5,0,1-0.1,1.5-0.2c0.4-0.1,0.8-0.2,1.1-0.4c-0.1-0.1-0.3-0.2-0.5-0.2C125,16.7,124.6,16.6,124.3,16.6
		z"/>
	<path class="st0" d="M127.9,15.1c-0.2-0.6-0.5-1.1-0.9-1.6c-0.4-0.5-1.1-1.6-2.9-2.3c-0.1-0.1-0.3-0.1-0.4-0.2
		c-0.1-0.1-0.3-0.1-0.4-0.1c-0.1,0-0.2-0.1-0.3-0.1c-0.1,0-0.1,0-0.1,0c-0.1,0-0.3-0.1-0.4-0.1c-0.3-0.1-0.5-0.1-0.8-0.2
		c-0.1,0-0.2,0-0.3,0c-0.1,0-0.2,0-0.3,0c-0.1,0-0.2,0-0.3,0c-0.3,0-0.6-0.1-0.9-0.1c0,0,0,0,0,0c-0.1,0-0.2,0-0.3,0
		c-0.1,0-0.2,0-0.3-0.1c-0.1,0-0.1,0-0.2,0c0,0,0,0,0,0c-0.3,0.4-0.3,0.8-0.3,1.2l0,1.4c0,0.5,0.2,1,0.5,1.4
		c0.3,0.4,0.5,0.8,0.7,1.3l0.1,0.1c0,0,0.1,0,0.1,0c0.1,0,0.2,0,0.4,0c0.1,0,0.2,0,0.3,0c0.1,0,0.1,0,0.2,0c0.1,0,0.3,0,0.4,0
		c0.1,0,0.2,0,0.3,0c0.1,0,0.3,0,0.4-0.1c0.8-0.1,1.6-0.2,2.4-0.2c0.4,0,0.9,0,1.3,0.1c0.4,0.1,0.9,0.2,1.3,0.4
		c0.3,0.2,0.7,0.4,0.9,0.8C128,16.2,128,15.6,127.9,15.1z"/>
</g>
</svg>
