<?xml version="1.0" encoding="utf-8"?>
<!-- Generator: Adobe Illustrator 23.0.0, SVG Export Plug-In . SVG Version: 6.00 Build 0)  -->
<svg version="1.1" id="Layer_1" xmlns="http://www.w3.org/2000/svg" xmlns:xlink="http://www.w3.org/1999/xlink" x="0px" y="0px"
	 viewBox="0 0 128 128" style="enable-background:new 0 0 128 128;" xml:space="preserve">
<style type="text/css">
	.st0{fill:#2D2D2D;}
</style>
<g>
	<path class="st0" d="M84.3,115.6c-0.4-0.5-0.6-1.1-0.9-1.7c-0.3-0.7-0.4-1.4-0.5-2c0-0.6-0.1-1.3,0-1.9c-1,0.3-2.1,0.3-3.1,0.4
		c0.6,1.1,1.1,2.2,1.5,3.3c0.2,0.6,0.5,1.2,0.6,1.9c0,0.3,0,0.7,0,1c0,0.2-0.1,0.4-0.2,0.6c0.4,0,0.8-0.1,1.2-0.1
		c0.7-0.1,1.4-0.2,2-0.3c0-0.2,0-0.3-0.1-0.5C84.6,116.1,84.4,115.9,84.3,115.6z"/>
	<path class="st0" d="M68.6,112.2c-0.4,0.2-0.6,0.8-1,1.2c0,0,0,0,0,0c0.1,0.1,0.1,0.2,0.2,0.3c0.1,0.2,0.2,0.4,0.3,0.6
		c0.2,0.4,0.3,0.8,0.5,1.2c0.1,0.4,0.4,0.8,0.3,1.3c0,0.2,0,0.4-0.1,0.6c1,0,2,0,3.1,0.1c0-0.1,0-0.2,0-0.4c0-0.3,0.2-0.5,0.2-0.8
		c0.1-0.4,0.1-0.9,0.1-1.4c-0.1,0-0.2,0-0.2,0C70.4,114.4,69.5,113.1,68.6,112.2z"/>
	<path class="st0" d="M80.9,115.8c-0.2-0.6-0.2-1.2-0.4-1.8c-0.3-1.2-0.6-2.4-0.9-3.6c-0.2,0-0.5,0-0.7,0.1
		c-0.7,0.1-1.4,0.2-1.9,0.4c-0.1,0.1-0.2,0.1-0.3,0.2c0,0.6,0.1,1.1,0.3,1.6c0.1,0.3,0.2,0.5,0.4,0.7c0.1,0.2,0.4,0.5,0.5,0.8
		c0.3,0.6,0.6,1.2,0.6,1.8c0,0.3,0,0.7-0.1,1c0,0.1-0.1,0.3-0.2,0.5c1,0,2.1-0.1,3.1-0.2c0-0.2-0.1-0.4-0.1-0.6L80.9,115.8z"/>
	<path class="st0" d="M67.8,115.6c0-0.4-0.1-0.8-0.2-1.2c0-0.3-0.1-0.6-0.2-0.9c-0.3,0.3-0.7,0.7-1.1,0.9c-0.9,0.6-2,1-3.2,1.1
		c-0.6,0.1-1.2,0-1.8-0.3l-0.4-0.2c-0.1-0.1-0.2-0.1-0.3-0.1c-0.2-0.1-0.4-0.1-0.6-0.2c-0.9-0.2-1.8-0.1-2.8,0l-0.7,0.1
		c0,0.2,0.1,0.4,0.2,0.6c0.1,0.4,0.3,0.7,0.6,1c0.5,0.5,1.2,0.8,1.9,0.9c0.7,0.1,1.5,0.1,2.2,0.1c0.8-0.1,1.6-0.1,2.4-0.1
		c0.8,0,1.6-0.1,2.4-0.1c0.6,0,1.3,0,1.9,0c-0.1-0.2-0.1-0.3-0.2-0.5C67.8,116.4,67.9,116,67.8,115.6z"/>
	<path class="st0" d="M77.1,114.6c-0.1-0.3-0.2-0.5-0.3-0.8c-0.1-0.3-0.2-0.6-0.3-0.9c-0.1-0.6-0.1-1.1,0-1.7
		c-0.1,0.1-0.2,0.1-0.2,0.2c-0.2,0.2-0.4,0.5-0.6,0.8c-0.4,0.6-0.8,1.3-1.4,1.8c-0.2,0.1-0.3,0.2-0.5,0.4c-0.2,0.1-0.4,0.2-0.6,0.3
		c-0.2,0.1-0.4,0.1-0.7,0.1c0.2,0.5,0.3,0.9,0.4,1.5c0,0.4,0.1,0.8-0.1,1.1c0,0,0,0.1,0,0.1c0.2,0,0.3,0,0.5,0
		c1.5,0.1,2.9,0.1,4.4,0.1c0-0.5-0.2-0.9-0.3-1.3C77.3,115.7,77.3,115.2,77.1,114.6z"/>
	<path class="st0" d="M71.2,93.7c-0.1-0.5-0.2-1-0.4-1.5c-0.3-0.8-0.8-1.6-1.3-2.3c-0.5-0.7-1.1-1.4-1.7-2c-0.6-0.7-1.3-1.3-1.9-1.9
		c-0.7-0.6-1.3-1.2-2-1.8c-0.6-0.6-1.3-0.9-2.1-1.2c-1.6-0.5-3.4-0.3-5.1,0.3c-0.4,0.2-0.8,0.3-1.2,0.5c-0.2,0.1-0.4,0.2-0.6,0.3
		l-0.2,0.1l-0.1,0l-0.1,0c0,0-0.1,0-0.1,0c-0.1,0-0.2,0-0.3,0c-0.8,0.2-1.7,0.5-2.4,1c-0.7,0.5-1.3,1.1-1.7,1.8
		c-0.1,0.2-0.2,0.4-0.2,0.5c0,0.1,0,0.1,0,0.2c0,0.1,0,0.1,0,0.2c0,0.3,0.2,0.6,0.4,1c0.4,0.7,1,1.4,1.6,2c0.6,0.6,1.3,1.3,1.9,1.8
		c0.7,0.6,1.4,1.2,2.1,1.7l1.1,0.8l0.5,0.4l0.3,0.2l0.1,0.1c0,0,0.1,0.1,0,0l0.3,0.2c0.6,0.5,1,1,1.4,1.7c0.1,0.3,0.3,0.6,0.4,0.9
		c1.1,0.3,3.1,0.6,4.9-0.7c-1.1,1.2-3.5,2-5,2.1c-0.1,0.2-0.2,0.4-0.3,0.5c-0.3,0.4-0.7,0.6-0.9,0.8c-0.3,0.1-0.5,0.3-0.7,0.5
		c-0.5,0.3-1,0.7-1.4,1.1c-0.8,0.8-1.6,1.7-1.5,2.8c0.1,0.5,0.4,1,0.9,1.3c0.3,0.2,0.7,0.4,1.1,0.4c0.7-0.7,1.6-1.2,2.5-1.5
		c0.6-0.2,1.2-0.2,1.7-0.2c0.6,0,1.1,0,1.6,0.2c0,0,0.1,0,0.1,0c0.1,0,0.2,0,0.3-0.1c0.2,0,0.4-0.1,0.6-0.2c0.4-0.1,0.8-0.3,1.1-0.5
		c0.7-0.4,1.4-1,2.1-1.6c0.6-0.6,1.2-1.4,1.7-2.2c0.2-0.4,0.5-0.8,0.7-1.2c0.2-0.4,0.4-0.8,0.6-1.2c0-0.2,0-0.7,0-1
		c0-0.4,0-0.8,0-1.2c0-0.8,0.1-1.7,0.7-2.6C70.6,94.1,70.9,93.8,71.2,93.7z"/>
	<path class="st0" d="M58,99.7c0.1-0.1,0-0.1,0-0.2c0-0.1-0.1-0.3-0.2-0.5c-0.2-0.4-0.6-0.8-0.9-1.1c0,0-0.1,0-0.1-0.1l-0.2-0.1
		l-0.3-0.2l-0.6-0.4c-0.4-0.3-0.8-0.6-1.1-0.9c-0.4-0.3-0.7-0.6-1-0.9c0.1,0.2,0.2,0.3,0.3,0.5c0.2,0.4,0.3,0.9,0.4,1.4
		c0.1,0.5,0.2,1,0,1.5c-0.1,0.2-0.2,0.4-0.3,0.6l0.7,0C55.7,99.6,56.8,99.7,58,99.7C58,99.7,58,99.7,58,99.7z"/>
	<path class="st0" d="M5.4,113l-0.2-1c-0.1-0.8,0-1.5,0.3-2.1c0.3-0.6,0.5-1.2,0.6-1.8c0.1-0.6-0.1-1.2-0.2-1.8
		c-0.1-0.6-0.2-1.2-0.2-1.9c0-0.3,0-0.6,0-1c0-0.1,0-0.3,0-0.4c-0.5-0.3-1.1-0.6-1.6-1c-1-0.7-2-1.4-3-2.3c-0.4-0.4-0.7-0.8-1-1.3
		c0.2,1.9,0.3,3.8,0.4,5.7c0.1,1.4,0.1,2.8,0.1,4.2c0,0.7,0,1.4,0,2c0.1,0.6,0.2,1.3,0.4,1.9c0.4,1.2,1,2.4,2,3.3
		c0.5,0.4,1,0.8,1.6,1.1c0.6,0.3,1.2,0.5,1.8,0.7c0.2,0,0.3,0.1,0.5,0.1c-0.5-1.1-0.9-2.3-1.1-3.4C5.5,113.6,5.4,113.3,5.4,113z"/>
	<path class="st0" d="M62,76c0-0.2,0-0.4,0-0.6c-3.5,0.6-7,1.4-10.5,2.3c0,0,0.1,0.1,0.1,0.1c0.2,0.2,0.5,0.5,0.6,0.8
		c0.1,0.3,0.1,0.7,0.2,1c0.1,0.3,0.3,0.6,0.5,0.8c0.2,0.3,0.4,0.6,0.5,0.9c0.1,0.3,0.2,0.7,0.2,1c0,0.5-0.2,1-0.5,1.4
		c0.3-0.1,0.6-0.1,0.9-0.1c0.1,0,0.2,0,0.3,0c0,0,0,0,0,0c0,0,0,0,0.1,0l0.1-0.1l0.6-0.3c0.4-0.2,0.8-0.3,1.3-0.5
		c1.7-0.6,3.5-1.1,5.4-0.9c0.4,0,0.9,0.1,1.3,0.3c-0.1-0.4-0.2-0.7-0.2-1.1c-0.1-0.3,0-0.7-0.1-1c0-0.3,0-0.7,0-1.1
		c0-0.4,0-0.7-0.1-1.1c-0.1-0.3-0.4-0.6-0.6-0.9C62.1,76.7,62.1,76.3,62,76z"/>
	<path class="st0" d="M128,107.8c0-0.5-0.1-0.9-0.1-1.4c-0.2-1.8-0.8-3.5-1.9-4.8c-1.1-1.3-2.7-2.1-4.4-2.4
		c-0.9-0.2-1.7-0.2-2.6-0.2c-0.4,0-0.9,0-1.3,0c-0.5,0-0.9,0.1-1.4,0c0,0-0.1-0.1-0.1-0.1c0,0,0-0.1,0.1-0.1l0,0
		c0.4,0,0.9-0.1,1.3-0.2c0.2,0,0.4-0.1,0.6-0.1c-0.3-0.2-0.6-0.4-0.8-0.7l-0.7-0.5c-0.1-0.1-0.2-0.2-0.3-0.3
		c-0.2-0.1-0.3-0.3-0.4-0.5c-0.5-0.7-0.5-1.5-0.5-2.1c0-0.7,0.1-1.3,0.3-2c0.1-0.3,0.2-0.6,0.3-0.9c0.1-0.3,0.2-0.6,0.2-0.9
		c0-0.6-0.3-1.1-0.7-1.5c-0.6-0.8-1.4-1.8-2.2-2.6c-0.1,0.1-0.2,0.3-0.3,0.4c-0.1,0.1-0.2,0.2-0.2,0.2c-0.1,0.1-0.1,0.2-0.3,0.2
		c0,0-0.1,0-0.1-0.1c0,0,0-0.1,0-0.1l0,0c0,0,0.1-0.1,0.2-0.2c0.1-0.1,0.1-0.2,0.2-0.2c0.1-0.2,0.3-0.3,0.4-0.5
		c0.2-0.4,0.5-0.7,0.7-1.1c0.4-0.8,0.7-1.6,1-2.4c0.5-1.7,0.8-3.4,0.6-5.1c-0.2-1.7-0.9-3.2-1.7-4.6c-0.6-0.9-1.3-1.8-2-2.6
		c-0.6-0.4-1.3-0.7-1.9-1c-3.4-1.6-7-2.4-10.6-2.8c-3.9-0.2-7.6-0.5-11.5-0.5c-2.6,0-5.2,0.1-7.9,0.3c-0.1,0.1-0.3,0.2-0.4,0.3
		c-0.5,0.3-1,0-1.5,0c-0.2,0-0.4,0-0.7-0.1c-0.3,0-0.6,0.1-1,0.1c-0.8,0.1-1.7,0.2-2.5,0.3c-0.2,0.2-0.4,0.3-0.6,0.5
		c-0.4,0.3-1,0.1-1.5,0.1c-0.3,0-0.7,0-1,0c-1,0.2-2,0.4-3,0.6c-0.2,0.3-0.4,0.4-0.6,0.6c-0.4,0.3-1,0.1-1.5,0.2c-0.4,0-0.8,0-1.3,0
		c-1.1,0.3-2.3,0.5-3.4,0.9c0,0-0.1,0.1-0.1,0.1c-0.2,0.3-0.4,0.4-0.6,0.6c-0.4,0.3-1,0.1-1.5,0.2c-0.2,0-0.5,0-0.7,0
		c-1.2,0.4-2.3,0.7-3.5,1.1c0,0,0,0,0,0.1c-0.2,0.3-0.4,0.5-0.6,0.6c-0.4,0.3-1,0.2-1.5,0.2c-0.4,0-0.8,0-1.1,0.1
		c-0.7,0.2-1.4,0.4-2.1,0.6c-0.1,0.1-0.1,0.2-0.2,0.3c-0.2,0.3-0.4,0.5-0.7,0.6c-0.5,0.3-1.1,0.2-1.6,0.2c-0.5,0-1.1,0.1-1.6,0.1
		c-0.8,0.2-1.7,0.5-2.5,0.7c0,0.1-0.1,0.2-0.1,0.3c-0.1,0.2-0.3,0.4-0.4,0.5c-0.3,0.3-0.7,0.1-1.1,0.1c-0.4,0-0.7,0-1.1,0
		c-0.1,0-0.2,0-0.3,0c-0.7,0.2-1.4,0.4-2.1,0.7c-0.1,0.2-0.1,0.4-0.2,0.5c-0.1,0.2-0.3,0.4-0.4,0.5c-0.3,0.3-0.7,0-1.1,0
		c-0.4,0-0.7,0-1.1-0.1c0,0-0.1,0-0.1,0c-0.9,0.3-1.8,0.6-2.7,0.9c0,0.1,0,0.1-0.1,0.2c-0.1,0.2-0.2,0.4-0.4,0.5
		c-0.3,0.3-0.7,0.1-1.1,0.2c-0.4,0-0.7,0.1-1.1,0.1c-0.1,0-0.1,0-0.2,0c-0.7,0.2-1.4,0.5-2.1,0.7c0,0-0.1,0-0.1,0
		c0,0.1-0.1,0.2-0.1,0.3c-0.1,0.2-0.2,0.4-0.4,0.5c-0.3,0.3-0.7,0.1-1.1,0.2c-0.4,0-0.7,0.1-1.1,0.1c0,0,0,0,0,0
		c-0.5,0.2-1,0.4-1.5,0.6c0,0.1-0.1,0.2-0.1,0.3c-0.1,0.2-0.2,0.4-0.4,0.5c-0.3,0.3-0.7,0.2-1.1,0.2c-0.4,0.1-0.7,0.1-1.1,0.1
		c-0.2,0-0.3,0-0.5,0c-0.3,0.2-0.6,0.4-0.9,0.7c0,0.1,0,0.1-0.1,0.2c-0.1,0.2-0.2,0.4-0.4,0.5c-0.3,0.3-0.7,0.2-1.1,0.2
		c-0.4,0.1-0.7,0.1-1.1,0.1c-0.2,0-0.4,0-0.5,0c-0.3,0.2-0.6,0.4-0.9,0.7c0,0.1,0,0.1-0.1,0.2c-0.1,0.2-0.2,0.4-0.4,0.5
		c-0.3,0.3-0.7,0.2-1.1,0.2c-0.3,0.1-0.7,0.1-1.1,0.1c-0.4,0.2-0.8,0.4-1.3,0.6c-0.1,0-0.1,0.1-0.2,0.1c0,0.1-0.1,0.3-0.1,0.4
		C10,88,9.9,88.2,9.8,88.3c-0.3,0.3-0.7,0.2-1.1,0.2c-0.3,0.1-0.7,0.1-1,0.1c-0.1,0.1-0.3,0.1-0.4,0.2c-0.2,0.1-0.4,0.2-0.6,0.4
		c0,0.1-0.1,0.2-0.1,0.3c-0.1,0.2-0.2,0.4-0.4,0.5c-0.3,0.3-0.7,0.2-1.1,0.2c-0.1,0-0.2,0-0.3,0c-0.2,0.1-0.3,0.2-0.5,0.3
		c-0.4,0.3-0.8,0.6-1.2,0.9C3.1,91.8,3,92,3,92.1c-0.2,0.5-0.7,0.7-1,1c-0.3,0.3-0.7,0.6-1,0.9c-0.2,0.4-0.3,0.7-0.4,1.1
		c0.3,0.3,0.5,0.8,0.7,1.1c0.3,0.4,0.5,0.9,0.7,1.3c0.1,0.3,0.3,0.6,0.4,0.9c1.6,1.5,3.6,2.6,5.5,3.7c2.1,1.1,4.2,2.2,6.3,3.3
		l3.2,1.6l3.1,1.7c0.3,0.2,0.6,0.3,0.9,0.5c-2.4-1.6-4.7-3.4-6.7-5.5c-1.1-1.1-2.1-2.3-2.9-3.8c-0.4-0.7-0.7-1.5-0.9-2.4
		c-0.1-0.9,0-1.8,0.3-2.6c0.6-1.6,1.7-2.9,2.8-3.9c1.1-1.1,2.4-1.9,3.6-2.8c1.3-0.8,2.6-1.6,3.9-2.3c1.4-0.6,2.7-1.2,4.1-1.8
		c1.4-0.6,2.8-1.1,4.2-1.6c1.4-0.5,2.8-1,4.2-1.5c2.8-1,5.6-1.9,8.5-2.6c0.7-0.2,1.5-0.4,2.2-0.5c0.8-0.1,1.4-0.3,2.1-0.4
		c1.4-0.4,2.8-0.7,4.3-1.1c5.7-1.6,11.6-3,17.6-3.2c3,0,6,0.2,8.9,1.1c2.9,0.9,5.7,2.1,8.3,3.7c1.3,0.8,2.5,1.8,3.6,3
		c0.5,0.6,1,1.3,1.3,2.1c0.3,0.8,0.4,1.7,0,2.5c-0.3,0.8-1,1.4-1.6,1.8c-0.6,0.4-1.3,0.8-2,1.1c-0.6,0.3-1.3,0.6-2,0.9
		c-0.8,0.5-1.5,1-2.3,1.5c-0.8,0.5-1.7,1-2.5,1.5l-2.5,1.5c-0.8,0.5-1.7,1-2.4,1.5L75,95.9l-0.4-0.2c-0.6-0.3-1.3-0.5-1.9-0.6
		c-0.6-0.1-1.1-0.1-1.5,0.2c-0.4,0.3-0.6,1-0.7,1.7c-0.1,0.4-0.1,0.7-0.1,1.1c0,0.4,0,0.8-0.2,1.3l0,0l0,0c-0.2,0.4-0.4,0.8-0.7,1.3
		l-0.7,1.2c-0.5,0.8-1,1.6-1.6,2.4c-0.6,0.7-1.2,1.5-2,2.1c-0.4,0.3-0.8,0.6-1.2,0.8c-0.2,0.1-0.4,0.2-0.7,0.3
		c-0.1,0.1-0.2,0.1-0.4,0.1c-0.1,0-0.1,0-0.2,0.1c-0.1,0-0.2,0-0.3,0l-0.2,0c-0.9-0.1-1.9,0-2.7,0.3c-0.8,0.3-1.6,0.8-2.1,1.6
		c0,0,0,0,0,0c0.1,0,0.2,0,0.3,0c0.2,0,0.1,0.6,0,0.7c-0.1,0.1-0.4,0.4-0.4,1.1c0,0.5-0.3,0.4-0.8,0.1c-0.1,0.2-0.1,0.4-0.2,0.6
		c0,0.2-0.1,0.4-0.1,0.7l0.5,0c1-0.1,2.2-0.1,3.4,0.2c0.3,0.1,0.6,0.2,0.8,0.3c0.1,0.1,0.3,0.1,0.4,0.2l0.3,0.2
		c0.3,0.2,0.7,0.3,1.2,0.3c0.9,0.1,1.9-0.1,2.8-0.5c0.5-0.2,0.9-0.4,1.3-0.7c0.2-0.1,0.4-0.3,0.6-0.5c0.2-0.2,0.4-0.4,0.7-0.5
		c0,0,0.1,0,0.1,0.1c0.3,0.1,0.6,0.3,0.8,0.5c0.3,0.2,0.6,0.4,0.9,0.6c0.6,0.3,1.2,0.6,1.7,0.7c0.3,0,0.5,0,0.8-0.1
		c0.2-0.1,0.5-0.3,0.7-0.5c0.5-0.4,0.8-1,1.2-1.6c0.2-0.3,0.5-0.6,0.8-0.9c0.3-0.3,0.7-0.4,1.1-0.5c0.7-0.2,1.5-0.1,2.1-0.1
		c1.4,0,2.8-0.2,4-0.7c0.6-0.3,1.1-0.7,1.6-1.1c0.5-0.5,0.8-1,1.2-1.6c0.4-0.6,0.7-1.2,1.1-1.9c0.4-0.6,0.8-1.3,1.4-1.9
		c0.6-0.6,1.4-1,2.1-1.1c0.7-0.1,1.3-0.2,2-0.4c1.3-0.3,2.7-0.6,4-0.8c0,0,0.1,0,0.1,0.1c0,0,0,0.1,0,0.1c-1.2,0.7-2.5,1.3-3.8,1.7
		c-0.7,0.2-1.3,0.5-2,0.6c-0.6,0.2-1.1,0.4-1.5,0.9c-0.8,0.9-1.5,2.2-2.4,3.4c-0.1,0.2-0.3,0.4-0.4,0.5c0.3,0,0.6,0.1,1,0.2
		c0.4,0.2,0.7,0.5,1,0.9c0.2,0.4,0.3,0.9,0.4,1.3l0.1,1.3c0,0.8,0.2,1.7,0.1,2.5c0,0.4-0.1,0.9-0.2,1.3c-0.1,0.3-0.1,0.6-0.2,0.9
		c1.3-0.3,2.6-0.6,3.9-0.8l0.1,0l0.1,0c1,0,2.1,0,3.1-0.1c1-0.1,2.1-0.2,3.1-0.4c1-0.2,2-0.4,3-0.6c1-0.3,1.9-0.6,2.8-1.1l0.3-0.2
		l0.2,0c0.3,0,0.8,0,1.2-0.1c0.4-0.1,0.9-0.1,1.3-0.2c0.9-0.2,1.8-0.4,2.7-0.6c0.9-0.2,1.8-0.5,2.7-0.8c0.4-0.1,0.9-0.3,1.3-0.5
		c0.7-0.6,1.5-1.2,2.3-1.6c1-0.6,2-1.1,3.2-1.4c0.2-0.1,0.4-0.3,0.6-0.6c0.2-0.3,0.3-0.6,0.3-0.9c0.1-0.3,0.1-0.7,0-1
		c-0.1-0.3-0.3-0.5-0.6-0.5l0,0c-0.1,0-0.1,0-0.1-0.1c0-0.1,0-0.1,0.1-0.1c0,0,0,0,0,0c0.1,0,0.2,0,0.3,0c0.1,0,0.2,0,0.3,0.1
		c0.2,0.1,0.3,0.3,0.4,0.5c0.2,0.4,0.2,0.8,0.1,1.2c0,0.4-0.1,0.8-0.3,1.1c-0.2,0.4-0.4,0.7-0.8,1l0,0l-0.1,0
		c-2,0.8-3.8,2.3-5.4,3.9c-0.8,0.8-1.6,1.7-2.3,2.5l-0.6,0.7c0,0.1-0.1,0.1-0.2,0.2c-0.1,0.1-0.1,0.1-0.2,0.2
		c-0.1,0.1-0.1,0.1-0.2,0.1l-0.1,0.1l0,0l-0.2,0.1l-1.6,0.6l-6.8,2c-0.2,0.1-0.4,0.3-0.4,0.6l0,0.3c0,0.3,0.4,0.5,0.7,0.4l4.6-1.5
		c0.6-0.2,1.1-0.1,1.4,0.4c0.5,0.7,0,1.4-0.7,1.8c-1.1,0.6-4,2.1-5.1,2.7c-0.2,0.1-0.3,0.4-0.2,0.6l0.1,0.2c0.1,0.3,0.5,0.4,0.7,0.2
		c1.7-1.1,7.4-4.7,7.8-4.2c0.5,0.5-1.1,2.1-1.2,2.2c-0.2,0.4-1.1,1.5-1.6,2c-0.2,0.2-0.1,0.5,0.2,0.5l0.8,0.1c0.2,0,0.5-0.1,0.6-0.3
		c0.5-0.8,1.5-2,1.9-2.6c0.2-0.3,0.4-0.6,0.6-0.8c0.3-0.4,0.6-0.8,1.1-1.2c0.1,0,0.1-0.1,0.2-0.1c0.1,0,0.2-0.2,0.4-0.1
		c0.5,0.3,0.2,2.4,0.1,2.9c-0.1,0.8-0.7,2-0.8,2.7c0.2-0.1,0.6,0.2,0.8,0.1c0.2-0.1,0.3,0,0.6-0.1c0,0,0,0,0,0c0,0,0.2-1.9,0.3-2.9
		c0.1-1.8,0-3.5,0-3.5c0-0.1,0-0.1,0-0.2l0-0.1c0,0,0-0.1,0.1-0.2c0-0.1,0.1-0.1,0.1-0.2c0.2-0.1,0.2-0.1,0.3-0.1l0.2-0.1l0.3-0.1
		c0.8-0.3,1.7-0.6,2.5-1c1.6-0.7,3.2-1.6,4.7-2.5c1.5-1,2.9-2.1,3.8-3.5c0.5-0.7,0.8-1.5,0.9-2.3c0-0.2,0.1-0.4,0.1-0.6l0-0.3
		L128,107.8z M72.6,70.8c-0.2,0.1-0.3,0.1-0.5,0.1c-0.2-0.1-0.4-0.3-0.5-0.3c-0.1,0-0.1,0-0.2,0c0,0,0.1,0,0.1,0.1
		c0.2,0.3,0.4,0.7,0.4,1.2c0,0.1,0,0.1-0.1,0.1l0,0c-0.5,0.1-0.9-0.1-1.2-0.3c-0.1-0.1-0.1-0.1-0.2-0.2c0,0-0.1-0.1-0.1-0.1
		c0,0,0,0-0.1-0.1c-0.1-0.1-0.1-0.2-0.2-0.3c-0.2-0.4,0-0.9,0.4-1l0.1,0l0,0l0,0l0.1,0c0.1,0,0.1,0,0.2,0c0.2,0.1,0.4,0.1,0.6,0
		c0.2-0.1,0.3-0.3,0.5-0.4c0.2-0.1,0.4-0.1,0.6,0c0.2,0.1,0.4,0.2,0.5,0.4l0,0.1c0,0,0,0,0,0.1C73,70.6,72.8,70.7,72.6,70.8z
		 M60.8,112.5c-1.4-0.3-0.2-2,0.7-2.5c0,0,0.5,0.4,0.2,0.6c-0.3,0.2-0.2,0.7,0.7,1.4C63.2,112.7,62.2,112.8,60.8,112.5z M81.5,101.9
		c-0.9,0-1.6-0.8-1.6-1.8c0-1,0.7-1.8,1.6-1.8c0.9,0,1.6,0.8,1.6,1.8C83.2,101.1,82.4,101.9,81.5,101.9z M81.9,97.6
		c-0.4,0-0.8,0.2-1.2,0.5c-0.4,0.3-0.8,0.6-1.3,1c-0.4,0.4-0.9,0.7-1.4,1.1c0.1-0.7,0.4-1.3,0.7-1.8c0.4-0.5,0.8-1,1.3-1.4
		c0.5-0.4,1.3-0.6,2-0.4c0.7,0.2,1.1,0.9,1.3,1.6C82.8,97.8,82.3,97.5,81.9,97.6z M108.1,75.8c0-0.1,0-0.1,0.1-0.2l0-0.1l0-0.1l0,0
		l0-0.1c0.3-0.3,0.8-0.3,1.1,0c0.1,0.1,0.1,0.2,0.2,0.3c0,0.1,0,0.1,0.1,0.1l0.1,0.2c0.1,0.1,0.1,0.2,0.1,0.4
		c0.1,0.5,0.1,1.1-0.1,1.7l0,0c0,0-0.1,0.1-0.1,0.1c0,0,0,0,0,0c-0.5-0.4-0.8-0.8-1-1.3c0-0.1-0.1-0.2-0.1-0.4
		c-0.2,0.1-0.3,0.3-0.4,0.4c-0.1,0.2,0,0.6-0.1,0.8c0,0.3-0.2,0.5-0.4,0.7c-0.2,0.2-0.4,0.4-0.7,0.5c0,0-0.1,0-0.1,0l0,0l0-0.1
		c-0.1-0.3-0.1-0.6,0-0.9c0.1-0.3,0.1-0.5,0.3-0.7c0.2-0.2,0.5-0.3,0.7-0.5C107.9,76.4,108,76.1,108.1,75.8z M100.7,74.6L100.7,74.6
		L100.7,74.6l0.1,0.1c0,0.1,0.1,0.1,0.1,0.2c0.2,0.2,0.3,0.4,0.6,0.5c0.2,0.1,0.5,0.1,0.8,0.1c0.2,0.1,0.4,0.3,0.6,0.5
		c0.1,0.2,0.3,0.5,0.3,0.8l0,0.1c0,0,0,0.1,0,0.1c-0.4,0.1-0.6,0-0.8-0.1c-0.2-0.1-0.4-0.2-0.6-0.4c-0.1-0.2-0.2-0.5-0.4-0.7
		c-0.1-0.1-0.3-0.2-0.4-0.2c0,0.1,0,0.2,0,0.3c0,0.5-0.1,1-0.4,1.6c0,0-0.1,0-0.1,0c0,0,0,0,0,0l0,0c-0.5-0.5-0.7-0.9-0.8-1.4
		c0-0.1,0-0.2,0-0.4l0-0.2c0,0,0,0,0-0.1c0-0.1,0-0.2,0-0.3C99.8,74.6,100.3,74.4,100.7,74.6L100.7,74.6z M101.2,83.1
		c-0.2,0.2-0.2,0.5-0.4,0.7c-0.1,0.2-0.3,0.3-0.6,0.4c-0.2,0.1-0.5,0.2-0.8,0.1c0,0,0,0,0-0.1l0-0.1c0-0.3,0.1-0.6,0.3-0.8
		c0.1-0.2,0.3-0.4,0.6-0.5c0.2-0.1,0.6,0,0.8-0.1c0.2-0.1,0.4-0.3,0.6-0.5c0-0.1,0.1-0.1,0.1-0.2l0.1-0.1l0,0l0,0l0.1,0
		c0.4-0.2,0.8,0.1,1,0.5c0,0.1,0.1,0.2,0,0.3c0,0.1,0,0.1,0,0.1l0,0.2c0,0.1,0,0.2,0,0.4c-0.1,0.5-0.3,0.9-0.8,1.4l0,0
		c0,0-0.1,0-0.1,0c0,0,0,0,0,0c-0.3-0.5-0.4-1.1-0.4-1.6c0-0.1,0-0.2,0-0.3C101.5,82.9,101.3,83,101.2,83.1z M99.1,68
		c0.1,0,0.2,0,0.3,0c0.1,0,0.1,0,0.1,0c0,0,0.1,0,0.1,0c0.1,0,0.2,0,0.2,0.1c0.3,0.2,0.6,0.4,0.8,1l0,0c0,0,0,0.1,0,0.1
		c-0.4,0.3-0.8,0.3-1.2,0.3c0,0-0.1,0-0.1,0c0,0,0,0.1,0.1,0.1c0.1,0.2,0.3,0.2,0.5,0.4c0.1,0.1,0.2,0.3,0.2,0.5
		c0,0.2,0,0.4-0.1,0.7c0,0,0,0,0,0l-0.1,0c-0.3,0-0.4-0.2-0.6-0.3c-0.1-0.1-0.3-0.3-0.3-0.5c0-0.2,0.1-0.5,0.1-0.7
		c0-0.2-0.1-0.4-0.3-0.5c0,0-0.1-0.1-0.1-0.1L98.5,69l0,0l0,0l0-0.1C98.4,68.5,98.7,68,99.1,68z M95.2,71.8L95.2,71.8L95.2,71.8
		l0.1,0l0.1,0c0.1,0,0.1,0.1,0.2,0.1c0.2,0.1,0.5,0.3,0.7,0.3c0.2,0,0.5-0.1,0.8-0.2c0.3,0,0.5,0.1,0.7,0.2c0.2,0.2,0.4,0.3,0.5,0.6
		l0,0.1c0,0,0,0.1,0,0.1c-0.3,0.2-0.6,0.2-0.8,0.2c-0.2,0-0.5,0-0.7-0.2c-0.2-0.1-0.4-0.4-0.6-0.5c-0.1-0.1-0.3-0.1-0.5,0
		c0.1,0.1,0.1,0.2,0.1,0.3c0.2,0.5,0.3,1,0.1,1.6c0,0-0.1,0.1-0.1,0.1c0,0,0,0,0,0l0,0c-0.6-0.3-0.9-0.6-1.2-1
		c-0.1-0.1-0.1-0.2-0.1-0.3l-0.1-0.2c0,0,0,0,0-0.1c0-0.1-0.1-0.2-0.1-0.3C94.5,72.2,94.8,71.8,95.2,71.8z M80,69
		c-0.2,0.1-0.4,0.2-0.7,0.1c-0.2-0.1-0.5-0.2-0.7-0.2c-0.2,0-0.3,0.1-0.4,0.2c0.1,0.1,0.2,0.1,0.2,0.2c0.3,0.4,0.6,0.8,0.7,1.5
		c0,0,0,0.1-0.1,0.1c0,0,0,0,0,0l0,0c-0.6,0-1.1-0.2-1.4-0.5c-0.1-0.1-0.2-0.2-0.2-0.2l-0.1-0.1c0,0,0,0-0.1-0.1
		c-0.1-0.1-0.1-0.2-0.2-0.3c-0.2-0.4,0-0.9,0.4-1.1l0.1,0l0,0l0.1,0l0.1,0c0.1,0,0.1,0,0.2,0c0.3,0,0.5,0.1,0.7,0
		c0.2-0.1,0.4-0.3,0.7-0.4c0.2-0.1,0.5-0.1,0.7,0c0.2,0.1,0.5,0.2,0.7,0.4l0,0c0,0,0,0.1,0,0.1C80.5,68.8,80.2,68.9,80,69z
		 M85.4,71.2c-0.2,0.1-0.4,0.2-0.7,0.1c-0.2-0.1-0.5-0.2-0.7-0.2c-0.2,0-0.3,0.1-0.4,0.2c0.1,0.1,0.2,0.1,0.2,0.2
		c0.3,0.4,0.6,0.8,0.7,1.5c0,0,0,0.1-0.1,0.1c0,0,0,0,0,0l0,0c-0.6,0-1.1-0.2-1.4-0.5c-0.1-0.1-0.2-0.2-0.2-0.2l-0.1-0.1
		c0,0,0,0-0.1-0.1c-0.1-0.1-0.1-0.2-0.2-0.3c-0.2-0.4,0-0.9,0.4-1.1l0.1,0l0,0l0.1,0l0.1,0c0.1,0,0.1,0,0.2,0c0.3,0,0.5,0.1,0.7,0
		c0.2-0.1,0.4-0.3,0.7-0.4c0.2-0.1,0.5-0.1,0.7,0c0.2,0.1,0.5,0.2,0.7,0.4l0,0c0,0,0,0.1,0,0.1C85.9,71,85.7,71.1,85.4,71.2z
		 M90.5,76.3c-0.2,0-0.5,0-0.7-0.2c-0.2-0.1-0.4-0.4-0.6-0.5c-0.1-0.1-0.3-0.1-0.5,0c0.1,0.1,0.1,0.2,0.2,0.3c0.2,0.5,0.3,1,0.2,1.6
		c0,0-0.1,0.1-0.1,0.1c0,0,0,0,0,0l0,0c-0.6-0.2-0.9-0.6-1.2-1c-0.1-0.1-0.1-0.2-0.2-0.3l-0.1-0.2c0,0,0,0,0-0.1
		c0-0.1-0.1-0.2-0.1-0.3c0-0.5,0.3-0.9,0.7-0.9l0.1,0l0,0l0,0l0.1,0c0.1,0,0.1,0.1,0.2,0.1c0.2,0.1,0.5,0.2,0.7,0.2
		c0.2,0,0.5-0.2,0.8-0.2c0.3,0,0.5,0.1,0.7,0.2c0.2,0.2,0.4,0.3,0.5,0.6l0,0.1c0,0,0,0.1,0,0.1C91,76.2,90.8,76.3,90.5,76.3z
		 M91.6,90.5c-0.1,0.4-0.2,0.9-0.4,1.4c0,0-0.1,0.1-0.1,0c0,0,0,0,0,0c-0.4-0.4-0.6-0.9-0.7-1.4c0-0.2-0.1-0.5,0-0.8
		c0,0-0.1,0-0.1,0c-0.2,0.1-0.3,0.3-0.4,0.6c-0.1,0.3-0.3,0.4-0.5,0.5c-0.2,0.1-0.4,0.1-0.8,0.1c0,0,0,0,0,0l0-0.1
		c0-0.3,0.1-0.6,0.2-0.8c0.1-0.2,0.3-0.4,0.6-0.4c0.3,0,0.5,0,0.7-0.2c0.2-0.1,0.3-0.4,0.5-0.6c0.4-0.2,0.9,0,1,0.6l0,0.5
		C91.6,90,91.6,90.2,91.6,90.5z M92.3,69.2c-0.2,0.3-0.4,0.4-0.6,0.4c-0.2,0.1-0.4,0.1-0.6,0c-0.2-0.1-0.4-0.3-0.6-0.3
		c-0.1,0-0.2,0-0.3,0c0,0,0.1,0.1,0.1,0.2c0.2,0.4,0.4,0.8,0.4,1.4c0,0.1,0,0.1-0.1,0.1c0,0,0,0,0,0l0,0c-0.6,0-0.9-0.2-1.3-0.5
		c-0.1-0.1-0.1-0.1-0.2-0.2c0,0-0.1-0.1-0.1-0.1c0,0,0,0-0.1-0.1C89,70,89,69.8,88.9,69.7c-0.1-0.4,0.1-0.9,0.5-1l0.1,0l0,0l0,0
		l0.1,0c0.1,0,0.1,0,0.2,0.1c0.2,0.1,0.4,0.1,0.6,0.1c0.2-0.1,0.4-0.3,0.6-0.4c0.2-0.1,0.4,0,0.6,0c0.2,0.1,0.4,0.2,0.6,0.5
		L92.3,69.2C92.3,69.1,92.3,69.2,92.3,69.2z M92.8,80.1l0-0.2c0,0,0,0,0-0.1c0-0.1,0-0.2,0-0.3c0.1-0.4,0.6-0.7,1-0.5l0.1,0l0,0l0,0
		l0.1,0.1c0,0.1,0.1,0.1,0.1,0.2c0.2,0.2,0.3,0.4,0.6,0.5c0.2,0.1,0.5,0.1,0.8,0.1c0.2,0.1,0.4,0.3,0.6,0.5c0.1,0.2,0.3,0.5,0.3,0.8
		l0,0.1c0,0,0,0.1,0,0.1c-0.4,0.1-0.6,0-0.8-0.1c-0.2-0.1-0.4-0.2-0.6-0.4c-0.1-0.2-0.2-0.5-0.4-0.7C94.3,80.1,94.2,80,94,80
		c0,0.1,0,0.2,0,0.3c0,0.5-0.1,1-0.4,1.6c0,0-0.1,0-0.1,0c0,0,0,0,0,0l0,0c-0.5-0.5-0.7-0.9-0.8-1.4C92.8,80.4,92.8,80.3,92.8,80.1z
		 M95.8,87.5c0,0-0.1,0-0.1,0c-0.3-0.5-0.4-0.9-0.4-1.4c0-0.1,0-0.1,0-0.2c-0.1,0-0.2,0.1-0.2,0.1c-0.1,0.1-0.2,0.4-0.3,0.6
		c-0.1,0.2-0.3,0.3-0.5,0.3c-0.2,0.1-0.4,0.1-0.7,0c0,0,0,0,0,0l0-0.1c0-0.3,0.1-0.5,0.2-0.7c0.1-0.2,0.3-0.4,0.5-0.4
		c0.2-0.1,0.5,0,0.7-0.1c0.2-0.1,0.3-0.2,0.5-0.5c0-0.1,0.1-0.1,0.1-0.2l0.1-0.1l0,0l0,0l0.1,0c0.3-0.2,0.8,0,0.9,0.5
		c0,0.1,0,0.2,0,0.3c0,0.1,0,0.1,0,0.1c0,0.1,0,0.1,0,0.2c0,0.1,0,0.2,0,0.3C96.4,86.8,96.2,87.2,95.8,87.5L95.8,87.5z M98.8,92.2
		c0,0-0.1,0-0.1,0c0,0,0,0,0,0c-0.3-0.6-0.4-1.1-0.4-1.7c0-0.1,0-0.3,0.1-0.4c-0.2,0-0.4,0.1-0.5,0.2c-0.2,0.2-0.3,0.5-0.4,0.7
		c-0.1,0.2-0.4,0.3-0.6,0.4c-0.2,0.1-0.5,0.2-0.9,0.1c0,0,0,0,0-0.1v0l0-0.1c0-0.3,0.2-0.6,0.3-0.8c0.2-0.2,0.3-0.4,0.6-0.5
		c0.3-0.1,0.6-0.1,0.8-0.2c0.2-0.1,0.4-0.3,0.6-0.5c0-0.1,0.1-0.1,0.1-0.2l0.1-0.1l0,0l0,0l0.1,0c0.4-0.2,0.9,0.1,1,0.5
		c0,0.1,0.1,0.2,0,0.3c0,0.1,0,0.1,0,0.1l0,0.2c0,0.1,0,0.3,0,0.4C99.5,91.2,99.3,91.7,98.8,92.2L98.8,92.2z M103,95.1
		c0,0.1,0,0.1,0,0.1l0,0.2c0,0.1-0.1,0.3-0.1,0.4c-0.2,0.5-0.5,0.9-1.1,1.3l0,0c0,0-0.1,0-0.1,0c0,0,0,0,0,0c-0.2-0.6-0.2-1.2,0-1.7
		c0-0.1,0.1-0.2,0.1-0.3c-0.2,0-0.4,0-0.5,0.1c-0.2,0.1-0.4,0.4-0.6,0.6c-0.2,0.2-0.4,0.2-0.7,0.3c-0.3,0-0.5,0.1-0.9-0.1
		c0,0,0,0,0-0.1l0,0l0-0.1c0.1-0.3,0.3-0.5,0.5-0.7c0.2-0.2,0.4-0.3,0.7-0.4c0.3,0,0.6,0.1,0.8,0c0.3,0,0.5-0.2,0.7-0.4
		c0.1,0,0.1-0.1,0.2-0.1l0.1-0.1l0,0l0,0l0.1,0c0.4-0.1,0.8,0.3,0.8,0.8C103.1,94.9,103.1,95,103,95.1z M105.6,87.6
		c-0.1,0.5-0.3,1-0.8,1.5l0,0c0,0-0.1,0-0.1,0c0,0,0,0,0,0c-0.3-0.6-0.4-1.1-0.4-1.7c0-0.1,0-0.3,0.1-0.4c-0.2,0-0.4,0.1-0.5,0.2
		c-0.2,0.2-0.3,0.5-0.4,0.7c-0.1,0.2-0.4,0.3-0.6,0.4c-0.2,0.1-0.5,0.2-0.9,0.1c0,0,0,0,0-0.1l0,0l0-0.1c0-0.3,0.2-0.6,0.3-0.8
		c0.2-0.2,0.3-0.4,0.6-0.5c0.3-0.1,0.6-0.1,0.8-0.2c0.2-0.1,0.4-0.3,0.6-0.5c0-0.1,0.1-0.1,0.1-0.2l0.1-0.1l0,0l0,0l0.1,0
		c0.4-0.2,0.9,0.1,1,0.5c0,0.1,0.1,0.2,0,0.3c0,0.1,0,0.1,0,0.1l0,0.2C105.6,87.3,105.6,87.5,105.6,87.6z M105.8,70.9
		c-0.1,0.2-0.2,0.4-0.2,0.6c0,0.3,0.1,0.6,0.2,0.8c0,0.3,0,0.5-0.1,0.8c-0.1,0.3-0.2,0.5-0.5,0.8c0,0-0.1,0-0.1,0l0,0l0-0.1
		c-0.2-0.3-0.3-0.5-0.3-0.8c0-0.3-0.1-0.6,0.1-0.8c0.1-0.3,0.4-0.5,0.4-0.8c0.1-0.3,0.1-0.5,0.1-0.8c0-0.1,0-0.2,0-0.2l0-0.1l0-0.1
		l0,0l0-0.1c0.1-0.4,0.6-0.6,1-0.4c0.1,0.1,0.2,0.1,0.3,0.2c0.1,0.1,0.1,0.1,0.1,0.1l0.1,0.1c0.1,0.1,0.2,0.2,0.2,0.3
		c0.3,0.4,0.4,1,0.5,1.6v0c0,0,0,0.1-0.1,0.1c0,0,0,0,0,0c-0.6-0.1-1-0.5-1.4-0.9C105.9,71.1,105.8,71,105.8,70.9z M106.1,84.5
		C106.1,84.5,106.1,84.4,106.1,84.5L106.1,84.5l0-0.1c0-0.3,0.2-0.6,0.3-0.8c0.2-0.2,0.3-0.4,0.6-0.5c0.3-0.1,0.6-0.1,0.8-0.2
		c0.2-0.1,0.4-0.3,0.6-0.5c0-0.1,0.1-0.1,0.1-0.2l0.1-0.1l0,0l0,0l0.1,0c0.4-0.2,0.9,0.1,1,0.5c0,0.1,0.1,0.2,0,0.3
		c0,0.1,0,0.1,0,0.1l0,0.2c0,0.1,0,0.3,0,0.4c-0.1,0.5-0.3,1-0.8,1.5l0,0c0,0-0.1,0-0.1,0c0,0,0,0,0,0c-0.3-0.6-0.4-1.1-0.4-1.7
		c0-0.1,0-0.3,0.1-0.4c-0.2,0-0.4,0.1-0.5,0.2c-0.2,0.2-0.3,0.5-0.4,0.7c-0.1,0.2-0.4,0.3-0.6,0.4C106.7,84.4,106.5,84.5,106.1,84.5
		z M113.2,94.3c-0.1,0.4-0.2,0.7-0.3,1.1l-0.4,0.9c-0.2,0.6-0.5,1.2-0.6,1.8c-0.2,0.6-0.3,1.2-0.2,1.8c0.1,0.6,0.3,1.2,0.6,1.8
		c0,0,0,0.1,0,0.1c0,0-0.1,0-0.1,0c-0.5-0.4-1-1-1.2-1.7c-0.2-0.7-0.2-1.5-0.1-2.2c0.1-0.7,0.3-1.4,0.5-2c0.1-0.3,0.2-0.6,0.4-1
		c0.1-0.3,0.2-0.6,0.3-0.8c0.2-0.6,0.2-1.1,0-1.7c-0.2-0.5-0.7-1-1.2-1.2c-0.1,0-0.3-0.1-0.4-0.1l0,0c0,0,0,0,0,0c0,0,0,0,0,0
		c0,0-0.1,0.1-0.1,0.2l-0.5,0.9c-0.3,0.6-0.7,1.1-1,1.7c-0.6,1.2-0.9,2.4-1.1,3.6c-0.1,1.2,0.1,2.5,0.6,3.5c0.6,1.2,1.2,2.4,1.7,3.7
		c0.2,0.7,0.4,1.3,0.5,2.1c0.1,0.7,0,1.5-0.4,2.1c0,0-0.1,0-0.1,0c0,0,0,0,0-0.1l0,0c0.3-1.3-0.3-2.5-0.9-3.7
		c-0.6-1.2-1.3-2.3-1.9-3.5c-0.7-1.4-0.8-2.9-0.6-4.4c0.2-1.5,0.8-2.8,1.7-3.9c0.4-0.6,0.9-1,1.2-1.5c0.2-0.3,0.4-0.5,0.5-0.8
		c0-0.1,0.1-0.1,0.2-0.2c0,0,0.1-0.1,0.2-0.1c0,0,0.1,0,0.1,0l0.1,0c0.2,0,0.4,0,0.5,0.1c0.6,0.2,1.3,0.5,1.7,1.2
		C113.3,92.7,113.4,93.6,113.2,94.3z"/>
	<path class="st0" d="M116.4,77.5c0.1,1.2-0.1,2.3-0.4,3.5c0.1,0,0.2,0.1,0.3,0.2c0.2,0.1,0.4,0.2,0.5,0.3c0.3,0.2,0.7,0.5,1,0.7
		c0.6,0.5,1.2,1.1,1.6,1.9c0.4,0.7,0.7,1.6,0.9,2.4c0,0.2,0.1,0.4,0.1,0.7c0,0.2-0.1,0.5-0.1,0.7c-0.1,0.4-0.1,0.8-0.1,1.2
		c0,0.8,0.2,1.5,0.4,2.1c0.1,0.3,0.3,0.6,0.5,0.9c0.1,0.2,0.2,0.2,0.4,0.5c0.1,0.1,0.1,0.2,0.2,0.3c0.1,0.1,0.1,0.2,0.1,0.3
		c0.3,0.9,0.4,1.7,0.4,2.6c0,0.4,0,0.7,0,1.1c0.3-1.3,0.4-2.6,0.5-3.9c0.1-2,0.1-4-0.1-6c0-0.5-0.1-1-0.1-1.5l-0.1-0.8l0-0.4l0-0.2
		c0-0.1,0-0.1,0-0.1c-0.2-0.9-0.6-1.9-0.9-2.8c-0.8-1.8-1.8-3.5-3-5c-1.1-1.4-2.3-2.6-3.6-3.7c0.4,0.7,0.8,1.4,1,2.2
		C116.3,75.6,116.4,76.6,116.4,77.5z"/>
	<path class="st0" d="M116.5,91.7c0,0.3,0,0.6,0,0.9c0,0.6,0.1,1.2,0.2,1.8c0.1,0.6,0.2,1,0.4,1.4c0,0.1,0.1,0.2,0.2,0.2
		c0.1,0.1,0.2,0.2,0.3,0.4c0.2,0.2,0.4,0.5,0.6,0.8c0.3,0.4,0.5,0.8,0.7,1.3c0.1,0,0.1,0,0.2,0c0.9-0.1,1.8-0.2,2.8-0.1
		c0.1,0,0.1,0,0.2,0c0,0,0-0.1,0-0.1c-0.2-0.8-0.4-1.6-0.6-2.3c-0.2-0.8-0.4-1.5-0.7-2.2c-0.1-0.3-0.2-0.4-0.5-0.9
		c-0.2-0.4-0.4-0.8-0.6-1.3c-0.3-0.9-0.3-1.9,0-2.7c0.1-0.4,0.2-0.8,0.4-1.2c0.1-0.4,0.1-0.7,0-1.1c-0.2-0.7-0.8-1.3-1.3-1.9
		c-0.9-1.1-1.8-2.2-2.7-3.4c-0.2,0.6-0.3,1.1-0.6,1.7c-0.3,0.8-0.8,1.6-1.2,2.4c-0.2,0.3-0.5,0.7-0.7,1c0.6,0.1,1.3,0.4,1.7,0.8
		c0.5,0.4,1,0.9,1.3,1.5c0.3,0.7,0.2,1.4,0.2,2.1C116.6,91.1,116.5,91.4,116.5,91.7z"/>
	<path class="st0" d="M87.8,111.5l0.1-1.3c0-0.4,0-0.8-0.2-1.1c-0.2-0.7-0.9-1.1-1.6-1.2c-0.3,0.4-0.6,0.7-1,1c-0.6,0.5-1.3,0.8-2,1
		c0,0-0.1,0-0.1,0c0.1,0.6,0.2,1.2,0.4,1.8c0.2,0.6,0.4,1.2,0.7,1.7c0.3,0.5,0.8,1,1.1,1.6c0.1,0.3,0.3,0.7,0.3,1.1
		c0,0.2,0,0.4-0.1,0.6c0.9-0.2,1.8-0.3,2.6-0.5c-0.1-0.7-0.2-1.5-0.2-2.2C87.6,113.2,87.7,112.4,87.8,111.5z"/>
	<path class="st0" d="M68.8,74.7c-2,0.1-4,0.3-6.1,0.6c0.1,0.1,0.2,0.2,0.2,0.4c0.2,0.3,0.3,0.7,0.3,1c0,0.4-0.1,0.8,0,1.1
		c0,0.4,0.2,0.7,0.4,1c0.2,0.3,0.4,0.7,0.4,1c0.1,0.4,0.2,0.7,0.2,1.1c0,0.4,0,0.8-0.1,1.2c0,0.1-0.1,0.3-0.1,0.4
		c0.2,0.1,0.5,0.2,0.7,0.4c0.8,0.5,1.5,1.1,2.2,1.7c1,0.9,1.9,1.9,2.7,3.1c0-0.3,0.1-0.7,0.2-1c0.2-0.8,0.5-1.5,0.9-2.2
		c0.4-0.7,1-1.3,1.7-1.8c0.2-0.1,0.4-0.2,0.6-0.3l0.3-0.1c0.1,0,0.1,0,0.2-0.1c0.1,0,0.2,0,0.2-0.1c0.1,0,0.2,0,0.2-0.1
		c0.1-0.1,0.1,0,0.1-0.1c0-0.2-0.2-0.5-0.5-0.8c-0.3-0.3-0.5-0.5-0.8-0.7c-0.6-0.5-1.3-0.8-1.7-1.6c-0.5-0.7-0.6-1.6-0.6-2.4
		c0-0.6,0.1-1.3,0.3-1.8C70.1,74.7,69.4,74.7,68.8,74.7z"/>
	<path class="st0" d="M71.1,74.7c0.1,0.6,0.1,1.2,0.2,1.7c0.1,0.3,0.1,0.7,0.2,1c0.1,0.3,0.2,0.6,0.3,0.9c0.2,0.6,0.6,1.3,1.1,1.8
		c0.3,0.3,0.5,0.5,0.8,0.7c0.1,0.1,0.3,0.2,0.4,0.4c0.1,0.1,0.3,0.3,0.4,0.6c0.1,0.4-0.1,0.8-0.3,0.9c-0.1,0.1-0.2,0.2-0.3,0.2
		c-0.1,0.1-0.2,0.1-0.3,0.2c-0.1,0.1-0.2,0.1-0.3,0.1l-0.2,0.1c-0.1,0.1-0.2,0.2-0.4,0.3c-0.5,0.4-0.8,1-1.2,1.5
		c-0.4,0.6-0.7,1.2-1.1,1.8c-0.2,0.4-0.5,0.9-0.6,1.3c0.2,0.2,0.3,0.5,0.5,0.7c0.5,0.9,0.9,1.8,1.1,2.8c0.1,0.5,0.1,1.1,0.1,1.6
		c0.4-0.1,0.8-0.1,1.2-0.1c0.7,0.1,1.3,0.2,1.9,0.5c0.8-0.5,1.5-0.9,2.3-1.3c0,0,0,0,0,0c0.2-0.9,0.5-1.9,0.9-2.7c0.5-1,1-2,1.9-2.8
		c0.4-0.4,1-0.7,1.7-0.8c0.7-0.1,1.4,0.2,1.8,0.6c0.2,0.2,0.4,0.3,0.5,0.5c0-0.1,0-0.2-0.1-0.3l-0.2-0.6c-0.1-0.4-0.2-0.9-0.3-1.3
		c-0.1-0.4-0.1-0.9-0.2-1.3c-0.1-0.5-0.1-0.9-0.1-1.4c0-0.1,0-0.3,0-0.4c0-0.1,0-0.3,0-0.4c0-0.2,0-0.5,0-0.7c0-0.5,0.1-1.1,0.4-1.6
		c0.3-0.5,0.8-0.7,1.2-0.8c-2.3-1.3-4.8-2.2-7.4-2.9C75.3,75.1,73.2,74.8,71.1,74.7z"/>
	<path class="st0" d="M31,115.4c0,0.2,0,0.4,0,0.6c0,0.6,0,1.1,0,1.7c0,0.6,0.1,1.1-0.1,1.7c-0.1,0.3-0.1,0.5-0.2,0.8l0.9,0.2
		c0.6,0.2,1.1,0.3,1.7,0.4c-0.1-0.2-0.1-0.5-0.1-0.7c-0.1-0.5,0.2-0.9,0.3-1.4c0.1-0.4,0.2-0.9,0.4-1.3c0.1-0.2,0.1-0.4,0.2-0.5
		c-0.4-0.2-0.7-0.4-1.1-0.6C32.2,116,31.6,115.7,31,115.4z"/>
	<path class="st0" d="M19.2,106.2l5-1.2c0.8-1.7,0.6-3.5,0.5-5.3c-0.1-1-0.3-1.9-0.4-2.9c-0.2-1-0.4-2-1-2.7L23,94l0.1-0.1
		c0.3-0.6,0.3-1.2,0.2-1.9c-0.1-0.6-0.2-1.2-0.3-1.9c-0.3-1.2-0.7-2.4-1-3.7c-1.4,0.7-2.8,1.5-4.1,2.4c-0.2,0.1-0.4,0.3-0.6,0.4
		c0.4,0.4,0.7,0.9,1,1.5c0.3,0.6,0.5,1.3,0.5,2c0,0.7-0.1,1.4-0.4,2c-0.2,0.6-0.5,1.1-0.7,1.6c0.5,0.5,1,1.1,1.4,1.7
		c0.4,0.7,0.7,1.5,0.9,2.3C20.3,101.8,19.9,104.6,19.2,106.2C19.1,106.1,19.1,106.2,19.2,106.2z"/>
	<path class="st0" d="M17.1,114.2c-0.1-0.4-0.1-0.8-0.2-1.2c0-0.2-0.1-0.4-0.3-0.6c-0.1-0.1-0.1-0.2-0.2-0.3
		c-0.1-0.1-0.1-0.2-0.2-0.3c-0.2-0.4-0.5-0.9-0.5-1.4c-0.1-0.5,0.1-1,0.2-1.4c0.1-0.2,0.2-0.4,0.3-0.6c-1.9-1-3.9-1.9-5.8-2.8
		c0,0.2,0,0.3,0.1,0.6c0.1,0.2,0.2,0.5,0.3,0.7c0.1,0.2,0.2,0.4,0.4,0.5c0.3,0.4,1,0.8,1.3,1.5c0.3,0.7,0.3,1.4,0.4,2
		c0.1,0.7,0.1,1.3,0.1,2c0,0.6,0,1.3-0.1,1.9c-0.1,0.6-0.2,1.3-0.4,1.9c-0.1,0.3-0.2,0.6-0.3,0.9c0,0.1-0.1,0.2-0.1,0.2
		c0.6,0,1.2-0.1,1.8-0.1c1.3,0,2.5,0.1,3.7,0.2c-0.2-0.9-0.3-1.7-0.4-2.5C17.2,115,17.2,114.6,17.1,114.2z"/>
	<path class="st0" d="M18.7,100.7c-0.1-0.7-0.3-1.4-0.5-2.1c-0.3-0.7-0.5-1.4-0.9-2.1l-0.1-0.2l0.1-0.1c0.4-0.5,0.6-1,0.7-1.6
		c0-0.6-0.1-1.2-0.2-1.8c-0.1-0.6-0.2-1.2-0.3-1.8c-0.1-0.5-0.2-1.1-0.3-1.7c-0.9,0.7-1.9,1.5-2.7,2.3c-1,1.1-2,2.3-2.4,3.7
		c-0.2,0.7-0.3,1.4-0.1,2.1c0.1,0.7,0.4,1.3,0.8,2c0.8,1.3,1.7,2.4,2.8,3.5c1,1,2.1,2,3.2,2.8c0-0.5,0-1,0-1.5
		C18.7,103.6,18.8,101.4,18.7,100.7z"/>
	<path class="st0" d="M34.4,117.1C34.4,117.1,34.3,117.1,34.4,117.1c-0.1,0.1-0.1,0.2-0.1,0.4c0,0.5,0,0.9,0,1.4
		c0,0.5,0.1,0.9,0,1.3c-0.1,0.3-0.2,0.5-0.3,0.8c1,0.2,2.1,0.4,3.2,0.6c1.3,0.2,2.6,0.4,3.9,0.6c0.7,0.1,1.3,0.3,2,0.4
		c0.3,0.1,0.6,0.2,0.9,0.3l-6.6-4C36.4,118.3,35.4,117.7,34.4,117.1z"/>
	<path class="st0" d="M16.9,108.6c0,0.2,0,0.4,0,0.6c0,0.4-0.1,0.8-0.1,1.2c-0.1,0.4-0.2,0.8-0.1,1.2c0.1,0.2,0.2,0.4,0.3,0.5
		c0.1,0.1,0.4,0.3,0.5,0.5c0.4,0.3,0.6,0.8,0.8,1.3c0.2,0.5,0.3,0.9,0.3,1.4c0,0.5,0,1-0.1,1.4c-0.1,0.4-0.2,0.8-0.5,1.2
		c1.3,0.1,2.6,0.3,3.9,0.5c1.3,0.2,2.6,0.4,3.9,0.7c1.3,0.3,2.6,0.6,3.9,0.9l0.1,0c0-0.2-0.1-0.5-0.1-0.7c0-0.6,0.2-1.1,0.3-1.7
		c0.1-0.6,0.3-1.1,0.4-1.6c0.1-0.2,0.1-0.5,0.2-0.7c-3.5-1.7-7.1-3.3-10.6-5C18.9,109.7,17.9,109.1,16.9,108.6z"/>
	<path class="st0" d="M45.5,99.8l-0.3-1.4c-0.2-0.9-0.5-1.8-0.6-2.8c-0.2-0.9-0.3-1.9-0.4-2.9c-0.1-1-0.1-2,0.1-2.9
		c0.1-0.5,0.2-1,0.2-1.4c0-0.5,0-0.9-0.1-1.4c-0.2-0.9-0.7-1.7-1.1-2.5c-0.7-1.5-1.5-3-2.2-4.6C39,80.4,37,81,35,81.6
		c0.6,0.5,1,1.1,1.5,1.7c0.4,0.7,0.8,1.4,1,2.3c0.2,0.8,0.3,1.7,0.1,2.5c-0.1,0.8-0.3,1.5-0.6,2.3c0.7,0.8,1.4,1.7,1.9,2.6
		c0.5,1,1,2.1,1.3,3.2c0.3,1.1,0.4,2.3,0.3,3.5c-0.1,1-0.5,2.1-1.2,2.8l3.9-1c0.9-0.2,1.7-0.5,2.6-0.7c0-0.1,0-0.3,0-0.4
		C45.7,100.2,45.6,100,45.5,99.8z"/>
	<path class="st0" d="M53,95c-0.2-0.2-0.4-0.4-0.6-0.5c-0.7-0.7-1.4-1.3-2-2.1c-0.6-0.8-1.2-1.5-1.7-2.5c-0.2-0.5-0.4-1.1-0.4-1.7
		c0-0.2,0-0.4,0.1-0.5c0-0.2,0.1-0.4,0.2-0.5c0.1-0.3,0.2-0.5,0.4-0.7c0.6-0.9,1.5-1.5,2.4-1.9c0.4-0.2,0.8-0.3,1.2-0.4
		c-0.1-0.6-0.2-1.1-0.2-1.5c0-0.3,0-0.5,0-0.8c0-0.3,0-0.6,0-0.9c0-0.2,0-0.3,0-0.5c0-0.1-0.1-0.3-0.2-0.4c-0.2-0.3-0.5-0.4-0.7-0.6
		c-0.3-0.3-0.5-0.8-0.7-1.3c-1.2,0.3-2.4,0.6-3.6,0.9c-0.7,0.2-1.5,0.3-2.2,0.4c-0.7,0.1-1.4,0.3-2.2,0.4c-0.4,0.1-0.9,0.2-1.3,0.3
		c0.5,0.5,1,1.1,1.4,1.6c0.3,0.4,0.5,0.8,0.8,1.2c0.2,0.4,0.4,0.9,0.6,1.3c0.3,0.9,0.4,1.9,0.5,2.9c0,0.5,0.1,1,0.1,1.5
		c0,0.5-0.1,1,0,1.4c0.2,1.8,0.7,3.7,1,5.5c0.1,0.9,0.2,1.9,0.3,2.9c0,0.5,0,1,0,1.5c0,0.2,0,0.5-0.1,0.8c0,0.1-0.1,0.2-0.1,0.3
		c1.5-0.4,3.1-0.8,4.7-1.1c0.6-0.1,1.3-0.2,2-0.3c0.1,0,0.3,0,0.4,0c0-0.3,0-0.6,0-0.8c0-0.4,0.2-0.8,0.2-1.2c0-0.4,0-0.8,0-1.3
		C53.2,95.7,53.1,95.3,53,95z"/>
	<path class="st0" d="M12.4,109.8c0-0.3,0-0.6-0.2-0.8c-0.3-0.5-0.9-0.4-1.5-0.8c-0.3-0.2-0.6-0.5-0.8-0.9c-0.2-0.4-0.3-0.7-0.3-1.1
		c0-0.3,0-0.7,0.3-1.1c-0.9-0.5-1.8-0.9-2.7-1.4c-0.3-0.2-0.6-0.3-0.9-0.5c0.1,0.3,0.2,0.5,0.3,0.8c0.2,0.6,0.3,1.3,0.3,2
		c0,0.7-0.2,1.4-0.4,2c-0.2,0.6-0.3,1.3-0.3,1.9c0,0.6,0,1.2,0.2,1.7l0.1,0.4l0.1,0.5c0.1,0.3,0.2,0.6,0.2,1
		c0.2,1.2,0.3,2.5,0.1,3.8c1,0.2,2,0.4,3.1,0.4c0.6,0,1.1,0,1.7,0l0-0.4c0-0.3,0-0.6,0-1c0-0.6,0-1.3,0-1.9c0-0.6,0.2-1.3,0.2-1.9
		c0.1-0.6,0.2-1.3,0.4-1.9C12.4,110.4,12.4,110.1,12.4,109.8z"/>
	<path class="st0" d="M85.6,89.1l-0.7-0.3l-0.7-0.3c-0.5-0.2-0.9-0.5-1.4-0.7c-0.2-0.1-0.4-0.2-0.6-0.3c-0.2,0-0.3-0.1-0.5,0
		c-0.3,0.1-0.7,0.3-1,0.6c-0.7,0.6-1.3,1.4-1.9,2.3l-1.4,2.1c0.8-0.4,1.6-0.7,2.3-1.1c0.9-0.4,1.8-0.8,2.7-1.1
		c0.9-0.3,1.8-0.7,2.8-1c0.6-0.3,1.2-0.6,1.8-0.9c0.7-0.4,1.3-0.7,1.9-1.2c0.6-0.4,1.1-0.9,1.4-1.6c0.2-0.7,0.1-1.4-0.1-2.1
		c-0.3-0.7-0.7-1.3-1.2-1.8c-0.9-1-2.1-1.8-3.3-2.5c-0.2,0.1-0.4,0.3-0.6,0.4c-0.3,0.2-0.6,0.5-0.9,0.7c-0.3,0.2-0.6,0.4-0.8,0.9
		c-0.1,0.4,0,0.9,0.2,1.3c0.1,0.2,0.2,0.4,0.3,0.6c0.1,0.2,0.2,0.4,0.3,0.7c0.2,0.5,0.3,0.9,0.4,1.4c0.1,0.5,0.1,1,0,1.5
		c0,0.3-0.1,0.5-0.2,0.8c0,0.1-0.1,0.2-0.2,0.4c0,0-0.1,0.1-0.1,0.1c0.1,0.1,0.2,0.2,0.3,0.3c0.2,0.2,0.4,0.4,0.6,0.6l0.3,0.3
		l0.1,0.2L85.6,89.1L85.6,89.1L85.6,89.1C85.6,89.2,85.6,89.1,85.6,89.1z"/>
	<path class="st0" d="M36.9,88.1c-0.1-0.8-0.3-1.5-0.5-2.2c-0.4-1.4-1-2.8-1.6-4.2c-0.2,0.1-0.4,0.1-0.6,0.2
		c-1.4,0.4-2.8,0.9-4.2,1.4c-0.5,0.2-1,0.4-1.5,0.5c0.7,0.4,1.3,0.9,1.8,1.5c0.6,0.7,1.1,1.4,1.4,2.3c0.3,0.9,0.3,1.8,0.3,2.7
		c0,0.8-0.2,1.7-0.4,2.5c0.5,0.8,0.9,1.7,1.1,2.7c0.3,1,0.5,1.9,0.6,2.9c0.1,1,0.2,2,0.1,3c0,0.5-0.1,1-0.2,1.5
		c-0.1,0.4-0.2,0.8-0.4,1.1c0.9-0.1,1.8-0.3,2.7-0.5l3.2-0.8c0.5-1,0.6-2,0.5-3c-0.1-1-0.3-2.1-0.5-3.1c-0.2-1-0.5-2.1-0.9-3.1
		c-0.4-1-0.7-2.1-1.4-2.9l-0.1-0.1l0.1-0.1C36.9,89.6,37,88.8,36.9,88.1z"/>
	<path class="st0" d="M25.8,84.7c-1.2,0.5-2.5,1-3.7,1.6c0.5,0.5,0.8,1,1.1,1.5c0.3,0.6,0.6,1.3,0.8,2c0.2,0.7,0.2,1.4,0.1,2.2
		c-0.1,0.7-0.4,1.3-0.7,1.9c0.3,0.4,0.5,0.8,0.7,1.2c0.3,0.4,0.5,0.9,0.7,1.4c0.5,0.9,0.7,2,0.9,3c0.2,1,0.2,2.2-0.1,3.2
		c-0.2,0.8-0.5,1.5-1,2.1c0.5-0.1,1-0.3,1.4-0.5c0.6-0.2,1.1-0.4,1.7-0.6l0.2-0.1l0.1,0c0.5,0.2,1.2,0.2,1.8,0.3
		c0.6,0,1.3,0.1,1.9,0c0.3,0,0.5,0,0.8-0.1c0-0.9-0.1-1.8-0.2-2.6L32,98.5c-0.1-0.9-0.2-1.9-0.4-2.8c-0.2-0.9-0.3-1.9-0.6-2.8l0-0.2
		l0-0.1c0.3-0.7,0.5-1.6,0.4-2.4c-0.1-0.8-0.5-1.6-0.8-2.3c-0.3-0.7-0.7-1.4-1.1-2.1c-0.4-0.7-0.8-1.3-1.3-2
		C27.4,84.1,26.6,84.4,25.8,84.7z"/>
	<path class="st0" d="M101.3,120.1l-0.1-0.2c0,0,0-0.1,0-0.2c0-0.1,0-0.2,0-0.3c0-0.1,0-0.2,0-0.2c-0.8,0.4-2.1,1.2-1.7,2.2
		c0.6-0.6,1.3-0.8,1.8-0.9L101.3,120.1z"/>
	<path class="st0" d="M102.1,125l-0.2-0.3l-0.2-0.3l-0.1-0.1l0,0c-0.8,0.4-1.7,1.1-1.4,2c0.6-0.6,1.4-0.8,2-0.9
		c-0.1-0.1-0.1-0.2-0.1-0.2L102.1,125z"/>
	<path class="st0" d="M56.5,109.1c-0.3-0.1-0.6-0.4-0.9-0.6c-0.5,0.3-1.3,0.9-0.9,2c0.8-0.8,1.8-1.1,2.2-1.2
		C56.8,109.2,56.6,109.1,56.5,109.1z"/>
	<path class="st0" d="M107.6,125.8c-0.5,0.6-0.9,1.3-0.5,2c0.5-0.9,1.6-1.5,2.2-1.7l-1.5-0.2C107.7,125.9,107.7,125.8,107.6,125.8z"
		/>
	<path class="st0" d="M113.5,126.3C113.5,126.4,113.5,126.4,113.5,126.3c-0.2,0.5-0.3,1.4,0.3,1.7c0-0.8,0.4-1.4,0.6-1.6
		C114.2,126.4,113.8,126.2,113.5,126.3z"/>
</g>
</svg>
