<?xml version="1.0" encoding="utf-8"?>
<!-- Generator: Adobe Illustrator 18.1.0, SVG Export Plug-In . SVG Version: 6.00 Build 0)  -->
<svg version="1.2" baseProfile="tiny" id="Layer_1" xmlns="http://www.w3.org/2000/svg" xmlns:xlink="http://www.w3.org/1999/xlink"
	 x="0px" y="0px" viewBox="0 0 128 128" 
width="128" height="128"
xml:space="preserve">
<g>
	<polygon fill="#2D2D2D" points="38.2,117.5 34.6,116.3 34.2,118.5 38.9,120.8 38.2,117.5 	"/>
	<polygon fill="#2D2D2D" points="12.7,121.6 11.8,124.5 16.1,128 15.9,123.6 	"/>
	<path fill="#2D2D2D" d="M34.5,115l3.2,1c-1.3-3.9-4.2-12.2-5.7-17.5c-1.6-5.5-1.9-10.1-0.8-13.6c0.4-1.2,0.5-2.3,0.7-3.4
		c0-0.1,0-0.2,0-0.3c-1.4,1.3-2.7,2.6-3.8,3.5l-1.4,7.4c0,0.1,0,0.3,0.2,0.4c2.1,2.6,4.6,10.1,7.5,22.3L34.5,115z"/>
	<polygon fill="#2D2D2D" points="82.3,119.9 82.6,122.6 87.8,124.1 86.1,120.5 	"/>
	<path fill="#2D2D2D" d="M119.4,12.2c-1.2-1.5-5.7-1.8-11.9-0.7c-0.6,0.1-1.1,0-1.6-0.2c-1.2-0.6-5.2-2.3-8.2,0.1
		c-0.3,0.3-0.6,0.5-0.9,0.9c-2.6-2.3-6.5-4.3-8.9-4.8C86.8,7.2,86,7.1,85.3,7c-1.4-0.2-2.6-0.4-5.1-1.3c-2.8-0.9-3.9-1.5-5.4-3.6
		L74.7,2c0-0.1-0.5-1-1.1-2c-0.1,1.5-0.2,3.9,0.8,5.1c0.9,1,2.8,2.1,5.8,3.3c2.8,1.1,3.6,1.4,5,1.8c0.4,0.1,0.8,0.2,1.3,0.4
		c2.3,1,5.8,3,7.7,4.8c0,0,0,0,0,0c2.3,1.2,3.5,2.5,3.5,2.6c0.4,0.4,0.5,0.8,0,1.2c-0.4,0.4-1,0-1.4-0.5c0,0-1.4-1.8-4.6-2.9
		c-2-0.7-5.7,0.2-7.3,0.7c1.1,1.2,3.8,3.6,5.8,4c3.2,0.5,5.8-0.3,5.8-0.3c0.5-0.2,1-0.3,1.2,0.3c0.2,0.5-0.1,0.8-0.6,1
		c-0.1,0-1.5,0.5-3.7,0.6c0.1,3,0.8,6.7,2.2,10.6c0.8,2.3,0,4.4-0.9,6.4l-0.3,0.7c-0.9,2-3.8,5.6-8.6,4.7l-0.2-0.1l-1-0.4
		c-3.8-1.5-9.8-1.9-13.5-1.4c-0.6,0.2-1.5,3-2,5.7l-0.3,2.1l-1.4-1.6c0,0-3.6-4-5.2-5.6c-0.2-0.2-0.4-0.3-0.7-0.4
		c-9.1-1.2-14.5-1.2-19.9-0.8c-1,0.1-1.9,2.9-2.2,5.4l-0.2,2l-1.5-1.4c-0.2-0.1-3.8-3.5-5.4-5.2c-0.3-0.3-0.7-0.5-1.1-0.5
		c-0.5,0-0.9,0.1-1.3,0.1c-5.3,0.7-9.2,2.9-11.4,6.5c-1.8,2.9-2.4,6.5-1.7,10.1c0.1,0.2,0.1,0.5,0.1,0.7c0.1,0.5,0.3,1.1,0.5,1.6
		c0.7,2,2.2,4.9,3.3,6.9c0.6,1,1.5,3.7,2.7,8c0.1,0.3,0.2,0.7,0.2,1.1c0.2,1.7-0.4,3.3-1.6,4.4c-1.9,1.8-3.5,3-6,3.8
		c-0.5,0.2-0.8,1.2-0.7,2.5c0,0.1-0.3,6.7-0.4,7.8l-1.4,24.4l2.9,1.9c-0.2-5.4-0.4-20,2-26.1c1.6-4,5.2-9.7,8.3-12.3
		c2.6-2.2,7.7-7,10.5-10.5c0.9-1.1,1.9-2.2,3-3.2c1.8-1.7,4.8-6,4-11c-0.1-0.6,0.3-1.1,0.8-1.2c0.6-0.1,1.1,0.3,1.2,0.9
		c0.6,3.5-0.4,6.7-1.8,9.1c-0.9,1.6-1.9,2.9-2.8,3.7c-0.2,0.2-0.3,0.4-0.5,0.5c1.4,0.9,4.9,2.8,11.1,3.2c0.2-1.3,0.4-3.8,0.4-3.8
		l0-0.2l0.2-2.8l1.6,2.5c0.1,0.2,0.3,0.5,0.4,0.7c1,1.6,2.1,3.2,2.6,3.8c6.5-0.1,8.6-0.6,9.2-0.8c-0.8-1.2-1.5-2.1-1.8-2.7
		c-0.2-0.3-0.3-0.5-0.3-0.5c-0.3-0.5-0.3-1.1,0.2-1.5c0.4-0.3,1.1-0.3,1.4,0.2c0.3,0.4,8.2,10.7,12.1,23.1c3,9.4,4,20,4.5,24.5
		c0,0.3,0.1,0.6,0.1,0.8l3.5,0.5c-1-4.1-3.6-15.4-3.8-20.3c-0.1-2-0.4-4.2-1-6.5c-0.7-2.7-1.5-6.1-2.3-9c0,0,0,0,0-0.1
		c-0.5-1.8-0.9-3.3-1.1-4.5c-0.4-1.5-0.6-3-0.6-4.5c0-1.7,0.1-3.3,0.4-4.6c0.1-0.6,0.6-0.9,1.2-0.8c0.6,0.1,0.9,0.7,0.8,1.2
		c0,0.2-0.1,0.3-0.1,0.5v0c-0.2,1.1-0.3,2.3-0.3,3.7c0,1.3,0.2,2.7,0.5,3.9c0.3,1.1,0.7,2.7,1.1,4.4c0.5,0.9,3.2,5.3,4.8,9.2
		c0.3,0.7,0.6,1.6,1,2.5c2.1,5.2,5.3,12.8,6,16.8c0.9,0.2,2,0.4,3,0.7c-0.8-2.2-2-5.4-3.2-8.8c-1.1-3.1-2.1-6.2-2.9-8.7
		c-2.1-7.1-5.1-15.1-5.1-15.2c-0.1-0.2-0.1-0.4,0-0.5c-0.2-5.1,4.6-9.2,7.4-11.3c0,0,0,0-0.1,0.1c0.2-0.2,0.4-0.3,0.6-0.5
		c0.1-0.1,0.2-0.1,0.2-0.2c0.2-0.1,0.3-0.2,0.4-0.3c0,0,0.1,0,0.1-0.1c0,0,0,0,0.1-0.1c0.1,0,0.1-0.1,0.1-0.1c0,0,0.1-0.1,0.1-0.1
		c1-0.9,2.2-1.8,3.4-2.7l0.6-0.5c2.6-2.1,4.7-4.8,6-7.8c0.5-1.1,0.9-2.3,1.3-3.5c0.1-0.2,0-0.4-0.2-0.4c-1-0.4-2.3-0.8-3.5-1.3
		c-1.8-0.7-3.4-1.3-3.4-1.3l-2.8-1.1l2.9-0.9c1.6-0.5,3.4-1.1,4.9-1.6c2.1-0.8,3.8-1.5,4.1-1.9c0.6-0.9,0.4-2.4,0.2-3.9
		c-0.1-0.6-0.2-1.3-0.2-1.9c-0.1-1.1,0-2.4,0.1-3.8c0.3-3,0.6-5.2,0.8-6.4v0c0.1-0.4,0.1-0.7,0.2-0.9c0.9-2.7,4.6-5.2,7.2-7.1
		c0.7-0.5,1.3-0.9,1.7-1.2C117.7,17.3,121,14.3,119.4,12.2z M105.6,17.2c-0.2,0.4-0.5,0.6-0.9,0.6c-0.2,0-0.3,0-0.5-0.1l-1-0.5
		l-0.5,1c-0.2,0.4-0.5,0.6-0.9,0.6c-0.2,0-0.3,0-0.5-0.1c-0.5-0.3-0.7-0.9-0.4-1.4l0.5-1l-1-0.5c-0.5-0.3-0.7-0.9-0.4-1.4
		c0.3-0.5,0.9-0.7,1.4-0.4l1,0.5l0.5-1c0.3-0.5,0.9-0.7,1.4-0.4c0.5,0.3,0.7,0.9,0.4,1.4l-0.5,1l1,0.5
		C105.7,16,105.9,16.7,105.6,17.2z"/>
	<path fill="#2D2D2D" d="M95.9,113.6c-0.9-0.3-2-0.6-3.4-1.1l-0.3,2.4c0,0.1,0,0.1,0.1,0.1l4.8,2.4l-1.1-3.7
		C96,113.6,96,113.6,95.9,113.6z"/>
</g>
</svg>
