<?xml version="1.0" encoding="utf-8"?>
<!-- Generator: Adobe Illustrator 24.1.2, SVG Export Plug-In . SVG Version: 6.00 Build 0)  -->
<svg version="1.1" id="Layer_1" xmlns="http://www.w3.org/2000/svg" xmlns:xlink="http://www.w3.org/1999/xlink" x="0px" y="0px"
	 viewBox="0 0 128 128" style="enable-background:new 0 0 128 128;" xml:space="preserve">
<style type="text/css">
	.st0{fill:#2D2D2D;}
</style>
<g>
	<path class="st0" d="M89.8,123.2h4.1l-1.6-1.6c-0.1-0.1-0.5-0.8-0.6-0.9l-2.5,0.9c0,0,0,0,0,0L89.8,123.2z"/>
	<path class="st0" d="M127.7,116c0.1,0,0.2,0,0.3,0.1c-0.2-1.5-0.9-5.5-1.5-8.8c-0.6-3.5-1-5.7-1.1-6.3l0-0.1
		c-0.1-2.9-1.3-4.4-1.8-5c-0.4-0.4-0.7-0.7-0.9-1.1l-4-5.2c-0.2,0.4-0.5,0.7-0.7,1c0,0.2-0.1,0.4-0.1,0.6c0,0.3,0,0.5,0,0.8
		c0,0.5,0.1,1,0.4,1.5c-0.4-0.4-0.7-0.9-0.9-1.4c-0.2-0.6-0.3-1.1-0.3-1.7c0,0,0-0.1,0-0.1l0-0.1c0.6-1.1,1.1-2.3,1.4-3.5
		c0.3-1.2,0.4-2.4,0.4-3.6c0-1.2-0.2-2.4-0.6-3.6c-0.2-0.6-0.4-1.2-0.6-1.7c-0.1-0.2-0.2-0.3-0.2-0.5c-0.8,0.6-1.6,1.4-2.3,2.1
		c-0.9,1.1-1.8,2.2-2.2,3.5c-0.1,0.3-0.2,0.6-0.2,0.9c0,0.2,0,0.3-0.1,0.5V85c0,0.7,0.1,1.4,0.2,2.1c0.1,0.7,0.4,1.4,0.7,2
		c0.3,0.6,0.7,1.3,1.2,1.8l0.1,0.1c0.1,0.1,0.1,0.2,0,0.3c-0.4,0.8-0.8,1.5-1.3,2.3c0.2-0.8,0.4-1.5,0.6-2.3
		c-1.3-0.9-2.2-2.3-2.7-3.8c-0.3-0.8-0.5-1.6-0.6-2.4l-0.1-0.6c0-0.2,0-0.4,0-0.7c0-0.2,0-0.5,0.1-0.7c-0.7-0.6-5-4.6-8.1-7.6
		c-2.4-2.4-9-11.8-13.9-18.7c-1.9-2.8-3.6-5.2-4.6-6.4c-7.1-7.3-29.6-12.1-41.8-13.9c-12-1.7-31.7,1.8-37.8,14.9
		c-0.1,0.1-4.3,8.7,5.2,22c3.3,4.6,0.8,9.7-1,11.7l-5,5.4c-0.4,0.5-0.6,1.1-0.4,1.7L4,93.7l7.3,25.8c0.2,0.7,0.5,1.4,0.9,2l2.6,3.5
		l2.4-0.9l-2-2.6c-0.8-0.9-1.4-2.1-1.7-3.4c-0.6-2.6-1.9-6.7-3.2-10.7c-0.3-1.1-0.7-2.1-1-3.2c-0.5-1.8-0.8-3.4-0.7-4.9
		c0.1-3.2,2-6,5-7.4c8.5-4.1,14.2-8.7,17.2-13.6c0.1-0.1,0.1-0.2,0.2-0.2c0.8-1.4,1.5-3.1,2.1-4.7c0.6-1.6,1.1-3.3,1.3-5.1
		c0.3-1.7,0.3-3.5,0.2-5.2c-0.2-1.7-0.8-3.4-1.6-5c1,1.5,1.7,3.2,2.1,4.9c0.4,1.8,0.5,3.6,0.4,5.4c-0.1,1.8-0.4,3.6-0.8,5.4
		c-0.4,1.7-0.9,3.4-1.7,5c8.6,3.4,18.3,4.4,27.6,2.8c-0.1-0.8-0.2-1.5-0.3-2c0-0.1-0.1-0.3,0-0.4c0,0,0-0.1,0-0.1
		c0.5-1.8,1.2-3.4,2-4.9c0.8-1.6,1.7-3,2.8-4.4c1.1-1.4,2.3-2.6,3.6-3.7c1.3-1.1,2.8-1.9,4.4-2.7c-1.4,0.9-2.8,1.9-4,3.1
		c-1.2,1.2-2.2,2.5-3.1,3.9c-0.9,1.4-1.6,2.9-2.2,4.5c-0.6,1.5-1,3.1-1.3,4.6c0,0,0,0,0,0.1c0.2,3.4,2.7,14.3,6.1,19.4
		c0.7,1,1,2.2,1,3.4c0,2.1,0.6,4.9,1.9,6.6l0.2,0.2l0,0.3c0.2,1.7,2.5,9.2,3.4,12l2.5,4l2.2-0.9l-2.5-3.3l-3.5-11.9l0.1-0.3
		c0-0.1,1.2-5.1-0.1-7.9c-0.4-0.9-0.7-1.9-0.8-3c-1.6-14.2-0.5-15.7,0-16.3c0.2-0.3,0.4-0.5,0.7-0.5c0.1,0,0.2,0,0.3,0
		c0.1,0,0.4,0,0.6-0.1c0.2,0,0.4-0.1,0.6-0.2c0.4-0.1,0.9-0.3,1.3-0.5c0.8-0.4,1.6-0.9,2.4-1.5c0.7-0.6,1.4-1.3,2-2.1
		c0.3-0.4,0.6-0.8,0.9-1.2l0.8-1.2l-0.6,1.4c-0.2,0.4-0.4,0.9-0.7,1.3c-0.5,0.9-1.1,1.7-1.7,2.5c-0.7,0.8-1.4,1.5-2.3,2.2
		c-0.4,0.3-0.9,0.6-1.4,0.9c-0.2,0.1-0.5,0.2-0.8,0.4c-0.2,0.1-0.3,0.1-0.5,0.2c0,0.1-0.1,0.3-0.1,0.6c0.1,0,0.2,0,0.3,0.1
		c2.2,0.4,7.9,1.6,13.1,1.4c1.6-0.1,3.2,0.6,4.3,1.8c2.5,2.8,8.3,7.7,11.6,9.7l-0.2-2.7l0-0.1c-0.1-0.4,0-0.9,0.3-1.2l0-0.1l0,0
		l3.6-3l-2.9,3.6c-0.1,0.1-0.1,0.3,0,0.4l0,0.1l1.5,6.3c3,8.9,12.6,14.8,13,15.1c0.4,0.2,0.7,0.6,1,1.1c0.3,0.6,1.4,1.5,2.2,2
		l0.1,0.1l0.7,0.7c-0.1-0.6-0.3-1.1-0.4-1.7c-0.2-1-0.4-2-0.5-3.1c0.5,0.9,1,1.8,1.5,2.6c0.5,0.7,1,1.5,1.5,2.2
		c0.5-0.1,1-0.1,1.5-0.2c-0.2-0.2-0.3-0.5-0.3-0.9C126.4,117.1,127,116,127.7,116z M123,105.3c-0.2,0-0.2-0.2-0.3-0.2l-0.2-0.3
		l-0.3-0.5l-0.7-1c-0.2-0.3-0.4-0.7-0.7-1c-0.1-0.1-0.2-0.3-0.3-0.4c-0.2,0-0.4-0.1-0.6-0.2c-0.9-0.5-1.2-1.6-0.7-2.5
		c0.5-0.9,1.6-1.2,2.5-0.7c0.9,0.5,1.2,1.6,0.7,2.5c0,0,0,0.1-0.1,0.1c0,0.2,0.1,0.3,0.1,0.5c0.1,0.4,0.2,0.8,0.2,1.2
		c0.1,0.4,0.1,0.8,0.2,1.2l0.1,0.6l0,0.3C123,105.1,123.1,105.2,123,105.3z"/>
	<path class="st0" d="M78.7,128h4.1l-1.6-1.6c0,0-0.7-0.7-0.7-0.8l-2.4,1L78.7,128z"/>
	<path class="st0" d="M91.2,119.2l-5.8-13.9l0-0.3c0,0,0.3-2-0.2-3.8c-0.3-1-0.8-1.9-1.2-2.6c-0.6-0.9-1-1.9-1.1-3l-1.3-8.6
		c-3.2-0.4-5.9-0.9-7.2-1.2c0,0,0,0,0,0c0,0.9,0,2.1,0.1,3.6c0,0,0,0,0,0l5.5,8.9l0,0.2c0,0,0.2,2.1,1,3.9c0.8,2,1.9,3,1.9,3
		l0.2,0.2l5.7,14.5L91.2,119.2z"/>
	<path class="st0" d="M33.6,124l-1.6-1.6c-0.1-0.1-0.7-0.7-0.7-0.7l-2.5,0.9l0.6,1.4H33.6z"/>
	<path class="st0" d="M16.2,127.6h4.1l-1.6-1.6c0,0-0.6-0.7-0.6-0.8l-2.4,0.8L16.2,127.6z"/>
	<path class="st0" d="M8.9,75.9c-0.2-0.4-0.4-0.8-0.6-1.1c-6.2-8.7-7-15.5-6.6-19.7c-1.1,2.1-2,4.8-1.6,7.8
		C1,69.5,5.5,73.6,8.9,75.9z"/>
	<path class="st0" d="M30.2,120.4l-3-3.2c-0.9-0.9-1.4-2-1.7-3.3l-3.1-12.5c-0.5-2.1-0.3-4.3,0.5-6.2c0.8-2,2.4-4.8,5.4-7.3
		c1.7-1.4,3.6-4.4,4.2-6.9c-0.2-0.1-0.5-0.2-0.7-0.3c-2.7,3.9-7.1,7.6-12.9,10.9l-0.3,2c-0.1,1-0.1,2,0.1,2.9
		c0.7,3.5,2.6,9.9,4,14.6c0.6,1.9,1.1,3.6,1.4,4.7c0.2,0.6,0.4,1.2,0.8,1.7l3.2,3.9L30.2,120.4z"/>
</g>
</svg>
