<?xml version="1.0" encoding="utf-8"?>
<!-- Generator: Adobe Illustrator 18.1.0, SVG Export Plug-In . SVG Version: 6.00 Build 0)  -->
<svg version="1.1" id="Layer_1" xmlns="http://www.w3.org/2000/svg" xmlns:xlink="http://www.w3.org/1999/xlink" x="0px" y="0px"
	 viewBox="0 0 128 128" 
width="128" height="128"
enable-background="new 0 0 128 128" xml:space="preserve">
<g>
	<path fill="#2D2D2D" d="M56.3,80.6l-0.1,0c-1,0-1.8,0.8-1.9,1.8c0,0.5,0.1,1,0.5,1.4c0.3,0.4,0.8,0.6,1.3,0.6l0.1,0
		c1,0,1.8-0.8,1.9-1.8C58.1,81.6,57.3,80.7,56.3,80.6z"/>
	<path fill="#2D2D2D" d="M45.8,59c-1.2,1.2-2.3,2.8-3.1,4.7c-2.8,6.4-2.1,13.9,1.9,20.1l3.9,6.1c0,0,0,0,0,0.1
		c0.3,0.4,0.2,0.9-0.2,1.3l-23.8,21.1l1.6,2.7c0.6,0.9,1.6,1.4,2.6,1.4c0.8,0,1.5-0.3,2.1-0.8L65.5,85c0.6-0.6,1-1.3,1-2.1
		c0-0.8-0.2-1.6-0.8-2.2L45.8,59z M56.2,86.4c-0.1,0-0.1,0-0.2,0c-1-0.1-2-0.5-2.7-1.3c-0.7-0.8-1-1.8-1-2.8c0.1-2.1,2-3.8,4.1-3.7
		c2.1,0.1,3.8,1.9,3.7,4.1C60,84.8,58.2,86.4,56.2,86.4z"/>
	<path fill="#2D2D2D" d="M110.6,21.4c0.6-0.6,1-1.3,1-2.1c0-0.8-0.2-1.6-0.8-2.2c-0.6-0.7-1.4-1-2.3-1c-0.8,0-1.5,0.3-2.1,0.8
		c-0.6,0.6-1,1.3-1,2.1c0,0.8,0.2,1.6,0.8,2.2C107.3,22.4,109.4,22.5,110.6,21.4z"/>
	<path fill="#2D2D2D" d="M103.4,19.4L53.1,64l4.3,4.6c0.1-0.1,0.1-0.2,0.2-0.3l49.9-44.3c-1.1-0.2-2.1-0.8-2.9-1.6
		C103.9,21.6,103.5,20.5,103.4,19.4z"/>
	<path fill="#2D2D2D" d="M23.4,110.6l22.9-20.3l-3.4-5.4c-4.3-6.7-5.1-14.9-2-21.9c1-2.2,2.2-4,3.6-5.4l-1.8-1.9
		c-0.6-0.7-1.5-1-2.3-1c-0.8,0-1.5,0.3-2.1,0.8L9,81.4c-1.1,1-1.4,2.7-0.6,4L23.4,110.6z M38,88.2l0.1,0.1c1.2,1.4,1.1,3.4-0.3,4.7
		l-8.5,7.5c-0.6,0.5-1.4,0.8-2.2,0.8c-0.9,0-1.8-0.4-2.5-1.1l-0.1-0.1c-0.6-0.7-0.9-1.5-0.8-2.4c0-0.9,0.4-1.7,1.1-2.3l8.5-7.5
		C34.6,86.8,36.8,86.9,38,88.2z M30.7,81.9c0.4,0.4,0.3,1-0.1,1.4L21.9,91c-0.2,0.2-0.4,0.3-0.7,0.3c-0.3,0-0.6-0.1-0.8-0.3
		c-0.4-0.4-0.3-1,0.1-1.4l8.7-7.8C29.7,81.4,30.3,81.5,30.7,81.9z M20.4,80.8l4.4-3.9c0.4-0.4,1.1-0.3,1.4,0.1s0.3,1-0.1,1.4
		l-4.4,3.9c-0.2,0.2-0.4,0.3-0.7,0.3c-0.3,0-0.6-0.1-0.8-0.3C20,81.8,20,81.2,20.4,80.8z"/>
	<path fill="#2D2D2D" d="M26.2,98.9c0.5,0.5,1.3,0.6,1.8,0.1l8.5-7.5c0.5-0.5,0.6-1.3,0.1-1.8l-0.1-0.1c-0.2-0.3-0.6-0.4-1-0.4
		c-0.3,0-0.6,0.1-0.9,0.3l-8.5,7.5c-0.3,0.2-0.4,0.5-0.4,0.9c0,0.3,0.1,0.7,0.3,0.9L26.2,98.9z"/>
	<path fill="#2D2D2D" d="M10.2,121.4c-0.4,0.3-0.8,0.5-1.3,0.5c-0.5,0-1.1-0.2-1.5-0.7l-0.3-0.4c-2-2.2-2.5-5.4-1.2-8.4l7.3-15.3
		l-2.4-4l-9.7,19.4c-1.9,3.9-1.3,8.4,1.6,11.6l2.5,2.8c0.5,0.6,1.2,0.9,2,0.9c0.8,0,1.5-0.2,2.1-0.7l14.3-12.7l-2-3.3L10.2,121.4z"
		/>
	<path fill="#2D2D2D" d="M127,17.1l-3.3-0.2c-0.2-2.6-1.1-5.2-2.9-7.5l2.7-2.4c0.4-0.4,0.5-1,0.1-1.4c-0.4-0.4-1-0.4-1.4-0.1
		L119.5,8c-2-2-4.5-3.2-7.2-3.7l0.2-3.3c0-0.6-0.4-1-1-1.1c-0.5,0-1,0.4-1.1,0.9l-0.2,3.1c-2.3-0.1-4.6,0.4-6.7,1.4l-2.2-3.4
		c-0.3-0.5-0.9-0.6-1.4-0.3c-0.5,0.3-0.6,0.9-0.3,1.4l2.2,3.3c-0.5,0.3-1,0.7-1.4,1.1l-5.3,4.7l-2.4-2.7c-0.4-0.4-1-0.4-1.4-0.1
		c-0.4,0.4-0.5,1-0.1,1.4l2.4,2.7l-6.8,6.1L84.3,17c-0.4-0.4-1-0.4-1.4-0.1c-0.4,0.4-0.5,1-0.1,1.4l2.4,2.7l-6.8,6.1L76,24.4
		c-0.4-0.4-1-0.4-1.4-0.1c-0.4,0.4-0.5,1-0.1,1.4l2.4,2.7l-6.8,6.1l-2.5-2.7c-0.4-0.4-1-0.4-1.4-0.1c-0.4,0.4-0.5,1-0.1,1.4l2.5,2.7
		l-6.8,6.1l-2.5-2.7c-0.4-0.4-1-0.4-1.4-0.1c-0.4,0.4-0.5,1-0.1,1.4l2.5,2.7l-6.8,6.1L51,46.6c-0.4-0.4-1-0.4-1.4-0.1
		c-0.4,0.4-0.5,1-0.1,1.4l2.5,2.7l-6.1,5.4l1.4,1.5l4.6,5l52.8-46.9c0.1-0.1,0.2-0.1,0.3-0.2c0.1-0.1,0.2-0.2,0.2-0.3
		c0.9-0.8,2.2-1.3,3.4-1.3c1.5,0,2.9,0.6,3.8,1.7c0.9,1,1.4,2.3,1.3,3.7S113,22,112,22.9l-53,47c-0.1,0.1-0.2,0.1-0.3,0.2l4.7,5
		l1.4,1.5l5.9-5.2l2.2,2.5c0.2,0.2,0.5,0.3,0.8,0.3c0.2,0,0.5-0.1,0.7-0.3c0.4-0.4,0.5-1,0.1-1.4L72.1,70L79,64l2.2,2.5
		c0.2,0.2,0.5,0.3,0.8,0.3c0.2,0,0.5-0.1,0.7-0.3c0.4-0.4,0.5-1,0.1-1.4l-2.2-2.5l6.8-6.1l2.2,2.5c0.2,0.2,0.5,0.3,0.8,0.3
		c0.2,0,0.5-0.1,0.7-0.3c0.4-0.4,0.5-1,0.1-1.4l-2.2-2.5l6.8-6.1l2.2,2.5c0.2,0.2,0.5,0.3,0.8,0.3c0.2,0,0.5-0.1,0.7-0.3
		c0.4-0.4,0.5-1,0.1-1.4l-2.2-2.5l6.8-6.1l2.2,2.5c0.2,0.2,0.5,0.3,0.8,0.3c0.2,0,0.5-0.1,0.7-0.3c0.4-0.4,0.5-1,0.1-1.4l-2.2-2.5
		l6.8-6.1l2.2,2.5c0.2,0.2,0.5,0.3,0.8,0.3c0.2,0,0.5-0.1,0.7-0.3c0.4-0.4,0.5-1,0.1-1.4l-2.2-2.5l5.3-4.7c0.5-0.4,1-0.9,1.4-1.4
		l2.8,2.4c0.2,0.2,0.4,0.2,0.7,0.2c0.3,0,0.6-0.1,0.8-0.3c0.4-0.4,0.3-1-0.1-1.4l-2.9-2.5c1.2-1.9,1.9-4.1,2-6.3l3.2,0.2
		c0,0,0,0,0.1,0c0.5,0,1-0.4,1-0.9C128,17.6,127.6,17.1,127,17.1z"/>
</g>
</svg>
