<?xml version="1.0" encoding="utf-8"?>
<!-- Generator: Adobe Illustrator 18.1.0, SVG Export Plug-In . SVG Version: 6.00 Build 0)  -->
<svg version="1.1" baseProfile="tiny" id="Layer_1" xmlns="http://www.w3.org/2000/svg" xmlns:xlink="http://www.w3.org/1999/xlink"
	 x="0px" y="0px" viewBox="0 0 155 128" 
width="155" height="128"
xml:space="preserve">
<g>
	<polygon fill="#2D2D2D" points="153.9,102 141,104.6 130,109.2 118.7,110 116.3,116.9 119.7,120.5 131.1,116.3 137.6,112.3 
		149.6,109.7 155,104.3 	"/>
	<polygon fill="#2D2D2D" points="104.9,66 126,59 138.3,43.2 137.3,39.4 140.5,36.9 139.3,30.2 136.4,16.7 126.8,12.6 129.1,20.4 
		118.4,26.5 130.9,33.1 114.9,29.9 108.1,39.9 87.9,53.4 94.7,57.7 110.6,49.2 99.8,62.4 	"/>
	<polygon fill="#2D2D2D" points="23.8,74.1 23.2,64.7 27.9,59.1 29.7,54.6 22.6,55.1 26.2,50.4 23.9,49.1 9.1,55.2 1.9,66.2 1,75.5 
		5.9,76.5 0,82.6 7.4,87.4 12.6,93.4 26.2,94.2 17.2,83.6 	"/>
	<polygon fill="#2D2D2D" points="103.1,35.4 110.2,25.5 121.9,17.3 119.7,10.5 108.8,18.9 97.2,21.3 92.3,29.8 94.2,33.7 89.6,37.1 
		78.9,46.2 82.1,49.4 	"/>
	<polygon fill="#2D2D2D" points="61.7,70.3 54.8,65.7 47.1,79.9 46.4,87.3 49.5,105.5 45.5,98.4 44.4,112 54.9,122.5 57.7,103.3 
		55.6,86.5 	"/>
	<polygon fill="#2D2D2D" points="36,56.7 30.4,67.4 29.9,76.4 24.1,83.8 27.7,87.9 32.4,92.4 35,79 35.3,72.5 39.1,63 37.9,56.9 	
		"/>
	<polygon fill="#2D2D2D" points="118.8,92.9 129.2,103.1 138.4,99.3 153.7,96.8 151.9,93.7 146.3,88.1 153.6,88.5 153.3,85.1 
		138,76.7 121.4,74.7 112,79.9 120.8,87.1 104.2,83.8 107.1,94.5 105.1,103.3 111.9,111.7 114.9,103.3 124.8,103.9 	"/>
	<polygon fill="#2D2D2D" points="37.8,21.9 42.3,9 41.6,24.8 51.9,29.6 66.8,47.7 70.4,39.5 60,25.8 74,34 76.6,28.8 67,10.3 
		50.5,1.2 47.1,2.6 44.3,0 38.3,2.1 26.1,6.8 23.7,16.2 30.5,12.9 	"/>
	<polygon fill="#2D2D2D" points="83.7,88.2 90.6,74.3 84.6,69.3 71.8,59.1 59.5,62.7 67.6,68.1 62.4,81.8 77.9,78.7 61.9,87.2 
		63.2,101.3 59.8,124.2 66.1,125.7 73.8,105.1 75.8,105.7 71,126.8 76.4,128 96.8,93.4 93.7,78.2 	"/>
	<polygon fill="#2D2D2D" points="36.2,42.5 44.8,45.8 48.1,43.5 52.2,47.5 53.7,53.7 60.6,49.6 48.4,35.1 37.8,31.6 28.6,20.2 
		22.8,23.2 33.8,33.8 	"/>
</g>
</svg>
