<?xml version="1.0" encoding="utf-8"?>
<!-- Generator: Adobe Illustrator 24.1.2, SVG Export Plug-In . SVG Version: 6.00 Build 0)  -->
<svg version="1.1" id="Layer_1" xmlns="http://www.w3.org/2000/svg" xmlns:xlink="http://www.w3.org/1999/xlink" x="0px" y="0px"
	 viewBox="0 0 128 128" style="enable-background:new 0 0 128 128;" xml:space="preserve">
<style type="text/css">
	.st0{fill:#2D2D2D;}
</style>
<g>
	<path class="st0" d="M93.61,101.23L93.61,101.23c0.23,0.84,0.4,1.63,0.66,2.32c0.13,0.33,0.28,0.67,0.44,0.9
		c0.15,0.23,0.32,0.37,0.58,0.5c0.54,0.23,1.33,0.25,2.11,0.26c0.77,0,1.62,0.09,2.36,0.02c0.18-0.03,0.36-0.07,0.5-0.15
		c0.13-0.09,0.19-0.17,0.18-0.34c-0.02-0.34-0.24-0.73-0.37-1.15c-0.14-0.42-0.22-0.92-0.14-1.42c0.02-0.14,0.03-0.2,0.04-0.29
		c0-0.08,0-0.16,0-0.24c-0.01-0.16-0.03-0.32-0.07-0.47c-0.13-0.63-0.47-1.31-0.93-1.92c-0.34-0.47-0.73-0.92-1.16-1.36
		c-0.04,0-0.09,0-0.13,0c-1.72-0.09-3.39-0.41-5.01-1.09c-0.17,0.12-0.34,0.22-0.51,0.31c-0.33,0.17-0.68,0.28-0.98,0.36
		c0.12,0.1,0.24,0.19,0.36,0.29c0.31,0.27,0.62,0.57,0.92,0.88c0.3,0.31,0.6,0.63,0.84,1.01c0.12,0.19,0.23,0.41,0.27,0.65
		c0.05,0.24,0.05,0.46,0.05,0.68c0,0.08-0.01,0.16-0.01,0.24C93.6,101.23,93.61,101.23,93.61,101.23z"/>
	<path class="st0" d="M90.99,98.65c-0.37-0.18-0.74-0.37-1.1-0.72l-0.14-0.15c-0.51,0.08-1.04,0.13-1.58,0.08
		c-0.35-0.04-0.7-0.1-1.02-0.27c-0.06-0.03-0.11-0.07-0.16-0.11c-0.16,0.56-0.33,1.09-0.48,1.61c-0.19,0.63-0.36,1.24-0.44,1.83
		c-0.09,0.59-0.11,1.16,0,1.73c0.09,0.47,0.31,0.92,0.59,1.42c1.13,0.16,2.24,0.35,3.32,0.46l0.28,0.03c0.07,0,0.13,0.01,0.2,0
		c0.12-0.01,0.24-0.03,0.36-0.08c0.24-0.09,0.5-0.26,0.73-0.51c0.47-0.49,0.83-1.19,1.18-1.9c0.16-0.36,0.31-0.74,0.39-1.13
		c0.04-0.19,0.06-0.4,0.04-0.57c-0.02-0.17-0.09-0.34-0.19-0.49C92.52,99.24,91.71,98.99,90.99,98.65z"/>
	<path class="st0" d="M116.02,61.08c-0.45-0.09-0.9-0.18-1.34-0.28c-0.44-0.09-0.88-0.18-1.31-0.25c-0.35-0.05-0.7-0.08-1.05-0.01
		c0.08,0.47,0.17,0.95,0.22,1.47c0.05,0.62,0.11,1.37-0.31,2.15c-0.1,0.19-0.22,0.37-0.39,0.51l-0.23,0.22l-0.25,0.15
		c-0.17,0.1-0.34,0.19-0.51,0.22c-0.16,0.05-0.35,0.11-0.48,0.13c-0.27,0.05-0.53,0.1-0.8,0.15c0.08,0.08,0.17,0.15,0.25,0.23
		c0.15,0.13,0.28,0.27,0.41,0.4c0.07,0.08,0.12,0.11,0.21,0.23c0.1,0.11,0.18,0.26,0.24,0.42c0.09,0.23,0.11,0.5,0.07,0.74
		c0.75-0.69,1.74-1.18,2.91-1.07c0.62,0.08,1.27,0.4,1.66,0.91c0.28,0.35,0.51,0.75,0.71,1.16c0.84-0.11,1.67-0.19,2.5-0.27
		l1.37-0.12l0.33-0.03l0.27-0.04c0.08-0.02,0.14-0.05,0.22-0.07c0.07-0.02,0.1-0.06,0.16-0.08c0.06-0.07,0.12-0.11,0.17-0.24
		c0.06-0.11,0.09-0.29,0.12-0.49c0.06-0.4,0.06-0.89,0.12-1.41c0.06-0.51,0.17-1.08,0.47-1.59c0.18-0.24,0.23-0.57,0.11-0.97
		c-0.26-0.8-1-1.49-1.79-1.88c-0.4-0.18-0.86-0.3-1.24-0.26c-0.1,0.01-0.15,0.04-0.27,0.06c-0.13,0.03-0.28,0.06-0.41,0.07
		c-0.26,0.03-0.51,0.03-0.75,0.02C116.94,61.25,116.48,61.18,116.02,61.08z"/>
	<path class="st0" d="M86.51,72.86c0.15,0.57,0.14,1.19-0.02,1.74c-0.16,0.56-0.44,1.05-0.78,1.47c-0.24,0.3-0.52,0.57-0.8,0.82
		c1.44-0.27,2.87-0.43,4.3-0.56c1.59-0.13,3.18-0.22,4.76-0.23c0.4,0,0.8,0,1.2,0.01c-0.41-0.64-0.63-1.41-0.63-2.19
		c0-0.73,0.11-1.5,0.43-2.2c-0.53,0.04-1.04,0.02-1.55,0c-2.93-0.18-5.76-0.75-8.59-1.37C85.58,71,86.25,71.83,86.51,72.86z"/>
	<path class="st0" d="M96.61,71.39c-0.13,0.05-0.25,0.1-0.41,0.16c-0.02,0.03-0.04,0.07-0.05,0.1c-0.15,0.34-0.21,0.72-0.28,1.09
		l-0.04,0.59l-0.01,0.6c0.03,0.73,0.21,1.48,0.6,2.09c0.03,0.05,0.08,0.1,0.11,0.14l0.99,0.02c0.38,0,0.82,0.01,1.03-0.02
		c0.51-0.06,0.92-0.37,1.26-0.99c0.32-0.61,0.51-1.4,0.56-2.19c0.04-0.4,0.01-0.8-0.01-1.2c-0.02-0.2-0.05-0.4-0.08-0.6
		c-0.03-0.18-0.07-0.43-0.12-0.5c-0.1-0.19-0.46-0.26-0.81-0.22c-0.36,0.03-0.73,0.13-1.1,0.26c-0.37,0.12-0.73,0.28-1.1,0.43
		L96.61,71.39z"/>
	<path class="st0" d="M86.11,54.3l-5.04,0.03c-1.69,0-3.34,0.05-5.09-0.05c-1.72-0.15-3.36-0.41-5.03-0.63l-4.98-0.71
		c-3.31-0.48-6.64-0.89-9.93-1.2c-1.65-0.15-3.31-0.26-4.87-0.2c-1.67,0.1-3.47,0.13-5.18-0.1c-1.72-0.21-3.4-0.6-5.01-0.93
		c-0.81-0.16-1.61-0.3-2.42-0.38c-0.79-0.07-1.65-0.12-2.48-0.18c-1.68-0.12-3.35-0.23-5.03-0.39c-0.35-0.04-0.71-0.08-1.06-0.12
		c0.24,0.09,0.49,0.19,0.74,0.28c3.47,1.15,7.13,2.05,10.75,2.93c1.82,0.43,3.64,0.83,5.47,1.19c1.83,0.37,3.66,0.73,5.49,0.98
		L53.82,55c0.49,0.06,0.97,0.14,1.44,0.25c0.94,0.19,1.86,0.44,2.77,0.68c1.83,0.49,3.63,1.05,5.44,1.55
		c3.62,1.01,7.26,2.05,10.94,2.59c0.93,0.14,1.78,0.18,2.76,0.22c0.95,0.05,1.89,0.13,2.83,0.22c1.88,0.17,3.75,0.44,5.61,0.77
		c0.93,0.16,1.85,0.34,2.78,0.54c0.91,0.18,1.89,0.43,2.73,0.58c1.78,0.33,3.66,0.48,5.5,0.64l0.19,0.02l0.1,0.06
		c0.67,0.42,1.38,0.84,2.01,1.47c1.02-0.26,2.05-0.45,3.09-0.6c0.75-0.1,1.5-0.19,2.27-0.22c-0.24-0.16-0.47-0.34-0.67-0.56
		c-0.91-0.96-1.39-2.28-1.4-3.61c0-1.25,0.22-2.59,0.97-3.69c0.25-0.39,0.58-0.72,0.95-0.98c-2.65-0.13-5.3-0.27-7.95-0.42
		C92.82,54.36,89.47,54.31,86.11,54.3z"/>
	<path class="st0" d="M91.79,69.85c0.58,0.03,1.15,0.06,1.72,0.09c0.76,0.04,1.58,0.11,2.22,0.1c0.1,0,0.32-0.04,0.52-0.07
		l0.59-0.08c0.18-0.18,0.36-0.38,0.52-0.58c0.5-0.64,0.91-1.37,1.28-2.11c0.34-0.66,0.16-1.15-0.38-1.64
		c-0.5-0.44-1.15-0.8-1.82-1.14c-1.51-0.01-3-0.08-4.52-0.23c-0.18,0.23-0.34,0.46-0.45,0.72c-0.32,0.77-0.41,1.66-0.39,2.55
		c0.03,0.82,0.24,1.66,0.69,2.35C91.78,69.83,91.79,69.84,91.79,69.85z"/>
	<path class="st0" d="M94.13,89.57c0.71-0.28,1.43-0.43,2.16-0.52c0.46-0.05,0.94-0.07,1.42-0.05c0.48,0.02,0.97,0.09,1.49,0.31
		c0.08,0.03,0.1,0.04,0.23,0.1c0.14,0.08,0.15,0.1,0.23,0.15c0.11,0.09,0.21,0.17,0.29,0.27c0.01,0.01,0.01,0.02,0.02,0.02
		c0.57-0.52,1.11-1.02,1.55-1.51c0.25-0.27,0.47-0.57,0.64-0.81l0.12-0.19c0.03-0.04-0.05-0.24-0.13-0.49
		c-0.08-0.25-0.13-0.54-0.13-0.8c0.01-0.26,0.05-0.53,0.05-0.7c0-0.42-0.36-0.66-0.68-0.78c-0.32-0.13-0.62-0.34-0.96-0.57
		c-0.31-0.23-0.63-0.47-0.92-0.82c-0.01,0.03-0.02,0.05-0.02,0.08c-0.12,0.48-0.23,0.97-0.33,1.46c-0.06,0.24-0.1,0.49-0.17,0.72
		c-0.04,0.13-0.04,0.2-0.1,0.38c-0.07,0.17-0.15,0.34-0.26,0.48c-0.42,0.59-1.01,0.88-1.53,1.04c-0.53,0.16-1.05,0.22-1.55,0.22
		c-0.9-0.01-1.76-0.19-2.57-0.55c0.43,0.64,0.73,1.28,0.97,1.94C94.01,89.16,94.07,89.36,94.13,89.57z"/>
	<path class="st0" d="M121.63,69.14c-0.63,0.39-1.27,0.35-1.71,0.32c-0.47-0.03-0.94-0.06-1.4-0.13c-0.78-0.11-1.56-0.25-2.32-0.48
		c0.24,0.51,0.46,1.02,0.63,1.56c0.17,0.54,0.28,1.13,0.16,1.75c-0.21,0.77-0.5,1.41-0.88,2.02c0.03,0.01,0.06,0.01,0.09,0.02
		c0.7,0.15,1.38,0.43,2,0.79c0.62,0.36,1.21,0.81,1.6,1.46c0.03,0.05,0.05,0.11,0.08,0.16c0.77-0.51,1.37-1.08,1.96-1.64
		c0.31-0.3,0.63-0.58,0.89-0.9c0.25-0.34,0.48-0.64,0.66-1.08c0.18-0.43,0.23-0.94,0.14-1.41c-0.08-0.48-0.36-0.92-0.54-1.37
		c-0.3-0.84-0.36-1.72-0.51-2.61c-0.02,0.21-0.07,0.43-0.17,0.67C122.21,68.61,121.94,68.93,121.63,69.14z"/>
	<path class="st0" d="M109.5,86.3c0.45-0.18,0.99-0.66,1.5-1.2c0.26-0.27,0.51-0.55,0.79-0.83c0.31-0.31,0.52-0.44,0.68-0.75
		c0.34-0.59,0.36-1.42,0.2-2.15c-0.17-0.75-0.58-1.42-0.91-2.1c-0.04-0.07-0.08-0.2-0.11-0.22c-0.04-0.03-0.04-0.08-0.09-0.11
		c-0.06-0.07-0.15-0.15-0.26-0.22c-0.23-0.14-0.54-0.25-0.87-0.34c-0.67-0.17-1.41-0.29-2.15-0.36l-0.02,0
		c-0.03,0-0.04-0.02-0.05-0.05c-0.07,0.14-0.16,0.28-0.27,0.4c-0.14,0.16-0.25,0.23-0.37,0.31c-0.12,0.08-0.24,0.16-0.37,0.23
		c-0.2,0.11-0.41,0.19-0.64,0.25c0.01,0.01,0.01,0.02,0.02,0.04c0.19,0.34,0.41,0.75,0.59,0.96c0.01,0.01,0.05,0.03,0-0.03
		c0.25,0.23,0.22,0.36,0.26,0.44c0.04,0.16,0.05,0.28,0.06,0.4c0.01,0.23,0.01,0.45-0.01,0.67c-0.07,0.86-0.22,1.7-0.52,2.5
		c-0.09,0.23-0.19,0.45-0.3,0.67c0.46,0.41,0.9,0.8,1.36,1.11c0.29,0.19,0.58,0.36,0.83,0.43C109.1,86.41,109.28,86.39,109.5,86.3z"
		/>
	<path class="st0" d="M119.03,82.01c0.05-0.14,0.1-0.29,0.14-0.44c0.08-0.31,0.16-0.63,0.21-0.96c0.11-0.65,0.18-1.32,0.24-1.99
		c0.03-0.68,0.08-1.36-0.2-1.94c-0.28-0.58-0.81-1.02-1.42-1.22c-0.61-0.21-1.27-0.22-1.9-0.22l-0.79,0.02l-0.07,0.08l-0.27,0.04
		c-0.09,0.01-0.18,0.02-0.28,0.03c-0.07,0.03-0.14,0.06-0.21,0.1c-0.86,0.53-1.65,1.41-2.5,2.26c0.17,0.1,0.33,0.23,0.46,0.41
		c0.1,0.1,0.15,0.25,0.21,0.38c0.07,0.15,0.06,0.21,0.1,0.32c0.19,0.79,0.22,1.62,0.31,2.41c0.07,0.77,0.21,1.54,0.06,2.39
		c1.05,0.28,2.08,0.4,3.03,0.22c0.55-0.1,1.05-0.31,1.52-0.59c0.23-0.14,0.45-0.31,0.65-0.49c0.2-0.17,0.42-0.39,0.53-0.55
		l0.39-0.28c-0.06,0.01-0.12,0.04-0.17,0.07c-0.03,0.02-0.05,0.04-0.07,0.05l-0.02,0.02c-0.02,0.02-0.06,0.06-0.06,0.07
		c0-0.01,0.01-0.01,0.01-0.01C118.98,82.15,119.01,82.08,119.03,82.01z"/>
	<path class="st0" d="M99.56,82.95c0.45-0.08,0.86-0.03,1.28,0.07c0.43,0.13,0.91,0.31,1.22,0.78c0.32,0.46,0.4,1.06,0.4,1.53
		c0.01,0.27,0.01,0.44,0.09,0.62c0.08,0.17,0.21,0.29,0.35,0.41c0.09,0.08,0.2,0.17,0.31,0.32c0.71-0.16,1.19-0.59,1.55-1.13
		c0.39-0.57,0.66-1.26,0.91-1.95c0.25-0.69,0.51-1.42,0.66-2.15c0.04-0.18,0.07-0.36,0.1-0.53l0.03-0.2c0,0,0,0,0,0
		c-0.02-0.03-0.03-0.06-0.05-0.08c-0.19-0.49-0.22-0.85-0.33-1.24c-0.2-0.76-0.56-1.51-1.17-1.91c-0.63-0.4-1.21-0.39-1.8-0.19
		c-0.6,0.18-1.23,0.57-1.83,1.01c-0.53,0.37-1.04,0.8-1.63,1.18c0.13,0.2,0.25,0.42,0.3,0.65c0.14,0.63,0.03,1.17-0.09,1.67
		C99.77,82.2,99.66,82.58,99.56,82.95z"/>
	<path class="st0" d="M108.62,70.36c0.12-0.16,0.21-0.33,0.25-0.51L109,69.2c0.14-0.9,0.6-1.85,0.39-1.86
		c-0.01-0.03-0.02-0.06-0.05-0.11l-0.15-0.26c-0.1-0.19-0.2-0.39-0.26-0.61c-0.07-0.21-0.13-0.42-0.16-0.64c0-0.01,0-0.03-0.01-0.05
		c-0.03,0-0.05,0.01-0.08,0.01c-0.17,0.02-0.37,0.04-0.63-0.01c-0.25-0.07-0.36-0.14-0.49-0.19c-0.23-0.11-0.47-0.19-0.72-0.27
		c-0.51-0.17-1-0.3-1.53-0.37c-0.23-0.03-0.46-0.04-0.69-0.06c-0.55,0.36-0.95,0.85-1.18,1.4c-0.32,0.77-0.41,1.66-0.39,2.55
		c0.03,0.82,0.24,1.66,0.69,2.35c0.45,0.69,1.16,1.21,2.1,1.51c-0.07,0.02-0.14,0.03-0.21,0.05c0.19,0.04,0.39,0.08,0.59,0.15
		c0.27,0.09,0.53,0.22,0.79,0.38c0.24-0.71,0.52-1.33,0.88-1.91C108.07,70.94,108.38,70.68,108.62,70.36z"/>
	<path class="st0" d="M101.13,92.65l-0.02-0.13c-0.04-0.17-0.14-0.35-0.28-0.51c-0.26-0.32-0.65-0.56-1.04-0.74
		c-0.19-0.09-0.4-0.18-0.59-0.25l-0.28-0.1c-0.02,0-0.11-0.04-0.07-0.01c0.03,0.02-0.07,0-0.1,0c-0.71-0.07-1.6-0.19-2.47-0.31
		c-0.64-0.09-1.3-0.2-1.97-0.37c0.06,0.28,0.13,0.55,0.17,0.84c0.2,1.43,0.18,3.03-0.62,4.44c-0.14,0.25-0.32,0.48-0.51,0.69
		c1.48-0.28,2.93-0.38,4.34-0.45c0.86-0.03,1.76,0.02,2.5-0.06c0.35-0.05,0.55-0.12,0.66-0.19c0.06-0.04,0.13-0.14,0.18-0.3
		c0.04-0.16,0.08-0.36,0.08-0.58c0.02-0.44-0.03-0.93-0.02-1.46c-0.01-0.12,0.03-0.31,0.04-0.4L101.13,92.65z"/>
	<path class="st0" d="M101.73,93.13c0.05,0.4,0.25,0.83,0.42,1.31c0.02,0.05,0.03,0.11,0.05,0.16c0.41,0.06,0.82,0.13,1.22,0.21
		l1.05,0.2c0.17,0.03,0.34,0.06,0.51,0.09l0.24,0.03c0.07,0.01,0.08,0,0.13,0c0.42-0.07,1.02-0.38,1.5-0.77
		c0.5-0.4,0.9-0.92,1.26-1.5c0.36-0.57,0.63-1.27,0.65-1.99c0.1-0.73-0.39-1.32-0.92-1.75c-0.26-0.22-0.53-0.43-0.77-0.66
		c-0.24-0.24-0.5-0.46-0.76-0.69c-0.42-0.37-0.84-0.73-1.32-1.07c-0.21,0.12-0.42,0.21-0.65,0.27c-0.33,0.09-0.67,0.09-0.98,0.01
		c0.01,0.02,0.02,0.03,0.03,0.06c0.14,0.4,0.05,0.83-0.05,1.09c-0.2,0.55-0.55,0.95-0.93,1.26c-0.39,0.31-0.82,0.52-1.26,0.67
		c-0.28,0.09-0.56,0.15-0.86,0.17c0.05,0.06,0.12,0.12,0.17,0.19c0.32,0.39,0.61,0.8,0.88,1.23c0.14,0.22,0.26,0.46,0.34,0.74
		c0.04,0.14,0.06,0.29,0.05,0.46C101.72,92.97,101.71,93.02,101.73,93.13z"/>
	<path class="st0" d="M110.13,55.7c-0.11-0.22-0.29-0.37-0.73-0.46c-0.86-0.16-1.98-0.03-3.21-0.19c-0.34-0.01-0.69-0.03-1.03-0.05
		c-0.51,0.39-0.91,0.89-1.15,1.45c-0.43,0.95-0.54,2.05-0.52,3.16c0.03,1.03,0.31,2.08,0.9,2.93c0.37,0.54,0.88,0.97,1.49,1.3
		c0.43,0.04,0.86,0.11,1.27,0.2c0.28,0.06,0.58,0.15,0.86,0.26c0.13,0.05,0.28,0.1,0.29,0.1c0.01,0,0.09-0.01,0.19-0.03
		c0.47-0.1,1.04-0.27,1.57-0.4c0.47-0.14,0.75-0.31,0.86-0.55c0.13-0.24,0.13-0.71,0.06-1.22c-0.07-0.51-0.2-1.06-0.32-1.63
		c-0.24-1.13-0.46-2.36-0.38-3.67C110.3,56.4,110.26,55.94,110.13,55.7z"/>
	<path class="st0" d="M80.5,69.94c-0.33,0.31-0.59,0.68-0.75,1.08c-0.32,0.78-0.39,1.69-0.37,2.59c0.04,0.86,0.23,1.75,0.63,2.49
		c0.26,0.5,0.66,0.92,1.17,1.24c0.69,0.12,1.39,0.26,2.08,0.43c0.8-0.55,1.52-1.23,2.06-2.02c0.55-0.81,0.79-1.81,0.47-2.67
		c-0.31-0.87-1.01-1.55-1.79-2.07c-0.4-0.26-0.82-0.48-1.26-0.66c-0.22-0.09-0.44-0.17-0.66-0.24c-0.11-0.03-0.22-0.07-0.33-0.09
		c-0.09-0.02-0.24-0.04-0.22-0.04l0,0l-0.05,0C81.15,69.98,80.82,69.96,80.5,69.94z"/>
	<path class="st0" d="M108.25,77.88c0.35-0.24,0.73-0.34,1.11-0.43c0.39-0.09,0.79-0.12,1.21-0.1c0.36,0.02,0.73,0.09,1.11,0.25
		c0.2-0.5,0.43-0.99,0.73-1.45c0.13-0.2,0.27-0.39,0.41-0.58c-0.43,0.02-0.85,0.03-1.28,0.02c-0.58,0-1.16-0.03-1.73-0.08
		c-0.52-0.05-1.04-0.11-1.56-0.21c0.1,0.34,0.19,0.69,0.22,1.08c0.03,0.31,0.02,0.63-0.05,0.98
		C108.38,77.53,108.33,77.71,108.25,77.88z"/>
	<path class="st0" d="M115.51,73.17c0.16-0.2,0.33-0.39,0.49-0.59l0.23-0.31c0.06-0.09,0.13-0.18,0.17-0.29
		c0.21-0.42,0.2-0.95,0.05-1.44c-0.15-0.49-0.45-0.93-0.8-1.31c-0.36-0.38-0.75-0.7-1.12-1.05c-0.33-0.27-0.65-0.48-1.05-0.58
		c-0.8-0.19-1.78,0.01-2.8,0.23c0,0,0,0.01,0,0.01c-0.11,0.29-0.25,0.5-0.39,0.68c-0.27,0.36-0.64,0.55-0.86,0.86
		c-0.11,0.16-0.16,0.31-0.18,0.53l-0.09,0.66c-0.06,0.44-0.12,0.91-0.31,1.29c-0.2,0.38-0.46,0.71-0.77,1.01
		c-0.22,0.21-0.47,0.41-0.76,0.55c0.14,0.12,0.27,0.26,0.38,0.41c0.1,0.14,0.17,0.29,0.24,0.45c0.06,0.17,0.1,0.34,0.13,0.44
		c0.03,0.12,0.07,0.24,0.1,0.36c0.52-0.18,1.04-0.32,1.56-0.44c0.57-0.13,1.14-0.24,1.71-0.32c1.07-0.18,2.15-0.25,3.23-0.26
		C114.96,73.81,115.24,73.48,115.51,73.17z"/>
	<path class="st0" d="M97.77,69.72c-0.03,0.03-0.07,0.07-0.1,0.1c0.14-0.01,0.27-0.03,0.41-0.04c0.42-0.03,0.84-0.05,1.27-0.03
		c0.22,0.02,0.44,0.05,0.68,0.13c0.23,0.08,0.49,0.23,0.64,0.5c0.14,0.3,0.15,0.47,0.2,0.69c0.04,0.21,0.08,0.42,0.11,0.63
		c0.05,0.25,0.08,0.5,0.11,0.76c0.38-0.12,0.75-0.18,1.12-0.24c0.4-0.04,0.81-0.06,1.21-0.04c-0.16-0.11-0.32-0.24-0.46-0.39
		c-0.78-0.8-1.19-1.91-1.19-3.03c0-1.04,0.2-2.16,0.84-3.08c0.27-0.41,0.65-0.74,1.07-0.96c-1.49-0.07-3.02,0.01-4.53,0.12
		c0.29,0.34,0.56,0.77,0.65,1.3c0.1,0.59-0.11,1.16-0.38,1.56C98.91,68.4,98.39,69.1,97.77,69.72z"/>
	<path class="st0" d="M90.12,85.57c-0.07,0-0.05-0.01-0.05-0.04l0-0.1v-0.21c0-0.14-0.01-0.28-0.01-0.42l-0.04-0.84
		c-0.04-0.55-0.07-1.1-0.15-1.62c-0.12-1.05-0.38-2.04-0.77-2.62c-0.19-0.3-0.48-0.54-0.93-0.66c-0.22-0.05-0.45-0.09-0.69-0.13
		c-0.68,0.34-1.15,0.88-1.4,1.48c-0.15,0.34-0.21,0.72-0.28,1.09l-0.04,0.59l-0.01,0.6c0.03,0.73,0.21,1.48,0.6,2.09
		c0.19,0.31,0.44,0.58,0.75,0.82c0.5,0,1,0,1.5,0.02c0.47,0.01,0.94,0.03,1.41,0.06c0,0,0,0,0,0
		C90.02,85.61,90.07,85.57,90.12,85.57z"/>
	<path class="st0" d="M93.84,80.08c-0.11,0.16-0.2,0.33-0.27,0.51c-0.15,0.34-0.21,0.72-0.28,1.09l-0.04,0.59l-0.01,0.6
		c0.03,0.73,0.21,1.48,0.6,2.09c0.29,0.47,0.72,0.85,1.28,1.15c0.09-0.02,0.18-0.04,0.26-0.06c0.83-0.2,1.62-0.53,1.96-0.85
		c0.05-0.04,0.09-0.08,0.12-0.12c0.04-0.04,0.13-0.19,0.19-0.28c0.13-0.21,0.29-0.39,0.43-0.59c0.29-0.38,0.57-0.77,0.78-1.19
		c0.21-0.42,0.35-0.87,0.4-1.31c0.05-0.44-0.02-0.9-0.22-1.18c-0.1-0.14-0.22-0.22-0.35-0.27c-0.07-0.03-0.14-0.05-0.21-0.06
		c-0.12-0.04-0.25-0.09-0.37-0.15c-0.51-0.23-0.95-0.61-1.3-0.92c-0.17-0.15-0.33-0.28-0.41-0.31c-0.08-0.02,0.04,0.04,0.03,0.04
		c-0.02,0.02-0.14,0.08-0.27,0.17c-0.15,0.1-0.28,0.2-0.48,0.35C95.09,79.78,94.46,80,93.84,80.08z"/>
	<path class="st0" d="M106.94,78.04c0.06-0.11,0.14-0.24,0.16-0.3c0.1-0.3,0.05-0.71-0.01-1.19c-0.06-0.48-0.11-1.01-0.16-1.59
		l-0.02-0.37c0-0.11-0.02-0.21-0.03-0.32c-0.03-0.22-0.11-0.44-0.25-0.64c-0.14-0.2-0.33-0.36-0.55-0.44
		c-0.22-0.1-0.46-0.08-0.73-0.06c-0.53,0.06-1.06,0.22-1.59,0.24c-0.87,0-1.75-0.13-2.61-0.41c0,0,0,0.01,0,0.01
		c0.07,0.86,0.12,1.75-0.12,2.69c-0.12,0.47-0.33,0.95-0.7,1.37c-0.35,0.43-0.87,0.72-1.39,0.87c-0.26,0.07-0.47,0.1-0.67,0.12
		c0.21,0.26,0.41,0.48,0.63,0.7l0.23,0.21c0.12,0.09,0.24,0.2,0.35,0.32c0.34-0.58,0.73-1.15,1.2-1.66
		c0.57-0.59,1.24-1.16,2.13-1.42c0.44-0.12,0.96-0.12,1.41,0.05c0.46,0.17,0.82,0.49,1.09,0.84c0.45,0.61,0.78,1.23,1.12,1.85
		c0.11-0.17,0.21-0.35,0.32-0.51L106.94,78.04z"/>
	<path class="st0" d="M91.91,85.97c0.38,0.23,0.62,0.47,0.81,0.71c0.49-0.13,0.96-0.24,1.42-0.34c-0.4-0.13-0.77-0.36-1.08-0.67
		c-0.72-0.72-1.1-1.75-1.1-2.77c0-0.94,0.18-1.95,0.76-2.78c-0.1-0.01-0.2-0.02-0.3-0.04c-0.49-0.08-0.95-0.21-1.4-0.4
		c0.1,0.24,0.19,0.49,0.24,0.73c0.15,0.65,0.17,1.29,0.12,1.9c-0.05,0.62-0.16,1.21-0.34,1.79c-0.08,0.29-0.2,0.57-0.32,0.85
		c-0.06,0.14-0.14,0.27-0.21,0.41c-0.04,0.07-0.08,0.13-0.13,0.2l-0.08,0.1c-0.01,0.01-0.02,0.02-0.03,0.03
		c0.09,0.01,0.18,0.01,0.27,0.02l0.48,0.03c0.1,0.01,0.09-0.01,0.36,0.04C91.62,85.82,91.75,85.89,91.91,85.97z"/>
	<path class="st0" d="M90.35,78.66c0.73-0.03,1.43-0.07,2.07-0.18c0.31-0.05,0.6-0.13,0.87-0.23c-1.37-0.03-2.73-0.13-4.1-0.27
		c-1.55-0.17-3.11-0.39-4.66-0.77c-0.31,0.24-0.64,0.44-0.98,0.63c0.99,0.21,1.98,0.35,2.98,0.31c0.55-0.01,1.08-0.11,1.65-0.2
		c0.33-0.04,0.68-0.04,1.04,0.05c0.35,0.1,0.71,0.28,1,0.54C90.28,78.58,90.31,78.62,90.35,78.66z"/>
	<path class="st0" d="M127.97,117.51c-0.72,0.16-1.43,0.32-2.16,0.44c-2.89,0.52-5.81,0.74-8.73,0.76c-0.51,0-1.02-0.01-1.52-0.02
		c-1.35,0.15-2.7,0.22-4.05,0.25c-0.81,0.01-1.61,0-2.41-0.01c-0.47,0.17-0.92,0.4-1.29,0.7c-0.33,0.27-0.54,0.62-0.55,0.94
		c-0.01,0.24-0.02,0.48-0.01,0.72c0.63-0.03,1.23-0.01,1.85,0.07c0.7,0.12,1.3,0.24,1.96,0.34l3.91,0.58l-3.95-0.13l-0.99-0.05
		c-0.34-0.02-0.66-0.05-0.97-0.04c-0.58,0.02-1.17,0.09-1.73,0.21c0.11,0.79,0.29,1.54,0.56,2.21c0.13,0.33,0.29,0.62,0.47,0.9
		c1.35-0.19,2.68-0.16,3.99,0c1.42,0.18,2.82,0.47,4.17,0.89c-1.39-0.25-2.8-0.38-4.2-0.38c-1.1,0-2.2,0.09-3.25,0.32
		c0.05,0.05,0.1,0.1,0.16,0.15l1,0.8c1.53,0.05,3.06,0.16,4.59,0.37c0.99,0.13,1.99,0.24,2.98,0.45c2.16-0.08,4.34-0.2,6.54-0.04
		c-0.19-0.05-0.39-0.11-0.58-0.15c-1.44-0.35-2.9-0.63-4.36-0.87c1.48,0.06,2.97,0.18,4.45,0.36c0.74,0.1,1.48,0.21,2.22,0.36
		c0.09,0.02,0.17,0.04,0.26,0.06c-0.38-0.19-0.78-0.35-1.18-0.5c-1.18-0.44-2.42-0.76-3.68-1.08c-1.26-0.35-2.53-0.62-3.84-1.24
		l-3-1.41l3.31,0.11c1.67,0.06,3.35-0.06,4.99-0.39c0.49-0.1,0.97-0.23,1.45-0.37c-1.65-0.13-3.3-0.29-4.95-0.51
		c-1.72-0.26-3.44-0.49-5.16-1.13l-0.24-0.09c-0.02,0-0.04,0-0.06-0.01c-1.55-0.21-3.1-0.43-4.63-0.74
		c-0.04-0.01-0.06-0.04-0.05-0.08c0.01-0.03,0.04-0.06,0.07-0.06c1.34,0.08,2.67,0.14,4,0.17l1.03-0.09c2.9-0.26,5.8-0.51,8.64-1.02
		c1.41-0.27,2.84-0.59,4.1-1.2c0.31-0.16,0.61-0.34,0.86-0.55l0.03-0.03C127.99,117.51,127.98,117.51,127.97,117.51z"/>
	<path class="st0" d="M3.49,74.83L3.49,74.83C3.48,74.84,3.49,74.83,3.49,74.83C3.49,74.83,3.49,74.83,3.49,74.83z"/>
	<path class="st0" d="M2.93,82.43c0.36,0.17,0.97,0.3,1.5,0.42c1.11,0.23,2.25,0.42,3.39,0.59c0.98,0.16,1.99,0.33,2.96,0.46
		l0.21-0.02l0.12-0.02c3.26,0.26,6.48,0.69,9.68,1.42c3.14,0.93,6.31,1.3,9.55,1.4c3.22,0.11,6.45,0.02,9.68-0.15l1.21-0.07
		c0.42-0.01,0.85-0.03,1.27-0.02c0.84,0.02,1.67,0.08,2.5,0.19c1.65,0.21,3.27,0.52,4.87,0.92c3.2,0.81,6.32,1.79,9.38,3.27
		c0.37,0.18,0.83,0.47,1.06,0.58c0.3,0.15,0.67,0.28,1.03,0.4c0.73,0.24,1.5,0.43,2.28,0.61c1.56,0.35,3.15,0.62,4.74,0.89
		c3.19,0.54,6.4,0.94,9.62,1.54c1.55,0.32,3.16,0.39,4.79,0.58c0.81,0.1,1.64,0.23,2.43,0.49c0.5,0.16,0.98,0.39,1.43,0.67
		c0.03,0,0.06,0.02,0.07,0.04c0.18,0.11,0.35,0.23,0.52,0.36c0.6-0.39,1.3-0.63,2.09-0.6c0.24,0.02,0.5,0.07,0.75,0.19
		c0.02,0.01,0.05,0.03,0.07,0.04c0.22-0.09,0.44-0.18,0.66-0.28c0.3-0.13,0.54-0.25,0.76-0.4c0.44-0.31,0.77-0.71,0.97-1.19
		c0.41-0.96,0.37-2.18,0.12-3.33c-0.26-1.14-0.72-2.35-1.35-3.19c-0.13-0.17-0.28-0.32-0.34-0.37c-0.02,0-0.05,0-0.06,0l-0.48-0.03
		l-1.89-0.14c-1.26-0.09-2.51-0.15-3.76-0.16c-0.62,0-1.25,0.01-1.86,0.05c-0.31,0.01-0.61,0.04-0.92,0.07
		c-0.31,0.04-0.58,0.07-0.96,0.09c-1.41,0.08-2.67-0.12-3.97-0.28c-2.56-0.39-5.08-0.83-7.63-1.13c-2.54-0.32-5.12-0.44-7.67-0.8
		c-1.27-0.19-2.55-0.43-3.79-0.75c-1.25-0.3-2.49-0.63-3.72-0.98c-2.46-0.7-4.93-1.52-7.32-2.39l-0.03-0.01
		c-0.03-0.01-0.05-0.03-0.05-0.06c-0.58,0.21-1.2,0.44-1.93,0.61c-0.59,0.14-1.22,0.19-1.83,0.16c-0.61-0.03-1.19-0.15-1.75-0.28
		c-1.12-0.29-2.2-0.76-3.17-1.33c-0.55-0.32-1.08-0.68-1.58-1.05c-0.07,0-0.13,0.01-0.2,0.01c-0.59,0.04-1.17,0.07-1.76,0.07
		c-1.17,0.01-2.34-0.04-3.52-0.14c-1.17-0.1-2.34-0.25-3.53-0.5c-0.6-0.13-1.18-0.28-1.8-0.53l-0.42-0.17
		c-0.08-0.03-0.2-0.07-0.32-0.11c-0.24-0.07-0.5-0.13-0.77-0.2c-2.17-0.48-4.47-0.86-6.73-1.24c-1.14-0.18-2.28-0.37-3.42-0.57
		l-3.42-0.63c-2.28-0.39-4.6-0.66-6.89-0.63l-0.14,0.01L3.49,75.1c-0.14,0.28-0.3,0.55-0.47,0.82c-0.33,0.54-0.73,1.04-1.16,1.5
		c-0.43,0.46-0.92,0.87-1.42,1.24c-0.19,0.15-0.31,0.27-0.37,0.38C0,79.15,0,79.22,0,79.34c0.01,0.26,0.25,0.69,0.55,1.08
		c0.3,0.4,0.69,0.78,1.1,1.12C2.06,81.88,2.51,82.22,2.93,82.43z"/>
	<path class="st0" d="M114.95,53.26c-0.22,0.54-0.53,1.12-1.02,1.55c-0.48,0.43-1.07,0.64-1.64,0.74c-0.13,0.02-0.25,0.04-0.38,0.06
		c0.1,0.51,0.08,0.99,0.06,1.43c-0.08,1,0.07,2.07,0.28,3.19c0,0.01,0,0.01,0,0.02c0.32-0.23,0.72-0.34,1.09-0.4
		c0.49-0.08,0.98-0.09,1.45-0.07c0.73,0.04,1.43,0.14,2.12,0.27c0.11-0.22,0.2-0.43,0.28-0.66c0.13-0.38,0.24-0.77,0.34-1.15
		c0.1-0.39,0.23-0.77,0.32-1.17c0.07-0.4,0.15-0.8,0.18-1.2c0.01-0.41-0.15-0.86-0.42-1.19c-0.28-0.34-0.72-0.52-1.07-0.74
		c-0.51-0.36-0.91-0.76-1.39-1.19C115.09,52.91,115.02,53.08,114.95,53.26z"/>
	<path class="st0" d="M33.55,77.04l-0.15-0.12l-0.11-0.08c-0.07-0.06-0.16-0.09-0.23-0.15c-0.68-0.35-1.65-0.45-2.63-0.43
		c-0.99,0.02-2.02,0.13-3.07,0.23c-0.18,0.02-0.37,0.03-0.55,0.05c0.38,0.15,0.79,0.28,1.2,0.41c1.06,0.32,2.18,0.57,3.3,0.83
		c1.12,0.24,2.25,0.47,3.38,0.69c0.27,0.05,0.54,0.1,0.8,0.15c-0.02-0.02-0.05-0.04-0.07-0.06l-1.25-1.02L33.55,77.04z"/>
	<path class="st0" d="M106.39,120.42c0.14-0.64,0.6-1.07,1.01-1.36c0.04-0.02,0.08-0.04,0.12-0.06c-0.01,0-0.02,0-0.03,0.01
		c-0.21,0.04-0.4,0.06-0.6,0.08c-0.38,0.04-0.75,0.06-1.13,0.09c-1.49,0.09-2.97,0.04-4.43-0.12c-1.47-0.14-2.93-0.33-4.38-0.59
		c-0.55-0.1-1.11-0.2-1.66-0.32c-0.16-0.01-0.32-0.03-0.48-0.05c-0.87-0.07-1.74-0.12-2.61-0.16c-1.74-0.08-3.48-0.12-5.23-0.18
		l-10.47-0.23l-5.25-0.16c-1.77-0.09-3.46-0.15-5.22-0.17c-1.74-0.03-3.5-0.08-5.26-0.17c-1.76-0.09-3.53-0.21-5.32-0.48
		c-0.89-0.12-1.8-0.33-2.71-0.61l-0.69-0.25c-0.23-0.08-0.32-0.12-0.52-0.17c-0.37-0.1-0.77-0.19-1.18-0.26
		c-1.66-0.3-3.39-0.48-5.11-0.68c-3.45-0.37-6.93-0.63-10.41-0.87c-3.48-0.22-6.96-0.44-10.44-0.62c-0.87-0.04-1.74-0.08-2.6-0.11
		l-0.31,0l-0.06,0l-0.04,0.02l-0.56,0.2c-0.36,0.16-0.72,0.33-1.05,0.55c-0.66,0.43-1.24,0.99-1.66,1.67
		c-0.22,0.33-0.39,0.71-0.54,1.09c-0.07,0.19-0.13,0.39-0.19,0.59c-0.03,0.1-0.05,0.2-0.07,0.3l-0.03,0.16l-0.01,0.04l0.31,1.19
		c0.13,0.45,0.23,0.93,0.37,1.26c0.31,0.71,0.93,1.28,1.67,1.51c0.19,0.05,0.38,0.1,0.57,0.11l0.66,0.04l1.35,0.07l2.69,0.14
		l10.77,0.56c1.8,0.12,3.59,0.21,5.39,0.39c1.79,0.2,3.56,0.32,5.35,0.37c3.57,0.12,7.16,0.07,10.74-0.01
		c3.59-0.07,7.18-0.14,10.77-0.14c1.8,0.01,3.6,0.02,5.42,0.08c1.83,0.05,3.63,0.26,5.42,0.46c5.65,0.64,11.28,1.44,16.89,2.35
		c0.27,0.02,0.54,0.04,0.81,0.04c0.09,0,0.17,0,0.26,0l0.3-0.04c0.19-0.02,0.38-0.04,0.56-0.06c0.75-0.07,1.49-0.09,2.23-0.11
		c1.48-0.03,2.95,0.01,4.42,0.07c0.73,0.03,1.46,0.08,2.18,0.13l0.14,0.01c-0.14-0.31-0.25-0.62-0.34-0.94
		c-0.3-1.06-0.29-2.13-0.16-3.15C106.16,121.41,106.26,120.91,106.39,120.42z"/>
	<path class="st0" d="M66.13,83.08c-0.93-0.33-1.95-0.56-2.96-0.77c-2.03-0.43-4.1-0.72-6.17-1c-2.07-0.26-4.15-0.47-6.19-0.54
		c-1.02-0.03-1.97,0-2.89,0.23c-0.26,0.06-0.52,0.13-0.78,0.22c1.25,0.05,2.43,0.24,3.63,0.41c1.27,0.19,2.53,0.41,3.79,0.65
		c2.52,0.47,5.01,1.02,7.48,1.61c2.48,0.61,4.94,1.36,7.46,1.8c2.52,0.44,5.07,0.67,7.61,0.68c0.75,0,1.51-0.02,2.25-0.07
		c-1.33-0.26-2.66-0.54-3.99-0.81c-2.07-0.43-4.12-0.93-6.17-1.48C68.18,83.73,67.16,83.46,66.13,83.08z"/>
	<path class="st0" d="M91,87.88c0.07,0,0.04,0-0.01,0C90.99,87.87,90.99,87.87,91,87.88z"/>
	<path class="st0" d="M124.8,122.89L124.8,122.89C124.81,122.9,124.83,122.9,124.8,122.89z"/>
	<path class="st0" d="M20.7,93.53L23.58,94l5.78,0.88l11.58,1.74l11.58,1.82l11.57,1.87c7.03,1.16,14.06,2.35,21.08,3.63
		c0-0.01,0-0.02,0-0.02c0.01-0.02,0.04-0.03,0.06-0.03c0.24,0.03,0.48,0.06,0.72,0.09c-0.33-0.24-0.63-0.55-0.84-0.94
		c-0.37-0.72-0.45-1.57-0.33-2.33c0.11-0.77,0.41-1.47,0.8-2.07c0.33-0.5,0.73-0.96,1.2-1.32c-0.12-0.13-0.2-0.27-0.25-0.44
		c-1.19-0.59-2.53-0.77-3.85-0.82c-1.6-0.07-3.24,0.01-4.9-0.23c-1.59-0.22-3.21-0.35-4.82-0.52c-1.61-0.17-3.23-0.34-4.85-0.54
		c-1.62-0.2-3.23-0.45-4.85-0.76c-0.81-0.16-1.62-0.34-2.44-0.58c-0.41-0.13-0.82-0.26-1.25-0.47c-0.49-0.25-0.73-0.4-1.09-0.58
		c-1.4-0.67-2.92-1.23-4.44-1.73c-1.53-0.49-3.06-0.96-4.62-1.35c-1.55-0.38-3.11-0.76-4.68-0.99c-0.78-0.11-1.56-0.21-2.34-0.27
		C42.04,88,41.65,88,41.26,87.98l-1.22,0.01c-3.26,0.01-6.52-0.07-9.77-0.36c-1.62-0.15-3.25-0.34-4.86-0.6
		c-1.61-0.24-3.22-0.73-4.77-1.13c-1.57-0.39-3.16-0.68-4.76-0.89c-1.59-0.22-3.19-0.38-4.78-0.45c-0.03,0.01-0.07,0.02-0.1,0.02
		l-0.14,0.02l-0.27,0.03l-0.54,0.06L9,84.78l-2.13,0.17c-1.34,0.09-2.67,0.19-4.04,0.17c-0.49,0.64-0.8,1.48-0.98,2.34
		c-0.19,0.93-0.25,1.92-0.21,2.87c0.01,0.11,0.02,0.24,0.03,0.35l0.2,0.03c0.47,0.07,0.95,0.12,1.43,0.17l2.91,0.31
		c1.94,0.22,3.89,0.44,5.83,0.69c1.95,0.27,3.88,0.54,5.88,1.06C18.81,93.22,19.74,93.35,20.7,93.53z"/>
	<path class="st0" d="M64.62,65.89L64,65.66l-0.56-0.18c-0.41-0.1-0.81-0.21-1.24-0.29c-1.7-0.36-3.45-0.71-5.21-1.04
		c-1.76-0.3-3.52-0.66-5.29-1.04c-1.77-0.38-3.53-0.62-5.35-0.73c-1.75-0.2-3.47-0.51-5.14-0.96c0.47,0.41,0.89,0.87,1.26,1.4
		c0.34,0.5,0.65,1.03,0.82,1.66c0.12,0.03,0.25,0.05,0.37,0.06c0.11,0,0.39-0.01,0.58,0c0.83,0.05,1.61,0.24,2.38,0.42
		c0.77,0.18,1.54,0.38,2.3,0.57c0.76,0.2,1.52,0.4,2.27,0.55c0.38,0.08,0.74,0.14,1.09,0.17l1.19,0.11
		c1.57,0.16,3.12,0.33,4.66,0.43c0.77,0.05,1.54,0.11,2.31,0.12c0.76,0.02,1.59,0.04,2.36,0.09c1.97,0.12,3.94,0.28,5.91,0.44
		c-0.53-0.19-1.06-0.39-1.58-0.59L64.62,65.89z"/>
	<path class="st0" d="M7.78,53.34c0.06,0.04,0.15,0.08,0.22,0.12l0.37,0.17l0.72,0.35c0.48,0.23,0.94,0.47,1.4,0.72l2.75,1.47
		l5.46,2.98l2.73,1.46c0.91,0.47,1.83,0.96,2.71,1.34c1.96,0.8,3.82,1.72,5.69,2.63c1.87,0.91,3.72,1.86,5.56,2.82l2.77,1.44
		c0.46,0.24,0.93,0.49,1.37,0.69c0.46,0.2,0.93,0.41,1.41,0.6c0.64,0.26,1.29,0.5,1.94,0.73l6.1,0.98c2.26,0.5,4.48,1.06,6.7,1.62
		c2.22,0.55,4.44,1.11,6.66,1.63c2.88,0.68,5.78,1.32,8.69,1.84c1.94-0.23,3.85-0.23,5.74-0.14c0.55,0.04,1.07,0.08,1.61,0.14
		c0.4,0.04,0.78,0.1,1.17,0.15c-0.13-0.11-0.25-0.24-0.36-0.37c-0.71-0.87-1.06-1.97-1.08-3.08c-0.01-1.06,0.17-2.19,0.81-3.14
		c0.15-0.24,0.34-0.45,0.55-0.63c-5.59-0.31-11.18-0.7-16.75-1.1l-2.33-0.15c-0.8-0.06-1.59-0.12-2.38-0.23
		c-1.58-0.21-3.13-0.48-4.68-0.75c-3.24-0.34-6.11-2-9.11-2.4l-0.59-0.02c-0.23-0.03-0.43-0.08-0.63-0.13
		c-0.4-0.12-0.77-0.25-1.15-0.39c-0.74-0.29-1.47-0.6-2.2-0.92l-4.32-1.94c-1.44-0.63-2.88-1.28-4.35-1.81
		c-0.37-0.13-0.73-0.26-1.1-0.37c-0.18-0.05-0.36-0.1-0.54-0.13c-0.2-0.05-0.42-0.1-0.61-0.16c-0.78-0.24-1.52-0.53-2.26-0.83
		c-2.94-1.19-5.84-2.47-8.69-3.83c-1.43-0.68-2.86-1.36-4.28-2.06l-2.12-1.07l-1.06-0.55c-0.22-0.12-0.42-0.22-0.64-0.34
		c-0.62,0.33-1.28,0.86-1.71,1.42c-0.26,0.32-0.44,0.7-0.44,0.88c0,0.09,0.01,0.1,0.03,0.14C7.57,53.18,7.65,53.26,7.78,53.34z"/>
	<path class="st0" d="M18.44,53.26c2.8,1.44,5.59,2.94,8.42,4.28c0.71,0.33,1.43,0.66,2.14,0.92c0.18,0.07,0.34,0.12,0.52,0.17
		c0.21,0.05,0.41,0.12,0.6,0.19c0.38,0.14,0.76,0.29,1.12,0.44c1.46,0.64,2.89,1.31,4.32,1.99c1.43,0.67,2.86,1.35,4.3,1.97
		c0.26,0.11,0.53,0.22,0.79,0.33c-0.25-0.15-0.49-0.31-0.73-0.47c-0.47-0.34-0.93-0.76-1.39-1.17c-0.47-0.39-0.89-0.87-1.3-1.38
		c-0.41-0.5-0.87-0.93-1.43-1.2c-0.55-0.28-1.23-0.34-1.81-0.56c-0.58-0.22-1.06-0.61-1.53-1.01c-0.45-0.4-0.89-0.9-1.25-1.41
		c0,0-0.01-0.01-0.01-0.01c-0.02-0.01-0.02-0.03-0.03-0.05l-0.02-0.03c-0.03-0.04-0.02-0.09,0.02-0.12
		c0.01-0.01,0.02-0.01,0.03-0.01c0.43-0.1,0.74-0.04,1.08,0.01c0.33,0.05,0.64,0.15,0.93,0.26c0.49,0.19,0.96,0.41,1.38,0.73
		c0.63,0.21,1.26,0.43,1.88,0.65c0.85,0.3,1.69,0.62,2.52,0.95c0.84,0.31,1.66,0.66,2.48,1.03c1.63,0.72,3.23,1.66,4.95,1.96
		c1.76,0.24,3.58,0.27,5.39,0.28c1.81-0.01,3.62,0.06,5.42,0.25c1.81,0.18,3.61,0.37,5.42,0.83c0.45,0.11,0.91,0.25,1.37,0.4
		c0.23,0.09,0.48,0.19,0.71,0.29c0.22,0.1,0.42,0.21,0.62,0.31c0.82,0.42,1.62,0.86,2.41,1.32c1.19,0.71,2.37,1.44,3.51,2.24
		c3.43,0.31,6.86,0.66,10.29,1.05l-0.05,0c0.27,0.02,0.37,0.06,0.52,0.1c0.14,0.04,0.27,0.09,0.4,0.14c0.26,0.1,0.5,0.21,0.74,0.33
		c0.37,0.19,0.72,0.4,1.06,0.64c1.52-0.26,3.03-0.23,4.53-0.21c0.55,0.01,1.1,0.04,1.66,0.06c-0.41-0.69-0.63-1.49-0.63-2.3
		c0-1.04,0.2-2.16,0.83-3.08c0.07-0.11,0.16-0.22,0.25-0.32c0,0-0.01,0-0.01,0l-5.55-1.03c-1.84-0.34-3.68-0.67-5.51-1.03
		c-0.92-0.17-1.84-0.33-2.75-0.46c-0.89-0.11-1.91-0.26-2.82-0.49c-3.68-0.95-7.27-2.04-10.92-2.92c-1.82-0.45-3.66-0.84-5.49-1.19
		c-0.92-0.18-1.84-0.33-2.75-0.44c-0.46-0.06-0.91-0.1-1.35-0.12c-0.44-0.03-0.95-0.03-1.42-0.07c-3.8-0.31-7.51-0.98-11.22-1.72
		c-1.85-0.38-3.7-0.77-5.53-1.26c-1.84-0.47-3.66-0.99-5.48-1.69c-0.91-0.36-1.81-0.74-2.68-1.2c-0.87-0.46-1.7-0.99-2.49-1.47
		c-0.79-0.49-1.51-0.85-2.3-1c-0.41-0.07-0.8-0.1-1.27-0.11l-1.42-0.03c-1.89-0.09-3.77-0.23-5.64-0.39
		c-0.47-0.04-0.94-0.09-1.41-0.14c-0.15-0.02-0.14-0.02-0.21-0.01c-0.05,0.01-0.1,0.04-0.14,0.08c-0.09,0.08-0.1,0.18-0.09,0.47
		c-0.01,0.72-0.02,1.45-0.04,2.17l1.89,1.01L18.44,53.26z"/>
	<path class="st0" d="M108.1,50.39c0.03,0.93,0.28,1.88,0.8,2.65c0.09,0.13,0.2,0.25,0.3,0.37c0.17,0.02,0.35,0.04,0.52,0.07
		c0.17,0.04,0.35,0.09,0.52,0.14c0.18,0.08,0.36,0.14,0.54,0.27c0.18,0.12,0.36,0.24,0.5,0.42c0.16,0.16,0.28,0.35,0.37,0.55
		c0.06,0.12,0.1,0.23,0.14,0.35c0.65-0.17,1.25-0.44,1.65-0.91c0.62-0.74,0.72-1.91,1.19-3.04c0.11-0.28,0.25-0.56,0.4-0.83
		c0.17-0.3,0.28-0.47,0.35-0.66c0.13-0.39,0.07-0.67-0.15-1.01c-0.48-0.67-1.45-1.23-2.39-1.73c-0.48-0.26-0.98-0.5-1.51-0.83
		c0.02-0.01-0.19-0.06-0.44-0.08c-0.24-0.03-0.5-0.05-0.76-0.06c-0.11,0-0.22,0-0.32-0.01c-0.57,0.38-1,0.89-1.26,1.48
		C108.18,48.39,108.09,49.39,108.1,50.39z"/>
	<path class="st0" d="M5.68,73.4c0.15,0.11,0.33,0.2,0.54,0.24c0.19,0.05,0.42,0.07,0.69,0.08c0.51,0.04,1.03,0.06,1.55,0.07
		c2.08,0.05,4.19,0,6.31,0.06c2.12,0.06,4.24,0.14,6.42,0.57l0.82,0.2c0.22,0.06,0.44,0.1,0.68,0.14c0.46,0.07,0.95,0.1,1.44,0.09
		c0.99,0,2.01-0.12,3.05-0.24c1.04-0.12,2.1-0.26,3.21-0.31c1.1-0.03,2.31-0.02,3.55,0.57c0.15,0.09,0.3,0.16,0.45,0.26l0.22,0.15
		l0.17,0.13l0.63,0.5l1.25,0.98c0.83,0.63,1.65,1.24,2.51,1.74c0.85,0.5,1.74,0.88,2.66,1.11c0.94,0.23,1.81,0.3,2.67,0.12
		c0.86-0.17,1.88-0.65,3.02-0.89c1.13-0.26,2.31-0.28,3.39-0.22c2.16,0.13,4.26,0.42,6.36,0.75c2.1,0.34,4.18,0.75,6.26,1.28
		c1.04,0.26,2.07,0.56,3.11,1c0.93,0.41,1.93,0.75,2.92,1.08c3.63,1.18,7.32,2.27,11.01,3.32c0.09-0.01,0.19-0.02,0.28-0.03
		c0.26-0.04,0.62-0.12,0.94-0.18c0.33-0.05,0.66-0.11,0.98-0.15c0.66-0.09,1.31-0.13,1.97-0.18c0.34-0.02,0.69-0.02,1.03-0.03
		c-0.05-0.05-0.11-0.09-0.16-0.14c-0.72-0.72-1.1-1.75-1.1-2.77c0-0.95,0.19-1.97,0.78-2.81c0.36-0.52,0.9-0.91,1.46-1.06
		c-0.06-0.01-0.12-0.02-0.18-0.02c-1.1-0.1-2.2-0.04-3.31,0.08c-1.11,0.13-2.22,0.2-3.32,0.17l-1.64-0.01
		c-0.55,0-1.13-0.04-1.67-0.1c-1.1-0.14-2.19-0.34-3.27-0.61c-0.75-0.2-1.51-0.41-2.25-0.68c-3.01-0.25-6.01-0.71-8.98-1.25
		c-4.52-0.8-9-1.89-13.43-2.83c-0.55-0.1-1.11-0.22-1.62-0.28c-0.54-0.08-1.16-0.13-1.72-0.23c-1.14-0.17-2.27-0.37-3.4-0.57
		c-2.26-0.42-4.5-0.86-6.74-1.36L21.8,68.18c-0.08,0.02-0.12,0.01-0.18,0.02c-0.08,0-0.15,0-0.22,0l-0.41-0.03l-0.8-0.08l-1.57-0.18
		l-3.13-0.36c-2.09-0.19-4.19-0.41-6.25-0.3c-0.51,0.03-1.03,0.09-1.47,0.23c-0.42,0.14-0.82,0.45-1.15,0.81
		c-0.67,0.73-1.16,1.67-1.4,2.65C4.97,71.88,5.05,72.97,5.68,73.4z"/>
	<path class="st0" d="M28.32,48.72l0.25,0c0.84,0,1.67-0.01,2.51-0.02l5.03-0.07c0.84-0.01,1.66-0.05,2.55-0.03
		c0.87,0.03,1.73,0.12,2.58,0.24c1.7,0.23,3.32,0.54,4.93,0.66c0.81,0.06,1.62,0.08,2.42,0.08c0.4-0.01,0.81-0.02,1.21-0.05
		c0.42-0.03,0.78-0.07,1.24-0.09c1.79-0.12,3.48,0.01,5.18,0.17c1.69,0.15,3.37,0.39,5.04,0.64c1.67,0.25,3.33,0.54,4.99,0.82
		c3.31,0.56,6.63,1.27,9.88,1.86c1.6,0.22,3.3,0.32,4.97,0.43c1.67,0.11,3.35,0.21,5.02,0.26c3.35,0.12,6.71,0.16,10.06,0.07
		l10.06-0.32l0.03,0l0.07,0.01c0.45,0.05,0.94,0.03,1.47,0.01c-0.65-0.84-0.99-1.91-1-2.98c0-1.15,0.21-2.38,0.9-3.4
		c0.26-0.4,0.61-0.73,1-0.98c-0.61,0-1.22,0.01-1.83,0.02c-2.18,0.02-4.38,0.13-6.57,0.18c-4.39,0.15-8.79,0.19-13.2,0.28
		c-2.21,0.01-4.41,0.02-6.64-0.07c-0.55-0.03-1.14-0.07-1.68-0.13l-1.63-0.16l-3.29-0.25c-2.2-0.17-4.4-0.32-6.61-0.54
		c-1.1-0.12-2.2-0.26-3.3-0.48c-0.27-0.05-0.55-0.11-0.82-0.19c-0.27-0.07-0.55-0.14-0.82-0.24l-0.41-0.14l-0.36-0.11
		c-0.26-0.06-0.51-0.12-0.78-0.16c-4.31-0.57-8.75-0.49-13.12-0.71c-4.39-0.21-8.78-0.48-13.17-0.77l-3.29-0.24l-1.65-0.13
		l-0.82-0.07l-0.03,0c-0.02,0.05-0.05,0.12-0.07,0.18c-0.31,1.02-0.46,2.17-0.58,3.29c-0.06,0.56-0.09,1.13-0.1,1.69
		c0,0.43,0,0.88,0.08,1.29C28.12,48.62,28.22,48.67,28.32,48.72z"/>
	<path class="st0" d="M28.75,42.01C28.75,42.01,28.75,42.02,28.75,42.01C28.74,42.02,28.75,42.02,28.75,42.01
		C28.76,41.99,28.75,42,28.75,42.01z"/>
</g>
</svg>
