<?xml version="1.0" encoding="utf-8"?>
<!-- Generator: Adobe Illustrator 23.0.0, SVG Export Plug-In . SVG Version: 6.00 Build 0)  -->
<svg version="1.1" id="Layer_1" xmlns="http://www.w3.org/2000/svg" xmlns:xlink="http://www.w3.org/1999/xlink" x="0px" y="0px"
	 viewBox="0 0 128 128" style="enable-background:new 0 0 128 128;" xml:space="preserve">
<style type="text/css">
	.st0{fill:#2D2D2D;}
</style>
<g>
	<path class="st0" d="M77.8,69.4l1.5,1.2c0.5,0.4,1,0.8,1.4,1.2c0.8,0.8,1.7,1.7,2.4,2.7c1.8-0.1,3.5-0.3,5.3-0.4c0.1,0,0.1,0,0.2,0
		c-0.9-0.8-1.7-1.7-2.5-2.5l-1.4-1.4l-0.8-0.9l-0.1,0.2l-0.3,0.4l-0.1,0.1c0,0-0.1,0.1-0.2,0.2c-0.1,0.1-0.3,0.2-0.5,0.3
		c-0.4,0.1-0.8,0-1-0.3c-0.2-0.2-0.2-0.2-0.2-0.2l-0.1-0.2l-0.6-0.7c-0.5-0.6-1-1.2-1.6-1.9l-0.1,0.1L79,67.2c0,0,0,0-0.1,0.2
		c-0.3,0.4-0.8,0.6-1.3,0.5c-0.2,0-0.5-0.2-0.7-0.3l-0.1-0.1l0,0l-0.1-0.1l-0.3-0.4l-0.7-0.7c-0.7-0.7-1.4-1.5-2-2.2
		c-0.6,0.5-1.2,1.1-1.9,1.6c1,0.5,1.9,1.1,2.9,1.6C75.7,67.9,76.8,68.6,77.8,69.4z"/>
	<path class="st0" d="M75.9,79.9c0.5,1.2,1,2.5,1.4,3.7c0.4,1.3,0.7,2.6,1.2,3.8c0.4,0.9,1,1.8,1.6,2.6c0.3-1.1,0.6-2.2,1-3.3
		c0.4-1.3,0.8-2.7,1.2-4c0.4-1.3,0.9-2.6,1.3-4c0.4-1.3,0.9-2.5,1.4-3.8c-3.5,0.4-7,0.9-10.4,1.4L75.9,79.9z"/>
	<path class="st0" d="M76.8,72.4c0.7,0.7,1.3,1.5,1.8,2.4c1.4-0.1,2.7-0.2,4.1-0.3c-1-0.6-1.9-1.2-2.7-1.9c-1-0.8-1.8-1.8-2.7-2.6
		c-0.9-0.8-1.9-1.6-2.9-2.4c-0.9-0.7-1.8-1.3-2.7-1.9c-0.7,0.6-1.4,1.2-2.1,1.8c1.6,0.8,3.2,1.8,4.7,2.9
		C75.1,71,76.1,71.6,76.8,72.4z"/>
	<path class="st0" d="M100.1,80.6c-0.3,0.4-0.6,0.7-1,1l-0.3,0.2l-0.3,0.2c-0.2,0.1-0.3,0.2-0.5,0.4c-0.5,0.5-0.8,1.4-0.7,2.1
		c0.5,0.1,0.9,0.2,1.4,0.3c0.5,0.1,0.9,0.2,1.4,0.2c0.9,0,1.8-0.2,2.7-0.6c0.8-0.4,1.5-0.9,2.2-1.6l1.1-1.1c0.1-0.1,0.2-0.2,0.3-0.3
		c0,0,0,0,0,0c-0.5-0.4-1-0.8-1.5-1.2c-0.1-0.1-0.2-0.2-0.3-0.3c-0.1-0.1-0.2-0.2-0.3-0.3c-0.2-0.2-0.3-0.4-0.4-0.6
		c-0.3-0.4-0.5-0.8-0.8-1.1c-0.2-0.3-0.5-0.6-0.7-0.9c0,0,0,0,0,0c-0.4,0.5-0.8,1-1.1,1.5C101,79,100.6,79.8,100.1,80.6z"/>
	<path class="st0" d="M126.4,101.9c-0.4,0.1-0.8,0.4-1.1,0.7l0,0c-0.1,0-0.1,0.1-0.1,0.1c-0.1,0.1-0.2,0.1-0.2,0.2
		c-0.3,0.2-0.6,0.3-0.8,0.4c-0.5,0.2-1.1,0.3-1.6,0.4c-1,0.2-2.1,0.4-3.1,0.4c-0.7,0-2,0.1-2.9,0.1c-0.6,0-1.1-0.4-1.1-1
		c0,0,0-0.1,0-0.1c0-0.2,0-0.3,0.1-0.5c0.1-0.3,0.3-0.6,0.5-0.7l0.1-0.1l0.1,0c1.3-0.5,2.6-0.8,3.8-1.4c1.2-0.5,2.3-1.4,3.4-2.2
		c0.5-0.4,1.1-0.8,1.6-1.1c0.5-0.3,1.1-0.7,1.5-1.1c0.2-0.2,0.3-0.4,0.4-0.4c0,0,0-0.1,0-0.1c0-0.1,0-0.1,0-0.2c0-0.1,0-0.2-0.1-0.3
		c-0.1-0.2-0.2-0.4-0.5-0.5c-0.2-0.1-0.6-0.2-0.9-0.2h0c0,0,0,0,0,0c-0.4,0.1-0.9,0.4-1.3,0.6c-0.5,0.3-1,0.6-1.4,0.8l-2.9,1.7
		c-1,0.6-1.9,1.1-2.9,1.6c-0.5,0.3-1,0.5-1.5,0.7c-0.5,0.2-1,0.5-1.6,0.7l0,0h0c-1,0.1-2,0.5-2.6,1.2c-0.3,0.3-0.6,0.8-0.8,1.2
		c-0.2,0.5-0.3,0.9-0.2,1.3c0.1,0.4,0.4,0.8,0.7,0.9c0.3,0.2,0.8,0.2,1.3,0.3c0.9,0.1,1.9,0,2.6-0.5l0.2-0.1l0.3,0
		c0.1,0,0.4,0,0.6,0l0.8,0c0.5,0,1.1-0.1,1.6-0.1c1.1-0.1,2.1-0.2,3.2-0.4c1.1-0.1,2.1-0.3,3.2-0.5c1-0.2,2-0.4,3-0.9
		c0.2-0.3,0.4-0.6,0.5-0.9C127.5,101.6,126.9,101.7,126.4,101.9z"/>
	<path class="st0" d="M23,89c-0.3-0.3-0.7-0.6-1.2-0.9c-0.4-0.2-0.9-0.5-1.3-0.6c-0.5-0.2-0.9-0.4-1.4-0.4c-0.4,0-0.9,0.1-1.2,0.4
		c-0.2,0.1-0.3,0.3-0.4,0.4c-0.1,0.2-0.2,0.4-0.3,0.6c-0.2,0.4-0.4,0.9-0.5,1.3c-0.1,0.5-0.2,0.9-0.1,1.4c0,0.2,0.1,0.4,0.3,0.6
		c0.1,0.2,0.3,0.4,0.4,0.7c0.2,0.4,0.4,0.9,0.8,1.2c0.7,0.5,1.7,0.3,2.6,0.1c0.9-0.2,1.8-0.7,2.4-1.2c0.3-0.3,0.6-0.7,0.7-1
		c0-0.1,0-0.2,0-0.3l0-0.4c0-0.2,0-0.5,0-0.7C23.6,89.8,23.3,89.4,23,89z M19.5,92.7c-1.4,0.1-1.3-0.8-1.7-1.4s0.2-2.4,0.8-3.1
		c0,0,0.9,0.2,2.2,0.9c1.3,0.8,1.2,1.3,1.2,1.9C22.1,91.7,20.9,92.6,19.5,92.7z"/>
	<path class="st0" d="M91.9,110.3L91.9,110.3c-0.4-0.3-1-0.5-1.5-0.6c-0.5-0.1-1.1-0.2-1.6-0.2c-0.5,0-1.1,0-1.6,0.1
		c-0.5,0.1-1.1,0.2-1.6,0.3l0,0h0c-1.2,0-2.3,0-3.5,0.1c-1.1,0.1-2.1,0.3-3,0.8v0l0,0.2l0,0.3l-0.1,0.7l-0.2,1.3l-0.3,2.6l-0.4,2.6
		c-0.1,0.9-0.2,1.7-0.3,2.6l0,0.1l0,0c-0.4,1.5-1,3-1.8,4.3c-0.4,0.7-0.9,1.3-1.4,1.9c-0.1,0.1-0.3,0.3-0.4,0.4L74,128l0.1,0
		l0.5-0.1c1.4-0.4,2.8-1,4.1-1.7c1.3-0.7,2.6-1.4,3.9-2.1c1.2-0.8,2.4-1.6,3.4-2.6c0.2-0.2,0.5-0.5,0.7-0.7c0.2-0.3,0.4-0.5,0.6-0.8
		l1.3-1.8c0.8-1.2,1.6-2.4,2.4-3.7c0.7-1.2,1.4-2.5,1.6-3.9C92.4,110.4,92.2,110.4,91.9,110.3L91.9,110.3z"/>
	<path class="st0" d="M34.1,83.3c0.9,0.4,1.8,0.7,2.7,1.2c0.4,0.3,0.9,0.7,1.2,1.1l0.1-0.1c0.6-0.4,1.1-0.8,1.7-1.2
		c0.7-0.5,1.3-0.9,2-1.3c-1-0.3-1.9-0.6-2.8-1c-1.1-0.4-2.2-1.1-3.3-1.6c-1.1-0.5-2.2-1-3.3-1.5c-0.9-0.4-1.9-0.8-2.8-1.2
		c-0.1,0.5-0.3,1-0.3,1.6c-0.1,0.9-0.2,1.7-0.1,2.6C30.8,82.2,32.4,82.7,34.1,83.3z"/>
	<path class="st0" d="M44.1,78c1,0.6,1.9,1.3,2.7,2.1c0.1,0,0.2-0.1,0.3-0.1c1.3-0.6,2.6-1.1,4-1.5c0.1,0,0.2,0,0.3-0.1
		c-1-0.6-1.9-1.2-2.9-1.8c-1.2-0.7-2.4-1.5-3.6-2c-1.3-0.6-2.6-1.1-3.9-1.6c-1-0.4-2-0.8-3-1.2c-1,0.1-2,0.3-2.9,0.6
		c-1,0.3-2,0.8-2.9,1.4c-0.1,0.1-0.2,0.1-0.3,0.2c2.7,0.6,5.3,1.3,8,2.1C41.2,76.7,42.7,77.2,44.1,78z"/>
	<path class="st0" d="M39.5,80.8c0.9,0.5,1.9,1.1,2.7,1.9c1.3-0.8,2.7-1.6,4.1-2.3c-0.9-0.5-1.8-1-2.7-1.5c-1.3-0.7-2.7-1.5-4.1-2
		c-1.4-0.6-2.9-1.1-4.4-1.6c-1.2-0.4-2.3-0.8-3.5-1.2c-0.6,0.5-1.1,1.2-1.5,1.9c-0.2,0.4-0.4,0.9-0.5,1.3c2.2,0.5,4.4,1.2,6.5,2
		C37.2,79.8,38.4,80.2,39.5,80.8z"/>
	<path class="st0" d="M49,75.7c1,0.7,2,1.5,2.8,2.6c1.1-0.3,2.3-0.6,3.4-0.8c0,0,0.1,0,0.1,0l-5-3.8c-0.1-0.1-0.3-0.1-0.4-0.2
		c-0.7-0.4-1.4-0.7-2.1-1.1l-2.1-1.2l-1-0.6c-0.3-0.2-0.6-0.2-0.9-0.2c-0.1,0-0.3,0.1-0.4,0.2c-0.2,0.1-0.3,0.2-0.5,0.3
		c-0.3,0.2-0.6,0.4-0.9,0.6l-0.1,0.1l-0.2,0c-1.1,0-2.1,0-3.1,0c2.2,0.6,4.5,1.3,6.7,2.1C46.5,74.4,47.8,74.9,49,75.7z"/>
	<path class="st0" d="M89.7,103.4L89.7,103.4L89.7,103.4C89.7,103.4,89.7,103.4,89.7,103.4z"/>
	<path class="st0" d="M55.5,77.5c2.9-0.5,5.7-0.9,8.6-1.3c-0.2-0.2-0.5-0.5-0.7-0.7c-0.7-0.6-1.5-1.1-2.2-1.7
		c-0.6,0.4-1.3,0.8-2,1.1c-0.4,0.2-0.7,0.4-1.1,0.5c-0.2,0.1-0.4,0.1-0.6,0.2c-0.1,0-0.2,0-0.4,0.1l-0.3,0c-0.9,0-1.7-0.2-2.4-0.4
		c-1.1-0.3-2.2-0.8-3.3-1.3c0.7,0.4,1.5,0.9,2,1.3C53.9,75.9,54.9,76.8,55.5,77.5z"/>
	<path class="st0" d="M47.9,81.7c-0.3,0.1-0.6,0.3-1,0.4c0.4,0.9,0.7,1.8,1,2.6c0.3,1,0.6,2.1,0.8,3.2c0.2,1.1,0.2,2.2,0.6,3.2
		c0.1,0.3,0.2,0.5,0.4,0.7c0.1,0.2,0.4,0.3,0.4,0.3c0.4-0.1,0.7-0.5,0.9-0.9c0.2-0.5,0.3-1,0.5-1.5c0.1-0.5,0.3-1,0.4-1.5
		c0.3-1,0.4-2.1,0.7-3.2c0.5-1.8,1-3.6,1.6-5.4c-0.9,0.2-1.7,0.4-2.6,0.6C50.4,80.7,49.1,81.2,47.9,81.7z"/>
	<path class="st0" d="M48.4,109.9c-0.6-0.2-1.2-0.4-1.8-0.6c-0.3-0.1-0.7-0.3-1-0.4l-0.8-0.5c-2.1-1.3-4.2-2.6-6.3-3.8
		c-1.1-0.6-2.1-1.2-3.2-1.6c-0.5-0.2-1.1-0.2-1.7-0.3c-0.1,0-0.2,0-0.3,0c-0.7,0.6-1.3,1.3-1.8,2c-0.5,0.9-0.8,1.8-1,2.8
		c0,0.2,0,0.5-0.1,0.7l0,0.8l-0.1,1.6c0,1.1-0.1,2.1-0.2,3.2c-0.1,0.5-0.1,1.1-0.3,1.7c0,0.2-0.1,0.3-0.2,0.5l-0.2,0.3l-0.4,0.7
		c-0.6,0.9-1.2,1.8-1.8,2.7c-0.3,0.4-0.7,0.9-1,1.3c-0.1,0.1-0.2,0.2-0.3,0.3l-0.1,0.1c0,0,0,0,0,0c0,0,0,0,0,0c0,0,0.1,0,0.3,0
		c1.1-0.1,2.1-0.3,3.1-0.6c2.1-0.4,4.1-0.9,6.2-1.4c2-0.5,4-1.1,5.9-1.9c1.9-0.7,3.8-1.5,5.6-2.6c1.7-1,3.2-2.3,4.6-3.7
		c-0.4-0.2-0.9-0.4-1.4-0.6C49.6,110.3,49,110.1,48.4,109.9z"/>
	<path class="st0" d="M66.3,77.6C66.3,77.6,66.2,77.6,66.3,77.6c-2.3,0.3-4.4,0.6-6.6,1c0.5,1,1,2.1,1.4,3.2
		c0.4,1.2,0.8,2.3,1.1,3.5c0.3,1.2,0.4,2.4,0.9,3.5c0.2,0.6,0.5,1.1,0.9,1.5c0.2,0.2,0.4,0.4,0.6,0.5c0.2,0.1,0.3,0,0.4-0.1
		c0.1-0.1,0.2-0.3,0.3-0.6c0-0.1,0.1-0.2,0.1-0.4c0-0.1,0.1-0.3,0.1-0.4c0.1-0.6,0.2-1.1,0.3-1.7c0.1-1.2,0.2-2.4,0.3-3.6
		c0.3-2.2,0.5-4.4,1-6.6C66.8,77.5,66.6,77.5,66.3,77.6C66.4,77.6,66.3,77.6,66.3,77.6C66.3,77.6,66.3,77.6,66.3,77.6z"/>
	<path class="st0" d="M124.7,104.6c-1,0.4-2.1,0.7-3.2,0.9c-1.1,0.2-2.2,0.4-3.2,0.6c-0.5,0.1-1.1,0.1-1.6,0.1c-0.3,0-0.6,0-0.8,0
		c-0.2,0-0.5,0-0.7-0.1c-1,0.5-2.1,0.5-3.2,0.4c-0.3,0-0.5-0.1-0.8-0.2c-0.1,0-0.3-0.1-0.5-0.2c-0.1,0-0.1-0.1-0.2-0.1
		c-0.1,0-0.1-0.1-0.2-0.1c-0.5-0.4-0.9-1-0.9-1.6c0-0.1,0-0.1,0-0.2c0,0,0,0,0,0c-0.9,0.6-1.7,1.2-2.6,1.8c-1.1,0.7-2.1,1.3-3.2,2
		l-0.3,0.2l0,0l-0.4-0.1l-1.4-0.6c-0.1,0-0.2-0.1-0.3-0.1c-0.1,0-0.2-0.1-0.3-0.1c-0.8,0.6-1.6,1.2-2.4,1.8l-0.2,0.2l-0.3,0
		c-0.8,0-1.5-0.1-2.1-0.3c-0.7-0.2-1.3-0.4-1.9-0.6c-0.3-0.1-0.6-0.2-0.9-0.4s-0.6-0.2-0.9-0.4c-0.3-0.1-0.6-0.3-0.9-0.4
		c-0.1-0.1-0.3-0.1-0.5-0.2c-0.1,0-0.1-0.1-0.2-0.1l-0.1-0.1l-0.1,0l-0.1-0.1c-0.1-0.1-0.1-0.1-0.2-0.2c0,0-0.1-0.1-0.1-0.1
		l-0.1-0.1c0-0.1-0.1-0.1-0.1-0.2c0-0.1,0-0.1-0.1-0.2c-0.1-0.2-0.1-0.4-0.1-0.6c0-0.4,0-0.7,0.1-1.1c0-0.2,0.1-0.4,0.1-0.6l0-0.1
		c0,0,0,0,0,0c-0.1-0.2-0.2-0.5-0.3-0.8c-0.6-1.1-1.2-2.3-1.5-3.6c-0.8-2.5-0.6-5.3,0.4-7.8c0.5-1.2,1.2-2.4,2-3.4
		c0.4-0.5,0.9-1,1.4-1.4c0.5-0.4,1-0.8,1.7-1.2l0.3-0.2l0.3,0.1c0.1,0.1,0.3,0.1,0.4,0.1c0.1,0.1,0.3,0.1,0.4,0.1c0,0,0.1,0,0.1,0
		c0.3,0.1,0.6,0.2,0.9,0.3l1.9,0.6c1.3,0.4,2.5,0.8,3.8,1.3c0,0,0,0,0,0c0,0,0.1,0.1,0.1,0.1c0,0-0.1,0.1-0.1,0.1
		c-1.4-0.1-2.7-0.2-4.1-0.4c-0.7-0.1-1.3-0.2-2-0.4c-0.4-0.1-0.8-0.2-1.2-0.3c0,0,0,0,0,0c-0.1,0-0.2-0.1-0.4-0.1
		c-0.4,0.3-0.7,0.6-1.1,0.9c-0.4,0.4-0.9,0.8-1.3,1.3c-0.8,0.9-1.6,1.8-2.3,2.8c-0.7,1-1.1,2.2-1.3,3.4c-0.1,0.6-0.1,1.2,0,1.8
		c0.1,0.6,0.3,1.2,0.5,1.8c0.5,1.2,1.2,2.2,1.9,3.2c0.2,0.3,0.4,0.5,0.6,0.9c0,0.1,0.1,0.2,0.1,0.4c0,0.1,0,0.2,0,0.3l0,0.2
		c0,0.1,0,0.3,0,0.4c0,0.3,0,0.6,0,0.8c0,0.1,0,0.2,0.1,0.3l0,0l0,0c0,0,0.1,0.1,0.2,0.1l0.4,0.2c0.3,0.1,0.5,0.2,0.8,0.3
		c0,0,0,0,0,0c0.6,0.2,1.2,0.4,1.8,0.6c0.6,0.2,1.2,0.3,1.8,0.5c0.5,0.1,1,0.2,1.4,0.2c0.3-0.2,0.7-0.5,1-0.7
		c-0.1-0.2-0.1-0.6,0.3-1.1c0.4-0.9,2.2-0.8,1.8-3c-0.7-3.6-0.1-8.7,0.2-11c0-0.3,0.5-0.3,0.6,0c0.3,1,0.6,2.3,0.5,3.1
		c-0.1,1.4-0.7,4.9,0.6,7.1c0.9,1.6,0.8,3.8,0.6,4.8c0.1,0,0.1,0.1,0.2,0.1c0,0,0,0,0,0c1-0.5,2-0.9,3.1-1.4c1-0.4,2.1-0.9,3.1-1.3
		c0-0.1,0-0.2,0.1-0.4c0.1-0.3,0.2-0.5,0.4-0.8c0.3-0.5,0.6-0.9,1-1.3c0.8-0.7,1.8-1.2,2.8-1.4c0.9-0.5,1.8-1.2,2.8-1.8
		c0.9-0.6,1.9-1.2,2.9-1.7c1-0.5,2-1,3-1.5c0.5-0.2,1-0.4,1.6-0.6c0.3-0.1,0.5-0.2,0.8-0.2c0.1,0,0.3-0.1,0.4-0.1l0.3,0
		c0.1,0,0.1-0.1,0.2-0.1c0,0,0,0,0,0c-1.6-0.9-3.1-1.9-4.6-2.9c-1.5-1-3.1-2-4.6-3c-3.1-2-6.1-4.2-9.1-6.3c-0.1-0.1-0.2-0.1-0.3-0.2
		c-0.1,0.1-0.1,0.3-0.2,0.4c-0.3,0.5-0.5,0.9-0.8,1.3c-0.3,0.4-0.6,0.9-1.1,1.3c-0.4,0.4-0.9,0.7-1.4,1c-1.1,0.5-2.2,0.6-3.3,0.4
		c-0.6-0.1-1.1-0.3-1.6-0.5c-0.5-0.2-0.9-0.4-1.4-0.6l-0.2-0.1l0-0.1c-0.1-1,0.2-1.9,0.7-2.6c0.1-0.2,0.3-0.4,0.4-0.6l0.2-0.3
		l0.2-0.2c0.2-0.3,0.5-0.6,0.7-1c0.4-0.7,0.9-1.5,1.4-2.2c0.4-0.5,0.9-1,1.5-1.3c0,0,0,0,0,0c-0.4-0.4-0.8-0.7-1.3-1
		c-0.5-0.3-1.1-0.6-1.7-0.8c-1.6-0.6-3.5-0.8-5.3-0.7c-1.8,0.1-3.6,0.4-5.4,0.8l0,0h0c-1.1,0.1-2.1,0.2-3.2,0.3
		c0.1,1.4,0,2.8-0.2,4.1c-0.2,1.4-0.5,2.8-0.8,4.2c-0.4,1.4-0.9,2.7-1.4,4c-0.5,1.3-1.2,2.6-2,3.8l-0.4,0.7l0,0l-0.3-0.6
		c-0.7-1.2-1.3-2.4-2-3.5c-0.7-1.2-1.5-2.3-2.1-3.5c-0.3-0.6-0.5-1.2-0.7-1.9c-0.2-0.6-0.4-1.3-0.5-2c-0.2-1.3-0.5-2.6-0.3-3.9
		c0,0,0,0,0,0c-0.8,0.1-1.5,0.2-2.3,0.3c-1.5,0.2-2.9,0.4-4.4,0.6c0.5,2.3,0.6,4.6,0.5,6.9c-0.1,1.2-0.3,2.5-0.6,3.7
		c-0.2,0.6-0.3,1.2-0.6,1.9c-0.1,0.3-0.3,0.6-0.5,0.9c-0.2,0.3-0.4,0.6-0.9,0.8c-0.1,0.1-0.2,0.1-0.3,0.1c-0.1,0-0.2,0-0.4,0
		c-0.1,0-0.2,0-0.3-0.1c0,0,0,0,0,0c0,0-0.1,0-0.1-0.1c0,0-0.1-0.1-0.1-0.1c-0.3-0.2-0.5-0.5-0.7-0.8c-0.4-0.5-0.7-1.1-1-1.7
		c-0.6-1.1-1.3-2.2-1.8-3.3c-0.5-1.2-0.8-2.4-1-3.6c-0.2-1.1-0.3-2.3-0.3-3.5c0,0,0,0,0,0c-1.3,0.2-2.5,0.5-3.7,0.7
		c-0.2,0-0.5,0.1-0.7,0.2c0.1,0.9,0.1,1.7,0.1,2.6c0,1.1-0.2,2.2-0.4,3.3c-0.2,1.1-0.6,2.2-1,3.3c-0.4,1.1-0.9,2.1-1.7,3
		c-0.2,0.2-0.4,0.4-0.7,0.6c-0.3,0.2-0.6,0.3-1,0.3c-0.1,0-0.3-0.1-0.4-0.1c0,0-0.1,0-0.1-0.1c0,0-0.1-0.1-0.1-0.1
		c-0.1-0.1-0.2-0.3-0.3-0.4c-0.2-0.2-0.3-0.5-0.5-0.7c-0.5-1-1.1-2-1.6-3c-0.4-1.1-0.6-2.2-0.7-3.3c-0.1-0.9-0.1-1.8-0.1-2.7
		c0,0,0,0,0,0c-2,0.9-3.9,2-5.7,3.2c-0.6,0.4-1.2,0.7-1.7,1.1l-0.9,0.6l-0.4,0.3c-0.2,0.1-0.3,0.2-0.5,0.3c-0.7,0.4-1.5,0.6-2.3,0.7
		c-0.4,0-0.8,0-1.1,0l-1-0.1c-2.8-0.2-5.5-0.4-8.3-0.7c0,0,0,0-0.1,0l0,0l-4.9-3.3c-1.6-1.1-3.3-2.2-4.9-3.2c0,0,0,0,0,0
		c-1.6-1-3.3-2.1-5-3c-0.9-0.5-1.7-0.9-2.6-1.3c-0.4-0.2-0.7-0.3-1.1-0.5c-0.4-0.1-0.7-0.3-1.1-0.4c-0.7,0.7-1.3,1.5-1.9,2.2
		c-0.2,0.2-0.3,0.5-0.5,0.8c2.2,0.5,4.5,1,6.7,1.6c1.1,0.3,2.3,0.7,3.4,1.3c1,0.6,2,1.3,2.8,2.3c0,0,0,0.1,0,0.1c0,0,0,0-0.1,0l0,0
		c-1.1-0.5-2.1-1-3.2-1.5c-1.1-0.5-2.1-1-3.1-1.4c-1.1-0.4-2.2-0.8-3.3-1.2l-3.2-1.1c-0.4,0.7-0.8,1.3-1.2,2.1
		c-0.2,0.4-0.4,0.9-0.6,1.3c2.5,0.5,5.1,1.1,7.6,1.7c1.3,0.3,2.6,0.7,3.9,1.3c1.2,0.6,2.4,1.4,3.3,2.4c0,0,0,0.1,0,0.1
		c0,0,0,0-0.1,0l0,0c-1.2-0.5-2.4-1.1-3.7-1.6c-1.2-0.5-2.4-1.1-3.7-1.5c-1.3-0.4-2.5-0.8-3.8-1.2l-3.6-1.2
		c-0.2,0.6-0.4,1.2-0.5,1.8c-0.2,1.1-0.2,2.3,0,3.4l0,0v0c0,0,0,0,0,0.1v0c1.4,0,2.7,0,4.1,0.1c1.4,0.1,2.9,0.3,4.3,0.5
		c1.2,0.2,2.5,0.3,3.7,0.7c0.2,0,0.3,0.1,0.5,0.2c0.3,0.1,0.6,0.2,0.9,0.3c0.8,0.3,1.2,0.6,2.2,1.2c0,0,0,0.1,0,0.1c0,0,0,0-0.1,0
		c-1.2-0.1-1.7-0.1-2.6-0.3c0,0,0,0-0.1,0c-0.2,0-0.4-0.1-0.7-0.1c-1.4-0.3-2.7-0.7-4.1-1c-1.4-0.3-2.8-0.6-4.2-0.8
		c-1.3-0.2-2.6-0.4-4-0.6c0.1,1,0.1,2.1,0.2,3.1c0.1,0.5,0.2,1.1,0.3,1.6s0.4,1,0.6,1.4l0.1,0.1l0,0.2c0,1.5,0,2.9-0.1,4.4
		c0,0.4-0.1,0.8-0.1,1.2c0,0.1,0,0.2-0.1,0.3l0,0.2l0,0.1c0,0.1-0.1,0.3-0.1,0.5c-0.1,0.7-0.1,1.4-0.1,2.1c0,0.3,0,0.6,0,0.8v0
		c1.4-0.3,2.8-0.6,4.1-1c1.6-0.4,3.3-0.9,4.8-1.4c1.6-0.5,3.1-1.2,4.7-1.7c1.6-0.6,3.1-1.2,4.5-2c0,0,0,0,0,0c0,0,0,0,0,0
		c0,0,0,0,0,0c0,0,0,0.1,0,0.1c-0.3,0.3-0.6,0.7-0.9,1c-0.3,0.3-0.7,0.6-1,0.8c-0.4,0.2-0.7,0.5-1.1,0.7c-0.4,0.2-0.8,0.4-1.2,0.6
		c-1.6,0.8-3.2,1.2-4.9,1.6c-1.7,0.4-3.3,0.8-5,1c-1.4,0.2-2.8,0.4-4.3,0.6c0,1,0.2,2.1,0.4,3.1c0.3,1.3,0.7,2.5,1.5,3.5
		c0,0,0,0,0,0c1.4-0.8,2.7-1.5,4.1-2.3c1.5-0.8,2.9-1.7,4.4-2.6c1.4-0.9,2.8-1.9,4.3-2.7c1.5-0.9,2.9-1.7,4.4-2.6c0,0,0,0,0,0
		c0,0,0,0,0.1,0c0,0,0,0.1,0,0.1c-1,1.4-2.4,2.5-3.8,3.5c-1.4,1-3,1.8-4.5,2.6c-2.9,1.5-5.8,2.9-8.9,4.2l0,0l0,0.1
		c0.5,0.8,0.9,1.6,1.3,2.5c0.3,0.6,0.6,1.2,0.9,1.8c0,0,0,0,0,0c1.8-0.2,3.6-0.6,5.1-1.3c0.4-0.2,0.9-0.4,1.2-0.7
		c0.2-0.1,0.4-0.3,0.5-0.4c0.2-0.1,0.4-0.4,0.6-0.5l2.3-2.2c1.5-1.5,3.1-2.9,4.7-4.3c0.8-0.7,1.6-1.4,2.4-2.1
		c0.8-0.7,1.6-1.4,2.4-2.1c0,0,0,0,0.1,0c1.2-0.1,2.5-0.1,3.7-0.1c1.2,0,2.5,0,3.7,0c0.6,0,1.2,0,1.9,0.1c0.6,0,1.3,0,2,0.2
		c0.3,0.1,0.6,0.2,0.9,0.3c0.9,0.3,1.7,0.8,2.6,1.2c2.2,1.1,4.4,2.4,6.5,3.6l0.8,0.4c0.2,0.1,0.5,0.2,0.7,0.3
		c0.5,0.2,1.1,0.3,1.7,0.5c0.6,0.2,1.2,0.3,1.8,0.5c0,0,0,0,0,0c0.2,0.1,0.4,0.1,0.6,0.2c0.3,0.1,0.7,0.3,1.1,0.5c0,0,0,0,0,0
		l0.6,0.1l0.8,0.1c0.5,0.1,1.1,0.1,1.6,0.1c1.1,0.1,2.2,0.1,3.3,0.1c2.2,0.1,4.4,0.1,6.6,0.2L72,110l6.5,0.2
		c1.1-0.5,2.3-0.6,3.4-0.7c1.2-0.1,2.4-0.1,3.5-0.1l0.8-0.2l0.8-0.2c0.6-0.1,1.1-0.1,1.7-0.1c0.6,0,1.2,0.1,1.7,0.2
		c0.3,0.1,0.5,0.1,0.8,0.2c0,0,0,0,0,0c0.1,0,0.1,0,0.2,0.1c0.2,0.1,0.4,0.2,0.6,0.3c0,0,0,0,0,0c2.1,0.2,4.2,0.4,6.3,0.5
		c1.1,0.1,2.1,0.1,3.2,0.2c0.5,0,1.1,0,1.5,0c0.5,0,1-0.1,1.5-0.1c2-0.3,4.1-0.8,6.1-1.4c1-0.3,2-0.6,3-0.9c0.5-0.2,1-0.3,1.5-0.5
		c0.2-0.1,0.5-0.2,0.7-0.3c0.2-0.1,0.5-0.2,0.5-0.3l0.2-0.2l0.2,0c1.1-0.1,2.2-0.2,3.2-0.3c1.1-0.2,2.1-0.4,3.1-0.7
		c1-0.3,2-0.7,2.9-1.3c0.4-0.3,0.8-0.6,1.1-0.9c-0.1,0-0.1,0.1-0.2,0.1C126.2,104,125.5,104.3,124.7,104.6z M107.5,88.2
		c0.3-1.3,1.6-2.1,3-1.8c1.4,0.3,2.3,1.6,2,2.9c-0.3,1.3-1.6,2.1-3,1.8C108.1,90.9,107.2,89.6,107.5,88.2z M23.5,93.1
		c-0.8,0.7-1.8,1.1-2.8,1.3c-0.5,0.1-1,0.2-1.5,0.1c-0.5,0-1.1-0.2-1.5-0.6c-0.4-0.4-0.5-0.9-0.7-1.3c-0.1-0.2-0.2-0.4-0.3-0.6
		c-0.1-0.2-0.3-0.5-0.3-0.7c-0.2-1,0-2,0.4-3c0.1-0.2,0.2-0.5,0.3-0.7c0.2-0.2,0.4-0.4,0.6-0.6c0.5-0.3,1.1-0.4,1.6-0.3
		c0.5,0.1,0.9,0.4,1.4,0.6l1.3,0.7c0.4,0.2,0.8,0.5,1.2,0.8c0.4,0.3,0.8,0.7,0.9,1.2c0.1,0.3,0.1,0.5,0.2,0.8l0,0.4
		c0,0.1,0,0.2,0,0.4C24.2,92.3,23.8,92.7,23.5,93.1z M27.6,98.3c-1.7-0.1-1.2,0.5-2.7,0.2s0.2-1.1,1.4-2.1c0,0-0.5-0.4,1.3-0.7
		c1.9-0.3,1.2,0.8,2,1.7C30.5,98.2,29.3,98.4,27.6,98.3z M35.6,96.5c0.2,1-0.2,0.8-0.9,1.5c-0.8,0.6-1.4,0.6-3,0.4
		c-1.6-0.2-0.5-0.3-0.5-1.2c0-0.9,0.3-0.2,1.6-0.9c1.3-0.6,0.5-0.5,0.8-1.8c0,0,0.8,0,2,0.6C36.8,95.7,35.4,95.5,35.6,96.5z
		 M39.1,99.7c-0.7,0.5-1.1,0.1-2.3-0.3c-1.2-0.5-0.7-0.7,0.3-1.9c0,0,0.8-0.5,1.7-0.2c0.9,0.2,0.3,0.3,1.3,1.2
		C41.1,99.3,39.8,99.2,39.1,99.7z M45.5,96.7c-1.6,0.3-1.4,0.3-3.7-0.2c-2.3-0.5-0.5-0.7-0.1-2.3c0.4-1.6,1-0.9,2.8-0.6
		c0,0,0.6,0.3,1.4,0.7c0.8,0.5,0.3,0.2,1.5,1.2C48.5,96.5,47.1,96.3,45.5,96.7z M53.8,100.4c-1.1,0.5-2.9-0.4-4.1-0.2
		c-1.2,0.2-2.1,0.9-2.5-0.3c-0.3-1.1-1.3-1.6,0-1.9c1.3-0.3,2.5,0.3,2.1-0.6c-0.4-0.9-0.7-1.1-0.2-1.5c0.6-0.4,3.3-0.7,4-0.1
		c0.1,0.1-0.6,2.6-0.1,3C53.6,99.4,54.8,99.9,53.8,100.4z M57.2,99.1c-1.4,0.1-1.7-0.1-1.8-0.5c-0.1-0.4-0.3-2-0.3-2
		c0.2-0.3,0.8-0.8,1.4-0.4c0.6,0.4,0.7,0.8,1.1,0.3c0.4-0.4,0.6-1.2,1.1-0.9c0.4,0.3,0.4,0.5,0.8,0.8c0.4,0.3,1.4-0.4,1.6-0.7
		c0.2-0.3,0.3-0.4,0.8-0.5c0.6-0.1,1.3,0,1.4,0.3c0.1,0.3,0.8,0.2,0.7,0.8c-0.1,0.6,0.8,1.1,0.1,1.8c-0.8,0.7,0.3,1.4-1.1,1.2
		c-1.4-0.3-0.6-0.4-1.9-0.6c-1.3-0.3-1.3-0.7-2.1-0.1C58,98.9,58.6,98.9,57.2,99.1z M63.8,104.1c-0.6,0.6-1.1,0.5-1.9,0.4
		c-0.8-0.1-1.5-0.4-2.2-0.9c-0.7-0.6-0.3-0.7,0.6-1.9c0.9-1.2,0.1-1.1,0.7-1.4c0,0,0.4-0.3,1.2-0.4c0.8-0.1,0.4,0.3,2.1,0.9
		c1.6,0.6,0.4,0.4,0.8,1.4C65.5,103.2,64.3,103.5,63.8,104.1z M81.9,106.4c-0.5,0.1-1,0.1-1.6,0.1c-0.3,0-0.6,0-0.9-0.1
		c-0.3,0-0.8-0.2-0.9-0.4c-0.9-0.6-1.6-1.3-2.4-2c-0.8-0.7-1.5-1.4-2.3-2c-0.4-0.3-0.8-0.6-1.2-0.9c-0.4-0.3-0.9-0.5-1.3-0.8
		c-1.7-1.2-3.3-2.6-4.8-4c-0.4-0.4-0.7-0.7-1.1-1.1c-0.2-0.2-0.3-0.4-0.5-0.7c0,0,0-0.1,0-0.1l0-0.1c0,0,0-0.1,0-0.1
		c0,0,0-0.1,0.1-0.1l0,0c0,0,0.1,0,0.1,0c0.1-0.1,0.2,0,0.3-0.1c0.1,0,0.3,0,0.4,0c1.1,0,2.1,0.1,3.1,0.2c2.1,0.2,4.1,0.3,6.2,0.6
		c2.1,0.3,4.1,0.9,6,1.6c1.9,0.7,3.8,1.6,5.6,2.7l-0.1,0.1c-3.8-1.5-7.7-2.5-11.7-3.4c-1-0.2-2-0.4-3-0.6c-1-0.2-2-0.4-3-0.5
		c-1-0.1-2-0.2-3-0.2c-0.1,0-0.2,0-0.3,0c0.1,0.1,0.2,0.3,0.4,0.4c0.4,0.3,0.8,0.7,1.2,1c1.6,1.2,3.3,2.4,4.9,3.6
		c0.4,0.3,0.8,0.5,1.3,0.8c0.5,0.3,0.9,0.6,1.3,0.9c0.8,0.6,1.6,1.3,2.4,2c0.7,0.7,1.5,1.4,2.2,2c0.1,0.1,0.2,0.1,0.2,0.2
		c0,0,0.1,0,0.1,0c0,0,0.1,0,0.1,0c0.2,0.1,0.4,0.1,0.7,0.1c0.5,0,1,0,1.5,0c2-0.1,4-0.5,6.1-0.8l0,0.1C86,105.5,84,106,81.9,106.4z
		"/>
	<path class="st0" d="M69.3,74.5c0.3,0.3,0.6,0.7,0.8,1c0.6-0.1,1.1-0.1,1.7-0.2c0.6-0.1,1.2-0.1,1.8-0.1c-0.4-0.3-0.8-0.6-1.2-0.9
		c-0.7-0.5-1.2-1.1-1.9-1.6c-1.3-0.9-2.6-1.9-3.9-2.9c-0.7,0.6-1.5,1.1-2.2,1.7c1,0.5,2,1.1,3,1.6C68.1,73.5,68.8,73.9,69.3,74.5z"
		/>
	<path class="st0" d="M65.4,75.9C65.4,75.9,65.4,76,65.4,75.9c1.3,0,2.5-0.2,3.7-0.3c-0.2-0.1-0.3-0.2-0.5-0.4c-0.6-0.4-1-1-1.6-1.4
		c-0.9-0.7-1.9-1.4-2.8-2.1c-0.9,0.7-1.8,1.3-2.7,1.9c0.8,0.4,1.6,0.8,2.3,1.2C64.4,75.1,65,75.4,65.4,75.9z"/>
	<path class="st0" d="M73.1,73.6c0.5,0.5,0.9,1,1.2,1.6c1.3-0.1,2.5-0.2,3.8-0.3c-0.8-0.5-1.4-1-2.1-1.5c-0.8-0.7-1.5-1.5-2.3-2.2
		c-0.8-0.7-1.6-1.4-2.5-2.1c-0.6-0.5-1.2-1-1.8-1.4c-0.7,0.6-1.5,1.2-2.2,1.8c-0.1,0.1-0.2,0.2-0.3,0.3c1.4,0.7,2.8,1.5,4.2,2.3
		C71.7,72.4,72.5,72.9,73.1,73.6z"/>
	<path class="st0" d="M33.8,84c-0.8-0.4-1.7-0.8-2.6-1.1c-0.7-0.3-1.4-0.6-2.1-0.9c0,0.2,0,0.3,0,0.5c0.1,0.6,0.1,1.1,0.3,1.6
		c0.2,0.5,0.4,1,0.8,1.4c0.6,0.7,1.3,1.4,2.1,2c0.2,0,0.4,0,0.6,0l1,0c0.4,0,0.7,0,1,0c0.6-0.1,1.2-0.3,1.7-0.6
		c0.1-0.1,0.2-0.2,0.4-0.3l0.4-0.3l0.1-0.1c-0.4-0.2-0.8-0.4-1.2-0.7C35.4,85,34.6,84.4,33.8,84z"/>
</g>
</svg>
