<?xml version="1.0" encoding="utf-8"?>
<!-- Generator: Adobe Illustrator 18.1.0, SVG Export Plug-In . SVG Version: 6.00 Build 0)  -->
<svg version="1.1" baseProfile="tiny" id="Layer_1" xmlns="http://www.w3.org/2000/svg" xmlns:xlink="http://www.w3.org/1999/xlink"
	 x="0px" y="0px" viewBox="0 0 128 128" xml:space="preserve">
<g>
	<path fill="#2D2D2D" d="M15.5,105.7c1.8,2.1,3.8,4.2,5.9,6l11.1-7.8L15.5,105.7z"/>
	<path fill="#2D2D2D" d="M89.5,63.5l-59.4-10L0.1,60.6C0,61.7,0,62.9,0,64c0,3.2,0.2,6.4,0.7,9.5l83.5-6.3L89.5,63.5z"/>
	<path fill="#2D2D2D" d="M66.3,77.1l-62.7,8c1.5,4.2,3.4,8.3,5.7,12L47.9,93L66.3,77.1z"/>
	<path fill="#2D2D2D" d="M2.9,44.9c-0.6,1.8-1,3.7-1.4,5.5L12.3,47L2.9,44.9z"/>
	<path fill="#2D2D2D" d="M107.2,16.9C95.8,6.4,80.7,0,64,0C49.2,0,35.6,5.1,24.7,13.5l72,6.7L107.2,16.9z"/>
	<path fill="#2D2D2D" d="M69.9,29.8l-56-5.5C10.9,28,8.4,32,6.3,36.4l26.7,2L69.9,29.8z"/>
	<path fill="#2D2D2D" d="M41.4,109.3l66.1,1.6c5.1-4.7,9.4-10.2,12.7-16.3l-66.5,8.2L41.4,109.3z"/>
	<path fill="#2D2D2D" d="M110.7,60.8l15-14c-0.5-1.8-1-3.5-1.7-5.2l-22.6,13l-62.1-8.8l53.1-14.2l26.7,0.1
		c-2.9-4.8-6.3-9.3-10.3-13.2L97,22.3l-74.5-6.9c-2.5,2.2-4.9,4.5-7.1,7.1L82.4,29L33.1,40.4L5.4,38.3c-0.7,1.5-1.3,3.1-1.8,4.7
		l16.6,3.7L1,52.7c-0.3,1.9-0.6,3.8-0.8,5.7l29.8-7.1l0.2,0l64.4,10.9l-9.8,6.9l-0.3,0L1.1,75.5c0.5,2.6,1.1,5.1,1.9,7.6l69.8-8.9
		L48.7,95l-0.3,0l-37.9,4c1.1,1.7,2.3,3.3,3.5,4.8l26.1-2.8l-17,12c3,2.5,6.2,4.7,9.6,6.6l3.7-3.6l61.3,2.3c0,0,0.1,0,0.1,0
		c2.7-1.7,5.2-3.5,7.6-5.6l-67.6-1.6c-0.6,0-1-0.5-1-1c0,0,0-0.1,0-0.1c0-0.3,0.2-0.7,0.5-0.9l15.8-8.5l0.2,0l68.1-8.3
		c0.9-1.7,1.7-3.5,2.4-5.4l-65,6.9L102.6,66l25.1,3.4c0.1-1.7,0.2-3.5,0.2-5.3L110.7,60.8z"/>
	<path fill="#2D2D2D" d="M49.5,45.1l51.5,7.3l22.2-12.8c-0.8-2-1.8-4-2.8-6l-27.6-0.1L49.5,45.1z"/>
	<path fill="#2D2D2D" d="M34.4,120.7c8.8,4.6,18.9,7.3,29.6,7.3c11,0,21.4-2.8,30.4-7.7l-57.4-2.1L34.4,120.7z"/>
	<path fill="#2D2D2D" d="M67.1,91l57.4-6.1c1.5-4.3,2.5-8.7,3.1-13.4l-24.5-3.4L67.1,91z"/>
	<path fill="#2D2D2D" d="M128,62.1c-0.1-4.5-0.7-8.9-1.7-13.1L115,59.6L128,62.1z"/>
</g>
</svg>
