<?xml version="1.0" encoding="utf-8"?>
<!-- Generator: Adobe Illustrator 24.1.2, SVG Export Plug-In . SVG Version: 6.00 Build 0)  -->
<svg version="1.1" id="Layer_1" xmlns="http://www.w3.org/2000/svg" xmlns:xlink="http://www.w3.org/1999/xlink" x="0px" y="0px"
	 viewBox="0 0 128 128" style="enable-background:new 0 0 128 128;" xml:space="preserve">
<style type="text/css">
	.st0{fill:#2D2D2D;}
</style>
<g>
	<path class="st0" d="M127.57,66.85c-0.37-0.33-1.01-0.39-1.63-0.34c-0.63,0.05-1.26,0.2-1.9,0.37c-1.26,0.35-2.52,0.8-3.77,1.25
		l-0.06,0.02l-0.06,0c-1.67-0.07-3.27-0.37-4.87-0.68c-1.6-0.33-3.19-0.67-4.78-1.04c-3.17-0.75-6.33-1.53-9.49-2.32l-4.74-1.14
		c-0.79-0.18-1.58-0.36-2.37-0.52c-0.8-0.17-1.51-0.25-2.3-0.23c-1.56,0.05-3.16,0.3-4.75,0.57l-4.8,0.86
		c-0.81,0.13-1.62,0.27-2.44,0.36c-0.82,0.1-1.68,0.15-2.45,0.22c-1.6,0.14-3.2,0.33-4.81,0.52c-3.21,0.4-6.43,0.84-9.68,1.18
		l-2.44,0.24c-0.77,0.08-1.55,0.19-2.33,0.34c-1.56,0.3-3.12,0.69-4.67,1.13c-1.55,0.44-3.09,0.93-4.61,1.46
		c-1.51,0.53-3.03,1.06-4.48,1.67c-1.39,1-2.81,1.99-4.29,2.88c-1.49,0.9-3.05,1.72-4.71,2.31c-0.88,0.51-1.7,1.19-2.43,1.97
		c-0.75,0.78-1.42,1.64-2.06,2.53c-0.63,0.89-1.22,1.82-1.77,2.78c-0.5,0.86-0.98,1.74-1.42,2.63c0.25,0.15,0.49,0.32,0.74,0.51
		c0.03,0.02,0.04,0.07,0.01,0.1c-0.01,0.01-0.03,0.02-0.04,0.03c-0.64,0.14-1.26,0.08-1.86-0.06c-0.6-0.15-1.19-0.39-1.65-0.88
		c-0.08-0.07-0.07-0.08-0.1-0.11c-0.03-0.03-0.06-0.05-0.09-0.06c-0.07-0.03-0.16-0.03-0.25,0c-0.05,0.02-0.08,0.04-0.12,0.09
		c-0.05,0.05-0.09,0.11-0.14,0.17c-0.09,0.11-0.17,0.23-0.25,0.36c-0.3,0.51-0.5,1.07-0.64,1.65c-0.07,0.29-0.13,0.58-0.19,0.86
		l-0.03,0.14c0.46,0.16,0.94,0.3,1.39,0.47c0.93,0.34,1.79,0.75,2.75,1.03c0.07,0.02,0.15,0.04,0.2,0.06
		c0.09,0.02,0.17,0.05,0.26,0.08l0.01,0c0.04,0.01,0.06,0.05,0.05,0.08c0,0.02-0.02,0.03-0.03,0.04c-0.1,0.06-0.21,0.1-0.32,0.15
		c-0.05,0.85,0,1.72,0.17,2.54c0.24,1,0.5,2.07,0.95,2.97c0.23,0.44,0.53,0.83,0.91,1.1c0.19,0.13,0.4,0.24,0.62,0.31
		c0.11,0.04,0.22,0.08,0.34,0.1l0.39,0.09c0.59,0.15,1.08,0.46,1.52,0.79c0.44,0.33,0.85,0.69,1.23,1.06
		c0.77,0.73,1.51,1.47,2.31,2.08c0.4,0.31,0.81,0.57,1.24,0.77c0.4,0.18,0.95,0.35,1.44,0.55c1,0.39,1.96,0.86,2.9,1.28
		c0.94,0.42,1.89,0.8,2.86,1.12c1.96,0.62,3.97,1.19,5.98,1.69l3.05,0.73c0.99,0.26,1.87,0.34,2.85,0.26
		c0.48-0.04,0.98-0.11,1.5-0.19c0.53-0.07,1.08-0.17,1.79-0.09l0.41,0.06c0.09,0.02,0.23,0.02,0.34,0.04
		c0.24,0.02,0.49,0.03,0.74,0.04c0.5,0.02,1.02,0.02,1.53,0.01c1.03-0.01,2.06-0.05,3.08-0.13c0.99-0.07,2.03-0.15,2.88-0.35
		c0.45-0.22,0.94-0.41,1.44-0.5c0.56-0.11,1.12-0.12,1.63-0.09c1.02,0.06,1.85,0.17,2.62,0.04l0.15-0.02l0.17,0.03
		c0.84,0.14,1.82-0.07,2.77-0.44c0.96-0.38,1.9-0.89,2.82-1.48l0.06-0.04l0.05-0.02c0.8-0.37,1.53-0.59,2.27-0.81
		c0.74-0.22,1.47-0.42,2.2-0.61l2.17-0.56c0.71-0.19,1.45-0.38,2.07-0.59l0.06-0.02l0.03-0.01c1.17-0.31,2.39-0.75,3.58-1.21
		c1.19-0.46,2.38-0.97,3.55-1.49c1.17-0.53,2.33-1.08,3.46-1.68c1.13-0.59,2.25-1.22,3.25-1.92l0.11-0.07l0.11-0.04
		c0.96-0.38,1.96-1.24,2.84-2.14c0.89-0.91,1.72-1.92,2.52-2.96c1.6-2.08,3.06-4.29,4.45-6.55l0.1-0.17l0.16-0.1
		c0.49-0.3,1-0.73,1.5-1.17c0.49-0.45,0.98-0.92,1.46-1.4c0.96-0.96,1.91-1.95,2.84-2.95l2.77-3.05c0.93-1.02,1.82-2.05,2.8-3.07
		l0.1-0.11l0.14-0.03c1.14-0.26,2.19-1.08,2.87-2.11c0.34-0.52,0.59-1.1,0.67-1.69C128.06,67.79,127.93,67.16,127.57,66.85z
		 M122.6,70.51C122.6,70.52,122.6,70.52,122.6,70.51c-0.11,0.39-0.36,0.6-0.56,0.88c-0.21,0.26-0.44,0.51-0.66,0.76
		c-0.45,0.5-0.91,0.98-1.37,1.47l-2.76,2.9c-0.9,0.97-1.82,1.96-2.58,3.01c-0.71,1.1-1.48,2.24-2.26,3.33
		c-0.78,1.09-1.57,2.18-2.4,3.24c-0.82,1.05-1.66,2.15-2.67,3.08c-0.97,0.93-1.96,1.82-2.94,2.72c-0.96,0.9-1.96,1.82-2.76,2.78
		l-0.05,0.06l-0.05,0.03c-0.82,0.57-1.61,0.98-2.43,1.43c-0.81,0.43-1.63,0.85-2.46,1.25c-1.65,0.81-3.32,1.57-5.03,2.26
		c-0.86,0.34-1.72,0.67-2.61,0.94c-0.44,0.15-0.9,0.26-1.35,0.38c-0.47,0.1-0.95,0.2-1.38,0.27c-1.77,0.31-3.55,0.69-5.33,1.07
		c-1.78,0.39-3.56,0.74-5.36,1.08c-0.9,0.17-1.8,0.33-2.71,0.45c-0.94,0.12-1.82,0.16-2.73,0.27c-3.61,0.37-7.26,0.8-10.93,0.52
		c-1.38,0.01-2.73-0.07-4.09-0.1c-0.68-0.02-1.36-0.04-2.04-0.04c-0.68,0-1.36,0.01-2.02,0.09l-0.04,0l-0.04-0.01
		c-2.63-0.56-5.34-0.81-8-1.49c-0.67-0.17-1.32-0.46-1.93-0.72c-0.62-0.27-1.24-0.56-1.86-0.85c-1.23-0.6-2.44-1.22-3.62-1.95
		c-1.18-0.74-2.21-1.67-3.18-2.68c-0.47-0.51-0.93-1.05-1.3-1.69c-0.18-0.31-0.34-0.71-0.39-1.09c-0.06-0.38-0.06-0.74-0.05-1.1
		c0.02-0.72,0.12-1.42,0.25-2.12c0.07-0.35,0.14-0.69,0.23-1.04c0.08-0.31,0.12-0.6,0.11-0.91c-0.01-0.62-0.21-1.22-0.43-1.89
		c-0.12-0.34-0.2-0.75-0.22-1.12c-0.02-0.36-0.01-0.7,0.04-1.07c0-0.93,0.13-1.79,0.39-2.66c0.27-0.86,0.68-1.71,1.29-2.42
		c0.61-0.67,1.16-1.25,1.84-1.86c0.7-0.61,1.49-1.02,2.22-1.42c1.48-0.75,2.79-1.72,4.16-2.71c1.36-0.99,2.7-2.03,4.24-2.89
		l0.03-0.02l0.04-0.02c3.16-1.2,6.41-2.07,9.73-2.63c3.31-0.55,6.65-0.91,10.09-0.61c1.68,0.23,3.21,0.47,4.69,0.02
		c0.75-0.22,1.61-0.49,2.41-0.67c0.78-0.2,1.56-0.45,2.34-0.71c1.56-0.53,3.12-1.12,4.74-1.61c0.81-0.25,1.67-0.45,2.5-0.58
		c0.84-0.13,1.67-0.23,2.5-0.32c1.66-0.17,3.33-0.3,5-0.37c1.66-0.06,3.37-0.1,5.06,0.13c1.68,0.21,3.33,0.55,4.95,1.02
		c1.6,0.49,3.26,1.06,4.65,2.13c1.25,0.93,2.9,1.25,4.5,1.26c0.82,0.01,1.59-0.08,2.46-0.18c0.91-0.02,1.72,0.21,2.53,0.41
		c0.81,0.21,1.61,0.44,2.41,0.63c0.81,0.18,1.59,0.34,2.42,0.23c0.84-0.04,1.69,0.03,2.51,0.21c0.41,0.09,0.82,0.21,1.2,0.38
		c0.38,0.17,0.76,0.39,1,0.77C122.6,70.47,122.61,70.49,122.6,70.51C122.6,70.51,122.6,70.51,122.6,70.51z"/>
	<path class="st0" d="M1.66,81.22c0,0.27,0,0.52,0.01,0.7c0.01,0.09,0.02,0.15,0.03,0.2c0.02,0.05,0.01,0.08,0.09,0.16
		c0.18,0.2,0.48,0.32,0.85,0.32c0.02-0.05,0.04-0.1,0.06-0.15c0.16-0.4,0.33-0.79,0.52-1.17c0.39-0.75,0.88-1.44,1.38-2.13
		c0.26-0.34,0.52-0.67,0.81-0.99c0.23-0.24,0.42-0.47,0.68-0.69c-0.25-0.07-0.5-0.13-0.77-0.18c-0.03,0.01-2.7-1.82-3.49-3.26
		c-0.14-0.26-0.25-0.55-0.33-0.85c-0.09,0.17-0.18,0.34-0.27,0.5c-0.26,0.45-0.45,0.9-0.73,1.31C0.25,75.4-0.04,75.89,0,76.43
		c0.03,0.54,0.31,0.99,0.68,1.4C1.43,78.78,1.66,80.14,1.66,81.22z"/>
	<path class="st0" d="M3.68,75.57c0.43,0.46,1.32,1.23,1.6,1.47c0.06,0.05,0.13,0.06,0.2,0.03c0.65-0.26,1.39-0.29,2.08-0.15
		c0.84,0.18,1.63,0.6,2.27,1.2c0.64,0.6,1.13,1.39,1.33,2.26c0.2,0.86,0.11,1.78-0.29,2.52c-0.07-0.42-0.16-0.81-0.26-1.17
		c-0.42,0.51-0.8,1.01-1.09,1.54c-0.18,0.33-0.3,0.68-0.29,0.93c0,0.02,0.01,0.21-0.01,0.35c-0.01,0.14-0.03,0.28-0.06,0.41
		c-0.07,0.27-0.17,0.52-0.3,0.75c-0.26,0.47-0.66,0.86-1.13,1.11c-0.23,0.13-0.48,0.21-0.73,0.28c0,0-0.01,0-0.01,0
		c0.93,1.56,2.06,3.02,3.48,3.73c0.39,0.2,0.74,0.33,1.24,0.47c0.47,0.14,0.94,0.3,1.41,0.41c0.95,0.23,1.92,0.39,2.89,0.55
		l0.73,0.12c0.26,0.05,0.5,0.1,0.74,0.16c0.48,0.12,0.93,0.26,1.39,0.39c0.91,0.25,1.82,0.43,2.72,0.54c0.9,0.13,1.8,0.14,2.7,0.03
		c0.87-0.11,1.73-0.37,2.61-0.73c-0.07-0.71-0.07-1.42,0.02-2.12c-0.43,0.12-0.88,0.15-1.3,0.14c-0.63-0.03-1.24-0.14-1.82-0.33
		c-0.59-0.2-1.12-0.48-1.67-0.79l-0.13-0.08l-0.05-0.03l-0.02-0.02l-0.04-0.03c-0.04-0.03-0.09-0.08-0.12-0.13
		c-0.03-0.05-0.06-0.11-0.08-0.16c-0.02-0.06-0.01-0.04-0.02-0.07c-0.01-0.03-0.01-0.06-0.01-0.09c0-0.08,0-0.08,0-0.11
		c0.02-0.18,0.06-0.24,0.09-0.34c0.06-0.17,0.13-0.31,0.2-0.45c0.15-0.28,0.31-0.54,0.47-0.81c0.34-0.52,0.65-1.03,0.95-1.56
		l0.22-0.4l0.11-0.2c0.04-0.08,0.11-0.17,0.18-0.24c0.15-0.15,0.36-0.24,0.58-0.27c0.11-0.01,0.23-0.01,0.34,0.02
		c0.11,0.02,0.24,0.09,0.29,0.1c0.55,0.12,1.05,0.35,1.56,0.61c0.2,0.1,0.4,0.21,0.6,0.33c0.79-1.91,1.72-3.76,2.82-5.52
		c-0.74,0.43-1.54,0.76-2.34,1.02c-0.76,0.28-1.55,0.4-2.34,0.58c-0.79,0.11-1.58,0.22-2.38,0.26c-1.59,0.08-3.17,0.05-4.74-0.14
		c-1.57-0.18-3.13-0.47-4.63-0.97l4.68-0.05c1.55-0.02,3.09-0.04,4.62-0.15c1.53-0.08,3.05-0.23,4.54-0.52
		c1.07-0.21,2.13-0.48,3.16-0.89c0.46-0.68,0.94-1.35,1.48-1.97c0.73-0.85,1.56-1.65,2.55-2.27l0.02-0.02l0.05-0.02
		c1.57-0.61,3.06-1.47,4.49-2.4c1.44-0.94,2.81-1.97,4.18-3.04l0.05-0.04l0.07-0.03c3.03-1.38,6.09-2.48,9.23-3.46
		c1.57-0.48,3.16-0.92,4.79-1.25c0.34-0.07,0.68-0.13,1.02-0.18c1.02-0.58,2.03-1.17,3.02-1.79c1.69-1.07,3.33-2.19,4.91-3.41
		c1.6-1.19,3.08-2.52,4.53-3.9c1.47-1.37,2.75-2.91,4.11-4.45c-0.91,1.84-2.01,3.62-3.38,5.16c-0.54,0.69-1.18,1.27-1.78,1.9
		c-0.11,0.12-0.23,0.23-0.35,0.34l-1.15,1.03c-0.39,0.34-0.8,0.65-1.2,0.97c-1.64,1.24-3.37,2.35-5.2,3.26
		C61.7,64,61.27,64.2,60.83,64.4l1.66-0.18l9.67-1.21c0.67-0.08,1.34-0.15,2.02-0.22c0.23-0.26,0.46-0.53,0.68-0.81
		c0.51-0.63,0.99-1.29,1.43-1.98c0.83-1.28,1.63-2.63,2.17-3.99c0.13-0.35,0.15-0.57,0.24-1.07c0.09-0.42,0.21-0.8,0.34-1.18
		c0.26-0.76,0.55-1.49,0.83-2.21l0.86-2.16l0.4-1.07l0.25-0.6l0.27-0.55c1.47-2.83,3.12-5.44,4.78-8.08
		c0.83-1.32,1.68-2.61,2.55-3.91c0.45-0.67,0.85-1.24,1.11-1.83c0.13-0.29,0.21-0.56,0.22-0.77c0.01-0.21-0.03-0.31-0.11-0.44
		c-0.01-0.02-0.03-0.04-0.05-0.07c-0.04-0.01-0.11-0.04-0.21-0.05c-0.26-0.04-0.6-0.04-0.95-0.03c-0.69,0.03-1.42,0.13-2.15,0.25
		c-1.45,0.25-2.93,0.59-4.34,0.99c-0.36,0.1-0.62,0.21-1.1,0.36c-0.22,0.07-0.46,0.12-0.72,0.15c-0.26,0.03-0.55,0.02-0.76,0
		c-0.67-0.1-0.99,0.07-1.93,0.33c-1.61,0.38-3.13,0.53-4.68,0.68c-1.54,0.14-3.08,0.24-4.63,0.27c-1.57,0.02-3.06-0.04-4.59,0
		c-1.52,0.02-3.06,0.06-4.61-0.01l-1.16-0.06c-0.38-0.02-0.71-0.03-1.08-0.02c-0.72,0.03-1.46,0.13-2.19,0.27
		c-1.47,0.29-2.93,0.71-4.39,1.15c-1.45,0.45-2.94,0.9-4.37,1.37c-2.85,1.05-5.64,2.35-8.4,3.66c-2.76,1.32-5.49,2.74-8.19,4.19
		c-1.35,0.72-2.7,1.46-4.03,2.2c-1.34,0.75-2.64,1.49-3.89,2.34c-2.53,1.69-5.01,3.49-7.42,5.34c-1.2,0.93-2.38,1.9-3.48,2.92
		c-0.55,0.51-1.09,1.03-1.57,1.58c-0.23,0.27-0.47,0.55-0.65,0.83l-0.63,0.96c-1.67,2.59-3.35,5.19-4.76,7.91
		c-0.35,0.68-0.67,1.37-0.92,2.07c-0.23,0.61-0.17,1.33,0.11,1.99C2.72,74.4,3.17,75.02,3.68,75.57z M75.62,41.22
		c1.36-0.98,2.76-1.92,4.15-2.85c1.41-0.92,2.81-1.83,4.26-2.69c1.45-0.85,2.9-1.72,4.47-2.38c-1.28,1.12-2.57,2.21-3.92,3.23
		c-1.34,1.03-2.72,2-4.11,2.94c-1.41,0.92-2.84,1.82-4.32,2.63c-1.48,0.81-3,1.58-4.61,2.12C72.9,43.18,74.25,42.19,75.62,41.22z
		 M15.47,86.89c0.74,0.38,1.48,0.72,2.25,1.05c0.77,0.32,1.56,0.57,2.41,0.87c-0.86,0.25-1.79,0.27-2.68,0.12
		c-0.89-0.16-1.76-0.45-2.56-0.86c-0.8-0.41-1.54-0.93-2.21-1.52c-0.67-0.59-1.28-1.27-1.73-2.07c0.81,0.4,1.56,0.82,2.3,1.23
		C13.99,86.12,14.73,86.51,15.47,86.89z M29.96,66.11c-2.06,1.17-4.06,2.46-6.01,3.81c-1.97,1.33-3.9,2.73-5.84,4.14
		c-1.94,1.4-3.84,2.87-5.87,4.18c1.69-1.72,3.41-3.42,5.26-4.99c1.82-1.58,3.75-3.05,5.74-4.42c1-0.69,2.03-1.32,3.06-1.95
		c1.06-0.58,2.11-1.2,3.22-1.68c2.19-1.01,4.51-1.86,6.91-2.08C34.13,63.86,32.02,64.95,29.96,66.11z M18.37,61.83
		c0.42-0.52,0.85-1.02,1.28-1.53c0.43-0.51,0.9-0.99,1.35-1.48c0.46-0.48,0.95-0.94,1.43-1.42c0.52-0.44,1-0.9,1.56-1.3l0.85-0.59
		c0.28-0.19,0.56-0.34,0.84-0.52l1.68-1.01l3.37-2.03c4.53-2.65,9-5.39,13.86-7.52c4.97-1.8,9.93-3.33,14.93-4.88
		c-2.41,1.03-4.85,1.97-7.27,2.96l-3.65,1.43c-1.2,0.49-2.47,0.91-3.62,1.44c-2.32,1.1-4.6,2.4-6.85,3.72
		c-2.26,1.31-4.51,2.65-6.75,4l-3.38,2.01c-1.1,0.67-2.32,1.32-3.3,2.03c-0.52,0.35-0.99,0.79-1.49,1.19
		c-0.47,0.45-0.95,0.88-1.41,1.33c-0.91,0.93-1.8,1.89-2.66,2.87c-1.72,1.98-3.36,4.04-4.96,6.13c-1.62,2.08-3.15,4.23-4.7,6.38
		C12.13,70.42,15.03,65.96,18.37,61.83z"/>
	<path class="st0" d="M79,72.61c0.17,0.19,0.33,0.38,0.47,0.55l0.87,1.1c0.13,0.17,0.25,0.34,0.38,0.51
		c0.39-0.31,0.94-0.71,1.26-0.92c-0.43-0.32-0.75-0.77-0.97-1.27c-0.11-0.25-0.2-0.51-0.26-0.78c-0.04-0.13-0.05-0.27-0.08-0.41
		c-0.01-0.06-0.01-0.17,0-0.26c0.02-0.08,0.04-0.17,0.07-0.25c0.27-0.61,0.74-0.92,1.18-1.24c0.11-0.07,0.22-0.13,0.33-0.19
		c0,0,0,0,0,0c-0.52-0.54-0.98-1.09-1.47-1.56c-0.26-0.25-0.45-0.45-0.7-0.5c-0.25-0.06-0.57,0-0.88,0.14
		c-0.31,0.14-0.6,0.38-0.79,0.68c-0.19,0.31-0.33,0.67-0.51,0.99c-0.38,0.61-0.81,1.16-1.31,1.71c0.65,0.33,1.29,0.71,1.87,1.2
		C78.65,72.26,78.82,72.44,79,72.61z"/>
	<path class="st0" d="M61.13,88.11c-0.42,0.34-0.87,0.67-1.47,0.79c-0.32,0.07-0.72-0.02-0.97-0.17c-0.27-0.15-0.5-0.33-0.71-0.53
		c-0.42-0.4-0.76-0.86-1.04-1.36c-0.18-0.33-0.32-0.69-0.39-1.06c-0.21,0.48-0.42,0.97-0.64,1.44c-0.3,0.65-0.61,1.29-0.96,1.92
		c-0.18,0.31-0.36,0.62-0.59,0.91c-0.06,0.07-0.12,0.14-0.22,0.21c-0.13,0.08-0.19,0.08-0.29,0.11c-0.17,0.05-0.35,0.09-0.53,0.12
		c-0.36,0.07-0.72,0.11-1.11,0.06c-0.19-0.03-0.39-0.08-0.57-0.21c0,0,0,0,0,0c-0.4,0.31-0.64,0.63-0.92,0.97
		c-0.29,0.32-0.57,0.67-0.91,1.02c-0.16,0.18-0.31,0.37-0.39,0.59c-0.08,0.22-0.08,0.48-0.14,0.71c-0.12,0.41-0.32,0.79-0.62,1.15
		c0.1,0.13,0.19,0.27,0.27,0.44c0.06,0.14,0.1,0.3,0.09,0.48c-0.01,0.09-0.03,0.16-0.04,0.24c0.38,0.61,0.74,1.2,1.12,1.73
		c0.19,0.28,0.39,0.59,0.71,0.75c0.05,0.02,0.1,0.04,0.14,0.05c0.17,0,0.34,0,0.51,0c0.06,0,0.11,0.01,0.17,0.02
		c0.06-0.02,0.12-0.03,0.19-0.05c0.66-0.25,1.28-0.57,1.91-0.92c0.5-0.25,1.01-0.52,1.54-0.77c0.02-0.06,0.04-0.12,0.07-0.19
		c0.23-0.57,0.57-1,0.92-1.42c0.7-0.83,1.48-1.55,2.32-2.21l0.03-0.03l0.02-0.01c0.31-0.1,0.61-0.14,0.9-0.15
		c0.07-0.6,0.11-1.15-0.09-1.54c-0.17-0.44-0.65-0.77-1.18-1.07c-0.27-0.14-0.57-0.24-0.88-0.26c-0.31-0.02-0.62,0.06-0.93,0.08
		c-0.61,0.03-1.21-0.02-1.85-0.18c-0.02,0-0.03-0.02-0.03-0.04c0-0.01,0.01-0.02,0.02-0.02c0.6-0.29,1.25-0.37,1.88-0.3
		c0.32,0.05,0.62,0.19,0.93,0.25c0.31,0.07,0.62,0.09,0.95,0.13c0.33,0.04,0.66,0.12,0.97,0.31c0.31,0.18,0.6,0.46,0.75,0.83
		c0.14,0.38,0.12,0.78,0.02,1.11c-0.08,0.27-0.21,0.5-0.37,0.7c0.27,0.01,0.54,0.04,0.81,0.08c0.21,0.05,0.42,0.1,0.63,0.16
		c-0.18-0.46-0.24-0.93-0.21-1.4c0.03-0.26,0.12-0.52,0.16-0.78c0.03-0.26,0.01-0.52-0.04-0.78c-0.12-0.51-0.13-1.09-0.01-1.61
		C61.06,88.33,61.1,88.22,61.13,88.11z"/>
	<path class="st0" d="M61.84,86.35c0.16-0.22,0.3-0.41,0.39-0.64c0.11-0.23,0.19-0.48,0.27-0.74c0.31-1.03,0.5-2.13,0.78-3.21
		c0.07-0.28,0.15-0.52,0.16-0.79c0.02-0.27,0-0.54-0.03-0.81c-0.06-0.54-0.17-1.09-0.34-1.61c-0.17-0.52-0.38-1.03-0.65-1.49
		c-0.07-0.11-0.14-0.22-0.21-0.31c-0.07-0.08-0.15-0.15-0.25-0.2c-0.2-0.1-0.43-0.14-0.68-0.16c-0.49-0.02-1.03,0.06-1.55,0.12
		c-0.12,0.02-0.37,0.2-0.56,0.36c-0.2,0.17-0.4,0.35-0.59,0.54c-0.73,0.71-1.41,1.48-2.11,2.24c0.45,1.09,0.75,2.25,0.77,3.45
		c0,0.37-0.04,0.75-0.12,1.12c-0.07,0.38-0.23,0.72-0.36,1.04c-0.04,0.1-0.09,0.2-0.13,0.3c0.12,0.4,0.34,0.76,0.57,1.1
		c0.31,0.43,0.69,0.82,1.09,1.14c0.41,0.31,0.86,0.6,1.24,0.47c0.42-0.11,0.86-0.43,1.24-0.77C61.17,87.17,61.52,86.77,61.84,86.35z
		"/>
	<path class="st0" d="M52.82,98.65c0.08,0.01,0.17,0.02,0.25,0.04c0.27,0.05,0.53,0.13,0.8,0.2c0.13,0.04,0.26,0.08,0.39,0.14
		c0.02,0.01,0.05,0.02,0.07,0.03c0.14-0.35,0.28-0.69,0.43-1.03l0.27-0.63c-0.3,0.28-0.63,0.53-0.99,0.75
		c-0.33,0.19-0.68,0.34-1.04,0.46C52.94,98.63,52.88,98.63,52.82,98.65z"/>
	<path class="st0" d="M63.82,76.3c-0.29,0.46-0.57,0.96-0.71,1.51c0.07,0.22,0.13,0.45,0.19,0.67c0.19,0.82,0.42,1.68,0.41,2.55
		c0.34,0.36,0.58,0.71,0.86,1.02c0.27,0.32,0.56,0.57,0.96,0.85c0.05-0.03,0.09-0.05,0.14-0.08c0.27-0.12,0.49-0.16,0.76-0.19
		c0.5-0.05,1.08,0.03,1.52,0.41c0.21,0.19,0.38,0.43,0.47,0.69c0.09,0.24,0.15,0.47,0.2,0.71c0.02,0.1,0.04,0.19,0.06,0.29
		c0.26,0,0.5-0.06,0.74-0.08l0.88-0.12c0.55-0.07,1.08-0.11,1.67-0.16c0.07-0.06,0.15-0.12,0.22-0.18c0.21-0.18,0.42-0.36,0.65-0.52
		c0.11-0.08,0.23-0.16,0.37-0.22c0.04-0.02,0.1-0.04,0.15-0.05c-0.47-0.89-0.73-1.91-0.65-2.98c0.03-0.27,0.09-0.55,0.23-0.82
		c0.09-0.17,0.19-0.31,0.3-0.45c-0.76-0.8-1.62-1.54-2.4-2.33c-0.41-0.41-0.8-0.84-1.22-1.23C69.41,75.4,69.2,75.2,69,75.06
		c-0.19-0.14-0.48-0.21-0.75-0.27c-0.56-0.12-1.15-0.13-1.72-0.05c-0.56,0.1-1.14,0.27-1.61,0.46C64.5,75.39,64.12,75.84,63.82,76.3
		z"/>
	<path class="st0" d="M49.07,97.05c-0.09-0.25-0.16-0.5-0.19-0.76c-0.06,0.18-0.12,0.36-0.19,0.53c-0.38,0.85-0.86,1.63-1.45,2.32
		c0.31-0.13,0.62-0.26,0.95-0.36c0.74-0.2,1.47-0.27,2.2-0.29c-0.25-0.11-0.5-0.26-0.7-0.45C49.4,97.77,49.21,97.41,49.07,97.05z"/>
	<path class="st0" d="M55.43,76.17c0.21,0.55,0.31,1.19,0.16,1.77c0.2,0.31,0.38,0.63,0.55,0.96c0.1,0.21,0.2,0.43,0.3,0.65
		c0.54-0.87,1.14-1.69,1.81-2.48c0.19-0.21,0.38-0.41,0.59-0.61c0.23-0.19,0.4-0.39,0.81-0.51c0.03-0.01,0.06-0.01,0.1-0.02
		c-0.07-0.51-0.11-1.01-0.17-1.5c-0.08-0.51-0.09-1.06-0.16-1.53c-0.07-0.48-0.15-0.96-0.37-1.37c-0.22-0.4-0.51-0.82-0.91-0.9
		c-0.44-0.07-0.93,0.22-1.4,0.41c-0.23,0.11-0.52,0.19-0.74,0.27c-0.2,0.07-0.36,0.22-0.48,0.4c-0.26,0.36-0.46,0.82-0.66,1.29
		c-0.18,0.42-0.35,0.87-0.64,1.27c0.1,0.1,0.2,0.19,0.29,0.3C54.88,75.06,55.21,75.59,55.43,76.17z"/>
	<path class="st0" d="M46.99,85.39c-0.37,0.2-0.75,0.44-1.03,0.78c-0.28,0.34-0.46,0.76-0.54,1.19c-0.16,0.87-0.19,1.74-0.2,2.63
		c-0.02,0.86-0.03,1.73-0.07,2.62c0.08,0.02,0.16,0.03,0.24,0.06c0.87,0.4,1.71,0.82,2.51,1.39c0.2,0.16,0.4,0.33,0.58,0.53
		c-0.01-0.42,0.09-0.81,0.28-1.17c0.13-0.21,0.32-0.39,0.44-0.59c0.12-0.21,0.2-0.44,0.27-0.68c0.06-0.24,0.15-0.48,0.28-0.7
		c0.12-0.22,0.25-0.44,0.44-0.62c0.34-0.34,0.83-0.64,1.34-0.57c-0.14-0.13-0.24-0.25-0.34-0.39c-0.44-0.59-0.8-1.22-1.12-1.87
		c-0.32-0.65-0.6-1.33-0.78-2.06c-0.1-0.36-0.15-0.75-0.14-1.16c0.02-0.2,0.05-0.37,0.09-0.53C48.43,84.61,47.69,84.96,46.99,85.39z
		"/>
	<path class="st0" d="M51.61,89.59c0.21,0.31,0.33,0.47,0.66,0.54c0.3,0.07,0.64,0.06,0.98,0.03c0.17-0.02,0.34-0.05,0.5-0.08
		c0.07-0.02,0.19-0.04,0.21-0.06c0.05-0.03,0.11-0.08,0.17-0.14c0.23-0.24,0.42-0.54,0.6-0.84c0.36-0.6,0.69-1.23,0.97-1.89
		c0.28-0.65,0.52-1.32,0.73-2c0.1-0.35,0.22-0.67,0.25-1c0.04-0.33,0.04-0.68,0.02-1.02c-0.09-1.37-0.48-2.73-1.03-4.01
		c-0.28-0.64-0.59-1.27-1-1.82c-0.21-0.28-0.42-0.55-0.68-0.77c-0.25-0.22-0.57-0.39-0.9-0.37c-0.25,0.23-0.5,0.49-0.74,0.74
		c-0.11,0.13-0.25,0.26-0.31,0.39c-0.07,0.14-0.15,0.3-0.21,0.47c-0.25,0.65-0.44,1.34-0.65,2.02c-0.41,1.36-0.77,2.74-1.13,4.11
		c-0.08,0.33-0.2,0.72-0.22,0.97c0,0.3,0.03,0.63,0.11,0.96c0.14,0.66,0.39,1.32,0.68,1.95C50.92,88.39,51.24,89.02,51.61,89.59z"/>
	<path class="st0" d="M93.88,69.5c0.19,0.22,0.31,0.5,0.37,0.8c0.06,0.31,0.05,0.56,0.04,0.85c-0.04,0.56-0.23,1.16-0.66,1.6
		c-0.42,0.44-1.02,0.64-1.54,0.69c-0.48,0.07-0.97,0.2-1.45,0.37l-0.73,0.25c-0.12,0.03-0.23,0.08-0.35,0.11
		c0.28,0.08,0.56,0.17,0.84,0.27c0.4,0.15,0.8,0.31,1.17,0.6c0.18,0.15,0.37,0.33,0.47,0.63l0.05,0.17l0.03,0.13
		c0.04,0.09,0.06,0.17,0.1,0.26c0.04,0.09,0.08,0.18,0.14,0.26c0.01-0.18,0.04-0.37,0.08-0.54c0.06-0.26,0.15-0.51,0.25-0.75
		c0.21-0.49,0.43-0.96,0.72-1.41l-0.02,0.02c0.19-0.38,0.38-0.77,0.61-1.15c0.12-0.19,0.25-0.38,0.46-0.57
		c0.26-0.2,0.51-0.24,0.74-0.29c0.23-0.04,0.46-0.05,0.69-0.04c0.12,0.01,0.23,0.01,0.37,0.04l0.24,0.05
		c0.08-0.83,0.29-1.67,0.54-2.41c0.1-0.36,0.09-0.73-0.07-1.1c-0.08-0.18-0.19-0.36-0.3-0.54c-0.11-0.16-0.26-0.39-0.39-0.47
		c-0.33-0.22-0.83-0.21-1.26-0.15c-0.22,0.03-0.44,0.09-0.66,0.14l-0.64,0.14c-0.42,0.09-0.85,0.19-1.27,0.3l-0.64,0.17
		c-0.19,0.06-0.4,0.11-0.55,0.21c0.44,0.12,0.88,0.27,1.31,0.44C93.03,68.8,93.51,69.05,93.88,69.5z"/>
	<path class="st0" d="M69.22,74.62c0.31,0.15,0.55,0.32,0.78,0.51c0.47,0.38,0.92,0.77,1.33,1.19c0.41,0.43,0.8,0.88,1.15,1.36
		c0.31,0.43,0.63,0.86,0.84,1.37c0.03-0.04,0.06-0.08,0.09-0.11c0.36-0.4,0.76-0.74,1.2-1.02c0.45-0.28,0.95-0.48,1.48-0.56
		c0.26-0.04,0.55-0.03,0.81,0.03l0.74,0.17c0.98,0.24,1.95,0.52,2.87,0.99c0.27,0.14,0.52,0.31,0.77,0.49c0,0,0,0,0,0
		c0.06-0.1,0.11-0.2,0.17-0.3c0.1-0.2,0.22-0.43,0.26-0.61c0.07-0.4-0.11-0.82-0.31-1.21c-0.43-0.79-1.03-1.5-1.6-2.23
		c-0.29-0.37-0.58-0.73-0.86-1.11c-0.28-0.39-0.54-0.7-0.88-1.01c-0.66-0.61-1.42-1.12-2.2-1.62c-0.78-0.5-1.61-0.89-2.46-1.31
		c-0.38-0.23-0.84-0.23-1.28-0.19c-0.45,0.04-0.89,0.14-1.34,0.23l-0.17,0.03l-0.11,0.03c-0.06,0.04-0.13,0.08-0.19,0.14
		c-0.12,0.13-0.23,0.31-0.33,0.5c-0.19,0.39-0.33,0.84-0.5,1.28c-0.04,0.11-0.09,0.23-0.14,0.34c-0.05,0.11-0.09,0.19-0.12,0.29
		c-0.06,0.2-0.09,0.42-0.1,0.65C69.1,73.33,69.18,74.09,69.22,74.62C69.21,74.62,69.22,74.62,69.22,74.62z"/>
	<path class="st0" d="M75.5,88.54c0.01-0.01,0.02-0.02,0.02-0.03c0.28-0.3,0.64-0.52,0.98-0.69c0.44-0.22,0.89-0.4,1.34-0.56
		c-0.22-0.04-0.44-0.08-0.65-0.15c-0.59-0.2-1.15-0.47-1.63-0.92c0,0.01,0,0.02,0.01,0.02c0.08,0.57,0.11,1.15,0.05,1.72
		C75.58,88.13,75.55,88.34,75.5,88.54z"/>
	<path class="st0" d="M89.98,86.01c0.37-0.46,0.77-0.54,1.17-0.68c0.8-0.22,1.64-0.22,2.44-0.06c0.4,0.07,0.8,0.23,1.14,0.43
		c0.06,0.03,0.13,0.06,0.19,0.09c-0.13-0.19-0.23-0.4-0.3-0.59c-0.14-0.36-0.23-0.73-0.28-1.1c-0.06-0.37-0.08-0.74-0.11-1.11
		c-0.02-0.38-0.03-0.7-0.12-1.07c-0.08-0.36-0.24-0.69-0.45-0.99c-0.22-0.3-0.47-0.57-0.68-0.86c-0.35-0.53-0.67-1.1-0.93-1.71
		c-0.11,0.03-0.21,0.04-0.31,0.07c-0.82,0.16-1.65,0.27-2.49,0.33c-0.81,0.04-1.64,0.04-2.44-0.18c0.27,0.22,0.53,0.44,0.79,0.64
		l1.42,1.09c0.24,0.19,0.47,0.39,0.68,0.63c0.2,0.24,0.41,0.49,0.51,0.89c0.06,0.21-0.01,0.5-0.12,0.66
		c-0.1,0.17-0.22,0.3-0.34,0.42c-0.25,0.23-0.51,0.4-0.78,0.55c-0.39,0.22-0.8,0.38-1.22,0.52c0.14,0.16,0.28,0.32,0.42,0.48
		c0.2,0.22,0.38,0.43,0.58,0.63c0.19,0.2,0.4,0.38,0.61,0.57c0.18,0.14,0.38,0.28,0.6,0.42C89.96,86.05,89.97,86.03,89.98,86.01z"/>
	<path class="st0" d="M81.2,71.09c-0.04,0.09-0.06,0.15-0.06,0.27c0.01,0.12,0.01,0.25,0.02,0.37c0.02,0.25,0.07,0.5,0.14,0.74
		c0.14,0.48,0.37,0.95,0.71,1.34l0,0c0,0.01,0,0.01,0,0.02c0.3-0.2,0.61-0.37,0.95-0.52c0.81-0.35,1.74-0.41,2.57-0.25
		c0.83,0.16,1.63,0.42,2.44,0.65c0.44,0.13,0.88,0.25,1.32,0.38c0.4-0.14,0.79-0.42,1.21-0.6c0.47-0.23,0.96-0.44,1.5-0.55
		c0.49-0.09,0.92-0.26,1.22-0.59c0.3-0.32,0.47-0.77,0.53-1.25c0.08-0.5,0.1-0.97-0.17-1.37c-0.25-0.4-0.68-0.71-1.13-0.93
		c-0.93-0.42-1.96-0.63-2.96-0.59c-2.02,0.12-4.03,0.62-5.9,1.36c-0.47,0.18-0.92,0.4-1.36,0.64C81.82,70.43,81.39,70.73,81.2,71.09
		z"/>
	<path class="st0" d="M45.22,100.24c0.44-0.34,0.94-0.6,1.44-0.84c0.15-0.07,0.29-0.13,0.44-0.2c0.44-0.83,0.82-1.71,1.13-2.57
		c0.08-0.22,0.14-0.44,0.19-0.65c0.02-0.11,0.04-0.21,0.04-0.3c0-0.06-0.02-0.13-0.06-0.22c-0.17-0.33-0.5-0.67-0.83-0.98
		c-0.66-0.62-1.41-1.24-2.25-1.62c-0.83-0.33-1.78-0.14-2.55,0.25c-0.44,0.61-0.88,1.21-1.29,1.83c-0.21,0.33-0.38,0.61-0.56,0.97
		c-0.32,0.47-0.67,0.62-1.01,0.84c-0.67,0.39-1.34,0.7-1.92,1.16c-0.59,0.43-1.08,1-1.35,1.73c0,0.01-0.01,0-0.01,0.01
		c0.9,0.55,1.84,1.04,2.79,1.51c0.61,0.3,1.22,0.59,1.84,0.86c0.63,0.27,1.23,0.56,1.87,0.72c0.08,0.02,0.16,0.03,0.24,0.05
		C43.76,101.8,44.4,100.93,45.22,100.24z"/>
	<path class="st0" d="M73.9,102.27c-0.2-0.14-0.41-0.27-0.62-0.4l-0.63-0.39c-0.04-0.03-0.08-0.05-0.12-0.08
		c0.01,0.03,0.02,0.06,0.04,0.09c0.12,0.3,0.23,0.6,0.31,0.94c0.04,0.16,0.06,0.35,0.01,0.54c0,0.01-0.01,0.02-0.01,0.03
		c0.61-0.1,1.22-0.22,1.83-0.35c-0.03-0.01-0.07-0.01-0.1-0.02C74.38,102.56,74.09,102.41,73.9,102.27z"/>
	<path class="st0" d="M62.08,102.43c-0.03-0.6-0.15-1.2-0.25-1.79l-0.16-0.91c-0.03-0.15-0.05-0.31-0.07-0.47
		c-0.02-0.16-0.01-0.37,0.01-0.52c0.1-0.65,0.29-1.23,0.48-1.82c0.19-0.58,0.38-1.16,0.51-1.75c0.06-0.28,0.12-0.61,0.06-0.86
		c-0.07-0.26-0.29-0.47-0.52-0.64c-0.49-0.31-1.08-0.48-1.66-0.54c-0.57-0.05-1.17-0.02-1.64,0.19c-0.74,0.71-1.47,1.45-2.1,2.25
		c-0.31,0.4-0.6,0.83-0.77,1.26c-0.04,0.09-0.08,0.22-0.12,0.36c-0.04,0.14-0.09,0.26-0.14,0.39c-0.1,0.26-0.22,0.5-0.33,0.74
		c-0.43,0.96-1,1.88-1,2.85c0.02,0.47,0.15,1.02,0.27,1.52c0.12,0.48,0.25,0.96,0.4,1.43c0.04,0,0.09,0,0.13,0
		c1.37,0.02,2.74,0.09,4.09,0.06h0.01l0.02,0c0.84,0.04,1.68,0.04,2.53,0.02c0-0.01-0.01-0.02,0-0.03
		C62.11,103.64,62.1,103.02,62.08,102.43z"/>
	<path class="st0" d="M72.12,101.72c-0.16-0.26-0.32-0.6-0.46-0.78c-0.17-0.21-0.39-0.41-0.62-0.58c-0.94-0.74-2.07-1.3-3.14-1.98
		c-0.52-0.33-1.11-0.56-1.72-0.64c-0.61-0.08-1.24-0.01-1.82,0.1c-0.31,0.05-0.54,0.11-0.76,0.24c-0.21,0.14-0.73,0.62-0.86,0.87
		c-0.19,0.37-0.31,0.81-0.43,1.25l0.05,0.35c0.08,0.61,0.12,1.24,0.09,1.87c-0.03,0.61-0.15,1.29-0.57,1.77
		c2.74-0.09,5.49-0.48,8.23-0.84c0.86-0.13,1.76-0.2,2.59-0.32c0.03-0.16-0.02-0.33-0.1-0.5C72.45,102.26,72.28,102,72.12,101.72z"
		/>
	<path class="st0" d="M79.5,98.38c-0.11-0.17-0.3-0.31-0.49-0.44c-0.81-0.51-1.78-0.8-2.63-1.34c-0.85-0.54-1.54-1.33-2.25-1.95
		c-0.37-0.32-0.71-0.55-1.16-0.78l-1.29-0.71l-1.29-0.71c-0.38-0.19-0.75-0.42-1.15-0.57c-0.42,0.7-0.91,1.32-1.43,1.91
		c0.18,0.34,0.26,0.68,0.27,1.04c-0.01,0.21-0.09,0.43-0.07,0.64c0.01,0.21,0.09,0.41,0.18,0.6c0.21,0.38,0.35,0.75,0.48,1.12
		c0.11,0.39,0.18,0.76,0.27,1.21c0,0-0.01,0.01-0.01,0.01c0.29,0.12,0.58,0.25,0.86,0.39c0.57,0.29,1.14,0.59,1.66,1.01
		c0.25,0.22,0.51,0.45,0.71,0.76c0.13,0.22,0.21,0.4,0.27,0.58c0.33,0.14,0.67,0.27,1,0.42c0.23,0.1,0.45,0.2,0.68,0.32
		c0.23,0.12,0.39,0.18,0.63,0.23c0.63,0.12,1.31,0.14,1.97,0.08l1.5-0.34c0.14-0.08,0.26-0.19,0.37-0.33
		c0.26-0.33,0.44-0.78,0.59-1.24c0.14-0.45,0.3-0.97,0.42-1.4C79.64,98.72,79.61,98.55,79.5,98.38z"/>
	<path class="st0" d="M102.77,91.16c-0.19-0.03-0.38-0.06-0.57-0.12c0.06,0.08,0.12,0.15,0.17,0.23c0.15,0.23,0.32,0.5,0.39,0.78
		c0.33-0.31,0.66-0.61,0.99-0.91l0,0c-0.04,0.01-0.07,0.02-0.11,0.02C103.36,91.19,103.06,91.2,102.77,91.16z"/>
	<path class="st0" d="M89.01,97.02c0.07-0.2,0.1-0.32,0.1-0.53c0-0.39-0.04-0.83-0.07-1.26c-0.03-0.21-0.05-0.43-0.09-0.64
		c-0.04-0.22-0.1-0.39-0.26-0.52c-0.15-0.13-0.33-0.16-0.53-0.14c-0.22,0.01-0.44,0.01-0.65,0c-0.72-0.06-1.37-0.24-2.07-0.3
		c-0.1,0.12-0.26,0.26-0.36,0.32c-0.51,0.37-1.02,0.74-1.55,1.08C83,95.39,82.46,95.71,81.89,96c-0.17,0.09-0.35,0.17-0.52,0.25
		c-0.14,0.36-0.28,0.7-0.47,1.04c-0.23,0.41-0.49,0.8-0.85,1.16c0.06,0.17,0.08,0.35,0.06,0.53c-0.1,0.55-0.21,0.99-0.35,1.5
		c-0.11,0.38-0.23,0.76-0.43,1.14l1.43-0.32c1.78-0.39,3.56-0.79,5.37-1.12c0.65-0.1,1.28-0.25,1.92-0.43
		c0.26-0.71,0.49-1.45,0.76-2.15L89.01,97.02z"/>
	<path class="st0" d="M90.24,98.29c-0.26-0.21-0.5-0.45-0.69-0.75c-0.04,0.11-0.08,0.21-0.12,0.32c-0.18,0.41-0.38,0.8-0.61,1.17
		c-0.14,0.2-0.27,0.41-0.42,0.6c0.88-0.27,1.74-0.6,2.62-0.93c-0.04-0.01-0.08-0.02-0.11-0.04C90.66,98.57,90.45,98.44,90.24,98.29z
		"/>
	<path class="st0" d="M38.54,96.85c-0.46,0.11-0.92,0.17-1.4,0.15c-0.31,0-0.62,0.01-0.91,0.08c-0.3,0.07-0.59,0.21-0.88,0.29
		c-0.55,0.11-1.12,0.11-1.69-0.04c0.69,0.68,1.43,1.32,2.23,1.85c0.23,0.15,0.46,0.3,0.7,0.44c0.08-0.79,0.53-1.53,1.1-2.08
		C37.96,97.29,38.25,97.06,38.54,96.85z"/>
	<path class="st0" d="M36.94,86.56c0.36-0.12,0.72-0.24,1.1-0.32c0.38-0.07,0.76-0.12,1.14-0.14c0.77-0.03,1.58,0.03,2.31,0.51
		c0.18,0.13,0.35,0.28,0.48,0.47c0.15,0.21,0.2,0.34,0.31,0.51c0.2,0.32,0.39,0.66,0.57,1.01c0.07,0.15,0.14,0.31,0.21,0.48
		c0.26-0.16,0.52-0.23,0.78-0.29c0.17-0.03,0.34-0.05,0.52-0.04c0.09,0,0.18,0,0.27,0.01c0.01-0.06,0.01-0.12,0.02-0.17
		c0.08-0.46,0.21-0.92,0.43-1.35c0.2-0.43,0.45-0.82,0.7-1.21c0.09-0.14,0.19-0.28,0.29-0.42c-0.01-0.34-0.14-0.77-0.3-1
		c-0.17-0.26-0.43-0.44-0.71-0.61c-0.56-0.33-1.2-0.54-1.84-0.78l-0.48-0.19c-0.16-0.06-0.27-0.11-0.43-0.14
		c-0.29-0.07-0.61-0.08-0.93-0.06c-0.65,0.05-1.31,0.17-1.97,0.34c-1.31,0.34-2.58,1.02-3.53,1.94c-0.5,0.45-0.98,0.91-1.37,1.44
		c-0.34,0.46-0.62,0.97-0.67,1.56c0.3-0.29,0.62-0.5,0.95-0.69C35.49,87.05,36.22,86.8,36.94,86.56z"/>
	<path class="st0" d="M54.15,99.53c0.03-0.1,0.07-0.19,0.11-0.28c-0.4-0.02-0.84-0.02-1.24-0.03l-1.59-0.03
		c-1.05-0.04-2.13-0.1-3.18-0.08c-0.52,0.03-1.03,0.22-1.48,0.5c-0.45,0.29-0.82,0.68-1.19,1.05c-0.71,0.68-1.38,1.41-2.08,2.15
		c2.47,0.62,5.03,0.92,7.57,1.4c0.69-0.09,1.36-0.11,2.04-0.12c0.61-0.01,1.22,0,1.83,0.01c-0.47-0.91-0.85-1.84-1.06-2.92
		C53.84,100.61,53.98,100.04,54.15,99.53z"/>
	<path class="st0" d="M50.93,79.07c0.19-0.49,0.39-0.97,0.62-1.45c0.08-0.16,0.16-0.32,0.28-0.48c0.13-0.18,0.26-0.27,0.4-0.39
		c0.27-0.23,0.55-0.44,0.85-0.65c0.38-0.11,0.75,0.05,1.05,0.25c0.31,0.2,0.58,0.46,0.81,0.73c0.19,0.23,0.37,0.47,0.53,0.72
		c-0.07-0.51-0.26-0.97-0.52-1.4c-0.29-0.48-0.62-0.94-0.99-1.35c-0.36-0.42-0.75-0.83-1.19-1.13l-0.37-0.22
		c-0.13-0.08-0.25-0.17-0.37-0.26l-0.69-0.56c-0.23-0.18-0.46-0.36-0.71-0.47c-0.25-0.12-0.54-0.17-0.76-0.04
		c-0.22,0.13-0.32,0.36-0.39,0.63c-0.07,0.27-0.09,0.55-0.13,0.83c-0.16,1.09-0.2,2.22-0.45,3.37c0.14,0.08,0.28,0.17,0.42,0.27
		C49.95,77.92,50.5,78.44,50.93,79.07z"/>
	<path class="st0" d="M41.39,80.38c0.28,0.23,0.61,0.5,0.88,0.78c0.48,0.46,0.92,0.96,1.34,1.47c0.6,0.25,1.2,0.54,1.75,0.96
		c0.29,0.22,0.56,0.52,0.71,0.88c0.12,0.27,0.17,0.66,0.14,0.98c0.14-0.18,0.29-0.35,0.47-0.5c0.73-0.58,1.68-0.87,2.59-0.76
		c0.04-0.17,0.09-0.32,0.13-0.49c0.38-1.38,0.83-2.74,1.32-4.09c0.05-0.15,0.11-0.29,0.17-0.44c-0.56-0.5-1.17-0.94-1.81-1.29
		c-0.64-0.37-1.38-0.58-2.11-0.82c-0.73-0.22-1.46-0.45-2.21-0.63c-0.37-0.09-0.75-0.17-1.12-0.23c-0.38-0.06-0.71-0.11-1.07-0.02
		c-0.7,0.19-1.42,0.61-1.8,1.27c-0.4,0.66-0.37,1.49-0.03,2.11C40.91,79.87,41.13,80.14,41.39,80.38z"/>
	<path class="st0" d="M101.25,90.7c-0.59-0.52-1.22-1.01-1.78-1.63l-0.2-0.25c-0.06-0.06-0.11-0.13-0.17-0.19
		c-0.13-0.12-0.26-0.24-0.41-0.36c-0.3-0.23-0.62-0.44-0.96-0.64l-2.06-1.17l-1.05-0.58c-0.34-0.22-0.69-0.34-1.07-0.37
		c-0.77-0.05-1.53,0.15-2.24,0.37c-0.33,0.11-0.75,0.27-0.88,0.44c-0.17,0.24-0.26,0.64-0.32,1.02c-0.1,0.74-0.17,1.51-0.12,2.27
		c0.05,0.01,0.11,0.03,0.18,0.06c0.11,0.06,0.16,0.11,0.22,0.17c0.42,0.45,0.66,0.94,1.01,1.38c0.34,0.42,0.74,0.86,1.2,1.02
		c0.56,0.25,0.99,0.57,1.44,0.89c0.45,0.32,0.89,0.64,1.32,0.97c0.43,0.34,0.86,0.67,1.29,0.98c0.33,0.23,0.66,0.47,1.03,0.62
		c1.12-0.56,2.23-1.14,3.22-1.78c0.56-0.64,1.14-1.21,1.73-1.77c-0.13-0.25-0.34-0.46-0.53-0.67
		C101.85,91.21,101.54,90.96,101.25,90.7z"/>
	<path class="st0" d="M77.6,77.81c-0.24-0.04-0.49-0.06-0.74-0.08c-0.24-0.02-0.45,0-0.68,0.06c-0.44,0.13-0.86,0.36-1.26,0.62
		c-0.4,0.27-0.78,0.57-1.11,0.91c-0.16,0.17-0.32,0.35-0.44,0.54c-0.11,0.18-0.18,0.4-0.23,0.63c-0.09,0.47-0.08,0.97-0.02,1.46
		c0.05,0.48,0.15,0.96,0.3,1.43c0.09-0.01,0.18-0.01,0.25,0.01c0.65,0.11,1.08,0.66,1.33,1.17c0.26,0.5,0.42,1.03,0.52,1.57
		c0.66,0.02,1.25,0.18,1.83,0.35c0.3,0.1,0.59,0.2,0.88,0.32c0.16,0.06,0.31,0.12,0.47,0.19c0.7-0.17,1.42-0.29,2.16-0.25
		c0.77,0.08,1.48,0.28,2.21,0.43c0.04,0.01,0.08,0.02,0.11,0.03c0,0,0,0,0,0c0.5-0.06,0.92-0.32,1.2-0.69
		c0.29-0.37,0.44-0.84,0.56-1.31c0.12-0.47,0.19-0.97,0.24-1.47l0.05-0.38c0.02-0.14,0.02-0.16,0-0.25
		c-0.04-0.15-0.16-0.33-0.31-0.49c-0.63-0.66-1.5-1.21-2.31-1.81c-0.41-0.3-0.81-0.62-1.18-1c-0.34-0.37-0.69-0.69-1.1-0.97
		C79.54,78.29,78.58,77.97,77.6,77.81z"/>
	<path class="st0" d="M42.36,92.89c0.03-0.04,0.07-0.08,0.1-0.11l0.05-0.05l0.04-0.01c0.82-0.28,1.69-0.34,2.51-0.13
		c-0.33-0.83-0.48-1.71-0.51-2.6c0-0.27,0.02-0.54,0.04-0.81c-0.03,0.02-0.06,0.05-0.09,0.06c-0.17,0.1-0.36,0.15-0.54,0.19
		c-0.26,0.04-0.52,0.04-0.79-0.04c0.04,0.12,0.08,0.23,0.11,0.35c0.09,0.41,0.09,0.9-0.15,1.32C42.78,91.63,42.54,92.24,42.36,92.89
		z"/>
	<path class="st0" d="M79.18,97.63c0.23,0.12,0.46,0.25,0.66,0.47c0.03,0.03,0.05,0.06,0.07,0.1c0.06-0.44,0.22-0.84,0.42-1.22
		c0.08-0.15,0.18-0.29,0.28-0.42c-0.18,0.06-0.36,0.1-0.56,0.14c-1.21-0.02-2.31-0.11-3.46-0.2C77.38,96.99,78.3,97.2,79.18,97.63z"
		/>
	<path class="st0" d="M74.79,89.43c0.09-0.14,0.19-0.27,0.29-0.4c0.06-0.36,0.04-0.74,0.02-1.11c-0.04-0.53-0.11-1.06-0.21-1.58
		c-0.1-0.52-0.21-1.04-0.4-1.51c-0.2-0.46-0.44-0.94-0.87-1.11c-0.19-0.1-0.44,0.01-0.66,0.14c-0.22,0.14-0.43,0.32-0.62,0.51
		c-0.37,0.39-0.68,0.85-1,1.29c-0.63,0.83-1.35,1.6-1.97,2.43l0.12,0.57c0.08,0.47,0.17,0.94,0.21,1.44
		c0.01,0.25,0.02,0.49-0.01,0.76c-0.03,0.28-0.15,0.55-0.27,0.76c-0.03,0.06-0.07,0.11-0.1,0.17c0.43,0.06,0.83,0.21,1.22,0.35
		c0.46,0.18,0.92,0.36,1.37,0.57c0.45,0.2,0.89,0.42,1.33,0.65c0.25,0.12,0.51,0.28,0.76,0.46c-0.24-0.7-0.29-1.49-0.12-2.23
		C74.04,90.81,74.35,90.08,74.79,89.43z"/>
	<path class="st0" d="M69.91,86.61c0.3-0.47,0.63-0.92,1.01-1.32c0.12-0.12,0.26-0.24,0.39-0.35c-0.3,0.13-0.62,0.2-0.94,0.25
		c-0.32,0.03-0.65,0.04-0.97-0.02c-0.23-0.05-0.49-0.1-0.69-0.24c0.07,0.31,0.13,0.62,0.19,0.93l0.41,1.99
		C69.44,87.4,69.68,87,69.91,86.61z"/>
	<path class="st0" d="M98.91,86.31c-0.08,0.08-0.17,0.16-0.26,0.23c-0.32,0.23-0.71,0.37-1.09,0.36c0.15,0.07,0.3,0.13,0.45,0.2
		c0.36,0.19,0.71,0.39,1.06,0.62c0.08,0.06,0.17,0.12,0.25,0.19c-0.08-0.14-0.15-0.28-0.21-0.43C98.98,87.11,98.9,86.71,98.91,86.31
		z"/>
	<path class="st0" d="M65.03,83.22c0.07-0.05,0.14-0.1,0.21-0.15c-0.15,0-0.3-0.03-0.45-0.08c-0.28-0.1-0.52-0.29-0.72-0.5
		c-0.21-0.25-0.35-0.53-0.44-0.83c-0.01,0.06-0.02,0.11-0.03,0.17c-0.14,0.99-0.23,2-0.46,3.01C63.74,84.26,64.35,83.71,65.03,83.22
		z"/>
	<path class="st0" d="M98.89,77.78c0.15,1.65,0.57,3.26,0.79,4.9c0.32-0.78,0.65-1.56,1.01-2.33c0.23-0.46,0.44-0.93,0.73-1.38
		c0.28-0.44,0.6-0.86,0.94-1.25c0.22-0.25,0.46-0.49,0.71-0.71c-0.05-0.32-0.18-0.6-0.32-0.88c-0.17-0.33-0.36-0.65-0.56-0.97
		l-0.58-0.98c-0.2-0.32-0.4-0.66-0.59-1c-0.19-0.34-0.41-0.67-0.68-0.94c-0.13-0.14-0.28-0.27-0.44-0.38
		c-0.14-0.11-0.27-0.12-0.4-0.1c-0.52,0.08-1.18,0.48-1.71,0.94c0.59,0.78,0.7,1.7,0.82,2.53L98.89,77.78z"/>
	<path class="st0" d="M69.13,90.76c0.04-0.2,0.06-0.43,0.06-0.66c0.02-0.46,0-0.93-0.03-1.4c-0.07-0.94-0.24-1.88-0.5-2.79
		c-0.13-0.45-0.29-0.9-0.46-1.34c-0.08-0.22-0.17-0.43-0.27-0.63c-0.09-0.18-0.21-0.33-0.36-0.45c-0.29-0.23-0.7-0.32-1.11-0.3
		c-0.2,0.02-0.44,0.05-0.6,0.11c-0.19,0.08-0.39,0.19-0.58,0.31c-0.72,0.44-1.44,0.93-2.17,1.4c-0.01,0.04-0.02,0.08-0.03,0.13
		c-0.07,0.28-0.16,0.55-0.27,0.83c-0.11,0.28-0.28,0.56-0.44,0.78c-0.17,0.24-0.35,0.47-0.54,0.68c-0.01,0.41-0.07,0.79-0.14,1.16
		c-0.13,0.48-0.21,0.93-0.34,1.46c-0.06,0.26-0.08,0.51-0.05,0.77c0.03,0.26,0.13,0.51,0.16,0.77c0.04,0.48-0.01,0.96-0.18,1.45
		c0.33,0.11,0.66,0.24,0.95,0.45c0.26,0.17,0.51,0.4,0.62,0.74c0.1,0.35,0.04,0.65,0.02,0.97c-0.03,0.27-0.07,0.52-0.12,0.78
		c0.43,0.13,0.88,0.08,1.3-0.01c0.45-0.1,0.8-0.3,1.16-0.59c0.7-0.57,1.34-1.25,1.96-1.93c0.61-0.68,1.25-1.38,1.71-2.14
		C69,91.11,69.1,90.96,69.13,90.76z"/>
	<path class="st0" d="M67.8,95.5c-0.06-0.2-0.19-0.4-0.25-0.6c-0.07-0.26-0.07-0.52-0.03-0.79c-0.61,0.63-1.26,1.22-2.01,1.71
		c-0.39,0.28-0.92,0.46-1.39,0.49c-0.46,0.04-0.95-0.01-1.36-0.24c-0.06,0.33-0.13,0.66-0.2,0.98c-0.12,0.6-0.29,1.2-0.37,1.76
		c-0.02,0.11-0.02,0.21-0.01,0.32c0.03-0.12,0.06-0.25,0.1-0.37c0.12-0.33,0.69-0.93,1-1.15c0.31-0.23,0.71-0.29,1.02-0.3
		c0.66-0.02,1.3,0.1,1.92,0.24c0.62,0.13,1.24,0.28,1.84,0.53c0.22,0.08,0.44,0.17,0.65,0.26c-0.32-0.22-0.53-0.55-0.68-0.89
		c-0.14-0.42-0.22-0.85-0.18-1.29C67.86,95.92,67.86,95.71,67.8,95.5z"/>
	<path class="st0" d="M87.36,89.62c-0.05,0.18-0.12,0.35-0.18,0.53c0.43-0.29,0.94-0.41,1.42-0.49c0.28-0.05,0.56-0.07,0.84-0.07
		c0.14,0,0.29,0,0.44,0.02c0,0,0.01,0,0.01,0c-0.23-0.75-0.29-1.52-0.25-2.31c0.03-0.36,0.07-0.72,0.24-1.09
		c-0.26,0.03-0.53-0.01-0.78-0.1c-0.31-0.12-0.59-0.32-0.83-0.55c-0.23-0.24-0.42-0.52-0.54-0.82c-0.09-0.22-0.17-0.45-0.19-0.69
		c-0.09,0.03-0.18,0.07-0.28,0.09c-0.5,0.12-1.02,0.23-1.54,0.2c-0.07,0.34-0.16,0.68-0.27,1.01c-0.17,0.5-0.42,0.99-0.81,1.38
		c-0.31,0.33-0.75,0.51-1.18,0.53c0.6,0.14,1.19,0.28,1.79,0.43c0.36,0.09,0.72,0.19,1.08,0.29c0.37,0.12,0.7,0.19,1.11,0.45
		l0.09,0.06l0,0.13C87.55,89.01,87.45,89.3,87.36,89.62z"/>
	<path class="st0" d="M38.76,104.44c-0.3-0.14-0.59-0.29-0.9-0.43c-0.47-0.22-0.93-0.36-1.48-0.63c-0.51-0.27-0.97-0.59-1.4-0.94
		c-0.21-0.17-0.42-0.36-0.61-0.54c-1.02,1.16-1.98,2.38-2.88,3.63c-1.01,1.38-1.95,2.81-2.82,4.28c-0.88,1.47-1.62,3.01-2.39,4.53
		c-0.8,1.51-1.42,3.1-2.12,4.68c-0.01,0.02-0.03,0.02-0.04,0.02c-0.01-0.01-0.02-0.02-0.02-0.04c0.35-1.7,0.9-3.36,1.61-4.95
		c0.71-1.59,1.59-3.08,2.53-4.53c1.78-2.76,3.8-5.35,6.07-7.69c-0.57-0.54-1.1-1.1-1.63-1.64c-0.73-0.73-1.47-1.5-2.33-1.79
		c-0.4-0.1-0.89-0.26-1.3-0.53c-2.07,1.97-3.99,4.06-5.73,6.28c-1.79,2.28-3.32,4.75-4.52,7.37c-0.59,1.32-1.03,2.71-1.28,4.15
		c-0.06,0.36-0.11,0.72-0.13,1.09c-0.03,0.37-0.06,0.72-0.03,1.09c0.04,0.73,0.11,1.47,0.21,2.2c0.19,1.46,0.49,2.92,0.83,4.35
		c0.17,0.71,0.37,1.42,0.59,2.12c0.17,0.51,0.34,1.03,0.55,1.49c0.68-0.38,1.36-0.96,2.06-1.49c0.84-0.65,1.72-1.3,2.73-1.81
		c0.25-0.12,0.51-0.25,0.78-0.35l0.73-0.27c0.45-0.17,0.9-0.38,1.34-0.63c0.88-0.49,1.75-1.04,2.58-1.64
		c0.83-0.61,1.65-1.24,2.4-1.93c0.37-0.35,0.74-0.7,1.06-1.07c0.32-0.39,0.63-0.82,0.94-1.23c0.62-0.85,1.22-1.72,1.81-2.6
		c0.53-0.8,1.1-1.61,1.55-2.43c-0.16-0.8-0.24-1.62-0.24-2.44c0-1.08,0.13-2.16,0.41-3.19c0.14-0.52,0.31-1.02,0.53-1.51
		c0.11-0.24,0.23-0.48,0.36-0.71C38.65,104.61,38.7,104.52,38.76,104.44z"/>
	<path class="st0" d="M22.53,103.48c1.87-2.18,4.01-4.12,6.37-5.7c-0.03-0.02-0.06-0.04-0.09-0.06c-0.46-0.37-0.8-0.86-1.03-1.37
		c-0.03-0.06-0.04-0.11-0.06-0.17c-2.06,0.27-4.11,0.62-6.15,1c-2.05,0.38-4.1,0.81-6.13,1.3c-2.03,0.5-4.03,1.09-6.03,1.66
		c-2,0.57-3.98,1.23-5.95,1.94c-0.02,0.01-0.04,0-0.04-0.02c-0.01-0.02,0-0.03,0.01-0.04c1.83-1.05,3.81-1.82,5.79-2.51
		c2-0.66,4.06-1.11,6.11-1.55c4.09-0.85,8.22-1.47,12.37-1.85c-0.18-0.44-0.31-0.89-0.42-1.33c-0.12-0.53-0.25-1.04-0.33-1.59
		c-0.01-0.06-0.01-0.12-0.02-0.18c-0.65,0.67-1.47,1.22-2.39,1.52c-0.99,0.35-2.05,0.43-3.08,0.35c-2.08-0.21-3.9-1.19-5.61-1.96
		c-0.07-0.03-0.15-0.06-0.22-0.09c-1.48,0.05-2.93,0.35-4.32,0.8c-0.81,0.27-1.61,0.6-2.32,1.02c-0.35,0.22-0.72,0.48-1.08,0.71
		c-0.35,0.25-0.71,0.5-1.06,0.76c-1.39,1.03-2.8,2.04-4.01,3.31c-1.14,1.21-2.08,2.75-2.25,4.41c1.74,0.83,3.6,1.31,5.46,1.6
		c1.92,0.32,3.88,0.32,5.83,0.2c3.54-0.24,7.08-0.95,10.56-2.02C22.47,103.56,22.5,103.52,22.53,103.48z"/>
	<path class="st0" d="M7.43,84.74c0.03-0.07,0.06-0.14,0.07-0.21c0.02-0.08,0.03-0.1,0.05-0.29c0.1-0.6,0.4-1.01,0.7-1.37
		c0.51-0.57,1.11-1,1.74-1.32c-0.08-0.23-0.17-0.45-0.28-0.65c-0.32-0.63-0.74-1.17-1.24-1.64c-0.5-0.47-1.08-0.87-1.71-1.18
		c-0.28-0.14-0.57-0.26-0.88-0.36c-0.55,1.5-1.31,2.98-2.19,4.32c-0.24,0.35-0.5,0.68-0.77,1c-0.28,0.35-0.53,0.59-0.59,0.97
		c-0.09,0.37,0.02,0.77,0.24,1.07c0.12,0.15,0.25,0.28,0.41,0.36c0.08,0.05,0.16,0.08,0.24,0.11l0.29,0.1
		c0.39,0.13,0.79,0.22,1.17,0.31c0.38,0.08,0.76,0.16,1.05,0.14c0.07-0.01,0.13-0.02,0.19-0.03l0.23-0.07
		c0.15-0.06,0.29-0.12,0.42-0.21c0.26-0.16,0.48-0.38,0.65-0.63C7.3,85.02,7.38,84.88,7.43,84.74z"/>
	<path class="st0" d="M59.82,75.92c0.49-0.08,0.98-0.15,1.51-0.09c0.29,0.03,0.6,0.11,0.88,0.3c0.14,0.09,0.26,0.21,0.35,0.35
		c0.08,0.13,0.15,0.26,0.21,0.4c0.1,0.23,0.18,0.46,0.25,0.69c0.01-0.52,0.16-1.03,0.39-1.5c0.28-0.54,0.64-1.1,1.29-1.4
		c0.19-0.07,0.37-0.11,0.56-0.14c-0.1-0.42-0.13-0.85-0.14-1.29c0-0.22,0.01-0.45,0.03-0.65c0.01-0.18,0-0.33-0.06-0.48
		c-0.1-0.3-0.35-0.66-0.55-1.06c-0.1-0.2-0.19-0.4-0.26-0.62c-0.07-0.23-0.1-0.38-0.19-0.49c-0.08-0.1-0.26-0.13-0.45-0.06
		c-0.18,0.07-0.36,0.18-0.52,0.3c-0.33,0.26-0.61,0.59-0.97,0.85c-0.39,0.25-0.75,0.38-1.14,0.55c-0.35,0.14-0.71,0.28-1.09,0.39
		c0.09,0.28,0.15,0.57,0.18,0.85c0.05,0.57,0.01,1.07-0.02,1.6C60.03,74.93,59.95,75.43,59.82,75.92z"/>
	<path class="st0" d="M53.49,109.58l-0.42-0.1l-0.38-0.1l-3.04-0.81c-0.73-0.2-1.46-0.41-2.19-0.63c0.39,0.91,0.64,1.9,0.8,2.88
		c0.21,1.43,0.11,2.88-0.03,4.29c-0.14,1.42-0.41,2.82-0.74,4.2c-0.34,1.38-0.75,2.73-1.25,4.05c-0.01,0.02-0.03,0.03-0.04,0.02
		c-0.02-0.01-0.02-0.03-0.02-0.04c0.42-1.34,0.74-2.72,1-4.1c0.26-1.38,0.46-2.77,0.54-4.17c0.07-1.4,0.02-2.79-0.1-4.17
		c-0.09-1.03-0.26-2.05-0.52-3.07c-1.17-0.35-2.34-0.73-3.5-1.16c-1-0.37-1.99-0.81-2.94-1.29c-0.57-0.28-1.12-0.57-1.68-0.84
		c-0.03,0.1-0.07,0.19-0.1,0.28c-0.08,0.24-0.14,0.49-0.2,0.74c-0.11,0.5-0.2,1-0.26,1.5c-0.12,1-0.15,2.01-0.08,3.01
		c0.07,1,0.23,1.98,0.48,2.95c0.25,0.98,0.55,1.95,0.88,2.91c0.67,1.92,1.57,3.78,2.6,5.57c0.52,0.9,1.05,1.78,1.53,2.72
		c0.41,0.82,0.75,1.7,0.92,2.64c1.67-0.7,3.27-1.58,4.77-2.56c0.79-0.53,1.56-1.09,2.17-1.74c0.58-0.6,1.01-1.51,1.42-2.35
		c0.81-1.73,1.49-3.53,1.94-5.4c0.24-0.93,0.39-1.89,0.5-2.85c0.07-0.72,0.09-1.45,0.08-2.19c-0.43,0.01-0.86,0-1.29-0.05
		C54.06,109.69,53.77,109.64,53.49,109.58z"/>
	<path class="st0" d="M96.12,72.48c-0.07-0.01-0.16-0.02-0.25-0.03c-0.18,0-0.38,0-0.56,0.03c-0.18,0.02-0.36,0.07-0.44,0.13
		c-0.11,0.09-0.24,0.24-0.36,0.4c-0.24,0.32-0.45,0.69-0.67,1.05l-0.01,0.02l0,0c-0.29,0.4-0.59,0.82-0.84,1.26
		c-0.23,0.41-0.45,0.82-0.55,1.28c0.02,0.03,0.04,0.07,0.06,0.1c0.11,0.18,0.24,0.32,0.36,0.61c0.06,0.13,0.09,0.43-0.07,0.62
		c-0.14,0.18-0.28,0.23-0.4,0.29c-0.05,0.02-0.1,0.03-0.15,0.05c0.49,0.42,0.88,0.92,1.2,1.47c0.18,0.33,0.29,0.7,0.43,1.05
		c0.14,0.35,0.31,0.68,0.48,1.01c0.17,0.33,0.34,0.72,0.42,1.08c0.09,0.36,0.17,0.72,0.23,1.09c0.06,0.36,0.09,0.73,0.12,1.08
		c0.04,0.31,0.05,0.61,0.16,0.9c0.17,0.07,0.34,0.14,0.52,0.21c0.54,0.21,1.07,0.42,1.6,0.66c0.83-0.12,1.39-0.8,1.66-1.54
		c0.14-0.37,0.22-0.77,0.22-1.14c-0.02-0.36-0.11-0.83-0.15-1.24c-0.18-1.7-0.15-3.42-0.47-5.1c-0.13-0.84-0.32-1.68-0.52-2.5
		c-0.19-0.82-0.38-1.65-0.86-2.22c-0.24-0.28-0.53-0.46-0.88-0.54L96.12,72.48z"/>
	<path class="st0" d="M36.2,96.87c0.3-0.02,0.59-0.11,0.88-0.22c0.57-0.24,1.14-0.41,1.7-0.58c0.49-0.13,0.97-0.24,1.47-0.39
		c0.04-0.04,0.07-0.07,0.09-0.11c0.16-0.33,0.41-0.69,0.64-1c0.39-0.54,0.81-1.04,1.25-1.53c-0.01-0.75,0.14-1.51,0.46-2.21
		c0.11-0.27,0.09-0.6-0.01-0.92c-0.1-0.33-0.25-0.66-0.42-0.99c-0.16-0.33-0.35-0.66-0.53-1c-0.2-0.38-0.3-0.63-0.57-0.83
		c-0.52-0.4-1.25-0.6-1.98-0.68c-0.74-0.09-1.48,0.04-2.15,0.37c-0.68,0.32-1.3,0.75-1.93,1.14c-0.31,0.2-0.63,0.39-0.88,0.61
		c-0.07,0.06-0.1,0.09-0.15,0.16c-0.07,0.1-0.13,0.18-0.2,0.25c-0.14,0.15-0.28,0.29-0.42,0.41c-0.51,0.44-1.02,0.84-1.62,1.16
		c-0.05,0.2-0.11,0.4-0.15,0.6c-0.14,0.66-0.25,1.33-0.29,1.99c-0.02,0.33-0.02,0.66,0.02,0.97c0.03,0.31,0.13,0.56,0.29,0.86
		c0.31,0.56,0.73,1.09,1.17,1.59c0.22,0.24,0.44,0.47,0.67,0.7c0.58-0.25,1.15-0.37,1.74-0.39C35.59,96.83,35.9,96.9,36.2,96.87z"/>
	<path class="st0" d="M83.16,94.47l1.53-1.08c0.39-0.28,0.72-0.86,1.02-1.39c0.3-0.54,0.57-1.11,0.81-1.68
		c0.12-0.29,0.24-0.57,0.34-0.86c0.09-0.24,0.16-0.5,0.2-0.73c-0.22-0.14-0.54-0.27-0.82-0.38c-0.34-0.13-0.69-0.25-1.04-0.37
		c-0.7-0.24-1.42-0.43-2.14-0.61c-0.72-0.16-1.46-0.33-2.17-0.35c-0.72,0.02-1.43,0.22-2.12,0.46c-0.68,0.25-1.36,0.53-2,0.86
		c-0.32,0.17-0.62,0.34-0.86,0.58c-0.25,0.24-0.48,0.52-0.7,0.81c-0.85,1.16-1.42,2.63-1.13,4.13c0,0,0,0,0,0.01
		c0.15,0.12,0.3,0.24,0.42,0.38c0.69,0.73,1.18,1.57,1.95,2.14c0.57-0.04,1.14-0.07,1.71-0.09l0.93-0.03l0.47-0.02l0.23-0.01
		l0.2-0.03c0.54-0.12,1.1-0.42,1.62-0.72C82.14,95.16,82.65,94.82,83.16,94.47z"/>
	<path class="st0" d="M84.41,77.53c0.66,0.01,1.25,0.26,1.76,0.58c0.19,0.12,0.36,0.26,0.54,0.4c0.01-0.01,0.01-0.02,0.02-0.02
		c1.66,0.01,3.25-0.42,4.87-0.76c0.2-0.05,0.4-0.08,0.54-0.14c0.04-0.01,0.07-0.03,0.09-0.04c-0.03-0.11-0.16-0.3-0.26-0.48
		c-0.11-0.19-0.22-0.39-0.31-0.61c-0.05-0.11-0.07-0.23-0.11-0.34l-0.06-0.31c-0.02-0.11-0.12-0.26-0.25-0.38
		c-0.27-0.25-0.62-0.48-0.98-0.67c-0.73-0.38-1.52-0.66-2.32-0.84c-0.81-0.18-1.64-0.25-2.45-0.31c-0.8-0.07-1.58-0.06-2.34,0.19
		c-0.67,0.21-1.61,0.74-2.35,1.1c0.4,0.56,0.77,1.16,1.06,1.82c0.18,0.43,0.31,0.94,0.18,1.45C82.68,77.91,83.81,77.51,84.41,77.53z
		"/>
	<path class="st0" d="M106.99,77.33c-0.06-0.25-0.08-0.5-0.19-0.7c-0.11-0.2-0.29-0.37-0.5-0.48c-0.41-0.24-0.94-0.25-1.38-0.08
		c-0.45,0.16-0.82,0.52-1.16,0.87c-0.35,0.36-0.65,0.76-0.97,1.15c-0.31,0.39-0.62,0.79-0.91,1.2c-0.27,0.4-0.52,0.85-0.77,1.29
		c-0.46,0.78-0.9,1.57-1.39,2.34l0.06,0.56c0.02,0.22,0.05,0.41,0.05,0.67c-0.02,0.48-0.15,0.93-0.35,1.34
		c-0.04,0.08-0.09,0.16-0.14,0.24c0.04,0.53,0.17,1.02,0.36,1.51c0.24,0.65,0.58,1.28,0.87,2c0.34,0.36,0.69,0.71,1.03,1.08
		c0.16,0.17,0.3,0.34,0.45,0.53c0.23-0.07,0.46-0.14,0.69-0.19c0.28-0.07,0.55-0.11,0.82-0.15c0.28-0.03,0.55-0.07,0.82-0.08
		l0.18-0.01l1.99-1.78c0.36-0.77,0.66-1.58,0.97-2.37c0.17-0.46,0.38-0.98,0.44-1.38c-0.01-0.41-0.08-0.97-0.15-1.45
		C107.57,81.39,107.29,79.35,106.99,77.33z"/>
	<path class="st0" d="M81.4,79.13C81.4,79.13,81.4,79.13,81.4,79.13c0.13,0.1,0.27,0.2,0.39,0.31c0.36,0.32,0.78,0.59,1.19,0.86
		c0.82,0.57,1.72,1.02,2.49,1.83c0.19,0.21,0.37,0.46,0.45,0.81c0.05,0.16,0.03,0.4,0,0.51l-0.07,0.37
		c-0.02,0.12-0.05,0.23-0.07,0.35c0.46-0.14,0.9-0.33,1.34-0.52c0.52-0.24,1.04-0.5,1.52-0.8c0.24-0.15,0.47-0.3,0.67-0.47
		c0.1-0.08,0.19-0.17,0.24-0.25c0.06-0.09,0.07-0.11,0.06-0.2c-0.02-0.19-0.17-0.44-0.32-0.67c-0.15-0.23-0.33-0.47-0.52-0.69
		c-0.38-0.45-0.81-0.86-1.29-1.19c-0.48-0.33-1.03-0.58-1.55-0.8c-0.52-0.22-1.03-0.48-1.55-0.55c-0.48-0.08-1.71,0.22-2.38,0.27
		c-0.1,0.22-0.23,0.38-0.36,0.55C81.56,78.95,81.49,79.04,81.4,79.13z"/>
	<path class="st0" d="M119.53,69.8c-0.81-0.15-1.63-0.19-2.45-0.12c-0.83,0.14-1.71,0.01-2.52-0.14c-0.82-0.16-0.83-0.64-1.64-0.81
		c-0.8-0.17-1.63-0.34-2.38-0.3c-0.77,0.11-1.66,0.25-2.49,0.25c-0.5,0.01-1.01-0.01-1.52-0.07c0.42,0.27,0.82,0.56,1.2,0.86
		c0.62,0.5,1.24,1.01,1.74,1.66c0.26,0.31,0.5,0.65,0.76,0.96c0.12,0.15,0.3,0.31,0.42,0.51c0.12,0.18,0.23,0.37,0.32,0.56
		c0.37,0.76,0.67,1.53,0.95,2.34c0.28,0.8,0.41,1.64,0.49,2.48c0.08,0.84,0.09,1.69-0.03,2.54c-0.08,0.56-0.2,1.12-0.37,1.66
		c0.74-0.99,1.45-1.98,2.16-3.02c0.85-1.09,1-1.74,1.94-2.69l2.87-2.79c0,0,2.23-2.62,2.32-2.87
		C121.1,70.48,119.94,69.87,119.53,69.8z"/>
	<path class="st0" d="M94.97,94.68c-0.89-0.65-1.72-1.45-2.51-2.11c-0.27-0.15-0.47-0.38-0.66-0.58l-0.56-0.62
		c-0.38-0.4-0.8-0.8-1.19-1.1c-0.04-0.03-0.1-0.07-0.12-0.07c0,0-0.06-0.02-0.11-0.02c-0.11-0.01-0.25-0.01-0.38-0.02
		c-0.26-0.01-0.53,0-0.79,0c-0.51,0.02-1.02,0.01-1.52,0.13c-0.03,0.08-0.05,0.17-0.08,0.25c-0.23,0.6-0.49,1.19-0.78,1.77
		c-0.14,0.29-0.3,0.57-0.48,0.86c-0.03,0.04-0.06,0.09-0.09,0.13c0.2-0.04,0.41-0.06,0.61-0.06c0.44,0,0.87,0.05,1.29,0.16
		l0.61,0.18c0.22,0.04,0.47,0.17,0.63,0.35c0.17,0.16,0.26,0.42,0.32,0.62c0.07,0.21,0.15,0.41,0.22,0.62
		c0.16,0.41,0.3,0.84,0.33,1.31c0.03,0.22,0,0.51-0.06,0.73c0.37,0.15,0.68,0.36,0.97,0.57c0.19,0.15,0.37,0.3,0.54,0.46
		c0.1,0.1,0.2,0.19,0.31,0.3c1.6-0.63,3.18-1.33,4.73-2.08c0.39-0.19,0.78-0.38,1.17-0.57c-0.33-0.07-0.66-0.19-0.96-0.33
		C95.9,95.31,95.43,95,94.97,94.68z"/>
</g>
</svg>
