<?xml version="1.0" encoding="utf-8"?>
<!-- Generator: Adobe Illustrator 24.1.2, SVG Export Plug-In . SVG Version: 6.00 Build 0)  -->
<svg version="1.1" id="Layer_1" xmlns="http://www.w3.org/2000/svg" xmlns:xlink="http://www.w3.org/1999/xlink" x="0px" y="0px"
	 viewBox="0 0 128 128" style="enable-background:new 0 0 128 128;" xml:space="preserve">
<style type="text/css">
	.st0{fill:#2D2D2D;}
</style>
<g>
	<path class="st0" d="M114.1,48.1c-1.8,0-3.9,4.5-4.1,8.6c0.8,0.2,2.3,0.4,4.2,0.4c1.9,0,3.3-0.2,4.1-0.4
		C118,52.7,115.9,48.1,114.1,48.1z M113.3,52.2c-0.2,0.2-0.6,0.2-0.8-0.1c-0.2-0.2-0.2-1.3,0-1.5c0.2-0.2,0.4,0.7,0.6,0.9
		C113.3,51.7,113.5,52,113.3,52.2z M115,52.2c-0.2-0.2,0-0.4,0.2-0.7c0.2-0.2,0.4-1.1,0.6-0.9c0.2,0.2,0.2,1.3,0,1.5
		C115.6,52.3,115.3,52.4,115,52.2z"/>
	<path class="st0" d="M98.9,111.2c-0.4-1-1.3-2.5-3.7-2.5h-7.4c-0.7,0-1.4-0.3-1.9-0.9c-0.5-0.5-0.7-1.3-0.6-2l2.2-16.1l0-0.1
		c0,0,1.4-3.4,3-8.5c0,0,0-0.1,0.1-0.1c-0.2-0.9-0.3-1.7-0.4-2.2c-1.5,0.3-5.3,0.9-11.4,1.1c0.1,1.7,0.6,7.3,1.7,10.2l0.1,0.1l0,0.2
		c0.1,2.7,0.6,13,0.9,18.3l0,0.9c0,0.9,0.8,1.6,1.7,1.6H98.9z"/>
	<path class="st0" d="M103.5,45.7c0.4,0.4,0.9,0.9,1.4,1.3c0-0.7,0.2-1.4,0.4-2.1c0.2-0.4,0.3-0.8,0.6-1.2c0.3-0.4,0.6-0.7,1-1
		c0.8-0.6,1.9-0.8,2.8-0.6c0.5,0.1,0.9,0.2,1.4,0.4c0.2,0.1,0.3,0.2,0.5,0.2c0.1,0.1,0.3,0.1,0.4,0.1c0.2,0,0.3,0.1,0.5,0.1l0.5,0
		c0.4,0,0.7,0.1,1.1,0c0.4,0,0.7,0,1.1,0l0.5,0c0.2,0,0.3,0,0.5-0.1c0.1,0,0.3-0.1,0.4-0.1c0.1-0.1,0.2-0.1,0.5-0.2
		c0.4-0.2,0.9-0.4,1.4-0.4c1-0.2,2,0.1,2.8,0.6c0.4,0.3,0.7,0.6,1,1c0.3,0.4,0.5,0.8,0.6,1.2c0.2,0.7,0.4,1.4,0.4,2.1
		c0.5-0.4,1-0.9,1.4-1.3c0.6-0.6,1.1-1.3,1.3-1.9c0.1-0.3,0.2-0.6,0.2-0.8c0-0.1,0-0.1,0-0.2c-0.5-0.1-1-0.2-1.4-0.4
		c-0.5-0.2-1-0.7-1.2-0.9c-1.3-1.2-2.8-2.2-4.4-2.9c-0.8-0.4-1.7-0.7-2.6-1c-1.6-0.4-3.3-0.4-4.9,0c-0.9,0.2-1.7,0.6-2.6,1
		c-1.6,0.7-3.1,1.8-4.4,2.9c-0.3,0.3-0.7,0.7-1.2,0.9c-0.4,0.2-0.9,0.4-1.4,0.4c0,0,0,0,0,0c0,0.3,0,0.6,0.2,1
		C102.4,44.4,102.9,45,103.5,45.7z"/>
	<path class="st0" d="M70.8,123.5c-0.1-0.1-0.2-0.1-0.3-0.1l-0.1,0c-34.9,5.2-51.7-0.2-58.6-6.2c-5-4.3-8.7-10.7-8.7-17.9
		c0-17.1,7.8-28,13.4-34.1c5.2-5.8,10.4-8.5,11.8-9.2c0.7-2.4,1.9-4.5,3.7-6.4c-3.2,1.4-6.9,3.4-10.5,6.2C8,65.9,0,80.5,0,99.4
		c0,7.6,3.9,14.4,9.2,19c15.7,13.6,51.4,9.3,61.6,7.8c0.2,0,0.7-0.8,0.7-1.4C71.4,124.3,71.2,123.8,70.8,123.5z"/>
	<path class="st0" d="M50.6,73.3c0.3,1.4,0.3,3.1,0.1,5.1c0.2,0.2,0.5,0.6,0.9,1.1c1,1.3,2.7,3.4,4.4,5c1.1,1,1.5,2.6,1.2,4
		c-1.2,4.7-3.8,15.8-4.9,20.3c-0.1,0.5,0,1.1,0.3,1.5c0.3,0.4,0.9,0.7,1.4,0.7h18c-0.7-1.1-2.2-2.6-4.7-2.6h-7.5
		c-0.7,0-1.2-0.3-1.6-0.9c-0.3-0.5-0.4-1.2-0.1-1.8c1.5-3.1,6.4-13.4,8.8-18.5c0.6-1.3,0.9-2.7,1-4.1c0-1.9,0-3.3,0-4
		C60.9,77.9,53.9,74.9,50.6,73.3z"/>
	<path class="st0" d="M121.8,49.4c0.7-1.2,0.4-2.7-0.1-4c-0.1-0.3-0.3-0.6-0.5-0.8c-0.1-0.1-0.2-0.2-0.3-0.3
		c-0.1-0.1-0.2-0.2-0.4-0.3c-0.5-0.3-1.1-0.4-1.7-0.3c-0.3,0.1-0.6,0.2-0.9,0.3c-0.1,0.1-0.3,0.2-0.6,0.3c-0.2,0.1-0.4,0.2-0.7,0.2
		c-0.2,0.1-0.5,0.1-0.7,0.1l-0.6,0c-0.4,0-0.8,0.1-1.2,0.1c-0.4,0-0.8,0-1.2-0.1l-0.6,0c-0.2,0-0.5-0.1-0.7-0.1
		c-0.2-0.1-0.5-0.1-0.7-0.2c-0.2-0.1-0.5-0.2-0.6-0.3c-0.3-0.1-0.6-0.2-0.9-0.3c-0.6-0.1-1.1,0-1.7,0.3c-0.1,0.1-0.3,0.2-0.4,0.3
		c-0.1,0.1-0.3,0.2-0.3,0.3c-0.2,0.2-0.4,0.5-0.5,0.8c-0.6,1.3-0.8,2.8-0.1,4c0.6,1,1.6,1.9,2.7,2.5c1-3,2.8-5.6,5-5.6
		c2.2,0,4,2.6,5,5.5C120.2,51.3,121.2,50.5,121.8,49.4z M109.8,48c-0.5,0-1-0.4-1-1c0-0.5,0.4-1,1-1c0.5,0,1,0.4,1,1
		C110.8,47.5,110.3,48,109.8,48z M117.6,47c0-0.5,0.4-1,1-1c0.5,0,1,0.4,1,1c0,0.5-0.4,1-1,1C118,48,117.6,47.5,117.6,47z"/>
	<path class="st0" d="M102.7,54.1c0.6,0.7,0.9,1.6,0.9,2.6c0.1,3.5,3.1,6.2,4.8,7.6c0.1-0.1,0.3-0.1,0.4-0.2
		c1.2-0.6,2.7-0.3,3.7,0.7c0.6,0.7,1.1,1.3,1.5,1.9c0.4-0.6,0.9-1.2,1.5-1.9c0.9-1,2.4-1.3,3.7-0.7c0.1,0.1,0.3,0.1,0.4,0.2
		c1.6-1.4,4.6-4.1,4.8-7.6c0-1,0.4-1.9,0.9-2.6c0.8-0.9,1.7-1.4,2.8-1.5c-1-3.4-3.2-5.4-3.2-5.4c0,0-0.1-0.1-0.1-0.1
		c-0.4,0.2-0.9,0.3-1.3,0.5c-0.1,0.8-0.3,1.7-0.8,2.4c-0.9,1.1-2.1,1.8-3.3,2.2c0.6,1.8,0.9,3.8,0.9,5.4c0,0.4-0.2,0.7-0.6,0.9
		c0,0-0.2,0.1-0.6,0.2c-0.1,0.9-0.5,1.8-1.1,2.6c-0.4,0.5-1,1-1.6,1.3c-0.6,0.3-1.4,0.4-2,0.5c-0.7,0-1.4-0.1-2-0.5
		c-0.6-0.3-1.2-0.8-1.6-1.3c-0.6-0.8-1-1.7-1.1-2.6c-0.4-0.1-0.6-0.1-0.6-0.2c-0.4-0.1-0.6-0.5-0.6-0.9c0-1.6,0.3-3.6,0.9-5.4
		c-1.3-0.3-2.5-1-3.4-2.2c-0.5-0.7-0.8-1.5-0.8-2.4c-0.5-0.1-1-0.3-1.6-0.6c0,0,0,0,0,0c0,0-2.3,2.1-3.4,5.6
		C100.9,52.7,101.9,53.2,102.7,54.1z"/>
	<path class="st0" d="M127.3,113.6c-0.2-0.9-0.7-1.7-1.6-2.5c-0.7-0.6-1.6-1-2.5-1h-7.9c-1.2,0-2.3-0.8-2.6-1.9
		c-3-9.7-5.3-16.8-6.7-21.3c-0.7-2.4-0.6-5,0.4-7.3c3.3-7.5,4.4-13.2,4.5-13.8c-0.4-0.2-0.9-0.3-1.2-0.1c-0.3,0.1-0.5,0.3-0.7,0.4
		c-0.3,0.3-0.8,0.3-1.2,0l-0.3-0.3c-1.8-1.5-5.4-4.7-5.6-9.1c0-0.4-0.1-1-0.5-1.5c-0.5-0.5-1.2-1.1-2.3-0.8c-0.3,0.1-0.6,0-0.9-0.2
		c-0.2-0.2-0.3-0.5-0.3-0.8c0.5-2.4,1.5-4.3,2.5-5.6c-1.1,0-2.5-0.2-4.1-0.8c-0.3-0.1-27.4-9.7-54-0.8c0,0-0.1,0-0.1,0
		c-1.7,0.6-3.3,1.2-5,1.9c-10.2,5.5-8.4,17.4-5.1,26.3c0.9,2.6,1.2,5.3,0.8,7.8c-0.5,3.5-1.8,6-4,7.7c-3,2.4-11.1,10.4-14.9,14.3
		c-0.6,0.6-0.7,1.5-0.2,2.2l4.7,7.1c0.6,0.9,1.7,1.5,2.8,1.5h13.2c-0.5-1.1-1.5-2.5-3.3-2.5c-2.7,0-6.6-0.1-8.2-0.2
		c-1.1,0-2-0.6-2.5-1.5c-0.5-0.9-0.5-1.9,0-2.8c0.4-0.8,1.2-1.5,2.3-2.2c1-0.7,2.7-1.5,4.7-2.5c6.1-3.2,15.3-7.9,18.4-13.5
		c3.4-8.1,3.9-15,2.6-17.6c-0.1-0.2-0.1-0.5,0-0.7c0-0.1,0.1-0.3,0.2-0.4c0-0.1,0.1-0.1,0.2-0.2l0.1-0.3l0.3-0.7
		c0.2-0.5,0.4-1,0.5-1.5c0.3-1,0.6-2,0.9-3c0.2-1,0.4-2.1,0.4-3.1c0-1,0-2.1-0.3-3.1c0.5,1,0.7,2,0.8,3.1c0.1,1.1,0.1,2.2,0,3.2
		c-0.1,1.1-0.2,2.2-0.5,3.2c-0.1,0.5-0.2,1.1-0.3,1.6l-0.2,0.8c3.1,1.6,14.9,6.9,24.1,6.9c9.2,0,14.5-0.9,15.9-1.2l0-0.6l0.2-1.7
		c0.1-1.1,0.3-2.3,0.4-3.4c0.2-1.1,0.4-2.3,0.7-3.4c0.3-1.1,0.6-2.2,1.1-3.3c-0.4,1.1-0.6,2.2-0.7,3.3c-0.1,1.1-0.2,2.3-0.2,3.4
		c0,1.1,0,2.3,0,3.4l0.1,1.7l0.1,1.7c0,0,0,0,0,0c0.2,1.4,0.9,5.3,1.5,8.7c0.3,1.8,7.2,11.9,17.5,25.9c0.4,0.6,1.1,0.9,1.8,0.9
		H127.3z"/>
	<path class="st0" d="M110.1,58.7c0.4,0.6,0.9,1.1,1.4,1.4c0.8,0.6,1.7,0.9,2.6,0.9c0.9,0,1.8-0.3,2.6-0.9c0.5-0.4,0.9-0.9,1.4-1.4
		c-0.9,0.2-2.2,0.3-3.9,0.3C112.4,59,111.1,58.8,110.1,58.7z"/>
</g>
</svg>
