<?xml version="1.0" encoding="utf-8"?>
<!-- Generator: Adobe Illustrator 24.1.2, SVG Export Plug-In . SVG Version: 6.00 Build 0)  -->
<svg version="1.1" id="Layer_1" xmlns="http://www.w3.org/2000/svg" xmlns:xlink="http://www.w3.org/1999/xlink" x="0px" y="0px"
	 viewBox="0 0 128 128" style="enable-background:new 0 0 128 128;" xml:space="preserve">
<style type="text/css">
	.st0{fill:#2D2D2D;}
</style>
<g>
	<path class="st0" d="M3.6,115.4c0.5,0,1.1-0.1,1.7-0.2c0.6-0.1,1.2-0.1,1.9,0c0.7,0.1,1.5,0.3,2.2,0.9c0.3,0.3,0.6,0.7,0.8,1.1
		c0.1,0.2,0.1,0.2,0.1,0.4c0,0.1,0.1,0.2,0.1,0.4c0.3,0.8,0.6,1.7,0.9,2.8c6.9-0.9,13.8-1.4,20.8-1.5c5.4-0.1,10.8,0,16.1,0.3
		c5.4,0.3,10.7,0.9,16,1.5c2.7,0.3,5.3,0.5,8,0.8c2.7,0.3,5.4,0.6,8,0.9c5,0.6,10,1.1,15,1.4c0,0,0,0,0,0c0.3-0.2,0.4-0.5,0.4-0.7
		c0-0.3,0-0.6-0.2-0.8c-0.3-0.5-0.8-0.7-1.4-0.8l-1,0l0.8-0.6c0.4-0.3,0.7-0.8,0.9-1.3c0.2-0.5,0.3-1.1,0.3-1.6
		c0-0.5-0.1-1.1-0.3-1.6c-0.2-0.5-0.6-0.9-1.1-1.2l-0.4-0.3l0.3-0.3c0.4-0.3,0.7-0.7,0.8-1.2c0.1-0.5,0-1.1-0.2-1.6
		c-0.2-0.5-0.5-1-0.8-1.4c-0.4-0.4-0.9-0.7-1.3-0.8l-0.4-0.1l0.3-0.3c0.4-0.4,0.3-1.1,0.2-1.8c-0.1-0.4-0.2-0.8-0.3-1.2
		c-0.1,0.1-0.2,0.2-0.2,0.3c-0.2,0.2-0.5,0.4-0.7,0.6c-0.5,0.4-1,0.7-1.6,0.9c-1.1,0.6-2.2,1-3.4,1.3c-1.2,0.3-2.4,0.6-3.6,0.7
		c-1.2,0.1-2.5,0.1-3.9-0.3c-0.3-0.1-0.7-0.3-1-0.4c-0.2-0.1-0.4-0.2-0.7-0.3c-0.5-0.2-1-0.3-1.5-0.4c-1.1-0.3-2.2-0.4-3.3-0.6
		c-1.1-0.2-2.3-0.3-3.4-0.4c-1.2-0.1-2.3-0.2-3.5-0.3c-2.3-0.2-4.7-0.3-7-0.5c-2.3-0.1-4.6,0-7,0.2c-2.3,0.2-4.7,0.6-7,1.2
		c-1.2,0.3-2.6,0.3-3.8,0c-0.6-0.2-1.3-0.4-1.8-0.8c-0.3-0.2-0.6-0.4-0.8-0.8c-0.1-0.1-0.2-0.2-0.2-0.4c-1.1-0.1-2.1-0.4-3.1-0.9
		c-0.6-0.3-1.1-0.7-1.6-1.4c-0.2-0.2-0.4-0.6-0.5-1c-0.4,0-0.8,0-1.3,0c-0.7-0.1-1.5-0.2-2.2-0.4c-1.9,0.2-3.7,0.5-5.5,1.1
		c-1.4,0.4-2.8,1-3.9,1.8c0.1,0,0.1,0,0.2,0c0.3-0.1,0.6-0.1,1-0.2c0.1,0,0.2-0.1,0.5-0.1c0.1,0,0.1,0,0.2,0c0.1,0,0.2,0.1,0.2,0.1
		c0.1,0.1,0.3,0.2,0.4,0.3c0,0.1,0.1,0.1,0.1,0.2c0.1,0.1,0.1,0.4,0.1,0.4c0,0,0,0.1,0,0.1c0,0.1-0.1,0.2-0.1,0.2
		c0,0.1-0.1,0.2-0.1,0.3c-0.4,0.7-0.8,1.3-1.3,1.9c-0.2,0.2-0.3,0.4-0.5,0.6c0.3,0.1,0.7,0.2,1,0.3c0.8,0.2,1.6,0.4,2.4,0.5
		c0.4,0.1,0.8,0.1,1,0.1c0.1,0,0.4-0.1,0.6-0.1c0.2,0,0.5-0.1,0.7-0.1c0.9-0.1,1.8,0,2.7,0.1l1.1,0.1l-0.5,0.9
		c-0.4,0.6-0.7,1.1-1.1,1.6c-0.4,0.5-0.9,0.9-1.4,1.3c-0.5,0.4-1,0.8-1.6,1.1c-0.3,0.2-0.6,0.3-0.9,0.5c0.3,0.2,0.6,0.3,0.9,0.5
		c0.6,0.2,1.3,0.4,2,0.5c0.7,0.1,1.4,0.1,2.1,0.1c0.7,0,1.4-0.1,2-0.4c-0.6,0.4-1.3,0.6-2,0.7c-0.7,0.1-1.4,0.2-2.1,0.2
		c-0.7,0-1.4-0.1-2.2-0.3c-0.7-0.2-1.4-0.5-2-1l-0.6-0.5l0.7-0.3c0.5-0.2,1-0.5,1.5-0.8c0.5-0.3,0.9-0.7,1.3-1
		c0.4-0.4,0.8-0.8,1.2-1.3c0.1-0.1,0.2-0.3,0.3-0.4c-0.4,0-0.8,0-1.2,0.1c-0.2,0-0.4,0-0.6,0.1c-0.2,0-0.3,0.1-0.6,0.1
		c-0.6,0.1-1,0-1.5,0c-0.9-0.1-1.7-0.3-2.6-0.6c-0.8-0.2-1.6-0.5-2.4-0.6l-1.9-0.4l1.6-1c0.5-0.3,1-0.8,1.4-1.3
		c0.3-0.3,0.5-0.7,0.8-1c-0.1,0-0.2,0-0.3,0c-0.8,0.1-1.6,0.1-2.3,0.1l-1.5-0.1l1-1c1.7-1.7,3.9-2.5,6.1-3c1.7-0.4,3.5-0.5,5.2-0.4
		c-0.1,0-0.1,0-0.2-0.1c-0.9-0.3-1.7-0.8-2.5-1.2c-0.7-0.4-1.5-0.7-2.3-1l-0.9,0.1c-2.2,0.2-4.5,0.4-6.7,0.6
		c-1.1,0.1-2.2,0.2-3.3,0.3c-1.1,0.1-2.2,0.2-3.2,0.4c-0.5,0.1-1,0.2-1.5,0.4c-0.2,0.1-0.4,0.2-0.7,0.3l-0.7,0.4
		c-0.3,0.2-0.7,0.3-1,0.5l3.1,0.5l2.6,0.4c0.9,0.1,1.7,0.3,2.6,0.4c0.1,0,0.1,0.1,0.1,0.1c0,0.1-0.1,0.1-0.1,0.1
		c-1.8,0.2-3.5,0.1-5.3,0.1c-0.6,0-1.3-0.1-1.9-0.1c0,0.5-0.1,0.9-0.3,1.2c0,0,0,0,0,0c0.2,0,0.5,0.1,0.7,0.2
		c0.1-0.1,0.3-0.1,0.4-0.2c0.4-0.2,0.9-0.4,1.3-0.5c0.2-0.1,0.5-0.2,0.7-0.2l0.4-0.1c0.1,0,0.3-0.1,0.5-0.1c0,0,0,0,0,0c0,0,0,0,0,0
		l0,0.2c0,0.1-0.1,0.2-0.2,0.3L9.8,106c-0.2,0.2-0.3,0.4-0.5,0.6c-0.3,0.4-0.7,0.7-1.1,1c-0.7,0.6-1.6,1.2-2.4,1.7
		c-0.5,0.2-1,0.4-1.5,0.5c1,0,1.9,0,2.9-0.1c1.2,0,2.4,0.1,3.7,0.2c1.2,0.1,2.5,0.3,3.7,0.5l0,0c0.1,0,0.1,0.1,0.1,0.1
		c0,0,0,0.1-0.1,0.1c-1.2,0.7-2.4,1-3.7,1.3c-1.3,0.2-2.5,0.4-3.8,0.3c-0.5,0-1-0.1-1.5-0.1c-0.2,0.3-0.4,0.6-0.7,0.9
		c-0.3,0.4-0.6,0.7-1,1c-0.4,0.3-0.8,0.6-1.4,0.7c-0.1,0-0.2,0.1-0.4,0.1c0,0,0,0,0,0C2.5,115.2,3,115.4,3.6,115.4z M90.6,119.2
		c0,0.5-0.5,0.9-1.2,0.9c-0.7,0-1.2-0.4-1.2-0.9c0-0.5,0.5-0.9,1.2-0.9C90,118.3,90.6,118.7,90.6,119.2z M87.3,112.5
		c0.8,0,1.5,0.5,1.5,1.1c0,0.6-0.7,1.1-1.5,1.1s-1.5-0.5-1.5-1.1C85.8,113,86.5,112.5,87.3,112.5z M85.9,120.5
		c0.7,0,1.2,0.4,1.2,0.9c0,0.5-0.5,0.9-1.2,0.9c-0.7,0-1.2-0.4-1.2-0.9C84.7,120.9,85.2,120.5,85.9,120.5z M80.5,116.7
		c0.6,0,1,0.3,1,0.8s-0.5,0.8-1,0.8s-1-0.3-1-0.8S79.9,116.7,80.5,116.7z M77.9,120.4c0,0.5-0.5,0.9-1.2,0.9c-0.7,0-1.2-0.4-1.2-0.9
		c0-0.5,0.5-0.9,1.2-0.9C77.3,119.5,77.9,119.9,77.9,120.4z M75.1,113.8c0.6,0,1.1,0.4,1.1,0.8c0,0.4-0.5,0.8-1.1,0.8
		c-0.6,0-1.1-0.4-1.1-0.8C74,114.1,74.5,113.8,75.1,113.8z M70.8,116.9c0.6,0,1,0.3,1,0.8c0,0.4-0.5,0.8-1,0.8c-0.6,0-1-0.3-1-0.8
		C69.8,117.3,70.3,116.9,70.8,116.9z M68,110.6c0.6,0,1,0.3,1,0.8s-0.5,0.8-1,0.8c-0.6,0-1-0.3-1-0.8S67.5,110.6,68,110.6z
		 M63.5,112c0.3,0,0.6,0.2,0.6,0.4c0,0.2-0.2,0.4-0.6,0.4s-0.6-0.2-0.6-0.4C62.9,112.2,63.2,112,63.5,112z M64,115.7
		c0.6,0,1.1,0.4,1.1,0.8c0,0.4-0.5,0.8-1.1,0.8c-0.6,0-1.1-0.4-1.1-0.8C62.9,116.1,63.3,115.7,64,115.7z M59.1,110.7
		c0.6,0,1,0.3,1,0.8c0,0.4-0.5,0.8-1,0.8c-0.6,0-1-0.3-1-0.8C58.1,111,58.5,110.7,59.1,110.7z M56.9,115c0.7,0,1.3,0.4,1.3,1
		c0,0.5-0.6,1-1.3,1c-0.7,0-1.3-0.4-1.3-1C55.5,115.4,56.1,115,56.9,115z M52.5,109.8c0.3,0,0.6,0.2,0.6,0.4s-0.2,0.4-0.6,0.4
		c-0.3,0-0.6-0.2-0.6-0.4S52.2,109.8,52.5,109.8z M49.6,112.4c0.7,0,1.2,0.4,1.2,0.9c0,0.5-0.5,0.9-1.2,0.9c-0.7,0-1.2-0.4-1.2-0.9
		C48.4,112.8,49,112.4,49.6,112.4z M47.6,116.5c0.5-0.3,1.1-0.1,1.3,0.2c0.2,0.4-0.1,0.9-0.6,1.2c-0.5,0.3-1.1,0.1-1.3-0.2
		C46.8,117.3,47.1,116.8,47.6,116.5z M42.3,114.6c0.6,0,1.1,0.4,1.1,0.8s-0.5,0.8-1.1,0.8c-0.6,0-1.1-0.4-1.1-0.8
		S41.7,114.6,42.3,114.6z M37.6,110.9c0.3-0.3,0.9-0.3,1.3,0c0.5,0.3,0.6,0.9,0.3,1.3c-0.3,0.3-0.9,0.3-1.3,0
		C37.5,111.8,37.4,111.2,37.6,110.9z M35,113.9c0.8,0,1.4,0.5,1.4,1c0,0.6-0.6,1-1.4,1c-0.8,0-1.4-0.5-1.4-1
		C33.6,114.3,34.2,113.9,35,113.9z M30,108.6c-0.3,0-0.6-0.2-0.6-0.4s0.2-0.4,0.6-0.4s0.6,0.2,0.6,0.4S30.3,108.6,30,108.6z
		 M21.9,113c0.3,0,0.6,0.2,0.6,0.4c0,0.2-0.2,0.4-0.6,0.4s-0.6-0.2-0.6-0.4C21.4,113.2,21.6,113,21.9,113z M18.6,118.5
		c0,0.2-0.2,0.4-0.6,0.4c-0.3,0-0.6-0.2-0.6-0.4c0-0.2,0.2-0.4,0.6-0.4C18.3,118.1,18.6,118.3,18.6,118.5z M17.6,114.6
		c0.5,0,0.8,0.3,0.8,0.6c0,0.3-0.4,0.6-0.8,0.6c-0.5,0-0.8-0.3-0.8-0.6C16.7,114.9,17.1,114.6,17.6,114.6z M13.3,112.7
		c0.5,0,0.8,0.3,0.8,0.6c0,0.3-0.4,0.6-0.8,0.6c-0.5,0-0.8-0.3-0.8-0.6C12.5,112.9,12.8,112.7,13.3,112.7z M13.3,116.7
		c0.5,0,0.9,0.3,0.9,0.7c0,0.4-0.4,0.7-0.9,0.7c-0.5,0-0.9-0.3-0.9-0.7C12.4,117,12.8,116.7,13.3,116.7z M7.6,113.5
		c0.3,0,0.6,0.2,0.6,0.4c0,0.2-0.2,0.4-0.6,0.4c-0.3,0-0.6-0.2-0.6-0.4C7,113.6,7.3,113.5,7.6,113.5z"/>
	<path class="st0" d="M109.1,73.3c-1.3,0.1-2.7,0.2-4,0.2c0.1,0,0.3,0,0.4,0c0.5,0.1,1,0.3,1.5,0.5c0.4,0.2,0.7,0.6,1,1
		c3.4-0.5,6.7-1.2,10-2.1c1.7-0.4,3.3-0.9,5-1.5c0.3-0.1,0.7-0.2,1-0.3c-0.8,0.2-1.7,0.3-2.5,0.5c-2.1,0.4-4.1,0.7-6.2,0.9
		C113.2,72.8,111.2,73.1,109.1,73.3z"/>
	<path class="st0" d="M95.3,124.1c0.3,0,0.5,0,0.8,0.1c2.4,0.1,4.8,0.2,7.2,0.2c1.8-1.4,3.4-3.1,4.4-5c1.2-2.2,1.8-4.6,1.9-7
		c0.1-2.4-0.2-4.9-0.9-7.3c-0.6-2.4-1.5-4.8-2.7-7c-0.3-0.5-0.6-1.1-1-1.6c-0.1-0.1-0.2-0.2-0.3-0.4c-0.2,0.3-0.4,0.6-0.6,0.9
		c-0.6,0.5-1.2,0.9-1.9,1.3c-1.3,0.6-2.9,0.8-4.2,1c-1.2,0.3-2.5,1-3.7,1.7c-1.2,0.6-2.3,1.4-3.4,2.1c0,0,0,0,0.1,0.1
		c0,0,0,0.1,0,0.2c0,0,0,0,0,0c0.1,0.1,0.2,0.3,0.3,0.4c0.4,0.6,0.8,1.2,1,1.9c0.3,0.7,0.5,1.4,0.6,2.1c0,0.4,0,0.7,0,1.1
		c-0.1,0.3-0.2,0.6-0.4,0.8c0.4,0.2,0.8,0.6,1.1,0.9c0.4,0.4,0.7,0.9,0.9,1.5c0.2,0.5,0.4,1.1,0.4,1.7c0,0.5-0.2,1-0.5,1.4
		c0.4,0.3,0.8,0.7,1.1,1.2c0.3,0.6,0.5,1.3,0.4,1.9c0,0.7-0.2,1.3-0.4,1.9c-0.2,0.4-0.4,0.8-0.8,1.1c0.1,0.1,0.3,0.1,0.4,0.2
		c0.3,0.2,0.6,0.5,0.7,0.9c0.1,0.3,0.2,0.7,0.1,1.1C95.8,123.7,95.6,123.9,95.3,124.1z"/>
	<path class="st0" d="M88.2,92.3c0.3-0.2,0.7-0.3,1.1-0.5c0.7-0.3,1.5-0.5,2.2-0.7c1.5-0.4,3-0.9,4.5-1l1.1-0.1c0.3,0,0.7,0,1-0.1
		c0.6-0.1,1.3-0.2,2-0.3c-0.2-0.4-0.4-0.8-0.6-1.2l0-0.1c-0.7,0.5-1.5,0.6-2.2,0.7c-0.8,0.1-1.5,0.2-2.3,0.2
		c-1.5,0.1-3.1-0.2-4.6-0.4c-1.5-0.2-3-0.4-4.5-0.3c-1.2,0-2.4,0.1-3.6,0.3c0.3,1.4,0.6,2.7,1,4.1c0,0.1,0.1,0.3,0.1,0.4
		c1.3,0.1,2.7-0.1,3.9-0.6C87.6,92.6,87.9,92.5,88.2,92.3z"/>
	<path class="st0" d="M90.9,102.9c1-0.8,2-1.7,3.1-2.6c1.1-0.8,2.3-1.7,3.8-2.2c1.4-0.4,2.6-0.9,3.9-1.3c0.6-0.2,1.2-0.4,1.8-0.7
		c0.3-0.2,0.6-0.3,0.8-0.5l-0.4-0.3c-1.1-1-1.9-2.1-2.5-3.3c-0.4-0.7-0.8-1.4-1.1-2.1c-0.5,0.4-1.1,0.8-1.8,1.1
		c-0.4,0.2-0.8,0.3-1.2,0.4l-1.1,0.3c-1.5,0.3-3,0.4-4.4,0.6c-0.7,0.1-1.5,0.3-2.2,0.5c-0.4,0.1-0.7,0.2-1,0.3
		c-0.4,0.1-0.7,0.3-1.1,0.4c-1.3,0.4-2.7,0.4-4,0.1c0.5,1.6,1,3.2,1.7,4.7C87.3,99.7,89.2,101.2,90.9,102.9z"/>
	<path class="st0" d="M81.7,86.5c0.1,0.7,0.3,1.4,0.4,2.1c1.2-0.4,2.4-0.6,3.6-0.8c1.5-0.2,3.1-0.2,4.6-0.1c1.5,0,3-0.1,4.5,0.1
		c0.8,0.1,1.5,0.1,2.3,0.2c0.7,0.1,1.5,0.2,2.2,0.2l-0.8-1.5c-0.3-0.6-0.5-1.4-0.4-2.2c0,0,0-0.1,0-0.1c-0.1,0-0.1,0-0.2,0
		c-0.8,0.1-1.6-0.3-2.3-0.6c-0.7-0.3-1.4-0.6-2.1-1c-0.6-0.4-1.3-0.8-1.9-1.3c0,0,0-0.1,0-0.1c0,0,0.1,0,0.1,0
		c0.7,0.2,1.4,0.5,2.1,0.7c0.7,0.2,1.4,0.4,2.1,0.5c0.7,0.1,1.4,0.1,2.1,0.2l0.6,0.1c0.1-0.2,0.3-0.5,0.5-0.7c0.5-0.6,1.1-1,1.7-1.4
		c0.6-0.4,1.2-0.7,1.9-0.9c0.6-0.2,1.1-0.5,1.6-0.8c1.8-1.1,3.6-2.3,5.5-3.5c-0.7,0.1-1.4,0.1-2.1,0.2l-0.3,0l-0.1-0.2
		c-0.1-0.4-0.4-0.8-0.8-1.1c-0.4-0.3-0.8-0.5-1.3-0.6c-1-0.3-2-0.3-3-0.2c0.3,0,0.5-0.1,0.8-0.1c-0.1,0-0.2,0-0.3,0
		c-0.2,0-0.4,0.1-0.6,0.1l2.4-0.9c0.8-0.3,1.6-0.6,2.3-0.9c0.8-0.3,1.5-0.6,2.3-1c0.4-0.2,0.7-0.3,1.1-0.5c0.2-0.1,0.3-0.2,0.5-0.3
		c-0.2-0.1-0.4-0.2-0.6-0.3l-0.6-0.3l-0.3-0.2c-0.1,0-0.1-0.1-0.3-0.2c-0.1-0.1-0.1-0.1-0.1-0.2c-0.1-0.2,0-0.4,0.1-0.6
		c0,0,0.1-0.1,0.1-0.1c-0.1-0.1-0.2-0.1-0.3-0.2c-0.6-0.3-1.1-0.7-1.6-1.1c-1-0.8-1.9-1.5-2.8-2.3c-0.8-0.4-1.8-0.6-2.8-0.6
		c-1.1,0-2.1,0.1-3.2,0.2c-2.2,0.3-4.4,0.8-6.6,1.4c-2.2,0.6-4.1,1.4-5.9,2.7c-1.7,1.3-3.1,3.1-4,5.2c-0.4,1-0.9,2.1-1.1,3.2
		c-0.2,1.1-0.2,2.2-0.2,3.3C80.9,82.1,81.3,84.3,81.7,86.5z M98.5,68.8c1.1,0,1.9,0.7,1.9,1.5c0,0.9-0.9,1.5-1.9,1.5
		c-1.1,0-1.9-0.7-1.9-1.5C96.6,69.4,97.5,68.8,98.5,68.8z"/>
	<path class="st0" d="M28.6,101.4c0.8,0.2,1.6,0.3,2.4,0.2c0.8,0,1.7-0.2,2.5-0.3l2.6-0.5l-1.8,2.2c0,0,0,0.1,0.1,0.1
		c0.2,0.2,0.6,0.5,1,0.7c0.8,0.5,1.8,0.7,2.7,0.8l1,1.1c0,0,0,0.1,0.1,0.2c0.1,0.1,0.2,0.3,0.4,0.5c0.3,0.3,0.8,0.6,1.2,0.8
		c0.5,0.2,1,0.4,1.5,0.5c0.5,0.1,1,0.1,1.6,0c2.3-0.2,4.7-0.7,7-1.1c2.3-0.4,4.6-0.9,7.1-1.1c2.4-0.1,4.8-0.1,7.1,0
		c1.2,0,2.4,0.1,3.6,0.2c1.2,0.1,2.4,0.2,3.6,0.4c1.2,0.2,2.4,0.4,3.6,0.8c0.6,0.2,1.2,0.4,1.8,0.7c0.3,0.1,0.6,0.3,0.9,0.5
		c0.2,0.1,0.4,0.2,0.6,0.3c0.9,0.4,2,0.5,3.1,0.5c1.1,0,2.3-0.1,3.4-0.3c1.1-0.2,2.3-0.5,3.4-0.8c0.5-0.2,1.1-0.4,1.6-0.6
		c0.4-0.2,0.9-0.5,1.1-0.8c0-0.1-0.1-0.3-0.1-0.4c-0.2-0.6-0.5-1.3-0.8-1.9c-0.2-0.4-0.4-0.8-0.7-1.1c-2-1.3-4.1-2.4-6.3-3.4
		c-2.4-1.1-4.9-2-7.4-2.7c-2.5-0.7-5.1-1.2-7.7-1.4C66.3,95,63.7,94.9,61,95c-2.7,0-5.3,0.2-8,0.4c-2.7,0.2-5.3,0.5-8,0.8
		c-2.7,0.3-5.3,0.7-7.9,1.3c-2.6,0.6-5.2,1.3-7.7,2.2l0,0l0,0c-1.2,0.3-2.3,0.4-3.4,0.5l-1.3,0.1c0.5,0.1,0.9,0.2,1.4,0.3
		C26.9,100.9,27.8,101.2,28.6,101.4z M85.2,100.7c0.9,0.2,0.2,0.3,0.1,0.9s-1-0.3-1.7-0.4c0,0-0.3-0.2-0.3-0.6
		C83.4,100.2,84.4,100.4,85.2,100.7z M82.6,102.2c0,0,0.4-0.2,0.8-0.1c0.4,0,1.2,0.4,1.5,0.8c0.4,0.4,0.1,0.7-0.3,0.6
		c-0.3-0.1-0.8-0.2-1.6-0.2C82.4,103.2,82.6,102.9,82.6,102.2z M82.2,104.4c0,0,0.4-0.2,0.8-0.2c0.4,0,1.2,0.3,1.6,0.7
		c0.4,0.4,0.1,0.7-0.2,0.6c-0.4-0.1-0.9-0.1-1.6-0.1S82.1,105.1,82.2,104.4z M82.1,106.6c1-0.2,1.8-0.1,2.1,0.4
		c0.2,0.5,1.1,0.9,0,0.9c-1.1-0.1-2.2-0.3-2.5-0.7C81.4,106.7,82.1,106.6,82.1,106.6z M79.1,98.3c0.9,0.2,0.2,0.3,0.1,0.9
		c-0.1,0.5-1-0.3-1.7-0.4c0,0-0.3-0.2-0.3-0.6C77.2,97.8,78.2,98.1,79.1,98.3z M76.6,100.2c0,0,0.4-0.2,0.8-0.1
		c0.4,0,1.2,0.4,1.5,0.8c0.4,0.4,0.1,0.7-0.3,0.6c-0.3-0.1-0.8-0.2-1.6-0.2C76.3,101.2,76.5,100.9,76.6,100.2z M76.1,102.4
		c0,0,0.4-0.2,0.8-0.2c0.4,0,1.2,0.3,1.6,0.7c0.4,0.4,0.1,0.7-0.2,0.6c-0.4-0.1-0.9-0.1-1.6-0.1C76,103.4,76.1,103.1,76.1,102.4z
		 M76.3,104.7c1-0.1,1.8,0.1,2,0.6c0.2,0.6,1,1-0.1,0.8c-1.1-0.2-2.2-0.5-2.4-0.9C75.6,104.8,76.3,104.7,76.3,104.7z M72.2,105
		c-1.1,0-2.2-0.2-2.5-0.6c-0.3-0.4,0.4-0.6,0.4-0.6c1-0.2,1.8-0.2,2.1,0.3C72.4,104.7,73.4,105,72.2,105z M72.2,99.4
		c-0.4-0.1-0.9,0-1.6,0.1c-0.7,0.1-0.6-0.2-0.7-0.9c0,0,0.4-0.2,0.8-0.3c0.4-0.1,1.2,0.1,1.7,0.5C72.8,99.1,72.6,99.5,72.2,99.4z
		 M71.6,96.4c0.9-0.1,0.3,0.2,0.4,0.8c0.1,0.5-1,0.1-1.7,0.2c0,0-0.4-0.1-0.5-0.5C69.7,96.6,70.7,96.5,71.6,96.4z M70.4,100.9
		c0.4-0.1,1.2,0.1,1.7,0.5c0.4,0.3,0.2,0.7-0.1,0.6c-0.4-0.1-0.9,0-1.6,0.1c-0.7,0.1-0.6-0.2-0.7-0.9C69.6,101.3,70,101,70.4,100.9z
		 M66.5,104.3c-1.1,0-2.2-0.2-2.5-0.6c-0.3-0.4,0.4-0.6,0.4-0.6c1-0.2,1.8-0.2,2.1,0.3C66.7,104,67.6,104.4,66.5,104.3z M66.2,101.4
		c-0.4,0-0.9,0.1-1.6,0.3c-0.7,0.2-0.6-0.2-0.8-1c0,0,0.4-0.3,0.8-0.4c0.4-0.1,1.2,0,1.7,0.4C66.8,101,66.6,101.5,66.2,101.4z
		 M65.4,96c0.9-0.1,0.3,0.2,0.4,0.8c0.1,0.5-1,0.1-1.7,0.2c0,0-0.4-0.1-0.5-0.5C63.6,96.1,64.5,96,65.4,96z M65.1,98
		c1.1-0.1,0.5,0.1,0.9,0.7c0.4,0.6-0.4,0.4-1.2,0.6c-0.9,0.2-0.7,0-1.2-0.4C63.6,99,64,98.1,65.1,98z M61,103.2
		c0.3,0.5,1.3,0.8,0.2,0.9c-1.1,0.1-2.2,0.2-2.6-0.2c-0.3-0.4,0.3-0.7,0.3-0.7C59.8,102.8,60.7,102.7,61,103.2z M60.3,100.4
		c0.5,0.1,0.7,0.3,0.6,0.8c-0.1,0.5-1.1,0.5-2,0.7c0,0-0.9-0.7-0.7-1.1C58.3,100.5,59.8,100.3,60.3,100.4z M59.7,98.2
		c0.4,0.6-0.4,0.4-1.2,0.6c-0.9,0.2-0.7,0-1.2-0.4c0,0,0.4-0.8,1.5-1C59.8,97.4,59.3,97.6,59.7,98.2z M58.2,95.8
		c0.9-0.2,0.4,0.2,0.5,0.7c0.2,0.5-1,0.2-1.7,0.5c0,0-0.4,0-0.5-0.4C56.4,96.2,57.4,96,58.2,95.8z M55.9,103.9
		c0.3,0.5,1.3,0.7,0.2,0.8c-1.1,0.1-2.2,0.2-2.6-0.2c-0.3-0.4,0.3-0.6,0.3-0.6C54.7,103.5,55.5,103.4,55.9,103.9z M54.9,101.8
		c-0.1,0.4-1.1,0.4-2,0.6c0,0-0.9-0.6-0.7-0.9c0.1-0.3,1.6-0.5,2.1-0.4S55,101.3,54.9,101.8z M54.4,99.2c0.4,0.6-0.4,0.4-1.2,0.6
		c-0.9,0.2-0.7,0-1.2-0.4c0,0,0.4-0.8,1.5-1C54.5,98.4,53.9,98.6,54.4,99.2z M52.7,96.2c0.9-0.2,0.4,0.2,0.5,0.7
		c0.2,0.5-1,0.2-1.7,0.5c0,0-0.4,0-0.5-0.4C50.8,96.6,51.8,96.4,52.7,96.2z M49.8,105.4c-1.1,0.1-2.2,0.2-2.6-0.2
		c-0.3-0.4,0.3-0.6,0.3-0.6c0.9-0.4,1.8-0.4,2.1,0C49.9,105.1,50.9,105.3,49.8,105.4z M48.3,101.6c0.5,0.1,0.7,0.3,0.6,0.8
		c-0.1,0.5-1.1,0.5-2,0.7c0,0-0.9-0.7-0.7-1.1C46.3,101.7,47.7,101.5,48.3,101.6z M47.6,100.1c0.4,0.6-0.4,0.4-1.2,0.6
		c-0.9,0.2-0.7,0-1.2-0.4c0,0,0.4-0.8,1.5-1S47.1,99.5,47.6,100.1z M46.1,96.9c0.9-0.2,0.4,0.2,0.5,0.7c0.2,0.5-1,0.2-1.7,0.5
		c0,0-0.4,0-0.5-0.4C44.2,97.3,45.2,97.1,46.1,96.9z M43.5,105.5c0.4,0.4,1.4,0.5,0.3,0.8c-1.1,0.3-2.2,0.5-2.6,0.2
		c-0.4-0.3,0.2-0.7,0.2-0.7C42.3,105.2,43.1,105.1,43.5,105.5z M42.3,102.9c0.5,0.1,0.7,0.3,0.6,0.7c-0.1,0.4-1.1,0.4-2,0.6
		c0,0-0.9-0.6-0.7-0.9C40.3,103,41.8,102.9,42.3,102.9z M41.9,101.3c0.4,0.6-0.4,0.4-1.2,0.6c-0.9,0.2-0.7,0-1.2-0.4
		c0,0,0.4-0.8,1.5-1C42,100.4,41.5,100.7,41.9,101.3z M40.2,98.1c0.9-0.2,0.4,0.2,0.5,0.7c0.2,0.5-1,0.2-1.7,0.5c0,0-0.4,0-0.5-0.4
		C38.4,98.5,39.4,98.3,40.2,98.1z"/>
	<path class="st0" d="M112.3,70.1l-0.3,0.3c-0.4,0.4-0.8,0.6-1.2,0.7c-0.4,0.2-0.8,0.3-1.2,0.5c-0.8,0.3-1.5,0.5-2.3,0.7
		c0.5-0.1,1-0.2,1.6-0.3c2.1-0.4,4.1-0.7,6.2-1c2.1-0.3,4.2-0.5,6.2-0.6c1.1-0.1,2.2-0.1,3.3-0.1c-0.6-0.1-1.2-0.2-1.7-0.3
		c-1.7-0.3-3.5-0.4-5.3-0.6c-1.8-0.2-3.5-0.2-5.3-0.3l-1.1,0c0.3,0.2,0.5,0.4,0.8,0.6L112.3,70.1z"/>
	<path class="st0" d="M104.3,126.4l-1,0c-2.4,0-4.8-0.1-7.2-0.2c-0.3,0-0.5,0-0.8-0.1l-0.1,0c-5-0.3-10-0.8-15-1.4
		c-2.7-0.3-5.3-0.6-8-0.9c-2.7-0.2-5.3-0.5-8-0.8c-5.3-0.5-10.7-1.1-16-1.5c-5.4-0.3-10.8-0.5-16.1-0.3c-7,0.1-13.9,0.6-20.8,1.5
		l-1,0.1c-3.4,0.5-6.9,1-10.3,1.6c5.3-0.5,10.7-1,16-1.2c5.3-0.3,10.7-0.3,16-0.3c5.3,0.1,10.7,0.3,16,0.7c5.3,0.4,10.6,1,15.9,1.6
		c2.7,0.3,5.4,0.5,8,0.7c2.6,0.2,5.3,0.5,8,0.8c5.3,0.5,10.7,1,16.1,1.1c5.4,0.1,10.8,0,16.1-0.6c5.3-0.6,10.7-1.5,15.8-2.9
		C120.1,125.8,112.2,126.4,104.3,126.4z"/>
</g>
</svg>
