<?xml version="1.0" encoding="utf-8"?>
<!-- Generator: Adobe Illustrator 24.1.2, SVG Export Plug-In . SVG Version: 6.00 Build 0)  -->
<svg version="1.1" id="Layer_1" xmlns="http://www.w3.org/2000/svg" xmlns:xlink="http://www.w3.org/1999/xlink" x="0px" y="0px"
	 viewBox="0 0 128 128" style="enable-background:new 0 0 128 128;" xml:space="preserve">
<style type="text/css">
	.st0{fill:#2D2D2D;}
</style>
<g>
	<path class="st0" d="M42.9,127.9c0.1,0.1,0.1,0,0.1,0.1C43.1,128,43,128,42.9,127.9C43,128,42.9,127.9,42.9,127.9z"/>
	<path class="st0" d="M112,79c1,1.6,2.2,3.2,3.2,5c0,0,0,0.1,0.1,0.1c0.2,0.2,0.4,0.5,0.6,0.8l0.3,0.4c0,0.1,0.1,0.1,0.1,0.2l0,0.1
		c0.3,0.2,0.5,0.5,0.7,0.9c0.1,0.2,0.1,0.3,0.2,0.6c0,0.1,0,0.2-0.1,0.4l0,0.1c0,0.1-0.1,0.1-0.1,0.2c-0.1,0.1-0.1,0.1-0.2,0.2
		c-0.3,0.2-0.5,0.2-0.7,0.3c0.6,0.2,1.2,0.4,1.8,0.7c1.2,0.4,2.3,0.9,3.5,1.3c0.6,0.2,1.2,0.4,1.7,0.5c0.3,0.1,0.6,0.2,0.8,0.2
		l0.5,0.1c0.2,0,0.4,0.1,0.5,0.1c0.7,0.1,1.5,0.7,1.9,1.2c0.1,0.1,0.3,0.3,0.4,0.4c0-0.1,0-0.2-0.1-0.3c-0.1-0.5-0.4-1-0.8-1.5
		c-0.8-1-1.9-1.8-2.9-2.6l-0.1-0.1l0-0.1c-1.2-1.7-2.6-3.4-4.2-4.8c-0.4-0.4-0.8-0.7-1.2-1.1c-0.4-0.4-0.8-0.7-1.3-1
		c-0.9-0.6-1.8-1.1-2.7-1.6c-0.8-0.4-1.6-0.8-2.3-1.2C111.6,78.5,111.8,78.8,112,79z M117.5,85.1c0.2-0.4,2.2,1,2.8,2
		c-0.3,0.2-0.8-0.3-1.3-0.4C118.5,86.6,117.3,85.6,117.5,85.1z"/>
	<path class="st0" d="M88.8,91.1c0.4,0.4,0.9,0.7,1.4,0.9c0.8,0.3,1.6,0.3,2.4,0.2c0.4-0.1,0.8-0.2,1.2-0.3c0.2-0.1,0.4-0.2,0.5-0.2
		c0.2-0.1,0.3-0.2,0.5-0.3c0.6-0.5,1-1.3,1.3-2.1c0.3-0.9,0.3-1.9,0-2.8c-0.2-0.9-0.7-1.8-1.2-2.6c-0.2-0.4-0.4-0.8-0.6-1.3
		c-0.2-0.5-0.3-1.2-0.1-1.8c0.1-0.6,0.4-1.1,0.7-1.5c0.2-0.3,0.4-0.5,0.5-0.7c-0.5,0.2-1,0.3-1.5,0.4c-1.2,0.2-2.4,0.3-3.6,0.2
		c-0.1,0.1-0.1,0.3-0.2,0.4l0,0.1l0,0c-0.7,1.2-1.2,2.4-1.6,3.6c-0.4,1.2-0.6,2.5-0.5,3.8c0.1,1.3,0.3,2.5,0.7,3.8
		C88.6,90.7,88.7,90.9,88.8,91.1z"/>
	<path class="st0" d="M115.9,90.3c1,0.4,2.1,0.6,3.2,0.8c1.1,0.3,2,0.7,3,1c0.7,0.2,1.5,0.4,2.2,0.4c-0.1,0-0.2-0.1-0.4-0.1
		l-0.5-0.1c-0.4-0.1-0.7-0.2-1-0.3c-0.6-0.2-1.2-0.5-1.8-0.7c-1.2-0.5-2.3-1.1-3.4-1.7c-0.8-0.4-1.5-0.9-2.2-1.4
		c-0.9,0.1-1.8,0.1-2.6,0.1c0.2,0.1,0.4,0.3,0.5,0.4C114,89.3,114.9,89.9,115.9,90.3z"/>
	<path class="st0" d="M109.8,86.4l0.2,0l0.8,0c0.5,0,1.1,0.1,1.6,0.1c1.1,0.1,2.2,0.2,3.2,0.3c0.2,0,0.5,0,0.6,0c0,0,0-0.1,0-0.2
		c-0.1-0.4-0.3-0.8-0.5-1.2l-0.3-0.2l-0.8-0.5c-0.5-0.4-1-0.7-1.5-1.1c-1-0.7-2-1.5-2.9-2.3c-0.5-0.4-0.9-0.8-1.4-1.3
		c-0.5-0.5-0.9-0.9-1.3-1.3c-0.8-0.8-1.8-1.2-3-1.6c-1.2-0.4-2.4-0.7-3.6-0.6c-1.2,0.1-2.4,0.6-3.5,1c-0.5,0.2-1,0.4-1.6,0.6
		c-0.1,0.9-0.5,1.8-0.5,2.5c0,0.4,0.1,0.7,0.2,1.1c0.2,0.3,0.4,0.9,0.5,1.3c0.3,1,0.3,2,0.4,3c0.1,1,0.3,2,0.3,3
		c0,0.6-0.1,1.3-0.3,2c1-0.9,2.2-1.6,3.4-2.1c1.5-0.6,3-1.1,4.7-1.2c0.9-0.1,1.7,0,2.4,0.1c0.8,0.1,1.5,0.2,2.3,0.4
		c0.3,0.1,0.6,0.1,1,0.2c-0.2-0.1-0.5-0.2-0.7-0.3l-0.4-0.2l-0.1,0c0.1,0-0.2-0.1-0.2-0.3c-0.1-0.2-0.1-0.4-0.1-0.6
		c0-0.1,0.1-0.3,0.3-0.4C109.4,86.4,109.7,86.4,109.8,86.4C109.8,86.4,109.8,86.4,109.8,86.4L109.8,86.4
		C109.8,86.4,109.8,86.4,109.8,86.4z"/>
	<path class="st0" d="M47.5,96.3c0.1,0,0.2,0,0.3,0c0.1,0,0.1,0,0.2,0c0.1,0.1,0.2,0,0.5,0.3c0.1,0.1,0.1,0.2,0.1,0.3
		c0,0.1,0,0.1,0,0.2c0,0.1,0,0.2,0,0.3c0,0.1-0.1,0.2-0.1,0.3l0,0.1c0,0-0.1,0.1-0.1,0.1c-0.1,0.1-0.1,0.1-0.2,0.1l-0.2,0.1
		l-0.2,0.1c-0.2,0.1-0.3,0.2-0.5,0.2c-0.3,0.2-0.6,0.3-0.9,0.4l-1.8,0.8c-1.2,0.5-2.4,1-3.6,1.4c-1.2,0.4-2.4,1-3.1,1.9l-0.1,0.1
		l-0.1,0c-1.8,1-3.3,2.4-4.6,3.9c-0.7,0.7-1.3,1.5-1.9,2.2c-0.6,0.8-1,1.6-1.2,2.3c-0.2,0.8-0.2,1.3,0,2.1c0.2,0.7,0.6,1.1,1.4,1.4
		c0.4,0.2,0.8,0.3,1.4,0.5c0.3,0.1,0.6,0.2,1,0.5c0.1,0.1,0.2,0.2,0.3,0.3c0.1,0.1,0.2,0.3,0.2,0.3c0.1,0.1,0.1,0.3,0.1,0.4
		c0.1,0.6,0.2,1.3,0.2,1.9c1.5,0,3,0,4.4,0c1.5-1.4,3-2.7,4.5-4.1l0.7-0.6c0.1,0,0.1-0.1,0.2-0.1l0.1-0.1c0.1-0.1,0.1-0.2,0.2-0.3
		c0.3-0.4,0.5-0.9,0.8-1.5c0.5-1,1.1-2.1,1.7-3.1c0.7-1,1.4-2,2.3-2.9c0.5-0.5,0.9-0.8,1.5-1.2c0.6-0.4,1.2-0.6,1.8-0.8
		c2.4-0.8,4.8-0.8,7.2-0.8c2.4,0,4.7,0.1,7.1,0.2c1.2,0,2.4,0.1,3.5,0.2c1.2,0.1,2.4,0.2,3.5,0.3l7,0.7c2.3,0.2,4.6,0.5,6.8,0.6
		c2-0.3,4-0.3,6,0.1c1,0.2,2,0.4,2.9,0.8c0.9,0.3,1.8,0.7,2.7,1.1c1.3,0.4,2.5,0.9,3.7,1.6c1.2,0.7,2.3,1.6,3.3,2.6
		c1,1,1.8,2.1,2.5,3.3c0.7,1.2,1.2,2.4,1.5,3.8l0-0.1c0.2,0.7,0.3,1.3,0.3,1.9c0,0.6-0.1,1.3-0.4,1.9c-0.2,0.6-0.6,1.1-1,1.6
		c-0.1,0.1-0.2,0.2-0.4,0.3c2.2-0.1,4.4-0.2,6.6-0.4c1-0.9,1.7-1.9,2.1-3c0.2-0.6,0.4-1.2,0.6-1.8c0.1-0.6,0.2-1.3,0.2-1.8l0-0.2
		c0-0.4,0.1-1,0.1-1.6c0-0.6,0-1.2,0-1.8c0-0.6,0-1.2,0-1.7c0-0.6-0.1-1.2-0.2-1.6l0-0.2c-0.1-1-0.5-2-0.9-3c-0.4-1-0.9-2-1.5-3
		c-1.2-1.9-2.8-3.6-4.7-4.8c-1-0.6-1.9-1.2-2.9-1.8c-0.9-0.6-1.8-1.3-2.7-2l-0.7-0.5c-0.3-0.2-0.5-0.5-0.7-0.7
		c-0.4-0.5-0.7-1.2-0.9-1.8c-0.3-1.1-0.3-2.2,0-3.2c-1.1,0.1-2.1,0.4-3.2,0.7c-1.3,0.4-2.7,0.8-4,1.4c-0.2,0.3-0.3,0.5-0.6,0.8
		c-0.2,0.2-0.4,0.4-0.7,0.6c-0.2,0.2-0.5,0.3-0.8,0.4c-0.5,0.2-1,0.4-1.6,0.5c-1.1,0.2-2.4-0.1-3.3-0.8c0,0,0,0,0,0
		c0.1,0.2,0.1,0.4,0.1,0.7c0,0.5-0.2,1.1-0.5,1.5l-0.4,0.5l-0.5-0.3c-1.3-0.7-2.7-1.2-4.1-1.8c-1.4-0.5-2.8-1-4.3-1.4
		c-1.4-0.4-2.9-0.7-4.4-0.8L70.8,91c-3-0.3-6-0.5-9.1-0.9c-1.5-0.2-3.1-0.7-4.4-0.7c-0.7,0-1.2,0.2-1.7,0.7
		c-0.2,0.2-0.4,0.5-0.6,0.8c-0.2,0.3-0.5,0.6-0.7,1c-1,1.2-2.3,2.3-3.7,3c-0.7,0.4-1.5,0.7-2.3,0.9c-0.4,0.1-0.8,0.2-1.2,0.3
		c-0.3,0.1-0.5,0.1-0.8,0.2c0.2,0,0.4,0,0.7,0C47.2,96.2,47.3,96.2,47.5,96.3z"/>
	<path class="st0" d="M109.9,120.6c-0.1-0.5-0.2-1.1-0.4-1.5l0-0.1c-0.4-1.1-1-2.2-1.8-3.2c-0.7-1-1.5-1.9-2.4-2.7
		c-1.8-1.6-4-2.7-6.3-3.3l-0.1,0l-0.1-0.1c-0.8-0.4-1.7-0.7-2.5-1c-0.9-0.3-1.7-0.5-2.6-0.7c-1.7-0.4-3.5-0.5-5.3-0.3l-0.1,0l-0.1,0
		c-2.4-0.2-4.7-0.6-7.1-1.1l-6.9-1.5c-1.1-0.2-2.3-0.5-3.4-0.6c-1.2-0.1-2.3-0.2-3.5-0.2c-2.3-0.1-4.7,0.1-7,0.4
		c-2.3,0.3-4.6,0.8-6.6,1.5c-0.5,0.2-1,0.4-1.3,0.7c-0.4,0.2-0.8,0.6-1.2,1c-0.8,0.7-1.5,1.6-2.1,2.5c-0.7,0.9-1.2,1.9-1.9,2.9
		c-0.3,0.5-0.6,1-1,1.5c-0.1,0.1-0.2,0.3-0.4,0.4c-0.1,0.1-0.2,0.1-0.3,0.2l-0.2,0.1l-0.7,0.5c-1.5,1-3,1.9-4.6,2.9
		c2.7,0.1,5.5,0.2,8.2,0.4c5.4,0.4,10.7,1,16,1.5c2.7,0.3,5.3,0.5,8,0.8c2.7,0.3,5.4,0.6,8,0.9c5.3,0.7,10.6,1.2,15.9,1.5
		c4.2,0.2,8.3,0.3,12.5,0.2c0.6-0.6,1.1-1.3,1.2-2.2C110,121.6,110,121.1,109.9,120.6z"/>
	<path class="st0" d="M95.1,76.9c0.6-0.2,1.2-0.5,1.8-0.6c2.6-0.6,5.2-0.2,7.7,0c0.6,0.1,1.3,0.1,2,0.3c0.7,0.2,1.3,0.6,1.8,1
		c0.6,0.4,1,0.8,1.5,1.2c0.3,0.2,0.5,0.5,0.8,0.7c-0.3-0.4-0.5-0.7-0.8-1.2c-0.1-0.1-0.1-0.3-0.2-0.5c0-0.1-0.1-0.2-0.1-0.4
		c0-0.1,0-0.2,0-0.3c0-0.2,0.2-0.3,0.3-0.4c0.2-0.1,0.3-0.1,0.4-0.1c0.1,0,0.2,0,0.2,0c0.1,0,0.2,0,0.3,0c0.2,0,0.3,0.1,0.5,0.1
		c0.6,0.2,1.1,0.4,1.5,0.7c-0.1-0.2-0.2-0.3-0.3-0.5c-0.8-1.3-1.5-2.7-2.4-3.8c-0.9-1.2-2-2.1-3.3-2.5c-1.3-0.5-2.7-0.6-4.2-0.6
		c-1.5,0-2.9,0.2-4.3,0.5c-1.4,0.4-2.6,1-3.7,1.8c-1.1,0.8-2,1.9-2.8,3.1c-0.6,1-1.2,2-1.7,3.1c1.1-0.4,2.1-0.7,3.1-1
		C94,77.3,94.6,77.1,95.1,76.9z M103.7,73.8c0.9,0.1,1.5,0.7,1.5,1.4c-0.1,0.6-0.9,1-1.8,0.9c-0.9-0.1-1.5-0.7-1.5-1.4
		C102.1,74.1,102.9,73.7,103.7,73.8z"/>
	<path class="st0" d="M6.1,107.2l0.2,0c2.3,0.5,7.3,1.4,9.5,2c1.1,0.3,2.2,0.6,3.4,0.9c1.1,0.3,2.2,0.7,3.3,1.2
		c0.1,0,0.1,0.1,0.1,0.2c0,0.1-0.1,0.1-0.1,0.1l0,0c-1.1-0.4-2.2-0.6-3.3-0.8c-1.1-0.2-2.3-0.4-3.4-0.6l-2-0.3l0.7,0.7
		c0.4,0.4,0.9,0.8,1.3,1.2c0.9,0.8,1.7,1.6,2.6,2.3c0.9,0.8,1.9,1.3,2.6,2.2c0.6,0.7,1.8,2.1,2.5,3.2c2.9-0.2,5.7-0.3,8.6-0.4
		c0.6,0,1.2,0,1.8,0c-0.2-0.5-0.4-1-0.6-1.4c-0.1-0.1-0.1-0.2-0.2-0.3c0-0.1,0,0,0,0c0,0,0,0,0,0c0,0-0.2,0-0.4,0
		c-0.4-0.1-1-0.1-1.6-0.2c-0.6-0.1-1.2-0.4-1.8-0.9c-0.6-0.4-1-1.1-1.3-1.7c-0.2-0.6-0.4-1.2-0.4-1.9c0-0.7,0.1-1.4,0.3-1.9
		c0.5-1.2,1.2-2.1,1.9-2.9c0.7-0.8,1.6-1.5,2.5-2.1c1.8-1.2,3.6-2.1,5.3-3.2c0.8-1.1,1.9-2,2.9-2.8c1.1-0.8,2.3-1.5,3.5-2
		c0.5-0.2,1-0.4,1.5-0.5c-0.4-0.1-0.8-0.2-1.1-0.4c-0.8,0.2-1.6,0.5-2.4,0.8c-0.7,0.3-1.4,0.5-2.2,0.8c-0.8,0.3-1.5,0.4-2.2,0.6
		c-2.9,0.8-5.8,1.6-8.6,2.6c-2.8,1-5.5,2.2-7.8,3.9l-0.3,0.2l-0.4,0c-2.4,0.1-4.8-0.1-7.1-0.1c-1.6,0-5.9-0.4-7.5-0.4
		C5.3,105.3,5.1,107,6.1,107.2z"/>
	<path class="st0" d="M117.1,125.8l-1.2,0.1c-2.2,0.2-4.4,0.3-6.6,0.4l-0.7,0c-4.2,0.1-8.3,0-12.5-0.2c-5.3-0.3-10.6-0.9-15.9-1.5
		c-2.7-0.3-5.3-0.6-8-0.9c-2.7-0.3-5.3-0.5-8-0.8c-5.3-0.5-10.7-1.2-16-1.5c-2.7-0.2-5.5-0.3-8.2-0.4l-0.8,0c-1.5,0-3,0-4.4,0
		l-0.9,0c-0.6,0-1.2,0-1.8,0c-2.9,0.1-5.8,0.2-8.6,0.4l-1.4,0.1C14.6,122,7.2,123,0,124.4c5.3-0.5,10.7-1,16-1.2
		c5.3-0.3,10.7-0.4,16-0.3c5.3,0.1,10.7,0.3,16,0.7c5.3,0.4,10.6,1,15.9,1.6c2.7,0.3,5.4,0.5,8,0.7c2.6,0.2,5.3,0.5,8,0.8
		c5.3,0.5,10.7,1,16.1,1.2c5.4,0.1,10.8,0,16.1-0.6c5.3-0.6,10.7-1.5,15.8-2.9C124.4,125,120.7,125.5,117.1,125.8z"/>
</g>
</svg>
