<?xml version="1.0" encoding="utf-8"?>
<!-- Generator: Adobe Illustrator 23.0.0, SVG Export Plug-In . SVG Version: 6.00 Build 0)  -->
<svg version="1.1" id="Layer_1" xmlns="http://www.w3.org/2000/svg" xmlns:xlink="http://www.w3.org/1999/xlink" x="0px" y="0px"
	 viewBox="0 0 128 128" 
width="128" height="128"
style="enable-background:new 0 0 128 128;" xml:space="preserve">
<style type="text/css">
	.st0{fill:#2D2D2D;}
</style>
<g>
	<path class="st0" d="M34.1,102.7c-0.4,1.3-1,2.5-1.6,3.7c-0.3,0.6-0.6,1.2-0.9,1.8c-0.3,0.6-0.7,1.2-1.1,1.7
		c-0.8,1.1-1.7,2.1-2.6,3.2c-0.3,0.3-0.5,0.6-0.8,0.9c2,1.4,3.8,2.9,5.8,4.3c2,1.5,4,2.9,6.1,4c0.5,0.3,1,0.5,1.5,0.7
		c0.1,0,0.3,0.1,0.4,0.1c0.1,0,0.2,0,0.4,0l0.9,0.1l3.8,0.3c2.4,0.1,4.8,0.1,7.2,0c0.1-0.8-0.2-1.8-0.8-2.3
		c-0.6-0.6-1.6-0.9-2.6-1.1c-1-0.1-2-0.2-3.1-0.1c-1,0-2.1,0.2-3.1,0.3l-0.5,0.1l-0.3-0.3c-0.9-0.9-1.7-1.8-2.5-2.7
		c-0.7-1-1.5-1.9-2.1-2.9c-0.7-1-1.3-2-1.9-3l-1.7-3l-0.3-0.6l0.4-0.4c1-0.8,1.9-1.8,2.7-2.9c0.4-0.5,0.8-1.1,1.1-1.6
		c0.2-0.3,0.3-0.6,0.5-0.9c0-0.1,0-0.1,0.1-0.2c-2-0.6-3.6-1.3-4.3-1.6C34.7,101,34.4,101.8,34.1,102.7z"/>
	<path class="st0" d="M114.6,83.8c1.4,0,2.7,0.6,4,1.1c0.3,0.1,0.6,0.3,0.8,0.4c-0.1-0.7-0.3-1.4-0.4-2c-0.1-0.4-0.3-0.9-0.5-1.2
		c-0.2-0.3-0.4-0.6-0.6-0.8c-0.5-0.4-1.2-0.6-2-0.5c-0.4,0-0.8,0.2-1.2,0.3c-0.1,0.1-0.3,0.1-0.4,0.2c0.2,0.6,0.3,1.3,0.4,1.9
		C114.6,83.5,114.6,83.5,114.6,83.8z"/>
	<path class="st0" d="M127.2,102.6c-0.7-1.2,0-1.3,0.1-2.6c0-0.1,0-0.1,0-0.2c-0.2-0.3-0.5-0.7-0.7-1c-0.8-1.2-1.5-2.5-1.8-4
		c-0.1-0.7-0.3-1.3-0.5-1.9c-0.2-0.6-0.4-1.1-0.7-1.7c-0.3-0.5-0.7-1-1.1-1.5l-0.7-0.7l-0.7-0.7c-0.9-0.9-2-1.8-3.1-2.5
		c-1.1-0.7-2.3-1-3.6-1.4c0,0.7,0,1.1-0.2,1.8c-0.2-1-0.5-1.9-0.8-2.8c-0.3-0.9-0.7-1.7-1.2-2.4c-0.5-0.7-1.1-1-1.8-1.1
		c-0.6-0.1-1.3,0.2-1.9,0.8c-0.6,0.5-1.1,1.2-1.5,2c-0.4,0.7-0.6,1.5-0.6,2.3c0,1.6,1.1,3.3,2.5,4.6c-1-0.3-1.8-0.9-2.6-1.6
		c-0.4-0.4-0.7-0.8-1-1.3c-0.3-0.5-0.4-1-0.5-1.6c-0.2-1.1,0.1-2.3,0.5-3.3c0.2-0.4,0.1-0.3,0.3-0.7c-1-0.4-3.8-1.8-6.1-2.3
		c-2.2-0.5-4.4-0.8-6.6-1C92.1,77.9,91,78,89.8,78c-1.1,0-2.3,0.1-3.4,0.1l-0.3,0L85.9,78c-1-0.5-2-1.1-3.1-1.4
		c-1.1-0.4-2.1-0.7-3.3-0.8c-1.1-0.2-2.3-0.2-3.4-0.1c-1.2,0.1-2.4,0.7-3.6,0.8l-0.1,0l-0.1,0c-2.3-0.8-4.5-2-6.9-2.7
		c-2.3-0.7-4.7-1.3-7-1.9c-2.4-0.6-4.7-1.2-7.1-1.7c-2.4-0.5-4.7-1.1-7.1-1.4c-0.6-0.1-1.2-0.2-1.8-0.3c-0.6-0.1-1.2-0.2-1.8-0.2
		L39,67.9c-0.6-0.1-1.2-0.1-1.8-0.1c-2.4-0.1-4.7,0.1-7.1,0.5c-2.3,0.4-4.7,1-6.9,1.8c-2.3,0.8-4.2,2.8-6.3,4c0,0,0,0,0,0
		c0,0,0,0,0,0c0,0,0,0-0.1,0c-1,0.5-2.2,0.5-3.3,0.6c-0.6,0-1.1,0-1.7-0.1c-0.6-0.1-1.1-0.3-1.6-0.7C10,73.7,9,71.9,9,71.7l-0.5-1.6
		c-0.3-1-0.3-2.3-0.6-3.3C6.8,62.6,5.8,58.3,5.3,54c-0.5-4.3-0.7-8.7-0.2-13.1c0.5-4.4,1.7-8.8,4.1-12.6c0.6-1,1.2-1.9,1.9-2.7
		l1.1-1.3l1.1-1.2c1.5-1.6,3.2-3.1,5-4.4c3.5-2.7,7.4-4.9,11.4-6.7c2-0.9,4-1.8,6.1-2.6c2-0.8,4.1-1.5,6.2-2.2c1-0.3,2.1-0.7,3-1.1
		c0.5-0.2,0.9-0.5,1.3-0.8c0.4-0.3,0.7-0.7,0.7-1.1c0-0.4-0.2-0.8-0.5-1.1c-0.3-0.3-0.7-0.5-1.2-0.7c-1-0.3-2-0.3-3.1-0.3
		c-2.1,0.1-4.2,0.6-6.3,1.3c-2.1,0.7-4.1,1.5-6,2.4c-3.9,1.8-7.6,4.1-11.1,6.6c-3.4,2.6-6.6,5.5-9.2,8.9c-2.6,3.3-4.8,7-6.2,11
		c-1.5,3.9-2.4,8.1-2.8,12.4C0,48.8,0,53.1,0.5,57.3c0.8,8.5,3.2,19.5,6.9,24.8c0,0,0,0,0,0c0,0,0,0,0,0c0,3-0.6,6.3,0.1,9.1
		c0.7,2.9,1.8,5.7,3.7,7.9c0.2,0.3,0.5,0.6,0.7,0.8c0.3,0.2,0.5,0.5,0.8,0.8l0.8,0.7l0.2,0.2c0.1,0.1,0.1,0.1,0.2,0.2
		c0.1,0.1,0.1,0.1,0.1,0.2c0.2,0.2,0.3,0.5,0.4,0.7c0.6,1.7,0.6,3.2,0.6,4.8c-0.1,1.6-0.4,3.1-0.9,4.6c-0.5,1.5-1.3,2.9-2.4,4.1
		c-0.4,0.6-0.7,1.3-0.9,1.9c-0.2,0.7,0,1.4,0.3,2c0.7,1.3,1.9,2.2,3.1,3.1c1.2,0.9,2.5,1.7,3.9,2.5c1.3,0.8,2.6,1.5,3.9,2.2
		c2-0.1,4.1-0.2,6.1-0.2c1.7,0,3.4-0.1,5-0.1c0,0,0,0,0,0c-0.2-0.3-0.4-0.6-0.6-0.8c-0.5-0.5-1.2-0.9-2-1.2
		c-0.4-0.2-0.8-0.2-1.2-0.3c-0.4-0.1-0.8-0.2-1.2-0.2c-0.4,0-0.8-0.1-1.3-0.1l-1.3,0l-0.4,0l-0.3-0.3c-0.3-0.3-0.9-0.6-1.4-0.9
		c-0.6-0.3-1.2-0.6-1.8-1.1c-0.2-0.1-0.3-0.2-0.5-0.4c-0.2-0.1-0.3-0.3-0.5-0.5c-0.2-0.2-0.3-0.4-0.4-0.7c-0.1-0.3-0.2-0.5-0.2-0.8
		c0-0.6,0.2-1.1,0.4-1.5c0.1-0.2,0.2-0.3,0.3-0.5c0.1-0.2,0.2-0.3,0.3-0.4c0.9-1.1,1.8-2.1,2.8-3l2.5-3c0.9-0.9,2.2-1.8,3-2.8
		c0.4-0.5,0.8-1,1.2-1.5c0.4-0.5,0.7-1.1,1-1.7c0.7-1.1,1.3-2.3,1.9-3.5c0.4-0.8,0.3-3.4,0.3-3.5c0,0,0-0.1,0-0.1l0,0
		c0.2-0.9,0.4-2,0.5-3c0.1-1,0.1-2,0.1-3c0-1-0.1-2-0.3-3.1c-0.2-1-0.4-2-0.8-3c0.5,0.9,0.9,1.9,1.3,2.9c0.3,1,0.6,2,0.8,3.1
		c0.2,1,0.3,2.1,0.4,3.2c0,0.9,0,1.7,0,2.6c1.4,0.6,5.3,2.3,8.8,2.3c1.3,0,2.7-0.1,4-0.2c2.4-0.2,5-0.4,7.2,0.1
		c1.2,0.3,2.2,0.6,3,0.9c1.4,0.5,2.6,0.9,4.7,0.7c0.2,0,1.7-2.9,2.5-4.3c0.4-0.8,0.9-1.5,1.4-2.3c0.5-0.7,1-1.5,1.6-2.2
		c0.6-0.7,1.1-1.4,1.7-2.1l1.7-2l-1.5,2.2c-0.5,0.7-1,1.5-1.4,2.2c-0.5,0.8-0.9,1.5-1.3,2.3c-0.4,0.8-0.8,1.6-1.2,2.4
		c-0.8,1.6-1.3,3.2-1.8,4.9c-0.2,0.8-0.4,1.7-0.4,2.5c0,0.4-0.1,0.8,0,1.2c0,0.2,0,0.4,0,0.6c0,0.2,0.1,0.4,0.1,0.5
		c0,0.1,0,0.1,0,0.2c0,0,0,0,0,0c0.9,3.2,5.4,15.7,11.3,18.5h13.6c-0.5-1.1-1.6-2.5-3.9-2.5c-0.5,0-1.3,0.1-2,0.3
		c-2,0.4-4.6,0.9-5.4-1.1c-0.4-1-0.4-2.3-0.5-3.9c-0.1-1.8-0.1-3.8-0.7-5.3l-0.1-0.2l0-0.2c0.1-1.3,0.7-3.1,1.2-4.7
		c0.4-1.2,0.8-2.4,0.9-3c0-0.2,0.1-0.3,0.2-0.4c0.1-0.2,0.3-0.3,0.5-0.4c0,0,0.1,0,0.1,0l0,0c0.2-0.1,0.5-0.2,0.8-0.3
		c0.3-0.1,0.6-0.3,0.8-0.4c0.3-0.2,0.5-0.3,0.8-0.5c0.3-0.2,0.5-0.4,0.8-0.6c1-0.9,1.8-1.9,2.4-3.1l0.5-0.9c0.1-0.3,0.3-0.6,0.4-0.9
		c0.3-0.6,0.4-1.3,0.6-1.9c0.2-0.7,0.3-1.3,0.4-2l0.2-2l0,2.1c-0.1,0.7-0.1,1.4-0.2,2.1c-0.1,0.7-0.2,1.4-0.4,2.1
		c-0.1,0.3-0.2,0.7-0.3,1l-0.4,1c-0.6,1.3-1.3,2.6-2.3,3.7c-0.2,0.3-0.5,0.5-0.8,0.8c-0.3,0.3-0.6,0.5-0.9,0.7
		c-0.3,0.2-0.6,0.4-0.9,0.6c-0.2,0.1-0.4,0.2-0.6,0.3c0,0.1,0,0.2-0.1,0.3c0.9-0.1,1.7-0.5,2.4-0.8c1-0.5,1.9-1.1,2.8-1.9
		c0.4-0.3,0.8-0.7,1.3-1.1c0.4-0.4,0.8-0.8,1.2-1.2l0.6-0.6c0.2-0.2,0.4-0.4,0.6-0.6c0.2-0.2,0.5-0.4,0.7-0.6
		c0.3-0.2,0.5-0.4,0.8-0.5l0.4-0.3l0.4-0.2c0.3-0.1,0.6-0.3,0.9-0.4c0.6-0.2,1.2-0.4,1.8-0.5c1.2-0.3,2.4-0.5,3.6-0.6
		c1.2-0.1,2.4-0.2,3.6-0.2l1.8,0l0.6,0c0,0-0.7-2.5-0.7-2.8l0-0.1l0,0l1.4-3.6l-0.5,3.7c0,0,0.1,0.3,0.1,0.3l0.1,0.1
		c0,0,1.7,2.8,1.8,2.9c0.3,0.2,0.6,0.3,0.9,0.5c0.6,0.2,1.1,0.4,1.7,0.6c1.2,0.3,2.5,0.6,3.7,0.8l0.4,0.1l0.3,0.4
		c0.5,0.8,1.4,1.6,2.3,2.2c0.9,0.7,1.9,1.3,2.9,1.9c1,0.6,2.1,1.1,3.2,1.7l0.3,0.2c0.1,0,0.2,0.1,0.3,0.1c0.2,0,0.5,0,0.7-0.1
		c0.4-0.2,0.6-0.5,0.9-0.9c-0.7-0.4-1.1-0.6-1.9-1l0,0c-0.8-0.6-1.5-1.2-2.3-1.8c-0.4-0.3-0.7-0.6-1.1-0.9c-0.4-0.3-0.7-0.6-1-1.1
		c0.5,0.1,0.9,0.4,1.3,0.6l1.2,0.7c0.8,0.5,1.6,1,2.5,1.4l0,0c1.2,0.4,2.3,0.9,3.5,1.3l0,0c0.2,0.1,0.3,0.1,0.5,0.2
		c0.3-0.4,0.7-0.8,1-1.1C127.6,103.2,127.4,103,127.2,102.6z M123.1,96.6c-0.2,0.1-0.2,0-0.2,0l-0.2-0.1l-0.4-0.2l-0.7-0.3
		c-0.4-0.2-0.9-0.5-1.3-0.7c-0.1,0-0.3,0-0.4,0c-0.8-0.1-1.4-0.9-1.3-1.6c0.1-0.8,0.9-1.4,1.7-1.2c0.8,0.1,1.3,0.8,1.3,1.5
		c0.3,0.4,0.5,0.8,0.8,1.3l0.4,0.7l0.2,0.3l0.1,0.2C123.1,96.4,123.2,96.4,123.1,96.6z"/>
	<path class="st0" d="M92.1,100.4c-0.2,0.2-0.4,0.4-0.6,0.6c-0.2,0.2-0.3,0.4-0.5,0.6c-0.2,0.2-0.4,0.4-0.6,0.7l-0.6,0.7
		c-0.8,0.9-1.7,1.7-2.8,2.4c-1,0.7-2.1,1.3-3.3,1.6c-1,0.3-2,0.4-3,0.3c0,0,0,0,0,0c0,0,0,0,0,0c0.5,1.5,1,3,1.4,4.5l3.6,2.7
		l3.7,2.8c1.2,0.9,2.5,1.8,3.7,2.7c1.2,0.8,2.5,1.8,3.8,2.2l0.3,0.1l0.1,0.1c0.4,0.6,0.8,1.1,1.3,1.5c0.5,0.4,1.2,0.7,1.9,0.9
		c0.7,0.2,1.5,0.3,2.2,0.3c0.7,0,1.5,0,2.3,0c1.5,0,3.1,0,4.6-0.1c1.4,0,2.7-0.1,4.1-0.2c0-0.3,0-0.7-0.1-1c0-0.2-0.2-0.4-0.3-0.6
		c-0.1-0.1-0.1-0.2-0.2-0.3c-0.1-0.1-0.1-0.2-0.2-0.3c-0.6-0.7-1.6-1-2.6-1.3c-1.1-0.2-2.2-0.2-3.3-0.2c-1.1,0-2.2,0.2-3.4,0.3
		l-0.5,0.1l-0.4-0.3c-1-0.9-1.8-1.9-2.6-2.9c-0.8-1-1.5-2.1-2.2-3.1c-0.7-1.1-1.4-2.2-2-3.3c-0.6-1.1-1.3-2.2-1.9-3.2l-0.2-0.4
		l0.2-0.4c0.4-0.7,0.7-1.5,1-2.2c0.3-0.8,0.6-1.6,0.8-2.4c0.4-1.5,0.4-3.6,0.4-5.3C94.5,98.6,93.5,99.2,92.1,100.4z"/>
</g>
</svg>
