<?xml version="1.0" encoding="utf-8"?>
<!-- Generator: Adobe Illustrator 24.1.2, SVG Export Plug-In . SVG Version: 6.00 Build 0)  -->
<svg version="1.1" id="Layer_1" xmlns="http://www.w3.org/2000/svg" xmlns:xlink="http://www.w3.org/1999/xlink" x="0px" y="0px"
	 viewBox="0 0 128 128" style="enable-background:new 0 0 128 128;" xml:space="preserve">
<style type="text/css">
	.st0{fill:#2D2D2D;}
</style>
<g>
	<path class="st0" d="M20.56,122.63l-0.07-1.94l-0.21-7.71c-0.81-2.6-1.57-5.21-2.35-7.82c-0.4-1.31-0.78-2.63-1.16-3.94l-1-3.48
		c-1.07,0.07-2.14,0.14-3.21,0.18c-1.09,0.04-2.19,0.06-3.28,0.11c-1.09,0.06-2.18,0.15-3.27,0.28c-1.08,0.13-2.16,0.34-3.24,0.51
		c-0.1,2.15-0.23,4.29-0.35,6.43c-0.14,2.26-0.29,4.52-0.45,6.79c-0.15,2.26-0.36,4.52-0.57,6.78c-0.21,2.25-0.42,4.49-0.66,6.74
		c0,0.62,0.24,1.23,0.67,1.68c0.43,0.46,1.05,0.73,1.68,0.75c0.63,0.03,1.28-0.2,1.76-0.65c0.48-0.44,0.78-1.07,0.81-1.73v-0.03
		l0-0.01l0.95-6.32c0.15-1.06,0.31-2.11,0.45-3.17c0.14-1.06,0.31-2.11,0.37-3.18c0.17-2.12,0.33-4.25,0.48-6.37l0.21-3.19
		c0-0.3,0.12-0.66,0.36-0.9c0.23-0.25,0.56-0.4,0.9-0.41c0.34-0.01,0.69,0.11,0.94,0.35c0.23,0.21,0.38,0.52,0.41,0.84l2.22,4.92
		l2.21,4.96l0.03,0.07l0.01,0.09l0.56,7.76l0.14,1.94l0.07,0.97l0.03,0.44c0.03,0.13,0.05,0.25,0.09,0.38
		c0.16,0.49,0.47,0.94,0.9,1.22c0.43,0.29,0.94,0.44,1.46,0.4c1.03-0.05,1.96-0.89,2.11-1.93c0.03-0.13,0.03-0.24,0.04-0.38
		l-0.02-0.49L20.56,122.63z"/>
	<path class="st0" d="M3.17,98.04c0.94-0.02,1.89-0.03,2.82-0.09c1.09-0.07,2.18-0.18,3.26-0.33c1.08-0.15,2.16-0.34,3.24-0.51
		c0.93-0.14,1.86-0.26,2.8-0.37c0.05-1.01,0.09-2.02,0.17-3.02c0.04-0.58,0.08-1.15,0.14-1.72c0.05-0.58,0.1-1.15,0.17-1.72
		c0.23-2.14,0.5-4.28,0.88-6.41c-0.52,0.21-1.05,0.41-1.57,0.61L4.83,88.3c-0.61,0.08-1.25-0.05-1.79-0.37
		c0.1,0.87,0.16,1.75,0.19,2.62c0.04,0.88,0.07,1.76,0.07,2.64c0.01,0.88,0,1.75-0.01,2.63C3.28,96.56,3.23,97.3,3.17,98.04z"/>
	<path class="st0" d="M31.76,73.86c-0.27-0.07-0.55-0.06-0.81,0.02c-0.13,0.04-0.25,0.1-0.36,0.18c-0.06,0.04-0.11,0.08-0.16,0.13
		c-0.05,0.05-0.08,0.08-0.15,0.17c-0.19,0.21-0.4,0.45-0.62,0.69c0.63,0.69,1.85,1.6,2.36,1.94c0.03-0.04,0.06-0.09,0.09-0.14
		l0.32-0.47c0.05-0.08,0.11-0.16,0.16-0.24c0.04-0.07,0.08-0.13,0.1-0.2c0.13-0.27,0.17-0.58,0.12-0.87
		C32.74,74.49,32.3,74.01,31.76,73.86z"/>
	<path class="st0" d="M29.27,75.48c-0.04,0.05-0.09,0.1-0.14,0.15c-0.14,0.15-0.29,0.31-0.44,0.47c-0.05,0.05-0.1,0.11-0.15,0.16
		c-0.33,0.35-0.67,0.7-1,1.06c-0.24,0.25-0.47,0.49-0.7,0.73c-0.16,0.16-0.31,0.32-0.46,0.47c-0.38,0.39-0.73,0.75-1.06,1.09
		c-0.07,0.06-0.13,0.13-0.19,0.19c-0.13,0.14-0.26,0.27-0.38,0.38c-0.08,0.08-0.15,0.15-0.22,0.23l-0.2,0.2l-0.12,0.12
		c-0.04,0.04-0.08,0.08-0.11,0.11c-0.03,0.03-0.06,0.06-0.09,0.09c-0.13,0.13-0.32,0.16-0.48,0.09c-0.39-0.17-1.09-0.48-1.44-0.64
		c-0.44-0.21-0.87-0.41-1.31-0.62c0.06,0.25,0.09,0.51,0.08,0.76c-0.04,0.58-0.26,1.15-0.65,1.59c-0.19,0.22-0.41,0.41-0.66,0.55
		c-0.29,0.16-0.47,0.21-0.69,0.3l-1.22,0.48c0.07,0.01,0.13,0.03,0.2,0.04c0.37,0.1,0.74,0.19,1.11,0.3
		c0.73,0.21,1.46,0.44,2.18,0.67c0.72,0.25,1.44,0.48,2.15,0.75l0.54,0.2c0.17,0.06,0.39,0.14,0.49,0.17
		c0.26,0.07,0.54,0.06,0.8-0.04c0.13-0.05,0.25-0.12,0.36-0.21c0.05-0.04,0.1-0.09,0.15-0.14l0.18-0.21l0.75-0.87l1.5-1.72
		c0.99-1.16,1.9-2.38,2.78-3.63c0.13-0.18,0.25-0.37,0.38-0.55c0.12-0.18,0.25-0.37,0.37-0.56C31.36,77.11,30.11,76.03,29.27,75.48z
		"/>
	<path class="st0" d="M18.79,79.05c-0.34-0.15-0.74-0.17-1.1-0.04l-0.03,0.01l-0.02,0.01c-0.53,0.15-1.07,0.28-1.6,0.43
		c0,0,0,0,0,0.01c0.18,0.81,0.99,2.3,1.39,2.95l1.01-0.44c0.2-0.09,0.44-0.19,0.55-0.26c0.14-0.09,0.26-0.2,0.37-0.33
		c0.43-0.52,0.44-1.3,0.06-1.83c-0.07-0.1-0.16-0.19-0.26-0.27C19.02,79.13,18.89,79.1,18.79,79.05z"/>
	<path class="st0" d="M15.47,64.6c-0.06-0.03-0.08-0.03-0.12-0.04c-0.07-0.01-0.14,0-0.2,0.02c-0.25,0.09-0.63,0.22-0.98,0.29
		c-0.36,0.07-0.72,0.1-1.09,0.1c-0.36-0.01-0.74-0.05-1.06-0.12c-0.1-0.02-0.11-0.03-0.15-0.03c-0.04,0-0.07,0-0.11,0.01
		c-0.04,0.01-0.08,0.02-0.11,0.04c-0.02,0.01-0.03,0.01-0.06,0.04l-0.09,0.08l-0.75,0.68c-0.5,0.46-0.97,0.93-1.42,1.43l-0.66,0.76
		c-0.16,0.18-0.26,0.37-0.29,0.57c0.86-0.13,1.71-0.25,2.57-0.38l2.85-0.38c0.95-0.12,1.9-0.31,2.86-0.33
		c0.92-0.03,1.85-0.02,2.79,0.11c-0.07-0.2-0.19-0.38-0.36-0.52c-1.04-0.85-2.23-1.5-3.38-2.2L15.47,64.6z"/>
	<path class="st0" d="M24.46,75.31l0.58-0.21c0.04-0.01,0.11-0.04,0.16-0.06c0,0,0-0.01,0-0.02c0.01-0.02,0.01-0.06,0.01-0.09
		l-0.02-0.23l-0.06-0.62l-0.06-0.62l-0.03-0.31l0-0.07c0-0.01,0-0.02,0-0.03c0,0,0,0,0,0l-0.47,0.06c-0.82,0.1-1.63,0.19-2.45,0.27
		l-1.23,0.13l-0.61,0.07h-0.01c0,0,0,0-0.01,0.01l-0.08,0.13l-1.25,2.15l-0.07,0.12l-0.11,0.05c0,0-2.69,1.08-4.29,1.29
		c-0.26,0.03-0.78,0.06-1.04,0c-0.07-0.02-0.15-0.05-0.22-0.07l-0.9,0.29l-3.09,0.99l-3.09,0.99l-0.39,0.12l-0.19,0.06
		c-0.07,0.02-0.13,0.04-0.17,0.06c-0.19,0.1-0.32,0.35-0.35,0.59c-0.02,0.12,0,0.25,0,0.39l0.03,0.41l0.04,0.81c0,0,0,0,0,0
		c0.99-0.37,1.99-0.72,2.99-1.07l3.07-1.04c2.04-0.66,4.08-1.32,6.14-1.93l0.05-0.01c0.07-0.03,0.14-0.05,0.22-0.07
		c0.06-0.02,0.13-0.03,0.2-0.04c0.16-0.03,0.32-0.04,0.48-0.04c1.29-0.56,2.59-1.09,3.9-1.58C22.91,75.88,23.68,75.59,24.46,75.31z"
		/>
	<path class="st0" d="M10.13,74.34c0.44,0.55,1.25,0.88,1.82,1.22c0.36,0.21,0.71,0.43,1.08,0.62c0.32,0.04,0.64,0.05,0.96,0.03
		c0.62-0.04,1.23-0.17,1.81-0.4c0.58-0.22,1.13-0.52,1.63-0.93c0,0,0.01-0.01,0.01-0.01c0.82-0.66,1.3-1.66,1.38-2.72
		c0.05-0.6,0.06-1.33-0.03-2.02c-1.19,0.15-2.4,0.2-3.6,0.27c-0.39,0.04-0.78,0.07-1.16,0.1c-0.73,0.06-3.31,0.31-4.9,0.44
		c-0.03,0.16-0.06,0.31-0.07,0.48c0,0,0,0,0,0.01C9.03,71.86,9.13,72.3,9.3,72.7C9.54,73.26,9.92,74.09,10.13,74.34z"/>
	<path class="st0" d="M1.5,84.49c0.36,0.83,0.72,1.67,1.16,2.43c0.39,0.72,1.29,1.13,2.13,1.02c0.22-0.03,0.4-0.07,0.62-0.16
		l0.63-0.26l1.25-0.53c0.83-0.36,1.66-0.74,2.48-1.12c1.65-0.75,3.29-1.54,4.95-2.27c0.41-0.19,0.83-0.37,1.24-0.55
		c0.28-0.13,0.57-0.25,0.85-0.37c-0.14-0.81-0.96-2.43-1.44-3.04c0,0,0,0,0,0c-0.66,0.17-1.31,0.34-1.97,0.51
		c-0.67,0.17-1.34,0.34-2.01,0.51l-3.16,0.75c-1.06,0.24-2.11,0.48-3.17,0.69c-0.03,0.01-0.06-0.01-0.07-0.04c0-0.02,0-0.07,0-0.08
		L4.9,81.17l-0.04-0.41c-0.01-0.14-0.04-0.27-0.02-0.42c0.03-0.29,0.15-0.6,0.43-0.77c0.07-0.04,0.15-0.07,0.21-0.09l0.19-0.07
		l0.38-0.14l3.04-1.13l3.04-1.13l0.22-0.08c-0.34-0.16-0.65-0.37-0.94-0.61c-0.05-0.04-0.08-0.08-0.13-0.13
		c-0.4-0.27-0.77-0.58-1.1-0.93c-0.44-0.46-0.8-0.99-1.08-1.55c-1.01,0.5-2.37,1.1-3.38,1.56l-0.28,0.13
		c-0.53,0.24-1.06,0.49-1.59,0.72l-0.62,0.28c-0.19,0.1-0.38,0.18-0.56,0.28c-0.36,0.21-0.68,0.47-0.97,0.76
		c-0.57,0.6-1,1.33-1.18,2.14c-0.11,0.4-0.14,0.81-0.15,1.22c0.02,0.2,0.01,0.41,0.06,0.61c0.02,0.2,0.07,0.4,0.12,0.61
		c0.05,0.2,0.13,0.39,0.2,0.59l0.26,0.64L1.5,84.49z"/>
	<path class="st0" d="M73.97,59.36c0.15,0.47,0.34,0.93,0.54,1.42c-0.07-1.22-0.2-2.43-0.37-3.64c-0.03-0.42-0.06-0.82-0.11-1.25
		c-0.02-0.21-0.03-0.43-0.03-0.65c0-0.11,0.01-0.22,0.02-0.33c0.01-0.06,0.03-0.12,0.04-0.17c-0.18,0.41-0.31,0.84-0.39,1.28
		c-0.12,0.57-0.16,1.15-0.11,1.71C73.6,58.3,73.81,58.82,73.97,59.36z"/>
	<path class="st0" d="M116.33,35.56c1.13,0.85,2.12,1.92,2.8,3.17c0.64,1.17,1,2.53,0.86,3.86l0.05,0.08
		c0.07,0.11,0.19,0.2,0.33,0.27c0.14,0.07,0.29,0.13,0.45,0.17c0.16,0.04,0.32,0.07,0.48,0.08c0.08,0.01,0.16,0.01,0.23,0.01
		c0.02,0,0.04,0,0.06,0c-0.01-1.31-0.29-2.62-0.82-3.78c-0.28-0.61-0.64-1.19-1.07-1.7c-0.44-0.51-0.91-1-1.43-1.44
		c-1.03-0.87-2.21-1.56-3.47-2.07c-1.03-0.43-2.1-0.77-3.18-1.07c0.35,0.14,0.69,0.28,1.04,0.42
		C113.92,34.1,115.19,34.72,116.33,35.56z"/>
	<path class="st0" d="M54.62,69.06l-0.15,0.02l-1.4,0.22l-2.8,0.44c-1.87,0.28-3.74,0.56-5.62,0.78c-3.61,0.42-7.23,0.8-10.87,1.01
		c0.05,0.09,0.07,0.18,0.1,0.26c0.03,0.13,0.06,0.26,0.07,0.38c0.03,0.25,0.03,0.5,0.01,0.75c-0.02,0.24-0.04,0.48-0.17,0.73
		l10.96-1.91l5.59-0.94l2.8-0.47l1.4-0.24l0.16-0.03l-0.05-0.57L54.62,69.06z"/>
	<path class="st0" d="M33.51,72.26c-0.03-0.11-0.06-0.21-0.1-0.31c-0.03-0.06-0.06-0.11-0.08-0.15l-0.15,0.03l-0.34,0.06
		c0,0-6.09,0.84-6.71,0.79c0.02,0.06,0.04,0.13,0.05,0.19c0.01,0.04,0.01,0.08,0.01,0.13l0.01,0.08l0.02,0.31L26.26,74l0.04,0.62
		l0.01,0.15c0,0.04,0.01,0.16,0,0.23v0c0.07-0.03,0.21-0.07,0.41-0.13c0.06-0.01,0.11-0.03,0.18-0.05c0.49-0.13,1.16-0.3,1.53-0.38
		c0.04-0.01,0.08-0.02,0.11-0.03c0.04-0.01,0.07-0.02,0.1-0.03c0.03-0.01,0.06-0.01,0.06-0.01c0.25-0.27,0.49-0.55,0.74-0.81
		c0.05-0.06,0.16-0.17,0.25-0.24c0.1-0.08,0.19-0.15,0.3-0.22c0.21-0.13,0.43-0.23,0.67-0.3c0.47-0.13,0.97-0.11,1.43,0.04
		c0.46,0.15,0.86,0.44,1.16,0.82c0.01,0.02,0.03,0.04,0.04,0.06l0.1-0.03c0.05-0.02,0.14-0.04,0.15-0.05
		c0.01-0.01,0.03-0.04,0.05-0.09c0.06-0.18,0.06-0.42,0.04-0.64C33.6,72.7,33.57,72.47,33.51,72.26z"/>
	<path class="st0" d="M88.87,82.28l-0.38-0.64l-0.19-0.33l-0.09-0.17l-0.05-0.09c0-0.01-0.01-0.01-0.01-0.02
		c-0.12-0.12-0.21-0.22-0.3-0.33l-0.32-0.38l-0.62-0.76c-0.41-0.5-0.8-1.02-1.19-1.54c-0.39-0.51-0.77-1.04-1.15-1.57
		c-0.19-0.27-0.37-0.52-0.57-0.81c-0.04-0.05-0.13-0.21-0.16-0.32c-0.04-0.11-0.05-0.21-0.06-0.31c-0.02-0.19-0.03-0.37-0.02-0.54
		c0.02-0.69,0.13-1.34,0.27-2c0.08-0.32,0.15-0.65,0.31-0.99l0.41-0.88c0.51-1.1,1.04-2.2,1.59-3.3c-0.36-0.13-0.71-0.29-1.04-0.48
		c-0.38-0.21-0.73-0.47-1.06-0.75c-0.34-0.27-0.65-0.57-0.94-0.89c-0.29-0.32-0.57-0.65-0.82-1c-0.13-0.17-0.24-0.35-0.36-0.53
		l-0.16-0.28l-0.08-0.14l-0.04-0.07l0,0c-0.19,0.25-0.37,0.5-0.55,0.76c-0.09,0.13-0.19,0.26-0.28,0.39
		c0.35,0.66,0.65,1.34,0.9,2.05c0.13,0.38,0.23,0.77,0.28,1.19c0.02,0.21,0.03,0.44-0.04,0.68L82,68.82
		c-0.21,0.76-0.45,1.51-0.7,2.26c-0.12,0.38-0.26,0.75-0.4,1.12c-0.07,0.19-0.14,0.37-0.22,0.56c-0.05,0.13-0.1,0.25-0.17,0.38
		c0.02,0.03,0.04,0.07,0.06,0.1l0.19,0.29l0.4,0.58l0.81,1.17c0.54,0.78,1.09,1.57,1.65,2.34c0.28,0.39,0.57,0.77,0.86,1.14
		c0.32,0.38,0.56,0.79,0.83,1.19c0.5,0.76,0.99,1.52,1.49,2.27l0.46-0.2l0.16-0.07l0.1,0.17l0.86,1.49c0.01,0,0.02,0,0.04,0
		c0.33-0.14,0.67-0.29,1.01-0.42C89.24,82.89,89.05,82.59,88.87,82.28z"/>
	<path class="st0" d="M116.51,48.81c0.29,0.15,0.5,0.36,0.69,0.57c0.09,0.11,0.18,0.23,0.24,0.35l0.15,0.3l1.2,0.13l0.67,0.09
		c0.02,0,0.05,0.01,0.07,0.01c0.76,0.01,1.5,0.05,2.24,0.15c0.22-0.18,0.45-0.35,0.67-0.52l0.35-0.27c0.11-0.09,0.24-0.17,0.34-0.27
		l0.04-0.04l0.03,0.01c0.16,0.03,0.33,0.06,0.48-0.01c0.15-0.06,0.25-0.2,0.3-0.35c0.13-0.34,0.4-0.62,0.74-0.78
		c0.17-0.08,0.36-0.13,0.56-0.11c0.2,0.01,0.4,0.14,0.52,0.21c0.14,0.08,0.28,0.15,0.43,0.19c0.05,0.01,0.11,0.02,0.16,0.03
		c-0.3-0.28-0.61-0.55-0.9-0.84c-0.47-0.46-0.93-0.94-1.41-1.38c-0.16-0.15-0.33-0.3-0.5-0.44c-0.02,0.07-0.03,0.15-0.02,0.22
		c0.02,0.08,0.08,0.2,0.11,0.31c0.07,0.22,0.13,0.44,0.16,0.68c0.01,0.12,0.02,0.24,0.02,0.36c-0.01,0.12-0.02,0.26-0.13,0.41
		c-0.03,0.03-0.08,0.07-0.11,0.08c-0.03,0.02-0.06,0.03-0.1,0.04c-0.07,0.02-0.17,0.02-0.25-0.01c-0.16-0.07-0.23-0.19-0.3-0.29
		c-0.12-0.21-0.21-0.42-0.29-0.63c-0.09-0.21-0.15-0.45-0.17-0.68c-0.03-0.44,0.03-0.86,0.14-1.28c-0.03-0.02-0.05-0.05-0.08-0.07
		l-0.02-0.02l-0.02-0.06c-0.07-0.21-0.27-0.4-0.47-0.6c-0.1-0.1-0.21-0.21-0.31-0.34c-0.05-0.07-0.1-0.14-0.14-0.23
		c0-0.01-0.01-0.01-0.01-0.02c-0.02,0-0.04,0-0.05,0c-0.1,0-0.2-0.01-0.3-0.02c-0.19-0.02-0.38-0.07-0.56-0.13
		c-0.18-0.06-0.36-0.14-0.53-0.25c-0.13-0.09-0.26-0.2-0.36-0.35c-0.12,0.02-0.23,0.02-0.35,0.02c-0.16,0-0.31-0.01-0.47-0.02
		c-0.24-0.02-0.47-0.06-0.7-0.1c0.17,0.14,0.34,0.29,0.51,0.46l0.01,0.01c0.02,0.02,0.02,0.04,0,0.06
		c-0.01,0.01-0.03,0.01-0.04,0.01c-0.31-0.09-0.61-0.2-0.92-0.33l-0.06-0.02l-0.04-0.12l-0.62-1.7c-0.1-0.28-0.21-0.55-0.32-0.8
		c-0.03-0.06-0.05-0.12-0.08-0.17c-0.03-0.05-0.05-0.1-0.09-0.17l-0.25-0.37c-0.34-0.5-0.73-0.99-1.22-1.33
		c-0.12-0.09-0.25-0.17-0.37-0.21c-0.06-0.02-0.13-0.04-0.15-0.03c-0.02,0,0,0.01,0.01,0c0,0.01-0.01,0.03-0.02,0.05
		c-0.08,0.23-0.08,0.55-0.08,0.84c0.02,0.59,0.04,1.19,0.15,1.75c0.05,0.28,0.13,0.55,0.23,0.77c0.05,0.12,0.09,0.18,0.18,0.29
		c0.08,0.1,0.16,0.2,0.26,0.3c0.37,0.4,0.85,0.74,1.34,1.13c0.12,0.11,0.25,0.21,0.38,0.39c0.11,0.17,0.16,0.33,0.21,0.49
		c0.09,0.32,0.13,0.63,0.13,0.95c0,0.02-0.02,0.04-0.04,0.04c-0.02,0-0.03-0.01-0.04-0.02l0,0c-0.14-0.28-0.28-0.55-0.44-0.8
		c-0.08-0.12-0.17-0.24-0.24-0.31c-0.07-0.05-0.2-0.13-0.33-0.19c-0.06-0.03-0.13-0.07-0.19-0.1c-0.59,0.52-1.18,1.03-1.8,1.52
		c-0.71,0.56-1.41,1.11-2.23,1.57c-0.1,0.06-0.21,0.11-0.32,0.15c-0.06,0.02-0.12,0.04-0.18,0.06l-0.15,0.05
		c-0.2,0.06-0.4,0.15-0.6,0.24c-0.4,0.19-0.79,0.39-1.19,0.6c-0.8,0.41-1.6,0.84-2.49,1.13c-0.45,0.15-0.96,0.2-1.42,0.19
		c-0.47-0.01-0.92-0.05-1.37-0.1c-0.9-0.1-1.78-0.24-2.65-0.29c-0.43-0.02-0.86-0.03-1.27,0.03c-0.41,0.06-0.83,0.17-1.25,0.3
		c-0.84,0.25-1.66,0.59-2.5,0.9c-0.42,0.16-0.85,0.31-1.28,0.46c-0.22,0.07-0.44,0.14-0.66,0.2c-0.23,0.05-0.48,0.11-0.7,0.13
		c-0.92,0.12-1.82,0.16-2.72,0.19c-1.8,0.04-3.59,0.02-5.39-0.06c-0.45-0.02-0.9-0.05-1.35-0.09c-0.47-0.04-0.9-0.14-1.34-0.21
		c-0.87-0.16-1.75-0.25-2.63-0.18c-0.44,0.03-0.87,0.11-1.29,0.23c-0.41,0.14-4.69,1.89-4.94,4.9c-0.03,0.4-0.03,1.07,0.07,1.45
		c0.17,0.79,0.28,1.6,0.38,2.41c0.1,0.81,0.17,1.62,0.22,2.43c0.05,0.81,0.1,1.62,0.03,2.47c-0.08,0.84-0.29,1.65-0.59,2.43
		c-0.59,1.51-1.52,2.85-2.61,4.02c-0.04,0.97-0.01,1.99,0,3c0.02,1.05,0.04,2.1,0.05,3.16c0,0.53,0.01,1.06-0.04,1.62l-0.14,1.57
		l-0.24,2.71l0.41,0.06L72.21,83l0.09,0.28l0.33,1.09l0.61-0.26c-0.17-0.37-0.32-0.74-0.45-1.15c-0.04-0.15-0.08-0.29-0.11-0.45
		c-0.02-0.08-0.02-0.17-0.03-0.25l0-0.23c0-0.29,0.01-0.56,0.02-0.84c0.04-1.11,0.1-2.21,0.19-3.31c0.04-0.55,0.08-1.1,0.14-1.66
		c0.03-0.28,0.06-0.55,0.09-0.83c0.02-0.14,0.03-0.28,0.06-0.42c0.02-0.14,0.04-0.28,0.09-0.45c0.09-0.31,0.22-0.57,0.34-0.83
		c0.13-0.26,0.26-0.5,0.4-0.74c0.28-0.49,0.57-0.96,0.88-1.42c0.08-0.12,0.16-0.23,0.24-0.35c0.09-0.12,0.17-0.23,0.26-0.34
		l0.51-0.65l1.03-1.29l1.04-1.28c0.18-0.21,0.35-0.43,0.54-0.64l0.15-0.16c0.04-0.04,0.08-0.09,0.13-0.14l0.26-0.31l2.05-2.58
		c0.34-0.43,0.69-0.86,1.06-1.28c0.18-0.21,0.38-0.41,0.59-0.59c0.11-0.09,0.22-0.18,0.34-0.25c0.06-0.04,0.13-0.07,0.2-0.09
		c0.07-0.02,0.17-0.02,0.23,0.04c0.02,0.01,0.02,0.04,0.01,0.06c-0.01,0.02-0.04,0.02-0.06,0.01l0,0c-0.09-0.06-0.22,0.01-0.33,0.08
		c-0.11,0.07-0.21,0.16-0.31,0.26c-0.19,0.19-0.37,0.4-0.54,0.61c-0.12,0.15-0.24,0.31-0.36,0.47l0.02,0.02l0.06,0.05l0.12,0.11
		l0.24,0.21l0.47,0.42c0.31,0.28,0.62,0.55,0.94,0.82c0.31,0.27,0.64,0.52,0.96,0.77l0.99,0.72c0.66,0.46,1.35,0.94,2.13,1.22
		c0.39,0.15,0.79,0.22,1.21,0.27c0.2,0.04,0.41,0.04,0.62,0.05c0.21,0,0.41,0.01,0.62-0.01c0.41-0.02,0.83-0.07,1.23-0.12l0.61-0.09
		l0.61-0.1c0.81-0.14,1.6-0.35,2.38-0.57c0.39-0.11,0.78-0.23,1.16-0.36c0.19-0.06,0.38-0.13,0.54-0.21
		c0.22-0.11,0.44-0.18,0.66-0.24c0.22-0.06,0.43-0.1,0.65-0.13c0.22-0.03,0.43-0.05,0.65-0.07c0.3-0.02,0.61-0.02,0.92,0.01
		c-0.14-0.31-0.32-0.63-0.5-0.98c-0.3-0.6-0.48-1.31-0.42-2c0.06-0.67,0.21-1.31,0.41-1.92c0.2-0.61,0.42-1.22,0.7-1.8
		c0.01-0.02,0.04-0.03,0.06-0.02c0.02,0.01,0.03,0.03,0.02,0.05c-0.33,1.22-0.65,2.49-0.67,3.71c0,0.6,0.18,1.15,0.47,1.68
		c0.14,0.27,0.32,0.53,0.48,0.83c0.16,0.3,0.31,0.63,0.38,0.99l0.04,0.27l0.02,0.27l0.01,0.47l0.04,0.95l0.07,1.91
		c0.04,1.28,0.03,2.56,0.05,3.83l0,0.02l0,0c-0.04,0.47-0.06,0.95-0.06,1.43c0,0.24,0.01,0.48,0.02,0.71
		c0.02,0.23,0.05,0.47,0.12,0.66l0.02,0.04l0,0.04c-0.06,0.49-0.06,1.04-0.07,1.56c0,0.53,0,1.05,0.01,1.58
		c0.02,0.99,0.07,1.98,0.12,2.96l0.45,0.05l0.13,0.01l0.06,0.13l0.63,1.27c0.34-0.12,0.67-0.23,1.01-0.34
		c-0.24-0.43-0.46-0.87-0.66-1.33c-0.13-0.3-0.24-0.6-0.34-0.92c-0.05-0.16-0.09-0.33-0.13-0.5l-0.04-0.27L102.1,81
		c-0.05-0.65-0.06-1.28-0.07-1.92c-0.01-0.63,0.01-1.26,0.03-1.9l0-0.04l0.01-0.05c0.21-1.07,0.48-2.16,0.63-3.21
		c0.13-1.06,0.21-2.18,0.32-3.28c0.05-0.55,0.1-1.1,0.16-1.65l0.09-0.83c0.04-0.31,0.13-0.57,0.21-0.85
		c0.16-0.54,0.35-1.06,0.55-1.58c0.1-0.26,0.2-0.52,0.31-0.77c0.11-0.26,0.21-0.51,0.37-0.76c0.01-0.02,0.04-0.03,0.06-0.01
		c0.02,0.01,0.02,0.03,0.02,0.05l-0.01,0.01c-0.26,0.71-0.4,1.27-0.58,2.02c0.66-0.16,1.22-0.31,1.81-0.59
		c0.3-0.14,0.59-0.3,0.85-0.47c0.13-0.09,0.24-0.18,0.32-0.28c0.02-0.02,0.04-0.05,0.05-0.07l0.02-0.03l0.03-0.05l0.13-0.22
		c0.35-0.6,0.71-1.17,1.06-1.75c0.35-0.58,0.68-1.17,0.9-1.81l0.02-0.06l0.04-0.03c0.67-0.47,1.32-0.97,1.93-1.51
		c0.61-0.54,1.19-1.12,1.76-1.7c0.58-0.57,1.16-1.14,1.72-1.72c0.56-0.58,1.11-1.17,1.67-1.74c0.27-0.34,0.49-0.72,0.69-1.13
		c0.1-0.21,0.2-0.43,0.31-0.67c0.12-0.23,0.25-0.5,0.52-0.7l0.1-0.07l0.09-0.05c0.06-0.03,0.12-0.06,0.17-0.09
		c0.11-0.06,0.23-0.11,0.34-0.16l0.68-0.28c0.27-0.11,0.54-0.22,0.8-0.35c-0.25-0.07-0.5-0.16-0.74-0.28l-0.69,0.03l-1.34,0.04
		l-0.09,0l-0.09-0.11l-0.28-0.33c-0.09-0.11-0.17-0.23-0.23-0.36c-0.13-0.26-0.23-0.53-0.26-0.86c0-0.02,0.01-0.03,0.03-0.04
		C116.5,48.8,116.51,48.8,116.51,48.81z M120.48,44.97c0.1-0.24,0.44-0.35,0.75-0.25c0.14,0.05,0.25,0.13,0.33,0.22
		c0.17,0.12,0.42,0.34,0.57,0.61c-0.17-0.04-0.38-0.08-0.56-0.1c-0.14,0.17-0.42,0.23-0.69,0.15
		C120.56,45.49,120.38,45.21,120.48,44.97z"/>
	<path class="st0" d="M98.97,48.44c0.44-0.13,0.89-0.24,1.36-0.31c0.48-0.07,0.95-0.06,1.41-0.02c0.92,0.07,1.81,0.23,2.69,0.34
		c0.44,0.06,0.88,0.11,1.3,0.13c0.43,0.02,0.83-0.01,1.24-0.12c0.82-0.23,1.62-0.63,2.43-1.01c0.41-0.19,0.81-0.38,1.23-0.56
		c0.21-0.09,0.43-0.17,0.66-0.24l0.17-0.05c0.05-0.01,0.09-0.02,0.14-0.04c0.09-0.03,0.19-0.07,0.29-0.12
		c0.78-0.38,1.52-0.9,2.25-1.41c0.62-0.44,1.24-0.9,1.85-1.37c-0.44-0.23-0.91-0.49-1.31-0.87c-0.09-0.09-0.18-0.18-0.27-0.28
		c-0.05-0.02-0.11-0.05-0.16-0.06c-0.09-0.03-0.19-0.05-0.23-0.04c-0.13,0.01-0.33,0.08-0.5,0.16c-0.74,0.33-1.45,0.81-2.19,1.23
		c-0.75,0.42-1.52,0.81-2.33,1.17c-0.8,0.35-1.58,0.72-2.37,1.09c-0.79,0.37-1.58,0.75-2.45,0.98c-0.22,0.06-0.44,0.11-0.68,0.14
		c-0.12,0.01-0.24,0.03-0.37,0.03c-0.06,0-0.13,0-0.2-0.01l-0.17-0.01c-0.38-0.04-0.7,0.01-1.06,0.16c-0.36,0.13-0.8,0.36-1.3,0.43
		c-0.24,0.04-0.53,0.04-0.68,0.04c-0.19,0.01-0.38,0.04-0.58,0.08c-0.39,0.08-0.8,0.2-1.24,0.3c-0.22,0.05-0.45,0.08-0.69,0.1
		c-0.1,0-0.2,0-0.3-0.01c0.11,0.25,0.21,0.51,0.3,0.77C97.8,48.83,98.37,48.62,98.97,48.44z"/>
	<path class="st0" d="M106.99,71.71c-0.15-0.19-0.3-0.38-0.45-0.58c-0.15-0.23-0.27-0.47-0.35-0.7c-0.18-0.47-0.29-0.95-0.38-1.43
		c-0.16-0.88-0.24-1.76-0.22-2.65c-0.48,0.11-0.97,0.17-1.46,0.19c0,0-0.01,0-0.01,0c-0.07,0.29-0.14,0.58-0.2,0.87
		c-0.06,0.26-0.11,0.54-0.12,0.78L103.76,69c-0.01,0.55-0.03,1.1-0.05,1.66c0,0.1-0.01,0.21-0.01,0.31c0.31,0.19,0.6,0.42,0.87,0.65
		c0.34,0.31,0.67,0.62,0.96,1c0.07,0.09,0.14,0.19,0.19,0.3c0.06,0.11,0.12,0.22,0.17,0.37c0.07,0.26,0.09,0.5,0.11,0.74
		c0.02,0.24,0.04,0.47,0.04,0.72c0,0.12,0,0.25-0.03,0.38c-0.02,0.13-0.11,0.29-0.15,0.37c-0.35,0.85-0.81,1.64-1.3,2.41
		c-0.26,0.37-0.54,0.73-0.85,1.07c-0.25,0.28-0.5,0.54-0.79,0.79c0,0.18,0,0.35,0.01,0.53c0.4,0.3,0.77,0.57,0.87,0.64l0.08,0.03
		c0.16-0.36,0.33-0.71,0.51-1.06c0.22-0.41,0.45-0.81,0.69-1.21c0.24-0.4,0.49-0.79,0.75-1.17c0.27-0.39,0.53-0.73,0.87-1.12
		l0.05-0.05l0.04-0.03c0.13-0.07,0.28-0.21,0.4-0.38c0.13-0.17,0.25-0.35,0.36-0.55c0.12-0.2,0.22-0.4,0.33-0.61l0.08-0.16
		c0.02-0.05,0.04-0.08,0.06-0.13c0.03-0.09,0.06-0.19,0.06-0.3c0.04-0.43-0.11-0.9-0.31-1.32
		C107.57,72.47,107.29,72.08,106.99,71.71z"/>
	<path class="st0" d="M122.65,46.3c0.03,0.22,0.1,0.42,0.19,0.62c0.09,0.2,0.19,0.41,0.31,0.58c0.06,0.08,0.13,0.16,0.19,0.17
		c0.03,0.01,0.05,0,0.08-0.01c0.02-0.01,0.03-0.01,0.05-0.03c0.02-0.01,0.01-0.02,0.02-0.02c0.03-0.04,0.05-0.14,0.05-0.24
		c0.01-0.1,0-0.21-0.01-0.32c-0.01-0.22-0.04-0.44-0.07-0.66c-0.01-0.12-0.04-0.21-0.05-0.35c0.01-0.1,0.04-0.19,0.1-0.26
		c-0.06-0.06-0.13-0.11-0.19-0.17c-0.22-0.19-0.44-0.35-0.66-0.55C122.6,45.48,122.58,45.9,122.65,46.3z"/>
	<path class="st0" d="M117.39,34.87c0.44,0.28,0.87,0.59,1.27,0.93c0.54,0.47,1.02,0.99,1.47,1.55c0.44,0.57,0.79,1.21,1.05,1.88
		c0.48,1.26,0.66,2.63,0.49,3.94c0,0,0.01,0,0.01,0L122,43.4c0.21-2-0.17-4.05-1.21-5.7c-0.54-0.88-1.21-1.67-1.95-2.38
		c-0.75-0.71-1.59-1.31-2.49-1.83c-0.57-0.33-1.15-0.64-1.75-0.92c0.36,0.2,0.71,0.41,1.03,0.67
		C116.27,33.71,116.88,34.26,117.39,34.87z"/>
	<path class="st0" d="M127.76,50.7c-0.22-0.03-0.76-0.57-0.33-0.59c0.23-0.01,0.29-0.15,0.32-0.27c-0.05-0.06-0.1-0.11-0.15-0.16
		c-0.22-0.23-0.44-0.46-0.68-0.68c-0.14-0.13-0.28-0.26-0.42-0.39c-0.1,0.03-0.2,0.05-0.31,0.04c-0.18,0-0.36-0.06-0.53-0.13
		c-0.18-0.09-0.28-0.14-0.42-0.15c-0.14-0.01-0.28,0.01-0.42,0.07c-0.14,0.06-0.28,0.14-0.4,0.24c-0.12,0.1-0.25,0.2-0.33,0.35
		c-0.1,0.15-0.22,0.3-0.39,0.37c-0.15,0.06-0.31,0.08-0.47,0.09c-0.09,0.12-0.18,0.23-0.29,0.33c-0.12,0.1-0.24,0.19-0.37,0.27
		c-0.22,0.14-0.46,0.25-0.71,0.34c0.4,0.07,0.8,0.14,1.19,0.21c0.41,0.08,0.85,0.23,1.24,0.24l0.05,0l0.02,0.02
		c0.22,0.18,0.49,0.32,0.76,0.42c0.28,0.1,0.55,0.2,0.8,0.35l0.18,0.11l0.04,0.02c0.01,0,0.02,0.01,0.04,0.01
		c0.07,0.01,0.19-0.04,0.3-0.1c0.11-0.06,0.23-0.14,0.35-0.22l0.18-0.12l0.09-0.06l0,0c-0.26-0.15-0.52-0.31-0.78-0.47
		c-0.26-0.17-0.53-0.34-0.78-0.52c-0.01-0.01-0.02-0.03-0.01-0.04c0.01-0.01,0.02-0.01,0.03-0.01c0.3,0.1,0.59,0.22,0.88,0.33
		l0.87,0.35l0.21,0.09l0.11,0.04c0.03,0.01,0.09,0.03,0.08,0.03c0.01-0.01,0,0,0.02-0.02c0.02-0.02,0.06-0.06,0.09-0.1
		c0.06-0.09,0.11-0.21,0.16-0.33C127.93,50.68,127.84,50.71,127.76,50.7z"/>
	<path class="st0" d="M73.63,84.95l-0.59,0.25l-0.2,0.08l0.04,0.12h1.41l-0.62-0.43C73.65,84.97,73.64,84.96,73.63,84.95z"/>
	<path class="st0" d="M89.73,83.87c-0.02-0.01-0.03-0.03-0.04-0.04c-0.16,0.05-0.31,0.1-0.47,0.16c-0.1,0.03-0.21,0.07-0.31,0.1h0
		l0.07,0.23h1.41l-0.62-0.43C89.75,83.88,89.75,83.88,89.73,83.87z"/>
	<path class="st0" d="M103.54,84.92c-0.27,0.07-0.54,0.14-0.81,0.21h0l0.08,0.27h1.41l-0.62-0.43
		C103.58,84.96,103.56,84.94,103.54,84.92z"/>
	<path class="st0" d="M102.96,81.12l0,0.04l0.03,0.2c0.02,0.14,0.05,0.28,0.09,0.42c0.03,0.09,0.06,0.19,0.09,0.28l0.18-0.72
		c-0.07-0.05-0.16-0.12-0.28-0.21c-0.04-0.03-0.07-0.05-0.12-0.09L102.96,81.12z"/>
	<path class="st0" d="M8.68,12.41C8.22,12.8,7.8,13.24,7.41,13.7c-0.38,0.46-0.7,0.97-0.95,1.52c-0.48,1.04-0.73,2.2-0.73,3.37
		c0.02,0,0.03,0,0.05,0c0.07,0,0.14,0,0.21-0.01c0.14-0.01,0.29-0.04,0.43-0.08c0.14-0.04,0.28-0.09,0.4-0.15
		c0.12-0.06,0.23-0.14,0.29-0.24l0.04-0.07c-0.13-1.18,0.2-2.39,0.77-3.44c0.61-1.12,1.49-2.07,2.49-2.83
		c1.02-0.75,2.14-1.3,3.28-1.79c0.31-0.13,0.61-0.25,0.92-0.38c-0.96,0.27-1.92,0.58-2.83,0.96C10.64,11.02,9.6,11.64,8.68,12.41z"
		/>
	<path class="st0" d="M12.45,17.88c-0.04-0.01-0.12,0.01-0.2,0.04c-0.05,0.01-0.09,0.04-0.14,0.05c-0.08,0.09-0.16,0.17-0.24,0.25
		c-0.36,0.34-0.78,0.57-1.17,0.78c0.54,0.41,1.09,0.82,1.65,1.22c0.65,0.45,1.31,0.92,2,1.26c0.09,0.04,0.17,0.08,0.26,0.11
		c0.04,0.02,0.08,0.02,0.12,0.04l0.15,0.04c0.21,0.06,0.4,0.13,0.59,0.21c0.38,0.16,0.74,0.33,1.1,0.5c0.72,0.34,1.44,0.69,2.17,0.9
		c0.36,0.11,0.71,0.13,1.1,0.11c0.38-0.01,0.77-0.06,1.16-0.11c0.78-0.11,1.57-0.24,2.39-0.31c0.41-0.03,0.83-0.04,1.26,0.02
		c0.42,0.06,0.82,0.16,1.22,0.28c0.53,0.16,1.05,0.34,1.55,0.53c0.09-0.23,0.18-0.46,0.27-0.68c-0.09,0.01-0.18,0.01-0.27,0.01
		c-0.21-0.01-0.42-0.04-0.62-0.08c-0.39-0.09-0.76-0.2-1.11-0.27c-0.18-0.04-0.35-0.06-0.51-0.07c-0.14-0.01-0.39,0-0.61-0.04
		c-0.45-0.07-0.83-0.27-1.15-0.39c-0.32-0.13-0.61-0.17-0.94-0.14l-0.15,0.01c-0.06,0.01-0.12,0.01-0.18,0.01
		c-0.11,0-0.22-0.01-0.33-0.02c-0.21-0.03-0.41-0.07-0.6-0.12c-0.78-0.21-1.48-0.55-2.18-0.87c-0.7-0.33-1.4-0.66-2.11-0.97
		c-0.72-0.32-1.41-0.67-2.07-1.05c-0.66-0.37-1.3-0.8-1.96-1.1C12.74,17.95,12.57,17.88,12.45,17.88z"/>
	<path class="st0" d="M24.81,16.48c0.02,0.02,0.01,0.01,0.02,0.02c-0.01,0.01,0.05-0.02,0.07-0.03l0.09-0.04l0.19-0.08l0.77-0.31
		c0.26-0.1,0.52-0.2,0.78-0.29c0.01,0,0.02,0,0.03,0.01c0.01,0.01,0.01,0.03-0.01,0.04c-0.23,0.16-0.46,0.31-0.7,0.46
		c-0.23,0.14-0.46,0.28-0.69,0.42l0,0l0.08,0.06l0.16,0.11c0.11,0.07,0.21,0.14,0.31,0.2c0.1,0.05,0.21,0.1,0.27,0.09
		c0.02,0,0.02-0.01,0.03-0.01l0.03-0.02l0.16-0.1c0.22-0.13,0.47-0.22,0.71-0.31c0.25-0.09,0.48-0.21,0.68-0.37l0.02-0.01l0.04,0
		c0.35-0.01,0.74-0.14,1.11-0.21c0.35-0.07,0.71-0.13,1.06-0.19c-0.22-0.08-0.43-0.18-0.63-0.3c-0.11-0.07-0.23-0.15-0.33-0.24
		c-0.1-0.09-0.18-0.19-0.26-0.29c-0.14-0.01-0.29-0.03-0.42-0.08c-0.15-0.07-0.26-0.2-0.35-0.33c-0.07-0.13-0.18-0.22-0.29-0.31
		c-0.11-0.09-0.23-0.16-0.36-0.21c-0.13-0.05-0.26-0.07-0.38-0.06c-0.13,0.01-0.22,0.05-0.38,0.13c-0.15,0.06-0.31,0.11-0.47,0.12
		c-0.09,0-0.19-0.01-0.27-0.04c-0.13,0.12-0.25,0.23-0.38,0.34c-0.21,0.2-0.41,0.4-0.6,0.61c-0.04,0.05-0.09,0.1-0.13,0.15
		c0.03,0.11,0.08,0.23,0.29,0.24c0.39,0.02-0.09,0.5-0.29,0.52c-0.08,0.01-0.15-0.01-0.22-0.06c0.04,0.11,0.09,0.21,0.14,0.29
		C24.76,16.43,24.79,16.47,24.81,16.48z"/>
	<path class="st0" d="M5.63,18.56C5.63,18.56,5.64,18.56,5.63,18.56c-0.14-1.17,0.02-2.39,0.44-3.51c0.23-0.6,0.55-1.16,0.94-1.67
		c0.4-0.5,0.83-0.96,1.31-1.38c0.36-0.31,0.74-0.58,1.13-0.83c0.46-0.55,1-1.04,1.57-1.47c0.29-0.23,0.6-0.42,0.92-0.59
		c-0.53,0.26-1.05,0.53-1.56,0.82c-0.8,0.47-1.56,1-2.22,1.63c-0.66,0.63-1.26,1.34-1.74,2.12c-0.92,1.47-1.27,3.3-1.08,5.08
		L5.63,18.56z"/>
	<path class="st0" d="M4.02,22.54c0.02,0.01,0.03,0.02,0.05,0.02c0.03,0.01,0.05,0.01,0.08,0.01c0.05-0.01,0.12-0.08,0.17-0.15
		c0.11-0.15,0.19-0.34,0.28-0.52c0.09-0.18,0.14-0.36,0.17-0.56c0.06-0.36,0.04-0.73-0.03-1.09c-0.2,0.18-0.39,0.32-0.59,0.49
		c-0.06,0.05-0.11,0.1-0.17,0.15c0.05,0.06,0.08,0.15,0.09,0.23c0,0.13-0.03,0.21-0.04,0.31c-0.03,0.2-0.05,0.39-0.06,0.59
		c-0.01,0.1-0.01,0.19-0.01,0.28c0,0.09,0.02,0.18,0.04,0.21C4.02,22.53,4,22.53,4.02,22.54z"/>
	<path class="st0" d="M0.6,25.47l0.77-0.31c0.26-0.1,0.52-0.2,0.78-0.29c0.01,0,0.02,0,0.03,0.01c0.01,0.01,0.01,0.03-0.01,0.04
		c-0.23,0.16-0.46,0.31-0.7,0.46c-0.23,0.14-0.46,0.28-0.69,0.42l0,0l0.08,0.06l0.16,0.11c0.11,0.07,0.21,0.14,0.31,0.2
		c0.1,0.05,0.21,0.1,0.27,0.09c0.02,0,0.02-0.01,0.03-0.01l0.03-0.02l0.16-0.1c0.22-0.13,0.47-0.22,0.71-0.31
		c0.25-0.09,0.48-0.21,0.68-0.37l0.02-0.01l0.04,0c0.35-0.01,0.74-0.14,1.11-0.21c0.35-0.07,0.71-0.13,1.06-0.19
		c-0.22-0.08-0.43-0.18-0.63-0.3c-0.11-0.07-0.23-0.15-0.33-0.24c-0.1-0.09-0.18-0.19-0.26-0.3c-0.14-0.01-0.29-0.02-0.42-0.08
		c-0.15-0.07-0.26-0.19-0.35-0.33c-0.07-0.13-0.18-0.22-0.29-0.31c-0.11-0.09-0.23-0.16-0.36-0.21c-0.13-0.05-0.26-0.07-0.38-0.06
		c-0.13,0.01-0.22,0.05-0.38,0.13c-0.15,0.06-0.31,0.11-0.47,0.12c-0.09,0-0.19-0.01-0.27-0.04c-0.13,0.11-0.25,0.23-0.38,0.34
		c-0.21,0.2-0.41,0.41-0.6,0.61c-0.04,0.05-0.09,0.1-0.13,0.15c0.03,0.11,0.08,0.23,0.29,0.24c0.39,0.02-0.09,0.5-0.29,0.52
		C0.14,25.28,0.07,25.25,0,25.21c0.04,0.11,0.09,0.21,0.14,0.29c0.03,0.04,0.06,0.08,0.08,0.09c0.02,0.02,0.01,0.01,0.02,0.02
		c-0.01,0.01,0.05-0.02,0.07-0.03l0.09-0.04L0.6,25.47z"/>
	<path class="st0" d="M28.61,13.43c0.02,0.01,0.03,0.02,0.05,0.02c0.03,0.01,0.05,0.01,0.08,0.01c0.05-0.01,0.12-0.08,0.17-0.15
		c0.11-0.15,0.19-0.34,0.28-0.52c0.09-0.18,0.14-0.36,0.17-0.56c0.06-0.36,0.04-0.73-0.03-1.09c-0.2,0.18-0.39,0.32-0.59,0.49
		c-0.06,0.05-0.11,0.1-0.17,0.15c0.05,0.07,0.08,0.15,0.09,0.23c0,0.13-0.03,0.21-0.04,0.31c-0.03,0.2-0.05,0.39-0.06,0.59
		c-0.01,0.1-0.01,0.19-0.01,0.28c0,0.09,0.02,0.18,0.04,0.21C28.6,13.42,28.59,13.42,28.61,13.43z"/>
	<path class="st0" d="M37.04,8.77C37,8.76,36.92,8.78,36.84,8.8c-0.05,0.01-0.09,0.04-0.14,0.05c-0.08,0.09-0.16,0.17-0.24,0.25
		c-0.36,0.34-0.78,0.57-1.17,0.78c0.54,0.41,1.09,0.82,1.65,1.22c0.65,0.45,1.31,0.92,2,1.26c0.09,0.04,0.17,0.08,0.26,0.11
		c0.04,0.02,0.08,0.02,0.12,0.04l0.15,0.04c0.21,0.06,0.4,0.13,0.59,0.21c0.38,0.16,0.74,0.33,1.1,0.5c0.72,0.34,1.44,0.69,2.17,0.9
		c0.36,0.11,0.71,0.13,1.1,0.11c0.38-0.01,0.77-0.06,1.16-0.11c0.78-0.1,1.57-0.24,2.39-0.31c0.41-0.03,0.83-0.04,1.26,0.02
		c0.42,0.06,0.82,0.16,1.22,0.28c0.53,0.16,1.05,0.34,1.55,0.53c0.09-0.23,0.18-0.46,0.27-0.68c-0.09,0.01-0.18,0.01-0.27,0.01
		c-0.21-0.01-0.42-0.04-0.62-0.08c-0.39-0.09-0.76-0.2-1.11-0.27c-0.18-0.04-0.35-0.06-0.51-0.07c-0.14-0.01-0.39,0-0.61-0.04
		c-0.45-0.07-0.83-0.27-1.15-0.39c-0.32-0.13-0.61-0.17-0.94-0.14l-0.15,0.01c-0.06,0.01-0.12,0.01-0.18,0.01
		c-0.11,0-0.22-0.01-0.33-0.02c-0.21-0.03-0.41-0.07-0.6-0.12c-0.78-0.21-1.48-0.55-2.18-0.88c-0.7-0.33-1.4-0.66-2.11-0.97
		c-0.72-0.32-1.41-0.67-2.07-1.05c-0.66-0.37-1.3-0.8-1.96-1.1C37.33,8.84,37.15,8.77,37.04,8.77z"/>
	<path class="st0" d="M19.69,45.4c0.05-0.13,0.1-0.23,0.15-0.33c0.05-0.1,0.11-0.18,0.17-0.27c0.25-0.34,0.55-0.62,0.85-0.89
		c0.25-0.21,0.5-0.41,0.78-0.58c0-0.09-0.01-0.18-0.01-0.28c-0.02-0.49-0.03-0.98-0.04-1.48l-0.02-0.73
		c-0.01-0.21-0.06-0.46-0.11-0.69c-0.06-0.26-0.12-0.52-0.18-0.77c0,0-0.01,0-0.01,0c-0.44-0.02-0.87-0.08-1.31-0.17
		c0.02,0.8-0.06,1.58-0.2,2.36c-0.08,0.43-0.18,0.85-0.34,1.27c-0.08,0.21-0.18,0.42-0.31,0.62c-0.13,0.18-0.27,0.35-0.4,0.52
		c-0.27,0.34-0.52,0.68-0.7,1.06c-0.18,0.37-0.31,0.79-0.28,1.17c0.01,0.09,0.03,0.18,0.06,0.26c0.01,0.04,0.03,0.08,0.05,0.12
		l0.07,0.14c0.1,0.18,0.19,0.37,0.3,0.54c0.1,0.18,0.21,0.34,0.32,0.49c0.11,0.15,0.24,0.27,0.36,0.34l0.04,0.02l0.04,0.05
		c0.3,0.35,0.54,0.66,0.78,1c0.23,0.34,0.45,0.69,0.67,1.04c0.21,0.35,0.42,0.71,0.61,1.07c0.16,0.31,0.32,0.62,0.46,0.95l0.07-0.02
		c0.09-0.06,0.42-0.3,0.77-0.57c0-0.16,0.01-0.31,0-0.47c-0.26-0.22-0.48-0.46-0.7-0.71c-0.27-0.31-0.53-0.62-0.76-0.96
		c-0.44-0.68-0.84-1.39-1.16-2.15c-0.03-0.07-0.12-0.22-0.13-0.33c-0.03-0.12-0.03-0.23-0.03-0.34c0-0.22,0.02-0.43,0.03-0.64
		C19.61,45.85,19.63,45.63,19.69,45.4z"/>
	<path class="st0" d="M72.58,21.9c-0.16,1.08-0.27,2.16-0.33,3.24c0.17-0.43,0.34-0.84,0.48-1.26c0.15-0.48,0.34-0.95,0.37-1.45
		c0.05-0.5,0-1.02-0.1-1.53c-0.08-0.39-0.19-0.77-0.35-1.14c0.01,0.05,0.03,0.1,0.03,0.16c0.01,0.1,0.02,0.2,0.02,0.29
		c0.01,0.2-0.01,0.39-0.02,0.58C72.64,21.17,72.61,21.53,72.58,21.9z"/>
	<path class="st0" d="M30.22,9.45C30.22,9.45,30.23,9.45,30.22,9.45c-0.14-1.17,0.02-2.39,0.44-3.51c0.23-0.6,0.55-1.16,0.94-1.67
		c0.4-0.5,0.83-0.96,1.31-1.39c0.36-0.3,0.74-0.58,1.13-0.83c0.46-0.55,1-1.03,1.57-1.47c0.29-0.23,0.6-0.42,0.92-0.59
		C36,0.26,35.48,0.53,34.97,0.82c-0.8,0.47-1.56,1-2.22,1.63c-0.66,0.63-1.26,1.34-1.74,2.12c-0.92,1.47-1.27,3.3-1.08,5.08
		L30.22,9.45z"/>
	<path class="st0" d="M33.27,3.31C32.81,3.69,32.39,4.13,32,4.59c-0.38,0.46-0.7,0.97-0.95,1.52c-0.48,1.04-0.73,2.2-0.73,3.37
		c0.02,0,0.03,0,0.05,0c0.07,0,0.14,0,0.21-0.01c0.14-0.01,0.29-0.04,0.43-0.08c0.14-0.04,0.28-0.09,0.4-0.15
		C31.52,9.18,31.63,9.1,31.69,9l0.04-0.07c-0.13-1.18,0.2-2.39,0.77-3.44c0.61-1.12,1.49-2.07,2.49-2.83
		c1.02-0.75,2.14-1.3,3.28-1.79c0.31-0.13,0.61-0.25,0.92-0.38c-0.96,0.27-1.92,0.58-2.83,0.96C35.23,1.91,34.18,2.53,33.27,3.31z"
		/>
	<path class="st0" d="M47.78,45.81c-0.07-0.14-0.14-0.28-0.21-0.42c-0.11-0.2-0.23-0.4-0.35-0.6c-0.01,0.03-0.02,0.06-0.03,0.09
		c-0.18,0.41-0.37,0.8-0.58,1.18c0.3,0.1,0.6,0.2,0.9,0.3L47.78,45.81z"/>
	<path class="st0" d="M48.82,33.61l0.05-1.31c0,0.03-0.01,0.06-0.01,0.08c-0.05,0.27-0.13,0.54-0.25,0.79
		c-0.23,0.49-0.54,0.93-0.96,1.27c-0.02,0.28-0.03,0.56-0.04,0.84c-0.02,0.71-0.04,1.44,0.04,2.12c0.09,0.69,0.29,1.36,0.56,2
		c0.15,0.37,0.33,0.72,0.53,1.06c-0.01-0.29-0.02-0.58-0.05-0.85l0-0.04l0.01-0.04c0.06-0.17,0.09-0.39,0.11-0.59
		c0.02-0.21,0.02-0.42,0.02-0.63c0-0.42-0.02-0.85-0.06-1.27l0,0l0-0.02C48.8,35.89,48.79,34.75,48.82,33.61z"/>
	<path class="st0" d="M1.96,23.11c0.1-0.07,0.29-0.18,0.46-0.19c0.18-0.02,0.35,0.03,0.5,0.1c0.3,0.14,0.54,0.39,0.66,0.7
		c0.05,0.14,0.14,0.26,0.27,0.31c0.13,0.06,0.28,0.04,0.42,0.01l0.03-0.01l0.03,0.03c0.09,0.09,0.2,0.16,0.3,0.24l0.31,0.24
		c0.2,0.15,0.4,0.3,0.6,0.47c0.66-0.09,1.32-0.13,2-0.14c0.02,0,0.04-0.01,0.06-0.01l0.6-0.08l1.07-0.12l0.13-0.26
		c0.06-0.11,0.13-0.22,0.22-0.32c0.17-0.19,0.36-0.37,0.61-0.51c0,0,0.01,0,0.02,0c0.02,0,0.03,0.02,0.03,0.03
		c-0.03,0.29-0.12,0.53-0.24,0.76c-0.06,0.12-0.13,0.22-0.21,0.32l-0.25,0.29l-0.08,0.1l-0.08,0l-1.2-0.03l-0.61-0.03
		c-0.22,0.1-0.44,0.18-0.66,0.25c0.23,0.11,0.48,0.21,0.72,0.31l0.6,0.25c0.1,0.05,0.2,0.09,0.3,0.14c0.05,0.03,0.1,0.05,0.15,0.08
		L8.8,26.1l0.09,0.06c0.24,0.18,0.36,0.42,0.47,0.63c0.11,0.21,0.19,0.4,0.28,0.59c0.18,0.37,0.38,0.7,0.62,1.01
		c0.5,0.51,0.99,1.03,1.49,1.55c0.5,0.52,1.02,1.03,1.53,1.54c0.51,0.51,1.02,1.03,1.57,1.51c0.55,0.48,1.12,0.93,1.72,1.35
		l0.03,0.02l0.02,0.06c0.19,0.57,0.49,1.1,0.8,1.62c0.31,0.52,0.63,1.02,0.94,1.56l0.12,0.2l0.03,0.05l0.02,0.03
		c0.01,0.02,0.03,0.04,0.05,0.06c0.07,0.09,0.17,0.17,0.28,0.25c0.23,0.15,0.49,0.3,0.76,0.42c0.53,0.25,1.03,0.38,1.61,0.53
		c-0.16-0.67-0.29-1.17-0.51-1.8l0-0.01c-0.01-0.02,0-0.03,0.01-0.04c0.02-0.01,0.04-0.01,0.05,0.01c0.14,0.22,0.23,0.45,0.33,0.68
		c0.1,0.23,0.19,0.46,0.28,0.69c0.18,0.46,0.35,0.93,0.49,1.4c0.07,0.24,0.14,0.47,0.18,0.75l0.08,0.74
		c0.05,0.49,0.1,0.98,0.14,1.47c0.1,0.97,0.17,1.97,0.28,2.92c0.14,0.94,0.37,1.91,0.56,2.86l0.01,0.04l0,0.03
		c0.01,0.57,0.03,1.13,0.02,1.69c-0.01,0.57-0.02,1.13-0.06,1.71l-0.02,0.22l-0.04,0.24c-0.03,0.15-0.07,0.3-0.11,0.44
		c-0.09,0.29-0.19,0.56-0.3,0.82c-0.18,0.41-0.37,0.8-0.58,1.18c0.3,0.1,0.6,0.2,0.9,0.3l0.56-1.13l0.06-0.12l0.11-0.01l0.4-0.05
		c0.04-0.88,0.09-1.76,0.11-2.64c0.01-0.47,0.01-0.94,0.01-1.41c-0.01-0.46-0.01-0.95-0.06-1.39l0-0.04l0.01-0.04
		c0.06-0.17,0.09-0.39,0.11-0.59c0.02-0.21,0.02-0.42,0.02-0.63c0-0.42-0.02-0.85-0.06-1.27l0,0l0-0.02
		c0.02-1.14,0.01-2.28,0.04-3.42l0.06-1.7l0.03-0.85l0.01-0.42l0.01-0.24l0.04-0.24c0.06-0.32,0.2-0.62,0.34-0.88
		c0.14-0.26,0.3-0.5,0.42-0.74c0.27-0.47,0.43-0.97,0.42-1.5c-0.02-1.09-0.3-2.21-0.59-3.3c0-0.02,0-0.04,0.02-0.05
		c0.02-0.01,0.04,0,0.05,0.02c0.24,0.52,0.44,1.06,0.62,1.6c0.18,0.55,0.31,1.11,0.37,1.71c0.05,0.61-0.11,1.25-0.38,1.78
		c-0.15,0.31-0.32,0.59-0.44,0.87c0.27-0.02,0.54-0.02,0.82-0.01c0.19,0.01,0.38,0.03,0.58,0.06c0.19,0.03,0.39,0.06,0.58,0.11
		c0.19,0.05,0.39,0.11,0.59,0.21c0.14,0.06,0.31,0.13,0.48,0.18c0.34,0.11,0.69,0.22,1.04,0.32c0.7,0.2,1.41,0.39,2.13,0.51
		l0.54,0.09l0.54,0.08c0.36,0.05,0.73,0.1,1.1,0.11c0.19,0.02,0.37,0.01,0.55,0.01c0.18-0.01,0.37-0.01,0.55-0.04
		c0.37-0.04,0.73-0.11,1.08-0.24c0.7-0.25,1.3-0.68,1.89-1.09l0.88-0.64c0.29-0.22,0.58-0.45,0.86-0.69
		c0.28-0.24,0.56-0.48,0.84-0.73l0.41-0.38l0.21-0.19l0.11-0.09l0.05-0.05l0.02-0.02c-0.11-0.14-0.21-0.28-0.32-0.42
		c-0.15-0.19-0.31-0.37-0.48-0.54c-0.09-0.08-0.17-0.16-0.27-0.23c-0.09-0.06-0.21-0.12-0.29-0.07l0,0
		c-0.02,0.01-0.04,0.01-0.05-0.01c-0.01-0.02-0.01-0.04,0.01-0.05c0.06-0.05,0.15-0.05,0.21-0.03c0.07,0.02,0.13,0.04,0.18,0.08
		c0.11,0.06,0.21,0.14,0.3,0.22c0.19,0.16,0.36,0.34,0.52,0.52c0.33,0.37,0.64,0.75,0.94,1.14l0.15,0.19
		c0.09,0.02,0.55,0.54,0.55,0.54c0.09,0.16,0.17,0.32,0.26,0.47L43.48,39c0,0,0.01,0.01,0.01,0.01l0.04,0.02l0.04,0.05
		c0.19,0.21,0.34,0.41,0.5,0.62l0.06,0.06c0.17,0.19,0.32,0.38,0.48,0.57l0.93,1.14l0.92,1.15l0.46,0.58
		c0.07,0.1,0.15,0.19,0.23,0.3c0.07,0.1,0.15,0.21,0.22,0.31c0.28,0.42,0.54,0.84,0.79,1.27c0.12,0.22,0.24,0.44,0.36,0.66
		c0.11,0.23,0.23,0.46,0.3,0.74c0.04,0.15,0.06,0.27,0.08,0.4c0.02,0.13,0.03,0.25,0.05,0.38c0.03,0.25,0.06,0.5,0.08,0.74
		c0.05,0.49,0.09,0.98,0.12,1.48c0.07,0.98,0.13,1.97,0.17,2.95c0.01,0.25,0.02,0.49,0.02,0.75l0,0.21
		c-0.01,0.08-0.01,0.16-0.03,0.23c-0.02,0.15-0.06,0.28-0.1,0.41c-0.11,0.36-0.25,0.7-0.4,1.03l0.55,0.23l0.3-0.97l0.08-0.25
		l0.26-0.04l0.37-0.05l-0.21-2.41L50,50.15c-0.04-0.5-0.03-0.97-0.03-1.44c0.01-0.94,0.03-1.88,0.05-2.82
		c0.01-0.89,0.03-1.81,0-2.67c-0.97-1.04-1.8-2.24-2.33-3.58c-0.27-0.69-0.46-1.42-0.53-2.16c-0.06-0.75-0.01-1.47,0.03-2.2
		c0.05-0.72,0.12-1.44,0.2-2.16c0.09-0.72,0.18-1.44,0.34-2.14c0.09-0.34,0.09-0.94,0.06-1.3c-0.23-2.68-4.04-4.24-4.41-4.36
		c-0.37-0.11-0.76-0.18-1.15-0.21c-0.78-0.07-1.56,0.02-2.34,0.16c-0.39,0.06-0.78,0.15-1.2,0.19c-0.4,0.03-0.8,0.06-1.2,0.08
		c-1.6,0.07-3.2,0.09-4.8,0.05c-0.8-0.03-1.6-0.06-2.42-0.17c-0.2-0.02-0.42-0.07-0.63-0.12c-0.2-0.06-0.4-0.11-0.59-0.18
		c-0.39-0.13-0.77-0.27-1.14-0.41c-0.75-0.28-1.49-0.58-2.23-0.81c-0.37-0.11-0.74-0.21-1.11-0.27c-0.36-0.05-0.74-0.05-1.13-0.03
		c-0.77,0.04-1.56,0.16-2.36,0.25c-0.4,0.05-0.81,0.08-1.22,0.09c-0.41,0.01-0.86-0.04-1.26-0.17c-0.8-0.26-1.51-0.64-2.22-1
		c-0.35-0.18-0.71-0.37-1.06-0.54c-0.18-0.08-0.36-0.16-0.53-0.22l-0.13-0.04c-0.05-0.02-0.11-0.03-0.16-0.06
		c-0.1-0.04-0.2-0.09-0.29-0.14c-0.72-0.4-1.35-0.9-1.98-1.4c-0.55-0.44-1.08-0.89-1.6-1.36c-0.06,0.03-0.11,0.06-0.17,0.09
		c-0.11,0.06-0.23,0.12-0.29,0.17c-0.07,0.06-0.15,0.17-0.22,0.27c-0.14,0.22-0.26,0.46-0.39,0.71l0,0
		c-0.01,0.01-0.02,0.02-0.04,0.02c-0.02,0-0.04-0.02-0.04-0.04c0-0.28,0.04-0.56,0.12-0.85c0.04-0.14,0.09-0.29,0.19-0.44
		c0.12-0.16,0.23-0.25,0.34-0.34c0.44-0.35,0.87-0.65,1.2-1.01c0.08-0.09,0.16-0.18,0.23-0.27c0.08-0.1,0.11-0.15,0.16-0.26
		c0.09-0.19,0.16-0.44,0.2-0.68c0.09-0.5,0.12-1.03,0.13-1.56c0-0.26,0-0.54-0.07-0.74c-0.01-0.02-0.02-0.04-0.02-0.05
		c0,0.01,0.02,0,0.01,0c-0.02-0.01-0.08,0-0.13,0.02c-0.11,0.04-0.23,0.11-0.33,0.19c-0.44,0.3-0.78,0.74-1.08,1.19l-0.22,0.33
		c-0.04,0.06-0.06,0.1-0.08,0.15c-0.03,0.05-0.05,0.11-0.07,0.16c-0.1,0.22-0.19,0.47-0.28,0.71l-0.56,1.51l-0.04,0.11l-0.05,0.02
		c-0.27,0.12-0.55,0.22-0.82,0.3c-0.01,0-0.03,0-0.04-0.01c-0.01-0.01-0.01-0.04,0-0.05l0.01-0.01c0.15-0.15,0.3-0.28,0.45-0.41
		c-0.21,0.04-0.42,0.07-0.63,0.09c-0.14,0.01-0.28,0.02-0.42,0.02c-0.1,0-0.2,0-0.31-0.02C7.24,18.5,7.12,18.6,7,18.68
		c-0.15,0.1-0.31,0.17-0.47,0.22C6.37,18.96,6.2,19,6.03,19.02c-0.09,0.01-0.17,0.02-0.27,0.02c-0.02,0-0.03,0-0.05,0
		c0,0.01,0,0.01-0.01,0.02c-0.04,0.08-0.08,0.15-0.13,0.21c-0.09,0.12-0.19,0.21-0.28,0.3c-0.18,0.18-0.36,0.35-0.42,0.53
		l-0.02,0.06l-0.02,0.01c-0.02,0.02-0.05,0.04-0.07,0.06c0.1,0.37,0.15,0.75,0.12,1.14c-0.02,0.21-0.07,0.42-0.15,0.61
		c-0.07,0.19-0.15,0.38-0.26,0.57c-0.06,0.09-0.12,0.19-0.26,0.26C4.15,22.82,4.07,22.82,4,22.8c-0.03-0.01-0.06-0.02-0.09-0.03
		c-0.03-0.01-0.07-0.05-0.1-0.08c-0.1-0.13-0.1-0.25-0.11-0.36c0-0.11,0-0.22,0.02-0.32c0.03-0.21,0.08-0.41,0.14-0.6
		c0.03-0.1,0.08-0.2,0.1-0.28c0.01-0.06,0.01-0.13-0.01-0.19c-0.15,0.13-0.3,0.26-0.45,0.39c-0.43,0.39-0.84,0.82-1.26,1.23
		c-0.26,0.26-0.53,0.51-0.8,0.75c0.05,0,0.1-0.01,0.15-0.02C1.72,23.24,1.84,23.18,1.96,23.11z"/>
	<path class="st0" d="M47.99,31.01c-0.16,1.08-0.27,2.16-0.33,3.24c0.17-0.43,0.34-0.84,0.48-1.26c0.15-0.48,0.34-0.95,0.37-1.45
		c0.05-0.5,0-1.02-0.1-1.53c-0.08-0.39-0.19-0.77-0.35-1.14c0.01,0.05,0.03,0.1,0.03,0.16c0.01,0.1,0.02,0.2,0.02,0.29
		c0.01,0.2-0.01,0.39-0.02,0.58C48.05,30.28,48.02,30.64,47.99,31.01z"/>
	<path class="st0" d="M71.94,34.69c0.28,0.42,0.54,0.84,0.79,1.27c0.12,0.22,0.24,0.44,0.36,0.66c0.11,0.23,0.23,0.45,0.3,0.74
		c0.04,0.15,0.06,0.27,0.08,0.4c0.02,0.13,0.03,0.25,0.05,0.38c0.03,0.25,0.06,0.5,0.08,0.74c0.05,0.49,0.09,0.98,0.12,1.48
		c0.07,0.98,0.13,1.97,0.17,2.95c0.01,0.25,0.02,0.49,0.02,0.75l0,0.21c-0.01,0.08-0.01,0.16-0.03,0.23
		c-0.02,0.15-0.06,0.28-0.1,0.41c-0.11,0.36-0.25,0.7-0.4,1.03l0.55,0.23l0.3-0.97l0.08-0.25l0.26-0.04l0.37-0.05l-0.21-2.41
		l-0.12-1.4c-0.04-0.5-0.03-0.97-0.03-1.44c0.01-0.94,0.03-1.88,0.05-2.82c0.01-0.89,0.03-1.81,0-2.67
		c-0.97-1.04-1.8-2.24-2.33-3.58c-0.27-0.69-0.46-1.42-0.53-2.16c-0.06-0.75-0.01-1.47,0.03-2.2c0.05-0.72,0.12-1.44,0.2-2.16
		c0.09-0.72,0.18-1.44,0.34-2.14c0.09-0.34,0.09-0.94,0.06-1.3c-0.23-2.68-4.04-4.24-4.41-4.36c-0.37-0.11-0.76-0.18-1.15-0.21
		c-0.78-0.07-1.56,0.02-2.34,0.16c-0.39,0.06-0.78,0.15-1.2,0.19c-0.4,0.04-0.8,0.06-1.2,0.08c-1.6,0.07-3.2,0.09-4.8,0.05
		c-0.8-0.03-1.6-0.06-2.42-0.17c-0.2-0.02-0.42-0.07-0.63-0.12c-0.2-0.06-0.4-0.11-0.59-0.18c-0.39-0.13-0.77-0.27-1.14-0.41
		c-0.75-0.28-1.49-0.58-2.23-0.81c-0.37-0.11-0.74-0.21-1.11-0.26c-0.36-0.05-0.74-0.05-1.13-0.03c-0.77,0.04-1.56,0.16-2.36,0.25
		c-0.4,0.04-0.81,0.08-1.22,0.09c-0.41,0.01-0.86-0.04-1.26-0.17c-0.8-0.26-1.51-0.64-2.22-1c-0.35-0.18-0.71-0.37-1.06-0.54
		c-0.18-0.08-0.36-0.16-0.53-0.22l-0.13-0.04c-0.05-0.02-0.11-0.03-0.16-0.06c-0.1-0.04-0.2-0.09-0.29-0.14
		c-0.72-0.4-1.35-0.9-1.98-1.4c-0.55-0.44-1.08-0.89-1.6-1.36c-0.06,0.03-0.11,0.06-0.17,0.09c-0.11,0.06-0.23,0.12-0.29,0.17
		c-0.07,0.06-0.15,0.17-0.22,0.27c-0.14,0.22-0.26,0.46-0.39,0.71l0,0c-0.01,0.01-0.02,0.02-0.04,0.02c-0.02,0-0.04-0.02-0.04-0.04
		c0-0.28,0.04-0.56,0.12-0.85c0.04-0.14,0.09-0.29,0.19-0.44c0.12-0.16,0.23-0.25,0.34-0.34c0.44-0.35,0.87-0.65,1.2-1.01
		c0.08-0.09,0.16-0.18,0.23-0.27C36.2,8.16,36.23,8.1,36.28,8c0.09-0.19,0.16-0.44,0.2-0.68c0.09-0.5,0.12-1.03,0.13-1.56
		c0-0.26,0-0.54-0.07-0.74c-0.01-0.02-0.02-0.04-0.02-0.05c0,0.01,0.02,0,0.01,0c-0.02-0.01-0.08,0-0.13,0.02
		c-0.11,0.04-0.23,0.11-0.33,0.19c-0.44,0.3-0.78,0.74-1.08,1.19l-0.22,0.33c-0.04,0.06-0.06,0.1-0.08,0.15
		C34.65,6.89,34.63,6.95,34.6,7c-0.1,0.22-0.19,0.47-0.28,0.71l-0.56,1.51l-0.04,0.11l-0.05,0.02c-0.27,0.12-0.55,0.22-0.82,0.3
		c-0.01,0-0.03,0-0.04-0.01c-0.01-0.01-0.01-0.04,0-0.05l0.01-0.01c0.15-0.15,0.3-0.28,0.45-0.41c-0.21,0.04-0.42,0.07-0.63,0.09
		c-0.14,0.01-0.28,0.02-0.42,0.02c-0.1,0-0.2,0-0.31-0.02c-0.09,0.13-0.21,0.23-0.32,0.31c-0.15,0.1-0.31,0.17-0.47,0.22
		c-0.16,0.06-0.33,0.09-0.5,0.12c-0.09,0.01-0.17,0.02-0.27,0.02c-0.02,0-0.03,0-0.05,0c0,0.01,0,0.01-0.01,0.02
		c-0.04,0.08-0.08,0.15-0.13,0.21c-0.09,0.12-0.19,0.21-0.28,0.3c-0.18,0.18-0.36,0.35-0.42,0.53l-0.02,0.06l-0.02,0.01
		c-0.02,0.02-0.05,0.04-0.07,0.07c0.1,0.37,0.15,0.75,0.12,1.14c-0.02,0.21-0.07,0.42-0.15,0.61c-0.07,0.19-0.15,0.38-0.26,0.57
		c-0.06,0.09-0.12,0.19-0.26,0.26c-0.07,0.03-0.15,0.03-0.22,0.01c-0.03-0.01-0.06-0.02-0.09-0.03c-0.03-0.01-0.07-0.05-0.1-0.08
		c-0.1-0.13-0.1-0.25-0.11-0.36c0-0.11,0-0.22,0.02-0.32c0.03-0.21,0.08-0.41,0.14-0.6c0.03-0.1,0.08-0.2,0.1-0.28
		c0.01-0.06,0.01-0.13-0.01-0.19c-0.15,0.13-0.3,0.26-0.45,0.39c-0.43,0.39-0.84,0.82-1.26,1.23c-0.26,0.26-0.53,0.51-0.8,0.75
		c0.05,0,0.1-0.01,0.15-0.02c0.13-0.04,0.26-0.1,0.38-0.17c0.1-0.07,0.29-0.18,0.46-0.19c0.18-0.02,0.35,0.03,0.5,0.1
		c0.3,0.15,0.54,0.39,0.66,0.7c0.05,0.14,0.14,0.26,0.27,0.31c0.13,0.06,0.28,0.04,0.42,0.01l0.03-0.01l0.03,0.03
		c0.09,0.09,0.2,0.16,0.3,0.24l0.31,0.24c0.2,0.15,0.4,0.3,0.6,0.47c0.66-0.09,1.32-0.13,2-0.14c0.02,0,0.04-0.01,0.06-0.01
		l0.6-0.08l1.07-0.12L34,15.3c0.06-0.11,0.13-0.22,0.22-0.32c0.17-0.19,0.36-0.37,0.61-0.51c0,0,0.01,0,0.02,0
		c0.02,0,0.03,0.02,0.03,0.03c-0.03,0.29-0.12,0.53-0.24,0.76c-0.06,0.12-0.13,0.22-0.21,0.32l-0.25,0.29l-0.08,0.1l-0.08,0
		l-1.2-0.03l-0.61-0.02c-0.22,0.1-0.44,0.18-0.66,0.24c0.23,0.11,0.48,0.21,0.72,0.31l0.6,0.25c0.1,0.05,0.2,0.09,0.3,0.14
		c0.05,0.03,0.1,0.05,0.15,0.08l0.08,0.04l0.09,0.06c0.24,0.18,0.36,0.42,0.47,0.63c0.11,0.21,0.19,0.41,0.28,0.59
		c0.18,0.37,0.38,0.7,0.62,1.01c0.5,0.51,0.99,1.03,1.49,1.55c0.5,0.52,1.02,1.03,1.53,1.54c0.51,0.51,1.02,1.03,1.57,1.51
		c0.38,0.33,0.78,0.64,1.18,0.94c0.55-0.05,1.1-0.07,1.65-0.01c0.41,0.04,0.81,0.12,1.2,0.24c0.2,0.06,0.39,0.13,0.58,0.21
		c1.9,0.86,3.65,2.6,3.92,3.24c0,0,0,0,0,0c0.31,0.43,0.54,0.93,0.71,1.44c0.14,0.46,0.22,0.94,0.25,1.43l0.01-0.31l0.01-0.42
		l0.01-0.24l0.04-0.24c0.06-0.32,0.2-0.62,0.34-0.88c0.14-0.26,0.3-0.5,0.42-0.74c0.27-0.47,0.43-0.97,0.42-1.5
		c-0.02-1.09-0.3-2.21-0.59-3.3c0-0.02,0-0.04,0.02-0.05c0.02-0.01,0.04,0,0.05,0.02c0.24,0.52,0.44,1.06,0.62,1.6
		c0.18,0.55,0.31,1.11,0.37,1.71c0.05,0.61-0.11,1.25-0.38,1.78c-0.15,0.31-0.32,0.59-0.44,0.87c0.27-0.02,0.54-0.02,0.82-0.01
		c0.19,0.01,0.38,0.03,0.58,0.06c0.19,0.03,0.39,0.06,0.58,0.11c0.19,0.05,0.39,0.11,0.59,0.21c0.14,0.06,0.31,0.13,0.48,0.18
		c0.34,0.11,0.69,0.22,1.04,0.32c0.7,0.2,1.41,0.39,2.13,0.51l0.54,0.09l0.54,0.08c0.36,0.05,0.73,0.1,1.1,0.11
		c0.19,0.02,0.37,0.01,0.55,0.01c0.18-0.01,0.37-0.01,0.55-0.04c0.37-0.04,0.73-0.11,1.08-0.24c0.7-0.25,1.3-0.68,1.89-1.09
		l0.88-0.64c0.29-0.22,0.58-0.45,0.86-0.69c0.28-0.24,0.56-0.48,0.84-0.73l0.41-0.38l0.21-0.19l0.11-0.09l0.05-0.05l0.02-0.02
		c-0.11-0.14-0.21-0.28-0.32-0.42c-0.15-0.19-0.31-0.37-0.48-0.54c-0.09-0.08-0.17-0.17-0.27-0.23c-0.09-0.06-0.21-0.12-0.29-0.07
		l0,0c-0.02,0.01-0.04,0.01-0.05-0.01c-0.01-0.02-0.01-0.04,0.01-0.05c0.06-0.05,0.15-0.05,0.21-0.03c0.07,0.02,0.13,0.04,0.18,0.08
		c0.11,0.06,0.21,0.14,0.3,0.22c0.19,0.16,0.36,0.34,0.52,0.53c0.33,0.37,0.64,0.75,0.94,1.14l1.83,2.3l0.23,0.28
		c0.04,0.05,0.08,0.09,0.11,0.13l0.13,0.14c0.17,0.19,0.32,0.38,0.48,0.57l0.93,1.14l0.92,1.15l0.46,0.58
		c0.07,0.1,0.15,0.19,0.23,0.3C71.8,34.49,71.87,34.59,71.94,34.69z"/>
	<path class="st0" d="M66.55,35.32c-0.12-0.33-0.24-0.66-0.35-1c-0.22-0.67-0.43-1.34-0.62-2.01l-0.14-0.51
		c-0.06-0.21-0.05-0.42-0.03-0.6c0.04-0.38,0.13-0.72,0.25-1.06c0.22-0.63,0.49-1.24,0.81-1.83c-0.08-0.12-0.17-0.23-0.25-0.35
		c-0.16-0.23-0.32-0.45-0.49-0.68l0,0l-0.03,0.06l-0.07,0.13l-0.15,0.25c-0.1,0.16-0.21,0.32-0.32,0.48
		c-0.22,0.31-0.47,0.61-0.73,0.89c-0.26,0.28-0.54,0.55-0.84,0.79c-0.3,0.25-0.61,0.48-0.95,0.67c-0.3,0.17-0.61,0.31-0.93,0.43
		c0.49,0.98,0.96,1.96,1.42,2.94l0.36,0.78c0.14,0.3,0.2,0.59,0.27,0.88c0.13,0.58,0.23,1.16,0.24,1.78c0,0.16,0,0.31-0.02,0.48
		c-0.01,0.09-0.03,0.17-0.06,0.28c-0.02,0.1-0.11,0.24-0.14,0.29c-0.17,0.26-0.33,0.48-0.5,0.72c-0.34,0.47-0.67,0.94-1.02,1.4
		c-0.35,0.46-0.7,0.92-1.06,1.37l-0.55,0.67l-0.28,0.34c-0.08,0.09-0.16,0.18-0.27,0.29c0,0.01-0.01,0.01-0.01,0.02l-0.04,0.08
		l-0.08,0.15l-0.17,0.29l-0.34,0.57c-0.16,0.27-0.33,0.54-0.5,0.81c0.3,0.12,0.6,0.25,0.9,0.38c0.01,0,0.02,0,0.03,0l0.77-1.33
		l0.09-0.15l0.14,0.06l0.41,0.18c0.45-0.67,0.89-1.35,1.33-2.02c0.24-0.36,0.45-0.72,0.74-1.06c0.26-0.33,0.52-0.67,0.77-1.02
		c0.5-0.69,0.99-1.39,1.47-2.09l0.72-1.05l0.36-0.52l0.17-0.26c0.02-0.03,0.04-0.06,0.06-0.09c-0.06-0.12-0.1-0.23-0.15-0.34
		C66.68,35.65,66.61,35.48,66.55,35.32z"/>
	<path class="st0" d="M46,42.96l-0.02-0.03c0.03,0.07,0.07,0.14,0.1,0.21l0.04-0.01L46,42.96z"/>
	<path class="st0" d="M46.65,43.84C46.65,43.84,46.65,43.84,46.65,43.84l0.06,0.26c0.01-0.04,0.02-0.07,0.03-0.11
		C46.71,43.94,46.68,43.89,46.65,43.84z"/>
	<path class="st0" d="M35.3,54.59l0.77-1.33l0.09-0.15l0.14,0.06l0.41,0.18c0.45-0.67,0.89-1.35,1.33-2.02
		c0.24-0.36,0.45-0.72,0.74-1.06c0.26-0.33,0.52-0.67,0.77-1.02c0.5-0.69,0.99-1.39,1.47-2.09l0.72-1.04l0.36-0.52l0.17-0.26
		c0.02-0.03,0.04-0.06,0.06-0.09c-0.06-0.12-0.1-0.23-0.15-0.34c-0.07-0.17-0.13-0.33-0.2-0.5c-0.12-0.33-0.24-0.66-0.35-1
		c-0.22-0.67-0.43-1.34-0.62-2.01l-0.14-0.51c-0.06-0.21-0.05-0.42-0.03-0.6c0.04-0.38,0.13-0.72,0.25-1.06
		c0.22-0.63,0.49-1.24,0.81-1.83c-0.08-0.12-0.17-0.23-0.25-0.35c-0.16-0.23-0.32-0.45-0.49-0.68l0,0l-0.03,0.06l-0.07,0.13
		l-0.15,0.25c-0.1,0.16-0.21,0.32-0.32,0.48c-0.22,0.31-0.47,0.61-0.73,0.89c-0.26,0.28-0.54,0.55-0.84,0.79
		c-0.3,0.25-0.61,0.48-0.95,0.67c-0.3,0.17-0.61,0.31-0.93,0.43c0.49,0.98,0.96,1.96,1.42,2.94l0.36,0.78
		c0.14,0.3,0.2,0.59,0.27,0.88c0.13,0.58,0.23,1.16,0.24,1.78c0,0.16,0,0.31-0.02,0.49c-0.01,0.09-0.03,0.17-0.06,0.28
		c-0.02,0.1-0.11,0.24-0.14,0.29c-0.17,0.25-0.33,0.48-0.5,0.72c-0.34,0.47-0.67,0.94-1.02,1.4c-0.35,0.46-0.7,0.92-1.06,1.37
		l-0.55,0.67L35.77,52c-0.08,0.09-0.16,0.18-0.27,0.29c0,0.01-0.01,0.01-0.01,0.02l-0.04,0.08l-0.08,0.15l-0.17,0.29l-0.34,0.57
		c-0.16,0.27-0.33,0.54-0.5,0.81c0.3,0.12,0.6,0.25,0.9,0.38C35.27,54.59,35.28,54.59,35.3,54.59z"/>
	<polygon class="st0" points="22.38,56.63 22.71,55.91 21.79,55.61 20.83,56.63 	"/>
	<path class="st0" d="M21.78,52.43c0,0,0.09,0.4,0.2,0.9c0.19-0.3,0.27-1.19,0.27-1.19L21.78,52.43z"/>
	<polygon class="st0" points="33,55.58 34.83,55.58 35.1,54.87 34.21,54.62 	"/>
	<polygon class="st0" points="49.29,55.65 48.63,55.44 47.41,56.41 48.99,56.41 	"/>
	<polygon class="st0" points="47.04,47.36 47.35,46.75 46.41,46.49 45.37,47.36 	"/>
	<polygon class="st0" points="57.7,46.36 59.32,46.36 59.65,45.74 58.86,45.42 	"/>
	<path class="st0" d="M73.07,46.33c0,0-1.12,0.93-1.16,0.97c-0.04,0.04,1.64,0,1.64,0l0.32-0.79L73.07,46.33z"/>
	<path class="st0" d="M4.51,70.44c-0.02,0-0.04,0.02-0.04,0.04c0,0.02,0.02,0.04,0.04,0.04c0,0,2.7,0.07,3.66,0.01
		c0.11-0.01,0.26-0.02,0.43-0.03l0.68-0.06c1.59-0.14,4.17-0.39,4.9-0.44c0.39-0.03,0.78-0.07,1.16-0.1c1.2-0.06,2.4-0.12,3.6-0.27
		l0.34-0.04c1.51-0.19,3.02-0.41,4.51-0.76c0.02,0,0.03-0.02,0.03-0.04c0-0.02-0.02-0.04-0.04-0.04c-1.23-0.07-2.46-0.06-3.68-0.01
		l-0.63,0.07c0.01-0.21,0.02-0.41,0.02-0.62c-0.01-0.21,0.01-0.43-0.03-0.62c-0.91,0.3-1.83,0.47-2.75,0.6
		c-0.95,0.15-1.91,0.12-2.87,0.17l-2.87,0.12c-0.87,0.02-1.74,0.06-2.61,0.08c0,0.03-0.01,0.05,0,0.08
		c0.01,0.12,0.05,0.31,0.07,0.47l0.09,0.5l0.04,0.36L8,70.01L4.51,70.44z"/>
</g>
</svg>
