<?xml version="1.0" encoding="utf-8"?>
<!-- Generator: Adobe Illustrator 24.1.2, SVG Export Plug-In . SVG Version: 6.00 Build 0)  -->
<svg version="1.1" id="Layer_1" xmlns="http://www.w3.org/2000/svg" xmlns:xlink="http://www.w3.org/1999/xlink" x="0px" y="0px"
	 viewBox="0 0 128 128" style="enable-background:new 0 0 128 128;" xml:space="preserve">
<style type="text/css">
	.st0{fill:#2D2D2D;}
</style>
<g>
	<path class="st0" d="M25,120.2c-0.8-2.59-1.38-5.23-1.85-7.88c-0.95-5.31-1.47-10.66-1.77-16.02c-0.29-5.36-0.48-10.71-0.46-16.07
		c-0.01-5.35-0.01-10.72-0.6-16.02c-1.26-10.66-1.68-21.37-1.87-32.07c-0.18-10.7-0.19-21.41,0.14-32.11c0,0,0,0,0,0
		c-2.18,0.28-4.45,0.37-6.71,0.16C10.75,0.05,9.7,0.04,8.6,0.01c-1.03-0.02-2.08,0-3.16,0.04c0.42,5.31,0.72,10.62,0.93,15.93
		c0.11,2.66,0.2,5.32,0.28,7.99c0.09,2.66,0.13,5.32,0.14,7.99l-0.05,7.99l-0.03,4l0.04,4c0.09,5.33,0.4,10.65,0.78,15.96
		l1.22,15.92L8.9,81.8l0.21,1.97l0.43,3.98c0.29,2.68,0.37,5.37,0.41,8.06c-0.01,5.37-0.36,10.73-1.03,16.04
		c-0.34,2.66-0.78,5.3-1.29,7.93c-0.26,1.31-0.56,2.62-0.9,3.92c-0.34,1.22-0.97,3.02-1.57,4.24l23.33-0.29
		c-0.77-1.07-1.62-2.57-2.1-3.62C25.83,122.78,25.4,121.49,25,120.2z"/>
	<path class="st0" d="M24.49,108.93c6.01-0.49,12.11-0.04,18.12-0.28c3.07-0.13,6.13-0.22,9.2-0.3l0.51-0.01
		c0.24-0.19,0.53-0.45,0.79-0.69l1.69-1.57c0.29-0.27,0.57-0.53,0.89-0.8c0.17-0.14,0.3-0.26,0.56-0.44
		c0.04-0.03,0.06-0.04,0.14-0.08l0.1-0.05c0,0,0.04-0.02,0.11-0.04c0.05-0.02,0.11-0.03,0.17-0.04c0.05-0.01,0.13-0.02,0.16-0.02
		l-0.01,0l-0.03,0l0.06-0.01l0.27-0.04l2.27-0.36l0.29-0.04l0.19-0.02l0.1-0.01c-0.05,0,0.18-0.01,0.37,0.05
		c0.19,0.06,0.37,0.19,0.47,0.32c0.16,0.18,0.25,0.48,0.25,0.7c0,0.07-0.01,0.14-0.02,0.21l-0.02,0.1l-0.01,0.05l-0.03,0.09
		c-0.02,0.07-0.04,0.09-0.05,0.13c-0.03,0.08-0.06,0.13-0.09,0.19l-0.16,0.3c-0.21,0.37-0.42,0.7-0.64,1.03
		c-0.2,0.31-0.4,0.62-0.6,0.93l2.2-0.05c3.07-0.09,6.14-0.04,9.21,0.23c1.54,0.09,3.07,0.09,4.6-0.07c1.53-0.15,3.05-0.5,4.58-0.64
		c0.76-0.08,1.53-0.1,2.3-0.1c0.77-0.02,5.19-0.42,6.65-0.16c-0.18-3.95-0.24-7.29-0.26-11.23c-0.01-2.23-0.02-3.62,0.01-5.85
		c0,0-62.83-4.75-63.43-4.81c-0.63-0.07-1.37,0.02-2.08,0.11l-0.8,0.11c0.26,3.47,0.5,6.94,0.8,10.41
		C23.71,100.69,24,104.43,24.49,108.93z M28.62,96.97c0.87,0.08,1.69,0.41,2.46,0.72c0.77,0.33,1.54,0.65,2.3,1.1
		c0.11,0.07,0.22,0.16,0.33,0.24c0.01-0.21,0.02-0.42,0.05-0.63c0.06-0.54,0.16-1.07,0.34-1.6c0.17-0.53,0.42-1.03,0.75-1.5
		c0.33-0.47,0.77-0.88,1.28-1.18l1-0.59l-0.35,1.19c-0.14,0.48-0.25,0.96-0.26,1.45c-0.01,0.48,0.02,0.95,0.06,1.43
		c0.03,0.48,0.1,0.96,0.2,1.47c0.05,0.28,0.11,0.57,0.16,0.87c0.06-0.04,0.12-0.1,0.19-0.13c0.61-0.34,1.22-0.55,1.81-0.8
		c0.6-0.23,1.23-0.49,1.88-0.57l1.19-0.14l-0.82,1.07c-0.26,0.34-0.53,0.73-0.76,1.1l-0.71,1.13c-0.24,0.38-0.45,0.76-0.66,1.17
		c-0.2,0.41-0.37,0.83-0.55,1.31l0,0c-0.01,0.03-0.05,0.05-0.09,0.04c-0.02-0.01-5.85-0.37-5.89-0.38
		c-0.02-0.01-0.04-0.03-0.04-0.05c-0.17-0.63-0.41-1.17-0.7-1.69c-0.3-0.51-0.64-0.99-1.02-1.44c-0.37-0.46-0.77-0.9-1.17-1.34
		c-0.4-0.44-0.84-0.88-1.27-1.26l-1.28-1.13L28.62,96.97z"/>
	<path class="st0" d="M6.69,119.62c0.15-1.24,0.28-2.47,0.39-3.71c-2.57,0.34-6.01,0.79-6.19,0.82c-0.03,0.01-0.07,0.01-0.1,0.01
		c-0.01,0-0.02,0-0.02,0c-0.14,3.7-0.36,7.4-0.77,11.1c-0.01,0.09,0.06,0.17,0.15,0.17l4.78-0.06c0.45-1.23,0.97-3.12,1.2-4.37
		C6.35,122.26,6.51,120.94,6.69,119.62z"/>
	<path class="st0" d="M0.44,87.61l0.23,11.16c0.06,3.37,0.2,6.75,0.23,10.12l6.7,0.25c0.24-4.26,0.4-9.06,0.33-13.31
		c-0.03-1.32-0.06-2.64-0.11-3.96L7.71,89.9c-0.03-0.66-0.07-1.32-0.13-1.97l-0.24-2.78c-0.45,0.17-0.89,0.35-1.34,0.53l-1.96,0.81
		C3.39,86.76,1.09,87.43,0.44,87.61z"/>
	<path class="st0" d="M0.41,86.53c0.38-0.33,2.62-0.83,3.32-1.01c0.7-0.18,1.4-0.33,2.11-0.45c0.49-0.08,0.99-0.28,1.48-0.34
		l-0.08-0.77l-0.17-2.01l-0.12-2c-0.1-1.68-0.18-3.35-0.24-5.03c-0.44,0.08-1.68,0.3-2.23,0.33c-0.6,0.03-3.62,0.29-4.38,0.22
		l0.27,8.63L0.41,86.53z"/>
	<path class="st0" d="M96.26,111.65c0.91,1.4,1.61,2.94,2.07,4.55l0.01-0.36c0.08-2.63,0.14-5.27,0.28-7.91
		c-0.56,0.07-1.33,0.14-2.38,0.25C96.24,109.33,96.25,110.49,96.26,111.65z"/>
	<path class="st0" d="M109.66,102.7c0.99-0.84,2.07-1.57,3.19-2.18l2.52-1.38l-1.76,2.18c-1.43,1.77-2.73,3.65-3.8,5.66
		c1.21-0.4,6.67-0.79,8.17-0.78c1.5,0.02,3.01,0.05,4.51,0.09c1.37,0.06,3.18,0.1,4.63,0.17c0.05-2.56,0.14-5.11,0.18-7.69
		l0.15-7.22c-1.79,0.01-19.63-0.75-21.16-1.24l-0.03,0.12l-0.5,2.81c-0.63,3.75-1.06,7.54-1.4,11.33c-0.07,0.95-0.15,1.9-0.24,2.85
		l-0.21,2.85c-0.01,0.12-0.02,0.23-0.02,0.35c0.8-1.82,1.82-3.55,3.07-5.11C107.79,104.5,108.68,103.55,109.66,102.7z"/>
	<path class="st0" d="M107.98,83.34c-0.11,0.49-0.26,1.03-0.4,1.52l-0.21,0.85c1.59-0.33,18.52,1.37,20.19,1.63l0.07-3.23l0.16-6.04
		l-0.39,0.6c-0.14,0.22-0.31,0.48-0.44,0.73c-0.14,0.25-0.29,0.48-0.45,0.71c-0.32,0.47-0.62,0.91-0.97,1.52l0,0
		c-0.02,0.03-3.99-0.24-3.99-0.26c-0.18-0.41-0.37-0.74-0.58-1.05c-0.22-0.31-0.45-0.59-0.7-0.87c-0.23-0.26-0.47-0.52-0.7-0.8
		c-1.9,0.19-3.8,0.35-5.7,0.53l-6.13,0.48c-2.04,0.15-4.08,0.46-6.13,0.38c-1.69-0.05-3.37-0.17-5.07-0.46
		c0.02,1.47,0.04,2.94,0.05,4.41c0,0.38,0,2.29,0,2.68c4.79-0.18,8.47-0.91,8.64-0.94c0.32-0.41,0.77-1.04,1.1-1.44l0.96-1.14
		l0.48-0.57l0.24-0.29c0.04-0.05,0.07-0.09,0.14-0.17c0.07-0.07,0.16-0.11,0.21-0.15c-0.03,0.1-0.06,0.22-0.09,0.32c0,0,0,0,0,0.01
		c0,0-0.01,0.01-0.01,0.02C108.14,82.64,108.06,82.97,107.98,83.34z"/>
	<path class="st0" d="M127.12,111.42c-0.01-0.35-0.01-0.63-0.01-0.99c-0.03,0-0.04,0-0.08,0.01c-1.73,0.23-3.46,0.4-5.19,0.6
		c-1.73,0.19-3.47,0.35-5.2,0.51c-1.73,0.16-3.46,0.48-5.2,0.41c-1.36-0.04-2.71-0.14-4.08-0.39c-0.01,0.05-0.03,0.11-0.04,0.16
		c-0.55,2.25-1.05,6.51-1.2,8.78c-0.16,2.25,0,4.52,0.57,6.77c7.08,0.14,14.15,0.33,21.23,0.71c0.06,0,0.1-0.04,0.09-0.1
		C127.47,123.07,127.25,116.24,127.12,111.42z"/>
	<path class="st0" d="M41.66,73.48c-0.46-2.64-0.72-5.3-0.97-7.95c-0.27-3.1-0.47-6.2-0.63-9.3c-0.17-3.1-0.3-6.2-0.38-9.3
		c-0.09-3.11-0.03-6.23,0-9.33c0.06-6.21,0.15-12.42,0.26-18.62l0.47-18.47c-0.93,0.16-1.9,0.21-2.86,0.08
		c-0.5-0.08-0.97-0.09-1.45-0.1c-0.41-0.01-0.83,0-1.26,0.03c0.42,3.1,0.62,6.2,0.77,9.3c0.14,3.15,0.25,6.3,0.09,9.46
		c-0.15,3.15-0.4,6.31-0.38,9.46c-0.01,3.15,0.2,6.3,0.37,9.46c0.34,6.3,0.27,12.66-0.21,18.96c-0.23,3.15-0.57,6.3-0.99,9.43
		c-0.35,2.4-0.72,4.8-1.28,7.17c1.83-0.08,3.67-0.14,5.5-0.2C39.7,73.52,40.68,73.5,41.66,73.48z"/>
	<path class="st0" d="M51.7,82.18c1.38,0.1,2.75,0.21,4.13,0.34c2.31,0.19,4.62,0.47,6.92,0.79c2.3,0.32,4.61,0.55,6.93,0.62
		c2.32,0.08,17.48,2.54,19.26,2.86c0.05-1.81,0.02-4.82,0.08-6.62L73.4,80.7c-5.69,0.36-11.39,0.7-17.08,1.12
		C54.78,81.95,53.24,82.07,51.7,82.18z"/>
	<path class="st0" d="M75.94,18.47c-0.14,3.08-0.39,6.16-0.36,9.24c0,3.08,0.2,6.15,0.38,9.24c0.18,3.08,0.22,6.16,0.18,9.27
		c-0.07,3.05,0.01,6.1,0.05,9.16l0.21,9.21c0.01,1.54,0.02,3.09-0.04,4.64c-0.03,0.78-0.09,1.55-0.18,2.33
		c-0.04,0.32-0.09,0.64-0.14,0.95c1.79-0.1,3.58-0.14,5.37-0.16c0.22,0,0.43,0,0.65,0c-0.64-2.84-0.96-5.74-1.26-8.63
		c-0.3-3.03-0.53-6.06-0.71-9.09c-0.2-3.03-0.35-6.06-0.45-9.09c-0.11-3.04-0.06-6.09-0.05-9.13c0.05-6.07,0.14-12.14,0.25-18.21
		c0.13-5.89,0.3-11.78,0.47-17.67c-0.85,0.12-1.72,0.16-2.58,0.04c-0.5-0.08-0.96-0.09-1.45-0.1c-0.4-0.01-0.8,0-1.22,0.02
		c0.39,2.91,0.61,5.82,0.76,8.73C75.96,12.31,76.08,15.39,75.94,18.47z"/>
	<path class="st0" d="M39.15,80.96c5.7-0.35,11.36-0.72,17.09-0.83l17.12-0.45l15.76-0.94c0.08-2.16,0.17-3.07,0.25-5.23
		c-2.62,0.08-5.25,0.15-7.89,0.37c-2.84,0.22-5.68,0.41-8.54,0.33c-2.85-0.07-14.24,0.34-17.08,0.63c-5.69,0.5-11.4,0.71-17.1,0.67
		c-1.98-0.02-16.13-0.16-16.14-0.16c0.13,1.85,0.3,6.34,0.37,7.15C28.58,81.62,33.52,81.32,39.15,80.96z"/>
	<path class="st0" d="M117.2,17.88c-0.14,2.98-0.4,5.96-0.38,8.94c-0.02,2.98,0.16,5.96,0.34,8.94c0.2,2.98,0.24,5.96,0.24,8.96
		c-0.04,2.97,0.01,5.91,0.03,8.88c0.04,2.96,0.08,5.93,0.1,8.92c-0.01,1.49-0.01,2.99-0.09,4.49c-0.03,0.75-0.1,1.5-0.18,2.25
		c-0.06,0.54-0.14,1.08-0.27,1.61l2.62-0.03c0.74,0,1.49,0,2.23,0c-0.55-2.79-0.84-5.62-1.1-8.43c-0.26-2.97-0.46-5.93-0.62-8.9
		c-0.17-2.97-0.3-5.93-0.37-8.9c-0.08-2.98-0.02-5.96,0-8.93c0.07-5.95,0.15-11.89,0.26-17.83l0.45-17.2
		c-0.66,0.04-1.33,0.03-1.99-0.05c-0.56-0.08-1.09-0.09-1.64-0.1c-0.15,0-0.31,0.01-0.46,0.01c0.38,2.81,0.58,5.63,0.72,8.45
		C117.22,11.92,117.35,14.9,117.2,17.88z"/>
	<path class="st0" d="M96.46,76.98c0.02,0.64,0.03,0.75,0.04,1.4c1.77,0,9.12-0.26,11.18-0.25l6.15,0.09
		c1.83,0.06,3.66,0.1,5.49,0.17c-0.2-0.22-0.4-0.44-0.6-0.63l-1.2-1.19l1.51,0.2c0.59,0.08,1.13,0.37,1.64,0.59
		c0.5,0.25,1.03,0.42,1.58,0.68c0.03,0.01,0.05,0.03,0.08,0.05c0-0.07,0-0.14,0.01-0.21c0.03-0.36,0.09-0.72,0.19-1.08
		c0.1-0.36,0.26-0.71,0.48-1.04c0.22-0.33,0.52-0.62,0.87-0.84l0.98-0.6l-0.32,1.21c-0.08,0.31-0.14,0.61-0.12,0.91l0.06,0.88
		c0.01,0.29,0.03,0.6,0.06,0.94c0.01,0.13,0.02,0.27,0.03,0.42c0.44-0.18,0.84-0.29,1.21-0.47c0.39-0.17,0.82-0.41,1.25-0.49
		l0.77-0.14l0.18-6.56c-2.59,0.28-5.74,0.5-8.33,0.75l-7.82,0.66c-2.61,0.21-5.21,0.58-7.83,0.57c-2.53,0-5.07-0.02-7.61,0.15
		L96.46,76.98z"/>
	<path class="st0" d="M89.94,124.02c0.45-1.21,0.54-2.51,0.46-3.79c-0.04-0.64-0.15-1.28-0.29-1.91l-0.21-3.02
		c-0.07-0.34-0.11-0.68-0.17-1.02c-0.1-0.7-0.18-1.4-0.25-2.1c-1.09,0.24-2.18,0.41-3.27,0.54c-1.37,0.17-39.95,1.5-45.46,1.46
		c-5.13-0.05-10.25-0.18-15.38-0.44c0.21,1.39,0.45,4.8,0.73,6.17c0.54,2.44,1.52,5.44,2.73,7.72l3.11-0.04L64,127.3
		c7.9-0.08,15.8-0.22,23.7-0.24C88.74,126.31,89.5,125.2,89.94,124.02z"/>
	<path class="st0" d="M96.55,90.3c-0.03,2.57-0.07,5.15-0.13,7.72c-0.07,2.34-0.13,4.67-0.15,7c-0.01,0.63-0.01,1.25-0.02,1.88
		c0.79-0.08,1.73,0.34,2.38,0.28c0.06-0.94,0.19-2.39,0.28-3.33c0.21-2.01,0.52-3.99,0.97-5.96c0.23-0.98,0.48-1.97,0.77-2.94
		c0.31-0.97,0.65-1.93,1.02-2.87c0.21-0.51,0.44-1.01,0.67-1.51C101.39,90.49,98.55,90.26,96.55,90.3z"/>
	<path class="st0" d="M92.99,108.08l0.27,0.22c0.36,0.29,0.7,0.6,1.03,0.92c0.61,0.61,1.17,1.28,1.68,1.99
		c-0.14-1.06-0.26-2.13-0.36-3.2c-0.03-0.18-0.07-0.65-0.07-0.81c-0.06-0.72-0.12-1.44-0.17-2.16c-0.14-2.34-0.24-4.68-0.34-7.01
		c-0.16-4.67-0.29-9.34-0.38-14.01c-0.11-4.66-0.19-9.34-0.1-14.03c0.06-4.68,0.17-9.35,0.27-14.02c0.22-9.34,0.48-18.69,0.78-28.03
		l1.01-27.41c-0.98,0.13-1.99,0.17-3,0.05c-0.56-0.08-1.09-0.09-1.64-0.1c-0.39-0.01-0.79,0.01-1.19,0.02
		c0.3,5.16,0.45,10.32,0.52,15.48c0.06,5.35,0.11,10.7-0.1,16.05c-0.19,5.35-0.51,10.69-0.56,16.04c-0.03,2.67-0.02,5.35,0.02,8.02
		l0.19,8.03c0.08,2.68,0.12,5.35,0.16,8.03c0.01,2.69-0.06,5.35-0.08,8.03c-0.04,5.34-0.07,10.69-0.15,16.03
		c-0.05,5.34-0.14,10.68-0.04,16c0.03,1.33,0.06,2.66,0.16,3.97c0.03,0.32,0.06,0.65,0.1,0.97l0.14,0.98
		c0.1,0.68,0.17,1.38,0.17,2.07c0.02,1.39-0.25,2.8-0.84,4.06c-0.54,1.14-1.36,2.14-2.42,2.8c2.25,0,4.51,0.01,6.76,0.03
		c0.59-1.48,0.9-3.1,0.84-4.71c-0.06-1.7-0.51-3.36-0.89-4.98c-0.21-0.81-0.39-1.62-0.59-2.44c-0.22-0.81-0.43-1.62-0.67-2.43
		c-0.24-0.81-0.48-1.63-0.74-2.44c-0.14-0.42-0.23-0.78-0.41-1.32c-0.15-0.52-0.19-0.97-0.31-1.28c0.15,0.11,0.37,0.19,0.62,0.35
		C92.77,107.91,92.9,108.01,92.99,108.08z"/>
</g>
</svg>
