<?xml version="1.0" encoding="utf-8"?>
<!-- Generator: Adobe Illustrator 24.1.2, SVG Export Plug-In . SVG Version: 6.00 Build 0)  -->
<svg version="1.1" id="Layer_1" xmlns="http://www.w3.org/2000/svg" xmlns:xlink="http://www.w3.org/1999/xlink" x="0px" y="0px"
	 viewBox="0 0 128 128" style="enable-background:new 0 0 128 128;" xml:space="preserve">
<style type="text/css">
	.st0{fill:#2D2D2D;}
</style>
<g>
	<path class="st0" d="M36.37,42.29c-0.29-0.84-0.6-1.68-0.93-2.51l-0.13-0.32l-0.08,0.12l-2.92,4.56
		c-3.92,6.06-7.87,12.11-11.92,18.09c-0.03,0.04-0.08,0.05-0.12,0.02c-0.03-0.02-0.03-0.05-0.03-0.07c-0.02,0-0.04-0.02-0.05-0.03
		c-4.24-5.85-8.36-11.78-12.42-17.75l-2.73-4.03l-0.41,1.1c-0.3,0.84-0.59,1.69-0.87,2.54c-1.09,3.4-2.03,6.86-2.71,10.36
		c-0.69,3.49-1.14,7.05-1.05,10.61c0.05,1.78,0.23,3.55,0.62,5.29c0.4,1.73,1.01,3.42,1.89,4.96c0.89,1.53,2.03,2.92,3.42,4.03
		c1.39,1.1,2.97,1.98,4.65,2.56c3.37,1.2,7.02,1.4,10.58,1.2c3.56-0.22,7.12-0.92,10.24-2.49c3.14-1.54,5.64-4.12,7.09-7.25
		c1.47-3.13,1.98-6.67,1.98-10.17c-0.01-3.52-0.47-7.05-1.21-10.53C38.56,49.09,37.54,45.66,36.37,42.29z"/>
	<path class="st0" d="M86.07,89.15c-0.25-0.85-0.51-1.69-0.78-2.53l-0.35-1.04l-2.69,3.95c-4.03,5.9-8.13,11.75-12.35,17.53
		c-0.01,0.02-0.03,0.03-0.05,0.03c0,0.03-0.01,0.06-0.04,0.08c-0.04,0.02-0.09,0.01-0.11-0.03c-3.8-6.05-7.5-12.16-11.18-18.29
		l-2.73-4.61l-0.05-0.09l-0.1,0.24c-0.33,0.82-0.64,1.65-0.94,2.48c-1.18,3.33-2.23,6.71-2.98,10.15c-0.78,3.43-1.3,6.92-1.39,10.4
		c-0.08,3.47,0.29,6.99,1.59,10.16c0.33,0.79,0.71,1.55,1.15,2.28c0.45,0.72,0.95,1.41,1.5,2.05c1.12,1.27,2.46,2.37,3.96,3.2
		c3,1.7,6.51,2.49,10.02,2.77c3.52,0.27,7.13,0.11,10.46-1.08c1.65-0.6,3.22-1.46,4.56-2.59c0.34-0.27,0.65-0.58,0.97-0.89
		c0.29-0.33,0.6-0.64,0.87-0.99c0.56-0.68,1.04-1.41,1.47-2.18c0.43-0.76,0.78-1.57,1.08-2.4c0.3-0.82,0.55-1.67,0.74-2.53
		c0.39-1.72,0.57-3.47,0.64-5.23c0.13-3.52-0.25-7.05-0.85-10.52C87.89,95.99,87.05,92.55,86.07,89.15z"/>
	<path class="st0" d="M70.25,49.62l0.25,0.8h2.69l-0.15-0.21c0,0,0,0,0,0l-0.78-1.07C71.58,49.3,70.92,49.46,70.25,49.62
		L70.25,49.62z"/>
	<path class="st0" d="M104.91,31.96c-0.05,0.31-0.11,0.62-0.17,0.92c-0.13,0.6-0.3,1.19-0.48,1.77c-0.18,0.58-0.38,1.16-0.6,1.73
		c-0.2,0.51-0.42,1.02-0.68,1.54c0.03,0.22,0.02,0.42-0.01,0.59c-0.02,0.24-0.08,0.45-0.13,0.67c-0.1,0.42-0.24,0.83-0.37,1.22
		c-0.14,0.4-0.29,0.79-0.46,1.17c-0.15,0.35-0.3,0.7-0.47,1.05l0.01,2.32c0.01,0.76,0,1.51-0.01,2.27c0.28,0.24,0.55,0.49,0.82,0.73
		l2.31-0.42c-0.07-0.04-1.18-1.27-1.18-1.27l-0.08-0.06l-0.01-0.12l-0.23-4.87l0-0.07l0.04-0.09c0.31-0.74,0.6-1.51,0.84-2.27
		c0.12-0.38,0.23-0.77,0.3-1.15c0.04-0.19,0.07-0.38,0.09-0.55c0.02-0.18,0.01-0.33,0-0.41l-0.04-0.24l0.08-0.15
		c0.27-0.49,0.51-1.03,0.76-1.57c0.25-0.54,0.47-1.09,0.7-1.64c0.22-0.55,0.44-1.11,0.65-1.67c0.04-0.11,0.08-0.22,0.12-0.33
		c-0.55,0.39-1.16,0.7-1.8,0.88C104.91,31.95,104.91,31.96,104.91,31.96z"/>
	<path class="st0" d="M64.41,31.55l0.01,0.02l0.01,0.03c0.12,0.61,0.19,1.26,0.03,1.91c-0.01,0.05-0.03,0.11-0.04,0.16
		c0.33-0.21,0.64-0.44,0.92-0.7c0.67-0.62,1.19-1.4,1.31-2.22c0.03-0.2,0.03-0.41,0.03-0.65c0-0.24-0.01-0.47-0.03-0.71
		c-0.03-0.47-0.09-0.94-0.17-1.41c-0.08-0.46-0.18-0.92-0.33-1.36c-0.14-0.43-0.33-0.86-0.57-1.11l-0.1-0.11l-0.02-0.09
		c-0.14-0.6-0.13-1.12-0.14-1.66c0-0.53,0.03-1.06,0.07-1.59c0.05-0.53,0.1-1.05,0.18-1.58c0.07-0.4,0.13-0.8,0.25-1.19
		c-0.01-0.04-0.01-0.07-0.02-0.11c-0.1-0.61-0.15-1.23-0.16-1.85c-0.01-0.53,0.02-1.07,0.13-1.59c-0.16,0.27-0.25,0.58-0.35,0.88
		c-0.12,0.38-0.21,0.78-0.3,1.17c-0.08,0.4-0.16,0.79-0.23,1.19l-0.19,1.2c-0.11,0.8-0.22,1.6-0.28,2.4
		c-0.03,0.4-0.06,0.8-0.07,1.19c-0.02,0.39-0.01,0.79,0.05,1.1l0.03,0.18l-0.06,0.11c-0.23,0.41-0.37,0.97-0.47,1.51
		c-0.1,0.54-0.15,1.1-0.16,1.66c0,0.56,0.03,1.12,0.14,1.67C63.97,30.53,64.13,31.08,64.41,31.55z"/>
	<path class="st0" d="M127.94,20.83c-0.09-0.45-0.26-0.91-0.46-1.36c-0.2-0.45-0.44-0.89-0.68-1.33c-0.12-0.22-0.25-0.44-0.38-0.65
		l-0.1-0.16c-0.04-0.06-0.08-0.13-0.11-0.19c-0.03-0.05-0.05-0.1-0.07-0.15c-0.17,0.43-0.37,0.84-0.61,1.24
		c-0.17,0.27-0.36,0.52-0.59,0.75c-0.12,0.11-0.25,0.22-0.4,0.31c-0.07,0.04-0.16,0.09-0.24,0.12l-0.2,0.09
		c-0.55,0.24-1.03,0.6-1.54,0.9c-0.25,0.15-0.51,0.3-0.76,0.45c-0.18,0.12-0.37,0.24-0.53,0.39c0.22,0.08,0.44,0.16,0.66,0.23
		l0.29,0.09l0.15,0.04c0.08,0.02,0.18,0.07,0.24,0.12c0.24,0.2,0.32,0.41,0.42,0.61c0.18,0.4,0.3,0.79,0.45,1.17
		c0.07,0.18,0.16,0.37,0.27,0.47c0.01,0.01,0.02,0.02,0.03,0.03l0.06,0.03c0.04,0.02,0.08,0.04,0.13,0.05
		c0.09,0.03,0.18,0.05,0.27,0.05c0.35,0.02,0.71-0.15,0.99-0.4l-0.01-0.02c-0.12-0.23-0.23-0.46-0.34-0.7
		c-0.22-0.47-0.43-0.94-0.63-1.43c-0.01-0.03,0-0.05,0.03-0.06c0.02-0.01,0.04,0,0.06,0.01c0.34,0.39,0.67,0.8,0.98,1.21
		c0.16,0.2,0.31,0.41,0.47,0.62l0.22,0.3c0.01-0.01,0.04-0.02,0.05-0.02l0.16-0.07c0.1-0.05,0.21-0.11,0.31-0.17
		c0.2-0.12,0.39-0.25,0.56-0.4c0.17-0.15,0.33-0.31,0.47-0.48c0.07-0.08,0.14-0.17,0.2-0.27l0.09-0.14l0.06-0.11
		C128.03,21.72,128.02,21.28,127.94,20.83z M126.95,22.16c-0.18,0.02-0.38-0.32-0.44-0.77c-0.06-0.45,0.04-0.83,0.23-0.85
		c0.18-0.02,0.01,0.58,0.44,0.77C127.61,21.5,127.13,22.14,126.95,22.16z"/>
	<path class="st0" d="M122.18,19.85c0.26-0.19,0.54-0.34,0.83-0.46c0.29-0.12,0.59-0.24,0.89-0.34l0.23-0.07
		c0.06-0.02,0.12-0.04,0.18-0.07c0.12-0.06,0.24-0.13,0.35-0.22c0.22-0.18,0.42-0.4,0.61-0.63c0.3-0.37,0.56-0.79,0.8-1.22
		c-0.01-0.02-0.02-0.05-0.03-0.07c-0.4-0.99-0.66-1.98-1.02-2.96c-0.35-0.98-0.76-1.94-0.97-2.97c-0.03-0.13-0.05-0.26-0.07-0.39
		c-0.02-0.12-0.04-0.22-0.07-0.34c-0.05-0.22-0.13-0.44-0.23-0.66c-0.19-0.43-0.44-0.84-0.75-1.2c-0.61-0.72-1.45-1.27-2.46-1.43
		c-0.12,0.35-0.25,0.7-0.4,1.04c-0.01,0.03-0.04,0.04-0.07,0.03c-0.02-0.01-0.03-0.03-0.03-0.04c-0.03-0.71,0.01-1.4,0.06-2.1
		c0.06-0.69,0.13-1.38,0.22-2.07c0.09-0.68,0.24-1.36,0.38-2.03c0.12-0.55,0.23-1.11,0.36-1.65c-0.17,0.04-0.35,0.12-0.52,0.24
		c-0.3,0.22-0.55,0.52-0.77,0.83c-0.44,0.64-0.65,1.41-0.87,2.15l-0.68,2.19c-0.25,0.74-0.5,1.49-0.85,2.21
		c-0.01,0.03-0.04,0.04-0.07,0.02c-0.02-0.01-0.03-0.03-0.03-0.04c-0.01-0.33,0-0.65,0.02-0.97c-0.29,0.18-0.59,0.35-0.89,0.52
		c-0.51,0.29-1.02,0.58-1.54,0.85c-0.52,0.27-1.04,0.54-1.58,0.78c-0.27,0.12-0.54,0.24-0.82,0.35c-0.28,0.12-0.53,0.21-0.79,0.33
		c-1.03,0.47-2.04,1.04-3.05,1.61c-0.5,0.29-1.02,0.57-1.53,0.85c-0.52,0.28-1.03,0.53-1.62,0.77c-0.61,0.21-1.19,0.29-1.78,0.38
		c-0.59,0.08-1.17,0.15-1.76,0.2c-1.17,0.1-2.34,0.17-3.51,0.24c-1.17,0.08-2.33,0.14-3.5,0.2c-1.17,0.05-2.34,0.11-3.52,0.09
		c-1.19-0.02-2.37-0.16-3.52-0.35c-1.16-0.18-2.31-0.39-3.46-0.63c-1.15-0.24-2.29-0.49-3.43-0.75c-0.57-0.13-1.14-0.27-1.71-0.41
		l-0.85-0.22c-0.29-0.08-0.56-0.14-0.87-0.24c-0.6-0.2-1.12-0.46-1.63-0.61c-0.51-0.16-1.01-0.22-1.52-0.17
		c-0.26,0.02-0.51,0.09-0.77,0.16l-0.83,0.26c-0.55,0.17-1.1,0.36-1.63,0.56c-1.07,0.41-2.13,0.87-3.06,1.51
		c-0.47,0.32-0.91,0.68-1.29,1.1c-0.37,0.42-0.67,0.9-0.85,1.45c0,0,0,0.01,0,0.01c-0.12,1.21,0.09,2.41,0.37,3.59
		c0.29,1.17,0.65,2.33,1.07,3.47c0.4,1.14,0.87,2.27,1.34,3.38c0.48,1.12,0.98,2.22,1.5,3.32l0.04,0.07l0.01,0.07
		c0.04,0.47,0.09,0.96,0.05,1.48c-0.03,0.52-0.22,1.06-0.5,1.5c-0.5,0.77-0.88,1.63-1.32,2.47c-0.22,0.42-0.44,0.85-0.73,1.25
		c-0.22,0.32-0.27,0.81-0.27,1.25c0,0.46,0.07,0.92,0.18,1.37c0.11,0.45,0.26,0.89,0.48,1.29l0.02,0.03l0,0.04
		c0.01,0.66,0.06,1.32,0.12,1.98c0.05,0.66,0.13,1.32,0.2,1.98c0.14,1.28,0.31,2.56,0.47,3.84c0.31,0.33,0.6,0.67,0.9,1.01
		c0.64-0.18,1.28-0.37,1.92-0.55l-0.64-0.9l-0.06-0.08l-0.02-0.11c-0.33-2.09-0.68-4.13-0.87-6.28l-0.01-0.21c0-0.07,0-0.18,0-0.27
		c0.01-0.09,0.03-0.2,0.06-0.27l0.07-0.22c0.09-0.27,0.2-0.52,0.3-0.77c0.21-0.49,0.43-0.97,0.65-1.45l0.66-1.42l0.16-0.38
		c0.08-0.17,0.16-0.28,0.25-0.4c0.17-0.23,0.34-0.44,0.52-0.65c0.71-0.81,1.45-1.56,2.19-2.31c0.37-0.38,0.75-0.73,1.08-1.12
		c0.34-0.39,0.66-0.8,0.97-1.22c0.15-0.21,0.3-0.42,0.44-0.63c0.14-0.21,0.28-0.43,0.36-0.65c0.2-0.5,0.41-0.97,0.62-1.46
		c0.21-0.48,0.41-0.97,0.6-1.45c0.19-0.49,0.4-0.97,0.5-1.47l0-0.01c0.01-0.03,0.03-0.04,0.06-0.04c0.03,0,0.04,0.03,0.04,0.05
		c-0.07,0.54-0.26,1.03-0.41,1.53c-0.17,0.49-0.34,0.98-0.52,1.46c1.43,0.97,2.94,1.83,4.51,2.55c1.61,0.73,3.3,1.33,5.05,1.53
		c1.76,0.14,3.55,0.24,5.3,0.17c0.88-0.04,1.75-0.17,2.54-0.54c0.4-0.18,0.79-0.4,1.17-0.62c0.29-0.17,0.82-0.43,1.22-0.66
		c0.07-0.5,0.15-0.99,0.24-1.48c0.16-0.77,0.33-1.56,0.55-2.3l0-0.02c0.01-0.03,0.03-0.04,0.06-0.03c0.02,0.01,0.04,0.03,0.03,0.05
		c-0.07,0.81-0.17,1.57-0.22,2.36c-0.06,0.78-0.1,1.56-0.13,2.34c-0.02,0.78-0.02,1.56,0.02,2.33c0.05,0.77,0.12,1.54,0.26,2.28
		l0,0.02l0,0.03c0.05,0.55,0.09,1.1,0.08,1.67c-0.01,0.29-0.01,0.58-0.11,0.93c-0.05,0.17-0.16,0.37-0.26,0.5l-0.14,0.16
		c-0.01,0.01-0.02,0.03-0.03,0.03c0,0,0,0,0,0s-0.01,0-0.01,0.02c-0.05,0.14-0.08,0.41-0.08,0.66c0,0.25,0.01,0.52,0.04,0.78
		c0.06,0.52,0.14,1.06,0.31,1.51L99.21,42l-0.01,0.06c-0.08,0.48-0.14,0.98-0.2,1.48c-0.06,0.5-0.1,1-0.14,1.5l-0.1,1.5l-0.07,1.43
		c0.41,0.38,0.82,0.76,1.24,1.13l2.23-0.41c0,0,0-0.01,0-0.01c-0.42-0.32-0.85-0.65-1.27-0.98l-0.13-0.11l-0.01-0.19
		c-0.04-0.81-0.08-1.62-0.11-2.43l-0.09-2.43l0-0.1l0.05-0.11c0.32-0.73,0.61-1.5,0.88-2.25c0.13-0.38,0.25-0.76,0.34-1.13
		c0.04-0.18,0.08-0.37,0.1-0.54c0.03-0.18,0.02-0.33,0.01-0.41l-0.02-0.28l0.07-0.12c0.28-0.49,0.52-1.03,0.75-1.57
		c0.23-0.54,0.45-1.1,0.66-1.65c0.2-0.56,0.4-1.12,0.56-1.68c0.08-0.28,0.16-0.57,0.22-0.85c0.05-0.27,0.11-0.57,0.1-0.79
		l-0.01-0.17l0.09-0.1c0.26-0.28,0.52-0.63,0.76-0.97c0.25-0.34,0.48-0.7,0.72-1.05c0.49-0.7,0.96-1.41,1.44-2.12
		c0.02-0.02,0.05-0.03,0.07-0.01c0.02,0.01,0.03,0.04,0.02,0.06c-0.36,0.78-0.76,1.53-1.15,2.29c-0.2,0.38-0.42,0.75-0.63,1.12
		c-0.2,0.33-0.39,0.66-0.63,0.99c0.02,0.23,0.01,0.44-0.02,0.64c1.08-0.89,1.94-1.87,2.68-2.98l0.61-0.88
		c0.22-0.3,0.41-0.6,0.69-0.92c0.08-0.08,0.15-0.17,0.27-0.25c0.05-0.04,0.08-0.06,0.12-0.11c0.08-0.09,0.16-0.22,0.24-0.37
		c0.15-0.29,0.3-0.64,0.46-0.97c0.64-1.36,1.46-2.62,2.37-3.82c0.47-0.59,1.05-1.06,1.64-1.5c0.44-0.32,0.9-0.62,1.38-0.87
		c-0.18-0.18-0.33-0.37-0.48-0.57c-0.27-0.39-0.48-0.81-0.62-1.25c-0.14-0.44-0.21-0.91-0.13-1.37c0-0.03,0.03-0.05,0.06-0.04
		c0.02,0,0.03,0.02,0.04,0.04c0.13,0.42,0.33,0.79,0.56,1.13c0.23,0.34,0.48,0.66,0.77,0.95c0.56,0.57,1.23,1.03,1.88,1.16
		l0.21,0.04l0.1,0.12c0.44,0.54,1.15,0.97,1.87,1.32c0.46,0.23,0.94,0.42,1.43,0.61c0.07-0.25,0.23-0.48,0.39-0.68
		C121.68,20.25,121.92,20.04,122.18,19.85z M120.93,12.79c-0.15-0.08-0.32-0.19-0.45-0.31c0.12-0.03,0.36-0.13,0.56-0.21
		c0.18-0.24,0.51-0.35,0.85-0.27c0.27,0.07,0.48,0.25,0.57,0.47c0.29,0.26,0.62,0.64,0.74,1.08c-0.24-0.16-0.52-0.37-0.79-0.5
		c-0.16,0.27-0.52,0.41-0.88,0.32C121.22,13.29,120.99,13.06,120.93,12.79z"/>
	<path class="st0" d="M120.5,6.71c0.51-0.08,1.04-0.01,1.54,0.17c0.33-0.65,0.69-1.26,1.04-1.86l0.58-0.98
		c0.19-0.32,0.39-0.64,0.56-0.96c0.17-0.33,0.3-0.66,0.4-0.99c0.05-0.17,0.09-0.34,0.1-0.51c0-0.05,0-0.09,0-0.14
		c-0.09,0.08-0.18,0.19-0.26,0.29c-0.12,0.15-0.22,0.32-0.32,0.49c-0.2,0.34-0.34,0.72-0.52,1.09l0,0.01l-0.11,0.09
		c-0.22,0.18-0.44,0.37-0.69,0.53c-0.24,0.16-0.49,0.31-0.75,0.46c-0.34,0.19-0.69,0.37-1.06,0.53c-0.08,0.32-0.17,0.64-0.26,0.95
		C120.68,6.16,120.59,6.44,120.5,6.71z"/>
	<path class="st0" d="M105.09,11.95c0.48-0.22,1-0.52,1.51-0.78l1.53-0.84c1.03-0.56,2.07-1.11,3.18-1.55
		c0.27-0.11,0.58-0.21,0.84-0.3c0.27-0.09,0.54-0.19,0.81-0.29c0.54-0.21,1.08-0.42,1.61-0.64l1.61-0.68l1.05-0.45
		c0.03-0.4,0.09-0.79,0.15-1.19c0.04-0.21,0.08-0.42,0.13-0.63c-1.06,0.47-2.13,0.89-3.21,1.3c-1.24,0.48-2.57,0.76-3.77,1.36
		c-1.22,0.56-2.23,1.44-3.39,2.14c-0.58,0.35-1.19,0.69-1.89,0.89c-0.58,0.17-1.21,0.19-1.8,0.11c-0.03,0.37-0.07,0.75-0.11,1.12
		c-0.04,0.32-0.08,0.64-0.13,0.96c0.09-0.02,0.18-0.04,0.27-0.06C104.04,12.29,104.61,12.14,105.09,11.95z"/>
	<path class="st0" d="M93.63,32.21c-1.8,0.11-3.57-0.06-5.35-0.23c-1.79-0.24-3.48-0.88-5.09-1.64c-1.56-0.76-3.15-1.38-4.56-2.39
		c-0.18,0.49-0.27,0.71-0.43,1.19c-0.08,0.26-0.2,0.5-0.32,0.72c0.22,0.16,0.37,0.29,0.55,0.44l0.54,0.45
		c0.36,0.29,0.72,0.58,1.09,0.86c0.37,0.27,0.74,0.54,1.11,0.79l1.14,0.74c0.76,0.49,1.57,0.97,2.47,1.2
		c0.45,0.11,0.91,0.18,1.37,0.18c0.46,0.01,0.93-0.05,1.39-0.1c0.93-0.14,1.84-0.28,2.76-0.43c0.92-0.15,1.83-0.34,2.75-0.49
		c1.74-0.28,3.48-0.58,5.27-0.79c0.02-0.59,0.05-1.18,0.11-1.77c0.03-0.26,0.06-0.52,0.1-0.78c-0.69,0.49-1.61,1.03-2.28,1.38
		C95.44,31.98,94.52,32.14,93.63,32.21z"/>
	<path class="st0" d="M77.7,32.41c0.32-0.44,0.64-0.9,0.81-1.42c-0.25-0.33-0.5-0.7-0.68-1.04c-0.12,0.21-0.25,0.42-0.38,0.63
		c-0.29,0.45-0.59,0.88-0.91,1.31c-0.32,0.43-0.68,0.83-1.02,1.23c-0.69,0.79-1.39,1.58-2.03,2.38c-0.16,0.2-0.31,0.4-0.45,0.6
		c-0.06,0.1-0.13,0.2-0.16,0.27l-0.14,0.35c-0.2,0.5-0.41,0.98-0.62,1.46c-0.21,0.48-0.42,0.96-0.61,1.44
		c-0.09,0.24-0.19,0.48-0.26,0.7c-0.08,0.27-0.08,0.28-0.06,0.58c0.07,1,0.23,2.06,0.35,3.09l0.39,3.02l0.57,0.85
		c0.36-0.18,0.73-0.34,1.09-0.48c0.27-0.1,0.54-0.2,0.81-0.29c-0.06-0.09-0.13-0.17-0.19-0.26c-0.17-0.23-0.33-0.47-0.48-0.72
		l-0.05-0.09l-0.01-0.05c-0.13-0.71-0.15-1.43-0.21-2.15c-0.06-0.71-0.18-1.41-0.32-2.12c-0.13-0.71-0.31-1.41-0.31-2.18
		c0-0.19,0.02-0.4,0.08-0.62c0.05-0.2,0.12-0.38,0.19-0.55c0.14-0.35,0.29-0.68,0.46-1.01c0.33-0.66,0.71-1.27,1.18-1.86
		c0.12-0.15,0.25-0.29,0.4-0.44c0.2-0.18,0.3-0.24,0.43-0.36c0.25-0.22,0.51-0.46,0.75-0.7C76.82,33.49,77.28,32.97,77.7,32.41z"/>
	<path class="st0" d="M74.62,47.8c-0.28,0.05-0.57,0.1-0.86,0.14c-0.37,0.05-0.74,0.09-1.12,0.11h0l0.1,0.15
		c0.04,0.02,0.07,0.06,0.1,0.09c0.01,0.01,0.02,0.02,0.03,0.03l0.27,0.37l0.54,0.74h2.1h0l-1.1-1.51
		C74.66,47.89,74.64,47.84,74.62,47.8z"/>
	<polygon class="st0" points="102.49,49.23 100.37,49.46 100.37,49.46 100.49,49.87 100.66,50.42 103.35,50.42 102.66,49.47 	"/>
	<path class="st0" d="M105.88,49.26c-0.06-0.09-0.14-0.2-0.23-0.33c-0.33-0.47-0.78-1.11-0.82-1.17l-1.04,0.3l-1.04,0.29h0
		c0.01,0.01,0.08,0.08,0.19,0.18c0.16,0.15,0.39,0.38,0.58,0.56c0.19,0.19,0.34,0.33,0.34,0.33h2.15h0c0,0-0.03-0.05-0.08-0.12
		C105.91,49.3,105.9,49.29,105.88,49.26z"/>
</g>
</svg>
