<?xml version="1.0" encoding="utf-8"?>
<!-- Generator: Adobe Illustrator 23.0.0, SVG Export Plug-In . SVG Version: 6.00 Build 0)  -->
<svg version="1.1" id="Layer_1" xmlns="http://www.w3.org/2000/svg" xmlns:xlink="http://www.w3.org/1999/xlink" x="0px" y="0px"
	 viewBox="0 0 128 128" 
width="128" height="128"
style="enable-background:new 0 0 128 128;" xml:space="preserve">
<style type="text/css">
	.st0{fill:#2D2D2D;}
</style>
<g>
	<path class="st0" d="M72.8,115.3c0.3,0.3,0.5,0.5,0.9,0.7c0.3,0,0.5,0,0.8,0c0.3-0.6,1-1.5,2.6-2.1c-0.1-0.1-0.2-0.2-0.4-0.4
		L72.8,115.3z"/>
	<path class="st0" d="M79,113.8c0.1,0.3,0.2,0.5,0.1,0.8c-0.1,0.3-0.3,0.6-0.6,0.7c-0.9,0.3-1.6,0.6-2,1c1.3,0.1,2.2,0.1,2.2,0.1
		l0.9,0l0,0.1c0.5-0.2,1.2-0.6,1.8-1c0,0,0,0,0.1,0c-0.4-0.6-0.8-1.2-1.1-1.8C79.8,113.5,79.4,113.6,79,113.8z"/>
	<path class="st0" d="M87.4,114c0.2-0.6,0.9-1.6,2.3-2.5c-0.1-0.1-0.3-0.2-0.4-0.3l-3.6,2.4c0.3,0.2,0.6,0.4,1,0.6
		C86.9,114,87.2,114,87.4,114z"/>
	<path class="st0" d="M48.2,91.2c0.9-1.2,1.8-2.3,2.6-3.6c0.7-1.1,1.1-2.2,1.6-3.4c-0.4-0.1-0.5-0.2-0.9-0.4l-1.3-0.6
		c0,0-0.7,0.1-1.1,0.3c-0.8,0.4-1.7,0.8-2.5,1.2c-0.8,0.4-1.7,0.7-2.5,1c-0.8,0.3-1.7,0.6-2.6,0.9c-3.5,1.2-6.5,2-10,2.8
		c-0.1,0-4.8,6.8-7,10.1c-2.4,3.5-5,6.9-7.7,10.2c-1.3,1.6-2.7,3.3-4.2,4.8c-0.7,0.8-1.4,1.5-2.1,2.3l-2.1,2.3
		c-2.6,2.9-5.1,5.9-7.6,8.8c1.3-0.2,2.5-0.5,3.8-0.8c1.6-0.4,3.1-1,4.5-1.7c0.7-0.4,1.4-0.8,2-1.3c0.6-0.5,1.3-1,1.9-1.5l3.8-3.1
		l2.3-1.9l-1.6,2.6c-0.9,1.4-1.7,2.9-2.5,4.4c-0.2,0.4-0.4,0.7-0.6,1.1c0.4-0.4,0.8-0.7,1.2-1.1c1.3-1.2,2.6-2.5,3.9-3.8
		c2.6-2.5,5.1-5.2,7.5-7.8c0.6-0.7,1.2-1.3,1.8-2l0.8-1c0.3-0.4,0.6-0.7,0.9-1.1c1.2-1.4,2.5-2.7,3.9-3.9c1.3-1.2,2.7-2.5,4.1-3.7
		c1.3-1.2,2.8-2.4,4-3.6l0,0c1-0.9,2-2,3-3.1C46.4,93.5,47.3,92.4,48.2,91.2z"/>
	<path class="st0" d="M23.3,98.8c2.3-3,4.6-6,6.8-9c-1.6,0.3-3.1,0.6-4.7,0.9c-0.5,0.1-1.1,0.2-1.6,0.3c-0.7,0.8-1.3,1.6-2,2.3
		c-0.9,1.1-1.9,2.2-2.9,3.3c-1.9,2.1-3.9,4.3-6,6.2c-1,1-2.1,2-3.1,3c-1,1-1.9,2.2-2.9,3.3c-0.8,1-1.5,2.1-2.2,3.2
		c0.5-0.4,1-0.9,1.5-1.3c1.7-1.4,3.5-2.8,5.3-4.1c1.8-1.3,3.7-2.5,5.6-3.7c1.6-1,3.2-2,4.9-2.8C22.5,99.8,22.9,99.3,23.3,98.8z"/>
	<path class="st0" d="M66.2,96.7c0.2,0.6,0.2,1.1,0.3,1.6c0,0.5,0,1,0,1.5c-0.1,1.7-0.3,3.4-0.4,5.1c0,0.1,0,0.3,0.6,0.1
		c0.4-0.1,0.7-0.2,1.1-0.3l1-0.4c0.1,0,0.7-0.3,1-0.6c0.4-0.4,0.8-0.9,0.9-1.5c0.2-0.7,0.5-1.6,0.9-2.3c0.2-0.4,0.5-0.7,0.7-1
		l0.7-0.8c0.5-0.6,0.9-1.1,1.4-1.7c0.9-1.1,1.8-2.3,2.7-3.5c1.7-2.4,3.4-4.7,4.9-7.2c0.7-1.3,1.4-2.5,2-3.9c0.5-1,0.8-2.1,1.1-3.2
		c-0.7,0.3-1.4,0.6-2.2,0.8c-2,0.6-4.2,1-6.3,1c-0.5,0.2-1.1,0.4-1.7,0.5c-0.7,0.1-1.4,0.2-2.1,0.2c-0.7,0-1.4-0.1-2-0.2
		c-0.3-0.1-0.7-0.2-1-0.2c0,0,0,0-0.1,0c-0.4,0.3-0.9,0.6-1.3,0.9c-0.7,0.4-1.4,0.9-2.2,1.2c-0.5,0.3-0.6,0.3-1.1,0.5
		c0.3,1.7,0,3.5,0.2,5.1c0.2,1.9,0.3,3.8,0.5,5.7C65.9,95,66,95.9,66.2,96.7z"/>
	<path class="st0" d="M52.8,84.4c-0.3,1.3-0.9,2.5-1.5,3.6c-0.7,1.3-1.5,2.6-2.3,3.8c-0.8,1.2-1.7,2.4-2.6,3.6
		c-0.6,0.7-1.1,1.4-1.7,2.1c1.3-0.7,2.5-1.4,3.7-2.1c1.7-1,3.3-2.1,4.9-3.2c0.8-0.6,1.5-1.2,2.2-1.8c0.7-0.6,1.4-1.4,2.1-2.1
		c0.7-0.7,1.4-1.4,2-2.2c0.4-0.5,0.8-0.9,1.1-1.4c-1.4,0.3-2.8,0.5-4.2,0.4C55.2,85.1,54,84.8,52.8,84.4z"/>
	<path class="st0" d="M73.4,117.7l-0.2,0l-0.1-0.1c-4.3-2-4.2-10.5-4.2-12.7c0,0,0,0,0,0l-1.1,0.3c-0.3,0.1-0.6,0.2-0.9,0.3
		c0,0.1,0,0.1,0,0.2c0,0.2-0.2,4.7-1.2,8.4c-0.2,0.6-0.9,2.2-2.3,2.2c-0.6,0-2.5,0-4.1-0.1c-0.2,0-0.3,0.1-0.4,0.2
		c-0.1,0.1-0.2,0.2-0.1,0.4l0,0.6c5.7-0.4,6.4,0,6.7,0.1c0.3,0.2,1.7-0.2,2.8-0.7c0,0,0.1,0,0.2,0c-0.4-0.7-0.6-1.4-0.8-2.2
		c0.5,1,1.2,1.9,2,2.6c0.4,0.3,0.8,0.6,1.3,0.8c0.2,0.1,0.5,0.2,0.7,0.3c0.2,0,0.3-0.1,0.5,0c2.3,0.8,4.6,0.8,5.6,0.7
		c0-0.2,0-0.5,0.1-0.8c-0.1-0.1-0.1-0.2-0.1-0.3C76.7,117.8,75.1,117.8,73.4,117.7z"/>
	<path class="st0" d="M118.4,19.7c-0.2-0.1-0.4-0.2-0.6-0.3l-2.1,0.5l1.2-1.9c0.5-0.7,1-1.3,1.5-1.8c0.3-0.3,0.5-0.5,0.8-0.7
		c0.2-0.2,0.5-0.5,0.6-0.6l0-0.1c0.4-0.6,1-1.1,1.6-1.4c0.6-0.3,1.2-0.6,1.8-0.7c-0.2-0.3-0.5-0.6-0.8-0.9c-0.3-0.3-0.7-0.6-1-0.8
		c-0.7-0.5-1.4-1-2.2-1.4c-1.5-0.8-3.1-1.4-4.7-1.8c-3.3-0.9-6.7-1.2-10.1-0.5c-0.8,0.2-1.7,0.5-2.4,0.9c-0.8,0.4-1.5,0.9-2.2,1.5
		c-0.7,0.6-1.3,1.2-1.9,1.9c-0.3,0.3-0.6,0.7-0.9,1c-0.3,0.3-0.6,0.6-0.9,1c-1.1,1.3-2.3,2.6-3.5,3.9c-1,1.1-2,2.1-3,3.1
		c-0.4,0.4-0.7,1-0.6,1.6c0,0,0,0,0,0c0.1,0.4,0.2,0.7,0.4,0.8c0.3,0.2,1.1,0.2,1.9,0.1c1.6-0.2,3.3-0.7,5.3-0.3
		c0.5,0.1,1,0.3,1.4,0.5c0.4,0.2,0.8,0.5,1.2,0.7c0.8,0.5,1.5,1.2,2,1.9c0.6,0.7,1,1.6,1.3,2.5c0.2,0.8,0.2,1.8,0,2.6
		c0.4,0.5,0.8,1.1,1,1.8c0.3,0.7,0.4,1.5,0.4,2.2c0,0.8,0,1.5-0.1,2.2c-0.1,0.7-0.3,1.4-0.5,2c1.1,0,2.1,0.1,3.2,0.3
		c0.9,0.2,1.8,0.4,2.7,0.7c0.6-1.8,1.1-3.5,1.7-5.2c0.3-0.9,0.6-1.8,0.8-2.7c0.2-1.1,0.6-2.1,1.1-3c0.4-0.9,0.9-1.9,1.3-2.8
		c0.3-0.7,0.6-1.5,1.1-2.1c-0.7,0.3-1.5,0.6-2.3,0.7c-0.3,0-0.6,0.1-0.9,0.1c-0.1,0-0.3,0-0.4,0l-0.2,0l-0.1,0
		c-0.4,0-0.8,0.1-1.4,0.2c-0.5,0.1-1.1,0.1-1.7,0c-0.6-0.1-1.1-0.4-1.5-0.8c0,0,0-0.1,0-0.1c0,0,0,0,0.1,0c1.1,0.2,1.9,0,2.9-0.3
		c0.5-0.1,1-0.3,1.7-0.2l0.3,0l0.2,0c0.1,0,0.2,0,0.3,0.1c0.2,0,0.5,0.1,0.7,0.1c0.9,0,1.9-0.3,2.8-0.7c0.2-0.1,0.4-0.2,0.7-0.3
		c0.1-0.1,0.3-0.3,0.4-0.4c0.4-0.3,0.7-0.7,1.1-1c0.6-0.5,1.3-1.1,2-1.6c-0.1-0.1-0.2-0.2-0.3-0.2C118.9,20.1,118.7,19.9,118.4,19.7
		z M114,11.5c-0.2,0-0.4-0.1-0.6-0.1c0.4,0.3,0.6,0.8,0.6,1.3c0,1-0.8,1.7-1.7,1.7s-1.7-0.8-1.7-1.7c0-0.2,0-0.4,0.1-0.5
		c-0.3,0.1-0.5,0.3-0.8,0.4c-0.4,0.1-0.8,0.2-1.2,0.3c-0.4,0-0.9,0-1.3-0.3c0,0,0-0.1,0-0.1c0,0,0,0,0,0l0,0c0.8-0.2,1.3-0.6,2-1
		c0.7-0.4,1.4-0.6,2.2-0.9c0.5-0.1,1,0,1.4,0.1c0.4,0.1,0.8,0.2,1.2,0.3c0.8,0.3,1.5,0.6,2.2,0.9c0,0,0,0.1,0,0.1c0,0,0,0-0.1,0
		C115.5,11.8,114.8,11.6,114,11.5z"/>
	<path class="st0" d="M123.2,19.4c-0.9-0.1-1.8-0.3-2.7-0.3c-0.3,0-0.6,0-0.8,0c0.1,0,0.1,0.1,0.2,0.1c0.4,0.2,0.7,0.3,1,0.4
		c0.3,0.1,0.5,0.2,0.8,0.2c0.6,0.1,1.3,0.1,2,0.1c0.6,0,1.1,0,1.7,0.1c-0.3-0.2-0.5-0.3-0.8-0.4C124.1,19.6,123.6,19.5,123.2,19.4z"
		/>
	<path class="st0" d="M125.5,14.8c-0.3-0.4-0.7-0.8-1.1-1.1c-0.2-0.2-0.4-0.3-0.6-0.5c-0.1-0.1-0.2-0.1-0.3-0.2l-0.2-0.1l-0.1,0
		c0,0,0,0,0,0c0,0,0,0,0,0c0,0,0,0,0,0c0,0,0,0,0,0c-0.6,0.2-1.2,0.5-1.6,0.9c-0.4,0.4-0.7,0.9-0.8,1.4c-0.1,0.6-0.3,0.9-0.5,1.3
		c-0.2,0.3-0.4,0.7-0.6,0.9c0,0-0.1,0.1-0.1,0.1c0.4,0,0.7,0,1,0.1c1,0.1,2,0.3,2.9,0.7c0.5,0.2,0.9,0.4,1.4,0.6
		c0.5,0.3,0.9,0.6,1.3,1c0.6,0.6,1,1.3,1.2,2.1c0.4-0.7,0.7-1.4,0.7-2.2c0-0.9-0.3-1.7-0.8-2.5C126.7,16.4,126.2,15.6,125.5,14.8z
		 M123.2,16.2c-0.2,0-0.1-0.5-0.3-0.8c-0.2-0.3-0.6-0.2-0.6-0.2c-0.7-0.7,0.8-1,1.3-0.6C124.1,15.1,123.4,16.2,123.2,16.2z"/>
	<path class="st0" d="M100.9,39.9C100.8,39.9,100.8,39.8,100.9,39.9c-0.1-0.2-0.1-0.2,0-0.2l0,0c0.7,0,1.3-0.1,2,0
		c0.2-0.7,0.3-1.4,0.3-2.1c0-0.7,0-1.4-0.1-2.1c-0.1-0.7-0.3-1.4-0.6-2c-0.3-0.6-0.7-1.2-1.1-1.6l-0.2-0.2l0.1-0.3
		c0.4-1.5-0.3-3.1-1.3-4.2c-0.5-0.6-1.2-1.1-1.8-1.4c-0.3-0.2-0.7-0.4-1.1-0.5c-0.3-0.1-0.6-0.2-1-0.2c-0.7-0.1-1.5,0-2.3,0
		c-0.8,0-1.7,0.1-2.6,0.1c-0.5,0-0.9,0-1.4-0.2c-0.5-0.1-1.1-0.4-1.5-0.9c-0.4-0.6-0.3-1.2-0.3-1.6c0.1-0.3,0.2-0.6,0.3-0.9
		c-1.6,1.1-3.1,2.3-4.7,3.4c-1.6,1.2-3.3,2.5-4.9,3.7L74,32.3c-1.6,1.3-3.2,2.5-4.7,3.9l0,0l0,0c-1.7,1.1-3.3,2.3-4.8,3.6
		c-1.5,1.3-2.9,2.8-4.1,4.4c-1.3,1.6-2.5,3.1-3.6,4.8c-1.1,1.6-2.2,3.3-3.1,5.1l-0.1,0.1l-0.1,0.1c-0.6,0.6-1.3,1.3-1.9,1.9
		c-0.6,0.6-1.3,1.3-2,1.9c-1.3,1.3-2.6,2.5-3.9,3.8c-1.3,1.3-2.5,2.6-3.7,3.9c-0.9,1-1.8,2-2.7,3c1.2-0.6,2.4-1.2,3.6-1.8
		c1.6-0.7,3.2-1.5,4.8-2.2c0,0,0.1,0,0.1,0.1c0,0,0,0.1,0,0.1c-1.5,1-3,1.9-4.5,2.8l-4.5,2.8l-4.5,2.8c-1.5,0.9-3,1.9-4.4,2.9
		l-0.1,0l-0.1,0c-6.6,3.1-13.4,5.5-20,8.5c-1.6,0.8-3.3,1.5-4.9,2.3c-0.8,0.4-1.6,0.8-2.4,1.2L1,89.1l-0.6,0.3l-0.3,0.2
		c0,0,0,0-0.1,0.1c0,0,0,0.1,0,0.2c0,0,0,0,0.2,0.1c0.4,0.2,0.8,0.3,1.2,0.5C2.2,90.7,3.1,90.9,4,91c1.7,0.3,3.5,0.3,5.2,0.1
		c0.9-0.1,1.7-0.3,2.6-0.5c0.9-0.2,1.8-0.3,2.7-0.4l5.4-0.8c1.8-0.3,3.6-0.5,5.3-0.8c1.8-0.3,3.6-0.6,5.3-0.9
		c6.8-1.2,13.5-2.8,20.1-5.2l0.2-0.4c1.1-2.2,2.2-4.5,3.3-6.7c1.1-2.3,2.2-4.6,3.5-6.7c1.3-2.2,2.8-4.2,4.4-6.2
		c0.8-1,1.6-1.9,2.5-2.8c0.8-0.9,1.7-1.8,2.6-2.7l0,0c0,0,0.1,0,0.1,0c0,0,0,0.1,0,0.1c-1.6,1.9-3.2,3.8-4.7,5.8
		c-1.5,2-2.8,4.1-4,6.3c-1.2,2.2-2.2,4.5-3.3,6.8c-1,2.2-2,4.5-3,6.7c1.4,0.6,2.9,0.9,4.4,0.9c1.5,0,3.1-0.2,4.6-0.6
		c1.5-0.4,2.9-1.1,4.3-1.8c1.4-0.7,2.7-1.6,3.9-2.6l0.1-0.1l0.1,0c1,0.4,2.2,0.7,3.3,0.7c0.6,0,1.1,0,1.7-0.2
		c0.6-0.1,1.1-0.3,1.6-0.5l0,0l0,0c2.1,0,4.1-0.3,6.1-0.9c2-0.6,3.9-1.5,5.7-2.5c3.6-2.1,6.8-4.8,9.9-7.7l0,0l0,0
		c1.5-1,2.9-2.1,4.3-3.3c1.4-1.2,2.7-2.4,4.1-3.6c1.3-1.2,2.6-2.5,3.8-3.9c0.6-0.7,1.2-1.3,1.8-2c0.6-0.7,1.1-1.4,1.5-2.2
		c0.5-1.7,0.7-3.5,0.4-5.3c-0.3-1.8-1.4-3.3-2.8-4.4c-1.4-1.1-3.1-1.7-4.8-2.1C104.4,40.1,102.6,39.9,100.9,39.9z"/>
	<path class="st0" d="M80.3,104.2c-0.2,0.1-0.4,0.1-0.6,0.2c-0.3,0.1-0.7,0.2-1,0.2c0.1,1.3,0.1,4.5-0.1,7.4
		c0.3-0.1,0.7-0.1,1.2-0.1c2.4,0.2,2.7,1.5,3.3,2.8c-0.9-0.9-1.8-1.2-2.6-1.3c0.6,0.8,1.3,1.5,2.1,1.9c0.4,0.3,0.9,0.5,1.4,0.6
		c0.5,0.2,1,0.3,1.4,0.3c0.1,0,0.2,0,0.3,0.1c2.3,0.3,4.4,0,5.4-0.2c0-0.3-0.1-0.6-0.1-1.1c-0.9,0.1-2.6,0.3-4.4,0.5l-0.2,0l-0.2,0
		C82.1,114.4,80.7,106.9,80.3,104.2C80.4,104.2,80.3,104.2,80.3,104.2z"/>
	<path class="st0" d="M85.4,79.9c0,0.4-0.1,0.8-0.1,1.2L85,82.1l-0.1,0.6l-0.2,0.5l-0.4,1.1c-0.3,0.7-0.6,1.4-0.9,2.1
		c-1.3,2.8-3,5.3-4.8,7.7c-0.9,1.2-1.9,2.3-2.9,3.4c-0.2,0.3-0.2,0.2-0.4,0.4c0.7,0.5,0.9,1.6,1.3,2.3c0.4,0.7,0.7,1.5,1,2.3
		l0.1,0.5l0.5-0.1c0.4-0.1,0.8-0.2,1.2-0.3l0.6-0.1c0.1,0,0.3-0.1,0.4-0.1c0.3-0.1,0.5-0.3,0.7-0.5c0.1-0.1,0.2-0.2,0.3-0.4
		c0-0.1,0.1-0.1,0.1-0.2l0-0.1l0-0.2c0.3-0.8,0.6-1.6,1-2.4c0.4-0.8,0.7-1.5,1.1-2.2c0.3-0.7,0.6-1.5,0.9-2.3l1.6-4.6
		c0.5-1.5,0.9-3,1.4-4.6c0.4-1.5,0.8-3,1.1-4.6c0.2-1.2,0.3-2.5,0.3-3.7c-1,0.6-2.1,1.1-3.2,1.6C85.5,78.9,85.5,79.4,85.4,79.9z"/>
	<path class="st0" d="M92.8,116.3c0.3-0.2,2.8-1.7,5.4,0.7c-0.7-1.5-1.1-2.9-3.7-3c-0.8,0-1.4,0.1-1.9,0.3l0,0
		C92.7,115,92.8,115.8,92.8,116.3z"/>
	<path class="st0" d="M91.6,111c0.9-0.4,2.4-0.8,4.2,0.4c-0.8-1.2-1.3-2.5-3.7-2.3c-0.9,0.1-1.6,0.4-2,0.6
		C90.9,110.2,91.4,110.6,91.6,111z"/>
	<path class="st0" d="M79.4,119.2c0.3-0.1,3-1.2,5.3,1.5c-0.4-1.4-0.6-2.8-2.6-3.4c-0.7,0.4-1.7,1-2.7,1.2
		C79.4,118.8,79.4,119,79.4,119.2z"/>
	<path class="st0" d="M79.8,112c-0.5,0-0.9,0-1.2,0.1c0,0.3-0.1,0.7-0.1,1c0.2,0.2,0.4,0.5,0.5,0.7c0.4-0.1,0.9-0.2,1.4-0.2
		c0-0.1-0.1-0.2-0.1-0.3c0.1,0.1,0.1,0.2,0.2,0.3c0.8,0.1,1.7,0.4,2.6,1.3C82.5,113.5,82.2,112.2,79.8,112z"/>
	<path class="st0" d="M57.1,116.8c0-0.3,0-0.7,0.2-1c-0.5,0-1.1,0.1-1.9,0.5c-2.2,1-2,2.4-2.1,3.8c1.1-2.4,3.1-2.6,3.9-2.5
		c0,0,0-0.1,0-0.1L57.1,116.8z"/>
</g>
</svg>
