<?xml version="1.0" encoding="utf-8"?>
<!-- Generator: Adobe Illustrator 24.1.2, SVG Export Plug-In . SVG Version: 6.00 Build 0)  -->
<svg version="1.1" id="Layer_1" xmlns="http://www.w3.org/2000/svg" xmlns:xlink="http://www.w3.org/1999/xlink" x="0px" y="0px"
	 viewBox="0 0 128 128" style="enable-background:new 0 0 128 128;" xml:space="preserve">
<style type="text/css">
	.st0{fill:#2D2D2D;}
</style>
<g>
	<path class="st0" d="M118.68,101.1l-0.01-0.23l0-0.19l0-0.38l0.02-1.53c0.01-0.38,0.02-0.75,0.02-1.13
		c-1.05,0.23-2.09,0.33-3.14,0.38c-1.08,0.07-2.16-0.05-3.23-0.09l-3.24-0.13c-0.98-0.06-1.97-0.1-2.95-0.16
		c0.01,0.38,0.02,0.75,0.02,1.13l0.02,1.53l0,0.38l0,0.19l-0.01,0.23c-0.03,0.3-0.12,0.6-0.26,0.87c-0.13,0.23-0.3,0.44-0.5,0.61
		c0.14,4.42,0.23,8.84,0.3,13.27l0.08,6.89l0.02,1.72l0,0.86c0,0.31,0,0.53,0.05,0.77c0.19,0.94,1.04,1.7,2,1.79
		c0.48,0.04,0.97-0.05,1.38-0.29c0.42-0.23,0.75-0.61,0.95-1.04c0.1-0.22,0.15-0.45,0.18-0.68l0.01-0.18l0.01-0.22l0.01-0.43
		l0.06-1.72l0.23-6.89l0.25-6.89l0.14-3.44l0.08-1.72l0.01-0.22c0-0.08,0.02-0.18,0.04-0.27c0.05-0.18,0.13-0.35,0.25-0.49
		c0.23-0.28,0.6-0.45,0.97-0.44c0.36,0,0.72,0.18,0.94,0.46c0.11,0.14,0.19,0.3,0.23,0.48c0.02,0.08,0.03,0.18,0.03,0.26l0,0.22
		l0.02,1.72c0.01,1.15,0.03,2.3,0.06,3.45c0.05,2.3,0.09,4.59,0.17,6.89c0.08,2.3,0.18,4.59,0.29,6.89l0.08,1.72l0.02,0.43
		c0,0.15,0.01,0.29,0.03,0.41c0.03,0.25,0.1,0.5,0.21,0.73c0.22,0.46,0.58,0.85,1.03,1.09c0.22,0.12,0.46,0.21,0.71,0.25
		c0.25,0.04,0.5,0.05,0.75,0.02c0.5-0.06,0.97-0.27,1.33-0.62c0.37-0.33,0.62-0.78,0.72-1.26c0.05-0.24,0.05-0.48,0.04-0.78l0-0.86
		l0.01-1.72c0.01-2.3,0.02-4.6,0.05-6.89c0.06-4.41,0.14-8.83,0.29-13.24c-0.2-0.18-0.38-0.39-0.51-0.63
		C118.8,101.7,118.71,101.4,118.68,101.1z"/>
	<path class="st0" d="M122.5,84.63c-0.09-0.91-0.57-1.76-1.28-2.36c-0.71-0.6-1.64-0.94-2.6-0.95c-2.06-0.02-4.12-0.07-6.18-0.11
		c-2.06-0.03-4.12-0.08-6.18-0.09c-1-0.02-2,0.32-2.76,0.95c-0.77,0.62-1.29,1.55-1.39,2.53c-0.04,0.48-0.01,1.01-0.01,1.51
		l0.02,1.53l0.07,3.06l0.12,6.11c0.01,1.02,0.03,2.04,0.03,3.06l0,0.76c0,0.28,0,0.45,0.06,0.65c0.11,0.39,0.37,0.73,0.73,0.93
		c0.35,0.2,0.79,0.25,1.19,0.14c0.4-0.11,0.74-0.38,0.94-0.74c0.1-0.18,0.16-0.38,0.19-0.58l0.01-0.15l0-0.19l0-0.38l0.02-1.53
		c0.05-4.07,0.14-8.15,0.3-12.22c0-0.02,0.02-0.04,0.05-0.04c0.02,0,0.04,0.02,0.04,0.04c0.15,3.66,0.23,7.31,0.29,10.97
		c0.99-0.06,1.97-0.11,2.96-0.16l3.24-0.13c1.08-0.04,2.16-0.16,3.23-0.09c1.05,0.06,2.1,0.15,3.14,0.39
		c0.07-3.66,0.15-7.31,0.28-10.97c0-0.02,0.02-0.04,0.05-0.04c0.02,0,0.04,0.02,0.04,0.04c0.15,4.07,0.24,8.15,0.31,12.22l0.02,1.53
		l0,0.38l0,0.19l0.01,0.15c0.02,0.2,0.09,0.4,0.19,0.58c0.2,0.35,0.55,0.62,0.94,0.72c0.39,0.11,0.82,0.05,1.17-0.15
		c0.35-0.2,0.6-0.54,0.7-0.91c0.05-0.2,0.05-0.36,0.05-0.64l0-0.76l-0.02-3.06c0-2.04-0.01-4.07,0.01-6.11l0.02-3.06l0.01-1.53
		l0.01-0.76c0-0.12,0.01-0.26,0-0.37C122.51,84.85,122.51,84.74,122.5,84.63z"/>
	<path class="st0" d="M126.95,0h-2.36c-0.58,0-1.05,0.48-1.05,1.06v7.22c-0.12,0.11-0.24,0.22-0.36,0.33
		c-0.71-0.44-1.47-0.77-2.25-1.07c-0.97-0.35-1.97-0.62-2.98-0.84c-2.03-0.42-4.1-0.59-6.17-0.58l-1.55,0.05
		c-0.52,0.03-1.03,0.07-1.54,0.12l-3.04,0.27c-2.02,0.16-4.05,0.25-6.08,0.26c-4.06,0-8.13-0.26-12.16-0.78
		c-4.04-0.51-8.06-1.2-12-2.22c-0.03-0.01-0.06,0.01-0.07,0.04c-0.01,0.03,0.01,0.06,0.04,0.07c3.91,1.16,7.92,1.99,11.96,2.64
		c0.98,0.15,1.97,0.29,2.95,0.41c-1.22,0.92-2.37,1.9-3.49,2.91c-0.24,0.21-0.46,0.43-0.69,0.64c-1.22-1.13-2.43-2.26-3.66-3.37
		c1.13,1.21,2.26,2.41,3.4,3.61c-0.82,0.76-1.62,1.53-2.42,2.31c-0.51,0.51-1.01,1.02-1.5,1.54c-0.87-0.81-1.73-1.63-2.6-2.44
		c0.81,0.87,1.63,1.74,2.44,2.6c-0.52,0.54-1.03,1.09-1.54,1.65c-1.04,1.15-2.05,2.32-2.99,3.57c1.25-0.93,2.43-1.94,3.58-2.98
		c0.55-0.49,1.09-0.99,1.63-1.5c2.56,2.73,5.14,5.44,7.75,8.12c-0.9,0.97-1.78,1.96-2.63,2.97c1.03-0.83,2.04-1.69,3.03-2.57
		c1.26,1.3,2.54,2.6,3.81,3.89c-0.98,1.05-1.94,2.1-2.89,3.18c1.1-0.92,2.19-1.86,3.26-2.81c1.23,1.25,2.46,2.5,3.7,3.74
		c-2.78,2.72-5.54,5.45-8.29,8.2c-0.27-0.24-0.53-0.49-0.8-0.73c0.24,0.27,0.49,0.53,0.73,0.79c-0.03,0.03-0.07,0.06-0.1,0.1
		c-3.77,3.77-7.49,7.58-11.16,11.45c3.97-3.57,7.89-7.19,11.75-10.85c0.03-0.02,0.05-0.05,0.08-0.07c1.25,1.37,2.51,2.72,3.79,4.07
		c-1.32,1.34-2.62,2.69-3.92,4.04c-0.74-0.67-1.48-1.34-2.23-2.01c0.66,0.75,1.34,1.49,2.02,2.23c-1.82,1.89-3.62,3.79-5.41,5.72
		c1.94-1.75,3.87-3.52,5.78-5.3c1.29,1.42,2.6,2.82,3.93,4.21c-1.31,1.38-2.61,2.76-3.9,4.15c-0.42-0.36-0.84-0.72-1.27-1.07
		c0.35,0.43,0.73,0.84,1.09,1.26c-0.64,0.69-1.29,1.38-1.92,2.08c0.7-0.63,1.38-1.27,2.08-1.91c1.05,1.21,2.13,2.4,3.23,3.57
		c0.19,0.2,0.39,0.4,0.58,0.6c-1.77,1.87-3.52,3.74-5.25,5.65c1.91-1.72,3.79-3.46,5.66-5.22c1.21,1.26,2.43,2.5,3.66,3.73
		c-0.06,0.06-0.12,0.12-0.17,0.17c-1.19,1.22-2.37,2.45-3.54,3.68c-0.09-0.07-0.18-0.15-0.27-0.22c-0.67-0.52-1.37-1-2.14-1.41
		c0.46,0.73,1,1.39,1.57,2.02c0.08,0.08,0.16,0.17,0.23,0.25c-1.19,1.26-2.37,2.54-3.55,3.82c-2.39,0.01-4.78,0.04-7.17,0.06
		l0.41,1.52c5.42,0.06,10.84,0.1,16.25,0.04c2.66-0.03,5.32-0.07,7.99-0.12c0.17,0.24,0.35,0.47,0.56,0.68
		c0.47,0.49,1.02,0.9,1.65,1.21c0.62,0.31,1.32,0.49,2.03,0.52c0.71,0.03,1.43-0.1,2.08-0.39c0.66-0.28,1.23-0.72,1.69-1.25
		c0.26-0.31,0.47-0.65,0.65-1l3.58-0.1c1.08-0.05,2.16-0.09,3.24-0.13c0.18,0.32,0.51,0.55,0.89,0.55h2.36
		c0.58,0,1.05-0.48,1.05-1.06V1.06C128,0.48,127.53,0,126.95,0z M123.54,8.43v0.42c-0.08-0.05-0.17-0.11-0.25-0.16
		C123.38,8.6,123.46,8.51,123.54,8.43z M123.54,8.99v4.04c-0.18-0.22-0.35-0.44-0.53-0.65c-0.52-0.6-1.06-1.18-1.61-1.74
		c0.59-0.61,1.18-1.22,1.76-1.83C123.29,8.88,123.42,8.93,123.54,8.99z M122.3,69c-0.53,0.45-1.05,0.92-1.55,1.4
		c-1.15-1.23-2.31-2.45-3.48-3.67c1.15-1.16,2.29-2.32,3.4-3.52c0.12-0.13,0.24-0.27,0.36-0.4c0.83,0.74,1.67,1.47,2.51,2.2v2.98
		C123.12,68.32,122.7,68.65,122.3,69z M123.54,68.79v4.63c-0.7-0.76-1.4-1.52-2.1-2.27c0.49-0.51,0.98-1.03,1.45-1.57
		C123.12,69.32,123.33,69.06,123.54,68.79z M112.31,36.03c-1.22-1.24-2.44-2.48-3.67-3.71c1.2-1.2,2.4-2.4,3.6-3.61
		c1.18,1.14,2.36,2.28,3.55,3.41c0.09,0.09,0.19,0.18,0.28,0.27c-0.21,0.2-0.42,0.4-0.63,0.6C114.4,34,113.35,35.02,112.31,36.03z
		 M112.37,37.34c0.44,0.42,0.87,0.84,1.31,1.26c0.81,0.78,1.63,1.54,2.44,2.31c-0.17,0.17-0.35,0.33-0.52,0.49
		c-1.09,1.04-2.16,2.09-3.24,3.13c-1.18-1.21-2.36-2.41-3.54-3.61C110,39.74,111.19,38.54,112.37,37.34z M108.55,23.63
		c1.19-1.18,2.38-2.37,3.57-3.55c1.28,1.26,2.58,2.52,3.88,3.76c-0.5,0.48-1.01,0.95-1.52,1.43c-0.73,0.7-1.46,1.4-2.19,2.1
		C111.05,26.12,109.8,24.88,108.55,23.63z M111.56,28.07c-1.22,1.17-2.44,2.35-3.65,3.53c-1.23-1.23-2.47-2.47-3.71-3.7
		c1.2-1.17,2.4-2.34,3.59-3.52C109.05,25.61,110.3,26.85,111.56,28.07z M107.92,33.04c1.24,1.21,2.49,2.41,3.74,3.62
		c-1.2,1.17-2.39,2.34-3.58,3.52c-1.21-1.23-2.43-2.45-3.65-3.68c0.26-0.26,0.52-0.51,0.78-0.76
		C106.12,34.84,107.02,33.94,107.92,33.04z M108.12,41.63c1.2,1.18,2.4,2.35,3.61,3.52c-1.28,1.25-2.55,2.5-3.82,3.75
		c-1.13-1.09-2.27-2.17-3.43-3.23c-0.08-0.07-0.15-0.14-0.23-0.21c0.95-0.93,1.89-1.86,2.84-2.8
		C107.44,42.32,107.78,41.97,108.12,41.63z M107.19,49.61c-0.19,0.18-0.37,0.37-0.56,0.55c-0.96,0.97-1.93,1.94-2.89,2.9
		c-1.21-1.19-2.43-2.37-3.65-3.54c1.2-1.16,2.39-2.32,3.58-3.49c0.07,0.07,0.14,0.15,0.22,0.23
		C104.99,47.39,106.09,48.5,107.19,49.61z M107.4,50.91c0.18-0.18,0.36-0.37,0.55-0.55c0.87,0.87,1.74,1.73,2.62,2.6
		c0.31,0.3,0.62,0.6,0.93,0.9c-1.17,1.13-2.33,2.27-3.49,3.41c-0.28-0.28-0.56-0.57-0.84-0.85c-0.89-0.88-1.78-1.76-2.67-2.63
		C105.46,52.83,106.43,51.87,107.4,50.91z M111.32,52.2c-0.88-0.86-1.77-1.71-2.65-2.56c1.26-1.26,2.51-2.53,3.76-3.8
		c0.15,0.15,0.31,0.3,0.46,0.45c1.07,1.04,2.16,2.08,3.24,3.11c-0.13,0.12-0.27,0.25-0.4,0.37c-1.17,1.11-2.33,2.23-3.49,3.35
		C111.94,52.82,111.63,52.51,111.32,52.2z M116.33,50.36c0.13-0.13,0.26-0.27,0.39-0.4c1.3,1.25,2.61,2.49,3.93,3.72
		c-0.96,0.87-1.92,1.75-2.87,2.65c-0.4,0.38-0.8,0.76-1.19,1.14c-1.21-1.23-2.42-2.45-3.64-3.66
		C114.08,52.66,115.21,51.52,116.33,50.36z M116.62,48.95c-1.04-1.08-2.08-2.17-3.12-3.25c-0.15-0.16-0.31-0.32-0.47-0.47
		c1.06-1.08,2.11-2.15,3.16-3.23c0.17-0.17,0.34-0.35,0.51-0.53c1.31,1.24,2.63,2.48,3.96,3.71
		C119.3,46.42,117.95,47.68,116.62,48.95z M116.62,40.44c-0.78-0.81-1.56-1.62-2.35-2.42c-0.43-0.44-0.86-0.87-1.29-1.3
		c1.02-1.04,2.05-2.08,3.06-3.14c0.2-0.21,0.41-0.43,0.61-0.64c1.32,1.25,2.64,2.49,3.98,3.72
		C119.28,37.91,117.95,39.17,116.62,40.44z M116.39,31.54c-1.14-1.18-2.3-2.35-3.46-3.52c0.71-0.72,1.43-1.44,2.15-2.17
		c0.49-0.5,0.97-1,1.46-1.5c0.54,0.52,1.08,1.04,1.63,1.55c0.8,0.75,1.61,1.49,2.42,2.23c-1.32,1.22-2.62,2.46-3.92,3.7
		C116.57,31.74,116.48,31.64,116.39,31.54z M112.88,19.33c0.22-0.22,0.44-0.43,0.65-0.65c0.97-0.97,1.92-1.94,2.88-2.92
		c1.2,1.17,2.4,2.33,3.64,3.45c0.15,0.14,0.31,0.27,0.46,0.41c-1.28,1.18-2.55,2.37-3.82,3.57
		C115.43,21.89,114.16,20.6,112.88,19.33z M112.94,18.09c-0.23,0.21-0.45,0.43-0.67,0.64c-1.23-1.2-2.46-2.4-3.7-3.58
		c0.61-0.61,1.22-1.22,1.82-1.84c0.6-0.62,1.19-1.24,1.78-1.86c1.19,1.26,2.4,2.5,3.63,3.73c0.04,0.04,0.09,0.08,0.13,0.13
		C114.93,16.22,113.93,17.15,112.94,18.09z M111.5,19.46c-1.22,1.16-2.44,2.31-3.65,3.47c-1.19-1.17-2.39-2.34-3.59-3.51
		c0.01,0,0.01-0.01,0.02-0.01c1.21-1.19,2.42-2.39,3.62-3.59C109.09,17.04,110.29,18.26,111.5,19.46z M103.52,18.65
		c-0.01,0.01-0.02,0.02-0.03,0.03c-1.19-1.15-2.39-2.3-3.59-3.45c0.98-0.99,1.96-1.98,2.92-2.99c0.28-0.29,0.55-0.59,0.82-0.88
		c0.73,0.78,1.46,1.56,2.2,2.33c0.45,0.48,0.92,0.95,1.38,1.42C105.98,16.29,104.75,17.47,103.52,18.65z M102.78,19.38
		c-1.21,1.19-2.41,2.39-3.6,3.59c-1.2-1.17-2.41-2.34-3.62-3.5c0.79-0.75,1.57-1.51,2.35-2.26c0.46-0.46,0.92-0.92,1.38-1.37
		C100.46,17.02,101.62,18.21,102.78,19.38z M103.53,20.13c1.18,1.18,2.36,2.36,3.54,3.54c-1.21,1.16-2.41,2.33-3.62,3.49
		c-1.2-1.18-2.4-2.36-3.61-3.54C101.09,22.47,102.31,21.31,103.53,20.13z M107.18,32.32c-0.91,0.89-1.82,1.77-2.73,2.66
		c-0.26,0.25-0.51,0.51-0.77,0.77c-0.47-0.47-0.93-0.94-1.4-1.4c-0.77-0.77-1.55-1.54-2.33-2.31c0.73-0.71,1.47-1.41,2.2-2.12
		c0.43-0.42,0.86-0.84,1.29-1.26C104.69,29.88,105.93,31.1,107.18,32.32z M107.37,40.89c-0.34,0.34-0.69,0.68-1.04,1.02
		c-0.95,0.95-1.89,1.9-2.84,2.85c-1.29-1.19-2.6-2.37-3.92-3.54c1.37-1.33,2.74-2.66,4.1-3.99
		C104.91,38.45,106.13,39.67,107.37,40.89z M102.97,45.29c-1.18,1.19-2.36,2.39-3.53,3.59c-0.35-0.34-0.71-0.69-1.06-1.03
		c-0.95-0.91-1.92-1.81-2.88-2.72c1.29-1.23,2.57-2.46,3.85-3.69C100.54,42.74,101.75,44.02,102.97,45.29z M99.45,50.15
		c1.19,1.22,2.38,2.43,3.57,3.64c-1.19,1.2-2.37,2.41-3.55,3.62c-1.2-1.17-2.41-2.34-3.63-3.49c-0.06-0.05-0.11-0.1-0.17-0.16
		c0.77-0.73,1.54-1.45,2.3-2.18C98.47,51.1,98.96,50.62,99.45,50.15z M103.75,54.51c0.88,0.89,1.76,1.78,2.65,2.66
		c0.28,0.28,0.57,0.56,0.85,0.84c-0.08,0.08-0.16,0.16-0.24,0.24c-1.11,1.1-2.21,2.21-3.32,3.31c-0.17-0.18-0.35-0.35-0.52-0.53
		c-1.01-1-2.02-2-3.04-2.99C101.33,56.87,102.54,55.7,103.75,54.51z M103.65,63.02c1.21,1.19,2.43,2.38,3.65,3.56
		c-0.83,0.85-1.66,1.69-2.48,2.55c-0.39,0.4-0.77,0.82-1.16,1.22c-1.21-1.28-2.45-2.54-3.7-3.79
		C101.2,65.39,102.43,64.21,103.65,63.02z M104.41,62.29c1.12-1.09,2.24-2.19,3.36-3.29c0.08-0.08,0.16-0.16,0.24-0.24
		c1.19,1.18,2.39,2.35,3.59,3.52c-0.13,0.12-0.25,0.25-0.38,0.37c-1.09,1.08-2.17,2.17-3.25,3.26
		C106.78,64.7,105.6,63.49,104.41,62.29z M108.75,58.02c1.16-1.15,2.32-2.31,3.47-3.47c1.23,1.19,2.46,2.37,3.71,3.54
		c-1.22,1.16-2.43,2.33-3.63,3.5C111.12,60.4,109.93,59.21,108.75,58.02z M116.6,58.73c0.27,0.25,0.53,0.51,0.8,0.75
		c1.01,0.94,2.03,1.87,3.05,2.8c-0.12,0.11-0.25,0.22-0.38,0.34c-1.2,1.09-2.37,2.21-3.53,3.34c-0.26-0.27-0.52-0.54-0.78-0.81
		c-0.91-0.94-1.82-1.87-2.74-2.8C114.23,61.15,115.42,59.95,116.6,58.73z M121.37,62.44c0.74-0.8,1.46-1.61,2.17-2.44v4.82
		C122.82,64.02,122.1,63.23,121.37,62.44z M120.87,61.91c-0.95-1.01-1.91-2.02-2.88-3.02c-0.26-0.27-0.52-0.53-0.78-0.79
		c0.39-0.4,0.78-0.79,1.16-1.19c0.91-0.94,1.8-1.89,2.69-2.85c0.83,0.78,1.66,1.55,2.49,2.33v3.2
		C122.64,60.35,121.75,61.13,120.87,61.91z M121.27,53.84c0.77-0.83,1.52-1.67,2.28-2.52v4.94
		C122.79,55.46,122.03,54.65,121.27,53.84z M120.9,53.45c-1.24-1.32-2.49-2.63-3.75-3.94c1.29-1.33,2.57-2.67,3.84-4.02
		c0.85,0.78,1.7,1.57,2.55,2.35v3.27C122.66,51.88,121.77,52.66,120.9,53.45z M121.22,45.24c0.78-0.83,1.55-1.67,2.32-2.5v4.96
		C122.77,46.89,122,46.06,121.22,45.24z M120.93,44.93c-1.25-1.32-2.51-2.63-3.78-3.94c1.29-1.33,2.56-2.67,3.83-4.02
		c0.85,0.78,1.71,1.55,2.57,2.33v3.26C122.67,43.34,121.79,44.13,120.93,44.93z M121.26,36.66c0.76-0.82,1.52-1.64,2.28-2.47v4.93
		C122.79,38.29,122.03,37.47,121.26,36.66z M120.97,36.34c-1.25-1.33-2.51-2.65-3.78-3.96c1.25-1.3,2.5-2.61,3.74-3.93
		c0.86,0.78,1.74,1.54,2.62,2.31v3.23C122.69,34.77,121.83,35.55,120.97,36.34z M121.32,28.03c0.75-0.8,1.49-1.61,2.23-2.41v4.89
		C122.81,29.68,122.07,28.84,121.32,28.03z M121.03,27.73c-0.75-0.81-1.51-1.62-2.27-2.41c-0.52-0.55-1.05-1.08-1.58-1.63
		c1.22-1.26,2.44-2.52,3.65-3.79c0.89,0.8,1.79,1.57,2.71,2.33v3.19C122.71,26.19,121.87,26.95,121.03,27.73z M121.33,19.37
		c0.74-0.78,1.47-1.56,2.21-2.35v4.85C122.82,21.02,122.09,20.19,121.33,19.37z M121.08,19.1c-0.15-0.16-0.29-0.32-0.43-0.47
		c-1.14-1.23-2.32-2.43-3.5-3.61c1.18-1.2,2.35-2.4,3.52-3.61c0.56,0.54,1.14,1.07,1.74,1.57c0.37,0.31,0.74,0.61,1.12,0.9v2.97
		C122.72,17.6,121.9,18.34,121.08,19.1z M120.78,8.02c0.76,0.19,1.52,0.43,2.24,0.74c-0.61,0.56-1.22,1.11-1.83,1.67
		c-0.06-0.06-0.11-0.11-0.16-0.17c-0.69-0.68-1.41-1.34-2.16-1.97c-0.34-0.29-0.69-0.57-1.05-0.84
		C118.81,7.59,119.81,7.76,120.78,8.02z M117.09,7.38c0.38,0.52,0.77,1.02,1.18,1.5c0.64,0.74,1.3,1.45,1.99,2.13
		c0.05,0.05,0.09,0.09,0.14,0.13c-1.24,1.13-2.47,2.27-3.69,3.42c-0.05-0.05-0.1-0.1-0.15-0.15c-1.25-1.22-2.5-2.43-3.79-3.61
		c1.1-1.16,2.18-2.33,3.24-3.53C116.37,7.3,116.73,7.34,117.09,7.38z M110.29,7.26l1.51-0.07c1.38-0.04,2.77-0.01,4.14,0.08
		c-1.22,1.02-2.42,2.07-3.6,3.13c-0.01-0.01-0.03-0.03-0.04-0.04c-1.13-1.03-2.28-2.03-3.46-3L110.29,7.26z M108.55,7.39
		c1.02,1.22,2.07,2.41,3.16,3.57c0,0,0.01,0.01,0.01,0.01c-0.64,0.58-1.29,1.16-1.92,1.74c-0.64,0.59-1.28,1.19-1.91,1.79
		c-0.48-0.46-0.96-0.92-1.45-1.38c-0.79-0.74-1.58-1.46-2.38-2.19c1.06-1.13,2.09-2.27,3.1-3.45L108.55,7.39z M105.72,7.58
		l1.31-0.09c-1.18,0.97-2.33,1.97-3.46,2.98c-1.05-0.95-2.11-1.89-3.19-2.81C102.15,7.69,103.94,7.66,105.72,7.58z M99.56,7.64
		c0.24,0.01,0.48,0.01,0.73,0.01c0.94,1.08,1.89,2.14,2.86,3.18c-0.3,0.27-0.61,0.54-0.92,0.82c-1.04,0.94-2.06,1.9-3.07,2.87
		c-2.67-2.54-5.38-5.04-8.13-7.49C93.86,7.36,96.71,7.57,99.56,7.64z M87.39,10.45c1.02-1.12,2.01-2.27,2.93-3.49
		c0.22,0.03,0.44,0.05,0.66,0.07c2.49,2.73,5.02,5.41,7.6,8.06c-0.47,0.45-0.95,0.9-1.42,1.36c-0.78,0.77-1.56,1.54-2.33,2.32
		c-0.53-0.51-1.05-1.02-1.59-1.53c-2.14-2.06-4.31-4.09-6.48-6.11C86.97,10.9,87.19,10.68,87.39,10.45z M82.67,15.29
		c0.51-0.49,1.02-0.98,1.53-1.48c0.78-0.78,1.54-1.58,2.29-2.38c2.04,2.15,4.09,4.28,6.17,6.4c0.52,0.53,1.04,1.05,1.56,1.58
		c-0.66,0.67-1.31,1.33-1.96,2.01c-0.5,0.53-1,1.06-1.49,1.6C88.09,20.41,85.39,17.84,82.67,15.29z M91.23,23.46
		c0.54-0.48,1.09-0.96,1.62-1.45c0.69-0.63,1.37-1.27,2.05-1.91c1.19,1.2,2.37,2.41,3.57,3.6c-0.35,0.36-0.71,0.71-1.05,1.07
		c-0.79,0.81-1.57,1.63-2.34,2.45C93.79,25.96,92.51,24.7,91.23,23.46z M95.5,27.63c0.84-0.75,1.68-1.51,2.51-2.27
		c0.37-0.34,0.73-0.69,1.1-1.03c1.19,1.19,2.39,2.39,3.59,3.58c-0.43,0.42-0.86,0.83-1.29,1.25c-0.73,0.71-1.46,1.43-2.19,2.14
		C97.98,30.07,96.74,28.85,95.5,27.63z M90.81,40.8c2.82-2.66,5.61-5.34,8.4-8.03c0.77,0.78,1.54,1.55,2.31,2.33
		c0.47,0.47,0.94,0.93,1.41,1.4c-1.37,1.36-2.74,2.72-4.1,4.08c-0.47-0.41-0.93-0.82-1.39-1.22c0.41,0.46,0.84,0.91,1.25,1.37
		c-1.27,1.27-2.54,2.55-3.8,3.84C93.54,43.29,92.18,42.04,90.81,40.8z M90.98,49.4c1.36-1.27,2.72-2.54,4.06-3.82
		c0.91,0.96,1.82,1.92,2.74,2.87c0.35,0.36,0.7,0.71,1.04,1.07c-0.48,0.49-0.97,0.98-1.45,1.48c-0.74,0.76-1.46,1.53-2.2,2.3
		C93.8,51.98,92.4,50.68,90.98,49.4z M94.55,61.36c-1.18-1.08-2.38-2.14-3.6-3.18c1.39-1.28,2.77-2.56,4.14-3.85
		c0.06,0.06,0.11,0.12,0.17,0.18c1.16,1.22,2.34,2.43,3.52,3.63c-0.31,0.32-0.62,0.63-0.92,0.94c-0.91,0.94-1.81,1.89-2.71,2.84
		C94.94,61.73,94.75,61.54,94.55,61.36z M95.6,62.35c0.95-0.9,1.9-1.79,2.84-2.69c0.32-0.3,0.63-0.61,0.94-0.91
		c1,1.01,2,2.02,3.01,3.03c0.18,0.18,0.36,0.35,0.54,0.53c-1.2,1.21-2.39,2.42-3.58,3.64C98.12,64.74,96.87,63.54,95.6,62.35z
		 M90.86,75.03c1.27-1.14,2.53-2.28,3.78-3.43c0.38,0.4,0.77,0.79,1.18,1.17c0.62,0.57,1.26,1.12,1.94,1.63
		c0.29,0.22,0.59,0.43,0.89,0.64C96.05,75.01,93.45,75.01,90.86,75.03z M99.35,75.04c-0.32-0.43-0.66-0.85-1.02-1.25
		c-0.56-0.63-1.15-1.23-1.77-1.8c-0.39-0.36-0.8-0.71-1.21-1.05c1.23-1.15,2.46-2.29,3.68-3.46c0.06-0.06,0.12-0.12,0.18-0.17
		c1.27,1.24,2.56,2.48,3.87,3.69c-1.25,1.33-2.49,2.68-3.71,4.05C99.36,75.04,99.35,75.04,99.35,75.04z M100.23,75.04
		c-0.23,0-0.46,0-0.68,0c1.36-1.18,2.69-2.38,4.01-3.6c1.25,1.15,2.52,2.27,3.82,3.36c0.03,0.12,0.08,0.23,0.12,0.35
		C105.08,75.11,102.65,75.07,100.23,75.04z M108.57,69.75c-0.49,0.51-0.88,1.12-1.13,1.78c-0.25,0.66-0.33,1.36-0.3,2.05
		c0.02,0.25,0.07,0.5,0.12,0.75c-1.01-1.17-2.04-2.32-3.1-3.44c0.42-0.39,0.84-0.77,1.25-1.16c0.87-0.81,1.73-1.64,2.59-2.46
		c0.56,0.54,1.12,1.09,1.69,1.62C109.28,69.13,108.9,69.41,108.57,69.75z M114.1,68.39c-0.53-0.18-1.1-0.27-1.66-0.29
		c-0.68,0-1.35,0.13-1.98,0.38c-0.06-0.06-0.11-0.12-0.17-0.18c-0.54-0.56-1.09-1.12-1.63-1.68c1.11-1.07,2.21-2.15,3.31-3.23
		c0.13-0.13,0.25-0.26,0.38-0.38c0.94,0.91,1.87,1.82,2.81,2.72c0.27,0.26,0.54,0.51,0.81,0.77c-0.11,0.11-0.22,0.21-0.32,0.31
		C115.14,67.34,114.62,67.87,114.1,68.39z M116.22,69.84c-0.32-0.38-0.7-0.71-1.13-0.97c0.44-0.43,0.89-0.86,1.33-1.29
		c0.11-0.11,0.22-0.23,0.33-0.34c1.22,1.16,2.44,2.31,3.68,3.45c-0.14,0.13-0.28,0.26-0.41,0.39c-0.73,0.72-1.43,1.47-2.11,2.25
		c-0.13,0.15-0.26,0.31-0.39,0.47c0-0.08,0.02-0.15,0.02-0.23C117.54,72.26,117.13,70.91,116.22,69.84z M120.45,75.48l-3.2-0.09
		c0.06-0.19,0.1-0.38,0.14-0.58c0.38-0.29,0.75-0.58,1.11-0.89c0.79-0.67,1.55-1.36,2.28-2.09c0.15-0.14,0.28-0.29,0.43-0.44
		c0.78,0.71,1.55,1.42,2.33,2.13v2.04c0,0.01,0.01,0.02,0.01,0.03C122.52,75.56,121.48,75.52,120.45,75.48z"/>
	<path class="st0" d="M22.99,52.24v-4.37c0.86-0.79,1.73-1.58,2.59-2.38c1.29,1.37,2.58,2.72,3.89,4.07
		c-0.55,0.57-1.1,1.14-1.65,1.71l0.66,0.02c0.46-0.44,0.92-0.87,1.38-1.31c0.12,0.13,0.25,0.26,0.37,0.38
		c0.33,0.35,0.67,0.69,1.01,1.03l1.44,0.16c-0.62-0.59-1.23-1.19-1.86-1.78c-0.12-0.12-0.25-0.24-0.38-0.35
		c1.24-1.18,2.48-2.36,3.71-3.54c0.97,0.98,1.95,1.96,2.93,2.94c0.21,0.21,0.43,0.42,0.64,0.63c-0.93,0.94-1.85,1.89-2.77,2.84
		l0.84,0.46c0.88-0.86,1.76-1.72,2.64-2.59c1.24,1.22,2.48,2.43,3.73,3.64c-0.12,0.12-0.25,0.24-0.37,0.36
		c-0.43,0.43-0.86,0.85-1.29,1.28l1.06,0.44c0.33-0.32,0.66-0.65,0.99-0.97c0.13-0.13,0.25-0.25,0.38-0.38
		c0.69,0.66,1.37,1.33,2.06,1.98c0.25,0.24,0.5,0.48,0.76,0.71l0.98-0.1c-0.38-0.4-0.76-0.8-1.14-1.2c-0.66-0.69-1.33-1.37-2-2.05
		c1.26-1.26,2.53-2.51,3.78-3.78c1.34,1.26,2.7,2.5,4.07,3.73c-0.36,0.33-0.73,0.66-1.09,1c-0.93,0.85-1.84,1.72-2.76,2.58
		l1.08,0.29c0.76-0.76,1.51-1.51,2.26-2.28c0.36-0.36,0.7-0.73,1.06-1.09c0.46,0.41,0.92,0.83,1.38,1.24
		c-0.42-0.46-0.84-0.91-1.26-1.37c1.32-1.36,2.63-2.74,3.92-4.13c1.83,1.71,3.67,3.42,5.53,5.1c-1.7-1.85-3.43-3.68-5.16-5.5
		c0.45-0.48,0.9-0.96,1.34-1.44c-0.5,0.43-0.99,0.86-1.48,1.3c-1.36-1.43-2.73-2.86-4.11-4.27c0.07-0.07,0.14-0.14,0.21-0.22
		c1.15-1.17,2.28-2.35,3.41-3.53c3.68,3.64,7.42,7.23,11.36,10.62c-3.39-3.94-6.98-7.69-10.63-11.38c1.83-1.91,3.65-3.84,5.45-5.78
		c-1.97,1.78-3.91,3.57-5.85,5.38c-1.33-1.32-2.67-2.64-4.01-3.96c0.94-0.96,1.88-1.92,2.82-2.89c1.73-1.79,3.45-3.58,5.16-5.39
		c0.79,0.7,1.59,1.4,2.4,2.08c-0.69-0.81-1.41-1.59-2.12-2.38c1.71-1.81,3.41-3.63,5.1-5.47c-1.82,1.68-3.63,3.38-5.43,5.09
		c-1.02-1.12-2.06-2.23-3.11-3.32c-0.11-0.12-0.22-0.23-0.33-0.34c2.72-2.74,5.44-5.49,8.13-8.26l0.06-0.06l0-0.01
		c0.39,0.24,0.77,0.5,1.14,0.77l0,0c0.02,0.02,0.05,0.01,0.07-0.01c0.02-0.02,0.02-0.05,0-0.08c-0.35-0.35-0.73-0.69-1.12-1
		c0.24-0.69,0.47-1.39,0.69-2.09l0.37-1.18c0.13-0.39,0.24-0.79,0.35-1.19c-0.18,0.37-0.38,0.74-0.55,1.11l-0.53,1.12
		c-0.29,0.61-0.57,1.22-0.85,1.84c-0.96-0.73-1.98-1.37-3.02-1.99c-0.64-0.37-1.29-0.72-1.95-1.05c0.35-0.74,0.7-1.47,1.01-2.22
		c-0.48,0.67-0.92,1.35-1.37,2.04c-0.94-0.46-1.9-0.9-2.87-1.3c-0.58-0.24-1.17-0.46-1.76-0.68c1.04-0.34,2.09-0.69,3.13-1.05
		c-1.2,0.28-2.39,0.58-3.59,0.88C52.91,9,51.84,8.64,50.74,8.33c-1.36-0.37-2.73-0.68-4.11-0.94c0.25-0.28,0.5-0.55,0.75-0.84
		c-0.31,0.27-0.61,0.54-0.91,0.81c-0.46-0.08-0.92-0.16-1.37-0.24c-3.8-0.62-7.63-0.89-11.46-0.96c-3.56-0.03-7.11,0.1-10.64,0.45
		V1.06c0-0.58-0.47-1.06-1.05-1.06h-2.36C19,0,18.54,0.48,18.54,1.06v51.87c0,0,0.66-0.3,2.04-0.5
		C21.96,52.22,22.99,52.24,22.99,52.24z M30.01,49c-1.35-1.28-2.72-2.56-4.09-3.83c1.32-1.23,2.63-2.46,3.94-3.7
		c1.24,1.29,2.49,2.56,3.74,3.83C32.4,46.54,31.21,47.77,30.01,49z M42.9,27.39c-1.21-1.18-2.42-2.34-3.63-3.52
		c0.74-0.74,1.49-1.47,2.23-2.21c0.46-0.45,0.9-0.91,1.36-1.37c0.4,0.38,0.79,0.76,1.19,1.13c0.84,0.79,1.69,1.56,2.55,2.33
		C45.36,24.96,44.13,26.17,42.9,27.39z M43,28.77c0.4,0.4,0.8,0.81,1.21,1.22l2.34,2.33c-1.21,1.2-2.42,2.4-3.63,3.6c0,0,0,0,0,0
		c-0.28-0.27-0.55-0.55-0.83-0.83c-0.92-0.91-1.84-1.81-2.77-2.72c0.5-0.49,1-0.97,1.5-1.46C41.55,30.2,42.27,29.48,43,28.77z
		 M42.26,28.02c-0.73,0.72-1.46,1.44-2.18,2.16c-0.5,0.49-0.99,0.99-1.48,1.48c-1.21-1.19-2.43-2.37-3.65-3.55
		c0.91-0.89,1.83-1.78,2.74-2.67c0.34-0.33,0.68-0.67,1.02-1.01C39.89,25.63,41.07,26.83,42.26,28.02z M36.93,24.7
		c-0.91,0.9-1.8,1.81-2.7,2.71c-0.72-0.7-1.43-1.4-2.16-2.09c-0.51-0.49-1.03-0.97-1.54-1.46c1.3-1.24,2.6-2.5,3.88-3.76
		c1.18,1.19,2.36,2.38,3.54,3.57C37.62,24.02,37.27,24.36,36.93,24.7z M34.28,28.76c1.19,1.21,2.39,2.42,3.59,3.63
		c-1.19,1.19-2.38,2.38-3.56,3.58c-1.25-1.22-2.51-2.43-3.77-3.63C31.79,31.16,33.04,29.96,34.28,28.76z M38.58,33.1
		c0.92,0.92,1.83,1.83,2.75,2.75c0.28,0.28,0.56,0.55,0.84,0.83c-1.18,1.18-2.36,2.36-3.53,3.54c-0.22-0.22-0.44-0.44-0.66-0.67
		c-1-0.98-2-1.96-3.01-2.94C36.17,35.45,37.38,34.28,38.58,33.1z M42.9,37.39c1.15,1.13,2.3,2.27,3.45,3.39
		c-0.98,0.97-1.96,1.94-2.94,2.92c-0.22,0.22-0.44,0.44-0.66,0.66c-1.15-1.16-2.3-2.32-3.45-3.47C40.51,39.73,41.7,38.56,42.9,37.39
		z M43.65,36.66C43.65,36.66,43.66,36.65,43.65,36.66c1.23-1.2,2.43-2.4,3.65-3.6l3.42,3.41c-1.22,1.2-2.44,2.4-3.65,3.6
		C45.93,38.94,44.79,37.8,43.65,36.66z M47.25,31.62c-0.79-0.77-1.57-1.54-2.36-2.31c-0.41-0.4-0.82-0.8-1.23-1.2
		c1.24-1.23,2.48-2.46,3.72-3.7c0.61,0.53,1.22,1.07,1.85,1.59c-0.52-0.63-1.05-1.24-1.59-1.85c0.78-0.78,1.56-1.56,2.34-2.34
		c0.54-0.54,1.08-1.09,1.61-1.64c1.22,1.19,2.46,2.37,3.7,3.54c-0.59,0.57-1.17,1.14-1.76,1.71C51.43,27.49,49.34,29.56,47.25,31.62
		z M49.28,21.13c-0.77,0.75-1.54,1.5-2.31,2.26c-0.76-0.86-1.54-1.71-2.33-2.55c-0.37-0.4-0.76-0.8-1.14-1.2
		c0.59-0.6,1.19-1.19,1.78-1.8c0.65-0.66,1.3-1.33,1.95-2c1.05,1.06,2.1,2.12,3.16,3.17c0.18,0.17,0.36,0.35,0.54,0.52
		C50.38,20.07,49.83,20.6,49.28,21.13z M44.61,17.18c-0.6,0.58-1.19,1.16-1.79,1.74c-0.98-1.02-1.97-2.03-2.96-3.04
		c-0.2-0.2-0.41-0.4-0.61-0.6c0.69-0.71,1.39-1.42,2.08-2.14c0.55-0.57,1.1-1.16,1.64-1.74c0.55,0.59,1.1,1.18,1.65,1.76
		c0.67,0.7,1.35,1.39,2.03,2.09C45.97,15.88,45.29,16.53,44.61,17.18z M42.13,19.59c-0.45,0.44-0.92,0.88-1.37,1.33
		c-0.75,0.74-1.49,1.48-2.24,2.22c-1.2-1.16-2.4-2.33-3.61-3.5c0.05-0.04,0.09-0.09,0.14-0.13c1.16-1.15,2.31-2.31,3.46-3.48
		c0.2,0.2,0.39,0.4,0.58,0.6C40.09,17.62,41.11,18.61,42.13,19.59z M34.28,18.75c-0.05,0.05-0.09,0.1-0.14,0.14
		c-0.24-0.23-0.47-0.45-0.7-0.68l-2.93-2.8c0.09-0.08,0.18-0.17,0.26-0.25c1.17-1.17,2.33-2.36,3.47-3.56
		c0.02,0.02,0.04,0.04,0.06,0.06c1.15,1.24,2.33,2.45,3.51,3.66C36.63,16.46,35.45,17.6,34.28,18.75z M32.98,18.66
		c0.23,0.23,0.46,0.46,0.69,0.7c-1.28,1.28-2.56,2.57-3.82,3.86c-1.27-1.2-2.54-2.4-3.82-3.59c0.16-0.14,0.32-0.28,0.47-0.42
		c1.24-1.12,2.44-2.28,3.64-3.45L32.98,18.66z M30,24.38c0.49,0.51,0.98,1.03,1.48,1.53c0.7,0.72,1.41,1.43,2.11,2.15
		c-1.22,1.23-2.43,2.47-3.64,3.72c-1.3-1.24-2.61-2.47-3.93-3.68c0.87-0.79,1.74-1.58,2.59-2.39C29.07,25.27,29.53,24.83,30,24.38z
		 M33.6,36.7c-0.87,0.88-1.74,1.77-2.61,2.66c-0.34,0.35-0.68,0.7-1.01,1.05c-0.01-0.01-0.03-0.03-0.04-0.04
		c-1.31-1.26-2.64-2.5-3.98-3.73c1.33-1.22,2.65-2.45,3.96-3.69C31.14,34.2,32.37,35.45,33.6,36.7z M30.49,40.89
		c0.35-0.33,0.71-0.66,1.06-1c0.9-0.86,1.79-1.72,2.68-2.57c0.99,1,1.98,1.99,2.98,2.99c0.23,0.22,0.45,0.44,0.68,0.66
		c-1.19,1.2-2.38,2.41-3.57,3.62C33.05,43.35,31.77,42.12,30.49,40.89z M37.85,48.07c-0.98-0.97-1.97-1.94-2.95-2.9
		c1.22-1.18,2.44-2.35,3.66-3.53c1.17,1.15,2.34,2.29,3.52,3.43c-1.2,1.21-2.4,2.42-3.6,3.63C38.27,48.49,38.06,48.28,37.85,48.07z
		 M42.86,53.12c-1.22-1.24-2.44-2.48-3.67-3.71c1.22-1.2,2.43-2.41,3.64-3.62c0.78,0.75,1.56,1.51,2.35,2.26
		c0.48,0.46,0.97,0.91,1.46,1.37C45.38,50.65,44.12,51.89,42.86,53.12z M47.17,48.91c-0.46-0.48-0.92-0.97-1.38-1.45
		c-0.75-0.78-1.52-1.56-2.28-2.33c0.23-0.23,0.45-0.45,0.68-0.67c0.97-0.98,1.94-1.96,2.92-2.95c1.28,1.25,2.57,2.5,3.87,3.74
		C49.69,46.47,48.43,47.69,47.17,48.91z M55.86,49.9c-1.42,1.24-2.83,2.5-4.22,3.78c-1.25-1.36-2.51-2.71-3.78-4.04
		c1.25-1.26,2.49-2.52,3.73-3.78C53,47.21,54.43,48.56,55.86,49.9z M55.35,41.09c-1.19,1.12-2.39,2.24-3.57,3.37
		c-0.07,0.07-0.14,0.13-0.21,0.2c-1.26-1.29-2.52-2.57-3.79-3.85c1.2-1.22,2.4-2.44,3.6-3.67L55.35,41.09z M59.7,27.77
		c-1.8,1.71-3.59,3.43-5.36,5.16c-0.96,0.94-1.92,1.88-2.88,2.82c-1.15-1.13-2.3-2.26-3.45-3.39c2.09-2.07,4.17-4.14,6.25-6.22
		c0.58-0.58,1.16-1.17,1.74-1.76c0.12,0.11,0.23,0.22,0.34,0.32C57.45,25.75,58.57,26.77,59.7,27.77z M59.03,12.55
		c0.66,0.29,1.33,0.58,1.98,0.88c0.86,0.4,1.7,0.84,2.52,1.3c0.23,0.12,0.45,0.26,0.67,0.39c-2.77,2.64-5.53,5.31-8.27,7.98
		c-1.19-1.23-2.4-2.45-3.61-3.67c2.24-2.27,4.46-4.55,6.67-6.85L59.03,12.55z M52.74,10.12l0.38,0.14c0.9,0.3,1.78,0.64,2.66,0.98
		c0.92,0.34,1.82,0.71,2.72,1.09c-2.28,2.15-4.55,4.31-6.81,6.49c-0.18-0.18-0.36-0.36-0.54-0.54c-1.07-1.05-2.15-2.09-3.23-3.13
		c1.61-1.66,3.2-3.32,4.78-5.01C52.72,10.12,52.73,10.12,52.74,10.12z M50.44,9.34c0.45,0.14,0.89,0.29,1.34,0.43l0.5,0.18
		c-1.66,1.52-3.31,3.07-4.94,4.62c-0.71-0.67-1.41-1.35-2.13-2.01c-0.59-0.55-1.2-1.1-1.8-1.65c0.85-0.91,1.68-1.82,2.52-2.75
		C47.45,8.5,48.96,8.88,50.44,9.34z M44.94,7.97c0.23,0.04,0.45,0.09,0.68,0.14c-0.9,0.79-1.79,1.59-2.67,2.39
		c-1.27-1.15-2.55-2.29-3.86-3.39C41.05,7.32,43.01,7.59,44.94,7.97z M39.08,7.11c1.12,1.29,2.27,2.55,3.43,3.8
		c-0.59,0.55-1.19,1.09-1.78,1.64c-0.73,0.68-1.44,1.37-2.16,2.06c-1.21-1.19-2.42-2.37-3.67-3.53c-0.03-0.03-0.06-0.05-0.09-0.08
		c0.01-0.02,0.03-0.03,0.05-0.05c1.19-1.27,2.35-2.57,3.46-3.92C38.57,7.06,38.82,7.08,39.08,7.11z M30.03,6.6
		c1.2,0.02,2.4,0.05,3.59,0.1c1.52,0.07,3.03,0.17,4.54,0.31c-1.33,1.08-2.63,2.2-3.89,3.35c-0.02,0.02-0.05,0.04-0.07,0.07
		c-1.38-1.28-2.78-2.54-4.24-3.74C29.98,6.66,30,6.63,30.03,6.6z M33.65,10.95c-1.23,1.14-2.44,2.29-3.64,3.47
		c-0.09,0.09-0.18,0.18-0.27,0.27l-2.07-1.97c-0.52-0.5-1.05-0.99-1.58-1.49c0.07-0.07,0.15-0.13,0.22-0.2
		c0.69-0.68,1.35-1.39,1.99-2.13c0.58-0.68,1.14-1.39,1.64-2.15C31.13,8.18,32.38,9.57,33.65,10.95z M22.99,6.76
		c2.27-0.14,4.55-0.19,6.83-0.16c0.02,0.02,0.04,0.05,0.06,0.07c-0.77,0.5-1.49,1.05-2.18,1.62c-0.75,0.63-1.47,1.28-2.16,1.97
		c-0.08,0.07-0.15,0.15-0.22,0.23c-0.77-0.74-1.55-1.47-2.33-2.2V6.76z M22.99,8.39c0.73,0.75,1.45,1.5,2.18,2.25
		c-0.56,0.57-1.1,1.15-1.62,1.75c-0.19,0.22-0.38,0.46-0.56,0.69V8.39z M22.99,13.9c0.4-0.3,0.78-0.61,1.16-0.92
		c0.6-0.51,1.19-1.04,1.75-1.58c0.51,0.52,1.01,1.05,1.51,1.57l2,2.05c-1.18,1.19-2.36,2.38-3.5,3.61
		c-0.15,0.16-0.29,0.33-0.44,0.49c-0.82-0.76-1.65-1.52-2.48-2.28V13.9z M22.99,17c0.74,0.8,1.49,1.59,2.23,2.39
		c-0.76,0.83-1.5,1.67-2.23,2.53V17z M22.99,22.26c0.93-0.76,1.84-1.55,2.73-2.35c1.21,1.28,2.42,2.55,3.65,3.81
		c-0.45,0.47-0.91,0.93-1.36,1.4c-0.82,0.85-1.63,1.71-2.43,2.58c-0.86-0.78-1.72-1.56-2.59-2.33V22.26z M22.99,25.59
		c0.75,0.82,1.5,1.64,2.26,2.46c-0.76,0.82-1.51,1.66-2.26,2.5V25.59z M22.99,30.78c0.88-0.77,1.77-1.54,2.64-2.33
		c1.24,1.32,2.48,2.63,3.74,3.92c-1.26,1.3-2.51,2.62-3.75,3.94c-0.87-0.8-1.75-1.58-2.62-2.37V30.78z M22.99,34.16
		c0.76,0.84,1.52,1.68,2.29,2.51c-0.77,0.82-1.53,1.65-2.29,2.48V34.16z M22.99,39.32c0.86-0.78,1.73-1.55,2.58-2.34
		c1.24,1.33,2.5,2.66,3.77,3.97c0.02,0.02,0.04,0.04,0.06,0.06c-1.26,1.3-2.51,2.61-3.76,3.92c-0.88-0.81-1.77-1.61-2.65-2.41V39.32
		z M22.99,42.71c0.78,0.85,1.56,1.69,2.35,2.53c-0.79,0.83-1.57,1.67-2.35,2.5V42.71z"/>
	<path class="st0" d="M10.3,101.7c0.06-0.75,0.14-1.52,0.25-2.28l0.09-0.58l0.12-0.59c0.09-0.35,0.16-0.7,0.22-1.07
		c0.51-2.92,0.91-5.91,1.27-8.88c0.05-0.37,0.09-0.74,0.13-1.11l0.04-0.55l0.01-0.26l0.01-0.3c0.04-0.78,0.14-1.54,0.28-2.29
		c0.15-0.75,0.33-1.49,0.58-2.22c0.19-0.56,0.4-1.12,0.72-1.62c-0.06-0.01-0.11-0.01-0.17-0.01c-0.4-0.06-0.78-0.2-1.14-0.43
		c-0.18,1.47-0.65,2.9-1.27,4.25c-0.34,0.73-0.73,1.43-1.19,2.1c-0.45,0.68-0.99,1.3-1.59,1.86c-0.83,0.76-1.79,1.37-2.81,1.84
		l0.01,0.06l0.05,0.26c0.04,0.18,0.06,0.35,0.09,0.53l0.13,1.05c0.09,0.7,0.17,1.4,0.24,2.11l0.22,2.09
		c0.09,0.68,0.17,1.39,0.31,2.02l0.01,0.05v0.09c-0.01,1.85,0.05,3.76,0.08,5.64c0.03,0.94,0.02,1.89,0.03,2.83
		c-0.01,0.94-0.03,1.91-0.01,2.81c0.07,1.8,0.81,3.6,2.14,4.9c1.2,1.2,2.77,1.98,4.41,2.48c-0.04-0.16-0.08-0.31-0.12-0.47
		c-0.06-0.32-0.12-0.64-0.13-0.97c-0.01-0.33,0-0.68,0.08-1.02c0.03-0.12,0.07-0.25,0.13-0.38c-0.6-0.1-1.19-0.29-1.73-0.63
		c-0.74-0.44-1.32-1.25-1.5-2.12l-0.06-0.32l-0.04-0.3c-0.02-0.2-0.04-0.39-0.05-0.58c-0.03-0.39-0.04-0.77-0.05-1.15
		c-0.01-0.76-0.01-1.52,0-2.28C10.13,104.73,10.19,103.22,10.3,101.7z"/>
	<path class="st0" d="M26.33,109.71c0.07-0.15,0.19-0.28,0.3-0.41c0.12-0.14,0.21-0.21,0.31-0.3l0.31-0.27
		c1.44-1.25,2.9-2.48,4.4-3.66c-0.01-0.05-0.03-0.09-0.04-0.15l-0.14-0.43c-0.32-1.12-0.5-2.2-0.7-3.29
		c-0.2-1.09-0.35-2.18-0.5-3.29c-0.14-1.1-0.27-2.2-0.32-3.34c-0.01-0.18-0.01-0.38,0-0.58c-0.42,1.43-0.88,2.84-1.42,4.24
		c-0.22,0.53-0.43,1.08-0.69,1.61c-0.25,0.53-0.53,1.09-0.92,1.6c-0.73,0.92-1.47,1.77-2.17,2.66c-0.7,0.89-1.38,1.79-1.9,2.79
		c-0.52,1-0.89,2.06-0.9,3.2c-0.06,1.18-0.4,2.35-1.03,3.37c-0.29,0.51-0.67,0.99-1.06,1.43c-0.19,0.23-0.4,0.44-0.61,0.65
		c-0.04,0.04-0.07,0.07-0.11,0.11c1.16,0.36,2.3,0.76,3.43,1.12c0.68,0.22,1.36,0.43,2.04,0.61c0.37,0.1,0.76,0.19,1.11,0.25
		c0.12,0.02,0.24,0.04,0.34,0.04c0.1,0,0.22,0.01,0.25,0c0.03,0.01,0.17-0.04,0.25-0.06c0.19-0.07,0.34-0.16,0.43-0.25
		c0.09-0.09,0.12-0.16,0.13-0.24c0.01-0.09-0.01-0.23-0.09-0.38c-0.04-0.09-0.09-0.16-0.15-0.25l-0.12-0.18
		c-0.04-0.07-0.09-0.15-0.13-0.21c-0.15-0.28-0.27-0.56-0.37-0.83c-0.38-1.1-0.57-2.22-0.52-3.38c0.03-0.58,0.12-1.18,0.37-1.76
		C26.16,109.99,26.24,109.85,26.33,109.71z"/>
	<path class="st0" d="M64.89,99.08c-1.23,0.07-2.47,0.09-3.71-0.02c-0.55-0.05-1.09-0.11-1.64-0.19c0.33,0.63,0.57,1.32,0.79,2.01
		c0.23,0.82,0.42,1.65,0.55,2.48c0.27,1.68,0.4,3.37,0.4,5.07c0,0.85-0.05,1.7-0.15,2.57c-0.03,0.22-0.05,0.43-0.11,0.66
		c-0.05,0.22-0.09,0.44-0.18,0.69c-0.08,0.26-0.16,0.43-0.24,0.62l-0.22,0.58c-0.32,0.77-0.64,1.59-1.12,2.37
		c-0.27,0.44-0.6,0.85-0.96,1.22c0.04,0.01,0.07,0.01,0.11,0.01c0.42,0.07,0.84,0.12,1.27,0.17c0.86,0.11,1.72,0.19,2.58,0.24
		c0.87,0.05,1.74,0.08,2.6,0.04c0.43-0.02,0.86-0.06,1.28-0.13c0.21-0.03,0.42-0.08,0.61-0.13c0.16-0.05,0.32-0.13,0.4-0.19
		c-0.15-1.59-0.33-3.15-0.56-4.72c-0.11-0.8-0.22-1.59-0.32-2.38l-0.15-1.19l-0.07-0.59c-0.03-0.2-0.03-0.45-0.04-0.68
		c0.06-1.79,0.66-3.33,1.32-4.83c0.63-1.39,1.45-3,2.32-4.29c-0.38,0.05-0.76,0.11-1.14,0.16C67.34,98.83,66.12,99,64.89,99.08z"/>
	<path class="st0" d="M83.42,89.68l0.35,2.7c0.03,0.21,0.06,0.43,0.1,0.63c0.09,0.34,0.17,0.6,0.38,0.81
		c0.21,0.21,0.5,0.37,0.81,0.48c0.63,0.22,1.42,0.29,2.04,0.09c0.14-0.04,0.29-0.14,0.33-0.17c0.01-0.01,0.02,0.02,0.02-0.01
		c0-0.04-0.04-0.11-0.09-0.18c-0.21-0.28-0.5-0.56-0.78-0.85c-0.28-0.28-0.54-0.58-0.8-0.89c-0.24-0.31-0.47-0.59-0.75-0.89
		c-0.28-0.29-0.48-0.7-0.6-1.1c-0.13-0.39-0.19-0.78-0.27-1.17c-0.23-1.56-0.38-3.11-0.48-4.66c-0.11-1.54-0.2-3.07-0.44-4.57
		c-0.37-2.6-1.2-5.13-2.54-7.44c0.32,0.66,0.63,1.34,0.86,2.05l0.18,0.58l0.16,0.58c0.1,0.39,0.19,0.78,0.28,1.17
		c0.69,3.09,1.09,6.29,0.7,9.51C83.14,87.5,83.27,88.57,83.42,89.68z"/>
	<path class="st0" d="M7.84,86.94c1.96-2.17,3.42-4.78,4.68-7.56c-0.24-0.14-0.47-0.28-0.73-0.38c-0.28-0.14-0.58-0.21-0.89-0.26
		c-0.3-0.04-0.62-0.04-0.92,0.04c-0.15,0.04-0.3,0.09-0.43,0.17C9.51,78.97,9.46,79,9.43,79.03c0.24,0.73,0.33,1.53,0.24,2.33
		c-0.08,0.83-0.35,1.64-0.73,2.38c-0.78,1.49-1.98,2.7-3.29,3.67c-1.32,0.97-2.78,1.71-4.29,2.31c-0.45,0.17-0.9,0.33-1.36,0.48
		l0.3,0.05l0.58,0.04c0.38,0.04,0.77,0,1.15-0.01c0.76-0.09,1.54-0.23,2.24-0.54C5.71,89.14,6.85,88.06,7.84,86.94z"/>
	<path class="st0" d="M87.85,116.89c-0.17-0.31-0.39-0.65-0.59-0.93l-0.14-0.18v-0.22l0.01-2.47c-0.3-0.52-0.47-1-0.66-1.49
		c-0.21-0.55-0.38-1.1-0.55-1.64c-0.35-1.1-0.65-2.19-0.94-3.29l-0.87-3.29c-0.04-0.14-0.07-0.26-0.11-0.41l-0.09-0.46l-0.14-0.85
		c-0.09-0.57-0.16-1.14-0.23-1.7c-0.28-2.26-0.52-4.51-0.76-6.76L82.75,93c-0.21-0.7-0.34-1.38-0.4-2.07
		c-0.05-0.6-0.06-1.2-0.04-1.79c0-0.01,0-0.01,0-0.01c-0.07-0.62-0.15-1.24-0.24-1.84c-0.04-0.27-0.08-0.54-0.13-0.8l-0.02-0.11
		l0.01-0.08c0.46-3.05,0.17-6.24-0.44-9.31c-0.08-0.38-0.16-0.77-0.25-1.15l-0.14-0.58l-0.17-0.55c-0.21-0.74-0.52-1.46-0.86-2.16
		c-0.69-1.4-1.59-2.7-2.6-3.92c-1.02-1.21-2.12-2.34-3.3-3.41c-0.59-0.53-1.19-1.05-1.81-1.56c-0.62-0.51-1.23-1-1.89-1.42
		c-1.32-0.88-2.78-1.54-4.26-2.1c-1.5-0.53-3.04-0.97-4.61-1.15c-0.4-0.04-0.78-0.08-1.18-0.08c-0.39-0.01-0.76,0.03-1.17,0.08
		c-0.8,0.11-1.6,0.18-2.41,0.24c-1.61,0.11-3.23,0.11-4.85,0.02c-1.62-0.09-3.22-0.28-4.82-0.56c-0.8-0.14-1.59-0.31-2.38-0.48
		c-0.39-0.09-0.77-0.17-1.18-0.28c-0.4-0.1-0.79-0.22-1.18-0.34c-1.55-0.5-3.07-1.09-4.53-1.79c-0.73-0.36-1.46-0.73-2.16-1.16
		c-0.35-0.22-0.7-0.44-1.04-0.68c-0.18-0.14-0.32-0.22-0.47-0.31c-0.14-0.09-0.29-0.19-0.46-0.24c-0.65-0.31-1.4-0.46-2.15-0.58
		c-0.76-0.12-1.54-0.14-2.32-0.16c-1.55-0.01-3.15,0.13-4.68,0.36l-0.05,0.01h-0.05c-1.74,0.04-3.56,0.21-5.26,0.58
		c-0.85,0.19-1.7,0.44-2.4,0.83c-0.19,0.09-0.33,0.21-0.48,0.32c-0.15,0.11-0.34,0.29-0.52,0.43l-1.06,0.85
		c-0.69,0.56-1.35,1.14-1.94,1.77c-0.6,0.63-1.12,1.32-1.57,2.06c-0.92,1.49-1.54,3.11-2.1,4.82c-1.14,3.39-2.26,6.8-3.04,10.27
		c-0.19,0.87-0.37,1.74-0.47,2.62c-0.1,0.88-0.2,1.77-0.29,2.66c-0.09,0.89-0.15,1.79-0.22,2.68C5.14,83.64,5.1,85.04,5.12,86
		c1.11-0.8,2.12-1.71,2.89-2.81c0.42-0.6,0.76-1.26,0.98-1.97c0.19-0.63,0.28-1.3,0.28-1.99c0,0-0.01,0.01-0.01,0.01l-0.01,0.03
		c-0.01,0.03-0.03,0.05-0.07,0.05c-0.04,0-0.06-0.03-0.06-0.06c0-0.23,0.16-0.37,0.28-0.49c0.14-0.12,0.29-0.21,0.46-0.28
		c0.33-0.14,0.69-0.21,1.05-0.22c0.36,0,0.73,0.04,1.07,0.14c0.35,0.08,0.68,0.22,1,0.37l0.03,0.02c0.52,0.28,1.37,0.31,1.73,0.04
		c0.09-0.06,0.14-0.14,0.17-0.23c0.01-0.04,0.03-0.09,0.03-0.15L15,78.19c0.06-0.43,0.15-0.82,0.26-1.2
		c0.22-0.77,0.57-1.49,0.98-2.17c0.2-0.34,0.43-0.67,0.69-0.99c0.25-0.31,0.54-0.62,0.9-0.85c0.02-0.01,0.04-0.01,0.06-0.01
		c0.04,0.01,0.06,0.05,0.05,0.09v0.01c-0.24,0.75-0.42,1.49-0.64,2.21c-0.16,0.52-0.31,1.03-0.49,1.54
		c0.17-0.04,0.32-0.08,0.48-0.12c0.3-0.07,0.59-0.12,0.89-0.16c0.08-0.01,0.15-0.01,0.22-0.02l0.27-0.03
		c0.19-0.02,0.36-0.02,0.54-0.04c0.69-0.04,1.36-0.02,2.03,0.03c0.6,0.06,1.19,0.12,1.79,0.22c0.01-0.31,0-0.61-0.03-0.91v-0.01
		c0-0.03,0.02-0.06,0.05-0.07c0.04-0.01,0.07,0.01,0.09,0.05c0.19,0.59,0.25,1.21,0.3,1.81c0.06,0.6,0.1,1.21,0.17,1.79
		c0.06,0.59,0.15,1.17,0.32,1.69c0.17,0.52,0.45,1,0.78,1.21c0.15,0.08,0.27,0.09,0.46,0.06c0.2-0.04,0.44-0.14,0.69-0.27
		c0.51-0.25,1.05-0.58,1.66-0.84c0.29-0.14,0.61-0.25,0.94-0.34c0.17-0.04,0.33-0.09,0.5-0.12l0.24-0.04l0.15-0.04
		c0.45-0.13,0.95-0.41,1.43-0.7c1.93-1.27,3.76-2.89,5.43-4.57c0.42-0.43,0.83-0.86,1.21-1.3c0.09-0.11,0.19-0.22,0.27-0.33
		l0.27-0.36c0.22-0.28,0.47-0.51,0.73-0.71c1.03-0.8,2.12-1.32,3.12-1.99c0.99-0.68,1.94-1.44,2.45-2.51
		c0.55-1.04,0.81-2.23,0.73-3.37c-0.08-1.14-0.52-2.21-1.24-3.02c-0.37-0.41-0.77-0.73-1.26-1.08C42,60.38,41.5,60.08,41,59.78
		c-2.05-1.17-4.32-1.97-6.65-2.58c-2.22-0.56-4.51-0.95-6.82-1.17c-1.68,0.38-3.14,0.97-4.07,2.06c-0.49,0.52-0.96,1.18-1.17,1.97
		c-0.22,0.79-0.15,1.64,0.01,2.45c0.41,1.62,0.79,3.2,1.18,4.81c0.09,0.41,0.17,0.8,0.23,1.25c0.05,0.44,0.08,0.88,0.06,1.33
		c-0.02,0.45-0.09,0.9-0.22,1.33c-0.06,0.22-0.14,0.43-0.25,0.64c-0.12,0.2-0.24,0.41-0.46,0.54c-0.02,0.01-0.04,0.01-0.06,0
		c-0.04-0.01-0.05-0.05-0.04-0.09l0.01-0.02c0.14-0.35,0.11-0.77,0.09-1.15c-0.04-0.4-0.1-0.79-0.17-1.18
		c-0.14-0.78-0.4-1.49-0.6-2.34c-0.2-0.83-0.3-1.67-0.4-2.52c-0.1-0.84-0.07-1.71-0.01-2.56c0.06-0.86,0.09-1.7,0.14-2.56
		c0.04-0.86,0.17-1.82,0.73-2.62c0.55-0.8,1.45-1.31,2.34-1.54c0.84-0.21,1.71-0.22,2.51,0.02c2.39-0.16,4.8,0.03,7.17,0.46
		c2.43,0.45,4.84,1.22,7.05,2.43c0.55,0.3,1.09,0.64,1.6,1.02l0.38,0.28c0.13,0.11,0.26,0.21,0.38,0.33
		c0.24,0.23,0.47,0.47,0.68,0.75c0.83,1.07,1.14,2.45,1.07,3.71c-0.07,1.27-0.48,2.48-1.07,3.57c-0.31,0.54-0.67,1.07-1.12,1.5
		c-0.44,0.44-0.91,0.85-1.39,1.23c-0.96,0.77-1.99,1.47-2.81,2.27c-0.19,0.2-0.37,0.41-0.5,0.61l-0.1,0.17
		c-0.04,0.07-0.09,0.15-0.14,0.22c-0.09,0.14-0.19,0.26-0.28,0.39c-0.38,0.51-0.78,0.97-1.19,1.44c-0.83,0.92-1.69,1.8-2.6,2.64
		c-0.91,0.84-1.87,1.64-2.96,2.33c-0.55,0.35-1.13,0.66-1.86,0.85l-0.3,0.05l-0.21,0.04c-0.13,0.02-0.26,0.04-0.39,0.08
		c-0.26,0.06-0.52,0.15-0.78,0.25c-0.01,0.01-0.03,0.01-0.04,0.02c0.16,0.25,0.3,0.51,0.45,0.77c0.26,0.49,0.51,0.99,0.75,1.49
		c0.24,0.5,0.45,1.01,0.65,1.54c0.21,0.55,0.32,1.1,0.45,1.63c0.27,1.08,0.5,2.16,0.68,3.27c0.09,0.56,0.17,1.11,0.22,1.68
		c0.02,0.29,0.04,0.58,0.04,0.88c0,0.24,0.01,0.5,0.04,0.76c0.22,2.13,0.58,4.31,0.96,6.45c0.18,1.07,0.4,2.16,0.64,3.17l0.1,0.36
		c0.04,0.16,0.09,0.33,0.12,0.47c0.06,0.29,0.11,0.58,0.14,0.85c0.09,0.56,0.15,1.11,0.22,1.66c0.23,2.21,0.39,4.41,0.41,6.64
		c0,0.28,0,0.56-0.01,0.85c-0.01,0.14-0.01,0.28-0.03,0.43l-0.02,0.23c-0.01,0.07-0.04,0.18-0.05,0.27
		c-0.01,0.09-0.05,0.18-0.1,0.28c-0.04,0.08-0.09,0.16-0.14,0.23c-0.09,0.14-0.19,0.26-0.3,0.37c-0.21,0.22-0.42,0.42-0.64,0.6
		c-0.22,0.19-0.44,0.37-0.66,0.54l-0.28,0.21c-0.02,0.02-0.04,0.04-0.04,0.08c0.01,0.04,0.02,0.07,0.05,0.09
		c0.01,0.01,0.04,0.01,0.06,0.02l0.21,0.01l0.83,0.02c2.22,0.08,4.45,0.11,6.67,0.08l0.42-0.01h0.21c0.06,0,0.06-0.01,0.1-0.02
		c0.05-0.03,0.08-0.09,0.07-0.14c0-0.03,0-0.04-0.03-0.09l-0.09-0.19c-0.24-0.5-0.48-1-0.73-1.49l-1.58-3.12l0.09-0.21
		c0.23-0.56,0.36-1.18,0.45-1.81c0.08-0.63,0.13-1.27,0.14-1.91c0.03-1.28-0.02-2.59-0.19-3.85l-0.01-0.07v-0.04
		c0.06-1.18,0.17-2.31,0.31-3.46l0.39-3.42l0.04-0.41l0.03-0.44c0.04-0.31,0.09-0.59,0.15-0.88c0.11-0.57,0.23-1.13,0.37-1.69
		c0.24-0.95,0.7-2.91,0.71-2.94c0.36-0.96,0.73-1.81,1.15-2.67c0.4-0.85,0.99-1.61,1.47-2.45c0.48-0.83,0.94-1.68,1.39-2.53
		c0.47-0.85,0.9-1.71,1.34-2.58c0.01-0.03,0.04-0.04,0.08-0.04c0.04,0.01,0.06,0.05,0.05,0.09c-0.24,0.95-0.54,1.87-0.84,2.8
		c-0.31,0.93-0.65,1.84-1.03,2.75c-0.38,0.9-0.68,1.86-1.28,2.66c-0.3,0.41-0.62,0.8-0.99,1.15c-0.03,0.04-0.07,0.06-0.09,0.09
		c0.33,0.21,0.68,0.38,1.03,0.57c0.53,0.28,1.08,0.53,1.63,0.8c1.09,0.51,2.19,0.98,3.32,1.44c2.23,0.91,4.5,1.73,6.8,2.44
		c2.3,0.71,4.62,1.32,6.99,1.42c2.37,0.14,4.73-0.16,7.11-0.58c0.6-0.1,1.2-0.21,1.83-0.28l0.47-0.05l0.5-0.01
		c0.18,0.01,0.36,0.03,0.54,0.05c0.04,0.01,0.09,0.02,0.12,0.03c-0.51-0.76-0.93-1.57-1.35-2.38c-0.62-1.22-1.14-2.47-1.6-3.74
		c-0.22-0.64-0.42-1.28-0.6-1.94c-0.18-0.65-0.35-1.28-0.44-1.99c-0.01-0.03,0.01-0.06,0.04-0.07c0.04-0.01,0.07,0.01,0.08,0.04
		l0.01,0.03c0.4,1.24,0.95,2.48,1.53,3.66c0.57,1.2,1.21,2.36,1.92,3.47c0.71,1.11,1.58,2.08,2.32,3.15c0.4,0.56,0.82,1.1,1.25,1.65
		c0.13,0.14,0.27,0.26,0.4,0.4l1.24,1.3l0.63,0.64c0.24,0.23,0.45,0.48,0.65,0.75c0.79,1.05,1.27,2.26,1.64,3.42
		c0.19,0.59,0.35,1.15,0.56,1.63l0.11,0.27l0.07,0.24c0.05,0.16,0.08,0.31,0.12,0.47c0.06,0.31,0.13,0.62,0.18,0.92
		c0.2,1.22,0.32,2.43,0.36,3.67c0.01,0.63,0.01,1.25-0.1,1.93c-0.01,0.16-0.08,0.36-0.13,0.55c-0.06,0.16-0.11,0.32-0.18,0.46
		c-0.13,0.31-0.27,0.58-0.41,0.86c-0.37,0.7-0.76,1.37-1.17,2.04l9.02,0.01c0.11-0.02,0.21-0.05,0.26-0.09
		c0.06-0.04,0.07-0.04,0.09-0.1c0.05-0.1,0.03-0.41-0.07-0.73C88.18,117.55,88.02,117.22,87.85,116.89z M15,68.85
		c-0.6,0-1.09-0.48-1.09-1.08c0-0.6,0.49-1.08,1.09-1.08s1.09,0.48,1.09,1.08C16.09,68.37,15.6,68.85,15,68.85z M22.8,62.3
		c-0.01,0.03-0.04,0.06-0.07,0.06c-0.04,0-0.07-0.03-0.06-0.07c0.05-0.91,0.3-1.85,0.88-2.62c0.57-0.77,1.41-1.32,2.31-1.66
		c0.9-0.34,1.85-0.49,2.79-0.55c0.94-0.06,1.88-0.03,2.82,0.05c0.93,0.09,1.85,0.21,2.78,0.37c0.93,0.15,1.86,0.35,2.75,0.71
		c0.89,0.36,1.75,0.85,2.48,1.53c0.36,0.35,0.68,0.75,0.9,1.21c0.22,0.46,0.32,0.96,0.25,1.44c0,0.02-0.02,0.05-0.05,0.06
		c-0.04,0.01-0.08-0.01-0.09-0.04c-0.32-0.86-0.94-1.43-1.65-1.86c-0.71-0.44-1.52-0.75-2.34-1.03c-0.82-0.28-1.66-0.57-2.52-0.82
		c-0.86-0.24-1.75-0.44-2.63-0.58c-1.76-0.27-3.59-0.37-5.28,0.1c-0.84,0.24-1.63,0.66-2.2,1.31C23.27,60.56,22.94,61.41,22.8,62.3z
		"/>
</g>
</svg>
