<?xml version="1.0" encoding="utf-8"?>
<!-- Generator: Adobe Illustrator 24.1.2, SVG Export Plug-In . SVG Version: 6.00 Build 0)  -->
<svg version="1.1" id="Layer_1" xmlns="http://www.w3.org/2000/svg" xmlns:xlink="http://www.w3.org/1999/xlink" x="0px" y="0px"
	 viewBox="0 0 128 128" style="enable-background:new 0 0 128 128;" xml:space="preserve">
<style type="text/css">
	.st0{fill:#2D2D2D;}
</style>
<g>
	<path class="st0" d="M106.23,43.82c-0.39-1.82-0.88-3.62-1.41-5.4c-0.53-1.78-1.14-3.54-1.84-5.26c-0.7-1.72-1.5-3.46-2.23-5.19
		c-0.7-1.64-1.4-3.28-2.08-4.93c-0.35-0.39-0.68-0.8-1.02-1.21c-0.39-0.49-0.76-0.99-1.11-1.51c-0.35-0.52-0.69-1.05-0.98-1.62
		c-0.15-0.29-0.29-0.58-0.41-0.9c-0.1-0.33-0.24-0.65-0.17-1.2l0.05-0.42l0.5-0.06c1.22-0.15,2.43-0.29,3.6-0.51
		c1.16-0.21,2.29-0.52,3.22-1.13c0.92-0.6,1.66-1.47,2.05-2.57c0.38-1.09,0.55-2.35,0.27-3.49c-0.14-0.57-0.42-1.1-0.81-1.52
		c-0.4-0.41-0.89-0.72-1.42-0.94c-1.07-0.41-2.24-0.54-3.42-0.61c-2.37-0.13-4.8,0.16-7.27,0.4c-0.9,0.22-1.8,0.62-2.65,1.02
		c-0.91,0.44-1.79,0.96-2.61,1.53c-1.65,1.15-3.1,2.56-4.3,4.13c-0.6,0.79-1.11,1.64-1.56,2.51c-0.45,0.87-0.83,1.78-1.13,2.72
		c-0.63,1.87-0.87,3.81-1.05,5.82c-0.37,3.99-0.19,8.02-0.65,12.17c-0.25,2.05-0.73,4.24-2.06,6.11c-0.67,0.92-1.53,1.71-2.51,2.28
		c-0.24,0.14-0.5,0.26-0.75,0.4l-0.77,0.33l-1.47,0.54c-1.97,0.69-4,1.26-6.09,1.59c-2.09,0.33-4.24,0.38-6.32,0.11
		c-1.04-0.12-2.07-0.3-3.09-0.52c-1.06-0.2-2.05-0.6-3-1.01c-1.91-0.84-3.72-1.83-5.49-2.89c-3.53-2.11-6.9-4.48-10.07-7.1
		c-1.58-1.32-3.1-2.7-4.53-4.18c-1.37-1.42-2.64-2.95-3.72-4.63c-0.46-0.06-0.98-0.01-1.47,0.12c-0.56,0.14-1.09,0.38-1.54,0.71
		c-0.45,0.32-0.83,0.73-1.07,1.2c-0.25,0.47-0.38,0.99-0.4,1.54L23.4,31.8l-1.12-1.14c-0.38-0.39-0.76-0.78-1.15-1.14
		c-0.37-0.35-0.8-0.72-1.1-0.86c-0.01,0-0.01,0-0.01-0.01c-0.04,0.07-0.11,0.19-0.15,0.32c-0.15,0.42-0.26,0.95-0.36,1.46
		c-0.37,2.07-0.51,4.24-0.5,6.35l0.01,1.95l-1.47-1.29c-0.14-0.12-0.3-0.23-0.42-0.29c-0.14,0.44-0.14,1.2-0.08,1.88
		c0.14,1.41,0.48,2.88,0.96,4.22l-0.79,1.25c0.1-0.01,0.16-0.08,0.12-0.03c-0.03,0.04-0.09,0.16-0.13,0.29
		c-0.09,0.28-0.15,0.64-0.18,1c-0.05,0.74,0,1.53,0.11,2.3c0.23,1.54,0.71,3.1,1.47,4.37l0.76,1.28l-1.46,0.25
		c-0.05,0.01-0.1,0.02-0.13,0.04c0.04,0.27,0.25,0.75,0.49,1.18c0.51,0.92,1.14,1.87,1.74,2.82l0.49,0.78l-0.75,0.59
		c-0.21,0.17-0.34,0.34-0.42,0.56c-0.07,0.23-0.1,0.52-0.05,0.85c0.09,0.67,0.4,1.42,0.8,2.12c0.81,1.42,1.94,2.75,3.17,3.91
		l0.56,0.53l-0.37,0.66c-0.25,0.45-0.29,0.9-0.11,1.45c0.17,0.54,0.54,1.1,0.99,1.62c0.92,1.04,2.12,1.93,3.38,2.72l0.43,0.27
		l-0.01,0.47c0,0.1,0.07,0.43,0.18,0.7c0.1,0.28,0.24,0.58,0.38,0.87c0.29,0.58,0.62,1.16,0.98,1.71c0.72,1.12,1.55,2.19,2.46,3.17
		c1.81,1.96,3.95,3.72,6.46,4.6l0.27,0.09l0.09,0.24c0.16,0.41,0.59,0.91,1.02,1.33c0.44,0.43,0.92,0.85,1.41,1.24
		c1,0.78,2.05,1.51,3.13,2.19c2.06,1.29,6.05,2.4,7.53,3.74c0.29,0.24,0.58,0.49,0.85,0.74c0.56,0.49,1.09,1,1.63,1.49
		c0.53,0.49,1.07,0.98,1.6,1.44l0.81,0.67l0.84,0.66c1.2,0.98,2.17,2.18,3.2,3.27l0.77,0.84c0.13,0.14,0.25,0.29,0.37,0.46
		c0.06,0.09,0.11,0.17,0.17,0.29c0.02,0.04,0.04,0.09,0.05,0.14l0.18,0.02l0.55,0.01c0.37,0.01,0.74-0.02,1.11-0.04
		c0.74-0.04,1.48-0.12,2.21-0.18c0.73-0.07,1.46-0.12,2.13-0.23c0.17-0.03,0.33-0.06,0.47-0.1c0.13-0.03,0.27-0.09,0.25-0.1
		c0-0.01,0-0.01,0.01-0.01l0.06-0.05c0.04-0.03,0.1-0.1,0.14-0.14c0.11-0.11,0.21-0.24,0.32-0.37l1.33-1.67l2.74-3.43l1.39-1.72
		c0.4-0.51,0.82-1.02,1.17-1.56c-0.28,0.03-0.55,0.06-0.83,0.09c-0.05,0-0.1-0.03-0.11-0.09c0-0.05,0.03-0.09,0.07-0.1
		c3.68-1.05,7.3-2.22,10.67-3.85c1.68-0.81,3.3-1.73,4.81-2.79c1.51-1.07,2.89-2.24,4.2-3.57c2.61-2.65,5.09-5.55,7.14-8.71
		c2.04-3.16,3.75-6.57,4.86-10.13c0.55-1.78,0.95-3.59,1.02-5.37c0.07-1.83,0-3.69-0.16-5.53
		C107.71,51.12,107.06,47.44,106.23,43.82z M98.87,8.28c0.76,0,1.37,0.61,1.37,1.35s-0.62,1.35-1.37,1.35
		c-0.76,0-1.37-0.61-1.37-1.35S98.11,8.28,98.87,8.28z M63.89,72.32c0.94-0.55,1.87-1.12,2.81-1.71c0.94-0.56,1.88-1.14,2.82-1.72
		c1.88-1.15,3.76-2.29,5.54-3.52c0.88-0.62,1.75-1.27,2.51-2.01c0.39-0.36,0.72-0.77,1.02-1.2c0.27-0.45,0.48-0.93,0.59-1.46l0,0
		c0.01-0.05,0.06-0.09,0.12-0.08c0.05,0.01,0.08,0.05,0.08,0.09c0.04,0.57-0.08,1.15-0.29,1.69c-0.22,0.53-0.5,1.05-0.84,1.51
		c-0.68,0.93-1.48,1.75-2.32,2.5c-1.68,1.51-3.49,2.82-5.32,4.1c-0.92,0.62-1.84,1.24-2.78,1.85c-0.95,0.59-1.9,1.17-2.88,1.72
		c-0.99,0.54-1.98,1.07-3.08,1.52c-0.28,0.11-0.56,0.22-0.89,0.31c-0.17,0.04-0.34,0.09-0.56,0.11c-0.09,0.02-0.25,0.02-0.38,0.01
		c-0.18-0.03-0.34-0.03-0.63-0.19c-0.12-0.06-0.25-0.19-0.35-0.33c-0.1-0.14-0.13-0.25-0.17-0.38c-0.82,0.26-1.67,0.44-2.52,0.51
		c-1.52,0.13-3.07,0.05-4.53-0.48c-0.35-0.15-0.75-0.31-1.06-0.64c-0.31-0.32-0.49-0.78-0.47-1.21c0.06-0.87,0.56-1.53,1.09-2.05
		c0.13-0.13,0.27-0.23,0.41-0.35c-0.57,0.15-1.14,0.27-1.73,0.36c-0.47,0.07-0.95,0.11-1.44,0.14c-0.49,0-0.98-0.01-1.48-0.07
		c-0.99-0.11-2.03-0.41-2.93-1.03c-0.91-0.63-1.57-1.56-1.8-2.68c-0.04-0.29-0.09-0.58-0.03-0.87c0.02-0.15,0.04-0.29,0.07-0.44
		l0.16-0.4c0.22-0.53,0.58-0.94,0.94-1.3c0.76-0.69,1.62-1.13,2.49-1.48c0.87-0.35,1.77-0.6,2.67-0.78
		c0.05-0.01,0.11,0.02,0.12,0.07c0.01,0.04-0.01,0.09-0.05,0.11c-0.82,0.42-1.62,0.84-2.37,1.31c-0.74,0.48-1.46,0.99-1.96,1.61
		c-0.53,0.61-0.71,1.27-0.55,1.87c0.17,0.63,0.68,1.23,1.27,1.61c0.61,0.4,1.38,0.58,2.19,0.69c0.81,0.1,1.67,0.09,2.54,0.04
		c1.74-0.1,3.52-0.38,5.27-0.81l0.3,0.84c-0.01,0-0.01,0.01-0.02,0.01c-0.42,0.16-0.84,0.32-1.26,0.47c-0.87,0.37-1.7,0.85-2.37,1.5
		c-0.48,0.47-0.86,1.08-0.87,1.66c0.02,0.58,0.47,0.94,1.15,1.1c1.3,0.34,2.74,0.23,4.07-0.06c1.34-0.3,2.62-0.81,3.77-1.48
		l2.97-1.74l-1.62,2.63C62.14,73.35,63.02,72.84,63.89,72.32z M90.48,60.69c-0.22,1.58-0.53,3.13-0.8,4.68
		c-0.07,0.39-0.12,0.76-0.2,1.17c-0.08,0.44-0.22,0.86-0.38,1.26c-0.32,0.81-0.77,1.52-1.26,2.19c-1.99,2.67-4.54,4.75-7.24,6.56
		c-1.36,0.9-2.78,1.72-4.29,2.41c-0.76,0.34-1.54,0.65-2.39,0.89c-0.43,0.11-0.87,0.22-1.38,0.24c-0.24,0.03-0.53,0.01-0.82-0.02
		c-0.09-0.02-0.17-0.04-0.26-0.06c-0.65,0.44-1.32,0.88-2.03,1.24c-0.88,0.46-1.8,0.88-2.78,1.18c-0.99,0.29-2.04,0.51-3.18,0.42
		c-0.57-0.05-1.16-0.19-1.73-0.45c-0.34-0.17-0.65-0.39-0.94-0.65c-1.27,0.4-2.54,0.77-3.84,1.03c-1.52,0.34-3.07,0.54-4.62,0.68
		c-1.55,0.13-3.11,0.15-4.67,0.06c-1.57-0.1-3.08-0.28-4.67-0.68l-0.65-0.17l0.08-0.63c0.06-0.49,0.16-0.83,0.29-1.21
		c0.13-0.37,0.28-0.73,0.45-1.08c0.21-0.43,0.47-0.83,0.74-1.22c-2.68-1.18-5.22-2.73-7.26-4.85c-1.11-1.17-2.05-2.51-2.65-4.02
		c-0.29-0.76-0.48-1.57-0.46-2.41c0.02-0.42,0.08-0.85,0.29-1.26c0.13-0.25,0.35-0.49,0.62-0.65c-0.54-0.52-0.94-1.14-1.26-1.78
		c-0.39-0.79-0.67-1.65-0.71-2.56c-0.02-0.45,0.03-0.94,0.27-1.39c0.22-0.46,0.7-0.82,1.2-0.92c0.59-0.12,1.15-0.05,1.67,0.08
		c-0.37-0.57-0.75-1.15-1.1-1.75c-0.54-0.9-1.05-1.82-1.5-2.78c-0.9-1.91-1.56-3.99-1.65-6.21l-0.06-1.46l1.24,0.87
		c0.93,0.65,1.7,1.4,2.39,2.19c0.47,0.53,0.91,1.07,1.33,1.62c0.04-0.22,0.09-0.45,0.18-0.67c0.23-0.62,0.65-1.19,1.17-1.59
		l0.4-0.31l0.44,0.17c1.14,0.44,2.07,0.97,3.03,1.51c0.95,0.54,1.88,1.1,2.8,1.68l1.37,0.88c0.32,0.2,0.73,0.49,0.93,0.6
		c0.02-0.11,0.04-0.25,0.03-0.4c0-0.44-0.09-0.95-0.18-1.44l-0.31-1.73l1.4,1.02c2.08,1.52,4.62,2.49,7.21,3.16
		c1.3,0.35,2.63,0.61,3.97,0.82c1.34,0.2,2.69,0.36,4.05,0.46c0.05,0,0.1,0.05,0.09,0.1c0,0.05-0.04,0.09-0.09,0.09
		c-1.37,0.07-2.75,0.04-4.12-0.06c-1.37-0.1-2.75-0.25-4.11-0.5c-1.36-0.27-2.71-0.6-4.03-1.07c-0.83-0.31-1.64-0.67-2.43-1.09
		c0.01,0.07,0.01,0.14,0.02,0.21c0.01,0.31,0.01,0.65-0.13,1.06c-0.07,0.2-0.2,0.46-0.47,0.66c-0.27,0.22-0.62,0.27-0.89,0.26
		c-0.27-0.02-0.47-0.09-0.66-0.17c-0.08-0.04-0.2-0.1-0.27-0.15l-0.17-0.1l-0.69-0.42l-1.38-0.82c-0.93-0.54-1.85-1.08-2.78-1.59
		c-0.75-0.41-1.53-0.82-2.27-1.14c-0.32,0.43-0.46,0.99-0.42,1.66c0.01,0.21,0.04,0.43,0.08,0.66l0.06,0.38
		c0.01,0.09,0.03,0.14,0.03,0.31c0,0.02,0,0.12-0.01,0.2l-0.01,0.06c-0.01,0.05-0.03,0.12-0.06,0.17c-0.03,0.06-0.06,0.11-0.1,0.16
		c-0.02,0.03-0.03,0.04-0.06,0.08c-0.04,0.04-0.08,0.08-0.14,0.12c-0.2,0.16-0.54,0.19-0.59,0.17c-0.12-0.01-0.23-0.04-0.34-0.08
		c-0.07-0.03-0.13-0.07-0.2-0.12c-0.09-0.08-0.21-0.19-0.26-0.25L36.19,54l-0.25-0.32l-0.46-0.62c-0.59-0.83-1.18-1.63-1.81-2.39
		c-0.23-0.28-0.47-0.55-0.71-0.81c0.18,1.33,0.57,2.66,1.09,3.94c0.37,0.94,0.81,1.86,1.28,2.77c0.48,0.91,0.99,1.78,1.52,2.71
		l0.55,0.98l-1.04-0.45c-0.74-0.32-1.57-0.6-2.27-0.47c-0.72,0.1-1.04,0.85-0.99,1.64c0.02,0.79,0.27,1.59,0.62,2.32
		c0.36,0.73,0.85,1.42,1.47,1.89l0.58,0.44l-0.72,0.1c-0.59,0.08-0.9,0.82-0.88,1.53c0,0.72,0.19,1.45,0.48,2.14
		c0.57,1.39,1.54,2.6,2.64,3.65c2.22,2.11,5.03,3.53,7.94,4.54l0.85,0.3l-0.55,0.75c-0.4,0.54-0.73,1.12-1.01,1.72
		c-0.13,0.3-0.25,0.6-0.34,0.91c-0.02,0.06-0.04,0.13-0.06,0.2c1.17,0.2,2.42,0.31,3.64,0.34c1.47,0.03,2.95,0,4.42-0.16
		c1.47-0.17,2.93-0.38,4.36-0.74c1.44-0.32,2.85-0.78,4.24-1.26l0.7-0.24l0.48,0.62c0.18,0.23,0.4,0.41,0.68,0.54
		c0.29,0.12,0.63,0.2,1,0.23c0.74,0.07,1.58-0.09,2.4-0.34c0.82-0.25,1.62-0.62,2.41-1.03c0.79-0.41,1.54-0.91,2.29-1.41l1.22,0.01
		c-0.08-0.02,0.19,0.06,0.48,0.03c0.29-0.01,0.64-0.08,0.98-0.16c0.69-0.17,1.4-0.44,2.1-0.74c1.4-0.61,2.76-1.35,4.08-2.16
		c1.32-0.81,2.59-1.71,3.78-2.69c1.19-0.97,2.33-2.03,3.26-3.21c0.46-0.59,0.89-1.2,1.19-1.85c0.15-0.32,0.28-0.65,0.36-0.98
		c0.09-0.36,0.18-0.77,0.27-1.15c0.37-1.54,0.77-3.06,1.07-4.58c0.27-1.51,0.55-3.07,0.26-4.53c-0.13-0.74-0.5-1.4-1.04-1.9
		c-0.53-0.54-1.3-0.78-2.05-1.01l-0.01,0c-0.05-0.02-0.08-0.07-0.06-0.12c0.01-0.05,0.06-0.08,0.11-0.07
		c0.78,0.16,1.63,0.32,2.29,0.87c0.66,0.51,1.16,1.27,1.37,2.07C90.84,57.46,90.69,59.11,90.48,60.69z"/>
	<path class="st0" d="M72.67,117.63c-0.52-0.07-1.04-0.15-1.54-0.17l-0.37-0.01l-0.43-0.01c-0.29-0.01-0.58-0.03-0.87-0.09
		c-0.58-0.1-1.18-0.28-1.69-0.69c-0.52-0.38-0.87-1.02-0.91-1.66c-0.01-0.15,0-0.33,0.01-0.47l0.05-0.39l0.1-0.79l0.2-1.58
		c0.26-1.97,0.18-3.95,0.47-5.92c-1.35,0.03-2.29-0.13-3.59-0.35l-1.13-0.2l-0.57-0.11l-0.13-0.03c0.18,1.87,0.64,4.48,0.71,6.12
		l0.15,5.56l0.01,0.28l-0.27,0.14c-2.51,1.26-5.03,2.48-7.56,3.69c-0.01,0.23,0.01,0.39,0.1,0.56c0.11,0.23,0.33,0.41,0.58,0.5
		c0.13,0.04,0.26,0.06,0.39,0.06c0.13,0,0.25-0.04,0.48-0.1l1.2-0.32c0.8-0.21,2.09-0.53,3.17-0.8c1.2-0.3,2.47,0.04,3.36,0.88
		c0.45,0.42,0.86,0.81,1.02,0.94c0.81,0.67,1.64,1.33,2.47,1.99c0.83,0.66,1.68,1.29,2.52,1.93l1.28,0.94
		c0.41,0.34,0.84,0.5,1.33,0.45c0.23-0.03,0.46-0.11,0.66-0.24c0.19-0.12,0.4-0.32,0.59-0.48c0.18-0.15,0.36-0.31,0.51-0.47
		c0,0-0.01-0.01-0.01-0.01l-0.32-0.25c-0.84-0.66-1.64-1.35-2.45-2.05c-0.39-0.33-1-0.9-1.37-1.25c-0.32-0.32-0.64-0.62-0.92-1.08
		c-0.04-0.08-0.1-0.17-0.09-0.37c0.01-0.12,0.11-0.29,0.23-0.33c0.07-0.04,0.11-0.04,0.14-0.05c0.04-0.01,0.08-0.01,0.11-0.01
		c0.22,0,0.35,0.04,0.5,0.08c0.28,0.08,0.54,0.17,0.79,0.27c0.58,0.22,1.14,0.47,1.7,0.72c0.9,0.41,1.8,0.84,2.68,1.29l0.71,0.37
		c0.22,0.11,0.54,0.3,0.57,0.28c0.09,0.01,0.19-0.02,0.25-0.09l0.5-0.57l0.02-0.03l-0.36-0.15c-0.49-0.21-0.98-0.42-1.47-0.64
		c-0.97-0.44-1.94-0.89-2.9-1.4c-0.24-0.13-0.48-0.26-0.73-0.42c-0.12-0.08-0.24-0.16-0.38-0.26c-0.06-0.05-0.13-0.1-0.21-0.17
		c-0.07-0.07-0.17-0.15-0.27-0.37c-0.03-0.09-0.05-0.19-0.06-0.28c0-0.11,0.05-0.28,0.12-0.4c0.11-0.17,0.32-0.28,0.36-0.29
		c0.09-0.04,0.16-0.06,0.2-0.06c0.05-0.01,0.11-0.03,0.15-0.03c0.18-0.03,0.33-0.03,0.48-0.04c0.29-0.01,0.57,0,0.85,0
		c1.1,0.04,2.16,0.14,3.23,0.25c1.06,0.11,2.12,0.25,3.18,0.38l0.79,0.11l0.16,0.02c0.01,0,0.02,0,0.02,0
		c0.01,0,0.03-0.01,0.04-0.02c0,0.09,0.06-0.13,0.13-0.42c-1.85-0.46-3.71-0.9-5.57-1.3C74.75,118,73.71,117.79,72.67,117.63z"/>
	<path class="st0" d="M89.57,4.67c0.5,0.42,1.12,0.69,1.75,0.96c0.2-0.04,0.4-0.09,0.62-0.11v0.03c1.08-0.45,2.21-0.77,3.36-1
		c1.24-0.25,2.5-0.37,3.79-0.33c1.28,0.05,2.61,0.33,3.75,1.03c1.16,0.68,1.96,1.86,2.23,3.1c0.1,0.41,0.14,0.83,0.16,1.24
		c0.55-0.23,1.07-0.52,1.53-0.88c0.45-0.36,0.88-0.81,1.05-1.3c0.19-0.48-0.12-0.92-0.54-1.3c-0.42-0.38-0.92-0.74-1.39-1.13
		l-0.12-0.1l0-0.16c-0.01-0.61-0.15-1.2-0.56-1.59c-0.4-0.38-1.01-0.57-1.63-0.56l-0.21,0l-0.09-0.18
		c-0.27-0.57-0.67-1.06-1.24-1.28c-0.57-0.23-1.26-0.19-1.95-0.22l-0.13-0.01L99.9,0.79c-0.15-0.28-0.39-0.51-0.7-0.63
		c-0.3-0.13-0.65-0.17-1-0.16c-0.7,0.05-1.4,0.24-2.06,0.52L96.1,0.55l-0.05-0.03c-0.29-0.21-0.66-0.3-1.02-0.29
		c-0.36,0.02-0.72,0.13-1.05,0.29c-0.65,0.32-1.25,0.84-1.56,1.42l-0.11,0.2l-0.22-0.06c-0.72-0.2-1.36-0.57-1.89-0.38
		c-0.52,0.17-1,0.8-1.22,1.35c-0.11,0.29-0.12,0.59-0.01,0.88C89.09,4.2,89.31,4.46,89.57,4.67z"/>
	<path class="st0" d="M77.58,102.8c0.96-0.14,1.9-0.36,2.76-0.72l0.31-0.14l0.15-0.07c0.01-0.02,0-0.01,0.04-0.04
		c0.11-0.09,0.27-0.28,0.42-0.45c0.29-0.36,0.57-0.75,0.85-1.14c1.12-1.58,1.98-3.36,3.15-4.93c0.85-1.21,1.79-2.36,2.71-3.53
		c-0.39,0.18-0.77,0.35-1.16,0.51c-3.25,1.33-6.67,2.16-10.12,2.56c-0.08,0.74-0.35,1.42-0.61,2.08c-0.28,0.7-0.61,1.38-0.96,2.05
		c-0.69,1.34-1.48,2.62-2.36,3.85c-0.03,0.04-0.06,0.08-0.09,0.12c0.17,0.02,0.33,0.03,0.5,0.04c0.49,0.03,0.99,0.05,1.48,0.04
		C75.63,103.02,76.62,102.95,77.58,102.8z"/>
	<path class="st0" d="M93.23,115.11c-0.02-0.01-0.03-0.01-0.07-0.02l-0.2-0.04l-3.2-0.64c-1.07-0.21-2.14-0.41-3.2-0.58
		c-1.07-0.16-2.14-0.36-3.17-0.43c-0.26-0.03-0.51-0.04-0.75-0.04c-0.27-0.01-0.59,0-0.88-0.03c-0.6-0.05-1.23-0.18-1.82-0.49
		c-0.59-0.31-1.13-0.87-1.32-1.56c-0.1-0.33-0.11-0.72-0.06-1.01l0.13-0.8c0.35-2,0.17-3.89,0.6-5.87c-0.71,0.15-0.89,0.13-1.6,0.16
		c-1.03,0.04-2.05-0.01-3.06-0.13c-0.01,0-0.02,0-0.03,0c0.24,0.71,0.36,1.43,0.42,2.14c0.04,0.38,0.05,0.76,0.06,1.14
		c0,0.38-0.06,0.76-0.12,1.14c-0.16,0.76-0.05,3.8,0.06,4.56l0.03,0.26l-0.33,0.21c-0.51,0.32-5.41,2.48-6.63,2.66
		c0.07,0.08,0.16,0.15,0.25,0.21c0.35,0.25,0.81,0.37,1.29,0.44c0.24,0.04,0.49,0.04,0.74,0.05l0.81-0.01
		c0.57,0.01,1.12,0.06,1.66,0.12c1.09,0.13,2.16,0.3,3.22,0.49c2.06,0.36,4.08,0.81,6.11,1.29c0.24,0.03,0.49,0.07,0.73,0.12
		c0.54,0.11,1.08,0.22,1.61,0.37c1.07,0.28,2.11,0.6,3.16,0.94l0.78,0.26l0.38,0.13c0.06,0.02,0.13,0.02,0.19,0.02
		c0.13-0.01,0.25-0.07,0.33-0.17l0.46-0.52l-0.49-0.22c-0.5-0.22-0.99-0.47-1.48-0.72c-0.97-0.51-1.93-1.04-2.87-1.65
		c-0.23-0.15-0.47-0.31-0.69-0.5c-0.12-0.1-0.23-0.18-0.35-0.37c-0.02-0.03-0.03-0.05-0.05-0.09c-0.02-0.05-0.03-0.11-0.03-0.16
		c0-0.06,0.03-0.15,0.07-0.2c0.04-0.05,0.07-0.07,0.12-0.1c0.14-0.08,0.22-0.08,0.3-0.09c0.61-0.05,1.14,0.01,1.7,0.05
		c2.19,0.2,4.37,0.4,6.55,0.58l0.41,0.03c0.08,0,0.14-0.01,0.19-0.04c0.06-0.03,0.1-0.08,0.13-0.13c0.03-0.07,0.03-0.06,0.06-0.23
		c0.07-0.34,0.05-0.33-0.01-0.44C93.31,115.15,93.27,115.13,93.23,115.11z"/>
	<path class="st0" d="M104.19,14.29c-0.32,0.44-0.71,0.84-1.14,1.17c-1.1,0.8-2.38,1.26-3.64,1.52c-1.07,0.22-2.13,0.3-3.18,0.35
		c0.01,0.05,0.02,0.1,0.04,0.15c0.07,0.26,0.17,0.54,0.27,0.81c0.22,0.55,0.47,1.09,0.74,1.64c0.18,0.36,0.37,0.72,0.55,1.09
		c0.88,0.63,1.79,1.15,2.72,1.38c0.62,0.17,1.23,0.18,1.84,0.09c0.31-0.03,0.61-0.15,0.92-0.26c0.3-0.14,0.59-0.31,0.87-0.49
		l0.39-0.31l0.2-0.16l0.16-0.19c0.11-0.12,0.22-0.24,0.32-0.37l0.25-0.42c0.3-0.58,0.43-1.24,0.39-1.93
		c-0.08-1.37-0.73-2.73-1.56-3.91l0,0c-0.01-0.01-0.01-0.02-0.01-0.03C104.28,14.36,104.23,14.33,104.19,14.29z"/>
	<path class="st0" d="M110.97,14.58c-1.11-0.28-2.22-0.57-3.33-0.88c-0.57-0.16-1.16-0.27-1.71-0.5c-0.34-0.14-0.67-0.29-1-0.47
		c-0.13,0.42-0.29,0.84-0.52,1.23c-0.01,0.02-0.03,0.04-0.04,0.06c0.42,0.16,0.83,0.33,1.25,0.47c0.58,0.21,1.16,0.45,1.77,0.56
		c0.61,0.11,1.25,0.13,1.88,0.04c0.59-0.07,1.17-0.25,1.74-0.48C110.99,14.6,110.98,14.59,110.97,14.58z"/>
	<path class="st0" d="M105.25,10.35c-0.01,0.58-0.03,1.17-0.16,1.76c-0.02,0.08-0.04,0.17-0.06,0.25c0.38,0.05,0.75,0.13,1.11,0.22
		c0.58,0.14,1.12,0.41,1.67,0.62c1.03,0.4,2.04,0.81,3.06,1.24c-0.11-0.15-0.22-0.29-0.32-0.44c-0.22-0.26-0.4-0.54-0.62-0.79
		c-0.42-0.51-0.81-1.03-1.31-1.47c-0.51-0.42-1.08-0.77-1.71-1.01C106.39,10.52,105.82,10.39,105.25,10.35z"/>
</g>
</svg>
