<?xml version="1.0" encoding="utf-8"?>
<!-- Generator: Adobe Illustrator 24.1.2, SVG Export Plug-In . SVG Version: 6.00 Build 0)  -->
<svg version="1.1" id="Layer_1" xmlns="http://www.w3.org/2000/svg" xmlns:xlink="http://www.w3.org/1999/xlink" x="0px" y="0px"
	 viewBox="0 0 128 128" style="enable-background:new 0 0 128 128;" xml:space="preserve">
<style type="text/css">
	.st0{fill:#2D2D2D;}
</style>
<g>
	<path class="st0" d="M127.74,6.01c-0.51,0.02-1.02,0.06-1.53,0.09l-3.06,0.22c-2.04,0.15-4.08,0.23-6.12,0.18
		c-1.22-0.02-2.44-0.05-3.66-0.1l-0.45,15.02l-0.04,1.17c0.71-1.05,1.46-2.06,2.23-3.06c1.25-1.61,2.56-3.18,3.96-4.66
		c1.42-1.47,2.82-2.95,4.32-4.34c1.52-1.37,3.06-2.73,4.39-4.28L128,6L127.74,6.01z"/>
	<path class="st0" d="M49.98,6.3L30.92,6.1c0.16,7.83,0.39,15.65,0.61,23.48c0.2,7.98,0.53,15.96,0.81,23.94l1.34,47.87l0.42,11.97
		l0.19,5.99l0.08,2.99l0.04,1.5c0.02,0.43,0.08,0.83,0.21,1.23c0.51,1.59,2.06,2.79,3.75,2.88c0.19,0.02,0.46,0.02,0.71,0.02
		l0.75,0.01l1.5,0.01l3,0.03c0,0,42.02-0.61,58-0.64c1.29,0,2.57-0.53,3.47-1.45c0.91-0.91,1.43-2.18,1.43-3.47l2.35-53.84
		l0.36-15.75l0.44-15.75l0.48-15.74l0.49-14.71L70.78,6.47L49.98,6.3z M49.63,19.56h6.86c0.76,0,1.38,0.63,1.38,1.4
		c0,0.77-0.62,1.4-1.38,1.4h-6.86c-0.76,0-1.38-0.63-1.38-1.4C48.25,20.18,48.87,19.56,49.63,19.56z M56.49,114.39h-6.86
		c-0.76,0-1.38-0.63-1.38-1.4s0.62-1.4,1.38-1.4h6.86c0.76,0,1.38,0.63,1.38,1.4S57.25,114.39,56.49,114.39z M60.88,99.05H49.63
		c-0.76,0-1.38-0.63-1.38-1.4c0-0.77,0.62-1.4,1.38-1.4h11.26c0.76,0,1.38,0.63,1.38,1.4C62.26,98.42,61.64,99.05,60.88,99.05z
		 M48.25,82.31c0-0.77,0.62-1.4,1.38-1.4h6.86c0.76,0,1.38,0.63,1.38,1.4s-0.62,1.4-1.38,1.4h-6.86
		C48.87,83.71,48.25,83.08,48.25,82.31z M60.88,68.37H49.63c-0.76,0-1.38-0.63-1.38-1.4s0.62-1.4,1.38-1.4h11.26
		c0.76,0,1.38,0.63,1.38,1.4S61.64,68.37,60.88,68.37z M48.25,51.63c0-0.77,0.62-1.4,1.38-1.4h6.86c0.76,0,1.38,0.63,1.38,1.4
		c0,0.77-0.62,1.4-1.38,1.4h-6.86C48.87,53.04,48.25,52.41,48.25,51.63z M60.88,37.7H49.63c-0.76,0-1.38-0.63-1.38-1.4
		c0-0.77,0.62-1.4,1.38-1.4h11.26c0.76,0,1.38,0.63,1.38,1.4C62.26,37.07,61.64,37.7,60.88,37.7z"/>
	<path class="st0" d="M3.58,6.41L2.77,6.42c-0.13,0-0.29,0-0.38,0.01c-0.1,0-0.19,0.02-0.29,0.04C1.71,6.54,1.36,6.73,1.09,7
		C0.82,7.28,0.64,7.63,0.57,8C0.51,8.3,0.55,8.94,0.54,9.46c0.01,2.17,0.04,4.34,0.03,6.52c0.02,4.34-0.09,8.69-0.21,13.03
		c-0.1,4.34-0.26,8.69-0.32,13.03c-0.06,4.34-0.06,8.69,0,13.03c0.02,2.17,0.08,4.34,0.12,6.52l0.04,1.63
		c0.01,0.54,0.04,1.04,0.12,1.55c0.17,1.01,0.51,1.99,1.01,2.88c0.99,1.78,2.6,3.17,4.45,3.93c0.93,0.37,1.91,0.6,2.91,0.64
		c0.48,0.02,1.04,0,1.58-0.01l0.76-0.01l-0.16-17.11c-0.02-5.99,0.01-11.97,0.09-17.96l0.15-8.98c0.03-1.5,0.04-2.99,0.09-4.49
		l0.06-2.24l0.02-0.56l0.01-0.28l0.03-0.34c0.06-0.45,0.21-0.89,0.44-1.28c0.46-0.78,1.25-1.35,2.12-1.53
		c0.22-0.05,0.44-0.07,0.66-0.07c0.22,0,0.38,0.01,0.58,0.01l1.12,0.02l12.96-0.08c-0.15-3.98-0.3-7.23-0.47-11.21
		C20.35,6.38,11.96,6.26,3.58,6.41z"/>
</g>
</svg>
