<?xml version="1.0" encoding="utf-8"?>
<!-- Generator: Adobe Illustrator 18.1.0, SVG Export Plug-In . SVG Version: 6.00 Build 0)  -->
<svg version="1.1" baseProfile="tiny" id="Layer_1" xmlns="http://www.w3.org/2000/svg" xmlns:xlink="http://www.w3.org/1999/xlink"
	 x="0px" y="0px" viewBox="0 0 128 128" 
width="128" height="128"
xml:space="preserve">
<g>
	<path fill="#2D2D2D" d="M55.5,98.3l-1.6-13.5c-0.9-3.4-3.6-6.1-7-7.1l-16.6-4.8c-0.5-0.1-1,0-1.3,0.3L5.4,96
		c-0.4,0.4-0.5,1.1-0.2,1.6l23.4,30.2c0.4,0.7,1.5,0.8,2.1,0.3l24.5-28.7C55.4,99.1,55.5,98.7,55.5,98.3z M38.5,111.9l-4.3,4.8
		c-0.8,0.8-1.9,1.2-3,1.2c-1.1,0-2.2-0.4-3-1.2l-0.1-0.1L15.6,99.7c-0.7-0.8-1.2-1.8-1.1-2.9c0-1.1,0.5-2.1,1.2-2.9l9.5-9.3
		c0.8-0.8,1.8-1.2,2.9-1.2c1.4,0,2.6,0.7,3.4,1.7l0.1,0.2l7.5,20.6C39.8,107.8,40.3,109.8,38.5,111.9z"/>
	<path fill="#2D2D2D" d="M117.8,13.7l5.2-1.5L111.2,0.4L36.7,72.6l10.7,3.1c4.2,1.2,7.4,4.5,8.5,8.6l0,0.1l1.6,13.6
		c0.1,1-0.2,1.9-0.8,2.6l-2.1,2.5l4.7,2.1l1.3-9.5l5.1-2.2l0.9-6.5l5.2-2l0.7-6.6l6-2.8l0.7-6.7l6.4-2.2l-0.6-6.5l7-1.7l-0.3-8
		l6.5-1.6l-0.3-7.9l7.3-3l0.4-6.8l6.4-2.5l-0.1-6l6.1-1.7L117.8,13.7z M110.5,18.1c-1.1,1.1-3.1,1.1-4.2,0c-0.6-0.6-0.9-1.3-0.9-2.1
		c0-0.8,0.3-1.5,0.9-2.1c0.6-0.5,1.3-0.8,2.1-0.8c0.8,0,1.6,0.3,2.1,0.9c0.6,0.6,0.9,1.3,0.9,2.1C111.4,16.8,111.1,17.6,110.5,18.1z
		"/>
</g>
</svg>
