<?xml version="1.0" encoding="utf-8"?>
<!-- Generator: Adobe Illustrator 24.1.2, SVG Export Plug-In . SVG Version: 6.00 Build 0)  -->
<svg version="1.1" id="Layer_1" xmlns="http://www.w3.org/2000/svg" xmlns:xlink="http://www.w3.org/1999/xlink" x="0px" y="0px"
	 viewBox="0 0 128 128" style="enable-background:new 0 0 128 128;" xml:space="preserve">
<style type="text/css">
	.st0{fill:#2D2D2D;}
</style>
<g>
	<path class="st0" d="M113.47,8.17c0.17-0.05,0.34-0.11,0.52-0.16c0.2-0.05,0.4-0.08,0.59-0.1c0.38-0.04,0.75-0.04,1.11-0.03
		c0.72,0.04,1.42,0.1,2.12,0.17c0.51,0.05,1.01,0.11,1.52,0.17c0.01-0.26,0.06-0.51,0.15-0.72c0.21-0.52,0.56-0.91,0.94-1.23
		c0.18-0.14,0.37-0.26,0.57-0.36c-0.12,0-0.23,0-0.35,0c-0.78-0.01-1.56-0.07-2.38-0.2c-0.84-0.15-1.59-0.41-2.33-0.71
		c-0.68-0.28-1.35-0.61-1.98-0.99l-3.61-1.31c-0.61-0.21-1.22-0.43-1.84-0.62c-0.29-0.08-0.58-0.17-0.87-0.25
		c-0.77,0.12-1.46,0.28-2.14,0.52c-0.49,0.15-1,0.3-1.5,0.5c-0.25,0.1-0.51,0.2-0.79,0.28l-0.41,0.13
		c-0.11,0.05-0.25,0.08-0.36,0.14c-0.46,0.23-0.78,0.71-0.78,1.24c-0.01,0.53,0.19,1.07,0.08,1.68c-0.04,0.3-0.16,0.64-0.32,0.93
		c-0.16,0.29-0.36,0.54-0.59,0.76c-0.3,0.29-0.65,0.52-1.01,0.68c0.06-0.01,0.11-0.02,0.17-0.02c0.37-0.03,0.73,0.01,1.09,0.08
		c0.36,0.08,0.72,0.22,1.04,0.41c0.16,0.1,0.32,0.21,0.47,0.34c0.12,0.11,0.22,0.21,0.34,0.33c0.22,0.23,0.45,0.47,0.68,0.78
		c0.11,0.15,0.23,0.33,0.28,0.55c0.06,0.22,0.02,0.46-0.06,0.63c-0.16,0.35-0.41,0.6-0.59,0.86c-0.2,0.26-0.35,0.55-0.53,0.84
		c-0.19,0.28-0.41,0.65-0.91,0.84c-0.51,0.18-1.02,0.03-1.35-0.1c-0.29-0.1-0.55-0.16-0.91-0.26c-0.12-0.03-0.25-0.09-0.39-0.16
		c0.22,0.87,0.57,1.62,1,2.29c0.23,0.35,0.48,0.68,0.75,0.96c0.24,0.28,0.86,0.78,0.84,1.64c-0.03,0.41-0.21,0.71-0.35,0.92
		c-0.15,0.22-0.29,0.38-0.42,0.54c-0.05,0.09-0.14,0.14-0.22,0.21c-0.08,0.07-0.13,0.16-0.13,0.25c0,0.09,0.04,0.19,0.12,0.26
		c0.07,0.07,0.17,0.11,0.27,0.24c0.02,0.01,0.03,0.02,0.03,0.04c0.02,0.02,0.03,0.04,0.05,0.07c0.06,0.11,0.08,0.29,0.05,0.43
		c-0.03,0.14-0.1,0.27-0.16,0.34c-0.08,0.09-0.13,0.13-0.17,0.17l-0.14,0.11c-0.18,0.14-0.37,0.27-0.54,0.39
		c-0.11,0.37-0.21,0.74-0.29,1.12c-0.21,0.97-0.36,1.95-0.47,2.93c-0.25,1.97-0.37,3.95-0.39,5.92c-0.02,1.98,0.18,3.94,0.35,5.87
		c0.09,0.96,0.23,1.92,0.48,2.84c0.13,0.45,0.28,0.91,0.51,1.32c0.02,0.04,0.05,0.08,0.07,0.12c0.64,0.43,1.3,0.78,1.97,1.01
		c0.62,0.21,1.26,0.25,1.92,0.12c0.59-0.12,1.18-0.4,1.76-0.74c-0.61-1.41-1.05-2.9-1.38-4.4c-0.52-2.38-0.55-4.81-0.53-7.22
		c0.03-2.41,0.26-4.81,0.65-7.18c0.25-1.36,0.54-2.72,0.95-4.05c-0.04-0.41,0.05-0.83,0.15-1.23c0.14-0.49,0.34-0.96,0.56-1.42
		c0.22-0.45,0.46-0.89,0.71-1.32l0.74-1.22l0.09-0.15l0.18-0.1c0.58-0.33,1.16-0.65,1.76-0.95l1.81-0.86
		c0.61-0.28,1.21-0.56,1.83-0.82l1.87-0.74l0.07-0.03l0.01,0c0.46-0.07,0.93-0.17,1.38-0.3c0.46-0.12,0.91-0.27,1.35-0.45
		c0.67-0.26,1.32-0.58,1.98-0.87c-0.28-0.16-0.51-0.41-0.65-0.71c-0.02-0.03-0.02-0.06-0.03-0.09c-0.58-0.01-1.15-0.03-1.73-0.03
		c-0.69,0-1.38,0.01-2.04,0.07c-0.33,0.03-0.66,0.05-0.97,0.09c-0.16,0.01-0.3,0.04-0.44,0.06c-0.15,0.03-0.32,0.06-0.48,0.1
		c-1.32,0.28-2.68,0.61-4.1,0.75c-0.04,0-0.07-0.02-0.07-0.06c0-0.02,0.01-0.05,0.03-0.06C110.86,9.23,112.13,8.64,113.47,8.17z
		 M116.67,6c0.66,0.04,1.18,0.25,1.16,0.47c-0.01,0.22-0.56,0.36-1.22,0.31c-0.66-0.04-1.18-0.25-1.17-0.47S116.01,5.96,116.67,6z
		 M107.79,7.24c-0.7,0.54-2.01,1.49-2.73,1.49c-1,0-1.81-0.79-1.81-1.77s0.81-1.77,1.81-1.77c0.71,0,2.01,0.84,2.71,1.34
		C108.02,6.7,108.03,7.06,107.79,7.24z"/>
	<path class="st0" d="M79.69,122.41c-0.85-0.4-1.69-0.78-2.53-1.24c-0.85-0.52-1.49-1.3-1.99-2.12c-0.51-0.82-0.81-1.73-1.09-2.62
		c-0.26-0.9-0.48-1.81-0.57-2.73c-0.18-1.67-0.21-3.37,0.12-5.03c-0.59,0.43-1.17,0.86-1.75,1.29c-0.34,0.25-0.68,0.5-1.01,0.75
		c0.14,0.56,0.27,1.13,0.39,1.69c0.19,0.94,0.35,1.88,0.49,2.83c0.12,0.95,0.25,1.9,0.3,2.85c0.04,0.97,0.06,1.91-0.1,2.94
		l-0.05,0.3l-0.27,0.03c-0.74,0.08-1.46,0.05-2.17,0.07c-0.71,0.01-1.42,0.01-2.09,0.14c-0.16,0.04-0.33,0.08-0.45,0.14
		c-0.13,0.07-0.16,0.12-0.2,0.27c-0.07,0.28-0.06,0.63-0.03,0.96c0.02,0.24,0.05,0.48,0.09,0.73c-1-0.49-0.65-1.12-0.65-1.12
		s-3.37,0.85-2.79,2.56c0.8-0.59,2.59-1.79,3.45-1.44c0.04,0.22,0.08,0.44,0.12,0.66c0.64-0.37,1.32-0.65,2.08-0.8
		c0.48-0.09,0.99-0.12,1.51-0.05c0.25,0.02,0.53,0.11,0.76,0.17l0.63,0.18c0.85,0.24,1.69,0.49,2.53,0.76
		c0.8,0.25,1.58,0.53,2.37,0.8c0.39-0.05,0.78-0.11,1.17-0.16c-0.99-0.72-1.97-1.46-2.92-2.24c-0.03-0.02-0.03-0.06-0.01-0.09
		c0.02-0.02,0.05-0.03,0.08-0.02c1.53,0.7,3.02,1.46,4.48,2.26l0.46,0.25c0.92,0.07,1.83,0.2,2.73,0.34
		c0.42-0.54,0.85-1.07,1.3-1.59C82.55,123.74,81.1,123.1,79.69,122.41z"/>
	<path class="st0" d="M53.21,102.62c-0.54,0.03-1.15,0.04-1.84-0.31c-0.26-0.14-0.53-0.36-0.72-0.63c-0.09,0.04-0.19,0.09-0.29,0.13
		c-0.01,0-0.01,0.01-0.02,0.01c-0.85,0.4-1.74,0.79-2.68,1.11c-0.36,0.12-0.72,0.23-1.11,0.32c-0.4,0.08-0.81,0.16-1.33,0.13
		c-0.26-0.02-0.57-0.07-0.9-0.24c-0.25-0.12-0.5-0.34-0.67-0.6c-0.23,0.14-0.46,0.27-0.7,0.4c-0.71,0.39-1.46,0.77-2.31,1.05
		c-0.84,0.28-1.84,0.43-2.86,0.22c-0.79-0.16-1.49-0.57-2.04-1.06c-0.12,0.04-0.24,0.07-0.36,0.11c-1.73,2.26-3.6,4.39-5.55,6.45
		c1.17-0.3,2.32-0.63,3.43-1.02c0.88-0.32,1.74-0.68,2.54-1.1c0.8-0.42,1.52-0.94,2.04-1.53l0.26-0.3l0.48,0.03
		c1.26,0.09,2.53,0.08,3.79-0.02c1.27-0.09,2.53-0.28,3.8-0.51c1.27-0.23,2.53-0.52,3.8-0.84c1.15-0.3,2.3-0.61,3.48-0.95
		c0.1-0.32,0.21-0.64,0.33-0.95C53.61,102.57,53.42,102.6,53.21,102.62z"/>
	<path class="st0" d="M32.72,88.47c-0.35-0.21-0.66-0.56-0.8-0.97c-0.04-0.09-0.06-0.19-0.08-0.28c-0.05,0.02-0.1,0.04-0.14,0.06
		c-0.4,1.4-1.04,2.73-1.78,3.98c-0.87,1.47-2.04,2.73-3.13,4.02c-1.11,1.28-2.25,2.52-3.37,3.78c-0.76,0.82-1.45,1.7-2.07,2.63
		l-0.25,1.36c-0.06,0.35-0.02,0.66,0.11,0.79c0.11,0.14,0.37,0.24,0.72,0.26c0.69,0.04,1.5-0.15,2.25-0.4
		c0.76-0.26,1.51-0.58,2.22-0.96c0.39-0.21,0.77-0.45,1.12-0.7c0.29-0.32,0.59-0.64,0.88-0.96c0.23-0.26,0.46-0.53,0.69-0.79
		c0.28-0.43,0.57-0.86,0.88-1.27c0.99-1.33,1.93-2.69,2.83-4.07c0.9-1.38,1.66-2.84,2.57-4.21c0.5-0.76,0.99-1.52,1.5-2.27
		c-0.63,0.26-1.29,0.43-1.98,0.47C34.18,88.95,33.42,88.9,32.72,88.47z"/>
	<path class="st0" d="M90.41,122.66c-0.04,0.01-0.07,0.01-0.11,0.02c-0.17,0.03-0.34,0.08-0.5,0.13c-0.17,0.05-0.41,0.12-0.61,0.15
		c-0.83,0.14-1.63,0.05-2.39-0.09c-1.47-0.32-2.83-0.87-4.13-1.55c-0.41,0.14-0.83,0.26-1.25,0.37c-0.25,0.06-0.49,0.13-0.74,0.18
		c-0.23,0.05-0.46,0.09-0.71,0.09c1.74,0.52,3.55,0.82,5.27,1.3l0.93,0.26l-0.23,0.24c0.38,0.07,0.77,0.14,1.15,0.21
		c0.61,0.12,1.21,0.25,1.81,0.39l0.23,0.05l0.11,0.02c0.02,0,0.02,0,0.03-0.01c0.03-0.02,0.04-0.05,0.04-0.07
		c0-0.02-0.01-0.03-0.01-0.04c0.03-0.08,0.11-0.26,0.17-0.38C89.73,123.48,90.01,123.05,90.41,122.66z"/>
	<path class="st0" d="M6.41,125.49c0.02,0.08,0.06,0.04,0-0.01C6.41,125.48,6.41,125.49,6.41,125.49z"/>
	<path class="st0" d="M100.09,122.88c-0.53-0.04-1.04-0.1-1.56-0.18c-0.63-0.09-1.26-0.23-1.88-0.38c-0.62-0.17-1.23-0.35-1.83-0.59
		c-0.54-0.24-1.08-0.5-1.56-0.83c-0.1,0.01-0.21,0.02-0.31,0.02c-1.03,0.03-2.04-0.16-3-0.45c-0.96-0.31-1.9-0.69-2.72-1.3
		c-0.2-0.15-0.4-0.32-0.59-0.49c-0.18-0.16-0.39-0.41-0.51-0.63c-0.25-0.45-0.41-0.91-0.56-1.36c-0.3-0.91-0.59-1.8-0.92-2.7
		c-0.33-0.89-0.65-1.8-0.82-2.73c-0.29-1.66-0.45-3.35-0.35-5.05c-0.5-0.41-0.99-0.81-1.51-1.18c-0.28-0.21-0.58-0.41-0.87-0.61
		l-0.45-0.31c-0.07-0.05-0.16-0.12-0.23-0.16c-0.04-0.02-0.08-0.03-0.1-0.02c-0.02,0.01-0.17,0.14-0.34,0.38
		c-0.16,0.23-0.31,0.51-0.46,0.8c-0.11,0.2-0.22,0.41-0.33,0.61c0.74,2.77,1.38,5.55,1.96,8.36c0.14,0.72,0.32,1.44,0.42,2.18
		c0.05,0.38,0.09,0.74,0.08,1.17c0,0.11-0.01,0.22-0.04,0.38c-0.05,0.24-0.11,0.32-0.18,0.44c-0.13,0.21-0.27,0.38-0.41,0.54
		c-0.57,0.61-1.23,1.05-1.95,1.39c-0.6,0.28-1.26,0.47-1.93,0.47c0.08,0.07,0.14,0.15,0.23,0.21c0.74,0.46,1.6,0.81,2.46,1.09
		c0-0.01-0.01-0.01-0.01-0.02c0-0.03,0.02-0.05,0.04-0.06l0.02-0.01c0.21-0.07,0.44-0.21,0.66-0.32l0.66-0.35
		c0.44-0.23,0.88-0.47,1.33-0.69l0.14-0.07l0.21,0.07c1.38,0.48,2.79,0.94,4.18,1.28c0.69,0.18,1.39,0.35,2.05,0.38
		c0.17,0,0.3-0.01,0.5-0.03c0.21-0.03,0.41-0.06,0.61-0.05c0.4-0.01,0.79,0.03,1.17,0.07c1.53,0.2,2.94,0.63,4.47,0.94
		c1.33,0.45,2.58,0.98,3.81,1.57c0.37-0.27,0.74-0.54,1.11-0.81C100.55,123.52,100.32,123.2,100.09,122.88z"/>
	<path class="st0" d="M32.39,103.95c-0.7,0.09-1.43,0.15-2.25,0.02c-0.41-0.07-0.86-0.2-1.28-0.51c-0.09-0.06-0.17-0.14-0.25-0.22
		c-0.49,0.33-0.98,0.6-1.49,0.85c-0.21,0.1-0.43,0.18-0.64,0.27c-0.89,1.04-1.8,2.07-2.74,3.09c-1.79,1.93-3.59,3.89-5.64,5.58
		c-1.07,0.89-2.18,1.74-3.33,2.53c-0.72,1.28-1.64,2.35-2.61,3.36c-0.49,0.51-1,0.98-1.56,1.42c-0.56,0.43-1.14,0.84-1.72,1.24
		c-0.53,0.4-1.12,0.72-1.72,1.04c-0.25,0.62-0.48,1.23-0.65,1.83c-0.1,0.34-0.15,0.73-0.11,0.95c0.06-0.02,0.16-0.03,0.26-0.07
		c0.34-0.12,0.73-0.3,1.11-0.47c0.38-0.19,0.77-0.38,1.17-0.56c0.8-0.36,1.68-0.62,2.53-0.94c0.85-0.32,1.65-0.75,2.37-1.28
		c0.74-0.52,1.34-1.16,2.02-1.75c1.32-1.2,2.59-2.46,3.9-3.67c2.6-2.45,5.14-4.98,7.83-7.35c2.2-1.95,4.42-3.89,6.73-5.75
		C33.7,103.72,33.06,103.86,32.39,103.95z"/>
	<path class="st0" d="M54.95,87.61c-0.43-0.04-0.87-0.14-1.28-0.38c-0.25-0.14-0.46-0.34-0.63-0.57c-0.3,1.3-0.75,2.55-1.27,3.77
		c-0.6,1.42-1.49,2.7-2.34,3.99c-0.86,1.29-1.81,2.52-2.83,3.68c-0.2,0.22-0.39,0.46-0.59,0.69l0.19-0.11l-0.73,2.45
		c-0.03,0.1-0.04,0.21-0.05,0.28c0.38,0.03,1.04-0.11,1.63-0.3c1.25-0.39,2.49-0.96,3.78-1.53l0.7-0.31
		c0.41-0.68,0.86-1.34,1.33-1.98c1.02-1.36,2.01-2.73,2.91-4.16c0.9-1.42,1.65-2.92,2.51-4.35c0.55-0.92,1.08-1.86,1.62-2.8
		c-0.75,0.56-1.58,0.99-2.46,1.29C56.65,87.54,55.81,87.69,54.95,87.61z"/>
	<path class="st0" d="M46.54,88.74c-0.66-0.16-1.32-0.58-1.67-1.2c-0.31,1.4-0.84,2.73-1.47,4c-0.7,1.41-1.7,2.64-2.63,3.89
		c-0.95,1.24-1.95,2.44-2.99,3.6c-0.54,0.6-1.05,1.24-1.52,1.91l0.08-0.03l0.45,0.49c0.43,0.46,0.9,0.76,1.43,0.86
		c0.53,0.1,1.14,0.01,1.78-0.2c1.29-0.42,2.59-1.25,3.94-2.04L45,99.4c0.34-0.57,0.7-1.13,1.09-1.68c0.91-1.22,1.72-2.49,2.45-3.81
		c0.74-1.32,1.31-2.72,2.07-4.03c0.51-0.9,1.03-1.79,1.61-2.67c-0.95,0.68-2.02,1.22-3.17,1.49C48.23,88.89,47.38,88.94,46.54,88.74
		z"/>
	<path class="st0" d="M39.29,88.68c-0.36-0.11-0.73-0.28-1.04-0.58c-0.09-0.09-0.17-0.19-0.25-0.3c-0.02,0.01-0.03,0.02-0.05,0.04
		c-0.37,1.22-0.89,2.39-1.48,3.52c-0.77,1.49-1.83,2.81-2.84,4.15c-1.02,1.33-2.08,2.63-3.18,3.89c-0.01,0.01-0.01,0.02-0.02,0.02
		c-0.36,0.47-0.71,0.95-1.07,1.42l0.32,0.96c0.05,0.15,0.11,0.21,0.21,0.28c0.11,0.07,0.3,0.13,0.54,0.16
		c0.48,0.06,1.07,0.01,1.66-0.1c1.19-0.22,2.4-0.6,3.63-1.02l0.03-0.01c0.46-0.84,0.98-1.66,1.54-2.45c0.92-1.25,1.81-2.5,2.63-3.8
		c0.84-1.29,1.5-2.67,2.33-3.95c0.7-1.11,1.41-2.22,2.21-3.32c-0.92,0.58-1.96,0.97-3.06,1.15C40.73,88.85,40.02,88.88,39.29,88.68z
		"/>
	<path class="st0" d="M56.66,93.72c-1.03,1.38-2.13,2.71-3.25,4c-0.43,0.47-0.83,0.96-1.22,1.45l-0.03,1.25
		c0,0.12,0.01,0.2,0.03,0.24c0.01,0.03,0.02,0.05,0.09,0.09c0.13,0.08,0.47,0.14,0.84,0.12c0.74-0.04,1.57-0.28,2.35-0.59
		c1.56-0.63,3.08-1.61,4.04-2.87l1.86-2.43c0.04-0.09,0.08-0.18,0.12-0.26c0.26-0.55,0.52-1.09,0.76-1.64
		c0.24-0.55,0.46-1.1,0.67-1.66c0.19-0.57,0.4-1.12,0.66-1.67c0.38-0.78,0.77-1.55,1.25-2.3c-0.43-0.07-0.85-0.18-1.27-0.32
		c-0.67-0.24-1.31-0.58-1.88-1.04c-0.32-0.26-0.6-0.58-0.84-0.93c-0.01,0.01-0.01,0.01-0.02,0.02c-0.29,1.44-0.78,2.83-1.39,4.16
		c-0.36,0.79-0.79,1.54-1.26,2.26C57.68,92.33,57.17,93.03,56.66,93.72z"/>
	<path class="st0" d="M98.35,121.51c-0.4-0.27-0.8-0.53-1.21-0.77c-0.25-0.15-0.5-0.3-0.75-0.42c-0.12-0.06-0.25-0.12-0.36-0.15
		c-0.03-0.02-0.07-0.02-0.11-0.03c-0.67,0.41-1.42,0.62-2.17,0.71c1.01,0.28,2.04,0.42,3.07,0.53
		C97.33,121.45,97.84,121.48,98.35,121.51z"/>
	<path class="st0" d="M13.91,103.68c0.12,0.07,0.25,0.12,0.38,0.17c0.37,0.13,0.73,0.17,1.24,0.17c0.17,0,0.35-0.01,0.52-0.03
		c0.76-0.07,1.52-0.25,2.25-0.48c0.36-0.12,0.72-0.25,1.06-0.41c0.33-0.15,0.67-0.35,0.84-0.53l0.67-0.71
		c0.57-1.13,1.26-2.2,2.02-3.21c1.02-1.34,2.06-2.66,3.06-4.01c1-1.34,1.87-2.76,2.86-4.08l2.22-3.06
		c-0.44,0.14-0.89,0.23-1.37,0.25c-0.54,0.02-1.1-0.07-1.61-0.3c-0.51-0.23-0.93-0.6-1.24-1.01c-0.63-0.84-0.91-1.81-1.05-2.76
		c-0.03-0.22-0.05-0.43-0.07-0.65c-1.05,1.76-2.11,3.5-3.19,5.24c-1.44,2.31-2.9,4.6-4.4,6.88c-0.3,0.45-0.6,0.9-0.9,1.35
		c-2.74,3.72-3.53,4.99-3.68,5.19c0,0.02,0.01,0.03,0,0.05c-0.11,0.36-0.18,0.75-0.13,1.1C13.44,103.19,13.63,103.49,13.91,103.68z"
		/>
	<path class="st0" d="M4.7,113.7c0.97-1.44,2.1-2.77,3.26-4.05c1.71-1.88,3.67-3.51,5.59-5.16c0.11-0.1,0.23-0.19,0.34-0.29
		c-0.09-0.05-0.17-0.1-0.25-0.16c-0.37-0.27-0.58-0.74-0.58-1.16c-0.01-0.35,0.08-0.68,0.2-0.99c0,0,0,0,0,0
		c-0.03-0.02-0.03-0.05-0.03-0.08c-0.57,0.54-1.15,1.06-1.75,1.56c-1.49,1.27-3.11,2.43-4.53,3.78c-0.72,0.67-1.37,1.4-1.97,2.16
		c-0.59,0.76-1.15,1.58-1.48,2.42l-0.03,0.06c-0.27,0.52-0.5,1.1-0.7,1.68c-0.2,0.58-0.37,1.17-0.52,1.74
		c-0.06,0.25-0.11,0.49-0.15,0.73c0.01-0.01,0.01-0.01,0.02-0.02L4.7,113.7z"/>
	<path class="st0" d="M86.87,96.75c-0.07-0.34-0.33-0.64-0.73-0.71c-0.81-0.18-1.72,0.23-2.46,0.71c-0.76,0.5-1.5,1.02-2.27,1.51
		c-0.76,0.51-1.51,1.03-2.29,1.51c-0.72,0.41-1.44,0.81-2.2,1.18c0.08,0.28,0.16,0.56,0.23,0.83c0.13,0.51,0.27,1.02,0.4,1.52
		c0.12,0.44,0.24,0.87,0.37,1.29c0.1-0.13,0.21-0.26,0.33-0.39c0.26-0.28,0.53-0.55,0.88-0.8c0.18-0.12,0.37-0.24,0.62-0.33
		c0.24-0.09,0.61-0.13,0.91,0.02c0.15,0.07,0.25,0.17,0.34,0.26l0.16,0.19c0.11,0.12,0.23,0.24,0.36,0.36
		c0.25,0.23,0.53,0.44,0.81,0.64c0.47,0.33,0.97,0.61,1.49,0.86c0.37-0.36,0.73-0.73,1.08-1.11c0.42-0.43,0.84-0.85,1.26-1.27
		c0.84-0.84,1.62-1.72,2.39-2.57c0.77-0.86,1.54-1.71,2.17-2.63c0.5-0.74,0.93-1.52,1.14-2.42c-1.22,1.09-2.5,2.11-3.84,3.06
		l-1.45,1.03l0.25-1.6C86.89,97.49,86.95,97.1,86.87,96.75z"/>
	<path class="st0" d="M9.25,118.8c0.52-0.46,1.08-0.88,1.66-1.28c0.49-0.33,0.99-0.66,1.5-0.97c1.62-1.49,3.23-2.96,4.82-4.46
		c1.89-1.8,3.89-3.49,5.76-5.34c0.59-0.58,1.16-1.18,1.74-1.77c-0.05,0.01-0.09,0.03-0.14,0.04c-0.88,0.21-1.79,0.39-2.81,0.26
		c-0.49-0.07-1.13-0.26-1.51-0.83c-0.13-0.2-0.2-0.41-0.24-0.61c-0.09,0.04-0.18,0.07-0.26,0.11c-0.4,0.15-0.79,0.27-1.2,0.37
		c-0.81,0.19-1.63,0.3-2.46,0.31c-0.37-0.01-0.75-0.02-1.13-0.09c-0.24,0.22-0.48,0.44-0.71,0.66c-1.83,1.73-3.54,3.57-5.35,5.3
		c-1.26,1.21-2.51,2.42-3.74,3.66l-1.61,2.91c-0.23,0.41-0.41,0.68-0.62,1l-0.59,0.92l-1.15,1.81c-0.37,0.6-0.73,1.2-1.02,1.79
		c-0.06,0.12-0.11,0.24-0.16,0.36c0.13-0.06,0.26-0.13,0.39-0.2c0.55-0.3,1.12-0.61,1.67-0.96c1.11-0.67,2.21-1.4,3.33-2.12
		c0.05-0.03,0.11-0.02,0.14,0.03c0.02,0.03,0.02,0.08,0,0.11c-0.76,0.97-1.61,1.85-2.51,2.7c-0.24,0.46-0.47,0.89-0.67,1.31
		c-0.14,0.29-0.25,0.57-0.31,0.81c0.32-0.09,0.66-0.21,0.98-0.34c0.66-0.26,1.26-0.62,1.79-1.07c1.08-0.89,1.87-2.12,2.92-3.03
		C8.23,119.75,8.73,119.26,9.25,118.8z"/>
	<path class="st0" d="M93.04,27.6c0.41,0.22,0.68,0.69,0.74,1.06c0.13,0.75-0.05,1.3-0.2,1.84c-0.1,0.3-0.21,0.58-0.33,0.86
		c0.21,0.16,0.42,0.33,0.61,0.53c0.33,0.36,0.62,0.83,0.79,1.38c0.14,0.48,0.11,1-0.04,1.43c0.13,0.49,0.31,0.96,0.51,1.43
		c0.3,0.67,0.65,1.32,1.04,1.95c0.75,1.27,1.65,2.45,2.67,3.48c0.01,0.01,0.03,0.02,0.04,0.04c-0.44-0.93-0.69-1.92-0.88-2.9
		c-0.37-2.03-0.23-4.07-0.1-6.08c0.14-2.01,0.4-4.01,0.78-5.98c0.2-0.99,0.44-1.97,0.74-2.93c0.02-0.05,0.03-0.1,0.05-0.15
		c-0.13-0.03-0.26-0.08-0.36-0.21c-0.11-0.15-0.15-0.37-0.12-0.54c0.05-0.35,0.22-0.59,0.37-0.81c0.16-0.21,0.34-0.4,0.52-0.56
		l0.13-0.12c0.05-0.04,0.09-0.08,0.09-0.07c0.03-0.03,0.03,0.13,0.12,0.14c0.08-0.01,0.09-0.17,0.07-0.29
		c-0.02-0.13-0.06-0.26-0.1-0.4c-0.04-0.14-0.07-0.29-0.1-0.45c-0.03-0.16-0.03-0.33,0.02-0.45c0.17-0.51,0.44-0.97,0.37-1.09
		c-0.02-0.06-0.06-0.13-0.16-0.26c-0.12-0.13-0.23-0.21-0.45-0.43c-0.39-0.4-0.66-0.87-0.86-1.36c-0.19-0.49-0.31-1-0.32-1.51
		c-0.02-0.49,0.05-0.99,0.25-1.43c-0.01-0.01-0.03-0.01-0.04-0.02c-0.23-0.16-0.41-0.39-0.51-0.6c-0.21-0.42-0.26-0.79-0.3-1.12
		c-0.04-0.34-0.06-0.69-0.04-1.04c0.02-0.35,0.06-0.7,0.17-1.06c0.03-0.09,0.06-0.18,0.11-0.27c0.04-0.09,0.13-0.21,0.19-0.26
		c0.14-0.13,0.28-0.24,0.41-0.34C99,8.95,99.09,8.9,99.17,8.86c0-0.01,0-0.02,0-0.02c0.35-0.54,0.69-0.92,0.94-1.37
		c0.12-0.22,0.23-0.44,0.31-0.66c0.08-0.22,0.11-0.42,0.15-0.67c0.07-0.48,0.29-1.07,0.54-1.62c0.13-0.28,0.25-0.55,0.4-0.81
		c0.16-0.26,0.33-0.51,0.55-0.74c0.1-0.12,0.22-0.22,0.34-0.34l0.33-0.29c0.22-0.19,0.46-0.36,0.71-0.52
		c0.51-0.3,1.04-0.61,1.64-0.78c0.03-0.01,0.07-0.01,0.1-0.02c-0.98-0.43-1.9-0.85-2.94-0.96c-1.49-0.18-3.13,0.05-4.5,0.74
		c-1.39,0.69-2.42,1.9-3.03,3.24c-0.61,1.35-0.92,2.82-1.04,4.31c-0.11,1.49-0.03,3,0.08,4.51c0.12,1.49,0.36,3.07,0.45,4.63
		c0.1,1.56,0.14,3.13,0.05,4.69c-0.04,0.78-0.11,1.57-0.27,2.35c-0.08,0.39-0.18,0.78-0.32,1.15c-0.13,0.35-0.32,0.71-0.62,0.97
		c0,0,0.01,0.01,0.01,0.01c0.02,0.04-0.01,0.09-0.05,0.11c-0.43,0.21-0.85,0.4-1.26,0.59c0.06,0,0.12-0.01,0.19-0.02
		C92.27,27.35,92.64,27.38,93.04,27.6z"/>
	<path class="st0" d="M109.44,54.95c-0.29-0.47-0.6-0.92-0.96-1.3c-0.22-0.25-0.47-0.45-0.73-0.6c-0.01,0.8-0.01,1.6-0.05,2.41
		c-0.05,1.01-0.2,2.04-0.49,3.02c-0.29,0.98-0.66,1.93-1.03,2.87c-0.38,0.94-0.78,1.86-1.18,2.78l-0.84,1.93l-0.46-2.14
		c-0.39-1.84-0.6-3.7-0.83-5.51c-0.24-1.8-0.53-3.57-1.26-5.04c-0.35-0.74-0.82-1.4-1.4-1.98c-0.28-0.3-0.6-0.57-0.93-0.83
		l-0.51-0.37c-0.14-0.1-0.27-0.17-0.38-0.23c-0.23-0.1-0.38-0.13-0.67-0.04c-0.29,0.09-0.61,0.34-0.94,0.62
		c-0.64,0.58-1.28,1.3-2,1.95c-0.04,0.04-0.1,0.03-0.14-0.01c-0.03-0.03-0.03-0.06-0.02-0.1c0-0.01,0.01-0.03,0.01-0.04
		c0,0,0-0.01,0-0.01l0,0c0.37-1.15,0.37-2.36,0.17-3.5c-0.19-1.14-0.58-2.28-1.21-3.07c-0.31-0.4-0.72-0.62-1.06-0.65
		c-0.32-0.05-0.67,0.03-1.13,0.16c-0.45,0.14-0.95,0.39-1.47,0.68c-0.41,0.22-0.84,0.48-1.31,0.72c-0.08,0.1-0.17,0.21-0.27,0.32
		l-0.01,0.01c-0.04,0.04-0.11,0.04-0.16,0c-0.01-0.01-0.02-0.02-0.03-0.04c-0.39-0.9-0.42-1.95,0.05-2.89l0.18-0.35
		c0.06-0.11,0.17-0.21,0.25-0.31c0.19-0.19,0.36-0.4,0.59-0.53c0.23-0.14,0.46-0.27,0.69-0.39l0.72-0.28
		c0.96-0.33,1.93-0.38,2.84-0.29c0.75,0.09,1.47,0.25,2.16,0.49c-0.83-1.01-1.87-1.75-2.97-2.17c-0.61-0.22-1.22-0.39-1.87-0.45
		c-0.64-0.08-1.29-0.11-1.95-0.09l-5.76,0.15l5.32-2.11c0.86-0.34,1.76-0.58,2.54-0.87c0.39-0.15,0.77-0.27,1.15-0.45
		c0.38-0.18,0.75-0.42,1.09-0.71c0.33-0.3,0.65-0.61,0.76-0.98c0.13-0.37-0.05-0.7-0.31-0.93c-0.28-0.23-0.63-0.43-0.96-0.68
		c-0.33-0.25-0.65-0.56-0.97-0.87l-0.49-0.47l0.28-0.51c0.23-0.42,0.44-0.84,0.6-1.26c0.16-0.4,0.28-0.85,0.25-1.09
		c-0.02-0.12-0.02-0.13-0.05-0.17c-0.04-0.04-0.19-0.1-0.37-0.11c-0.38-0.03-0.86,0.06-1.32,0.17c-0.94,0.22-1.88,0.59-2.81,0.96
		c-0.18,0.07-0.36,0.15-0.53,0.23c-0.68,0.52-1.32,1.09-1.88,1.71c-0.65,0.73-1.18,1.54-1.58,2.39l-0.07,0.15l-0.14,0.11
		c-1.39,1.06-2.86,1.89-4.35,2.66c-0.74,0.38-1.49,0.75-2.24,1.12l-2.27,1.04c-3.03,1.36-6.14,2.47-9.05,4
		c-2.93,1.52-5.77,3.22-8.56,5c-2.79,1.78-5.5,3.66-8.26,5.49c-0.71,0.46-1.33,0.89-1.98,1.39c-0.65,0.48-1.29,0.98-1.92,1.5
		c-1.27,1.02-2.53,2.08-3.76,3.15c-1.24,1.07-2.47,2.15-3.7,3.24l-3.69,3.25c-1.23,1.07-2.48,2.18-3.66,3.25
		c-1.06,0.98-1.86,2.34-2.51,3.77c-0.64,1.44-1.14,2.96-1.57,4.51c-0.11,0.4-0.2,0.81-0.3,1.22c1.13-1.88,2.28-3.74,3.48-5.6
		c0.83-1.23,1.8-2.23,2.8-3.21c1-0.97,2.06-1.87,3.13-2.74c2.15-1.74,4.36-3.37,6.53-5.05c2.18-1.67,4.32-3.38,6.41-5.16
		c2.07-1.76,4.18-3.54,6.26-5.22c0.56-0.56,1.13-1.11,1.74-1.62c0.63-0.52,1.3-0.99,1.98-1.45c1.37-0.9,2.86-1.61,4.39-2.16
		c1.55-0.54,3.15-0.9,4.77-1.05c1.62-0.15,3.25-0.14,4.83,0.19c0.05,0.01,0.09,0.06,0.07,0.11c-0.01,0.04-0.05,0.07-0.09,0.08h-0.01
		c-1.57,0.02-3.14,0.24-4.65,0.57c-1.51,0.34-2.99,0.81-4.38,1.43c-1.41,0.59-2.73,1.36-3.98,2.2c-0.62,0.44-1.23,0.89-1.79,1.39
		c-0.58,0.48-1.14,1-1.67,1.53l-0.05,0.05l-0.03,0.02c-2.22,1.69-4.54,3.13-6.82,4.67c-2.28,1.53-4.49,3.16-6.59,4.9
		c-2.11,1.73-4.13,3.59-6.06,5.5c-0.96,0.96-1.91,1.93-2.81,2.92c-0.9,0.99-1.77,2-2.43,3.06l-4.07,7.02
		c-0.23,0.4-0.47,0.79-0.71,1.19c0.05,0.37,0.12,0.74,0.21,1.1c0.24,0.88,0.59,1.75,1.16,2.4c0.57,0.65,1.37,0.96,2.22,0.87
		c0.85-0.09,1.69-0.45,2.48-0.91l0.9-0.52l-0.12,1.04c-0.06,0.51,0.09,0.85,0.45,1.07c0.37,0.22,0.93,0.29,1.48,0.24
		c1.11-0.09,2.23-0.55,3.05-1.26l0.81-0.71l0.12,1.02c0.05,0.43,0.32,0.76,0.83,0.95c0.5,0.19,1.11,0.23,1.71,0.19
		c0.6-0.04,1.21-0.17,1.8-0.36c0.58-0.2,1.16-0.44,1.65-0.8l0.31-0.22l0.08,0.35c0.08,0.34,0.26,0.65,0.53,0.89
		c0.27,0.24,0.61,0.4,0.98,0.51c0.74,0.2,1.54,0.14,2.29-0.04c1.53-0.38,2.85-1.33,3.91-2.46l0.34-0.36l0.21,0.47
		c0.25,0.58,0.91,0.83,1.6,0.83c0.7,0.01,1.41-0.18,2.09-0.44c1.35-0.53,2.57-1.45,3.37-2.58l0.67-0.95l0.4,1.1
		c0.35,0.95,1.36,1.65,2.45,1.99c1.11,0.34,2.32,0.4,3.49,0.21c1.17-0.19,2.33-0.59,3.39-1.18c1.06-0.58,2.04-1.32,2.93-2.16
		c1.2-1.38,2.33-2.83,3.4-4.32c0.54-0.75,1.03-1.53,1.53-2.31c0.49-0.78,0.96-1.59,1.39-2.4c0.02-0.03,0.05-0.05,0.09-0.03
		c0.03,0.01,0.04,0.05,0.03,0.08c-0.3,0.89-0.68,1.74-1.08,2.58c-0.4,0.85-0.85,1.67-1.32,2.48c-0.48,0.81-0.96,1.62-1.5,2.39
		c-0.53,0.78-1.09,1.54-1.67,2.28l-0.01,0.01l-0.03,0.03c-0.92,0.94-1.94,1.83-3.11,2.49c-1.17,0.68-2.46,1.2-3.83,1.4
		c-0.73,0.11-1.48,0.15-2.23,0.08c-0.12,0.93-0.36,1.83-0.67,2.7c-0.2,0.58-0.48,1.12-0.79,1.66l-0.91,1.6
		c-0.31,0.53-0.64,1.05-0.95,1.56c-0.16,0.26-0.3,0.5-0.44,0.77c-0.13,0.26-0.28,0.51-0.42,0.76l-0.51,1.42
		c-0.13,0.37-0.24,0.75-0.25,1.07c-0.02,0.34,0.05,0.57,0.2,0.7c0.15,0.15,0.48,0.24,0.86,0.25c0.37,0.01,0.8-0.05,1.15-0.14
		l0.15-0.04l0.1,0.02c0.99,0.2,2.1-0.04,3.14-0.44c1.04-0.4,2.03-0.97,2.97-1.62c0.94-0.64,1.83-1.36,2.68-2.12
		c0.86-0.76,1.67-1.56,2.45-2.39c1.57-1.66,3-3.45,4.33-5.3c1.32-1.85,2.57-3.76,3.69-5.72l0.02-0.04l0.08-0.09
		c1.74-1.94,3.31-4.02,4.57-6.28c1.31-2.24,2.31-4.64,3.11-7.12c0.79-2.48,1.36-5.03,1.75-7.62c0.19-1.3,0.34-2.6,0.45-3.91
		c0.11-1.32,0.13-2.61,0.22-3.98c0-0.05,0.05-0.09,0.1-0.09c0.05,0,0.08,0.04,0.09,0.08l0,0.04c0.28,2.59,0.41,5.3,0.22,7.96
		c-0.18,2.67-0.6,5.34-1.33,7.94c-0.35,1.3-0.78,2.59-1.31,3.84c-0.51,1.26-1.09,2.49-1.77,3.68c-1.33,2.36-3.02,4.54-5,6.41
		c-1.28,1.9-2.66,3.71-4.12,5.46c-1.49,1.77-3.04,3.48-4.64,5.14c-1.62,1.65-3.3,3.25-5.18,4.64c-0.95,0.69-1.94,1.34-3.03,1.84
		c-1.05,0.47-2.24,0.84-3.51,0.71c-0.45,0.14-0.88,0.23-1.36,0.25c-0.51,0.02-1.11-0.02-1.66-0.43c-0.27-0.2-0.48-0.5-0.59-0.79
		c-0.02-0.06-0.03-0.12-0.05-0.18c-0.22,0.19-0.44,0.38-0.66,0.55c-0.77,0.59-1.61,1.08-2.5,1.49c-0.62,0.28-1.26,0.51-1.96,0.67
		c-0.26,0.9-0.47,1.81-0.55,2.73c-0.1,1.1,0.03,2.19,0.3,3.24c0.11-0.15,0.22-0.32,0.34-0.49c0.27-0.4,0.56-0.81,0.88-1.2
		c0.63-0.78,1.38-1.5,2.22-2.09c0.84-0.58,1.76-1.08,2.73-1.41c0.48-0.2,0.98-0.31,1.47-0.46c0.5-0.13,1-0.21,1.5-0.32l1.15-0.25
		l-0.26,1.23c-0.14,0.69-0.06,1.42,0.19,2.14c0.25,0.72,0.63,1.41,1.08,2.07c0.45,0.66,0.98,1.28,1.53,1.85
		c0.28,0.29,0.58,0.54,0.87,0.79c0.14,0.11,0.3,0.23,0.44,0.31l0.09,0.05c0.43-0.28,0.86-0.53,1.3-0.78c0.59-0.34,1.2-0.63,1.8-0.93
		c1.04-0.49,2.1-0.95,3.19-1.34c0.01-0.11,0-0.24-0.02-0.36c-0.04-0.22-0.08-0.44-0.13-0.66c-0.1-0.45-0.21-0.9-0.3-1.36
		c-0.18-0.92-0.3-1.89-0.09-2.92c0.11-0.51,0.34-1.04,0.72-1.48c0.17-0.22,0.45-0.42,0.62-0.58c0.17-0.17,0.35-0.32,0.52-0.47
		c0.7-0.63,1.45-1.2,2.23-1.73c0.8-0.51,1.64-0.96,2.51-1.36c0.86-0.42,1.79-0.76,2.76-0.95c0.49-0.1,0.98-0.19,1.47-0.25
		c0.5-0.06,1-0.11,1.53-0.03c0.26,0.05,0.54,0.13,0.8,0.28c0.25,0.15,0.48,0.36,0.65,0.6c0.07,0.1,0.14,0.21,0.2,0.32
		c2.79-2.27,5.36-4.8,7.65-7.56c2.54-3,4.76-6.26,6.77-9.64c2-3.39,3.77-6.91,5.32-10.53c1.42-3.38,2.73-6.82,3.63-10.38
		c-0.1-0.2-0.19-0.41-0.29-0.61C110.51,56.9,110.02,55.89,109.44,54.95z"/>
	<path class="st0" d="M113.02,44.8c-0.76-0.56-1.65-1.05-2.57-1.52c-0.47-0.23-0.95-0.46-1.44-0.72c-0.25-0.13-0.5-0.26-0.76-0.42
		c-0.24-0.14-0.6-0.37-0.87-0.69c-0.27-0.32-0.47-0.73-0.53-1.13c-0.08-0.4-0.05-0.77,0.01-1.11c0.15-0.68,0.4-1.21,0.79-1.75
		l0.64-0.9l0.62,0.83c0.51,0.68,1,1.42,1.6,1.78c0.3,0.18,0.65,0.28,1.06,0.28c0.26,0,0.54-0.02,0.82-0.05
		c-0.25-0.45-0.5-0.9-0.77-1.34c-0.36-0.59-0.77-1.14-1.18-1.69c-0.43-0.54-0.87-1.07-1.32-1.59c-0.45-0.52-0.91-1.05-1.32-1.57
		l-1.36-1.71l2.28,0.46c0.27,0.05,0.62,0.1,0.93,0.13c0.32,0.03,0.64,0.04,0.94,0.02c-0.16-0.09-0.33-0.18-0.49-0.27
		c-0.37-0.22-0.73-0.47-1.09-0.7c-0.34-0.27-0.71-0.5-1.03-0.79c-0.66-0.56-1.27-1.2-1.76-1.92c-0.29-0.43-0.75-0.95-1.07-1.49
		c-0.09,1.54-0.12,3.08-0.05,4.62c0.09,2.36,0.45,4.69,0.77,7.01c0.31,2.2,0.77,4.37,1.37,6.56c0.22-0.18,0.5-0.32,0.78-0.38
		c0.39-0.09,0.79-0.11,1.17-0.09c0.77,0.04,1.5,0.2,2.22,0.36c0.72,0.17,1.41,0.36,2.1,0.51c0.13,0.03,0.26,0.06,0.39,0.08
		C113.66,45.33,113.36,45.06,113.02,44.8z"/>
	<path class="st0" d="M98.86,9.59c-0.03,0.08-0.02,0.1-0.02,0.17c0.01,0.06,0.01,0.13,0.02,0.21c0.04,0.29,0.11,0.59,0.19,0.89
		c0.08,0.3,0.17,0.59,0.26,0.88c0.1,0.3,0.19,0.57,0.29,0.73c0.05,0.08,0.08,0.11,0.12,0.14c0.04,0.03,0.13,0.08,0.26,0.14
		c0.27,0.11,0.63,0.24,0.95,0.41c0.27,0.15,0.43,0.2,0.58,0.21c0.14,0.01,0.41-0.11,0.65-0.31c0.25-0.19,0.5-0.42,0.73-0.66
		c0.24-0.24,0.46-0.47,0.54-0.73c0.15-0.5-0.62-0.63-1.18-1.01c-0.15-0.09-0.3-0.2-0.42-0.3c-0.11-0.08-0.21-0.16-0.33-0.25
		c-0.23-0.16-0.48-0.3-0.74-0.43c-0.53-0.26-1.14-0.48-1.75-0.57L98.86,9.59z"/>
	<path class="st0" d="M112.18,46.55c-0.37-0.15-0.74-0.31-1.11-0.46c-0.66-0.28-1.31-0.54-1.98-0.72c-0.59-0.15-1.23-0.25-1.77,0.03
		c0.01,0.03,0.01,0.05,0.02,0.08c1.28,1.04,2.42,2.28,3.44,3.6c0.44,0.59,0.86,1.2,1.25,1.83c-0.03-0.41-0.06-0.83-0.07-1.24
		c-0.01-0.66,0-1.31,0.06-1.98C112.06,47.32,112.11,46.93,112.18,46.55z"/>
	<path class="st0" d="M127.9,9.79c-0.19-0.62-0.59-1.2-1.06-1.76c-0.48-0.56-1.07-1.08-1.7-1.53c-0.59-0.41-1.39-0.55-2.15-0.59
		c-0.43-0.02-0.86-0.01-1.3,0c-0.15,0.37-0.31,0.7-0.47,1.01c-0.2,0.38-0.4,0.74-0.52,1.06c-0.06,0.14-0.1,0.27-0.13,0.39
		c0.46,0.05,0.93,0.11,1.39,0.15c1.15,0.12,2.29,0.37,3.35,0.8c-0.01-0.01-0.01-0.01-0.02-0.02c-0.36-0.28-0.75-0.53-1.18-0.77
		c-0.03-0.02-0.04-0.06-0.03-0.09c0.01-0.02,0.04-0.03,0.06-0.03c0.5,0.02,1,0.11,1.48,0.29c0.48,0.17,0.94,0.42,1.36,0.72
		c0.37,0.26,0.71,0.55,1.02,0.85C127.98,10.1,127.94,9.95,127.9,9.79z"/>
	<path class="st0" d="M125.73,9.66c-1.23-0.37-2.53-0.54-3.8-0.52c-0.47,0-0.94-0.01-1.41-0.02c0.02,0.19,0.06,0.38,0.15,0.59
		c0.06-0.02,0.11-0.04,0.16-0.06l0.12-0.04l0.21,0.05c0.43,0.09,0.89,0.16,1.37,0.23c0.48,0.06,0.96,0.1,1.45,0.14
		c0.77,0.07,1.55,0.13,2.35,0.22c-0.02-0.02-0.03-0.04-0.05-0.05C126.1,10,125.92,9.83,125.73,9.66z"/>
	<path class="st0" d="M112.18,54.05c-0.59-1.53-1.31-3.03-2.17-4.46c-0.85-1.44-1.82-2.79-2.93-4.09c-0.02-0.01-0.03-0.01-0.05-0.03
		c-0.03-0.04-0.02-0.08,0-0.11c0.02-0.02,0.04-0.04,0.06-0.06c-0.37-0.6-0.7-1.23-0.99-1.87c-0.39,0.55-0.91,1.03-1.57,1.34
		c-0.77,0.37-1.72,0.45-2.57,0.26c-0.85-0.19-1.6-0.61-2.23-1.12c-0.63-0.51-1.18-1.08-1.67-1.68c-1-1.2-1.81-2.5-2.47-3.86
		c-0.32-0.69-0.61-1.39-0.84-2.11c-0.12-0.39-0.23-0.79-0.31-1.19c-0.21,0.41-0.46,0.76-0.69,1.1c-0.26,0.39-0.52,0.8-0.86,1.19
		c-0.26,0.3-0.57,0.56-0.89,0.79c0.5,0.18,0.99,0.41,1.43,0.69c0.69,0.44,1.28,1,1.73,1.64c0.44,0.63,0.76,1.33,0.86,2.08
		c0.02,0.01,0.05,0.02,0.07,0.03c0.05,0.02,0.07,0.08,0.05,0.13c-0.02,0.04-0.06,0.06-0.1,0.06l-0.01,0
		c-0.86-0.06-1.73-0.04-2.54,0.1c-0.4,0.06-0.78,0.15-1.15,0.27c0.25,0.02,0.5,0.07,0.74,0.16c0.88,0.33,1.43,0.99,1.8,1.6
		c0.73,1.26,0.9,2.58,0.89,3.86c-0.02,0.37-0.05,0.75-0.1,1.12c0.03-0.05,0.05-0.1,0.09-0.16c0.27-0.43,0.61-0.87,1.15-1.23
		c0.53-0.38,1.39-0.51,2.06-0.32c0.34,0.08,0.63,0.24,0.89,0.38c0.26,0.15,0.43,0.28,0.65,0.42c0.42,0.3,0.82,0.62,1.2,0.99
		c0.74,0.74,1.36,1.62,1.8,2.55c0.86,1.9,1.04,3.86,1.19,5.71c0.09,1.13,0.15,2.25,0.22,3.36c0.13-0.22,0.25-0.43,0.38-0.65
		c0.48-0.86,0.94-1.74,1.27-2.66c0.35-0.91,0.5-1.87,0.53-2.85c0.03-0.98-0.05-1.97-0.15-2.95l-0.05-0.48l0.25,0.04
		c-0.13-0.14-0.26-0.28-0.39-0.41c-0.48-0.49-1.05-0.89-1.44-1.41c-0.21-0.25-0.4-0.51-0.6-0.76c-0.21-0.24-0.38-0.52-0.63-0.57
		l-0.08-0.02c-0.02,0-0.03-0.02-0.03-0.04c0,0,0,0,0,0c0.05-0.14,0.19-0.21,0.3-0.23c0.13-0.04,0.23-0.02,0.36-0.02
		c0.22,0.03,0.42,0.09,0.61,0.16c0.37,0.15,0.69,0.36,0.99,0.59c0.59,0.45,0.93,1.1,1.34,1.67c0.36,0.51,0.69,1.04,1.01,1.57
		c0.21,0.14,0.4,0.29,0.57,0.45c0.46,0.42,0.85,0.88,1.2,1.35c0.71,0.95,1.32,1.93,1.9,2.93c0.48,0.83,0.93,1.66,1.38,2.49
		c-0.05-0.33-0.09-0.65-0.16-0.98C113.21,57.17,112.76,55.59,112.18,54.05z"/>
	<path class="st0" d="M101.41,124.07c0,0-0.36,0.51-1.27,1.13c0.8-0.47,2.75,0.47,3.62,0.94
		C103.87,124.75,101.41,124.07,101.41,124.07z"/>
	<path class="st0" d="M90.37,123.23c0,0,0.43,0.58-0.48,1.2c0.8-0.47,2.75,0.47,3.62,0.94C93.83,123.6,90.37,123.23,90.37,123.23z"
		/>
	<path class="st0" d="M84.03,124.54c0,0,0.43,0.58-0.48,1.2c0.8-0.47,2.75,0.47,3.62,0.94C87.49,124.91,84.03,124.54,84.03,124.54z"
		/>
	<path class="st0" d="M77.89,125.44c0,0,0.34,0.64-0.65,1.12c0.86-0.35,2.65,0.84,3.45,1.44C81.26,126.29,77.89,125.44,77.89,125.44
		z"/>
</g>
</svg>
