<?xml version="1.0" encoding="utf-8"?>
<!-- Generator: Adobe Illustrator 18.1.0, SVG Export Plug-In . SVG Version: 6.00 Build 0)  -->
<svg version="1.1" baseProfile="tiny" id="Layer_1" xmlns="http://www.w3.org/2000/svg" xmlns:xlink="http://www.w3.org/1999/xlink"
	 x="0px" y="0px" viewBox="0 0 128 128" xml:space="preserve">
<g>
	<path fill="#2D2D2D" d="M50.4,57.2l-30.6,69.1h88.3L77.6,57.2H50.4z M66,118.3H62v-8.9H66V118.3z M66,96.1H62v-8.9H66V96.1z
		 M66,73.9H62v-8.9H66V73.9z"/>
	<path fill="#2D2D2D" d="M0,6.2v4.9h4.7c0.6,0,1,0.4,1,1v7.8h5.1v-7.8c0-0.5,0.5-1,1-1h48.8c0.6,0,1,0.4,1,1v7.8h5.1v-7.8
		c0-0.5,0.5-1,1-1h48.8c0.6,0,1,0.4,1,1v7.8h5.1v-7.8c0-0.5,0.5-1,1-1h4.5V6.2H0z"/>
	<path fill="#2D2D2D" d="M0,82.2h13.2c1.5-5.8,12.6-41.8,49.7-41.8c37.1,0,50.6,36.1,52.5,41.8H128V21.9H0V82.2z"/>
</g>
</svg>
