<?xml version="1.0" encoding="utf-8"?>
<!-- Generator: Adobe Illustrator 24.1.2, SVG Export Plug-In . SVG Version: 6.00 Build 0)  -->
<svg version="1.1" id="Layer_1" xmlns="http://www.w3.org/2000/svg" xmlns:xlink="http://www.w3.org/1999/xlink" x="0px" y="0px"
	 viewBox="0 0 128 128" style="enable-background:new 0 0 128 128;" xml:space="preserve">
<style type="text/css">
	.st0{fill:#2D2D2D;}
</style>
<g>
	<path class="st0" d="M47.69,102.89l0.98-1.29c0.35-0.47,0.56-0.78,0.79-1.24c0.83-1.86,1.38-3.97,1.76-6.05
		c0.41-2.08,0.62-4.22,0.43-6.35l-1.05-0.24c-0.59-0.14-1.19-0.29-1.78-0.47c-0.45-0.14-0.91-0.27-1.34-0.48
		c-0.03,0.19-0.06,0.38-0.09,0.58c-0.06,0.41-0.08,0.81-0.14,1.23c-0.06,0.42-0.12,0.83-0.2,1.23c-0.15,0.81-0.3,1.62-0.49,2.42
		c-0.38,1.6-0.86,3.16-1.33,4.72c-0.24,0.78-0.48,1.56-0.74,2.33l-0.4,1.15c-0.14,0.38-0.32,0.84-0.51,1.21
		c-0.77,1.54-1.71,2.91-2.75,4.22c-0.53,0.65-1.07,1.28-1.67,1.87c-0.48,0.46-0.97,0.91-1.53,1.29c1.16,0.02,2.32,0.26,3.38,0.71
		c0.61,0.24,1.19,0.52,1.76,0.84c1.08-1.65,2.02-3.37,3.08-5.02C46.43,104.63,47.04,103.75,47.69,102.89z"/>
	<path class="st0" d="M104.19,63.86c0.41,0,0.77,0.19,0.97,0.47l0.05-0.05c0.43-0.42,0.79-0.79,1.03-1.2
		c0.13-0.23,0.21-0.49,0.25-0.75c-0.8,0.08-1.61,0.21-2.38,0.42c-0.86,0.24-1.7,0.58-2.36,1.14c-0.63,0.51-0.92,1.51-0.58,2.18
		c0.09,0.16,0.21,0.29,0.37,0.38c0.14,0.07,0.4,0.15,0.61,0.25c0.43,0.22,0.87,0.5,1.14,1c0.11,0.26,0.24,0.58-0.03,0.98
		c-0.22,0.24-0.38,0.35-0.57,0.49l-1.1,0.78c-0.36,0.26-0.72,0.52-1.01,0.82c-0.14,0.14-0.27,0.32-0.3,0.43
		c-0.02,0.03,0.01,0.18,0.02,0.26c0.03,0.1,0.04,0.2,0.08,0.29c0.25,0.79,1.13,1.19,1.99,1.34c0.86,0.16,1.76,0.14,2.64,0.03
		c0.03-0.08,0.07-0.17,0.09-0.26c0.08-0.28,0.12-0.57,0.16-0.86l0.06-0.45l0.02-0.16l-0.75-0.01c-0.61-0.03-1.21-0.03-1.82-0.08
		c-0.04,0-0.06-0.03-0.06-0.07c0-0.03,0.02-0.05,0.05-0.06c0.59-0.14,1.19-0.24,1.78-0.35c0.56-0.11,1.19-0.17,1.54-0.35l0.06-0.17
		l0.11-0.4c0.07-0.27,0.12-0.54,0.13-0.78c0.01-0.24-0.03-0.47-0.09-0.54c-0.01-0.02-0.03-0.03-0.04-0.04c-0.02-0.01,0,0-0.1-0.06
		c-0.14-0.09-0.28-0.19-0.41-0.29c-0.53-0.42-1.02-0.9-1.32-1.67c-0.07-0.18-0.12-0.41-0.12-0.66c-0.04,0-0.08,0.01-0.11,0.01
		c-0.63,0-1.15-0.45-1.15-1.01C103.05,64.31,103.56,63.86,104.19,63.86z"/>
	<path class="st0" d="M101.77,104.09c-2.26,0.27-4.49,0.15-6.71,0.2l-0.18,0l-0.08-0.15c-0.83-1.44-1.2-3.02-1.69-4.53
		c-0.24-0.76-0.48-1.52-0.69-2.27c-0.06-0.19-0.11-0.38-0.16-0.57l-0.16-0.52c-0.1-0.34-0.24-0.69-0.35-1.04
		c-0.26-0.7-0.52-1.41-0.85-2.11c-0.3-0.71-0.63-1.4-0.96-2.11c-0.33-0.68-0.66-1.37-0.99-2.06c-0.13,0.41-0.26,0.8-0.39,1.21
		l-0.82,2.46L86,97.47c-0.46,1.26-0.95,2.52-1.44,3.77c0.28,0.63,0.57,1.26,0.86,1.88c0.3,0.63,0.73,1.17,0.96,1.8
		c0.11,0.29,0.21,0.57,0.32,0.86c0.1-0.01,0.19-0.02,0.29-0.04c0.12-0.02,0.25-0.04,0.38-0.08l0.43-0.1
		c1.34-0.31,2.8-0.02,3.91,0.69c0.86,0.54,1.54,1.28,2.03,2.12c0.83-0.2,1.66-0.39,2.47-0.59c0.55-0.13,0.97-0.26,1.49-0.47
		l1.54-0.59c1.79-0.65,3.64-1.28,5.63-1.54c-0.22-0.34-0.42-0.62-0.65-0.8C103.69,103.91,102.89,103.91,101.77,104.09z"/>
	<path class="st0" d="M13.35,27.84c0.88,0.4,1.96,0.3,2.94-0.06c0.78-0.29,1.52-0.72,2.2-1.23c0.17-1,0.4-2,0.69-2.98
		c0.22-0.74,0.47-1.47,0.75-2.19c-0.09-0.06-0.17-0.12-0.26-0.18c-0.34-0.21-0.69-0.41-1.04-0.56c-0.86-0.4-1.02-0.22-1.35,0.53
		c-0.14,0.34-0.26,0.72-0.39,1.1c-0.13,0.36-0.26,0.82-0.57,1.26c-0.28,0.43-0.86,0.83-1.48,0.85c-0.62,0.03-1.14-0.2-1.54-0.47
		c-0.2-0.14-0.39-0.29-0.55-0.45c-0.09-0.09-0.15-0.14-0.26-0.27c-0.14-0.16-0.22-0.34-0.27-0.52c-0.13-0.73,0.1-1.18,0.29-1.59
		c0.43-0.81,0.95-1.46,1.52-2.08c0.7-0.75,1.44-1.45,2.24-2.09c-1.52,0.9-2.86,2.1-4.01,3.52c-0.43,0.81-0.78,1.66-0.99,2.53
		c-0.22,0.97-0.23,1.98,0.13,2.86C11.72,26.7,12.47,27.47,13.35,27.84z"/>
	<path class="st0" d="M13.61,21.61c-0.15,0.32-0.22,0.67-0.18,0.75c0.01,0.01,0.01,0.01,0.01,0.01c0.02,0.03,0.12,0.11,0.17,0.17
		c0.13,0.12,0.27,0.22,0.4,0.31c0.27,0.19,0.54,0.29,0.75,0.28c0.2-0.01,0.38-0.1,0.57-0.33c0.19-0.21,0.32-0.53,0.49-0.93
		c0.16-0.38,0.33-0.76,0.55-1.15c0.11-0.19,0.24-0.39,0.41-0.59c0.17-0.19,0.41-0.39,0.73-0.47c0.32-0.08,0.62-0.01,0.85,0.09
		c0.21,0.1,0.4,0.21,0.58,0.33c0.36,0.25,0.67,0.53,0.96,0.84c0.05,0.05,0.1,0.11,0.14,0.17c0.21-0.53,0.44-1.05,0.69-1.57
		c0.17-0.33,0.33-0.66,0.53-0.98c0.1-0.16,0.19-0.32,0.31-0.48l0.31-0.44c0.3-0.41,0.43-0.87,0.44-1.36
		c0.01-0.24-0.03-0.5-0.09-0.75c-0.04-0.15-0.1-0.25-0.2-0.34c-0.1-0.08-0.23-0.13-0.36-0.14c-0.04,0-0.06,0-0.11,0l-0.24,0.04
		c-0.16,0.02-0.32,0.05-0.48,0.08c-1.2,0.24-2.37,0.64-3.48,1.17c-0.88,1.1-1.75,2.19-2.56,3.3C14.36,20.29,13.89,20.94,13.61,21.61
		z"/>
	<path class="st0" d="M20.42,13.34c0.18-0.05,0.36-0.1,0.55-0.14l0.28-0.06c0.13-0.02,0.27-0.04,0.41-0.04
		c0.57-0.02,1.14,0.16,1.59,0.5c0.46,0.33,0.8,0.84,0.96,1.36c0.13,0.42,0.2,0.86,0.21,1.31c0.02,0.9-0.3,1.83-0.82,2.55l-0.29,0.41
		c-0.09,0.12-0.17,0.26-0.26,0.39c-0.17,0.27-0.33,0.55-0.49,0.84c-0.63,1.16-1.16,2.4-1.61,3.67c-0.45,1.27-0.8,2.58-1.08,3.9
		c-0.28,1.32-0.49,2.66-0.54,4.02c-0.11,2.78-0.13,5.56,0.2,8.32c0.32,2.75,1.05,5.46,2.04,7.95c0.23,0.63,0.53,1.23,0.81,1.82
		c0.28,0.59,0.63,1.12,0.99,1.73c0.72,1.17,1.47,2.32,2.24,3.46c1.55,2.25,3.19,4.43,5.12,6.42c0.24-0.3,0.48-0.6,0.73-0.89
		c0.03-0.04,0.1-0.05,0.14-0.01c0.04,0.03,0.05,0.08,0.02,0.12l0,0c-0.83,1.43-1.65,2.87-2.35,4.35c-0.73,1.46-1.39,2.96-1.88,4.48
		c-0.11,0.38-0.24,0.76-0.31,1.14l-0.13,0.57l-0.08,0.56c-0.04,0.19-0.05,0.37-0.04,0.55l-0.01,0.55c0.03,0.4,0.05,0.8,0.1,1.2
		c0.15,1.61,0.38,3.24,0.62,4.86c0.45,3.27,0.93,6.51,0.88,9.97c-0.14,1.75-0.62,3.32-0.91,4.95c-0.29,1.6-0.52,3.26-0.14,4.79
		l0.02,0.09l-0.02,0.08c-0.72,2.32-1.35,4.67-1.84,7.04c-0.25,1.18-0.47,2.37-0.6,3.55c-0.08,0.59-0.11,1.18-0.11,1.73
		c0.02,0.26,0.03,0.54,0.09,0.71c0,0.08,0.09,0.25,0.13,0.37c0.05,0.13,0.11,0.26,0.17,0.38c0.23,0.49,0.52,0.89,0.85,1.09
		c0.32,0.21,0.74,0.27,1.24,0.22c0.99-0.11,2.15-0.55,3.31-0.94c1.18-0.39,2.38-0.81,3.79-0.93c0.35-0.03,0.72-0.03,1.1,0.01
		c0.36,0.02,0.85,0.18,1.03,0.21c0.49,0.13,0.98,0.15,1.49,0.11c0.52-0.03,1.03-0.16,1.75-0.27c0.18-0.02,0.38-0.05,0.62-0.04
		c0.12,0,0.23,0.01,0.37,0.03c0.07,0.01,0.12,0.02,0.21,0.04c0.12,0.04,0.27,0.09,0.36,0.15c0.41,0.25,0.55,0.51,0.68,0.71
		c0.11,0.2,0.2,0.38,0.27,0.56c0.27,0.68,0.39,1.28,0.54,1.86c0.15,0.57,0.3,1.14,0.49,1.54c0.05,0.12,0.12,0.2,0.13,0.22l0.13,0.05
		c0.1,0.03,0.18,0.08,0.27,0.11c0.17,0.08,0.34,0.16,0.48,0.25c0.08,0.04,0.16,0.09,0.24,0.14l0.05-0.25
		c0.05-0.29,0.1-0.57,0.13-0.85c0.07-0.56,0.1-1.12,0.07-1.65c-0.03-0.53-0.13-1.04-0.34-1.47c-0.1-0.22-0.23-0.42-0.38-0.59
		c-0.16-0.18-0.31-0.31-0.57-0.51c-0.95-0.74-1.91-1.43-2.95-1.96c-1.04-0.54-2.16-0.89-3.32-1.02c-1.16-0.13-2.37,0.04-3.51,0.44
		c-0.05,0.02-0.11-0.01-0.12-0.06c-0.02-0.04,0-0.09,0.04-0.12c1.05-0.6,2.27-0.91,3.52-0.96c0.97-1.23,1.72-2.59,2.47-3.94
		c0.77-1.4,1.5-2.84,2.1-4.25c0.15-0.37,0.26-0.66,0.39-1.06l0.39-1.16c0.27-0.77,0.56-1.52,0.85-2.28
		c0.59-1.51,1.15-3.03,1.76-4.54c0.61-1.51,1.27-2.96,1.62-4.55c0.42-1.57,0.47-3.21,0.38-4.83c-0.26-3.23,0.37-6.34-0.24-9.48
		l-0.01-0.03c-0.01-0.05,0.02-0.1,0.08-0.11c0.03-0.01,0.07,0.01,0.09,0.03c0.62,0.65,0.95,1.46,1.22,2.27
		c0.24,0.81,0.41,1.65,0.48,2.49c0.06,0.42,0.06,0.84,0.08,1.25c0.02,0.42,0.01,0.83-0.02,1.25c-0.04,0.83-0.21,1.65-0.4,2.46
		c-0.21,0.81-0.42,1.6-0.6,2.4c-0.12,0.53-0.21,1.06-0.29,1.6c0.44,0.16,0.92,0.26,1.4,0.36c0.59,0.11,1.19,0.21,1.79,0.3l3.62,0.51
		c2.4,0.34,4.8,0.56,7.18,0.5c1.19-0.03,2.38-0.12,3.54-0.31c1.16-0.19,2.3-0.42,3.44-0.66c2.11-0.46,4.2-1.07,6.18-2.14
		c0.02-0.56,0.02-1.15,0.03-1.74c0.01-1.26,0.06-2.53,0.15-3.8c0.09-1.27,0.27-2.54,0.59-3.8c0.17-0.62,0.37-1.25,0.69-1.83
		c0.31-0.57,0.79-1.13,1.46-1.31c0.05-0.01,0.11,0.02,0.12,0.07c0.01,0.05-0.01,0.1-0.06,0.12c-0.56,0.23-0.9,0.77-1.13,1.32
		c-0.24,0.55-0.37,1.16-0.47,1.76c-0.19,1.22-0.21,2.46-0.22,3.7c0,1.25,0.06,2.49,0.12,3.75c0.03,0.63,0.06,1.25,0.07,1.91
		c0,0.7-0.08,1.36-0.21,2.01c-0.26,1.3-0.68,2.53-1.14,3.74c-0.23,0.6-0.5,1.19-0.76,1.77l-0.41,0.87l-0.1,0.21l-0.06,0.16
		c-0.05,0.1-0.08,0.24-0.12,0.36c-0.26,1.07-0.33,2.32-0.36,3.53c-0.02,1.23-0.01,2.47,0.03,3.71c0.07,2.48,0.25,4.99,0.62,7.44
		c0.1,0.61,0.21,1.23,0.38,1.78c0.04,0.14,0.09,0.27,0.14,0.38c0.04,0.09,0.11,0.16,0.2,0.24c0.19,0.15,0.46,0.26,0.73,0.34
		c1.14,0.33,2.43,0.28,3.65,0.18c1.23-0.13,2.47-0.39,3.6-0.85c1.14-0.58,2.44-0.9,3.68-1.17c2.15-0.46,4.32-0.73,6.48-1.01
		c-0.41-0.55-0.91-1.02-1.48-1.34c-0.84-0.47-1.81-0.6-2.7-0.35l-0.41,0.11c-0.15,0.04-0.31,0.08-0.46,0.11
		c-0.31,0.07-0.63,0.11-0.95,0.14c-0.64,0.06-1.27,0.03-1.84,0c-1.15-0.07-2.21-0.08-3.31,0.02l-1.7,0.15l0.84-1.66l0.09-0.17
		l0.12-0.26l0.24-0.57l0.48-1.18l0.93-2.39l1.85-4.8l1.84-4.8l0.92-2.4c0.29-0.79,0.61-1.63,0.84-2.36l0.07-0.22l0.1-0.11
		c0.03-0.03,0.06-0.07,0.09-0.11c0.09-0.13,0.09-0.12,0.12-0.15c0.85-0.98,1.64-1.99,2.36-3.05c0.79-1.15,1.48-2.36,2.03-3.64
		c0.54-1.28,0.91-2.62,1.03-3.99c0.11-1.38-0.13-2.78-0.69-4.08c-0.02-0.05,0-0.11,0.05-0.13c0.04-0.02,0.1,0,0.12,0.04
		c0.42,0.67,0.73,1.41,0.93,2.19c1.21,0.15,2.36,0.41,3.49,0.65l0.85,0.17c0.15,0.03,0.26,0.04,0.37,0.06
		c0.11,0.01,0.24,0.02,0.36,0.03c0.51,0.02,1.09-0.02,1.66-0.13c1.15-0.21,2.28-0.6,3.5-0.86l0.24-0.04
		c0.06-0.01,0.1-0.02,0.15-0.03c0.1-0.03,0.19-0.1,0.27-0.18c0.09-0.1,0.17-0.24,0.23-0.38c-0.87,0.18-1.76,0.26-2.66,0.16
		c-0.46-0.05-0.92-0.17-1.35-0.39c-0.43-0.22-0.81-0.6-0.99-1.07c-0.05-0.11-0.08-0.24-0.11-0.35c-0.02-0.14-0.05-0.2-0.05-0.4
		c0.04-0.33,0.21-0.53,0.36-0.72c0.31-0.37,0.67-0.67,1.02-0.97c0.35-0.29,0.73-0.55,1.08-0.82c0.17-0.13,0.38-0.28,0.47-0.37
		c0,0,0,0,0,0c0-0.01,0-0.01,0.01-0.02c0-0.02,0.01-0.05,0.01-0.08c0-0.06-0.02-0.13-0.05-0.21c-0.14-0.31-0.47-0.59-0.82-0.79
		c-0.19-0.1-0.36-0.16-0.62-0.3c-0.23-0.15-0.42-0.36-0.53-0.6c-0.23-0.49-0.19-1.02-0.04-1.48c0.15-0.46,0.44-0.89,0.83-1.18
		c0.75-0.58,1.65-0.87,2.53-1.07c0.8-0.18,1.62-0.28,2.44-0.31c0.02-0.15,0.02-0.3,0.01-0.45c-0.37-0.83-0.79-1.64-1.26-2.42
		c-0.48-0.82-1.04-1.6-1.7-2.3c-1.3-1.42-3.11-2.38-5-2.69c-0.94-0.17-1.9-0.24-2.85-0.29c-0.95-0.05-1.93-0.11-2.86-0.06
		c-1.78,0.08-3.57,0.43-5.27,1.13c0.4,0.26,0.77,0.56,1.09,0.91c0.57,0.62,0.98,1.35,1.27,2.11c0.02,0.05-0.01,0.11-0.06,0.13
		c-0.05,0.02-0.1,0-0.12-0.05c-0.7-1.43-1.91-2.56-3.38-3.04c-0.73-0.25-1.5-0.37-2.3-0.45c-0.85-0.1-1.58-0.22-2.37-0.22
		c-1.58-0.03-3.17,0.1-4.75,0.28c-0.79,0.1-1.58,0.21-2.35,0.35c-0.77,0.14-1.55,0.3-2.22,0.54l-0.2,0.07l-0.24-0.05
		c-1.06-0.21-2.35-0.02-3.58,0.19c-1.25,0.22-2.5,0.53-3.75,0.86c-1.26,0.33-2.51,0.67-3.84,0.95c-0.66,0.15-1.43,0.22-2.1,0.22
		c-0.68,0-1.35-0.01-2.01-0.05c-1.33-0.08-2.64-0.23-3.96-0.41c-1.31-0.19-2.61-0.4-3.93-0.75c-2.58-0.82-4.98-1.96-7.13-3.54
		c-2.16-1.57-3.85-3.67-5.27-5.87C35.66,46.23,35,45.11,34.31,44c-0.33-0.55-0.71-1.11-0.99-1.73c-0.29-0.61-0.54-1.23-0.74-1.87
		c-0.8-2.56-1.07-5.22-1.14-7.86c-0.01-1.32,0.03-2.64,0.13-3.96c0.05-0.66,0.11-1.32,0.19-1.98l0.14-0.99l0.09-0.51l0.06-0.27
		l0.04-0.16c0.01-0.04,0.01-0.03,0.03-0.11c0,0,0,0,0-0.01c0.45-1.99,0.69-4.14,0.55-6.15c-0.08-1.01-0.28-2-0.65-2.84
		c-0.19-0.42-0.42-0.8-0.71-1.13c-0.3-0.34-0.65-0.65-1.03-0.92c-1.54-1.1-3.59-1.55-5.58-1.5c-2.01,0.04-4.01,0.61-5.78,1.61
		c-0.37,0.21-0.74,0.45-1.1,0.7c0.16-0.08,0.32-0.17,0.49-0.24C19,13.79,19.7,13.54,20.42,13.34z"/>
	<path class="st0" d="M45.19,112.16c0.27,0.27,0.5,0.57,0.67,0.9c0.08,0.15,0.15,0.3,0.22,0.45c1.61-0.39,3.22-0.59,4.83-0.73
		c0.92-0.08,1.85-0.12,2.77-0.1l0.13,0c-0.03-0.1-0.07-0.21-0.13-0.31c-0.31-0.62-1-1.17-1.7-1.56c-0.7-0.36-1.57-0.59-2.45-0.72
		c-0.88-0.14-1.8-0.21-2.72-0.24c-0.46-0.02-0.92-0.02-1.38-0.02l-0.7,0l-0.22,0c-0.4,0.36-0.83,0.7-1.29,0.99
		c0.38,0.22,0.76,0.45,1.13,0.69C44.59,111.65,44.94,111.9,45.19,112.16z"/>
	<path class="st0" d="M127.7,107.95c-0.08-1.46-0.15-2.94-0.29-4.37l-0.06-0.48l-0.54,0.04l-2.22,0.16l-8.87,0.68l-8.86,0.62
		l0.34,0.49c0.26,0.45,0.22,1.06-0.07,1.47c-0.15,0.21-0.36,0.38-0.6,0.49c-0.12,0.05-0.25,0.09-0.38,0.1l-0.16,0.02
		c-2.03,0.2-4.14,0.67-6.27,1.17c-0.54,0.12-1.07,0.25-1.63,0.36c-0.54,0.11-1.2,0.21-1.74,0.2c-0.8,0.02-1.6-0.01-2.39-0.06
		c0.06,0.12,0.13,0.24,0.19,0.37l0.37,0.9l-0.93,0.05c-2.54,0.13-5.05,0.24-7.53,0.6c-1.25,0.18-2.44,0.43-3.59,0.96
		c-1.23,0.47-2.5,0.7-3.78,0.85c-1.28,0.14-2.57,0.19-3.9-0.09c-0.33-0.08-0.67-0.19-0.99-0.41c-0.16-0.11-0.32-0.27-0.43-0.46
		c-0.04-0.07-0.06-0.12-0.09-0.19c-0.64,0.33-1.32,0.53-1.99,0.72c-0.42,0.12-0.85,0.2-1.27,0.3l-1.28,0.21
		c-1.71,0.26-3.44,0.09-5.16,0.05c-1.72-0.04-3.44-0.13-5.15-0.31c-0.86-0.09-1.71-0.21-2.56-0.36c-0.18-0.04-0.37-0.07-0.55-0.11
		c0.21,0.38,0.36,0.82,0.38,1.37c0,0.1,0,0.2-0.02,0.32c-0.02,0.12-0.04,0.24-0.15,0.46c-0.03,0.05-0.08,0.13-0.13,0.19
		c-0.04,0.05-0.09,0.09-0.14,0.13l-0.08,0.06c-0.04,0.03-0.09,0.05-0.13,0.07c-0.26,0.1-0.22,0.06-0.26,0.08l-0.09,0.01l-0.26,0.03
		l-0.71,0.05c-0.93,0.06-1.86,0.04-2.78-0.01c-1.55-0.09-3.1-0.25-4.65-0.58c0.1,0.34,0.16,0.67,0.21,1.01
		c0.09,0.68,0.08,1.34,0.03,1.99c-0.02,0.32-0.06,0.64-0.1,0.96l-0.07,0.46c-0.02,0.13-0.05,0.34-0.11,0.57l-0.07,0.19
		c-0.02,0.06-0.05,0.13-0.11,0.22c-0.06,0.09-0.09,0.15-0.18,0.25c-0.09,0.1-0.2,0.18-0.31,0.25c-0.13,0.07-0.28,0.12-0.42,0.16
		c-0.12,0.02-0.25,0.02-0.37,0.02c-0.19-0.02-0.37-0.07-0.47-0.11c-0.47-0.18-0.69-0.34-0.94-0.47c-0.12-0.06-0.23-0.12-0.34-0.16
		c-0.05-0.02-0.11-0.05-0.15-0.06l-0.23-0.08c-0.38-0.14-0.62-0.38-0.78-0.57c-0.16-0.2-0.28-0.39-0.37-0.56
		c-0.35-0.7-0.51-1.31-0.69-1.91c-0.17-0.59-0.33-1.18-0.5-1.63c-0.03-0.07-0.05-0.13-0.08-0.18c-0.06,0-0.13,0.01-0.21,0.02
		c-0.5,0.07-1.18,0.24-1.88,0.28c-0.71,0.05-1.46-0.03-2.15-0.23c-0.41-0.12-0.51-0.16-0.76-0.19c-0.22-0.04-0.47-0.04-0.73-0.03
		c-1.04,0.05-2.19,0.38-3.34,0.73c-0.58,0.18-1.17,0.36-1.78,0.53c-0.61,0.17-1.27,0.33-2,0.35c-0.66,0.03-1.45-0.09-2.11-0.52
		c-1.21,0.13-2.41,0.25-3.62,0.35c-1.25,0.1-2.51,0.19-3.77,0.23c-0.63,0.02-1.26,0.03-1.89,0.04l-0.99-0.06
		c-0.33-0.02-0.64-0.09-0.97-0.14c-1.28-0.22-2.52-0.58-3.71-1.03c-1.2-0.43-2.36-0.94-3.52-1.47c-1.91-0.9-3.74-1.89-5.54-2.98
		l-0.59,6.31c-0.22,2.32-0.44,4.63-0.69,6.95c1.02,0.47,2.09,0.89,3.16,1.28c1.27,0.45,2.55,0.87,3.85,1.18
		c2.6,0.68,5.27,1.11,7.95,1.06c0.67-0.03,1.34-0.02,2-0.12l0.99-0.12c0.33-0.05,0.65-0.14,0.98-0.2l0.98-0.21l1.03-0.24
		c0.68-0.18,1.38-0.25,2.08-0.36c2.8-0.34,5.64,0.01,8.31,0.69c2.68,0.64,5.31,1.49,8.01,1.5l1.01-0.02l1-0.12
		c0.67-0.08,1.35-0.21,2.03-0.32l4.07-0.66c5.43-0.87,10.86-1.72,16.32-2.41c2.73-0.35,5.47-0.66,8.25-0.81
		c1.41-0.05,2.76-0.15,4.3,0.08c0.45,0.05,0.61,0.11,0.92,0.12c0.29,0.02,0.61,0.01,0.92-0.01c0.63-0.04,1.29-0.15,1.95-0.25
		c2.63-0.47,5.28-1.19,7.92-1.9c2.64-0.72,5.29-1.47,7.97-2.15c2.68-0.68,5.38-1.33,8.21-1.65c0.7-0.08,1.43-0.12,2.16-0.14
		c0.68-0.02,1.35-0.01,2.03-0.05c1.35-0.05,2.71-0.13,4.07-0.22c2.72-0.18,5.45-0.43,8.17-0.72c2.46-0.26,4.92-0.52,7.38-0.82
		C127.92,113.29,127.83,110.62,127.7,107.95z"/>
</g>
</svg>
