<?xml version="1.0" encoding="utf-8"?>
<!-- Generator: Adobe Illustrator 23.0.0, SVG Export Plug-In . SVG Version: 6.00 Build 0)  -->
<svg version="1.1" id="Layer_1" xmlns="http://www.w3.org/2000/svg" xmlns:xlink="http://www.w3.org/1999/xlink" x="0px" y="0px"
	 viewBox="0 0 128 128" style="enable-background:new 0 0 128 128;" xml:space="preserve">
<style type="text/css">
	.st0{fill:#2D2D2D;}
</style>
<g>
	<path class="st0" d="M10.2,42.7c-0.4-1.1-0.7-2.2-0.9-3.3C9,38.3,8.8,37.2,8.7,36c-1.1,0.6-2.9,1.4-4.2,1c-2.2-0.6-3.8,0.4-4.6,1.2
		c0,0.5,0,1,0.1,1.5c0.1,1.9,0.2,3.8,0.5,5.6c0,0.2,0.1,0.3,0.1,0.5c1.1-0.4,3.4-1.2,4.8-1.2C7.1,44.7,9.3,43.3,10.2,42.7z"/>
	<path class="st0" d="M53.7,8.7c-0.1,1.2-0.7,2.2-1.1,2.8c0.2,0.1,0.5,0.3,0.7,0.4c1.7,1.1,3.2,2.5,4.5,4c0,0,0,0,0,0
		c0.8-0.2,1.7-0.7,2.2-1.6c1.1-1.9,2.4-2.9,3.1-3.3c-0.3-0.3-0.6-0.7-0.9-1c-1.7-2-3.7-3.7-5.8-5.1C55.8,5.3,53.8,7.1,53.7,8.7z"/>
	<path class="st0" d="M41.6,3.3c0.1,1.5,0.1,3.5,0,4.8c2.1,0.2,4.1,0.6,6.1,1.2c0.2,0.1,0.4,0.1,0.6,0.2C49.1,9,50,8.1,50,6.8
		c0.1-2.3,0.9-3.7,1.4-4.4c-2.9-1.1-5.9-1.8-9-2.1C42.1,0.9,41.5,2.1,41.6,3.3z"/>
	<path class="st0" d="M3.3,32.5c1.4,0.5,4.1,0.1,5.3-0.2v0c0.1-1.5,0.3-3,0.6-4.5c0.2-0.8,0.4-1.6,0.7-2.3c-1-0.3-3.1-0.9-4.8-0.7
		c-1.7,0.1-3,0-3.9-0.3c-0.3,1.3-0.6,2.7-0.8,4.1c-0.2,1.2-0.3,2.4-0.4,3.6C0.9,32.1,2.2,32.1,3.3,32.5z"/>
	<path class="st0" d="M11.5,21.7c0.8-1.6,1.8-3,2.9-4.4c0.4-0.5,0.9-1,1.3-1.5c-0.7-0.7-2.4-2.3-3.9-2.9c-1.8-0.7-2.9-1.6-3.6-2.2
		c-1.9,2.1-3.5,4.5-4.7,7.1c-0.1,0.2-0.2,0.4-0.2,0.5C3.9,18.8,5,19.8,6.2,20C8,20.4,10.5,21.3,11.5,21.7z"/>
	<path class="st0" d="M15,9.3c1.5,1.2,3.4,3.2,4,4c1.7-1,3.4-1.9,5.3-2.6c0.4-0.2,0.7-0.3,1.1-0.4c0-1.2-0.2-3.3-1.3-4.4
		C22.7,4.3,22.2,3,22,2.2c-0.8,0.2-1.6,0.5-2.3,0.8c-2.3,0.9-4.5,2-6.5,3.4C13.4,7.1,14,8.5,15,9.3z"/>
	<path class="st0" d="M27.8,3.8c0.8,1.6,1.7,3.9,2.1,5c2-0.5,4-0.8,6.1-0.9c0.4,0,0.8,0,1.2,0C37.6,6.8,38,5,37.5,3.8
		c-0.7-1.7-0.7-2.9-0.6-3.8c-0.1,0-0.3,0-0.4,0c-1.9,0.1-3.8,0.2-5.7,0.4c-1.2,0.1-2.3,0.3-3.5,0.5C27.2,1.7,27.3,2.9,27.8,3.8z"/>
	<path class="st0" d="M31.4,90.8c-0.4-0.7-0.7-1.5-1.1-2.2c-0.3-0.8-0.6-1.5-0.9-2.3c-0.5-1.5-0.9-3.1-1.2-4.7
		c-0.5-3.2-0.3-6.5,0.6-9.6c0.4-1.5,1-3,1.8-4.5c0.4-0.7,0.8-1.4,1.2-2.1c0.1-0.1,0.2-0.3,0.3-0.4c-0.1,0.1-0.3,0.3-0.4,0.4
		c-0.9,1-1.7,2-2.5,3.1c-1.5,2.2-2.6,4.6-3.3,7.1c-0.3,1.3-0.7,2.5-0.8,3.8l-0.1,1c0,0.3-0.1,0.6-0.1,1l-0.1,2c-0.1,0.7,0,1.3,0,2
		l0.1,2c0.1,1.3,0.3,2.6,0.5,3.9l0,0.4l-0.2,0.3c-1.3,1.4-2.7,2.8-4.1,4.1l-4.2,3.9c-1.4,1.3-2.7,2.6-3.9,4.2
		c-1.1,1.5-2,3.2-2.7,4.9l0,0.1l-0.1,0.1c-1.1,1-3.1,2.7-4.2,3.6c-0.5,0.5-0.8,1.1-1,1.7c-0.1,0.7,0,1.3,0.2,1.9
		c0.3,0.6,0.8,1.1,1.3,1.7c0.5,0.6,1,1.1,1.4,1.7c1,1.1,2,2.2,3,3.3c0.2,0.3,0.5,0.6,0.7,0.8c0.2,0.2,0.5,0.4,0.8,0.6
		c0.5,0.4,1.2,0.6,1.8,0.7c0.3,0.1,0.6,0.1,1,0.1c0.3,0,0.7,0,1.1,0l2.3,0l9-0.1c-0.1-0.2-0.1-0.3-0.2-0.5c-0.3-0.5-1.2-1.7-1.6-2
		c-0.2-0.2-0.4-0.3-0.6-0.5c-0.2-0.1-0.5-0.2-0.7-0.3c-0.5-0.2-1.1-0.2-1.6-0.3c-1.6,0.1-3.2,0.1-4.9-0.2c-0.8-0.2-1.7-0.4-2.5-0.8
		c-0.4-0.3-0.9-0.5-1.3-1c-0.1-0.1-0.2-0.3-0.2-0.4c-0.1-0.1-0.1-0.3-0.2-0.5c-0.1-0.4,0-0.6,0-0.9c0.1-1,0.6-1.8,1.1-2.5
		c0.5-0.7,1.1-1.3,1.7-1.8c1.1-1.1,2.3-2.1,3.5-3.1l0.1-0.1l0.1,0c1.5-0.7,2.9-1.7,4.3-2.6c1.4-0.9,2.8-1.9,4.2-3
		c1.4-1,2.8-2.1,4.1-3.1c1.2-0.9,2.4-1.9,3.6-2.9c0,0,0-0.1,0-0.1C34.6,96.2,32.8,93.6,31.4,90.8z"/>
	<path class="st0" d="M110.5,62.6L110.5,62.6C110.5,62.6,110.5,62.6,110.5,62.6C110.5,62.6,110.5,62.6,110.5,62.6z"/>
	<path class="st0" d="M113.4,63.5L113.4,63.5c0.3,0.3,0.7,0.7,0.9,1.1c0.3,0.4,0.5,0.8,0.7,1.2c0.1,0.2,0.2,0.4,0.3,0.7
		c0.2-0.2,0.4-0.5,0.7-0.6c0.3-0.3,0.7-0.5,1.1-0.7c0.4-0.2,0.8-0.3,1.2-0.4c0.4-0.1,0.9-0.1,1.3-0.1c0.9,0,1.8,0.1,2.6,0.4
		c0.4,0.2,0.7,0.4,1.1,0.6c-0.2-0.4-0.4-0.7-0.6-1.1c-0.6-1.1-1.5-1.8-2.7-2.1c-1.2-0.3-2.5-0.4-3.7-0.3c-1.2,0.1-2.4,0.4-3.6,0.8
		C112.8,63.1,113,63.3,113.4,63.5L113.4,63.5z"/>
	<path class="st0" d="M67.2,28.4c-0.6,0.7-1.2,1-1.7,1.1c1,2.3,2.1,4.5,3.2,6.6c0,0,0,0,0,0.1c0.5-0.1,1.1-0.3,1.7-1
		c1.7-1.7,3.3-2.3,4.1-2.6c-0.5-0.9-0.9-1.9-1.4-2.8c-0.7-1.4-1.3-2.9-1.9-4.3C70.4,26.1,68.1,27.4,67.2,28.4z"/>
	<path class="st0" d="M72.4,39c-0.4,0.5-0.9,0.8-1.2,1c0.2,0.3,0.4,0.6,0.7,0.9c0.6,0.7,1.2,1.4,1.8,2.1c0.6,0.7,1.3,1.4,2,2
		c0.5,0.5,1,0.9,1.6,1.4c0,0,0,0,0,0c0.4-0.1,1.5-0.6,1.9-2c0.5-1.9,1.4-3.1,1.9-3.7c-0.5-0.3-1-0.6-1.4-1c-1.2-1-2.1-2.2-3-3.4
		C75.8,36.5,73.3,37.9,72.4,39z"/>
	<path class="st0" d="M81.1,48.7c1.3,0.6,2.7,1,4.2,1.2c0.5,0.1,0.9,0.1,1.4,0.1c0,0,0,0,0,0c1.4-0.9,3.5-3.4,4.4-5.7
		c0.4-1,0.3-2.4,0.4-3.5c-0.2,0.1-0.3,0.2-0.5,0.3c-0.9,0.6-1.9,0.9-3,1c-1,0.1-2,0-3-0.2c-0.1,0-0.2,0-0.2-0.1c0,0-1.9,2.9-2.2,4.4
		C82.4,47.5,81.6,48.3,81.1,48.7z"/>
	<path class="st0" d="M62.2,17.4c-0.6,0.9-1.3,1.5-1.9,1.8c1.3,2.1,2.4,4.2,3.4,6.4c0.5-0.1,1.1-0.4,1.6-0.9
		c1.9-1.9,3.8-2.5,4.4-2.6c-0.4-0.9-0.8-1.7-1.3-2.6c-0.7-1.5-1.5-2.9-2.4-4.3C65.3,15.4,63,16.2,62.2,17.4z"/>
	<path class="st0" d="M19.9,56c-1.3-0.9-2.6-2-3.7-3.2c-0.3,0.9-1.6,4.2-3.1,4.9c-2.2,0.9-3.8,2.8-4.5,3.8c1.8,2,3.7,3.8,5.8,5.5
		c0.5-0.5,1.2-1.3,1.5-2.4C16.3,63.1,19.3,57.2,19.9,56z"/>
	<path class="st0" d="M95,95.7c0.2-0.5,0.4-1,0.5-1.5c0.1-0.5,0.3-1,0.4-1.4c0.1-2.5,1-4.7,2.3-6.8c0.6-1,1.5-1.9,2.4-2.7
		c0.2-0.2,0.5-0.4,0.7-0.6l0.7-0.5c0.2-0.2,0.5-0.3,0.7-0.5l0.7-0.5c0.5-0.3,1-0.7,1.4-1l1.5-1c0.3-0.2,0.4-0.3,0.5-0.4
		c0.1-0.1,0.2-0.3,0.2-0.5c0-0.2,0-0.3,0-0.4l-0.1-0.3l-0.1-0.4c-0.2-1.2-0.3-2.4-0.1-3.7c0.1-0.7,0.4-1.4,0.7-2.1
		c-0.2-0.2-0.5-0.5-0.7-0.7c-0.5-0.8-0.7-1.7-0.6-2.5c0-0.3,0.1-0.6,0.1-0.9c-1.4,0.4-2.7,1.1-4.1,1.7L100,70
		c-0.8,0.4-1.7,0.6-2.6,0.7c-0.5,0-0.9,0-1.4,0c-0.4,0-0.8-0.1-1.3-0.1c-0.8-0.1-1.7-0.2-2.5-0.4c-1.7-0.3-3.3-0.8-4.9-1.3
		c-3.2-1.1-6.3-2.5-9.1-4.3c-0.7-0.4-1.4-0.9-2.1-1.4l-2-1.4c-1.3-0.9-2.7-1.9-4-2.8c-2.8-1.7-5.7-3.2-8.9-4.1
		c-3.2-0.9-6.4-1.2-9.6-1.1c-3.2,0.1-6.4,0.6-9.3,1.8c-3,1.1-5.7,3-8.3,5c0,0,0,0.1-0.1,0.1c-3.8,0-7.6-0.9-11-2.7
		c-0.1,0.8-0.8,4.9-1.9,6.3c-1.7,2.1-2.3,4.8-2.5,5.9c0.7,0.5,1.5,0.9,2.3,1.4c0.8,0.5,1.7,0.9,2.5,1.4c0.6,0.3,1.2,0.6,1.9,0.9
		c0.9-2,1.9-3.9,3.3-5.6c0.8-1.1,1.8-2.1,2.8-3c0.5-0.4,1-0.9,1.6-1.3c0.5-0.4,1.2-0.8,1.7-1.1l0.1,0c0,0,0.1,0,0.1,0
		c0,0,0,0.1,0,0.1c-0.8,0.7-1.5,1.3-2.2,2c-0.2,0.3-0.4,0.6-0.6,0.9c-0.4,0.7-0.8,1.4-1.1,2.1c-0.7,1.4-1.2,2.9-1.5,4.5
		c-0.7,3.1-0.7,6.3-0.1,9.3c0.3,1.5,0.8,3,1.3,4.5c0.3,0.7,0.6,1.4,0.9,2.1c0.4,0.7,0.7,1.4,1.1,2c1.6,2.7,3.6,5.2,5.7,7.4
		c0.2,0.2,0.3,0.5,0.2,0.8c0.6,4.8,0.8,19.3-3.2,25.7c-0.7,1.5-0.8,3.6-0.6,3.9c0,0,0,0,0.1,0h18.6c-0.6-1.3-2.3-3.8-5.7-3.8
		c-0.7,0-1.3,0.1-1.8,0.2c-0.9,0.1-1.8,0.3-2.4-0.3c-0.6-0.5-0.5-1.3-0.5-1.6l0-0.2l0.1-0.2c0.2-0.3,0.6-0.8,1.2-1.6
		c2.7-3.6,9.9-13,10.4-21.4c-0.1-0.5-0.3-1.1-0.4-1.7c-0.9-3.5-2.2-8.7-5.8-13.2c-0.1-0.1-0.1-0.2-0.2-0.4c-0.3-0.6-0.6-1.1-0.8-1.7
		c-0.3-0.6-0.5-1.3-0.6-1.9c-0.2-0.6-0.3-1.3-0.4-2c-0.1-0.7-0.1-1.3-0.1-2c0.1,0.6,0.3,1.3,0.5,1.9s0.5,1.2,0.8,1.7
		c0.3,0.5,0.7,1.1,1,1.6c0.4,0.5,0.8,1,1.2,1.4l0,0c0.1,0.1,0.2,0.2,0.2,0.4c0.9,1.1,1.6,2.2,2.2,3.4c1.5,0.7,2.9,1.4,4.4,2.1
		c1.9,0.9,3.8,1.8,5.7,2.5c1,0.4,1.9,0.7,2.9,1c0.9,0.2,2,0.4,3,0.6c1,0.2,2.1,0.4,3.1,0.5c0.8,0.1,1.7,0.2,2.5,0.3
		c1.6-2.5,3.5-4.9,3.6-5.1c0.1-0.1,0.2-0.2,0.2-0.2c0.4-0.4,0.9-0.8,1.3-1.1c0.5-0.4,1-0.7,1.6-1c0.5-0.3,1.1-0.5,1.7-0.7
		c0.6-0.2,1.2-0.3,1.7-0.4c-0.5,0.3-1.1,0.5-1.5,0.8c-0.5,0.3-0.9,0.7-1.3,1.1c-0.4,0.4-0.8,0.8-1.1,1.2c-0.3,0.4-0.7,0.9-0.9,1.3
		c-0.1,0.1-0.2,0.2-0.3,0.3c-0.7,0.9-3.7,5-5,7.4c-0.1,2.6-0.2,11.9,0.3,17c0.4,3.6,1.3,9.5,2.2,12.5c0.2,0.7,0.9,1.2,1.6,1.2h13.8
		c0.1,0,0.1,0,0.1-0.1c0,0,0-0.1,0-0.1c-0.6-1.4-1.8-4-3.2-4c-0.8,0-2,0.2-3.1,0.4c-2.7,0.5-4.4,0.7-5.3-0.2
		c-0.4-0.4-0.5-0.9-0.4-1.5c0.4-1.9,3.3-18.2,3.5-20.1c0.1-0.5,4.2-1.8,5.5-2.5c1.6-0.8,3.1-1.7,4.7-2.5
		C94.5,96.9,94.7,96.3,95,95.7z"/>
	<path class="st0" d="M99.2,95c-1.4,1.2-2.7,2.6-4.2,3.7c-1.4,1.1-3,1.9-4.7,2.5c0.5,1.2,0.9,2.4,1.3,3.7l1.5,4.2
		c0.5,1.4,1,2.8,1.5,4.2c0.5,1.4,1.1,2.7,1.8,3.9l0.1,0.2l0,0.2c0.2,1.4,0.5,2.7,0.7,4.1l0.5,1.6c0.1,0.3,0.1,0.7,0.2,0.9
		c0.2,0.5,0.5,0.9,1.1,1.1c0.1,0,0.3,0.1,0.4,0.1c0.1,0,0.3,0,0.5,0l1.1,0.1c0.7,0,1.4,0.1,2.1,0.1c1.4,0,2.9,0.1,4.3,0
		c1.4,0,2.9,0,4.3-0.1l2.1-0.1l0.9,0c-0.4-1.2-1.6-2.8-2.7-3.3c-1.1-0.6-2.4-0.7-3.7-0.7c-1.4,0.1-2.7,0.3-4.2,0.5
		c-0.4,0-0.8,0.1-1.4,0c-0.2,0-0.4-0.1-0.5-0.2c-0.2-0.1-0.4-0.3-0.5-0.5c-0.2-0.4-0.3-0.7-0.4-0.9c-0.1-0.5-0.1-0.8-0.1-1.2l0-1.1
		c0-2.8,0.1-5.6,0.1-8.4c0-1.4,0-2.8,0-4.2c0-0.7-0.1-1.4-0.1-2.1c0-0.7,0-1.4,0-2.1l0-4.2c0-0.7,0-1.4-0.1-2.1
		c-0.1-0.6-0.1-1.2-0.3-1.8C100.3,93.9,99.7,94.4,99.2,95z"/>
	<path class="st0" d="M127.4,76.5c0.2-0.2,0.4-0.3,0.6-0.4c-0.4-0.4-0.9-0.8-1.3-1.2c-0.5-0.4-1-0.9-1.4-1.3
		c-0.2-0.2-0.6-0.5-0.7-0.9c-0.2-0.4-0.3-0.8-0.4-1.2c0-0.1,0-0.2,0-0.3l0-0.3c0-0.1,0-0.3,0-0.4c0-0.3,0-0.6,0-0.9
		c0-0.6-0.1-1.2-0.2-1.8c-0.1-0.6-0.3-1.1-0.5-1.7c-0.5-0.3-1-0.5-1.5-0.6c-0.8-0.1-1.5-0.1-2.3,0c-0.8,0.1-1.4,0.5-2.2,0.7
		c-0.4,0.1-0.8,0.2-1.1,0.3c-0.3,0.1-0.6,0.1-1,0.2c0,0.1,0.1,0.2,0.1,0.3c0.1,0.5,0.2,0.9,0.1,1.4c0,0,0,0.1-0.1,0.1
		c0,0-0.1,0-0.1-0.1l0,0c0-0.4-0.2-0.8-0.3-1.2c-0.2-0.4-0.3-0.8-0.6-1.1c-0.2-0.4-0.5-0.7-0.8-1c-0.3-0.3-0.6-0.5-0.9-0.8
		c-0.7-0.3-1.3-0.7-1.8-1.2c-0.1-0.1-0.2-0.2-0.3-0.3l-0.2,0.3c-0.3,0.6-0.7,1.2-1.1,1.7c-0.2,0.3-0.4,0.6-0.5,0.9
		c-0.1,0.3-0.2,0.6-0.3,0.9c-0.2,0.6-0.3,1.2-0.4,1.7c-0.1,0.5-0.1,1.1,0.1,1.5c0.2,0.5,0.6,1,1,1.4c0.4,0.5,1,1,1.4,1.6
		c0,0.1,0,0.1,0,0.1c0,0-0.1,0-0.1,0l0,0c-0.6-0.3-1.3-0.5-2-0.8c-0.1-0.1-0.3-0.2-0.4-0.2c-0.1,0.6-0.1,1.1-0.1,1.7
		c0,1.1,0.2,2.1,0.5,3.2l0.1,0.4c0,0.1,0.1,0.2,0.1,0.5c0.1,0.4,0,0.9-0.2,1.3c-0.2,0.4-0.4,0.7-0.8,0.9c-0.3,0.3-0.7,0.4-1,0.5
		c-0.5,0.2-1.1,0.4-1.6,0.6c-0.5,0.3-1,0.5-1.5,0.9c-0.4,0.4-0.9,0.7-1.3,1.1c-0.4,0.4-0.8,0.8-1.1,1.3c-0.3,0.5-0.6,0.9-0.9,1.4
		l-0.4,0.7l-0.4,0.7c-0.5,1-0.9,2-1.2,3c-0.2,0.5-0.3,1-0.4,1.5C98,92,97.8,92.5,97.8,93l0,0.2l0,0c-0.2,0.6-0.4,1.1-0.7,1.6
		c-0.3,0.5-0.6,1-0.9,1.5c0,0-0.1,0.1-0.1,0.1c1-0.5,1.9-1.1,2.7-1.9c1.3-1.2,2.5-2.7,3-4.3l0.1-0.2l0.4-0.1c1.5-0.5,3-1,4.5-1.7
		c1.4-0.7,2.8-1.5,4.1-2.4c1.3-0.9,2.5-1.9,3.5-3.1c1-1.2,1.8-2.6,2.5-4.1c0,0,0,0,0,0c0,0,0-0.1,0-0.1c0,0,0,0,0.1,0
		c0.7,0.3,1.3,0.6,2,0.8c0.6,0.2,1.3,0.5,1.9,0.7c0.7,0.2,1.4,0.4,2.1,0.5c0.7,0.1,1.4,0.1,2.1,0.1c0.3-0.1,0.5-0.2,0.8-0.4
		c0.2-0.1,0.3-0.2,0.4-0.3c-0.6,0-1.1-0.1-1.7-0.1l-0.2,0l-0.1,0c-0.5-0.3-0.9-0.6-1.4-0.9l-0.7-0.4c-0.1-0.1-0.2-0.1-0.3-0.2
		l-0.2-0.1l-0.1-0.1l0,0c0,0-0.1-0.1-0.1-0.1c0,0,0-0.1,0.1-0.1c0,0,0.1,0,0.1,0.1c0,0,0-0.1,0,0l0,0l0.1,0l0.2,0.1l0.4,0.1l0.8,0.3
		c0.5,0.2,0.9,0.3,1.4,0.5c0.6-0.1,1.1-0.1,1.7-0.2c0.5-0.1,0.9-0.3,1.2-0.5c-0.1,0-0.2-0.1-0.3-0.2C126.8,77.7,126.9,77,127.4,76.5
		z M112.5,69.7c0,0.2-0.1,0.4-0.2,0.8l0,0c0,0.1-0.1,0.1-0.1,0.1c-0.4,0-0.6-0.1-0.9-0.2c-0.2-0.2-0.4-0.3-0.6-0.6
		c-0.3-0.4-0.2-0.9-0.2-1.4c0-0.5,0-0.9,0.1-1.4c0.1-0.4,0.2-0.9,0.4-1.3c0,0,0.1-0.1,0.1,0c0,0,0,0,0.1,0.1v0
		c0.1,0.4,0.2,0.8,0.4,1.2c0.2,0.4,0.3,0.8,0.5,1.1c0.2,0.4,0.5,0.6,0.5,1C112.6,69.3,112.6,69.5,112.5,69.7z M122.7,72.4
		c-0.2,0.8-0.5,1.6-1.2,2.3c-0.4,0.3-0.8,0.6-1.3,0.7c-0.2,0-0.5,0-0.7,0c-0.6,0-1.1-0.4-1.4-0.9c-0.2-0.4-0.5-0.9-0.5-1.2
		c-0.1-0.7-0.1-1.4,0.1-2c0.2-0.6,0.5-1.2,0.9-1.7c0.4-0.5,0.8-1,1.3-1.4l0.4-0.3l0.2,0.4c0,0,0.1,0.1,0.1,0.2
		c0,0.1,0.1,0.1,0.2,0.2c0.4,0.5,0.9,0.7,1.1,0.9c0.3,0.2,0.5,0.5,0.7,0.9c0.2,0.3,0.3,0.7,0.3,1C122.7,71.7,122.7,72,122.7,72.4z"
		/>
	<path class="st0" d="M121.2,70.3c-0.8,0-1.4,0.7-1.4,1.6c0,0.9,0.6,1.6,1.4,1.6c0.2,0,0.4-0.1,0.6-0.2l0,0c0.3-0.1,0.5-0.4,0.6-0.7
		l0,0c0-0.1,0.1-0.2,0.1-0.3v0c0-0.1,0-0.2,0-0.4c0-0.4-0.1-0.8-0.4-1.1C122,70.5,121.6,70.3,121.2,70.3z M122.6,72
		c0,0.4-0.3,0.7-0.6,0.7s-0.6-0.3-0.6-0.7c0-0.4,0.3-0.7,0.6-0.7S122.6,71.6,122.6,72z"/>
	<path class="st0" d="M14,50.1l0.3,0.3c-0.1-0.1-0.2-0.3-0.3-0.4c-0.9-1.3-1.7-2.6-2.4-4c-0.6,0.9-2,2.7-3.5,2.7
		c-2.6,0.1-4.7,2.2-5.5,3.3c0.8,1.9,1.7,3.6,2.8,5.3c0.9-0.8,2.7-2.2,3.9-2.6C11.1,54,14,50.1,14,50.1z"/>
	<path class="st0" d="M13.8,67.5l0.5,0.3C14.2,67.7,14,67.6,13.8,67.5C13.8,67.5,13.8,67.5,13.8,67.5z"/>
	<path class="st0" d="M86.6,50c3.2,0.1,6.3-1.1,9-2.9c1.5-1,3-2.2,4-3.7c0.5-0.7,0.8-1.5,0.9-2.3c0-0.4,0-0.8-0.1-1.2
		c-0.1-0.4-0.3-0.8-0.5-1.1c-0.4-0.7-1.1-1.2-1.9-1.3c-0.8-0.1-1.6,0.1-2.4,0.5c-1.5,0.7-2.8,1.9-4.2,2.9c-0.1,1.1,0,2.5-0.4,3.5
		C90.2,46.5,88,49,86.6,50z"/>
</g>
</svg>
