<?xml version="1.0" encoding="utf-8"?>
<!-- Generator: Adobe Illustrator 18.1.0, SVG Export Plug-In . SVG Version: 6.00 Build 0)  -->
<svg version="1.1" baseProfile="tiny" id="Layer_1" xmlns="http://www.w3.org/2000/svg" xmlns:xlink="http://www.w3.org/1999/xlink"
	 x="0px" y="0px" viewBox="0 0 128 128" 
width="128" height="128"
xml:space="preserve">
<g>
	<g>
		<path fill="#2D2D2D" d="M36,50.5L32.3,49c-0.2-0.1-0.5-0.1-0.7-0.1c-0.8,0-1.5,0.5-1.8,1.2L0.1,123.8c-0.4,1,0.1,2.1,1.1,2.5
			l3.7,1.5c1,0.4,2.1-0.1,2.5-1.1L37.1,53C37.5,52,37,50.9,36,50.5z"/>
		<path fill="#2D2D2D" d="M16.7,77.2l-6.2-2.5c-0.1,0-0.2,0-0.2,0c0,0-0.1,0.1-0.2,0.2l-7,17.4c-0.1,0.2,0,0.3,0.2,0.4l6.2,2.5
			L16.7,77.2z"/>
	</g>
	<g>
		<path fill="#2D2D2D" d="M81.7,16.4l7.9-7.1C89.7,9.2,89.9,9.1,90,9L75.5,0.4c-0.9-0.6-2-0.6-2.7,0.1l-9.1,8.7l5.1,7.1H81.7z"/>
		<path fill="#2D2D2D" d="M117.5,16.4l-6.9-9.5C110,6,108.9,5.8,108,6.2l-10.4,4.9l8.8,5.2H117.5z"/>
		<path fill="#2D2D2D" d="M102.4,16.4L93.2,11l-0.6-0.3c-0.5-0.3-1.2-0.3-1.7,0.2l-6.2,5.6H102.4z"/>
		<path fill="#2D2D2D" d="M59.4,6.9c-0.6-0.8-1.6-1.1-2.5-0.7L43.7,16.4h22.5L59.4,6.9z"/>
		<path fill="#2D2D2D" d="M43.2,124.9c0.1,1.7,1.5,3.1,3.2,3.1h67.9c1.7,0,3.1-1.4,3.2-3.1l0.3-6.5H42.9L43.2,124.9z"/>
		<path fill="#2D2D2D" d="M58.5,104.1h3.3c0.9,0,1.6-0.7,1.6-1.6V40.2c0-0.9-0.7-1.6-1.6-1.6h-3.3c-0.9,0-1.6,0.7-1.6,1.6v62.3
			C56.9,103.3,57.6,104.1,58.5,104.1z"/>
		<path fill="#2D2D2D" d="M78.8,104.1h3.3c0.9,0,1.6-0.7,1.6-1.6V40.2c0-0.9-0.7-1.6-1.6-1.6h-3.3c-0.9,0-1.6,0.7-1.6,1.6v62.3
			C77.2,103.3,78,104.1,78.8,104.1z"/>
		<path fill="#2D2D2D" d="M125.8,18.4H82.3c-0.1,0-0.1,0-0.2,0c-0.1,0-0.1,0-0.2,0H34.8c-1.2,0-2.2,1-2.2,2.2v3.8
			c0,1.2,1,2.2,2.2,2.2h91c1.2,0,2.2-1,2.2-2.2v-3.8C128,19.4,127,18.4,125.8,18.4z"/>
		<path fill="#2D2D2D" d="M42.8,116.4h75.1l4.2-87.8H38.5L42.8,116.4z M95.5,40.2c0-2,1.6-3.6,3.6-3.6h3.3c2,0,3.6,1.6,3.6,3.6v62.3
			c0,2-1.6,3.6-3.6,3.6h-3.3c-2,0-3.6-1.6-3.6-3.6V40.2z M75.2,40.2c0-2,1.6-3.6,3.6-3.6h3.3c2,0,3.6,1.6,3.6,3.6v62.3
			c0,2-1.6,3.6-3.6,3.6h-3.3c-2,0-3.6-1.6-3.6-3.6V40.2z M54.9,40.2c0-2,1.6-3.6,3.6-3.6h3.3c2,0,3.6,1.6,3.6,3.6v62.3
			c0,2-1.6,3.6-3.6,3.6h-3.3c-2,0-3.6-1.6-3.6-3.6V40.2z"/>
		<path fill="#2D2D2D" d="M99.1,104.1h3.3c0.9,0,1.6-0.7,1.6-1.6V40.2c0-0.9-0.7-1.6-1.6-1.6h-3.3c-0.9,0-1.6,0.7-1.6,1.6v62.3
			C97.5,103.3,98.3,104.1,99.1,104.1z"/>
	</g>
</g>
</svg>
