<?xml version="1.0" encoding="utf-8"?>
<!-- Generator: Adobe Illustrator 24.1.2, SVG Export Plug-In . SVG Version: 6.00 Build 0)  -->
<svg version="1.1" id="Layer_1" xmlns="http://www.w3.org/2000/svg" xmlns:xlink="http://www.w3.org/1999/xlink" x="0px" y="0px"
	 viewBox="0 0 128 128" style="enable-background:new 0 0 128 128;" xml:space="preserve">
<style type="text/css">
	.st0{fill:#2D2D2D;}
</style>
<g>
	<path class="st0" d="M37.2,104.8c1.7,1.2,3.4,2.4,5.3,3.1l-0.1-0.1c-0.2-0.2-0.4-0.5-0.6-0.7c-0.4-0.5-0.7-1-1-1.6
		c-0.3-0.5-0.6-1.1-0.7-1.7c-0.2-0.7-0.3-1.3-0.4-2c-0.1-1.3,0-2.6,0.3-3.8c0.3-1.2,0.8-2.4,1.7-3.3c0,0,0.1,0,0.1,0
		c0,0,0,0.1,0,0.1c-0.6,1-0.9,2.2-1,3.4c-0.1,1.2-0.1,2.4,0.1,3.5c0.1,0.6,0.3,1.1,0.6,1.6c0.3,0.5,0.5,1.1,0.7,1.6
		c0.2,0.6,0.4,1.2,0.6,1.8c0.1,0.3,0.2,0.6,0.2,0.9c0,0.2,0.1,0.3,0.1,0.5l0,0.2c0.9,0.3,1.9,0.6,2.9,0.8c1.1,0.3,2.1,0.5,3.2,0.7
		c2.1,0.4,4.3,0.7,6.5,0.9l3.3,0.3c0.6,0.1,1.2,0.2,1.7,0.4c0.5,0.2,0.9,0.5,1.3,0.7c0.4-0.7,0.5-1.5,0.7-2.3
		c0.2-0.9,0.3-1.7,0.4-2.6c0.1-0.9,0-1.7-0.3-2.5c-0.1-0.4-0.3-0.7-0.5-1.1c-0.3-0.4-0.6-1-0.4-1.7c0.2-0.7,0.7-1.1,1.1-1.4
		c0.4-0.3,0.8-0.5,1.3-0.7c0.8-0.4,1.6-0.6,2.4-0.9c1.5-0.6,2.9-1.7,4.3-2.6c1.1-0.8,2.4-1.5,3.6-1.9c-0.1,0-0.1-0.1-0.2-0.1
		c-1-0.3-2.1-0.3-3.3-0.4c-0.3-0.1-0.7-0.1-1.1-0.4c-0.2-0.2-0.4-0.5-0.4-0.8c0-0.3,0.1-0.5,0.1-0.7c0.3-0.7,0.7-1.2,1.1-1.6
		c0.7-0.9,1.4-1.9,2.3-2.7c0.4-0.4,0.9-0.8,1.4-1.1c0.5-0.3,1.1-0.5,1.7-0.7c0.7-0.2,1.4-0.3,2.1-0.5c-1-0.6-1.9-1.2-2.9-1.8
		c-2.1-1.2-4.3-2.1-6.6-2.7c-1.2-0.3-2.4-0.5-3.5-0.5c-0.6-0.1-1.2,0-1.8,0c-0.6,0.1-1.1,0.1-1.7,0.3c-1.7,0.3-3.3,0.8-4.9,1.5
		c0.4,0.1,0.7,0.4,0.9,0.6c0.8,0.7,1.3,1.6,2,2.3c0.2,0.1,0.4,0.3,0.6,0.6l0.2,0.2c0,0.1,0.1,0.2,0.1,0.3c0,0.1,0,0.3,0,0.4
		c0,0.1-0.1,0.3-0.2,0.4c-0.3,0.3-0.5,0.4-0.8,0.6l-0.7,0.4c-0.8,0.5-1.6,1.1-2.3,1.7c-0.3,0.3-0.7,0.7-1,1.1
		c-0.3,0.3-0.6,0.7-0.7,1c-0.1,0.2,0.1,0.7,0.2,1.2c0.1,0.5,0.2,1,0.3,1.6c0.2,1.1,0.2,2.1,0.3,3.2c0,0.5,0,1.1-0.1,1.7
		c0,0.3-0.2,0.7-0.4,1c-0.3,0.3-0.6,0.6-0.8,0.7c-0.5,0.3-0.8,0.5-1.1,0.8c-0.2,0.2-0.3,0.3-0.5,0.5l-0.6,0.6
		c-0.1,0.1-0.2,0.2-0.3,0.3c-0.1,0.1-0.2,0.2-0.4,0.3c-0.3,0.2-0.8,0.3-1.2,0.2c-0.9-0.3-1.2-0.8-1.6-1.1c-0.7-0.8-1.3-1.6-2-2.2
		c-0.3-0.3-0.7-0.6-1.1-0.8c-0.4-0.2-0.9-0.5-1.4-0.9l-0.3-0.3c-0.1-0.1-0.2-0.3-0.3-0.4c-0.2-0.3-0.2-0.7-0.2-1.1
		c0.1-0.7,0.3-1.2,0.5-1.6c0.2-0.5,0.3-0.9,0.4-1.4c0-0.4,0-0.9-0.1-1.4c-0.1-0.4-0.3-0.8-0.7-1c-0.3-0.2-0.9-0.4-1.4-0.3
		c-0.7,0.2-1.7,0.3-2.6,0.4c-0.3,0.2-0.5,0.4-0.8,0.6c-1.5,1.2-2.8,2.7-4.1,4.2c-1.3,1.5-2.6,3.1-4,4.6l0,0l0,0
		c-1.1,0.9-2.1,1.9-3.1,3c-1,1-2,2.1-3.1,3.1c-0.3,0.2-0.6,0.5-1,0.7c-0.4,0.2-0.8,0.3-1.1,0.4c-0.7,0.2-1.4,0.4-2,0.6
		c-1.3,0.5-2.4,1.4-3.2,2.6l0,0l0,0c-1.2,1-2.6,1.8-4,2.5c-1.4,0.7-2.8,1.4-4.3,1.9c-0.4,0.2-0.8,0.3-1.2,0.4
		c0.6,0.3,1.5,0.9,2.3,1.2c0.5-0.4,1-0.8,1.6-1.1l3-1.6l3-1.6l0.3-0.2l0.3,0.1c0.5,0.1,1.1,0.1,1.7,0c0.6-0.1,1.1-0.3,1.6-0.7
		c0.2-0.2,0.5-0.4,0.7-0.6l0.8-0.7l1.6-1.4l0.1-0.1l0.2,0c1.1-0.2,2.3-0.6,3.2-1.3c0.5-0.3,0.9-0.7,1.2-1.1c0.4-0.6,0.8-1.1,1.3-1.6
		c0.9-0.9,1.9-1.7,2.9-2.5c1-0.8,2-1.5,2.9-2.4c0,0,0.1,0,0.1,0c0,0,0,0.1,0,0.1c-0.8,1-1.8,1.8-2.7,2.7c-0.3,0.3-0.5,0.5-0.8,0.7
		c-0.2,1.6,0,3.1,0.5,4.5c0.6,1.7,1.8,3,3.3,3.4c1.5,0.5,3.3,0.1,5.1-0.3c1.2-0.3,2.5-0.8,3.7-1.2c-1-0.3-2-0.7-3-1.2
		C40.3,108.2,38.6,106.6,37.2,104.8z"/>
	<path class="st0" d="M44.6,84.9c-0.1,0-0.1-0.1-0.2-0.1c-0.5-0.3-0.9-0.5-1.3-0.8c-0.4-0.3-0.9-0.6-1.3-0.9
		c-0.8-0.6-1.5-1.2-2.2-1.9c0,0.2-0.1,0.4-0.2,0.6c-0.3,1.2-0.9,2.3-1.5,3.3c-1.2,2.1-2.8,3.9-4.5,5.6c-0.8,0.8-1.5,1.5-2.4,2.2
		c0.4,0.9,0.7,1.8,1,2.7c0.1,0.3,0.2,0.6,0.3,1c0.4-0.4,0.8-0.9,1.2-1.3c1-1.1,2.1-2.2,3.2-3.2c0-0.1,0.1-0.2,0.1-0.3
		c0.1-0.2,0.3-0.4,0.5-0.6l0.5-0.3c1.2-0.8,2.4-1.9,3.6-2.9C42.6,87,43.6,86,44.6,84.9z"/>
	<path class="st0" d="M49.2,86.1l-0.7,0.4c0.1,0,0.3-0.1,0.4-0.1C49,86.2,49.1,86.2,49.2,86.1z"/>
	<path class="st0" d="M56.3,125.8c0,0,2.5,2.2,2.6,2.2c0.1,0,2-2.8,2.1-2.8c0,0-2.6-1.6-2.6-1.6L56.3,125.8z"/>
	<path class="st0" d="M32.2,108.9c-0.3-1-0.3-2-0.2-3c0.1-0.5,0.2-0.9,0.3-1.4c-0.1,0.1-0.3,0.3-0.4,0.4c-0.4,0.8-0.8,1.7-1.1,2.6
		c-0.5,1.2-0.9,2.5-1.6,3.8c-0.3,0.6-0.7,1.3-1.4,1.8c-0.2,0.1-0.3,0.2-0.5,0.3l-0.4,0.3l-0.9,0.5c-0.6,0.3-1.2,0.6-1.7,0.9
		c-0.5,0.3-1.1,0.7-1.3,1l-0.1,0.2l-0.2,0.1c-0.8,0.3-1.6,0.5-2.5,0.7c-0.6,0.1-1.2,0.3-1.8,0.3c0,0.4,0.1,1,0.1,1.6
		c1-0.2,1.9-0.2,2.7-0.3c0.5-0.1,0.9-0.2,1.1-0.4c0.1,0,0.1-0.1,0.1-0.1c0,0,0,0,0.1-0.1l0.2-0.2c0.2-0.3,0.5-0.5,0.7-0.7
		c1-0.7,2-1.1,2.9-1.5c0.4-0.2,0.8-0.5,1.2-0.8c0.4-0.3,0.7-0.6,1.2-1c1.3-1.2,2.9-2,4.3-2.9C32.7,110.3,32.4,109.6,32.2,108.9z"/>
	<polygon class="st0" points="45.6,123 48.4,126.1 52,124.4 49.5,121.7 	"/>
	<path class="st0" d="M2.2,118.6l4.3,1.7l2.1-2.2c0,0-1.8-1.1-1.9-1.1L2.2,118.6z"/>
	<path class="st0" d="M54,90.7c0.1-0.1,0.2-0.3,0.3-0.4c0.2-0.3,0.4-0.5,0.6-0.6c0.4-0.4,0.7-0.7,1.1-1.1c0.8-0.7,1.7-1.3,2.7-1.7
		l0.7-0.3c0.2-0.1,0.4-0.2,0.5-0.3v0l-0.1-0.1c-0.1-0.2-0.3-0.3-0.5-0.5c-0.7-0.8-1.2-1.8-1.8-2.5c-0.3-0.3-0.6-0.6-1-0.8
		c-0.4,0.2-0.9,0.4-1.3,0.6c-2.1,1-4.2,2.3-6.2,3.7c0,0-0.1,0-0.1,0c-1.8,0.7-3.6,1.4-5.2,2.3c-1.3,0.7-2.6,1.5-3.8,2.3
		c0.7-0.3,1.5-0.5,2.1-0.7c0.5-0.2,1.1,0,1.7,0.2c0.6,0.3,0.9,0.8,1.1,1.3c0.2,0.5,0.3,1.1,0.3,1.7c0,0.6-0.1,1.1-0.3,1.7
		c-0.1,0.5-0.3,1-0.3,1.4c0,0.3,0.1,0.5,0.5,0.8c0.3,0.3,0.7,0.4,1.2,0.7c0.5,0.3,1,0.6,1.4,0.9c0.9,0.7,1.6,1.5,2.2,2.2
		c0.3,0.3,0.7,0.6,0.8,0.7c0.1,0,0.1,0,0.2,0c0.1,0,0.1-0.1,0.2-0.1c0.1,0,0.1-0.1,0.2-0.2l0.2-0.2l0.3-0.3c0.2-0.2,0.4-0.4,0.6-0.6
		c0.4-0.4,1-0.7,1.4-1c0.4-0.3,0.4-0.2,0.5-0.7c0.1-0.4,0.1-0.9,0.1-1.4c0-1-0.1-2-0.2-3c-0.1-0.5-0.1-1-0.2-1.5
		c0-0.3-0.1-0.5-0.1-0.8c0-0.3-0.1-0.7,0.1-1C53.8,91,53.9,90.8,54,90.7z"/>
	<polygon class="st0" points="13.7,118 13.5,120.1 17.5,119.3 17.1,117.6 	"/>
	<path class="st0" d="M121.2,114.3c-0.7-0.2-1.5-0.4-2.3-0.5c-0.8-0.1-1.6-0.1-2.4-0.1c0,0-0.1,0-0.1-0.1c0,0,0-0.1,0.1-0.1
		c0.8-0.2,1.6-0.4,2.4-0.5c0.8-0.1,1.5-0.1,2.3,0c-0.2-0.4-0.2-1-0.1-1.4c0.2-0.5,0.5-1,0.9-1.3c0.4-0.3,0.9-0.5,1.5-0.6h0
		c-0.8-0.7-1.6-1.5-2.3-2.2c-0.4-0.4-0.7-0.8-1.1-1.1l-0.3-0.3l-0.1-0.1l-0.2-0.2c-0.2-0.3-0.3-0.5-0.5-0.8
		c-0.2-0.5-0.4-1.1-0.6-1.5c-0.2-0.4-0.4-0.9-0.6-1.1c-0.2-0.2-0.6-0.3-1-0.4c-0.4-0.1-0.9-0.1-1.5-0.1c-1,0-2.1,0-3.1-0.1
		c-1.7-0.1-3.4-0.4-5.1-0.9c0.5,1,0.8,2.1,0.9,3.3c0,0,0,0.1-0.1,0.1c0,0-0.1,0-0.1,0c-0.6-1.1-1.2-2.1-1.9-3
		c-0.7-0.9-1.4-1.7-2.2-2.3c-0.9-0.6-2-1.1-3.1-1.3c-1-0.2-2.1-0.2-3.1,0c0,0.6-0.1,1.1-0.1,1.6c0,0.3,0,0.6,0,0.8
		c0,0.2,0.1,0.4,0.2,0.5c0.2,0.3,0.6,0.5,1.1,0.7c0.6,0.2,1.1,0.5,1.7,0.7c1.1,0.5,2.2,1,3.3,1.3c0.3,0.1,0.6,0.1,0.8,0.2
		c0.2,0,0.7,0.1,1,0.2c0.4,0.1,0.7,0.3,1,0.6c0.2,0.3,0.3,0.7,0.2,1.1c0,0-0.1,0.1-0.1,0.1c0,0-0.1,0-0.1-0.1v0
		c-0.1-0.3-0.2-0.6-0.4-0.7c-0.2-0.1-0.4-0.2-0.7-0.2c-0.5,0-1.2,0.2-1.9,0.1c-1.4-0.1-2.6-0.5-3.8-1c-0.6-0.3-1.2-0.5-1.7-0.8
		c-0.6-0.3-1.3-0.7-1.8-1.5c-0.2-0.4-0.3-0.9-0.3-1.3c0-0.4,0.1-0.8,0.2-1.1c0.2-0.6,0.4-1.2,0.6-1.8l0.1-0.3h0.2
		c1.1,0,2.2,0.1,3.3,0.2c-0.9-0.6-1.8-1.2-2.7-1.8c-0.5-0.3-1-0.7-1.5-1c-0.4-0.2-0.8-0.4-1.2-0.5c0,0,0,0.1,0,0.1
		c-0.1,0.3-0.3,0.6-0.5,0.8c-0.4,0.4-1,0.7-1.5,1c-1.1,0.5-2.2,0.8-3.4,0.9c-0.6,0-1.2,0-1.8,0c-0.3,0-0.6-0.1-0.8-0.1
		c-0.2,0-0.5,0-0.7,0.1c-0.2,0.1-0.2,0.1-0.3,0.3c-0.1,0.2-0.1,0.4-0.1,0.7c0,0.5,0,1.2,0,1.8c0,0.6-0.1,1.3-0.4,2
		c-0.3,0.6-0.7,1.2-1.2,1.7c-0.5,0.4-1.1,0.8-1.6,1c-0.5,0.3-1,0.6-1.6,0.8c-0.5,0.3-1.1,0.5-1.7,0.7c-0.3,0.1-0.6,0.2-1,0.2
		c-0.4,0.1-0.8,0-1.2-0.1c-0.7-0.3-1.2-0.6-1.7-0.9c-0.3-0.2-0.5-0.3-0.8-0.5c-0.3-0.2-0.7-0.6-0.8-1c-0.4-0.9-0.2-1.7,0-2.3
		c0.2-0.6,0.4-1.2,0.7-1.8c0.5-1.1,1-2.1,1.2-3.1c0-0.2,0.1-0.4,0.1-0.6c0-0.2-0.1-0.3-0.2-0.4c0-0.1-0.1-0.1-0.2-0.2
		c-0.1,0-0.2-0.1-0.3-0.1c-1.3,0.7-2.4,1.6-3.5,2.6c-0.7,0.6-1.3,1.1-2.1,1.7c-0.7,0.5-1.5,1-2.4,1.4c-0.8,0.4-1.6,0.7-2.4,1
		c-0.4,0.2-0.8,0.3-1.1,0.5c-0.3,0.2-0.5,0.4-0.6,0.5c-0.1,0.2,0,0.5,0.2,0.8c0.2,0.4,0.4,0.9,0.5,1.4c0.2,1,0.1,1.9,0,2.8
		c-0.1,0.9-0.3,1.8-0.5,2.6c-0.2,0.9-0.3,1.8-0.8,2.6c-0.4,0.9-1.3,1.5-2.2,1.8c-0.1,0-0.3,0.1-0.3,0.1c-0.1,0-0.2,0.1-0.2,0.1
		c-0.2,0.1-0.4,0.2-0.6,0.3c-0.4,0.2-0.7,0.4-1.1,0.7c-1.4,0.9-2.9,1.9-4.3,3l-3.4,2.4c0.6,0.7,1.8,1.9,2.8,2.5
		c0.1-0.1,0.2-0.2,0.3-0.3c0.1-0.1,0.2-0.2,0.2-0.3c0.1-0.2,0.2-0.3,0.3-0.5c1.8-2.2,3.8-4,6-5.8c1.1-0.9,2.2-1.7,3.4-2.5
		c0.6-0.4,1.2-0.7,2.1-0.9c0.3-0.1,0.4,0,0.6-0.1c0.2,0,0.4,0,0.6,0c0.4,0,0.7,0.1,1,0.1c0.1,0,0.3,0,0.3,0s0,0,0.1,0
		c0.1-0.1,0.3-0.4,0.4-0.7c0.2-0.6,0.4-1.3,0.7-1.9c0.1-0.3,0.3-0.7,0.5-1c0.2-0.3,0.5-0.6,0.8-0.8c0.5-0.4,1-0.9,1.4-1.4
		c0,0,0.1,0,0.1,0c0,0,0,0.1,0,0.1c-0.3,0.6-0.7,1.2-1.2,1.7c-0.2,0.3-0.4,0.5-0.5,0.7c-0.1,0.3-0.2,0.6-0.3,0.9
		c-0.1,0.3-0.1,0.6-0.2,0.9c1.2-0.6,2.4-1.3,3.6-2c1.3-0.7,2.7-1.4,4.1-1.9c0.7-0.3,1.4-0.5,2.2-0.7c0.7-0.2,1.4-0.3,2.1-0.4
		c1.4-0.3,2.8-0.6,4.3-0.9h0c0.1,0,0.1,0,0.1,0.1c0,0,0,0.1,0,0.1c-1.1,1.1-2.5,1.9-3.9,2.4c-0.7,0.3-1.5,0.4-2.2,0.5
		c-0.7,0-1.4,0.2-2.1,0.3c-1.4,0.4-2.8,0.9-4.1,1.4c-1.3,0.5-2.6,1.1-4,1.4c-0.1,0.3-0.1,0.6-0.2,0.9c-0.1,0.4-0.2,0.7-0.5,1.1
		c-0.1,0.2-0.3,0.3-0.6,0.4c-0.1,0.4-0.2,0.8-0.4,1.2c-0.4,1.1-1.2,2.2-2.1,2.9c-0.9,0.8-1.9,1.3-3,1.8c-0.3,0.1-0.6,0.2-0.8,0.3
		c-0.2,0.1-0.4,0.2-0.7,0.3c-0.4,0.2-0.9,0.5-1.3,0.8c-0.4,0.3-0.8,0.6-1.2,0.9c0.7,0.4,2,1.1,3,1.4c0.3-0.3,0.6-0.6,1-0.9
		c0.4-0.4,1-0.7,1.5-1l1.4-0.8c1-0.6,2-1.1,3.2-1.4c0.3-0.1,0.6-0.1,0.8-0.2c0.2,0,0.4-0.1,0.6-0.2c0.3-0.2,0.7-0.5,0.9-0.8
		c0.1-0.1,0.1-0.2,0.2-0.3l0.2-0.4c0.2-0.3,0.4-0.5,0.5-0.8c0.4-0.4,0.8-0.9,1.2-1.3c1.6-1.4,3.4-2.3,5-3.4c-0.1,0-0.2-0.1-0.3-0.1
		c0.1,0,0.3,0,0.4,0c0.1-0.1,0.3-0.2,0.4-0.3l0,0c0,0,0.1,0,0.1,0c0,0,0,0.1,0,0.1c-0.1,0.1-0.1,0.1-0.2,0.2c0.8,0.1,1.6,0,2.3-0.2
		c1-0.2,1.9-0.6,2.9-1.1l1.4-0.7l0.4-0.2l0.4-0.2c0.3-0.1,0.6-0.2,0.9-0.2c1.2-0.2,2.4,0,3.5,0.4c1.1,0.3,2.1,0.9,3,1.2
		c0.3,0.1,0.8,0.2,1.3,0.2c0.5,0,1,0,1.5,0l3.1-0.1c1.1,0,2.1-0.1,3.2-0.1h0.2l0.1,0c0.6,0.2,1.3,0.4,1.9,0.5c0.7,0.1,1.3,0.2,2,0.3
		c1.3,0.2,2.5,0.2,3.8,0.4c0,0,0-0.1,0.1-0.1c0.1,0,0.3,0,0.4,0.1c0.1,0.1,0.2,0.3,0.3,0.4c0.1,0.3,0.1,0.6,0.2,0.8
		c0.1,0.5,0.4,0.9,0.7,1.1c0.7,0.4,1.8,0.5,2.8,0.6c2,0.1,4.1-0.1,6.2-0.2c0.6,0,1.2-0.1,1.9,0c-0.1-0.1-0.3-0.2-0.4-0.3
		C122.6,115,122,114.6,121.2,114.3z M115.5,104.8c-0.5-0.4-1-0.8-1.8-1.6c0.5-0.3,1-0.4,1.4-0.3c0.5,0.1,1,0.3,1.4,0.6
		c0.8,0.6,1.2,1.8,0.7,2.8c-0.4-0.3-0.7-0.6-1-0.9C116,105.2,115.8,105,115.5,104.8z"/>
	<path class="st0" d="M81.6,87.4c-0.8-0.7-1.8-1.4-2.8-2c-0.7,0.2-1.4,0.4-2.1,0.7c-0.5,0.2-1,0.5-1.5,0.8c-0.4,0.3-0.8,0.7-1.2,1.2
		c-0.7,0.9-1.3,1.9-2,2.8c-0.3,0.5-0.7,0.9-0.8,1.4c0,0,0,0.1,0,0.1c0.1,0,0.3,0.1,0.5,0.1c1.1,0.1,2.3,0,3.5,0.3
		c0.3,0.1,0.6,0.2,0.9,0.3c0.2,0.1,0.3,0.2,0.5,0.3c0.2,0.1,0.3,0.2,0.5,0.4c0.3,0.3,0.5,0.8,0.5,1.2c0.1,0.4,0,0.8,0,1.1
		c-0.3,1.3-0.8,2.4-1.3,3.5c-0.2,0.5-0.4,1-0.6,1.5c-0.1,0.5-0.2,1-0.1,1.2c0.1,0.1,0.1,0.2,0.3,0.3l0.7,0.4c0.5,0.3,1,0.6,1.3,0.8
		c0.6,0.3,1.7-0.3,2.7-0.7l1.5-0.7c0.6-0.3,1-0.5,1.4-0.8c0.8-0.6,1.2-1.5,1.3-2.6c0.1-0.5,0-1.1,0.1-1.8c0-0.3,0.1-0.7,0.2-1.1
		c0.2-0.4,0.6-0.7,1-0.8c0.8-0.2,1.4-0.1,2,0c0.6,0.1,1.1,0.1,1.7,0.1c1.1,0,2.2-0.1,3.3-0.5c0.5-0.2,1.1-0.4,1.5-0.8
		c0.2-0.2,0.4-0.4,0.5-0.6c0,0,0,0,0-0.1c-0.1,0-0.1,0-0.2-0.1c-0.3-0.1-0.5-0.1-0.8-0.1c-0.3,0-0.6,0-0.9-0.1
		c-0.6-0.1-1.3-0.2-1.9-0.4c-1.2-0.3-2.4-0.8-3.5-1.3C85.6,90.6,83.5,89.2,81.6,87.4z"/>
	<path class="st0" d="M5.3,95.2c1.5,0.4,3.2,0.5,4.8,0.4c0.8-0.1,1.6-0.3,2.3-0.6c0.7-0.3,1.5-0.7,2.2-1.1c2.7-1.8,4.8-4.6,6.3-7.6
		c0.7-1.5,1.3-3.1,1.7-4.8c0.2-0.8,0.3-1.7,0.4-2.5c0-0.4,0.1-0.9,0.4-1.3c0.2-0.2,0.4-0.3,0.6-0.3c0.1,0,0.1,0,0.2,0
		c0.2,0,0.3,0,0.5,0.1c0.4,0.1,0.8,0.5,0.9,0.8c0.2,0.4,0.3,0.8,0.5,1.1c0.3,0.8,0.5,1.6,0.6,2.4c0.3,1.6,0.4,3.3,0.3,4.9
		c-0.1,0.8-0.2,1.7-0.4,2.5c-0.2,0.8-0.5,1.6-0.9,2.3c-0.7,1.5-1.7,2.7-2.9,3.8c0.2,0.9,0.4,1.9,0.6,2.8c0.3,1,0.6,1.9,1,2.8
		c0.4,0.9,0.9,1.7,1.4,2.5c0.1,0.1,0.1,0.2,0.2,0.2c0.2-0.3,0.4-0.5,0.7-0.8c0.6-0.6,1.2-1.3,1.8-1.9c-0.1-0.6-0.2-1.2-0.3-1.8
		c-0.1-1.2-0.2-2.5,0-3.7c0.1-0.3,0.1-0.6,0.2-1c0.1-0.3,0.3-0.7,0.7-0.9c0.5-0.3,0.9-0.6,1.4-1c0.9-0.7,1.8-1.5,2.6-2.3
		c1.7-1.6,3.3-3.3,4.6-5.3c0.6-1,1.2-2,1.6-3.1c0.4-1.1,0.5-2.3,0.2-3.5l0.1,0c0.3,0.9,0.3,1.8,0.2,2.8c1.5,1.3,3.3,2.3,5.1,3.2
		c1.5,0.7,3,1.3,4.6,1.7c1.5-1.7,3.3-3,5.2-4.2c1.1-0.6,2.2-1.2,3.4-1.6c1.2-0.5,2.4-0.8,3.6-0.9c2.6-0.3,5,0.4,7.3,1.1
		c1.7,0.5,3.4,1.1,5,1.7c0.2-0.3,0.4-0.5,0.6-0.8c0.4-0.7,0.8-1.4,0.8-2.1c0-0.1,0-0.2,0-0.3v-0.3c0-0.2,0-0.5,0-0.7
		c0-0.4,0.1-0.9,0.1-1.3c0.1-0.9,0.3-1.8,0.5-2.6c0.2-0.9,0.5-1.7,0.8-2.5c0.2-0.4,0.4-0.8,0.6-1.2c0.1-0.2,0.2-0.4,0.4-0.6
		c0.2-0.2,0.3-0.3,0.4-0.5c0.6-0.6,1.2-1.3,1.9-1.8c0.3-0.3,0.7-0.5,1.1-0.8c0.2-0.1,0.5-0.3,0.8-0.3c-0.2-0.2-1.2-1.1-1.6-1.4
		l-0.1-0.1l0-0.1c-0.1-0.3-0.1-0.6-0.1-0.9c0-0.3-0.1-0.6,0-0.9c0-0.3,0.1-0.6,0.3-0.9c0.2-0.3,0.4-0.5,0.7-0.6l0.1,0.1l-0.1,0.8
		c0,0.3,0,0.5-0.1,0.8c-0.1,0.3-0.1,0.5-0.2,0.8c0,0.2,0,0.5-0.1,0.7c0.4,0.4,0.9,0.8,1.3,1.3c0.4,0.1,0.8,0.2,1.2,0.3h0.1l0.2,0
		c0.1,0,0.2,0,0.3,0.1c0.2,0.1,0.4,0.2,0.5,0.3c0.3,0.2,0.6,0.5,0.8,0.7c0.2,0.2,0.5,0.5,0.7,0.6c0.1,0.1,0.2,0.1,0.3,0.2
		c0.1,0,0.2,0,0.4,0c0.5-0.2,0.9-0.7,1.2-1.2c-0.6-0.4-1.1-0.9-1.6-1.4l0-0.1c0.7,0.2,1.3,0.5,2,0.8c0.3-0.4,0.7-0.9,1-1.3
		c-0.4-0.2-1-0.7-0.4-0.7c0.6,0,0.4-0.5,0.6-0.7c-0.3-0.5-0.6-1.1-0.9-1.7c-0.3-0.6-0.7-1.2-1.1-1.7l0,0l0-0.1
		c-0.1-0.5-0.4-0.9-0.7-1.3c-0.3-0.4-0.6-0.8-0.9-1.2c-0.3-0.4-0.7-0.7-1-1.1c-0.3-0.3-0.7-0.6-1.1-1c0,0.1-0.1,0.2-0.1,0.4h-0.1
		c-0.2-0.7-0.3-1.4-0.4-2.1c0-0.3,0-0.7,0-1c0-0.2,0-0.3,0-0.5c-0.5,0.2-1,0.6-1.5,1c-0.6,0.6-1.1,1.3-1.5,2l0,0
		c-0.8,0.3-1.6,0.6-2.3,1c-0.8,0.3-1.5,0.7-2.3,1.1c-1.5,0.8-3,1.5-4.5,2.3c-3,1.6-5.9,3.3-8.7,5.1L61.8,65
		c-0.2,0.1-0.4,0.3-0.6,0.4c-0.4,0.2-0.8,0.4-1.2,0.6c-0.8,0.3-1.7,0.6-2.5,0.7c-1.7,0.3-3.4,0.5-5.1,0.5c-1.7,0-3.4-0.1-5.1-0.3
		c-1.7-0.2-3.4-0.6-5-1.1c-0.2-0.1-0.4-0.1-0.6-0.2L41,65.4c-0.4-0.1-0.8-0.2-1.2-0.3c-0.8-0.2-1.6-0.3-2.4-0.5
		c-1.6-0.2-3.3-0.3-5-0.2c-1.7,0.1-3.3,0.4-4.9,1c-0.8,0.3-1.5,0.7-2.1,1.2c-0.3,0.3-0.6,0.5-0.9,0.9c-0.3,0.3-0.6,0.6-0.8,1
		c-1.1,1.3-2.1,2.7-2.7,4.3c-0.6,1.6-1,3.3-1.3,5c-0.7,3.4-1.3,6.8-2.9,10c-0.8,1.6-1.9,3.1-3.3,4.1c-0.7,0.5-1.5,0.9-2.4,1.2
		c-0.9,0.3-1.8,0.3-2.6,0.3c-0.9,0-1.8-0.1-2.6-0.3c-0.9-0.2-1.8-0.7-2.4-1.5c-0.7-0.8-0.9-1.9-0.8-2.9c0.1-1,0.4-1.9,0.9-2.7
		c0.1-0.2,0.3-0.5,0.5-0.6l0.4-0.5c0.3-0.3,0.5-0.7,0.7-1c0.4-0.7,0.9-1.4,1.1-2.1c0.1-0.3,0.1-0.7,0.1-0.9
		c-0.1-0.2-0.2-0.4-0.5-0.5c-0.6-0.3-1.2-0.3-1.8,0c-0.6,0.3-1.2,0.9-1.7,1.5c-0.5,0.6-0.9,1.3-1.3,2.1c-0.3,0.7-0.7,1.5-0.8,2.2
		C0,86.7,0,87.5,0,88.3c0.1,1.6,0.6,3.2,1.5,4.4C2.5,93.9,3.8,94.8,5.3,95.2z M85.9,59.5c0.4,0.2,0.5,1,0.5,1s-0.6,0.4-1.1,0.2
		c-0.4-0.2-0.5-1-0.5-1S85.4,59.3,85.9,59.5z"/>
	<path class="st0" d="M127.9,113.5c-0.2-0.8-0.9-1.7-1.6-2.3c-0.2-0.1-0.4-0.3-0.6-0.4c-0.1,0-0.2-0.1-0.3-0.1
		c-0.1,0-0.3-0.1-0.4-0.1c-0.1-0.1-0.2-0.1-0.3-0.2c-0.3,0.2-0.5,0.4-0.7,0.5c-0.3,0.2-0.6,0.4-0.8,0.6c-0.3,0.2-0.5,0.4-0.8,0.7
		c-0.2,0.2-0.5,0.5-0.8,0.8c0,0,0.1,0,0.1,0c0.9,0.1,1.8,0.2,2.6,0.9c0.5,0.4,0.8,1,1,1.7c0.2,0,0.5,0.1,0.7,0.1
		c0.3,0.1,0.7,0.2,0.8,0.3c0.2,0.1,0.3,0,0.3,0c0,0,0.1-0.1,0.2-0.2c0.2-0.3,0.5-0.9,0.7-1.3C128,114.3,128,113.9,127.9,113.5z
		 M126.3,112.4c-0.2,0.3-1.4,0.9-1.3-0.1c0.1-1-0.9-0.8-0.7-1.1c0.2-0.3,0.7-0.2,1.3,0.1C126.1,111.6,126.5,112.1,126.3,112.4z"/>
	<path class="st0" d="M111.3,97.8c0.2,0.2,0.5,0.5,0.8,0.8c0.1,0.1,0.1,0.2,0.2,0.4c0,0.2,0,0.2,0,0.4c0,0.2-0.1,0.4-0.1,0.6
		c-0.1,0.2-0.1,0.4-0.2,0.5c0.1,0,0.2,0,0.4,0c1-0.1,2.1-0.2,3.1-0.2c0.2,0,0.4,0,0.6,0c-0.8-0.6-1.6-1.2-2.4-1.9L113,98l-0.3-0.2
		c-0.1-0.1-0.2-0.1-0.4-0.3c-0.2-0.2-0.2-0.5-0.2-0.6c0-0.2,0.1-0.4,0.2-0.5c0.1-0.3,0.3-0.6,0.5-0.8c0.7-0.9,1.6-1.7,2.5-2.4
		c0.2-0.2,0.4-0.3,0.5-0.4c-0.4,0.1-0.8,0.2-1.2,0.4c-1.2,0.4-2.4,1-3.3,1.7c-0.5,0.4-0.8,0.8-0.9,1.1c-0.1,0.4,0,0.8,0.4,1.3
		C110.9,97.4,111.1,97.6,111.3,97.8z"/>
	<path class="st0" d="M120.2,105.2l0.1,0.1l0.1,0.2l0.2,0.3c0,0,0,0.1,0.1,0.1c0.4-0.8,0.6-1.6,0.8-2.5c0-0.1,0-0.1,0-0.2
		c-0.3,0.3-0.6,0.5-0.9,0.7c-0.2,0.1-0.5,0.2-0.7,0.3c0,0.1,0,0.2,0.1,0.3C120.1,104.8,120.1,105,120.2,105.2z"/>
	<path class="st0" d="M43.4,112.6l-1.7,0.8c0.4,0.3,1.1,0.9,1.7,1.3c0.2,0.1,0.3,0.2,0.5,0.2c0.2,0,0.5-0.1,0.6-0.3
		c0.3-0.4,0.2-0.9-0.1-1.2C44.1,113.1,43.8,112.8,43.4,112.6z"/>
	<path class="st0" d="M40.1,113.8l-1.9,0.2c0.3,0.4,0.8,1,1.3,1.6c0.2,0.2,0.4,0.3,0.6,0.3c0.2,0,0.3-0.1,0.5-0.2
		c0.3-0.3,0.4-0.8,0.1-1.2C40.6,114.3,40.3,114,40.1,113.8z"/>
	<path class="st0" d="M33.1,114.5c-0.2,0.4-0.1,0.9,0.3,1.1c0.1,0.1,0.3,0.1,0.4,0.1c0.3,0,0.6-0.2,0.7-0.4c0.3-0.6,0.7-1.3,0.9-1.8
		l-1.4-0.9C33.8,113,33.4,113.8,33.1,114.5z"/>
</g>
</svg>
