<?xml version="1.0" encoding="utf-8"?>
<!-- Generator: Adobe Illustrator 24.1.2, SVG Export Plug-In . SVG Version: 6.00 Build 0)  -->
<svg version="1.1" id="Layer_1" xmlns="http://www.w3.org/2000/svg" xmlns:xlink="http://www.w3.org/1999/xlink" x="0px" y="0px"
	 viewBox="0 0 128 128" style="enable-background:new 0 0 128 128;" xml:space="preserve">
<style type="text/css">
	.st0{fill:#2D2D2D;}
</style>
<g>
	<path class="st0" d="M49.3,78.9c2.5-1.2,4.9-2.5,7.4-3.7c2.2-1.1,4.4-2.2,6.7-3.3c-0.1,0-0.2-0.1-0.3-0.1c-0.4-0.3-0.6-0.7-0.7-1.1
		c-0.2-0.8-0.2-1.6-0.1-2.3c0.1-0.7,0.3-1.5,0.6-2.2c0.2-0.4,0.3-0.7,0.6-1.1c0.1-0.1,0.2-0.2,0.2-0.3l0.1-0.1
		c0.1-0.1,0.2-0.2,0.3-0.4c0.7-1.1,1.4-2.3,2.2-3.5c0.1-0.1,0.1-0.2,0.2-0.3c-0.8,0.7-1.6,1.4-2.4,2.1c-0.8,0.8-1.7,1.6-2.5,2.4
		c-1.7,1.6-3.4,3.1-5.2,4.6c-0.9,0.7-1.8,1.5-2.8,2.2l-2.9,1.9c-1.9,1.3-3.9,2.5-5.8,3.8c-1.9,1.3-3.8,2.6-5.7,3.9
		c-1.5,1.1-3.1,2.2-4.3,3.5c2.4-0.9,4.7-1.8,7-2.8C44.3,81.1,46.8,80.1,49.3,78.9z"/>
	<path class="st0" d="M39.7,87.3l0.1,0l0.1,0c0.3,0.1,0.5,0.2,0.8,0.3c2.5-0.8,4.9-1.6,7.3-2.5c2.6-0.9,5.1-1.9,7.6-3
		c2.5-1.1,4.9-2.3,7.4-3.4c2.1-1,4.2-2,6.3-3.1c-0.4,0-0.7-0.1-1.1-0.2c-0.7-0.2-1.2-0.5-1.8-0.8c-0.5-0.4-1-0.8-1.5-1.2
		c-0.2-0.2-0.4-0.5-0.6-0.7c-0.1-0.1-0.2-0.3-0.3-0.4L64,71.9c0,0-0.1,0-0.1,0c-1.9,1.9-4.1,3.4-6.4,4.7c-2.4,1.4-5,2.4-7.6,3.4
		c-2.6,1-5.2,2-7.8,2.9c-2.5,0.8-5.1,1.6-7.6,2.3c0,0,0,0,0,0c0.7,0.6,1.4,1.2,2.1,1.6C37.5,87.4,38.6,87.6,39.7,87.3z"/>
	<path class="st0" d="M121.4,36.1c0.6,0,1.3,0,1.9,0.1c0.9,0.1,1.7,0.3,2.5,0.6c0.8,0.3,1.5,0.6,2.2,1.1c-0.5-0.4-1-0.7-1.6-1
		c-0.7-0.4-1.4-0.7-2.1-1.1l-2.1-1.1c-0.3-0.1-0.6-0.3-0.9-0.5c0,0.5,0,1,0,1.6L121.4,36.1z"/>
	<path class="st0" d="M87.1,45.4c1,0.1,1.9,0.5,2.8,0.9c1.7,0.8,3.3,1.9,4.9,2.7c0.4,0.2,0.8,0.4,1.2,0.6l1.3,0.5
		c0.8,0.4,1.7,0.7,2.5,1c0.9,0.3,1.7,0.5,2.6,0.6c0.6,0.1,1.2,0.1,1.7-0.1c-1.2-1.3-2.5-2.6-3.9-3.8c-1.5-1.4-3.2-2.6-4.7-4.1
		c-0.9-0.9-1.2-2-1.5-3.1c-0.2-1.1-0.3-2.1-0.3-3.2c0-1.1,0.1-2.1,0.2-3.2c0.1-0.5,0.2-0.9,0.3-1.4c-0.4,0.3-0.8,0.7-1.2,1
		c-0.8,0.7-1.7,1.5-2.4,2.3C90,37,89.5,38,89.1,39.1c-0.4,1.1-0.8,2.2-1.3,3.3c-0.3,0.5-0.6,1.1-1,1.6c-0.4,0.5-0.9,0.9-1.4,1.2
		l-0.7,0.5C85.5,45.4,86.3,45.3,87.1,45.4z"/>
	<path class="st0" d="M111.2,54.6c-0.8-0.8-1.6-1.6-2.4-2.4l-1.2-1.2l-0.6-0.6c-0.1-0.1-0.2-0.2-0.3-0.4l-0.1-0.1
		c0-0.1-0.1-0.1-0.1-0.2c0-0.1,0-0.2,0-0.3c0-0.1,0.1-0.2,0.2-0.2c0.2-0.2,0.4-0.2,0.5-0.3c0.1,0,0.3-0.1,0.4-0.1
		c0.2-0.1,0.4-0.2,0.6-0.4c0.1-0.1,0.1-0.2,0.2-0.3l0.1-0.1c0,0,0-0.1,0-0.1c0-0.1-0.1-0.3-0.3-0.5c-0.8-0.7-1.8-1.2-2.8-1.7
		c-1-0.5-2.1-0.9-3.1-1.5c-0.5-0.3-1-0.6-1.4-1.1c-0.4-0.5-0.5-1.2-0.3-1.8c0.1-0.1,0.1-0.3,0.2-0.4c0.1-0.1,0.1-0.1,0-0.3
		c-0.1-0.2-0.3-0.4-0.5-0.6c-0.4-0.4-0.9-0.7-1.4-1.1c-0.4-0.4-0.9-0.8-1.1-1.4c-0.1-0.3,0-0.7,0.2-0.9c0.2-0.3,0.4-0.4,0.7-0.6
		c1-0.6,2.2-0.9,3.3-1.2c1.1-0.3,2.2-0.5,3.4-0.8c2.2-0.4,4.5-1,6.9-1c0.6,0,1.2,0.1,1.8,0.2c0.5,0.1,1.1,0.1,1.6,0
		c0.9-0.1,1.9-0.5,2.1-1.2c-1.5-0.5-3.1-0.9-4.7-1.1c-0.4-0.1-0.8-0.1-1.3-0.1c-0.5,0-0.9-0.1-1.4-0.3c-0.9-0.2-1.7-0.6-2.5-0.9
		c-0.8-0.3-1.6-0.7-2.4-0.8l-0.3,0l-0.3,0l-0.3,0.1l-0.3,0.1c-0.4,0.2-0.8,0.3-1.2,0.5c-0.8,0.3-1.8,0.5-2.7,0.3
		c-0.4-0.1-0.8-0.4-1.1-0.6c-0.3,0.1-0.5,0.3-0.8,0.4c-0.9,0.5-1.9,1.2-2.8,1.8c-0.2,0.2-0.5,0.4-0.7,0.6c-0.1,0.6-0.1,1.3-0.1,2
		c0,1,0.1,2,0.2,3c0.1,1,0.2,2,0.5,2.9c0.2,0.9,0.5,1.9,1,2.6c1.2,1.6,2.6,3.2,4.1,4.6c1.5,1.4,3.2,2.7,4.8,4l0.5,0.4l-0.5,0.4
		c-0.9,0.7-2.1,0.9-3.1,0.8c-1,0-2-0.3-2.9-0.5c-1.9-0.5-3.6-1.2-5.4-2.1c-1.7-0.9-3.2-2.1-4.7-3.1c-1.1-0.7-2.3-1.4-3.6-1.5
		c-0.7,0-1.4,0.2-2,0.4l0.5-0.4c0,0,0,0,0,0l-1.7,1.3c-1.8,1.4-3.7,2.8-5.5,4.3c-1.6,1.3-3.1,2.6-4.7,3.9c0,0,0,0.1,0,0.1
		c-0.1,0.5-0.1,1,0,1.5c0.1,0.5,0.3,0.9,0.5,1c0.2,0.1,0.5,0,0.9-0.2l2.4-1.4l-1.5,2.3c-0.2,0.4-0.4,0.9-0.5,1.4
		c-0.1,0.5-0.1,1.1,0,1.6c0.1,0.5,0.2,1.1,0.4,1.4c0.1,0.2,0.2,0.3,0.3,0.3c0.1,0.1,0.1,0,0.2,0l0.3-0.1l1.6-0.4l-0.9,1.1
		c-0.3,0.4-0.3,1.1-0.1,1.8c0.2,0.7,0.6,1.3,1.1,1.8c0.5,0.5,1.2,0.9,1.8,1c0.7,0.2,1.4,0,2-0.3l0.3-0.2l0.3,0.3
		c0.3,0.3,0.9,0.6,1.5,0.7c0.6,0.1,1.2,0.2,1.8,0.2c0.6,0,1.2-0.1,1.7-0.2c0.5-0.2,0.9-0.5,1.2-0.8l0.4-0.7l0.7,0.5
		c0.4,0.3,1.1,0.5,1.7,0.6c0.7,0.1,1.4,0.1,2.1,0.1c0.7,0,1.4-0.2,2.1-0.3c0.6-0.2,1.3-0.5,1.5-0.8l0.5-0.7l0.5,0.5
		c0.6,0.6,1.7,1,2.8,1.1c0.5,0.1,1.1,0,1.6,0c0.5-0.1,1-0.3,1.5-0.7c0,0,0.1,0,0.1,0c0,0,0,0.1,0,0.1c-0.3,0.5-0.8,0.9-1.4,1.2
		c-0.6,0.3-1.2,0.4-1.8,0.4c-0.6,0-1.3,0-1.9-0.2c-0.4-0.1-0.8-0.2-1.2-0.4c-0.2,0.2-0.4,0.4-0.6,0.5c-0.4,0.3-0.8,0.4-1.2,0.6
		c-0.8,0.3-1.6,0.5-2.4,0.5c-0.8,0.1-1.7,0.1-2.5-0.1c-0.6-0.1-1.3-0.3-1.9-0.6c-0.4,0.4-1,0.6-1.5,0.8c-0.7,0.2-1.5,0.2-2.2,0.2
		c-0.7-0.1-1.4-0.2-2.1-0.5C82,70.3,81.5,70,81,69.5c-0.7,0.2-1.5,0.2-2.1,0c-0.8-0.2-1.5-0.7-2-1.2c-0.6-0.6-1.1-1.2-1.4-1.9
		c-0.2-0.5-0.4-1-0.4-1.6c-0.1,0-0.2,0-0.3,0c-0.1,0-0.2-0.1-0.4-0.1c-0.1-0.1-0.2-0.1-0.3-0.2c-0.2-0.1-0.3-0.3-0.5-0.4
		c-0.5-0.7-0.7-1.4-0.8-2c-0.1-0.7-0.1-1.4,0.1-2.1c0-0.2,0.1-0.5,0.2-0.7c0,0-0.1,0-0.1,0c-0.2-0.1-0.4-0.1-0.6-0.3
		c-0.7-0.6-0.8-1.3-0.8-1.9c0-0.4,0-0.7,0.1-1c-1.2,1-2.3,2-3.5,3c-0.1,0.1-0.1,0.2-0.2,0.3l-0.8,1.9c-0.6,1.3-1.1,2.6-1.9,3.8
		c-0.1,0.2-0.2,0.3-0.3,0.5L64.5,66c-0.2,0.2-0.3,0.5-0.4,0.8c-0.3,0.6-0.5,1.2-0.7,1.8c-0.2,0.6-0.3,1.3-0.3,1.9
		c0,0.3,0.1,0.6,0.3,0.7c0.2,0.2,0.4,0.2,0.8,0.1l0.4-0.1l-0.1,0.4c0,0.2,0.1,0.5,0.3,0.7c0.2,0.2,0.3,0.5,0.6,0.7
		c0.4,0.4,0.9,0.8,1.4,1.1c0.5,0.3,1.1,0.5,1.7,0.6c0.6,0.1,1.1,0,1.6-0.2l0.7,0.5c0-0.1,0.1,0,0.2,0.1c0.1,0.1,0.3,0.2,0.5,0.3
		c0.4,0.2,0.8,0.3,1.2,0.4c0.8,0.2,1.6,0.4,2.5,0.6c0.8,0.1,1.7,0.2,2.5,0.2c0.8,0,1.7,0,2.3-0.2l1,0.4c-0.1-0.1-0.1-0.1,0,0
		c0,0,0.1,0.1,0.2,0.1c0.2,0.1,0.4,0.1,0.6,0.2c0.4,0.1,0.9,0.2,1.3,0.3c0.9,0.2,1.9,0.3,2.8,0.4c1,0.1,1.9,0.2,2.9,0.2
		c0.6,0,1.2,0,1.9,0c0.8-0.3,1.7-0.7,2.5-1c1.9-0.8,3.9-1.6,5.8-2.5c1.9-0.8,3.5-2,5.1-3.4c1.6-1.3,3-2.9,4.1-4.7l0,0
		c0-0.1,0.1-0.1,0.2,0c0.1,0,0.1,0.1,0,0.2c-1.7,3.9-4.8,7.2-8.6,9.4c-3.7,2.1-7.6,3.8-11.4,5.6L82.3,84c-2,0.8-3.9,1.6-5.9,2.4
		c-1,0.4-2.1,0.8-3.1,1c-1,0.3-2.1,0.6-3.1,0.9c-2.1,0.5-4.1,1-6.2,1.5c-8.2,2-16.6,3.2-24.9,4.9c-4.1,1-8.1,2.4-12,4
		c-1,0.4-1.9,0.8-2.9,1.2c-0.4,0.2-0.9,0.5-1.4,0.7c-0.5,0.2-0.9,0.5-1.4,0.7c-1,0.5-1.9,0.9-2.9,1.3c-0.5,0.2-1,0.4-1.6,0.6
		c-0.3,0.1-0.5,0.2-0.9,0.2c-0.3,0.1-0.6,0.1-1.1,0.1c-1.1,1.1-2.3,2.1-3.5,3.1c-1.3,1.1-2.6,2.2-3.9,3.2c-1.3,1-2.6,2.1-4,3
		l-2.1,1.4c-0.6,0.4-1.2,0.9-1.7,1.3c0,0.1,0.1,0.2,0.1,0.2c0.1,0.2,0.1,0.3,0.2,0.4c0,0,0,0,0,0c0,0,0.1,0,0.1,0
		c0.1,0,0.3-0.1,0.5-0.3c0.8-0.4,1.4-0.8,2.2-1.2c1.4-0.8,2.8-1.7,4.2-2.6c2.7-1.9,5.5-3.5,8.4-5.2c2.8-1.7,5.7-3.2,8.7-4.5
		c3-1.4,6-2.7,9.2-3.6c0.1,0,0.1,0,0.1,0.1c0,0.1,0,0.1,0,0.1l0,0c-1.7,1.2-3.5,2.3-5.3,3.5c0.3-0.1,0.6-0.2,0.9-0.3
		c0.4-0.1,0.9-0.2,1.3-0.2c0.2,0,0.4,0,0.7-0.1l0.6,0c1.6-0.1,3.2,0,4.9-0.1c1.6,0,3.3-0.2,4.7-0.8l0.1,0l0.1,0
		c2.2-0.2,4.4-0.4,6.5-0.3c1.1,0,2.2,0.1,3.3,0.3c0.5,0.1,1.1,0.2,1.7,0.3c0.3,0.1,0.6,0.1,0.8,0.2l0.8,0.2c2,0.6,4,1.3,6,1.8
		c1.8,0.5,3.6,0.9,5.5,1c0.2-0.2,0.3-0.5,0.5-0.7c0.1-0.2,0.2-0.3,0.4-0.5c0.1-0.1,0.2-0.3,0.4-0.4c-0.1,0.1-0.1,0.4-0.2,0.5
		l-0.1,0.6c-0.1,0.4-0.2,0.8-0.2,1.1c-0.1,0.4-0.2,0.8-0.3,1.1c-0.1,0.2-0.1,0.5-0.2,0.7c0.2,0.3,0.5,0.7,0.9,1
		c0.4,0.3,0.9,0.5,1.3,0.5c0.2,0,0.3,0,0.5-0.1c0.1,0,0.3-0.2,0.5-0.3c0.4-0.4,0.8-0.9,1.2-1.4c0.8-1.1,1.7-2.2,2.6-3.3
		c0.5-0.5,1-1.1,1.5-1.5c0.5-0.5,1.1-1,1.8-1.2c-0.4,0.6-0.7,1.2-1,1.8l-0.7,1.4c0.4-0.2,0.8-0.3,1.2-0.5c0.8-0.3,1.6-0.7,2.5-1.1
		c1.6-0.7,3.3-1.4,4.9-2.2c3.2-1.5,6.4-3.1,9.5-4.8c1.6-0.8,3.1-1.7,4.6-2.6c1.5-1,2.9-2.1,4.2-3.3c2.6-2.4,4.8-5.3,6.6-8.3
		c0.9-1.5,1.7-3.1,2.5-4.6c0.7-1.6,1.4-3.1,1.7-4.7l1-5.3c0.2-0.9,0.4-1.8,0.5-2.6c0.2-0.9,0.4-1.8,0.5-2.5c0.1-0.8,0.1-1.6,0.1-2.4
		c-0.3-0.5-0.6-1-0.9-1.4C112.8,56.3,112,55.4,111.2,54.6z"/>
	<path class="st0" d="M22.2,98.8c0.5-0.2,1-0.4,1.5-0.6c1-0.4,2-0.7,3.1-1c2-0.6,4.1-1.2,6.1-1.7l3.1-0.8c1-0.3,2-0.5,3.1-0.8
		c2.1-0.5,4.2-0.9,6.2-1.4c2.1-0.5,4.1-1,6.1-1.6l12.2-3.4c2-0.6,4.1-1.1,6.1-1.7c1-0.3,2-0.6,3-0.9c1-0.3,1.9-0.7,2.9-1.1l11.7-4.7
		c0.4-0.2,0.8-0.3,1.2-0.5c-0.9,0.1-1.7,0.2-2.6,0.2c-1,0-2,0-3-0.1c-0.5-0.1-1-0.1-1.5-0.3c-0.3-0.1-0.5-0.1-0.8-0.2
		c-0.1-0.1-0.3-0.1-0.5-0.2c0,0,0,0-0.1,0c-0.3,0.1-0.6,0.1-0.8,0.1c0,0-0.1,0-0.1,0.1l-0.7,0.5l-0.7,0.5c-1,0.6-2,1.2-3,1.8
		c-2,1.1-4.1,2.1-6.3,3c-4.3,1.8-8.7,3.2-13,4.6c-4.4,1.4-8.8,2.8-13.2,4.1c-4.4,1.3-8.9,2.5-13.3,3.7l0,0c0,0-0.1,0-0.1-0.1
		c0,0,0-0.1,0.1-0.1c4.4-1.4,8.8-2.8,13.1-4.3c4.4-1.5,8.7-3,13-4.5c4.3-1.6,8.6-3.3,12.9-4.9c3.5-1.4,7-2.7,10.3-4.3
		c-0.2,0-0.3,0-0.5,0c-0.9-0.1-1.8-0.2-2.7-0.4c-0.9-0.2-1.8-0.4-2.6-0.8c-0.4-0.2-0.9-0.4-1.3-0.6c-0.2-0.1-0.4-0.3-0.6-0.5
		c-0.1-0.1-0.2-0.2-0.2-0.3c-1.8,1.8-4,3.2-6.2,4.4c-2.4,1.4-5,2.2-7.6,3.2c-2.6,0.9-5.2,1.8-7.8,2.5c-2.4,0.7-4.8,1.3-7.2,1.9
		c0.4,0.1,0.7,0.2,1.1,0.3c0.7,0.2,1.5,0.3,2.2,0.1c0.1,0,0.1,0,0.1,0.1c0,0.1,0,0.1-0.1,0.1c-0.7,0.3-1.6,0.4-2.4,0.2
		c-0.7-0.1-1.5-0.3-2.2-0.4c-0.6,0.2-1.2,0.3-1.9,0.3c-0.7,0-1.4-0.2-2-0.5c-0.4-0.1-0.7-0.3-1-0.5c0,0,0,0.1,0,0.1l0,0
		c-1.7,1.2-3.4,2.4-5,3.7l-5,3.7c-1.6,1.3-3.3,2.5-4.8,3.8c-0.7,0.6-1.3,1.1-1.9,1.7c0.8-0.3,1.7-0.7,2.6-1L22.2,98.8z"/>
	<path class="st0" d="M125.5,38.1c-0.9,0-1.7-0.1-2.5-0.3c-0.8-0.1-1.6-0.3-2.5-0.5c-0.3-0.1-0.5-0.1-0.8-0.2l-0.5,0.3
		c-0.3,0.2-0.6,0.4-0.9,0.5c-0.1,0-0.1,0.1-0.2,0.1c-0.1,0.1-0.1,0-0.1,0.1c-0.1,0.1-0.2,0.3-0.2,0.4c-0.1,0.3-0.2,0.6-0.1,0.9
		c0.1,0.3,0.3,0.5,0.6,0.6c0.6,0.3,1.3,0.2,1.9,0.1c1.3-0.2,2.6-0.5,3.9-0.9c0.6-0.2,1.3-0.5,1.9-0.7l1-0.4c0.3-0.1,0.5-0.2,0.8-0.3
		C127,38.1,126.3,38.1,125.5,38.1z"/>
	<path class="st0" d="M118,40.7c-0.3-0.2-0.6-0.6-0.7-1c-0.1-0.4-0.1-0.8,0.1-1.2c0-0.2,0.1-0.4,0.2-0.5c0-0.1,0.1-0.3,0.2-0.3
		c0.1-0.1,0.1-0.1,0.2-0.2l0.7-0.7c-0.2-0.1-0.4-0.1-0.6-0.2c0.4-0.2,0.8-0.3,1.2-0.4c0.3-0.2,0.5-0.5,0.8-0.7
		c-0.1-0.9-0.2-1.8-0.3-2.6l-0.1-0.6c-1.4-1.5-3.2-2.6-5.1-3.3c-2.1-0.7-4.3-1-6.6-1c-2.2,0-4.5,0.4-6.7,0.8
		c-0.6,0.1-1.3,0.4-1.9,0.7c0.3,0.2,0.6,0.4,1,0.5c0.8,0.1,1.7-0.1,2.5-0.4c0.4-0.1,0.8-0.3,1.2-0.5l0.3-0.1c0.1,0,0.2-0.1,0.4-0.1
		l0.4-0.1l0.4,0c0.9,0.1,1.8,0.4,2.6,0.7c0.8,0.3,1.6,0.6,2.4,0.8c0.4,0.1,0.8,0.2,1.2,0.2c0.4,0,0.9,0.1,1.3,0.1
		c1.8,0.3,3.5,0.7,5.2,1.2l0.3,0.1l0,0.3c0,0.4-0.1,0.7-0.4,1c-0.2,0.3-0.5,0.5-0.8,0.7c-0.6,0.3-1.2,0.5-1.8,0.5
		c-0.6,0.1-1.2,0-1.8-0.1c-0.3,0-0.5-0.1-0.8-0.1c0.6,0.3,1,0.8,1,1.4c0,1-1,1.8-2.3,1.8s-2.3-0.8-2.3-1.8c0-0.6,0.4-1.2,1.1-1.5
		c-1.7,0.1-3.3,0.5-5,0.7c-1.1,0.2-2.3,0.4-3.4,0.6c-1.1,0.2-2.2,0.5-3.2,1c-0.5,0.3-0.9,0.7-0.8,1.2c0.1,0.5,0.6,0.9,1,1.3
		c0.4,0.4,0.9,0.7,1.4,1c0.2,0.2,0.5,0.4,0.6,0.7c0,0.1,0.1,0.2,0.1,0.3c0,0.1-0.1,0.2-0.1,0.3c-0.1,0.1-0.1,0.2-0.2,0.4
		c-0.2,0.5-0.1,1.1,0.3,1.4c0.3,0.4,0.8,0.7,1.3,0.9c1,0.5,2.1,0.9,3.2,1.3c1.1,0.5,2.1,0.9,3.1,1.7c0.2,0.2,0.5,0.5,0.5,1
		c0,0.1,0,0.2,0,0.3c0,0.1-0.1,0.2-0.1,0.2c-0.1,0.2-0.2,0.3-0.3,0.4c-0.2,0.3-0.6,0.4-0.8,0.5c-0.1,0.1-0.3,0.1-0.4,0.1
		c-0.1,0-0.1,0-0.1,0.1c0.1,0.1,0.1,0.2,0.2,0.2l0.6,0.6l1.2,1.2c0.8,0.8,1.6,1.6,2.4,2.5c0.8,0.9,1.5,1.8,2.1,2.7
		c0.2,0.4,0.5,0.7,0.7,1.1c0-0.7,0-1.5,0-2.3c0-0.5,0-0.9,0-1.4c0-0.5,0.1-0.9,0.2-1.5c0.2-1,0.6-1.8,0.9-2.7
		c0.7-1.7,1.5-3.3,2.4-4.9c0.4-0.8,0.9-1.6,1.4-2.3c0.4-0.5,0.7-1.1,1.2-1.6c-0.1,0-0.2,0-0.3,0C119.5,41.3,118.7,41.1,118,40.7z"/>
	<path class="st0" d="M96.4,121.5L96.4,121.5c-1.1-0.4-2.2-0.9-3.3-1.3c-0.6-0.2-1.2-0.4-1.8-0.5c-0.6-0.1-1.3-0.1-1.9-0.1
		c-1.2,0-2.5-0.1-3.6,0.1c0,0,0,0,0,0c-0.2,0-0.4-0.1-0.6-0.1c-0.6,0-1.2,0-1.8,0.1c-0.7-1-1.4-2-2.1-3c-0.9-1.3-1.9-2.6-2.9-3.8
		c-1-1.3-1.8-2.7-3.1-3.7c-0.6-0.5-1.2-1.1-1.9-1.5c-0.1-0.1-0.2-0.2-0.4-0.2l-0.9,1.4c0.4,0.7,0.9,1.3,1.4,2c1,1.3,2.3,2.3,3.4,3.4
		c1.1,1.1,2.3,2.2,3.4,3.4c0.8,0.7,1.6,1.5,2.4,2.2c-0.4,0-0.8,0-1.2,0l-1.6,0c-0.5,0-1,0-1.5,0.1c-0.3,0-0.6,0.1-0.9,0.1
		c-0.8-1.2-1.5-2.5-2.4-3.7c-0.9-1.3-1.6-2.8-2.8-4c-0.6-0.6-1.2-1.1-1.8-1.7c-0.2-0.1-0.3-0.2-0.5-0.4l-1.3,0.4
		c0.2,0.4,0.3,0.7,0.5,1.1c0.4,0.7,0.8,1.4,1.2,2.1c0.8,1.4,2.1,2.4,3.1,3.6c0.8,0.9,1.5,1.7,2.3,2.6c-0.9,0.1-1.8,0.1-2.7,0.3
		c-0.6,0.1-1.2,0.2-1.8,0.4c-0.6,0.1-1.2,0.3-1.7,0.6c0,0-0.1,0.1-0.1,0.1c0,0.1,0.1,0.1,0.1,0.1l0,0c1.1-0.2,2.3-0.1,3.4,0
		c1.1,0.1,2.3,0.2,3.4,0.4c0.4,0,0.7,0.1,1.1,0.2c0.6,0.6,1.1,1.3,1.7,1.9c-0.1-0.1-0.2-0.1-0.4-0.2c-0.5-0.3-1-0.4-1.6-0.6
		c-0.5-0.1-1.1-0.2-1.7-0.2l-0.9,0c-0.3,0-0.7,0-1,0.1c-1.2,0.2-2.3,0.6-3.3,0.9c-1,0.4-2,0.8-3.1,0.9l0,0c0,0-0.1,0-0.1,0.1
		c0,0.1,0,0.1,0.1,0.1c1.1,0.2,2.3,0.1,3.4,0c1.1-0.1,2.2-0.2,3.2-0.2c0.2,0,0.5,0,0.7,0.1l0.8,0.2c0.5,0.1,1.1,0.2,1.6,0.2
		c0.5,0,1.1,0,1.7-0.1c0.3,0,0.7-0.1,1-0.2c0.4,0.4,1,0.6,1.5,0.7c0.1,0,0.3,0.1,0.4,0.1c0,0,0,0,0,0c0.8,0.4,1.6,0.3,2.5,0.3l0.6,0
		c0.2,0,0.3,0,0.5,0.1c0.3,0,0.7,0.2,1,0.3c0.7,0.3,1.4,0.9,2.3,1c0,0,0.1,0,0.1,0c0-0.1,0-0.1,0-0.2c-0.6-0.5-1-1.1-1.6-1.8
		c-0.1-0.1-0.2-0.1-0.2-0.2c0.5-0.1,1-0.2,1.5-0.2c0.5,0,1.1,0,1.7,0.1c0.6,0,1.2,0.1,1.8,0.2c0.6,0.1,1.2,0.2,1.8,0.2
		c0.1,0,0.1,0,0.1-0.1c0-0.1,0-0.1-0.1-0.2l0,0c-1.1-0.4-2.2-0.9-3.3-1.3c-0.6-0.2-1.2-0.4-1.8-0.5c-0.6-0.1-1.3-0.1-1.9-0.1
		c-1.2,0-2.5-0.1-3.6,0.1c0,0,0,0,0,0c-0.2,0-0.4-0.1-0.6-0.1c-0.8,0-1.6,0-2.5,0.3c-0.4-0.6-0.7-1.2-1.1-1.9c0.5,0,1,0,1.4-0.1
		c0.8-0.2,1.6-0.6,2.2-1.2c0.5,0.4,1,0.6,1.6,0.8c0.1,0,0.3,0.1,0.4,0.1c0,0,0,0,0,0c0.8,0.4,1.6,0.3,2.5,0.3l0.6,0
		c0.2,0,0.3,0,0.5,0.1c0.3,0,0.7,0.2,1,0.3c0.7,0.3,1.4,0.9,2.3,1c0,0,0.1,0,0.1,0c0-0.1,0-0.1,0-0.2c-0.6-0.5-1-1.1-1.6-1.8
		c-0.1-0.1-0.2-0.1-0.2-0.2c0.5-0.1,1-0.2,1.5-0.2c0.5,0,1.1,0,1.7,0.1c0.6,0,1.2,0.1,1.8,0.2c0.6,0.1,1.2,0.2,1.8,0.2
		c0.1,0,0.1,0,0.1-0.1C96.5,121.6,96.5,121.6,96.4,121.5z"/>
</g>
</svg>
