<?xml version="1.0" encoding="utf-8"?>
<!-- Generator: Adobe Illustrator 24.1.2, SVG Export Plug-In . SVG Version: 6.00 Build 0)  -->
<svg version="1.1" id="Layer_1" xmlns="http://www.w3.org/2000/svg" xmlns:xlink="http://www.w3.org/1999/xlink" x="0px" y="0px"
	 viewBox="0 0 128 128" style="enable-background:new 0 0 128 128;" xml:space="preserve">
<style type="text/css">
	.st0{fill:#2D2D2D;}
</style>
<g>
	<path class="st0" d="M108.7,59.9c0.1-0.2,0.2-0.4,0.3-0.5c0.6-0.9,1.4-1.6,2.3-2.1c-0.2-0.1-0.4-0.2-0.6-0.3
		c-0.4,0-0.9,0.1-1.2,0.2c-0.4,0.4-1,1.1-1,1.5c0,0.2-0.2,0.3-0.4,0.3c0.1,0.3,0.3,0.5,0.5,0.7C108.7,59.8,108.7,59.9,108.7,59.9z"
		/>
	<path class="st0" d="M73.1,84C73.1,84,73.1,84,73.1,84C73.1,84,73.1,84,73.1,84C73.1,84,73.1,84,73.1,84z"/>
	<path class="st0" d="M84.7,102.8c-0.1,0-0.2,0-0.3,0.1C84.5,102.9,84.6,102.9,84.7,102.8C84.7,102.9,84.7,102.8,84.7,102.8z"/>
	<path class="st0" d="M92.4,124c-0.6,0-1.1-0.3-1.4-0.7c-0.5-0.1-1.2-0.2-1.5-0.5c-0.2-0.2-0.2-0.2-0.3-0.4
		c-0.1-0.3-0.3-0.5-0.4-0.7c-0.4-0.7-0.4-1.8,0.2-2.4c-0.6-1.5-1-2.8-0.9-4.4c0-1.5-0.7-5-1.4-7.8c0,0-0.1,0-0.1,0
		c-0.4,0-0.7,0-1.1,0c-0.3,0-0.7,0-1,0c0,0,0,0-0.1,0c0,0,0,0,0,0c0,0-0.1,0-0.1,0c0,0,0.1,0,0.1,0c0.5-0.3-0.4-1.2,0.2-1.4
		c0,0,0,0,0.1,0c0,0,0-0.1,0-0.1c0-0.2,0-0.5,0.1-0.7c0-0.1,0.5,0,0.9,0c-0.1-0.2-0.1-0.4-0.1-0.5c-0.2,0-0.4,0-0.5,0
		c0,0,0-0.1,0.1-0.1c0,0-0.1,0-0.1-0.1c-0.2-0.4-0.3-0.7-0.4-1.1c-0.1,0-0.2,0-0.3,0c0.1-0.1,0.2-0.1,0.3-0.2
		c-0.2-0.6-0.3-1.2-0.3-1.9c-0.1-0.1-0.2-0.3-0.2-0.4c0,0,0,0.1-0.1,0.1c-0.6,0.7-1-0.4-0.8-1.3c-0.1-0.4-0.2-0.8-0.3-1.3
		c-0.4-0.5-0.2-0.7,0.1-0.8c0-0.8,0-1.6,0-2.5c0,0,0.2,0,0.4,0c0.1-0.4,0.3-0.7,0.5-0.8c0.2-0.1,0.2-0.1,0.3-0.1
		c-0.1-0.2,0-0.3,0.3-0.4c0.1,0,0.3-0.1,0.4-0.1c0,0,0,0,0,0c0.1-0.5,0.3-0.9,0.5-1.3c0.5-0.9,1.2-1.8,1.9-2.7
		c1.2-1.4,2.3-2.8,2.6-4.4c-2,2.2-5.9,4.9-11.8,8c-0.1,0-0.1,0.1-0.1,0.2c0,0.5-0.1,1-0.2,1.6c0,0,0,0,0,0.1
		c0.3,0.7,7.1,18,7.1,26.1c0,0.2,0.1,0.4,0.3,0.4c0.6,0.3,1.4,0.5,1.4,0.5l0.4,0.1l1.8,4.8c0,0.1,0.1,0.1,0.2,0.1l7.8,0
		C96.2,125.5,94.7,124,92.4,124z"/>
	<path class="st0" d="M85.2,104.2c0.1,0,0.2,0,0.2-0.1C85.3,104.1,85.2,104.2,85.2,104.2z"/>
	<path class="st0" d="M41.1,105.1c0,0-0.1,0-0.1,0c0,0,0,0,0,0C41,105.1,41.1,105.1,41.1,105.1z"/>
	<path class="st0" d="M44.6,123.9c-0.5,0-0.9-0.2-1.3-0.6c-1.7-1.7-5.5-5.5-5.2-9.4l0-0.1c0.2-1,1-2.4,1.9-4
		c0.1-0.2,0.3-0.5,0.4-0.7c-0.4-0.1-0.7-0.1-1.1-0.2c0.6-0.5,1.2-0.9,1.7-1.5c-0.4-0.2-0.8-0.5-0.9-0.6c-0.4-0.8-0.1-1.6,0.8-1.7
		c0,0,0,0,0,0c0,0,0,0,0,0c0,0,0,0,0,0c0.2,0,0.4,0,0.6,0c0.7-0.9,1-1.9,1.1-2.9c-0.2-0.3-0.3-0.6-0.3-0.8c0,0,0,0,0-0.1
		c-0.2-0.1-0.3-0.2-0.4-0.3c0.2,0,0.3,0.1,0.5,0.1c0-0.1,0.1-0.3,0.1-0.4c0-0.2,0-0.3,0-0.5c0.1,0,0.2,0,0.2,0
		c0.1-0.1,0.2-0.3,0.2-0.4c0.1-0.5,0.4-1,0.5-1.5c0.2-0.7,0.2-1.5,0.3-2.2c0.1-0.7,0.6-0.7,1-0.5c0-2.1-0.2-4.4-1-6.8
		c-1-0.3-1.8-0.7-2.4-0.9c0,0.4,0,0.7,0,1c-0.1,1.6-0.1,3.1-0.4,4.3c-0.7,3.3-4,6.4-6.7,8.8c0,0.1,0,0.1,0.1,0.2
		c0.8,3.5,0.6,7.3-0.4,11.1c-0.2,0.6,0,1.3,0.3,1.8c0.6,0.8,1.4,1.9,2.3,3c2.3,3.1,5.1,6.9,6,7.9l6.5,0.1
		C48.3,125.1,46.9,123.9,44.6,123.9z"/>
	<path class="st0" d="M69.7,95.5c-0.1,0-0.2,0-0.2-0.1c0,0,0,0,0,0c0.1,0,0.2,0.1,0.4,0.1C69.8,95.5,69.8,95.5,69.7,95.5z"/>
	<path class="st0" d="M38.6,62.9c0,0,0,0.1,0.1,0.1c0,0,0,0,0,0C38.6,63,38.6,63,38.6,62.9z"/>
	<path class="st0" d="M19.2,79.1c-0.2-0.4-0.3-0.8-0.4-1.2c-0.1-0.2-0.8-3.5-0.1-7.1c-0.3,0.5-0.5,1.1-0.7,1.7
		c-0.2,0.7-0.4,1.4-0.6,2.1c-1.5,5.2-3.4,11.6-7.2,17l0,0c-0.8,1.1-2.6,2.9-3.6,3.9c-0.5,0.5-3.3,3-3.8,3.4
		c-0.5,0.4-1.9,1.2-2.5,1.6L0,100.7l0.2,0c0.5,0.1,1.1,0.1,1.6,0.2l2.1,0c-0.4,0.4-0.8,0.8-1.2,1.3c-0.2,0.3-0.4,0.5-0.6,0.8
		l-0.6,0.8l-0.3,0.4l0.5-0.1c0.6-0.1,1.2-0.2,1.8-0.4c0.6-0.2,1.2-0.3,1.8-0.6c0.7-0.4,1.4-0.7,2.2-1.1l-1.6,2.1l-0.7,0.9l1.1-0.4
		c1.6-0.6,2.6-1.1,3.7-1.7c1.2-0.7,4.5-3.5,5.6-4.7C18.5,94.9,20.4,87.1,19.2,79.1z M7,103.6c0.2-0.2,1.6-2.2,1.6-2.2l0.7-1L8.2,101
		c-1.1,0.5-5.7,2.5-6.1,2.6c0.3-0.4,3.1-3.3,3.1-3.3s-2.8,0.2-3.7,0.1c2.8-1.9,7-5.9,8.6-7.5c1,0.1,2.2-0.1,2.5,0
		c0.1,0,0.2,0,0.2,0.1c0.1,0,0.1,0.1,0.2,0.1c0,0,0.9,1,0.9,1.4c0,0.1,0,0.2,0,0.3c0,0.2-0.1,0.4-0.1,0.5c0,0-0.3,1.4-0.4,1.7
		l1.4,0.1C12.5,101.2,7.7,103.2,7,103.6z M15.4,93.6c-0.3,0-0.5,0.1-0.7,0.4c0.2-0.4,0.4-0.8,0.4-0.8c0.2-5,0,0.9-2.2-2
		c-0.1,0-0.1,0-0.2,0c0.4,0,0.8-0.1,1.1,0c0.8-0.4,3.3-5.3,3.9-4.7c0.4,0.5-0.9,3.5-0.9,3.5C18.8,90.3,15.4,93.6,15.4,93.6z"/>
	<path class="st0" d="M128,84.6c-0.9-1.2-2-2.6-2.9-3.8c-0.6-0.8-1.1-1.4-1.3-1.7l-0.1-0.2c-0.2-0.4-0.3-1.2-0.4-2.3
		c-0.1-0.7-0.2-1.9-0.3-2.2c-2-4-6.9-5.9-6.9-5.9c-0.1,0-0.2-0.1-0.3-0.2c-0.1,0.2-0.1,0.3-0.2,0.4c0.1,0.4,0.3,0.7,0.4,1.1
		c0,0,0,0.1-0.1,0.1c0,0-0.1,0-0.1,0c-0.3-0.4-0.5-0.7-0.8-1.1l-0.1-0.1l0-0.1c0.4-1.5,0.4-3,0.3-4.5c0-0.8-0.1-1.5-0.2-2.3
		c-0.1-0.7-0.2-1.5-0.4-2.2l-0.1-0.6c0-0.2-0.1-0.3-0.1-0.4c-0.1-0.3-0.2-0.5-0.4-0.7c-0.1-0.2-0.3-0.3-0.4-0.4c0,0,0,0.1-0.1,0.1
		c-0.1,0.1-0.2,0.2-0.3,0.2c0.1,0.1,0.2,0.2,0.2,0.3c0.1,0.2,0.3,0.4,0.4,0.6c0,0,0.1,0.3-0.1,0.2c0,0-0.1,0-0.1,0
		c0,0,0.1,0.1,0.1,0.1c0,0.1,0.6,0.8,0.3,0.8c-0.3,0-0.5-0.2-0.8-0.3c-0.5-0.4-0.9-0.9-1.2-1.4c-0.1-0.1-0.1-0.3-0.1-0.4
		c-0.2-0.1-0.3-0.2-0.4-0.4c-0.1,0-0.2,0-0.3,0c-0.9,0.6-1.7,1.3-2.2,2.2c-0.6,1.1-0.6,2.4-0.3,3.5c0.3,1.2,0.8,2.3,1.5,3.3
		c0.6,1,1.4,2,2.2,2.9l0,0c0.2,0.2,0.2,0.6,0,0.8c-0.2,0.2-0.6,0.2-0.8,0c0,0,0,0,0,0c-0.8-1-1.5-2.1-2.1-3.2
		c-0.6-1.1-1.1-2.4-1.3-3.6c-0.2-0.9-0.1-1.8,0.1-2.7c-0.5,0.4-1.6,0.5-2,0.1c0,0-0.1-0.1-0.1-0.1c-0.4,1.2-0.4,2.5-0.2,3.8
		c0.1,0.4,0.2,0.8,0.3,1.3c0,0.1,0.1,0.2,0.1,0.3c0.2,0.8,0.5,1.6,0.8,2.4c0.5,1.3,1.1,2.5,1.9,3.7l0,0l0,0L109,73
		c0,0-0.1,0.1-0.1,0.1c0,0-0.1,0-0.1-0.1l0.1-1c-0.8-1.1-1.5-2.3-2.1-3.6c-0.3-0.6-0.5-1.2-0.8-1.8c-0.2,0.1-0.4,0.1-0.5,0.1
		c-0.3-0.1-0.8-0.2-1.5-0.4c-1.1-0.3-2.7-0.7-4.2-1l-0.1,0c-2.9-0.9-7.6-2.3-11.5-3.4c0,0.2-0.4,0.3-0.9,0.3c-0.1,0-0.2,0-0.3,0
		c0.2,0.3-0.8,0.5-1.5,0.4c-0.2,0-0.6-0.1-0.9-0.2c-0.1,0-0.3-0.1-0.4-0.1c-0.3-0.1-0.5-0.3-0.4-0.5c0,0,0.1-0.1,0.1-0.1
		c-0.1,0-0.3,0-0.7,0c0,0-0.1,0-0.1,0c0,0-0.1,0-0.1,0.1c-1.1,0.5-2.8-0.2-3.7-0.5c-1.2-0.4,0.4-0.8,1.3-0.5
		c0.2,0.1,0.4,0.1,0.7,0.2c0.1-0.2,0-0.2,0.2-0.4c0.5-0.3-1.6-0.5-2.4-0.6c0,0,0,0.1-0.1,0.1c0.3,0.2-0.1,0.5-0.7,0.5
		c-0.2,0.1-0.5,0.1-0.9,0.1c-0.2,0-0.4,0-0.6,0c-0.8,0-1.4-0.6-0.3-0.7c0,0,0-0.1,0.1-0.1c0.1-0.1,0.1-0.2,0.2-0.2
		c-3,0.1-6.5,0.4-8.9,1.1C66,61,62.9,61.6,59.7,62c0.1,0.1-0.1,0.3-0.6,0.3c0,0,0,0.1-0.1,0.1c-0.1,0.1-0.2,0.3-0.3,0.4
		c1,0.4-0.9,0.6-1.5,0.5c-1.8-0.5-3.1-0.3-4.9,0c-0.6,0.1-1.1,0.1-1.7,0.1c-0.5,0-0.8-0.2-1.3-0.3C49,63,48.4,63,48,62.8
		c-0.4-0.1-0.6-0.3-0.7-0.6c-2.2-0.1-4.5,0-6.8,0.1c0,0.1,0,0.1,0,0.2c-0.3,0.8-1.1,1.1-1.8,0.5c0,0,0,0,0,0c0,0,0,0,0,0
		c0,0,0,0,0,0c-0.1-0.1-0.2-0.3-0.4-0.4c-1.1,0.1-2.1,0.4-2.9,1.1c-0.1,0.3-0.2,0.6-0.4,0.7c0,0,0,0-0.1,0c0,0.2,0.1,0.4,0.1,0.5
		c-0.1-0.1-0.2-0.3-0.2-0.4c-0.1,0.1-0.2,0.1-0.4,0.2c-0.1,0.1-0.2,0.2-0.4,0.4c0-0.1-0.1-0.1-0.1-0.2c-0.2,0-0.3,0.1-0.5,0.1
		c-0.5,0.2-1,0.4-1.5,0.6c-0.7,0.4-1.3,0.8-1.9,1.3c-1.1,0.8-1.3-1.3-1.1-1.9c0.2-0.5,0.5-0.9,0.7-1.3c-2.9,0.6-5.2,1.3-6.3,2.2
		c-0.2,0.2-0.5,0.4-0.7,0.5c0,0.1-0.1,0.1-0.1,0.2c-3.7,4.3-2.1,10.8-2.1,10.9c0.1,0.4,0.2,0.7,0.4,1.1c0,0,0,0,0,0
		c0.5,1.2,1.2,2.6,1.9,3.9c1,2,1.9,3.7,2.1,5c0.3,1.6,1.6,9.7-0.9,13.6c-0.5,0.8-1.1,1.8-1.7,2.8c-0.9,1.6-1.9,3.2-2.9,4.6
		c0,0,0,0,0.1,0c0.3-0.2,0.8-0.1,1.4,0c0.5,0,1,0,1.5,0c-0.5,0.6-1.5,1.1-1.9,1.8c0.4,0.2,1,0.3,1,0.5c-0.1,0.7-1.1,1.9-1.1,1.9
		c-0.5,1-0.1,2,0,3c0.2,0.2,0.4,0.5,0.4,0.8c0,0,0,0,0,0.1c0.2,0.1,0.4,0.2,0.5,0.2c-0.2,0-0.3,0-0.5,0c0,0.1,0,0.3,0,0.4
		c0,0.2,0.1,0.3,0.1,0.5c-0.1,0-0.2,0-0.2,0c0,0.2-0.1,0.3-0.2,0.5c0,0.1,0,0.3-0.1,0.4c1.1,3.3,2.3,6.8,3,8.9
		c0.1,0.3,0.4,0.5,0.7,0.5h8.2c-0.5-1.1-1.7-2.5-4.4-2.5c-0.7,0-1.4-0.4-1.8-1c-1.1-1.7-3.3-6.3-3-9.4c0.4-3.5,6.1-10.5,8.1-12.4
		c0.5-0.6,1.2-1.2,2-1.9c0.1-0.1,0.2-0.2,0.3-0.2c0.4-0.7,1.3-2,1.1-2.1c0.5-0.4,0.9-0.9,1.3-1.4c-0.1-0.2-0.3-0.5-0.3-0.6
		c0-0.8,0.4-1.5,0.9-1.6c0,0,0,0,0,0c0,0,0,0,0,0c0,0,0,0,0,0c0.1,0,0.2,0,0.3,0c0.6-0.8-0.1-1.4,0.2-2.4c0-0.3,0.3-0.4,0.3-0.7
		c0,0-0.2-0.3-0.2-0.3c-0.1-0.1,1-0.5,0.9-0.5c0.1,0,0.2,0.1,0.2,0.1c0-0.1,0.1-0.3,0.2-0.4c0-0.2-0.7-0.9-0.7-1
		c0-0.2,0.1-0.6,0.4-0.5c0.1-0.1,0-0.5,0.1-0.6c0.2-0.5,0.9-0.3,1.5-2.8c0.1-0.3,0.2-0.1,0.3,0.2c0.2-0.7,0.4-1.4,0.6-2.1
		c0.4-1,0.9-1.9,1.4-2.8c0.6-0.9,1.3-1.7,2.1-2.4c0.8-0.7,1.7-1.2,2.6-1.6c-0.8,0.6-1.7,1.2-2.3,1.9c-0.7,0.7-1.2,1.6-1.6,2.5
		c-0.4,0.9-0.7,1.8-1,2.8c-0.1,0.6-0.2,1.2-0.3,1.8c1.5,0.7,7.8,3.2,15.2,2.7c1.9-0.1,4.7-1.1,7.1-2c2-0.7,3.7-1.3,4.8-1.4
		c0.5-0.8,1-1.6,1.5-2.4c0.6-0.9,1.2-1.8,1.9-2.6c1.3-1.7,2.7-3.4,4.3-4.8c-1.4,1.6-2.5,3.4-3.6,5.3c-0.2,0.4-0.5,0.8-0.7,1.2
		c0.3-0.2,0.6-0.3,1-0.5c0.3-0.1,0.9,0,1.2,0c0,0,0.1,0,0.2,0c0.3,0,0.5,0,0.8,0c0,0,0,0,0,0c0.4,0,1.3-0.1,1.8,0.1
		c0.2,0,0.3,0.1,0.3,0.1c0,0,0,0.1-0.1,0.1c0.1,0.2,0.2,0.4,0.3,0.5c0.1,0.1,0.2,0.3,0.4,0.3c0.2,0,0.4,0,0.6,0.1c0,0,0,0,0-0.1
		c0.2-0.3,0.5-0.5,0.9-0.7c0.1-0.1,0.2-0.2,0.4-0.3c0.1,0,0.3,0,0.4,0c0,0,0,0,0.1,0c0.5-0.2,1.2-0.4,1.7-0.3c0.1,0-0.1,0.1-0.3,0.3
		c0.1,0,0.1,0,0.2,0c0,0,0.3,0,0.4,0c-0.1,0-0.2,0.1-0.3,0.2c0.1,0,0.2,0,0.3,0c0.1,0,0.2,0,0.3,0c0,0,0,0,0,0c0,0,0,0,0,0
		c0,0,0,0,0,0.1c0,0,0,0,0,0c0.3,0.1,0.5,0.3,0.6,0.7c0,0.1,0,0.2,0,0.3c0,0,0.1,0,0.1,0c0,0-0.1,0-0.1,0c-0.1,0.3-0.3,0.5-0.6,0.6
		c0,0,0,0,0,0c0,0,0,0.1,0,0.1c0.1,0,0.3,0,0.4,0c0,0,0,0,0,0c-0.1,0.1-0.3,0.1-0.4,0.2c0,0,0,0,0,0c-0.1,0.3-0.2,0.5-0.4,0.7
		c0,0-0.3,0-0.4,0c-0.3,0-0.6,0-0.9,0c-0.1,0-1.2,0-1.2,0c0,0,0,0,0,0c-0.3,0.1-0.6,0.1-0.9,0.2c-0.1,0.4-0.2,0.9-0.3,1.1
		c-0.1,0.2-0.3,0.4-0.5,0.6c-0.1,0.1-0.1,0.1-0.2,0.2c0,0.1,0,0.1-0.1,0.2c0,0-0.1,0.1-0.2,0.1c-0.1,0.1-0.1,0.2-0.2,0.4
		c-0.3,0.6-0.9,0.8-1.4,1.3c-0.2,0.3-0.4,0.7-0.7,0.9c-0.1,0.1-0.6,0.2-0.8,0.2c0,0.8-1.7,0.6-2.1-0.1c-0.2-0.4-0.3-0.6-0.1-1
		c0,0,0,0,0,0c0,0,0,0,0,0c0,0,0,0,0-0.1c0.1-0.1,0.2-0.2,0.4-0.3c0-0.1,0.1-0.1,0-0.2c0-0.1-0.1-0.2-0.1-0.3c-0.1,0-0.1,0-0.1-0.1
		c0,0,0.1-0.1,0.1-0.1c0.1,0,0.4-0.1,0.8,0c0.1-0.1,0.1-0.2,0.2-0.3c0.2-0.3,0.3-0.5,0.6-0.7c0.1-0.1,0.3-0.1,0.4-0.2
		c-0.3,0-0.4,0-0.4,0c-0.1,0-0.3,0-0.4,0c-0.1,0-0.1,0-0.2,0c0.1-0.1,0.2-0.1,0.3-0.2c0.3-0.2,0.7-0.2,1-0.2c0.1,0,0.2,0,0.3,0
		c0-0.1,0.1-0.2,0.2-0.2c0,0,0.1-0.1,0.1-0.1c-0.1,0-0.2,0-0.3-0.1c-0.1-0.2,0-0.3,0.1-0.4c-0.2-0.4-0.3-0.8,0-1.2
		c-0.1,0-0.3,0-0.3,0c0,0,0-0.1,0-0.1c-0.2,0-0.3,0-0.5,0c0,0,0,0,0,0c0,0,0,0-0.1,0c0,0,0,0,0,0c-0.1,0-0.1,0-0.2,0
		c0,0-0.1,0.1-0.1,0.1c0,0,0,0,0,0c0,0,0,0,0,0c-0.1,0.1-0.3,0.1-0.4,0.2c0,0-0.2,0.1-0.2,0.1c0,0,0,0,0,0c0,0-0.1,0-0.2,0
		c0.2,0,0.4,0,0.6,0c0,0,0.1,0,0.1,0c0,0,0,0,0,0c0,0,0,0,0,0c0.1,0,0.1,0,0,0.1c-0.1,0.1-0.3,0.2-0.4,0.3c-0.1,0-0.3,0-0.4,0
		c-0.2,0-0.3,0-0.5,0c-0.1,0.2-0.1,0.4-0.1,0.6c0.1,0.1,0.2,0.2,0.1,0.3c0,0.1-0.1,0.1-0.1,0.1c0,0,0,0,0,0c0,0,0,0,0,0
		c-0.2,0-0.4,0-0.6,0c-0.1,0-0.2,0-0.3,0c0,0.1-0.1,0.1-0.1,0.2c-0.1,0.1-0.3,0.2-0.3,0.3c0.1,0,0.3,0,0.4,0
		c0.4,0.1,0.2,0.3,0.2,0.6c0,0.3,0.3,0.5,0,0.8c0,0,0,0,0,0c0.2,0.1-0.2,0.3-0.3,0.3c-0.3,0.1-0.9,0-1.2,0c-0.3,0-0.6,0-0.9,0
		c0,0-0.3,0-0.4,0c0,0,0.4-0.2,0.3-0.3c0,0,0,0-0.1,0c0.2-0.2,0.1-0.4,0.1-0.6l-1.5,1.9c-0.1,0.1-0.1,0.3-0.1,0.5
		c0.1,1.1,0.4,2.3,0.8,3.5c0.1,0.3,0.2,0.7,0.3,1c0.2-0.1,0.4-0.2,0.7-0.2c1.7-0.4,3.3,0.1,4.5,0.9c0.3,0.2-0.4,0.1-0.5,0.1
		c-0.5-0.1-1-0.2-1.3-0.4c0,0,0,0,0,0c-0.2,0-0.5,0.1-0.6,0.1c0,0-0.1,0-0.1,0c-0.2,0.1-0.4,0.3-0.6,0.4c0.5,0.1,1,0.3,1.1,0.6
		c0.1,0.4-0.7,0.8-1.2,0.9c-0.3,0-0.6,0-0.9-0.1c-0.2,0-0.3-0.1-0.4-0.1c-0.1,0-0.1,0-0.1,0c0,0,0,0.1,0,0.1c0.1,0,0.2,0,0.2,0
		c-0.1,0-0.1,0-0.2,0c0.1,0.6,0.2,1.2,0.2,1.7c0,1.6,0.3,6.3,0.5,10c0.1,1.9,0.2,3.6,0.2,4.7c0,0.7-0.2,1.4-0.6,2
		c-0.2,0.3-0.4,0.6-0.6,0.9c-0.9,1.5-2,3.1-3.5,4c-1.7,0.9-4.1,2.4-4.7,2.7c-1,1.3-1.8,2.8-2,3.8c1.9-0.8,6.1-2.7,9.4-5
		c-0.1-0.1-0.3-0.2-0.5-0.4c0,0-0.1,0-0.1,0c-0.2,0-0.4-0.2-0.3-0.5c0,0,0,0,0.1,0c0,0,0,0,0,0c0-0.1,0-0.2,0.2-0.3
		c0.3-0.1,0.7-0.3,1-0.5c-0.3,0-0.6,0-0.6,0c0.4-0.4,0.9-1.1,1.4-1.4c0,0,0,0,0,0c0.4-0.6,1-1,1.6-1.3c0.1,0,0.2,0,0.2-0.1
		c0-0.1,0-0.2,0-0.4c0-0.4,0.1-0.8,0.6-1c0.4-0.1,0.8,0,1.2,0.2c0.2-0.6,0.3-1.3,0.4-2c-0.3-0.1-0.5-0.3-0.6-0.7
		c-0.2-0.8,0.1-1.5,0.3-2.3c0.1-0.7,0-1.3-0.1-2c-0.1-0.2-0.1-0.3-0.1-0.5c0-0.5,0.4-0.9,0.9-1.1l0,0l0-0.1c0.2-1.6,0.7-3.8,1.2-6.3
		c0.6-2.9,1.3-5.8,1.4-7.6c0-0.7,0.4-1.3,1-1.6c6.9-3.7,11.4-6.9,12.2-9c0-0.1,0.1-0.1,0.1-0.2c0,0,0-0.1,0.1-0.1c0,0,0,0,0,0h0
		c0-0.1,0.1-0.2,0.2-0.2c0.3-0.3,0.7-0.8,0.9-1.3c0.3-0.5,0.5-1,0.7-1.6c0.2-0.5,0.3-1.1,0.4-1.7c0.1-0.6,0.1-1.2,0-1.8
		c0.2,0.6,0.3,1.2,0.4,1.8c0.1,0.6,0.1,1.3,0,1.9c-0.1,0.6-0.2,1.3-0.4,1.9c-0.1,0.2-0.1,0.4-0.2,0.5c2,0,5.9-0.1,9.3-0.5
		c2.1-0.2,3.8-0.3,5.1-0.3l-1.6-1.4l0,0c-0.3-0.2-0.5-0.5-0.5-0.8v-0.1l0.4-3.3l0.3,3.3c0,0.1,0.1,0.2,0.2,0.2l0,0l3.9,2.4
		c0.1,0.1,0.2,0.2,0.3,0.3c3.4,3.1,7.2,4.6,9.8,5.3l0.1,0l0.1,0.1c0.5,0.3,0.9,0.7,1.2,1c0.2,0.2,0.4,0.4,0.6,0.5
		c0.2,0,0.6-0.1,1.5-0.6l0.1-0.1l0.4-0.2l-0.7-0.7l-0.5-0.5c-0.1-0.1-0.2-0.2-0.3-0.3l-0.2-0.3c-0.3-0.4-0.5-0.8-0.8-1.2l-0.4-0.6
		c-0.1-0.2-0.2-0.4-0.3-0.7c0.3,0.1,0.4,0.2,0.6,0.4l0.5,0.5l1,1l0.3,0.2c0.1,0.1,0.2,0.2,0.2,0.2l0.6,0.4l1.2,0.8
		c0.1,0.1,0.2,0.2,0.2,0.3c0,0,0.1,0,0.1,0.1c0,0,0.1,0.1,0.2,0.2c0.2,0.1,0.5,0.1,1.1,0l0.4-0.1c0.3-0.1,0.6-0.2,0.9-0.3
		c-0.2-0.2-0.3-0.4-0.3-0.7C127.5,85.4,127.7,84.9,128,84.6z M28.7,102.9c-0.2,0.5-0.6,0.6-0.6,0.7c0,0.2-0.2,0.4-0.4,0.6
		c-0.3,0.1-0.5,0-0.7-0.2c-0.2-0.2-0.2-0.4-0.1-0.7c0.1-0.1-0.2-0.3-0.1-0.4c0,0,0.1-0.1,0.1-0.1c0,0,0-0.1,0.1-0.1
		c0,0-0.1-0.2,0-0.2c0.1,0-0.1-0.2,0-0.2c0,0,0-0.3,0-0.3c0-0.2,0.3,0,0.3-0.2c0-0.3,0.3-0.4,0.6-0.3c0.4,0.2,0.9,0.6,0.8,1.2
		C28.7,102.7,28.8,102.9,28.7,102.9z M27.8,83.3c0,0.2-1-1.7-1.3-2.2c-0.4-0.3-1.4-2.1-1.4-2.9c0,0,0,0,0,0
		c-0.1-0.4-1.2-1.3-1.2-1.6c-0.5-2.1,0.7-2.5,0.7-2.8c0,0-0.2-0.7-0.1-1c0-0.1,0-0.2,0-0.2c0,0,0,0,0-0.1c0,0,0-0.1,0-0.1
		c0,0,0,0,0,0c0-0.1,0-0.2,0-0.2c-0.2-0.9,0.2-1.3,0.6-1.2c0.3,0.1,3-1.6,3.2-1c0.2-0.1-0.2,1,0,1.2c0.2,0.2-0.3,1.4-1,1.1
		c-0.2-0.1,0.4,0.3-0.2,1c0,0,0.2,0.8,0.2,0.8c0.5,0.3,1.5,1.5,1.3,2c0.1,0.3,0.4,1.4,0.4,1.6c0,0.1-0.8,0.8-0.8,0.9
		c0.1,0.3,1.2,1,1.2,1.2C29.3,81.2,27.8,82.2,27.8,83.3z M32.3,99.5c-0.3,0.1-1,0.2-1.2-0.1C31,99.3,31,99.1,31,99
		c0-0.1,0-0.2-0.1-0.2c0,0-0.1-0.1-0.1-0.1c0,0-0.3,0-0.2-0.1c0-0.1,0-0.2,0-0.4c0,0-0.1,0-0.1-0.1c-0.2-0.1-0.3-0.3-0.5-0.4
		c-0.3-0.2-0.3-0.6,0-0.9c0.5-0.4,1.3-0.6,1.8-0.2c0.2,0.1,0.2,0.3,0.2,0.5c0.2,0.2,0.3,0.5,0.1,0.8c0,0-0.1,0.1-0.1,0.1
		c0,0,0,0,0,0c0,0,0.1,0,0.1,0c0.1,0,0.3,0,0.4,0c0.2,0.2,0.4,0.5,0.4,0.8C33,99.3,32.7,99.4,32.3,99.5z M34.1,89
		c0.1,0.5-0.2,1.1-0.8,1.2c-0.1,0-0.2,0-0.3,0c0,0,0,0,0,0c0.1,0.1,0.1,0.1,0.2,0.2c0.1,0.1,0.4,0.4,0.4,0.5
		c0.1,0.5-0.1,1.1-0.5,1.5c-0.6,0.5-1.1,0.3-1.7-0.1c-0.5-0.3-1.6-0.9-1.5-1.7c0.1-0.3,0.2-0.4,0.4-0.7c0.1-0.1,0.2-0.3,0.2-0.4
		c0,0,0-0.3,0.1-0.3c0,0-0.3-0.4-0.2-0.4c0.2-0.1,0.4-0.3,0.5-0.5c0-0.1,0-0.2,0-0.2c0-0.4-0.1-0.7-0.1-1.1
		c-0.1-0.7,0.5-1.2,1.2-1.1c1.1,0.2,2.4,0.9,2.6,2.1C34.5,88.5,34.3,88.8,34.1,89z M42.4,74c0,0.1,0,0.2-0.1,0.2
		c-0.1,0.3-0.2,0.5-0.2,0.8c0.9,0.8-0.8,1.2-1.4,0.9c-1.6-1-2.9-0.6-4.5-0.1c-0.5,0.2-1,0.3-1.6,0.2c-0.5-0.1-0.8-0.4-1.2-0.6
		c-0.4-0.2-0.9-0.2-1.3-0.5c-0.7-0.5-0.9-1.7-0.3-2.3c0.2-0.2,0.4-0.2,0.6-0.3c1-0.6,1-0.3,0.5-0.7c-0.3-0.3-0.9-0.3-1.2-0.7
		c-0.5-0.5,0.1-1,0.6-1.1c0.1,0,0.2,0,0.3,0c-0.2-0.5,0.8-0.9,1.4-0.7c0.2,0.1,0.5,0.2,0.8,0.4c0.1,0,0.2,0.1,0.3,0.2
		c0.3,0.2,0.5,0.6,0.4,0.9c0,0.1,0,0.1-0.1,0.2c0.1,0,0.3,0,0.7,0.1c0,0,0.1,0,0.1,0c0,0,0.1-0.1,0.1-0.1c1-0.9,5.2-2.9,3.4,0.9
		c-0.6,1.2-0.4,1.5-1.2,1c-0.2-0.1-0.4-0.3-0.6-0.4c-0.1,0.3,0,0.4-0.2,0.7c-0.4,0.7-0.7,1-0.1,0.9c0.8-0.1,1.6,0,2.3,0.2
		c0-0.1,0-0.1,0.1-0.2c-0.3-0.4,0.1-1,0.7-1c0.2-0.2,0.5-0.3,0.8-0.2c0.2,0,0.4,0,0.6,0.1C42.9,72.7,43.4,73.8,42.4,74z M59.6,72.8
		c0.1,0,0.2,0,0.3,0c0-0.2,0.1-0.4,0.3-0.6c-0.1-0.2-0.1-0.4,0-0.4c0.1-0.1,0.3-0.1,0.4-0.1c0.1,0,0.1,0,0.2,0.1
		c0.1,0,0.1-0.1,0.2-0.1c0,0,0,0,0,0c0,0,0.1,0,0.1,0c0.7,0,1.2,0.1,1.7,0.6c0,0,0.1,0.1,0.1,0.1c0,0,0,0,0,0
		c0.1,0.1,0.2,0.2,0.2,0.3c0.1,0.1,0.2,0.2,0.3,0.4c0.2,0.3,0.3,0.8-0.1,0.8c-0.4,0-0.8,0.1-1.2,0.1c-0.1,0.2-0.5,0.3-0.7,0.4
		c-0.4,0.1-0.7-0.1-1-0.4c-0.3-0.1-0.6-0.3-0.8-0.5C59.7,73.3,59.3,72.8,59.6,72.8z M48.3,72.8c-0.2-0.1-0.4-0.3-0.5-0.4
		c-0.2-0.2-0.4-0.4-0.6-0.6c-0.5-0.5-0.7-1.3,0.3-1.4c0.9-0.1,1.8-0.1,2.7-0.2c0.3-0.4,1-0.6,1.6-0.7c0.8-0.1,3.2-1,3.9-0.6
		c0.6,0.1-0.3,1.8,0.1,2.1c0.1,0.1,1,0.9,0.4,0.9c-0.2,0-0.5,0-0.7,0.1c0,0.4-0.3,0.7-0.7,1c0.2,0.3,0.3,0.6-0.1,0.7
		c-0.3,0.1-1.4,3-1.8,3.1c-0.2,0-0.3,0-0.5-0.1c-0.2,0.1-0.3,0.1-0.5,0.2c0,0,0,0,0,0c-0.1,0-0.2,0-0.3,0c-1.6,0,0.3-2.7-0.8-3.4
		C50.8,73.4,51.1,72.1,48.3,72.8C48.3,72.8,48.3,72.8,48.3,72.8z M62.3,84.6c-1,0.8-2.1,1.3-3.3,1.5c0,0,0,0.1,0,0.1
		c-0.4,0.1-0.7,0.1-1.1,0.1c0,0,0-0.1,0-0.1c-0.5,0-0.9,0-1.4,0c-0.1,0.2-0.3,0.5-0.4,0.6c-0.6,0.4-0.6-0.1-1.2-0.1
		c-1.2,0.1-1.5,1.5-2.9,0.5c-0.1-0.1-0.2-0.8-0.2-1.5c-0.4-0.2-0.9-0.4-1.3-0.7c-0.1,0.5,0,0.6-0.6,0.1c-0.4-0.3-0.8-1-1.2-1.4
		c-0.2-0.2-0.1-0.8-0.1-1.4c0-0.5,0-1-0.1-1.5c0.6,0.5,1.2,0.9,1.8,1.3c0.2-0.4,0.3-0.9,0.4-1c0.7-0.6,1.5-0.4,1.9,0.4
		c0,0,0,0.1,0,0.1c0,0,0-0.1,0-0.1c0,0,0,0,0,0c0.1,0.2,0.1,0.4,0.1,0.6c1,0.4,2,0.6,3.1,0.5c0.2-0.2,0.5-0.4,0.7-0.4c0,0,0,0,0.1,0
		c0.1-0.2,0.1-0.4,0.2-0.5c0,0.2,0,0.3,0,0.5c0.1,0,0.3,0,0.4,0c0.2-0.1,0.3-0.1,0.5-0.2c0,0.1,0,0.2,0,0.2c0.2,0,0.3,0.1,0.5,0.1
		c0.5,0,1.1,0.2,1.6,0.2c0.7,0,1.5-0.2,2.2-0.2C63.6,82.3,62.9,84.2,62.3,84.6z M70.4,77.6c-0.1,0.3-0.6,0.5-1.2,0.6
		c0,0,0,0.1,0,0.1c0,0.3-0.4,0.6-1,0.9c0,0.1,0.1,0.1,0.1,0.2c0,0.1,0.1,0.3-0.1,0.3c-0.4,0.1-0.8,0.1-1.3,0.2c0,0-0.1,0-0.2,0
		c-0.1,0-0.2,0-0.3,0.1c0,0-0.1,0-0.1,0c-0.1,0-0.2,0-0.3,0c-0.5,0-1,0-1.4-0.1c-0.1,0-0.1,0-0.2-0.1c-0.7,0-1.4-0.1-2-0.3
		c-1.1-0.3-1.7-0.8-2.4-1.3c-0.4-0.3-0.4-0.7,0.4-0.8c1.1-0.1,2.3-0.1,3.4-0.2c0.1,0,0.1,0,0.2,0c0.5-0.2,1-0.3,1.6-0.4
		c1.3-0.2,2.4-0.3,3.5,0.2c0.1,0,0.2,0.1,0.2,0.1C70,77.1,70.6,77.3,70.4,77.6z M73.3,68c-2.1-0.1-1.1,1.1-1.8,1.5
		c-0.1,0.5-1,0.5-1.5,0.8c-0.7,0.4-1.4,0.3-2.2,0.1c-0.6,0.1-1.3-0.1-1.8-0.3c-0.1,0-1.2-0.5-0.7-0.7c0.2-0.1-0.3-0.8-0.1-0.9
		c-0.1-0.4,0.3-0.4,0.5-0.8c-0.3-0.2-0.1-0.4,0.1-0.6c0.2-0.2,0.5-0.4,0.8-0.5c0.1-0.1,0.3-0.1,0.5-0.1c0.1-0.1,0.2-0.2,0.3-0.3
		c0,0,0,0,0,0c0.1-0.1,0.1-0.2,0.2-0.1c2.2,1.2,2.5-0.7,3.7-0.3c0.1,0,0.2,0.1,0.3,0.1c0,0,0,0,0,0c0.2,0.1,0.4,0.2,0.6,0.3
		c0.3,0.1,0.5,0.3,0.8,0.4C73.6,66.8,74.2,68,73.3,68z M88,78.1c0,0-0.1,0-0.1,0c-0.1,0.2,0.1,0.5-0.1,0.7c-0.1,0.1-0.4,0-0.5,0
		c-0.3-0.1-0.5-0.4-0.8-0.5c-0.3-0.1-0.5-0.1-0.7-0.2c-0.5,0.1-0.9,0.4-1.3,0.5c-0.1,0-0.1,0-0.2,0c0,0,0,0,0,0
		c-0.6,0.2-1.3,0.1-1.9-0.2c-0.9-0.5-1.7-0.2-2.2-1.1c0,0-0.1-0.1-0.1-0.1c0,0-0.6-0.9-0.3-0.9c0,0,0,0,0,0
		c-0.1-1.1,1.8-1.7,2.2-0.6c0,0,0.1,0,0.1-0.1c0.2-0.1,0.4-0.2,0.6-0.3c0.5-0.2,1.2-0.3,1.5,0.3c0-0.1,0.4,0.1,0.4,0.1
		c0,0,0,0,0.1,0c0.3,0,1.6-0.2,1.9,0.4c0.2,0,0.3,0,0.5,0c0,0,0,0,0,0c0,0,0.1,0,0.1,0c0.2-0.1,0.4,0.2,0.5,0.3c0,0,0.1,0.1,0.1,0.1
		C87.8,76.7,88.4,78.1,88,78.1z M89.9,70.2c-0.3,0.2-0.6,0.4-0.9,0.6c-0.1,0.2-0.2,0.5-0.4,0.5c-0.1,0-0.1,0-0.2,0
		c-0.6,0.5-1.5,0.7-2.4,0.7c-0.1,0-0.2,0-0.3,0.1c-0.2,0.1-0.4,0.1-0.6,0.1c-0.5,0-0.9-0.1-1.3-0.4c-0.1-0.1-0.1-0.2-0.1-0.3
		c-0.5-0.2-0.9-0.4-1.4-0.6c0.2,0.2,0.4,0.4,0.6,0.6c0.4,0.4-0.5,0.1-0.6,0.1c-0.6-0.2-1.2-0.6-1.7-1c0,0,0,0,0,0
		c-0.3,0-0.6,0.1-0.7,0.2c0,0-0.1,0-0.1,0c-0.2,0.2-0.5,0.4-0.7,0.7c0.6,0.3,1.3,0.7,1.4,1.2c0.2,0.7-0.7,1.4-1.4,1.5
		c-0.3,0-0.8-0.2-1.1-0.3c-0.2-0.1-0.4-0.2-0.6-0.3c-1-0.5-0.1,0.2,0.1,0.1c-0.5,0.1-1.3-0.5-1.6-0.7c-0.1,0-1-0.7-0.7-0.7
		c0.7-0.2,1.3,0.2,1.9,0.5c0.2,0.1,0.3,0.2,0.5,0.3c-0.1,0-0.1-0.1-0.2-0.1c-0.3-0.2-0.7-0.4-0.9-0.6c-0.6-0.4-0.8-0.5-0.6-1.2
		c0.1-0.2,0.2-0.5,0.4-0.7c-0.3-0.2-0.5-0.4-0.5-0.4c0.2-0.1,0.3-0.2,0.5-0.3c0.3-0.2,0.6-0.3,0.9-0.4c0.5-0.1,1-0.2,1.5-0.1
		c-0.1-0.4,0.2-0.9,0.8-1c0.1,0,0.3-0.1,0.4-0.1c0.1,0,0.2,0,0.4,0c0-0.1,0-0.3,0.1-0.4c1.4-1.4,4-0.5,5.9,0.4c0.1,0,0.1,0,0.2,0
		c0-0.2,0.1-0.3,0.4-0.3c0.8,0,1.7,0.6,2.1,1.4c0.2,0,0.5,0,0.7,0.1C90.2,69.4,90.3,69.8,89.9,70.2z M94.1,67.4c0.1,0,0.3,0,0.4,0
		c0-0.1,0-0.2,0-0.4c0.1-0.6,0.8-0.6,1.2-0.4c0,0,0.1,0,0.1,0c0.5,0,1,0.2,1.3,0.5c0,0,0.1,0,0.1,0.1c0.2,0.1,0.5,0.3,0.6,0.5
		c0.2,0.1,0.4,0.3,0.6,0.4c0.3,0.2,0.5,0.4,0.4,0.5c0.2,0,0.4,0.1,0.4,0.2c0,0.3-0.7,0.3-0.8,0.4c-0.1,0-0.2,0-0.3,0
		c0.1,0,0.2,0,0.3,0c0.1,0,0.3,0.1,0.4,0.1c0,0,0,0,0-0.1c0-0.2,0.3-0.2,0.4-0.2c0.3,0,0.6,0,0.8,0.1c0,0,0.1,0,0.1,0
		c0,0,0.1,0,0.1,0c0.5,0,1.2,0.3,1.5,0.6c0.1,0.1,0.1,0.3,0,0.4c-0.1,0.1-0.4,0.1-0.6,0.1c-0.1,0-0.2,0-0.3,0c0,0,0.1,0.1,0.1,0.1
		c0.4,0.3-0.2,0.5-0.5,0.5c-0.5,0-1.2,0-1.6-0.3c-0.1-0.1-0.1-0.1-0.2-0.2c-0.1,0-0.3,0-0.3,0c-0.8,0-3.1,0.1-3-1c0-0.1,0-0.2,0-0.3
		c0,0,0,0,0,0c-0.1,0-0.2,0-0.3,0c-0.2,0-0.9,0-0.8-0.3c-0.3-0.1-0.6-0.3-0.8-0.5C92.7,67.8,93.5,67.5,94.1,67.4z M103,77.7
		c-0.7,0-1.2-0.5-1.7-0.9c-0.1-0.1-0.3-0.2-0.4-0.4c0.1,0.1,0.1,0.1,0.1,0.2c0.3,0.3,0.6,0.5,0.8,0.8c0.5,0.5,0.7,0.7,0.3,1.3
		c-0.1,0.2-0.3,0.4-0.5,0.6c0.2,0.3,0.4,0.5,0.4,0.5c-0.2,0.1-0.4,0.1-0.6,0.2c-0.3,0.1-0.6,0.2-1,0.2c-2.1,0.1-3.9-1.6-5-3.4
		c-0.3-0.5,0.5,0,0.6,0.1c0.5,0.4,1.1,0.8,1.4,1.3c0,0,0,0,0,0c0.3,0,0.6,0,0.7,0c0,0,0.1,0,0.1,0c0.3-0.1,0.6-0.3,0.8-0.5
		c-0.2-0.2-0.5-0.4-0.7-0.6c-0.6-0.1-1.2-0.4-1.6-0.8c-0.3,0-0.6-0.1-0.9-0.2c-0.6-0.2-1.2-0.5-1.6-1c-0.1-0.2,0.4-0.1,0.7,0
		c0,0,0-0.1-0.1-0.1c-0.1-0.2,0.1-0.3,0.2-0.4c-0.1-0.2,0.2-0.5,0.4-0.5c0.4-0.2,0.8-0.3,1.2-0.2c0.2,0,0.5,0.1,0.7,0.2
		c0.2-0.3,0.7-0.5,1.1-0.4c0.3,0,0.5,0.2,0.7,0.4c0.1,0.1,0.2,0.2,0.4,0.3c0.1,0.1,0.2,0.1,0.2,0.2c0,0,0,0,0,0
		c-0.1-0.1-0.3-0.3-0.3-0.3c0.1,0,0.3,0.1,0.4,0.2c0,0,0,0,0,0c0-0.2,0-0.4,0.2-0.4c0.3-0.1,0.6-0.2,0.9-0.4
		c0.4-0.3,0.8,0.1,1.1,0.3c0.1,0.1,0.3,0.3,0.4,0.5c0.2,0.1,0.4,0.2,0.2,0.4c-0.4,0.6-1.1,0.9-1.7,1.1c-0.1,0-0.1,0.1-0.2,0.1
		c0.1,0.1,0.2,0.1,0.2,0.2c0.9,0.7,0.1-0.2-0.1-0.2c0.5,0,1.1,0.7,1.4,1C102.5,76.8,103.3,77.7,103,77.7z M114.6,83.4
		c-0.6-0.5-0.7-1.7-1.4-2c-0.1,0-0.1-0.1-0.2-0.1c-0.3,0-0.5,0-0.6-0.1c-0.1-0.2-0.3-0.4-0.5-0.5c-0.4,0-0.7,0-0.7-0.2
		c-0.1-0.2-0.7,0.1-0.7-0.1c0.1,0,0.7-0.6,0.7-0.5c-0.4-0.4-1.3-0.3-1.5-0.7c-0.1-0.2-0.5-0.3-0.6-0.5c-0.2-0.4-0.5-0.8-0.8-1.1
		c0,0,0,0,0.1,0c-0.1,0,0-0.1-0.1-0.1c0.3,0,0.6,0.1,0.9,0.1c0.1,0,0.2,0,0.2,0c0.5,0,1,0.1,1.5,0.2c0,0,0,0,0,0c0,0,0,0,0,0
		c0,0,0,0,0,0c1.5,0.3,2.7,1.2,3.1,2.7c0.2,1,0.1,1.2,1.2,1.6c0.8,0.3,1.5,1,2.1,1.5C116.9,83.2,115.3,83.9,114.6,83.4z M122.1,78
		c-0.2,0-0.2-0.1-0.2-0.1l-0.1-0.1l-0.3-0.3l-0.6-0.5c-0.2-0.2-0.4-0.3-0.6-0.5c-0.1-0.1-0.2-0.2-0.4-0.3c-0.1,0-0.1,0-0.2,0
		c-0.6-0.2-1-0.8-0.8-1.4c0.2-0.6,0.8-1,1.4-0.8c0.6,0.2,0.9,0.7,0.8,1.3c0.1,0.1,0.1,0.3,0.2,0.4c0.1,0.3,0.2,0.5,0.3,0.8
		c0.1,0.3,0.2,0.5,0.3,0.8l0.1,0.4l0.1,0.2C122.1,77.8,122.2,77.9,122.1,78z"/>
</g>
</svg>
