<?xml version="1.0" encoding="utf-8"?>
<!-- Generator: Adobe Illustrator 24.1.2, SVG Export Plug-In . SVG Version: 6.00 Build 0)  -->
<svg version="1.1" id="Layer_1" xmlns="http://www.w3.org/2000/svg" xmlns:xlink="http://www.w3.org/1999/xlink" x="0px" y="0px"
	 viewBox="0 0 128 128" style="enable-background:new 0 0 128 128;" xml:space="preserve">
<style type="text/css">
	.st0{fill:#2D2D2D;}
</style>
<g>
	<path class="st0" d="M121.8,26.3c-1.1,0.4-2.3,0.6-3.5,0.7c-2.3,0.2-4.8,0.1-7-1.1c-2-1.2-4-2.4-6-3.3c-2.1-0.9-4.2-1.7-6.4-1.8
		l-1.3,0l1.1-0.8c0.8-0.6,1.6-1.5,2.2-2.5c0.2-0.4,0.5-0.8,0.7-1.2c-0.5,0.3-1,0.6-1.5,0.9c-1.1,0.6-2.3,1-3.4,1.3
		c-2.4,0.6-4.9,0.8-7.4-0.1c-2.4-1-4.3-2.6-6.2-4.1c-1.9-1.5-3.7-3.2-5.6-4.8c-0.9-0.8-1.8-1.6-2.7-2.3c-0.5-0.4-0.9-0.7-1.4-1.1
		c-0.2-0.2-0.5-0.3-0.7-0.5c-0.2-0.1-0.4-0.2-0.6-0.3C70,4.5,67.7,4.2,65.4,4c-4.6-0.4-9.3-0.4-13.9-0.2l-2.8,0.1l1.8-2.3
		C50.6,1.4,50.8,1.2,51,1c-0.9,0.3-1.9,0.5-2.8,0.6c-1.4,0.1-2.8,0-4.2-0.2c-0.7-0.1-1.4-0.3-2-0.4c-0.6-0.1-1.3-0.3-1.9-0.4
		c-2.5-0.5-5.1-0.6-7.7-0.5c-1.3,0.1-2.6,0.3-3.9,0.6c-1.1,0.3-2.1,0.6-3.1,1.1c-0.1,0.7-0.3,1.3-0.6,2c-0.3,0.9-0.8,1.8-1.3,2.7
		c-0.2,0.3-0.5,0.7-0.8,1c1.3,0.2,2.6,0.3,3.9,0.4c1.8,0.1,3.7,0,5.5-0.1l2.2-0.1l-2,1.1c-1.9,1.1-3.7,2.4-5.1,4
		c-0.7,0.8-1.4,1.7-1.7,2.6c-0.4,0.9-0.4,1.8,0,2.5c0.2,0.4,0.4,0.7,0.9,1c0.4,0.3,0.8,0.6,1.2,0.8c0.8,0.5,1.7,0.8,2.7,1.2
		c1,0.5,2.1,1,3.1,1.9c0.9,0.8,1.6,2,1.8,3.2c1.3,1.2,3.7,3.6,4.5,4.1c1,0.6,2,1.2,3,1.9l1.5,1c0.5,0.3,1,0.8,1.4,1.3
		c0.2,0.3,0.4,0.5,0.6,0.8c0.2,0.3,0.4,0.5,0.6,0.8c0.4,0.5,0.7,1.1,1,1.6c1.3,2.2,2.2,4.5,3.3,6.6c0.5,1.1,1.1,2.1,1.7,3
		c0.6,0.9,1.4,1.6,2.1,1.9l4.9,1.3l-4.9,0.5c-1.5,0.1-3.1,0.3-4.7,0.1c1.1,1.6,2.2,3.8,2.9,5.5c0.7,1.9,1.2,4,1.5,6.1
		c0.3,2.1,0.2,4.3-0.2,6.4c-0.3,2.2-1.2,4.2-2.2,6.1l-1.8,3.4l-0.8-3.8c-0.1-0.3-0.1-0.6-0.2-0.9c0.1,1.1,0.2,2.1,0.2,3.2
		c0,1.3-0.1,2.6-0.4,3.9c-0.3,1.3-0.7,2.6-1.4,3.8l-1.4,2.5l-0.9-2.9c-0.2-0.8-0.5-1.6-0.9-2.3c-0.2-0.3-0.3-0.6-0.5-0.7
		c0,0.1-0.1,0.1-0.2,0.2c-0.2,0.3-0.4,0.6-0.6,1c-0.4,0.7-0.7,1.5-1,2.3c-0.6,1.6-1.1,3.3-1.4,5c-0.2,0.8-0.2,1.7-0.2,2.5
		c0,0.8,0.1,1.6,0.3,2.2l1.3,3.8l-3-2.1c-1.1-0.7-1.8-1.6-2.4-2.6c0.2,1.3,0.5,2.6,0.9,3.9c0.2,0.9,0.5,1.7,0.7,2.6
		c0.2,0.9,0.5,1.7,0.8,2.6l0.8,2.3c0.1,0.4,2.9,4.8,4.1,7c1.2,2.2,2.4,4.5,3.6,6.7c0.6,1.1,1.2,2.2,1.9,3.2c0.6,1,1.3,2,2.1,3
		c0.8,1,1.7,2,2.6,3c0.3-1.1,0.6-2.1,1.1-3c0.9-2,1.9-3.8,3.2-5.5c1.2-1.7,2.6-3.2,3.9-4.7c1.4-1.5,2.7-3,4.1-4.5l0.4-0.4l0.3,0.6
		c0.3,0.5,0.6,1.1,0.8,1.7c0.2,0.6,0.2,1.3,0.1,2c0,0.1,0,0.2,0,0.3c0.5-0.7,1-1.5,1.4-2.3c0.8-1.7,1.5-3.5,2-5.4
		c0.5-1.9,0.9-3.8,1.3-5.9c0.1-0.5,0.2-1,0.4-1.6c0.1-0.3,0.2-0.6,0.4-1c0.2-0.3,0.5-0.8,1.1-0.9c0.6-0.2,1,0,1.3,0.1
		c0.3,0.1,0.5,0.3,0.7,0.5c0-0.3,0-0.6,0-0.8c0.1-0.9,0.2-1.7,0.5-2.6c0.3-0.9,1-1.6,1.8-2c0.7-0.3,1.4-0.3,2.1-0.3
		c-0.2-0.6-0.3-1.2-0.5-1.7c0-0.1,0-0.2,0.1-0.2c0.1,0,0.2,0,0.2,0.1c0.6,1.4,1.1,2.9,1.6,4.4c1.5-2,2.5-4.4,3.4-6.8
		c0.5-1.3,0.8-2.7,1.1-4c0.3-1.3,0.4-2.7,0.3-4l-0.3-2.1l1.6,1.3c1.5,1.1,2.4,2.9,2.9,4.6c0.2,0.7,0.4,1.4,0.5,2
		c0.7-1.5,1.2-3.1,1.6-4.8c0.6-2.7,0.8-5.5,0.8-8.3c0-2.8-0.2-5.6-0.5-8.4c-0.2-1.4-0.4-2.8-0.6-4.2c-0.1-0.7-0.3-1.4-0.4-2
		c-0.1-0.6-0.3-1.4-0.5-1.8l-1-2.8L94,54c1.2,0.2,2.5,0.7,3.5,1.5c0-1.2-0.1-2.4-0.1-3.5l0-1c0-0.4,0-1,0.1-1.4
		c0.2-0.9,0.6-1.7,1-2.4c0.9-1.3,2-2.3,3.1-3.1c2.3-1.6,4.6-2.7,7.1-3.6c0.6-0.2,1.2-0.4,1.9-0.6l0.3-0.1l0.2,0l0.1,0l0.1,0
		c0,0,0.1,0,0.2,0c0.6,0.1,0.7,0.3,0.9,0.4c0.4,0.5,0.5,0.7,0.6,0.9c0.2,0.5,0.3,0.9,0.3,1.3c0.1,0.3,0.1,0.7,0.1,1
		c0.4-0.7,0.7-1.6,0.7-2.5c0-0.5,0-1-0.1-1.5c0-0.3-0.1-0.5-0.2-0.8l-0.1-0.4c0-0.2-0.1-0.4-0.1-0.6c-0.3-1.6,0.1-3.1,0.7-4.4
		c0.6-1.3,1.5-2.3,2.5-3.2c0.5-0.4,1.1-0.8,1.7-1.1c0.2-0.1,0.3-0.1,0.5-0.2l0.4-0.1c0.2-0.1,0.4-0.1,0.6-0.2c0.8-0.4,1.4-1.2,2-2.2
		c0,0,0.1-0.1,0.1-0.2C121.9,26.2,121.8,26.3,121.8,26.3z M79.9,77c-0.5,0.1-1,0-1.4-0.3c-0.8-0.6-1.3-1.6-1.8-2.5
		c-0.3-0.5-0.6-1-0.9-1.5c0.2,0.5,0.3,1.1,0.4,1.7c0.3,2,0.3,4,0.2,6c-0.3,4-1.3,7.8-2.3,11.5l-1.6,6.6l-0.7-6.8
		c-0.1-0.8-0.4-1.6-0.8-2.5c-0.4,1.4-0.8,2.8-1.4,4.2c-0.6,1.4-1.4,2.7-2.4,3.9c-1,1.2-2.3,2.2-3.7,2.9c-0.4,0.2-0.7,0.3-1.1,0.4
		c-0.4,0.1-0.8,0.2-1.2,0.3c-0.8,0.1-1.7,0.1-2.5-0.2c-1.6-0.5-2.9-1.5-4-2.6c-1.1-1.1-1.9-2.4-2.6-3.8c-0.3-0.7-0.6-1.4-0.9-2.1
		c-0.1-0.4-0.2-0.8-0.3-1.2c-0.1-0.4-0.2-0.8-0.2-1.6l0.1-2.8l2.1,1.7c0.8,0.6,1.6,1.1,2.2,1.2c0.2,0,0.5,0,0.7,0
		c-0.3-0.5-0.6-1.1-0.8-1.7c-0.4-1.2-0.5-2.5-0.4-3.7c0.1-1.2,0.5-2.3,0.9-3.4c0.2-0.5,0.5-1,0.7-1.5L57,78l2.1-3.6l0.2,3.9
		c0,1,0.6,2.3,1.3,2.9c0.4,0.3,0.7,0.5,1.1,0.5c0.3,0,0.7-0.2,1.1-0.4c0.4-0.8,0.7-1.8,0.9-2.9c0.2-1.1,0.2-2.3,0.2-3.5
		c-0.1-2.4-0.4-4.8-0.8-7.2c-0.4-2.4-1-4.8-1.6-7.1c-0.7-2.3-1.4-4.7-2.5-6.9c1.3,2,2.3,4.3,3.2,6.6c0.9,2.3,1.6,4.7,2.2,7.1
		c0.6,2.4,1.1,4.9,1.3,7.4c0.1,1.3,0.1,2.6,0,3.9c-0.1,1.3-0.4,2.7-1.1,4l-0.1,0.1L64.3,83c-0.6,0.6-1.4,1.1-2.4,1.1
		c-1,0.1-1.9-0.4-2.6-0.9c-0.6-0.5-1-1-1.3-1.6c0,0.1-0.1,0.1-0.1,0.2c-0.3,0.8-0.6,1.7-0.7,2.5c-0.1,0.8,0,1.7,0.3,2.4
		c0.3,0.8,0.7,1.5,1.3,2.1l0.9,1l-0.9,1c-0.5,0.5-1.1,1-1.8,1.3c-0.7,0.3-1.5,0.4-2.3,0.3c-0.1,0-0.2-0.1-0.3-0.1
		c0.1,0.1,0.1,0.3,0.2,0.4c0.6,1.1,1.3,2.2,2.1,3.1c0.8,0.9,1.7,1.5,2.7,1.8c1,0.3,1.8,0.1,2.9-0.4c2.1-0.9,3.6-2.9,4.7-5.3
		c1-2.4,1.7-5,2.2-7.8l1.2-6.5l1.5,6.4c0.2,1,0.7,2,1.2,3.1c0.7-2.4,1.2-4.7,1.6-7.1c0.3-1.8,0.4-3.7,0.2-5.5
		c-0.2-1.8-0.6-3.6-1.5-5.2l-1.7-3.1l2.5,2.3c1.6,1.5,2.4,3.4,3.2,5.3c0.4,0.9,0.8,1.9,1.5,2.5c0.3,0.3,0.8,0.5,1.2,0.4
		c0.5,0,0.9-0.2,1.3-0.5C80.9,76.6,80.4,76.9,79.9,77z M72.1,39.2c-0.9-0.6-1.9-1.3-2.9-1.9c-1-0.6-2-1.1-3-1.6
		c-1-0.5-2.1-1-3.1-1.4C62,34,61,33.6,59.8,33.6c1.1-0.5,2.4-0.4,3.5-0.3c1.2,0.1,2.4,0.3,3.5,0.7c1.2,0.3,2.3,0.7,3.4,1.2
		c1.1,0.5,2.2,1,3.3,1.6c2.1,1.2,4.1,2.8,5.8,4.8c0.9,1,1.6,2.1,2.2,3.4c0.6,1.3,1,2.7,1,4.2l0.1,4l-2.4-3l-2.5-3.1
		c-0.8-1-1.7-2-2.6-2.9c-0.9-0.9-1.9-1.8-2.9-2.6c-1-0.8-2.2-1.3-3.4-1.7c1.3-0.2,2.7,0.1,3.9,0.6c1.3,0.5,2.4,1.2,3.6,2.1
		c0.1,0.1,0.3,0.2,0.4,0.3C75.2,41.6,73.7,40.3,72.1,39.2z M81.1,56.3c-1.1,0.2-2.3,0.3-3.5,0c-1.2-0.2-2.3-0.6-3.3-1.2
		c-1-0.6-1.9-1.4-2.6-2.2c-0.7-0.9-1.3-1.9-1.7-3c0.9,0.7,1.7,1.3,2.6,1.8c0.9,0.5,1.8,0.9,2.6,1.2c0.4,0.2,0.9,0.2,1.3,0.4
		c0.1,0,0.2,0,0.3,0c-0.6-0.7-1.1-1.5-1.5-2.3c-0.5-1.1-0.8-2.3-1-3.5c-0.1-1.2-0.1-2.3,0-3.5c0.6,1,0.9,2.1,1.4,3
		c0.4,1,1,1.8,1.5,2.6c0.6,0.8,1.2,1.5,1.9,2.1c0.7,0.6,1.5,1.2,2.3,1.7l3.5,2.3L81.1,56.3z M81.8,30.6c-1.5-1.1-2.8-2.2-4.2-3.3
		c-1.4-1.1-2.8-2.1-4.2-2.8c-1.5-0.8-3.1-1.3-4.7-1.5c-1.7-0.2-3.4,0-5.1,0.4c1.6-0.8,3.3-1.3,5.1-1.4c1.8-0.1,3.6,0.3,5.3,0.9
		c0.3,0.1,0.6,0.3,0.9,0.4c-1.3-0.8-2.6-1.6-4-2.2c-2.1-0.9-4.4-1.6-6.7-2.1c-2.3-0.4-4.6-0.7-6.9-0.7l-3,0.1l1.9-2.4
		c0.7-0.8,1.5-1.2,2.2-1.5c0.7-0.3,1.5-0.4,2.2-0.5c0.1,0,0.3,0,0.4-0.1C61,14,60.8,14,60.7,14c-1.2-0.3-2.4-0.5-3.6-0.5
		c-1.2,0-2.4,0.2-3.6,0.6c-1.2,0.4-2.3,1.1-3.5,1.6c1.1-0.7,2.1-1.6,3.2-2.3c1.1-0.7,2.5-1.1,3.8-1.3c1.3-0.2,2.7-0.2,4,0
		c1.3,0.1,2.6,0.4,3.9,0.7l1.1,0.3l-0.4,1.1c-0.3,0.8-0.8,1.2-1.2,1.4c-0.2,0.1-0.3,0.1-0.4,0.2c0.3,0,0.7,0.1,1,0.1
		c2.5,0.5,4.9,1.1,7.3,2.2c2.3,1.1,4.6,2.4,6.6,4.2c2,1.8,3.7,3.9,4.9,6.4l2.6,4.9L81.8,30.6z"/>
	<path class="st0" d="M36.1,92.8c-0.6-1-1.1-2-1.6-3.1c-0.5-1.2-0.9-2.4-1.2-3.7c-0.3-1.3-0.5-2.6-0.2-3.9c0,1.3,0.5,2.4,1.1,3.6
		c0.5,1.1,1.1,2.2,1.8,3.2c0.6,1,1.3,1.9,1.9,2.7c0-0.8,0.1-1.5,0.2-2.2c0.3-2,0.8-3.9,1.5-5.7c0.4-0.9,0.7-1.8,1.2-2.7
		c0.2-0.4,0.5-0.9,0.8-1.4c0.4-0.5,0.8-1.1,1.8-1.3c0.5-0.1,1.1,0,1.5,0.2c0.2,0.1,0.4,0.2,0.5,0.3c0.2,0.1,0.3,0.3,0.4,0.4
		c0.5,0.5,0.7,1,1,1.5c0,0,0,0,0,0c0.1-0.2,0.1-0.3,0.2-0.5c0.4-1.1,0.7-2.3,0.9-3.5c0.2-1.2,0.4-2.4,0.4-3.7l0.2-1.9
		c0-0.3,0.1-0.6,0.1-0.9c0,0,0-0.1,0-0.1c-0.3-1.4-0.6-2.7-1-4.1c-0.4-1.4-0.9-2.7-1.6-4c-0.6-1.3-1.4-2.5-2.3-3.7
		c1.2,0.7,2.4,1.7,3.3,2.9c1,1.2,1.8,2.5,2.4,3.9c0.6,1.4,1.2,2.8,1.6,4.3c0,0,0,0.1,0,0.1l0.3-1.3c0.4-1.8,0.6-3.7,0.5-5.6
		c0-1.9-0.2-3.8-0.6-5.8c-0.3-1.5-0.8-3.3-1.3-5c-0.1-0.4-0.3-0.8-0.3-1.1h0c0,0,0,0,0,0c-0.3,0-0.5,0-0.8-0.1c-1-0.2-1.9-0.5-2.8-1
		c-0.9-0.5-1.6-1.2-2.2-2c-0.1-0.1,0-0.2,0-0.2c0.1-0.1,0.1,0,0.2,0c1.4,1.3,3.1,2,4.9,2.1c0.9,0,1.9,0,2.8-0.2
		c-0.3-0.3-0.6-0.6-0.9-0.9c-0.8-1-1.5-2.1-2.2-3.1c-1.2-2.1-2.4-4.3-3.6-6.3c-0.3-0.5-0.6-1-1-1.4c-0.2-0.2-0.3-0.4-0.5-0.6
		c-0.1-0.1-0.2-0.2-0.3-0.3l-0.3-0.3c-0.4-0.4-0.8-0.8-1.1-1.3c-0.3-0.5-0.7-0.9-1.1-1.3c-0.8-0.9-1.6-1.7-2.5-2.6
		c-0.7-0.8-3.1-3.7-4.1-5.1C32.6,24.8,31,24.6,29,24c-1.1-0.4-2.2-1-3.2-1.9c-1-0.9-1.7-1.9-2.3-3.3c-0.3-0.7-0.4-1.5-0.3-2.3
		c0.1-0.7,0.3-1.4,0.7-2c0.6-1.2,1.5-2.1,2.3-2.9c1.2-1.1,2.5-2,3.9-2.8c-1.2,0-2.3,0-3.5,0c-1.9,0-3.7-0.1-5.6-0.2L19,8.4l1.6-1.2
		c0.6-0.5,1.1-1.1,1.5-1.8c0.3-0.6,0.6-1.3,0.7-2c-0.3,0.2-0.6,0.4-1,0.5l-0.1,0l-0.1,0c-1.2,0.1-2.3,0.3-3.4,0.7
		c-1.1,0.4-2.1,1-2.9,1.8c-0.9,0.8-1.6,1.7-2.2,2.8c-0.6,1-0.9,2.3-0.8,3.3l0.1,1l-0.8,0.1c-1.4,0.2-2.9,0.6-3.3,1.8
		C8,16.2,8,17,8,17.8c0,0.7-0.1,1.5-0.3,2.3c0,0,0.1,0,0.1,0c0.2,0,0.3,0.1,0.4,0.2c0.2,0.1,0.4,0.3,0.5,0.5C9,21,9.2,21.3,9.5,21.6
		c0.5,0.6,1,1.2,1.6,1.7c0.5,0.5,1.1,0.9,1.7,1.2c0.6,0.3,1.2,0.4,1.8,0.5l0.6,0l0.6,1.3c0,0,0.1,0.4,0.1,0.6l0.2,0.9
		c0.2,0.6,0.3,1.2,0.5,1.9c0.3,1.3,0.5,2.6,0.7,3.9c0.3,2.7,0.5,5.3,0.5,8c-0.1,1.3-0.3,2.8-1.3,4c-0.7,0.9-1.2,2-1.1,2.9
		c0.1,1.9,1.7,3.9,2.9,6.2l0.4,0.8l-0.5,0.9c-1,1.8-2.4,3.1-3.5,4.2c-1.1,1.2-2,2.3-2.6,3.8c-0.6,1.5-1.2,3.3-2.1,5
		c-0.9,1.6-2.2,2.9-3.8,3.4c-0.2,1.1-0.1,2.3-0.1,3.5c0.1,1.2,0.2,2.3,0.4,3.4C6.7,81,7,82.1,7.5,83c0.1,0.3,0.2,0.5,0.4,0.7
		c0.1-0.2,0.2-0.4,0.3-0.6c0.3-0.5,0.5-1,0.8-1.5c0.3-0.5,0.6-0.9,0.9-1.4l1.3-1.9l-0.4,2.3c-0.2,1.1-0.2,2.4,0.1,3.6
		c0.2,1.2,0.7,2.3,1.4,3.2c0.6,1,1.4,1.8,2.2,2.5c0.1,0.1,0.3,0.2,0.4,0.4c0-0.3,0.1-0.6,0.2-0.9c0.2-0.6,0.4-1.2,0.6-1.8
		c0.2-0.6,0.5-1.1,0.8-1.7l1.8-2.9l1,3.3c0.3,0.9,0.6,1.9,1,2.9c0.4,1,0.9,1.9,1.4,2.8c0.5,0.9,1.1,1.8,1.7,2.6
		c0.3,0.4,0.6,0.7,0.9,1.1c-0.3-1.4-0.6-2.9-0.6-4.5c0-0.1,0.1-0.2,0.1-0.2c0.1,0,0.1,0,0.1,0.1l0,0c1,1.8,1.9,3.6,2.8,5.3
		c0.9,1.7,1.8,3.4,2.7,5.1c0.9,1.7,1.7,3.5,2.9,5c0.6,0.8,1.3,1.5,2.1,2.1c-0.1-0.1-0.1-0.2-0.2-0.3c-0.6-0.9-1.2-1.8-1.6-2.8
		c-0.4-1-0.7-2.2-0.8-3.4c-0.1-1.2,0.1-2.5,0.7-3.8l1.4-3l1.3,3.4c0.1,0.2,0.3,0.5,0.5,0.8c0-0.5-0.1-1-0.1-1.5c0-1,0-1.9,0.1-2.9
		C35.8,94.3,35.9,93.5,36.1,92.8z"/>
</g>
</svg>
