<?xml version="1.0" encoding="utf-8"?>
<!-- Generator: Adobe Illustrator 23.0.0, SVG Export Plug-In . SVG Version: 6.00 Build 0)  -->
<svg version="1.1" id="Layer_1" xmlns="http://www.w3.org/2000/svg" xmlns:xlink="http://www.w3.org/1999/xlink" x="0px" y="0px"
	 viewBox="0 0 128 128" style="enable-background:new 0 0 128 128;" xml:space="preserve">
<style type="text/css">
	.st0{fill:#2D2D2D;}
</style>
<g>
	<g>
		<path class="st0" d="M58.5,107.7c-0.2-0.7-0.4-1.4-0.9-2c-0.2-0.3-0.5-0.6-0.9-0.9c-0.2-0.1-0.3-0.2-0.5-0.2
			c-0.2-0.1-0.3-0.1-0.5-0.2c-0.7-0.2-1.6-0.3-2.1,0.2c-0.1,0.1-0.2,0.3-0.2,0.5c0,0.2,0.1,0.3,0.1,0.5c0.1,0.3,0.3,0.6,0.5,0.9
			c0.2,0.3,0.4,0.5,0.7,0.7c0.1,0.1,0.3,0.2,0.4,0.3c0.1,0.1,0.3,0.1,0.4,0.2c0.5,0.3,1.1,0.5,1.6,0.9c0.5,0.4,0.9,0.9,1.2,1.4
			l0.6,0.9l-0.2-1.1C58.8,109.1,58.7,108.4,58.5,107.7z"/>
		<path class="st0" d="M55.6,109.5c-0.2-0.7-0.4-1.4-0.9-2c-0.2-0.3-0.5-0.6-0.9-0.9c-0.2-0.1-0.3-0.2-0.5-0.2
			c-0.2-0.1-0.3-0.1-0.5-0.2c-0.7-0.2-1.6-0.3-2.1,0.2c-0.1,0.1-0.2,0.3-0.2,0.5c0,0.2,0.1,0.3,0.1,0.5c0.1,0.3,0.3,0.6,0.5,0.9
			c0.2,0.3,0.4,0.5,0.7,0.7c0.1,0.1,0.3,0.2,0.4,0.3c0.1,0.1,0.3,0.1,0.4,0.2c0.5,0.3,1.1,0.5,1.6,0.9c0.5,0.4,0.9,0.9,1.2,1.4
			l0.6,0.9l-0.2-1.1C55.9,110.9,55.8,110.2,55.6,109.5z"/>
		<path class="st0" d="M50.3,110.4c-0.2-0.7-0.4-1.4-0.9-2c-0.2-0.3-0.5-0.6-0.9-0.9c-0.2-0.1-0.3-0.2-0.5-0.2
			c-0.2-0.1-0.3-0.1-0.5-0.2c-0.7-0.2-1.6-0.3-2.1,0.2c-0.1,0.1-0.2,0.3-0.2,0.5c0,0.2,0.1,0.3,0.1,0.5c0.1,0.3,0.3,0.6,0.5,0.9
			c0.2,0.3,0.4,0.5,0.7,0.7c0.1,0.1,0.3,0.2,0.4,0.3c0.1,0.1,0.3,0.1,0.4,0.2c0.5,0.3,1.1,0.5,1.6,0.9c0.5,0.4,0.9,0.9,1.2,1.4
			l0.6,0.9l-0.2-1.1C50.6,111.8,50.5,111.1,50.3,110.4z"/>
		<path class="st0" d="M66.5,101.3c-0.6-0.5-1.1-1-1.9-1.3c-0.4-0.2-0.8-0.3-1.3-0.3c-0.3,0-0.4,0-0.6,0.1c-0.2,0-0.4,0.1-0.6,0.1
			c-0.7,0.2-1.6,0.6-1.8,1.4c-0.1,0.2,0,0.4,0.1,0.5c0,0,0,0,0,0c-0.1,0-0.1,0-0.2,0c-0.7,0.1-1.6,0.4-2,1.1c-0.1,0.2,0,0.4,0.1,0.5
			c0.1,0.2,0.2,0.3,0.3,0.4c0.3,0.3,0.5,0.5,0.9,0.7c0.3,0.2,0.7,0.3,1,0.4c0.2,0,0.4,0.1,0.5,0.1c0.2,0,0.3,0,0.5,0
			c0.6,0,1.3,0,2,0.1c0.6,0.1,1.3,0.4,1.8,0.8l0.9,0.6l-0.6-1c-0.4-0.6-0.8-1.3-1.3-1.8c-0.3-0.3-0.5-0.6-0.8-0.9c0.1,0,0.2,0,0.3,0
			c0.6-0.1,1.3-0.2,2-0.1c0.7,0.1,1.3,0.3,1.9,0.6l1,0.5L68,103C67.6,102.4,67.1,101.8,66.5,101.3z"/>
		<path class="st0" d="M109.7,107c-0.8-0.7-1.7-1.4-2.7-1.9c-0.5-0.2-1.1-0.4-1.7-0.4c-0.2,0-0.3,0-0.4,0c-0.1,0-0.3,0-0.4,0.1
			c-0.3,0-0.5,0.1-0.8,0.2c-0.5,0.1-1.1,0.3-1.6,0.6c-0.5,0.3-0.9,0.7-1,1.3c-0.1,0.3,0,0.5,0.2,0.7c0.2,0.2,0.4,0.4,0.6,0.5
			c0.4,0.3,0.9,0.5,1.4,0.7c0.5,0.2,1,0.3,1.5,0.3c0.3,0,0.5,0,0.8,0l0.7-0.1c0.9-0.1,1.9-0.2,2.9,0c1,0.1,1.9,0.4,2.8,0.8l1,0.4
			l-0.8-0.8C111.3,108.5,110.6,107.7,109.7,107z"/>
		<path class="st0" d="M115.8,104.8l0.9,0.7l-0.6-1c-0.5-0.8-0.9-1.7-1.5-2.4c-0.6-0.8-1.2-1.5-2-2.1c-0.4-0.3-0.9-0.6-1.4-0.7
			c-0.2,0-0.3,0-0.4-0.1c-0.1,0-0.2,0-0.4,0c-0.2,0-0.5,0-0.7,0c-0.5,0-1,0.1-1.5,0.3c-0.5,0.2-0.9,0.5-1.1,0.9
			c-0.1,0.2-0.1,0.5,0,0.7c0,0,0,0,0,0.1c-0.1,0-0.1,0-0.2,0c-0.5,0-1,0.1-1.5,0.3c-0.5,0.2-0.9,0.5-1.1,0.9c-0.1,0.2-0.1,0.5,0,0.7
			c0.1,0.2,0.2,0.4,0.4,0.6c0.3,0.3,0.6,0.6,1,0.9c0.4,0.2,0.8,0.4,1.2,0.6c0.2,0.1,0.5,0.1,0.7,0.1l0.6,0.1
			c0.8,0.1,1.7,0.2,2.4,0.5c0.8,0.3,1.5,0.7,2.2,1.2l0.9,0.7l-0.6-1c-0.5-0.8-0.9-1.7-1.5-2.4c-0.2-0.3-0.4-0.5-0.6-0.8
			c0.7,0.1,1.5,0.2,2.2,0.4C114.4,103.8,115.1,104.3,115.8,104.8z"/>
	</g>
	<path class="st0" d="M67.9,75.4c0.1,0.3,0.1,0.6,0.3,0.9c0.1,0.3,0.2,0.6,0.4,0.9c0.6,0.9,1.4,1.7,2.5,2.2c0.5-0.2,1-0.3,1.5-0.4
		c0.3,0,0.6-0.1,0.9-0.1c-0.2-0.3-0.5-0.7-0.6-1.1c-0.2-0.3-0.3-0.7-0.4-1.1c-0.1-0.4-0.2-0.7-0.2-1.1l0-0.2l0.1-0.2
		c0.5-0.8,1.1-1.5,1.8-2c0.4-0.2,0.7-0.4,1.1-0.6c-0.5-0.1-1-0.2-1.4-0.3c-0.8-0.1-1.6-0.2-2.4-0.2c-0.8,0-1.5,0.2-2.2,0.4
		c-0.6,0.3-1.1,0.7-1.6,1.1l0,0.7C67.8,74.7,67.8,75.1,67.9,75.4z"/>
	<path class="st0" d="M59.1,76.7c0.9-0.2,1.8-0.3,2.8-0.5c-0.3-0.3-0.6-0.7-0.9-1.1c-0.5-0.7-0.9-1.5-1.1-2.3
		c-0.2-0.8-0.2-1.7-0.1-2.6l0-0.2L60,70c0.5-0.5,1.1-0.9,1.8-1.2c0.1-0.1,0.3-0.1,0.4-0.2c-0.3-0.3-0.6-0.6-0.9-0.9
		c-0.2-0.2-0.4-0.4-0.6-0.7c-0.5,0.1-1.1,0.3-1.6,0.5c-0.7,0.2-1.3,0.6-1.9,0.9c-0.6,0.4-1.1,0.7-1.6,1.2c-0.4,0.4-0.9,0.8-1.2,1.2
		c0.1,0.6,0.2,1.2,0.5,1.7c0.2,0.6,0.6,1.2,1.1,1.7C56.8,75.3,57.9,76.1,59.1,76.7z"/>
	<path class="st0" d="M84.1,83.3c0.3-0.3,0.7-0.6,1-0.8c0,0,0,0,0,0c-0.3-0.2-0.7-0.5-0.9-0.7c-0.4,0.2-0.8,0.3-1.3,0.4
		c-0.5,0.4-1.1,0.8-1.7,1.2l-1,0.6c-0.2,0.1-0.3,0.2-0.5,0.3c0.2,0.4,0.5,0.8,0.7,1.2c0.2,0.5,0.4,1,0.6,1.5
		c0.1,0.1,0.3,0.1,0.4,0.2c0.1-0.2,0.2-0.5,0.3-0.7c0.3-0.6,0.7-1.2,1.1-1.7C83.2,84.2,83.7,83.7,84.1,83.3z"/>
	<path class="st0" d="M54.8,75.8c0.3-0.1,0.6-0.3,0.9-0.4c-0.2-0.1-0.3-0.3-0.5-0.4c-0.6-0.5-1.1-1.2-1.5-1.9
		c-0.4-0.7-0.6-1.5-0.7-2.3l0-0.2l0.1-0.2c0.5-0.7,1-1.2,1.6-1.7c0.4-0.3,0.8-0.5,1.2-0.7c-0.4-0.2-0.7-0.4-1-0.6
		c-0.4-0.3-0.8-0.6-1.2-1c-0.1-0.1-0.1-0.1-0.2-0.2c-0.3,0.3-0.5,0.6-0.8,0.9c-0.4,0.4-0.8,0.8-1.2,1.2l-1.2,1.2L49.9,70l-0.3,0.3
		c0,0-0.1,0.1-0.1,0.1c0,0.2,0,0.4,0,0.6l0.1,0.8l0.1,1.4l0.9,0.7l1.1,0.9l1,1c0.2,0.2,0.5,0.4,0.7,0.7C53.9,76.3,54.4,76,54.8,75.8
		z"/>
	<path class="st0" d="M29.6,82.4c0.5-0.4,1-0.8,1.5-1.1c-0.2,0-0.4-0.1-0.7-0.1c-0.7-0.1-1.3-0.3-2-0.6c-0.3-0.1-0.7-0.3-1-0.6
		c-0.1-0.1-0.2-0.2-0.3-0.3c-0.1-0.1-0.2-0.2-0.2-0.4c-0.1-0.2-0.1-0.4-0.2-0.6c-0.1-0.7-0.2-1.4-0.1-2.1c0-0.6,0-1.2,0.1-1.8
		c-0.5,0.1-0.9,0.1-1.4,0.2c-0.3,0.5-0.5,1.1-0.7,1.6l-0.7,1.8l-0.7,1.8c-0.2,0.6-0.5,1.2-0.7,1.8l-0.1,0.2l0.4,0.1l1.8,0.5
		c1.2,0.3,2.3,0.6,3.5,1C28.6,83.2,29.1,82.8,29.6,82.4z"/>
	<path class="st0" d="M16.2,109.2C16.2,109.2,16.2,109.2,16.2,109.2c0,0.1,0,0.2,0,0.1C16.2,109.3,16.2,109.2,16.2,109.2z"/>
	<path class="st0" d="M46.8,84.3c0.2,0.1,0.5,0.1,0.7,0.2l0.2,0c0,0,0.1,0,0.2,0l0.4-0.1c0.9-0.2,1.8-0.4,2.8-0.6
		c-0.2,0-0.3,0-0.5-0.1c-0.5-0.1-0.9-0.3-1.2-0.5c-1.4-0.9-2.4-2-3.4-3.1l-0.2-0.2l0.1-0.3c0.1-0.5,0.3-0.7,0.4-1
		c0.2-0.3,0.4-0.5,0.5-0.7c0.4-0.4,0.7-0.8,1.1-1.1c-0.5-0.2-1-0.5-1.6-0.8c-0.4-0.2-0.7-0.4-1.1-0.6c-0.9,0.8-1.8,1.5-2.7,2.3
		c-0.5,0.4-0.9,0.9-1.4,1.3c-0.2,0.2-0.4,0.5-0.6,0.7c-0.1,0.1-0.2,0.2-0.2,0.4c0.7,0.7,1.4,1.3,2.2,1.8c0.9,0.6,1.8,1.2,2.8,1.7
		C45.8,83.9,46.3,84.1,46.8,84.3z"/>
	<path class="st0" d="M98.6,76.4C98.6,76.5,98.6,76.5,98.6,76.4C98.6,76.5,98.6,76.5,98.6,76.4C98.6,76.4,98.6,76.4,98.6,76.4
		C98.6,76.4,98.6,76.4,98.6,76.4z"/>
	<path class="st0" d="M101.7,68.6c-0.1,0-0.2,0.1-0.3,0.1l0,0.2c0.1,0.9,0.1,1.8,0.1,2.7c0,0.9-0.1,1.8-0.2,2.7
		c-0.4-0.8-0.6-1.7-0.8-2.6c-0.2-0.9-0.3-1.8-0.4-2.7l0-0.4l0-0.1c0,0,0,0,0-0.1c0-0.1,0-0.1,0-0.2c0-0.1,0.1-0.2,0.2-0.3
		c0,0,0.1-0.1,0.2-0.1c0.3-0.2,0.6-0.3,0.8-0.3c0.5-0.1,0.9-0.2,1.4-0.2c0,0,0,0,0.1,0c-0.7-0.1-1.4-0.1-2.1-0.1c-1,0-2,0.1-3.1,0.2
		l-0.5,0c0,0,0,0,0,0c-0.1,0.5,0,1-0.1,1.5l0,1.6c0,0.4,0,0.7,0,1.1c0.2,0,0.5,0,0.7,0.1c0.1,0,0.3,0.1,0.4,0.1
		c0.1,0.1,0.2,0.1,0.3,0.2c0.4,0.2,0.7,0.5,1,0.7c0.6,0.5,1.1,1,1.5,1.6c0.6-0.1,1.3-0.2,1.9-0.2c0.8,0,1.6,0,2.5,0.2
		c-0.1-0.2-0.2-0.4-0.4-0.6c-0.5-0.8-0.9-1.6-1.1-2.7c0-0.1,0-0.3,0-0.5c0-0.1,0-0.2,0.1-0.4c0-0.1,0-0.1,0.1-0.2
		c0.1-0.1,0.1-0.2,0.2-0.2c0.1-0.1,0.2-0.1,0.3-0.1l0.1,0c0.1,0,0.2,0,0.2,0c0.1,0,0.3,0,0.4,0c0.5,0,1,0,1.4,0.1
		c0.3,0,0.7,0.1,1,0.2c0,0-0.1-0.1-0.1-0.1l-0.1-0.1c-0.3-0.6-0.7-1.1-1.1-1.6c-0.3-0.3-0.5-0.5-0.8-0.7c-0.9,0.3-1.7,0.6-2.6,0.8
		C102.5,68.4,102,68.5,101.7,68.6z"/>
	<path class="st0" d="M92,83.8c-0.7,0-1.5-0.1-2.2-0.5c-0.3-0.2-0.6-0.4-0.9-0.7c-0.2,0.1-0.4,0.2-0.6,0.2c-0.1,0.5-0.3,1.1-0.3,1.6
		c-0.1,0.6-0.1,1.2,0,1.7c0.1,0.5,0.3,1,0.6,1.4c0.3,0.3,0.6,0.6,1,0.8c1.2-0.4,2.3-0.9,3.1-1.8c0.4-0.5,0.7-1,0.9-1.7
		c0.1-0.4,0.1-0.8,0.1-1.3c0,0,0-0.1-0.1-0.1C93.2,83.6,92.6,83.8,92,83.8z"/>
	<path class="st0" d="M96.3,78.4c1.2,0.1,2.4,0.3,3.5,0.7c-0.7-0.4-1.4-0.9-1.9-1.6c-0.2-0.2-0.4-0.5-0.5-0.9c0-0.1,0-0.1,0-0.2
		c0-0.1,0-0.1,0-0.2c0-0.1,0-0.2,0.1-0.2c0-0.1,0.1-0.1,0.1-0.2c0.1-0.2,0.3-0.3,0.4-0.4c0.5-0.4,1.1-0.6,1.6-0.8
		c0.4-0.1,0.8-0.2,1.1-0.3c-0.6-0.3-1.2-0.6-1.8-0.9c-0.4-0.2-0.7-0.4-1.1-0.5c-0.2-0.1-0.3-0.1-0.4-0.1c-0.1,0-0.3,0-0.4,0
		c-0.6,0.1-1.3,0.3-2,0.7c-0.5,0.3-1,0.6-1.4,1c0.2,0.2,0.3,0.4,0.3,0.6c0.1,0.4,0.2,0.7,0.2,1.1c0,0.6-0.1,1.2-0.2,1.8
		c0.3,0.2,0.6,0.4,0.9,0.7C95.3,78.4,95.8,78.4,96.3,78.4z"/>
	<path class="st0" d="M84.4,92.9c0.5,0.3,1,0.6,1.5,0.8c0.5,0.2,1,0.3,1.5,0.2c0.4-0.1,0.8-0.2,1.2-0.5c0.3-0.9,0.5-1.9,0.4-2.8
		c0-0.5-0.1-1-0.3-1.4c0-0.1-0.1-0.2-0.2-0.3c-0.3-0.2-0.6-0.5-0.8-0.8c0,0,0,0,0,0c-0.4,0.2-0.8,0.4-1.2,0.6
		c-0.5,0.2-1,0.4-1.5,0.5c-0.5,0.1-1.1,0.2-1.6,0.2c-0.4,0-0.8,0-1.2-0.2c0.3,0.9,0.6,1.8,1,2.7C83.6,92.4,84,92.7,84.4,92.9z"/>
	<path class="st0" d="M62.3,68.6c0.5-0.2,1-0.3,1.5-0.4c1.2-0.2,2.3,0,3.4,0.4l0,0c-0.2-0.2-0.5-0.5-0.7-0.7
		c-0.2-0.2-0.5-0.4-0.8-0.6l-1.6-1.3l-0.3-0.3l0.2-0.4c0.2-0.6,0.5-1.1,0.8-1.6c0.3-0.5,0.7-1,1.1-1.4c0.4-0.4,1-0.8,1.6-1
		c0.2-0.1,0.3-0.1,0.5-0.1c0.2,0,0.3,0,0.4,0c0.1,0,0.2,0,0.3,0c-0.4-0.2-0.8-0.5-1.2-0.9c-0.5-0.5-0.9-1.1-1.3-1.7
		c-0.4,0-0.8,0.1-1.1,0.1c-0.4,0.1-0.9,0.1-1.3,0.2c-0.8,0.2-1.6,0.5-2.3,0.9c-0.7,0.4-1.2,1-1.5,1.6c-0.3,0.6-0.5,1.4-0.6,2.1
		c0.2,0.4,0.4,0.8,0.6,1.2l0.8,1.4C61.4,66.9,61.8,67.7,62.3,68.6z"/>
	<path class="st0" d="M83.3,75.5C83.3,75.5,83.3,75.5,83.3,75.5c0.6,0.3,1.2,0.6,1.8,1c0.4-0.1,0.8-0.2,1.1-0.2
		c0.7,0,1.3,0.1,1.9,0.3c0.1,0,0.2,0.1,0.3,0.1c-0.1-0.3-0.2-0.6-0.4-0.9c-0.2-0.4-0.3-0.9-0.5-1.3c-0.2-0.4-0.3-0.9-0.6-1.2
		c-0.2-0.4-0.4-0.8-0.7-1L86.1,72l0.2-0.4c0.5-1,1.2-1.4,2-1.7c0.3-0.1,0.6-0.2,0.9-0.2c-0.6-0.6-1.2-1.1-1.9-1.6
		c-0.4-0.3-0.8-0.5-1.2-0.7c-0.4-0.2-0.9-0.4-1.2-0.4c-0.8-0.1-1.6,0.3-2.4,0.8c-0.7,0.4-1.3,1-1.9,1.5c0.5,1,1.1,2,1.5,3
		C82.5,73.4,82.9,74.4,83.3,75.5z"/>
	<path class="st0" d="M69,69.7c0.3,0.5,0.6,1,0.9,1.4c0.6-0.1,1.1-0.1,1.7-0.1c0.9,0.1,1.7,0.3,2.5,0.6c0.6,0.2,1.1,0.5,1.6,0.8
		c0.3-0.1,0.6-0.2,0.9-0.3c0.9-0.2,1.7-0.2,2.6-0.2c0.6,0,1.2,0.1,1.8,0.3l-0.8-1.2l-1-1.6l-0.2-0.4l0.3-0.3c0.6-0.7,1.3-1.3,2-1.8
		c-0.6-0.6-1.3-1.1-2-1.5c-0.4-0.2-0.9-0.5-1.3-0.6c-0.2-0.1-0.5-0.1-0.7-0.2c-0.2,0-0.4,0-0.6,0c-0.4,0-0.8,0.2-1.2,0.4
		c-0.4,0.2-0.7,0.5-1.1,0.8c-0.6,0.6-1.1,1.3-1.6,2c0,0.1,0.1,0.1,0.1,0.2c0.1,0.2,0.2,0.3,0.3,0.5c0.2,0.3,0.4,0.7,0.6,1
		c0.3,0.7,0.7,1.4,0.9,2.2c-0.5-0.6-1-1.2-1.5-1.8l-0.7-0.9c-0.1-0.1-0.2-0.3-0.4-0.4c-0.1-0.1-0.1-0.1-0.2-0.2c0,0-0.1-0.1-0.1-0.1
		l0,0l0,0l-0.2-0.7c0.4-1,1-1.9,1.8-2.7c0.3-0.3,0.7-0.6,1.1-0.9l-1-1c-0.2-0.2-0.4-0.4-0.6-0.6c-0.1-0.1-0.2-0.2-0.3-0.2
		c0,0-0.2-0.1-0.3-0.1c-1-0.2-2.1-0.2-3.2-0.1c-0.3,0-0.5,0-0.8,0.1c-0.1,0-0.3,0-0.4,0.1c-0.1,0-0.2,0-0.3,0.1
		c-0.4,0.1-0.8,0.4-1.1,0.8c-0.6,0.6-1.1,1.4-1.5,2.1l1.1,1.1c0.2,0.2,0.5,0.5,0.7,0.8c0.2,0.3,0.4,0.6,0.7,0.8
		C68.2,68.6,68.6,69.1,69,69.7z"/>
	<path class="st0" d="M81.1,76c-0.7,0.1-1.3,0.3-1.8,0.6c-0.5,0.3-0.8,0.7-1.1,1.1c0.1,0.2,0.2,0.5,0.2,0.7c0.2,0.3,0.3,0.6,0.5,0.9
		c0.3,0.6,0.8,1,1.4,1.4c0.6,0.4,1.2,0.6,1.9,0.7c0.6,0.1,1.2,0.1,1.8,0.1c-0.2-0.2-0.4-0.5-0.6-0.8c-0.2-0.3-0.4-0.7-0.5-1
		c-0.1-0.3-0.2-0.7-0.4-1l-0.1-0.3l0.2-0.2c0.4-0.5,0.9-1.1,1.5-1.4c0.2-0.1,0.5-0.2,0.7-0.3c-0.6-0.2-1.2-0.4-1.8-0.5
		C82.5,76,81.8,75.9,81.1,76z"/>
	<path class="st0" d="M90.8,62.7c-0.1-0.1-0.2-0.1-0.2-0.2c-0.1,0-0.1-0.1-0.2-0.1c-0.2-0.1-0.3-0.1-0.5-0.2c-0.2,0-0.3-0.1-0.5-0.1
		c-0.2,0-0.4,0-0.6-0.1c-1.3-0.1-2.7,0-4,0.2c0.2,0.6,0.4,1.2,0.5,1.8c0.1,0.4,0.2,0.8,0.3,1.3c0.1,0.3,0.1,0.5,0.2,0.8
		c0.2,0.1,0.5,0.3,0.7,0.4c0.5,0.3,0.9,0.6,1.2,1c0.6,0.6,1.2,1.4,1.6,2.1c0.5-0.1,0.9,0,1.4,0c0.4,0.1,0.8,0.2,1.2,0.3
		c0.1,0,0.2,0.1,0.3,0.1c-0.3-0.4-0.6-0.9-0.9-1.3c-0.2-0.3-0.3-0.5-0.5-0.7c-0.2-0.2-0.4-0.5-0.5-0.6l-0.3-0.2l0.2-0.5
		c0.3-0.6,0.6-1.2,1.1-1.7c0.3-0.3,0.7-0.6,1.2-0.7C92,63.7,91.4,63.2,90.8,62.7z"/>
	<path class="st0" d="M29.4,62.2L29,62.6l-0.1,0.1c0,0.1,0,0.2,0,0.3c0,0.2,0,0.3,0.1,0.5c0.1,0.3,0.1,0.7,0.2,1
		c0,0.2,0.1,0.3,0.1,0.4l0.1,0.1l0.8,0.6c0.6,0.4,1.2,0.8,1.7,1.2c1,0.7,2,1.5,2.9,2.3c0.1-0.2,0.3-0.3,0.4-0.5
		c0.4-0.5,0.8-0.9,1.3-1.4c-0.2-0.2-0.4-0.3-0.6-0.5c-0.3-0.2-0.6-0.4-0.8-0.6l-0.4-0.3c0,0-0.1,0-0.1-0.1c-0.1-0.1-0.1-0.2-0.2-0.2
		l0-0.1c0-0.1-0.1-0.2-0.1-0.3c-0.2-0.7-0.3-1.4-0.2-2.2c0-0.4,0-0.8,0.2-1.2c0.2-0.4,0.4-0.7,0.7-1c0.3-0.4,0.7-0.7,1-1.1
		c-0.9-0.2-1.8-0.4-2.7-0.7c-0.2-0.1-0.5-0.1-0.7-0.2c-0.8,0.9-1.6,1.8-2.5,2.7C29.9,61.7,29.7,62,29.4,62.2z"/>
	<path class="st0" d="M97.1,67.1C97.1,67.1,97.1,67.1,97.1,67.1C97.1,67.1,97.1,67.1,97.1,67.1z"/>
	<path class="st0" d="M56.2,67.9c0.2-0.1,0.4-0.2,0.7-0.3c1.2-0.5,2.5-0.7,3.7-0.7c-0.1-0.1-0.2-0.3-0.3-0.4c-0.3-0.4-0.7-0.9-1-1.3
		c-0.3-0.5-0.6-0.9-0.9-1.4l-0.1-0.1l0-0.2c0-0.5,0.1-0.9,0.2-1.4c0-0.2,0.1-0.5,0.2-0.7c0.1-0.2,0.2-0.5,0.3-0.7
		c0.1-0.2,0.2-0.4,0.4-0.6c0.1-0.2,0.3-0.4,0.5-0.6c0.2-0.2,0.4-0.3,0.6-0.5c0,0,0,0,0,0l-1.6-2.1c-0.9,0.4-1.8,0.8-2.7,1.1
		c-0.9,0.3-1.9,0.7-2.8,1c-0.4,0.8-0.8,1.6-1.1,2.4c-0.1,0.2-0.2,0.4-0.2,0.6c0,0.1,0,0.2,0,0.3c0,0,0,0.1,0,0.1
		c0.1,0.1,0.2,0.3,0.3,0.5l0.4,0.6c0.6,0.8,1.2,1.6,1.8,2.4C55,66.5,55.5,67.3,56.2,67.9z"/>
	<path class="st0" d="M83,59c-0.8,0-1.6,0.1-2.3,0.3c-0.7,0.2-1.3,0.4-1.9,0.7c0,0.3,0.1,0.6,0.1,0.9c0.1,0.4,0.1,0.9,0.2,1.4
		c0.1,0.7,0.2,1.5,0.3,2.3c0.1,0.1,0.3,0.2,0.4,0.3c0.7,0.6,1.2,1.3,1.6,2.1c0.1-0.1,0.2-0.1,0.3-0.2c0.9-0.6,2-1,3.3-0.8
		c0.2,0,0.4,0.1,0.5,0.1c-0.1-0.2-0.2-0.3-0.3-0.5c-0.2-0.4-0.4-0.8-0.6-1.2c-0.4-0.8-0.8-1.6-1.1-2.4l-0.3-0.6l0.7-0.2
		c0.8-0.2,1.7-0.3,2.5-0.3c0.3,0,0.5,0,0.8,0c-0.6-0.5-1.2-1-1.9-1.3C84.6,59.3,83.8,59.1,83,59z"/>
	<path class="st0" d="M46,49c-0.5,0.2-1.1,0.4-1.5,0.7l-0.3,0.8c-0.1,0.3-0.2,0.7-0.3,1c-0.1,0.3-0.2,0.7-0.3,1
		c0,0.2-0.1,0.3-0.1,0.5c0,0,0,0.1,0,0.1c0.8,0.7,1.6,1.3,2.3,2c0.8,0.7,1.6,1.5,2.3,2.2c1.2-0.5,2.4-0.9,3.6-1.3
		c-0.5-0.5-1-0.9-1.5-1.4l-0.5-0.5l-0.2-0.2l-0.1-0.1c-0.1-0.1-0.1-0.1-0.2-0.2c-0.4-0.5-0.5-1-0.6-1.5c-0.1-0.2-0.1-0.5-0.1-0.8
		c0-0.3,0-0.6,0.1-0.9c0.2-0.4,0.3-0.5,0.5-0.7c0.2-0.2,0.3-0.4,0.5-0.6c0.4-0.5,0.9-0.9,1.4-1.2c-1.1,0.1-2.1,0.2-3.1,0.5
		C47.3,48.6,46.6,48.8,46,49z"/>
	<path class="st0" d="M42.9,48.1c-1.1,0.4-2,1-2.9,1.7c-0.5,0.4-0.9,0.8-1.4,1.2c-0.4,0.4-0.8,0.8-1.1,1.1l0.1,1.9l0,0.5l0,0.2
		c0.3,0.2,0.5,0.3,0.8,0.5c1.1,0.8,2.2,1.6,3.3,2.5c0.5-0.2,1-0.4,1.6-0.5c0.9-0.3,1.8-0.6,2.7-0.8c-0.3-0.2-0.5-0.4-0.8-0.6
		c-0.9-0.7-1.8-1.4-2.7-2.1l-0.2-0.2l0-0.2c0-0.3,0-0.5,0-0.7c0-0.2,0.1-0.4,0.1-0.6c0.1-0.4,0.2-0.7,0.3-1.1c0.1-0.3,0.2-0.7,0.4-1
		c0.1-0.4,0.2-0.6,0.4-1l0.1-0.2l0.2-0.1c0.1,0,0.1,0,0.2-0.1c-0.3-0.2-0.5-0.3-0.8-0.5C43.1,48.2,43,48.1,42.9,48.1z"/>
	<path class="st0" d="M54,47.9c-0.2,0-0.3,0-0.5,0.1c-0.4,0.1-0.7,0.3-1.1,0.5c-0.7,0.4-1.4,1-2,1.6c-0.1,0.2-0.3,0.3-0.4,0.5
		c-0.1,0.1-0.3,0.3-0.3,0.4c-0.1,0.2-0.1,0.6,0,1c0.1,0.4,0.2,0.8,0.3,1.1c0,0,0,0,0,0.1l0.1,0.1l0.2,0.3l0.4,0.5c1,1.2,2,2.4,3,3.7
		c0.7-0.1,1.3-0.3,2-0.4c1-0.2,1.9-0.3,2.9-0.5l-0.2-0.3c-0.4-0.5-0.8-1-1.2-1.5c-0.2-0.2-0.4-0.5-0.6-0.7c-0.2-0.2-0.4-0.4-0.6-0.5
		l-0.4-0.2l0.2-0.5c0.6-1.4,1.6-2.4,2.5-3.4c0.2-0.3,0.5-0.5,0.8-0.7c-1.6-0.4-3.1-1-4.6-1.2C54.4,47.9,54.2,47.9,54,47.9z"/>
	<path class="st0" d="M67,49.9c-0.3-0.2-0.6-0.4-0.8-0.4c-0.5-0.2-1.2-0.3-1.8-0.3c-0.6,0-1.3,0-2,0l-1,0.1c-0.1,0-0.3,0-0.4,0
		l-0.1,0.1c-0.5,0.4-1,0.9-1.4,1.3c-0.5,0.5-0.9,0.9-1.3,1.4c-0.3,0.4-0.6,0.8-0.9,1.2c0.1,0.1,0.3,0.3,0.4,0.4
		c0.2,0.3,0.4,0.5,0.6,0.8c0.4,0.5,0.7,1.1,1,1.6c0.5,0.9,1,1.8,1.4,2.8c0.2-0.1,0.3-0.2,0.5-0.3c0.2-0.1,0.4-0.2,0.7-0.3
		c0.2-0.1,0.5-0.2,0.7-0.2c0.2,0,0.5-0.1,0.7-0.1l0.7,0c0.5,0,0.9,0.1,1.4,0.1c0.4,0.1,0.7,0.1,1.1,0.2c-0.4-0.6-0.7-1.2-1-1.7
		c-0.2-0.3-0.3-0.6-0.5-0.8c-0.1-0.1-0.2-0.2-0.3-0.3c-0.1-0.1-0.2-0.2-0.2-0.2l-0.3-0.8c0.4-0.7,0.9-1.1,1.4-1.5
		c0.5-0.4,1.1-0.8,1.7-1c0.6-0.3,1.3-0.5,1.9-0.7c-0.4-0.3-0.7-0.5-1.1-0.8C67.6,50.3,67.3,50.1,67,49.9z"/>
	<path class="st0" d="M5.5,92.8c0-0.3,0.1-0.7,0.2-0.9c0.2-0.4,0.5-0.6,0.8-0.8c0.5-0.3,1-0.6,1.6-0.8c0,0-0.1-0.1-0.1-0.1
		c-0.2-0.3-0.4-0.6-0.6-0.9c-0.6-1.2-0.9-2.4-1.1-3.6c-0.1,0-0.1,0.1-0.2,0.1c-0.7,0.4-1.5,0.8-2.3,1.1c-0.4,0.2-0.8,0.3-1.3,0.4
		c-0.1,0-0.1,0-0.2,0c-0.1,0.4-0.2,0.7-0.4,1.1c-0.2,0.5-0.4,1.1-0.6,1.6c-0.2,0.5-0.5,1-0.7,1.5l-0.3,0.7l0.7,0.1
		c0.5,0,1,0.1,1.5,0.1C3.6,92.5,4.6,92.6,5.5,92.8z"/>
	<path class="st0" d="M12.3,77c0.5,0,1-0.1,1.4-0.1l0.1-0.1c0.6-0.6,1.2-1.1,1.8-1.6c0.6-0.5,1.1-0.9,1.7-1.3c0,0-0.1-0.1-0.1-0.1
		c-0.2-0.3-0.4-0.6-0.6-0.9c-0.1-0.1-0.1-0.2-0.2-0.4c-0.5,0.2-1,0.3-1.5,0.4c-0.7,0.2-1.4,0.3-2,0.4c-0.6,0.1-1.3,0.2-1.9,0.3
		c-0.3,0.4-0.6,0.8-0.9,1.2c-0.4,0.5-0.8,1-1.3,1.4c-0.4,0.5-0.9,0.9-1.3,1.4c0.9-0.1,1.7-0.2,2.6-0.3L12.3,77z"/>
	<path class="st0" d="M3.5,85.8c0.8-0.2,1.5-0.6,2.3-0.9c1.4-0.6,2.8-1.3,4.3-1.9c0-0.2,0.1-0.4,0.1-0.6c0.2-1.5,0.6-2.9,1-4.4
		c-0.3,0.1-0.7,0.2-1,0.2c-1.1,0.2-2.2,0.4-3.4,0.5c-0.3,0.5-0.7,1-1.1,1.5c-0.5,0.7-1,1.4-1.5,2c-0.5,0.7-1,1.4-1.4,2.1
		C2.4,85,2.1,85.6,2,86.1c0.1,0,0.2,0,0.3,0C2.7,86,3.1,85.9,3.5,85.8z"/>
	<path class="st0" d="M51.1,67.6c0.5-0.3,0.9-0.6,1.4-0.9c0.3-0.2,0.7-0.4,1-0.6c-0.6-0.6-1.2-1.2-1.8-1.9c-0.2-0.2-0.3-0.4-0.5-0.6
		c-0.2-0.2-0.3-0.4-0.5-0.7c-0.1-0.3-0.1-0.5-0.1-0.7c0-0.2,0-0.3,0.1-0.5c0.1-0.3,0.1-0.6,0.2-0.8c0.4-1,0.9-1.9,1.4-2.7l0.1-0.2
		l0.2,0c0.3-0.1,0.7-0.2,1-0.2c-0.7-0.6-1.3-1.1-2-1.7c-1.2,0.7-2.3,1.4-3.5,2.1L48,58.2L47.8,58c-0.2-0.1-0.3-0.2-0.5-0.4
		c-0.2,0.4-0.4,0.7-0.7,1.1c-0.2,0.2-0.3,0.5-0.5,0.7c-0.1,0.1-0.1,0.1-0.2,0.2c0,0.1,0,0.2,0,0.3c0,0.5,0,1.1,0,1.6
		c0,0.5,0,0.9,0,1.4c0.9,0.8,1.7,1.7,2.5,2.5c0.7,0.8,1.4,1.6,2.1,2.5C50.8,67.9,51,67.7,51.1,67.6z"/>
	<path class="st0" d="M14.9,72.2l1.6,0c0,0,0-0.1,0-0.1c0-0.1,0-0.2,0.1-0.3c0-0.1,0.1-0.1,0.1-0.2c0,0,0,0,0,0c0,0,0,0,0,0
		c0,0,0,0,0,0c0,0,0,0,0-0.1c0.2-0.5,0.4-1.2,0.6-1.8c0.1-0.3,0.2-0.6,0.3-0.9c0.1-0.2,0.1-0.3,0.2-0.5c-0.3,0.1-0.6,0.1-0.8,0.2
		c-0.8,0.1-1.5,0.3-2.3,0.3c-0.1,0-0.2,0-0.5,0c-0.1,0-0.1,0-0.3-0.1c-0.8,0.7-1.5,1.4-2.2,2.2l-1.2,1.4l-0.2,0.2
		c0.8-0.1,1.7-0.1,2.5-0.1C13.5,72.2,14.2,72.2,14.9,72.2z"/>
	<path class="st0" d="M19,67l2.2-0.3c0.5-0.1,0.9-0.1,1.4-0.2c0-0.1,0-0.2,0-0.3l0-0.4l0.3-0.1c0.2-0.1,0.5-0.2,0.7-0.2
		c-0.4,0-0.9,0-1.3-0.1c-0.3,0-0.7-0.1-1-0.1c-0.3,0-0.7-0.1-1-0.1l-0.3,0l-0.1-0.4c-0.2-0.6-0.3-1.2-0.4-1.7c0-0.2-0.1-0.4-0.1-0.5
		c-0.5,0.4-1,0.7-1.4,1.1c-0.6,0.4-1.2,0.9-1.7,1.4c-0.5,0.5-0.9,1-1.2,1.6c-0.1,0.3-0.2,0.6-0.3,0.9c0,0,0,0.1,0,0.1
		c0.6,0,1.2-0.1,1.9-0.2L19,67z"/>
	<path class="st0" d="M5.9,101l0.7-0.4c0.2-0.1,0.4-0.2,0.5-0.4c0.7-0.6,1.4-1.4,2.1-2.2c0.7-0.7,1.4-1.4,2.1-2.1c0,0,0-0.1,0-0.1
		c0,0-0.1,0-0.1,0c-0.2,0.1-0.4,0.1-0.6,0.1c-0.4,0.1-0.8,0-1.2,0c-0.8-0.2-1.5-0.5-2.1-0.9c-0.3-0.2-0.6-0.4-0.9-0.7
		c-0.1-0.1-0.3-0.2-0.4-0.4l-0.2-0.3c-0.1-0.1-0.1-0.2-0.2-0.3c-0.1-0.1-0.1-0.3-0.1-0.4c-1,0.3-1.9,0.4-2.9,0.5
		c-0.4,0-0.8,0.1-1.1,0.1l-0.9,2c-0.2,0.4-0.3,0.8-0.5,1.2C0.1,96.9,0,97.1,0,97.3c0.5,0.1,1,0.1,1.5,0.1c0.7,0,1.4-0.1,2-0.3
		c0.6-0.2,1.2-0.6,1.9-0.9c0.6-0.4,1.3-0.7,2-1.1c-0.5,0.6-1,1.2-1.5,1.7c-0.3,0.3-0.6,0.5-0.9,0.8c-0.3,0.2-0.6,0.5-1,0.7
		c-0.5,0.2-0.9,0.3-1.4,0.4c0.1,0.7,0.1,1.5,0.2,2.2c0,0.7,0.1,1.3,0.1,2c0.6-0.4,1.2-0.7,1.9-1.1C5,101.5,5.5,101.2,5.9,101z"/>
	<path class="st0" d="M23.5,115.2c0-0.1,0-0.1,0-0.2c0,0,0,0.1,0,0.1C23.5,115.1,23.5,115.2,23.5,115.2
		C23.5,115.2,23.5,115.2,23.5,115.2z"/>
	<path class="st0" d="M17.3,109.4C17.3,109.4,17.3,109.4,17.3,109.4C17.3,109.3,17.3,109.4,17.3,109.4z"/>
	<path class="st0" d="M21.1,64.1c0.2,0.1,0.4,0.1,0.6,0.2c0.3,0.1,0.7,0.2,1,0.3c0.5,0.2,1.1,0.4,1.6,0.7c0.5-0.2,0.9-0.3,1.4-0.4
		c0.8-0.2,1.5-0.4,2.3-0.6c0-0.2-0.1-0.3-0.1-0.5c0-0.2,0-0.4-0.1-0.6c0-0.2,0-0.4,0-0.7c0-0.1,0-0.2,0.1-0.4c0,0,0-0.1,0.1-0.1l0,0
		l0,0l0.1-0.1l0.2-0.2l0.4-0.3c0.1-0.1,0.2-0.2,0.3-0.2c-0.1,0-0.3,0-0.4,0c-0.4,0-0.7-0.1-1-0.2c-0.7-0.1-1.4-0.3-2-0.6
		c-0.7-0.2-1.3-0.5-2-0.8c-0.2-0.1-0.4-0.2-0.5-0.3c-0.1,0.1-0.2,0.2-0.4,0.3c-0.3,0.2-0.5,0.4-0.8,0.7c-0.3,0.2-0.5,0.4-0.8,0.6
		c-0.2,0.1-0.3,0.3-0.5,0.4l0.3,1.4C20.9,63.2,21,63.6,21.1,64.1z"/>
	<path class="st0" d="M17.2,109.7L17.2,109.7c-0.1,0.1-0.1,0.2-0.2,0.2c-0.1,0.1-0.1,0.1-0.1,0.1l-0.3,0.2c-0.2,0.1-0.3,0.2-0.5,0.3
		c-0.7,0.4-1.3,0.8-2.1,1.2c-0.2,0.1-0.4,0.2-0.6,0.2c-0.1,0-0.1,0-0.2,0.1c-0.1,0-0.2,0-0.3,0c-0.1,0-0.1,0-0.2,0
		c0.3,0.4,0.6,0.9,0.8,1.4c0.3,0.7,0.5,1.3,0.6,2.1c0,0.3,0.1,0.5,0.1,0.8c1.3,0.2,2.7,0.5,4,0.7c0.4,0.1,0.7,0.1,1.1,0.2
		c0.2,0,0.4,0.1,0.5,0.1c0.1,0,0.2,0,0.2,0c0,0,0,0,0,0c0.1,0,0.2-0.1,0.4-0.2l0.5-0.3c0.3-0.2,0.6-0.4,0.9-0.7l0.9-0.7l0.4-0.3
		l0.2-0.2l0.1-0.1l0,0c0-0.1,0.1-0.1,0.1-0.2l0.1-0.3c0.1-0.2,0.2-0.3,0.2-0.5c0.1-0.1,0.1-0.3,0.1-0.4c0,0,0,0,0,0l-0.1-0.3
		c-0.5-1.3-1-2.6-1.4-4c-0.2,0-0.4,0-0.6,0.1c-0.2,0-0.3,0.1-0.5,0.1l-0.1,0c-0.1,0-0.1,0.1-0.2,0.1c-0.1,0-0.3,0.1-0.4,0.1
		c-0.5,0-1-0.1-1.4-0.3c-0.6-0.3-1.2-0.6-1.7-1c0,0,0,0.1,0,0.1c-0.1,0.2-0.2,0.4-0.3,0.6l-0.1,0.3c0,0-0.1,0.1-0.1,0.1c0,0,0,0,0,0
		C17.3,109.6,17.3,109.6,17.2,109.7z"/>
	<path class="st0" d="M94.8,64.6c0.2,0.1,0.3,0.2,0.4,0.3c0.5,0.3,0.9,0.8,1.3,1.3c0,0,0.1,0,0.1,0l0,0l0.1,0l0.8-0.1
		c1.1-0.1,2.2-0.1,3.3,0.1c1,0.2,2,0.5,2.9,1.1c0.6,0,1.2,0.1,1.8,0.2c-0.2-0.2-0.5-0.4-0.7-0.5c-0.6-0.4-1.2-0.7-1.7-1.1
		c-0.5-0.4-1.1-0.8-1.6-1.2c-0.4-0.3-0.8-0.6-1.1-0.9c-0.4-0.1-0.7-0.2-1-0.3c-0.7-0.2-1.3-0.5-1.9-0.8c-0.9-0.4-1.7-0.9-2.6-1.4
		c0,0.4,0,0.7,0.1,1.1C94.8,63.1,94.8,63.8,94.8,64.6z"/>
	<path class="st0" d="M11.7,110.7c0.4,0,0.8,0.1,1.1,0.1c0.1,0,0.2,0,0.2,0c0,0,0,0,0,0l0.1,0c0.1,0,0.3-0.1,0.5-0.2
		c0.6-0.3,1.3-0.7,2-1.1l0.5-0.3l0.2-0.1l0,0c0.1-0.1,0.1-0.2,0.1-0.3l0.2-0.2l0.3-0.5c0.2-0.3,0.3-0.6,0.3-0.8c0,0-0.1-0.3-0.1-0.5
		c0-0.2-0.1-0.4-0.1-0.6c0-0.6,0-1.2,0-1.8l-0.1,0c-0.2,0-0.4-0.1-0.5-0.2c-0.3-0.2-0.6-0.4-0.9-0.6c-0.1-0.2-0.2-0.3-0.3-0.5
		c-0.4,1-0.9,1.8-1.5,2.7c-0.2,0.3-0.4,0.5-0.5,0.7c-0.1,0.1-0.2,0.2-0.3,0.4l-0.1,0.1l-0.1,0.1c-0.1,0.1-0.2,0.1-0.3,0.2
		c-0.4,0.2-0.7,0.3-1,0.3c-0.3,0-0.6,0.1-1,0.1c-1.2,0-2.4-0.2-3.6-0.4c-1-0.2-1.9-0.5-2.8-0.9c0.3,1,0.6,2,1,3
		c0.1,0.3,0.2,0.5,0.4,0.8c1.4,0.1,2.8,0.2,4.1,0.4L11.7,110.7z"/>
	<path class="st0" d="M10.3,106.3c0.5,0,1.1-0.1,1.5-0.2c0,0,0.1,0,0.1,0c0,0,0,0,0,0L12,106c0.1-0.1,0.2-0.2,0.3-0.3l0.6-0.6
		c0.7-0.7,1.4-1.5,2.2-2.2c-0.2-0.4-0.3-0.7-0.3-1.1c0-0.5,0-0.9,0-1.4l-1.4,0.3c-0.2,0-0.4,0.1-0.6,0.1c-0.2,0-0.6-0.1-0.8-0.3
		c-0.2-0.2-0.3-0.4-0.4-0.6c-0.1-0.2-0.1-0.3-0.2-0.5c-0.2-0.7-0.2-1.4-0.2-2.1c0-0.4,0.1-0.8,0.1-1.3c-0.4,0.9-0.9,1.7-1.4,2.5
		c-0.6,0.9-1.1,1.7-1.9,2.5c-0.3,0.2-0.5,0.4-0.7,0.5l-0.7,0.4c-0.4,0.3-0.9,0.5-1.4,0.8c-0.6,0.3-1.2,0.7-1.9,1
		c0.1,0.7,0.3,1.5,0.5,2.2l3,0.2C8,106.2,9.2,106.3,10.3,106.3z"/>
	<path class="st0" d="M72.6,48.6c0.4,1.1,0.8,2.2,1.1,3.4c0.3,0.1,0.5,0.2,0.8,0.4c0.9,0.5,1.9,1.1,2.6,1.9c1,0.2,2,0.6,2.9,1.1
		c0,0,0,0,0.1,0c-0.4-1-0.8-2-1.2-3c-0.4-0.9-0.7-1.8-1-2.8c-1.2-0.6-2.4-1.1-3.6-1.7c-0.8-0.4-1.6-0.8-2.4-1.2c0,0,0,0,0,0
		C72.1,47.4,72.4,48,72.6,48.6z"/>
	<path class="st0" d="M80.1,54c0.1,0.5,0.1,1,0.1,1.5c0.9,0.6,1.6,1.4,2.1,2.2c0.3,0,0.6,0,0.9,0.1c0.4,0.1,0.8,0.2,1.2,0.3
		c-0.3-1-0.6-2-0.9-3.1c-0.2-0.6-0.3-1.1-0.5-1.7l-1-0.8c-0.5-0.4-0.9-0.8-1.4-1.2c-0.4-0.3-0.8-0.7-1.3-1c0.2,0.6,0.3,1.1,0.4,1.7
		C79.9,52.8,80,53.4,80.1,54z"/>
	<path class="st0" d="M84.5,56.8c0,0.5,0.1,0.9,0.1,1.4c0.4,0.2,0.8,0.4,1.2,0.7c0.7,0.5,1.2,1.2,1.6,1.9c0.6,0,1.1,0,1.7,0.1
		c0.3,0,0.7,0.1,1,0.2c-0.4-0.7-0.8-1.5-1.3-2.2c-0.6-0.9-1.1-1.8-1.7-2.7c-0.6-0.9-1.2-1.7-2-2.4c-0.3-0.4-0.7-0.7-1.1-1.1
		c0.1,0.7,0.3,1.4,0.3,2.1C84.3,55.6,84.4,56.2,84.5,56.8z"/>
	<path class="st0" d="M66.3,48.6c0.1,0,0.2,0.1,0.3,0.1c0.4,0.2,0.6,0.4,0.9,0.7c0.3,0.2,0.5,0.5,0.7,0.7c0.4,0.4,0.7,0.7,1,1.1
		c0.6-0.1,1.1-0.1,1.7-0.1c0.7,0,1.3,0.2,1.9,0.4c0.3,0.1,0.5,0.2,0.8,0.3c-0.6-1-1.2-1.9-1.7-2.9c-0.3-0.6-0.7-1.1-1-1.6
		c-0.1-0.2-0.3-0.5-0.4-0.7c-1.4-0.3-2.8-0.6-4.1-0.9c-0.8-0.2-1.7-0.4-2.5-0.5c0.3,0.3,0.6,0.7,0.9,1C65.2,47,65.8,47.8,66.3,48.6z
		"/>
	<path class="st0" d="M90.2,61.3C90.2,61.3,90.2,61.3,90.2,61.3c0.3,0.1,0.5,0.2,0.7,0.4c0.1,0.1,0.2,0.2,0.3,0.3
		c0.1,0.1,0.1,0.2,0.2,0.2c0.3,0.3,0.5,0.7,0.7,1.1c0.2,0.3,0.3,0.7,0.4,1.1c0.2-0.1,0.5-0.1,0.8-0.1c0.5,0,1,0.1,1.5,0.4
		c-0.3-0.7-0.5-1.4-0.7-2.1c-0.1-0.4-0.2-0.8-0.3-1.2c-0.5-0.4-1-0.8-1.5-1.2c-0.5-0.5-1.1-1-1.5-1.5c-0.5-0.5-1-1-1.4-1.5
		c-0.2-0.2-0.5-0.5-0.7-0.7c-0.1-0.1-0.3-0.3-0.4-0.4c0.5,0.9,1,1.8,1.3,2.7C89.7,59.6,90,60.4,90.2,61.3z"/>
	<path class="st0" d="M35.6,50.7c0.3,0.2,0.5,0.5,0.8,0.8c0.5-0.5,0.9-0.9,1.5-1.3c0.5-0.4,1.1-0.8,1.6-1.1c0.6-0.3,1.2-0.6,1.8-0.8
		c0.5-0.1,0.9-0.2,1.4-0.3c-0.2-0.2-0.5-0.3-0.7-0.5c-0.5-0.3-1-0.6-1.5-0.8c-0.7,0.1-1.3,0.2-1.9,0.3c-0.8,0.2-1.6,0.4-2.4,0.6
		c-0.8,0.2-1.5,0.5-2.3,0.9c-0.3,0.1-0.6,0.3-1,0.5c0,0,0.1,0,0.1,0c0.5,0.2,1,0.5,1.4,0.8C34.8,50,35.2,50.4,35.6,50.7z"/>
	<path class="st0" d="M24.1,58.4c0.6,0.3,1.2,0.6,1.8,0.9l1.8,0.9l0.9,0.4c0.2,0.1,0.4,0.2,0.5,0.2c0.1-0.1,0.2-0.2,0.3-0.2
		c0.9-0.7,1.9-1.4,2.9-2c-0.2-0.1-0.4-0.1-0.7-0.2c-0.5-0.2-1.1-0.4-1.6-0.6l-0.4-0.1l0-0.4c0-0.4-0.1-0.7-0.1-1.1
		c0-0.2,0-0.4,0-0.6c0-0.1,0-0.2,0-0.4c0,0,0-0.1,0-0.1c-0.3,0-0.5-0.1-0.8-0.1c-0.4-0.1-0.8-0.1-1.2-0.2c-0.4,0.2-0.8,0.4-1.2,0.7
		c-0.5,0.3-0.9,0.6-1.4,0.9c-0.5,0.3-0.9,0.6-1.3,0.9c-0.2,0.2-0.5,0.4-0.7,0.5c0,0,0.1,0.1,0.1,0.1C23.5,58.1,23.8,58.3,24.1,58.4z
		"/>
	<path class="st0" d="M58,45.5c0.8,0.9,1.6,1.9,2.2,2.9c0,0,0.1-0.1,0.1-0.1l0.1-0.1c0.1,0,0.1-0.1,0.2-0.1c0.2-0.1,0.2,0,0.3-0.1
		c0.2,0,0.4,0,0.5,0c0.3,0,0.7,0,1,0c0.7,0,1.4,0,2.1,0.1c0.5,0.1,0.9,0.2,1.4,0.3c-0.2-0.2-0.4-0.3-0.6-0.5
		c-0.4-0.4-0.8-0.7-1.3-1.1l-1.2-1.1c-0.4-0.4-0.8-0.7-1.2-1.1l-0.1-0.1c-1-0.2-2.1-0.4-3.1-0.5c-0.6-0.1-1.2-0.1-1.8-0.1
		c0,0,0,0,0.1,0C57,44.5,57.5,45,58,45.5z"/>
	<path class="st0" d="M29.1,54.6c0.2,0.1,0.5,0.2,0.7,0.4c0,0,0-0.1,0.1-0.1l0,0l0.1-0.1c0.5-0.5,1.1-1,1.7-1.5
		c0.6-0.5,1.2-0.9,1.9-1.3c0.6-0.3,1.2-0.6,1.8-0.7c-0.1,0-0.1-0.1-0.2-0.1c-0.3-0.2-0.6-0.3-1-0.5c-0.7,0.1-1.4,0.2-2.1,0.4
		c-0.8,0.2-1.6,0.5-2.3,0.8c-0.8,0.3-1.5,0.7-2.2,1.1c-0.4,0.2-0.7,0.4-1.1,0.6c0,0-0.1,0-0.1,0.1c0.5,0.2,0.9,0.3,1.4,0.5
		C28.3,54.3,28.7,54.4,29.1,54.6z"/>
	<path class="st0" d="M44.1,48.6c0.5-0.2,1.1-0.4,1.6-0.6c0.7-0.2,1.3-0.3,2-0.4c0.7-0.1,1.4-0.1,2.1-0.1c0.5,0,1,0.1,1.4,0.2
		c0.1-0.1,0.2-0.1,0.3-0.2c-0.8-0.5-1.5-1-2.3-1.4c-0.3-0.2-0.7-0.4-1-0.6c-0.5,0.1-1.1,0.1-1.6,0.2c-0.8,0.1-1.5,0.1-2.2,0.2
		l-2.2,0.2c-0.2,0-0.3,0-0.5,0c0.3,0.2,0.5,0.4,0.8,0.6C43.1,47.4,43.6,48,44.1,48.6z"/>
	<path class="st0" d="M51.6,47.5c0.1,0,0.1-0.1,0.2-0.1c0.4-0.2,0.9-0.4,1.4-0.5c0.3-0.1,0.5-0.1,0.8-0.1c0.3,0,0.5,0.1,0.7,0.1
		c1.7,0.4,3.2,1.2,4.6,2.1c0.2-0.2,0.4-0.4,0.6-0.5c-0.4-0.3-0.8-0.6-1.3-1l-1.5-1.3c-0.5-0.4-1-0.8-1.5-1.2c0,0-0.1-0.1-0.1-0.1
		c-1.4,0-2.7,0-4.1-0.1l-2.2-0.1c-0.1,0-0.2,0-0.3,0c0.3,0.2,0.6,0.5,0.8,0.7C50.4,46.1,51.1,46.8,51.6,47.5z"/>
	<path class="st0" d="M33.4,72.8L33.4,72.8c0.1,0,0.1-0.1,0.1-0.1C33.4,72.7,33.4,72.7,33.4,72.8L33.4,72.8L33.4,72.8z"/>
	<path class="st0" d="M48.9,104.3c0.5-0.1,0.9-0.2,1.2-0.4c0.2-0.2,0.3-0.3,0.3-0.5c-0.4-0.5-0.8-1-1.2-1.5
		c-0.2-0.3-0.4-0.6-0.6-0.9c0,0,0,0,0,0c-0.3-0.1-0.6-0.2-0.9-0.3c-0.4-0.2-0.9-0.3-1.3-0.5c-0.4-0.2-0.7-0.4-1.1-0.7
		c0.1,0.2,0.3,0.4,0.4,0.6c0.3,0.4,0.5,0.9,0.8,1.3c0.5,0.9,0.8,1.9,1.1,2.8l0.1,0.2l-0.1,0.2C48.1,104.4,48.5,104.4,48.9,104.3z"/>
	<path class="st0" d="M52,77.5c0.4-0.3,0.8-0.6,1.3-0.9c-0.3-0.1-0.5-0.2-0.8-0.4c-0.4-0.2-0.8-0.5-1.3-0.7
		c-0.3-0.2-0.6-0.4-0.9-0.6c-0.6,0.8-1.2,1.5-1.7,2.2c-0.3,0.4-0.7,0.9-1,1.3c-0.2,0.2-0.3,0.4-0.4,0.6c-0.1,0.1-0.1,0.2-0.1,0.3
		l1.3,1.3c0.5,0.5,1,1,1.6,1.5c0.3,0.2,0.5,0.4,0.8,0.5c0.3,0.1,0.7,0.2,1,0.3l2.2,0.4c-0.7-0.6-1.3-1.2-1.8-1.9
		c-0.5-0.7-1-1.4-1.4-2.2l-0.1-0.3l0.1-0.2C51.1,78.2,51.6,77.9,52,77.5z"/>
	<path class="st0" d="M51.6,88.9l-1.8,0.6c-0.6,0.2-1.2,0.4-1.8,0.6c0,0.3,0,0.6,0,0.8c0,0.5,0,0.9,0.1,1.3c0.1,0.4,0.3,0.8,0.5,1
		c0.2,0.2,0.4,0.4,0.7,0.5c0.3-0.1,0.6-0.2,0.8-0.3c0.3-0.1,0.7-0.3,0.9-0.5c0.1,0,0.1-0.1,0.2-0.1c-0.1-0.2-0.1-0.4-0.1-0.6
		c-0.1-1,0-2,0.3-2.9C51.4,89.3,51.5,89.1,51.6,88.9z"/>
	<path class="st0" d="M75.7,89.9c0.1,0.1,0.3,0.2,0.4,0.3c0.4,0.2,0.8,0.5,1.2,0.6c0.4,0.1,0.8,0.2,1.1,0.2c0.3,0,0.6-0.2,0.8-0.3
		c0.1-0.3,0.2-0.6,0.2-0.9c0.1-0.4,0.1-0.7,0.1-1.1c0-0.3-0.1-0.7-0.3-0.9c-0.1-0.2-0.4-0.4-0.6-0.5c-1-0.1-2-0.2-3.1-0.2
		c0.1,0.1,0.1,0.2,0.1,0.4c0.1,0.2,0.1,0.5,0.1,0.7c0,0.2,0,0.5,0,0.7C75.9,89.1,75.8,89.5,75.7,89.9z"/>
	<path class="st0" d="M75.5,83.3c-0.2,0.1-0.4,0.2-0.5,0.3c0,0,0,0-0.1,0c0.2,0.2,0.3,0.5,0.5,0.7c0.2,0.3,0.4,0.6,0.5,1
		c0.4,0.1,0.7,0.1,1.1,0.2c0.8,0.2,1.5,0.4,2.3,0.6c0.3,0.1,0.7,0.2,1,0.4c-0.3-0.2-0.5-0.5-0.8-0.8c-0.4-0.5-0.8-1-1.2-1.4
		l-0.2-0.3l0.1-0.3c0.1-0.3,0.3-0.4,0.4-0.5c0.1-0.1,0.2-0.2,0.3-0.2c0.2-0.1,0.4-0.2,0.6-0.3c0.4-0.2,0.8-0.4,1.2-0.5
		c0.2-0.1,0.3-0.1,0.5-0.1c-0.5-0.1-0.9-0.2-1.4-0.4c-0.8-0.4-1.4-0.9-1.9-1.6c-0.3-0.3-0.4-0.7-0.6-1.1c-0.2-0.4-0.3-0.8-0.4-1.2
		l-0.1-0.3l0.2-0.2l0.4-0.5c0.1-0.2,0.2-0.3,0.4-0.5l0.5-0.4c0.2-0.1,0.4-0.2,0.5-0.3c0.7-0.4,1.6-0.6,2.4-0.6
		c0.7,0,1.4,0.2,2.1,0.4c-0.6-0.9-1.3-1.7-1.9-2.6l-0.1-0.2c-0.7,0-1.3,0.1-2,0.2c-0.8,0.1-1.6,0.3-2.3,0.5c-0.7,0.3-1.4,0.6-2,1
		c-0.5,0.4-1,0.9-1.3,1.4l0.1,0.7c0.1,0.3,0.1,0.6,0.3,0.9c0.1,0.3,0.2,0.6,0.4,0.9c0.1,0.3,0.3,0.5,0.5,0.8c0.8,1,2,1.7,3.4,1.9
		c-0.7,0.1-1.4,0.1-2.1-0.2c-0.7-0.2-1.4-0.6-1.9-1.1c-0.2-0.2-0.3-0.3-0.5-0.5c-0.3,0.1-0.6,0.3-0.9,0.4c-0.5,0.2-0.9,0.5-1.4,0.7
		c-0.4,0.3-0.9,0.5-1.2,0.8c-0.3,0.2-0.5,0.5-0.7,0.7c0.1,0.2,0.2,0.4,0.4,0.6c0.2,0.3,0.5,0.6,0.8,1l0.8,1c0.1,0.2,0.3,0.3,0.5,0.5
		c0.2,0,0.4,0,0.5,0c1,0,1.9,0.2,2.8,0.3c-0.1-0.1-0.3-0.2-0.4-0.3c-0.4-0.3-0.8-0.6-1.1-1l-0.2-0.3l0.1-0.3c0-0.1,0.1-0.2,0.2-0.3
		c0.1-0.1,0.1-0.1,0.2-0.2c0.1-0.1,0.2-0.2,0.3-0.3c0.2-0.1,0.4-0.3,0.6-0.4c0.4-0.2,0.8-0.4,1.2-0.6c0.4-0.2,0.8-0.3,1.3-0.4
		c0.4-0.1,0.9-0.2,1.4-0.2c-0.7,0.7-1.4,1.2-2.1,1.7L75.5,83.3z"/>
	<path class="st0" d="M68.8,71.4c0.3-0.1,0.6-0.2,0.9-0.2c-0.4-0.4-0.8-0.8-1.1-1.1l-1.2-1.2c-0.5,0-1.1,0-1.6,0
		c-0.6,0.1-1.2,0.2-1.8,0.3c-0.6,0.2-1.1,0.4-1.7,0.7c-0.4,0.3-0.9,0.6-1.3,0.9c-0.1,0.6-0.1,1.3,0,1.9c0.1,0.7,0.4,1.4,0.7,2
		c0.4,0.6,0.8,1.2,1.3,1.8c0.4,0.5,0.9,1,1.4,1.4c0.1,0,0.2-0.1,0.3-0.1c0.5-0.2,1.1-0.4,1.6-0.5c0.3-0.1,0.6-0.1,1-0.1
		c-0.3-0.5-0.5-1-0.7-1.5c-0.1-0.4-0.2-0.7-0.2-1.1c0-0.4,0-0.7-0.1-1.1l0-0.2l0.2-0.2C67.2,72.3,68,71.7,68.8,71.4z"/>
	<path class="st0" d="M47.5,90.3c-0.7,0.3-1.3,0.5-1.9,0.9c-0.4,1.7-0.7,3.4-0.4,5c0,0.1,0.1,0.3,0.1,0.4c0.1,0.1,0.3,0.2,0.4,0.3
		c0.4,0.2,0.8,0.5,1.2,0.6c0.4,0.1,0.8,0.2,1.1,0.2c0.3,0,0.6-0.2,0.8-0.3c0.1-0.3,0.2-0.6,0.2-0.9c0.1-0.4,0.1-0.7,0.1-1.1
		c0,0,0-0.1,0-0.1L49,95.1c-0.6-0.2-1.1-0.5-1.5-1.1c-0.4-0.5-0.5-1.1-0.5-1.7c0-0.6,0.1-1.1,0.2-1.6C47.3,90.6,47.4,90.5,47.5,90.3
		z"/>
	<path class="st0" d="M39.6,99.3c0.2,0.4,0.4,0.7,0.7,0.9c0.5,0.4,1.3,0.4,2.1,0.3l0.7-0.6c0.3-0.3,0.5-0.5,0.8-0.8
		c0.2-0.2,0.4-0.5,0.6-0.7c-0.4-0.7-0.5-1.4-0.6-2.1c0-0.4,0-0.8,0-1.2c-0.3,0.3-0.5,0.6-0.8,0.8c-0.8,0.6-1.6,1-2.5,1.4l-0.2,0.1
		l-0.2,0c-0.2,0-0.4-0.1-0.6-0.2c0,0.2,0.1,0.3,0.1,0.5c0,0.4-0.1,0.7-0.3,1C39.4,98.8,39.5,99.1,39.6,99.3z"/>
	<path class="st0" d="M46.3,104.2c-0.2-0.9-0.5-1.7-0.7-2.6c-0.1-0.5-0.3-1-0.4-1.4c-0.1-0.4-0.2-0.7-0.3-1.1
		c-0.1,0.2-0.2,0.4-0.3,0.5c-0.4,0.7-0.9,1.4-1.5,1.9l-0.1,0.1l-0.2,0c-0.5,0.1-1,0.1-1.5,0.1c0,0.1,0,0.1,0,0.2
		c0,0.3,0,0.6-0.1,0.9c-0.1,0.4-0.3,0.7-0.4,1.1c0.2,0,0.4,0.1,0.6,0.1c0.3,0.1,0.6,0.3,0.9,0.5c0.3,0.1,0.6,0.2,1,0.3
		c0.5,0.1,0.9,0.2,1.4,0.2c0.4,0,0.8,0,1.1-0.2c0.1,0,0.1-0.1,0.2-0.2c0,0,0,0,0,0l0.1,0C46.1,104.5,46.2,104.4,46.3,104.2z"/>
	<path class="st0" d="M36.5,103c0.3,0.3,0.6,0.6,0.9,0.7c0.6,0.2,1.4,0.1,2.1-0.2l0.8-1c0.1-0.2,0.3-0.4,0.4-0.6c0,0,0-0.1,0.1-0.1
		c-0.4-0.1-0.9-0.3-1.2-0.7c-0.4-0.4-0.6-1-0.7-1.5c0-0.2,0-0.3,0-0.5c-0.1,0.1-0.2,0.2-0.4,0.3c-0.2,0.1-0.4,0.3-0.6,0.4
		c-0.3,0.2-0.7,0.3-1.1,0.5c0,0,0,0,0,0c0,0.3,0,0.6-0.1,0.9c-0.1,0.5-0.4,1-0.6,1.4C36.3,102.6,36.4,102.8,36.5,103z"/>
	<path class="st0" d="M37.3,92.3C37.3,92.3,37.3,92.3,37.3,92.3C37.4,92.3,37.4,92.3,37.3,92.3C37.4,92.3,37.4,92.3,37.3,92.3z"/>
	<path class="st0" d="M36.6,94.2c-0.2,0.2-0.4,0.4-0.7,0.6c-0.2,0.1-0.4,0.3-0.6,0.4c0,0.3,0,0.6,0,0.8c0,0.5,0,0.9,0.1,1.3
		c0.1,0.4,0.3,0.8,0.5,1c0.2,0.2,0.4,0.4,0.7,0.5c0.3-0.1,0.6-0.2,0.8-0.3c0.3-0.1,0.7-0.3,0.9-0.5c0.3-0.2,0.5-0.4,0.7-0.7
		c0.1-0.2,0.1-0.3,0.1-0.5c-0.3-0.1-0.5-0.2-0.8-0.4c-0.6-0.3-1.1-0.9-1.3-1.5c-0.2-0.4-0.2-0.8-0.2-1.2
		C36.8,93.9,36.7,94.1,36.6,94.2z"/>
	<path class="st0" d="M77.6,94.5c0.2,0.1,0.4,0.3,0.6,0.4c0.4,0.3,0.9,0.5,1.3,0.6c0.4,0.2,0.8,0.2,1.2,0.2c0.3,0,0.6-0.2,0.9-0.4
		c0.1-0.3,0.2-0.7,0.3-1c0.1-0.4,0.1-0.8,0.1-1.2c0-0.4-0.1-0.8-0.2-1.2c-0.2-0.4-0.5-0.7-0.9-1c0.3,0,0.5,0.1,0.8,0.2
		c-0.1-0.3-0.1-0.6-0.2-0.9c0-0.5-0.1-0.9-0.1-1.4c-0.3-0.5-0.2-1-0.1-1.4c0,0,0,0,0,0c-0.5,0-1.1-0.1-1.6-0.1c0,0,0,0,0.1,0
		c0.4,0.3,0.7,0.7,0.8,1.2c0.1,0.2,0.1,0.5,0.1,0.7c0,0.2,0,0.5,0,0.7c0,0.5-0.1,0.9-0.2,1.3l0,0.2l-0.2,0.1
		c-0.5,0.4-1.1,0.6-1.7,0.7c-0.4,0-0.7-0.1-1.1-0.2c0,0.1,0.1,0.2,0.1,0.3c0.1,0.3,0.1,0.5,0.1,0.8c0,0.2,0,0.5,0,0.8
		C77.6,94,77.6,94.2,77.6,94.5z"/>
	<path class="st0" d="M112.5,79.9L112.5,79.9C112.5,79.9,112.5,79.9,112.5,79.9L112.5,79.9C112.5,79.8,112.5,79.8,112.5,79.9z"/>
	<path class="st0" d="M113,78.6c0.1-0.1,0.2-0.2,0.3-0.4l-0.9-1.1c-0.5-0.6-1.1-1.2-1.6-1.6c-0.1-0.1-0.3-0.2-0.4-0.3
		c-0.1-0.1-0.3-0.1-0.2-0.1c0,0,0,0,0,0c0,0,0,0,0,0c0,0-0.1,0.1-0.1,0.1c-0.1,0.1-0.2,0.3-0.3,0.4c-0.3,0.5-0.6,1-0.9,1.5
		c0,0,0.1,0,0.1,0.1c0.8,0.4,1.5,1,2.1,1.7c-0.9-0.3-1.7-0.6-2.5-0.8c-0.8-0.2-1.6-0.5-2.4-0.6c-0.4-0.1-0.8-0.1-1,0c0,0,0,0,0,0
		c0,0.1,0,0.3,0,0.5c0,0.7,0.1,1.5,0.1,2.3c0.2,0.3,0.5,0.6,0.6,0.9c0.2-0.1,0.5-0.3,0.7-0.5c0.3-0.2,0.6-0.5,1.1-0.6
		c0.5-0.1,0.9,0,1.3,0c0.4,0.1,0.7,0.2,1.1,0.2c0.2,0,0.3,0,0.4,0c0.1,0,0.1,0,0.2,0l0.2-0.1c0.3-0.1,0.7-0.2,1-0.4
		c0.2-0.1,0.3-0.1,0.4-0.2c0.1,0,0.1-0.1,0.2-0.1c0-0.2,0-0.3,0.1-0.4C112.7,78.9,112.8,78.7,113,78.6z"/>
	<path class="st0" d="M101.2,82.1c-0.1,0.3-0.1,0.7-0.2,1c0.5-0.1,1-0.3,1.4-0.4c0.7-0.2,1.4-0.4,2.1-0.8c0.4-0.2,0.8-0.4,1.2-0.7
		c-0.2-0.1-0.3-0.2-0.5-0.3c-0.2-0.1-0.5-0.3-0.7-0.4c-0.5-0.2-0.9-0.5-1.4-0.7c-0.4-0.2-0.9-0.5-1.3-0.6c-0.2-0.1-0.3-0.1-0.5-0.2
		c0,0.1,0,0.3,0,0.4c0,0.5,0,0.9,0,1.3C101.4,81.2,101.3,81.6,101.2,82.1z"/>
	<path class="st0" d="M42.8,90.4c-0.6,0.3-1.2,0.6-1.9,0.9c-1,0.4-2.1,0.7-3.2,1c-0.1,0.3-0.1,0.6-0.1,0.9c0,0.5,0.1,1,0.4,1.4
		c0.4,0.7,1.3,1.1,2.2,1.4l1.1-0.4c0.4-0.2,0.8-0.3,1.2-0.5c0.4-0.2,0.8-0.4,1.1-0.6c0.1-0.1,0.3-0.2,0.4-0.3
		c0.1-0.2,0.1-0.4,0.2-0.6c0.3-0.9,0.7-1.7,1.1-2.5c0,0,0,0,0.1,0c0.2-0.3,0.4-0.6,0.7-0.8c-0.8,0-1.5-0.2-2.2-0.5
		C43.6,89.9,43.2,90.2,42.8,90.4z"/>
	<path class="st0" d="M105.2,77.4C105.2,77.4,105.2,77.4,105.2,77.4C105.2,77.3,105.2,77.4,105.2,77.4z"/>
	<path class="st0" d="M113.7,77.8c0.1,0,0.1-0.1,0.2-0.1c0.1-0.1,0.2-0.1,0.3-0.2c0.1-0.1,0.2-0.1,0.3-0.1l0.6-0.2
		c0.3-0.1,0.6-0.2,0.9-0.2c-0.2-0.4-0.4-0.7-0.5-1.1c-0.3-0.3-0.5-0.6-0.8-0.9c-0.5-0.5-0.9-1.1-1.4-1.4c-0.1-0.1-0.2-0.1-0.2-0.1
		c-0.1,0.2-0.3,0.4-0.4,0.7c-0.1,0.3-0.3,0.6-0.4,0.9c0.4,0.5,0.7,1,1,1.5C113.4,76.9,113.6,77.4,113.7,77.8z"/>
	<path class="st0" d="M113.1,73.3C113.1,73.3,113.1,73.3,113.1,73.3C113.1,73.3,113.1,73.3,113.1,73.3z"/>
	<path class="st0" d="M92.1,100.9c0.3,0.2,0.7,0.3,1,0.5c0.4,0.2,0.9,0.3,1.3,0.4c0.4,0.1,0.8,0.1,1.1,0c0.3-0.1,0.5-0.2,0.8-0.4
		c0-0.3,0.1-0.6,0.1-0.9c0-0.4,0-0.8,0-1.1c-0.1-0.3-0.1-0.6-0.3-0.9c-0.4-0.1-0.7-0.2-1-0.4c-0.4-0.3-0.7-0.6-0.9-1
		c0-0.1-0.1-0.1-0.1-0.2c0,0,0,0,0,0.1l-0.3,0.7l-0.1,0.2l-0.2,0.1C93,98,92.5,98.2,92,98.2c0,0.1,0.1,0.3,0.1,0.4
		c0.1,0.2,0.1,0.5,0.1,0.7c0,0.2,0,0.5,0,0.7C92.2,100.3,92.2,100.6,92.1,100.9z"/>
	<path class="st0" d="M105.2,70.9l-0.2,0c0,0,0,0,0,0c0.2,0.7,0.5,1.6,0.8,2.5c0.3,0.9,0.6,1.7,0.8,2.7c-0.4-0.4-0.8-0.9-1.1-1.4
		c-0.9,0.2-1.7,0.3-2.5,0.5c-1,0.2-2,0.5-2.9,0.8c-0.5,0.2-0.9,0.3-1.3,0.5c-0.1,0-0.1,0.1-0.1,0.1c0,0.1,0.1,0.3,0.2,0.4
		c0.4,0.6,0.9,1.3,1.4,2c0-0.2-0.1-0.4-0.1-0.6l-0.2-0.8l0.8,0c0.8,0,1.3,0.2,1.8,0.5c0.5,0.3,1,0.6,1.4,0.9
		c0.3,0.2,0.6,0.5,0.8,0.7c-0.3-0.5-0.5-1-0.6-1.5c-0.1-0.2-0.1-0.5-0.1-0.8c0-0.2,0-0.3,0.2-0.6c0.2-0.3,0.4-0.4,0.6-0.4
		c0.7-0.2,1.1-0.1,1.6-0.1c0.8,0.1,1.5,0.4,2.1,0.7c0-0.6,0.1-1.2,0.3-1.8c0.1-0.2,0.2-0.4,0.3-0.7c0.1-0.1,0.2-0.2,0.3-0.4
		c0.1-0.1,0.1-0.1,0.2-0.2c0.1-0.1,0.2-0.1,0.3-0.1c0.5-0.1,0.7,0.1,1,0.2c0.2,0.1,0.4,0.3,0.6,0.4c0,0,0,0,0.1,0.1
		c0-0.2,0-0.5,0.1-0.7c0.1-0.3,0.1-0.6,0.3-1c-0.4-0.1-0.8-0.2-1.2-0.4c-0.4-0.2-0.9-0.4-1.3-0.7c-0.4-0.3-0.8-0.5-1.1-0.8
		c-0.1-0.1-0.2-0.2-0.3-0.3c-0.6,0.1-1.1,0.1-1.6,0.1C106.1,70.8,105.6,70.8,105.2,70.9z"/>
	<path class="st0" d="M93.2,92.3l-0.5,0l-0.3,0l-0.2-0.2c-0.4-0.4-0.8-0.8-1-1.4c-0.1-0.3-0.2-0.6-0.2-0.9c0-0.3,0-0.6,0.1-0.9
		c0,0,0-0.1,0-0.1c-0.5,0.3-1,0.4-1.6,0.6l-0.1,0c0.2,0.3,0.3,0.7,0.4,1c0.1,0.6,0.2,1.2,0.1,1.8c0,0.6-0.2,1.2-0.3,1.7l-0.1,0.2
		l-0.2,0.1c-0.2,0.2-0.5,0.3-0.7,0.5c0.2,0.2,0.3,0.4,0.5,0.5c0.4,0.4,0.7,0.7,1.2,1c0.4,0.3,0.8,0.4,1.2,0.5c0.3,0,0.7,0,1-0.1
		c0.2-0.3,0.4-0.7,0.5-1c0.2-0.4,0.3-0.8,0.4-1.2c0.1-0.4,0.1-0.8,0-1.3C93.6,92.9,93.4,92.6,93.2,92.3z"/>
	<path class="st0" d="M94.3,78.6c0.1,0,0.1,0,0.2,0c-0.4-0.1-0.8-0.3-1.1-0.4c-0.7-0.2-1.3-0.3-2-0.2c-0.6,0-1.2,0.2-1.7,0.5
		c-0.4,0.2-0.8,0.6-1.1,1.1l0.2,0.6c0.1,0.3,0.3,0.6,0.4,0.8c0.3,0.6,0.7,1,1.1,1.4c0.9,0.7,2.1,0.9,3.3,0.8
		c-0.2-0.3-0.3-0.5-0.5-0.8c-0.4-0.6-0.6-1.3-0.9-2l-0.1-0.3l0.2-0.3C92.8,79.1,93.6,78.8,94.3,78.6z"/>
	<path class="st0" d="M92.4,88.2c-0.1,0.3-0.2,0.6-0.2,0.9c0,0.4,0.1,0.8,0.3,1.1c0.1,0.3,0.4,0.5,0.6,0.7c0.2,0,0.4,0,0.6,0
		c0.3,0,0.5-0.1,0.8-0.1c0.3,0,0.5-0.1,0.8-0.1c0.2-0.1,0.5-0.1,0.7-0.3c0.2-0.1,0.3-0.2,0.5-0.3c0-0.1,0-0.3,0-0.4
		c0-0.2,0-0.4,0-0.6c0-0.2,0-0.4,0-0.6c0-0.2,0-0.4,0.1-0.6c0-0.2,0.1-0.4,0.2-0.7c0.1-0.4,0.4-0.6,0.8-0.7c-0.5-0.2-1-0.5-1.4-0.8
		c-0.6-0.4-1.1-0.9-1.6-1.5c-0.1-0.1-0.1-0.2-0.2-0.2c0,0.3,0.1,0.5,0.1,0.8c0,0.8-0.3,1.6-0.7,2.2C93.2,87.5,92.8,87.9,92.4,88.2z"
		/>
	<path class="st0" d="M37.2,60c-0.4,0.5-0.8,1-1.2,1.5c-0.2,0.3-0.4,0.5-0.4,0.7c-0.1,0.2-0.1,0.5-0.1,0.8c0,0.6,0,1.3,0.1,1.9
		l0,0.2l0.4,0.3c0.2,0.2,0.5,0.5,0.7,0.7c0.9,0.9,1.8,1.8,2.7,2.9c0.2-0.3,0.5-0.5,0.8-0.8c0.4-0.4,0.8-0.7,1.3-1
		c0.3-0.2,0.6-0.4,0.9-0.5L41,65.8l-0.7-0.5c-0.1-0.1-0.2-0.2-0.4-0.2L39.7,65l-0.1-0.1l-0.3-0.2l0-0.3c-0.1-1,0-1.9,0.1-2.8
		c0.1-0.9,0.2-1.8,0.3-2.7l0.1-0.4l0.3-0.1c0.5-0.2,1-0.4,1.5-0.6c-0.6-0.2-1.1-0.4-1.7-0.7C38.8,58.1,38,59.1,37.2,60z"/>
	<path class="st0" d="M37.4,54.7L37.4,54.7C37.4,54.7,37.4,54.7,37.4,54.7z"/>
	<path class="st0" d="M89,77.5c0,0,0.1,0,0.1-0.1c-1-0.2-1.9-0.3-2.8-0.1c-0.5,0.1-1,0.3-1.5,0.6c-0.4,0.2-0.6,0.5-0.9,0.9
		c0.1,0.2,0.1,0.4,0.2,0.6c0.1,0.3,0.2,0.6,0.4,0.8c0.3,0.5,0.7,1,1.1,1.4c0.5,0.4,1,0.6,1.7,0.7c0.4,0.1,0.8,0.1,1.3,0.1
		c-0.2-0.2-0.4-0.4-0.5-0.7c-0.2-0.3-0.3-0.7-0.5-1l-0.4-1l-0.1-0.3l0.2-0.2C87.7,78.5,88.2,77.8,89,77.5z"/>
	<path class="st0" d="M41.8,86.9c0,0,0-0.1,0-0.1c-0.1-0.2,0-0.4,0.1-0.6c-0.9,0.1-1.7,0.1-2.6,0c-0.2,0-0.5,0-0.7-0.1
		c-0.6,0.4-1.2,0.7-1.9,1c0,0.4,0.1,0.7,0.2,1.1l0.3,1.2c0.1,0.6,0.2,1.1,0.3,1.7c1.1-0.3,2.2-0.6,3.2-0.8l1.9-0.5
		c0.4-0.1,0.7-0.2,1.1-0.3C42.8,88.9,42.1,88.1,41.8,86.9z"/>
	<path class="st0" d="M28.5,65.9c0,0,0,0-0.1-0.1c-0.1-0.1-0.1-0.1-0.1-0.2c0-0.1-0.1-0.1-0.1-0.2C28,65.1,28,65,27.9,64.8
		c0-0.2-0.1-0.3-0.1-0.5c-0.7,0.4-1.4,0.8-2,1.2c-0.7,0.4-1.4,0.7-2.1,1c0,0.4,0,0.9,0.1,1.3c0,0.5,0.1,1.1,0.2,1.5l0.2,0.1
		c0.2,0.1,0.5,0.2,0.8,0.2l1.6,0.4c2,0.6,4,1.2,6,2c0,0,0.1-0.1,0.1-0.1l0,0l0,0l0,0c0,0,0,0,0,0l0.2-0.2l0.8-1
		c0.4-0.4,0.8-0.9,1.1-1.3c-1.2-0.5-2.3-1-3.4-1.6c-0.6-0.3-1.2-0.7-1.9-1.1c-0.3-0.2-0.6-0.4-0.9-0.6C28.6,66,28.6,65.9,28.5,65.9z
		"/>
	<path class="st0" d="M36.3,51.6c-0.2-0.1-0.4-0.2-0.7-0.4c-0.6,0.4-1,0.8-1.5,1.2c-0.5,0.5-1,1-1.6,1.5c-0.5,0.5-1,1-1.5,1.5
		c0,0,0,0.1,0,0.1l0,0.5l0,0.7c0.4,0.2,0.8,0.3,1.1,0.5c0.5,0.2,1,0.5,1.5,0.7c0.8,0.4,1.7,0.9,2.5,1.4c0.1-0.1,0.2-0.2,0.3-0.3
		c0.5-0.5,1.1-0.9,1.6-1.3c0.5-0.3,1-0.7,1.6-0.9c-0.7-0.3-1.3-0.6-1.9-0.9c-0.3-0.2-0.7-0.3-1-0.5l0,0l0,0c0,0,0,0-0.1,0
		c-0.1,0-0.1-0.1-0.1-0.2c0,0,0,0,0-0.1c0,0,0-0.1,0-0.1c0-0.1,0-0.2-0.1-0.2c0-0.1,0-0.2-0.1-0.3c0-0.2,0-0.4-0.1-0.6
		c-0.1-0.8-0.1-1.5-0.1-2.2L36.3,51.6L36.3,51.6z"/>
	<path class="st0" d="M28.8,62.8C28.8,62.8,28.8,62.8,28.8,62.8C28.8,62.8,28.8,62.8,28.8,62.8L28.8,62.8z"/>
	<path class="st0" d="M71.4,56c0.3-0.5,0.7-1.1,1.3-1.5c0.6-0.4,1.4-0.5,2-0.5c0.6,0,1.2,0.1,1.8,0.2c0.1,0,0.1,0,0.2,0
		c-0.8-0.5-1.7-0.8-2.5-1.2c-0.6-0.2-1.1-0.4-1.7-0.6c-0.6-0.1-1.1-0.2-1.6-0.2c-0.6,0-1.1,0.1-1.7,0.2c-0.5,0.1-1.1,0.3-1.6,0.6
		c-0.5,0.2-1,0.5-1.5,0.9c-0.3,0.2-0.6,0.5-0.8,0.7c0,0,0,0,0,0c0.1,0.2,0.2,0.3,0.3,0.5c0.2,0.3,0.4,0.6,0.5,1
		c0.3,0.6,0.6,1.3,0.8,1.9c0.3,0.6,0.5,1.2,0.9,1.8c0.3,0.4,0.7,0.8,1.1,1.2c0.1,0,0.2,0,0.3,0c0.6,0,1.1,0,1.7,0.1
		c0.6,0.1,1.1,0.2,1.7,0.4c0.2,0.1,0.3,0.1,0.5,0.3c0.1,0.1,0.2,0.2,0.3,0.4c0.2,0.2,0.3,0.5,0.5,0.7c0.3,0.4,0.5,0.8,0.7,1.3
		c0.1,0,0.1-0.1,0.2-0.1c0.5-0.3,1.1-0.5,1.8-0.5c0.3,0,0.6,0,0.9,0.1c0.3,0.1,0.5,0.2,0.8,0.3c0.3,0.1,0.5,0.3,0.8,0.4
		c-0.3-0.6-0.5-1.3-0.7-1.9c-0.2-0.4-0.3-0.9-0.4-1.3c-0.1-0.4-0.3-0.9-0.3-1.4l-0.1-0.3l0.3-0.2c0.8-0.5,1.6-0.9,2.5-1.2
		c0.6-0.2,1.2-0.2,1.8-0.3c-0.8-0.7-1.7-1.3-2.7-1.6c-0.5-0.2-1-0.4-1.6-0.5c-0.5-0.1-1.1-0.2-1.6-0.3c-0.5-0.1-1.1-0.1-1.7-0.1
		c-0.5,0-0.9,0-1.3,0.2c-0.4,0.2-0.7,0.6-1,1c-0.3,0.4-0.5,0.8-0.8,1.2c0.1,0.2,0.2,0.4,0.2,0.7c0.1,0.3,0.2,0.6,0.3,1
		c0.2,0.6,0.3,1.3,0.4,1.9c-0.3-0.6-0.6-1.2-0.9-1.7l-0.5-0.9c-0.1-0.3-0.3-0.6-0.4-0.7l-0.2-0.2l0.2-0.3
		C70.9,57.1,71.1,56.5,71.4,56z"/>
	<path class="st0" d="M88.1,82.8c-0.3,0.1-0.5,0.1-0.8,0.1c-0.7,0-1.3-0.1-2-0.4c-0.2,0.4-0.5,0.8-0.7,1.2c-0.3,0.5-0.7,1.1-1,1.6
		c-0.3,0.5-0.6,1.1-0.9,1.6c-0.1,0.3-0.2,0.5-0.3,0.8c0,0.1,0,0.3,0,0.3c0.3,0.1,0.6,0.2,1,0.2c0.5,0,0.9,0,1.4,0
		c0.9,0,1.8-0.1,2.8-0.2c-0.4-0.6-0.6-1.3-0.6-2c0-0.7,0.1-1.3,0.4-1.9C87.5,83.7,87.8,83.3,88.1,82.8z"/>
	<path class="st0" d="M34.5,71.2c-0.2,0.4-0.5,0.7-0.8,1.1l-0.2,0.3c0,0,0,0-0.1,0.1c0,0,0,0.1,0,0.1c0,0.1,0,0.2,0,0.3
		c0.1,0.7,0.2,1.5,0.3,2.2c1,0.7,1.9,1.3,2.9,2c0.5,0.3,1.1,0.7,1.6,1c0.5,0.3,0.9,0.5,1.4,0.7c0.2-0.2,0.4-0.4,0.6-0.6
		c0.5-0.5,1-0.9,1.6-1.2c0.3-0.2,0.6-0.4,0.9-0.6c-0.6-0.1-1.2-0.2-1.7-0.4c-0.7-0.2-1.4-0.6-2-1c-0.6-0.5-1.3-1-1.5-1.9
		c0-0.1-0.1-0.2-0.1-0.3l0-0.3c0-0.2,0-0.4,0-0.6c0-0.2,0-0.4,0.1-0.7c0-0.1,0.1-0.2,0.1-0.3c0-0.1,0.1-0.1,0.1-0.2
		c0-0.1,0.1-0.1,0.1-0.2c0,0,0,0,0,0l0,0c0,0,0,0,0,0c0.4-0.5,0.9-1.1,1.4-1.6c-0.9-0.5-1.7-1-2.5-1.6c-0.3,0.6-0.6,1.1-0.9,1.6
		C35.5,69.8,35,70.5,34.5,71.2z"/>
	<path class="st0" d="M45.1,75.4c-0.3-0.2-0.6-0.3-0.9-0.4l-0.1,0c0,0,0,0,0,0c-0.3-0.1-0.4-0.2-0.5-0.3c-0.1-0.1-0.1-0.2-0.1-0.3
		c-0.1-0.3-0.1-0.5-0.2-0.7c0-0.4-0.1-0.8,0-1.3c0-0.8,0.1-1.6,0.2-2.4l0-0.3l0.2-0.1c0.4-0.3,0.8-0.7,1.2-1c0,0,0.1-0.1,0.1-0.1
		c-0.8-0.5-1.7-1.1-2.5-1.6l0,0c-0.2,0.2-0.5,0.5-0.7,0.8c-0.3,0.4-0.7,0.8-1,1.2l-0.9,1.3l-0.9,1.3l0,0c0.1-0.1,0,0,0,0l0,0.1
		c0,0,0,0.1,0,0.2c0,0.1,0,0.3,0,0.4c0,0.1,0,0.3,0,0.4l0,0.2c0,0.1,0,0.1,0,0.2c0.1,0.5,0.5,1,1,1.4c0.5,0.4,1,0.8,1.6,1.2
		c0.5,0.3,1,0.7,1.6,1C43.7,76.1,44.4,75.7,45.1,75.4z"/>
	<path class="st0" d="M46.3,58.4l0.9-0.8c-0.4-0.3-0.8-0.6-1.2-0.9c-0.8,0.5-1.7,1-2.5,1.4c-0.5,0.3-1,0.5-1.5,0.8
		c-0.4,0.2-0.8,0.4-1.2,0.6l-0.2,2.3c0,0.4-0.1,0.9-0.1,1.3c0,0.3,0,0.7-0.1,1l0.1,0.1c0.1,0.1,0.2,0.2,0.4,0.3
		c0.2,0.2,0.5,0.4,0.7,0.6c0.5,0.4,0.9,0.8,1.3,1.2c0.7,0.7,1.4,1.4,2.1,2.1c0.3-0.2,0.6-0.5,1-0.7c0.6-0.5,1.3-0.9,1.9-1.3
		c0,0,0,0-0.1-0.1c-1-0.8-2-1.7-2.9-2.6l-0.2-0.2l0-0.3c0-1.1,0.1-2.2,0.3-3.4c0-0.2,0.1-0.3,0.2-0.5l0-0.1c0,0,0.1-0.1,0.1-0.2
		c0.1,0,0.1-0.1,0.2-0.1c0,0,0,0,0,0c0,0,0,0,0,0c0,0,0,0,0,0c0,0,0,0,0,0c0,0,0.1,0,0.1-0.1C45.9,58.8,46.1,58.6,46.3,58.4z"/>
	<path class="st0" d="M48.3,70l0.1-0.1c0.2-0.2,0.3-0.3,0.4-0.4l0.3-0.3l0.6-0.5c0.2-0.2,0.4-0.3,0.7-0.5c-0.8-0.5-1.6-1.1-2.3-1.7
		c-0.5,0.6-1,1.2-1.6,1.8c-0.4,0.4-0.7,0.7-1.1,1.1c-0.3,0.3-0.6,0.6-0.9,0.9c0,0.7-0.1,1.4-0.1,2.1c0,0.4,0,0.8,0,1.1
		c0,0.1,0,0.3,0,0.4c0,0,0,0,0,0l0.2,0.1c0.7,0.5,1.3,0.9,2,1.5c0.5,0.4,0.9,0.8,1.3,1.2c0.7-0.6,1.4-1.2,2.2-1.7
		c-0.4-0.3-0.9-0.6-1.3-0.9l-0.2-0.1l0-0.3c-0.1-0.6-0.2-1.1-0.2-1.7l-0.1-0.9c0-0.3,0-0.6,0-0.9L48.3,70z"/>
	<path class="st0" d="M96,66.4C96.1,66.4,96.1,66.3,96,66.4c0.1-0.1,0.2-0.2,0.3-0.2c0,0,0,0,0,0c-0.5-0.2-1-0.4-1.5-0.6
		c-0.6-0.2-1.1-0.3-1.5-0.2c-0.5,0.1-0.8,0.3-1.2,0.7c-0.3,0.3-0.5,0.6-0.8,1c0.1,0.2,0.2,0.3,0.3,0.5c0.1,0.3,0.3,0.6,0.4,0.9
		c0.2,0.6,0.3,1.1,0.3,1.7c0.2,0.1,0.4,0.2,0.6,0.4c0.7,0.4,1.2,1,1.6,1.6c-0.7-0.3-1.3-0.7-2-0.9c-0.7-0.2-1.3-0.4-2-0.4
		c-0.7,0-1.3,0.1-1.9,0.3c-0.4,0.2-0.9,0.4-1.2,0.7c0.2,0.3,0.4,0.7,0.5,1c0.2,0.5,0.3,1,0.4,1.4c0.1,0.5,0.2,1,0.2,1.4
		c0,0.4,0,0.7,0.1,1.1c0.3,0.1,0.6,0.3,0.8,0.4c0.6-0.2,1.3-0.3,1.9-0.3c0.8,0.1,1.5,0.3,2.2,0.7c0.1,0.1,0.2,0.1,0.3,0.2
		c-0.1-0.6-0.1-1.1-0.3-1.6C93.3,75.6,93,75,92.6,75l-0.5-0.1l0.3-0.6c0.2-0.4,0.5-0.8,0.9-1.1c0.3-0.3,0.7-0.6,1.1-0.8
		c0.7-0.4,1.5-0.7,2.3-0.8c-0.1-0.3-0.2-0.7-0.3-1c-0.1-0.5-0.3-1-0.3-1.6c-0.1-0.5-0.1-1.1-0.2-1.7c0-0.2,0-0.3,0-0.5
		C95.9,66.7,95.8,66.7,96,66.4z"/>
	<path class="st0" d="M10,83.7c0-0.2,0-0.3,0.1-0.5C9.5,83.6,9,84,8.4,84.4c-0.6,0.4-1.2,0.8-1.9,1.2c0.6,1.1,1.2,2.2,1.9,3.1
		c0.4,0.5,0.8,1.1,1.2,1.3c0.1,0.1,0.1,0.1,0.3,0.1l0.5,0.1c0.3,0,0.7,0.1,1,0.2c0.7,0.1,1.3,0.2,1.9,0.3c0.1,0,0.3,0,0.4,0
		c0,0,0,0,0,0c0,0,0,0,0.1-0.1c0.2-0.2,0.4-0.5,0.5-0.8c0.6-0.9,1.2-1.9,1.9-2.9c-0.3,0.2-0.5,0.3-0.8,0.4l0,0
		c-0.1,0.1-0.2,0.1-0.3,0.1c-0.1,0-0.2,0-0.3,0c-0.2,0-0.3,0-0.4,0c-0.2,0-0.5-0.1-0.7-0.1c-0.4-0.1-0.8-0.3-1.3-0.4
		c-0.4-0.2-0.8-0.4-1.2-0.6c-0.2-0.1-0.4-0.2-0.6-0.4c-0.2-0.2-0.4-0.3-0.6-0.7c-0.1-0.2-0.1-0.3-0.1-0.5c0-0.1,0-0.2,0-0.4
		C9.9,84.1,10,83.9,10,83.7z"/>
	<path class="st0" d="M19.1,99.9c-1.3,0-2.5,0.1-3.7,0.4l-0.3,0.1c0.1,0.4,0.2,0.9,0.4,1.3c0.2,0.5,0.5,0.9,0.8,1.2
		c0.2,0.1,0.4,0.2,0.5,0.3l0.3,0.1l0.4,0l1.7,0.2c0.5,0.1,1.1,0.1,1.6,0.1c0.3,0,0.6,0,0.8,0c0.2,0,0.4-0.1,0.6-0.1
		c0.8-0.4,1.5-1.1,2.3-1.8c0-0.7,0.2-1.4,0.3-2.1c-0.4,0.1-0.8,0-1.2-0.1c-0.6-0.2-1.1-0.5-1.5-0.9c-0.1-0.1-0.2-0.2-0.2-0.3
		c-0.2,0.4-0.4,0.7-0.7,1.1c-0.3,0.2-0.6,0.5-1,0.6C19.7,99.9,19.4,99.9,19.1,99.9z"/>
	<path class="st0" d="M44.9,84.7c-1.1-0.5-2.1-1.1-3-1.7c-0.9-0.7-1.8-1.4-2.6-2.4L39,80.4l0.1-0.2c0.1-0.5,0.4-0.8,0.6-1.1
		c0,0,0,0,0.1-0.1c-0.5,0-1.1-0.2-1.6-0.3c-0.6-0.2-1.2-0.4-1.8-0.7c-0.6-0.3-1.2-0.6-1.7-0.9c-0.6-0.3-1.1-0.7-1.7-1L32.7,76
		l-0.1-0.3c-0.2-0.9-0.3-1.7-0.4-2.6c0-0.3,0-0.4,0.1-0.9c0,0,0-0.1,0.1-0.2c-1-0.1-2-0.2-2.9-0.3c-0.6-0.1-1.3-0.2-1.9-0.3
		c0.1,1.1,0.2,2.2,0.2,3.2c0.1,1.3,0.1,2.7,0.3,3.8c0,0.1,0.1,0.3,0.1,0.3c0,0.1,0,0.1,0.1,0.2c0.2,0.1,0.4,0.3,0.7,0.4
		c0.5,0.3,1.2,0.5,1.8,0.7c1.2,0.4,2.4,0.8,3.6,1.3c0.1-0.1,0.2-0.2,0.2-0.3c0.7-0.8,1.4-1.7,2.2-2.4c-0.5,1-1,1.9-1.6,2.9
		c-0.4,0.7-0.9,1.4-1.3,2.1c0.8,0.3,1.6,0.5,2.4,0.7c1,0.3,2.1,0.5,3.1,0.7c1,0.2,2.1,0.3,3.2,0.2c0.9,0,1.7-0.2,2.6-0.5
		C45,84.8,44.9,84.8,44.9,84.7z"/>
	<path class="st0" d="M7,91.6c-0.2,0.2-0.4,0.5-0.5,0.8c-0.1,0.3-0.1,0.4,0,0.6c0,0,0.1,0.1,0.1,0.1l0.1,0.1
		c0.1,0.1,0.2,0.2,0.4,0.3c0.3,0.2,0.5,0.4,0.8,0.5c0.5,0.3,1.1,0.6,1.7,0.7c0.3,0.1,0.6,0.1,0.8,0.1c0.1,0,0.3,0,0.4-0.1
		c0.1,0,0.2-0.1,0.5-0.2c0.5-0.1,0.9-0.1,1.2-0.1c0.4,0,0.7,0.1,1.1,0.1c0.7,0.1,1.4,0.2,2,0.3c0.5,0,1.1,0,1.5-0.4
		c-0.2-0.3-0.4-0.6-0.6-0.9c-0.6-0.9-1.1-1.8-1.6-2.8c-0.1,0.1-0.1,0.2-0.2,0.3c0,0.1-0.1,0.2-0.2,0.3c-0.2,0.2-0.3,0.2-0.5,0.3
		c-0.3,0.1-0.5,0.1-0.7,0.1c-0.8,0-1.5-0.1-2.1-0.2c-0.3,0-0.7-0.1-1-0.2l-0.5-0.1c-0.2,0-0.5-0.1-0.7-0.3c-0.3-0.2-0.5-0.4-0.7-0.7
		C7.8,90.8,7.4,91.2,7,91.6z"/>
	<path class="st0" d="M20.9,96l-0.6,0.7c0,0-0.1,0.1-0.1,0.1c-0.1,0-0.1,0.1-0.2,0.1c-0.1,0-0.1,0-0.2,0c0,0-0.1,0-0.1,0
		c-0.2,0-0.2-0.1-0.3-0.1c-0.1-0.1-0.2-0.1-0.3-0.2c-0.2-0.1-0.3-0.2-0.4-0.3c-0.6-0.6-1-1.1-1.5-1.7c-0.1,0.2-0.3,0.4-0.5,0.5
		c-0.3,0.2-0.7,0.3-1.1,0.4c-0.7,0.1-1.5,0.1-2.2,0.1c-0.3,0-0.7,0-1,0c-0.3,0-0.6,0-0.8,0.1c0,0-0.1,0.1-0.3,0.1
		c0.1,0.5,0.2,1,0.3,1.5c0.1,0.6,0.3,1.2,0.5,1.7c0.1,0.2,0.3,0.6,0.4,0.6c0,0,0,0,0.1,0c0.1,0,0.2,0,0.4-0.1
		c0.6-0.2,1.3-0.3,1.9-0.5c0.7-0.1,1.3-0.2,2-0.2c0.7,0,1.4,0,2,0.1c0.3,0,0.7,0.1,0.9,0.1c0.2,0,0.5-0.1,0.8-0.2
		c0.4-0.2,0.7-0.5,1-0.8c-0.4-0.7-0.6-1.6-0.4-2.4C21.1,95.7,21,95.8,20.9,96z"/>
	<path class="st0" d="M14.3,78C14.3,78,14.3,78,14.3,78L14.3,78L14.3,78z"/>
	<path class="st0" d="M16.1,75.7c-0.5,0.6-1,1.3-1.5,1.9l-0.1,0.1c0.3,0.2,0.6,0.5,0.9,0.7l1.7,1.3c0.9,0,1.8,0,2.6,0
		c0.8,0,1.5,0.1,2.3,0.2c0.3-0.6,0.7-1.3,1-1.9c0.3-0.6,0.7-1.1,1-1.6c0.3-0.5,0.7-1,1.1-1.3c-0.7,0.1-1.5,0.1-2.2,0.2
		c-1.3,0-2.6,0.1-3.9,0l-0.3,0c0,0-0.1,0-0.2,0l-0.1,0c-0.1,0-0.1-0.1-0.2-0.1c-0.2-0.1-0.2-0.2-0.3-0.2c-0.1-0.1-0.1-0.1-0.2-0.2
		c-0.2-0.2-0.4-0.4-0.5-0.6C16.9,74.6,16.5,75.2,16.1,75.7z"/>
	<path class="st0" d="M17.5,72.2C17.4,72.3,17.4,72.3,17.5,72.2C17.4,72.3,17.5,72.3,17.5,72.2C17.5,72.2,17.5,72.2,17.5,72.2
		C17.5,72.2,17.5,72.2,17.5,72.2z"/>
	<path class="st0" d="M21.7,92.3c-0.1,0-0.2,0-0.4-0.1c-0.1,0-0.1,0-0.3-0.1c0,0-0.1,0-0.1-0.1c0,0,0,0-0.1,0c0,0-0.1-0.1-0.1-0.1
		c-0.1-0.1-0.1-0.2-0.1-0.2l0-0.1c0-0.1,0-0.1,0-0.1l0-0.1c0-0.2,0-0.4,0-0.7c0-0.9,0-1.7,0.1-2.6c0.1-0.9,0.1-1.7,0.3-2.6
		c0.1-0.4,0.2-0.8,0.3-1.3c0.1-0.3,0.2-0.6,0.3-0.8c-1.3,0.9-2.6,1.7-4,2.4c-0.4,0.2-0.7,0.4-1.1,0.6c-0.4,1.2-0.8,2.3-1.3,3.4
		c-0.1,0.2-0.2,0.4-0.3,0.5c0.9,0.7,1.6,1.5,2.4,2.2c0.8,0.8,1.6,1.7,2.3,2.5c0,0,0.1,0.1,0.1,0.1l0.3-0.3c0.4-0.4,0.8-0.8,1.2-1.2
		c0.6-0.6,1.2-1.1,1.8-1.6C22.6,92.3,22.2,92.3,21.7,92.3z"/>
	<path class="st0" d="M24.5,90.6C24.5,90.6,24.5,90.6,24.5,90.6c0.1-0.2,0.2-0.2,0.2-0.3l1.3-2.2c0.7-1.2,1.4-2.3,2.1-3.5
		c-1.3-0.2-2.5-0.4-3.8-0.7c-0.6-0.2-1.3-0.3-1.9-0.5L22,83.3l-0.2-0.1c-0.1,0-0.2,0-0.3-0.1l-0.1,0c0,0-0.2-0.1-0.2-0.3
		c-0.1-0.1,0-0.1-0.1-0.2c0,0,0-0.1,0-0.1c0-0.1,0-0.2,0-0.3c0-0.1,0-0.1,0-0.1l0.1-0.3c0.1-0.2,0.1-0.3,0.2-0.5
		c0.2-0.4,0.4-0.9,0.6-1.3c-0.7,0.2-1.4,0.3-2.1,0.4c-1,0.2-1.9,0.3-2.9,0.4l-0.2,0l-0.2-0.1c-0.7-0.5-1.3-0.9-1.9-1.4
		c-0.3-0.3-0.6-0.5-0.9-0.8c-0.1-0.1-0.2-0.2-0.2-0.3l-0.1-0.1l0,0l0,0c0,0,0-0.1,0-0.1c-0.1-0.1-0.1-0.3-0.1-0.4
		c0-0.1,0.1-0.2,0.1-0.3c0,0,0,0,0,0c-0.3,0.1-0.6,0.2-0.9,0.3c-0.3,0.1-0.7,0.2-1,0.3c0,1.5-0.1,3-0.2,4.5l0,1.2c0,0.2,0,0.4,0,0.6
		c0,0.1,0,0.2,0,0.3c0,0.1,0,0.2,0,0.1c0-0.1,0.1,0.1,0.2,0.2c0.1,0.1,0.3,0.2,0.5,0.3c0.3,0.2,0.7,0.3,1.1,0.5
		c0.4,0.1,0.7,0.3,1.1,0.4c0.2,0.1,0.4,0.1,0.5,0.1c0.1,0,0.2,0,0.2,0c0,0,0,0,0,0c0.4-0.2,0.8-0.4,1.2-0.5c0.4-0.2,0.8-0.3,1.2-0.5
		c1.5-0.6,3-1.2,4.5-1.7c0-0.1,0.1-0.1,0.2-0.2c0,0.1-0.1,0.1-0.1,0.2c0.1,0,0.1,0,0.2,0c-0.1,0-0.1,0.1-0.2,0.1
		c0,0.1,0,0.2-0.1,0.4c0,0.2,0,0.4,0,0.6c0,0.4,0,0.8,0,1.3c0,0.8,0.1,1.7,0.1,2.5l0.1,2.5c0,0.1,0,0.2,0,0.2c0.4,0,0.7,0,1.1,0
		c0.4,0,0.8-0.1,1.1-0.2C24.2,90.7,24.4,90.7,24.5,90.6z"/>
	<path class="st0" d="M21.4,67.3c-0.7,0.3-1.4,0.5-2.2,0.7c-0.4,0.1-0.8,0.2-1.2,0.3c0,0.2,0,0.4-0.1,0.6l-0.1,1
		c-0.1,0.7,0,1.3-0.2,2c0,0.1,0,0.2-0.1,0.3c0,0,0,0.1,0.1,0.2c0.1,0.2,0.3,0.5,0.5,0.7c0.2,0.2,0.4,0.5,0.6,0.7
		c0.1,0,0.1,0.1,0.2,0.1c0,0,0,0,0,0c0,0,0,0,0,0l0.2,0c1.3,0.1,2.6,0.2,3.9,0.3c1.2,0.1,2.5,0.3,3.7,0.6c0,0,0-0.1,0-0.1
		c0.1-1.1,0.3-2.2,0.5-3.2c-0.4-0.1-0.7-0.1-1.1-0.2c-0.5-0.1-1.1-0.2-1.6-0.4c-0.3-0.1-0.5-0.1-0.8-0.2l-0.2-0.1
		c-0.1,0-0.2-0.1-0.3-0.1c-0.1-0.1-0.4-0.4-0.4-0.4l-0.1-0.2l0-0.1c-0.2-0.7-0.2-1.2-0.2-1.8c0-0.4,0-0.7,0-1.1
		C22.2,67,21.8,67.1,21.4,67.3z"/>
	<path class="st0" d="M20.2,121c-0.1-0.5-0.2-0.9-0.3-1.4c0-0.4-0.1-0.8-0.1-1.2c0,0-0.1,0-0.1,0c-0.2,0-0.4-0.1-0.6-0.1
		c-0.4-0.1-0.7-0.2-1.1-0.3c-1.3-0.4-2.5-0.9-3.7-1.5c0,0.4,0,0.8-0.1,1.2c-0.1,0.2-0.1,0.4-0.2,0.6l-0.3,0.5
		c-0.1,0.2-0.3,0.3-0.4,0.4c0,0-0.1,0-0.1,0.1c1.4,1,2.9,1.9,4.4,2.6c1,0.5,1.9,0.9,2.9,1.3c0-0.3,0-0.6,0-0.9
		C20.4,121.9,20.3,121.5,20.2,121z"/>
	<path class="st0" d="M33,118.6c-0.1,0.1-0.2,0.1-0.2,0.1c0.9,0.1,1.7,0.3,2.6,0.6l0.1,0.1l0.1,0l0.1,0.1c0.1,0,0.1,0.1,0.2,0.2
		c0.1,0.1,0.1,0.1,0.1,0.2c0.1,0.2,0.1,0.4,0.1,0.5c0.4-0.2,0.8-0.3,1.2-0.5c0.2-0.1,0.4-0.1,0.5-0.2c0.1,0,0.1-0.1,0.1-0.1
		c-0.1,0.1,0.1-0.1,0.1-0.2c0.3-0.3,0.6-0.6,0.9-0.9c0.2-0.1,0.3-0.3,0.5-0.4c-1.3-0.5-2.7-1.1-4-1.7c-0.1-0.1-0.3-0.1-0.4-0.2
		c0,0.2-0.1,0.3-0.2,0.4c-0.2,0.3-0.3,0.5-0.5,0.7C33.9,118,33.5,118.3,33,118.6z"/>
	<path class="st0" d="M41.4,120.6c0.1,0.1,0.3,0.1,0.4,0.2c0.1,0.1,0.2,0.1,0.4,0.2c0,0,0.1,0.1,0.2,0.2c0,0.1,0.1,0.1,0.1,0.2
		c0.1,0.1,0.1,0.2,0.1,0.3c0,0,0,0.1,0,0.1c0.3-0.2,0.7-0.3,1-0.4c0.2-0.1,0.3-0.1,0.4-0.2c0,0,0.1-0.1,0.1-0.1c0,0,0,0,0,0l0.1-0.1
		c0.2-0.3,0.5-0.5,0.7-0.8c0.1-0.1,0.2-0.2,0.3-0.3c-1.8-0.4-3.5-0.9-5.2-1.5c0,0,0,0.1,0,0.1c0,0.2-0.1,0.5-0.2,0.7
		c-0.1,0.2-0.2,0.4-0.3,0.6c0.4,0.1,0.8,0.3,1.2,0.4L41.4,120.6z"/>
	<path class="st0" d="M22.8,109.3c0.8,1.1,1.6,2.3,2.2,3.5l0.1,0.2c0.1,0.2,0.1,0.4,0.1,0.5c0,0.2,0,0.4-0.1,0.6c0.4,0,0.8,0,1.1,0
		c0.3,0,0.5,0,0.7,0c0.1,0,0.2,0,0.2-0.1l0.2-0.1c0.1,0,0.2-0.1,0.2-0.1c0.6-0.2,1.2-0.3,1.7-0.4c0.3-0.1,0.6,0,1-0.1c0,0,0,0,0,0
		c-1.6-1.2-3-2.7-4-4.5c0,0,0,0,0-0.1c-0.7,0-1.3,0.2-1.9,0.2C23.8,109.2,23.3,109.2,22.8,109.3z"/>
	<path class="st0" d="M28.1,115.1l-0.1,0l-0.2,0.1c0,0-0.1,0-0.1,0c0.4,0.3,0.8,0.7,1.2,1l0.6,0.6l0.3,0.3c0.1,0.1,0.2,0.2,0.3,0.5
		c0.1,0.3,0.1,0.5,0,0.6c0.4-0.1,0.7-0.1,1.1-0.2c0.2,0,0.4-0.1,0.5-0.2c0.2-0.2,0.4-0.4,0.6-0.5c0.4-0.3,0.9-0.6,1.4-0.9
		c0.3-0.2,0.7-0.3,1-0.5c-1.4-0.7-2.7-1.5-3.9-2.5c-0.1,0.1-0.2,0.2-0.3,0.3c-0.2,0.2-0.5,0.4-0.8,0.5
		C29.1,114.8,28.5,115,28.1,115.1z"/>
	<path class="st0" d="M45,122c0,0-0.1,0.2-0.2,0.2c-0.2,0.1-0.3,0.2-0.5,0.2c-0.3,0.1-0.5,0.1-0.7,0c-0.4-0.1-0.7-0.2-1-0.4
		c0,0.1,0,0.2,0,0.3l0,0.2c0,0,0,0.2,0,0c0,0.1,0,0.2,0,0.3l0,0.1l0,0.1l0,0.1l-0.1,0.2c-0.2,0.5-0.5,1.1-0.8,1.6
		c-0.1,0.3-0.3,0.5-0.4,0.8c0,0.1-0.1,0.1-0.1,0.1c0.3,0,0.5,0.1,0.7,0.3c0.2,0.1,0.3,0.3,0.4,0.5c1-0.3,1.9-0.6,2.9-0.8
		c0.6-0.1,1.2-0.2,1.7-0.4l0.4-0.1c0.1,0,0.1,0,0.2,0l0,0l0-0.1l0.2-0.4c0.2-0.5,0.5-1.1,0.7-1.6c0,0,0,0,0,0l0-0.2
		c0-0.1,0-0.2,0-0.3c-0.1,0-0.2-0.1-0.3-0.1c-1-0.3-2-0.6-2.9-0.9c0,0-0.1,0.1-0.1,0.1L45,122z"/>
	<path class="st0" d="M48.9,121.7c0.1,0,0.4,0.1,0.5,0.3c0.1,0.1,0.1,0.2,0.2,0.3c0.2-0.1,0.4-0.2,0.6-0.3c0.1-0.1,0.3-0.1,0.3-0.2
		c0,0,0,0-0.1,0c0,0,0,0,0,0c0,0,0,0,0,0c0,0,0,0,0,0l0,0l0.1-0.1c0.2-0.3,0.3-0.5,0.5-0.7c0,0,0.1-0.1,0.1-0.1
		c-0.5,0-0.9-0.1-1.4-0.1c-1-0.1-2-0.3-2.9-0.5c-0.3-0.1-0.5-0.1-0.8-0.2c0,0.2-0.1,0.4-0.1,0.6c-0.1,0.3-0.2,0.5-0.4,0.7
		c1,0,2,0,3,0.1C48.5,121.7,48.7,121.7,48.9,121.7z"/>
	<path class="st0" d="M26.7,92.6c-0.4-0.1-0.8-0.3-1.1-0.7c-0.1-0.2-0.2-0.4-0.2-0.6c-0.1,0.1-0.2,0.2-0.2,0.3
		c-0.2,0.2-0.5,0.3-0.7,0.4c-0.3,0.1-0.6,0.2-0.9,0.2c-0.5,0.8-1,1.6-1.6,2.4c-0.2,0.3-0.4,0.5-0.6,0.7c0.3,0.4,0.6,0.8,0.8,1.2
		c0.3,0.4,0.6,0.7,0.8,1.1c0.3,0.3,0.6,0.6,1,0.9c0.2,0.2,0.5,0.4,0.8,0.6c0.2-0.6,0.3-1.2,0.6-1.8c0.6-1.7,1.5-3.3,2.5-4.8
		c0,0,0,0-0.1,0C27.5,92.6,27.1,92.6,26.7,92.6z"/>
	<path class="st0" d="M30.1,87.2C30.1,87.2,30.1,87.2,30.1,87.2C30.1,87.2,30.1,87.2,30.1,87.2C30.1,87.2,30.1,87.2,30.1,87.2z"/>
	<path class="st0" d="M35.3,86.4c1-0.1,1.9-0.1,2.9-0.3c-0.8-0.1-1.5-0.3-2.2-0.5c-1.1-0.3-2.1-0.7-3.2-1.2l-0.7-0.3l0.4-0.6
		c0.6-0.8,1.2-1.5,1.8-2.2c-1,0-2,0-3-0.2c-0.4,0.5-0.8,1-1.2,1.5c-0.1,0.1-0.1,0.2-0.2,0.2c0.1,1.1,0.1,2.2,0.2,3.3
		c0,0.1,0,0.3,0,0.4l0.2,0c0.6-0.1,1.1-0.1,1.7-0.1L35.3,86.4z"/>
	<path class="st0" d="M29.8,88l-0.1,0l-0.1,0l0,0l0,0l0,0c0,0-0.1,0-0.2,0c-0.1,0-0.2-0.1-0.3-0.2c-0.1-0.1,0-0.1-0.1-0.1
		c0,0,0-0.1-0.1-0.1l0-0.1c0-0.1,0-0.1,0-0.2c0-0.4,0-0.6,0.1-0.9c0.2-1.1,0.4-2.2,0.7-3.2c-0.4,0.5-0.8,1-1.2,1.4l-0.2,0.2l-0.1,0
		c-0.5,1.3-1,2.6-1.5,3.8c-0.3,0.7-0.6,1.5-1,2.2c0.2,0.3,0.4,0.4,0.6,0.4c0.2,0.1,0.4,0.1,0.6,0.1c0.2,0,0.5,0.1,0.8,0.2
		c0.2,0.1,0.4,0.1,0.7,0.2c0.9-1.3,1.9-2.5,2.9-3.7c-0.4,0-0.7,0-1.1,0L29.8,88z"/>
	<path class="st0" d="M50.1,123.1c-0.2,0-0.3-0.1-0.5-0.2c0,0,0,0,0,0.1l0,0.2c0,0,0,0,0,0c0,0,0,0,0,0l0,0c0,0,0-0.1,0-0.1
		c0,0,0,0,0-0.1c0,0,0,0,0,0.1c0.1,0.1,0.1,0.3,0.1,0.4l0,0.2c-0.2,0.6-0.4,1.2-0.7,1.7c-0.1,0.1-0.1,0.3-0.2,0.4c0,0,0,0.1-0.1,0.1
		c0.2,0.1,0.5,0.2,0.7,0.4c0.2,0.2,0.4,0.5,0.4,0.9c0,0.1-0.1,0.2-0.1,0.3c1-0.6,2.1-1.1,3.1-1.5c0.5-0.2,1.1-0.4,1.6-0.7l0.4-0.2
		c0.1,0,0.1-0.1,0.2-0.1l0,0l0,0L55,125l0.2-0.4c0.1-0.2,0.3-0.5,0.4-0.7c0,0,0-0.1,0-0.1c0,0,0-0.1,0-0.1l-0.4-0.1
		c-0.3-0.1-0.6-0.1-0.9-0.2c-1-0.2-2-0.5-3-0.8l0,0c0,0-0.1,0.1-0.1,0.1c-0.2,0.2-0.3,0.3-0.5,0.3C50.5,123.1,50.3,123.1,50.1,123.1
		z"/>
	<path class="st0" d="M24.5,102c-0.4,0.8-0.9,1.6-1.8,2.2c-0.3,0.2-0.6,0.3-1,0.4c-0.3,0-0.6,0.1-0.9,0.1c-0.6,0-1.2,0-1.8,0
		c-0.6-0.1-1.2-0.1-1.7-0.2l-0.1,0l0.5,1.6c0.1,0.2,0.1,0.4,0.2,0.5c0.1,0.2,0.1,0.2,0.2,0.6c0,0.4,0,0.7-0.1,1
		c0.6,0.1,1.2,0.3,1.8,0.3c0.4,0,0.7,0.1,1,0c0.1,0,0.1,0,0.2-0.1c0,0,0,0,0.1,0l0.2-0.1c0.2-0.1,0.5-0.2,0.7-0.2
		c0.9-0.2,1.7-0.2,2.5-0.1c0.4,0,0.8,0.1,1.2,0.2c0.2,0.1,0.3,0.1,0.5,0.2c-0.9-1.6-1.4-3.4-1.5-5.3C24.4,102.8,24.4,102.4,24.5,102
		z"/>
	<path class="st0" d="M69.2,123.9c-0.1-0.1-0.1-0.1-0.1-0.2C69.1,123.8,69.2,123.9,69.2,123.9z"/>
	<polygon class="st0" points="69,123.6 69,123.6 69,123.6 	"/>
	<path class="st0" d="M63.9,123.6C63.9,123.6,63.9,123.6,63.9,123.6C63.9,123.6,63.9,123.6,63.9,123.6
		C63.9,123.6,63.9,123.6,63.9,123.6z"/>
	<path class="st0" d="M54.5,122.4c0.3,0,0.6,0,0.9,0.1l0.5,0.1l0.1,0l0.1,0l0.1,0c0,0,0.1,0,0.1,0c0.1,0,0.1,0.1,0.2,0.1
		c0,0,0,0,0,0c0.1-0.1,0.1-0.2,0.2-0.3c0.2-0.2,0.3-0.4,0.3-0.5c0.1-0.2,0.2-0.4,0.4-0.6c-1.6-0.1-3.2-0.1-4.8-0.3
		c-0.2,0-0.5,0-0.7-0.1c0,0.1,0,0.3,0,0.4c-0.1,0.4-0.2,0.7-0.3,1C52.5,122.3,53.5,122.4,54.5,122.4z"/>
	<path class="st0" d="M63.9,123.3c0,0.1,0,0.1,0,0.2c0,0,0,0.1,0,0.1c0,0,0,0,0,0c0,0,0,0,0,0c0,0,0,0,0,0c0,0,0,0,0,0.1
		c0,0.1,0,0.1,0,0.2c0,0,0,0.1,0,0.1l0,0l0,0l0,0.1l-0.1,0.1c-0.1,0.3-0.2,0.5-0.4,0.8l-0.2,0.4l-0.1,0.1c0.2,0.1,0.4,0.2,0.6,0.4
		c0.2,0.2,0.3,0.5,0.2,0.8c0,0.2-0.1,0.4-0.3,0.5c1-0.1,1.9-0.2,2.9-0.3c1.1-0.1,2.1-0.2,3.2-0.4c-0.1-0.2-0.2-0.2-0.3-0.3
		c-0.1,0-0.2-0.1-0.2-0.2c-0.1-0.1-0.1-0.2-0.2-0.4c0,0,0-0.1,0-0.1c0,0,0,0-0.1,0c-0.1,0.1-0.2,0.1-0.4,0.1
		c-0.5,0.2-0.9,0.3-1.4,0.4c-1,0.3-1.9,0.5-2.9,0.5c0.8-0.6,1.7-1,2.6-1.5c0.4-0.2,0.9-0.4,1.3-0.6l0.3-0.1c0,0,0.1,0,0.1-0.1l0,0
		l0.1-0.1l0.2-0.3c0.1-0.2,0.2-0.4,0.3-0.6c0,0,0,0,0,0c0,0,0,0,0-0.1l-0.3,0c-0.2,0-0.5-0.1-0.7-0.1c-0.9-0.2-1.9-0.4-2.8-0.8
		c0,0.1-0.1,0.2-0.1,0.2c0,0-0.1,0.2-0.2,0.3c-0.1,0.1-0.1,0.1-0.2,0.2c-0.1,0.1-0.3,0.2-0.4,0.2C64.1,123.3,64,123.3,63.9,123.3z"
		/>
	<path class="st0" d="M33.5,94.6c0.4-0.1,0.8-0.2,1.2-0.4c0.5-0.2,0.9-0.4,1.3-0.7c0.4-0.3,0.7-0.6,0.8-1.1c0,0,0,0,0,0l-0.4,0.1
		l-0.1-0.6c-0.1-0.8-0.1-1.6-0.1-2.4c0-0.4,0-0.8,0.1-1.2c0-0.4,0.1-0.7,0.3-1.1c-0.3,0.1-0.7,0.2-1,0.3c-1.2,0.3-2.3,0.4-3.5,0.5
		c0,0-0.1,0-0.1,0c0,0.3-0.1,0.5-0.1,0.8c0,0,0,0,0-0.1c0,0.2,0,0.4-0.1,0.7c0,0.7,0,1.4,0,2c0,0.3,0,0.7,0,1c0.1,0.5,0.3,1,0.6,1.4
		C32.7,94.1,33.1,94.4,33.5,94.6z"/>
	<path class="st0" d="M69.2,123.3C69.2,123.3,69.2,123.3,69.2,123.3C69.2,123.3,69.2,123.3,69.2,123.3L69.2,123.3z"/>
	<path class="st0" d="M56.8,123.7C56.8,123.7,56.8,123.7,56.8,123.7C56.8,123.7,56.8,123.7,56.8,123.7
		C56.8,123.7,56.8,123.7,56.8,123.7z"/>
	<path class="st0" d="M62.8,123.7C62.8,123.7,62.8,123.7,62.8,123.7C62.8,123.7,62.8,123.7,62.8,123.7L62.8,123.7z"/>
	<path class="st0" d="M62.9,124.3c-0.1-0.1-0.1-0.1-0.1-0.2C62.8,124.2,62.8,124.3,62.9,124.3z"/>
	<path class="st0" d="M63.9,123.6C63.9,123.6,63.9,123.6,63.9,123.6C63.9,123.6,63.9,123.6,63.9,123.6
		C63.9,123.6,63.9,123.6,63.9,123.6z"/>
	<path class="st0" d="M56.8,123.4c0,0.1,0,0.1,0.1,0.2l0,0.2c0,0,0,0,0,0.1c0,0.1,0,0.1,0,0.2c0,0,0,0.1,0,0.1l0,0l0,0l0,0.1
		l-0.1,0.1c-0.1,0.3-0.3,0.6-0.4,0.8l-0.2,0.4l-0.1,0.2c0.3,0.1,0.5,0.2,0.7,0.5c0.2,0.2,0.3,0.5,0.2,0.9c0,0.2-0.1,0.4-0.3,0.5
		c1.2-0.1,2.5-0.1,3.7-0.2c1-0.1,2-0.1,2.9-0.2c-0.1-0.2-0.2-0.3-0.3-0.4c-0.1-0.1-0.2-0.1-0.3-0.2c-0.1-0.1-0.1-0.2-0.2-0.4
		c0-0.1,0-0.1,0-0.2c0,0-0.1,0-0.1,0c-0.1,0-0.3,0.1-0.4,0.1c-0.5,0.1-1,0.3-1.6,0.4c-1,0.2-2.1,0.4-3.2,0.5c0.9-0.6,1.9-1,2.9-1.4
		c0.5-0.2,1-0.4,1.4-0.6l0.3-0.1c0.1,0,0.1,0,0.2-0.1l0,0l0.1-0.1l0.2-0.3c0.1-0.2,0.2-0.4,0.3-0.6c0,0,0,0,0,0c0,0,0-0.1,0-0.1
		l-0.3-0.1c-0.3-0.1-0.5-0.1-0.8-0.2c-1-0.2-2.1-0.5-3.1-0.9c1.1-0.1,2.1-0.1,3.2-0.1c0.3,0,0.5,0,0.8,0.1l0.4,0l0.1,0l0.1,0l0.1,0
		c0,0,0.1,0,0.1,0c0.1,0,0.1,0.1,0.2,0.1c0,0,0,0,0,0c0-0.1,0.1-0.2,0.1-0.3c0.1-0.2,0.3-0.4,0.3-0.4c0.1-0.2,0.2-0.4,0.4-0.6
		c-2,0-3.9,0-5.9-0.1c0,0,0,0,0,0c0,0.1,0,0.2,0,0.2c0,0.3-0.1,0.7-0.2,0.9c0,0-0.1,0.2-0.2,0.3c-0.1,0.1-0.2,0.2-0.2,0.2
		c-0.2,0.1-0.3,0.2-0.5,0.2C57.1,123.3,56.9,123.4,56.8,123.4z"/>
	<path class="st0" d="M51.4,99.2c-0.5-0.3-0.9-0.6-1.2-1C50.1,98.1,50,98,50,97.9l0,0.1l-0.2,0.1c-0.5,0.4-1.1,0.6-1.7,0.7
		c-0.2,0-0.4,0-0.6-0.1c0.3,0.1,0.5,0.2,0.8,0.3c1.7,0.6,3.5,1.1,5.1,2.2c0.8,0.5,1.6,1.2,2.2,2c0.3,0.4,0.5,0.9,0.7,1.4
		c0.5-0.1,1.1-0.2,1.6-0.4c0.7-0.2,1.4-0.4,2-0.6c0.6-0.2,1.3-0.5,1.8-0.9c0.5-0.3,0.8-0.7,0.9-0.9c0.1-1.3-0.9-2.6-2.3-3.6
		c-0.7-0.5-1.4-1-2.3-1.3c-0.8-0.4-1.7-0.6-2.6-0.8c-0.1,0-0.2,0-0.3-0.1c0.1,0.2,0.1,0.4,0.1,0.6c0,0.2,0,0.5,0,0.7
		c0,0.5-0.1,0.9-0.2,1.3l0,0.2L54.8,99c-0.5,0.4-1.1,0.6-1.7,0.7C52.4,99.7,51.9,99.5,51.4,99.2z"/>
	<path class="st0" d="M99.7,84.4c0.2-0.3,0.3-0.6,0.3-0.7l0-0.4l0.5-0.1c0.1,0,0.3-0.1,0.4-0.1c-0.1-0.4-0.2-0.7-0.2-1.1
		c-0.1-0.4-0.2-0.9-0.2-1.3l-0.2-1.3c0-0.1,0-0.1,0-0.2c0,0-0.1,0-0.1-0.1c-1.3,0-2.5,0-3.7,0.2c-0.6,0.1-1.2,0.2-1.8,0.4
		c-0.4,0.1-0.8,0.3-1,0.6c0.2,0.5,0.4,1,0.6,1.5c0.3,0.6,0.6,1.2,1,1.7c0.4,0.6,0.8,1.1,1.2,1.6c0.4,0.5,0.8,0.9,1.3,1.3
		c0,0,0.1,0,0.1,0c0.1,0,0.2,0.1,0.2,0.1c0.4-0.5,0.7-1,1.1-1.4C99.3,85,99.5,84.7,99.7,84.4z"/>
	<path class="st0" d="M96.9,98.4c0.1,0.2,0.2,0.4,0.3,0.6c0.1,0.2,0.1,0.5,0.2,0.7c0,0.2,0.1,0.5,0.1,0.7c0,0.3,0,0.7,0,1
		c0.1,0,0.2,0,0.3,0.1c0.5,0.1,0.9,0.4,1.2,0.8c0.2,0.2,0.3,0.4,0.4,0.6c0.1,0.2,0.2,0.4,0.3,0.6c0.2,0.4,0.3,0.9,0.4,1.3l0,0.2
		l-0.1,0.2c-0.2,0.5-0.6,1.1-1.2,1.4c-0.2,0.1-0.4,0.2-0.6,0.2c0.2,0.1,0.4,0.1,0.6,0.2c0.9,0.3,1.7,0.4,2.5,0.4
		c0.4,0,0.8-0.1,1.1-0.2c0.3-0.1,0.6-0.3,1-0.6c0.7-0.5,1.3-1.2,1.9-1.8c0.6-0.7,1.1-1.4,1.5-2.2c0.6-1,0.9-2,0.9-2.9l-2-0.5
		c-0.7-0.2-1.4-0.5-2.2-0.8c-0.7-0.3-1.4-0.6-2.1-1c-0.6-0.4-1.4-0.8-1.9-1.3c-0.3-0.2-0.6-0.5-0.9-0.8c0,0.2,0,0.4,0,0.6
		c-0.1,0.2-0.1,0.5-0.2,0.7c-0.1,0.4-0.3,0.9-0.5,1.3L98.1,98l-0.2,0.1C97.6,98.3,97.3,98.4,96.9,98.4z"/>
	<path class="st0" d="M96.6,91.3c-0.1,0-0.1,0.1-0.2,0.1c-0.6,0.4-1.2,0.6-1.8,0.7c-0.3,0-0.6,0.1-0.9,0.1l-0.2,0
		c0.3,0.2,0.5,0.4,0.7,0.7c0.3,0.5,0.4,1,0.4,1.6c0,0.3,0,0.5-0.1,0.8c-0.1,0.3-0.1,0.5-0.2,0.8c0,0,0,0.1,0,0.1
		c0.4,0.4,0.8,0.7,1.3,0.9c0.3,0.1,0.6,0.1,0.9,0.1c0.2,0,0.5-0.1,0.7-0.2c0.2-0.3,0.3-0.6,0.4-0.8c0.2-0.4,0.3-0.7,0.4-1.1
		c0.1-0.3,0.1-0.5,0.1-0.8c-0.5-0.6-0.9-1.3-1.2-2.1C96.8,92,96.7,91.6,96.6,91.3z"/>
	<path class="st0" d="M106.1,98.9l1.9,0.7c0-0.5-0.2-0.9-0.5-1.3c-0.7-0.4-1.6-0.7-2.5-0.9c-0.5-0.1-1-0.2-1.5-0.2
		c-0.2,0-0.4,0-0.7,0c0.4,0.2,0.8,0.5,1.2,0.7C104.7,98.3,105.4,98.6,106.1,98.9z"/>
	<path class="st0" d="M90,101.1c0.3,0,0.6-0.2,0.8-0.3c0.1-0.3,0.2-0.6,0.2-0.9c0.1-0.4,0.1-0.8,0.1-1.1c0-0.2,0-0.5-0.1-0.7
		c-0.5-0.2-1-0.5-1.3-0.8c-0.4-0.4-0.8-0.9-1-1.4c-0.1-0.2-0.2-0.5-0.3-0.8c-0.3,0.1-0.6,0.2-0.9,0.2c-0.8,0-1.5-0.2-2.1-0.5
		c-0.6-0.3-1.1-0.8-1.5-1.3c-0.1-0.2-0.3-0.3-0.4-0.5c0.7,1.6,1.5,3.1,2.4,4.5c0.6,1,1.3,2,2,3c0.3,0.2,0.6,0.3,1,0.4
		C89.3,101.1,89.7,101.1,90,101.1z"/>
	<path class="st0" d="M98.9,104.8c-0.1-0.3-0.1-0.6-0.2-0.9c-0.1-0.4-0.3-0.7-0.4-1.1c-0.2-0.3-0.4-0.6-0.7-0.9c0,0-0.1,0-0.1-0.1
		l0,0.1l-0.2,0.2c-0.4,0.4-1,0.8-1.6,0.9c-0.6,0.1-1.2,0-1.7-0.2c-0.5-0.2-0.9-0.5-1.3-0.9c-0.3-0.2-0.5-0.5-0.7-0.8
		c0,0.1,0,0.1,0,0.2l0,0.2l-0.2,0.1c-0.4,0.4-1,0.6-1.7,0.7c-0.2,0-0.4,0-0.5,0c0.5,0.5,1.1,1,1.8,1.4c0.4,0.3,0.8,0.5,1.2,0.7
		l1.3,0.6c0.8,0.3,1.5,0.7,2.3,1c0.4,0,0.8,0,1.2-0.1c0.4-0.1,0.8-0.2,1.1-0.4C98.6,105.3,98.8,105.1,98.9,104.8z"/>
	<path class="st0" d="M125.9,93.2l-0.1-0.1l-0.1-0.2c-0.6-0.9-1.1-1.8-1.7-2.7c-0.6-0.9-1.1-1.9-1.5-2.9c-0.5-1-1-2-1.6-2.8
		c-0.6-0.9-1.5-1.6-2.2-2.5l-0.1-0.2c-0.5-0.9-1-1.9-1.6-2.9c-0.3-0.5-0.6-1-0.8-1.5c0-0.1-0.1-0.1-0.1-0.2
		c-0.2,0.2-0.5,0.4-0.7,0.6l-0.5,0.3c-0.1,0.1-0.2,0.1-0.2,0.2l-0.1,0.2c-0.2,0.3-0.4,0.5-0.6,0.8c-0.1,0.1-0.1,0.2-0.1,0.3l0,0
		c0,0,0,0,0,0l0,0c0,0.1,0,0.2,0,0.3c0,0.2-0.1,0.3-0.2,0.4c-0.3,0.3-0.5,0.4-0.7,0.6c-0.2,0.1-0.4,0.2-0.6,0.3
		c-0.4,0.2-0.8,0.3-1.1,0.4l-0.3,0.1c-0.1,0-0.3,0-0.4,0c-0.2,0-0.5,0-0.7-0.1c-0.4-0.1-0.8-0.2-1.1-0.3c-0.3-0.1-0.6-0.2-0.9-0.2
		c-0.2,0-0.6,0.1-1,0.2c-0.7,0.2-1.4,0.6-2.1,0.9c-0.7,0.4-1.3,0.8-1.9,1.2c-0.6,0.3-1.1,0.7-1.8,0.8c-0.1,0.3-0.3,0.5-0.4,0.8
		c-0.2,0.3-0.5,0.6-0.8,0.8c-0.5,0.4-1,0.7-1.5,1c0.1,0.1,0.1,0.2,0.2,0.3c1.5,0.1,2.9,0.3,4.2,0.6c0.8,0.1,1.5,0.3,2.3,0.5
		c0.7,0.2,1.5,0.4,2.2,0.6l0.3,0.1l0.1,0.1c0.8,1.2,2,2.2,3.3,2.8c0.7,0.3,1.4,0.5,2.1,0.5l0.5,0l0.2,0c0.1,0,0.1,0,0.3,0
		c0.6,0,0.9,0.1,1.3,0.2c1.5,0.4,3,1,4.3,1.7c0.7,0.3,1.4,0.7,2,1.1c0.3,0.2,0.6,0.4,1,0.7c0.3,0.2,0.6,0.5,1,0.9l-0.1-0.1
		c0.7,0.6,1.3,1.1,2,1.4c0.4,0.1,0.8,0.2,1.2,0.2c0.2,0,0.5-0.1,0.7-0.2c-1-0.5-1.7-2.6-1.4-2.8c0.3-0.2,0.9,0.1,1.3,0.4
		c0.1-0.2,0.4-0.4,0.6-0.4C127.5,94.5,126.7,93.8,125.9,93.2z M117.4,88.4c-0.5,0.7-1.6,0.8-2.4,0.3c-0.8-0.6-1.1-1.6-0.6-2.3
		c0.5-0.7,1.6-0.8,2.4-0.3C117.6,86.6,117.9,87.7,117.4,88.4z"/>
	<path class="st0" d="M13,115.7c-0.1-0.7-0.2-1.3-0.3-2c-0.1-0.5-0.1-1.1-0.1-1.7c-0.3,0-0.7-0.1-1-0.1c-0.8-0.1-1.5-0.3-2.3-0.5
		c-1.3-0.3-2.6-0.7-3.9-1.2c0.7,1.5,1.6,3,2.7,4.3c1.4,1.8,3.1,3.3,5,4.7c0.2-0.5,0.2-1,0.2-1.5C13.2,116.9,13.1,116.3,13,115.7z"/>
	<path class="st0" d="M35.1,101.7l0.8-1c0.1-0.2,0.2-0.3,0.3-0.5c-0.5-0.2-1-0.5-1.4-1c-0.4-0.5-0.5-1.1-0.5-1.7
		c0-0.6,0.1-1.1,0.2-1.6c0.1-0.2,0.1-0.3,0.2-0.5c-0.4,0.2-0.8,0.3-1.2,0.5L33.4,96l-0.2-0.1c-0.4-0.2-0.9-0.4-1.3-0.7c0,0,0,0,0,0
		c0.1,1.3,0.2,2.5,0.3,3.8c0.1,0.9,0.2,1.8,0.3,2.7c0.2,0.1,0.3,0.2,0.5,0.3C33.6,102.1,34.4,102,35.1,101.7z"/>
	<path class="st0" d="M84.4,98.4c-0.6-1-1.1-2-1.6-3c0,0.2-0.1,0.3-0.1,0.5l0,0.2l-0.2,0.1c-0.5,0.4-1.1,0.7-1.8,0.7
		c-0.2,0-0.4,0-0.5,0c0.1,0.2,0.1,0.3,0.2,0.5c0.1,0.3,0.1,0.5,0.1,0.8c0,0.2,0,0.5,0,0.8c0,0.5-0.1,1-0.2,1.5l0,0.2l-0.2,0.1
		c-0.4,0.3-0.9,0.6-1.4,0.7c0.8,0.3,1.7,0.4,2.6,0.5c0.2,0,0.5,0,0.7,0c0.2,0,0.4,0,0.7,0c0.5,0,1-0.1,1.5-0.2
		c0.5-0.1,1-0.2,1.5-0.3c0.3-0.1,0.6-0.2,0.9-0.3C85.8,100.2,85,99.4,84.4,98.4z"/>
	<path class="st0" d="M113.7,79.6C113.7,79.6,113.8,79.6,113.7,79.6L113.7,79.6C113.8,79.6,113.7,79.6,113.7,79.6z"/>
	<path class="st0" d="M113.8,79.5C113.8,79.5,113.7,79.5,113.8,79.5L113.8,79.5C113.8,79.5,113.8,79.5,113.8,79.5L113.8,79.5z"/>
	<path class="st0" d="M79.3,98.8c0.1-0.4,0.1-0.8,0.1-1.2c0-0.3,0-0.6-0.1-0.9c-0.1-0.1-0.2-0.1-0.3-0.2c-0.5-0.3-0.9-0.7-1.3-1.1
		c-0.1-0.1-0.2-0.2-0.3-0.3c0,0.1,0,0.1,0,0.2l0,0.2l-0.2,0.1c-0.5,0.4-1.1,0.7-1.8,0.7c-0.7,0-1.3-0.2-1.8-0.5
		c-0.5-0.3-0.9-0.7-1.3-1.1c0,0-0.1-0.1-0.1-0.1c0.2,0.9,0.4,1.7,0.9,2.5c0.3,0.5,0.7,1,1.2,1.4c0.3,0.2,0.6,0.4,0.9,0.6
		c0.2,0.1,0.5,0.3,0.7,0.4l0.1,0l0.1,0.1c0.3,0.1,0.5,0.3,0.8,0.4c0.4,0.2,0.8,0.2,1.2,0.2c0.3,0,0.6-0.2,0.9-0.4
		C79.2,99.5,79.3,99.1,79.3,98.8z"/>
	<path class="st0" d="M51.6,93.9c-0.1,0.1-0.3,0.2-0.4,0.4c-0.2,0.1-0.4,0.3-0.6,0.4c-0.2,0.1-0.4,0.2-0.6,0.3
		c0,0.1,0.1,0.2,0.1,0.2c0.1,0.2,0.1,0.5,0.1,0.7c0,0.2,0,0.5,0,0.7c0,0.3-0.1,0.6-0.1,0.8c0.2,0.1,0.4,0.2,0.5,0.3
		c0.4,0.2,0.8,0.5,1.2,0.6c0.4,0.1,0.8,0.2,1.1,0.2c0.3,0,0.6-0.2,0.8-0.3c0.1-0.3,0.2-0.6,0.2-0.9c0.1-0.4,0.1-0.7,0.1-1.1
		c0-0.1,0-0.2,0-0.4c0,0,0,0,0,0c-0.5-0.1-1-0.4-1.4-0.7C52.2,94.8,51.8,94.4,51.6,93.9z"/>
	<path class="st0" d="M55.3,84.1L55,84c-0.2,0-0.3-0.1-0.4-0.1c-0.2-0.1-0.4-0.2-0.6-0.4c-0.7,0.2-1.5,0.3-2.3,0.3
		c-0.1,0-0.3,0-0.4,0c-0.9,0.5-1.8,1-2.8,1.3L48,85.3c-0.1,0-0.2,0-0.3,0.1c-0.1,0-0.2,0-0.3,0c-0.3,0-0.7,0-1-0.1
		c-0.4-0.1-0.8-0.2-1.2-0.4c-0.7,0.6-1.6,0.9-2.6,1.1c0.1,0.1,0.2,0.2,0.2,0.3c0,0.1,0,0.1,0.1,0.2c0.2,0.7,0.7,2.7,4.7,2.1
		c0.1,0,0.2,0,0.3,0c0.4-0.2,0.7-0.5,1.1-0.7c1.4-0.8,2.8-1.5,4.3-2c1.4-0.5,2.9-0.9,4.4-1.2l-1.4-0.5C56,84.3,55.6,84.1,55.3,84.1z
		"/>
	<path class="st0" d="M41,104.9c-0.2-0.1-0.4-0.3-0.6-0.4l-0.2,0.1c-0.5,0.2-1,0.4-1.6,0.4c-0.6,0-1.2-0.1-1.7-0.4
		c-0.5-0.3-0.9-0.8-1-1.3c-0.1-0.2-0.1-0.3-0.1-0.5l0,0c-0.5,0.2-1,0.4-1.6,0.4c-0.5,0-1,0-1.5-0.3c0.3,0.7,0.7,1.4,1.3,1.9
		c0.7,0.6,1.6,1.1,2.6,1.5c1.1,0.5,2.3,0.8,3.6,1c0.3-0.1,0.6-0.2,0.8-0.3c0.3-0.2,0.6-0.4,0.7-0.6c0.1-0.2,0.1-0.4,0.1-0.6
		c-0.1-0.1-0.3-0.3-0.4-0.4C41.4,105.3,41.2,105.1,41,104.9z"/>
	<path class="st0" d="M52.6,102.6c-0.6-0.3-1.3-0.6-2-0.9c0.4,0.3,0.7,0.7,1.1,1l0.1,0.2l0,0.2c0,0.3,0,0.7-0.2,1.1
		c-0.2,0.4-0.5,0.6-0.8,0.8c-0.6,0.3-1.2,0.4-1.7,0.4c-0.6,0-1.1-0.1-1.6-0.2c-0.1,0-0.1,0-0.2,0c-0.2,0.3-0.5,0.6-0.9,0.8
		c-0.6,0.3-1.3,0.3-1.8,0.1c-0.5-0.1-0.9-0.3-1.3-0.5c0.1,0.5,0,1.1-0.4,1.6c-0.2,0.3-0.4,0.5-0.7,0.6c0.3,0,0.6,0.1,0.9,0.1
		c1.1,0.2,2.3,0.3,3.3,0.4c1.1,0.1,2.2,0.1,3.3,0c1.1-0.1,2.2-0.4,3.3-0.7c0.5-0.2,1-0.4,1.5-0.7c0.4-0.3,0.8-0.6,1-0.9
		c-0.1-0.8-0.4-1.4-1-2C54,103.4,53.3,103,52.6,102.6z"/>
	<path class="st0" d="M68.1,122.1c0.2,0,0.5,0,0.7,0l0.4,0l0.1,0l0.1,0l0.1,0c0,0,0.1,0,0.1,0c0.1,0,0.1,0.1,0.1,0.1
		c0-0.1,0.1-0.2,0.1-0.2c0.1-0.2,0.2-0.4,0.2-0.4c0.1-0.1,0.1-0.3,0.2-0.4c-0.1,0-0.1,0-0.2,0c-1.6,0.1-3.3,0.1-4.9,0.1
		c0,0.1,0,0.2,0,0.3c0,0.2-0.1,0.4-0.1,0.6C66.2,122.1,67.1,122.1,68.1,122.1z"/>
	<path class="st0" d="M74.1,94.8C74.5,95,75,95,75.3,95c0.3,0,0.6-0.2,0.9-0.4c0.1-0.3,0.2-0.7,0.3-1c0.1-0.4,0.1-0.8,0.1-1.2
		c0-0.3-0.1-0.7-0.2-1c-0.3-0.2-0.5-0.5-0.8-0.7c-0.1-0.1-0.2-0.2-0.2-0.3c-0.5,0.3-1,0.6-1.6,0.6c-0.6,0-1.2-0.2-1.7-0.5
		c-0.3-0.2-0.5-0.4-0.8-0.6c0.2,1.2,0.5,2.4,0.7,3.5c0,0.1,0,0.2,0,0.2c0.2,0.2,0.5,0.3,0.7,0.5C73.3,94.4,73.7,94.6,74.1,94.8z"/>
	<path class="st0" d="M72.6,89.6c0.4,0.1,0.8,0.2,1.1,0.2c0.3,0,0.6-0.2,0.8-0.3c0.1-0.3,0.2-0.6,0.2-0.9c0.1-0.4,0.1-0.7,0.1-1.1
		c0-0.2,0-0.4-0.1-0.6c-0.8-0.1-1.7-0.2-2.5-0.3c-0.5-0.1-1-0.2-1.5-0.3c0.2,0.9,0.3,1.8,0.4,2.6c0.1,0,0.1,0.1,0.2,0.1
		C71.8,89.2,72.2,89.4,72.6,89.6z"/>
	<path class="st0" d="M59.9,83.3c-0.3-0.2-0.6-0.3-1-0.5c-0.4-0.2-0.7-0.5-0.9-0.8c-0.5-0.6-1-1.2-1.5-1.8l-0.2-0.3l0.2-0.3
		c0.3-0.5,0.6-1,0.9-1.4c0.2-0.2,0.3-0.5,0.6-0.7c0.1-0.1,0.2-0.3,0.5-0.4c0.1-0.1,0.2-0.1,0.3-0.1c-0.5-0.1-1-0.3-1.5-0.5
		c-0.5-0.2-0.9-0.5-1.3-0.8c-0.3,0.2-0.6,0.5-0.8,0.7c-0.4,0.3-0.8,0.7-1.2,1c-0.4,0.3-0.8,0.7-1.2,1.1c-0.3,0.3-0.5,0.5-0.7,0.8
		c0.3,0.6,0.7,1.2,1.1,1.7c0.5,0.6,1,1.3,1.5,1.8c0.1,0.1,0.3,0.2,0.4,0.3c0.1,0,0.1,0.1,0.2,0.1l0.3,0.1c0.4,0.2,0.8,0.4,1.2,0.6
		c0.5,0.3,1.1,0.7,1.5,1.1c1.5-0.3,2.9-0.2,4.3-0.1c-0.2-0.1-0.5-0.2-0.7-0.3L59.9,83.3z"/>
	<path class="st0" d="M71,84.8c-0.4-0.2-0.8-0.5-1.1-0.7c-0.4-0.3-0.7-0.6-1-0.9c-0.3-0.4-0.6-0.7-0.8-1.3L68,81.6l0.2-0.3
		c0.4-0.5,0.8-0.9,1.3-1.2c0.4-0.3,0.8-0.5,1.3-0.6c-0.4-0.1-0.8-0.2-1.2-0.4c-0.7-0.3-1.3-0.8-1.7-1.4c-0.1-0.1-0.1-0.2-0.2-0.3
		c-0.8,0.3-1.6,0.7-2.3,1.2c-0.4,0.3-0.8,0.6-1.2,0.9c-0.3,0.2-0.5,0.5-0.7,0.8c0.2,0.4,0.5,0.7,0.7,1.1c0.3,0.5,0.7,0.9,1.1,1.4
		c0.4,0.5,0.8,0.9,1.2,1.3c0.3,0.3,0.6,0.6,0.9,0.8c0.1,0,0.2,0,0.4,0C68.8,84.9,69.9,84.9,71,84.8C71.1,84.8,71,84.8,71,84.8z"/>
	<path class="st0" d="M64.4,83.6c-0.5-0.4-0.9-0.9-1.3-1.4c-0.4-0.5-0.8-1-1.1-1.7l-0.2-0.4l0.2-0.3c0.4-0.5,0.8-0.9,1.2-1.2
		c0.3-0.3,0.7-0.5,1.1-0.7c-0.6-0.3-1.2-0.6-1.7-1c-0.2-0.2-0.5-0.4-0.7-0.6c-0.4,0.2-0.8,0.4-1.3,0.6c-0.5,0.2-1,0.4-1.5,0.7
		c-0.1,0.1-0.3,0.1-0.3,0.2c0,0-0.1,0.1-0.1,0.2c-0.1,0.2-0.3,0.4-0.4,0.7c-0.2,0.3-0.4,0.7-0.6,1.1c0.4,0.5,0.7,0.9,1.1,1.4
		c0.2,0.3,0.5,0.5,0.7,0.7c0.2,0.2,0.6,0.4,0.9,0.6c0.6,0.4,1.2,0.9,1.8,1.4c0.4,0.3,0.7,0.6,1.1,0.9c1.1,0.1,2.1,0.2,3.2,0.2
		c-0.2-0.1-0.3-0.2-0.5-0.2C65.4,84.4,64.9,84,64.4,83.6z"/>
	<polygon class="st0" points="62.7,124 62.7,124 62.7,124 	"/>
	<path class="st0" d="M55.6,124.1c0,0.1,0.1,0.3,0.2,0.3C55.7,124.4,55.7,124.3,55.6,124.1C55.6,124.2,55.6,124.1,55.6,124.1z"/>
	<path class="st0" d="M55.7,123.7C55.7,123.7,55.7,123.7,55.7,123.7C55.7,123.7,55.7,123.7,55.7,123.7L55.7,123.7z"/>
	<polygon class="st0" points="55.6,124.1 55.6,124.1 55.6,124.1 	"/>
	<path class="st0" d="M48.5,122.8C48.5,122.8,48.5,122.8,48.5,122.8C48.5,122.8,48.5,122.8,48.5,122.8z"/>
	<path class="st0" d="M48.5,123.6C48.5,123.6,48.6,123.7,48.5,123.6C48.6,123.6,48.5,123.6,48.5,123.6
		C48.5,123.6,48.5,123.6,48.5,123.6C48.5,123.6,48.5,123.6,48.5,123.6z"/>
	<path class="st0" d="M55.9,127.3c-0.1-0.1-0.2-0.1-0.3-0.3c-0.1-0.1-0.2-0.3-0.2-0.5c0-0.1,0-0.2-0.1-0.2c-0.1,0-0.1,0-0.2,0.1
		c-0.1,0.1-0.3,0.1-0.4,0.1c-0.6,0.2-1.1,0.3-1.7,0.5c-1.1,0.3-2.3,0.5-3.5,0.6c-0.1,0.2-0.3,0.3-0.6,0.3c-0.1-0.4-0.2-0.5-0.3-0.5
		c-0.1,0-0.2-0.1-0.3-0.2c-0.1-0.1-0.2-0.2-0.3-0.4c0-0.1-0.1-0.2-0.1-0.3l-0.1,0c-0.1,0-0.2,0-0.2,0c-0.2,0-0.3,0.1-0.5,0.1
		c-0.6,0.1-1.2,0.1-1.8,0.2c-1,0.1-2,0.1-3,0c0,0.1,0,0.1,0,0.2c0,0.2-0.1,0.5-0.2,0.6c-0.2,0.1-0.3,0.2-0.5,0.2
		c0-0.2,0-0.3-0.1-0.4c0,0,0-0.1-0.1-0.1c0,0-0.1,0-0.1,0c-0.1,0-0.2-0.1-0.4-0.2c-0.1-0.1-0.3-0.3-0.5-0.5
		c-0.1-0.1-0.2-0.2-0.2-0.3c0,0,0,0,0,0c-0.1,0-0.2,0-0.3,0c-0.6,0-1.2-0.1-1.8-0.2c-0.9-0.1-1.8-0.3-2.7-0.6
		c0.1,0.2,0.2,0.4,0.2,0.6c0,0.3-0.1,0.7-0.3,1c2,0.3,4,0.5,6,0.7c1,0,2.1,0.1,3.1,0.1c1,0,2.1,0,3.1,0l3.1-0.1c1,0,2.1,0,3.1-0.1
		c0.7,0,1.4-0.1,2.2-0.1C56.1,127.5,56,127.4,55.9,127.3z"/>
	<path class="st0" d="M75.3,125.3c-0.1,0-0.2,0-0.2-0.1c-0.1-0.1-0.1-0.2-0.2-0.4c0,0,0-0.1,0-0.1c0,0,0,0,0,0
		c-0.1,0.1-0.2,0.1-0.3,0.1c-0.4,0.2-0.9,0.3-1.3,0.5c-0.9,0.3-1.8,0.5-2.7,0.6c0,0,0,0.1,0,0.1c0,0.1-0.1,0.3-0.2,0.4
		c1.8-0.2,3.6-0.5,5.5-0.8C75.6,125.4,75.4,125.4,75.3,125.3z"/>
	<path class="st0" d="M87.1,122.9L87.1,122.9c-0.3,0.3-0.3,0.2-0.4,0.3c-0.1,0-0.1,0.1-0.2,0.1c0.5-0.1,1-0.3,1.5-0.4
		c0.8-0.2,1.6-0.5,2.4-0.8c0,0,0,0,0,0c0-0.2,0-0.3-0.1-0.5c-0.1-0.3-0.3-0.6-0.6-0.8c-0.5-0.4-1.4-0.6-2.2-0.7c-0.2,0-0.4,0-0.6,0
		c0.1,0.1,0.2,0.1,0.2,0.2c0.1,0.1,0.2,0.3,0.3,0.4c0.2,0.3,0.3,0.6,0.3,0.9c0,0.2,0,0.4-0.1,0.6c-0.1,0.2-0.2,0.4-0.4,0.5
		C87.3,122.8,87.1,122.9,87.1,122.9C87.1,122.9,87.1,122.9,87.1,122.9C87.1,122.9,87.1,122.9,87.1,122.9
		C87.1,122.8,87.1,122.9,87.1,122.9z"/>
	<path class="st0" d="M86.1,122.1C86.1,122.1,86.1,122.2,86.1,122.1C86.1,122.1,86.1,122.1,86.1,122.1
		C86.1,122.1,86.1,122.1,86.1,122.1C86.1,122.1,86.1,122.1,86.1,122.1z"/>
	<path class="st0" d="M75,122.6L75,122.6L75,122.6C75,122.6,75,122.6,75,122.6L75,122.6z"/>
	<path class="st0" d="M75.1,123.1c-0.1-0.1-0.1-0.1-0.1-0.2C75,123,75,123.1,75.1,123.1z"/>
	<path class="st0" d="M74.9,122.8C74.9,122.8,74.9,122.8,74.9,122.8C74.9,122.8,74.9,122.8,74.9,122.8
		C74.9,122.8,74.9,122.8,74.9,122.8z"/>
	<path class="st0" d="M26.9,124.2c-0.2-0.3-0.3-0.6-0.4-0.9c-0.1-0.2-0.2-0.5-0.2-0.7c-0.3,0-0.5,0-0.8-0.1
		c-0.3-0.1-0.6-0.1-0.9-0.2c-1-0.2-2-0.5-3-0.8c0,0.3,0,0.6-0.1,1c-0.1,0.3-0.3,0.7-0.5,1c2.1,0.8,4.3,1.6,6.5,2.2
		c0-0.2-0.1-0.4-0.2-0.6L26.9,124.2z"/>
	<path class="st0" d="M86.4,121L86.4,121C86.4,121,86.4,121,86.4,121C86.4,121.1,86.4,121.1,86.4,121z"/>
	<path class="st0" d="M29.9,119.4C29.9,119.4,29.9,119.4,29.9,119.4C29.9,119.4,29.9,119.4,29.9,119.4
		C29.9,119.4,29.9,119.4,29.9,119.4L29.9,119.4z"/>
	<path class="st0" d="M29.9,119.4c0,0,0-0.1,0-0.1l0,0c0,0,0,0,0,0C29.9,119.3,29.9,119.4,29.9,119.4L29.9,119.4
		C29.9,119.4,29.9,119.4,29.9,119.4z"/>
	<path class="st0" d="M26.4,121.4C26.4,121.4,26.4,121.4,26.4,121.4C26.4,121.4,26.4,121.4,26.4,121.4z"/>
	<path class="st0" d="M28.7,119.3C28.7,119.3,28.7,119.3,28.7,119.3C28.7,119.3,28.7,119.3,28.7,119.3
		C28.7,119.3,28.7,119.3,28.7,119.3z"/>
	<path class="st0" d="M28.3,124.2c1.1-0.2,2.2-0.3,3.4-0.4c0.6-0.1,1.2-0.1,1.7-0.2l0,0c0.1-0.1,0.1-0.2,0.2-0.3
		c0.2-0.2,0.3-0.5,0.5-0.7c0.3-0.5,0.6-1,0.9-1.4l0-0.2c0-0.1,0-0.3,0-0.4c0-0.1,0-0.2,0-0.2l0,0c-0.8-0.4-1.7-0.8-2.6-1.3
		c0,0-0.1,0-0.1,0c-0.4,0.2-0.8,0.2-1.1,0.2c-0.4-0.1-0.8-0.2-1.1-0.4c0,0.1,0,0.1,0,0.2l-0.1,0.4c0,0,0,0,0,0c0,0,0,0,0,0
		c0,0.1,0,0.1,0,0.2l0,0l0,0l0,0.1l-0.1,0.1c-0.1,0.1-0.1,0.1-0.2,0.2c-0.4,0.5-0.8,0.9-1.3,1.3c-0.2,0.2-0.4,0.4-0.7,0.6
		c-0.1,0.1-0.2,0.2-0.4,0.3c-0.1,0-0.1,0.1-0.2,0.2c0,0,0,0,0,0c0.1,0.1,0.3,0.1,0.4,0.2c0.3,0.2,0.6,0.6,0.8,0.9
		C28.1,123.8,28.2,124,28.3,124.2z"/>
	<path class="st0" d="M21.6,121.3c1.1,0,2.1,0,3.1,0.1l0.9,0c0.3,0,0.5,0,0.7,0l0.1-0.1l0.3-0.3l0.6-0.6c0.4-0.4,0.8-0.8,1.2-1.2
		l0.1-0.1c0,0,0,0,0,0l0.2-0.4c0.1-0.2,0.1-0.5,0.2-0.6c0.1,0.1,0-0.1-0.1-0.2l-0.2-0.4l-0.4-0.8c-0.3-0.5-0.5-0.9-0.7-1.4
		c-0.1,0-0.3,0-0.4,0c-0.4,0-0.7-0.1-1-0.2c-0.4-0.2-0.8-0.4-1.1-0.6c0,0.1-0.1,0.3-0.1,0.4l-0.3,0.6c-0.1,0.1-0.1,0.1-0.2,0.2
		l-0.1,0.1l-0.2,0.2l-0.5,0.4c-0.3,0.2-0.6,0.5-0.9,0.7c-0.3,0.2-0.6,0.4-1,0.7c-0.2,0.1-0.3,0.2-0.5,0.3c-0.2,0.1-0.3,0.2-0.6,0.3
		c-0.1,0-0.2,0.1-0.3,0.1c0.2,0.2,0.4,0.5,0.6,0.8c0.3,0.5,0.5,0.9,0.6,1.5C21.5,120.9,21.6,121.1,21.6,121.3z"/>
	<path class="st0" d="M34.4,126c-0.2-0.2-0.4-0.4-0.5-0.7c-0.1-0.2-0.2-0.3-0.3-0.5l-0.1,0c-0.7,0.1-1.3,0-1.9,0
		c-1.1-0.1-2.2-0.2-3.4-0.5c0,0.2,0.1,0.4,0,0.6c0,0.3-0.1,0.6-0.3,0.8c2.4,0.6,4.8,1.1,7.3,1.5c-0.1-0.3-0.3-0.4-0.4-0.6
		C34.7,126.4,34.5,126.2,34.4,126z"/>
	<polygon class="st0" points="35,120.3 35,120.3 35,120.3 35,120.3 	"/>
	<path class="st0" d="M40,125.1C40,125.1,40,125.1,40,125.1c0.1-0.1,0.1-0.1,0.1-0.2c0.1-0.2,0.3-0.5,0.4-0.7l0.8-1.5l0.1-0.2l0-0.1
		v0c0-0.1,0-0.1,0-0.1l0-0.2c0-0.1,0-0.2,0-0.3c0-0.1,0-0.1,0-0.1c-0.1-0.1-0.4-0.3-0.6-0.5l-0.7-0.5c-0.3-0.3-0.7-0.6-1-0.8
		c-0.1,0.1-0.2,0.3-0.3,0.4c-0.1,0.1-0.1,0.1-0.3,0.3c-0.2,0.1-0.3,0.2-0.5,0.2c-0.3,0.1-0.6,0.1-0.8,0c-0.4-0.1-0.8-0.2-1.2-0.4
		c0,0.2,0,0.3,0,0.5l0,0.2c0,0,0,0,0,0c0,0,0,0,0,0l0,0c0,0,0-0.1,0-0.1l0-0.1l0,0.1c0,0.1,0,0.1,0,0.2c0,0.1,0,0.1,0,0.2
		c0,0.1,0,0.1,0,0.1l0,0l0,0.1c-0.3,0.6-0.6,1.1-0.9,1.6c-0.2,0.3-0.3,0.5-0.5,0.8c-0.1,0.1-0.2,0.3-0.3,0.4c0,0,0,0,0,0
		c0.1,0,0.2,0,0.3,0.1c0.3,0.1,0.6,0.3,0.8,0.6c0,0,0.1,0.1,0.1,0.1c1-0.1,1.9-0.1,2.9-0.2C38.9,125.1,39.5,125.2,40,125.1z"/>
	<path class="st0" d="M34.9,121.3C34.9,121.3,34.9,121.3,34.9,121.3c0,0.1,0,0.2,0,0.2c0,0,0,0,0,0.1l0-0.1
		C34.9,121.4,34.9,121.4,34.9,121.3z"/>
	<path class="st0" d="M81,122.5c-0.1-0.1-0.1-0.1-0.1-0.2C80.9,122.4,81,122.5,81,122.5z"/>
	<path class="st0" d="M76,122.3C76,122.3,76,122.3,76,122.3C76,122.4,76,122.4,76,122.3C76,122.3,76,122.3,76,122.3z"/>
	<path class="st0" d="M82,121.8C82,121.8,82,121.8,82,121.8C82,121.8,82,121.8,82,121.8C82,121.8,82,121.8,82,121.8z"/>
	<path class="st0" d="M80.9,122L80.9,122L80.9,122C81,122,81,122,80.9,122L80.9,122z"/>
	<path class="st0" d="M74,121.4c0.2,0,0.5,0,0.7,0l0.4,0l0.1,0l0.1,0l0.1,0c0,0,0.1,0,0.1,0c0,0,0.1,0,0.1,0.1
		c0-0.1,0.1-0.1,0.1-0.2c0.1-0.2,0.1-0.3,0.2-0.3c-1.4,0.1-2.9,0.2-4.3,0.2c0,0,0,0.1,0,0.1c0,0.1,0,0.2,0,0.4
		C72.3,121.5,73.1,121.5,74,121.4z"/>
	<polygon class="st0" points="80.8,122.2 80.8,122.2 80.8,122.2 	"/>
	<path class="st0" d="M70.2,123.1c0,0,0,0.1,0,0.1c0,0,0,0,0,0c0,0,0,0,0,0.1c0,0.1,0,0.1,0,0.2c0,0,0,0.1,0,0.1l0,0l0,0l0,0.1
		l0,0.1c-0.1,0.3-0.2,0.5-0.3,0.7l-0.2,0.3l0,0.1c0.2,0.1,0.4,0.2,0.5,0.3c0.1,0.2,0.2,0.4,0.2,0.6c0.8-0.6,1.5-1.1,2.3-1.5
		c0.4-0.2,0.8-0.4,1.2-0.6l0.3-0.2c0,0,0.1,0,0.1-0.1l0.1-0.1l0.1-0.3c0.1-0.2,0.2-0.4,0.2-0.5c0,0,0,0,0,0c0,0,0,0,0,0l-0.2,0
		c-0.2,0-0.5-0.1-0.7-0.1c-0.8-0.1-1.7-0.3-2.5-0.6c0,0.1-0.1,0.2-0.1,0.3c-0.2,0.4-0.5,0.6-0.8,0.7c-0.1,0-0.2,0.1-0.3,0.1
		C70.2,123,70.2,123,70.2,123.1z"/>
	<path class="st0" d="M70.2,123.2C70.3,123.2,70.3,123.2,70.2,123.2C70.3,123.2,70.3,123.2,70.2,123.2
		C70.3,123.2,70.2,123.2,70.2,123.2z"/>
	<path class="st0" d="M70.2,123.1C70.2,123.1,70.2,123.1,70.2,123.1C70.2,123.1,70.2,123.1,70.2,123.1
		C70.2,123.1,70.2,123.1,70.2,123.1z"/>
	<path class="st0" d="M70.3,123.2C70.3,123.2,70.3,123.2,70.3,123.2C70.3,123.2,70.3,123.2,70.3,123.2
		C70.3,123.2,70.3,123.2,70.3,123.2z"/>
	<path class="st0" d="M28.7,119.4C28.7,119.4,28.7,119.5,28.7,119.4C28.7,119.5,28.7,119.5,28.7,119.4L28.7,119.4
		C28.7,119.4,28.7,119.4,28.7,119.4z"/>
	<path class="st0" d="M82,121.7C82,121.7,82,121.7,82,121.7C82,121.7,82,121.7,82,121.7C82,121.7,82,121.7,82,121.7z"/>
	<path class="st0" d="M81.6,123.4L81.6,123.4c0.2,0.1,0.3,0.2,0.5,0.3c0.1,0.1,0.2,0.2,0.2,0.4c0.7-0.4,1.3-0.8,2-1.2
		c0.4-0.2,0.8-0.4,1.3-0.6c0.2-0.1,0.4-0.2,0.6-0.3c0,0,0,0,0,0c0,0,0,0,0,0c0,0,0.1-0.1,0.1-0.1c0.1-0.1,0.2-0.2,0.2-0.2
		c0.1-0.1,0,0,0.1-0.1c0-0.1,0-0.3-0.1-0.4c0-0.1-0.1-0.1-0.1-0.2c0,0,0,0,0,0l0,0l-0.1,0c-0.2-0.1-0.4-0.1-0.7-0.2
		c-0.5-0.2-1-0.4-1.5-0.6c-0.4,0-0.7,0.1-1.1,0.1c0,0.2,0,0.3-0.1,0.4c-0.2,0.4-0.5,0.6-0.7,0.7c-0.1,0-0.2,0.1-0.3,0.1
		c0,0,0,0.1,0,0.1c0,0,0,0.1,0,0.1c0,0,0,0,0,0c0,0,0,0,0,0.1c0,0.1,0,0.1,0,0.2c0,0,0,0.1,0,0.1l0,0l0,0l0,0.1l0,0.1
		c-0.1,0.3-0.2,0.5-0.3,0.7L81.6,123.4z"/>
	<path class="st0" d="M76.1,122.4C76.1,122.4,76.1,122.4,76.1,122.4C76.1,122.4,76.1,122.4,76.1,122.4
		C76.1,122.4,76.1,122.4,76.1,122.4z"/>
	<path class="st0" d="M76.1,122.4C76.1,122.4,76.1,122.4,76.1,122.4C76.1,122.4,76.1,122.4,76.1,122.4c0.1,0.2,0.1,0.2,0.1,0.3
		c0,0,0,0.1,0,0.1l0,0l0,0l0,0.1l0,0.1c-0.1,0.3-0.2,0.5-0.3,0.7l-0.2,0.3l0,0.1c0.2,0,0.3,0.1,0.5,0.3c0.2,0.2,0.3,0.4,0.3,0.7
		c0,0.2-0.1,0.3-0.2,0.4c0.9-0.2,1.9-0.3,2.8-0.5c0.7-0.1,1.4-0.3,2.1-0.4c0,0,0,0,0,0c-0.1-0.1-0.1-0.2-0.2-0.4c0,0,0-0.1,0-0.1
		c0,0,0,0,0,0c-0.1,0.1-0.2,0.1-0.3,0.1c-0.4,0.2-0.9,0.3-1.3,0.5c-0.9,0.3-1.8,0.5-2.8,0.6c0.8-0.6,1.6-1.1,2.4-1.5
		c0.4-0.2,0.8-0.4,1.2-0.6l0.3-0.2c0,0,0.1,0,0.1-0.1l0.1-0.1l0.1-0.3c0.1-0.2,0.2-0.4,0.2-0.5c0,0,0,0,0,0c0,0,0,0,0,0l-0.2,0
		c-0.2,0-0.5-0.1-0.7-0.1c-0.9-0.2-1.8-0.3-2.7-0.7c0.9-0.2,1.9-0.3,2.8-0.4c0.2,0,0.5,0,0.7,0l0.4,0l0.1,0l0.1,0l0.1,0
		c0,0,0.1,0,0.1,0c0,0,0.1,0,0.1,0.1c0-0.1,0.1-0.1,0.1-0.2c0-0.1,0.1-0.1,0.1-0.2c-1.5,0.2-3,0.3-4.6,0.4c0,0.2,0,0.4-0.1,0.5
		c-0.2,0.4-0.5,0.6-0.7,0.7c-0.1,0-0.2,0.1-0.3,0.1c0,0,0,0.1,0,0.1C76,122.3,76.1,122.4,76.1,122.4z"/>
	<path class="st0" d="M76.1,122.4C76.1,122.4,76.1,122.4,76.1,122.4C76.1,122.4,76.1,122.4,76.1,122.4
		C76.1,122.4,76.1,122.4,76.1,122.4z"/>
	<path class="st0" d="M82,121.7C82,121.7,82,121.8,82,121.7C82,121.8,82,121.8,82,121.7C82,121.7,82,121.7,82,121.7z"/>
	<polygon class="st0" points="63.9,123.6 63.9,123.6 63.9,123.6 	"/>
	<polygon class="st0" points="113.8,79.5 113.8,79.5 113.8,79.6 113.8,79.6 	"/>
	<line class="st0" x1="71.9" y1="68.5" x2="71.9" y2="68.5"/>
	<path class="st0" d="M45.6,59C45.6,59,45.6,59,45.6,59C45.6,59,45.6,59,45.6,59C45.6,59,45.6,59,45.6,59z"/>
	<path class="st0" d="M37.9,70.6C37.9,70.6,37.9,70.5,37.9,70.6C37.9,70.5,37.9,70.5,37.9,70.6L37.9,70.6z"/>
	<path class="st0" d="M16.6,71.6C16.6,71.6,16.6,71.6,16.6,71.6C16.6,71.6,16.6,71.6,16.6,71.6z"/>
	<polygon class="st0" points="29.9,119.4 29.9,119.4 29.9,119.4 	"/>
	<path class="st0" d="M36.1,121.2C36.1,121.2,36.1,121.2,36.1,121.2L36.1,121.2C36.1,121.2,36.1,121.2,36.1,121.2z"/>
	<path class="st0" d="M49.7,123.2C49.7,123.2,49.7,123.2,49.7,123.2L49.7,123.2C49.7,123.2,49.7,123.2,49.7,123.2z"/>
	<path class="st0" d="M50.2,121.9C50.2,121.9,50.2,121.9,50.2,121.9"/>
	<path class="st0" d="M63.9,123.6C63.9,123.6,63.9,123.6,63.9,123.6C63.9,123.6,63.9,123.6,63.9,123.6
		C63.9,123.6,63.9,123.6,63.9,123.6C63.9,123.6,63.9,123.6,63.9,123.6z"/>
	<path class="st0" d="M70.3,123.2C70.3,123.2,70.3,123.2,70.3,123.2C70.3,123.2,70.3,123.2,70.3,123.2
		C70.3,123.2,70.3,123.2,70.3,123.2z"/>
	<path class="st0" d="M76.1,122.4C76.1,122.4,76.1,122.4,76.1,122.4C76.1,122.4,76.1,122.4,76.1,122.4
		C76.1,122.4,76.1,122.4,76.1,122.4z"/>
	<path class="st0" d="M82,121.8C82,121.8,82,121.8,82,121.8C82,121.8,82,121.8,82,121.8C82,121.8,82,121.8,82,121.8z"/>
</g>
</svg>
