<?xml version="1.0" encoding="utf-8"?>
<!-- Generator: Adobe Illustrator 23.0.0, SVG Export Plug-In . SVG Version: 6.00 Build 0)  -->
<svg version="1.1" id="Layer_1" xmlns="http://www.w3.org/2000/svg" xmlns:xlink="http://www.w3.org/1999/xlink" x="0px" y="0px"
	 viewBox="0 0 128 128" style="enable-background:new 0 0 128 128;" xml:space="preserve">
<style type="text/css">
	.st0{fill:#2D2D2D;}
</style>
<g>
	<path class="st0" d="M64.6,115.8c-0.8,0.1-1.7,0-2.5-0.1c-0.8-0.1-1.6-0.3-2.5-0.6c-0.8-0.3-1.6-0.7-2.4-1.4l-0.2-0.2l0-0.3
		c-0.1-0.9,0-1.6,0.2-2.4c0.1-0.7,0.3-1.5,0.5-2.2c0.2-0.7,0.7-3.4,0.7-3.4c-1.2,0.1-1.5,0.1-2.8,0.2c-0.6,1.9-1.2,3.9-1.5,5.9
		l-0.3,1.6l-0.1,0.4c0,0.1,0,0.3-0.1,0.4c0,0.2,0,0.4,0.1,0.6c0.2,0.8,0.9,1.4,1.8,1.7c0.4,0.2,0.9,0.2,1.4,0.3l1.6,0.2
		c1.1,0.1,2.1,0.3,3.2,0.6c1,0.3,2.1,0.6,3.1,1c0.9,0.3,2.8,0.7,2.8,0.5c-0.2-0.7-0.3-1.4-0.5-2.1C67.1,116.2,65.4,115.8,64.6,115.8
		z"/>
	<path class="st0" d="M96.5,29.9c-0.6,1.4-1.3,2.8-2.2,4c-1.2,1.6-2.8,3-4.8,3.8c-1,0.4-2,0.6-3,0.7c-1,0.1-2,0-3-0.1
		C82,38.1,80.5,38,79,38.4c-0.2,0.2-0.4,0.4-0.6,0.6c-0.6,0.5-1.2,0.7-1.8,1c-1.2,0.4-2.5,0.7-3.7,0.9c-1.2,0.2-2.5,0.3-3.7,0.5
		c-4.9,0.4-9.7,1.8-14.2,4c-4.5,2.2-8.6,5.1-11.9,8.9c-3.3,3.7-5.8,8.2-7.3,12.9l0,0.1l0,0.1c-0.2,0.4-0.5,0.6-0.7,0.8
		c-0.2,0.2-0.4,0.4-0.7,0.6l-1.3,1.2c-0.9,0.8-1.8,1.6-2.6,2.4c-1.7,1.6-3.4,3.3-5,5c-1.6,1.8-3,3.6-4.2,5.6
		c-0.9,1.4-1.6,2.9-2.1,4.5c0.9-0.4,1.7-0.8,2.6-1.2c0.7-0.4,1.4-0.8,2.1-1.2c0.7-0.4,1.3-0.9,1.9-1.4l5.2-4.3L27.2,85
		c-1,1.5-1.9,3.3-2.6,5c-0.8,1.7-1.4,3.5-2,5.3c-0.5,1.8-0.9,3.7-1,5.5c-0.1,0.9-0.1,1.9,0,2.8c0,0.7,0.1,1.3,0.2,1.9
		c0.6-0.1,1.2-0.2,1.7-0.3c0.9-0.2,1.8-0.4,2.6-0.7c1.7-0.5,3.5-1.1,5.2-1.7c3.5-1.2,6.9-2.5,10.3-4c3.4-1.4,6.7-3,9.9-4.8
		c2.9-1.6,8.2-5.6,8.2-5.6c2.5-2.6,5.1-5,7.7-7.5c1.3-1.3,2.6-2.5,3.9-3.6c1.3-1.2,2.7-2.3,3.9-3.6c2.5-2.5,4.6-5.5,6.3-8.6
		c0.8-1.6,1.6-3.1,2.3-4.7c0.6-1.6,1-3.2,1.1-4.9c-0.1-0.6-0.1-1.2-0.4-1.8c-0.2-0.6-0.5-1.1-0.8-1.7c-0.7-1-1.8-1.9-2.9-2.5
		c-1.2-0.6-2.5-1.1-3.9-1.3c-1.4-0.2-2.8-0.3-4.2-0.3c-0.1,0-0.1,0-0.1-0.1c0,0,0-0.1,0.1-0.1c1.4-0.4,2.9-0.7,4.4-0.7
		c1.5,0,3,0.3,4.5,0.9c1.4,0.6,2.8,1.5,3.8,2.8c0.5,0.7,0.9,1.4,1.2,2.2c0.3,0.8,0.4,1.6,0.5,2.5l0,0l0,0.1c-0.2,2-0.8,3.8-1.5,5.5
		c-0.8,1.7-1.7,3.3-2.8,4.8c-1.1,1.5-2.2,2.9-3.4,4.2c-1.2,1.4-2.3,2.7-3.4,4.1c-1.1,1.4-2.2,2.8-3.4,4.2c-1.2,1.4-2.4,2.6-3.8,3.8
		c-2.5,2.3-10.7,8.4-12,9.4c-1.5,1.1-3.1,2.1-4.6,3.1c-3.2,1.9-6.5,3.6-9.8,5.2c-3.3,1.6-6.8,3.1-10.2,4.3c-1.7,0.6-3.5,1.3-5.3,1.8
		c-0.9,0.3-1.8,0.5-2.7,0.8c-0.5,0.1-0.9,0.2-1.4,0.3c0,0-0.1,0.1-0.1,0.1c-9.3,6.7-14,11.4-17.9,16.8c3-1.4,4.4-1.9,4.5-2l4.7-1.8
		l-3.6,3.5c0,0-1.7,1.6-3.6,4.1c1.8-1.3,3.5-2.4,4.8-3.2c1.3-0.8,2.5-1.6,2.8-2l3.3-4l-1.6,4.9c-0.4,1.1-0.6,2.1-0.9,2.9
		c1.9-1.7,4-3.5,4.5-4c0.3-0.3,0.7-0.7,1.2-1.3c2.3-2.6,8.3-9.9,14.6-11.4c1.8-0.5,4.1-1.5,6.3-2.5c3-1.3,6-2.6,8.3-3
		c4.3-0.8,7.1-1.1,10.4-1.2c4.7-2.8,8.2-3,10.4-3.1c5.6-2.9,9.5-6.4,12-8.7c0.4-0.4,0.9-0.8,1.2-1.1C100,75.1,100.7,67,101.3,59.8
		c0.1-1.5,0.2-2.9,0.5-4.3c1.2-7.5-3.5-20.8-5.1-25.2C96.6,30.2,96.6,30,96.5,29.9z"/>
	<path class="st0" d="M70.3,102.1c-0.9,0-1.4,0.1-2.8,0.3c-0.4,0.1-0.7,0.5-0.7,0.9l0.8,6.3c0.2,1.5,0.4,3,0.6,4.4
		c0.2,1.4,0.5,3,0.9,4.2l0.1,0.3l-0.1,0.3c-0.1,0.6-0.2,1.2-0.3,1.8c0,0.3-0.1,0.6-0.1,0.8c0,0,0,0,0,0.1l0.2,0.1l0.9,0.2l1.8,0.3
		c2.4,0.4,4.7,0.8,7.1,1.1c4.7,0.7,9.6,1,14.3,0.6c0.4,0,0.8-0.1,1.2-0.1l0,0c-0.6-0.1-1.2-0.2-1.9-0.4c-0.3-0.1-0.7-0.2-1.1-0.5
		l-0.2-0.2c-0.1-0.1-0.1-0.1-0.2-0.2c-0.1-0.2-0.2-0.4-0.2-0.6c0-0.5,0.2-0.7,0.4-0.9c0.2-0.2,0.4-0.3,0.5-0.5c0,0,0,0,0,0
		c-0.5,0-1.1,0.1-1.7,0.1c-1.2,0.1-2.3,0.3-3.6,0.4c-0.6,0.1-1.3,0.1-1.9,0c-0.3,0-0.7-0.1-1-0.1l-0.9-0.1c-1.2-0.2-2.3-0.4-3.5-0.5
		c-1.2-0.1-2.3-0.2-3.5-0.2l-1.3,0c-0.8,0-1.1-1.2-0.3-1.5l0.6-0.3c-0.4-0.1-0.8-0.2-1.1-0.5c-0.4-0.3-0.6-0.8-0.7-1
		c-0.4-1.2-0.7-2.2-0.9-3.4c-0.5-2.2-0.8-4.5-1-6.7C70.8,105.5,70.2,102.5,70.3,102.1z"/>
	<path class="st0" d="M123.2,12.7c-0.3-0.3-0.7-0.4-1.2-0.5c-0.1,0-0.2,0-0.3,0l-0.5,0c-0.3,0-0.6-0.1-0.9-0.1
		c-0.6-0.1-1.2-0.2-1.8-0.4l-1.7-0.5l-0.8-0.2c-0.3-0.1-0.6-0.1-0.7-0.2l-0.3-0.1l-0.1-0.1c-0.8-0.7-1.8-1.3-2.7-1.8
		c-0.5-0.3-1-0.5-1.5-0.8l-0.8-0.4l-0.4-0.2l-0.2-0.1l-0.1,0c0,0,0,0,0,0c0,0.1,0,0.3,0,0.4l0,0.5c0,0.4,0,0.7-0.1,1.1
		c-0.1,0.7-0.1,1.4-0.3,2.1c-0.1,0.3-0.1,0.6-0.2,0.9c1.1-0.1,2.2,0.1,3.2,0.3c0.6,0.1,1.2,0.3,1.8,0.5l0.4,0.2
		c0.1,0,0.3,0.1,0.4,0.1c0.3,0.1,0.6,0.1,0.8,0.2c1.2,0.1,2.4,0.2,3.5,0.1c1.2,0,2.4-0.1,3.6-0.1l0,0c0,0,0,0,0.1,0
		c0.2-0.1,0.4-0.1,0.6-0.2c0.2-0.1,0.4-0.2,0.5-0.2c0,0,0,0,0-0.1C123.4,12.9,123.3,12.8,123.2,12.7z"/>
	<path class="st0" d="M108.7,8.1l0.2-0.5c0-0.2,0.1-0.3,0.2-0.5c-0.6-1.1-1.2-2.1-2-3.1c-0.8-1-1.6-1.9-2.5-2.7
		c-0.3-0.2-0.5-0.4-0.8-0.6c-0.7,0-1.4-0.1-2-0.1l-2.1-0.2c-0.7-0.1-1.3-0.1-1.9-0.2c-0.6-0.1-2.8-0.4-4.8,0
		c-0.8,0.2-1.6,0.7-2.3,1.2c-0.7,0.5-1.4,0.9-2.1,1.4c-0.6,0.5-1.2,1-1.7,1.6l-0.1,0.1l0,0c-0.4,0.4-0.9,0.7-1.2,1
		c-0.4,0.3-0.7,0.6-1.1,0.9c-0.3,0.3-0.6,0.7-0.9,1.2C83.3,8,83,8.4,82.8,8.9c-0.2,0.6-0.4,1.3-0.6,1.9c-0.1,0.5-0.3,1.1-0.4,1.6
		c0.2-0.2,0.3-0.3,0.5-0.5c0.4-0.4,0.9-0.8,1.4-1c0.5-0.3,1-0.6,1.4-1c0.4-0.4,0.6-1,1-1.5c0.4-0.5,0.9-0.7,1.4-1
		c0.3-0.1,0.6-0.2,1-0.3c0,0,0,0,0,0c1-0.9,2.1-1.7,3.2-2.3C93,4,94.6,3.2,96.3,3c0.8-0.1,1.7-0.1,2.5,0.1c0.7,0.1,1.3,0.3,1.9,0.5
		c0.5-0.3,1.1-0.4,1.8-0.3c1,0.3,1.7,1.2,1.6,2.1c0.4,0.4,0.9,0.8,1.2,1.3c0,0.1,0,0.2,0,0.2c0,0-0.1,0-0.1,0l0,0
		c-0.5-0.2-0.9-0.3-1.4-0.5c-0.5,0.5-1.3,0.8-2.1,0.5c-0.7-0.2-1.2-0.7-1.5-1.3c-1.3-0.2-2.5-0.3-3.7-0.4c-1.4-0.2-3-0.3-4.4,0.3
		c-0.7,0.3-1.3,0.7-1.8,1.3c-0.5,0.5-0.9,1.1-1.2,1.7c-0.1,0.5,0,1,0,1.5c0,0.6,0,1.2,0,1.9c-0.1,0.7-0.2,1.3-0.4,2
		c-0.2,0.5-0.4,1-0.6,1.5l0,0.4l0,0.6c0,0.4,0,0.9,0.1,1.3c0.1,0.9,0.1,1.8,0.2,2.7c0,0.5,0.1,0.9,0.2,1.4c0.1,0.5,0.1,0.9,0.2,1.3
		c0.2,0.9,0.4,1.8,0.9,2.6l0,0c0,0.1,0,0.2,0,0.2c0,0-0.1,0-0.1,0c-0.9-0.4-1.6-1.3-2.1-2.2c-0.5-0.9-0.9-1.8-1.2-2.8
		c-0.3-1-0.6-1.9-0.7-2.9c-0.1-0.5-0.1-1-0.2-1.5c0-0.3,0-0.5,0-0.8c0-0.3,0-0.6,0.1-1l0.1-0.3l0.1-0.2c0.6-0.9,1-1.8,1.2-2.8
		c0.1-0.5,0.2-1,0.3-1.6c0-0.1,0-0.1,0-0.2c0,0,0,0,0,0c-0.5,0.2-1.1,0.3-1.6,0.6c-0.4,0.3-0.8,0.8-1,1.3c-0.2,0.5-0.4,1-0.7,1.5
		c-0.2,0.5-0.5,0.9-0.7,1.3c-0.5,0.8-1,1.4-1.7,2.3c0,0.5,0,0.9,0,1.4c0,1.2,0.1,2.5,0.1,3.7c0.1,1.3,0.2,2.6,0.2,3.9
		c0.1,2.6-0.1,5.2-0.6,7.8c-0.3,1.2-0.6,2.5-1.2,3.6c0.3-0.1,0.5-0.2,0.8-0.3c1-0.3,2-0.4,3-0.4c1.9-0.1,3.7,0,5.4-0.4
		c1.7-0.4,3.2-1.5,4.5-2.8c0.8-0.8,1.8-2.3,2.4-3.2c0.3-0.4,0.3-0.9,0.2-1.3c-1.7-6.6,1.3-9,2.5-9.9l0.2-0.1
		c3.2-1.9,5.7-3.2,6.8-3.8l0.3-0.4c0.4-0.5,0.7-1,1-1.6c0.3-0.6,0.5-1.2,0.8-1.8c0.2-0.6,0.4-1.3,0.6-1.9L108.7,8.1z"/>
	<path class="st0" d="M113.4,13.6c-0.5-0.3-1.1-0.5-1.6-0.7c-1-0.3-2.1-0.6-3.1-0.7c-0.1,0.4-0.2,0.8-0.4,1.1
		c-0.1,0.2-0.1,0.4-0.2,0.5c1.8-0.2,3.7-0.1,5.6,0c0.1,0,0.2,0,0.3,0c0,0-0.1,0-0.1,0L113.4,13.6z"/>
	<path class="st0" d="M92.4,121.6C92.3,121.6,92.3,121.6,92.4,121.6C92.4,121.6,92.4,121.6,92.4,121.6z"/>
	<path class="st0" d="M96,123.4C96,123.4,96,123.4,96,123.4C96,123.4,96,123.4,96,123.4z"/>
	<path class="st0" d="M92.5,119.8C92.5,119.8,92.5,119.8,92.5,119.8C92.5,119.8,92.5,119.8,92.5,119.8z"/>
</g>
</svg>
