<?xml version="1.0" encoding="utf-8"?>
<!-- Generator: Adobe Illustrator 24.1.2, SVG Export Plug-In . SVG Version: 6.00 Build 0)  -->
<svg version="1.1" id="Layer_1" xmlns="http://www.w3.org/2000/svg" xmlns:xlink="http://www.w3.org/1999/xlink" x="0px" y="0px"
	 viewBox="0 0 128 128" style="enable-background:new 0 0 128 128;" xml:space="preserve">
<style type="text/css">
	.st0{fill:#2D2D2D;}
</style>
<g>
	<path class="st0" d="M56.76,85.03l1.32-1.91h-2.91l1.3,1.22C56.66,84.52,56.76,84.77,56.76,85.03z"/>
	<path class="st0" d="M81.88,103.09h-6.31l5.19-7.49c-0.18-0.07-0.34-0.19-0.45-0.37l-6.19-9.55H80l-7.32-10.82h4.93l-6.29-8.95
		h3.82l-5.76-8.19l-5.78,8.19h3.82l-6.29,8.95h4.95l-7.45,10.82h6.07l-8.76,12.44h7.21L52.9,110.67h24.61L81.88,103.09z"/>
	<path class="st0" d="M77.65,87.6l1.69,2.6c0.04-0.15,0.1-0.3,0.19-0.44l1.49-2.2c-0.09,0.02-0.18,0.04-0.28,0.04H77.65z"/>
	<polygon class="st0" points="30.93,82.26 35.77,88.85 40.48,83.11 35.33,83.11 36.04,82.26 	"/>
	<path class="st0" d="M63.02,112.59H48.86l10.25-12.54h-6.86l8.76-12.44h-6.02l1.16-1.68c-0.33,0.13-0.72,0.07-0.99-0.19l-4.83-4.54
		h5.56l-6.49-7.84h4.15l-5.9-8.16l-5.92,8.16h4.14l-6.46,7.84h5.14l-7.6,9.25l0.17,0.23c0,0,0,0,0,0h6.02l-3.18,3.88l1.32,1.8h-2.79
		l-2.82,3.44l0.73,0.93c0.02,0,0.03,0,0.05,0c1.68,0.04,3.56,0.1,3.56,0.1l2.11,0.06l-3.03,3.27l5.67,7.23H34.09l-3.22,4.29h34.18
		L63.02,112.59z"/>
	<path class="st0" d="M76.01,24.92c-2.04-1.42-4.08-2.84-6.08-4.33c-1.72-1.25-3.4-2.56-5.09-3.85c-0.91,1.85-1.82,3.7-2.75,5.54
		c-1.09,2.17-2.17,4.35-3.29,6.51c-2.21,4.33-4.45,8.64-6.6,13l-0.49,0.99l-0.11-1.09c-0.32-3.1-0.67-6.19-1.09-9.28
		c-0.36-2.68-0.79-5.35-1.19-8.03c-0.94,0.84-1.89,1.66-2.88,2.44c-1.29,1.03-2.6,2.02-3.93,3c-1.32,0.98-2.66,1.94-4.02,2.87
		c-0.68,0.47-1.36,0.93-2.06,1.37c-0.33,0.21-0.67,0.43-1,0.64c-0.56,0.73-1.12,1.46-1.68,2.18c-3.08,3.97-6.23,7.88-9.51,11.69
		l8.11,11.29h-4.51l7.31,10.13H29.3l7.75,11.02l4.74-5.75h-3.84l9.68-13.35l9.65,13.35h-3.83l5.47,6.6l3.5-5.09h-5l6.29-8.95H59.9
		l9.48-13.44l9.45,13.44h-3.82l6.29,8.95h-5.01l5.66,8.36c0.14,0.19,0.22,0.4,0.27,0.62l2.3-3.4h-4.33l5.48-7.97h-3.12l8.34-14.43
		l3.2,5.56l5.82-7.59h-4.61l6.89-9.53c-1.77-1.91-3.52-3.84-5.26-5.77l-5.37-6.04c-1.05-1.2-2.09-2.41-3.14-3.61
		c-2.11-1.25-4.18-2.57-6.23-3.91C80.11,27.73,78.06,26.33,76.01,24.92z"/>
	<polygon class="st0" points="36,96.35 32.97,96.35 34.45,98.24 	"/>
	<path class="st0" d="M81.83,94.05L83.25,92h-2.54c-0.08,0-0.16-0.02-0.23-0.03L81.83,94.05z"/>
	<polygon class="st0" points="38.52,92.59 38.78,92.96 39.08,92.59 	"/>
	<polygon class="st0" points="40.81,109.45 29.02,94.43 37.49,94.43 27.14,80.34 34.22,80.34 25.6,68.09 31.4,68.09 24.08,57.95 
		28.6,57.95 21.67,48.3 14.72,57.95 19.24,57.95 11.92,68.09 17.72,68.09 9.1,80.34 16.15,80.34 6.04,94.43 14.3,94.43 2.5,109.45 	
		"/>
	<path class="st0" d="M14.57,54.88l7.11-9.86l2.39,3.33c2.71-4.21,5.54-8.33,8.45-12.39c3.03-4.23,6.09-8.44,9.37-12.48
		c0.37-0.46,0.74-0.92,1.12-1.38c-1.25-1.18-2.46-2.39-3.65-3.61c-0.64,1.28-1.31,2.54-2.02,3.78c-0.39,0.69-0.8,1.38-1.21,2.05
		c-0.4,0.69-0.83,1.35-1.25,2.03l-0.5,0.81l-0.61-0.77c-0.35-0.44-0.67-0.89-1.01-1.34c-0.34-0.44-0.65-0.91-0.98-1.36
		c-0.51-0.72-1.02-1.43-1.52-2.14c-0.66,0.86-1.34,1.71-2.01,2.57c-0.83,1.05-1.61,2.14-2.34,3.27c-0.72,1.13-1.36,2.32-2.04,3.48
		c-0.67,1.16-1.43,2.27-2.22,3.35l-0.81,1.12l-0.18-1.35c-0.14-1.06-0.26-2.12-0.35-3.18c-0.08-0.95-0.14-1.91-0.15-2.87
		c-2.5,3.63-4.85,7.38-7.38,11c-3.34,4.79-6.66,9.59-10.23,14.22l-0.78,1.01c1.43,0.06,2.85,0.1,4.28,0.17
		C8.89,54.45,11.73,54.64,14.57,54.88z"/>
	<path class="st0" d="M97.65,42.06c1.57,2.05,3.14,4.1,4.68,6.17l3.97-5.49l10.96,15.2h-4.67l1.14,1.58
		c4.15-0.77,8.32-1.36,12.5-1.88l-1.02-1.39c-0.73-1-1.43-2.03-2.15-3.04c-1.41-2.04-2.79-4.11-4.17-6.17
		c-2.8-4.1-5.26-8.44-8.1-12.51c-0.21-0.31-0.44-0.61-0.66-0.92c0.08,0.34,0.16,0.69,0.24,1.03c0.15,0.67,0.29,1.35,0.42,2.03
		c0.25,1.35,0.5,2.71,0.69,4.07l0.28,1.95l-1.41-1.42c-1.55-1.56-2.97-3.24-4.43-4.89c-1.4-1.59-2.66-3.32-4.06-4.91
		c-0.28,0.34-0.56,0.68-0.83,1.03c-0.31,0.42-0.61,0.85-0.9,1.29c-0.58,0.87-1.14,1.76-1.79,2.58l-0.57,0.72l-0.39-0.86
		c-0.23-0.5-0.42-1.01-0.62-1.53c-0.2-0.51-0.38-1.03-0.57-1.55c-0.25-0.75-0.5-1.51-0.7-2.29c-0.3,0.3-0.59,0.61-0.9,0.91
		l-2.81,2.76c0.3,0.38,0.61,0.76,0.91,1.14L97.65,42.06z"/>
	<polygon class="st0" points="104.49,126.01 104.5,126.01 108.09,126.01 108.09,111.56 104.77,111.56 106.99,115.41 104.49,115.41 	
		"/>
	<path class="st0" d="M39.19,18.32c0,0-1.04-1.06-1.56-1.6c-0.95-0.98-1.87-1.99-2.79-2.99c-0.69-0.74-1.36-1.49-2.03-2.24
		c-1.51,2.08-3.08,4.11-4.72,6.1c-1.86,2.26-3.71,4.52-5.43,6.88c-0.8,1.07-2.34,3.26-2.34,3.26l12.54-14.55L39.19,18.32z"/>
	<path class="st0" d="M109.75,33.09c0.03,0.05-2.24-3.05-3.43-4.52c-1.34-1.66-2.67-3.32-3.93-5.03c-0.68,0.76-1.38,1.52-2.07,2.28
		c-0.93,1.01-1.88,2.01-2.83,3.01c-0.56,0.58-1.69,1.72-1.69,1.72l6.52-5.17C102.32,25.38,109.72,33.04,109.75,33.09z"/>
	<path class="st0" d="M113.96,93.54h8.48L112,79.04h7.29l-8.9-12.6h5.99l-7.56-10.42h4.69l-7.21-10l-7.23,10h4.75l-8.03,10.47
		l6.23-0.06l-3.71,6.4l0.9,1.57h-3.12l5.48,7.97h-4.33l6.51,9.64h-5.24l7.68,11.09h-6.31l3.78,6.55c0.01,0,0.02,0,0.03,0h22.43
		L113.96,93.54z"/>
	<path class="st0" d="M103.53,113.45c0.04,0,0.08,0.01,0.12,0.01l-7.09-12.29h5.97l-7.68-11.09h5.29l-6.51-9.64h4.29l-5.48-7.97
		h3.45l-4.99-8.67l-5.01,8.67h3.44l-5.48,7.97h4.29l-6.51,9.64h5.29l-7.68,11.09h5.97l-7.1,12.32h25.18
		C103.36,113.47,103.44,113.45,103.53,113.45z"/>
	<path class="st0" d="M61.04,2.93l26.41,28.93c0,0-4.3-4.98-6.42-7.5c-3.5-4.1-6.91-8.27-10.3-12.45l-5.1-6.27L61.12,0
		c-3.07,3.83-6.16,7.64-9.09,11.57c-3.15,4.14-6.03,8.49-8.99,12.77c-1.87,2.74-5.84,8.05-5.84,8.05L61.04,2.93z"/>
	<polygon class="st0" points="98.66,68.38 95.75,68.41 97.19,70.91 	"/>
	<path class="st0" d="M127.91,126.88c-5.96-0.34-11.93-0.56-17.89-0.7c0,0-12.39-0.2-17.98-0.23v-10.54h-2.3v10.53
		c-2.96,0-10.17-0.01-18.95-0.02v-13.33h-2.82v13.33c-6.01-0.01-12.58-0.02-18.92-0.02v-8.31h-2.82v8.31
		c-9.19-0.01-17.63-0.02-22.83-0.03v-14.37c0-0.04,0.01-0.08,0.01-0.12h-3.47c0.01,0.04,0.01,0.08,0.01,0.12v14.36
		c-1.22,0-1.9,0-1.9,0c-0.65,0.01-1.31,0.02-1.96,0.03c-5.33,0.11-10.65,0.65-15.98,0.99c-0.05,0-0.09,0.04-0.09,0.09
		c0,0.05,0.04,0.1,0.09,0.1c5.33,0.34,17.94,0.86,17.94,0.86s11.77-0.11,14.02-0.16l12.26,0.16h6.66h15.09h6.65
		c0,0,17.92,0.09,23.25,0.06c2.21-0.02,4.42-0.05,6.63-0.08v0.01c0,0,19.36-0.52,25.33-0.86c0.05,0,0.09-0.04,0.09-0.09
		C128,126.92,127.96,126.88,127.91,126.88z"/>
</g>
</svg>
