<?xml version="1.0" encoding="utf-8"?>
<!-- Generator: Adobe Illustrator 23.0.0, SVG Export Plug-In . SVG Version: 6.00 Build 0)  -->
<svg version="1.1" id="Layer_1" xmlns="http://www.w3.org/2000/svg" xmlns:xlink="http://www.w3.org/1999/xlink" x="0px" y="0px"
	 viewBox="0 0 128 128" 
width="128" height="128"
style="enable-background:new 0 0 128 128;" xml:space="preserve">
<style type="text/css">
	.st0{fill:#2D2D2D;}
</style>
<g>
	<path class="st0" d="M33.7,79.2c-0.2,0.3-0.4,0.6-0.6,0.8l-0.2,0.3l-0.3,0.1c-1.3,0.4-5.4,3.4-7.3,6.2c-0.6,1-2.1,2-4,3.2l7.5,27.2
		l1.8-0.8l1.4,3.4l2.9-1.5c-1.3-1.5-3.6-4.4-4.5-8.1c-0.2-0.9-0.7-2.3-1.3-4c-2.8-8.3-4.7-14.9-2.9-17.1c1.1-1.4,3.7-2.9,6.4-4.5
		c2.3-1.4,4.9-3,5.7-3.9c-0.7-0.4-1.7-1.1-2.8-1.8C34.9,78.5,34.1,78.6,33.7,79.2z"/>
	<path class="st0" d="M81,81.3c-0.1,0.1-0.2,0.2-0.3,0.3c-0.4,0.4-0.9,0.7-1.3,1c0,0,0,0,0,0c-0.4,0.6-1.9,5.1-3.6,10c0,0,0,0,0,0
		c0.2,3.7,0.2,17-0.5,23.8l0.7-0.3l1.3,3.6l3.1-2c-0.6-1.7-2-6-2.2-8.6c-0.2-3.2,0.7-11.2,0.7-11.6l0-0.1c1.6-6.3,3.6-13.8,4.4-16.1
		C82.6,81.3,81.8,81.3,81,81.3z"/>
	<polygon class="st0" points="33.4,122.6 39.3,122.6 36.6,119.8 33,121.6 	"/>
	<polygon class="st0" points="69.1,128 75,128 72.2,125.1 68.7,127 	"/>
	<polygon class="st0" points="78.6,122.6 84.4,122.6 81.5,119.6 78.2,121.7 	"/>
	<polygon class="st0" points="18.7,128 24.6,128 21.6,124.9 18.2,126.7 	"/>
	<path class="st0" d="M97.7,19.1c0.3-0.1,0.6-0.1,0.8-0.3c0.3-0.1,0.5-0.3,0.8-0.4c0.2-0.1,0.4-0.3,0.5-0.5c-0.2-0.3-0.4-0.7-0.6-1
		c-0.3-0.5-0.7-0.9-1-1.3c-0.4-0.4-0.8-0.8-1.2-1.2c-0.1-0.1-0.2-0.2-0.3-0.3c0,0.2,0,0.3-0.1,0.5c-0.1,0.3-0.2,0.7-0.6,1
		c-0.3,0.3-0.9,0.4-1.2,0.3l-0.1,0l-0.1-0.1c-1.3-0.7-2.6-1.7-3.6-2.8c-1.1-1.1-1.9-2.4-2.6-3.8c-0.7-1.4-1.2-2.8-1.5-4.3
		c-0.1-0.7-0.2-1.3-0.3-2c-0.1,1.1-0.1,2.3,0.1,3.4c0.3,2,1,3.9,1.9,5.5c0.5,0.8,1,1.6,1.7,2.3c0.6,0.7,1.4,1.3,2.2,1.9
		c0.4,0.3,0.8,0.5,1.2,0.8c0.4,0.2,0.9,0.4,1.3,0.7c0.5,0.2,0.9,0.5,1.3,0.8c0.3,0.2,0.6,0.4,0.9,0.8C97.3,19.2,97.5,19.2,97.7,19.1
		z"/>
	<path class="st0" d="M0.8,56.7c-0.3,1.4-0.7,2.9-0.8,4.4c-0.1,0.4,0,0.7,0,1.1l0,0.6c0,0.2,0.1,0.4,0.1,0.6
		c0.1,0.7,0.4,1.5,0.6,2.1l0,0l0,0.1c0.1,0.8,0.3,1.6,0.5,2.4c0.2,0.8,0.5,1.6,0.7,2.4c0.1,0.6,0.3,1.3,0.3,1.9
		c0.5-0.8,1-1.7,1.4-2.6c0.4-0.9,0.8-1.9,1.1-3c0.2-0.7,0.3-1.3,0.4-2c-2.1-4-3.1-8-3.6-11.1C1.3,54.7,1,55.7,0.8,56.7z"/>
	<path class="st0" d="M127.9,44.6l-0.2,0.2c-0.1,0.1-0.3,0.2-0.5,0.3c0.2-0.1,0.3-0.2,0.5-0.3L127.9,44.6L127.9,44.6
		C128,44.5,128,44.5,127.9,44.6C128,44.5,128,44.5,127.9,44.6L127.9,44.6z"/>
	<path class="st0" d="M128,44.4C128,44.4,128,44.4,128,44.4C128,44.4,128,44.4,128,44.4C128,44.4,128,44.4,128,44.4
		C128,44.4,128,44.4,128,44.4z"/>
	<path class="st0" d="M127.9,44.3C127.9,44.3,127.9,44.3,127.9,44.3C127.9,44.3,127.9,44.3,127.9,44.3z"/>
	<path class="st0" d="M125.6,44.4c0.7-0.8,0.3-1.6,0.8-1.8l0,0c-0.3-0.3-0.6-0.7-0.9-1c-1-1.2-1.9-2.4-2.9-3.7
		c-0.9-1.3-1.8-2.5-2.7-3.8l-0.1-0.3c0,0,0-0.1,0-0.1c0,0,0-0.1-0.1-0.2c0-0.1-0.1-0.2-0.2-0.3c-0.1-0.2-0.2-0.5-0.4-0.7
		c-0.3-0.5-0.6-0.9-0.9-1.4c-0.6-0.9-1.3-1.8-2-2.7c-1.3-1.7-3.4-2.8-5.5-3.2c-1.1-0.2-2.1-0.3-3.2-0.3l-1.7,0c-0.1,0-0.3,0-0.4,0
		c-0.1,0-0.4,0-0.6-0.1c-0.4-0.1-0.8-0.3-1.1-0.6c-0.1-0.2-0.3-0.3-0.4-0.5l-0.2-0.4c-0.1-0.1-0.1-0.3-0.2-0.4
		c-0.3-0.4-0.7-1.1-1-1.6c-0.3-0.5-0.7-0.9-1-1.4c-0.2-0.2-0.3-0.4-0.5-0.6c-0.1-0.1-0.1-0.1-0.2-0.2c-0.1,0.1-0.3,0.2-0.5,0.3
		c-0.3,0.2-0.7,0.3-1.1,0.4c-0.4,0.1-0.8,0.1-1.1,0.1c-0.2,0-0.4,0-0.6,0c0.1,0.5,0.1,1,0.2,1.5c0.3,0.2,0.6,0.5,0.9,0.8
		c0.5,0.5,0.9,1.1,1.3,1.7c0.4,0.6,0.7,1.1,1,1.6c0.1,0.1,0.2,0.2,0.2,0.3c0.1,0.1,0.2,0.2,0.3,0.3c0.2,0.2,0.5,0.4,0.7,0.5
		c1,0.7,2.2,1.2,3.4,1.8c-1.3-0.2-2.6-0.5-3.8-1c-0.3-0.1-0.6-0.3-0.9-0.5c-0.2-0.1-0.3-0.2-0.4-0.3c-0.1-0.1-0.3-0.3-0.4-0.4
		c-0.5-0.5-0.9-1.1-1.3-1.5c-0.8-1-1.6-1.8-2.6-2.2c-1-0.5-2.1-0.6-3.3-0.5l-0.7,0.1l0.1,0.3l0.3,0.9c0.4,1.2,0.8,2.5,1.2,3.6
		c0.2,0.5,0.5,1,0.9,1.3c0.2,0.2,0.4,0.4,0.6,0.5l0.8,0.5c0.5,0.3,1.1,0.7,1.6,1c0.3,0.2,0.5,0.3,0.8,0.5c0.3,0.1,0.6,0.3,0.8,0.4
		l0.2,0.1l0,0c0.2,0.2,0.3,0.4,0.4,0.6c0.1,0.2,0.2,0.4,0.2,0.6c0.1,0.4,0.2,0.8,0.3,1.2c-0.2-0.4-0.3-0.7-0.5-1
		c-0.1-0.2-0.2-0.3-0.3-0.5c-0.1-0.1-0.2-0.2-0.3-0.3c-0.2,0-0.4,0-0.5-0.1c0.2,0.7,0.3,1.3,0.3,2c0,0.8,0,1.5-0.3,2.3
		c-0.2,0.7-0.7,1.4-1,2.1c-0.3,0.7-0.4,1.4-0.5,2.2c-0.1,0.8-0.3,1.6-0.8,2.3c-0.2,0.4-0.5,0.7-0.8,1.1c-0.4,0.4-0.6,0.5-1,0.7
		c-0.6,0.4-1.4,0.7-2.1,0.9c-0.8,0.2-1.6,0.4-2.4,0.1c0,0,0,0,0,0c0,0,0,0,0,0c-1-0.1-2-0.3-2.9-0.5c-1-0.2-1.9-0.3-2.9-0.4
		c-1-0.1-1.9-0.1-2.9-0.2c-1,0-1.9,0-2.9,0.2l-0.1,0l-0.1,0c-2.8-0.5-5.7-0.9-8.5-1.5c-2.8-0.5-5.7-1.2-8.5-1.8
		c-2.8-0.6-5.6-1.2-8.5-1.7c-2.8-0.5-5.7-0.9-8.6-1.1c-2.9-0.2-5.7-0.3-8.6-0.3c-2.8,0-5.7,0-8.5,0.4c-2.7,0.4-5.4,1.4-8.1,2.3
		c-1.3,0.5-2.7,1-4,1.5c-0.7,0.3-1.3,0.5-2,0.8c-0.6,0.3-1.3,0.6-1.8,0.9l-0.1,0.1l0,0c-0.8,0.4-1.7,0.9-2.6,1.4l-2.6,1.5l-1.3,0.7
		c-0.4,0.2-0.7,0.6-1,0.9c-0.3,0.4-1,2.9-0.9,3.4c0.6,5.2,3.8,14.4,12,20.1l0.4,0.3l0,0.5c0,0.5,0.1,1.1,0.3,1.7
		c0.5,2.5,1.1,6-2.2,8.7c-3,2.4-6.2,5.8-7.2,7l8.5,31.4l1.9-0.6l1.3,3.5l3.3-1.7c-1.3-2.8-5.4-11.3-6.6-14.5c-0.2-0.6-0.5-1.3-0.8-2
		c-1.7-4.4-3.8-9.8-1.7-12.4c1.1-1.4,3.7-2.9,6.4-4.5c2.4-1.4,5.1-3,5.7-4c2-3,6-6,8-6.9c1.1-1.7,3.6-4.5,4.9-5.5c0,0,0-0.1,0.1-0.1
		l0.2-0.2c0,0,0.1-0.1,0.1-0.1c0,0,0.1-0.1,0.2-0.1c0.1-0.1,0.2-0.2,0.4-0.4c0.2-0.3,0.5-0.6,0.7-0.9c0.5-0.6,0.9-1.3,1.3-1.9
		c0.8-1.3,1.5-2.8,2.1-4.2c0.6-1.5,1.1-3,1.4-4.6c0.3-1.6,0.5-3.2,0.3-4.8c0.3,1.6,0.4,3.2,0.2,4.9c-0.2,1.6-0.5,3.3-1,4.8
		c-0.5,1.6-1.1,3.1-1.8,4.6c-0.4,0.7-0.7,1.5-1.2,2.2c-0.2,0.4-0.5,0.7-0.7,1.1c-0.1,0.2-0.3,0.4-0.4,0.5c-0.1,0.1-0.1,0.1-0.2,0.2
		c-0.1,0.2-0.2,0.3-0.4,0.4c-0.5,0.2-1.2,0.8-2.4,2.4c1.4,0.9,3,2.6,4.2,3.1c0.4-0.3,0.8-0.6,1.2-0.8l0.2-0.2l0.4,0.1
		c2,0.6,4.1,1.2,6.2,1.7c1,0.3,2.1,0.5,3.1,0.6c1,0.2,2.1,0.2,3,0.2l0.4,0l0.3-0.1l0.3-0.1c0.1,0,0.3-0.1,0.4-0.1
		c0.6-0.2,1.1-0.3,1.7-0.4c1.1-0.2,2.2-0.3,3.3-0.3c0.9,0,2.3,0,3.5-0.1c1.4,0,2.4-1.2,2.3-2.6c-0.1-1.3-0.3-2.6-0.4-3.2
		c-0.1-0.2-0.1-0.3,0-0.5c0-0.3,0.1-0.5,0.3-0.7c0.7-1.3,1.5-2.5,2.2-3.7c0.8-1.3,1.7-2.7,2.6-4c-0.7,1.4-1.2,2.9-1.8,4.4
		c-0.5,1.4-1,2.8-1.5,4.2c0.1,1,0.5,4.2,0.7,5.6c0,0.2,0,0.4,0,0.7c-0.1,2.1-0.7,14.6,0.3,19.4l0,0.1l0,0.1
		c-0.9,11.3-1.9,18.9-2.5,22.5l0.8-0.4l1.1,2.4l3.1-1.7c-0.7-1.5-1.7-4.6-1.4-10.5c0.2-3.1,1.3-11,1.3-11.4l0-0.2
		c2.6-8,5.8-17.5,6.8-19.6c0-0.3,0.2-0.5,0.4-0.6c0,0,0.1,0,0.1-0.1l0,0c0.5-0.3,1-0.6,1.5-0.9c0.5-0.3,1-0.7,1.4-1.1
		c0.9-0.8,1.7-1.6,2.2-2.7l0.1-0.1l0,0c1.2-1.1,2.3-2.4,3.1-3.9c0.4-0.7,0.7-1.5,0.9-2.4c0.2-0.8,0.2-1.7,0.2-2.5
		c0.1,0.8,0.2,1.7,0.1,2.6c-0.1,0.9-0.3,1.7-0.6,2.5c-0.5,1.3-0.7,1.7-1.5,2.8c1.3-0.9,2.1-1.1,3.2-2.2c1.2-1.2,2.2-2.5,3.1-4
		c0.5-0.7,1-1.5,1.5-2.2c0.5-0.7,1.1-1.4,1.7-2c1.2-1.3,2.5-2.5,3.4-4c0.5-0.7,0.8-1.5,1.1-2.3c0.2-0.8,0.5-1.7,0.8-2.5
		c0.6-1.7,1.2-3.3,1.7-4.9c1-3.3,1.7-6.7,1.4-10.3c0,0,0-0.1,0.1-0.1c0,0,0.1,0,0.1,0c0.9,3.5,0.5,7.2-0.5,10.6
		c-0.5,1.7-1.1,3.4-1.8,5c-0.4,0.8-0.6,1.6-1.1,2.4c-0.4,0.8-1,1.5-1.5,2.2c-1,1.5-1.9,3-2.9,4.4l-1.5,2.1c-0.5,0.7-0.9,1.4-1.4,2.2
		c-1,1.5-2.2,2.9-3.6,4c-1.4,1.1-3.1,1.9-4.7,2.4c0,0,0,0,0,0c-0.1,0.2-0.3,0.3-0.4,0.5c-0.5,1.3-1.3,2.4-2.1,3.3
		c-0.1,0.1-0.3,0.3-0.4,0.4c1.5-0.4,3-0.7,4.4-1.1c1-0.3,1.9-0.6,2.8-1c0.4-0.2,0.8-0.4,1.1-0.7l1.1-1c1.5-1.4,3.2-2.7,4.6-4.2
		c1.5-1.5,2.8-3.1,4.1-4.8l0,0.1c0.5-0.8,1-1.8,1.5-2.7l1.5-2.7c1-1.8,1.9-3.6,2.9-5.4c1-1.8,1.9-3.6,2.7-5.5
		c0.8-1.8,0.9-3.7,1.2-5.6c-0.7-0.2-0.8-0.2-0.8-0.2c-0.5-0.1-1-0.3-1.4-0.5c-0.5-0.2-0.9-0.4-1.4-0.7c-0.4-0.3-0.9-0.7-1.1-1.1
		c-0.6-0.9-1-1.8-1.3-2.7c-0.3-0.9-0.6-1.9-0.9-2.8c0.4,0.9,0.8,1.8,1.2,2.7c0.4,0.9,0.9,1.7,1.5,2.4c0.6,0.7,1.4,1,2.3,1.3
		c0.4,0.1,0.9,0.2,1.4,0.3c0,0,2,0.6,2.9,0.4c0.6-0.1,1.3-0.4,1.9-0.5c0.7-0.1,1.4-0.2,2.1,0.1c0.7,0.2,1.3,0.6,1.9,0.8
		c1.2,0.6,2.4,1.1,3.5,1.8l0.8,0.5c0.1,0.1,0.3,0.1,0.5,0.1c0,0,0.1,0,0.1-0.1l0.2-0.1l0.4-0.3l0.2-0.4c0,0,0,0,0,0l-1-0.7
		c-0.7-0.5-1.5-0.9-2.3-1.3l0,0c0,0-0.1-0.1,0-0.1c0,0,0.1-0.1,0.1-0.1c0.9,0.1,1.8,0.4,2.6,0.8c0.4,0.2,0.8,0.4,1.2,0.5l0.6,0.2
		c0.1,0,0.2,0.1,0.3,0.1c0.2-0.1,0.5-0.2,0.7-0.3c0.1-0.1,0.2-0.1,0.3-0.2c-0.1,0.1-0.2,0.1-0.3,0.2
		C125.3,45.6,125.1,44.9,125.6,44.4z M108.8,45.8C108.8,45.8,108.8,45.8,108.8,45.8C108.8,45.8,108.8,45.8,108.8,45.8z M115.2,34.6
		c-0.3-0.1-0.6-0.3-0.9-0.4c-0.1,0-0.1,0-0.2-0.1c-0.1,0-0.1,0.1-0.2,0.1c-0.8,0.3-1.6-0.1-1.9-0.8c-0.3-0.8,0.1-1.7,0.8-2
		c0.8-0.3,1.6,0.1,1.9,0.8c0.1,0.1,0.1,0.3,0.1,0.5c0.1,0.1,0.2,0.2,0.3,0.3c0.3,0.3,0.5,0.6,0.7,0.9c0.4,0.6,0.7,1.2,1,1.8
		C116.3,35.2,115.7,34.9,115.2,34.6z"/>
	<path class="st0" d="M127.4,43.8c-0.1-0.1-0.3-0.3-0.4-0.4c-0.1-0.1-0.2-0.2-0.3-0.4c0.1,0.1,0.2,0.2,0.3,0.4
		C127.1,43.5,127.3,43.7,127.4,43.8z"/>
	<path class="st0" d="M128,44.3L128,44.3C128,44.3,128,44.3,128,44.3C128,44.3,128,44.3,128,44.3z"/>
	<line class="st0" x1="108.8" y1="45.8" x2="108.8" y2="45.8"/>
</g>
</svg>
