<?xml version="1.0" encoding="utf-8"?>
<!-- Generator: Adobe Illustrator 18.1.0, SVG Export Plug-In . SVG Version: 6.00 Build 0)  -->
<svg version="1.1" baseProfile="tiny" id="Layer_1" xmlns="http://www.w3.org/2000/svg" xmlns:xlink="http://www.w3.org/1999/xlink"
	 x="0px" y="0px" viewBox="0 0 128 128" xml:space="preserve">
<g>
	<path fill="#2D2D2D" d="M96.3,102.4c-1.1,0-2.3,0-3.5,0c-2.8,0-5.8,0-8.6,0c-1.1,0-2.1,0-3.1,0l-2.7,16.1c-0.2,2.1,0.5,4.3,2.1,6
		c1.9,2.2,4.9,3.4,8.1,3.4c3.2,0,6.1-1.2,8-3.3c1.6-1.7,2.3-3.9,2.1-6L96.3,102.4z"/>
	<path fill="#2D2D2D" d="M76.4,118.3l2.7-15.9c-3.8,0-6.8-0.3-9.1-1c-3.1-1-4.7-3-4.7-5.9c0-6.4,7.2-15.8,16.8-19l-1.9-14.9
		c0,0,0,0,0,0c-2.3,0-4.7,0-7.1-0.1c-6.9-0.1-14.4-0.1-21.3,0c-2.2,0-4.2,0-6.3,0.1c0,0,0,0,0,0l-6.1,41.2
		c-0.6,6.4,1.5,12.8,5.9,17.6c4.4,4.8,10.6,7.5,17.1,7.5c9.5,0,13.4-3.1,14.8-4.6C76.5,121.8,76.2,120,76.4,118.3z"/>
	<path fill="#2D2D2D" d="M100.7,16.9C94.2,10.6,80.6,0,62.5,0S30.8,10.6,24.3,16.9C14.7,26.2,8.5,37.6,8.5,46.1
		c0,5.6,2.9,9.2,9.1,11.2c6.3,2.1,15.7,2.3,24.9,2.3c3,0,6.1,0,9.3-0.1c3.4,0,7-0.1,10.7-0.1s7.2,0,10.7,0.1c3.2,0,6.3,0.1,9.3,0.1
		c22,0,34-2.2,34-13.5C116.5,37.6,110.3,26.2,100.7,16.9z"/>
	<path fill="#2D2D2D" d="M88.6,77.5c-12,0-21.2,12-21.2,18c0,2,1,3.2,3.3,3.9c2.5,0.8,6.2,0.9,9.9,0.9c1.2,0,2.5,0,3.8,0
		c1.4,0,2.8,0,4.3,0c1.5,0,2.9,0,4.3,0c1.3,0,2.6,0,3.8,0c8.7,0,13.1-0.8,13.1-4.9C109.8,89.5,100.6,77.5,88.6,77.5z"/>
</g>
</svg>
