<?xml version="1.0" encoding="utf-8"?>
<!-- Generator: Adobe Illustrator 24.1.2, SVG Export Plug-In . SVG Version: 6.00 Build 0)  -->
<svg version="1.1" id="Layer_1" xmlns="http://www.w3.org/2000/svg" xmlns:xlink="http://www.w3.org/1999/xlink" x="0px" y="0px"
	 viewBox="0 0 128 128" style="enable-background:new 0 0 128 128;" xml:space="preserve">
<style type="text/css">
	.st0{fill:#2D2D2D;}
</style>
<g>
	<path class="st0" d="M52.4,123.45c-0.76-0.34-1.52-0.67-2.28-1.02c-1.48-0.67-2.95-1.37-4.41-2.1c-0.51,0.09-1.03,0.13-1.55,0.09
		c-0.46-0.03-0.92-0.12-1.35-0.25c-0.1-0.03-0.21-0.06-0.31-0.1c-0.12-0.02-0.24-0.03-0.36-0.05c-0.89-0.15-1.78-0.38-2.62-0.72
		c-1.43-0.57-2.81-1.45-3.81-2.69c-0.25,0.07-0.48,0.2-0.64,0.4c-0.13,0.14-0.2,0.33-0.29,0.52l-0.27,0.56
		c-0.08,0.19-0.19,0.38-0.24,0.55c-0.05,0.18-0.03,0.37,0.02,0.55c0.12,0.36,0.41,0.62,0.79,0.74l4.66,1.77l9.3,3.59l1.79,0.69
		c-0.07-0.3-0.07-0.63,0.03-0.93c0.11-0.34,0.3-0.64,0.52-0.89c0.29-0.34,0.67-0.57,1.06-0.71L52.4,123.45z"/>
	<path class="st0" d="M54.67,124.43l-1.44-0.62c-0.03,0.01-0.07,0.01-0.1,0.02c-0.48,0.15-0.89,0.45-1.12,0.83
		c-0.12,0.19-0.17,0.41-0.18,0.61c-0.01,0.2-0.01,0.39,0.01,0.6c0.01,0.18,0.06,0.36,0.12,0.55l0.56,0.21l0.58,0.22
		c0.22,0.09,0.33,0.13,0.47,0.14c0.27,0.03,0.57-0.06,0.75-0.24c0.05-0.04,0.08-0.09,0.12-0.14c0.02-0.02,0.03-0.05,0.04-0.08
		l0.07-0.14l0.27-0.56l0.14-0.28c0.04-0.08,0.11-0.21,0.12-0.24c0.05-0.11,0.05-0.22,0.04-0.33
		C55.09,124.76,54.92,124.54,54.67,124.43z"/>
	<path class="st0" d="M53.27,116.83c-0.55,0.82-1.27,1.51-2.1,2.02c-0.95,0.6-2.02,0.94-3.09,1.14c-0.59,0.11-1.18,0.17-1.77,0.2
		c-0.12,0.03-0.24,0.07-0.37,0.09c1.49,0.47,2.98,0.96,4.45,1.49c0.03,0.01,0.06,0.02,0.08,0.03c0.68-0.53,1.41-0.94,2.15-1.3
		c0.4-0.19,0.82-0.36,1.24-0.5c0.21-0.07,0.44-0.14,0.59-0.19c0.16-0.07,0.31-0.17,0.44-0.28c0.54-0.47,0.63-1.35,0.12-1.97
		C54.64,117.05,53.96,116.78,53.27,116.83z"/>
	<path class="st0" d="M37.04,123.66c-0.12,0.06-0.23,0.11-0.35,0.17l-0.52,0.24l-0.13,0.06l-0.1,0.05
		c-0.07,0.03-0.12,0.08-0.19,0.12c-0.47,0.34-0.71,0.9-0.59,1.43c0.06,0.27,0.21,0.53,0.43,0.72c0.22,0.2,0.51,0.34,0.82,0.4
		c0.31,0.06,0.64,0.04,0.94-0.06c0.23-0.08,0.47-0.17,0.71-0.26c0.15-0.31,0.23-0.59,0.25-0.86c0.02-0.2,0.02-0.39,0.01-0.6
		c-0.01-0.2-0.06-0.42-0.18-0.61C37.92,124.11,37.52,123.81,37.04,123.66z"/>
	<path class="st0" d="M37.77,123.29c0.39,0.14,0.75,0.37,1.03,0.7c0.22,0.25,0.41,0.55,0.52,0.89c0.11,0.34,0.11,0.72-0.01,1.05
		c-0.02,0.07-0.05,0.13-0.08,0.19l1.35-0.49c1.3-0.46,2.59-0.93,3.9-1.38l-4.82-2.03C39.04,122.61,38.41,122.96,37.77,123.29z"/>
	<path class="st0" d="M37.83,110.55c-0.43-0.45-0.77-0.96-1.03-1.51c-0.26-0.54-0.46-1.11-0.6-1.69c-0.02-0.07-0.03-0.14-0.04-0.2
		c-0.52,1.12-0.94,2.28-1.12,3.48c-0.13,0.84-0.17,1.7-0.04,2.54c0.12,0.84,0.41,1.64,0.84,2.37c0.42,0.73,1.01,1.38,1.67,1.92
		c0.66,0.55,1.41,1.01,2.21,1.38c0.47,0.22,0.96,0.41,1.46,0.57c-0.27-0.18-0.52-0.38-0.75-0.62c-0.33-0.34-0.6-0.74-0.78-1.18
		c-0.36-0.89-0.31-1.89,0-2.74c0.15-0.43,0.36-0.83,0.61-1.21c0.25-0.37,0.49-0.73,0.86-1.06c0.02,0.06,0.04,0.18,0.04,0.24
		c0.01,0.07,0.02,0.14,0.03,0.21c0.03,0.14,0.06,0.27,0.09,0.41c0.08,0.27,0.18,0.53,0.3,0.77c0.24,0.46,0.59,0.87,1.04,1.08
		c0.53-0.09,1.03-0.29,1.43-0.61c0.41-0.33,0.72-0.78,0.94-1.28c0.22-0.49,0.35-1.04,0.44-1.58c0.08-0.54,0.11-1.12,0.09-1.65
		l-0.05-1.47l0.72,1.26c0.29,0.51,0.54,1.01,0.76,1.54c0.22,0.53,0.41,1.06,0.57,1.61c0.16,0.55,0.28,1.11,0.35,1.69
		c0.05,0.38,0.07,0.76,0.05,1.15c0.08-0.07,0.16-0.15,0.23-0.22c0.21-0.23,0.41-0.47,0.61-0.73c0.2-0.25,0.39-0.51,0.57-0.78
		l0.56-0.81l0.24-0.34l0.07,0.41c0.08,0.43,0.17,0.86,0.22,1.31c0.05,0.45,0.05,0.92-0.06,1.36c-0.1,0.44-0.28,0.85-0.49,1.25
		c-0.2,0.4-0.48,0.77-0.78,1.1c-0.51,0.54-1.14,0.98-1.82,1.31c0.24-0.05,0.49-0.1,0.73-0.16c1.03-0.26,2.02-0.66,2.87-1.25
		c0.86-0.58,1.56-1.37,2.03-2.28c0.48-0.91,0.72-1.93,0.82-2.95c0.09-1.03,0.03-2.08-0.15-3.11c-0.04-0.26-0.1-0.51-0.15-0.77
		c-0.06-0.25-0.12-0.52-0.18-0.79c-0.06-0.27-0.11-0.55-0.15-0.82c-0.05-0.28-0.07-0.56-0.1-0.83c-0.15-1.7,0.13-3.45,0.79-5.03
		c-0.21,0.14-0.4,0.29-0.59,0.46c-0.56,0.52-1,1.17-1.37,1.87c-0.73,1.41-1.06,3.03-1.23,4.66l-0.11,1.12l-0.74-0.83
		c-0.87-0.97-1.86-1.85-2.76-2.9c-0.23-0.25-0.42-0.56-0.64-0.83l-0.27-0.46c-0.04-0.08-0.09-0.15-0.13-0.23l-0.1-0.25
		c-0.07-0.17-0.14-0.33-0.2-0.5l-0.13-0.53c-0.02-0.09-0.05-0.18-0.06-0.26l-0.02-0.27l-0.04-0.53c-0.02-1.43,0.41-2.76,0.92-4.01
		c0.23-0.64,0.55-1.23,0.83-1.84c0.15-0.29,0.3-0.58,0.46-0.87c-0.4,0.28-0.8,0.56-1.19,0.86c-0.65,0.52-1.31,1.03-1.91,1.61
		c-0.63,0.55-1.18,1.17-1.75,1.77c-0.53,0.64-1.05,1.29-1.49,1.99c-0.9,1.39-1.56,2.93-1.84,4.55c-0.26,1.62-0.13,3.27,0.36,4.82
		l0.23,0.71l-0.7-0.28C38.77,111.37,38.25,111,37.83,110.55z"/>
	<path class="st0" d="M48.71,11.75l0.17,0.52l0.59-0.18c1-0.3,2-0.61,3-0.94c0.44-0.16,0.87-0.34,1.3-0.54
		c-0.04,1.09-0.08,2.18-0.12,3.27c-0.02,1.64-0.08,3.28-0.08,4.92c0,1.64,0.01,3.28,0.05,4.92l0.12,4.92l0.03,1.1l1.06-0.03
		c1.99-0.05,3.98-0.12,5.97-0.25l0.88-0.06l-0.05-0.76c-0.14-2.28-0.31-4.55-0.4-6.83c-0.09-2.28-0.09-4.55-0.01-6.83
		c0.08-2.28,0.29-4.55,0.45-6.83c0.17-2.28,0.21-4.55,0.18-6.83l-0.02-1.05l-1.04,0.02c-1.39,0.03-2.78,0.04-4.17,0.1L56.2,0.41
		l-0.24,0.27c-0.56,0.63-1.19,1.2-1.86,1.75c-0.7,0.53-1.41,1.05-2.11,1.61C51.24,4.5,50.5,4.99,49.75,5.5
		c-0.86,0.49-1.68,1.01-2.39,1.45l0.63,2.31C48.21,10.06,48.44,10.91,48.71,11.75z"/>
	<path class="st0" d="M92.58,22.99c-1-0.03-2-0.02-3-0.03c-1.39-0.01-2.78,0.01-4.17,0.04c0.09-0.12,0.18-0.23,0.26-0.34
		c0.47-0.64,1.01-1.21,1.52-1.82l3.29-3.57c1.12-1.2,2.13-2.51,2.96-3.91c0.4-0.71,0.75-1.45,1.02-2.22
		c0.25-0.78,0.39-1.59,0.39-2.41c0.01-1-0.11-2.01-0.4-2.99c-0.28-0.97-0.78-1.91-1.5-2.67c-1.45-1.54-3.54-2.34-5.59-2.69
		C85.31,0.05,83.1,0,80.99,0.62c-2.1,0.63-3.99,1.68-5.65,3.12l-0.79,0.68l0.63,0.89l2.92,4.16l0.79,1.13l1.16-0.97l0.77-0.65
		l0.83-0.55c0.53-0.4,1.13-0.66,1.76-0.9c0.57-0.21,1.14-0.3,1.76-0.3c0.6,0,1.12,0.11,1.54,0.36l0.15,0.09
		c0.03,0.02,0.06,0.05,0.09,0.07c0.06,0.05,0.11,0.11,0.15,0.18c0.1,0.14,0.17,0.36,0.22,0.62c0.09,0.58,0.07,1.06-0.13,1.56
		c-0.41,1.09-1.51,2.11-2.49,3.18l-3.21,3.18l-0.8,0.81c-0.28,0.28-0.55,0.57-0.81,0.87c-0.53,0.59-1,1.22-1.44,1.88
		c-0.89,1.34-1.56,2.76-1.91,4.36c-0.16,0.79-0.22,1.58-0.2,2.36l0.04,1.13l0.13,1.2l0.04,0.38l0.42-0.01
		c1.55-0.03,3.1-0.08,4.65-0.08c1.55-0.02,3.1-0.01,4.65,0.01c1.55,0.01,3.1,0.07,4.65,0.12l4.65,0.22l0.7,0.03l0.04-0.75
		c0.09-1.65,0.17-3.3,0.23-4.95l0.03-0.9l-1-0.05C94.58,23.03,93.58,23.02,92.58,22.99z"/>
	<path class="st0" d="M127.73,18.18c-0.31-1.12-0.9-2.22-1.73-3.08c-0.34-0.36-0.72-0.67-1.11-0.96c0.56-0.52,1.05-1.11,1.42-1.76
		c0.36-0.61,0.65-1.28,0.82-2c0.19-0.7,0.22-1.49,0.18-2.15c-0.08-1.37-0.43-2.75-1.17-4.01c-0.73-1.25-1.86-2.25-3.11-2.91
		c-1.24-0.65-2.58-1.02-3.9-1.19c-1.33-0.16-2.59-0.18-3.93-0.04c-0.66,0.07-1.33,0.19-1.94,0.39c-0.62,0.18-1.25,0.34-1.86,0.56
		l-1.79,0.79c-0.57,0.3-1.1,0.64-1.65,0.97l-0.78,0.46l0.42,0.77l2.3,4.2l0.43,0.78l0.68-0.47c0.66-0.45,1.37-0.84,2.12-1.16
		c0.74-0.33,1.5-0.54,2.3-0.66c0.82-0.1,1.61-0.14,2.35,0.07c0.73,0.19,1.36,0.65,1.68,1.3c0.31,0.61,0.26,1.49,0.01,2.16
		c-0.28,0.68-0.88,1.18-1.64,1.42c-0.74,0.25-1.58,0.33-2.4,0.32l-2.57-0.07l-0.46-0.01l-0.02,0.48c-0.06,1.57-0.13,3.14-0.21,4.72
		l-0.03,0.64l0.72,0.04c1.01,0.06,2.09,0.09,3.04,0.17c0.48,0.05,0.96,0.12,1.43,0.21c0.45,0.09,0.86,0.22,1.23,0.4
		c0.37,0.18,0.68,0.4,0.92,0.66c0.12,0.13,0.23,0.28,0.31,0.42c0.08,0.13,0.13,0.28,0.17,0.45c0.08,0.32,0.09,0.73,0.06,1.11
		c-0.04,0.37-0.15,0.7-0.32,0.98c-0.67,1.19-2.61,1.46-4.56,1.47c-0.97,0-1.94-0.06-2.85-0.24c-0.93-0.24-1.91-0.53-2.88-0.79
		l-0.79-0.21l-0.11,0.66c-0.28,1.65-0.55,3.3-0.85,4.95l-0.06,0.32l0.25,0.07c0.68,0.19,1.35,0.45,2.04,0.56
		c0.68,0.13,1.35,0.34,2.04,0.4c0.69,0.07,1.37,0.21,2.06,0.27l2.08,0.11c2.07,0,4.18-0.17,6.17-0.92c1.98-0.7,3.85-2.1,4.82-4.13
		c0.48-0.99,0.77-2.07,0.89-3.16C128.05,20.46,128.05,19.3,127.73,18.18z"/>
	<path class="st0" d="M9.1,47.25c1.66,0.46,3.32,0.9,5,1.33c2.91,0.7,5.88,1.25,8.88,1.56L23,50.55c-0.1,0.02-0.19,0.05-0.28,0.08
		c-0.53,0.21-0.89,0.63-1.11,1c-0.22,0.37-0.36,0.71-0.51,1.01l-0.48,0.9c-0.03,0.06,0,0.01-0.01,0.03c0,0-0.01,0.01-0.01,0.02
		c-0.01,0.01-0.02,0.02-0.03,0.02l-0.02,0.01l-0.08,0.04c-0.2,0.12-0.5,0.32-0.66,0.69c-0.08,0.18-0.1,0.37-0.1,0.53
		c0.01,0.2,0.02,0.19,0.02,0.26c0,0.05,0,0.11-0.01,0.15c0,0.03,0,0.03-0.01,0.07c-0.02,0.07-0.03,0.14-0.04,0.21
		c-0.03,0.28,0.01,0.56,0.08,0.77c0.03,0.11,0.07,0.21,0.11,0.3c0.04,0.09,0.06,0.16,0.12,0.29l0.1,0.2c0,0,0,0,0,0l0,0.01
		l-0.04,0.53l-0.07,1.06c-0.01,0.18-0.03,0.34-0.03,0.53l0.01,0.48c-0.02,0.06-0.05,0.14-0.07,0.25c0,0.03,0,0.07,0,0.09l0,0.03
		l0.01,0.06l0.01,0.12l0.05,0.47c0.02,0.31,0.14,0.63,0.21,0.94l0.27,0.86c0.04,0.14,0.1,0.3,0.13,0.4
		c0.03,0.12,0.05,0.28,0.09,0.45l0.03,0.09c0.02,0.06,0.05,0.1,0.07,0.14c0.05,0.06,0.08,0.09,0.1,0.11
		c0.01,0.01,0.01,0.01,0.01,0.01l0-0.01l0.01,0.02l0.05,0.09l0.22,0.38c0.15,0.25,0.28,0.53,0.39,0.79c0.06,0.13,0.11,0.27,0.15,0.4
		c0.04,0.13,0.07,0.26,0.12,0.43c0.1,0.32,0.28,0.61,0.54,0.85c0.25,0.24,0.61,0.39,0.97,0.39c0.18,0.01,0.35-0.03,0.52-0.07
		c0.14-0.04,0.29-0.07,0.44-0.09c0.29-0.05,0.6-0.09,0.9-0.13c0.31-0.04,0.6-0.05,0.95-0.12c0.33-0.06,0.73-0.29,0.91-0.61l0.5-0.74
		c0.16-0.24,0.37-0.5,0.53-0.77c0.17-0.27,0.32-0.55,0.45-0.83c0.27-0.57,0.47-1.14,0.7-1.69c0.2-0.57,0.47-1.06,0.59-1.81
		c0.03-0.18,0.03-0.38,0.01-0.58c-0.02-0.2-0.08-0.41-0.12-0.53c-0.08-0.28-0.17-0.55-0.26-0.83c-0.16-0.55-0.25-1.13-0.41-1.73
		c-0.16-0.61-0.38-1.18-0.61-1.75c-0.24-0.57-0.51-1.12-0.82-1.65c-0.32-0.53-0.67-1.03-1.08-1.49c-0.21-0.23-0.45-0.44-0.74-0.58
		c-0.14-0.07-0.32-0.11-0.44-0.15c-0.12-0.04-0.11-0.17-0.09-0.32l0.05-0.34c6.6,0.47,13.18,0.41,19.76,0.45
		c1.84,0,3.68-0.02,5.52-0.06c0.08,0.28,0.17,0.56,0.25,0.84c0.08,0.21,0.07,0.43,0.08,0.69c0.02,0.24,0.07,0.46,0.1,0.71
		c-0.02-0.01-0.06,0.02-0.11,0.05l-0.13,0.07c-0.09,0.05-0.17,0.09-0.26,0.15c-0.18,0.12-0.31,0.25-0.47,0.41
		c-0.07,0.08-0.14,0.18-0.18,0.31l-0.06,0.29c-0.04,0.17-0.09,0.34-0.17,0.49c-0.15,0.31-0.34,0.57-0.61,0.77
		c-0.13,0.1-0.28,0.19-0.43,0.26l-0.19,0.09c-0.02,0-0.04-0.01-0.06-0.01l-0.19-0.04L48,55.96c-0.2,0.17-0.39,0.46-0.41,0.78
		c-0.02,0.31,0.07,0.56,0.16,0.77c0.04,0.09,0.1,0.22,0.12,0.26c0.02,0.05,0.04,0.1,0.04,0.16c0,0.03,0.01,0.05,0.01,0.08l0,0.14
		l0.01,0.28c0.01,0.37,0.01,0.76,0.03,1.15c0.01,0.2,0.03,0.4,0.05,0.6c0.02,0.18,0.03,0.33,0.03,0.5c0,0.33-0.05,0.68-0.12,1.03
		c-0.02,0.1-0.03,0.15-0.05,0.24l-0.07,0.29c-0.02,0.11-0.05,0.24-0.05,0.4c-0.01,0.15,0.05,0.39,0.06,0.43
		c0.08,0.33,0.15,0.68,0.19,1.03l0.05,0.58c0.05,0.28,0.12,0.42,0.17,0.56c0,0.01,0,0.02,0,0.03c0,0.07,0.01,0.14,0.03,0.23
		c0.04,0.12,0.06,0.16,0.09,0.24l0.17,0.35c0.05,0.12,0.08,0.17,0.11,0.32l0.1,0.38l0.41,1.52c0.08,0.36,0.3,0.61,0.54,0.81
		c0.13,0.1,0.26,0.2,0.47,0.25c0.05,0.01,0.12,0.02,0.18,0.01c0.03,0,0.07-0.01,0.1-0.02l0.05-0.02l0.19-0.06l0.78-0.25l0.39-0.12
		c0.13-0.04,0.28-0.09,0.35-0.09c0.02,0,0.02,0,0.04,0l0.12,0.02c0.08,0.01,0.16,0.02,0.24,0.01c0.16,0,0.32-0.03,0.47-0.09
		c0.3-0.1,0.56-0.35,0.7-0.58c0.31-0.44,0.62-0.88,0.91-1.33c0.3-0.45,0.58-0.9,0.86-1.36c0.29-0.47,0.53-0.96,0.76-1.44l0.34-0.72
		c0.12-0.24,0.24-0.53,0.32-0.81c0.08-0.29,0.12-0.59,0.13-0.9c0.01-0.31-0.04-0.62-0.06-0.86l-0.16-1.56
		c-0.07-0.53-0.09-1-0.14-1.57c-0.03-0.27-0.06-0.59-0.14-0.84l-0.21-0.79l-0.21-0.79l-0.1-0.39l-0.03-0.1l-0.02-0.06
		c-0.01-0.03-0.02-0.07-0.04-0.1c-0.05-0.13-0.12-0.22-0.17-0.3c-0.12-0.16-0.22-0.26-0.27-0.33c-0.09-0.12-0.21-0.24-0.28-0.33
		c-0.08-0.09-0.14-0.17-0.18-0.22c-0.05-0.09-0.13-0.23-0.22-0.36c-0.09-0.13-0.2-0.28-0.35-0.43c-0.15-0.15-0.35-0.28-0.58-0.37
		c-0.11-0.04-0.23-0.07-0.34-0.09c-0.01,0-0.03,0-0.04,0l0-0.09l0-0.06l-0.01-0.03c-0.08-0.43-0.16-0.87-0.24-1.31
		c0.73-0.02,1.46-0.05,2.19-0.08c3.46-0.19,6.91-0.4,10.35-0.79c1.35-0.15,2.69-0.31,4.03-0.49c-0.05,0.31-0.12,0.61-0.18,0.92
		l-0.05,0.24l0.14,0.22c0.01,0.02,0.03,0.09,0.02,0.25l-0.18,0.09l-0.71,0.36l-0.36,0.18c-0.15,0.09-0.36,0.2-0.54,0.45
		c-0.19,0.25-0.24,0.61-0.21,0.84c0,0.04,0,0.07-0.01,0.11c-0.02,0.08-0.15,0.27-0.31,0.52c-0.04,0.06-0.08,0.13-0.13,0.22
		c-0.04,0.08-0.1,0.23-0.11,0.28l-0.11,0.35c-0.03,0.08-0.05,0.13-0.07,0.16l-0.18,0l-0.84-0.02l0.14,0.77
		c0.13,0.69,0.26,1.37,0.41,2.05c0.08,0.34,0.14,0.67,0.21,1l0.2,0.98c0.03,0.25-0.01,0.59-0.01,0.97c0,0.14-0.02,0.32-0.02,0.54
		c0,0.1,0.02,0.25,0.05,0.35c0.02,0.1,0.05,0.19,0.08,0.28c0.27,0.72,0.44,1.24,0.65,1.98c0.13,0.38,0.33,0.7,0.53,0.99
		c0.2,0.29,0.38,0.58,0.55,0.87c0.17,0.3,0.31,0.58,0.41,0.91c0.11,0.34,0.34,0.73,0.71,0.93c0.36,0.2,0.81,0.24,1.21,0.11l1-0.41
		c0.33-0.14,0.64-0.22,1.02-0.4c0.18-0.09,0.35-0.21,0.5-0.36c0.15-0.15,0.26-0.34,0.35-0.48c0.37-0.61,0.69-1.28,0.93-1.93
		c0.26-0.65,0.51-1.3,0.75-1.95c0.12-0.34,0.24-0.64,0.36-1c0.11-0.38,0.17-0.78,0.16-1.19c-0.01-0.21-0.03-0.41-0.08-0.61
		c-0.02-0.1-0.05-0.2-0.08-0.3c-0.03-0.11-0.05-0.14-0.07-0.22c-0.08-0.28-0.12-0.63-0.2-0.99c-0.13-0.65-0.27-1.38-0.53-2.07
		c-0.12-0.34-0.27-0.67-0.42-0.99c-0.15-0.32-0.27-0.61-0.43-0.96c-0.16-0.34-0.39-0.72-0.77-0.97c-0.05-0.03-0.09-0.06-0.14-0.09
		l-0.04-0.02c-0.04-0.06-0.09-0.12-0.14-0.18c-0.13-0.15-0.28-0.29-0.44-0.4c-0.16-0.12-0.33-0.21-0.5-0.29
		c-0.09-0.04-0.17-0.08-0.26-0.11c-0.06-0.02-0.05-0.01-0.07-0.02c-0.01-0.01-0.02-0.02-0.03-0.02l0.01-0.05l0.02-0.13l0.03-0.26
		l0.06-0.52l0.07-0.72c0-0.21,0.02-0.41,0.04-0.62c4.29-0.65,8.53-1.53,12.67-2.76l0-0.09c-2.96,0.67-5.95,1.18-8.95,1.58
		c-1.22,0.17-2.44,0.32-3.66,0.46l0.06-0.69c0.02-0.48,0.1-0.93,0.15-1.39c0-0.06,0.1-0.37-0.15-0.66
		c-0.27-0.27-0.57-0.23-0.64-0.24l-0.75-0.04l-0.42-0.02l-0.08,0.45l-0.4,2.34l-0.08,0.5c-1.43,0.14-2.85,0.27-4.28,0.39
		c-4.21,0.34-8.43,0.54-12.65,0.64c-0.02-0.11-0.04-0.23-0.06-0.34l-0.26-1.45l-0.02-0.09l-0.01-0.05c0-0.02-0.02-0.09-0.03-0.12
		c-0.01-0.03-0.03-0.07-0.04-0.09c-0.11-0.17-0.17-0.22-0.29-0.32c-0.03-0.02-0.06-0.04-0.12-0.07c-0.02-0.01-0.06-0.03-0.11-0.05
		c-0.06-0.01-0.14-0.05-0.34-0.01c-0.06,0.02-0.02,0.01-0.04,0.01c-0.01,0.01-0.05,0.01-0.1,0.02c-0.1,0.01-0.25,0-0.45,0.04
		c-0.18,0.03-0.41,0.13-0.56,0.28l-0.18,0.06c-0.07,0.03-0.15,0.05-0.29,0.13c-0.07,0.04-0.16,0.13-0.22,0.24
		c-0.06,0.11-0.07,0.22-0.07,0.28c0.01,0.25,0.06,0.33,0.09,0.46l0.09,0.36l0.21,0.75c-1.72,0.02-3.45,0.03-5.17,0.02l-10.34,0
		c-3.16-0.01-6.32-0.05-9.46-0.19c0-0.1,0-0.19,0.01-0.29l0.05-1.02c0.05-0.68,0.09-1.36,0.16-2.05l0.03-0.37l-0.35,0.07
		c-0.03-0.03-0.07-0.07-0.12-0.1c-0.09-0.08-0.25-0.15-0.36-0.18c-0.12-0.03-0.26-0.05-0.35-0.05l-0.29-0.02
		c-0.1,0-0.21-0.01-0.36,0.02c-0.08,0.01-0.18,0.04-0.28,0.11c-0.11,0.06-0.2,0.18-0.24,0.27c-0.08,0.19-0.09,0.3-0.11,0.41
		l-0.02,0.29c-0.04,0.72-0.06,1.43-0.07,2.15l-0.01,0.62c-2.93-0.22-5.83-0.64-8.72-1.2c-3-0.57-5.99-1.26-8.99-1.89l0.01,0.09
		C6.54,46.54,7.82,46.9,9.1,47.25z"/>
	<polygon class="st0" points="0,128 5.22,128 5.22,74.99 5.22,74.89 5.22,46.15 5.22,46.07 5.22,40.66 0,40.66 	"/>
	<path class="st0" d="M84.94,75l0-0.08c-3,0.69-6.03,1.21-9.08,1.62c-0.97,0.14-1.93,0.26-2.9,0.38l0.01-0.17
		c0.05-0.6,0.09-1.21,0.16-1.81l0.04-0.37l-0.34,0.07c-0.03-0.03-0.06-0.05-0.1-0.08c-0.08-0.07-0.23-0.14-0.34-0.17
		c-0.11-0.03-0.24-0.04-0.32-0.05l-0.26-0.02c-0.09-0.01-0.19-0.01-0.33,0.01c-0.07,0.01-0.17,0.04-0.27,0.1
		c-0.1,0.06-0.19,0.18-0.23,0.26c-0.13,0.34-0.1,0.47-0.12,0.65c-0.04,0.61-0.06,1.21-0.08,1.82c-1.72,0.18-3.43,0.34-5.15,0.48
		c-1.71,0.15-3.42,0.24-5.13,0.35c-1.71,0.09-3.43,0.17-5.14,0.22c-3.43,0.1-6.86,0.16-10.29,0.11l-2.57-0.02l-2.57-0.07
		c-0.72-0.01-1.44-0.04-2.16-0.07l0.04-0.78c0.05-0.61,0.09-1.22,0.16-1.83L38,75.2l-0.34,0.07c-0.03-0.03-0.06-0.05-0.1-0.09
		c-0.09-0.07-0.23-0.14-0.34-0.17c-0.11-0.03-0.24-0.04-0.32-0.05l-0.26-0.02c-0.09,0-0.19-0.01-0.33,0.01
		c-0.07,0.01-0.17,0.04-0.27,0.1c-0.1,0.06-0.19,0.18-0.23,0.26c-0.13,0.34-0.1,0.47-0.13,0.65c-0.04,0.64-0.07,1.28-0.08,1.92
		l0,0.19c-0.27-0.01-0.54-0.02-0.82-0.04c-1.71-0.06-3.43-0.19-5.14-0.28c-1.71-0.14-3.42-0.24-5.13-0.4
		c-1.5-0.13-3.01-0.27-4.51-0.43l0.33-1.16l0.09-0.32c0.03-0.12,0.07-0.18,0.08-0.42c0-0.06-0.01-0.16-0.07-0.27
		c-0.06-0.11-0.15-0.19-0.21-0.23c-0.13-0.08-0.21-0.1-0.27-0.12l-0.14-0.05c-0.15-0.14-0.36-0.23-0.52-0.26
		c-0.19-0.03-0.32-0.03-0.41-0.03c-0.04,0-0.07-0.01-0.08-0.01c-0.02-0.01,0.02,0-0.03-0.01c-0.2-0.05-0.28-0.01-0.34,0.01
		c-0.05,0.01-0.09,0.03-0.11,0.04c-0.05,0.03-0.08,0.05-0.11,0.07c-0.11,0.09-0.17,0.13-0.27,0.3c-0.01,0.02-0.03,0.05-0.04,0.08
		c-0.01,0.03-0.03,0.1-0.03,0.12l-0.01,0.04l-0.02,0.08l-0.24,1.29c-0.04,0.2-0.07,0.39-0.1,0.59c-1.07-0.12-2.15-0.25-3.22-0.39
		c-3.02-0.37-6.03-0.83-9.02-1.37l0,0.1c2.94,0.76,5.93,1.33,8.92,1.88c1.06,0.18,2.12,0.36,3.19,0.52
		c-0.07,0.42-0.15,0.83-0.23,1.23l-0.01,0.03l0,0.06l0,0.01c-0.1,0.02-0.2,0.04-0.29,0.08c-0.44,0.17-0.71,0.5-0.86,0.74
		c-0.08,0.12-0.15,0.24-0.2,0.32c-0.03,0.04-0.08,0.11-0.15,0.19c-0.07,0.08-0.17,0.19-0.25,0.29c-0.05,0.06-0.14,0.15-0.25,0.3
		c-0.05,0.07-0.11,0.17-0.16,0.28c-0.01,0.03-0.02,0.06-0.04,0.09l-0.02,0.05l-0.02,0.09l-0.09,0.35l-0.18,0.7l-0.18,0.7
		c-0.07,0.23-0.1,0.52-0.12,0.76c-0.04,0.51-0.06,0.92-0.12,1.39l-0.14,1.39c-0.01,0.21-0.06,0.5-0.05,0.78
		c0.01,0.28,0.04,0.55,0.12,0.81c0.07,0.26,0.18,0.52,0.29,0.73l0.31,0.64c0.21,0.43,0.43,0.86,0.69,1.28
		c0.25,0.41,0.51,0.81,0.78,1.21c0.26,0.4,0.54,0.79,0.81,1.18c0.13,0.21,0.36,0.43,0.64,0.53c0.14,0.05,0.28,0.08,0.43,0.08
		c0.07,0,0.14,0,0.22-0.01l0.1-0.02c0.01,0,0.01,0,0.03,0c0.06,0,0.19,0.05,0.3,0.08l0.35,0.11l0.69,0.23l0.17,0.06l0.04,0.01
		c0.02,0.01,0.06,0.01,0.09,0.01c0.06,0,0.12,0,0.17-0.01c0.2-0.05,0.32-0.14,0.43-0.23c0.22-0.19,0.41-0.41,0.49-0.74l0.37-1.35
		l0.09-0.34c0.03-0.13,0.06-0.17,0.1-0.27l0.15-0.31c0.03-0.07,0.05-0.1,0.09-0.22c0.02-0.08,0.03-0.15,0.03-0.22l0-0.01
		c0.04-0.12,0.11-0.24,0.15-0.5l0.05-0.52c0.03-0.31,0.1-0.62,0.17-0.91c0.01-0.03,0.07-0.26,0.06-0.4c0-0.15-0.03-0.26-0.05-0.36
		l-0.07-0.26c-0.02-0.08-0.03-0.12-0.04-0.21C22.2,87,22.15,86.7,22.15,86.4c0-0.15,0-0.28,0.02-0.44c0.02-0.18,0.03-0.36,0.04-0.53
		c0.01-0.35,0.01-0.69,0.02-1.03l0-0.25l0-0.12c0-0.03,0-0.04,0-0.07c0.01-0.04,0.02-0.09,0.03-0.13c0.01-0.03,0.08-0.15,0.11-0.24
		c0.08-0.18,0.16-0.42,0.14-0.71c-0.02-0.3-0.2-0.57-0.38-0.72l-0.19-0.16l-0.19,0.04c-0.02,0-0.03,0.01-0.04,0.01L21.58,82
		c-0.14-0.07-0.27-0.14-0.38-0.23c-0.23-0.17-0.4-0.39-0.54-0.67c-0.06-0.13-0.11-0.28-0.15-0.43l-0.06-0.26
		c-0.04-0.13-0.11-0.21-0.17-0.29c-0.14-0.14-0.26-0.25-0.42-0.36c-0.08-0.05-0.16-0.09-0.24-0.13l-0.11-0.06
		c-0.04-0.02-0.08-0.05-0.09-0.04c0.03-0.23,0.08-0.41,0.1-0.63c0.02-0.23,0.01-0.43,0.08-0.61c0.05-0.18,0.11-0.35,0.16-0.53
		c1.55,0.22,3.1,0.42,4.65,0.59c3.72,0.44,7.46,0.75,11.21,0.95l0.01,0.31c-0.07,0.02-0.14,0.03-0.21,0.06
		c-0.49,0.2-0.83,0.59-1.03,0.92c-0.2,0.33-0.33,0.65-0.46,0.9c-0.14,0.26-0.29,0.53-0.42,0.8c-0.03,0.05,0,0,0,0.01c0,0,0,0,0,0.01
		c0,0-0.01,0.01-0.02,0.02l-0.01,0.01l-0.07,0.04c-0.19,0.11-0.47,0.3-0.62,0.65c-0.07,0.17-0.1,0.35-0.09,0.5
		c0.01,0.19,0.02,0.18,0.02,0.23c0,0.04,0,0.09,0,0.12c0,0.02,0,0.02-0.01,0.06c-0.02,0.06-0.03,0.13-0.04,0.19
		c-0.03,0.27,0.01,0.52,0.07,0.72c0.03,0.1,0.06,0.19,0.1,0.27c0.03,0.08,0.06,0.14,0.11,0.27l0.09,0.17l-0.03,0.46l-0.06,0.94
		c-0.01,0.16-0.02,0.31-0.02,0.48l0.01,0.42c-0.02,0.05-0.05,0.12-0.06,0.22c0,0.03,0,0.06,0,0.09l0,0.03l0.01,0.05l0.01,0.11
		l0.05,0.42c0.02,0.28,0.13,0.56,0.2,0.84l0.25,0.76c0.04,0.12,0.09,0.27,0.11,0.36c0.03,0.11,0.04,0.25,0.08,0.41l0.02,0.09
		c0.02,0.06,0.05,0.1,0.07,0.13c0.05,0.06,0.08,0.09,0.09,0.1c0.01,0.01,0.01,0.01,0.01,0l-0.01-0.01l0.01,0.02l0.05,0.08l0.19,0.34
		c0.13,0.22,0.25,0.47,0.35,0.71c0.05,0.12,0.1,0.24,0.14,0.36c0.04,0.12,0.06,0.23,0.11,0.39c0.09,0.29,0.26,0.55,0.49,0.77
		c0.23,0.21,0.56,0.35,0.88,0.36c0.16,0.01,0.32-0.03,0.47-0.06c0.13-0.03,0.26-0.06,0.39-0.08c0.26-0.05,0.53-0.08,0.8-0.11
		c0.28-0.03,0.54-0.04,0.85-0.1c0.3-0.05,0.67-0.26,0.83-0.56l0.45-0.66c0.14-0.21,0.33-0.44,0.48-0.69
		c0.15-0.24,0.29-0.49,0.41-0.75c0.24-0.51,0.43-1.02,0.63-1.51c0.18-0.51,0.42-0.94,0.53-1.62c0.02-0.17,0.03-0.35,0.01-0.53
		c-0.01-0.18-0.08-0.38-0.11-0.48c-0.07-0.25-0.15-0.49-0.23-0.73c-0.14-0.49-0.23-1.01-0.37-1.54c-0.14-0.55-0.35-1.06-0.56-1.56
		c-0.22-0.5-0.47-1-0.75-1.47c-0.29-0.47-0.61-0.92-0.98-1.33c-0.19-0.2-0.41-0.39-0.67-0.52c-0.12-0.06-0.28-0.1-0.39-0.14
		c-0.1-0.03-0.1-0.14-0.07-0.28l0.05-0.37c2.42,0.11,4.85,0.17,7.27,0.2c1.73,0.03,3.45,0,5.18-0.03c1.73-0.01,3.45-0.09,5.18-0.15
		c3.45-0.18,6.89-0.39,10.32-0.79c1.68-0.18,3.36-0.39,5.04-0.63l0,0.17l0.03,0.76c-0.07,0.02-0.14,0.03-0.2,0.06
		c-0.49,0.2-0.82,0.58-1.02,0.92c-0.2,0.33-0.33,0.64-0.45,0.89c-0.13,0.26-0.28,0.52-0.42,0.79c-0.03,0.05,0,0,0,0.01
		c0,0,0,0,0,0.01c0,0-0.01,0.01-0.02,0.02l-0.01,0.01l-0.07,0.04c-0.18,0.11-0.46,0.3-0.62,0.65c-0.07,0.17-0.1,0.35-0.09,0.5
		c0.01,0.19,0.02,0.17,0.02,0.23c0,0.04,0,0.09,0,0.12c0,0.02,0,0.02-0.01,0.06c-0.02,0.06-0.03,0.13-0.04,0.19
		c-0.03,0.26,0.01,0.52,0.07,0.71c0.03,0.1,0.06,0.19,0.1,0.27c0.03,0.08,0.05,0.14,0.11,0.26l0.09,0.17l-0.03,0.46l-0.06,0.93
		c-0.01,0.16-0.02,0.3-0.02,0.47l0.01,0.42c-0.02,0.05-0.05,0.12-0.06,0.22c0,0.03,0,0.06,0,0.09l0,0.03l0.01,0.05l0.01,0.11
		l0.05,0.42c0.02,0.28,0.13,0.56,0.19,0.83l0.25,0.75c0.04,0.12,0.09,0.27,0.11,0.35c0.03,0.11,0.04,0.24,0.08,0.4l0.02,0.09
		c0.02,0.06,0.05,0.1,0.07,0.13c0.05,0.06,0.08,0.08,0.09,0.1c0.01,0.01,0.01,0.01,0.01,0l-0.01-0.01L69,90.73l0.05,0.08l0.19,0.33
		c0.13,0.22,0.25,0.46,0.35,0.7c0.05,0.12,0.1,0.23,0.14,0.35c0.04,0.12,0.06,0.23,0.11,0.38c0.09,0.28,0.26,0.55,0.49,0.76
		c0.23,0.21,0.55,0.35,0.87,0.35c0.16,0.01,0.32-0.03,0.47-0.06c0.13-0.03,0.25-0.06,0.38-0.08c0.26-0.05,0.53-0.08,0.79-0.11
		c0.27-0.03,0.53-0.04,0.84-0.1c0.3-0.05,0.66-0.26,0.83-0.55l0.44-0.65c0.14-0.21,0.33-0.44,0.48-0.68
		c0.15-0.24,0.29-0.49,0.41-0.74c0.24-0.5,0.43-1.01,0.63-1.49c0.18-0.5,0.42-0.93,0.53-1.61c0.02-0.17,0.03-0.35,0.01-0.53
		c-0.01-0.18-0.08-0.38-0.11-0.47c-0.07-0.24-0.15-0.49-0.23-0.73c-0.14-0.48-0.23-1-0.37-1.53c-0.14-0.54-0.35-1.05-0.56-1.54
		c-0.22-0.5-0.46-0.99-0.74-1.46c-0.28-0.47-0.6-0.91-0.97-1.32c-0.19-0.2-0.4-0.39-0.66-0.51c-0.12-0.06-0.28-0.1-0.39-0.13
		c-0.1-0.03-0.1-0.14-0.07-0.27l0.08-0.57l0.01-0.04l-0.03-0.03c-0.06-0.06-0.05-0.24-0.05-0.38c0-0.14,0.01-0.27,0.02-0.41
		C76.99,77.05,81.02,76.19,84.94,75z"/>
	<polygon class="st0" points="85,46.09 85,46.17 85,74.91 85,74.99 85,128 90.21,128 90.21,40.66 85,40.66 	"/>
</g>
</svg>
