<?xml version="1.0" encoding="utf-8"?>
<!-- Generator: Adobe Illustrator 24.1.2, SVG Export Plug-In . SVG Version: 6.00 Build 0)  -->
<svg version="1.1" id="Layer_1" xmlns="http://www.w3.org/2000/svg" xmlns:xlink="http://www.w3.org/1999/xlink" x="0px" y="0px"
	 viewBox="0 0 128 128" style="enable-background:new 0 0 128 128;" xml:space="preserve">
<style type="text/css">
	.st0{fill:#2D2D2D;}
</style>
<g>
	<path class="st0" d="M52.6,113.4l-0.2-1.8c-0.3,0.1-0.6,0.2-0.9,0.3l0.3,1.8c0.1,0.2,0.3,0.3,0.5,0.3
		C52.5,113.9,52.7,113.7,52.6,113.4L52.6,113.4z"/>
	<path class="st0" d="M46.8,124.3l0.5,2.1h4.1l-1.6-2.9C49.6,123.5,46.8,124.3,46.8,124.3z"/>
	<path class="st0" d="M47.9,120.4c-0.2-0.3-0.3-0.6-0.4-0.9l-0.7-3c-0.3-0.1-0.6-0.2-0.9-0.5c-0.3-0.3-0.5-0.8-0.5-1.2l0-2.4
		c-0.9-0.1-1.9-0.3-3-0.5c-0.1,0.1-0.2,0.3-0.4,0.5c0.7,1.1,2.4,4.3,2.8,5.2c0.1,0.3,0.2,0.6,0.1,0.8l-0.3,2.9
		c0,0.2,0.1,0.5,0.2,0.6l1.4,1.4l3-0.9L47.9,120.4z"/>
	<path class="st0" d="M47.2,115.2L47.2,115.2c0.2,0,0.4-0.2,0.4-0.4l-0.1-2.3c-0.3,0-0.5,0-0.8,0l0,2.3
		C46.7,115,46.9,115.2,47.2,115.2z"/>
	<path class="st0" d="M14.7,102.8h2.6l0.4-1.7c0,0-1.8-0.4-1.8-0.4L14.7,102.8z"/>
	<path class="st0" d="M37.5,125.9L38,128h4.1l-1.6-2.9C40.4,125.1,37.5,125.9,37.5,125.9z"/>
	<path class="st0" d="M23.6,92.5L20.3,82v0c-0.4-0.1-0.8-0.1-1.1-0.2l-0.3,4.7l4.4,9.1c0.1,0.2,0.2,0.5,0.2,0.7v1.5l0.7,0.2l0.8,0.2
		c0.1-0.5,0.2-1.3,0.2-2c0-0.1,0-0.1,0-0.2C24.1,94.1,23.6,92.5,23.6,92.5z"/>
	<path class="st0" d="M21.9,101h2.6l0.4-1.7c0,0-1.8-0.4-1.8-0.4L21.9,101z"/>
	<path class="st0" d="M56.1,109.3c-0.2,0.2-0.4,0.4-0.7,0.5l1.2,1.7c0.1,0.1,0.2,0.2,0.3,0.2c0.1,0,0.2,0,0.3-0.1
		c0.1-0.1,0.2-0.2,0.2-0.3c0-0.1,0-0.2-0.1-0.3L56.1,109.3z"/>
	<path class="st0" d="M81.3,125.9l0.5,2.1h4.1l-1.6-2.9C84.2,125.1,81.3,125.9,81.3,125.9z"/>
	<path class="st0" d="M73.8,101.8c-0.2,0.1-0.4,0.2-0.6,0.3c-0.3,0.1-0.6,0.3-1,0.5l-2.1,8.8l-2.3,7.4c-0.1,0.3,0,0.5,0.2,0.7
		l1.4,1.6c0.3,0.3,0.4,0.7,0.4,1.1l0.3,1.1l3-0.9l-0.5-1.4c-0.1-0.2-0.2-0.4-0.3-0.6c-0.2-0.3-0.3-0.7-0.4-1.1l-0.3-3.4
		c-0.1-0.6,0.1-1.2,0.5-1.7l2.9-4c0.1-1.3,0.5-2.3,0.8-2.8L73.8,101.8L73.8,101.8z"/>
	<path class="st0" d="M70.4,124.3l0.5,2.1H75l-1.6-2.9C73.3,123.5,70.4,124.3,70.4,124.3z"/>
	<path class="st0" d="M108.2,67.9c-0.6-0.2-1.1-0.4-1.6-0.6c-1.1-0.5-2.8-1.9-4.6-3.5c-0.9-0.8-1.9-1.6-2.7-2.2
		c-0.3-0.2-0.6-0.4-0.9-0.5c0.2,0.7,0.4,1,0.4,1c0.2,0.3,0.1,0.7-0.2,0.9c-0.3,0.2-0.7,0.1-0.9-0.2c-0.1-0.2-2.1-3.5,0.8-8.4
		c-1.7,1.6-4.8,4.8-3.4,8.1c0.1,0.3,0.1,0.6-0.1,0.9c-0.1,0.1,0,0.3-1.3,0.6c-0.3,0.1-0.7-0.1-0.8-0.4c-0.3-0.8-1.3-3-2.6-3.5
		c-1.2-0.4-3.6-0.7-4.9-0.8c0.4,1.5,1.3,3.7,2.4,4.3c1.8,0.9,4.5,1.2,4.5,1.2c0.4,0,0.6,0.3,0.6,0.7c0,0.3-0.3,0.6-0.6,0.6h-0.1
		c-0.1,0-1-0.1-2.2-0.4c-1.1,1.5-2.2,2.7-3.7,4.1c-2,1.8-5.2,2.7-9.4,2.7c-0.8,0-2.1,0.4-3.6,0.8C70.8,74,67.3,75,63.5,75
		c-3.1,0-6.7-0.6-10.2-1.1c-3.3-0.5-6.5-1-9.1-1c-0.2,0-0.3,0-0.5,0c-0.2,0-0.3,0-0.5,0c-6.3,0-10.7,3.8-10.7,3.8
		c-1.7,1.3-2.7,3.5-2.7,5.8c0,1.2,0,3.7,0,6.8c0.1,10,0.1,18.4,0,19.3c-0.1,0.8-0.5,1.8-0.9,3.1c-0.6,1.7-1.3,3.6-1.3,5
		c0,1.6,1.1,4.2,2,5.8c-0.1-1.3-0.2-2.9,0.7-4c1.7-2.4,1.5-8.1,0.8-9.7c0-0.1,0-0.1,0-0.2c-0.1-1.8,0.2-23.4,0.2-24.3
		c0-0.4,0.3-0.6,0.6-0.6c0.4,0,0.6,0.3,0.6,0.6c0,7.7,5.2,16.6,5.3,16.7c0.1,0.1,0.1,0.2,0.1,0.3c0,2.5-0.9,4.7-1.5,6.4
		c-0.3,0.7-0.6,1.5-0.6,1.7c0,0.9,0.2,2.6,0.6,3.8c0.2,0.8,0.3,1.5,0.1,2.2c-0.1,0.8-0.4,1.8-0.7,3.1c-0.2,0.9-0.1,1.9,0.5,2.8
		c0.5,0.8,0.8,1.7,0.8,2.6v0.9l2.6-0.8c-1-1.7-1.1-4.3-1.2-6.1c0-0.3,0-0.5,0-0.8c-0.1-1.8,1.8-5.2,2.9-6.3c0,0,0.1-0.1,0.1-0.1
		c0.1-0.1,0.2-0.2,0.3-0.2c0.1-0.1,12.6-4.9,10.7-13.4c-0.1-0.4,0.1-0.7,0.5-0.8c0.3-0.1,0.7,0.1,0.8,0.5c0.5,2.3,0.1,4.3-0.7,6
		c1.2,0.2,3.7,0.6,6.1,0.7c0,0,0,0,0.1,0c0,0,0.1,0,0.1,0c6.1,0.6,10.7-1.6,13.1-2.8c0.2-0.1,0.4-0.2,0.6-0.3c0.3-0.2,0.7-0.2,1.1,0
		c0.4,0.2,0.6,0.4,0.7,0.8l1.8,5.4c0.1,0.4,0.1,0.7-0.1,1.1c-0.2,0.4-0.6,1.3-0.6,2.4c0,1.2,1.1,2.5,1.4,2.8
		c0.2,0.2,0.3,0.5,0.3,0.8l0.4,6.3c0,0.6,0.2,1.2,0.6,1.8l2.1,3l3-1c-0.7-1.4-2.3-4.4-3.1-6.2c-0.7-1.8-0.1-4,0.5-5.7
		c0.2-0.6,0.4-1.2,0.4-1.4c0-0.4-0.2-1-0.4-1.8c-0.3-0.8-0.3-1.8,0.1-2.6c0.3-0.6,0.6-1.3,0.9-2.1c0.5-1,1.2-1.9,2.1-2.5
		c3.5-2.6,6-7.9,7.3-10.8c0.2-0.4,0.3-0.7,0.5-1c0.6-1.3,1.6-4.3,2.6-7.3c1.3-3.8,2.1-6.2,2.6-6.9l0.1-0.1c0.5-0.5,1.2-0.4,2.2-0.2
		c1.2,0.2,2.9,0.4,4.6-0.2c0.3-0.1,0.7-0.1,1.1,0.1c1.8,0.7,4,0.7,4.6,0.4c3-3.2,2-5.4,1.6-6C111,69,109.5,68.4,108.2,67.9z
		 M101.1,67.4c-0.6,0-1.1-0.5-1.1-1.1c0-0.6,0.5-1.1,1.1-1.1c0.6,0,1.1,0.5,1.1,1.1C102.2,67,101.7,67.4,101.1,67.4z"/>
	<path class="st0" d="M31.7,75.8c0.2-0.1,4.8-4.1,11.6-4.1c0.2,0,0.3,0,0.5,0c0.2,0,0.3,0,0.5,0c1.3,0,2.6,0.1,4.1,0.3
		c-0.2-0.6-0.8-2-2.1-3.3c-1.3-1.3-3.2-2.5-6.1-2.5c-1.8,0-3.7,0.1-5.6,0.2c-4.6,0.2-9.4,0.5-14.2-0.6l-0.2-0.1
		c-1.5-0.8-3.7-1.8-5-6.2c-0.1-0.3-0.2-0.6-0.4-1c-0.1-0.2-0.2-0.5-0.4-0.7c-0.3,0.1-0.5,0.1-0.8,0.1c-1.4,0.1-2.7-0.5-4-1.8
		c-0.3-0.3-0.3-0.7,0-0.9c0.3-0.3,0.7-0.3,0.9,0c1,1,2,1.5,3,1.4c1,0,1.8-0.5,2.4-1l-5.2-1.4c-0.4-0.1-0.7-0.2-1-0.4l-1.8-1.1
		c-0.4-0.3-0.6-0.8-0.4-1.3c1.2-2.7,3.5-3.7,5.6-4.2h-0.1c-4.5,0-7.1,4.4-7.2,4.6L5.7,52l-0.5,0.2c-0.9,0.4-1.7,0.9-2.3,1.5
		c-0.9,0.9-1.3,1.9-1.2,3.1V57l-0.3,0.6c-1.2,2.3-1.6,3.7-1.3,4.2c0.2,0.2,0.3,0.4,2,0.1c0.3-0.1,0.5,0.1,0.7,0.3c0,0,0,0,0.1,0.1
		c0.3,0.4,0.8,1.6,0.7,2.3c0,0.3,0,0.5,0.1,0.7c0.1,0.2,0.2,0.4,0.3,0.6c0-0.2,0-0.5,0-0.7v-0.4c0-0.9,0.5-1.9,0.8-2.4c0,0,0,0,0,0
		c0.1-0.2,0.3-0.4,0.6-0.4c1,0,1.1-0.1,1.6-0.3L7.8,61l-0.1,1.2c-0.2,1.6,1,7.6,2.9,10.8l0.1,0.1l0,0.1c0.3,2.8,0.9,5.8,3.3,8.2
		c0.3,0.3,0.5,0.7,0.5,1.1c0.2,0.9,0.3,2.5,0.5,4.1c0.2,2,0.5,4,0.7,5.2c0.1,0.4,0.2,0.8,0.4,1.1c0.1,0.2,0.2,0.5,0.3,0.7
		c0.2,0.4,0.3,0.8,0.3,1.3l-0.3,4.8l1.3,0.4l0.3-5.3c0-0.2,0-0.4-0.1-0.7l-0.4-1.2c-0.2-0.7-0.3-1.4-0.3-2.2l0.7-9.4
		c0-0.3,0.2-0.5,0.4-0.7c0.2-0.2,0.5-0.2,0.8-0.2c0.7,0.2,7.1,1.1,9.5,0.9C29,79.1,30,77.1,31.7,75.8z M3.9,55.9
		c-0.4,0-0.8-0.4-0.8-0.8c0-0.4,0.4-0.8,0.8-0.8c0.4,0,0.8,0.4,0.8,0.8C4.7,55.6,4.3,55.9,3.9,55.9z"/>
	<path class="st0" d="M44.3,110.9c8.2,1.3,12-3,13.6-6.1c-2.4-0.2-4.6-0.6-5.3-0.7C50.4,107.5,46.6,109.8,44.3,110.9z"/>
	<path class="st0" d="M47.9,11.9l0.2,0.5l0.6-0.2c1-0.3,2-0.6,3-0.9c0.4-0.2,0.9-0.3,1.3-0.5c0,1.1-0.1,2.2-0.1,3.3
		c0,1.7-0.1,3.3-0.1,5c0,1.7,0,3.3,0.1,5l0.1,5l0,1.1l1.1,0c2-0.1,4-0.1,6-0.3l0.9-0.1l0-0.8c-0.1-2.3-0.3-4.6-0.4-6.9
		c-0.1-2.3-0.1-4.6,0-6.9c0.1-2.3,0.3-4.6,0.5-6.9c0.2-2.3,0.2-4.6,0.2-6.9l0-1.1l-1,0c-1.4,0-2.8,0-4.2,0.1l-0.5,0l-0.2,0.3
		c-0.6,0.6-1.2,1.2-1.9,1.8c-0.7,0.5-1.4,1.1-2.1,1.6c-0.8,0.5-1.5,1-2.3,1.5c-0.9,0.5-1.7,1-2.4,1.5l0.6,2.3
		C47.4,10.2,47.7,11,47.9,11.9z"/>
	<path class="st0" d="M77.6,9.6l0.8,1.1l1.2-1l0.8-0.7l0.8-0.6c0.5-0.4,1.1-0.7,1.8-0.9c0.6-0.2,1.2-0.3,1.8-0.3
		c0.6,0,1.1,0.1,1.6,0.4l0.2,0.1c0,0,0.1,0,0.1,0.1c0.1,0.1,0.1,0.1,0.2,0.2c0.1,0.1,0.2,0.4,0.2,0.6c0.1,0.6,0.1,1.1-0.1,1.6
		c-0.4,1.1-1.5,2.1-2.5,3.2l-3.2,3.2l-0.8,0.8c-0.3,0.3-0.6,0.6-0.8,0.9c-0.5,0.6-1,1.2-1.5,1.9c-0.9,1.4-1.6,2.8-1.9,4.4
		c-0.2,0.8-0.2,1.6-0.2,2.4l0,1.1l0.1,1.2l0,0.4l0.4,0c1.6,0,3.1-0.1,4.7-0.1c1.6,0,3.1,0,4.7,0c1.6,0,3.1,0.1,4.7,0.1l4.7,0.2
		l0.7,0l0-0.8c0.1-1.7,0.2-3.3,0.2-5l0-0.9l-1,0c-1,0-2-0.1-3-0.1c-1,0-2,0-3,0c-1.4,0-2.8,0-4.2,0c0.1-0.1,0.2-0.2,0.3-0.3
		c0.5-0.6,1-1.2,1.5-1.8l3.3-3.6c1.1-1.2,2.1-2.5,3-4c0.4-0.7,0.8-1.5,1-2.2c0.3-0.8,0.4-1.6,0.4-2.4c0-1-0.1-2-0.4-3
		c-0.3-1-0.8-1.9-1.5-2.7C91.1,1.6,89,0.7,87,0.4c-2.1-0.3-4.3-0.4-6.4,0.2c-2.1,0.6-4,1.7-5.7,3.1L74,4.5l0.6,0.9L77.6,9.6z"/>
	<path class="st0" d="M127.7,18.4c-0.3-1.1-0.9-2.2-1.7-3.1c-0.3-0.4-0.7-0.7-1.1-1c0.6-0.5,1.1-1.1,1.4-1.8c0.4-0.6,0.7-1.3,0.8-2
		c0.2-0.7,0.2-1.5,0.2-2.2c-0.1-1.4-0.4-2.8-1.2-4.1C125.4,3,124.2,2,123,1.3c-1.3-0.7-2.6-1-3.9-1.2c-1.3-0.2-2.6-0.2-4,0
		c-0.7,0.1-1.3,0.2-2,0.4c-0.6,0.2-1.3,0.3-1.9,0.6l-1.8,0.8c-0.6,0.3-1.1,0.7-1.7,1L107,3.3l0.4,0.8l2.3,4.2l0.4,0.8l0.7-0.5
		c0.7-0.5,1.4-0.8,2.1-1.2c0.7-0.3,1.5-0.6,2.3-0.7c0.8-0.1,1.6-0.1,2.4,0.1c0.7,0.2,1.4,0.7,1.7,1.3c0.3,0.6,0.3,1.5,0,2.2
		c-0.3,0.7-0.9,1.2-1.7,1.4c-0.7,0.3-1.6,0.3-2.4,0.3l-2.6-0.1l-0.5,0l0,0.5c-0.1,1.6-0.1,3.2-0.2,4.8l0,0.6l0.7,0
		c1,0.1,2.1,0.1,3.1,0.2c0.5,0,1,0.1,1.4,0.2c0.5,0.1,0.9,0.2,1.2,0.4c0.4,0.2,0.7,0.4,0.9,0.7c0.1,0.1,0.2,0.3,0.3,0.4
		c0.1,0.1,0.1,0.3,0.2,0.5c0.1,0.3,0.1,0.7,0.1,1.1c0,0.4-0.1,0.7-0.3,1c-0.7,1.2-2.6,1.5-4.6,1.5c-1,0-2-0.1-2.9-0.2
		c-0.9-0.2-1.9-0.5-2.9-0.8l-0.8-0.2l-0.1,0.7c-0.3,1.7-0.6,3.3-0.9,5l-0.1,0.3l0.3,0.1c0.7,0.2,1.4,0.5,2.1,0.6
		c0.7,0.1,1.4,0.3,2.1,0.4c0.7,0.1,1.4,0.2,2.1,0.3l2.1,0.1c2.1,0,4.2-0.2,6.2-0.9c2-0.7,3.9-2.1,4.9-4.2c0.5-1,0.8-2.1,0.9-3.2
		C128,20.7,128,19.5,127.7,18.4z"/>
</g>
</svg>
