<?xml version="1.0" encoding="utf-8"?>
<!-- Generator: Adobe Illustrator 24.1.2, SVG Export Plug-In . SVG Version: 6.00 Build 0)  -->
<svg version="1.1" id="Layer_1" xmlns="http://www.w3.org/2000/svg" xmlns:xlink="http://www.w3.org/1999/xlink" x="0px" y="0px"
	 viewBox="0 0 128 128" style="enable-background:new 0 0 128 128;" xml:space="preserve">
<style type="text/css">
	.st0{fill:#2D2D2D;}
</style>
<g>
	<path class="st0" d="M30.8,57.7c0.5,0.4,1.1,0.7,1.6,0.9c1.2,0.5,2.4,0.9,3.7,1.1c2.5,0.5,5,0.8,7.5,0.8c2.4,0.1,4.8,0,7-0.1
		c2.2-0.1,4.3-0.2,6.3-0.3c1.9-0.1,3.7-0.3,5.3-0.6c1.6-0.3,2.9-0.6,4-1c1.1-0.4,1.8-0.9,2.2-1.4c0.4-0.5,0.3-0.8,0.3-0.8
		c0,0,0-0.4-0.3-0.8c-0.4-0.5-1.1-1-2.2-1.4c-1.1-0.4-2.4-0.7-4-1c-1.6-0.3-3.3-0.4-5.3-0.5c-1.9-0.1-4.1-0.2-6.3-0.2
		c-2.2,0-4.6,0-7,0.2c-2.4,0.1-4.9,0.4-7.4,0.9c-1.2,0.2-2.5,0.5-3.7,1c-0.6,0.2-1.2,0.5-1.7,0.8c-0.5,0.3-0.9,0.7-1,1.2
		c0,0.1,0.1,0.4,0.2,0.6C30.3,57.3,30.5,57.5,30.8,57.7z M38,56.3c0-0.1,0.1-0.1,0.1-0.2l0.1-0.1c0.1-0.1,0.2-0.2,0.3-0.3
		c0.2-0.1,0.4-0.2,0.5-0.3c0.3-0.2,0.7-0.3,1-0.4c0.7-0.2,1.3-0.3,1.9-0.4c1.3-0.2,2.6-0.3,3.8-0.4c1.2,0,2.4-0.1,3.5,0
		c1.1,0,2.2,0.2,3.2,0.3c1.9,0.3,3.5,0.7,4.6,1.1c0.5,0.2,1,0.4,1.2,0.6c0.3,0.2,0.3,0.5,0.3,0.4l0,0c0,0,0,0,0,0.1
		c0,0.1-0.1,0.2-0.2,0.3c-0.3,0.2-0.7,0.4-1.2,0.5c-1.1,0.3-2.7,0.6-4.6,0.8c-1,0.1-2,0.2-3.1,0.3c-1.1,0.1-2.3,0.1-3.5,0
		c-1.2,0-2.5-0.1-3.8-0.3c-0.6-0.1-1.3-0.2-1.9-0.3c-0.3-0.1-0.7-0.2-1-0.3c-0.2-0.1-0.3-0.2-0.5-0.3c-0.1-0.1-0.2-0.1-0.3-0.3
		c-0.1-0.1-0.2-0.3-0.2-0.6C38,56.4,38,56.5,38,56.3z"/>
	<path class="st0" d="M48.4,64.8c15.4,0,25.7-4.1,25.7-8s-10.3-8-25.7-8c-7.1,0-14.2,1.1-19.4,3c0,0-0.1,0-0.1,0c0,0-0.1,0-0.1,0
		c-0.1,0-0.1,0-0.1,0c0,0-0.1,0-0.1,0c0,0-0.1-0.1-0.1-0.1c0,0-0.1,0-0.1-0.1c0,0-0.1-0.1-0.1-0.1c0,0-0.1-0.1-0.1-0.1l-1.9-4.5
		l-1.5,1C24.5,48,24.2,48,24,48c-0.2-0.1-0.4-0.2-0.5-0.5l-0.8-2.2v11.5C22.7,60.7,33,64.8,48.4,64.8z M29.1,56.1
		c0-0.1,0.1-0.2,0.1-0.4c0.1-0.2,0.2-0.4,0.3-0.5c0.2-0.3,0.5-0.6,0.8-0.8c0.6-0.4,1.2-0.7,1.8-1c1.3-0.5,2.5-0.9,3.8-1.2
		c2.6-0.6,5.1-0.9,7.6-1.1c2.5-0.2,4.9-0.3,7.1-0.2c2.3,0.1,4.4,0.2,6.4,0.5c2,0.3,3.7,0.7,5.3,1.1c1.6,0.4,2.9,0.9,3.9,1.4
		c1,0.5,1.8,1,2.2,1.5c0.4,0.5,0.3,0.9,0.3,0.9l0,0c0,0,0,0.1,0,0.2c0,0.2-0.1,0.4-0.3,0.7c-0.4,0.5-1.2,1-2.2,1.5
		c-1.1,0.5-2.4,1-3.9,1.4c-1.6,0.4-3.3,0.8-5.3,1.1c-2,0.3-4.1,0.4-6.4,0.4c-2.3,0-4.7-0.2-7.1-0.4c-2.5-0.3-5-0.7-7.5-1.2
		c-1.3-0.3-2.5-0.6-3.8-1.1c-0.6-0.2-1.2-0.5-1.8-0.9c-0.3-0.2-0.6-0.4-0.8-0.7c-0.2-0.3-0.5-0.6-0.5-1.2L29.1,56.1z"/>
	<path class="st0" d="M79.4,84.6c-0.3,0-0.7-0.1-0.8-0.4c-1.4-3.1-3.6-17.3-4.4-24.4c-3.7,4.1-15,6.5-25.9,6.5
		c-10.7,0-21.7-2.3-25.7-6.3c0,5.6-0.4,18-3.1,23.4c0,0,0,0.1-0.1,0.1c-1.4,2.1-6.3,3.8-11.9,5.8c-1.1,0.4-2.2,0.8-3.3,1.2
		C4,91.1,3.9,91.5,4,91.8c0.3,0.7,2.3,2.3,13.3,2.8c0.2-0.1,0.5-0.2,1.1-0.4c0.8-0.3,1.9-0.9,3.2-1.6c1.3-0.7,2.8-1.6,4.3-2.7
		c0.7-0.6,1.5-1.1,2.2-1.8c0.7-0.6,1.4-1.3,2.1-2c0.7-0.7,1.3-1.5,1.9-2.3c0.3-0.4,0.6-0.8,0.8-1.2c0.3-0.4,0.5-0.8,0.7-1.2
		c0.5-0.8,0.9-1.6,1.2-2.4c0.3-0.8,0.6-1.6,0.8-2.3c0.2-0.7,0.3-1.4,0.4-2c0.1-0.6,0.1-1.1,0.2-1.6c0-0.9,0.1-1.4,0.1-1.4
		s0,0.5,0,1.4c0,0.4-0.1,1-0.1,1.6c-0.1,0.6-0.2,1.3-0.4,2c-0.2,0.7-0.4,1.5-0.7,2.4c-0.3,0.8-0.7,1.7-1.1,2.5
		c-0.2,0.4-0.4,0.9-0.7,1.3c-0.2,0.4-0.5,0.8-0.8,1.3c-0.6,0.8-1.2,1.6-1.8,2.4c-0.7,0.8-1.4,1.5-2.1,2.2c-0.7,0.7-1.5,1.3-2.2,1.9
		c-1.5,1.2-3,2.2-4.2,3c-1.3,0.8-2.4,1.4-3.2,1.8c-0.3,0.1-0.5,0.3-0.7,0.3c0,2-2.4,5.5-4,7.6c-0.1,0.1-0.2,0.2-0.3,0.2
		c-3.5,1.3-7.5,3-8,3.6l-0.3,0.4c-4.6,5.4-5.6,8-5.6,9.3c2.5,0.9,8.2,0.1,10.2-1.6l0.3-0.3c2.3-1.9,5.5-4.5,10-4.5
		c2.6,0,4.5,1,6.1,1.8c1.3,0.7,2.4,1.2,3.7,1.2c1.2,0,1.5-0.3,1.9-0.6c0.6-0.6,1.3-1,3-0.9c0.1-0.2,0.3-0.5,0.6-0.8
		c0.2-0.4,0.6-0.8,0.9-1.4c0.3-0.5,0.7-1.2,1.1-1.8c0.4-0.7,0.8-1.4,1.1-2.2c0.4-0.8,0.8-1.7,1.1-2.6c0.4-0.9,0.7-1.8,1.1-2.8
		c0.4-1,0.6-2,1-3c0.3-1,0.5-2,0.8-3c0.2-1,0.4-2,0.6-3c0.2-1,0.3-1.9,0.5-2.8c0.2-0.9,0.2-1.7,0.3-2.5c0.1-0.8,0.2-1.5,0.2-2.2
		c0-0.6,0.1-1.2,0.1-1.7c0-0.9,0.1-1.5,0.1-1.5s0,0.5,0,1.5c0,0.5,0,1,0,1.7c0,0.6-0.1,1.4-0.1,2.2c-0.1,0.8-0.1,1.7-0.2,2.6
		c-0.1,0.9-0.2,1.9-0.3,2.8c-0.2,1-0.3,2-0.5,3c-0.2,1-0.4,2.1-0.7,3.1c-0.3,1-0.5,2.1-0.9,3.1c-0.3,1-0.6,2-1,2.9
		c-0.3,0.9-0.7,1.8-1.1,2.7c-0.4,0.8-0.7,1.6-1.1,2.4c-0.4,0.7-0.7,1.4-1,1.9c-0.3,0.6-0.6,1.1-0.8,1.5c-0.2,0.4-0.4,0.7-0.6,0.9
		l0,0.2c0.3,2.6,1.1,10.5,8.3,14.9c1.8-1.4,4.7-8.5,5.9-11.6c0.4-1,0.7-1.8,1-2.3c0.1-0.3,0.5-0.5,0.8-0.4c1.4,0.2,2.5,0.4,3.5,0.6
		c3,0.5,5.2,0.9,9.2,0.9c2.8,0.1,3.2-0.3,3.4-0.5c0.5-0.5,1-0.5,2-0.3c0.9,0.2,1.7,0.7,2.7,1.1c1.8,0.9,3.6,1.8,5.2,1.2
		c0.6-0.2,1-1.1,1.2-2.4c0.5-3.4-0.7-8.3-3.7-10.8c-0.1-0.1-0.1-0.2-0.2-0.3c0-0.1-0.1-0.1-0.2-0.2c-0.2-0.2-0.4-0.6-0.6-1
		c-0.5-0.9-1.3-2.1-2-3.6c-0.4-0.8-0.8-1.6-1.2-2.5C71.2,95,70.8,94,70.4,93c-0.4-1-0.8-2-1.2-3.1c-0.2-0.5-0.4-1.1-0.5-1.6
		c-0.2-0.5-0.3-1.1-0.5-1.6c-0.3-1.1-0.6-2.2-0.9-3.3c-0.3-1.1-0.4-2.2-0.7-3.2c-0.2-1-0.3-2.1-0.5-3.1c-0.1-0.5-0.1-1-0.2-1.4
		c0-0.5-0.1-0.9-0.1-1.3c-0.1-0.9-0.1-1.6-0.2-2.3c0-0.7,0-1.3,0-1.8c0-1,0-1.6,0-1.6s0,0.6,0.1,1.6c0,0.5,0.1,1.1,0.1,1.8
		c0,0.7,0.2,1.5,0.2,2.3c0,0.4,0.1,0.9,0.2,1.3c0.1,0.5,0.2,0.9,0.2,1.4c0.2,1,0.3,2,0.6,3c0.3,1,0.5,2.1,0.8,3.2
		c0.3,1.1,0.6,2.2,1,3.2c0.2,0.5,0.4,1.1,0.5,1.6c0.2,0.5,0.4,1,0.6,1.6c0.4,1,0.8,2,1.3,3c0.4,1,0.9,1.9,1.3,2.8
		c0.5,0.9,0.9,1.7,1.3,2.4c0.7,1.3,1.4,2.3,1.9,3.1c0-0.1,0-0.1,0.1-0.2c0.7-1.1,2.1-2,4-2.4c2.9-0.6,5.8-3.3,6.2-4.8
		c0.4-1.3,2.3-1.8,4.2-2.3c1.2-0.3,3.2-0.8,3.3-1.4c0.1-0.5-0.1-1.7-1.4-2.9C91,85.6,87.5,83.4,79.4,84.6z"/>
	<path class="st0" d="M40.3,57c0.6,0.2,1.2,0.3,1.8,0.4c1.2,0.2,2.5,0.3,3.7,0.4c1.2,0.1,2.4,0.1,3.5,0.1c1.1,0,2.1,0,3.1,0
		c1.9,0,3.5-0.2,4.6-0.5c0.5-0.1,1-0.3,1.2-0.5c0.2-0.2,0.2-0.3,0.2-0.3c0,0,0-0.1-0.2-0.3c-0.2-0.2-0.6-0.3-1.2-0.4
		c-1.1-0.3-2.7-0.3-4.6-0.3c-1,0-2,0.1-3.1,0.1c-1.1,0-2.3,0-3.4,0.1c-1.2,0-2.4,0.1-3.7,0.3c-0.6,0.1-1.2,0.2-1.8,0.3
		c-0.3,0.1-0.6,0.2-0.8,0.3c-0.1,0-0.1,0-0.2,0.1c0,0,0.1,0,0.1,0.1C39.7,56.8,40,56.9,40.3,57z"/>
	<path class="st0" d="M47.8,11.9l0.2,0.5l0.6-0.2c1-0.3,2-0.6,3-1c0.4-0.2,0.9-0.3,1.3-0.5c0,1.1-0.1,2.2-0.1,3.3
		c0,1.7-0.1,3.3-0.1,5c0,1.7,0,3.3,0.1,5l0.1,5l0,1.1l1.1,0c2-0.1,4-0.1,6-0.3l0.9-0.1l0-0.8c-0.1-2.3-0.3-4.6-0.4-6.9
		c-0.1-2.3-0.1-4.6,0-6.9c0.1-2.3,0.3-4.6,0.5-6.9c0.2-2.3,0.2-4.6,0.2-6.9l0-1.1l-1,0c-1.4,0-2.8,0-4.2,0.1l-0.5,0l-0.2,0.3
		c-0.6,0.6-1.2,1.2-1.9,1.8c-0.7,0.5-1.4,1.1-2.1,1.6c-0.8,0.5-1.5,1-2.3,1.5c-0.9,0.5-1.7,1-2.4,1.5l0.6,2.3
		C47.3,10.2,47.5,11,47.8,11.9z"/>
	<path class="st0" d="M92.2,23.3c-1,0-2,0-3,0c-1.4,0-2.8,0-4.2,0c0.1-0.1,0.2-0.2,0.3-0.3c0.5-0.6,1-1.2,1.5-1.8l3.3-3.6
		c1.1-1.2,2.2-2.5,3-4c0.4-0.7,0.8-1.5,1-2.3c0.3-0.8,0.4-1.6,0.4-2.4c0-1-0.1-2-0.4-3c-0.3-1-0.8-1.9-1.5-2.7
		c-1.5-1.6-3.6-2.4-5.7-2.7c-2.1-0.3-4.3-0.4-6.4,0.2c-2.1,0.6-4,1.7-5.7,3.2l-0.8,0.7l0.6,0.9l3,4.2l0.8,1.1l1.2-1l0.8-0.7l0.8-0.6
		c0.5-0.4,1.1-0.7,1.8-0.9c0.6-0.2,1.2-0.3,1.8-0.3c0.6,0,1.1,0.1,1.6,0.4l0.2,0.1c0,0,0.1,0,0.1,0.1C86.5,7.9,86.6,8,86.6,8
		c0.1,0.1,0.2,0.4,0.2,0.6c0.1,0.6,0.1,1.1-0.1,1.6c-0.4,1.1-1.5,2.1-2.5,3.2L81,16.7l-0.8,0.8c-0.3,0.3-0.6,0.6-0.8,0.9
		c-0.5,0.6-1,1.2-1.5,1.9c-0.9,1.4-1.6,2.8-1.9,4.4c-0.2,0.8-0.2,1.6-0.2,2.4l0,1.1l0.1,1.2l0,0.4l0.4,0c1.6,0,3.1-0.1,4.7-0.1
		c1.6,0,3.1,0,4.7,0c1.6,0,3.1,0.1,4.7,0.1l4.7,0.2l0.7,0l0-0.8c0.1-1.7,0.2-3.3,0.2-5l0-0.9l-1,0C94.2,23.3,93.2,23.3,92.2,23.3z"
		/>
	<path class="st0" d="M127.7,18.4c-0.3-1.1-0.9-2.2-1.7-3.1c-0.3-0.4-0.7-0.7-1.1-1c0.6-0.5,1.1-1.1,1.4-1.8c0.4-0.6,0.7-1.3,0.8-2
		c0.2-0.7,0.2-1.5,0.2-2.2c-0.1-1.4-0.4-2.8-1.2-4.1C125.4,3,124.2,2,123,1.3c-1.3-0.7-2.6-1-3.9-1.2c-1.3-0.2-2.6-0.2-4,0
		c-0.7,0.1-1.3,0.2-2,0.4c-0.6,0.2-1.3,0.3-1.9,0.6l-1.8,0.8c-0.6,0.3-1.1,0.7-1.7,1l-0.8,0.5l0.4,0.8l2.3,4.3l0.4,0.8l0.7-0.5
		c0.7-0.5,1.4-0.8,2.1-1.2c0.8-0.3,1.5-0.6,2.3-0.7c0.8-0.1,1.6-0.1,2.4,0.1c0.7,0.2,1.4,0.7,1.7,1.3c0.3,0.6,0.3,1.5,0,2.2
		c-0.3,0.7-0.9,1.2-1.7,1.4c-0.7,0.3-1.6,0.3-2.4,0.3l-2.6-0.1l-0.5,0l0,0.5c-0.1,1.6-0.1,3.2-0.2,4.8l0,0.6l0.7,0
		c1,0.1,2.1,0.1,3.1,0.2c0.5,0,1,0.1,1.4,0.2c0.5,0.1,0.9,0.2,1.2,0.4c0.4,0.2,0.7,0.4,0.9,0.7c0.1,0.1,0.2,0.3,0.3,0.4
		c0.1,0.1,0.1,0.3,0.2,0.5c0.1,0.3,0.1,0.7,0.1,1.1c0,0.4-0.1,0.7-0.3,1c-0.7,1.2-2.6,1.5-4.6,1.5c-1,0-2-0.1-2.9-0.2
		c-0.9-0.2-1.9-0.5-2.9-0.8l-0.8-0.2l-0.1,0.7c-0.3,1.7-0.6,3.3-0.9,5l-0.1,0.3l0.3,0.1c0.7,0.2,1.4,0.5,2.1,0.6
		c0.7,0.1,1.4,0.3,2.1,0.4c0.7,0.1,1.4,0.2,2.1,0.3l2.1,0.1c2.1,0,4.2-0.2,6.2-0.9c2-0.7,3.9-2.1,4.9-4.2c0.5-1,0.8-2.1,0.9-3.2
		C128,20.7,128,19.5,127.7,18.4z"/>
</g>
</svg>
