<?xml version="1.0" encoding="utf-8"?>
<!-- Generator: Adobe Illustrator 23.0.0, SVG Export Plug-In . SVG Version: 6.00 Build 0)  -->
<svg version="1.1" id="Layer_1" xmlns="http://www.w3.org/2000/svg" xmlns:xlink="http://www.w3.org/1999/xlink" x="0px" y="0px"
	 viewBox="0 0 128 128" style="enable-background:new 0 0 128 128;" xml:space="preserve">
<style type="text/css">
	.st0{fill:#2D2D2D;}
</style>
<g>
	<path class="st0" d="M77.4,56.8c0.1-0.1,0.3-0.2,0.4-0.3c0,0,0,0-0.1,0c-0.4-0.1-0.7-0.1-1-0.2c-0.7-0.1-1.4-0.1-2-0.1
		c-0.7,0.1-1.3,0.2-1.9,0.4c-0.6,0.2-2.4,0.4-2.9,0.8c-0.4,0.6-0.9,1.1-1.3,1.6c-0.5,0.7-1,1.5-1.2,2.2c-0.2,0.7-0.3,1.4,0,2.2
		c0.3,0.8,0.9,1.5,1.7,2l0,0l0,0c0.2,0.2,0.4,0.2,0.7,0.3c0.3,0,0.6,0,0.9,0c0.6-0.1,1.3-0.2,1.9-0.4c1.3-0.3,2.5-0.6,3.7-1
		c1.2-0.4,2.5-0.6,3.7-1c1.3-0.3,3.7-0.8,5-1.2c0,0,0,0,0,0c0,0,0,0,0.1,0c0,0,0,0,0,0c0,0,0,0,0,0c0,0,0,0,0,0c0,0,0,0,0,0
		c0,0,0,0,0,0c0,0,0,0,0,0.1c0,0,0,0,0,0c0,0,0,0,0,0c0,0,0,0,0,0c-0.2,0.5-0.5,0.9-0.7,1.4c0.6,0.4,0.4,0.2,0.9,0.6
		c0.3-0.4,0.7-0.8,1-1.2c0.1-0.2,0.3-0.3,0.4-0.5l0.6-0.7l0.5,0.8c0.5,0.9,0.5,2.9,1.1,3.8c0,0,1.9-0.5,1.9-0.5
		c-0.2-0.6-0.9-1.8-1.1-2.4l-0.3-1l0.2-0.2l0.5-0.1l0.4-0.1l0.4,0.3c0.3,0.2,2.7,3.7,3,4c3.4-1-1.9-4-1.6-4.2
		c0.2-0.1,0.4-0.2,0.7-0.2c0.1,0,0.1,0,0.2,0l0.1,0l0.1,0l0.6,0.4l2.2,1.4l0.1,0c0,0,1.3-1.6,1.3-1.7c0,0,0.1-0.1,0.1-0.1l-3.6-0.5
		c-0.8-0.1-0.9-1.2-0.1-1.4c0.1,0,0.1,0,0.2-0.1c0,0,0-0.1-0.1-0.1c-0.2-0.2-0.4-0.4-0.7-0.5c-0.1,0-0.3,0-0.5,0l-0.7,0l-2.6,0.1
		c-0.5,0-1,0-1.5-0.1c-0.5-0.2-0.9-0.4-1.2-0.7c-0.7-0.5-1.5-0.9-2.3-1.2c-0.8-0.3-1.6-0.5-2.5-0.5c-1.7,0-4.4,0.3-6.1,0.9
		c-0.9,0.4-1.8,0.9-2.8,1.3c0.9-0.6,1.9-1.2,2.8-1.8L77.4,56.8z M92.8,63.9L92.8,63.9C92.8,63.9,92.8,63.9,92.8,63.9
		C92.8,63.9,92.8,63.9,92.8,63.9z"/>
	<path class="st0" d="M127,41.9c0,0-0.2-0.1-0.3-0.1c-0.1,0-0.2,0-0.3,0c0,0.2,0,0.3-0.1,0.5c-0.2,0.6-0.5,1.1-0.9,1.5l-0.1,0.1
		l-0.1,0.1c0,0-0.1,0.1-0.2,0.1l0.2,0c0.2,0,0.3-0.1,0.5-0.1c0.3-0.1,0.6-0.2,0.8-0.4c0.2-0.2,0.4-0.4,0.4-0.7
		C127.1,42.6,127.1,42.2,127,41.9L127,41.9z"/>
	<path class="st0" d="M92,58.7l0.1,0l0.7-0.1c0.2,0,0.5,0,0.8,0c0.6,0.1,1.1,0.4,1.5,0.9c0.2,0.2,0.3,0.5,0.4,0.8c0,0.1,0,0.1,0,0.2
		c0,0.1,0,0.1,0,0.3c0,0,0,0.1-0.1,0.1c0,0,0,0.1-0.1,0.1l2.5,0.6c0.5,0.1,0.8,0.8,0.5,1.2c-0.3,0.4-0.5,0.8-0.7,1
		c-0.1,0.2-0.2,0.3-0.5,0.6c0,0-0.1,0.1-0.2,0.1c-0.1,0.1-0.4,0.2-0.5,0.1c0,0-0.1,0-0.1,0l0,0l-0.1,0l-0.3-0.1l-0.6-0.1l0.7,0.6
		c0.5,0.4,0.4,1.2-0.2,1.6l0,0l-0.7,0.4c0,0-0.2,0.1-0.3,0.1c-0.1,0-0.3,0.1-0.4,0.1c-0.3,0-0.6,0-0.8-0.1c-0.1-0.1-0.3-0.1-0.4-0.2
		L93,66.9l-0.3-0.2l-0.6-0.5c-0.2-0.2-0.4-0.3-0.6-0.5c0,0.1,0,0.2,0.1,0.2l0.2,0.8L91,67c-0.5,0.2-1,0.4-1.6,0.6l-0.8,0.3l-0.3-0.7
		c-0.4-1-0.8-1.9-1.2-2.9c-0.2,0.2-0.5,0.4-0.7,0.7c-0.3,0.3-0.8,0.4-1.1,0.2l-0.5-0.3c-0.6-0.3-0.8-1.1-0.3-1.6
		c-1.1,0.7-2.7,1.3-3.6,1.8c-1.2,0.6-2.5,1.1-3.9,1.4c-1.3,0.3-2.7,0.5-4.1,0.5c-0.7,0-1.4-0.1-2.1-0.2c-0.3-0.1-0.7-0.1-1-0.3
		c-0.3-0.1-0.7-0.2-1-0.5c-0.3-0.2-0.6-0.4-0.9-0.7c-0.7,0.1-1.2,0.2-1.8,0.4c-0.6,0.2-1.2,0.4-1.8,0.5c-0.6,0.2-1.2,0.3-1.9,0.4
		c-0.3,0.1-0.6,0.1-1,0.2c-0.4,0-0.7,0-1.1,0c-0.7,0-1.4-0.1-2,0.1c-2.8,1.1-5.5,0.8-5.6,0.8c0.1,1,0,1.9,0,2.9l-0.2,3.1l-0.1,1.5
		c-0.1,0.5-0.1,1.1-0.3,1.6c-0.3,1.1-0.7,2.1-1.1,3c-0.5,1-1,1.9-1.6,2.7c-1.1,1.8-2.4,3.4-3.6,5c-0.3,0.4-0.6,0.8-0.7,1.2
		c0,0.1,0,0.1-0.1,0.2c0,0.1,0,0.2,0,0.3c0,0.2,0,0.4,0,0.6c0,0.4,13.6-3.5,20.7-4.9c7.5-1.5,15-2.3,22.6-2.7
		c3.8-0.2,7.6-0.2,11.4-0.1c3.8,0.1,7.6,0.3,11.4,0.7c3.8,0.3,7.6,0.8,11.3,1.3l1.4,0.2l0.7,0.1c0.2,0,0.4,0.1,0.6,0.1
		c0.8,0.1,1.5-0.2,1.9-0.7c0.4-0.6-0.2-1.3-0.1-2.2c0-0.9-0.1-1.7-0.4-2.6c-0.6-1.6-2-3-3.6-3.7c-0.8-0.4-1.7-0.5-2.6-0.6
		c-0.9-0.1-1.9-0.2-2.8-0.3c-0.9-0.1-1.9-0.2-2.8-0.1c-1,0.1-2-0.3-2.9-0.7c-1.7-0.9-3.9-2.1-5.2-3.5c-0.7-0.7-1.1-1.9-0.9-2.9
		c0.2-1.1,1-2,2-2.4c1.8-0.8,5-1.2,6.9-1.5c3.8-0.6,7.6-0.7,11.4-0.4c0.5,0,1,0.1,1.4,0.1l0,0c0-0.3,0-0.7-0.1-1l-0.1-1.4
		c-0.1-0.9-0.2-1.9-0.2-2.9c0-0.5-0.1-1-0.1-1.5c0-0.1,0-0.2,0-0.3c0-0.1,0-0.1,0-0.2c0-0.1-0.1-0.3-0.2-0.4c-0.3-0.5-1-0.7-1.5-0.5
		c-0.9,0.3-1.8,0.6-2.7,0.9c-1.8,0.6-3.7,1-5.6,1.4c-7.5,1.5-15.1,1.6-22.6,1C93.4,58.4,92.7,58.6,92,58.7z"/>
	<path class="st0" d="M36.4,91.1L36,90.3c-0.1-0.1-0.1-0.3-0.2-0.4l-0.1-0.5c-0.4-1.3-0.4-2.6-0.2-3.8c0.5-2.5,1.7-4.6,3-6.5
		c1.3-1.8,2.7-3.5,4.2-5.2c-0.2-0.6-0.3-1.1-0.4-1.6c-0.2-0.7-0.3-1.3-0.5-2c0-0.2-0.1-0.3-0.1-0.5c-0.1-0.6-0.7-0.9-1.2-0.6
		c-0.2,0.1-0.3,0.2-0.5,0.3c-0.5,0.2-1,0.4-1.5,0.5c-1,0.3-2.1,0.5-3.1,0.7c-1,0.2-2.1,0.3-3.1,0.5c-1,0.1-1.9,0.2-2.9,0.2
		c-0.2,0.3-0.4,0.6-0.7,0.7c-0.3,0.2-0.6,0.4-1,0.6c-0.6,0.3-1.2,0.6-1.9,0.8c-0.1,0.1-0.2,0.1-0.2,0.1l-0.2,0.4
		c-0.1,0.3-0.3,0.5-0.4,0.8c-0.3,0.6-0.6,1.1-0.8,1.7L22.7,80c-1,2.3-1.9,4.6-2.3,7c-0.5,2.4-0.5,4.9-0.4,7.4l0.2,1.9l0.3,1.8
		c0.1,0.3,0.1,0.7,0.2,1c1.1-0.7,2.3-1.3,3.5-1.8c1.5-0.7,3-1.3,4.6-1.8c1.6-0.5,3.1-1,4.7-1.4c0.8-0.2,1.6-0.4,2.4-0.5
		c0.5-0.1,0.8-0.3,1.3-0.5l-0.1-0.3L36.4,91.1z"/>
	<path class="st0" d="M126.9,37.1c-0.4-0.4-0.9-0.8-1.4-0.9c-1.1-0.4-2.5,0.1-3.4,0.9l-0.1,0.1l-0.1,0c-0.7-0.2-1.5-0.3-2.2-0.5
		c-0.7-0.1-1.5-0.3-2.2-0.4l-2.3-0.4c-0.8-0.1-1.5-0.3-2.3-0.5l0,0l-0.1-0.1c-0.6-0.3-1.2-0.8-1.7-1.2c-0.5-0.5-0.9-1-1.3-1.4
		c-0.7-0.9-1.6-1.6-2.6-2.2c-0.5-0.2-0.9-0.4-1.5-0.5c-0.5-0.1-1.1-0.1-1.7,0c-1.1,0.2-2.8,1.2-3.9,1.8l0,0c0,0,0,0,0,0c0,0,0,0,0,0
		c-1.1,0.3-2.2,0-3.2,0.2c-1.1,0.1-2.1,0.2-3.2,0.3l-0.3-0.1c0.1,0,0,0-0.1,0c-0.1,0-0.2,0-0.3,0.1c-0.2,0.1-0.4,0.2-0.7,0.3
		c-0.4,0.2-0.8,0.5-1.1,0.9L91,33.8l-0.2,0.1c-0.7,0.2-1.4,0.4-2.1,0.4c-0.4,0-0.7,0.1-1.1,0.1c-0.2,0-0.4,0-0.5,0l-0.1,0l-0.1,0
		c-0.1,0-0.2,0-0.2,0c-0.2-0.1-0.2-0.1-0.3-0.2c-0.6-0.5-1.1-0.9-1.6-1.1c-0.3-0.1-0.6-0.1-0.7,0c-0.2,0.1-0.3,0.4-0.4,0.7l0,0.1
		l-0.1,0.1c-0.5,0.5-1.1,0.9-1.6,1.2c-0.3,0.2-0.6,0.4-0.9,0.5c-0.3,0.2-0.6,0.3-1,0.4l0,0l-0.2,0c-0.4,0-0.8,0.1-1.3,0.2
		c-0.4,0.1-0.8,0.2-1.3,0.3c-0.4,0.1-0.8,0.3-1.2,0.5c-0.4,0.2-0.7,0.4-1.1,0.6l-0.3,0.2l-0.3,0l-1.9-0.2c-0.6-0.1-1.2-0.1-1.9-0.1
		c-1.2,0-2.4,0.2-3.5,0.6l-0.2,0.1l-0.1,0c-0.6,0-1.3,0.1-2,0.2c-0.7,0.2-1.4,0.4-2.2,0.6c-0.7,0.2-1.5,0.4-2.3,0.5
		c-0.8,0.1-1.6,0-2.3-0.4c0,0,0,0,0,0c-1.1-0.3-2.4-0.5-3.6-0.6c-1.2-0.1-2.5-0.2-3.7-0.3c-2.5-0.1-5,0-7.5,0.2
		c-4.9,0.4-9.9,1.6-14.1,4c-0.5,0.3-1,0.6-1.6,0.9l-1.5,1.1c-1,0.7-2.1,1.4-3,2.2c-0.6,0.5-1.3,1-1.9,1.4c0,0,0,0,0,0
		c0.5,0,0.9,0.2,1.3,0.4c0.1,0,0.2,0.1,0.3,0.1c0.1,0,0.1,0.1,0.2,0.1c0.1,0,0.1,0.1,0.2,0.2c0.1,0.1,0.1,0.1,0.4,0.2
		c0.1,0,0.1,0.1,0.2,0.2c0.1,0.1,0.1,0.3,0.1,0.4c0,0.1,0,0.1,0,0.2l0,0.1c0,0.1-0.1,0.1-0.1,0.2c-0.1,0.2-0.3,0.4-0.4,0.6
		c-0.3,0.3-0.7,0.7-1.2,0.8c-0.5,0.1-1.2,0-1.5-0.3c-0.4-0.3-0.6-0.7-0.7-1.2c-0.1-0.2-0.2-0.5-0.1-0.7c-0.8,0.6-1.5,1.3-2.2,2
		c-1.8,1.7-3.4,3.7-5.2,5.5c-0.5,0.5-0.9,0.9-1.4,1.3c-0.5,0.4-0.9,0.8-1.3,1.2c-0.8,0.9-1.6,1.8-2.3,2.8c-0.1,0.1-0.2,0.3-0.2,0.4
		c0.1,0,0.2,0,0.2-0.1c0.1,0,0.2-0.1,0.3-0.1c0.1,0,0.2,0,0.4,0.1c0.1,0.1,0.2,0,0.4,0c0.1,0,0.2,0,0.2,0.1c0.1,0,0.2,0.1,0.2,0.2
		c0,0.1,0.1,0.2,0.1,0.2c0,0.1,0,0.1,0,0.2c0,0.2,0,0.4,0,0.6c-0.1,0.3-0.2,0.8-0.5,1.2c-0.3,0.4-0.8,0.6-1.2,0.6
		c-0.4,0-0.8-0.1-1.1-0.4c-0.1-0.1-0.2-0.2-0.3-0.3c-1.2,2.4-2.2,4.9-2.9,7.5c0,0,0.1,0,0.1,0c0.1-0.1,0.2-0.1,0.4-0.1l0.2,0
		c0.1,0,0.2,0,0.2,0.1c0.2,0.1,0.3,0,0.6-0.1c0.1,0,0.4,0,0.6,0.1c0.2,0.1,0.2,0.3,0.3,0.4c0.1,0.3,0.1,0.5,0.2,0.8
		C5,73.8,5,74.4,4.7,75c-0.3,0.5-0.9,0.9-1.4,1c-0.5,0.1-1,0.1-1.5-0.1c-0.1,0-0.2-0.1-0.3-0.1c0,0.1,0,0.1,0,0.2
		c-0.4,2.1-0.8,4.3-1.1,6.4c0.1-0.2,0.3-0.4,0.4-0.5c0.1-0.1,0.2-0.2,0.4-0.3c0,0,0.1,0,0.1,0c0,0,0,0,0.1,0c0,0,0.1,0,0.1,0
		c0.1,0,0.1-0.1,0.2-0.2C1.9,81.1,2.1,81,2.3,81c0.3,0,0.4,0.1,0.6,0.2c0.1,0.1,0.2,0.2,0.3,0.3c0.2,0.2,0.3,0.4,0.4,0.7
		c0.3,0.5,0.3,1.1,0.3,1.7c-0.1,0.5-0.2,1.1-0.7,1.5c-0.3,0.2-0.6,0.2-0.8,0.2c-0.3,0-0.5-0.1-0.7-0.2c-0.4-0.1-1-0.2-1.4-0.7
		c-0.2,2-0.2,4-0.2,6c0,0.2,0,0.4,0,0.5c0.2-0.2,0.4-0.3,0.6-0.3C0.9,91,1.1,91,1.4,91c0.4,0,1-0.1,1.5,0.2c0.5,0.3,0.7,0.9,0.6,1.5
		c-0.1,0.5-0.2,1-0.5,1.5c-0.1,0.1-0.1,0.2-0.3,0.3c0,0-0.1,0-0.1,0.1c0,0,0,0-0.1,0c0,0-0.1,0-0.1,0.1c-0.1,0.1-0.1,0.2-0.2,0.3
		C2.3,95,2.2,95.2,2,95.3c-0.2,0.1-0.4,0-0.6-0.1C1.2,95.2,1.1,95.1,1,95c-0.2-0.2-0.4-0.3-0.6-0.5c0,0,0,0-0.1-0.1
		c0.4,2.6,1.1,5.1,2.1,7.5c0-0.1,0.1-0.2,0.1-0.3c0.2-0.4,0.5-0.8,0.9-1.1c0.1-0.1,0.2-0.2,0.3-0.2c0.1,0,0.2-0.1,0.2-0.1
		c0.1-0.1,0.2-0.3,0.5-0.5c0.1-0.1,0.4-0.1,0.5-0.1c0.2,0,0.3,0.1,0.4,0.2c0.2,0.1,0.4,0.3,0.5,0.5c0.4,0.5,0.5,1,0.4,1.5
		c0,0.2-0.1,0.5-0.2,0.7c-0.1,0.1-0.1,0.2-0.3,0.3c-0.1,0.1-0.2,0.2-0.3,0.2c-0.5,0.2-0.9,0.2-1.3,0.1l-0.6,0c-0.2,0-0.3,0-0.5-0.1
		c0.3,0.6,0.6,1.3,1,1.9c0.8,1.4,1.7,2.8,2.7,4.1c0-0.1,0-0.1-0.1-0.2c0-0.3-0.1-0.6,0.2-0.9c0.1-0.1,0.3-0.2,0.5-0.2
		c0.1,0,0.3,0,0.4,0c0.2,0,0.5-0.1,0.9,0c0.3,0.2,0.5,0.5,0.4,0.8c-0.1,0.3-0.2,0.5-0.4,0.8c0,0.1-0.1,0.1-0.2,0.2c0,0-0.1,0-0.1,0
		c0,0,0,0,0,0c0,0,0,0,0,0l0,0.1c0,0.1-0.1,0.2-0.3,0.3c-0.2,0.1-0.3,0-0.4,0c-0.1,0-0.2-0.1-0.2-0.1c-0.1,0-0.1-0.1-0.1-0.1
		c0.3,0.4,0.7,0.9,1,1.3c1,1.2,2.2,2.4,3.3,3.6c0-0.1,0.1-0.2,0.2-0.3c0.1-0.1,0.3-0.2,0.5-0.2c0.1,0,0.3,0,0.4,0
		c0.2,0,0.5-0.1,0.9,0c0.3,0.2,0.5,0.5,0.4,0.8c-0.1,0.3-0.2,0.5-0.4,0.8c0,0.1-0.1,0.1-0.2,0.2c0,0-0.1,0-0.1,0c0,0,0,0,0,0
		c0,0,0,0,0,0l0,0.1c0.1,0.1,0.2,0.2,0.3,0.3c3.7,3.3,8,6,12.6,7.9c4.6,1.9,9.4,3.1,14.3,3.4c1.2,0.1,2.5,0.1,3.7,0.1
		c1.2-0.1,2.4-0.2,3.5-0.6c2.2-0.7,4.2-2.1,5.7-3.9l0.1-0.1c0,0,0,0,0,0c0,0,0,0,0,0c0,0,0,0,0,0c0,0,0,0,0,0c0,0,0,0,0,0
		c0,0,0,0,0,0l-0.1,0l-0.1,0l-0.5-0.1l-0.9-0.1c-1.2-0.1-2.4-0.2-3.6-0.1c-2.5,0-5.1-0.1-7.7-0.5c-2.5-0.4-5-1.1-7.4-2.1
		c-2.5-1-4.7-2.6-6.5-4.5c-1.8-1.9-3.2-4.1-4.4-6.5c-1.2-2.3-2.1-4.8-2.8-7.3c-0.3-1.3-0.6-2.5-0.8-3.8l-0.2-1.9l-0.1-1.9
		c-0.1-2.6,0-5.2,0.5-7.8c0.5-2.6,1.5-5,2.7-7.3l1.7-3.4c0.3-0.6,0.6-1.1,0.9-1.7c0.2-0.3,0.3-0.6,0.5-0.8c0.1-0.1,0.2-0.3,0.3-0.4
		c0-0.1,0.1-0.1,0.2-0.2c0,0,0.1-0.1,0.1-0.1c0,0,0.1-0.1,0.1-0.1c0.1,0,0.1,0,0.4-0.1c0.5-0.1,0.9-0.3,1.4-0.5
		c0.4-0.2,0.8-0.4,1.1-0.6c0.2-0.2,0.5-0.4,0.5-0.6l0.1-0.3l0.3,0c1,0,1.7-0.2,2.7-0.3c0.9-0.1,1.7-0.1,2.6-0.2
		c1.3-0.2,2.5-0.3,3.8-0.6c0.5-0.1,1-0.2,1.5-0.4c0.5-0.2,1.5-1.9,1.4-2.6c0-0.1,0-0.1,0.1-0.1c0,0,0.1,0,0.1,0.1
		c0.5,1.3,0.9,2.5,1.3,3.8l0.7,1.9c0.2,0.6,0.4,1.3,0.7,1.9l0.1,0.3l-0.2,0.3c-1.4,1.9-2.7,3.7-3.9,5.6c-0.6,1-1.1,1.9-1.6,2.9
		c-0.5,1-0.8,2-1,3c-0.2,1-0.2,2.1,0.1,3l0.1,0.4c0,0.1,0.1,0.3,0.1,0.4l0.3,0.8l0.6,1.6l2.2,6.3c0.1,0.2,0.1,0.4,0.1,0.5
		c0,1.3,0.2,6.9,0.3,7c0.3,0.4,0.7,0,0.7,0c0.2-0.1,0.3-1.7,0.4-3.2c0-0.6,0.8-0.7,1.1-0.2l2.6,5.8c0.6-1.3,1.1-2.8,1.2-4.2
		c0.1-0.9,0-1.9-0.2-2.7c-0.3-0.9-0.6-1.9-1-2.8c-0.7-1.9-1.6-3.7-2.3-5.7c-0.3-1-0.6-2.1-0.6-3.3c0-0.3,0-0.6,0.1-1
		c0-0.2,0-0.3,0.1-0.5c0.1-0.2,0.1-0.3,0.2-0.5c0.3-0.6,0.6-1,0.9-1.4c1.2-1.7,2.5-3.2,3.7-4.8c0.6-0.8,1.1-1.6,1.6-2.5
		c0.5-0.8,0.9-1.7,1.2-2.6c0.2-0.5,0.3-0.9,0.4-1.4l0.2-1.5l0.5-3c0.3-2,0.6-4,0.1-6c0-0.1,0-0.1,0.1-0.1c0,0,0.1,0,0.1,0.1
		c0.3,0.7,0.5,1.5,0.5,2.3c0.5-0.3,1.1-0.4,1.6-0.6c0.7-0.1,1.3-0.3,2-0.2c0.7,0.1,1.4,0.3,2,0.3c0.7,0,1.3-0.2,1.9-0.6
		c0.3-0.1,0.6-0.3,0.9-0.5c0.3-0.2,0.6-0.3,0.9-0.4c0.6-0.3,1.3-0.5,2-0.7c0.7-0.1,1.4-0.1,2.2,0c0.3,0,0.6,0.1,0.8,0.2
		c-0.1-0.1-0.2-0.2-0.4-0.4c-0.3-0.4-0.6-0.9-0.8-1.5c-0.1-0.6-0.1-1.2,0.1-1.8c0.3-1.1,1.1-2,1.8-2.6c0.6-0.5,2.6-2.5,4.7-3.1
		c0.8-0.2,1.6-0.2,2.3-0.2c0.8,0,1.5,0.2,2.2,0.4c0.4,0.1,0.7,0.2,1.1,0.3c0.1,0,0.3,0.1,0.5,0.1c0.6,0.1,0.7,0.8,0.2,1.1
		c-0.4,0.3-0.8,0.5-1,0.6l-0.4,0.2c1.5-0.4,3.4-0.7,4.7-0.7c0.9,0,1.8,0.1,2.7,0.4c0.9,0.3,1.6,0.7,2.4,1.1c0.4,0.2,0.8,0.4,1.1,0.5
		c0.3,0.1,0.7,0.1,1.1,0l1.4-0.1c1.3-0.9,2.6-1.6,3.9-2.3c1.3-0.7,2.5-1.4,3.8-2.2c1.2-0.8,2.4-1.6,3.6-2.5c0.6-0.4,1.2-0.9,1.8-1.3
		c-2.1,0.1-6.8,0.3-7.2,0.4c-0.1,0-0.1,0-0.2,0l0,0c-0.5-0.1-0.9-0.2-1.4-0.3c-0.4-0.1-0.8-0.3-1.2-0.5c-0.8-0.4-1.5-0.8-2.2-1.4
		c-0.6-0.6-1.2-1.2-1.7-1.8c-0.5-0.7-0.9-1.4-1.2-2.1c0.5,0.7,1,1.3,1.6,1.8c0.6,0.6,1.2,1,1.9,1.4c0.7,0.4,1.4,0.6,2.1,0.8
		c0.4,0.1,0.7,0.1,1.1,0.2c0.3,0,0.8,0,1,0c0.5-0.1,5.3-0.1,7.4-0.4c2.4-0.4,4.8-0.5,7.2-0.7c1.2-0.1,2.4-0.1,3.6-0.2
		c1.2-0.1,2.4-0.3,3.6-0.7c1.2-0.4,2.3-0.8,3.5-1.1c0.6-0.2,1.1-0.3,1.6-0.5c0.2-0.1,0.4-0.2,0.6-0.3c0.1,0,0.1-0.1,0.2-0.2
		c0.1-0.1,0.2-0.2,0.4-0.4l0.2-0.2l0.1,0c-0.3-0.1-0.6-0.3-0.6-0.6c0-0.3,0-0.2,0-0.2l0-0.1l0-0.1c0-0.2,0-0.5-0.1-0.7
		c0-0.3-0.1-0.5-0.1-0.8c-0.4-0.1-0.9-0.2-1.3-0.4c-0.2,0.2-0.3,0.2-0.5,0.4c0.1,1.2-0.6,2.1-0.9,2.5c-0.1,0.2-0.4,0.3-0.6,0.3
		c-0.1,0-0.1,0-0.2,0c-0.3-0.1-0.5-0.4-0.5-0.7c0-0.2-0.1-0.6-0.3-0.9c-0.3,0.1-0.5,0.2-0.8,0.3c-0.3,0.1-0.6,0.1-0.9,0.2
		c0,0.2,0,0.3-0.1,0.5c-0.2,0.6-0.5,1.1-0.9,1.5l-0.1,0.1l-0.1,0.1c-0.1,0.1-0.2,0.1-0.3,0.2c-0.4,0.2-0.9-0.1-1-0.6
		c0-0.3,0-0.2,0-0.2l0-0.1l0-0.1c0-0.2,0-0.5-0.1-0.7c0-0.4-0.1-0.8-0.1-1.2c-0.2-0.1-0.4-0.2-0.6-0.2c-0.5-0.2-1.1-0.3-1.6-0.4
		c-0.1,0.6-0.5,1.1-0.6,1.4c-0.1,0.2-0.3,0.3-0.6,0.3c-0.1,0-0.1,0-0.2,0c-0.3-0.1-0.5-0.3-0.5-0.6c0-0.2-0.2-0.6-0.3-0.8
		c0-0.1-0.1-0.2-0.1-0.3c-0.1,0-0.1,0-0.2,0c-0.7,0.1-2.2,1-2.5,1.2c0,0-0.1,0-0.1,0c-0.5,0.1-0.8,0.1-1.2,0.2c-0.4,0-0.7,0-1.1-0.1
		c-0.7-0.1-1.4-0.3-2.1-0.5c-0.7-0.2-1.3-0.5-1.9-0.8c-0.3-0.2-0.6-0.3-0.9-0.5l-0.9-0.5c-1-0.5-2.2-0.8-3.4-0.9
		c-1.2-0.1-2.4-0.1-3.7,0c1.2-0.3,2.4-0.4,3.7-0.4c1.2,0,2.5,0.1,3.7,0.6l0,0l0.9,0.4c0.3,0.1,0.6,0.3,0.9,0.4
		c0.6,0.2,1.2,0.4,1.9,0.5c0.6,0.1,1.2,0.2,1.9,0.2c0.3,0,0.6,0,0.9-0.1c0.3,0,0.6-0.1,0.8-0.2l0,0c0.4-0.2,3.3-0.5,4.5-0.7
		c0.1,0,0.5,0,0.7-0.1c0,0,0,0,0.1,0c0.8,0,1.6,0,2.3,0.1c0.7,0.1,1.4,0.3,2,0.6c0.3,0,0.7-0.1,1.1-0.3c0.4-0.2,0.9-0.4,1.3-0.6
		c0.9-0.4,1.7-1,2.6-1.5l0.5-0.3l0.5,0.2c1.1,0.5,2.4,0.8,3.5,0.7c0.6,0,1.1-0.2,1.4-0.4c0.1,0,0.1-0.1,0.1-0.1c0,0,0-0.1,0-0.2
		c0-0.2,0-0.4-0.1-0.7C127.7,38.1,127.4,37.5,126.9,37.1z M15.2,53.3c0.3-0.4,0.8-0.6,1.3-0.6c0.5,0,0.9,0.2,1.3,0.3
		c0.1,0,0.2,0.1,0.3,0.1c0.1,0,0.1,0.1,0.2,0.1c0.1,0,0.1,0.1,0.1,0.2c0,0.2,0.1,0.1,0.4,0.3c0.1,0,0.1,0.1,0.2,0.2
		c0.1,0.1,0.1,0.2,0.1,0.3c0,0.1,0,0.2-0.1,0.2c0,0.1-0.1,0.1-0.1,0.2c-0.1,0.2-0.3,0.4-0.4,0.5c-0.3,0.3-0.7,0.6-1.2,0.8
		c-0.5,0.1-1.1,0-1.4-0.3c-0.4-0.3-0.6-0.6-0.8-1.1C14.7,54.3,14.8,53.7,15.2,53.3z M11.4,58.7c0.3-0.2,0.7-0.3,1-0.4
		c0.1,0,0.2,0,0.3-0.1c0.1,0,0.2,0,0.4,0.1c0.1,0.1,0.1,0,0.4,0c0.1,0,0.1,0,0.2,0.1c0.1,0,0.2,0.1,0.2,0.2c0.1,0.2,0.1,0.3,0.1,0.4
		c0,0.2,0,0.4,0,0.6c0,0.3-0.1,0.7-0.4,1.1c-0.3,0.3-0.7,0.5-1.1,0.5c-0.4,0-0.7-0.1-1-0.4c-0.3-0.2-0.6-0.6-0.5-1
		C10.8,59.2,11.1,58.9,11.4,58.7z M8,88.8c-0.1,0.3-0.2,0.5-0.4,0.8c0,0.1-0.1,0.1-0.2,0.2c0,0-0.1,0-0.1,0c0,0,0,0,0,0c0,0,0,0,0,0
		l0,0.1c0,0.1-0.1,0.2-0.3,0.3c-0.2,0.1-0.3,0-0.4,0c-0.1,0-0.2-0.1-0.2-0.1c-0.1-0.1-0.2-0.2-0.3-0.2c-0.3-0.2-0.4-0.5-0.4-0.8
		c0-0.3-0.1-0.6,0.2-0.9C6,88,6.2,88,6.4,87.9c0.1,0,0.3,0,0.4,0c0.2,0,0.5-0.1,0.9,0C8,88.1,8.1,88.5,8,88.8z M9.5,81.3
		c-0.1,0.4-0.2,0.7-0.4,1c0,0.1-0.1,0.2-0.2,0.2c0,0-0.1,0-0.1,0.1c0,0,0,0,0,0c0,0,0,0,0,0c0,0,0,0.1-0.1,0.2
		c0,0.1-0.1,0.2-0.3,0.3c-0.2,0.1-0.4,0-0.5,0c-0.1,0-0.2-0.1-0.3-0.1c-0.2-0.1-0.3-0.2-0.4-0.3c-0.3-0.3-0.5-0.7-0.5-1
		c-0.1-0.4-0.1-0.7,0.2-1.2c0.2-0.2,0.4-0.3,0.5-0.3c0.2,0,0.3,0,0.5,0c0.3,0,0.7-0.1,1.1,0.1C9.4,80.5,9.6,81,9.5,81.3z M11.3,72.8
		c-0.1,0.4-0.2,0.8-0.4,1.1c0,0.1-0.1,0.2-0.2,0.3c0,0-0.1,0-0.1,0.1c0,0,0,0,0,0c0,0,0,0-0.1,0.1c0,0-0.1,0.1-0.1,0.2
		c0,0.1-0.1,0.2-0.3,0.3c-0.2,0.1-0.4,0-0.5,0c-0.1,0-0.2-0.1-0.3-0.2c-0.2-0.1-0.3-0.2-0.4-0.4c-0.3-0.3-0.5-0.7-0.6-1.1
		c-0.1-0.4-0.1-0.8,0.2-1.3c0.2-0.2,0.4-0.3,0.6-0.3c0.2,0,0.4,0,0.5,0c0.3,0,0.7-0.1,1.2,0.1C11.2,71.9,11.3,72.4,11.3,72.8z
		 M13.8,67.9c-0.4,0.3-0.9,0.4-1.3,0.4c-0.5-0.1-0.8-0.3-1.1-0.7c-0.3-0.4-0.3-0.9-0.1-1.3c0.2-0.4,0.5-0.7,0.9-0.9
		c0.4-0.2,0.8-0.2,1.2-0.2c0.1,0,0.2,0,0.3,0c0.1,0,0.2,0,0.4,0.1c0,0,0.1,0.1,0.1,0.1c0,0,0,0,0,0c0,0,0,0,0.1,0c0,0,0.1,0,0.3,0
		c0.1,0,0.2,0,0.3,0.2c0.1,0.1,0.1,0.2,0.1,0.3c0,0.2,0,0.3-0.1,0.4c-0.1,0.2-0.2,0.4-0.3,0.6C14.4,67.2,14.2,67.6,13.8,67.9z
		 M16.6,73.7c-0.4,0.2-0.7,0.2-1.1,0.3c-0.1,0-0.2,0-0.3,0c0,0-0.1,0-0.1-0.1c0,0,0,0,0,0c0,0,0,0-0.1,0c-0.1,0-0.1,0-0.2,0
		c-0.1,0-0.2,0-0.4-0.1c-0.2-0.1-0.2-0.3-0.3-0.4c0-0.1,0-0.2,0-0.3c0-0.2,0-0.4,0-0.6c0.1-0.5,0.3-0.8,0.5-1.1
		c0.3-0.3,0.6-0.6,1.1-0.6c0.2,0,0.5,0.1,0.6,0.3c0.1,0.1,0.2,0.3,0.3,0.4c0.2,0.3,0.5,0.5,0.6,1C17.2,73.1,16.9,73.5,16.6,73.7z
		 M21.5,62.1c-0.1,0.2-0.2,0.4-0.3,0.6c-0.2,0.3-0.4,0.7-0.8,1c-0.4,0.3-0.9,0.4-1.3,0.4c-0.5-0.1-0.8-0.3-1.1-0.7
		c-0.3-0.4-0.3-0.9-0.1-1.3c0.2-0.4,0.5-0.7,0.9-0.9c0.4-0.2,0.8-0.2,1.2-0.2c0.1,0,0.2,0,0.3,0c0.1,0,0.2,0,0.4,0.1
		c0,0,0.1,0.1,0.1,0.1c0,0,0,0,0,0c0,0,0,0,0.1,0c0,0,0.1,0,0.3,0c0.1,0,0.2,0,0.3,0.2c0.1,0.1,0.1,0.2,0.1,0.3
		C21.5,61.8,21.5,61.9,21.5,62.1z M24.8,55.2c-0.1,0.2-0.2,0.4-0.3,0.6c-0.2,0.3-0.4,0.7-0.8,1c-0.4,0.3-0.9,0.4-1.3,0.4
		c-0.5-0.1-0.8-0.3-1.1-0.7c-0.3-0.4-0.3-0.9-0.1-1.3c0.2-0.4,0.5-0.7,0.9-0.9c0.4-0.2,0.8-0.2,1.2-0.2c0.1,0,0.2,0,0.3,0
		c0.1,0,0.2,0,0.4,0.1c0,0,0.1,0.1,0.1,0.1c0,0,0,0,0,0c0,0,0,0,0.1,0c0,0,0.1,0,0.3,0c0.1,0,0.2,0,0.3,0.2c0.1,0.1,0.1,0.2,0.1,0.3
		C24.8,55,24.8,55.1,24.8,55.2z M26.8,47.1c-0.3-0.4-0.2-0.9,0.1-1.3c0.3-0.4,0.7-0.6,1.2-0.5c0.4,0,0.8,0.3,1.1,0.4
		c0.1,0,0.2,0.1,0.3,0.1c0,0,0.1,0.1,0.1,0.1c0,0,0.1,0.1,0.1,0.2c0,0.1,0,0,0.1,0.1c0,0,0.1,0,0.2,0.1c0.1,0,0.1,0.1,0.2,0.2
		c0.1,0.1,0.1,0.3,0.1,0.4c0,0.1,0,0.1,0,0.2l0,0.1c0,0.1-0.1,0.1-0.1,0.2c-0.1,0.2-0.2,0.3-0.4,0.5c-0.2,0.2-0.6,0.6-1.1,0.7
		c-0.5,0.1-1,0-1.4-0.3C27,47.9,26.8,47.5,26.8,47.1z M30.4,51.7c0,0.1-0.1,0.2-0.1,0.3c-0.1,0.2-0.2,0.3-0.3,0.4
		c-0.2,0.2-0.4,0.5-0.8,0.7c-0.3,0.2-0.7,0.3-1.1,0.2c-0.4-0.1-0.7-0.3-0.9-0.7c-0.2-0.4,0-0.8,0.2-1.1c0.2-0.3,0.5-0.5,0.9-0.6
		c0.3-0.1,0.7,0,1,0c0.2,0,0.3,0,0.5,0c0,0,0.1,0,0.1,0.1c0,0,0.1,0.2,0.1,0.1c0,0,0,0,0,0c0,0,0.1,0,0.2,0c0.1,0,0.2,0.1,0.2,0.3
		c0,0.1,0,0.1,0,0.2C30.4,51.6,30.4,51.6,30.4,51.7z M31.6,44.4c-0.4-0.3-0.5-0.7-0.6-1.2c-0.2-0.4-0.1-1,0.3-1.4
		c0.4-0.4,0.9-0.5,1.3-0.4c0.4,0.1,0.8,0.3,1.2,0.5c0.1,0.1,0.2,0.1,0.3,0.2c0,0,0.1,0.1,0.1,0.1c0,0,0.1,0.1,0.1,0.2
		c0,0.1,0,0.1,0.1,0.1c0,0,0.1,0.1,0.2,0.1c0.1,0,0.1,0.1,0.2,0.2c0.1,0.1,0,0.3,0,0.4c0,0.1,0,0.1,0,0.2l-0.1,0.1
		c0,0.1-0.1,0.1-0.1,0.2c-0.2,0.2-0.3,0.3-0.5,0.5c-0.3,0.2-0.7,0.6-1.2,0.6C32.5,44.9,31.9,44.7,31.6,44.4z M37.3,48.6
		c0,0,0,0.1,0,0.1c-0.1,0.1-0.1,0.2-0.2,0.3c-0.1,0.2-0.2,0.3-0.4,0.4c-0.2,0.2-0.5,0.5-0.9,0.6c-0.4,0.1-0.8,0.2-1.2,0
		c-0.4-0.1-0.7-0.4-0.8-0.8c-0.1-0.4,0.1-0.8,0.3-1.1c0.3-0.3,0.6-0.4,1-0.5c0.4,0,0.7,0.1,1,0.1c0.2,0,0.3,0,0.5,0.1
		c0,0,0.1,0,0.1,0.1c0,0,0,0.2,0,0.1c0,0,0,0,0,0c0,0,0.1,0,0.2,0.1c0,0,0.2,0.1,0.2,0.3C37.4,48.4,37.3,48.5,37.3,48.6z M42.4,43.7
		c-0.1,0.1-0.1,0.1-0.1,0.2c-0.2,0.2-0.4,0.4-0.6,0.5c-0.4,0.3-0.9,0.6-1.5,0.6c-0.6,0-1.2-0.2-1.6-0.6C38.3,44,38.1,43.5,38,43
		c-0.1-0.5,0.1-1.1,0.5-1.5c0.5-0.4,1.1-0.5,1.6-0.4c0.5,0.1,0.9,0.4,1.3,0.7c0.1,0.1,0.2,0.1,0.3,0.2c0.1,0.1,0.2,0.2,0.3,0.4
		c0,0.1,0,0.1,0.1,0.2c0.1,0.1,0.1,0.1,0.3,0.2c0.1,0.1,0.1,0.1,0.2,0.3c0,0.1,0,0.3,0,0.4c0,0.1,0,0.1-0.1,0.2L42.4,43.7z
		 M45.9,48.1c-0.1,0.1-0.2,0.2-0.2,0.3c-0.2,0.1-0.3,0.2-0.4,0.3c-0.3,0.2-0.6,0.3-1,0.4c-0.4,0-0.8-0.1-1.2-0.3
		c-0.3-0.3-0.5-0.6-0.5-1c0-0.4,0.2-0.8,0.5-1c0.3-0.2,0.7-0.3,1.1-0.3c0.4,0.1,0.7,0.3,1,0.4c0.2,0.1,0.3,0.1,0.5,0.3
		c0.1,0.1,0,0.2,0,0.2c0,0,0,0,0,0c0,0,0.1,0,0.2,0.1c0,0,0.1,0.1,0.1,0.3C46,47.9,46,48.1,45.9,48.1z M49.9,42.4
		c0,0.1,0,0.1-0.1,0.2l-0.1,0.1c-0.1,0.1-0.1,0.1-0.2,0.2c-0.2,0.2-0.4,0.4-0.7,0.5c-0.4,0.3-1,0.6-1.6,0.7c-0.7,0-1.3-0.2-1.7-0.7
		c-0.4-0.4-0.6-1-0.7-1.6c-0.1-0.6,0.1-1.2,0.6-1.6c0.5-0.4,1.1-0.5,1.7-0.4c0.6,0.1,1,0.4,1.5,0.7c0.1,0.1,0.2,0.1,0.3,0.2
		c0.1,0.1,0.2,0.2,0.3,0.5c0,0.1,0,0.1,0.1,0.2c0.1,0.1,0.2,0.1,0.3,0.2c0.1,0.1,0.1,0.2,0.2,0.3C49.9,42.1,49.9,42.3,49.9,42.4z
		 M54.3,51.6c0,0.1,0,0.1,0.1,0.3c0,0.1,0,0.2-0.1,0.3c-0.1,0.1-0.2,0.2-0.3,0.3c0,0-0.1,0-0.1,0.1l-0.1,0c-0.1,0-0.1,0-0.2,0
		c-0.2,0-0.4,0-0.6,0c-0.3,0-0.8-0.1-1.2-0.5c-0.4-0.3-0.6-0.9-0.6-1.3c0-0.5,0.2-0.8,0.5-1.2c0.2-0.4,0.7-0.7,1.1-0.7
		c0.5,0,0.9,0.3,1.1,0.6c0.2,0.4,0.3,0.8,0.4,1.2c0,0.1,0,0.2,0.1,0.3c0,0,0,0.1,0,0.2c0,0.1,0,0.2-0.1,0.2
		C54.3,51.6,54.3,51.6,54.3,51.6z M57.3,44c-0.3,0.2-0.5,0.3-0.8,0.4c-0.4,0.2-1.1,0.4-1.7,0.3c-0.6-0.1-1.2-0.5-1.5-1.1
		c-0.3-0.5-0.4-1.1-0.3-1.7c0-0.6,0.4-1.2,1-1.4c0.6-0.3,1.2-0.2,1.8,0c0.5,0.2,0.9,0.7,1.3,1c0.1,0.1,0.2,0.2,0.3,0.3
		c0.1,0.1,0.2,0.2,0.2,0.5c0,0.1,0,0.1,0,0.2c0,0.1,0.1,0.1,0.2,0.3c0,0.1,0.1,0.2,0.1,0.3c0,0.1,0,0.3-0.1,0.4
		c0,0.1-0.1,0.1-0.1,0.2l-0.1,0.1C57.4,43.9,57.3,43.9,57.3,44z M60.9,47.8c-0.1,0.1-0.2,0.2-0.2,0.3c-0.2,0.1-0.3,0.2-0.4,0.3
		c-0.3,0.2-0.6,0.3-1,0.4c-0.4,0-0.8-0.1-1.2-0.3c-0.3-0.3-0.5-0.6-0.5-1c0-0.4,0.2-0.8,0.5-1c0.3-0.2,0.7-0.3,1.1-0.3
		c0.4,0.1,0.7,0.3,1,0.4c0.2,0.1,0.3,0.1,0.5,0.3c0.1,0.1,0,0.2,0,0.2c0,0,0,0,0,0c0,0,0.1,0,0.2,0.1c0,0,0.1,0.1,0.1,0.3
		C61,47.6,61,47.8,60.9,47.8z M61,44.1c-0.4-0.4-0.6-0.8-0.6-1.4c-0.2-0.5,0-1.1,0.5-1.5c0.4-0.4,1-0.5,1.5-0.4
		c0.5,0.1,0.9,0.4,1.3,0.6c0.1,0.1,0.2,0.1,0.3,0.2c0.1,0.1,0.2,0.2,0.3,0.4c0,0.1,0,0.1,0.1,0.2c0.1,0,0.1,0.1,0.3,0.2
		c0.1,0,0.1,0.1,0.2,0.3c0.1,0.1,0,0.3,0,0.4c0,0.1,0,0.1-0.1,0.2l-0.1,0.1c0,0.1-0.1,0.1-0.1,0.2c-0.2,0.2-0.4,0.4-0.5,0.5
		c-0.3,0.3-0.8,0.6-1.4,0.6C62,44.7,61.4,44.5,61,44.1z M66.3,51.2c0,0.1,0,0.1,0.1,0.3c0,0.1,0,0.2-0.1,0.3c0,0.1-0.2,0.2-0.3,0.3
		c0,0-0.1,0-0.1,0.1l-0.1,0c-0.1,0-0.1,0-0.2,0c-0.2,0-0.4,0-0.6,0c-0.3,0-0.8-0.1-1.2-0.5c-0.4-0.3-0.6-0.9-0.6-1.3
		c0-0.5,0.2-0.8,0.5-1.2c0.2-0.4,0.7-0.7,1.1-0.7c0.5,0,0.9,0.3,1.1,0.6c0.2,0.4,0.3,0.8,0.4,1.2c0,0.1,0,0.2,0.1,0.3
		c0,0,0,0.1,0,0.2c0,0.1,0,0.2-0.1,0.2C66.3,51.2,66.3,51.2,66.3,51.2z M67.8,42.1c-0.4-0.3-0.5-0.7-0.6-1.1
		c-0.2-0.4-0.2-0.9,0.2-1.3c0.3-0.4,0.8-0.6,1.2-0.5c0.4,0,0.8,0.3,1.1,0.4c0.1,0,0.2,0.1,0.3,0.1c0,0,0.1,0.1,0.1,0.1
		c0,0,0.1,0.1,0.1,0.2c0,0.1,0,0,0.1,0.1c0,0,0.1,0,0.2,0.1c0.1,0,0.1,0.1,0.2,0.2c0.1,0.1,0.1,0.3,0.1,0.4c0,0.1,0,0.1,0,0.2l0,0.1
		c0,0.1-0.1,0.1-0.1,0.2c-0.1,0.2-0.3,0.3-0.4,0.5c-0.2,0.2-0.6,0.6-1.1,0.7C68.7,42.5,68.2,42.4,67.8,42.1z M73.3,47.8
		c0,0,0,0.1-0.1,0.1L73.2,48c-0.1,0.1-0.1,0.1-0.1,0.1c-0.2,0.2-0.3,0.3-0.5,0.4c-0.3,0.2-0.8,0.4-1.3,0.4c-0.5,0-1-0.3-1.3-0.7
		c-0.3-0.4-0.3-0.8-0.3-1.2c-0.1-0.4,0.1-1,0.5-1.2c0.4-0.3,0.9-0.3,1.3-0.2c0.4,0.2,0.7,0.5,1,0.7c0.1,0.1,0.2,0.1,0.2,0.2
		c0,0,0.1,0.1,0.1,0.1c0,0,0.1,0.1,0.1,0.2c0,0.1,0,0.1,0.1,0.1c0,0,0.1,0.1,0.2,0.2c0,0,0.1,0.1,0.1,0.3
		C73.4,47.6,73.3,47.7,73.3,47.8z M73.3,41.8c-0.3-0.3-0.4-0.6-0.5-1c-0.2-0.3-0.2-0.8,0.1-1.2c0.3-0.3,0.7-0.5,1-0.5
		c0.4,0,0.7,0.3,1,0.4c0.1,0,0.2,0.1,0.2,0.1c0,0,0.1,0,0.1,0.1c0,0,0.1,0.1,0.1,0.2c0,0.1,0,0,0.1,0c0,0,0.1,0,0.2,0.1
		c0,0,0.1,0.1,0.2,0.2c0.1,0.1,0.1,0.3,0.1,0.4c0,0,0,0.1,0,0.1l0,0.1c0,0.1-0.1,0.1-0.1,0.2c-0.1,0.2-0.2,0.3-0.3,0.4
		c-0.2,0.2-0.5,0.5-1,0.6C74.1,42.2,73.6,42.1,73.3,41.8z M77.7,50.7c0,0,0,0.1-0.1,0.1l-0.1,0.1c-0.1,0.1-0.1,0.1-0.1,0.1
		c-0.2,0.2-0.3,0.3-0.5,0.4c-0.3,0.2-0.8,0.4-1.3,0.4c-0.5,0-1-0.3-1.3-0.7c-0.3-0.4-0.3-0.8-0.3-1.2c-0.1-0.4,0.1-1,0.5-1.2
		c0.4-0.3,0.9-0.3,1.3-0.2c0.4,0.2,0.7,0.5,1,0.7c0.1,0.1,0.2,0.1,0.2,0.2c0,0,0.1,0.1,0.1,0.1c0,0,0.1,0.1,0.1,0.2
		c0,0.1,0,0.1,0.1,0.1c0,0,0.1,0.1,0.2,0.2c0,0,0.1,0.1,0.1,0.3C77.8,50.4,77.8,50.6,77.7,50.7z M79.4,45.8
		c-0.1,0.2-0.1,0.2-0.2,0.3c-0.1,0.2-0.2,0.3-0.4,0.4c-0.2,0.2-0.5,0.5-0.9,0.6c-0.4,0.1-0.8,0.1-1.2,0c-0.4-0.2-0.6-0.5-0.8-0.9
		c-0.1-0.4,0-0.8,0.3-1.1c0.3-0.3,0.6-0.5,1-0.5c0.4,0,0.7,0.1,1.1,0.2c0.2,0,0.3,0,0.6,0.2C79,45,79,45.2,79,45.1c0,0,0,0,0,0
		c0,0,0.1,0,0.2,0.1c0.1,0,0.1,0.1,0.2,0.2C79.4,45.6,79.4,45.7,79.4,45.8z M80.7,38.4c0,0.1-0.1,0.2-0.1,0.3
		c-0.1,0.2-0.2,0.3-0.3,0.4c-0.2,0.2-0.5,0.4-0.8,0.5c-0.4,0.1-0.8,0-1-0.2c-0.3-0.2-0.5-0.5-0.6-0.8c-0.1-0.3,0-0.7,0.2-1
		c0.2-0.3,0.6-0.4,0.9-0.4c0.3,0,0.6,0.1,0.9,0.2c0.1,0,0.1,0.1,0.2,0.1c0.1,0,0.2,0.1,0.2,0.2c0,0.1,0.1,0.1,0.3,0.2
		C80.6,38.1,80.8,38.3,80.7,38.4z M97.3,36.8c-0.3,0.3-0.7,0.5-1,0.7c-0.4,0.2-0.7,0.4-1.1,0.6c-0.9,0.4-1.8,0.3-2.6,0.2
		c-0.8-0.1-1.5-0.2-2.3-0.2c-0.7,0-1.5,0.2-2,0.8c-0.3,0.3-0.5,0.6-0.6,0.9c-0.1,0.3-0.1,0.7,0,0.9c0.2,0.4,0.7,0.8,1.4,1.2
		c0.3,0.2,0.7,0.4,1,0.6c0.2,0.1,0.3,0.2,0.5,0.4c0.2,0.1,0.3,0.3,0.4,0.5c0,0,0,0.1,0,0.1c0,0,0,0-0.1,0l0,0
		c-0.3-0.2-0.7-0.2-1.1-0.3c-0.4-0.1-0.8-0.2-1.2-0.3c-0.4-0.1-0.8-0.3-1.1-0.6c-0.4-0.3-0.7-0.7-0.8-1.3c-0.1-0.6,0.2-1.1,0.5-1.4
		c0.3-0.4,0.6-0.6,0.9-0.9c0.6-0.6,1.3-1.1,2.1-1.3c0.8-0.3,1.7-0.2,2.4-0.3c0.8,0,1.5,0,2.1-0.2c0.3-0.1,0.7-0.2,1-0.4
		c0.4-0.1,0.7-0.3,1.1-0.5c0.7-0.3,1.4-0.7,2-1.1l0,0c0,0,0.1,0,0.1,0c0,0,0,0,0,0.1C98.6,35.8,98,36.3,97.3,36.8z M105.1,36.5
		c-1.4-0.1-2.4-1.3-2.3-2.5c0.1-1.3,1.3-2.2,2.7-2.1c1.4,0.1,2.4,1.3,2.3,2.5C107.7,35.7,106.5,36.6,105.1,36.5z"/>
	<path class="st0" d="M116.7,44.8C116.7,44.9,116.7,45,116.7,44.8L116.7,44.8z"/>
</g>
</svg>
