<?xml version="1.0" encoding="utf-8"?>
<!-- Generator: Adobe Illustrator 24.1.2, SVG Export Plug-In . SVG Version: 6.00 Build 0)  -->
<svg version="1.1" id="Layer_1" xmlns="http://www.w3.org/2000/svg" xmlns:xlink="http://www.w3.org/1999/xlink" x="0px" y="0px"
	 viewBox="0 0 128 128" style="enable-background:new 0 0 128 128;" xml:space="preserve">
<style type="text/css">
	.st0{fill:#2D2D2D;}
</style>
<g>
	<g>
		<path class="st0" d="M125.9,7.1c-1.4-2.3-3.5-4.2-6-5.4c-1.2-0.6-2.5-1-3.9-1.2c-1.3-0.2-2.9-0.3-4.4-0.4c-2.7-0.2-5.5,0.5-8,1.9
			c-2.5,1.4-4.7,3.4-6.3,5.8c-0.8,1.2-1.5,2.5-2,3.9c-0.2,0.7-0.4,1.4-0.6,2.1c-0.1,0.4-0.1,0.7-0.2,1.1l-0.1,0.6
			c0,0.1-0.1,0.3-0.1,0.5l5.6-0.4c1.5-0.1,3-0.2,4.5-0.3c0.2-1.4,0.5-2.7,1.1-4c0.3-0.8,0.8-1.5,1.4-2.2c0.6-0.6,1.3-1.2,2.2-1.6
			c0.8-0.4,1.8-0.6,2.6-0.7c0.9-0.1,1.8,0,2.7,0.4c0.9,0.3,1.7,0.9,2.4,1.5c0.7,0.7,1.2,1.4,1.5,2.3c0.8,1.7,0.9,3.6,0.4,5.3
			c-0.2,0.9-0.6,1.7-1.1,2.5c-0.5,0.7-1.2,1.4-1.6,1.9c-1,1.1-2.1,2.1-3.2,3.2c-1,1.1-2.2,2.1-3,3.2c-0.9,1.1-1.5,2.4-2.1,3.8
			c-0.5,1.4-1,2.8-1.2,4.3c-0.3,1.5-0.4,3-0.5,4.4c0,0.2,0.1,0.3,0.2,0.4c0,0,0.3,0,0.5,0l0.6,0l2.3,0c1.5,0,3,0,4.6-0.1l1.1,0
			c0.2,0,0.4,0,0.5,0c0,0,0.1,0,0.1-0.1c0,0,0-0.1,0-0.1l0-0.5c0-0.4-0.1-0.8-0.1-1.2c0-1.6,0-3.2,1-4.9c0.5-0.8,1.1-1.3,1.6-1.9
			l1.6-1.6c2.1-2.2,4-4.4,5.5-6.9c1.5-2.4,2.3-5.1,2.3-7.9C128,12.1,127.3,9.4,125.9,7.1z"/>
		<circle class="st0" cx="111.8" cy="50" r="5"/>
	</g>
	<g>
		<path class="st0" d="M38.9,120.6l1.3-1.9c0.4-0.6,0.8-1.3,1.2-1.9c0.2-0.3,0.4-0.6,0.5-0.9c0.1-0.2,0.1-0.3,0.1-0.4
			c0-0.1,0-0.3,0.1-0.5c0.1-1,0.1-2,0.1-3.1c-0.2,0-0.4,0-0.6,0c-0.9,0-1.8,0-2.7,0c0,1,0,2-0.1,3c-0.1,1.3-0.4,2.6-0.7,4
			c-0.3,1.3-0.8,2.6-1.5,3.8c-0.7,1.2-1.6,2.4-2.7,3.3l-0.2,0.2l-0.3,0c-1.3,0-2.5,0-3.8,0c-1.2,0-2.5,0-3.7,0
			c-1.2,0.1-2.5,0.2-3.7,0.5c-0.9,0.3-1.9,0.7-2.5,1.4c2.3,0,4.5-0.2,6.8-0.3c2.3-0.1,4.7-0.1,7-0.2c0.2-0.2,0.5-0.3,0.7-0.5
			c0.4-0.2,0.7-0.3,1.1-0.4c0.6-0.1,1.1-0.2,1.7-0.2c0.4-0.7,0.5-2,0.8-3.5c0.1-0.4,0.2-0.9,0.4-1.3c0.1-0.2,0.2-0.4,0.3-0.6
			C38.7,120.9,38.8,120.8,38.9,120.6z"/>
		<path class="st0" d="M86,98.1c-2.9-1.5-5.6-3.4-8.1-5.5c-1.2-1-2.4-2.1-3.6-3.2c-0.6-0.5-1.2-1.1-1.8-1.6l-1.7-1.7
			c-2.3-2.1-4.7-4.1-7.3-5.8c-5.1-3.5-10.9-6.1-16.9-7.8c-6-1.7-12.3-2.7-18.7-2.6l0,0c-0.1,0-0.1-0.1-0.1-0.1
			c0-0.1,1.5-4.6,1.9-6.9c0.5-2.3,0.9-4.7,1.2-7c0.3-2.3,0.7-4.7,0.8-7c0.1-2-0.5-4.3-1.3-6.3c-0.8-2.1-2-3.9-3.6-5.3
			c-1.6-1.4-3.6-2-5.8-2c-2.2,0-4.3,0.7-5.9,2.2c-1.7,1.5-3.4,5.8-3.4,5.9c0,0,0,0.1,0,0.1c-0.9,0.4-1.7,1-2.5,1.6
			c-0.7,0.6-1.4,1.4-1.7,2.2l0,0.1l-0.2,0.1c-1.9,1-3.8,2.2-5.6,3.4c-0.5,0.3-0.9,0.6-1.3,0.9L0,52l0.4,0.1c0.5,0.1,1,0.2,1.6,0.2
			c0.5,0,1,0,1.4-0.1c0.2,0,0.4-0.1,0.7-0.2c0.2-0.1,0.4-0.2,0.7-0.3c1.1-0.4,2.2-0.6,3.3-0.8l3.3-0.6c1.1-0.2,2.2-0.4,3.2-0.8l0,0
			c0.1,0,0.1,0,0.1,0.1c0,0,0,0.1,0,0.1c-0.3,0.3-0.6,0.5-1,0.7c2.2,0.1,4.2,0.8,6.1,1.5c0.5,0.2,1,0.4,1.5,0.8
			c0.5,0.4,0.9,0.9,1.2,1.4c0.6,1.1,0.7,2.3,0.8,3.4c0,2.3-0.6,4.4-1.4,6.5c-0.2,0.5-0.4,1-0.9,1.6c-0.4,0.5-0.8,0.9-1.2,1.3
			l-2.3,2.2c-3,2.9-5.4,6.3-6.4,10.1c-1,3.8-0.7,8,0.8,11.6c1.5,3.6,4.2,6.8,7.3,9.4c3.2,2.6,6.7,4.7,10.5,6.5l1.4,0.6l0.7,0.3
			l0.7,0.2c0.9,0.3,1.9,0.5,2.9,0.7c2,0.4,4.1,0.5,6.1,0.5c2.1,0,4.2-0.1,6.2-0.3c2.1-0.2,4.1-0.6,6-1.2l0.3-0.1l0.2,0
			c3.2,0.5,6.4,0.5,9.6-0.2c3.2-0.6,6.3-1.8,9.4-3.1l0.1,0l0.1,0c1.1,0,2.3-0.1,3.4-0.3c1.1-0.2,2.3-0.4,3.4-0.7
			c1.1-0.3,2.2-0.6,3.2-1.1c1-0.5,2.1-1,2.9-1.6l0.1-0.1l0.1,0c0.7-0.2,1.5-0.3,2.2-0.4c0.7-0.1,1.4-0.2,2.1-0.3
			c-0.1,0-0.3-0.1-0.4-0.1C89,99.4,87.5,98.8,86,98.1z"/>
		<path class="st0" d="M46.3,111.5c-0.1,2.4-0.5,4.7-1.1,7c-0.4,1.3-0.9,2.5-1.5,3.7c-0.7,1.2-1.5,2.3-2.6,3.1l-0.2,0.1
			c-0.4,0.2-0.7,0.3-1.1,0.5c-0.1,0.1-0.2,0.1-0.3,0.1c-0.1,0.3-0.2,0.7-0.3,1.1c-0.1,0.3-0.4,0.6-0.6,0.9c0.6-0.1,1.2-0.2,1.8-0.3
			l1.5-0.2c0.3,0,0.7-0.1,1-0.1c0.3-0.2,0.5-0.4,0.8-0.5c0.4-0.2,0.7-0.3,1.1-0.4c0.5-0.1,1.1-0.2,1.6-0.1c0-0.2,0-0.5-0.1-0.8
			c-0.2-0.7-0.5-1.4-0.6-2.4c0-0.5,0-1,0.1-1.5c0.1-0.3,0.2-0.5,0.3-0.7l0.3-0.5l1.3-1.9c0.4-0.6,0.8-1.3,1.2-1.9
			c0.2-0.3,0.4-0.6,0.5-1c0.1-0.2,0.1-0.3,0.1-0.4c0-0.2,0-0.3,0.1-0.5c0.1-1.2,0.1-2.5,0.1-3.7c-0.5,0.1-1.1,0.2-1.6,0.3
			C47.5,111.4,46.9,111.4,46.3,111.5z"/>
	</g>
</g>
</svg>
