<?xml version="1.0" encoding="utf-8"?>
<!-- Generator: Adobe Illustrator 24.1.2, SVG Export Plug-In . SVG Version: 6.00 Build 0)  -->
<svg version="1.1" id="Layer_1" xmlns="http://www.w3.org/2000/svg" xmlns:xlink="http://www.w3.org/1999/xlink" x="0px" y="0px"
	 viewBox="0 0 128 128" style="enable-background:new 0 0 128 128;" xml:space="preserve">
<style type="text/css">
	.st0{fill:#2D2D2D;}
</style>
<g>
	<path class="st0" d="M2.44,10.1c0.06,0.04,0.15,0.1,0.19,0.13c0.02,0,0.03-0.01,0.04-0.03c0.02-0.03,0.02-0.05,0.01-0.07
		c-0.01-0.03-0.05-0.03-0.06-0.05l0.31-0.38c0.42-0.49,0.86-0.97,1.3-1.43c0.89-0.93,1.86-1.79,2.82-2.65
		C8,4.75,9.01,3.94,10.06,3.17c0.1-0.04,0.2-0.18,0.15-0.34c-0.01-0.04-0.03-0.07-0.05-0.11l-0.15-0.19L9.69,2.17
		C9.26,1.69,8.82,1.22,8.34,0.79C8.28,0.74,8.21,0.68,8.16,0.64C8.12,0.61,8.08,0.59,8.04,0.57C7.95,0.55,7.86,0.55,7.78,0.59
		C7.71,0.62,7.66,0.67,7.62,0.74L7.33,1.14C6.94,1.66,6.56,2.19,6.15,2.69c-0.82,1-1.78,1.87-2.87,2.6
		c-1.09,0.73-2.21,1.44-3.1,2.37c-0.2,0.2-0.23,0.54-0.09,0.76c0.04,0.05,0.08,0.1,0.13,0.14l0.19,0.15C0.54,8.81,0.67,8.91,0.81,9
		C1.33,9.39,1.89,9.74,2.44,10.1z"/>
	<path class="st0" d="M101.43,28.32c3.47-3.41,6.97-6.79,10.48-10.16l5.26-5.06l4.73-4.46c-0.12-0.11-0.25-0.21-0.37-0.32
		c-0.77-0.69-1.53-1.38-2.26-2.1c-13.55,14.13-26.91,27.87-40.32,41.45L68.71,57.92l-10.3,10.18c-2.17,2.14-4.34,4.28-6.52,6.42
		l2.07,1.82c2.17-2.13,4.34-4.27,6.47-6.44C67.31,63,74.01,55.94,80.79,48.96C87.55,41.96,94.49,35.14,101.43,28.32z"/>
	<path class="st0" d="M118.31,2.68c0.03-0.01,0.03-0.05,0.05-0.06l0.38,0.31c0.49,0.42,0.97,0.85,1.44,1.3
		c0.93,0.89,1.79,1.85,2.65,2.81c0.88,0.95,1.69,1.96,2.47,3c0.04,0.1,0.18,0.19,0.34,0.15c0.04-0.01,0.07-0.03,0.11-0.05l0.19-0.15
		l0.36-0.32c0.48-0.43,0.95-0.87,1.38-1.35c0.05-0.06,0.11-0.12,0.15-0.18c0.03-0.04,0.05-0.08,0.06-0.12
		c0.02-0.09,0.02-0.18-0.01-0.25c-0.04-0.08-0.09-0.12-0.16-0.16l-0.39-0.29c-0.53-0.38-1.06-0.77-1.56-1.17
		c-1-0.82-1.87-1.77-2.6-2.86c-0.73-1.09-1.44-2.21-2.37-3.1c-0.2-0.2-0.54-0.23-0.76-0.09c-0.05,0.04-0.1,0.08-0.14,0.13
		l-0.15,0.19c-0.1,0.13-0.2,0.26-0.29,0.39c-0.39,0.52-0.73,1.09-1.1,1.63c-0.04,0.06-0.1,0.14-0.13,0.19
		c0,0.02,0.02,0.03,0.03,0.04C118.26,2.69,118.29,2.69,118.31,2.68z"/>
	<path class="st0" d="M8.34,6.91C7.74,7.58,7.13,8.25,6.5,8.89c4.29,4.5,8.65,8.94,13.11,13.27c4.7,4.54,9.51,8.97,14.22,13.5
		c1.18,1.13,2.34,2.28,3.5,3.43c1.16,1.15,2.31,2.31,3.46,3.47c2.3,2.32,4.59,4.65,6.86,7c4.44,4.58,8.82,9.23,13.11,13.96
		l2.59-2.61c-4.71-4.28-9.33-8.64-13.94-13.02c-4.71-4.54-9.44-9.06-14.09-13.67c-2.33-2.29-4.64-4.62-6.94-6.93l-6.88-7
		c-2.3-2.33-4.59-4.66-6.86-7.02c-2.09-2.14-4.16-4.31-6.22-6.49C8.4,6.83,8.37,6.87,8.34,6.91z"/>
	<path class="st0" d="M75.88,74.45c-0.85-0.87-1.69-1.75-2.52-2.64c-2.17-2.32-4.31-4.68-6.33-7.16c-0.88,0.85-1.74,1.7-2.62,2.55
		c3.46,2.87,6.79,5.86,10.05,8.92L75.88,74.45z"/>
	<path class="st0" d="M54.91,77.4L54.56,77c-1.31,1.32-2.61,2.65-3.93,3.97c-1.72,1.72-3.4,3.48-5.1,5.22l-2.54,2.62l-0.32,0.33
		c-0.11,0.11-0.19,0.2-0.36,0.35c-0.3,0.26-0.69,0.44-1.08,0.49c-0.4,0.06-0.82,0.01-1.19-0.16c-0.19-0.08-0.36-0.19-0.52-0.32
		c-0.17-0.15-0.24-0.23-0.36-0.34c-0.12-0.12-0.2-0.18-0.35-0.35c-0.14-0.15-0.25-0.33-0.34-0.51c-0.18-0.37-0.25-0.8-0.19-1.21
		c0.05-0.41,0.22-0.81,0.48-1.13c0.15-0.18,0.24-0.25,0.35-0.37l0.32-0.33l2.55-2.63l5.13-5.25c1.29-1.32,2.59-2.62,3.88-3.93
		c-0.12-0.11-0.24-0.22-0.35-0.3c-0.15-0.11-0.33-0.17-0.5-0.19c-0.18-0.02-0.36,0.01-0.51,0.08c-0.14,0.06-0.34,0.19-0.51,0.28
		l-2.13,1.2c-1.42,0.8-2.84,1.61-4.27,2.39l-4.28,2.36l-2.14,1.18c-0.72,0.4-1.42,0.76-2.08,1.19c-1.34,0.84-2.59,1.81-3.73,2.89
		c-0.57,0.53-1.12,1.12-1.69,1.71L27.07,88l-6.85,6.97c-4.59,4.62-9.26,9.17-13.92,13.72l-3.5,3.41l-0.44,0.42
		c-0.15,0.14-0.29,0.28-0.4,0.4c-0.13,0.12-0.24,0.26-0.34,0.4c-0.11,0.13-0.2,0.28-0.29,0.43c-0.36,0.6-0.59,1.27-0.66,1.97
		c-0.14,1.4,0.34,2.86,1.34,3.91l3.37,3.54c1.12,1.16,2.26,2.39,3.37,3.49c1.11,1.03,2.72,1.5,4.24,1.26
		c0.76-0.11,1.5-0.39,2.13-0.83c0.63-0.42,1.17-1.04,1.76-1.61l3.45-3.46c2.28-2.32,4.53-4.69,6.76-7.06l6.73-7.09
		c2.27-2.34,4.56-4.66,6.88-6.94c1.14-1.15,2.37-2.27,3.41-3.42c1.06-1.17,2-2.44,2.81-3.79l4.7-8.53c0.79-1.43,1.6-2.84,2.41-4.25
		l1.21-2.12c0.17-0.29,0.19-0.67,0.03-0.98C55.19,77.69,55.05,77.55,54.91,77.4z"/>
	<path class="st0" d="M127.97,115.52c-0.08-0.76-0.33-1.51-0.73-2.17c-0.2-0.33-0.44-0.63-0.7-0.91l-0.85-0.87l-3.47-3.44
		c-2.33-2.28-4.7-4.52-7.08-6.75l-7.11-6.72c-2.35-2.26-4.67-4.55-6.96-6.87l-1.72-1.74c-0.58-0.59-1.13-1.16-1.71-1.68
		c-1.16-1.07-2.42-2.02-3.78-2.84c-0.67-0.41-1.38-0.77-2.1-1.17l-2.15-1.17l-4.29-2.36c-1.43-0.78-2.85-1.6-4.27-2.4l-2.13-1.21
		c-0.19-0.11-0.33-0.2-0.5-0.23c-0.17-0.04-0.35-0.04-0.52,0.01c-0.25,0.06-0.46,0.25-0.68,0.46c0.26,0.25,0.53,0.5,0.79,0.75
		c1.2,1.16,2.37,2.34,3.51,3.56c2.28,2.43,4.42,5,6.74,7.4l0.88,0.9c0.3,0.33,0.54,0.66,0.81,0.98c0.53,0.65,1.03,1.32,1.54,1.98
		c0.51,0.67,1,1.34,1.48,2.04c0.24,0.35,0.47,0.71,0.68,1.1c0.1,0.2,0.21,0.4,0.28,0.67c0.02,0.15,0.1,0.29-0.01,0.62
		c-0.02,0.07-0.11,0.19-0.15,0.23l-0.05,0.06l-0.1,0.12l-0.21,0.23l-0.05,0.06l-0.03,0.03c-0.04,0.04-0.08,0.07-0.13,0.1
		c-0.19,0.11-0.33,0.11-0.45,0.12c-0.41-0.02-0.6-0.13-0.84-0.22c-0.43-0.19-0.81-0.41-1.18-0.63c-0.74-0.45-1.44-0.93-2.12-1.43
		c-0.69-0.49-1.34-1.02-2-1.55c-0.33-0.27-0.65-0.54-0.98-0.83l-0.93-0.88c-2.42-2.3-4.82-4.61-7.16-6.97
		c-1.46-1.49-2.91-3-4.34-4.52c-1.01,1.08,0.48,2.45,1.04,3.71c0.8,1.42,1.62,2.83,2.4,4.26l2.37,4.27l1.19,2.14
		c0.4,0.72,0.77,1.43,1.18,2.09c0.82,1.35,1.79,2.6,2.86,3.76c0.53,0.58,1.1,1.12,1.69,1.69l1.76,1.7l6.99,6.84
		c4.63,4.59,9.19,9.25,13.76,13.9l3.42,3.49l0.85,0.88l0.38,0.35c0.14,0.1,0.27,0.22,0.42,0.31c0.58,0.38,1.25,0.64,1.95,0.75
		c1.4,0.22,2.89-0.21,3.97-1.15c1.16-1.06,2.36-2.22,3.54-3.33l3.53-3.37C127.57,118.62,128.14,117.05,127.97,115.52z"/>
</g>
</svg>
