<?xml version="1.0" encoding="utf-8"?>
<!-- Generator: Adobe Illustrator 23.0.0, SVG Export Plug-In . SVG Version: 6.00 Build 0)  -->
<svg version="1.1" id="Layer_1" xmlns="http://www.w3.org/2000/svg" xmlns:xlink="http://www.w3.org/1999/xlink" x="0px" y="0px"
	 viewBox="0 0 128 128" style="enable-background:new 0 0 128 128;" xml:space="preserve">
<style type="text/css">
	.st0{fill:#2D2D2D;}
</style>
<g>
	<path class="st0" d="M38.3,95.6c-0.2,0.6-0.4,1.2-0.6,1.8c-0.4,0.9-0.8,1.9-1.3,2.8c-0.5,0.9-1,1.8-1.7,2.6c0,0,0,0-0.1,0.1
		c-0.7,1.2-3.8,6.4-5.5,9.3c-0.7,1.1-0.9,2.4-0.7,3.6c0.6,4.7,0.8,5.6,0.9,5.8c0.2,0.6,0.6,1.2,2.2,1.3c1.5,0.1,2.6,0.7,3.3,1.8
		c1,0,4.2,0.1,6,0.1c0.1,0,0.2-0.1,0.2-0.1c0,0,0.1-0.2,0-0.3c-0.6-1.5-1.9-3.3-5-3.3l-0.1,0c-1-0.1-2.1-1.1-2.8-2.6
		c-0.5-1.1-0.7-2.3-0.7-3.4c-0.4,0.5-1,0.7-1.4,0.5c-0.5-0.3-0.5-1.1,0-1.9c0.4-0.8,1.2-1.2,1.6-0.9c0.1,0.1,0.2,0.1,0.2,0.2
		c0.1-0.3,0.2-0.5,0.4-0.8c0.3-0.6,1.1-1.5,2.3-2.8c-0.4-0.3-0.5-1.1,0-1.9c0.4-0.8,1.2-1.2,1.6-0.9c0.2,0.1,0.4,0.4,0.4,0.8
		c0.6-0.6,1.3-1.3,2-2c2.5-2.5,5.4-5.3,6.5-6.8c-3.3-1.1-6.1-2.3-8-3.2C38.3,95.6,38.3,95.6,38.3,95.6z M39.7,99.4
		c0.6,0.4,0.7,1.4,0.2,2.3c-0.5,0.9-1.4,1.3-2,1c-0.6-0.4-0.7-1.4-0.2-2.3C38.2,99.5,39.1,99.1,39.7,99.4z"/>
	<path class="st0" d="M118.4,64.6c-0.2-0.8-0.2-1.6-0.2-2.3c0-0.5,0.1-0.9,0.1-1.4c0-0.5-0.3-0.9-0.7-0.9c-0.2,0-0.4,0.1-0.6,0.2
		c-0.2,0.1-0.3,0.2-0.5,0.4c-0.3,0.2-0.5,0.6-0.8,0.9l-0.8,1.1c-0.2,0.2-0.3,0.4-0.5,0.7c0.6,0.1,1.2,0.2,1.8,0.4
		C117.1,63.9,117.8,64.2,118.4,64.6z"/>
	<path class="st0" d="M68.9,117.2l0,0.1l0,0.1c-0.1,0.8-0.3,1.6-0.4,2.4c-0.1,0.6,0,1.3,0.2,1.9c0.2,0.4,0.4,0.8,0.6,1.3
		c0.5,1.1,1.6,1.8,2.9,1.8h6.3c0.2,0,0.4-0.1,0.6-0.3c0.1-0.2,0.2-0.4,0.1-0.6c-0.4-1.4-1.3-2.1-2.7-2.1l-0.2,0c-1.1,0-2.4,0-3-0.8
		c-0.3-0.5-0.4-1-0.1-1.7c0.2-0.7,1-2.6,1.7-4.7c1-2.8,2.2-6,2.5-6.9l0-0.1c0.4-1.3,1-3.1,2.4-4.1c-1.9-0.1-6-0.4-10.2-0.8
		C69.2,105,68.3,113.1,68.9,117.2z"/>
	<path class="st0" d="M79,99.5c0,0,0-0.1,0-0.1c0,0,0,0,0,0c0.2-0.4,0-0.8-0.3-1c0,0-0.1,0-0.1-0.1c0,0,0,0,0,0
		c-0.4-0.2-0.8-0.4-1.2-0.5c-0.8-0.3-1.7-0.3-2.6-0.4c-0.6,0-1.1-0.2-1.6-0.4c0,0.1,0.1,0.2,0.1,0.4c0.2,0.6,0.1,0.5-0.5,0.9
		c-0.6,0.4-1.4,0.5-2.6,0c-1.2-0.6-1-1.2-0.5-1.5c0.5-0.3,0.7-0.3,1.7-0.3c0.3,0,0.5,0,0.7,0c0,0,0,0,0,0c-0.8-0.5-1.5-1.2-2.2-1.7
		c-0.3-0.3-0.7-0.5-1-0.7c-0.4-0.2-0.7-0.3-1.2-0.4c-0.8-0.2-1.7-0.2-2.6-0.1c0.1,0.2,0.2,0.5,0.5,1.2c0.5,1.2-0.1,1.7-0.8,1.8
		c-0.6,0.1-0.8,0-1.5-0.6c-0.7-0.6-1.6-0.1-0.8-1.9c0.1-0.1,0.1-0.2,0.1-0.3c-1,0.1-2.1,0.2-3.1,0.2c-1.8,0.1-3.7-0.2-5.5-0.5
		c-0.9-0.1-1.8-0.3-2.7-0.5c-0.9-0.2-1.8-0.3-2.6-0.6c0.2,0.3,0.1,0.6-0.2,0.8c-0.4,0.4-0.6,0.5-1.6,0.7s-1.3,1-2.1-0.4
		c-0.3-0.6-0.2-0.5,0.3-1c0.3-0.3,0.6-0.5,1.1-0.6c-0.1,0-0.1,0-0.2,0c-0.9-0.1-1.7,0-2.5,0.2c-0.8,0.2-1.3,0.7-2,1.2
		c-0.5,0.5-0.9,1.1-1.2,1.7c3.3,1.4,8.1,3.3,13.5,4.5c-0.1-0.2-0.3-0.5-0.4-1c-0.4-1,0-0.4,0.8-1.1c0.8-0.7,0.1-0.6,1.1-1.6
		c0.5-0.2,0.7,0,2.4,0.7c1.8,0.8,1.6,1.9,0.9,2.5c-0.7,0.6-0.9,0.7-2.4,0.7c-0.2,0-0.4,0-0.5,0.1c1.1,0.2,2.1,0.4,3.2,0.5
		c1,0.1,2.3,0.2,3.8,0.4c-0.1-0.2-0.1-0.4-0.1-0.7c-0.1-0.8,0-0.7,0.8-1c0.8-0.3,0.3,0,1.3-0.5c0.5,0,0.6,0.1,1.9,1.1
		c0.8,0.6,1,1.1,0.8,1.5c4.8,0.4,9.9,0.8,12,0.9c-0.3-0.8-0.5-1.5-0.7-2C78.9,99.9,78.9,99.7,79,99.5z"/>
	<path class="st0" d="M15.6,95.4c-0.5-0.1-1-0.4-1.3-0.9c-0.2,1.4-0.5,2.8-0.8,4.1c0,0.1,0,0.2-0.1,0.2c0.8,0,2.2,0.5,2.9,1.1
		c0.4-1.3,0.6-2.6,0.8-4c0-0.3,0.1-0.7,0.1-1C16.8,95.3,16.2,95.5,15.6,95.4z"/>
	<path class="st0" d="M14.2,101.7c-0.6-0.2-1-0.7-1.3-1.2c-0.1,0.3-0.2,0.5-0.3,0.8c-0.3,0.9-0.7,1.8-1.1,2.7
		c-0.1,0.2-0.2,0.4-0.3,0.6c0.7,0,1.8,0.5,2.5,1.1c0.8-1.2,1.5-2.5,2-3.8C15.2,101.9,14.7,101.9,14.2,101.7z"/>
	<path class="st0" d="M16.2,79c-0.2-0.1-0.4-0.3-0.5-0.5c-0.1,0.2-0.1,0.4-0.1,0.5c-0.2,0.9-0.8,1.6-0.8,2.5
		c-0.1,1.9-0.1,3.7-0.1,5.6c0,1.5,0,3-0.1,4.5c0.8-0.3,2.2,0,3,0.5c0.1-0.6,0.1-1.2,0.1-1.8c0.1-1.2,0.1-2.4,0.1-3.5
		c-0.1-0.2-0.1-0.4-0.2-0.6c-0.1,0.1-0.1,0.1-0.2,0.2c-0.9,0.9-1.7,0.5-1.9,0c-0.3-0.6-0.3-0.8,0-1.7c0.3-0.9-0.4-1.6,1.5-1.5
		c0,0,0.1,0,0.1,0c0-0.5,0-0.9,0-1.4c0.1-1,0.3-2,0.6-2.9C17.5,79.3,17,79.4,16.2,79z"/>
	<path class="st0" d="M7.4,109.7c-0.4,0.4-0.7,0.8-1.1,1.1c-0.4,0.3-0.7,0.6-1.2,0.9c-0.1,0.1-0.3,0.2-0.4,0.2
		c0.7,0.2,1.8,1.3,2.3,2.2c0.7-0.6,1.3-1.2,1.9-1.9c-0.1,0-0.3-0.1-0.4-0.2C7.7,111.5,7.2,110.5,7.4,109.7z"/>
	<path class="st0" d="M111.7,81.4c-0.4-0.3-0.7-0.6-1.1-0.8c-0.4-0.2-0.7-0.2-1.2-0.1c-0.5,0-0.9,0.1-1.4,0.2
		c-0.9,0.2-1.9,0.4-2.8,0.7l-1.4,0.4l-0.4,0.1c-0.1,0-0.2,0.1-0.3,0.1c-0.2,0.1-0.4,0.2-0.6,0.3c-0.9,0.4-1.7,0.9-2.5,1.4
		c-0.8,0.5-1.6,1.1-2.3,1.8c-0.3,0.3-0.7,0.7-0.9,1.1c-0.2,0.4-0.4,0.9-0.4,1.2c0.2,0.9,0.3,1.9,0.3,2.8c-0.1,0.9-0.3,1.9-0.5,2.8
		c-0.3,0.9-0.7,1.7-1.1,2.6c-0.1,0.2,2.9-3,4-5.7c0.1-0.3,0.3-0.6,0.5-0.9c0.3-0.6,0.7-1.2,1.1-1.7c0.8-1.1,1.8-2.1,2.9-2.9
		c0.6-0.4,1.1-0.8,1.8-1.1c0.2-0.1,0.3-0.1,0.5-0.2c0.2-0.1,0.4-0.1,0.6-0.2c0.4-0.1,0.7-0.1,1.1-0.2c1.4-0.1,2.7-0.1,4.1,0
		c0.9,0.1,1.8,0.3,2.7,0.5c-0.5-0.3-0.9-0.7-1.4-1.1C112.4,82,112,81.7,111.7,81.4z"/>
	<path class="st0" d="M4,112.3C3.9,112.4,3.9,112.4,4,112.3c-0.9,0.5-1.8,0.9-2.6,1.3L0.7,114c-0.2,0.1-0.4,0.2-0.6,0.3
		c0,0-0.1,0.1-0.1,0.1c1,0.2,2.4,1.7,2.6,2.7l0.3-0.2l1.2-0.7c0.4-0.3,0.8-0.5,1.2-0.8c-0.3-0.1-0.6-0.3-0.9-0.6
		C3.7,114.1,3.5,113.1,4,112.3z"/>
	<path class="st0" d="M125.7,79.6c0.2-0.2,0.8,0.1,1.1,0.3c0.3-0.4,0.9-0.5,1.2-0.5c0,0,0-0.1,0-0.1c0,0,0,0,0-0.1l-0.1-0.1
		c-0.3-0.4-0.5-0.8-0.8-1.3c-0.5-0.9-1.1-1.7-1.5-2.6l-0.1-0.1l0-0.1c-0.1-0.7-0.2-1.3-0.5-2c0,0,0,0,0,0c-0.1,0.4-0.4,0.8-0.7,0.6
		c-0.3-0.2-0.6-0.6-0.5-1.3c0.1-0.7,0.4-0.7,0.6-0.6c-0.1-0.2-0.2-0.4-0.3-0.6c-0.4-0.6-0.8-1.1-1.3-1.5c-0.5-0.4-1.1-0.8-1.7-1.1
		l0,0l-0.1-0.1c-0.5-0.5-1-1-1.5-1.4c-0.1-0.1-0.3-0.3-0.4-0.4c0,0.5-0.4,1.1-0.7,0.9c-0.3-0.2-0.6-0.6-0.5-1.3
		c0-0.2,0.1-0.4,0.1-0.5c-0.1,0-0.1-0.1-0.2-0.1c-1.1-0.8-2.2-1.5-3.4-2.2c0,0.1-0.1,0.1-0.1,0.2c0,0.1,0,0.2,0,0.3
		c-0.1,0.7,0.2,1.5,0.4,2.3c-0.5-0.6-1-1.4-1.2-2.3c-0.1-0.4-0.1-0.9,0-1.3c0-0.2,0-0.4,0-0.5c0-0.2,0-0.3-0.1-0.5
		c-0.1-0.3-0.2-0.6-0.3-0.9c-0.1-0.3-0.3-0.5-0.5-0.6c0,0-0.1,0.1-0.1,0.1c-0.2,0.2-0.4,0.5-0.5,0.8l-0.1,0.2c0,0.1-0.1,0.2-0.2,0.4
		c-0.2,0.2-0.3,0.4-0.5,0.6c-0.1,0.1-0.1,0.1-0.2,0.2c0,0.2-0.1,0.4-0.1,0.7c0,0.3-0.1,0.5-0.2,0.8c-0.1,0.3-0.1,0.5-0.3,0.8
		c0.1,0.4,0.2,0.7,0.3,1.1c0.1,0.4,0.1,0.8,0.1,1.2c0,0.4-0.1,0.8-0.2,1.2c-0.1,0.4-0.3,0.8-0.7,1.1c0,0-0.1,0-0.1,0c0,0,0,0,0,0
		l0,0c0.1-0.5,0-0.9,0-1.3c0-0.2,0-0.4-0.1-0.5c-0.1-0.5-0.1-0.9-0.1-1.4c0-0.4,0-0.8-0.1-1.1l0-0.2l0.1-0.1
		c0.1-0.2,0.2-0.4,0.4-0.7c0.1-0.2,0.2-0.5,0.3-0.7c0-0.1,0.1-0.2,0.1-0.3c-0.1,0.1-0.2,0.2-0.3,0.2c-0.3,0.2-0.7,0.5-1,0.7
		l-0.2,0.2l-0.2,0.1c-0.1,0.1-0.3,0.2-0.4,0.3c-1.1,1-2,2.4-2.9,3.7c0.2-0.8,0.5-1.6,0.8-2.4c0.3-0.8,0.7-1.5,1.3-2.2
		c0.1-0.2-2.6-0.5-3.7-0.4c-1.2,0.1-2.4,0.2-3.6,0.4c-1.2,0.2-2.4,0.4-3.6,0.7c-1.2,0.3-2.3,0.7-3.3,1.2l-0.1,0l-0.1,0
		c-0.8,0.2-1.6,0.4-2.4,0.5c-0.8,0.1-1.6,0.2-2.3,0.3c-0.4,0-0.7,0.1-1.1,0.2L87,66.5c-0.1,0-0.2,0-0.2,0.1c-0.2,0-0.3,0.1-0.5,0.2
		c-0.7,0.3-1.4,0.6-2.1,0.9c-1.4,0.6-2.9,1.3-4.4,1.6c-0.8,0.2-1.6,0.3-2.4,0.3c-0.4,0-0.8,0-1.2-0.1l-1.2-0.2
		c-3.1-0.5-6.1-1-9.2-1.4c-3.1-0.4-6.1-0.8-9.2-0.9l0,0l0,0c-1.8-0.2-3.7-0.4-5.5-0.6c-1.8-0.2-3.7-0.3-5.5-0.4
		c-3.7-0.2-7.4-0.2-11,0.2c-1.8,0.2-3.6,0.5-5.3,1.1c-0.9,0.3-1.8,0.6-2.7,0.8c-0.9,0.3-1.7,0.6-2.6,0.9c-1.7,0.7-2.9,1.7-4.3,2.8
		c-0.8,0.6-1.7,1.9-2.3,2.8c0.2-0.1,0.4-0.1,0.7-0.2c1.5-0.5,2,0.2,1.9,1c0,0.1,0,0.2,0,0.3c0.8-0.7,1.7-1.2,2.7-1.6
		c-0.9,0.6-1.8,1.2-2.5,2c-0.2,0.2-0.4,0.4-0.5,0.6c-0.1,0.2-0.3,0.4-0.4,0.7L19,78.1c-0.1,0.2-0.2,0.5-0.2,0.7
		c-0.3,1-0.4,2-0.3,3.1c0,0.5,0.1,1,0.2,1.5c0.1,0.5,0.2,1,0.4,1.4l0,0c0,0.1,0,0.1,0,0.2c0.6,1.8,4.2,12.6,2.9,18.3
		c-0.4,1.6-1,3.7-2,5.3c-0.5,0.8-0.6,1.6-0.5,2.5c0.6,3.2,1.6,7.1,2.4,8.9c0.3-0.6,0.8-1.1,1.1-0.9c0.5,0.4,0.5,0.4,0.9,1.2
		c0.2,0.2,0.1,0.4-0.2,1.4c-0.2,0.8-0.7,1-1.1,1c0.4,2,1.1,4.2,2.2,5.1c0.1,0,0.1,0.1,0.2,0.1h9c0.1,0,0.2-0.1,0.2-0.1
		c0,0,0.1-0.1,0.1-0.2c-0.1-2.1-1-3.2-2.7-3.3c-2-0.1-3.2-0.9-3.7-2.4c-0.2-0.5-0.5-2.6-1-6c-0.1-0.6-0.1-1.2,0-1.8
		c-0.5,0.5-1,0.3-1.3,0c-0.3-0.4-0.4-0.6-0.3-1.4c0-0.8,1.6-2.3,2-1.8c0.2,0.3,0.3,0.4,0.4,0.7c0.1-0.1,0.1-0.2,0.2-0.4
		c1-1.8,2.6-4.4,3.8-6.5c-0.4,0-0.7-0.3-0.8-0.7c-0.2-0.7-0.2-0.9,0.2-2.1c0.4-1.2-0.3-2,1.7-2.1c0.8,0,0.7,0,0.9,0.9
		c0.1,0.3,0.1,0.4,0.1,0.5c0.5-0.6,1-1.3,1.4-2c0.5-0.8,1-1.7,1.4-2.5c0.8-1.8,1.4-3.6,1.8-5.5c0.2-1,0.3-1.9,0.3-2.9
		c0-1,0-2-0.1-2.9c-0.2-2-0.8-3.9-1.5-5.7c0.9,1.8,1.5,3.7,1.9,5.7c0.2,1,0.3,2,0.3,3c0,1,0,2-0.1,3c-0.1,0.9-0.3,1.7-0.5,2.6
		c0,0,0.1,0.1,0.3,0.1c0.3,0.1,0.6,0.3,1,0.4c0.1-0.3,0.2-0.5,0.3-0.8c0.2-0.4,0.5-0.8,0.8-1.1c0.7-0.7,1.5-1.2,2.4-1.5
		c0.9-0.3,1.9-0.4,2.8-0.3c0.5,0,1,0.1,1.4,0.2c0.4,0.1,0.9,0.2,1.3,0.3c1.8,0.5,3.5,1.1,5.2,1.5c1.7,0.4,3.6,0.7,5.3,0.5
		c1.8-0.2,3.5-0.8,5.4-0.9c0.9-0.1,1.9-0.1,2.8,0c0.5,0.1,1,0.2,1.4,0.4c0.5,0.2,0.9,0.5,1.3,0.8c0.7,0.6,1.4,1.2,2.1,1.7
		c0.7,0.5,1.4,0.9,2.2,1.1c0.9,0.1,1.9,0.2,2.7,0.5c0.4,0.2,0.9,0.4,1.3,0.7c0.2,0.2,0.4,0.4,0.5,0.6c0.6-1.4,1-2.5,1.5-3.9
		c0.3-0.8,0.6-1.7,0.8-2.5c0.2-0.8,0.5-1.7,0.6-2.6c0,0.9-0.1,1.8-0.2,2.7c-0.1,0.9-0.3,1.8-0.5,2.6c-0.3,1.7-0.8,3.3-1.2,5
		c0.3,0.8,1.2,3.3,2,6c0.1-0.9,0.7-1,1.1-0.8c0.4,0.2,0.5,0.3,0.7,1c0.2,0.7-0.6,1.8-1.1,1.5c-0.1,0-0.2-0.1-0.2-0.2
		c0.7,2.3,1.2,4.6,1.2,5.7c0,0.2,0,0.4,0,0.6c0.4-0.5,0.8-0.4,1.2-0.2c0.4,0.3,0.5,0.5,0.6,1.3c0.1,0.8-1.1,1.9-1.6,1.5c0,0,0,0,0,0
		c0.3,3.6,1.1,8.6,2.4,11c0.3,0.5,0.8,0.8,1.3,0.8h8.8c0.2,0,0.4-0.1,0.5-0.2c0.1-0.1,0.2-0.3,0.2-0.5c-0.2-2.2-1.2-2.2-1.5-2.2
		c-2.3,0-3.6-0.4-4.6-2.5c-0.3-0.6-0.5-1.8-0.7-3.2c-0.2,0.3-0.6,0.6-0.8,0.4c-0.5-0.3-0.8-0.7-0.7-1.7c0.1-0.9,0.7-1,1.1-0.8
		c0.1,0,0.1,0.1,0.2,0.1c-0.3-2.8-0.6-5.8-0.6-7c-0.5,0.5-1.1,0.9-1.5,0.6c-0.6-0.5-1-1.3-0.6-2.6c0.4-1.3,1.3-1.3,1.8-0.9
		c0.3,0.2,0.4,0.4,0.5,0.6c0.4-2.8,1.3-7.1,1.8-8.8l0.1-0.3l0.2-0.2c0,0,0.1,0,0.1-0.1c0.9-0.7,1.6-1.6,2-2.7
		c0.1-0.1,0.1-0.3,0.2-0.4c0.3-0.8,0.6-1.7,0.8-2.5c0.2-0.9,0.4-1.7,0.5-2.6c0.1-0.9,0.2-1.7,0-2.6l0,0l0,0c0-0.6,0.4-1.1,0.6-1.5
		c0.3-0.4,0.6-0.8,1-1.2c0.7-0.7,1.4-1.4,2.2-2.1c0.8-0.7,1.6-1.3,2.5-1.7c0.2-0.1,0.5-0.2,0.7-0.3c0.1-0.1,0.3-0.1,0.4-0.1l0.4-0.1
		c0.5-0.1,0.9-0.3,1.4-0.4c1-0.3,1.9-0.5,2.9-0.6c0.5-0.1,1-0.1,1.5-0.2c0.1,0,0.3,0,0.4,0c0.1,0,0.3,0,0.4,0c0.3,0,0.6,0.2,0.8,0.3
		c0.7,0.4,1.1,0.9,1.6,1.4c0,0,0-0.1,0-0.1c0.1-0.7,0.4-0.8,0.7-0.6c0.3,0.2,0.3,0.3,0.5,0.8c0.1,0.3,0,0.7-0.2,0.9
		c0.4,0.5,0.9,0.9,1.4,1.4c0.2,0.1,0.4,0.1,0.6,0.2c0.6,0.2,1.3,0.4,1.9,0.7c0.3,0.2,0.6,0.4,0.9,0.6c0.3,0.2,0.6,0.3,0.9,0.5
		c0.6,0.3,1.2,0.5,1.8,0.8c0.3,0.1,0.6,0.3,0.9,0.4l0.4,0.2l0.2,0.1c0.1,0,0.1,0,0.1,0c0.3,0.1,0.9-0.2,1.3-0.6
		c0.4-0.3,0.7-0.7,1.1-1.1c-0.6,0-1.1-0.1-1.6-0.2c-0.4-0.1-0.7-0.1-1.1-0.2c0,0,0,0-0.1,0c0,0,0,0-0.1,0c0,0-0.1,0-0.1,0
		c-0.2-0.1-0.4-0.1-0.5-0.2c-0.3-0.1-0.6-0.2-0.9-0.4c-0.3-0.2-0.5-0.4-0.8-0.5l-1.4-1.1l1.6,0.8c0.1,0.1,0.2,0.1,0.3,0.2
		c0-0.1-0.1-0.1-0.1-0.2c-0.2-0.3-0.4-0.7-0.4-1.2c0-0.4,0-0.8,0.1-1.2c0.3-0.7,0.7-1.3,1.3-1.8c0.6-0.5,1.3-0.8,2-0.8
		c-0.7,0.2-1.3,0.6-1.7,1.1c-0.2,0.3-0.4,0.5-0.6,0.8c-0.2,0.3-0.3,0.6-0.4,0.9c-0.2,0.6,0,1.2,0.4,1.7c0.4,0.5,0.5,0.7,1.9,1.2
		c0.2,0,0.7,0.1,2.9,0c0.5-0.6,1-1.3,1.3-2c0.1-0.1,0.1-0.2,0.2-0.3C126.1,81.6,125.5,79.7,125.7,79.6z M32,70.5
		c0,0,0.1-0.1,0.2-0.1l0,0c0.1,0,0.3-0.1,0.5,0c0.2,0,0.2,0,0.4,0.1c0.2,0,0.4,0,0.7,0c0.1,0,0.3,0.1,0.3,0.2c0,0.1,0,0.3-0.2,0.3
		c0,0,0,0,0,0c-0.2,0-0.5,0.1-0.7,0.2c-0.1,0-0.3,0-0.3,0.1c-0.1,0-0.1,0.1-0.2,0.1c-0.2,0.1-0.5,0.1-0.6-0.1
		C31.8,70.9,31.8,70.6,32,70.5z M34.1,75.6c-0.3,0.1-0.7,0-0.9-0.4c-0.1-0.3,0-0.7,0.3-0.8l0,0c0.4-0.2,0.8-0.4,1.2-0.7l0,0
		c0.3-0.2,0.7-0.1,0.9,0.3c0.2,0.3,0.1,0.7-0.2,0.9C34.9,75.2,34.5,75.4,34.1,75.6z M34.8,83.8c0,0.4-0.1,0.7-0.2,0.9
		c-0.2,0.4-0.6,0.6-1.1,0.5C33.2,85,33,84.7,33,84.3l0,0l0.1-0.5c0-0.1,0-0.2,0.1-0.3l0-0.4c0-0.4,0.3-0.6,0.7-0.6
		c0.2,0,0.4,0.1,0.5,0.3C34.7,83,34.8,83.4,34.8,83.8z M32.4,76.1c-0.1,0.1-0.1,0.1-0.2,0.1c-0.3,0-0.5,0.1-0.8,0.1l-0.1,0
		c-0.3,0-0.6-0.1-0.8-0.2l0,0c-0.1-0.1-0.2-0.2-0.2-0.3c0.1-0.1,0.2-0.2,0.3-0.2c0,0,0.1,0,0.1,0.1c0.2,0.2,0.3,0.3,0.5,0.5
		c0.2-0.2,0.3-0.4,0.5-0.6c0.1-0.1,0.4-0.1,0.5,0C32.6,75.7,32.6,75.9,32.4,76.1z M32.2,73.3c0.1,0.2,0,0.5-0.3,0.7
		c-0.3,0.2-0.6,0.1-0.8-0.1c-0.1-0.2,0-0.5,0.3-0.7C31.8,73,32.1,73,32.2,73.3z M29,71.9C29,71.9,29,71.9,29,71.9L29,71.9
		c0.5-0.4,0.9-0.6,1.3-0.8c0.4-0.2,0.8,0,1,0.3c0.2,0.3,0.1,0.7-0.2,0.9l0,0c-0.4,0.3-0.7,0.5-1,0.8c-0.3,0.3-0.9,0.3-1.2-0.1
		C28.6,72.7,28.6,72.2,29,71.9z M24,78.9c0.1-0.3,0.4-0.5,0.7-0.5c0.1,0,0.1,0,0.2,0.1l0,0c0.2,0.2,0.4,0.3,0.6,0.4
		c0.2,0.1,0.4,0.3,0.6,0.4l0,0c0,0,0.1,0.1,0,0.1c0,0,0,0,0,0c-0.2,0.2-0.5,0.2-0.8,0.2c-0.3,0-0.6-0.1-0.8-0.1
		C24.1,79.6,23.9,79.3,24,78.9z M24.7,81.2c0,0.2-0.2,0.4-0.5,0.4c-0.3,0-0.5-0.2-0.5-0.4c0-0.2,0.2-0.4,0.5-0.4
		C24.5,80.8,24.7,81,24.7,81.2z M22.1,81.4C22,81.3,22,81.1,22,81c0.2-0.5,0.4-1,0.6-1.4c0.2-0.3,0.5-0.4,0.8-0.3
		c0.3,0.2,0.4,0.5,0.3,0.8c0,0.1-0.1,0.1-0.1,0.1l0,0c-0.3,0.4-0.7,0.7-1,1l0,0C22.5,81.5,22.3,81.5,22.1,81.4z M22.7,82.9
		L22.7,82.9c-0.1-0.1-0.2-0.3-0.1-0.4c0.1-0.1,0.2-0.1,0.3-0.1c0.3,0,0.6,0.1,0.9,0.3c0.1,0.1,0.2,0.1,0.3,0.1c0.1,0,0.1,0,0.2,0
		c0.1,0,0.2,0,0.4,0.1c0-0.1,0-0.2,0-0.3c0-0.1,0-0.1,0.1-0.2l0,0c0.1-0.1,0.1-0.3,0.2-0.4l0.2-0.3c0.1-0.2,0.3-0.4,0.4-0.5l0,0
		c0.2-0.3,0.6-0.4,0.8-0.2c0.2,0.1,0.3,0.4,0.3,0.7c-0.1,0.3-0.1,0.5-0.3,0.8c-0.1,0.1-0.1,0.2-0.1,0.3c0,0.1-0.1,0.2-0.1,0.3
		c-0.1,0.4-0.6,0.7-1,0.5c-0.1,0-0.1,0-0.2-0.1c0,0.4-0.3,0.7-0.7,0.7c-0.1,0-0.2,0-0.3-0.1l-0.2-0.1c-0.2-0.1-0.4-0.2-0.5-0.3
		c-0.1-0.1-0.2-0.3-0.2-0.4C23,83.2,22.9,83,22.7,82.9z M26.9,94.4c0.3-0.2,0.6,0,0.8,0.3c0.1,0.3,0,0.7-0.3,0.8
		c-0.1,0-0.1,0.1-0.2,0.1l0,0c-0.3,0-0.5,0-0.7,0c-0.2,0-0.4,0-0.7,0.1l0,0c0,0-0.1,0-0.1-0.1c0,0,0,0,0,0c0.1-0.3,0.3-0.6,0.5-0.8
		C26.5,94.6,26.7,94.5,26.9,94.4z M24.4,94.9c-0.3,0.1-0.5,0-0.7-0.2c-0.2-0.2-0.3-0.5-0.4-0.7c-0.1-0.2-0.3-0.5-0.4-0.7
		c-0.2-0.4,0-0.9,0.5-1.1c0,0,0,0,0.1,0c-0.1,0-0.3-0.1-0.4-0.1c-0.4-0.3-0.4-0.8-0.2-1.1c0.2-0.2,0.4-0.3,0.6-0.3l0.4,0
		c0.2,0,0.4,0,0.5,0.1l0.3,0.1c0.2,0.1,0.4,0.1,0.6,0l0,0c0.1-0.1,0.3,0,0.3,0.2c0,0.1,0,0.2-0.1,0.3c-0.2,0.2-0.5,0.3-0.8,0.4
		c-0.1,0-0.3,0.1-0.4,0.1c-0.1,0-0.2,0.1-0.3,0.1c-0.1,0.1-0.3,0.2-0.4,0.3c0.3,0,0.6,0.2,0.7,0.5c0,0,0,0,0,0.1l0,0
		c0,0.1,0.1,0.2,0.1,0.4c0,0.1,0,0.2,0.1,0.4c0.1,0.2,0.1,0.4,0.2,0.7l0,0C24.9,94.5,24.8,94.8,24.4,94.9z M26.8,107.4
		c-0.9,0.9-1.7,0.5-1.9,0c-0.3-0.6-0.3-0.8,0-1.7c0.3-0.9-0.4-1.6,1.5-1.5c0.8,0,0.9-0.7,1.2,0c0.3,0.7,0.2,0.7,0.2,1.8
		C27.8,106.4,27.7,106.5,26.8,107.4z M27.6,93.9c-0.3,0.1-0.7,0-0.9-0.4c0-0.1,0-0.1,0-0.2l0,0c-0.1-0.5-0.1-1-0.1-1.5l0,0
		c0-0.2,0.1-0.4,0.3-0.4c0.2,0,0.3,0.1,0.4,0.2c0.3,0.5,0.5,1,0.7,1.4C28.1,93.4,28,93.8,27.6,93.9z M28.8,75.4
		c-0.2-0.1-0.5-0.1-0.7-0.2l-0.2-0.1l-0.1-0.3c-0.1-0.1-0.1-0.2-0.1-0.2c0-0.1,0-0.1,0-0.2c0-0.1,0-0.2,0-0.3c0-0.2,0-0.4,0.1-0.5
		l0-0.1c0.1-0.4,0.5-0.6,0.9-0.5c0.4,0.1,0.6,0.5,0.5,0.9c0,0.1,0,0.1-0.1,0.1c0,0,0,0,0,0c0.1,0.1,0.2,0.1,0.3,0.2
		c0.3,0.2,0.4,0.5,0.2,0.8C29.4,75.4,29.1,75.5,28.8,75.4L28.8,75.4z M30.7,86.2c-0.1,0.2-0.3,0.3-0.4,0.3l-0.1,0l-0.1,0
		c-0.1,0-0.2,0-0.3-0.1c-0.2-0.1-0.4-0.2-0.6-0.5C29,85.6,29,85.4,29,85.2c0-0.2,0.1-0.4,0.1-0.5c0.1-0.4,0.5-0.6,0.9-0.4
		c0.4,0.1,0.6,0.5,0.4,0.9c0,0,0,0.1,0,0.1l0,0l-0.1,0.2c0,0,0,0-0.1,0c0,0-0.1,0-0.1,0c0,0,0,0,0.1,0.1l0.2,0.1
		C30.7,85.7,30.8,85.9,30.7,86.2z M30.6,83.8c-0.2-0.1-0.4-0.3-0.3-0.6c0-0.1,0.1-0.2,0.2-0.2c0.2-0.2,0.4-0.3,0.7-0.4l0.1,0
		c0.3-0.1,0.6-0.2,0.8-0.2l0,0c0.2,0,0.4,0.1,0.4,0.3c0,0.2-0.1,0.4-0.3,0.4c-0.1,0-0.1,0-0.2,0c-0.2-0.1-0.4-0.2-0.6-0.3
		c0,0.3-0.1,0.6-0.1,0.8C31.1,83.8,30.8,83.9,30.6,83.8z M32.2,95.1c-0.3,0.1-0.6-0.1-0.8-0.4c-0.1-0.3-0.3-0.5-0.4-0.8
		c0-0.1-0.1-0.2-0.1-0.4c0-0.2,0-0.5,0.1-0.5c0-0.1,0.1-0.1,0.1-0.2l0,0c0.1-0.4,0.5-0.7,0.9-0.5c0.3,0.1,0.5,0.4,0.6,0.7
		c0,0.2,0,0.4,0,0.6c0,0.1,0-0.1,0-0.1c0,0,0,0,0,0.1c0.1,0.2,0.1,0.5,0.1,0.8l0,0C32.8,94.6,32.6,95,32.2,95.1z M33.4,86.4
		L33.4,86.4c-0.1,0.1-0.2,0.2-0.4,0.3c-0.1,0.1-0.2,0.1-0.3,0.1c-0.1,0-0.1,0-0.2,0c-0.1,0-0.2,0.1-0.3,0.1
		c-0.1,0.1-0.2,0.2-0.4,0.2c-0.1,0-0.3,0-0.3-0.1c0-0.1,0-0.2,0.1-0.3c0.1,0,0.1-0.1,0.2-0.2c0.1-0.1,0.2-0.2,0.3-0.3l0.2-0.1
		c0,0,0,0,0-0.1c0,0,0-0.2,0.1-0.3c0.1-0.3,0.3-0.4,0.6-0.4c0.3,0.1,0.4,0.3,0.4,0.6C33.5,86.3,33.4,86.4,33.4,86.4z M33.5,91.7
		L33.5,91.7c0.2-0.1,0.4-0.1,0.6,0c0.2,0.1,0.3,0.3,0.4,0.4c0.2,0.3,0.3,0.5,0.5,0.8l0,0c0.1,0.2,0,0.5-0.2,0.6
		c-0.2,0.1-0.5,0-0.6-0.2c0-0.1-0.1-0.1-0.1-0.2c0-0.3,0-0.5-0.1-0.8c0-0.1-0.1-0.2-0.2-0.2c-0.1,0-0.1,0-0.2,0
		c-0.1,0.1-0.3,0-0.3-0.1C33.4,91.9,33.4,91.8,33.5,91.7z M35.5,95.6c-0.3,0.3-0.6,0.3-0.7,0.4c-0.2,0-0.3,0-0.4,0
		c-0.2,0-0.4,0-0.8,0l0,0c0,0-0.1,0-0.1-0.1c0,0,0,0,0,0c0-0.2,0.1-0.3,0.2-0.5c0.1-0.2,0.3-0.3,0.4-0.4c0.1-0.1,0.3-0.2,0.4-0.2
		c0.1-0.1,0.1-0.1,0,0c0.2-0.3,0.6-0.3,0.9-0.1S35.7,95.3,35.5,95.6z M36,73.2c-0.2,0.2-0.5,0.3-0.7,0.1c-0.1,0-0.1-0.1-0.1-0.1
		c0,0-0.1-0.1-0.1-0.1C35.1,73,35,73,35,72.9c-0.1-0.1-0.2-0.2-0.2-0.4c-0.1-0.3-0.2-0.5-0.2-0.8c0-0.2,0.1-0.3,0.3-0.3
		c0.1,0,0.3,0.1,0.3,0.2l0,0c0.1,0.2,0.2,0.4,0.3,0.5c0.1,0.1,0.1,0.1,0.2,0.2c0,0,0.1,0.1,0.1,0.1c0,0,0.1,0,0.2,0.1l0.1,0
		C36.1,72.7,36.2,73,36,73.2z M92.1,68.2c0.3-0.3,0.7-0.2,1,0c0.1,0.2,0.2,0.4,0.2,0.6c0,0.2,0,0.3,0,0.4c-0.1,0.2-0.1,0.3-0.2,0.4
		C93,69.8,92.9,70,93,70.2l0,0c0,0.1-0.1,0.3-0.2,0.3c-0.1,0-0.2,0-0.3-0.1c-0.1-0.1-0.2-0.3-0.2-0.5c-0.1-0.2-0.1-0.3-0.1-0.5
		c0-0.2,0-0.3-0.1-0.4c0,0,0-0.1,0,0c0,0,0,0.1,0.1,0.2C91.8,68.9,91.9,68.5,92.1,68.2z M91.7,71.4c0.2,0,0.4,0.1,0.4,0.3
		c0,0.2-0.1,0.3-0.2,0.4c-0.5,0.2-1.1,0.4-1.6,0.5c-0.3,0.1-0.7-0.1-0.8-0.4c-0.1-0.3,0.1-0.7,0.4-0.8c0,0,0.1,0,0.1,0h0
		C90.6,71.3,91.2,71.4,91.7,71.4L91.7,71.4z M88.7,78.2L88.7,78.2c-0.2-0.2-0.2-0.4,0-0.6c0.1-0.1,0.3-0.2,0.4-0.1
		c0.6,0.2,1.1,0.4,1.6,0.7l0,0c0.3,0.2,0.4,0.7,0.2,1c-0.2,0.3-0.7,0.4-1,0.2c-0.1,0-0.1-0.1-0.1-0.1C89.5,79,89.1,78.6,88.7,78.2z
		 M89.5,81c0,0.2-0.2,0.4-0.5,0.4c-0.3,0-0.5-0.2-0.5-0.4s0.2-0.4,0.5-0.4C89.3,80.6,89.5,80.8,89.5,81z M88.7,68.4
		c0.3-0.2,0.5-0.3,0.8-0.4c0.3-0.1,0.5-0.2,0.8-0.3c0.4-0.1,0.9,0.1,1,0.6c0.1,0.4-0.1,0.9-0.5,1c0,0-0.1,0-0.1,0l0,0
		c-0.3,0-0.5,0-0.8,0.1l-0.8,0l0,0c-0.3,0-0.5-0.2-0.5-0.5C88.5,68.6,88.6,68.5,88.7,68.4z M87.3,70.2
		C87.3,70.1,87.4,70.2,87.3,70.2c0.1,0,0.1,0,0.1,0c0.1,0.3,0.2,0.5,0.4,0.7c0.2,0.2,0.4,0.4,0.6,0.4c0.3,0.1,0.5,0.4,0.4,0.7
		c-0.1,0.3-0.4,0.5-0.7,0.4c-0.1,0-0.2-0.1-0.3-0.3L87.7,72c-0.2-0.3-0.2-0.7-0.3-1c-0.1-0.3-0.1-0.6-0.2-0.8
		C87.2,70.2,87.2,70.2,87.3,70.2z M85.6,79L85.6,79c0.2-0.3,0.4-0.5,0.6-0.7c0.2-0.2,0.4-0.4,0.5-0.6c0,0,0.1,0,0.1,0
		c0,0,0,0.1,0,0.1c0,0,0,0,0,0c-0.3,0.4-0.5,1-0.6,1.5c0,0.2-0.2,0.4-0.4,0.3c-0.2,0-0.4-0.2-0.3-0.4C85.6,79.1,85.6,79.1,85.6,79z
		 M85.6,80.7c0.2-0.3,0.7-0.3,1-0.1c0,0,0,0,0,0c0.4,0.4,0.8,0.9,1.1,1.3c0.2,0.2,0.1,0.6-0.1,0.8c-0.2,0.2-0.5,0.1-0.7,0l0,0
		c-0.4-0.3-0.9-0.7-1.2-1l0,0C85.4,81.5,85.4,81,85.6,80.7z M82.4,72c0.3,0,0.6,0.2,0.6,0.5c0,0.1,0,0.2,0,0.2l0,0
		c-0.1,0.3-0.2,0.5-0.2,0.7c-0.1,0.2-0.1,0.5,0,0.7l0,0c0,0.1,0,0.3-0.2,0.3c-0.1,0-0.3,0-0.3-0.1c-0.1-0.3-0.2-0.6-0.3-0.9
		c-0.1-0.3-0.1-0.6-0.1-0.9C81.9,72.3,82.1,72.1,82.4,72z M82.2,76.3c-0.5,0.2-1.1,0.4-1.6,0.6c-0.2,0.1-0.4-0.1-0.5-0.3
		c-0.1-0.2,0.1-0.4,0.3-0.5c0,0,0.1,0,0.1,0c0.5,0,1.1-0.1,1.5-0.3l0,0c0.1,0,0.3,0,0.3,0.2C82.4,76.1,82.4,76.2,82.2,76.3z
		 M79.3,70.7c0.1,0,0.3-0.1,0.4-0.1c0.2,0,0.3,0,0.6,0c0.3,0,0.5,0.1,0.6,0.1c0.1,0,0.2,0.1,0.3,0.1l0,0c0.4,0.1,0.7,0.6,0.5,1
		c-0.1,0.4-0.5,0.6-0.9,0.6c-0.2,0-0.3-0.1-0.5-0.1c-0.2,0-0.2-0.1-0.2,0c0,0-0.1,0-0.2,0l-0.4,0.1c-0.4,0.1-0.9-0.2-0.9-0.7
		C78.6,71.2,78.9,70.8,79.3,70.7z M74.6,74.1C74.6,74.1,74.7,74.1,74.6,74.1c0.1,0,0.1,0,0.1,0c0.2,0.5,0.5,1,0.8,1.4
		c0.1,0.1,0.1,0.3,0,0.4c-0.1,0.1-0.3,0.1-0.4,0c0,0-0.1-0.1-0.1-0.1l0,0c-0.2-0.6-0.3-1.1-0.5-1.6C74.5,74.2,74.5,74.1,74.6,74.1z
		 M72.7,80.2C72.7,80.2,72.7,80.2,72.7,80.2L72.7,80.2c0.2-0.1,0.6-0.3,0.9-0.3c0.2,0,0.4,0.1,0.5,0.2c0.1,0.1,0.3,0.2,0.4,0.3l0,0
		c0.1,0.1,0.1,0.3,0,0.4c-0.1,0.1-0.3,0.1-0.4,0c0,0,0,0,0,0c-0.1-0.2-0.3-0.3-0.5-0.4c-0.1,0-0.2,0-0.3,0.1c-0.1,0-0.2,0.1-0.3,0.2
		c-0.1,0.1-0.3,0-0.3-0.1S72.5,80.3,72.7,80.2z M69.6,72.5c0.1-0.1,0.3,0,0.4,0.1c0,0,0,0.1,0,0.1l0,0c0,0.3-0.1,0.5-0.1,0.8
		c-0.1,0.3-0.1,0.5-0.1,0.7c0,0,0,0.1-0.1,0.1c0,0-0.1,0-0.1-0.1c0,0,0,0,0,0c0.1-0.5,0.1-1-0.1-1.4C69.4,72.8,69.5,72.6,69.6,72.5z
		 M63.7,70.3c0.5-0.1,1-0.1,1.5,0c0.2,0,0.4,0.2,0.4,0.4c0,0.2-0.2,0.4-0.4,0.4c0,0-0.1,0-0.1,0c-0.5-0.1-0.9-0.2-1.4-0.2l0,0
		c-0.1,0-0.3-0.1-0.3-0.3C63.5,70.4,63.6,70.3,63.7,70.3z M61.9,73.3c0-0.1,0.1-0.2,0.1-0.2c0.2-0.2,0.3-0.4,0.4-0.5
		c0.1-0.2,0.2-0.4,0.2-0.6l0,0c0-0.1,0.1-0.3,0.3-0.3c0.1,0,0.2,0.1,0.3,0.2c0.1,0.3,0.1,0.6,0,0.9c0,0.3-0.1,0.6-0.2,0.8
		c-0.1,0.3-0.4,0.5-0.7,0.4C62,73.9,61.8,73.6,61.9,73.3z M59.9,80.2c0,0,0.1,0,0.1-0.1c0.1,0,0.2-0.1,0.3-0.1
		c0.1-0.1,0.3-0.2,0.6-0.2c0.3-0.1,0.7,0,0.9,0.2c0.2,0.2,0.3,0.3,0.4,0.5c0.2,0.3,0.1,0.7-0.2,0.9c-0.2,0.1-0.5,0.1-0.7,0l0,0
		c-0.1-0.1-0.2-0.1-0.2-0.1c0,0,0.1,0.1,0.1,0.1c0,0,0,0-0.1,0.1c-0.1,0.1-0.3,0.2-0.4,0.3l0,0c-0.4,0.2-0.9,0.1-1.1-0.3
		C59.4,80.9,59.6,80.4,59.9,80.2z M54.8,72.1c0.1,0,0.1,0,0.2,0c0.2,0.1,0.5,0.2,0.7,0.3l0.1,0l0,0c0.2,0.2,0.4,0.4,0.5,0.7l0,0
		c0.1,0.1,0,0.3-0.1,0.4c-0.1,0.1-0.3,0-0.4-0.1c0,0,0-0.1,0-0.1c0-0.2,0-0.5-0.1-0.7c-0.2,0.1-0.5,0.1-0.8,0.2
		c-0.2,0-0.4-0.1-0.4-0.3C54.5,72.3,54.7,72.1,54.8,72.1z M54.2,74.9c0,0.3-0.3,0.5-0.6,0.5c-0.3,0-0.6-0.2-0.6-0.5
		c0-0.3,0.3-0.5,0.6-0.5C53.9,74.5,54.2,74.7,54.2,74.9z M51.6,71.5c0.6-0.1,1.1,0,1.6,0.1c0.4,0.1,0.6,0.4,0.5,0.8
		c-0.1,0.3-0.3,0.5-0.7,0.5l0,0c-0.5,0-0.9,0-1.3,0l0,0c-0.4,0-0.7-0.3-0.7-0.6C51,71.8,51.3,71.5,51.6,71.5z M50.3,74.8
		c0.1-0.4,0.1-0.9,0-1.2c-0.1-0.3,0.1-0.5,0.3-0.6c0.3-0.1,0.5,0.1,0.6,0.3c0,0,0,0.1,0,0.1l0,0c0,0.6-0.2,1.1-0.4,1.6l0,0
		c-0.1,0.2-0.3,0.2-0.4,0.1C50.3,75.1,50.3,74.9,50.3,74.8z M49.6,84.1c0.2-0.2,0.4-0.3,0.5-0.5c0.1-0.1,0.2-0.2,0.3-0.1
		c0.1,0.1,0.2,0.2,0.1,0.3c-0.1,0.2-0.2,0.5-0.3,0.7c-0.1,0.2-0.1,0.4,0,0.6c0,0.3-0.2,0.6-0.5,0.7c-0.3,0-0.6-0.2-0.7-0.5
		c0-0.1,0-0.3,0.1-0.4l0-0.1c0.1-0.1,0.2-0.3,0.3-0.4C49.4,84.3,49.5,84.2,49.6,84.1z M47.4,77.1L47.4,77.1c0.2,0.2,0.4,0.4,0.5,0.7
		l0,0c0.1,0.1,0,0.3-0.1,0.4c-0.1,0.1-0.3,0-0.4-0.1c0,0,0-0.1,0-0.1c0-0.2,0-0.5-0.1-0.7c-0.3,0.1-0.5,0.2-0.8,0.2
		c-0.2,0-0.4-0.1-0.4-0.3c0-0.2,0.1-0.4,0.3-0.5c0.1,0,0.2,0,0.2,0C46.9,76.9,47.1,77,47.4,77.1L47.4,77.1z M45.2,70.8
		c0.1-0.1,0.2-0.2,0.3-0.2c0,0,0,0,0,0c-0.2-0.3-0.2-0.6,0.1-0.9c0.2-0.2,0.5-0.2,0.8-0.1l0,0l0.3,0.2l0.2,0.1l0,0.3
		c0,0.1,0,0.2,0,0.2c0,0.1,0,0.1,0,0.2c0,0.1,0,0.2-0.1,0.3c0,0.2-0.1,0.3-0.2,0.5c-0.2,0.3-0.3,0.5-0.6,0.7l0,0
		c-0.3,0.3-0.8,0.3-1.1-0.1C44.8,71.7,44.8,71.2,45.2,70.8C45.2,70.9,45.2,70.9,45.2,70.8z M45.9,79.3c0,0.2-0.2,0.4-0.5,0.4
		c-0.3,0-0.5-0.2-0.5-0.4c0-0.2,0.2-0.4,0.5-0.4C45.7,78.9,45.9,79.1,45.9,79.3z M43,67.7c0.1,0,0.1,0,0.2,0c0.3,0,0.5,0.1,0.8,0.1
		l0.1,0c0.3,0.1,0.5,0.3,0.7,0.4l0,0c0.1,0.1,0.1,0.3,0,0.4c-0.1,0.1-0.3,0.1-0.4,0c0,0-0.1-0.1-0.1-0.1c-0.1-0.2-0.2-0.4-0.4-0.6
		c-0.2,0.2-0.4,0.3-0.7,0.4c-0.2,0.1-0.4,0-0.5-0.2C42.7,68,42.8,67.7,43,67.7z M42.6,69.9c0.3,0,0.6,0.2,0.6,0.5
		c0,0.3-0.3,0.5-0.6,0.5c-0.3,0-0.6-0.2-0.6-0.5C42,70.1,42.2,69.9,42.6,69.9z M40,72.6c0,0.1-0.2,0.2-0.3,0.1l0,0
		c-0.2-0.1-0.4-0.2-0.4-0.4c-0.1-0.2-0.1-0.4,0-0.5c0-0.3,0.1-0.6,0-0.8c0-0.2,0.1-0.4,0.3-0.4c0.2,0,0.4,0.1,0.4,0.3
		c0,0,0,0.1,0,0.1l0,0c0,0.3-0.1,0.6-0.2,0.9c0,0.1,0,0.2,0,0.3c0,0.1,0.1,0.1,0.2,0.2C40,72.3,40.1,72.5,40,72.6z M41.2,69
		l-0.8,0.2c-0.2,0.1-0.5,0.1-0.6,0.2l-0.1,0c-0.3,0.1-0.7,0-0.8-0.3c-0.1-0.3,0-0.6,0.2-0.7c0.3-0.3,0.6-0.4,0.9-0.5
		c0.3-0.1,0.6-0.2,0.9-0.2l0,0c0.4-0.1,0.7,0.2,0.8,0.6C41.8,68.6,41.5,68.9,41.2,69z M41.6,72.7c0-0.2,0.1-0.4,0.3-0.5l0,0
		c0.3-0.1,0.5-0.2,0.8-0.3l0.8-0.3l0,0c0.4-0.1,0.8,0.1,1,0.5c0.1,0.4-0.1,0.8-0.5,1c0,0-0.1,0-0.1,0c-0.3,0-0.6,0.1-0.9,0.1
		c-0.3,0-0.6,0-0.9,0C41.8,73.3,41.6,73,41.6,72.7z M43.2,79.2L43.2,79.2c-0.1,0.3-0.3,0.5-0.4,0.7c-0.1,0.1-0.1,0.2-0.1,0.3
		c0,0.1,0,0.1,0,0.2l0,0c0.1,0.1,0.1,0.3-0.1,0.3c-0.1,0.1-0.2,0.1-0.3,0c-0.1-0.1-0.2-0.4-0.2-0.5c0-0.2,0.1-0.3,0.1-0.4
		c0.1-0.3,0.2-0.5,0.2-0.7c0-0.2,0.2-0.3,0.4-0.3S43.3,78.9,43.2,79.2C43.2,79.1,43.2,79.1,43.2,79.2z M43.7,77.5
		c-0.1,0-0.1,0-0.1,0l-0.9-0.8c0,0,0-0.1,0-0.1c0,0,0,0,0,0c0.2-0.2,0.4-0.3,0.6-0.4c0.2-0.1,0.3-0.1,0.5-0.1c0.3,0,0.6,0,0.9,0
		c0.4,0.1,0.6,0.4,0.6,0.8c0,0.3-0.3,0.6-0.7,0.6h0c-0.2,0-0.5,0-0.6,0C43.8,77.5,43.7,77.5,43.7,77.5z M46,82.2c0,0-0.1,0-0.1,0
		c-0.3,0-0.6-0.1-0.8-0.1c-0.3-0.1-0.5-0.1-0.8-0.2c-0.3-0.1-0.4-0.4-0.3-0.6c0.1-0.2,0.2-0.3,0.4-0.3l0,0c0.3,0,0.5-0.1,0.8-0.1
		c0.2,0,0.5,0,0.7-0.1l0.1,0c0.4,0,0.7,0.3,0.8,0.7C46.7,81.9,46.4,82.2,46,82.2z M48.2,81.8L48.2,81.8c-0.4,0.3-0.9,0.2-1.2-0.2
		c-0.3-0.4-0.2-0.9,0.2-1.1c0.1,0,0.1-0.1,0.2-0.1c0.1,0,0.2-0.1,0.3-0.1c0,0,0,0,0,0c0,0,0-0.1,0-0.1c-0.1-0.3,0.1-0.7,0.4-0.8
		c0.3-0.1,0.6,0,0.7,0.3l0,0c0.1,0.1,0.2,0.2,0.2,0.4l0.1,0.2l0,0.2c0,0.2,0,0.2-0.1,0.3c0,0.1-0.1,0.1-0.1,0.2
		c-0.1,0.1-0.1,0.2-0.2,0.4C48.6,81.5,48.4,81.6,48.2,81.8z M50.3,89c-0.2,0.1-0.4,0.1-0.6,0c-0.4-0.2-0.6-0.6-0.8-0.9
		c-0.1-0.3-0.2-0.6-0.2-0.9c0-0.5,0.3-0.9,0.8-0.9c0.4,0,0.8,0.3,0.9,0.7c0.1,0.4,0.2,0.7,0.2,0.8l0.1,0.3
		C50.8,88.4,50.6,88.8,50.3,89z M51.1,77.1c-0.1-0.1-0.2-0.1-0.3-0.2c-0.1-0.1-0.2-0.1-0.3-0.2c-0.1-0.1-0.2-0.2-0.1-0.3
		c0.1-0.1,0.2-0.2,0.3-0.1l0,0c0.2,0.1,0.4,0.2,0.7,0.3c0.1,0.1,0.2,0.2,0.3,0.2c0.1,0,0.1,0,0.2,0c0.2,0,0.4,0.2,0.4,0.4
		c0,0.2-0.2,0.4-0.4,0.4c0,0-0.1,0-0.1,0l0,0c-0.1,0-0.3-0.1-0.4-0.3C51.3,77.3,51.2,77.2,51.1,77.1z M53.2,86.9
		c-0.1,0.2-0.3,0.5-0.4,0.7l0,0.1c-0.2,0.2-0.5,0.4-0.7,0.5c-0.2,0.1-0.4,0-0.5-0.1c-0.1-0.2,0-0.4,0.1-0.5c0.1,0,0.1-0.1,0.2,0
		c0.2,0,0.5,0,0.7,0c-0.1-0.3-0.2-0.5-0.2-0.8c0-0.2,0.1-0.5,0.4-0.5c0.2,0,0.5,0.1,0.5,0.4C53.3,86.7,53.2,86.8,53.2,86.9z
		 M53.1,85.6c-0.4,0.1-0.7-0.2-0.8-0.6c0,0,0-0.1,0-0.1c0-0.1,0-0.1,0-0.1c0,0,0.1,0,0.1,0c0,0,0,0-0.1-0.1c-0.1,0-0.3,0-0.5-0.1
		c-0.2-0.1-0.4-0.3-0.3-0.6c0-0.2,0.2-0.3,0.3-0.3l0.1,0c0.1,0,0.1,0,0.2-0.1c0.2-0.1,0.4-0.1,0.7,0c0.3,0.1,0.5,0.3,0.6,0.5
		c0.1,0.2,0.2,0.4,0.2,0.6l0,0C53.7,85.2,53.5,85.5,53.1,85.6z M55.5,78.1C55.5,78.1,55.4,78.1,55.5,78.1l-0.1,0
		c-0.6,0.1-1.1,0.1-1.6,0c-0.4,0-0.7-0.4-0.6-0.8c0-0.4,0.3-0.6,0.7-0.6l0,0c0.4,0,0.9-0.1,1.2-0.2c0.4-0.1,0.9,0.1,1,0.6
		C56.2,77.5,55.9,78,55.5,78.1z M57.4,76.8L57.4,76.8c-0.3,0.4-0.7,0.5-1.1,0.3c-0.3-0.2-0.5-0.7-0.2-1c0,0,0.1-0.1,0.1-0.1
		c0,0,0,0,0,0c-0.1-0.2-0.1-0.4-0.2-0.7c-0.1-0.3,0.1-0.6,0.4-0.7c0.3-0.1,0.5,0.1,0.7,0.3l0,0c0.1,0.3,0.3,0.6,0.5,0.8l0.1,0.2
		l0,0.3c0,0.1,0,0.2-0.1,0.2c0,0.1,0,0.1-0.1,0.2C57.5,76.6,57.5,76.7,57.4,76.8z M57.9,84.2c-0.2-0.1-0.3-0.3-0.3-0.6
		c0.1-0.3,0.2-0.6,0.3-0.9c0.1-0.3,0.2-0.6,0.4-0.8l0,0c0.2-0.4,0.6-0.5,1-0.3s0.5,0.6,0.3,1c0,0,0,0.1-0.1,0.1
		c-0.2,0.2-0.3,0.4-0.5,0.6c-0.1,0.2-0.3,0.4-0.4,0.6l0,0C58.5,84.3,58.1,84.4,57.9,84.2z M60.4,86.8c-0.1,0.3-0.4,0.4-0.7,0.2
		c0,0-0.1-0.1-0.1-0.1l-0.3-0.3c-0.1-0.1-0.2-0.2-0.3-0.3c-0.2-0.2-0.4-0.3-0.7-0.5c0,0-0.1-0.1,0-0.1c0,0,0,0,0.1,0
		c0.3-0.1,0.6-0.1,0.9,0c0.3,0.1,0.6,0.2,0.9,0.3l0,0C60.4,86.2,60.5,86.6,60.4,86.8z M60.6,84c0-0.2,0.2-0.4,0.5-0.4
		c0.3,0,0.5,0.2,0.5,0.4c0,0.2-0.2,0.4-0.5,0.4C60.9,84.4,60.6,84.2,60.6,84z M63.2,85.8L63.2,85.8l-0.4,0.7
		c-0.1,0.2-0.3,0.4-0.4,0.6l0,0.1l-0.1,0.1l0,0l0,0c-0.3,0.3-0.7,0.2-1,0c-0.3-0.3-0.2-0.7,0-1c0,0,0,0,0,0c0.2-0.2,0.3-0.4,0.5-0.6
		c0.2-0.2,0.4-0.4,0.6-0.6c0.2-0.2,0.6-0.2,0.8,0C63.3,85.3,63.3,85.6,63.2,85.8z M64.3,83.7L64.3,83.7c0,0.2-0.2,0.2-0.3,0.2
		c-0.1,0-0.2-0.2-0.2-0.3c0,0,0,0,0,0c0.1-0.2,0.1-0.4,0-0.6c0-0.1-0.1-0.2-0.2-0.2c-0.1-0.1-0.2-0.1-0.3-0.2
		c-0.1,0-0.2-0.2-0.1-0.3c0-0.1,0.2-0.2,0.3-0.1c0,0,0,0,0,0l0,0c0.1,0.1,0.3,0.1,0.4,0.2c0.1,0.1,0.3,0.2,0.4,0.4
		C64.4,83.1,64.3,83.5,64.3,83.7z M65.4,75.4c-0.1,0.4-0.5,0.7-0.9,0.7c-0.1,0-0.3,0-0.4-0.1c-0.1,0-0.3-0.1-0.6-0.2
		c-0.1-0.1-0.2-0.1-0.3-0.2l-0.1-0.1c-0.1-0.1-0.1-0.1-0.2-0.2l0,0c-0.4-0.2-0.5-0.7-0.2-1.1c0.2-0.3,0.6-0.4,1-0.3
		c0.1,0.1,0.3,0.1,0.4,0.2l0.2,0.1c0,0,0,0,0,0c0,0,0.1,0,0.1,0l0.3,0.1C65.2,74.5,65.5,74.9,65.4,75.4z M65.3,73.1
		c0-0.3,0.3-0.5,0.7-0.5c0.4,0,0.7,0.2,0.7,0.5s-0.3,0.5-0.7,0.5C65.6,73.6,65.3,73.4,65.3,73.1z M68.1,75.6c-0.5,0.2-1,0.3-1.5,0.4
		l0,0c-0.3,0.1-0.6-0.2-0.7-0.5c-0.1-0.3,0.2-0.7,0.5-0.7c0.1,0,0.2,0,0.2,0c0.5,0.1,0.9,0.2,1.4,0.2l0,0c0.2,0,0.3,0.1,0.3,0.3
		C68.3,75.5,68.2,75.6,68.1,75.6z M68.3,72L68.3,72c-0.2-0.1-0.3-0.1-0.4-0.2c-0.3,0-0.6-0.1-0.9-0.2c-0.3-0.1-0.6-0.4-0.5-0.8
		c0.1-0.3,0.4-0.5,0.7-0.5l0,0c0.3,0,0.6,0.1,0.9,0.1l0.1,0l0.1,0.1c0.2,0.1,0.3,0.2,0.5,0.2c0.3,0.2,0.4,0.6,0.3,0.9
		C69,72,68.7,72.1,68.3,72z M69,81.7c0,0,0-0.1,0-0.1c0-0.1,0.1-0.2,0.1-0.3l0.1-0.2c0-0.1,0.1-0.2,0.1-0.3c0.1-0.2,0.4-0.5,0.6-0.6
		c0.3-0.1,0.5-0.1,0.7-0.1c0.3,0,0.6,0.4,0.6,0.7c0,0.3-0.2,0.5-0.5,0.5l-0.1,0c-0.1,0-0.2,0.1-0.1,0.1c0,0,0.1-0.1,0.1,0
		c0,0,0,0,0,0.1l0,0.2c0,0.2,0,0.3-0.1,0.5l0,0c-0.1,0.4-0.5,0.7-0.9,0.6C69.2,82.6,68.9,82.2,69,81.7z M70.9,85.9
		c-0.2,0.1-0.5,0-0.6-0.1c-0.2-0.2-0.4-0.5-0.5-0.8c-0.2-0.3-0.3-0.5-0.4-0.8l0,0c-0.2-0.4,0-0.8,0.4-1c0.4-0.2,0.8,0,0.9,0.4
		c0,0,0,0.1,0,0.1c0.1,0.2,0.1,0.5,0.2,0.7c0.1,0.2,0.2,0.5,0.3,0.7l0,0C71.3,85.4,71.2,85.7,70.9,85.9z M71.5,83.6
		c0-0.2,0.2-0.4,0.5-0.4c0.3,0,0.5,0.2,0.5,0.4c0,0.2-0.2,0.4-0.5,0.4C71.7,83.9,71.5,83.8,71.5,83.6z M73.5,93.4
		c-0.5-0.1-0.9-0.4-1.2-1.2c-0.3-0.8,0.1-1.1,0.5-1c0.4,0.1,0.5,0.1,0.9,0.6C74.1,92.4,73.9,93.5,73.5,93.4z M74.2,86
		c0,0-0.1,0.1-0.2,0.1c-0.5,0.1-1,0.3-1.5,0.5c0,0-0.1,0-0.1,0c0,0,0,0,0-0.1c0.2-0.6,0.7-1,1.2-1.3l0,0c0.2-0.2,0.6-0.1,0.7,0.1
		C74.5,85.5,74.5,85.9,74.2,86z M75.5,85c-0.4,0.1-0.8,0-0.9-0.4c0,0,0,0,0,0c-0.2-0.6-0.2-1.2-0.3-1.7c0-0.3,0.2-0.6,0.5-0.6
		c0.3,0,0.5,0.1,0.6,0.4l0,0c0.2,0.5,0.3,1.1,0.5,1.5l0,0C76.1,84.4,75.9,84.8,75.5,85z M76,72.9c-0.2,0-0.3,0-0.4-0.2
		c0-0.1,0-0.2,0.1-0.3c0.5-0.4,0.9-0.7,1.5-0.9l0,0c0.3-0.1,0.7,0,0.8,0.3c0.1,0.3,0,0.7-0.3,0.8c-0.1,0-0.1,0-0.2,0.1
		C77,72.6,76.5,72.7,76,72.9L76,72.9z M76.2,76.8c0.1-0.4,0.4-0.6,0.8-0.5l0.1,0c0.1,0,0.1,0,0.2,0c0.4-0.1,0.7-0.1,1.1-0.2
		c0.4,0,0.7,0.2,0.7,0.6c0,0.3-0.2,0.6-0.5,0.7l0,0c-0.4,0.1-0.8,0.2-1.1,0.3l-0.1,0l-0.1,0c-0.1,0-0.3,0-0.4-0.1
		C76.4,77.5,76.1,77.2,76.2,76.8z M78.6,94.2c-0.6-0.1-1.3-0.5-1.7-1.6c-0.4-1.1,0.1-1.5,0.7-1.4c0.5,0.1,0.7,0.2,1.3,0.9
		C79.5,92.8,79.2,94.4,78.6,94.2z M78.8,74.8c-0.4,0-0.7-0.2-0.7-0.5c0-0.3,0.3-0.5,0.7-0.5c0.4,0,0.7,0.2,0.7,0.5
		C79.5,74.6,79.2,74.8,78.8,74.8z M80.6,86.1c-0.3,0.2-0.8,0.2-1-0.2c-0.1-0.1-0.1-0.3-0.1-0.5l0-0.3c0-0.2,0.1-0.4,0.2-0.6
		c0.1-0.2,0.2-0.3,0.4-0.4c0.3-0.2,0.5-0.4,0.6-0.6c0,0,0.1,0,0.1,0c0,0,0,0.1,0,0.1c0,0,0,0,0,0c-0.2,0.2-0.3,0.5-0.3,0.8
		c0,0.1,0,0.3,0.1,0.4c0,0.1,0.1,0.2,0.1,0.2C81,85.4,80.9,85.8,80.6,86.1z M83,87.2C83,87.2,83,87.2,83,87.2L83,87.2
		c-0.1,0.2-0.2,0.4-0.5,0.4c-0.2,0-0.4,0-0.6-0.1c-0.3-0.1-0.6-0.3-0.8-0.4l0,0C81,87,80.9,86.7,81,86.5s0.4-0.3,0.6-0.1
		c0.1,0,0.1,0.1,0.1,0.1c0.1,0.2,0.3,0.4,0.5,0.6c0.1,0.1,0.2,0.1,0.2,0.1c0,0,0.1,0,0.1-0.1c0.1-0.1,0.2-0.2,0.3-0.1
		C83,87,83.1,87.1,83,87.2z M83.9,86.2c-0.3,0.1-0.7-0.1-0.8-0.4c0-0.1-0.1-0.2-0.1-0.3c0,0,0-0.1,0-0.1c0,0,0,0-0.1-0.1
		c-0.1-0.1-0.2-0.2-0.3-0.3c-0.1-0.1-0.2-0.2-0.2-0.3l0,0c-0.2-0.3-0.2-0.8,0.2-1c0.2-0.2,0.5-0.2,0.7,0c0.1,0.1,0.3,0.1,0.4,0.2
		c0.1,0.1,0.2,0.2,0.4,0.3c0.1,0.1,0.3,0.2,0.5,0.6c0.1,0.2,0,0.2,0.1,0.2c0,0,0,0.1,0,0.1l0,0.1C84.6,85.7,84.3,86.1,83.9,86.2z
		 M86.3,102.5c-0.8,0.3-0.6,0.2-1.3-0.3c-0.6-0.5-1-1.3-0.6-2.6c0.5-1.3,1.3-1.3,1.9-0.9c0.5,0.4,0.6,0.6,0.7,1.6
		C87.2,101.4,88.1,101.7,86.3,102.5z M87.7,121.9c0.3,0.2,0.4,0.3,0.6,0.8c0.2,0.5-0.5,1.4-0.9,1.2c-0.4-0.2-0.7-0.6-0.6-1.3
		C86.9,121.8,87.4,121.7,87.7,121.9z M87.3,92.7L87.3,92.7c-0.1-0.4-0.1-0.9-0.2-1.2l0-0.1l0-0.2c0-0.1,0-0.1,0.1-0.2
		c0.1-0.4,0.5-0.6,0.9-0.5s0.6,0.5,0.5,0.9c0,0,0,0,0,0l0,0c0,0,0,0,0,0c0,0.4,0,0.8,0,1.2c0,0.3-0.3,0.6-0.6,0.5
		C87.5,93.2,87.3,93,87.3,92.7z M89.1,95.7C89.1,95.7,89.1,95.7,89.1,95.7c-0.1,0-0.3,0.1-0.5,0c-0.2,0-0.3-0.2-0.4-0.3
		c-0.2-0.3-0.3-0.5-0.4-0.8c-0.1-0.2,0-0.3,0.2-0.4c0.2-0.1,0.3,0,0.4,0.2c0,0,0,0,0,0.1c0,0.2,0.1,0.5,0.2,0.6
		c0.1,0.1,0.2,0.2,0.4,0.1l0,0c0.1,0,0.3,0,0.3,0.1C89.3,95.6,89.2,95.7,89.1,95.7z M90.2,89.7C90.2,89.7,90.2,89.7,90.2,89.7
		L90.2,89.7c-0.3,0-0.6-0.1-0.8,0c-0.2,0-0.3,0.1-0.4,0.2c-0.2,0.2-0.5,0.3-0.7,0.1c-0.2-0.2-0.2-0.5-0.1-0.7c0-0.1,0.1-0.1,0.2-0.1
		l0.1,0c0.3-0.2,0.7-0.2,1-0.1c0.3,0.1,0.5,0.3,0.7,0.6C90.3,89.6,90.2,89.7,90.2,89.7z M89.8,84.2c-0.2,0.1-0.4,0-0.5,0
		c-0.2,0-0.3-0.1-0.4-0.2l0,0c-0.1-0.1-0.2-0.2-0.1-0.4c0.1-0.1,0.2-0.2,0.4-0.1c0,0,0,0,0,0c0.2,0.1,0.4,0.2,0.6,0.2
		c0.1,0,0.1-0.1,0.2-0.2c0.1-0.1,0.1-0.2,0.2-0.3c0-0.1,0.2-0.2,0.3-0.1c0.1,0.1,0.2,0.2,0.1,0.3c0,0,0,0,0,0
		c-0.1,0.1-0.1,0.3-0.2,0.4C90.2,84,90,84.2,89.8,84.2z M92.6,94.6c0,0,0,0.1-0.1,0.1c0,0.1-0.1,0.2-0.1,0.3c0,0.1-0.1,0.3-0.2,0.5
		c-0.1,0.1-0.1,0.2-0.2,0.3c-0.1,0.1-0.2,0.2-0.4,0.3c-0.3,0.1-0.6,0.1-0.7,0c-0.3-0.1-0.5-0.4-0.4-0.8c0.1-0.2,0.3-0.4,0.5-0.4
		c0,0,0,0,0,0c0,0,0-0.1,0-0.3c0-0.1,0-0.3,0.1-0.5l0,0c0.1-0.4,0.6-0.7,1-0.6C92.4,93.7,92.7,94.1,92.6,94.6z M91,91.2
		c-0.1-0.3,0.1-0.6,0.4-0.6c0.2,0,0.5,0.1,0.6,0.3c0.1,0.2,0.2,0.5,0.3,0.8c0.1,0.3,0.2,0.5,0.2,0.8l0,0c0.1,0.4-0.1,0.8-0.5,0.9
		c-0.4,0.1-0.8-0.1-0.9-0.5c0,0,0-0.1,0-0.1C91.1,92.1,91.1,91.6,91,91.2L91,91.2z M92.7,82.1c-0.1,0.2-0.2,0.3-0.3,0.3
		c-0.2,0.2-0.6,0.2-0.8-0.1c-0.1-0.1-0.1-0.3-0.1-0.4l0.1-0.4c0,0-0.1,0.1-0.1,0.1c0,0,0,0-0.1-0.1l0-0.1l-0.1-0.1l-0.1-0.2
		c-0.1-0.1-0.2-0.3-0.2-0.5l0,0c-0.2-0.4,0-0.9,0.5-1.1c0.4-0.2,0.9,0,1,0.5c0,0,0,0.1,0,0.1c0,0.1,0,0.2,0.1,0.3l0.1,0.2l0.1,0.2
		c0.1,0.2,0.1,0.4,0.1,0.7C92.8,81.8,92.8,82,92.7,82.1z M92.2,76.7c-1.1-0.9-0.7-1.7-0.1-1.9c0.6-0.3,0.8-0.2,1.8,0
		c1,0.3,1.7,2.2,1,2.5C94.1,77.6,93.3,77.6,92.2,76.7z M96.9,81.2c-0.5,0.2-1.1,0.2-1.8-0.4c-0.7-0.6-0.5-1.1-0.1-1.3
		c0.4-0.2,0.5-0.2,1.2,0S97.4,81,96.9,81.2z M98.2,65.6c0.5-0.2,0.6-0.1,1.3,0.2c0.6,0.3,0.6,2,0,2.2c-0.6,0.2-1.2,0.1-1.7-0.8
		C97.3,66.4,97.7,65.8,98.2,65.6z M99.1,77.2c-0.1,0.3-0.4,0.5-0.7,0.4c-0.1,0-0.2-0.1-0.3-0.3L98,77.2c-0.2-0.3-0.2-0.7-0.3-1
		c-0.1-0.3-0.1-0.6-0.2-0.8c0,0,0-0.1,0-0.1c0,0,0.1,0,0.1,0c0,0,0,0,0,0c0.1,0.3,0.2,0.5,0.4,0.7c0.2,0.2,0.4,0.4,0.6,0.4
		C99,76.5,99.2,76.9,99.1,77.2z M99.3,74.5L99.3,74.5c-0.3,0-0.6-0.2-0.6-0.5c0-0.2,0.1-0.4,0.2-0.4c0.3-0.2,0.5-0.3,0.8-0.4
		c0.3-0.1,0.5-0.2,0.8-0.3c0.4-0.1,0.9,0.1,1,0.6c0.1,0.4-0.1,0.9-0.5,1c0,0-0.1,0-0.1,0l0,0c-0.3,0-0.5,0-0.8,0.1L99.3,74.5z
		 M102.1,77.2c-0.5,0.2-1.1,0.4-1.6,0.5c-0.3,0.1-0.7-0.1-0.8-0.4c-0.1-0.3,0.1-0.7,0.4-0.8c0,0,0.1,0,0.1,0l0,0c0.6,0,1.1,0,1.6,0
		l0,0c0.2,0,0.4,0.1,0.4,0.3C102.3,77,102.2,77.1,102.1,77.2z M103.5,74.3c-0.1,0.2-0.1,0.3-0.2,0.4c-0.1,0.2-0.2,0.4-0.1,0.7l0,0
		c0,0.1-0.1,0.3-0.2,0.3c-0.1,0-0.2,0-0.3-0.1c-0.1-0.1-0.2-0.3-0.2-0.5c-0.1-0.2-0.1-0.3-0.1-0.5c0-0.2,0-0.3-0.1-0.4
		c0,0,0-0.1,0,0c0,0,0,0.1,0.1,0.2c-0.3-0.3-0.2-0.7,0-1c0.3-0.3,0.7-0.2,1,0c0.1,0.2,0.2,0.4,0.2,0.6
		C103.6,74.1,103.6,74.2,103.5,74.3z M106.1,72.2c-0.6,0.2-1.1,0.1-1.6-0.7c-0.5-0.8,0-1.4,0.4-1.5c0.5-0.2,0.6-0.1,1.2,0.2
		C106.7,70.4,106.6,72,106.1,72.2z M110.3,77.1c-0.6,0.1-1.3,0-1.9-0.9c-0.6-0.9-0.2-1.5,0.3-1.6s0.7-0.1,1.4,0.3
		C110.8,75.4,110.9,77,110.3,77.1z M113.9,71.6c-0.5,0.1-1.1-0.1-1.7-0.8c-0.6-0.8-0.2-1.1,0.2-1.2c0.4-0.1,0.6,0,1.2,0.4
		C114.3,70.3,114.5,71.5,113.9,71.6z M115.6,78.6c-0.4-0.1-0.9-0.5-1.1-1.3c-0.2-0.8,0.2-1,0.6-0.9c0.4,0.1,0.5,0.2,0.8,0.7
		S116.1,78.8,115.6,78.6z M121,74.4c-0.2-0.1-0.4-0.2-0.6-0.3c-0.3,0.1-0.6,0.2-1,0.1c-1-0.2-1.1-1.4-1.1-1.4s0.6-1.1,1.6-0.8
		c0.7,0.2,1.2,0.7,1.1,1.3c0.2,0.2,0.3,0.5,0.5,0.7c0.3,0.5,0.5,1.1,0.6,1.6C121.8,75.1,121.4,74.7,121,74.4z"/>
	<path class="st0" d="M10.4,105.8c-0.6,1-1.4,2-2.1,2.9c-0.1,0.1-0.2,0.3-0.4,0.4c0.6-0.1,1.9,0.5,2.7,1.1c0.6-0.8,1.2-1.6,1.8-2.5
		c-0.2-0.1-0.5-0.1-0.7-0.3C11,107.1,10.5,106.5,10.4,105.8z"/>
</g>
</svg>
