<?xml version="1.0" encoding="utf-8"?>
<!-- Generator: Adobe Illustrator 23.0.0, SVG Export Plug-In . SVG Version: 6.00 Build 0)  -->
<svg version="1.1" id="Layer_1" xmlns="http://www.w3.org/2000/svg" xmlns:xlink="http://www.w3.org/1999/xlink" x="0px" y="0px"
	 viewBox="0 0 128 128" style="enable-background:new 0 0 128 128;" xml:space="preserve">
<style type="text/css">
	.st0{fill:#2D2D2D;}
</style>
<g>
	<path class="st0" d="M8.7,111.6L8.7,111.6c0-0.1-0.1-0.1-0.1-0.1c-0.1-0.1-0.1-0.1-0.2-0.2c-0.2-0.2-0.4-0.4-0.6-0.6
		c-0.1-0.1-0.1-0.2-0.1-0.4c-0.2-0.2-0.4-0.3-0.5-0.5c-0.1-0.1-0.3-0.3-0.4-0.4c0,0-0.1,0-0.1,0l-0.2,0.1c-0.1,0.1-0.2,0.1-0.3,0.2
		c-0.1,0-0.2,0.1-0.2,0.1L6,110.1c-0.1,0.2-0.3,0.3-0.5,0.3c-0.2-0.1-0.3-0.3-0.3-0.5c0-0.1,0.1-0.1,0.1-0.2l0,0
		c0.1-0.1,0.2-0.2,0.4-0.3c0.2-0.1,0.4-0.1,0.5-0.1c0.1,0,0.2,0,0.3-0.1c0,0,0.1,0,0.1-0.1l0.1,0c-0.6-1.1-0.9-2.5-0.7-3.5
		c0.3-1.3,0.6-2.4,1.3-3.4c0.7-1,1.6-1.9,2.6-2.7s2-1.4,3.2-1.9c0.6-0.2,1.2-0.4,1.8-0.5c0.3-0.1,0.6-0.1,0.9-0.1
		c0.3,0,0.6-0.1,0.8-0.2c1.1-0.4,1.4-1.2,1.6-2.3c0.1-0.6,0.1-1.2-0.1-1.7c-0.2-0.5-0.5-1-1-1.4c-0.4-0.4-0.9-0.6-1.5-0.7
		c-0.3-0.1-2.7,0.1-3.8,0.5c-1.1,0.4-2.2,0.9-3.2,1.5C6.9,93.6,5.3,95,4,96.6c0,0.1,0.1,0.1,0.1,0.2c0.1,0.4-0.1,0.8-0.5,0.9
		c0,0,0,0-0.1,0c-0.1,0-0.1,0-0.2,0l0,0C3.1,98,3,98.1,2.9,98.3c-0.1,0.1-0.3,0.2-0.4,0.2c-0.4,0.6-0.7,1.1-1,1.7c0,0,0.1,0,0.1,0.1
		c0.1,0.1,0.2,0.3,0.1,0.4c-0.1,0.1-0.3,0.2-0.4,0.1c0,0,0,0,0,0c-0.4,0.9-0.7,1.8-0.9,2.8c-0.5,2.3-0.4,4.7,0.3,7
		c0.2,0.5,0.4,1.1,0.6,1.6c0.3,0.5,0.6,1,1,1.5c0.7,1,1.5,1.9,2.3,2.7c1.7,1.6,3.8,2.7,6.1,3.1c1.1,0.2,2.3,0.3,3.5,0.3
		c0.6,0,1.1-0.1,1.7-0.2c0.6-0.1,1.1-0.3,1.6-0.5c2.1-0.9,4-2.4,5.7-4.1c1.7-1.7,3.1-3.6,4.4-5.7c0.6-1,1.2-2.1,1.8-3.2
		c0.5-1.1,1-2.2,1.5-3.3c0-0.1,0.1-0.2,0.1-0.2c-0.1,0-0.3,0-0.4,0.1l0,0l0,0c-0.2-0.1-0.4-0.2-0.7-0.3l0,0c-0.1,0-0.2-0.2-0.2-0.3
		s0.2-0.2,0.3-0.2c0.1,0,0.1,0.1,0.2,0.1c0.1,0.2,0.3,0.3,0.4,0.5c0.2,0,0.4-0.2,0.5-0.3c0,0,0-0.1,0.1-0.1c0.1-0.2,0.1-0.3,0.2-0.5
		c-0.1,0-0.1,0-0.2-0.1c-0.1-0.1-0.1-0.1-0.2-0.2l0-0.1c-0.1-0.3-0.2-0.6-0.1-0.8c0-0.3,0.1-0.5,0-0.6l0,0c0-0.1,0.1-0.2,0.2-0.3
		c0.1,0,0.2,0,0.2,0.1c0.1,0.1,0.1,0.2,0.1,0.3c0,0.1,0.1,0.2,0.1,0.3c0.1,0.1,0.1,0.2,0.2,0.3c0.6-1.5,1.1-3,1.6-4.5
		c0.6-1.8,1.2-3.6,1.8-5.4c-0.1,0.1-0.1,0.1-0.2,0.2c-1,0.9-1.7,2.2-2.4,1.2c-0.7-1-0.3-1.9-0.3-1.9c0.5-0.7-0.4-0.8,0.3-1.4
		c0.7-0.6,1.3-1.1,2.1-0.2c0.4,0.5,0.7,0.8,0.8,1.2c0,0,0,0,0,0c0.1-0.6,0.2-1.2,0.3-1.8c0.3-1,0.6-1.9,1.1-2.8
		c-0.4,0.9-0.7,1.9-0.8,2.8c-0.1,1-0.2,1.9-0.1,2.9c0,1,0.2,1.9,0.3,2.9c0.2,0.9,0.4,1.9,0.7,2.8l0,0c0,0.1,0,0.2,0,0.3
		c0.1,0.9,0.6,4,1.6,6.9c0.3,0.8,0.4,1.7,0.3,2.6l-0.1,0.4c-0.3,2.3-0.7,4.9-2.7,6.1c-0.4,0.7-0.1,2.3,0.9,4.3l0,0.1
		c0.7,2,3.3,8.1,4.3,10.4c0.1,0.3,0.4,0.5,0.7,0.5h11c0-0.5-0.1-1.2-0.7-1.9c-0.9-1-2.6-1.5-5-1.5c-0.5,0-0.9-0.3-1.2-0.7l-0.3-0.4
		c-0.2-0.3-0.4-0.6-0.6-0.9c0,0.1,0,0.1,0,0.2c-0.1,0.3-0.4,0.5-0.6,0.6c0,0-0.1,0-0.1,0c0,0,0,0,0,0l0,0c0-0.3,0.1-0.5,0-0.6
		c0-0.1-0.1-0.1-0.1-0.1c0,0-0.1,0-0.1,0c-0.2-0.1-0.3-0.3-0.3-0.5c-0.1,0.1-0.1,0.2-0.2,0.2c-0.1,0-0.2,0.1-0.3,0.2
		c-0.1,0.1-0.2,0.1-0.3,0.2c-0.2,0.1-0.3,0.3-0.5,0.5l0,0c0,0,0,0-0.1,0.1c0.2,0,0.3,0,0.5,0.1c0.1,0.1,0.2,0.2,0.3,0.2
		c0.1,0.1,0.1,0.1,0.2,0.1l0,0c0.3-0.1,0.7,0.1,0.8,0.4c0.1,0.3,0,0.5-0.2,0.7c-0.1,0.1-0.4,0.3-0.7,0.3c-0.3,0-0.6-0.1-0.8-0.2
		c-0.2-0.1-0.2-0.2-0.3-0.3l-0.2-0.2l0-0.1c-0.2-0.3-0.2-0.7,0.1-1c0,0,0.1,0,0.1-0.1c-0.1,0-0.1,0-0.1,0c-0.2-0.1-0.2-0.3-0.1-0.5
		c0-0.1,0.1-0.1,0.2-0.1c0.2-0.1,0.5-0.2,0.6-0.3c0.1-0.1,0.1-0.2,0.2-0.3c0-0.1,0.1-0.2,0.1-0.3l0,0c0.1-0.2,0.3-0.4,0.6-0.3
		c0.2,0.1,0.3,0.2,0.3,0.4c0.1-0.2,0.4-0.4,0.6-0.3c-1.1-2-1.9-4.2-0.9-6c1.4-2.4,9.6-12.4,10-12.8c1-1.1,3.5-4.5,3-6.8
		c0-0.1,0-0.2,0-0.3c0-0.7-0.1-1.5-0.2-2.3c-0.1-0.8-0.3-1.7-0.6-2.5c-0.2-0.8-0.6-1.6-0.9-2.4c-0.4-0.8-0.8-1.5-1.4-2.2
		c0.6,0.6,1.2,1.3,1.6,2c0.5,0.7,0.9,1.5,1.3,2.3c0.4,0.8,0.7,1.6,0.9,2.5c0.2,0.9,0.4,1.7,0.6,2.6c0,0,0,0.1,0,0.1
		c0.4,2.2-0.7,4.2-1.8,5.8c2.1,0.8,4.2,1.5,6.5,2c1.2,0.2,2.4,0.4,3.6,0.6c0.6,0.1,1.2,0.1,1.8,0.2c0.6,0,1.2,0.1,1.8,0
		c0.6,0,1.2-0.1,1.8-0.2c0.6-0.1,1.2-0.2,1.8-0.3c1.2-0.2,2.5-0.4,3.7-0.6c1.2-0.2,2.5-0.3,3.7-0.5c0.8-0.1,1.6-0.2,2.4-0.4
		c0.1,0,0.2-0.2,0.2-0.3c-0.1-0.5,0.1-0.9,0.4-1.4l1.5-2.3c-0.2-0.9-0.4-1.8-0.5-2.7c-0.1-1-0.2-2-0.3-2.9c0-1,0-2,0.1-2.9
		c0.1-1,0.2-1.9,0.5-2.9c-0.1,1-0.2,1.9-0.1,2.9c0,1,0.1,1.9,0.3,2.9c0.2,0.9,0.4,1.9,0.6,2.8c0.2,0.9,0.5,1.8,0.9,2.6
		c0.1,0.2,0.1,0.5,0,0.7l-1.7,2.6c-0.2,0.3-0.2,0.7,0,1l0.7,1c0.4,0.6,0.7,1.2,0.8,1.8c0.2,1,0.6,2.6,0.9,4.3c0,0,0.1,0,0.1,0l0.1,0
		c0.2,0,0.4,0.1,0.6,0.3c0-0.2,0.1-0.4,0.2-0.5c0.1,0,0.1-0.1,0.2-0.1l0.1,0c0.3-0.1,0.7,0,0.9,0.1c0.3,0.1,0.4,0.3,0.6,0.6
		c0,0,0,0.1,0,0.1c0,0,0,0,0,0c-0.1,0-0.2,0-0.4,0c-0.1,0-0.2,0-0.3,0c-0.2,0-0.3,0.1-0.4,0.2c-0.2,0.2-0.5,0.1-0.7-0.1
		c0,0.3-0.2,0.6-0.5,0.6c0,0-0.1,0-0.1,0c0.1,0.6,0.2,1.3,0.3,1.9c0,0,0,0,0.1,0c0.2,0,0.3,0,0.4,0c0.1-0.1,0.3-0.1,0.5-0.1
		c0-0.1,0-0.3,0.1-0.4l0.1-0.1c0.1-0.1,0.1-0.2,0.2-0.2c0.1-0.1,0.2-0.2,0.2-0.2c0.1-0.1,0.2-0.2,0.3-0.4l0-0.1
		c0.1-0.3,0.4-0.4,0.7-0.3c0.2,0.1,0.3,0.3,0.3,0.5c0,0.3-0.1,0.6-0.2,0.9c-0.1,0.1-0.1,0.2-0.2,0.4c-0.1,0.1-0.1,0.2-0.2,0.3
		c-0.2,0.3-0.6,0.4-0.9,0.2c0,0.2-0.1,0.3-0.3,0.4c-0.1,0.1-0.2,0.1-0.3,0.1l-0.2,0c-0.1,0-0.2,0-0.3-0.1c0.3,2.2,0.6,4.3,0.5,5.7
		c-0.2,3.8,0.6,7.7,1.7,8.8c1.6,0,3.3,0,5,0.1c0.4,0,0.9,0,1.3,0c1.9,0,3.6,0.1,4.5,0c-0.3-1.1-1.3-2.9-4.9-2.9l-0.1,0
		c-1-0.2-1.4-1.5-1.4-5.9c0,0,0,0,0,0c-0.8,0.7-1.4,1.8-2,1c-0.6-0.8-0.2-1.6-0.2-1.6c0.4-0.6-0.3-0.6,0.3-1.1
		c0.6-0.5,1.1-0.9,1.7-0.1c0.1,0.1,0.2,0.2,0.3,0.3c0-0.6,0-1.2,0-1.9c0-0.6,0-1,0-1.4c0-0.9,0.3-2.1,0.6-3.5
		c0.3-1.2,0.6-2.7,0.8-4.1c-0.3,0.1-0.5,0-0.6-0.3c-0.1-0.2,0-0.4,0.1-0.5l0.1-0.1c0.1-0.1,0.1-0.2,0.1-0.3c0,0,0-0.1,0-0.1
		c0-0.1,0-0.2,0-0.4c0-0.2,0.1-0.3,0.2-0.4c0,0-0.1-0.1-0.1-0.2c0-0.1-0.1-0.2-0.1-0.3l0,0c0-0.1,0-0.2,0-0.2c0-0.1,0-0.1,0-0.2
		c0-0.1-0.1-0.3-0.2-0.4l0,0c-0.1-0.2,0-0.5,0.2-0.6c0.1-0.1,0.2-0.1,0.4,0c0-0.1,0.1-0.2,0.1-0.3c0.1-0.2,0.3-0.4,0.4-0.6
		c0.3-0.4,0.6-0.7,0.9-1c0.3-0.3,0.7-0.6,1.1-0.9c0.3-0.2,0.7-0.4,1.2-0.6c0.2-0.4,0.4-0.8,0.6-1.1c0.2-0.4,0.5-0.9,0.7-1.3
		c0.4-0.9,0.6-1.9,0.7-2.8c0.1,1,0,2-0.3,3c-0.1,0.5-0.3,1-0.5,1.4c-0.2,0.5-0.4,0.9-0.5,1.3l-0.1,0.2l-0.2,0.1
		c-0.3,0.1-0.6,0.3-0.9,0.6c-0.3,0.3-0.6,0.6-0.8,0.9c-0.2,0.2-0.3,0.4-0.5,0.6c-0.1,0.1-0.2,0.2-0.2,0.4c-0.1,0.2-0.2,0.3-0.3,0.5
		c0,0,0,0,0,0c1-0.1,2-0.4,3-0.7c1.1-0.4,2.2-0.9,3-1.6c0.1-0.1,0.3-0.2,0.4-0.4c0.3-0.3,0.5-0.5,0.7-0.8c0.3-0.4,0.5-0.9,0.7-1.5
		c0.4-1.1,0.8-2.2,1.2-3.3c0.2-0.6,0.4-1.1,0.7-1.7c0.3-0.6,0.6-1.1,0.8-1.6c0.6-1,1.2-2.1,2-3c0.2-0.2,0.4-0.5,0.7-0.7
		c0.1-0.1,0.2-0.2,0.4-0.3l0.2-0.1l0.2-0.1c0.5-0.3,1-0.6,1.5-0.9c0.9-0.6,3.1-2.4,4.6-2.5c0.5,0,0.9,0,1.4,0.1
		c0.9,0.2,1.6,0.7,2.4,1.1c0.4,0.2,0.8,0.5,1.1,0.8c0.1,0.1,0.2,0.1,0.2,0.2c0.1,0.1,0.2,0.1,0.2,0.1c0.1,0.1,0.3,0.1,0.4,0.1
		c0.2,0,0.3,0,0.4-0.1c0.1,0,0.1-0.1,0.2-0.2c0.1-0.1,0.4-0.7,0.6-1.1c-0.3,0-0.3,0-0.5-0.1c-0.5-0.1-2-0.4-3.2-1.8
		c-0.2-0.2-0.2-0.6-0.2-0.9c0-0.3,0.1-0.6,0.3-0.9c0.3-0.5,0.7-0.9,1.2-1.1c0.5-0.3,1-0.4,1.5-0.5c-0.5,0.1-1,0.4-1.4,0.7
		c-0.4,0.3-0.7,0.7-0.9,1.2c-0.2,0.4-0.1,0.9,0.1,1.3c0.1,0.2,0.3,0.4,0.4,0.5c0.1,0.1,0.2,0.2,0.3,0.2c0.1,0.1,0.2,0.2,0.3,0.2
		c0.2,0.1,1.2,0.7,1.7,0.8c0.6,0.1,1.2,0.1,1.6-0.2c0.2-0.1,0.3-0.4,0.4-0.6c0.1-0.2,0.3-0.5,0.4-0.8c0.2-0.5,0.5-0.9,0.7-1.4
		c0,0,0,0,0,0c-0.8-0.1-0.9-1.2-1.1-1.4c-0.2-0.3-0.9-1.4-0.6-1.4c0.1,0.2,0.9,0.8,1.2,1.1c0.1,0.1,0.2,0,0.3-0.1
		c0.1-0.1,0.3-0.3,0.5-0.3c0,0,0,0,0,0c-0.1-0.2-0.2-0.4-0.3-0.6c-0.7-0.9-1.5-1.8-2.2-2.8l-0.5-0.7l-0.2-0.3
		c-0.1-0.1-0.1-0.2-0.1-0.3c0-0.2,0-0.3,0-0.5c0-0.3,0-0.6-0.1-0.9c0-0.3-0.1-0.6-0.2-0.8c-0.2-0.5-0.6-1-1.1-1.3
		c-0.5-0.3-1-0.6-1.5-0.8c-0.5-0.2-1-0.5-1.5-0.7c-0.1,0.1-0.2,0.1-0.3,0.1c-0.1,0-0.2,0-0.3-0.1l-0.2-0.1c-0.1-0.1-0.2-0.1-0.3-0.2
		c-0.1,0-0.2-0.1-0.3-0.1l0,0c-0.1,0-0.1-0.1-0.2-0.2c-0.1,0.1-0.2,0.2-0.2,0.2c-0.1,0.1-0.1,0.2-0.2,0.3c0,0.1,0,0.2,0.1,0.3
		c0,0.1,0.1,0.2,0.2,0.3c0.1,0,0.1,0.1,0.2,0.2c0.1-0.1,0.3-0.1,0.4-0.1c0,0,0.1,0,0.1,0c0.1,0,0.1,0.1,0.2,0.2c0,0,0.1,0,0.2,0
		c0.1,0,0.1,0,0.1-0.1c0-0.1,0.2-0.2,0.3-0.1c0.1,0,0.1,0.1,0.1,0.2l0,0c0,0.1,0,0.2-0.1,0.4c0,0.1-0.1,0.3-0.2,0.4
		c-0.2,0.2-0.6,0.3-0.8,0.3l-0.1,0c-0.3-0.1-0.5-0.4-0.5-0.7c-0.1,0-0.1,0-0.2,0c-0.1-0.1-0.2-0.2-0.2-0.3l0-0.1
		c0-0.2,0.1-0.3,0.1-0.4c0-0.1,0-0.2,0-0.3l0,0l0,0c0-0.1,0.1-0.2,0.1-0.3c0-0.1,0-0.2-0.1-0.4l0,0c0-0.1,0-0.2,0.1-0.3
		c-0.9-0.5-1.9-0.9-2.8-1.4c0,0,0-0.1,0-0.1c0,0,0,0,0.1,0c0.6,0,1.2,0.1,1.7,0.2c-0.1-0.4-0.2-0.8-0.3-1.2
		c-0.1-0.7-0.2-1.4-0.2-2.1v0c-0.2,0.1-0.4,0.1-0.6,0.2c-0.4,0.2-0.7,0.5-1.1,0.9c0.2,0.5,0.2,1,0.3,1.5c0.1,0.7,0.1,1.4-0.1,2.2
		c0,0,0,0-0.1,0c0,0,0,0,0,0c-0.3-0.7-0.4-1.4-0.6-2l-0.6-1.9c-0.1-0.3-0.2-0.6-0.4-0.9c-0.1-0.2-0.4-0.4-0.6-0.4
		c-0.3,0-0.6,0.2-0.8,0.5c-0.2,0.3-0.4,0.6-0.6,0.9c0,0.2-0.1,0.4-0.1,0.6c0,0.3,0.1,0.5,0.1,0.8c0.1,0.5,0.2,1.1,0.3,1.6
		c0.1,0.5,0.4,1,0.5,1.5c0.1,0.5,0.2,1,0.4,1.6c0,0,0,0.1,0,0.1c0,0,0,0,0,0c-0.6-0.3-0.9-0.8-1.2-1.3c-0.3-0.5-0.3-1.1-0.3-1.7
		c-0.1-0.6-0.1-1.1,0-1.7c0-0.2,0-0.3,0-0.5c-0.1,0.3-0.2,0.6-0.4,0.9c-0.1,0.3-0.2,0.6-0.4,1l-0.2,0.5c-0.1,0.2-0.1,0.3-0.1,0.4
		c-0.1,0.3-0.1,0.6-0.1,1c0,0.1,0,0.2,0,0.4l0,0.2l0,0.3c0.1,0.7,0.2,1.4,0.2,2.1c0,0,0,0.1-0.1,0.1c0,0,0,0,0,0
		c-0.4-0.6-0.7-1.3-0.9-1.9l-0.1-0.2c0-0.1-0.1-0.2-0.1-0.3c-0.1-0.2-0.1-0.4-0.1-0.6c-0.1-0.4,0-0.8,0.1-1.2c0-0.2,0.1-0.4,0.2-0.6
		c0,0,0,0,0-0.1c-1.2,0-2.3,0.2-3.5,0.5c0.1,0.1,0.1,0.1,0.1,0.2c0.1,0.1,0.1,0.3,0.1,0.4c0,0.1,0,0.2-0.1,0.3c0,0,0,0.1-0.1,0
		c0,0-0.1,0,0-0.1l0,0c0-0.1,0-0.2,0-0.3c0-0.1-0.1-0.1-0.2-0.1c-0.1,0-0.3,0.1-0.4,0.1c-0.1,0.1-0.2,0.1-0.3,0c0,0,0,0.1-0.1,0.1
		c-0.1,0.1-0.3,0.2-0.5,0.1c-0.1,0-0.1-0.1-0.2-0.1c-0.1,0-0.1,0-0.2,0.1c-0.1,0.1-0.2,0.3-0.1,0.5c0,0.1,0,0.3-0.2,0.3
		c-0.1,0-0.3,0-0.3-0.2c0,0,0-0.1,0-0.1l0,0c0.1-0.2,0.2-0.4,0.2-0.6c0,0,0,0,0,0c-1.7,0.6-3.4,1.4-4.9,2.4l-0.3,0.2
		C98,70.9,97.9,71,97.8,71c-0.4,0.2-0.8,0.3-1.2,0.4c-0.2,0-0.4,0-0.6,0c-0.1,0-0.3,0-0.4,0l-0.4,0c-1-0.1-1.9-0.1-2.9,0
		c-1,0.1-2,0.2-2.9,0.4c-0.5,0.1-1,0.2-1.4,0.4c-0.2,0.1-0.5,0.1-0.7,0.2c-0.1,0-0.2,0.1-0.3,0.1l-0.1,0.1c0,0-0.1,0-0.1,0l-0.2,0.1
		c-0.4,0.1-0.7,0.1-1,0.1c-0.3,0-0.6,0-0.8,0c-0.6,0-1.1,0-1.6,0c-1.1,0-2.2,0-3.3,0c-2.2-0.1-4.3-0.2-6.5-0.3
		c-1.1,0-2.2-0.2-3.3-0.5c-1-0.3-2.1-0.5-3.1-0.8c-0.5-0.1-1.1-0.3-1.6-0.3l-1.6-0.3c-1.1-0.2-2.1-0.4-3.2-0.4
		c-1.1-0.1-2.1-0.2-3.2-0.2c-1.1,0-2.1-0.1-3.2-0.1c-1.1,0-2.1,0-3.2,0c-0.5,0-1.1,0.1-1.6,0.1l-0.8,0l-0.8,0.1l-1.6,0.1
		c0,0-0.1,0-0.1,0l0.1,0.1l0,0.3c0,0.3-0.1,0.6-0.1,0.8c0,0.2-0.1,0.3-0.3,0.3c0,0.1,0,0.2,0,0.3c0,0,0,0.1,0,0.1l0,0
		c-0.1,0.2-0.2,0.4-0.3,0.7l0,0c-0.1,0.2-0.3,0.3-0.6,0.2c-0.2-0.1-0.3-0.3-0.3-0.4c0-0.3,0.1-0.5,0.1-0.8c0-0.1,0.1-0.2,0.2-0.3
		c-0.1-0.1-0.1-0.2-0.1-0.4l0,0c0-0.1,0-0.1,0-0.2c-0.1,0-0.1-0.1-0.2-0.1l-0.1,0c-0.1-0.1-0.2-0.2-0.3-0.4L44,70.6
		c0,0.1,0,0.2-0.1,0.3c0,0-0.1,0-0.1,0l0,0c-0.5,0.1-0.9,0.2-1.4,0.2c-0.1,0-0.2-0.1-0.2-0.2c0,0,0,0,0-0.1c-0.2,0-0.5,0.1-0.7,0.2
		c0,0-0.1,0-0.1,0c0,0,0,0,0,0c0,0.1-0.1,0.3-0.2,0.3l0,0c-0.2,0.1-0.4,0.2-0.6,0.2c-0.1,0-0.2,0.1-0.2,0.1c0,0,0,0.1,0,0
		c-0.1,0.3-0.5,0.4-0.7,0.2c-0.2-0.1-0.3-0.3-0.3-0.5c-0.3,0.1-0.6,0.2-0.9,0.3c-1,0.3-1.8,1.1-2.7,1.6c0,0,0,0,0,0h0
		c-1.8,1.3-3.6,2.5-5,4.3c-0.7,0.9-1.3,1.8-1.8,2.8c0.2,0,0.4,0.2,0.4,0.3c0.1,0.3,0,0.6-0.2,0.7l0,0c-0.1,0.1-0.2,0.2-0.3,0.3
		c-0.1,0.1-0.1,0.3-0.2,0.4l0,0c-0.1,0.3-0.4,0.5-0.7,0.4c0,0,0,0,0,0c-0.1,0.3-0.2,0.6-0.3,0.8c0,0,0,0.1,0,0.1c0,0,0,0,0,0
		c0.2,0.1,0.2,0.3,0.1,0.4c0,0,0,0.1-0.1,0.1l0,0c-0.1,0.2-0.3,0.3-0.4,0.5c-0.1,0.2-0.1,0.3-0.2,0.5c0,0,0,0,0,0
		c0.1,0.1,0,0.2-0.1,0.3c0,0,0,0,0,0c-0.1,0.4-0.2,0.9-0.3,1.3c-0.2,1.1-0.3,2.2-0.4,3.3c0,0.9-0.1,1.8-0.1,2.8
		c0.1-0.2,0.1-0.3,0.3-0.5c0.2-0.3,0.6-0.3,0.8-0.1c0.3,0.2,0.3,0.6,0.1,0.8l0,0c-0.1,0.1-0.1,0.2-0.2,0.4l-0.1,0.2
		c0,0.1-0.1,0.1-0.1,0.2c-0.1,0.1-0.1,0.3-0.2,0.4c-0.1,0.2-0.4,0.3-0.6,0.1c-0.1,0-0.1-0.1-0.2-0.2c-0.1,0.5-0.1,1-0.2,1.6
		c0,0,0,0.1,0.1,0.1c0.1,0.1,0.1,0.1,0.2,0.2c0.1,0.1,0.2,0.2,0.2,0.4c0.1,0.1,0.1,0.3,0.2,0.3c0,0,0,0,0,0c0,0,0,0,0,0
		c0.2-0.1,0.5,0,0.6,0.3c0.1,0.2,0,0.5-0.3,0.6c-0.1,0-0.2,0-0.3,0l-0.1,0c-0.1,0-0.2-0.1-0.3-0.2c-0.1-0.1-0.2-0.2-0.2-0.3
		c0-0.2,0-0.3-0.1-0.4c0-0.1,0-0.2-0.1-0.3c0,0.2-0.1,0.3-0.1,0.5c-0.4,1.8-0.9,3.5-1.6,5.2c0,0.1,0,0.2,0,0.3l0,0.1
		c-0.1,0.1-0.1,0.3-0.2,0.5c-0.1,0.2-0.2,0.3-0.2,0.5c0,0.1-0.1,0.2-0.3,0.3c-0.1,0.1-0.1,0.3-0.2,0.4c0.2,0.1,0.3,0.3,0.3,0.6l0,0
		l0,0.2l0,0.1c0,0,0,0.1,0,0.1l0-0.1c0.1,0.2,0.1,0.4,0.2,0.6l0,0c0.1,0.3-0.1,0.6-0.4,0.7c-0.2,0.1-0.5,0-0.6-0.2
		c-0.2-0.2-0.3-0.3-0.4-0.5c-0.7,1.2-1.6,2.3-2.6,3.3c-0.1,0.1-0.3,0.3-0.4,0.4c0,0,0,0,0,0c0.3,0.1,0.6,0.3,0.8,0.5
		c0.2,0.2,0.2,0.6,0,0.8c-0.2,0.2-0.5,0.2-0.7,0.1l0,0c-0.2-0.1-0.3-0.2-0.4-0.2c-0.1,0-0.2,0-0.4,0c-0.2,0.1-0.4,0-0.6-0.1
		c-0.2,0.2-0.5,0.4-0.8,0.6c0,0.1-0.1,0.2-0.2,0.3c0,0-0.1,0-0.1,0.1l0,0c-0.1,0-0.2,0.1-0.4,0.1c-0.7,0.4-1.4,0.7-2.2,0.9
		c0,0,0,0,0,0.1c0,0.3,0,0.5,0,0.8c0,0.1,0,0.2,0,0.3c0,0.1,0,0.1,0.1,0.2c0.1,0.2,0.1,0.4-0.1,0.5c-0.2,0.1-0.4,0.1-0.5-0.1
		c0,0,0-0.1,0-0.1l0,0c0-0.1-0.1-0.3-0.1-0.5c0-0.2,0.1-0.3,0.1-0.4c0.1-0.2,0.1-0.4,0.1-0.6c-0.1,0-0.1,0-0.2,0
		c-1.2,0.2-2.5,0-3.5-0.6c-0.1,0-0.2-0.1-0.3-0.2C9.3,111.9,8.9,111.8,8.7,111.6z M6.6,99.8c-0.1,0.1-0.2,0.2-0.3,0.3
		c-0.2,0.1-0.5,0.2-0.7,0.3c-0.1,0.1-0.3,0-0.4-0.1c-0.1-0.1,0-0.3,0.1-0.4c0,0,0.1,0,0.1,0l0,0c0.2,0,0.5-0.1,0.6-0.2
		c0.2-0.1,0.3-0.2,0.3-0.4c0-0.1,0.1-0.2,0.2-0.2c0.1,0,0.2,0.1,0.2,0.2c0,0,0,0,0,0l0,0C6.8,99.5,6.7,99.7,6.6,99.8z M4.5,97
		c0.1-0.3,0.4-0.6,0.7-0.5c0,0,0.1,0,0.1,0l0,0c0.3,0.1,0.5,0.2,0.7,0.3c0.2,0.1,0.4,0.3,0.7,0.5c0.2,0.2,0.2,0.4,0,0.6
		C6.6,98,6.4,98.1,6.3,98l-0.1,0c-0.2-0.1-0.4-0.1-0.6-0.2c-0.2-0.1-0.4-0.1-0.6-0.1C4.7,97.6,4.4,97.3,4.5,97z M4.4,101.6
		c-0.2,0.2-0.4,0.4-0.7,0.6c-0.3,0.2-0.7,0.2-1.1,0.1c-0.3-0.1-0.5-0.4-0.4-0.7c0.1-0.3,0.3-0.4,0.6-0.4l0.1,0c0.1,0,0.2,0,0.3-0.1
		c0.1-0.1,0.3-0.1,0.4-0.3l0,0c0.2-0.2,0.6-0.2,0.8,0.1C4.6,101,4.6,101.3,4.4,101.6z M6.7,112.8c-0.1,0.3-0.4,0.4-0.6,0.4l0,0
		l-0.2,0l-0.1,0l-0.2-0.1c-0.1-0.1-0.2-0.2-0.3-0.3c-0.1-0.1-0.2-0.2-0.2-0.3c-0.2-0.2-0.3-0.4-0.3-0.7c-0.1-0.4,0.1-0.7,0.5-0.8
		c0.3-0.1,0.6,0.1,0.8,0.3l0,0.1c0.1,0.1,0.1,0.2,0.2,0.3l0.1,0.2c0,0,0.1,0.1,0.1,0.1C6.7,112.1,6.8,112.5,6.7,112.8z M120.5,74.3
		c0.3-0.3,0.8-0.7,1.3-0.7c0.7,0.1,1.1,0.7,0.9,1.4c-0.1,0.3-0.4,0.6-0.8,0.6c-0.7,0.1-1.2-0.5-1.5-0.9
		C120.4,74.7,120.4,74.5,120.5,74.3z M117.1,80.3c-0.3,0.2-0.7,0.3-1,0.2c-0.3-0.1-0.5-0.4-0.4-0.8c0.1-0.3,0.4-0.5,0.7-0.4l0,0
		c0.1,0,0.2,0.1,0.3,0.1c0.1,0,0.3,0,0.4-0.2l0,0c0-0.1,0.2-0.2,0.3-0.1c0.1,0,0.1,0.1,0.1,0.2C117.5,79.7,117.4,80.1,117.1,80.3z
		 M115.7,76.7c0.2-0.3,0.6-0.4,0.9-0.3l0,0c0.2,0.1,0.3,0.2,0.4,0.3c0.1,0.1,0.2,0.2,0.3,0.3c0.1,0.1,0.2,0.2,0.3,0.4
		c0.1,0.1,0.1,0.3,0.1,0.5c0,0.3-0.1,0.5-0.4,0.6c-0.1,0-0.3,0-0.4-0.1l-0.1-0.1c-0.1-0.1-0.2-0.2-0.4-0.3c-0.1,0-0.1-0.1-0.2-0.1
		c-0.1,0-0.2-0.1-0.2-0.1l-0.1,0l0,0l0,0C115.6,77.5,115.5,77,115.7,76.7z M115.1,79.1c0-0.1,0.1-0.2,0.1-0.4c0-0.1,0-0.2,0-0.3l0,0
		l0,0c0.1-0.1,0.1-0.2,0.1-0.3c0-0.1,0-0.2,0-0.4l0,0c0-0.1,0.1-0.3,0.2-0.3c0.1,0,0.3,0.1,0.3,0.2c0,0.1,0,0.1-0.1,0.2
		c-0.1,0.1-0.1,0.2-0.2,0.3c-0.1,0.1-0.1,0.2-0.2,0.3c0.1,0.2,0.1,0.5,0.2,0.6c0.1,0.1,0,0.2-0.1,0.3c-0.1,0.1-0.2,0-0.3-0.1
		C115.1,79.2,115.1,79.1,115.1,79.1L115.1,79.1z M104.7,89.1c0-0.1-0.1-0.1-0.1-0.2c0-0.2,0.1-0.3,0.2-0.4c0.1-0.1,0.2-0.2,0.2-0.3
		c0.2-0.2,0.3-0.3,0.5-0.4c0.3-0.2,0.7-0.1,0.8,0.2c0.2,0.3,0.1,0.7-0.2,0.8c0,0,0,0,0,0l0,0c-0.2,0.1-0.4,0.2-0.5,0.2l-0.2,0.1
		c-0.1,0-0.1,0-0.2,0.1l-0.1,0.1C105,89.3,104.8,89.3,104.7,89.1z M106.5,87.5c0.1-0.1,0.1-0.1,0.2-0.1l0,0c0.1,0,0.2,0,0.4-0.1
		c0.1,0,0.2,0,0.4,0c0.1,0,0.3,0.1,0.3,0.2c0.1,0.1,0.1,0.2,0.1,0.3c0,0,0,0.1-0.1,0.1c0,0-0.1,0-0.1-0.1l0,0c0-0.1,0-0.2-0.1-0.2
		c-0.1-0.1-0.1-0.1-0.2,0c-0.1,0.1-0.3,0.2-0.4,0.4c-0.1,0.2-0.4,0.2-0.5,0.1C106.4,87.9,106.3,87.6,106.5,87.5z M108,89.9
		c0,0.1-0.1,0.2-0.1,0.3c0,0.1-0.1,0.2-0.2,0.3c-0.1,0.2-0.4,0.3-0.6,0.3c0,0.1-0.1,0.2-0.1,0.2c-0.1,0.1-0.2,0.2-0.3,0.2l-0.2,0.1
		c-0.2,0.1-0.4,0.1-0.6,0c-0.2,0-0.4-0.2-0.5-0.3c-0.2-0.2-0.3-0.5-0.3-0.7c0-0.1,0-0.3,0.2-0.3c0.1,0,0.2,0,0.3,0.1l0,0
		c0.1,0.1,0.3,0.2,0.4,0.2c0.1,0,0.1,0,0.1-0.1c0,0,0,0,0-0.1c0.1-0.1,0.3-0.2,0.4-0.2c0-0.1,0-0.2,0.1-0.3c0,0,0,0,0.1-0.1l0,0
		c0.1-0.1,0.1-0.1,0.2-0.2c0.1-0.1,0.1-0.1,0.2-0.2c0.1-0.1,0.3-0.2,0.4-0.3l0,0c0.2-0.2,0.5-0.2,0.6,0c0.1,0.1,0.1,0.2,0.1,0.3
		C108.2,89.4,108.1,89.6,108,89.9z M109.5,75c0-0.1,0.1-0.3,0.1-0.4c0-0.1,0-0.2,0.1-0.4c0-0.1,0-0.2,0-0.4c0-0.1,0-0.3,0.1-0.5
		l0.2-0.4c0.2-0.4,0.6-0.5,0.9-0.3c0.2,0.1,0.3,0.3,0.4,0.5c0,0,0.1,0,0.1,0l0,0c0.3,0.1,0.6,0.2,0.8,0.4c0.1,0.1,0.2,0.3,0.2,0.4
		c0,0.1,0,0.3,0,0.4c0,0,0,0.1-0.1,0.1c0,0-0.1,0-0.1-0.1l0,0c0-0.1,0-0.2,0-0.3c-0.1-0.1-0.1-0.1-0.2-0.1c-0.2,0-0.4,0.2-0.6,0.3
		c-0.2,0.1-0.5,0-0.7-0.2c-0.1,0-0.2,0.1-0.4,0c0,0-0.1,0.1-0.2,0.1c-0.1,0.1-0.1,0.2-0.2,0.3c0,0.1-0.1,0.2-0.1,0.3
		c0,0.1,0,0.2,0,0.3c0,0.1-0.1,0.3-0.2,0.3C109.7,75.3,109.5,75.2,109.5,75C109.5,75.1,109.5,75,109.5,75L109.5,75z M111,75.2
		c0,0,0.1-0.1,0.3-0.1c0,0,0.1,0,0.2,0c0,0,0.1,0,0.1,0l0.3,0c0.3,0,0.6,0.2,0.6,0.5c0,0.2,0,0.3-0.1,0.4c-0.1,0.1-0.1,0.1-0.2,0.2
		c-0.1,0.1-0.1,0.1-0.1,0.1c-0.1,0.1-0.2,0.2-0.4,0.2c-0.1,0-0.3,0.1-0.4,0.1c-0.1,0-0.1,0-0.2,0c0,0-0.1,0-0.1,0c0,0,0,0-0.1,0
		l-0.2,0c-0.3,0-0.5-0.2-0.5-0.5c0-0.1,0-0.3,0.1-0.3l0.3-0.4c0,0,0,0,0,0c0,0,0.1,0,0.1,0c0.1,0,0.1,0,0.2-0.1
		C110.9,75.2,111,75.2,111,75.2C111,75.2,110.9,75.2,111,75.2z M105.8,74.2c0.3-0.1,0.5-0.2,0.8-0.3l0.4-0.1l0.1,0.6
		c0,0.5,0.1,0.9,0,1.4c0,0.4-0.1,0.9-0.2,1.3c-0.1,0.4-0.2,0.9-0.4,1.3c0,0,0,0.1,0,0.1c0.1,0,0.2,0,0.3,0c0.4-0.1,0.7-0.3,0.8-0.7
		l0.5-1.5l0.4,1.5c0.2,0.9,0.3,1.9,0.2,2.8c-0.1,0.8-0.2,1.5-0.4,2.2c0.4-0.2,0.8-0.5,1.1-0.8c0.4-0.4,0.7-0.9,0.9-1.5l0.3-1.3
		l0.4,1.4l0.3,1.1c0.1,0.4,0.2,0.8,0.3,1.3c0.1,0.5,0,1,0,1.5c0.1-0.1,0.3-0.2,0.4-0.3c0.2-0.1,0.4-0.2,0.6-0.3
		c0.2-0.1,0.3-0.3,0.4-0.5l0,0c0,0,0,0,0.1,0c0,0,0,0,0,0.1c0,0.1,0,0.3-0.1,0.4c-0.1,0.1-0.2,0.3-0.2,0.4c-0.2,0.2-0.4,0.4-0.6,0.5
		c-0.4,0.3-0.7,0.7-1,1.1l-0.8,0.9l0.1-1.3c0-0.8,0.1-1.6,0-2.3c-0.1-0.4-0.1-0.7-0.2-1.1c0-0.1,0-0.2,0-0.2
		c-0.2,0.3-0.5,0.5-0.7,0.6c-0.5,0.4-1.1,0.6-1.6,0.9l-0.4,0.2l0.2-0.5c0.3-0.8,0.3-1.7,0.3-2.5c0-0.5-0.1-0.9-0.2-1.4
		c-0.2,0.2-0.5,0.4-0.8,0.5c-0.6,0.2-1.2,0.2-1.8,0.1l-1-0.2l0.7-0.9c0.4-0.5,0.7-1.2,0.9-1.9c0.1-0.4,0.2-0.7,0.2-1.1
		c0-0.2,0.1-0.4,0.1-0.6c-0.1,0-0.1,0-0.2,0c-0.2,0.1-0.5,0.1-0.7,0.2c-0.2,0.1-0.5,0.2-0.7,0.3c-0.2,0.1-0.5,0.3-0.7,0.4l0,0
		c0,0-0.1,0-0.1,0c0,0,0-0.1,0-0.1c0.4-0.5,0.8-0.9,1.3-1.2C105.3,74.4,105.6,74.3,105.8,74.2z M104,69.1c0,0,0.1,0,0.1,0
		c0.1,0,0.1,0,0.2,0c0.1,0,0.1,0,0.1,0c0,0-0.1,0-0.1,0c0,0,0,0,0,0c0,0,0,0,0,0c0,0,0.1,0,0.2,0c0.1,0,0.1,0,0.2,0l0.4,0.1
		c0.3,0.1,0.5,0.3,0.4,0.6c0,0.1-0.1,0.2-0.1,0.2c-0.1,0.1-0.2,0.2-0.3,0.3c-0.1,0.1-0.2,0.1-0.3,0.2c-0.1,0-0.2,0.1-0.3,0.1
		c-0.2,0-0.2,0-0.2,0c0,0-0.1,0-0.1,0c0,0,0,0-0.2,0c-0.3,0-0.6-0.3-0.6-0.6C103.4,69.4,103.7,69.1,104,69.1z M101.3,82.5
		c0.4-0.6-0.3-0.6,0.3-1.1c0.6-0.5,1.1-0.9,1.7-0.1c0.6,0.8,1.1,1.2,0.2,1.9c-0.8,0.7-1.4,1.8-2,1C100.9,83.3,101.3,82.5,101.3,82.5
		z M87.3,85L87.3,85c-0.1,0.1-0.2,0.1-0.3,0.1c-0.1-0.1-0.1-0.2-0.1-0.3c0.1-0.2,0.2-0.4,0.2-0.6c0-0.1,0-0.2,0-0.3l0-0.1
		c0-0.1,0-0.2,0-0.3l0.1-0.4c0.1-0.4,0.4-0.6,0.7-0.6c0.4,0.1,0.6,0.4,0.6,0.7c0,0.2-0.2,0.4-0.3,0.5c0,0,0,0,0,0.1
		c0,0.1,0,0.2-0.1,0.2c-0.1,0.1-0.1,0.3-0.2,0.4C87.6,84.7,87.4,84.9,87.3,85z M87.8,75.9c-0.1-0.2,0.1-0.5,0.3-0.5
		c0.2-0.1,0.5,0.1,0.5,0.3c0,0.1,0,0.2,0,0.3l0,0c-0.1,0.2-0.2,0.4-0.4,0.6l0,0.1c-0.2,0.2-0.4,0.3-0.6,0.5c-0.2,0.1-0.4,0-0.5-0.1
		c-0.1-0.2,0-0.4,0.1-0.5c0.1,0,0.1-0.1,0.2,0l0,0c0.2,0,0.4,0.1,0.6,0.1C87.9,76.3,87.9,76.1,87.8,75.9z M90.4,95
		c-0.1,0-0.2,0-0.3-0.1L90,94.8c-0.1-0.1-0.2-0.3-0.2-0.4c0-0.1,0-0.3,0-0.4l0-0.1c0-0.1,0-0.2,0-0.3c0-0.1,0-0.2,0-0.3l0,0
		c0-0.2,0.2-0.3,0.3-0.3c0.2,0,0.3,0.2,0.3,0.3c0,0.1,0,0.1-0.1,0.2c-0.1,0.1-0.1,0.2-0.2,0.3c-0.1,0.1-0.2,0.2-0.3,0.2
		c0.1,0.1,0.1,0.2,0.2,0.2c0.1,0.1,0.1,0.1,0.2,0.1c0.2,0,0.4,0.2,0.4,0.4S90.7,95,90.4,95z M92.5,96.3c0,0-0.1,0-0.1,0
		c-0.2,0-0.4-0.1-0.5-0.1c-0.1-0.1-0.2-0.1-0.3-0.2c-0.2-0.1-0.4-0.3-0.5-0.4c-0.2-0.2-0.3-0.6-0.1-0.8c0.2-0.2,0.5-0.3,0.7-0.1
		c0.2,0.1,0.4,0.2,0.5,0.4c0.2,0.1,0.3,0.3,0.3,0.3l0.1,0.5C92.8,96.1,92.7,96.3,92.5,96.3z M93.6,104.8
		C93.6,104.7,93.6,104.7,93.6,104.8c0,0.2-0.1,0.5-0.4,0.6c-0.3,0.1-0.5-0.1-0.6-0.4c-0.1-0.2-0.1-0.4,0-0.5c0-0.2,0.1-0.3,0.2-0.4
		c0.1-0.2,0.2-0.3,0.4-0.4c0,0,0,0,0,0l0,0c0.1-0.3,0.5-0.4,0.8-0.3c0.3,0.1,0.4,0.5,0.3,0.7c0,0.1-0.1,0.3-0.3,0.4l0,0l0,0
		L93.6,104.8C93.7,104.8,93.7,104.8,93.6,104.8z M95,106.6C94.9,106.6,94.9,106.6,95,106.6L95,106.6c-0.3-0.1-0.5-0.3-0.6-0.4
		c-0.2-0.1-0.3-0.2-0.5-0.3l0,0c-0.1-0.1-0.2-0.2-0.1-0.3c0.1-0.1,0.2-0.2,0.3-0.1c0,0,0,0,0.1,0c0.1,0.1,0.3,0.3,0.5,0.4
		c0.1,0.1,0.3,0.2,0.5,0.2c0.1,0,0.2,0.2,0.2,0.3C95.2,106.5,95.1,106.6,95,106.6z M95.3,102.3c-0.2,0.1-0.3,0.2-0.5,0.4
		c-0.1,0.1-0.2,0.2-0.3,0.4c-0.1,0.2-0.4,0.3-0.6,0.2c-0.2-0.1-0.3-0.4-0.2-0.6c0-0.1,0.1-0.1,0.1-0.2l0.1,0
		c0.2-0.2,0.5-0.3,0.7-0.3c0.2,0,0.5,0,0.7,0.1C95.3,102.2,95.4,102.3,95.3,102.3C95.3,102.3,95.3,102.3,95.3,102.3z M96.3,88
		c0-0.3,0.2-0.6,0.5-0.7l0.1,0l0.2-0.1c0.1,0,0.1,0,0.2-0.1c0.1,0,0.1,0,0.2-0.1c0,0,0.1,0,0.1,0c0,0,0,0,0,0
		c0.1-0.3,0.5-0.5,0.8-0.4c0.3,0.1,0.5,0.5,0.4,0.8c-0.1,0.2-0.1,0.2-0.2,0.3c-0.1,0.1-0.1,0.2-0.2,0.2c-0.1,0.1-0.3,0.3-0.4,0.4
		c-0.3,0.2-0.6,0.3-1,0.3C96.7,88.7,96.4,88.4,96.3,88z M97.2,84.7c-0.2,0-0.4-0.2-0.4-0.3c0-0.2,0.2-0.4,0.3-0.4
		c0.1,0,0.1,0,0.2,0.1c0.2,0.1,0.4,0.3,0.6,0.4l0,0l0,0c0.1,0.2,0.2,0.4,0.3,0.7l0,0c0,0.1,0,0.3-0.2,0.3c-0.1,0-0.3,0-0.3-0.2
		c0,0,0-0.1,0-0.1c0-0.2,0.1-0.4,0.1-0.6C97.6,84.7,97.4,84.7,97.2,84.7z M97.5,94.6L97.5,94.6c0,0.1,0,0.2-0.1,0.2
		c-0.1,0-0.2,0-0.2-0.1c0,0,0,0,0-0.1c0-0.2,0-0.4,0-0.7l0,0l0,0c0.1-0.1,0.1-0.2,0.1-0.3c0-0.1,0-0.2,0-0.3c0-0.1,0.1-0.2,0.2-0.2
		c0.1,0,0.2,0.1,0.2,0.2c0,0,0,0.1,0,0.1c-0.1,0.1-0.1,0.2-0.2,0.3c0,0.1-0.1,0.2-0.2,0.3C97.4,94.2,97.5,94.4,97.5,94.6z
		 M99.7,96.2c0,0.1-0.1,0.3-0.3,0.3c-0.3,0.1-0.6,0.2-0.9,0.1c-0.3-0.1-0.6-0.2-0.8-0.4c-0.2-0.2-0.2-0.6,0-0.8
		c0.2-0.2,0.4-0.2,0.6-0.1l0.1,0c0.2,0.1,0.3,0.1,0.4,0.1c0.1,0,0.2,0.1,0.4,0.1l0.2,0C99.6,95.7,99.8,95.9,99.7,96.2z M100.5,93.3
		c0.1,0.1,0.1,0.2,0.1,0.3l0,0.1c0,0.2,0,0.3,0,0.4l0,0.4c0,0.1,0,0.3-0.1,0.4c-0.1,0.1-0.1,0.2-0.1,0.3c0,0.1-0.1,0.2-0.2,0.2
		c-0.1,0-0.2-0.1-0.2-0.2c0,0,0,0,0,0l0,0c0-0.1,0.1-0.2,0.1-0.3c0-0.1,0-0.1,0-0.2c0-0.1-0.1-0.2-0.1-0.3c0-0.1-0.1-0.2-0.1-0.3
		c-0.1-0.2-0.1-0.5,0.1-0.6C100,93.1,100.3,93.1,100.5,93.3z M99.3,91.8c0.1,0,0.1,0.1,0.2,0.1c0.1,0.1,0.2,0.2,0.3,0.3
		c0.3,0.3,0.3,0.7,0,1c-0.2,0.2-0.5,0.3-0.8,0.1l-0.1,0l-0.2-0.1l-0.1,0c0,0-0.1,0-0.1,0l-0.1,0c-0.1,0-0.1-0.1-0.1-0.1
		c0,0,0,0,0-0.1c-0.3,0.1-0.7,0-0.8-0.4c-0.1-0.3,0-0.7,0.4-0.8c0.2-0.1,0.5-0.2,0.7-0.1c0.2,0,0.4,0.1,0.5,0.2l-0.1,0
		C99.2,91.7,99.3,91.7,99.3,91.8z M99.1,76C99.1,76,99.1,76,99.1,76L99.1,76c0,0.2-0.1,0.3-0.2,0.4c-0.1,0.1-0.2,0.2-0.3,0.3
		c-0.2,0.1-0.4,0.2-0.6,0.3c-0.1,0.1-0.3,0-0.4-0.1c-0.1-0.1,0-0.3,0.1-0.4c0,0,0.1,0,0.1,0l0,0c0.2,0,0.5-0.1,0.6-0.2
		c0.2-0.1,0.3-0.2,0.3-0.3c0-0.1,0.1-0.2,0.2-0.2C99,75.8,99.1,75.9,99.1,76z M96.7,73.3c0.1-0.3,0.4-0.5,0.7-0.5c0,0,0.1,0,0.1,0
		l0,0c0.3,0.1,0.5,0.3,0.7,0.5c0.1,0.1,0.2,0.2,0.2,0.3l0.2,0.3c0.1,0.2,0.1,0.5-0.1,0.6c-0.1,0.1-0.3,0.1-0.5,0l0,0l-0.3-0.2
		c-0.1-0.1-0.2-0.1-0.3-0.2c-0.2-0.1-0.3-0.2-0.5-0.2C96.8,73.9,96.6,73.6,96.7,73.3z M96.7,77.4c0.2,0.2,0.2,0.5,0,0.8
		c-0.2,0.2-0.4,0.4-0.7,0.6c-0.3,0.1-0.7,0.2-1.1,0.1c-0.3-0.1-0.5-0.4-0.4-0.7c0.1-0.3,0.3-0.4,0.6-0.4l0.1,0c0.1,0,0.2,0,0.3-0.1
		c0.1,0,0.2-0.1,0.4-0.3l0,0C96.1,77.2,96.5,77.2,96.7,77.4z M94.2,74.3L94.2,74.3c0.1-0.3,0.3-0.5,0.3-0.8l0-0.1l0.2-0.1l0.1-0.1
		l0.1-0.1c0.1-0.1,0.2-0.1,0.3-0.2c0.3-0.2,0.8-0.1,1,0.3c0.2,0.3,0.1,0.8-0.3,1c0,0,0,0-0.1,0l0,0l-0.2,0.1l-0.1,0c0,0,0,0,0,0
		c-0.1,0.2-0.3,0.4-0.4,0.6c-0.2,0.2-0.6,0.3-0.8,0C94.2,74.8,94.1,74.5,94.2,74.3z M94.2,84c0.1-0.2,0.3-0.4,0.5-0.5
		c0.2-0.1,0.4-0.1,0.6-0.2l0,0c0.3,0,0.6,0.2,0.6,0.6c0,0.3-0.2,0.6-0.6,0.6c0,0,0,0-0.1,0c-0.1,0-0.1,0-0.1,0c0,0,0,0,0,0
		c0,0-0.1,0.1-0.1,0.1c0,0,0,0.1,0,0.2c0,0.1,0,0.1-0.1,0.2c-0.1,0.2-0.3,0.4-0.5,0.3c-0.2-0.1-0.3-0.2-0.3-0.4l0,0
		c0-0.1,0-0.1,0-0.1c0-0.1,0-0.1,0-0.2C94.1,84.4,94.1,84.2,94.2,84z M94.1,86.7L94.1,86.7c0,0.1,0.1,0.1,0.2,0.2
		c0.1,0.1,0.2,0.2,0.3,0.3l0.2,0.1c0,0,0,0,0.1,0l0.3,0h0c0.2,0,0.4,0.2,0.4,0.4c0,0.2-0.2,0.4-0.4,0.4c-0.1,0-0.1,0-0.2,0
		c-0.1-0.1-0.2-0.1-0.4-0.2c-0.1-0.1-0.2-0.2-0.2-0.2c0-0.1,0-0.1-0.1-0.2c-0.1-0.1-0.1-0.2-0.2-0.3c-0.1-0.1-0.2-0.2-0.3-0.3
		c0-0.1,0-0.2,0.1-0.3C93.9,86.6,94,86.7,94.1,86.7z M93.1,76.6c0-0.2,0.1-0.5,0.2-0.7l0,0c0.1-0.1,0.2-0.2,0.3-0.1
		c0.1,0.1,0.2,0.2,0.1,0.3c0,0,0,0.1-0.1,0.1c-0.2,0.1-0.3,0.3-0.5,0.4c0.2,0.1,0.4,0.2,0.6,0.3c0.1,0.1,0.2,0.3,0.1,0.4
		c-0.1,0.1-0.3,0.2-0.4,0.1c0,0-0.1-0.1-0.1-0.1l0,0C93.3,77.1,93.2,76.9,93.1,76.6L93.1,76.6L93.1,76.6z M90.7,91.8
		c0.3-0.1,0.5-0.3,0.8-0.3l0.1,0l0.2,0.1c0.1,0,0.2,0.1,0.2,0.1c0.1,0,0.1,0.1,0.2,0.1c0.1,0.1,0.2,0.2,0.3,0.2
		c0.3,0.2,0.3,0.6,0.1,0.9c0.2-0.1,0.4,0,0.6,0.2c0.1,0.1,0.1,0.2,0.1,0.3l0,0.1c0,0.1,0,0.3,0,0.4l0,0.3l0,0.4c0,0.1,0,0.3-0.1,0.4
		l0,0c0,0.1-0.2,0.1-0.3,0.1c-0.1,0-0.1-0.1-0.1-0.2c0-0.1,0-0.1,0-0.2c0-0.1-0.1-0.2-0.1-0.3l-0.1-0.3c0-0.1-0.1-0.2-0.2-0.2
		c-0.1-0.2-0.2-0.4-0.1-0.6c-0.2,0.1-0.4,0.1-0.6,0l0,0c-0.1,0-0.1-0.1-0.2-0.1c0,0-0.1,0-0.1-0.1c0,0,0,0,0,0c-0.1,0-0.1,0-0.2,0
		l-0.1,0c-0.3,0.1-0.6-0.1-0.7-0.4C90.4,92.2,90.5,91.9,90.7,91.8z M89.9,86.7c-0.3,0.2-0.7,0.2-1,0.1c-0.3,0-0.6-0.1-0.8-0.2
		c-0.3-0.1-0.4-0.5-0.2-0.7c0.1-0.2,0.3-0.3,0.4-0.3l0,0c0.2,0,0.4,0,0.6-0.1c0.2,0,0.3-0.1,0.4-0.1l0.1,0c0.4-0.1,0.8,0.1,0.9,0.5
		C90.4,86.2,90.2,86.5,89.9,86.7z M89.4,83.1L89.4,83.1c0.2,0.1,0.4,0.3,0.5,0.5l0.1,0c0.2,0.2,0.3,0.5,0.3,0.7
		c0.1,0.2,0,0.4-0.2,0.4c-0.2,0.1-0.4,0-0.4-0.2c0-0.1,0-0.1,0-0.2l0,0c0.1-0.2,0.1-0.4,0.2-0.6c-0.2,0.1-0.5,0.1-0.7,0.1
		c-0.2,0-0.4-0.2-0.5-0.4s0.2-0.4,0.4-0.5C89.2,83,89.3,83.1,89.4,83.1z M86.2,73.9c0-0.1,0.2-0.1,0.3-0.1c0.3,0.1,0.5,0.1,0.7,0.1
		c0.1,0,0.2,0,0.3-0.1l0.1-0.1c0.1,0,0.2,0,0.3-0.1l0.4,0c0.4,0,0.7,0.3,0.7,0.6S88.7,75,88.3,75c-0.2,0-0.4-0.1-0.5-0.2
		c0,0,0,0-0.1,0c-0.1,0-0.2,0-0.2,0c-0.2,0-0.3-0.1-0.4-0.1c-0.3-0.1-0.5-0.3-0.7-0.4l0,0C86.2,74.2,86.2,74,86.2,73.9z M85,75.4
		c0.1-0.3,0.4-0.5,0.7-0.4c0.2,0.1,0.3,0.2,0.4,0.4l0,0c0.1,0.2,0.1,0.4,0.2,0.6c0.1,0.2,0.2,0.3,0.2,0.4l0,0.1c0.2,0.4,0,0.8-0.3,1
		c-0.3,0.2-0.7,0.1-0.9-0.2c-0.2-0.3-0.3-0.6-0.3-0.9C84.9,75.9,84.9,75.6,85,75.4z M59,86.9L59,86.9c-0.1,0-0.1,0.1-0.2,0.1
		c0,0,0,0.1,0,0.1l0,0.2c0,0.3-0.1,0.6-0.4,0.6c-0.2,0-0.4,0-0.5-0.2c-0.2-0.3-0.3-0.5-0.4-0.8l-0.1-0.3l0.2-0.2
		c0.2-0.2,0.5-0.4,0.7-0.5c0.3-0.1,0.6,0,0.8,0.3C59.3,86.4,59.2,86.7,59,86.9z M61,89c-0.1,0.1-0.2,0.2-0.4,0.1c0,0,0,0-0.1,0
		c-0.1-0.1-0.2-0.2-0.3-0.2c-0.1-0.1-0.2-0.2-0.3-0.2c-0.2-0.1-0.4-0.2-0.6-0.3l0,0c-0.1-0.1-0.2-0.2-0.1-0.3
		c0.1-0.1,0.2-0.2,0.3-0.1c0,0,0,0,0.1,0c0.2,0.2,0.4,0.3,0.6,0.4c0.2,0.1,0.4,0.3,0.6,0.4C61,88.7,61,88.9,61,89z M63.1,96.3
		c-0.1,0.3-0.4,0.4-0.7,0.3c-0.3-0.1-0.5-0.2-0.8-0.4c-0.3-0.2-0.5-0.5-0.5-0.9c-0.1-0.3,0.2-0.6,0.5-0.7c0.3,0,0.5,0.1,0.6,0.3
		l0,0.1c0,0.1,0.1,0.1,0.2,0.2c0.1,0.1,0.2,0.2,0.4,0.2l0,0C63.2,95.7,63.3,96,63.1,96.3z M63.1,93.3c0,0-0.1,0-0.1,0
		c-0.2-0.1-0.4-0.2-0.5-0.3c0,0.2,0,0.4,0,0.6c0,0.2-0.2,0.3-0.3,0.3c-0.2,0-0.3-0.2-0.3-0.3c0-0.1,0-0.1,0.1-0.1l0,0
		c0.1-0.2,0.3-0.4,0.5-0.5l0,0l0,0c0.2-0.1,0.5-0.1,0.7-0.1h0c0.2,0,0.3,0.1,0.3,0.3S63.2,93.3,63.1,93.3z M65.3,97.8
		C65.3,97.8,65.3,97.8,65.3,97.8L65.3,97.8c-0.1,0.1-0.3,0.1-0.5,0.1c-0.2,0-0.3-0.1-0.4-0.2c-0.2-0.1-0.4-0.3-0.6-0.4
		c-0.1-0.1-0.2-0.3-0.1-0.4c0.1-0.1,0.3-0.2,0.4-0.1c0,0,0.1,0,0.1,0.1l0,0c0.1,0.2,0.3,0.4,0.4,0.5c0.1,0.1,0.3,0.2,0.4,0.1
		c0.1-0.1,0.2,0,0.3,0.1C65.5,97.6,65.4,97.7,65.3,97.8z M67.3,96.1c0,0.2-0.1,0.5-0.1,0.8c-0.1,0.2-0.3,0.4-0.5,0.3
		c-0.2-0.1-0.3-0.2-0.3-0.4l0-0.1c0-0.2-0.1-0.4-0.1-0.6l-0.1-0.3L66,95.6c-0.1-0.3,0.1-0.7,0.4-0.8c0.3-0.1,0.7,0.1,0.8,0.4
		c0,0,0,0.1,0,0.1C67.3,95.6,67.3,95.9,67.3,96.1z M67.7,90.3c-0.1,0.1-0.3,0.2-0.4,0.1c0,0-0.1-0.1-0.1-0.1l0,0
		c-0.1-0.2-0.2-0.4-0.3-0.6l0,0l0,0c0-0.2,0.1-0.5,0.2-0.7l0,0c0.1-0.1,0.2-0.2,0.4-0.1c0.1,0.1,0.2,0.2,0.1,0.4c0,0,0,0.1-0.1,0.1
		c-0.2,0.1-0.3,0.2-0.5,0.4c0.2,0.1,0.4,0.2,0.6,0.3C67.8,90,67.8,90.2,67.7,90.3z M71.8,90.1c-0.1,0.1-0.3,0-0.4-0.1
		c-0.1-0.1,0-0.3,0.1-0.4c0,0,0.1,0,0.1,0l0,0c0.2,0,0.5-0.1,0.6-0.2c0.2-0.1,0.3-0.2,0.3-0.4c0-0.1,0.1-0.2,0.2-0.2
		c0.1,0,0.2,0.1,0.2,0.2c0,0,0,0,0,0l0,0c0,0.1,0,0.3-0.1,0.5c-0.1,0.1-0.2,0.2-0.3,0.3C72.2,89.9,72,90,71.8,90.1z M72.5,99.3
		c-0.1,0-0.2-0.1-0.3-0.2L72.1,99C72,98.8,72,98.7,72,98.5c0-0.1,0-0.3,0-0.4l0-0.1c0-0.2,0-0.4,0.1-0.7l0,0c0-0.2,0.2-0.3,0.4-0.3
		s0.3,0.2,0.3,0.4c0,0.1,0,0.1-0.1,0.2c-0.1,0.2-0.3,0.3-0.5,0.5c0.1,0.2,0.3,0.3,0.4,0.4c0.2,0,0.4,0.2,0.3,0.4
		C72.9,99.2,72.7,99.3,72.5,99.3z M75,100.6c-0.1,0.1-0.3,0.1-0.4,0.1c-0.3-0.1-0.6-0.2-0.8-0.3c-0.2-0.1-0.4-0.3-0.6-0.4l0,0
		c-0.2-0.2-0.3-0.6-0.1-0.8c0.2-0.2,0.5-0.3,0.7-0.1c0.2,0.1,0.4,0.3,0.6,0.4c0.2,0.1,0.3,0.3,0.4,0.5l0.1,0.1
		C75.2,100.1,75.2,100.4,75,100.6z M76.4,98.7c0,0.1-0.1,0.2-0.2,0.3c-0.1,0.1-0.2,0.2-0.3,0.3c-0.1,0.1-0.2,0.2-0.2,0.2l0,0
		c-0.1,0.1-0.2,0.1-0.3,0.1c-0.1-0.1-0.1-0.2-0.1-0.3c0.1-0.1,0.1-0.2,0.2-0.3c0.1-0.1,0.1-0.2,0.1-0.3c0,0,0-0.1,0-0.1
		c0,0,0,0,0,0.1c0,0-0.1,0-0.2,0c-0.3-0.1-0.4-0.4-0.3-0.7c0.1-0.3,0.4-0.4,0.7-0.4c0.1,0,0.2,0.1,0.3,0.2l0,0.1
		c0.1,0.1,0.2,0.3,0.3,0.5C76.5,98.4,76.5,98.6,76.4,98.7z M76.7,91.7c-0.1,0.2-0.4,0.3-0.6,0.2c-0.1,0-0.1-0.1-0.1-0.1
		c-0.1-0.1-0.2-0.2-0.2-0.4c0-0.1-0.1-0.2-0.1-0.3c0-0.1,0-0.1,0-0.2c0-0.1,0-0.2-0.1-0.3c0-0.1-0.1-0.3-0.1-0.4
		c0-0.1,0.1-0.2,0.2-0.2c0.1,0,0.2,0.1,0.2,0.2l0,0c0,0.1,0,0.1,0.1,0.3c0.1,0.1,0.1,0.2,0.2,0.4l0.1,0.2c0,0.1,0,0,0.1,0.1l0.2,0.1
		l0,0C76.8,91.2,76.8,91.5,76.7,91.7z M76.6,81.7C76.6,81.7,76.5,81.7,76.6,81.7c-0.3,0-0.5,0.1-0.7,0.1c0.1,0.2,0.2,0.4,0.3,0.5
		c0.1,0.1,0,0.3-0.1,0.4c-0.1,0.1-0.3,0-0.4-0.1c0,0,0-0.1,0-0.1c0-0.2,0-0.5,0-0.7l0,0l0,0c0.2-0.2,0.4-0.3,0.6-0.4l0,0
		c0.1-0.1,0.3,0,0.3,0.1C76.7,81.4,76.7,81.6,76.6,81.7z M76.9,83.5L76.9,83.5c0.1,0.1,0.2,0.1,0.4,0.2c0.1,0,0.3,0,0.4,0
		c0.3,0,0.6,0.2,0.6,0.6c0,0.3-0.2,0.6-0.6,0.6c0,0,0,0,0,0c-0.3,0-0.6,0-0.8-0.1c-0.3-0.1-0.6-0.3-0.7-0.5
		c-0.2-0.2-0.2-0.6,0.1-0.8C76.5,83.4,76.7,83.4,76.9,83.5z M76.9,89.1c-0.1-0.1-0.1-0.3-0.1-0.5l0,0c0,0,0-0.1,0.1-0.1
		c0-0.1,0-0.1,0.1-0.2c0.1-0.1,0.2-0.3,0.4-0.5c0.2-0.1,0.5-0.2,0.7-0.2c0.2,0,0.4,0.1,0.6,0.1l0,0c0.3,0.1,0.4,0.5,0.3,0.8
		c-0.1,0.3-0.5,0.4-0.8,0.3c0,0,0,0,0,0c-0.1,0-0.1-0.1-0.1-0.1c0,0,0,0,0,0c0,0-0.1,0-0.1,0.1c0,0-0.1,0.1-0.1,0.1
		c-0.1,0.1-0.1,0.1-0.2,0.2C77.4,89.3,77.1,89.2,76.9,89.1z M78.9,84.2c0-0.3,0.1-0.5,0.4-0.5c0.1,0,0.1,0,0.1,0l0,0
		c0.5,0.1,0.9,0.2,1.3,0.4l0,0c0.1,0,0.2,0.2,0.2,0.3c0,0.1-0.2,0.2-0.3,0.2c-0.4,0-0.8,0-1.2,0C79.2,84.7,78.9,84.5,78.9,84.2z
		 M79.7,92.9c-0.1,0.1-0.2,0.1-0.3,0.2c-0.1,0.1-0.2,0.1-0.3,0.1c-0.2,0.1-0.4,0.1-0.5,0.1c-0.4,0-0.7-0.1-1-0.2
		c-0.3-0.2-0.5-0.6-0.3-0.9c0.1-0.3,0.5-0.4,0.8-0.4l0,0c0.2,0,0.3,0.1,0.5,0.1c0.1,0,0.1,0,0.2,0c0.1,0,0.1,0,0.1,0
		c0.3-0.2,0.7-0.2,0.9,0.1C80,92.3,79.9,92.7,79.7,92.9z M80,91c-0.1,0-0.2-0.2-0.2-0.3c0,0,0-0.1,0.1-0.1c0.1-0.2,0.3-0.3,0.4-0.5
		c-0.2-0.1-0.4-0.2-0.6-0.3c-0.2-0.1-0.2-0.3-0.1-0.5c0.1-0.2,0.3-0.2,0.5-0.1c0.1,0,0.1,0.1,0.1,0.2c0.1,0.2,0.2,0.4,0.3,0.6l0,0.1
		l0,0c0,0.2,0,0.5-0.1,0.7l0,0C80.3,90.9,80.1,91,80,91z M80.6,98.5c-0.2,0.1-0.3,0-0.4-0.2c0-0.1,0-0.1,0-0.2l0,0
		c0-0.3,0.1-0.6,0.2-0.8c0-0.3,0-0.5,0.1-0.9l0-0.1c0.1-0.2,0.3-0.4,0.6-0.3s0.4,0.3,0.3,0.6c0,0.1-0.2,0.2-0.3,0.3
		c-0.2,0.1-0.3,0.3-0.4,0.5c-0.1,0.2-0.1,0.5,0,0.7C80.9,98.3,80.8,98.5,80.6,98.5z M81.4,96.1c-0.1-0.3,0.1-0.6,0.5-0.7
		c0.1,0,0.1,0,0.2,0l0.1,0c0.2,0,0.4,0.1,0.6,0.2c0.2,0.1,0.3,0.3,0.4,0.4c0.2,0.4,0.1,0.7,0,0.9c0,0-0.1,0.1-0.1,0c0,0,0,0,0,0l0,0
		c-0.2-0.2-0.3-0.4-0.5-0.5c-0.1,0-0.2,0-0.3,0C81.8,96.6,81.5,96.4,81.4,96.1z M83.2,99.2c-0.1,0.1-0.2,0.4-0.5,0.5
		c-0.3,0.1-0.4,0.1-0.6,0.1c-0.2,0-0.3-0.1-0.4-0.1c-0.1,0-0.1,0-0.1-0.1l-0.2-0.1c-0.3-0.1-0.5-0.4-0.4-0.8
		c0.1-0.2,0.2-0.4,0.4-0.4c0.2-0.1,0.4-0.1,0.6-0.1c0,0,0.1,0,0.1,0c0.2-0.3,0.5-0.4,0.8-0.3c0.3,0.1,0.4,0.4,0.4,0.6
		C83.3,98.7,83.3,98.9,83.2,99.2z M82.6,82.9C82.6,82.9,82.6,82.9,82.6,82.9c0-0.2,0.1-0.3,0.3-0.4c0.2,0,0.4,0.1,0.4,0.3
		c0,0.1,0,0.3-0.1,0.3c-0.1,0.1-0.1,0.2-0.2,0.2c-0.1,0.1-0.2,0.1-0.3,0.2c-0.2,0.1-0.3,0.2-0.4,0.3l0,0c-0.1,0.1-0.2,0.1-0.3,0
		c-0.1-0.1-0.1-0.2-0.1-0.3c0.1-0.2,0.3-0.4,0.5-0.6C82.5,83,82.5,83,82.6,82.9C82.6,82.9,82.6,82.8,82.6,82.9z M80.1,80.6
		c0.1-0.4,0.5-0.5,0.9-0.4c0,0,0.1,0,0.1,0l0,0c0.4,0.2,0.8,0.5,1.2,0.9c0.2,0.2,0.2,0.6,0,0.8c-0.2,0.2-0.5,0.2-0.8,0.1l0,0
		c-0.3-0.2-0.6-0.4-1-0.5C80.2,81.3,80,80.9,80.1,80.6z M79.9,80.1c0.2,0.3,0.1,0.7-0.2,0.9c0,0-0.1,0.1-0.2,0.1l0,0
		c-0.4,0.1-0.9,0.3-1.3,0.4c-0.3,0.1-0.6-0.1-0.6-0.4c0-0.2,0.1-0.5,0.3-0.6l0,0c0.4-0.2,0.7-0.4,1.1-0.6
		C79.3,79.7,79.7,79.8,79.9,80.1z M78.7,75.8C78.8,75.8,78.8,75.7,78.7,75.8c0.3-0.1,0.5-0.1,0.7-0.2c-0.1-0.2-0.2-0.3-0.3-0.5
		c0-0.1,0-0.1,0-0.2c0.1,0,0.1,0,0.2,0c0,0,0,0,0,0c0.1,0.2,0.2,0.4,0.3,0.6l0,0l0,0c-0.2,0.2-0.3,0.3-0.5,0.5l0,0
		c-0.1,0.1-0.2,0.1-0.3,0C78.6,76,78.6,75.8,78.7,75.8z M76.1,74C76.2,74,76.2,74,76.1,74L76.1,74l0.4-0.1c0.1,0,0.2-0.1,0.4-0.1
		c0.3-0.1,0.5-0.1,0.8-0.1c0.1,0,0.2,0.1,0.2,0.3c0,0.1-0.1,0.2-0.2,0.2h0c-0.2,0-0.4,0.1-0.6,0.1c-0.1,0-0.2,0.1-0.3,0.1
		c-0.1,0-0.2,0.1-0.3,0.2c-0.2,0.1-0.4,0-0.4-0.2S76,74,76.1,74z M75.7,76.7c0,0,0.1,0,0.1,0l0,0l0.2,0c0.1-0.1,0.2-0.1,0.3-0.2
		c0.2-0.1,0.4-0.2,0.6-0.2c0.3-0.1,0.6,0,0.7,0.3c0.1,0.2,0,0.5-0.2,0.6l0,0c-0.2,0.1-0.3,0.2-0.5,0.3l-0.4,0.3L76.4,78l-0.2,0
		l-0.4,0.1c-0.4,0.1-0.7-0.2-0.8-0.5C75.1,77.1,75.3,76.8,75.7,76.7z M75,96.8c0.3,0.3,0.3,0.7,0,1c-0.2,0.2-0.6,0.3-0.9,0.1
		c-0.1-0.1-0.3-0.2-0.4-0.3c-0.1,0-0.1-0.1-0.2-0.2c0,0-0.1-0.1-0.1-0.1c-0.1,0-0.1,0-0.1-0.1l-0.2-0.1c-0.3-0.1-0.5-0.5-0.3-0.8
		c0.1-0.2,0.3-0.4,0.6-0.4c0.3,0,0.6,0.1,0.8,0.1l0.2,0.2c0,0,0.1,0.1,0.1,0.1l0.1,0.1C74.8,96.6,74.9,96.7,75,96.8L75,96.8z
		 M72.6,74.9C72.6,74.9,72.6,74.8,72.6,74.9L72.6,74.9c0.1-0.3,0.3-0.4,0.5-0.5c0.2-0.1,0.3-0.1,0.5-0.1c0.3,0,0.5,0,0.8,0
		c0.2,0,0.4,0.2,0.4,0.4c0,0.2-0.2,0.4-0.4,0.4l0,0c-0.2,0-0.5,0.1-0.7,0.1c-0.1,0-0.2,0.1-0.2,0.1c0,0,0,0,0,0.1
		c-0.1,0.2-0.4,0.4-0.6,0.3C72.6,75.4,72.5,75.1,72.6,74.9z M72.2,76.2c0.2-0.2,0.5-0.3,0.7-0.2l0.1,0c0.2,0.1,0.4,0.2,0.6,0.3
		c0.2,0.1,0.4,0.1,0.6,0.2c0.3,0.1,0.6,0.4,0.5,0.8c-0.1,0.3-0.4,0.6-0.8,0.5c0,0-0.1,0-0.1,0l0,0c-0.3-0.1-0.5-0.2-0.7-0.3
		c-0.2-0.1-0.5-0.3-0.7-0.4C72.1,76.8,72,76.5,72.2,76.2z M70.6,86.6c0.1-0.3,0.4-0.6,0.7-0.5c0,0,0.1,0,0.1,0l0,0
		c0.3,0.1,0.5,0.2,0.7,0.3c0.2,0.1,0.4,0.3,0.7,0.5c0.2,0.2,0.2,0.4,0,0.6c-0.1,0.1-0.3,0.2-0.5,0.1l-0.1,0
		c-0.2-0.1-0.4-0.1-0.6-0.2c-0.2-0.1-0.4-0.1-0.6-0.1C70.8,87.2,70.6,86.9,70.6,86.6z M70.5,91.2c-0.2,0.2-0.4,0.4-0.7,0.6
		c-0.3,0.2-0.7,0.2-1.1,0.1c-0.3-0.1-0.5-0.4-0.4-0.7c0.1-0.3,0.3-0.4,0.6-0.4l0.1,0c0.1,0,0.2,0,0.3-0.1c0.1-0.1,0.3-0.1,0.4-0.3
		l0,0c0.2-0.2,0.6-0.2,0.8,0.1C70.7,90.6,70.7,91,70.5,91.2z M69.6,79.9C69.6,79.9,69.6,79.9,69.6,79.9c0.3-0.1,0.5-0.1,0.7-0.2
		c-0.1-0.2-0.2-0.3-0.3-0.5c0-0.1,0-0.1,0-0.2s0.1,0,0.2,0c0,0,0,0,0,0c0.1,0.2,0.2,0.4,0.3,0.6l0,0l0,0c-0.2,0.2-0.3,0.3-0.5,0.5
		l0,0c-0.1,0.1-0.2,0.1-0.3,0C69.5,80.1,69.5,80,69.6,79.9z M69,86.1c0.1,0,0.2-0.1,0.3-0.1l0,0c0.4-0.1,0.8,0.1,0.9,0.5
		c0.1,0.4-0.1,0.8-0.5,0.9c0,0,0,0-0.1,0c-0.1,0-0.1,0-0.2,0l0,0c-0.1,0.2-0.3,0.3-0.4,0.5c-0.2,0.3-0.6,0.3-0.8,0.1
		c-0.2-0.2-0.3-0.5-0.2-0.8l0,0c0.1-0.2,0.2-0.5,0.3-0.7l0.1-0.2l0.2-0.1c0.1,0,0.1-0.1,0.2-0.1C68.9,86.1,68.9,86.1,69,86.1z
		 M67,78.1C67,78.1,67,78.1,67,78.1L67,78.1l0.4-0.1c0.1,0,0.2-0.1,0.4-0.1c0.3-0.1,0.5-0.1,0.8-0.1c0.1,0,0.2,0.1,0.2,0.3
		c0,0.1-0.1,0.2-0.2,0.2l0,0c-0.2,0-0.4,0.1-0.6,0.1c-0.1,0-0.2,0.1-0.3,0.1c-0.1,0-0.2,0.1-0.3,0.2c-0.2,0.1-0.4,0-0.4-0.2
		C66.8,78.4,66.8,78.2,67,78.1z M66.5,80.9c0,0,0.1,0,0.1,0l0,0l0.2,0c0.1-0.1,0.2-0.1,0.3-0.2c0.2-0.1,0.4-0.2,0.6-0.2
		c0.3-0.1,0.6,0,0.7,0.3c0.1,0.2,0,0.5-0.2,0.6l0,0c-0.2,0.1-0.3,0.2-0.5,0.3L67.4,82l-0.1,0.1l-0.2,0l-0.4,0.1
		C66.4,82.3,66,82,66,81.7C65.9,81.3,66.2,80.9,66.5,80.9z M66,93c0.1,0.1,0.1,0.1,0.2,0.1c0,0,0.1,0.1,0.1,0.1
		c0.1,0.1,0.1,0.2,0.2,0.2l0,0c0.3,0.3,0.2,0.8-0.1,1c-0.3,0.3-0.8,0.2-1-0.1c0,0,0,0,0-0.1c0-0.1-0.1-0.1-0.1-0.2l0,0
		c-0.2,0-0.4-0.1-0.6-0.1c-0.3-0.1-0.5-0.4-0.4-0.7c0.1-0.3,0.3-0.5,0.6-0.5l0,0c0.3,0,0.5,0,0.8,0l0.2,0L66,93z M63.5,79
		C63.5,79,63.5,79,63.5,79L63.5,79c0.1-0.3,0.3-0.4,0.5-0.5c0.2-0.1,0.3-0.1,0.5-0.1c0.3,0,0.5,0,0.8,0c0.2,0,0.4,0.2,0.4,0.4
		c0,0.2-0.2,0.4-0.4,0.4l0,0c-0.2,0-0.5,0.1-0.7,0.1c-0.1,0-0.2,0.1-0.2,0.1c0,0,0,0,0,0.1c-0.1,0.2-0.4,0.4-0.6,0.3
		C63.5,79.5,63.4,79.3,63.5,79z M63,80.4c0.2-0.2,0.5-0.3,0.7-0.2l0.1,0c0.2,0.1,0.4,0.2,0.6,0.3c0.2,0.1,0.4,0.1,0.6,0.2
		c0.3,0.1,0.6,0.4,0.5,0.8c-0.1,0.3-0.4,0.6-0.8,0.5c0,0-0.1,0-0.1,0l0,0c-0.3-0.1-0.5-0.2-0.7-0.3c-0.2-0.1-0.5-0.3-0.7-0.4
		C62.9,81,62.9,80.6,63,80.4z M61.9,74.8C61.9,74.8,61.9,74.8,61.9,74.8c0.3-0.1,0.4-0.2,0.6-0.3c-0.1-0.2-0.2-0.3-0.3-0.5
		c0-0.1,0-0.1,0-0.1s0.1,0,0.1,0c0,0,0,0,0,0c0.1,0.2,0.2,0.4,0.3,0.6l0,0l0,0c-0.1,0.2-0.3,0.4-0.5,0.5l0,0c-0.1,0.1-0.2,0.1-0.3,0
		C61.8,75,61.8,74.9,61.9,74.8z M61.7,89c0,0,0-0.1,0-0.1l0-0.1l0-0.1l0-0.1c0-0.2,0.1-0.3,0.1-0.5c0.1-0.3,0.4-0.5,0.7-0.5
		c0-0.1-0.1-0.1-0.1-0.2c0,0-0.1-0.1-0.1-0.1c-0.1-0.1-0.1-0.1-0.2-0.2c-0.1-0.1-0.2-0.1-0.3-0.2c-0.2-0.2-0.3-0.6,0-0.8
		c0.2-0.2,0.4-0.2,0.6-0.2l0,0c0.1,0,0.2,0.1,0.3,0.1c0.1,0,0.2,0.1,0.3,0.2c0.1,0.1,0.2,0.2,0.4,0.3c0.1,0.1,0.3,0.3,0.4,0.6
		c0.1,0.4-0.2,0.8-0.5,0.9c-0.1,0-0.1,0-0.2,0c0.1,0.2,0.1,0.4,0.1,0.6c0,0,0,0,0,0.1l-0.1,0.1c0,0.1-0.1,0.1-0.1,0.2c0,0,0,0,0,0.1
		l0,0.1c0,0.1,0,0.1-0.1,0.2c-0.1,0.1-0.1,0.3-0.3,0.5c-0.1,0.1-0.2,0.2-0.3,0.2C62.1,90,62,90,61.9,90c-0.3,0-0.5-0.3-0.5-0.5
		s0.3-0.5,0.5-0.5C61.9,88.9,61.8,89,61.7,89z M61.4,85.7c-0.1,0.2-0.3,0.2-0.4,0.2c-0.1,0-0.1-0.1-0.1-0.1
		c-0.1-0.2-0.2-0.4-0.3-0.5c-0.1,0.2-0.2,0.4-0.3,0.5c-0.1,0.1-0.3,0.2-0.5,0.1c-0.1-0.1-0.2-0.3-0.1-0.5c0-0.1,0.1-0.1,0.1-0.1l0,0
		c0.2-0.1,0.4-0.2,0.7-0.2l0,0l0,0c0.2,0.1,0.4,0.2,0.6,0.3l0,0C61.4,85.4,61.5,85.6,61.4,85.7z M59.8,72.2
		C59.8,72.2,59.8,72.2,59.8,72.2L59.8,72.2c0.3-0.1,0.5-0.1,0.8-0.1c0.3,0,0.5,0.1,0.8,0.3c0.1,0.1,0.1,0.2,0.1,0.3
		c-0.1,0.1-0.2,0.1-0.3,0.1c-0.3-0.2-0.8-0.2-1.1,0c-0.1,0.1-0.3,0-0.4-0.2C59.5,72.4,59.6,72.2,59.8,72.2z M58.8,76.2
		c0,0,0.1-0.1,0.1-0.1l0,0c0.2-0.1,0.4-0.2,0.6-0.3c0.2-0.1,0.4-0.2,0.7-0.3c0.2-0.1,0.5,0,0.6,0.3c0.1,0.2,0,0.4-0.2,0.6l0,0
		l-0.5,0.4c-0.2,0.1-0.3,0.3-0.5,0.4c-0.3,0.2-0.6,0.2-0.9,0C58.5,76.8,58.5,76.4,58.8,76.2z M56.7,72.7
		C56.7,72.7,56.7,72.7,56.7,72.7c0.5,0,0.9,0,1.4-0.1c0.2,0,0.4,0.1,0.4,0.3c0,0.2-0.1,0.4-0.3,0.4c-0.5,0.1-1,0.1-1.4,0.2l0,0
		c-0.2,0-0.4-0.2-0.4-0.4C56.3,72.9,56.5,72.7,56.7,72.7z M56.5,75.7L56.5,75.7c0.4,0.2,0.8,0.3,1.2,0.3c0.4,0.1,0.6,0.4,0.6,0.8
		c-0.1,0.4-0.4,0.6-0.8,0.6c0,0,0,0,0,0l0,0c-0.5-0.1-1-0.3-1.4-0.5c-0.3-0.2-0.4-0.6-0.3-0.9C55.8,75.7,56.2,75.6,56.5,75.7z
		 M54.2,74.9c0-0.2,0.1-0.3,0.2-0.4c0.1-0.1,0.2-0.2,0.3-0.3c0.1-0.1,0.2-0.2,0.3-0.4l0,0c0.1-0.2,0.4-0.4,0.6-0.2
		c0.2,0.1,0.3,0.4,0.3,0.6c-0.1,0.3-0.3,0.6-0.5,0.8c-0.1,0.1-0.1,0.1-0.1,0.2c0,0.2-0.1,0.5-0.3,0.6c-0.3,0.1-0.6,0-0.7-0.3
		C54.2,75.3,54.2,75.1,54.2,74.9z M37.4,80.7c-0.2,0-0.3-0.1-0.3-0.3c0-0.2,0.1-0.3,0.3-0.3c0,0,0.1,0,0.1,0l0,0
		c0.2,0.1,0.4,0.1,0.6,0.2c0.2,0,0.3,0,0.4-0.1c0.1-0.1,0.2-0.1,0.3-0.1c0.1,0.1,0.1,0.2,0.1,0.3c0,0,0,0,0,0l0,0
		c-0.1,0.1-0.2,0.2-0.3,0.3c-0.1,0-0.3,0.1-0.4,0.1C37.8,80.7,37.6,80.7,37.4,80.7z M39.2,89.6c-0.1,0.2-0.3,0.2-0.5,0.1
		c-0.1,0-0.1-0.1-0.1-0.2l0,0c-0.1-0.2-0.2-0.4-0.2-0.7l0-0.1l0,0c0-0.3,0.1-0.5,0.2-0.7l0,0c0.1-0.2,0.3-0.2,0.4-0.2
		c0.2,0.1,0.2,0.3,0.2,0.4c0,0.1-0.1,0.1-0.1,0.2c-0.2,0.1-0.3,0.2-0.5,0.3c0.2,0.1,0.4,0.2,0.6,0.3C39.3,89.2,39.3,89.4,39.2,89.6z
		 M39.2,86.6L39.2,86.6c0-0.1,0-0.1,0.1-0.2l0.1-0.2l0.2-0.1c0.2-0.1,0.3-0.1,0.4-0.2c0.1,0,0.2-0.1,0.4-0.1c0.2,0,0.5,0,0.7,0
		c0.4,0,0.6,0.4,0.6,0.8c0,0.3-0.3,0.6-0.6,0.6l0,0c-0.1,0-0.3,0-0.4,0.1l-0.2,0c0,0-0.1,0-0.1,0c-0.2,0.2-0.6,0.2-0.8,0
		C39.2,87.1,39.1,86.8,39.2,86.6z M39.8,90.3c-0.1-0.3,0-0.6,0.3-0.8l0,0c0,0,0.1,0,0.1-0.1c0.1,0,0.1-0.1,0.2-0.2
		c0.2-0.2,0.5-0.3,0.7-0.4c0.2-0.1,0.5,0.1,0.6,0.3c0.1,0.2,0,0.3-0.1,0.5l0,0c-0.1,0.1-0.2,0.3-0.3,0.4c0,0.1-0.2,0.2-0.3,0.3
		c-0.1,0.1-0.2,0.2-0.4,0.3C40.3,90.7,39.9,90.6,39.8,90.3z M40.1,96.3c0,0,0-0.1,0-0.2c0-0.2,0-0.4,0.1-0.5c0-0.1,0.1-0.3,0.2-0.4
		l0-0.1l0.1-0.1c0.2-0.1,0.3-0.3,0.5-0.4c0.3-0.2,0.6-0.1,0.8,0.2c0.1,0.3,0.1,0.6-0.2,0.8l0,0c-0.1,0.1-0.2,0.2-0.3,0.3
		c-0.1,0.1-0.1,0.2-0.2,0.2l-0.5,0.2C40.4,96.5,40.2,96.5,40.1,96.3z M40.9,98.8c0,0,0-0.1,0-0.1c0-0.2,0-0.4,0-0.6
		c0-0.2-0.1-0.4-0.1-0.6l0,0c0-0.1,0-0.2,0.1-0.3c0.1,0,0.2,0,0.3,0.1c0,0,0,0,0,0c0,0.2,0.1,0.4,0.1,0.6c0,0.2,0.1,0.4,0.2,0.6l0,0
		c0.1,0.2,0,0.4-0.2,0.4C41.1,99,41,98.9,40.9,98.8z M42.3,110.3c-0.2,0.1-0.4,0-0.5-0.1c0-0.1,0-0.1,0-0.2c0-0.3,0-0.5,0-0.7
		c0-0.1-0.1-0.2-0.1-0.3c-0.1-0.1-0.2-0.2-0.3-0.3l0,0c-0.2-0.2-0.2-0.5,0-0.6c0.2-0.2,0.5-0.2,0.6,0c0.1,0.1,0.1,0.2,0.1,0.3
		c0,0.1,0,0.3,0,0.4c0,0.1,0,0.3,0,0.4c0,0.3,0.1,0.5,0.2,0.7l0,0C42.5,110,42.4,110.2,42.3,110.3z M43.8,103.8
		c0-0.1-0.1-0.2-0.1-0.3c-0.1-0.1-0.2-0.2-0.3-0.3l0,0c-0.2-0.2-0.2-0.5,0-0.6c0.2-0.2,0.5-0.2,0.6,0c0.1,0.1,0.1,0.2,0.1,0.3
		c0,0.1,0,0.3,0,0.4c0,0.1,0,0.3,0,0.4c0,0.3,0.1,0.5,0.2,0.7l0,0c0.1,0.2,0,0.4-0.1,0.5c-0.2,0.1-0.4,0-0.5-0.1c0-0.1,0-0.1,0-0.2
		C43.9,104.3,43.9,104,43.8,103.8z M43.4,107.2c0.2,0.3,0.3,0.6,0.2,0.9c0,0,0,0.1-0.1,0.1c0,0,0,0,0,0l0,0
		c-0.2-0.2-0.4-0.3-0.6-0.3c-0.1,0-0.1,0-0.1,0c0,0-0.1,0.1-0.1,0.1c-0.3,0.2-0.6,0.1-0.8-0.2c-0.2-0.3-0.1-0.6,0.1-0.8
		c0.1,0,0.1-0.1,0.2-0.1l0.1,0c0.2,0,0.4-0.1,0.6,0C43,106.9,43.2,107,43.4,107.2z M44.7,110.1c-0.1,0.3-0.4,0.5-0.6,0.6
		c-0.2,0.1-0.3,0.1-0.5,0.1l-0.3,0.1l-0.1,0c-0.4,0.1-0.7-0.2-0.8-0.5c-0.1-0.3,0.1-0.6,0.4-0.7c0.1-0.1,0.3-0.1,0.4-0.2
		c0.1,0,0.2-0.1,0.2-0.1l0,0c0.1-0.4,0.4-0.6,0.8-0.6c0.3,0,0.5,0.3,0.5,0.5C44.8,109.5,44.8,109.8,44.7,110.1z M46.7,104.7
		c-0.1,0.3-0.4,0.5-0.6,0.6c-0.2,0.1-0.3,0.1-0.5,0.1l-0.3,0.1l-0.1,0c-0.4,0.1-0.7-0.2-0.8-0.5c-0.1-0.3,0.1-0.6,0.4-0.7
		c0.1-0.1,0.3-0.1,0.4-0.2c0.1,0,0.2-0.1,0.2-0.1l0,0c0.1-0.4,0.4-0.6,0.8-0.6c0.3,0,0.5,0.3,0.5,0.5
		C46.8,104.1,46.9,104.4,46.7,104.7z M47.5,86C47.5,86,47.5,86,47.5,86l-0.1,0c-0.3,0-0.6-0.1-0.9-0.2c-0.3-0.1-0.5-0.3-0.6-0.5
		c-0.2-0.2-0.2-0.5,0-0.7c0.2-0.2,0.4-0.2,0.6-0.1l0,0c0.3,0.2,0.6,0.3,0.8,0.3c0.3-0.1,0.6,0.2,0.7,0.5
		C48.1,85.6,47.9,85.9,47.5,86z M48.1,90.2L48.1,90.2c0.4,0,0.6,0.1,0.9,0.2c0.1,0,0.3,0.1,0.4,0.2c0.1,0.1,0.2,0.1,0.3,0.3
		c0.2,0.2,0.2,0.5,0,0.7c-0.1,0.1-0.2,0.1-0.3,0.1l-0.2,0c-0.1,0-0.2,0-0.3,0c-0.1,0-0.2,0-0.2,0c-0.2,0-0.3,0-0.4,0
		c-0.4,0.1-0.8-0.2-0.8-0.6c-0.1-0.4,0.2-0.8,0.6-0.8C48,90.2,48,90.2,48.1,90.2z M47.2,94.3c-0.2-0.2-0.2-0.5-0.1-0.7
		c-0.1,0-0.1,0-0.2,0c-0.1-0.1-0.2-0.1-0.2-0.3l0,0c0-0.1-0.1-0.2-0.1-0.4c0-0.1-0.1-0.2-0.1-0.4l0-0.1c0-0.3,0.1-0.6,0.1-0.8
		c0.1-0.2,0.3-0.4,0.5-0.3c0.2,0.1,0.4,0.3,0.3,0.5c0,0.1-0.1,0.2-0.2,0.3l0,0c-0.2,0.1-0.4,0.2-0.5,0.3c0.1,0,0.2,0.1,0.3,0.1
		c0.1,0,0.2,0.1,0.3,0.2c0.2,0.1,0.3,0.3,0.3,0.5c0.2-0.1,0.4,0,0.6,0.1c0,0,0,0,0.1,0l0,0l0.1,0l0.3-0.2c0.2-0.1,0.4-0.2,0.5-0.4
		l0,0c0.1-0.1,0.2-0.1,0.3,0c0.1,0.1,0.1,0.2,0,0.3c-0.1,0.2-0.2,0.4-0.4,0.6L49,93.8l0,0.1c0,0,0,0.1-0.1,0.1
		c-0.1,0.1-0.1,0.1-0.2,0.2l-0.4,0.3C47.9,94.7,47.5,94.6,47.2,94.3z M49.4,100.2c0,0.2-0.2,0.3-0.4,0.3c-0.1,0-0.2-0.1-0.2-0.2
		l-0.1-0.1c-0.2-0.3-0.1-0.6-0.1-0.8l0-0.1c0-0.2,0-0.4,0.1-0.7c0-0.2,0.2-0.3,0.4-0.3c0.2,0,0.3,0.2,0.3,0.4c0,0.1,0,0.1-0.1,0.2
		l0,0c-0.1,0.1-0.2,0.2-0.3,0.3c-0.1,0.1-0.2,0.1-0.3,0.2c0.1,0.2,0.3,0.3,0.4,0.4C49.3,99.8,49.5,100,49.4,100.2z M49.5,97.6
		c0.1-0.2,0.3-0.4,0.6-0.4c0.3,0,0.6,0.1,0.9,0.1l0.2,0.2c0,0,0.1,0.1,0.1,0.1l0.1,0.1c0.1,0.1,0.2,0.2,0.3,0.3l0,0
		c0.3,0.3,0.3,0.7,0,1c-0.2,0.3-0.6,0.3-0.9,0.1c-0.1-0.1-0.3-0.2-0.4-0.3c-0.1,0-0.1-0.1-0.2-0.2c0,0-0.1-0.1-0.1-0.1
		c-0.1,0-0.1-0.1-0.2-0.1l-0.2-0.1C49.5,98.4,49.3,98,49.5,97.6z M51.6,82.1c0-0.1,0-0.2,0.2-0.3s0.2,0,0.3,0.2c0,0,0,0,0,0l0,0
		c0,0.1,0,0.2,0,0.3c0,0.1,0,0.3-0.1,0.4c-0.1,0.3-0.3,0.5-0.5,0.6l0,0c-0.1,0.1-0.2,0-0.3-0.1c-0.1-0.1,0-0.2,0.1-0.3c0,0,0,0,0,0
		c0.2-0.1,0.3-0.2,0.4-0.3c0-0.1,0-0.1,0-0.2C51.7,82.3,51.7,82.2,51.6,82.1z M51.7,101.9c-0.1,0.1-0.3,0.1-0.4,0.1
		c-0.3-0.1-0.6-0.2-0.8-0.3c-0.2-0.1-0.4-0.3-0.6-0.5l0,0c-0.2-0.2-0.3-0.6-0.1-0.8c0.2-0.2,0.5-0.3,0.7-0.1
		c0.1,0.1,0.2,0.1,0.3,0.2c0.1,0.1,0.2,0.1,0.3,0.2c0.2,0.1,0.3,0.3,0.5,0.5l0.1,0.1C51.9,101.4,51.8,101.7,51.7,101.9z M52.8,99
		L52.8,99c0.1,0.2,0.3,0.3,0.4,0.6c0,0.1,0,0.3,0,0.4c0,0.1-0.1,0.2-0.2,0.3c-0.1,0.1-0.2,0.2-0.3,0.3c-0.1,0.1-0.2,0.2-0.2,0.3l0,0
		c-0.1,0.1-0.2,0.1-0.3,0.1c-0.1-0.1-0.1-0.2-0.1-0.3c0.1-0.1,0.1-0.2,0.2-0.4c0.1-0.1,0.1-0.2,0.1-0.3c0,0,0-0.1,0-0.1
		c0,0,0,0,0,0.1c0,0-0.1,0-0.2,0c-0.3-0.1-0.4-0.4-0.3-0.7c0.1-0.3,0.4-0.4,0.7-0.3C52.7,98.9,52.7,98.9,52.8,99z M50.3,79.5
		c0.1-0.3,0.4-0.5,0.7-0.4c0,0,0.1,0,0.1,0.1l0,0c0.2,0.1,0.4,0.2,0.6,0.4c0.1,0.1,0.2,0.1,0.3,0.2c0.1,0.1,0.2,0.2,0.3,0.4
		c0.1,0.2,0,0.4-0.2,0.5c-0.1,0.1-0.3,0.1-0.4,0l-0.1-0.1c-0.1,0-0.2-0.1-0.4-0.2c-0.2-0.1-0.4-0.1-0.6-0.2
		C50.4,80.1,50.3,79.8,50.3,79.5z M50.2,83.7c0.1,0.2,0,0.4-0.2,0.5l0,0c-0.3,0.2-0.6,0.5-0.8,0.8c-0.2,0.2-0.5,0.3-0.8,0.1
		c-0.2-0.2-0.3-0.5-0.1-0.8c0,0,0-0.1,0.1-0.1l0,0c0.4-0.3,0.8-0.5,1.3-0.7C49.9,83.3,50.1,83.4,50.2,83.7z M47.9,78.6
		c0.5-0.1,1-0.1,1.5,0c0.4,0.1,0.6,0.4,0.6,0.8c0,0.3-0.3,0.6-0.7,0.6l0,0c-0.4,0-0.7,0-1.1,0.1l0,0c-0.4,0.1-0.8-0.2-0.8-0.6
		C47.3,79.1,47.5,78.7,47.9,78.6z M45.6,81L45.6,81c0.2-0.4,0.4-0.7,0.6-1.1c0.2-0.3,0.5-0.4,0.8-0.3c0.3,0.2,0.4,0.5,0.3,0.8
		c0,0,0,0,0,0.1l0,0c-0.3,0.4-0.6,0.7-0.9,1c-0.2,0.2-0.5,0.2-0.7,0C45.5,81.5,45.5,81.2,45.6,81z M45.4,101.7
		c0.2,0.3,0.3,0.6,0.2,0.9c0,0,0,0.1-0.1,0.1c0,0,0,0,0,0l0,0c-0.2-0.2-0.4-0.3-0.6-0.3c-0.1,0-0.1,0-0.1,0c0,0-0.1,0.1-0.1,0.1
		c-0.3,0.2-0.6,0.1-0.8-0.2c-0.2-0.3-0.1-0.6,0.1-0.8c0.1,0,0.1-0.1,0.2-0.1l0.1,0c0.2,0,0.4-0.1,0.6,0
		C45.1,101.4,45.3,101.6,45.4,101.7z M45.3,83.9C45.2,84,45,84,44.9,84c0,0-0.1,0-0.1-0.1l0,0c-0.1-0.2-0.2-0.4-0.3-0.6l0,0l0,0
		c0-0.2,0.1-0.5,0.2-0.7l0,0c0.1-0.1,0.2-0.2,0.3-0.1c0.1,0.1,0.2,0.2,0.1,0.3c0,0,0,0.1-0.1,0.1c-0.1,0.1-0.3,0.3-0.4,0.4
		c0.2,0.1,0.4,0.2,0.5,0.3C45.3,83.6,45.3,83.8,45.3,83.9z M44,74c0,0,0.1,0,0.1,0c0.2,0,0.4,0.1,0.6,0.1c0-0.2-0.1-0.4-0.1-0.6
		c0-0.2,0.1-0.3,0.2-0.3c0.2,0,0.3,0.1,0.3,0.2c0,0,0,0.1,0,0.1l0,0c-0.1,0.2-0.2,0.4-0.3,0.6l0,0l0,0c-0.2,0.1-0.4,0.2-0.6,0.2l0,0
		c-0.1,0-0.3,0-0.3-0.2C43.8,74.2,43.9,74,44,74z M43.7,96.6c0.2,0,0.4,0.1,0.5,0.3l0.2,0.3c0,0.1,0.1,0.2,0.1,0.3
		c0.1,0.2,0.2,0.6,0.1,1c-0.1,0.4-0.5,0.6-0.9,0.5c0,0,0,0,0,0c0,0.3-0.2,0.5-0.4,0.6c0,0-0.1,0-0.1,0c-0.2,0-0.4,0.1-0.5,0.1
		l-0.1,0l0,0l-0.1,0c-0.1,0.1-0.2,0.1-0.4,0.2c-0.3,0.1-0.5-0.1-0.6-0.4c0-0.1,0-0.2,0-0.3l0.2-0.4c0,0,0.1-0.1,0.1-0.1l0,0l0.1-0.1
		c0.1,0,0.1-0.1,0.2-0.1c0.2-0.1,0.5-0.2,0.7-0.3l0,0c0.2-0.1,0.3-0.1,0.5,0c0-0.1,0-0.1,0-0.2c0,0,0-0.1,0-0.2l0-0.3l0-0.3l0-0.1
		C43.2,96.9,43.5,96.6,43.7,96.6z M42.9,88.3c0,0.1-0.1,0.2-0.2,0.2c-0.1,0-0.2-0.1-0.2-0.2l0,0c0-0.1-0.1-0.2-0.1-0.3
		c0-0.1,0-0.3,0-0.4c0-0.1,0-0.3,0-0.3c0,0,0,0,0,0.1c0,0,0,0,0,0l0,0c-0.3,0-0.5-0.2-0.5-0.5c0-0.3,0.2-0.5,0.5-0.5
		c0.1,0,0.3,0.1,0.4,0.2l0.1,0.1l0.1,0.1c0,0.1,0.1,0.1,0.1,0.2c0.1,0.1,0.1,0.3,0,0.4c-0.1,0.2-0.1,0.3-0.2,0.4
		c0,0.1-0.1,0.2-0.1,0.2C42.9,88.1,42.9,88.1,42.9,88.3z M42.4,94.5c0.1,0,0.1,0,0.2,0.1l0.1,0.1c0.1,0.1,0.2,0.2,0.3,0.3
		c0.1,0.1,0.1,0.2,0.2,0.3c0.1,0.2,0.1,0.5,0.1,0.7c0,0,0,0.1-0.1,0.1c0,0,0,0-0.1,0c-0.2-0.2-0.3-0.3-0.5-0.4
		c-0.1-0.1-0.1-0.1-0.2-0.1c-0.1,0-0.1,0-0.2-0.1c-0.2,0-0.4-0.3-0.4-0.5C41.9,94.7,42.1,94.5,42.4,94.5z M40,72.3
		c0.3-0.1,0.6,0.1,0.8,0.3c0.1,0.3,0.2,0.5,0.3,0.8c0.1,0.3,0.1,0.5,0.1,0.6c0,0,0,0,0,0c0,0,0,0,0.1,0c0,0,0.1,0,0.1,0l0,0l0.7-0.1
		c0.2,0,0.5,0,0.7-0.1c0.3,0,0.5,0.2,0.6,0.5c0,0.2-0.1,0.5-0.3,0.5l0,0c-0.2,0.1-0.4,0.2-0.6,0.2l-0.7,0.2
		c-0.4,0.1-0.7-0.1-0.8-0.4c0,0,0,0,0,0c-0.1,0-0.1,0.1-0.2,0.1c-0.4,0.1-0.8-0.2-0.9-0.5c0,0,0,0,0,0c-0.1-0.3-0.1-0.5-0.1-0.7
		c0-0.2,0-0.3-0.1-0.5l0,0C39.5,72.8,39.7,72.4,40,72.3z M37.9,77.7c0.2-0.3,0.6-0.4,0.8-0.2c0,0,0.1,0,0.1,0.1l0,0
		c0.2,0.2,0.3,0.3,0.5,0.5c0.1,0.2,0.2,0.4,0.3,0.6c0.1,0.2,0,0.5-0.2,0.6c-0.2,0.1-0.3,0-0.5-0.1l0,0c-0.1-0.1-0.3-0.2-0.4-0.3
		c-0.1-0.1-0.3-0.2-0.4-0.3C37.8,78.4,37.7,78,37.9,77.7z M35.6,77L35.6,77c0.2-0.1,0.5-0.3,0.7-0.4l0.1-0.1l0.2,0l0.2,0l0.1,0
		c0.1,0,0.2,0,0.2,0l0,0c0.4,0.1,0.6,0.5,0.6,0.9c-0.1,0.4-0.5,0.6-0.9,0.6c0,0,0,0-0.1,0l-0.2,0l-0.1,0c-0.2,0.1-0.4,0.1-0.6,0.2
		c-0.3,0.1-0.6-0.1-0.7-0.4C35.2,77.5,35.4,77.2,35.6,77z M34.8,79.8c0.1,0,0.2,0,0.3,0c0.1,0,0.1,0,0.2,0l0.3,0
		c0.3,0,0.6,0.2,0.7,0.5c0,0.3-0.1,0.5-0.4,0.6l0,0c-0.1,0-0.2,0.1-0.3,0.1c-0.1,0-0.3,0-0.4,0c-0.3,0-0.6,0-0.9-0.2
		c-0.3-0.1-0.4-0.5-0.2-0.8C34.2,79.9,34.5,79.7,34.8,79.8L34.8,79.8z M33.5,79c0-0.2,0-0.5,0.1-0.7l0-0.1l0,0
		c0.2-0.2,0.4-0.3,0.6-0.5l0,0c0.1-0.1,0.3,0,0.4,0.1c0.1,0.1,0,0.3-0.1,0.4c0,0-0.1,0-0.1,0c-0.2,0-0.4,0-0.6,0
		c0.1,0.2,0.2,0.4,0.3,0.5c0.1,0.2,0,0.3-0.1,0.4c-0.2,0.1-0.3,0-0.4-0.1C33.5,79.2,33.5,79.1,33.5,79L33.5,79z M27.5,96.8
		c-0.2-0.3-0.1-0.7,0.2-0.9l0,0c0.1-0.1,0.2-0.2,0.4-0.3l0.2-0.2c0,0,0.1-0.1,0.1-0.1l0,0.1c0-0.1,0.1-0.1,0.1-0.2l0-0.1
		c0.2-0.3,0.6-0.4,0.9-0.2c0.2,0.2,0.4,0.4,0.3,0.7c0,0.1,0,0.2-0.1,0.3l0,0l0,0.1c-0.1,0.2-0.2,0.3-0.2,0.4
		c-0.1,0.1-0.2,0.2-0.3,0.3c-0.2,0.2-0.4,0.3-0.6,0.4C28.1,97.2,27.7,97.1,27.5,96.8z M28.3,92.3c0-0.1,0.1-0.1,0.2-0.1
		c0,0,0,0,0.1,0c0.2,0.1,0.4,0.3,0.6,0.4l0,0l0,0c0,0.2,0.1,0.4,0.2,0.6c0,0.1,0,0.2-0.1,0.2c-0.1,0-0.2,0-0.2-0.1c0,0,0,0,0-0.1
		c0-0.2,0-0.4-0.1-0.6c-0.2-0.1-0.4-0.2-0.6-0.2C28.4,92.5,28.3,92.4,28.3,92.3z M30.1,99.8L30.1,99.8c-0.1,0.2-0.1,0.4-0.1,0.5
		c0,0.2,0,0.3,0,0.4c0,0.4-0.3,0.7-0.7,0.7c-0.4,0-0.7-0.3-0.7-0.7c0,0,0,0,0,0l0,0c0-0.3,0.1-0.6,0.3-0.8c0.1-0.2,0.3-0.5,0.5-0.6
		c0.2-0.2,0.6-0.2,0.8,0.1C30.1,99.4,30.1,99.6,30.1,99.8z M30.5,80.9c0.1,0,0.1,0,0.1,0.1l0,0c0.2,0.2,0.4,0.3,0.5,0.5l0,0l0,0
		c0.1,0.2,0.2,0.5,0.2,0.7l0,0c0,0.1-0.1,0.3-0.2,0.3c-0.1,0-0.3-0.1-0.3-0.2c0,0,0-0.1,0-0.1c0.1-0.2,0.1-0.4,0.2-0.6
		c-0.2,0-0.4-0.1-0.6-0.1c-0.2,0-0.3-0.2-0.2-0.3C30.2,81,30.3,80.9,30.5,80.9z M30.1,85C30.1,85,30.1,85,30.1,85
		c0.1-0.1,0.1-0.1,0.2-0.2l0,0c0-0.2,0-0.4,0-0.6c0-0.3,0.3-0.6,0.6-0.6c0.3,0,0.5,0.3,0.6,0.5l0,0c0,0.3,0.1,0.5,0.1,0.8l0,0.2
		l-0.1,0.2c0,0.1-0.1,0.1-0.1,0.2c0,0.1-0.1,0.1-0.1,0.1c-0.1,0.1-0.1,0.2-0.2,0.3l0,0c-0.3,0.3-0.7,0.3-1,0.1
		C29.9,85.8,29.8,85.3,30.1,85z M27.7,86.3L27.7,86.3c0.2,0,0.4-0.1,0.6-0.2c0.2-0.1,0.4-0.1,0.6-0.2c0.3-0.1,0.7,0,0.8,0.3
		c0.1,0.3,0,0.7-0.3,0.8c0,0-0.1,0-0.1,0l0,0c-0.3,0.1-0.5,0.1-0.8,0.1c-0.3,0-0.5,0-0.8-0.1c-0.2,0-0.4-0.3-0.3-0.5
		C27.4,86.4,27.5,86.3,27.7,86.3z M25.8,104.4c0.3-0.1,0.5,0,0.7,0.2c0.2,0.2,0.3,0.5,0.4,0.7c0.1,0.3,0.1,0.6-0.1,0.9
		c-0.1,0.3-0.5,0.4-0.7,0.3c-0.2-0.1-0.3-0.3-0.3-0.5l0-0.1c0-0.1,0-0.2,0-0.3c0-0.1-0.1-0.2-0.1-0.4l0,0
		C25.4,104.9,25.6,104.5,25.8,104.4z M24.8,102.2c0-0.1,0.1-0.2,0.2-0.1c0.1,0,0.3,0.1,0.4,0.2c0.1,0.1,0.1,0.2,0.2,0.4
		c0.1,0.2,0.1,0.4,0.2,0.6c0.1,0.2,0,0.3-0.2,0.4c-0.2,0.1-0.3,0-0.4-0.2c0,0,0-0.1,0-0.1l0,0c0-0.2,0-0.4,0-0.6
		c0-0.1,0-0.2-0.1-0.2c0,0-0.1-0.1-0.1-0.1C24.8,102.4,24.7,102.3,24.8,102.2z M23.8,106.9c0-0.1,0.1-0.1,0.2-0.1c0,0,0,0,0,0
		c0.2,0.2,0.3,0.3,0.5,0.4c0.2,0,0.4-0.1,0.6-0.2c0.1,0,0.1,0,0.2,0c0,0.1,0,0.1,0,0.2c0,0,0,0,0,0c-0.2,0.1-0.5,0.1-0.7,0.1l0,0
		l0,0c-0.2-0.1-0.4-0.2-0.6-0.3C23.8,107.1,23.7,107,23.8,106.9z M20.3,111.9c-0.1-0.1-0.1-0.3,0-0.4c0.1-0.1,0.3-0.1,0.4,0
		c0,0,0,0.1,0.1,0.1l0,0c0.1,0.2,0.2,0.4,0.2,0.7l0,0l0,0c-0.1,0.2-0.2,0.4-0.3,0.6l0,0c-0.1,0.1-0.2,0.1-0.3,0.1
		c-0.1-0.1-0.1-0.2-0.1-0.3c0,0,0,0,0.1-0.1c0.2-0.1,0.3-0.2,0.5-0.4C20.6,112.2,20.5,112,20.3,111.9z M17.5,114.9
		c0,0,0.1-0.1,0.1-0.1l0,0c0.2-0.2,0.3-0.4,0.5-0.5c0.2-0.2,0.4-0.3,0.6-0.5c0.2-0.2,0.5-0.1,0.7,0.1c0.2,0.2,0.1,0.5,0,0.7l0,0
		c-0.1,0.2-0.3,0.4-0.4,0.5c-0.1,0.2-0.3,0.4-0.4,0.6c-0.2,0.3-0.6,0.4-0.9,0.2C17.4,115.6,17.3,115.2,17.5,114.9z M14.5,114.9
		c0.2-0.2,0.5-0.3,0.8-0.1l0,0c0.3,0.2,0.7,0.3,1,0.2c0.4,0,0.7,0.3,0.7,0.7c0,0.4-0.3,0.7-0.7,0.7c0,0-0.1,0-0.1,0l0,0
		c-0.6,0-1.2-0.3-1.7-0.7C14.3,115.6,14.3,115.2,14.5,114.9z M9.3,112.9c0,0.1-0.1,0.1-0.1,0.2l0,0c-0.2,0.1-0.4,0.3-0.6,0.4l0,0
		l0,0c-0.2,0.1-0.5,0-0.7,0l0,0c-0.2,0-0.3-0.2-0.3-0.3c0-0.2,0.2-0.3,0.3-0.3c0.1,0,0.1,0,0.2,0.1c0.2,0.1,0.3,0.3,0.5,0.4
		c0-0.2,0.1-0.4,0.1-0.6c0.1-0.2,0.2-0.3,0.4-0.2C9.2,112.5,9.3,112.7,9.3,112.9z"/>
	<path class="st0" d="M54.7,103.4c-0.1,0.1-6.2,7.5-8.8,11.1c-0.1,0.2-0.1,0.3-0.1,0.5c0,0.2,0,0.3,0,0.4c0,0.4-0.3,0.7-0.7,0.7
		c-0.1,0-0.1,0-0.2,0c-0.9,1.8,0.9,4.7,2.1,6.6l0.3,0.4c0,0,0,0,0,0c2.8,0.1,4.8,0.7,6,2c0.2,0.3,0.4,0.5,0.6,0.8
		c1.4-0.2,2.7-0.3,4.1-0.4l0.3,0h0l0,0l0-0.1c0-0.1,0-0.2,0-0.2c0-0.2-0.1-0.3-0.1-0.4c-0.3-0.6-0.6-1.1-1.2-1.5
		c-0.5-0.4-1.2-0.8-1.9-1c-0.3-0.1-0.7-0.2-1.1-0.3c-0.4-0.1-0.7-0.1-1.1-0.2l-0.6,0c-0.2,0-0.4,0-0.6-0.1c-0.1-0.1-0.2-0.1-0.3-0.2
		c-0.1-0.1-0.1-0.2-0.2-0.3l-0.3-0.5c-0.4-0.7-0.8-1.3-1.2-2c-0.4-0.7-0.7-1.4-0.8-2.3c-0.2-0.8-0.1-1.7,0.3-2.6
		c0.1-0.2,0.2-0.4,0.3-0.6c0.1-0.2,0.2-0.4,0.3-0.5c0.2-0.3,0.4-0.7,0.6-1c0.4-0.6,0.9-1.2,1.4-1.9c1.8-2.3,3.8-5,5.9-7.1
		c-0.7-0.3-1.1-0.5-1.8-0.8C55.3,102.8,54.8,103.4,54.7,103.4z M47.3,117.1c0,0.1-0.1,0.1-0.2,0.1l0,0c-0.3,0-0.5,0.1-0.7,0.1l0,0
		l0,0c-0.2-0.1-0.4-0.2-0.7-0.3l0,0c-0.1,0-0.2-0.2-0.2-0.3c0-0.1,0.2-0.2,0.3-0.2c0.1,0,0.1,0.1,0.2,0.1c0.1,0.2,0.3,0.3,0.4,0.5
		c0.2,0,0.4-0.2,0.5-0.3c0.1-0.1,0.2-0.2,0.3-0.1C47.3,116.8,47.4,117,47.3,117.1z M47.8,116.1c-0.2,0.2-0.6,0.3-0.8,0.1
		c-0.1-0.1-0.1-0.1-0.2-0.2l0-0.1c-0.1-0.3-0.2-0.6-0.1-0.8c0-0.3,0.1-0.5,0-0.6l0,0c0-0.1,0.1-0.2,0.2-0.3c0.1,0,0.2,0,0.2,0.1
		c0.1,0.1,0.1,0.2,0.1,0.3c0,0.1,0.1,0.2,0.1,0.3c0.1,0.2,0.2,0.3,0.3,0.4C47.9,115.5,48,115.9,47.8,116.1z"/>
	<path class="st0" d="M97.7,103.1C97.7,103.1,97.7,103.1,97.7,103.1c0,0-0.2,3.6-0.5,6.2c0.2,0.1,0.4,0.3,0.4,0.5c0,0.1,0,0.1,0,0.2
		l0,0c0,0,0,0,0,0.1c0,0.1,0,0.1-0.1,0.2c-0.1,0.1-0.1,0.3-0.2,0.4c-0.1,0.2-0.2,0.3-0.3,0.4c0,0,0,0,0,0c-0.3,1.3-0.6,2.5-0.6,3.2
		c0,0.4,0,0.8,0,1.4c0,1.8-0.1,7,0.4,8c2.4,0,3.8,0.8,4.7,1.7c1.1-0.2,2.5-0.3,3.6-0.4c0.6,0,1.1-0.1,1.7-0.1c0.4,0,0.3,0,0.3,0
		c0,0,0,0,0,0l0-0.1c0-0.1,0-0.1-0.1-0.2c-0.3-0.9-0.9-1.8-1.8-2.3c-0.4-0.3-0.9-0.5-1.5-0.6c-0.5-0.2-1.1-0.2-1.6-0.2h0l0,0
		c-0.2,0-0.3-0.1-0.4-0.2c-0.1-0.1-0.1-0.2-0.2-0.3c-0.1-0.2-0.1-0.4-0.2-0.6c-0.1-0.4-0.2-0.8-0.3-1.2c-0.1-0.8-0.3-1.7-0.3-2.5
		c-0.1-1.7-0.1-3.3-0.1-4.9v-0.3l0-0.4c0-0.2,0-0.5,0.1-0.7c0.1-0.4,0.2-0.9,0.3-1.3c0.2-0.8,0.5-1.6,0.7-2.4
		c0.5-1.5,0.4-2.8,0.5-4.5c-0.5,0.2-0.6,0.2-1.1,0.3C99.9,102.9,98.8,103,97.7,103.1z M98.3,109.3c0.1,0,0.2,0,0.3,0.1
		c0.1,0.1,0.2,0.1,0.3,0.2c0.1,0.1,0.2,0.2,0.3,0.3l0.1,0c0.2,0.2,0.3,0.5,0.3,0.7c0.1,0.2,0,0.4-0.2,0.5c-0.2,0.1-0.4,0-0.5-0.2
		c0-0.1,0-0.2,0-0.2l0,0c0.1-0.2,0.1-0.4,0.2-0.6c-0.1,0-0.2,0.1-0.3,0.1c-0.1,0-0.3,0-0.4,0c-0.3,0-0.5-0.2-0.5-0.4
		C97.9,109.5,98.1,109.3,98.3,109.3z M97.3,111.9c0.1-0.2,0.2-0.3,0.4-0.3l0,0c0.2,0,0.4,0,0.5-0.1c0.2,0,0.3-0.1,0.4-0.1l0.1,0
		c0.4-0.1,0.8,0.1,0.9,0.5c0.1,0.4-0.1,0.7-0.4,0.9c-0.3,0.1-0.6,0.1-0.9,0.1c-0.3,0-0.5-0.1-0.7-0.2
		C97.2,112.5,97.1,112.2,97.3,111.9z M99.3,121.5c-1.3,0.6-1.2-0.5-1.3-1.7c0,0,0.1-0.8,1.4-1.2c1.3-0.4,0.3,0.8,0.9,1.6
		C101,121.1,100.7,120.9,99.3,121.5z"/>
</g>
</svg>
