<?xml version="1.0" encoding="utf-8"?>
<!-- Generator: Adobe Illustrator 23.0.0, SVG Export Plug-In . SVG Version: 6.00 Build 0)  -->
<svg version="1.1" id="Layer_1" xmlns="http://www.w3.org/2000/svg" xmlns:xlink="http://www.w3.org/1999/xlink" x="0px" y="0px"
	 viewBox="0 0 128 128" 
width="128" height="128"
style="enable-background:new 0 0 128 128;" xml:space="preserve">
<style type="text/css">
	.st0{fill:#2D2D2D;}
</style>
<g>
	<path class="st0" d="M110.5,7.6c0,0.1,0,0.2,0,0.3c0,0.4,0.1,0.9,0.2,1.3c0.2,0.9,0.7,1.7,1.2,2.4c0.5,0.7,1.1,1.4,1.8,2
		c0.6,0.5,1.3,1,2.1,1.3c-0.1,0-0.2,0.1-0.3,0.1c-0.4,0.2-0.7,0.5-1.1,0.8c-0.4,0.7-0.6,1.7-0.8,2.5c-0.3,1.1-0.2,2.2,0.3,3.2
		c0.3,0.5,0.7,0.9,1.1,1.3c0.4,0.4,0.9,0.7,1.4,1c1,0.5,2.2,0.5,3.4,0.1c0-0.1,0.1-0.3,0.1-0.4c0,0,0,0,0,0c0,0,0,0,0,0
		c0.1-0.8,0.7-1.6,1.4-2.1c0.7-0.5,1.5-0.8,2.4-1c0.8-0.2,1.7-0.2,2.5-0.1c0.6,0.1,1.2,0.2,1.8,0.3c-0.1-0.3-0.3-0.5-0.5-0.7
		c-0.4-0.4-1-0.5-1.5-0.6c-0.5-0.1-1-0.3-1.5-0.5c-0.5-0.2-1-0.3-1.6-0.6c0,0-0.1,0-0.1,0c-0.5-0.4-0.9-0.7-1.4-1
		c-0.5-0.3-1-0.6-1.4-0.9c-0.9-0.5-1.9-1-2.8-1.5c-0.1-0.1-0.3-0.1-0.4-0.2c0,0,0,0,0,0l0,0c-0.2-0.3-0.1-0.8-0.1-1.2
		c0.1-0.4,0.2-0.8,0.3-1.2c0.2-0.8,0.5-1.6,0.9-2.4c0.2-0.4,0.4-0.8,0.6-1.1c0.2-0.4,0.4-0.8,0.5-1.2c0.1-0.5,0.3-1,0.4-1.5
		c0.9,0.1,2.5-1.1,2.3-1.5c-0.2-0.4-1.9-2.2-3.8-1.3l-0.1,0.2c-0.1,0.3,0.3,1.6,0.9,2.3c-0.3,0.4-0.6,0.9-0.9,1.3
		c-0.4,0.8-0.6,1.6-0.8,2.5c-0.2,0.8-0.4,1.7-0.5,2.6c0,0.4-0.1,0.9,0,1.3c0,0.4,0.1,0.8,0.3,1.2c-0.4-0.5-0.7-1.1-0.8-1.7
		c-0.2-0.8-0.2-1.6-0.1-2.4c0.1-0.8,0.3-1.6,0.3-2.4c0-0.4,0-0.8,0-1.2c0-0.3,0-0.5-0.1-0.8c0,0,0,0,0,0c0.8-0.4,1.2-2.2,0.9-2.4
		c-0.4-0.2-2.6-0.5-3.4,1.1l0,0.2c0.1,0.2,1.2,1,2,1.2c-0.3,0.6-0.5,1.2-0.7,1.8c-0.2,0.8-0.1,1.7,0,2.6c0.1,0.9,0.2,1.7,0.6,2.5
		c0.3,0.6,0.6,1.2,1.1,1.6c-0.1,0-0.2,0.1-0.3,0.1c-0.7-0.4-1.3-1-1.9-1.6c-0.5-0.6-1-1.3-1.3-2.1l-0.2-0.6
		c-0.1-0.2-0.1-0.4-0.2-0.6c-0.1-0.4-0.2-0.8-0.4-1.1c-0.2-0.4-0.3-0.8-0.5-1.1c-0.1-0.1-0.1-0.3-0.2-0.4c0.6-0.7,0.4-2.7-0.1-2.8
		c-0.5-0.1-2.9,0.4-3.1,2.4l0.1,0.2C108.2,7.3,109.6,7.7,110.5,7.6z M118.6,17.7c0.5,0,1,0.4,1,1c0,0.5-0.4,1-1,1c-0.5,0-1-0.4-1-1
		C117.6,18.1,118.1,17.7,118.6,17.7z"/>
	<path class="st0" d="M16.3,119.6c0.2-0.1,0.4-0.1,0.6-0.2c0.2-0.1,0.4-0.1,0.6-0.2c0.4-0.2,0.7-0.4,1.1-0.6
		c0.7-0.4,1.4-0.9,2.1-1.4c0.7-0.5,1.3-1,1.9-1.5c-1.8,0.9-3.6,1.6-5.6,2c-1.8,0.4-3.6,0.4-5.4,0.3c-1.8-0.1-3.6-0.5-5.3-1.1
		l-1.3-0.4c-0.4-0.1-0.9-0.3-1.2-0.4c-0.8-0.2-1.6-0.1-2.3,0.3c-0.7,0.4-1.2,1.1-1.4,1.8c-0.2,0.7-0.2,1.5,0.1,2.1
		c0,0.2,0.1,0.3,0.2,0.5c0.1,0.1,0.2,0.3,0.3,0.5c0.1,0.2,0.2,0.3,0.3,0.5l0.3,0.5c0.5,0.6,1,1.2,1.6,1.7c0.6,0.5,1.3,0.9,2,1.2
		c0.4,0.2,0.8,0.3,1.2,0.4c0.2,0.1,0.4,0.1,0.6,0.1c0.1,0,0.2,0,0.3,0c0,0,0-0.1,0-0.1c0-0.1,0.1-0.1,0.1-0.2l0.1,0l0.3-0.2
		c1.3-1.1,2.7-2.1,4.2-3.1C13.1,121.1,14.6,120.1,16.3,119.6z"/>
	<path class="st0" d="M70.8,81.9c0.8-0.7,1.6-1.5,2.5-2.1c-4.2,0.9-7.6-0.1-7.8-0.1c-0.2-0.1-0.4-0.2-0.5-0.3
		c-0.7,0.1-1.5,0.2-2.2,0.3c-1.8,0.2-3.6,0.2-5.4,0.2l-1.2,0l0.2-1.1c0-0.1,0.1-0.3,0.1-0.4l0.1-0.2c0.1-0.1,0.1-0.3,0.2-0.4
		c0.1-0.2,0.2-0.5,0.3-0.7c0.2-0.5,0.5-0.9,0.7-1.3c0.2-0.3,0.4-0.6,0.6-0.9c-0.3,0-0.6-0.1-0.9-0.2c-0.5-0.1-0.9-0.3-1.4-0.5
		c-0.2-0.1-0.5-0.2-0.7-0.4c0,0-0.1-0.1-0.1-0.1c0,0-0.1,0-0.1,0.1c-1,1.2-2,2.3-3,3.5c-1.1,1.3-2.1,2.7-3.1,4.1
		c-2,2.8-3.9,5.6-5.6,8.5c-1.7,2.9-3.3,5.9-5,8.9c-0.8,1.5-1.6,3-2.5,4.5c-0.4,0.8-0.9,1.5-1.4,2.2c-0.5,0.7-1,1.4-1.6,2.1
		c-1.1,1.4-2.4,2.6-3.7,3.8c-1.3,1.2-2.6,2.3-4,3.3c-1.4,1.1-2.8,2.1-4.2,3c-0.7,0.5-1.5,0.9-2.2,1.4c-0.7,0.4-1.6,0.8-2.5,1
		c-1.6,0.4-3.1,1.4-4.5,2.3c-1.4,1-2.8,2-4.1,3.1l-0.2,0.2c0.1,0.1,0.2,0.2,0.3,0.3c0.3,0.2,0.7,0.5,1,0.6c0.7,0.4,1.5,0.6,2.4,0.7
		c0.4,0,0.8,0,1.2,0c0.4-0.1,0.7-0.2,1.2-0.3l2.5-0.8l0.5-0.2l0.1,0.6c0,0.2,0.1,0.4,0.3,0.6c0.2,0.2,0.3,0.3,0.6,0.4
		c0.5,0.2,1.1,0.1,1.6,0c0.6-0.1,1.2-0.3,1.7-0.6c0.6-0.2,1.1-0.5,1.7-0.8l0.8-0.4l0.2,0.9c0.1,0.3,0.2,0.4,0.5,0.6
		c0.3,0.1,0.8,0.1,1.2,0.1c0.9-0.1,1.9-0.4,2.8-0.8c1.8-0.8,3.5-1.9,4.9-3.3l0.5-0.5l0.7,0.5c0.1,0.1,0.3,0.2,0.4,0.2
		c0.2,0,0.4,0,0.7-0.1c0.5-0.2,1.1-0.6,1.6-1.1c1-0.9,1.8-2.1,2.4-3.3l1-2.1l0.8,2.3c0,0.1,0.1,0.3,0.1,0.3c0,0,0,0,0,0
		c0.1,0,0.3-0.1,0.5-0.2c0.2-0.1,0.4-0.3,0.6-0.4c0.9-0.7,1.7-1.5,2.5-2.4c1.6-1.7,3-3.6,4.5-5.5c0.7-1,1.5-1.9,2.1-2.9
		c0.7-1,1.3-2,1.9-3c1.3-2,2.6-4.1,3.9-6.1c2.6-4,5.3-8,8.4-11.8C67.5,85.4,69.1,83.6,70.8,81.9z"/>
	<path class="st0" d="M76,76.9l0.3-0.1l0.2,0.1c3.1-1.1,6.2-2.2,9.3-3.5c3.1-1.3,6.1-2.6,9-4.2c2.9-1.6,5.7-3.3,8-5.7
		c1.1-1.2,2.2-2.4,3.1-3.8c0.1-0.1,0.1-0.2,0.2-0.3c-0.1,0.1-0.2,0.1-0.3,0.2c-1,0.7-2,1.2-3,1.6c-1,0.4-2,0.8-3.1,1.1
		c-2.1,0.5-4.2,0.8-6.3,1.5c-1,0.3-2,0.7-2.9,1.2c-0.5,0.2-0.9,0.5-1.3,0.8c-0.4,0.3-0.8,0.6-1.1,0.9l-0.5,0.6
		c-0.2,0.2-0.3,0.4-0.5,0.6c-0.4,0.4-0.7,0.8-1.1,1.2c-0.4,0.4-0.8,0.7-1.2,1.1c-0.4,0.4-0.9,0.7-1.3,1c-1.8,1.2-3.7,2.2-5.9,2.7
		c-1.5,0.8-2.9,1.7-4.4,2.6c-1.2,0.7-2.5,1.3-3.8,1.8C71.2,78.3,73.6,78,76,76.9z"/>
	<path class="st0" d="M127.6,41.4c-0.3-1.5-0.8-3.1-1.5-4.5c-0.3-0.7-0.7-1.4-1.1-2.1c-0.4-0.7-0.9-1.4-1.3-2.1
		c-0.9-1.4-1.8-2.8-2.6-4.3c-0.4-0.7-0.8-1.4-1.1-2.3c-0.2-0.7-0.3-1.4-0.1-2.1c-0.9,0.8-2.4,1.2-3.7,0.7c-0.7-0.2-1.3-0.6-1.9-1
		c-0.5-0.4-1-0.9-1.4-1.6c-0.4-0.6-0.6-1.4-0.6-2.1c0-0.2,0-0.3,0-0.5c0,0,0,0.1-0.1,0.1c-0.1,0.3-0.3,0.6-0.3,0.9
		c-0.1,0.3-0.2,0.6-0.3,0.9l-0.3,0.9c-0.1,0.3-0.1,0.6-0.2,0.9c-0.2,1.2,0,2.5,0.3,3.8c0.3,1.3,0.9,2.5,1.5,3.7
		c0.2,0.3,0.3,0.6,0.5,0.9c0.1,0.3,0.3,0.6,0.4,1c0.3,0.6,0.5,1.3,0.7,1.9c0.5,1.3,0.9,2.6,1.4,3.9c0.4,1.3,0.8,2.6,1,4.1
		c0.1,0.7,0.2,1.4,0,2.3c0,0.2-0.1,0.4-0.2,0.6c-0.1,0.2-0.1,0.3-0.2,0.5c-0.2,0.3-0.4,0.7-0.6,1c-0.9,1.3-2.4,2.2-3.9,2.5
		c-1.5,0.4-3.1,0.3-4.5,0c-0.4-0.1-0.7-0.2-1.1-0.3l-1-0.3l-1.9-0.6c-2.6-0.7-5.2-1.5-7.9-1.9c-1.3-0.2-2.7-0.4-4-0.5
		c-1.3-0.1-2.7,0-4.1,0.2c0,0-0.1,0-0.1,0c-2,0.6-4,1.3-6,2c-2,0.8-3.9,1.6-5.8,2.5c-1.9,0.9-3.7,1.9-5.5,2.9
		c-1.8,1.1-3.5,2.2-5.1,3.5l-0.1,0.1l-0.1,0c-0.7,0.2-1.4,0.5-2.1,0.8c-0.7,0.3-1.4,0.7-2,1.2c-1.3,0.9-2.5,1.9-3.6,3
		c-1.1,1.1-2.1,2.4-2.9,3.7c-0.4,0.6-0.8,1.3-1.2,2c-0.4,0.7-0.7,1.4-1,2.1c-0.3,1-0.6,2.1-0.9,3.1c0.1,0,0.2,0,0.3,0
		c0.5-0.1,0.9-0.1,1.4-0.2c0.4-0.1,0.9-0.2,1.3-0.3c0.4-0.1,0.8-0.3,1-0.5l1.3,0.2c0,0,0.1,0.1,0.2,0.1c0.1,0.1,0.3,0.1,0.5,0.2
		c0.3,0.1,0.7,0.2,1.1,0.3c0.4,0.1,0.8,0.1,1.2,0.1c0.4,0,0.8,0,1-0.1l2.9-1l-1.8,2.6c-0.5,0.7-1,1.5-1.5,2.4
		c-0.2,0.4-0.4,0.8-0.6,1.1c1.2,0,2.4,0,3.6,0c1.7-0.1,3.4-0.3,5.1-0.6c1.7-0.4,3.3-0.9,4.9-1.6c1.6-0.6,3.1-1.5,4.8-1.9
		c1.8-1.2,3.5-2.4,5-3.7c0.8-0.7,1.6-1.3,2.3-2.1c0.4-0.3,0.7-0.7,1.1-1.1c0.2-0.2,0.4-0.4,0.6-0.5l0.6-0.6c1-0.8,2.1-1.2,3.1-1.5
		c1-0.3,2.1-0.6,3.1-1c2-0.6,4.1-1.3,6.1-2.1c0.5-0.2,0.9-0.4,1.4-0.7c0.5-0.2,0.9-0.5,1.4-0.7c0.9-0.5,1.8-1,2.5-1.6
		c0.7-0.6,1.3-1.3,1.4-2c0.1-0.3,0-0.6-0.1-1c0-0.1-0.1-0.2-0.1-0.3l-0.2-0.3c-0.1-0.2-0.2-0.4-0.4-0.6c-0.5-0.8-1.1-1.5-1.9-2
		c-0.8-0.5-1.7-0.9-2.6-1.1c-1.9-0.4-4.1-0.3-6.2-0.1c-0.1,0-0.1,0-0.1-0.1c0,0,0-0.1,0.1-0.1c2-0.8,4.2-1.4,6.5-1.2
		c1.1,0.1,2.3,0.4,3.4,1c1.1,0.6,2,1.5,2.6,2.5c0.2,0.2,0.3,0.5,0.5,0.7l0.2,0.4c0.1,0.2,0.1,0.3,0.2,0.5c0.2,0.6,0.3,1.4,0.2,2.1
		c-0.1,0.6-0.5,1.2-0.8,1.6c-0.2,0.6-0.5,1.2-0.8,1.8c-0.8,1.5-1.7,2.9-2.9,4.2c-2.3,2.6-5.2,4.4-8.2,6c-3,1.6-6.1,2.9-9.3,4
		c-3.1,1.1-6.3,2-9.6,2.6l0,0c1.4,0.3,5.4,0.3,6.9,0.3l1.5,0l0,0c2-0.7,3.9-1.5,5.8-2.3c2.8-1.2,5.5-2.4,8.2-3.8
		c1.3-0.7,2.6-1.4,3.8-2.2c1.2-0.8,2.3-1.7,3.1-2.9c1.7-2.3,2.3-5.4,1.9-8.3c0.9,2.9,0.6,6.2-1.1,8.9c-0.8,1.4-2,2.4-3.3,3.3
		c-1.3,0.9-2.6,1.7-3.9,2.4c-2.7,1.4-5.5,2.6-8.4,3.6c-2.1,0.7-4.2,1.4-6.4,1.9l-5.4,12.4c0,0.1-1.1,2.6-1.8,3.7
		C77.3,94,77.1,95,77,98.2c0,0.2,0,0.4,0,0.5l0,0.2c-0.2,0.6-2.6,11.5-4.2,18.7c-0.1,0.4-0.5,0.8-0.9,0.8c-0.1,0-0.1,0-0.2,0
		c-0.2-0.1-0.5-0.2-0.6-0.4c-0.8-0.5-2.4-1.7-3.8-2.6l-0.4,0.5l4.1,2.9l0.3,5.7l0.1,0l0.7-5.7l1.4,2.3c0,0,1.9,3.2,3.3,4.7
		c1,1.1,2.4,2,3.1,2.4c0.1-0.1,0.2-0.1,0.3-0.2c-4.3-2.9-6.2-9.7-6.3-10.1c0-0.1,0-0.1,0-0.2c0,0,0-0.1-0.1-0.1
		c-0.1-0.4-0.1-0.4,1.6-7.4c0.4-1.7,0.8-3.1,0.9-3.8c0.4-1.9,1.7-7.1,1.7-7.1l0.1-0.3l0.2-0.2c0,0,1.9-1.9,1.8-3.8
		c0-0.4,1.5-3.3,2-4.4c0.7-1.4,1.4-2.8,2.3-4.1c0.9-1.3,1.9-2.5,3-3.6c1.1-1.1,2.2-2.2,3.4-3.2l0.2-0.2l0.3,0l5-0.1
		c1.5-0.1,3.1-0.1,4.5-0.2c0.1,0,0.2-0.1,0.3-0.1c0,0,0,0,0,0c0,0,0.1,0,0.1,0c0.3,0,0.6-0.2,1-0.3c0.4-0.2,0.8-0.3,1.1-0.5
		c0.7-0.4,1.5-0.7,2.2-1.2c1.4-0.8,2.8-1.8,4-3c0.4-0.4,0.8-0.8,1.1-1.2c0.1-0.2,0.6-0.7,1-1.2c0.4-0.5,0.7-1,1-1.5
		c0.9-1.4,2-2.8,3.4-3.9c0.3-0.3,0.7-0.5,1-0.8l0.5-0.4c0.1-0.1,0.3-0.2,0.4-0.4c0.6-0.6,1.1-1.2,1.6-1.8c1.1-1.3,2.1-2.5,3.1-3.9
		c1-1.3,1.9-2.7,2.8-4.1c0.4-0.7,0.8-1.4,1.2-2.1l0.5-1.1c0.2-0.4,0.3-0.7,0.4-1.1c0.5-1.5,0.7-3.1,0.8-4.6
		C128.1,44.5,127.9,42.9,127.6,41.4z"/>
	<path class="st0" d="M108.9,116.5c-0.3-0.1-0.6-0.4-0.6-0.7c-0.1-0.7-3.6-16.3-4-18.1l-0.1-0.3l0.1-0.3c1-2.5-0.7-4.9-0.7-4.9
		l-0.2-0.3l0-0.4c0-0.3,0.9-7.9,1.3-9.3l0.1-0.3l0.2-0.2c0.7-0.7,2.1-2.5,4.6-7.1c-1.2,1.1-2.4,2.1-3.7,3c-0.7,0.5-1.4,1-2.1,1.4
		c-0.4,0.2-0.7,0.4-1.1,0.6c-0.2,0.1-0.4,0.2-0.7,0.3c0,0.9,0,8.3-0.8,11.9c-0.2,0.9-0.4,3.7,1.7,5.5l0.3,0.2l0,0.4
		c0.1,1.1,1.4,6.5,2.4,10.8c1.2,5.1,1.6,6.8,1.6,7.5c0,0.1,0,0.2,0,0.3c0,0.5-0.4,0.9-0.9,0.9c-0.9,0-3.4-0.1-4.8-0.1l-0.1,0.5
		l5.8,0.1l3.4,5.2l0.5-0.2l-3-4.5l12.3,2.3c0.1,0,0.3,0,0.4-0.2c0-0.1,0.1-0.1,0.1-0.2C113,118.9,109.1,116.7,108.9,116.5
		C108.9,116.6,108.9,116.5,108.9,116.5z"/>
</g>
</svg>
