<?xml version="1.0" encoding="utf-8"?>
<!-- Generator: Adobe Illustrator 23.0.0, SVG Export Plug-In . SVG Version: 6.00 Build 0)  -->
<svg version="1.1" id="Layer_1" xmlns="http://www.w3.org/2000/svg" xmlns:xlink="http://www.w3.org/1999/xlink" x="0px" y="0px"
	 viewBox="0 0 128 128" style="enable-background:new 0 0 128 128;" xml:space="preserve">
<style type="text/css">
	.st0{fill:#2D2D2D;}
</style>
<g>
	<path class="st0" d="M115.2,66.5c0-0.3,0-0.5-0.1-0.8c0-0.2-0.1-0.5-0.1-0.7c-0.4-2-0.9-4-1.4-6c-0.5-2-1-4.1-1.7-6
		c-0.1-0.3-0.2-0.4-0.3-0.7c-0.1-0.1-0.1-0.3-0.2-0.4l-0.1-0.5c-0.1-0.6-0.1-1.3,0-1.9c0.3-1.2,0.9-2.2,1.7-3
		c0.7-0.8,1.5-1.5,2.4-2.2c0.9-0.6,1.8-1.2,2.7-1.7c0,0,0,0,0.1,0c0.5-0.3,1-0.5,1.5-0.7c0.1-0.1,0.3-0.1,0.4-0.2
		c-0.2-0.1-0.4-0.2-0.6-0.3c-0.3-0.1-0.6-0.3-0.9-0.3c-0.3-0.1-0.6-0.2-0.9-0.2c-0.3-0.1-0.6-0.1-0.9-0.2c0,0,0,0-0.1,0c0,0,0,0,0,0
		c0,0,0,0,0,0c0.2-0.1,0.3-0.1,0.5-0.2c0.3-0.2,0.7-0.3,1-0.5c0.5-0.2,0.9-0.5,1.4-0.7c0.4-0.3,0.8-0.6,1.1-1
		c0.2-0.4,0.3-0.8,0.3-1.3c-0.4-0.4-0.8-0.8-1.3-1.2c-0.2,0.2-0.4,0.4-0.6,0.6l-0.3,0.3l-0.2,0.2l-0.1,0.1l-0.1,0l0,0
		c0,0-0.1,0-0.1,0l-0.1,0l-0.1-0.1c-0.6-0.5-1.4-0.8-2.2-1c-0.8-0.2-1.6-0.1-2.3,0.2c-1.5,0.5-3,1.6-4,3l0,0l0,0l-0.6,0.4
		c-0.3,0.4-0.4,0.9-0.5,1.4c-0.1,0.5-0.1,1-0.1,1.5c0,1,0,2.1,0,3.1c0,1,0,2.1-0.1,3.2c-0.1,0.5-0.2,1.1-0.4,1.6
		c-0.1,0.3-0.3,0.6-0.5,0.8c-0.2,0.3-0.6,0.5-0.9,0.5l-0.5,0.1l-0.1-0.5c-0.1-1.2-0.3-2.3-0.6-3.4c-0.3-1-0.6-1.9-1.1-2.9
		c-0.2,0.8-0.3,1.6-0.3,2.4c0,0.5,0,0.9,0,1.4c0,0.5,0.1,0.8,0.2,1.3c0.2,0.9,0.4,1.9,0.6,2.8c0.3,1.9,0.6,3.9,0.6,5.8
		c0,1-0.1,2-0.4,3c-0.3,1-0.7,1.9-1.6,2.6l0,0l0,0c-0.7,0.4-1.5,0.5-2.3,0.4c-0.7-0.1-1.5-0.3-2.2-0.5c-1.3-0.5-2.7-0.8-4.2-0.9
		C91.8,63,89,63,86.1,63.1c-2.8,0.1-5.7,0.3-8.5,0.8c-2.7,0.5-5.4,1.1-8,2c-1.6,0.6-3.2,1.3-4.8,1.9c-1.6,0.7-3.3,1.5-4.9,2.2
		c-2.2,1-4.3,2.1-6.4,3.3c-0.1,0.2-0.2,0.3-0.2,0.5c-0.3,0.6-0.6,1.3-0.7,2c-0.1,0.3-0.1,0.6,0,0.9c0.1,0.2,0.2,0.4,0.4,0.4
		c0.4,0.2,1.2,0.1,1.8-0.1l1.7-0.4l-1.2,1.3c-0.5,0.5-0.8,1.3-0.9,2.1c-0.1,0.8-0.1,1.6,0.3,2.3c0.3,0.7,1,1.2,1.8,1.3
		c0.8,0.2,1.7,0,2.5-0.2l0.4-0.1l-0.1,0.3c-0.2,0.8-0.2,1.6,0.1,2.4c0.3,0.7,0.9,1.3,1.7,1.5c0.7,0.2,1.5,0.2,2.3,0
		c0.8-0.1,1.6-0.4,2.3-0.7l1.8-0.7L66.3,88c-0.4,0.6-0.6,1.2-0.4,1.8c0.2,0.6,0.6,1,1.2,1.4c0.6,0.3,1.3,0.5,2.1,0.5
		c0.7,0,1.5-0.1,2.3-0.2l0.6-0.1l0.2,0.5c0.2,0.6,0.5,1.2,1,1.6c0.5,0.5,1.1,0.8,1.7,1.1c0.3,0.1,0.6,0.2,0.9,0.2
		c3.6-0.8,7.2-1.8,10.6-3.1c0.9-0.4,1.8-0.8,2.6-1.2c0.4-0.2,0.8-0.5,1.1-0.7c0.3-0.2,0.6-0.6,0.9-0.9c1.2-1.5,2.3-3.2,3.3-4.9
		c1-1.7,1.9-3.5,2.5-5.4c0.6-1.8,1-3.8,0.5-5.5c-0.4-1-1-1.9-1.7-2.7c-0.8-0.8-1.7-1.4-2.7-1.9c-1-0.5-2.1-0.8-3.2-0.9
		c-1.1-0.2-2.3-0.2-3.4-0.1l0,0c-0.1,0-0.1,0-0.1-0.1c0,0,0-0.1,0.1-0.1c1.1-0.2,2.3-0.3,3.5-0.2c1.2,0.1,2.4,0.3,3.5,0.7
		c1.1,0.4,2.2,1.1,3.1,1.9c0.9,0.8,1.6,1.9,2.2,3l0,0l0,0c0.4,1.1,0.5,2.3,0.4,3.3c-0.1,1.1-0.3,2.2-0.6,3.2c-0.6,2-1.5,4-2.5,5.8
		c-1,1.8-2.1,3.6-3.4,5.3c-0.4,0.4-0.7,0.8-1.2,1.3C91,91.7,90.5,92,90,92.2c-0.9,0.5-1.8,0.9-2.7,1.3c-0.3,1.1-0.9,2.1-1.6,2.9
		c-0.1,0.2-0.3,0.3-0.4,0.5c3.5-1.2,6.8-2.8,10-4.6c0.8-0.5,1.6-1,2.4-1.5c0.8-0.5,1.6-1.1,2.3-1.6c0.8-0.6,1.5-1.2,2.2-1.8
		c0.3-0.3,0.7-0.6,1-0.9c0.3-0.3,0.6-0.7,0.8-0.9l0.2-0.3l0.2-0.1c1.8-1,3.4-2.2,5-3.5c1.6-1.3,3-2.8,4.1-4.6
		c1.1-1.8,1.7-3.8,1.9-5.8c0.1-1,0.1-2.1,0-3.1L115.2,66.5z M115.2,36.8c0.6,0,1.2,0.5,1.2,1.2c0,0.7-0.5,1.2-1.2,1.2
		c-0.6,0-1.2-0.5-1.2-1.2C114.1,37.4,114.6,36.8,115.2,36.8z"/>
	<path class="st0" d="M106.4,39.9l-1.4,2.4c-0.4,0.7-0.7,1.6-0.9,2.5c0,0,0,0.1,0,0.1c0.8,0.8,1.3,1.8,1.8,2.9
		c0.4,0.9,0.6,1.8,0.8,2.7c0.1-0.1,0.2-0.2,0.2-0.4c0.2-0.4,0.3-0.9,0.3-1.4c0.1-1,0.2-2,0.2-3.1c0.1-1,0.1-2.1,0.3-3.1
		c0.1-0.5,0.2-1,0.3-1.6c0.1-0.5,0.3-1,0.7-1.5l0,0l0,0l0.6-0.4c0.5-0.7,1-1.4,1.7-2.1c0.6-0.6,1.4-1.2,2.3-1.6
		c0.9-0.3,1.9-0.4,2.8-0.1c0.9,0.2,1.6,0.7,2.2,1.3l0,0l0.2-0.1l0.4-0.2c0.2-0.1,0.4-0.3,0.7-0.4c-1.1-0.8-2.4-1.4-3.7-1.6
		c-1.9-0.3-3.9,0.1-5.7,0.8c-1.8,0.8-3.4,1.9-4.6,3.4c-0.6,0.7-1.1,1.6-1.6,2.5c-0.1,0.1-0.1,0.3-0.2,0.4c0.1,0,0.2-0.1,0.3-0.1
		L106.4,39.9z"/>
	<path class="st0" d="M124.5,41.7c-0.4-0.1-2.2-1.2-2.6-1.2c-0.9-0.2-1.7,0.1-2.6,0.1c-0.1,0-0.2,0-0.4,0c0.3,0.1,0.6,0.3,0.8,0.5
		c0.2,0.2,0.4,0.4,0.5,0.6c0.1-0.1,0.3-0.1,0.4-0.2c0.1,0,0.1,0,0.2-0.1c0.6-0.2,1.2-0.2,1.7,0.1c0.9,0.4,2.3,1.1,2.8,1.1
		c0.3,0,0.7,0.1,1,0.1c0.3,0,0.7,0,1,0l0,0c-0.6-0.2-1.2-0.5-1.8-0.7C125.4,41.9,125,41.8,124.5,41.7z"/>
	<path class="st0" d="M115.8,45c0.2,0.5,0.4,1,0.6,1.5c0.1,0.3,0.3,0.6,0.4,0.9c0.1,0.2,0.1,0.3,0.1,0.5c0,0.1,0.1,0.3,0.2,0.4
		c0.3,0.5,0.8,1,1.3,1.4c0.4,0.4,0.9,0.7,1.4,1c-0.1-0.1-0.1-0.2-0.2-0.4c-0.4-0.8-0.9-1.5-1.3-2.3c-0.4-0.8-0.6-1.7-0.7-2.6
		c0-0.8,0-1.6,0.3-2.3C117.2,43.7,116.5,44.3,115.8,45z"/>
	<path class="st0" d="M46.6,98.8c-0.9-0.1-1.8-0.2-2.8-0.3c-0.5-0.1-0.9-0.2-1.4-0.3c-0.2-0.1-0.5-0.1-0.7-0.2
		c-0.2-0.1-0.4-0.2-0.6-0.3c-1.3-0.1-2.5-0.3-3.8-0.7c-1.3-0.4-2.5-1-3.6-1.8c-0.3-0.3-0.7-0.5-1-0.9c-2.5,2.1-5.2,4-7.8,5.8
		c-2.9,2-5.7,3.9-8.7,5.6c-3,1.7-6.1,3.4-8.9,5.3c-2.5,1.6-4.9,3.4-7.3,5.2c0.2,0,0.3,0,0.5,0c0.7,0,1.3-0.1,2-0.2
		c0.7-0.1,1.4-0.2,2-0.4c0.3-0.1,0.7-0.2,1-0.2l0.1,0l0,0c0,0,0.1,0,0.2-0.1c0.1-0.1,0.3-0.1,0.4-0.2c2.4-1.4,4.8-3.1,7.2-4.6
		c2.4-1.5,4.9-3,7.3-4.5c2.5-1.5,4.9-2.9,7.5-4.3c0,0,0.1,0,0.1,0c0,0,0,0.1,0,0.1c-2.2,1.9-4.5,3.7-6.8,5.4c-2.3,1.7-4.6,3.4-7,5
		c-1.2,0.8-2.4,1.6-3.6,2.4c-1.2,0.8-2.5,1.5-3.8,2.2c-0.2,0.1-0.3,0.2-0.5,0.3c-0.1,0-0.2,0.1-0.3,0.1c-0.1,0-0.1,0-0.2,0.1l-0.1,0
		c-0.4,0.1-0.7,0.1-1.1,0.2c-0.7,0.1-1.5,0.2-2.2,0.3c-0.4,0-0.9,0.1-1.3,0.1c1.4,0.8,3,0.7,4.5,0.4c0.8-0.2,1.6-0.4,2.4-0.6
		l2.5-0.8c1.7-0.6,3.4-1.2,4.9-2.1c1.6-0.9,3-2,4.4-3.1c1.4-1.2,2.8-2.2,4.3-3.3c1.4-1.1,2.8-2.2,4.3-3.2c2.9-2.1,5.9-4.1,9.1-5.8
		c0,0,0.1,0,0.1,0c0,0,0,0.1,0,0.1c-2.4,2.7-5.2,5.1-8,7.4c-1.4,1.1-2.9,2.1-4.5,3.1c-1.5,1-3.1,1.9-4.7,2.8
		c-1.6,0.8-3.2,1.7-4.8,2.6c-1.6,0.9-3,2-4.6,2.9c-0.8,0.5-1.7,0.9-2.5,1.2c-0.5,0.1-0.9,0.3-1.4,0.4c0.2,0,0.4,0.1,0.6,0.1
		c0.4,0,0.8,0,1.2,0c0.8,0,1.7-0.2,2.5-0.3c0.8-0.1,1.7-0.3,2.5-0.4l0.6-0.1l0.5-0.2l1.2-0.4c1.6-0.6,3.2-1.2,4.8-1.8
		c1.6-0.6,3.2-1.2,4.7-2c3-1.6,5.6-3.9,8.1-6.2c2.6-2.2,5.1-4.6,7.5-6.9l0.1-0.1l0.1-0.1c0.1,0,0.1-0.1,0.2-0.1c0.1,0,0.2,0,0.2,0
		l0.1,0l0.1,0l0.2,0l0.4,0l0.8,0c0.5,0,1.1-0.1,1.6-0.1c1-0.1,2.1-0.2,3.1-0.4c1.8-0.3,3.6-0.9,5.3-1.7c-0.6,0-1.3,0-1.9,0
		C50.3,99,48.4,98.9,46.6,98.8z"/>
	<path class="st0" d="M120.2,51.5c-0.1-0.2-0.2-0.5-0.3-0.7c-0.6-0.2-1.1-0.4-1.7-0.7c-0.6-0.4-1.1-0.8-1.5-1.4
		c-0.2-0.3-0.3-0.7-0.4-1c-0.1-0.3-0.2-0.6-0.3-0.9c-0.2-0.5-0.3-1-0.3-1.5c-0.6,0.7-1.2,1.3-1.8,2.1c-0.6,0.8-1,1.7-1.2,2.6
		c-0.1,0.4,0,0.9,0.1,1.2l0.1,0.3l0.1,0.3c0.1,0.2,0.3,0.5,0.4,0.8c0.1,0.3,0.2,0.6,0.3,0.8c0.6,0.5,1.2,0.9,1.8,1.1
		c0.7,0.2,1.5,0.3,2.3,0.2c0.8,0,1.6-0.1,2.2-0.4c0.1,0,0.2-0.1,0.2-0.1c0,0,0.1-0.1,0.1-0.1c0.1-0.1,0.2-0.3,0.2-0.4
		c0.1-0.3,0.2-0.7,0.2-1c0-0.2,0-0.2-0.1-0.5L120.2,51.5z"/>
	<path class="st0" d="M43.6,84.8c1.8-1.1,3.5-2.3,5.4-3.4c1.6-0.9,3.1-1.9,4.7-2.9c0,0,0-0.1,0.1-0.1c-0.4,0-0.8-0.1-1.2-0.2
		c-0.2-0.1-0.4-0.3-0.6-0.5c-0.2-0.2-0.2-0.5-0.3-0.7c-0.1-0.5,0-0.9,0.2-1.3c0.2-0.6,0.5-1.2,0.8-1.7c-0.7,0.4-1.4,0.8-2.2,1.3
		c-3.1,1.8-6,3.9-8.8,6.1c-2.8,2.2-5.4,4.6-7.7,7.3l0,0l0,0c-0.5,0.5-0.9,1.1-1.1,1.7c1.8-0.8,3.5-1.6,5.2-2.5
		C39.9,86.9,41.8,85.8,43.6,84.8z"/>
	<path class="st0" d="M34.3,94.5c0.3,0.2,0.6,0.4,0.9,0.6c2-0.5,4-1.1,6-1.9c2.1-0.8,4.1-1.7,6.1-2.7c1-0.5,2-1.1,2.9-1.7l2.9-1.7
		c1-0.5,1.9-1.1,2.9-1.7c0.8-0.5,1.6-0.9,2.4-1.4c-0.6,0.1-1.2,0.2-1.9,0.2c-0.5,0-1-0.1-1.4-0.4c-0.4-0.2-0.8-0.6-1.1-1
		C53.3,82,53.1,81,53.2,80c0-0.2,0.1-0.4,0.1-0.7c-1.1,1.1-2.4,2.2-3.7,3.1c-1.7,1.3-3.7,2.2-5.6,3.2c-1.9,1-3.8,1.9-5.8,2.7
		c-1.8,0.8-3.7,1.5-5.5,2.1c-0.1,0.4-0.2,0.7-0.2,1.1C32.6,92.7,33.4,93.8,34.3,94.5z"/>
	<path class="st0" d="M121,38.5c-0.2,0.6-0.7,1-1.2,1.3c-0.1,0.1-0.2,0.1-0.3,0.1c0.8,0,1.6,0.1,2.3,0.3c0.4,0,2.2,0.9,2.7,0.9
		c0.5,0,0.9,0.1,1.4,0.2c0.8,0.2,1.5,0.7,2,1.3c-0.1-0.3-0.3-0.6-0.5-1c-0.2-0.6-0.5-1.1-0.9-1.4c-1.3-1.5-3.7-2.5-4.2-2.8
		c-0.4-0.2-0.9-0.4-1.4-0.6c0,0,0,0.1,0,0.1c0,0,0,0,0,0C121.2,37.5,121.3,38.1,121,38.5z"/>
	<path class="st0" d="M53.7,88.3c-1.9,1.3-3.9,2.2-6,3.2c-2.1,0.9-4.2,1.7-6.3,2.4c-2,0.6-4,1.1-6,1.4c0.7,0.4,1.4,0.8,2.2,1
		c1,0.4,2.1,0.6,3.2,0.7c1.9-0.2,3.7-0.6,5.5-1.1c2.3-0.6,4.6-1.3,6.8-2.2c2.2-0.9,4.3-2,6.5-3c1.1-0.5,2.1-1.1,3.2-1.6
		c0.2-0.1,0.5-0.2,0.7-0.3c0,0,0,0,0,0c-0.9,0.1-1.8,0-2.7-0.4c-0.4-0.2-0.8-0.5-1.1-0.8c-0.3-0.3-0.5-0.8-0.7-1.2
		c-0.2-0.8-0.2-1.5-0.1-2.3C57.2,85.7,55.5,87.1,53.7,88.3z"/>
	<path class="st0" d="M72.9,104.9c0.1,0.2,0.2,0.3,0.4,0.5c0.4,0.2,1.1,0.2,1.6,0.1c0.3-0.1,0.6-0.2,0.9-0.2c0.2,0,0.3-0.1,0.5-0.1
		c0,0,0.1,0,0.1,0l0.1,0c0,0,0.1,0,0.1,0c0,0,0.1-0.1,0.1-0.2l-0.1-0.5c0-0.3-0.1-0.7-0.1-1c0-0.7,0-1.4,0.2-2.2
		c0.1-0.4,0.4-0.8,0.7-1.1c0.3-0.3,0.6-0.5,0.9-0.7c1.1-0.7,2.1-1.4,3.2-2.1c1.6-1,3.2-2.1,4.6-3.5c-1.7,0.6-3.3,1.1-5,1.5
		c-2,0.5-4,1-6,1.3c-1.7,0.3-3.3,0.6-5,0.8c0.4,1,0.8,2.1,1.2,3.1l1.2,3.5l0.1,0.4C72.8,104.7,72.8,104.8,72.9,104.9z"/>
	<path class="st0" d="M71.2,92.7C71.2,92.8,71.2,92.8,71.2,92.7c-1.1,1-2.3,1.8-3.6,2.4c-1.1,0.6-2.3,1-3.5,1.4c0.1,0,0.2,0,0.3,0
		c0.5,0,1-0.1,1.5-0.1c1-0.1,2-0.3,3-0.4c1.7-0.3,3.4-0.6,5.1-0.9C72.9,94.7,71.8,93.9,71.2,92.7z"/>
	<path class="st0" d="M66,94.5c0.4-0.2,0.8-0.4,1.1-0.5c0.4-0.2,0.8-0.3,1.2-0.5c0.4-0.2,0.8-0.3,1.2-0.5c0,0,0.1,0,0.1-0.1
		c-0.1,0-0.3,0-0.4,0c-0.9,0-1.8-0.2-2.7-0.6c-0.8-0.4-1.6-1.2-1.9-2.3c-0.1-0.4-0.1-0.9,0-1.3c-1.4,1.1-2.9,2.1-4.5,3
		c-2.1,1.2-4.4,2-6.7,2.9c-2.3,0.8-4.6,1.4-7,1.9c-1.6,0.3-3.3,0.5-4.9,0.7c0.1,0.1,0.3,0.2,0.4,0.3c0.2,0.1,0.4,0.1,0.6,0.2
		c0.4,0.1,0.9,0.2,1.3,0.2c0.9,0.1,1.8,0.2,2.7,0.3c1.8,0.1,3.7,0.1,5.5,0c1.6-0.1,3.1-0.2,4.7-0.4c0.3-0.1,0.7-0.1,1-0.2
		c1.6-0.4,3.2-0.9,4.8-1.5c0.8-0.3,1.6-0.6,2.3-1C65.2,94.9,65.6,94.7,66,94.5z"/>
	<path class="st0" d="M78.8,105.6c-0.1,0-0.2,0-0.4,0c-0.3-0.1-0.6-0.2-0.8-0.3c-0.1,0-0.1-0.1-0.2-0.1c-0.1,0.2-0.2,0.3-0.4,0.4
		c-0.1,0.1-0.2,0.1-0.4,0.1l-0.1,0l0,0c0,0,0,0,0,0c1,2.1,2,4.2,3,6.3c0.8,1.4,1.5,2.9,2.4,4.2c0.1-0.1,0.2-0.2,0.2-0.2
		c0.1-0.1,0.2-0.2,0.4-0.2l0-0.1l-0.3-0.9c-0.4-1.1-0.5-2.4-1-3.5c-0.4-1.1-1.3-2.1-1.7-3.2C79.3,107.3,79,106.5,78.8,105.6
		L78.8,105.6z"/>
	<path class="st0" d="M81.5,103.9c0.1-0.1,0.2-0.3,0.2-0.5l0.5-1.2c0.2-0.4,0.4-0.8,0.6-1.3c0.1-0.2,0.3-0.4,0.5-0.7
		c0.2-0.2,0.3-0.3,0.5-0.5c0.6-0.6,1.2-1.2,1.9-1.8c0.5-0.4,1-0.7,1.5-1c-0.7,0.1-1.4,0.2-2.1,0.3c-0.7,0.7-1.4,1.3-2.2,1.9
		c-1.1,0.8-2.3,1.3-3.4,1.9c-0.3,0.1-0.6,0.3-0.7,0.4c-0.1,0.1-0.3,0.2-0.4,0.4c-0.3,0.4-0.5,1-0.6,1.6c-0.1,0.2-0.1,0.5-0.1,0.7
		c0.2,0,0.3,0,0.5,0.1c0.2,0,0.3,0,0.5,0c0.1,0,0.2,0,0.3,0l0.3,0c0.8,0,1.5-0.1,2.3-0.1C81.4,104,81.5,104,81.5,103.9z"/>
	<path class="st0" d="M95.5,120.2c-0.1,0-0.3,0-0.4,0c-1-0.1-2-0.4-3-0.7c-2-0.6-4-1.4-5.6-3.1c-0.7-0.8-1.3-1.8-1.8-2.7
		c-0.5-0.9-0.9-1.9-1.2-2.9c-0.6-1.7-1.1-3.4-1.6-5.2l0,0l-0.2,0c-0.7,0-1.4,0-2.1,0c0.4,0.6,0.7,1.3,1,2c0.5,1.1,0.5,2.4,1,3.5
		c0.4,1.1,1.2,2.1,1.7,3.2l0.4,0.8l0.2,0.5c0,0.1,0.1,0.2,0.1,0.3c0,0,0,0.1,0,0.1c0,0,0,0,0,0.1c0,0,0,0.1,0,0.1l0,0.1
		c0,0,0,0,0,0.1c0,0.1-0.1,0.2-0.2,0.3c-0.1,0.1-0.2,0.1-0.2,0.1l0,0l0,0l0,0c-0.2,0.1-0.6,0.1-0.9,0.1c0,0-0.1,0-0.1,0
		c0.2,0.3,0.4,0.6,0.6,0.9c0.3,0.4,0.7,0.9,1.1,1.2c0.4,0.3,0.9,0.6,1.3,0.9c0.7,0.4,1.4,0.7,2.1,1.1c-0.4-0.4-0.7-0.9-0.8-1.6
		l-0.1-1.2l1,0.7c0.5,0.3,1.2,0.6,1.9,0.9c0.7,0.3,1.4,0.6,2.1,0.8c1.3,0.5,2.7,0.8,4,1c0-0.4,0-0.8,0-1.2c0-0.1,0-0.2,0-0.3
		L95.5,120.2z"/>
	<path class="st0" d="M88,122.7c-1.1-0.4-2.2-1-3.2-1.6c-0.5-0.3-1-0.7-1.5-1.1c-0.5-0.5-0.9-0.9-1.2-1.4c-1.3-2-2.3-4.1-3.2-6.3
		c-0.9-2.2-1.7-4.3-2.4-6.6c0,0,0,0,0,0c-0.1,0-0.3,0.1-0.4,0.1l-0.9,0.3c-0.5,0.1-0.9,0.3-1.5,0.3c0.7,1.4,1.4,2.7,2.1,4.1
		c0.9,1.9,1.9,3.8,2.7,5.8c0.4,1,0.9,1.9,1.3,2.9l0.3,0.7l0.1,0.4l0.1,0.2c0,0,0,0.1,0,0.1c0,0,0,0,0,0.1l0,0.1l0,0c0,0,0,0,0,0.1
		c0,0.2-0.2,0.4-0.3,0.4c-0.1,0-0.1,0-0.1,0l0,0l-1.6,0.3c-1,0.2-2,0.5-3,0.8c-0.5,0.2-1,0.3-1.4,0.5c-0.4,0.2-0.8,0.4-1.1,0.6
		c0,0.2-0.1,0.4-0.1,0.6c0,0.1,0,0.3,0,0.4l2.5,0.4l0.6-1.3l0.1-0.1l0.1,0c1.8-0.4,3.6-0.8,5.4-1.3l0.1,0l0.1,0.1
		c0.4,0.6,0.8,1.2,1.2,1.8c0.4,0.6,0.9,1.1,1.4,1.6c0.5,0.5,1,1,1.6,1.4c0.5,0.4,1.1,0.7,1.7,0.8c0.5-0.3,1.1-0.5,1.6-0.7
		c-0.1,0-0.1,0-0.2-0.1c-0.4-0.2-0.8-0.4-1.2-0.6c-0.8-0.4-1.5-0.9-2.2-1.5c-0.3-0.3-0.7-0.6-1-1c-0.3-0.4-0.6-0.8-0.6-1.5l-0.1-1.1
		l1,0.6c0.5,0.3,1.2,0.6,1.9,0.9c0.7,0.3,1.3,0.5,2,0.7c1.1,0.4,2.3,0.7,3.4,1.1c0-0.3,0-0.6,0-0.8c-0.2-0.1-0.5-0.1-0.7-0.2
		C90.3,123.5,89.1,123.2,88,122.7z"/>
	<path class="st0" d="M95.7,120C95.7,120,95.7,120,95.7,120C95.7,120,95.7,120,95.7,120C95.7,120,95.7,120,95.7,120z"/>
	<path class="st0" d="M92.6,124.1C92.7,124.1,92.6,124.1,92.6,124.1C92.6,124.1,92.6,124.1,92.6,124.1z"/>
	<path class="st0" d="M82.7,116.2C82.7,116.2,82.7,116.2,82.7,116.2L82.7,116.2C82.7,116.2,82.7,116.2,82.7,116.2z"/>
</g>
</svg>
