<?xml version="1.0" encoding="utf-8"?>
<!-- Generator: Adobe Illustrator 18.1.0, SVG Export Plug-In . SVG Version: 6.00 Build 0)  -->
<svg version="1.1" baseProfile="tiny" id="Layer_1" xmlns="http://www.w3.org/2000/svg" xmlns:xlink="http://www.w3.org/1999/xlink"
	 x="0px" y="0px" viewBox="0 0 128 128" xml:space="preserve">
<g>
	<path fill="#2D2D2D" d="M85.7,45.8c-3.3-2.4-6.8-5.4-10.4-8.9c-3.5-3.5-6.4-6.8-8.7-10c-7,2-14.4,5.4-20.2,10.8L74.7,66
		C80.2,60.2,83.6,52.8,85.7,45.8z"/>
	<path fill="#2D2D2D" d="M87.6,81.7L74.7,68.8c-6.1,5.8-13.5,9.2-20.5,11.3c3.8,5.3,6.2,9.8,7.5,12.6C71.1,92.3,80.3,88.6,87.6,81.7
		z"/>
	<path fill="#2D2D2D" d="M52.1,80.6C44.1,82.7,37,83,33.5,83c-0.1,0-0.2,0-0.2,0c7.5,6.4,16.8,9.7,26.2,9.7
		C58.1,89.8,55.8,85.6,52.1,80.6z"/>
	<path fill="#2D2D2D" d="M100.2,54.3c-3.4-1.4-7.8-3.7-12.7-7.2c-2.1,6.9-5.5,14.3-11.3,20.3l12.9,12.9
		C96.1,73,99.8,63.7,100.2,54.3z"/>
	<path fill="#2D2D2D" d="M68.7,26.4c2.2,2.9,4.9,5.9,8.1,9.1c3.3,3.3,6.5,6,9.5,8.3c2.1-8.1,2.4-15.5,2.1-19.2c0-0.1,0-0.2,0-0.3
		c-0.1,0-0.2,0-0.3,0C84.3,24,76.9,24.3,68.7,26.4z"/>
	<path fill="#2D2D2D" d="M33.8,59.5c3.3,2.4,6.9,5.4,10.6,9.1c3.4,3.4,6.2,6.6,8.5,9.7c7.1-2,14.5-5.4,20.4-10.9L44.9,39.1
		C39.3,45,35.8,52.4,33.8,59.5z"/>
	<path fill="#2D2D2D" d="M31.4,60.3c-5-3.5-9.4-5.8-12.7-7.2c0.1,8.9,3.6,18.1,10.4,25.8C29.1,75.5,29.3,68.4,31.4,60.3z"/>
	<path fill="#2D2D2D" d="M31.4,81c3.7,0.2,11.2,0,19.4-2.1c-2.2-2.8-4.8-5.8-7.9-8.8c-3.4-3.3-6.6-6.1-9.7-8.4
		c-2,8.1-2.3,15.4-2.1,19.1c0,0.1,0,0.2,0,0.3C31.2,81,31.3,81,31.4,81z"/>
	<path fill="#2D2D2D" d="M90.4,26.4c0,3.4-0.3,10.6-2.4,18.6c4.7,3.3,8.9,5.6,12.2,7.1C100.1,42.9,96.8,33.8,90.4,26.4z"/>
	<path fill="#2D2D2D" d="M33.3,38c-0.6,0.7-1.5,1.2-2.4,1.2S29,38.8,28.4,38c-0.8-1.1-2-2.7-3.2-4.8c-4,5.3-6.1,11.4-6.4,17.7
		c0.1,0,0.2,0,0.2,0c3.4,1.4,7.9,3.7,13,7.2c2.1-7,5.6-14.4,11.5-20.5l-6-6C35.8,34.4,34.3,36.7,33.3,38z"/>
	<path fill="#2D2D2D" d="M31.7,36.8c3.8-4.8,11.6-19.2,11.6-24.4C43.3,5.6,37.7,0,30.8,0S18.3,5.6,18.3,12.4
		c0,5.2,7.8,19.5,11.6,24.4C30.4,37.3,31.3,37.3,31.7,36.8z M23.2,12.4c0-4.2,3.4-7.5,7.6-7.5s7.6,3.4,7.6,7.5s-3.4,7.5-7.6,7.5
		S23.2,16.5,23.2,12.4z"/>
	<path fill="#2D2D2D" d="M86.2,22.2c-7.4-6.4-16.7-9.6-26-9.5c1.3,2.9,3.6,7,7.1,11.8C75.5,22.5,82.8,22.2,86.2,22.2z"/>
	<path fill="#2D2D2D" d="M44.9,36.3c6.1-5.7,13.4-9.1,20.4-11.2c-3.7-5.1-6-9.5-7.2-12.3c-4.5,0.3-9,1.5-13.3,3.4c0,0-0.1,0-0.1,0
		c-1.2,4-3.7,9.2-6.2,13.6L44.9,36.3z"/>
	<path fill="#2D2D2D" d="M36.4,12.4c0-3.1-2.5-5.5-5.6-5.5s-5.6,2.5-5.6,5.5s2.5,5.5,5.6,5.5S36.4,15.4,36.4,12.4z"/>
	<path fill="#2D2D2D" d="M64.4,107.5c13.4-1,25.9-6.8,35.4-16.2c10.5-10.4,16.4-24.3,16.5-39c0.1-14.7-5.4-28.6-15.7-39.2
		c-0.8-0.8-2.2-0.8-3,0l-2.4,2.3c-0.8,0.8-0.8,2.1,0,2.9c18.2,18.8,17.9,49.2-0.7,67.7C85.3,95.2,73,100.2,60,100.2c0,0,0,0,0,0
		c-12.6,0-24.6-4.8-33.7-13.4c-0.8-0.8-2.2-0.8-3,0L21,89.1c-0.4,0.4-0.6,0.9-0.6,1.5c0,0.6,0.2,1.1,0.6,1.5
		c9.4,8.9,21.7,14.4,34.6,15.4c0,0,0.1,0,0.1,0.1v11.8h-5.6c-3,0-5.4,2.4-5.4,5.4v3.2h30.8v-3.2c0-3-2.4-5.4-5.4-5.4h-5.6
		L64.4,107.5C64.3,107.6,64.4,107.5,64.4,107.5z"/>
</g>
</svg>
