<?xml version="1.0" encoding="utf-8"?>
<!-- Generator: Adobe Illustrator 23.0.0, SVG Export Plug-In . SVG Version: 6.00 Build 0)  -->
<svg version="1.1" id="Layer_1" xmlns="http://www.w3.org/2000/svg" xmlns:xlink="http://www.w3.org/1999/xlink" x="0px" y="0px"
	 viewBox="0 0 128 128" 
width="128" height="128"
style="enable-background:new 0 0 128 128;" xml:space="preserve">
<style type="text/css">
	.st0{fill:#2D2D2D;}
</style>
<g>
	<path class="st0" d="M39.7,105.7c-0.1-0.1-0.2-0.2-0.2-0.2c-1.4-0.4-2.8-0.8-4.1-1.2c-0.6-0.2-1.2-0.4-1.8-0.6
		c-0.3,0.4-0.5,0.8-0.9,1.1c-0.4,0.4-0.8,0.8-1.3,1.2c-0.9,0.7-1.9,1.2-2.9,1.7c-0.4,0.2-0.6,0.6-0.8,1c-0.2,0.4-0.2,0.9-0.2,1.5
		c0,1.1,0.2,2.3,0.4,3.5l0,0.4l-0.2,0.2c-1.3,1.6-2.3,3.6-2.9,5.7c-0.1,0.2-0.1,0.4-0.2,0.6c0,0.1,0,0.2-0.1,0.3c0,0.1,0,0.1,0,0.2
		c0,0,0.1,0.1,0.1,0.2c0.2,0.5,0,1.1-0.3,1.6c0.1,0,0.2,0,0.2,0c0.2,0,0.5,0.1,0.7,0.3c0.1,0.3,0.2,0.6,0.1,1c0.1,0,0.3-0.1,0.4-0.2
		c1.7-1.1,3.3-2.5,4.8-4c0.7-0.7,1.5-1.5,2.2-2.3c0.7-0.8,1.5-1.6,2.1-2.3l0.2-0.3l0.2-0.1c0.7-0.3,1.5-0.6,2.2-1
		c0.8-0.4,1.5-0.8,2.3-1.2l4.1-2.3C43,109.1,41.6,107.6,39.7,105.7z"/>
	<path class="st0" d="M76.6,124.3l-0.8-0.3c-0.1-0.1-0.3-0.1-0.4-0.1c-0.1,0-0.3,0.1-0.4,0.2c-0.2,0.3-0.2,0.8-0.1,1l0.1,0.3
		c0,0,0.1,0,0.1,0c0.2,0.1,0.5,0.1,0.7,0.2l0.3,0.1c0.1,0,0.3,0.1,0.4,0.1c0.6,0.2,1,0.5,1.5,0.9c0.2,0.1,0.3,0.3,0.5,0.4
		c-0.2-0.3-0.3-0.5-0.5-0.8c-0.3-0.5-0.6-1-1-1.4C76.9,124.5,76.7,124.4,76.6,124.3z"/>
	<path class="st0" d="M69.3,125.7c0,0-0.2-0.1-0.3-0.1c-0.5,0.1-1.1,0.4-1.5,0.7c0.1,0.1,0.3,0.1,0.4,0.2c0.2,0.1,0.5,0.1,0.7,0.2
		l0.3,0.1c0.1,0,0.3,0.1,0.4,0.1c0.5,0.2,1,0.5,1.5,0.9c0.1,0.1,0.3,0.2,0.4,0.3c-0.1-0.2-0.3-0.4-0.4-0.6c-0.3-0.5-0.7-0.9-1-1.3
		C69.6,125.9,69.5,125.8,69.3,125.7z"/>
	<path class="st0" d="M76.8,121.1c0.1,0,0.2,0,0.3,0c0.6,0.1,1.1,0.4,1.6,0.7c0.1,0.1,0.3,0.1,0.4,0.2c-0.2-0.2-0.3-0.3-0.5-0.5
		c-0.4-0.4-0.8-0.8-1.2-1.2c-0.2-0.2-0.4-0.3-0.5-0.3c-0.1,0-0.3-0.1-0.4-0.1c-0.1,0-0.3-0.1-0.4-0.1c-0.2-0.1-0.4-0.1-0.6-0.1
		c0.2,0.1,0.3,0.2,0.4,0.4C76.3,120.4,76.6,120.8,76.8,121.1z"/>
	<path class="st0" d="M62.4,109.1c-0.7-1.8-1.2-2.9-1.5-3.5c-1.9,0.6-3.8,0.9-5.7,1.2c-2.2,0.2-4.5,0.3-6.7,0.2c-2-0.1-4-0.4-6-0.7
		c3.3,3.4,5.3,6,5.8,7.7c0.4,1,1,2.2,1.7,3.4c0.9,1.6,1.8,3.3,2.2,4.8c0.2,0.7,0.7,1.3,1.5,1.4c3.9,0.6,11.1,1.4,12.7,1.6
		c1.6-1.2,3.7-1.6,5.7-1.1c0.5,0.1,0.9,0.2,1.2,0.3c0.1-0.4,0.2-0.9,0.5-1.3c0.4-0.5,1-0.8,1.7-0.8c-0.1-0.2-0.4-0.5-0.7-0.9
		c-0.2-0.2-0.5-0.4-0.9-0.3c-1.7,0.2-1.9,0.1-2.1,0.1c-1.2-0.3-2.9-0.8-4.5-1.3c-1.4-0.4-2.7-0.8-3.4-1l-0.5-0.1l-0.1-0.5
		c-0.2-0.9-0.2-2.1-0.2-3.5C63,112.7,63,110.6,62.4,109.1L62.4,109.1z"/>
	<path class="st0" d="M23.4,122.5c0,0,0.1,0,0.1-0.1c0.1,0,0.1-0.1,0.2-0.1c0,0,0,0,0,0c0-0.2,0.1-0.4,0.1-0.6
		c-0.1,0.1-0.3,0.1-0.4,0.1c-0.1,0-0.3,0-0.4,0c-0.1,0.1-0.2,0.2-0.3,0.2c-0.4,0.3-0.9,0.4-1.3,0.5c0,0-0.1,0-0.1,0
		c0.1,0,0.2,0,0.3,0c0.5,0,0.9,0,1.3,0C23.1,122.6,23.3,122.6,23.4,122.5z"/>
	<path class="st0" d="M23.8,119.8c-0.1,0.1-0.2,0.2-0.3,0.3c0,0-0.1,0.1-0.1,0.1c-0.1,0-0.1,0.1-0.2,0.2c-0.2,0.2-0.5,0.2-0.7,0.3
		c0.2,0,0.5,0,0.7,0c0.1,0,0.2,0,0.3-0.1c0.1,0,0.2,0,0.3,0c0,0,0,0,0,0c0,0,0.1,0,0.1-0.1c0.1,0,0.2-0.1,0.2-0.1c0,0,0.1,0,0.1,0
		c0.1-0.3,0.1-0.5,0.2-0.8c0,0,0-0.1,0-0.1c-0.1,0-0.1,0-0.2,0C24.1,119.6,23.9,119.7,23.8,119.8z"/>
	<path class="st0" d="M19.8,98.9c-0.2-0.1-0.3-0.3-0.5-0.5c-0.2,2.5-0.6,5.1-1.3,7.6c-0.4,1.4-0.9,2.8-1.4,4.2
		c-0.6,1.4-1.3,2.7-2.1,3.9c-0.4,0.6-0.9,1.2-1.4,1.7c-0.5,0.5-1.1,1-1.7,1.5c-1.1,0.9-2.4,1.7-3.6,2.4c-1.3,0.7-2.6,1.2-4,1.5
		c-0.7,0.2-1.4,0.3-2.1,0.3l-1.1,0.1c-0.1,0-0.3,0-0.5,0c0.3,0.5,0.7,0.8,1.2,1c0.6,0.2,1.4,0.3,2.1,0.2c1.5-0.1,3-0.6,4.5-1.1
		c2.9-1,5.7-2.7,8.2-4.5c1.2-1,2.5-2,3.5-3.1c0.5-0.6,1-1.2,1.5-1.8c0.4-0.6,0.8-1.3,1.2-2c1.4-2.6,2.7-5.2,4-7.8
		c-1.3-0.4-2.5-0.9-3.6-1.6C21.6,100.3,20.7,99.7,19.8,98.9z"/>
	<path class="st0" d="M78.9,109.9c0.1,0,0.3,0,0.4,0.1c0,0,0,0,0,0l1,0.1c0.1,0,0.1,0,0.2,0c0.1,0,0.2,0,0.3-0.1
		c-0.1-0.1-0.2-0.2-0.4-0.3l-0.6-0.3c0,0,0,0-0.1,0c-0.5,0.1-0.9,0.2-1.5,0.2c-0.1,0-0.3,0-0.4,0c0.1,0,0.2,0.1,0.4,0.1
		C78.6,109.8,78.8,109.8,78.9,109.9z"/>
	<path class="st0" d="M105.9,81.4c0.1-0.4,0.1-0.8,0.1-1.2l0-0.6l0-0.1c0,0,0-0.1,0-0.1c0-0.1,0-0.1,0-0.2c0-0.1-0.1-0.2-0.2-0.3
		c-0.1,0-0.1-0.1-0.2-0.1l-0.3-0.1c-0.4-0.2-0.7-0.3-1.1-0.5c-0.4-0.2-0.9-0.5-1.3-0.7c-0.3,0.9-0.4,1.7-0.6,2.6
		c-0.2,0.9-0.3,1.8-0.5,2.7l0,0c0,0.1,0,0.2-0.1,0.2c0,0,0,0.1,0,0.1c0,0,0,0.1,0,0.1l0,0l-0.1,0.5l0,0.1c0,0.2-0.1,0.4-0.3,0.5
		c0.1,0.1,0.2,0.3,0.2,0.5c0,0,0,0.1,0,0.1c-0.1,0.6-0.1,1.1-0.2,1.6c0,0.3-0.3,0.4-0.5,0.4c-0.2,0-0.3-0.2-0.4-0.4l0-0.1
		c-0.1-0.5-0.1-1-0.1-1.5l0-0.1c0-0.2,0.1-0.4,0.2-0.5c-0.2-0.1-0.3-0.4-0.3-0.6l0-0.6c0-0.1,0-0.2,0.1-0.3c0-0.1,0-0.2,0-0.3
		c0.1-1,0.5-1.9,0.8-2.8c0.2-0.4,0.4-0.9,0.7-1.3c0.2-0.4,0.5-0.7,0.8-1c-0.9-0.5-1.8-1-2.8-1.5c-0.5-0.3-1-0.5-1.5-0.8
		c-0.2,0.4-0.3,0.8-0.4,1.3c-0.1,0.5-0.2,0.9-0.3,1.4c-0.2,0.9-0.4,1.8-0.6,2.7c0,0.2-0.1,0.3-0.2,0.4C97,80.9,97,81,97,81.2l0,0
		c0,0.3-0.1,0.6-0.2,0.9l0,0c-0.1,0.4-0.5,0.7-0.9,0.6c-0.4-0.1-0.7-0.5-0.6-0.9c0-0.3,0.1-0.7,0.2-1c0-0.2,0.1-0.3,0.2-0.4
		c0-0.1-0.1-0.3,0-0.4c0,0,0,0,0-0.1c0.3-0.9,0.6-1.8,1-2.7c0.2-0.4,0.4-0.9,0.7-1.3c0.2-0.4,0.5-0.8,0.9-1.1
		c-2.3-1.3-4.5-2.6-6.8-3.7c-0.2,0.9-0.4,1.8-0.5,2.7c-0.1,0.9-0.3,1.8-0.4,2.8c0,0.2-0.2,0.4-0.4,0.5c0.2,0.2,0.3,0.4,0.2,0.6l0,0
		c0,0.4-0.1,0.9-0.1,1.3l0,0c-0.1,0.4-0.4,0.7-0.9,0.7c-0.4-0.1-0.7-0.4-0.6-0.9c0-0.4,0.1-0.9,0.2-1.3c0-0.3,0.2-0.5,0.4-0.6
		c-0.1-0.1-0.2-0.3-0.2-0.6c0,0,0-0.1,0-0.1c0.2-0.9,0.5-1.9,0.8-2.8c0.2-0.5,0.4-0.9,0.6-1.3c0.2-0.4,0.4-0.8,0.7-1.2
		c-1.9-1.3-4-2.3-6.2-3.1c-0.3,1.8-0.6,3.6-1,5.3l0,0C84,73.8,83.7,74,83.4,74c0.3,0.1,0.5,0.5,0.4,0.8l0,0l-0.3,1.5l0,0
		c-0.1,0.4-0.5,0.7-0.9,0.6c-0.4-0.1-0.7-0.5-0.6-0.9c0,0,0,0,0,0l0.4-1.6c0.1-0.4,0.4-0.6,0.8-0.6c-0.3-0.1-0.5-0.4-0.4-0.8
		c0,0,0-0.1,0-0.1c0.6-1.7,1.3-3.4,2.1-5c0,0,0,0-0.1,0c-1.1-0.4-2.3-0.8-3.5-1.1c-0.9-0.3-1.8-0.5-2.7-0.7
		c-0.2,0.9-0.3,1.8-0.5,2.7c-0.1,0.9-0.3,1.9-0.4,2.8c0,0.4-0.4,0.6-0.7,0.6c-0.3,0-0.6-0.4-0.5-0.7c0,0,0-0.1,0-0.1
		c0.2-0.9,0.5-1.8,0.8-2.8c0.2-0.4,0.3-0.9,0.5-1.3c0.2-0.4,0.4-0.8,0.6-1.2c-0.2,0-0.4-0.1-0.6-0.1l0,0c-2.2-0.6-4.4-1-6.7-1.3
		c-0.2,0.9-0.4,1.8-0.5,2.7c-0.1,0.9-0.1,1.8-0.1,2.8c0,0.4-0.3,0.7-0.6,0.7c-0.4,0-0.6-0.3-0.7-0.6c0,0,0-0.1,0-0.1
		c0.1-1,0.3-1.9,0.5-2.9c0.3-0.9,0.7-1.7,1.1-2.5c-0.5-0.1-1-0.1-1.5-0.2c-1.6-0.2-3.2-0.3-4.8-0.4c-0.1,1.8-0.4,3.6-0.6,5.3l0,0
		C64,69.8,63.7,70,63.3,70c-0.3-0.1-0.6-0.4-0.5-0.7c0,0,0,0,0-0.1c0.5-1.7,1-3.4,1.6-5.1C63.3,64,62.1,64,61,64c-0.7,0-1.4,0-2.1,0
		c-0.4,0-0.9,0-1.3,0.1c0,0.4-0.1,0.9-0.1,1.3c-0.1,0.5-0.1,0.9-0.2,1.4l-0.5,2.8l0,0c-0.1,0.3-0.4,0.6-0.7,0.5
		c-0.3-0.1-0.5-0.4-0.5-0.7c0,0,0,0,0-0.1c0.3-0.9,0.6-1.8,0.9-2.7c0.3-0.8,0.6-1.6,0.9-2.5c-0.2,0-0.4,0-0.6,0.1
		c-0.7,0.1-1.4,0.2-2.1,0.3c-0.7,0.1-1.4,0.2-2.1,0.4c-0.7,0.2-1.4,0.3-2.1,0.5c0,0.3-0.1,0.7-0.1,1c-0.1,0.9-0.1,1.9-0.1,2.8
		c0,0.3-0.3,0.6-0.6,0.6s-0.6-0.3-0.6-0.6c0,0,0,0,0-0.1c0.1-1,0.3-1.9,0.6-2.8c0.1-0.2,0.2-0.5,0.2-0.7c-1.8,0.5-3.6,1.1-5.4,1.8
		c-0.1,0.1-0.3,0.1-0.4,0.2c-0.1,0.7-0.2,1.4-0.3,2.1c-0.1,0.9-0.1,1.8-0.1,2.8c0,0.3-0.3,0.6-0.6,0.6c-0.3,0-0.6-0.3-0.6-0.6
		c0,0,0-0.1,0-0.1c0.1-1,0.3-1.9,0.5-2.9c0.2-0.6,0.4-1.2,0.6-1.7c-2.4,0.9-4.7,2-7,3.2c0,0.3,0,0.6-0.1,0.9c0,0.5-0.1,0.9-0.1,1.4
		c-0.1,0.9-0.1,1.8,0,2.7c0,0.4-0.3,0.7-0.6,0.7c-0.4,0-0.7-0.3-0.7-0.6c0,0,0-0.1,0-0.1c0.1-1,0.2-2,0.5-2.9
		c0.1-0.5,0.3-0.9,0.4-1.4l0.2-0.5c-2,1-3.9,2.1-5.8,3.3c0,0.2,0,0.3,0,0.5c0,0.5-0.1,0.9-0.1,1.4c0,0.9,0.1,1.8,0.3,2.7
		c0,0.2,0,0.4-0.1,0.5c0.2,0.1,0.3,0.2,0.3,0.4l0,0l0.4,1.2c0.1,0.4-0.1,0.9-0.5,1c-0.4,0.1-0.8-0.1-1-0.5c0,0,0,0,0,0l0,0
		c-0.1-0.2-0.1-0.4-0.2-0.6l-0.2-0.6c-0.1-0.2,0-0.5,0.1-0.6c-0.1-0.1-0.3-0.3-0.3-0.4c0,0,0-0.1,0-0.1c-0.1-1-0.1-2,0.1-3
		c0.1-0.5,0.2-0.9,0.4-1.4c-0.2,0.1-0.4,0.2-0.6,0.3c-2.5,1.5-4.5,3.6-6.1,6.1c0,0.2,0,0.4,0,0.6c0.1,0.9,0.4,1.7,0.7,2.5
		c0.1,0.1,0.1,0.2,0.1,0.4c0.1,0.1,0.2,0.2,0.3,0.3c0.1,0.3,0.2,0.6,0.3,0.9c0.1,0.4-0.1,0.8-0.5,1c-0.4,0.1-0.8-0.1-0.9-0.4l0-0.1
		c-0.1-0.2-0.2-0.5-0.3-0.7l0-0.1c0-0.1,0-0.2,0-0.3c-0.1-0.1-0.2-0.2-0.2-0.3c0,0,0,0,0-0.1c-0.2-0.6-0.3-1.2-0.4-1.8
		c-0.9,1.8-1.6,3.8-2,5.8l-0.1,0.3L20,89.4l-0.2,0.4c-0.1,0.3-0.2,0.5-0.4,0.8c-0.2,0.5-0.4,1-0.5,1.6c-0.1,0.5-0.1,1.1,0,1.7
		c0,0.3,0.1,0.5,0.1,0.8c0,0.2,0.1,0.4,0.2,0.6c0.3,0.9,0.9,1.6,1.7,2.3c0.8,0.7,1.7,1.3,2.6,1.9c0.3,0.2,0.7,0.4,1,0.6c0,0,0,0,0,0
		c-0.2-0.4-0.4-0.9-0.6-1.4c-0.2-0.5-0.3-0.9-0.3-1.4c0-0.3,0.2-0.7,0.5-0.7c0.3,0,0.6,0.2,0.7,0.4l0,0c0.1,0.4,0.2,0.9,0.3,1.3
		c0.1,0.4,0.2,0.9,0.4,1.3c0.1,0.4,0.2,0.7,0.4,1c1.1,0.4,2.3,0.6,3.5,0.7c0.5,0,1.1,0.1,1.6,0.1l0.5,0c-0.3-0.4-0.5-0.8-0.7-1.3
		c-0.2-0.5-0.3-0.9-0.5-1.4c-0.1-0.5-0.2-1-0.3-1.4c-0.1-0.4,0.2-0.7,0.5-0.8c0.3-0.1,0.7,0.2,0.7,0.5c0,0,0,0,0,0l0,0
		c0.1,0.5,0.1,0.9,0.2,1.4c0.1,0.4,0.2,0.9,0.3,1.3c0.1,0.4,0.2,0.9,0.3,1.3c0,0.1,0.1,0.2,0.1,0.3c0,0,0.1,0,0.1,0l0.5,0.1
		c1.2,0.3,2.2,0.7,3.2,1c0.9,0.3,1.8,0.6,2.7,0.8c-0.1-0.1-0.2-0.1-0.2-0.2c-0.4-0.3-0.7-0.7-1-1.1c-0.3-0.4-0.5-0.8-0.7-1.3
		c-0.2-0.4-0.4-0.9-0.5-1.4c-0.1-0.3,0.1-0.7,0.4-0.8c0.3-0.1,0.7,0.1,0.8,0.4c0,0,0,0,0,0l0,0c0.1,0.4,0.2,0.9,0.4,1.3
		c0.2,0.4,0.3,0.8,0.5,1.2c0.3,0.7,0.7,1.4,1.3,2c1.7,0.4,3.5,0.8,5.3,1c-0.1-0.1-0.2-0.2-0.3-0.3c-0.3-0.4-0.5-0.8-0.7-1.3
		c-0.2-0.4-0.4-0.9-0.5-1.4c-0.1-0.5-0.3-0.9-0.4-1.4c-0.1-0.3,0.1-0.7,0.4-0.7c0.3-0.1,0.6,0.1,0.7,0.4c0,0,0,0,0,0.1l0,0
		c0.1,0.5,0.1,0.9,0.2,1.4c0.1,0.5,0.2,0.9,0.3,1.3c0.1,0.4,0.2,0.9,0.4,1.3c0.1,0.2,0.2,0.5,0.3,0.7c1.1,0.1,2.2,0.2,3.3,0.3
		c1,0.1,2,0.1,3,0c-0.2-0.2-0.4-0.5-0.6-0.8c-0.3-0.4-0.5-0.8-0.7-1.3c-0.2-0.4-0.4-0.9-0.5-1.4c-0.1-0.5-0.3-0.9-0.4-1.4
		c-0.1-0.3,0.1-0.6,0.4-0.7c0.3-0.1,0.6,0.1,0.7,0.4c0,0,0,0,0,0l0,0c0.1,0.9,0.3,1.8,0.5,2.7c0.1,0.4,0.2,0.9,0.4,1.3
		c0.1,0.3,0.3,0.7,0.5,1c1,0,2-0.1,3.1-0.2c1.3-0.1,2.5-0.4,3.7-0.7c-0.2-0.2-0.3-0.4-0.5-0.6c-0.3-0.4-0.5-0.8-0.7-1.3
		c-0.2-0.4-0.4-0.9-0.6-1.3c-0.2-0.5-0.3-0.9-0.4-1.4c-0.1-0.3,0.1-0.6,0.4-0.7c0.3-0.1,0.6,0.1,0.7,0.4c0,0,0,0,0,0.1l0,0
		c0.2,0.9,0.4,1.8,0.6,2.7c0.2,0.7,0.5,1.4,0.8,2.1c0.7-0.2,1.4-0.4,2.1-0.6c1.1-0.6,2.3-1.1,3.5-1.5c-0.3-0.6-0.6-1.3-0.8-2
		C63.5,99,63.3,98,63.1,97c0-0.3,0.2-0.6,0.5-0.7c0.3-0.1,0.6,0.2,0.7,0.5c0,0,0,0,0,0l0,0c0.1,1.6,0.4,3.2,0.7,4.8
		c0.2-0.1,0.5-0.2,0.7-0.2c1.6-0.5,3.2-0.9,4.7-1.3c0.1,0,0.3-0.1,0.4-0.1c-0.2-0.8-0.4-1.6-0.6-2.4c-0.2-0.9-0.4-1.9-0.5-2.8
		c-0.1-0.3,0.2-0.7,0.5-0.7c0.3-0.1,0.6,0.2,0.7,0.5c0,0,0,0,0,0l0,0c0.1,0.9,0.1,1.9,0.2,2.8c0,0.8,0,1.6,0,2.5
		c0.2,0,0.4-0.1,0.6-0.1c0.4,0,0.9-0.1,1.3-0.1c0.9,0,1.7,0,2.5,0.1c0.1,0,0.2,0,0.3,0c-0.3-1.2-0.6-2.4-0.7-3.6
		c0-0.3,0.2-0.6,0.5-0.7c0.3,0,0.6,0.2,0.7,0.6c0,0,0,0,0,0.1c0,0.9,0.1,1.9,0.1,2.8c0,0.3,0,0.6,0.1,0.9c1.3,0.1,2.5,0.3,3.8,0.5
		c1,0.2,2,0.3,3,0.5c-0.3-0.6-0.5-1.1-0.7-1.7c-0.3-0.9-0.5-1.9-0.5-2.9c0-0.3,0.2-0.6,0.6-0.7c0.3,0,0.6,0.3,0.6,0.6c0,0,0,0,0,0v0
		c0,0.4,0,0.9,0,1.3c0,0.5,0.1,0.9,0.1,1.4c0.1,0.7,0.2,1.3,0.3,2c0.4,0.1,0.8,0.1,1.2,0.1c0.8,0.1,1.5,0.1,2.3,0.1
		c0.8,0,1.5-0.1,2.3-0.2c0,0,0.1,0,0.1,0c-0.1-0.2-0.2-0.5-0.3-0.8c-0.2-0.4-0.3-0.9-0.5-1.4c-0.3-0.9-0.4-1.9-0.5-2.9
		c0-0.4,0.2-0.7,0.6-0.7c0.3,0,0.6,0.2,0.7,0.6c0,0,0,0,0,0c0,0.9,0.1,1.8,0.2,2.8l0.2,1.4l0.1,0.9c1.7-0.3,3.5-0.8,5.1-1.5
		c-0.3-0.6-0.5-1.3-0.7-2c-0.2-1-0.3-2-0.2-2.9c0-0.4,0.3-0.6,0.7-0.6c0.3,0,0.6,0.3,0.6,0.7c0,0.9,0,1.8,0,2.7
		c0,0.6,0.1,1.3,0.1,1.9c0.9-0.4,1.8-0.8,2.6-1.3c0.7-0.4,1.3-0.8,1.9-1.3c0.1-0.1,0.2-0.2,0.3-0.3c-0.5-0.7-0.8-1.5-0.9-2.4
		c-0.1-0.5-0.1-1-0.1-1.5c0-0.5,0.1-1,0.3-1.5c0.1-0.3,0.4-0.4,0.6-0.3c0.2,0.1,0.3,0.3,0.4,0.5v0c0,0.5,0,0.9,0,1.4
		c0,0.4,0,0.9,0,1.3c0,0.7,0.1,1.4,0.1,2.2c0.4-0.3,0.7-0.6,1-1c0.4-0.5,0.8-1.3,1.1-2c0.3-0.7,0.6-1.5,0.8-2.3
		C104.7,87.9,105.5,84.6,105.9,81.4z M24,95.1c-0.2,0-0.3-0.1-0.4-0.3c0,0,0-0.1,0-0.1c0.1-0.6,0.2-1.1,0.2-1.7
		c0-0.1,0.1-0.2,0.2-0.2c0.1,0,0.2,0.1,0.2,0.2c0,0,0,0,0,0l0,0c0,0.6,0,1.1,0,1.7l0,0C24.3,94.9,24.2,95.1,24,95.1z M24.5,91.4
		c0,0.3-0.1,0.5-0.1,0.8c0,0.1-0.1,0.2-0.3,0.2c-0.1,0-0.2-0.1-0.2-0.3c0-0.3,0-0.5,0-0.8c0-0.2,0.1-0.3,0.3-0.3
		C24.4,91,24.5,91.2,24.5,91.4C24.5,91.4,24.5,91.4,24.5,91.4z M24.8,90.1c-0.1,0.3-0.3,0.4-0.6,0.4c-0.2,0-0.4-0.2-0.4-0.4
		c-0.1-0.8-0.1-1.5-0.2-2.2c-0.1-0.4,0.2-0.7,0.5-0.8c0.4-0.1,0.7,0.2,0.8,0.6c0,0,0,0,0,0.1l0,0C25,88.5,24.9,89.3,24.8,90.1z
		 M30.4,94.3c-0.2,0-0.4-0.2-0.5-0.4c0,0,0-0.1,0-0.1c0.2-0.8,0.3-1.7,0.3-2.5c0-0.1,0.1-0.2,0.2-0.2c0.1,0,0.2,0.1,0.2,0.2l0,0
		c0,0.8,0,1.6,0.1,2.4l0,0C30.8,94.1,30.6,94.3,30.4,94.3z M31.1,89.1c-0.1,0.4-0.1,0.7-0.2,1.1c0,0.1-0.1,0.2-0.3,0.2
		c-0.1,0-0.2-0.1-0.2-0.3c0-0.4,0.1-0.7,0.1-1.1c0-0.2,0.1-0.3,0.3-0.3C31,88.7,31.1,88.8,31.1,89.1C31.1,89,31.1,89,31.1,89.1z
		 M31.5,87.2c-0.1,0.3-0.3,0.5-0.6,0.4c-0.2,0-0.4-0.3-0.4-0.5c0-1.1,0-2.2-0.2-3.2c-0.1-0.4,0.2-0.8,0.6-0.8
		c0.4-0.1,0.7,0.2,0.8,0.6c0,0,0,0,0,0.1l0,0C31.7,84.9,31.7,86.1,31.5,87.2z M35.2,79.1C35.2,79.1,35.2,79,35.2,79.1
		c-0.1-0.6-0.1-1.1-0.1-1.7c0-0.4,0.3-0.8,0.7-0.8c0.4,0,0.7,0.2,0.8,0.6l0,0.1c0.1,0.5,0.1,1,0.2,1.5l0,0c0.1,0.4-0.2,0.8-0.6,0.9
		C35.7,79.8,35.3,79.5,35.2,79.1z M36.2,95.5c-0.3,0-0.5-0.2-0.5-0.4c0,0,0-0.1,0-0.1l0,0c0.1-1.1,0.2-2.1,0.3-3.2
		c0-0.1,0.1-0.2,0.3-0.2c0.1,0,0.2,0.1,0.2,0.2c-0.1,1,0,2.1,0.2,3.1C36.7,95.2,36.5,95.4,36.2,95.5z M36.8,88.8
		c-0.1,0.5-0.1,1-0.2,1.4c0,0.1-0.1,0.2-0.2,0.2c-0.1,0-0.2-0.1-0.2-0.2l0,0c0-0.5,0-0.9,0-1.4v0c0-0.2,0.1-0.3,0.3-0.3
		C36.6,88.4,36.8,88.6,36.8,88.8C36.8,88.8,36.8,88.8,36.8,88.8z M37,86.3c0,0.3-0.2,0.5-0.5,0.5c-0.2,0-0.4-0.2-0.5-0.4l0,0
		c-0.2-1.4-0.3-2.8-0.4-4.2l0-0.1c0-0.4,0.3-0.8,0.6-0.8c0.4,0,0.7,0.3,0.8,0.7c0,0,0,0,0,0.1C37.1,83.4,37.1,84.9,37,86.3z
		 M42.3,76c0-0.6,0-1.3,0-1.9c0-0.4,0.3-0.7,0.7-0.7c0.4,0,0.6,0.3,0.7,0.6l0,0c0.1,0.6,0.1,1.2,0.1,1.8l0,0c0,0.4-0.3,0.8-0.7,0.8
		C42.7,76.8,42.4,76.5,42.3,76C42.3,76,42.3,76,42.3,76z M43.1,95.6c-0.3,0-0.5-0.2-0.6-0.5c0,0,0-0.1,0-0.1
		c0.1-1.3,0.3-2.5,0.4-3.8c0-0.1,0.1-0.2,0.2-0.2c0.1,0,0.2,0.1,0.2,0.2v0c0,1.2,0.1,2.5,0.2,3.7l0,0.1
		C43.6,95.3,43.3,95.6,43.1,95.6z M43.7,87.7c-0.1,0.6-0.1,1.1-0.2,1.7c0,0.1-0.1,0.2-0.2,0.2c-0.1,0-0.2-0.1-0.2-0.2l0,0
		c0-0.6,0-1.1,0-1.7v0c0-0.2,0.1-0.3,0.3-0.3S43.7,87.5,43.7,87.7C43.7,87.7,43.7,87.7,43.7,87.7z M44,84.8c0,0.3-0.3,0.5-0.5,0.5
		c-0.2,0-0.4-0.2-0.5-0.5l0,0c-0.2-1.7-0.3-3.4-0.4-5.1l0,0c0-0.4,0.3-0.8,0.7-0.8c0.4,0,0.7,0.3,0.8,0.7c0,0,0,0,0,0.1
		C44.1,81.3,44.1,83.1,44,84.8z M48.9,73.2c0-0.7,0-1.4,0-2.1c0-0.4,0.3-0.7,0.7-0.7c0.3,0,0.6,0.3,0.7,0.6l0,0
		c0.1,0.7,0.1,1.4,0.1,2l0,0c0,0.4-0.3,0.8-0.7,0.8C49.3,74,48.9,73.7,48.9,73.2C48.9,73.2,48.9,73.2,48.9,73.2z M49.6,95
		c-0.3,0-0.6-0.2-0.6-0.5c0,0,0-0.1,0-0.1c0.1-1.4,0.3-2.8,0.4-4.2c0-0.1,0.1-0.2,0.3-0.2c0.1,0,0.2,0.1,0.2,0.2v0
		c0,1.4,0.1,2.8,0.2,4.1l0,0.1C50.1,94.7,49.9,95,49.6,95z M50.3,86.3c-0.1,0.6-0.1,1.3-0.2,1.9c0,0.1-0.1,0.2-0.2,0.2
		c-0.1,0-0.2-0.1-0.2-0.2l0,0c0-0.6,0-1.3,0.1-1.9v0c0-0.2,0.1-0.3,0.3-0.3C50.1,85.9,50.3,86.1,50.3,86.3
		C50.3,86.2,50.3,86.2,50.3,86.3z M50.6,83c0,0.3-0.3,0.5-0.5,0.5c-0.3,0-0.5-0.2-0.5-0.5l0,0c-0.2-1.9-0.3-3.8-0.4-5.6l0,0
		c0-0.4,0.3-0.8,0.7-0.8s0.7,0.3,0.8,0.7c0,0,0,0,0,0C50.6,79.2,50.7,81.1,50.6,83z M54.7,73.2c0.1-0.7,0.2-1.4,0.4-2
		c0.1-0.4,0.4-0.6,0.8-0.5c0.3,0.1,0.6,0.4,0.5,0.7l0,0.1c-0.1,0.7-0.1,1.3-0.2,2l0,0.1c-0.1,0.4-0.4,0.7-0.8,0.7
		C54.9,74,54.6,73.7,54.7,73.2C54.7,73.2,54.7,73.2,54.7,73.2z M55.3,82.9c-0.3-1.8-0.4-3.7-0.6-5.5c0-0.4,0.2-0.8,0.6-0.8
		c0.4,0,0.8,0.2,0.8,0.7c0,0,0,0,0,0l0,0c0.1,1.8,0.2,3.7,0.2,5.5v0c0,0.3-0.2,0.5-0.5,0.5C55.5,83.3,55.3,83.1,55.3,82.9z M55.8,86
		c0-0.2,0.1-0.3,0.2-0.3c0.2,0,0.3,0.1,0.3,0.2c0,0,0,0,0,0c0,0.6,0,1.2,0.1,1.8c0,0.1-0.1,0.2-0.2,0.2c-0.1,0-0.2-0.1-0.2-0.2l0,0
		C55.9,87.2,55.9,86.6,55.8,86L55.8,86z M56.6,94.5c-0.3,0-0.6-0.2-0.6-0.5c0,0,0-0.1,0-0.1l0,0c0.1-1.3,0.2-2.7,0.2-4.1v0
		c0-0.1,0.1-0.2,0.2-0.2c0.1,0,0.2,0.1,0.2,0.2c0.1,1.4,0.3,2.7,0.4,4.1C57.1,94.2,56.9,94.4,56.6,94.5z M62.1,72.7
		c0.1-0.6,0.2-1.3,0.3-1.9c0.1-0.4,0.4-0.6,0.8-0.6c0.3,0.1,0.6,0.4,0.6,0.8l0,0c-0.1,0.6-0.1,1.2-0.2,1.8l0,0
		c0,0.4-0.4,0.7-0.8,0.7C62.4,73.6,62.1,73.2,62.1,72.7C62.1,72.8,62.1,72.8,62.1,72.7z M62.4,81.7l-0.2-1.3
		c-0.1-0.4-0.1-0.9-0.1-1.3l-0.2-2.6c0-0.4,0.3-0.8,0.7-0.8c0.4,0,0.7,0.3,0.8,0.7c0,0,0,0,0,0l0,0.1l0,2.5c0,0.4,0,0.8,0,1.3l0,1.3
		l0,0c0,0.3-0.2,0.5-0.5,0.5C62.7,82.2,62.5,82,62.4,81.7z M63,84.6c0-0.2,0.1-0.3,0.2-0.4c0.2,0,0.3,0.1,0.3,0.2c0,0,0,0,0,0
		c0,0.6,0.1,1.1,0.2,1.7c0,0.1-0.1,0.2-0.2,0.3c-0.1,0-0.2-0.1-0.2-0.2l0,0C63.2,85.7,63.1,85.2,63,84.6z M63.8,92.5
		c-0.3,0-0.5-0.2-0.6-0.5c0,0,0-0.1,0-0.1l0,0c0.1-1.2,0.2-2.5,0.2-3.7l0,0c0-0.1,0.1-0.2,0.2-0.2c0.1,0,0.2,0.1,0.2,0.2
		c0.1,1.3,0.2,2.5,0.3,3.8C64.3,92.2,64.1,92.4,63.8,92.5z M69.2,73.3l0-1.7c0-0.4,0.3-0.7,0.7-0.7c0.4,0,0.7,0.3,0.7,0.7l0,0
		l0.1,1.6l0,0c0,0.4-0.3,0.8-0.7,0.8C69.6,74.1,69.2,73.8,69.2,73.3C69.2,73.3,69.2,73.3,69.2,73.3z M70,90.9
		c-0.3,0-0.5-0.2-0.6-0.4c0,0,0-0.1,0-0.1c0.1-1.1,0.2-2.3,0.2-3.4c0-0.1,0.1-0.2,0.2-0.2c0.1,0,0.2,0.1,0.2,0.2l0,0
		c0.1,1.1,0.2,2.2,0.4,3.3l0,0C70.4,90.6,70.2,90.8,70,90.9z M69.6,85.3c0-0.5,0-1,0-1.5c0-0.2,0.1-0.3,0.3-0.3
		c0.2,0,0.3,0.1,0.3,0.3c0,0,0,0,0,0c-0.1,0.5-0.1,1-0.1,1.5l0,0c0,0.1-0.1,0.2-0.2,0.2C69.7,85.5,69.6,85.4,69.6,85.3z M70.8,76.6
		c-0.1,1.5-0.1,3.1-0.3,4.6c0,0.3-0.3,0.5-0.5,0.5c-0.2,0-0.4-0.2-0.4-0.5l0,0c-0.1-1.5-0.1-3-0.2-4.5l0,0c0-0.4,0.3-0.8,0.7-0.8
		C70.4,75.8,70.8,76.1,70.8,76.6C70.8,76.6,70.8,76.6,70.8,76.6z M76.3,88.5c-0.1,1.1,0,2.2,0,3.4v0c0,0.3-0.2,0.5-0.5,0.5
		c-0.3,0-0.5-0.2-0.5-0.5c0,0,0-0.1,0-0.1c0.2-1.1,0.4-2.2,0.6-3.3c0-0.1,0.1-0.2,0.3-0.2C76.2,88.2,76.3,88.3,76.3,88.5L76.3,88.5z
		 M76.7,85.3c-0.1,0.5-0.1,1-0.2,1.5c0,0.1-0.1,0.2-0.2,0.2c-0.1,0-0.2-0.1-0.2-0.2v0c0-0.5,0.1-1,0.1-1.5v0c0-0.2,0.1-0.3,0.3-0.3
		C76.5,84.9,76.7,85.1,76.7,85.3C76.7,85.2,76.7,85.3,76.7,85.3z M77.1,78l0,2.3c0,0.8,0,1.6-0.1,2.3c0,0.3-0.3,0.5-0.5,0.5
		c-0.2,0-0.4-0.2-0.5-0.5l0,0c-0.1-0.8-0.1-1.5-0.2-2.3L75.7,78c0-0.4,0.3-0.8,0.7-0.8C76.8,77.2,77.1,77.5,77.1,78
		C77.1,78,77.1,78,77.1,78L77.1,78z M77.6,73.1l-0.2,1.6l0,0c0,0.4-0.4,0.7-0.8,0.7c-0.4,0-0.7-0.4-0.7-0.9c0,0,0,0,0,0l0.3-1.7
		c0.1-0.4,0.4-0.7,0.8-0.6C77.4,72.4,77.6,72.7,77.6,73.1L77.6,73.1z M82.1,83.6c-0.1-0.7-0.2-1.4-0.2-2.2l-0.1-2.2
		c0-0.4,0.3-0.8,0.7-0.8c0.4,0,0.7,0.3,0.7,0.7c0,0,0,0,0,0.1l0,0.1l-0.1,2.1c0,0.3,0,0.7,0,1.1l0,1.1l0,0c0,0.3-0.2,0.5-0.5,0.5
		C82.4,84.1,82.2,83.9,82.1,83.6z M83.2,87.4c0,0.1-0.1,0.2-0.2,0.3c-0.1,0-0.2-0.1-0.2-0.2l0,0c-0.1-0.5-0.1-0.9-0.2-1.4
		c0-0.2,0.1-0.3,0.2-0.4c0.2,0,0.3,0.1,0.3,0.2c0,0,0,0,0,0C83.2,86.5,83.2,86.9,83.2,87.4z M83.1,92.7c-0.3,0-0.5-0.2-0.5-0.5
		c0,0,0-0.1,0-0.1l0,0c0.1-1,0.3-2.1,0.3-3.1l0,0c0-0.1,0.1-0.2,0.2-0.2c0.1,0,0.2,0.1,0.2,0.2c0,1.1,0.1,2.1,0.2,3.2
		C83.5,92.5,83.3,92.7,83.1,92.7z M89.5,89.9c-0.1,0.9-0.1,1.8,0,2.6l0,0c0,0.3-0.2,0.5-0.4,0.5c-0.2,0-0.4-0.2-0.5-0.4
		c0,0,0-0.1,0-0.1c0.2-0.9,0.4-1.7,0.5-2.6c0-0.1,0.1-0.2,0.2-0.2C89.4,89.7,89.5,89.8,89.5,89.9L89.5,89.9z M89.8,87.4
		c-0.1,0.4-0.1,0.8-0.2,1.2c0,0.1-0.1,0.2-0.3,0.2c-0.1,0-0.2-0.1-0.2-0.2v0c0-0.4,0-0.8,0-1.2v0c0-0.2,0.1-0.3,0.3-0.3
		C89.7,87.1,89.8,87.2,89.8,87.4C89.8,87.4,89.8,87.4,89.8,87.4z M90.1,85.4c0,0.3-0.3,0.5-0.5,0.4c-0.2,0-0.4-0.2-0.4-0.5l-0.2-1.8
		l-0.2-1.8c0-0.4,0.2-0.8,0.6-0.8c0.4,0,0.7,0.2,0.8,0.6c0,0,0,0,0,0.1l0,0l0,0.4l0,0.5c0,0.3,0,0.6,0,0.9
		C90.2,84.1,90.2,84.8,90.1,85.4z M95.5,92L95.5,92c0,0.2-0.2,0.4-0.4,0.4s-0.4-0.2-0.3-0.4c0,0,0-0.1,0-0.1
		c0.2-0.6,0.4-1.3,0.5-1.9c0-0.1,0.1-0.2,0.2-0.2c0.1,0,0.2,0.1,0.2,0.3C95.6,90.7,95.5,91.4,95.5,92z M96.1,88.2
		c-0.1,0.3-0.1,0.6-0.2,0.9c0,0.1-0.2,0.2-0.3,0.2c-0.1,0-0.2-0.1-0.2-0.3l0,0c0-0.3,0.1-0.6,0.1-0.9l0,0c0-0.2,0.2-0.3,0.3-0.3
		S96.1,88,96.1,88.2C96.1,88.2,96.1,88.2,96.1,88.2z M96.4,86.7c-0.1,0.3-0.3,0.4-0.6,0.4c-0.2,0-0.4-0.2-0.4-0.5
		c0-0.9-0.1-1.7-0.2-2.6c0-0.4,0.2-0.7,0.6-0.8s0.7,0.2,0.8,0.6c0,0,0,0,0,0.1C96.7,84.9,96.6,85.8,96.4,86.7z M100.9,88.5
		c-0.1,0.4-0.1,0.8-0.2,1.2c0,0.1-0.1,0.3-0.3,0.2c-0.1,0-0.2-0.1-0.2-0.3c0,0,0,0,0-0.1c0.1-0.4,0.2-0.8,0.2-1.1l0,0
		c0-0.1,0.1-0.2,0.3-0.2C100.9,88.2,100.9,88.3,100.9,88.5C100.9,88.5,100.9,88.5,100.9,88.5z M101.2,87.4c0,0.2-0.1,0.3-0.1,0.5
		c0,0.1-0.2,0.2-0.3,0.2c-0.1,0-0.2-0.1-0.2-0.3l0,0c0-0.2,0-0.4,0-0.5v0c0-0.2,0.2-0.3,0.3-0.3C101.1,87,101.2,87.1,101.2,87.4
		C101.2,87.3,101.2,87.4,101.2,87.4z"/>
	<path class="st0" d="M23.6,124.1c-0.1,0.1-0.2,0.2-0.3,0.3c-0.4,0.3-0.9,0.5-1.3,0.7c-0.1,0-0.1,0.1-0.2,0.1c0.1,0,0.2,0,0.3,0
		c0.5,0,1-0.1,1.4-0.2c0.2-0.1,0.4-0.1,0.5-0.2c0,0,0,0,0,0c-0.2-0.2-0.3-0.4-0.4-0.7C23.7,124,23.7,124,23.6,124.1z"/>
	<path class="st0" d="M125.6,96.1c-0.3-0.4-0.6-0.8-0.9-1.1l-0.5-0.5c-0.2-0.2-0.3-0.4-0.5-0.6c-0.6-0.8-1.1-1.7-1.6-2.5
		c-0.5-0.8-1.2-1.6-1.9-2.2c-0.7-0.7-1.4-1.3-2-2.1l-0.5-0.6c-0.1-0.2-0.3-0.3-0.4-0.5c-0.3-0.4-0.6-0.7-1-1
		c-0.6-0.6-1.3-1.2-1.9-1.8c-0.3,1-0.8,1.9-1.3,2.7c0.2-1.6,0.5-3.1,0.4-4.5c0-0.3-0.1-0.7-0.2-0.9c-0.1-0.3-0.2-0.4-0.3-0.5
		c-0.1-0.1-0.3-0.1-0.6-0.1c-0.2,0-0.4,0.1-0.6,0.3c-0.5,0.3-0.9,0.9-1.3,1.4c-0.2,0.3-0.4,0.6-0.6,0.9l-0.3,0.5
		c-0.1,0.1-0.1,0.3-0.2,0.4c-0.2,0.6-0.3,1.3-0.2,2c0,0.4,0.2,0.7,0.3,1.1c0.1,0.4,0.2,0.8,0.3,1.1c-0.3-0.3-0.5-0.6-0.7-0.9
		c-0.2-0.3-0.5-0.7-0.6-1c-0.3-0.8-0.4-1.7-0.3-2.6c0-0.2,0.1-0.4,0.2-0.7c0.1-0.2,0.1-0.4,0.2-0.6c0.1-0.3,0.3-0.6,0.4-0.9
		c-0.3-0.1-0.5-0.1-0.8-0.1c-0.3,0-0.5-0.1-0.8-0.1c-0.2,0-0.4,0-0.6,0c0,0.3,0,0.6-0.1,0.9c-0.3,3.3-0.9,6.6-1.8,9.8
		c-0.2,0.8-0.5,1.6-0.8,2.4c-0.3,0.8-0.6,1.6-1.2,2.4c0,0-0.1,0.1-0.1,0.1c0.7-0.1,1.5-0.2,2.2-0.2c0.9-0.1,1.8-0.2,2.8-0.2
		c1,0,2,0.2,2.9,0.6c0.2,0.1,0.5,0.2,0.7,0.3l0.6,0.3l1.2,0.6c0.8,0.4,1.7,0.7,2.6,0.9c0.5,0.1,0.9,0.2,1.4,0.2
		c0.5,0.1,0.9,0.1,1.4,0.2c0.5,0.2,1,0.5,1.3,0.9c0.4,0.4,0.6,0.8,0.9,1.1c0.1,0.2,0.3,0.3,0.4,0.5c0.1,0.1,0.3,0.3,0.4,0.4
		c0.1,0,0.7-0.5,0.9-0.6c0,0-0.1-0.1-0.1-0.1c-0.5-0.6-0.7-0.9-1.3-1.5c-1-1.1-2.3-2.1-3.7-2.6c1.5,0.2,3,0.9,4.4,1.8
		c0.7,0.5,1.3,1,1.9,1.5c0.2,0.1,0.3,0.2,0.4,0.3c0.1,0,0.1,0.1,0.2,0.1c0,0,0.6,0.3,1.8,0.3c0.3,0,0.7-0.1,1-0.1
		c0.3-0.1,0.6-0.2,0.9-0.3c-0.2-0.7-0.6-1.4-0.9-2.1C126.6,97.7,126.1,96.9,125.6,96.1z M116.6,90.8c-0.3,0.6-1,0.8-1.7,0.4
		c-0.7-0.3-1-1.1-0.7-1.6c0.3-0.6,1-0.8,1.7-0.4C116.5,89.5,116.8,90.2,116.6,90.8z"/>
	<path class="st0" d="M89.8,103c-0.8,0.1-1.7,0.2-2.5,0.2c-0.8,0-1.7,0-2.5-0.1c-1.7-0.1-3.2-0.4-4.8-0.6c-0.6-0.1-1.2-0.2-1.8-0.3
		c0.1,0.3,0.3,0.6,0.4,0.9c0.1,0.3,0.3,0.6,0.4,0.9l0.5,0.9c0.6,1.2,1.3,2.3,2,3.3c0.7,1.1,1.5,2.2,2.6,2.8c1.2,0.6,2.5,1,3.8,1.3
		c1.3,0.3,2.6,0.7,3.9,1.2c1.3,0.5,2.5,1,3.8,1.5c0.6,0.3,1.2,0.6,1.8,0.9l0.9,0.5c0.3,0.2,0.6,0.4,0.9,0.6c0.6,0.4,1.1,0.8,1.7,1.2
		c0.4,0.3,0.9,0.7,1.3,1.1c0,0,0,0,0-0.1c0-0.2-0.1-0.4-0.1-0.7c0-0.4,0.1-0.9,0.2-1.3c0.2-0.4,0.4-0.8,0.6-1.1
		c0.2-0.3,0.6-0.7,1-0.6c0.4,0.1,0.8,0.3,1.2,0.7c0.3,0.4,0.6,0.8,0.7,1.2c0,0.1,0.1,0.2,0.1,0.3c0.1-0.2,0.1-0.4,0.2-0.5
		c0.1-0.2,0.3-0.4,0.4-0.6c0.2-0.2,0.4-0.3,0.7-0.3c0.2,0,0.5,0.1,0.7,0.2c-0.1-0.1-0.1-0.3-0.1-0.4c0-0.2,0-0.4,0.1-0.6
		c0.2-0.2,0.5-0.4,0.7-0.5c-0.5-0.4-1-0.8-1.6-1.1l-1.8-1.1c-0.6-0.4-1.2-0.8-1.7-1.2c-0.6-0.4-1.1-0.8-1.7-1.3l-0.4-0.3l0-0.3
		c0-0.8-0.1-1.8-0.5-2.6c-0.4-0.9-1-1.6-1.7-2.2c-0.7-0.7-1.2-1.5-1.6-2.3c-0.3-0.7-0.7-1.4-0.8-2.2C94.8,101.7,92.4,102.6,89.8,103
		z"/>
	<path class="st0" d="M108.5,116.7c0.2,0.2,0.5,0.4,0.8,0.5c0.3,0.1,0.6,0.2,0.9,0.3l0.4,0.2c0.2,0.1,0.3,0.1,0.5,0.2
		c0.6,0.4,1.2,0.9,1.7,1.4c0.1,0.1,0.2,0.2,0.3,0.3c-0.1-0.2-0.2-0.3-0.3-0.5c-0.4-0.6-0.8-1.2-1.2-1.7c-0.2-0.3-0.4-0.5-0.6-0.6
		c0,0-0.1-0.1-0.2-0.1c-0.1,0-0.2-0.1-0.2-0.1c-0.2-0.1-0.3-0.2-0.5-0.3c-0.3-0.2-0.6-0.4-0.9-0.5c-0.3-0.1-0.7,0-1,0.2
		C108,116.1,108.2,116.5,108.5,116.7z"/>
	<path class="st0" d="M81.2,114.4c-0.3,0-0.7,0-1,0.1c-0.3,0.1-0.6,0.2-0.9,0.3l-0.4,0.1c-0.2,0.1-0.3,0.1-0.5,0.1
		c-0.2,0-0.4,0.1-0.6,0.1l-0.6,0c-0.3,0-0.7,0-1,0c-0.1,0-0.3,0-0.4,0c0.2,0.1,0.4,0.1,0.6,0.2c0.4,0.2,0.8,0.3,1.2,0.4
		c0,0,1.5,0.2,1.8,0.1l0.6-0.2c0.2-0.1,0.4-0.1,0.7-0.2l-0.1,0l1.3-0.5C81.9,114.5,81.5,114.4,81.2,114.4z"/>
	<path class="st0" d="M78.5,112.9c0.1,0,0.2,0,0.3,0c0.3,0,0.6,0.1,0.8,0c0.3,0,0.5-0.2,0.6-0.5c0.1-0.2-0.2-0.4-0.5-0.4
		c-0.1,0-0.3,0-0.4,0l-2.1,0.2c-0.4,0-0.8-0.1-1.1-0.2c0.3,0.2,0.7,0.3,1,0.5L78.5,112.9z"/>
	<path class="st0" d="M83.9,111.7c-1-0.4-2-0.9-2.8-1.6c-0.1,0.1-0.2,0.2-0.4,0.3c-0.2,0.1-0.4,0.3-0.6,0.4
		c-0.1,0.3-0.3,0.5-0.4,0.7c0.1,0.1,0.2,0.1,0.2,0.2c0.1,0.1,0.2,0.2,0.3,0.3c0.1,0.1,0.2,0.3,0.1,0.5c-0.1,0.5-0.6,0.9-1.1,1.2
		c0.3,0,0.6,0,0.9,0c0.4,0.1,0.7,0.2,1.1,0.4c0.2,0.1,0.3,0.2,0.5,0.3c0.1,0.1,0.2,0.3,0.3,0.5l0.3-0.1c0.6-0.2,1.2-0.5,1.8-0.6
		c0.6-0.2,1.2-0.4,1.8-0.5c0.4-0.1,0.7-0.2,1.1-0.3c-0.4-0.2-0.9-0.5-1.3-0.7C85.1,112.2,84.5,112,83.9,111.7z"/>
	<path class="st0" d="M109.2,120c0-0.1,0-0.2-0.1-0.4l-0.1-0.7c-0.1-0.4-0.2-0.9-0.4-1.3c-0.1-0.1-0.2-0.3-0.3-0.4
		c-0.2-0.3-0.6-0.5-1-0.5c-0.4,0-0.7,0.4-0.8,0.8c-0.1,0.4-0.1,0.9,0,1.3c0.1,0.4,0.2,0.9,0.3,1.3c0,0.2,0.1,0.4,0.2,0.6
		c0.1,0.2,0.1,0.5,0.2,0.7c0.2,1,0.1,2,0.1,2.9c0,0.5-0.1,1-0.1,1.4c0.3-0.5,0.5-1.1,0.8-1.6c0.5-0.9,0.9-1.8,1.1-2.7
		c0.1-0.4,0.2-0.9,0.2-1.2C109.2,120.3,109.2,120.1,109.2,120z"/>
	<path class="st0" d="M104,115.9c-0.3-0.1-0.6,0.3-0.7,0.6c-0.1,0.3-0.1,0.7-0.1,1.1c0,0.4,0.1,0.7,0.1,1.1l0.1,0.5
		c0,0.2,0.1,0.4,0.1,0.6c0.1,0.8-0.1,1.7-0.3,2.4c-0.1,0.3-0.1,0.6-0.2,0.9c0.2-0.3,0.4-0.7,0.7-1c0.5-0.7,0.9-1.4,1.2-2.1
		c0.1-0.3,0.3-0.7,0.3-0.9l0-1.2c0-0.4,0-0.8-0.2-1.2C104.8,116.3,104.4,116,104,115.9z"/>
</g>
</svg>
