<?xml version="1.0" encoding="utf-8"?>
<!-- Generator: Adobe Illustrator 24.1.2, SVG Export Plug-In . SVG Version: 6.00 Build 0)  -->
<svg version="1.1" id="Layer_1" xmlns="http://www.w3.org/2000/svg" xmlns:xlink="http://www.w3.org/1999/xlink" x="0px" y="0px"
	 viewBox="0 0 128 128" style="enable-background:new 0 0 128 128;" xml:space="preserve">
<style type="text/css">
	.st0{fill:#2D2D2D;}
</style>
<g>
	<path class="st0" d="M86.98,125.16c-0.47-0.24-0.96-0.41-1.44-0.52c-0.48-0.12-0.96-0.15-1.44-0.13l-0.04,0l-0.11-0.01
		c-0.61-0.08-1.07-0.32-1.47-0.57c-0.4-0.25-0.75-0.54-1.06-0.85c-0.61-0.61-1.1-1.29-1.52-2c-0.42-0.7-0.79-1.43-1.09-2.19
		c-0.2-0.5-0.38-1-0.52-1.53c-0.82,0.23-1.64,0.44-2.49,0.6c-0.91,0.16-1.86,0.27-2.8,0.18c0,0.01,0.01,0.01,0.01,0.02
		c0.52,0.78,1.05,1.56,1.59,2.31c0.55,0.75,1.11,1.48,1.7,2.14c0.3,0.33,0.61,0.63,0.92,0.88c0.28,0.24,0.59,0.39,0.74,0.41
		c0.64,0.01,1.3,0.06,1.91,0.28c0.65,0.22,1.27,0.52,1.81,0.92c0.55,0.39,1.04,0.84,1.47,1.34c0.07,0.08,0.14,0.17,0.2,0.25
		c0.17-0.04,0.34-0.08,0.51-0.11c0.64-0.13,1.27-0.19,1.91-0.2c0.64-0.02,1.27,0.12,1.91,0.3c0.45,0.13,0.91,0.23,1.36,0.27
		c-0.21-0.31-0.47-0.6-0.74-0.86C87.91,125.72,87.45,125.41,86.98,125.16z"/>
	<path class="st0" d="M7.75,125.25l-0.71-0.83l-1.41-1.65l-1.41-1.65l-0.7-0.83c-0.23-0.27-0.5-0.62-0.71-0.94
		c-0.85-1.32-1.45-2.7-1.98-4.11c-0.04-0.11-0.08-0.23-0.12-0.34c-0.08,0.38-0.12,0.77-0.12,1.15c0,0.86,0.17,1.72,0.42,2.55
		c0.49,1.66,1.29,3.22,2.2,4.71c0.23,0.35,0.47,0.78,0.69,1.04c0.24,0.29,0.53,0.53,0.85,0.74c0.64,0.42,1.39,0.74,2.17,1
		c0.83,0.28,1.69,0.49,2.57,0.68c-0.33-0.19-0.64-0.41-0.93-0.67C8.27,125.84,7.99,125.54,7.75,125.25z"/>
	<path class="st0" d="M126.26,73.36c1.39,0,0.67-1.92,1.51-1.92c0.08,0,0.15,0.01,0.23,0.03c-2.08-1.51-4.13-3.06-6.25-4.51
		l-0.04-0.03l-0.02-0.03c-0.72-0.78-1.51-1.53-2.33-2.23c-0.82-0.71-1.67-1.37-2.55-2c-0.88-0.62-1.78-1.21-2.7-1.74
		c-0.46-0.27-0.92-0.52-1.38-0.74c-0.45-0.22-0.94-0.42-1.3-0.49l-0.03-0.01l-0.1-0.03c-1.35-0.48-2.75-0.87-4.15-1.18
		c-1.41-0.3-2.83-0.47-4.26-0.49c-0.71,0-1.43,0.02-2.13,0.11c-0.71,0.09-1.41,0.22-2.1,0.41c-1.24,0.34-2.43,0.89-3.56,1.6
		c0.28,0.07,0.55,0.16,0.8,0.28c0.52,0.23,1,0.49,1.45,0.85l0.2,0.16l0.13,0.14l0.25,0.27c0.17,0.18,0.33,0.37,0.49,0.56
		c0.65,0.75,1.28,1.53,1.83,2.39c0.03,0.05,0.02,0.11-0.03,0.14c-0.03,0.02-0.07,0.02-0.1,0.01c-0.91-0.43-1.75-0.94-2.57-1.48
		c-0.2-0.14-0.41-0.26-0.61-0.41l-0.3-0.21l-0.14-0.1c0.01,0.01-0.07-0.03-0.1-0.05c-0.36-0.18-0.75-0.36-1.14-0.46
		c-1.57-0.44-3.03-0.12-4.26,1.16c-0.59,0.56-0.89,1.26-0.92,2.11c-0.04,0.84,0.19,1.75,0.53,2.61c0.71,1.73,1.79,3.39,3.02,4.87
		l0.08,0.09l-0.01,0.08l-0.15,2.13c0,0.05-0.05,0.1-0.1,0.09c-0.05,0-0.09-0.04-0.09-0.09l-0.14-2.02
		c-1.42-1.35-2.72-2.84-3.66-4.66c-0.41-0.81-0.74-1.7-0.87-2.68c-0.23,0.4-0.5,0.77-0.81,1.12c-0.65,0.77-1.6,1.17-2.49,1.6
		c-0.89,0.44-1.83,0.77-2.8,0.94c-0.87,0.14-1.15,0.33-2.01,0.22c0.98,0.62,1.22,1.34,1.82,2.36c0.33,0.5,0.54,1.06,0.72,1.63
		c0.09,0.28,0.14,0.58,0.21,0.87c0.08,0.29,0.13,0.58,0.17,0.87c0.2,1.16,0.25,2.34,0.16,3.5c-0.11,1.16-0.33,2.29-0.75,3.36
		c-0.01,0.03-0.05,0.05-0.08,0.04c-0.03-0.01-0.05-0.04-0.04-0.07l0-0.01c0.21-1.1,0.29-2.23,0.22-3.34
		c-0.04-1.11-0.21-2.2-0.52-3.24c-0.26-0.91-0.67-1.75-1.05-2.59c0.05,0.62,0,1.24-0.05,1.85c-0.08,1.01-0.3,1.99-0.62,2.92
		c-0.35,0.93-0.77,1.81-1.35,2.6c-0.02,0.03-0.06,0.04-0.09,0.01c-0.03-0.02-0.03-0.05-0.02-0.08l0-0.01
		c0.39-0.87,0.67-1.78,0.83-2.71c0.19-0.92,0.26-1.85,0.21-2.77c-0.04-0.92-0.28-1.8-0.41-2.69c-0.04-0.46-0.15-0.9-0.21-1.37
		c-0.02-0.12-0.04-0.23-0.05-0.35c-0.1-0.59-0.57-1.04-1.16-1.1c-2.4-0.24-4.79-0.57-7.18-0.95c-2.84-0.49-5.67-1.04-8.48-1.94
		c-0.35-0.12-0.7-0.26-1.05-0.39c-0.35-0.13-0.63-0.25-0.97-0.35c-0.65-0.22-1.33-0.39-2.01-0.55c-1.37-0.32-2.75-0.59-4.15-0.8
		c-2.8-0.42-5.62-0.68-8.45-0.85c-2.83-0.15-5.67-0.22-8.5-0.03c-2.83,0.18-5.67,0.55-8.41,1.31c-1.37,0.37-2.72,0.85-4.02,1.42
		c-1.3,0.58-2.55,1.28-3.79,2c-2.49,1.44-4.88,3.04-7.17,4.76c-2.29,1.72-4.45,3.62-6.44,5.65c-1.99,2.04-3.75,4.28-5.14,6.72
		c-1.39,2.44-2.29,5.11-2.53,7.89c-0.26,2.83-0.28,5.71-0.05,8.57c0.19,2.87,0.61,5.72,1.22,8.53c0.31,1.4,0.66,2.79,1.11,4.14
		c0.44,1.35,0.94,2.69,1.63,3.85c0.18,0.3,0.34,0.53,0.56,0.82l0.66,0.87l1.3,1.76l1.3,1.75l0.65,0.88
		c0.21,0.28,0.41,0.53,0.65,0.77c1.87,2.03,5.02,1.65,7.79,1.94c0.74-0.25,1.47-0.54,2.15-0.89c0.69-0.35,1.35-0.73,1.94-1.17
		c0.6-0.45,0.97-1.08,1.54-1.46c0.55-0.42,1.06-0.86,1.86-1.4l0.01,0c0.05-0.04,0.12-0.02,0.16,0.03c0,0,0,0.01,0,0.01
		c0.03,0.02,0.05,0.06,0.04,0.1c0,0.02-0.01,0.04-0.01,0.06c0.17,0.93-0.14,1.88-0.67,2.62c0.05,0.18,0.06,0.19,0.11,0.37
		c0.93,0.3,1.86,0.61,2.78,0.91l0.79,0.26c0.25,0.08,0.55,0.17,0.72,0.2l1.52-0.02c2.26-0.06,4.52,0.06,6.79,0.28
		c2.26,0.22,4.53,0.34,6.79,0.28c1.92-0.03,3.83-0.19,5.75-0.34c0,0,0,0,0-0.01c-0.25-0.43-0.52-0.85-0.85-1.21
		c-0.53-0.58-1.16-1.04-1.87-1.36s-1.49-0.49-2.29-0.56c-0.41-0.03-0.8-0.03-1.23-0.04l-1.34,0.01c-1.79,0.01-3.57,0.01-5.37,0
		c-1.79-0.01-3.59-0.04-5.38-0.07l-1.64-0.03l1.21-0.98c0.62-0.51,1.24-1.01,1.88-1.5c0.56-0.42,1.12-0.86,1.71-1.25
		c0.01-0.01,0-0.03,0.01-0.03l0,0c1.26-0.97,2.51-1.86,3.71-2.81c1.2-0.94,2.33-1.92,3.46-2.9c1.14-0.96,2.32-1.98,3.06-3.34
		c0.36-0.67,0.62-1.41,0.78-2.15c0.14-0.75,0.15-1.52,0.08-2.27c-0.2-1.56-0.43-3.09-0.73-4.57c-0.31-1.48-0.8-2.88-1.42-4.18
		c-0.61-1.31-1.43-2.5-2.42-3.61c-0.99-1.11-2.17-2.11-3.37-3.16c-0.04-0.04-0.05-0.1-0.01-0.14c0.03-0.03,0.07-0.04,0.1-0.03
		c1.52,0.45,2.98,1.16,4.3,2.15c1.32,0.99,2.47,2.31,3.26,3.82c0.8,1.52,1.19,3.2,1.38,4.83c0.21,1.64,0.16,3.28-0.03,4.89
		c-0.1,0.84-0.29,1.64-0.5,2.43c-0.24,0.78-0.53,1.54-0.86,2.28c-0.66,1.47-1.41,2.98-2.47,4.23c-0.53,0.63-1.13,1.19-1.77,1.68
		c-0.64,0.5-1.32,0.94-2.01,1.34c-1.35,0.75-2.78,1.37-4.3,1.66c-0.23,0.25-0.45,0.52-0.69,0.77l-0.79,0.91
		c-0.17,0.2-0.35,0.4-0.53,0.6c1.3-0.17,2.6-0.32,3.9-0.42c1.8-0.16,3.6-0.24,5.41-0.27l1.36,0c0.46,0,0.97,0.03,1.46,0.09
		c0.7,0.09,1.4,0.26,2.08,0.52c0.88,0.15,1.77,0.41,2.66,0.42c0.49,0.02,0.98-0.03,1.47-0.11c0.49-0.06,0.97-0.2,1.45-0.34
		l1.43-0.43c0.48-0.14,0.96-0.23,1.43-0.35c0.96-0.22,1.9-0.47,2.86-0.63c1.74-0.27,3.48-0.47,5.32-0.53
		c-1.11-1.09-2.25-2.16-3.35-3.27c-0.93-0.95-1.84-1.93-2.7-2.94l-0.32-0.38l-0.17-0.2c-0.07-0.08-0.14-0.17-0.2-0.26
		c-0.25-0.35-0.44-0.75-0.56-1.16c-0.24-0.83-0.17-1.75,0.17-2.52c0.08-0.19,0.19-0.39,0.29-0.55l0.27-0.42l0.56-0.84
		c0.37-0.56,0.75-1.11,1.14-1.66c0.39-0.55,0.79-1.09,1.21-1.62c0.21-0.27,0.43-0.53,0.64-0.79c0.24-0.26,0.42-0.51,0.76-0.74
		c0.04-0.03,0.1-0.02,0.13,0.02c0.02,0.03,0.02,0.08,0,0.11l-0.03,0.05c-0.16,0.21-0.32,0.55-0.47,0.83l-0.44,0.9l-0.89,1.8
		c-0.3,0.6-0.6,1.2-0.91,1.79l-0.46,0.89l-0.23,0.44c-0.07,0.14-0.11,0.23-0.15,0.35c-0.16,0.47-0.14,0.98,0.01,1.43
		c0.07,0.23,0.19,0.44,0.33,0.62l0.11,0.14l0.16,0.18l0.34,0.37c0.9,0.98,1.76,2,2.6,3.04c1.66,2.1,3.2,4.31,4.94,6.32
		c1.67,1.95,3.45,3.8,5.29,5.59c0.95-0.06,1.91-0.14,2.86-0.19c1.02-0.06,2.05-0.09,3.07-0.12c1.37-0.04,2.74-0.08,4.11-0.11
		c-0.26-0.28-0.53-0.54-0.82-0.77c-0.38-0.31-0.81-0.53-1.25-0.7c-0.44-0.18-0.91-0.25-1.38-0.3l-0.15-0.01
		c-0.79-0.18-1.23-0.58-1.63-0.95c-0.39-0.38-0.71-0.78-1.01-1.18c-0.6-0.81-1.08-1.65-1.54-2.5c-0.46-0.85-0.86-1.73-1.23-2.61
		c-0.36-0.89-0.73-1.77-1.02-2.69c0-0.01,0-0.02,0-0.03c-0.01-0.01-0.02-0.03-0.02-0.04c0-0.02,0.01-0.04,0.02-0.06l0-0.01
		c0.32-0.52,0.69-0.92,1.05-1.32c0.35-0.42,0.74-0.75,1.09-1.12c0.19-0.17,0.38-0.34,0.58-0.5c0.19-0.16,0.39-0.32,0.6-0.46
		c0.43-0.27,0.83-0.59,1.23-0.92c0.76-0.69,1.48-1.44,2.14-2.25c0.67-0.8,1.27-1.69,1.75-2.64l0-0.01c0.03-0.05,0.08-0.07,0.13-0.04
		c0.04,0.02,0.06,0.06,0.05,0.11c-0.2,1.1-0.63,2.13-1.12,3.13c-0.51,0.99-1.12,1.94-1.83,2.81c-0.71,0.85-1.37,1.83-2.37,2.38
		c-0.92,0.55-1.94,0.93-3.07,1c0.42,0.65,0.83,1.3,1.26,1.94c0.93-0.2,1.82-0.57,2.7-0.93c0.96-0.41,1.91-0.85,2.87-1.29
		c1.91-0.88,3.82-1.81,5.79-2.59c1.97-0.79,3.99-1.52,6.01-2.17c0.9-0.29,1.82-0.75,2.71-1.28l0.33-0.21l0.08-0.05l0.06-0.04
		c0.06-0.04,0.12-0.07,0.18-0.09c0.28-0.09,0.48,0.01,0.58,0.06c0.41,0.26,0.52,0.5,0.7,0.74c0.16,0.24,0.3,0.48,0.44,0.72
		c0.22-0.6,0.44-1.19,0.68-1.78c0.36-0.85,0.74-1.69,1.18-2.51c0.43-0.83,0.92-1.63,1.55-2.37l0.25-0.27l0.12-0.14
		c0.02-0.02,0.13-0.15,0.32-0.21c0.19-0.06,0.39-0.02,0.52,0.04c0.13,0.06,0.21,0.12,0.28,0.19c0.14,0.12,0.22,0.24,0.31,0.35
		c0,0,0.01,0.01,0.01,0.01c0.46-1.2,0.93-2.39,1.42-3.57l0.02-0.06l0.05-0.08c0.22-0.33,0.42-0.62,0.66-0.91
		c0.24-0.29,0.5-0.57,0.81-0.84c0.33-0.25,0.66-0.56,1.37-0.66c0.19-0.03,0.42,0.01,0.63,0.09c0.14-0.32,0.25-0.66,0.31-1.01
		c0.06-0.35,0.07-0.71,0.06-1.1c0.01-0.41-0.06-0.79,0.05-1.43c0.03-0.16,0.12-0.38,0.24-0.53l0.21-0.25
		c0.12-0.14,0.24-0.27,0.36-0.4c0.25-0.26,0.5-0.52,0.76-0.77c0.7-0.63,1.43-1.21,2.23-1.69c0.6-0.51,1.21-1.02,1.85-1.49
		c1.16-0.86,2.46-1.56,3.72-2.19c1.26-0.63,2.58-1.22,3.72-1.84c0.26-0.15,0.44-0.29,0.68-0.52c0.23-0.22,0.49-0.47,0.78-0.72
		c0.56-0.51,1.3-1.03,2.15-1.29l-0.12,0.05c0.41-0.2,0.77-0.43,1.08-0.68c0.31-0.26,0.54-0.55,0.73-0.92
		c0.3-0.57,0.49-1.36,0.75-2.22c-0.28,0.06-0.57,0.12-0.85,0.16c-0.4,0.05-0.8,0.09-1.21,0.07c-0.37-0.01-0.73-0.05-1.1-0.07
		c-0.4,0.26-0.8,0.51-1.21,0.76c-0.48,0.28-0.96,0.57-1.46,0.83c-0.03,0.02-0.07,0-0.09-0.03c-0.01-0.03-0.01-0.05,0.01-0.08
		c0.36-0.44,0.74-0.85,1.12-1.27c0.38-0.42,0.77-0.81,1.16-1.22l0.09-0.09l0.23-0.03c0.4-0.05,0.8-0.12,1.21-0.16
		c0.4-0.04,0.81-0.04,1.21-0.01c0.42,0.04,0.84,0.09,1.26,0.17l0.15-0.13c0.46-0.41,0.91-0.83,1.29-1.31
		c0.35-0.41,0.63-0.87,0.88-1.35C126.79,75.13,124.92,73.36,126.26,73.36z M95.81,66.19c-0.05,0.03-0.12,0.01-0.14-0.05
		c-0.01-0.01-0.01-0.03-0.01-0.05l0-0.03c0-0.13-0.04-0.22-0.11-0.23c-0.05-0.01-0.11,0.01-0.18,0.01l-0.53-0.01
		c-0.4,0-0.82,0-1.23-0.02c-0.01,0-0.04,0-0.06-0.01c0.01-0.02,0.02-0.05,0.01-0.08c0-0.04-0.03,0.02-0.06,0.07
		c-0.01,0-0.02,0-0.01,0c0,0,0.01,0.01,0.01,0.01c-0.01,0.01-0.01,0.02-0.01,0.04c-0.03,0.07-0.06,0.15-0.08,0.23
		c-0.04,0.16-0.06,0.34-0.06,0.52c0.01,0.72,0.35,1.49,0.78,2.28c0.21,0.39,0.44,0.76,0.71,1.12l0.42,0.56
		c0.14,0.19,0.29,0.46,0.25,0.74c-0.01,0.06-0.06,0.09-0.11,0.09c-0.04-0.01-0.07-0.04-0.08-0.08l0-0.01
		c-0.04-0.19-0.18-0.32-0.36-0.45l-0.55-0.41c-0.37-0.29-0.73-0.61-1.07-0.96c-0.33-0.36-0.63-0.71-0.92-1.15
		c-0.28-0.44-0.5-0.94-0.62-1.49c-0.06-0.27-0.1-0.56-0.12-0.86c-0.01-0.15-0.01-0.3,0-0.45c0.01-0.16,0.01-0.28,0.09-0.54
		c0.15-0.47,0.5-0.86,0.94-1.06c0.22-0.1,0.45-0.16,0.69-0.16c0.12,0,0.24,0.01,0.35,0.03c0.14,0.02,0.14,0.03,0.22,0.05
		c0.47,0.15,0.93,0.35,1.38,0.68c0.22,0.16,0.45,0.36,0.64,0.66c0.09,0.16,0.18,0.37,0.14,0.6C96.09,66.01,95.93,66.13,95.81,66.19z
		 M113.78,70.84c-1.04,0-1.87-0.86-1.87-1.92c0-1.06,0.84-1.92,1.87-1.92s1.87,0.86,1.87,1.92
		C115.66,69.98,114.82,70.84,113.78,70.84z"/>
</g>
</svg>
