<?xml version="1.0" encoding="utf-8"?>
<!-- Generator: Adobe Illustrator 23.0.0, SVG Export Plug-In . SVG Version: 6.00 Build 0)  -->
<svg version="1.1" id="Layer_1" xmlns="http://www.w3.org/2000/svg" xmlns:xlink="http://www.w3.org/1999/xlink" x="0px" y="0px"
	 viewBox="0 0 128 128" style="enable-background:new 0 0 128 128;" xml:space="preserve">
<style type="text/css">
	.st0{fill:#2D2D2D;}
</style>
<g>
	<path class="st0" d="M72.6,59.9c-0.9,2.6-4.9,12.2-5.6,14c0,0.1-0.1,0.1-0.1,0.2c-0.1,1.5-0.3,3-0.6,4.3c0,0,0,0,0,0
		c-0.3,1.4-0.7,2.8-1.1,4.2c-0.5,1.4-1,2.8-1.6,4.1c-0.2,0.4-0.4,0.8-0.6,1.2c0.1,0,0.2,0.1,0.4,0.2c0,0,2.1,1.5,4.4,1.8
		c1,0.2,1.9,0.4,2.7,0.8c0,0,0,0,0-0.1c0.6-3.3,1.6-6.5,2.8-9.7c0.6-1.6,1.3-3.1,1.9-4.6c0.7-1.5,1.4-3,2.2-4.5c0.8-1.5,1.5-3,2-4.6
		c0.6-1.6,0.9-3.2,1.4-4.8c0.5-1.6,1.2-3.1,1.9-4.6c0.5-1.2,1.1-2.3,1.8-3.4c-2.8,0.9-6.5,2.3-7.2,2.6
		C76.5,57.3,74.9,58.4,72.6,59.9z"/>
	<path class="st0" d="M53.5,10.7L53.5,10.7C53.5,10.7,53.5,10.7,53.5,10.7z"/>
	<path class="st0" d="M44.5,23.7c-0.7,0-1.3,0-2,0c-0.5,0-1.1,0-1.6,0.1l0.3,0.5c0.3,0.4,0.6,0.8,0.9,1.2c0.7,0.7,1.5,1.1,2.3,1.1
		c0.9,0,1.7-0.5,2.4-1.1c0.4-0.4,0.8-0.9,1.1-1.4c-0.5,0-1,0-1.4-0.1C45.8,23.7,45.1,23.7,44.5,23.7z"/>
	<path class="st0" d="M90.7,28.7c0.7,0.3,1.2,0.8,1.6,1.4c0.2,0.4,0.4,0.8,0.5,1.2c1.9-1.6,2.5-3.7,2.5-5.2c0-0.7-0.2-1.2-0.3-1.5
		C93.2,25.1,91.5,27.1,90.7,28.7z"/>
	<path class="st0" d="M36.2,17.9c0.3,0.2,0.6,0.4,1,0.6c0.4,0.1,0.8,0.2,1.2,0.3l2.3,0.6c0.2-0.6,0.5-1.1,0.8-1.7
		c-0.2,0.9-0.4,1.8-0.6,2.7c-0.1,0.5-0.2,0.9-0.2,1.4c-0.1,0.4-0.1,0.8-0.1,1.2c0.1,0.2,0.2,0.4,0.3,0.5c0.5-0.4,1-0.6,1.6-0.8
		c0.7-0.2,1.4-0.3,2.2-0.3c0.7,0,1.5,0.2,2.1,0.4c0.5,0.2,1,0.4,1.4,0.7c0.1-0.2,0.2-0.3,0.3-0.5c-0.1-0.2-0.1-0.4-0.1-0.5
		c-0.1-0.3-0.1-0.5-0.1-0.7c-0.1-0.5-0.2-1-0.3-1.4c-0.2-0.9-0.6-1.8-1.2-2.6c0.5,0.4,0.9,0.9,1.3,1.5c0.8-0.1,1.5-0.3,2.2-0.4
		c0.4-0.1,0.8-0.2,1.2-0.3c0.3-0.1,0.6-0.3,0.9-0.6c0.9-1.1,1-2.9,0.4-4.2c-0.2-0.3-0.4-0.6-0.6-0.8c-0.2-0.2-0.5-0.3-0.8-0.4
		c-0.7-0.2-1.4-0.1-2.2,0.1c-0.4,0.1-0.7,0.2-1.1,0.3c-0.2,0.1-0.4,0.1-0.6,0.2c-0.2,0.1-0.4,0.1-0.6,0.2c-0.4,0.1-0.9,0.2-1.3,0.2
		h-1.2c-0.4,0-0.8,0-1.2,0c-0.5,0-0.9-0.1-1.3-0.2c-0.2-0.1-0.4-0.1-0.6-0.2c-0.2-0.1-0.4-0.1-0.5-0.2c-0.4-0.1-0.7-0.2-1.1-0.3
		c-0.7-0.1-1.5-0.1-2.1,0.2c-0.6,0.2-1.1,0.7-1.5,1.4C35,15.2,35,17,36.2,17.9z M49.1,14.2c0.7,0,1.3,0.6,1.3,1.3
		c0,0.7-0.6,1.3-1.3,1.3c-0.7,0-1.3-0.6-1.3-1.3C47.8,14.8,48.4,14.2,49.1,14.2z M45.7,19.4c0-0.4,0-0.8,0.6-0.6
		c0.4,0.1,0.7,0.5,0.6,0.9c-0.1,0.6-0.8,1.4-1.5,1C44.9,20.4,45.7,20.2,45.7,19.4z M42.7,18.8c0.6-0.1,0.6,0.3,0.6,0.6
		c0,0.8,0.7,1,0.3,1.2c-0.7,0.4-1.4-0.4-1.5-1C42,19.3,42.3,18.8,42.7,18.8z M39.5,14.2c0.7,0,1.3,0.6,1.3,1.3
		c0,0.7-0.6,1.3-1.3,1.3s-1.3-0.6-1.3-1.3C38.2,14.8,38.8,14.2,39.5,14.2z"/>
	<path class="st0" d="M81.8,36c-1.3,2.8-2.6,5.6-4.1,8.3c0,0,0,0,0,0c1.7,0.9,7.2,1.2,9.5-2.6l0.2-0.3c0.4-1,1.2-2.9,1.9-4.7
		c0.6-1.6,1.3-3,1.6-3.8c0-0.2-0.1-0.3,0-0.5c0.1-0.4,0.2-1.8-1.7-2.2l-1-0.2l0.3-1c0.6-2.1,3.4-5.9,6.7-6.3l0.3,0l0,0
		c1.7-6.2,3.8-12.3,6-18.3l0.9-2.3l0.1-0.1l0-0.1c0,0,0-0.1,0-0.1c0-0.1,0-0.2,0-0.3c0-0.2-0.1-0.3-0.3-0.4
		c-0.1-0.1-0.1-0.1-0.2-0.1c0,0-0.1,0-0.1,0l-0.1,0h-0.1l-1.2,0l-1.2,0c-0.3,0-0.7,0-1,0.1c-0.7,0.2-1.3,0.5-1.8,1
		c-0.2,0.2-0.5,0.5-0.7,0.8c-0.1,0.1-0.2,0.3-0.3,0.5l-0.3,0.6l-2.2,4.5c-1.4,3-2.8,6-4,9.1c-1.2,3.1-2.2,6.3-3.4,9.4
		c-0.6,1.6-1.2,3.1-1.9,4.6C83.1,32.9,82.5,34.5,81.8,36z"/>
	<path class="st0" d="M34.7,7.8c0,0.3-0.1,0.7-0.2,1l0,0c1.2-1.2,2.7-2.2,4.3-2.9C40.6,5.2,42.4,5,44.1,5c1.8,0.1,3.5,0.5,5.1,1.3
		C50.6,7,51.8,8,52.9,8.9c-0.1-0.5-0.2-1.1-0.2-1.7c0-1.4,0.6-2.8,1.6-3.7c-0.8-0.4-1.5-0.9-2.3-1.2c-0.9-0.4-1.8-0.8-2.7-1.1
		c-1.7-0.6-3.4-1-5.2-1.3c-1.8,0.3-3.6,0.7-5.2,1.2c-0.9,0.3-1.8,0.7-2.7,1.1c-0.9,0.4-1.7,0.9-2.6,1.4l0,0
		C34.5,4.8,34.9,6.4,34.7,7.8z"/>
	<path class="st0" d="M40.7,122.1c0.6-1.4,3.3-5.4,3.7-6.3c-1.5,0.4-3.1,0.7-4.7,0.8c-1.8,0.1-3.7,0.1-5.6-0.1
		c-1.8-0.2-3.7-0.6-5.5-1.2c-0.9-0.3-1.8-0.6-2.6-1c-0.9-0.4-1.7-0.9-2.5-1.4c-1.6-1-3.1-2.2-4.2-3.7c-0.6-0.8-1-1.6-1.3-2.6
		c-0.1-0.5-0.2-1-0.2-1.4c-0.1-0.5-0.1-1-0.1-1.4c0.1-3.7,2.5-7.2,5.7-8.6l0,0c-1.9-1.1-3.8-2.3-5.5-3.7c-0.7-0.4-1.5-0.8-2.2-1.3
		c-0.6,0.8-1.3,1.5-1.8,2.3c-0.4,0.5-0.7,1-1.1,1.5c-0.4,0.5-0.7,1-1,1.6c-1.3,2.1-2.4,4.3-3,6.7c-0.6,2.3-0.7,4.7,0,7
		c0.7,2.2,2.2,4.3,4,6c1.8,1.7,4,3.1,6.4,4c2.4,0.9,4.9,1.3,7.4,1.8c2.5,0.4,5,0.8,7.5,1.2c2.4,0.3,4.1-0.2,6.6,0.1L40.7,122.1z"/>
	<path class="st0" d="M19.1,89.8L19.1,89.8c1.7,1.4,3.5,2.6,5.4,3.8l1.4,0.8l0.7,0.4L27,95c0.1,0.1,0.2,0.1,0.3,0.2
		c0.9,0.4,1.9,0.8,3,1.1c2.1,0.5,4.2,0.8,6.4,0.8c1.1,0,2.2-0.1,3.2-0.3c0.8-0.1,1.6-0.3,2.4-0.5c0.2-0.6,0.4-1.2,0.6-1.5
		c0.1-0.2,0.2-0.3,0.3-0.4l0.1-0.1l0.2-0.3l0.4-0.6l0.8-1.3c0.6-0.8,1.1-1.7,1.6-2.6c1.1-1.7,2.1-3.5,3-5.2c1.9-3.5,3.8-7.2,5.1-11
		c-1.1,3.9-2.6,7.7-4.3,11.4c-0.8,1.9-1.7,3.7-2.6,5.5c-0.5,0.9-0.9,1.8-1.4,2.7l-0.8,1.3L45,95l-0.2,0.3l-0.1,0.2l-0.1,0.1
		c0,0.1-0.1,0.2-0.1,0.2c-0.2,0.3-0.9,2.2-0.3,3.8c0.4,1.1,1.3,1.8,2.6,2.2c0.4,0,1.6-0.4,2.8-0.7c5.1-1.5,14.5-4.3,22.2-2.2
		c0,0,0.1,0,0.1,0c0,0,0,0,0.1-0.1c0.2-0.6,0.6-2.9-0.6-4.8c-0.8-1.2-2.1-2-3.9-2.2c-2.7-0.3-5.1-2-5.2-2.1c-0.1,0-0.1-0.1-0.1-0.1
		c-0.2,0.4-0.4,0.7-0.7,1c-0.9,1.2-1.9,2.3-3.3,2.8c1.3-0.6,2.2-1.8,2.9-3.1c0.7-1.2,1.2-2.6,1.7-3.9c0.4-1.4,0.8-2.8,1.1-4.2
		c0.3-1.4,0.5-2.8,0.7-4.2v0c0-0.1,0-0.1,0-0.2c0.9-3.5,0.6-8.2,0.3-11.6c0-0.6-0.1-1.1-0.1-1.7c-4.6,2.3-9.6,4.3-13.4,4.5H51
		l-0.2-0.1c-2-0.7-3.6-1.9-5.4-3.1c-0.7-0.5-1.4-1-2.2-1.5c-4,2.3-8.1,4.8-11.2,6.7c-3.3,2-4,2.4-4.2,2.5l0,0
		c-0.7,0.5-1.5,1.2-2.2,2c-0.7,0.8-1.3,1.7-1.8,2.6c-0.5,0.9-1,1.9-1.4,2.9c-0.3,1-0.6,2.1-0.5,3.1c-0.2-1.1-0.2-2.2,0-3.3
		c0.2-1.1,0.6-2.1,1-3.2c0.4-1,0.9-2,1.5-3c0.6-1,1.2-1.9,2.2-2.7c0.1-0.1,0.2-0.2,0.3-0.2c0,0,0,0,0.1,0c0.3-0.2,2-1.2,4-2.4
		c2.8-1.7,6.6-4,10.3-6.2c-1.8-1-3.9-1.8-6.6-2.1c-0.2,0-0.4-0.1-0.6-0.3c-1-0.7-1.8-1.4-2.7-2.2c-0.8-0.8-1.7-1.7-2.4-2.5
		C28.5,55,27.8,54,27.3,53c-0.5-1-0.9-2.1-1.2-3.2c0.4,1.1,0.9,2.1,1.6,3c0.7,0.9,1.4,1.7,2.2,2.5c0.8,0.8,1.7,1.4,2.6,2.1
		c0.9,0.6,1.9,1.2,2.8,1.7l0,0c0,0,0,0,0.1,0c5.3,0.8,8.5,3.1,11.3,5.1c1.6,1.2,3.1,2.2,4.7,2.8c8.8-0.4,24.5-11.5,24.6-11.6
		l0.2-0.1c0.2-0.1,5.3-2,8.4-3c2.4-1.3,2.5-4.8,2.5-7.6c-3.3,2.6-8.1,2.4-10.2,1.3c-1.5-0.8-1.8-1.8-2-2.5c-0.4,0.9-0.9,3-1,5.1
		l-0.1,0.7L73,49.4c-0.4,0.1-10,2-12.2,2.3c-2.3,0.3-5.8-1-6-1c-0.2-0.1-0.4-0.3-0.5-0.5c-0.1-0.1-0.2-0.2-0.2-0.3l-0.4-0.4L53,48.6
		c-0.5-0.6-1.1-1.1-1.6-1.7c-1.1-1.1-2.3-2.1-3.5-3c-1.2-0.9-2.6-1.8-3.9-2.5c-1.4-0.8-2.8-1.3-4.3-1.9c1.5,0.4,3.1,0.8,4.5,1.4
		c1.5,0.6,2.9,1.3,4.3,2.2c1.4,0.8,2.7,1.7,3.9,2.7c0.6,0.5,1.3,1,1.9,1.5c0.3,0.3,0.6,0.5,0.9,0.8l0.4,0.4c0.1,0.1,0.3,0.3,0.4,0.3
		l0,0c0.1,0,0.3,0.1,0.5,0.2c0.7-1.2,4.1-7.1,7.5-8.5c8.4-3.4,12-4.7,16.2-4.7c0.1,0,0.1,0,0.2,0c0.1-0.2,0.1-0.3,0.2-0.5
		c0.6-1.6,1.2-3.1,1.8-4.6c0.6-1.5,1.3-3.1,2-4.6c0-0.1,0.1-0.2,0.1-0.3c-3.8,0.2-10,1.2-15.1,2c-1.3,0.2-2.7,0.3-4.1,0.3
		c-3.7,0-7.3-0.7-9.1-1.3c-0.9,1.1-2.1,2-3.3,2.7c-1.3,0.7-2.8,1.2-4.2,1.6c-1.5,0.3-2.9,0.8-4.4,0.7c-1.5,0.1-3-0.4-4.5-0.6
		c-1.5-0.3-3-0.8-4.4-1.5c-0.7-0.4-1.4-0.8-2-1.3c-0.6-0.5-1.2-1.1-1.7-1.7c-0.6-0.8-1.1-1.7-1.5-2.7c-1.1,0.7-2,1.7-2.9,2.6
		c-0.9,1.1-1.8,2.2-2.5,3.4c-0.8,1.2-1.4,2.4-2.1,3.6l-0.9,1.9l-0.9,1.9l-0.1,0.2l-0.2,0.1c-2.6,2-4.8,4.5-6.8,7.1
		c-2,2.7-3.6,5.6-4.8,8.7c-0.6,1.6-1.1,3.2-1.4,4.8c-0.3,1.6-0.6,3.3-0.7,5c-0.3,3.3-0.1,6.7,0.3,10c0.5,1.8,0.7,3.6,1.3,5.3
		c0.6,1.7,1.4,3.2,2.5,4.6c1.1,1.4,2.4,2.6,3.8,3.6C15.9,88,17.5,88.9,19.1,89.8L19.1,89.8z"/>
	<path class="st0" d="M30.3,22.2c0.5,1.3,1.4,2.5,2.4,3.5c1,1,2.1,1.8,3.3,2.5c2,1.2,4.2,2,6.6,2.7c1,0.3,2.1,0.3,3.1,0
		c2.2-0.7,4.4-1.5,6.3-2.7c1.2-0.7,2.2-1.6,3.2-2.5c0.9-1,1.7-2.1,2.3-3.4l0,0c0.4-0.8,0.6-1.8,0.8-2.7c0.1-1,0.2-1.9,0.2-2.9
		c0-1,0-1.9-0.1-2.9c0-0.5-0.1-1-0.2-1.4c0-0.2-0.1-0.5-0.1-0.7c0-0.1,0-0.2-0.1-0.3c0-0.1-0.1-0.2-0.1-0.2l0.6-1.1
		c-0.1,0,0,0,0-0.1c0.1-0.1,0.2-0.3,0.2-0.4c0.1-0.4,0.2-0.8,0.3-1.1c0.1-0.8,0-1.6-0.3-2.3c-0.3-0.7-0.8-1.2-1.4-1.6
		c-0.6-0.3-1.4-0.5-2.2-0.6l-0.3,0l-0.2-0.1c0,0,0,0,0,0c-0.7,1.1-1,2.3-0.8,3.5C53.8,8,54,8.7,54.4,9.4c0.1,0.2,0.2,0.3,0.3,0.5
		l0.1,0.1c0,0,0,0.1,0.1,0.1c0,0.1,0,0.1,0,0.2c0,0.1,0,0.3-0.1,0.4c-0.1,0.2-0.3,0.4-0.4,0.4c-0.1,0.1-0.3,0.1-0.5,0.1
		s-0.4,0-0.5-0.2l-0.2-0.1l-0.3-0.2l-0.5-0.4c-1.3-1-2.5-2-3.9-2.6c-1.4-0.6-2.9-1-4.4-1c-1.5-0.1-3.1,0.1-4.5,0.7
		c-1.4,0.5-2.7,1.4-4,2.4l-0.9,0.8l-0.2,0.2l-0.1,0L34.3,11c0,0-0.1,0.1-0.1,0.1c-0.2,0.1-0.3,0.1-0.5,0.1c-0.2,0-0.3,0-0.4-0.1
		c-0.1-0.1-0.3-0.2-0.4-0.5c0-0.1,0-0.3,0-0.4c0-0.1,0-0.1,0.1-0.2l0,0L33,9.8c0.4-0.7,0.7-1.4,0.8-2.2C34,6.9,34,6.1,33.9,5.4
		c-0.1-0.5-0.2-1-0.5-1.5l-0.1,0l-0.3,0c-0.9-0.1-1.7,0-2.4,0.3c-0.7,0.3-1.1,0.8-1.4,1.5c-0.3,0.7-0.3,1.6-0.2,2.5
		c0.1,0.4,0.2,0.9,0.3,1.2c0.1,0.2,0.2,0.5,0.3,0.6l0.6,1.3c0,0-0.1,0.2-0.2,0.4c-0.1,0.2-0.1,0.4-0.2,0.6c-0.1,0.4-0.2,0.9-0.3,1.4
		c-0.1,0.9-0.2,1.9-0.3,2.9c0,1,0,1.9,0.2,2.9C29.6,20.4,29.9,21.3,30.3,22.2L30.3,22.2z M55.2,4.9c0.2-0.5,2.5,2,1.9,3.8
		c-0.2,0.4-0.8,0.9-1.2,0.6c-0.8-0.6,0.2-1.3-0.1-1.8C55.5,7.1,55,5.4,55.2,4.9z M34.9,13.5c0.4-0.8,1.1-1.5,2-1.9
		c0.9-0.4,1.8-0.4,2.7-0.3c0.4,0.1,0.9,0.2,1.3,0.3c0.2,0.1,0.4,0.1,0.6,0.2c0.2,0.1,0.3,0.1,0.5,0.2c0.3,0.1,0.7,0.1,1.1,0.2h1.2
		l1.2,0c0.4,0,0.7,0,1.1-0.1c0.2,0,0.3-0.1,0.5-0.2c0.2-0.1,0.4-0.1,0.6-0.2c0.4-0.1,0.8-0.2,1.2-0.3c0.8-0.1,1.7-0.2,2.7,0
		c0.5,0.1,0.9,0.4,1.3,0.7c0.4,0.4,0.6,0.8,0.7,1.2c0.3,0.8,0.4,1.8,0.3,2.6c-0.1,0.9-0.5,1.7-1.1,2.4c-0.3,0.3-0.7,0.6-1.2,0.7
		c-0.4,0.1-0.8,0.1-1.2,0.1c-0.8,0.1-1.5,0.1-2.3,0.1c0.2,0.3,0.3,0.6,0.5,0.9c0.2,0.5,0.4,0.9,0.5,1.4c0.2,0.5,0.3,1,0.4,1.3
		l0.1,0.2l-0.1,0.2c-0.4,1-1,2-1.8,2.8c-0.8,0.8-1.9,1.5-3.2,1.6c-0.6,0-1.3-0.1-1.8-0.4c-0.6-0.3-1-0.7-1.4-1.1
		c-0.4-0.4-0.7-0.9-1-1.4c-0.3-0.5-0.5-1-0.7-1.4l-0.1-0.2l0-0.1c0.1-0.5,0.2-1,0.3-1.4c0.1-0.5,0.3-0.9,0.4-1.3
		c0.1-0.3,0.2-0.6,0.4-0.9c-0.8-0.1-1.5-0.2-2.3-0.3c-0.4-0.1-0.8-0.1-1.2-0.2c-0.4-0.1-0.8-0.3-1.2-0.5c-0.8-0.5-1.3-1.3-1.4-2.2
		C34.3,15.3,34.4,14.3,34.9,13.5z M30.1,8.7c-0.6-1.8,1.7-4.3,1.9-3.8c0.2,0.5-0.3,2.2-0.7,2.6C31,8,32,8.7,31.2,9.3
		C30.9,9.6,30.3,9.1,30.1,8.7z"/>
	<path class="st0" d="M54.1,101.8c-1.4,0.4-2.6,1.4-3.1,2.8c-0.8,2.1-1.7,4.2-2.6,6.3c-1.2,2.8-2.5,5.6-3.9,8.3
		c-0.7,1.3-1.5,2.7-2.2,4l-1.1,2l-0.3,0.5c-0.1,0.2-0.1,0.3-0.2,0.4c-0.1,0.3,0,0.6,0.1,0.9c0.1,0.3,0.4,0.5,0.6,0.7
		c0.1,0.1,0.3,0.1,0.4,0.2c0.1,0,0.3,0,0.5,0c0.8,0,1.5,0,2.3,0c1.5,0,3.1-0.1,4.6-0.2c2.9-0.2,5.6-1.7,7.3-3.8
		c0.4-0.5,0.8-1.1,1.1-1.7c0.2-0.3,0.3-0.6,0.4-0.9c0.1-0.3,0.3-0.7,0.4-1.1c0.5-1.4,1.1-2.8,1.7-4.3c2.2-5.3,3.4-10.6,6.1-15.8
		C61.8,99.9,57.7,100.8,54.1,101.8z"/>
	<path class="st0" d="M121.5,77.2c0-0.2,0-0.4-0.1-0.6c-0.2-0.8-0.7-1.5-1.5-1.8c-0.4-0.1-0.8-0.2-1.2-0.2l-1.4,0.1h0
		c-2.9,0-5.8,0.4-8.6,1.4c-0.7,0.2-1.3,0.6-2,0.8c-0.6,0.4-1.3,0.7-1.9,1.1c-1.3,0.7-2.4,1.7-3.5,2.6c-2.2,1.9-4.1,4.2-5.8,6.5
		c-1.7,2.4-3.4,4.8-5,7.3c-1.6,2.5-3.3,4.9-5.1,7.3c-1.8,2.4-3.8,4.7-6,6.7c-0.6,0.5-1.1,1-1.8,1.4c-0.6,0.4-1.3,0.8-2,1.2
		c-1.4,0.7-2.8,1.2-4.3,1.6c-1.5,0.4-2.9,0.6-4.4,0.8c-1.2,0.1-3.1,0.9-4.2,1.6c-0.4,1-2.3,5.8-2.3,6c1.5,0.7,2.6,1,4.2,0.8
		c1.8-0.3,3.6-0.6,5.4-1.1c3.6-0.9,7-2.2,10-4.2c3-2,5.4-4.7,7.6-7.6c2.2-2.9,4.2-6.1,6.2-9.2c2-3.1,4.1-6.3,6.5-9.2
		c2.4-2.9,5.1-5.7,8.6-7.6c1.7-0.9,3.5-1.6,5.4-2c0.9-0.2,1.9-0.3,2.9-0.3l1.4,0l0.1,0l0,0l0.1,0l0.1,0l0.3,0c0.2,0,0.4,0,0.5-0.1
		c0.7-0.2,1.3-0.8,1.6-1.5c0.1-0.4,0.1-0.7,0.1-1.2V77.2z"/>
</g>
</svg>
