<?xml version="1.0" encoding="utf-8"?>
<!-- Generator: Adobe Illustrator 24.1.2, SVG Export Plug-In . SVG Version: 6.00 Build 0)  -->
<svg version="1.1" id="Layer_1" xmlns="http://www.w3.org/2000/svg" xmlns:xlink="http://www.w3.org/1999/xlink" x="0px" y="0px"
	 viewBox="0 0 128 128" style="enable-background:new 0 0 128 128;" xml:space="preserve">
<style type="text/css">
	.st0{fill:#2D2D2D;}
</style>
<g>
	<path class="st0" d="M23.48,80.5c-2.48-2.41-4.85-4.91-7.49-6.99c-0.34-0.27-0.68-0.51-1.03-0.78c-0.37-0.27-0.71-0.56-1.05-0.85
		c-0.69-0.57-1.34-1.17-2.01-1.74c-0.68-0.55-1.41-1.07-2.22-1.33c-0.4-0.13-0.83-0.18-1.22-0.1C8.07,68.79,7.72,69,7.42,69.27
		c-0.28,0.27-0.62,0.62-0.68,0.89c-0.08,0.3,0.01,0.63,0.18,0.97c0.34,0.68,0.92,1.32,1.51,1.92c1.21,1.2,2.63,2.23,4.02,3.28
		c1.4,1.05,2.84,2.05,4.29,3.06c1.42,0.99,2.86,1.96,4.34,2.89c0.72-0.51,1.44-1.03,2.14-1.56C23.31,80.64,23.39,80.57,23.48,80.5z"
		/>
	<path class="st0" d="M25.97,92.82c-0.16-0.81-0.23-1.7-0.31-2.48c-0.32-3.11-1.12-6.21-1.83-9.35c-0.08,0.06-0.17,0.13-0.26,0.19
		c-0.77,0.54-1.55,1.05-2.34,1.56c0.07,3.2,0.18,6.38,0.4,9.52c0.13,1.62,0.22,3.26,0.61,4.79c0.2,0.75,0.45,1.52,0.87,2.04
		c0.21,0.25,0.46,0.41,0.77,0.43c0.33,0,0.76-0.07,1.11-0.2c0.36-0.13,0.69-0.31,0.92-0.61c0.24-0.29,0.4-0.65,0.49-1.03
		c0.18-0.77,0.12-1.6,0.01-2.41C26.28,94.46,26.11,93.64,25.97,92.82z"/>
	<path class="st0" d="M30.89,74.46c-1.36-1.25-2.78-2.41-4.26-3.47c-0.83-0.6-1.69-1.16-2.55-1.71l-2.65-1.57
		c-0.88-0.55-1.76-1.1-2.65-1.62c-0.89-0.53-1.79-1.04-2.75-1.43c-0.95-0.4-1.94-0.73-2.94-0.82c-0.5-0.05-1-0.01-1.42,0.14
		c-0.41,0.15-0.7,0.44-0.88,0.8c-0.07,0.3-0.05,0.73,0.08,1.07c0.12,0.35,0.34,0.67,0.62,0.96c0.57,0.57,1.33,0.99,2.16,1.3
		c1.81,0.65,3.5,1.59,5.09,2.59c1.61,0.99,3.15,2.07,4.68,3.15c0.76,0.55,1.51,1.1,2.28,1.64c0.74,0.51,1.47,1.06,2.27,1.46
		c0.97-0.81,1.94-1.6,2.87-2.44C30.86,74.48,30.87,74.47,30.89,74.46z"/>
	<path class="st0" d="M15.07,86.05c-0.38,1.07-0.79,2.12-1.18,3.17c-0.21,0.53-0.39,1.07-0.58,1.59c-0.18,0.52-0.34,1.08-0.4,1.52
		l-0.02,0.15l-0.1,0.13c-0.36,0.5-0.65,1.01-0.92,1.57c-0.27,0.55-0.58,1.23-1.09,1.75c-0.25,0.26-0.52,0.49-0.8,0.69
		c-0.14,0.11-0.26,0.19-0.37,0.28C9.5,96.99,9.4,97.1,9.3,97.21c-0.4,0.44-0.66,1.01-0.74,1.62c-0.08,0.6,0.02,1.25,0.39,1.69
		c0.37,0.45,0.99,0.55,1.52,0.31c0.55-0.21,1.07-0.58,1.55-0.98c0.47-0.4,0.93-0.84,1.36-1.3c0.86-0.9,1.66-1.89,2.28-2.96
		c0.31-0.53,0.6-1.07,0.81-1.62l0.62-1.78c0.41-1.21,0.81-2.39,0.93-3.6c0.11-1.17-0.15-2.39-0.91-3.41
		C16.45,85.5,15.77,85.8,15.07,86.05z"/>
	<path class="st0" d="M12.78,85.31c0.74,0.28,1.51,0.49,2.33,0.51c0.66-0.27,1.31-0.59,1.94-0.95c-2.06-2.46-4.66-4.34-7.54-5.55
		c-1.48-0.6-2.98-1.28-4.57-1.6c-0.8-0.16-1.62-0.22-2.42-0.15c-0.79,0.08-1.58,0.35-2.04,0.89c-0.23,0.26-0.36,0.59-0.42,0.94
		C0,79.76-0.02,80.16,0.03,80.49c0.08,0.71,0.45,1.07,1.11,1.27c0.66,0.2,1.46,0.21,2.27,0.22c0.82,0.01,1.65-0.01,2.6,0.19
		c0.9,0.24,1.67,0.61,2.42,0.98l2.18,1.15C11.31,84.67,12.03,85.02,12.78,85.31z"/>
	<path class="st0" d="M62.92,78.27l1.26-0.51c0.43-0.15,0.86-0.33,1.3-0.45c0.88-0.28,1.75-0.51,2.64-0.72
		c1.77-0.42,3.55-0.74,5.32-1.05l2.66-0.44c0.68-0.12,1.36-0.23,2.03-0.4c-0.21-1.23-0.4-2.45-0.58-3.67
		c-1.44,0.1-2.86,0.31-4.27,0.56c-1.89,0.33-3.72,0.83-5.63,1.23c-1.89,0.4-3.78,0.84-5.6,1.46C60.17,74.93,60.4,78.63,62.92,78.27z
		"/>
	<path class="st0" d="M86.44,55.76c-1.02-0.48-2.04-0.8-3.11-1.18c-1.06-0.35-2.13-0.71-3.21-1.03c-0.54-0.17-1.09-0.33-1.62-0.49
		c-0.47-0.13-0.93-0.26-1.4-0.37c0.01,0.05,0.01,0.1,0.01,0.15c0.1,1.31,0.25,2.61,0.4,3.92c1.15-0.69,2.54-0.97,3.9-0.97
		c1.57,0,3.19,0.42,4.53,1.05c0.73,0.33,1.46,0.68,2.18,1.05c0.16-0.64,0.42-1.23,0.73-1.79c-0.16,0.04-0.33,0.07-0.48,0.08
		C87.66,56.2,87.01,56.01,86.44,55.76z"/>
	<path class="st0" d="M97.4,69.3c-0.17-0.37-0.43-0.74-0.77-1.05c-0.68-0.63-1.54-1.09-2.41-1.48c-1.75-0.79-3.67-1.2-5.54-1.68
		c-1.9-0.47-3.7-1.04-5.58-1.44c-1.56-0.33-3.15-0.62-4.75-0.75c0.17,1.14,0.34,2.29,0.5,3.44c0.65,0.2,1.31,0.35,1.96,0.52
		l2.55,0.61c1.7,0.42,3.39,0.87,5.07,1.39c0.84,0.24,1.67,0.56,2.5,0.87c0.41,0.16,0.82,0.33,1.23,0.51l1.18,0.54
		c0.75,0.32,1.53,0.53,2.27,0.51c0.37-0.02,0.72-0.1,1.04-0.25c0.3-0.13,0.6-0.4,0.76-0.64C97.51,70.04,97.55,69.67,97.4,69.3z"/>
	<path class="st0" d="M71.3,57.96c0.75-0.12,1.51-0.19,2.29-0.18c0.77,0.01,1.58-0.01,2.31,0.27c-0.04-0.58-0.07-1.17-0.1-1.75
		c-0.64-0.15-1.66-0.35-2.79-0.45c-0.12,0.08-0.24,0.14-0.37,0.19l-0.01,0.01l-0.03,0.01c-0.5,0.08-0.96-0.03-1.36-0.25
		c-0.85,0.04-1.67,0.19-2.35,0.5c0.12,0.71,0.23,1.43,0.35,2.14C69.91,58.25,70.6,58.09,71.3,57.96z"/>
	<path class="st0" d="M77.02,51.47c0.02,0.34,0.04,0.68,0.06,1.02c1.09-0.12,2.18-0.03,3.26,0.11c1.14,0.17,2.29,0.38,3.41,0.71
		c1.11,0.31,2.25,0.75,3.26,1.31c0.45,0.24,0.92,0.41,1.36,0.44c0.21,0.01,0.42-0.01,0.6-0.08c0.18-0.05,0.38-0.2,0.47-0.3
		c0.1-0.19,0.12-0.38,0.06-0.6c-0.07-0.24-0.24-0.48-0.45-0.69c-0.43-0.42-0.97-0.75-1.55-1.01c-1.14-0.54-2.43-0.74-3.65-1.08
		c-0.63-0.19-1.16-0.33-1.75-0.46c-0.58-0.08-1.18-0.13-1.77-0.1C79.23,50.8,78.11,51.05,77.02,51.47z"/>
	<path class="st0" d="M80.26,45.63c-0.18-0.38-0.34-0.81-0.48-1.19c-0.12-0.38-0.27-0.76-0.43-1.12c-0.33-0.71-0.71-1.41-1.44-1.87
		l-0.01-0.01c-0.39-0.05-0.78-0.06-1.16-0.03c0.66,0.6,1.05,1.39,1.44,2.14c0.37,0.78,0.69,1.59,0.94,2.41
		c0.12,0.42,0.23,0.83,0.31,1.26c0.05,0.21,0.07,0.43,0.1,0.65l0.08,0.61c0.05,0.36,0.15,0.69,0.3,0.94
		c0.08,0.12,0.17,0.22,0.27,0.3c0.02,0.02,0.05,0.04,0.08,0.05c0.19-0.03,0.38-0.03,0.57-0.04c0.1-0.1,0.19-0.26,0.23-0.44
		c0.1-0.38,0.09-0.81,0.03-1.23C81,47.21,80.62,46.42,80.26,45.63z"/>
	<path class="st0" d="M68.65,85.45c1.9-0.35,3.8-0.57,5.7-0.8c0.95-0.1,1.9-0.2,2.84-0.31c0.8-0.1,1.6-0.19,2.38-0.37
		c-0.19-1.36-0.38-2.71-0.59-4.07c-1.75,0.04-3.48,0.2-5.19,0.46c-1.98,0.28-3.89,0.75-5.86,1.2c-1.97,0.42-3.97,0.75-5.85,1.47
		c-0.93,0.35-1.85,0.8-2.6,1.4c-0.37,0.31-0.69,0.67-0.88,1.05c-0.18,0.38-0.19,0.77-0.06,1.14c0.16,0.27,0.49,0.57,0.82,0.72
		c0.35,0.17,0.74,0.24,1.15,0.24c0.82,0.01,1.68-0.23,2.51-0.6C64.85,86.19,66.76,85.78,68.65,85.45z"/>
	<path class="st0" d="M99.13,65.13c0.37-0.51,0.66-1.08,1.13-1.49c0.21-0.19,0.42-0.36,0.65-0.53c-0.29-0.53-0.56-1.06-0.83-1.59
		c-0.64,0.75-1.28,1.5-1.91,2.25c-0.48,0.57-0.86,1.22-1.42,1.7c-0.52,0.46-1.07,0.89-1.74,1.23c0.67,0.33,1.33,0.69,1.95,1.16
		c0.14,0.1,0.27,0.21,0.39,0.32c0.21-0.5,0.47-0.99,0.74-1.47C98.41,66.17,98.76,65.63,99.13,65.13z"/>
	<path class="st0" d="M110.03,50.93c-0.6-0.1-1.25-0.03-1.87,0.09c-1.26,0.24-2.43,0.82-3.62,1.31c-1.2,0.51-2.39,0.87-3.56,1.34
		c-0.79,0.32-1.57,0.65-2.35,1.03c0.25,0.53,0.51,1.07,0.75,1.61c0.04,0.1,0.08,0.19,0.12,0.3c1.01-0.38,1.98-0.87,2.99-1.27
		c1.07-0.45,2.16-0.88,3.27-1.25c0.56-0.2,1.13-0.34,1.7-0.49c0.29-0.07,0.58-0.13,0.88-0.18l0.84-0.15
		c0.51-0.1,0.99-0.28,1.36-0.53c0.18-0.13,0.32-0.28,0.43-0.46c0.1-0.16,0.17-0.4,0.18-0.54c-0.07-0.2-0.16-0.39-0.35-0.53
		C110.6,51.08,110.32,50.97,110.03,50.93z"/>
	<path class="st0" d="M113.41,55.76c-0.6-0.1-1.25-0.03-1.87,0.1c-1.26,0.24-2.43,0.81-3.62,1.31c-1.2,0.51-2.38,0.87-3.56,1.34
		c-1.12,0.46-2.24,0.94-3.33,1.52c0.32,0.71,0.64,1.41,0.97,2.1c0.4-0.17,0.8-0.35,1.2-0.54l1.73-0.83
		c1.16-0.53,2.33-1.06,3.54-1.51c1.2-0.47,2.44-0.87,3.78-1.09c1.15-0.14,2.25-0.71,2.28-1.59c-0.05-0.2-0.16-0.38-0.35-0.52
		C113.99,55.9,113.71,55.81,113.41,55.76z"/>
	<path class="st0" d="M102.31,69.57c0.41-0.54,0.86-1.04,1.33-1.53c-0.27-0.47-0.55-0.94-0.81-1.42c-0.25,0.52-0.5,1.05-0.75,1.57
		l-1.4,2.77c-0.48,0.92-0.87,1.89-1.49,2.73c-0.6,0.81-1.25,1.6-2.09,2.26c0.16,0.1,0.31,0.21,0.46,0.33
		c0.29,0.21,0.54,0.46,0.77,0.76c0.32-0.81,0.71-1.59,1.09-2.36c0.46-0.87,0.94-1.73,1.41-2.58
		C101.32,71.25,101.71,70.34,102.31,69.57z"/>
	<path class="st0" d="M89.33,73.39c-1.89-0.49-3.68-1.09-5.56-1.52c-1.42-0.32-2.84-0.61-4.3-0.78c0.12,1.19,0.25,2.36,0.4,3.53
		c0.52,0.15,1.05,0.29,1.57,0.43l2.54,0.65c1.68,0.44,3.37,0.91,5.04,1.46c0.84,0.26,1.66,0.58,2.49,0.9
		c0.42,0.17,0.82,0.35,1.23,0.54l1.16,0.55c0.74,0.33,1.53,0.55,2.27,0.55c0.36-0.01,0.72-0.09,1.03-0.24
		c0.31-0.13,0.61-0.39,0.77-0.62c0.11-0.36,0.15-0.73,0.01-1.1c-0.16-0.38-0.41-0.75-0.75-1.07c-0.68-0.64-1.53-1.11-2.39-1.52
		C93.1,74.32,91.19,73.88,89.33,73.39z"/>
	<path class="st0" d="M115.87,62.24c-0.58-0.14-1.23-0.13-1.86-0.06c-1.26,0.13-2.48,0.6-3.7,0.98c-1.23,0.35-2.41,0.61-3.58,1.06
		c-1.03,0.39-2.05,0.85-3.03,1.42c0.28,0.56,0.57,1.11,0.85,1.67c0.44-0.13,0.88-0.3,1.33-0.47l1.69-0.64
		c1.13-0.4,2.27-0.82,3.44-1.14c1.16-0.33,2.39-0.59,3.65-0.67c1.08-0.03,2.12-0.46,2.25-1.26c-0.03-0.21-0.11-0.39-0.29-0.54
		C116.43,62.44,116.16,62.32,115.87,62.24z"/>
	<path class="st0" d="M85.17,60.47c0.67,0.21,1.33,0.45,1.98,0.72c0.33,0.13,0.64,0.3,0.96,0.45l0.91,0.47
		c0.56,0.28,1.15,0.47,1.7,0.49c0.27,0,0.54-0.04,0.78-0.13c0.23-0.08,0.47-0.27,0.6-0.42c0.11-0.25,0.15-0.51,0.07-0.78
		c-0.08-0.28-0.29-0.57-0.52-0.83c-0.49-0.51-1.14-0.9-1.8-1.23c-1.34-0.66-2.82-0.99-4.27-1.4c-0.36-0.1-0.72-0.21-1.08-0.31
		c-0.34-0.1-0.69-0.22-1.03-0.3c-0.7-0.21-1.4-0.3-2.12-0.39c-1.25-0.12-2.55-0.05-3.81,0.3c0.08,0.69,0.18,1.39,0.27,2.07
		c1.11-0.02,2.22,0.13,3.29,0.31C82.48,59.72,83.84,60.04,85.17,60.47z"/>
	<path class="st0" d="M98.05,86.18c-0.62-0.63-1.42-1.1-2.24-1.52c-1.65-0.81-3.46-1.26-5.24-1.75c-1.81-0.45-3.55-1.05-5.31-1.55
		c-1.55-0.44-3.1-0.88-4.69-1.16c0.15,1.29,0.3,2.58,0.44,3.87c0.39,0.12,0.79,0.22,1.18,0.32l2.53,0.66
		c1.69,0.46,3.37,0.93,5.04,1.49c0.84,0.26,1.66,0.59,2.48,0.91c0.41,0.17,0.82,0.35,1.22,0.55l1.16,0.56
		c0.74,0.33,1.52,0.56,2.26,0.55c0.37-0.01,0.72-0.08,1.04-0.22c0.31-0.13,0.61-0.39,0.77-0.63c0.13-0.33,0.16-0.69,0.04-1.05
		C98.61,86.84,98.35,86.49,98.05,86.18z"/>
	<path class="st0" d="M97.93,95.77c-0.54-0.66-1.28-1.18-2.03-1.65c-1.52-0.92-3.23-1.51-4.91-2.12c-1.7-0.6-3.31-1.32-4.97-1.94
		c-1.5-0.56-3.02-1.1-4.59-1.46c0.11,1.18,0.2,2.36,0.29,3.54c0.57,0.24,1.16,0.47,1.74,0.68l2.29,0.84
		c1.53,0.57,3.04,1.17,4.54,1.84c0.75,0.33,1.48,0.71,2.22,1.08c0.71,0.39,1.47,0.87,2.09,1.23c0.66,0.35,1.36,0.63,2.05,0.66
		c0.34,0.03,0.67-0.03,0.97-0.13c0.29-0.1,0.6-0.31,0.77-0.51c0.15-0.31,0.21-0.65,0.12-0.99C98.42,96.46,98.19,96.1,97.93,95.77z"
		/>
	<path class="st0" d="M89.86,123.54c-0.23-1.16-0.55-2.31-1.03-3.38c-0.25-0.53-0.49-1.05-0.81-1.51l-1.04-1.48
		c-0.7-0.98-1.4-1.94-2.27-2.7c-0.83-0.73-1.88-1.21-3.07-1.25c-0.11,0.71-0.25,1.41-0.47,2.11c0.62,0.87,1.21,1.75,1.81,2.62
		c0.3,0.45,0.61,0.89,0.92,1.32c0.31,0.42,0.65,0.85,0.96,1.14l0.12,0.11l0.05,0.15c0.18,0.55,0.42,1.05,0.7,1.57
		c0.27,0.51,0.62,1.14,0.73,1.82c0.06,0.34,0.09,0.67,0.08,0.99c0,0.33,0,0.56,0.07,0.84c0.12,0.54,0.42,1.07,0.84,1.46
		c0.42,0.39,0.98,0.67,1.53,0.64c0.55-0.04,0.96-0.46,1.07-0.99c0.14-0.54,0.14-1.14,0.09-1.72
		C90.06,124.7,89.97,124.12,89.86,123.54z"/>
	<path class="st0" d="M66.46,106.28c1.52-1.01,3.23-1.73,4.91-2.33c1.68-0.62,3.4-1.12,5.11-1.62c0.86-0.24,1.72-0.47,2.56-0.72
		c0.79-0.24,1.58-0.45,2.31-0.79c-0.07-1.1-0.16-2.21-0.25-3.31c-0.02-0.2-0.04-0.4-0.06-0.6c-1.79,0.33-3.53,0.77-5.24,1.32
		c-0.92,0.29-1.81,0.62-2.71,0.96l-2.66,1.1c-1.81,0.72-3.66,1.35-5.34,2.33c-0.83,0.49-1.62,1.05-2.24,1.75
		c-0.31,0.35-0.55,0.74-0.66,1.14c-0.1,0.39-0.05,0.75,0.13,1.08c0.2,0.22,0.53,0.43,0.86,0.53c0.34,0.1,0.71,0.11,1.08,0.06
		C65,107.07,65.76,106.73,66.46,106.28z"/>
	<path class="st0" d="M72.8,115.78l-0.98,0.59c-0.32,0.19-0.65,0.39-0.97,0.59c-0.63,0.42-1.27,0.85-1.83,1.37
		c-0.57,0.51-1.07,1.1-1.44,1.75c-0.36,0.64-0.58,1.39-0.4,2.02c0.09,0.31,0.26,0.59,0.51,0.82c0.25,0.24,0.55,0.46,0.83,0.61
		c0.58,0.3,1.04,0.21,1.57-0.18c0.51-0.39,0.96-0.99,1.42-1.59c0.47-0.62,0.92-1.25,1.61-1.85c1.39-1.05,2.83-1.58,4.22-2.25
		c0.69-0.33,1.36-0.67,2.01-1.07c0.62-0.4,1.22-0.85,1.7-1.44c0.16-0.64,0.27-1.28,0.34-1.94C78.27,113.34,75.36,114.27,72.8,115.78
		z"/>
	<path class="st0" d="M96.56,113.33c-0.48-0.58-1.16-1-1.84-1.38c-0.69-0.37-1.42-0.69-2.13-1.04c-0.36-0.17-0.72-0.35-1.08-0.55
		l-1.02-0.58c-2.56-1.48-5.43-2.5-8.3-3.58c-0.01,0.08-0.01,0.17-0.01,0.25c-0.01,0.66-0.05,1.33-0.08,2
		c2.55,1.75,5.06,3.51,7.6,5.17c1.3,0.84,2.6,1.71,3.98,2.32c0.68,0.3,1.4,0.56,2.04,0.56c0.31,0.01,0.57-0.08,0.77-0.28
		c0.09-0.08,0.18-0.25,0.27-0.42c0.08-0.16,0.15-0.32,0.21-0.49c0.11-0.33,0.16-0.69,0.08-1.03
		C96.98,113.93,96.8,113.61,96.56,113.33z"/>
	<path class="st0" d="M72.14,111.71c3.15-0.98,6.29-2.05,9.42-3.22c0.01-0.01,0.03,0,0.05,0c0.01-0.68,0.01-1.36-0.01-2.05
		c-0.01-0.12-0.01-0.23-0.01-0.35c-1.66,0.21-3.3,0.39-4.93,0.62c-1.64,0.22-3.26,0.51-4.81,0.92c-0.75,0.21-1.59,0.47-2.41,0.65
		c-0.83,0.18-1.65,0.33-2.46,0.53c-0.79,0.21-1.6,0.47-2.23,0.95c-0.32,0.23-0.56,0.53-0.71,0.87c-0.14,0.34-0.15,0.72-0.1,1.08
		c0.06,0.37,0.14,0.8,0.32,0.97c0.18,0.2,0.5,0.31,0.85,0.37c0.71,0.1,1.52,0.01,2.31-0.11C68.99,112.69,70.57,112.19,72.14,111.71z
		"/>
	<path class="st0" d="M97.78,104.49c-0.49-0.65-1.18-1.19-1.89-1.67c-1.44-0.96-3.07-1.59-4.69-2.22c-1.63-0.62-3.2-1.35-4.78-2.03
		c-0.79-0.33-1.59-0.66-2.39-0.96c-0.65-0.24-1.32-0.48-2-0.65c0.01,0.16,0.02,0.32,0.03,0.48c0.05,1.16,0.08,2.31,0.11,3.47
		c0.62,0.3,1.27,0.53,1.92,0.77l2.16,0.78c1.44,0.53,2.88,1.1,4.3,1.75c0.7,0.33,1.4,0.69,2.07,1.08c0.34,0.2,0.68,0.42,1.01,0.63
		c0.33,0.21,0.61,0.4,0.93,0.57c0.62,0.33,1.28,0.57,1.92,0.6c0.32,0.01,0.63-0.02,0.92-0.13c0.27-0.1,0.56-0.3,0.72-0.48
		c0.16-0.3,0.23-0.62,0.16-0.96C98.22,105.17,98.03,104.81,97.78,104.49z"/>
	<path class="st0" d="M106.65,73c-0.44-0.68-0.86-1.37-1.29-2.06c-0.59,0.78-1.09,1.61-1.62,2.43c-0.6,0.95-1.2,1.92-1.92,2.83
		c-0.7,0.9-1.42,1.82-1.86,2.88c-0.21,0.51-0.39,1.07-0.4,1.6c-0.03,0.52,0.17,0.93,0.53,1.09c0.68,0.12,1.38-0.48,1.76-1.31
		c0.19-0.39,0.39-0.92,0.62-1.4c0.24-0.48,0.49-0.95,0.77-1.39c0.55-0.9,1.16-1.75,1.79-2.58C105.56,74.38,106.14,73.71,106.65,73z"
		/>
	<path class="st0" d="M105.7,80.95c-0.21,0.42-0.47,0.93-0.77,1.37c-0.29,0.45-0.6,0.88-0.86,1.32c-0.25,0.44-0.49,0.91-0.56,1.4
		c-0.09,0.48,0.06,0.94,0.42,1.21c0.17,0.14,0.4,0.26,0.59,0.33c0.16,0.04,0.28,0.01,0.43-0.08c0.29-0.18,0.6-0.56,0.86-0.96
		c0.54-0.8,0.94-1.74,1.37-2.66c0.84-1.8,1.66-3.63,2.56-5.47c-0.37-0.49-0.74-0.98-1.1-1.49C107.64,77.66,106.55,79.27,105.7,80.95
		z"/>
	<path class="st0" d="M109.52,69.35c-1.14,0.27-2.26,0.6-3.39,0.99c0.39,0.73,0.79,1.47,1.2,2.2c0.45-0.12,0.9-0.26,1.35-0.4
		l1.7-0.56c1.14-0.36,2.29-0.72,3.47-0.99c1.17-0.28,2.41-0.48,3.67-0.46c1.07,0.04,2.13-0.33,2.31-1.11
		c-0.01-0.21-0.08-0.4-0.25-0.56c-0.18-0.17-0.44-0.31-0.73-0.4c-0.58-0.18-1.23-0.22-1.86-0.19c-1.27,0.05-2.51,0.44-3.76,0.73
		C111.97,68.86,110.75,69.04,109.52,69.35z"/>
	<path class="st0" d="M67.95,62.88l-0.01,0.01l-0.04,0.01c-0.9,0.13-1.73-0.26-2.29-0.87c-0.22-0.24-0.39-0.5-0.54-0.77
		c-0.38-0.02-0.67-0.04-0.92,0.08c0.46,1.72,0.87,3.45,1.24,5.19c0.96-0.26,1.94-0.43,2.93-0.58c1-0.13,2.01-0.21,3.02-0.28
		c1.01-0.06,2.01-0.22,3-0.14c0.8,0.06,1.58,0.15,2.39,0.26c-0.16-1.11-0.31-2.23-0.44-3.34c-0.73-0.08-1.46-0.12-2.18-0.14
		c-0.83-0.03-1.66,0.09-2.48-0.03c-0.41-0.06-0.83-0.11-1.24-0.21c-0.4-0.08-0.8-0.18-1.2-0.35c-0.05,0.12-0.1,0.22-0.17,0.33
		C68.79,62.44,68.38,62.73,67.95,62.88z"/>
	<path class="st0" d="M121.98,78.45c-0.44-0.22-0.94-0.36-1.44-0.42c-1.01-0.14-2.05,0.03-3.04,0.07c-1.91,0.1-3.79,0.57-5.62,1.43
		c0.28,0.34,0.58,0.67,0.9,0.97c0.99,0.23,1.97,0.05,2.96-0.1c1.01-0.15,2-0.41,3.24-0.32c0.65,0.09,1.14,0.29,1.62,0.47
		c0.47,0.17,0.94,0.35,1.31,0.38c0.38,0.01,0.55-0.03,0.77-0.37c0.1-0.16,0.19-0.39,0.24-0.59c0.05-0.19,0.06-0.38,0.01-0.58
		C122.8,79.01,122.41,78.67,121.98,78.45z"/>
	<path class="st0" d="M65.28,96.74c1.64-0.92,3.4-1.52,5.14-2.02c1.75-0.51,3.52-0.92,5.28-1.32c0.88-0.19,1.77-0.37,2.65-0.58
		c0.75-0.17,1.52-0.33,2.24-0.59c-0.14-1.26-0.28-2.52-0.43-3.77c-1.72,0.2-3.4,0.5-5.05,0.9c-0.94,0.22-1.86,0.49-2.77,0.77
		l-2.74,0.92c-1.85,0.6-3.75,1.1-5.48,1.97c-0.86,0.43-1.7,0.94-2.36,1.6c-0.33,0.33-0.6,0.7-0.74,1.09
		c-0.14,0.38-0.1,0.75,0.05,1.09c0.18,0.23,0.51,0.48,0.83,0.59c0.34,0.12,0.71,0.15,1.09,0.13C63.75,97.46,64.54,97.16,65.28,96.74
		z"/>
	<path class="st0" d="M119.4,74.27c0.48-0.21,0.95-0.46,1.29-0.74c0.36-0.31,0.44-0.47,0.2-1.02c-0.18-0.46-0.58-0.76-1.11-0.78
		c-0.52-0.04-1.06,0.12-1.58,0.3c-0.52,0.19-1.03,0.44-1.56,0.66c-0.53,0.23-1.09,0.4-1.58,0.55c-1.98,0.63-3.92,1.54-5.97,2.3
		c0.34,0.55,0.7,1.1,1.06,1.64c2.09-0.61,4.14-1.23,6.17-1.86C117.37,75,118.43,74.69,119.4,74.27z"/>
	<path class="st0" d="M113.23,88.09c-0.14-0.18-0.26-0.38-0.36-0.6c-0.21-0.44-0.26-0.94-0.3-1.31c-0.04-0.39-0.09-0.73-0.18-1.08
		l-0.05-0.16l0.04-0.15c0.06-0.22,0.1-0.59,0.11-0.92l0.05-1.06c0.03-0.71,0.05-1.41,0.12-2.14c-0.35-0.29-0.68-0.6-0.99-0.93
		c-1.28,1.04-1.25,2.56-1.28,4.11l-0.02,1.17c0,0.35,0.05,0.72,0.1,1.08c0.12,0.74,0.34,1.5,0.63,2.21
		c0.29,0.71,0.58,1.47,1.08,1.99c0.24,0.24,0.57,0.33,0.87,0.17c0.29-0.16,0.5-0.51,0.57-0.87c0.08-0.37,0.03-0.75-0.11-1.07
		C113.44,88.37,113.37,88.28,113.23,88.09z"/>
	<path class="st0" d="M44.86,39.2l0.98,0.94c0.34,0.33,0.67,0.65,0.99,0.99c0.62,0.69,1.25,1.37,1.82,2.09
		c1.17,1.43,2.26,2.9,3.33,4.38l1.59,2.23c0.53,0.72,1.04,1.44,1.63,2.11c0.92-0.74,1.85-1.48,2.8-2.18
		c-0.64-1.17-1.34-2.3-2.08-3.41c-1.12-1.67-2.38-3.21-3.57-4.86c-1.2-1.64-2.35-3.32-3.8-4.73c-0.73-0.69-1.52-1.35-2.4-1.77
		c-0.44-0.22-0.91-0.33-1.35-0.36c-0.43,0-0.8,0.18-1.12,0.42c-0.18,0.25-0.32,0.64-0.35,0.99c-0.03,0.37,0.02,0.74,0.14,1.11
		C43.75,37.91,44.26,38.59,44.86,39.2z"/>
	<path class="st0" d="M52.64,35.81c0.53,0.54,1.22,1.16,1.81,1.76c0.58,0.64,1.17,1.26,1.7,1.93c1.09,1.33,2.09,2.71,2.99,4.17
		c0.73,1.25,1.48,2.53,1.93,3.92c0.85-0.58,1.72-1.15,2.6-1.69c-0.01-0.48-0.08-0.94-0.18-1.4c-0.21-0.84-0.54-1.66-0.96-2.43
		c-0.83-1.55-1.99-2.92-3.02-4.46c-1.05-1.49-2.09-3.02-3.42-4.26c-0.67-0.62-1.38-1.2-2.2-1.55c-0.4-0.17-0.82-0.28-1.21-0.26
		c-0.38,0.01-0.7,0.18-0.97,0.42c-0.16,0.22-0.31,0.59-0.34,0.92c-0.05,0.34-0.01,0.69,0.1,1.03
		C51.66,34.59,52.11,35.24,52.64,35.81z"/>
	<path class="st0" d="M60.86,32.85l0.66,0.89c0.23,0.31,0.44,0.63,0.65,0.94c0.4,0.65,0.81,1.29,1.15,1.96
		c0.72,1.32,1.37,2.67,1.99,4.03l0.92,2.04c0.2,0.45,0.41,0.9,0.63,1.34c0.65-0.35,1.31-0.69,1.99-1.01
		c0.31-0.15,0.61-0.28,0.92-0.42c-0.2-0.52-0.46-1.03-0.7-1.53c-0.33-0.67-0.68-1.33-1.03-1.99c-0.7-1.32-1.4-2.66-2-4.04
		c-0.62-1.37-1.26-2.77-2.19-3.95c-0.46-0.59-0.97-1.16-1.59-1.53c-0.31-0.19-0.63-0.31-0.94-0.34c-0.29-0.03-0.57,0.06-0.81,0.22
		c-0.16,0.17-0.33,0.46-0.4,0.73c-0.07,0.28-0.09,0.58-0.05,0.89C60.17,31.67,60.47,32.28,60.86,32.85z"/>
	<path class="st0" d="M66.07,50.47c-0.51-1.01-1.16-2.01-2.11-2.67c-0.62,0.44-1.22,0.88-1.83,1.33c0.6,0.83,1.06,1.77,1.48,2.7
		c0.56,1.26,1.02,2.55,1.4,3.88c0.19,0.66,0.33,1.34,0.47,2.01c0.12,0.67,0.2,1.41,0.31,1.99c0.13,0.6,0.33,1.17,0.68,1.6
		c0.16,0.22,0.36,0.4,0.59,0.53c0.21,0.13,0.51,0.21,0.71,0.22c0.27-0.06,0.51-0.17,0.68-0.39c0.19-0.22,0.32-0.53,0.4-0.87
		c0.16-0.67,0.11-1.41,0.01-2.12c-0.19-1.44-0.75-2.82-1.27-4.19C67.05,53.1,66.69,51.72,66.07,50.47z"/>
	<path class="st0" d="M71,46.04c-0.34-0.71-0.75-1.4-1.34-1.93c-0.06,0.04-0.13,0.07-0.19,0.11c-0.47,0.27-0.92,0.56-1.38,0.84
		c0.45,0.62,0.81,1.31,1.13,1.98c0.47,1.01,0.85,2.05,1.16,3.12c0.17,0.53,0.27,1.08,0.39,1.62c0.09,0.54,0.16,1.15,0.23,1.6
		c0.1,0.47,0.25,0.92,0.5,1.25c0.12,0.17,0.27,0.31,0.44,0.41c0.15,0.1,0.38,0.16,0.51,0.18c0.41-0.06,0.73-0.41,0.84-0.94
		c0.13-0.53,0.1-1.12,0.02-1.7c-0.16-1.16-0.62-2.25-1.07-3.34C71.77,48.13,71.48,47.03,71,46.04z"/>
	<path class="st0" d="M69.13,33.22c0.13,0.28,0.25,0.55,0.37,0.83c0.21,0.56,0.44,1.11,0.6,1.67c0.36,1.13,0.65,2.27,0.92,3.41
		c0.22,0.91,0.38,1.84,0.61,2.75c0.64-0.23,1.29-0.44,1.95-0.6c0.14-0.03,0.27-0.06,0.42-0.09c-0.23-0.96-0.57-1.89-0.86-2.83
		c-0.36-1.11-0.7-2.23-0.93-3.4c-0.25-1.16-0.52-2.32-1.06-3.36c-0.27-0.52-0.59-1.02-1.01-1.38c-0.4-0.37-0.86-0.48-1.24-0.3
		c-0.12,0.1-0.28,0.29-0.36,0.47c-0.08,0.19-0.13,0.4-0.14,0.63c-0.01,0.45,0.14,0.94,0.36,1.42L69.13,33.22z"/>
	<path class="st0" d="M41.28,79.74c-0.55-1.81-0.92-3.63-1.44-5.41c-0.46-1.6-0.97-3.2-1.67-4.72c-0.95,0.83-1.9,1.65-2.86,2.46
		c0.14,0.62,0.32,1.24,0.49,1.85l0.71,2.45c0.46,1.64,0.9,3.29,1.25,4.97c0.2,0.83,0.32,1.69,0.46,2.54
		c0.11,0.84,0.16,1.78,0.25,2.54c0.11,0.78,0.31,1.55,0.71,2.14c0.19,0.31,0.45,0.55,0.73,0.74c0.27,0.18,0.65,0.3,0.94,0.32
		c0.36-0.07,0.7-0.23,0.95-0.53c0.27-0.3,0.43-0.72,0.55-1.14c0.23-0.87,0.21-1.82,0.15-2.75C42.35,83.35,41.79,81.54,41.28,79.74z"
		/>
	<path class="st0" d="M75.91,45.97c-0.18-0.38-0.34-0.81-0.48-1.19c-0.12-0.38-0.27-0.76-0.43-1.12c-0.27-0.58-0.58-1.15-1.09-1.59
		c-0.03,0.01-0.06,0.02-0.09,0.03c-0.36,0.13-0.71,0.28-1.06,0.43c0.49,0.51,0.85,1.14,1.18,1.75c0.37,0.74,0.67,1.5,0.9,2.29
		c0.12,0.39,0.21,0.8,0.29,1.2c0.06,0.4,0.12,0.86,0.16,1.17c0.08,0.5,0.29,0.91,0.57,1.12c0.55-0.08,0.81-0.19,0.88-0.76
		c0.08-0.49-0.53-1.95-0.42-2.43C76.19,46.57,76.05,46.27,75.91,45.97z"/>
	<path class="st0" d="M48.79,73.58c-0.74-1.83-1.3-3.68-2.03-5.48c-0.59-1.48-1.23-2.95-2.02-4.35c-0.97,0.88-1.94,1.76-2.91,2.63
		c0.16,0.42,0.32,0.83,0.47,1.25l1,2.54c0.66,1.7,1.29,3.42,1.85,5.17c0.29,0.87,0.53,1.76,0.76,2.66c0.11,0.45,0.21,0.9,0.3,1.36
		l0.25,1.33c0.18,0.83,0.47,1.64,0.94,2.26c0.24,0.31,0.53,0.56,0.85,0.74c0.31,0.17,0.73,0.27,1.04,0.26
		c0.38-0.1,0.72-0.31,0.95-0.65c0.25-0.34,0.38-0.8,0.46-1.25c0.15-0.93,0.04-1.91-0.12-2.87C50.23,77.24,49.49,75.42,48.79,73.58z"
		/>
	<path class="st0" d="M26.02,51.4c0.51,0.71,1.26,1.28,2.09,1.75c1.82,1.07,3.36,2.41,4.82,3.8c1.48,1.38,2.85,2.85,4.23,4.3
		c0.68,0.74,1.35,1.48,2.04,2.19c0.59,0.62,1.18,1.25,1.83,1.78c0.98-0.93,1.95-1.87,2.92-2.81c-1.04-1.67-2.3-3.18-3.64-4.58
		c-0.72-0.73-1.44-1.45-2.22-2.12l-2.35-2.02c-1.57-1.37-3.09-2.8-4.86-3.9c-0.88-0.54-1.81-1.02-2.79-1.27
		c-0.49-0.12-0.99-0.15-1.43-0.06c-0.44,0.08-0.77,0.33-1.02,0.66c-0.14,0.31-0.19,0.78-0.11,1.16
		C25.58,50.67,25.77,51.05,26.02,51.4z"/>
	<path class="st0" d="M58.86,51.63c-0.98,0.76-1.96,1.53-2.93,2.3c0.2,0.54,0.42,1.07,0.64,1.6l1.05,2.53
		c0.7,1.69,1.36,3.39,1.96,5.13c0.31,0.86,0.57,1.75,0.81,2.64c0.12,0.45,0.23,0.9,0.32,1.36l0.27,1.32c0.2,0.83,0.5,1.62,0.99,2.24
		c0.25,0.3,0.54,0.55,0.87,0.72c0.31,0.17,0.73,0.26,1.04,0.24c0.38-0.13,0.73-0.34,0.96-0.71c0.21-0.38,0.38-0.83,0.42-1.31
		c0.12-0.97-0.03-1.98-0.22-2.96c-0.42-1.97-1.25-3.83-2-5.71c-0.77-1.89-1.41-3.76-2.24-5.59C60.21,54.15,59.58,52.87,58.86,51.63z
		"/>
	<path class="st0" d="M19,59.7c0.53,0.61,1.29,1.08,2.11,1.44c1.8,0.8,3.43,1.86,4.98,2.98c1.55,1.1,3.04,2.3,4.52,3.48
		c0.73,0.6,1.46,1.21,2.2,1.8c0.68,0.53,1.34,1.09,2.07,1.54c0.92-0.83,1.83-1.66,2.74-2.5c-1.21-1.27-2.49-2.46-3.83-3.57
		c-0.78-0.66-1.6-1.27-2.42-1.88l-2.53-1.75c-0.84-0.6-1.68-1.21-2.53-1.8c-0.85-0.59-1.72-1.16-2.65-1.62
		c-0.92-0.46-1.88-0.85-2.87-1.01c-0.49-0.07-0.99-0.08-1.43,0.05c-0.42,0.12-0.73,0.38-0.94,0.73c-0.1,0.3-0.1,0.74,0.01,1.08
		C18.53,59.05,18.73,59.39,19,59.7z"/>
	<path class="st0" d="M33.69,45.97c0.47,0.68,1.17,1.25,1.95,1.71c1.68,0.96,3.28,2.14,4.76,3.38c1.49,1.23,2.91,2.52,4.32,3.83
		l2.1,1.96c0.47,0.44,0.95,0.87,1.44,1.29l0.5-0.51l0.87-0.87l0.94-0.85c0.16-0.14,0.31-0.28,0.47-0.41c-1-1.19-2.09-2.29-3.21-3.35
		c-1.46-1.39-3.03-2.61-4.57-3.97c-1.53-1.34-3.03-2.73-4.77-3.79c-0.86-0.52-1.78-0.99-2.74-1.21c-0.47-0.1-0.96-0.14-1.39-0.05
		c-0.42,0.09-0.75,0.33-0.99,0.65c-0.13,0.3-0.18,0.74-0.12,1.1C33.3,45.27,33.47,45.63,33.69,45.97z"/>
	<path class="st0" d="M33.99,85.21c-0.48-1.77-0.83-3.56-1.22-5.34c-0.36-1.57-0.7-3.16-1.19-4.71c-0.03,0.03-0.07,0.06-0.1,0.08
		c-0.94,0.78-1.9,1.51-2.87,2.25c0.25,1.55,0.67,3.08,0.99,4.63c0.35,1.59,0.66,3.19,0.91,4.81c0.12,0.81,0.21,1.62,0.29,2.45
		c0.07,0.82,0.07,1.67,0.16,2.39c0.09,0.74,0.31,1.46,0.68,2.03c0.19,0.28,0.42,0.53,0.7,0.71c0.26,0.18,0.62,0.3,0.88,0.32
		c0.36-0.06,0.7-0.21,0.95-0.48c0.27-0.29,0.46-0.68,0.58-1.09c0.25-0.84,0.28-1.77,0.24-2.67C34.92,88.77,34.44,86.98,33.99,85.21z
		"/>
	<path class="st0" d="M56.29,66.75c-0.75-1.89-1.36-3.77-2.16-5.62c-0.6-1.39-1.25-2.77-2.02-4.1l-0.31,0.26l-0.92,0.78l-0.9,0.83
		l-0.69,0.64c0.19,0.55,0.4,1.08,0.62,1.63l1.01,2.53c0.66,1.7,1.31,3.41,1.88,5.16c0.3,0.87,0.54,1.76,0.78,2.65
		c0.11,0.45,0.21,0.9,0.3,1.36l0.25,1.33c0.18,0.83,0.48,1.63,0.96,2.25c0.25,0.3,0.53,0.56,0.86,0.73
		c0.31,0.17,0.72,0.27,1.03,0.26c0.38-0.13,0.73-0.33,0.97-0.69c0.22-0.38,0.39-0.83,0.44-1.31c0.13-0.96,0.01-1.98-0.18-2.96
		C57.82,70.51,57.02,68.64,56.29,66.75z"/>
	<path class="st0" d="M101.86,40.25c-0.54,0.01-1.1,0.19-1.62,0.41c-1.06,0.44-1.99,1.16-2.91,1.86c-0.93,0.72-1.9,1.27-2.73,1.97
		c-0.51,0.44-1,0.92-1.36,1.49c0.42,0.47,0.81,0.96,1.18,1.45c0.47-0.57,1.03-1.07,1.59-1.55c0.84-0.7,1.74-1.32,2.68-1.89
		c0.46-0.29,0.96-0.53,1.44-0.78c0.49-0.22,1.05-0.45,1.47-0.63c0.86-0.38,1.49-1.08,1.37-1.8
		C102.8,40.43,102.39,40.23,101.86,40.25z"/>
	<path class="st0" d="M75.94,43.16c0.25,0.4,0.46,0.82,0.6,1.26c0.1,0.29,0.15,0.56,0.2,0.84c0.15-0.45,0.31-0.89,0.52-1.32
		l-0.01-0.06c-0.19-0.81-0.35-1.62-0.64-2.41v-0.01c-0.01-0.01,0-0.03,0-0.03c-0.7,0.06-1.4,0.22-2.07,0.44
		c0.14,0.08,0.29,0.15,0.42,0.24C75.36,42.39,75.69,42.76,75.94,43.16z"/>
	<path class="st0" d="M89.39,53.03c0.03,0.03,0.06,0.05,0.1,0.08c0.17-0.49,0.39-0.96,0.62-1.42c0.26-0.5,0.55-0.98,0.86-1.45
		c0.32-0.46,0.57-1,1.05-1.34c0.21-0.16,0.46-0.31,0.71-0.43c-0.14-0.2-0.29-0.39-0.44-0.59c-0.68,0.64-1.35,1.3-1.99,1.95
		c-0.4,0.42-0.7,0.94-1.17,1.28c-0.44,0.33-0.89,0.65-1.49,0.89c0.02,0.01,0.03,0.02,0.05,0.03C88.26,52.33,88.85,52.62,89.39,53.03
		z"/>
	<path class="st0" d="M97.42,37.12c-0.44,0.07-0.86,0.28-1.27,0.53c-0.81,0.49-1.47,1.21-2.1,1.92c-0.63,0.73-1.34,1.37-2.05,1.98
		c-0.6,0.52-1.24,1.01-1.83,1.55c0.51,0.38,0.99,0.79,1.44,1.22c0.46-0.51,0.91-1.02,1.38-1.52c0.65-0.69,1.32-1.37,2.04-2
		c0.34-0.33,0.73-0.62,1.12-0.92c0.2-0.14,0.4-0.28,0.61-0.42l0.58-0.37c0.34-0.22,0.64-0.49,0.81-0.78
		c0.09-0.15,0.14-0.3,0.18-0.44c0.03-0.14,0-0.34-0.02-0.43C98.16,37.17,97.85,37.05,97.42,37.12z"/>
	<path class="st0" d="M106.55,43.93c-0.23-0.08-0.52-0.13-0.83-0.11c-0.6,0.04-1.22,0.25-1.8,0.5c-1.17,0.51-2.19,1.32-3.23,2.06
		c-1.06,0.76-2.14,1.37-3.18,2.09c-0.54,0.37-1.08,0.75-1.61,1.15c0.08,0.13,0.17,0.26,0.25,0.39c0.29,0.48,0.57,0.97,0.83,1.46
		c0.8-0.55,1.56-1.16,2.37-1.71c0.94-0.67,1.9-1.33,2.91-1.93c0.5-0.31,1.03-0.58,1.55-0.85c0.27-0.13,0.54-0.25,0.82-0.37
		l0.79-0.33c0.48-0.21,0.91-0.49,1.21-0.82c0.14-0.17,0.25-0.35,0.32-0.54c0.07-0.17,0.07-0.42,0.05-0.56
		C106.91,44.2,106.77,44.03,106.55,43.93z"/>
	<path class="st0" d="M86.73,49.07c0.12-0.22,0.31-0.59,0.47-0.9c0.19-0.3,0.38-0.6,0.6-0.89c0.43-0.56,0.92-1.08,1.45-1.56
		c0.22-0.19,0.46-0.39,0.7-0.56c-0.23-0.23-0.47-0.46-0.71-0.67c-0.2,0.16-0.38,0.33-0.55,0.51c-0.23,0.24-0.46,0.49-0.67,0.77
		c-0.23,0.26-0.49,0.55-0.76,0.8c-0.55,0.51-1.12,1.03-1.46,1.68c-0.17,0.31-0.31,0.66-0.33,0.99c-0.01,0.16,0.01,0.31,0.06,0.42
		c0.06,0.1,0.14,0.15,0.24,0.19l-0.05-0.03C86.07,49.85,86.45,49.57,86.73,49.07z"/>
	<path class="st0" d="M88.41,58.03c0.54,0.28,1.09,0.55,1.62,0.83c0.21,0.1,0.42,0.22,0.62,0.33c0.3-0.64,0.66-1.25,1.03-1.86
		c0.4-0.64,0.83-1.25,1.27-1.85c0.44-0.6,0.8-1.28,1.34-1.78c0.35-0.34,0.72-0.65,1.12-0.94c-0.31-0.55-0.63-1.09-0.96-1.62
		c-0.31,0.34-0.61,0.68-0.9,1.03c-0.6,0.67-1.18,1.37-1.74,2.07c-0.57,0.7-1.01,1.49-1.64,2.13C89.64,56.95,89.08,57.51,88.41,58.03
		z"/>
	<path class="st0" d="M126.89,12c-4.58,0.04-9.1,1.05-13.4,2.62c-4.44,1.65-8.69,3.83-12.72,6.35c-4.04,2.52-7.87,5.39-11.56,8.43
		c-1.84,1.52-3.63,3.12-5.38,4.75c-1.62,1.5-3.18,3.05-4.71,4.64c-0.06,0.35-0.14,0.71-0.24,1.05c-0.15,0.44-0.29,0.89-0.58,1.28
		c0.3-0.12,0.6-0.22,0.91-0.32c3.41-3.33,7-6.48,10.71-9.49c3.79-3.06,7.74-5.95,11.87-8.58c4.14-2.59,8.48-4.94,13.11-6.67
		c2.32-0.85,4.71-1.57,7.18-1.98c1.94-0.32,3.93-0.46,5.92-0.32L126.89,12z"/>
	<path class="st0" d="M92.89,62.41l-0.02,0.03c-0.43,0.82-1.28,1.23-2.11,1.28c-0.28,0.02-0.55-0.01-0.82-0.05
		c0.04,0.27,0.13,0.64,0.21,0.93c0.72,0.29,1.43,0.59,2.14,0.89c0.37-0.76,0.82-1.49,1.27-2.21c0.5-0.75,1.02-1.5,1.53-2.24
		c0.53-0.74,0.97-1.53,1.6-2.18c0.43-0.44,0.88-0.85,1.36-1.24c-0.09-0.18-0.18-0.36-0.27-0.55c-0.23-0.42-0.46-0.85-0.69-1.28
		c-0.19,0.18-0.37,0.36-0.55,0.54c-0.48,0.48-0.95,0.97-1.4,1.46c-0.46,0.49-0.81,1.08-1.34,1.5c-0.47,0.37-0.95,0.73-1.54,1.01
		c0.21,0.21,0.4,0.44,0.54,0.73c0.19,0.4,0.22,0.92,0.08,1.36V62.41z"/>
	<path class="st0" d="M78.03,41.17c0.06-0.46,0.05-0.96,0.06-1.43l0.02-1.56c0.01-1.04,0.1-2.09,0.27-3.14
		c0.16-1.05,0.27-2.1,0.12-3.14c-0.08-0.51-0.2-1.03-0.45-1.44c-0.12-0.21-0.28-0.37-0.45-0.47c-0.16-0.09-0.32-0.11-0.49-0.1
		c-0.66,0.24-0.95,1.11-0.86,2.02c0.05,0.43,0.12,1.03,0.16,1.55c0.01,0.53,0.05,1.07,0.01,1.59c-0.04,1.05-0.14,2.09-0.27,3.12
		c-0.11,0.94-0.29,1.86-0.39,2.79c0.12-0.01,0.24-0.02,0.36-0.02C76.75,40.91,77.42,40.97,78.03,41.17z"/>
	<path class="st0" d="M87.31,35.59c-0.17-0.01-0.33,0.22-0.43,0.46c-0.19,0.49-0.14,1.1-0.25,1.64c-0.11,0.54-0.32,1.03-0.52,1.54
		l-0.57,1.34c0.01,0.02,0.02,0.05,0,0.07c-0.01,0.01-0.01,0.02-0.03,0.02l-0.02,0.01l-0.01,0.03c0.44,0.12,0.86,0.26,1.27,0.43
		c0.05-0.51,0.07-0.98,0.14-1.48c0.07-0.52,0.19-1.05,0.38-1.57c0.09-0.26,0.21-0.51,0.34-0.74c0.12-0.21,0.22-0.39,0.29-0.57
		c0.12-0.36,0.14-0.65-0.01-0.91C87.7,35.71,87.48,35.58,87.31,35.59z"/>
	<path class="st0" d="M84.69,45.03c-0.12,0.24-0.22,0.49-0.22,0.72c-0.01,0.12,0.02,0.22,0.07,0.27c0.04,0.05,0.09,0.06,0.15,0.07
		l-0.05-0.03C84.8,46,85,45.87,85.19,45.51c0.06-0.15,0.21-0.44,0.33-0.66c0.14-0.23,0.28-0.45,0.44-0.65
		c0.32-0.42,0.7-0.8,1.11-1.13c0.05-0.04,0.1-0.08,0.15-0.12c-0.12-0.08-0.25-0.15-0.37-0.22l-0.46,0.56
		c-0.16,0.18-0.37,0.38-0.58,0.56C85.38,44.21,84.93,44.56,84.69,45.03z"/>
	<path class="st0" d="M93.06,35.75c-0.11-0.03-0.27-0.02-0.42,0.04c-0.32,0.1-0.62,0.31-0.89,0.56c-0.56,0.49-0.94,1.15-1.3,1.8
		c-0.18,0.33-0.38,0.65-0.58,0.96c-0.21,0.3-0.46,0.58-0.69,0.87c-0.45,0.55-0.96,1.05-1.42,1.6c0.09,0.03,0.18,0.06,0.25,0.12
		c0.01,0.01,0.01,0.02,0.02,0.03c0.34,0.18,0.67,0.37,0.99,0.58c0.31-0.54,0.6-1.09,0.92-1.63c0.38-0.64,0.79-1.26,1.24-1.86
		c0.23-0.3,0.47-0.59,0.74-0.87c0.13-0.13,0.27-0.27,0.42-0.4l0.4-0.36c0.47-0.43,0.67-0.91,0.54-1.26l0.04,0.03
		C93.25,35.85,93.18,35.78,93.06,35.75z"/>
	<path class="st0" d="M83.9,42.14c-0.16,0.18-0.37,0.39-0.58,0.56c-0.42,0.35-0.88,0.71-1.12,1.18c-0.12,0.23-0.22,0.48-0.22,0.71
		c-0.01,0.12,0.03,0.22,0.07,0.27c0.04,0.05,0.09,0.06,0.15,0.07l-0.05-0.03c0.16-0.06,0.35-0.19,0.54-0.55
		c0.06-0.15,0.21-0.44,0.33-0.66c0.14-0.22,0.28-0.45,0.44-0.65c0.33-0.41,0.7-0.79,1.11-1.13c0.07-0.05,0.14-0.11,0.21-0.16
		c-0.15-0.06-0.3-0.1-0.45-0.15L83.9,42.14z"/>
</g>
</svg>
