<?xml version="1.0" encoding="utf-8"?>
<!-- Generator: Adobe Illustrator 24.1.2, SVG Export Plug-In . SVG Version: 6.00 Build 0)  -->
<svg version="1.1" id="Layer_1" xmlns="http://www.w3.org/2000/svg" xmlns:xlink="http://www.w3.org/1999/xlink" x="0px" y="0px"
	 viewBox="0 0 128 128" style="enable-background:new 0 0 128 128;" xml:space="preserve">
<style type="text/css">
	.st0{fill:#2D2D2D;}
</style>
<g>
	<path class="st0" d="M73.67,94.31l-0.39-0.96l-0.17-0.4l-0.22-0.45c-0.14-0.3-0.31-0.62-0.46-0.92c-0.34-0.61-0.68-1.21-1.03-1.82
		c-0.7-1.21-1.44-2.42-2.18-3.62L67,82.5l-2.06-3.43c-0.81-0.45-1.5-0.95-2.12-1.5c-0.71-0.61-1.38-1.24-2.03-1.87
		c-1.3-1.28-2.54-2.58-3.8-3.84c-1.25-1.27-2.53-2.52-3.92-3.61c-1.16-0.94-2.4-1.8-3.8-2.39c0,0.05,0,0.11-0.01,0.16
		c-0.14,0.99-0.18,2.05-0.71,2.98c-0.12,0.23-0.28,0.45-0.42,0.67c-0.16,0.21-0.32,0.43-0.53,0.61c-0.16,0.18-0.33,0.33-0.53,0.48
		c-0.16,1.57-0.51,3.14-1.31,4.62c-0.33,0.54-0.64,1.08-0.94,1.64c1.01,0.58,2.02,1.16,3.05,1.71c1.19,0.64,2.37,1.28,3.58,1.86
		c1.2,0.61,2.43,1.13,3.65,1.61c1.22,0.48,2.51,0.84,3.64,0.86l0.64,0.02l0.18,0.6c0.15,0.46,0.55,1.05,0.93,1.59
		c0.4,0.54,0.84,1.07,1.29,1.61c0.91,1.05,1.86,2.11,2.82,3.15c1.92,2.11,3.89,4.17,5.88,6.22c0.5,0.51,1.03,1.04,1.47,1.64
		c0.22,0.29,0.42,0.61,0.61,0.92c0.12,0.23,0.36,0.39,0.63,0.41c0.03,0.01,0.06,0,0.09,0c0.17-0.05,0.32-0.11,0.49-0.16
		c0.04-0.04,0.08-0.07,0.12-0.12l0.77-0.76c0.51-0.52,1.02-1.01,1.54-1.51c1.05-1,2.1-1.97,3.19-2.92c0.55-0.48,1.11-0.94,1.71-1.38
		c0.1-0.07,0.21-0.14,0.31-0.21c-0.12,0.01-0.25,0.01-0.37,0.03c-0.74,0.08-1.49,0.2-2.24,0.36c-0.75,0.16-1.49,0.35-2.22,0.58
		c-0.71,0.22-1.49,0.49-2.04,0.76L73.67,94.31z"/>
	<path class="st0" d="M47.18,66.99c0.21-0.43,0.38-0.86,0.54-1.31c0.29-0.89,0.53-1.82,0.75-2.75c0.22-0.88,0.38-1.77,0.53-2.68
		c-1.08-0.38-2.14-0.8-3.19-1.24c0.5,1.65,0.81,3.31,1.03,4.99c0.14,1.04,0.23,2.07,0.28,3.13C47.15,67.08,47.16,67.03,47.18,66.99z
		"/>
	<path class="st0" d="M71.78,64.83l0.05,0.02c0.02,0,0.03-0.01,0.05-0.01C71.84,64.84,71.81,64.84,71.78,64.83z"/>
	<path class="st0" d="M39.36,105.45l2.18,1.31c0.72,0.39,1.46,0.79,2.22,1.13c1.8,0.85,3.66,1.59,5.6,2.13
		c3.87,1.07,7.92,1.48,11.92,1.29c4-0.2,7.95-0.82,11.72-1.94c2.33-0.71,4.59-1.64,6.65-2.83l2.72-1.19
		c0.99-0.68,2.42-2.32,3.11-3.3c0.76-1.07,1.55-2.91,1.55-2.91c0.86-1.74,1.09-3.07,1.78-4.91c0.67-1.81,1.32-3.64,1.88-5.51
		l0.32-1.05l0.12-0.45c0.12-0.48,0.36-1.05,0.72-1.47c0.61-0.74,1.62-1.2,2.57-1c0.02-0.03,0.04-0.05,0.07-0.08
		c0.69-0.77,1.32-1.6,1.92-2.45c-1.61-0.3-3.27,0.09-4.71,0.71c-1.61,0.66-2.74,1.96-3.52,3.41c-0.54,1.08-0.86,2.28-1.09,3.52
		l-0.13,0.74c-0.03,0.22-0.07,0.45-0.11,0.68c-0.26,1.75-0.56,3.59-1.1,5.41c-0.28,0.91-0.64,1.8-1.08,2.67
		c-0.45,0.9-1.03,1.71-1.69,2.45c-0.5,0.54-1.02,1.02-1.57,1.48l-2.17,1.56c-0.28,0.17-0.56,0.34-0.84,0.51
		c-3.35,1.86-7.08,2.81-10.8,3.22c-3.72,0.43-7.44,0.35-11.14,0.01c-1.85-0.18-3.69-0.41-5.54-0.77c-1.83-0.37-3.64-0.88-5.41-1.53
		c-1.46-0.53-2.87-1.23-4.2-2.08l-2.32-1.71c-0.96-0.83-1.86-1.73-2.64-2.71c-2.07-2.53-3.47-5.52-4.15-8.61
		c-1.45-1.05-2.93-2.06-4.48-2.99c-0.52-0.3-1.05-0.61-1.57-0.9c0.5,3.6,1.86,6.98,3.92,9.87c2.24,3.15,5.2,5.73,8.5,7.84
		C38.84,105.14,39.11,105.29,39.36,105.45z"/>
	<path class="st0" d="M91.91,87.92c-0.05,0.31-0.11,0.63-0.17,0.94c-0.39,1.95-0.82,3.92-1.38,5.84c-0.25,0.86-0.53,1.71-0.82,2.56
		c0.31-0.25,0.63-0.5,0.95-0.75c1.88-1.51,3.73-3.07,5.51-4.69c1.77-1.63,3.55-3.28,5.1-5.05c1.56-1.79,2.99-3.71,4.32-5.7l0.98-1.5
		l0.24-0.37c0.04-0.1,0.11-0.18,0.15-0.28c0.08-0.19,0.09-0.4,0.09-0.61c-0.02-0.4-0.23-0.83-0.56-1.1
		c-0.33-0.28-0.76-0.4-1.23-0.36l-3.66,0.31c-0.46,0.03-0.89,0.25-1.18,0.6c-0.08,0.09-0.13,0.18-0.2,0.28l-0.19,0.38l-0.42,0.82
		c-1.16,2.17-2.56,4.22-4.29,5.98C94.16,86.24,93.06,87.14,91.91,87.92z"/>
	<path class="st0" d="M24.01,65.61c0.48,1.61,1.11,3.17,1.79,4.73l0.06,0.13l0.01,0.04c0.28,1.5,0.51,3,0.61,4.52
		c0.05,0.76,0.06,1.53,0.02,2.3c-0.04,0.65-0.1,1.32-0.37,1.93c0.78,0.29,1.57,0.58,2.35,0.89c1.45,0.46,2.78,1.14,4.06,1.89
		c1.28,0.76,2.46,1.63,3.63,2.52c2.15,1.68,4.16,3.51,6.03,5.48c0.23,0.24,0.56,0.35,0.9,0.3c0.41-0.06,0.83-0.11,1.24-0.16
		c0.67-0.09,1.35-0.17,2.02-0.24l0.36-0.04l0.18,0.44c0.22,0.54,0.41,1.09,0.63,1.64l0.16,0.4l0.07,0.21
		c0.01,0.03,0.02,0.02,0.03,0.03c0.01,0.01,0.03,0.01,0.04,0.01l0.02-0.01c0,0,0,0,0.03,0l0.1,0.01c0.58,0.05,1.15,0.07,1.71,0.08
		c0.28,0.01,0.55,0,0.8-0.02c0.12-0.01,0.25-0.03,0.34-0.05c0.41-0.52,0.64-1.08,0.63-1.7c0-0.17-0.02-0.35-0.05-0.53
		c-0.02-0.16-0.06-0.31-0.11-0.47c-0.12-0.3-0.3-0.59-0.54-0.82c-0.24-0.24-0.5-0.44-0.85-0.61l-1.28-0.61l-0.31-0.15
		c-0.08-0.04-0.17-0.08-0.25-0.11c-0.16-0.06-0.33-0.1-0.51-0.13c-0.18-0.03-0.35-0.04-0.53-0.04c-0.18,0.01-0.33,0.03-0.58,0.09
		l-1.35,0.27l-0.67,0.13c-0.3,0.09-0.7,0.13-1.03,0.07c-0.68-0.09-1.19-0.43-1.6-0.77c-0.21-0.15-0.48-0.43-0.62-0.69
		c-0.16-0.27-0.26-0.57-0.3-0.87s-0.01-0.61,0.06-0.89c0.04-0.15,0.09-0.26,0.13-0.37l0.12-0.32l0.51-1.32l1-2.64l1.96-5.3
		c0.52-1.64,0.59-3.46,0.7-5.26c0.2-3.52,0.07-7.14,0.08-10.74c-1.97-0.86-3.89-1.82-5.74-2.94c-0.54-0.32-1.06-0.67-1.57-1.02
		c-0.89,0.71-1.67,1.35-2.45,2.03c-0.78,0.69-1.65,1.3-2.42,2.02c-0.79,0.72-1.51,1.5-2.21,2.31c-0.71,0.8-1.4,1.63-2.05,2.49
		c-0.02,0.03-0.06,0.04-0.09,0.02c-0.02-0.02-0.03-0.06-0.02-0.08c0.48-0.98,1.05-1.9,1.64-2.81c0.61-0.9,1.25-1.79,1.98-2.63
		c0.71-0.82,1.41-1.73,2.38-2.33c0.92-0.59,1.58-1.08,2.67-1.43c-1.11-0.76-1.74-1.29-2.74-2.18c-0.77-0.68-1.5-1.39-2.17-2.17
		c-0.67-0.78-1.3-1.55-1.84-2.5l-0.04-0.08l-0.02-0.11c-0.16-1.29-0.21-2.54-0.22-3.82c-0.01-1.27,0.05-2.53,0.16-3.8
		c0.11-1.27,0.29-2.52,0.53-3.77c0.14-0.79,0.35-1.57,0.56-2.35c-1.97,2.31-4,4.6-5.44,7.27c-1.71,3.01-2.72,6.36-3.25,9.7
		c-0.26,1.68-0.46,3.35-0.48,5.02c-0.03,1.68,0.08,3.35,0.32,5C23.17,62.37,23.52,64,24.01,65.61z"/>
	<path class="st0" d="M35.01,90.65c0.98,0.78,1.95,1.6,2.84,2.54c0.45,0.46,0.87,0.97,1.27,1.52c0.18,0.3,0.37,0.58,0.54,0.91
		l0.22,0.52c0.07,0.18,0.14,0.36,0.18,0.51c0.45,1.73,0.75,3.44,0.99,5.16c0.18,0.13,0.35,0.26,0.54,0.38
		c1.44,0.98,3.01,1.78,4.65,2.54c3.23,1.52,6.72,2.7,10.34,3.19c3.62,0.5,7.34,0.3,10.89-0.45c3.53-0.77,6.98-1.96,9.98-3.77
		c1.49-0.91,2.86-1.99,3.93-3.27c0.52-0.65,0.99-1.33,1.36-2.04c0.19-0.36,0.35-0.76,0.52-1.14c0.15-0.4,0.3-0.8,0.42-1.2
		c0.51-1.48,0.8-3.04,1.14-4.65c-0.28,0.08-0.55,0.18-0.82,0.26c0,0,0.22,0.31-0.02,0.47c-0.73,0.45-1.33,0.14-2.28,1.04
		c-0.51,0.49-1.17,0.79-1.75,1.2c-1.14,0.85-2.23,1.77-3.29,2.73c-0.53,0.48-1.05,0.97-1.55,1.47c-0.26,0.24-0.5,0.51-0.75,0.76
		c-0.24,0.29-2.84,1.93-3.77,2.57c-1.19,0.8-2.41,1.54-3.71,2.16c-1.3,0.61-2.67,1.09-4.06,1.52c-1.4,0.43-2.88,0.62-4.36,0.66
		c-0.74,0.01-1.5,0.02-2.25-0.22c-0.72-0.23-1.38-0.6-2.01-0.99c-1.24-0.81-2.38-1.8-3.24-2.96c-0.86-1.16-1.54-2.43-2.11-3.72
		c-0.27-0.66-0.53-1.33-0.73-2c-0.2-0.69-0.94-2.31-1.07-2.39c-0.24-0.14-0.44-0.35-0.58-0.6c-0.06-0.11-0.11-0.26-0.13-0.36
		l-0.05-0.21l-0.09-0.44c-0.09-0.46-0.19-0.9-0.28-1.36c-0.52-0.04-1.03-0.07-1.56-0.12c-0.67-0.06-1.48,0.15-2.15,0.07
		c-0.05-0.01-1.92-2.34-2.97-3.23c-1.11-0.93-2.24-1.84-3.43-2.68c-1.18-0.83-2.38-1.65-3.65-2.33c-1.26-0.69-2.59-1.28-3.94-1.67
		l-0.01-0.01h-0.02c-1.72-0.62-3.45-1.15-5.2-1.84c-0.87-0.34-1.74-0.79-2.51-1.34c-0.79-0.54-1.49-1.14-2.17-1.75
		c-1.37-1.22-2.7-2.5-3.9-3.93c-0.3-0.35-0.59-0.72-0.87-1.11c-0.13-0.19-0.27-0.38-0.39-0.59c-0.07-0.1-0.13-0.2-0.2-0.3
		c-0.05-0.09-0.13-0.24-0.17-0.28c-0.24-0.38-0.68-0.58-1.1-0.5c-0.55,2.11-0.87,4.38-0.54,6.45c0.08,0.55,0.25,1.04,0.46,1.52
		c0.11,0.22,0.24,0.44,0.38,0.64l0.24,0.26c0.07,0.09,0.16,0.18,0.27,0.28c0.87,0.78,1.79,1.45,2.81,1.97
		c1.01,0.53,2.14,0.94,3.29,1.36c1.15,0.43,2.32,0.85,3.48,1.31c2.35,0.9,4.58,2.07,6.73,3.32C30.94,87.73,33.02,89.11,35.01,90.65z
		"/>
	<path class="st0" d="M116.39,127.61l-1.59-0.89l-3.21-1.75l-6.46-3.45c-4.31-2.3-8.6-4.6-12.88-6.98c-2.13-1.19-4.26-2.4-6.36-3.65
		c-1.05-0.64-2.09-1.29-3.11-1.96c-0.47-0.29-0.92-0.62-1.38-0.93c-2.45,1.47-5.14,2.48-7.86,3.21c-4.02,1.07-8.18,1.41-12.26,1.22
		c-4.1-0.16-8.14-0.83-12.1-1.76c-2.56-0.64-5.12-1.38-7.59-2.38c0,0.4-0.01,0.82-0.04,1.24c-0.02,0.32-0.06,0.66-0.12,1.01
		c-0.09,0.36-0.12,0.72-0.52,1.28l-0.5,0.69l-0.82-0.43c-0.24-0.12-0.61-0.27-0.96-0.39l-1.1-0.38c-0.73-0.24-1.49-0.48-2.24-0.7
		l-0.02,0.16l-0.24,2.34l-0.09,0.94l0.18,0.09c0.67,0.37,1.37,0.72,2.07,1.04c0.69,0.31,1.41,0.61,2.13,0.86l0.44,0.15l0.24-0.04
		c0.37-0.06,0.74-0.13,1.12-0.21c0.75-0.16,1.5-0.37,2.31-0.58c0.4-0.1,0.82-0.19,1.28-0.25c0.44-0.06,0.97-0.09,1.54,0.06
		c0.58,0.14,1.12,0.54,1.45,0.95c0.31,0.4,0.51,0.76,0.71,1.11c0.4,0.72,0.77,1.43,1.11,2.14c1.31,2.7,2.5,5.41,3.68,8.15
		c5.27,0.04,10.55,0.1,15.81,0.17l16.36,0.19c5.45,0.08,10.91,0.08,16.35,0.11c5.09,0.03,10.17,0.01,15.25-0.01
		C116.79,127.85,116.59,127.73,116.39,127.61z"/>
	<path class="st0" d="M102.89,96.06c0.07,0.4,0.44,0.74,0.86,0.8c0.42,0.07,0.83-0.17,1.01-0.49c0.1-0.18,0.12-0.3,0.14-0.56
		l0.05-0.69c0.03-0.47,0.06-0.92,0.07-1.38c0.02-0.92-0.05-1.83-0.18-2.72c-0.2-1.62-0.64-3.19-1.38-4.71
		c-0.38,0.49-0.78,0.96-1.18,1.44c-0.18,0.2-0.36,0.39-0.54,0.6c1.05,1.4,1.53,3.18,1.5,4.91c-0.02,0.49-0.08,0.97-0.18,1.45
		C103.03,95.18,102.82,95.68,102.89,96.06z"/>
	<path class="st0" d="M64.9,19.93c-0.33,0.49-0.67,0.97-1.03,1.44c-0.5,0.63-1.01,1.24-1.57,1.82c0.65,1.29,1.12,2.65,1.47,4.05
		c0.35,1.41,0.6,2.84,0.66,4.3c0.07,1.46-0.12,2.93-0.47,4.34c-0.05,0.24-0.12,0.49-0.2,0.73c0.86,0.85,1.64,1.74,2.38,2.65
		c0.8,0.97,1.55,1.96,2.28,2.98l0.09,0.13l0.03,0.17c0.19,0.93,0.16,1.69,0.1,2.49c-0.07,0.79-0.23,1.57-0.39,2.34
		c-0.18,0.77-0.33,1.54-0.44,2.3c-0.11,0.77-0.19,1.54-0.24,2.32c-0.12,1.55-0.78,2.6-1.07,4.19c-0.08,0.39-0.17,0.8-0.32,1.22
		c-0.16,0.46-0.39,0.88-0.61,1.22c-0.3,0.48-0.7,1.29-1.26,1.67c-0.15,0.11-0.23,0.28-0.2,0.47c0.05,0.37,0.15,1.08,0.22,1.57
		c0.03,0.21,0.31,0.27,0.42,0.1c0.51-0.74,1.27-2.15,1.57-2.35l1-0.7l0.26,1.02c0.14,0.54,0.2,1.02,0.2,1.57
		c0,0.26-0.03,0.54-0.1,0.83c-0.08,0.28-0.22,0.62-0.52,0.85c-0.56,0.39-1.08,0.43-1.58,0.46c-0.36,0.02-0.7-0.01-1.06-0.05
		l-0.57,0.61c-0.15,0.16-0.31,0.31-0.47,0.48c0.83,0.9,1.77,1.73,2.87,2.11c0.31,0.1,0.63,0.15,0.92,0.11
		c0.29-0.05,0.58-0.17,0.87-0.33c0.56-0.33,1.07-0.8,1.55-1.29c0.5-0.5,0.93-1.02,1.43-1.57l0.11-0.12l-0.04-0.1l-0.43-0.96
		c-0.39-0.93-1.01-2.76-1.34-3.74c-0.13-0.4-0.07-0.86,0.19-1.21c0.81-1.16,2.64-3.84,3.46-5.35c0.28-0.49,0.54-0.98,0.79-1.49
		c0.26-0.5,0.49-1.01,0.7-1.52c0.24-0.52,0.42-1.04,0.63-1.56c0.18-0.53,0.38-1.05,0.52-1.6c0.29-1.07,0.52-2.18,0.59-3.3
		c0.04-0.57,0.03-1.12,0.05-1.7c0.03-0.51-0.21-1.03-0.45-1.53c-0.51-1-1.19-1.91-1.87-2.83c-0.67-0.93-1.4-1.8-1.96-2.93
		l-0.03-0.06v-0.13c-0.04-1.4-0.19-2.77-0.47-4.13c-0.28-1.35-0.73-2.66-1.33-3.93c-0.59-1.26-1.32-2.46-2.18-3.58
		c-0.84-1.08-1.78-2.11-2.85-3C65.13,19.59,65,19.78,64.9,19.93z"/>
	<path class="st0" d="M48.1,20.93c-0.28-0.06-0.54-0.13-0.82-0.29c-0.21,0.1-0.42,0.16-0.63,0.18c-0.17,0.01-0.34,0-0.51-0.02
		l0.04,0.1c0.22,0.47,0.48,0.94,0.77,1.36c0.16,0.2,0.31,0.39,0.49,0.55c0.16,0.13,0.32,0.22,0.43,0.25l0.3,0.01l0.17,0.01
		c0.06,0,0.04,0,0.08,0c0.11-0.01,0.3-0.08,0.48-0.16c0.37-0.17,0.77-0.41,1.16-0.66c0.17-0.1,0.33-0.2,0.5-0.29
		c0.03-0.11,0.05-0.21,0.06-0.31c0.04-0.36,0.04-0.75,0.04-1.12v-0.08c-0.17,0.19-0.42,0.32-0.66,0.4c-0.31,0.1-0.63,0.15-0.95,0.16
		C48.73,21.01,48.41,20.99,48.1,20.93z"/>
	<path class="st0" d="M50.65,19.38c-0.01-0.35-0.05-0.68-0.18-1c-0.23-0.65-0.76-1.18-1.33-1.67c-0.56-0.48-1.24-0.87-1.97-1.07
		c-0.37,0.25-0.64,0.62-0.85,0.99c-0.21,0.39-0.37,0.81-0.5,1.23c-0.12,0.43-0.2,0.87-0.24,1.33l-0.05,0.7
		c-0.01,0.16-0.01,0.32-0.01,0.5c0.16,0.1,0.3,0.19,0.46,0.27l0.03,0.02c0.43-0.15,0.85-0.31,1.12-0.57l0.11-0.1l0.22,0.1
		c0.19,0.08,0.48,0.14,0.74,0.19c0.28,0.05,0.57,0.08,0.85,0.11c0.29,0.03,0.57,0.05,0.85,0.04c0.25-0.01,0.5-0.02,0.74-0.12
		L50.65,19.38z M48.21,18.46c-0.14,0.27-0.39,0.47-0.6,0.7l-0.24,0.27l-0.18-0.25l-0.53-0.75l-0.26-0.38l-0.26-0.36l-0.03-0.04
		c-0.01-0.01,0-0.02,0.01-0.03c0.01,0,0.01,0,0.02,0c0.18,0.09,0.27,0.19,0.4,0.29l0.36,0.3l0.42,0.39c0.1-0.18,0.2-0.36,0.35-0.51
		c0.22-0.22,0.46-0.42,0.78-0.57c0.02-0.01,0.04,0,0.05,0.02c0,0.01,0,0.01,0,0.02C48.48,17.9,48.35,18.18,48.21,18.46z"/>
	<path class="st0" d="M44.19,19.15c0.02,0.04,0.04,0.08,0.07,0.11l0.01,0.02c0.21,0.27,0.49,0.53,0.78,0.76
		c0.1,0.07,0.21,0.14,0.31,0.22c-0.03-0.12-0.07-0.23-0.1-0.35c-0.04-0.23-0.09-0.48-0.1-0.72c-0.02-0.34,0-0.69,0.05-1.04
		C44.88,18.5,44.54,18.84,44.19,19.15z"/>
	<path class="st0" d="M41.51,19.51c0.22,0.16,0.41,0.34,0.57,0.54c0.32,0.39,0.53,0.83,0.68,1.28c0.08,0.25,0.11,0.35,0.2,0.52
		c0.08,0.15,0.19,0.3,0.29,0.46c0.23,0.3,0.51,0.59,0.8,0.87c0.58,0.56,1.25,1.04,1.92,1.51c0.34,0.22,0.69,0.44,1.05,0.63
		c0.18,0.09,0.36,0.18,0.53,0.24c0.08,0.04,0.16,0.07,0.24,0.09c0.04,0.01,0.1,0.02,0.1,0.03l0.32,0.06
		c0.4,0.19,0.98,0.33,1.53,0.43c0.56,0.09,1.13,0.16,1.71,0.2c1.16,0.08,2.33,0.07,3.49-0.04c1.15-0.11,2.31-0.3,3.37-0.74
		c1.07-0.43,2.04-1.09,2.9-1.87c0.85-0.77,1.63-1.65,2.3-2.59c0.34-0.47,0.66-0.94,0.96-1.44c0.16-0.26,0.27-0.46,0.33-0.73
		c0.07-0.26,0.12-0.54,0.17-0.82c0.15-1.12,0.22-2.29,0.39-3.46c0.15-0.9,0.31-1.85,0.79-2.75c-0.95-0.1-1.9-0.11-2.84,0
		c-1.17,0.14-2.28,0.53-3.17,1.2c-0.9,0.68-1.56,1.63-1.99,2.68c-0.22,0.53-0.38,1.08-0.51,1.65c-0.13,0.59-0.2,1.13-0.28,1.78
		l-0.04,0.33L57,19.73c-0.24,0.13-0.51,0.35-0.79,0.6l-0.86,0.77c-0.6,0.53-1.28,1.05-2.12,1.39l-0.23,0.1l-0.2-0.07
		c-0.17-0.05-0.55,0.03-0.92,0.19c-0.38,0.16-0.79,0.38-1.19,0.61c-0.4,0.23-0.82,0.47-1.3,0.68c-0.25,0.1-0.51,0.2-0.87,0.23
		c-0.07,0.01-0.22,0.01-0.27,0l-0.18-0.02l-0.35-0.03l-0.05-0.01h-0.02c-0.44-0.11-0.74-0.35-0.98-0.59
		c-0.25-0.23-0.43-0.49-0.6-0.74c-0.17-0.26-0.31-0.52-0.44-0.78c-0.11-0.23-0.21-0.46-0.3-0.69c-0.31-0.21-0.59-0.44-0.86-0.67
		c-0.31-0.28-0.61-0.6-0.85-0.96c-0.79-1.07-1.03-2.35-1.07-3.56c-0.01-1.14,0.15-2.28,0.45-3.38c-0.25-0.59-0.45-1.19-0.6-1.81
		c-0.31,0.4-0.57,0.87-0.76,1.35c-0.3,0.76-0.45,1.57-0.57,2.38c-0.1,0.81-0.13,1.63-0.13,2.45c0.01,0.71,0.06,1.43,0.14,2.13
		C41.25,19.34,41.38,19.42,41.51,19.51z"/>
	<path class="st0" d="M43.46,17.83c0.15,0.45,0.38,0.86,0.66,1.23c0.28-0.55,0.6-1.06,0.93-1.55c-0.29-0.2-0.5-0.47-0.67-0.72
		c-0.23-0.34-0.41-0.69-0.56-1.06c-0.15-0.36-0.27-0.73-0.36-1.11c-0.09-0.34-0.28-1.42-0.29-1.44c-0.01-0.03-0.02-0.06-0.03-0.09
		c-0.13,1.02-0.16,2.05-0.05,3.06C43.16,16.72,43.27,17.29,43.46,17.83z"/>
	<path class="st0" d="M31.65,43.63c0.04,1.2,0.11,2.41,0.23,3.58c0.45,0.76,1.01,1.54,1.6,2.26c0.63,0.75,1.29,1.47,2,2.16
		c1.41,1.38,2.96,2.62,4.62,3.73c1.65,1.12,3.39,2.11,5.22,2.96c0.06,0.03,0.12,0.06,0.2,0.09c0.01-0.01,0.03-0.02,0.05-0.02
		c0.04,0,0.07,0.02,0.08,0.06c0.01,0.01,0.01,0.01,0.01,0.02c1.71,0.78,3.48,1.46,5.28,2.01l0.06,0.02l0.04,0.05
		c0.89,1.17,1.58,2.48,2.25,3.77c0.33,0.65,0.67,1.29,1.08,1.85c0.2,0.27,0.43,0.53,0.68,0.65c0.07,0.03,0.09,0.04,0.2,0.06
		c0.1,0.03,0.2,0.06,0.29,0.08l0.52,0.17c0.68,0.22,1.37,0.33,2.05,0.26c0.67-0.06,1.34-0.3,1.95-0.63c0.96-0.53,1.8-1.27,2.57-2.09
		c-0.91-0.13-1.81-0.28-2.72-0.45l-3.6-0.66l-0.4-0.07l-0.06-0.41c-0.08-0.58-0.15-1.14-0.23-1.73c-0.03-0.29-0.06-0.58-0.07-0.89
		c0-0.08-0.01-0.16,0-0.26c0-0.04,0-0.09,0.01-0.16c0.01-0.06,0-0.05,0.03-0.16l0.03-0.07c0.01-0.02,0-0.02,0.06-0.11
		c0.12-0.13,0.18-0.24,0.54-0.27c0.11,0,0.25,0.05,0.29,0.07l0.02,0.01l0.04,0.03l0.07,0.04l0.1,0.07l0.19,0.13l1.44,1l0.7,0.49
		l0.36,0.23l0.01,0.01c0.03-0.04,0.06-0.08,0.09-0.12c0.09-0.14,0.19-0.32,0.22-0.46c-0.08-0.07-0.14-0.14-0.21-0.2
		c-0.2-0.19-0.38-0.35-0.59-0.51c-0.83-0.61-1.88-1.01-2.95-1.35l-0.07-0.02l-0.05-0.03c-2.75-1.5-5.15-3.35-7.47-5.33
		c-1.16-1-2.27-2.05-3.27-3.24c-0.5-0.59-0.98-1.2-1.38-1.92c-0.4-0.75-0.58-1.51-0.77-2.25c-0.67-2.97-0.88-5.97-0.84-8.97
		c0.03-1.5,0.13-3,0.39-4.48c0.26-1.47,0.62-2.96,1.33-4.29c0.02-0.03,0.06-0.04,0.09-0.02c0.03,0.01,0.04,0.05,0.03,0.08
		c-0.58,1.37-0.84,2.83-0.99,4.29c-0.15,1.47-0.17,2.95-0.12,4.42c0.05,1.47,0.18,2.94,0.37,4.4c0.2,1.45,0.43,2.9,0.81,4.31
		c0.19,0.7,0.39,1.41,0.72,1.95c0.34,0.59,0.81,1.14,1.29,1.68c0.97,1.08,2.08,2.07,3.21,3.04c0.7,0.6,1.44,1.17,2.17,1.73
		c0.12-0.78,0.39-1.54,0.72-2.26c0.38-0.83,0.85-1.61,1.34-2.37c0.97-1.52,2.07-2.94,3.18-4.32l0.82-1.03
		c0.25-0.33,0.5-0.67,0.71-1.03c0.44-0.71,0.8-1.49,1.1-2.28c0.3-0.8,0.55-1.62,0.73-2.47l0.03-0.17l0.01-0.05
		c0.01,0,0-0.08,0.11-0.21c0.06-0.07,0.14-0.11,0.24-0.12c0.07-0.01,0.1,0,0.16,0.01c0.05,0.02,0.09,0.04,0.11,0.05
		c0.19,0.11,0.24,0.19,0.32,0.28l0.47,0.5c0.23,0.26,0.48,0.51,0.72,0.75c0.65-1.14,1.02-2.43,1.12-3.73
		c0.12-1.4,0.01-2.79-0.07-4.18c-0.17-2.75-0.6-5.5-1.09-8.28c-0.23,0.22-0.46,0.45-0.69,0.67c-0.87,0.81-1.87,1.5-2.97,2.01
		c-1.11,0.5-2.29,0.79-3.48,0.99c-1.2,0.2-2.4,0.28-3.61,0.28c-0.61,0-1.22-0.04-1.83-0.1c-0.57-0.07-1.12-0.16-1.73-0.4
		c-0.17,0-0.26-0.03-0.38-0.05c-0.13-0.04-0.25-0.08-0.36-0.12c-0.23-0.09-0.44-0.19-0.64-0.3c-0.4-0.2-0.79-0.44-1.16-0.68
		c0,0,0,0-0.01-0.01c-0.73-0.49-1.42-1.03-2.06-1.65c-0.32-0.32-0.62-0.66-0.9-1.03c-0.13-0.19-0.27-0.39-0.37-0.62
		c-0.11-0.22-0.2-0.53-0.24-0.67c-0.02-0.05-0.04-0.09-0.05-0.13c-1.05,0.52-2.02,1.14-2.92,1.83c-0.99,0.78-1.9,1.66-2.69,2.61
		c-0.8,0.94-1.45,1.99-2.02,3.08c-0.54,1.1-0.97,2.25-1.3,3.43l-0.05,0.19l-0.1,0.12c-0.13,0.16-0.28,0.32-0.41,0.49
		c-0.13,0.98-0.27,1.94-0.33,2.92c-0.12,1.24-0.19,2.48-0.21,3.72C31.6,41.15,31.62,42.4,31.65,43.63z"/>
	<path class="st0" d="M57.64,11.87c-0.93,0.16-1.89,0.39-2.57,0.98c-0.72,0.61-1.44,1.27-2.14,1.92L51,16.61
		c0.44,0.72,0.92,1.44,1.46,2.11c0.49,0.61,0.99,1.2,1.6,1.7c0.11-0.1,0.24-0.21,0.36-0.32l0.85-0.78c0.22-0.2,0.45-0.4,0.74-0.6
		c0.15-1.11,0.36-2.34,0.86-3.44c0.53-1.21,1.36-2.36,2.48-3.17c0.12-0.08,0.26-0.15,0.39-0.23C59.07,11.7,58.33,11.78,57.64,11.87z
		"/>
	<path class="st0" d="M58.62,8l0.03-0.03c0.36-0.28,0.71-0.63,1.09-0.97c0.26-0.24,0.53-0.49,0.81-0.71
		c0.23-0.17,0.47-0.34,0.74-0.45c0.13-0.14,0.27-0.29,0.4-0.44c0.18-0.17,0.35-0.34,0.54-0.51L62.1,4.73l-0.31-0.34
		c-0.21-0.24-0.42-0.46-0.64-0.68c-0.44-0.43-0.91-0.81-1.41-1.16C59,2.02,58.2,1.6,57.38,1.23h-0.01
		c-0.27-0.12-0.55-0.24-0.83-0.35c-0.13-0.05-0.28-0.1-0.41-0.16C56,0.67,55.87,0.62,55.74,0.58c0.92,1.54,2.27,6.56,2.55,7.65
		C58.4,8.16,58.5,8.08,58.62,8z"/>
	<path class="st0" d="M47.64,3.29l0.18,0.12c0.62,0.4,1.13,0.89,1.7,1.31c0.56,0.43,1.15,0.78,1.77,1.1
		c0.62,0.32,1.27,0.6,1.92,0.88c0.64,0.28,1.25,0.6,1.87,0.89c0.31,0.14,0.62,0.28,0.93,0.42c0.3,0.12,0.61,0.24,0.9,0.35
		c0.07,0.03,0.14,0.06,0.22,0.07c0.03,0.02,0.06,0.03,0.09,0.03c0.02,0.01,0.05,0.02,0.07,0.02c0.04,0.02,0.09,0.03,0.12,0.03
		c0.01,0.01,0.02,0.01,0.03,0.01V8.51c0.4-3.08-1.89-7.3-2.66-8.25c-0.03-0.01-0.06-0.02-0.09-0.02c-0.25-0.07-0.5-0.13-0.75-0.17
		C53.61,0.02,53.28-0.01,52.95,0c-0.62,0.01-1.24,0.13-1.83,0.34c-0.29,0.1-0.58,0.22-0.86,0.36c-0.27,0.14-0.54,0.29-0.8,0.47
		c-0.64,0.43-1.23,0.9-1.8,1.42c-0.35,0.3-0.69,0.63-1.02,0.95c-0.15,0.14-0.27,0.29-0.4,0.44c0.34-0.22,0.71-0.43,1.12-0.58
		L47.64,3.29z"/>
	<path class="st0" d="M61,7.68c-0.06,0.37-0.09,0.73-0.16,1.09c-0.07,0.36-0.12,0.73-0.18,1.09c-0.06,0.53-0.12,1.06-0.19,1.61
		c0.85-0.4,1.78-0.65,2.69-0.73c0.21-0.02,0.4-0.02,0.6-0.03c0.13-0.39,0.22-0.79,0.28-1.19c0.09-0.57,0.14-1.13,0.14-1.7
		c-0.01-0.56-0.04-1.11-0.11-1.65c-0.07-0.44-0.21-0.85-0.4-1.2c-0.6,0.12-1.21,0.31-1.69,0.73C61.37,6.18,61.09,6.96,61,7.68z"/>
	<path class="st0" d="M44.94,3.35l-1.07-1.4c-0.3,1.19-0.64,2.73-0.73,4.07c0.66-0.83,1.37-1.67,2.09-2.44
		C45.13,3.54,45.03,3.48,44.94,3.35z"/>
	<path class="st0" d="M43.6,7.23c0,0-0.01,0-0.01,0.01c-0.06,0.11-0.09,0.25-0.14,0.46c-0.14,0.56-0.22,1.15-0.26,1.75
		c-0.07,1.2-0.01,2.44,0.1,3.7c0.01,0.02,1.06,2.35,1.06,2.35c0.19,0.32,0.36,0.65,0.57,0.94c0.18,0.25,0.38,0.49,0.59,0.63
		c0.11-0.24,0.26-0.48,0.45-0.69c0.31-0.39,0.72-0.71,1.15-0.95l0.05-0.02l0.04,0.01c0.76,0.27,1.5,0.55,2.22,0.94
		c0.7,0.38,1.35,0.98,1.71,1.78c0.18,0.39,0.25,0.85,0.22,1.26c-0.01,0.39-0.04,0.78-0.09,1.17c-0.05,0.38-0.11,0.78-0.25,1.16
		c0.11-0.07,0.23-0.13,0.36-0.19c0.4-0.17,0.88-0.38,1.51-0.33c0.39-0.18,0.77-0.44,1.13-0.74c-0.27-0.15-0.53-0.32-0.78-0.52
		c-0.38-0.29-0.72-0.64-1.06-0.98c-0.66-0.71-1.26-1.45-1.8-2.26l-0.11-0.18l0.16-0.17c0.67-0.7,1.37-1.38,2.08-2.04
		c0.71-0.66,1.43-1.31,2.24-1.9c0.2-0.14,0.41-0.29,0.66-0.4c0.25-0.11,0.49-0.18,0.73-0.25c0.49-0.12,0.98-0.2,1.48-0.24
		c0.51-0.04,1-0.02,1.5,0.06c0.27,0.05,0.54,0.12,0.79,0.22c0.04-0.02,0.08-0.05,0.12-0.07c-0.25-0.6-0.37-1.24-0.4-1.88
		c-0.02-0.42,0-0.84,0.07-1.26c0.01-0.03,0.02-0.06,0.02-0.08C59.5,8.75,59.27,9,59,9.23c-0.3,0.26-0.68,0.51-1.19,0.62
		c-0.65,0.08-1-0.07-1.39-0.18c-0.72-0.26-1.35-0.62-1.97-0.98c-0.61-0.36-1.2-0.75-1.77-1.17c-0.56-0.44-1.1-0.88-1.67-1.3
		c-0.56-0.4-1.15-0.79-1.78-1.09c-0.52-0.26-1.08-0.49-1.61-0.7c-0.32,0.22-0.65,0.46-0.99,0.68c-0.4,0.26-0.79,0.56-1.19,0.84
		c-0.39,0.28-0.8,0.58-1.21,0.86C44.03,6.95,43.82,7.09,43.6,7.23z M50.83,11.44c0.66,0,1.19,0.52,1.19,1.17
		c0,0.64-0.53,1.17-1.19,1.17c-0.66,0-1.19-0.52-1.19-1.17C49.63,11.96,50.17,11.44,50.83,11.44z M45.42,11.81
		c0.66,0,1.19,0.52,1.19,1.17c0,0.64-0.53,1.17-1.19,1.17s-1.19-0.52-1.19-1.17C44.23,12.34,44.76,11.81,45.42,11.81z"/>
	<path class="st0" d="M63.13,58.74c-1.07-0.4-1.65-1.02-2.39-0.54c-0.74,0.48-1.21,1.29-1.21,1.29c0.49,0.62,0.6,1.9,0.6,1.9
		s-1.29,1.45-0.88,1.9c0.41,0.46,2.5,0.59,2.5,0.59s2.03-0.13,1.98-0.67c-0.06-0.54-0.36-1.58-0.47-2.31
		C63.15,60.19,64.2,59.15,63.13,58.74z"/>
</g>
</svg>
