<?xml version="1.0" encoding="utf-8"?>
<!-- Generator: Adobe Illustrator 24.1.2, SVG Export Plug-In . SVG Version: 6.00 Build 0)  -->
<svg version="1.1" id="Layer_1" xmlns="http://www.w3.org/2000/svg" xmlns:xlink="http://www.w3.org/1999/xlink" x="0px" y="0px"
	 viewBox="0 0 128 128" style="enable-background:new 0 0 128 128;" xml:space="preserve">
<style type="text/css">
	.st0{fill:#2D2D2D;}
</style>
<g>
	<path class="st0" d="M50,96c-1.2,1.9-2.5,3.8-4,5.5c-0.4,0.4-0.7,0.9-1.2,1.3c-0.2,0.2-0.4,0.4-0.7,0.7l-0.6,0.5
		c-0.8,0.7-1.5,1.5-2.2,2.3c-1.4,1.6-2.7,3.3-3.8,5.1c-0.1,0.2-0.2,0.5-0.4,0.7c-0.1,0.2-0.2,0.4-0.2,0.6c-0.1,0.4-0.2,0.9-0.2,1.4
		c0,1,0.1,2,0.3,3c0.4,1.9,1,3.7,1.6,5.6c1.5,0.1,3.1,0.4,4.6,1.3c0.7,0.4,1.3,1.1,1.6,1.8l3.3-0.1c0.7,0,1.3,0,2-0.1
		c0.1,0,0.2,0,0.3,0c0,0,0-0.1,0-0.1c0-0.3,0-0.6-0.1-0.8c-0.4-1.1-1.4-1.9-2.5-2.3c-1.2-0.4-2.4-0.5-3.7-0.5l-0.5,0l-0.2-0.5
		c-1.1-2.8-2.3-5.7-2.6-9c-0.1-0.8-0.1-1.7,0.1-2.5c0.1-0.4,0.2-0.9,0.4-1.3c0.2-0.4,0.4-0.8,0.6-1.1c0.8-1.4,1.8-2.7,2.9-3.9
		c1.1-1.2,2.3-2.2,3.5-3.2c0.3-0.2,0.6-0.5,0.9-0.7c0.3-0.2,0.5-0.4,0.8-0.7c0.5-0.5,1-1,1.5-1.6c1.8-2,3.3-4.3,4.8-6.6
		c-1-0.3-1.9-0.6-2.9-0.9C52.4,92.2,51.2,94.1,50,96z"/>
	<path class="st0" d="M115.9,50.6c0.3,0.2,0.6,0.4,0.8,0.6c-0.2-1-0.6-2-0.8-3c-0.3-1-0.5-2-0.7-3l-0.6-3c0,0,0-0.1,0-0.1
		c-0.1,0-0.2,0.1-0.3,0.2c-0.2,0.1-0.4,0.3-0.7,0.5c0.5,0.9,0.9,1.8,1.2,2.8C115.3,47.1,115.7,48.8,115.9,50.6z"/>
	<path class="st0" d="M96.1,124.1c-0.6-0.2-1.2-0.3-1.9-0.4c-0.7-0.1-1.4-0.2-2-0.2l-0.7,0l-0.3-0.5c-0.2-0.4-0.4-0.7-0.5-1.1
		c-0.1-0.4-0.2-0.8-0.3-1.2c0-0.2-0.1-0.4-0.1-0.6c0-0.2,0-0.4,0-0.6l0-1l0.2-3.9c0.1-2.6,0.3-5.2,0.5-7.8c0.1-1.3,0.2-2.6,0.4-3.9
		c0.2-1.4,0.6-2.6,1-3.9c0.3-0.8,0.5-1.5,0.8-2.3c-0.7,0.6-1.4,1.2-2,1.8c-0.9,0.8-1.8,1.8-2.3,2.6c-0.2,0.3-0.3,0.8-0.5,1.4
		c-0.1,0.6-0.2,1.2-0.3,1.8c-0.2,1.2-0.3,2.5-0.5,3.8c-0.4,4.8-0.8,9.8-0.8,14.6c0.1,0,0.3,0,0.4,0c0.4,0.1,0.7,0.1,1.1,0.2
		c0.7,0.2,1.4,0.5,2,1c0.6,0.4,1.1,1,1.5,1.7c0,0.1,0.1,0.2,0.1,0.3l0,0l0.5-0.1l1-0.1c0.6-0.1,1.3-0.2,1.9-0.2
		c0.8-0.1,1.7-0.2,2.5-0.2c-0.1-0.1-0.2-0.2-0.3-0.3C97.3,124.6,96.7,124.3,96.1,124.1z"/>
	<path class="st0" d="M109.5,71l-2.3-0.8l-0.2-0.1c-0.5,1.2-1.2,2.3-1.9,3.3c-0.9,1.2-1.9,2.4-3,3.5c-2.1,2.2-4.4,4.3-6.7,6.3
		l-1.7,1.5c-0.5,0.5-1,1.1-1.4,1.7c-0.8,1.2-1.5,2.6-2.2,4c-0.6,1.4-1.2,2.8-1.6,4.2c-0.2,0.7-0.5,1.5-0.6,2.2
		c-0.2,0.6-0.3,1.2-0.3,1.8c0.2-0.2,0.4-0.4,0.5-0.7c0.5-0.5,0.9-1,1.4-1.5c1-0.9,1.9-1.8,2.9-2.6c2-1.7,4-3.3,6-4.9l0.7-0.6
		l0.7-0.6c0.5-0.5,1-0.9,1.4-1.3c0.9-0.9,1.9-1.7,2.8-2.6c1.8-1.8,3.6-3.6,5.1-5.6c1.5-2,2.8-4.2,3.5-6.6c-0.2,0-0.4-0.1-0.6-0.1
		C111,71.4,110.2,71.2,109.5,71z"/>
	<path class="st0" d="M127.2,69.2c0.6-0.3,0.7-0.6,0.8-0.9l-2-1.8l-1.2-1c-0.2-0.2-0.4-0.3-0.6-0.4c-0.3-0.2-0.6-0.4-0.7-0.7
		c-0.4-0.5-0.5-1-0.7-1.5l-0.6-1.5l0-0.1l0-0.1c-0.2-1-0.4-2.1-0.8-3.1c-0.4-1-0.8-2-1.4-2.9c-1.1-1.7-2.5-3.3-4.1-4.5
		c0,0.3,0.1,0.6,0.1,1c0,0,0,0.1-0.1,0.1c0,0-0.1,0-0.1,0c-1-1.9-1.7-3.9-2.5-5.8c-0.4-0.9-0.8-1.9-1.2-2.8
		c-0.1-0.2-0.2-0.4-0.3-0.6c-0.1-0.2-0.2-0.3-0.3-0.3c0,0-0.1,0-0.1,0c-0.2,0.1-0.3,0.2-0.5,0.4c-0.7,0.6-1.3,1.5-1.8,2.3
		c-0.5,0.9-1,1.8-1.4,2.7c-0.8,1.9-1.5,3.9-1.6,6c0,0,0,0.1-0.1,0.1c0,0-0.1,0-0.1-0.1c-0.1-1.8,0.2-3.5,0.7-5.2
		c-2.1,1.2-4.2,2.4-6.2,3.7c-2.2,1.4-4.4,2.9-6.5,4.5c-1.1,0.8-2.1,1.6-3.2,2.4c-0.6,0.4-1.1,0.8-1.8,1.2c-0.4,0.2-0.7,0.4-1.3,0.4
		c-0.6,0.1-0.9-0.1-1.2-0.1c-1.3-0.3-2.6-0.6-3.9-0.6c-1.3-0.1-2.6,0.1-3.8,0.5l-0.1,0l0,0c-4.4,0.2-8.7,0.9-13.3,0.7
		c-2.2-0.1-4.4-0.4-6.6-0.5c-2.2-0.2-4.3-0.3-6.5-0.4c-2.2-0.1-4.3-0.1-6.4,0.1c-1.1,0.1-2.1,0.2-3.1,0.4c-0.5,0.1-1,0.2-1.5,0.3
		c-0.5,0.2-1,0.3-1.5,0.5c-2,0.7-3.9,1.7-5.7,2.9c-1.8,1.1-9.4,8.1-11,10.4c-1.6,2.3-3.2,4.7-4.6,7.2c-1.5,2.4-2.9,4.9-4.3,7.4
		l-2,3.7c-0.7,1.3-1.4,2.5-2.1,3.8c-1.4,2.5-2.9,5-4.3,7.5c-1.4,2.5-2.7,5.1-3.8,7.7c-0.6,1.3-1.1,2.7-1.5,4
		C0.1,117.5,0,119,0,120.4c-0.1,2.5,0.1,5,0.3,7.5c1.8-0.3,3.5-0.9,5.2-1.6c2-0.9,3.9-2,5.7-3.2c1.8-1.3,3.4-2.7,4.9-4.2
		c0.7-0.8,1.4-1.6,1.9-2.5c0.3-0.4,0.5-0.9,0.8-1.4l0.8-1.5c2.1-4,4.2-8,6.6-11.9c0.6-1,1.3-1.9,2-2.8c0.4-0.5,0.7-0.9,1.2-1.4
		c0.1-0.1,0.3-0.2,0.5-0.3l0.3-0.2c0.1,0,0.2-0.1,0.3-0.2c0.1-0.1,0.2-0.1,0.3-0.2c0.7-0.7,1.3-1.7,1.7-2.7c0.2-0.5,0.4-0.9,0.6-1.4
		c-0.1-0.9-0.3-1.9-0.5-2.9c-0.5-2.2-1.2-4.4-1.9-6.5l-1-3.3c-0.2-0.6-0.3-1.1-0.5-1.7c-0.1-0.3-0.1-0.6-0.1-0.9
		c0-0.3-0.1-0.6,0.1-0.9c0-0.1,0.1-0.1,0.2-0.1c0.1,0,0.1,0.1,0.1,0.1l0,0c-0.1,0.5,0.2,1.1,0.4,1.6c0.2,0.5,0.4,1.1,0.7,1.6
		l1.4,3.1c0.9,2.1,1.8,4.3,2.5,6.5c0.3,1.1,0.6,2.3,0.7,3.5c0.1,0.6,0.1,1.2,0,1.9c-0.1,0.7-0.1,1.2-0.2,1.8
		c-0.3,2.3-0.5,4.6-1.2,6.9c-0.3,1.2-0.8,2.3-1.4,3.4c-0.2,0.3-0.3,0.5-0.5,0.8c-0.2,0.3-0.4,0.5-0.6,0.7c-0.2,0.2-0.4,0.5-0.6,0.7
		l-0.3,0.3c-0.1,0.1-0.1,0.1-0.2,0.2c-0.2,0.3-0.4,0.7-0.5,1.2c-0.1,0.5-0.1,1-0.1,1.6c0,1.1,0.1,2.2,0.3,3.3
		c0.8,4.4,2.4,8.6,4.3,12.7c1.6,0,3.2,0,4.8-0.1c1.7-0.1,3.4-0.1,5-0.2c0,0,0.1,0,0.1,0c0-0.3-0.1-0.5-0.2-0.8
		c-0.3-0.6-0.7-1.1-1.4-1.4c-1.2-0.7-2.8-0.9-4.4-0.8l-0.7,0l-0.3-0.7c-0.8-2-1.6-4.2-2.1-6.5c-0.3-1.1-0.4-2.3-0.4-3.6
		c0-0.6,0.1-1.3,0.2-1.9c0.1-0.3,0.2-0.7,0.3-1c0.1-0.3,0.3-0.5,0.4-0.8c1.1-2.1,2.5-3.9,4.1-5.7c0.8-0.9,1.6-1.7,2.5-2.4l0.7-0.5
		c0.2-0.1,0.3-0.3,0.5-0.5c0.4-0.4,0.7-0.8,1.1-1.2c1.4-1.6,2.8-3.4,4-5.2c1.3-1.8,2.5-3.6,3.6-5.5c0.3-0.5,0.5-1,0.7-1.4
		c0.2-0.5,0.3-1,0.4-1.5c0.2-1,0.3-2.1,0.3-3.2c0-1.1,0-2.2-0.1-3.3c-0.1-0.5-0.2-1.1-0.3-1.6c-0.1-0.5-0.3-1.1-0.6-1.5l0,0
		c0-0.1,0-0.1,0-0.2c0,0,0.1,0,0.2,0c0.8,0.9,1.1,2,1.4,3.1c0.3,1.1,0.4,2.2,0.5,3.4c0.1,1.1,0.1,2.3,0,3.4
		c-0.1,0.6-0.1,1.2-0.3,1.8c-0.1,0.5-0.3,0.9-0.5,1.4c1.9,0.3,3.8,0.6,5.7,0.8c2.1,0.2,4.2,0.4,6.3,0.5c2.1,0.1,4.2,0,6.3,0.2
		c1.9,0.2,3.8,0.4,5.7,0.9c0-0.8,0-1.5,0-2.3c0-0.9,0.1-1.8,0.2-2.8c0.1-0.9,0.3-1.8,0.7-2.7c0-0.1,0.1-0.1,0.2-0.1
		c0.1,0,0.1,0.1,0.1,0.1l0,0c-0.4,1.7-0.3,3.5-0.1,5.3c0.2,1.8,0.4,3.6,0.6,5.4c0.2,1.8,0.3,3.7,0.4,5.5l0.3,5.4
		c0.1,1.8,0.2,3.6,0.3,5.4c0,0.4,0.1,0.9,0.2,1.2c0,0.2,0.2,0.9,0.3,1.4c0.1,0.9,0.2,1.9,0.3,2.8c0.2,3.5,0.3,7,0.4,10.5l2.4,0.1
		l2.9,0c1,0,1.9,0,2.9,0c0.8,0,1.5,0,2.3,0c-0.1-0.4-0.3-0.9-0.6-1.2c-0.4-0.5-0.8-1-1.3-1.3c-0.5-0.3-1.1-0.6-1.7-0.7
		c-0.3-0.1-0.6-0.1-0.9-0.1c-0.3,0-0.6,0-0.9,0l-0.7,0l-0.1-0.7c-0.3-2.6-0.3-5.2-0.3-7.8c0-2.6,0.1-5.2,0.3-7.7
		c0.1-1.3,0.2-2.6,0.4-3.9c0.1-0.7,0.2-1.3,0.3-2c0.1-0.7,0.3-1.4,0.7-2.2c0.2-0.3,0.4-0.6,0.6-0.9c0-1.5,0.2-2.9,0.6-4.3
		c0.4-1.5,0.9-3,1.4-4.4c0.6-1.4,1.3-2.8,2.3-4.1c0.5-0.6,1-1.2,1.6-1.8l1.8-1.5c2.3-2,4.6-4,6.8-6.1c1.1-1.1,2.1-2.2,3.1-3.4
		c0.8-1,1.5-2,2-3.2l-0.2-0.1l0-0.4l-0.2-2.7c0-0.9-0.1-1.8-0.1-2.7c0,0,0-0.1,0.1-0.1c0,0,0.1,0,0.1,0.1c0.3,0.9,0.5,1.7,0.7,2.6
		l0.5,2.1l2,0.4c0.8,0.2,1.6,0.4,2.3,0.6c0.8,0.3,1.6,0.6,2.4,0.9c0,0,0,0,0,0c0.2,0,0.3,0,0.5,0c0.2,0,0.4,0,0.5,0.1l1,0.1
		c0.7,0.1,1.4,0.2,2,0.4c1.3,0.3,2.7,0.7,4,1.1c0.3,0.1,0.7,0.2,1,0.3c0.3,0.1,0.7,0.3,0.9,0.3c0.2,0.2,0.5-0.1,0.8-0.4
		c-0.1,0-0.1,0-0.2,0c-0.6-0.1-1.1-0.2-1.6-0.4c-1.1-0.3-2.1-0.8-2.9-1.4c-0.9-0.5-1.8-1-2.7-1.5c0,0-0.1-0.1,0-0.1c0,0,0.1,0,0.1,0
		c1,0.2,2,0.5,3,0.9c0.9,0.4,1.9,0.7,2.8,0.9c0.5,0.1,1,0.1,1.4,0.2c0.5,0,1,0,1.3-0.1c0.5-0.2,0.9-0.5,1.4-0.9
		C127.1,70.2,126.3,69.7,127.2,69.2z M111.6,45.8c0,0.4-0.1,0.8-0.3,1.1c-0.2,0.3-0.6,0.6-0.7,1c-0.1,0.3-0.1,0.7,0,1.1
		c0.1,0.4,0.3,0.7,0.4,0.9c0.2,0.3,0.3,0.8,0.4,1.1c0.1,0.8,0,1.6-0.5,2.4c0,0-0.1,0.1-0.1,0c0,0,0,0,0,0l0,0
		c-0.5-0.7-0.8-1.4-1-2.1c-0.1-0.4-0.1-0.6-0.2-1.1c-0.1-0.5,0-1,0.2-1.4c0.2-0.4,0.3-0.8,0.4-1.1c0-0.4-0.1-0.8-0.1-1.2
		c0-0.4,0.2-0.7,0.4-1.1c0.2-0.3,0.5-0.6,0.9-0.9c0,0,0.1,0,0.1,0c0,0,0,0,0,0C111.6,45,111.6,45.4,111.6,45.8z M119.2,63.3
		c-0.6,0-2-1-2-1s1.3-1,2-1c0.6,0,1.1,0.4,1.1,1S119.8,63.3,119.2,63.3z"/>
	<path class="st0" d="M111.6,42.3C111.6,42.3,111.6,42.3,111.6,42.3C111.6,42.3,111.6,42.3,111.6,42.3
		C111.6,42.3,111.6,42.3,111.6,42.3z"/>
</g>
</svg>
