<?xml version="1.0" encoding="utf-8"?>
<!-- Generator: Adobe Illustrator 24.1.2, SVG Export Plug-In . SVG Version: 6.00 Build 0)  -->
<svg version="1.1" id="Layer_1" xmlns="http://www.w3.org/2000/svg" xmlns:xlink="http://www.w3.org/1999/xlink" x="0px" y="0px"
	 viewBox="0 0 128 128" style="enable-background:new 0 0 128 128;" xml:space="preserve">
<style type="text/css">
	.st0{fill:#2D2D2D;}
</style>
<g>
	<path class="st0" d="M0.2,121.7C0.3,121.7,0.3,121.8,0.2,121.7C0.2,121.7,0.2,121.7,0.2,121.7z"/>
	<path class="st0" d="M29.1,107.1c1.9-0.8,3.9-1.6,5.8-2.5c1-0.4,1.9-0.9,2.8-1.3c0.5-0.3,1-0.5,1.5-0.8c-0.9,0.3-1.8,0.7-2.8,1
		c-4.7,1.6-9.5,3.2-14.3,4.4c-0.8,0.6-1.7,1.3-2.5,1.9l-0.1,0l-0.1,0c-0.6,0.4-1.1,0.6-1.6,0.9l-1.6,0.8l-3.1,1.6l-3.5,1.7l7.6-3
		C21.3,110.3,25.2,108.7,29.1,107.1z"/>
	<path class="st0" d="M35.7,101.7l16.6-7c5.6-2.3,11.2-4.5,16.8-6.7c5.6-2.1,11.2-4.4,16.7-6.8c2.7-1.2,5.5-2.5,8-4
		c1.1-0.7,2.1-1.6,3.1-2.6c-1.8,1.6-4,3-6.3,4c-1.7,0.7-3.5,1.3-5.4,1.7c-1.9,0.4-3.7,0.6-5.6,0.7c-2,0.1-4.1,0-6.1-0.3l-0.2,0.1
		c-0.4,0.4-0.9,0.7-1.4,1c-0.9,0.7-1.9,1.3-2.9,2c-1,0.6-2,1.2-3,1.8c-1,0.6-2,1.2-3.1,1.7c-4.1,2.3-8.3,4.3-12.5,6.3
		c-4.2,2-8.5,3.9-12.9,5.7c-2.9,1.2-5.7,2.4-8.7,3.5l-4.2,3.1c-0.2,0.2-0.4,0.3-0.7,0.5c1.1-0.5,2.3-0.9,3.4-1.4
		C30.2,104,33,102.8,35.7,101.7z"/>
	<path class="st0" d="M59.3,82.2c2.2-1.3,4.4-2.5,6.7-3.6c-0.9-0.4-1.8-0.8-2.6-1.4c-0.8-0.5-1.5-1.1-2.1-1.8
		c-0.5-0.6-1-1.3-1.1-2.1L57.2,76c-1.2,1.1-2.4,2.2-3.6,3.4c-1.2,1.1-2.4,2.3-3.3,3.5l0,0.1l-0.1,0.1c-0.9,0.9-1.8,1.8-2.7,2.8
		c-0.9,1-1.7,2-2.6,3c-0.8,1-1.7,2-2.5,3c-0.4,0.5-0.8,1-1.2,1.5l11.4-6.9C54.8,84.9,57,83.5,59.3,82.2z"/>
	<path class="st0" d="M92.2,47.5c1,1,2.3,1.7,3.6,2.4c2.6,1.3,5.3,2.3,8.1,3.1c2.8,0.8,5.7,1.4,8.5,2c2.6,0.5,5.2,1,7.8,1.5
		c0-1.2,0.2-2.4,0.5-3.5c-0.5-0.4-0.9-0.8-1.3-1.2c-0.5-0.7-0.9-1.4-1.1-2.3c-0.2-0.8-0.3-1.7-0.2-2.5c0.1-0.8,0.4-1.6,0.9-2.2
		c-0.2-0.1-0.4-0.3-0.6-0.4c-0.4-0.3-0.8-0.6-1.2-0.7c0,0,0,0,0,0c0,0,0,0,0,0c0,0,0,0,0,0c0,0,0,0,0,0c0,0,0,0,0,0c0,0,0,0,0,0
		c0,0,0,0,0,0c0,0,0,0,0,0c0,0,0,0,0,0c0,0,0,0,0,0c0,0,0,0,0,0c0,0,0,0,0.1,0c0.1,0,0.1-0.1,0.2-0.1c-0.5-0.3-1-0.4-1.5-0.5
		c-0.6-0.1-1.2-0.1-1.8-0.2c-0.6,0-1.2,0-1.8,0c-0.6,0-1.2,0-1.8,0.1l-0.8,0.1l0.5-0.6c0,0,0-0.1,0-0.1c-0.1,0-0.2,0-0.3,0
		c-1.2,0-2.6-0.7-2.6-1.6c0-0.9,1.4-1.7,2.6-1.7c0.3,0,0.7,0.1,1,0.2c0-0.1,0-0.1-0.1-0.2l-0.3-0.6l0.7,0.2c1.8,0.5,3.5,1,5.3,1.3
		c0.9,0.1,1.8,0.3,2.7,0.2c0.4,0,0.9-0.1,1.3-0.4c0.3-0.1,0.5-0.4,0.7-0.7l-0.1-0.4c-0.1-0.3-0.2-0.5-0.3-0.8c0,0,0,0.1-0.1,0.1
		c-0.2,0.3-0.6,0.4-0.9,0.5c-0.6,0.2-1.3,0.2-1.9,0.1c-1.3-0.1-2.6-0.3-3.8-0.9c-0.6-0.3-1.2-0.7-1.6-1.1c-0.5-0.5-0.8-1-1.1-1.6
		c-0.5-0.9-0.9-1.8-1.6-2.7c-2.8-0.1-5.6,0.4-8.2,1.4c-1.7,0.7-3.3,1.6-4.7,2.7c-1.4,1.1-2.7,2.5-3.8,3.9c-1.1,1.4-2,2.8-2.8,4.3
		c0,0.5,0.1,1,0.3,1.5C91.2,46.5,91.7,47,92.2,47.5z"/>
	<path class="st0" d="M112.2,34.4c0.6,1,1.4,1.8,2.5,2.3c1.1,0.5,2.3,0.8,3.5,1c0.6,0.1,1.2,0.1,1.8,0.1c0.3,0,0.6-0.1,0.8-0.2
		c0.1-0.1,0.1-0.1,0.1-0.2c-0.6-1.3-1.6-2.3-2.8-3c-1.6-0.9-3.4-1.6-5.3-2c-0.8-0.2-1.7-0.3-2.6-0.3c0.3,0.3,0.6,0.5,0.8,0.8
		C111.6,33.4,111.9,33.9,112.2,34.4z"/>
	<path class="st0" d="M66,73.3c1.5,0.6,3.1,0.9,4.8,1.2c1.6,0.2,3.3,0.4,4.9,0.6c1.7,0.2,3.3,0.5,4.9,0.6c1.6,0.1,3.3,0.2,4.9,0.2
		c1.6,0,3.3-0.2,4.9-0.5c1.6-0.3,3.2-0.7,4.7-1.3c1.4-0.5,2.7-1.2,3.9-2c0.3-0.4,0.5-0.8,0.8-1.1c0.7-1.2,1.4-2.5,1.8-3.9
		c0.4-1.3,0.7-2.7,0.6-4.1c-0.1-1.3-0.6-2.5-1.5-3.5c-0.9-1-2-1.6-3.3-1.9c-2.6-0.6-5.6-0.1-8.4,0.5c-1.3,0.3-2.7,0.9-4.1,1.5
		c-1.4,0.6-2.7,1.2-4.1,1.8l-15.9,7.3c-0.1,0.2-0.2,0.3-0.3,0.5l0,0.1l0,0c-0.6,0.6-1.2,1.2-1.9,1.8C63.5,72,64.7,72.8,66,73.3z"/>
	<path class="st0" d="M120.4,42.1c-0.5,0.3-0.9,0.6-1.4,0.8c0.3,0,0.7-0.1,1-0.1c1-0.1,1.9,0.1,2.8,0.2c1.7,0.2,3.5,0.5,5.1,1
		c-0.3-0.4-0.6-0.9-1-1.3c-0.5-0.5-1-0.9-1.6-1.3c-1-0.7-2.1-1.2-3.2-1.8c0,0.4-0.2,0.8-0.4,1.2C121.4,41.3,120.9,41.7,120.4,42.1z"
		/>
	<path class="st0" d="M49.6,92.2c4.2-2,8.5-4,12.7-6c1.1-0.5,2.1-1,3.1-1.5c1.1-0.5,2.1-1,3.1-1.6c1-0.5,2.1-1,3.1-1.6
		c0.5-0.3,1-0.6,1.5-0.9c-1.6-0.2-3.2-0.6-4.7-1.1c-0.8-0.3-1.6-0.6-2.4-0.9c-1.9,1.7-3.9,3.2-6,4.7c-2.1,1.5-4.3,2.9-6.5,4.3
		c-2.2,1.3-4.5,2.6-6.8,3.7c-1.9,0.9-3.9,1.8-6,2.5c-0.2,0.3-0.5,0.6-0.7,0.9l-0.1,0.1L39.8,95c-1.7,1.2-3.4,2.4-5,3.6l-3.2,2.3
		c1.8-0.9,3.6-1.8,5.4-2.6L49.6,92.2z"/>
	<path class="st0" d="M61.5,75.1c0.7,0.6,1.4,1,2.2,1.4c1.6,0.8,3.3,1.3,5.1,1.8c3.5,0.8,7.1,1.2,10.7,1c3.6-0.1,7.2-0.7,10.6-1.9
		c3.1-1.1,5.9-2.7,8.4-4.7c0.1-0.2,0.2-0.3,0.3-0.5c-1.1,0.9-2.3,1.6-3.6,2.2c-1.5,0.7-3.1,1.2-4.8,1.5c-3.3,0.7-6.7,0.8-10,0.5
		c-1.7-0.2-3.3-0.5-4.9-0.7c-1.6-0.2-3.3-0.4-4.9-0.7c-1.6-0.3-3.3-0.7-4.8-1.4c-1.3-0.6-2.4-1.5-3.2-2.6c-0.6,0.5-1.2,1-1.7,1.6
		l-0.8,0.7C60.4,74,60.9,74.6,61.5,75.1z"/>
	<path class="st0" d="M119.8,45.1L119.8,45.1l-0.1,0c-0.2-0.1-0.4-0.3-0.6-0.4c-0.2,0.8-0.3,1.5-0.2,2.2c0,0.8,0.1,1.5,0.3,2.3
		c0.2,0.7,0.5,1.4,0.9,2.1c0.2,0.4,0.5,0.8,0.8,1.2c0.1-0.4,0.2-0.8,0.3-1.2c0.5-1.7,1.1-3.3,1.8-4.9c-0.4-0.3-0.9-0.7-1.5-0.9
		C121,45.4,120.4,45.2,119.8,45.1z"/>
	<path class="st0" d="M121.1,68.1l0-0.2c0.1-0.8,0.2-1.7,0.1-2.6c0-0.9-0.1-1.8-0.2-2.7c-0.1-0.9-0.2-1.8-0.4-2.7l-0.3-1.4
		c-0.1-0.4-0.2-1-0.2-1.5c0-0.1,0-0.3,0-0.4c-2.7-0.1-5.3-0.4-8-0.9c-2.9-0.5-5.8-1.2-8.6-2.1c-2.8-0.9-5.6-2-8.1-3.4
		c-1.3-0.7-2.5-1.5-3.5-2.6c-0.5-0.5-1-1.1-1.3-1.7c-0.2-0.4-0.3-0.9-0.3-1.3c0,0,0,0,0,0.1l-1.3,2.5c-0.4,0.8-0.8,1.6-1.5,2.6
		c0.3,0.3,0.6,0.7,0.9,1c0.3,0.3,0.7,0.6,1.1,0.9l1.2,0.9c-0.5,0-1.1-0.1-1.6-0.3c-0.5-0.2-1-0.5-1.4-0.8c-0.3-0.3-0.6-0.7-0.9-1.1
		c-1.9,1.4-3.9,2.9-5.8,4.3c-2,1.5-4,3-6,4.6c-2,1.6-3.9,3.2-5.8,4.8c-0.9,0.8-1.9,1.7-2.7,2.6c-0.5,0.5-1,1-1.5,1.6
		c4.7-3,9.5-5.7,14.4-8.2c2.7-1.3,5.3-2.7,8.5-3.7c1.5-0.4,3.1-0.7,4.7-0.8c1.6-0.1,3.3,0,4.9,0.4c0.4,0.1,0.9,0.3,1.3,0.5
		c1.2,0,2.3,0,3.5,0.1c2,0.2,3.9,0.5,5.8,1c1.9,0.5,3.8,1.2,5.5,2.2l0.6,0.4l0.6,0.4c0.4,0.3,0.8,0.5,1.2,0.9c0.4,0.3,0.7,0.6,1.1,1
		c0.3,0.4,0.6,0.7,0.9,1.1c-0.4-0.3-0.7-0.6-1.1-0.9c-0.4-0.3-0.8-0.6-1.2-0.8c-0.4-0.3-0.8-0.5-1.2-0.8l-0.6-0.4l-0.7-0.3
		c-1.7-0.8-3.5-1.5-5.4-1.9c-1.9-0.5-3.8-0.9-5.7-1.2c-0.9-0.1-1.8-0.3-2.7-0.3c0.5,0.3,1,0.7,1.5,1.1c1.5,0.3,3,0.7,4.4,1.2
		c1.9,0.7,3.7,1.5,5.3,2.7c1.6,1.3,2.7,3,3.5,4.7c0.8,1.8,1.3,3.6,1.5,5.5c-0.5-1.8-1.2-3.6-2-5.3c-0.9-1.6-1.9-3.2-3.4-4.4
		c-1.5-1.1-3.3-2-5.1-2.7c-0.9-0.4-1.8-0.7-2.7-1c-0.4-0.1-0.7-0.3-1.1-0.4c1.2,1.4,2,3.1,1.9,4.9c0,1.6-0.4,3-1,4.4
		c-0.6,1.4-1.3,2.7-2.1,3.9c-0.8,1.3-1.7,2.4-2.7,3.5c-1,1.1-2.1,2.1-3.4,3c-2.6,1.6-5.2,3.1-7.9,4.5c-2.7,1.4-5.3,2.8-8.1,4.1
		c-1.4,0.6-2.7,1.3-4.1,1.9c-1.4,0.6-2.8,1.2-4.2,1.7c-5.5,2.4-11.1,4.8-16.7,7c-4.3,1.7-8.7,3.4-13.1,5c-1.6,1.2-3.4,2.2-5.2,3.1
		c-1.9,1-3.7,1.9-5.6,2.8c-3.8,1.8-7.6,3.6-11.5,5.3c-3.8,1.7-7.7,3.4-11.6,5c-1.9,0.8-3.9,1.6-5.8,2.4c-0.3,0.2-0.5,0.5-0.6,0.7
		c0,0.1,0,0.2,0,0.2c0,0,0.1,0.1,0.1,0.1c0,0,0,0,0.1,0.1c0,0,0,0,0,0c0,0,0.1,0,0.1,0l0.2,0c0.1,0,0.3-0.1,0.4-0.1
		c1.1-0.3,2.3-0.8,3.4-1.2c2.2-0.9,4.4-1.8,6.7-2.7l6.6-2.8l3.3-1.4l1.6-0.7l0.8-0.4l0.4-0.2c0.1-0.1,0.3-0.1,0.2-0.1l0.6-0.2
		c1.6-0.1,3.4-0.3,5.1-0.5c1.7-0.2,3.4-0.4,5.2-0.6l5.1-0.6c1.7-0.2,3.4-0.4,5.1-0.7l0.4-0.1l0.3,0.1c0.2,0.1,0.8,0.2,1.2,0.2
		c0.5,0,1,0,1.6,0c0.5,0,1.1-0.1,1.6-0.2c0,0,0.1,0,0.1,0c0.2-0.1,0.3-0.1,0.5-0.2c0.8-0.4,1.6-0.5,2.4-0.9c0.8-0.4,1.5-0.8,2.2-1.3
		c0.7-0.5,1.4-1.1,2-1.8c0,0,0.1,0,0.1,0c0,0,0,0.1,0,0.1c-0.4,0.8-0.9,1.5-1.6,2.2c-0.6,0.7-1.3,1.3-2.1,1.8
		c-0.1,0.1-0.3,0.2-0.4,0.3c0.9,0.5,1.8,1,2.7,1.5c1.3,0.6,2.7,1.3,4,1.7c2.8,0.7,5.8,1,8.8,1c3,0,5.9-0.3,8.9-0.9
		c2.9-0.6,5.8-1.4,8.5-2.5l0,0l0.1,0c2.4-0.8,4.7-1.8,7-2.9c2.3-1.1,4.5-2.3,6.6-3.7c4.3-2.7,8.2-5.8,11.5-9.5
		c1.7-1.8,3.2-3.7,4.6-5.8c1.4-2,2.5-4.1,3.3-6.4c0.3-0.9,0.6-1.8,0.9-2.7c-0.3,0.3-0.6,0.5-0.8,0.5c-0.5-0.1-0.6-1.2-0.3-2.4
		c0.3-1.2,0.3,0.9,0.8,1c0.2,0.1,0.4-0.2,0.7-0.5c0.2-0.9,0.4-1.9,0.5-2.8c0.2-1.2,0.3-2.4,0.3-3.6c0-1.2,0-2.4-0.2-3.4L121.1,68.1z
		 M109.2,90.4c-0.8,1.4-2,2.2-2.7,1.9c-0.7-0.4-0.6-1.8,0.2-3.2c0.8-1.4,0.2,1.2,0.9,1.5C108.3,91,110,89,109.2,90.4z M111.5,80.1
		c-0.5,1-1.3,1.8-1.9,2c0.1,0.4,0.2,1.1,0.5,1.1c0.5,0.1,1.3-1.7,1-0.5c-0.3,1.2-1,2.1-1.5,2c-0.5-0.1-0.6-1.2-0.3-2.4
		c0,0,0-0.1,0-0.1c-0.1,0-0.3,0-0.4-0.1c-0.7-0.3-0.6-1.7,0.1-3.2c0.7-1.4,0.3,1.2,1,1.5C110.6,80.7,112.2,78.6,111.5,80.1z
		 M111.8,72.7c-0.4,0-0.7-0.7-0.7-1.7c0-0.9,0.4,0.5,0.8,0.5c0.4,0,0.6-1.5,0.6-0.6C112.5,71.9,112.2,72.7,111.8,72.7z M115.1,84.8
		c-0.6,1.4-1.5,2.3-2.1,2.1c-0.6-0.2-0.6-1.5,0-2.9c0.6-1.4,0.3,1,0.9,1.3C114.5,85.5,115.7,83.5,115.1,84.8z M118.7,74.1
		c-0.8,2.1-2,3.5-2.7,3.3c-0.7-0.2-0.7-2.1,0-4.2c0.8-2.1,0.3,1.5,1,1.7C117.9,75.2,119.5,72.1,118.7,74.1z M119.5,66.5
		c0,0.9-0.4,1.7-0.8,1.7c-0.4,0-0.7-0.8-0.6-1.7c0-0.9,0.4,0.6,0.8,0.6C119.3,67,119.6,65.6,119.5,66.5z"/>
	<path class="st0" d="M122.8,43.6c-0.9,0-1.9,0-2.8,0c-0.8,0-1.7-0.1-2.5-0.1c0.4,0.1,0.8,0.3,1.1,0.5c0.4,0.2,0.8,0.5,1.2,0.7
		c0.7-0.1,1.4,0.1,2,0.3c0.6,0.2,1.1,0.5,1.6,0.8c0.8-0.3,1.6-0.6,2.4-0.9c0.4-0.2,0.9-0.3,1.3-0.5c0.3-0.1,0.6-0.2,0.8-0.3
		c-0.8-0.1-1.5-0.2-2.3-0.3C124.7,43.7,123.7,43.7,122.8,43.6z"/>
	<path class="st0" d="M120.7,39.5c-0.4,0.3-0.9,0.4-1.3,0.5c-0.9,0.1-1.9,0.1-2.8,0c-1.7-0.2-3.3-0.6-4.9-1c0,0.1,0,0.3,0,0.4
		c0.3,0.3,0.4,0.6,0.4,1c0,0.6-0.3,1-0.9,1.3c0,0,0,0.1-0.1,0.1c0.4,0,0.8-0.1,1.2-0.1c0.6,0,1.3,0,1.9,0.1c0.6,0.1,1.2,0.2,1.8,0.4
		c0.5,0.2,1.1,0.5,1.4,1c0.9-0.5,1.7-1,2.5-1.7c0.8-0.7,1.5-1.6,1.4-2.6l0-0.3C121.2,39.1,121,39.3,120.7,39.5z"/>
	<path class="st0" d="M100.7,126.8l-0.1-0.6l0-0.3c0-0.1,0-0.1-0.1-0.4c-0.1-0.4-0.3-0.7-0.7-0.9c-0.2-0.1-0.4-0.2-0.6-0.2
		c-0.1,0-0.2,0-0.3,0l-0.2,0c-0.2,0-0.3,0-0.5,0c-0.3-0.5-0.7-0.9-1.1-1.3c-0.3-0.2-0.6-0.5-0.9-0.6l-0.6-0.3l-0.1,0
		c-0.1-0.1-0.3-0.1-0.4-0.1c-0.1,0-0.1,0-0.2,0l-0.1,0l-0.3,0.1c-0.7,0.2-1.4,0.5-2.1,0.8c-0.7,0.3-1.3,0.5-2,0.9
		c-0.8-0.5-1.6-1.1-2.4-1.6l-0.9-0.5l-0.2-0.1l-0.2-0.1c-0.1-0.1-0.2-0.2-0.3-0.3c-0.4-0.4-0.8-1-1.2-1.5c-1.2-1.9-2.6-4.5-3.6-6.6
		l-0.2,0.1c0,0,0,0,0,0c-0.7,0.1-1.3,0.3-2,0.4c0,0,0,0,0,0l-0.5,0.1c0.2,0.5,1,2,1.2,2.5c0.4,0.9,0.7,1.8,1.1,2.6
		c0.1,0.3,0.2,0.6,0.4,0.9c-0.5-0.5-1.1-1.1-1.6-1.6c-1.1-1.1-2.4-2.8-3.4-3.9l-0.4,0c0,0,0,0,0,0c-0.8,0.1-1.6,0.2-2.3,0.3l-0.3,0
		l7.2,10.2l-3.4,0.2l-2,0.1c-0.1,0-0.2,0-0.3,0c-0.1,0-0.3,0.1-0.4,0.2c-0.2,0.2-0.4,0.5-0.4,0.8c0,0.2,0,0.2,0,0.3l0,0.2l0.1,0.5
		l0.1,0.4l0.4,0l5.1,0c1.7,0,3.5,0,5.1-0.1c1.7,0.1,3.4,0.2,5.1,0.3l5.1,0.4l1,0.1l-0.1-0.9c0.1,0,0.2,0,0.2,0
		c0.4,0.1,0.7,0.1,1.1,0.2c0.7,0.1,1.5,0.2,2.2,0.2l0.7,0.1L100.7,126.8z"/>
</g>
</svg>
