<?xml version="1.0" encoding="utf-8"?>
<!-- Generator: Adobe Illustrator 24.1.2, SVG Export Plug-In . SVG Version: 6.00 Build 0)  -->
<svg version="1.1" id="Layer_1" xmlns="http://www.w3.org/2000/svg" xmlns:xlink="http://www.w3.org/1999/xlink" x="0px" y="0px"
	 viewBox="0 0 128 128" style="enable-background:new 0 0 128 128;" xml:space="preserve">
<style type="text/css">
	.st0{fill:#2D2D2D;}
</style>
<g>
	<path class="st0" d="M15.58,77.53l0.96-0.35c1.12-0.41,2.23-0.86,3.34-1.31c0.42-0.19,0.97-0.38,1.42-0.56
		c0.34-0.13,0.67-0.27,1.02-0.4c0.45-0.15,0.91-0.33,1.4-0.42c0.49-0.55,1.02-1.07,1.62-1.54c0.94-0.76,2.06-1.35,3.24-1.72
		c0.67-0.76,1.39-1.46,2.19-2.09c-2.55,0.76-5.04,1.7-7.44,2.83c-0.19,0.1-0.93,0.45-1.08,0.52c-2.92,1.47-5.7,3.24-8.19,5.39
		c0.16,0.01,0.4-0.02,0.63-0.08C14.97,77.73,15.28,77.63,15.58,77.53z"/>
	<path class="st0" d="M33.39,117.46c0.09-0.16,0.2-0.32,0.31-0.48c0.11-0.16,0.26-0.29,0.4-0.44l0.32-0.33
		c0.1-0.11,0.19-0.24,0.28-0.36c0.72-1.01,1.2-2.24,1.64-3.47c0.83-2.47,1.56-5.02,2.12-7.6c0.06-0.94,0.16-1.88,0.34-2.8
		c0.2-0.96,0.44-1.9,0.75-2.82c0.31-0.91,0.66-1.81,1.07-2.69c0.3-0.66,0.66-1.34,1.01-1.97c-1.54,1.03-2.97,2.25-4.34,3.57
		c0.09,0.06,0.17,0.12,0.24,0.19c0.24,0.24,0.38,0.55,0.48,0.86c0.18,0.63,0.15,1.29,0.02,1.91c-0.29,1.21-0.61,2.35-0.93,3.52
		l-2.03,6.95l-1.03,3.48c-0.18,0.58-0.37,1.15-0.61,1.75l-0.36,0.84l-0.38,0.83c-0.54,1.11-1.19,2.23-2.05,3.19
		c-0.43,0.48-0.92,0.91-1.45,1.28c-0.18,0.12-0.37,0.22-0.56,0.33c0.04-0.02,0.09-0.03,0.13-0.05c0.51-0.17,1-0.4,1.49-0.63
		c0.86-0.41,1.69-0.89,2.52-1.41c-0.05-0.53-0.05-1.06,0.01-1.59C32.86,118.83,33.04,118.13,33.39,117.46z"/>
	<path class="st0" d="M19.01,100.21c0.55,0.17,1.1,0.34,1.65,0.49c1.1,0.31,2.21,0.58,3.31,0.78c1.1,0.19,2.22,0.32,3.26,0.26
		c0.53-0.03,0.97-0.11,1.41-0.29c0.49-0.19,0.98-0.43,1.47-0.69c1.49-0.82,2.95-1.78,4.28-2.86c0.67-1.11,1.37-2.17,2.09-3.24
		c1.04-1.56,2.36-2.98,3.81-4.34c0.73-0.67,1.55-1.3,2.46-1.75c0.91-0.46,1.86-0.75,2.81-0.97c1.91-0.39,3.84-0.52,5.75-0.41
		c0.05,0,0.09,0.05,0.09,0.1c0,0.05-0.04,0.09-0.09,0.09l0,0c-1.87,0.2-3.74,0.54-5.49,1.15c-0.87,0.29-1.71,0.66-2.45,1.13
		c-0.74,0.47-1.38,1.07-1.98,1.75c-0.53,0.59-1,1.25-1.47,1.92c0.43-0.29,0.87-0.58,1.33-0.85c0.53-0.3,1.12-0.59,1.67-0.82
		c0.55-0.23,1.1-0.45,1.65-0.66c1.1-0.42,2.21-0.82,3.34-1.18c0.57-0.18,1.12-0.35,1.76-0.49l0.25-0.05
		c0.04-0.01,0.08-0.02,0.12-0.03c0.08-0.03,0.17-0.05,0.25-0.11c0.17-0.09,0.35-0.23,0.5-0.39c0.64-0.66,0.9-1.7,0.51-2.53
		l-0.23-0.48l0.42-0.27c0.72-0.46,1.42-1.18,2.03-1.89c0.62-0.73,1.2-1.51,1.7-2.33c0.5-0.82,0.94-1.69,1.22-2.61
		c0.13-0.43,0.23-0.88,0.28-1.34c-0.03-0.17-0.07-0.33-0.1-0.5c-0.05-0.36-0.12-0.72-0.15-1.1c-0.89-0.29-1.83-0.4-2.76-0.42
		c-1.03-0.04-2.07,0.06-3.09,0.19c-2.05,0.29-4.08,0.77-6.06,1.37c-3.98,1.2-7.86,2.73-11.62,4.51c-3.76,1.8-7.4,3.85-10.88,6.14
		c-3.36,2.22-6.58,4.65-9.53,7.41c0.07,0.13,0.13,0.27,0.2,0.39c1.06,1.95,2.76,3.44,4.75,4.35
		C17.97,99.85,18.47,100.04,19.01,100.21z M55.55,75.88c0.45,0.04,0.64,0.37,0.59,0.75c-0.07,0.55-0.42,0.9-1.07,0.85
		c-0.44-0.04-0.66-0.32-0.6-0.76C54.62,76.25,54.88,75.82,55.55,75.88z M45.85,85.1c-0.43,0.07-0.88,0.04-1.11-0.34
		c-0.32-0.55,0.28-0.84,0.52-1.24c0.54-0.04,0.69,0.52,1.16,0.59C46.48,84.56,46.51,85,45.85,85.1z M50.84,84.79
		c-0.4,0.28-0.82,0.11-1.17-0.15c-0.53-0.39-0.29-0.82-0.01-1.23c0.46,0.14,0.88-0.35,1.34-0.07
		C51.02,83.83,51.41,84.39,50.84,84.79z M53.18,79.74c0.39,0.34,0.35,0.8,0.05,1.22c-0.43,0.48-0.96,0.55-1.47,0.24
		c-0.52-0.32-0.75-0.85-0.28-1.36C51.97,79.3,52.61,79.25,53.18,79.74z M50.31,76.42c0.75-0.02,1.23,0.38,1.28,1.03
		c0.05,0.62-0.46,0.86-1.07,0.79c-0.6-0.07-0.97-0.42-1.01-1C49.53,76.77,49.79,76.44,50.31,76.42z M48.24,79.95
		c0.49-0.54,1.13-0.58,1.7-0.09c0.39,0.34,0.35,0.8,0.05,1.22c-0.43,0.48-0.96,0.55-1.47,0.24C48,80.99,47.77,80.46,48.24,79.95z
		 M45.5,77.88c0.54,0.07,0.57,0.65,1.01,0.81c-0.03,0.45-0.1,0.88-0.77,0.85c-0.44-0.02-0.87-0.14-1.02-0.56
		C44.52,78.39,45.18,78.22,45.5,77.88z M43.68,80.12c0.75-0.02,1.23,0.38,1.28,1.03c0.05,0.62-0.46,0.86-1.07,0.79
		c-0.6-0.07-0.97-0.42-1.01-1C42.91,80.47,43.16,80.14,43.68,80.12z M41.14,83.54c0.22-0.37,0.6-0.53,0.97-0.29
		c0.56,0.37,0.46,0.91,0.26,1.42c-0.26,0.42-0.62,0.53-0.98,0.29C40.84,84.6,40.82,84.07,41.14,83.54z M39.98,81.1
		c0.45,0.04,0.64,0.37,0.59,0.75c-0.07,0.55-0.42,0.9-1.07,0.85c-0.44-0.04-0.66-0.32-0.6-0.76C39.05,81.47,39.31,81.04,39.98,81.1z
		 M37.82,85.63c0.22-0.37,0.6-0.53,0.97-0.29c0.56,0.37,0.46,0.91,0.25,1.42c-0.26,0.42-0.62,0.53-0.98,0.29
		C37.52,86.68,37.49,86.16,37.82,85.63z M37.05,88.87c0.75-0.02,1.23,0.38,1.28,1.03c0.05,0.62-0.46,0.86-1.07,0.79
		c-0.6-0.07-0.97-0.42-1.01-1C36.28,89.22,36.53,88.89,37.05,88.87z M35.66,88.59c-0.26,0.42-0.62,0.53-0.98,0.29
		c-0.54-0.36-0.57-0.89-0.24-1.42c0.22-0.37,0.6-0.53,0.97-0.29C35.96,87.55,35.86,88.09,35.66,88.59z M34.89,82.95
		c0.48,0.04,0.93,0.18,0.89,0.67c-0.06,0.84-0.93,0.52-1.39,0.7c-0.49,0.04-0.84-0.06-0.8-0.51C33.64,83.11,34.16,82.9,34.89,82.95z
		 M33.39,92.91c0.22-0.37,0.6-0.53,0.97-0.29c0.56,0.37,0.46,0.91,0.25,1.42c-0.26,0.42-0.62,0.53-0.98,0.29
		C33.09,93.97,33.07,93.44,33.39,92.91z M31.25,97.31c-0.26,0.42-0.62,0.53-0.98,0.29c-0.54-0.36-0.57-0.89-0.24-1.42
		c0.22-0.37,0.6-0.53,0.97-0.29C31.55,96.26,31.45,96.8,31.25,97.31z M31.48,84.93c0.58,0.19,1.05,0.51,1.01,1.1
		c-0.04,0.6-0.52,0.91-1.17,0.89c-0.52-0.01-1-0.27-0.87-0.78C30.56,85.65,30.6,84.97,31.48,84.93z M29.98,89.53
		c0.54,0.07,0.57,0.65,1.01,0.81c-0.03,0.45-0.1,0.88-0.77,0.85c-0.44-0.02-0.87-0.14-1.02-0.56
		C29.01,90.04,29.66,89.87,29.98,89.53z M21.72,100.01c-0.28,0.17-0.73,0.26-1.06,0.19c-0.57-0.12-0.46-0.57-0.34-0.95
		c0.1-0.32,0.19-0.64,0.29-0.96c0,0,0,0-0.01,0l0.01,0c0,0,0,0,0,0c0.52,0.03,0.91,0.26,1.16,0.68
		C21.98,99.34,22.14,99.75,21.72,100.01z M27.78,95.43c-0.28,0.17-0.73,0.26-1.06,0.19c-0.57-0.12-0.46-0.57-0.34-0.95
		c0.1-0.32,0.19-0.64,0.29-0.96c0,0,0,0-0.01,0c0,0,0.01,0,0.01,0c0,0,0,0,0,0c0.52,0.03,0.91,0.26,1.16,0.68
		C28.05,94.75,28.2,95.16,27.78,95.43z M27.5,86.96c0.65,0,1.02,0.4,1.01,1c-0.02,0.83-0.78,0.96-1.43,1.02
		c-0.61,0.05-1.02-0.35-1.28-1.04C26.26,87.53,26.69,86.97,27.5,86.96z M25.85,97.47c0.58,0.19,1.05,0.51,1.01,1.1
		c-0.04,0.6-0.52,0.91-1.18,0.89c-0.52-0.01-1-0.27-0.87-0.78C24.93,98.19,24.96,97.51,25.85,97.47z M23.68,90.86
		c0.54,0.12,0.89,0.36,0.83,0.9c-0.05,0.42-0.36,0.58-0.8,0.47c-0.51-0.13-0.87-0.39-0.85-0.91C22.95,90.9,23.21,90.76,23.68,90.86z
		 M21.45,95.05c0.1-0.3,0.13-0.76,0.73-0.68c0.38,0.05,0.47,0.39,0.48,0.68c0.02,0.45-0.21,0.75-0.76,0.7
		C21.51,95.71,21.38,95.45,21.45,95.05z M20.46,90.82c0.54,0.12,0.89,0.36,0.83,0.9c-0.05,0.42-0.36,0.58-0.8,0.47
		c-0.51-0.13-0.87-0.39-0.85-0.91C19.74,90.85,20,90.72,20.46,90.82z M16.64,92.67c0.1-0.3,0.13-0.76,0.73-0.68
		c0.38,0.05,0.47,0.39,0.48,0.68c0.02,0.45-0.21,0.75-0.76,0.7C16.7,93.33,16.58,93.07,16.64,92.67z M16.91,97.63
		c-0.28,0.17-0.73,0.26-1.06,0.19c-0.57-0.12-0.46-0.57-0.34-0.95c0.1-0.32,0.19-0.64,0.29-0.96c0,0,0,0-0.01,0l0.01,0c0,0,0,0,0,0
		c0.52,0.03,0.91,0.26,1.16,0.68C17.18,96.95,17.33,97.36,16.91,97.63z"/>
	<path class="st0" d="M32.22,70.64c0.75-0.05,1.48-0.11,2.19-0.23c1.42-0.24,2.89-0.73,4.4-1.09l0.13-0.03l0.09,0
		c2.7,0.09,5.41,0.37,8.05,0.98c-0.05-0.02-0.09-0.05-0.14-0.07c-0.51-0.28-1.03-0.54-1.57-0.77c-1.07-0.48-2.22-0.79-3.39-0.95
		c-1.17-0.17-2.37-0.12-3.56-0.04c-1.19,0.08-2.26,0.2-3.34,0.42c-1.07,0.21-2.11,0.57-3.16,1.04c-0.7,0.32-1.41,0.68-2.15,1.01
		c0.02,0,0.03-0.01,0.05-0.01C30.64,70.76,31.44,70.69,32.22,70.64z"/>
	<path class="st0" d="M17.06,51.36c2.86-1.31,5.9-2.32,9.06-2.64c2.4-0.26,4.88-0.08,7.18,0.62c0.65,0.09,1.29,0.23,1.91,0.43
		c-0.12-0.9-0.13-1.81,0-2.7c0.07-0.44,0.17-0.89,0.31-1.32c-0.06-0.36-0.16-0.71-0.29-1.06c-0.03-0.04-0.04-0.1-0.05-0.15
		c-0.28-0.68-0.68-1.31-1.12-1.9c-0.38-0.49-0.81-0.93-1.27-1.35c-0.12-0.1-0.25-0.23-0.32-0.29c-0.54-0.46-1.12-0.89-1.73-1.26
		c-0.62-0.38-1.28-0.71-1.93-0.95c-0.35-0.13-0.6-0.19-0.9-0.21c-0.15-0.01-0.31-0.01-0.47-0.01c-0.33,0.02-0.93,0.09-1.45,0.23
		c-1.07,0.26-2.18,0.67-3.31,1.04c-1.48,0.49-3,0.98-4.59,1.3c-0.79,0.16-1.6,0.29-2.41,0.36l-1.12,0.12l-1.09,0.18
		c-2.89,0.62-5.76,1.77-8.21,3.59c-1.22,0.9-2.36,1.99-3.2,3.23c-0.81,1.28-1.3,2.75-1.62,4.25c-0.27,1.31-0.4,2.65-0.43,3.97
		c0.02,0.16,0.01,1.09,0.01,1.29c0.02,0.5,0.05,0.99,0.13,1.43c0.03,0.16,0.07,0.32,0.11,0.43c0.05,0.14,0.12,0.31,0.19,0.45
		c0.13,0.3,0.3,0.57,0.5,0.82c0.19,0.25,0.42,0.48,0.67,0.69c0.16,0.06,0.33,0.1,0.49,0.13c2.16-2.11,4.43-4.11,6.86-5.93
		C11.5,54.31,14.19,52.67,17.06,51.36z M31.77,43.63c0.62,0.03,0.98,0.43,0.96,1.03c-0.01,0.57-0.46,0.76-0.95,0.65
		c-0.49-0.11-0.76-0.46-0.74-0.98C31.1,43.91,31.34,43.61,31.77,43.63z M11.44,53.65c-0.51,0.01-0.81-0.39-0.96-1.04
		c0.41-0.34,0.82-0.83,1.49-0.78c0.53,0.04,0.81,0.43,0.74,0.98C12.63,53.57,11.99,53.64,11.44,53.65z M17.9,49.86
		c-0.4,0-0.69-0.11-0.62-0.53c0.11-0.65,0.56-0.81,1.15-0.71c0.39,0.07,0.75,0.22,0.67,0.68C18.99,50.07,18.3,49.72,17.9,49.86z
		 M29.88,45.92c-0.07,0.41-0.16,0.8-0.71,0.73c-0.36-0.05-0.71-0.18-0.79-0.58c-0.11-0.57,0.44-0.68,0.73-0.97
		C29.56,45.21,29.53,45.74,29.88,45.92z M28.02,41.12c0.62,0.03,0.98,0.43,0.96,1.03c-0.01,0.57-0.46,0.76-0.95,0.65
		c-0.49-0.11-0.76-0.45-0.74-0.98C27.35,41.4,27.59,41.1,28.02,41.12z M26.92,47.63c-0.01,0.57-0.46,0.76-0.95,0.65
		c-0.49-0.11-0.76-0.45-0.74-0.98c0.06-0.42,0.3-0.72,0.73-0.7C26.58,46.63,26.94,47.03,26.92,47.63z M26.14,43.41
		c-0.07,0.41-0.16,0.8-0.71,0.73c-0.36-0.05-0.71-0.18-0.79-0.58c-0.11-0.57,0.44-0.68,0.73-0.97
		C25.81,42.7,25.78,43.23,26.14,43.41z M24.05,39.69c0.44,0.1,0.41,0.63,0.76,0.82c-0.07,0.41-0.16,0.8-0.71,0.73
		c-0.36-0.05-0.71-0.18-0.79-0.58C23.2,40.09,23.75,39.98,24.05,39.69z M23.23,47.99c-0.11,0.5-0.43,0.81-0.96,0.71
		c-0.36-0.06-0.51-0.34-0.42-0.74c0.17-0.42,0.42-0.8,0.97-0.7C23.18,47.32,23.31,47.64,23.23,47.99z M23.17,45.12
		c-0.01,0.57-0.46,0.76-0.95,0.65c-0.49-0.11-0.76-0.46-0.74-0.98c0.06-0.42,0.3-0.72,0.73-0.7C22.83,44.12,23.19,44.52,23.17,45.12
		z M20.88,41.19c0.62,0.03,0.98,0.43,0.96,1.03c-0.01,0.57-0.46,0.76-0.95,0.65c-0.49-0.11-0.76-0.45-0.74-0.98
		C20.21,41.46,20.45,41.17,20.88,41.19z M19.06,44.75c0.36,0.07,0.49,0.38,0.42,0.73c-0.11,0.5-0.43,0.81-0.96,0.71
		c-0.36-0.06-0.51-0.34-0.42-0.74C18.26,45.03,18.52,44.65,19.06,44.75z M16.77,42.55c0.17-0.42,0.42-0.8,0.97-0.7
		c0.36,0.07,0.49,0.38,0.41,0.73c-0.11,0.5-0.43,0.81-0.96,0.71C16.84,43.22,16.68,42.95,16.77,42.55z M16.18,51.3
		c-0.09,0.55-0.51,0.8-1.05,0.74c-0.43-0.05-0.8-0.32-0.65-0.77c0.15-0.45,0.24-1.07,0.97-1.05C15.91,50.43,16.27,50.75,16.18,51.3z
		 M14.69,46.12c0.39,0.07,0.75,0.22,0.67,0.68c-0.13,0.77-0.82,0.41-1.21,0.56c-0.4,0-0.69-0.11-0.62-0.53
		C13.65,46.18,14.1,46.02,14.69,46.12z M13.36,43.21c0.39,0.07,0.75,0.22,0.67,0.68c-0.13,0.77-0.82,0.41-1.21,0.56
		c-0.4,0-0.69-0.11-0.62-0.53C12.32,43.28,12.77,43.11,13.36,43.21z M11.7,47.71c0.46,0.21,0.82,0.54,0.73,1.08
		c-0.09,0.55-0.51,0.8-1.05,0.74c-0.43-0.05-0.8-0.32-0.65-0.77C10.88,48.31,10.96,47.69,11.7,47.71z M9.4,45.85
		c0.15-0.45,0.24-1.07,0.97-1.05c0.46,0.21,0.82,0.54,0.73,1.08c-0.09,0.55-0.51,0.8-1.05,0.74C9.62,46.58,9.25,46.31,9.4,45.85z
		 M1.17,53.46c0.11-0.27,0.18-0.69,0.67-0.58c0.31,0.07,0.35,0.39,0.33,0.66c-0.02,0.42-0.24,0.68-0.69,0.6
		C1.15,54.07,1.07,53.82,1.17,53.46z M2.26,60.94c-0.24,0.14-0.63,0.2-0.89,0.11c-0.46-0.15-0.33-0.55-0.2-0.9
		c0.11-0.29,0.22-0.58,0.33-0.87c0,0,0,0-0.01,0l0.01,0c0,0,0,0,0,0c0.43,0.07,0.72,0.3,0.89,0.7C2.54,60.34,2.63,60.73,2.26,60.94z
		 M2.8,57.03c-0.32-0.06-0.4-0.31-0.31-0.67c0.11-0.27,0.18-0.69,0.67-0.58c0.31,0.07,0.35,0.39,0.33,0.66
		C3.47,56.86,3.25,57.12,2.8,57.03z M3.29,51.01c-0.41-0.15-0.68-0.41-0.61-0.89c0.11-0.38,0.34-0.48,0.71-0.36
		c0.44,0.14,0.7,0.39,0.6,0.88C3.91,51.01,3.64,51.14,3.29,51.01z M5.31,53.53c-0.08,0.38-0.35,0.51-0.7,0.38
		C4.21,53.76,3.93,53.5,4,53.02c0.11-0.38,0.34-0.49,0.71-0.36C5.15,52.8,5.41,53.04,5.31,53.53z M5.41,47.2
		c0.41-0.34,0.82-0.83,1.49-0.78c0.53,0.04,0.81,0.43,0.74,0.98c-0.09,0.76-0.73,0.84-1.28,0.84C5.86,48.25,5.55,47.85,5.41,47.2z
		 M8.16,54.9c-0.08,0.38-0.35,0.51-0.7,0.38c-0.41-0.15-0.68-0.41-0.61-0.89C6.95,54,7.18,53.9,7.55,54.02
		C7.99,54.16,8.26,54.41,8.16,54.9z M7.69,51.14c-0.51,0.01-0.81-0.39-0.96-1.04c0.41-0.34,0.82-0.83,1.49-0.78
		c0.53,0.04,0.81,0.43,0.74,0.98C8.88,51.06,8.24,51.14,7.69,51.14z"/>
	<path class="st0" d="M31.21,110.84c1.46-2,2.84-4.06,4.12-6.15c0.65-1.04,1.24-2.12,1.71-3.25c0.23-0.56,0.42-1.14,0.48-1.74
		c0.04-0.3,0.02-0.59-0.04-0.88c-0.03-0.09-0.07-0.17-0.11-0.25c-0.08-0.12-0.17-0.22-0.27-0.3c-0.03,0.03-0.07,0.06-0.1,0.09
		c-0.47,0.44-0.96,0.86-1.47,1.26c-0.72,0.46-1.02,0.72-1.46,1.09c-0.7,0.49-1.44,0.94-2.19,1.36c-0.57,0.32-1.12,0.58-1.39,0.72
		c-0.37,0.17-0.75,0.34-1.15,0.48c-0.29,0.11-0.69,0.22-1.01,0.27c-0.34,0.06-0.67,0.09-1,0.1c-0.37,0.01-0.73,0-1.09-0.02
		c-1.43,1.37-2.9,2.66-4.25,3.98c-0.59,0.59-1.12,1.25-1.64,1.93c-0.33,0.46-0.98,1.44-1.29,1.8c-0.35,0.52-0.68,1.05-0.98,1.6
		c-0.22,0.41-0.42,0.83-0.6,1.26c-0.17,0.53-0.39,0.98-0.43,1.21c-0.05,0.18-0.11,0.36-0.15,0.54c-0.16,0.65-0.25,1.32-0.22,1.99
		c0,0.36,0.13,0.9,0.22,1.21c0.31,1,1.12,1.82,2.12,2.25c1.03,0.46,2.19,0.52,3.33,0.46l0.07,0c1.43-1.7,2.85-3.4,4.24-5.13
		C28.22,114.79,29.75,112.84,31.21,110.84z M33.67,103.82c0.44-0.05,0.7,0.23,0.73,0.61c0.04,0.55-0.22,0.97-0.87,1.05
		c-0.44,0.05-0.71-0.18-0.74-0.62C32.84,104.38,33,103.9,33.67,103.82z M30.45,104.84c0.47-0.06,0.94-0.02,1.01,0.48
		c0.11,0.83-0.81,0.7-1.22,0.97c-0.47,0.14-0.83,0.11-0.89-0.34C29.27,105.24,29.73,104.93,30.45,104.84z M29.14,108.71
		c0.73-0.18,1.28,0.12,1.47,0.74c0.18,0.6-0.27,0.94-0.88,0.99c-0.6,0.05-1.04-0.22-1.2-0.77
		C28.45,109.22,28.63,108.84,29.14,108.71z M26.55,104.13c0.47-0.06,0.94-0.02,1.01,0.48c0.11,0.83-0.81,0.7-1.22,0.97
		c-0.47,0.14-0.83,0.11-0.89-0.34C25.36,104.53,25.82,104.22,26.55,104.13z M26.14,109.31c0.6,0.07,1.13,0.28,1.21,0.87
		c0.08,0.6-0.32,0.99-0.97,1.11c-0.51,0.1-1.04-0.06-1.02-0.58C25.39,110.2,25.28,109.53,26.14,109.31z M19.02,117.33
		c0-0.43,0.23-0.61,0.71-0.61c0.56,0,0.95,0.17,0.99,0.71c0.04,0.42-0.23,0.64-0.68,0.62C19.51,118.02,19.1,117.84,19.02,117.33z
		 M20.28,121.3c-0.39,0.05-0.57-0.19-0.59-0.59c0.04-0.31-0.02-0.77,0.58-0.82c0.38-0.03,0.53,0.28,0.61,0.57
		C20.99,120.9,20.82,121.24,20.28,121.3z M21.2,113.42c0.36-0.49,0.67-1.13,1.46-1.3c0.63-0.14,1.08,0.18,1.19,0.77
		c0.15,0.82-0.56,1.1-1.19,1.29C22.08,114.35,21.59,114.04,21.2,113.42z M23.63,118.26c-0.52-0.02-0.93-0.2-1.01-0.72
		c0-0.43,0.23-0.61,0.71-0.61c0.56,0,0.95,0.17,0.99,0.71C24.36,118.07,24.09,118.28,23.63,118.26z M23.87,108.74
		c-0.51,0.1-1.04-0.06-1.02-0.58c0.02-0.51-0.09-1.18,0.77-1.4c0.6,0.07,1.13,0.28,1.21,0.87
		C24.92,108.23,24.51,108.62,23.87,108.74z M24.87,114.47c0.29-0.39,0.53-0.9,1.16-1.03c0.5-0.11,0.86,0.14,0.95,0.61
		c0.12,0.65-0.45,0.87-0.95,1.02C25.57,115.21,25.18,114.96,24.87,114.47z"/>
	<path class="st0" d="M31.22,116.81l0.34-0.83l0.67-1.63c0.47-1.1,0.92-2.22,1.36-3.34l2.28-5.95c-1.24,2.16-2.73,4.14-4.25,6.1
		c-2.87,3.7-5.94,7.23-9.08,10.69l0.24-0.01l0.06,0.61c0.04,0.41,0.25,0.85,0.51,1.12c0.27,0.27,0.57,0.4,0.95,0.46
		c0.19,0.03,0.39,0.03,0.62,0.02c0.25-0.02,0.5-0.04,0.76-0.08c0.51-0.07,1.02-0.18,1.54-0.32c0.03-0.01,0.07-0.02,0.1-0.03
		c0,0-0.01-0.01-0.01-0.01c-0.01-0.04,0-0.08,0.03-0.1c1.86-1.58,2.72-3.67,3.54-5.86L31.22,116.81z M27.74,122.12
		c-0.23,0.23-0.66,0.41-1,0.41c-0.58,0-0.57-0.46-0.53-0.86c0.03-0.33,0.06-0.67,0.08-1c0,0,0,0-0.01,0c0,0,0.01,0,0.01,0
		c0,0,0,0,0,0c0.52-0.07,0.94,0.07,1.27,0.43C27.86,121.41,28.1,121.77,27.74,122.12z M31.8,111.93c0.27-0.03,0.54-0.01,0.58,0.27
		c0.06,0.48-0.46,0.4-0.69,0.55c-0.27,0.08-0.48,0.07-0.51-0.19C31.13,112.16,31.39,111.98,31.8,111.93z M29.25,118.16
		c-0.39,0.05-0.57-0.19-0.59-0.59c0.04-0.31-0.02-0.77,0.58-0.82c0.38-0.03,0.54,0.28,0.61,0.57
		C29.97,117.75,29.8,118.09,29.25,118.16z M29.76,115.12c0.01-0.36-0.06-0.84,0.55-1c0.43,0.05,0.81,0.2,0.87,0.62
		c0.06,0.43-0.23,0.71-0.69,0.8C30.12,115.6,29.74,115.49,29.76,115.12z"/>
	<path class="st0" d="M49.18,69.44c1.05,0.34,2.13,0.51,3.15,0.44c1.01-0.06,2.01-0.36,2.63-0.87l0.34-0.28l0.29,0
		c0.47-0.01,0.91-0.11,1.47-0.36c0.08-0.03,0.15-0.07,0.29-0.11l0.12-0.04c0.01,0,0.03-0.01,0.05-0.01l-1.3-0.44l-0.35-0.12
		l-0.36-0.08l-0.73-0.15c-0.96-0.26-1.95-0.33-2.93-0.47c-0.98-0.1-1.98-0.14-2.96-0.21c-0.99,0.01-1.98-0.02-2.97,0.02
		c-2.28,0.08-4.57,0.27-6.83,0.58c1,0.21,2.01,0.42,3.02,0.56c1.19,0.17,2.39,0.34,3.6,0.56c0.61,0.11,1.21,0.26,1.8,0.42
		C48.07,69.04,48.68,69.27,49.18,69.44z"/>
	<path class="st0" d="M23.19,71.66c2.82-1.39,5.77-2.51,8.79-3.38c0.84-0.5,1.76-0.9,2.74-1.12c0.83-0.21,1.69-0.23,2.53-0.14
		c2.13-0.41,4.29-0.69,6.45-0.83c0.67-0.05,0.91-0.03,1.35-0.05c0.27-0.01,0.55-0.03,0.82-0.03c1,0,2.01,0.05,3.01,0.07
		c1,0.1,2.01,0.15,3,0.32c1.98,0.31,3.95,0.81,5.75,1.69c0.02,0,0.04-0.01,0.05-0.01c0,0,0.01,0,0.02,0
		c-0.14-2.52-0.79-5.04-2.4-6.81c-1.06-1.18-2.46-1.96-3.98-2.42c-0.29-0.08-0.94-0.22-1.1-0.28c-0.51-0.1-1.03-0.19-1.55-0.23
		c-0.31-0.02-0.65-0.05-1.01-0.08c-0.47-0.04-1.12-0.13-1.28-0.16c-0.59-0.09-1.18-0.21-1.76-0.35c-0.09-0.02-0.18-0.05-0.27-0.08
		c-0.08-0.02-0.19-0.06-0.28-0.08c-1.13-0.32-2.23-0.71-3.29-1.13c-2.47-0.99-4.83-2.18-7.39-2.68c-2.55-0.65-5.17,0.23-7.41,1.51
		c-2.26,1.3-4.26,3.02-6.05,4.86c-0.89,0.92-1.75,1.9-2.38,2.92c-0.61,1-0.96,2.17-1.19,3.39c-0.22,1.23-0.32,2.52-0.47,3.86
		c-0.16,1.29-0.31,2.67-1.03,4.06c-0.18,0.75-0.41,1.33-0.6,1.91c-0.11,0.31-0.2,0.61-0.26,0.89c-0.06,0.23-0.07,0.46-0.07,0.57
		c2.5-2.26,5.33-4.15,8.32-5.72C22.46,72.02,22.9,71.8,23.19,71.66z M53.94,64.65c0.26-0.37,0.6-0.68,1.11-0.45
		c0.34,0.15,0.39,0.49,0.23,0.81c-0.23,0.46-0.61,0.68-1.1,0.46C53.84,65.32,53.76,65.02,53.94,64.65z M50.9,61.32
		c0.26-0.37,0.6-0.68,1.11-0.45c0.34,0.15,0.39,0.49,0.23,0.81c-0.23,0.46-0.61,0.68-1.1,0.46C50.8,61.99,50.72,61.69,50.9,61.32z
		 M49.88,63.8c0.16-0.4,0.46-0.62,0.88-0.5c0.6,0.18,0.85,0.65,0.69,1.23c-0.15,0.55-0.63,0.63-1.08,0.41
		C49.92,64.72,49.74,64.31,49.88,63.8z M47.52,65.61c-0.34-0.13-0.64-0.35-0.63-0.75c0.03-0.58,0.59-0.55,0.94-0.76
		c0.4,0.2,0.25,0.71,0.55,0.97C48.22,65.45,48.03,65.81,47.52,65.61z M46.84,60.47c0.16-0.4,0.46-0.62,0.88-0.5
		c0.6,0.18,0.85,0.65,0.69,1.23c-0.15,0.55-0.63,0.63-1.08,0.41C46.88,61.38,46.7,60.98,46.84,60.47z M44.8,60.76
		c0.4,0.2,0.25,0.71,0.55,0.97c-0.16,0.38-0.35,0.74-0.86,0.54c-0.34-0.13-0.64-0.35-0.63-0.75C43.88,60.95,44.45,60.97,44.8,60.76z
		 M41.43,65.48c-0.23,0.46-0.61,0.68-1.1,0.46c-0.33-0.15-0.42-0.45-0.23-0.82c0.26-0.37,0.6-0.68,1.11-0.45
		C41.54,64.83,41.58,65.16,41.43,65.48z M42.06,62.69c-0.15,0.55-0.63,0.63-1.08,0.41c-0.45-0.22-0.63-0.62-0.49-1.13
		c0.16-0.4,0.46-0.62,0.88-0.5C41.97,61.63,42.22,62.11,42.06,62.69z M39.9,58.82c0.16-0.4,0.46-0.62,0.88-0.5
		c0.6,0.18,0.85,0.65,0.69,1.23c-0.15,0.55-0.63,0.63-1.08,0.41C39.94,59.74,39.76,59.33,39.9,58.82z M38.39,62.15
		c-0.23,0.46-0.61,0.68-1.1,0.46c-0.33-0.15-0.42-0.45-0.23-0.82c0.26-0.37,0.6-0.68,1.11-0.45C38.5,61.5,38.55,61.83,38.39,62.15z
		 M36.46,58.66c0.26-0.37,0.6-0.68,1.11-0.45c0.34,0.15,0.38,0.49,0.23,0.81c-0.23,0.46-0.61,0.68-1.1,0.46
		C36.36,59.33,36.28,59.03,36.46,58.66z M35.33,65.37c0.26-0.6,0.74-0.65,1.29-0.41c0.36,0.16,0.67,0.39,0.49,0.82
		c-0.31,0.72-0.89,0.21-1.31,0.25C35.41,65.94,35.16,65.76,35.33,65.37z M33.79,67.01c-0.22,0.51-0.69,0.65-1.2,0.47
		c-0.41-0.15-0.7-0.5-0.45-0.91c0.25-0.4,0.49-0.98,1.2-0.79C33.73,66.1,34,66.51,33.79,67.01z M34.08,62.45
		c-0.31,0.72-0.89,0.21-1.31,0.25c-0.39-0.09-0.64-0.27-0.47-0.66c0.26-0.6,0.74-0.65,1.29-0.41
		C33.95,61.79,34.26,62.02,34.08,62.45z M31.7,58.91c0.26-0.6,0.74-0.65,1.29-0.41c0.36,0.16,0.67,0.39,0.49,0.82
		c-0.31,0.72-0.89,0.21-1.31,0.25C31.78,59.47,31.53,59.29,31.7,58.91z M25.74,69.92c-0.17,0.35-0.46,0.41-0.77,0.2
		c-0.36-0.24-0.56-0.56-0.38-1.01c0.2-0.34,0.45-0.39,0.78-0.18C25.76,69.16,25.95,69.47,25.74,69.92z M30.75,63.68
		c-0.22,0.51-0.69,0.65-1.2,0.47c-0.41-0.15-0.7-0.5-0.45-0.91c0.25-0.4,0.49-0.98,1.2-0.79C30.69,62.77,30.96,63.17,30.75,63.68z
		 M28.51,60.11c0.25-0.4,0.49-0.98,1.2-0.79c0.39,0.31,0.67,0.72,0.45,1.22c-0.22,0.51-0.69,0.65-1.2,0.47
		C28.55,60.87,28.26,60.52,28.51,60.11z M29.58,66.52c0.51,0.17,0.68,0.61,0.48,1.13c-0.27,0.72-0.91,0.64-1.44,0.51
		c-0.49-0.11-0.7-0.57-0.68-1.24C28.43,66.69,28.94,66.31,29.58,66.52z M27.03,64.32c-0.27,0.72-0.91,0.64-1.44,0.51
		c-0.49-0.11-0.7-0.57-0.68-1.24c0.48-0.23,1-0.61,1.64-0.4C27.05,63.35,27.22,63.8,27.03,64.32z M25.95,60.05
		c0.51,0.17,0.68,0.61,0.48,1.13c-0.27,0.72-0.91,0.64-1.44,0.51c-0.49-0.11-0.7-0.57-0.68-1.24C24.8,60.22,25.31,59.85,25.95,60.05
		z M16.5,68.88c0.18-0.25,0.35-0.51,0.53-0.76c0,0,0,0-0.01,0c0,0,0.01,0,0.01,0c0,0,0,0,0,0c0.4,0.17,0.63,0.46,0.7,0.9
		c0.06,0.38,0.05,0.77-0.36,0.89c-0.27,0.08-0.66,0.04-0.89-0.11C16.06,69.55,16.29,69.19,16.5,68.88z M17.96,73.05
		c-0.27,0.08-0.66,0.04-0.89-0.11c-0.41-0.26-0.19-0.61,0.02-0.92c0.18-0.25,0.35-0.51,0.53-0.76c0,0,0,0-0.01,0l0.01,0c0,0,0,0,0,0
		c0.4,0.17,0.63,0.46,0.7,0.89C18.37,72.53,18.37,72.93,17.96,73.05z M18.83,66.25c-0.3-0.14-0.32-0.4-0.14-0.73
		c0.17-0.23,0.34-0.63,0.79-0.4c0.28,0.14,0.25,0.46,0.17,0.72C19.52,66.24,19.25,66.43,18.83,66.25z M20.24,68.97
		c-0.12,0.4-0.4,0.6-0.81,0.41c-0.3-0.14-0.32-0.4-0.14-0.73c0.17-0.23,0.34-0.63,0.79-0.4C20.35,68.39,20.31,68.71,20.24,68.97z
		 M20.96,62.63c0.2-0.34,0.45-0.39,0.78-0.18c0.39,0.24,0.59,0.55,0.37,1c-0.17,0.35-0.46,0.41-0.77,0.2
		C20.98,63.4,20.77,63.08,20.96,62.63z M21.55,65.77c0.2-0.34,0.45-0.39,0.78-0.18c0.39,0.24,0.59,0.55,0.37,1
		c-0.17,0.35-0.46,0.41-0.77,0.2C21.57,66.54,21.37,66.22,21.55,65.77z"/>
	<path class="st0" d="M61.78,59.01c0.11-1.09,0.05-2.24,0.23-3.35c0.18-1.1,0.6-2.13,1.05-3.13c0.41-0.85,0.86-1.67,1.4-2.46
		c-1.24,0.63-2.46,1.28-3.58,2.03c-1.43,0.94-2.67,2.08-3.58,3.54c-0.81,1.3-2.02,2.34-3.39,2.92c0.88,0.56,1.67,1.25,2.3,2.08
		c0.86,1.13,1.4,2.46,1.65,3.81c0.24,1.25,0.24,2.51,0.11,3.74c0.1,0.02,0.2,0.05,0.29,0.1c0.23,0.11,0.42,0.5,0.41,0.54
		c0.01,0.06,0.02,0.12,0.03,0.18l0,0.04c0.01,0.04,0.03,0.08,0.04,0.12c0.11,0.29,0.23,0.62,0.31,0.96
		c0.18,0.68,0.23,1.44,0.05,2.14c-0.14,0.56-0.45,1.05-0.83,1.43c0.04,0,0.07,0,0.11,0c0.67,0.02,1.31,0.18,1.9,0.48
		c0.52-0.5,1.17-0.89,1.89-1.09c0.72-0.21,1.49-0.24,2.23-0.16c0.52,0.06,1.03,0.17,1.53,0.31c-1.18-1.31-2.13-2.79-2.93-4.35
		c-0.49-1-0.86-2.06-1.15-3.14c-0.14-0.55-0.29-1.09-0.36-1.66c-0.05-0.28-0.07-0.58-0.07-0.87c-0.02-0.3-0.01-0.59,0.02-0.88
		C61.5,61.19,61.67,60.11,61.78,59.01z"/>
	<path class="st0" d="M15.41,62.23l0.74-0.2c0.8-1.13,1.73-2.06,2.7-2.94c2.05-1.8,4.36-3.25,6.79-4.41
		c1.22-0.57,2.49-1.06,3.81-1.37c0.66-0.15,1.34-0.26,2.03-0.28c0.35-0.01,0.69,0.01,1.03,0.04c0.34,0.02,0.68,0.04,1.01,0.09
		c1.14,0.14,2.26,0.36,3.37,0.62c-0.21-0.2-0.41-0.41-0.59-0.64c-0.69-0.85-0.86-1.94-1.03-2.95c-3-0.11-5.88,0.5-8.67,1.37
		c-1.49,0.48-2.95,1.02-4.42,1.59c-1.47,0.57-2.9,1.24-4.23,2.13c-1.37,0.86-2.49,2.02-3.58,3.24c-1.09,1.21-2.28,2.31-3.68,3.32
		c-0.7,0.5-1.51,0.96-2.52,1.16c-0.78,0.14-1.6,0.26-2.44,0.34c-0.55,0.04-1.11,0.06-1.69,0.02c0.12,0.05,0.25,0.11,0.37,0.16
		c0.39,0.17,0.57,0.24,0.92,0.29c0.33,0.05,0.68,0.06,1.05,0.05c0.73-0.02,1.48-0.08,2.23-0.19c1.51-0.22,3.02-0.53,4.53-0.88
		C13.91,62.62,14.66,62.43,15.41,62.23z"/>
	<path class="st0" d="M57.84,73.74c0.25-0.52,0.39-1.06,0.35-1.57c-0.03-0.55-0.2-1.06-0.46-1.56c-0.09-0.16-0.18-0.32-0.27-0.49
		c-0.4,0.21-0.86,0.4-1.36,0.5c-1.1,0.97-2.46,1.29-3.72,1.29c-0.12,0-0.23-0.02-0.35-0.02c0.39,0.18,0.77,0.37,1.14,0.57
		c0.72,0.39,1.41,0.84,2.04,1.36c0.47,0.39,0.91,0.85,1.25,1.37c0.01-0.15,0.02-0.3,0.05-0.45c0.04-0.19,0.15-0.41,0.32-0.55
		c0.15-0.13,0.31-0.24,0.48-0.3C57.49,73.81,57.67,73.77,57.84,73.74z"/>
	<path class="st0" d="M45.34,106.06c0.63-3.36,1.45-6.73,2.89-9.88c0.75-1.55,1.59-3.09,2.75-4.39c0.58-0.65,1.21-1.26,1.95-1.73
		c0.06-0.04,0.13-0.07,0.19-0.11c0.09-0.42,0.18-0.83,0.28-1.24c0.16-0.68,0.36-1.35,0.61-2c0.23-0.59,0.49-1.18,0.72-1.77
		c0.02-0.1,0.06-0.21,0.12-0.31c0.25-0.62,0.45-1.19,0.62-1.82c0.09-0.31,0.17-0.64,0.26-0.95c-0.42,0.8-0.9,1.57-1.44,2.3
		c-0.53,0.68-1.07,1.34-1.77,1.93c0.2,0.52,0.27,1.09,0.19,1.64c-0.1,0.7-0.38,1.36-0.83,1.91c-0.22,0.28-0.49,0.53-0.82,0.74
		c-0.16,0.11-0.35,0.19-0.54,0.26l-0.31,0.09l-0.18,0.05c-0.5,0.14-1.05,0.34-1.58,0.54c-1.07,0.41-2.14,0.85-3.2,1.3
		c-0.53,0.23-1.06,0.46-1.57,0.7c-0.52,0.24-0.97,0.48-1.44,0.78c-0.06,0.03-0.11,0.08-0.17,0.11c-0.05,0.17-0.1,0.32-0.14,0.49
		l-0.2,0.68l-0.39,1.36c-0.24,0.91-0.47,1.81-0.66,2.73c-0.01,0.05-0.02,0.1-0.03,0.14c-0.08,0.4-0.21,1.19-0.27,1.5
		c-0.05,0.36-0.11,0.73-0.15,1.1c-0.12,0.91-0.15,1.82-0.15,2.73V105l-0.02,0.08c-0.49,2.68-1.13,5.36-2.29,7.89
		c-0.58,1.26-1.27,2.49-2.26,3.57c-0.13,0.13-0.25,0.27-0.4,0.39l-0.43,0.34c-0.1,0.09-0.22,0.17-0.32,0.28l-0.28,0.34
		c-0.35,0.5-0.53,1.12-0.65,1.74c-0.21,1.26,0.01,2.6,0.59,3.75c0.56,1.17,1.52,2.1,2.63,2.72c1.12,0.61,2.4,1.04,3.61,1.16
		c0.61,0.04,1.21,0,1.74-0.15c0.27-0.07,0.52-0.18,0.75-0.32c0.11-0.07,0.22-0.14,0.32-0.21c0.08-0.07,0.21-0.19,0.21-0.2l0.42-1.53
		l0.15,0.26c-0.01-2.95,0.05-5.9,0.24-8.85C44.34,112.84,44.72,109.43,45.34,106.06z M35.97,122.16c-0.39,0.05-0.57-0.19-0.59-0.59
		c0.04-0.31-0.02-0.77,0.58-0.82c0.38-0.03,0.53,0.28,0.61,0.57C36.68,121.76,36.51,122.1,35.97,122.16z M37,118.34
		c-0.52-0.02-0.93-0.2-1.01-0.72c0-0.43,0.23-0.61,0.71-0.61c0.56,0,0.95,0.17,0.99,0.71C37.72,118.15,37.45,118.36,37,118.34z
		 M44.61,101.6c-0.43,0.07-0.88,0.04-1.11-0.34c-0.32-0.55,0.28-0.85,0.52-1.24c0.54-0.04,0.69,0.52,1.16,0.59
		C45.24,101.05,45.27,101.49,44.61,101.6z M47.57,93c0.44-0.05,0.7,0.23,0.73,0.61c0.04,0.55-0.22,0.97-0.87,1.05
		c-0.44,0.05-0.71-0.18-0.74-0.62C46.74,93.56,46.91,93.08,47.57,93z M47.06,97.65c-0.58,0.39-1.1,0.46-1.47,0.09
		c-0.41-0.4-0.83-0.91-0.35-1.55c0.35-0.46,0.84-0.56,1.27-0.21C47.04,96.43,47,97.1,47.06,97.65z M45.32,92.97
		c0.44-0.05,0.7,0.23,0.73,0.61c0.04,0.55-0.22,0.97-0.87,1.05c-0.44,0.05-0.71-0.18-0.74-0.62C44.49,93.52,44.65,93.04,45.32,92.97
		z M42.82,97.12c0.73-0.18,1.28,0.12,1.47,0.74c0.18,0.6-0.27,0.94-0.88,0.99c-0.6,0.05-1.04-0.22-1.2-0.77
		C42.13,97.63,42.31,97.25,42.82,97.12z M42.29,103.45c0.73-0.18,1.28,0.12,1.47,0.74c0.18,0.6-0.27,0.94-0.88,0.99
		c-0.6,0.05-1.04-0.22-1.2-0.77C41.6,103.95,41.78,103.57,42.29,103.45z M42.51,106.72c0.47-0.06,0.94-0.02,1.01,0.48
		c0.11,0.83-0.81,0.7-1.22,0.97c-0.47,0.14-0.83,0.11-0.89-0.34C41.33,107.13,41.79,106.81,42.51,106.72z M39.63,112.41
		c0.63-0.14,1.08,0.18,1.19,0.77c0.15,0.82-0.56,1.1-1.19,1.29c-0.58,0.17-1.07-0.13-1.46-0.76
		C38.53,113.23,38.84,112.59,39.63,112.41z M38.49,124.72c-0.39,0.05-0.57-0.19-0.59-0.59c0.04-0.31-0.02-0.77,0.58-0.82
		c0.38-0.03,0.54,0.28,0.61,0.57C39.2,124.31,39.03,124.66,38.49,124.72z M38.51,120.18c0-0.43,0.23-0.61,0.71-0.61
		c0.55,0,0.95,0.17,0.99,0.71c0.04,0.42-0.23,0.64-0.68,0.62C39,120.88,38.59,120.7,38.51,120.18z M40.6,126.62
		c-0.39,0.04-0.57-0.19-0.59-0.59c0.04-0.31-0.02-0.77,0.58-0.82c0.38-0.03,0.54,0.28,0.61,0.57
		C41.32,126.22,41.15,126.56,40.6,126.62z M42.56,124.19c-0.23,0.23-0.66,0.41-1,0.41c-0.58,0-0.57-0.46-0.53-0.86
		c0.03-0.33,0.06-0.67,0.09-1c0,0,0,0-0.01,0l0.01,0c0,0,0,0,0,0c0.52-0.07,0.94,0.07,1.27,0.43
		C42.68,123.48,42.92,123.85,42.56,124.19z M42.86,121.08c-0.23,0.23-0.66,0.41-1,0.41c-0.59,0-0.57-0.46-0.53-0.86
		c0.03-0.33,0.06-0.67,0.08-1c0,0,0,0-0.01,0l0.01,0c0,0,0,0,0,0c0.52-0.07,0.94,0.07,1.27,0.43
		C42.98,120.37,43.22,120.74,42.86,121.08z M42.15,117.03c-0.58,0.17-1.07-0.13-1.46-0.76c0.36-0.49,0.67-1.13,1.46-1.3
		c0.63-0.14,1.08,0.18,1.19,0.77C43.5,116.55,42.78,116.84,42.15,117.03z M43.36,111.59c-0.51,0.1-1.04-0.06-1.02-0.58
		c0.02-0.51-0.09-1.18,0.77-1.4c0.6,0.07,1.13,0.28,1.21,0.87C44.41,111.08,44,111.47,43.36,111.59z"/>
	<path class="st0" d="M56.46,84.82c0.03,0.12,0.05,0.25,0.04,0.37c0.25-0.42,0.5-0.8,0.66-1.17c0.22-0.49,0.3-1.03,0.3-1.63
		c0-1-0.15-2.05-0.35-3.09c-0.03,0.55-0.06,1.1-0.1,1.66c-0.06,0.71-0.12,1.42-0.23,2.13C56.72,83.66,56.59,84.26,56.46,84.82z"/>
	<path class="st0" d="M119.24,75.2c-0.08-0.1-0.28-0.31-0.36-0.41c-1.73-1.94-3.63-3.74-5.74-5.26c-2.45-1.77-5.17-3.14-8.02-4.09
		c-1.43-0.49-2.91-0.82-4.41-1.02c1.14,0.6,2.22,1.34,3.12,2.26c1.17,1.19,1.99,2.66,2.88,3.96c0.91,1.31,1.91,2.55,2.97,3.75
		c0.52,0.61,1.06,1.2,1.56,1.81l1.49,1.82c0.99,1.18,2.04,2.34,3.12,3.07c0.23,0.16,0.63,0.37,0.96,0.57l1.02,0.6
		c0.67,0.39,1.34,0.78,2.02,1.12c1.33,0.65,2.72,1.28,4.2,0.77c0.1-0.06,0.2-0.11,0.3-0.18c0.21-0.14,0.4-0.3,0.59-0.47
		c-1.49-2.52-3.44-5.6-5.22-7.75C119.57,75.56,119.4,75.38,119.24,75.2z M107.63,69.11c-0.47,0-0.65-0.3-0.6-0.74
		c0.04-0.28,0.14-0.6,0.46-0.61c0.52-0.02,0.51,0.42,0.58,0.71C108.1,68.86,107.97,69.1,107.63,69.11z M111.25,72.51
		c-0.56-0.04-0.95-0.37-0.94-0.95c0.01-0.57,0.44-0.84,0.95-0.97c0.76,0.12,0.73,0.77,0.8,1.25
		C112.13,72.33,111.7,72.54,111.25,72.51z M114.55,73.95c-0.28,0.04-0.67-0.09-0.89-0.27c-0.34-0.29-0.18-0.67,0.04-1
		c0.25-0.38,0.59-0.57,1.04-0.56c0,0,0,0,0,0l0.01,0c0,0,0,0-0.01,0c0.06,0.32,0.12,0.63,0.18,0.95
		C114.99,73.45,115.05,73.88,114.55,73.95z M116.29,78.42c-0.56-0.11-1.2-0.3-1.15-1.09c0.03-0.58,0.38-0.93,0.94-0.87
		c0.69,0.07,1.02,0.65,1.38,1.07C117.19,78.17,116.8,78.52,116.29,78.42z M119.79,78.67C119.79,78.67,119.79,78.67,119.79,78.67
		c0.05,0.32,0.11,0.63,0.17,0.95c0.07,0.38,0.13,0.81-0.37,0.88c-0.29,0.04-0.67-0.09-0.89-0.27c-0.34-0.29-0.18-0.67,0.04-1
		C118.99,78.84,119.33,78.66,119.79,78.67C119.78,78.67,119.78,78.67,119.79,78.67L119.79,78.67z"/>
	<path class="st0" d="M111.79,31.17c-0.75,0.13-1.48,0.52-2.17,1.06c-1.38,1.08-2.62,2.56-4.08,3.91c-0.73,0.68-1.53,1.32-2.42,1.87
		c-0.95,0.55-1.78,0.93-2.67,1.34c-1.76,0.79-3.61,1.56-5.55,2.02c-1.93,0.48-3.91,0.68-5.82,0.79c-1.92,0.13-3.81,0.22-5.65,0.53
		c-0.92,0.17-1.83,0.37-2.68,0.73c-0.49,0.2-0.96,0.47-1.4,0.78c1,0.21,1.83,0.79,2.5,1.39c0.78,0.71,1.39,1.5,1.97,2.3
		c0.38,0.52,0.73,1.06,1.07,1.6c0.07-0.02,0.13-0.03,0.2-0.05l0.7-0.17c0.47-0.11,0.93-0.23,1.39-0.35c0.92-0.24,1.82-0.52,2.7-0.84
		c0.88-0.32,1.73-0.7,2.52-1.15c0.2-0.11,0.39-0.22,0.58-0.35c0.18-0.13,0.38-0.24,0.55-0.38l0.52-0.42l0.57-0.47
		c0.77-0.61,1.56-1.19,2.37-1.74c0.82-0.53,1.65-1.04,2.51-1.52c1.71-0.95,3.52-1.76,5.45-2.28c0.49-0.12,0.98-0.23,1.49-0.3
		c0.49-0.08,1.05-0.11,1.49-0.13c0.94-0.05,1.89-0.12,2.84-0.21c1.9-0.18,3.79-0.45,5.66-0.82c0.93-0.2,1.86-0.41,2.77-0.68
		c0.9-0.28,1.82-0.57,2.61-1.02c0.19-0.11,0.38-0.23,0.52-0.37c0.16-0.13,0.2-0.27,0.18-0.3c0.01-0.02-0.18-0.24-0.32-0.4
		c-0.16-0.16-0.32-0.33-0.49-0.48c-0.68-0.62-1.46-1.14-2.26-1.62c-1.6-0.95-3.34-1.68-5.1-2.08
		C113.45,31.18,112.5,31.04,111.79,31.17z"/>
	<path class="st0" d="M117,83.92c-0.37-0.16-0.74-0.33-1.1-0.5c-0.37-0.17-0.69-0.32-1.13-0.58c-1.6-1.01-2.55-2.4-3.49-3.72
		c-0.94-1.33-1.71-2.72-2.47-4.13c-0.76-1.4-1.59-2.75-2.59-3.98c-0.26-0.3-0.52-0.6-0.79-0.89c-0.28-0.27-0.56-0.55-0.85-0.81
		l-0.9-0.74l-0.92-0.7c-1.22-0.92-2.42-1.82-3.73-2.62c-0.61-0.38-1.24-0.73-1.89-1.07c-0.03,0-0.06,0-0.09,0
		c0.35,0.33,0.69,0.67,1.03,1.01c1.35,1.36,2.67,2.85,3.62,4.59c0.96,1.74,1.43,3.68,1.67,5.58c0.12,0.96,0.22,1.9,0.21,2.88
		c0.01,0.23-0.01,0.45-0.02,0.67c0.05,0.04,0.11,0.08,0.16,0.11l0.31,0.19l0.64,0.36l1.29,0.71c0.86,0.46,1.73,0.92,2.6,1.36
		c1.74,0.89,3.51,1.72,5.29,2.46c0.89,0.37,1.8,0.7,2.7,0.96c0.9,0.26,1.81,0.48,2.6,0.36c0.66-0.08,1.31-0.17,1.95-0.29
		c-0.62-0.06-1.22-0.2-1.8-0.37C118.5,84.55,117.74,84.24,117,83.92z"/>
	<path class="st0" d="M7.75,61c0.57-0.15,1.21-0.48,1.86-0.85c1.31-0.75,2.57-1.76,3.97-2.59c1.39-0.85,2.75-1.73,3.96-2.82
		c2.43-2.19,5.36-4,8.59-4.81c1.48-0.4,3-0.65,4.54-0.71c-1.49-0.12-2.99-0.08-4.47,0.13c-3.06,0.39-6.07,1.24-8.92,2.47
		c-2.85,1.23-5.56,2.81-8.12,4.58c-0.85,0.6-1.67,1.23-2.49,1.87c-0.09,0.07-0.19,0.15-0.26,0.21c-1.44,1.15-2.85,2.35-4.21,3.6
		c0.34,0.04,0.68,0.03,1.03,0c0.73-0.07,1.47-0.26,2.22-0.46C6.2,61.43,6.95,61.19,7.75,61z M15.55,53.56
		c0.44,0.14,0.7,0.39,0.6,0.88c-0.08,0.38-0.35,0.51-0.7,0.38c-0.41-0.15-0.68-0.41-0.61-0.89C14.95,53.54,15.17,53.44,15.55,53.56z
		 M12.47,55.5c0.44,0.14,0.7,0.39,0.6,0.88c-0.08,0.38-0.35,0.51-0.7,0.38c-0.41-0.15-0.68-0.41-0.61-0.89
		C11.87,55.48,12.1,55.37,12.47,55.5z M9.07,58.13c0.11-0.29,0.22-0.58,0.33-0.87c0,0,0,0-0.01,0c0,0,0.01,0,0.01,0c0,0,0,0,0,0
		c0.43,0.07,0.72,0.3,0.89,0.7c0.15,0.35,0.24,0.74-0.13,0.95c-0.24,0.14-0.63,0.2-0.89,0.11C8.81,58.88,8.94,58.48,9.07,58.13z"/>
	<path class="st0" d="M36.15,43.48c0.36,0.07,0.49,0.38,0.41,0.73c-0.03,0.14-0.08,0.26-0.14,0.36c-0.3,0.81-0.34,1.68-0.25,2.53
		c0.09,0.92,0.29,1.83,0.59,2.68c0.31,0.86,0.87,1.57,1.19,2.35c0.31,0.7,0.64,1.38,1.04,2.2c0.1,0.03,0.19,0.05,0.29,0.08
		c2.08-3.13,4.74-5.88,7.72-8.18c3.02-2.34,6.4-4.14,9.71-5.97c3.31-1.82,6.6-3.72,9.5-6.14c2.69-2.22,4.99-4.89,6.83-7.87
		c-0.02-0.06-0.04-0.12-0.06-0.18c-1.63-0.88-3.32-1.67-5.12-2.14c-1.88-0.48-3.86-0.61-5.79-0.31c-1.92,0.33-3.75,1.07-5.4,2.11
		c-0.84,0.5-1.61,1.1-2.47,1.65c-0.79,0.51-1.45,1.12-2.01,1.85c-0.56,0.73-1.09,1.56-1.7,2.4c-0.61,0.82-1.33,1.61-2.08,2.31
		c-1.53,1.38-3.17,2.57-4.92,3.6c-0.87,0.52-1.77,1-2.7,1.42c-0.46,0.21-0.96,0.4-1.42,0.57c-0.43,0.16-0.86,0.34-1.26,0.58
		c-0.41,0.23-0.79,0.5-1.14,0.8c-0.36,0.29-0.67,0.64-0.92,1.01c-0.24,0.37-0.42,0.79-0.38,1.21
		C35.69,43.26,36.01,43.46,36.15,43.48z M41.93,49.39c-0.21,0.19-0.58,0.32-0.85,0.29c-0.48-0.05-0.43-0.47-0.38-0.84
		c0.05-0.31,0.1-0.61,0.14-0.92c0,0,0,0-0.01,0l0.01,0c0,0,0,0,0,0c0.43-0.02,0.77,0.15,1.02,0.51
		C42.09,48.75,42.25,49.11,41.93,49.39z M52.44,42.23c-0.44,0-0.74-0.26-0.82-0.72c-0.02-0.38,0.13-0.68,0.51-0.74
		c0.54-0.09,0.92,0.19,1.02,0.72C53.24,41.99,52.89,42.24,52.44,42.23z M55.36,39.51c-0.43-0.06-0.75-0.27-0.78-0.75
		c0.03-0.39,0.24-0.54,0.63-0.5c0.46,0.05,0.77,0.24,0.77,0.74C55.97,39.39,55.73,39.57,55.36,39.51z M61.07,34.22
		c-0.5,0-0.84-0.29-0.93-0.81c-0.02-0.43,0.15-0.76,0.58-0.83c0.61-0.1,1.04,0.22,1.15,0.81C61.98,33.95,61.58,34.22,61.07,34.22z
		 M62.95,35.59c-0.44,0-0.74-0.26-0.82-0.72c-0.02-0.38,0.13-0.68,0.51-0.74c0.54-0.09,0.92,0.19,1.02,0.72
		C63.75,35.35,63.4,35.59,62.95,35.59z M63.88,31.97c-0.36,0.03-0.73-0.04-0.89-0.41c-0.23-0.53,0.29-0.75,0.52-1.1
		c0.45,0.01,0.53,0.54,0.91,0.64C64.44,31.52,64.43,31.93,63.88,31.97z M66.23,32.89c-0.44,0-0.74-0.26-0.82-0.72
		c-0.02-0.38,0.13-0.68,0.51-0.74c0.54-0.09,0.92,0.19,1.02,0.72C67.03,32.65,66.68,32.9,66.23,32.89z M70.06,27.45
		c0.37-0.01,0.56,0.27,0.55,0.63c-0.01,0.51-0.25,0.88-0.8,0.89c-0.36,0.01-0.57-0.23-0.56-0.64C69.33,27.89,69.5,27.47,70.06,27.45
		z M68.17,24.88c0.37-0.01,0.56,0.27,0.55,0.63c-0.01,0.51-0.25,0.88-0.8,0.89c-0.36,0.01-0.57-0.23-0.56-0.64
		C67.45,25.32,67.61,24.89,68.17,24.88z M65.8,28.49c0.61-0.1,1.05,0.22,1.15,0.81c0.1,0.56-0.29,0.84-0.8,0.83
		c-0.5-0.01-0.84-0.29-0.93-0.81C65.2,28.89,65.38,28.56,65.8,28.49z M63.77,25.05c0.61-0.1,1.04,0.22,1.15,0.81
		c0.1,0.56-0.29,0.84-0.8,0.83c-0.5,0-0.84-0.29-0.93-0.81C63.17,25.45,63.34,25.12,63.77,25.05z M62.39,27.97
		c0.45,0.01,0.53,0.54,0.91,0.64c0.02,0.41,0,0.82-0.55,0.86c-0.36,0.03-0.73-0.04-0.89-0.41C61.64,28.54,62.16,28.32,62.39,27.97z
		 M60.61,25.58c0.45,0.01,0.53,0.54,0.91,0.64c0.02,0.41,0,0.82-0.55,0.86c-0.36,0.03-0.73-0.04-0.89-0.41
		C59.86,26.14,60.38,25.92,60.61,25.58z M59.5,29.93c0.61-0.1,1.04,0.22,1.15,0.81c0.1,0.56-0.29,0.84-0.8,0.83
		c-0.5,0-0.84-0.29-0.93-0.81C58.9,30.34,59.07,30,59.5,29.93z M59.18,37.1c-0.01,0.51-0.25,0.88-0.8,0.89
		c-0.36,0.01-0.57-0.23-0.56-0.64c0.08-0.44,0.25-0.87,0.81-0.88C59,36.46,59.19,36.74,59.18,37.1z M57.53,35.38
		c-0.36,0.01-0.57-0.23-0.56-0.64c0.08-0.45,0.25-0.87,0.81-0.88c0.37-0.01,0.56,0.27,0.55,0.63C58.32,35,58.07,35.36,57.53,35.38z
		 M57.05,27.3c0.61-0.1,1.04,0.22,1.15,0.81c0.1,0.56-0.29,0.84-0.8,0.83c-0.5,0-0.84-0.29-0.93-0.81
		C56.45,27.71,56.62,27.37,57.05,27.3z M56.55,31.91c0.4-0.01,0.78,0.07,0.8,0.53c0.03,0.78-0.72,0.57-1.07,0.79
		c-0.39,0.09-0.7,0.03-0.71-0.39C55.55,32.18,55.95,31.93,56.55,31.91z M55.02,29.5c0.37-0.01,0.56,0.27,0.55,0.63
		c-0.01,0.51-0.25,0.88-0.8,0.89c-0.36,0.01-0.57-0.23-0.56-0.64C54.29,29.94,54.46,29.51,55.02,29.5z M53.77,36.08
		c0.4-0.01,0.78,0.07,0.8,0.53c0.03,0.78-0.72,0.57-1.07,0.79c-0.39,0.09-0.7,0.03-0.71-0.39C52.76,36.36,53.17,36.11,53.77,36.08z
		 M51.88,33.51c0.4-0.01,0.78,0.07,0.8,0.53c0.03,0.78-0.72,0.57-1.07,0.79c-0.39,0.09-0.7,0.03-0.71-0.39
		C50.87,33.78,51.28,33.53,51.88,33.51z M51.17,38.25c0.49,0.11,0.91,0.36,0.93,0.91c0.03,0.56-0.34,0.89-0.88,0.94
		c-0.43,0.04-0.85-0.15-0.79-0.63C50.48,39.01,50.44,38.38,51.17,38.25z M49.28,35.68c0.49,0.11,0.91,0.36,0.94,0.91
		c0.03,0.56-0.34,0.89-0.88,0.94c-0.43,0.04-0.85-0.15-0.79-0.63C48.59,36.43,48.55,35.81,49.28,35.68z M48.98,42.45
		c0.46,0.05,0.77,0.24,0.77,0.74c0,0.39-0.24,0.57-0.61,0.51c-0.43-0.06-0.75-0.27-0.78-0.75C48.39,42.56,48.59,42.4,48.98,42.45z
		 M48.38,40.73c0.05,0.59-0.42,0.75-0.84,0.84c-0.38,0.09-0.68-0.17-0.89-0.64c0.26-0.33,0.49-0.76,1.01-0.83
		C48.07,40.04,48.34,40.3,48.38,40.73z M46.2,37.95c0.53-0.07,0.88,0.26,0.93,0.81c0.07,0.77-0.54,0.97-1.08,1.08
		c-0.49,0.11-0.87-0.21-1.15-0.83C45.24,38.6,45.54,38.04,46.2,37.95z M45.33,44.51c0.46,0.05,0.77,0.24,0.77,0.74
		c0,0.39-0.24,0.57-0.61,0.51c-0.43-0.06-0.75-0.27-0.78-0.75C44.74,44.62,44.94,44.46,45.33,44.51z M43.44,41.94
		c0.46,0.05,0.77,0.24,0.77,0.74c0,0.39-0.24,0.57-0.61,0.51c-0.43-0.06-0.75-0.27-0.78-0.75C42.85,42.04,43.05,41.89,43.44,41.94z
		 M42.56,45.31c0.31,0.01,0.42,0.31,0.46,0.58c0.06,0.41-0.1,0.71-0.55,0.72c-0.33,0.01-0.46-0.22-0.44-0.6
		C42.08,45.73,42.06,45.3,42.56,45.31z M40.62,42.08c0.05-0.31,0.1-0.61,0.14-0.92c0,0,0,0-0.01,0l0.01,0c0,0,0,0,0,0
		c0.43-0.02,0.77,0.15,1.02,0.51c0.22,0.31,0.38,0.68,0.06,0.96c-0.21,0.19-0.58,0.32-0.85,0.29
		C40.51,42.87,40.56,42.45,40.62,42.08z M40.68,51.19c0.05,0.58-0.41,0.73-0.81,0.82c-0.37,0.08-0.66-0.16-0.87-0.62
		c0.25-0.32,0.48-0.74,0.98-0.81C40.38,50.53,40.64,50.77,40.68,51.19z M39.98,45.84c0.31,0.01,0.42,0.31,0.46,0.58
		c0.06,0.42-0.1,0.71-0.55,0.72c-0.33,0.01-0.46-0.22-0.44-0.6C39.5,46.26,39.48,45.83,39.98,45.84z M38.2,43.93
		c0.05-0.3,0.1-0.61,0.14-0.92c0,0,0,0-0.01,0l0.01,0c0,0,0,0,0,0c0.43-0.02,0.77,0.15,1.02,0.51c0.22,0.31,0.39,0.68,0.07,0.96
		c-0.21,0.19-0.58,0.32-0.85,0.29C38.09,44.72,38.14,44.3,38.2,43.93z M37.28,46.54c0.49,0.11,0.91,0.36,0.94,0.91
		c0.03,0.56-0.34,0.89-0.88,0.94c-0.43,0.04-0.85-0.15-0.79-0.63C36.59,47.3,36.55,46.68,37.28,46.54z"/>
	<path class="st0" d="M127.46,68.15c-0.13-0.46-0.29-0.9-0.5-1.34c-0.19-0.44-0.41-0.87-0.65-1.3c-0.22-0.43-0.49-0.83-0.74-1.25
		c-0.28-0.39-0.53-0.8-0.84-1.18c-2.32-3.09-5.38-5.55-8.71-7.32c-0.42-0.22-0.85-0.41-1.27-0.61l-1.31-0.53
		c-0.96-0.35-1.89-0.77-2.79-1.23c-1.81-0.91-3.49-2.01-5.12-3.1c-1.63-1.08-3.2-2.26-4.84-2.95c-0.4-0.17-0.81-0.31-1.2-0.39
		c-0.4-0.08-0.75-0.09-1.22-0.05c-0.89,0.08-1.81,0.27-2.71,0.53c-1.79,0.54-3.53,1.35-5.03,2.49c-0.74,0.58-1.43,1.23-2,1.99
		c-0.39,0.53-0.71,1.11-0.95,1.73c1.95,2.71,4.06,5.26,6.42,7.63c0.55,0.56,1.11,1.1,1.68,1.64c1.36,0.12,2.71,0.47,3.98,1.02
		c1.9,0.04,3.81,0.35,5.64,0.91c2.96,0.9,5.69,2.44,8.13,4.29c1.24,0.94,2.4,1.96,3.49,3.05c0.27,0.28,0.34,0.35,0.42,0.44
		c0.92,0.94,1.8,1.92,2.62,2.94c1.72,2.21,3.61,5.32,5.03,7.89c0.1-0.1,0.21-0.19,0.3-0.29c0.28-0.33,0.57-0.67,0.74-0.99
		c0.39-0.75,0.68-1.67,0.93-2.58c0.49-1.84,0.84-3.76,0.96-5.69C128.07,71.96,127.98,69.99,127.46,68.15z M91.8,55.87
		c-0.56,0-0.83-0.37-0.85-0.9c-0.01-0.37,0.17-0.67,0.56-0.67c0.58,0,0.77,0.44,0.86,0.9C92.38,55.61,92.17,55.87,91.8,55.87z
		 M114.87,58.17c0.63,0.01,1.06,0.25,1.05,0.94c0,0.44-0.31,0.5-0.73,0.43c-0.38-0.22-1.15,0.02-1.14-0.79
		C114.06,58.26,114.46,58.17,114.87,58.17z M108.76,58.7c0.58,0,0.77,0.44,0.86,0.9c0.02,0.43-0.19,0.68-0.57,0.68
		c-0.56,0-0.83-0.37-0.85-0.9C108.18,59,108.37,58.7,108.76,58.7z M102.14,50.63c0.45,0.06,0.64,0.4,0.62,0.85
		c-0.08,0.55-0.43,0.85-0.94,0.87c-0.53,0.02-0.95-0.25-0.86-0.84C101.06,50.89,101.5,50.54,102.14,50.63z M95.64,56.96
		c-0.53,0.02-0.95-0.25-0.86-0.84c0.1-0.62,0.53-0.96,1.18-0.88c0.44,0.06,0.64,0.4,0.62,0.85C96.5,56.64,96.15,56.94,95.64,56.96z
		 M96.1,53.98c-0.56,0-0.83-0.37-0.85-0.9c-0.01-0.37,0.17-0.67,0.56-0.67c0.58,0,0.77,0.44,0.86,0.9
		C96.68,53.73,96.47,53.98,96.1,53.98z M97.13,50.35c-0.01-0.37,0.17-0.67,0.56-0.67c0.58,0,0.77,0.44,0.86,0.9
		c0.02,0.43-0.19,0.68-0.57,0.68C97.42,51.25,97.15,50.88,97.13,50.35z M98.97,58.35c-0.15,0.39-0.53,0.47-0.91,0.45
		c-0.57-0.03-0.6-0.45-0.59-0.88c0.39-0.12,0.47-0.67,0.93-0.7C98.64,57.58,99.19,57.79,98.97,58.35z M99.08,54.24
		c0.1-0.62,0.53-0.96,1.18-0.88c0.45,0.06,0.64,0.4,0.62,0.85c-0.08,0.55-0.43,0.85-0.94,0.87C99.41,55.1,98.99,54.83,99.08,54.24z
		 M101.04,61.06c-0.53,0.02-0.95-0.25-0.86-0.84c0.1-0.62,0.53-0.96,1.17-0.88c0.45,0.06,0.64,0.4,0.62,0.85
		C101.91,60.73,101.56,61.04,101.04,61.06z M103.27,56.47c-0.15,0.39-0.53,0.47-0.91,0.45c-0.57-0.03-0.6-0.45-0.59-0.88
		c0.39-0.12,0.47-0.67,0.93-0.7C102.94,55.69,103.49,55.91,103.27,56.47z M104.58,52.62c0.25,0.35,0.79,0.56,0.57,1.12
		c-0.15,0.39-0.53,0.47-0.91,0.45c-0.57-0.03-0.6-0.45-0.59-0.88C104.05,53.19,104.12,52.64,104.58,52.62z M104.76,62.16
		c-0.56,0-0.83-0.37-0.85-0.9c-0.01-0.37,0.17-0.67,0.56-0.67c0.58,0,0.77,0.44,0.86,0.9C105.34,61.91,105.13,62.16,104.76,62.16z
		 M105.34,59.17c-0.53,0.02-0.95-0.25-0.86-0.84c0.1-0.62,0.53-0.96,1.17-0.88c0.44,0.06,0.64,0.4,0.62,0.85
		C106.2,58.85,105.86,59.15,105.34,59.17z M107.23,56.44c-0.53,0.02-0.95-0.25-0.86-0.84c0.1-0.62,0.53-0.96,1.18-0.88
		c0.45,0.06,0.64,0.4,0.62,0.85C108.09,56.12,107.74,56.42,107.23,56.44z M109.01,64.15c-0.38-0.22-1.15,0.02-1.14-0.79
		c0.01-0.48,0.4-0.58,0.81-0.57c0.63,0.01,1.06,0.25,1.05,0.94C109.74,64.16,109.43,64.23,109.01,64.15z M110.09,56.64
		c-0.01-0.37,0.17-0.67,0.56-0.67c0.58,0,0.77,0.44,0.86,0.9c0.02,0.43-0.19,0.68-0.57,0.68C110.38,57.54,110.11,57.18,110.09,56.64
		z M111.45,66.88c-0.56-0.04-0.95-0.37-0.94-0.95c0.01-0.57,0.44-0.84,0.95-0.97c0.76,0.11,0.73,0.77,0.8,1.25
		C112.33,66.71,111.9,66.92,111.45,66.88z M113.31,62.26c-0.38-0.22-1.15,0.02-1.14-0.79c0.01-0.48,0.4-0.58,0.81-0.57
		c0.63,0.01,1.06,0.25,1.05,0.94C114.03,62.28,113.72,62.34,113.31,62.26z M114.93,69.2c-0.56-0.11-1.2-0.3-1.15-1.09
		c0.03-0.58,0.38-0.93,0.94-0.87c0.69,0.07,1.02,0.65,1.38,1.07C115.83,68.96,115.45,69.3,114.93,69.2z M115.75,65
		c-0.56-0.04-0.95-0.37-0.94-0.95c0.01-0.57,0.44-0.84,0.95-0.97c0.76,0.12,0.73,0.77,0.8,1.25C116.63,64.82,116.2,65.03,115.75,65z
		 M116.7,61.32c0.01-0.57,0.44-0.84,0.95-0.97c0.76,0.11,0.73,0.77,0.8,1.25c0.07,0.5-0.36,0.71-0.81,0.67
		C117.08,62.23,116.69,61.9,116.7,61.32z M119.23,67.32c-0.56-0.11-1.2-0.3-1.15-1.09c0.03-0.58,0.38-0.93,0.94-0.87
		c0.69,0.07,1.02,0.65,1.38,1.07C120.13,67.07,119.75,67.42,119.23,67.32z M119.96,63.5c0.03-0.58,0.38-0.93,0.94-0.87
		c0.69,0.07,1.02,0.65,1.38,1.07c-0.27,0.64-0.65,0.99-1.17,0.89C120.56,64.48,119.92,64.29,119.96,63.5z M121.88,70.71
		c-0.39,0.07-0.64-0.1-0.65-0.51c-0.01-0.52,0.3-0.72,0.78-0.79c0.4-0.06,0.62,0.09,0.67,0.5
		C122.65,70.41,122.32,70.63,121.88,70.71z M122.56,73.5c0.04-0.28,0.14-0.6,0.46-0.61c0.52-0.02,0.51,0.42,0.58,0.71
		c0.03,0.39-0.1,0.63-0.44,0.63C122.69,74.24,122.51,73.94,122.56,73.5z M123.89,78.61c-0.28,0.04-0.67-0.09-0.89-0.27
		c-0.34-0.29-0.18-0.67,0.04-1c0.25-0.38,0.59-0.57,1.04-0.56c0,0,0,0,0,0l0.01,0c0,0,0,0-0.01,0c0.06,0.32,0.12,0.63,0.18,0.95
		C124.33,78.11,124.39,78.54,123.89,78.61z M123.76,67.98c-0.39,0.07-0.64-0.11-0.65-0.51c-0.02-0.52,0.3-0.72,0.78-0.79
		c0.4-0.06,0.62,0.09,0.67,0.5C124.54,67.68,124.21,67.9,123.76,67.98z M124.45,70.77c0.04-0.28,0.14-0.6,0.46-0.61
		c0.52-0.02,0.51,0.42,0.58,0.71c0.03,0.39-0.1,0.63-0.44,0.63C124.57,71.51,124.39,71.21,124.45,70.77z M125.78,75.88
		c-0.29,0.04-0.67-0.09-0.89-0.27c-0.34-0.29-0.18-0.67,0.04-1c0.25-0.38,0.59-0.57,1.04-0.56c0,0,0,0,0,0l0.01,0c0,0,0,0-0.01,0
		c0.06,0.32,0.12,0.63,0.18,0.95C126.22,75.38,126.28,75.81,125.78,75.88z"/>
	<path class="st0" d="M66.42,34.37c-2.88,2.5-6.17,4.47-9.45,6.35c-3.29,1.89-6.55,3.8-9.58,6.03c-3.01,2.18-5.67,4.79-8.03,7.69
		c0.67,0.19,1.33,0.4,1.98,0.6c1.26,0.39,2.5,0.8,3.73,1.12c0.62,0.17,1.24,0.32,1.86,0.42c0.63,0.11,1.21,0.16,1.93,0.25
		c1.38,0.19,2.75,0.54,4.03,1.16c0.22,0.11,0.44,0.24,0.65,0.36c1.28-0.75,2.31-1.87,2.9-3.17c0.4-0.83,0.91-1.63,1.52-2.35
		c0.61-0.71,1.3-1.35,2.02-1.92c1.45-1.14,3.02-2.07,4.57-2.95c0.69-0.4,1.3-0.91,1.84-1.47c0.54-0.57,0.97-1.26,1.37-1.99
		c0.78-1.47,1.47-3.15,2.41-4.76c0.46-0.81,1.01-1.58,1.62-2.31l0.46-0.54l0.37-0.46c0.27-0.29,0.44-0.64,0.66-0.96
		c0.35-0.69,0.64-1.43,0.76-2.22c0.12-0.79,0.15-1.6,0.08-2.43c-0.08-0.82-0.24-1.65-0.45-2.48c-0.17-0.66-0.39-1.31-0.61-1.99
		C71.31,29.36,69.07,32.09,66.42,34.37z M42.75,54.39c-0.38,0.08-0.68-0.17-0.89-0.64c0.26-0.33,0.49-0.76,1.01-0.83
		c0.41-0.05,0.68,0.2,0.72,0.63C43.63,54.14,43.16,54.29,42.75,54.39z M46.05,55.41c-0.49,0.11-0.87-0.21-1.15-0.83
		c0.33-0.42,0.64-0.98,1.3-1.07c0.53-0.07,0.88,0.26,0.93,0.81C47.2,55.09,46.59,55.29,46.05,55.41z M46.08,50.78
		c-0.39,0.09-0.7,0.03-0.71-0.39c-0.02-0.66,0.38-0.91,0.99-0.93c0.4-0.01,0.78,0.07,0.8,0.53C47.18,50.77,46.44,50.56,46.08,50.78z
		 M73.13,29.77c0.37-0.01,0.56,0.27,0.55,0.63c-0.01,0.51-0.25,0.88-0.8,0.89c-0.36,0.01-0.57-0.23-0.56-0.64
		C72.41,30.21,72.58,29.79,73.13,29.77z M71.7,32.99c0.45,0.01,0.53,0.54,0.91,0.64c0.02,0.41,0,0.82-0.55,0.86
		c-0.36,0.03-0.73-0.04-0.89-0.41C70.95,33.55,71.48,33.33,71.7,32.99z M62.47,38.94c0.4-0.01,0.78,0.07,0.8,0.53
		c0.03,0.78-0.72,0.57-1.07,0.79c-0.39,0.09-0.7,0.03-0.71-0.39C61.47,39.21,61.87,38.96,62.47,38.94z M49.84,46.82
		c0.41-0.05,0.68,0.2,0.72,0.63c0.05,0.59-0.42,0.75-0.84,0.84c-0.38,0.08-0.68-0.17-0.89-0.64C49.09,47.32,49.33,46.89,49.84,46.82
		z M48.21,51.47c0.33-0.42,0.64-0.98,1.3-1.07c0.53-0.07,0.88,0.26,0.93,0.81c0.07,0.77-0.54,0.97-1.08,1.08
		C48.86,52.4,48.48,52.08,48.21,51.47z M50.16,56.03c-0.43,0.04-0.85-0.15-0.79-0.63c0.05-0.47,0.01-1.09,0.74-1.22
		c0.49,0.11,0.91,0.36,0.93,0.91C51.07,55.64,50.7,55.97,50.16,56.03z M52.01,45.91c0.05-0.28,0.04-0.71,0.53-0.7
		c0.31,0.01,0.42,0.31,0.46,0.58c0.06,0.41-0.1,0.71-0.55,0.72C52.13,46.52,52,46.28,52.01,45.91z M52.23,53.16
		c0.05-0.47,0.01-1.09,0.74-1.22c0.49,0.11,0.91,0.36,0.94,0.91c0.03,0.56-0.34,0.89-0.88,0.94C52.6,53.83,52.18,53.64,52.23,53.16z
		 M54.18,56.17c-0.44,0-0.74-0.26-0.82-0.72c-0.02-0.38,0.13-0.68,0.51-0.74c0.54-0.09,0.92,0.19,1.02,0.72
		C54.98,55.93,54.63,56.17,54.18,56.17z M54.9,50.36c-0.43,0.04-0.85-0.15-0.79-0.63c0.05-0.47,0.01-1.09,0.74-1.22
		c0.49,0.11,0.91,0.36,0.93,0.91C55.8,49.98,55.44,50.31,54.9,50.36z M56.15,44.83C55.65,44.94,55.28,44.61,55,44
		c0.33-0.42,0.64-0.98,1.3-1.07c0.53-0.07,0.88,0.26,0.93,0.81C57.29,44.51,56.68,44.71,56.15,44.83z M57.67,51.77
		c-0.43-0.06-0.75-0.27-0.78-0.75c0.03-0.39,0.24-0.54,0.63-0.5c0.46,0.05,0.77,0.24,0.77,0.74C58.28,51.65,58.04,51.82,57.67,51.77
		z M57.67,48.2c-0.44,0-0.74-0.26-0.82-0.72c-0.02-0.38,0.13-0.68,0.51-0.74c0.54-0.09,0.92,0.19,1.02,0.72
		C58.47,47.97,58.12,48.21,57.67,48.2z M58.34,42.54c-0.39,0.09-0.7,0.03-0.71-0.39c-0.02-0.66,0.38-0.91,0.99-0.93
		c0.39-0.01,0.78,0.07,0.8,0.53C59.44,42.53,58.69,42.33,58.34,42.54z M59.82,46.32c-0.43,0.04-0.85-0.15-0.79-0.63
		c0.05-0.47,0.01-1.09,0.74-1.22c0.49,0.11,0.91,0.36,0.94,0.91C60.73,45.94,60.36,46.27,59.82,46.32z M60.98,48.7
		c-0.44,0-0.74-0.26-0.82-0.72c-0.02-0.38,0.13-0.68,0.51-0.74c0.54-0.09,0.92,0.19,1.02,0.72C61.78,48.46,61.43,48.71,60.98,48.7z
		 M62.1,43.62c-0.39,0.09-0.7,0.03-0.71-0.39c-0.02-0.66,0.38-0.91,0.99-0.93c0.4-0.01,0.78,0.07,0.8,0.53
		C63.2,43.61,62.45,43.41,62.1,43.62z M63.96,45.73c-0.43-0.06-0.75-0.27-0.78-0.75c0.04-0.39,0.24-0.54,0.63-0.5
		c0.46,0.05,0.77,0.24,0.77,0.74C64.57,45.61,64.33,45.79,63.96,45.73z M64.35,37.55c-0.03-0.43,0.15-0.76,0.58-0.83
		c0.61-0.1,1.04,0.22,1.15,0.81c0.1,0.56-0.29,0.84-0.8,0.83C64.78,38.36,64.44,38.07,64.35,37.55z M66.19,44.61
		c-0.44,0-0.74-0.26-0.82-0.72c-0.02-0.38,0.13-0.68,0.51-0.74c0.54-0.09,0.92,0.19,1.02,0.72C66.99,44.37,66.64,44.61,66.19,44.61z
		 M66.87,41.06c-0.5,0-0.84-0.29-0.93-0.81c-0.02-0.43,0.15-0.76,0.58-0.83c0.61-0.1,1.04,0.22,1.15,0.81
		C67.77,40.79,67.38,41.07,66.87,41.06z M70.03,38.02c0.02,0.41,0,0.82-0.55,0.86c-0.36,0.03-0.73-0.04-0.89-0.41
		c-0.23-0.53,0.29-0.75,0.52-1.1C69.57,37.38,69.65,37.91,70.03,38.02z M68.91,35.09c0.02,0.41,0,0.82-0.55,0.86
		c-0.36,0.03-0.73-0.04-0.89-0.41c-0.23-0.53,0.29-0.75,0.52-1.1C68.45,34.46,68.53,34.98,68.91,35.09z"/>
	<path class="st0" d="M74.11,37.73l-0.36,0.47l-0.39,0.49c-0.27,0.31-0.49,0.68-0.73,1.01c-0.22,0.36-0.45,0.7-0.65,1.08
		c-0.64,1.08-1.14,2.26-1.74,3.46c0.59,1.69,1.03,3.45,1.2,5.27c0.07-0.14,0.14-0.28,0.22-0.41c0.48-0.84,1.03-1.65,1.71-2.38
		c0.91-1,2.09-1.88,3.48-2.31c-0.13-0.12-0.25-0.25-0.36-0.39c-0.23-0.31-0.41-0.66-0.53-1.02c-0.36-0.26-0.67-0.58-0.92-0.9
		c-0.36-0.49-0.62-1.01-0.77-1.55c-0.16-0.53-0.22-1.07-0.23-1.59C74.02,38.54,74.05,38.13,74.11,37.73z"/>
	<path class="st0" d="M76.17,41.01c0.31,0.24,0.69,0.29,1,0.4l0.51,0.17l0.14,0.59c0.09,0.4,0.11,0.81,0.13,1.24
		c0.01,0.22,0.02,0.44,0.02,0.68c0,0.01,0,0.02,0,0.03c2.43-2.38,5.05-4.56,7.84-6.51c2.84-1.98,5.89-3.67,9.07-5.05
		c3.18-1.38,6.51-2.49,9.97-2.98l0.65-0.1l0.65-0.05l1.31-0.1c0.43-0.04,0.87,0,1.31-0.01c0.44,0.01,0.87-0.01,1.31,0.05
		c0.4,0.03,0.8,0.08,1.2,0.14c0.08-0.01,0.17-0.03,0.25-0.04c0.28-0.05,0.57-0.02,0.86-0.03c0.29,0,0.53,0.05,0.79,0.08
		c0.51,0.08,1.02,0.19,1.5,0.34c0.65,0.19,1.28,0.44,1.89,0.71c-0.1-1.12-0.47-2.2-0.94-3.18c-0.5-1.03-1.14-1.96-1.86-2.83
		c-0.64-0.78-1.49-1.39-2.41-1.96c-0.11,0.2-1.36-0.77-1.86-1.07c-0.43-0.22-0.86-0.45-1.3-0.67c-2.08-1.02-4.22-1.99-6.42-2.79
		c-2.2-0.77-4.42-1.63-6.72-1.98c-1.14-0.18-2.3-0.1-3.38,0.3c-0.54,0.2-1.04,0.48-1.51,0.81c-0.46,0.35-0.89,0.73-1.26,1.16
		c-0.76,0.86-1.34,1.87-1.87,2.89c-0.53,1.03-1.02,2.08-1.54,3.14l-0.19,0.4l-0.24,0.44c-0.17,0.29-0.36,0.56-0.55,0.82
		c-0.39,0.52-0.82,0.99-1.26,1.43c-0.91,0.86-1.86,1.62-2.85,2.31c-0.98,0.7-1.99,1.34-2.99,1.99c-0.5,0.33-1.02,0.65-1.51,0.99
		c-0.01,0.25-0.03,0.49-0.06,0.74c-0.11,0.98-0.43,1.93-0.85,2.83c-0.21,0.36-0.4,0.73-0.65,1.07c0.2,0.96,0.54,1.9,1.01,2.65
		C75.6,40.44,75.87,40.77,76.17,41.01z M113.16,25.59c0.44,0.09,0.68,0.31,0.57,0.69c-0.14,0.53-0.54,0.63-1.01,0.44
		c-0.3-0.13-0.62-0.34-0.54-0.7C112.32,25.42,112.81,25.57,113.16,25.59z M110.32,26.78C110.32,26.78,110.32,26.78,110.32,26.78
		C110.32,26.78,110.32,26.78,110.32,26.78c0.37,0.03,0.75,0.06,1.12,0.1c0.44,0.04,0.95,0.1,0.87,0.68
		c-0.04,0.33-0.3,0.72-0.58,0.91c-0.43,0.29-0.8-0.01-1.11-0.35C110.27,27.72,110.17,27.28,110.32,26.78
		C110.32,26.78,110.32,26.78,110.32,26.78z M108.13,24.15L108.13,24.15C108.13,24.14,108.13,24.14,108.13,24.15
		c0.37,0.03,0.75,0.06,1.12,0.1c0.44,0.04,0.95,0.1,0.87,0.68c-0.04,0.33-0.3,0.72-0.58,0.91c-0.43,0.29-0.8-0.01-1.11-0.35
		C108.08,25.09,107.98,24.65,108.13,24.15C108.13,24.15,108.13,24.15,108.13,24.15z M107.19,27.03c-0.14,0.53-0.54,0.63-1.01,0.44
		c-0.3-0.12-0.62-0.34-0.54-0.7c0.13-0.58,0.63-0.44,0.98-0.42C107.06,26.43,107.3,26.65,107.19,27.03z M105.69,22.75
		c0.44,0.09,0.68,0.31,0.57,0.69c-0.14,0.53-0.54,0.63-1.01,0.44c-0.3-0.12-0.62-0.34-0.54-0.7
		C104.85,22.59,105.35,22.73,105.69,22.75z M104.01,20.01c0.44,0.09,0.68,0.31,0.57,0.69c-0.14,0.53-0.54,0.63-1.01,0.44
		c-0.3-0.13-0.62-0.34-0.54-0.7C103.16,19.85,103.66,19.99,104.01,20.01z M102.85,27.37c-0.04,0.45-0.31,0.68-0.77,0.57
		c-0.58-0.14-0.71-0.56-0.64-1.11c0.06-0.47,0.29-0.66,0.77-0.59C102.76,26.41,102.9,26.85,102.85,27.37z M100.65,21.46
		c0.06-0.47,0.29-0.66,0.77-0.59c0.56,0.17,0.7,0.61,0.65,1.13c-0.04,0.45-0.31,0.68-0.77,0.56
		C100.71,22.42,100.58,22.01,100.65,21.46z M99.87,25.42c-0.14,0.53-0.54,0.63-1.01,0.44c-0.3-0.13-0.62-0.34-0.54-0.7
		c0.13-0.58,0.63-0.44,0.98-0.42C99.74,24.82,99.97,25.04,99.87,25.42z M98.18,18.51c0.06-0.47,0.29-0.66,0.77-0.59
		c0.56,0.17,0.7,0.61,0.65,1.13c-0.04,0.45-0.31,0.68-0.77,0.56C98.24,19.48,98.11,19.06,98.18,18.51z M98.24,29.28
		c-0.29,0.59-0.7,1.24-1.58,0.95c-0.64-0.21-0.92-0.72-0.69-1.32c0.29-0.75,1.04-0.94,1.63-1.21
		C98.24,28.19,98.51,28.73,98.24,29.28z M94.55,22.83c0.29-0.75,1.04-0.94,1.63-1.21c0.64,0.5,0.91,1.03,0.64,1.58
		c-0.29,0.59-0.7,1.24-1.58,0.95C94.6,23.93,94.32,23.43,94.55,22.83z M93.79,31.37c-0.22,0.61-0.71,0.95-1.35,0.75
		c-0.64-0.19-0.81-0.75-0.8-1.35c0.36-0.81,1.08-0.58,1.65-0.51C93.86,30.34,93.97,30.88,93.79,31.37z M91.64,26.47
		c0.36-0.81,1.08-0.58,1.65-0.51c0.58,0.07,0.68,0.62,0.5,1.11c-0.22,0.61-0.71,0.95-1.35,0.75C91.8,27.63,91.63,27.07,91.64,26.47z
		 M91.51,19.6c0.29-0.75,1.04-0.94,1.63-1.21c0.64,0.5,0.91,1.03,0.64,1.58c-0.29,0.59-0.7,1.24-1.58,0.95
		C91.56,20.7,91.28,20.2,91.51,19.6z M90.82,23.01c0.58,0.07,0.68,0.62,0.5,1.11c-0.22,0.61-0.71,0.95-1.35,0.75
		c-0.64-0.19-0.81-0.75-0.8-1.35C89.53,22.71,90.25,22.94,90.82,23.01z M88.36,28.89c0.2-0.7,0.61-1.1,1.37-0.88
		c0.49,0.14,0.47,0.51,0.25,0.94c-0.36,0.35-0.33,1.29-1.23,1.03C88.21,29.82,88.23,29.34,88.36,28.89z M88.07,32.91
		c0.2-0.7,0.61-1.1,1.37-0.88c0.49,0.14,0.47,0.5,0.25,0.94c-0.36,0.35-0.33,1.29-1.23,1.03C87.93,33.84,87.94,33.36,88.07,32.91z
		 M85.89,25.94c0.2-0.7,0.61-1.1,1.37-0.88c0.49,0.14,0.47,0.51,0.25,0.94c-0.36,0.35-0.33,1.29-1.23,1.03
		C85.74,26.87,85.75,26.4,85.89,25.94z M84.59,32.92c0.18-0.65,0.72-0.72,1.27-0.69c0.48,0.11,0.7,0.42,0.58,0.84
		c-0.17,0.63-0.67,0.82-1.27,0.67C84.75,33.65,84.48,33.35,84.59,32.92z M84.07,36.88c-0.14,0.6-0.57,0.98-1.21,0.69
		c-0.66-0.3-0.91-0.89-0.62-1.58c0.2-0.48,0.65-0.58,1.14-0.43C83.97,35.81,84.21,36.29,84.07,36.88z M82.12,29.97
		c0.18-0.65,0.72-0.72,1.27-0.69c0.48,0.11,0.7,0.42,0.58,0.84c-0.17,0.63-0.67,0.82-1.27,0.67C82.28,30.71,82.01,30.4,82.12,29.97z
		 M79.77,33.04c0.2-0.48,0.65-0.58,1.14-0.43c0.59,0.25,0.82,0.74,0.69,1.32c-0.14,0.6-0.57,0.98-1.21,0.69
		C79.73,34.33,79.48,33.73,79.77,33.04z M78.97,38.64c0.47-0.17,0.88-0.71,1.43-0.29c0.39,0.29,0.36,0.74,0.22,1.16
		c-0.21,0.63-0.69,0.53-1.16,0.39C79.45,39.42,78.86,39.17,78.97,38.64z M76.5,35.7c0.47-0.17,0.88-0.71,1.43-0.29
		c0.39,0.29,0.36,0.74,0.22,1.16c-0.21,0.63-0.69,0.53-1.16,0.39C76.98,36.47,76.39,36.22,76.5,35.7z M75.38,38.3
		c0.2-0.48,0.65-0.59,1.14-0.43c0.59,0.25,0.82,0.74,0.69,1.32c-0.14,0.6-0.57,0.98-1.21,0.69C75.33,39.58,75.08,38.99,75.38,38.3z"
		/>
	<path class="st0" d="M85.06,94.11c-0.26-2.91-0.61-5.81-1.08-8.66c-0.25-1.42-0.51-2.84-0.88-4.2c-0.19-0.68-0.38-1.35-0.64-1.93
		c-0.26-0.6-0.6-1.17-1-1.71c-0.8-1.08-1.84-2.01-2.99-2.84c-1.15-0.83-2.38-1.58-3.65-2.29c-0.03-0.01-0.05-0.03-0.08-0.04
		c-0.02-0.01-0.03-0.01-0.05-0.01c-0.05-0.03-0.1-0.06-0.15-0.09c-1.19-0.65-2.42-1.26-3.65-1.86c-1.33-0.66-2.69-1.23-3.94-2.16
		c-0.6-0.49-1.12-1.14-1.42-1.88c-0.3-0.74-0.42-1.55-0.39-2.34c0.04-1.59,0.53-3.09,1.16-4.48c0.32-0.7,0.69-1.37,1.08-2.01
		c0.2-0.32,0.41-0.64,0.63-0.95l0.62-0.88c0.73-1.07,1.13-2.39,1.34-3.76c0.34-2.3,0.17-4.71-0.09-7.14
		c-0.11,0.21-0.22,0.42-0.34,0.62c-0.48,0.81-1.02,1.63-1.72,2.33c-0.7,0.71-1.52,1.29-2.39,1.74c-0.18,0.09-0.35,0.18-0.52,0.27
		c0.01,1.12-0.22,2.16-0.44,3.19c-0.26,1.05-0.51,2.08-0.92,3.07c-0.4,0.99-0.94,1.96-1.17,3.01c-0.24,1.04-0.19,2.14,0.07,3.15
		c0.05,0.25,0.13,0.5,0.23,0.74c0.09,0.24,0.17,0.47,0.27,0.72l0.58,1.45c0.41,0.97,0.89,1.91,1.31,2.88
		c0.73,1.79,1.47,3.6,2.04,5.55c0.57,0.23,1.12,0.49,1.65,0.79c1.29,0.71,2.48,1.57,3.59,2.51c1.12,0.94,2.16,1.95,3.14,3.02
		c1.95,2.16,3.72,4.44,5.11,7.09c0.34,0.67,0.64,1.38,0.85,2.13c0.21,0.76,0.31,1.59,0.27,2.38c-0.04,0.81-0.2,1.46-0.11,1.95
		c0.04,0.24,0.13,0.55,0.25,0.85c0.11,0.3,0.26,0.59,0.41,0.91c0.3,0.62,0.67,1.28,0.92,2.04c0.26,0.75,0.37,1.59,0.29,2.38
		c-0.03,0.32-0.09,0.63-0.15,0.93c0.24,0.77,0.62,1.49,1.24,1.85c0.31,0.19,0.67,0.27,1.03,0.29c0.2-1.36,0.07-2.8,0.01-4.2
		C85.31,97.03,85.2,95.57,85.06,94.11z"/>
	<path class="st0" d="M80.15,94.93c-0.16-0.36-0.3-0.73-0.39-1.19c-0.09-0.45-0.08-0.89-0.05-1.27c0.02-0.38,0.06-0.72,0.08-1.03
		c0.07-1.24-0.36-2.45-0.94-3.68c-0.59-1.22-1.34-2.39-2.14-3.54c-0.8-1.15-1.65-2.26-2.55-3.33c-1.82-2.12-3.82-4.11-6.14-5.64
		c-1.16-0.75-2.4-1.39-3.74-1.67c-1.3-0.28-2.72-0.09-3.85,0.72c0.81,0.38,1.53,0.96,2.15,1.61c0.7,0.75,1.27,1.61,1.78,2.49
		c1,1.78,1.72,3.7,2.33,5.64c1.18,3.89,1.8,7.91,2.28,11.92c0.88,7.42,1.14,14.9,1.02,22.36h0l0.24,1.29
		c0.01,0.04,0.08,0.2,0.15,0.3c0.07,0.11,0.15,0.21,0.25,0.3c0.19,0.18,0.43,0.32,0.71,0.42c0.55,0.19,1.21,0.19,1.86,0.09
		c0.66-0.11,1.31-0.31,1.96-0.56c0.63-0.24,1.22-0.58,1.76-0.99c2.18-1.68,3.59-4.3,4.29-6.98c0.17-0.68,0.29-1.36,0.34-2.05
		c0.03-0.34,0.02-0.69-0.01-1.02c-0.03-0.32-0.11-0.68-0.16-1.04c-0.21-1.44-0.2-2.93-0.01-4.37c0.09-0.72,0.21-1.43,0.34-2.14
		l0.19-1.05c0.05-0.34,0.1-0.65,0.1-0.96c0.06-1.28-0.56-2.35-1.32-3.61C80.49,95.63,80.3,95.29,80.15,94.93z M66.35,76.81
		c-0.31,0.34-0.69,0.39-1.05,0.17c-0.37-0.23-0.54-0.61-0.2-0.98c0.35-0.38,0.81-0.42,1.22-0.07
		C66.59,76.19,66.57,76.51,66.35,76.81z M79.98,100.95c0.62,0.51,0.57,1.28,0.64,1.92c-0.67,0.45-1.27,0.54-1.7,0.11
		c-0.47-0.46-0.96-1.05-0.41-1.79C78.92,100.65,79.48,100.54,79.98,100.95z M76.81,88.73c0.25-0.55,0.68-0.6,1.21-0.42
		c0.45,0.15,0.59,0.41,0.43,0.86c-0.28,0.51-0.73,0.57-1.23,0.43C76.78,89.46,76.61,89.16,76.81,88.73z M76.49,92.84
		c0.18-0.27,0.45-0.55,0.79-0.4c0.55,0.24,0.32,0.7,0.23,1.04c-0.17,0.42-0.43,0.6-0.78,0.43C76.24,93.67,76.21,93.26,76.49,92.84z
		 M75.34,104.4c-0.47-0.46-0.96-1.05-0.41-1.79c0.4-0.54,0.97-0.65,1.47-0.24c0.62,0.51,0.57,1.28,0.64,1.92
		C76.37,104.74,75.78,104.83,75.34,104.4z M76.99,109.11c-0.34,0.47-0.8,0.47-1.28,0.26c-0.42-0.18-0.55-0.51-0.29-0.91
		c0.32-0.51,0.76-0.5,1.26-0.26C77.1,108.4,77.2,108.68,76.99,109.11z M73.93,84.57c0.33-0.58,0.88-0.77,1.42-0.43
		c0.68,0.43,0.73,1.2,0.88,1.82c-0.61,0.53-1.19,0.7-1.67,0.33C74.04,85.9,73.47,85.37,73.93,84.57z M73.41,88.25
		c0.22-0.37,0.6-0.53,0.97-0.29c0.56,0.37,0.46,0.91,0.26,1.42c-0.26,0.42-0.62,0.53-0.98,0.29C73.11,89.3,73.08,88.78,73.41,88.25z
		 M72.2,84.77c0.39,0.34,0.35,0.8,0.05,1.22c-0.43,0.48-0.96,0.55-1.47,0.24c-0.52-0.32-0.75-0.85-0.28-1.36
		C70.99,84.33,71.63,84.28,72.2,84.77z M68.21,78.81c-0.52-0.32-0.75-0.85-0.28-1.36c0.49-0.54,1.13-0.58,1.7-0.09
		c0.39,0.34,0.35,0.8,0.05,1.22C69.25,79.05,68.72,79.12,68.21,78.81z M69.35,80.91c0.46,0.14,0.88-0.35,1.34-0.07
		c0.01,0.49,0.4,1.05-0.17,1.45c-0.4,0.28-0.82,0.11-1.17-0.15C68.83,81.74,69.07,81.32,69.35,80.91z M70.07,91.09
		c-0.54-0.36-0.57-0.89-0.24-1.42c0.22-0.37,0.6-0.53,0.97-0.29c0.56,0.37,0.46,0.91,0.26,1.42C70.8,91.22,70.44,91.33,70.07,91.09z
		 M70.9,98.41c-0.52-0.4-0.68-0.97-0.29-1.52c0.38-0.55,0.96-0.53,1.54-0.33c0.65,0.6,0.21,1.21-0.03,1.72
		C71.86,98.8,71.31,98.73,70.9,98.41z M72.52,99.72c0.44-0.05,0.7,0.23,0.73,0.61c0.04,0.55-0.22,0.97-0.87,1.05
		c-0.44,0.05-0.71-0.18-0.74-0.62C71.69,100.28,71.85,99.8,72.52,99.72z M73.4,107.79c-0.34,0.47-0.8,0.47-1.28,0.26
		c-0.42-0.18-0.55-0.51-0.29-0.91c0.32-0.51,0.76-0.5,1.26-0.26C73.51,107.08,73.62,107.37,73.4,107.79z M71.89,111.08
		c0.21-0.25,0.52-0.49,0.84-0.29c0.51,0.31,0.22,0.73,0.09,1.06c-0.22,0.39-0.5,0.54-0.83,0.33
		C71.54,111.87,71.56,111.46,71.89,111.08z M73.93,116.63c-0.15,0.34-0.29,0.68-0.44,1.03c-0.18,0.41-0.39,0.87-0.92,0.62
		c-0.3-0.14-0.59-0.51-0.68-0.84c-0.14-0.49,0.26-0.76,0.68-0.94C73.05,116.29,73.5,116.33,73.93,116.63
		C73.93,116.63,73.93,116.63,73.93,116.63L73.93,116.63C73.93,116.64,73.93,116.64,73.93,116.63z M73.87,95.79
		c-0.28,0.42-0.63,0.28-0.97-0.06c-0.22-0.45-1.12-0.72-0.59-1.49c0.32-0.46,0.76-0.3,1.15-0.03
		C74.06,94.62,74.31,95.13,73.87,95.79z M74.67,113.59c-0.46-0.3-0.43-0.71-0.1-1.09c0.21-0.25,0.52-0.49,0.84-0.29
		c0.51,0.31,0.22,0.73,0.09,1.06C75.28,113.65,75,113.81,74.67,113.59z M77.5,115.22c-0.15,0.34-0.29,0.68-0.44,1.03
		c-0.18,0.41-0.39,0.87-0.92,0.62c-0.3-0.14-0.59-0.51-0.68-0.84c-0.14-0.5,0.26-0.76,0.68-0.94
		C76.62,114.87,77.07,114.91,77.5,115.22C77.5,115.21,77.5,115.21,77.5,115.22L77.5,115.22C77.51,115.22,77.5,115.22,77.5,115.22z
		 M77.06,98.52c-0.52-0.4-0.68-0.97-0.29-1.52c0.38-0.55,0.96-0.53,1.54-0.33c0.66,0.6,0.21,1.21-0.03,1.72
		C78.02,98.91,77.47,98.83,77.06,98.52z M79.08,111.84c-0.22,0.39-0.5,0.54-0.83,0.33c-0.46-0.3-0.43-0.71-0.1-1.09
		c0.21-0.25,0.52-0.49,0.84-0.29C79.5,111.1,79.21,111.52,79.08,111.84z M80.57,107.69c-0.34,0.47-0.8,0.47-1.28,0.26
		c-0.42-0.18-0.55-0.51-0.29-0.91c0.32-0.51,0.76-0.5,1.26-0.26C80.67,106.98,80.78,107.26,80.57,107.69z"/>
	<path class="st0" d="M85.84,49.72c-0.26,0.02-0.54,0.03-0.8,0.05c0.62,1,1.21,2,1.84,2.88c0.14,0.21,0.29,0.4,0.44,0.61
		c0.4-1.56,1.36-3,2.54-4.12c0,0,0.01-0.01,0.01-0.01c-0.86,0.2-1.72,0.35-2.59,0.46C86.81,49.64,86.32,49.68,85.84,49.72z"/>
	<path class="st0" d="M56.22,108.33c-0.58-0.67-1.23-1.32-1.87-2c-0.89-0.93-1.79-1.87-2.65-2.91c-0.84-1.04-1.68-2.17-2.15-3.62
		c-0.23-0.72-0.35-1.53-0.23-2.35c0.11-0.81,0.42-1.53,0.78-2.15c0.72-1.25,1.63-2.21,2.45-3.19c0.08-0.09,0.15-0.18,0.23-0.27
		c0.08-0.51,0.17-1.01,0.26-1.51c-0.65,0.49-1.22,1.09-1.71,1.73c-1.04,1.32-1.83,2.82-2.5,4.37c-1.33,3.11-2.28,6.38-2.97,9.71
		c-0.68,3.33-1.13,6.72-1.43,10.11c-0.27,2.99-0.41,5.99-0.47,8.99l0.74,1.27c0.23,0.4,0.63,0.87,1.02,1.12
		c0.4,0.28,0.81,0.38,1.24,0.33c0.44-0.05,0.85-0.26,1.45-0.58c0.55-0.3,1.1-0.61,1.63-0.95c1.05-0.68,2.09-1.37,3-2.19
		c0.91-0.81,1.75-1.69,2.35-2.68c0.3-0.5,0.57-1.01,0.74-1.55l0.13-0.41c0.04-0.14,0.05-0.28,0.08-0.42l0.08-0.42l0.05-0.48
		c0.15-1.29,0.3-2.57,0.38-3.83c0.08-1.27,0.06-2.52-0.11-3.78C56.62,109.9,56.44,109.11,56.22,108.33z M53.86,108.83
		c0.21-0.25,0.52-0.49,0.84-0.29c0.51,0.31,0.22,0.73,0.09,1.06c-0.22,0.39-0.5,0.54-0.83,0.33
		C53.5,109.62,53.52,109.21,53.86,108.83z M51.95,107.67c0.44-0.05,0.7,0.23,0.73,0.61c0.04,0.55-0.22,0.97-0.87,1.05
		c-0.44,0.05-0.71-0.18-0.74-0.62C51.12,108.23,51.28,107.75,51.95,107.67z M50.85,104.14c0.27,0.04,0.44,0.23,0.49,0.49
		c0.29,0.47,0.27,1.05,0.33,1.55c-0.67,0.45-1.27,0.54-1.7,0.11c-0.47-0.46-0.96-1.05-0.4-1.79
		C49.92,104.02,50.4,103.88,50.85,104.14z M48.17,102.09c0.73-0.18,1.28,0.12,1.47,0.74c0.18,0.6-0.27,0.94-0.88,0.99
		c-0.6,0.05-1.04-0.22-1.2-0.77C47.48,102.6,47.66,102.22,48.17,102.09z M47.21,106.39c0.32-0.46,0.76-0.3,1.15-0.03
		c0.6,0.41,0.85,0.92,0.41,1.58c-0.28,0.42-0.63,0.28-0.97-0.06C47.57,107.43,46.68,107.16,47.21,106.39z M48.54,117.08
		c0.15,0.82-0.56,1.1-1.19,1.29c-0.58,0.17-1.07-0.13-1.46-0.76c0.36-0.49,0.67-1.13,1.46-1.3
		C47.98,116.18,48.43,116.49,48.54,117.08z M44.86,113.57c0.02-0.51-0.09-1.18,0.77-1.4c0.6,0.07,1.13,0.28,1.21,0.87
		c0.08,0.6-0.32,0.99-0.97,1.11C45.36,114.24,44.84,114.09,44.86,113.57z M46.3,123.38c-0.47,0.14-0.83,0.11-0.89-0.34
		c-0.09-0.7,0.38-1.02,1.1-1.11c0.47-0.06,0.94-0.02,1.01,0.48C47.63,123.24,46.71,123.1,46.3,123.38z M48.88,120.21
		c-0.52-0.02-0.93-0.2-1.01-0.72c0-0.43,0.23-0.61,0.71-0.61c0.56,0,0.95,0.17,0.99,0.71C49.6,120.01,49.33,120.22,48.88,120.21z
		 M48.6,111.98c-0.52-0.4-0.68-0.97-0.29-1.52c0.38-0.55,0.96-0.53,1.54-0.33c0.65,0.6,0.21,1.21-0.03,1.72
		C49.56,112.37,49.01,112.29,48.6,111.98z M51.15,123.34c-0.23,0.23-0.66,0.41-1,0.41c-0.58,0-0.57-0.46-0.53-0.86
		c0.03-0.33,0.06-0.67,0.08-1c0,0,0,0-0.01,0c0,0,0.01,0,0.01,0c0,0,0,0,0,0c0.52-0.07,0.94,0.07,1.27,0.43
		C51.27,122.63,51.51,123,51.15,123.34z M51.7,117.49c-0.51,0.1-1.04-0.06-1.02-0.58c0.02-0.51-0.09-1.18,0.77-1.4
		c0.6,0.07,1.13,0.28,1.21,0.87C52.75,116.98,52.35,117.37,51.7,117.49z M52.65,111.99c-0.09-0.7,0.38-1.02,1.1-1.11
		c0.47-0.06,0.94-0.02,1.01,0.48c0.11,0.83-0.81,0.7-1.22,0.97C53.08,112.47,52.71,112.45,52.65,111.99z M55.19,117.7
		c-0.15,0.34-0.29,0.68-0.44,1.03c-0.18,0.41-0.39,0.87-0.92,0.62c-0.3-0.14-0.59-0.51-0.68-0.84c-0.14-0.5,0.26-0.76,0.68-0.94
		C54.31,117.35,54.77,117.39,55.19,117.7C55.19,117.69,55.19,117.69,55.19,117.7L55.19,117.7C55.2,117.7,55.2,117.7,55.19,117.7z
		 M55.67,112.91c-0.15,0.34-0.29,0.68-0.44,1.02c-0.18,0.41-0.39,0.87-0.92,0.62c-0.3-0.14-0.59-0.51-0.68-0.84
		c-0.14-0.5,0.26-0.76,0.68-0.94C54.79,112.57,55.24,112.61,55.67,112.91C55.67,112.91,55.67,112.91,55.67,112.91L55.67,112.91
		C55.68,112.91,55.67,112.91,55.67,112.91z"/>
	<path class="st0" d="M68.45,96.03c-0.55-3.99-1.3-7.95-2.39-11.8c-0.54-1.93-1.21-3.82-2.1-5.6c-0.21-0.46-0.48-0.87-0.72-1.31
		c-0.28-0.41-0.55-0.83-0.88-1.21c-0.56-0.69-1.23-1.32-2.02-1.76c-0.01,0-0.03,0.01-0.04,0c-0.03,0.02-0.06,0.03-0.09,0.02l-0.01,0
		c-0.58-0.23-1.22-0.3-1.83-0.26c-0.3,0.02-0.6,0.09-0.84,0.22c-0.12,0.06-0.23,0.14-0.31,0.24c-0.08,0.08-0.1,0.16-0.12,0.29
		c-0.06,0.52,0.13,1.16,0.29,1.76l0.53,1.85c0.34,1.26,0.66,2.52,0.76,3.89c0.05,0.68,0,1.45-0.26,2.16
		c-0.26,0.71-0.61,1.26-0.88,1.81c-0.27,0.55-0.5,1.1-0.69,1.68l-0.28,0.91c-0.11,0.34-0.24,0.67-0.39,0.99
		c-0.59,1.28-1.42,2.36-2.22,3.38c-0.8,1.02-1.61,2-2.16,2.99c-0.56,1.01-0.69,1.9-0.33,2.91c0.35,1,1.06,1.99,1.82,2.94
		c0.13,0.15,0.27,0.31,0.4,0.46c0.63,0.79,0.98,1.09,1.32,1.48c0.27,0.29,0.54,0.58,0.81,0.87c0.1,0.1,0.19,0.21,0.29,0.31
		c0.51,0.62,0.95,1,1.28,1.42c0.35,0.41,0.7,0.83,1.03,1.29c0.02,0.03,0.04,0.06,0.07,0.1c0.2,0.24,0.51,0.74,0.56,0.83
		c0.52,0.81,1,1.64,1.44,2.47c0.62,1.15,1.2,2.3,1.78,3.44c0.6,1.14,1.16,2.24,1.87,3.24c0.35,0.54,0.69,1.01,1.09,1.43
		c0.39,0.42,0.83,0.75,1.28,0.93c0.45,0.18,0.9,0.19,1.36,0.01c0.45-0.16,0.92-0.55,1.22-0.94l0.78-0.99
		c-0.02-3.47-0.12-6.94-0.32-10.4C69.33,104.03,68.99,100.02,68.45,96.03z M55,98.66c-0.26,0.42-0.62,0.53-0.98,0.29
		c-0.31-0.21-0.45-0.47-0.45-0.75c-0.14,0.17-0.36,0.29-0.68,0.33c-0.44,0.05-0.71-0.18-0.74-0.62c0.05-0.49,0.21-0.97,0.88-1.04
		c0.44-0.05,0.7,0.23,0.73,0.61c0,0.03-0.01,0.06-0.01,0.09c0.01-0.01,0.01-0.02,0.02-0.04c0.22-0.37,0.6-0.53,0.97-0.29
		C55.3,97.62,55.2,98.16,55,98.66z M68.06,98.99c0.02,0.31-0.06,0.56-0.24,0.75c-0.08,0.23-0.21,0.46-0.31,0.67
		c-0.25,0.52-0.8,0.45-1.21,0.13c-0.52-0.4-0.68-0.97-0.29-1.52c0.22-0.31,0.51-0.44,0.82-0.45c0.12-0.1,0.28-0.17,0.5-0.19
		C67.77,98.32,68.03,98.61,68.06,98.99z M64.81,95.82c0.44-0.05,0.7,0.23,0.73,0.61c0.04,0.55-0.22,0.97-0.87,1.05
		c-0.44,0.05-0.71-0.18-0.74-0.62C63.98,96.38,64.14,95.9,64.81,95.82z M63.87,91.4c-0.26,0.42-0.62,0.53-0.98,0.29
		c-0.54-0.36-0.57-0.89-0.24-1.42c0.22-0.37,0.6-0.53,0.97-0.29C64.18,90.35,64.08,90.9,63.87,91.4z M64.93,103.72
		c0.54-0.04,0.69,0.52,1.16,0.59c0.03,0.24,0.05,0.47-0.04,0.65c0.18,0.43,0.18,0.92,0.23,1.36c-0.67,0.45-1.27,0.54-1.7,0.11
		c-0.47-0.46-0.96-1.05-0.41-1.79c0.06-0.08,0.13-0.15,0.19-0.21C64.49,104.17,64.78,103.96,64.93,103.72z M64.66,110.48
		c0.32-0.51,0.76-0.5,1.26-0.26c0.43,0.2,0.54,0.49,0.32,0.91c-0.34,0.47-0.8,0.47-1.28,0.26C64.53,111.21,64.4,110.88,64.66,110.48
		z M66.28,94.82c0.6,0.41,0.85,0.92,0.41,1.58c-0.28,0.42-0.63,0.28-0.97-0.06c-0.22-0.45-1.12-0.72-0.59-1.49
		C65.44,94.39,65.88,94.55,66.28,94.82z M65.45,88.44c0.56,0.37,0.46,0.91,0.25,1.42c-0.26,0.42-0.62,0.53-0.98,0.29
		c-0.54-0.36-0.57-0.89-0.24-1.42C64.7,88.36,65.08,88.19,65.45,88.44z M64.71,85.5c0.39,0.34,0.35,0.8,0.05,1.22
		c-0.43,0.48-0.96,0.55-1.47,0.24c-0.52-0.32-0.75-0.85-0.28-1.36C63.51,85.05,64.15,85,64.71,85.5z M62.29,80.85
		c0.46,0.14,0.88-0.35,1.34-0.07c0.01,0.49,0.4,1.05-0.17,1.45c-0.4,0.28-0.82,0.11-1.17-0.15C61.76,81.68,62,81.26,62.29,80.85z
		 M61.55,96.26c0.32-0.46,0.76-0.3,1.15-0.03c0.6,0.41,0.85,0.92,0.41,1.58c-0.28,0.42-0.63,0.28-0.97-0.06
		C61.91,97.3,61.02,97.04,61.55,96.26z M59.48,88.62c-0.52-0.32-0.75-0.85-0.28-1.36c0.49-0.54,1.13-0.58,1.7-0.09
		c0.39,0.34,0.35,0.8,0.05,1.22C60.53,88.86,59.99,88.93,59.48,88.62z M60.3,92.82c-0.26,0.42-0.62,0.53-0.98,0.29
		c-0.54-0.36-0.57-0.89-0.24-1.42c0.22-0.37,0.6-0.53,0.97-0.29C60.6,91.77,60.5,92.31,60.3,92.82z M60.8,84.44
		c-0.4,0.28-0.82,0.11-1.17-0.15c-0.53-0.39-0.29-0.82-0.01-1.23c0.46,0.14,0.88-0.35,1.34-0.07C60.99,83.48,61.38,84.04,60.8,84.44
		z M59,77.93c0.49-0.54,1.13-0.58,1.7-0.09c0.39,0.34,0.35,0.8,0.05,1.22c-0.43,0.48-0.96,0.55-1.47,0.24
		C58.76,78.97,58.53,78.44,59,77.93z M56.23,91.99c0.49-0.54,1.13-0.58,1.7-0.09c0.39,0.34,0.35,0.8,0.05,1.22
		c-0.43,0.48-0.96,0.55-1.47,0.24C56,93.03,55.77,92.5,56.23,91.99z M56.19,95.32c0.32-0.46,0.76-0.3,1.15-0.03
		c0.6,0.41,0.85,0.92,0.41,1.58c-0.28,0.42-0.63,0.28-0.97-0.06C56.56,96.36,55.66,96.1,56.19,95.32z M58.19,101.24
		c-0.09,0.07-0.21,0.12-0.39,0.15c-0.43,0.07-0.88,0.04-1.11-0.34c-0.21-0.35-0.03-0.6,0.18-0.84c-0.03-0.23,0.03-0.48,0.2-0.72
		c0.38-0.55,0.96-0.53,1.54-0.33c0.65,0.6,0.21,1.21-0.03,1.72C58.49,101.09,58.35,101.2,58.19,101.24z M59.23,105.48
		c-0.47-0.46-0.96-1.05-0.4-1.79c0.4-0.54,0.97-0.65,1.47-0.24c0.62,0.51,0.57,1.28,0.64,1.92
		C60.26,105.82,59.66,105.91,59.23,105.48z M60.37,99.15c-0.6,0.05-1.04-0.22-1.2-0.77c-0.07-0.46,0.11-0.84,0.61-0.96
		c0.73-0.18,1.28,0.12,1.47,0.74C61.43,98.76,60.98,99.1,60.37,99.15z M63.03,109.81c-0.34,0.47-0.8,0.47-1.28,0.26
		c-0.42-0.18-0.55-0.51-0.3-0.91c0.32-0.51,0.76-0.5,1.26-0.26C63.14,109.1,63.25,109.38,63.03,109.81z M62.36,108.03
		c-0.6,0.05-1.04-0.22-1.2-0.77c-0.07-0.46,0.11-0.84,0.61-0.96c0.73-0.18,1.28,0.12,1.47,0.74
		C63.42,107.64,62.97,107.98,62.36,108.03z M62.73,101.96c-0.11-0.09-0.2-0.18-0.28-0.28c-0.37-0.09-0.64-0.33-0.76-0.74
		c-0.07-0.46,0.11-0.84,0.61-0.96c0.31-0.07,0.58-0.06,0.8,0.02c0.27-0.04,0.57,0.01,0.86,0.11c0.65,0.6,0.21,1.21-0.03,1.72
		C63.69,102.35,63.14,102.28,62.73,101.96z M63.91,115.61c-0.46-0.3-0.43-0.71-0.1-1.09c0.21-0.25,0.52-0.49,0.84-0.29
		c0.51,0.31,0.22,0.73,0.09,1.06C64.52,115.68,64.24,115.83,63.91,115.61z M66.74,117.24c-0.15,0.34-0.29,0.68-0.44,1.03
		c-0.18,0.41-0.39,0.87-0.92,0.62c-0.3-0.14-0.59-0.51-0.68-0.84c-0.14-0.5,0.26-0.76,0.68-0.94
		C65.86,116.9,66.31,116.94,66.74,117.24C66.74,117.24,66.74,117.24,66.74,117.24L66.74,117.24
		C66.75,117.24,66.75,117.24,66.74,117.24z M67.5,101.32c0.73-0.18,1.28,0.12,1.47,0.74c0.18,0.6-0.27,0.94-0.88,0.99
		c-0.6,0.05-1.04-0.22-1.2-0.77C66.82,101.83,66.99,101.45,67.5,101.32z M67,108.58c0.32-0.51,0.76-0.5,1.26-0.26
		c0.43,0.2,0.53,0.49,0.32,0.91c-0.34,0.47-0.8,0.47-1.28,0.26C66.88,109.31,66.75,108.98,67,108.58z M67.39,113.1
		c0.21-0.25,0.52-0.49,0.84-0.29c0.51,0.31,0.22,0.73,0.09,1.06c-0.22,0.39-0.5,0.54-0.83,0.33
		C67.03,113.9,67.06,113.49,67.39,113.1z M68.97,117.3c-0.22,0.2-0.63,0.31-0.94,0.28c-0.46-0.05-0.54-0.48-0.55-0.89
		c-0.01-0.47,0.18-0.83,0.58-1.09c0,0,0,0,0,0l0.01,0c0,0,0,0-0.01,0c0.23,0.24,0.47,0.48,0.7,0.72
		C69.06,116.61,69.36,116.95,68.97,117.3z"/>
	<path class="st0" d="M67.69,60.33c-0.71,1.22-1.35,2.5-1.58,3.85c-0.1,0.67-0.1,1.37,0.11,2.01c0.19,0.65,0.6,1.22,1.12,1.67
		c0.52,0.45,1.18,0.78,1.83,1.1c0.65,0.32,1.34,0.59,2.01,0.87c1.03,0.4,2.07,0.78,3.11,1.18c0.64,0.25,0.99,0.38,1.41,0.55
		c2.64,1.07,5.27,2.51,7.25,4.88c0.11,0.13,0.21,0.28,0.31,0.42c0.07,0.01,0.14,0.01,0.22,0.03c-0.55-2.44-1.31-4.83-2.35-7.1
		c-1.26-2.74-2.95-5.27-4.97-7.49c-1.02-1.15-2.17-2.18-3.41-3.1c-0.29-0.2-0.51-0.39-0.73-0.52c-0.74-0.51-1.51-0.99-2.31-1.44
		c-0.1,0.14-0.2,0.27-0.3,0.42c-0.21,0.29-0.41,0.59-0.61,0.88C68.42,59.12,68.04,59.72,67.69,60.33z M80.68,73.4
		c0.25-0.5,0.71-0.39,1.14-0.18c0.65,0.33,0.97,0.8,0.61,1.51c-0.23,0.45-0.58,0.36-0.97,0.07C81.18,74.39,80.25,74.24,80.68,73.4z
		 M77.64,69.19c0.18-0.39,0.52-0.61,0.92-0.41c0.6,0.29,0.57,0.84,0.44,1.37c-0.2,0.45-0.55,0.61-0.94,0.41
		C77.47,70.27,77.38,69.75,77.64,69.19z M75.98,65.89c0.43,0.29,0.45,0.74,0.21,1.2c-0.36,0.53-0.88,0.67-1.43,0.42
		c-0.56-0.25-0.85-0.75-0.46-1.31C74.73,65.61,75.36,65.48,75.98,65.89z M72.67,62.43c0.47,0.07,0.83-0.46,1.32-0.25
		c0.08,0.49,0.54,0.99,0.02,1.46c-0.36,0.33-0.79,0.21-1.18,0C72.25,63.33,72.44,62.88,72.67,62.43z M72.62,67.76
		c0.43,0.29,0.45,0.74,0.21,1.2c-0.36,0.53-0.88,0.67-1.43,0.42c-0.56-0.25-0.85-0.75-0.46-1.31C71.37,67.48,72,67.34,72.62,67.76z
		 M70.63,64.05c0.08,0.49,0.54,0.99,0.02,1.46c-0.36,0.33-0.79,0.21-1.18,0c-0.58-0.32-0.39-0.77-0.16-1.22
		C69.77,64.38,70.13,63.84,70.63,64.05z M69.33,61.94c-0.36,0.53-0.88,0.67-1.43,0.42c-0.56-0.25-0.85-0.75-0.46-1.31
		c0.42-0.59,1.05-0.73,1.67-0.31C69.55,61.03,69.57,61.48,69.33,61.94z"/>
	<path class="st0" d="M88.92,40.65c1.9-0.27,3.73-0.56,5.5-1.09c1.76-0.52,3.46-1.25,5.16-2.08c0.84-0.41,1.76-0.82,2.47-1.23
		c0.74-0.46,1.44-1.02,2.14-1.61c1.4-1.2,2.66-2.65,4.35-3.88c0.5-0.35,1.05-0.68,1.66-0.92c-1.75-0.06-3.51,0.09-5.23,0.38
		c-3.37,0.56-6.69,1.51-9.87,2.82c-3.17,1.31-6.23,2.93-9.09,4.85c-2.82,1.86-5.47,3.97-7.95,6.27c0.26-0.02,0.53-0.03,0.81-0.02
		c0.46-0.5,1.01-0.92,1.6-1.26c0.86-0.5,1.79-0.86,2.74-1.13C85.09,41.18,87.03,40.92,88.92,40.65z M102.66,32.11
		c0.17-0.65,0.72-0.72,1.27-0.69c0.48,0.11,0.7,0.42,0.58,0.84c-0.17,0.63-0.67,0.82-1.27,0.67
		C102.82,32.84,102.54,32.54,102.66,32.11z M98.87,33.29c0.18-0.65,0.72-0.72,1.27-0.69c0.48,0.11,0.7,0.42,0.58,0.84
		c-0.17,0.63-0.67,0.82-1.27,0.67C99.03,34.02,98.76,33.72,98.87,33.29z M97.52,35.84c0.17-0.65,0.72-0.72,1.27-0.69
		c0.48,0.11,0.7,0.42,0.58,0.84c-0.17,0.63-0.67,0.82-1.27,0.67C97.68,36.57,97.4,36.27,97.52,35.84z M94.27,34.5
		c0.2-0.48,0.65-0.58,1.14-0.43c0.59,0.25,0.82,0.74,0.69,1.32c-0.14,0.6-0.57,0.98-1.21,0.69C94.23,35.79,93.98,35.19,94.27,34.5z
		 M94.82,37.2c0.44,0.09,0.68,0.31,0.57,0.69c-0.14,0.53-0.54,0.63-1.01,0.44c-0.3-0.13-0.62-0.34-0.54-0.7
		C93.98,37.04,94.47,37.18,94.82,37.2z M90.63,36.18c0.2-0.48,0.65-0.58,1.14-0.43c0.59,0.25,0.82,0.74,0.69,1.32
		c-0.14,0.6-0.57,0.98-1.21,0.69C90.59,37.46,90.34,36.87,90.63,36.18z M87.3,37.94c0.18-0.65,0.72-0.72,1.27-0.69
		c0.48,0.11,0.7,0.42,0.58,0.84c-0.17,0.63-0.67,0.82-1.27,0.67C87.46,38.67,87.18,38.36,87.3,37.94z M84.52,39.26
		c0.47-0.17,0.88-0.71,1.43-0.29c0.39,0.29,0.36,0.74,0.22,1.16c-0.21,0.63-0.69,0.53-1.16,0.39C85,40.03,84.41,39.78,84.52,39.26z"
		/>
	<path class="st0" d="M102.45,74.1c-0.13-0.44-0.25-0.89-0.42-1.32c-0.31-0.87-0.72-1.69-1.23-2.44c-1.01-1.52-2.38-2.77-3.78-4.01
		c-1.4-1.23-2.89-2.44-4.29-3.77c-1.41-1.31-2.75-2.7-4.03-4.15c-1.27-1.45-2.43-3.02-3.52-4.58c-0.57-0.84-1.04-1.68-1.51-2.5
		c-0.47-0.82-0.94-1.62-1.43-2.39c-0.49-0.76-1.01-1.5-1.61-2.11c-0.59-0.61-1.26-1.09-1.95-1.19c-0.32-0.06-0.78-0.04-1.18,0.03
		c-0.42,0.05-0.82,0.18-1.22,0.33c-0.8,0.31-1.54,0.82-2.23,1.41c-0.97,0.85-1.8,1.87-2.56,2.96c0.03,0.6,0.03,1.2-0.01,1.82
		c-0.11,1.54-0.52,3.14-1.4,4.54c-0.09,0.14-0.17,0.26-0.26,0.38c2.55,1.09,4.89,2.73,6.82,4.75c0.65,0.68,1.25,1.4,1.81,2.16
		c0.17,0.25,0.34,0.5,0.66,0.94c0.98,1.46,1.81,3.02,2.5,4.63c1.07,2.48,1.82,5.08,2.32,7.72c0.07,0.14,0.09,0.28,0.08,0.43
		c0.03,0.14,0.05,0.28,0.08,0.43c0.06,0.11,0.13,0.22,0.18,0.33c0.36,0.75,0.62,1.49,0.82,2.23c0.4,1.48,0.7,2.96,0.89,4.44
		c0.41,2.97,0.55,5.94,0.55,8.91c-0.02,1.48-0.06,2.97-0.19,4.45c-0.06,0.74-0.15,1.48-0.26,2.22c-0.11,0.66-0.2,1.32-0.45,1.97
		c0.38-0.02,0.76-0.1,1.14-0.21c1.7-0.54,3.32-1.51,4.8-2.57c1.46-1.09,2.84-2.33,3.81-3.77c0.25-0.36,0.43-0.74,0.63-1.1l0.22-0.57
		l0.26-0.71c0.12-0.3,0.26-0.59,0.4-0.88c0.19-0.4,0.8-1.45,0.94-1.82c0.93-1.65,1.92-3.22,2.79-4.85c0.88-1.65,1.64-3.38,2.07-5.19
		c0.08-0.46,0.17-0.91,0.24-1.37c0.03-0.46,0.11-0.92,0.08-1.38c-0.02-0.91-0.1-1.86-0.27-2.78
		C102.67,75.01,102.55,74.56,102.45,74.1z M73.08,54.4c-0.2,0.45-0.55,0.61-0.94,0.41c-0.59-0.29-0.68-0.81-0.42-1.37
		c0.18-0.39,0.52-0.61,0.92-0.41C73.25,53.32,73.22,53.87,73.08,54.4z M74.35,50.79c0.18-0.65,0.72-0.72,1.27-0.69
		c0.48,0.11,0.7,0.42,0.58,0.84c-0.17,0.63-0.67,0.82-1.27,0.67C74.51,51.52,74.23,51.22,74.35,50.79z M75.57,57.92
		c-0.56-0.25-0.85-0.75-0.46-1.31c0.42-0.59,1.05-0.73,1.67-0.31c0.43,0.29,0.45,0.74,0.21,1.2C76.63,58.02,76.11,58.16,75.57,57.92
		z M78.31,61.07c-0.36,0.33-0.79,0.21-1.18,0c-0.58-0.32-0.39-0.77-0.16-1.22c0.47,0.07,0.83-0.46,1.32-0.25
		C78.37,60.1,78.83,60.6,78.31,61.07z M78.51,54.64c-0.2,0.45-0.55,0.61-0.94,0.41c-0.59-0.29-0.68-0.81-0.42-1.37
		c0.18-0.39,0.52-0.61,0.92-0.41C78.68,53.56,78.65,54.11,78.51,54.64z M78.86,48.99c-0.14,0.6-0.57,0.98-1.21,0.69
		c-0.66-0.3-0.91-0.89-0.62-1.58c0.2-0.48,0.65-0.58,1.14-0.43C78.76,47.93,78.99,48.41,78.86,48.99z M93.78,69.2
		c0.25-0.5,0.71-0.39,1.14-0.18c0.65,0.33,0.97,0.8,0.61,1.51c-0.23,0.45-0.58,0.36-0.97,0.07C94.27,70.18,93.35,70.03,93.78,69.2z
		 M95.53,78.6c0.68,0.43,0.73,1.2,0.89,1.82c-0.61,0.53-1.19,0.7-1.67,0.33c-0.53-0.4-1.09-0.92-0.63-1.73
		C94.44,78.44,94.98,78.26,95.53,78.6z M90.73,64.98c0.18-0.39,0.52-0.61,0.92-0.41c0.6,0.29,0.57,0.85,0.44,1.37
		c-0.2,0.45-0.55,0.61-0.94,0.41C90.57,66.07,90.48,65.55,90.73,64.98z M90.41,71.07c0.25-0.5,0.71-0.39,1.14-0.18
		c0.65,0.33,0.97,0.8,0.61,1.51c-0.23,0.45-0.58,0.36-0.97,0.07C90.91,72.05,89.99,71.9,90.41,71.07z M90.1,78.36
		c0.68,0.43,0.73,1.2,0.89,1.82c-0.61,0.53-1.19,0.7-1.67,0.33c-0.53-0.4-1.09-0.92-0.63-1.73C89.01,78.2,89.55,78.01,90.1,78.36z
		 M87.79,68.23c-0.59-0.29-0.68-0.81-0.42-1.37c0.18-0.39,0.52-0.61,0.92-0.41c0.6,0.29,0.57,0.85,0.44,1.37
		C88.53,68.26,88.19,68.42,87.79,68.23z M89.08,61.69c0.43,0.29,0.45,0.74,0.21,1.2c-0.36,0.53-0.88,0.67-1.43,0.42
		c-0.56-0.25-0.85-0.75-0.46-1.31C87.83,61.41,88.46,61.27,89.08,61.69z M87.09,57.98c0.08,0.49,0.54,0.99,0.02,1.46
		c-0.36,0.33-0.79,0.21-1.18,0c-0.58-0.32-0.39-0.77-0.16-1.22C86.24,58.31,86.59,57.77,87.09,57.98z M83.9,54.98
		c0.42-0.59,1.05-0.73,1.67-0.31c0.43,0.29,0.45,0.74,0.21,1.2c-0.36,0.53-0.88,0.67-1.43,0.42C83.8,56.04,83.51,55.55,83.9,54.98z
		 M80.51,51.81c0.18-0.39,0.52-0.61,0.92-0.41c0.6,0.29,0.57,0.85,0.44,1.37c-0.2,0.45-0.55,0.61-0.94,0.41
		C80.35,52.9,80.26,52.38,80.51,51.81z M81,58.16c-0.56-0.25-0.85-0.75-0.46-1.31c0.42-0.59,1.05-0.73,1.67-0.31
		c0.43,0.29,0.45,0.74,0.21,1.2C82.06,58.26,81.54,58.4,81,58.16z M83.3,67.57c-0.2,0.45-0.55,0.61-0.94,0.41
		c-0.59-0.29-0.68-0.81-0.42-1.37c0.18-0.39,0.52-0.61,0.92-0.41C83.47,66.49,83.44,67.04,83.3,67.57z M82.57,61.31
		c-0.58-0.32-0.39-0.77-0.16-1.22c0.47,0.08,0.83-0.46,1.32-0.25c0.08,0.49,0.54,0.99,0.02,1.46
		C83.38,61.64,82.95,61.53,82.57,61.31z M84.05,63.87c0.42-0.59,1.05-0.73,1.67-0.31c0.43,0.29,0.45,0.74,0.21,1.2
		c-0.36,0.53-0.88,0.67-1.43,0.42C83.94,64.93,83.65,64.43,84.05,63.87z M85.76,72.23c-0.28-0.42-1.2-0.57-0.78-1.4
		c0.25-0.5,0.71-0.39,1.14-0.18c0.65,0.33,0.97,0.8,0.61,1.51C86.51,72.61,86.15,72.52,85.76,72.23z M86.4,74.85
		c0.31-0.59,0.89-0.65,1.48-0.53c0.73,0.51,0.37,1.17,0.19,1.71c-0.18,0.55-0.74,0.55-1.18,0.29C86.33,75.99,86.09,75.45,86.4,74.85
		z M89.48,92.82c-0.1,0.36-0.2,0.72-0.3,1.07c-0.12,0.43-0.28,0.91-0.83,0.73c-0.32-0.1-0.65-0.43-0.79-0.74
		c-0.21-0.47,0.16-0.78,0.55-1.02C88.57,92.59,89.02,92.58,89.48,92.82C89.48,92.82,89.48,92.82,89.48,92.82
		C89.48,92.82,89.49,92.82,89.48,92.82C89.49,92.82,89.49,92.82,89.48,92.82z M90.61,89.28c-0.17,0.42-0.43,0.6-0.78,0.43
		c-0.49-0.24-0.52-0.65-0.24-1.07c0.18-0.27,0.45-0.55,0.79-0.4C90.93,88.48,90.7,88.94,90.61,89.28z M91.55,84.96
		c-0.28,0.51-0.73,0.57-1.23,0.43c-0.44-0.13-0.61-0.43-0.41-0.86c0.25-0.55,0.68-0.6,1.21-0.42
		C91.56,84.25,91.71,84.51,91.55,84.96z M91.83,75.09c0.31-0.59,0.89-0.65,1.48-0.53c0.73,0.51,0.37,1.17,0.19,1.71
		c-0.18,0.55-0.74,0.55-1.18,0.29C91.76,76.23,91.52,75.69,91.83,75.09z M94.91,93.06c-0.1,0.36-0.2,0.72-0.3,1.07
		c-0.12,0.43-0.28,0.91-0.83,0.73c-0.32-0.1-0.65-0.43-0.79-0.74c-0.21-0.47,0.16-0.78,0.56-1.02C94,92.84,94.45,92.82,94.91,93.06
		C94.91,93.06,94.91,93.06,94.91,93.06L94.91,93.06C94.92,93.07,94.92,93.07,94.91,93.06z M96.04,89.52
		c-0.17,0.42-0.43,0.6-0.78,0.43c-0.49-0.24-0.52-0.65-0.24-1.07c0.18-0.27,0.45-0.55,0.79-0.4C96.36,88.72,96.13,89.18,96.04,89.52
		z M96.98,85.21c-0.28,0.51-0.73,0.57-1.23,0.43c-0.44-0.13-0.61-0.43-0.41-0.86c0.25-0.55,0.68-0.6,1.21-0.42
		C96.99,84.49,97.14,84.76,96.98,85.21z M96.87,74.41c-0.18,0.55-0.74,0.55-1.18,0.29c-0.56-0.33-0.8-0.87-0.49-1.47
		c0.31-0.59,0.89-0.65,1.48-0.53C97.4,73.2,97.05,73.87,96.87,74.41z M97.47,77.16c0.33-0.58,0.88-0.77,1.42-0.42
		c0.68,0.43,0.73,1.2,0.88,1.82c-0.61,0.53-1.19,0.7-1.67,0.33C97.58,78.49,97.01,77.96,97.47,77.16z M99.41,87.65
		c-0.17,0.42-0.43,0.6-0.78,0.43c-0.49-0.24-0.52-0.65-0.24-1.07c0.18-0.27,0.45-0.55,0.79-0.4C99.73,86.86,99.49,87.32,99.41,87.65
		z M100.34,83.34c-0.28,0.51-0.73,0.57-1.23,0.43c-0.44-0.13-0.61-0.43-0.41-0.86c0.25-0.55,0.68-0.6,1.21-0.42
		C100.36,82.62,100.5,82.89,100.34,83.34z"/>
	<path class="st0" d="M23,86.47c0.13-0.08,0.19-0.11,0.52-0.34c2.96-1.92,6.03-3.69,9.19-5.26c3.75-1.86,7.62-3.53,11.67-4.67
		c0.46-0.12,0.91-0.24,1.37-0.35c-0.01,0,0.48-0.12,0.8-0.18c1.18-0.26,2.36-0.48,3.56-0.61c0.3-0.05,0.42-0.05,0.78-0.08
		c1.85-0.14,3.78-0.09,5.52,0.59c-0.41-0.54-0.94-0.97-1.49-1.36c-0.64-0.44-1.34-0.79-2.06-1.1c-1.23-0.51-2.52-0.9-3.83-1.2
		c-0.37-0.09-0.92-0.2-1.3-0.27c-1.16-0.22-2.33-0.38-3.51-0.5l-0.89-0.08c-1.4-0.11-2.81-0.16-4.21-0.17
		c-1.43,0.41-2.85,0.89-4.42,1.19c-0.8,0.15-1.6,0.24-2.38,0.28c-0.76,0.04-1.49,0.1-2.19,0.22c-0.7,0.13-1.38,0.29-2.03,0.56
		c-0.65,0.26-1.26,0.61-1.86,1.01c-1.19,0.81-2.2,1.89-3.19,3.04l-1.47,1.77c-0.5,0.6-1.06,1.22-1.78,1.66
		c-0.71,0.45-1.49,0.7-2.25,0.9c-0.78,0.19-1.5,0.31-2.21,0.57c-1.4,0.48-2.79,1.21-3.61,2.41c-0.4,0.59-0.65,1.28-0.68,2
		c-0.04,0.72,0.09,1.44,0.32,2.14l0.02,0.07l-0.01,0.1c-0.2,2.04,0.21,4.17,1.1,6c2.89-2.81,6.06-5.32,9.38-7.61
		C22.24,86.95,22.63,86.71,23,86.47z M40.55,72.83c0.54,0.07,0.57,0.65,1.01,0.81c-0.03,0.45-0.1,0.88-0.77,0.85
		c-0.44-0.02-0.87-0.14-1.02-0.56C39.58,73.34,40.24,73.17,40.55,72.83z M37.2,73.49c0.75-0.02,1.23,0.38,1.28,1.03
		c0.05,0.62-0.46,0.86-1.07,0.79c-0.6-0.07-0.97-0.42-1.01-1C36.42,73.84,36.68,73.5,37.2,73.49z M36.1,76.42
		c0.75-0.02,1.23,0.38,1.28,1.03c0.05,0.62-0.46,0.86-1.07,0.79c-0.6-0.07-0.97-0.42-1.01-1C35.32,76.77,35.58,76.43,36.1,76.42z
		 M33.01,74.03c0.45,0.04,0.64,0.37,0.59,0.75c-0.07,0.55-0.42,0.9-1.07,0.85c-0.44-0.04-0.66-0.32-0.6-0.76
		C32.08,74.4,32.34,73.97,33.01,74.03z M32.75,77.53c0.45,0.04,0.64,0.37,0.59,0.75c-0.07,0.55-0.42,0.9-1.07,0.85
		c-0.44-0.04-0.66-0.32-0.6-0.76C31.82,77.9,32.08,77.47,32.75,77.53z M29.87,79.27c-0.06,0.84-0.93,0.52-1.39,0.7
		c-0.49,0.04-0.84-0.06-0.8-0.51c0.06-0.71,0.58-0.92,1.3-0.86C29.45,78.63,29.9,78.77,29.87,79.27z M27.74,75.36
		c0.48,0.04,0.93,0.17,0.89,0.67c-0.06,0.84-0.93,0.52-1.39,0.7c-0.48,0.04-0.84-0.06-0.8-0.51C26.5,75.51,27.02,75.3,27.74,75.36z
		 M26.76,82.68c-0.04,0.6-0.52,0.91-1.18,0.89c-0.52-0.01-1-0.27-0.87-0.78c0.12-0.49,0.16-1.17,1.04-1.22
		C26.33,81.76,26.8,82.08,26.76,82.68z M24.69,78.34c0.58,0.19,1.05,0.51,1.01,1.1c-0.04,0.6-0.52,0.91-1.18,0.89
		c-0.52-0.01-1-0.27-0.87-0.78C23.77,79.06,23.8,78.38,24.69,78.34z M13.74,92.15c-0.28,0.17-0.73,0.26-1.06,0.19
		c-0.57-0.12-0.46-0.57-0.34-0.95c0.1-0.32,0.19-0.64,0.29-0.96c0,0,0,0-0.01,0l0.01,0c0,0,0,0,0,0c0.52,0.03,0.91,0.26,1.16,0.68
		C14,91.47,14.16,91.88,13.74,92.15z M13.79,87.55c-0.51-0.13-0.87-0.39-0.85-0.91c0.09-0.42,0.35-0.55,0.82-0.45
		c0.54,0.12,0.89,0.36,0.83,0.9C14.53,87.51,14.23,87.66,13.79,87.55z M15.16,90.35c-0.4-0.04-0.52-0.3-0.45-0.7
		c0.1-0.3,0.13-0.76,0.73-0.68c0.38,0.05,0.47,0.39,0.48,0.68C15.94,90.1,15.7,90.4,15.16,90.35z M16.96,86.83
		c-0.51-0.13-0.87-0.39-0.85-0.91c0.09-0.42,0.35-0.55,0.82-0.45c0.54,0.12,0.89,0.36,0.83,0.9C17.7,86.78,17.4,86.94,16.96,86.83z
		 M20.33,83.58c-0.61,0.05-1.02-0.35-1.28-1.04c0.45-0.41,0.89-0.97,1.7-0.97c0.65,0,1.02,0.4,1.01,1
		C21.74,83.39,20.99,83.52,20.33,83.58z"/>
</g>
</svg>
