<?xml version="1.0" encoding="utf-8"?>
<!-- Generator: Adobe Illustrator 23.0.0, SVG Export Plug-In . SVG Version: 6.00 Build 0)  -->
<svg version="1.1" id="Layer_1" xmlns="http://www.w3.org/2000/svg" xmlns:xlink="http://www.w3.org/1999/xlink" x="0px" y="0px"
	 viewBox="0 0 128 128" 
width="128" height="128"
style="enable-background:new 0 0 128 128;" xml:space="preserve">
<style type="text/css">
	.st0{fill:#2D2D2D;}
</style>
<g>
	<path class="st0" d="M38.9,80.1c-0.4,0.2-0.8,0.3-1.2,0.5c-0.9,0.3-1.8,0.7-2.8,1c-0.9,0.3-1.8,0.6-2.7,1c-1.8,0.8-3.5,1.6-5.3,2.4
		c-1.2,0.5-2.3,1.1-3.5,1.6L23.1,87l-2.6,4.3c-1,1.7-2.1,3.3-3.2,5c-2.2,3.3-4.3,6.5-6.6,9.8l-1.7,2.4l-1.8,2.4l-3.5,4.7
		c-0.6,0.8-1.1,1.6-1.7,2.4c-0.3,0.4-0.6,0.8-0.8,1.2l-0.4,0.6c-0.1,0.2-0.2,0.4-0.3,0.6c-0.1,0.4-0.1,0.9,0.1,1.1
		c0.2,0.3,0.6,0.4,1.1,0.3c0.9-0.1,1.8-0.5,2.6-0.9l0.5-0.3l0,0.6c0,0.5,0.2,0.8,0.6,0.9c0.5,0.1,1-0.1,1.5-0.3
		c0.5-0.2,1-0.5,1.3-0.9c0.4-0.4,0.7-0.8,1-1.3c1.3-2,2.7-3.9,4-5.9c1.4-2,2.7-3.9,4.1-5.9l2.1-2.9c0.7-1,1.4-1.9,2.3-2.9l0,0
		l0.1-0.1c0.4-0.4,0.8-0.8,1.2-1.3c0.3-0.4,0.7-0.8,1-1.2c0.7-0.9,1.5-1.8,2.2-2.8l4.3-5.6c1.5-1.9,2.9-3.7,4.5-5.5
		C36.5,83.9,37.8,82,38.9,80.1z"/>
	<path class="st0" d="M35.7,65.9c1-1,2-1.9,3-2.8c-0.5-0.1-1.1-0.2-1.5-0.6c-0.3-0.3-0.5-0.7-0.6-1.2c-0.1,0.1-0.2,0.2-0.3,0.3
		c-1.9,2.1-3.7,4.3-5.4,6.5c-0.8,1.1-1.7,2.3-2.4,3.4c-0.7,1.2-1.4,2.4-1.8,3.6l-0.1,0.2l-0.1,0.1l-0.1,0.2c0.8-0.9,1.5-1.7,2.3-2.6
		C30.9,70.5,33.2,68.2,35.7,65.9z"/>
	<path class="st0" d="M26.6,84.2c1.8-0.7,3.6-1.5,5.4-2.3c0.9-0.4,1.8-0.7,2.8-1c0.2-0.1,0.4-0.1,0.6-0.2c0,0,0-0.1,0-0.1
		c2.2-2.3,4.6-4.5,7-6.6c2.4-2.1,4.9-4.1,7.4-6.1c1.1-0.9,2.2-1.8,3.3-2.7c-0.5,0.1-1,0.1-1.5,0c-0.8-0.1-1.5-0.3-2.2-0.7
		c-0.3-0.2-0.6-0.4-0.8-0.6c-2.8,2.5-5.6,4.8-8.4,7.4c-2.9,2.6-5.7,5.1-8.7,7.6c-2.7,2.3-5.6,4.4-8.5,6.5c-0.1,0.1-0.3,0.2-0.4,0.3
		c0.1,0,0.3-0.1,0.4-0.1C24.2,85.1,25.4,84.7,26.6,84.2z"/>
	<path class="st0" d="M37.5,61.9c0.4,0.2,0.8,0.2,1.3,0.2c0.3-0.1,0.7-0.1,1-0.2c1.1-0.9,2.1-1.8,3.3-2.7c1.4-1,2.7-1.9,4.2-2.8
		c0.7-0.4,1.5-0.9,2.3-1.2c-0.1,0-0.2,0-0.3,0c-0.8,0.1-1.6,0-2.4-0.2c-0.8-0.2-1.7-0.8-1.9-1.7c-0.1-0.2-0.1-0.4-0.1-0.6
		c-0.9,0.9-1.8,1.7-2.7,2.6c-1.8,1.8-3.6,3.7-5.4,5.6C36.9,61.4,37.2,61.8,37.5,61.9z"/>
	<path class="st0" d="M29.3,66.9c1.4-1.8,2.8-3.6,4.3-5.4c-2.2-1.7-4.7-3-7.3-4c-1-0.4-2.1-0.8-3.2-1.1c-1.8-0.6-3.6-1-5.4-1.4
		c-2.9-0.7-5.9-1.2-8.9-1.6c-1.5-0.2-3-0.4-4.5-0.5l-0.6-0.1c-0.2,0-0.3,0-0.5,0c-0.3,0-0.6,0.1-0.9,0.1c-0.6,0.2-1.2,0.6-1.6,1.1
		C0.3,54.6,0,55.2,0,55.9c0,0.7,0.1,1.5,0.3,2.2c0.4,1.4,1.4,2.7,2.6,3.4c0.6,0.4,1.3,0.7,2,0.8c0.7,0.1,1.5,0.2,2.2,0.2
		c1.5,0.1,3.1,0.2,4.6,0.3c3,0.3,6.1,0.9,9.1,1.9c0.7,0.2,1.5,0.5,2.2,0.9l0.2,0.1l0.9,0.4l1,0.6c1,0.6,2,1.4,2.9,2.3
		C28.3,68.2,28.8,67.6,29.3,66.9z"/>
	<path class="st0" d="M47.1,54.1c0.7,0.1,1.4,0.1,2.1,0c0.7-0.1,1.4-0.2,2.1-0.3l0.7-0.1L52,54.4c-0.1,0.6,0,1.1,0.2,1.6
		c0.3,0.4,0.8,0.7,1.4,0.8c0.6,0.1,1.3,0,1.9-0.1c0.6-0.1,1.2-0.3,1.9-0.5l0.2-0.1l0.1,0.2c0.1,0.3,0.3,0.6,0.5,0.9
		c0.3,0.2,0.5,0.4,0.9,0.5c0.6,0.3,1.3,0.3,2,0.3c0.7,0,1.4-0.1,2.1-0.3c0.7-0.1,1.4-0.4,2.1-0.6l0.3-0.1l0.6,0.4
		c0.1,0,0,0.1,0.1,0.1c0.1,0.1,0.1,0.1,0.2,0.2c0.2,0.1,0.3,0.2,0.5,0.3c0.4,0.2,0.7,0.4,1.1,0.6c0.8,0.3,1.7,0.5,2.5,0.5
		c0.9,0,1.8-0.1,2.6-0.4c0.9-0.2,1.7-0.7,2.5-1.2h0c0,0,0.1,0,0.1,0c0,0,0,0.1,0,0.1c-0.3,0.3-0.7,0.7-1.1,1
		c-0.2,0.1-0.4,0.3-0.6,0.4l-0.6,0.4c-0.9,0.4-1.9,0.7-2.9,0.8c-1,0.1-2-0.1-3-0.4c-0.5-0.2-1-0.4-1.4-0.6c-0.2-0.1-0.5-0.3-0.7-0.5
		c-0.1-0.1-0.2-0.2-0.3-0.3L65,58.6c-2.1,1.7-4.3,3.5-6.5,5.1c0,0-0.1,0-0.1,0.1c0.7,0,1.3,0,2,0c0.8-0.1,1.6-0.2,2.4-0.4
		c0.8-0.2,1.6-0.5,2.3-0.8c0,0,0.1,0,0.1,0c0,0,0,0.1,0,0.1c-0.6,0.6-1.3,1.1-2.1,1.5c-0.8,0.4-1.6,0.6-2.5,0.8
		c-0.8,0.2-1.7,0.3-2.6,0.2c-0.4,0-0.8,0-1.2-0.1c-2,1.4-4.1,2.7-6.1,4.2c-2.6,1.8-5.2,3.7-7.7,5.6c-2.5,1.9-5,3.8-7.4,5.9
		c0.6-0.2,1.2-0.4,1.8-0.7c3.6-1.4,7.2-2.8,10.8-4.4c3.6-1.5,7.1-3.1,10.7-4.7l5.3-2.3l2.7-1.2c0.4-0.2,0.9-0.4,1.3-0.6l1.3-0.6
		c1.8-0.9,3.7-1.5,5.6-2c1.9-0.6,3.8-1,5.7-1.5c0.9-0.2,1.9-0.5,2.8-0.7c0.9-0.3,1.8-0.5,2.7-0.9c1.8-0.7,3.5-1.6,5.1-2.6
		c1.6-1,3.2-2.2,4.5-3.6c1.2-1.2,1.7-4.9,1.7-5.3v-0.1c0-1.7-0.3-3.6-0.8-5.3c-0.5-1.8-1.3-3.4-2.3-4.9c-1-1.5-2.3-2.8-3.9-3.8
		c-1.5-1-3.2-1.7-5-2.1c-1.8-0.4-3.6-0.6-5.5-0.6c-0.9,0-1.9,0-2.8,0.1c-0.9,0.1-1.9,0.2-2.8,0.3c-2.7,0.4-5.3,1.1-7.9,1.9
		c-1.9,1.1-3.8,2.2-5.7,3.4c-0.1,0.1-0.3,0.2-0.4,0.3c0.1,0.2,0.3,0.3,0.5,0.4c0.4,0.2,0.8,0.2,1.2,0.2c0.4-0.1,0.9-0.1,1.3-0.2
		c0.4-0.1,0.9-0.3,1.3-0.4l0.7-0.2l0.1,0.7c0.1,0.5,0.2,0.8,0.5,1.1c0.3,0.3,0.8,0.4,1.3,0.5c0.5,0.1,1.1,0.1,1.6,0
		c0.3-0.1,0.5-0.1,0.8-0.2l0.8-0.3l0.1,0l0.1,0.1c0.4,0.5,0.9,0.8,1.5,1c0.6,0.2,1.2,0.2,1.8,0.2c0.6,0,1.2-0.1,1.8-0.2
		c0.6-0.1,1.2-0.3,1.7-0.6l0.8,0.2c0,0,0,0,0,0l0,0c0.1,0,0.1,0.1,0.2,0.1c0.1,0.1,0.3,0.1,0.5,0.1c0.3,0.1,0.7,0.1,1,0.2
		c0.7,0.1,1.5,0.1,2.2,0.1c1.5,0,3-0.2,4.4-0.7c0,0,0.1,0,0.1,0c0,0,0,0.1,0,0.1c-0.6,0.5-1.3,0.9-2.1,1.2c-0.7,0.3-1.5,0.5-2.3,0.6
		c-0.8,0.1-1.6,0.2-2.4,0.1c-0.4,0-0.8-0.1-1.2-0.2c-0.2,0-0.4-0.1-0.6-0.2c-0.1,0-0.2-0.1-0.4-0.2l0,0c-1.2,0.3-2.4,0.6-3.7,0.4
		c-0.7-0.1-1.4-0.3-2-0.6c-0.6-0.3-1.1-0.7-1.5-1.2c-0.5,0.1-1,0.3-1.5,0.4c-0.6,0.1-1.1,0.3-1.7,0.3c-0.6,0-1.3,0-1.9-0.4
		c-0.3-0.2-0.6-0.5-0.7-0.8c-0.1-0.1-0.1-0.2-0.1-0.4c-0.3,0.1-0.6,0.1-0.9,0.2c-0.5,0.1-1,0.1-1.5,0.1c-0.5-0.1-1.1-0.2-1.5-0.5
		c-0.2-0.2-0.4-0.4-0.5-0.7c-2.1,1.4-4.1,2.9-6,4.5c-2.1,1.8-4.1,3.8-5.6,6.1l-0.1,0.1l-0.2,0.1c-0.4,0.3-1,0.8-1.5,1.2
		c-0.5,0.4-0.9,0.8-1.4,1.3c0,0.3,0.1,0.5,0.3,0.8C45.9,53.7,46.5,54,47.1,54.1z M78.6,40.9L78.6,40.9L78.6,40.9
		C78.6,40.9,78.6,40.9,78.6,40.9z"/>
	<path class="st0" d="M51.7,64.3c0.6,0,1.3-0.1,1.9-0.3c0.6-0.2,1.2-0.5,1.8-0.7l0.3,0.1c0.6-0.4,1.1-0.8,1.7-1.2
		c1.4-0.9,2.7-1.7,4.1-2.5c0.4-0.2,0.8-0.4,1.1-0.6c-0.5,0.1-1,0.1-1.6,0c-0.8-0.1-1.6-0.3-2.4-0.7c-0.4-0.2-0.7-0.5-1-0.8
		c-0.2-0.3-0.3-0.5-0.4-0.8c-0.7,0.6-1.3,1.1-2,1.6c-0.7,0.6-1.5,1.2-2.2,1.8c-1.4,1.2-2.8,2.3-4.1,3.5c0.2,0.1,0.5,0.2,0.7,0.3
		C50.4,64.2,51,64.3,51.7,64.3z"/>
	<path class="st0" d="M55.7,57c-0.7,0.1-1.3,0.2-2,0.2c-0.7,0-1.5-0.1-2-0.8c-0.3-0.4-0.5-0.8-0.6-1.3c-2.3,1.8-4.4,3.7-6.7,5.6
		c-0.6,0.5-1.2,1-1.8,1.5c0.1,0.3,0.2,0.6,0.4,0.8c0.3,0.3,0.8,0.5,1.4,0.6c0.6,0.1,1.2,0,1.8-0.2c0,0,0.1,0,0.1,0
		c0.4-0.4,0.9-0.7,1.4-1.1c2.7-2.1,5.6-4,8.7-5.5C56.1,56.9,55.9,56.9,55.7,57z"/>
	<path class="st0" d="M30.9,78.3c2.8-2.6,5.5-5.3,8.3-8c2.1-2,4.1-4.2,6.3-6.1c-0.3,0.1-0.7,0.2-1.1,0.2c-0.7,0.1-1.4,0-2.1-0.5
		c-0.3-0.2-0.5-0.5-0.7-0.9c-1.7,1.3-3.3,2.6-5,4c-2.5,2.1-4.9,4.4-7.3,6.7c-2.2,2-4.2,4.1-6.3,6.2c-0.1,0.1-0.1,0.1-0.2,0.2
		l-1.6,2.1c-0.9,1.1-1.7,2.3-2.5,3.4c-0.5,0.7-1,1.4-1.5,2.1c1.7-0.5,3.3-1,5-1.7c0,0,0-0.1,0-0.1c0.3-0.2,0.6-0.5,0.8-0.7
		C25.7,82.9,28.4,80.7,30.9,78.3z"/>
	<path class="st0" d="M114.1,25.3c-0.9,0.1-1.8,0.1-2.7,0.1c-0.8,0-1.6-0.1-2.5-0.1l0.1,0.1l0.2,0.3l0.4,0.5
		c0.3,0.4,0.5,0.7,0.8,1.1c0.3,0.4,0.6,0.7,0.8,1.1c0.2,0.2,0.3,0.5,0.5,0.7c1.2-0.3,2.3-0.3,3.5-0.2c0.6,0.1,1.2,0.2,1.9,0.4
		c0.3,0.1,0.6,0.2,0.9,0.3c0.2,0.1,0.5,0.2,0.8,0.2c0.3,0.1,0.5,0.1,0.8,0.1l0.9,0.1c0.6,0,1.2,0.1,1.8,0.1c1.2,0,2.4-0.1,3.5-0.2
		c0.1-0.1,0.3-0.2,0.4-0.3c-0.9-0.3-1.9-0.5-2.8-0.7c-1.1-0.3-2.3-0.5-3.5-0.7c-2.3-0.5-4.7-1-7-1.3c2.4,0,4.8,0.2,7.2,0.4l3.6,0.3
		c1.2,0.1,2.3,0.2,3.6,0.5c0,0,0,0,0,0c-0.4-0.8-1.3-1.5-2.2-2c-1-0.5-2-0.9-3.1-1.2c-0.5-0.2-1.1-0.3-1.6-0.4
		c-0.5-0.1-0.9-0.2-1.4-0.3c-0.7,0.3-1.4,0.6-2.1,0.9C115.9,25,115,25.2,114.1,25.3z"/>
	<path class="st0" d="M126.9,121.2c-0.7-0.9-1.6-1.6-2.6-2.1c-0.5-0.2-1.1-0.4-1.6-0.4l-1.8-0.2c-1.2-0.1-2.4-0.2-3.5-0.4l-1.8-0.3
		c-0.6-0.1-1.2-0.2-1.7-0.3c-1.1-0.3-2.3-0.5-3.5-0.9c-4.6-1.3-8.9-3.4-13-5.8c-3.4-2.1-6.7-4.5-9.6-7.4v0.9l-1.6-1.5l-3.6-3.5
		c-0.5-0.5-0.7-0.5-1.7-0.6l-2.5-0.3l-0.6-0.1c-0.1,0-0.2,0-0.2,0c-0.2,0.1-0.2,0.1-0.6,0.5l-1.8,1.8l-0.8,0.8c0,0,0,0.1,0,0.1
		c0,0,0,0,0,0l0,0l0.1,0.1c0.3,0.8,0.6,1.6,0.9,2.3l0.7,1.5l-0.6,0c0.5,0.5,1.1,1,1.6,1.4l1.3,1.2c0.5,0.4,0.9,0.7,1.4,1.1
		c0.9,0.7,1.8,1.5,2.7,2.2c1,0.7,1.9,1.4,2.8,2c3.8,2.6,7.8,5,12,7l3.2,1.5l3.2,1.3c1.1,0.4,2.2,0.8,3.3,1.2c1.1,0.4,2.2,0.7,3.3,1
		c4.5,1.2,9,2.1,13.7,2.5c0.3,0,0.6,0.1,0.8,0.1c0.3,0,0.5,0,0.8-0.1c0.5-0.1,1-0.4,1.4-0.7c0.4-0.3,0.7-0.8,0.9-1.3
		c0.2-0.5,0.2-1,0.2-1.6C127.9,123.2,127.5,122.1,126.9,121.2z"/>
	<path class="st0" d="M75.2,94.2L75.2,94.2L75.2,94.2C75.2,94.2,75.2,94.2,75.2,94.2L75.2,94.2C75.2,94.2,75.2,94.2,75.2,94.2
		C75.2,94.2,75.2,94.2,75.2,94.2z"/>
	<path class="st0" d="M73.1,95.7c0.2-0.2,0.4-0.4,0.6-0.6c-0.4-0.3-0.8-0.6-1.2-1l-1.2-1.1c-1.4-1.2-2.9-2.5-4.3-3.8
		c-0.2,0-0.3,0.1-0.5,0.1c-3.3,0.5-6.7,0.3-10-0.2c-1.4-0.2-2.9-0.5-4.3-0.9c0.8,0.5,1.6,0.9,2.3,1.4c1.7,1.1,3.3,2.5,4.9,3.8
		l4.9,3.8l4.2,3.3c0-0.1,0-0.1,0.1-0.2c0.1-0.3,0.2-0.4,0.3-0.5c0.2-0.3,0.4-0.5,0.6-0.7c0.4-0.4,0.8-0.8,1.1-1.2
		C71.5,97.2,72.3,96.5,73.1,95.7z"/>
	<path class="st0" d="M61.6,88.7c1.6,0.2,3.2,0.3,4.8,0.1c1.2-0.1,2.4-0.4,3.6-0.9c0.2-0.1,0.3-0.1,0.3-0.1c0.3-0.1,0.5-0.2,0.7-0.3
		c1.5-0.7,2.9-1.4,4.4-2.3c2.8-1.7,5.5-3.5,8.1-5.6c0.6-0.5,1.3-1,1.9-1.5c0.6-0.5,1.3-1,1.9-1.6c1.2-1.1,2.5-2.2,3.7-3.3
		c1.2-1.1,2.4-2.2,3.6-3.4c0.6-0.6,1.2-1.1,1.7-1.7c0.5-0.6,1.1-1.2,1.5-1.7l0.1-0.1l0.1-0.1c1.1-1.1,2-2.4,2.9-3.8
		c0.8-1.4,1.6-2.9,2.3-4.4c0.7-1.5,1.3-3.1,1.8-4.6c0.3-0.8,0.5-1.6,0.8-2.4l0.2-0.5c-0.8-0.5-1.4-1.1-1.9-1.9
		c-0.7-1-1.2-2.2-1.6-3.3c-0.8-2.3-1.3-4.5-2.2-6.6c-0.4-1-1-2-1.6-2.7c-0.3-0.4-0.7-0.7-1.1-1.1c-0.4-0.3-0.8-0.5-1.3-0.6
		c-1-0.3-2.1-0.4-3.3-0.4c-0.8,0-1.6-0.1-2.4-0.1c0.3,0.1,0.6,0.3,0.8,0.5c1.7,1,3.2,2.4,4.4,3.9c1.2,1.6,2.1,3.4,2.7,5.3
		c0.3,0.9,0.6,1.9,0.8,2.9c0.2,1,0.4,1.9,0.4,3c-0.1,2.7-2.5,5-3.1,5.8c-1.3,1.6-2.8,2.9-4.4,4c-1.6,1.1-3.3,2.1-5.1,3
		c-0.9,0.4-1.9,0.8-2.8,1.1c-0.9,0.3-1.9,0.5-2.8,0.8c-1.9,0.5-3.7,1-5.6,1.6c-1.8,0.6-3.7,1.2-5.3,2c-3.5,1.8-7.2,3.2-10.8,4.6
		C52.8,75,46,77.5,39.2,80c-0.4,1.1-0.9,2.1-1.5,3.1c-0.3,0.5-0.6,1-0.9,1.6c-0.3,0.5-0.7,1-1,1.5c-1.4,1.9-2.6,3.9-4,5.8
		c-0.3,0.5-0.7,1-1,1.5c2.3-1.3,4.6-2.6,7-3.9c1.4-0.8,2.9-1.6,4.4-2.3c0.7-0.4,1.5-0.8,2.3-1.1c0.8-0.3,1.7-0.6,2.6-0.7
		c0.9-0.1,1.9-0.1,2.8,0.2c0.5,0.2,0.8,0.3,1.2,0.4l1.1,0.4c1.5,0.5,3.1,0.9,4.7,1.3S60,88.5,61.6,88.7z"/>
	<path class="st0" d="M76.1,96.9c0.3-0.2,0.6-0.4,0.9-0.5c0.3-0.1,0.7-0.1,1-0.1l0.6,0.1l2.5,0.3l0.6,0.1c0.2,0,0.5,0.1,0.8,0.2
		c0.3,0.1,0.5,0.2,0.8,0.4c0.2,0.1,0.5,0.4,0.6,0.5l1.4,1.3c-0.5-0.8-0.9-1.7-1.4-2.5l-0.8-1.4c-0.2-0.3-0.4-0.7-0.6-0.9l-0.7,0.2
		c-0.6,0.1-1.1,0.2-1.8,0.2c-0.3,0-0.7,0-1-0.1c-0.2-0.1-0.4-0.1-0.5-0.2c-0.2-0.1-0.3-0.1-0.4-0.2c-0.5-0.3-0.9-0.6-1.4-0.8
		c-0.5-0.3-0.9-0.7-1.3-1l-1.2-1c-1.2-1-2.4-2.1-3.5-3.1c-0.5,0.2-1,0.4-1.5,0.6c-0.5,0.2-1.1,0.3-1.6,0.4c1.6,0.9,3.3,1.7,4.8,2.6
		l1.4,0.8c0.5,0.3,0.9,0.5,1.4,0.9l0.7,0.5l0.2,0.1l0.1,0.1l0.1,0.1c0,0,0.1,0.1,0.1,0.1c0,0,0.1,0.1,0.1,0.2c0,0.1,0.1,0.2,0.1,0.4
		c0,0.1,0,0.2-0.1,0.5c-0.1,0.2-0.3,0.3-0.4,0.4c0,0,0,0,0,0l-0.1,0.1c-0.4,0.3-0.8,0.7-1.2,1c-0.8,0.7-1.5,1.5-2.3,2.2
		c-0.4,0.4-0.7,0.8-1.1,1.1c-0.2,0.2-0.3,0.4-0.5,0.6c0,0.1-0.1,0.1-0.1,0.1c0,0,0,0.1,0,0.1c-0.1,0.4,0.5,1.1,1.3,1.5
		c0.4,0.2,0.8,0.3,1.2,0.4c-0.1-0.3-0.2-0.5-0.3-0.8l-0.1-0.2c0-0.1-0.1-0.2-0.1-0.3c0-0.2-0.1-0.4,0-0.6c0-0.4,0.2-0.8,0.4-1.1
		c0.1-0.1,0.1-0.2,0.2-0.2l0.1-0.1l0.2-0.2l0.4-0.4l1.7-1.8C75.7,97.3,75.8,97.2,76.1,96.9z"/>
	<path class="st0" d="M96.5,33c0.6,0.1,1.3,0.3,1.9,0.7c0.6,0.4,1.1,0.8,1.5,1.2c0.9,1,1.6,2.1,2.1,3.2c1,2.3,1.4,4.7,1.9,6.9
		c0.3,1.1,0.5,2.2,1,3.3c0.3,0.7,0.7,1.4,1.2,2l0.1-0.3c0.1-0.4,0.2-0.8,0.2-1.2c0.5-3.2,0.1-6.7,0.5-10.1c0.2-1.7,0.7-3.4,1.5-4.9
		c0.4-0.8,0.8-1.5,1.4-2.2c0.4-0.5,0.8-0.9,1.2-1.4l0-0.3c-0.1-0.4-0.2-0.8-0.3-1.2c-0.2-0.4-0.3-0.8-0.5-1.2
		c-0.1-0.1-0.1-0.2-0.2-0.4l-0.2-0.4c-0.1-0.3-0.1-0.2-0.2-0.4l-0.4-0.6l-0.2-0.3l-0.1-0.1l0-0.1l0,0l0,0l0,0c0,0,0,0,0-0.1
		c0-0.1,0.1-0.1,0.1-0.1c1.7,0.2,3.5-0.2,5-0.9c0.8-0.3,1.5-0.7,2.3-1.1c0.7-0.3,1.4-0.7,2.1-1.1c-1.2-1.6-2.5-3.2-4-4.5
		c-1.7-1.5-3.5-2.7-5.5-3.6c-1-0.5-2-0.8-3.1-1.2c-1.1-0.3-2.1-0.5-3.2-0.6c-2.2-0.2-4.4-0.2-6.7,0.1c-1.1,0.2-2.2,0.4-3.3,0.9
		c-0.5,0.2-1,0.5-1.5,0.8c-0.5,0.3-1,0.6-1.4,0.9c-1.9,1.3-3.5,3-5,4.7c-1.1,1.2-2.3,2.5-3.3,3.8c0,0,0,0,0,0
		c-0.4,0.4-0.7,0.9-1.1,1.3c-1.4,1.8-2.3,4.1-3.7,6c0,0,0,0,0,0c0,0,0,0,0,0c0,0,0,0,0,0c0,0,0,0,0,0c0,0,0,0,0,0c0,0,0,0,0,0
		c-2.6,1.2-5.5,1.9-8,3.3c-0.3,0.2,3.8-1,6.2-1.4c0.9-0.2,1.9-0.3,2.8-0.5c0.9-0.1,1.9-0.2,2.8-0.3c1.9-0.1,3.8,0,5.7,0.4
		c1.4,0.3,2.8,0.7,4.1,1.4c0.9-0.3,1.9-0.4,2.8-0.6C94,32.9,95.2,32.8,96.5,33z M102.9,19.6c0.9,0,1.7,0.8,1.7,1.7
		c0,1-0.8,1.7-1.7,1.7s-1.7-0.8-1.7-1.7C101.2,20.4,102,19.6,102.9,19.6z"/>
	<path class="st0" d="M75.2,94.2C75.2,94.2,75.2,94.2,75.2,94.2L75.2,94.2C75.2,94.2,75.2,94.2,75.2,94.2z"/>
	<polygon class="st0" points="78.6,40.9 78.6,40.9 78.6,40.9 	"/>
</g>
</svg>
