<?xml version="1.0" encoding="utf-8"?>
<!-- Generator: Adobe Illustrator 18.1.0, SVG Export Plug-In . SVG Version: 6.00 Build 0)  -->
<svg version="1.1" baseProfile="basic" id="Layer_1"
	 xmlns="http://www.w3.org/2000/svg" xmlns:xlink="http://www.w3.org/1999/xlink" x="0px" y="0px" viewBox="0 0 128 128"
	 xml:space="preserve">
<g>
	<path fill="#2D2D2D" d="M55.6,76.6L55.6,76.6c6.2-6.3,11.9-11,19.9-16.2l0.3-0.2l0.1-0.4c0.9-4.9,9-12.9,20.4-23.8l0.1-0.2
		c1.5-2.3,4.9-6.3,8.1-10.1c1.8-2.1,3.7-4.3,5.1-6.1c5.7-7.5,5.5-8.9,4.8-9.7l-0.1-0.1c-0.2-0.2-0.5-0.3-1-0.3c-0.9,0-2.7,0.6-8.9,5
		c-1.9,1.5-4.2,3.4-6.4,5.2c-3.8,3.1-7.7,6.4-10.1,7.8l-0.2,0.1c-10.4,10.2-19.3,19.1-24,20.3L63.6,48l-0.2,0.3
		c-5.5,7.6-10.5,13.1-17.1,19l-0.1,0.1c-3.5,4.5-10.3,10.3-17.6,16.4L28,84.2l0.2,0.6c0.6,1.7-8.1,11-14.4,17.7l-1,1l1,0.4
		c-0.2,0.9-1.5,3.3-2.6,5l-2.2,3.8l3.2-1.9c1.9-1.1,4.7-2.8,5.9-2.9l0.5,1l0.9-0.9c5.2-4.8,14.7-13.8,18.1-13.8c0.2,0,0.3,0,0.4,0.1
		l0.7,0.3l0.5-0.6C46.7,85.2,51.9,79.7,55.6,76.6z"/>
	<path fill="#2D2D2D" d="M125.9,54.2c-1.2,0.3-2.5,0.9-3.9,1.4c-1,0.4-2,0.8-3,1.1l-0.2,0.1l-0.1,0.1c-4,3.2-5.3,3.8-5.7,3.9
		l-0.5-0.2l-0.5,0.4c-4,3.6-5.5,4.4-6.1,4.4l-0.7-0.5l-0.6,0.6c-2.9,3.2-4.9,4.9-7.1,5.9l-0.2,0.1l-0.2,0.2c-1.4,1.8-3,2.9-5.4,3.6
		l-0.3,0.1l-0.2,0.2c-2.5,3.2-5.2,4.8-9,5.4L81.8,81l-0.2,0.6c-0.6,2.1-2.8,4.6-7,7.9l-0.2,0.1l-0.1,0.2c-0.5,1.1-2.7,3-6.6,5.7
		l-0.2,0.1L67.5,96c-0.5,0.9-2.2,2.6-5.2,4.9c-1.7,1.4-4.2,3.3-7.7,5.7l-0.8,0.5l0.5,0.8c0,0.1,0,0.9-3.2,4.1L51,112
		c-1.5,2-4.7,4.9-7.9,7.8l-1,0.9l0.9,0.4c-0.2,0.8-1.4,2.5-2.2,3.7l-2,3l3.1-1.4c1.3-0.6,3.5-1.7,4.4-1.7c0,0,0,0,0,0l0.4,1l1-0.8
		c3-2.4,6.6-5.2,9-6.5c2.8-1.8,4.1-2.2,4.7-2.2c0.1,0,0.2,0,0.3,0.1l0.7,0.7l0.7-0.7c2.8-2.9,5.1-5.2,6.9-6.8
		c2.7-2.6,4.6-4.1,5.5-4.6l0.2-0.1c1.3-1.2,5.3-4.7,7.1-5.1l0.2-0.1l0.2-0.2c4.1-3.5,6.9-5.2,9.2-5.4l0.6-0.1l0.2-0.6
		c1.2-3.5,3.1-6,6.6-8.4l0.2-0.1l0.1-0.2c1.2-2.1,2.6-3.4,4.7-4.4l0.2-0.1l0.1-0.2c1.3-2,3.3-3.7,7-6l0.7-0.4l-0.3-0.7
		c0.1-0.4,0.8-1.6,5.4-5.3l0.5-0.4l-0.2-0.5c0.2-0.4,1-1.5,4.8-4.9l0.1-0.1l0.1-0.1c0.5-0.9,1-1.8,1.6-2.7c0.8-1.3,1.5-2.4,2-3.5
		l1-1.9L125.9,54.2z"/>
	<path fill="#2D2D2D" d="M19.4,59.7C19.5,59.7,19.5,59.7,19.4,59.7l0.9,0.6l0.6-0.8c2.3-2.8,4.2-4.9,5.6-6.4c2.7-3,4-4,4.5-4.3
		l0.2-0.2c1.1-1.1,4.3-4.5,5.9-4.9l0.2-0.1l0.2-0.2c3.3-3.3,5.7-4.9,7.6-5.3l0.6-0.1l0.1-0.6c0.8-3.2,2.3-5.5,5.2-7.7l0.2-0.1
		l0.1-0.2c0.9-1.9,2-3.1,3.8-4.1l0.2-0.1l0.1-0.2c1-1.8,2.6-3.4,5.7-5.7l0.7-0.5l-0.4-0.6c0.1-0.4,0.7-1.5,4.3-4.9l0.5-0.4l-0.2-0.4
		c0.1-0.4,0.8-1.4,3.9-4.5l0.1-0.1l0.1-0.1c0.4-0.8,0.8-1.6,1.2-2.4C71.9,4.1,72.5,3,72.9,2l0.8-2l-2.1,0.8c-1,0.4-2.1,0.9-3.3,1.5
		c-0.8,0.4-1.7,0.8-2.5,1.2l-0.2,0.1l-0.1,0.1c-3.2,3-4.3,3.6-4.7,3.7l-0.5-0.2l-0.5,0.5c-3.5,3.6-4.6,4.1-5,4.2l-0.7-0.4l-0.5,0.7
		c-2.3,3-4,4.6-5.8,5.6l-0.2,0.1L47.6,18c-1.1,1.7-2.4,2.7-4.4,3.5l-0.3,0.1l-0.2,0.2c-2,3-4.2,4.5-7.4,5.3l-0.6,0.1l-0.1,0.6
		c-0.4,1.9-2.1,4.2-5.6,7.4l-0.2,0.1l-0.1,0.2c-0.4,1-2.2,2.8-5.4,5.4l-0.2,0.1l-0.1,0.2c-0.3,0.6-1.2,1.9-4.2,4.6
		c-1.4,1.4-3.5,3.2-6.4,5.5L11.8,52l0.5,0.7c0,0.2-0.2,1-2.5,3.6l-0.1,0.1C8.6,58.2,6,61,3.4,63.7l-1,1l0.9,0.4
		c-0.2,0.7-1,2.2-1.6,3.3L0,71.5l2.9-1.7c0.9-0.5,2.8-1.6,3.7-1.7l0.5,0.9L8,68.2c2.4-2.3,5.5-5,7.4-6.3C18,60,19.1,59.7,19.4,59.7z
		"/>
</g>
</svg>
