<?xml version="1.0" encoding="utf-8"?>
<!-- Generator: Adobe Illustrator 24.1.2, SVG Export Plug-In . SVG Version: 6.00 Build 0)  -->
<svg version="1.1" id="Layer_1" xmlns="http://www.w3.org/2000/svg" xmlns:xlink="http://www.w3.org/1999/xlink" x="0px" y="0px"
	 viewBox="0 0 128 128" style="enable-background:new 0 0 128 128;" xml:space="preserve">
<style type="text/css">
	.st0{fill:#2D2D2D;}
</style>
<g>
	<path class="st0" d="M88.67,125.27c0.01-0.02,0.03-0.04,0.05-0.06c-0.38-1-0.79-1.99-1.23-2.97c-0.47-1.08-1.01-2.13-1.56-3.17
		l-0.83-1.55c-0.29-0.5-0.54-1.05-0.86-1.47c-0.19-0.26-0.35-0.55-0.47-0.85c-0.12-0.3-0.21-0.61-0.27-0.92
		c-0.12-0.62-0.14-1.24-0.11-1.85l0-0.06l0.02-0.04c0.3-0.88,0.61-1.76,0.94-2.63c0.32-0.88,0.66-1.75,1.03-2.61
		c0-0.01,0.01-0.01,0.01-0.01c-0.01,0-0.01,0-0.02-0.01c-0.4-0.13-0.79-0.29-1.18-0.44c-0.7-0.28-1.39-0.59-2.06-0.94
		c-0.38,0.66-0.84,1.27-1.37,1.82c-0.03,0.03-0.06,0.05-0.08,0.08c0.1,1.63,0.2,3.27,0.04,4.93c-0.01,0.16,0.01,0.32,0.06,0.46
		c0.03,0.07,0.06,0.14,0.1,0.21l0.17,0.27l0.67,1.07c0.45,0.71,0.88,1.44,1.33,2.16c0.87,1.45,1.71,2.91,2.53,4.39
		c0.81,1.42,1.59,2.85,2.34,4.3L88.67,125.27z"/>
	<path class="st0" d="M127.77,96.23c-0.36,0-1.5-0.91-0.65-0.91c0.84,0,0.29-0.91,0.65-0.91c0.03,0,0.06,0.01,0.09,0.01
		c-0.01-0.02-0.03-0.04-0.04-0.05c-0.28-0.34-0.6-0.66-0.92-0.96c-0.66-0.59-1.37-1.13-2.07-1.67c-0.7-0.54-1.39-1.1-2.1-1.62
		l-0.08-0.06L122.62,90c-0.15-0.58-0.51-1.1-0.96-1.54c-0.44-0.42-0.97-0.78-1.54-1.06c0,0,0,0-0.01,0.01c-0.01,0-0.03,0-0.03-0.01
		c-0.44-0.53-0.84-1.08-1.25-1.62c-0.4-0.54-0.82-1.07-1.2-1.63c-0.39-0.55-0.76-1.13-1.25-1.6c-0.28-0.27-0.58-0.51-0.91-0.72
		c0.21,0.3,0.41,0.6,0.61,0.9c0.35,0.54,0.7,1.08,1,1.64c0.31,0.56,0.59,1.14,0.85,1.73c0.13,0.3,0.25,0.6,0.35,0.9
		c0.05,0.15,0.1,0.31,0.14,0.47c0.04,0.16,0.08,0.32,0.08,0.49c0,0.02-0.01,0.03-0.03,0.03c-0.01,0-0.02-0.01-0.03-0.02l0-0.01
		c-0.07-0.19-0.16-0.37-0.26-0.54c-0.23-0.04-0.43-0.1-1.05,0.02c-0.47,0.09-0.77,0.32-0.89,0.34c0.16,0.19,0.32,0.38,0.47,0.58
		c0.2,0.26,0.41,0.52,0.6,0.79c0.01,0.01,0.01,0.03-0.01,0.04c-0.01,0.01-0.03,0.01-0.04,0c-0.26-0.21-0.5-0.43-0.76-0.65
		c-0.25-0.22-0.49-0.44-0.73-0.67l-0.04-0.04l-0.01-0.08c-0.14-0.88-0.26-1.75-0.32-2.64l-0.01-0.17c0-0.05,0-0.07-0.01-0.1
		c-0.02-0.06-0.04-0.1-0.09-0.15c-0.17-0.16-0.33-0.32-0.47-0.49l-0.88-1c-0.58-0.65-1.22-1.29-1.99-1.69
		c-0.19-0.09-0.39-0.17-0.59-0.2c-0.2-0.03-0.4,0-0.55,0.1c-0.33,0.21-0.53,0.59-0.64,0.98c-0.22,0.79-0.22,1.67-0.03,2.47
		c0.1,0.39,0.26,0.79,0.49,1.01c0.27,0.25,0.66,0.47,1.03,0.69c0.75,0.42,1.54,0.81,2.34,1.18l0.14,0.06l0.01,0l0,0
		c0.02,0.01,0.06,0.02,0.08,0.04c0.04,0.04,0.05,0.05,0.06,0.07c0.01,0.02,0.02,0.04,0.03,0.06l0.04,0.09
		c0.04,0.11,0.08,0.21,0.12,0.32l0.21,0.64c0.13,0.42,0.25,0.85,0.36,1.28c0,0.02-0.01,0.03-0.02,0.04c-0.01,0-0.03,0-0.03-0.02
		c-0.17-0.32-0.27-0.53-0.42-0.85c0,0-1.97,1.63-3.04,2.37c-0.53,0.37-1.09,0.71-1.66,1.02c-0.29,0.16-0.59,0.29-0.89,0.42
		c-0.31,0.11-0.61,0.25-0.97,0.3c-0.35,0.05-0.71,0.03-1.06-0.07c-0.17-0.04-0.35-0.13-0.49-0.19l-0.43-0.2
		c-0.58-0.25-1.17-0.47-1.78-0.64c-1.21-0.34-2.47-0.49-3.71-0.42l-0.06,0l-0.07-0.02c-1.75-0.57-3.61-0.92-5.44-1.44
		c-0.45-0.13-0.93-0.28-1.38-0.46c-0.44-0.17-0.87-0.34-1.3-0.5c-0.87-0.3-1.75-0.57-2.65-0.77c-1.8-0.39-3.64-0.58-5.49-0.57
		c-1.84,0.01-3.67,0.22-5.48,0.57c-0.6,0.18-1.19,0.39-1.76,0.64c-0.58,0.25-1.15,0.53-1.67,0.85l-0.06,0.04l-0.06,0.02
		c-0.29,0.09-0.64,0.25-0.96,0.41c-0.33,0.16-0.65,0.34-0.97,0.52c-0.64,0.37-1.25,0.78-1.84,1.22c-0.59,0.44-1.14,0.93-1.65,1.45
		c-0.48,0.5-0.92,1.04-1.26,1.63c0,0.05,0,0.09,0,0.14l0.04,0.26c0.04,0.18,0.08,0.36,0.13,0.55c0.1,0.37,0.22,0.74,0.35,1.11
		c0.26,0.74,0.55,1.46,0.88,2.18c0.32,0.71,0.67,1.42,1.05,2.1c0.39,0.67,0.82,1.34,1.34,1.85l0.04,0.04l0.02,0.03
		c0.24,0.48,0.26,1.01,0.18,1.49c-0.08,0.49-0.28,0.94-0.54,1.35c-0.26,0.41-0.59,0.76-0.96,1.06l-1.08,0.84
		c-0.72,0.56-1.43,1.13-2.14,1.7c-0.19,0.15-0.33,0.26-0.44,0.44c-0.1,0.17-0.16,0.37-0.17,0.57c0,0.19,0.05,0.43,0.07,0.65
		l0.09,0.68l0.71,5.41l0.36,2.7l0.18,1.35l0.05,0.75l0.04,0.34l0.02,0.17l0,0.12c0.13,0.21,0.21,0.4,0.3,0.6l0.28,0.65
		c0.15,0.37,0.3,0.75,0.45,1.12l1.21-0.24c-0.24-0.75-0.6-1.43-0.78-2.21c-0.05-0.23-0.1-0.45-0.12-0.73
		c-0.01-0.2-0.04-0.42-0.07-0.65l-0.35-1.29c-0.21-1.8-0.4-3.61-0.34-5.47c0.02-0.46,0.05-0.93,0.15-1.41
		c0.05-0.24,0.12-0.48,0.23-0.74c0.07-0.13,0.13-0.26,0.24-0.38c0.1-0.12,0.19-0.18,0.28-0.27c0.74-0.63,1.52-1.1,2.29-1.58
		l2.31-1.41c0.75-0.48,1.53-0.97,2.1-1.55l0.06-0.06l0.05-0.02c0.42-0.17,0.74-0.14,1.05-0.16c0.31,0,0.61,0,0.9-0.03
		c0.29-0.03,0.56-0.08,0.8-0.19c0.06-0.03,0.11-0.06,0.17-0.09c0.05-0.04,0.1-0.07,0.16-0.11c0.11-0.09,0.22-0.19,0.33-0.29
		c0.86-0.82,1.55-1.84,1.97-2.95c0.4-1.12,0.52-2.35,0.26-3.53c-0.25-1.18-0.83-2.28-1.53-3.29l0,0c-0.01-0.02-0.01-0.05,0.01-0.06
		c0.02-0.01,0.05-0.01,0.06,0.01c0.77,0.96,1.43,2.05,1.75,3.28c0.33,1.22,0.29,2.55-0.11,3.76c-0.15,0.43-0.33,0.84-0.54,1.24
		c0.74,0.12,1.46,0.27,2.18,0.43l1.21,0.28l1.13,0.26c1.11-0.09,2.2-0.01,3.28,0.02c1.11,0.05,2.2,0.07,3.32,0.1
		c1.14,0.05,2.23,0.26,3.32,0.51c0.56,0.13,1.12,0.27,1.67,0.42c0.01-0.01,0.03-0.02,0.05-0.01c0.01,0.01,0.02,0.02,0.02,0.03
		c0.3,0.08,0.59,0.17,0.89,0.26c-0.15-0.37-0.26-0.76-0.33-1.16c-0.06-0.4-0.11-0.8-0.15-1.2c-0.08-0.8-0.09-1.61-0.02-2.4
		c0.04-0.4,0.09-0.79,0.17-1.18c0.04-0.2,0.08-0.39,0.13-0.58c0.03-0.1,0.06-0.19,0.09-0.29c0.02-0.05,0.04-0.09,0.05-0.14
		c0.03-0.05,0.02-0.08,0.11-0.16c0.02-0.01,0.05,0,0.06,0.03c0.01,0.02,0,0.05-0.03,0.06c0.02,0,0,0.02-0.01,0.04l-0.02,0.07
		c-0.01,0.05-0.02,0.09-0.03,0.14c-0.02,0.09-0.03,0.19-0.04,0.29c-0.02,0.19-0.04,0.39-0.04,0.58c-0.02,0.39-0.01,0.77,0.01,1.16
		c0.04,0.77,0.14,1.53,0.29,2.28c0.16,0.75,0.45,1.45,0.63,2.19c0.17,0.67,0.36,1.33,0.51,2.04c0.01,0.03,0.02,0.05,0.03,0.08
		c0.16,0.42,0.34,0.84,0.52,1.25c0.36,0.84,0.74,1.67,1.07,2.54c0.16,0.43,0.33,0.89,0.4,1.39c0.07,0.4,0.18,0.84,0.3,1.27
		c0.25,0.86,0.57,1.72,0.91,2.55l0.03,0.07l0,0.05c0.01,0.6,0.04,1.2,0.07,1.79c0.04,0.6,0.08,1.19,0.17,1.78l0.44,3.02l1.31-0.35
		c-0.03-0.09-0.38-2.57-0.49-3.13c-0.12-0.57-0.33-2.48-0.41-3.03l-0.02-0.15l0.05-0.1c0.17-0.38-0.08-2.49-0.08-3.02
		c-0.02-1.06-0.18-2.12-0.51-3.14l-0.24-0.78c-0.07-0.29-0.11-0.58-0.13-0.85c-0.03-0.55,0.01-1.09,0.07-1.63
		c0.13-1.07,0.34-2.13,0.7-3.16c0.01-0.02,0.04-0.04,0.06-0.03c0.02,0.01,0.03,0.02,0.03,0.04c0.05,0.66,0.05,1.31,0.04,1.95
		c0.27-0.09,0.53-0.2,0.76-0.33c0.32-0.18,0.6-0.41,0.84-0.67c0.24-0.26,0.44-0.55,0.62-0.87c0.18-0.32,0.33-0.65,0.48-1l0.08-0.18
		l0.16-0.08c0.9-0.41,1.74-1.02,2.57-1.64c0.42-0.31,0.85-0.62,1.24-0.98c0.39-0.36,0.75-0.74,1.06-1.17
		c0.32-0.42,0.58-0.89,0.86-1.33c0.27-0.45,0.58-0.88,0.9-1.29c0.64-0.81,1.29-1.62,2.04-2.38c-0.49-0.18-0.97-0.38-1.45-0.61
		l-0.14-0.07l-0.03-0.15c-0.09-0.46-0.16-0.93-0.21-1.4c-0.05-0.47-0.08-0.94-0.05-1.43c0.21,0.44,0.37,0.88,0.51,1.34
		c0.12,0.4,0.23,0.81,0.32,1.21c0.46,0.21,0.91,0.44,1.35,0.69c0.24,0.14,0.48,0.28,0.72,0.43c0.13,0.08,0.25,0.17,0.37,0.25
		c0.4,0.07,0.81,0.11,1.22,0.14c0.88,0.07,1.77,0.1,2.65,0.12l1.33,0.03c0.45,0.02,0.88,0.01,1.37,0.08
		c0.49,0.07,0.95,0.24,1.36,0.49l0.15,0.1l0.08,0.05c0.01,0.01,0.03,0.01,0.05-0.01c0.01,0,0.01-0.01,0.01-0.01l0.01-0.01l0.02-0.04
		l0.08-0.15l0.08-0.15l0.05-0.08c0-0.01,0.01-0.01,0.02-0.02c-0.12-0.03-0.24-0.06-0.36-0.1c-0.34-0.1-0.65-0.29-0.95-0.48
		c-0.31-0.2-0.61-0.4-0.89-0.62c-0.28-0.22-0.56-0.45-0.82-0.7c-0.01-0.01-0.01-0.03,0-0.04c0.01-0.01,0.02-0.01,0.04-0.01
		c0.32,0.16,0.63,0.32,0.95,0.47c0.32,0.15,0.63,0.3,0.96,0.42c0.33,0.12,0.67,0.23,0.96,0.43c0.19,0.12,0.37,0.25,0.55,0.39
		c0.07,0,0.14,0,0.21,0.02l0.29,0.12c0.04,0.02,0.1,0.01,0.14-0.01c0.02-0.01,0.04-0.03,0.06-0.05l0.09-0.14
		c0.09-0.15,0.17-0.3,0.26-0.45C127.93,96.21,127.85,96.23,127.77,96.23z M114.62,87.21c-0.34-0.04-0.67-0.15-0.96-0.32
		c-0.15-0.08-0.28-0.18-0.4-0.29c-0.12-0.11-0.23-0.23-0.32-0.38c-0.01-0.01,0-0.03,0.01-0.04c0.01,0,0.02-0.01,0.03,0l0,0
		c0.45,0.17,0.88,0.29,1.3,0.34c-0.03-0.29-0.06-0.57-0.15-0.86c-0.1-0.41-0.24-0.86-0.57-1.17c-0.16-0.15-0.35-0.28-0.55-0.38
		l-0.28-0.17c-0.09-0.06-0.17-0.13-0.26-0.19c-0.34-0.27-0.68-0.54-1.02-0.88l0,0c-0.01-0.01-0.01-0.03,0-0.05
		c0.01-0.01,0.02-0.01,0.03-0.01c0.49,0.03,0.93,0.23,1.32,0.49c0.2,0.13,0.37,0.29,0.51,0.48c0.15,0.19,0.26,0.4,0.4,0.58
		c0.06,0.1,0.14,0.18,0.21,0.27c0.07,0.09,0.14,0.18,0.22,0.27c0.08,0.09,0.15,0.18,0.22,0.28c0.07,0.1,0.16,0.19,0.21,0.3
		c0.06,0.11,0.11,0.22,0.16,0.33c0.04,0.11,0.07,0.23,0.11,0.35c0.08,0.23,0.09,0.48,0.11,0.73l0.03,0.38L114.62,87.21z
		 M120.38,91.22c-0.5,0-0.91-0.41-0.91-0.91s0.41-0.91,0.91-0.91c0.5,0,0.91,0.41,0.91,0.91S120.88,91.22,120.38,91.22z"/>
	<path class="st0" d="M101.14,112.87c-0.19-0.57-0.37-1.15-0.53-1.74c-0.12-0.45-0.23-0.9-0.31-1.36c-0.02-0.12-0.04-0.24-0.05-0.36
		c-0.13-0.16-0.26-0.33-0.37-0.51c-0.2-0.29-0.36-0.61-0.5-0.93c-0.33-0.07-0.67-0.14-1-0.21c-0.18,0.69-0.23,1.39-0.26,2.1
		c-0.04,0.77-0.04,1.54-0.04,2.32l0.02,2.33l0.01,1.17c-0.01,0.39-0.02,0.79-0.04,1.2l-0.01,0.07l-0.19,0.28
		c-0.02,0.03-0.05,0.06-0.08,0.09l-0.12,0.17c-0.08,0.11-0.16,0.26-0.24,0.39c-0.16,0.28-0.31,0.56-0.45,0.86
		c-0.3,0.58-0.57,1.19-0.85,1.79c-0.52,1.16-1.09,2.31-1.59,3.49c0.01,0.01,0.02,0.02,0.02,0.03c0.31,0.21,0.63,0.41,0.95,0.6
		c0,0,0,0,0,0c0.26-0.57,0.5-1.15,0.73-1.74c0.25-0.64,0.48-1.28,0.72-1.93c0.24-0.64,0.49-1.28,0.78-1.91
		c0.15-0.31,0.29-0.62,0.46-0.93c0.17-0.31,0.32-0.61,0.54-0.94l0.03-0.05l0.05-0.04c0.29-0.22,0.55-0.52,0.78-0.85
		c0.23-0.33,0.44-0.68,0.63-1.05c0.2-0.37,0.36-0.75,0.53-1.14c0.08-0.19,0.16-0.39,0.23-0.59l0.1-0.3c0.02-0.05,0.03-0.1,0.04-0.15
		c0.01-0.02,0.01-0.05,0.02-0.07c0-0.01,0.01-0.03,0.01-0.03l0-0.01c0-0.01,0.01,0.02,0.02,0.01c-0.02-0.01-0.04-0.03-0.03-0.06
		C101.13,112.88,101.13,112.88,101.14,112.87z"/>
	<path class="st0" d="M19.91,36.28c0.01-0.01,0.02-0.02,0.03-0.03c-0.23-0.6-0.47-1.19-0.73-1.77c-0.28-0.64-0.6-1.27-0.93-1.89
		l-0.5-0.93c-0.17-0.3-0.32-0.63-0.51-0.88c-0.11-0.16-0.21-0.33-0.28-0.51c-0.07-0.18-0.12-0.36-0.16-0.55
		c-0.07-0.37-0.08-0.74-0.06-1.1l0-0.04l0.01-0.03c0.18-0.53,0.36-1.05,0.56-1.57c0.19-0.52,0.4-1.04,0.62-1.56
		c0,0,0.01-0.01,0.01-0.01c0,0-0.01,0-0.01,0c-0.24-0.08-0.47-0.17-0.71-0.26c-0.42-0.17-0.83-0.35-1.23-0.56
		c-0.22,0.39-0.5,0.76-0.82,1.09c-0.02,0.02-0.03,0.03-0.05,0.05c0.06,0.97,0.12,1.95,0.02,2.94c-0.01,0.09,0,0.19,0.04,0.28
		c0.02,0.04,0.04,0.09,0.06,0.12l0.1,0.16l0.4,0.64c0.27,0.43,0.53,0.86,0.79,1.29c0.52,0.86,1.02,1.74,1.51,2.62
		c0.48,0.85,0.95,1.7,1.4,2.56L19.91,36.28z"/>
	<path class="st0" d="M37.77,11.98c0.14,0.19,0.26,0.38,0.38,0.57c0.21,0.35,0.39,0.7,0.53,1.09c0.14,0.03,0.27,0.09,0.4,0.14
		c-0.12-0.3-0.24-0.6-0.37-0.9c-0.13-0.3-0.26-0.6-0.41-0.89c-0.15-0.29-0.3-0.57-0.47-0.84c-0.05-0.08-0.11-0.17-0.17-0.25
		c0.02,0.11,0.04,0.22,0.05,0.34C37.73,11.49,37.75,11.74,37.77,11.98z"/>
	<path class="st0" d="M7.81,21.67c0.19,0.23,0.41,0.45,0.65,0.64c0.18,0.15,0.38,0.29,0.59,0.41c-0.03-0.04-0.05-0.08-0.08-0.12
		c-0.25-0.41-0.48-0.83-0.69-1.27c-0.21-0.43-0.4-0.87-0.57-1.32c-0.08-0.23-0.16-0.45-0.23-0.69c-0.03-0.12-0.06-0.24-0.09-0.36
		l-0.01-0.08C7.33,18.99,7.3,19.1,7.26,19.2c-0.04,0.16-0.09,0.31-0.11,0.46c-0.02,0.15-0.03,0.29-0.03,0.43
		c0.04,0.28,0.09,0.56,0.21,0.82C7.46,21.19,7.62,21.44,7.81,21.67z"/>
	<path class="st0" d="M27.35,28.89c-0.11-0.34-0.22-0.69-0.32-1.04c-0.07-0.27-0.14-0.54-0.19-0.81c-0.01-0.07-0.02-0.14-0.03-0.21
		c-0.08-0.1-0.15-0.2-0.22-0.3c-0.12-0.18-0.21-0.36-0.3-0.56c-0.2-0.04-0.4-0.08-0.6-0.12c-0.11,0.41-0.13,0.83-0.16,1.25
		c-0.02,0.46-0.02,0.92-0.02,1.38l0.01,1.39l0,0.7c0,0.23-0.01,0.47-0.03,0.72l0,0.04l-0.11,0.17c-0.01,0.02-0.03,0.04-0.05,0.05
		l-0.07,0.1c-0.05,0.06-0.1,0.16-0.14,0.23c-0.09,0.16-0.18,0.34-0.27,0.51c-0.18,0.35-0.34,0.71-0.5,1.07
		c-0.31,0.69-0.65,1.38-0.95,2.08c0,0.01,0.01,0.01,0.01,0.02c0.19,0.12,0.38,0.24,0.57,0.36c0,0,0,0,0,0
		c0.15-0.34,0.3-0.69,0.43-1.04c0.15-0.38,0.29-0.77,0.43-1.15c0.14-0.38,0.29-0.76,0.47-1.14c0.09-0.19,0.17-0.37,0.27-0.55
		c0.1-0.18,0.19-0.36,0.32-0.56l0.02-0.03l0.03-0.02c0.17-0.13,0.33-0.31,0.47-0.51c0.14-0.2,0.26-0.41,0.38-0.63
		c0.12-0.22,0.22-0.45,0.31-0.68c0.05-0.12,0.09-0.23,0.14-0.35l0.06-0.18c0.01-0.03,0.02-0.06,0.03-0.09
		c0-0.01,0.01-0.03,0.01-0.04c0-0.01,0-0.02,0-0.02l0-0.01c0,0,0.01,0.01,0.01,0.01c-0.01,0-0.02-0.02-0.02-0.03
		C27.34,28.89,27.35,28.89,27.35,28.89z"/>
	<path class="st0" d="M67.66,96.11c-0.06,0.18-0.13,0.36-0.18,0.54c-0.07,0.27-0.15,0.52-0.18,0.78c-0.04,0.25-0.06,0.49-0.05,0.73
		c0.06,0.46,0.16,0.93,0.35,1.37c0.2,0.45,0.47,0.87,0.78,1.26c0.32,0.39,0.68,0.75,1.08,1.08c0.31,0.25,0.64,0.48,0.99,0.68
		c-0.04-0.07-0.09-0.14-0.13-0.2c-0.42-0.69-0.8-1.4-1.15-2.12c-0.35-0.72-0.67-1.46-0.95-2.22c-0.14-0.38-0.27-0.76-0.39-1.15
		c-0.06-0.2-0.11-0.4-0.15-0.61L67.66,96.11z"/>
	<path class="st0" d="M43.24,18.96c-0.21,0-0.89-0.54-0.39-0.54s0.17-0.54,0.39-0.54c0.02,0,0.03,0,0.05,0.01
		c-0.01-0.01-0.02-0.02-0.03-0.03c-0.17-0.2-0.36-0.39-0.55-0.57c-0.39-0.35-0.82-0.68-1.24-1c-0.42-0.32-0.83-0.65-1.25-0.97
		l-0.05-0.03l-0.01-0.05c-0.09-0.34-0.3-0.66-0.57-0.92c-0.26-0.25-0.58-0.47-0.92-0.63c0,0,0,0,0,0c-0.01,0-0.02,0-0.02-0.01
		c-0.26-0.32-0.5-0.64-0.74-0.97c-0.24-0.32-0.49-0.64-0.72-0.97c-0.23-0.33-0.45-0.67-0.74-0.95c-0.16-0.16-0.35-0.31-0.54-0.43
		c0.13,0.18,0.25,0.36,0.37,0.54c0.21,0.32,0.42,0.64,0.6,0.98c0.18,0.34,0.35,0.68,0.51,1.03c0.08,0.18,0.15,0.36,0.21,0.54
		c0.03,0.09,0.06,0.18,0.08,0.28c0.03,0.09,0.05,0.19,0.05,0.29c0,0.01-0.01,0.02-0.02,0.02c-0.01,0-0.01-0.01-0.02-0.01l0,0
		c-0.04-0.11-0.1-0.22-0.16-0.32c-0.14-0.02-0.26-0.06-0.62,0.01c-0.28,0.05-0.46,0.19-0.53,0.2c0.09,0.11,0.19,0.23,0.28,0.34
		c0.12,0.16,0.25,0.31,0.36,0.47c0.01,0.01,0,0.02,0,0.03c-0.01,0-0.02,0-0.02,0c-0.16-0.12-0.3-0.26-0.45-0.39
		c-0.15-0.13-0.29-0.26-0.44-0.4l-0.02-0.02l-0.01-0.05c-0.09-0.52-0.15-1.04-0.19-1.58l0-0.1c0-0.03,0-0.04-0.01-0.06
		c-0.01-0.03-0.03-0.06-0.05-0.09c-0.1-0.1-0.2-0.19-0.28-0.29l-0.52-0.59c-0.35-0.39-0.73-0.77-1.19-1.01
		c-0.12-0.06-0.23-0.1-0.35-0.12c-0.12-0.02-0.24,0-0.33,0.06c-0.2,0.13-0.31,0.35-0.38,0.59c-0.13,0.47-0.13,1-0.02,1.48
		c0.06,0.23,0.15,0.47,0.29,0.61c0.16,0.15,0.4,0.28,0.61,0.41c0.45,0.25,0.92,0.48,1.39,0.7l0.08,0.04l0,0l0,0
		c0.01,0,0.03,0.01,0.05,0.03c0.03,0.02,0.03,0.03,0.03,0.04c0.01,0.01,0.01,0.02,0.02,0.03l0.02,0.05
		c0.03,0.07,0.05,0.13,0.07,0.19l0.12,0.38c0.08,0.25,0.15,0.51,0.21,0.77c0,0.01,0,0.02-0.01,0.02c-0.01,0-0.02,0-0.02-0.01
		c-0.1-0.19-0.16-0.32-0.25-0.51c0,0-1.18,0.97-1.81,1.42c-0.32,0.22-0.65,0.43-0.99,0.61c-0.17,0.09-0.35,0.17-0.53,0.25
		c-0.18,0.06-0.36,0.15-0.58,0.18c-0.21,0.03-0.43,0.02-0.63-0.04c-0.1-0.03-0.21-0.07-0.29-0.11l-0.26-0.12
		c-0.35-0.15-0.7-0.28-1.06-0.38c-0.72-0.2-1.47-0.29-2.21-0.25l-0.04,0l-0.04-0.01c-1.04-0.34-2.15-0.55-3.24-0.86
		c-0.27-0.08-0.56-0.17-0.82-0.28c-0.26-0.1-0.52-0.21-0.78-0.3c-0.52-0.18-1.05-0.34-1.58-0.46c-1.07-0.24-2.17-0.35-3.27-0.34
		c-1.1,0.01-2.19,0.13-3.27,0.34c-0.36,0.11-0.71,0.23-1.05,0.38c-0.35,0.15-0.69,0.32-1,0.51l-0.03,0.02l-0.04,0.01
		c-0.18,0.05-0.38,0.15-0.58,0.24c-0.2,0.1-0.39,0.2-0.58,0.31c-0.38,0.22-0.75,0.47-1.1,0.73c-0.35,0.26-0.68,0.55-0.98,0.86
		c-0.29,0.3-0.55,0.62-0.75,0.98c0,0.03,0,0.05,0,0.09l0.02,0.16c0.02,0.11,0.05,0.22,0.08,0.33c0.06,0.22,0.13,0.44,0.21,0.66
		c0.15,0.44,0.33,0.87,0.52,1.3c0.19,0.43,0.4,0.85,0.63,1.25c0.23,0.4,0.49,0.8,0.8,1.11l0.02,0.02l0.01,0.02
		c0.14,0.29,0.16,0.6,0.11,0.89c-0.05,0.29-0.17,0.56-0.32,0.8c-0.15,0.24-0.35,0.45-0.57,0.63l-0.64,0.5
		c-0.43,0.33-0.86,0.67-1.28,1.01c-0.11,0.09-0.2,0.15-0.26,0.26c-0.06,0.1-0.1,0.22-0.1,0.34c0,0.11,0.03,0.26,0.04,0.39l0.05,0.4
		l0.42,3.23l0.22,1.61l0.1,0.81l0.05,0.41l0.02,0.2l0.01,0.1l0,0.07c0.08,0.13,0.12,0.24,0.18,0.36l0.17,0.39
		c0.09,0.22,0.18,0.44,0.27,0.67l0.51-0.02c-0.14-0.45-0.28-0.89-0.38-1.36c-0.03-0.14-0.06-0.27-0.07-0.43
		c-0.01-0.12-0.02-0.25-0.04-0.39l-0.1-0.8c-0.12-1.08-0.24-2.16-0.2-3.26c0.01-0.28,0.03-0.56,0.09-0.84
		c0.03-0.14,0.07-0.29,0.14-0.44c0.04-0.08,0.08-0.15,0.15-0.23c0.06-0.07,0.11-0.11,0.17-0.16c0.44-0.37,0.9-0.65,1.37-0.94
		l1.38-0.84c0.45-0.28,0.91-0.58,1.26-0.92l0.04-0.04l0.03-0.01c0.25-0.1,0.44-0.08,0.63-0.09c0.19,0,0.36,0,0.54-0.02
		c0.17-0.02,0.33-0.05,0.48-0.11c0.03-0.02,0.07-0.03,0.1-0.05c0.03-0.02,0.06-0.04,0.09-0.07c0.07-0.05,0.13-0.11,0.2-0.17
		c0.51-0.49,0.93-1.1,1.18-1.76c0.24-0.67,0.31-1.4,0.16-2.11c-0.15-0.71-0.5-1.36-0.91-1.96l0,0c-0.01-0.01-0.01-0.03,0.01-0.04
		c0.01-0.01,0.03-0.01,0.04,0.01c0.46,0.58,0.85,1.23,1.05,1.96c0.2,0.73,0.17,1.52-0.07,2.24c-0.09,0.26-0.2,0.5-0.32,0.74
		c0.44,0.07,0.87,0.16,1.3,0.25l0.72,0.17l0.67,0.15c0.66-0.06,1.31-0.01,1.96,0.01c0.66,0.03,1.31,0.04,1.98,0.06
		c0.68,0.03,1.33,0.16,1.98,0.3c0.33,0.08,0.67,0.16,1,0.25c0.01-0.01,0.02-0.01,0.03,0c0.01,0,0.01,0.01,0.01,0.02
		c0.18,0.05,0.35,0.1,0.53,0.16c-0.09-0.22-0.16-0.45-0.2-0.69c-0.04-0.24-0.07-0.48-0.09-0.72c-0.05-0.48-0.06-0.96-0.01-1.43
		c0.02-0.24,0.05-0.47,0.1-0.71c0.02-0.12,0.05-0.23,0.08-0.35c0.02-0.06,0.03-0.11,0.05-0.17c0.01-0.03,0.02-0.06,0.03-0.08
		c0.02-0.03,0.01-0.05,0.06-0.09c0.01,0,0.03,0,0.04,0.02c0,0.01,0,0.03-0.02,0.03c0.01,0,0,0.01,0,0.02l-0.01,0.04
		c-0.01,0.03-0.01,0.06-0.02,0.08c-0.01,0.06-0.02,0.11-0.02,0.17c-0.01,0.11-0.02,0.23-0.03,0.35c-0.01,0.23-0.01,0.46,0.01,0.69
		c0.02,0.46,0.08,0.92,0.17,1.36c0.09,0.45,0.27,0.87,0.38,1.31c0.1,0.4,0.21,0.79,0.3,1.22c0.01,0.02,0.01,0.03,0.02,0.05
		c0.1,0.25,0.2,0.5,0.31,0.75c0.22,0.5,0.44,0.99,0.64,1.51c0.1,0.26,0.19,0.53,0.24,0.83c0.04,0.24,0.11,0.5,0.18,0.76
		c0.15,0.51,0.34,1.02,0.55,1.52l0.02,0.04l0,0.03c0.01,0.36,0.02,0.71,0.04,1.07c0.02,0.36,0.05,0.71,0.1,1.06l0.27,1.8l0.78-0.21
		c-0.02-0.05-0.23-1.53-0.29-1.87c-0.07-0.34-0.2-1.48-0.25-1.81l-0.01-0.09l0.03-0.06c0.1-0.23-0.05-1.49-0.05-1.8
		c-0.01-0.63-0.11-1.27-0.3-1.88l-0.14-0.46c-0.04-0.17-0.07-0.34-0.08-0.51c-0.02-0.33,0.01-0.65,0.04-0.97
		c0.08-0.64,0.2-1.27,0.42-1.88c0-0.01,0.02-0.02,0.04-0.02c0.01,0,0.02,0.01,0.02,0.02c0.03,0.39,0.03,0.78,0.02,1.16
		c0.16-0.06,0.32-0.12,0.46-0.2c0.19-0.11,0.36-0.24,0.5-0.4c0.14-0.16,0.26-0.33,0.37-0.52c0.1-0.19,0.2-0.39,0.29-0.59l0.05-0.1
		l0.1-0.04c0.54-0.25,1.04-0.61,1.54-0.98c0.25-0.18,0.51-0.37,0.74-0.58c0.23-0.21,0.45-0.44,0.63-0.7
		c0.19-0.25,0.35-0.53,0.51-0.8c0.16-0.27,0.34-0.52,0.54-0.77c0.38-0.49,0.77-0.97,1.22-1.42c-0.29-0.11-0.58-0.23-0.86-0.36
		l-0.09-0.04l-0.02-0.09c-0.05-0.28-0.1-0.55-0.12-0.83c-0.03-0.28-0.05-0.56-0.03-0.85c0.13,0.26,0.22,0.53,0.3,0.8
		c0.07,0.24,0.14,0.48,0.19,0.72c0.27,0.13,0.54,0.26,0.81,0.41c0.15,0.08,0.29,0.17,0.43,0.26c0.07,0.05,0.15,0.1,0.22,0.15
		c0.24,0.04,0.48,0.07,0.73,0.09c0.53,0.04,1.05,0.06,1.58,0.07l0.8,0.02c0.27,0.01,0.53,0.01,0.82,0.05
		c0.29,0.04,0.57,0.15,0.81,0.29l0.09,0.06l0.05,0.03c0.01,0,0.02,0,0.03,0c0,0,0,0,0.01-0.01l0,0l0.01-0.02l0.05-0.09l0.05-0.09
		l0.03-0.05c0,0,0.01-0.01,0.01-0.01c-0.07-0.02-0.15-0.04-0.22-0.06c-0.2-0.06-0.39-0.17-0.57-0.29c-0.18-0.12-0.36-0.24-0.53-0.37
		c-0.17-0.13-0.33-0.27-0.49-0.42c-0.01-0.01-0.01-0.02,0-0.03c0.01-0.01,0.01-0.01,0.02,0c0.19,0.1,0.38,0.19,0.57,0.28
		c0.19,0.09,0.38,0.18,0.57,0.25c0.2,0.07,0.4,0.14,0.57,0.25c0.11,0.07,0.22,0.15,0.33,0.23c0.04,0,0.08,0,0.12,0.02l0.18,0.07
		c0.03,0.01,0.06,0.01,0.09-0.01c0.01-0.01,0.03-0.02,0.04-0.03l0.05-0.08c0.05-0.09,0.1-0.18,0.15-0.27
		C43.34,18.94,43.29,18.96,43.24,18.96z M35.39,13.57c-0.2-0.02-0.4-0.09-0.57-0.19c-0.09-0.05-0.17-0.11-0.24-0.17
		c-0.07-0.07-0.14-0.14-0.19-0.23c0-0.01,0-0.02,0.01-0.03c0.01,0,0.01,0,0.02,0l0,0c0.27,0.1,0.53,0.17,0.78,0.2
		c-0.02-0.17-0.04-0.34-0.09-0.51c-0.06-0.25-0.14-0.51-0.34-0.7c-0.1-0.09-0.21-0.16-0.33-0.23l-0.17-0.1
		c-0.05-0.04-0.1-0.08-0.16-0.12c-0.2-0.16-0.41-0.32-0.61-0.52l0,0c-0.01-0.01-0.01-0.02,0-0.03c0,0,0.01-0.01,0.01-0.01
		c0.29,0.02,0.55,0.14,0.79,0.29c0.12,0.08,0.22,0.17,0.31,0.29c0.09,0.11,0.16,0.24,0.24,0.35c0.04,0.06,0.08,0.11,0.13,0.16
		c0.04,0.05,0.08,0.11,0.13,0.16c0.05,0.05,0.09,0.11,0.13,0.17c0.04,0.06,0.09,0.11,0.12,0.18c0.04,0.06,0.07,0.13,0.1,0.2
		c0.03,0.07,0.04,0.14,0.07,0.21c0.05,0.14,0.05,0.29,0.07,0.43l0.02,0.23L35.39,13.57z M38.83,15.97c-0.3,0-0.54-0.24-0.54-0.54
		s0.24-0.54,0.54-0.54c0.3,0,0.54,0.24,0.54,0.54S39.13,15.97,38.83,15.97z"/>
	<path class="st0" d="M67.67,76.12c-0.1-0.47-0.27-2.04-0.34-2.49l-0.02-0.12l0.04-0.09c0.14-0.31-0.06-2.05-0.07-2.49
		c-0.01-0.87-0.15-1.74-0.42-2.58l-0.2-0.64c-0.06-0.24-0.09-0.47-0.1-0.7c-0.03-0.46,0.01-0.9,0.06-1.34
		c0.11-0.88,0.28-1.75,0.58-2.6c0.01-0.02,0.03-0.03,0.05-0.02c0.01,0.01,0.02,0.02,0.03,0.03c0.04,0.54,0.04,1.07,0.03,1.61
		c0.22-0.08,0.44-0.16,0.63-0.27c0.26-0.15,0.49-0.33,0.69-0.55c0.2-0.22,0.37-0.45,0.51-0.71c0.14-0.26,0.27-0.53,0.4-0.82
		l0.06-0.14l0.13-0.06c0.74-0.34,1.43-0.84,2.12-1.35c0.35-0.25,0.7-0.51,1.02-0.8c0.32-0.29,0.62-0.61,0.87-0.96
		c0.26-0.35,0.48-0.73,0.71-1.1c0.22-0.37,0.48-0.72,0.74-1.06c0.53-0.67,1.06-1.34,1.68-1.96c-0.4-0.15-0.8-0.32-1.19-0.5
		l-0.12-0.06l-0.02-0.12c-0.07-0.38-0.13-0.76-0.17-1.15c-0.04-0.39-0.06-0.78-0.04-1.17c0.17,0.36,0.3,0.73,0.42,1.1
		c0.1,0.33,0.19,0.66,0.26,1c0.38,0.17,0.75,0.36,1.11,0.57c0.2,0.11,0.4,0.23,0.59,0.36c0.1,0.07,0.21,0.14,0.31,0.21
		c0.33,0.06,0.67,0.09,1,0.12c0.72,0.06,1.45,0.08,2.18,0.1l1.1,0.02c0.37,0.01,0.73,0.01,1.13,0.06c0.4,0.06,0.78,0.2,1.12,0.4
		l0.13,0.08l0.06,0.04c0.01,0.01,0.03,0,0.04,0c0,0,0.01-0.01,0.01-0.01l0-0.01l0.02-0.03l0.07-0.12l0.07-0.12l0.04-0.07
		c0-0.01,0.01-0.01,0.02-0.02c-0.1-0.02-0.2-0.05-0.3-0.08c-0.28-0.09-0.54-0.24-0.78-0.4c-0.26-0.16-0.5-0.33-0.73-0.51
		c-0.23-0.18-0.46-0.37-0.67-0.58c-0.01-0.01-0.01-0.03,0-0.04c0.01-0.01,0.02-0.01,0.03-0.01c0.26,0.13,0.52,0.26,0.78,0.39
		c0.26,0.12,0.52,0.25,0.79,0.34c0.27,0.09,0.55,0.19,0.79,0.35c0.15,0.1,0.31,0.2,0.45,0.32c0.06,0,0.12,0,0.17,0.02l0.24,0.1
		c0.04,0.01,0.08,0.01,0.12-0.01c0.02-0.01,0.04-0.03,0.05-0.04L86,55.34c0.07-0.12,0.14-0.25,0.21-0.37
		c-0.06,0.03-0.13,0.05-0.19,0.05c-0.3,0-1.23-0.74-0.54-0.74c0.69,0,0.24-0.74,0.54-0.74c0.02,0,0.05,0.01,0.07,0.01
		c-0.01-0.01-0.02-0.03-0.03-0.04c-0.23-0.28-0.49-0.54-0.76-0.79c-0.54-0.49-1.13-0.93-1.71-1.37c-0.58-0.44-1.15-0.9-1.73-1.34
		l-0.06-0.05l-0.02-0.06c-0.13-0.47-0.42-0.91-0.79-1.26c-0.36-0.35-0.8-0.64-1.27-0.87c0,0,0,0,0,0c-0.01,0-0.02,0-0.03-0.01
		c-0.36-0.44-0.69-0.89-1.03-1.33c-0.33-0.45-0.67-0.88-0.99-1.34c-0.32-0.45-0.62-0.93-1.03-1.31c-0.23-0.22-0.48-0.42-0.75-0.59
		c0.17,0.24,0.34,0.49,0.5,0.74c0.29,0.44,0.57,0.89,0.83,1.35c0.25,0.46,0.49,0.94,0.7,1.43c0.1,0.24,0.2,0.49,0.29,0.74
		c0.04,0.13,0.08,0.25,0.11,0.39c0.03,0.13,0.07,0.26,0.06,0.4c0,0.01-0.01,0.02-0.03,0.02c-0.01,0-0.02-0.01-0.02-0.02l0-0.01
		c-0.05-0.15-0.13-0.3-0.22-0.45c-0.19-0.03-0.35-0.08-0.86,0.01c-0.39,0.07-0.63,0.27-0.73,0.28c0.13,0.16,0.26,0.31,0.39,0.47
		c0.17,0.22,0.34,0.43,0.5,0.65c0.01,0.01,0.01,0.03-0.01,0.04c-0.01,0.01-0.02,0.01-0.03,0c-0.21-0.17-0.41-0.36-0.62-0.53
		c-0.2-0.18-0.4-0.36-0.6-0.55l-0.03-0.03l-0.01-0.06c-0.12-0.72-0.21-1.44-0.27-2.17l-0.01-0.14c0-0.04,0-0.05-0.01-0.08
		c-0.01-0.05-0.04-0.08-0.08-0.12c-0.14-0.13-0.27-0.26-0.39-0.4l-0.72-0.82c-0.48-0.54-1-1.06-1.63-1.39
		c-0.16-0.08-0.32-0.14-0.49-0.17c-0.17-0.02-0.33,0-0.45,0.08c-0.27,0.17-0.43,0.49-0.53,0.81c-0.18,0.65-0.18,1.38-0.02,2.04
		c0.08,0.32,0.21,0.65,0.4,0.83c0.22,0.2,0.55,0.39,0.84,0.57c0.62,0.35,1.27,0.67,1.92,0.97l0.12,0.05l0.01,0l0,0
		c0.02,0.01,0.05,0.02,0.06,0.04c0.04,0.03,0.04,0.04,0.05,0.05c0.01,0.02,0.02,0.03,0.02,0.05l0.03,0.07
		c0.04,0.09,0.07,0.18,0.1,0.26l0.17,0.52c0.11,0.35,0.21,0.7,0.3,1.05c0,0.01,0,0.03-0.02,0.03c-0.01,0-0.02,0-0.03-0.01
		c-0.14-0.26-0.22-0.43-0.35-0.7c0,0-1.62,1.34-2.5,1.95c-0.44,0.31-0.89,0.59-1.37,0.84c-0.24,0.13-0.48,0.24-0.73,0.34
		c-0.25,0.09-0.5,0.21-0.8,0.25c-0.29,0.04-0.59,0.03-0.87-0.05c-0.14-0.04-0.29-0.1-0.4-0.16l-0.36-0.16
		c-0.48-0.21-0.97-0.39-1.46-0.52c-1-0.28-2.03-0.4-3.05-0.34l-0.05,0l-0.06-0.02c-1.44-0.47-2.97-0.76-4.47-1.19
		c-0.37-0.11-0.77-0.23-1.13-0.38c-0.36-0.14-0.71-0.28-1.07-0.41c-0.72-0.25-1.44-0.47-2.18-0.63c-1.48-0.32-3-0.48-4.51-0.47
		c-1.51,0.01-3.02,0.18-4.51,0.47c-0.49,0.15-0.98,0.32-1.45,0.52c-0.48,0.2-0.95,0.44-1.38,0.7l-0.05,0.03l-0.05,0.02
		c-0.24,0.07-0.53,0.2-0.79,0.33c-0.27,0.13-0.54,0.28-0.8,0.43c-0.52,0.31-1.03,0.64-1.52,1.01c-0.49,0.36-0.94,0.76-1.36,1.19
		c-0.4,0.41-0.76,0.86-1.03,1.34c0,0.04,0,0.07,0,0.12l0.03,0.22c0.03,0.15,0.06,0.3,0.1,0.45c0.08,0.3,0.18,0.61,0.29,0.91
		c0.21,0.61,0.46,1.2,0.72,1.79c0.27,0.59,0.55,1.17,0.87,1.72c0.32,0.55,0.67,1.1,1.11,1.52l0.03,0.03l0.01,0.03
		c0.19,0.4,0.21,0.83,0.15,1.23c-0.06,0.4-0.23,0.77-0.44,1.11c-0.21,0.33-0.49,0.62-0.79,0.87l-0.89,0.69
		c-0.59,0.46-1.18,0.93-1.76,1.4c-0.16,0.12-0.27,0.21-0.36,0.36c-0.09,0.14-0.13,0.3-0.14,0.47c0,0.15,0.04,0.35,0.06,0.54
		l0.07,0.56l0.58,4.45l0.3,2.22l0.15,1.11l0.07,0.56l0.03,0.28l0.01,0.14l0,0.1c0.1,0.17,0.17,0.33,0.25,0.5l0.23,0.53
		c0.13,0.31,0.25,0.61,0.37,0.92l0.71-0.03c-0.19-0.62-0.38-1.23-0.53-1.88c-0.04-0.19-0.08-0.37-0.1-0.6
		c-0.01-0.17-0.03-0.35-0.05-0.53l-0.14-1.11c-0.17-1.48-0.33-2.97-0.28-4.5c0.02-0.38,0.04-0.77,0.13-1.16
		c0.04-0.2,0.1-0.4,0.19-0.61c0.05-0.11,0.11-0.21,0.2-0.31c0.08-0.1,0.15-0.15,0.23-0.22c0.61-0.52,1.25-0.9,1.88-1.3l1.9-1.16
		c0.62-0.39,1.26-0.8,1.73-1.27l0.05-0.05l0.04-0.02c0.35-0.14,0.61-0.11,0.87-0.13c0.26,0,0.5,0,0.74-0.03
		c0.23-0.02,0.46-0.07,0.66-0.15c0.05-0.03,0.09-0.05,0.14-0.07c0.04-0.03,0.08-0.05,0.13-0.09c0.09-0.07,0.18-0.15,0.27-0.24
		c0.7-0.68,1.28-1.51,1.62-2.43c0.33-0.92,0.43-1.93,0.22-2.9c-0.21-0.97-0.68-1.88-1.26-2.71l0,0c-0.01-0.02-0.01-0.04,0.01-0.05
		c0.02-0.01,0.04-0.01,0.05,0.01c0.64,0.79,1.18,1.69,1.44,2.7c0.27,1,0.24,2.09-0.09,3.09c-0.12,0.35-0.27,0.69-0.45,1.02
		c0.61,0.1,1.2,0.22,1.79,0.35l1,0.23l0.93,0.21c0.91-0.08,1.81-0.01,2.7,0.02c0.91,0.04,1.81,0.06,2.73,0.08
		c0.94,0.04,1.84,0.22,2.73,0.42c0.46,0.11,0.92,0.22,1.38,0.34c0.01-0.01,0.03-0.01,0.04,0c0.01,0,0.01,0.01,0.02,0.02
		c0.24,0.07,0.49,0.14,0.73,0.21c-0.13-0.31-0.22-0.62-0.27-0.95c-0.05-0.33-0.09-0.66-0.12-0.99c-0.07-0.66-0.08-1.32-0.02-1.98
		c0.03-0.33,0.08-0.65,0.14-0.97c0.03-0.16,0.07-0.32,0.11-0.48c0.02-0.08,0.05-0.16,0.07-0.24c0.01-0.04,0.03-0.08,0.04-0.12
		c0.03-0.04,0.01-0.07,0.09-0.13c0.02-0.01,0.04,0,0.05,0.02c0.01,0.02,0,0.04-0.02,0.05c0.01,0,0,0.02,0,0.03l-0.01,0.05
		c-0.01,0.04-0.02,0.08-0.02,0.12c-0.01,0.08-0.02,0.16-0.03,0.24c-0.02,0.16-0.03,0.32-0.04,0.48c-0.01,0.32-0.01,0.64,0.01,0.95
		c0.03,0.63,0.11,1.26,0.24,1.88c0.13,0.62,0.37,1.2,0.52,1.8c0.14,0.55,0.29,1.09,0.42,1.68c0.01,0.02,0.02,0.05,0.03,0.07
		c0.13,0.35,0.28,0.69,0.43,1.03c0.3,0.69,0.61,1.37,0.88,2.09c0.13,0.36,0.27,0.73,0.33,1.14c0.06,0.33,0.15,0.69,0.25,1.04
		c0.21,0.71,0.47,1.41,0.75,2.1l0.02,0.06l0,0.04c0.01,0.49,0.03,0.99,0.06,1.48c0.03,0.49,0.06,0.98,0.14,1.47L67,78.99l1.07-0.29
		C68.04,78.63,67.76,76.59,67.67,76.12z M79.94,49.4c0.41,0,0.75,0.33,0.75,0.74c0,0.41-0.33,0.74-0.75,0.74
		c-0.41,0-0.75-0.33-0.75-0.74C79.19,49.74,79.53,49.4,79.94,49.4z M75.2,47.6c-0.28-0.03-0.55-0.12-0.79-0.26
		c-0.12-0.07-0.23-0.15-0.33-0.24c-0.1-0.09-0.19-0.19-0.26-0.31c-0.01-0.01,0-0.03,0.01-0.04c0.01,0,0.02,0,0.02,0l0,0
		c0.37,0.14,0.73,0.24,1.07,0.28c-0.02-0.24-0.05-0.47-0.12-0.71c-0.08-0.34-0.2-0.71-0.47-0.97c-0.13-0.13-0.29-0.23-0.45-0.32
		l-0.23-0.14c-0.07-0.05-0.14-0.11-0.21-0.16c-0.28-0.22-0.56-0.45-0.84-0.72l0,0c-0.01-0.01-0.01-0.03,0-0.04
		c0.01-0.01,0.01-0.01,0.02-0.01c0.4,0.03,0.76,0.19,1.09,0.4c0.16,0.11,0.31,0.24,0.42,0.4c0.12,0.15,0.22,0.33,0.33,0.48
		c0.05,0.08,0.11,0.15,0.18,0.22c0.06,0.07,0.12,0.15,0.18,0.22c0.07,0.07,0.13,0.15,0.18,0.23c0.06,0.08,0.13,0.15,0.17,0.25
		c0.05,0.09,0.09,0.18,0.13,0.27c0.04,0.09,0.06,0.19,0.09,0.29c0.07,0.19,0.08,0.4,0.09,0.6l0.03,0.31L75.2,47.6z"/>
	<path class="st0" d="M64.11,68.7c-0.15-0.47-0.31-0.95-0.44-1.43c-0.1-0.37-0.19-0.74-0.26-1.12c-0.02-0.1-0.03-0.2-0.04-0.29
		c-0.11-0.13-0.21-0.27-0.31-0.42c-0.16-0.24-0.29-0.5-0.41-0.77c-0.27-0.06-0.55-0.12-0.82-0.17c-0.15,0.56-0.19,1.15-0.22,1.73
		c-0.03,0.63-0.03,1.27-0.03,1.91l0.02,1.92l0.01,0.96c-0.01,0.32-0.01,0.65-0.04,0.99l0,0.06l-0.16,0.23
		c-0.02,0.03-0.04,0.05-0.07,0.07l-0.1,0.14c-0.07,0.09-0.13,0.21-0.2,0.32c-0.13,0.23-0.25,0.46-0.37,0.7
		c-0.24,0.48-0.47,0.98-0.7,1.47c-0.43,0.95-0.89,1.9-1.31,2.87c0.01,0.01,0.01,0.01,0.02,0.02c0.26,0.17,0.52,0.34,0.78,0.5
		c0,0,0,0,0,0c0.21-0.47,0.41-0.95,0.6-1.43c0.2-0.53,0.39-1.06,0.59-1.59c0.2-0.53,0.41-1.05,0.64-1.57
		c0.12-0.26,0.24-0.51,0.37-0.76c0.14-0.25,0.26-0.5,0.44-0.77l0.03-0.04l0.04-0.03c0.24-0.18,0.46-0.43,0.64-0.7
		c0.19-0.27,0.36-0.56,0.52-0.87c0.16-0.3,0.3-0.62,0.43-0.94c0.07-0.16,0.13-0.32,0.19-0.49l0.08-0.25
		c0.01-0.04,0.03-0.08,0.04-0.12c0-0.02,0.01-0.04,0.01-0.06c0-0.01,0-0.02,0-0.03l0-0.01c0-0.01,0.01,0.02,0.02,0.01
		c-0.02-0.01-0.03-0.03-0.02-0.05C64.1,68.71,64.11,68.71,64.11,68.7z"/>
	<path class="st0" d="M78.47,45.4c0.19,0.26,0.36,0.52,0.52,0.79c0.28,0.48,0.54,0.97,0.73,1.5c0.19,0.05,0.37,0.12,0.55,0.2
		c-0.17-0.42-0.34-0.83-0.51-1.24c-0.18-0.41-0.36-0.82-0.56-1.22c-0.2-0.4-0.41-0.79-0.65-1.16c-0.08-0.12-0.16-0.23-0.24-0.34
		c0.03,0.15,0.05,0.31,0.07,0.46C78.43,44.73,78.45,45.06,78.47,45.4z"/>
	<path class="st0" d="M118.6,84.55c0.23,0.31,0.44,0.63,0.64,0.96c0.34,0.58,0.66,1.18,0.88,1.82c0.23,0.06,0.45,0.14,0.67,0.24
		c-0.2-0.51-0.41-1.01-0.62-1.51c-0.22-0.5-0.44-1-0.68-1.48c-0.25-0.48-0.5-0.96-0.79-1.4c-0.09-0.14-0.19-0.28-0.29-0.41
		c0.03,0.19,0.06,0.38,0.09,0.56C118.54,83.72,118.57,84.13,118.6,84.55z"/>
	<path class="st0" d="M36.57,54.91c-0.05,0.15-0.1,0.3-0.15,0.44c-0.06,0.22-0.12,0.43-0.15,0.64c-0.03,0.21-0.05,0.41-0.04,0.6
		c0.05,0.38,0.13,0.77,0.29,1.13c0.16,0.37,0.39,0.72,0.64,1.04c0.26,0.32,0.56,0.62,0.89,0.89c0.26,0.2,0.53,0.39,0.81,0.56
		c-0.04-0.06-0.07-0.11-0.11-0.17c-0.35-0.57-0.66-1.15-0.95-1.74c-0.29-0.6-0.55-1.2-0.78-1.82c-0.12-0.31-0.23-0.63-0.32-0.95
		c-0.05-0.16-0.09-0.33-0.13-0.5L36.57,54.91z"/>
	<path class="st0" d="M53.86,78.9c0.01-0.02,0.02-0.03,0.04-0.05c-0.32-0.82-0.65-1.64-1.01-2.44c-0.39-0.89-0.83-1.75-1.28-2.61
		l-0.68-1.28c-0.24-0.42-0.45-0.87-0.7-1.21c-0.15-0.22-0.29-0.45-0.39-0.7c-0.1-0.25-0.17-0.5-0.22-0.76
		c-0.1-0.51-0.11-1.02-0.09-1.52l0-0.05l0.01-0.04c0.25-0.73,0.5-1.45,0.77-2.17c0.27-0.72,0.55-1.44,0.85-2.14
		c0-0.01,0.01-0.01,0.01-0.01c0,0-0.01,0-0.01,0c-0.33-0.11-0.65-0.24-0.97-0.36c-0.57-0.23-1.14-0.48-1.7-0.77
		c-0.31,0.54-0.69,1.05-1.13,1.5c-0.02,0.02-0.05,0.04-0.07,0.06c0.08,1.34,0.17,2.69,0.03,4.06c-0.01,0.13,0.01,0.26,0.05,0.38
		c0.02,0.06,0.05,0.12,0.08,0.17l0.14,0.22l0.55,0.88c0.37,0.59,0.73,1.18,1.09,1.78c0.72,1.19,1.4,2.4,2.08,3.61
		c0.66,1.17,1.31,2.34,1.93,3.53L53.86,78.9z"/>
	<path class="st0" d="M48.21,24.08C48.21,10.8,37.4,0,24.11,0C10.81,0,0,10.8,0,24.08c0,13.28,10.81,24.08,24.11,24.08
		C37.4,48.15,48.21,37.35,48.21,24.08z M24.11,46.71c-12.5,0-22.67-10.16-22.67-22.64S11.61,1.44,24.11,1.44
		s22.67,10.16,22.67,22.64S36.6,46.71,24.11,46.71z"/>
	<polygon class="st0" points="38.21,79.89 38.84,81.14 39.97,81.1 39.16,79.81 	"/>
	<polygon class="st0" points="53.09,79.4 53.73,80.65 54.86,80.62 54.05,79.33 	"/>
	<polygon class="st0" points="68.82,80.55 68.01,79.26 67.05,79.33 67.69,80.58 	"/>
	<polygon class="st0" points="104.72,125.65 105.15,127.36 106.7,127.27 106.03,125.33 	"/>
	<polygon class="st0" points="87.8,125.77 88.23,127.48 89.78,127.39 89.11,125.44 	"/>
	<polygon class="st0" points="69.74,126.29 70.17,128 71.73,127.92 71.05,125.97 	"/>
	<polygon class="st0" points="93.46,125.82 94.6,126.87 95.52,125.03 94.38,124.33 	"/>
	<polygon class="st0" points="58.07,79.41 58.84,80.24 59.27,78.79 58.55,78.23 	"/>
	<polygon class="st0" points="29.54,36.61 29.79,37.5 30.62,37.45 30.26,36.45 	"/>
	<polygon class="st0" points="22.85,36.59 23.41,37.14 23.86,36.1 23.33,35.75 	"/>
	<path class="st0" d="M19.34,36.6l0.4,0.9h0.88c0,0-0.54-1-0.56-1C20.06,36.49,19.34,36.6,19.34,36.6z"/>
	<polygon class="st0" points="8.57,36.9 8.98,37.82 9.81,37.82 9.26,36.86 	"/>
</g>
</svg>
