<?xml version="1.0" encoding="utf-8"?>
<!-- Generator: Adobe Illustrator 24.1.2, SVG Export Plug-In . SVG Version: 6.00 Build 0)  -->
<svg version="1.1" id="Layer_1" xmlns="http://www.w3.org/2000/svg" xmlns:xlink="http://www.w3.org/1999/xlink" x="0px" y="0px"
	 viewBox="0 0 128 128" style="enable-background:new 0 0 128 128;" xml:space="preserve">
<style type="text/css">
	.st0{fill:#2D2D2D;}
</style>
<g>
	<path class="st0" d="M119.72,45.11c-4.56,0.39-9.06,1.2-13.36,2.51c-4.3,1.3-8.39,3.23-11.81,5.98c-3.1,2.47-5.5,5.7-7.12,9.31
		c0,2.51,0,5.01-0.02,7.51c1.28-3.71,3.23-7.26,5.85-10.35c3.12-3.72,7.11-6.8,11.55-8.99c2.23-1.08,4.55-1.97,6.91-2.72
		c2.36-0.74,4.76-1.33,7.17-1.87c3.01-0.68,6.05-1.22,9.1-1.71C125.23,44.77,122.46,44.89,119.72,45.11z"/>
	<path class="st0" d="M66.39,110.06c-0.1,0.03-0.21,0.05-0.31,0.07c-0.71,0.14-1.42,0.21-2.13,0.21c-0.71,0-1.42-0.07-2.13-0.21
		c-0.57-0.12-1.14-0.29-1.71-0.55c-0.07,6.14-0.04,12.27,0.1,18.41l6.51-0.12c-0.09-3.5-0.18-7-0.22-10.5
		C66.45,114.93,66.42,112.49,66.39,110.06z"/>
	<path class="st0" d="M85.37,75.15c0-0.04,0-0.09,0-0.13c-0.78,0.23-1.56,0.49-2.32,0.77c-2.83,1.05-5.5,2.44-7.85,4.18
		c-2.36,1.72-4.36,3.87-5.84,6.35c-0.33,0.54-0.62,1.1-0.9,1.67c0,1.77,0,3.55-0.01,5.32c0.2-0.75,0.42-1.5,0.68-2.24
		c0.26-0.78,0.59-1.54,0.91-2.3c0.36-0.75,0.73-1.49,1.15-2.21c0.83-1.45,1.84-2.81,2.99-4.04c2.33-2.48,5.25-4.33,8.21-5.92
		C83.37,76.08,84.37,75.61,85.37,75.15z"/>
	<path class="st0" d="M66.25,84.14c0-0.73,0.01-1.47,0.02-2.2c-0.2,0.05-0.39,0.1-0.59,0.14c-0.74,0.14-1.48,0.21-2.22,0.21
		c-0.74,0-1.48-0.07-2.22-0.21c-0.19-0.04-0.37-0.08-0.56-0.13c0,1.43-0.01,2.86-0.03,4.29c-0.1,7.03-0.37,14.06-0.51,21.09
		c-0.01,0.6-0.01,1.21-0.02,1.81c0.57-0.27,1.13-0.43,1.7-0.55c0.71-0.14,1.42-0.21,2.13-0.21c0.71,0,1.42,0.07,2.13,0.21
		c0.1,0.02,0.2,0.05,0.3,0.07c-0.01-0.79-0.02-1.59-0.02-2.38l-0.1-11.07c0-0.22,0-0.44,0-0.66c-0.01,0-0.02,0.01-0.04,0.01
		c-0.05-0.01-0.08-0.05-0.09-0.09c-0.03-0.95,0.01-1.91,0.11-2.87C66.24,89.11,66.23,86.63,66.25,84.14z"/>
	<path class="st0" d="M82.66,68.27c-0.69,0-1.39-0.07-2.08-0.21c-0.52-0.11-1.04,0.01-1.56-0.23c0.05,2.59,0.11,4.89,0.16,7.41
		c1.04-0.45,2.11-0.85,3.19-1.19c0.98-0.31,1.98-0.57,2.98-0.8c-0.02-1.78-0.03-3.57-0.03-5.35c-0.19,0.05-0.39,0.1-0.58,0.15
		C84.04,68.2,83.35,68.26,82.66,68.27z"/>
	<path class="st0" d="M80.54,94.57c0.7-0.14,1.41-0.21,2.11-0.21c0.7,0,1.41,0.07,2.11,0.21c0.29,0.06,0.57,0.14,0.86,0.23
		l-0.09-5.88l-0.1-6.51l-0.06-6.48c0-0.04,0-0.08,0-0.12c-0.9,0.4-1.78,0.84-2.63,1.33c-1.24,0.72-2.39,1.55-3.45,2.47
		c0.09,4.96,0.12,10.16,0.11,15.28C79.78,94.76,80.16,94.65,80.54,94.57z"/>
	<path class="st0" d="M102.28,100.66c-1.58,0.09-3.15,0.31-4.69,0.71c-1.54,0.38-3.03,0.95-4.43,1.68c-1.4,0.72-2.71,1.63-3.8,2.67
		l-0.65,0.62l0-0.88c0-0.74,0.13-1.4,0.32-2.07c0.2-0.67,0.45-1.32,0.79-1.94c0.32-0.54,0.66-1.07,1.08-1.56
		c-0.16,0.07-0.32,0.14-0.48,0.21c-0.82,0.43-1.56,0.99-2.19,1.67c-0.48,0.54-0.89,1.15-1.22,1.8l-0.11,5.35
		c1.77-0.33,3.48-0.85,5.16-1.45c1.76-0.65,3.48-1.35,5.17-2.13c1.69-0.78,3.34-1.62,4.93-2.54c1.14-0.68,2.27-1.38,3.31-2.17
		C104.39,100.6,103.34,100.59,102.28,100.66z"/>
	<path class="st0" d="M85.64,95.87c-0.29,0.09-0.58,0.17-0.87,0.23c-0.7,0.14-1.41,0.21-2.11,0.21c-0.7,0-1.41-0.07-2.11-0.21
		c-0.38-0.08-0.76-0.18-1.14-0.32c-0.01,2.48-0.02,4.95-0.04,7.35c-0.07,8.29-0.18,16.58-0.39,24.86l6.7-0.29l0.32-12.6l-0.26-13.14
		L85.64,95.87z"/>
	<path class="st0" d="M80.58,66.52c0.69-0.14,1.39-0.21,2.08-0.21c0.69,0,1.39,0.07,2.08,0.21c0.19,0.04,0.39,0.09,0.58,0.15
		c-0.01-5.53,0-11.05,0.04-16.58l0.08-12.93l0.15-11.9l-6.58,2.34c-0.16,8.31-0.26,16.63-0.21,24.94c0.02,4.71,0.11,9.62,0.21,14.48
		C79.53,66.78,80.06,66.64,80.58,66.52z"/>
	<path class="st0" d="M63.73,54.24c-0.68,0-1.35-0.07-2.03-0.21c-0.49-0.11-0.97-0.25-1.46-0.47c0.13,3.86,0.23,7.73,0.29,11.59
		c0.05,3.52,0.11,7.03,0.12,10.55c0.01,1.66,0.02,3.32,0.02,4.98c0.18-0.05,0.37-0.09,0.55-0.13c0.74-0.14,1.48-0.21,2.22-0.21
		c0.74,0,1.48,0.07,2.22,0.21c0.2,0.04,0.4,0.09,0.6,0.14c0.05-6.23,0.17-12.46,0.27-18.69c0.06-2.75,0.13-5.5,0.21-8.25
		c-0.33,0.12-0.66,0.21-1,0.28C65.08,54.18,64.41,54.24,63.73,54.24z"/>
	<path class="st0" d="M49.16,95.6c-0.42,0.11-0.84,0.19-1.26,0.25c-0.7,0.1-1.39,0.14-2.09,0.14c-0.7,0-1.39-0.05-2.09-0.14
		c-0.37-0.05-0.73-0.12-1.1-0.21c0.01,3.63-0.01,7.26-0.04,10.89c-0.07,7.16-0.18,14.31-0.39,21.47l7.11-0.12l0.29-10.86
		l-0.26-11.23L49.16,95.6z"/>
	<path class="st0" d="M42.62,95.04c0.37-0.09,0.73-0.15,1.1-0.21c0.7-0.1,1.39-0.14,2.09-0.14c0.7,0,1.39,0.04,2.09,0.14
		c0.42,0.06,0.83,0.14,1.25,0.25l-0.01-0.42l-0.1-5.55l-0.06-5.53c-0.07-5.31-0.08-10.59-0.05-15.87c-0.18,0.03-0.36,0.06-0.54,0.08
		c-0.73,0.09-1.46,0.14-2.19,0.14c-0.73,0-1.46-0.04-2.19-0.14c-0.64-0.09-1.29-0.21-1.93-0.43c0.09,5.75,0.27,11.51,0.39,17.26
		C42.56,88.1,42.61,91.57,42.62,95.04z"/>
	<path class="st0" d="M38.26,51.22c-1.2-0.99-2.46-1.89-3.77-2.72c-1.72-1.09-3.53-2.03-5.37-2.91c-1.85-0.85-3.74-1.64-5.67-2.34
		c-0.96-0.34-1.93-0.67-2.91-0.99c0.91,1.11,1.88,2.2,2.88,3.23c1.68,1.78,3.49,3.45,5.38,5.04c1.9,1.58,3.89,3.06,6,4.4
		c2.08,1.36,4.29,2.23,6.58,3.32c0-0.44,0-0.57,0-1.01C40.43,55.19,39.4,53.17,38.26,51.22z"/>
	<path class="st0" d="M35.63,44.63c2.63,3.55,4.48,7.53,5.75,11.63c-0.01-2.73-0.04-5.47-0.08-8.2c-1.61-3.68-3.82-7.08-6.75-9.82
		c-3.26-3.09-7.28-5.36-11.61-6.85c-4.33-1.51-8.93-2.38-13.6-2.72C6.24,28.46,3.11,28.42,0,28.58c0.9,0.12,1.79,0.23,2.69,0.35
		c2.49,0.33,4.98,0.7,7.45,1.18c2.47,0.48,4.93,1.05,7.34,1.8c2.41,0.76,4.76,1.72,7,2.91C28.94,37.21,32.74,40.67,35.63,44.63z"/>
	<path class="st0" d="M46.2,66.64c0.73,0,1.46,0.05,2.19,0.14c0.18,0.03,0.36,0.05,0.54,0.09c0.01-1.77,0.02-3.54,0.03-5.31
		l0.08-11.01l0.15-10.2l-6.97,0.94c-0.16,7.15-0.26,14.3-0.21,21.46c0.01,1.49,0.03,2.69,0.05,4.18c0.71,0,1.29-0.05,1.93-0.14
		C44.74,66.68,45.47,66.64,46.2,66.64z"/>
	<path class="st0" d="M66.22,9.49l-0.61-5.57C65.48,2.61,65.33,1.32,65.27,0c-1.48,2.29-2.5,4.85-3.14,7.5
		c-0.81,3.22-1.03,6.55-1.02,9.87c0.04,3.32,0.42,6.63,0.95,9.92c0.26,1.64,0.55,3.28,0.85,4.92c0.3,1.65,0.6,3.28,0.76,4.99
		l0.41,4.29l-1.6-4.05c-0.33-0.84-0.94-1.62-1.64-2.32c-0.7-0.7-1.5-1.33-2.35-1.9c-0.85-0.57-1.75-1.07-2.69-1.5
		c-0.34-0.15-0.7-0.3-1.05-0.43c0.47,0.56,0.91,1.13,1.32,1.73c0.77,1.13,1.43,2.31,1.98,3.54c1.07,2.36,1.8,7.47,1.8,7.5
		c0.15,2.98,0.27,5.95,0.37,8.92c0.49-0.22,0.98-0.37,1.48-0.48c0.68-0.14,1.35-0.21,2.03-0.21c0.68,0,1.35,0.07,2.03,0.21
		c0.34,0.08,0.68,0.17,1.02,0.29c0.12-4.1,0.26-8.21,0.44-12.31c-0.31,0.76-0.69,1.5-1.18,2.17c-0.02,0.03-0.06,0.04-0.1,0.02
		c-0.03-0.02-0.04-0.06-0.02-0.09c0.94-1.63,1.34-3.47,1.6-5.3c0.26-1.83,0.35-3.69,0.36-5.54c0.05-3.71-0.21-7.42-0.53-11.13
		C67.03,16.9,66.61,13.2,66.22,9.49z"/>
	<path class="st0" d="M35.86,68.53c-2.22-1.23-4.63-2.09-7.13-2.64c-2.5-0.57-5.08-0.89-7.69-1c-0.85-0.03-1.7-0.03-2.55-0.02
		c1.1,0.18,2.21,0.38,3.3,0.62c2.86,0.62,5.76,1.37,8.42,2.7c2.66,1.32,4.99,3.17,6.98,5.24c1.49,1.56,2.8,3.25,3.9,5.05
		c0.05-1.9,0.09-3.8,0.14-5.71C39.65,71.08,37.85,69.64,35.86,68.53z"/>
</g>
</svg>
