<?xml version="1.0" encoding="utf-8"?>
<!-- Generator: Adobe Illustrator 24.1.2, SVG Export Plug-In . SVG Version: 6.00 Build 0)  -->
<svg version="1.1" id="Layer_1" xmlns="http://www.w3.org/2000/svg" xmlns:xlink="http://www.w3.org/1999/xlink" x="0px" y="0px"
	 viewBox="0 0 128 128" style="enable-background:new 0 0 128 128;" xml:space="preserve">
<style type="text/css">
	.st0{fill:#2D2D2D;}
</style>
<g>
	<polygon class="st0" points="56.5,123.6 57,124.9 62.4,124.9 60.1,122.3 	"/>
	<path class="st0" d="M66.1,96.6c-0.2-0.4-0.6-1-0.9-1.8c-1.2,0.4-2.8,0.9-4.8,1.3c0.4,1.5,1.2,5.7,0.1,8.1
		c-1.1,2.1-4.3,10.4-5.6,14h0c0.2-0.1,0.5,0,0.7,0.1c0.2,0.1,0.3,0.4,0.4,0.6l0.3,3.3l3.3-1.4c0.1-1.7,0.8-6.8,4.1-12.7
		c0.2-0.4,0.6-1,0.9-1.6c0.9-1.5,2.1-3.5,3-5.3c0-0.1-0.1-0.2-0.1-0.3C67,99.1,66.4,97.1,66.1,96.6z"/>
	<polygon class="st0" points="75.3,126.8 75.8,128 81.2,128 78.9,125.6 	"/>
	<path class="st0" d="M127.8,86.2c-0.1-0.3-0.2-0.5-0.3-0.8l-0.2-0.4l-0.2-0.4l0,0l0-0.1c-0.4-1.2-1-2.3-1.7-3.4
		c-0.8-1-1.7-1.9-2.8-2.7c-0.5-0.4-1.1-0.7-1.6-1c-0.1-0.1-0.3-0.1-0.4-0.2l-0.5-0.2c-0.4-0.2-0.7-0.4-1-0.6c-0.6-0.5-1.1-1-1.6-1.6
		c-0.2-0.3-0.4-0.6-0.6-0.9c0,0-0.1-0.1-0.1-0.1c-0.1,0.2-0.3,0.4-0.4,0.6l-0.2,0.2c-0.4,0.5-0.8,1-1.3,1.6c0.1,0,0.2,0,0.3,0
		c0.9,0,1.6,0.7,1.6,1.6c0,0.1,0,0.2,0,0.3l0.7,0.7l0.8,0.8l0.4,0.4l0.2,0.2c0.1,0.1,0.2,0.1,0.2,0.3c-0.2,0.1-0.2,0-0.3,0l-0.3-0.1
		l-0.5-0.2c-0.4-0.2-0.7-0.3-1.1-0.5l-0.8-0.4c-0.3,0.2-0.5,0.3-0.9,0.3c-0.9,0-1.6-0.7-1.6-1.6c0-0.1,0-0.2,0-0.3
		c-0.5,0.5-1.1,0.9-1.7,1.3c-3.4,2.2-5.9,3.4-7.8,3.9c0,0.5,0,1-0.2,1.5c-0.1,0.3-0.4,0.6-0.7,0.8c-0.4,0.2-0.8,0.2-1.1,0.2
		c-0.1,0-0.2,0-0.3,0c-0.1,0-0.2,0-0.2,0c-0.1,0-0.2,0-0.3,0c-0.2,0.1-0.4,0.2-0.7,0.3c-0.4,0.3-0.8,0.7-1.1,1.1
		c-0.1,0.1-0.2,0.2-0.3,0.2l-0.1,0c-0.7,0.2-1.6,0.3-2.4,0.2c-0.8-0.1-1.6-0.3-2.4-0.7c-0.7-0.3-1.4-0.8-2-1.2
		c-0.3-0.2-0.6-0.5-0.9-0.7c-0.3-0.3-0.6-0.5-0.8-0.8l0,0c-0.3-0.3-0.3-0.8,0-1.2c0.2-0.2,0.4-0.3,0.7-0.2c0.5,0.1,1,0.1,1.5,0.1
		c0.5,0,1,0,1.5,0c0.3,0,0.6-0.1,0.9-0.1c-1.3-0.6-2.5-1.5-3.5-2.9c-1.1-1.6-2.1-4.2-0.9-8c0.8-2.3,1.7-6.9,1.7-8.2
		c0-0.4,0.3-0.8,0.7-0.9c0.4-0.1,0.8,0.2,1,0.5c0.1,0.2,1.5,4.2,1.4,9.4c0,1,0.2,3.5,1.4,4.8c3.7-2.8,4.8-8.1,5.1-10.3
		c0.2-1.1,0.5-2.2,1-3.1c-0.1,0-0.1-0.1-0.1-0.2c-4.4-6.8-8.5-7.2-12.2-7.5l-0.4,0c-2-0.2-8.7-1.1-10.9-1.8
		c-15.2-4.9-34.9-2.3-44.1,0c-2.3,0.6-4.7,0.6-7,0.2c-3.9-0.7-6.5,0.1-9.1,1.5c-2.8,1.4-9.2,9.2-11.4,12c0,0-0.1,0.1-0.1,0.1l0-0.1
		c-0.7,0.5-1.2,1.1-1.8,1.7c-0.8,1-1.6,2-2.2,3.1c-0.7,1.1-1.3,2.2-1.8,3.4c-0.5,1.2-0.8,2.5-1,3.7c-0.3,2.6-0.2,5.1,0.1,7.6
		c0.1,1.3,0.3,2.5,0.4,3.8c0.1,0.9,0,3.4-0.1,3.4c-0.6,1.3-1,2.7-1.1,4c-0.1,1.6,0.3,3.1,1,4.4c0.1,0.2,0.2,0.3,0.3,0.5l0.3,0.6
		c0.2,0.5,0.4,0.9,0.5,1.5c0.2,1,0,2-0.2,2.8c-0.3,1-0.6,1.9-0.9,2.9c0.4-0.5,0.8-0.9,1.1-1.4c0.8-1.1,1.5-2.3,2.1-3.5l0,0
		c0,0,0.1-0.1,0.1-0.1L2,99.2c-0.1-0.3,0-0.6,0.1-0.8c0,0,0.5-0.7,1.5-2C3.7,96.3,4,95.9,4,95.9s-0.7-0.7-1.7-1.1
		c-0.1,0-0.2,0-0.4-0.1c-0.1,0,0.6-5.3,0.7-7.7c0.1-2.5,0.1-5,0.4-7.2c0.1-0.6,0.2-1.1,0.3-1.6c0.1-0.5,0.3-1,0.4-1.5
		C3.9,76.1,5,74.4,6,72.9c0,0.7,0.1,1.4,0.3,2.2c0.3,1.4,0.6,2.9,1,4.5c0.3,1.3,0.5,2.4,0.8,3.5l1.1,6.6c0,0.9-0.1,1.6-0.3,2
		c-0.8,1.5-4.1,5.9-5.1,7.3l7.9,23.5l0.6-0.4c0.2-0.2,0.5-0.2,0.8-0.1c0.3,0.1,0.5,0.3,0.5,0.5l1,3l2.4-1.5l-5.2-12.9
		c-1.7-4.9,0.3-8.3,1-9.4c0.1-0.1,0.1-0.2,0.2-0.3c1-2.6,2.8-5,5-7c0.3-0.3,0.7-0.6,1-0.9c1.3-1.1,3-2.5,3.8-3.9
		c0.1-0.1,0.1-0.2,0.2-0.2c0,0,0,0,0,0c0,0,0,0,0.1,0l0,0c1.4-1.1,2.7-2.3,4-3.6c1.3-1.3,2.5-2.6,3.5-4.1c1.1-1.4,2-3,2.7-4.6
		c0.7-1.7,1.1-3.5,0.7-5.3c0.5,1.8,0.3,3.7-0.3,5.4c-0.6,1.8-1.4,3.4-2.4,5c-1,1.6-2.1,3-3.3,4.4c-0.9,1.1-1.9,2.1-2.9,3.1l8.4,4.8
		c1.1,0.5,2,0.6,3.8,0.7c15,1.3,24.4-1.3,27.2-2.2c-1-2.3-1.9-5.3-1.9-7.3c0-0.1,0-0.2,0.1-0.3c0.2-0.9,0.5-1.9,0.8-2.8
		c0.3-0.9,0.6-1.9,0.9-2.8c0.6-1.9,1.3-3.7,2.2-5.4c-0.6,1.9-1,3.8-1.3,5.7c-0.2,1-0.3,1.9-0.5,2.9c-0.1,0.9-0.3,1.9-0.4,2.9v0
		c0,0.1,0,0.1,0,0.2c0,1.9,1.1,5,2.1,7.2c0,0,0,0,0,0c0,0,0,0,0,0c0.4,1,0.8,1.8,1.1,2.2c0.4,0.7,0.9,2.2,1.6,4.8
		c0.8,2.8,1.8,6.3,2.9,8.3c0.5,1,0.8,2,0.9,3.1c0.2,2.9,0,7.5-0.1,9.7l0.4-0.1c0.2-0.1,0.5-0.1,0.7,0.1c0.2,0.1,0.4,0.3,0.4,0.6
		l0.6,3.4l3.1-1.1c-0.5-2.7-2.1-11.3-1.7-13.7c0-0.1,0-0.2,0.1-0.3c0.7-1.2,1.5-8.4,1.1-10.7c0-0.1,0-0.3,0-0.4c0,0,0.5-1.8,0.5-2.8
		c0-0.1,0-0.1,0-0.2c0-0.1,0-0.2,0.1-0.4c0,0,0-0.1,0-0.1l0,0c0.7-1.1,1.3-2.2,1.9-3.3c0.6-1.1,1.2-2.3,1.7-3.5
		c0.5-1.2,1-2.4,1.3-3.6c0.3-1.2,0.6-2.5,0.5-3.8c0.2,1.3,0.1,2.6-0.1,3.9c-0.2,1.3-0.5,2.6-0.9,3.8c-0.4,1.3-0.8,2.5-1.3,3.7
		c-0.2,0.4-0.3,0.7-0.5,1.1c3.3,1,12.3-1.5,15.6-2.6c0.1,0,0.2-0.1,0.4,0c4.7,0.5,7.9,0.1,9.9-0.2c0.1,0,0.1,0,0.2,0
		c-0.3-0.4-0.6-0.7-0.8-1.1c-0.3-0.5-0.6-1.1-0.8-1.6c-0.2-0.6-0.3-1.1-0.4-1.7c0.2,0.5,0.5,1.1,0.8,1.5c0.3,0.5,0.7,0.9,1.1,1.3
		c0.4,0.4,0.8,0.7,1.3,1c0.2,0.1,0.5,0.3,0.7,0.4c0.1,0.1,0.3,0.1,0.4,0.2c0,0,0.1,0,0.1,0c0.1,0,0.1,0,0.2,0.1c0,0,0,0,0,0
		c0.2,0,0.3,0.1,0.4,0.2c0.5,0.3,1.2,0.6,4.4,1.1c2.1,0.3,3.6-0.2,4.3-1.6c0.1-0.2,0.3-0.4,0.6-0.5c0.2-0.1,0.5,0,0.7,0.2
		c0.3,0.2,2.5,0.7,4.3,0.7c0.7,0,1.3-0.4,1.6-1.1l-0.6-0.1c-0.1,0-0.2,0-0.2,0l-0.5,0c-0.2,0-0.3,0-0.5-0.1c0,0,0,0,0,0l-1.9-0.2
		l0,0h0c-0.3-0.1-0.5-0.2-0.7-0.3l-0.7-0.3c-0.2-0.1-0.4-0.2-0.7-0.3c-0.2-0.1-0.4-0.2-0.6-0.4c0.3-0.1,0.5,0,0.7,0
		c0.2,0,0.5,0.1,0.7,0.1l0.7,0.1c0.2,0,0.5,0.1,0.6,0.1l0.2,0c0,0,0,0-0.1-0.1c-0.2-0.3-0.3-0.6-0.4-1c0-0.3,0-0.7,0.1-1
		c0.2-0.6,0.5-1.1,0.9-1.6c-0.3,0.5-0.5,1.1-0.5,1.7c0,0.3,0,0.6,0.1,0.8c0.1,0.2,0.2,0.5,0.4,0.7c0.3,0.3,0.7,0.5,1.1,0.5l1.2,0
		c0.3,0,0.5,0,0.8-0.1c0.5-0.1,1.1-0.3,1.4-0.5c0.4-0.3,0.6-0.6,0.7-1C128,87.2,128,86.7,127.8,86.2z M126,87.8
		c-0.6,0.1-0.6-0.5-0.7-1.1c-0.1-0.6-1.1-2-0.5-2.1c0.6-0.1,2,1.4,2.1,2C127,87.2,126.6,87.8,126,87.8z"/>
	<path class="st0" d="M30.1,123.5l0.6,1.3h5.4l-2.7-2.7C32.8,122.4,31.5,123,30.1,123.5z"/>
	<path class="st0" d="M25.3,105.6c0.8-4.4,4.7-8,6.8-9.6l-8.2-4.7c-0.5,0.8-1.2,1.5-1.9,2.2c0.4,1.6,0.4,5.2-2.4,8.7
		c-0.5,0.6-0.6,1.4-0.2,2c2.2,4,6.4,12.8,7.7,15.6l0.3-0.2c0.2-0.1,0.5-0.2,0.7-0.1c0.2,0.1,0.4,0.2,0.5,0.5
		c0.5,1.1,0.9,1.9,1.1,2.4c1-0.5,2-0.9,2.7-1.2C30.3,118.1,24.6,109.6,25.3,105.6z"/>
	<path class="st0" d="M97.5,82.9c-0.4,0-0.8-0.1-1.2-0.2c-0.1,0-0.1,0.1-0.2,0.1c-0.5,0.3-1,0.6-1.6,0.7c-0.4,0.1-0.8,0.2-1.3,0.3
		c0,0,0,0,0.1,0.1c0.5,0.4,1.1,0.8,1.7,1.1c0.6,0.3,1.2,0.5,1.8,0.6c0.3,0.1,0.6,0.1,0.9,0.1c0.3,0,0.5,0,0.8-0.1
		c0.4-0.4,0.9-0.8,1.4-1c0.3-0.1,0.7-0.3,1.1-0.3c0.2,0,0.4,0,0.6,0.1c0.1,0,0.2,0.1,0.2,0.1c0.1,0,0.1,0,0.2,0.1
		c0.5,0.2,0.9,0.1,1.3-0.4c0.3-0.3,0.4-0.8,0.5-1.2c-1.1,0.3-2,0.4-2.8,0.4c-0.9,0-1.6-0.1-2.3-0.2C98.4,83,98,82.9,97.5,82.9z"/>
	<path class="st0" d="M98.6,77.6C98.6,77.7,98.6,77.7,98.6,77.6C98.6,77.7,98.6,77.7,98.6,77.6c0.3,0.2,0.6,0.6,0.5,1
		c-0.1,0.5-0.5,0.8-0.9,0.8c-3.9-0.4-4.5-5.4-4.4-7.3c0-1.6-0.1-3.1-0.3-4.4c-0.3,1.6-0.7,3.1-1.1,4.2c-1,3.1-0.2,5.3,0.7,6.5
		c1.2,1.8,3.2,2.8,4.5,2.8c0.6,0,1.1,0.1,1.6,0.2c2.2,0.4,4.6,0.8,11.8-3.9c1.6-1.1,2.9-2.6,3.9-3.9l0.2-0.2
		c1.8-2.3,2.4-5.1,1.5-7.6c-0.9-2.4-3-4.1-5.7-4.7c-2.1-0.4-3.9,0.2-5.4,1.9c-0.9,1-1.5,2.3-1.7,3.8
		C103.4,69.1,102.2,74.3,98.6,77.6z"/>
	<polygon class="st0" points="14.9,126.9 15.4,128 20.2,128 17.7,125.3 	"/>
</g>
</svg>
