<?xml version="1.0" encoding="utf-8"?>
<!-- Generator: Adobe Illustrator 23.0.0, SVG Export Plug-In . SVG Version: 6.00 Build 0)  -->
<svg version="1.1" id="Layer_1" xmlns="http://www.w3.org/2000/svg" xmlns:xlink="http://www.w3.org/1999/xlink" x="0px" y="0px"
	 viewBox="0 0 128 128" style="enable-background:new 0 0 128 128;" xml:space="preserve">
<style type="text/css">
	.st0{fill:#2D2D2D;}
</style>
<g>
	<path class="st0" d="M70.1,98.5c-2,0.1-3.9,0.5-5.7,1.2l0,0c0,0.2-0.1,0.4-0.2,0.5c-3,3.2-6.4,11-6.6,13l0,0.4l-0.3,0.2
		c-0.3,0.3-1.2,1.7-2.7,4.8c-0.3,0.6-0.3,1.3,0,1.8l1,2c0.3,0.6,0.8,0.9,1.4,0.9c0,0,0,0,0,0c0.9,0,1.6,0,2.4,0
		c-0.2-0.2-0.4-0.4-0.6-0.6c-0.4-0.5-0.8-1-1.2-1.6c-0.3-0.6-0.5-1.2-0.7-1.8c0.3,0.5,0.7,1.1,1.1,1.5c0.4,0.4,0.9,0.8,1.4,1.2
		c0.5,0.3,1,0.6,1.6,0.8c0.5,0.2,1.1,0.4,1.6,0.5c0,0,0,0,0.1,0c-0.4-0.3-0.8-0.6-1.3-0.9c-1.3-0.9-1.8-2.5-1.4-4.1
		c0.5-1.6,0.9-2.8,1.2-3.6c0.6-1.6,2.7-3.7,4.6-5.6c0.5-0.5,1-1,1.4-1.4l0.1-0.1c4.8-3.8,7.1-6.9,7.9-7.9c0-0.1,0.1-0.1,0.1-0.1
		L74.8,99C73.3,98.6,71.7,98.5,70.1,98.5z"/>
	<path class="st0" d="M30,93.2c-1,1.2-2,2.4-3.1,3.6c-0.1,0.4-0.3,0.7-0.5,1.1c0.5,1.4,2.1,6.7-0.5,11.7l0,0.1
		c-0.1,1-0.1,1.2,0.4,1.5c0.8,0.5,1.6,1.6,2.5,2.7c0.6,0.9,1.4,1.9,1.9,2.2c1.2,0.7,5.1,3.5,5.8,4.2c1.6,1.6,2.8,2.8,3.8,3.8
		c0-0.1,0-0.1,0.1-0.2c0.1-0.4,0.2-0.9,0.2-1.4c0-0.5-0.1-0.9-0.2-1.4c-0.1-0.5-0.4-0.9-0.6-1.4c0.4,0.3,0.8,0.7,1,1.1
		c0.3,0.4,0.6,0.9,0.7,1.4c0.2,0.5,0.3,1.1,0.3,1.6c0,0.3,0,0.6,0,0.9c0,0.2,0,0.3,0,0.5c0.3,0.3,0.6,0.5,0.8,0.7
		c0.4-1.7,0.8-4.8-1.6-7c-0.4-0.3-0.8-0.7-1.2-1.1c-2.3-2-4.6-4.1-4.9-6.1c-0.2-1.4,0.6-5.2,1.8-9.9c0.4-1.5,0.7-2.8,0.8-3.6
		c-1.1-0.4-2.1-0.9-3.1-1.4C32.7,96.1,31.1,94.8,30,93.2z"/>
	<path class="st0" d="M1.7,82.4c-0.5-1.2-0.8-2.5-0.9-3.8l0-1l0-0.4c-0.3,1.1-0.5,2.2-0.6,3.3c-0.3,2.2-0.2,4.4,0.4,6.4
		c0.1,0.3,0.2,0.5,0.3,0.8l0.3,0.7c0.2,0.5,0.5,0.9,0.7,1.3c0-0.6,0.1-1.1,0.1-1.7c0.1-0.6,0.3-1.2,0.5-1.7c0.2-0.4,0.4-0.8,0.7-1.2
		c-0.2-0.3-0.4-0.7-0.6-1C2.2,83.6,1.9,83,1.7,82.4z"/>
	<path class="st0" d="M127.4,112.2c-0.3-1.3-0.7-2.6-1.1-3.9c-0.2-0.6-0.5-1.3-0.7-1.8c-0.1-0.3-0.3-0.6-0.4-0.8l-0.6-0.8
		c-0.8-1.1-1.6-2.2-2.5-3.3c-0.4-0.6-0.8-1.1-1.2-1.7c-0.2-0.3-0.4-0.6-0.6-0.9c-0.2-0.3-0.4-0.6-0.6-1.1l0,0l0,0
		c-0.2-0.8-0.2-1.6-0.3-2.4c-0.1-0.8-0.1-1.6,0-2.3c0-1.5,0.1-3.1,0.4-4.6c-0.1-1.9-0.4-3.8-0.9-5.6c-0.6-1.8-1.4-3.6-2.5-5.2
		c-2.2-3.2-5.2-5.7-8.1-8.3l-2.1-2c-0.7-0.6-1.4-1.2-2.2-1.8c-1.5-1.2-3.1-2.3-4.7-3.3c-2.7-1.7-5.4-3.3-8.2-4.9
		c1.2,1.2,2.4,2.5,3.5,3.8c1.4,1.8,2.8,3.6,3.9,5.6c0.5,1,1,2.1,1.4,3.1c0.4,1,0.9,2.1,1.3,3.1c0.4,1.1,0.8,2.1,1,3.3
		c0.2,1.1,0.3,2.3,0.1,3.4c0.1-1.1-0.1-2.2-0.4-3.3c-0.3-1.1-0.7-2.1-1.2-3.1c-0.5-1-1-2-1.5-3c-0.5-1-1-2-1.6-2.9
		c-1.2-1.8-2.6-3.5-4.1-5.1c-1.5-1.6-3.1-3.1-4.8-4.4l0,0c-0.4-0.3-9.8-0.9-14.5-1.4c-4.9-0.6-9.7-1.6-14.4-2.6
		c-4.8-1-9.5-2-14.3-2.5c-4.8-0.3-9.6-0.3-14.4,0.2c-4.8,0.5-9.6,1.6-14,3.8c-0.5,0.3-1.1,0.6-1.6,0.9c-0.5,0.3-1,0.7-1.5,1
		c-0.5,0.3-1,0.7-1.4,1.1l-0.7,0.6l-0.7,0.6c-1.8,1.6-3.3,3.5-4.6,5.5c-1.3,2-2.3,4.2-3,6.5c-0.4,1.1-0.6,2.3-0.8,3.5
		c-0.1,0.6-0.2,1.2-0.2,1.8l-0.1,0.9l0,0.9c0,1.1,0.2,2.3,0.6,3.4c0.4,1.1,0.9,2.2,1.5,3.3c1.1,1.9,5.1,4.5,5.5,5.7
		c0.1,0.4,3.4,8.9-0.9,14.3c-1.2,1.5-2.3,2.8-3.3,3.8c-0.6,0.6-0.9,1.5-0.7,2.3c0.4,2.3,1.4,6.8,2.9,10.1c0.5,1.2,1.9,4,3,6.2
		c0.2,0.3,0.5,0.5,0.8,0.5h4.2c-0.3-0.3-0.7-0.7-1-1c-0.9-1-1.6-2.1-2.3-3.2c0.9,0.9,1.9,1.8,2.9,2.4c0.5,0.3,1.1,0.7,1.6,0.9
		c0.3,0.1,0.5,0.3,0.8,0.4l0.4,0.2c0.1,0,0.2,0.1,0.3,0.1l0.1,0c0,0,0,0,0.1,0h2.9c-0.7-1.2-2.4-2.9-5.5-3.2c-1-0.1-1.9-0.6-2.5-1.5
		c-0.9-1.4-2.3-4.4-1.8-6.6c0.3-1.5,2.7-5.9,5.2-10.6c0.7-1.4,1.4-2.5,1.6-3l0.1-0.3l0.3-0.2c1.8-1,6.3-7,6.8-7.5
		c1.1-1,2.2-2.1,3.3-3.2c1.2-1.2,2.3-2.5,3.4-3.8c1.1-1.3,2.1-2.6,3.1-4c0.9-1.4,1.8-2.9,2.4-4.5c-0.4,1.7-1.2,3.2-2,4.8
		c-0.8,1.5-1.7,3-2.7,4.4c-1,1.4-2,2.8-3.1,4.1c0,0.1-0.1,0.1-0.1,0.2c2.9,2.7,6.7,3.9,10.4,4.7c2,0.4,4,0.8,5.9,1.1
		c2,0.3,4,0.6,5.9,0.8c2,0.2,4,0.3,5.9,0.1c0.5,0,1-0.1,1.4-0.2c0.2,0,0.5-0.1,0.7-0.1l0.7-0.2c0.5-0.1,0.9-0.3,1.3-0.5l0.8-0.3
		l0.8-0.2c2-0.6,4.1-0.8,6.2-0.9c1.5-0.1,2.7-0.2,4.1,0.5L71.4,92l-0.1-0.3l0.1-0.2l6-9.9l-4.9,10.1l4.2,7l0,0
		c0.1,0.1,0.1,0.3,0.1,0.4c0.6,1.6,5,13.1,5.8,17.3c0.4,1.5,1,2.9,1.4,3.9c0.7,1.6,1,3,1.3,4.9l0,0.3c0.1,0.6,0,1.1-0.1,1.6h4
		c-0.2-0.2-0.4-0.4-0.6-0.6c-0.4-0.5-0.8-1-1.2-1.6c-0.3-0.6-0.5-1.2-0.7-1.8c0.3,0.5,0.7,1.1,1.1,1.5c0.4,0.4,0.9,0.8,1.4,1.2
		c0.5,0.3,1,0.6,1.6,0.8c0.5,0.2,1,0.4,1.5,0.5h1.6c-2.3-1.4-3.7-2.4-4.3-3.1c-1.6-1.8-2.4-5.4-2.5-7.1c-0.2-2.2,0.5-15.6,0.9-17.5
		l0.1-0.4l0.3-0.2c0.9-0.6,2-1.2,2.5-1.5c0-0.2,0-0.3,0-0.5c0-0.3-0.1-0.7-0.2-1c-0.2-0.6-0.7-1.2-1.2-1.7c-0.5-0.5-1.2-0.8-1.9-1
		c-0.4-0.1-0.7-0.2-1.1-0.3l-1.1-0.2l1.1,0c0.4,0,0.8,0.1,1.1,0.1c0.8,0.2,1.5,0.4,2.2,0.8c0.7,0.4,1.3,1,1.7,1.8c0,0,0,0.1,0,0.1
		c0,0,0,0,0,0c0-0.8-0.1-1.5-0.3-2.2c-0.2-0.7-0.4-1.4-0.9-2.1c-0.4-0.6-1-1.1-1.7-1.5c0.7,0.2,1.4,0.7,1.9,1.2
		c0.5,0.6,0.9,1.3,1.2,2c0.3,0.7,0.5,1.5,0.7,2.3c0,0.2,0.1,0.5,0.1,0.7c0.1-0.1,0.2-0.3,0.3-0.4c0.3-0.5,0.6-1,0.8-1.5
		c0.2-0.5,0.3-1.1,0.3-1.7l0-0.4l-0.1-0.4c0-0.1,0-0.3-0.1-0.5c0-0.2,0-0.3-0.1-0.5c-0.1-1.3,0-2.6,0.2-3.9c0.2-1.3,0.4-2.6,0.8-3.8
		c-0.2,1.3-0.3,2.5-0.3,3.8c0,1.3,0,2.6,0.3,3.8c0,0.1,0.1,0.3,0.1,0.4l0.1,0.4l0.1,0.5l0.1,0.5c0.1,0.7,0,1.4-0.2,2.1
		c-0.2,0.7-0.4,1.4-0.8,2c-0.1,0.2-0.2,0.3-0.3,0.5c0.6,0,1.2,0.1,1.7,0.2c0.8-0.7,1.6-1.4,2.3-2.1c0.8-0.8,1.6-1.7,2.3-2.7
		c0.7-0.9,1.3-2,1.8-3c0.5-1.1,0.9-2.2,1.2-3.4c-0.2,1.2-0.4,2.4-0.8,3.6c-0.4,1.2-0.9,2.3-1.5,3.4c-0.6,1.1-1.3,2.1-2,3.1
		c-0.7,1-0.9,1.2-1.7,2.1l0,0c0.1,1,0.5,2.2,1.1,2.9c0.4,0.4,0.8,0.9,1.2,1.2c0.4,0.4,0.8,0.7,1.2,0.9l0.3,0.1l0.2,0.5
		c0,0.1,0.1,0.2,0.1,0.3l0.2,0.4l0.4,0.8l0.7,1.6c0.5,1.1,1.1,2.1,1.8,3.1c0.7,0.9,1.5,1.8,2.4,2.6c0.8,0.8,1.7,1.5,2.5,2.2
		c1.2,0.7,2.4,1.3,3.7,1.8l1.9,0.9c0.6,0.3,1.3,0.6,1.8,0.8l0.3,0.1l0.1,0.1c0.3,0.3,0.7,0.7,1,1c0.4,0.3,0.7,0.7,1.1,1
		c0.7,0.6,1.4,1.1,2.3,1.2c0.1-0.5,0.1-0.6,0.2-1.1c0-0.3,0-0.5,0-0.7l0-0.3l-0.1-0.4c-0.2-0.5-0.4-0.9-0.8-1.3
		c-0.6-0.8-1.5-1.6-2.4-2.1c1,0.4,1.9,1,2.7,1.8c0.4,0.4,0.8,0.8,1.1,1.4c0.1,0.1,0.1,0.3,0.2,0.4l0.1,0.5c0.1,0.3,0.1,0.6,0.1,0.9
		c0.1,1.2-0.1,2.3-0.2,3.4c-0.1,1-0.3,1.9-0.5,2.9c0,0,0,0,0,0c0.4-0.3,0.8-0.8,1.2-1.2c0.2-0.2,0.4-0.1,0.5,0.1
		c0.1,0.5,0.3,1.3,0.5,1.5c1.5-2,2.3-4.4,3.1-6.9c0.4-1.2,0.5-2.5,0.4-3.8C127.9,114.9,127.7,113.6,127.4,112.2z M117.4,103.1
		c0.3,0.2,0.4,0.5,0.5,0.8c0.1,0.1,0.1,0.1,0.2,0.2c0.2,0.4,0.5,0.7,0.6,1.1c0.4,0.8,0.5,1.6,0.6,2.3c-0.4-0.7-0.8-1.3-1.4-1.8
		c-0.1-0.1-0.3-0.3-0.5-0.4c-0.6,0.4-1.4,0.4-2-0.2c-0.7-0.6-0.8-1.6-0.2-2.2C115.7,102.5,116.7,102.5,117.4,103.1z M107.5,85.7
		l0,0.4c0,0.1,0,0.2,0.1,0.3c0.1,0.2,0.1,0.4,0.3,0.6c0.5,0.8,1.4,1.4,2.3,1.8l0.2,0.1l-0.1,0.2l-0.6,1.2c-0.2,0.4-0.4,0.8-0.5,1.2
		c0-0.2,0.1-0.4,0.1-0.7l0.2-0.6l0.3-1.1c-1-0.3-1.9-0.8-2.6-1.7c-0.2-0.2-0.3-0.5-0.4-0.8c-0.1-0.2-0.1-0.3-0.1-0.5
		c0-0.1,0-0.3-0.1-0.4c-0.1-0.6-0.1-1.1-0.1-1.7c0-1.1,0.1-2.2,0.5-3.4c0.2-0.6,0.4-1.1,0.8-1.6c0.4-0.5,0.9-1,1.5-1.2
		c0.6-0.2,1.3-0.3,1.9-0.1c0.6,0.1,1.3,0.5,1.7,1c0.4,0.5,0.7,1,0.9,1.6c0.2,0.6,0.3,1.1,0.4,1.7c0.1,0.6,0.1,1.1,0,1.8
		c-0.1,0.6-0.3,1.1-0.4,1.6c0,0,0,0.1,0,0.1c0.3,0.3,0.5,0.6,0.6,0.9c0.2,0.4,0.2,0.8,0.3,1.2c0.1,0.4,0.2,0.8,0.4,1.2
		c0.2,0.4,0.4,0.8,0.6,1.1c0,0,0,0.1,0,0.1c0,0,0,0-0.1,0c-0.4-0.2-0.8-0.5-1.1-0.8c-0.3-0.3-0.6-0.7-0.8-1.1
		c-0.2-0.3-0.4-0.6-0.5-0.9c-0.1,0.4-0.3,0.9-0.4,1.3c0.4,0.8,0.8,1.7,1.2,2.5c-0.6-0.8-1.2-1.6-1.8-2.4l-0.1-0.1l0-0.2l0.7-3.1
		c0.1-0.5,0.3-1.1,0.3-1.5c0-0.4,0-1-0.1-1.5c-0.1-1-0.5-2-1.1-2.6c-0.3-0.3-0.6-0.5-1-0.6c-0.4-0.1-0.9,0-1.2,0.1
		c-0.7,0.3-1.3,1.1-1.6,2c-0.3,0.9-0.5,2-0.6,3C107.5,84.6,107.5,85.2,107.5,85.7z M120.4,113C120.3,113,120.3,113,120.4,113
		L120.4,113c-0.6-0.9-1.2-1.6-1.9-2.2c-0.7-0.6-1.5-1.2-2.3-1.5c-0.2-0.1-0.4-0.2-0.6-0.2c-0.2-0.1-0.4-0.1-0.7-0.2
		c-0.2-0.1-0.4-0.1-0.7-0.2c-0.2,0-0.4-0.1-0.7-0.2c-0.2-0.1-0.4-0.1-0.7-0.2c-0.2-0.1-0.4-0.1-0.7-0.2c-0.5-0.1-0.9-0.2-1.4-0.4
		l0,0c0,0-0.1-0.1,0-0.1c0,0,0,0,0,0c0.5-0.2,1-0.3,1.5-0.4c0.5,0,1-0.1,1.5,0c1,0.1,2,0.6,2.8,1.1c0.9,0.5,1.6,1.2,2.3,2
		C119.5,111.1,120.1,112,120.4,113C120.4,113,120.4,113,120.4,113z"/>
	<path class="st0" d="M1.9,91.7C1.9,91.7,1.9,91.7,1.9,91.7C1.9,91.7,1.9,91.7,1.9,91.7C1.9,91.8,1.9,91.7,1.9,91.7L1.9,91.7z"/>
</g>
</svg>
