<?xml version="1.0" encoding="utf-8"?>
<!-- Generator: Adobe Illustrator 24.1.2, SVG Export Plug-In . SVG Version: 6.00 Build 0)  -->
<svg version="1.1" id="Layer_1" xmlns="http://www.w3.org/2000/svg" xmlns:xlink="http://www.w3.org/1999/xlink" x="0px" y="0px"
	 viewBox="0 0 128 128" style="enable-background:new 0 0 128 128;" xml:space="preserve">
<style type="text/css">
	.st0{fill:#2D2D2D;}
</style>
<g>
	<path class="st0" d="M50.59,87.4c-0.28-0.2-0.61-0.44-0.95-0.72c-0.09,0.32-0.2,0.69-0.29,1.01C49.77,87.6,50.18,87.5,50.59,87.4z"
		/>
	<path class="st0" d="M36.04,90.82c-0.05,0.19-0.11,0.4-0.17,0.61c0.23-0.07,0.46-0.14,0.68-0.21
		C36.38,91.09,36.21,90.96,36.04,90.82z"/>
	<path class="st0" d="M44.37,88.11c-0.08,0.28-0.17,0.61-0.26,0.9c0.36-0.09,0.72-0.19,1.07-0.28
		C44.94,88.55,44.66,88.34,44.37,88.11z"/>
	<path class="st0" d="M39.92,89.54c-0.06,0.22-0.13,0.47-0.2,0.7c0.27-0.08,0.54-0.16,0.81-0.23
		C40.34,89.87,40.13,89.71,39.92,89.54z"/>
	<path class="st0" d="M126.19,98.84c0.59-0.39,1.19-0.77,1.81-1.14c-0.18-0.2-0.37-0.4-0.55-0.61c-0.08,0.13-0.16,0.27-0.24,0.39
		C126.9,97.97,126.56,98.41,126.19,98.84z"/>
	<path class="st0" d="M55.86,72.21c1.19,1.12,2.33,2.31,3.36,3.61c1.02,1.3,1.96,2.7,2.62,4.26c0.33,0.78,0.56,1.61,0.65,2.46
		c0.08,0.72,0.01,1.47-0.25,2.14l0.36-0.08c1.1-0.29,2.2-0.63,3.27-1.02c0.99-0.35,1.97-0.74,2.92-1.18
		c-2.47-2.17-4.91-4.36-7.4-6.47c-2.66-2.26-5.37-4.43-8.17-6.41c-1.4-1-2.84-1.88-4.38-2.66c-0.62-0.31-1.26-0.59-1.91-0.85
		c1.83,0.84,3.57,1.87,5.17,3.06C53.41,70.05,54.68,71.08,55.86,72.21z"/>
	<path class="st0" d="M54.68,86.44c0.4-0.09,0.8-0.19,1.2-0.28l0.08-0.02c-0.28-0.2-0.63-0.46-0.99-0.74
		C54.89,85.73,54.78,86.12,54.68,86.44z"/>
	<path class="st0" d="M92.65,82.4c1.37,0.15,2.74,0.34,4.1,0.56c-0.38-0.81-0.68-1.63-0.97-2.45c-0.28-0.86-0.55-1.72-0.78-2.58
		c-0.23-0.86-0.46-1.72-0.63-2.59l-0.23-1.29c-0.03-0.18-0.06-0.35-0.1-0.52c-0.38,0.35-0.76,0.7-1.17,1.05
		c-0.31,0.27-0.69,0.49-1.1,0.63c-0.28,0.09-0.57,0.13-0.87,0.15c-0.06,0.16-0.13,0.3-0.2,0.43c-0.13,0.22-0.27,0.41-0.41,0.59
		c-0.3,0.36-0.62,0.69-0.98,0.99c-0.36,0.3-0.74,0.57-1.19,0.79c-0.25,0.11-0.51,0.22-0.82,0.29c-0.04,0.1-0.09,0.2-0.13,0.29
		c-0.15,0.27-0.33,0.49-0.51,0.68c-0.37,0.38-0.78,0.69-1.24,0.92c-0.45,0.23-0.95,0.4-1.48,0.46c-0.32,0.04-0.65,0.03-0.98-0.02
		c-0.16,0.14-0.32,0.26-0.49,0.38c-0.33,0.24-0.68,0.43-1.04,0.6c-0.09,0.04-0.19,0.08-0.29,0.12c1.22-0.04,2.44-0.05,3.65-0.01
		C87.43,81.91,90.04,82.11,92.65,82.4z"/>
	<path class="st0" d="M24.41,94.1c-0.12,0.43-0.28,0.97-0.4,1.38c0.52-0.15,1.03-0.33,1.54-0.52C25.22,94.73,24.82,94.43,24.41,94.1
		z"/>
	<path class="st0" d="M12.73,100.26c-0.24-0.11-0.49-0.24-0.73-0.48c-0.24-0.23-0.45-0.67-0.39-1.03c0.04-0.35,0.18-0.67,0.38-0.88
		c0.19-0.22,0.4-0.37,0.61-0.49c0.42-0.24,0.85-0.37,1.28-0.48c0.7-0.15,1.4-0.24,2.1-0.24c0.02-0.03,0.05-0.06,0.08-0.06
		c0.01,0,0.01,0,0.02,0c-0.59-1.05-1.19-2.09-1.81-3.11c-0.32-0.53-0.65-1.06-0.98-1.58c-0.32-0.53-0.65-1.05-0.99-1.57
		c-1.35-2.08-2.73-4.12-4.23-6.07C6.54,82.34,5,80.44,3.27,78.74C2.22,77.72,1.13,76.75,0,75.86l1.81,3.65l1.58,3.15l1.61,3.14
		c1.06,2.1,2.16,4.18,2.95,6.48c0.19,0.58,0.34,1.19,0.39,1.84c0.04,0.64,0.03,1.23,0,1.84l-0.11,1.76
		c-0.03,0.56,0.02,1.05,0.21,1.3l0.11,0.14l-0.02,0.33l-0.08,1.41c-0.04,0.5-0.1,1-0.18,1.49c-0.17,0.99-0.38,1.97-0.68,2.92
		c-0.56,1.92-1.39,3.72-2.29,5.46c-0.91,1.75-1.96,3.39-3.05,5c-0.37,0.54-0.76,1.07-1.15,1.59c0.84-0.4,1.63-0.86,2.38-1.44
		c1.73-1.3,3.22-3.01,4.61-4.81c1.38-1.83,2.78-3.7,4.11-5.58c1.27-1.79,2.55-3.58,3.8-5.38c-0.61,0.24-1.24,0.35-1.9,0.37
		C13.67,100.53,13.21,100.47,12.73,100.26z"/>
	<path class="st0" d="M119.22,99.41c0.2-0.03,0.37-0.11,0.51-0.18c0.27-0.15,0.45-0.14,0.88-0.17c0.2-0.03,0.44-0.1,0.62-0.27
		c0.18-0.16,0.28-0.4,0.28-0.64c0-0.24-0.11-0.47-0.29-0.63c-0.18-0.16-0.42-0.23-0.63-0.25c-0.21-0.02-0.38,0.01-0.51,0.01
		c-0.13,0-0.24,0.01-0.35,0.03c-0.21,0.04-0.43,0.03-0.67,0.16c-0.2,0.14-0.47,0.32-0.67,0.68c-0.2,0.36-0.12,0.88,0.23,1.13
		C118.79,99.41,119.02,99.44,119.22,99.41z"/>
	<path class="st0" d="M28.41,93.09c-0.08,0.29-0.18,0.63-0.27,0.93c0.33-0.12,0.67-0.25,1-0.36C28.92,93.48,28.67,93.29,28.41,93.09
		z"/>
	<path class="st0" d="M31.87,91.9c-0.08,0.29-0.18,0.62-0.27,0.92c0.34-0.11,0.68-0.23,1.02-0.34C32.39,92.3,32.13,92.11,31.87,91.9
		z"/>
	<path class="st0" d="M124.29,102.76c-0.37,0.05-0.73,0.11-1.11,0.16c-0.23,0.21-0.46,0.43-0.69,0.64c-0.56,0.5-1.16,0.96-1.74,1.44
		l-0.29,0.23l-0.18-0.23l-0.76-0.96c-0.25-0.33-0.51-0.63-0.74-1.01l-0.14-0.22l0.26-0.08c0.75-0.23,1.45-0.72,2.11-1.2
		c0.66-0.49,1.33-0.97,2.02-1.39c0.67-0.41,1.32-0.89,2-1.36c0.67-0.47,1.36-0.96,2.08-1.36c0.05-0.24,0.09-0.47,0.14-0.69
		c-0.67-0.45-1.35-0.88-2.04-1.28c-1.12-0.64-2.28-1.23-3.44-1.8c-2.32-1.15-4.73-2.1-7.13-3.08c-2.41-0.94-4.84-1.89-7.27-2.71
		c-2.41-0.84-4.89-1.48-7.39-2.04c-5.01-1.07-10.11-1.83-15.25-2.12c-1.28-0.09-2.57-0.15-3.84-0.16L77,83.49
		c-1.3-0.02-2.6-0.03-3.91-0.07c-1.27-0.05-2.51-0.05-3.84-0.28c-2.15,0.82-4.3,1.5-6.5,2.07c-2.26,0.5-4.47,1.07-6.67,1.72
		c-4.4,1.33-8.75,2.84-13.13,4.23c-4.39,1.37-8.81,2.62-13.21,3.92c-1.1,0.32-2.21,0.63-3.29,0.97c-0.41,0.14-0.85,0.26-1.28,0.37
		c0.96-0.06,1.92-0.13,2.87-0.2c2.02-0.15,4.03-0.38,6.04-0.62c2-0.25,4-0.6,6.02-0.89c2.01-0.28,4.03-0.52,6.05-0.73
		c4.05-0.37,8.11-0.58,12.17-0.51c1.01,0.03,2.03,0.07,3.04,0.15c1.02,0.08,2.02,0.19,3.03,0.23c2.02,0.11,4.05,0.13,6.07,0.12
		l12.16-0.12c2.03-0.02,4.06-0.05,6.09-0.03c1.02,0.02,2.03,0.03,3.06,0.09l1.51,0.09c0.5,0.01,1,0.01,1.5-0.01
		c2.01-0.07,4.02-0.3,6.05-0.44c2.02-0.14,4.08-0.27,6.13,0.07c3.66,0.88,7.27,1.78,10.97,2.3c0.46-0.48,1.11-0.8,1.81-0.77
		c0.38,0.02,0.76,0.12,1.08,0.32c0.32,0.2,0.57,0.51,0.71,0.85c0.14,0.34,0.18,0.69,0.19,1c0.01,0.31,0,0.58,0,0.84l-0.01,0.83
		c-0.01,0.3-0.05,0.65-0.19,0.98c-0.27,0.68-1.06,1.1-1.77,0.95c-0.73-0.14-1.21-0.73-1.55-1.18c-0.35-0.46-0.67-0.94-0.87-1.59
		c-0.26-0.71-0.01-1.53,0.52-2.14c-1.68-0.17-3.34-0.42-5-0.71c-1.99-0.35-4-0.83-5.96-1.22c-1.97-0.27-4-0.11-6.01,0.07
		c-2.01,0.19-4.03,0.44-6.08,0.52c-8.13-0.33-16.21-0.06-24.34-0.31c-2.03-0.06-4.06-0.14-6.08-0.28c-2.03-0.14-4.04-0.42-6.06-0.4
		c-4.05-0.05-8.09,0.35-12.11,0.84c-3.95,0.45-7.87,1.06-11.84,1.56c3.35-0.1,6.71-0.16,10.07-0.2c3.39-0.01,6.77,0.01,10.16,0.16
		c1.69,0.07,3.39,0.16,5.08,0.29c0.85,0.06,1.69,0.16,2.53,0.25c0.84,0.11,1.68,0.2,2.52,0.26c1.68,0.11,3.38,0.12,5.05-0.05
		c0.84-0.09,1.67-0.22,2.5-0.37c0.83-0.15,1.67-0.32,2.54-0.36c3.38-0.1,6.77-0.22,10.17-0.15c1.7,0.05,3.4,0.13,5.1,0.41
		c0.43,0.08,0.85,0.16,1.28,0.31c0.44,0.15,0.77,0.27,1.19,0.36c0.8,0.2,1.63,0.31,2.46,0.4c1.67,0.17,3.36,0.24,5.04,0.28
		c1.51,0.01,3.03,0.04,4.53-0.08c0.29-0.47,0.64-0.9,1.03-1.27c0.65-0.62,1.39-1.17,2.27-1.41c0.04-0.01,0.07,0.01,0.08,0.05
		c0.01,0.02,0,0.05-0.01,0.06l0,0.01c-0.56,0.68-1.07,1.34-1.56,2.01c-0.49,0.67-0.9,1.35-1.38,2.01c-0.47,0.66-0.89,1.44-0.89,2.28
		c-0.02,0.84,0.34,1.64,0.8,2.28l0.06,0.08l-0.02,0.27c-0.04,0.66,0.02,1.34,0.19,2.02c0.16,0.67,0.41,1.33,0.66,1.97
		c0.47,1.15,1.06,2.24,2,3.14c1.19-0.25,2.39-0.45,3.59-0.68c1.39-0.26,2.75-0.64,4.06-1.17c0.33-0.13,0.65-0.26,0.98-0.41
		l0.25-0.12c0,0,0,0,0,0c-0.42,0.09-0.85,0.12-1.27,0.14c-0.85,0.02-1.63-0.07-2.56-0.43c-0.44-0.17-0.88-0.48-1.16-0.9
		c-0.29-0.41-0.44-0.89-0.51-1.34c-0.07-0.45-0.1-0.88-0.15-1.34c-0.03-0.32-0.04-0.66,0-0.99c-0.16-0.22-0.26-0.49-0.3-0.74
		c-0.05-0.35-0.02-0.68,0.07-0.98c0.09-0.3,0.23-0.57,0.42-0.8c0.19-0.23,0.43-0.44,0.72-0.51c0.04-0.01,0.08,0.02,0.08,0.05
		c0,0.02,0,0.03,0,0.05l0,0.01c-0.11,0.25-0.16,0.47-0.19,0.71c-0.03,0.23-0.05,0.45-0.04,0.66c0.01,0.21,0.03,0.4,0.08,0.56
		c0.05,0.16,0.11,0.27,0.18,0.38l0.24,0.4l-0.11,0.23c-0.17,0.33-0.39,0.67-0.53,1.05c-0.15,0.37-0.17,0.79-0.05,1.16
		c0.11,0.38,0.39,0.66,0.69,0.82c0.31,0.15,0.61,0.26,0.95,0.33c0.34,0.08,0.68,0.08,1.1,0.12c0.4,0.04,0.8,0.11,1.19,0.19
		c0.78,0.15,1.55,0.37,2.35,0.58c0.46-0.24,0.9-0.5,1.34-0.78c1.17-0.77,2.35-1.55,3.51-2.36c1.15-0.82,2.29-1.66,3.43-2.48
		c0,0,0.01,0,0.01-0.01c-0.12,0.01-0.23,0.02-0.35,0.04L124.29,102.76z"/>
	<path class="st0" d="M119.86,103.71c0.19,0.19,0.4,0.37,0.6,0.55c0.41-0.52,0.81-1.04,1.24-1.53c0.28-0.32,0.56-0.63,0.85-0.95
		c-0.38,0.18-0.76,0.34-1.15,0.49c-0.71,0.25-1.4,0.51-2.12,0.75C119.45,103.26,119.64,103.5,119.86,103.71z"/>
	<path class="st0" d="M125.34,101.19c-0.41,0.31-0.82,0.61-1.24,0.9c-0.02,0.02-0.05,0.05-0.07,0.07l0.07-0.04
		c0.47-0.23,0.95-0.45,1.45-0.65c0.29-0.11,0.58-0.26,0.88-0.36c-0.34,0.01-0.68,0.02-1.02,0.02
		C125.38,101.15,125.36,101.17,125.34,101.19z"/>
	<path class="st0" d="M24.54,101.02c0.11-0.16,0.24-0.33,0.35-0.48c-0.25-0.05-0.51-0.1-0.77-0.14
		C24.26,100.59,24.4,100.79,24.54,101.02z"/>
	<path class="st0" d="M104.56,108.55c-0.37-0.73-0.59-1.53-0.69-2.35c-0.09-0.78-0.09-1.61,0.19-2.4c-0.25-0.83-0.33-1.67-0.32-2.49
		c0.02-0.9,0.08-1.84,0.38-2.73c0.1-0.31,0.24-0.6,0.41-0.88c-1.48,0.22-2.97,0.31-4.46,0.36c-1.7,0.06-3.4,0.04-5.1-0.08
		c-0.85-0.06-1.7-0.15-2.56-0.33c-0.41-0.08-0.88-0.25-1.25-0.37c-0.37-0.12-0.78-0.2-1.19-0.28c-1.64-0.26-3.33-0.32-5.01-0.38
		c-3.37-0.12-6.75-0.04-10.14-0.05c-0.82,0-1.65,0.13-2.49,0.25c-0.84,0.12-1.69,0.22-2.54,0.28c-1.7,0.1-3.4,0.08-5.09-0.06
		c-1.69-0.12-3.37-0.34-5.06-0.45c-1.69-0.09-3.38-0.12-5.07-0.14c-3.38-0.02-6.76,0-10.15,0.02l-16.54,0.09
		c-0.96,0.04-1.92,0.07-2.88,0.07c-0.31,0-0.62,0-0.94,0c-0.16,0.03-0.33,0.06-0.49,0.09c0.62,0.03,1.25,0.05,1.86,0.09l3.66,0.21
		c2.44,0.17,4.87,0.34,7.3,0.64c1.21,0.14,2.42,0.33,3.63,0.53c1.21,0.22,2.4,0.4,3.62,0.49c2.43,0.22,4.87,0.24,7.31,0.24
		c2.44-0.01,4.88-0.02,7.33,0.03c2.44,0.05,4.89,0.11,7.34,0.38c1.22,0.14,2.45,0.28,3.66,0.66c1.16,0.38,2.32,0.74,3.5,1.06
		c2.35,0.64,4.73,1.2,7.12,1.69c0.02,0,0.03,0.02,0.03,0.04c0,0.02-0.02,0.03-0.04,0.03c-2.43-0.27-4.85-0.69-7.24-1.24
		c-1.19-0.28-2.39-0.6-3.56-0.94c-1.14-0.31-2.35-0.47-3.55-0.59c-4.83-0.44-9.72-0.5-14.6-0.75l-7.32-0.35
		c-1.22-0.08-2.45-0.18-3.66-0.34c-1.21-0.14-2.42-0.24-3.64-0.37l-7.28-0.7l-3.64-0.37c-0.61-0.06-1.21-0.14-1.82-0.21
		c-0.28-0.04-0.56-0.07-0.84-0.11c-1.08,0.14-2.17,0.17-3.24,0.17c-1.06,0-2.12-0.06-3.18-0.19c-0.77,0.17-1.55,0.4-2.25,0.72
		c-0.37,0.16-0.73,0.35-1.01,0.57c-0.29,0.23-0.44,0.5-0.4,0.66c0.02,0.07,0.04,0.05,0.11,0.1c0.08,0.04,0.22,0.09,0.37,0.11
		l1.08,0.18c0.76,0.14,1.56,0.25,2.4,0.51c0.01-0.01,0.02-0.01,0.03-0.02c1.65-0.43,3.34-0.63,5.04-0.69
		c1.7-0.06,3.43,0.03,5.13,0.36c1.71,0.32,3.32,0.81,4.94,1.28c1.61,0.49,3.21,1.03,4.78,1.63c3.15,1.21,6.23,2.59,9.39,3.71
		c1.58,0.58,3.17,1.1,4.77,1.62c1.56,0.5,3.11,0.96,4.69,1.49c0.67,0.02,1.35-0.01,2.06-0.03c0.73-0.02,1.5,0.03,2.26,0.16
		c1.47,0.27,2.82,0.88,4.06,1.58c2.28,0.5,4.7,0.81,7.07,1.17c2.41,0.33,4.82,0.68,7.24,0.97c2.42,0.3,4.84,0.54,7.26,0.74
		c2.38,0.18,5.04,0.32,7.46,0.29c0.08-0.34,0.13-0.69,0.01-1.02l-0.01-0.02c-0.02-0.05,0.01-0.11,0.06-0.13
		c0.03-0.01,0.06-0.01,0.09,0.01c0.5,0.32,0.66,0.94,0.74,1.46c0.08,0.54,0.06,1.08,0,1.6c-0.03,0.26-0.08,0.51-0.13,0.77
		c-0.03,0.14-0.03,0.21-0.05,0.31c-0.01,0.09-0.02,0.19-0.02,0.29c-0.02,0.4,0,0.83,0.02,1.27c0.06,0.87,0.11,1.78,0.22,2.68
		c0.05,0.45,0.12,0.89,0.22,1.31c0.03,0.17,0.08,0.33,0.12,0.48c0.18-0.14,0.36-0.3,0.53-0.47c0.37-0.39,0.68-0.84,0.94-1.33
		c0.54-0.97,0.7-2.12,0.91-3.22c0.2-1.11,0.63-2.13,1.1-3.17c0.26-0.56,0.52-0.94,0.63-1.34c0.06-0.2,0.08-0.38,0.04-0.57
		c-0.04-0.19-0.19-0.4-0.4-0.56l-0.02-0.01c-0.05-0.03-0.06-0.1-0.02-0.15c0.02-0.02,0.04-0.04,0.07-0.04
		c0.32-0.04,0.68,0.06,0.96,0.32c0.22,0.2,0.36,0.48,0.43,0.77c2.62-0.74,5.24-1.33,7.86-1.93c-0.39-0.19-0.76-0.44-1.09-0.73
		C105.42,109.94,104.93,109.28,104.56,108.55z M101.13,101.07L101.13,101.07c-1.96-0.2-3.9-0.33-5.84-0.42
		c-1.94-0.09-3.88-0.13-5.82-0.18c-0.97-0.02-1.95-0.09-2.92-0.08l-1.47-0.01c-0.49,0.01-0.98,0.05-1.46,0.07
		c-0.98,0.06-1.94,0.21-2.91,0.36c-0.6,0.1-1.18,0.23-1.77,0.37c0.58,0.22,1.17,0.41,1.76,0.6c0.94,0.29,1.89,0.57,2.85,0.84
		c1.91,0.53,3.85,0.98,5.77,1.46c1.92,0.49,3.86,0.96,5.78,1.37c0.48,0.1,0.96,0.19,1.44,0.27c0.24,0.02,0.44,0.05,0.7,0.06
		c0.26,0,0.51,0.01,0.76,0.02c0.51,0.02,1.01,0.09,1.5,0.13c0.24,0.02,0.48,0.03,0.68-0.03c0.19-0.06,0.34-0.23,0.39-0.48
		c0.01-0.04,0.04-0.06,0.08-0.05c0.03,0.01,0.05,0.03,0.05,0.06v0.01c0.01,0.26-0.12,0.59-0.41,0.73c-0.26,0.13-0.53,0.16-0.79,0.2
		c-0.51,0.05-1.01,0.08-1.5,0.12c-0.24,0.02-0.49,0.05-0.73,0.08c-0.24,0.03-0.54,0.04-0.8,0.04c-0.52-0.01-1.03-0.04-1.53-0.1
		c-2.02-0.2-3.99-0.59-5.95-1.02c-1.96-0.45-3.89-1.02-5.8-1.65c-1.91-0.63-3.81-1.35-5.59-2.45l-0.89-0.54l0.99-0.12l5.86-0.71
		c1.95-0.28,3.91-0.55,5.88-0.68c1.98-0.09,3.96,0.02,5.92,0.27c1.96,0.26,3.92,0.63,5.78,1.33c0.03,0.01,0.05,0.05,0.04,0.09
		C101.19,101.05,101.16,101.07,101.13,101.07z"/>
	<path class="st0" d="M27.93,101.88c0.13-0.14,0.28-0.3,0.42-0.45c-0.22-0.07-0.45-0.13-0.67-0.2
		C27.76,101.44,27.84,101.66,27.93,101.88z"/>
	<path class="st0" d="M57.41,110.51c-0.36-0.03-0.73-0.06-1.11-0.09c0.05,0.05,0.1,0.1,0.15,0.16c0.11,0.15,0.2,0.34,0.23,0.54
		c0.03,0.21,0.01,0.42-0.05,0.62c-0.21,0.64-0.44,1.22-0.71,1.81c-0.53,1.17-1.16,2.29-1.84,3.38c-0.35,0.54-0.73,1.05-1.09,1.58
		c-0.39,0.51-0.8,1-1.2,1.5c-0.43,0.47-0.85,0.96-1.3,1.42c-0.47,0.43-0.93,0.88-1.41,1.3c-1.96,1.66-4.23,2.86-6.49,3.93
		c-1.07,0.51-2.15,0.95-3.25,1.36c0.07-0.02,0.13-0.03,0.2-0.05c1.3-0.37,2.59-0.84,3.84-1.38c2.5-1.08,4.85-2.53,6.97-4.19
		c1.02-0.84,2.11-1.8,3.14-2.73l3.15-2.82c1.06-0.94,2.11-1.89,3.25-2.79c0.28-0.22,0.58-0.45,0.9-0.65
		c0.31-0.19,0.62-0.36,0.93-0.54c0.33-0.18,0.67-0.36,1.01-0.53c-1.07-0.65-2.18-1.21-3.34-1.51
		C58.75,110.66,58.1,110.57,57.41,110.51z"/>
</g>
</svg>
