<?xml version="1.0" encoding="utf-8"?>
<!-- Generator: Adobe Illustrator 23.0.0, SVG Export Plug-In . SVG Version: 6.00 Build 0)  -->
<svg version="1.1" id="Layer_1" xmlns="http://www.w3.org/2000/svg" xmlns:xlink="http://www.w3.org/1999/xlink" x="0px" y="0px"
	 viewBox="0 0 128 128" style="enable-background:new 0 0 128 128;" xml:space="preserve">
<style type="text/css">
	.st0{fill:#2D2D2D;}
</style>
<g>
	<path class="st0" d="M78.1,27.7l-3,0c-0.8,0-1.6,0-2.4-0.1c0.2,0.5,0.4,1,0.7,1.4c0.5,0.8,1.2,1.5,2,1.9c0.4,0.2,0.9,0.4,1.3,0.5
		c0.5,0.1,1,0.1,1.5,0.2c1,0,1.9-0.1,2.8-0.5c0.8-0.4,1.4-1.1,1.9-1.9c0.3-0.4,0.5-0.9,0.6-1.4c-0.8,0-1.5,0-2.3,0L78.1,27.7z"/>
	<path class="st0" d="M93.4,14.6c-0.7,0-1.4,0.1-2,0.2c-0.6,0.1-1.2,0.2-1.9,0.3c0.2,0.7,0.3,1.5,0.3,2.3c-0.1,1.4-0.6,2.7-1.4,3.8
		c-0.7,1-1.6,1.8-2.7,2.4c0.1,1,0,2-0.1,3c-0.1,0.8-0.3,1.7-0.7,2.5c0.4,0.6,0.8,1.1,1.4,1.5c0.6,0.4,1.3,0.6,2,0.7
		c0.7,0.1,1.5,0.2,2.3,0.3c0.6,0.1,1.2,0.2,1.7,0.5c0-0.1,0.1-0.3,0.1-0.5c0-0.4,0-0.8,0-1.3c-0.1-0.4-0.1-0.9-0.2-1.4L92,28.3
		c0-0.3-0.1-0.5,0-0.9l0.1-0.6l0.6-0.1c0.9-0.1,1.8,0,2.5,0.3c0.8,0.2,1.4,0.5,2.1,0.7c0.5,0.2,1,0.4,1.6,0.6
		c-0.5-0.7-0.9-1.4-1.5-1.9l-2.2-1.9l2.8,0.3c0.5,0.1,0.8,0.2,1.1,0.3l0.9,0.3c0.6,0.2,1.2,0.4,1.7,0.5c0.3,0.1,0.7,0.2,1,0.3
		c0,0-0.1-0.1-0.1-0.1c-0.7-0.7-1.2-1.5-1.7-2.4l-0.8-1.5l1.4,0.9c0.2,0.1,0.6,0.2,0.9,0.3c0.3,0.1,0.7,0.1,1,0.1c0.3,0,0.7,0,1,0
		c-0.1-0.1-0.2-0.1-0.3-0.2c-0.4-0.3-0.8-0.7-1.2-1.1l-1-1.2c-0.3-0.4-0.7-0.7-1.1-0.9l-0.6-0.3l0.7-0.2c0.4-0.1,0.9-0.4,1.4-0.5
		c0.5-0.2,1-0.3,1.5-0.4c0.1,0,0.1,0,0.2,0c-0.3,0-0.6,0-1,0c-1.3,0-2.6,0-4,0.1c-0.7,0-1.4,0.1-2.1,0c-0.4,0-0.8-0.1-1.1-0.2
		c-0.2-0.1-0.4-0.1-0.6-0.3C95.2,18,95.1,18,95,17.9l-0.2-0.1c-0.1-0.1-0.1-0.1-0.2-0.2c-0.4-0.6-0.3-1.4,0.1-1.8
		c0.1-0.1,0.1-0.1,0.2-0.2l0.1-0.1l0.2-0.2l0.4-0.3c0.2-0.1,0.3-0.3,0.5-0.4C95.2,14.5,94.3,14.5,93.4,14.6z"/>
	<path class="st0" d="M72.7,54c-0.1,0.2-0.3,3.4-0.3,4.3c0,0.9-0.1,1.8-0.2,2.6c-0.1,0.9-0.3,1.7-0.5,2.6c-0.2,0.9-0.5,1.7-0.7,2.6
		c-0.2,0.9-0.4,1.7-0.5,2.6c-0.2,0.8-0.3,1.6-0.4,2.4c1.2,2.1,2.2,4.1,3.2,6.3l1.5,3.2l0.8,1.6c0.3,0.5,0.5,1,0.8,1.4l0.2,0.3
		c0.2,0.2,0.2,0.4,0.3,0.5c0.1,0.3,0.3,0.6,0.4,0.9c0.2,0.6,0.4,1.2,0.5,1.8c0.3,1.2,0.5,2.4,0.7,3.6c0.4,2.4,0.6,4.7,0.7,7.2
		c2.5,0.5,3.1,0.6,3.6,0.7c-0.2-1.8-0.3-3.1-1-4.8c-0.8-2-1.6-4.1-2.4-6.1c-0.8-2-1.5-4.1-2.3-6.2c-0.8-2-1.6-4.1-2.5-6l-0.1-0.3
		l0-0.2c0.4-2.4,0.8-4.8,0.9-7.2c0.1-2.4-0.1-4.9-0.2-7.3c-0.2-2.4-0.1-4.8-0.2-7.2c-0.1-1.8-0.1-3.6-0.4-5.3
		C73.8,51,72.8,53.8,72.7,54z"/>
	<path class="st0" d="M61.8,12.2c0.1,0.1,0.3,0.2,0.5,0.4c0.2,0.1,0.5,0.1,0.7,0.2c0.7,0.3,1.5,0.6,2.2,1c0.3,0.2,0.7,0.4,1,0.6
		c0.2,0.2,0.5,0.4,0.8,0.5c0.2-0.3,0.3-0.6,0.5-0.9c0.7-1.1,1.6-2,2.5-2.8c-2.2-1.2-4.5-2.3-7-3.1c3.7,0.7,7.4,2,10.9,3.8
		c0.3-0.1,0.6-0.2,0.9-0.3c0.4-0.1,0.8-0.2,1.2-0.2c0.8-0.1,1.5-0.2,2.3-0.2c0,0,0,0,0.1,0c0,0,0,0,0,0h0.1c0.8,0,1.5,0.1,2.3,0.2
		c0.4,0.1,0.8,0.1,1.1,0.2c0.3,0.1,0.6,0.1,0.9,0.3C86.1,10,89.8,8.8,93.5,8c-2.5,0.8-4.9,1.9-7.1,3.2c0.9,0.6,1.7,1.4,2.3,2.3
		c0.3,0.4,0.5,0.9,0.7,1.4c0.6-0.2,1.2-0.5,1.9-0.6c0.4-0.1,0.9-0.2,1.3-0.3c0.6-0.3,1.3-0.6,1.8-0.9c0.7-0.4,1.4-1,1.9-1.6
		c0.5-0.6,0.8-1.3,0.9-2c0-0.4,0-0.7-0.1-1.1c0-0.2-0.1-0.4-0.1-0.5c0-0.1-0.1-0.2-0.1-0.2c-1.4-1-2.8-1.9-4.2-2.8
		c-1.5-0.9-3-1.8-4.6-2.5c-1.5-0.7-3.2-1.2-4.9-1.6C81.5,0.4,79.7,0.1,78,0c-3.5-0.2-7.1,0.5-10.3,2c-1.6,0.7-3.1,1.6-4.6,2.6
		c-1.4,0.9-2.7,1.8-3.9,2.8c0,0.5,0.1,1.1,0.2,1.6c0.2,0.6,0.5,1.2,0.9,1.8C60.8,11.2,61.3,11.7,61.8,12.2z"/>
	<path class="st0" d="M84.7,29.3c-0.1,0.2-0.2,0.4-0.3,0.7c-0.6,1.1-1.5,2.1-2.7,2.7c-1.2,0.6-2.5,0.8-3.7,0.8
		c-1.2,0-2.5-0.3-3.6-0.9c-1.1-0.6-2.1-1.6-2.7-2.7c-0.1-0.2-0.2-0.4-0.3-0.5c-0.3,0.5-0.6,1-1.1,1.4c-0.2,0.1-0.3,0.2-0.5,0.4
		c0.1,0.6,0.4,1,0.7,1.4c0.1,0.1,0.2,0.2,0.3,0.4c0.1,0.1,0.2,0.2,0.3,0.4c0.2,0.3,0.3,0.6,0.6,0.8c0.4,0.5,1.1,0.7,1.8,0.8
		c0.7,0,1.3,0,1.9,0h0.1l0.2,0.1c0.4,0.2,0.8,0.5,1.1,0.8c0.1,0.1,0.1,0.1,0.2,0.2c0.1,0.1,0.2,0.2,0.3,0.4c0.4,0.5,0.7,1.1,0.9,1.7
		c0.1-0.3,0.2-0.6,0.3-0.8c0.1-0.3,0.3-0.6,0.5-0.9c0.4-0.6,0.8-1,1.5-1.4l0.2-0.1l0.1,0c0.3,0,0.7,0,1,0c0.3,0,0.7,0,1,0
		c0.7,0,1.4-0.2,1.9-0.6c0.3-0.2,0.5-0.5,0.7-0.7c0.2-0.2,0.5-0.4,0.7-0.6c0.4-0.4,0.8-0.7,1.1-1.3c-0.5-0.2-1-0.5-1.4-0.9
		C85.4,30.6,85,30,84.7,29.3z"/>
	<path class="st0" d="M0.5,95.8c-0.1-0.1-0.3,0-0.3,0C0.1,95.9,0,96,0,96.2v6.9c0,1.6,1,3.1,2.6,3.6c0.5,0.2,0.8,0.3,1.1,0.4
		c-0.5-3.4-0.6-9.9-0.9-10.1C2,96.1,1.4,96.1,0.5,95.8z"/>
	<path class="st0" d="M87.3,20.5c0.7-0.9,1.3-2,1.4-3.2c0.2-1.2,0-2.4-0.6-3.5c-0.5-0.9-1.1-1.8-1.9-2.5c-1.1,0.6-2.2,1.3-3.2,2.1
		l-0.3,0.2l-0.4-0.2c-0.2-0.1-0.5-0.1-0.9-0.2c-0.3,0-0.7-0.1-1-0.1c-0.7,0-1.4,0-2.1,0h-0.2c-0.7,0-1.4,0-2.1,0c-0.4,0-0.7,0-1,0.1
		c-0.3,0-0.7,0.1-0.9,0.2l-0.4,0.2l-0.3-0.2c-1.1-0.8-2.3-1.5-3.5-2.2c-0.8,1-1.5,2-2.1,3.1c-0.6,1.1-1,2.4-0.9,3.5
		c0,1.2,0.6,2.2,1.5,3c0.9,0.8,2,1.3,3.2,1.7l0.5,0.2l0,0.6c0,1.4,0.1,2.8,0.5,4.1c0.8-0.4,1.6-0.7,2.4-0.9c1-0.2,2.1-0.4,3.2-0.4
		c1.1,0,2.1,0.1,3.2,0.4c0.8,0.2,1.5,0.5,2.3,0.9c0.4-1.3,0.5-2.7,0.5-4.1l0-0.6l0.5-0.1C85.6,22.1,86.6,21.4,87.3,20.5z M74.4,17
		c-0.5,0.3-1.3,0.9-1.9,0.8C71.6,17.7,71,17,71,16.3c0.1-0.7,0.9-1.3,1.8-1.2c0.6,0.1,1.3,0.7,1.7,1.2C74.6,16.5,74.6,16.8,74.4,17z
		 M80.5,20.4c0,0.7-0.1,1.4-0.4,2.2c-0.1,0.4-0.3,0.7-0.6,1.1c-0.3,0.3-0.8,0.6-1.4,0.6c-0.5,0-1-0.3-1.3-0.6
		c-0.3-0.3-0.5-0.7-0.6-1.1c-0.2-0.7-0.3-1.4-0.3-2.1v-0.1l0-0.1c0.2-0.3,0.3-0.7,0.4-1c0.1-0.4,0.3-0.7,0.4-1.1
		c0.2-0.7,0.4-1.5,0.5-2.3c0.1,0.8,0,1.6-0.1,2.4c0,0.4-0.1,0.8-0.2,1.2c-0.1,0.3-0.2,0.7-0.3,1c0.1,0.6,0.3,1.2,0.6,1.7
		c0.1,0.3,0.3,0.5,0.4,0.6C77.9,23,78,23,78.2,23c0.1,0,0.3-0.1,0.4-0.2c0.1-0.1,0.3-0.4,0.4-0.6c0.2-0.5,0.3-1.1,0.4-1.7
		c-0.1-0.3-0.2-0.7-0.3-1C79,19,79,18.6,79,18.2c0-0.4,0-0.8,0-1.2c0-0.4,0.1-0.8,0.2-1.2c0.1,0.4,0.2,0.8,0.3,1.1
		c0.1,0.4,0.2,0.7,0.3,1.1c0.1,0.4,0.2,0.7,0.4,1.1c0.1,0.3,0.3,0.7,0.4,1l0.1,0.1L80.5,20.4z M83.7,17.8c-0.6,0.1-1.4-0.4-1.9-0.8
		c-0.2-0.2-0.3-0.5-0.1-0.7c0.4-0.4,1.1-1.1,1.7-1.2c0.9-0.1,1.7,0.4,1.8,1.2C85.3,17,84.6,17.7,83.7,17.8z"/>
	<path class="st0" d="M117.1,97.7c-0.5-1-1.1-1.9-1.9-2.6c-1.5-1.5-3.4-2.5-5.5-2.9c-0.5-0.1-1-0.2-1.6-0.3c-0.5,0-1.1-0.1-1.6-0.1
		l-0.8,0l-0.9,0c-0.6,0-1.1,0-1.7,0c-1.1,0-2.2,0.1-3.3,0.2c-1.1,0.1-2.2,0.2-3.3,0.4c-4.3,0.8-8.4,2.9-12.3,5.2
		c0,0,0.1,0.9,0.2,1.6c0.4,0.3,3,3.8,5.8,1.5c0.9-0.7,1.9-1.3,3-1.7c2.1-0.9,4.4-1.5,6.6-1.9c1.1-0.2,2.3-0.3,3.4-0.3
		c1.2,0,2.5,0.2,3.7,0.7c2.3,1,4.1,2.9,5.2,5.2c0.5,1.1,0.8,2.3,1,3.6c0.2,1.3,0,2.5-0.2,3.7c-0.2,1.1-0.5,2.2-0.7,3.3
		c-0.1,0.5-0.2,1.1-0.3,1.6c0,0.3-0.1,0.5-0.1,0.8l0,0.4l0,0.3c0,0.9,0.4,1.8,1,2.4c0.3,0.3,0.7,0.5,1.1,0.6c0.4,0.1,0.8,0.1,1.2,0
		c0.7-0.3,1.3-1.1,1.7-2.1c0.4-1,0.6-2.1,0.9-3.2c0.5-2.2,0.9-4.4,1-6.6c0.1-2.2,0-4.5-0.5-6.7C118,99.7,117.6,98.6,117.1,97.7z"/>
	<path class="st0" d="M51.6,22.4c-0.1,0.1-0.3,0.2-0.5,0.3c0.4,0,0.7,0,1.1,0c0.4,0,0.7,0,1-0.1c0.3-0.1,0.7-0.2,0.9-0.3l1.4-0.9
		l-0.7,1.5c-0.4,0.9-1,1.7-1.7,2.5c-0.1,0.1-0.2,0.2-0.3,0.3c0.4-0.1,0.8-0.2,1.2-0.3c0.6-0.2,1.2-0.4,1.7-0.6l0.9-0.3
		c0.3-0.1,0.6-0.2,1.1-0.3l2.7-0.3l-2,1.8c-0.6,0.5-1.1,1.2-1.5,2c0,0-0.1,0.1-0.1,0.1c0.5-0.2,1.1-0.4,1.6-0.6
		c0.7-0.3,1.4-0.5,2.1-0.8c0.7-0.3,1.7-0.5,2.6-0.3l0.7,0.1l0.1,0.6c0,0.4,0,0.7,0,1l-0.1,0.8c-0.1,0.5-0.1,1-0.2,1.5
		c-0.1,0.5-0.1,1,0,1.4c0,0.2,0.1,0.4,0.1,0.6c0.6-0.3,1.3-0.4,1.9-0.6c0.8-0.2,1.7-0.3,2.4-0.4c0.8-0.2,1.6-0.4,2.2-0.8
		c0.5-0.3,0.9-0.7,1.2-1.2c-0.4-0.9-0.6-1.7-0.7-2.6c-0.1-1-0.2-2-0.1-3c-1.1-0.5-2.1-1.1-3-1.9c-0.5-0.5-0.9-1.1-1.2-1.8
		c-0.3-0.7-0.4-1.4-0.3-2.1c0.1-1,0.4-1.9,0.8-2.7c-0.1,0-0.2-0.1-0.3-0.1l-0.5-0.2c-0.3-0.2-0.7-0.3-1.1-0.4
		c-0.7-0.3-1.4-0.5-2.2-0.7c-0.7-0.2-1.5-0.3-2.2-0.4c-0.2,0-0.4,0-0.7,0c0.1,0.1,0.2,0.1,0.3,0.2c0.1,0.1,0.3,0.2,0.4,0.2
		c0.1,0,0.1,0,0.3,0.2c0.1,0.1,0.3,0.2,0.4,0.4c0.2,0.3,0.3,0.7,0.1,1.1c-0.1,0.2-0.2,0.3-0.2,0.4c-0.1,0.1-0.2,0.2-0.3,0.3
		c-0.8,0.6-1.6,0.7-2.3,0.8c-0.7,0.1-1.5,0-2.1,0c-1.3-0.1-2.6-0.1-3.9,0.1c-0.6,0.1-1.3,0.2-1.9,0.4c0,0,0,0,0,0
		c0.4,0.1,0.8,0.1,1.3,0.2c0.5,0.1,1,0.3,1.5,0.4c0.5,0.2,1,0.4,1.4,0.5l0.6,0.2l-0.6,0.3c-0.4,0.2-0.8,0.6-1.1,1l-1,1.2
		C52.4,21.6,52,22,51.6,22.4z"/>
	<path class="st0" d="M106.3,99.1c-0.9-0.4-1.9-0.7-2.9-0.7c-1.1,0-2.2,0-3.3,0.1c-4.2,0.3-8.4,1.4-11.8,4.2c0.5,0.7,1,1.6,1.3,2.5
		c3.5-0.4,6.9-0.6,10.3-0.9c3.5-0.2,10.3-0.8,10.3-1C109.6,101.5,108.1,100,106.3,99.1z"/>
	<path class="st0" d="M126.9,86c-0.1,0.1-0.2,0.1-0.4,0.3l-0.4,0.4l-0.8,0.8c-0.6,0.6-1.1,1.1-1.7,1.7c-1.2,1-2.5,1.9-4,2.7
		c-1.3,0.7-2.8,1.3-4.3,1.6c0.3,0.3,0.6,0.6,0.8,0.9c1.5,1.8,2.3,4.1,2.8,6.3c0.1,0.4,3.2,0.5,4.7,0c1.3-0.5,2.3-1.4,3-2.5
		c0.3-0.6,0.5-1.2,0.6-1.8c0.1-0.3,0.1-0.6,0.1-1.1l0.1-1.2c0.1-1.6,0.2-3.1,0.4-4.7c0.1-0.8,0.2-1.6,0.2-2.4
		c0.1-0.4-0.1-0.6-0.3-0.8C127.5,86,127.1,85.9,126.9,86z"/>
	<path class="st0" d="M78.2,107l1.6-0.2c-2-0.5-4.2-1-6.4-1.3c-6.8-0.9-13.5-0.1-13.6-0.1c-0.1,0-3.5,0.5-5.5-1.4
		c-1.1-1.1-1.6-2.6-1.4-4.6c-0.3-0.8-0.6-1.4-0.9-1.9c-1.7,1.5-3.8,2.7-5.9,3.6c-2.3,1-4.6,1.6-7,2.1c-0.6,0.1-1.2,0.2-1.8,0.3
		l-1.8,0.2c-1.2,0.1-2.4,0.2-3.7,0.3c-0.6,0-1.2,0-1.8,0c-0.6,0-1.2,0-1.8,0c-0.6,0-1.2-0.1-1.8-0.1l-0.9-0.1l-0.5-0.1l-0.3,0
		c-0.1,0-0.1,0-0.2,0c-1-0.2-6.4-1.4-9.6-3.8c-0.1,2.8,0,4.7,0.7,7.3c0.4,1.3,0.3,1.4,1,2.6c1.5,1.1,3.8,2.2,5.4,2.7
		c0.9,0.3,1.9,0.5,2.8,0.7c0.5,0.1,0.9,0.2,1.4,0.3c0.4,0.1,0.9,0.2,1.2,0.2c1.6-0.4,3.2-0.9,4.8-1.3l2.5-0.6
		c0.8-0.2,1.7-0.3,2.5-0.5c3.3-0.6,6.7-0.9,10.1-1.2l10.1-0.8c3.3-0.3,6.7-0.5,10.1-0.6C71,108.1,74.6,107.6,78.2,107z"/>
	<path class="st0" d="M85,101.9c-0.8-0.7-1.7-1.2-2.8-1.4c-3-0.7-10.4-2.1-18-2.2h-0.4L63.6,98c-1.7-1.7-2.6-6.1-3.5-10.9
		c-0.4-2.2-0.8-4.2-1.3-5.9c-0.5-1.8-1.3-4.3-2.2-6.9c-1.6-5-3.3-10.2-3.6-12.5c-0.2-2.2-2.3-3.8-3.9-5c-0.5-0.4-1-0.7-1.3-1.1
		c-2.9-2.1-5-0.6-5.4-0.2c0,0.1-0.1,0.1-0.1,0.2c0,0,0,0,0,0l0,0l-2.6,2.1l-1.3,1l-0.7,0.5l-0.3,0.2l-0.3,0.3
		c-1.5,1.6-2.9,3.3-4.3,5.1c-1.4,1.8-2.7,3.6-3.9,5.5c-1.2,1.9-2.3,3.8-3.2,5.9c0.7-2.1,1.7-4.2,2.8-6.2c1.1-2,2.2-3.9,3.5-5.8
		c1.2-1.9,2.5-3.7,4-5.5l0.3-0.3l0.3-0.4l0.6-0.6l1.3-1.1l2.5-2.2c0,0,0-0.1,0.1-0.1c1.2-1.1,4.4-2.6,8,0l0.1,0.1
		c0.3,0.3,0.8,0.7,1.3,1c0.1,0.1,0.3,0.2,0.5,0.4c-0.1-0.2-0.1-0.4-0.2-0.7c-0.3-1.3-0.5-2.7-0.7-4c-0.1-1.3-0.2-2.7-0.1-4.1
		c0.1-1.3,0.3-2.7,0.8-3.9c-0.4,1.3-0.4,2.6-0.3,3.9c0.1,1.3,0.3,2.6,0.6,3.9c0.3,1.3,0.7,2.5,1.1,3.8c0.4,1.2,1,2.4,1.5,3.5l0,0
		c0.1,0.1,0.1,0.2,0.1,0.3c0.7,0.9,1.2,2,1.3,3.2c0.2,2.1,1.9,7.4,3.5,12.1c0.9,2.7,1.7,5.2,2.2,7c0.5,1.7,0.9,3.8,1.3,6
		c0.7,3.6,1.6,8,2.7,9.6c5.5,0.1,9.4,0.5,13,1.2c0.2-2.6,0-4.2-0.7-6.5c-0.3-1.1-0.7-2.3-1-3.4c-0.2-0.6-0.4-1.1-0.6-1.6
		c-0.1-0.3-0.2-0.5-0.3-0.7c-0.1-0.1-0.1-0.2-0.1-0.2l-0.3-0.4c-0.7-1.1-1.2-2.2-1.7-3.3c-0.5-1.1-0.9-2.2-1.4-3.3
		c-0.9-2.2-1.6-4.5-2.4-6.7l-0.1-0.2l0-0.1c0.5-1.7,0.9-3.4,1.1-5.1c0.2-1.7,0.1-3.5,0.2-5.2c0-0.9,0.1-1.7,0.2-2.6
		c0.1-0.9,0.1-1.7,0.2-2.6c0-0.5,0.1-4.3,0.1-5.2v0c0-0.1,0-0.1,0.1-0.1c0,0,0.1,0,0.1,0.1c0.2,0.3,0.3,0.7,0.4,1
		c1-3,2.5-7.5,2.6-9.2c0.3-2.7,1-5.7,1.1-5.8c0,0,0,0,0,0c-0.1-0.1-0.1-0.1-0.2-0.1c-0.6-0.1-1.3-0.3-1.9-0.6
		c-0.6-0.4-1.2-0.7-1.9-1c-0.3-0.1-0.7-0.3-1-0.5c-0.3-0.2-0.6-0.5-0.7-0.9c-0.2-0.4-0.3-0.8-0.3-1.2c0-0.2,0-0.4,0.1-0.6
		c-0.4,0.2-0.9,0.4-1.3,0.5c-0.8,0.3-1.6,0.5-2.4,0.7c-0.8,0.2-1.5,0.5-2,0.9L63.2,34l-0.4-0.5c-0.5-0.6-0.7-1.2-0.8-1.8
		c-0.1-0.6-0.1-1.1-0.1-1.7c0-0.5,0.1-1.1,0.1-1.6l0.1-0.6c-0.3,0.1-0.7,0.1-1.1,0.3c-0.7,0.2-1.3,0.5-2,0.8
		c-1.4,0.6-2.8,1.1-4.2,1.6l-2.9,1l1.9-2.4c0.5-0.7,1-1.5,1.5-2.3c0.1-0.1,0.1-0.2,0.2-0.2c-0.3,0.1-0.7,0.2-1,0.3
		c-1.2,0.3-2.5,0.6-3.8,0.6L48,27.7l2.1-1.4c0.8-0.5,1.5-1.1,2.2-1.7c0.4-0.4,0.7-0.8,1.1-1.2c-0.4,0-0.8,0-1.1,0
		c-0.8,0-1.5-0.1-2.3-0.3l-1.6-0.3l1.6-0.3c0.5-0.1,0.9-0.3,1.3-0.6c0.4-0.3,0.8-0.7,1.1-1.1c0.3-0.3,0.5-0.6,0.7-0.9
		c-0.9,0.1-1.7,0.1-2.6,0.2c-0.9,0.1-1.8,0.3-2.6,0.5c-1.7,0.4-3.5,1-5.2,1.6c-1.7,0.6-3.4,1.2-5.1,1.9c-0.8,0.3-1.7,0.7-2.5,1
		c-0.8,0.3-1.7,0.7-2.6,1c-2.2,1-4.4,1.9-6.6,3c-2.2,1.1-4.3,2.2-6.3,3.6c-2,1.4-3.8,2.9-5.5,4.7c-1.7,1.7-3,3.7-4.1,5.8v0l0,0
		c-0.9,1.5-1.7,3.1-2.3,4.7c-0.7,1.6-1.2,3.3-1.7,5c-0.9,3.4-1.6,6.8-1.9,10.3c-0.1,1.7-0.3,3.5-0.3,5.2c0,1.8,0,3.5,0,5.3
		C3.9,75.5,4,77.2,4.1,79c0.1,1.8,0.4,3.5,0.6,5.3l0,0.1v0c-0.1,1.9-0.2,3.9-0.3,5.9l-0.1,2.9c0,0.6,0,11.9,1.3,15.8
		c1.4,4,3.8,7.5,6.8,10.3c3.1,2.8,6.7,5,10.7,6.4c4,1.4,8.2,2.2,12.4,2.3c4.3,0,8.6-0.7,12.7-1.7c2.1-0.5,4.1-1.2,6.1-2
		c2-0.8,4-1.6,6-2.5c3.9-1.7,7.8-3.6,11.4-5.8c3.4-2.1,5.7-4.4,8.4-7.3c-0.9,0.1-0.9,0.1-1.8,0.2c-3.6,0.4-7.2,0.9-10.9,1.2l-0.1,0
		h0c-0.6,0-1.2-0.1-1.7-0.1c-1.6,2.3-3.8,4.1-6.2,5.6c-2.5,1.5-5.2,2.6-8,3.3c-2.8,0.7-5.7,1-8.5,1.3c-2.8,0.3-5.7,0.6-8.6,0.7
		c-2.9,0.1-5.8-0.2-8.7-1.1c-2.8-0.8-5.6-2.3-7.7-4.4c-2.1-2.2-3.5-5.1-3.9-8c-0.5-3-0.1-5.9,0.7-8.7c0-0.1,0.1-0.1,0.1-0.1
		c0,0,1.6,1,2.4,1.4c0.8,0.4,1.6,0.6,2.4,0.9c0.8,0.3,1.6,0.5,2.5,0.7c1.6,0.4,2.9,0.4,2.9,0.4l0.4,0l0.9,0c0.6,0,1.2,0,1.8,0
		c1.2,0,2.4,0,3.6-0.1c2.4-0.2,4.7-0.3,7.1-0.7c0.6-0.1,1.2-0.2,1.8-0.3l0.9-0.2l0.9-0.2c0.8-0.2,2-0.5,2.8-0.7
		c0.2-0.1,0.5-0.1,0.7-0.2c2.1-0.6,4.2-1.5,6.3-2.5c-0.6-1-1.2-1.7-1.9-2.4c-0.8-0.9-1.8-1.8-2.7-3.6c0-0.1-0.1-0.1-0.1-0.2
		c0,0,0,0,0,0c-0.3-0.7-0.6-1.5-0.9-2.2c-0.3-0.7-0.6-1.5-0.8-2.2c-0.2-0.7-0.5-1.5-0.6-2.3c-0.2-0.8-0.3-1.6-0.3-2.3
		c0.2,0.8,0.4,1.5,0.8,2.2c0.3,0.7,0.7,1.4,1.1,2c0.4,0.7,0.8,1.3,1.2,1.9c0.4,0.6,0.9,1.3,1.3,1.9h0c0.1,0.1,0.1,0.2,0.2,0.4
		c0.8,1.5,1.6,2.3,2.4,3.2c1.1,1.1,2.2,2.3,3.3,5.2l0.1,0.2l0,0.2c-0.2,1.4,0.1,2.5,0.8,3.2c1.3,1.3,3.9,0.9,3.9,0.9
		c0.3,0,7-0.8,14.1,0.1c3.7,0.5,14,2,14,2C87,104,85.9,102.7,85,101.9z"/>
</g>
</svg>
