<?xml version="1.0" encoding="utf-8"?>
<!-- Generator: Adobe Illustrator 24.1.2, SVG Export Plug-In . SVG Version: 6.00 Build 0)  -->
<svg version="1.1" id="Layer_1" xmlns="http://www.w3.org/2000/svg" xmlns:xlink="http://www.w3.org/1999/xlink" x="0px" y="0px"
	 viewBox="0 0 128 128" style="enable-background:new 0 0 128 128;" xml:space="preserve">
<style type="text/css">
	.st0{fill:#2D2D2D;}
</style>
<g>
	<path class="st0" d="M61.4,99.7c1.2-2.6,2.4-6,2.3-8.3c0,0,0-0.1,0-0.1c-0.5-1.1-0.8-2.2-1-3.1c-1,0.5-2.6,0.7-4.5,0.7
		c-0.5,0-0.9,0-1.4,0c-0.5,2-1.4,8.1-0.8,11.6C56.9,100.5,59.6,100.6,61.4,99.7z"/>
	<polygon class="st0" points="55.1,124.3 55.6,125.7 60.5,125.6 57.8,122.9 	"/>
	<path class="st0" d="M55.8,114.6c0.6-2.8,2-9.6,3.5-11c0,0,0.1-0.1,0.1-0.1c-1.6,1.1-2.7,1.2-3.3,1.1c-0.1,1.9-0.2,3.4-0.3,3.6
		c-0.2,1.5-1.3,8.4-2.6,11.2c0.7,0.4,1.1,0.9,1.1,1c0.1,0.1,0.2,0.3,0.2,0.5l0.3,2.3l2.4-1.4C56.6,120.2,55.4,116.9,55.8,114.6z"/>
	<path class="st0" d="M128,67.5c-0.3,0.4-0.9,0.5-1.4,0.1c-0.4-0.3-0.8-1.9-0.6-2.5c-0.3-0.3-0.5-0.4-0.6-0.5c-1.4-1-6-5.4-9.8-9.1
		l-0.6-0.6c0,0-0.1-0.1-0.1-0.1c-1.2-1.8-2.2-2.1-3.5-2.6c-0.5-0.2-1-0.3-1.5-0.6c-1.4-0.7-4-0.1-4.9,0.1c0,0-0.1,0-0.1,0
		c0,0-0.1,0-0.1,0c0,0,0,0,0,0l-2.3,0c0,0.1,0.1,0.2,0.1,0.3c0.1,0.2,0.3,0.3,0.5,0.5c0.2,0.2,0.4,0.3,0.6,0.5
		c0.4,0.3,0.9,0.5,1.4,0.6c-0.5,0-1.1-0.1-1.6-0.3c-0.5-0.2-0.9-0.5-1.4-0.9c0,0,0,0,0-0.1l0-0.1c-0.5-1-1.1-1.9-1.8-2.7
		c-0.7-0.8-1.5-1.5-2.5-2c-0.9-0.5-1.9-1-2.9-1.2c-0.5-0.1-1-0.2-1.6-0.3c-0.2,0-0.5-0.1-0.7-0.1c0,0,0,0-0.1,0c0,0.3,0,0.6,0,0.9
		c0,0.6,0.1,1.2,0.3,1.7c0.3,1.1,0.8,2.2,1.6,3c0.8,0.8,1.8,1.6,2.9,2.1c0.6,0.3,1.1,0.4,1.7,0.6c0.6,0.1,1.2,0.2,1.8,0.2l0.1,0
		c0.1,0,0.2,0.1,0.2,0.1c0.3,0.8,0.6,1.5,0.9,2.3c-0.4-0.6-0.9-1.3-1.3-1.9c-1.3,0.3-2.6,0.2-3.9-0.2c-0.7-0.2-1.3-0.5-1.9-0.8
		c-0.3-0.2-0.6-0.3-0.8-0.5c-0.1,0.1-0.2,0.2-0.3,0.3c-1.7,0.9-3.2,1.3-5.1,1.5c0.1,0.4,0.1,0.7,0.1,1.1c0,0.9-0.5,1.7-0.7,2.6
		c-0.2,0.8-0.2,1.7-0.4,2.6c-0.2,0.9-0.4,1.7-0.7,2.5c-0.6,1.6-0.9,3.2-0.6,4.9c0.1,0.8,0.4,1.6,0.6,2.5c0.2,0.8,0.2,1.8-0.2,2.6
		c0,0,0,0-0.1,0c0,0,0,0,0-0.1c0.3-0.8,0.1-1.7-0.2-2.5c-0.3-0.8-0.6-1.6-0.8-2.5c-0.4-1.8-0.2-3.6,0.4-5.3c0.2-0.8,0.6-1.6,0.9-2.4
		c0.3-0.8,0.8-1.6,0.9-2.4c0.2-0.8,0-1.7,0.1-2.6c0-0.3,0.1-0.7,0.1-1c-1.1,0.1-2.4,0.2-3.9,0.2l-0.9,0c-1.3,0.1-2.5-0.1-3.7-0.4
		c0,0.1,0.1,0.2,0.1,0.3c0.1,0.5,0.1,0.9,0.1,1.4c0,0.5-0.1,0.9-0.3,1.4l-0.5,1.3c-0.1,0.4-0.3,0.9-0.4,1.3
		c-0.1,0.5-0.2,0.9-0.4,1.3c-0.1,0.5-0.3,0.9-0.5,1.3c-0.2,0.4-0.4,0.8-0.6,1.2c-0.9,1.5-1.7,3.1-2.1,4.8c-0.2,0.9-0.3,1.8-0.5,2.7
		c-0.2,0.9-0.6,1.8-1.2,2.5c0,0,0,0-0.1,0c0,0,0,0,0-0.1c0.5-0.8,0.7-1.6,0.8-2.5c0.1-0.9,0.1-1.8,0.2-2.7c0.1-0.9,0.4-1.8,0.7-2.7
		c0.2-0.4,0.4-0.9,0.6-1.3c0.2-0.4,0.4-0.8,0.6-1.2l0.3-0.6c0.1-0.2,0.2-0.4,0.3-0.6l0.7-1.2c0.5-0.8,0.9-1.6,1.1-2.4
		c0.2-0.9,0.1-1.8,0.2-2.7c0.1-0.6,0.1-1.2,0.1-1.9c-1.2-0.4-2.2-0.9-3.3-1.6c-1.8-1.3-4.7-2.8-9.4-4.1c0.2,0.5,0.2,0.9,0.3,1.4
		c0,0.3,0,3,0,3.3c0,0.3-0.1,0.7-0.1,1c-0.2,1.4-0.9,2.6-1.4,3.8c-0.1,0.3-0.2,0.6-0.4,0.9l-0.4,1c-0.3,0.6-0.5,1.3-0.9,1.8
		c-0.4,0.6-0.7,1.2-1.1,1.7c-0.4,0.6-0.8,1.1-1.2,1.6c-1.5,2.1-2.5,4.6-3.3,7.1c-0.4,1.3-0.8,2.5-1.2,3.8c-0.2,0.6-0.4,1.3-0.6,1.9
		c-0.2,0.6-0.4,1.3-0.7,1.9c0,0,0,0-0.1,0c0,0,0,0,0-0.1c0.5-1.2,0.7-2.6,1-3.9c0.3-1.3,0.6-2.6,0.9-3.9c0.7-2.6,1.6-5.2,3.1-7.5
		c0.4-0.6,0.8-1.1,1.2-1.6c0.4-0.5,0.8-1.1,1.2-1.6c0.4-0.5,0.7-1.1,1.1-1.6c0.3-0.6,0.7-1.1,0.9-1.7c0.6-1.2,0.6-2.6,0.8-3.9
		c0.2-1.2,0.3-4.2,0.3-5.7c-2.8-0.7-6.1-1.4-10.2-1.9L55.6,47c-0.2,0-0.5-0.1-0.8-0.1c0.2,0.4,0.4,0.9,0.5,1.3
		c0.1,0.3,0.2,0.7,0.2,1c0,0.3,0.5,2.8,0.5,3.1c0.1,1.4-0.4,2.7-0.6,4c-0.1,0.3-0.1,0.7-0.2,1l-0.2,1c-0.1,0.7-0.3,1.3-0.5,2
		c-0.2,0.6-0.4,1.3-0.7,1.9c-0.3,0.6-0.6,1.2-0.9,1.8c-1,2.4-1.5,5-1.8,7.6c-0.2,1.3-0.3,2.6-0.4,4c-0.1,0.7-0.1,1.3-0.2,2
		c-0.1,0.7-0.2,1.3-0.4,2c0,0,0,0-0.1,0c0,0,0,0,0-0.1c0.2-1.3,0.2-2.6,0.2-4c0-1.3,0-2.7,0.1-4c0.2-2.7,0.5-5.4,1.6-8
		c0.3-0.6,0.5-1.2,0.8-1.8c0.3-0.6,0.5-1.2,0.8-1.8c0.3-0.6,0.5-1.2,0.8-1.8c0.2-0.6,0.5-1.2,0.6-1.9c0.3-1.3,0.1-2.7,0-3.9
		c0-1.2-0.5-4-0.8-5.5c-2.2-0.2-6.7-0.7-11.8-1c0.4,0.4,0.7,0.9,0.9,1.4c0.2,0.3,0.3,0.6,0.4,0.9c0.1,0.3,0.2,0.7,0.3,1
		c0.3,1.3,0.5,4.4,0.6,5.7c0,0.3,0,0.7,0,1l0,1c0,0.7,0,1.4-0.1,2c-0.1,0.7-0.2,1.3-0.3,2c-0.1,0.7-0.4,1.3-0.5,1.9
		c-0.6,2.5-0.6,5.2-0.4,7.8c0.1,1.3,0.2,2.7,0.4,4c0.1,0.7,0.1,1.3,0.2,2c0,0.7,0.1,1.3,0,2c0,0,0,0-0.1,0c0,0,0,0,0,0
		c0-1.3-0.3-2.6-0.5-4c-0.2-1.3-0.4-2.6-0.6-4c-0.3-2.7-0.5-5.4,0.1-8.1c0.2-0.7,0.3-1.3,0.5-2c0.2-0.6,0.3-1.3,0.5-1.9
		c0.1-0.6,0.3-1.3,0.4-1.9c0.1-0.7,0.2-1.3,0.2-2c0.1-1.3-0.8-4.3-1.1-5.5c-0.3-1.2-0.6-2.3-1.1-3.5c-4.4-0.2-9.4-0.4-13.8-0.2
		c-1.9,0.1-3.9,0.4-6,1c0.8,0.8,1.3,1.8,1.7,2.8c0.5,1.1,1.5,4.4,1.6,5.6c0.1,1.2,0.3,2.3,0.5,3.5c0.1,1.2,0.1,2.4,0.1,3.5
		c-0.1,0.6-0.1,1.2-0.2,1.7C26,64.4,26,64.9,26,65.5c0,1.1,0.1,2.3,0.3,3.4c0.2,1.1,0.5,2.2,0.8,3.4c0.3,1.1,0.6,2.3,0.5,3.5
		c0,0,0,0-0.1,0c0,0,0,0,0,0c0-1.2-0.5-2.2-0.9-3.3c-0.4-1.1-0.8-2.2-1.1-3.3c-0.3-1.1-0.5-2.3-0.5-3.5c0-0.6,0-1.2,0.1-1.8
		c0.1-0.6,0.1-1.2,0.2-1.7c0.1-0.6,0.1-1.1,0.2-1.7c0.1-0.6,0.1-1.1,0.1-1.7c0-0.6,0.1-1.2,0.1-1.7c0-0.6-0.1-1.2-0.2-1.7
		c-0.3-1.1-1.7-4.3-2-5.4c-0.3-1-0.7-2-1.1-3c-2.3,0.7-4.7,1.7-7.2,3c0.5,0.2,0.8,0.6,1.1,0.9c0.3,0.4,0.6,0.9,0.7,1.4
		c0.4,1,0.8,2.8,0.9,3.7c0.1,1,0.3,2,0.4,3c0.1,0.5,0.1,1,0.1,1.5c0,0.5,0,1,0,1.5c-0.1,1-0.2,1.9-0.1,2.9c0.1,0.9,0.3,1.9,0.6,2.8
		c0.3,0.9,0.8,1.8,1.2,2.7c0.4,0.9,0.8,1.9,0.7,2.9c0,0,0,0-0.1,0c0,0,0,0,0,0c0-1-0.5-1.9-1-2.7c-0.5-0.8-1-1.7-1.4-2.6
		c-0.4-0.9-0.7-1.9-0.8-3c-0.1-0.5-0.1-1-0.1-1.5l0.1-1.5l0.2-2.9c0.1-1,0.2-2,0-2.9c-0.2-1-1.1-2.6-1.3-3.5
		c-0.3-0.9-0.6-1.7-1.2-2.5c-0.3,0.2-0.6,0.3-0.9,0.5c-0.8,0.4-1.5,0.9-2.1,1.4c-0.1,0.1-0.4,0.3-0.5,0.4c-3.4,3-5.4,7.4-5.3,12
		c0.1,5.3,1.8,12.7,8.6,18.2c0.3,0.2,0.4,0.6,0.3,0.9c-1.7,6-6,13-8.4,15.7c0.2,0,0.3,0,0.5-0.1c0.4-0.1,0.8-0.1,1.2-0.2
		c0.4-0.1,0.7-0.2,1-0.4c0.1-0.1,0.3-0.1,0.4,0c0.1,0.1,0.1,0.1,0.1,0.2v0c0,0.7-0.2,1.3-0.4,1.9c-0.1,0.6-0.3,1.2-0.3,1.8
		c0,0.6,0.1,1.1,0.4,1.5c0.1,0.2,0.3,0.3,0.5,0.5c0-0.1,0.1-0.3,0.1-0.4c0.1-0.4,0.3-0.8,0.5-1.2c0.2-0.4,0.4-0.7,0.7-1
		c0.3-0.3,0.5-0.6,1-0.9c0.3-0.2,0.7-0.2,0.9,0.1l0,0.1c0.6,0.8,1.3,1.5,2.1,2.2c0.4,0.3,0.8,0.6,1.1,0.9c0.1,0.1,0.2,0.2,0.4,0.2
		c0-0.1,0.1-0.2,0.1-0.3c0.2-0.4,0.4-0.7,0.7-1.1c0.2-0.4,0.5-0.7,0.8-1c0.1-0.2,0.3-0.3,0.4-0.5l0.2-0.3l0.1-0.1
		c0.1-0.1,0.1-0.1,0.2-0.2l0.1,0c0.3-0.2,0.7-0.2,1,0.1c0.1,0.1,0.1,0.1,0.1,0.2c0.1,0.3,0.2,0.6,0.4,0.8c0.2,0.2,0.4,0.5,0.6,0.6
		c0.3,0.2,0.7,0.3,1.2,0.4c-1.6-5.3,2-15.2,6.2-22.1c0,0,0,0,0.1-0.1c1-1.3,1.9-2.8,2.6-4.5c0-0.1,0.1-0.1,0.1-0.1
		c0-0.1,0.1-0.1,0.1-0.2c0,0,0,0,0-0.1l0,0c1-1.2,1.9-2.6,2.7-4c0.8-1.4,1.4-3,1.8-4.5c0.5-1.6,0.7-3.2,0.7-4.9v-1.2l-0.1-1.2
		L37,59.6l-0.1-0.6l-0.3-1.2l0.4,1.2l0.2,0.6l0.1,0.6l0.2,1.2l0.1,1.3c0.1,1.7,0,3.4-0.3,5.1c-0.3,1.7-0.8,3.3-1.5,4.9
		c-0.7,1.6-1.5,3.1-2.5,4.6c0,0,0,0,0,0c0,0,0,0,0,0c-0.8,1.8-1.8,3.4-2.8,4.8c-0.1,0.2-0.2,0.3-0.3,0.5c4.6-2.1,7.9-1,10,0.4
		c3.3,2.2,10.4,3.7,15.6,4.1c0.2,0,0.3,0,0.5,0c2.5,0.2,4.4,0.1,5.3-0.3l-1.8-2.1c-0.2-0.2-0.3-0.5-0.2-0.8l0.5-1.8c0,0,0-0.1,0-0.1
		c0.1-0.6,0.1-1.1,0.2-1.7c0.1-0.6,0.2-1.2,0.4-1.7c0.3-1.2,0.7-2.3,1.2-3.3c0.5-1.1,1.2-2.1,1.9-3c0.7-0.9,1.6-1.7,2.5-2.3
		c-0.9,0.7-1.6,1.6-2.2,2.6c-0.6,1-1.1,2-1.4,3c-0.3,1.1-0.6,2.1-0.7,3.2c-0.1,0.5-0.1,1.1-0.1,1.6c0,0.6,0,1.1,0,1.7V82
		c0,0.1,0,0.3-0.1,0.4c0,0,0,0,0,0l-0.4,1.3l2.4,2.8c0.1,0.1,0.2,0.3,0.2,0.4c0.6,2.9,1.9,6.8,6.9,12c1.4-0.3,4.3-0.9,6.3-2.9
		c-1.5-3.1-3.3-5.9-3.9-6.5c-0.1-0.1-0.1-0.2-0.1-0.2c0,0,0,0,0,0c-0.3-0.4-0.3-0.9,0.1-1.3c0,0,0,0,0,0l0,0c0.7-0.5,1.3-1.2,2-1.8
		c0.6-0.7,1.2-1.4,1.7-2.2c1.1-1.5,2-3.1,2.7-4.9c0.2-0.4,0.3-0.9,0.5-1.3l0.2-0.7l0.2-0.7l0.4-1.4l0.3-1.4l0.2-0.7
		c0-0.2,0.1-0.5,0.1-0.7l0.2-1.4c0.1-0.9,0.1-1.9,0.2-2.8c0,1,0,1.9,0,2.9l-0.1,1.4c0,0.2,0,0.5,0,0.7l-0.1,0.7l-0.2,1.4l-0.3,1.4
		l-0.2,0.7L81.2,78c-0.1,0.5-0.3,0.9-0.4,1.4c-0.6,1.8-1.4,3.6-2.5,5.3c-0.3,0.6-0.7,1.1-1.1,1.6c1.8-0.5,4.2-1.4,5-2.9
		c0.1-0.2,0.4-0.4,0.7-0.4c0.3,0,0.6,0.1,0.8,0.3c1.6,1.7,2,3.1,2.1,4.1c2.1-1,5.6-3.1,6.2-6.5c0.1-0.4,0.4-0.7,0.9-0.7h0
		c0.4,0,0.8,0.3,0.9,0.8c0.2,1.6,1.5,2.3,2.2,2.6l3.9-8.3c0.2-0.3,0.5-0.6,0.9-0.5c0.4,0,0.7,0.3,0.8,0.7c0,0.1,0.6,2.8,3.5,3.4
		c-0.6-2-0.3-4.7,0.5-6.8c0.5-1.3,1.2-2.3,1.9-2.9c-0.2-0.2-0.5-0.3-0.7-0.5c0,0-0.1,0-0.1,0l-2.3-1.3l-1.2-0.7l-0.3-0.2
		c0,0-0.1-0.1-0.2-0.1c-0.1,0-0.1-0.1-0.2-0.1c-0.2-0.2-0.4-0.4-0.5-0.7l0,0l0,0l-0.4-4.7l1.1,4.5c0.1,0.1,0.2,0.2,0.3,0.3
		c0.1,0,0.1,0,0.2,0.1l0.3,0.1l1.3,0.4l2.5,0.8c0.1,0,0.2,0.1,0.2,0.1c0.1,0,0.1,0.1,0.2,0.1c3.9,3,11.5,2.9,12.4,2.7
		c0.3-0.1,0.6,0,0.8,0.2c0.5,0.4,1.4,0.7,2.7,0.8c0.6,0.1,1.2-0.2,1.6-0.7l0.3-0.5L124,69l-0.1,0l0,0l-0.9-0.6
		c-0.2-0.1-0.3-0.2-0.5-0.3c-0.2-0.1-0.3-0.2-0.4-0.4c0.2-0.1,0.4,0,0.6,0.1c0.2,0,0.4,0.1,0.5,0.2l1.1,0.3l-0.1,0l2.3,0.5
		c0,0,0.1,0,0.1,0c0.1,0,0.2,0,0.4,0l0.4,0.1c0,0,0.1,0,0.1,0l0.2-0.4C128,68.2,128,67.8,128,67.5C128,67.5,128,67.5,128,67.5z
		 M111,67.1c-0.6,0-1.4-0.7-0.8-0.9c0.8-0.4,0.4-1,1.1-1s1.2,0.5,1.2,1.2C112.4,66.9,111.6,67.1,111,67.1z M113.4,58.9l-0.2-0.1
		l-0.5-0.2c-0.3-0.1-0.7-0.3-1-0.4l-0.8-0.4c-0.2,0.1-0.4,0.2-0.7,0.2c-0.8,0-1.5-0.6-1.5-1.4c0-0.8,0.6-1.5,1.4-1.5
		c0.8,0,1.5,0.6,1.5,1.4c0,0.1,0,0.1,0,0.2l0.6,0.7l0.7,0.7l0.4,0.4l0.2,0.2c0.1,0.1,0.1,0.1,0.1,0.3
		C113.5,59,113.5,58.9,113.4,58.9z"/>
	<path class="st0" d="M80.3,102.5c0-0.1-0.2-0.3-0.3-0.5c-0.3-0.5-0.7-1.1-1-1.9c-0.3,0.4-0.9,0.7-2.3,0.8c-1,1.2-2.1,1.1-2.7,0.9
		c0.6,0.5,1,1.1,1.4,1.7c0.2,0.3,0.4,0.6,0.7,0.9c0.6,0.7,0.9,1.4,1,2.2c0.3,3.2-1.1,6.4-2,8.1c0.2,0,0.4,0.1,0.5,0.3
		c0.1,0.2,0.2,0.4,0.2,0.7l-0.3,3.1l3,0.6l2.3-14C80.8,105.2,80.9,103.8,80.3,102.5z"/>
	<path class="st0" d="M78.3,120.4l-3.2-0.7c0,0.1-0.5,2.3-0.5,2.3l4,2.8C78.6,124.8,78.3,120.5,78.3,120.4z"/>
	<polygon class="st0" points="2,124.9 2.6,126.2 7.4,126.1 5.1,123.7 	"/>
	<path class="st0" d="M3.3,94.7c0.6,0,1.1,0,1.6,0.1l0.1,0c0.1,0,0.3,0.1,0.3,0.2c0.2,0.6,0.5,1.2,0.7,1.8L6.1,97
		c1.1-1.4,2.5-3.5,3.9-6c0-0.1-0.1-0.2-0.1-0.4c-0.1-1.3-0.5-5-1.5-6.4c-0.2-0.3-0.5-0.6-0.8-0.9c-0.1,0.8-0.2,1.5-0.4,2.3
		c-0.2,0.7-0.5,1.5-0.8,2.2s-0.7,1.4-1,2.1c-0.8,1.3-1.7,2.6-2.7,3.7c-0.4,0.4-0.7,0.7-1.1,1.1c0,0,0.1,0,0.1,0
		C2.2,94.7,2.8,94.6,3.3,94.7z"/>
	<path class="st0" d="M3.5,76c0.8,1.9,2.4,3.3,3.9,4.7c0.9,0.8,1.8,1.6,2.4,2.5c0.9,1.2,1.4,3.3,1.7,5c0.7-1.6,1.4-3.2,1.9-4.8
		c-7-5.9-8.7-13.6-8.9-19.2c-0.1-2.4,0.4-4.7,1.2-6.8C2.7,61.3,0.3,67.4,3.5,76z"/>
	<path class="st0" d="M91.2,15.8c0.2,2.2,0.4,4.3,0.6,6.5c0.4,3.6,0.7,7.3,1.3,10.9c0.2,0.9,0.3,1.7,0.6,2.5
		c0.3,0.8,0.7,1.5,1.2,2.2c0.5,0.7,1.1,1.3,1.7,1.7l0.2,0.2l0.3,0.2c0.2,0.1,0.4,0.3,0.6,0.4c0.4,0.3,0.8,0.6,1.2,0.9
		c1.5,1.3,2.7,2.8,3.8,4.3c0.9,1.4,1.8,2.8,2.5,4.3c0.9-0.2,2.4-0.4,3.8-0.3c-0.1-0.4-0.3-0.8-0.5-1.2c-0.4-0.8-0.8-1.6-1.3-2.4
		c-1-1.5-2.3-2.8-3.7-3.9c-0.7-0.6-1.5-1.1-2.3-1.5c-0.9-0.5-1.7-1.1-2.5-1.8c-0.7-0.7-1.4-1.4-2.1-2.2c-0.6-0.8-1.2-1.6-1.6-2.6
		c-0.1-0.2-0.2-0.5-0.3-0.8l-0.1-0.4l-0.1-0.4l-0.3-1.4l-0.6-2.8c-0.4-1.9-0.8-3.7-1.2-5.6c-0.4-1.9-0.7-3.7-1.1-5.6
		C91.4,16.7,91.3,16.2,91.2,15.8z"/>
	<polygon class="st0" points="22.5,126.7 23.1,128 28,128 25.7,125.7 	"/>
	<path class="st0" d="M4.3,122.7L3,120.1c-0.1-0.2-0.1-0.4-0.1-0.5l2.5-15.8c0-0.2,0.1-0.3,0.2-0.5l2.1-2.4c0.2-0.3,1.3-1.1,1.4-1.6
		c-0.2,0.1-0.3,0.2-0.5,0.2c-0.4,0.2-0.8,0.3-1.3,0.3C7,100,6.5,100,6.1,100c-0.2,0-0.5,0-0.8,0c-0.2,0-0.5-0.1-0.7-0.3
		c-0.3-0.4-0.3-0.9,0.1-1.3c0,0,0.1-0.1,0.2-0.1c0.4-0.3,0.5-0.9,0.3-1.4l-0.6-1.3c-0.9,0.1-1.8,0.2-2.7,0.4v0L0,119.7l0.6,0.2
		c0.3,0.1,0.5,0.3,0.5,0.6l0.7,3.1C1.8,123.7,4.1,122.8,4.3,122.7z"/>
	<path class="st0" d="M21.1,122.5c0,0.1,0.4,1.1,0.7,2c0.1,0.3,0.2,0.7,0.3,1l2.8-1c-0.1-0.1-0.2-0.3-0.2-0.5
		c-1.3-2.6-4.1-8.3-4.9-10.9c-0.8-2.7-0.8-6.6-0.7-9c-0.1,0.3-0.3,0.5-0.4,0.8c-0.2,0.3-0.3,0.7-0.4,1l0,0c-0.2,0.5-0.7,0.7-1.2,0.6
		c0,0,0,0-0.1,0c-0.6-0.3-1.1-0.6-1.5-1c-0.4-0.4-0.8-0.8-1.2-1.2c-0.1-0.1-0.2-0.2-0.2-0.3l5.6,18c0.2,0,0.4-0.1,0.4-0.1
		C20.4,121.9,20.9,122.1,21.1,122.5z"/>
</g>
</svg>
