<?xml version="1.0" encoding="utf-8"?>
<!-- Generator: Adobe Illustrator 18.1.0, SVG Export Plug-In . SVG Version: 6.00 Build 0)  -->
<svg version="1.1" baseProfile="tiny" id="Layer_1" xmlns="http://www.w3.org/2000/svg" xmlns:xlink="http://www.w3.org/1999/xlink"
	 x="0px" y="0px" viewBox="0 0 184 128" 
width="184" height="128"
xml:space="preserve">
<path fill="#2D2D2D" d="M95.5,0.4L42.5,0c-0.5,0-1,0.4-1,0.9c0,0.5,0.4,1,0.9,1l46.5,4.6c45.5,5.6,49.1,10.2,49.1,16
	c0,8.3-25.3,15.4-52.1,22.9C45.4,56.9-0.5,69.8-0.5,94.4c0,13.5,7.7,23.5,22.2,29c11.4,4.3,23.5,4.6,27,4.6c0.6,0,0.9,0,0.9,0h87.2
	c0,0,0,0,0,0c0.5,0,1-0.4,1-1c0-0.5-0.4-0.9-0.9-1c-1.8-0.4-40.8-8.7-40.8-33.2c0-15.6,25.7-26.6,48.5-36.3
	c20.8-8.9,38.8-16.5,38.8-27C183.5,25.2,179.2,3.4,95.5,0.4z M59.4,99.6c0.3-1.2,1.1-2.1,2.4-2.8c1.1-0.6,2.3-0.8,3.4-0.8
	c3.4,0,6,2.7,7.1,4.9c1.3,2.6,2.1,7.4,2.1,7.6l0.1,0.7l-7.6,3.8l-0.5-0.6c-0.1-0.2-3.1-3.9-4-5.2c-0.1-0.1-0.2-0.2-0.3-0.4
	C61.1,105.5,58.8,102.4,59.4,99.6z M55.7,77.6l-0.7,0.5l-6.1-5.9l0.3-0.6c0.1-0.2,2.2-4.6,4.2-6.7c1.3-1.4,3.7-2.9,6.3-2.9
	c1.8,0,3.5,0.7,4.9,2.1c1.1,1,1.5,2.1,1.5,3.4c-0.2,2.8-3.3,5-4.8,6.1c-0.1,0.1-0.3,0.2-0.4,0.3C59.8,74.8,55.9,77.5,55.7,77.6z
	 M68.7,115.4l5.8-2.9c0.6-0.3,1.4,0,1.7,0.5l2,3.9c0.4,0.8,0.5,1.7,0.2,2.6c-0.3,0.8-0.9,1.5-1.7,1.9l-2,1c-0.5,0.2-1,0.4-1.5,0.4
	c-1.3,0-2.4-0.7-3-1.8l-2-3.9C67.9,116.5,68.1,115.7,68.7,115.4z M77.3,84.1c-1.1,0-2.1-0.5-2.7-1.4l-1.3-1.8
	c-0.5-0.7-0.7-1.6-0.6-2.5c0.1-0.9,0.6-1.7,1.3-2.2l3.5-2.6c0.5-0.4,1.3-0.3,1.7,0.3l3.8,5.2c0.4,0.6,0.3,1.3-0.3,1.7l-3.5,2.6
	C78.7,83.9,78,84.1,77.3,84.1z M41.8,108.3l3,3.2c1.3,1.3,1.2,3.5-0.1,4.7l-1.6,1.6c-0.6,0.6-1.4,0.9-2.3,0.9c-0.9,0-1.8-0.4-2.4-1
	l-3-3.2c-0.2-0.2-0.3-0.6-0.3-0.9c0-0.3,0.1-0.6,0.4-0.9l4.7-4.5C40.5,107.8,41.3,107.8,41.8,108.3z M25.2,95.4
	c0.9-0.9,1.9-1.3,3-1.3c3,0,5.3,3.6,6.3,5.1c0.1,0.2,0.2,0.3,0.2,0.4c0.9,1.2,3.4,5.3,3.5,5.5l0.4,0.7l-6.2,5.9l-0.6-0.3
	c-0.2-0.1-4.5-2.5-6.4-4.5c-1.3-1.3-2.2-3.2-2.5-4.9C22.6,99.4,23.4,97.2,25.2,95.4z M45,83.9l-1.6-1.6C42,81.1,42,79,43.2,77.6
	l3-3.2c0.5-0.5,1.3-0.5,1.8,0l4.7,4.5c0.2,0.2,0.4,0.5,0.4,0.9c0,0.3-0.1,0.6-0.3,0.9l-3,3.2c-0.6,0.7-1.5,1-2.4,1
	C46.4,84.8,45.6,84.5,45,83.9z M97.1,69.8c-0.6,1.6-1.9,3.3-3.4,4.4c-2.3,1.7-7,3.2-7.2,3.3l-0.7,0.2l-5-6.9l0.5-0.6
	c0.1-0.2,3.4-3.7,4.5-4.8c0.1-0.1,0.2-0.2,0.3-0.3c1.2-1.3,3.7-3.9,6.4-3.9c0.9,0,2.3,0.3,3.4,1.9C97.6,65.2,97.9,67.5,97.1,69.8z
	 M128.5,49.4l2.7,3.7c0.4,0.5,0.3,1.3-0.3,1.6l-2.5,1.8c-0.5,0.3-1,0.5-1.6,0.5c-0.8,0-1.6-0.4-2.1-1.1l-0.9-1.3
	c-0.4-0.6-0.6-1.3-0.5-2c0.1-0.7,0.5-1.3,1.1-1.7l2.5-1.8C127.4,48.8,128.1,48.9,128.5,49.4z M121,47.3c-0.1,2.1-2.4,3.8-3.5,4.6
	l-0.3,0.2c-0.9,0.7-3.7,2.6-3.8,2.7l-0.7,0.5l-4.7-4.5l0.3-0.6c0.1-0.1,1.6-3.3,3-4.8c1-1,2.7-2.2,4.7-2.2c1.4,0,2.6,0.5,3.7,1.6
	C120.9,45.7,121.1,46.7,121,47.3z M103.2,55l2.1-2.2c0.4-0.5,1.2-0.5,1.6,0l3.3,3.2c0.2,0.2,0.4,0.5,0.4,0.8s-0.1,0.6-0.3,0.8
	l-2.1,2.2c-0.5,0.5-1.2,0.8-1.9,0.8c-0.6,0-1.3-0.3-1.8-0.7l-1.2-1.1c-0.5-0.5-0.8-1.1-0.8-1.9C102.4,56.2,102.7,55.6,103.2,55z
	 M141.9,46.2c-0.6,1.7-1.9,2.8-2.5,3.2c-1.7,1.2-5,2.3-5.1,2.4l-0.7,0.2l-3.8-5.2l0.5-0.6c0.1-0.1,2.4-2.6,3.2-3.4l0.2-0.2
	c0.9-0.9,2.7-2.9,4.8-2.9c0.7,0,1.8,0.3,2.7,1.5C142.3,42.8,142.5,44.5,141.9,46.2z"/>
</svg>
