<?xml version="1.0" encoding="utf-8"?>
<!-- Generator: Adobe Illustrator 18.1.0, SVG Export Plug-In . SVG Version: 6.00 Build 0)  -->
<svg version="1.1" id="Layer_1" xmlns="http://www.w3.org/2000/svg" xmlns:xlink="http://www.w3.org/1999/xlink" x="0px" y="0px"
	 viewBox="0 0 128 128" 
width="128" height="128"
enable-background="new 0 0 128 128" xml:space="preserve">
<g>
	<path fill="#2D2D2D" d="M53.5,41.9c-1.1,1.9-2.5,3.5-4.3,4.9c0,0.1,0,0.2,0,0.2v12h6.6V46.8c0-1.1,0.9-2,2-2h14c1.1,0,2,0.9,2,2V59
		h7.6V40.8c-3.7,0.9-9.2,1.7-16.6,1.7C61.7,42.5,55.9,42.1,53.5,41.9C53.5,41.9,53.5,41.9,53.5,41.9z"/>
	<path fill="#2D2D2D" d="M54.4,39.9c2.6,0.2,7.7,0.6,10.3,0.6c11.3,0,17.9-2,20.6-3L64.7,16.7L54.4,27.3c1.2,2.8,1.6,5.9,1,9.1
		C55.2,37.7,54.9,38.8,54.4,39.9z"/>
	<path fill="#2D2D2D" d="M83.1,65.1L72.4,80.6C72,81,71.5,81.2,71,81.2c-0.2,0-0.4,0-0.7-0.1c-0.7-0.2-1.2-0.9-1.3-1.6
		c-0.1-1.4-0.4-2.7-0.7-4.4c-0.4-2.4-0.9-5.4-1.4-10h-2.7c-0.2,9.4-0.8,11.4-2.7,17.7l-0.3,0.9c-0.2,0.6-0.6,1-1.2,1.2
		c-0.2,0-0.3,0.1-0.5,0.1c-0.4,0-0.8-0.1-1.1-0.4c-3.4-2.9-6.6-9.1-9.2-14.2c-1.1-2.2-2.1-4-2.9-5.3h-3c4.9,6.3,13.3,22.3,13.3,32.7
		c0,11-1.8,25.2-3.3,30l0.1,0.1h22.4l0-0.1l0.1-0.2l-2.9-19c-1.8-6.5-0.9-13.6,2.5-19.4c0.8-1.3,1.6-2.8,2.4-4.6l9.3-19.6H83.1z"/>
	<polygon fill="#2D2D2D" points="57.9,59 71.8,59 71.8,46.8 57.8,46.8 	"/>
	<path fill="#2D2D2D" d="M36,62c0,0.6,0.5,1,1,1h51.9h0H93c0.6,0,1-0.5,1-1s-0.5-1-1-1H37C36.4,61,36,61.5,36,62z"/>
	<path fill="#2D2D2D" d="M59.4,82.7l0.1-0.5c1.8-6.2,2.4-8.1,2.6-17.1H48.7c0.7,1.2,1.5,2.7,2.3,4.4C53.4,74.1,56.4,79.9,59.4,82.7z
		"/>
	<path fill="#2D2D2D" d="M102.5,50.8l-0.7-0.6l0.6-0.8c6.3-8.5,6.8-19.7,1.3-28.5c-4.8-7.8-13.3-11.8-22-10.5L81,10.5l-0.4-0.6
		C77,4.1,65.9,0,58.3,0C43.4,0,31.2,11.9,31.2,26.6c0,2.2,0.3,4.4,0.8,6.5l0.2,0.8l-0.8,0.3c-9.4,4-15.5,13.1-15.5,23.2
		c0,13.9,11.6,25.3,25.8,25.3c2.9,0,5.7-0.5,8.4-1.4c0,0,0,0,0.1,0c-3.2-7.3-7.4-14-9.5-16.2H37c-1.7,0-3.1-1.4-3.1-3
		c0-1.7,1.4-3,3.1-3h10.2V48.1c-2.5,1.4-5.2,2.1-8,2.1c-0.9,0-1.8-0.1-2.8-0.2c-0.6-0.1-0.9-0.6-0.8-1.2c0.1-0.6,0.6-0.9,1.2-0.8
		c3.8,0.6,7.6-0.2,10.7-2.5c3.1-2.2,5.2-5.6,5.9-9.4c1.4-7.9-3.9-15.3-11.7-16.6c-0.6-0.1-0.9-0.6-0.8-1.2c0.1-0.6,0.6-0.9,1.2-0.8
		c5,0.8,9,3.9,11.4,7.9L63.5,15c0.7-0.6,1.7-0.6,2.3-0.1l21.3,21.5c0.4,0.3,0.6,0.9,0.5,1.5c-0.1,0.6-0.5,1-1,1.3
		c-0.7,0.3-1.7,0.7-3.2,1.1V59H93c1.7,0,3.1,1.4,3.1,3c0,1.7-1.4,3-3.1,3h-3.5l-7.6,16c0.1,0,0.1,0,0.2,0c2.4,1.1,5,1.6,7.6,1.6
		c10.1,0,18.3-8,18.3-17.9C107.9,61.3,107.2,54.9,102.5,50.8z"/>
	<path fill="#2D2D2D" d="M71,79l9.6-13.9H69c0.5,4.4,1,7.3,1.4,9.6C70.6,76.3,70.9,77.6,71,79z"/>
</g>
</svg>
