<?xml version="1.0" encoding="utf-8"?>
<!-- Generator: Adobe Illustrator 18.1.0, SVG Export Plug-In . SVG Version: 6.00 Build 0)  -->
<svg version="1.1" baseProfile="tiny" id="Layer_1" xmlns="http://www.w3.org/2000/svg" xmlns:xlink="http://www.w3.org/1999/xlink"
	 x="0px" y="0px" viewBox="0 0 128 128" 
width="128" height="128"
xml:space="preserve">
<g>
	<path fill="#2D2D2D" d="M98.2,85.7l-3.5-15.1c-0.1-0.5-0.7-0.9-1.2-0.8c-0.5,0.1-0.9,0.7-0.8,1.2l3.4,14.6L98.2,85.7z"/>
	<path fill="#2D2D2D" d="M36.1,75.4c-2.2,0.9-3.3,3.4-2.3,5.6l2,4.5l0.2,0.3l9.2,0l-3.4-8.1C40.8,75.5,38.3,74.4,36.1,75.4z"/>
	<path fill="#2D2D2D" d="M73.6,77.7c-0.9-2.2-3.4-3.2-5.7-2.3c-2.2,0.9-3.3,3.4-2.3,5.6l2,4.5l0.1,0.3l9.2,0L73.6,77.7z"/>
	<path fill="#2D2D2D" d="M42.6,111.7c-2.6,0-4.7,2.1-4.7,4.7s2.1,4.7,4.7,4.7c2.6,0,4.7-2.1,4.7-4.7S45.2,111.7,42.6,111.7z"/>
	<path fill="#2D2D2D" d="M42.5,104.8c-6.4,0-11.6,5.2-11.6,11.6c0,6.4,5.2,11.6,11.6,11.6s11.6-5.2,11.6-11.6
		C54.1,110,48.9,104.8,42.5,104.8z M42.6,123.2c-3.7,0-6.8-3-6.8-6.7s3-6.7,6.8-6.7c3.7,0,6.8,3,6.8,6.7S46.3,123.2,42.6,123.2z"/>
	<path fill="#2D2D2D" d="M90,106l5.2-19.2H73.1v19.2h16.8C89.9,106.1,90,106,90,106z M80.3,94.3h-3c-0.6,0-1-0.5-1-1s0.5-1,1-1h3
		c0.6,0,1,0.5,1,1S80.9,94.3,80.3,94.3z"/>
	<path fill="#2D2D2D" d="M23.4,97.3h3.7c2.6,0,4.7-2.1,4.7-4.7v-5.8h-8.5V97.3z"/>
	<path fill="#2D2D2D" d="M106.4,111.7c-2.6,0-4.7,2.1-4.7,4.7s2.1,4.7,4.7,4.7c2.6,0,4.7-2.1,4.7-4.7S109,111.7,106.4,111.7z"/>
	<path fill="#2D2D2D" d="M59,106c0,0,0.1,0.1,0.1,0.1H71V86.8H46.4L59,106z M56.3,92.3h2.5c0.6,0,1,0.5,1,1s-0.5,1-1,1h-2.5
		c-0.6,0-1-0.5-1-1S55.8,92.3,56.3,92.3z"/>
	<path fill="#2D2D2D" d="M124.8,89.8l-27.3-3h-0.2L92,106.6c-0.3,0.9-1.1,1.5-2.1,1.5H59.1c-0.7,0-1.4-0.4-1.8-1L44,86.8H33.9v5.8
		c0,3.7-3,6.7-6.8,6.7h-3.7v16.2h5.5c0.4-7.1,6.4-12.8,13.6-12.8s13.2,5.6,13.6,12.8h36.5c0.4-7.1,6.4-12.8,13.6-12.8
		c7.2,0,13.1,5.6,13.6,12.7l7.2-0.7c0.5-0.2,0.9-0.7,0.9-1.2V93.4C128,91.5,126.6,90,124.8,89.8z M119,102.7c-2.1,0-3.9-1.7-3.9-3.9
		c0-2.1,1.7-3.9,3.9-3.9c2.1,0,3.9,1.7,3.9,3.9C122.9,101,121.2,102.7,119,102.7z"/>
	<ellipse fill="#2D2D2D" cx="119" cy="98.9" rx="1.9" ry="1.8"/>
	<path fill="#2D2D2D" d="M106.3,104.8c-6.4,0-11.6,5.2-11.6,11.6c0,6.4,5.2,11.6,11.6,11.6c6.4,0,11.6-5.2,11.6-11.6
		C117.9,110,112.7,104.8,106.3,104.8z M106.4,123.2c-3.7,0-6.8-3-6.8-6.7s3-6.7,6.8-6.7c3.7,0,6.8,3,6.8,6.7
		S110.1,123.2,106.4,123.2z"/>
	<path fill="#2D2D2D" d="M21.6,22.7L38.5,4c0.2-0.2,0.5-0.3,0.8-0.3h13.4c0.6,0,1,0.5,1,1v18.2h4V4.7c0-0.6,0.5-1,1-1h7.6
		c1,0,1.8-0.8,1.8-1.8c0-1-0.8-1.8-1.8-1.8H36.7L16.3,22.9h5.2C21.5,22.8,21.5,22.8,21.6,22.7z"/>
	<path fill="#2D2D2D" d="M105.1,30.6l1.1-5.7H0c0.8,2,1.7,3.9,2.8,5.7H105.1z"/>
	<path fill="#2D2D2D" d="M43.7,42.2c3.3,4.1,8.2,6.5,13.4,6.5c5.2,0,10.1-2.4,13.4-6.5c3.3,4.1,8.2,6.5,13.4,6.5
		c5.2,0,10.1-2.4,13.4-6.5c3.3,4.1,8.2,6.5,13.4,6.5c0.6,0,1-0.5,1-1s-0.5-1-1-1c-3,0-5.9-0.9-8.3-2.5l2.5-12.4c0,0-89.9,0-101.7,0
		c2.2,5,8.1,9.5,10.3,11c-2.8,2.5-6.3,3.9-10,3.9c-0.6,0-1,0.5-1,1s0.5,1,1,1c5.2,0,10.1-2.4,13.4-6.5c3.3,4.1,8.2,6.5,13.4,6.5
		C35.5,48.7,40.4,46.3,43.7,42.2z"/>
</g>
</svg>
