<?xml version="1.0" encoding="utf-8"?>
<!-- Generator: Adobe Illustrator 23.0.0, SVG Export Plug-In . SVG Version: 6.00 Build 0)  -->
<svg version="1.1" id="Layer_1" xmlns="http://www.w3.org/2000/svg" xmlns:xlink="http://www.w3.org/1999/xlink" x="0px" y="0px"
	 viewBox="0 0 128 128" 
width="128" height="128"
style="enable-background:new 0 0 128 128;" xml:space="preserve">
<style type="text/css">
	.st0{fill:#2D2D2D;}
</style>
<g>
	<path class="st0" d="M35.4,124.8c-0.2,1-0.8,2-1.7,2.6c-0.1,0.1-0.2,0.1-0.3,0.2c2.1,0.1,4.2,0.3,6.3,0.3c0.4-0.3,0.8-0.6,1.2-1
		c0.3-0.3,0.4-0.6,0.6-0.9c0.1-0.3,0.3-0.7,0.4-1c0.2-0.7,0.2-1.4,0.2-2.2c0-0.4-0.1-0.7-0.2-1.1c0-0.2-0.1-0.4-0.2-0.6
		c-2.4,0.1-4.7,0.1-7.1,0c0.2,0.3,0.3,0.5,0.5,0.8C35.6,122.8,35.7,123.8,35.4,124.8z"/>
	<path class="st0" d="M9.1,116.9c-0.9,0.6-2.1,1-3.3,0.9c-0.4,0-0.8-0.1-1.2-0.3c0.7,0.8,1.6,1.6,2.4,2.3c1.3,1,2.8,1.9,4.4,2.7
		c0.8,0.4,1.6,0.7,2.4,1.1c0,0,0,0,0.1,0l0.6-0.2c0.2-0.1,0.4-0.2,0.5-0.2c0.7-0.4,1.3-0.9,1.8-1.6c0.5-0.7,0.8-1.4,1-2.2
		c0.1-0.4,0.2-0.8,0.3-1.2c0-0.1,0-0.3,0.1-0.4c-1-0.4-2-1-3-1.6c-0.2-0.1-0.4-0.2-0.6-0.4c-0.2-0.2-0.4-0.3-0.6-0.5
		c-0.4-0.3-0.7-0.7-1-1.1c-0.4-0.5-0.7-1-1-1.5c-0.1,0.6-0.3,1.1-0.6,1.6C10.7,115.5,10,116.3,9.1,116.9z"/>
	<path class="st0" d="M18.2,122.7c-0.6,0.8-1.4,1.5-2.4,1.8c0.1,0,0.2,0.1,0.3,0.1c1.6,0.6,3.3,1,5,1.4c0.4,0.1,0.7,0.1,1.1,0.2
		c0.4-0.1,0.8-0.3,1.2-0.6c0.6-0.4,1.2-1,1.6-1.6c0.4-0.6,0.7-1.4,0.8-2.1c0.1-0.4,0.1-0.8,0.2-1.1c0-0.2,0-0.3,0-0.5
		c-2-0.4-4.1-0.9-6-1.5c-0.4-0.1-0.7-0.3-1.1-0.4c0.2,0.5,0.2,1.1,0.2,1.6C19.1,120.8,18.8,121.8,18.2,122.7z"/>
	<path class="st0" d="M7.6,107.9c-1,0.4-2,0.7-3.2,0.6c-1.1-0.1-2.3-0.5-3.2-1.2c-0.6-0.5-1-1.1-1.2-1.7c0,0.5,0,0.9,0.1,1.4
		c0.2,3.4,1.3,6.7,3.3,9.4c0.7,0.1,1.4,0.2,2.1,0.1c0.9-0.2,1.7-0.5,2.5-1c0.8-0.5,1.5-1.1,2.1-1.8c0.5-0.5,0.9-1,1.3-1.6
		c-0.9-1.9-1.3-3.9-1.4-6C9.3,106.9,8.5,107.4,7.6,107.9z"/>
	<path class="st0" d="M5.4,98.7c-1.1-0.4-2.1-1.1-2.8-2.1c-0.4-0.5-0.6-1.1-0.7-1.7c-0.2,0.6-0.5,1.1-0.6,1.7
		c-0.7,2.5-1.2,5-1.3,7.5c0.5,0.7,1.2,1.3,1.9,1.7c0.8,0.4,1.7,0.6,2.6,0.7c0.9,0.1,1.8,0,2.7-0.2c0.9-0.2,1.8-0.4,2.6-0.7
		c0-0.6,0-1.2,0.1-1.9c0,0,0,0,0,0c0.1-0.9,0.2-1.7,0.4-2.6c0.3-1.2,0.7-2.3,1.2-3.4c-0.9,0.8-1.9,1.1-2.9,1.3
		C7.6,99.2,6.5,99.1,5.4,98.7z"/>
	<path class="st0" d="M26.7,124.9c-0.4,0.7-1.1,1.3-1.8,1.7c2.2,0.3,4.4,0.6,6.6,0.8c0.4-0.3,0.8-0.6,1.1-1c0.5-0.6,0.8-1.3,1-2
		c0.2-0.7,0.2-1.5,0.1-2.3c0-0.4-0.1-0.7-0.2-1.1c-0.9-0.1-1.9-0.1-2.8-0.2c-1.3-0.1-2.5-0.3-3.8-0.5c0.3,0.6,0.5,1.2,0.5,1.8
		C27.4,123.1,27.2,124.1,26.7,124.9z"/>
	<path class="st0" d="M110.9,46.4c-0.3-0.6-0.6-1.2-0.8-1.8c-0.2-0.5-0.2-1-0.4-1.3c-0.1-0.2-0.2-0.3-0.4-0.3
		c-0.2,0-0.5,0.1-0.7,0.2c-0.5,0.3-0.7,0.7-1,1.1c-0.3,0.4-0.4,0.7-0.6,1.1c-0.2,0.4-0.3,0.8-0.6,1.3c-0.1,0.1-0.1,0.2-0.2,0.4
		c0.3-0.1,0.6-0.2,0.8-0.3C108.4,46.5,109.7,46.4,110.9,46.4z"/>
	<path class="st0" d="M12.4,92.3c-0.3,0-0.6-0.1-0.8-0.2c-0.6-0.1-1.1-0.4-1.6-0.7c-0.5-0.3-1-0.6-1.5-0.7c-0.5-0.2-1.2-0.1-1.7-0.3
		c-0.6-0.2-1-0.6-1.4-1c-0.1-0.1-0.1-0.2-0.2-0.3c-0.9,1.5-1.9,3-2.7,4.6c0.3,0.7,0.7,1.3,1.2,1.8c0.7,0.6,1.5,1.1,2.4,1.4
		c0.9,0.3,1.8,0.5,2.7,0.6c0.9,0.1,1.9,0.1,2.8,0.1c0,0,0.1,0,0.1,0c1-2,2.3-3.8,3.8-5.3c0.2-0.2,0.3-0.4,0.4-0.6
		c0-0.1,0.1-0.2,0.1-0.3c-0.8,0.6-1.8,1-2.8,1.1C13,92.3,12.7,92.3,12.4,92.3z"/>
	<path class="st0" d="M37.3,97.2c-1.6,2-3.7,3.6-5.8,4.9c0.1,0.3,0.1,0.7,0.2,1l0.1,0.6c0,0.2,0,0.5,0,0.7c0,0.1-0.1,0.2-0.1,0.3
		c0,0.1,0,0.1,0,0.2c0,0.2,0,0.3,0,0.5c0,0.7,0.2,1.4,0.5,1.9c0.2,0.3,0.3,0.5,0.5,0.7c0.1,0.1,0.2,0.1,0.3,0.2l0.5,0.3
		c0.2,0.1,0.4,0.2,0.5,0.4c0.1,0.1,0.2,0.1,0.3,0.2l0.2,0.2l0.9,0.8l1.7,1.5c0.6,0.5,1.1,1,1.7,1.5c0.6,0.5,1.2,0.9,1.7,1.2l0.2,0.1
		l0,0.1c0.9,1.2,2.5,2,4.1,2.2c1.7,0.1,3.4,0,5.2,0l0.6,0l0.3,0c0.1,0,0.1,0,0.1,0c0,0,0,0,0.1,0c0.2-0.1,0.2-0.3,0.1-0.4
		c-0.5-0.6-1-1.2-1.7-1.6c-1.3-0.8-2.9-1.1-4.5-1l-0.4,0l-0.3-0.3c-0.6-0.6-1-1.2-1.5-1.8c-0.4-0.6-0.9-1.1-1.3-1.6
		c-0.5-0.5-0.9-1-1.4-1.4c-0.5-0.4-1-0.7-1.6-1l-0.3-0.1l-0.1-0.2c-0.2-0.3-0.4-0.7-0.6-1.2c-0.1-0.5-0.2-1,0-1.5
		c0.2-1,0.9-1.6,1.5-2.1c0.6-0.5,1.2-0.8,1.7-1.1c0.5-0.3,1.1-0.7,1.6-1.1c0.5-0.4,1-0.8,1.4-1.2c0.4-0.5,0.9-0.9,1.2-1.4
		c0.6-0.9,1.1-1.8,1.4-2.9c-5.3,0.1-8.5,2-8.6,2C37.7,96.8,37.3,97.1,37.3,97.2z"/>
	<path class="st0" d="M52.7,122.5c0.3,0.9,0.4,1.9,0.1,2.8c-0.1,0.5-0.4,0.9-0.7,1.4c-0.3,0.4-0.7,0.8-1.1,1
		c-0.1,0.1-0.2,0.1-0.3,0.2c0.7,0,1.4-0.1,2.1-0.1c1.8-0.2,3.5-0.5,5.2-0.9c0.9-0.2,1.7-0.5,2.5-0.8l0.3-0.1l0.1,0l0-0.1
		c0-0.1,0-0.2,0-0.3c0-0.2-0.1-0.4-0.1-0.6c0-0.2-0.1-0.4-0.2-0.6c-0.5-1.6-1.8-2.9-3.4-3.6c-0.8-0.3-1.6-0.5-2.5-0.5l-0.6,0
		l-0.7,0.1l-1.3,0.1c-0.4,0-0.8,0.1-1.2,0.1C51.8,121,52.3,121.7,52.7,122.5z"/>
	<path class="st0" d="M43.8,122.7c0.3,0.9,0.4,1.9,0.2,2.8c-0.1,0.2-0.1,0.5-0.3,0.7c-0.1,0.2-0.2,0.5-0.4,0.7
		c-0.3,0.4-0.7,0.8-1.1,1c0,0,0,0-0.1,0c0,0,0.1,0,0.1,0c1.8,0,3.6,0,5.3,0c0.3,0,0.5,0,0.8,0c0.6-0.4,1.1-0.7,1.6-1.3
		c0.3-0.3,0.4-0.6,0.6-0.9c0.1-0.3,0.3-0.6,0.4-1c0.2-0.7,0.3-1.4,0.2-2.1c0-0.4-0.1-0.7-0.2-1.1c-0.1-0.3-0.2-0.7-0.3-1
		c-2.6,0.2-5.3,0.4-8,0.5C43.2,121.5,43.5,122.1,43.8,122.7z"/>
	<path class="st0" d="M92,109.3c-0.4-0.7-0.7-1.5-0.8-2.3c0-0.8,0.1-1.5,0.2-2.1c0.2-1.3,0.6-2.6,0.9-3.9c0.3-1.1,0.1-3-0.3-2.9
		c-1.4,0.5-2.9,0.8-4.4,1c-0.1,0.2-0.1,1.7-0.2,2.2c-0.1,0.7-0.1,1.4,0,2.1c0.1,1.4,0.5,2.7,1.1,3.8c0.1,0.1,0.2,0.3,0.3,0.4
		l0.3,0.4c0.2,0.3,0.4,0.6,0.7,0.9c0.4,0.6,0.8,1.2,1.3,1.8c0.4,0.6,0.8,1.2,1.2,1.8l0.6,0.9c0.2,0.3,0.4,0.6,0.6,0.9
		c0.4,0.5,1,0.8,1.7,0.8c0.7,0,1.5,0,2.2,0c1.4,0,2.8-0.2,4.1-0.3c-0.1-0.2-0.3-0.5-0.4-0.7c-0.4-0.5-0.9-0.9-1.4-1.1
		c-1.1-0.6-2.4-0.7-3.8-0.7l-0.3,0l-0.3-0.2c-0.6-0.3-1.1-0.7-1.7-1.2C93,110.5,92.4,110,92,109.3z"/>
	<path class="st0" d="M126.9,66.6c-0.6-0.4-1.1-1.5-0.7-2.1c0.2-0.2,0.4-0.3,0.7-0.4c-0.1-0.1-0.2-0.2-0.3-0.3c-0.7-0.6-1.4-1.3-2-2
		c-0.6-0.7-1.2-1.5-1.8-2.3c-0.5-0.9-0.9-1.7-1.2-2.6c-0.7-1.7-1.3-3.5-2.3-5c-0.5-0.5-1-1.1-1.6-1.5c-0.6-0.4-1.2-0.9-1.9-1.1
		c-1.3-0.6-2.7-0.9-4.1-1.1c-1.4-0.2-2.8-0.2-4.2-0.1c-1.4,0.2-2.7,0.5-4.1,0.9c0.2,0.7,0.4,1.4,0.4,2.2c0,0,0,0.1-0.1,0.1
		c0,0-0.1,0-0.1,0c-1.1-1.4-1.9-2.9-2.8-4.2c-0.2-0.3-0.4-0.7-0.6-1c-0.2-0.3-0.5-0.5-0.9-0.5c-0.3,0-0.7,0.3-0.9,0.6
		c-0.2,0.3-0.3,0.7-0.4,1.1c-0.1,0.8,0,1.6,0,2.5c0,0.8,0.1,1.7,0.3,2.4c0,0.1,0,0.1,0,0.1l0.1,0.1c0.1,0.1,0.2,0.2,0.3,0.4
		c0.1,0.1,0.3,0.3,0.5,0.5c0.1,0.1,0.2,0.2,0.3,0.3c0.1,0.1,0.1,0.2,0.2,0.3c0.5,0.7,0.9,1.5,1.2,2.3c0,0,0,0.1,0,0.1
		c0,0-0.1,0-0.1,0c-0.8-0.5-1.5-1-2.2-1.6c0,0-0.1,0-0.1-0.1c-1.2,1.1-2.1,2.4-2.7,3.9c-0.3,0.8-0.5,1.6-0.7,2.4
		c-0.1,0.4-0.1,0.8-0.2,1.2c-0.1,0.5-0.2,0.9-0.3,1.3c0,0.1-0.1,0.2-0.1,0.3c0.2,0.8,0.4,1.6,0.4,2.4c0,0.5,0,1.1,0,1.6
		c0,0.5-0.1,1-0.3,1.6c-0.3,1-0.9,2-1.4,2.9c-0.4,1-0.8,2-1.1,3c-0.2,0.5-0.3,1-0.5,1.5c-0.2,0.5-0.5,1-0.8,1.4
		c-0.6,0.9-1.4,1.8-2.4,2.5c-1.9,1.3-4.4,1.8-6.5,1.2c-0.1,0-0.1-0.1-0.1-0.2c0,0,0-0.1,0.1-0.1c1-0.6,1.9-1,2.7-1.5
		c0.8-0.5,1.6-1,2.3-1.6c0.7-0.6,1.4-1.1,2.1-1.8c0.7-0.7,1.4-1.4,2.1-2.1c0.7-0.8,1.3-1.6,1.5-2.6c0.2-1,0-2,0-3
		c0-0.5,0.1-1,0.2-1.5c0.1-0.4,0.1-0.7,0.2-1.1c-0.5,0.5-1.1,1-1.8,1.3c-0.8,0.5-1.8,0.8-2.7,0.9c-0.9,0.1-1.8,0.2-2.7,0.2l-0.1,0
		l-0.1,0c-1.4-0.3-2.9-0.4-4.4-0.2c-0.8,0.1-1.5,0.2-2.4,0.4c-0.8,0.1-1.7,0.2-2.7,0.1l-0.1,0l-0.1,0c-3.2-0.9-6.5-1.8-9.8-2.6
		c-3.3-0.8-6.6-1.5-9.9-2.2c-3.3-0.7-6.6-1.4-10-1.6c-1.7-0.1-3.4-0.1-5.1,0c-1.7,0.1-3.4,0.4-5,0.8c-3.3,0.7-6.4,2-9.5,3.4
		c-3.1,1.3-6,2.9-8.7,4.8c-2.7,1.9-5.1,4.2-7.2,6.8c-1.1,1.3-1.8,2.8-2.5,4.3c0.1,0.1,0.1,0.3,0,0.5c0,0,0,0,0,0
		c-0.1,0.1-0.2,0.3-0.4,0.4c-0.5,1.2-1,2.4-1.5,3.6c0,0,0,0,0,0l0,0C6.2,87.5,6,87.8,5.9,88c0.2,0.1,0.3,0.2,0.5,0.2
		c0.4,0.2,0.9,0.5,1.2,0.8c0.3,0.4,0.7,0.9,1.1,1.1c0.2,0.1,0.5,0.2,0.7,0.3c0.3,0,0.5,0,0.8,0c0.3,0,0.5-0.1,0.8-0.1
		c0.3,0,0.5,0,0.7,0l0.7,0c0.2,0,0.5,0,0.7,0c0.5,0.1,1,0,1.5,0.1c0.5,0.1,1,0.1,1.5,0.3c0.1-0.2,0.2-0.5,0.3-0.8
		c0.1-0.8,0.3-1.6,0.5-2.4c0.1-0.2,0.3-0.3,0.5-0.3c0,0,0,0,0,0c0.3-0.8,0.7-1.6,1-2.2c-0.3,0.8-0.6,1.6-0.8,2.4
		c0,0.1,0.1,0.2,0,0.3c0,0,0,0,0,0.1c-0.1,0.2-0.2,0.4-0.3,0.6c-0.3,1.5-0.6,2.9-0.8,4.4c-0.2,1.3-0.3,2.7-0.4,4
		c-0.1,1.3-0.2,2.7-0.2,4v0c0,0,0,0,0,0c0.1,0.3-0.1,0.6-0.3,0.9c-0.1,0.1-2.5,2.2-4.4,3.1c-0.1,0-0.1,0.1-0.2,0.1
		c0,0.5,0,1.1,0.1,1.6c0.2,1.5,0.6,2.9,1.2,4.2c0.8-1.1,1.8-2.2,3.3-3.3c0.1-0.9,0.4-1.8,0.6-2.7c0.3-1,0.7-2.1,1.1-3.1
		c0.1-0.3,0.5-0.5,0.8-0.3c0.3,0.1,0.5,0.5,0.3,0.8c0,0,0,0,0,0.1c-0.5,0.9-1,1.9-1.5,2.8c-0.3,0.7-0.6,1.4-0.9,2.1
		c1.6-1.1,3.8-2.2,6.7-3c4.2-1.4,9.7-4.3,12.7-7.8c0,0,0,0,0,0c0,0,0.1-0.1,0.1-0.1c0.7-0.8,1.4-1.4,2.1-2c0.8-0.6,1.5-1.2,2.4-1.7
		c0.8-0.5,1.7-0.9,2.6-1.2c0.9-0.3,1.9-0.4,2.8-0.4c-0.9,0.1-1.8,0.4-2.6,0.8c-0.8,0.4-1.6,1-2.3,1.5c-0.2,0.2-0.4,0.4-0.6,0.6
		c2.8-0.8,7.1-1.5,12.6-0.2l0.1,0c0.7,0.3,1.6,0.6,2.7,1c5.1,2,13.5,5.3,20.8,4.7c-0.1-0.6-0.2-1.2-0.3-1.9c-0.1-1-0.2-1.9-0.2-2.9
		c0-1,0-1.9,0.1-2.9c0.1-1,0.3-1.9,0.5-2.8c-0.1,1-0.1,1.9,0,2.8c0.1,0.9,0.2,1.9,0.4,2.8c0.2,0.9,0.4,1.8,0.7,2.7
		c0.3,0.9,0.6,1.8,1,2.5l0,0c0.1,0.2,0.1,0.4,0.1,0.6c0.1,1.6,0.2,6.6-0.1,8c-0.3,1.2-0.4,4.2,1,6.1c1.1,1.6,3.6,4.7,5,6.4
		c0.3,0.4,0.8,0.6,1.3,0.6h6.3c-0.6-1.1-2.1-2.3-5.4-2.3h-0.3l-0.5-0.3c-1.6-1.1-3.6-2.4-4-4.8c-0.2-1.2,0.1-2.3,0.3-3.6
		c0.3-1.2,0.6-2.6,0.6-4.3l0-0.1l0-0.1c0.7-2.2,1.3-3.6,2.2-5.6c0.3-0.5,1.8-2.6,2.4-3.8c0.6-1.1,1.2-2.3,1.7-3.6
		c0.5-1.2,0.9-2.5,1.2-3.8c0.3-1.3,0.5-2.6,0.7-4c0,1.3,0,2.7-0.2,4c-0.1,1.4-0.4,2.7-0.7,4c-0.3,1.3-0.8,2.6-1.3,3.9
		c-0.2,0.5-0.4,1-0.7,1.5c1.1-0.6,2.3-1.1,3.4-1.7l2.4-1.1c0.8-0.4,1.5-0.7,2.3-1.1c0.8-0.4,1.5-0.7,2.2-1.2
		c0.7-0.5,1.3-1.1,1.8-1.8c1-1.4,1.6-3.1,2-4.8c0.2-0.6,0.3-1.3,0.5-1.9c-0.1,0.1-0.1,0.1-0.2,0.2c-0.6,0.6-1.3,1.1-1.8,1.8
		c-0.3,0.3-0.5,0.7-0.7,1.1c-0.2,0.4-0.5,0.7-0.7,1.1c-0.5,0.7-1.2,1.1-2,1.6c-0.4,0.2-0.8,0.4-1.2,0.5c-0.4,0.2-0.8,0.3-1.3,0.3
		c-0.1,0-0.1,0-0.1-0.1c0,0,0-0.1,0-0.1l0,0c0.5-0.7,1.1-1.3,1.6-1.9c0.3-0.3,0.6-0.6,0.9-0.8c0.3-0.3,0.6-0.5,0.9-0.7
		c0.3-0.2,0.7-0.4,1.1-0.6c0.3-0.2,0.7-0.4,1-0.7c0.6-0.6,1-1.2,1.4-2c0.2-0.4,0.3-0.7,0.5-1.1c0.2-0.4,0.3-0.7,0.5-1.1
		c0.3-0.7,0.7-1.4,1-2.1c0.3-0.6,0.6-1.2,1-1.7c0.2-0.6,0.4-1.2,0.7-1.7c0.3-0.8,0.7-1.6,1.2-2.4c0.4-0.8,0.9-1.6,1.5-2.3
		c0.8-1.1,1.8-2,3-2.7c-0.1,0-0.1,0-0.2,0c-1.4-0.2-2.6-0.6-3.9-1.1c-0.6-0.2-1.2-0.6-1.7-1c-0.5-0.4-1-0.9-1.4-1.4
		c-0.8-1-1.4-2.2-1.7-3.5c0.4,1.2,1.2,2.3,2,3.1c0.9,0.9,1.9,1.6,3.1,1.9c1.2,0.3,2.4,0.6,3.6,0.6c0.6,0,1.2-0.1,1.8-0.2
		c0.3-0.1,0.6-0.1,0.8-0.2c0.1,0,0.3-0.1,0.4-0.2c0.1,0,0.3-0.1,0.3-0.1c0.6-0.4,1.7-0.2,1.8,0c0.8,0.4,2.3,1,3.6,1
		c1.4,0.1,2.5,0.7,3.1,1l0.5-0.4l-1.6-0.8l-0.1-0.1l-1.6-1.3c-0.3-0.2-0.5-0.4-0.8-0.7c-0.3-0.2-0.5-0.4-0.7-0.8
		c0.4,0,0.7,0.2,1,0.3c0.3,0.1,0.6,0.3,0.9,0.4l1.7,0.8c0,0,1.9,0.6,3.2,0.9c0.4,0.1,0.5,0.2,0.9,0.3c0.8-0.4,1.5-0.8,2.1-1.4
		C127.6,66.9,127.2,66.8,126.9,66.6z M86.5,70.1c1.1-0.3,2.3,0.1,2.5,0.9c0.3,0.9-0.4,1.8-1.6,2.2c-1.1,0.3-3,0.1-3.3-0.7
		C84,71.6,85.4,70.5,86.5,70.1z M84.4,77c0.1,0.5-0.3,1-0.9,1.2c-0.6,0.2-1.7,0-1.8-0.4c-0.1-0.5,0.7-1.1,1.3-1.3
		C83.7,76.3,84.3,76.6,84.4,77z M53.3,66.7c0.1-0.4,0.5-0.7,1-0.6c2.1,0.4,4.2,0.9,6.3,1.5c0.5,0.1,0.8,0.7,0.7,1.2
		c-0.1,0.5-0.7,0.8-1.2,0.6c0,0,0,0,0,0c-2-0.6-4-1.2-6.1-1.7C53.4,67.6,53.2,67.2,53.3,66.7z M15.2,86c-0.7,0.6-1.9,1.2-2.3,0.9
		c-0.4-0.4,0.3-1.6,1-2.2c0.7-0.6,1.5-0.8,1.9-0.5C16.1,84.5,15.8,85.3,15.2,86z M16.1,76.3C16.1,76.3,16.1,76.3,16.1,76.3
		c-1.7,1.3-3.3,2.6-4.9,4c-0.2,0.2-0.6,0.2-0.9,0c-0.2-0.2-0.2-0.6,0-0.8c1.5-1.6,3-3,4.7-4.4c0.4-0.3,0.9-0.2,1.1,0.1
		C16.5,75.5,16.4,76,16.1,76.3z M18.3,82.4c-0.4,0.5-1.4,0.9-1.7,0.6c-0.4-0.3,0-1.3,0.5-1.7c0.4-0.5,1.1-0.6,1.4-0.3
		C18.8,81.3,18.8,81.9,18.3,82.4z M19.3,72.1L19.3,72.1c1.2-0.7,2.5-1.4,3.8-2c1.3-0.6,2.7-1.1,4-1.5c1.4-0.4,2.7-0.8,4.1-1.1
		c1.4-0.4,2.8-0.7,4.2-1c0.1,0,0.3,0,0.3,0.2c0.9-0.5,3.3-1,5.1-1.2c1.8-0.2,3.3-0.1,3.9,0.1c0.1-0.1,0.2-0.2,0.4-0.2
		c1.6,0,3.2,0.1,4.7,0.3c0.4,0,0.6,0.4,0.6,0.7c0,0.4-0.4,0.6-0.7,0.6c0,0,0,0-0.1,0c-1.5-0.3-3-0.5-4.6-0.6c-0.1,0-0.2,0-0.2-0.1
		c-0.5,0.4-2,0.8-3.9,1.1c-2.1,0.2-5,0.2-5.6-0.1c-1.3,0.3-2.7,0.7-4,1.2c-1.3,0.5-2.7,1-3.9,1.5c-1.3,0.5-2.5,1.1-3.8,1.8
		c-1.2,0.6-2.4,1.3-3.6,2c-0.4,0.3-1,0.1-1.2-0.3C18.7,72.9,18.9,72.3,19.3,72.1z M21.7,79.6c-0.7,0.5-1.9,0.8-2.3,0.3
		c-0.4-0.5,0.3-1.6,1-2c0.7-0.5,1.5-0.5,1.9,0C22.6,78.3,22.4,79.1,21.7,79.6z M21.5,98c-0.4,0.7-1.4,1.4-1.9,1.2
		c-0.6-0.3-0.5-1.5-0.1-2.2c0.4-0.7,1.1-1,1.7-0.7C21.8,96.5,21.9,97.3,21.5,98z M20.7,86.8c-0.5-0.7,0.4-2.3,1.4-2.9
		c0.9-0.7,2.1-0.7,2.7,0.1c0.5,0.7,0.2,1.8-0.7,2.5C23.1,87.1,21.3,87.5,20.7,86.8z M22.3,94.9c-0.5-0.3-0.4-1.4-0.1-2
		s1-0.9,1.5-0.6c0.5,0.3,0.6,1,0.3,1.6C23.7,94.5,22.8,95.1,22.3,94.9z M26.5,99.4c-0.4,0.6-1.4,1.2-1.9,0.9
		c-0.6-0.3-0.5-1.5-0.1-2.1c0.4-0.6,1.1-0.8,1.7-0.5C26.7,98,26.8,98.8,26.5,99.4z M31.5,96.2c-0.2,1-1.3,2.3-2.1,2.1
		c-0.9-0.2-1.2-1.8-1-2.8c0.2-1,1.1-1.6,2-1.5C31.2,94.3,31.7,95.2,31.5,96.2z M31.5,87.9c-0.5,0.3-0.9,0.5-1.4,0.9
		c-0.4,0.3-0.8,0.7-1.3,1c-0.4,0.3-0.8,0.7-1.2,1.1c-0.4,0.4-0.8,0.7-1.2,1.1l0,0c-0.3,0.3-0.8,0.3-1.2,0c-0.3-0.3-0.3-0.8,0-1.1
		c0,0,0,0,0,0c0.9-0.7,1.8-1.4,2.7-2l0.7-0.5l0.4-0.2c0.1-0.1,0.3-0.1,0.4-0.2c0.5-0.2,1.1-0.5,1.6-0.6c0.2-0.1,0.4,0,0.5,0.2
		C31.7,87.6,31.7,87.8,31.5,87.9z M28,80.3c0.8-0.5,1.8-0.4,2.3,0.2c0.5,0.7,0.2,1.7-0.5,2.2c-0.8,0.5-2.3,0.8-2.8,0.1
		C26.5,82.2,27.2,80.8,28,80.3z M29.9,74.7c-0.7,0.4-1.4,0.8-2.1,1.3c-0.7,0.4-1.4,0.9-2,1.4l0,0c-0.4,0.3-0.9,0.2-1.2-0.1
		c-0.3-0.4-0.2-0.9,0.1-1.2l0,0c0.7-0.5,1.4-1.1,2.2-1.5c0.8-0.5,1.5-0.9,2.3-1.2c1.6-0.7,3.3-1.3,5-1.7c0.3-0.1,0.5,0.1,0.6,0.4
		c0,0.2-0.1,0.4-0.3,0.5l0,0c-0.8,0.4-1.6,0.7-2.3,1C31.4,73.9,30.6,74.3,29.9,74.7z M34.3,94.6c-0.7,0-1.4-1.1-1.5-2
		c-0.1-0.8,0.5-1.6,1.2-1.6c0.7,0,1.4,0.6,1.4,1.4C35.6,93.3,35.1,94.5,34.3,94.6z M35.9,86.7C35.3,87,34.2,87,34,86.5
		c-0.2-0.5,0.5-1.3,1.1-1.6c0.6-0.3,1.3-0.1,1.5,0.4C36.9,85.8,36.5,86.5,35.9,86.7z M36.2,79.7c-1,0.5-2.7,0.7-3.1-0.1
		c-0.4-0.7,0.7-2.1,1.6-2.6c1-0.5,2.1-0.4,2.5,0.4C37.7,78.2,37.2,79.2,36.2,79.7z M38.6,91.5c-0.7,0.1-1.3-0.7-1.4-1.3
		c-0.1-0.6,0.4-1.2,1.1-1.3c0.7-0.1,1.3,0.3,1.4,0.9C39.7,90.5,39.3,91.4,38.6,91.5z M42.2,85.3C42.2,85.3,42.2,85.3,42.2,85.3
		l-0.1,0c-0.7,0.1-1.4,0.2-2.2,0.3l0,0c-0.4,0-0.8-0.2-0.8-0.6c0-0.4,0.2-0.7,0.5-0.8c0.7-0.2,1.5-0.4,2.2-0.6
		c0.5-0.1,0.9,0.2,1,0.6S42.7,85.2,42.2,85.3z M40.8,75.6c0.5-0.4,1.2-0.3,1.6,0.3c0.4,0.5,0.4,1.3-0.1,1.6c-0.5,0.4-1.5,0.5-2,0
		S40.4,76,40.8,75.6z M46.5,76.8c0.1-0.5,1.1-0.8,1.8-0.7c0.7,0.1,1.1,0.6,1,1.2c-0.1,0.5-0.7,0.9-1.4,0.8
		C47.3,77.9,46.4,77.3,46.5,76.8z M49.1,91.2c-0.8,0-1.5-1-1.6-1.7c0-0.7,0.6-1.4,1.4-1.4c0.8,0,1.5,0.5,1.5,1.2
		C50.5,90.1,49.9,91.2,49.1,91.2z M49.6,84.9C49,85,48,84.7,47.9,84.2c-0.1-0.5,0.7-1.1,1.3-1.2c0.6-0.1,1.2,0.2,1.3,0.7
		C50.6,84.3,50.2,84.8,49.6,84.9z M47.2,71c-1.8-0.2-3.6-0.3-5.4-0.3c-1.8,0.1-3.7,0.4-5.4,1c-0.2,0.1-0.4,0-0.4-0.2s0-0.4,0.2-0.4
		c0,0,0,0,0,0c1.8-0.4,3.6-0.9,5.5-1.3c1.9-0.4,3.8-0.6,5.7-0.5c1.9,0.1,3.8,0.3,5.7,0.6c1.9,0.4,3.7,0.9,5.4,1.5
		c0.5,0.2,0.7,0.6,0.6,1.1c-0.1,0.4-0.6,0.7-1,0.6l0,0l-5.4-1.1C50.8,71.6,49,71.2,47.2,71z M52.7,78.1c0.2-0.5,1.2-0.6,1.8-0.4
		c0.6,0.2,1,0.8,0.8,1.3c-0.2,0.5-0.8,0.8-1.4,0.6C53.2,79.4,52.5,78.6,52.7,78.1z M58.4,91.4c-0.2,0.7-1.2,1.5-1.9,1.2
		c-0.8-0.2-1-1.4-0.8-2.1c0.2-0.7,1-1,1.8-0.8C58.2,90,58.7,90.7,58.4,91.4z M59.8,87.7c0,0-0.1,0-0.1,0c-0.9-0.7-1.8-1.1-2.8-1.5
		c-1-0.4-2-0.6-3-0.8c-0.4-0.1-0.7-0.5-0.7-1c0.1-0.4,0.5-0.7,1-0.7c0,0,0.1,0,0.1,0l0,0c1.1,0.3,2.1,0.8,3.1,1.5
		c1,0.6,1.8,1.4,2.4,2.3C59.9,87.6,59.9,87.6,59.8,87.7z M59.6,80.8c-0.9-0.1-2-0.8-2-1.4c0.1-0.6,1.4-0.9,2.2-0.8
		c0.9,0.1,1.5,0.7,1.4,1.3C61.2,80.5,60.4,80.9,59.6,80.8z M61.4,73.2c0.1-0.3,0.4-0.5,0.7-0.4c0,0,0.1,0,0.1,0
		c0.6,0.2,1.1,0.5,1.7,0.7c0.5,0.3,1.1,0.5,1.6,0.8c0,0,0.1,0.1,0,0.1c0,0-0.1,0.1-0.1,0.1c-0.6-0.1-1.2-0.2-1.8-0.3
		c-0.6-0.1-1.2-0.2-1.8-0.3l0,0C61.5,73.8,61.3,73.5,61.4,73.2z M63.4,94.1c-0.2,0.5-0.8,1.2-1.2,1c-0.4-0.1-0.5-1-0.4-1.5
		c0.2-0.5,0.7-0.8,1.1-0.7C63.4,93,63.6,93.5,63.4,94.1z M63.6,81.4c0.2-0.7,1.6-0.8,2.4-0.5c0.8,0.3,1.3,1,1.1,1.7
		c-0.2,0.7-1.1,1-1.9,0.7C64.3,83,63.3,82,63.6,81.4z M66.8,92.3c-0.7,0-1.1-1.2-1.1-2c0-0.8,0.6-1.4,1.3-1.3c0.7,0,1.2,0.7,1.1,1.5
		C68.1,91.2,67.4,92.3,66.8,92.3z M69.2,75.8c-0.1,0.4-0.7,0.6-1.3,0.4c-0.6-0.2-1.2-0.8-1.1-1.2c0.1-0.4,1.1-0.4,1.6-0.2
		S69.4,75.4,69.2,75.8z M71,76.5c0.2-0.5,1.2-0.5,1.8-0.3c0.6,0.2,1,0.8,0.9,1.2c-0.2,0.5-0.8,0.6-1.4,0.4
		C71.7,77.7,70.9,77,71,76.5z M71.4,82.3c-0.1-0.5,0.7-1.1,1.3-1.3s1.3,0.1,1.4,0.5c0.1,0.5-0.3,1-0.9,1.2
		C72.6,82.9,71.5,82.7,71.4,82.3z M72.6,97c-0.4,0.1-0.9-0.6-1-1.2c-0.1-0.6,0.1-1.1,0.5-1.2c0.4-0.1,0.8,0.3,1,0.8
		C73.2,96.1,73,96.9,72.6,97z M74.2,88.8c-0.2,0.4-0.9,0.5-1.5,0.2c-0.6-0.3-1.2-1.1-1-1.5c0.2-0.4,1.3-0.3,1.9,0
		C74.1,87.8,74.4,88.4,74.2,88.8z M73.4,72.3c-1.4-0.1-2.9-0.3-4.3-0.6c-1.4-0.3-2.8-0.5-4.2-0.9c-0.5-0.1-0.9-0.7-0.7-1.2
		c0.1-0.5,0.7-0.9,1.2-0.7l0,0c1.4,0.3,2.7,0.6,4.1,0.8c1.4,0.2,2.7,0.5,4.1,0.6c2.8,0.3,5.5,0.5,8.3,0.3l0,0c0.4,0,0.8,0.3,0.8,0.7
		c0,0.4-0.3,0.8-0.7,0.8c-1.4,0.2-2.9,0.3-4.3,0.3C76.3,72.5,74.8,72.5,73.4,72.3z M77.7,79.1c-0.7,0-1.8-0.5-1.8-1
		c0-0.5,1.1-0.9,1.8-0.9c0.7,0,1.3,0.4,1.3,1C79,78.7,78.4,79.1,77.7,79.1z M79.8,84.9c0.5-0.7,1.2-0.9,1.7-0.6
		c0.5,0.3,0.5,1.1,0,1.8c-0.5,0.7-1.5,1.4-2,1C79,86.7,79.3,85.5,79.8,84.9z M79.8,92.6c-0.4-0.2-0.5-1.1-0.2-1.6
		c0.2-0.5,0.8-0.8,1.2-0.6c0.4,0.2,0.6,0.8,0.4,1.3S80.2,92.7,79.8,92.6z M81.2,101.3c-0.5,0-0.9-0.6-1-1.1c0-0.5,0.3-0.9,0.8-0.9
		c0.5,0,0.9,0.3,1,0.8C82,100.5,81.7,101.2,81.2,101.3z M84.6,95.3c-0.1,0.5-0.7,1.2-1.2,1.1c-0.5-0.1-0.8-0.9-0.7-1.5
		c0.1-0.5,0.6-0.9,1.1-0.7C84.4,94.3,84.7,94.8,84.6,95.3z M86.9,92.8c-0.6,0.1-1.2-0.8-1.3-1.5c-0.1-0.7,0.3-1.3,0.9-1.4
		c0.6-0.1,1.2,0.4,1.3,1.1C87.8,91.6,87.5,92.7,86.9,92.8z M96.4,60.8c0.1-0.5,0.5-0.9,0.9-0.9c0.4,0.1,0.7,0.5,0.7,1.1
		c-0.1,0.5-0.5,1.3-1,1.2C96.6,62.2,96.4,61.3,96.4,60.8z M98.6,69.8c-0.1,1-0.4,1.8-0.6,2.7c-0.2,0.9-0.5,1.7-0.7,2.6
		c-0.1,0.4-0.1,0.9-0.2,1.4l-0.1,1.4c-0.1,0.9-0.2,1.9-0.5,2.8c-0.4,0.9-0.9,1.7-1.5,2.4c-0.6,0.7-1.3,1.4-2.1,1.9c0,0-0.1,0-0.1,0
		c0,0,0-0.1,0-0.1c0.6-1.8,1.4-3.4,2.2-4.9c0.4-0.8,1-1.5,1.3-2.3c0.4-0.8,0.4-1.7,0.3-2.6c-0.1-0.9-0.3-1.9-0.2-2.8
		c0.1-0.9,0.2-1.9,0.3-2.7c0.1-0.8,0.3-1.6,0.3-2.5c0.1-0.9,0-1.8,0.2-2.7c0-0.1,0.1-0.1,0.1-0.1c0,0,0.1,0,0.1,0
		c0.6,0.8,1,1.7,1.2,2.6C98.7,67.8,98.7,68.9,98.6,69.8z M117.7,59.7c-0.8,0.3-1.9,0.7-2.8,0.3c-0.9-0.4-1.4-1.4-1.7-2.2
		c-0.2-0.6,0.1-1.3,0.7-1.6c0.8-0.3,1.9-0.7,2.8-0.3c0.9,0.4,1.4,1.4,1.7,2.2C118.6,58.7,118.3,59.4,117.7,59.7z"/>
	<path class="st0" d="M14.8,96.6c0.3-1.3,0.6-2.7,0.9-4c0-0.2,0.1-0.3,0.1-0.5c-1.1,1.3-2.1,2.8-2.8,4.3c-0.8,1.6-1.3,3.2-1.6,4.9
		c-0.1,0.4-0.1,0.8-0.2,1.3c1.1-0.7,2.4-1.7,2.9-2.2C14.3,99.2,14.6,97.9,14.8,96.6z"/>
</g>
</svg>
