<?xml version="1.0" encoding="utf-8"?>
<!-- Generator: Adobe Illustrator 23.0.0, SVG Export Plug-In . SVG Version: 6.00 Build 0)  -->
<svg version="1.1" id="Layer_1" xmlns="http://www.w3.org/2000/svg" xmlns:xlink="http://www.w3.org/1999/xlink" x="0px" y="0px"
	 viewBox="0 0 128 128" style="enable-background:new 0 0 128 128;" xml:space="preserve">
<style type="text/css">
	.st0{fill:#2D2D2D;}
</style>
<g>
	<path class="st0" d="M57.1,73.7c-0.5,0.1-1.1,0.1-1.6,0c-0.1,0-0.2,0-0.3-0.1c0,0.4,0,0.9-0.1,1.3c-0.1,0.6-0.2,1.3-0.4,1.9
		c-0.3,1.3-0.9,2.4-1.6,3.6c-0.6,1.1-1.3,2.3-2.1,3.3c-0.4,0.5-0.8,1-1.3,1.5c-0.2,0.2-0.3,0.3-0.5,0.5c0.1,0,0.2,0,0.3-0.1
		c0.8-0.2,1.6-0.4,2.4-0.7c1.5-0.6,3-1.5,4.1-2.8l0.2-0.3l0.3,0.1c0.4,0.1,0.9,0.2,1.3,0.3c0.8-0.8,1.5-1.8,2.1-2.8
		c0.7-1.1,1.2-2.2,1.7-3.4c0.5-1.2,0.8-2.4,1.3-3.5c0.2-0.6,0.5-1.2,0.7-1.7c0.1-0.1,0.1-0.3,0.2-0.4c-1.1,1-2.4,1.8-3.8,2.4
		C59.2,73.2,58.2,73.6,57.1,73.7z"/>
	<path class="st0" d="M60.6,79.8c-0.4,0.5-0.8,1-1.3,1.5c-0.4,0.4-0.7,0.7-1.2,1c0.2,0,0.5,0.1,0.7,0.1c0.8,0.1,1.6,0.1,2.4,0
		c0.8-0.1,1.6-0.2,2.4-0.5c0.3-0.1,0.5-0.2,0.8-0.3l0.7-0.7l1.9-2c0.6-0.7,1.1-1.5,1.5-2.3c0.3-0.6,0.6-1.2,0.8-1.8
		c0.3-0.6,0.5-1.2,0.8-1.8c0.2-0.3,0.3-0.6,0.4-0.9c0.1-0.3,0.3-0.6,0.4-0.9c0.3-0.6,0.5-1.2,0.9-1.7c-0.6,0.2-1.2,0.3-1.8,0.4
		c-0.9,0.1-1.8,0.2-2.8,0.1c-0.8,0-1.7-0.1-2.5-0.3c0,0-0.1,0.1-0.1,0.1c0,0.5,0,1-0.1,1.4c-0.1,0.6-0.2,1.3-0.4,1.9
		c-0.3,1.3-0.9,2.4-1.6,3.6C62.1,77.6,61.4,78.8,60.6,79.8z"/>
	<path class="st0" d="M26.8,111.7c-0.4,0-0.7-0.1-1.1-0.3c-0.2-0.1-0.3-0.2-0.5-0.3l-0.3,0.2c-0.3,0.2-0.6,0.3-0.8,0.5
		c-0.6,0.3-1.2,0.6-1.9,0.7c-0.7,0.1-1.4,0.1-2-0.2c-0.3-0.1-0.5-0.3-0.7-0.5c-0.4,1.1-0.8,2.3-1.1,3.4c-0.4,1.5-0.8,3-1.2,4.5
		c-0.7,2.7-1.3,5.5-2.1,8.2c0.3-0.3,0.6-0.6,0.8-0.9c0.5-0.5,0.9-1.1,1.4-1.7c0.9-1.2,1.6-2.4,2.4-3.6c0.8-1.2,1.5-2.5,2.2-3.8
		c0.7-1.3,1.3-2.6,1.9-3.8l0.3-0.7l0.7,0.1c0.1,0,0.5,0,0.8-0.2c0.3-0.1,0.7-0.3,1-0.5c0.7-0.4,1.4-0.8,2-1.3
		c0.2-0.2,0.4-0.3,0.7-0.5c-0.1,0-0.2,0.1-0.3,0.1C28.1,111.6,27.5,111.7,26.8,111.7z"/>
	<path class="st0" d="M42.2,97.4c0.9-1.9,1.6-3.8,2.5-5.6l2-4.5c-0.9,0.6-2,1-3,1.2c-0.7,0.2-1.5,0.3-2.2,0.3c-0.4,0-0.8,0-1.2-0.1
		c-0.2,0-0.3-0.1-0.5-0.1c-0.2,2-0.8,3.9-1.5,5.8c-0.8,2.1-1.9,4-3,5.9c-1.1,1.9-2.3,3.7-3.5,5.5c-1.1,1.6-2.3,3.2-3.5,4.7
		c0.1,0,0.1,0,0.2,0c0.5-0.1,1.1-0.3,1.6-0.5c0.4-0.2,0.7-0.4,1.1-0.6c0.2-0.3,0.5-0.5,0.7-0.8l0.5-0.7l0.6,0.4
		c0.2,0.2,0.9,0.2,1.5,0c0.6-0.1,1.2-0.4,1.8-0.7c0.2-0.1,0.5-0.2,0.7-0.4c0.9-1.4,1.7-2.8,2.5-4.3C40.3,101.1,41.3,99.3,42.2,97.4z
		"/>
	<path class="st0" d="M87,116.5c-0.8,0-1.6,0-2.3-0.1l-2.3-0.3c-1.5-0.2-3-0.3-4.6-0.4c-1.5-0.1-3.1,0-4.6,0l-0.2,0l-0.1-0.1
		c-0.5-0.5-0.7-1-0.8-1.4c-0.1-0.5-0.3-0.9-0.3-1.4c-0.2-0.9-0.3-1.8-0.3-2.7c-0.1-0.9-0.1-1.8,0-2.7c0-0.7,0.1-1.4,0.1-2.1
		c-0.1,0-0.1,0.1-0.2,0.1l0,0l-0.1,0c-1.1,0.1-2.2,0.1-3.2-0.1c0.1,0.7,0.2,1.4,0.3,2.1c0.1,1,0.2,2,0.3,3c0.1,1,0.2,2,0.2,3
		l0.1,1.5c0,0.3,0,0.5,0,0.8l0,0.4l0,0.4l0,0.3l-0.3,0.1c-0.8,0.3-1.6,0.9-2.5,1.2c-0.8,0.3-1.7,0.5-2.6,0.4c0,0.7,0.1,1.4,0.4,2.1
		c1.1-0.3,2.2-0.6,3.2-0.9c1.2-0.3,2.3-0.5,3.6-0.6l0,0l0.1,0c2.5,0.4,5,0.9,7.5,1.4l3.7,0.8l0.1-0.6l0.3-1.3c-1-0.2-2-0.5-3-0.7
		c-1.2-0.3-2.3-0.6-3.5-0.9c0,0-0.1,0,0-0.1c0,0,0,0,0.1,0c1.2,0.1,2.4,0.2,3.6,0.3c1.2,0.1,2.4,0.3,3.6,0.4l0.5,0.1l-0.1,0.6
		c0,0.1,0,0.1,0,0.2c0.8-0.2,1.5-0.3,2.3-0.4c1-0.1,2-0.3,3-0.3c0.5,0,1-0.1,1.5-0.1l0.6,0c0-0.6,0-1.3,0-2
		C89.5,116.4,88.3,116.5,87,116.5z"/>
	<path class="st0" d="M60.3,118.4c0,0.1,0,0.2,0.1,0.3l0,0c0.8-0.1,1.6-0.1,2.4-0.1c0-0.2,0-0.3,0-0.5l0-0.3l0.3,0
		c0.9,0,1.7-0.2,2.5-0.6c0.7-0.4,1.3-0.8,2.1-1.3l0-0.1l0-0.4c0-0.2,0-0.5,0-0.7l0-1.5l-0.1-3l0-3c0-0.7,0-1.5,0-2.2
		c-0.5-0.1-1-0.3-1.6-0.5c-0.4-0.2-0.8-0.4-1.2-0.7c0.1,0.8,0.2,1.5,0.2,2.3c0.1,1,0.2,2,0.2,3c0.1,2,0.2,4,0.3,5.9l0,0.6l-0.6,0.1
		l-2.8,0.5l-1.4,0.2l-0.7,0.1l0,0c0,0.4,0.1,0.8,0.1,1.2C60.2,117.9,60.3,118.1,60.3,118.4z"/>
	<path class="st0" d="M111.6,12c-0.5-0.5-1.2-0.7-2-0.9c-0.8-0.2-1.7-0.3-2.5-0.9c-0.3-0.3-0.7-0.5-1-0.7c-0.1-0.1-0.3-0.2-0.4-0.3
		c0,0.1,0,0.3,0,0.4c0,0.3,0,0.5,0,0.8c0,0.3,0,0.5,0.1,0.8l0,0.4l0,0.2c0,0,0,0.1,0,0.1l0,0.1c0.3,0,0.5-0.1,0.8-0.1
		c0.3,0,0.6-0.1,0.8-0.1c0.3,0,0.5-0.1,0.7-0.2l0.1-0.1l0.2,0c0.5,0.1,0.8,0.2,1.1,0.4c0.3,0.1,0.6,0.2,0.9,0.3
		c0.3,0.1,0.6,0.2,1,0.2c0.2,0,0.4,0.1,0.6,0.1c0,0,0-0.1-0.1-0.2C111.9,12.3,111.8,12.2,111.6,12z"/>
	<path class="st0" d="M75,111.9c-0.8-0.1-1.6-0.3-2.3-0.5c0.1,0.4,0.1,0.7,0.2,1.1c0.1,0.4,0.2,0.9,0.3,1.3c0.1,0.3,0.2,0.7,0.4,0.9
		c1,0.2,2.1,0.4,3.1,0.5c2.1-0.5,4.2-1.2,6.4-1.6c0.6-0.1,1.1-0.2,1.7-0.2l0.1,0c0-0.1,0-0.3,0-0.5c0-0.5,0.1-1.1,0.1-1.7
		c0-0.2,0.1-0.5,0.1-0.7c0,0-0.1,0-0.1,0c-1.1-0.1-2.2,0-3.3,0.3c-0.5,0.1-1.1,0.3-1.6,0.6c-0.5,0.2-1.1,0.4-1.7,0.5
		C77.3,112,76.1,112,75,111.9z"/>
	<path class="st0" d="M72.7,90.3c-0.5,0-1-0.1-1.5-0.1c-0.9-0.1-1.8-0.4-2.7-0.7c-1.6,0.3-3.3,0.9-5,1.4c-0.8,0.2-1.7,0.4-2.5,0.5
		c0.4,1.5,0.8,2.9,1.3,4.3c0.2,0.7,0.5,1.5,0.8,2.2c0.3,0.7,0.6,1.3,1,2c0.8,1.3,1.5,2.4,2.8,3.1c1.2,0.7,2.7,1,4.3,1.3
		c1.5-0.2,2.9-0.9,3.9-2.1c1-1.2,1.4-2.7,1.7-4.2c0.3-1.5,0.6-3,0.8-4.5l0.3-2.3l0.1-1.2l0.1-0.6c0-0.1,0-0.2,0.1-0.3
		c0,0,0-0.1,0-0.1c-1.2,0.7-2.4,1.2-3.8,1.4C73.8,90.3,73.3,90.3,72.7,90.3z"/>
	<path class="st0" d="M21.2,111.7c1.1-1.7,2.2-3.5,3.3-5.3c1.1-1.9,2.2-3.8,3.2-5.8c1-2,1.8-4,2.8-6c0.9-1.9,1.8-3.9,2.6-5.9
		c0,0-0.1-0.1-0.1-0.2c-1,0.5-2,0.9-3.1,1c-0.6,0-1.3,0-1.8-0.4c-0.3-0.2-0.5-0.4-0.7-0.7c-0.3,0.6-0.5,1.1-0.8,1.7
		c-1,2.2-1.9,4.4-2.7,6.7c-0.9,2.2-1.6,4.5-2.3,6.8c-0.7,2.3-1.2,4.6-1.7,7l0,0.1l0,0.1c-0.1,0.2-0.1,0.3-0.2,0.5
		c0.2,0.1,0.5,0.2,0.8,0.3C20.7,111.8,20.9,111.8,21.2,111.7z"/>
	<path class="st0" d="M58.2,102.1c0.6,0.6,1.4,1.2,2.3,1.6l-0.2,0c0.4,0.2,0.8,0.2,1.2,0.1c0.4-0.1,0.7-0.5,1-0.8
		c0.3-0.2,0.7-0.3,1-0.4c0,0,0,0,0,0c-0.5-0.6-0.9-1.2-1.3-1.9c-0.4-0.7-0.7-1.6-1-2.4c-0.2-0.8-0.4-1.6-0.5-2.4
		c-0.2-1.5-0.2-3-0.1-4.6c-0.4,0-0.9,0.1-1.4,0c-0.2,0-0.4-0.1-0.5-0.3c-0.9,1.3-1.8,2.5-2.7,3.8c0,0.7,0.1,1.4,0.2,2.1
		c0.1,1,0.3,2,0.6,2.8C57.2,100.6,57.6,101.5,58.2,102.1z"/>
	<path class="st0" d="M57.9,89L57.9,89c1.7-1.9,3.2-3.7,4.9-5.5l0.9-1c-0.1,0.1-0.2,0.1-0.4,0.2c0,0-0.1,0-0.1,0c0,0,0-0.1,0-0.1
		l0,0c0.2-0.1,0.3-0.2,0.5-0.3c-0.7,0.3-1.5,0.6-2.3,0.7c-0.8,0.2-1.7,0.2-2.5,0.2c-0.7,0-1.5-0.1-2.2-0.3c-0.2,0.2-0.4,0.4-0.5,0.6
		c-0.2,1.8-0.8,3.6-1.5,5.3c-0.8,1.9-2,3.6-3.2,5.3c-1.2,1.7-2.5,3.3-3.8,4.9c-1.4,1.5-2.8,3-4.3,4.5c0.1,0.1,0.2,0.2,0.2,0.3
		c0.2,0.2,0.3,0.4,0.5,0.5c0.2,0.1,0.3,0.2,0.5,0.4c0.7-0.3,1.4-0.7,2.1-1.2c0.3-0.3,0.7-0.5,1-0.8c0.3-0.3,0.6-0.6,0.9-0.9
		c1.2-1.2,2.3-2.6,3.3-4c1-1.4,2-2.8,3-4.3L57.9,89L57.9,89z"/>
	<path class="st0" d="M34.4,89.5c-0.3-0.1-0.6-0.2-0.9-0.4c-0.1,0-0.1-0.1-0.2-0.1c-0.2,2.1-0.8,4.2-1.6,6.2c-0.8,2.1-2,4-3.1,6
		c-1.1,1.9-2.3,3.8-3.6,5.7c-1.2,1.7-2.3,3.3-3.6,4.9c0.2,0,0.3-0.1,0.5-0.1c0.1,0,0.3-0.1,0.4-0.2c0.1-0.1,0.3-0.1,0.4-0.2
		c0.2-0.1,0.5-0.3,0.7-0.4c0.5-0.3,1-0.6,1.4-1l0.7-0.5l0.2,0.7c0,0.1,0.2,0.2,0.4,0.3c0.2,0.1,0.4,0.2,0.7,0.2
		c0.4,0.1,0.7,0.1,1.1,0c1.1-1.7,2.1-3.4,3.1-5.1c1.1-1.9,2.2-3.8,3.1-5.7c1-1.9,1.8-3.9,2.7-5.9c0.8-1.8,1.6-3.6,2.4-5.4
		c0,0-0.1,0-0.1,0c-0.9,0.6-1.9,1.1-3.1,1.3C35.7,89.7,35,89.7,34.4,89.5z"/>
	<path class="st0" d="M45.6,74.6c-1,0.6-2.2,1.1-3.4,1.2c-0.6,0.1-1.3,0-2-0.1c0,0.5,0,0.9-0.1,1.4c-0.1,0.6-0.2,1.3-0.4,1.9
		c-0.3,1.3-0.9,2.4-1.6,3.6c-0.6,1.1-1.3,2.3-2.1,3.3c-0.4,0.5-0.8,1-1.3,1.5c-0.3,0.4-0.7,0.7-1.1,1c0.2,0.2,0.6,0.4,0.9,0.5
		c0.5,0.1,1,0.1,1.5,0c1-0.2,2-0.7,2.8-1.4l0.4-0.3l0.4,0.3c0.1,0.1,0.4,0.2,0.7,0.2c0,0,0.1,0,0.1,0c0.7-0.8,1.4-1.6,1.9-2.6
		c0.7-1.1,1.2-2.2,1.7-3.4c0.5-1.2,0.8-2.4,1.3-3.5c0.2-0.6,0.5-1.2,0.7-1.7c0.2-0.5,0.4-0.9,0.7-1.4c-0.1,0-0.1,0-0.2,0
		C46.2,74.8,45.9,74.7,45.6,74.6z"/>
	<path class="st0" d="M50.5,93.5c1.1-1.7,1.9-3.6,2.9-5.3c0.7-1.3,1.3-2.7,1.9-4c-0.9,0.7-1.9,1.3-2.9,1.8c-0.8,0.4-1.7,0.7-2.6,0.9
		c-0.5,0.1-0.9,0.2-1.4,0.2c-0.2,0-0.5,0-0.8,0c-0.1,0-0.3,0-0.5-0.1c0,0-0.1,0-0.1,0.1c-0.2,1.8-0.7,3.6-1.3,5.4
		c-0.7,2-1.7,3.8-2.7,5.6c-1,1.8-2.1,3.6-3.2,5.3c-0.8,1.2-1.7,2.4-2.6,3.6c0.2-0.1,0.3-0.2,0.5-0.3c0.5-0.4,1-0.8,1.3-1.3l0.1-0.2
		l0.1,0c0.7-0.2,1.4-0.4,2-0.9c0.6-0.4,1.2-1,1.4-1.7l0,0c0,0,0,0,0,0c0,0,0,0,0,0c0-0.1,0.1-0.1,0.1-0.1c0,0,0.1,0,0.1,0.1l0,0
		c0,0.3,0.1,0.6,0.3,0.9c1.3-1.5,2.6-3.1,3.8-4.7C48.3,97,49.5,95.3,50.5,93.5z"/>
	<path class="st0" d="M50.2,74.8c-0.8,0.1-1.6,0.2-2.4,0.2c-0.2,0-0.5,0-0.7-0.1c0,0.5,0,1.1-0.1,1.6c-0.1,0.6-0.2,1.3-0.4,1.9
		c-0.3,1.3-0.9,2.4-1.6,3.6c-0.6,1.1-1.3,2.3-2.1,3.3c-0.4,0.5-0.8,1-1.3,1.5c-0.3,0.3-0.5,0.5-0.8,0.8c0.2,0,0.4,0,0.5,0
		c0.6,0,1.3-0.1,1.9-0.3c1.3-0.3,2.5-0.9,3.5-1.7l0.9,0c0,0,0.1,0.1,0.3,0.1c0.2,0,0.4,0,0.5,0c0.1,0,0.3,0,0.4,0
		c0.6-0.7,1.2-1.5,1.7-2.3c0.7-1.1,1.2-2.2,1.7-3.4c0.5-1.2,0.8-2.4,1.3-3.5c0.2-0.6,0.5-1.2,0.7-1.7c0.2-0.4,0.4-0.8,0.6-1.2
		c-0.2-0.1-0.3-0.1-0.5-0.2C53,74,51.6,74.5,50.2,74.8z"/>
	<path class="st0" d="M101.5,3.2L101.5,3.2L101.5,3.2c1.8,0.7,3.2,1.9,4.4,3.2c0,0,0,0,0.1,0c0.2,0,0.5,0.1,0.7,0.2
		c0.4,0.2,0.8,0.4,1.1,0.5c0.2-0.1,0.6-0.1,0.8,0c0.3,0.1,0.5,0.2,0.7,0.2c0.4,0.1,0.8,0,1.2-0.1c0.4-0.1,0.4-0.2,0.3-0.5
		c0-0.3-0.2-0.7-0.5-1c-0.2-0.3-0.5-0.7-0.8-0.8c-0.4-0.2-0.8-0.4-1.2-0.7c-0.8-0.5-1.6-1-2.4-1.5c-0.4-0.3-0.8-0.5-1.2-0.8
		c-0.4-0.3-0.8-0.6-1.1-0.9c-0.7-0.5-1.4-0.9-2.3-0.9c-0.8,0-1.6,0.4-2.3,1c-0.3,0.3-0.7,0.6-0.6,1.1c0,0.3,0.2,0.5,0.3,0.8
		C99.6,2.9,100.6,3,101.5,3.2z"/>
	<path class="st0" d="M112.9,10.5c-0.2-1-1-1.9-1.9-2.6C110.9,8,110.8,8,110.7,8c-0.5,0.1-1.1,0.1-1.6-0.1c-0.3-0.1-0.5-0.2-0.6-0.3
		c-0.2-0.1-0.3-0.1-0.5,0l-0.1,0l-0.1,0c-0.3-0.1-0.5-0.2-0.7-0.4l-0.6-0.4c-0.1-0.1-0.2-0.2-0.4-0.2l0,0.1c0.2,0.4,0.3,0.9,0.2,1.5
		c-0.1,0.4-0.3,0.7-0.5,1c0.1,0.1,0.3,0.1,0.4,0.2c0.4,0.1,0.8,0.3,1.2,0.5c0.7,0.3,1.5,0.2,2.3,0.3c0.9,0.1,1.9,0.3,2.6,1
		c0.2,0.2,0.3,0.3,0.5,0.5C113,11.2,113,10.9,112.9,10.5z"/>
	<path class="st0" d="M91.3,19.1c0.3,0.1,0.6,0.1,0.9,0.1l0.6,0c0.2,0,0.4,0,0.6,0.1c0.8,0.1,1.6,0.4,2.3,0.7
		c0.3,0.1,0.5,0.3,0.7,0.4c-0.6-0.8-1.2-1.7-1.6-2.6c-0.3-0.6-0.6-1.3-0.8-2c-0.3-0.7-0.5-1.4-0.6-2.1c-0.1-0.7-0.3-1.4-0.5-2.1
		c-0.2-0.7-0.3-1.6,0.1-2.4c0.4-0.8,1.1-1.3,1.8-1.6c0.7-0.3,1.5-0.5,2.3-0.4c0,0,0.1,0,0.1,0.1c0,0,0,0,0,0.1l0,0
		c-0.6,0.4-1.2,0.8-1.8,1.2c-0.6,0.4-1,0.8-1.4,1.3c-0.2,0.2-0.4,0.5-0.5,0.8c-0.1,0.3-0.1,0.7-0.1,1c0.2,0.7,0.5,1.3,0.9,1.9
		c0.4,0.6,0.7,1.2,1,1.9c0.3,0.6,0.7,1.3,0.9,1.9c0.2,0.6,0.5,1.2,0.7,1.8c0-0.1,0-0.1,0-0.2L96.3,18c-0.2-0.7-0.1-1.5,0.3-2.1
		c0.3-0.6,0.8-1.1,1.3-1.5c0.6-0.4,1.1-0.6,1.7-0.9c0.3-0.2,0.5-0.3,0.8-0.5c0.2-0.2,0.3-0.4,0.3-0.6c0-0.4,0.1-0.9,0-1.4
		c0-0.5-0.1-1.1-0.2-1.8l0,0c0,0,0-0.1,0.1-0.1c0,0,0,0,0,0c0.5,0.4,0.9,1,1.1,1.6c0.1,0.3,0.2,0.7,0.2,1c0,0.4-0.1,0.8-0.4,1.1
		c-0.2,0.3-0.6,0.5-0.9,0.6c-0.3,0.1-0.6,0.2-0.8,0.4C99.3,14,99,14.5,98.7,15c-0.3,0.5-0.6,0.9-0.8,1.4c-0.2,0.5-0.3,0.9-0.3,1.3
		c0,0.1,0,0.3,0.1,0.4c0,0.2,0,0.3,0.1,0.5c0,0.3,0,0.6,0,0.9c0,0.1,0,0.2,0,0.3c0.3-0.5,0.6-1,1-1.3c0.4-0.4,0.7-0.7,1.1-1.1
		c0.4-0.3,0.6-0.7,1-1.1l1.8-2.4c0.3-0.4,0.6-0.8,1-1.2c0.3-0.3,0.5-0.6,0.9-0.8c0-0.1,0-0.3-0.1-0.4c0-0.3,0-0.6-0.1-0.8
		c0-0.3,0-0.6,0-0.8c0-0.3,0-0.6,0.1-1l0-0.2l0.2-0.1c0.2-0.2,0.3-0.4,0.4-0.6c0-0.2,0-0.4-0.1-0.6c-0.5-0.6-1.1-1.2-1.7-1.7
		c-0.6-0.5-1.3-1-2.1-1.4c-1-0.3-2-0.5-3-0.6c-1-0.1-2.1-0.1-3,0.3c-0.5,0.2-0.9,0.5-1.3,0.8c-0.4,0.3-0.9,0.6-1.3,0.9
		c-0.8,0.7-1.5,1.4-2.2,2.2c-0.6,0.8-1.2,1.7-1.7,2.5c-0.5,0.9-0.9,1.8-1.2,2.7c-0.4,1.5-0.5,3.2-0.2,4.8
		C88.7,18.3,90,18.8,91.3,19.1z M99.8,5.3c0.5,0,0.9,0.4,0.9,0.9c0,0.5-0.4,0.9-0.9,0.9c-0.5,0-0.9-0.4-0.9-0.9
		C98.9,5.7,99.3,5.3,99.8,5.3z"/>
	<path class="st0" d="M80.6,25.1c0.2,0.5,0.5,0.9,0.9,1.2c0.3,0.3,0.7,0.4,1.2,0.5l0.1,0c1.4,0.2,2.8,0.4,4.3,0.4
		c1.4,0,2.9,0,4.3-0.3c1.4-0.2,2.8-0.7,4.1-1.4c0.6-0.4,1.2-0.8,1.8-1.2c0.4-0.4,0.8-0.8,1.2-1.2c-1-0.7-2.2-1.3-3.3-1.6
		c-0.6-0.2-1.3-0.4-1.9-0.5c-0.2,0-0.3,0-0.5,0c-0.2,0-0.3,0-0.5,0c-0.5,0-0.9-0.1-1.3-0.2c-1.2-0.4-2.2-1.1-3.2-1.8c0,0,0,0,0,0
		c0,0-0.1,0-0.1,0c0,0-0.1-0.1-0.1-0.1c-0.2-0.1-0.4-0.3-0.6-0.4c-1.2-0.8-2.1-2.3-3.6-2.1c-1.3,0.1-2.5,0.8-3.1,1.9
		c-0.6,1.1-0.5,2.3-0.4,3.5C79.9,22.9,80.1,24.1,80.6,25.1z"/>
	<path class="st0" d="M29.7,84.1l-0.1,0.2l-0.2,0.4l-0.4,0.8c-0.3,0.5-0.6,1.1-0.8,1.6c-0.2,0.5-0.5,1-0.7,1.5
		c0.2,0.2,0.5,0.4,0.8,0.6c0.5,0.2,1.1,0.2,1.7,0.1c0.6-0.1,1.1-0.3,1.6-0.6c0.5-0.2,1-0.5,1.5-0.8l0.4-0.2l0.2,0.4c0,0,0,0,0,0.1
		c0.8-0.8,1.4-1.7,2-2.7c0.7-1.1,1.2-2.2,1.7-3.4c0.5-1.2,0.8-2.4,1.3-3.5c0.2-0.6,0.5-1.2,0.7-1.7c0.2-0.4,0.4-0.8,0.6-1.2
		c-0.2-0.1-0.5-0.2-0.7-0.3c-0.2-0.1-0.4-0.3-0.6-0.5c-1.1,0.5-2.2,0.9-3.4,0.9c-0.7,0-1.4,0-2-0.4c-0.2-0.1-0.4-0.3-0.6-0.5
		c-0.1,0.2-0.2,0.4-0.3,0.6c-1,2.7-1.9,5.5-2.4,8.2L29.7,84.1C29.7,84.1,29.7,84.1,29.7,84.1C29.7,84,29.7,84,29.7,84.1L29.7,84.1z"
		/>
	<path class="st0" d="M104.8,31.9c-0.6-1.4-1.3-2.8-2.2-4l-0.2-0.2l0-0.2c0.2-1,0-2.1-0.5-3.1c-0.3-0.5-0.6-0.9-1.1-1.1
		c-0.4-0.2-0.9-0.3-1.3-0.3l-0.3,0.2c-1.1,0.9-2.3,1.9-3.6,2.7c-1.3,0.8-2.6,1.5-4.1,2c-0.7,0.3-1.5,0.5-2.2,0.6
		c-0.8,0.1-1.5,0.2-2.3,0.3c-1.5,0.1-3.1,0-4.6-0.2c-0.2,0-0.3,0-0.5-0.1c0,0.9-0.2,1.8-0.7,2.6c-0.2,0.4-0.5,0.8-0.9,1.2
		c-0.2,0.2-0.4,0.3-0.6,0.4c-0.2,0.1-0.4,0.2-0.6,0.3c-1.7,0.7-3.3,1.3-5,2c-1.7,0.7-3.3,1.3-4.9,2l-4.9,2.1
		c-1.6,0.7-3.2,1.4-4.8,2.2c-0.8,0.4-1.6,0.8-2.4,1.2c-0.8,0.4-1.6,0.9-2.4,1.2c-0.9,0.3-1.7,0.6-2.6,0.8c-0.9,0.1-1.7,0.3-2.5,0.6
		c-0.4,0.2-0.8,0.4-1.1,0.6c-0.2,0.1-0.3,0.3-0.5,0.4c-0.1,0.1-0.3,0.3-0.4,0.4c-0.6,0.6-1.2,1.3-1.8,2c-2.4,2.7-4.6,5.4-7,8
		c-1.2,1.3-2.4,2.6-3.5,4c-0.2,0.2-0.4,0.5-0.6,0.7c0.1,0.1,0.1,0.2,0.2,0.3c0.2,0.5,0.4,1.1,0.3,1.7c0,0.6-0.3,1.3-0.7,1.8
		c-2.2,2.6-4.2,5.6-6,8.5c-0.9,1.5-1.7,3-2.3,4.6c-0.3,0.8-0.6,1.6-0.8,2.4c-0.2,0.8-0.2,1.6-0.1,2.3c0.3,0.4,1,0.5,1.7,0.5
		c0.3,0,0.6,0,0.9-0.1l0.3-0.4l0.2-0.2l0.1-0.1c0.3-1.4,0.7-2.8,1.1-4.1c0.5-1.4,1-2.8,1.6-4.2c1.2-2.7,2.6-5.4,4.1-7.9
		c1.6-2.5,3.3-4.9,5.3-7.1c2-2.2,4.1-4.3,6.3-6.2c0,0,0.1,0,0.1,0c0,0,0,0.1,0,0.1c-2.1,2.1-4.1,4.2-5.9,6.5
		c-1.8,2.3-3.4,4.7-4.9,7.2c-1.3,2.3-2.4,4.7-3.4,7.1c0.2,0.2,0.4,0.3,0.7,0.4c0.6,0.2,1.2,0.2,1.8,0.2c0.6-0.1,1.2-0.3,1.8-0.5
		c0.6-0.2,1.1-0.5,1.7-0.8l0.4-0.2l0.2,0.4c0.1,0.1,0.3,0.3,0.5,0.4c0.2,0.1,0.5,0.2,0.8,0.3c0.5,0.1,1.1,0.1,1.7,0
		c1.1-0.2,2.2-0.7,3.2-1.4l0.4-0.3l0.3,0.3c0.1,0.1,0.5,0.2,0.8,0.2c0.3,0.1,0.7,0.1,1,0.1c0.7,0,1.4-0.1,2.2-0.2
		c1.4-0.3,2.8-0.8,4-1.6l0.4-0.3l0.4,0.4c0.5,0.5,1.4,0.5,2.3,0.4c0.9-0.1,1.8-0.4,2.7-0.7c1.7-0.7,3.4-1.8,4.7-3.1l0.2-0.2l0.3,0.1
		c0.8,0.3,1.7,0.4,2.6,0.5c0.9,0.1,1.8,0.1,2.6,0.1c0.9-0.1,1.8-0.2,2.6-0.4c0.9-0.2,1.7-0.5,2.5-0.9c-0.9,0.6-2,1.1-3.1,1.5
		c0,0.7-0.1,1.4-0.2,2.1c-0.1,0.7-0.3,1.4-0.5,2c-0.4,1.3-1.2,2.5-2,3.7c-0.1,0.1-0.1,0.2-0.2,0.3l0.1,1.5c0,0.2,0.1,0.4,0.1,0.7
		c0,0.2,0.1,0.5,0.2,0.7c0.1,0.2,0.1,0.3,0.2,0.5c1.1-0.5,2.2-1,3.2-1.7c1.3-0.8,2.5-1.7,3.6-2.7c1.1-1,2.1-2.2,3-3.4
		c0.9-1.3,1.6-2.6,2.4-4l0.1-0.1l0.1-0.1c2-1.3,4-2.6,5.6-4.2c1.7-1.6,3.1-3.5,3.8-5.7c0.2-0.5,0.3-1.1,0.4-1.7
		c0.1-0.3,0.1-0.6,0.1-0.9c0-0.3,0.1-0.6,0.1-0.9c0.1-1.1,0-2.3-0.1-3.4C92,50.8,91.7,49.8,91,49c-0.7-0.8-1.6-1.3-2.6-1.7
		c-2-0.7-4.4-0.6-6.6-0.3c-1.1,0.2-2.3,0.5-3.4,0.7c-1.2,0.3-2.3,0.6-3.5,0.8C70.3,49.8,65.7,51,61,52c0,0-0.1,0-0.1-0.1
		c0,0,0-0.1,0.1-0.1l0.1,0c1.1-0.4,2.2-0.8,3.3-1.2c1.1-0.4,2.2-0.8,3.4-1.2c2.3-0.8,4.5-1.5,6.8-2.2c2.3-0.7,4.6-1.4,7-1.8
		c1.2-0.2,2.5-0.3,3.7-0.3c1.3,0,2.5,0.2,3.8,0.7c1.2,0.5,2.4,1.3,3.1,2.4c0.8,1.1,1.1,2.4,1.3,3.6c0.1,1.3,0,2.4-0.2,3.6
		c-0.2,1.2-0.5,2.4-0.9,3.5c-0.9,2.3-2.3,4.2-4,5.9c-0.9,0.8-1.8,1.6-2.7,2.4c-0.9,0.7-1.8,1.4-2.7,2.1c-0.7,1.4-1.3,2.8-2.2,4.1
		c-0.8,1.4-1.8,2.7-3,3.9c-1.1,1.2-2.4,2.2-3.8,3.1c-1.4,0.9-2.8,1.6-4.3,2.3l-0.8,0.4l-0.4-0.8c-0.2-0.5-0.4-0.9-0.6-1.4l-1.1,1.3
		l-2.4,2.7c-1.6,1.8-3.2,3.5-4.8,5.3c-0.1,0.2-0.3,0.4-0.4,0.6c0.1,0.1,0.3,0.1,0.4,0.1c0.4,0,0.8,0,1.3-0.1
		c0.9-0.2,1.7-0.6,2.6-0.9c1.7-0.6,3.4-1.4,5.2-2l0.2-0.1l0.3,0.1c0.8,0.3,1.7,0.5,2.5,0.5c0.9,0.1,1.7,0,2.5-0.1
		c1.6-0.3,3.2-1.2,4.3-2.3c0.2-0.1,0.3-0.3,0.4-0.5l0.5-0.5c0.3-0.4,0.6-0.7,1-1c0.7-0.7,1.3-1.3,2-2c1.3-1.3,2.7-2.5,3.9-3.9
		l0.1-0.1l0,0c0.7-0.6,1.5-1.2,2.1-1.9c0.7-0.7,1.3-1.4,1.9-2.2c1.2-1.5,2.3-3.2,3.2-4.9c1-1.7,1.8-3.5,2.5-5.3
		c0.7-1.8,1.2-3.8,1.6-5.7l0-0.1l0-0.1c0.7-1,1.4-2,1.9-3.1c0.6-1.1,1.1-2.2,1.6-3.3c1-2.2,1.9-4.5,2.8-6.8l0-0.1
		c0.3-0.7,0.7-1.4,0.9-2.1c0.3-0.7,0.5-1.4,0.7-2.1c0.3-1.4,0.5-2.9,0.3-4.4C105.8,34.8,105.4,33.3,104.8,31.9z"/>
	<path class="st0" d="M34.1,60.9c-0.1-0.1-0.2-0.2-0.4-0.2c-0.1,0,0.1,0,0.1,0C34,60.7,34,60.8,34.1,60.9z"/>
	<path class="st0" d="M91.3,118.2L91.3,118.2L91.3,118.2C91.4,118.2,91.3,118.2,91.3,118.2L91.3,118.2z"/>
	<path class="st0" d="M33,62.5C32.9,62.5,32.9,62.5,33,62.5C33,62.5,33.1,62.5,33,62.5z"/>
	<path class="st0" d="M85.5,110.5L85.5,110.5C85.5,110.5,85.5,110.5,85.5,110.5C85.5,110.5,85.5,110.5,85.5,110.5z"/>
	<path class="st0" d="M85.4,113.3L85.4,113.3L85.4,113.3C85.4,113.3,85.4,113.3,85.4,113.3z"/>
	<path class="st0" d="M85.9,110.4c-0.1,0.1-0.1,0.1-0.2,0.1c0,0,0,0,0,0C85.8,110.5,85.9,110.5,85.9,110.4z"/>
	<path class="st0" d="M60.1,116.2C60.1,116.2,60.1,116.2,60.1,116.2C60.1,116.2,60.1,116.2,60.1,116.2
		C60.1,116.2,60.1,116.2,60.1,116.2z"/>
	<path class="st0" d="M60.2,118.7C60.2,118.7,60.2,118.7,60.2,118.7C60.2,118.7,60.2,118.7,60.2,118.7z"/>
	<path class="st0" d="M94.4,116.6c-0.9-0.4-1.6-0.5-2.1-0.4c0,0.3,0,0.6,0,0.9c0,0.3,0,0.6,0,1c0.7-0.1,3.1-0.1,4.5,2.5
		C96.5,119,96.7,117.6,94.4,116.6z"/>
	<path class="st0" d="M90.2,115c0,0,0.1,0,0.1,0c-0.1-1.3-0.1-2.5-2.1-3.4c-0.9-0.4-1.6-0.4-2.1-0.4l0,0.1c0,0.5,0.1,1.1,0.1,1.6
		C86.8,112.8,88.9,112.7,90.2,115z"/>
	<path class="st0" d="M85,120.4c-0.7-0.3-1.3-0.4-1.7-0.3c0,0.2-0.1,0.4-0.1,0.7c0,0.3-0.1,0.5-0.1,0.8l0,0.1c0,0,2.4-0.5,3.8,2
		C86.8,122.4,86.9,121.3,85,120.4z"/>
	<path class="st0" d="M62.9,119c-0.3,0-0.7,0-1.5,0.5c-1.5,1-1.3,1.9-1.2,3c0.8-2.2,2.7-2.2,3-2.2c-0.1-0.3-0.2-0.5-0.2-0.8
		C62.9,119.3,62.9,119.2,62.9,119z"/>
	<path class="st0" d="M59.1,116.9c-0.3,0.1-0.6,0.2-1.1,0.4c-1.5,1-1.3,1.9-1.2,3c0.6-1.7,1.9-2.1,2.6-2.2c0-0.1-0.1-0.2-0.1-0.3
		C59.3,117.5,59.2,117.2,59.1,116.9z"/>
</g>
</svg>
