<?xml version="1.0" encoding="utf-8"?>
<!-- Generator: Adobe Illustrator 24.1.2, SVG Export Plug-In . SVG Version: 6.00 Build 0)  -->
<svg version="1.1" id="Layer_1" xmlns="http://www.w3.org/2000/svg" xmlns:xlink="http://www.w3.org/1999/xlink" x="0px" y="0px"
	 viewBox="0 0 128 128" style="enable-background:new 0 0 128 128;" xml:space="preserve">
<style type="text/css">
	.st0{fill:#2D2D2D;}
</style>
<g>
	<path class="st0" d="M38.09,11.34c0.03,0.37,0.05,0.74,0.06,1.11c0.01,0.13,0,0.27,0,0.4l0.46,0.04c0.38,0.04,0.75,0.1,1.13,0.15
		c1.5,0.25,3,0.54,4.5,0.51c0.82-0.05,0.43-1.08,0.4-1.76c-0.09-0.74-0.25-1.49-0.37-2.23c-0.12-0.74-0.24-1.49-0.29-2.23
		c-0.05-0.74-0.08-1.49-0.09-2.23c-0.01-0.17,0-0.4-0.01-0.53c0-0.12-0.02-0.23-0.05-0.35c-0.05-0.23-0.15-0.44-0.28-0.64
		c-0.27-0.4-0.7-0.69-1.2-0.78l-0.19-0.02l-0.27-0.01l-0.56-0.03c-0.38-0.03-0.75-0.04-1.13-0.08l-0.25-0.02
		c-0.07-0.01-0.14-0.01-0.21,0c-0.14,0-0.28,0.01-0.42,0.04c-0.28,0.06-0.56,0.18-0.81,0.35c-0.5,0.35-0.87,0.95-0.89,1.62
		c-0.04,0.74-0.05,1.49-0.02,2.23C37.65,8.37,37.96,9.85,38.09,11.34z"/>
	<path class="st0" d="M21.7,40.72l0.5-0.09c0.12-0.02,0.25-0.04,0.37-0.06c0.99-0.12,1.98-0.07,2.97,0.19
		c0.99,0.25,1.98,0.54,2.97,0.51c0.21,0,0.41-0.14,0.48-0.33c0.03-0.1,0.04-0.18,0.01-0.29c-0.02-0.12-0.04-0.24-0.07-0.37
		c-0.09-0.49-0.25-0.98-0.38-1.47c-0.06-0.24-0.13-0.49-0.17-0.73l-0.03-0.18l-0.12,0l-0.37,0.01c-0.99,0.03-1.98-0.05-2.97-0.12
		c-0.99-0.05-1.98-0.19-2.97-0.38c-0.05-0.04-0.17-0.05-0.24,0.03c-0.04,0.05-0.07,0.06-0.08,0.17l-0.03,0.37
		c-0.04,0.49-0.05,0.98-0.02,1.47c0.02,0.24,0.04,0.49,0.08,0.73L21.7,40.72z"/>
	<path class="st0" d="M38.6,37.85c-0.22,2.45-0.42,4.9-0.66,7.36c0.12,0,0.24,0,0.37,0l5.85-0.03c-0.54-2.43-0.83-4.86-1.05-7.3
		c-0.25-2.66-0.11-5.34-0.14-8.01l-0.04-8.01c0.02-2.67,0.01-5.34,0.05-8.02c0-0.02,0.01-0.03,0.02-0.04
		c-1.08,0.09-2.17,0.28-3.25,0.46c-0.15,0.02-0.31,0.05-0.46,0.07c0.36,2.52,0.45,5.04,0.47,7.55c0.03,2.67-0.33,5.33-0.52,7.99
		L38.6,37.85z"/>
	<path class="st0" d="M54.57,70.15l-0.51-0.05c-0.61-0.05-1.21-0.11-1.82-0.17c-0.02,3.28-0.04,6.23-0.07,9.51
		c0.69,0,1.25-0.05,1.88-0.17c0.14-0.03,0.3-0.06,0.43-0.08l-0.03-0.25c-0.14-1.36,0.11-2.71,0.19-4.07
		c0.08-1.36,0.18-2.71,0.29-4.07l0.02-0.25l0.01-0.13c0,0,0.01,0,0.01-0.01c0.02-0.01-0.02-0.09-0.1-0.15
		C54.81,70.21,54.69,70.17,54.57,70.15z"/>
	<path class="st0" d="M10.85,41.94c0.11,0.16,0.06,3.36-0.01,3.57c1.24-0.02,2.09-0.04,3.33-0.05c-0.01-0.02-0.03-0.04-0.04-0.05
		c-0.14-0.19,0.14-3.22,0.25-3.54C13.77,41.97,11.49,41.94,10.85,41.94z"/>
	<path class="st0" d="M23.62,42c0.11,0.16-0.12,2.52-0.23,2.88c-0.05,0.15-0.1,0.3-0.15,0.45c1.18-0.01,2.37-0.02,3.55-0.03
		c-0.1-0.16,0.05-3.16,0.17-3.48C26.35,41.92,24.26,42,23.62,42z"/>
	<path class="st0" d="M8.97,40.55c0.02,0.16,0.05,0.17,0.08,0.19c0.07,0.04,0.67-0.15,0.79-0.17c0.99-0.12,1.98-0.07,2.97,0.19
		c0.99,0.25,1.98,0.54,2.97,0.51c0.21,0,0.41-0.14,0.48-0.33c0.03-0.1,0.04-0.18,0.01-0.29c-0.02-0.12-0.04-0.24-0.07-0.37
		c-0.09-0.49-0.25-0.98-0.37-1.47c-0.06-0.24-0.13-0.49-0.17-0.73l-0.03-0.18l-0.12,0l-0.37,0.01c-0.99,0.03-1.98-0.05-2.97-0.12
		c-0.99-0.05-1.98-0.19-2.97-0.38c-0.05-0.04-0.17-0.05-0.24,0.03c-0.04,0.05-0.07,0.06-0.08,0.17l-0.03,0.37
		c-0.04,0.49-0.05,0.98-0.02,1.47c0.02,0.24,0.04,0.49,0.08,0.73L8.97,40.55z"/>
	<path class="st0" d="M52.27,63.72c0.57,0,0.95,0.04,1.43-0.07c0.25-0.06,0.49-0.11,0.74-0.15c0-0.1,0-0.19-0.01-0.29
		c0-0.28,0.02-0.56,0.05-0.83c0.06-0.56,0.14-1.11,0.18-1.67l0.13-1.67l0.08-0.83l0.04-0.42c0.01-0.06,0.03-0.03,0.01-0.08
		c-0.03-0.09-0.19-0.2-0.38-0.23c0,0-1.79,0.04-2.27-0.02C52.27,59.76,52.27,61.42,52.27,63.72z"/>
	<path class="st0" d="M50.22,66.25c0-5.29-0.01-10.58,0.02-15.88l0.01-0.99l0-0.49c0-0.11-0.01-0.22-0.03-0.32
		c-0.07-0.42-0.3-0.82-0.64-1.1c-0.35-0.28-0.75-0.42-1.25-0.42l-2.01-0.01l-8.02-0.05c-10.7-0.06-21.39-0.19-32.09-0.37
		c-1.1-0.04-2.17,0.82-2.33,1.93c-0.03,0.14-0.03,0.26-0.04,0.43l-0.01,0.5l-0.01,0.99l-0.03,1.98c-0.05,2.65-0.07,5.29-0.08,7.94
		c-0.03,5.29-0.06,10.58-0.03,15.88c0.03,5.29,0.12,10.58,0.22,15.88L4.2,108c0.05,5.29,0.08,10.58,0.05,15.88l-0.01,0.99l0,0.49
		c0,0.12,0.01,0.23,0.03,0.35c0.08,0.46,0.33,0.89,0.7,1.19c0.37,0.31,0.81,0.47,1.35,0.47l2.01,0.03c2.67,0.03,5.35,0.1,8.02,0.16
		c10.69,0.23,20.52,0.46,31.21,0.43c0.65-0.01,1.29-0.24,1.77-0.66c0.49-0.41,0.82-1.01,0.9-1.64c0.06-0.62,0.01-1.31,0.02-1.97
		l-0.02-1.98C50.19,119.1,50.62,98,50.62,98C50.32,87.41,50.27,76.83,50.22,66.25z M41.07,113.43l-0.04,0.47
		c-0.03,0.31-0.05,0.63-0.07,0.94c-0.03,0.31,0,0.63-0.11,0.97c-0.2,0.67-0.86,1.14-1.54,1.12c-2.53-0.02-5.06,0.25-7.6,0.51
		c-1.27,0.11-2.53,0.21-3.8,0.24c-1.27,0.03-2.53,0.01-3.8-0.05c-2.53-0.12-5.06-0.43-7.6-0.48c-0.33-0.01-0.61,0-0.98-0.02
		c-0.38-0.04-0.74-0.2-1.02-0.46c-0.28-0.25-0.48-0.6-0.54-0.97c-0.02-0.09-0.02-0.19-0.03-0.28l0-0.24l-0.02-0.47l-0.03-0.94
		l-0.02-0.47c-0.01-0.15-0.01-0.38,0.04-0.57c0.17-0.79,0.92-1.45,1.79-1.48c2.53-0.19,5.06-0.33,7.6-0.38
		c2.53-0.08,5.06-0.13,7.6-0.12c2.53,0.04,5.06,0.1,7.6,0.39l1,0.1c0.43,0.07,0.82,0.28,1.1,0.59c0.28,0.3,0.45,0.68,0.48,1.07
		c0.01,0.1,0.01,0.19,0.01,0.29L41.07,113.43z M41.07,104.14l-0.04,0.47c-0.03,0.31-0.05,0.63-0.07,0.94
		c-0.03,0.31,0,0.63-0.11,0.97c-0.2,0.67-0.86,1.14-1.54,1.12c-2.53-0.02-5.06,0.25-7.6,0.51c-1.27,0.11-2.53,0.21-3.8,0.24
		c-1.27,0.02-2.53,0.01-3.8-0.05c-2.53-0.12-5.06-0.43-7.6-0.48c-0.33-0.01-0.61,0-0.98-0.02c-0.38-0.04-0.74-0.2-1.02-0.46
		c-0.28-0.25-0.48-0.6-0.54-0.97c-0.02-0.09-0.02-0.19-0.03-0.28l0-0.24l-0.02-0.47l-0.03-0.94l-0.02-0.47
		c-0.01-0.15-0.01-0.38,0.04-0.57c0.17-0.79,0.92-1.45,1.79-1.48c2.53-0.19,5.06-0.33,7.6-0.38c2.53-0.08,5.06-0.13,7.6-0.11
		c2.53,0.04,5.06,0.1,7.6,0.39l1,0.1c0.43,0.07,0.82,0.28,1.1,0.59c0.28,0.3,0.45,0.68,0.48,1.07c0.01,0.1,0.01,0.19,0.01,0.29
		L41.07,104.14z M41.07,94.86l-0.04,0.47c-0.03,0.31-0.05,0.63-0.07,0.94c-0.03,0.31,0,0.63-0.11,0.97
		c-0.2,0.67-0.86,1.14-1.54,1.12c-2.53-0.02-5.06,0.25-7.6,0.51c-1.27,0.11-2.53,0.21-3.8,0.24c-1.27,0.03-2.53,0.01-3.8-0.05
		c-2.53-0.12-5.06-0.43-7.6-0.48c-0.33-0.01-0.61,0-0.98-0.02c-0.38-0.04-0.74-0.2-1.02-0.46c-0.28-0.25-0.48-0.6-0.54-0.97
		c-0.02-0.09-0.02-0.19-0.03-0.28l0-0.24l-0.02-0.47l-0.03-0.94l-0.02-0.47c-0.01-0.15-0.01-0.38,0.04-0.57
		c0.17-0.79,0.92-1.45,1.79-1.48c2.53-0.19,5.06-0.33,7.6-0.38c2.53-0.08,5.06-0.13,7.6-0.12c2.53,0.04,5.06,0.1,7.6,0.39l1,0.1
		c0.43,0.07,0.82,0.28,1.1,0.59c0.28,0.3,0.45,0.68,0.48,1.07c0.01,0.1,0.01,0.19,0.01,0.29L41.07,94.86z M43.46,57.5l-0.01,0.84
		c-0.01,1.12-0.02,2.23-0.06,3.35c-0.04,2.23-0.16,4.46-0.29,6.69c-0.12,2.23-0.27,4.46-0.37,6.69c-0.06,1.12-0.08,2.23-0.12,3.35
		l-0.02,0.84c-0.01,0.28,0.02,0.55-0.05,0.86c-0.14,0.6-0.73,1.04-1.35,1.03c-4.51-0.03-9.01,0.26-13.52,0.5
		c-4.51,0.26-9.01,0.31-13.52,0.19l-0.21,0l-0.11,0l-0.17-0.01c-0.23-0.03-0.45-0.09-0.65-0.18c-0.41-0.19-0.74-0.52-0.94-0.92
		c-0.1-0.2-0.16-0.41-0.19-0.63c-0.02-0.1-0.02-0.23-0.02-0.32l0.01-0.21l0.03-0.84l0.14-3.35c0.1-2.23,0.19-4.46,0.22-6.69
		c0.03-2.23,0.03-4.46-0.01-6.69c-0.02-1.12-0.04-2.23-0.09-3.35l-0.03-0.84c0.01-0.28-0.06-0.53,0.02-0.94
		c0.15-0.76,0.88-1.36,1.69-1.37c4.51-0.18,9.01-0.32,13.52-0.37c4.51-0.07,9.01-0.14,13.52-0.12l0.21,0l0.11,0l0.19,0.01
		c0.25,0.02,0.5,0.09,0.73,0.19c0.46,0.21,0.84,0.57,1.08,1.01c0.12,0.22,0.19,0.46,0.23,0.71c0.02,0.12,0.02,0.26,0.03,0.36
		L43.46,57.5z"/>
	<path class="st0" d="M75.05,52.24l-2.23,3.2c2.16,1.14,4.23,2.64,5.75,4.72c0.83,1.16,1.46,2.47,1.85,3.84
		c0.38,1.37,0.53,2.78,0.54,4.16c-0.02,1.38-0.19,2.78-0.57,4.15c-0.39,1.36-1.03,2.66-1.86,3.81c-1.59,2.15-3.78,3.62-6.04,4.72
		c0.34,0.52,0.67,1.06,1.02,1.61l1.42,2.23c0.36-0.26,0.66-0.52,0.96-0.74l0.98-0.79l0.93-0.84l0.87-0.89
		c1.12-1.22,2.09-2.54,2.88-3.97c0.79-1.42,1.4-2.93,1.81-4.49c0.2-0.78,0.35-1.57,0.48-2.37l0.13-1.2l0.08-1.21
		c0.11-3.22-0.48-6.58-2.15-9.48C80.34,55.92,77.88,53.67,75.05,52.24z"/>
	<path class="st0" d="M3.05,58.49c-0.51,0.14-1.02-0.05-1.52,0.05l-0.77,0.13l-0.19,0.03c-0.04,0-0.05,0.01-0.05,0.01
		c0,0-0.01,0.01-0.01,0.01l-0.03,0.07c-0.03,0.07-0.05,0.18-0.05,0.3l0.07,0.62l0.11,1.52c0.14,2.03-0.11,4.06-0.19,6.09L0.12,73.4
		l-0.09,1.52c-0.01,0.25-0.05,0.53-0.03,0.7c0.02,0.19,0.1,0.38,0.22,0.5c0.14,0.13,0.22,0.15,0.53,0.16l0.77,0.05l1.54-0.04
		c0.01,0,0.02,0.01,0.03,0.02c0-0.07,0-0.13,0-0.2c0.04-5.29,0-10.44-0.03-15.73C3.06,59.65,3.05,59.21,3.05,58.49z"/>
	<path class="st0" d="M121.26,7.6c-2.21-2.37-4.93-4.32-7.96-5.6c-3.02-1.31-6.33-1.96-9.63-2c-3.3,0.01-6.62,0.64-9.66,1.93
		c-3.04,1.28-5.82,3.16-8.12,5.48c-2.31,2.32-4.12,5.11-5.32,8.13c-1.22,3.01-1.74,6.27-1.67,9.47c0.16,6.43,2.9,12.65,7.41,17.18
		c2.25,2.27,4.92,4.15,7.88,5.47c2.96,1.31,6.2,2.05,9.48,2.13c3.27,0.05,6.58-0.56,9.6-1.85c3.03-1.26,5.76-3.19,7.97-5.55
		c4.46-4.73,6.76-11.1,6.77-17.39C128.01,18.72,125.7,12.35,121.26,7.6z M101.34,38.85c-0.52-0.61-0.94-1.3-1.13-2.17
		c-0.08-0.43-0.1-0.9,0.02-1.35c0.12-0.45,0.36-0.88,0.67-1.24c0.62-0.73,1.61-1.23,2.62-1.19c0.5,0.02,0.99,0.14,1.43,0.38
		c0.43,0.23,0.77,0.6,1,1.01c0.45,0.84,0.45,1.67,0.46,2.4c-0.01,0.37-0.02,0.75-0.08,1.15c-0.06,0.4-0.16,0.83-0.39,1.23
		c-0.44,0.82-1.46,1.32-2.41,1.18C102.56,40.11,101.85,39.45,101.34,38.85z M105.71,9.76l0.36-0.02l0.18-0.01
		c0.18,0,0.37,0.04,0.54,0.11c0.34,0.15,0.61,0.46,0.7,0.83c0.05,0.16,0.04,0.44,0.04,0.44l0,0.18l-0.01,0.72
		c-0.04,1.92-0.07,3.84-0.2,5.75c-0.07,0.96-0.15,1.91-0.26,2.87c-0.11,0.95-0.28,1.91-0.46,2.86c-0.18,0.95-0.39,1.9-0.54,2.85
		c-0.08,0.48-0.15,0.95-0.2,1.43l-0.07,0.72c0,0.1-0.02,0.29-0.13,0.4c-0.1,0.12-0.25,0.18-0.4,0.18c-0.97,0-1.94,0.04-2.91,0.15
		l-0.18,0.02l-0.09,0.01c-0.04,0-0.1,0-0.15,0c-0.21-0.03-0.4-0.15-0.51-0.33c-0.06-0.09-0.1-0.2-0.11-0.31l-0.03-0.18l-0.07-0.36
		l-0.27-1.43c-0.37-1.9-0.53-3.81-0.51-5.73c0.01-1.92,0.22-3.85,0.17-5.77c-0.02-0.96-0.09-1.92-0.18-2.87l-0.07-0.72l-0.05-0.36
		c-0.01-0.07-0.02-0.1-0.02-0.2c0-0.12,0.02-0.24,0.07-0.35c0.1-0.22,0.3-0.4,0.54-0.46c0.06-0.02,0.12-0.03,0.18-0.03l0.1-0.01
		l0.18-0.02l0.73-0.06c0.97-0.08,1.94-0.19,2.91-0.24L105.71,9.76z"/>
</g>
</svg>
