<?xml version="1.0" encoding="utf-8"?>
<!-- Generator: Adobe Illustrator 24.1.2, SVG Export Plug-In . SVG Version: 6.00 Build 0)  -->
<svg version="1.1" id="Layer_1" xmlns="http://www.w3.org/2000/svg" xmlns:xlink="http://www.w3.org/1999/xlink" x="0px" y="0px"
	 viewBox="0 0 128 128" style="enable-background:new 0 0 128 128;" xml:space="preserve">
<style type="text/css">
	.st0{fill:#2D2D2D;}
</style>
<g>
	<path class="st0" d="M77.3,44.7c0.2,0.2,0.3,0.4,0.5,0.6c0.5-0.8,1-1.5,1.5-2.3c0.9-1.2,1.8-2.3,2.8-3.4l0.3-0.3
		c0.5-1.2,0.8-2.5,1.1-3.7c0.5-2,0.7-4,1-6.1c0.3-2.1,0.4-4.1,0.9-6.2c0.3-1.2,1-2.1,1.6-3c0.7-0.8,1.5-1.6,2.2-2.3
		c1.6-1.4,3.3-2.7,5-3.8c2.5-1.7,5-3.2,7.6-4.6c0.7-0.3,1.8-1,2.3-1.2c0.2-0.1,0.4-0.2,0.6-0.3l1.6-3.8l0.9-2l0.4-1l0-0.1l-0.9-0.3
		L104.6,0l-0.1,0c-0.3,0.7-0.5,1.3-0.8,2c-0.7,1.4-1.4,2.8-2.4,4.1c-0.5,0.7-1.1,1.3-1.7,1.8c-0.3,0.3-0.7,0.5-1.1,0.8l-0.9,0.5
		c-2.4,1.5-4.7,3.3-6.9,5.1c-1,1-2.1,1.9-3,3c-0.9,1.1-1.8,2.1-2.4,3.3c-0.2,0.3-0.3,0.6-0.4,0.9c-0.1,0.3-0.3,0.6-0.4,0.9l-0.3,0.9
		L84,24.5l-0.8,4.3c-0.6,2.9-1.2,5.9-2.3,8.7c-0.5,1.4-1.1,2.8-2,4.1c-0.6,0.9-1.2,1.8-2,2.5l0.1,0.1L77.3,44.7z"/>
	<path class="st0" d="M80.6,44.4c-0.8,0.6-1.6,1.1-2.4,1.6c0,0.1,0.1,0.1,0.2,0.2c1,1.4,2,2.9,3.1,4.2c0,0,0-0.1,0.1-0.1
		c0,0,0-0.1,0-0.1c0,0,0.1-0.1,0.1-0.1c0.6-1,1.2-1.9,1.8-2.8c0.6-0.8,1.2-1.5,1.8-2.3c-0.8-0.8-1.6-1.6-2.4-2.4
		C82.2,43.2,81.4,43.8,80.6,44.4z"/>
	<path class="st0" d="M128,23.3l-0.7-2.1l-0.3-0.9l-0.1,0l-1,0.4l-2,0.9l-3.8,1.6c-0.1,0.2-0.2,0.4-0.3,0.7
		c-0.2,0.3-0.8,1.7-1.2,2.2c-1.4,2.6-3,5.1-4.6,7.6c-1.2,1.7-2.4,3.4-3.8,5c-0.7,0.8-1.5,1.6-2.3,2.2c-0.9,0.7-1.8,1.3-3,1.6
		c-2.1,0.5-4.2,0.7-6.2,0.9c-2.1,0.2-4.1,0.5-6.1,1c-1.3,0.3-2.5,0.7-3.7,1.1l-0.3,0.3c-1.1,1-2.2,1.9-3.4,2.8c-1,0.7-2,1.4-3.1,2
		c0.4,0.4,0.8,0.9,1.2,1.3c0.8-1.2,2-2.2,3.3-3c1.3-0.8,2.7-1.5,4.1-2c2.9-1,5.8-1.7,8.7-2.2l4.4-0.8l1.1-0.2l0.9-0.3
		c0.3-0.1,0.6-0.2,0.9-0.4c0.3-0.1,0.6-0.3,0.9-0.4c1.2-0.6,2.3-1.5,3.3-2.4c1.1-0.9,2-2,3-3c1.9-2.1,3.7-4.4,5.2-6.9l0.5-0.9
		c0.2-0.4,0.5-0.8,0.8-1.1c0.6-0.7,1.2-1.3,1.9-1.7c1.3-1,2.7-1.7,4.1-2.4c0.7-0.3,1.3-0.6,2-0.8L128,23.3z"/>
	<path class="st0" d="M81.4,50.9c-0.1,0-0.2,0.1-0.2,0.1c0-0.1,0.1-0.2,0.1-0.2c-1.4-1.1-2.8-2.2-4.3-3.2c-0.5-0.4-1-0.7-1.5-1.1
		l-0.1-0.1L75,47c-0.3,0.6-0.7,1.1-1,1.6c-0.7,1.1-1.5,2.1-2.4,3c-0.4,0.5-0.9,1-1.4,1.4l-1.4,1.3c-0.9,0.8-1.8,1.7-2.8,2.5
		c-0.5,0.4-1,0.8-1.5,1.2l-0.7,0.6l-0.4,0.3c-0.1,0.1-0.3,0.3-0.3,0.2c0,0-0.1,0-0.1,0.1c-0.1,0,0.2,0.3,0.4,0.5
		c0.4,0.5,0.8,1,1.2,1.4c0.8,0.9,1.7,1.8,2.6,2.7c0.2,0.2,0.5,0.4,0.7,0.6l0.4,0.3c0.1,0.1,0.1,0.1,0.2,0.1c0.1,0,0.2-0.1,0.2-0.1
		l0.6-0.7c0.8-1,1.6-1.9,2.4-2.9c0.8-0.9,1.7-1.8,2.6-2.6l0.7-0.6c0.3-0.2,0.5-0.4,0.8-0.6c0.5-0.4,1.1-0.7,1.6-1.1
		c1.1-0.6,2.3-1.2,3.4-1.8c0.6-0.3,1.1-0.6,1.7-0.9c0.3-0.1,0.4-0.3,0.5-0.6c0.1-0.3,0-0.5-0.2-0.7C82.4,51.8,81.9,51.4,81.4,50.9z"
		/>
	<path class="st0" d="M66.6,64.5c-0.8-0.9-1.7-1.8-2.7-2.6c-0.5-0.4-0.9-0.8-1.4-1.2l-0.2-0.2C52,72,41.4,83.2,30.6,94.2
		c-5.5,5.6-11.1,11-16.8,16.4c-2.8,2.7-5.6,5.4-8.5,8.1c-1.4,1.4-2.8,2.7-4.3,4l-1,0.9C0,123.8,0,124,0,124.2c0,0,0,0.1,0.1,0.1
		c0,0,0,0.1,0.1,0.2l0.5,0.5l1,1.1l1,1.1l0.5,0.5c0.1,0.1,0.1,0.1,0.2,0.2c0,0,0.1,0.1,0.1,0.1c0.2,0.1,0.5,0.1,0.7,0
		c0.1,0,0.3-0.3,0.5-0.4l0.5-0.5c1.4-1.3,2.8-2.7,4.3-4c2.8-2.7,5.6-5.5,8.3-8.3c2.7-2.8,5.4-5.7,8.1-8.5l8-8.6
		c5.4-5.7,11-11.1,16.7-16.5c5.5-5.3,11.1-10.4,16.9-15.5l-0.3-0.3C67,65,66.8,64.8,66.6,64.5z"/>
	<path class="st0" d="M103.2,20.5c1.9-5.3,1.7-10.3,1.7-10.3l-2.6,1.3C102.3,11.5,103.2,17.9,103.2,20.5z"/>
	<path class="st0" d="M116.6,25.7l1.3-2.7c0,0-5.9-0.3-11.3,1.5C109.9,24.4,116.6,25.7,116.6,25.7z"/>
	<path class="st0" d="M88,41.4c0.8-0.5,1.6-1.1,2.4-1.7c1.5-1.2,2.6-2.8,3.9-4.3c1.3-1.5,2.5-2.9,3.8-4.4c1.2-1.5,2.5-3,3.7-4.5
		l-0.2-0.2c-1.5,1.2-3,2.4-4.5,3.6c-1.5,1.2-3,2.5-4.4,3.8c-1.5,1.3-3.1,2.3-4.3,3.9c-0.6,0.7-1.2,1.5-1.7,2.4
		c-0.5,0.8-1,1.7-1.4,2.7l0.2,0.2C86.3,42.4,87.2,41.9,88,41.4z"/>
</g>
</svg>
