<?xml version="1.0" encoding="utf-8"?>
<!-- Generator: Adobe Illustrator 18.1.0, SVG Export Plug-In . SVG Version: 6.00 Build 0)  -->
<svg version="1.1" id="Layer_1" xmlns="http://www.w3.org/2000/svg" xmlns:xlink="http://www.w3.org/1999/xlink" x="0px" y="0px"
	 viewBox="0 0 128 128" 
width="128" height="128"
enable-background="new 0 0 128 128" xml:space="preserve">
<g>
	<path fill="#2D2D2D" d="M5.9,99.1L4,102c0,1.2,0.4,1.7,0.9,2.2l1.6-3.6C6.5,100.1,6.3,99.5,5.9,99.1z"/>
	<path fill="#2D2D2D" d="M4.9,97.1c0.1-0.3,0-0.9,0-1.4l-2.5,2.1c0,0.9,0.2,1.8,0.5,2.4L4.9,97.1C4.9,97.1,4.9,97.1,4.9,97.1z"/>
	<path fill="#2D2D2D" d="M18,114.3c-0.1-0.4-0.8-1.3-1.5-1.8l-0.1,3.7c0.3,0.8,0.9,1.4,1.8,1.7l0-3.2L18,114.3z"/>
	<path fill="#2D2D2D" d="M4.6,90.6l-3,2.3l0,0.1c-0.5,1.2-0.3,2.2,0,2.8l2.9-2.4C4.6,92.4,4.7,91.3,4.6,90.6z"/>
	<path fill="#2D2D2D" d="M14.5,111.2c-0.1-0.5-0.5-1.2-1-1.7l-0.6,3.5c0.3,0.9,0.9,1.5,1.6,1.8l0.1-3.5L14.5,111.2z"/>
	<path fill="#2D2D2D" d="M10.3,105.5l-0.8,3.6c0,0,0,0,0,0c0.1,1.2,0.9,2,1.6,2.6l0.7-3.6C11.5,107.1,11.2,106,10.3,105.5z"/>
	<path fill="#2D2D2D" d="M7.9,102.4l-1.5,3.4c0.1,1.1,0.8,1.7,1.3,2.1l0.9-3.8C8.5,103.5,8.3,102.9,7.9,102.4z"/>
	<path fill="#2D2D2D" d="M70.1,120.4H70c-0.8,0-1.7,0.1-2.4,0.5l3.2,1.7c1.1,0,1.9-0.4,2.5-0.9L70.1,120.4
		C70.1,120.4,70.1,120.4,70.1,120.4z"/>
	<path fill="#2D2D2D" d="M4.9,86.2l-3.2,1.9l-0.1,0.2c-0.4,0.6-0.5,1.6-0.4,2.5l3.1-2.4C4.6,87.8,4.9,86.9,4.9,86.2z"/>
	<path fill="#2D2D2D" d="M11.5,65.1l-3.4,0.4l-0.4,0.1c-0.5,0.1-1,1.1-1.3,1.9l3.6-0.6C10.4,66.6,11.1,65.8,11.5,65.1z"/>
	<path fill="#2D2D2D" d="M6.3,77.3l-3.4,1.5l-0.1,0.1c-0.7,0.4-0.9,1.5-0.9,2.3L5.5,79C5.9,78.6,6.2,77.9,6.3,77.3z"/>
	<path fill="#2D2D2D" d="M4.9,83.9c0.4-0.5,0.8-1.7,0.7-2.6l-3.7,2.2l-0.1,0.1c-0.3,0.3-0.5,0.9-0.6,1.7c0,0.3,0,0.5,0,0.8L4.9,83.9
		C4.9,83.9,4.9,83.9,4.9,83.9z"/>
	<path fill="#2D2D2D" d="M63.7,122.4l2.7,1.8l0.2,0.1c1.1,0.3,1.9,0,2.4-0.4l-3.4-1.9C65,122.1,64.3,122.2,63.7,122.4z"/>
	<path fill="#2D2D2D" d="M50.2,124.6l2.4,3c0.9,0.2,1.7,0.1,2.4-0.1l-2.5-2.5C51.6,124.7,50.8,124.6,50.2,124.6z"/>
	<path fill="#2D2D2D" d="M21.9,116.8c-0.3-0.5-0.9-1.2-1.8-1.5l0.1,3.6c0.5,1.1,1.2,1.4,1.9,1.6L21.9,116.8
		C21.9,116.8,21.9,116.8,21.9,116.8z"/>
	<path fill="#2D2D2D" d="M57.2,124.4c-0.1,0-0.5-0.1-1.2-0.1c-0.5,0-0.9,0-1.3,0.1l2.5,2.5c1.1,0.1,1.8,0,2.3-0.2L57.2,124.4
		L57.2,124.4z"/>
	<path fill="#2D2D2D" d="M60.3,123.3c-0.4,0-0.8,0-1.2,0.2l2.3,2.3c1.7,0.4,2.6,0.2,3.2-0.3l-3.2-2.1
		C61.2,123.4,60.8,123.3,60.3,123.3z"/>
	<path fill="#2D2D2D" d="M14.3,61.1l-3.6,0.2l-0.2,0.1c-1.2,0.4-1.7,1.4-1.9,2.1l4.1-0.5C13.1,62.6,13.8,61.8,14.3,61.1z"/>
	<path fill="#2D2D2D" d="M45.7,124.7l1.8,2.9c1.2,0.5,2.1,0.5,2.8,0.4l-2.4-3C47.4,124.7,46.5,124.6,45.7,124.7z"/>
	<path fill="#2D2D2D" d="M43.3,124.6c-0.5-0.4-1.3-0.6-2-0.6l1.4,3.2c0.9,0.7,1.9,0.7,2.6,0.6L43.3,124.6
		C43.3,124.6,43.3,124.6,43.3,124.6z"/>
	<path fill="#2D2D2D" d="M24,117.9l0.2,3.3c0.5,1.3,1.3,1.6,2.2,1.7l-0.7-3.6C25.5,118.9,24.9,118.3,24,117.9z"/>
	<path fill="#2D2D2D" d="M27.9,119.9l0.7,3.4l0,0.1c0.6,1.2,1.5,1.4,2.4,1.4l-0.8-3.8C29.7,120.7,28.9,120.1,27.9,119.9z"/>
	<path fill="#2D2D2D" d="M36.6,123.1l1.4,3.4l0,0c0.5,0.6,1.6,0.7,2.4,0.7l-1.4-3.2C38.2,123.5,37.3,123.2,36.6,123.1z"/>
	<path fill="#2D2D2D" d="M32.3,121.7l0.8,3.4c1,1,2,1.2,2.8,1.3l-1.5-3.6C33.9,122.4,33.1,121.9,32.3,121.7z"/>
	<path fill="#2D2D2D" d="M9.1,69.1l-2.8,0.5l-0.7,0.2c-0.5,0.2-1,1.2-1.2,2L7.7,71C8.2,70.6,8.8,69.8,9.1,69.1z"/>
	<path fill="#2D2D2D" d="M84.7,39.1c0.3,0,0.7,0,0.9-0.1L84,35.8l-0.1-0.1c-0.6-0.5-1.9-0.6-2.8-0.5l2.1,3.6
		C83.4,38.9,83.9,39.1,84.7,39.1z"/>
	<path fill="#2D2D2D" d="M89.1,39.3C89.1,39.3,89.1,39.3,89.1,39.3c0.1,0,0.2,0,0.3,0c-1-1.3-1.3-2.7-1.4-3.5
		c-0.8-0.2-1.4-0.3-1.9-0.3l1.7,3.4C88.3,39.2,88.8,39.3,89.1,39.3z"/>
	<path fill="#2D2D2D" d="M80.9,38.8l-2.1-3.6c-0.7-0.4-1.6-0.4-2.4-0.3l2.2,3.2C79,38.4,79.9,38.8,80.9,38.8z"/>
	<path fill="#2D2D2D" d="M91.3,38.4l2.9-2.4c-0.1-1-0.7-2.1-1.2-2.8l-3,2.4C90.1,36.2,90.4,37.4,91.3,38.4z"/>
	<path fill="#2D2D2D" d="M65.8,38.2c0.3,0,0.5,0,0.8-0.1l-2.4-3.1c-1-0.4-2-0.3-2.7-0.1l2.8,3C64.5,38.1,65,38.2,65.8,38.2z"/>
	<path fill="#2D2D2D" d="M70.8,38.2c0.2,0,0.4,0,0.6,0l-2.2-3.1c-0.8-0.5-1.9-0.4-2.6-0.3l2.4,3C69,38,69.8,38.2,70.8,38.2z"/>
	<path fill="#2D2D2D" d="M76,38.4c0.1,0,0.2,0,0.4,0L74,35c-1-0.3-1.9-0.2-2.6-0.1l2.2,3C74.1,38.2,75.1,38.4,76,38.4z"/>
	<path fill="#2D2D2D" d="M94.9,38l-3.1,2.6c0,0.3,0.1,1.2,0.4,1.9L95,40C95.2,39.3,95.1,38.6,94.9,38z"/>
	<path fill="#2D2D2D" d="M74.7,14.3l5.5-3.5l-4.8-7.5C74.8,2.5,73.9,2,72.9,2c-0.5,0-1.1,0.2-1.6,0.5l-0.6,0.4
		c-0.7,0.4-1.1,1.1-1.3,1.8c-0.2,0.8,0,1.5,0.4,2.2L74.7,14.3z"/>
	<path fill="#2D2D2D" d="M90.8,29L87.5,31c0,0.9,0.6,1.7,1.1,2.4c0.1,0.2,0.2,0.3,0.3,0.4l2.9-2.3C92,31,91.4,29.6,90.8,29z"/>
	<path fill="#2D2D2D" d="M17,57.8l-4-0.3c-0.8,0.2-1.3,1-1.6,1.7l4-0.2C15.8,58.8,16.5,58.4,17,57.8z"/>
	<path fill="#2D2D2D" d="M33,44.8c0.8,0,1.7-0.3,2.3-0.7l-3.3-1.6c-0.9,0-1.7,0.4-2.2,1L33,44.8L33,44.8z"/>
	<path fill="#2D2D2D" d="M27.7,48.9l-3.3-1.2l-0.2,0c-1,0-1.8,0.5-2.3,1.1l3.5,0.9C26.1,49.7,27.1,49.5,27.7,48.9z"/>
	<path fill="#2D2D2D" d="M29.3,47.4c0.4,0,1.6-0.4,2.2-1L28.1,45c-1.3,0-2,0.5-2.4,1.1l3.5,1.2L29.3,47.4z"/>
	<path fill="#2D2D2D" d="M21.5,52.5c0.6,0,1.8-0.5,2.4-1.1l-3.6-0.9h-0.1c-1.1,0-1.9,0.5-2.4,1.6l3.1,0.4H21.5z"/>
	<path fill="#2D2D2D" d="M20.2,54.5l-4-0.5c-0.9,0.2-1.5,0.9-1.9,1.6l3.8,0.3C18.7,55.7,19.7,55.1,20.2,54.5z"/>
	<path fill="#2D2D2D" d="M45.9,39.9c0.2,0.1,0.5,0.2,1,0.2c0.5,0,0.9-0.1,1.3-0.2l-2.9-2.5c-0.7-0.2-1.8,0.1-2.7,0.4l3.1,2
		L45.9,39.9z"/>
	<path fill="#2D2D2D" d="M51.6,39.4c0.4,0,0.8,0,1.1-0.1l-2.9-2.8c-0.7,0-1.4,0.1-2,0.3l2.9,2.5C50.7,39.3,51.1,39.4,51.6,39.4z"/>
	<path fill="#2D2D2D" d="M55.1,38.8C55.1,38.8,55.1,38.8,55.1,38.8c0.2,0.1,0.6,0.3,1.4,0.3c0.3,0,0.6,0,0.9-0.1l-3-3
		c-1-0.4-1.8-0.4-2.5-0.2L55.1,38.8C55.1,38.8,55.1,38.8,55.1,38.8z"/>
	<path fill="#2D2D2D" d="M37.2,42.8c0.7,0,1.7-0.3,2.3-0.6l-3.5-1.8c-0.9,0-1.7,0.3-2.2,0.7L37.2,42.8
		C37.2,42.8,37.2,42.8,37.2,42.8z"/>
	<path fill="#2D2D2D" d="M60.8,38.6c0.4,0,0.8,0,1.1-0.1l-2.8-3c-0.7-0.2-1.6-0.2-2.4,0l2.9,3C59.9,38.5,60.4,38.6,60.8,38.6z"/>
	<path fill="#2D2D2D" d="M43.7,40.9l-3.4-2.3c-0.8-0.1-1.6,0.2-2.2,0.6l3.4,1.7C42.2,41.2,43.1,41.2,43.7,40.9z"/>
	<path fill="#2D2D2D" d="M6.3,75c0.3-0.3,0.9-1.1,1.1-1.9l-3.3,0.8L3.9,74c-0.9,0.8-1.1,1.8-1,2.5l3.3-1.5L6.3,75z"/>
	<path fill="#2D2D2D" d="M98.6,64.1l2.8-2.5c0.3-0.7,0.2-1.6,0-2.4l-2.9,2.7C98.2,62.7,98.3,63.5,98.6,64.1z"/>
	<path fill="#2D2D2D" d="M87.6,105.9c-0.5,0.3-1.4,0.9-1.8,1.6l3.5,0.1l0.2,0c1-0.2,1.6-1.1,1.9-1.9l-3.6,0.1
		C87.7,105.8,87.7,105.9,87.6,105.9z"/>
	<path fill="#2D2D2D" d="M97.7,57.2c-0.3,0.6-0.5,1.6,0.1,2.6l2.9-2.7l0-0.1c0.4-0.7-0.1-1.8-0.5-2.5L97.7,57.2
		C97.7,57.2,97.7,57.2,97.7,57.2z"/>
	<path fill="#2D2D2D" d="M96.9,55.1l2.5-2.7c0.1-1-0.2-1.9-0.6-2.7l-2.4,3.4C96.4,53.9,96.5,54.6,96.9,55.1z"/>
	<path fill="#2D2D2D" d="M95,48.8c-0.2,0.7-0.1,1.6,0.3,2.4l2.4-3.3l0-0.1c0.1-0.9-0.1-1.6-0.5-2.1L95,48.8
		C95.1,48.8,95,48.8,95,48.8z"/>
	<path fill="#2D2D2D" d="M91.4,99.9l3.1-0.4c1-0.6,1.6-1.5,1.7-2.3l-3.5,0.8C92.2,98.6,91.6,99.2,91.4,99.9z"/>
	<path fill="#2D2D2D" d="M93.9,46.9l2.3-3.3c0-0.2-0.2-0.9-0.5-1.6l-2.6,2.3C93.2,45.4,93.3,46.4,93.9,46.9z"/>
	<path fill="#2D2D2D" d="M97.9,77.9l3.1-1.5c0.6-0.8,0.7-2,0.6-3l-2.9,1.9C98.1,76.1,97.9,76.7,97.9,77.9z"/>
	<path fill="#2D2D2D" d="M97.1,82.8l3-1.6l0.1-0.1c0.2-0.1,0.6-0.7,0.6-2.3l-3.3,1.6C97.3,80.6,97,81.7,97.1,82.8z"/>
	<path fill="#2D2D2D" d="M90.4,102.1c-0.7,0.5-1.2,0.8-1.6,1.6l3.6-0.1c0.9-0.6,1.3-1.4,1.4-2l-3.4,0.4
		C90.4,102.1,90.4,102.1,90.4,102.1z"/>
	<path fill="#2D2D2D" d="M98.6,73l2.8-1.8l0,0c0.5-0.6,0.6-1.6,0.6-2.3l-2.9,2C98.8,71.6,98.5,72.2,98.6,73z"/>
	<path fill="#2D2D2D" d="M97,85.5c-0.3,0.5-0.5,0.9-0.5,1.6l2.9-1.2c0.8-0.9,0.9-1.7,0.8-2.5l-3,1.6C97.1,85.1,97,85.3,97,85.5z"/>
	<path fill="#2D2D2D" d="M98.8,68.6l3-2.1c0.5-0.9,0.4-1.9,0-2.7l-2.7,2.5C99,66.8,98.8,67.7,98.8,68.6z"/>
	<path fill="#2D2D2D" d="M82.9,110.8l3.4,0.4c0.9-0.2,1.6-0.9,2-1.6l-3.6-0.1C84.4,109.6,83.4,110,82.9,110.8z"/>
	<path fill="#2D2D2D" d="M117.9,42.9c-0.4,0-0.8,0.1-1.2,0.2c-1.7,0.7-2.5,2.6-1.8,4.2c0.5,1.2,1.7,2,3,2c0.4,0,0.8-0.1,1.2-0.2
		c0.8-0.3,1.4-0.9,1.8-1.7c0.3-0.8,0.4-1.7,0-2.5C120.4,43.7,119.2,42.9,117.9,42.9z"/>
	<path fill="#2D2D2D" d="M71.8,118.9l3.2,1.4c1.2-0.1,2.1-0.6,2.6-1.1l-3.7-1C73.2,118.2,72.3,118.4,71.8,118.9z"/>
	<path fill="#2D2D2D" d="M95,91.5l3.3-1c0.7-0.7,1-1.6,1-2.4l-3.1,1.3C95.8,89.8,95.2,90.6,95,91.5z"/>
	<path fill="#2D2D2D" d="M93.1,95.9l3.5-0.8c0.9-0.8,1.3-1.7,1.4-2.5l-3.6,1.2C93.7,94.6,93.3,95.3,93.1,95.9z"/>
	<path fill="#2D2D2D" d="M75.6,116.5l3.8,1.1c0.9,0,1.6-0.7,2.1-1.3l-3.7-0.8C77,115.7,76.1,115.8,75.6,116.5z"/>
	<path fill="#2D2D2D" d="M96.8,37.5c0.2,0.7,0.3,1.6,0.2,2.6c0,0,0,0,0,0.1c0,0,0,0,0,0l0,0c0,0,0,0.1,0.1,0.1c0,0,0,0,0,0.1
		c0.6,1.1,1.9,1.6,2.9,1.7l-0.7-2.9C98.8,38.3,97.8,37.7,96.8,37.5z"/>
	<polygon fill="#2D2D2D" points="109.9,42.2 106.9,41.4 106,44.4 109.1,45.2 	"/>
	<path fill="#2D2D2D" d="M102.3,42.8c0.7,0.7,1.2,1,1.8,1.1l0.9-3.3c-1.1-0.6-2.4-0.9-3.4-0.9L102.3,42.8z"/>
	<path fill="#2D2D2D" d="M79.5,113.9l3.3,0.7l0.1,0c0.8-0.2,1.6-0.9,2.1-1.5l-3.4-0.4C80.8,112.9,80,113.2,79.5,113.9z"/>
	<path fill="#2D2D2D" d="M89.6,27.4C89.6,27.3,89.6,27.3,89.6,27.4c0-0.1,0-0.1,0.1-0.1l-2-3l-3.1,2l2,3.1L89.6,27.4z"/>
	<path fill="#2D2D2D" d="M111.9,42.5l-0.3,0.9l1.5,0.4c0.3-0.6,0.8-1.2,1.3-1.7l-2.6-0.7C112,41.8,112,42.2,111.9,42.5z"/>
	<path fill="#2D2D2D" d="M112.7,45.5l-1.5-0.4L111,46c-0.1,0.4-0.4,0.7-0.7,1l2.6,0.6C112.6,46.9,112.6,46.2,112.7,45.5z"/>
	<path fill="#2D2D2D" d="M117.9,40.9c-0.7,0-1.3,0.1-2,0.4c-0.5,0.2-1,0.5-1.4,0.9c-0.6,0.5-1,1.1-1.3,1.7c-0.2,0.5-0.4,1-0.5,1.6
		c-0.1,0.7-0.1,1.4,0.1,2.1c0.1,0.2,0.1,0.4,0.2,0.6c0.8,2,2.7,3.3,4.9,3.3c0.7,0,1.3-0.1,2-0.4c1.3-0.5,2.3-1.5,2.9-2.8
		c0.6-1.3,0.6-2.7,0-4C122,42.2,120.1,40.9,117.9,40.9z M120.9,47.4c-0.3,0.8-1,1.4-1.8,1.7c-0.4,0.2-0.8,0.2-1.2,0.2
		c-1.3,0-2.5-0.8-3-2c-0.7-1.7,0.1-3.6,1.8-4.2c0.4-0.2,0.8-0.2,1.2-0.2c1.3,0,2.5,0.8,3,2C121.2,45.8,121.2,46.6,120.9,47.4z"/>
	<path fill="#2D2D2D" d="M89.6,27.4l0.1-0.1l0-0.1C89.7,27.3,89.6,27.3,89.6,27.4C89.6,27.3,89.6,27.3,89.6,27.4z"/>
	<path fill="#2D2D2D" d="M73.1,15.7c0.3,0.5,0.9,0.8,1.4,0.8c0.3,0,0.6-0.1,0.9-0.3l6-3.8c0.8-0.5,1-1.6,0.5-2.4l-5-7.8
		C76.1,0.9,74.6,0,72.9,0c-0.9,0-1.8,0.3-2.6,0.8l-0.6,0.4c-1.1,0.7-1.9,1.8-2.2,3.1c-0.3,1.3-0.1,2.6,0.6,3.7L73.1,15.7z M69.5,4.6
		c0.2-0.8,0.6-1.4,1.3-1.8l0.6-0.4c0.5-0.3,1-0.5,1.6-0.5c1,0,1.9,0.5,2.5,1.3l4.8,7.5l-5.5,3.5l-4.8-7.5
		C69.4,6.2,69.3,5.4,69.5,4.6z"/>
	<path fill="#2D2D2D" d="M80,24c0.2,0.3,0.5,0.5,0.9,0.5c0.2,0,0.4,0,0.5-0.2l5.7-3.6c0.5-0.3,0.6-0.9,0.3-1.4
		c-0.3-0.5-0.9-0.6-1.4-0.3l-5.7,3.6C79.8,22.9,79.7,23.6,80,24z"/>
	<path fill="#2D2D2D" d="M78,21.2c0.2,0.3,0.5,0.5,0.9,0.5c0.2,0,0.4,0,0.5-0.2l5.7-3.6c0.5-0.3,0.6-0.9,0.3-1.4
		c-0.3-0.5-0.9-0.6-1.4-0.3l-5.7,3.6C77.9,20.1,77.8,20.7,78,21.2z"/>
	<path fill="#2D2D2D" d="M76.5,17c-0.5,0.3-0.6,0.9-0.3,1.4c0.2,0.3,0.5,0.5,0.9,0.5c0.2,0,0.4,0,0.5-0.2l5.7-3.6
		c0.5-0.3,0.6-0.9,0.3-1.4c-0.3-0.5-0.9-0.6-1.4-0.3L76.5,17z"/>
	<path fill="#2D2D2D" d="M87.5,31l3.3-2.1l1.7-1.1l0,0l-4.2-6.4l-6.5,4.1l3.7,5.7L86,32L87.5,31z M87.7,24.2l2,3l0,0.1l-0.1,0.1
		l-3,1.9l-2-3.1L87.7,24.2z"/>
	<path fill="#2D2D2D" d="M111,46l0.2-0.9l0.5-1.6l0.3-0.9c0.1-0.4,0.1-0.7-0.1-1.1c0-0.1-0.1-0.2-0.1-0.3c-0.2-0.4-0.6-0.7-1.1-0.8
		l-4.2-1.1l-1-0.3l-0.5,1.7l-0.9,3.3l-0.5,1.9l0.8,0.2l4.4,1.2c0.2,0,0.3,0.1,0.5,0.1c0.4,0,0.7-0.1,1-0.3
		C110.6,46.7,110.8,46.4,111,46z M106,44.4l0.8-3l3,0.8l-0.8,3L106,44.4z"/>
</g>
</svg>
